<svg version="1.1" viewBox="0 0 22 22" xmlns="http://www.w3.org/2000/svg">
 <defs>
  <style id="current-color-scheme" type="text/css">.ColorScheme-Text {
        color:#363636;
      }</style>
 </defs>
 <g class="ColorScheme-Text" fill="currentColor">
  <path d="m15.505 13c1.1413 0.21838 1.9946 1.1623 1.9946 2.3012 0 0.68309-0.31118 1.2923-0.80322 1.7207-0.27542-0.30648-0.44678-0.699-0.44678-1.1334 0-0.09609 0.01614-0.18828 0.03174-0.27991-0.76205 0.40163-1.2817 1.1593-1.2817 2.042 0 1.3016 1.115 2.3494 2.5 2.3494s2.5-1.0478 2.5-2.3494c0-2.4404-1.9673-4.4107-4.4946-4.6506z"/>
  <path d="m11 8c-1.68 0-3 1.32-3 3s1.32 3 3 3 3-1.32 3-3-1.32-3-3-3zm0.0059 1.0059a2.002 2.002 0 0 1 1.9961 1.9961 2.002 2.002 0 0 1-1.9961 1.9961c-1.098 0-2.0137-0.89709-2.0137-1.9961 0-1.098 0.91567-1.9961 2.0137-1.9961z"/>
  <path d="m10.99 2a9 9 0 0 0-8.9902 9 9 9 0 0 0 9 9 9 9 0 0 0 3-0.53711v-1.0723a8 8 0 0 1-3 0.60938 8 8 0 0 1-8-8 8 8 0 0 1 8-8 8 8 0 0 1 8 8 8 8 0 0 1-0.095703 1.1953h1.0098a9 9 0 0 0 0.085938-1.1953 9 9 0 0 0-9-9 9 9 0 0 0-0.009766 0z"/>
 </g>
</svg>
