<svg width="22" height="22" version="1.1" viewBox="0 0 22 22" xmlns="http://www.w3.org/2000/svg">
 <defs>
  <style id="current-color-scheme" type="text/css">.ColorScheme-Text { color:#363636; }</style>
 </defs>
 <g class="ColorScheme-Text" transform="matrix(.05 0 0 .044444 2 3.0003)" color="#363636" enable-background="new" fill="currentColor" stroke-width=".70711">
  <path class="ColorScheme-Text" transform="matrix(30,0,0,30,-60,-60.3)" d="m8 2.0098c-2.2093 0-4 1.7908-4 4v4c0 2.2092 1.7907 4 4 4 2.2091 0 4-1.7908 4-4v-4c0-2.2092-1.7909-4-4-4zm-0.27148 1.9395c0.069967 0.00802 0.13818 0.034278 0.19531 0.080078l2.3887 1.916c0.09017 0.072267 0.14258 0.18134 0.14258 0.29688s-0.05241 0.22458-0.14258 0.29688l-1.8359 1.4707 1.8359 1.4707c0.09017 0.072267 0.14258 0.18131 0.14258 0.29688s-0.05241 0.22653-0.14258 0.29883l-2.3887 1.9141c-0.0689 0.05523-0.15325 0.08399-0.23828 0.08399-0.056 0-0.11163-0.01393-0.16406-0.03906-0.13203-0.06337-0.2168-0.19534-0.2168-0.3418v-2.7344l-1.1387 0.91992c-0.070467 0.056967-0.15613 0.085937-0.24023 0.085938-0.11103 0-0.22161-0.049478-0.29688-0.14258-0.13223-0.16357-0.10497-0.40292 0.058594-0.53516l1.5781-1.2773-1.5781-1.2754c-0.16357-0.13223-0.19083-0.37354-0.058594-0.53711 0.13223-0.1636 0.37358-0.18884 0.53711-0.056641l1.1387 0.92188v-2.7344c0-0.14647 0.084764-0.28038 0.2168-0.34375 0.066033-0.031683 0.13706-0.043177 0.20703-0.035156zm0.33789 1.1719v2.2422l1.3984-1.1211zm0 3.5352v2.2422l1.3984-1.1211z" color="#363636" fill="currentColor" stroke-width=".70711"/>
 </g>
</svg>
