<svg version="1.1" viewBox="0 0 22 22" xmlns="http://www.w3.org/2000/svg">
 <defs>
  <style id="current-color-scheme" type="text/css">.ColorScheme-Text {
          color:#363636;
        }</style>
 </defs>
 <path class="ColorScheme-Text" d="m6.9609 2c-1.0865 0-1.9609 0.87452-1.9609 1.9609v14.078c0 1.0865 0.87452 1.9609 1.9609 1.9609h8.0782c1.0865 0 1.9609-0.87452 1.9609-1.9609v-14.078c0-1.0865-0.87452-1.9609-1.9609-1.9609h-6.0391zm0.039062 1h1c0 0.554 0.446 1 1 1h4c0.554 0 1-0.446 1-1h1c0.554 0 1 0.446 1 1v14c0 0.554-0.446 1-1 1h-8c-0.554 0-1-0.446-1-1v-14c0-0.554 0.446-1 1-1zm4 3-3 5h4l-1 4 3-5h-4z" fill="currentColor"/>
 <rect class="ColorScheme-Text" x="8" y="17.5" width="6" height=".5" rx=".25" ry=".25" fill="currentColor" opacity=".5"/>
</svg>
