<svg width="32" height="32" xmlns="http://www.w3.org/2000/svg" xmlns:xlink="http://www.w3.org/1999/xlink"><defs><linearGradient id="a" x2="0" y1="532.8" y2="527.8" gradientUnits="userSpaceOnUse"><stop stop-color="#ebf1f1" offset="0"/><stop stop-color="#fcfcfc" offset="1"/></linearGradient><linearGradient id="d" x1="16" x2="16" y1="4" y2="11" gradientUnits="userSpaceOnUse"><stop stop-color="#fdfefe" offset="0"/><stop stop-color="#dfe4e6" offset="1"/></linearGradient><linearGradient id="f" x1="7.5" x2="7.5" y1="12" y2="17" gradientUnits="userSpaceOnUse" xlink:href="#a"/><linearGradient id="h" x1="7.5" x2="7.5" y1="12" y2="17" gradientTransform="translate(17)" gradientUnits="userSpaceOnUse" xlink:href="#a"/><linearGradient id="b" x1="399.57" x2="399.57" y1="545.8" y2="517.8" gradientTransform="translate(-384.57 -515.8)" gradientUnits="userSpaceOnUse"><stop stop-color="#f71252" offset="0"/><stop stop-color="#ff5c39" offset="1"/></linearGradient><filter id="c" x="-.041" y="-.11" width="1.083" height="1.22" color-interpolation-filters="sRGB"><feGaussianBlur stdDeviation=".275"/></filter><filter id="e" x="-.06" y="-.06" width="1.12" height="1.12" color-interpolation-filters="sRGB"><feGaussianBlur stdDeviation=".125"/></filter><filter id="g" x="-.06" y="-.06" width="1.12" height="1.12" color-interpolation-filters="sRGB"><feGaussianBlur stdDeviation=".125"/></filter><radialGradient id="i" cx="15.851" cy="20.863" r="13.734" gradientTransform="matrix(1 0 0 .32764 0 3.698)" gradientUnits="userSpaceOnUse"><stop stop-opacity=".627" offset="0"/><stop stop-color="#030303" stop-opacity="0" offset="1"/></radialGradient></defs><rect x="1" y="1" width="30" height="30" rx="8" ry="8" fill="url(#b)"/><g stroke-linecap="square" stroke-width=".1"><path d="M11 4C9.338 4 8 5.338 8 7v3h2V7c0-.554.446-1 1-1h10c.554 0 1 .446 1 1v3h2V7c0-1.662-1.338-3-3-3H11z" filter="url(#c)" opacity=".25"/><path d="M11 4C9.338 4 8 5.338 8 7v3h2V7c0-.554.446-1 1-1h10c.554 0 1 .446 1 1v3h2V7c0-1.662-1.338-3-3-3H11z" fill="url(#d)"/></g><g fill-rule="evenodd"><path d="M7.5 12A2.5 2.5 0 0 0 5 14.5 2.5 2.5 0 0 0 7.5 17a2.5 2.5 0 0 0 2.5-2.5A2.5 2.5 0 0 0 7.5 12zm0 1A1.5 1.5 0 0 1 9 14.5 1.5 1.5 0 0 1 7.5 16 1.5 1.5 0 0 1 6 14.5 1.5 1.5 0 0 1 7.5 13z" filter="url(#e)" opacity=".25" style="paint-order:normal"/><path d="M7.5 12A2.5 2.5 0 0 0 5 14.5 2.5 2.5 0 0 0 7.5 17a2.5 2.5 0 0 0 2.5-2.5A2.5 2.5 0 0 0 7.5 12zm0 1A1.5 1.5 0 0 1 9 14.5 1.5 1.5 0 0 1 7.5 16 1.5 1.5 0 0 1 6 14.5 1.5 1.5 0 0 1 7.5 13z" fill="url(#f)" style="paint-order:normal"/><path d="M24.5 12a2.5 2.5 0 0 0-2.5 2.5 2.5 2.5 0 0 0 2.5 2.5 2.5 2.5 0 0 0 2.5-2.5 2.5 2.5 0 0 0-2.5-2.5zm0 1a1.5 1.5 0 0 1 1.5 1.5 1.5 1.5 0 0 1-1.5 1.5 1.5 1.5 0 0 1-1.5-1.5 1.5 1.5 0 0 1 1.5-1.5z" filter="url(#g)" opacity=".25" style="paint-order:normal"/><path d="M24.5 12a2.5 2.5 0 0 0-2.5 2.5 2.5 2.5 0 0 0 2.5 2.5 2.5 2.5 0 0 0 2.5-2.5 2.5 2.5 0 0 0-2.5-2.5zm0 1a1.5 1.5 0 0 1 1.5 1.5 1.5 1.5 0 0 1-1.5 1.5 1.5 1.5 0 0 1-1.5-1.5 1.5 1.5 0 0 1 1.5-1.5z" fill="url(#h)" style="paint-order:normal"/></g><path d="M16 1a15 15 0 0 0-13.74 9h27.469A15 15 0 0 0 16 1z" fill="url(#i)" opacity=".35" style="paint-order:fill markers stroke"/></svg>