<svg width="32" height="32" xmlns="http://www.w3.org/2000/svg" xmlns:xlink="http://www.w3.org/1999/xlink"><defs><linearGradient id="c" x1="399.57" x2="399.57" y1="545.8" y2="517.8" gradientTransform="translate(-384.57 -515.8)" gradientUnits="userSpaceOnUse"><stop stop-color="#3889e9" offset="0"/><stop stop-color="#5ea5fb" offset="1"/></linearGradient><linearGradient id="a"><stop stop-color="#e3e3e3" offset="0"/><stop stop-color="#fffcff" offset="1"/></linearGradient><linearGradient id="e" x1="282.37" x2="281.84" y1="644.85" y2="10.592" gradientTransform="matrix(.01877 -.01937 .01937 .01877 4.62 16.516)" gradientUnits="userSpaceOnUse" xlink:href="#a"/><linearGradient id="b" x1="399.57" x2="399.57" y1="545.8" y2="517.8" gradientTransform="translate(-384.57 -515.8)" gradientUnits="userSpaceOnUse"><stop stop-color="#1d2125" offset="0"/><stop stop-color="#67747f" offset="1"/></linearGradient><filter id="d" x="-.036" y="-.036" width="1.072" height="1.072" color-interpolation-filters="sRGB"><feGaussianBlur stdDeviation="12.36"/></filter></defs><rect x="1" y="1" width="30" height="30" rx="8" ry="8" fill="url(#b)"/><circle cx="16.075" cy="16.058" r="15.646" fill="none"/><path transform="matrix(.01877 -.01937 .01937 .01877 4.62 16.516)" d="M562.04 0H49.96C22.369 0 .001 22.368.001 49.959v512.08c0 27.591 22.368 49.959 49.959 49.959h512.08c27.591 0 49.959-22.368 49.959-49.959V49.959C611.999 22.368 589.631 0 562.04 0zM49.96 37.469c6.898 0 12.49 5.592 12.49 12.49s-5.592 12.49-12.49 12.49-12.49-5.592-12.49-12.49 5.592-12.49 12.49-12.49zm0 537.06c-6.898 0-12.49-5.592-12.49-12.49s5.592-12.49 12.49-12.49 12.49 5.592 12.49 12.49-5.592 12.49-12.49 12.49zM306 554.545c-137.27 0-248.55-111.28-248.55-248.55S168.73 57.445 306 57.445s248.55 111.28 248.55 248.55S443.27 554.545 306 554.545zm256.04 19.984c-6.898 0-12.49-5.592-12.49-12.49s5.592-12.49 12.49-12.49 12.49 5.592 12.49 12.49-5.592 12.49-12.49 12.49zm0-512.08c-6.898 0-12.49-5.592-12.49-12.49s5.592-12.49 12.49-12.49 12.49 5.592 12.49 12.49-5.592 12.49-12.49 12.49z" filter="url(#d)" opacity=".25"/><path d="m15.17 5.627-9.612 9.921a1.348 1.348 0 0 0 .03 1.906l9.922 9.612a1.348 1.348 0 0 0 1.906-.03l9.612-9.922a1.348 1.348 0 0 0-.03-1.905l-9.922-9.612a1.348 1.348 0 0 0-1.906.03zM6.284 16.252a.337.337 0 1 1 .484.469.337.337 0 0 1-.484-.47zm10.406 10.08a.337.337 0 1 1-.484-.468.337.337 0 0 1 .484.469zm4.419-5.335a6.705 6.705 0 1 1-9.632-9.33 6.705 6.705 0 0 1 9.632 9.33zm5.193-4.586a.337.337 0 1 1-.484-.469.337.337 0 0 1 .484.47zM16.38 6.8a.337.337 0 1 1-.484-.469.337.337 0 0 1 .484.47z" fill="url(#e)"/><path d="M19.53 11.243a.627.627 0 0 0-.436-.101c-1.316.146-2.26 1.202-2.833 3.168a1.997 1.997 0 0 0-.49.069c.065-1.676.519-2.82 1.363-3.433a.337.337 0 0 0-.16-.607 5.914 5.914 0 0 0-1.99.105.628.628 0 0 0-.38.237c-.827 1.034-.748 2.449.237 4.244a2 2 0 0 0-.297.394c-1.14-1.23-1.628-2.36-1.464-3.39a.337.337 0 0 0-.543-.316 5.913 5.913 0 0 0-1.332 1.482.627.627 0 0 0-.102.436c.147 1.316 1.203 2.26 3.169 2.833.003.167.025.328.068.489-1.675-.064-2.819-.518-3.432-1.362a.337.337 0 0 0-.607.16 5.914 5.914 0 0 0 .105 1.99.628.628 0 0 0 .237.38c1.034.827 2.448.748 4.244-.238a2 2 0 0 0 .394.298c-1.23 1.14-2.36 1.627-3.39 1.464a.337.337 0 0 0-.316.543c.425.533.906.966 1.481 1.332.14.09.272.12.436.101 1.317-.146 2.26-1.202 2.833-3.168.167-.003.328-.025.49-.068-.065 1.675-.519 2.819-1.362 3.432a.337.337 0 0 0 .16.607 5.914 5.914 0 0 0 1.99-.105.628.628 0 0 0 .38-.237c.827-1.034.748-2.449-.238-4.244.116-.12.214-.25.298-.394 1.139 1.23 1.627 2.36 1.464 3.39a.337.337 0 0 0 .542.316 5.913 5.913 0 0 0 1.333-1.482.627.627 0 0 0 .1-.436c-.145-1.316-1.202-2.26-3.168-2.833a1.997 1.997 0 0 0-.068-.489c1.675.064 2.82.518 3.432 1.362.18.249.573.145.608-.16a5.914 5.914 0 0 0-.106-1.99.628.628 0 0 0-.237-.38c-1.034-.827-2.448-.748-4.243.238a2 2 0 0 0-.394-.298c1.23-1.14 2.36-1.627 3.39-1.464a.337.337 0 0 0 .315-.543 5.911 5.911 0 0 0-1.481-1.332zm-2.027 6.261a1.685 1.685 0 1 1-2.42-2.345 1.685 1.685 0 0 1 2.42 2.345z" fill="url(#e)"/></svg>