<?xml version="1.0" encoding="UTF-8"?>
<svg width="32" height="32" version="1.1" viewBox="0 0 32 32" xmlns="http://www.w3.org/2000/svg" xmlns:cc="http://creativecommons.org/ns#" xmlns:dc="http://purl.org/dc/elements/1.1/" xmlns:rdf="http://www.w3.org/1999/02/22-rdf-syntax-ns#" xmlns:xlink="http://www.w3.org/1999/xlink">
 <metadata>
  <rdf:RDF>
   <cc:Work rdf:about="">
    <dc:format>image/svg+xml</dc:format>
    <dc:type rdf:resource="http://purl.org/dc/dcmitype/StillImage"/>
    <dc:title/>
   </cc:Work>
  </rdf:RDF>
 </metadata>
 <defs>
  <linearGradient id="h" x1="73.823" x2="68.874" y1="17.956" y2="119.07" gradientUnits="userSpaceOnUse">
   <stop stop-color="#2c2d31" offset="0"/>
   <stop stop-color="#3c3e43" offset="1"/>
  </linearGradient>
  <radialGradient id="a" cx="64.985" cy="65.333" r="59.751" gradientUnits="userSpaceOnUse">
   <stop stop-color="#2c2d31" offset="0"/>
   <stop stop-color="#393b3f" offset=".72577"/>
   <stop stop-color="#35373b" offset="1"/>
  </radialGradient>
  <filter id="j" x="-.036" y="-.036" width="1.072" height="1.072" color-interpolation-filters="sRGB">
   <feGaussianBlur stdDeviation="1.7925294"/>
  </filter>
  <filter id="i" x="-.036083" y="-.035918" width="1.0722" height="1.0718" color-interpolation-filters="sRGB">
   <feGaussianBlur stdDeviation="1.7787305"/>
  </filter>
  <radialGradient id="b" cx="219.42" cy="67.2" r="59.155" gradientTransform="matrix(.86 -.51029 .50553 .85198 -3.2538 121.91)" gradientUnits="userSpaceOnUse">
   <stop stop-color="#4a4a4a" offset="0"/>
   <stop stop-color="#4a4a4a" offset=".75697"/>
   <stop stop-color="#161616" offset="1"/>
  </radialGradient>
  <linearGradient id="f" x1="71.179" x2="70.103" y1=".98582" y2="126.5" gradientUnits="userSpaceOnUse">
   <stop stop-color="#f6f6f6" stop-opacity=".98837" offset="0"/>
   <stop stop-color="#bfbfbf" offset="1"/>
  </linearGradient>
  <linearGradient id="d" x1="50.235" x2="71.235" y1="8.3325" y2="120.83" gradientUnits="userSpaceOnUse">
   <stop stop-color="#afb0b1" offset="0"/>
   <stop stop-color="#bdbebf" offset="1"/>
  </linearGradient>
  <linearGradient id="k" x1="202.69" x2="227.87" y1="37.209" y2="97.865" gradientUnits="userSpaceOnUse">
   <stop stop-color="#494f52" offset="0"/>
   <stop stop-color="#98a1a6" offset="1"/>
  </linearGradient>
  <linearGradient id="l" x1="196.6" x2="239.83" y1="30.726" y2="106.35" gradientUnits="userSpaceOnUse">
   <stop stop-color="#e2e6e8" offset="0"/>
   <stop stop-color="#838d91" offset="1"/>
  </linearGradient>
  <linearGradient id="e" x1="214.77" x2="222.42" y1="69.601" y2="69.601" gradientUnits="userSpaceOnUse">
   <stop stop-color="#5f6569" offset="0"/>
   <stop stop-color="#686e72" offset="1"/>
  </linearGradient>
  <radialGradient id="g" cx="218.59" cy="69.601" r="3.0052" gradientUnits="userSpaceOnUse">
   <stop stop-color="#27282c" offset="0"/>
   <stop stop-color="#27282c" offset="1"/>
  </radialGradient>
  <linearGradient id="linearGradient863" x1="399.57" x2="399.57" y1="545.8" y2="517.8" gradientTransform="translate(-384.57 -515.8)" gradientUnits="userSpaceOnUse" xlink:href="#k"/>
 </defs>
 <rect x="1" y=".99997" width="30" height="30" rx="8" ry="8" fill="url(#linearGradient863)"/>
 <g transform="matrix(.20183 0 0 .20183 2.884 2.8138)" stroke-width="4.1344">
  <circle cx="64.985" cy="65.333" r="59.751" fill="url(#h)"/>
  <circle cx="64.985" cy="65.333" r="59.751" fill="url(#a)"/>
  <path d="m64.985 5.5818a59.751 59.751 0 0 0-59.752 59.75 59.751 59.751 0 0 0 59.752 59.752 59.751 59.751 0 0 0 59.75-59.752 59.751 59.751 0 0 0-59.75-59.75zm0 5.25a54.501 54.501 0 0 1 54.5 54.5 54.501 54.501 0 0 1-54.5 54.502 54.501 54.501 0 0 1-54.502-54.502 54.501 54.501 0 0 1 54.502-54.5z" fill-opacity=".19186" filter="url(#j)"/>
  <g transform="translate(-154.15,-2.1213)">
   <path d="m217.16 7.7734a59.751 59.751 0 0 0-7.2559 0.68555 33.701 33.701 0 0 1 1.5742 8.2559 33.701 33.701 0 0 1-31.621 35.66 33.701 33.701 0 0 1-17.396-3.7031 59.751 59.751 0 0 0-2.2012 8.9805c0.62981-0.78792 1.3635-1.8312 2.3164-3.1973l-0.79296-0.41016c1.5249 0.65942 3.0907 1.2196 4.6875 1.6797-0.0332 4.5195-0.36455 6.3015 1.7109 6.8594 1.7969 0.48301 2.3774-1.1225 3.9199-5.6328 1.4731 0.19236 2.9559 0.30068 4.4414 0.32422 1.1317 4.93 1.5036 6.6242 3.3887 6.3223 2.1164-0.33894 1.9791-2.1412 2.4102-6.6133 1.4838-0.19863 2.9551-0.48223 4.4062-0.84961 2.1004 4.354 2.8629 5.8923 4.5996 5.1934 1.9945-0.80262 1.4511-2.533 0.87695-7.0195 1.3486-0.55407 2.6654-1.1816 3.9434-1.8828 3.2736 3.6647 4.4272 4.9464 5.9141 3.7871 1.688-1.3162 0.70309-2.8292-1.0723-6.9414 1.1987-0.92046 2.3423-1.9099 3.4258-2.9629 3.9356 2.6321 5.3716 3.5497 6.5039 2.0801 1.2896-1.6738-5e-3 -2.8976-2.6777-6.332 0.87132-1.1253 1.6793-2.2981 2.4219-3.5117 4.6932 1.3474 6.3499 1.8134 6.9883 0.04492 0.71288-1.9749-0.87472-2.7554-4.4199-5.1738 0.59314-1.4121 1.1032-2.8582 1.5254-4.3301 4.8608 0.15798 6.5794 0.20168 6.7656-1.666 0.20859-2.0927-1.529-2.4593-5.5723-3.9434 0.19372-1.5314 0.29669-3.0737 0.30664-4.6172 4.6068-0.88761 6.2663-1.2481 6.0391-3.082-0.26005-2.0986-2.0422-2.0587-6.3652-2.623-0.2039-1.4444-0.49021-2.8767-0.85546-4.2891 0.81818-0.42173 1.4451-0.75637 2.0644-1.0918zm0.19336 36.676-2.6289 0.34375c-0.12138 0.0159-0.22415 0.08029-0.29297 0.16992-0.0688 0.0896-0.09 0.20377-0.0879 0.32617l0.0566 3.2773a19.49 19.49 0 0 0-5.4297 2.2754l-2.2402-2.3555c-0.0763-0.0958-0.18097-0.15512-0.29297-0.16992-0.11199-0.0148-0.229 0.01339-0.32617 0.08789l-2.1055 1.6133c-0.0972 0.0745-0.15512 0.18097-0.16992 0.29297s0.0271 0.22186 0.0879 0.32812l1.625 2.8398a19.49 19.49 0 0 0-3.5371 4.668l-3.0879-0.9082c-0.11392-0.0448-0.2335-0.04505-0.33789-2e-3 -0.10439 0.0432-0.19137 0.12716-0.23828 0.24023l-1.0156 2.4492c-0.0469 0.11308-0.0451 0.2335-2e-3 0.33789 0.0432 0.10439 0.13447 0.17859 0.24024 0.24023l2.8262 1.6465a19.49 19.49 0 0 0-0.75391 5.3027 19.49 19.49 0 0 0 0.0176 0.5l-3.1504 0.76172c-0.12105 0.0182-0.2261 0.0784-0.29492 0.16797-0.0688 0.0896-0.1019 0.20479-0.0859 0.32617l0.34375 2.6289c0.0159 0.12138 0.0784 0.2261 0.16797 0.29492 0.0896 0.0688 0.2057 0.08544 0.32812 0.08594l3.2871 0.01367a19.49 19.49 0 0 0 2.2695 5.3887l-2.3457 2.2324c-0.0957 0.0763-0.15512 0.18097-0.16992 0.29297s0.0134 0.23096 0.0879 0.32812l1.6133 2.1035c0.0745 0.0972 0.18097 0.15512 0.29297 0.16992 0.11199 0.0148 0.2199-0.02709 0.32617-0.08789l2.832-1.6191a19.49 19.49 0 0 0 4.6738 3.5391l-0.90625 3.0801c-0.0448 0.11392-0.0432 0.23349 0 0.33789 0.0432 0.10439 0.1252 0.19333 0.23828 0.24023l2.4492 1.0156c0.11307 0.0469 0.23545 0.0432 0.33984 0 0.1044-0.0432 0.17665-0.13446 0.23829-0.24023l1.6445-2.8223a19.49 19.49 0 0 0 5.293 0.75195 19.49 19.49 0 0 0 0.51171-0.01758l0.76172 3.1504c0.0182 0.12106 0.0784 0.22415 0.16797 0.29297 0.0896 0.0688 0.20675 0.1038 0.32813 0.08789l2.6289-0.3457c0.12138-0.0159 0.22415-0.0784 0.29297-0.16797 0.0688-0.0896 0.0874-0.2057 0.0879-0.32812l0.0137-3.2891a19.49 19.49 0 0 0 5.2559-2.1973l2.3867 2.2637c0.61961 0.0819 0.18097 0.15512 0.29297 0.16992 0.11199 0.0148 0.22901-0.01339 0.32617-0.08789l2.1055-1.6133c0.0972-0.0745 0.15317-0.18097 0.16797-0.29297s-0.0249-0.22122-0.0879-0.32617l-1.6777-2.7949a19.49 19.49 0 0 0 3.4902-4.5684l3.2012 0.76758c0.57755-0.23887 0.23546 0.0432 0.33985 0 0.1044-0.0432 0.19138-0.1252 0.23828-0.23828l1.0156-2.4492c0.0469-0.11308 0.045-0.23545 2e-3 -0.33984-0.0432-0.10439-0.13318-0.1789-0.24024-0.23828l-2.8809-1.5977a19.49 19.49 0 0 0 0.76172-5.3301 19.49 19.49 0 0 0-0.0137-0.36523l3.1465-0.93164c0.38074-0.49565 0.22415-0.0784 0.29297-0.16797 0.0688-0.0896 0.1038-0.20479 0.0879-0.32617l-0.3457-2.6309c-0.0159-0.12138-0.0784-0.22415-0.16797-0.29297-0.0896-0.0688-0.20573-0.08804-0.32812-0.08594l-3.2774 0.05664a19.49 19.49 0 0 0-2.2031-5.2969l2.2715-2.3945c0.0819-0.61961 0.15317-0.18097 0.16797-0.29297 0.0148-0.11199-0.0134-0.23096-0.0879-0.32812l-1.6113-2.1035c-0.0745-0.0972-0.18097-0.15512-0.29297-0.16992-0.11199-0.0148-0.22317 0.02489-0.32812 0.08789l-2.8027 1.6836a19.49 19.49 0 0 0-4.5625-3.4883l0.76953-3.209c-0.23887-0.57755 0.0432-0.2335 0-0.33789s-0.1252-0.19333-0.23828-0.24023l-2.4492-1.0156c-0.11307-0.0469-0.23349-0.0432-0.33789 0-0.10439 0.0432-0.18085 0.13123-0.24023 0.23828l-1.5996 2.8848a19.49 19.49 0 0 0-5.3398-0.76367 19.49 19.49 0 0 0-0.35157 0.01172l-0.93164-3.1445c-0.49565-0.38073-0.0803-0.2261-0.16992-0.29492-0.0896-0.0688-0.20479-0.10189-0.32617-0.08594zm1.7793 7.625a15.38 15.38 0 0 1 15.379 15.379 15.38 15.38 0 0 1-15.379 15.379 15.38 15.38 0 0 1-15.379-15.379 15.38 15.38 0 0 1 15.379-15.379zm49.91 18.033c-2.1338-0.01066-2.303 1.7786-3.4434 6.0781-1.483-0.05272-2.9678-0.02044-4.4473 0.0957-1.4487-4.7372-1.9527-6.3902-3.7949-5.959-2.0918 0.48967-1.8196 2.2806-1.9336 6.7949-1.4157 0.327-2.8112 0.7324-4.1816 1.2148-2.5429-4.2581-3.4288-5.7407-5.1152-4.8809-1.939 0.98867-1.2078 2.6684-0.21875 7.2109-1.2795 0.66846-2.5213 1.4071-3.7188 2.2129-3.729-3.3618-5.0092-4.5302-6.375-3.2051-1.5409 1.495-0.38965 2.8924 1.832 6.8164-1.0763 0.99515-2.0956 2.0505-3.0527 3.1602-4.425-2.3661-5.9499-3.1922-6.957-1.5781-1.143 1.8318 0.32882 2.9034 3.4648 6.2227-0.76672 1.2061-1.4665 2.4536-2.0957 3.7363-4.4124-0.94247-6.0886-1.624-7.0527 0.29492-0.85265 1.6971 0.64112 2.5704 4.9473 5.1074-0.43761 1.3895-0.79744 2.8029-1.0762 4.2324-4.4635 0.22819-6.2534 0.0171-6.6856 2.1113-0.38022 1.8428 1.2746 2.3129 5.9883 3.6191-0.0563 1.4346-0.0327 2.8709 0.0703 4.3027-4.2171 1.4766-5.994 1.7793-5.8184 3.9102 0.15259 1.8507 1.8571 1.8577 6.6016 1.7852 0.24821 1.0928 0.55892 2.1695 0.90039 3.2363a59.751 59.751 0 0 0 5.6055-1.0098c-2.2146-6.6532-2.6966-14.023 0.98242-23.537 0.68163-1.7626 1.4903-3.2817 2.4102-4.4707a33.701 33.701 0 0 1 17.061-13.926c0.93356-0.47403 2.2183-0.83972 3.6445-1.123a33.701 33.701 0 0 1 3.1055-0.63672 33.701 33.701 0 0 1 3.3535-0.32031 33.701 33.701 0 0 1 13.51 2.1797 59.751 59.751 0 0 0 2.0176-10.271c-0.80264 0.79159-1.6212 2.251-2.9902 4.4004-1.3881-0.42982-2.7989-0.78213-4.2266-1.0547-0.31017-5.0092-0.40789-6.7405-2.3106-6.75z" fill-opacity=".45349" filter="url(#i)"/>
   <path d="m217.16 7.7734a59.751 59.751 0 0 0-7.2559 0.68555 33.701 33.701 0 0 1 1.5742 8.2559 33.701 33.701 0 0 1-31.621 35.66 33.701 33.701 0 0 1-17.396-3.7031 59.751 59.751 0 0 0-2.2012 8.9805c0.62981-0.78792 1.3635-1.8312 2.3164-3.1973l-0.79296-0.41016c1.5249 0.65942 3.0907 1.2196 4.6875 1.6797-0.0332 4.5195-0.36455 6.3015 1.7109 6.8594 1.7969 0.48301 2.3774-1.1225 3.9199-5.6328 1.4731 0.19236 2.9559 0.30068 4.4414 0.32422 1.1317 4.93 1.5036 6.6242 3.3887 6.3223 2.1164-0.33894 1.9791-2.1412 2.4102-6.6133 1.4838-0.19863 2.9551-0.48223 4.4062-0.84961 2.1004 4.354 2.8629 5.8923 4.5996 5.1934 1.9945-0.80262 1.4511-2.533 0.87695-7.0195 1.3486-0.55407 2.6654-1.1816 3.9434-1.8828 3.2736 3.6647 4.4272 4.9464 5.9141 3.7871 1.688-1.3162 0.70309-2.8292-1.0723-6.9414 1.1987-0.92046 2.3423-1.9099 3.4258-2.9629 3.9356 2.6321 5.3716 3.5497 6.5039 2.0801 1.2896-1.6738-5e-3 -2.8976-2.6777-6.332 0.87132-1.1253 1.6793-2.2981 2.4219-3.5117 4.6932 1.3474 6.3499 1.8134 6.9883 0.04492 0.71288-1.9749-0.87472-2.7554-4.4199-5.1738 0.59314-1.4121 1.1032-2.8582 1.5254-4.3301 4.8608 0.15798 6.5794 0.20168 6.7656-1.666 0.20859-2.0927-1.529-2.4593-5.5723-3.9434 0.19372-1.5314 0.29669-3.0737 0.30664-4.6172 4.6068-0.88761 6.2663-1.2481 6.0391-3.082-0.26005-2.0986-2.0422-2.0587-6.3652-2.623-0.2039-1.4444-0.49021-2.8767-0.85546-4.2891 0.81818-0.42173 1.4451-0.75637 2.0644-1.0918zm0.19336 36.676-2.6289 0.34375c-0.12138 0.0159-0.22415 0.08029-0.29297 0.16992-0.0688 0.0896-0.09 0.20377-0.0879 0.32617l0.0566 3.2773a19.49 19.49 0 0 0-5.4297 2.2754l-2.2402-2.3555c-0.0763-0.0958-0.18097-0.15512-0.29297-0.16992-0.11199-0.0148-0.229 0.01339-0.32617 0.08789l-2.1055 1.6133c-0.0972 0.0745-0.15512 0.18097-0.16992 0.29297s0.0271 0.22186 0.0879 0.32812l1.625 2.8398a19.49 19.49 0 0 0-3.5371 4.668l-3.0879-0.9082c-0.11392-0.0448-0.2335-0.04505-0.33789-2e-3 -0.10439 0.0432-0.19137 0.12716-0.23828 0.24023l-1.0156 2.4492c-0.0469 0.11308-0.0451 0.2335-2e-3 0.33789 0.0432 0.10439 0.13447 0.17859 0.24024 0.24023l2.8262 1.6465a19.49 19.49 0 0 0-0.75391 5.3027 19.49 19.49 0 0 0 0.0176 0.5l-3.1504 0.76172c-0.12105 0.0182-0.2261 0.0784-0.29492 0.16797-0.0688 0.0896-0.1019 0.20479-0.0859 0.32617l0.34375 2.6289c0.0159 0.12138 0.0784 0.2261 0.16797 0.29492 0.0896 0.0688 0.2057 0.08544 0.32812 0.08594l3.2871 0.01367a19.49 19.49 0 0 0 2.2695 5.3887l-2.3457 2.2324c-0.0957 0.0763-0.15512 0.18097-0.16992 0.29297s0.0134 0.23096 0.0879 0.32812l1.6133 2.1035c0.0745 0.0972 0.18097 0.15512 0.29297 0.16992 0.11199 0.0148 0.2199-0.02709 0.32617-0.08789l2.832-1.6191a19.49 19.49 0 0 0 4.6738 3.5391l-0.90625 3.0801c-0.0448 0.11392-0.0432 0.23349 0 0.33789 0.0432 0.10439 0.1252 0.19333 0.23828 0.24023l2.4492 1.0156c0.11307 0.0469 0.23545 0.0432 0.33984 0 0.1044-0.0432 0.17665-0.13446 0.23829-0.24023l1.6445-2.8223a19.49 19.49 0 0 0 5.293 0.75195 19.49 19.49 0 0 0 0.51171-0.01758l0.76172 3.1504c0.0182 0.12106 0.0784 0.22415 0.16797 0.29297 0.0896 0.0688 0.20675 0.1038 0.32813 0.08789l2.6289-0.3457c0.12138-0.0159 0.22415-0.0784 0.29297-0.16797 0.0688-0.0896 0.0874-0.2057 0.0879-0.32812l0.0137-3.2891a19.49 19.49 0 0 0 5.2559-2.1973l2.3867 2.2637c0.61961 0.0819 0.18097 0.15512 0.29297 0.16992 0.11199 0.0148 0.22901-0.01339 0.32617-0.08789l2.1055-1.6133c0.0972-0.0745 0.15317-0.18097 0.16797-0.29297s-0.0249-0.22122-0.0879-0.32617l-1.6777-2.7949a19.49 19.49 0 0 0 3.4902-4.5684l3.2012 0.76758c0.57755-0.23887 0.23546 0.0432 0.33985 0 0.1044-0.0432 0.19138-0.1252 0.23828-0.23828l1.0156-2.4492c0.0469-0.11308 0.045-0.23545 2e-3 -0.33984-0.0432-0.10439-0.13318-0.1789-0.24024-0.23828l-2.8809-1.5977a19.49 19.49 0 0 0 0.76172-5.3301 19.49 19.49 0 0 0-0.0137-0.36523l3.1465-0.93164c0.38074-0.49565 0.22415-0.0784 0.29297-0.16797 0.0688-0.0896 0.1038-0.20479 0.0879-0.32617l-0.3457-2.6309c-0.0159-0.12138-0.0784-0.22415-0.16797-0.29297-0.0896-0.0688-0.20573-0.08804-0.32812-0.08594l-3.2774 0.05664a19.49 19.49 0 0 0-2.2031-5.2969l2.2715-2.3945c0.0819-0.61961 0.15317-0.18097 0.16797-0.29297 0.0148-0.11199-0.0134-0.23096-0.0879-0.32812l-1.6113-2.1035c-0.0745-0.0972-0.18097-0.15512-0.29297-0.16992-0.11199-0.0148-0.22317 0.02489-0.32812 0.08789l-2.8027 1.6836a19.49 19.49 0 0 0-4.5625-3.4883l0.76953-3.209c-0.23887-0.57755 0.0432-0.2335 0-0.33789s-0.1252-0.19333-0.23828-0.24023l-2.4492-1.0156c-0.11307-0.0469-0.23349-0.0432-0.33789 0-0.10439 0.0432-0.18085 0.13123-0.24023 0.23828l-1.5996 2.8848a19.49 19.49 0 0 0-5.3398-0.76367 19.49 19.49 0 0 0-0.35157 0.01172l-0.93164-3.1445c-0.49565-0.38073-0.0803-0.2261-0.16992-0.29492-0.0896-0.0688-0.20479-0.10189-0.32617-0.08594zm1.7793 7.625a15.38 15.38 0 0 1 15.379 15.379 15.38 15.38 0 0 1-15.379 15.379 15.38 15.38 0 0 1-15.379-15.379 15.38 15.38 0 0 1 15.379-15.379zm49.91 18.033c-2.1338-0.01066-2.303 1.7786-3.4434 6.0781-1.483-0.05272-2.9678-0.02044-4.4473 0.0957-1.4487-4.7372-1.9527-6.3902-3.7949-5.959-2.0918 0.48967-1.8196 2.2806-1.9336 6.7949-1.4157 0.327-2.8112 0.7324-4.1816 1.2148-2.5429-4.2581-3.4288-5.7407-5.1152-4.8809-1.939 0.98867-1.2078 2.6684-0.21875 7.2109-1.2795 0.66846-2.5213 1.4071-3.7188 2.2129-3.729-3.3618-5.0092-4.5302-6.375-3.2051-1.5409 1.495-0.38965 2.8924 1.832 6.8164-1.0763 0.99515-2.0956 2.0505-3.0527 3.1602-4.425-2.3661-5.9499-3.1922-6.957-1.5781-1.143 1.8318 0.32882 2.9034 3.4648 6.2227-0.76672 1.2061-1.4665 2.4536-2.0957 3.7363-4.4124-0.94247-6.0886-1.624-7.0527 0.29492-0.85265 1.6971 0.64112 2.5704 4.9473 5.1074-0.43761 1.3895-0.79744 2.8029-1.0762 4.2324-4.4635 0.22819-6.2534 0.0171-6.6856 2.1113-0.38022 1.8428 1.2746 2.3129 5.9883 3.6191-0.0563 1.4346-0.0327 2.8709 0.0703 4.3027-4.2171 1.4766-5.994 1.7793-5.8184 3.9102 0.15259 1.8507 1.8571 1.8577 6.6016 1.7852 0.24821 1.0928 0.55892 2.1695 0.90039 3.2363a59.751 59.751 0 0 0 5.6055-1.0098c-2.2146-6.6532-2.6966-14.023 0.98242-23.537 0.68163-1.7626 1.4903-3.2817 2.4102-4.4707a33.701 33.701 0 0 1 17.061-13.926c0.93356-0.47403 2.2183-0.83972 3.6445-1.123a33.701 33.701 0 0 1 3.1055-0.63672 33.701 33.701 0 0 1 3.3535-0.32031 33.701 33.701 0 0 1 13.51 2.1797 59.751 59.751 0 0 0 2.0176-10.271c-0.80264 0.79159-1.6212 2.251-2.9902 4.4004-1.3881-0.42982-2.7989-0.78213-4.2266-1.0547-0.31017-5.0092-0.40789-6.7405-2.3106-6.75z" fill="url(#b)"/>
   <path d="m217.16 7.7734a59.751 59.751 0 0 0-1.4941 0.052734c-0.30934 0.16149-0.521 0.28249-0.86719 0.46094a0.65006 0.65006 0 0 0-0.33203 0.74023c0.35919 1.3889 0.6394 2.7989 0.83984 4.2188a0.65006 0.65006 0 0 0 0.56055 0.55273c2.1748 0.28393 3.7054 0.42927 4.5938 0.71094 0.4442 0.14083 0.70864 0.30197 0.87695 0.48828 0.16832 0.18631 0.28015 0.4249 0.33399 0.85938 0.0446 0.36008-2e-3 0.54059-0.10352 0.69922-0.10154 0.15863-0.30999 0.33803-0.72461 0.52344-0.82923 0.37081-2.3879 0.69717-4.6894 1.1406a0.65006 0.65006 0 0 0-0.52734 0.63477c-0.01 1.5174-0.11027 3.0331-0.30079 4.5391a0.65006 0.65006 0 0 0 0.41993 0.69141c2.0337 0.74644 3.4797 1.2242 4.2754 1.6934 0.39783 0.23457 0.61801 0.44939 0.74023 0.66797s0.1779 0.47552 0.13477 0.9082c-0.0367 0.36846-0.12323 0.53711-0.25977 0.66992-0.13653 0.13281-0.38609 0.26172-0.8457 0.34961-0.91923 0.17577-2.5623 0.13952-4.9922 0.06055a0.65006 0.65006 0 0 0-0.64648 0.4707c-0.41508 1.447-0.91671 2.8692-1.5 4.2578a0.65006 0.65006 0 0 0 0.23242 0.78906c1.783 1.2163 3.0635 2.0302 3.7168 2.6777 0.32666 0.32378 0.4862 0.58479 0.55078 0.82617 0.0646 0.24138 0.0556 0.50372-0.0918 0.91211-0.12602 0.3491-0.25089 0.49054-0.41602 0.58594-0.16512 0.09539-0.4396 0.16051-0.9082 0.13281-0.9372-0.05539-2.5268-0.4944-4.873-1.168a0.65006 0.65006 0 0 0-0.73437 0.28516c-0.73038 1.1936-1.5243 2.3469-2.3809 3.4531a0.65006 0.65006 0 0 0 0 0.79688c1.3445 1.7278 2.3306 2.9067 2.7637 3.7305 0.21654 0.41186 0.29059 0.71046 0.2793 0.96094-0.0113 0.25048-0.10027 0.49925-0.36719 0.8457-0.22257 0.28889-0.38176 0.38642-0.5664 0.42773-0.18467 0.04132-0.46044 0.02106-0.88868-0.14062-0.85648-0.32337-2.2054-1.1966-4.1719-2.5117a0.65006 0.65006 0 0 0-0.81445 0.07422c-1.0655 1.0355-2.1905 2.009-3.3692 2.9141a0.65006 0.65006 0 0 0-0.20117 0.77344c0.89352 2.0696 1.5755 3.4901 1.8008 4.416 0.11266 0.46298 0.1138 0.77689 0.041 1.0195s-0.22207 0.46327-0.57227 0.73633c-0.29376 0.22906-0.47481 0.28286-0.66601 0.27539-0.1912-0.0075-0.45835-0.10195-0.8418-0.37695-0.7669-0.55001-1.8849-1.7753-3.5215-3.6074a0.65006 0.65006 0 0 0-0.79688-0.13672c-1.2563 0.68927-2.5504 1.3065-3.877 1.8516a0.65006 0.65006 0 0 0-0.39844 0.68359c0.28903 2.2584 0.55613 3.8253 0.51953 4.7852-0.0183 0.47994-0.10354 0.78411-0.24023 0.99805s-0.33982 0.38414-0.75391 0.55078c-0.34229 0.13775-0.52998 0.1412-0.71094 0.08203-0.18095-0.05917-0.41096-0.22161-0.70117-0.58594-0.58042-0.72866-1.3095-2.1929-2.3594-4.3691a0.65006 0.65006 0 0 0-0.7461-0.34766c-1.427 0.36126-2.8728 0.6406-4.332 0.83594a0.65006 0.65006 0 0 0-0.56054 0.58203c-0.21696 2.2509-0.30564 3.8279-0.55469 4.75-0.12453 0.46107-0.27437 0.73644-0.45508 0.91406s-0.41821 0.2988-0.85742 0.36914c-0.37425 0.05993-0.56006 0.02012-0.72461-0.08008-0.16455-0.10019-0.3557-0.31526-0.56055-0.75195-0.4097-0.8734-0.80116-2.5265-1.3672-4.9922a0.65006 0.65006 0 0 0-0.62302-0.50586c-1.4608-0.02314-2.9186-0.1292-4.3672-0.31836a0.65006 0.65006 0 0 0-0.69922 0.43359c-0.77085 2.2539-1.3148 3.775-1.8008 4.5566-0.24299 0.39082-0.45105 0.57481-0.62305 0.6543-0.17199 0.07949-0.35931 0.10086-0.71289 0.0059-0.43091-0.11583-0.65315-0.26112-0.81445-0.45703s-0.28176-0.48899-0.35742-0.96289c-0.15132-0.9478-0.0734-2.5336-0.0566-4.8086a0.65006 0.65006 0 0 0-0.47071-0.62891c-1.5706-0.45249-3.1102-1.0021-4.6094-1.6504a0.65006 0.65006 0 0 0-0.55664 1.1738l0.10547 0.05469c-0.40982 0.5836-0.76216 1.0746-1.1172 1.5664a59.751 59.751 0 0 0-0.21289 1.4082c0.62981-0.78792 1.3635-1.8312 2.3164-3.1973l-0.79296-0.41016c1.5249 0.65942 3.0907 1.2196 4.6875 1.6797-0.0332 4.5195-0.36455 6.3015 1.7109 6.8594 1.7969 0.48301 2.3774-1.1225 3.9199-5.6328 1.4731 0.19236 2.9559 0.30068 4.4414 0.32422 1.1317 4.93 1.5036 6.6242 3.3887 6.3223 2.1164-0.33894 1.9791-2.1412 2.4102-6.6133 1.4838-0.19863 2.9551-0.48223 4.4062-0.84961 2.1004 4.354 2.8629 5.8923 4.5996 5.1934 1.9945-0.80262 1.4511-2.533 0.87695-7.0195 1.3486-0.55407 2.6654-1.1816 3.9434-1.8828 3.2736 3.6647 4.4272 4.9464 5.9141 3.7871 1.688-1.3162 0.70309-2.8292-1.0723-6.9414 1.1987-0.92046 2.3423-1.9099 3.4258-2.9629 3.9356 2.6321 5.3716 3.5497 6.5039 2.0801 1.2896-1.6738-5e-3 -2.8976-2.6777-6.332 0.87132-1.1253 1.6793-2.2981 2.4219-3.5117 4.6932 1.3474 6.3499 1.8134 6.9883 0.04492 0.71288-1.9749-0.87472-2.7554-4.4199-5.1738 0.59314-1.4121 1.1032-2.8582 1.5254-4.3301 4.8608 0.15798 6.5794 0.20168 6.7656-1.666 0.20859-2.0927-1.529-2.4593-5.5723-3.9434 0.19372-1.5314 0.29669-3.0737 0.30664-4.6172 4.6068-0.88761 6.2663-1.2481 6.0391-3.082-0.26005-2.0986-2.0422-2.0587-6.3652-2.623-0.2039-1.4444-0.49021-2.8767-0.85546-4.2891 0.81818-0.42173 1.4451-0.75637 2.0644-1.0918zm-6.5723 0.60352a59.751 59.751 0 0 0-0.68359 0.082031 33.701 33.701 0 0 1 1.5742 8.2559 33.701 33.701 0 0 1-31.621 35.66 33.701 33.701 0 0 1-17.396-3.7031 59.751 59.751 0 0 0-0.23242 0.63672c5.389 2.7542 11.474 4.0837 17.668 3.7148 18.93-1.1363 33.367-17.418 32.23-36.348-0.17284-2.8788-0.70444-5.6573-1.5391-8.2988zm6.7656 36.072-2.6289 0.34375c-0.12138 0.0159-0.22415 0.08029-0.29297 0.16992-0.0688 0.0896-0.09 0.20377-0.0879 0.32617l0.0566 3.2773a19.49 19.49 0 0 0-5.4297 2.2754l-2.2402-2.3555c-0.0763-0.0958-0.18097-0.15512-0.29297-0.16992-0.11199-0.0148-0.229 0.01339-0.32617 0.08789l-2.1055 1.6133c-0.0972 0.0745-0.15512 0.18097-0.16992 0.29297s0.0271 0.22186 0.0879 0.32812l1.625 2.8398a19.49 19.49 0 0 0-3.5371 4.668l-3.0879-0.9082c-0.11392-0.0448-0.2335-0.04505-0.33789-2e-3 -0.10439 0.0432-0.19137 0.12716-0.23828 0.24023l-1.0156 2.4492c-0.0469 0.11308-0.0451 0.2335-2e-3 0.33789 0.0432 0.10439 0.13447 0.17859 0.24024 0.24023l2.8262 1.6465a19.49 19.49 0 0 0-0.75391 5.3027 19.49 19.49 0 0 0 0.0176 0.5l-3.1504 0.76172c-0.12105 0.0182-0.2261 0.0784-0.29492 0.16797-0.0688 0.0896-0.1019 0.20479-0.0859 0.32617l0.34375 2.6289c0.0159 0.12138 0.0784 0.2261 0.16797 0.29492 0.0896 0.0688 0.2057 0.08544 0.32812 0.08594l3.2871 0.01367a19.49 19.49 0 0 0 2.2695 5.3887l-2.3457 2.2324c-0.0957 0.0763-0.15512 0.18097-0.16992 0.29297s0.0134 0.23096 0.0879 0.32812l1.6133 2.1035c0.0745 0.0972 0.18097 0.15512 0.29297 0.16992 0.11199 0.0148 0.2199-0.02709 0.32617-0.08789l2.832-1.6191a19.49 19.49 0 0 0 4.6738 3.5391l-0.90625 3.0801c-0.0448 0.11392-0.0432 0.23349 0 0.33789 0.0432 0.10439 0.1252 0.19333 0.23828 0.24023l2.4492 1.0156c0.11307 0.0469 0.23545 0.0432 0.33984 0 0.1044-0.0432 0.17665-0.13446 0.23829-0.24023l1.6445-2.8223a19.49 19.49 0 0 0 5.293 0.75195 19.49 19.49 0 0 0 0.51171-0.01758l0.76172 3.1504c0.0182 0.12106 0.0784 0.22415 0.16797 0.29297 0.0896 0.0688 0.20675 0.1038 0.32813 0.08789l2.6289-0.3457c0.12138-0.0159 0.22415-0.0784 0.29297-0.16797 0.0688-0.0896 0.0874-0.2057 0.0879-0.32812l0.0137-3.2891a19.49 19.49 0 0 0 5.2559-2.1973l2.3867 2.2637c0.61961 0.0819 0.18097 0.15512 0.29297 0.16992 0.11199 0.0148 0.22901-0.01339 0.32617-0.08789l2.1055-1.6133c0.0972-0.0745 0.15317-0.18097 0.16797-0.29297s-0.0249-0.22122-0.0879-0.32617l-1.6777-2.7949a19.49 19.49 0 0 0 3.4902-4.5684l3.2012 0.76758c0.57755-0.23887 0.23546 0.0432 0.33985 0 0.1044-0.0432 0.19138-0.1252 0.23828-0.23828l1.0156-2.4492c0.0469-0.11308 0.045-0.23545 2e-3 -0.33984-0.0432-0.10439-0.13318-0.1789-0.24024-0.23828l-2.8809-1.5977a19.49 19.49 0 0 0 0.76172-5.3301 19.49 19.49 0 0 0-0.0137-0.36523l3.1465-0.93164c0.38074-0.49565 0.22415-0.0784 0.29297-0.16797 0.0688-0.0896 0.1038-0.20479 0.0879-0.32617l-0.3457-2.6309c-0.0159-0.12138-0.0784-0.22415-0.16797-0.29297-0.0896-0.0688-0.20573-0.08804-0.32812-0.08594l-3.2774 0.05664a19.49 19.49 0 0 0-2.2031-5.2969l2.2715-2.3945c0.0819-0.61961 0.15317-0.18097 0.16797-0.29297 0.0148-0.11199-0.0134-0.23096-0.0879-0.32812l-0.18555-0.24023c-1e-3 3.2e-4 -3e-3 -3.21e-4 -4e-3 0 8.7e-4 -5.25e-4 3e-3 -0.0011 4e-3 -2e-3l-1.4258-1.8613c-0.0745-0.0972-0.18097-0.15512-0.29297-0.16992-0.11199-0.0148-0.22317 0.02489-0.32812 0.08789l-2.8027 1.6836a19.49 19.49 0 0 0-4.5625-3.4883l0.76953-3.209c-0.23887-0.57755 0.0432-0.2335 0-0.33789s-0.1252-0.19333-0.23828-0.24023l-0.2832-0.11719-2.166-0.89844c-0.11307-0.0469-0.23349-0.0432-0.33789 0-0.10439 0.0432-0.18085 0.13123-0.24023 0.23828l-1.5996 2.8848a19.49 19.49 0 0 0-5.3398-0.76367 19.49 19.49 0 0 0-0.35157 0.01172l-0.93164-3.1445c-0.49565-0.38073-0.0803-0.2261-0.16992-0.29492-0.0896-0.0688-0.20479-0.10189-0.32617-0.08594zm-0.14258 0.67383c0.0196 0.02015 0.044 0.04221 0.0645 0.06055l0.88282 2.9766a0.65006 0.65006 0 0 0 0.65039 0.46484c0.10739-0.0046 0.21481-9e-3 0.32226-0.01172 1e-3 4e-6 3e-3 -4e-6 4e-3 0 1.7452 6e-3 3.4814 0.25451 5.1582 0.73828a0.65006 0.65006 0 0 0 0.74805-0.31055l1.5332-2.7656 2.0625 0.85547c7e-3 0.0274 0.0189 0.05785 0.0274 0.08398l-0.72852 3.0391a0.65006 0.65006 0 0 0 0.31836 0.7207c1.6286 0.90002 3.1146 2.0374 4.4102 3.373a0.65006 0.65006 0 0 0 0.80078 0.10352l2.6875-1.6152 1.3594 1.7754c-8e-3 0.02761-0.0138 0.06053-0.0195 0.08789l-2.1484 2.2656a0.65006 0.65006 0 0 0-0.0859 0.7832c0.95856 1.5923 1.6755 3.3167 2.1289 5.1191a0.65006 0.65006 0 0 0 0.64258 0.49219l3.1426-0.05469 0.29101 2.2129c-0.0205 0.01995-0.042 0.04568-0.0605 0.06641l-2.9766 0.88086a0.65006 0.65006 0 0 0-0.46484 0.6543c5e-3 0.11242 8e-3 0.22344 0.0117 0.33594-6e-3 1.7419-0.25406 3.4746-0.73633 5.1484a0.65006 0.65006 0 0 0 0.31055 0.74805l2.7617 1.5312-0.85547 2.0645c-0.0271 0.0069-0.0581 0.01698-0.084 0.02539l-3.0312-0.72656a0.65006 0.65006 0 0 0-0.7207 0.31836c-0.90013 1.6307-2.0383 3.1189-3.375 4.416a0.65006 0.65006 0 0 0-0.10352 0.80078l1.6094 2.6797-1.7734 1.3574c-0.0276-0.0078-0.0605-0.01377-0.0879-0.01953l-2.2578-2.1406a0.65006 0.65006 0 0 0-0.7832-0.08594c-1.5804 0.95301-3.2917 1.6677-5.0801 2.123a0.65006 0.65006 0 0 0-0.49024 0.62891l-0.0137 3.166-2.2578 0.29688-0.72852-3.0137a0.65006 0.65006 0 0 0-0.66211-0.49609c-0.15959 0.0076-0.31878 0.01211-0.47851 0.01563h-2e-3c-1.7301-0.0063-3.4499-0.25058-5.1133-0.72656a0.65006 0.65006 0 0 0-0.74218 0.29688l-1.584 2.7188-2.1016-0.87109 0.86719-2.9473a0.65006 0.65006 0 0 0-0.3125-0.75586c-1.6699-0.90602-3.1927-2.0583-4.5176-3.4199a0.65006 0.65006 0 0 0-0.78906-0.11133l-2.7266 1.5586-1.3848-1.8066 2.2441-2.1367a0.65006 0.65006 0 0 0 0.10742-0.81055c-0.98906-1.6161-1.7282-3.3722-2.1934-5.209a0.65006 0.65006 0 0 0-0.6289-0.49024l-3.1641-0.01367-0.29492-2.2559 3.0137-0.72852a0.65006 0.65006 0 0 0 0.4961-0.66211c-7e-3 -0.15582-0.012-0.31084-0.0156-0.4668v-2e-3c6e-3 -1.7334 0.25103-3.4567 0.72852-5.123a0.65006 0.65006 0 0 0-0.29688-0.74219l-2.7226-1.5859 0.87304-2.1016 2.9531 0.86914a0.65006 0.65006 0 0 0 0.7539-0.3125c0.90593-1.6677 2.0594-3.1884 3.4199-4.5117a0.65006 0.65006 0 0 0 0.11132-0.78906l-1.5664-2.7363 1.8086-1.3848 2.1445 2.2539a0.65006 0.65006 0 0 0 0.81055 0.10742c1.6281-0.9947 3.3972-1.736 5.248-2.1992a0.65006 0.65006 0 0 0 0.49218-0.64258l-0.0547-3.1426zm1.9219 6.3008c-8.8446 3.81e-4 -16.029 7.1846-16.029 16.029 3.8e-4 8.8446 7.1846 16.029 16.029 16.029 8.8446-3.87e-4 16.029-7.1847 16.029-16.029-3.8e-4 -8.8446-7.1846-16.029-16.029-16.029zm0 0.65039a15.38 15.38 0 0 1 15.379 15.379 15.38 15.38 0 0 1-15.379 15.379 15.38 15.38 0 0 1-15.379-15.379 15.38 15.38 0 0 1 15.379-15.379zm49.91 18.033c-2.1338-0.01066-2.303 1.7786-3.4434 6.0781-1.483-0.05272-2.9678-0.02044-4.4473 0.0957-1.4487-4.7372-1.9527-6.3902-3.7949-5.959-2.0918 0.48967-1.8196 2.2806-1.9336 6.7949-1.4157 0.327-2.8112 0.7324-4.1816 1.2148-2.5429-4.2581-3.4288-5.7407-5.1152-4.8809-1.939 0.98867-1.2078 2.6684-0.21875 7.2109-1.2795 0.66846-2.5213 1.4071-3.7188 2.2129-3.729-3.3618-5.0092-4.5302-6.375-3.2051-1.5409 1.495-0.38965 2.8924 1.832 6.8164-1.0763 0.99515-2.0956 2.0505-3.0527 3.1602-4.425-2.3661-5.9499-3.1922-6.957-1.5781-1.143 1.8318 0.32882 2.9034 3.4648 6.2227-0.76672 1.2061-1.4665 2.4536-2.0957 3.7363-4.4124-0.94247-6.0886-1.624-7.0527 0.29492-0.85265 1.6971 0.64112 2.5704 4.9473 5.1074-0.43761 1.3895-0.79744 2.8029-1.0762 4.2324-4.4635 0.22819-6.2534 0.0171-6.6856 2.1113-0.38022 1.8428 1.2746 2.3129 5.9883 3.6191-0.0563 1.4346-0.0327 2.8709 0.0703 4.3027-4.2171 1.4766-5.994 1.7793-5.8184 3.9102 0.15259 1.8507 1.8571 1.8577 6.6016 1.7852 0.24821 1.0928 0.55892 2.1695 0.90039 3.2363a59.751 59.751 0 0 0 0.65821-0.0781c-0.35212-1.0882-0.67043-2.1871-0.92383-3.3027a0.65006 0.65006 0 0 0-0.64453-0.50586c-2.3707 0.0363-3.9787 0.0371-4.875-0.15625-0.44813-0.0967-0.6916-0.23032-0.82422-0.36523-0.13263-0.13491-0.21414-0.30206-0.24414-0.66602-0.0364-0.44204 0.0235-0.70021 0.15234-0.91796 0.12886-0.21776 0.3616-0.43152 0.77734-0.66211 0.83149-0.4612 2.3327-0.92094 4.4551-1.6641a0.65006 0.65006 0 0 0 0.4336-0.66015c-0.10128-1.4079-0.12368-2.82-0.0684-4.2305a0.65006 0.65006 0 0 0-0.47657-0.65235c-2.3564-0.65295-3.9429-1.1114-4.7715-1.5547-0.41431-0.22167-0.61601-0.41988-0.70703-0.58789-0.091-0.16802-0.12195-0.3548-0.0469-0.71875 0.0896-0.43447 0.22127-0.66338 0.40625-0.83594 0.18499-0.17256 0.46576-0.312 0.92969-0.41602 0.92786-0.20802 2.4997-0.22695 4.7461-0.34179a0.65006 0.65006 0 0 0 0.60546-0.52344c0.27403-1.4054 0.6263-2.7957 1.0566-4.1621a0.65006 0.65006 0 0 0-0.28906-0.75586c-2.1533-1.2686-3.5963-2.1347-4.2969-2.7852-0.35028-0.32523-0.49567-0.57099-0.54102-0.75781-0.0453-0.18682-0.0283-0.37663 0.14063-0.71289 0.20018-0.39843 0.38726-0.5866 0.61132-0.70508 0.22407-0.11847 0.53516-0.17744 1.0137-0.15625 0.95704 0.04239 2.4899 0.43575 4.7109 0.91016a0.65006 0.65006 0 0 0 0.72071-0.34766c0.61873-1.2613 1.3066-2.4879 2.0605-3.6738a0.65006 0.65006 0 0 0-0.0762-0.79688c-1.5789-1.6712-2.7291-2.7846-3.2715-3.5859-0.27118-0.40068-0.38219-0.69934-0.39844-0.95312-0.0163-0.25379 0.0457-0.51194 0.2832-0.89258 0.19962-0.3199 0.35166-0.4338 0.53516-0.49219s0.47198-0.06054 0.93359 0.07031c0.92323 0.2617 2.418 1.0453 4.6309 2.2285a0.65006 0.65006 0 0 0 0.79883-0.14844c0.9412-1.0912 1.9437-2.1289 3.002-3.1074a0.65006 0.65006 0 0 0 0.125-0.79688c-1.1182-1.9751-1.9561-3.3202-2.2832-4.2207-0.16354-0.45027-0.19826-0.76405-0.15234-1.0137 0.0459-0.24963 0.17036-0.48458 0.49023-0.79492 0.27076-0.2627 0.44471-0.33702 0.63672-0.34961s0.47205 0.05495 0.88867 0.29297c0.83325 0.47604 2.0961 1.5961 3.9609 3.2773a0.65006 0.65006 0 0 0 0.79883 0.05664c1.1774-0.79229 2.3979-1.5184 3.6562-2.1758a0.65006 0.65006 0 0 0 0.33398-0.71484c-0.49808-2.2875-0.91817-3.8567-0.97461-4.8359-0.0282-0.48963 0.0298-0.8078 0.14649-1.0352 0.11673-0.22736 0.30335-0.41722 0.70703-0.62305 0.33373-0.17017 0.52219-0.18844 0.70898-0.14453s0.43378 0.18754 0.75977 0.5332c0.65197 0.69133 1.5215 2.119 2.793 4.248a0.65006 0.65006 0 0 0 0.77539 0.2793c1.3476-0.47442 2.7191-0.87375 4.1113-1.1953a0.65006 0.65006 0 0 0 0.5039-0.61719c0.0574-2.2724 0.0307-3.8573 0.21289-4.7988 0.0911-0.47078 0.22306-0.7588 0.39063-0.94922s0.39384-0.32803 0.82812-0.42969c0.36441-0.0853 0.5521-0.05799 0.72266 0.0293s0.37389 0.28571 0.60742 0.69922c0.46707 0.82702 0.97094 2.4185 1.6953 4.7871a0.65006 0.65006 0 0 0 0.67188 0.45898c1.455-0.11422 2.9149-0.14559 4.373-0.09375a0.65006 0.65006 0 0 0 0.65235-0.48438c0.57389-2.1637 0.91541-3.6902 1.3106-4.5508 0.19757-0.43027 0.39065-0.67553 0.59765-0.82031s0.45978-0.22487 0.90235-0.22266c0.37712 0.0019 0.5551 0.07177 0.70117 0.19727 0.14606 0.1255 0.29861 0.3685 0.42969 0.83008 0.26213 0.92316 0.38004 2.6083 0.53515 5.1133a0.65006 0.65006 0 0 0 0.52735 0.59766c1.4038 0.268 2.7912 0.61442 4.1562 1.0371a0.65006 0.65006 0 0 0 0.74024-0.27148c0.98075-1.5398 1.6836-2.7233 2.2559-3.5234a59.751 59.751 0 0 0 0.18555-1.2266c-0.80264 0.79159-1.6212 2.251-2.9902 4.4004-1.3881-0.42982-2.7989-0.78213-4.2266-1.0547-0.31017-5.0092-0.40789-6.7405-2.3106-6.75zm-4.3848 10.812c-0.5459-9.81e-4 -1.0939 0.01006-1.6445 0.03516-1.1441 0.05178-2.2847 0.16043-3.418 0.32617a0.65006 0.65006 0 0 0-6e-3 0c-1.0536 0.16482-2.0991 0.3805-3.1328 0.64258-1.4498 0.288-2.7656 0.65651-3.791 1.1738-7.1834 2.6492-13.275 7.6195-17.309 14.127-0.96735 1.2532-1.7975 2.8198-2.4942 4.6211-3.7158 9.6086-3.2382 17.164-1.0078 23.914a59.751 59.751 0 0 0 0.63086-0.14258c-2.2146-6.6532-2.6966-14.023 0.98242-23.537 0.68163-1.7626 1.4903-3.2817 2.4102-4.4707a33.701 33.701 0 0 1 17.061-13.926c0.93356-0.47403 2.2183-0.83972 3.6445-1.123a33.701 33.701 0 0 1 3.1055-0.63672 33.701 33.701 0 0 1 3.3535-0.32031 33.701 33.701 0 0 1 13.51 2.1797 59.751 59.751 0 0 0 0.16601-0.64844c-3.7708-1.4273-7.84-2.2073-12.061-2.2148z" fill="#fff" fill-opacity=".060606"/>
  </g>
  <path d="m64.985 0.81691c-35.59 0-64.516 28.926-64.516 64.516s28.926 64.516 64.516 64.516 64.516-28.926 64.516-64.516-28.926-64.516-64.516-64.516zm0 7c31.807 0 57.516 25.709 57.516 57.516s-25.709 57.516-57.516 57.516c-31.807 2e-5 -57.516-25.709-57.516-57.516s25.709-57.516 57.516-57.516z" fill="url(#f)"/>
  <path d="m64.985 6.5825c-32.435 0-58.75 26.315-58.75 58.75s26.315 58.75 58.75 58.75 58.75-26.315 58.75-58.75-26.315-58.75-58.75-58.75zm0 1.2344c31.807 0 57.516 25.709 57.516 57.516s-25.709 57.516-57.516 57.516c-31.807 2e-5 -57.516-25.709-57.516-57.516 0-19.08 9.2518-35.966 23.521-46.424 9.5178-6.9754 21.268-11.092 33.994-11.092z" fill="url(#d)"/>
  <g transform="translate(-153.61,-4.268)">
   <path d="m215.19 34.459-12.5 2.75 6.1016 11.729c-2.672-9.8369 3.4567-11.205 9.3359-11.232 2.3774-0.01095 4.8364 0.35033 6.9277 0.79883 5.2679 1.0398 10.56 3.8692 14.154 6.8594 3.2399 2.7291 6.0143 6.0986 7.9043 9.793 1.2669 2.4764 1.9622 4.9352 1.627 7.1934-0.356 2.3979-2.8206 4.3041-7.3789 5.502l10.703-2.3926-1.125-9.75-6-10-9.875-8.75zm-17.02 8.4141-7.8809 5.8496-5.6602 10.197-2.6406 12.926 7.7734 18.463 8.6309 9.4512 7.1055-11.148c-7.183 7.2325-11.431 2.6073-14.395-2.4707-1.1982-2.0534-2.1142-4.363-2.7715-6.3984-1.7334-5.082-1.9292-11.078-1.1367-15.686 0.74346-4.1704 2.2749-8.2602 4.5293-11.744 1.5112-2.3354 3.2928-4.1671 5.416-5.0059 2.2547-0.89066 5.1366 0.29002 8.4531 3.6387zm43.496 28.781c9.855 2.6044 7.9747 8.5961 5.0586 13.701-1.1792 2.0644-2.7221 4.0146-4.1562 5.6016-3.5344 4.0422-8.6289 7.2106-13.016 8.8281-3.9834 1.4413-8.2911 2.1596-12.436 1.9492-2.7781-0.14102-5.255-0.77007-7.043-2.1895-1.8987-1.5073-2.3179-4.5941-1.0762-9.1406l-3.2774 10.467 9.0059 3.9004 11.66-0.19727 12.516-4.1758 12.102-15.963 3.8691-12.201z" fill="url(#k)"/>
   <path d="m218.5 24.385c-2.1407 0.18113-2.1309 1.9933-2.8984 6.4434a38.984 38.878 0 0 0-4.3144 0.5957c-1.8985-4.5819-2.5602-6.1785-4.3535-5.5723-2.0619 0.69701-1.5816 2.4656-1.2617 7.1035a38.984 38.878 0 0 0-4 1.6504c-3.202-3.8671-4.3002-5.2088-5.8438-4.0957-1.7414 1.2557-0.80489 2.8051 0.82422 7.0098a38.984 38.878 0 0 0-3.4785 2.6836c-4.0351-2.9828-5.4237-4.0213-6.6543-2.5703-1.3966 1.6466-0.0961 2.9211 2.5254 6.6602a38.984 38.878 0 0 0-2.6152 3.3926c-4.2291-1.5724-5.7893-2.4893-7.0215-0.73047-1.0898 1.5555 0.26163 2.6368 4.1543 5.7715a38.984 38.878 0 0 0-1.6777 4.0312c-4.4494-0.42155-6.1906-0.8903-6.9219 1.1191-0.64346 1.7682 0.92599 2.4732 5.4004 4.4492a38.984 38.878 0 0 0-0.55468 4.2676c-4.3866 0.84938-6.189 0.89155-6.3242 3.0254-0.11743 1.8533 1.5686 2.1063 6.2734 2.7227a38.984 38.878 0 0 0 0.625 4.5371c-4.0307 1.7662-5.7647 2.2178-5.4277 4.3145 0.3001 1.8673 2.0208 1.7073 6.9492 1.25a38.984 38.878 0 0 0 1.7422 4.1973c-3.4365 2.6636-4.9931 3.5307-4.1582 5.4707 0.75058 1.744 2.381 1.1616 7.0898-0.50195a38.984 38.878 0 0 0 2.5469 3.2891c-2.5918 3.8058-3.8861 5.0942-2.4629 6.7285 1.2414 1.4255 2.6183 0.38074 6.5547-2.6094a38.984 38.878 0 0 0 3.4863 2.6875c-1.5776 4.3917-2.5271 5.9642-0.73047 7.1992 1.5735 1.0817 2.6387-0.29087 5.7773-4.2598l-0.76758-0.45704a38.984 38.878 0 0 0 4.5781 1.959c-0.30411 4.5094-0.74142 6.2679 1.2969 6.9492 1.7647 0.58989 2.4398-0.97903 4.25-5.3887a38.984 38.878 0 0 0 4.4141 0.58985c0.83409 4.989 1.1041 6.7039 3.0039 6.5156 2.133-0.21142 2.1043-2.0188 2.8027-6.457a38.984 38.878 0 0 0 4.4492-0.58398c1.8356 4.4722 2.5038 6.0525 4.2793 5.459 2.039-0.68158 1.601-2.4403 1.2969-6.9531a38.984 38.878 0 0 0 4.0488-1.6445c3.048 3.8544 4.1221 5.2028 5.6758 4.1348 1.7639-1.2126 0.87127-2.781-0.6543-6.9922a38.984 38.878 0 0 0 3.5976-2.7519c3.7707 2.8633 5.1488 3.8659 6.3672 2.4668 1.3876-1.5934 0.16915-2.8939-2.293-6.4824a38.984 38.878 0 0 0 2.6289-3.3594c4.604 1.6264 6.2294 2.1899 6.9727 0.46289 0.83002-1.9286-0.70777-2.8031-4.1016-5.4297a38.984 38.878 0 0 0 1.7812-4.2305c4.8426 0.44916 6.5557 0.59536 6.8535-1.2578 0.3337-2.0764-1.3772-2.5457-5.3242-4.2695a38.984 38.878 0 0 0 0.58203-4.5898c4.6518-0.60977 6.3297-0.87064 6.2129-2.7148-0.13374-2.1104-1.9158-2.1774-6.1973-3a38.984 38.878 0 0 0-0.59571-4.332c4.3974-1.9423 5.9551-2.6552 5.3164-4.4102-0.72532-1.993-2.4576-1.5476-6.8262-1.1289a38.984 38.878 0 0 0-1.6914-4.0918c3.8157-3.0728 5.1527-4.1591 4.0723-5.7012-1.227-1.7514-2.788-0.84725-6.9766 0.71289a38.984 38.878 0 0 0-2.6914-3.4746c2.8295-3.9986 3.8163-5.4098 2.3555-6.5977-1.6413-1.3345-2.8994-0.07045-6.4121 2.5176a38.984 38.878 0 0 0-3.5586-2.7227c1.8726-4.571 2.5269-6.1685 0.83008-7-1.9531-0.95712-2.8613 0.63432-5.8965 4.1465a38.984 38.878 0 0 0-4.0293-1.6562c0.41957-5.0012 0.57453-6.7283-1.3066-7.0137-2.1097-0.32001-2.5372 1.4269-4.2891 5.5156a38.984 38.878 0 0 0-4.4141-0.55078c-0.74638-4.8972-1.0054-6.6068-2.8906-6.4473zm-1.5566 11.949c4.3154-0.07229 9.439 0.69843 11.104 1.4219 7.2456 2.2087 13.946 6.2688 19.652 15.717 1.0626 1.7596 1.8261 3.4681 2.1699 5.0273 0.3413 1.6395 0.21329 3.5468-0.8457 5.0508-0.90751 1.196-2.0313 2.323-3.5996 2.4668-4.8807 0.45727-11.498 0.19906-16.721 0.14258-0.87881-0.0095-1.718-0.36516-1.9707-0.64258-1.5473-0.97515-2.5889-3.0973-4.3144-3.6953-2.7548-1.2763-3.87-0.20604-5.4238-2.1172-2.8622-4.5917-5.6318-9.3091-8.1738-13.994-1.8418-3.2061-0.62749-6.4151 2.1484-8.1445 1.0861-0.84251 3.3853-1.1891 5.9746-1.2324zm-19.234 9.8867c0.22474-0.0071 0.45092 3.63e-4 0.67968 0.02344 1.4874 0.20378 3.021 0.62988 3.916 1.9258 2.7937 4.0282 5.8165 9.9202 8.3301 14.498 0.42299 0.77037 0.52593 1.6769 0.4082 2.0332-0.0903 1.8267-1.4293 3.7753-1.1035 5.5723 0.23995 3.0266 1.721 3.472 0.81836 5.7637-2.5961 4.7473-5.349 9.4761-8.1836 13.99-1.8896 3.1782-5.2812 3.6949-8.1504 2.125-3.379-1.421-7.9183-12.084-8.2168-14.973-1.6314-7.397-1.381-15.228 4.0508-24.836 1.0116-1.7894 2.1266-3.2927 3.3164-4.3574 1.1034-0.96424 2.5616-1.7163 4.1348-1.7656zm38.613 26.914c2.7097 0.01403 5.4089 0.0691 8.0723 0.16797 3.6972 0.04731 5.841 2.7264 5.916 5.9961 0.45885 3.6368-6.5051 12.899-8.8574 14.602-5.5902 5.1113-12.498 8.8102-23.535 8.9102-2.0555 0.0186-3.9146-0.19529-5.4316-0.69336-1.5849-0.54107-3.1608-1.6196-3.916-3.2969-0.56722-1.39-0.96581-2.9325-0.29101-4.3555 2.0916-4.4335 5.6849-9.9971 8.3926-14.463 0.45566-0.75151 1.1892-1.293 1.5566-1.3691 1.6271-0.83516 3.9836-0.65144 5.377-1.832 2.5011-1.7211 2.148-3.2257 4.584-3.5898 2.7046-0.06268 5.4231-0.0902 8.1328-0.07617z" fill="url(#l)"/>
   <path d="m218.5 24.385c-2.1407 0.18113-2.1309 1.9933-2.8984 6.4434a38.984 38.878 0 0 0-4.3145 0.5957c-1.8985-4.5819-2.5602-6.1785-4.3535-5.5723-2.0619 0.69701-1.5816 2.4656-1.2617 7.1035a38.984 38.878 0 0 0-4 1.6504c-3.202-3.8671-4.3002-5.2088-5.8438-4.0957-1.7414 1.2557-0.80489 2.8051 0.82422 7.0098a38.984 38.878 0 0 0-3.4785 2.6836c-4.0351-2.9828-5.4237-4.0213-6.6543-2.5703-1.3966 1.6466-0.0961 2.9211 2.5254 6.6602a38.984 38.878 0 0 0-2.6152 3.3926c-4.2291-1.5724-5.7892-2.4893-7.0215-0.73047-1.0898 1.5555 0.26162 2.6368 4.1543 5.7715a38.984 38.878 0 0 0-1.6777 4.0312c-4.4494-0.42155-6.1906-0.8903-6.9219 1.1191-0.64346 1.7682 0.926 2.4732 5.4004 4.4492a38.984 38.878 0 0 0-0.55468 4.2676c-4.3866 0.84938-6.189 0.89155-6.3242 3.0254-0.11743 1.8533 1.5686 2.1063 6.2734 2.7227a38.984 38.878 0 0 0 0.625 4.5371c-4.0307 1.7662-5.7647 2.2178-5.4277 4.3145 0.3001 1.8673 2.0208 1.7073 6.9492 1.25a38.984 38.878 0 0 0 1.7422 4.1973c-3.4365 2.6636-4.9931 3.5307-4.1582 5.4707 0.75059 1.744 2.381 1.1616 7.0898-0.50195a38.984 38.878 0 0 0 2.5469 3.2891c-2.5918 3.8058-3.8861 5.0942-2.4629 6.7285 1.2414 1.4255 2.6183 0.38075 6.5547-2.6094a38.984 38.878 0 0 0 3.4863 2.6875c-1.5776 4.3917-2.5271 5.9641-0.73047 7.1992 1.5735 1.0817 2.6387-0.29086 5.7773-4.2598l-0.76757-0.45703a38.984 38.878 0 0 0 4.5781 1.959c-0.30411 4.5094-0.74141 6.2679 1.2969 6.9492 1.7647 0.58989 2.4398-0.97902 4.25-5.3887a38.984 38.878 0 0 0 4.4141 0.58985c0.83409 4.989 1.1041 6.7039 3.0039 6.5156 2.133-0.21142 2.1043-2.0188 2.8027-6.457a38.984 38.878 0 0 0 4.4492-0.58398c1.8356 4.4722 2.5038 6.0525 4.2793 5.459 2.039-0.68158 1.601-2.4403 1.2969-6.9531a38.984 38.878 0 0 0 4.0488-1.6445c3.048 3.8544 4.1221 5.2028 5.6758 4.1348 1.7639-1.2126 0.87127-2.781-0.6543-6.9922a38.984 38.878 0 0 0 3.5977-2.752c3.7707 2.8634 5.1488 3.8659 6.3672 2.4668 1.3876-1.5934 0.16915-2.8939-2.293-6.4824a38.984 38.878 0 0 0 2.6289-3.3594c4.604 1.6264 6.2294 2.1899 6.9727 0.46289 0.83002-1.9286-0.70776-2.8031-4.1016-5.4297a38.984 38.878 0 0 0 1.7812-4.2305c4.8426 0.44916 6.5557 0.59536 6.8535-1.2578 0.3337-2.0764-1.3772-2.5457-5.3242-4.2695a38.984 38.878 0 0 0 0.58203-4.5898c4.6518-0.60977 6.3298-0.87064 6.2129-2.7148-0.13374-2.1104-1.9158-2.1774-6.1973-3a38.984 38.878 0 0 0-0.5957-4.332c4.3974-1.9423 5.955-2.6552 5.3164-4.4102-0.72532-1.993-2.4576-1.5476-6.8262-1.1289a38.984 38.878 0 0 0-1.6914-4.0918c3.8157-3.0728 5.1526-4.1591 4.0723-5.7012-1.227-1.7514-2.788-0.84725-6.9766 0.71289a38.984 38.878 0 0 0-2.6914-3.4746c2.8295-3.9986 3.8163-5.4098 2.3555-6.5977-1.6413-1.3345-2.8994-0.07045-6.4121 2.5176a38.984 38.878 0 0 0-3.5586-2.7227c1.8726-4.571 2.5269-6.1685 0.83008-7-1.9531-0.95712-2.8613 0.63432-5.8965 4.1465a38.984 38.878 0 0 0-4.0293-1.6562c0.41957-5.0012 0.57453-6.7283-1.3066-7.0137-2.1097-0.32001-2.5372 1.4269-4.2891 5.5156a38.984 38.878 0 0 0-4.4141-0.55078c-0.74638-4.8972-1.0054-6.6068-2.8906-6.4473zm0.043 0.49805c0.39559-0.03347 0.61903 0.02518 0.8086 0.16016s0.37763 0.39108 0.55468 0.84961c0.35411 0.91705 0.61704 2.567 0.99024 5.0156a0.50005 0.50005 0 0 0 0.46094 0.42188c1.4617 0.09838 2.9164 0.28111 4.3574 0.54492a0.50005 0.50005 0 0 0 0.54883-0.29492c0.8803-2.0545 1.4378-3.5153 1.9707-4.3359 0.26647-0.41031 0.51174-0.64802 0.76953-0.77734s0.55737-0.17498 1.0156-0.10547c0.39534 0.05997 0.60059 0.17122 0.7539 0.34766s0.27502 0.46894 0.33984 0.96094c0.12967 0.984-1e-3 2.669-0.21093 5.1699a0.50005 0.50005 0 0 0 0.33398 0.51367c1.3554 0.47062 2.6842 1.0162 3.9785 1.6348a0.50005 0.50005 0 0 0 0.59375-0.125c1.5259-1.7657 2.5241-3.0418 3.2969-3.6934 0.38637-0.3258 0.69841-0.48798 0.98633-0.53711s0.5883-0.0014 1.0137 0.20703c0.35601 0.17446 0.51816 0.33989 0.61133 0.55274 0.0932 0.21284 0.12445 0.52666 0.041 1.0098-0.16683 0.96621-0.78831 2.5133-1.7246 4.7988a0.50005 0.50005 0 0 0 0.18164 0.60352c1.2217 0.82794 2.3954 1.7251 3.5137 2.6875a0.50005 0.50005 0 0 0 0.62305 0.02344c1.7647-1.3002 2.9673-2.2573 3.832-2.6836 0.43236-0.21316 0.76102-0.29182 1.0469-0.27148s0.56384 0.1343 0.91992 0.42383c0.30624 0.249 0.42741 0.44584 0.47071 0.67383s2e-3 0.54067-0.18555 0.99023c-0.37522 0.89914-1.3178 2.2568-2.7324 4.2559a0.50005 0.50005 0 0 0 0.0312 0.61719c0.94969 1.0925 1.8361 2.2374 2.6562 3.4297a0.50005 0.50005 0 0 0 0.58594 0.18555c2.1048-0.78401 3.5522-1.3933 4.5176-1.5762 0.48267-0.09142 0.82561-0.07755 1.0977 0.01953s0.51077 0.28162 0.77734 0.66211c0.22647 0.32325 0.28838 0.54639 0.26758 0.77734s-0.14555 0.51935-0.44922 0.90039c-0.60733 0.76208-1.8873 1.8114-3.7949 3.3477a0.50005 0.50005 0 0 0-0.13672 0.60547c0.633 1.3137 1.1908 2.6622 1.6699 4.0391a0.50005 0.50005 0 0 0 0.51954 0.33398c2.1948-0.21034 3.7278-0.41695 4.6934-0.33984 0.48277 0.03855 0.80542 0.14041 1.041 0.30469s0.41681 0.40536 0.57422 0.83789c0.13361 0.36714 0.13731 0.5977 0.0586 0.81445-0.0787 0.21676-0.27119 0.46107-0.65625 0.74805-0.77011 0.57395-2.2512 1.2479-4.4492 2.2188a0.50005 0.50005 0 0 0-0.28907 0.55273c0.27629 1.4133 0.47248 2.8421 0.58789 4.2773a0.50005 0.50005 0 0 0 0.4043 0.44922c2.1509 0.41325 3.6688 0.6484 4.5684 0.99414 0.44975 0.17287 0.73113 0.36025 0.91016 0.58398 0.17902 0.22373 0.28544 0.50508 0.31445 0.96289 0.0244 0.38494-0.0392 0.60616-0.17383 0.79102-0.13459 0.18485-0.38157 0.3631-0.82226 0.5293-0.88142 0.33239-2.4588 0.56249-4.7832 0.86719a0.50005 0.50005 0 0 0-0.43359 0.46289c-0.10116 1.5203-0.29465 3.0337-0.57617 4.5312a0.50005 0.50005 0 0 0 0.29297 0.55078c1.9825 0.86586 3.3956 1.4256 4.1875 1.959 0.39594 0.26671 0.6259 0.51044 0.75 0.76758 0.12408 0.25714 0.16412 0.5538 0.0918 1.0039-0.0624 0.38813-0.17247 0.59111-0.34765 0.74219-0.17519 0.15108-0.46478 0.27163-0.94532 0.33398-0.96107 0.12471-2.5986-0.01179-5.0195-0.23633a0.50005 0.50005 0 0 0-0.51758 0.33203c-0.50315 1.4253-1.0917 2.8195-1.7598 4.1758a0.50005 0.50005 0 0 0 0.14258 0.61524c1.7046 1.3192 2.9339 2.2068 3.5684 2.916 0.31721 0.35461 0.48008 0.64646 0.53711 0.92578 0.057 0.27932 0.0237 0.57804-0.15626 0.99609-0.15575 0.36191-0.31243 0.53109-0.51953 0.63477-0.20709 0.10367-0.51751 0.14939-1 0.0918-0.96497-0.1152-2.5264-0.64982-4.8281-1.4629a0.50005 0.50005 0 0 0-0.57617 0.18555c-0.80359 1.1519-1.6705 2.2572-2.5957 3.3145a0.50005 0.50005 0 0 0-0.0352 0.61328c1.2369 1.8028 2.1511 3.0349 2.5469 3.9121 0.19788 0.43859 0.26442 0.76997 0.23438 1.0547-0.03 0.28472-0.15215 0.55866-0.45313 0.90429-0.25451 0.29227-0.45504 0.40483-0.68164 0.44141-0.22659 0.0366-0.52983-0.0111-0.96289-0.20508-0.86612-0.38796-2.1586-1.3425-4.043-2.7734a0.50005 0.50005 0 0 0-0.6289 0.01953c-1.13 0.97349-2.3151 1.8807-3.5508 2.7168a0.50005 0.50005 0 0 0-0.19141 0.58399c0.76665 2.1163 1.3641 3.5709 1.5391 4.5391 0.0875 0.48406 0.0721 0.82828-0.0273 1.0996-0.0995 0.27132-0.28665 0.508-0.66992 0.77148-0.32579 0.22396-0.5502 0.28468-0.78125 0.26172-0.23106-0.0229-0.51939-0.15107-0.89844-0.45898-0.7581-0.61583-1.7964-1.9089-3.3203-3.8359a0.50005 0.50005 0 0 0-0.60547-0.14063c-1.3008 0.61529-2.6363 1.1569-3.998 1.623a0.50005 0.50005 0 0 0-0.33594 0.50586c0.15285 2.2682 0.32772 3.8437 0.23047 4.8301-0.0486 0.49319-0.15768 0.8223-0.32812 1.0566-0.17045 0.23435-0.41605 0.41039-0.85938 0.5586-0.37165 0.12422-0.60352 0.11988-0.81836 0.0352-0.21484-0.0848-0.4551-0.28316-0.73242-0.67773-0.55464-0.78915-1.1899-2.2958-2.1074-4.5312a0.50005 0.50005 0 0 0-0.55664-0.30079c-1.4518 0.27613-2.9186 0.46827-4.3926 0.57618a0.50005 0.50005 0 0 0-0.45703 0.41992c-0.351 2.2304-0.5299 3.7974-0.84375 4.7324-0.15693 0.4675-0.33659 0.76113-0.55469 0.95117s-0.49544 0.30757-0.95898 0.35352c-0.39967 0.0396-0.62802-0.0168-0.82032-0.15039-0.19229-0.1336-0.38393-0.38987-0.56836-0.85352-0.36884-0.92729-0.65708-2.6007-1.0742-5.0957a0.50005 0.50005 0 0 0-0.45508-0.41602c-1.4625-0.11113-2.9172-0.30528-4.3574-0.58203a0.50005 0.50005 0 0 0-0.55664 0.30078c-0.90476 2.2039-1.5367 3.692-2.0879 4.4707-0.2756 0.38934-0.51249 0.58414-0.72656 0.66797-0.21407 0.0838-0.44556 0.0881-0.81445-0.0352-0.44314-0.14813-0.68895-0.32433-0.85938-0.55859-0.17042-0.23427-0.27946-0.56178-0.32812-1.0547-0.0973-0.98583 0.0776-2.5617 0.23047-4.8281a0.50005 0.50005 0 0 0-0.33203-0.5039c-1.5463-0.54789-3.054-1.1935-4.5176-1.9336a0.50005 0.50005 0 0 0-0.48242 0.875l0.25586 0.15235c-1.299 1.6367-2.3394 2.949-3.0254 3.5137-0.3855 0.3173-0.67706 0.44836-0.91016 0.47266s-0.46003-0.0361-0.79102-0.26368c-0.39139-0.26906-0.5795-0.50971-0.67773-0.78516-0.0982-0.27544-0.10909-0.62662-0.0137-1.125 0.19089-0.99674 0.81621-2.499 1.6094-4.707a0.50005 0.50005 0 0 0-0.1875-0.58203c-1.1964-0.81892-2.3472-1.706-3.4434-2.6543a0.50005 0.50005 0 0 0-0.6289-0.01953c-1.9682 1.495-3.3038 2.4936-4.1953 2.9043-0.44575 0.20536-0.75632 0.2578-0.98632 0.22266-0.23001-0.0351-0.43295-0.14823-0.69336-0.44727-0.3098-0.35575-0.43191-0.63395-0.45899-0.92382-0.0271-0.28988 0.0466-0.63115 0.25977-1.0859 0.42628-0.90958 1.3963-2.1961 2.6992-4.1094a0.50005 0.50005 0 0 0-0.0352-0.60742c-0.89549-1.0368-1.7343-2.1219-2.5137-3.248a0.50005 0.50005 0 0 0-0.57813-0.18555c-2.3546 0.83182-3.9446 1.3819-4.9258 1.5039-0.49056 0.061-0.80461 0.0158-1.0137-0.08789s-0.36772-0.27429-0.52539-0.64062c-0.18108-0.42076-0.21252-0.71978-0.1543-1 0.0582-0.28022 0.22095-0.57451 0.54297-0.93164 0.64405-0.71426 1.8908-1.6092 3.6172-2.9473a0.50005 0.50005 0 0 0 0.14258-0.61328c-0.65374-1.3465-1.227-2.7293-1.7188-4.1426a0.50005 0.50005 0 0 0-0.51953-0.33398c-2.4642 0.22863-4.127 0.37057-5.1016 0.24805-0.48729-0.06126-0.77842-0.18062-0.95508-0.33203-0.17664-0.15141-0.28859-0.35623-0.35156-0.74805-0.0731-0.45505-0.0324-0.75341 0.0937-1.0117 0.12616-0.25831 0.36149-0.50448 0.76563-0.77344 0.80828-0.53791 2.2502-1.1048 4.2754-1.9922a0.50005 0.50005 0 0 0 0.28906-0.55469c-0.29371-1.4795-0.49996-2.9749-0.61719-4.4785a0.50005 0.50005 0 0 0-0.43359-0.45703c-2.3513-0.30802-3.9437-0.53629-4.834-0.86914-0.44515-0.16642-0.69652-0.34603-0.83203-0.53125-0.1355-0.18522-0.19836-0.40767-0.17382-0.79492 0.0294-0.4636 0.13677-0.74608 0.31835-0.9707 0.18161-0.22462 0.46835-0.41448 0.92774-0.58789 0.91878-0.34681 2.4714-0.58099 4.6758-1.0078a0.50005 0.50005 0 0 0 0.40234-0.45312c0.10439-1.4132 0.28848-2.8199 0.54883-4.2129a0.50005 0.50005 0 0 0-0.29101-0.54883c-2.2369-0.98786-3.7411-1.6695-4.5234-2.248-0.39116-0.28926-0.58627-0.53418-0.66602-0.75195-0.0797-0.21778-0.0763-0.44968 0.0586-0.82031 0.15888-0.43657 0.34059-0.67756 0.57812-0.8418 0.23754-0.16424 0.56495-0.26597 1.0547-0.30274 0.97948-0.07353 2.5356 0.13972 4.7715 0.35156a0.50005 0.50005 0 0 0 0.51954-0.33203c0.47688-1.3563 1.028-2.686 1.6543-3.9805a0.50005 0.50005 0 0 0-0.13476-0.60547c-1.9465-1.5675-3.2516-2.6313-3.8711-3.4023-0.30972-0.3855-0.43544-0.67767-0.45703-0.91016-0.0216-0.23248 0.0406-0.4564 0.26953-0.7832 0.2679-0.38238 0.50649-0.56728 0.7793-0.66406s0.61786-0.10885 1.1035-0.01563c0.97131 0.18645 2.4292 0.80153 4.5547 1.5918a0.50005 0.50005 0 0 0 0.58594-0.18555c0.79823-1.1627 1.6605-2.2814 2.582-3.3496a0.50005 0.50005 0 0 0 0.0312-0.61328c-1.3177-1.8795-2.2948-3.1455-2.7285-4.0449-0.21685-0.44972-0.29519-0.78858-0.27149-1.0781s0.14152-0.56758 0.44531-0.92578c0.25862-0.30493 0.46074-0.4231 0.69141-0.46094s0.54534 0.01172 0.99805 0.21484c0.90541 0.40625 2.2693 1.4029 4.2871 2.8945a0.50005 0.50005 0 0 0 0.625-0.02344c1.0937-0.94678 2.2399-1.8325 3.4336-2.6504a0.50005 0.50005 0 0 0 0.18359-0.5918c-0.81874-2.1132-1.4531-3.5625-1.6523-4.5312-0.0996-0.48437-0.0932-0.82924 0-1.1035 0.0932-0.27427 0.27576-0.51609 0.6543-0.78906 0.32441-0.23394 0.54821-0.29994 0.78125-0.28125s0.52722 0.14316 0.91797 0.44922c0.7815 0.61212 1.8656 1.906 3.4668 3.8398a0.50005 0.50005 0 0 0 0.60157 0.13281c1.285-0.6156 2.6018-1.1592 3.9473-1.6289a0.50005 0.50005 0 0 0 0.33399-0.50781c-0.16081-2.3318-0.35047-3.9435-0.26172-4.9512 0.0444-0.50383 0.15076-0.83658 0.32031-1.0742s0.4161-0.41654 0.86523-0.56836c0.3764-0.12724 0.60953-0.12476 0.82618-0.03906s0.46026 0.28843 0.74218 0.69141c0.56384 0.80595 1.2129 2.3458 2.1621 4.6367a0.50005 0.50005 0 0 0 0.5586 0.29883c1.4076-0.27503 2.8301-0.47118 4.2598-0.58789a0.50005 0.50005 0 0 0 0.45117-0.41211c0.38575-2.2366 0.58704-3.8095 0.91407-4.7441 0.16351-0.4673 0.34756-0.75987 0.56836-0.94727 0.22079-0.1874 0.50145-0.30047 0.96679-0.33984zm-1.6074 10.951c-2.6203 0.04389-4.9497 0.32881-6.2559 1.332-1.4625 0.92006-2.5401 2.238-2.9961 3.7773-0.45873 1.5488-0.27724 3.3083 0.70117 5.0137 7.8e-4 0.0014 9.5e-4 0.0025 2e-3 0.0039 2.5459 4.6915 5.319 9.4122 8.1836 14.008a0.50005 0.50005 0 0 0 0.0352 0.05078c0.84265 1.0365 1.7123 1.3392 2.5703 1.4766 0.858 0.13737 1.7256 0.1744 3.0313 0.7793a0.50005 0.50005 0 0 0 0.0469 0.01953c0.71929 0.24929 1.3611 0.85707 2.0195 1.5723 0.63557 0.69032 1.2917 1.456 2.1172 2.002 0.23744 0.25009 0.53728 0.403 0.92578 0.54102 0.39991 0.14207 0.87574 0.24454 1.3809 0.25 5.2097 0.05634 11.832 0.31806 16.771-0.14453 1.7832-0.16352 3.0169-1.4283 3.9531-2.6621a0.50005 0.50005 0 0 0 0.01-0.01563c1.1626-1.6512 1.2899-3.6998 0.92774-5.4395a0.50005 0.50005 0 0 0-2e-3 -0.0059c-0.36108-1.6362-1.1486-3.3863-2.2305-5.1777-5.7486-9.5189-12.574-13.681-19.881-15.918l-6e-3 -2e-3c-0.94544-0.40995-2.6348-0.76613-4.6836-1.043-2.0514-0.27719-4.4303-0.45467-6.6211-0.41797zm8e-3 0.5c4.3154-0.07229 9.439 0.69843 11.104 1.4219 7.2456 2.2087 13.946 6.2688 19.652 15.717 1.0626 1.7596 1.8261 3.4681 2.1699 5.0273 0.3413 1.6395 0.21329 3.5468-0.8457 5.0508-0.90751 1.196-2.0313 2.323-3.5996 2.4668-4.8807 0.45727-11.498 0.19906-16.721 0.14258-0.87881-0.0095-1.718-0.36516-1.9707-0.64258-1.5473-0.97515-2.5889-3.0973-4.3145-3.6953-2.7548-1.2763-3.87-0.20604-5.4238-2.1172-2.8622-4.5917-5.6318-9.3091-8.1738-13.994-1.8418-3.2061-0.6275-6.4151 2.1484-8.1445 1.0861-0.84251 3.3853-1.1891 5.9746-1.2324zm-19.25 9.3867c-1.7226 0.05406-3.2765 0.86556-4.4473 1.8887a0.50005 0.50005 0 0 0-6e-3 0.0039c-1.2484 1.1172-2.3879 2.6624-3.418 4.4844-5.4751 9.6848-5.7484 17.677-4.1094 25.145 0.0862 0.8196 0.43337 2.0242 0.95899 3.4668 0.52742 1.4475 1.2349 3.1105 2.041 4.7305 0.80611 1.62 1.7087 3.1962 2.6387 4.4746 0.92563 1.2724 1.8569 2.2598 2.8652 2.6895 1.5192 0.82248 3.197 1.112 4.7617 0.75391 1.5758-0.36066 3.0195-1.3824 4.0254-3.0742 2.8386-4.521 5.5948-9.254 8.1934-14.006a0.50005 0.50005 0 0 0 0.0254-0.05664c0.48954-1.2429 0.32518-2.1482 0.0234-2.9629-0.3017-0.81467-0.69487-1.589-0.8086-3.0234a0.50005 0.50005 0 0 0-6e-3 -0.05078c-0.13577-0.74896 0.0786-1.6066 0.37891-2.5312 0.29004-0.8931 0.63677-1.8381 0.70703-2.8262 0.10159-0.33015 0.0883-0.66581 0.0176-1.0723-0.0727-0.4183-0.21981-0.88346-0.46289-1.3262-2.5075-4.5667-5.5283-10.464-8.3555-14.541l-2e-3 -2e-3c-1.0178-1.4716-2.7242-1.9266-4.2578-2.1367a0.50005 0.50005 0 0 0-0.0176-2e-3c-0.2508-0.0253-0.49973-0.03317-0.7461-0.02539zm0.0156 0.5c0.22474-0.0071 0.45093 3.6e-4 0.67969 0.02344 1.4874 0.20378 3.021 0.62988 3.916 1.9258 2.7937 4.0282 5.8165 9.9202 8.3301 14.498 0.42299 0.77037 0.52593 1.6769 0.4082 2.0332-0.0903 1.8267-1.4293 3.7753-1.1035 5.5723 0.23995 3.0266 1.721 3.472 0.81836 5.7637-2.5961 4.7473-5.349 9.4761-8.1836 13.99-1.8896 3.1782-5.2812 3.6949-8.1504 2.125-3.379-1.421-7.9183-12.084-8.2168-14.973-1.6314-7.397-1.381-15.228 4.0508-24.836 1.0116-1.7894 2.1266-3.2927 3.3164-4.3574 1.1034-0.96424 2.5616-1.7163 4.1348-1.7656zm38.615 26.414c-2.7148-0.01406-5.4375 0.01339-8.1465 0.07617a0.50005 0.50005 0 0 0-0.0625 0.0059c-1.3211 0.19748-2.023 0.7925-2.5781 1.4609-0.55512 0.66844-1.0294 1.3952-2.2148 2.2109a0.50005 0.50005 0 0 0-0.0391 0.03125c-0.58084 0.49215-1.4321 0.73486-2.3828 0.9375-0.91937 0.19596-1.9132 0.36848-2.8047 0.80273-0.33444 0.07762-0.61825 0.25646-0.9336 0.51953-0.32592 0.2719-0.65606 0.63055-0.91797 1.0625-2.701 4.4548-6.2988 10.021-8.416 14.508-0.7674 1.6183-0.30585 3.3258 0.2793 4.7598a0.50005 0.50005 0 0 0 8e-3 0.01563c0.82916 1.8415 2.5278 2.9905 4.209 3.5645a0.50005 0.50005 0 0 0 6e-3 2e-3c1.5917 0.5226 3.4989 0.73769 5.5918 0.71875 11.119-0.10075 18.178-3.8568 23.824-9.0059 0.66756-0.48322 1.5414-1.3918 2.5312-2.5723s2.0764-2.6228 3.0762-4.1309c0.99981-1.508 1.9126-3.0789 2.5547-4.5234 0.63822-1.4359 1.027-2.7331 0.89648-3.8203-0.0462-1.7291-0.63274-3.3285-1.7266-4.5059-1.1004-1.1844-2.7096-1.924-4.6777-1.9492-2.6652-0.09881-5.3654-0.15393-8.0762-0.16797zm-2e-3 0.5c2.7097 0.01403 5.409 0.0691 8.0723 0.16797 3.6972 0.04731 5.841 2.7264 5.916 5.9961 0.45885 3.6368-6.5051 12.899-8.8574 14.602-5.5902 5.1113-12.498 8.8102-23.535 8.9102-2.0555 0.0186-3.9146-0.19529-5.4316-0.69336-1.5849-0.54107-3.1608-1.6196-3.916-3.2969-0.56722-1.39-0.96582-2.9325-0.29102-4.3555 2.0916-4.4335 5.6849-9.9971 8.3926-14.463 0.45566-0.75151 1.1892-1.293 1.5566-1.3691 1.6271-0.83516 3.9836-0.65144 5.377-1.832 2.5011-1.7211 2.148-3.2257 4.584-3.5898 2.7046-0.06268 5.4231-0.0902 8.1328-0.07617z" fill="#fff" fill-opacity=".26744"/>
   <path d="m218.59 65.777a3.8228 3.8228 0 0 0-3.8223 3.8223 3.8228 3.8228 0 0 0 3.8223 3.8242 3.8228 3.8228 0 0 0 3.8242-3.8242 3.8228 3.8228 0 0 0-3.8242-3.8223zm-0.0215 0.79492a3.0052 3.0052 0 0 1 3.0059 3.0059 3.0052 3.0052 0 0 1-3.0059 3.0059 3.0052 3.0052 0 0 1-3.0059-3.0059 3.0052 3.0052 0 0 1 3.0059-3.0059z" fill="url(#e)"/>
   <circle cx="218.59" cy="69.601" r="3.0052" fill="url(#g)"/>
   <path d="m218.59 65.592c-2.2121 3.08e-4 -4.0075 1.7957-4.0078 4.0078-8.3e-4 2.2129 1.7949 4.0095 4.0078 4.0098 2.2137 8.24e-4 4.0106-1.7961 4.0098-4.0098-3e-4 -2.2129-1.7968-4.0086-4.0098-4.0078zm0 0.19531c2.1076-7.85e-4 3.8161 1.7049 3.8164 3.8125 7.8e-4 2.1083-1.7081 3.8152-3.8164 3.8145-2.1076-2.93e-4 -3.8133-1.7069-3.8125-3.8145 2.9e-4 -2.1068 1.7057-3.8122 3.8125-3.8125z" fill="#fff" fill-opacity=".38372"/>
  </g>
 </g>
</svg>
