<svg width="32" height="32" xmlns="http://www.w3.org/2000/svg" xmlns:xlink="http://www.w3.org/1999/xlink"><defs><linearGradient id="e" x2="0" y1="24" y2="8" gradientUnits="userSpaceOnUse" xlink:href="#a"/><linearGradient id="k" x2="0" y1="532.8" y2="526.8" gradientTransform="translate(-384.57 -515.8)" gradientUnits="userSpaceOnUse" xlink:href="#b"/><linearGradient id="f" x2="0" y1="533.8" y2="523.8" gradientTransform="translate(-384.57 -515.8)" gradientUnits="userSpaceOnUse" xlink:href="#a"/><linearGradient id="l" x2="0" y1="536.8" y2="532.8" gradientTransform="translate(-383.57 -515.8)" gradientUnits="userSpaceOnUse" xlink:href="#a"/><linearGradient id="m" x2="0" y1="20" y2="18" gradientUnits="userSpaceOnUse" xlink:href="#b"/><linearGradient id="b"><stop stop-color="#999a9c" offset="0"/><stop stop-color="#f4f5f5" offset="1"/></linearGradient><linearGradient id="a"><stop stop-color="#2a2c2f" offset="0"/><stop stop-color="#424649" offset="1"/></linearGradient><linearGradient id="n" x2="0" y1="8" y2="24" gradientTransform="matrix(1 0 0 -1 0 24)" gradientUnits="userSpaceOnUse" xlink:href="#a"/><linearGradient id="j" x2="0" y1="532.8" y2="530.8" gradientTransform="translate(-384.57 -515.8)" gradientUnits="userSpaceOnUse"><stop stop-color="#2980b9" offset="0"/><stop stop-color="#3498db" offset="1"/></linearGradient><linearGradient id="g" x2="0" y1="528.8" y2="526.8" gradientTransform="translate(-384.57 -515.8)" gradientUnits="userSpaceOnUse"><stop stop-color="#27ae60" offset="0"/><stop stop-color="#2ecc71" offset="1"/></linearGradient><linearGradient id="i" x2="0" y1="530.8" y2="528.8" gradientTransform="translate(-384.57 -515.8)" gradientUnits="userSpaceOnUse"><stop stop-color="#c0392b" offset="0"/><stop stop-color="#e74c3c" offset="1"/></linearGradient><linearGradient id="h" x2="0" y1="530.8" y2="528.8" gradientTransform="translate(-384.57 -515.8)" gradientUnits="userSpaceOnUse"><stop stop-color="#f33777" offset="0"/><stop stop-color="#fd2d65" offset="1"/></linearGradient><linearGradient id="c" x1="399.57" x2="399.57" y1="545.8" y2="517.8" gradientTransform="translate(-384.57 -515.8)" gradientUnits="userSpaceOnUse"><stop stop-color="#d3d3d3" offset="0"/><stop stop-color="#fcf9f9" offset="1"/></linearGradient><filter id="d" x="-.029" y="-.047" width="1.058" height="1.095" color-interpolation-filters="sRGB"><feGaussianBlur stdDeviation=".315"/></filter></defs><rect x="1" y="1" width="30" height="30" rx="8" ry="8" fill="url(#c)"/><g stroke-linecap="square"><g stroke-width=".1"><path d="M10 8a6 6 0 0 0-6 6l-.941 7.525a2 2 0 0 0 3.479 1.752l.001.004 2.879-3.31A6 6 0 0 0 13.31 19h5.378a6 6 0 0 0 3.893.97l2.879 3.31.002-.004A2 2 0 0 0 29 22a2 2 0 0 0-.059-.475L28 14a6 6 0 0 0-6-6H10z" filter="url(#d)" opacity=".25"/><path d="m4 14-.941 7.525a2 2 0 0 0 3.479 1.752l.001.004 5.46-6.28zm24 0-8 3 5.46 6.281.003-.004A2 2 0 0 0 29 22a2 2 0 0 0-.059-.475z" fill="url(#e)"/><path d="M10 8a6 6 0 0 0 0 12 6 6 0 0 0 3.31-1h5.38A6 6 0 0 0 22 20a6 6 0 0 0 0-12h-7z" fill="url(#f)"/><path d="M23 11a1 1 0 0 0-1 1 1 1 0 0 0 1 1 1 1 0 0 0 1-1 1 1 0 0 0-1-1z" fill="url(#g)"/><path d="M21 13a1 1 0 0 0-1 1 1 1 0 0 0 1 1 1 1 0 0 0 1-1 1 1 0 0 0-1-1z" fill="url(#h)"/><path d="M25 13a1 1 0 0 0-1 1 1 1 0 0 0 1 1 1 1 0 0 0 1-1 1 1 0 0 0-1-1z" fill="url(#i)"/><path d="M23 15a1 1 0 0 0-1 1 1 1 0 0 0 1 1 1 1 0 0 0 1-1 1 1 0 0 0-1-1z" fill="url(#j)"/><path d="M8 11v2H6v2h2v2h2v-2h2v-2h-2v-2z" fill="url(#k)"/></g><path d="M13 17a2 2 0 0 0-2 2 2 2 0 0 0 2 2 2 2 0 0 0 2-2 2 2 0 0 0-2-2zm6 0a2 2 0 0 0-2 2 2 2 0 0 0 2 2 2 2 0 0 0 2-2 2 2 0 0 0-2-2z" fill="url(#l)"/><path d="M13 18a1 1 0 0 0-1 1 1 1 0 0 0 1 1 1 1 0 0 0 1-1 1 1 0 0 0-1-1zm6 0a1 1 0 0 0-1 1 1 1 0 0 0 1 1 1 1 0 0 0 1-1 1 1 0 0 0-1-1z" fill="url(#m)"/><path d="M15.5 15a.5.5 0 1 1 0-1 .5.5 0 0 1 0 1zm1.5-1-.707-.707L17.586 12l-1.293-1.293L17 10l2 2-.707.707zm-2.5-1a.5.5 0 1 1 0-1 .5.5 0 0 1 0 1zm1-2a.5.5 0 1 1 0-1 .5.5 0 0 1 0 1z" fill="url(#n)"/></g></svg>