<svg width="32" height="32" xmlns="http://www.w3.org/2000/svg"><defs><linearGradient id="b" x2="0" y1="545.8" y2="517.8" gradientUnits="userSpaceOnUse"><stop stop-color="#3889e9" offset="0"/><stop stop-color="#5ea5fb" offset="1"/></linearGradient><linearGradient id="d" x2="0" y1="23" y2="8" gradientUnits="userSpaceOnUse"><stop stop-color="#d2e6fe" offset="0"/><stop stop-color="#f4f9ff" offset="1"/></linearGradient><linearGradient id="a" x1="399.57" x2="399.57" y1="545.8" y2="517.8" gradientUnits="userSpaceOnUse"><stop stop-color="#0578ff" offset="0"/><stop stop-color="#42ccff" offset="1"/></linearGradient><filter id="c" x="-.034" y="-.038" width="1.068" height="1.077" color-interpolation-filters="sRGB"><feGaussianBlur stdDeviation=".24"/></filter></defs><g transform="translate(-384.57 -515.8)"><rect x="385.57" y="516.8" width="30" height="30" rx="8" ry="8" fill="url(#a)"/><path d="M392.57 520.8v3h-3v1h3v4h-3v1h3v4h-3v1h3v4h-3v1h3v3h1v-3h4v3h1v-3h4v3h1v-3h4v3h1v-3h3v-1h-3v-4h3v-1h-3v-4h3v-1h-3v-4h3v-1h-3v-3h-1v3h-4v-3h-1v3h-4v-3h-1v3h-4v-3h-1zm1 4h4v4h-4v-4zm5 0h4v4h-4v-4zm5 0h4v4h-4v-4zm-10 5h4v4h-4v-4zm5 0h4v4h-4v-4zm5 0h4v4h-4v-4zm-10 5h4v4h-4v-4zm5 0h4v4h-4v-4zm5 0h4v4h-4v-4z" color="#000" fill="#fcfcfc" fill-opacity=".059"/><circle cx="400.57" cy="531.8" fill="url(#b)" r="0"/><path transform="translate(384.57 515.8)" d="M18.143 8.014C17.096 8.09 16 8.496 15 8.996c2 0 3 1 4 2l2 2.002V14l1 1 3-3.002-1-1.002h-1l-2-2c-.81-.809-1.81-1.06-2.857-.982zM19 11l-4 4h-1l-6 6 2 2 6-6v-1l4-4-1-1z" fill-rule="evenodd" filter="url(#c)" opacity=".25"/><path transform="translate(384.57 515.8)" d="M18.143 8.014C17.096 8.09 16 8.496 15 8.996c2 0 3 1 4 2l2 2.002V14l1 1 3-3.002-1-1.002h-1l-2-2c-.81-.809-1.81-1.06-2.857-.982zM19 11l-4 4h-1l-6 6 2 2 6-6v-1l4-4-1-1z" fill="url(#d)" fill-rule="evenodd"/><path d="M393.57 519.8c-2.77 0-5 2.23-5 5v14c0 2.77 2.23 5 5 5h14c2.77 0 5-2.23 5-5v-14c0-2.77-2.23-5-5-5h-14zm0 1h14c2.216 0 4 1.784 4 4v14c0 2.216-1.784 4-4 4h-14c-2.216 0-4-1.784-4-4v-14c0-2.216 1.784-4 4-4z" fill="#fff" opacity=".25"/></g></svg>