<svg width="32" height="32" xmlns="http://www.w3.org/2000/svg"><defs><linearGradient id="c" x1="417" x2="417" y1="49.971" y2="576.63" gradientTransform="matrix(.05892 0 0 .05892 -8.729 1.676)" gradientUnits="userSpaceOnUse"><stop stop-color="#f3f3f3" offset="0"/><stop stop-color="#b7b7b7" offset="1"/></linearGradient><linearGradient id="d" x1="417" x2="417" y1="51.538" y2="573.98" gradientTransform="matrix(.05832 0 0 .05832 -8.48 1.822)" gradientUnits="userSpaceOnUse"><stop stop-color="#f3f3f3" offset="0"/><stop stop-color="#b7b7b7" offset="1"/></linearGradient><linearGradient id="a" x1="399.57" x2="399.57" y1="545.8" y2="517.8" gradientTransform="translate(-384.57 -515.8)" gradientUnits="userSpaceOnUse"><stop stop-color="#e5e5e5" offset="0"/><stop stop-color="#fdfdfd" offset="1"/></linearGradient><radialGradient id="b" cx="417" cy="245.84" r="231.55" gradientTransform="matrix(.06243 0 0 .06243 -10.031 .653)" gradientUnits="userSpaceOnUse"><stop stop-color="#00cef6" offset="0"/><stop stop-color="#009ad5" offset=".6"/><stop stop-color="#0a55da" offset="1"/></radialGradient></defs><rect x="1" y="1" width="30" height="30" rx="8" ry="8" fill="url(#a)"/><path class="shp36" d="M16 29c7.18 0 13-5.82 13-13S23.18 3 16 3 3 8.82 3 16s5.82 13 13 13z" fill="url(#b)"/><path class="shp37" d="M15.84 4.62v2.156m2.247-1.935-.412 2.117m2.59-1.456-.843 1.985m2.833-.92-1.206 1.788M24 8l-1.525 1.525m2.958.22-1.788 1.206m2.86.802-2 .807m2.654 1.353-2.117.411m2.338 1.836h-2.156m1.935 2.247-2.117-.411m1.456 2.589-1.985-.843m.92 2.833-1.788-1.206M24 24.32l-1.525-1.524m-.22 2.957-1.206-1.788m-.801 2.86-.808-2m-1.354 2.655-.41-2.117M15.84 27.7v-2.156m-2.247 1.936.411-2.117m-2.589 1.455.843-1.985m-2.833.92 1.206-1.788m-2.951.355 1.524-1.524m-2.957-.22 1.788-1.207m-2.854-.784 1.985-.843M4.52 18.407l2.117-.412M4.3 16.16h2.157M4.52 13.913l2.117.411m-1.456-2.589 1.985.843m-.919-2.833 1.788 1.206M7.679 8l1.525 1.524m.22-2.957 1.207 1.787m.8-2.86.809 2m1.353-2.654.411 2.117" fill="none" stroke="url(#c)" stroke-linecap="round" stroke-width=".542"/><path class="shp38" d="m16.954 4.828-.087.863m2.275-.428-.251.83m2.318.026-.417.76m2.271.48-.555.666m2.133.91-.673.548m1.912 1.306-.764.41m1.621 1.657-.833.242m1.268 1.946-.864.079m.864 2.151-.863-.087m.429 2.275-.83-.251m-.027 2.318-.76-.417m-.479 2.271-.667-.555m-.91 2.132-.548-.672M21.211 26.2l-.41-.764m-1.657 1.62-.242-.832m-1.946 1.267-.078-.863m-2.152.864.088-.863m-2.276.428.251-.83m-2.318-.026.418-.76m-2.272-.48.555-.666m-2.133-.91.673-.548M5.8 21.53l.764-.41m-1.619-1.65.83-.257m-1.267-1.938.864-.078m-.864-2.152.863.088m-.429-2.276.831.251m.026-2.318.76.418m.479-2.273.667.556m.91-2.133.548.673m1.306-1.912.41.765m1.657-1.622.242.833m1.946-1.268.079.864" fill="none" stroke="url(#d)" stroke-linecap="round" stroke-width=".542"/><g stroke-width="76.886"><path class="shp40" d="m14.328 14.545 3.245 3.246L23 9zM9 23l8.574-5.209-3.246-3.246z" fill="#fe504d"/><path d="M14.328 14.546 9 23l8.574-5.209-3.246-3.246z" fill="#eee"/><path d="M23 9 9 23l8.574-5.21z" fill-opacity=".251"/></g></svg>