<svg width="32" height="32" xmlns="http://www.w3.org/2000/svg"><defs><linearGradient id="a" x1="399.57" x2="399.57" y1="545.8" y2="517.8" gradientTransform="translate(-384.57 -515.8)" gradientUnits="userSpaceOnUse"><stop stop-color="#d3d3d3" offset="0"/><stop stop-color="#fcf9f9" offset="1"/></linearGradient></defs><rect x="1" y="1" width="30" height="30" rx="8" ry="8" fill="url(#a)"/><g fill-rule="evenodd" stroke-width=".095"><path d="M15.883 28.874c4.88-3.601 5.475-7.397.174-11.461-6.199 4.526-3.93 8.079-.174 11.461z" fill="#48cfad" opacity=".85" stroke="#37bc9b" stroke-width=".0998355"/><path d="M15.883 3.631c4.88 3.602 5.475 7.397.174 11.461-6.199-4.526-3.93-8.078-.174-11.46z" fill="#ed5565" opacity=".85" stroke="#da4453" stroke-width=".0998355"/><path d="M28.735 16.095c-3.6 4.88-7.397 5.475-11.46.174 4.525-6.199 8.078-3.93 11.46-.174z" fill="#ffce54" opacity=".85" stroke="#f6bb42" stroke-width=".0998355"/><path d="M3.472 16.18c3.6 4.88 7.397 5.474 11.46.173-4.525-6.198-8.078-3.929-11.46-.174z" fill="#ac92ec" opacity=".85" stroke="#967adc" stroke-width=".0998355"/><path d="M15.4 15.454c-6.051.419-8.963-2.088-7.558-8.618 7.654-.568 8.227 3.609 7.557 8.618z" fill="#ec87c0" opacity=".85" stroke="#d770ad" stroke-width=".0998355"/><path d="M7.696 25.732c6.051.419 8.963-2.088 7.558-8.618-7.654-.568-8.227 3.609-7.558 8.618z" fill="#5d9cec" opacity=".85" stroke="#4a89dc" stroke-width=".0998355"/><path d="M16.892 15.517c6.05.419 8.962-2.088 7.557-8.618-7.653-.568-8.227 3.609-7.557 8.618z" fill="#fc6e51" opacity=".85" stroke="#e9573f" stroke-width=".0998355"/><path d="M24.584 25.753c-6.05.419-8.962-2.088-7.557-8.618 7.654-.568 8.227 3.609 7.557 8.618z" fill="#a0d468" opacity=".85" stroke="#8cc152" stroke-width=".0998355"/></g></svg>