<svg width="32" height="32" version="1.1" xmlns="http://www.w3.org/2000/svg">
 <defs>
  <style id="current-color-scheme" type="text/css">.ColorScheme-Text { color:#363636; } .ColorScheme-Highlight { color:#4285f4; }</style>
 </defs>
 <path class="ColorScheme-Text" d="m7 5c-1.108 0-2 0.892-2 2v5c0 1.108 0.892 2 2 2h5c1.108 0 2-0.892 2-2v-5c0-1.108-0.892-2-2-2h-5zm13 0c-1.108 0-2 0.892-2 2v5c0 1.108 0.892 2 2 2h5c1.108 0 2-0.892 2-2v-5c0-1.108-0.892-2-2-2h-5zm-13 1.5h5c0.277 0 0.5 0.223 0.5 0.5v5c0 0.277-0.223 0.5-0.5 0.5h-5c-0.277 0-0.5-0.223-0.5-0.5v-5c0-0.277 0.223-0.5 0.5-0.5zm13 0h5c0.277 0 0.5 0.223 0.5 0.5v5c0 0.277-0.223 0.5-0.5 0.5h-5c-0.277 0-0.5-0.223-0.5-0.5v-5c0-0.277 0.223-0.5 0.5-0.5zm-13 11.5c-1.108 0-2 0.892-2 2v5c0 1.108 0.892 2 2 2h5c1.108 0 2-0.892 2-2v-5c0-1.108-0.892-2-2-2h-5zm13 0c-1.108 0-2 0.892-2 2v5c0 1.108 0.892 2 2 2h5c1.108 0 2-0.892 2-2v-5c0-1.108-0.892-2-2-2h-5zm-13 1.5h5c0.277 0 0.5 0.223 0.5 0.5v5c0 0.277-0.223 0.5-0.5 0.5h-5c-0.277 0-0.5-0.223-0.5-0.5v-5c0-0.277 0.223-0.5 0.5-0.5zm13 0h5c0.277 0 0.5 0.223 0.5 0.5v5c0 0.277-0.223 0.5-0.5 0.5h-5c-0.277 0-0.5-0.223-0.5-0.5v-5c0-0.277 0.223-0.5 0.5-0.5z" fill="currentColor"/>
</svg>
