<svg width="32" height="32" xmlns="http://www.w3.org/2000/svg"><defs><radialGradient id="j" cx="16.858" cy="22.385" r="12.416" gradientTransform="matrix(2.4606 0 0 2.8421 -9.74 -21.417)" gradientUnits="userSpaceOnUse"><stop stop-opacity="0" offset="0"/><stop stop-opacity="0" offset=".8"/><stop offset="1"/></radialGradient><radialGradient id="i" cx="218.59" cy="69.601" r="3.005" gradientTransform="matrix(.12902 0 0 .1287 -19.737 -.491)" gradientUnits="userSpaceOnUse"><stop stop-color="#27282c" offset="0"/><stop stop-color="#27282c" offset="1"/></radialGradient><radialGradient id="f" cx="219.42" cy="67.2" r="59.155" gradientTransform="matrix(.48232 -.27187 .29867 .5299 -93.9 55.938)" gradientUnits="userSpaceOnUse"><stop stop-color="#4a4a4a" offset="0"/><stop stop-color="#4a4a4a" offset=".757"/><stop stop-color="#161616" offset="1"/></radialGradient><radialGradient id="d" cx="16.993" cy="20.424" r="12.416" gradientTransform="matrix(.68133 0 0 .64461 -3.09 -2.998)" gradientUnits="userSpaceOnUse"><stop stop-color="#292929" offset="0"/><stop stop-color="#434342" offset=".6"/><stop stop-color="#3e3e3d" offset=".74"/><stop offset="1"/></radialGradient><radialGradient id="e" cx="64.225" cy="64.574" r="46.928" gradientTransform="translate(-.19 .201) scale(.13477)" gradientUnits="userSpaceOnUse"><stop offset="0"/><stop stop-opacity=".875" offset=".175"/><stop stop-opacity=".824" offset=".753"/><stop stop-opacity=".05" offset=".901"/><stop stop-opacity="0" offset="1"/></radialGradient><radialGradient id="b" cx="16.993" cy="17.403" r="12.416" gradientTransform="translate(-.633 -.893) scale(1.9252)" gradientUnits="userSpaceOnUse"><stop stop-color="#fff" offset="0"/><stop stop-color="#fff" stop-opacity=".937" offset=".971"/><stop stop-color="#fff" stop-opacity="0" offset="1"/></radialGradient><radialGradient id="c" cx="16.993" cy="17.403" r="12.416" gradientTransform="translate(-.633 -.893) scale(1.9252)" gradientUnits="userSpaceOnUse"><stop offset="0"/><stop stop-opacity="0" offset="1"/></radialGradient><linearGradient id="g" x1="196.6" x2="239.83" y1="30.726" y2="106.35" gradientTransform="matrix(.12902 0 0 .1287 -19.737 -.491)" gradientUnits="userSpaceOnUse"><stop stop-color="#e2e6e8" offset="0"/><stop stop-color="#838d91" offset="1"/></linearGradient><linearGradient id="h" x1="214.77" x2="222.42" y1="69.601" y2="69.601" gradientTransform="matrix(.12902 0 0 .1287 -19.737 -.491)" gradientUnits="userSpaceOnUse"><stop stop-color="#5f6569" offset="0"/><stop stop-color="#686e72" offset="1"/></linearGradient><linearGradient id="a" x1="7.937" x2="7.937" y1="15.081" y2="1.852" gradientTransform="scale(3.7796)" gradientUnits="userSpaceOnUse"><stop stop-color="#93918e" offset="0"/><stop stop-color="#d4e4ea" offset="1"/></linearGradient></defs><g transform="translate(-1.143 -1.126) scale(.53569)"><rect x="4" y="3.969" width="56.002" height="56.002" rx="13.002" ry="13.002" fill="url(#a)"/><circle cx="32.081" cy="32.772" r="23.904" fill="#fff" fill-opacity=".01"/><circle cx="32.081" cy="32.613" r="23.904" fill="url(#b)" stroke="url(#c)" stroke-linecap="round" stroke-linejoin="round" stroke-opacity=".159" stroke-width=".166"/><g transform="scale(3.7796)"><circle cx="8.488" cy="8.466" r="6.324" fill="url(#d)"/><path d="M8.466 2.58a6.325 6.325 0 1 0 0 12.649 6.325 6.325 0 0 0 0-12.65zm0 1.362a4.962 4.962 0 0 1 4.962 4.962c0 2.74-2.296 4.333-5.037 4.334-2.74 0-4.887-1.593-4.886-4.334a4.962 4.962 0 0 1 4.962-4.962z" fill="url(#e)"/><path d="M14.809 8.525a6.324 6.324 0 0 1-.059.79 6.324 6.324 0 0 1-.029.159 6.324 6.324 0 0 1 0 .003 6.324 6.324 0 0 1 0 .001 6.324 6.324 0 0 1-.128.617 6.324 6.324 0 0 1-.066.211 6.324 6.324 0 0 1-.189.543 6.324 6.324 0 0 1-.103.23 6.324 6.324 0 0 1-.001.002 6.324 6.324 0 0 1-.243.484 6.324 6.324 0 0 1-.141.235 6.324 6.324 0 0 1-.001 0 6.324 6.324 0 0 1 0 .002 6.324 6.324 0 0 1-.002.001 6.324 6.324 0 0 1-.289.428 6.324 6.324 0 0 1-.001.002 6.324 6.324 0 0 1-.124.158 6.324 6.324 0 0 1-.036.045 6.324 6.324 0 0 1-.011.015 6.324 6.324 0 0 1-.005.006 6.324 6.324 0 0 1-.34.384 6.324 6.324 0 0 1-.207.207 6.324 6.324 0 0 1-.38.331 6.324 6.324 0 0 1-.001 0 6.324 6.324 0 0 1-.234.184 6.324 6.324 0 0 1-.413.274 6.324 6.324 0 0 1-.004.003 6.324 6.324 0 0 1-.142.085 6.324 6.324 0 0 1-.05.03 6.324 6.324 0 0 1-.011.007 6.324 6.324 0 0 1-.055.033 6.324 6.324 0 0 1-.455.223 6.324 6.324 0 0 1-.265.12 6.324 6.324 0 0 1-.49.165 6.324 6.324 0 0 1-.004.002 6.324 6.324 0 0 1-.265.082 6.324 6.324 0 0 1-.002 0 6.324 6.324 0 0 1-.55.11 6.324 6.324 0 0 1-.23.042 6.324 6.324 0 0 1-.795.052 6.324 6.324 0 0 1-.796-.052 6.324 6.324 0 0 1-.191-.035 6.324 6.324 0 0 1-.001 0 6.324 6.324 0 0 1-.003-.001 6.324 6.324 0 0 1-.589-.116 6.324 6.324 0 0 1-.22-.07 6.324 6.324 0 0 1-.001 0 6.324 6.324 0 0 1-.001 0 6.324 6.324 0 0 1-.002 0 6.324 6.324 0 0 1-.534-.18 6.324 6.324 0 0 1-.223-.1 6.324 6.324 0 0 1-.001 0 6.324 6.324 0 0 1-.001-.001 6.324 6.324 0 0 1-.499-.244 6.324 6.324 0 0 1-.033-.02 6.324 6.324 0 0 1-.017-.01 6.324 6.324 0 0 1-.063-.038 6.324 6.324 0 0 1-.096-.058 6.324 6.324 0 0 1-.464-.306 6.324 6.324 0 0 1-.001 0 6.324 6.324 0 0 1-.028-.023 6.324 6.324 0 0 1-.005-.003 6.324 6.324 0 0 1-.024-.02 6.324 6.324 0 0 1-.134-.104 6.324 6.324 0 0 1-.426-.368 6.324 6.324 0 0 1-.165-.165 6.324 6.324 0 0 1-.384-.43 6.324 6.324 0 0 1-.133-.17 6.324 6.324 0 0 1-.337-.493 6.324 6.324 0 0 1-.104-.171 6.324 6.324 0 0 1 0-.001 6.324 6.324 0 0 1-.28-.552 6.324 6.324 0 0 1-.072-.16 6.324 6.324 0 0 1-.218-.615 6.324 6.324 0 0 1 0-.001 6.324 6.324 0 0 1-.043-.136 6.324 6.324 0 0 1-.147-.687 6.324 6.324 0 0 1-.017-.092 6.324 6.324 0 0 1 0-.001 6.324 6.324 0 0 1-.065-.793 6.324 6.324 0 0 0-.007.109 6.324 6.324 0 0 0 6.324 6.324 6.324 6.324 0 0 0 6.325-6.324 6.324 6.324 0 0 0-.003-.159z" fill="#fff" fill-opacity=".01"/></g><g opacity=".5" stroke-width=".265" color="#000"><path d="M8.41 2.117a6.35 6.35 0 0 0-1.607.221.661.661 0 0 0 .022.09A2.91 2.91 0 0 1 2.718 5.91a.661.661 0 0 0-.053-.024 6.35 6.35 0 0 0-.539 2.225.661.661 0 0 0 .166-.007c.03.076.035.146.098.223.128.155.316.25.46.288a.884.884 0 0 0 .57-.043c.096-.044.124-.108.185-.167.057.08.087.16.197.226a.89.89 0 0 0 .572.105.932.932 0 0 0 .489-.238c.054-.053.057-.104.091-.16.067.051.102.112.202.145.094.03.167-.008.259-.012-.032.099-.093.191-.08.295l.037.279a.711.711 0 0 0 .27.47.661.661 0 0 0 .001 0c.088.067.13.05.202.07-.028.061-.088.101-.098.17h.002c-.024.182.021.371.139.524l.171.225a.713.713 0 0 0 .47.271c.108.015.137-.023.21-.042.007.067-.024.133.002.197.067.16.202.31.383.384l.26.108c.18.075.376.07.543 0 .1-.041.105-.088.158-.14.037.052.043.118.094.16-.007.012-.027.023-.033.035a.891.891 0 0 0-.073.576c.029.117.092.166.147.242-.06.032-.113.035-.17.088a.892.892 0 0 0-.184 1.047c.058.107.134.137.207.197-.054.05-.11.072-.154.147a.93.93 0 0 0-.115.529.9.9 0 0 0 .212.497 6.35 6.35 0 0 0 .45.016 6.35 6.35 0 0 0 2.023-.33.661.661 0 0 0-.006-.019c-.198-.595-.248-1.169.094-2.054.056-.143.116-.25.162-.31a.661.661 0 0 0 .04-.056 2.92 2.92 0 0 1 1.478-1.207.661.661 0 0 0 .072-.031c.003-.002.097-.037.217-.06a.661.661 0 0 0 .033-.009 2.922 2.922 0 0 1 .553-.082c.399-.018.797.047 1.17.19a.661.661 0 0 0 .045.015 6.35 6.35 0 0 0 .47-2.384.661.661 0 0 0-.376.076c-.044-.084-.059-.163-.15-.242a.893.893 0 0 0-.547-.2.661.661 0 0 0-.084.006.911.911 0 0 0-.434.15c-.06.042-.07.091-.111.14-.06-.068-.09-.138-.192-.19a.891.891 0 0 0-1.045.21c-.05.058-.05.11-.08.169-.073-.048-.113-.106-.219-.13-.043-.011-.072.017-.115.015.022-.076.066-.142.06-.223v-.002c0-.015.014-.026.012-.041v-.002l-.037-.278a.722.722 0 0 0-.27-.468h-.001c-.065-.05-.1-.031-.16-.053l.005-.008.04-.117.011-.062a.711.711 0 0 0-.129-.479l.016.018-.016-.022c-.008-.013-.002-.03-.011-.043l-.17-.222a.715.715 0 0 0-.471-.272c-.079-.01-.102.025-.164.036v-.01l-.025-.122-.022-.062a.722.722 0 0 0-.348-.347l.037.015-.02-.01-.017-.006-.001-.002c-.015-.007-.018-.027-.034-.033l-.26-.107a.661.661 0 0 0-.001 0 .715.715 0 0 0-.541 0c-.023.01-.022.024-.042.035a.88.88 0 0 0 .026-.479c-.02-.071-.063-.1-.094-.156.091-.036.177-.044.268-.133a.894.894 0 0 0 .142-1.048c-.038-.069-.09-.086-.137-.135.07-.053.14-.074.2-.166a.89.89 0 0 0-.098-1.05c-.106-.116-.222-.161-.328-.204a.661.661 0 0 0 .004-.094 6.35 6.35 0 0 0-.422-.014 6.35 6.35 0 0 0-.055 0zm3.115 6.143.006.045c.001.03 0 .017-.003-.022l-.003-.023zM9.552 5.647h.01l.101.02-.11-.02zm1.272.941.01.004.072.062-.083-.066zm-2.387.933c.545 0 .973.428.973.973a.963.963 0 0 1-.973.973.962.962 0 0 1-.973-.973c0-.545.427-.973.973-.973zm3.021.516.004.008.031.09-.035-.098z" opacity=".1" style="font-feature-settings:normal;font-variant-alternates:normal;font-variant-caps:normal;font-variant-east-asian:normal;font-variant-ligatures:normal;font-variant-numeric:normal;font-variant-position:normal;font-variation-settings:normal;inline-size:0;isolation:auto;mix-blend-mode:normal;shape-margin:0;shape-padding:0;text-decoration-color:#000;text-decoration-line:none;text-decoration-style:solid;text-indent:0;text-orientation:mixed;text-transform:none;white-space:normal" transform="translate(-.018) scale(3.7796)"/><path d="M8.41 2.117a6.35 6.35 0 0 0-1.477.188.53.53 0 0 0 .02.082 3.046 3.046 0 0 1-4.297 3.64.53.53 0 0 0-.044-.02 6.35 6.35 0 0 0-.476 1.971.53.53 0 0 0 .229-.03c.024.094.044.195.126.294.109.132.266.21.393.245.126.033.318.04.483-.036.127-.059.188-.147.25-.228.05.098.114.21.254.295a.753.753 0 0 0 .898-.116c.083-.081.108-.167.142-.252.071.077.147.16.286.205.136.045.265.012.38-.017a.584.584 0 0 0-.11.41l.036.28a.53.53 0 0 0 0 .001c.02.152.1.288.22.381.13.1.235.1.306.102-.064.08-.135.155-.149.261a.575.575 0 0 0 .113.426l.172.225a.58.58 0 0 0 .381.22v-.001c.16.021.252-.03.315-.063-.015.1-.038.203.002.299a.586.586 0 0 0 .312.312l.26.108c.146.06.305.056.441 0 .149-.062.2-.15.239-.211.037.094.067.194.152.26a.53.53 0 0 0 0 .002c.038.029.094.018.139.037-.046.053-.117.098-.143.15a.743.743 0 0 0-.063.484.678.678 0 0 0 .2.327c-.087.03-.174.05-.26.13a.792.792 0 0 0-.22.407.747.747 0 0 0 .063.482.67.67 0 0 0 .274.262c-.078.054-.161.104-.224.21a.79.79 0 0 0-.098.452.53.53 0 0 0 0 .002c.01.13.068.31.195.44.03.03.061.056.093.079a6.35 6.35 0 0 0 .244.005 6.35 6.35 0 0 0 1.896-.29.53.53 0 0 0-.006-.019c-.206-.618-.257-1.231.095-2.142.059-.152.126-.272.182-.344a.53.53 0 0 0 .031-.045 3.056 3.056 0 0 1 1.547-1.262.53.53 0 0 0 .057-.025c.022-.012.124-.048.25-.073a.53.53 0 0 0 .027-.005 3.034 3.034 0 0 1 1.804.111.53.53 0 0 0 .046.014 6.35 6.35 0 0 0 .418-2.124.53.53 0 0 0-.41.127.673.673 0 0 0-.2-.328.747.747 0 0 0-.46-.166.53.53 0 0 0-.074.005.774.774 0 0 0-.368.128c-.092.065-.128.143-.176.219a.66.66 0 0 0-.261-.262.748.748 0 0 0-.486-.053.79.79 0 0 0-.401.233c-.078.088-.097.176-.125.263-.077-.07-.16-.15-.305-.183-.092-.022-.162.018-.248.033a.58.58 0 0 0 .094-.35.552.552 0 0 1 .004.014l-.004-.02c0-.014.013-.024.011-.038v-.003l-.036-.277a.588.588 0 0 0-.221-.383c-.109-.082-.191-.079-.27-.086a.53.53 0 0 0 .06-.11l.014-.02.032-.094.01-.051a.574.574 0 0 0-.102-.381v-.002c-.009-.013-.002-.03-.012-.043a.53.53 0 0 0-.002 0l-.17-.224a.581.581 0 0 0-.383-.22c-.132-.019-.205.024-.279.057a.53.53 0 0 0 0-.123l.002-.027-.021-.098-.018-.048a.586.586 0 0 0-.277-.278c.006.003.009.002.014.004l-.016-.006c-.014-.007-.017-.025-.031-.031l-.26-.107a.585.585 0 0 0-.442 0c-.12.05-.166.124-.215.191a.53.53 0 0 0-.062-.105 1.237 1.237 0 0 1-.01-.024l-.023-.027c.024-.041.078-.076.092-.113a.791.791 0 0 0 .025-.455c-.03-.11-.091-.172-.147-.243a.692.692 0 0 0 .356-.176.75.75 0 0 0 .207-.44.789.789 0 0 0-.088-.448c-.057-.103-.136-.151-.21-.207a.65.65 0 0 0 .276-.228.747.747 0 0 0 .102-.471.794.794 0 0 0-.185-.42.794.794 0 0 0-.356-.221c-.008-.003-.015-.002-.023-.004a.53.53 0 0 0 .018-.17 6.35 6.35 0 0 0-.287-.006 6.35 6.35 0 0 0-.056 0zm.027 5.272c.616 0 1.105.489 1.105 1.106 0 .616-.489 1.105-1.105 1.105A1.097 1.097 0 0 1 7.33 8.495c0-.617.489-1.106 1.106-1.106zm3.41 2.332c-.006.002-.01.01-.016.012-.014.006-.027.006-.04.013zm-2.049 1.654c-.007.01-.01.022-.017.031-.004.006-.013.008-.016.014l.033-.045z" opacity=".1" style="font-feature-settings:normal;font-variant-alternates:normal;font-variant-caps:normal;font-variant-east-asian:normal;font-variant-ligatures:normal;font-variant-numeric:normal;font-variant-position:normal;font-variation-settings:normal;inline-size:0;isolation:auto;mix-blend-mode:normal;shape-margin:0;shape-padding:0;text-decoration-color:#000;text-decoration-line:none;text-decoration-style:solid;text-indent:0;text-orientation:mixed;text-transform:none;white-space:normal" transform="translate(-.018) scale(3.7796)"/><path d="M8.41 2.117a6.35 6.35 0 0 0-1.349.157.397.397 0 0 0 .016.072 3.178 3.178 0 0 1-2.838 4.15v-.002a3.186 3.186 0 0 1-1.644-.35.397.397 0 0 0-.032-.014 6.35 6.35 0 0 0-.416 1.717.397.397 0 0 0 .306-.107c.002.03-.003.061.002.092.015.098.05.217.138.324a.652.652 0 0 0 .326.204.598.598 0 0 0 .39-.028.624.624 0 0 0 .268-.246c.03-.048.044-.113.067-.162.019.06.029.141.056.2a.627.627 0 0 0 .24.28c.128.078.284.09.394.073a.65.65 0 0 0 .343-.168A.668.668 0 0 0 4.85 8c.01-.04.009-.085.016-.125.026.042.046.1.078.14.063.08.155.17.294.216.14.045.293.021.395-.02a.703.703 0 0 0 .242-.193c.026.02.054.07.07.08l.075.043-.014.086-.031.007a.45.45 0 0 0-.375.499l.035.279a.443.443 0 0 0 .17.293.397.397 0 0 0 0 .002c.117.09.228.09.276.09h.091c.01.025.02.049.032.074l-.055.053.027-.022a.443.443 0 0 0-.076.617l.172.223a.445.445 0 0 0 .576.113l.078-.045c.022.017.044.035.067.051l-.01.035a.449.449 0 0 0 .004.332.45.45 0 0 0 .24.24l.26.11a.442.442 0 0 0 .556-.193l.043-.073c.029.005.057.009.086.012l.008.033a.452.452 0 0 0 .168.287.397.397 0 0 0 .002 0c.08.062.186.083.293.079a.652.652 0 0 0-.26.273.601.601 0 0 0-.053.394c.035.144.12.243.194.313.044.04.111.07.158.103-.043.006-.092.002-.137.012-.096.022-.213.064-.314.158s-.16.224-.182.334a.604.604 0 0 0 .053.393c.07.13.174.204.263.252.053.028.124.04.178.06-.043.019-.095.029-.139.053a.667.667 0 0 0-.257.24.647.647 0 0 0-.078.373c.009.11.056.256.158.36a.62.62 0 0 0 .32.168c.021.004.044.004.066.006a6.35 6.35 0 0 0 1.624-.25.397.397 0 0 0-.004-.016c-.213-.64-.265-1.297.097-2.233.062-.16.135-.288.201-.374a.397.397 0 0 0 .024-.036 3.18 3.18 0 0 1 1.611-1.314.397.397 0 0 0 .043-.02c.042-.02.153-.057.286-.083a.397.397 0 0 0 .02-.005c.096-.024.192-.045.29-.06a3.188 3.188 0 0 1 1.594.176.397.397 0 0 0 .044.014 6.35 6.35 0 0 0 .368-1.869.397.397 0 0 0-.336.11c-.061.06-.095.14-.139.202-.009-.071-.007-.16-.027-.23a.621.621 0 0 0-.19-.315.6.6 0 0 0-.374-.133.397.397 0 0 0-.002 0h-.003a.397.397 0 0 0-.103.014.597.597 0 0 0-.26.094.663.663 0 0 0-.218.275c-.018.038-.022.082-.036.119-.02-.05-.033-.117-.06-.166a.624.624 0 0 0-.258-.262.607.607 0 0 0-.397-.04.648.648 0 0 0-.331.19.666.666 0 0 0-.149.32c-.008.042-.002.085-.006.124-.03-.04-.055-.096-.09-.133-.07-.074-.168-.157-.312-.191s-.296.004-.395.055c-.057.029-.102.098-.156.152-.014-.01-.032-.04-.043-.047l-.07-.04.011-.081.086-.026a.397.397 0 0 0 .13-.066l.023-.01.056-.05.026-.03a.456.456 0 0 0 .076-.283v-.004c0-.015.013-.026.012-.041V8.25l-.038-.278a.451.451 0 0 0-.17-.294.437.437 0 0 0-.283-.092l-.084.002c-.01-.024-.018-.048-.029-.072l.067-.07a.397.397 0 0 0 .078-.12l.015-.023.023-.07.009-.04a.443.443 0 0 0-.077-.283v-.002c-.008-.013-.002-.03-.012-.043l-.171-.224a.448.448 0 0 0-.293-.17h-.002a.448.448 0 0 0-.291.062l-.07.043-.063-.047.023-.095a.397.397 0 0 0 .006-.145l.003-.025L9.9 6.19s-.008-.029-.012-.038a.457.457 0 0 0-.207-.207l-.002-.002c-.014-.007-.016-.025-.031-.03l-.26-.108a.45.45 0 0 0-.34 0 .449.449 0 0 0-.22.2l-.04.07-.082-.01-.025-.088a.397.397 0 0 0-.068-.132l-.01-.02-.05-.055-.03-.026c-.004-.003-.01-.001-.014-.004.053-.062.123-.119.145-.18a.646.646 0 0 0 .021-.374.665.665 0 0 0-.18-.3c-.034-.033-.078-.055-.113-.083.065-.003.145.009.211-.004.1-.019.223-.06.328-.162a.598.598 0 0 0 .166-.358.65.65 0 0 0-.07-.37.664.664 0 0 0-.25-.245c-.042-.025-.09-.036-.131-.055.053-.015.12-.019.172-.042a.622.622 0 0 0 .28-.23.603.603 0 0 0 .081-.384.647.647 0 0 0-.152-.346.666.666 0 0 0-.299-.183c-.058-.019-.122-.02-.178-.03a.397.397 0 0 0 .082-.275 6.35 6.35 0 0 0-.155-.002 6.35 6.35 0 0 0-.056 0zm2.853 6.18.002.021c0 .018.002.008 0-.015l-.002-.006zM3.185 7.053l.02.004a.397.397 0 0 0-.013.01.397.397 0 0 0-.007-.014zm5.252.203c.688 0 1.236.55 1.236 1.238A1.23 1.23 0 0 1 8.437 9.73a1.231 1.231 0 0 1-1.239-1.236c0-.688.55-1.238 1.239-1.238zm2.785.9.004.006.017.05-.021-.056zM6.454 9.764h.006l-.006.002zm5.438.082c-.005.001-.007.008-.012.01-.01.004-.021.004-.031.01zm-.229.154a.397.397 0 0 0 .025.012c-.015.007-.023.024-.038.031a.397.397 0 0 0 .013-.043zm-.447.397a3.884 3.884 0 0 0-.693.566c.05-.052.097-.106.15-.155a.397.397 0 0 0 .127-.289.397.397 0 0 0 .309-.058c.034-.023.072-.042.107-.064zm-2.147.831c.011.015.027.028.038.041-.026-.003-.054-.013-.08-.015.016-.006.027-.018.042-.026zm1.125.005c-.024.031-.068.04-.091.073a.397.397 0 0 0-.01-.058.397.397 0 0 0 .102-.015zm-.293.222c-.006.009-.009.02-.015.03l-.008.005.023-.035zm-.53 1.639-.003.015a.397.397 0 0 0-.008-.007.397.397 0 0 0 .01-.008z" opacity=".1" style="font-feature-settings:normal;font-variant-alternates:normal;font-variant-caps:normal;font-variant-east-asian:normal;font-variant-ligatures:normal;font-variant-numeric:normal;font-variant-position:normal;font-variation-settings:normal;inline-size:0;isolation:auto;mix-blend-mode:normal;shape-margin:0;shape-padding:0;text-decoration-color:#000;text-decoration-line:none;text-decoration-style:solid;text-indent:0;text-orientation:mixed;text-transform:none;white-space:normal" transform="translate(-.018) scale(3.7796)"/><path d="M8.41 2.117a6.35 6.35 0 0 0-1.218.129.265.265 0 0 0 .012.06 3.312 3.312 0 0 1-4.67 3.957.265.265 0 0 0-.02-.008 6.35 6.35 0 0 0-.352 1.46.265.265 0 0 0 .224-.097c.042-.054.096-.132.144-.2l.049.018c-.003.13-.012.263.006.375a.533.533 0 0 0 .11.261.51.51 0 0 0 .257.16.46.46 0 0 0 .303-.02.492.492 0 0 0 .21-.196c.059-.096.1-.234.145-.362l.096.009c.034.145.065.298.115.406.038.08.092.165.188.224a.458.458 0 0 0 .303.053.505.505 0 0 0 .271-.131.535.535 0 0 0 .137-.248c.029-.107.035-.239.045-.363l.09-.018c.061.124.12.259.191.348a.493.493 0 0 0 .233.17.508.508 0 0 0 .541-.203c.04-.063.045-.128.054-.192 0 .041-.015.083 0 .121a.312.312 0 0 0 .137.154l.15.086c-.016.088-.03.175-.037.264l-.13.031a.319.319 0 0 0-.204.12.316.316 0 0 0-.06.23l.035.28a.313.313 0 0 0 .314.271h.178c.029.082.063.161.102.24l-.12.113.018-.013a.312.312 0 0 0-.053.434l.17.222a.316.316 0 0 0 .207.12c.1.013.167-.024.2-.042a.265.265 0 0 0 .001 0l.15-.086c.068.057.138.109.212.158l-.045.155.007-.022a.313.313 0 0 0 0 .233.265.265 0 0 0 0 .002c.03.07.09.135.17.168l.26.107a.31.31 0 0 0 .39-.137l.087-.148c.087.016.174.033.263.04l.037.151-.003-.023c.011.076.053.15.119.2a.311.311 0 0 0 .23.063l.28-.037a.311.311 0 0 0 .179-.103c.007.012.008.031.016.043.063.093.162.185.252.277l-.039.068c-.123-.028-.25-.063-.362-.068a.537.537 0 0 0-.279.055.508.508 0 0 0-.207.22.456.456 0 0 0-.04.303c.026.11.09.187.154.246.086.08.221.154.347.229a4.508 4.508 0 0 0-.021.084c-.126.005-.257.005-.366.029a.534.534 0 0 0-.253.125.508.508 0 0 0-.143.266.46.46 0 0 0 .039.302.492.492 0 0 0 .21.198c.103.055.25.09.388.128v.087c-.12.04-.248.076-.346.13a.53.53 0 0 0-.207.192.509.509 0 0 0-.063.295c.008.09.045.199.122.277.077.079.17.113.253.131.11.024.253.016.387.016l.028.1a6.35 6.35 0 0 0 1.121-.194.265.265 0 0 0-.002-.008c-.22-.662-.272-1.361.1-2.322.065-.17.141-.311.218-.41a.265.265 0 0 0 .015-.022 3.319 3.319 0 0 1 1.68-1.371.265.265 0 0 0 .03-.012c.06-.03.179-.068.318-.096a.265.265 0 0 0 .014-.003c.1-.026.2-.047.302-.063a3.31 3.31 0 0 1 1.66.184.265.265 0 0 0 .042.011 6.35 6.35 0 0 0 .317-1.61.265.265 0 0 0-.235.071c-.095.094-.168.227-.247.356-.031-.008-.062-.018-.093-.025-.01-.148-.015-.302-.047-.416a.493.493 0 0 0-.149-.25.461.461 0 0 0-.29-.102.265.265 0 0 0-.071.009.474.474 0 0 0-.219.075.533.533 0 0 0-.176.22c-.045.1-.071.226-.1.344-.03 0-.06.003-.089.004-.043-.138-.083-.283-.14-.385a.493.493 0 0 0-.204-.206.458.458 0 0 0-.304-.032.51.51 0 0 0-.264.15.533.533 0 0 0-.117.258c-.021.11-.018.244-.02.371l-.078.022c-.073-.121-.145-.252-.225-.336a.5.5 0 0 0-.248-.154.458.458 0 0 0-.302.043.508.508 0 0 0-.221.21v.007a.466.466 0 0 0-.103-.114l-.149-.082c.016-.085.03-.17.037-.258l.166-.048a.265.265 0 0 0 .092-.047.39.39 0 0 0 .02-.01l.037-.033.017-.02a.265.265 0 0 0 0-.002.318.318 0 0 0 .05-.183V8.31c.001-.015.015-.026.013-.041v-.002l-.037-.28a.312.312 0 0 0-.32-.27l-.172.003a2.33 2.33 0 0 0-.098-.235l.125-.132a.265.265 0 0 0 .054-.088l.014-.018.016-.047.004-.025a.31.31 0 0 0-.05-.19c-.006-.012-.002-.029-.011-.04l-.172-.223a.312.312 0 0 0-.205-.121.316.316 0 0 0-.207.045l-.146.087a2.32 2.32 0 0 0-.203-.154l.042-.177a.265.265 0 0 0 .005-.1l.001-.025-.01-.05-.01-.025a.32.32 0 0 0-.125-.13c.01.005.005 0-.01-.007l-.003-.001c-.013-.008-.016-.024-.03-.03l-.259-.107a.315.315 0 0 0-.395.14l-.083.15a2.33 2.33 0 0 0-.256-.036l-.05-.168a.265.265 0 0 0-.044-.084l-.012-.028-.033-.037-.021-.017c-.052-.04-.121-.048-.188-.049l.01-.002H8.25c-.008 0-.015-.003-.022-.006a.307.307 0 0 0 .11-.037.461.461 0 0 0 .192-.238.509.509 0 0 0 .017-.297.531.531 0 0 0-.147-.238c-.074-.074-.18-.137-.275-.201l.035-.102c.143.004.294.012.408-.01a.49.49 0 0 0 .26-.125.46.46 0 0 0 .127-.277.509.509 0 0 0-.054-.293.533.533 0 0 0-.201-.195c-.093-.055-.213-.091-.325-.131l.008-.108c.13-.026.27-.048.37-.094a.487.487 0 0 0 .222-.179.463.463 0 0 0 .06-.297.502.502 0 0 0-.117-.273.534.534 0 0 0-.24-.147c-.105-.033-.235-.042-.358-.057l-.015-.082.047-.025a.265.265 0 0 0 .136-.268 6.35 6.35 0 0 0-.023 0 6.35 6.35 0 0 0-.055 0zm-.633.342c.022.1.046.2.06.301a.265.265 0 0 0 .002.008c-.022-.103-.048-.205-.072-.307l.01-.002zm.065.324a.265.265 0 0 0 .221.203l.233.033c-.075.018-.099.03-.213.052a.265.265 0 0 0-.197.164c0-.05.003-.098 0-.149a.265.265 0 0 0 0-.002 2.12 2.12 0 0 0-.044-.301zm-.006 1.049a.265.265 0 0 0 .173.236c.11.04.139.055.211.083-.082 0-.112.006-.238.002a.265.265 0 0 0-.262.19l-.016.046c.054-.182.098-.368.132-.557zm-.272.955a.265.265 0 0 0 .097.309c.095.064.12.085.182.129-.08-.02-.11-.022-.232-.057a.265.265 0 0 0-.3.115l-.017.025a3.9 3.9 0 0 0 .27-.52zm-.5.857a.265.265 0 0 0 .007.313c.074.095.094.123.141.186-.066-.041-.093-.05-.191-.116a.265.265 0 0 0-.303.007c.124-.122.24-.252.346-.39zm.59.075c.135.038.273.082.386.09l-.107.013a.313.313 0 0 0-.205.121c-.003.004-.001.006-.004.01a2.877 2.877 0 0 0-.12-.162l.05-.072zm-1.324.649a.265.265 0 0 0-.063.298c.05.117.064.153.095.229-.057-.06-.083-.078-.17-.174a.265.265 0 0 0-.29-.07c.15-.085.292-.18.428-.283zm1.853.208a.265.265 0 0 0 .095.084c-.06.006-.119.02-.178.03a.265.265 0 0 0 .083-.114zm.992.13a.265.265 0 0 0 .137.208c.047.026.082.066.127.096a1.84 1.84 0 0 0-.66-.274c.05.01.103.008.152.022a.265.265 0 0 0 .244-.053zM2.611 6.8c.387.16.787.292 1.198.34a4.007 4.007 0 0 1-.337-.026.265.265 0 0 0-.283.178c-.039.113-.054.136-.082.21 0-.084-.003-.123-.002-.253a.265.265 0 0 0-.192-.258c-.109-.031-.214-.072-.32-.113.007-.026.01-.052.018-.078zm2.931.02c-.022.01-.043.021-.066.03a.265.265 0 0 0-.162.28l.03.25c-.039-.072-.057-.094-.11-.205a.265.265 0 0 0-.26-.148c.195-.058.384-.129.568-.207zm1.711.15a.265.265 0 0 0 .13.02c-.046.032-.094.062-.138.099a.265.265 0 0 0 .008-.119zm3.105.129v.002h-.003zm-1.922.023c.76 0 1.37.612 1.37 1.371 0 .76-.61 1.37-1.37 1.37-.76 0-1.37-.61-1.37-1.37 0-.76.61-1.371 1.37-1.371zm-4.016.016a.265.265 0 0 0-.158.216c-.012.128-.018.167-.026.249-.023-.084-.038-.117-.07-.25a.265.265 0 0 0-.208-.201c.105.007.211.01.318.004a.265.265 0 0 0 .002 0c.049-.003.095-.012.142-.018zm1.52.078.078.08c-.009.015-.028.02-.035.035l-.093.223a2.606 2.606 0 0 0-.032-.3l.082-.038zm3.903.088a.265.265 0 0 0 .127.008.265.265 0 0 0-.025.134c-.033-.048-.064-.097-.102-.142zm-2.889.187c-.135.2-.225.42-.275.664.01-.05.007-.102.021-.152a.265.265 0 0 0-.049-.238.265.265 0 0 0 .198-.135c.028-.051.073-.09.105-.139zm3.284.664a.265.265 0 0 0 .114.083.265.265 0 0 0-.083.097c-.006-.062-.02-.12-.031-.18zm-3.632.502c.006.062.02.12.031.18a.265.265 0 0 0-.11-.082.265.265 0 0 0 .08-.098zm3.588.174c-.01.051-.007.104-.021.154a.265.265 0 0 0 .05.246.265.265 0 0 0-.207.135c-.025.046-.066.082-.095.125.133-.2.223-.417.273-.66zm3.502.422c.009.086.017.12.026.256a.265.265 0 0 0 .215.242c.137.026.272.06.406.101l-.016.08c-.404-.117-.815-.22-1.236-.2a3.853 3.853 0 0 0-.383.037.265.265 0 0 0-.002 0c-.115.018-.23.042-.342.07-.156.031-.3.072-.432.135A3.843 3.843 0 0 0 10 11.553c-.114.15-.21.326-.287.525-.36.933-.329 1.697-.155 2.383a5.742 5.742 0 0 1-.11.02c-.008-.034-.019-.068-.026-.102a.265.265 0 0 0-.262-.205c-.12.002-.146-.004-.225-.006.077-.028.112-.043.233-.086a.265.265 0 0 0 .178-.267 3.852 3.852 0 0 1-.008-.428.265.265 0 0 0-.193-.265c-.123-.034-.15-.05-.23-.075.082-.005.12-.009.247-.015a.265.265 0 0 0 .246-.215c.028-.142.064-.282.108-.42a.265.265 0 0 0-.12-.307c-.116-.069-.142-.092-.214-.138.081.016.121.023.25.05a.265.265 0 0 0 .292-.142c.063-.128.131-.251.208-.371a.265.265 0 0 0-.032-.325c-.09-.096-.116-.127-.174-.19.077.039.11.049.229.112a.265.265 0 0 0 .326-.06c.095-.11.196-.216.303-.315a.265.265 0 0 0 .05-.324c-.063-.114-.08-.15-.12-.223.065.055.096.074.197.164a.265.265 0 0 0 .324.024c.119-.08.242-.152.37-.219a.265.265 0 0 0 .136-.29c-.03-.138-.037-.183-.055-.269.046.072.069.097.137.211a.265.265 0 0 0 .315.114c.136-.048.275-.087.416-.12a.265.265 0 0 0 .204-.252c.004-.13.007-.169.01-.252.028.08.044.11.082.235a.265.265 0 0 0 .274.185c.147-.011.293-.015.44-.01a.265.265 0 0 0 .267-.195c.032-.122.045-.158.066-.236zm-2.753.283c.01.07.024.15.042.229l-.076.045c-.032-.03-.064-.053-.094-.078.017-.017.035-.03.047-.05a.46.46 0 0 1 .002 0l.002-.001c.007-.012.022-.017.028-.03l.049-.115zm-4.008.013c.031.046.061.093.097.136a.265.265 0 0 0-.117-.01.265.265 0 0 0 .02-.126zm2.69.35a.265.265 0 0 0-.009.126.265.265 0 0 0-.132-.024c.048-.033.097-.064.142-.101zM7.44 9.98c.199.133.417.223.66.273-.051-.01-.103-.007-.153-.021a.265.265 0 0 0-.236.046.265.265 0 0 0-.135-.195c-.05-.028-.089-.071-.136-.103zm1.34.315a.265.265 0 0 0-.078.108.265.265 0 0 0-.098-.078c.06-.006.117-.02.176-.03z" opacity=".1" style="font-feature-settings:normal;font-variant-alternates:normal;font-variant-caps:normal;font-variant-east-asian:normal;font-variant-ligatures:normal;font-variant-numeric:normal;font-variant-position:normal;font-variation-settings:normal;inline-size:0;isolation:auto;mix-blend-mode:normal;shape-margin:0;shape-padding:0;text-decoration-color:#000;text-decoration-line:none;text-decoration-style:solid;text-indent:0;text-orientation:mixed;text-transform:none;white-space:normal" transform="translate(-.018) scale(3.7796)"/><path d="M8.354 2.118a6.35 6.35 0 0 0-1.031.103.132.132 0 0 0 .006.045c.089.274.144.556.162.843a3.448 3.448 0 0 1-3.236 3.65 3.452 3.452 0 0 1-1.781-.378.132.132 0 0 0-.004-.002 6.35 6.35 0 0 0-.291 1.203.132.132 0 0 0 .104-.047c.056-.07.125-.17.199-.275.075.028.151.058.228.082-.003.176-.013.332.006.45.011.07.034.139.082.197a.364.364 0 0 0 .19.115c.067.018.145.02.212-.012s.115-.086.153-.146c.061-.099.112-.255.172-.428.094.01.188.016.283.02.045.195.081.365.133.476a.365.365 0 0 0 .136.166c.065.04.143.046.213.035a.368.368 0 0 0 .202-.094.407.407 0 0 0 .101-.19c.03-.112.038-.266.053-.438.093-.015.187-.032.28-.053.08.168.15.32.224.412a.364.364 0 0 0 .17.127.315.315 0 0 0 .212-.014.367.367 0 0 0 .176-.137.406.406 0 0 0 .057-.207c.004-.118-.023-.271-.047-.445.084-.037.168-.077.25-.12.088.099.162.17.23.233a.182.182 0 0 0-.093.094l-.108.26a.18.18 0 0 0 .08.226L6.303 8a2.202 2.202 0 0 0-.06.442l-.229.054-.004.002a.182.182 0 0 0-.113.067.182.182 0 0 0-.035.133l.037.279a.18.18 0 0 0 .181.156l.266.002c.043.14.1.275.17.404l-.176.17a.18.18 0 0 0-.031.248l.172.225a.181.181 0 0 0 .236.043l.227-.13c.108.102.227.19.353.267l-.066.23a.186.186 0 0 0 0 .136.18.18 0 0 0 .098.097l.259.109v-.003c.046.02.095.02.137.003a.186.186 0 0 0 .09-.083l.13-.224c.145.034.293.059.442.063l.055.228a.18.18 0 0 0 .068.115.18.18 0 0 0 .133.038l.28-.038a.18.18 0 0 0 .155-.183v-.264c.138-.043.272-.098.399-.166l.064.06c-.048-.007-.097-.019-.146-.003a.317.317 0 0 0-.166.138.361.361 0 0 0-.06.213.404.404 0 0 0 .075.201c.067.098.18.21.303.337a4.24 4.24 0 0 0-.129.23c-.17-.038-.32-.079-.437-.084a.405.405 0 0 0-.211.04.364.364 0 0 0-.15.163c-.032.063-.05.14-.032.213s.062.132.115.182c.089.082.239.167.408.267a4.273 4.273 0 0 0-.068.266c-.172.006-.325.008-.44.033a.409.409 0 0 0-.193.094.363.363 0 0 0-.101.195.316.316 0 0 0 .025.213c.036.066.093.11.156.145.105.056.269.099.453.15 0 .09 0 .18.005.27-.165.055-.312.099-.414.156a.406.406 0 0 0-.159.144.367.367 0 0 0-.043.217c.006.07.03.142.082.195.052.053.12.079.19.094.114.024.276.02.459.017.019.073.04.145.06.216a6.35 6.35 0 0 0 .86-.149c-.228-.685-.28-1.426.101-2.412.07-.178.15-.328.237-.441a.132.132 0 0 0 .01-.012 3.45 3.45 0 0 1 1.746-1.426.132.132 0 0 0 .013-.006c.08-.04.208-.078.353-.107a.132.132 0 0 0 .007-.002c.104-.027.21-.048.316-.065a3.452 3.452 0 0 1 1.727.192.132.132 0 0 0 .035.008 6.35 6.35 0 0 0 .266-1.35.132.132 0 0 0-.134.031c-.093.092-.175.241-.28.412a4.275 4.275 0 0 0-.27-.068c-.013-.199-.021-.371-.055-.488a.365.365 0 0 0-.107-.186.319.319 0 0 0-.205-.07.132.132 0 0 0-.033.004.353.353 0 0 0-.18.056.401.401 0 0 0-.131.168c-.048.105-.081.256-.123.42a4.198 4.198 0 0 0-.28.008c-.057-.187-.104-.35-.163-.455-.036-.063-.082-.12-.15-.155s-.145-.035-.214-.019a.367.367 0 0 0-.193.11.403.403 0 0 0-.088.195c-.023.115-.02.27-.022.445a4.293 4.293 0 0 0-.26.076c-.099-.166-.183-.313-.265-.4a.368.368 0 0 0-.181-.115.317.317 0 0 0-.213.033c-.068.035-.13.085-.165.152s-.041.142-.037.215c.007.12.047.274.088.451-.08.044-.158.09-.234.139a2.974 2.974 0 0 0-.323-.264.132.132 0 0 0 .036 0 .407.407 0 0 0 .027.002l.025-.006.012-.003c.028-.012.047-.04.066-.065l.002-.004c.001 0 .002 0 .003-.002.007-.01.022-.015.027-.027l.107-.26a.178.178 0 0 0-.084-.228l-.226-.125c.033-.142.056-.286.06-.432l.248-.074a.132.132 0 0 0 .051-.03h.002l.018-.008.02-.015.007-.012c.018-.024.02-.057.025-.088v-.005c.002-.014.014-.025.012-.04l-.037-.279a.181.181 0 0 0-.068-.117.186.186 0 0 0-.12-.037l-.26.004a2.214 2.214 0 0 0-.165-.399l.183-.193a.132.132 0 0 0 .03-.049.132.132 0 0 0 .002-.004l.011-.016.008-.023.002-.014c.005-.032-.012-.061-.025-.091v-.002c-.006-.013-.001-.028-.01-.04l-.172-.222a.183.183 0 0 0-.117-.07.185.185 0 0 0-.121.027l-.223.135a2.195 2.195 0 0 0-.344-.264l.063-.26a.132.132 0 0 0 .002-.052l.002-.026-.006-.025-.004-.014c-.011-.027-.04-.045-.064-.064l-.005-.002c0-.001.002 0-.002-.002-.01-.008-.013-.022-.026-.028l-.26-.11a.186.186 0 0 0-.14 0 .183.183 0 0 0-.089.085l-.127.228A2.197 2.197 0 0 0 8.5 6.3l-.073-.246a.132.132 0 0 0-.024-.045.554.554 0 0 0-.013-.027l-.018-.018s-.006-.008-.01-.01c-.025-.02-.06-.022-.093-.025h-.002c-.013-.001-.024-.012-.037-.01l-.28.037a.18.18 0 0 0-.156.186l.006.26c-.03.009-.055.025-.084.035.012-.03.034-.057.035-.09A.402.402 0 0 0 7.7 6.14c-.054-.102-.152-.219-.256-.35.053-.072.105-.145.154-.22.185.052.347.102.467.109a.363.363 0 0 0 .209-.041.315.315 0 0 0 .133-.168.365.365 0 0 0 .015-.217.402.402 0 0 0-.111-.18c-.08-.08-.207-.156-.342-.246.037-.092.07-.186.1-.28.192.005.36.014.477-.009.07-.013.14-.04.193-.092a.314.314 0 0 0 .086-.195.366.366 0 0 0-.04-.215.4.4 0 0 0-.152-.146c-.098-.058-.24-.103-.394-.158.01-.1.018-.2.021-.3.177-.034.336-.062.442-.109.064-.029.124-.068.163-.13s.05-.139.042-.208c-.01-.074-.037-.148-.087-.203s-.114-.086-.18-.107c-.111-.035-.262-.048-.429-.068a4.267 4.267 0 0 0-.052-.27l.132-.07a.132.132 0 0 0 .064-.15zm-.47.199c.036.14.064.282.084.425a.132.132 0 0 0 .113.112c.232.03.395.048.477.074.04.013.058.024.066.033.008.009.015.02.02.057.003.029 0 .03-.002.033-.002.003-.011.014-.049.031-.075.034-.24.07-.485.117a.132.132 0 0 0-.107.13 3.978 3.978 0 0 1-.031.474.132.132 0 0 0 .084.142c.217.08.372.131.445.174.037.022.049.037.055.047.005.01.011.023.008.06-.003.03-.008.03-.01.032-.002.002-.015.013-.057.021-.084.016-.26.013-.517.004a.132.132 0 0 0-.131.096 4.034 4.034 0 0 1-.158.448.132.132 0 0 0 .048.16c.19.13.325.217.385.277.03.03.04.047.043.059.003.011.005.023-.008.058-.01.028-.014.028-.017.03-.003.001-.018.008-.06.005-.086-.005-.256-.05-.505-.12a.132.132 0 0 0-.15.056 3.999 3.999 0 0 1-.248.361.132.132 0 0 0 0 .164c.143.185.247.31.287.387.02.038.024.057.023.068 0 .012-.004.025-.027.055-.018.023-.02.023-.023.023-.003.001-.02.001-.059-.014-.078-.029-.22-.12-.43-.259a.132.132 0 0 0-.166.016c-.111.108-.23.21-.353.304a.132.132 0 0 0-.041.156c.095.222.168.374.19.46.01.042.007.064.003.076s-.009.023-.039.046c-.024.019-.026.016-.03.016-.002 0-.02-.002-.054-.027-.07-.05-.19-.18-.363-.375a.132.132 0 0 0-.162-.028 4.02 4.02 0 0 1-.406.194.132.132 0 0 0-.082.139c.03.241.06.408.056.497-.002.045-.011.065-.018.075-.006.01-.013.02-.048.035-.028.01-.03.006-.033.006-.003-.001-.019-.008-.045-.041-.053-.067-.131-.22-.243-.451a.132.132 0 0 0-.152-.073c-.15.038-.3.068-.453.088a.132.132 0 0 0-.115.12c-.023.24-.034.408-.057.494-.011.042-.023.06-.031.068-.009.008-.019.015-.057.021-.03.005-.03.002-.033 0-.002-.001-.016-.012-.035-.052-.038-.08-.082-.256-.143-.518a.132.132 0 0 0-.127-.103 4.015 4.015 0 0 1-.457-.033.132.132 0 0 0-.14.087c-.082.24-.142.402-.186.473-.022.035-.036.043-.039.045-.003 0-.005.004-.033-.004-.038-.01-.047-.018-.055-.027-.007-.01-.016-.029-.023-.073-.015-.088-.008-.257-.006-.5a.132.132 0 0 0-.096-.127 4.038 4.038 0 0 1-.442-.158c.027-.105.045-.211.077-.314.552.255 1.15.41 1.76.375a3.716 3.716 0 0 0 3.484-3.93 3.712 3.712 0 0 0-.143-.752c.09-.012.182-.017.272-.025zm.309 3.873.08.271a.132.132 0 0 0 .13.096l.033-.002c.18 0 .359.026.532.076a.132.132 0 0 0 .152-.062l.137-.246.119.05-.066.278a.132.132 0 0 0 .064.146c.168.093.322.21.455.348a.132.132 0 0 0 .162.021l.239-.142.08.103-.198.209a.132.132 0 0 0-.017.158c.098.164.174.342.22.528a.132.132 0 0 0 .13.1l.277-.005.018.131-.272.08a.132.132 0 0 0-.094.133l.002.037a1.934 1.934 0 0 1-.076.526.132.132 0 0 0 .062.152l.245.135-.051.123-.277-.067a.132.132 0 0 0-.147.065 1.934 1.934 0 0 1-.346.455.132.132 0 0 0-.02.162l.14.236-.104.08-.207-.195a.132.132 0 0 0-.158-.018c-.163.098-.34.173-.523.22a.132.132 0 0 0-.1.126l-.002.282-.129.017-.065-.265a.132.132 0 0 0-.134-.1l-.047.002c-.179 0-.356-.027-.528-.076a.132.132 0 0 0-.15.06l-.138.24-.122-.048.077-.258a.132.132 0 0 0-.065-.155 1.938 1.938 0 0 1-.465-.351.132.132 0 0 0-.16-.023l-.24.138-.08-.103.197-.188a.132.132 0 0 0 .021-.164 1.947 1.947 0 0 1-.226-.537.132.132 0 0 0-.127-.1l-.282-.002-.017-.126.265-.065a.132.132 0 0 0 .102-.135l-.002-.05c.001-.178.026-.354.074-.524a.132.132 0 0 0-.06-.15l-.24-.143.048-.12.26.077a.132.132 0 0 0 .155-.062 1.94 1.94 0 0 1 .351-.465.132.132 0 0 0 .022-.16l-.14-.243.105-.08.189.2a.132.132 0 0 0 .164.021c.168-.102.35-.18.541-.227a.132.132 0 0 0 .1-.13l-.004-.278.13-.017zm-1.305.22.014.008-.153.118a.18.18 0 0 0-.064.107c-.007-.016-.01-.027-.018-.043.076-.061.15-.123.22-.19zm1.548.317A1.77 1.77 0 0 0 6.67 8.495a1.767 1.767 0 1 0 1.767-1.768zm-1.62.236L6.834 7l-.004.004c-.002-.011-.012-.03-.016-.041zm1.62.03A1.5 1.5 0 0 1 9.94 8.494a1.5 1.5 0 0 1-1.503 1.501 1.5 1.5 0 0 1-1.501-1.501 1.5 1.5 0 0 1 1.501-1.503zm5.303 1.915c.031 0 .031.004.034.006.002.002.015.015.027.057.024.085.038.265.055.531a.132.132 0 0 0 .107.121 4 4 0 0 1 .434.11.132.132 0 0 0 .11-.016c-.026.121-.04.244-.073.363-.432-.144-.88-.235-1.336-.215a3.702 3.702 0 0 0-.37.036.132.132 0 0 0-.001 0 3.703 3.703 0 0 0-.342.07c-.152.03-.29.068-.405.125a3.715 3.715 0 0 0-1.874 1.531l-.002.002a2.024 2.024 0 0 0-.266.496c-.376.971-.335 1.748-.13 2.444a6.184 6.184 0 0 1-.352.062c-.022-.074-.046-.149-.063-.223a.132.132 0 0 0-.13-.101c-.253.004-.423.002-.505-.015-.04-.01-.052-.02-.055-.022-.002-.002-.005-.002-.007-.031-.003-.038.001-.051.007-.061s.02-.025.06-.047c.076-.042.235-.094.462-.174a.132.132 0 0 0 .088-.133 4.01 4.01 0 0 1-.006-.443.132.132 0 0 0-.098-.133c-.25-.07-.418-.12-.494-.16-.038-.02-.047-.034-.048-.037-.002-.002-.006-.004 0-.033.007-.038.016-.046.025-.055.009-.008.027-.02.07-.029.086-.02.252-.023.492-.035a.132.132 0 0 0 .123-.106c.029-.147.067-.292.112-.435a.132.132 0 0 0-.059-.155c-.229-.135-.38-.227-.445-.287-.032-.03-.038-.048-.04-.05 0-.004-.003-.005.01-.032.018-.034.027-.043.038-.049.01-.005.031-.01.076-.008.088.004.253.046.49.097a.132.132 0 0 0 .146-.073c.065-.132.137-.26.215-.385a.132.132 0 0 0-.015-.16c-.169-.179-.29-.3-.34-.375-.025-.037-.032-.057-.033-.068-.001-.012.001-.026.022-.059.016-.026.018-.024.02-.025.004-.001.023-.004.065.008.085.024.244.107.479.232a.132.132 0 0 0 .162-.03c.099-.113.204-.223.314-.325a.132.132 0 0 0 .026-.162c-.12-.212-.208-.356-.239-.44-.015-.041-.015-.062-.013-.074.002-.012.007-.024.035-.05.022-.022.024-.02.027-.02.004 0 .02.001.059.023.076.044.212.161.41.34a.132.132 0 0 0 .162.012 4.03 4.03 0 0 1 .383-.23.132.132 0 0 0 .068-.143c-.053-.245-.098-.413-.103-.505-.003-.045.004-.067.01-.078.005-.01.011-.02.046-.038.027-.014.03-.011.034-.01.003 0 .019.007.049.038.06.064.153.214.289.44a.132.132 0 0 0 .156.059c.14-.05.286-.092.432-.125a.132.132 0 0 0 .1-.127c.007-.243.006-.413.023-.5.008-.044.02-.062.027-.07.008-.01.017-.017.054-.026.03-.007.031-.003.034-.002.003.001.017.01.039.049.042.075.097.244.174.496a.132.132 0 0 0 .136.094 4.05 4.05 0 0 1 .46-.01.132.132 0 0 0 .132-.1c.061-.231.098-.393.135-.473.018-.04.033-.055.043-.062.01-.007.02-.012.059-.012zm-3.564 1.461c.023.042.039.078.066.125-.066.065-.13.13-.191.2-.06-.033-.102-.047-.152-.072.001-.002.004-.001.005-.003l.225-.17c.027-.02.035-.05.047-.08z" opacity=".1" style="font-feature-settings:normal;font-variant-alternates:normal;font-variant-caps:normal;font-variant-east-asian:normal;font-variant-ligatures:normal;font-variant-numeric:normal;font-variant-position:normal;font-variation-settings:normal;inline-size:0;isolation:auto;mix-blend-mode:normal;shape-margin:0;shape-padding:0;text-decoration-color:#000;text-decoration-line:none;text-decoration-style:solid;text-indent:0;text-orientation:mixed;text-transform:none;white-space:normal" transform="translate(-.018) scale(3.7796)"/></g><path d="M31.094 8.028a24 24 0 0 0-2.914.275 13.537 13.537 0 0 1 .632 3.316A13.537 13.537 0 0 1 16.11 25.943a13.537 13.537 0 0 1-6.988-1.487 24 24 0 0 0-.884 3.607c.253-.316.548-.735.93-1.284l-.318-.165c.613.265 1.241.49 1.883.675-.013 1.815-.147 2.531.687 2.755.722.194.955-.45 1.575-2.262.591.077 1.187.12 1.784.13.454 1.98.604 2.66 1.36 2.54.85-.137.796-.86.969-2.657.596-.08 1.187-.194 1.77-.341.843 1.748 1.15 2.366 1.847 2.086.801-.323.583-1.018.352-2.82.542-.222 1.07-.475 1.584-.756 1.315 1.472 1.779 1.987 2.376 1.521.678-.529.282-1.136-.43-2.788.48-.37.94-.767 1.375-1.19 1.581 1.057 2.158 1.426 2.613.835.518-.672-.002-1.164-1.076-2.543.35-.452.675-.923.973-1.41 1.885.54 2.55.728 2.807.017.286-.793-.351-1.106-1.775-2.078.238-.567.443-1.148.612-1.739 1.953.063 2.643.081 2.718-.67.084-.84-.614-.987-2.238-1.583.077-.615.119-1.235.123-1.855 1.85-.356 2.517-.501 2.425-1.238-.104-.843-.82-.827-2.556-1.053a15.588 15.588 0 0 0-.344-1.723c.329-.17.58-.304.83-.439zm.078 14.73-1.056.139a.177.177 0 0 0-.118.068.203.203 0 0 0-.035.131l.023 1.317a7.829 7.829 0 0 0-2.181.914l-.9-.946a.176.176 0 0 0-.249-.033l-.845.648a.177.177 0 0 0-.069.117.214.214 0 0 0 .035.132l.653 1.14a7.829 7.829 0 0 0-1.42 1.876l-1.241-.365a.18.18 0 0 0-.136-.001.177.177 0 0 0-.095.097l-.408.983a.176.176 0 0 0-.001.136.213.213 0 0 0 .096.097l1.135.66a7.829 7.829 0 0 0-.302 2.13 7.829 7.829 0 0 0 .007.202l-1.266.306a.175.175 0 0 0-.153.198l.139 1.056c.006.049.031.09.067.119a.212.212 0 0 0 .132.034l1.32.006a7.829 7.829 0 0 0 .912 2.164l-.942.897a.178.178 0 0 0-.033.25l.647.844c.03.04.073.062.118.068a.211.211 0 0 0 .131-.035l1.138-.65a7.829 7.829 0 0 0 1.877 1.421l-.364 1.237a.18.18 0 0 0 .096.233l.983.408a.178.178 0 0 0 .137 0 .211.211 0 0 0 .096-.097l.66-1.134a7.829 7.829 0 0 0 2.126.302 7.829 7.829 0 0 0 .206-.007l.306 1.266a.178.178 0 0 0 .2.153l1.055-.14a.176.176 0 0 0 .118-.067.212.212 0 0 0 .035-.132l.005-1.32a7.829 7.829 0 0 0 2.112-.883l.958.909c.25.033.073.062.118.068a.176.176 0 0 0 .13-.035l.847-.648a.176.176 0 0 0 .067-.118.206.206 0 0 0-.035-.13l-.674-1.123a7.829 7.829 0 0 0 1.402-1.835l1.286.308c.232-.096.094.018.136 0a.176.176 0 0 0 .096-.096l.408-.983a.178.178 0 0 0 0-.137.205.205 0 0 0-.096-.096l-1.157-.641a7.829 7.829 0 0 0 .306-2.141 7.829 7.829 0 0 0-.006-.147l1.264-.374c.153-.2.09-.032.118-.068a.176.176 0 0 0 .035-.13l-.139-1.057a.176.176 0 0 0-.067-.118.206.206 0 0 0-.132-.035l-1.317.023a7.829 7.829 0 0 0-.884-2.128l.912-.961c.033-.25.062-.073.068-.118a.178.178 0 0 0-.036-.132l-.647-.845a.177.177 0 0 0-.118-.068.206.206 0 0 0-.131.035l-1.126.677a7.829 7.829 0 0 0-1.833-1.402l.31-1.289c-.097-.232.017-.093 0-.135a.177.177 0 0 0-.096-.097l-.984-.408a.176.176 0 0 0-.136 0 .205.205 0 0 0-.096.096l-.643 1.159a7.829 7.829 0 0 0-2.145-.307 7.829 7.829 0 0 0-.141.005l-.374-1.263c-.2-.153-.032-.091-.068-.119a.176.176 0 0 0-.131-.034zm.714 3.064a6.178 6.178 0 0 1 6.178 6.177 6.178 6.178 0 0 1-6.178 6.177A6.178 6.178 0 0 1 25.71 32a6.178 6.178 0 0 1 6.177-6.177zm20.047 7.243c-.857-.004-.925.714-1.383 2.441a15.697 15.697 0 0 0-1.786.039c-.582-1.903-.784-2.567-1.524-2.394-.84.197-.731.916-.777 2.73-.569.13-1.13.294-1.68.487-1.021-1.71-1.377-2.306-2.054-1.96-.78.397-.486 1.072-.088 2.896-.514.269-1.013.565-1.494.89-1.498-1.351-2.012-1.82-2.56-1.288-.62.6-.157 1.162.735 2.738-.432.4-.842.823-1.226 1.269-1.777-.95-2.39-1.282-2.794-.634-.46.736.132 1.166 1.391 2.5-.308.484-.589.985-.841 1.5-1.773-.378-2.446-.652-2.833.119-.343.682.257 1.032 1.987 2.051-.176.559-.32 1.126-.432 1.7-1.793.092-2.512.007-2.686.849-.152.74.512.929 2.406 1.453-.023.577-.014 1.153.028 1.729-1.694.593-2.408.714-2.337 1.57.061.744.746.746 2.651.717.1.44.225.872.362 1.3a24 24 0 0 0 2.252-.405c-.89-2.673-1.083-5.633.394-9.455.274-.708.599-1.318.968-1.795a13.537 13.537 0 0 1 6.853-5.594c.375-.19.891-.338 1.464-.451a13.537 13.537 0 0 1 1.247-.256 13.537 13.537 0 0 1 1.347-.129 13.537 13.537 0 0 1 5.427.876 24 24 0 0 0 .81-4.126c-.322.318-.65.905-1.2 1.768a15.682 15.682 0 0 0-1.698-.424c-.125-2.012-.164-2.707-.928-2.711z" fill="url(#f)"/><g stroke="#000"><g stroke-linecap="round" stroke-linejoin="round"><path d="M31.956 10.005c-1.044.089-1.04.97-1.414 3.135a19.01 18.912 0 0 0-2.103.29c-.926-2.23-1.249-3.006-2.123-2.711-1.006.339-.772 1.2-.616 3.455a19.01 18.912 0 0 0-1.95.803c-1.562-1.88-2.097-2.534-2.85-1.992-.85.61-.393 1.365.402 3.41a19.01 18.912 0 0 0-1.696 1.305c-1.968-1.45-2.645-1.956-3.245-1.25-.682.801-.047 1.421 1.231 3.24a19.01 18.912 0 0 0-1.275 1.65c-2.063-.765-2.823-1.21-3.424-.355-.532.756.127 1.282 2.026 2.807a19.01 18.912 0 0 0-.819 1.961c-2.17-.205-3.018-.433-3.375.545-.314.86.451 1.203 2.633 2.164a19.01 18.912 0 0 0-.27 2.076c-2.14.413-3.018.434-3.084 1.472-.057.901.765 1.024 3.06 1.324a19.01 18.912 0 0 0 .304 2.207c-1.966.86-2.811 1.079-2.647 2.099.146.908.986.83 3.389.608a19.01 18.912 0 0 0 .85 2.042c-1.676 1.295-2.435 1.717-2.028 2.661.366.848 1.16.565 3.457-.244a19.01 18.912 0 0 0 1.242 1.6c-1.264 1.851-1.895 2.478-1.201 3.273.605.693 1.277.185 3.196-1.27a19.01 18.912 0 0 0 1.7 1.308c-.769 2.136-1.232 2.901-.356 3.502.768.526 1.287-.142 2.818-2.072l-.375-.223a19.01 18.912 0 0 0 2.233.953c-.148 2.194-.362 3.05.632 3.38.86.288 1.19-.475 2.073-2.62a19.01 18.912 0 0 0 2.152.286c.407 2.427.539 3.262 1.465 3.17 1.04-.103 1.026-.982 1.367-3.141a19.01 18.912 0 0 0 2.17-.284c.895 2.175 1.22 2.944 2.087 2.655.994-.331.78-1.187.632-3.382a19.01 18.912 0 0 0 1.974-.8c1.487 1.875 2.01 2.531 2.768 2.011.86-.59.425-1.352-.319-3.4a19.01 18.912 0 0 0 1.754-1.34c1.84 1.393 2.511 1.881 3.105 1.2.677-.775.083-1.407-1.118-3.153a19.01 18.912 0 0 0 1.282-1.634c2.245.791 3.038 1.065 3.4.225.405-.938-.345-1.363-2-2.641a19.01 18.912 0 0 0 .869-2.058c2.361.218 3.197.29 3.342-.612.163-1.01-.672-1.238-2.596-2.077a19.01 18.912 0 0 0 .284-2.233c2.268-.296 3.086-.423 3.03-1.32-.066-1.027-.935-1.06-3.023-1.46a19.01 18.912 0 0 0-.29-2.107c2.144-.945 2.904-1.291 2.592-2.145-.353-.97-1.198-.753-3.329-.55a19.01 18.912 0 0 0-.824-1.99c1.86-1.494 2.512-2.023 1.986-2.773-.599-.852-1.36-.412-3.403.347a19.01 18.912 0 0 0-1.312-1.69c1.38-1.946 1.86-2.632 1.149-3.21-.8-.65-1.414-.034-3.127 1.225a19.01 18.912 0 0 0-1.736-1.325c.913-2.223 1.233-3 .405-3.405-.952-.465-1.395.309-2.875 2.017a19.01 18.912 0 0 0-1.965-.805c.204-2.433.28-3.273-.637-3.412-1.03-.156-1.238.694-2.092 2.683a19.01 18.912 0 0 0-2.153-.268c-.364-2.382-.49-3.214-1.41-3.136zm-.76 5.813c2.105-.035 4.604.34 5.416.692 3.533 1.074 6.8 3.05 9.583 7.645.518.856.89 1.687 1.058 2.446.167.797.104 1.725-.412 2.457-.443.581-.99 1.13-1.756 1.2-2.38.222-5.607.096-8.154.069-.428-.005-.838-.178-.96-.313-.755-.474-1.263-1.506-2.105-1.797-1.343-.621-1.887-.1-2.645-1.03a131.525 131.525 0 0 1-3.986-6.808c-.898-1.56-.306-3.12 1.048-3.961.53-.41 1.65-.579 2.914-.6zm-9.379 4.81c.11-.004.22 0 .332.011.725.1 1.473.306 1.91.937 1.362 1.96 2.836 4.826 4.062 7.052.206.375.256.816.199.99-.044.888-.697 1.836-.538 2.71.117 1.472.839 1.689.399 2.804a131.543 131.543 0 0 1-3.991 6.805c-.922 1.546-2.576 1.798-3.975 1.034-1.648-.691-3.861-5.879-4.007-7.284-.796-3.598-.673-7.407 1.975-12.081.494-.87 1.037-1.602 1.618-2.12.538-.469 1.249-.835 2.016-.859zm18.83 13.092c1.321.007 2.638.033 3.936.081 1.803.023 2.849 1.327 2.885 2.917.224 1.77-3.172 6.275-4.319 7.103-2.726 2.487-6.095 4.286-11.477 4.335-1.002.009-1.909-.095-2.649-.338-.772-.263-1.54-.787-1.91-1.603-.276-.677-.47-1.427-.141-2.12 1.02-2.156 2.772-4.862 4.092-7.034.223-.366.58-.63.76-.666.793-.407 1.942-.317 2.622-.892 1.22-.837 1.047-1.569 2.235-1.746 1.319-.03 2.645-.044 3.966-.037z" opacity=".1" stroke-width="3.9988168"/><path d="M31.956 10.005c-1.044.089-1.04.97-1.414 3.135a19.01 18.912 0 0 0-2.103.29c-.926-2.23-1.249-3.006-2.123-2.711-1.006.339-.772 1.2-.616 3.455a19.01 18.912 0 0 0-1.95.803c-1.562-1.88-2.097-2.534-2.85-1.992-.85.61-.393 1.365.402 3.41a19.01 18.912 0 0 0-1.696 1.305c-1.968-1.45-2.645-1.956-3.245-1.25-.682.801-.047 1.421 1.231 3.24a19.01 18.912 0 0 0-1.275 1.65c-2.063-.765-2.823-1.21-3.424-.355-.532.756.127 1.282 2.026 2.807a19.01 18.912 0 0 0-.819 1.961c-2.17-.205-3.018-.433-3.375.545-.314.86.451 1.203 2.633 2.164a19.01 18.912 0 0 0-.27 2.076c-2.14.413-3.018.434-3.084 1.472-.057.901.765 1.024 3.06 1.324a19.01 18.912 0 0 0 .304 2.207c-1.966.86-2.811 1.079-2.647 2.099.146.908.986.83 3.389.608a19.01 18.912 0 0 0 .85 2.042c-1.676 1.295-2.435 1.717-2.028 2.661.366.848 1.16.565 3.457-.244a19.01 18.912 0 0 0 1.242 1.6c-1.264 1.851-1.895 2.478-1.201 3.273.605.693 1.277.185 3.196-1.27a19.01 18.912 0 0 0 1.7 1.308c-.769 2.136-1.232 2.901-.356 3.502.768.526 1.287-.142 2.818-2.072l-.375-.223a19.01 18.912 0 0 0 2.233.953c-.148 2.194-.362 3.05.632 3.38.86.288 1.19-.475 2.073-2.62a19.01 18.912 0 0 0 2.152.286c.407 2.427.539 3.262 1.465 3.17 1.04-.103 1.026-.982 1.367-3.141a19.01 18.912 0 0 0 2.17-.284c.895 2.175 1.22 2.944 2.087 2.655.994-.331.78-1.187.632-3.382a19.01 18.912 0 0 0 1.974-.8c1.487 1.875 2.01 2.531 2.768 2.011.86-.59.425-1.352-.319-3.4a19.01 18.912 0 0 0 1.754-1.34c1.84 1.393 2.511 1.881 3.105 1.2.677-.775.083-1.407-1.118-3.153a19.01 18.912 0 0 0 1.282-1.634c2.245.791 3.038 1.065 3.4.225.405-.938-.345-1.363-2-2.641a19.01 18.912 0 0 0 .869-2.058c2.361.218 3.197.29 3.342-.612.163-1.01-.672-1.238-2.596-2.077a19.01 18.912 0 0 0 .284-2.233c2.268-.296 3.086-.423 3.03-1.32-.066-1.027-.935-1.06-3.023-1.46a19.01 18.912 0 0 0-.29-2.107c2.144-.945 2.904-1.291 2.592-2.145-.353-.97-1.198-.753-3.329-.55a19.01 18.912 0 0 0-.824-1.99c1.86-1.494 2.512-2.023 1.986-2.773-.599-.852-1.36-.412-3.403.347a19.01 18.912 0 0 0-1.312-1.69c1.38-1.946 1.86-2.632 1.149-3.21-.8-.65-1.414-.034-3.127 1.225a19.01 18.912 0 0 0-1.736-1.325c.913-2.223 1.233-3 .405-3.405-.952-.465-1.395.309-2.875 2.017a19.01 18.912 0 0 0-1.965-.805c.204-2.433.28-3.273-.637-3.412-1.03-.156-1.238.694-2.092 2.683a19.01 18.912 0 0 0-2.153-.268c-.364-2.382-.49-3.214-1.41-3.136zm-.76 5.813c2.105-.035 4.604.34 5.416.692 3.533 1.074 6.8 3.05 9.583 7.645.518.856.89 1.687 1.058 2.446.167.797.104 1.725-.412 2.457-.443.581-.99 1.13-1.756 1.2-2.38.222-5.607.096-8.154.069-.428-.005-.838-.178-.96-.313-.755-.474-1.263-1.506-2.105-1.797-1.343-.621-1.887-.1-2.645-1.03a131.525 131.525 0 0 1-3.986-6.808c-.898-1.56-.306-3.12 1.048-3.961.53-.41 1.65-.579 2.914-.6zm-9.379 4.81c.11-.004.22 0 .332.011.725.1 1.473.306 1.91.937 1.362 1.96 2.836 4.826 4.062 7.052.206.375.256.816.199.99-.044.888-.697 1.836-.538 2.71.117 1.472.839 1.689.399 2.804a131.543 131.543 0 0 1-3.991 6.805c-.922 1.546-2.576 1.798-3.975 1.034-1.648-.691-3.861-5.879-4.007-7.284-.796-3.598-.673-7.407 1.975-12.081.494-.87 1.037-1.602 1.618-2.12.538-.469 1.249-.835 2.016-.859zm18.83 13.092c1.321.007 2.638.033 3.936.081 1.803.023 2.849 1.327 2.885 2.917.224 1.77-3.172 6.275-4.319 7.103-2.726 2.487-6.095 4.286-11.477 4.335-1.002.009-1.909-.095-2.649-.338-.772-.263-1.54-.787-1.91-1.603-.276-.677-.47-1.427-.141-2.12 1.02-2.156 2.772-4.862 4.092-7.034.223-.366.58-.63.76-.666.793-.407 1.942-.317 2.622-.892 1.22-.837 1.047-1.569 2.235-1.746 1.319-.03 2.645-.044 3.966-.037z" opacity=".1" stroke-width="3.0010024"/><path d="M31.956 10.005c-1.044.089-1.04.97-1.414 3.135a19.01 18.912 0 0 0-2.103.29c-.926-2.23-1.249-3.006-2.123-2.711-1.006.339-.772 1.2-.616 3.455a19.01 18.912 0 0 0-1.95.803c-1.562-1.88-2.097-2.534-2.85-1.992-.85.61-.393 1.365.402 3.41a19.01 18.912 0 0 0-1.696 1.305c-1.968-1.45-2.645-1.956-3.245-1.25-.682.801-.047 1.421 1.231 3.24a19.01 18.912 0 0 0-1.275 1.65c-2.063-.765-2.823-1.21-3.424-.355-.532.756.127 1.282 2.026 2.807a19.01 18.912 0 0 0-.819 1.961c-2.17-.205-3.018-.433-3.375.545-.314.86.451 1.203 2.633 2.164a19.01 18.912 0 0 0-.27 2.076c-2.14.413-3.018.434-3.084 1.472-.057.901.765 1.024 3.06 1.324a19.01 18.912 0 0 0 .304 2.207c-1.966.86-2.811 1.079-2.647 2.099.146.908.986.83 3.389.608a19.01 18.912 0 0 0 .85 2.042c-1.676 1.295-2.435 1.717-2.028 2.661.366.848 1.16.565 3.457-.244a19.01 18.912 0 0 0 1.242 1.6c-1.264 1.851-1.895 2.478-1.201 3.273.605.693 1.277.185 3.196-1.27a19.01 18.912 0 0 0 1.7 1.308c-.769 2.136-1.232 2.901-.356 3.502.768.526 1.287-.142 2.818-2.072l-.375-.223a19.01 18.912 0 0 0 2.233.953c-.148 2.194-.362 3.05.632 3.38.86.288 1.19-.475 2.073-2.62a19.01 18.912 0 0 0 2.152.286c.407 2.427.539 3.262 1.465 3.17 1.04-.103 1.026-.982 1.367-3.141a19.01 18.912 0 0 0 2.17-.284c.895 2.175 1.22 2.944 2.087 2.655.994-.331.78-1.187.632-3.382a19.01 18.912 0 0 0 1.974-.8c1.487 1.875 2.01 2.531 2.768 2.011.86-.59.425-1.352-.319-3.4a19.01 18.912 0 0 0 1.754-1.34c1.84 1.393 2.511 1.881 3.105 1.2.677-.775.083-1.407-1.118-3.153a19.01 18.912 0 0 0 1.282-1.634c2.245.791 3.038 1.065 3.4.225.405-.938-.345-1.363-2-2.641a19.01 18.912 0 0 0 .869-2.058c2.361.218 3.197.29 3.342-.612.163-1.01-.672-1.238-2.596-2.077a19.01 18.912 0 0 0 .284-2.233c2.268-.296 3.086-.423 3.03-1.32-.066-1.027-.935-1.06-3.023-1.46a19.01 18.912 0 0 0-.29-2.107c2.144-.945 2.904-1.291 2.592-2.145-.353-.97-1.198-.753-3.329-.55a19.01 18.912 0 0 0-.824-1.99c1.86-1.494 2.512-2.023 1.986-2.773-.599-.852-1.36-.412-3.403.347a19.01 18.912 0 0 0-1.312-1.69c1.38-1.946 1.86-2.632 1.149-3.21-.8-.65-1.414-.034-3.127 1.225a19.01 18.912 0 0 0-1.736-1.325c.913-2.223 1.233-3 .405-3.405-.952-.465-1.395.309-2.875 2.017a19.01 18.912 0 0 0-1.965-.805c.204-2.433.28-3.273-.637-3.412-1.03-.156-1.238.694-2.092 2.683a19.01 18.912 0 0 0-2.153-.268c-.364-2.382-.49-3.214-1.41-3.136zm-.76 5.813c2.105-.035 4.604.34 5.416.692 3.533 1.074 6.8 3.05 9.583 7.645.518.856.89 1.687 1.058 2.446.167.797.104 1.725-.412 2.457-.443.581-.99 1.13-1.756 1.2-2.38.222-5.607.096-8.154.069-.428-.005-.838-.178-.96-.313-.755-.474-1.263-1.506-2.105-1.797-1.343-.621-1.887-.1-2.645-1.03a131.525 131.525 0 0 1-3.986-6.808c-.898-1.56-.306-3.12 1.048-3.961.53-.41 1.65-.579 2.914-.6zm-9.379 4.81c.11-.004.22 0 .332.011.725.1 1.473.306 1.91.937 1.362 1.96 2.836 4.826 4.062 7.052.206.375.256.816.199.99-.044.888-.697 1.836-.538 2.71.117 1.472.839 1.689.399 2.804a131.543 131.543 0 0 1-3.991 6.805c-.922 1.546-2.576 1.798-3.975 1.034-1.648-.691-3.861-5.879-4.007-7.284-.796-3.598-.673-7.407 1.975-12.081.494-.87 1.037-1.602 1.618-2.12.538-.469 1.249-.835 2.016-.859zm18.83 13.092c1.321.007 2.638.033 3.936.081 1.803.023 2.849 1.327 2.885 2.917.224 1.77-3.172 6.275-4.319 7.103-2.726 2.487-6.095 4.286-11.477 4.335-1.002.009-1.909-.095-2.649-.338-.772-.263-1.54-.787-1.91-1.603-.276-.677-.47-1.427-.141-2.12 1.02-2.156 2.772-4.862 4.092-7.034.223-.366.58-.63.76-.666.793-.407 1.942-.317 2.622-.892 1.22-.837 1.047-1.569 2.235-1.746 1.319-.03 2.645-.044 3.966-.037z" opacity=".1" stroke-width="1.9994084"/></g><path d="M31.956 10.005c-1.044.089-1.04.97-1.414 3.135a19.01 18.912 0 0 0-2.103.29c-.926-2.23-1.249-3.006-2.123-2.711-1.006.339-.772 1.2-.616 3.455a19.01 18.912 0 0 0-1.95.803c-1.562-1.88-2.097-2.534-2.85-1.992-.85.61-.393 1.365.402 3.41a19.01 18.912 0 0 0-1.696 1.305c-1.968-1.45-2.645-1.956-3.245-1.25-.682.801-.047 1.421 1.231 3.24a19.01 18.912 0 0 0-1.275 1.65c-2.063-.765-2.823-1.21-3.424-.355-.532.756.127 1.282 2.026 2.807a19.01 18.912 0 0 0-.819 1.961c-2.17-.205-3.018-.433-3.375.545-.314.86.451 1.203 2.633 2.164a19.01 18.912 0 0 0-.27 2.076c-2.14.413-3.018.434-3.084 1.472-.057.901.765 1.024 3.06 1.324a19.01 18.912 0 0 0 .304 2.207c-1.966.86-2.811 1.079-2.647 2.099.146.908.986.83 3.389.608a19.01 18.912 0 0 0 .85 2.042c-1.676 1.295-2.435 1.717-2.028 2.661.366.848 1.16.565 3.457-.244a19.01 18.912 0 0 0 1.242 1.6c-1.264 1.851-1.895 2.478-1.201 3.273.605.693 1.277.185 3.196-1.27a19.01 18.912 0 0 0 1.7 1.308c-.769 2.136-1.232 2.901-.356 3.502.768.526 1.287-.142 2.818-2.072l-.375-.223a19.01 18.912 0 0 0 2.233.953c-.148 2.194-.362 3.05.632 3.38.86.288 1.19-.475 2.073-2.62a19.01 18.912 0 0 0 2.152.286c.407 2.427.539 3.262 1.465 3.17 1.04-.103 1.026-.982 1.367-3.141a19.01 18.912 0 0 0 2.17-.284c.895 2.175 1.22 2.944 2.087 2.655.994-.331.78-1.187.632-3.382a19.01 18.912 0 0 0 1.974-.8c1.487 1.875 2.01 2.531 2.768 2.011.86-.59.425-1.352-.319-3.4a19.01 18.912 0 0 0 1.754-1.34c1.84 1.393 2.511 1.881 3.105 1.2.677-.775.083-1.407-1.118-3.153a19.01 18.912 0 0 0 1.282-1.634c2.245.791 3.038 1.065 3.4.225.405-.938-.345-1.363-2-2.641a19.01 18.912 0 0 0 .869-2.058c2.361.218 3.197.29 3.342-.612.163-1.01-.672-1.238-2.596-2.077a19.01 18.912 0 0 0 .284-2.233c2.268-.296 3.086-.423 3.03-1.32-.066-1.027-.935-1.06-3.023-1.46a19.01 18.912 0 0 0-.29-2.107c2.144-.945 2.904-1.291 2.592-2.145-.353-.97-1.198-.753-3.329-.55a19.01 18.912 0 0 0-.824-1.99c1.86-1.494 2.512-2.023 1.986-2.773-.599-.852-1.36-.412-3.403.347a19.01 18.912 0 0 0-1.312-1.69c1.38-1.946 1.86-2.632 1.149-3.21-.8-.65-1.414-.034-3.127 1.225a19.01 18.912 0 0 0-1.736-1.325c.913-2.223 1.233-3 .405-3.405-.952-.465-1.395.309-2.875 2.017a19.01 18.912 0 0 0-1.965-.805c.204-2.433.28-3.273-.637-3.412-1.03-.156-1.238.694-2.092 2.683a19.01 18.912 0 0 0-2.153-.268c-.364-2.382-.49-3.214-1.41-3.136zm-.76 5.813c2.105-.035 4.604.34 5.416.692 3.533 1.074 6.8 3.05 9.583 7.645.518.856.89 1.687 1.058 2.446.167.797.104 1.725-.412 2.457-.443.581-.99 1.13-1.756 1.2-2.38.222-5.607.096-8.154.069-.428-.005-.838-.178-.96-.313-.755-.474-1.263-1.506-2.105-1.797-1.343-.621-1.887-.1-2.645-1.03a131.525 131.525 0 0 1-3.986-6.808c-.898-1.56-.306-3.12 1.048-3.961.53-.41 1.65-.579 2.914-.6zm-9.379 4.81c.11-.004.22 0 .332.011.725.1 1.473.306 1.91.937 1.362 1.96 2.836 4.826 4.062 7.052.206.375.256.816.199.99-.044.888-.697 1.836-.538 2.71.117 1.472.839 1.689.399 2.804a131.543 131.543 0 0 1-3.991 6.805c-.922 1.546-2.576 1.798-3.975 1.034-1.648-.691-3.861-5.879-4.007-7.284-.796-3.598-.673-7.407 1.975-12.081.494-.87 1.037-1.602 1.618-2.12.538-.469 1.249-.835 2.016-.859zm18.83 13.092c1.321.007 2.638.033 3.936.081 1.803.023 2.849 1.327 2.885 2.917.224 1.77-3.172 6.275-4.319 7.103-2.726 2.487-6.095 4.286-11.477 4.335-1.002.009-1.909-.095-2.649-.338-.772-.263-1.54-.787-1.91-1.603-.276-.677-.47-1.427-.141-2.12 1.02-2.156 2.772-4.862 4.092-7.034.223-.366.58-.63.76-.666.793-.407 1.942-.317 2.622-.892 1.22-.837 1.047-1.569 2.235-1.746 1.319-.03 2.645-.044 3.966-.037z" opacity=".1" stroke-width="1.001594"/></g><g transform="scale(3.7796)" stroke-width=".266"><path d="M8.454 2.647c-.276.023-.274.257-.373.83a5.03 5.004 0 0 0-.557.076c-.245-.59-.33-.795-.562-.717-.266.09-.204.317-.163.914a5.03 5.004 0 0 0-.516.213c-.413-.498-.555-.67-.754-.528-.224.162-.104.361.107.903a5.03 5.004 0 0 0-.45.345c-.52-.384-.699-.518-.858-.33-.18.211-.012.375.326.856a5.03 5.004 0 0 0-.337.437c-.546-.202-.747-.32-.906-.094-.14.2.034.34.536.743a5.03 5.004 0 0 0-.217.519c-.574-.055-.798-.115-.893.144-.083.227.12.318.697.572a5.03 5.004 0 0 0-.072.55c-.566.109-.798.114-.815.389-.016.238.202.271.809.35a5.03 5.004 0 0 0 .08.584c-.52.228-.743.286-.7.556.039.24.261.22.897.16a5.03 5.004 0 0 0 .225.54c-.444.343-.645.455-.537.705.097.224.307.15.915-.065a5.03 5.004 0 0 0 .328.424c-.334.49-.5.655-.317.865.16.184.338.05.845-.335a5.03 5.004 0 0 0 .45.346c-.203.565-.326.767-.094.926.203.14.34-.037.745-.548l-.099-.059a5.03 5.004 0 0 0 .591.252c-.04.58-.096.807.167.895.228.075.315-.126.549-.694a5.03 5.004 0 0 0 .57.076c.107.642.142.863.387.839.275-.028.271-.26.361-.832a5.03 5.004 0 0 0 .574-.075c.237.576.324.78.553.703.263-.088.206-.314.167-.895a5.03 5.004 0 0 0 .522-.212c.394.496.532.67.733.533.227-.157.112-.358-.085-.9a5.03 5.004 0 0 0 .464-.355c.487.369.665.498.822.318.179-.205.022-.373-.296-.834a5.03 5.004 0 0 0 .34-.433c.593.21.803.282.899.06.107-.248-.091-.361-.53-.699a5.03 5.004 0 0 0 .23-.544c.625.057.846.076.885-.162.043-.268-.178-.328-.687-.55a5.03 5.004 0 0 0 .075-.59c.6-.08.817-.113.801-.35-.017-.272-.247-.28-.8-.386a5.03 5.004 0 0 0-.076-.558c.567-.25.768-.341.686-.567-.094-.257-.317-.2-.88-.146a5.03 5.004 0 0 0-.219-.526c.492-.396.665-.535.525-.734-.158-.225-.36-.109-.9.092a5.03 5.004 0 0 0-.347-.447c.365-.515.492-.697.304-.85-.212-.171-.374-.009-.827.324a5.03 5.004 0 0 0-.46-.35c.242-.588.327-.794.108-.9-.252-.124-.37.08-.761.533a5.03 5.004 0 0 0-.52-.213c.054-.644.074-.866-.169-.903-.272-.041-.327.184-.553.71a5.03 5.004 0 0 0-.57-.071c-.096-.63-.13-.85-.372-.83zm-.2 1.538c.556-.01 1.217.09 1.432.183.935.284 1.8.807 2.536 2.023.137.226.235.446.28.647.044.21.027.456-.11.65-.116.154-.261.299-.464.317-.63.06-1.483.026-2.157.019-.114-.001-.222-.047-.254-.083-.2-.125-.334-.399-.557-.476-.355-.164-.5-.026-.7-.272a34.799 34.799 0 0 1-1.054-1.801c-.238-.413-.081-.826.277-1.048.14-.109.437-.153.77-.159zM5.772 5.458c.03-.001.058 0 .088.003.192.026.39.08.505.247.36.519.75 1.277 1.075 1.866.054.1.068.216.052.262-.011.235-.184.486-.142.717.031.39.222.447.106.742-.335.61-.69 1.22-1.056 1.8-.244.41-.682.476-1.052.274-.436-.183-1.021-1.555-1.06-1.927-.21-.952-.178-1.96.523-3.197.13-.23.274-.423.428-.56a.873.873 0 0 1 .533-.228zm4.982 3.463c.35.002.698.01 1.041.022.477.006.754.35.764.772.059.468-.84 1.66-1.143 1.879-.721.658-1.613 1.134-3.037 1.147a2.23 2.23 0 0 1-.7-.09c-.205-.069-.408-.208-.506-.424-.073-.179-.124-.377-.037-.56.27-.57.733-1.287 1.083-1.862.058-.096.153-.166.2-.176.21-.107.514-.084.694-.236.323-.221.277-.415.592-.462.349-.008.7-.011 1.049-.01z" fill="url(#g)"/><path d="M8.454 2.647c-.276.023-.274.257-.373.83a5.03 5.004 0 0 0-.557.076c-.245-.59-.33-.795-.562-.717-.266.09-.204.317-.163.914a5.03 5.004 0 0 0-.516.213c-.413-.498-.555-.67-.754-.528-.224.162-.104.361.107.903a5.03 5.004 0 0 0-.45.345c-.52-.384-.699-.518-.858-.33-.18.211-.012.375.326.856a5.03 5.004 0 0 0-.337.437c-.546-.202-.747-.32-.906-.094-.14.2.034.34.536.743a5.03 5.004 0 0 0-.217.519c-.574-.055-.798-.115-.893.144-.083.227.12.318.697.572a5.03 5.004 0 0 0-.072.55c-.566.109-.798.114-.816.389-.015.238.203.271.81.35a5.03 5.004 0 0 0 .08.584c-.52.228-.743.286-.7.556.039.24.261.22.897.16a5.03 5.004 0 0 0 .225.54c-.444.343-.645.455-.537.705.097.224.307.15.915-.065a5.03 5.004 0 0 0 .328.424c-.334.49-.5.655-.317.865.16.184.338.05.845-.335a5.03 5.004 0 0 0 .45.346c-.203.565-.326.767-.094.926.203.14.34-.037.745-.548l-.099-.059a5.03 5.004 0 0 0 .591.252c-.04.58-.096.807.167.895.228.075.315-.126.549-.694a5.03 5.004 0 0 0 .57.076c.107.642.142.863.387.839.275-.028.271-.26.361-.832a5.03 5.004 0 0 0 .574-.075c.237.576.323.78.553.703.263-.088.206-.314.167-.895a5.03 5.004 0 0 0 .522-.212c.394.496.532.67.733.533.227-.157.112-.358-.085-.9a5.03 5.004 0 0 0 .464-.355c.487.369.665.498.822.318.179-.205.022-.373-.296-.834a5.03 5.004 0 0 0 .34-.433c.593.21.803.282.899.06.107-.248-.091-.361-.53-.699a5.03 5.004 0 0 0 .23-.545c.625.058.846.077.885-.161.043-.268-.178-.328-.687-.55a5.03 5.004 0 0 0 .075-.59c.6-.08.817-.113.801-.35-.017-.272-.247-.28-.8-.386a5.03 5.004 0 0 0-.076-.558c.567-.25.768-.341.686-.567-.094-.257-.317-.2-.88-.146a5.03 5.004 0 0 0-.219-.526c.492-.396.665-.535.525-.734-.158-.225-.36-.109-.9.092a5.03 5.004 0 0 0-.347-.447c.365-.515.492-.697.304-.85-.212-.171-.374-.009-.827.324a5.03 5.004 0 0 0-.46-.35c.242-.588.327-.794.108-.9-.252-.124-.37.08-.761.533a5.03 5.004 0 0 0-.52-.213c.054-.644.074-.866-.169-.903-.272-.041-.327.184-.553.71a5.03 5.004 0 0 0-.57-.071c-.096-.63-.13-.85-.372-.83zm.006.064c.051-.004.08.003.104.02.025.018.05.051.072.11.046.118.08.33.128.646a.065.064 0 0 0 .06.054c.188.013.375.036.561.07a.065.064 0 0 0 .071-.038c.114-.264.186-.452.254-.558a.268.268 0 0 1 .1-.1.208.208 0 0 1 .13-.014c.052.008.078.023.098.045.02.023.036.06.044.124.017.127 0 .343-.027.665a.065.064 0 0 0 .043.066c.175.061.346.131.513.21a.065.064 0 0 0 .077-.015c.197-.228.325-.392.425-.476a.276.276 0 0 1 .127-.069c.037-.006.076 0 .131.027.046.022.067.044.079.071.012.027.016.068.005.13-.021.124-.101.323-.222.618a.065.064 0 0 0 .023.077c.158.107.31.222.454.346a.065.064 0 0 0 .08.003c.228-.167.383-.29.494-.345a.266.266 0 0 1 .135-.035.207.207 0 0 1 .12.054c.039.032.054.058.06.087.005.03 0 .07-.024.128-.048.115-.17.29-.353.547a.065.064 0 0 0 .004.08c.123.14.237.288.343.441a.065.064 0 0 0 .076.024c.271-.1.458-.18.583-.203a.27.27 0 0 1 .141.003.206.206 0 0 1 .1.085c.03.042.038.07.035.1-.003.03-.019.067-.058.116-.078.098-.243.233-.49.43a.065.064 0 0 0-.017.079c.081.169.153.342.215.52a.065.064 0 0 0 .067.042c.283-.027.481-.053.606-.043a.266.266 0 0 1 .134.039c.03.021.054.052.074.108.017.047.018.077.008.105-.01.028-.035.059-.085.096-.1.074-.29.16-.574.285a.065.064 0 0 0-.037.072c.035.181.06.365.076.55a.065.064 0 0 0 .052.058c.277.053.473.083.59.128.057.022.094.046.117.075s.036.065.04.124c.003.05-.005.078-.022.102a.223.223 0 0 1-.106.068c-.114.043-.318.072-.617.111a.065.064 0 0 0-.056.06c-.013.196-.038.39-.075.583a.065.064 0 0 0 .038.071c.256.112.438.184.54.252.051.035.081.066.097.1a.206.206 0 0 1 .012.128c-.008.05-.022.076-.045.096-.022.02-.06.035-.122.043-.124.016-.335-.002-.647-.03a.065.064 0 0 0-.067.042c-.065.184-.141.363-.227.538a.065.064 0 0 0 .018.079c.22.17.379.284.46.375.041.046.062.083.07.12a.206.206 0 0 1-.02.127c-.02.047-.04.069-.067.082-.027.013-.067.02-.13.012-.124-.015-.325-.084-.622-.188a.065.064 0 0 0-.075.023c-.103.149-.215.291-.335.427a.065.064 0 0 0-.004.079c.16.232.277.39.329.503.025.057.034.1.03.136a.206.206 0 0 1-.059.117c-.033.037-.058.052-.088.056a.225.225 0 0 1-.124-.026c-.112-.05-.278-.173-.522-.357a.065.064 0 0 0-.08.003 4.964 4.964 0 0 1-.459.35.065.064 0 0 0-.024.074c.098.273.176.46.198.585a.27.27 0 0 1-.003.141.206.206 0 0 1-.087.1c-.042.028-.07.036-.1.033-.03-.003-.068-.02-.117-.059-.097-.08-.231-.246-.428-.494a.065.064 0 0 0-.078-.018 4.98 4.98 0 0 1-.516.21.065.064 0 0 0-.043.064c.02.292.042.495.03.622-.007.063-.02.106-.043.136s-.054.053-.11.072c-.049.016-.079.015-.106.004a.228.228 0 0 1-.095-.087c-.071-.102-.153-.295-.272-.583a.065.064 0 0 0-.072-.039 4.99 4.99 0 0 1-.566.074.065.064 0 0 0-.06.054c-.045.287-.068.49-.108.61a.27.27 0 0 1-.072.122.206.206 0 0 1-.123.045c-.052.005-.081-.002-.106-.019-.025-.017-.05-.05-.074-.11-.047-.12-.084-.335-.138-.656a.065.064 0 0 0-.059-.053 4.988 4.988 0 0 1-.562-.075.065.064 0 0 0-.072.039c-.117.283-.198.475-.27.575-.035.05-.065.075-.093.086s-.058.011-.105-.005a.207.207 0 0 1-.111-.071.27.27 0 0 1-.042-.136c-.013-.127.01-.33.03-.622a.065.064 0 0 0-.043-.064c-.2-.07-.395-.154-.583-.25a.065.064 0 0 0-.063.113l.033.02c-.167.21-.301.38-.39.452-.05.041-.087.058-.117.061-.03.003-.06-.005-.102-.034a.206.206 0 0 1-.088-.101.275.275 0 0 1-.002-.145c.025-.128.106-.321.208-.606a.065.064 0 0 0-.024-.074 4.972 4.972 0 0 1-.444-.342.065.064 0 0 0-.082-.003c-.254.193-.426.321-.54.374-.058.027-.099.033-.128.029-.03-.005-.056-.02-.09-.058a.206.206 0 0 1-.059-.119.272.272 0 0 1 .034-.14c.055-.116.18-.282.348-.528a.065.064 0 0 0-.005-.078 4.946 4.946 0 0 1-.324-.418.065.064 0 0 0-.075-.024c-.303.107-.508.177-.635.193-.063.008-.104.002-.13-.011-.028-.013-.048-.035-.069-.083a.206.206 0 0 1-.02-.128.263.263 0 0 1 .07-.12c.084-.092.244-.207.467-.38a.065.064 0 0 0 .019-.078 4.923 4.923 0 0 1-.222-.534.065.064 0 0 0-.067-.043c-.318.03-.533.048-.658.032-.063-.008-.1-.023-.124-.042-.022-.02-.037-.046-.045-.097a.206.206 0 0 1 .012-.13.267.267 0 0 1 .099-.1c.104-.069.29-.142.551-.256a.065.064 0 0 0 .038-.071 4.916 4.916 0 0 1-.08-.577.065.064 0 0 0-.056-.058c-.303-.04-.509-.07-.624-.112a.226.226 0 0 1-.107-.069c-.017-.024-.025-.052-.022-.102a.206.206 0 0 1 .04-.125.27.27 0 0 1 .12-.076c.119-.044.32-.074.604-.13a.065.064 0 0 0 .052-.058c.013-.181.037-.363.07-.542a.065.064 0 0 0-.037-.07c-.289-.128-.483-.215-.584-.29-.05-.037-.075-.069-.086-.097-.01-.028-.01-.057.008-.105a.206.206 0 0 1 .075-.109.27.27 0 0 1 .136-.038c.126-.01.327.018.615.045a.065.064 0 0 0 .067-.043c.062-.175.133-.346.214-.512a.065.064 0 0 0-.018-.078c-.25-.202-.42-.339-.5-.438-.04-.05-.055-.087-.058-.117-.003-.03.005-.059.035-.101a.206.206 0 0 1 .1-.085.271.271 0 0 1 .143-.002c.125.024.313.103.587.204a.065.064 0 0 0 .076-.023c.103-.15.214-.294.333-.432a.065.064 0 0 0 .004-.079c-.17-.241-.296-.404-.352-.52a.272.272 0 0 1-.035-.139.205.205 0 0 1 .057-.119c.034-.04.06-.054.09-.06.03-.004.07.002.128.028.117.053.293.18.554.373a.065.064 0 0 0 .08-.003c.141-.122.29-.236.443-.341a.065.064 0 0 0 .024-.076c-.106-.272-.188-.459-.213-.584a.27.27 0 0 1 0-.142.206.206 0 0 1 .084-.101c.042-.03.07-.039.1-.036.031.002.069.018.12.057.1.08.24.246.447.495a.065.064 0 0 0 .077.017c.166-.08.336-.15.51-.21a.065.064 0 0 0 .043-.065c-.021-.3-.046-.508-.034-.638a.274.274 0 0 1 .041-.138.207.207 0 0 1 .112-.073c.048-.016.078-.016.106-.005.028.011.06.037.096.089.073.104.157.302.28.597a.065.064 0 0 0 .071.038c.182-.035.365-.06.55-.075a.065.064 0 0 0 .058-.053c.05-.288.076-.49.118-.611a.27.27 0 0 1 .073-.122.207.207 0 0 1 .125-.044zm-.207 1.41c-.338.005-.639.042-.807.171a.878.878 0 0 0-.387.486c-.06.2-.036.426.09.645v.001c.33.604.687 1.211 1.057 1.803a.065.064 0 0 0 .004.006c.109.134.221.173.332.19.11.018.222.023.39.1a.065.064 0 0 0 .007.003c.093.032.176.11.26.203.082.088.167.187.274.257a.29.29 0 0 0 .12.07.557.557 0 0 0 .177.032c.672.007 1.527.041 2.164-.019.23-.02.39-.183.51-.342a.065.064 0 0 0 .001-.002c.15-.213.167-.476.12-.7a.065.064 0 0 0 0-.001 2.275 2.275 0 0 0-.288-.666c-.742-1.225-1.622-1.761-2.565-2.05-.123-.052-.34-.098-.605-.134a5.899 5.899 0 0 0-.854-.053zm0 .064c.557-.01 1.218.09 1.433.183.935.284 1.8.807 2.536 2.023.137.226.235.446.28.647.044.21.027.456-.11.65-.116.154-.261.299-.464.317-.63.06-1.483.026-2.157.019-.113-.002-.222-.047-.254-.083-.2-.126-.334-.399-.557-.476-.355-.164-.5-.026-.7-.272a34.799 34.799 0 0 1-1.054-1.801c-.238-.413-.081-.826.277-1.048.14-.109.437-.153.77-.159zM5.77 5.393a.934.934 0 0 0-.574.243 2.278 2.278 0 0 0-.442.578c-.706 1.246-.741 2.275-.53 3.236.011.105.056.26.124.446s.16.4.263.609c.104.209.22.411.34.576.12.164.24.29.37.346a.882.882 0 0 0 .615.097.818.818 0 0 0 .52-.396c.365-.581.721-1.19 1.056-1.802a.065.064 0 0 0 .004-.007.49.49 0 0 0 .003-.382c-.04-.105-.09-.204-.105-.389a.065.064 0 0 0 0-.006c-.018-.097.01-.207.048-.326.038-.115.082-.237.092-.364a.287.287 0 0 0 .002-.138.556.556 0 0 0-.06-.17c-.323-.588-.713-1.347-1.078-1.872-.131-.19-.352-.248-.55-.275a.065.064 0 0 0-.002 0 .73.73 0 0 0-.096-.004zm.002.064c.029 0 .058 0 .088.003.192.027.39.081.505.248.36.519.75 1.277 1.075 1.866.054.1.068.216.052.262-.011.235-.184.486-.142.717.031.39.222.447.106.742-.335.61-.69 1.22-1.056 1.8-.244.41-.682.476-1.052.274-.436-.183-1.021-1.555-1.06-1.927-.21-.952-.178-1.96.523-3.197.13-.23.274-.423.427-.56a.873.873 0 0 1 .534-.228zm4.982 3.4c-.35-.002-.701.002-1.05.01a.065.064 0 0 0-.009 0 .494.494 0 0 0-.333.189c-.071.086-.132.18-.285.284a.065.064 0 0 0-.005.004c-.075.064-.185.095-.308.12-.118.026-.247.048-.362.104a.29.29 0 0 0-.12.067.556.556 0 0 0-.119.137c-.348.573-.812 1.29-1.085 1.867-.1.208-.04.428.036.613a.065.064 0 0 0 0 .002c.108.237.327.384.544.458.206.068.452.096.722.093 1.434-.013 2.345-.496 3.074-1.159.086-.062.199-.18.326-.331.128-.152.268-.338.397-.532a4.13 4.13 0 0 0 .33-.582c.082-.185.132-.352.115-.492a.877.877 0 0 0-.222-.58.82.82 0 0 0-.604-.25 32.83 32.83 0 0 0-1.042-.022zm0 .064c.35.002.698.01 1.041.022.477.006.754.35.764.772.059.468-.84 1.66-1.143 1.879-.721.658-1.613 1.134-3.037 1.147a2.23 2.23 0 0 1-.7-.09c-.205-.07-.408-.208-.506-.424-.073-.179-.124-.377-.037-.56.27-.57.733-1.287 1.083-1.862.058-.096.153-.166.2-.176.21-.107.514-.084.694-.236.323-.221.277-.415.592-.462.349-.008.7-.011 1.049-.01z" fill="#fff" fill-opacity=".267"/><path d="M8.466 7.974a.493.492 0 0 0-.493.492.493.492 0 0 0 .493.493.493.492 0 0 0 .494-.493.493.492 0 0 0-.494-.492zm-.003.103a.388.387 0 0 1 .388.387.388.387 0 0 1-.388.386.388.387 0 0 1-.388-.386.388.387 0 0 1 .388-.387z" fill="url(#h)"/><ellipse cx="8.466" cy="8.466" rx=".388" ry=".387" fill="url(#i)"/><path d="M8.466 7.95a.517.517 0 1 0 0 1.034.517.517 0 0 0 0-1.033zm0 .026a.491.491 0 1 1 .002.982.491.491 0 0 1-.002-.982z" fill="#fff" fill-opacity=".384"/></g><circle cx="32" cy="32" r="23.904" fill="url(#j)"/></g></svg>