<svg width="32" height="32" version="1.1" viewBox="0 0 32 32" xmlns="http://www.w3.org/2000/svg">
 <filter id="b" x="0" y="0" width="1" height="1">
  <feColorMatrix in="SourceGraphic" values="0 0 0 0 1 0 0 0 0 1 0 0 0 0 1 0 0 0 1 0"/>
 </filter>
 <rect x="1" y="1" width="30" height="30" rx="8" ry="8" fill="#deddda"/>
 <rect x="2" y="2" width="28" height="28" rx="7" ry="7" fill="#1a1a1a" stroke-width=".93333"/>
 <rect x="3" y="3" width="26" height="26" rx="6.5" ry="6.5" fill="#333333" stroke-width=".86667"/>
 <g transform="translate(0,1)">
  <path d="m6 6h8v1h-8z" fill="#ff7800" stroke-width=".26726"/>
  <path d="m6 8h4v1h-4z" fill="#deddda" stroke-width=".25"/>
  <path d="m8 10h12v1h-12z" fill="#3584e4" stroke-width=".26726"/>
  <path d="m8 12h6v1h-6z" fill="#deddda" stroke-width=".26112"/>
  <path d="m8 14h10v1h-10z" fill="#deddda" stroke-width=".26352"/>
  <path d="m10 16h5v1h-5z" fill="#8ff0a4" stroke-width=".25"/>
  <path d="m15 18h7v1h-7z" fill="#ff7800" stroke-width=".27003"/>
  <path d="m6 20h9v1h-9z" fill="#deddda" stroke-width=".26516"/>
  <path d="m6 22h5v1h-5z" fill="#3584e4" stroke-width=".26352"/>
  <path d="m10 18h4v1h-4z" fill="#8ff0a4" stroke-width=".26726"/>
  <path d="m16 16h6v1h-6z" fill="#deddda" stroke-width=".27386"/>
  <path d="m19 14h5v1h-5z" fill="#3584e4" stroke-width=".26352"/>
 </g>
</svg>
