<svg width="22" height="22" version="1.1" xmlns="http://www.w3.org/2000/svg">
 <defs>
  <style id="current-color-scheme" type="text/css">.ColorScheme-Text { color:#f2f2f2; } .ColorScheme-Highlight { color:#4285f4; }</style>
 </defs>
 <path class="ColorScheme-Text" d="m3 5c-1.662 0-3 1.338-3 3v6c0 1.662 1.338 3 3 3h4.0293c-0.1043-0.32607-0.11005-0.68573-0.0058594-1h-4.0234c-1.108 0-2-0.892-2-2v-6c0-1.108 0.892-2 2-2h6.3008l0.78711-1zm9.9453 0c0.10403 0.32578 0.11025 0.68526 0.0059 1h4.0488c1.108 0 2 0.892 2 2v6c0 1.108-0.892 2-2 2h-6.3145l-0.78711 1h7.1016c1.662 0 3-1.338 3-3v-6c0-1.662-1.338-3-3-3zm8.0547 4v4c0.554 0 1-0.446 1-1v-2c0-0.554-0.446-1-1-1z" fill="currentColor" opacity=".5"/>
 <path class="ColorScheme-Text" d="m6.1581 11.592c0 0.23467 0.19781 0.39805 0.43229 0.40752h2.9766l-1.5932 4.3047c-0.22231 0.61747 0.43229 0.95094 0.83979 0.45698l4.854-5.9713c0.09878-0.11116 0.16048-0.24702 0.16048-0.37052 0-0.24702-0.19758-0.41954-0.44462-0.41993h-2.9642l1.5809-4.3047c0.22231-0.61754-0.43225-0.95102-0.82741-0.45698l-4.8662 5.9836c-0.098803 0.12352-0.14821 0.24704-0.14821 0.37056z" fill="currentColor"/>
</svg>
