<svg width="22" height="22" version="1.1" xmlns="http://www.w3.org/2000/svg">
 <defs>
  <style id="current-color-scheme" type="text/css">.ColorScheme-Text { color:#f2f2f2; } .ColorScheme-Highlight { color:#4285f4; }</style>
 </defs>
 <g class="ColorScheme-Text" transform="translate(-1 -25.427)" fill="currentColor">
  <g fill-rule="evenodd" paint-order="stroke fill markers">
   <path d="m4.531 9a0.537 0.537 0 0 0-0.531 0.545v4.91c0 0.303 0.237 0.545 0.531 0.545h3.939a0.537 0.537 0 0 0 0.53-0.545v-0.455h-1.5a1 1 0 0 1-0.832-1.555l2.184-3.275a0.523 0.523 0 0 0-0.383-0.17h-3.939z"/>
   <path d="m4 7c-1.108 0-2 0.892-2 2v6c0 1.108 0.892 2 2 2h13c1.108 0 2-0.892 2-2v-6c0-1.108-0.892-2-2-2zm0 1h13c0.554 0 1 0.446 1 1v6c0 0.554-0.446 1-1 1h-13c-0.554 0-1-0.446-1-1v-6c0-0.554 0.446-1 1-1zm16 2v4a2 2 0 0 0 2-2 2 2 0 0 0-2-2z"/>
  </g>
  <path d="m10.834 8-3.334 5h3l-0.75 3h0.416l3.334-5h-3l0.75-3z"/>
 </g>
 <path class="ColorScheme-Text" d="m3 7c-0.554 0-1 0.446-1 1v6c0 0.554 0.446 1 1 1h4c0.15266 0 0.29659-0.03504 0.42578-0.095703l0.57422-1.5508v-0.35352h-1.4102a1.0001 1.0001 0 0 1-0.039063-0.001953c-0.6752-0.02727-1.3926-0.60963-1.3926-1.4062 0-0.39018 0.16683-0.74366 0.36719-0.99414a1.0001 1.0001 0 0 1 0.0058594-0.007812l2.4004-2.9512c-0.14429-0.37438-0.50519-0.63867-0.93164-0.63867h-4zm5 3.7246-0.22461 0.27539h0.22461v-0.27539z" fill="currentColor"/>
 <path class="ColorScheme-Text" d="m3 5c-1.662 0-3 1.338-3 3v6c0 1.662 1.338 3 3 3h4.0293c-0.1043-0.32607-0.11005-0.68573-0.0058594-1h-4.0234c-1.108 0-2-0.892-2-2v-6c0-1.108 0.892-2 2-2h6.3008l0.78711-1zm9.9453 0c0.10403 0.32578 0.11025 0.68526 0.0059 1h4.0488c1.108 0 2 0.892 2 2v6c0 1.108-0.892 2-2 2h-6.3145l-0.78711 1h7.1016c1.662 0 3-1.338 3-3v-6c0-1.662-1.338-3-3-3zm8.0547 4v4c0.554 0 1-0.446 1-1v-2c0-0.554-0.446-1-1-1z" fill="currentColor" opacity=".5"/>
 <path class="ColorScheme-Text" d="m6.1581 11.592c0 0.23467 0.19781 0.39805 0.43229 0.40752h2.9766l-1.5932 4.3047c-0.22231 0.61747 0.43229 0.95094 0.83979 0.45698l4.854-5.9713c0.09878-0.11116 0.16048-0.24702 0.16048-0.37052 0-0.24702-0.19758-0.41954-0.44462-0.41993h-2.9642l1.5809-4.3047c0.22231-0.61754-0.43225-0.95102-0.82741-0.45698l-4.8662 5.9836c-0.098803 0.12352-0.14821 0.24704-0.14821 0.37056z" fill="currentColor"/>
</svg>
