<svg version="1.1" viewBox="0 0 22 22" xmlns="http://www.w3.org/2000/svg">
 <defs>
  <style id="current-color-scheme" type="text/css">.ColorScheme-Text {
                color:#f2f2f2;
            }</style>
 </defs>
 <path class="ColorScheme-Text" d="m11 4.5a0.75 0.75 0 0 0-0.75 0.75 0.75 0.75 0 0 0 0.75 0.75 0.75 0.75 0 0 0 0.75-0.75 0.75 0.75 0 0 0-0.75-0.75zm-4.1191 1.6855a0.75 0.75 0 0 0-0.47656 0.21875 0.75 0.75 0 0 0 0 1.0605 0.75 0.75 0 0 0 1.0605 0 0.75 0.75 0 0 0 0-1.0605 0.75 0.75 0 0 0-0.58398-0.21875zm8.1309 0a0.75 0.75 0 0 0-0.47656 0.21875 0.75 0.75 0 0 0 0 1.0605 0.75 0.75 0 0 0 1.0605 0 0.75 0.75 0 0 0 0-1.0605 0.75 0.75 0 0 0-0.58398-0.21875zm-4.0117 1.3145c-1.933 0-3.5 1.567-3.5 3.5 0 1.933 1.567 3.5 3.5 3.5 1.933 0 3.5-1.567 3.5-3.5 0-1.933-1.567-3.5-3.5-3.5zm0 1.5v4c-1.1046 0-2-0.89543-2-2 0-1.1046 0.89543-2 2-2zm-5.75 1.25a0.75 0.75 0 0 0-0.75 0.75 0.75 0.75 0 0 0 0.75 0.75 0.75 0.75 0 0 0 0.75-0.75 0.75 0.75 0 0 0-0.75-0.75zm11.5 0a0.75 0.75 0 0 0-0.75 0.75 0.75 0.75 0 0 0 0.75 0.75 0.75 0.75 0 0 0 0.75-0.75 0.75 0.75 0 0 0-0.75-0.75zm-9.8691 4.0684a0.75 0.75 0 0 0-0.47656 0.2168 0.75 0.75 0 0 0 0 1.0605 0.75 0.75 0 0 0 1.0605 0 0.75 0.75 0 0 0 0-1.0605 0.75 0.75 0 0 0-0.58398-0.2168zm8.1309 0a0.75 0.75 0 0 0-0.47656 0.2168 0.75 0.75 0 0 0 0 1.0605 0.75 0.75 0 0 0 1.0605 0 0.75 0.75 0 0 0 0-1.0605 0.75 0.75 0 0 0-0.58398-0.2168zm-4.0117 1.6816a0.75 0.75 0 0 0-0.75 0.75 0.75 0.75 0 0 0 0.75 0.75 0.75 0.75 0 0 0 0.75-0.75 0.75 0.75 0 0 0-0.75-0.75z" fill="currentColor"/>
</svg>
