<svg version="1.1" viewBox="0 0 22 22" xmlns="http://www.w3.org/2000/svg">
 <defs>
  <style id="current-color-scheme" type="text/css">.ColorScheme-Text { color:#f2f2f2; } .ColorScheme-Highlight { color:#4285f4; }</style>
 </defs>
 <path class="ColorScheme-Text" d="m9.3301 4c-0.84516 0-1.2762 0.23225-1.707 0.67969l-0.66211 0.71289c-0.38944 0.41429-0.6056 0.60742-1.252 0.60742h-0.20898-1c-1.385 0-2.5 1.115-2.5 2.5v7c0 1.385 1.115 2.5 2.5 2.5h13c1.385 0 2.5-1.115 2.5-2.5v-7c0-1.385-1.115-2.5-2.5-2.5h-0.5-0.75c-0.64634 0-0.85416-0.18485-1.252-0.60742l-0.66211-0.71289c-0.43084-0.44744-0.86199-0.67969-1.707-0.67969h-3.2988zm0.47266 1.5h2.3535c0.72912 0 0.9774 0.13176 1.4414 0.62891l0.63867 0.70508c0.41434 0.45572 0.80362 0.66602 1.541 0.66602h1.2227 0.5c0.554 0 1 0.446 1 1v7c0 0.554-0.446 1-1 1h-13c-0.554 0-1-0.446-1-1v-7c0-0.554 0.446-1 1-1h1 0.68164c0.73743 0 1.1267-0.20201 1.541-0.66602l0.63867-0.69531c0.46401-0.50543 0.71226-0.63867 1.4414-0.63867zm1.1973 2.5a3.5 3.5 0 0 0-3.5 3.5 3.5 3.5 0 0 0 3.5 3.5 3.5 3.5 0 0 0 3.5-3.5 3.5 3.5 0 0 0-3.5-3.5zm5.5 0.5c-0.55228 0-1 0.44772-1 1 0 0.55228 0.44772 1 1 1s1-0.44772 1-1c0-0.55228-0.44772-1-1-1zm-5.5 1a2 2 0 0 1 2 2 2 2 0 0 1-2 2 2 2 0 0 1-2-2 2 2 0 0 1 2-2z" fill="currentColor"/>
</svg>
