<svg version="1.1" viewBox="0 0 22 22" xmlns="http://www.w3.org/2000/svg">
 <defs>
  <style id="current-color-scheme" type="text/css">.ColorScheme-Text {
                color:#f2f2f2;
            }
            .ColorScheme-NegativeText {
                color:#da4453;
            }</style>
 </defs>
 <path class="ColorScheme-Text" d="m7.348 3.5c-1.6435 0-2.8643 0.76465-3.4707 2.2148l-1.3574 3.1367a6 6 0 0 1 1.9727-0.35156l0.99219-2.3477c0.29883-0.75586 0.9756-1.1523 1.8809-1.1523h7.2598c0.914 0 1.5918 0.39649 1.8906 1.1523l1.916 4.5332c-0.3515-0.1143-0.73924-0.18555-1.1523-0.18555h-8.3086a6 6 0 0 1 0.98242 1.5h7.3262c1.582 0 2.7207 1.1025 2.7207 2.5 0 1.5468-1.1387 2.5-2.7207 2.5h-7.3262a6 6 0 0 1-0.98828 1.5h8.3145c2.54 0 4.2168-1.6358 4.2168-4 0-0.7119-0.10351-1.2226-0.34961-1.8027l-3.0234-6.9824c-0.6152-1.4502-1.8359-2.2148-3.4707-2.2148zm10.152 10c-0.55228 0-1 0.44772-1 1s0.44772 1 1 1 1-0.44772 1-1-0.44772-1-1-1z" fill="currentColor"/>
 <g class="ColorScheme-NegativeText" transform="translate(-5,-37)" fill="currentColor">
  <path d="m9.5 47a4.5 4.5 0 0 0-4.5 4.5 4.5 4.5 0 0 0 4.5 4.5 4.5 4.5 0 0 0 4.5-4.5 4.5 4.5 0 0 0-4.5-4.5zm0 1.5a3 3 0 0 1 3 3 3 3 0 0 1-3 3 3 3 0 0 1-3-3 3 3 0 0 1 3-3zm0 1.5a1.5 1.5 0 0 0-1.5 1.5 1.5 1.5 0 0 0 1.5 1.5 1.5 1.5 0 0 0 1.5-1.5 1.5 1.5 0 0 0-1.5-1.5z"/>
  <path d="m9.5 48.5a3 3 0 0 0-3 3 3 3 0 0 0 3 3z" opacity=".35"/>
  <path d="m9.5 51.5v3a3 3 0 0 0 3-3z" opacity=".15"/>
 </g>
</svg>
