<svg width="22" height="22" version="1.1" xmlns="http://www.w3.org/2000/svg">
 <defs>
  <style id="current-color-scheme" type="text/css">.ColorScheme-Text { color:#f2f2f2; } .ColorScheme-Highlight { color:#4285f4; }</style>
 </defs>
 <path class="ColorScheme-Text" d="m10.961 3.0001c-0.39737 0.020013-0.71094 0.34748-0.71094 0.75v1.5c0 0.4155 0.3345 0.75 0.75 0.75s0.75-0.3345 0.75-0.75v-1.5c0-0.4155-0.3345-0.75-0.75-0.75-0.01298 0-0.02624-6.456e-4 -0.03906 0zm-5.0879 2.123c-0.19171 0-0.3824 0.073802-0.5293 0.2207-0.2938 0.2938-0.2938 0.76674 0 1.0605l1.0605 1.0605c0.2938 0.2938 0.76674 0.2938 1.0605 0 0.2938-0.2938 0.2938-0.76674 0-1.0605l-1.0605-1.0605c-0.1469-0.1469-0.33954-0.2207-0.53125-0.2207zm10.254 0c-0.19171 0-0.38435 0.073802-0.53125 0.2207l-1.0605 1.0605c-0.2938 0.2938-0.2938 0.76674 0 1.0605 0.2938 0.2938 0.76674 0.2938 1.0605 0l1.0605-1.0605c0.2938-0.2938 0.2938-0.76674 0-1.0605-0.1469-0.1469-0.33758-0.2207-0.5293-0.2207zm-5.127 2.377a3.5 3.5 0 0 0-3.5 3.5 3.5 3.5 0 0 0 3.5 3.5 3.5 3.5 0 0 0 3.5-3.5 3.5 3.5 0 0 0-3.5-3.5zm0 1.5a2 2 0 0 1 2 2 2 2 0 0 1-2 2 2 2 0 0 1-2-2 2 2 0 0 1 2-2zm-7.2891 1.25c-0.39737 0.020013-0.71094 0.34748-0.71094 0.75 0 0.4155 0.3345 0.75 0.75 0.75h1.5c0.4155 0 0.75-0.3345 0.75-0.75s-0.3345-0.75-0.75-0.75h-1.5c-0.012984 0-0.026244-6.46e-4 -0.039063 0zm13 0c-0.39737 0.020013-0.71094 0.34748-0.71094 0.75 0 0.4155 0.3345 0.75 0.75 0.75h1.5c0.4155 0 0.75-0.3345 0.75-0.75s-0.3345-0.75-0.75-0.75h-1.5c-0.01298 0-0.02624-6.46e-4 -0.03906 0zm-9.7773 4.0645c-0.19171 0-0.3824 0.0738-0.5293 0.2207l-1.0605 1.0605c-0.2938 0.2938-0.2938 0.76674 0 1.0605s0.76674 0.2938 1.0605 0l1.0605-1.0605c0.2938-0.2938 0.2938-0.76674 0-1.0605-0.1469-0.1469-0.33954-0.2207-0.53125-0.2207zm8.1328 0c-0.19171 0-0.38435 0.0738-0.53125 0.2207-0.2938 0.2938-0.2938 0.76674 0 1.0605l1.0605 1.0605c0.2938 0.2938 0.76674 0.2938 1.0605 0s0.2938-0.76674 0-1.0605l-1.0605-1.0605c-0.1469-0.1469-0.33758-0.2207-0.5293-0.2207zm-4.1055 1.6855c-0.39737 0.02001-0.71094 0.34748-0.71094 0.75v1.5c0 0.4155 0.3345 0.75 0.75 0.75s0.75-0.3345 0.75-0.75v-1.5c0-0.4155-0.3345-0.75-0.75-0.75-0.01298 0-0.02624-6.46e-4 -0.03906 0z" fill="currentColor"/>
</svg>
