<svg width="22" height="22" version="1.1" xmlns="http://www.w3.org/2000/svg">
 <style id="current-color-scheme" type="text/css">.ColorScheme-Text {
        color:#f2f2f2;
      }
      .ColorScheme-Background {
        color:#eff0f1;
      }
      .ColorScheme-Highlight {
        color:#3daee9;
      }
      .ColorScheme-ButtonText {
        color:#f2f2f2;
      }</style>
 <path class="ColorScheme-Text" d="m11 6v1h-1v1h1v3h-1v1h3v-1h-1v-5z" fill="currentColor"/>
 <path class="ColorScheme-Text" d="m7 2.998c-1.662 0-3 1.338-3 3v7c0 2 1 3.0003 3 4l4.0059 2.002 3.9941-2.002c1.9955-1 3-2 3-4v-7c0-1.662-1.338-3-3-3zm0 1.002h8c1.108 0 2 0.892 2 2v6c0 1.108-0.892 2-2 2h-8c-1.108 0-2-0.892-2-2v-6c0-1.108 0.892-2 2-2z" fill="currentColor"/>
</svg>
