<svg width="22" height="22" version="1.1" xmlns="http://www.w3.org/2000/svg">
 <defs>
  <style id="current-color-scheme" type="text/css">.ColorScheme-Text { color:#f2f2f2; } .ColorScheme-Highlight { color:#4285f4; }</style>
 </defs>
 <path class="ColorScheme-Text" d="m11 2c-0.91092 0.00132-1.7059 0.618-1.9336 1.5h-2.5664c-1.385 0-2.5 1.115-2.5 2.5v10.5c0 1.385 1.115 2.5 2.5 2.5h9c1.385 0 2.5-1.115 2.5-2.5v-10.5c0-1.385-1.115-2.5-2.5-2.5h-2.5645c-0.22791-0.88268-1.0239-1.4995-1.9355-1.5zm0 1.5c0.27614 0 0.5 0.22386 0.5 0.5 0 0.27614-0.22386 0.5-0.5 0.5s-0.5-0.22386-0.5-0.5c0-0.27614 0.22386-0.5 0.5-0.5zm-4.5 1.5h2.7734c0.35629 0.61712 1.014 0.99806 1.7266 1 0.71258-0.00194 1.3703-0.38288 1.7266-1h2.7734c0.554 0 1 0.446 1 1v10.5c0 0.554-0.446 1-1 1h-9c-0.554 0-1-0.446-1-1v-10.5c0-0.554 0.446-1 1-1zm1.5 3c-0.277 0-0.5 0.223-0.5 0.5s0.223 0.5 0.5 0.5h6c0.277 0 0.5-0.223 0.5-0.5s-0.223-0.5-0.5-0.5zm0 3c-0.277 0-0.5 0.223-0.5 0.5s0.223 0.5 0.5 0.5h4.5c0.277 0 0.5-0.223 0.5-0.5s-0.223-0.5-0.5-0.5z" fill="currentColor"/>
</svg>
