<svg width="22" height="22" version="1.1" xmlns="http://www.w3.org/2000/svg">
 <defs>
  <style id="current-color-scheme" type="text/css">.ColorScheme-Text { color:#f2f2f2; } .ColorScheme-Highlight { color:#4285f4; }</style>
 </defs>
 <path class="ColorScheme-Text" d="m5 4c-1.108 0-2 0.892-2 2v8c0 1.108 0.892 2 2 2h2c0 1.108 0.892 2 2 2h4c1.108 0 2-0.892 2-2h2c1.108 0 2-0.892 2-2v-8c0-1.108-0.892-2-2-2zm0 1h12c0.554 0 1 0.446 1 1v8c0 0.554-0.446 1-1 1h-3v1c0 0.554-0.446 1-1 1h-4c-0.554 0-1-0.446-1-1v-1h-3c-0.554 0-1-0.446-1-1v-8c0-0.554 0.446-1 1-1z" fill="currentColor"/>
 <circle class="ColorScheme-Text" cx="7" cy="10" r="1" fill="currentColor" opacity=".35"/>
 <circle class="ColorScheme-Text" cx="11" cy="10" r="1" fill="currentColor" opacity=".65"/>
 <circle class="ColorScheme-Text" cx="15" cy="10" r="1" fill="currentColor"/>
</svg>
