<svg width="22" height="22" version="1.1" xmlns="http://www.w3.org/2000/svg">
 <defs>
  <style id="current-color-scheme" type="text/css">.ColorScheme-Text { color:#f2f2f2; } .ColorScheme-Highlight { color:#4285f4; }</style>
 </defs>
 <g class="ColorScheme-Text" fill="currentColor">
  <path d="m10.998 6c-2.9344 0-5.7746 1.3383-7.2891 3.2188-0.10096 0.1199-0.10036 0.28393 0.019531 0.41016l0.88867 0.90234c0.13252 0.14511 0.34165 0.13776 0.48047-0.013672 1.5586-1.6471 3.6099-2.5176 5.9004-2.5176 1.4957 0 2.8841 0.36797 4.0996 1.0762 0.55083-0.36303 1.2064-0.57617 1.9062-0.57617 0.23436 0 0.4633 0.024999 0.68555 0.070312-1.6002-1.5275-4.1032-2.5703-6.6914-2.5703z" opacity=".35"/>
  <path d="m11.004 9.7305c-1.9814 0-3.7813 0.85818-4.7656 2.0508-0.10728 0.12622-0.094503 0.27657 0.025391 0.39648l0.99219 0.97852c0.15144 0.14517 0.35291 0.13235 0.49805-0.025391 0.76985-0.83932 2.0006-1.4321 3.25-1.4258 0.80043-0.004015 1.5897 0.23979 2.2617 0.63672 0.075868-0.0733 0.15523-0.14446 0.23828-0.21094v-0.13086c0-0.58166 0.14632-1.1332 0.4043-1.6191-0.8548-0.4069-1.8535-0.65039-2.9043-0.65039z" opacity=".35"/>
  <path d="m11.004 13.422c-0.90868 0-1.7228 0.47323-2.1582 1.0664-0.075745 0.1136-0.038904 0.2521 0.068359 0.35938l1.5469 1.4883c0.25237 0.23981 0.39154 0.31641 0.54297 0.31641 0.15149 0 0.28226-0.070297 0.54102-0.31641l0.95898-0.92188v-1.4141c0-0.041507 0.003504-0.082405 0.00586-0.12305-0.42257-0.27502-0.94786-0.45508-1.5059-0.45508z" opacity=".35"/>
 </g>
 <path class="ColorScheme-Text" d="m17.003 10c-1.108 0-2 0.892-2 2v1c-0.554 0-1 0.446-1 1v3c0 0.554 0.446 1 1 1h4c0.554 0 1-0.446 1-1v-3c0-0.554-0.446-1-1-1v-1c0-1.108-0.892-2-2-2zm0 1c0.554 0 1 0.446 1 1v1h-2v-1c0-0.554 0.446-1 1-1z" fill="currentColor"/>
</svg>
