<svg width="22" height="22" version="1.1" xmlns="http://www.w3.org/2000/svg">
 <defs>
  <style id="current-color-scheme" type="text/css">.ColorScheme-Text { color:#f2f2f2; } .ColorScheme-NegativeText { color:#e74c3c; }</style>
 </defs>
 <g class="ColorScheme-Text" fill="currentColor">
  <path d="m10.998 6c-2.9344 0-5.7746 1.3383-7.2891 3.2188-0.10096 0.1199-0.10036 0.28393 0.019531 0.41016l0.88867 0.90234c0.13252 0.14511 0.34165 0.13776 0.48047-0.013672 1.5586-1.6471 3.6099-2.5176 5.9004-2.5176 1.3016 0 2.5211 0.27791 3.6172 0.81641a6 6 0 0 1 1.8848-0.31641 6 6 0 0 1 1.2539 0.13477c-1.5968-1.5622-4.1317-2.6348-6.7559-2.6348z"/>
  <path d="m11.004 9.7305c-1.9814 0-3.7813 0.85818-4.7656 2.0508-0.10728 0.12622-0.094503 0.27657 0.025391 0.39648l0.99219 0.97852c0.15144 0.14517 0.35291 0.13235 0.49805-0.025391 0.76985-0.83932 2.0006-1.4321 3.25-1.4258 0.067376-3.38e-4 0.13401 0.002731 0.20117 0.00586a6 6 0 0 1 1.418-1.7852c-0.51654-0.12575-1.0598-0.19531-1.6191-0.19531z"/>
  <path d="m10.602 13.453c-0.74251 0.11407-1.3859 0.53111-1.7559 1.0352-0.075745 0.1136-0.038904 0.2521 0.068359 0.35938l1.5469 1.4883c0.20118 0.19117 0.33039 0.2773 0.45117 0.30469a6 6 0 0 1-0.41211-2.1406 6 6 0 0 1 0.10156-1.0469z"/>
 </g>
 <path class="ColorScheme-NegativeText" d="m16.5 10a4.5 4.5 0 0 0-4.5 4.5 4.5 4.5 0 0 0 4.5 4.5 4.5 4.5 0 0 0 4.5-4.5 4.5 4.5 0 0 0-4.5-4.5zm-2.1211 1.8789c0.12781 0 0.25558 0.04855 0.35352 0.14648l1.7676 1.7676 1.7676-1.7676c0.19587-0.19587 0.51116-0.19587 0.70703 0 0.19587 0.19587 0.19587 0.51116 0 0.70703l-1.7676 1.7676 1.7676 1.7676c0.19587 0.19587 0.19587 0.51116 0 0.70703-0.19587 0.19587-0.51116 0.19587-0.70703 0l-1.7676-1.7676-1.7676 1.7676c-0.19587 0.19587-0.51116 0.19587-0.70703 0-0.19587-0.19587-0.19587-0.51116 0-0.70703l1.7676-1.7676-1.7676-1.7676c-0.19587-0.19587-0.19587-0.51116 0-0.70703 0.09793-0.09793 0.22571-0.14648 0.35352-0.14648z" fill="currentColor"/>
</svg>
