<svg width="22" height="22" version="1.1" xmlns="http://www.w3.org/2000/svg">
 <defs>
  <style id="current-color-scheme" type="text/css">.ColorScheme-Text { color:#f2f2f2; } .ColorScheme-Highlight { color:#4285f4; }</style>
 </defs>
 <path class="ColorScheme-Text" d="m10.995 6.9867c0.658 0 1.192 0.196 1.604 0.586 0.412 0.383 0.617 0.874 0.617 1.474 0 0.26-0.068 0.524-0.205 0.792-0.138 0.267-0.26 0.457-0.368 0.573-0.13997 0.1464-0.28506 0.28782-0.435 0.424l-0.052 0.055c-0.44 0.397-0.661 0.792-0.661 1.19v0.435h-1.02v-0.51c0-0.326 0.068-0.603 0.205-0.834 0.137-0.239 0.38-0.518 0.726-0.836 0.196-0.18 0.332-0.314 0.412-0.401 0.087-0.094 0.17-0.219 0.25-0.378 0.087-0.166 0.13-0.337 0.13-0.51 0-0.332-0.109-0.6-0.325-0.802-0.21-0.202-0.502-0.305-0.878-0.305-0.622 0-1.047 0.348-1.279 1.042l-0.932-0.39c0.152-0.413 0.413-0.782 0.781-1.108 0.376-0.332 0.852-0.497 1.43-0.497zm-0.01 6.526c0.21 0 0.383 0.072 0.52 0.216 0.145 0.145 0.217 0.319 0.217 0.521s-0.072 0.376-0.217 0.52c-0.137 0.145-0.31 0.217-0.52 0.217-0.41079 0.0092-0.74622-0.32621-0.737-0.737-0.0086-0.41055 0.32645-0.74562 0.737-0.737z" fill="currentColor"/>
 <path class="ColorScheme-Text" d="m5 4c-1.108 0-2 0.892-2 2v8c0 1.108 0.892 2 2 2h2c0 1.108 0.892 2 2 2h4c1.108 0 2-0.892 2-2h2c1.108 0 2-0.892 2-2v-8c0-1.108-0.892-2-2-2zm0 1h12c0.554 0 1 0.446 1 1v8c0 0.554-0.446 1-1 1h-3v1c0 0.554-0.446 1-1 1h-4c-0.554 0-1-0.446-1-1v-1h-3c-0.554 0-1-0.446-1-1v-8c0-0.554 0.446-1 1-1z" fill="currentColor"/>
</svg>
