<svg version="1.1" viewBox="0 0 22 22" xmlns="http://www.w3.org/2000/svg">
 <style id="current-color-scheme" type="text/css">.ColorScheme-Text {
        color:#f2f2f2;
      }
      .ColorScheme-Highlight {
        color:#3498db;
      }</style>
 <path class="ColorScheme-Text" d="m5 4c-1.108 0-2 0.892-2 2v8c0 1.108 0.892 2 2 2h2c0 1.108 0.892 2 2 2h4c1.108 0 2-0.892 2-2h2c1.108 0 2-0.892 2-2v-8c0-1.108-0.892-2-2-2zm0 1h12c0.554 0 1 0.446 1 1v8c0 0.554-0.446 1-1 1h-3v1c0 0.554-0.446 1-1 1h-4c-0.554 0-1-0.446-1-1v-1h-3c-0.554 0-1-0.446-1-1v-8c0-0.554 0.446-1 1-1z" fill="currentColor"/>
 <path class="ColorScheme-Highlight" d="m8.5 8c-0.277 0-0.5 0.223-0.5 0.5v3c0 0.277 0.223 0.5 0.5 0.5s0.5-0.223 0.5-0.5v-3c0-0.277-0.223-0.5-0.5-0.5zm5 0c-0.277 0-0.5 0.223-0.5 0.5v3c0 0.277 0.223 0.5 0.5 0.5s0.5-0.223 0.5-0.5v-3c0-0.277-0.223-0.5-0.5-0.5z" fill="currentColor"/>
</svg>
