<svg width="22" height="22" version="1.1" xmlns="http://www.w3.org/2000/svg">
 <defs>
  <style id="current-color-scheme" type="text/css">.ColorScheme-Text { color:#f2f2f2; } .ColorScheme-Highlight { color:#4285f4; }</style>
 </defs>
 <path class="ColorScheme-Text" d="m5 4c-1.108 0-2 0.892-2 2v8c0 1.108 0.892 2 2 2h2c0 1.108 0.892 2 2 2h4c1.108 0 2-0.892 2-2h2c1.108 0 2-0.892 2-2v-8c0-1.108-0.892-2-2-2zm0 1h12c0.554 0 1 0.446 1 1v8c0 0.554-0.446 1-1 1h-3v1c0 0.554-0.446 1-1 1h-4c-0.554 0-1-0.446-1-1v-1h-3c-0.554 0-1-0.446-1-1v-8c0-0.554 0.446-1 1-1z" fill="currentColor" opacity=".35"/>
 <path class="ColorScheme-Text" d="m8.5 8c-0.277 0-0.5 0.223-0.5 0.5v3c0 0.277 0.223 0.5 0.5 0.5s0.5-0.223 0.5-0.5v-3c0-0.277-0.223-0.5-0.5-0.5zm5 0c-0.277 0-0.5 0.223-0.5 0.5v3c0 0.277 0.223 0.5 0.5 0.5s0.5-0.223 0.5-0.5v-3c0-0.277-0.223-0.5-0.5-0.5z" fill="currentColor" opacity=".35"/>
 <rect class="ColorScheme-Text" transform="rotate(45)" x="4.5563" y="-.5" width="22" height="1" rx=".5" ry=".5" color="#f2f2f2" fill="currentColor"/>
</svg>
