<svg width="22" height="22" version="1.1" xmlns="http://www.w3.org/2000/svg">
 <style id="current-color-scheme" type="text/css">.ColorScheme-Text {
        color:#f2f2f2;
      }
      .ColorScheme-Background {
        color:#eff0f1;
      }
      .ColorScheme-Highlight {
        color:#3498db;
      }
      .ColorScheme-ViewText {
        color:#f2f2f2;
      }
      .ColorScheme-ViewBackground {
        color:#fcfcfc;
      }
      .ColorScheme-ViewHover {
        color:#93cee9;
      }
      .ColorScheme-ViewFocus{
        color:#3daee9;
      }
      .ColorScheme-ButtonText {
        color:#f2f2f2;
      }
      .ColorScheme-ButtonBackground {
        color:#eff0f1;
      }
      .ColorScheme-ButtonHover {
        color:#93cee9;
      }
      .ColorScheme-ButtonFocus{
        color:#3daee9;
      }
      .ColorScheme-NegativeText{
        color:#e74c3c;
      }</style>
 <path class="ColorScheme-Text" d="m17 11c-1.108 0-2 0.892-2 2v2h-1v3h6v-3h-1v-2c0-1.108-0.892-2-2-2zm0 1c0.554 0 1 0.446 1 1v2h-2v-2c0-0.554 0.446-1 1-1z" fill="currentColor"/>
 <path class="ColorScheme-Text" d="m5 4c-1.385 0-2.5 1.115-2.5 2.5v6.5c0 1.385 1.115 2.5 2.5 2.5h7.5v-0.5c0.13778-0.45547 0.48348-0.81856 0.93164-0.97852-0.058413-0.014507-0.11862-0.021484-0.18164-0.021484h-8.25c-0.554 0-1-0.446-1-1v-6.5c0-0.554 0.446-1 1-1h5.75c0.4155 0 0.75-0.3345 0.75-0.75s-0.3345-0.75-0.75-0.75h-3.5zm9 0c-0.554 0-1 0.446-1 1v5c0 0.554 0.446 1 1 1h0.13867c0.63709-0.90303 1.688-1.5 2.8613-1.5h-2.5v-1.5h3.5v1.5h-1c0.91834 0 1.7621 0.36512 2.3906 0.95703 0.070282-0.13698 0.10938-0.29192 0.10938-0.45703v-5c0-0.554-0.446-1-1-1zm0.5 1.5h3.5v1h-3.5zm-7.75 11c-0.4155 0-0.75 0.3345-0.75 0.75s0.3345 0.75 0.75 0.75h5.75v-1.5z" fill="currentColor"/>
</svg>
