<svg width="22" height="22" version="1.1" xmlns="http://www.w3.org/2000/svg">
 <defs>
  <style id="current-color-scheme" type="text/css">.ColorScheme-Text { color:#f2f2f2; } .ColorScheme-Highlight { color:#4285f4; }</style>
 </defs>
 <g class="ColorScheme-Text" fill="currentColor">
  <path d="m10.993 5.5c0.90473 0 1.639 0.26949 2.2054 0.80573 0.56648 0.52661 0.84835 1.2017 0.84835 2.0267 0 0.35749-0.0935 0.72048-0.28324 1.089-0.18837 0.36711-0.35474 0.62836-0.50461 0.78786a11.852 11.852 0 0 1-0.59811 0.58298l-0.07149 0.07563c-0.60499 0.54586-0.90886 1.089-0.90886 1.6362v0.59811h-1.4038v-0.70123c0-0.44824 0.0935-0.8291 0.28324-1.1467 0.18837-0.32862 0.52249-0.71223 0.99822-1.1495 0.26812-0.24749 0.45649-0.43174 0.56649-0.55136 0.11825-0.12925 0.23374-0.30112 0.34374-0.51974 0.11825-0.22824 0.17874-0.46336 0.17874-0.70123 0-0.45649-0.14987-0.82498-0.44824-1.1027-0.28874-0.27912-0.68886-0.41936-1.2058-0.41936-0.85523 0-1.441 0.47849-1.7586 1.4327l-1.2815-0.53624c0.20899-0.56786 0.56786-1.0752 1.0738-1.5235 0.51699-0.45649 1.1715-0.68336 1.9662-0.68336zm-0.01375 8.973c0.28874 0 0.52661 0.09899 0.71498 0.29699 0.19937 0.19937 0.29699 0.43861 0.29699 0.71636 0 0.27774-0.09763 0.51699-0.29699 0.71498-0.18837 0.19937-0.42624 0.29837-0.71498 0.29837a0.99135 0.99135 0 0 1-1.0147-1.0133 0.99272 0.99272 0 0 1 1.0133-1.0133z" stroke-width="1.375"/>
  <path d="m4.6174 10.531c0.13252 0.14511 0.34077 0.13879 0.47959-0.01264 1.5586-1.6471 3.6096-2.5178 5.9001-2.5178 2.3096 0 4.3668 0.87081 5.9192 2.5305 0.13253 0.13247 0.33443 0.12615 0.46698-0.01264l0.8834-0.88979c0.12622-0.12621 0.12622-0.29027 0.02528-0.41017-1.5208-1.8741-4.3542-3.2183-7.2948-3.2183-2.9344 0-5.774 1.3378-7.2885 3.2183-0.10096 0.1199-0.10096 0.28396 0.018932 0.41019z" opacity=".35"/>
  <path d="m7.2551 13.156c0.15144 0.14517 0.35338 0.13254 0.49852-0.0252 0.76985-0.83932 2.0004-1.4325 3.2498-1.4262 1.2558-0.0063 2.4863 0.59951 3.2751 1.4451 0.13247 0.15149 0.3218 0.14517 0.4669 0l0.99075-0.97179c0.11991-0.11358 0.13253-0.27132 0.02526-0.39755-0.98442-1.1926-2.7829-2.0508-4.7581-2.0508-1.9814 0-3.78 0.8582-4.7643 2.0508-0.10728 0.12622-0.094656 0.27764 0.025238 0.39755z" opacity=".35"/>
 </g>
</svg>
