<svg width="22" height="22" version="1.1" xmlns="http://www.w3.org/2000/svg">
 <defs>
  <style id="current-color-scheme" type="text/css">.ColorScheme-Text { color:#f2f2f2; } .ColorScheme-Highlight { color:#4285f4; }</style>
 </defs>
 <path class="ColorScheme-Text" d="m5 4c-1.385 0-2.5 1.115-2.5 2.5v6.5c0 1.385 1.115 2.5 2.5 2.5h8.25c0.4155 0 0.75-0.3345 0.75-0.75s-0.3345-0.75-0.75-0.75h-8.25c-0.554 0-1-0.446-1-1v-6.5c0-0.554 0.446-1 1-1h5.75c0.4155 0 0.75-0.3345 0.75-0.75s-0.3345-0.75-0.75-0.75h-3.5-2.25zm9 0c-0.554 0-1 0.446-1 1v5c0 0.554 0.446 1 1 1v-4.25c0-1.2206 1.0294-2.25 2.25-2.25s2.25 1.0294 2.25 2.25v4.25c0.554 0 1-0.446 1-1v-5c0-0.554-0.446-1-1-1h-4.5zm-7.25 12.5c-0.4155 0-0.75 0.3345-0.75 0.75s0.3345 0.75 0.75 0.75h6.5c0.4155 0 0.75-0.3345 0.75-0.75s-0.3345-0.75-0.75-0.75h-6.5z" fill="currentColor"/>
 <path d="m16.25 6c-0.4155 0-0.75 0.3345-0.75 0.75v7.5c0 0.4155 0.3345 0.75 0.75 0.75s0.75-0.3345 0.75-0.75v-7.5c0-0.4155-0.3345-0.75-0.75-0.75zm-0.03809 10.5c-0.39736 0.02001-0.71191 0.34749-0.71191 0.75 0 0.4155 0.3345 0.75 0.75 0.75s0.75-0.3345 0.75-0.75-0.3345-0.75-0.75-0.75c-0.01305 0-0.02528-6.45e-4 -0.03808 0z" fill="#ff5555" stroke-linecap="round" stroke-linejoin="round" stroke-width="3"/>
</svg>
