<svg width="22" height="22" version="1.1" xmlns="http://www.w3.org/2000/svg">
 <defs>
  <style id="current-color-scheme" type="text/css">.ColorScheme-Text {
        color:#f2f2f2;
      }
      .ColorScheme-NegativeText{
        color:#e74c3c;
      }</style>
 </defs>
 <path class="ColorScheme-Text" d="m19.893 11c-0.0078-0.91918-1.262-1.6436-2.7965-1.6436h-3.2015c-0.43623 0-0.59984-0.0779-0.86466-0.36611l-5.2814-5.7098c-0.17137-0.18695-0.3739-0.28043-0.5998-0.28043h-1.0049c-0.20254 0-0.31937 0.18695-0.22591 0.39727l2.7342 5.9513-3.9961 0.444-1.4255-2.5394c-0.10906-0.19475-0.27264-0.28043-0.5297-0.28043h-0.35054c-0.21032 0-0.35053 0.14021-0.35053 0.35053v7.3534c0 0.21032 0.14022 0.35053 0.35053 0.35053h0.35054c0.25706 0 0.42064-0.0856 0.5297-0.28042l1.4255-2.5472 3.9961 0.45183-2.7342 5.9513c-0.09347 0.21031 0.02337 0.39732 0.22591 0.39732h1.0049c0.2259 0 0.42842-0.1013 0.5998-0.28042l5.2814-5.7098c0.26482-0.28822 0.42843-0.36613 0.86466-0.36613h3.2015c1.5345 0 2.7887-0.73225 2.7965-1.6436z" fill="currentColor" opacity=".35"/>
 <rect class="ColorScheme-Text" transform="rotate(45)" x="4.5563" y="-.5" width="22" height="1" rx=".5" ry=".5" fill="currentColor"/>
</svg>
