<svg width="22" height="22" version="1.1" xmlns="http://www.w3.org/2000/svg">
 <style id="current-color-scheme" type="text/css">.ColorScheme-Text {
        color:#f2f2f2;
      }
      .ColorScheme-Background {
        color:#eff0f1;
      }
      .ColorScheme-Highlight {
        color:#3498db;
      }
      .ColorScheme-ViewText {
        color:#f2f2f2;
      }
      .ColorScheme-ViewBackground {
        color:#fcfcfc;
      }
      .ColorScheme-ViewHover {
        color:#93cee9;
      }
      .ColorScheme-ViewFocus{
        color:#3daee9;
      }
      .ColorScheme-ButtonText {
        color:#f2f2f2;
      }
      .ColorScheme-ButtonBackground {
        color:#eff0f1;
      }
      .ColorScheme-ButtonHover {
        color:#93cee9;
      }
      .ColorScheme-ButtonFocus{
        color:#3daee9;
      }
      .ColorScheme-NegativeText{
        color:#e74c3c;
      }</style>
 <path d="m13 18 3-5 3 5z" color="#000000" fill="#fdbc4b" fill-rule="evenodd" style="-inkscape-stroke:none"/>
 <path class="ColorScheme-Text" d="m5 4c-1.108 0-2 0.892-2 2v8c0 1.108 0.892 2 2 2h2c0 1.108 0.892 2 2 2h2.834l0.59961-1h-3.4336c-0.554 0-1-0.446-1-1v-1h-3c-0.554 0-1-0.446-1-1v-8c0-0.554 0.446-1 1-1h12c0.554 0 1 0.446 1 1v8c0 0.10701-0.01994 0.20817-0.05078 0.30469l0.58594 0.97852c0.29014-0.34696 0.46484-0.79348 0.46484-1.2832v-8c0-1.108-0.892-2-2-2z" fill="currentColor"/>
 <path class="ColorScheme-Text" d="m8.5 8c-0.277 0-0.5 0.223-0.5 0.5v3c0 0.277 0.223 0.5 0.5 0.5s0.5-0.223 0.5-0.5v-3c0-0.277-0.223-0.5-0.5-0.5zm5 0c-0.277 0-0.5 0.223-0.5 0.5v3c0 0.277 0.223 0.5 0.5 0.5s0.5-0.223 0.5-0.5v-3c0-0.277-0.223-0.5-0.5-0.5z" fill="currentColor"/>
</svg>
