<svg width="22" height="22" version="1.1" xmlns="http://www.w3.org/2000/svg">
 <defs>
  <style id="current-color-scheme" type="text/css">.ColorScheme-Text { color:#f2f2f2; } .ColorScheme-Highlight { color:#4285f4; }</style>
 </defs>
 <path class="ColorScheme-Text" d="m5 4c-1.385 0-2.5 1.115-2.5 2.5v6.5c0 1.385 1.115 2.5 2.5 2.5h8.25c0.4155 0 0.75-0.3345 0.75-0.75s-0.3345-0.75-0.75-0.75h-8.25c-0.554 0-1-0.446-1-1v-6.5c0-0.554 0.446-1 1-1h5.75c0.4155 0 0.75-0.3345 0.75-0.75s-0.3345-0.75-0.75-0.75h-3.5zm9 0c-0.554 0-1 0.446-1 1v5c0 0.554 0.446 1 1 1h1.5v6.25c0 0.4155 0.3345 0.75 0.75 0.75s0.75-0.3345 0.75-0.75v-6.25h1.5c0.554 0 1-0.446 1-1v-5c0-0.554-0.446-1-1-1zm0.5 1.5h3.5v1h-3.5zm0 2.5h3.5v1.5h-3.5zm-7.75 8.5c-0.4155 0-0.75 0.3345-0.75 0.75s0.3345 0.75 0.75 0.75h6.5c0.4155 0 0.75-0.3345 0.75-0.75s-0.3345-0.75-0.75-0.75z" fill="currentColor"/>
</svg>
