<svg width="22" height="22" version="1.1" xmlns="http://www.w3.org/2000/svg">
 <style id="current-color-scheme" type="text/css">.ColorScheme-Text {
        color:#f2f2f2;
      }
      .ColorScheme-Background {
        color:#eff0f1;
      }
      .ColorScheme-Highlight {
        color:#3498db;
      }
      .ColorScheme-ViewText {
        color:#f2f2f2;
      }
      .ColorScheme-ViewBackground {
        color:#fcfcfc;
      }
      .ColorScheme-ViewHover {
        color:#93cee9;
      }
      .ColorScheme-ViewFocus{
        color:#3daee9;
      }
      .ColorScheme-ButtonText {
        color:#f2f2f2;
      }
      .ColorScheme-ButtonBackground {
        color:#eff0f1;
      }
      .ColorScheme-ButtonHover {
        color:#93cee9;
      }
      .ColorScheme-ButtonFocus{
        color:#3daee9;
      }
      .ColorScheme-NegativeText{
        color:#e74c3c;
      }</style>
 <path class="ColorScheme-Text" d="m5 4c-1.385 0-2.5 1.115-2.5 2.5v6.5c0 1.385 1.115 2.5 2.5 2.5h7.5293l0.5-0.5-0.99805-1h-7.0312c-0.554 0-1-0.446-1-1v-6.5c0-0.554 0.446-1 1-1h5.75c0.4155 0 0.75-0.3345 0.75-0.75s-0.3345-0.75-0.75-0.75h-3.5-2.25zm9 0c-0.554 0-1 0.446-1 1v5c0 0.24154 0.085019 0.4623 0.22656 0.63477a1.5002 1.5002 0 0 1 1.6816 0.30469l0.060547 0.060547h0.53125v0.53125l0.5 0.5 1-1v-0.03125h0.03125l0.060547-0.060547a1.5002 1.5002 0 0 1 1.9844-0.12109c0.25673-0.18066 0.42383-0.47922 0.42383-0.81836v-5c0-0.554-0.446-1-1-1h-4.5zm0.5 1.5h3.5v1h-3.5v-1zm0 2.5h3.5v1.5h-3.5v-1.5zm-7.75 8.5c-0.4155 0-0.75 0.3345-0.75 0.75s0.3345 0.75 0.75 0.75h5.0137a1.5002 1.5002 0 0 1-0.11328-1.5h-4.9004z" fill="currentColor"/>
 <path class="ColorScheme-NegativeText" d="M 13.84845,12 13,12.848437 15.15156,15 13,17.151563 13.84845,18 16.00001,15.848436 18.15155,18 19,17.151563 16.84844,15 19,12.848437 18.15155,12 16.00001,14.151563 Z" fill="currentColor"/>
</svg>
