<svg width="22" height="22" version="1.1" xmlns="http://www.w3.org/2000/svg">
 <style id="current-color-scheme" type="text/css">.ColorScheme-Text {
            color:#f2f2f2;
        }
        .ColorScheme-Highlight {
            color:#3daee9;
        }
        .ColorScheme-NegativeText {
            color:#da4453;
        }</style>
 <path class="ColorScheme-Text" d="m11 3a1 1 0 0 0-0.99414 1.0996 4.988 4.988 0 0 0-4.0059 4.9004v4.5l-2 2v0.5h14v-0.5l-2-2v-3.6328a4 4 0 0 1-1 0.12109v3.9336l1 1.0781h-10l1-1.0781v-4.9219a4 4 0 0 1 4-4 4 4 0 0 1 0.13672 0.0039062 4 4 0 0 1 0.73828-1.4824 1 1 0 0 0-0.875-0.52148zm-2 14a2 2 0 0 0 2 2 2 2 0 0 0 2-2h-0.27148-3.459-0.26953z" fill="currentColor"/>
 <path class="ColorScheme-Highlight" d="m18 6a3 3 0 0 1-6 0 3 3 0 1 1 6 0z" fill="currentColor"/>
</svg>
