<svg width="64" height="64" version="1.1" viewBox="0 0 16.933 16.933" xmlns="http://www.w3.org/2000/svg">
 <defs>
  <linearGradient id="linearGradient991" x1="4" x2="8" y1="31.97" y2="31.97" gradientTransform="scale(.26458)" gradientUnits="userSpaceOnUse">
   <stop stop-color="#662323" offset="0"/>
   <stop stop-color="#832e2d" offset=".48612"/>
   <stop stop-color="#702626" offset="1"/>
  </linearGradient>
  <linearGradient id="linearGradient1019" x1="7.5792" x2="57.586" y1="53.171" y2="53.171" gradientUnits="userSpaceOnUse">
   <stop stop-color="#2b1c0b" offset="0"/>
   <stop stop-color="#cfcdc2" offset=".16568"/>
   <stop stop-color="#c6c4bb" offset=".82458"/>
   <stop stop-color="#5a4c3a" offset="1"/>
  </linearGradient>
 </defs>
 <g shape-rendering="auto">
  <path d="m4.3693 0.52916c-2.1142 0-3.8402 1.7835-3.8402 3.9682v8.4675c0 2.1846 1.726 3.9682 3.8402 3.9682h8.1944c2.1142 0 3.8402-1.7835 3.8402-3.9682v-8.4675c0-2.1846-1.726-3.9682-3.8402-3.9682zm0.25704 0.52089h7.6808c1.8443 0 3.3291 1.5342 3.3291 3.44v7.9368c0 1.9058-1.4847 3.44-3.3291 3.44h-7.6808c-1.8443 0-3.3291-1.5342-3.3291-3.44v-7.9368c0-1.9058 1.4847-3.44 3.3291-3.44z" color="#000000" color-rendering="auto" dominant-baseline="auto" image-rendering="auto" opacity=".01" solid-color="#000000" stop-color="#000000" style="font-feature-settings:normal;font-variant-alternates:normal;font-variant-caps:normal;font-variant-east-asian:normal;font-variant-ligatures:normal;font-variant-numeric:normal;font-variant-position:normal;font-variation-settings:normal;inline-size:0;isolation:auto;mix-blend-mode:normal;shape-margin:0;shape-padding:0;text-decoration-color:#000000;text-decoration-line:none;text-decoration-style:solid;text-indent:0;text-orientation:mixed;text-transform:none;white-space:normal"/>
  <path d="m4.3587 0.79373c-1.9668 0-3.5639 1.6528-3.5639 3.6876v8.4996c0 2.0348 1.5971 3.6876 3.5639 3.6876h8.2162c1.9668 0 3.5644-1.6528 3.5644-3.6876v-8.4996c0-2.0348-1.5976-3.6876-3.5644-3.6876zm0.27222 0.25631h7.6718c1.8422 0 3.3251 1.5342 3.3251 3.44v7.9368c0 1.9058-1.483 3.44-3.3251 3.44h-7.6718c-1.8422 0-3.3251-1.5342-3.3251-3.44v-7.9368c0-1.9058 1.483-3.44 3.3251-3.44z" color="#000000" color-rendering="auto" dominant-baseline="auto" image-rendering="auto" opacity=".01" solid-color="#000000" stop-color="#000000" style="font-feature-settings:normal;font-variant-alternates:normal;font-variant-caps:normal;font-variant-east-asian:normal;font-variant-ligatures:normal;font-variant-numeric:normal;font-variant-position:normal;font-variation-settings:normal;inline-size:0;isolation:auto;mix-blend-mode:normal;shape-margin:0;shape-padding:0;text-decoration-color:#000000;text-decoration-line:none;text-decoration-style:solid;text-indent:0;text-orientation:mixed;text-transform:none;white-space:normal"/>
  <g>
   <path d="m4.3097 1.0583c-1.8657 0-3.3751 1.5383-3.3751 3.439v8.4675c0 1.9007 1.57 3.439 3.4357 3.439h8.1996c1.8657 0 3.4274-1.5383 3.4274-3.439v-8.4675c0-1.9007-1.51-3.439-3.3756-3.439h-0.09688c1.794 0.086515 3.2138 1.5819 3.2138 3.4318v7.9368c0 1.9058-1.5059 3.44-3.3766 3.44h-7.7905c-1.8707 0-3.3766-1.5342-3.3766-3.44v-7.9368c0-1.8498 1.4199-3.3451 3.2138-3.4318z" color="#000000" color-rendering="auto" dominant-baseline="auto" image-rendering="auto" opacity=".03" solid-color="#000000" stop-color="#000000" style="font-feature-settings:normal;font-variant-alternates:normal;font-variant-caps:normal;font-variant-east-asian:normal;font-variant-ligatures:normal;font-variant-numeric:normal;font-variant-position:normal;font-variation-settings:normal;inline-size:0;isolation:auto;mix-blend-mode:normal;shape-margin:0;shape-padding:0;text-decoration-color:#000000;text-decoration-line:none;text-decoration-style:solid;text-indent:0;text-orientation:mixed;text-transform:none;white-space:normal"/>
   <path transform="scale(.26458)" d="m4 46.969v2.0312c0 6.6479 5.8957 12 12.544 12h30.961c6.6479 0 12.495-5.3521 12.495-12v-1.9922c-0.021173 7.1849-5.81 12.963-13 12.963h-29.998c-7.2032 0-13.002-5.7987-13.002-13.002z" color="#000000" color-rendering="auto" dominant-baseline="auto" image-rendering="auto" opacity=".03" solid-color="#000000" stop-color="#000000" style="font-feature-settings:normal;font-variant-alternates:normal;font-variant-caps:normal;font-variant-east-asian:normal;font-variant-ligatures:normal;font-variant-numeric:normal;font-variant-position:normal;font-variation-settings:normal;inline-size:0;isolation:auto;mix-blend-mode:normal;shape-margin:0;shape-padding:0;text-decoration-color:#000000;text-decoration-line:none;text-decoration-style:solid;text-indent:0;text-orientation:mixed;text-transform:none;white-space:normal"/>
   <path d="m1.0583 11.906v0.59234c0 1.9386 1.5729 3.4993 3.3318 3.4993h8.1603c1.7589 0 3.3243-1.5608 3.3243-3.4993v-0.58095c-0.0056 2.0952-1.5372 3.7801-3.4395 3.7801h-7.9368c-1.9058 0-3.44-1.691-3.44-3.7915z" color="#000000" color-rendering="auto" dominant-baseline="auto" image-rendering="auto" opacity=".05" solid-color="#000000" stop-color="#000000" style="font-feature-settings:normal;font-variant-alternates:normal;font-variant-caps:normal;font-variant-east-asian:normal;font-variant-ligatures:normal;font-variant-numeric:normal;font-variant-position:normal;font-variation-settings:normal;inline-size:0;isolation:auto;mix-blend-mode:normal;shape-margin:0;shape-padding:0;text-decoration-color:#000000;text-decoration-line:none;text-decoration-style:solid;text-indent:0;text-orientation:mixed;text-transform:none;white-space:normal"/>
  </g>
 </g>
 <rect x="1.0583" y="1.0583" width="14.816" height="14.816" rx="3.44" ry="3.44" fill="#ab4d4c" stroke-width=".99996"/>
 <g fill="none" stroke="#000" stroke-linecap="round" stroke-linejoin="round" stroke-opacity=".99568">
  <path transform="scale(.26458)" d="m57.586 48.342c-2.4872 2.2628-5.8738 3.6582-9.625 3.6582h-31.922c-3.0041 0-5.7638-0.9069-8.0254-2.4258 0 0-0.6783 1.2759-0.33984 2 1.7256 3.6917 5.9473 6.4258 10.4 6.4258h27.854c5.6121 0 10.293-4.0885 11.658-9.6582z" opacity=".02" stroke-width="4"/>
  <path transform="scale(.26458)" d="m57.586 48.342c-2.4872 2.2628-5.8738 3.6582-9.625 3.6582h-31.922c-3.0041 0-5.7638-0.9069-8.0254-2.4258 0 0-0.6783 1.2759-0.33984 2 1.7256 3.6917 5.9473 6.4258 10.4 6.4258h27.854c5.6121 0 10.293-4.0885 11.658-9.6582z" opacity=".05" stroke-width="3"/>
  <path transform="scale(.26458)" d="m57.586 48.342c-2.4872 2.2628-5.8738 3.6582-9.625 3.6582h-31.922c-3.0041 0-5.7638-0.9069-8.0254-2.4258 0 0-0.6783 1.2759-0.33984 2 1.7256 3.6917 5.9473 6.4258 10.4 6.4258h27.854c5.6121 0 10.293-4.0885 11.658-9.6582z" opacity=".06" stroke-width="2"/>
 </g>
 <path transform="scale(.26458)" d="m15.824 4.0684c-0.079358 8.273e-4 -0.15882 0.0075496-0.23828 0.0097656-1.892 0.20318-3.6519 0.81862-5.209 1.7402-0.28874 0.24859-0.60632 0.43739-0.92773 0.59961-0.87898 0.62711-1.6788 1.3574-2.375 2.1797 0.3663 0.12323 0.86167 0.14026 1.4844 0.027344 1.6661-0.30212 2.1669 0.068211 2.084 1.5469-0.059982 1.0701-0.78439 2.3736-1.6094 2.8945-2.0668 1.3051-2.994 1.208-2.6328-0.27344 0.16759-0.68748 0.11465-0.91006-0.11719-0.49414-0.23183 0.41592-0.72041 0.57325-1.0859 0.34766-0.36551-0.2256-0.77865 2.5556-0.91797 6.1816-0.17038 4.4346 0.15699 6.8534 1 7.3887 1.8181 1.1544 1.9556 1.0372 1.2793-1.0938-1.7825-5.6161-1.3176-7.4719 1.2324-4.9219 0.8768 0.8768 1.531 0.8465 2.6992-0.12305 1.6784-1.393 2.168-4.5386 0.55078-3.5391-0.54563 0.33722-1.7832 0.14986-2.75-0.41602-1.4125-0.82672-1.1192-0.96163 1.4922-0.68555 2.0214 0.2137 3.25-0.1015 3.25-0.83398 0-1.7457 2.7304-5.1622 3.5059-4.3867 0.36839 0.36839-0.33026 2.0223-1.5527 3.6758-1.2801 1.7315-1.9585 3.6955-1.5996 4.6309 0.4242 1.1054 0.22776 1.4032-0.61524 0.93164-0.68118-0.38103-0.49368 0.098875 0.41602 1.0664 2.3576 2.5074 4.1779 0.96255 3.5352-2.998-0.32177-1.9828 0.020128-4.0507 0.87109-5.2656 1.2075-1.7239 1.1993-2.1683-0.066406-3.2187-0.80787-0.67046-2.1504-0.95793-2.9824-0.63867-1.7381 0.66698-1.9181-0.19843-0.49023-2.3574 0.84299-1.2746 1.271-1.1396 2.8477 0.89453 1.9775 2.5513 4.1309 2.1525 4.1309-0.76562 0-1.3847-2.5566-2.1312-5.209-2.1035zm32.785 0.041016c-0.99564 0.14418-1.1984 0.66707-0.86719 1.9336 0.48024 1.8364-0.79272 2.548-3.8535 2.1543-0.35349-0.045462-0.87372 0.80251-1.1562 1.8828-0.28251 1.0803-0.029615 1.9629 0.56055 1.9629 0.59015 0 0.78304 0.28921 0.42969 0.64258-0.35337 0.35337-1.3486 0.055198-2.2129-0.66211-1.2526-1.0395-1.3094-1.471-0.27539-2.127 0.71353-0.45262 0.84686-0.82227 0.29688-0.82227-1.3361 0-3.6909 1.5309-3.584 2.3301 0.2488 1.8591-0.011623 2.6387-0.88281 2.6387-0.53274 0-0.69221-0.78752-0.35352-1.75 0.50393-1.4321 0.37068-1.5216-0.73633-0.49414-1.1206 1.0401-0.76104 1.7621 2.1016 4.209 1.9005 1.6245 3.0332 2.9718 2.5156 2.9941-1.1209 0.048406 2.5567 2.9637 3.7969 3.0098 0.47132 0.017491 0.57833-0.69386 0.23828-1.5801-0.41973-1.0938-0.18166-1.4448 0.73828-1.0918 0.97559 0.37436 1.226-0.15474 0.89453-1.8887-0.28357-1.4834 0.00819-2.4082 0.76172-2.4082 0.67308 0 0.96997 0.66138 0.66016 1.4688-0.30981 0.80736-0.062115 1.7767 0.54883 2.1543 0.64739 0.40012 0.83041 0.23414 0.43945-0.39844-0.36895-0.59696-0.2066-1.3736 0.36133-1.7246 0.5681-0.351 0.81421-0.9913 0.54688-1.4238-0.26732-0.43253 0.58243-0.58174 1.8887-0.33203 1.5924 0.30441 2.3248 0.009588 2.2207-0.89453-0.17808-1.5462 0.44817-1.864 3.5938-1.8145 2.2272 0.035075 2.2246 0.051989-0.25 1.543l-2.5 1.5059 2.5-0.54688c2.471-0.54065 2.4739-0.53334 0.25 0.61133-1.2375 0.63693-2.25 1.763-2.25 2.5039 0 0.74093-0.67502 1.3477-1.5 1.3477-0.82498 0-1.5 0.48131-1.5 1.0684 0 0.58879-0.84015 0.79915-1.875 0.4707-1.3294-0.42194-2.0289-0.014481-2.3984 1.3984-0.29251 1.1186-0.054996 1.9004 0.53906 1.7793 0.58239-0.11869 1.3758 0.90824 1.7637 2.2832 0.68846 2.4403 0.74411 2.4099 2.3691-1.293 1.6247-3.702 4.0199-5.6227 5.3516-4.291 0.36475 0.36475-0.32952 0.92291-1.543 1.2402-2.6587 0.69528-2.8168 1.8551-0.45703 3.3633 1.5488 0.98989 1.4957 1.0648-0.46484 0.65234-1.5666-0.32961-2.3948 0.10136-2.8301 1.4727-0.43352 1.3659-1.1832 1.7592-2.5352 1.3301-2.1598-0.6855-2.5303 0.51464-0.71875 2.3262 0.73216 0.73217 1.5586 0.8398 2.1211 0.27734 0.50701-0.50701 1.6167-0.65556 2.4648-0.33008 0.97436 0.3739 1.289 0.18393 0.85547-0.51758-0.61487-0.99488 2.8771-5.2305 4.3125-5.2305 0.31791 0 0.57157-3.1269 0.5625-6.9492-0.006001-2.5161-0.21375-4.5657-0.54688-6.1035-0.44515-1.0703-1.0342-2.0611-1.7344-2.9629-0.39582 0.0072998-0.82093 0.32818-1.2617 1.0254-0.75749 1.1981-0.94651 1.2179-0.95898 0.10156-0.006789-0.61622 0.50825-1.5459 1.209-2.2949-0.19256-0.19499-0.39896-0.3761-0.60352-0.55859-1.4672 0.65331-1.7192 0.48118-1.5352-0.89453 0.013632-0.10186-0.00447-0.20778-0.039063-0.3125-1.6104-1.0447-3.4667-1.7386-5.4688-1.9844zm-14.592 0.16016c-11.794 0.082717-11.984 0.11913-11.984 2.3691 0 1.2575-0.51904 2.6066-1.1523 2.998-0.79784 0.4931-0.5853 1.125 0.69141 2.0586 1.7129 1.2525 1.6539 1.3477-0.84766 1.3477-1.4801 0-2.6914 0.45001-2.6914 1 1e-6 0.54999 1.125 1 2.5 1 1.375 0 2.5-0.45001 2.5-1s0.78752-1.0514 1.75-1.1152c1.6666-0.11047 1.6666-0.13868 0-0.57422-1.1738-0.30674-1.75-1.4408-1.75-3.4434 0-1.8193 0.40694-2.7329 1.043-2.3398 0.57408 0.3548 1.7718 0.043425 2.6621-0.69141 1.3724-1.1327 1.539-1.1076 1.0918 0.16406-0.82629 2.3497 1.0513 5.0072 3.4883 4.9375l2.2148-0.064453-2.25-0.9043c-1.2985-0.52194-2.25-1.7627-2.25-2.9355 0-2.2188 1.4595-2.7141 2.5938-0.87891 0.39909 0.64577 0.27911 0.88641-0.27344 0.54492-0.5433-0.33578-0.98828-0.016341-0.98828 0.70898 0 0.78353 0.73972 1.1249 1.8223 0.8418 1.0021-0.26206 1.6284-0.79099 1.3906-1.1758-0.59454-0.962 4.658-0.76204 6.2031 0.23633 0.83586 0.54007 1.2554 0.20967 1.2656-1 0.012983-1.5338 0.16249-1.5823 0.98438-0.31055 0.86166 1.3333 0.98056 1.3333 1.0566 0 0.066245-1.1608 0.23942-1.1111 0.76562 0.21484 0.45641 1.1501 1.1318 1.4329 2.0566 0.86133 3.3079-2.0444-0.38989-2.9303-11.893-2.8496zm-16.166 0.77344c0.58487-1e-7 1.3601 0.47983 1.7227 1.0664 1.0762 1.7414-0.14998 2.1115-1.5215 0.45898-0.78874-0.95036-0.86425-1.5254-0.20117-1.5254zm33.393 0.074219c0.12954 0.0038131 0.23748 0.042171 0.31445 0.11914 0.30788 0.30788-0.24818 0.86667-1.2344 1.2422-1.4252 0.54267-1.5388 0.429-0.55859-0.55859 0.50874-0.51255 1.0899-0.81417 1.4785-0.80273zm-39.711 0.92578c0.27498 0 0.5 0.22501 0.5 0.5 0 0.27499-0.225 0.5-0.5 0.5-0.27499-1e-7 -0.5-0.22501-0.5-0.5 0-0.27499 0.225-0.5 0.5-0.5zm39.998 1c0.27499 0 0.5 0.22501 0.5 0.5 0 0.27499-0.225 0.5-0.5 0.5-0.27499 0-0.5-0.22501-0.5-0.5 0-0.27499 0.225-0.5 0.5-0.5zm-13.48 0.23828c-0.27887 0.022015-0.6734 0.085658-1.1914 0.18164-1.2798 0.23713-2.4668 0.46499-2.6367 0.50586-0.16996 0.04087-0.029364 0.52423 0.31055 1.0742 0.83499 1.351 1.3774 1.2633 3.1465-0.50586 1.0054-1.0054 1.2077-1.3219 0.37109-1.2559zm15.631 1.0059c0.14521-0.066294 0.23978 0.23106 0.27148 0.88477 0.04342 0.89513-0.59689 2.1864-1.4219 2.8711-0.82498 0.68467-1.5 0.94958-1.5 0.58789s-0.90003-0.17658-2 0.41211c-1.5146 0.81062-2.0183 0.75846-2.0781-0.21484-0.04342-0.70683-0.53158-0.047618-1.084 1.4648-0.5524 1.5125-1.5283 2.7362-2.1699 2.7188-1.9127-0.052142-4.8865-2.7143-3.7891-3.3926 0.54909-0.33936 1.4438 0.17507 1.9863 1.1445 1.2053 2.1537 2.3848 1.1827 2.3848-1.9629 0-2.2913 4.4169-5.4881 5.6777-4.1094 0.31506 0.34452 0.009749 0.82674-0.67773 1.0723-1.8972 0.67758-1.4934 1.8516 0.63672 1.8516 1.2369 0 1.6948-0.49864 1.3301-1.4492-0.33739-0.87923-0.12844-1.1878 0.5293-0.78125 0.59647 0.36864 1.3113 0.10497 1.5898-0.58594 0.12205-0.30274 0.22733-0.47194 0.31445-0.51172zm-28.695 0.76172c-0.58632-0.0057109-0.95312 0.3098-0.95312 0.99414 0 0.54999 0.67502 1 1.5 1 0.82498 0 1.5 0.45001 1.5 1s0.70116 1 1.5586 1c0.85744 0 1.2615 0.48088 0.89844 1.0684-0.36308 0.58748-1.2892 0.82648-2.0586 0.53125-0.76935-0.29522-1.3984-0.10108-1.3984 0.43164 0 1.3396 2.3515 1.2169 3.7656-0.19727 0.8896-0.8896 1.3208-0.77068 1.8086 0.5 0.35187 0.91695 1.2114 1.666 1.9102 1.666 0.6988 0 1.831 0.67502 2.5156 1.5 0.785 0.94586 0.85026 1.5 0.17969 1.5-0.58487 0-1.363-0.48553-1.7305-1.0801-0.36745-0.59455-1.7071-0.82056-2.9766-0.50195-1.3773 0.34567-2.5387 0.074925-2.8809-0.66992-0.3156-0.68654-0.30539-0.17939 0.023438 1.127 0.40225 1.598 0.23508 2.1517-0.50977 1.6914-0.60891-0.37633-1.1055-1.2762-1.1055-2 0-2.0733-6.1082-2.8879-7.9375-1.0586-1.3829 1.3829-1.2106 1.473 1.7012 0.89062 2.0166-0.40332 3.2363-0.2488 3.2363 0.41016 0 0.58167 0.90003 1.3423 2 1.6914 2.6177 0.83082 2.5566 2.0333-0.11328 2.2344-1.1621 0.087541-1.8647-0.090432-1.5605-0.39453 0.3041-0.3041 0.03076-1.1117-0.60742-1.7949-1.2637-1.3528-4.7188-0.89087-4.7188 0.63086 0 0.5183 0.3826 0.70585 0.85156 0.41602 0.46896-0.28983 1.7065 0.11833 2.75 0.9082 1.0435 0.78987 2.6297 1.4513 3.5234 1.4688 2.4472 0.047894 2.1996 5.0312-0.25 5.0312-1.0315 0-1.875 0.70091-1.875 1.5586 0 0.85744-0.45002 1.2813-1 0.94141-0.56939-0.3519-1 0.50932-1 2 0 1.4907 0.43061 2.3519 1 2 0.54998-0.33991 1-1.2399 1-2 0-1.923 1.8463-2.8679 3.293-1.6855 0.81767 0.66827 1.622 0.5348 2.4961-0.41406 0.74448-0.80817 0.85015-1.4004 0.25-1.4004-0.57167 0-1.0391-0.45907-1.0391-1.0195 0-0.59963 1.1319-0.75614 2.75-0.38086 2.6894 0.62372 2.7059 0.60037 0.75-1.0625-1.671-1.4207-1.7122-1.6101-0.25-1.1504 0.96248 0.30263 1.75 0.11476 1.75-0.41797s-1.0507-0.96875-2.334-0.96875c-2.6631 0-3.1785-2.6321-0.95117-4.8594 1.1769-1.1769 1.2978-0.95524 0.8125 1.4883-0.53715 2.7046-0.50215 2.7408 0.60352 0.62109 0.64547-1.2375 1.5555-2.25 2.0215-2.25 1.3638 0 0.9728 2.9913-0.40234 3.0781-0.99997 0.063156-0.99997 0.18048 0 0.58398 0.68748 0.2774 1.2847 1.2552 1.3281 2.1719 0.057136 1.2062 0.22876 1.2893 0.62109 0.30274 0.45767-1.1508 0.67713-1.1508 1.4062 0 0.66973 1.0571 0.86719 0.95749 0.87891-0.44531 0.008421-0.99494 0.46369-1.5313 1.0137-1.1914 1.1601 0.71697 1.3605 6.1309 0.25 6.752-0.94659 0.52938 1.259-0.053716 3.25-0.85938 0.82498-0.33384 1.5-0.10883 1.5 0.5s-0.43421 1.1074-0.96484 1.1074c-0.53063 0-1.4253 0.86429-1.9902 1.9199-0.98055 1.8322-0.8932 1.8506 1.9629 0.42578 1.6456-0.82092 2.9783-2.0227 2.9609-2.6699-0.04404-1.6294-2.4682-4.6758-3.7207-4.6758-0.56801 0-1.3068-0.71207-1.6406-1.582-0.96771-2.5218-0.64838-3.0578 0.73633-1.2363 1.5758 2.0728 6.8339 2.8319 7.2266 1.043 0.15394-0.70123 0.051062-0.81374-0.22852-0.25-0.90716 1.8292-2.2364 1.0827-1.8301-1.0273 0.32038-1.6636 0.016222-1.9307-1.6055-1.416-1.1003 0.34923-2.6545 0.092454-3.4531-0.57031-1.0245-0.85027-1.4531-0.87596-1.4531-0.083984 0 0.61733-0.90003 1.123-2 1.123-1.1 0-1.998-0.45001-1.998-1 0-0.54999 0.33556-0.8875 0.74805-0.75 0.32636 0.10878 0.66917-0.015074 0.86914-0.27344-0.038969 0.009833-0.077229 0.023438-0.11914 0.023438-0.27499 0-0.5-0.22501-0.5-0.5s0.225-0.5 0.5-0.5c0.16163 0 0.29907 0.083197 0.39062 0.20312 0.47089-2.0398-0.41462-3.5226-2.7266-4.502-1.7424-0.73808-2.6775-1.7799-2.4238-2.7012 0.30866-1.121 0.18795-1.1805-0.47852-0.23828-0.67571 0.95526-1.4628 0.65242-3.25-1.25-1.495-1.5914-3.0794-2.4963-4.0566-2.5059zm12.936 11.197c-0.041614 0.18027-0.077579 0.35774-0.14062 0.54688-0.028713 0.086135-0.078082 0.15837-0.13086 0.22656 0.21672-0.054683 0.38086-0.24348 0.38086-0.47656 0-0.11336-0.045167-0.21277-0.10938-0.29688zm-32.389-6.2031c0.27499 0 0.5 0.22501 0.5 0.5 0 0.27499-0.225 0.5-0.5 0.5-0.27499 0-0.5-0.22501-0.5-0.5s0.225-0.5 0.5-0.5zm52.998 2c0.27499 0 0.5 0.22501 0.5 0.5 0 0.27499-0.225 0.5-0.5 0.5-0.27499 0-0.5-0.22501-0.5-0.5s0.225-0.5 0.5-0.5zm-5.627 0.25976c-0.22805-0.015213-0.49314-0.012966-0.79492 0.009766-1.1316 0.085239-1.8711 0.83281-1.7969 1.8184h0.001953c0.10206 1.355 0.46822 1.4606 1.9219 0.55274 2.0527-1.282 2.2643-2.2744 0.66797-2.3809zm-37.4 0.24805c0.10939 0.046815 0.21299 0.33407 0.32227 0.84961 0.21639 1.0209-0.042904 2.291-0.57617 2.8242-0.62612 0.62612-0.7646-0.030694-0.39258-1.8555 0.2667-1.3081 0.46417-1.8964 0.64648-1.8184zm41.027 0.49219c0.27499 0 0.5 0.22501 0.5 0.5 0 0.27499-0.225 0.5-0.5 0.5-0.27499 0-0.5-0.22501-0.5-0.5 0-0.275 0.225-0.5 0.5-0.5zm-49.498 0.058593c0.24166 0 0.48269 0.092063 0.66602 0.27539 0.36666 0.36666 0.067299 0.66602-0.66602 0.66602-0.73332 0-1.0327-0.29936-0.66602-0.66602 0.18333-0.18333 0.42436-0.27539 0.66602-0.27539zm1.5 1.9414c0.27499 0 0.5 0.22501 0.5 0.5 0 0.27499-0.225 0.5-0.5 0.5-0.27498 0-0.5-0.22501-0.5-0.5s0.225-0.5 0.5-0.5zm41.773 3.1621c0.11095-0.002453 0.30208 0.076412 0.57031 0.24219 0.63496 0.39243 1.1543 0.91176 1.1543 1.1543 0 0.83412-0.88328 0.43983-1.5957-0.71289-0.27629-0.44705-0.31383-0.67951-0.12891-0.68359zm6.8066 0.33008c0.53788-0.058844 0.91797 0.13952 0.91797 0.53906 0 0.53272-0.67502 0.96875-1.5 0.96875s-1.5-0.17643-1.5-0.39258 0.67502-0.65218 1.5-0.96875c0.20624-0.079144 0.40274-0.12687 0.58203-0.14648zm-39.275 0.50781c-0.90153 0-1.789 0.45102-1.9727 1.002-0.22164 0.6649-1.4887 0.67114-3.7676 0.017578-4.4299-1.2705-4.9701-0.61151-2.0488 2.498 1.7318 1.8434 2.0622 2.805 1.2441 3.623-1.492 1.492-6.5755 0.21542-5.6543-1.4199 0.47822-0.84897 0.26441-0.82801-0.70117 0.070312-1.1824 1.1-1.1668 1.4312 0.10352 2.2344 0.98216 0.62094 1.0675 0.94889 0.25 0.95898-0.76316 0.009412-1.1237 1.0924-0.93555 2.8105 0.40618 3.7103 1.4342 5.2208 3.4863 5.125 1.0411-0.048606 1.211-0.2715 0.44141-0.58203-1.6607-0.67008-1.533-3.3804 0.27148-5.7656 1.6509-2.1822 2.5118-1.7692 2.7441 1.3145 0.087543 1.1621 0.5629 2.1133 1.0547 2.1133 0.49176 0 0.61838-0.78752 0.2832-1.75-0.58041-1.6666-0.54387-1.6666 0.75391 0 0.74946 0.96248 1.9876 1.7847 2.752 1.8281 0.93691 0.053222 1.0001 0.23704 0.19531 0.56445-0.65641 0.26711-0.95848 1.0968-0.67188 1.8438 0.28662 0.74692-0.3971 2.278-1.5195 3.4004-2.0742 2.0742-1.9928 2.3137 1.1758 3.4434 1.3201 0.47062 1.714 0.18788 1.5-1.0742-0.1624-0.95795 0.37141-1.75 1.2109-1.7988 2.8117-0.16366 2.9865 0.65001 0.61524 2.8477-2.3535 2.1811-2.6152 2.6638-2.6152 4.8164 0 0.73141-0.59085 0.64431-1.6934-0.25-1.1496-0.93255-1.4497-0.97043-0.93945-0.12109 1.1998 1.9971-0.29777 3.5516-2.0332 2.1113-1.1908-0.9883-1.66-0.95268-2.3574 0.17578-0.54446 0.88096-0.42221 1.6942 0.32617 2.1699 0.82584 0.52499 0.84811 0.76676 0.070312 0.77734-0.62014 0.008421-1.7452-0.74718-2.5-1.6777-1.1715-1.4442-1.1651-1.5666 0.046875-0.83594 1.0845 0.65377 1.257 0.43628 0.73438-0.92578-0.5724-1.4917-0.25785-1.7027 1.916-1.2871 2.1613 0.41316 2.5157 0.18046 2.1074-1.3809-0.53165-2.033 1.2556-2.5432 2.9551-0.84375 0.7111 0.71109 1.0332 0.55517 1.0332-0.5 0-0.84331-0.45791-1.5332-1.0176-1.5332-1.005 0-9.6484-3.9561-9.6484-4.416 0-0.1307 1.35-0.039034 3 0.20312 2.2757 0.334 3 0.050098 3-1.1738 0-0.8874 0.49859-1.6133 1.1074-1.6133 0.61554 0 0.82682 0.72792 0.47656 1.6406-0.53199 1.3864-0.38856 1.4404 0.92578 0.34961 1.6373-1.359 1.618-3.124-0.035157-3.1641-0.53623-0.012987-1.753-0.43879-2.7031-0.94727-1.3415-0.71796-1.5979-0.58644-1.1465 0.58984 0.77075 2.0085-2.2247 3.108-4.1387 1.5195-1.2392-1.0285-1.4863-0.86822-1.4863 0.95508 0 2.4493 1.7407 6.1933 3.3711 7.252 0.58924 0.38259 0.74209 1.0255 0.33984 1.4277-0.40224 0.40224-1.3271-0.083032-2.0547-1.0781-1.2699-1.7368-1.3267-1.7346-1.4082 0.072265-0.017499 0.38782-8.99e-5 0.79085 0.042969 1.1992 0.59094 2.6474 1.9844 4.9789 3.9141 6.7402 2.252 0.66482 4.0552-0.32673 3.1562-1.7812-0.38513-0.62314-0.20909-0.79919 0.41406-0.41406 0.59696 0.36894 1.3824 0.1927 1.7441-0.39258 0.36172-0.58529 1.5867-0.93139 2.7227-0.76758 1.5316 0.22086 2.6696-0.78301 4.4043-3.8867 2.5696-4.5976 2.2144-7.7741-0.7832-6.9902-1.0236 0.26767-2.1139 0.080386-2.4219-0.41797-0.308-0.49835-0.084397-0.90625 0.49805-0.90625s1.0605-0.47615 1.0605-1.0586c0-0.58246-0.3867-0.82142-0.85938-0.5293-1.3074 0.80801-0.46336-4.5022 0.91992-5.7871 0.93116-0.86497 1.0768-0.56837 0.62695 1.2871-0.70579 2.9111 0.81058 6.0879 2.9062 6.0879 0.89718 0 1.2306 0.47456 0.81055 1.1543-0.42586 0.68906-0.27672 0.88474 0.37109 0.48438 0.59696-0.36894 1.3427-0.25732 1.6562 0.25 0.31354 0.50732 1.495 0.68075 2.627 0.38476 1.5068-0.39403 2.206 0.025813 2.6094 1.5684l0.55078 2.1074 1.8047-2.2246c0.9921-1.2237 2.1674-1.8623 2.6113-1.4199 0.4439 0.4424 0.14499 1.2227-0.66406 1.7344-1.2873 0.81419-1.2835 0.9341 0.029297 0.96094 1.2413 0.025342 1.2615 0.18002 0.12109 0.90234-0.75794 0.48007-1.0693 1.3729-0.69141 1.9844 0.42153 0.68205-0.13035 1.1133-1.4297 1.1133-1.2475 0-1.8478 0.43923-1.459 1.0684 0.36308 0.5874 1.2572 0.8384 1.9863 0.55859 1.5441-0.59254 3.9082 1.8586 3.082 3.1953-0.30921 0.50031-1.6925 0.69185-3.0742 0.42774-1.3817-0.26413-2.2659-0.87814-1.9648-1.3652 1.3676-2.2128-0.89607-2.7904-3.5449-0.9043-1.5588 1.1099-3.3271 2.0195-3.9297 2.0195-1.6492 0-1.3166-1.7024 0.4668-2.3867 0.85972-0.32995 1.2555-1.0977 0.87891-1.707-0.45525-0.73661-1.386-0.40892-2.7754 0.98047-1.636 1.636-1.8251 2.3527-0.87695 3.3008 0.66609 0.66609 1.2109 1.8141 1.2109 2.5508 0 1.0953-0.25569 1.1052-1.3965 0.050781-0.76725-0.70917-1.1892-1.6266-0.93945-2.0391 0.24972-0.4125-0.26202-0.75-1.1367-0.75s-1.8938 0.78752-2.2637 1.75c-0.56914 1.4809-0.77987 1.3655-1.3691-0.75-0.66105-2.3732-0.70028-2.3859-0.79492-0.25-0.054823 1.2375-0.57576 2.25-1.1582 2.25-0.58244 0-0.76148-0.48363-0.39648-1.0742 0.365-0.59059-0.2648-0.49434-1.4004 0.21484-0.81222 0.50724-1.2377 0.92408-1.3164 1.2832 1.1632 0.62184 2.434 1.0655 3.7773 1.3105 5.0723 0.27528 13.793-0.4269 14.145-1.4844 0.22867-0.68748-0.33531-1.25-1.252-1.25-0.91666 0-1.4872-0.53439-1.2695-1.1875 0.58445-1.7533 2.7695-2.2064 2.7695-0.57422 0 0.9985 1.1094 1.344 3.834 1.1953 2.6464-0.14445 3.834 0.2071 3.834 1.1348 0 0.73902-0.48817 1.038-1.084 0.66602-1.6022-1.0004-5.584-1.0572-5.584-0.080078 0 0.46505 1.0125 0.89554 2.25 0.95703 1.2375 0.061479 3.7797 0.28657 5.6484 0.5 1.8687 0.21343 4.0063-0.11713 4.75-0.73438 0.99975-0.82971 1.3516-0.82983 1.3516 0 0 0.88821 2.4763 1.1867 4.9688 0.91211 1.6546-0.25424 3.2015-0.81387 4.5859-1.627-0.26061 0.030518-0.6779 0.10412-1.3027 0.22266-1.2369 0.23465-2.4831 0.050154-2.7676-0.41016-0.28449-0.46032-1.5596-0.6471-2.834-0.41602-1.5417 0.27956-2.3164-0.060636-2.3164-1.0156 0-1.0819 0.45205-1.1947 1.834-0.45508 1.9937 1.067 2.1418 0.88435 1.2246-1.5059-0.33384-0.86996-1.51-1.582-2.6152-1.582-1.5049 0-1.8805 0.49291-1.4961 1.9629 0.28236 1.0798-0.11495 2.4838-0.88281 3.1211-1.16 0.96268-1.2932 0.64192-0.78516-1.8984 0.54852-2.7426 0.39451-3.0013-1.5-2.5059-1.2182 0.31858-2.1133 0.079595-2.1133-0.56445 0-1.0289 1.6206-1.501 4.75-1.3848 0.68748 0.025531 1.25-0.99089 1.25-2.2598 0-3.3978 1.0515-5.5481 2.3555-4.8184 0.81524 0.45618 0.80667 0.27589-0.027344-0.62695-0.6445-0.69769-0.95888-1.8234-0.69922-2.5 0.25964-0.67661-0.67554-1.9814-2.0781-2.9004-2.2192-1.4541-2.5508-1.4738-2.5508-0.14844 0 0.83766 0.40776 1.5234 0.90625 1.5234 0.49835 0 0.71984 1.0125 0.49023 2.25-0.22958 1.2375-0.15034 1.6851 0.17774 0.99414 0.32806-0.69084 0.99234-1.0129 1.4746-0.71484 1.4524 0.8976-1.2302 5.4707-3.209 5.4707-1.9246 0-2.4904-1.4812-0.93359-2.4434 0.49835-0.308 0.6747-1.4469 0.39062-2.5332-0.39257-1.5012-0.9238-1.7592-2.2109-1.0703-0.96238 0.51506-2.2971 0.5341-3.0918 0.042968-1.6314-1.0082-3.289-0.28332-2.4512 1.0723 0.31642 0.51198 0.10002 0.93164-0.48242 0.93164-0.99235 0-1.6108-3.2667-1.041-5.5 0.5553-2.1767 0.87461-5.8873 0.36133-4.1973-0.45701 1.5047-0.8222 1.596-2.2129 0.54883-1.4063-1.059-1.4709-1.0365-0.41602 0.14648 1.3783 1.5456 1.6816 4.002 0.49414 4.002-0.41573 0-1.374-1.396-2.1289-3.1016-0.94032-2.1243-1.6155-2.7075-2.1445-1.8516-0.75546 1.2224-0.27118 2.1131 3.2793 6.0254 0.96256 1.0606 1.4125 1.9216 1 1.9141-2.7069-0.049282-5.1648-1.5024-6.1328-3.627-0.61937-1.3594-1.5103-2.2347-1.9785-1.9453-0.46821 0.28936-0.63856-0.58699-0.37891-1.9453 0.27404-1.4336 0.003595-2.4688-0.64453-2.4688-0.6141 0-1.4095-0.1125-1.7695-0.25-0.36006-0.1375-0.77713 0.57892-0.92578 1.5918-0.41819 2.8493-1.0827 2.9973-3.3379 0.74219-2.617-2.617-2.6421-3.4639-0.083984-2.7949 1.0994 0.28751 2.2506 0.11554 2.5586-0.38281 0.308-0.49835 1.4344-0.90625 2.502-0.90625 1.0675 0 1.9414-0.47615 1.9414-1.0586s-0.56252-0.73547-1.25-0.33984c-0.72624 0.41792-0.90212 0.33748-0.41797-0.19141 0.45832-0.50067 1.1333-0.94921 1.5-0.99805 0.36666-0.048837 1.6738-0.50687 2.9043-1.0176 2.2022-0.91401 2.2061-0.9483 0.25-2.1699-1.1822-0.73829-1.9863-0.83234-1.9863-0.23242 0 0.55465-0.46999 1.0078-1.043 1.0078-0.57298 0-2.0219 0.91441-3.2207 2.0312-2.5742 2.3982-5.0677 2.201-5.5762-0.43945-0.27308-1.418 0.052189-1.7242 1.3184-1.2383 0.92545 0.35513 2.6466-0.028649 3.8242-0.85352 1.6926-1.1855 1.7976-1.5 0.50195-1.5zm2.6953 0c-0.27499 0-0.5 0.22501-0.5 0.5 0 0.27499 0.225 0.5 0.5 0.5 0.27498 0 0.5-0.22501 0.5-0.5s-0.225-0.5-0.5-0.5zm8 0c0.27499 0 0.5 0.22501 0.5 0.5 0 0.27499-0.225 0.5-0.5 0.5-0.27499 0-0.5-0.22501-0.5-0.5s0.225-0.5 0.5-0.5zm15.998 1c0.27499 0 0.5 0.22501 0.5 0.5 0 0.27499-0.225 0.5-0.5 0.5-0.27499 0-0.5-0.22501-0.5-0.5 0-0.275 0.225-0.5 0.5-0.5zm15.008 2.7227c-0.070722-0.01735-0.14591 0.071099-0.22266 0.27734-0.8162 2.1935-3.9788 5-5.6348 5-1.8905 0-2.7855 2.4645-1.3984 3.8516 0.79284 0.79295 0.78675 1.7675-0.019531 3.5371-0.88566 1.9438-0.81996 2.5542 0.31641 2.9902 0.80209 0.30779 1.3231 0.015757 1.1895-0.66602-0.1309-0.6677 0.32424-1.1004 1.0117-0.96289 0.68748 0.1375 1.25-0.20002 1.25-0.75 0-0.54999-0.47615-1-1.0586-1-0.58244 0-0.78607-0.44175-0.45312-0.98047 0.88304-1.4288 4.4255 1.0396 3.8066 2.6523-0.27774 0.72379-0.85512 1.0998-1.2852 0.83398-0.43004-0.26578-1.3379 0.18498-2.0176 1.0039-0.67965 0.81892-0.8169 1.4902-0.30469 1.4902s1.8035 0.70846 2.8711 1.5742c1.0676 0.86578 1.4213 1.3146 0.78516 0.99805-0.75377-0.37504-0.97385 0.12161-0.63281 1.4258 0.3129 1.1965 0.030381 2.002-0.70117 2.002-0.67285 0-0.99193-0.60444-0.70898-1.3418 0.28295-0.73736 0.064651-1.9749-0.48633-2.75-0.77976-1.0969-0.87133-1.0014-0.4082 0.42578 0.39297 1.211 0.1717 1.6833-0.6543 1.3945-0.68786-0.24051-1.1186-1.1766-0.95703-2.082 0.17087-0.95732-0.36693-1.6465-1.2852-1.6465-1.2512 0-1.3652 0.40088-0.54492 1.9336 1.3891 2.5955 1.3451 2.7519-0.96289 3.3555-2.4424 0.6387-3.6936-1.0328-1.9668-2.627 0.96537-0.89126 1.0936-0.87014 0.55274 0.087891-0.38814 0.68748-0.19504 1.25 0.42773 1.25 1.4311 0 0.87254-3.2052-0.64648-3.7109-0.62185-0.20702-1.4225 0.78562-1.7793 2.207-0.35675 1.4214-1.0853 2.3143-1.6191 1.9844-2.1289-1.3157-0.795 2.2667 1.9727 5.2969h0.001953c2.6469 2.8979 6.0148 4.5839 4.6074 2.3066-0.31088-0.50301 4.99e-4 -1.1794 0.69141-1.5039 0.69091-0.32448 0.041548-0.43035-1.4434-0.23438-2.9313 0.3869-4.3363-1.4098-2.5215-3.2246 1.6519-1.6519 3.5337-1.3733 5.9512 0.87891 1.5229 1.4187 1.7295 2.0047 0.70898 2.0156-1.2269 0.013058-1.2217 0.15047 0.035156 0.94531 0.34305 0.21694 0.66932 0.32431 0.9668 0.34766 0.53042-0.6333 0.99921-1.3187 1.4023-2.0469-0.093243-0.3289-0.26618-0.6708-0.54102-1.002-0.81892-0.9867-0.73575-1.1713 0.3418-0.75781 1.1684 0.44837 1.4301-1.0496 1.4434-8.2754 0.015379-8.491-0.070514-8.8304-2.2852-9.0137-1.2656-0.10475-2.3027 0.24101-2.3027 0.76758 0 0.52656-0.67232 0.69817-1.4941 0.38281-2.1713-0.83322-0.80262-2.3633 2.1133-2.3633 1.7339 0 2.2689-0.3831 1.748-1.25-0.51027-0.84934-0.20822-0.80949 0.94141 0.12305 1.5359 1.2459 1.6849 1.0153 1.6133-2.5-0.032565-1.5973-0.2019-2.5983-0.41406-2.6504zm-50.506 0.27734c-0.54998 0-1 0.67502-1 1.5s0.45002 1.5 1 1.5 1-0.67502 1-1.5-0.45002-1.5-1-1.5zm5.5 0c-0.27499 0-0.5 0.22501-0.5 0.5 0 0.27499 0.225 0.5 0.5 0.5 0.27499 0 0.5-0.22501 0.5-0.5 0-0.275-0.225-0.5-0.5-0.5zm21.332 1c-0.99867 0-1.0981 1.4019-0.16602 2.334 0.92692 0.9269 1 0.86532 1-0.83398 0-0.82498-0.37566-1.5-0.83398-1.5zm2.5742 0.17969c-0.23906-0.035936-0.4082 0.27033-0.4082 0.82031 0 0.73332 0.30131 1.0327 0.66797 0.66602 0.36666-0.36666 0.36666-0.96537 0-1.332-0.091666-0.091664-0.18008-0.14232-0.25977-0.1543zm9.4902 2.3203-0.9707 2.3945c-0.53371 1.3173-0.84851 2.4424-0.69922 2.5 0.14931 0.057648 1.1715 0.64174 2.2715 1.2969 1.1 0.65514 2.3375 1.2175 2.75 1.25 1.3315 0.1044 0.79662-1.9877-0.65039-2.543-0.77078-0.29578-1.6935-1.5174-2.0508-2.7168l-0.65039-2.1816zm-40.338 1.5c0.24254 0 0.44141 0.45001 0.44141 1s-0.47615 1-1.0586 1c-0.58244 0-0.78131-0.45001-0.44141-1 0.33991-0.54999 0.81606-1 1.0586-1zm10.941 0c0.27498 0 0.5 0.22501 0.5 0.5 0 0.27499-0.225 0.5-0.5 0.5-0.27499 0-0.5-0.22501-0.5-0.5s0.225-0.5 0.5-0.5zm15.389 0c-0.48906 0-0.88867 1.3239-0.88867 2.9414s-0.51321 3.256-1.1387 3.6426c-0.70136 0.43346-0.030634 1.1707 1.75 1.9238 2.3925 1.0118 3.1875 0.96192 4.6348-0.29492 1.325-1.1507 1.4758-1.8424 0.62695-2.8652-0.6154-0.7415-0.72593-1.3626-0.24609-1.3809 1.1262-0.042945-3.5608-3.9668-4.7383-3.9668zm5.6094 1c-0.27499 0-0.5 0.22501-0.5 0.5 0 0.27499 0.225 0.5 0.5 0.5 0.27498 0 0.5-0.22501 0.5-0.5s-0.225-0.5-0.5-0.5zm-3.5293 1.2207c0.7518-0.035378 1.1449 0.91878 1.9453 4.2539 0.12869 0.53624-0.24823 1.1368-0.83984 1.334-0.62564 0.20855-0.8157-0.32078-0.45312-1.2656 0.4086-1.0648 0.14975-1.5247-0.75-1.334-1.6363 0.34675-1.8697-2.3761-0.25-2.916 0.1242-0.041399 0.24026-0.067212 0.34766-0.072266zm20.971 0.7793c0.51753 0 1.2187 0.45001 1.5586 1 0.33991 0.54999-0.08397 1-0.94141 1-0.85744 0-1.5586-0.45001-1.5586-1s0.42388-1 0.94141-1zm-11.922 1.5371c-0.60338 0.01199-1.0992 0.14414-1.3809 0.42578-0.7162 0.7162-0.5118 1.0758 0.66211 1.1621 0.93498 0.068713 2.1492 0.2375 2.6992 0.375 0.54999 0.1375 1.4781 0.30625 2.0605 0.375 0.58246 0.068747 0.77514 0.58167 0.42969 1.1406-0.34546 0.55895-0.99877 0.78665-1.4531 0.50586-0.45435-0.2808-1.085 0.16256-1.4004 0.98438-0.38216 0.99588 0.04834 1.4941 1.2891 1.4941 1.9762 0 3.4851-2.5268 2.4805-4.1523-0.80643-1.3048-3.5766-2.3465-5.3867-2.3105zm-20.406 0.80664c-0.35858-0.060287-0.61133 0.16082-0.61133 0.59766 0 0.58244 0.45002 1.0586 1 1.0586s1-0.19887 1-0.44141c0-0.24254-0.45002-0.71868-1-1.0586-0.1375-0.084978-0.26914-0.13616-0.38867-0.15625zm-3.2051 0.83594c0.079686 0.01198 0.1681 0.062632 0.25977 0.1543 0.36666 0.36666 0.36666 0.96537 0 1.332-0.36666 0.36666-0.66602 0.067299-0.66602-0.66602 0-0.54999 0.16719-0.85625 0.40625-0.82031zm-7.9062 0.82031c0.27498 0 0.5 0.225 0.5 0.5 0 0.27499-0.225 0.5-0.5 0.5-0.27499 0-0.5-0.225-0.5-0.5 0-0.27499 0.225-0.5 0.5-0.5zm40.998 2c-0.27499 0-0.5 0.225-0.5 0.5 0 0.27498 0.225 0.5 0.5 0.5 0.27499 0 0.5-0.225 0.5-0.5 0-0.27499-0.225-0.5-0.5-0.5zm-20.998 1c0.27499 0 0.5 0.225 0.5 0.5 0 0.27499-0.225 0.5-0.5 0.5-0.27499 0-0.5-0.225-0.5-0.5 0-0.27499 0.225-0.5 0.5-0.5zm23.998 1c0.27499 0 0.5 0.225 0.5 0.5 0 0.27498-0.225 0.5-0.5 0.5-0.27498 0-0.5-0.225-0.5-0.5 0-0.27499 0.225-0.5 0.5-0.5zm-19.777 0.47266c0.13807-0.00854 0.2731 0.0241 0.39844 0.10156 0.50133 0.30984 0.65432 0.98216 0.33789 1.4941-0.94035 1.5215-2.4439 1.0576-1.8223-0.5625 0.23652-0.61638 0.67172-1.0076 1.0859-1.0332zm-20.221 0.52734c-0.27498 0-0.5 0.225-0.5 0.5 0 0.27499 0.225 0.5 0.5 0.5 0.27499 0 0.5-0.225 0.5-0.5 0-0.27499-0.225-0.5-0.5-0.5zm3.5488 1.5039c0.47446-0.0281 0.5717 0.3205 0.29297 1.0469-0.30583 0.79697-0.95808 1.4492-1.4492 1.4492-1.4376 0-1.025-1.7348 0.55664-2.3418 0.24213-0.092911 0.44146-0.14493 0.59961-0.1543zm7.9199 0.087891c-0.20931-0.006541-0.42588 0.028463-0.63672 0.10938-1.1151 0.42789-1.1894 0.76976-0.28906 1.3262 0.6689 0.41341 0.86836 1.3038 0.44531 1.9883-0.5781 0.93539-0.99041 0.8395-1.6777-0.38867-0.5012-0.89561-1.4077-1.627-2.0156-1.627-0.6079 0-0.30366 0.88452 0.67578 1.9668 1.3725 1.5166 2.2099 1.7379 3.6543 0.96484 2.091-1.1191 2.1071-1.1604 1.291-3.2871-0.24556-0.63991-0.81934-1.0331-1.4473-1.0527zm8.418 1.7461c0.35859-0.069277 0.61133 0.13048 0.61133 0.54297 0 0.54998-0.45002 1.2792-1 1.6191-0.54998 0.33991-0.99805 0.16717-0.99805-0.38281s0.44806-1.2773 0.99805-1.6172c0.1375-0.084978 0.26914-0.13902 0.38867-0.16211zm-4.8867 0.66211c-0.27499 0-0.5 0.225-0.5 0.5 0 0.27498 0.225 0.5 0.5 0.5 0.27498 0 0.5-0.225 0.5-0.5 0-0.27499-0.225-0.5-0.5-0.5zm7.5586 1c0.58244 0 0.77935 0.45002 0.43945 1-0.33991 0.54998-0.81606 1-1.0586 1-0.24254 0-0.44141-0.45002-0.44141-1s0.4781-1 1.0605-1zm7.5 0c0.24254 0 0.43945 0.45002 0.43945 1s-0.47615 1-1.0586 1c-0.58244 0-0.78131-0.45002-0.44141-1 0.33991-0.54998 0.81801-1 1.0605-1zm-26.059 1c-0.27499 0-0.5 0.225-0.5 0.5 0 0.27498 0.225 0.5 0.5 0.5 0.27499 0 0.5-0.225 0.5-0.5 0-0.27499-0.225-0.5-0.5-0.5zm-3.0918 0.17969c0.079686 0.01198 0.16615 0.060679 0.25781 0.15234 0.36666 0.36666 0.36666 0.96732 0 1.334-0.36666 0.36666-0.66602 0.067299-0.66602-0.66602 0-0.54999 0.16915-0.85625 0.4082-0.82031zm-12.908 0.82031c0.27499 0 0.5 0.225 0.5 0.5 0 0.27499-0.225 0.5-0.5 0.5-0.27499 0-0.5-0.225-0.5-0.5 0-0.27499 0.225-0.5 0.5-0.5zm45.559 0c-0.51753 0-1.2206 0.45001-1.5605 1-0.33991 0.54998 0.08397 1 0.94141 1 0.85744 0 1.5586-0.45002 1.5586-1 0-0.54999-0.42192-1-0.93945-1zm-16.441 1c-0.27499 0-0.77729 0.45002-1.1172 1-0.3399 0.54998-0.39414 1-0.11914 1 0.27499 0 0.77924-0.45002 1.1191-1 0.3399-0.54998 0.39219-1 0.11719-1zm3.3184 3.1699c0.075315 0.008907 0.15866 0.028149 0.25 0.058593 0.65348 0.21783 1.3663 0.93087 1.584 1.584 0.59994 1.7998-1.4666 1.4212-2.1641-0.39648-0.327-0.85215-0.19712-1.3084 0.33008-1.2461zm17.062 0.88867c-0.24166 0-0.48269 0.090108-0.66602 0.27344-0.36666 0.36666-0.067299 0.66797 0.66602 0.66797 0.10861 0 0.18655-0.018847 0.27539-0.03125 0.17312-0.14365 0.33468-0.3008 0.5-0.45312-0.024456-0.059305-0.042675-0.11885-0.10742-0.18359-0.18333-0.18333-0.42631-0.27344-0.66797-0.27344zm-36.498 0.94141c0.27498 0 0.5 0.225 0.5 0.5 0 0.27498-0.225 0.5-0.5 0.5-0.27499 0-0.5-0.225-0.5-0.5 0-0.27499 0.225-0.5 0.5-0.5z" opacity=".03" stroke-width=".99997"/>
 <path d="m2.1166 2.0071c-0.65174 0.62528-1.0583 1.5043-1.0583 2.483v7.9369c0 0.97868 0.40658 1.8577 1.0583 2.483v-12.903z" fill="url(#linearGradient991)" opacity=".75" stroke-width=".26458"/>
 <path d="m10.847 10.02c0.24592-0.05436 0.48678-0.18027 0.64656-0.33798l0.12926-0.1276 0.04871 0.10367c0.11606 0.24702 0.36226 0.37974 0.70404 0.37954 0.19372-1.23e-4 0.36528-0.03483 0.51237-0.10366l0.11135-0.05211v-0.24257l-0.08938 0.01413c-0.17968 0.0284-0.32997-0.03164-0.40257-0.16083l-0.04392-0.07817-0.0186-2.1435-0.04765-0.14193c-0.092046-0.27437-0.25402-0.45987-0.51355-0.58819-0.60776-0.30049-1.6908-0.18755-2.1337 0.22249-0.29796 0.27585-0.2978 0.66007 3.45e-4 0.82336 0.08172 0.044758 0.11403 0.052184 0.22705 0.052184 0.11279 0 0.14537-0.00745 0.22613-0.051734 0.26666-0.14621 0.3025-0.47531 0.07423-0.68154-0.06724-0.060748-0.06922-0.065315-0.03605-0.083068 0.15558-0.083265 0.57052-0.11378 0.80916-0.059501 0.15486 0.035223 0.31613 0.14067 0.39713 0.25968 0.10162 0.14931 0.13534 0.29721 0.13624 0.59772l7.88e-4 0.26162-0.49195 0.10931c-0.27057 0.060119-0.55412 0.12688-0.63011 0.14835-0.18552 0.052428-0.44249 0.15715-0.56618 0.23074-0.13144 0.078193-0.3135 0.24765-0.37042 0.34478-0.13596 0.23199-0.15285 0.59155-0.0385 0.81933 0.12311 0.24522 0.35697 0.42385 0.64766 0.49471 0.15234 0.03713 0.5236 0.03232 0.71155-0.0092zm-0.15811-0.42799c-0.22197-0.069839-0.35111-0.2149-0.3959-0.44471-0.04086-0.20966 0.03076-0.44266 0.17654-0.57437 0.08347-0.075409 0.29969-0.18666 0.4574-0.23534 0.12378-0.038208 0.59368-0.14426 0.63918-0.14426 0.02454 0 0.02763 0.061862 0.02763 0.55306v0.55306l-0.09434 0.09434c-0.15495 0.15495-0.3365 0.22294-0.59088 0.2213-0.08214-5.33e-4 -0.18097-0.01092-0.21962-0.02308zm-5.1743 0.27123v-0.12219l-0.06589-0.01131c-0.50231-0.086273-0.53777-0.18914-0.30254-0.87755 0.069343-0.20293 0.14577-0.42636 0.16983-0.49651l0.04376-0.12754 1.7407 0.00912 0.14723 0.42167c0.22075 0.63226 0.24631 0.74842 0.19285 0.87637-0.0388 0.09285-0.16292 0.15041-0.4193 0.19444l-0.06589 0.01131v0.24438h2.1435v-0.24245l-0.12921-0.028746c-0.17169-0.038198-0.30085-0.11751-0.3829-0.23514-0.1003-0.14378-0.10061-0.1446-0.87878-2.2784-0.10572-0.2899-0.2229-0.61011-0.26041-0.71157-0.037506-0.10146-0.15621-0.42562-0.26379-0.72036-0.10758-0.29473-0.22598-0.61889-0.26312-0.72036l-0.06752-0.18448-0.66477-0.00952-0.77898 2.1219c-0.42844 1.167-0.80528 2.1837-0.83742 2.2592-0.08082 0.18992-0.16932 0.31672-0.26552 0.38044-0.0789 0.05226-0.22434 0.10596-0.28697 0.10596-0.07579 0-0.0861 0.01706-0.0861 0.14244v0.12111h1.5813zm-0.035139-1.9652c0-0.010942 0.68802-2.0308 0.73129-2.1469 0.01151-0.030881-0.0038-0.072621 0.41011 1.1157 0.17504 0.50249 0.32974 0.94327 0.34378 0.97951l0.02553 0.065886h-0.75535c-0.41544 0-0.75535-0.00636-0.75535-0.014141z" opacity=".15" stroke-width=".01757"/>
 <path d="m10.847 9.824c0.24592-0.05436 0.48678-0.18027 0.64656-0.33798l0.12926-0.1276 0.04871 0.10367c0.11606 0.24702 0.36226 0.37974 0.70404 0.37954 0.19372-1.23e-4 0.36528-0.03483 0.51237-0.10366l0.11135-0.05211v-0.24257l-0.08938 0.01413c-0.17968 0.0284-0.32997-0.03164-0.40257-0.16083l-0.04392-0.07817-0.0186-2.1435-0.04765-0.14193c-0.092046-0.27437-0.25402-0.45987-0.51355-0.58819-0.60776-0.30049-1.6908-0.18755-2.1337 0.22249-0.29796 0.27585-0.2978 0.66007 3.45e-4 0.82336 0.08172 0.044758 0.11403 0.052184 0.22705 0.052184 0.11279 0 0.14537-0.00745 0.22613-0.051734 0.26666-0.14621 0.3025-0.47531 0.07423-0.68154-0.06724-0.060748-0.06922-0.065315-0.03605-0.083068 0.15558-0.083265 0.57052-0.11378 0.80916-0.059501 0.15486 0.035223 0.31613 0.14067 0.39713 0.25968 0.10162 0.14931 0.13534 0.29721 0.13624 0.59772l7.88e-4 0.26162-0.49195 0.10931c-0.27057 0.060119-0.55412 0.12688-0.63011 0.14835-0.18552 0.052428-0.44249 0.15715-0.56618 0.23074-0.13144 0.078193-0.3135 0.24765-0.37042 0.34478-0.13596 0.23199-0.15285 0.59155-0.0385 0.81933 0.12311 0.24522 0.35697 0.42385 0.64766 0.49471 0.15234 0.03713 0.5236 0.03232 0.71155-0.0092zm-0.15811-0.42799c-0.22197-0.069839-0.35111-0.2149-0.3959-0.44471-0.04086-0.20966 0.03076-0.44266 0.17654-0.57437 0.08347-0.075409 0.29969-0.18666 0.4574-0.23534 0.12378-0.038208 0.59368-0.14426 0.63918-0.14426 0.02454 0 0.02763 0.061862 0.02763 0.55306v0.55306l-0.09434 0.09434c-0.15495 0.15495-0.3365 0.22294-0.59088 0.2213-0.08214-5.33e-4 -0.18097-0.01092-0.21962-0.02308zm-5.1743 0.27123v-0.12219l-0.06589-0.01131c-0.50231-0.086273-0.53777-0.18914-0.30254-0.87755 0.069343-0.20293 0.14577-0.42636 0.16983-0.49651l0.04376-0.12754 1.7407 0.00912 0.14723 0.42167c0.22075 0.63226 0.24631 0.74842 0.19285 0.87637-0.0388 0.09285-0.16292 0.15041-0.4193 0.19444l-0.06589 0.01131v0.24438h2.1435v-0.24245l-0.12921-0.028746c-0.17169-0.038198-0.30085-0.11751-0.3829-0.23514-0.1003-0.14378-0.10061-0.1446-0.87878-2.2784-0.10572-0.2899-0.2229-0.61011-0.26041-0.71157-0.037506-0.10146-0.15621-0.42562-0.26379-0.72036-0.10758-0.29473-0.22598-0.61889-0.26312-0.72036l-0.06752-0.18448-0.66477-0.00952-0.77898 2.1219c-0.42844 1.167-0.80528 2.1837-0.83742 2.2592-0.08082 0.18992-0.16932 0.31672-0.26552 0.38044-0.0789 0.05226-0.22434 0.10596-0.28697 0.10596-0.07579 0-0.0861 0.01706-0.0861 0.14244v0.12111h1.5813zm-0.035139-1.9652c0-0.010942 0.68802-2.0308 0.73129-2.1469 0.01151-0.030881-0.0038-0.072621 0.41011 1.1157 0.17504 0.50249 0.32974 0.94327 0.34378 0.97951l0.02553 0.065886h-0.75535c-0.41544 0-0.75535-0.00636-0.75535-0.014141z" fill="#f4f0f0" stroke-width=".01757"/>
 <path transform="scale(.26458)" d="m57.586 48.342c-2.4872 2.2628-5.8738 3.6582-9.625 3.6582h-31.922c-3.0041 0-5.7638-0.9069-8.0254-2.4258 0 0-0.6783 1.2759-0.33984 2 1.7256 3.6917 5.9473 6.4258 10.4 6.4258h27.854c5.6121 0 10.293-4.0885 11.658-9.6582z" fill="none" opacity=".08" stroke="#000" stroke-linecap="round" stroke-linejoin="round" stroke-opacity=".99568" stroke-width=".99999"/>
 <path transform="scale(.26458)" d="m57.586 48.342c-2.4872 2.2628-5.8738 3.6582-9.625 3.6582h-31.922c-3.0041 0-5.7638-0.9069-8.0254-2.4258 0 0-0.6783 1.2759-0.33984 2 1.7256 3.6917 5.9473 6.4258 10.4 6.4258h27.854c5.6121 0 10.293-4.0885 11.658-9.6582z" fill="url(#linearGradient1019)" stroke-width="3.642"/>
 <path transform="scale(.26458)" d="m57.482 48.428c-0.066759 0.059543-0.13902 0.11358-0.20703 0.17188-2.1235 3.3922-6.6313 4.2734-11.348 4.2734h-27.854c-3.888 0-8.0321-0.61638-10.172-3.0605-0.010173 0.023136-0.022322 0.062028-0.033203 0.087891 2.1295 2.477 6.2963 3.0996 10.205 3.0996h27.854c4.7399 0 9.264-0.92777 11.381-4.3398-0.02463 0.059082-0.052476 0.11564-0.078125 0.17383-2.004 3.7222-6.4613 5.0391-11.303 5.0391h-27.854c-4.0816 0-8.2711-0.98615-10.271-3.7988-0.0099191 0.026214-0.01746 0.048539-0.027344 0.076172 1.9863 2.8492 6.1947 3.8496 10.299 3.8496h27.854c4.6876 0 9.0057-1.2705 11.1-4.7109-1.9495 3.8521-6.2422 5.584-11.1 5.584h-27.854c-4.3154 0-8.53-1.3523-10.357-4.5664-0.0091097 0.029404-0.010941 0.063505-0.019531 0.09375 1.8171 3.2383 6.0465 4.5996 10.377 4.5996h27.854c4.8572 0 9.1472-1.7572 11.1-5.5938-1.9072 4.0831-6.1886 6.4668-11.1 6.4668h-27.854c-4.3778 0-8.6091-2.0697-10.391-5.4082-0.0081419 0.030724-0.012173 0.06247-0.019531 0.09375 1.7709 3.3585 6.0175 5.4414 10.41 5.4414h27.854c4.7813 0 8.9632-2.2718 10.943-6.1523-1.9076 4.1528-6.0718 7.0254-10.943 7.0254h-27.854c-4.4531 0-8.6748-2.5482-10.4-5.9883-0.022805-0.045463-0.032103-0.09656-0.044922-0.14648-0.004058 0.02384-0.010296 0.046425-0.013672 0.070313 0.014816 0.069641 0.027369 0.14088 0.058594 0.20312 1.7256 3.4401 5.9473 5.9883 10.4 5.9883h27.854c5.3156 0 9.7897-3.42 11.408-8.1914 0.039805-0.10425 0.080366-0.20826 0.11719-0.31445 0.010162-0.021799 0.019101-0.044654 0.029297-0.066407z" opacity=".15" stroke-width="3.5157"/>
 <g fill="#fff">
  <path d="m4.4983 1.0583c-1.9057 0-3.44 1.5343-3.44 3.44v0.52916c0-1.9057 1.5343-3.44 3.44-3.44h7.9363c1.9057 0 3.44 1.5343 3.44 3.44v-0.52916c0-1.9057-1.5343-3.44-3.44-3.44z" opacity=".05" stroke-width=".99996"/>
  <path transform="scale(.26458)" d="m17.002 4c-7.2029 0-13.002 5.799-13.002 13.002v1c0-7.2029 5.799-13.002 13.002-13.002h29.996c7.2029 0 13.002 5.799 13.002 13.002v-1c0-7.2029-5.799-13.002-13.002-13.002h-29.996z" opacity=".05" stroke-width="3.7794"/>
  <path d="m4.4983 1.0583c-1.9058 0-3.44 1.5342-3.44 3.44v7.7901l0.080097-7.6428c0.019978-1.9057 1.5177-3.44 3.4028-3.44h7.851c1.8852 0 3.3834 1.5343 3.4028 3.44l0.07958 7.789c1.76e-4 0.0172-0.0018 0.0353-0.0021 0.05271h1e-3c2.61e-4 -0.01747 0.0015-0.03466 0.0015-0.05219v-7.9368c0-1.9058-1.5342-3.44-3.44-3.44zm-3.44 11.23-0.00155 0.14779c-1.75e-4 0.0167 0.00184 0.03427 0.00207 0.05116h0.00103c-2.612e-4 -0.01747-0.00155-0.03466-0.00155-0.05219z" opacity=".08"/>
 </g>
</svg>
