<svg xmlns="http://www.w3.org/2000/svg" width="64" height="64" viewBox="0 0 16.933 16.933"><defs><linearGradient id="d" x1="2.646" x2="14.189" y1="3.257" y2="14.287" gradientUnits="userSpaceOnUse"><stop offset="0" stop-color="#b69152"/><stop offset="1" stop-color="#aa7f46"/></linearGradient><linearGradient id="e" x1="4" x2="8" y1="31.97" y2="31.97" gradientUnits="userSpaceOnUse"><stop offset="0" stop-color="#715429"/><stop offset=".486" stop-color="#987136"/><stop offset="1" stop-color="#735429"/></linearGradient><linearGradient id="c" x1="14.552" x2="14.552" y1="7.408" y2="6.085" gradientUnits="userSpaceOnUse"><stop offset="0" stop-color="#5ac8fa"/><stop offset="1" stop-color="#3e7790"/></linearGradient><linearGradient id="b" x1="14.816" x2="14.816" y1="10.054" y2="8.731" gradientUnits="userSpaceOnUse"><stop offset="0" stop-color="#ff9500"/><stop offset="1" stop-color="#915400"/></linearGradient><linearGradient id="a" x1="14.287" x2="14.287" y1="12.7" y2="11.377" gradientUnits="userSpaceOnUse"><stop offset="0" stop-color="#4cd964"/><stop offset="1" stop-color="#2c7e3a"/></linearGradient></defs><g color="#000"><path d="M4.37.53C2.254.53.53 2.312.53 4.496v8.468c0 2.184 1.725 3.968 3.84 3.968h8.194c2.114 0 3.84-1.783 3.84-3.968V4.497c0-2.184-1.726-3.968-3.84-3.968zm.256.52h7.681c1.844 0 3.33 1.534 3.33 3.44v7.937c0 1.906-1.485 3.44-3.33 3.44h-7.68c-1.845 0-3.33-1.534-3.33-3.44V4.49c0-1.906 1.485-3.44 3.33-3.44" opacity=".01" style="font-feature-settings:normal;font-variant-alternates:normal;font-variant-caps:normal;font-variant-east-asian:normal;font-variant-ligatures:normal;font-variant-numeric:normal;font-variant-position:normal;font-variation-settings:normal;inline-size:0;isolation:auto;mix-blend-mode:normal;shape-margin:0;shape-padding:0;text-decoration-color:#000;text-decoration-line:none;text-decoration-style:solid;text-indent:0;text-orientation:mixed;text-transform:none;white-space:normal"/><path d="M4.359.794C2.392.794.795 2.447.795 4.48v8.5c0 2.035 1.597 3.688 3.564 3.688h8.216c1.967 0 3.564-1.653 3.564-3.688v-8.5c0-2.034-1.597-3.687-3.564-3.687zm.272.256h7.672c1.842 0 3.325 1.534 3.325 3.44v7.937c0 1.906-1.483 3.44-3.325 3.44H4.63c-1.842 0-3.325-1.534-3.325-3.44V4.49c0-1.906 1.483-3.44 3.325-3.44" opacity=".01" style="font-feature-settings:normal;font-variant-alternates:normal;font-variant-caps:normal;font-variant-east-asian:normal;font-variant-ligatures:normal;font-variant-numeric:normal;font-variant-position:normal;font-variation-settings:normal;inline-size:0;isolation:auto;mix-blend-mode:normal;shape-margin:0;shape-padding:0;text-decoration-color:#000;text-decoration-line:none;text-decoration-style:solid;text-indent:0;text-orientation:mixed;text-transform:none;white-space:normal"/><path d="M4.31 1.058c-1.866 0-3.375 1.539-3.375 3.44v8.467c0 1.9 1.57 3.439 3.435 3.439h8.2c1.866 0 3.427-1.538 3.427-3.44V4.498c0-1.9-1.51-3.439-3.375-3.439h-.097c1.794.087 3.214 1.582 3.214 3.432v7.937c0 1.906-1.506 3.44-3.377 3.44h-7.79c-1.871 0-3.377-1.534-3.377-3.44V4.49c0-1.85 1.42-3.345 3.214-3.432z" opacity=".03" style="font-feature-settings:normal;font-variant-alternates:normal;font-variant-caps:normal;font-variant-east-asian:normal;font-variant-ligatures:normal;font-variant-numeric:normal;font-variant-position:normal;font-variation-settings:normal;inline-size:0;isolation:auto;mix-blend-mode:normal;shape-margin:0;shape-padding:0;text-decoration-color:#000;text-decoration-line:none;text-decoration-style:solid;text-indent:0;text-orientation:mixed;text-transform:none;white-space:normal"/><path d="M4 46.969V49c0 6.648 5.896 12 12.544 12h30.961C54.153 61 60 55.648 60 49v-1.992a12.97 12.97 0 0 1-13 12.963H17.002A12.973 12.973 0 0 1 4 46.969" opacity=".03" style="font-feature-settings:normal;font-variant-alternates:normal;font-variant-caps:normal;font-variant-east-asian:normal;font-variant-ligatures:normal;font-variant-numeric:normal;font-variant-position:normal;font-variation-settings:normal;inline-size:0;isolation:auto;mix-blend-mode:normal;shape-margin:0;shape-padding:0;text-decoration-color:#000;text-decoration-line:none;text-decoration-style:solid;text-indent:0;text-orientation:mixed;text-transform:none;white-space:normal" transform="scale(.26458)"/><path d="M1.058 11.906v.592c0 1.939 1.573 3.5 3.332 3.5h8.16c1.76 0 3.325-1.561 3.325-3.5v-.58c-.006 2.095-1.537 3.78-3.44 3.78H4.498c-1.905 0-3.44-1.692-3.44-3.792z" opacity=".05" style="font-feature-settings:normal;font-variant-alternates:normal;font-variant-caps:normal;font-variant-east-asian:normal;font-variant-ligatures:normal;font-variant-numeric:normal;font-variant-position:normal;font-variation-settings:normal;inline-size:0;isolation:auto;mix-blend-mode:normal;shape-margin:0;shape-padding:0;text-decoration-color:#000;text-decoration-line:none;text-decoration-style:solid;text-indent:0;text-orientation:mixed;text-transform:none;white-space:normal"/></g><path fill="url(#a)" d="M7.408 14.552A1.85 1.85 0 0 1 5.556 12.7v-1.852c0-.293.236-.53.53-.53h9.789c.293 0 .529.237.529.53V12.7a1.85 1.85 0 0 1-1.852 1.852z"/><rect width="10.848" height="4.233" x="5.556" y="7.673" fill="url(#b)" rx=".529" ry=".529"/><rect width="10.848" height="4.233" x="5.556" y="5.027" fill="url(#c)" rx=".529" ry=".529"/><path fill="#c4c2ba" d="M7.408 2.381a1.85 1.85 0 0 0-1.852 1.852v1.852c0 .293.236.53.53.53h9.789c.293 0 .529-.237.529-.53V4.233a1.85 1.85 0 0 0-1.852-1.852z"/><rect width="14.817" height="14.817" x="1.058" y="1.05" fill="url(#d)" rx="3.44" ry="3.44"/><path fill="#936c3b" d="M8.467 3.704a4.76 4.76 0 0 0-4.763 4.763 4.76 4.76 0 0 0 2.284 4.061l.021.012a5 5 0 0 0 .388.212l.06.026a5 5 0 0 0 .374.157l.09.03a5 5 0 0 0 .351.109l.145.032a5 5 0 0 0 .314.063l.177.021a5 5 0 0 0 .304.03 5 5 0 0 0 .255.01 4.76 4.76 0 0 0 3.52-1.564l.045-.048-.001-.002a4.76 4.76 0 0 0 1.198-3.15 4.76 4.76 0 0 0-4.762-4.762zm0 .53A4.233 4.233 0 0 1 12.7 8.466a4.23 4.23 0 0 1-.99 2.718c-.728-.856-1.834-1.396-3.244-1.396-1.407 0-2.513.538-3.242 1.393a4.23 4.23 0 0 1-.99-2.716 4.233 4.233 0 0 1 4.232-4.233zm0 1.322a1.587 1.72 0 0 0-1.588 1.72 1.587 1.72 0 0 0 1.588 1.72 1.587 1.72 0 0 0 1.587-1.72 1.587 1.72 0 0 0-1.587-1.72"/><path d="M8.466 9.79c-1.408 0-2.513.538-3.242 1.392l.035.039c.728-.833 1.82-1.356 3.207-1.356 1.388 0 2.482.524 3.21 1.358l.035-.038c-.729-.856-1.836-1.396-3.245-1.396M8.467 5.556a1.587 1.72 0 0 0-1.588 1.72 1.587 1.72 0 0 0 1.588 1.72 1.587 1.72 0 0 0 1.587-1.72 1.587 1.72 0 0 0-1.587-1.72m0 .1a1.537 1.652 0 0 1 1.536 1.651A1.537 1.652 0 0 1 8.467 8.96 1.537 1.652 0 0 1 6.93 7.307a1.537 1.652 0 0 1 1.537-1.652" opacity=".2"/><path d="M8.467 3.704a4.76 4.76 0 0 0-4.763 4.763 4.76 4.76 0 0 0 4.763 4.762 4.76 4.76 0 0 0 4.762-4.762 4.76 4.76 0 0 0-4.762-4.763m0 .116a4.686 4.686 0 0 1 4.686 4.687 4.686 4.686 0 0 1-4.686 4.686A4.686 4.686 0 0 1 3.78 8.507 4.686 4.686 0 0 1 8.467 3.82" opacity=".2"/><path d="M8.467 4.208a4.26 4.26 0 0 0-4.26 4.259 4.26 4.26 0 0 0 .978 2.711l.001-.002.038.006a4.23 4.23 0 0 1-.99-2.716 4.233 4.233 0 0 1 4.232-4.233A4.233 4.233 0 0 1 12.7 8.466a4.23 4.23 0 0 1-.99 2.719l.021-.013.01.013a4.26 4.26 0 0 0 .984-2.719 4.26 4.26 0 0 0-4.259-4.258z" opacity=".2"/><path fill="url(#e)" d="M8 7.586a12.95 12.95 0 0 0-4 9.385v29.998c0 3.699 1.537 7.021 4 9.384z" opacity=".5" transform="scale(.26458)"/><path fill="#fff" d="M4.498 1.05a3.43 3.43 0 0 0-3.44 3.44v.273a3.43 3.43 0 0 1 3.44-3.44h7.937a3.43 3.43 0 0 1 3.44 3.44V4.49a3.43 3.43 0 0 0-3.44-3.44z" opacity=".15"/><path d="M4.498 15.875a3.43 3.43 0 0 1-3.44-3.44v-.273a3.43 3.43 0 0 0 3.44 3.44h7.937a3.43 3.43 0 0 0 3.44-3.44v.273a3.43 3.43 0 0 1-3.44 3.44z" opacity=".15"/><path d="m4.187 1.076-.063.003c-.5.054-.967.217-1.379.46-.076.066-.16.116-.245.159a3.4 3.4 0 0 0-.628.577.8.8 0 0 0 .392.007c.441-.08.574.018.552.41-.016.282-.208.627-.426.765-.547.345-.792.32-.697-.072.045-.182.03-.241-.03-.131-.062.11-.191.152-.288.092s-.206.676-.243 1.635c-.045 1.174.042 1.814.265 1.955.48.306.517.275.338-.289-.471-1.486-.348-1.977.326-1.302.232.232.405.224.714-.033.444-.368.574-1.2.146-.936-.144.09-.472.04-.727-.11-.374-.219-.297-.255.394-.182.535.057.86-.026.86-.22 0-.462.723-1.366.928-1.16.097.097-.088.534-.411.972-.339.458-.518.977-.423 1.225.112.292.06.371-.163.246-.18-.1-.13.027.11.283.624.663 1.105.254.935-.794-.085-.524.006-1.071.23-1.393.32-.456.318-.574-.017-.851-.213-.178-.569-.254-.789-.17-.46.177-.507-.052-.13-.623.224-.337.337-.302.754.236.523.676 1.093.57 1.093-.202 0-.366-.676-.564-1.378-.557m8.674.011c-.263.038-.317.177-.23.512q.193.728-1.019.57c-.094-.012-.231.212-.306.498s-.008.52.148.52.208.076.114.17c-.093.093-.357.014-.585-.176-.332-.275-.347-.39-.073-.563.188-.12.224-.217.078-.217-.353 0-.976.405-.948.616.066.492-.003.698-.234.698-.14 0-.183-.208-.093-.463.133-.378.098-.402-.195-.13-.296.275-.201.466.556 1.113.503.43.803.787.666.792-.297.013.676.785 1.004.797.125.004.153-.184.063-.418-.11-.29-.048-.383.196-.29.258.1.324-.04.236-.499-.075-.392.003-.637.202-.637.178 0 .257.175.175.389-.082.213-.017.47.145.57.171.105.22.062.116-.106a.33.33 0 0 1 .096-.456c.15-.093.215-.262.144-.377-.07-.114.154-.154.5-.088q.63.121.588-.236c-.048-.41.118-.493.95-.48.59.009.589.013-.066.408l-.661.398.661-.144c.654-.143.655-.142.066.161-.327.169-.595.467-.595.663s-.178.356-.397.356c-.218 0-.397.128-.397.283 0 .156-.222.212-.496.125-.351-.112-.537-.004-.634.37-.078.296-.015.502.142.47.154-.031.364.24.467.604.182.646.197.638.627-.342s1.063-1.487 1.416-1.135c.096.097-.087.244-.409.328-.703.184-.745.491-.12.89.41.262.395.282-.123.173-.415-.088-.634.026-.75.39-.114.36-.312.465-.67.351-.571-.181-.67.136-.19.616.194.193.412.222.561.073.134-.134.428-.173.652-.087.258.099.341.048.226-.137-.162-.263.762-1.384 1.141-1.384.085 0 .152-.827.15-1.839-.002-.665-.057-1.208-.145-1.615a3.4 3.4 0 0 0-.46-.784c-.104.002-.216.087-.333.272-.2.317-.25.322-.254.027-.002-.163.135-.41.32-.608q-.076-.076-.16-.147c-.388.173-.454.127-.406-.237a.2.2 0 0 0-.01-.083 3.4 3.4 0 0 0-1.447-.525m-3.86.043c-3.121.022-3.171.031-3.171.626 0 .333-.138.69-.305.794-.211.13-.155.297.183.544.453.332.437.357-.225.357-.391 0-.712.119-.712.264s.298.265.662.265c.363 0 .661-.119.661-.265s.208-.278.463-.295c.441-.029.441-.036 0-.152-.31-.08-.463-.38-.463-.91 0-.482.108-.724.276-.62.152.094.469.012.704-.183.364-.3.408-.293.29.044-.22.622.277 1.325.922 1.306l.586-.017-.595-.24c-.344-.137-.595-.465-.595-.776 0-.587.386-.718.686-.232.105.17.074.234-.073.144-.143-.089-.261-.004-.261.187 0 .208.196.298.482.223.265-.07.431-.21.368-.31-.157-.255 1.232-.203 1.641.062q.331.215.335-.265c.004-.406.043-.419.26-.082.229.353.26.353.28 0 .018-.307.063-.294.203.057q.179.455.544.228c.875-.541-.103-.776-3.147-.754m-4.278.204c.155 0 .36.127.456.282.285.461-.04.56-.403.122-.208-.252-.228-.404-.053-.404m8.835.02a.12.12 0 0 1 .083.031c.082.082-.065.23-.326.33-.377.143-.407.113-.148-.149.135-.135.288-.215.391-.212m-10.507.245c.073 0 .132.06.132.132s-.06.132-.132.132a.133.133 0 0 1-.132-.132c0-.073.06-.132.132-.132m10.583.264a.133.133 0 0 1 0 .265.133.133 0 0 1-.132-.132c0-.073.06-.133.132-.133m-3.566.063a3 3 0 0 0-.316.049c-.338.062-.652.123-.697.133s-.008.14.082.285c.22.357.364.334.832-.134.266-.266.32-.35.099-.333m4.135.267q.06-.027.072.234c.012.237-.158.578-.376.76-.218.18-.397.25-.397.155 0-.096-.238-.047-.53.109-.4.214-.533.2-.549-.057-.012-.187-.14-.013-.287.388-.146.4-.404.724-.574.719-.506-.014-1.293-.718-1.002-.898.145-.09.382.047.525.303.319.57.631.313.631-.52 0-.605 1.169-1.451 1.502-1.086.084.09.003.218-.179.283-.502.18-.395.49.168.49.328 0 .449-.132.352-.383-.089-.233-.034-.315.14-.207.158.098.347.028.421-.155q.048-.12.083-.135m-7.592.201c-.155-.001-.252.082-.252.263 0 .146.179.265.397.265s.397.119.397.264.185.265.412.265.334.127.238.283-.341.218-.545.14c-.203-.078-.37-.027-.37.114 0 .355.622.322.996-.052.236-.235.35-.204.479.132.093.243.32.441.505.441s.485.179.666.397c.208.25.225.397.047.397-.154 0-.36-.128-.457-.286s-.452-.217-.788-.133c-.364.092-.672.02-.762-.177-.084-.181-.081-.047.006.298q.16.633-.135.448a.7.7 0 0 1-.292-.53c0-.548-1.616-.763-2.1-.28-.366.366-.32.39.45.236.533-.106.856-.066.856.109 0 .154.238.355.53.447.692.22.675.538-.03.591-.308.024-.494-.023-.414-.104s.008-.294-.16-.475c-.335-.358-1.249-.236-1.249.167 0 .137.101.187.225.11s.452.031.728.24c.276.21.696.384.932.39.648.012.582 1.33-.066 1.33-.273 0-.496.186-.496.413s-.12.339-.265.249c-.15-.093-.264.134-.264.529 0 .394.114.622.264.529.146-.09.265-.328.265-.53 0-.508.488-.758.871-.445.216.177.43.141.66-.11.198-.213.225-.37.067-.37a.273.273 0 0 1-.275-.27c0-.159.3-.2.727-.1.712.164.716.158.199-.282-.442-.376-.453-.426-.066-.304.254.08.463.03.463-.11s-.278-.257-.618-.257c-.704 0-.84-.696-.252-1.286.312-.311.344-.252.215.394-.142.716-.132.725.16.164.17-.327.412-.595.535-.595.36 0 .257.792-.106.814-.265.017-.265.048 0 .155.181.073.34.332.35.575.016.319.061.34.165.08.121-.305.18-.305.372 0 .178.28.23.253.233-.118.002-.263.123-.405.268-.315.307.19.36 1.622.066 1.786-.25.14.333-.014.86-.227.218-.089.397-.03.397.132 0 .161-.115.293-.255.293s-.377.229-.527.508c-.26.485-.236.49.52.113.435-.218.787-.536.783-.707-.012-.43-.653-1.237-.985-1.237-.15 0-.345-.188-.434-.418-.256-.668-.171-.81.195-.328.417.549 1.808.75 1.912.276.04-.185.014-.215-.06-.066-.24.484-.592.287-.484-.272.084-.44.004-.51-.425-.374-.291.092-.703.024-.914-.151-.271-.225-.384-.232-.384-.022 0 .163-.238.297-.53.297-.29 0-.528-.12-.528-.265s.089-.235.198-.198a.21.21 0 0 0 .23-.073q-.014.006-.032.007a.133.133 0 0 1-.132-.133c0-.072.06-.132.132-.132a.13.13 0 0 1 .104.054c.124-.54-.11-.932-.722-1.191-.46-.196-.708-.471-.641-.715.082-.297.05-.312-.127-.063-.179.253-.387.173-.86-.33-.395-.422-.814-.661-1.073-.664zm3.423 2.963c-.011.047-.02.094-.038.144a.2.2 0 0 1-.034.06.13.13 0 0 0 .1-.126.13.13 0 0 0-.028-.078m-8.57-1.642a.133.133 0 1 1-.132.132c0-.072.06-.132.132-.132m14.022.53c.073 0 .132.06.132.132s-.059.132-.132.132a.133.133 0 0 1 0-.264m-1.489.068a2 2 0 0 0-.21.003c-.3.022-.495.22-.475.481.027.359.124.386.509.146.543-.339.599-.601.176-.63m-9.895.066q.042.019.085.225c.058.27-.011.606-.152.747-.166.166-.202-.008-.104-.49.07-.347.123-.503.171-.482m10.855.13c.073 0 .132.06.132.132s-.06.133-.132.133-.132-.06-.132-.133c0-.072.06-.132.132-.132m-13.096.016c.064 0 .128.024.176.073.097.097.018.176-.176.176s-.273-.08-.176-.176a.25.25 0 0 1 .176-.073m.397.513a.133.133 0 0 1 0 .265.133.133 0 0 1-.132-.132c0-.073.06-.133.132-.133m11.052.837q.045-.001.15.064c.169.104.306.241.306.305 0 .221-.233.117-.422-.188q-.108-.178-.034-.181m1.8.087c.143-.015.244.037.244.143 0 .14-.179.256-.397.256s-.397-.046-.397-.104.179-.172.397-.256a.6.6 0 0 1 .154-.039m-10.39.135c-.239 0-.473.119-.522.265q-.09.264-.997.004c-1.172-.336-1.315-.161-.542.661.458.488.546.742.33.959-.396.395-1.74.057-1.497-.376.127-.224.07-.219-.185.019-.313.29-.309.379.027.591q.39.248.066.254c-.202.002-.297.289-.247.743.107.982.38 1.382.922 1.356.276-.013.32-.071.117-.154-.44-.177-.406-.894.072-1.525.437-.578.664-.468.726.348.023.307.149.559.279.559s.163-.209.075-.463c-.154-.441-.144-.441.2 0 .197.254.525.472.727.483q.372.021.052.15c-.174.07-.254.29-.178.488.076.197-.105.602-.402.9-.549.548-.527.611.311.91.35.125.454.05.397-.284-.043-.253.098-.463.32-.476.744-.043.79.172.163.754-.622.577-.692.704-.692 1.274 0 .193-.156.17-.448-.066-.304-.247-.383-.257-.248-.032.317.528-.079.94-.538.558-.315-.261-.44-.252-.624.047-.144.233-.112.448.086.574.219.139.225.203.019.206-.164.002-.462-.198-.661-.444-.31-.382-.309-.415.012-.221.287.173.333.115.194-.245-.151-.395-.068-.45.507-.34.572.108.666.047.558-.366-.14-.538.332-.673.782-.223.188.188.273.146.273-.133 0-.223-.121-.405-.27-.405-.265 0-2.552-1.047-2.552-1.169 0-.034.357-.01.794.054.602.088.793.013.793-.31 0-.235.132-.427.293-.427.163 0 .22.192.127.434-.141.366-.103.38.244.092.434-.36.429-.826-.009-.837-.142-.003-.464-.116-.715-.25-.355-.19-.423-.156-.303.155.204.532-.589.823-1.095.402-.328-.272-.394-.23-.394.253 0 .648.46 1.639.892 1.919.156.101.197.271.09.378-.106.106-.35-.022-.543-.286-.336-.46-.351-.459-.373.02q-.006.154.011.317c.157.7.525 1.317 1.036 1.783.596.176 1.073-.086.835-.471-.102-.165-.055-.212.11-.11a.336.336 0 0 0 .461-.104c.096-.155.42-.246.72-.203.406.059.707-.207 1.166-1.028.68-1.216.586-2.057-.207-1.85-.271.071-.56.022-.641-.11-.082-.132-.023-.24.131-.24.155 0 .281-.126.281-.28s-.102-.217-.227-.14c-.346.214-.123-1.191.243-1.531.246-.23.285-.15.166.34-.187.77.214 1.611.769 1.611.237 0 .325.126.214.305-.112.183-.073.234.099.129.157-.098.355-.069.438.066.083.134.395.18.695.101.398-.104.583.007.69.415l.146.558.477-.589c.263-.323.574-.492.691-.375.118.117.039.323-.175.459-.341.215-.34.247.007.254.329.007.334.048.032.239-.2.127-.283.363-.183.525.112.18-.034.294-.378.294-.33 0-.489.116-.386.283.096.155.333.222.526.148.408-.157 1.034.491.815.845-.082.132-.448.183-.813.113-.366-.07-.6-.232-.52-.36.362-.586-.237-.74-.938-.24-.412.293-.88.534-1.04.534-.436 0-.348-.45.124-.631.227-.088.332-.29.232-.452q-.181-.292-.734.26c-.433.432-.483.622-.232.873.176.176.32.48.32.675 0 .29-.067.292-.37.013-.202-.188-.314-.43-.248-.54.066-.109-.069-.198-.3-.198-.232 0-.501.209-.6.463-.15.392-.206.361-.362-.198-.174-.628-.185-.632-.21-.066-.014.327-.152.595-.306.595s-.202-.128-.105-.284c.096-.157-.07-.131-.37.057-.216.134-.328.244-.349.339.308.165.644.282 1 .347 1.341.073 3.649-.113 3.742-.393.06-.182-.089-.33-.331-.33s-.394-.142-.336-.315c.154-.464.732-.584.732-.152 0 .264.294.356 1.015.316.7-.038 1.014.055 1.014.3 0 .196-.129.275-.287.177-.423-.265-1.477-.28-1.477-.021 0 .123.268.237.595.253.328.016 1 .076 1.495.132.494.057 1.06-.03 1.257-.194.264-.22.357-.22.357 0 0 .235.655.314 1.315.241a3.4 3.4 0 0 0 1.213-.43c-.069.008-.18.027-.344.059-.328.062-.657.013-.733-.109s-.412-.171-.75-.11q-.611.11-.612-.269c0-.286.12-.316.485-.12.527.282.567.234.324-.398-.089-.23-.4-.419-.692-.419-.398 0-.498.13-.396.52.075.285-.03.656-.234.825-.306.255-.342.17-.207-.502.145-.726.104-.794-.397-.663-.322.084-.56.02-.56-.15 0-.272.43-.397 1.258-.366.181.007.33-.262.33-.598 0-.899.278-1.468.623-1.275.216.121.214.073-.007-.166-.17-.184-.253-.482-.185-.661.069-.18-.178-.524-.55-.767-.587-.385-.674-.39-.674-.04 0 .222.107.403.24.403.131 0 .19.268.129.596-.06.327-.04.445.047.263.087-.183.263-.268.39-.19.385.238-.325 1.448-.849 1.448-.509 0-.659-.392-.247-.647.132-.081.179-.382.104-.67-.104-.397-.245-.465-.585-.283-.255.136-.608.141-.818.011-.432-.266-.87-.075-.649.284.084.136.026.247-.128.247-.262 0-.426-.865-.275-1.456.147-.575.231-1.557.095-1.11-.12.398-.217.422-.585.145-.372-.28-.39-.274-.11.039.365.409.445 1.059.13 1.059-.11 0-.363-.37-.563-.82-.248-.563-.427-.717-.567-.49-.2.323-.072.558.868 1.593.254.281.373.509.264.507-.716-.013-1.366-.398-1.622-.96-.164-.36-.4-.591-.524-.515-.124.077-.169-.155-.1-.514.072-.38 0-.653-.17-.653-.163 0-.374-.03-.469-.067-.095-.036-.205.154-.245.422-.11.753-.286.793-.883.196-.692-.692-.699-.916-.022-.74.29.077.595.031.677-.1.081-.133.38-.24.662-.24s.514-.127.514-.28c0-.155-.15-.195-.331-.09-.192.11-.239.089-.11-.051.12-.133.299-.251.396-.264s.443-.134.768-.27c.583-.241.584-.25.067-.574-.313-.195-.526-.22-.526-.061a.27.27 0 0 1-.276.267c-.151 0-.535.241-.852.537-.681.634-1.34.582-1.475-.116-.073-.375.013-.456.348-.328.245.094.7-.008 1.012-.226.448-.313.476-.397.133-.397zm.713 0a.133.133 0 0 0-.132.132c0 .073.06.132.132.132s.132-.06.132-.132a.133.133 0 0 0-.132-.132m2.117 0c.072 0 .132.06.132.132s-.06.132-.132.132a.133.133 0 0 1-.133-.132c0-.073.06-.132.133-.132m4.232.264a.133.133 0 0 1 0 .265.133.133 0 0 1-.132-.132c0-.073.06-.133.132-.133m3.971.72q-.028-.007-.059.074c-.216.58-1.052 1.323-1.49 1.323-.5 0-.738.652-.37 1.019.21.21.208.468-.006.936-.234.514-.217.676.084.791.212.081.35.004.315-.176-.035-.177.085-.291.267-.255s.331-.053.331-.198-.126-.265-.28-.265-.208-.117-.12-.26c.234-.377 1.171.276 1.007.702-.073.192-.226.291-.34.221s-.354.049-.534.266c-.18.216-.216.394-.08.394.135 0 .477.187.76.416.282.23.375.348.207.264-.2-.099-.257.033-.167.378.083.316.008.53-.186.53-.178 0-.262-.16-.187-.356s.017-.522-.129-.727c-.206-.29-.23-.265-.108.112q.155.482-.173.37c-.182-.064-.296-.312-.253-.551.045-.254-.097-.436-.34-.436-.331 0-.362.106-.145.511.368.687.356.729-.254.888-.647.17-.978-.273-.52-.695.255-.236.289-.23.146.023-.103.182-.052.331.113.331.378 0 .23-.848-.171-.982-.165-.054-.377.208-.471.584-.095.376-.287.613-.428.525-.564-.348-.21.6.521 1.402h.001c.7.767 1.591 1.213 1.219.61-.082-.133 0-.312.183-.398s.01-.114-.382-.062c-.776.103-1.147-.373-.667-.853.437-.437.935-.363 1.574.233.403.375.458.53.188.533-.325.003-.323.04.01.25q.136.084.255.092a3.4 3.4 0 0 0 .371-.542.7.7 0 0 0-.143-.265c-.217-.26-.195-.31.09-.2.31.118.379-.278.382-2.19.004-2.246-.018-2.336-.604-2.385-.335-.027-.61.064-.61.204s-.177.184-.395.1c-.574-.22-.212-.624.56-.624.458 0 .6-.102.462-.331-.135-.225-.055-.214.249.032.406.33.446.269.427-.661-.009-.423-.054-.688-.11-.701M2.39 7.156c-.145 0-.264.179-.264.397s.119.397.264.397.265-.179.265-.397-.12-.397-.265-.397m1.455 0a.133.133 0 0 0-.132.132c0 .073.06.133.132.133s.133-.06.133-.133a.133.133 0 0 0-.133-.132m5.644.265c-.264 0-.29.37-.044.617.246.245.265.23.265-.22 0-.219-.1-.397-.22-.397m.681.047c-.063-.01-.108.072-.108.217 0 .194.08.273.177.176a.25.25 0 0 0 0-.352.13.13 0 0 0-.069-.04m2.511.614-.256.634c-.142.348-.225.646-.185.661s.31.17.6.343c.292.173.619.322.728.33.352.028.21-.525-.172-.672-.204-.078-.448-.401-.543-.719zm-10.673.397c.065 0 .117.119.117.264s-.126.265-.28.265-.207-.119-.117-.265c.09-.145.216-.264.28-.264m2.895 0c.073 0 .132.06.132.132s-.06.132-.132.132a.133.133 0 0 1-.132-.132c0-.073.06-.132.132-.132m4.072 0c-.13 0-.235.35-.235.778s-.136.862-.302.964c-.185.115-.008.31.463.509.633.268.844.254 1.227-.078.35-.305.39-.488.166-.758-.163-.196-.192-.36-.066-.366.298-.01-.942-1.05-1.253-1.05m1.484.264a.133.133 0 0 0-.132.133c0 .073.06.132.132.132s.132-.06.132-.132a.133.133 0 0 0-.132-.133m-.934.323c.199-.009.303.244.515 1.126.034.142-.066.3-.222.353-.166.055-.216-.085-.12-.335.108-.282.04-.403-.199-.353-.433.092-.494-.629-.066-.771a.4.4 0 0 1 .092-.02m5.549.207c.137 0 .322.119.412.264s-.022.265-.25.265c-.226 0-.411-.12-.411-.265s.112-.264.249-.264m-3.155.406c-.16.003-.29.038-.365.113-.19.19-.135.285.175.307.247.019.569.063.714.1.146.036.391.08.545.099.155.018.206.154.114.302s-.264.208-.384.133-.287.044-.37.26q-.152.396.34.396c.523 0 .922-.668.657-1.098-.214-.346-.947-.621-1.426-.612m-5.399.214c-.095-.016-.161.042-.161.158 0 .154.119.28.264.28s.265-.053.265-.117-.12-.19-.265-.28a.3.3 0 0 0-.103-.041m-.848.22a.13.13 0 0 1 .069.042.25.25 0 0 1 0 .352c-.097.097-.176.018-.176-.176 0-.146.044-.227.107-.217m-2.092.218c.073 0 .133.06.133.132s-.06.133-.133.133a.133.133 0 0 1 0-.265m10.847.53a.133.133 0 0 0-.132.131c0 .073.06.133.132.133s.133-.06.133-.133-.06-.132-.133-.132m-5.555.264c.073 0 .132.06.132.132s-.06.132-.132.132-.133-.06-.133-.132.06-.132.133-.132m6.35.264a.133.133 0 0 1 0 .265c-.074 0-.133-.06-.133-.132s.06-.133.132-.133m-5.233.125a.18.18 0 0 1 .105.027c.133.082.173.26.09.396-.25.402-.647.28-.483-.15.063-.162.178-.266.288-.273m-5.35.14c-.073 0-.133.06-.133.132s.06.132.132.132.133-.06.133-.132-.06-.132-.133-.132m.938.398q.189-.011.078.277c-.081.21-.254.383-.383.383-.38 0-.272-.459.147-.62a.6.6 0 0 1 .158-.04m2.096.023a.4.4 0 0 0-.169.029c-.295.113-.314.204-.076.35.177.11.23.346.118.527-.153.247-.262.222-.444-.103-.133-.237-.373-.43-.533-.43s-.08.234.178.52c.363.401.585.46.967.255.553-.296.558-.307.342-.87a.425.425 0 0 0-.383-.278m2.227.462c.095-.018.162.034.162.144 0 .145-.12.338-.265.428s-.264.044-.264-.101.119-.338.264-.428a.3.3 0 0 1 .103-.043m-1.293.175a.133.133 0 0 0-.132.132c0 .073.06.133.132.133s.132-.06.132-.133-.06-.132-.132-.132m2 .265c.154 0 .206.119.116.264s-.216.265-.28.265-.117-.12-.117-.265.127-.264.281-.264m1.984 0c.065 0 .117.119.117.264s-.126.265-.28.265-.207-.12-.117-.265.216-.264.28-.264m-6.894.264a.133.133 0 0 0-.133.133.133.133 0 0 0 .265 0 .133.133 0 0 0-.132-.133m-.818.048a.13.13 0 0 1 .068.04.25.25 0 0 1 0 .353c-.097.097-.176.018-.176-.176 0-.146.044-.227.108-.217m-3.416.217c.073 0 .133.06.133.132s-.06.132-.133.132c-.072 0-.132-.06-.132-.132s.06-.132.132-.132m12.054 0c-.136 0-.322.119-.412.264s.022.265.249.265.412-.119.412-.265c0-.145-.112-.264-.248-.264m-4.35.264c-.072 0-.205.12-.295.265s-.104.265-.032.265c.073 0 .207-.12.296-.265.09-.145.104-.265.031-.265m.878.84q.03.003.067.015a.75.75 0 0 1 .419.419c.158.476-.388.376-.573-.105-.086-.226-.052-.346.087-.33m4.515.234a.25.25 0 0 0-.176.073c-.097.097-.018.176.176.176.029 0 .05-.005.073-.008q.067-.059.132-.12c-.007-.016-.011-.031-.028-.048a.25.25 0 0 0-.177-.073m-9.657.25c.073 0 .132.059.132.132 0 .072-.06.132-.132.132s-.132-.06-.132-.132.06-.133.132-.133" opacity=".03"/></svg>