<svg xmlns="http://www.w3.org/2000/svg" xmlns:xlink="http://www.w3.org/1999/xlink" width="64" height="64" viewBox="0 0 16.933 16.933"><defs><radialGradient id="n" cx="16.858" cy="22.385" r="12.416" gradientTransform="matrix(.65102 0 0 .75196 -2.555 -5.667)" gradientUnits="userSpaceOnUse"><stop offset="0" stop-opacity="0"/><stop offset=".8" stop-opacity="0"/><stop offset="1"/></radialGradient><radialGradient id="l" cx="64.225" cy="64.574" r="46.928" gradientTransform="translate(-.168 .201)scale(.13477)" gradientUnits="userSpaceOnUse"><stop offset="0"/><stop offset=".175" stop-opacity=".875"/><stop offset=".753" stop-opacity=".824"/><stop offset=".901" stop-opacity=".05"/><stop offset="1" stop-opacity="0"/></radialGradient><radialGradient xlink:href="#a" id="k" cx="64.225" cy="64.574" r="46.928" gradientTransform="translate(-.168 -.236)scale(.13477)" gradientUnits="userSpaceOnUse"/><radialGradient id="g" cx="64.847" cy="70.264" r="37.256" gradientTransform="matrix(.19029 0 0 .20843 -3.755 -5.624)" gradientUnits="userSpaceOnUse"><stop offset="0"/><stop offset=".2"/><stop offset=".325"/><stop offset=".594" stop-opacity="0"/><stop offset="1" stop-opacity="0"/></radialGradient><radialGradient id="f" cx="16.987" cy="19.875" r="5.824" gradientTransform="matrix(.72274 0 0 .68836 -3.792 -3.781)" gradientUnits="userSpaceOnUse"><stop offset="0" stop-color="#727270" stop-opacity="0"/><stop offset=".535" stop-color="#535351" stop-opacity=".255"/><stop offset="1" stop-opacity=".952"/></radialGradient><radialGradient id="e" cx="16.993" cy="20.424" r="12.416" gradientTransform="matrix(.68133 0 0 .64461 -3.09 -2.998)" gradientUnits="userSpaceOnUse"><stop offset="0" stop-color="#727270"/><stop offset=".6" stop-color="#6a6a68"/><stop offset=".68" stop-color="#616160"/><stop offset=".74" stop-color="#595958"/><stop offset="1"/></radialGradient><radialGradient id="c" cx="16.993" cy="17.403" r="12.416" gradientTransform="translate(-.168 -.236)scale(.50937)" gradientUnits="userSpaceOnUse"><stop offset="0" stop-color="#fff"/><stop offset=".971" stop-color="#fff" stop-opacity=".937"/><stop offset="1" stop-color="#fff" stop-opacity="0"/></radialGradient><radialGradient xlink:href="#a" id="d" cx="16.993" cy="17.403" r="12.416" gradientTransform="translate(-.168 -.236)scale(.50937)" gradientUnits="userSpaceOnUse"/><linearGradient id="b" x1="7.937" x2="7.937" y1="15.081" y2="1.852" gradientUnits="userSpaceOnUse"><stop offset="0" stop-color="#93918e"/><stop offset="1" stop-color="#d4e4ea"/></linearGradient><linearGradient id="m" x1="60.52" x2="60.52" y1="-1.27" y2="119.94" gradientTransform="matrix(.11839 0 0 .11945 1.284 1.296)" gradientUnits="userSpaceOnUse"><stop offset="0" stop-color="#cdd5d7"/><stop offset="1" stop-color="#959594"/></linearGradient><linearGradient id="a"><stop offset="0"/><stop offset="1" stop-opacity="0"/></linearGradient><linearGradient id="i" x1="59.678" x2="59.678" y1="31.293" y2="85.689" gradientTransform="scale(.99554 1.0045)" gradientUnits="userSpaceOnUse"><stop offset="0" stop-color="#879192"/><stop offset="1" stop-color="#8e908f"/></linearGradient><linearGradient id="h" x1="60.52" x2="60.52" y1="-1.27" y2="119.94" gradientTransform="matrix(.0762 0 0 .07688 3.855 3.86)" gradientUnits="userSpaceOnUse"><stop offset="0" stop-color="#899091"/><stop offset="1" stop-color="#8e8f8f"/></linearGradient><mask id="j" fill="#fff"><rect width="31.749" height="31.749" stroke-width=".265" rx="7.408"/></mask></defs><g color="#000"><path d="M4.37.53C2.254.53.53 2.312.53 4.496v8.468c0 2.184 1.725 3.968 3.84 3.968h8.194c2.114 0 3.84-1.783 3.84-3.968V4.497c0-2.184-1.726-3.968-3.84-3.968zm.256.52h7.681c1.844 0 3.33 1.534 3.33 3.44v7.937c0 1.906-1.485 3.44-3.33 3.44h-7.68c-1.845 0-3.33-1.534-3.33-3.44V4.49c0-1.906 1.485-3.44 3.33-3.44" opacity=".01" style="font-feature-settings:normal;font-variant-alternates:normal;font-variant-caps:normal;font-variant-east-asian:normal;font-variant-ligatures:normal;font-variant-numeric:normal;font-variant-position:normal;font-variation-settings:normal;inline-size:0;isolation:auto;mix-blend-mode:normal;shape-margin:0;shape-padding:0;text-decoration-color:#000;text-decoration-line:none;text-decoration-style:solid;text-indent:0;text-orientation:mixed;text-transform:none;white-space:normal"/><path d="M4.359.794C2.392.794.795 2.447.795 4.48v8.5c0 2.035 1.597 3.688 3.564 3.688h8.216c1.967 0 3.564-1.653 3.564-3.688v-8.5c0-2.034-1.597-3.687-3.564-3.687zm.272.256h7.672c1.842 0 3.325 1.534 3.325 3.44v7.937c0 1.906-1.483 3.44-3.325 3.44H4.63c-1.842 0-3.325-1.534-3.325-3.44V4.49c0-1.906 1.483-3.44 3.325-3.44" opacity=".01" style="font-feature-settings:normal;font-variant-alternates:normal;font-variant-caps:normal;font-variant-east-asian:normal;font-variant-ligatures:normal;font-variant-numeric:normal;font-variant-position:normal;font-variation-settings:normal;inline-size:0;isolation:auto;mix-blend-mode:normal;shape-margin:0;shape-padding:0;text-decoration-color:#000;text-decoration-line:none;text-decoration-style:solid;text-indent:0;text-orientation:mixed;text-transform:none;white-space:normal"/><path d="M4.31 1.058c-1.866 0-3.375 1.539-3.375 3.44v8.467c0 1.9 1.57 3.439 3.435 3.439h8.2c1.866 0 3.427-1.538 3.427-3.44V4.498c0-1.9-1.51-3.439-3.375-3.439h-.097c1.794.087 3.214 1.582 3.214 3.432v7.937c0 1.906-1.506 3.44-3.377 3.44h-7.79c-1.871 0-3.377-1.534-3.377-3.44V4.49c0-1.85 1.42-3.345 3.214-3.432z" opacity=".03" style="font-feature-settings:normal;font-variant-alternates:normal;font-variant-caps:normal;font-variant-east-asian:normal;font-variant-ligatures:normal;font-variant-numeric:normal;font-variant-position:normal;font-variation-settings:normal;inline-size:0;isolation:auto;mix-blend-mode:normal;shape-margin:0;shape-padding:0;text-decoration-color:#000;text-decoration-line:none;text-decoration-style:solid;text-indent:0;text-orientation:mixed;text-transform:none;white-space:normal"/><path d="M4 46.969V49c0 6.648 5.896 12 12.544 12h30.961C54.153 61 60 55.648 60 49v-1.992a12.97 12.97 0 0 1-13 12.963H17.002A12.973 12.973 0 0 1 4 46.969" opacity=".03" style="font-feature-settings:normal;font-variant-alternates:normal;font-variant-caps:normal;font-variant-east-asian:normal;font-variant-ligatures:normal;font-variant-numeric:normal;font-variant-position:normal;font-variation-settings:normal;inline-size:0;isolation:auto;mix-blend-mode:normal;shape-margin:0;shape-padding:0;text-decoration-color:#000;text-decoration-line:none;text-decoration-style:solid;text-indent:0;text-orientation:mixed;text-transform:none;white-space:normal" transform="scale(.26458)"/><path d="M1.058 11.906v.592c0 1.939 1.573 3.5 3.332 3.5h8.16c1.76 0 3.325-1.561 3.325-3.5v-.58c-.006 2.095-1.537 3.78-3.44 3.78H4.498c-1.905 0-3.44-1.692-3.44-3.792z" opacity=".05" style="font-feature-settings:normal;font-variant-alternates:normal;font-variant-caps:normal;font-variant-east-asian:normal;font-variant-ligatures:normal;font-variant-numeric:normal;font-variant-position:normal;font-variation-settings:normal;inline-size:0;isolation:auto;mix-blend-mode:normal;shape-margin:0;shape-padding:0;text-decoration-color:#000;text-decoration-line:none;text-decoration-style:solid;text-indent:0;text-orientation:mixed;text-transform:none;white-space:normal"/></g><rect width="14.817" height="14.817" x="1.058" y="1.05" fill="url(#b)" rx="3.44" ry="3.44"/><circle cx="8.488" cy="8.671" r="6.324" fill="#fff" fill-opacity=".01"/><circle cx="8.488" cy="8.629" r="6.324" fill="url(#c)" stroke="url(#d)" stroke-linecap="round" stroke-linejoin="round" stroke-opacity=".159" stroke-width=".044"/><circle cx="8.488" cy="8.466" r="6.324" fill="url(#e)"/><ellipse cx="8.442" cy="8.403" fill="url(#f)" rx="2.966" ry="2.991"/><path fill="url(#g)" d="M8.467 3.446a5.02 5.02 0 0 0-5.021 5.02 5.02 5.02 0 0 0 5.02 5.022 5.02 5.02 0 0 0 5.022-5.021 5.02 5.02 0 0 0-5.021-5.022m0 1.765a3.256 3.256 0 0 1 3.255 3.255 3.256 3.256 0 0 1-3.255 3.256A3.256 3.256 0 0 1 5.21 8.467 3.256 3.256 0 0 1 8.467 5.21"/><path fill="url(#h)" fill-rule="evenodd" d="m8.304 4.74-.092.004-.05.427c-.065.005-.1.012-.164.021l-.116-.405-.09.014.001.426a3 3 0 0 0-.19.044l-.163-.383-.088.025.053.417q-.094.031-.185.068l-.206-.356-.085.036.103.403-.126.063-.24-.33-.08.045.142.387a3 3 0 0 0-.167.11l-.276-.296-.074.054.187.363a3 3 0 0 0-.154.13l-.307-.256-.067.062.228.335a3 3 0 0 0-.138.15l-.333-.217-.059.07.265.302q-.045.06-.087.119l-.35-.18-.052.077.293.27a3 3 0 0 0-.102.18l-.367-.134-.042.082.321.23a3 3 0 0 0-.08.192l-.378-.087-.03.086.344.19a3 3 0 0 0-.055.2l-.385-.04-.02.088.364.146-.023.148h-.386l-.011.091.377.107a3 3 0 0 0-.008.208l-.383.047v.092l.387.059q.006.105.018.208l-.374.093.011.091.391.012.03.147-.362.132.02.09.39-.03a3 3 0 0 0 .065.199l-.344.175.032.086.385-.076q.041.096.088.189l-.322.213.04.083.378-.121.078.126-.3.247.05.078.364-.16a3 3 0 0 0 .128.162l-.269.283.059.07.343-.204.097.098-.257.367.068.062.348-.284a3 3 0 0 0 .147.118l-.211.398.075.053.312-.326.133.083-.179.4.08.048.286-.345a3 3 0 0 0 .173.081l-.129.421.084.038.244-.38.125.043-.084.434.087.028.204-.404a3 3 0 0 0 .185.04l-.031.443.09.018.154-.43.13.013.016.448.091.008.11-.446h.119l.11.449.091-.008.016-.454q.064-.005.127-.014l.157.437.09-.018-.032-.454q.09-.018.18-.04l.21.415.087-.028-.087-.449.12-.041.252.393.084-.038-.134-.438q.083-.038.165-.08l.3.36.078-.046-.187-.422q.063-.039.125-.08l.329.344.075-.053-.223-.42a3 3 0 0 0 .138-.113l.368.3.069-.06-.274-.392q.045-.043.088-.09l.37.22.058-.07-.29-.306a3 3 0 0 0 .118-.153l.395.174.05-.077-.327-.27.071-.115.411.132.041-.083-.352-.233a3 3 0 0 0 .082-.177l.421.084.032-.086-.377-.192a3 3 0 0 0 .059-.184l.429.032.02-.09-.398-.145.027-.133.43-.013.011-.091-.411-.103a3 3 0 0 0 .016-.192l.425-.065v-.092l-.42-.052q-.002-.097-.008-.193l.415-.117-.012-.09h-.423l-.02-.135.399-.16-.02-.089-.422.044a3 3 0 0 0-.05-.186l.377-.207-.032-.086-.412.095a3 3 0 0 0-.073-.179l.349-.251-.042-.082-.398.145a3 3 0 0 0-.094-.169l.316-.292-.052-.076-.377.192-.08-.11.285-.323-.06-.07-.355.23a3 3 0 0 0-.13-.143l.243-.356-.067-.063-.325.273a3 3 0 0 0-.146-.126l.197-.383-.074-.054-.29.31a3 3 0 0 0-.16-.107l.15-.404-.08-.045-.25.343-.12-.062.105-.417-.084-.036-.212.366a3 3 0 0 0-.18-.068l.054-.427-.088-.025-.166.39a3 3 0 0 0-.188-.047l.002-.43-.09-.014-.117.407a3 3 0 0 0-.192-.022l-.05-.428-.092-.003-.067.419-.086-.001h-.076zm.143.919c1.219 0 2.26.76 2.677 1.831q.11.308.11.415c0 .192-.115.421-.727.421H8.98c-.235 0-.324-.023-.386-.062a.7.7 0 0 1-.172-.207L8.38 7.97l-.004-.01-.789-1.313c-.315-.524-.177-.741-.013-.84a.6.6 0 0 1 .129-.051 2.9 2.9 0 0 1 .745-.098m-1.744.725c.15-.003.338.1.555.462l.758 1.26q.125.23.125.385 0 .191-.153.498l.008-.01-.738 1.228c-.315.525-.571.505-.735.407a2 2 0 0 1-.372-.369l.07.097a2.86 2.86 0 0 1-.644-1.813 2.86 2.86 0 0 1 .577-1.725 2 2 0 0 1 .369-.365.36.36 0 0 1 .18-.055m1.74 1.97a.18.18 0 0 1 .18.18.18.18 0 0 1-.18.18.18.18 0 0 1-.18-.18.18.18 0 0 1 .18-.18m.54.355h1.524c.612 0 .727.23.727.42 0 .044-.013.126-.038.23a2.87 2.87 0 0 1-2.749 2.04 3 3 0 0 1-.483-.04q-.303-.061-.391-.115c-.163-.097-.298-.31.004-.823l.794-1.318c.123-.213.16-.263.23-.306.068-.043.156-.088.381-.088"/><g stroke-linecap="round" stroke-linejoin="round" color="#000"><path fill="none" d="m8.315 4.75-.092.003-.05.427c-.065.005-.1.012-.163.021l-.117-.405-.09.014.001.426a3 3 0 0 0-.19.044l-.163-.383-.088.025.053.417q-.093.032-.185.068l-.206-.356-.084.036.102.403-.126.063-.24-.33-.08.045.143.387a3 3 0 0 0-.168.11l-.276-.296-.074.054.187.364a3 3 0 0 0-.154.13l-.307-.257-.067.062.228.335a3 3 0 0 0-.138.15l-.333-.217-.059.07.265.302-.086.119-.352-.179-.05.076.292.27a3 3 0 0 0-.102.18l-.367-.134-.042.082.321.231a3 3 0 0 0-.079.191l-.378-.087-.032.086.345.19a3 3 0 0 0-.055.2l-.384-.04-.021.089.364.145-.023.148H4.81l-.01.091.377.107a3 3 0 0 0-.009.208l-.382.047v.092l.387.06q.005.104.017.207l-.374.093.011.091.391.012.03.147-.362.132.02.09.391-.03a3 3 0 0 0 .064.199l-.344.175.032.086.385-.076q.041.096.089.189l-.323.213.041.083.377-.121.078.127-.299.246.05.078.363-.16a3 3 0 0 0 .128.162l-.269.283.059.07.343-.204.097.099-.257.366.069.062.347-.284a3 3 0 0 0 .147.118l-.211.398.075.053.312-.326.133.083-.178.4.078.048.287-.345a3 3 0 0 0 .173.081l-.129.421.084.038.244-.38.125.043-.084.434.087.028.204-.404a3 3 0 0 0 .185.04l-.03.443.09.018.154-.43.13.013.015.448.091.008.11-.446h.119l.11.449.091-.008.016-.454q.064-.005.127-.014l.157.437.09-.018-.032-.454q.09-.018.18-.04l.21.415.087-.028-.087-.449.12-.041.252.393.084-.038-.134-.438q.083-.038.165-.08l.3.36.079-.046-.188-.422q.063-.039.125-.08l.33.344.075-.053-.224-.42a3 3 0 0 0 .138-.113l.369.3.068-.06-.274-.392q.046-.043.088-.09l.37.22.058-.07-.29-.306a3 3 0 0 0 .119-.153l.394.174.05-.077-.326-.27.07-.115.411.132.041-.083-.352-.233a3 3 0 0 0 .082-.176l.422.083.03-.086-.376-.192a3 3 0 0 0 .059-.184l.429.032.02-.09-.398-.145.027-.133.43-.013.011-.09-.411-.104a3 3 0 0 0 .016-.192l.426-.065v-.092l-.421-.052q-.001-.097-.008-.193l.415-.117-.011-.09h-.424l-.02-.135.4-.16-.021-.089-.421.044a3 3 0 0 0-.051-.186l.377-.207-.031-.086-.413.095a3 3 0 0 0-.073-.179l.35-.251-.043-.082-.398.145a3 3 0 0 0-.094-.169l.316-.292-.051-.076-.378.193-.08-.11.285-.324-.06-.07-.355.23a3 3 0 0 0-.13-.142l.243-.357-.067-.062-.325.272a3 3 0 0 0-.146-.126l.197-.383-.074-.054-.29.31a3 3 0 0 0-.16-.107l.15-.404-.08-.045-.25.343-.12-.062.106-.417-.085-.036-.212.366a3 3 0 0 0-.18-.068l.054-.427-.088-.025-.166.39a3 3 0 0 0-.187-.046l.002-.43-.091-.015-.117.407a3 3 0 0 0-.192-.022l-.05-.428-.092-.003-.067.419-.085-.001h-.077zm.144.918c1.218 0 2.26.76 2.676 1.831q.11.308.11.415c0 .192-.115.421-.727.421H8.992c-.235 0-.324-.023-.386-.062a.7.7 0 0 1-.171-.207L8.39 7.98l-.005-.01-.788-1.312c-.316-.525-.178-.742-.014-.84a.6.6 0 0 1 .129-.052 2.9 2.9 0 0 1 .746-.098m-1.745.725c.15-.003.339.1.555.462l.758 1.26q.125.23.125.385 0 .191-.153.498l.008-.01-.738 1.228c-.315.525-.57.505-.735.407a2 2 0 0 1-.372-.369l.07.097a2.86 2.86 0 0 1-.644-1.813 2.86 2.86 0 0 1 .577-1.725 2 2 0 0 1 .37-.365.36.36 0 0 1 .179-.055m1.74 1.97a.18.18 0 0 1 .18.18.18.18 0 0 1-.18.18.18.18 0 0 1-.18-.18.18.18 0 0 1 .18-.18m.54.355h1.524c.612 0 .727.23.727.421 0 .043-.012.125-.038.23a2.87 2.87 0 0 1-2.748 2.04 3 3 0 0 1-.484-.04q-.302-.062-.391-.116c-.162-.097-.298-.31.004-.823l.794-1.318c.123-.213.16-.263.23-.306.068-.043.156-.088.382-.088"/><path fill="#fff" fill-opacity=".418" fill-rule="evenodd" d="m8.293 4.731-.082.003-.011.01-.05.418c-.064.005-.1.012-.163.02l-.116-.404-.08.012a.03.03 0 0 0-.01.012l.001.415a3 3 0 0 0-.19.045l-.163-.383-.078.022a.03.03 0 0 0-.009.013l.052.407q-.094.03-.185.068l-.206-.357-.076.033-.006.012.1.394-.126.064-.24-.33-.074.04-.004.012.14.38a3 3 0 0 0-.167.11l-.276-.296-.07.05-.002.009.185.358a3 3 0 0 0-.154.13l-.307-.257-.065.06v.005l.226.333a3 3 0 0 0-.138.149l-.333-.216-.059.07.265.302q-.045.058-.087.118l-.349-.177h-.003l-.05.075.293.27a3 3 0 0 0-.102.18l-.362-.132-.008.003-.04.076.322.232a3 3 0 0 0-.08.19l-.37-.085-.01.005-.029.08.345.189a3 3 0 0 0-.055.2l-.376-.04-.01.009-.02.08.365.146-.023.148h-.376l-.011.01-.01.081.377.106a3 3 0 0 0-.008.208l-.372.046a.03.03 0 0 0-.01.012v.081l.386.06q.006.105.018.207l-.364.091a.03.03 0 0 0-.009.013l.01.08.391.013.03.147-.353.128-.007.013.018.08.39-.029a3 3 0 0 0 .065.198l-.336.172-.005.011.028.079.386-.077q.041.096.088.19l-.317.21-.002.01.038.075.377-.12.078.126-.296.244v.007l.046.073.364-.16a3 3 0 0 0 .127.162l-.016.017-.25.265v.003l.057.069.343-.204.097.098-.257.367.068.061.348-.284a3 3 0 0 0 .147.119l-.212.398.076.053.246-.258-.228.238-.034-.024.2-.375a.03.03 0 0 0-.009-.037 3 3 0 0 1-.145-.117.03.03 0 0 0-.038 0l-.328.267-.03-.027.242-.346a.03.03 0 0 0-.004-.037l-.096-.098a.03.03 0 0 0-.036-.005l-.322.192-.026-.032.25-.264a.03.03 0 0 0 .002-.04 3 3 0 0 1-.127-.16.03.03 0 0 0-.035-.009l-.34.15-.023-.035.28-.23a.03.03 0 0 0 .005-.038l-.077-.126a.03.03 0 0 0-.034-.013l-.353.113-.019-.036.301-.2a.03.03 0 0 0 .01-.037 3 3 0 0 1-.088-.188.03.03 0 0 0-.032-.017l-.36.072-.015-.039.32-.164a.03.03 0 0 0 .015-.035 3 3 0 0 1-.063-.196.03.03 0 0 0-.03-.021l-.366.027-.01-.04.339-.123a.03.03 0 0 0 .018-.034l-.03-.146a.03.03 0 0 0-.027-.024l-.366-.011-.005-.041.349-.087a.03.03 0 0 0 .022-.031 3 3 0 0 1-.017-.206.03.03 0 0 0-.025-.027l-.362-.056v-.041l.357-.044a.03.03 0 0 0 .025-.03q0-.102.008-.205a.03.03 0 0 0-.021-.03l-.353-.1.005-.04.36-.001a.03.03 0 0 0 .029-.025q.01-.074.023-.147a.03.03 0 0 0-.018-.032l-.341-.136.01-.04.358.037a.03.03 0 0 0 .031-.022q.024-.099.055-.198a.03.03 0 0 0-.014-.034l-.323-.177.014-.04.353.082a.03.03 0 0 0 .034-.018q.036-.096.078-.19a.03.03 0 0 0-.009-.035l-.3-.216.018-.037.343.125a.03.03 0 0 0 .036-.014q.048-.09.1-.177a.03.03 0 0 0-.005-.037l-.274-.253.023-.035.328.167a.03.03 0 0 0 .037-.009q.041-.06.086-.117a.03.03 0 0 0-.001-.037l-.248-.283.026-.032.311.203a.03.03 0 0 0 .038-.006q.066-.076.136-.147a.03.03 0 0 0 .004-.037l-.214-.314.03-.029.287.241a.03.03 0 0 0 .039 0q.074-.067.152-.13a.03.03 0 0 0 .008-.035l-.176-.342.033-.025.258.277a.03.03 0 0 0 .038.004 3 3 0 0 1 .166-.109.03.03 0 0 0 .013-.034l-.135-.364.036-.02.225.31a.03.03 0 0 0 .037.008q.062-.033.126-.063a.03.03 0 0 0 .015-.033l-.096-.38.038-.015.193.334a.03.03 0 0 0 .035.012q.09-.037.184-.067a.03.03 0 0 0 .02-.031l-.05-.393.04-.011.152.36a.03.03 0 0 0 .035.016q.093-.024.188-.044a.03.03 0 0 0 .023-.028l-.002-.4.041-.008.11.381a.03.03 0 0 0 .031.021c.064-.009.098-.016.162-.02a.03.03 0 0 0 .026-.026l.048-.403.041-.001.063.395a.03.03 0 0 0 .03.025h.161a.03.03 0 0 0 .03-.024l.061-.393.042.001.048.403a.03.03 0 0 0 .025.026q.096.008.19.022a.03.03 0 0 0 .033-.02l.11-.383.04.006-.001.406a.03.03 0 0 0 .022.028q.095.02.186.046a.03.03 0 0 0 .035-.017l.155-.366.04.011-.051.402a.03.03 0 0 0 .019.031q.09.032.179.068a.03.03 0 0 0 .036-.012l.199-.344.038.016-.1.393a.03.03 0 0 0 .016.033l.119.061a.03.03 0 0 0 .037-.008l.235-.322.036.02-.14.38a.03.03 0 0 0 .011.035q.081.051.159.107a.03.03 0 0 0 .038-.004l.271-.291.034.024-.186.36a.03.03 0 0 0 .008.037q.074.06.144.125a.03.03 0 0 0 .038 0l.306-.256.03.028-.228.336a.03.03 0 0 0 .003.037q.066.069.128.141a.03.03 0 0 0 .038.006l.334-.217.027.031.016-.018-.06-.07-.355.23a3 3 0 0 0-.13-.142l.243-.356-.067-.063-.325.273a3 3 0 0 0-.146-.126l.197-.383-.074-.054-.29.31a3 3 0 0 0-.16-.108l.15-.404-.08-.043h-.002l-.248.342-.12-.063.105-.417-.08-.034-.006.002-.21.363a3 3 0 0 0-.18-.069l.054-.426-.082-.024-.01.004-.162.384a3 3 0 0 0-.188-.046l.002-.43-.082-.013-.011.007-.114.399a3 3 0 0 0-.192-.023l-.05-.427-.082-.003-.012.009-.065.41-.086-.002H8.36zm3.045 1.432-.268.306zm-2.88-.524q-.383 0-.753.099a.6.6 0 0 0-.136.055l-.007.006a.6.6 0 0 1 .129-.051 2.9 2.9 0 0 1 .745-.098c1.219 0 2.26.76 2.676 1.83q.11.309.11.416a.36.36 0 0 1-.068.217l-.027.032c-.098.098-.285.172-.631.172H8.969c-.234 0-.323-.023-.385-.062a.7.7 0 0 1-.172-.207l-.044-.086-.004-.01-.789-1.313c-.236-.393-.218-.613-.125-.74a.36.36 0 0 0-.068.175c-.017.142.03.333.19.598l.79 1.312q0 .005.003.008v.001l.044.086v.001a1 1 0 0 0 .09.128.4.4 0 0 0 .092.09c.068.042.164.066.4.066h1.527c.31 0 .498-.057.61-.144a.37.37 0 0 0 .146-.306c0-.081-.038-.218-.112-.424v-.001a2.9 2.9 0 0 0-2.704-1.85m-1.745.725a.4.4 0 0 0-.194.06c-.073.044-.223.18-.377.37v.001a2.9 2.9 0 0 0-.583 1.743c0 .645.227 1.23.583 1.711a.03.03 0 0 0-.003.022v.002h.002l.068.095.001.001a.03.03 0 0 0 .033.006c.107.116.222.24.276.272a.37.37 0 0 0 .336.033c.133-.052.28-.184.439-.45l.735-1.223.003-.004a.03.03 0 0 0 0-.017c.094-.193.149-.357.149-.486q-.001-.165-.128-.398v-.001l-.76-1.261c-.218-.365-.416-.479-.58-.476zm-.021.01c.15-.002.338.101.555.462l.758 1.262q.125.229.125.384 0 .19-.153.497l.008-.009-.738 1.228a2 2 0 0 1-.17.24c-.238.274-.432.246-.565.166a2 2 0 0 1-.372-.368l.07.096a2.86 2.86 0 0 1-.644-1.812 2.86 2.86 0 0 1 .577-1.726 2 2 0 0 1 .369-.364.36.36 0 0 1 .18-.055m4.834.013-.377.192-.08-.11a.03.03 0 0 0 0 .036q.04.054.078.109a.03.03 0 0 0 .037.01l.355-.181.023.034-.298.275.314-.29zm-.263.371a.03.03 0 0 0-.004.03q.05.082.093.167a.03.03 0 0 0 .036.014l.374-.136.02.037-.33.236-.001.003.345-.249-.042-.081-.398.144a3 3 0 0 0-.093-.165m.186.36a.03.03 0 0 0-.006.024q.038.087.072.177a.03.03 0 0 0 .033.018l.388-.09.014.04-.355.195-.002.003.37-.203-.03-.087-.413.096a3 3 0 0 0-.071-.174m.14.378a.03.03 0 0 0-.008.02q.028.09.05.184a.03.03 0 0 0 .031.022l.396-.042.01.041-.377.15-.003.005.39-.156-.02-.09-.42.045q-.023-.09-.05-.179m.091.393a.03.03 0 0 0-.007.014l.02.133a.03.03 0 0 0 .029.025h.398l.005.041-.39.11-.006.007.405-.114-.01-.091h-.425zm.04.343-.007.01q.006.095.008.191a.03.03 0 0 0 .025.029l.396.048v.042l-.402.062-.007.008.415-.064v-.092l-.42-.051q-.002-.093-.008-.183m-3.266.103c-.076 0-.141.04-.178.1a.18.18 0 0 1 .156-.09.18.18 0 0 1 .18.18.2.2 0 0 1-.03.098l-.007.01-.01.013-.008.008a.18.18 0 0 1-.125.051.18.18 0 0 1-.18-.18.2.2 0 0 1 .024-.09.21.21 0 1 0 .387.108.21.21 0 0 0-.21-.208m3.268.3-.007.006a3 3 0 0 1-.015.19.03.03 0 0 0 .022.031l.386.097-.005.041-.406.013-.011.01.42-.013.012-.091-.412-.103a3 3 0 0 0 .016-.182m-2.729.054c-.229 0-.326.048-.397.093l-.007.006c.069-.043.157-.088.382-.088h1.524c.613 0 .728.23.728.42 0 .043-.013.126-.039.23a2.87 2.87 0 0 1-2.748 2.04 3 3 0 0 1-.483-.04q-.302-.062-.392-.115c-.162-.098-.297-.311.005-.824l.794-1.317-.003.004-.794 1.317c-.153.26-.197.447-.18.586s.1.225.185.277c.068.04.198.077.401.118h.001q.243.042.488.042a2.9 2.9 0 0 0 2.776-2.06v-.002c.027-.106.04-.188.04-.237a.37.37 0 0 0-.145-.305c-.113-.088-.301-.145-.611-.145zm2.681.344-.004.003-.026.132a.03.03 0 0 0 .018.033l.374.137-.01.04-.403-.03a.03.03 0 0 0-.016.011l.42.031.02-.09-.397-.144zm-.078.334-.003.002a3 3 0 0 1-.059.182.03.03 0 0 0 .014.036l.354.18-.014.039-.397-.08a.03.03 0 0 0-.021.012l.415.083.031-.086-.377-.193a3 3 0 0 0 .057-.175m-.136.377h-.001q-.038.089-.081.175a.03.03 0 0 0 .01.037l.33.22-.018.037-.387-.125a.03.03 0 0 0-.027.01l.407.131.04-.082-.352-.233a3 3 0 0 0 .079-.17m-.18.357-.07.115a.03.03 0 0 0 .005.038l.305.252-.022.036-.371-.164a.03.03 0 0 0-.033.009l.393.173.05-.078-.326-.268zm-.188.286a3 3 0 0 1-.118.151 3 3 0 0 0 .118-.15m-.118.151a.03.03 0 0 0 .001.039l.273.287.016-.02zm-.101.151a.03.03 0 0 0-.036.005v.001l.369.22.03-.037-.014.018zm-.04.01-.083.084zm-.083.088a.03.03 0 0 0-.003.033l.26.37-.032.028-.35-.286a.03.03 0 0 0-.037 0 3 3 0 0 1-.136.112v.001q.068-.052.133-.109l.37.301.067-.06zm-.3.266a.03.03 0 0 0-.006.028l.212.398-.034.024-.312-.326a.03.03 0 0 0-.038-.004q-.06.041-.123.08l-.001.002.119-.076.329.344.075-.053zm-3.785.134a.03.03 0 0 0-.037.005l-.001.001.133.083-.179.401.079.047.016-.018-.036-.022.168-.377a.03.03 0 0 0-.011-.037zm3.48.079a.03.03 0 0 0-.008.023l.177.398-.035.021-.285-.341a.03.03 0 0 0-.035-.008 3 3 0 0 1-.163.08l-.002.003q.08-.036.156-.076l.3.361.08-.047zm-3.162.106a.03.03 0 0 0-.036.007l-.25.3.25-.3a3 3 0 0 0 .172.082l-.128.42.084.038.242-.376-.231.358-.038-.017.121-.396a.03.03 0 0 0-.016-.035 3 3 0 0 1-.17-.081m2.805.083a.03.03 0 0 0-.008.018l.126.414-.038.017-.239-.372a.03.03 0 0 0-.034-.011l-.118.041-.003.006.109-.039.253.393.083-.037zm-2.437.076a.03.03 0 0 0-.03.01l.123.042-.084.434.087.028.202-.4h-.001l-.194.383-.039-.012.08-.41a.03.03 0 0 0-.02-.033zm2.115.05a.03.03 0 0 0-.009.014l.083.423-.04.013-.198-.393a.03.03 0 0 0-.033-.016 3 3 0 0 1-.178.041l-.006.007a3 3 0 0 0 .169-.038l.21.416.087-.028zm-1.786.05a.03.03 0 0 0-.023.01 3 3 0 0 0 .179.039l-.031.444.09.017.152-.422-.003.002-.146.406-.04-.008.029-.419a.03.03 0 0 0-.024-.03 3 3 0 0 1-.183-.04m1.395.053-.008.009.03.429-.04.008-.149-.414a.03.03 0 0 0-.031-.018q-.062.008-.125.013l-.01.01.117-.013.156.437.09-.018zm-1 .018a.03.03 0 0 0-.018.01l.122.013.016.447.091.008.107-.437-.004.003-.103.422-.041-.004-.015-.422a.03.03 0 0 0-.027-.027zm.46.021q-.059.002-.117.001a.03.03 0 0 0-.014.01h.11l.11.45.092-.009.016-.443-.007.007-.015.428-.04.004-.105-.426a.03.03 0 0 0-.03-.022"/></g><path fill="url(#i)" fill-rule="evenodd" d="m65.392 27.824.798.126-.017 3.786q.835.18 1.65.405l1.457-3.43.777.223-.477 3.754q.805.28 1.588.604l1.864-3.226.744.316-.932 3.669q.537.264 1.06.549l2.192-3.016.707.392-1.311 3.554q.72.454 1.41.946l2.545-2.728.654.475-1.736 3.37q.659.537 1.283 1.11l2.861-2.399.591.551-2.134 3.135q.588.612 1.14 1.257l3.13-2.033.52.62-2.499 2.85q.357.476.696.967l3.325-1.693.452.67-2.782 2.571q.435.728.83 1.482l3.503-1.274.367.72-3.072 2.212q.344.774.642 1.573l3.631-.837.276.76-3.318 1.82q.246.81.444 1.64l3.707-.388.182.787-3.518 1.403q.1.586.179 1.18h3.73l.099.803-3.65 1.029q.058.84.064 1.695l3.706.457v.808l-3.747.576a29 29 0 0 1-.141 1.692l3.62.903-.099.803-3.785.115q-.105.59-.233 1.17l3.502 1.276-.182.788-3.774-.281a29 29 0 0 1-.52 1.618l3.32 1.693-.277.76-3.712-.74a29 29 0 0 1-.72 1.555l3.1 2.054-.36.723-3.616-1.158q-.3.517-.622 1.02l2.866 2.363-.435.682-3.47-1.528a29 29 0 0 1-1.045 1.343l2.552 2.691-.514.624-3.253-1.936q-.378.403-.77.79l2.408 3.442-.6.54-3.248-2.652q-.593.511-1.214.992l1.97 3.706-.663.463-2.895-3.025a29 29 0 0 1-1.101.703l1.65 3.709-.693.416-2.642-3.177q-.715.37-1.45.702l1.18 3.861-.739.329-2.224-3.459q-.52.195-1.05.367l.767 3.948-.769.25-1.844-3.659a29 29 0 0 1-1.583.358l.278 3.997-.793.154-1.38-3.844q-.554.071-1.115.12l-.14 3.995-.806.07-.968-3.957a30 30 0 0 1-1.05.006l-.96 3.924-.805-.07-.139-3.939q-.573-.045-1.14-.11l-1.357 3.778-.793-.154.272-3.907a29 29 0 0 1-1.627-.35l-1.794 3.561-.77-.25.742-3.82q-.555-.175-1.102-.373l-2.146 3.337-.739-.329 1.132-3.706a29 29 0 0 1-1.518-.717l-2.526 3.037-.692-.416 1.569-3.528a29 29 0 0 1-1.168-.73l-2.748 2.871-.663-.463 1.862-3.504a29 29 0 0 1-1.295-1.04l-3.058 2.499-.6-.541 2.26-3.23q-.437-.423-.855-.863l-3.02 1.797-.515-.624 2.361-2.489a29 29 0 0 1-1.123-1.426l-3.201 1.409-.435-.682 2.635-2.173a29 29 0 0 1-.688-1.114l-3.319 1.062-.36-.723 2.837-1.88q-.415-.817-.778-1.665l-3.391.675-.277-.76 3.026-1.542a29 29 0 0 1-.564-1.743l-3.436.256-.182-.788 3.185-1.16q-.144-.643-.26-1.296l-3.441-.105-.099-.803 3.29-.82q-.104-.906-.152-1.827l-3.406-.524v-.808l3.369-.415a29 29 0 0 1 .072-1.83l-3.32-.936.098-.802 3.397-.001q.087-.657.202-1.303l-3.208-1.28.182-.787 3.384.354q.216-.891.485-1.76l-3.036-1.666.276-.76 3.33.768q.323-.855.697-1.681L30.852 46.1l.367-.72 3.232 1.175q.424-.803.895-1.574l-2.576-2.38.452-.67 3.09 1.572q.37-.53.761-1.041l-2.33-2.656.52-.62 2.93 1.902q.587-.676 1.213-1.314L37.4 36.828l.59-.55 2.702 2.264q.66-.595 1.354-1.148L40.4 34.196l.654-.475 2.427 2.601q.72-.506 1.473-.967l-1.256-3.406.707-.392 2.111 2.905a32 32 0 0 1 1.11-.56l-.901-3.547.744-.316 1.812 3.137a29 29 0 0 1 1.63-.599l-.467-3.67.777-.223 1.432 3.372q.828-.219 1.675-.39l-.017-3.743.798-.126 1.024 3.565c.559-.076.866-.14 1.435-.183l.445-3.764.808-.028.588 3.708c.139-.002.534 0 .674 0q.38 0 .757.01l.585-3.688.807.028.446 3.764q.85.075 1.686.2zM60 83c12.703 0 23-10.297 23-23S72.703 37 60 37 37 47.297 37 60s10.297 23 23 23" mask="url(#j)" transform="translate(1.284 1.296)scale(.11892)"/><g stroke-linecap="round" stroke-linejoin="round" stroke-width=".567" color="#000" mask="url(#j)" transform="translate(1.285 1.336)scale(.11892)"><path fill="#fff" fill-opacity=".293" fill-rule="evenodd" d="m58.81 27.104-.807.027-.437 3.71c-.098.008-.163.023-.248.032l-.006.053c-.342.034-.646.077-.973.125l-.015-.053c-.068.01-.118.015-.194.025l-.994-3.459a.3.3 0 0 0-.072-.046l-.756.119.018 3.691c-.096.02-.188.046-.284.067v.046q-.615.13-1.222.284l-.018-.041c-.05.013-.102.021-.152.035l-1.377-3.246a.3.3 0 0 0-.131-.06l-.695.198.46 3.627-.312.116.004.037q-.6.206-1.191.437l-.018-.031-.111.041-1.733-2.998a.28.28 0 0 0-.19-.063l-.628.268.895 3.52q-.169.083-.334.168l.005.019a32 32 0 0 0-.691.348l-.012-.016q-.038.02-.078.04l-2.008-2.763a.28.28 0 0 0-.238-.052l-.568.314 1.252 3.395c-.117.07-.227.151-.342.224-.366.232-.73.466-1.084.713q-.023.014-.047.03l-2.3-2.465a.28.28 0 0 0-.28-.026l-.5.364 1.644 3.199q-.694.552-1.353 1.146l-2.555-2.14a.28.28 0 0 0-.285.006l-.451.421 2.006 2.946q-.626.638-1.213 1.314l-2.777-1.803a.28.28 0 0 0-.274.043l-.4.479 2.33 2.654q-.391.512-.76 1.041l-.074-.037-.01.014-2.877-1.463a.28.28 0 0 0-.228.06l-.354.526 2.576 2.379q-.47.771-.894 1.574l-.108-.04-.017.03-3.008-1.094a.3.3 0 0 0-.172.069l-.295.58 2.826 2.035a29 29 0 0 0-.697 1.682l-.15-.036-.018.041-3.096-.712a.3.3 0 0 0-.11.06l-.231.639.355.195.104-.285 3.085.71a.283.283 0 0 0 .329-.175q.318-.846.689-1.664a.28.28 0 0 0-.092-.348l-2.629-1.892.143-.28 2.996 1.09a.283.283 0 0 0 .348-.135q.42-.795.886-1.558a.28.28 0 0 0-.048-.356L33.14 42.56l.176-.262 2.867 1.459a.28.28 0 0 0 .361-.09q.366-.525.754-1.031a.28.28 0 0 0-.013-.36l-2.168-2.472.2-.242 2.722 1.765a.28.28 0 0 0 .367-.053q.581-.669 1.201-1.3a.28.28 0 0 0 .033-.358l-1.869-2.746.229-.213 2.51 2.104a.28.28 0 0 0 .37-.008q.655-.59 1.342-1.137a.28.28 0 0 0 .076-.351l-1.535-2.98.254-.186 2.256 2.418a.283.283 0 0 0 .371.039q.713-.501 1.457-.957a.28.28 0 0 0 .12-.34l-1.173-3.18.274-.152 1.965 2.703a.28.28 0 0 0 .361.084q.543-.287 1.1-.555a.28.28 0 0 0 .152-.326l-.84-3.31.29-.124 1.685 2.92a.28.28 0 0 0 .351.121q.798-.32 1.613-.593a.28.28 0 0 0 .192-.305l-.436-3.428.303-.088 1.334 3.141a.28.28 0 0 0 .332.164 29 29 0 0 1 1.66-.387.28.28 0 0 0 .227-.279l-.016-3.498.31-.05.956 3.323a.28.28 0 0 0 .31.204c.567-.077.863-.14 1.418-.182a.28.28 0 0 0 .26-.248l.416-3.524.315-.01.548 3.46a.28.28 0 0 0 .284.24c.128-.002.527 0 .67 0q.375 0 .75.01a.283.283 0 0 0 .287-.24l.547-3.44.312.012.418 3.521a.28.28 0 0 0 .256.25q.842.075 1.67.197a.283.283 0 0 0 .314-.203l.961-3.343.309.048-.018 3.543a.28.28 0 0 0 .225.28 30 30 0 0 1 1.635.4.283.283 0 0 0 .336-.162l1.359-3.2.303.087-.448 3.513a.28.28 0 0 0 .188.303q.798.278 1.574.6a.283.283 0 0 0 .354-.121l1.738-3.008.289.123-.873 3.431a.28.28 0 0 0 .15.325q.532.261 1.05.545a.283.283 0 0 0 .364-.082l2.045-2.815.276.152-1.227 3.327a.28.28 0 0 0 .115.338q.713.448 1.397.937a.28.28 0 0 0 .37-.037l2.374-2.545.256.184-1.625 3.154a.28.28 0 0 0 .072.35q.653.531 1.272 1.1a.283.283 0 0 0 .373.007l2.67-2.238.228.214-1.996 2.934a.28.28 0 0 0 .03.356q.581.606 1.128 1.246a.283.283 0 0 0 .37.052l2.92-1.896.202.242-2.34 2.668a.28.28 0 0 0-.011.356q.352.47.69.958a.28.28 0 0 0 .36.092l3.102-1.58.176.26-2.604 2.406a.28.28 0 0 0-.05.354q.43.721.822 1.468a.283.283 0 0 0 .348.135l3.267-1.187.143.28-2.875 2.07a.28.28 0 0 0-.094.345q.341.766.637 1.557a.28.28 0 0 0 .328.175l3.387-.779.101.281.354-.193-.235-.64a.3.3 0 0 0-.103-.057l-3.395.783-.017-.045-.159.037a28 28 0 0 0-.64-1.574l3.072-2.21-.297-.585a.3.3 0 0 0-.166-.064l-3.275 1.191-.018-.031-.115.043q-.395-.754-.83-1.483l2.783-2.572-.355-.527a.28.28 0 0 0-.225-.057l-3.107 1.584-.012-.016-.078.04q-.34-.492-.697-.967l2.5-2.85-.4-.48a.28.28 0 0 0-.272-.04l-2.928 1.901-.002-.002-.049.033q-.553-.645-1.14-1.256l2.134-3.135-.455-.423a.28.28 0 0 0-.28-.008l-2.716 2.28a29 29 0 0 0-1.283-1.11l1.734-3.371-.5-.364a.28.28 0 0 0-.28.026L76.9 36.139q-.69-.494-1.41-.948l1.306-3.543-.562-.312a.28.28 0 0 0-.246.054l-2.086 2.872-.076-.04-.01.014a29 29 0 0 0-.642-.332l.003-.017q-.167-.089-.335-.174l.925-3.643-.625-.265a.28.28 0 0 0-.195.064l-1.781 3.084-.106-.041-.017.03q-.57-.233-1.155-.44l.004-.033c-.105-.038-.208-.083-.314-.12l.47-3.712-.69-.198a.3.3 0 0 0-.136.065l-1.402 3.299c-.048-.014-.098-.023-.146-.036l-.018.041a30 30 0 0 0-1.2-.294v-.045c-.096-.022-.19-.05-.286-.07l.017-3.737-.752-.117v.01l-.043-.014-.023.021-1.008 3.508c-.062-.009-.125-.012-.187-.021l-.016.05a29 29 0 0 0-1.225-.146l-.005-.053c-.085-.008-.168-.022-.252-.029l-.44-3.709-.8-.03-.026.022-.572 3.613-.23-.003-.009.054a29 29 0 0 0-.517-.006h-.43l-.008-.054h-.238l-.576-3.639zM72.871 40.6c6.11 4.134 10.127 11.129 10.127 19.062 0 7.976-4.062 15-10.229 19.127A22.6 22.6 0 0 1 60 82.716c-4.72 0-9.1-1.439-12.732-3.9-6.19-4.122-10.27-11.16-10.27-19.154 0-7.91 3.994-14.886 10.074-19.025C40.83 44.814 36.716 51.927 36.716 60c0 12.856 10.427 23.283 23.283 23.283S83.282 72.856 83.282 60c0-8.097-4.137-15.23-10.412-19.4zM32.406 51.147q-.268.864-.482 1.75l-.194-.02q-.007.025-.013.049l-3.145-.328a.3.3 0 0 0-.055.039l-.16.691.342.137.063-.277 3.134.328a.283.283 0 0 0 .305-.215q.215-.882.48-1.742a.28.28 0 0 0-.134-.334zm55.402.183-.139.076a.28.28 0 0 0-.134.332q.243.803.44 1.623a.283.283 0 0 0 .306.215l3.457-.361.062.275.336-.134-.16-.696a.3.3 0 0 0-.049-.035l-3.465.363-.013-.052-.201.021a28 28 0 0 0-.44-1.627M31.562 54.64q-.113.631-.2 1.273h-.232l-.007.055h-3.155l-.01.008-.09.74.32.09.032-.27 3.145-.002a.283.283 0 0 0 .281-.246q.087-.651.201-1.29a.28.28 0 0 0-.174-.313zm57.061.152-.105.043a.28.28 0 0 0-.176.31q.1.581.178 1.17a.283.283 0 0 0 .28.247h3.481l.032.27.314-.089-.09-.744-.006-.004h-3.486l-.008-.054H88.8q-.077-.579-.176-1.149m-57.436 2.902a29 29 0 0 0-.07 1.788l-.27.033-.002.052-3.097.383v.754l.285.045v-.264l3.12-.384a.283.283 0 0 0 .249-.278q.008-.914.072-1.812a.28.28 0 0 0-.207-.293zm57.793.122-.078.021a.28.28 0 0 0-.205.293q.056.832.062 1.678a.283.283 0 0 0 .25.279l3.457.426v.261l.282-.043v-.753l-3.43-.424-.002-.053-.275-.033a28 28 0 0 0-.061-1.652zm-57.822 3.464q.047.895.147 1.776l-.303.076.004.045-2.985.744.094.758.246.008-.031-.258 3.047-.76a.283.283 0 0 0 .213-.307 29 29 0 0 1-.15-1.81.28.28 0 0 0-.24-.266zm57.838.08-.037.006a.28.28 0 0 0-.238.264q-.047.846-.14 1.676a.28.28 0 0 0 .212.306l3.377.844-.031.258.242-.008.094-.76-3.31-.824.003-.047-.309-.076q.092-.812.137-1.639m-57.43 3.479q.112.625.25 1.24l-.332.121.008.035-2.854 1.04.174.753.213-.015-.06-.254 2.949-1.074a.283.283 0 0 0 .18-.328q-.143-.638-.256-1.284a.28.28 0 0 0-.272-.234m57.018.043a.28.28 0 0 0-.266.226q-.104.585-.23 1.16a.283.283 0 0 0 .18.327l3.267 1.191-.06.254.207.016.176-.756-3.166-1.154.005-.034-.334-.12q.121-.552.221-1.11m-56.309 2.976a29 29 0 0 0 .537 1.657l-.347.177.005.018-2.677 1.363.271.744.168-.033-.092-.25 2.803-1.427a.283.283 0 0 0 .139-.35q-.307-.854-.559-1.725a.28.28 0 0 0-.248-.174m55.604.008a.28.28 0 0 0-.24.168 29 29 0 0 1-.516 1.602.283.283 0 0 0 .139.348l3.098 1.578-.092.25.164.033.271-.744-2.968-1.514.005-.016-.351-.18a29 29 0 0 0 .49-1.525m-1.217 3.36a.28.28 0 0 0-.2.105 29 29 0 0 1-.714 1.541.283.283 0 0 0 .098.361l2.89 1.916-.12.247.124.04.36-.722-3.1-2.055a29 29 0 0 0 .662-1.433m-53.152.033c.228.524.466 1.042.723 1.549l-.357.236-2.479 1.643.36.722.128-.04-.12-.247 2.626-1.74a.283.283 0 0 0 .098-.365q-.41-.81-.772-1.649a.28.28 0 0 0-.207-.11m51.531 3.154a.3.3 0 0 0-.16.063q-.297.511-.615 1.01a.283.283 0 0 0 .058.37l2.672 2.204-.156.244.092.04.435-.683-2.865-2.361q.278-.437.54-.887m-49.887.065a29 29 0 0 0 .608.984l-2.635 2.174.435.681.096-.043-.154-.242 2.441-2.013a.283.283 0 0 0 .057-.373q-.352-.544-.68-1.104a.3.3 0 0 0-.168-.064m48.2 2.478a.3.3 0 0 0-.118.031q-.498.68-1.035 1.33a.283.283 0 0 0 .014.375l2.378 2.51-.195.239.057.033.513-.623-2.55-2.692a29 29 0 0 0 .935-1.203m-46.48.09a29 29 0 0 0 1.013 1.287l-2.361 2.49.515.623.06-.037-.194-.234 2.187-2.309a.283.283 0 0 0 .012-.377 29 29 0 0 1-1.112-1.412.3.3 0 0 0-.12-.031m44.198 2.627a.3.3 0 0 0-.074.01q-.374.398-.762.781a.28.28 0 0 0-.033.365l2.264 3.237-.233.209-3.06-2.498h-.035l3.101 2.533.6-.54-2.408-3.443q.325-.322.64-.654zm-41.88.11q.355.37.724.73l-2.26 3.23.6.541 2.912-2.38h-.031l-2.87 2.345-.234-.21 2.117-3.026a.28.28 0 0 0-.035-.365 30 30 0 0 1-.848-.856.3.3 0 0 0-.076-.01m39.618 1.997q-.587.508-1.203.985a.28.28 0 0 0-.076.355l1.852 3.485-.258.181-2.727-2.85a.3.3 0 0 0-.078-.007l2.766 2.89.662-.462-1.969-3.707c.363-.28.714-.574 1.063-.87zm-37.344.127a29 29 0 0 0 1.143.918l-1.863 3.504.664.463 2.619-2.736a.3.3 0 0 0-.074.008l-2.58 2.695-.258-.18 1.744-3.283a.28.28 0 0 0-.08-.36 29 29 0 0 1-1.282-1.029zm33.625 2.592q-.074.047-.146.094a.283.283 0 0 0-.113.357l1.544 3.473.364-.217zm-29.766.154-1.57 3.526.365.219 1.467-3.293a.283.283 0 0 0-.115-.36q-.073-.046-.147-.092m28.191.928 2.53 3.041.058-.035-2.48-2.984a.3.3 0 0 0-.108-.022m-26.656.111a.3.3 0 0 0-.101.022l-2.367 2.848.056.033zm25.1.477-.12.059a.283.283 0 0 0-.155.34l1.1 3.595.35-.154zm-23.475.125-1.125 3.688.354.156 1.05-3.442a.283.283 0 0 0-.156-.343q-.06-.03-.123-.059m21.771.719 2.139 3.324.096-.043-2.08-3.23a.3.3 0 0 0-.155-.051m-20.098.094a.3.3 0 0 0-.15.05l-2 3.112.09.04zm18.97.175-.092.032a.283.283 0 0 0-.192.324l.711 3.662.332-.108zm-17.788.1-.736 3.783.336.11.687-3.538a.283.283 0 0 0-.193-.324zm15.994.523 1.784 3.537.128-.04-1.716-3.407a.28.28 0 0 0-.196-.09m-14.229.073a.28.28 0 0 0-.19.088l-1.665 3.308.123.041zm12.59.21-.056.014a.283.283 0 0 0-.229.297l.256 3.7.303-.06zm-10.904.065-.267 3.86.306.058.25-3.607a.283.283 0 0 0-.232-.3zm9.04.295 1.345 3.744.17-.033-1.281-3.569a.28.28 0 0 0-.235-.142m-7.196.041a.28.28 0 0 0-.226.14l-1.26 3.504.168.034zm6.043.033-.02.002a.283.283 0 0 0-.257.274l-.131 3.69.271-.024zm-4.863.03.137 3.884.275.024-.129-3.633a.283.283 0 0 0-.26-.274zm2.97.097.95 3.885.207-.018-.897-3.668a.28.28 0 0 0-.26-.199m-1.085.006a.28.28 0 0 0-.256.2l-.889 3.634.201.018z"/><path fill="none" d="m65.392 27.824.798.126-.017 3.786q.835.18 1.65.405l1.457-3.43.777.223-.477 3.754q.805.28 1.588.604l1.864-3.226.744.316-.932 3.669q.537.264 1.06.549l2.192-3.016.707.392-1.311 3.554q.72.454 1.41.946l2.545-2.728.654.475-1.736 3.37q.659.537 1.283 1.11l2.861-2.399.591.551-2.134 3.135q.588.612 1.14 1.257l3.13-2.033.52.62-2.499 2.85q.357.476.696.967l3.325-1.693.452.67-2.782 2.571q.435.728.83 1.482l3.503-1.274.367.72-3.072 2.212q.344.774.642 1.573l3.631-.837.276.76-3.318 1.82q.246.81.444 1.64l3.707-.388.182.787-3.518 1.403q.1.586.179 1.18h3.73l.099.803-3.65 1.029q.058.84.064 1.695l3.706.457v.808l-3.747.576a29 29 0 0 1-.141 1.692l3.62.903-.099.803-3.785.115q-.105.59-.233 1.17l3.502 1.276-.182.788-3.774-.281a29 29 0 0 1-.52 1.618l3.32 1.693-.277.76-3.712-.74a29 29 0 0 1-.72 1.555l3.1 2.054-.36.723-3.616-1.158q-.3.517-.622 1.02l2.866 2.363-.435.682-3.47-1.528a29 29 0 0 1-1.045 1.343l2.552 2.691-.514.624-3.253-1.936q-.378.403-.77.79l2.408 3.442-.6.54-3.248-2.652q-.593.511-1.214.992l1.97 3.706-.663.463-2.895-3.025a29 29 0 0 1-1.101.703l1.65 3.709-.693.416-2.642-3.177q-.715.37-1.45.702l1.18 3.861-.739.329-2.224-3.459q-.52.195-1.05.367l.767 3.948-.769.25-1.844-3.659a29 29 0 0 1-1.583.358l.278 3.997-.793.154-1.38-3.844q-.554.071-1.115.12l-.14 3.995-.806.07-.968-3.957a30 30 0 0 1-1.05.006l-.96 3.924-.805-.07-.139-3.939q-.573-.045-1.14-.11l-1.357 3.778-.793-.154.272-3.907a29 29 0 0 1-1.627-.35l-1.794 3.561-.77-.25.742-3.82q-.555-.175-1.102-.373l-2.146 3.337-.739-.329 1.132-3.706a29 29 0 0 1-1.518-.717l-2.526 3.037-.692-.416 1.569-3.528a29 29 0 0 1-1.168-.73l-2.748 2.871-.663-.463 1.862-3.504a29 29 0 0 1-1.295-1.04l-3.058 2.499-.6-.541 2.26-3.23q-.437-.423-.855-.863l-3.02 1.797-.515-.624 2.361-2.489a29 29 0 0 1-1.123-1.426l-3.201 1.409-.435-.682 2.635-2.173a29 29 0 0 1-.688-1.114l-3.319 1.062-.36-.723 2.837-1.88q-.415-.817-.778-1.665l-3.391.675-.277-.76 3.026-1.542a29 29 0 0 1-.564-1.743l-3.436.256-.182-.788 3.185-1.16q-.144-.643-.26-1.296l-3.441-.105-.099-.803 3.29-.82q-.104-.906-.152-1.827l-3.406-.524v-.808l3.369-.415a29 29 0 0 1 .072-1.83l-3.32-.936.098-.802 3.397-.001q.087-.657.202-1.303l-3.208-1.28.182-.787 3.384.354q.216-.891.485-1.76l-3.036-1.666.276-.76 3.33.768q.323-.855.697-1.681L30.852 46.1l.367-.72 3.232 1.175q.424-.803.895-1.574l-2.576-2.38.452-.67 3.09 1.572q.37-.53.761-1.041l-2.33-2.656.52-.62 2.93 1.902q.587-.676 1.213-1.314L37.4 36.828l.59-.55 2.702 2.264q.66-.595 1.354-1.148L40.4 34.196l.654-.475 2.427 2.601q.72-.506 1.473-.967l-1.256-3.406.707-.392 2.111 2.905a32 32 0 0 1 1.11-.56l-.901-3.547.744-.316 1.812 3.137a29 29 0 0 1 1.63-.599l-.467-3.67.777-.223 1.432 3.372q.828-.219 1.675-.39l-.017-3.743.798-.126 1.024 3.565c.559-.076.866-.14 1.435-.183l.445-3.764.808-.028.588 3.708c.139-.002.534 0 .674 0q.38 0 .757.01l.585-3.688.807.028.446 3.764q.85.075 1.686.2zM60 83c12.703 0 23-10.297 23-23S72.703 37 60 37 37 47.297 37 60s10.297 23 23 23"/></g><g fill-opacity=".08"><path d="M8.174 8.166C7.536 7.14 4.812 2.126 3.864 9.7l-.441-.03-.07-1.577.402-1.478.58-1.13.801-.665.993-.666s.548.733.548.621c0-.11.584 1.318.584 1.318l.67.955.488.941z"/><path d="M8.174 8.298c-.638-1.026-3.362-6.04-4.31 1.535l-.441-.03-.07-1.577.402-1.478.58-1.13.801-.665.993-.666s.548.733.548.621c0-.11.584 1.318.584 1.318l.67.955.488.941z"/><path d="M8.187 8.386c-.638-1.025-3.362-6.04-4.31 1.536L3.54 9.88l-.173-1.566.4-1.478.582-1.13.8-.665.993-.666s.548.732.548.621.584 1.318.584 1.318l.67.955.488.94z"/><path d="M8.196 8.443c-.637-1.026-3.362-6.04-4.31 1.535l-.345-.097-.165-1.51.4-1.478.582-1.13.8-.665.993-.666s.548.733.548.622c0-.112.584 1.317.584 1.317l.67.956.489.94z"/><path d="M8.183 8.494c-.638-1.025-3.362-6.04-4.31 1.536l-.203-.093-.308-1.514.402-1.478.58-1.13.801-.665.993-.666s.548.732.548.621.584 1.318.584 1.318l.67.955.488.94z"/><path d="M8.174 8.576c-.638-1.026-3.362-6.04-4.31 1.535l-.195-.174-.316-1.433.402-1.478.58-1.13.801-.665.993-.666s.548.733.548.622c0-.112.584 1.317.584 1.317l.67.956.488.94z"/><path d="M8.17 8.65c-.638-1.025-3.363-6.04-4.31 1.535l-.254-.025-.257-1.582.4-1.477.582-1.13.8-.666.993-.665s.548.732.548.62c0-.11.584 1.319.584 1.319l.67.955.489.94z"/><path d="M8.167 8.73c-.638-1.025-3.362-6.04-4.31 1.535l-.217-.077-.294-1.53.401-1.477.581-1.13.8-.666.994-.665s.548.732.548.62c0-.11.584 1.319.584 1.319l.67.955.488.94z"/><path d="M8.15 8.79c-.638-1.026-3.362-6.041-4.31 1.534l.02-.138-.531-1.468.401-1.478.581-1.13.8-.666.993-.665s.548.732.548.621.584 1.318.584 1.318l.67.955.489.94z"/><path d="M8.131 8.85c-.638-1.026-3.362-6.04-4.31 1.535l-.18-.197-.33-1.41.4-1.478.582-1.13.8-.665.993-.666s.548.733.548.622c0-.112.584 1.317.584 1.317l.67.956.488.94z"/><path d="M8.145 8.897c-.638-1.026-3.362-6.04-4.31 1.535l.025-.246-.536-1.361.402-1.478.58-1.13.801-.665.993-.666s.548.733.548.621c0-.11.584 1.318.584 1.318l.67.955.488.941z"/><path d="M8.147 8.925c-.638-1.026-3.362-6.04-4.31 1.535l.02-.195-.53-1.412.4-1.478.582-1.13.8-.665.993-.666s.548.733.548.621c0-.11.584 1.318.584 1.318l.67.955.488.941z"/><path d="M8.143 8.961c-.637-1.025-3.362-6.04-4.31 1.536l.024-.232-.534-1.375.401-1.478.581-1.13.8-.665.993-.666s.548.732.548.621.584 1.318.584 1.318l.67.955.489.94z"/><path d="M8.136 8.987c-.638-1.025-3.362-6.04-4.31 1.536l.034-.337-.545-1.27.401-1.478.581-1.13.8-.665.994-.666s.548.732.548.621.584 1.318.584 1.318l.67.955.488.94z"/></g><g fill-opacity=".07"><path d="M13.094 8.421C11.39 3.964 8.961 3.878 6.498 4.624l-.244-.782c5.608-1.482 5.904 1.67 7.235 3.921z"/><path d="M13.086 8.453c-1.704-4.457-4.134-4.542-6.597-3.797l-.243-.782c5.607-1.482 5.904 1.67 7.235 3.921z"/><path d="M13.08 8.467c-1.705-4.456-4.135-4.542-6.598-3.796l-.243-.783c5.608-1.482 5.904 1.67 7.235 3.921z"/><path d="M13.076 8.489C11.37 4.032 8.942 3.946 6.479 4.692l-.244-.783c5.608-1.482 5.905 1.671 7.236 3.922z"/><path d="M13.062 8.516C11.358 4.06 8.93 3.974 6.465 4.72l-.243-.783c5.608-1.482 5.904 1.67 7.235 3.921z"/><path d="M13.065 8.553C11.361 4.096 8.932 4.01 6.47 4.756l-.244-.783c5.608-1.482 5.904 1.671 7.235 3.922z"/><path d="M13.047 8.575C11.342 4.118 8.913 4.032 6.45 4.778l-.244-.783c5.608-1.482 5.904 1.671 7.235 3.922z"/><path d="M13.033 8.597c-1.704-4.456-4.134-4.542-6.597-3.796l-.243-.783c5.607-1.482 5.904 1.67 7.235 3.921z"/><path d="M13.038 8.628C11.334 4.17 8.904 4.085 6.44 4.83l-.243-.783c5.607-1.482 5.904 1.671 7.235 3.922z"/><path d="M13.026 8.65C11.322 4.192 8.892 4.106 6.43 4.852l-.243-.783c5.608-1.482 5.904 1.67 7.235 3.921z"/><path d="M13.041 8.678c-1.704-4.456-4.133-4.542-6.596-3.796L6.2 4.099c5.608-1.482 5.904 1.67 7.235 3.921z"/><path d="M13.028 8.699C11.324 4.242 8.894 4.156 6.43 4.902l-.243-.783c5.607-1.482 5.904 1.671 7.235 3.922z"/><path d="M13.028 8.738C11.324 4.28 8.894 4.195 6.431 4.94l-.243-.783c5.608-1.482 5.904 1.671 7.235 3.922z"/><path d="M13.022 8.765C11.318 4.31 8.888 4.223 6.425 4.97l-.243-.783c5.608-1.482 5.904 1.67 7.235 3.921z"/><path d="M13.01 8.785c-1.705-4.457-4.134-4.543-6.597-3.797l-.244-.783c5.608-1.482 5.904 1.671 7.235 3.922z"/><path d="M13.003 8.818c-1.704-4.456-4.134-4.542-6.597-3.796l-.243-.783c5.607-1.482 5.904 1.67 7.235 3.921z"/><path d="M13.002 8.846c-1.704-4.457-4.134-4.543-6.597-3.797l-.243-.783c5.607-1.482 5.904 1.671 7.235 3.922z"/><path d="M12.986 8.862c-1.704-4.457-4.134-4.543-6.597-3.797l-.243-.783C11.753 2.8 12.05 5.953 13.38 8.204z"/><path d="M12.975 8.881C11.27 4.424 8.84 4.338 6.378 5.084l-.243-.782c5.607-1.482 5.904 1.67 7.235 3.921z"/><path d="M12.961 8.903c-1.704-4.456-4.133-4.542-6.596-3.796l-.244-.783c5.608-1.482 5.904 1.67 7.235 3.921z"/><path d="M12.942 8.936c-1.704-4.457-4.134-4.543-6.597-3.797l-.243-.783c5.608-1.482 5.904 1.671 7.235 3.921z"/><path d="M12.92 8.974C11.216 4.517 8.786 4.43 6.323 5.177l-.243-.783c5.607-1.482 5.904 1.671 7.235 3.922z"/><path d="M12.9 9c-1.703-4.456-4.133-4.542-6.596-3.796l-.243-.783c5.607-1.482 5.904 1.671 7.235 3.922z"/></g><g fill="none"><g stroke="#000" stroke-linecap="round" stroke-linejoin="round" stroke-opacity=".03"><path stroke-width=".13498305" d="m6.644 12.435 1.94-3.414c1.671.006 4.232-.06 4.64.408"/><path stroke-width=".203748" d="m6.644 12.435 1.94-3.414c1.671.006 4.232-.06 4.64.408"/><path stroke-width=".254685" d="m6.644 12.435 1.94-3.414c1.671.006 4.232-.06 4.64.408"/><path stroke-width=".305622" d="m6.644 12.435 1.94-3.414c1.671.006 4.232-.06 4.64.408"/><path stroke-width=".407496" d="m6.644 12.435 1.94-3.414c1.671.006 4.232-.06 4.64.408"/><path stroke-width=".50937" d="m6.644 12.435 1.94-3.414c1.671.006 4.232-.06 4.64.408"/><path stroke-width=".560307" d="m6.644 12.435 1.94-3.414c1.671.006 4.232-.06 4.64.408"/><path stroke-width=".611244" d="m6.644 12.435 1.94-3.414c1.671.006 4.232-.06 4.64.408"/><path stroke-width=".662181" d="m6.644 12.435 1.94-3.414c1.671.006 4.232-.06 4.64.408"/><path stroke-width=".7131179999999999" d="m6.644 12.435 1.94-3.414c1.671.006 4.232-.06 4.64.408"/><path stroke-width=".7640549999999999" d="m6.644 12.435 1.94-3.414c1.671.006 4.232-.06 4.64.408"/><path stroke-width=".7895235" d="m6.644 12.435 1.94-3.414c1.671.006 4.232-.06 4.64.408"/><path stroke-width=".814992" d="m6.644 12.435 1.94-3.414c1.671.006 4.232-.06 4.64.408"/><path stroke-width=".8445354599999999" d="m6.644 12.435 1.94-3.414c1.671.006 4.232-.06 4.64.408"/><path stroke-width=".865929" d="m6.644 12.435 1.94-3.414c1.671.006 4.232-.06 4.64.408"/><path stroke-width=".916866" d="m6.644 12.435 1.94-3.414c1.671.006 4.232-.06 4.64.408"/><path stroke-width=".9423345000000001" d="m6.644 12.435 1.94-3.414c1.671.006 4.232-.06 4.64.408"/><path stroke-width=".967803" d="m6.644 12.435 1.94-3.414c1.671.006 4.232-.06 4.64.408"/><path stroke-width=".9932715" d="m6.644 12.435 1.94-3.414c1.671.006 4.232-.06 4.64.408"/><path stroke-width="1.01874" d="m6.644 12.435 1.94-3.414c1.671.006 4.232-.06 4.64.408"/><path stroke-width="1.069677" d="m6.644 12.435 1.94-3.414c1.671.006 4.232-.06 4.64.408"/><path stroke-width="1.120614" d="m6.644 12.435 1.94-3.414c1.671.006 4.232-.06 4.64.408"/><path stroke-width="1.1715509999999998" d="m6.644 12.435 1.94-3.414c1.671.006 4.232-.06 4.64.408"/><path stroke-width="1.222488" d="m6.644 12.435 1.94-3.414c1.671.006 4.232-.06 4.64.408"/><path stroke-width="1.273425" d="m6.644 12.435 1.94-3.414c1.671.006 4.232-.06 4.64.408"/><path stroke-width="1.324362" d="m6.644 12.435 1.94-3.414c1.671.006 4.232-.06 4.64.408"/></g><path d="m6.644 12.435 1.94-3.414c1.671.006 4.232-.06 4.64.408"/><g stroke="#000" stroke-linecap="round" stroke-linejoin="round" stroke-opacity=".03"><path stroke-width="1.4262359999999998" d="m6.644 12.435 1.94-3.414c1.671.006 4.232-.06 4.64.408"/><path stroke-width="1.5281099999999999" d="m6.644 12.435 1.94-3.414c1.671.006 4.232-.06 4.64.408"/><path stroke-width="1.629984" d="m6.644 12.435 1.94-3.414c1.671.006 4.232-.06 4.64.408"/><path stroke-width="1.731858" d="m6.644 12.435 1.94-3.414c1.671.006 4.232-.06 4.64.408"/><path stroke-width="1.833732" d="m6.644 12.435 1.94-3.414c1.671.006 4.232-.06 4.64.408"/><path stroke-width="1.935606" d="m6.644 12.435 1.94-3.414c1.671.006 4.232-.06 4.64.408"/><path stroke-width="2.03748" d="m6.644 12.435 1.94-3.414c1.671.006 4.232-.06 4.64.408"/></g></g><path fill="url(#k)" d="M8.488 2.142a6.325 6.325 0 0 0-6.324 6.325 6.325 6.325 0 0 0 6.324 6.324 6.325 6.325 0 0 0 6.325-6.324 6.325 6.325 0 0 0-6.325-6.325m0 1.363a4.96 4.96 0 0 1 4.962 4.962 4.96 4.96 0 0 1-4.962 4.962 4.96 4.96 0 0 1-4.962-4.962 4.96 4.96 0 0 1 4.962-4.963"/><path fill="url(#l)" d="M8.488 2.58a6.325 6.325 0 1 0 0 12.649 6.325 6.325 0 0 0 0-12.65m0 1.362a4.96 4.96 0 0 1 4.962 4.962c0 2.74-2.297 4.333-5.037 4.334s-4.887-1.593-4.887-4.334a4.96 4.96 0 0 1 4.962-4.962z"/><path fill="url(#m)" fill-rule="evenodd" d="m8.197 2.663-.143.005-.079.664c-.1.008-.154.02-.253.033l-.18-.63-.142.023.003.66q-.15.03-.295.07l-.253-.596-.137.04.082.647a5 5 0 0 0-.288.106l-.32-.554-.13.056.158.626a5 5 0 0 0-.196.099l-.372-.513-.125.07.222.6a5 5 0 0 0-.26.171l-.429-.459-.115.084.29.565a5 5 0 0 0-.239.202l-.477-.4-.104.098.354.52a5 5 0 0 0-.214.232l-.517-.336-.092.11.411.468q-.068.09-.134.184l-.545-.278-.08.119.455.42a5 5 0 0 0-.158.278l-.571-.208-.065.128.5.359a5 5 0 0 0-.124.297l-.588-.136-.049.134.536.294a5 5 0 0 0-.085.31l-.598-.062-.032.14.567.225a5 5 0 0 0-.036.23h-.6l-.017.142.586.166a5 5 0 0 0-.013.322l-.594.074v.142l.6.093q.009.162.028.322l-.581.145.017.142.608.018a5 5 0 0 0 .046.23l-.563.204.032.14.607-.046a5 5 0 0 0 .1.308l-.534.272.048.134.599-.119q.065.15.137.294l-.5.332.063.128.586-.188a5 5 0 0 0 .121.197l-.464.383.076.12.565-.248a5 5 0 0 0 .199.252l-.417.44.09.11.534-.318a5 5 0 0 0 .15.153l-.398.57.106.095.54-.441a5 5 0 0 0 .228.184l-.328.618.117.082.485-.507a5 5 0 0 0 .206.129l-.277.623.122.073.446-.536a5 5 0 0 0 .268.127l-.2.654.13.058.38-.59a5 5 0 0 0 .194.067l-.13.674.135.045.317-.63a5 5 0 0 0 .287.062l-.048.69.14.027.24-.667.2.02.025.695.142.013.17-.693.185-.001.171.698.142-.012.025-.705q.1-.009.197-.022l.244.68.14-.028-.05-.706q.142-.028.28-.063l.326.646.135-.044-.135-.697.185-.065.393.61.13-.057-.208-.682q.13-.058.256-.124l.466.56.123-.072-.292-.655a5 5 0 0 0 .195-.124l.511.534.117-.082-.348-.655q.11-.084.215-.174l.573.468.106-.096-.425-.607.136-.14.574.342.09-.11-.45-.475a5 5 0 0 0 .185-.237l.612.27.077-.12-.506-.418a5 5 0 0 0 .11-.18l.638.204.064-.127-.547-.363a5 5 0 0 0 .127-.274l.655.13.049-.134-.586-.299a5 5 0 0 0 .092-.286l.666.05.032-.14-.618-.224a5 5 0 0 0 .041-.207l.668-.02.018-.142-.64-.16a5 5 0 0 0 .026-.298l.661-.102v-.143l-.654-.08q-.002-.15-.011-.3l.644-.181-.018-.142h-.658q-.014-.105-.032-.208l.621-.248-.032-.139-.654.069a5 5 0 0 0-.079-.29l.586-.321-.049-.134-.64.148a5 5 0 0 0-.114-.278l.542-.39-.064-.128-.619.225a5 5 0 0 0-.146-.261l.49-.454-.08-.119-.586.3a5 5 0 0 0-.123-.172l.441-.503-.091-.109-.553.359a5 5 0 0 0-.202-.222l.377-.554-.104-.097-.505.424a5 5 0 0 0-.226-.196l.306-.595-.116-.084-.449.481a5 5 0 0 0-.249-.167l.232-.627-.125-.07-.387.533a5 5 0 0 0-.187-.097l.164-.647-.131-.056-.33.57a5 5 0 0 0-.28-.107l.085-.663-.137-.04-.258.606a5 5 0 0 0-.291-.071l.003-.669-.141-.022-.182.633a5 5 0 0 0-.297-.035l-.079-.665-.143-.005-.103.651-.133-.002H8.3zM8.42 4.09a4.46 4.46 0 0 1 4.158 2.845q.171.478.171.645c0 .297-.178.654-1.13.654H9.248c-.365 0-.503-.036-.599-.096-.071-.045-.194-.195-.266-.322l-.069-.134-.007-.016-1.225-2.038c-.49-.816-.276-1.153-.021-1.306a1 1 0 0 1 .2-.08A4.5 4.5 0 0 1 8.42 4.09M5.71 5.216c.232-.004.525.157.862.718l1.178 1.96q.194.356.194.596 0 .297-.238.773l.012-.014-1.146 1.907c-.49.815-.887.785-1.142.632-.102-.062-.34-.276-.578-.572l.11.15A4.44 4.44 0 0 1 3.96 8.55a4.44 4.44 0 0 1 .897-2.682c.237-.292.472-.505.573-.566a.56.56 0 0 1 .28-.086m2.703 3.062a.28.28 0 0 1 .28.28.28.28 0 0 1-.28.28.28.28 0 0 1-.28-.28.28.28 0 0 1 .28-.28m.838.55h2.368c.951 0 1.13.357 1.13.655 0 .066-.02.194-.06.357a4.46 4.46 0 0 1-4.27 3.169 4.5 4.5 0 0 1-.75-.063q-.47-.096-.608-.178c-.252-.152-.463-.484.006-1.28l1.234-2.047c.19-.33.25-.408.356-.475.107-.067.244-.137.594-.137"/><g stroke-linecap="round" stroke-linejoin="round" color="#000"><path fill="none" d="m8.231 2.692-.142.004-.08.665c-.1.008-.154.019-.252.032l-.181-.63-.141.023.003.66q-.15.031-.296.07L6.89 2.92l-.137.039.083.648a5 5 0 0 0-.288.106l-.32-.554-.131.056.159.626a5 5 0 0 0-.196.098l-.373-.512-.125.069.222.601a5 5 0 0 0-.26.17l-.428-.458-.116.084.29.564a5 5 0 0 0-.238.203l-.477-.4-.104.097.354.52a5 5 0 0 0-.214.232l-.517-.335-.092.11.41.468a5 5 0 0 0-.133.184l-.546-.278-.08.119.455.42a5 5 0 0 0-.158.278l-.57-.208-.065.127.499.36a5 5 0 0 0-.123.296l-.588-.135-.049.134.536.294a5 5 0 0 0-.086.31l-.597-.062-.032.14.566.225a5 5 0 0 0-.036.23h-.6l-.017.142.587.165a5 5 0 0 0-.013.323l-.595.074v.142l.601.093q.009.162.027.322l-.58.145.017.142.608.018a5 5 0 0 0 .045.23l-.562.204.032.139.607-.045a5 5 0 0 0 .1.308l-.535.272.049.134.598-.12q.065.15.138.295l-.501.332.064.127.586-.187a5 5 0 0 0 .121.196l-.465.384.077.12.565-.248a5 5 0 0 0 .198.251l-.417.44.091.11.533-.317a5 5 0 0 0 .151.152l-.399.57.106.096.54-.441a5 5 0 0 0 .229.183l-.329.619.117.082.485-.507a5 5 0 0 0 .206.129l-.277.622.123.074.446-.536a5 5 0 0 0 .267.126l-.2.655.131.058.379-.59a5 5 0 0 0 .195.067l-.131.674.136.044.316-.629a5 5 0 0 0 .287.062l-.048.69.14.027.24-.667.201.02.025.695.142.012.17-.692.185-.002.17.699.143-.012.025-.705.197-.022.243.679.14-.028-.049-.705q.14-.028.28-.063l.325.646.136-.044-.135-.697.185-.065.393.61.13-.058-.208-.681q.13-.059.256-.124l.466.56.122-.073-.291-.655q.098-.059.194-.124l.512.534.117-.082-.348-.654q.11-.085.214-.175l.574.469.105-.096-.425-.608q.07-.068.136-.139l.575.342.09-.11-.45-.476a5 5 0 0 0 .184-.236l.613.27.077-.121-.506-.417a5 5 0 0 0 .11-.18l.638.204.064-.128-.548-.362a5 5 0 0 0 .127-.275l.656.13.048-.133-.585-.3a5 5 0 0 0 .091-.285l.667.05.032-.14-.618-.225a5 5 0 0 0 .04-.206l.669-.02.017-.142-.639-.16a5 5 0 0 0 .025-.298l.662-.102v-.143l-.655-.08q0-.15-.01-.3l.643-.182-.017-.141h-.659q-.014-.105-.031-.208l.62-.248-.031-.14-.654.07a5 5 0 0 0-.079-.29l.586-.322-.049-.134-.641.148a5 5 0 0 0-.113-.278l.542-.39-.065-.127-.618.225a5 5 0 0 0-.147-.262l.491-.454-.08-.118-.586.299a5 5 0 0 0-.123-.171l.441-.503-.092-.11-.553.36a5 5 0 0 0-.2-.223l.376-.553-.104-.097-.505.423a5 5 0 0 0-.227-.196l.307-.595-.116-.084-.45.482a5 5 0 0 0-.248-.167l.231-.627-.124-.07-.387.533a5 5 0 0 0-.188-.097l.165-.648-.131-.056-.33.57a5 5 0 0 0-.28-.107l.084-.662-.137-.04-.257.606a5 5 0 0 0-.291-.072l.003-.668-.141-.022-.182.632a5 5 0 0 0-.298-.035l-.078-.664-.143-.005-.103.65-.134-.001h-.119zm.223 1.427a4.46 4.46 0 0 1 4.158 2.845q.172.478.172.645c0 .297-.179.654-1.13.654H9.283c-.365 0-.503-.036-.6-.096-.07-.045-.194-.195-.266-.323l-.068-.133-.008-.016-1.224-2.039c-.49-.815-.277-1.152-.022-1.305a1 1 0 0 1 .2-.08 4.5 4.5 0 0 1 1.16-.152m-2.71 1.126c.233-.004.526.157.863.717l1.177 1.96q.195.357.194.597 0 .297-.237.773l.011-.014-1.145 1.907c-.49.815-.888.784-1.142.631-.102-.06-.34-.276-.578-.572l.11.15a4.44 4.44 0 0 1-1.002-2.816 4.44 4.44 0 0 1 .896-2.681c.237-.293.472-.505.574-.566a.56.56 0 0 1 .279-.086m2.703 3.062a.28.28 0 0 1 .28.28.28.28 0 0 1-.28.279.28.28 0 0 1-.28-.28.28.28 0 0 1 .28-.28m.838.55h2.369c.951 0 1.13.357 1.13.654 0 .067-.02.195-.06.358a4.46 4.46 0 0 1-4.27 3.169 4.5 4.5 0 0 1-.75-.063q-.471-.096-.609-.179c-.252-.151-.463-.483.007-1.28L8.335 9.47c.191-.33.25-.409.357-.476.107-.066.244-.137.593-.137"/><path fill="#fff" fill-opacity=".418" fill-rule="evenodd" d="m8.196 2.663-.126.004a.1.1 0 0 0-.018.017l-.077.648c-.1.008-.154.02-.253.033l-.18-.63-.125.02a.05.05 0 0 0-.017.019l.003.644q-.15.03-.295.07l-.253-.596-.122.035a.1.1 0 0 0-.013.02l.08.632a5 5 0 0 0-.288.106l-.32-.554-.118.05a.1.1 0 0 0-.01.02l.156.612a5 5 0 0 0-.196.099l-.372-.513-.114.063a.1.1 0 0 0-.007.018l.218.59a5 5 0 0 0-.26.17l-.43-.459-.107.079-.003.013.286.557a5 5 0 0 0-.239.202l-.477-.4-.1.094-.001.008.351.516a5 5 0 0 0-.214.232l-.517-.336-.092.11.411.468q-.068.09-.134.184l-.542-.276-.006.002-.077.115.455.42a5 5 0 0 0-.158.278l-.563-.205-.012.005-.06.12.498.359a5 5 0 0 0-.123.297l-.577-.134-.015.009-.045.123.536.294a5 5 0 0 0-.085.311l-.584-.061a.1.1 0 0 0-.017.013l-.029.124.567.226a5 5 0 0 0-.036.23h-.585a.1.1 0 0 0-.017.016l-.015.126.586.166a5 5 0 0 0-.013.322l-.578.072a.1.1 0 0 0-.017.018v.126l.602.093q.008.162.027.322l-.565.141a.1.1 0 0 0-.014.02l.015.126.608.018a5 5 0 0 0 .046.23l-.549.199a.1.1 0 0 0-.01.02l.028.124.607-.045a5 5 0 0 0 .1.308l-.523.266a.1.1 0 0 0-.007.018l.044.122.599-.119q.065.15.137.294l-.492.326-.004.015.06.119.585-.188a5 5 0 0 0 .121.197l-.459.379-.002.01.073.115.565-.249a5 5 0 0 0 .199.252l-.026.026-.39.411v.004l.09.108.533-.317a5 5 0 0 0 .15.153l-.399.57.107.095.54-.441a5 5 0 0 0 .228.184l-.329.618.117.082.383-.4-.353.37-.054-.038.31-.582a.045.045 0 0 0-.013-.057 5 5 0 0 1-.226-.183.045.045 0 0 0-.058 0l-.51.416-.047-.043.376-.537a.045.045 0 0 0-.006-.058l-.15-.151a.045.045 0 0 0-.054-.008l-.5.297-.042-.05.39-.41a.045.045 0 0 0 .001-.06 5 5 0 0 1-.196-.25.045.045 0 0 0-.055-.013l-.529.232-.035-.054.434-.358a.045.045 0 0 0 .01-.06 5 5 0 0 1-.121-.194.045.045 0 0 0-.053-.02l-.548.175-.03-.057.469-.31a.045.045 0 0 0 .015-.057 5 5 0 0 1-.136-.292.045.045 0 0 0-.05-.026l-.562.111-.021-.06.498-.255a.045.045 0 0 0 .022-.055 5 5 0 0 1-.098-.305.045.045 0 0 0-.047-.032l-.568.042-.015-.062.525-.192a.045.045 0 0 0 .03-.052 5 5 0 0 1-.046-.227.045.045 0 0 0-.043-.037l-.57-.017-.007-.064.542-.136a.045.045 0 0 0 .034-.048 5 5 0 0 1-.027-.32.045.045 0 0 0-.038-.042l-.563-.087V8.53l.555-.068a.045.045 0 0 0 .04-.045q0-.16.012-.32a.045.045 0 0 0-.033-.046l-.549-.155.008-.063.56-.001a.045.045 0 0 0 .044-.04q.016-.114.036-.227a.045.045 0 0 0-.028-.05l-.53-.212.015-.062.557.058a.045.045 0 0 0 .049-.034q.037-.155.085-.308a.045.045 0 0 0-.021-.052l-.503-.276.023-.06.548.126a.045.045 0 0 0 .052-.028q.056-.15.122-.294a.045.045 0 0 0-.014-.056l-.468-.336.03-.057.533.194a.045.045 0 0 0 .055-.022q.074-.14.156-.274a.045.045 0 0 0-.007-.058L3.69 5.37l.036-.053.51.26a.045.045 0 0 0 .057-.014q.065-.093.133-.183a.045.045 0 0 0-.001-.057l-.386-.44.042-.05.483.315a.045.045 0 0 0 .058-.009q.104-.117.212-.229a.045.045 0 0 0 .006-.057l-.333-.488.048-.044.446.374a.045.045 0 0 0 .06 0q.114-.105.235-.202a.045.045 0 0 0 .013-.055l-.273-.531.051-.038.402.43a.045.045 0 0 0 .058.006q.126-.088.258-.169a.045.045 0 0 0 .02-.054l-.21-.565.057-.03.35.48a.045.045 0 0 0 .056.013q.098-.05.195-.098a.045.045 0 0 0 .024-.051l-.15-.59.06-.024.3.519a.045.045 0 0 0 .055.02q.142-.058.285-.105a.045.045 0 0 0 .031-.049l-.077-.61.061-.017.237.559a.045.045 0 0 0 .054.025 5 5 0 0 1 .293-.068.045.045 0 0 0 .036-.044l-.003-.623.064-.01.17.592a.045.045 0 0 0 .048.032c.1-.014.153-.025.251-.032a.045.045 0 0 0 .042-.04l.073-.626.064-.001.099.614a.045.045 0 0 0 .044.038h.119q.066 0 .132.002a.045.045 0 0 0 .046-.038l.097-.612.065.003.073.625a.045.045 0 0 0 .04.04q.15.013.296.035a.045.045 0 0 0 .05-.033l.171-.594.063.01-.003.63a.045.045 0 0 0 .036.044q.145.032.288.071a.045.045 0 0 0 .054-.025l.241-.57.063.019-.08.624a.045.045 0 0 0 .03.048q.14.049.278.105a.045.045 0 0 0 .056-.018l.309-.536.06.026-.156.61a.045.045 0 0 0 .024.052q.094.045.185.095a.045.045 0 0 0 .058-.013l.365-.5.056.031-.219.591a.045.045 0 0 0 .019.054q.126.08.246.166a.045.045 0 0 0 .059-.007l.422-.451.052.037-.288.56a.045.045 0 0 0 .012.056q.114.095.224.194a.045.045 0 0 0 .06.001l.474-.397.047.043-.355.522a.045.045 0 0 0 .004.057q.104.106.2.22a.045.045 0 0 0 .058.008l.52-.337.041.05.025-.029-.092-.109-.552.359a5 5 0 0 0-.202-.222l.377-.554-.104-.097-.505.424a5 5 0 0 0-.227-.196l.307-.595-.116-.084-.45.482a5 5 0 0 0-.248-.167l.232-.628-.123-.068h-.003l-.386.531a5 5 0 0 0-.187-.097l.164-.647-.125-.053-.01.003-.325.563a5 5 0 0 0-.28-.106l.084-.663-.128-.037-.014.007-.253.596a5 5 0 0 0-.291-.071l.003-.669-.127-.02a.1.1 0 0 0-.018.011l-.178.62a5 5 0 0 0-.298-.035L8.8 2.673l-.127-.004a.1.1 0 0 0-.018.014l-.101.636-.134-.002h-.118zm4.731 2.225-.416.474v.001zm-4.473-.814c-.395 0-.789.051-1.17.153h-.001a1 1 0 0 0-.21.086H7.07q-.076.045-.144.115a.6.6 0 0 1 .134-.106 1 1 0 0 1 .2-.08A4.5 4.5 0 0 1 8.42 4.09a4.46 4.46 0 0 1 4.159 2.845q.171.479.171.645a.56.56 0 0 1-.107.338 1 1 0 0 1-.042.048v.001c-.152.153-.443.267-.98.267H9.247c-.365 0-.503-.036-.599-.096-.071-.044-.194-.195-.266-.322l-.069-.134-.007-.016-1.225-2.038c-.367-.61-.34-.953-.195-1.15a.56.56 0 0 0-.105.272c-.026.22.048.517.296.93l1.225 2.037.005.013v.002l.069.133v.002c.038.067.089.137.14.198a.7.7 0 0 0 .142.14c.106.066.256.102.624.102h2.37c.482 0 .774-.089.95-.224a.58.58 0 0 0 .225-.474c0-.127-.059-.34-.174-.66v-.001a4.51 4.51 0 0 0-4.2-2.874M5.742 5.2a.6.6 0 0 0-.3.092c-.115.069-.347.281-.586.577h-.001a4.5 4.5 0 0 0-.905 2.709c0 1.002.352 1.91.906 2.659a.05.05 0 0 0-.006.034l.001.002.002.001.106.146.002.003a.05.05 0 0 0 .051.009c.166.18.345.372.43.423a.58.58 0 0 0 .522.05c.206-.08.433-.285.68-.697l1.143-1.901.004-.007a.05.05 0 0 0 .001-.026c.146-.3.23-.555.23-.755q0-.257-.198-.619l-.001-.002L6.645 5.94c-.341-.567-.648-.744-.903-.74zm-.033.017c.233-.005.526.156.863.717l1.178 1.96q.195.356.194.596 0 .297-.238.773l.012-.014-1.146 1.907a3 3 0 0 1-.265.373c-.368.427-.67.383-.877.259-.102-.062-.34-.276-.578-.572l.11.15A4.44 4.44 0 0 1 3.96 8.55a4.44 4.44 0 0 1 .897-2.682c.236-.292.472-.505.573-.566a.56.56 0 0 1 .279-.085m7.512.018-.587.3a5 5 0 0 0-.123-.171.045.045 0 0 0-.002.055q.063.083.122.169a.045.045 0 0 0 .058.015l.55-.281.037.054-.463.427v.001l.488-.45zm-.41.577a.05.05 0 0 0-.006.047q.077.127.145.26a.045.045 0 0 0 .055.021l.581-.211.03.057-.512.367v.004l.535-.386-.065-.127-.618.225a5 5 0 0 0-.144-.257m.29.558a.05.05 0 0 0-.01.039q.06.135.112.274a.045.045 0 0 0 .052.029l.602-.14.022.062-.552.302-.002.005.575-.315-.049-.134-.64.148a5 5 0 0 0-.11-.27m.216.59a.05.05 0 0 0-.011.029q.042.141.078.287a.045.045 0 0 0 .048.034l.615-.065.014.063-.585.234-.005.008.608-.243-.032-.139-.654.069a5 5 0 0 0-.076-.278m.143.61a.1.1 0 0 0-.012.021q.018.103.031.206a.045.045 0 0 0 .045.04h.62l.007.064-.608.171-.007.01.63-.177-.018-.142h-.658zm.062.532a.1.1 0 0 0-.011.016q.01.147.011.296a.045.045 0 0 0 .04.045l.614.076v.064l-.623.096-.012.014.646-.1v-.143l-.654-.08q-.002-.143-.01-.284m-5.075.16a.32.32 0 0 0-.276.155.28.28 0 0 1 .242-.14.28.28 0 0 1 .28.28.3.3 0 0 1-.047.153l-.011.016-.016.02-.012.012a.28.28 0 0 1-.194.08.28.28 0 0 1-.28-.28.3.3 0 0 1 .037-.14.325.325 0 1 0 .602.167.325.325 0 0 0-.325-.323m5.077.465-.01.01a5 5 0 0 1-.024.296.045.045 0 0 0 .034.049l.6.15-.007.064-.63.02a.1.1 0 0 0-.018.015l.653-.02.017-.142-.639-.16a5 5 0 0 0 .024-.282m-4.239.085c-.355 0-.507.076-.617.144l-.01.01c.106-.067.243-.137.593-.137h2.368c.951 0 1.13.357 1.13.654 0 .066-.02.195-.06.357a4.46 4.46 0 0 1-4.27 3.169 4.5 4.5 0 0 1-.75-.063q-.47-.096-.609-.178c-.252-.152-.462-.484.007-1.28L8.3 9.441l-.004.007-1.233 2.046c-.238.403-.307.694-.28.91.028.216.155.35.288.43h.001c.105.063.307.12.622.185h.001q.377.063.759.064a4.51 4.51 0 0 0 4.313-3.202V9.88c.041-.164.061-.292.061-.367 0-.158-.05-.34-.225-.475-.176-.136-.468-.225-.95-.225zm4.166.534-.007.006a5 5 0 0 1-.041.205.045.045 0 0 0 .029.052l.58.21-.014.064-.628-.047a.05.05 0 0 0-.025.017l.654.05.032-.14-.618-.225zm-.123.519-.004.003q-.042.143-.091.284a.045.045 0 0 0 .022.055l.55.28-.022.06-.617-.122a.05.05 0 0 0-.033.018l.645.128.048-.134-.585-.299a5 5 0 0 0 .087-.273m-.21.586-.002.001q-.06.138-.127.271a.045.045 0 0 0 .016.058l.514.34-.028.059-.602-.194a.05.05 0 0 0-.042.017l.632.202.064-.127-.548-.363a5 5 0 0 0 .123-.264m-.28.555h-.001a5 5 0 0 1-.11.18.045.045 0 0 0 .01.058l.474.392-.034.055-.577-.255a.05.05 0 0 0-.05.014l.61.269.077-.12-.506-.418a5 5 0 0 0 .106-.175m-.292.445q-.09.12-.183.234a5 5 0 0 0 .183-.234m-.183.235a.045.045 0 0 0 .001.059l.424.447.026-.031zm-.157.234a.045.045 0 0 0-.056.008l-.002.001.575.342.048-.058-.024.028zm-.063.015-.128.13v.001zm-.128.137a.05.05 0 0 0-.005.051l.403.575-.049.043-.543-.444a.045.045 0 0 0-.058.001q-.105.09-.212.174v.001q.106-.082.207-.17l.574.469.106-.096zm-.467.413a.05.05 0 0 0-.01.043l.33.619-.053.038-.485-.507a.045.045 0 0 0-.058-.006 5 5 0 0 1-.192.123v.003q.092-.057.183-.117l.512.534.117-.082zm-5.88.209a.045.045 0 0 0-.057.007l-.002.002a5 5 0 0 0 .206.129l-.278.623.123.073.024-.029-.055-.033.26-.587a.045.045 0 0 0-.017-.057 5 5 0 0 1-.204-.128m5.406.122a.05.05 0 0 0-.011.036l.274.618-.055.033-.441-.53a.045.045 0 0 0-.056-.012 5 5 0 0 1-.253.123l-.003.006a5 5 0 0 0 .243-.118l.466.561.123-.073zm-4.913.164a.045.045 0 0 0-.055.012l-.388.467.388-.467a5 5 0 0 0 .268.127l-.2.654.13.058.377-.585H6.68l-.358.557-.06-.027.189-.615a.045.045 0 0 0-.025-.054 5 5 0 0 1-.265-.127m4.36.13a.05.05 0 0 0-.014.028l.197.644-.06.026-.37-.579a.045.045 0 0 0-.054-.017q-.09.034-.183.064l-.006.009.17-.06.393.61.13-.057zm-3.788.118a.05.05 0 0 0-.045.016l.19.064-.13.674.135.044.313-.62h-.002l-.3.594-.06-.02.122-.635a.045.045 0 0 0-.03-.051 5 5 0 0 1-.193-.066m3.286.077a.05.05 0 0 0-.013.022l.128.658-.061.02-.309-.611a.045.045 0 0 0-.05-.024 5 5 0 0 1-.278.063l-.008.011q.132-.026.262-.059l.325.646.136-.044zm-2.774.078a.05.05 0 0 0-.037.017 5 5 0 0 0 .279.06l-.048.69.14.026.235-.656-.004.003-.226.63-.063-.012.045-.65a.045.045 0 0 0-.036-.047 5 5 0 0 1-.285-.06m2.167.082a.1.1 0 0 0-.012.015l.047.666-.064.012-.23-.642a.045.045 0 0 0-.049-.03q-.097.013-.195.022a.1.1 0 0 0-.014.014q.09-.008.18-.02l.244.68.14-.028zm-1.554.028a.05.05 0 0 0-.028.017l.19.019.024.695.142.013.166-.68-.006.005-.16.655-.064-.005-.024-.656a.045.045 0 0 0-.04-.043zm.716.033-.183.002a.05.05 0 0 0-.021.016l.171-.001.171.698.142-.012.025-.69-.01.012-.024.665-.064.006-.162-.662a.045.045 0 0 0-.045-.034"/></g><path fill="#fff" fill-opacity=".01" d="M14.809 8.525a6 6 0 0 1-.059.79l-.029.159v.004a6 6 0 0 1-.128.617l-.066.211a6 6 0 0 1-.189.543 6 6 0 0 1-.103.23l-.001.002a6 6 0 0 1-.243.484 6 6 0 0 1-.141.235h-.001v.002l-.002.001a6 6 0 0 1-.289.428l-.001.002-.124.158-.036.045-.011.015-.006.006a6 6 0 0 1-.339.384 6 6 0 0 1-.207.207 6 6 0 0 1-.38.331h-.001a6 6 0 0 1-.234.184 6 6 0 0 1-.413.274l-.004.003-.142.085-.05.03-.011.007-.055.033a6 6 0 0 1-.455.223 6 6 0 0 1-.265.12 6 6 0 0 1-.49.165l-.004.002a6 6 0 0 1-.265.082l-.002.001a6 6 0 0 1-.55.109 6 6 0 0 1-.23.042 6 6 0 0 1-.795.052 6 6 0 0 1-.796-.052l-.191-.035H7.5l-.003-.001a6 6 0 0 1-.589-.116 6 6 0 0 1-.22-.07h-.004a6 6 0 0 1-.534-.18 6 6 0 0 1-.223-.1h-.001l-.001-.001a6 6 0 0 1-.499-.244l-.033-.02-.017-.01-.063-.038-.096-.058a6 6 0 0 1-.464-.306h-.001l-.028-.023-.005-.003-.024-.02-.134-.104a6 6 0 0 1-.426-.368 6 6 0 0 1-.165-.165 6 6 0 0 1-.384-.43l-.133-.17a6 6 0 0 1-.337-.493l-.104-.171v-.001a6 6 0 0 1-.28-.552l-.072-.16a6 6 0 0 1-.218-.615v-.001l-.043-.136a6 6 0 0 1-.147-.687l-.017-.092v-.001a6 6 0 0 1-.065-.793l-.007.109a6.325 6.325 0 0 0 6.324 6.324 6.325 6.325 0 0 0 6.325-6.324z"/><circle cx="8.488" cy="8.466" r="6.324" fill="url(#n)"/></svg>