<svg width="64" height="64" version="1.1" viewBox="0 0 16.933 16.933" xmlns="http://www.w3.org/2000/svg">
 <defs>
  <linearGradient id="linearGradient847" x1="15.875" x2="1.0583" y1="14.287" y2="14.287" gradientTransform="scale(3.7796)" gradientUnits="userSpaceOnUse">
   <stop stop-color="#c49f2d" offset="0"/>
   <stop stop-color="#dbc865" offset=".23078"/>
   <stop stop-color="#dcc865" offset=".80357"/>
   <stop stop-color="#caa73d" offset="1"/>
  </linearGradient>
  <linearGradient id="linearGradient865" x1="7.9373" x2="7.9373" y1="15.081" y2="1.852" gradientTransform="translate(-.00029968 .0083125)" gradientUnits="userSpaceOnUse">
   <stop stop-color="#f0e387" offset="0"/>
   <stop stop-color="#f8f29f" offset=".72674"/>
   <stop stop-color="#fef296" offset="1"/>
  </linearGradient>
  <linearGradient id="linearGradient1181" x1="11.661" x2="14.929" y1="10.565" y2="13.057" gradientTransform="scale(3.7796)" gradientUnits="userSpaceOnUse">
   <stop stop-color="#836c3c" offset="0"/>
   <stop stop-color="#edde84" offset="1"/>
  </linearGradient>
 </defs>
 <g shape-rendering="auto">
  <path d="m4.3693 0.52916c-2.1142 0-3.8402 1.7835-3.8402 3.9682v8.4675c0 2.1846 1.726 3.9682 3.8402 3.9682h8.1944c2.1142 0 3.8402-1.7835 3.8402-3.9682v-8.4675c0-2.1846-1.726-3.9682-3.8402-3.9682zm0.25704 0.52089h7.6808c1.8443 0 3.3291 1.5342 3.3291 3.44v7.9368c0 1.9058-1.4847 3.44-3.3291 3.44h-7.6808c-1.8443 0-3.3291-1.5342-3.3291-3.44v-7.9368c0-1.9058 1.4847-3.44 3.3291-3.44z" color="#000000" color-rendering="auto" dominant-baseline="auto" image-rendering="auto" opacity=".01" solid-color="#000000" stop-color="#000000" style="font-feature-settings:normal;font-variant-alternates:normal;font-variant-caps:normal;font-variant-east-asian:normal;font-variant-ligatures:normal;font-variant-numeric:normal;font-variant-position:normal;font-variation-settings:normal;inline-size:0;isolation:auto;mix-blend-mode:normal;shape-margin:0;shape-padding:0;text-decoration-color:#000000;text-decoration-line:none;text-decoration-style:solid;text-indent:0;text-orientation:mixed;text-transform:none;white-space:normal"/>
  <path d="m4.3587 0.79373c-1.9668 0-3.5639 1.6528-3.5639 3.6876v8.4996c0 2.0348 1.5971 3.6876 3.5639 3.6876h8.2162c1.9668 0 3.5644-1.6528 3.5644-3.6876v-8.4996c0-2.0348-1.5976-3.6876-3.5644-3.6876zm0.27222 0.25631h7.6718c1.8422 0 3.3251 1.5342 3.3251 3.44v7.9368c0 1.9058-1.483 3.44-3.3251 3.44h-7.6718c-1.8422 0-3.3251-1.5342-3.3251-3.44v-7.9368c0-1.9058 1.483-3.44 3.3251-3.44z" color="#000000" color-rendering="auto" dominant-baseline="auto" image-rendering="auto" opacity=".01" solid-color="#000000" stop-color="#000000" style="font-feature-settings:normal;font-variant-alternates:normal;font-variant-caps:normal;font-variant-east-asian:normal;font-variant-ligatures:normal;font-variant-numeric:normal;font-variant-position:normal;font-variation-settings:normal;inline-size:0;isolation:auto;mix-blend-mode:normal;shape-margin:0;shape-padding:0;text-decoration-color:#000000;text-decoration-line:none;text-decoration-style:solid;text-indent:0;text-orientation:mixed;text-transform:none;white-space:normal"/>
  <g>
   <path d="m4.3097 1.0583c-1.8657 0-3.3751 1.5383-3.3751 3.439v8.4675c0 1.9007 1.5094 3.439 3.3751 3.439h8.312c1.8657 0 3.3756-1.5383 3.3756-3.439v-8.4675c0-1.9007-1.51-3.439-3.3756-3.439h-0.09688c1.794 0.086515 3.2138 1.5819 3.2138 3.4318v7.9368c0 1.9058-1.5059 3.44-3.3766 3.44h-7.7905c-1.8707 0-3.3766-1.5342-3.3766-3.44v-7.9368c0-1.8498 1.4199-3.3451 3.2138-3.4318z" color="#000000" color-rendering="auto" dominant-baseline="auto" image-rendering="auto" opacity=".03" solid-color="#000000" stop-color="#000000" style="font-feature-settings:normal;font-variant-alternates:normal;font-variant-caps:normal;font-variant-east-asian:normal;font-variant-ligatures:normal;font-variant-numeric:normal;font-variant-position:normal;font-variation-settings:normal;inline-size:0;isolation:auto;mix-blend-mode:normal;shape-margin:0;shape-padding:0;text-decoration-color:#000000;text-decoration-line:none;text-decoration-style:solid;text-indent:0;text-orientation:mixed;text-transform:none;white-space:normal"/>
   <path transform="scale(.26458)" d="m4 46.969v2.0312c0 6.6479 5.3522 12 12 12h32c6.6479 0 12-5.3521 12-12v-1.9922c-0.021173 7.1849-5.81 12.963-13 12.963h-29.998c-7.2032 0-13.002-5.7987-13.002-13.002z" color="#000000" color-rendering="auto" dominant-baseline="auto" image-rendering="auto" opacity=".03" solid-color="#000000" stop-color="#000000" style="font-feature-settings:normal;font-variant-alternates:normal;font-variant-caps:normal;font-variant-east-asian:normal;font-variant-ligatures:normal;font-variant-numeric:normal;font-variant-position:normal;font-variation-settings:normal;inline-size:0;isolation:auto;mix-blend-mode:normal;shape-margin:0;shape-padding:0;text-decoration-color:#000000;text-decoration-line:none;text-decoration-style:solid;text-indent:0;text-orientation:mixed;text-transform:none;white-space:normal"/>
   <path d="m1.0583 11.906v0.59234c0 1.9386 1.4161 3.4993 3.1749 3.4993h8.4665c1.7589 0 3.1749-1.5608 3.1749-3.4993v-0.58095c-0.0056 2.0952-1.5372 3.7801-3.4395 3.7801h-7.9368c-1.9058 0-3.44-1.691-3.44-3.7915z" color="#000000" color-rendering="auto" dominant-baseline="auto" image-rendering="auto" opacity=".05" solid-color="#000000" stop-color="#000000" style="font-feature-settings:normal;font-variant-alternates:normal;font-variant-caps:normal;font-variant-east-asian:normal;font-variant-ligatures:normal;font-variant-numeric:normal;font-variant-position:normal;font-variation-settings:normal;inline-size:0;isolation:auto;mix-blend-mode:normal;shape-margin:0;shape-padding:0;text-decoration-color:#000000;text-decoration-line:none;text-decoration-style:solid;text-indent:0;text-orientation:mixed;text-transform:none;white-space:normal"/>
  </g>
 </g>
 <path transform="scale(.26458)" d="m60 24s-0.01204 9.6801-2.8789 15.637c-3.6555 7.5951-9.5242 10.631-17.17 12.371-7.4171 1.6876-22.01 1.4473-22.01 1.4473-7.2036 0.25039-13.92-5.2191-13.941-12.422v5.9355c0 7.2032 5.7987 13.002 13.002 13.002h29.998c7.2032 0 13.002-5.7987 13.002-13.002z" fill="url(#linearGradient847)" stroke-width="3.7796"/>
 <path transform="scale(.26458)" d="m60 24s-0.01204 9.6801-2.8789 15.637c-3.6555 7.5951-9.5242 10.631-17.17 12.371-7.4171 1.6876-22.01 1.4473-22.01 1.4473-7.082 0.24616-13.679-5.04-13.92-12.062 0.22422 7.0198 5.9336 12.607 13.01 12.607h29.939c7.2194 0 13.031-5.8119 13.031-13.031z" fill="url(#linearGradient1181)" stroke-width="3.7796"/>
 <path d="m4.5058 1.0583h7.9213c1.9101 0 3.4482 1.505 3.4478 3.4478l-3.13e-4 1.8437s-0.0031 2.5614-0.76161 4.1374c-0.96716 2.0095-2.5199 2.8128-4.5428 3.2731-1.9624 0.4465-5.8235 0.38295-5.8235 0.38295-1.9089 0.06635-3.6888-1.3855-3.6888-3.2956v-6.3416c0-1.9101 1.5377-3.4478 3.4478-3.4478z" fill="url(#linearGradient865)"/>
 <path d="m5.1898 11.831c-0.038653-0.01393-0.087002-0.02544-0.10744-0.02558-0.054512-3.88e-4 -0.12975-0.06644-0.12975-0.1139 0-0.02245 0.022871-0.09501 0.050824-0.16124 0.09558-0.22649 0.42044-1.2626 0.40173-1.2814-0.00483-0.0048-0.028981 4.28e-4 -0.053675 0.01168-0.065511 0.02985-0.12719 0.0078-0.15307-0.05468-0.018954-0.04576-0.017538-0.06385 0.00973-0.12431 0.038588-0.085584 0.10211-0.14132 0.2409-0.21138 0.22832-0.11525 0.5748-0.1584 0.69305-0.086294 0.083964 0.051196 0.11742 0.12893 0.1175 0.27304 8.78e-5 0.14999-0.032265 0.22441-0.15022 0.3455-0.046765 0.04801-0.085028 0.09149-0.085028 0.09662 0 0.0051 0.038458 0.0439 0.085462 0.08616 0.12583 0.11313 0.16859 0.22136 0.16611 0.42048-0.00242 0.194-0.041888 0.30876-0.1561 0.45384-0.22287 0.28311-0.67451 0.46348-0.93003 0.37142zm0.44072-0.29606c0.13454-0.06389 0.28059-0.18528 0.34149-0.28382 0.045093-0.07296 0.075739-0.23797 0.060714-0.3269-0.013178-0.078-0.076195-0.16198-0.15029-0.2003-0.02744-0.01419-0.11067-0.03425-0.18495-0.04458-0.15887-0.0221-0.1468-0.03229-0.20967 0.17706-0.024664 0.08214-0.085397 0.27337-0.13496 0.42497-0.078571 0.2403-0.086981 0.27941-0.065627 0.30514 0.037379 0.04504 0.1873 0.02252 0.34329-0.05156zm0.13556-1.1815c0.16235-0.08241 0.27356-0.22445 0.24981-0.31906-0.010814-0.043085-0.013446-0.043721-0.13753-0.03323-0.069576 0.0059-0.15277 0.01985-0.18487 0.03104-0.052195 0.0182-0.056939 0.02523-0.044821 0.06647 0.01748 0.0595 0.017295 0.1348-5.359e-4 0.21743-0.012989 0.0602-0.010938 0.06589 0.02375 0.06589 0.020882 0 0.06327-0.01284 0.094196-0.02854zm0.63336 1.3359c-0.060575-0.09245-0.019535-0.3958 0.07792-0.57596 0.10469-0.19352 0.39211-0.43328 0.59685-0.49787 0.084914-0.02679 0.097019-0.02687 0.15131-9.77e-4 0.032456 0.01548 0.062875 0.04292 0.067599 0.06098 0.017014 0.06506-0.018567 0.10526-0.15688 0.17721-0.18413 0.0958-0.32276 0.20045-0.39053 0.29482-0.047124 0.06562-0.058102 0.10138-0.073527 0.23954-0.027827 0.24924-0.080116 0.34778-0.18454 0.34778-0.043419 0-0.066006-0.01166-0.088201-0.04553zm1.1359-0.04008c-0.37944-0.08341-0.38916-0.51675-0.019747-0.88103 0.34884-0.344 0.76264-0.37251 0.80517-0.05548l0.00978 0.07293 0.10075-0.09328c0.1198-0.11091 0.20001-0.15225 0.29542-0.15225 0.080434 0 0.24393 0.07698 0.25667 0.12084 0.017864 0.06152 0.047154 0.24974 0.072397 0.46522 0.014554 0.12424 0.034194 0.24034 0.043643 0.258 0.049027 0.09161-0.013554 0.22768-0.10471 0.22768-0.026985 0-0.068796-0.01552-0.092913-0.03449-0.043623-0.03431-0.044201-0.03431-0.11218 0.0014-0.095946 0.05036-0.3376 0.03927-0.44369-0.02036-0.15719-0.08835-0.21446-0.26918-0.15262-0.4819 0.016134-0.0555 0.025587-0.10465 0.021008-0.10923-0.00458-0.0046-0.066321 0.03096-0.1372 0.07897-0.17535 0.11878-0.36809 0.21278-0.4629 0.22578-0.04325 0.0059-0.09116 0.01994-0.10647 0.03113-0.025122 0.01837-0.024561 0.02439 0.00575 0.06183 0.042118 0.05201 0.18457 0.06767 0.33908 0.03727 0.12706-0.025 0.17086-0.01392 0.18616 0.04706 0.014998 0.05976-0.022245 0.12516-0.095708 0.16806-0.06387 0.0373-0.29927 0.05571-0.40769 0.03187zm1.2299-0.30675c0.044741-0.01558 0.060553-0.03087 0.058041-0.05611-0.0019-0.01908-0.00895-0.11965-0.015673-0.22348-0.00777-0.12001-0.020532-0.19569-0.035035-0.20773-0.012548-0.01041-0.018485-0.03022-0.013194-0.04401 0.00661-0.01724-0.00301-0.02507-0.030797-0.02507-0.055696 0-0.21824 0.17124-0.27186 0.28639-0.041681 0.08952-0.055052 0.19556-0.029431 0.23342 0.040716 0.06016 0.21585 0.07912 0.33795 0.03659zm-1.004-0.38952c0.13008-0.06853 0.28598-0.1815 0.297-0.2152 0.024061-0.0736-0.21205 0.03392-0.3614 0.16457-0.14563 0.1274-0.11982 0.14769 0.064402 0.05063zm1.7427 0.60558c-0.11172-0.040173-0.2142-0.13306-0.26688-0.24188-0.068866-0.14226-0.024398-0.38042 0.11109-0.59494 0.12127-0.19202 0.28401-0.29192 0.47946-0.29432l0.12239-0.0015 0.064398-0.21084c0.0955-0.31266 0.2591-0.78374 0.28161-0.81086 0.01082-0.013035 0.04592-0.0237 0.07801-0.0237 0.06924 0 0.11316 0.051109 0.11282 0.13129-1.23e-4 0.029256-0.05975 0.23108-0.13249 0.44851-0.18971 0.567-0.23681 0.76627-0.28764 1.2168-0.03265 0.2894-0.05381 0.34687-0.12772 0.34687-0.018214 0-0.064111 0.01581-0.10199 0.03514-0.087466 0.04462-0.2079 0.0444-0.33304-5.98e-4zm0.30142-0.2893c0.00677-0.03865 0.025658-0.17306 0.041981-0.29868 0.016322-0.12562 0.033393-0.2541 0.037935-0.28551 0.00737-0.05093 0.00368-0.0571-0.034149-0.0571-0.055087 0-0.18557 0.08325-0.2501 0.15956-0.06971 0.08244-0.13732 0.23552-0.14645 0.33156-0.00606 0.06381 4.129e-4 0.09002 0.032179 0.13027 0.052874 0.06699 0.13082 0.09933 0.22723 0.0943 0.077534-4e-3 0.079301-0.0055 0.091367-0.07441zm-5.7257-0.21858c-0.098729-0.04278-0.086989-0.17766 0.018236-0.20952 0.088941-0.02693 0.27047-0.03831 0.31871-0.01997 0.098606 0.03749 0.097389 0.1739-0.00189 0.21165-0.066999 0.02547-0.29004 0.03735-0.33505 0.01785zm2.3543-1.8301c-0.09546-0.027619-0.19876-0.18816-0.19876-0.30891 0-0.068142 0.054555-0.21588 0.099399-0.26917 0.060805-0.072262 0.12224-0.067554 0.11573 0.00887-0.015953 0.18702-0.012397 0.23418 0.020396 0.27045 0.036501 0.040374 0.1293 0.049878 0.18675 0.019128 0.04365-0.023361 0.11302-0.14302 0.1585-0.27341 0.049935-0.14316 0.12201-0.46556 0.12201-0.54577v-0.066108l-0.071125 0.069452c-0.067634 0.066043-0.076474 0.069416-0.18009 0.068711-0.13853-9.418e-4 -0.26091-0.053651-0.31165-0.13423-0.030812-0.048927-0.035546-0.078781-0.029457-0.18575 0.013561-0.23821 0.18791-0.50876 0.38924-0.60401 0.11354-0.053713 0.18833-0.061602 0.29727-0.031354 0.054553 0.015147 0.07282 0.031525 0.093291 0.08364 0.014001 0.035642 0.047891 0.07768 0.075311 0.093417 0.029544 0.016956 0.054428 0.049429 0.061077 0.079706 0.012002 0.054645-0.070257 0.64119-0.1311 0.93481-0.072564 0.35018-0.16398 0.55204-0.31325 0.69166-0.11636 0.10884-0.23944 0.14057-0.38355 0.098875zm0.40416-1.2664c0.021107-0.01143 0.059622-0.019249 0.085587-0.017375 0.043705 0.00315 0.04805-0.0028 0.05852-0.080243 0.00622-0.046008 0.022505-0.15085 0.036189-0.23299 0.031462-0.18885 0.033207-0.17571-0.023324-0.1756-0.090941 1.844e-4 -0.17429 0.035101-0.24099 0.10095-0.079285 0.078283-0.16748 0.25386-0.16749 0.33346-1.16e-5 0.047636 0.00776 0.058481 0.048303 0.067423 0.026574 0.00586 0.056223 0.013294 0.065886 0.016517 0.038923 0.012984 0.10106 0.00749 0.13732-0.012147zm0.57641 1.2503c-0.13526-0.031314-0.21969-0.14636-0.20794-0.28334 0.00949-0.11057 0.08065-0.25222 0.12672-0.25222 0.030261 0 0.03535 0.012219 0.036657 0.088024 0.00183 0.10605 0.029147 0.16256 0.08972 0.18559 0.085842 0.032637 0.16065-0.014591 0.22467-0.14185 0.069883-0.13891 0.12469-0.38657 0.13609-0.61494 0.00469-0.094016 0.00363-0.09647-0.039103-0.090608-0.31278 0.042902-0.47438-0.047071-0.47438-0.26412 0-0.24082 0.18802-0.5321 0.41973-0.65023 0.1114-0.056797 0.29522-0.029033 0.32521 0.049121 0.0062 0.01615 0.00626 0.05606 1.406e-4 0.088691-0.00663 0.035355-0.00293 0.069211 0.00917 0.083787 0.051465 0.062012 0.054079 0.1423 0.018351 0.56374-0.019663 0.23192-0.047946 0.49279-0.062853 0.57972-0.077717 0.4532-0.32434 0.72294-0.60216 0.65862zm0.33133-1.3739c0.053335-0.021377 0.10066-0.041531 0.10516-0.044787 0.0045-0.00326 0.014057-0.0589 0.021235-0.12365 0.00718-0.064752 0.018059-0.13846 0.024179-0.16379 0.010178-0.042127 0.00554-0.047106-0.054362-0.058344-0.059594-0.01118-0.071638-0.00628-0.13379 0.054407-0.11128 0.10866-0.1926 0.31436-0.14363 0.36332 0.021402 0.021402 0.083152 0.012149 0.18121-0.027154zm-2.5836 0.44174c-0.024455-0.024455-0.034876-0.054678-0.031805-0.092241 0.00251-0.030727-0.0014-0.076227-0.00868-0.10111-0.021918-0.07483 0.47166-1.5519 0.54704-1.6371 0.014969-0.016911 0.045757-0.030747 0.068418-0.030747 0.046573 0 0.11148 0.056584 0.11148 0.097184 0 0.014798 0.011332 0.031254 0.025182 0.036569 0.01385 0.00531 0.18422-0.058184 0.37861-0.14111 0.21064-0.089859 0.37741-0.15077 0.4128-0.15077 0.11762 0 0.15381 0.10804 0.063845 0.19061-0.027914 0.02562-0.12081 0.074015-0.20644 0.10755-0.18636 0.072976-0.6957 0.30394-0.75285 0.34138-0.052726 0.034547-0.21363 0.49923-0.17765 0.51303 0.012434 0.00477 0.065136-0.00809 0.11712-0.028576 0.16242-0.064021 0.24481-0.045121 0.24481 0.05616 0 0.10863-0.19583 0.2053-0.36795 0.18163l-0.084954-0.011684-0.061667 0.19025c-0.033917 0.10464-0.055583 0.19674-0.048146 0.20468 0.00744 0.00793 0.15245-0.030045 0.32225-0.084398 0.33921-0.10858 0.40951-0.12439 0.47732-0.10738 0.063109 0.015839 0.087196 0.084948 0.052794 0.15147-0.022356 0.043224-0.050438 0.058415-0.18003 0.097386-0.27011 0.081227-0.43075 0.13423-0.5899 0.19462-0.18081 0.068614-0.2598 0.074327-0.31159 0.022538zm3.3544-0.23285c-0.16684-0.047254-0.23783-0.13092-0.18261-0.21521 0.033303-0.050827 0.011719-0.049939 0.33087-0.013611 0.11996 0.013654 0.17065-0.00253 0.17065-0.054479 0-0.062254-0.040446-0.092578-0.15373-0.11526-0.20191-0.04042-0.25068-0.057905-0.31384-0.1125-0.054738-0.047317-0.064312-0.066428-0.064312-0.12837 0-0.14348 0.16799-0.33825 0.37476-0.4345 0.25492-0.11866 0.46987 0.028684 0.33742 0.2313-0.032684 0.049998-0.17643 0.14551-0.219 0.14551-0.043009 0-0.058571-0.044401-0.034262-0.097754 0.026179-0.057456-0.00209-0.056451-0.088064 0.00313-0.058298 0.0404-0.10031 0.10269-0.081761 0.12123 0.00352 0.00352 0.064341 0.018476 0.13517 0.033243 0.15304 0.03191 0.21706 0.06646 0.28972 0.15636 0.046137 0.057081 0.05491 0.084101 0.0599 0.18448 0.00713 0.14343-0.028203 0.21166-0.13885 0.2681-0.092686 0.047285-0.30482 0.061511-0.42207 0.028303zm-4.5223-0.7578c-0.087287-0.087286-0.035202-0.16013 0.15638-0.21872 0.19824-0.060624 0.32758-0.037829 0.32758 0.057732 0 0.062461-0.070589 0.11364-0.22131 0.16046-0.1742 0.05411-0.209 0.054181-0.26265 5.345e-4zm2.6626-1.995c-0.019327-0.019327-0.035139-0.051225-0.035139-0.070886 0-0.061187 0.20773-0.77701 0.36553-1.2596 0.082869-0.25344 0.14574-0.46572 0.13972-0.47175-0.020091-0.020091-0.048942 0.011676-0.22539 0.24816-0.096402 0.1292-0.2366 0.30046-0.31155 0.38058-0.074951 0.08012-0.17064 0.18749-0.21263 0.23861-0.12527 0.15247-0.23639 0.18062-0.29159 0.073883-0.028786-0.055665-0.01758-0.19648 0.046532-0.58477 0.020404-0.12357 0.03232-0.22946 0.026478-0.2353-0.0168-0.0168-0.0602 0.026788-0.17757 0.17834-0.25571 0.33017-0.52831 0.76328-0.64174 1.0196-0.091006 0.20563-0.1287 0.25476-0.19544 0.25476-0.063436 0-0.10361-0.042237-0.10361-0.10893 0-0.091192 0.15626-0.42897 0.30723-0.66413 0.38736-0.60338 0.58039-0.84785 0.7706-0.97594 0.14355-0.096674 0.27135-0.081666 0.31033 0.036443 0.022702 0.068787 0.015122 0.15259-0.037079 0.40995-0.037809 0.1864-0.039969 0.21329-0.017138 0.21329 0.037689 0 0.20795-0.20037 0.41802-0.49195 0.23105-0.3207 0.42504-0.4385 0.55211-0.33527 0.038844 0.031556 0.041325 0.044667 0.039068 0.20644-0.00262 0.18779-0.00984 0.21597-0.18845 0.73498-0.091348 0.26545-0.32764 1.0805-0.32751 1.1296 1.054e-4 0.038982-0.083992 0.10901-0.13091 0.10901-0.024597 0-0.060535-0.015813-0.079862-0.035139zm2.8091-0.11985c-0.023046-0.017603-0.090581-0.061214-0.15008-0.096913-0.059497-0.035699-0.15294-0.11326-0.20765-0.17235-0.054711-0.059094-0.10542-0.10048-0.11268-0.091961s-0.035454 0.06926-0.062649 0.13499c-0.072437 0.17507-0.1146 0.23088-0.17924 0.23723-0.11583 0.011387-0.14129-0.087073-0.065977-0.25521 0.049548-0.11062 0.14347-0.36423 0.26207-0.70768 0.11028-0.31933 0.43177-1.1233 0.46079-1.1524 0.034976-0.034976 0.08658-0.030802 0.12771 0.010333 0.067831 0.067831 0.041135 0.1949-0.12365 0.58858-0.082077 0.19608-0.24531 0.6355-0.24531 0.66037 0 0.029936 0.038781 0.01627 0.25781-0.090845 0.12023-0.0588 0.23001-0.10253 0.24394-0.097185 0.077181 0.029617-0.00867 0.15352-0.1708 0.24651-0.092397 0.052993-0.21788 0.18114-0.24359 0.24877-0.010504 0.027627-0.010872 0.056341-9.558e-4 0.074536 0.031344 0.057513 0.13478 0.14069 0.26499 0.21308 0.14491 0.080566 0.1757 0.11058 0.1757 0.17127 0 0.097618-0.14216 0.14626-0.23043 0.07884zm-1.4865-0.025096c-0.032427-0.041908-0.037818-0.081183-0.02032-0.14803 0.09299-0.35525 0.55818-1.6863 0.65225-1.8663 0.052904-0.10123 0.15807-0.094786 0.18948 0.011612 0.022445 0.076042 0.00721 0.13075-0.14061 0.50496-0.094795 0.23998-0.20638 0.56602-0.38623 1.1285-0.11375 0.35577-0.13471 0.39128-0.23093 0.39128-0.025657 0-0.054296-0.00988-0.063642-0.021962zm-0.65435-0.042751c-0.020396-0.025929-0.034605-0.055578-0.031577-0.065886 0.062723-0.21353 0.16699-0.49737 0.19182-0.52221 0.072076-0.072076 0.17297-0.010884 0.17297 0.10491 0 0.10675-0.11565 0.44444-0.16808 0.4908-0.060034 0.053076-0.11956 0.050333-0.16514-0.00761zm-3.38-0.65263c-0.03792-0.041901-0.037111-0.11347 0.00167-0.14766 0.043232-0.038114 0.33013-0.12201 0.39502-0.11551 0.034295 0.00343 0.066991 0.022983 0.089834 0.053714l0.035914 0.048317-0.035719 0.048317c-0.023873 0.032293-0.078908 0.063974-0.16595 0.095531-0.15709 0.056952-0.27894 0.063519-0.32077 0.017288zm3.7133-0.45982c-0.066369-0.066369-0.024511-0.1757 0.06727-0.1757 0.050288 0 0.10843 0.059776 0.10843 0.11148 0 0.089052-0.11048 0.12943-0.1757 0.064217z" fill="#3a5c93" stroke-width=".01757"/>
 <path transform="scale(.26458)" d="m58.455 35.965c-2.5082 5.9866-8.7551 11.626-13.742 14.674 5.3455-1.9245 9.5539-5.0694 12.408-11 0.53994-1.1219 0.9776-2.3773 1.334-3.6738z" fill="#c5a12f"/>
</svg>
