<svg xmlns="http://www.w3.org/2000/svg" width="64" height="64" viewBox="0 0 16.933 16.933"><defs><linearGradient id="a" x1="15.875" x2="1.058" y1="14.287" y2="14.287" gradientTransform="scale(3.7796)" gradientUnits="userSpaceOnUse"><stop offset="0" stop-color="#c49f2d"/><stop offset=".231" stop-color="#dbc865"/><stop offset=".804" stop-color="#dcc865"/><stop offset="1" stop-color="#caa73d"/></linearGradient><linearGradient id="c" x1="7.937" x2="7.937" y1="15.081" y2="1.852" gradientTransform="translate(0 .008)" gradientUnits="userSpaceOnUse"><stop offset="0" stop-color="#f0e387"/><stop offset=".727" stop-color="#f8f29f"/><stop offset="1" stop-color="#fef296"/></linearGradient><linearGradient id="b" x1="11.661" x2="14.929" y1="10.565" y2="13.057" gradientTransform="scale(3.7796)" gradientUnits="userSpaceOnUse"><stop offset="0" stop-color="#836c3c"/><stop offset="1" stop-color="#edde84"/></linearGradient></defs><g color="#000"><path d="M4.37.53C2.254.53.53 2.312.53 4.496v8.468c0 2.184 1.725 3.968 3.84 3.968h8.194c2.114 0 3.84-1.783 3.84-3.968V4.497c0-2.184-1.726-3.968-3.84-3.968zm.256.52h7.681c1.844 0 3.33 1.534 3.33 3.44v7.937c0 1.906-1.485 3.44-3.33 3.44h-7.68c-1.845 0-3.33-1.534-3.33-3.44V4.49c0-1.906 1.485-3.44 3.33-3.44" opacity=".01" style="font-feature-settings:normal;font-variant-alternates:normal;font-variant-caps:normal;font-variant-east-asian:normal;font-variant-ligatures:normal;font-variant-numeric:normal;font-variant-position:normal;font-variation-settings:normal;inline-size:0;isolation:auto;mix-blend-mode:normal;shape-margin:0;shape-padding:0;text-decoration-color:#000;text-decoration-line:none;text-decoration-style:solid;text-indent:0;text-orientation:mixed;text-transform:none;white-space:normal"/><path d="M4.359.794C2.392.794.795 2.447.795 4.48v8.5c0 2.035 1.597 3.688 3.564 3.688h8.216c1.967 0 3.564-1.653 3.564-3.688v-8.5c0-2.034-1.597-3.687-3.564-3.687zm.272.256h7.672c1.842 0 3.325 1.534 3.325 3.44v7.937c0 1.906-1.483 3.44-3.325 3.44H4.63c-1.842 0-3.325-1.534-3.325-3.44V4.49c0-1.906 1.483-3.44 3.325-3.44" opacity=".01" style="font-feature-settings:normal;font-variant-alternates:normal;font-variant-caps:normal;font-variant-east-asian:normal;font-variant-ligatures:normal;font-variant-numeric:normal;font-variant-position:normal;font-variation-settings:normal;inline-size:0;isolation:auto;mix-blend-mode:normal;shape-margin:0;shape-padding:0;text-decoration-color:#000;text-decoration-line:none;text-decoration-style:solid;text-indent:0;text-orientation:mixed;text-transform:none;white-space:normal"/><path d="M4.31 1.058c-1.866 0-3.375 1.539-3.375 3.44v8.467c0 1.9 1.509 3.439 3.375 3.439h8.312c1.865 0 3.375-1.538 3.375-3.44V4.498c0-1.9-1.51-3.439-3.375-3.439h-.097c1.794.087 3.214 1.582 3.214 3.432v7.937c0 1.906-1.506 3.44-3.377 3.44h-7.79c-1.871 0-3.377-1.534-3.377-3.44V4.49c0-1.85 1.42-3.345 3.214-3.432z" opacity=".03" style="font-feature-settings:normal;font-variant-alternates:normal;font-variant-caps:normal;font-variant-east-asian:normal;font-variant-ligatures:normal;font-variant-numeric:normal;font-variant-position:normal;font-variation-settings:normal;inline-size:0;isolation:auto;mix-blend-mode:normal;shape-margin:0;shape-padding:0;text-decoration-color:#000;text-decoration-line:none;text-decoration-style:solid;text-indent:0;text-orientation:mixed;text-transform:none;white-space:normal"/><path d="M4 46.969V49c0 6.648 5.352 12 12 12h32c6.648 0 12-5.352 12-12v-1.992a12.97 12.97 0 0 1-13 12.963H17.002A12.973 12.973 0 0 1 4 46.969" opacity=".03" style="font-feature-settings:normal;font-variant-alternates:normal;font-variant-caps:normal;font-variant-east-asian:normal;font-variant-ligatures:normal;font-variant-numeric:normal;font-variant-position:normal;font-variation-settings:normal;inline-size:0;isolation:auto;mix-blend-mode:normal;shape-margin:0;shape-padding:0;text-decoration-color:#000;text-decoration-line:none;text-decoration-style:solid;text-indent:0;text-orientation:mixed;text-transform:none;white-space:normal" transform="scale(.26458)"/><path d="M1.058 11.906v.592c0 1.939 1.416 3.5 3.175 3.5H12.7c1.759 0 3.175-1.561 3.175-3.5v-.58c-.006 2.095-1.538 3.78-3.44 3.78H4.498c-1.905 0-3.44-1.692-3.44-3.792" opacity=".05" style="font-feature-settings:normal;font-variant-alternates:normal;font-variant-caps:normal;font-variant-east-asian:normal;font-variant-ligatures:normal;font-variant-numeric:normal;font-variant-position:normal;font-variation-settings:normal;inline-size:0;isolation:auto;mix-blend-mode:normal;shape-margin:0;shape-padding:0;text-decoration-color:#000;text-decoration-line:none;text-decoration-style:solid;text-indent:0;text-orientation:mixed;text-transform:none;white-space:normal"/></g><path fill="url(#a)" d="M60 24s-.012 9.68-2.879 15.637c-3.655 7.595-9.524 10.631-17.17 12.371-7.417 1.688-22.01 1.447-22.01 1.447-7.204.25-13.92-5.219-13.94-12.422v5.936A12.973 12.973 0 0 0 17.001 59.97H47a12.973 12.973 0 0 0 13.002-13.002z" transform="scale(.26458)"/><path fill="url(#b)" d="M60 24s-.012 9.68-2.879 15.637c-3.655 7.595-9.524 10.631-17.17 12.371-7.417 1.688-22.01 1.447-22.01 1.447-7.082.246-13.679-5.04-13.92-12.062A12.99 12.99 0 0 0 17.031 54h29.94C54.188 54 60 48.188 60 40.97z" transform="scale(.26458)"/><path fill="url(#c)" d="M4.506 1.058h7.921a3.42 3.42 0 0 1 3.448 3.448V6.35s-.004 2.561-.762 4.137c-.967 2.01-2.52 2.813-4.543 3.273-1.962.447-5.823.383-5.823.383-1.91.067-3.69-1.385-3.69-3.295V4.506a3.44 3.44 0 0 1 3.449-3.448z"/><path fill="#3a5c93" d="M5.19 11.831a.4.4 0 0 0-.108-.026c-.054 0-.13-.066-.13-.113 0-.023.023-.095.051-.162.096-.226.42-1.262.402-1.281-.005-.005-.029 0-.054.012-.065.03-.127.007-.153-.055-.019-.046-.017-.064.01-.124.039-.086.102-.142.241-.212.228-.115.575-.158.693-.086.084.051.118.129.118.273 0 .15-.033.224-.15.345a1 1 0 0 0-.086.097c0 .005.039.044.086.086.126.113.168.222.166.42a.65.65 0 0 1-.156.455c-.223.283-.675.463-.93.371m.44-.296a.9.9 0 0 0 .342-.284.6.6 0 0 0 .06-.327.3.3 0 0 0-.15-.2.8.8 0 0 0-.185-.045c-.158-.022-.146-.032-.21.177-.024.083-.085.274-.134.425-.079.24-.087.28-.066.306.038.045.188.022.344-.052m.136-1.182c.162-.082.274-.224.25-.319-.01-.043-.014-.043-.138-.033-.07.006-.152.02-.185.031-.052.018-.056.025-.044.067a.45.45 0 0 1 0 .217c-.014.06-.012.066.023.066.02 0 .063-.013.094-.029M6.4 11.69c-.06-.092-.02-.395.078-.576.105-.193.392-.433.597-.497.085-.027.097-.027.152-.001.032.015.062.042.067.06.017.066-.018.106-.157.178-.184.096-.323.2-.39.295-.047.065-.058.1-.074.24-.028.248-.08.347-.184.347-.044 0-.066-.012-.089-.046m1.136-.04c-.38-.083-.389-.516-.02-.88.35-.345.763-.373.806-.056l.01.073.1-.094c.12-.11.2-.152.296-.152.08 0 .244.077.256.121.018.062.048.25.073.465.014.124.034.24.043.258.05.092-.013.228-.104.228a.2.2 0 0 1-.093-.035c-.044-.034-.044-.034-.112.002-.096.05-.338.04-.444-.02-.157-.089-.215-.27-.153-.482a.3.3 0 0 0 .021-.11.6.6 0 0 0-.137.08c-.175.118-.368.212-.463.225a.3.3 0 0 0-.106.031c-.025.019-.025.025.005.062.043.052.185.068.34.037.127-.025.17-.014.186.047.015.06-.023.126-.096.168-.064.038-.3.056-.408.032m1.23-.306c.045-.016.06-.031.058-.057l-.015-.223c-.008-.12-.02-.196-.035-.208-.013-.01-.019-.03-.014-.044q.01-.025-.03-.025c-.056 0-.219.171-.272.287-.042.089-.055.195-.03.233.041.06.216.079.338.037m-1.004-.39c.13-.069.286-.182.297-.215.024-.074-.212.034-.361.164-.146.128-.12.148.064.051m1.743.606a.5.5 0 0 1-.267-.242c-.069-.143-.024-.38.111-.595.121-.192.284-.292.48-.295l.122-.001.064-.21c.096-.314.26-.785.282-.812.01-.013.046-.023.078-.023.07 0 .113.05.113.13 0 .03-.06.232-.133.45-.19.566-.236.766-.287 1.216-.033.29-.054.347-.128.347a.3.3 0 0 0-.102.035c-.087.045-.208.045-.333 0m.301-.29c.007-.038.026-.173.042-.298l.038-.286c.008-.05.004-.057-.034-.057-.055 0-.185.083-.25.16a.73.73 0 0 0-.146.331c-.006.064 0 .09.032.13q.08.101.227.095c.078-.004.08-.006.091-.075m-5.725-.218c-.1-.043-.087-.178.018-.21a.8.8 0 0 1 .319-.02.113.113 0 0 1-.002.212.9.9 0 0 1-.335.018m2.354-1.83c-.095-.028-.199-.189-.199-.31a.6.6 0 0 1 .1-.268c.06-.073.122-.068.115.008-.016.187-.012.235.02.27.037.041.13.05.187.02.044-.023.113-.143.159-.273.05-.144.122-.466.122-.546v-.066l-.071.07c-.068.065-.077.069-.18.068-.139-.001-.261-.054-.312-.134-.03-.05-.035-.08-.03-.186.014-.238.189-.509.39-.604a.37.37 0 0 1 .297-.032c.055.016.073.032.093.084a.2.2 0 0 0 .076.094c.03.017.054.049.06.08.013.054-.07.64-.13.934-.073.35-.164.552-.313.692a.37.37 0 0 1-.384.099m.404-1.267a.2.2 0 0 1 .086-.017c.043.003.048-.003.058-.08.006-.046.023-.151.036-.233.032-.19.034-.176-.023-.176a.34.34 0 0 0-.24.1c-.08.08-.168.255-.168.334 0 .048.007.059.048.068l.066.016a.2.2 0 0 0 .137-.012m.577 1.25a.26.26 0 0 1-.208-.283c.01-.11.08-.252.126-.252.03 0 .036.012.037.088.002.106.03.163.09.186q.129.048.224-.142a1.7 1.7 0 0 0 .136-.615c.005-.094.004-.097-.039-.09-.312.042-.474-.048-.474-.265 0-.24.188-.532.42-.65.111-.057.295-.03.325.049a.2.2 0 0 1 0 .089c-.007.035-.003.069.01.083.05.062.053.143.018.564-.02.232-.048.493-.063.58-.078.453-.325.723-.602.658m.33-1.373c.054-.022.102-.042.106-.045a.6.6 0 0 0 .021-.124 2 2 0 0 1 .024-.164c.01-.042.006-.047-.054-.058s-.072-.006-.134.054c-.111.11-.192.315-.143.364q.033.031.18-.027m-2.583.441a.11.11 0 0 1-.032-.092.3.3 0 0 0-.008-.101c-.022-.075.471-1.552.547-1.637a.1.1 0 0 1 .068-.03c.047 0 .112.056.112.096 0 .015.011.032.025.037s.184-.058.379-.141c.21-.09.377-.151.412-.151.118 0 .154.108.064.19a1 1 0 0 1-.206.108c-.187.073-.696.304-.753.342-.053.034-.214.499-.178.513a.3.3 0 0 0 .117-.029q.245-.096.245.056c0 .109-.196.205-.368.182l-.085-.012-.061.19a.7.7 0 0 0-.049.205c.008.008.153-.03.323-.084.339-.109.41-.125.477-.108.063.016.087.085.053.152-.023.043-.05.058-.18.097-.27.081-.431.134-.59.195-.181.068-.26.074-.312.022m3.355-.233c-.167-.047-.238-.13-.183-.215.033-.05.012-.05.33-.013.12.013.172-.003.172-.055 0-.062-.04-.092-.154-.115-.202-.04-.25-.058-.314-.113-.055-.047-.064-.066-.064-.128 0-.143.168-.338.374-.434.255-.12.47.028.338.23-.033.05-.177.146-.22.146-.042 0-.058-.044-.033-.097q.04-.087-.088.003c-.059.04-.1.102-.082.121.003.003.064.018.135.033.153.032.217.067.29.157.046.057.055.084.06.184.007.143-.029.212-.14.268a.74.74 0 0 1-.421.028m-4.523-.757q-.13-.131.157-.219c.198-.06.327-.038.327.058 0 .062-.07.113-.221.16-.174.054-.209.054-.263 0m2.663-1.995a.12.12 0 0 1-.035-.071c0-.061.208-.777.365-1.26.083-.253.146-.466.14-.472-.02-.02-.049.012-.225.249-.097.129-.237.3-.312.38a6 6 0 0 0-.212.239c-.126.152-.237.18-.292.074-.029-.056-.018-.197.046-.585.02-.124.033-.23.027-.235-.017-.017-.06.026-.178.178-.255.33-.528.763-.641 1.02-.091.205-.13.254-.196.254-.063 0-.103-.042-.103-.109 0-.09.156-.429.307-.664.387-.603.58-.848.77-.976.144-.096.272-.081.31.037.023.069.016.152-.036.41-.038.186-.04.213-.017.213.037 0 .207-.2.418-.492.23-.32.425-.438.552-.335.038.031.041.044.039.206-.003.188-.01.216-.189.735-.091.266-.327 1.08-.327 1.13 0 .039-.084.109-.131.109a.13.13 0 0 1-.08-.035m2.81-.12a2 2 0 0 0-.151-.097 1.2 1.2 0 0 1-.208-.172c-.054-.06-.105-.1-.112-.092s-.036.069-.063.135c-.072.175-.115.23-.18.237-.115.011-.14-.087-.065-.255.05-.111.143-.365.262-.708.11-.32.432-1.123.46-1.152.036-.035.087-.031.128.01.068.068.041.195-.123.588a9 9 0 0 0-.246.66c0 .03.04.017.258-.09.12-.059.23-.103.244-.097.077.03-.009.153-.17.246a.7.7 0 0 0-.244.25c-.01.027-.011.055-.001.074.031.057.135.14.265.213.145.08.175.11.175.171 0 .098-.142.146-.23.079M7.98 5.142c-.033-.042-.038-.081-.02-.148.092-.356.557-1.687.651-1.867.053-.1.159-.094.19.012.022.076.007.13-.14.505-.095.24-.207.566-.387 1.128-.114.356-.135.392-.23.392-.026 0-.055-.01-.064-.022m-.655-.043c-.02-.026-.034-.056-.031-.066.062-.213.167-.497.191-.522.073-.072.173-.011.173.105 0 .107-.115.444-.168.49-.06.054-.12.05-.165-.007m-3.38-.653c-.038-.042-.037-.113.002-.147.043-.038.33-.122.395-.116a.13.13 0 0 1 .09.054l.036.048-.036.049q-.036.048-.166.095c-.157.057-.279.064-.32.017m3.714-.46c-.067-.066-.025-.175.067-.175.05 0 .108.06.108.111 0 .09-.11.13-.175.065"/><path fill="#c5a12f" d="M15.466 9.516c-.664 1.584-2.316 3.076-3.636 3.882 1.414-.51 2.528-1.341 3.283-2.91.143-.297.259-.63.353-.972"/></svg>