<svg width="24" height="24" version="1.1" viewBox="0 0 24 24" xmlns="http://www.w3.org/2000/svg">
 <defs>
  <style id="current-color-scheme" type="text/css">.ColorScheme-Text {
        color:#363636;
      }</style>
 </defs>
 <path class="ColorScheme-Text" d="m6.1348 7.3321c-0.68148 0-1.2461 0.56266-1.2461 1.2441v7.6445h-0.88867v0.44531c0 0.75556 0.57843 1.334 1.334 1.334h13.332c0.75556 0 1.334-0.57843 1.334-1.334v-0.44531h-0.8457v-7.6445a0.44449 0.44449 0 0 0-2e-3 -0.042969c-0.06541-0.65462-0.60558-1.2012-1.2871-1.2012zm0 0.88867h11.73c0.20524 0 0.37417 0.16413 0.40039 0.39453v7.6055h-12.488v-7.6445c0-0.20741 0.15001-0.35547 0.35742-0.35547z" color="#363636" fill="currentColor"/>
</svg>
