<svg width="24" height="24" version="1.1" xmlns="http://www.w3.org/2000/svg">
 <defs>
  <style id="current-color-scheme" type="text/css">.ColorScheme-Text { color:#363636; } .ColorScheme-Highlight { color:#5294e2; }</style>
 </defs>
 <path class="ColorScheme-Text" d="m8 4v4c-1.108 0-2 0.892-2 2v4c0 3.324 2.676 6 6 6s6-2.676 6-6v-4c0-1.108-0.892-2-2-2v-4zm1 1h6v3h-6zm1 1v1h1v-1zm3 0v1h1v-1zm-5 3h8c0.554 0 1 0.446 1 1v4c0 2.77-2.23 5-5 5s-5-2.23-5-5v-4c0-0.554 0.446-1 1-1z" fill="currentColor"/>
</svg>
