<svg width="24" height="24" version="1.1" viewBox="0 0 24 24" xmlns="http://www.w3.org/2000/svg">
 <defs>
  <style id="current-color-scheme" type="text/css">.ColorScheme-Text {
        color:#363636;
      }</style>
 </defs>
 <path class="ColorScheme-Text" d="m12 5c-3.878 0-7 3.122-7 7s3.122 7 7 7 7-3.122 7-7-3.122-7-7-7zm3.8025 4.8125c0.04329 0 0.09 3e-3 0.13843 0.0085h0.0018c0.65684 0.05554 1.1217 0.27851 1.3809 0.66309 0.2881 0.42744 0.24794 0.94902 0.19824 1.2219-0.0045 0.02462-0.02491 0.04348-0.04956 0.04785-0.02474 0.0044-0.04885-0.0058-0.06152-0.02734-0.05163-0.088-0.13834-0.22178-0.26324-0.35547-0.303-0.32429-0.68056-0.4956-1.0903-0.4956-0.03409 0-0.06937 0.0011-0.10425 0.0034v2.4233c0 0.44919-0.33674 0.81804-0.80151 0.87671-0.04215 0.0053-0.08436 0.0086-0.12646 0.0086-0.44837 0-0.82596-0.30367-0.87671-0.70581-0.02735-0.21663 0.04072-0.43208 0.19141-0.60671 0.15067-0.17463 0.36627-0.28753 0.60669-0.31787 0.13796-0.01743 0.27821-0.0051 0.40845 0.03418v-2.4712c-4.4e-5 -0.14199 0.11657-0.30767 0.44771-0.30767zm-6.3933 0.0085c0.25985-0.03191 0.53181 0.02235 0.72632 0.17431 0.38901 0.30392 0.47312 0.99698 0.16919 1.386l-0.20166 0.25982-1.6218 2.0747c-0.40524 0.51868-1.3287 0.63253-1.8474 0.2273-0.51868-0.40524-0.63253-1.3287-0.2273-1.8474l1.6218-2.0747 0.25806 0.20166-1.6201 2.0747c-0.30393 0.38901-0.21981 1.0821 0.16919 1.386 0.38901 0.30392 1.0821 0.21982 1.386-0.16919l1.6218-2.0747 0.20166-0.25976c0.20262-0.25934 0.14654-0.72194-0.11279-0.92456-0.25934-0.20262-0.72194-0.14484-0.92456 0.1145l-0.20166 0.25806-1.2168 1.5569-0.20166 0.25976c-0.10131 0.12967-0.073271 0.36012 0.056397 0.46143 0.12967 0.1013 0.36012 0.07327 0.46143-0.05639l1.4185-1.8167 0.25977 0.20337-1.4185 1.8149c-0.20262 0.25934-0.66352 0.31712-0.92285 0.1145-0.25934-0.20262-0.31712-0.66522-0.1145-0.92456l0.20337-0.25976 1.4185-1.8149c0.15196-0.1945 0.39982-0.31331 0.65967-0.34522zm2.5908 1.304c0.48475 0 0.875 0.39025 0.875 0.875s-0.39025 0.875-0.875 0.875-0.875-0.39025-0.875-0.875 0.39025-0.875 0.875-0.875z" color="#363636" fill="currentColor"/>
</svg>
