<svg width="24" height="24" version="1.1" viewBox="0 0 24 24" xmlns="http://www.w3.org/2000/svg">
 <defs>
  <style id="current-color-scheme" type="text/css">.ColorScheme-Text {
        color:#363636;
      }</style>
 </defs>
 <path class="ColorScheme-Text" d="m12 4c-4.3975 0-8 3.7678-8 8.3672 0 3.3958 1.9475 6.3241 4.7003 7.6328l0.38842-0.89648c-2.4233-1.1521-4.1475-3.7342-4.1475-6.7363 0-4.0625 3.1746-7.3828 7.0588-7.3828s7.0588 3.3203 7.0588 7.3828c0 2.9079-1.6359 5.4459-3.972 6.6445l0.41456 0.88281c2.6518-1.3606 4.4986-4.2341 4.4986-7.5273 0-4.5994-3.6025-8.3672-8-8.3672zm0 2.4609c-3.1224 0-5.6471 2.6406-5.6471 5.9063 0 2.4115 1.3862 4.4563 3.3371 5.3691l0.38469-0.89648c-1.6253-0.7605-2.7806-2.4548-2.7806-4.4727 0-2.7386 2.0875-4.9219 4.7059-4.9219s4.7059 2.1833 4.7059 4.9219c0 1.9255-1.0718 3.6249-2.6536 4.4297l0.4127 0.88477c1.9003-0.96692 3.1821-3.0074 3.1821-5.3145 0-3.2657-2.5247-5.9063-5.6471-5.9063zm0 2.4609c-1.8095 0-3.2941 1.5528-3.2941 3.4453 0 1.4141 0.77061 2.6373 1.9328 3.1582l0.36975-0.9043c-0.81416-0.36494-1.3613-1.2073-1.3613-2.2539 0-1.3557 1.0568-2.4609 2.3529-2.4609s2.3529 1.1053 2.3529 2.4609c0 0.98977-0.5456 1.8009-1.3408 2.2168l0.42204 0.88086c1.087-0.56845 1.8599-1.7251 1.8599-3.0977 0-1.8925-1.4846-3.4453-3.2941-3.4453zm0 2.4609a0.94111 0.9843 0 0 0-0.94118 0.98438 0.94111 0.9843 0 0 0 0.94118 0.98437 0.94111 0.9843 0 0 0 0.94118-0.98437 0.94111 0.9843 0 0 0-0.94118-0.98438z" color="#363636" fill="currentColor"/>
</svg>
