<svg width="24" height="24" version="1.1" viewBox="0 0 24 24" xmlns="http://www.w3.org/2000/svg">
 <defs>
  <style id="current-color-scheme" type="text/css">.ColorScheme-Text {
        color:#363636;
      }</style>
 </defs>
 <path class="ColorScheme-Text" d="m12 4.0001c-0.10273 0-0.20574 0.03211-0.29299 0.09571-0.83327 0.60661-3.366 2.2646-6.4691 2.5548-0.37342 0.03426-0.66148 0.34374-0.66801 0.71879-0.037505 2.4476 0.3563 10.757 7.2426 12.606 0.1223 0.03261 0.25077 0.03261 0.37307 0 6.8863-1.8475 7.2804-10.159 7.2446-12.606-0.0049-0.37505-0.2946-0.68453-0.66801-0.71879-3.1032-0.29026-5.6362-1.9482-6.4711-2.5548-0.08724-0.063597-0.1883-0.09571-0.29103-0.09571zm0 5.5003c0.84116 0 1.5235 0.68242 1.5235 1.5235 0 0.43375-0.18166 0.82409-0.47268 1.1016l0.40823 2.1622c0.02214 0.11802-0.05832 0.2129-0.17774 0.2129h-2.5334c-0.11943 0-0.19989-0.0959-0.17774-0.2129l0.40432-2.1388c-0.30542-0.27855-0.49808-0.67926-0.49808-1.1251 0-0.8411 0.68236-1.5235 1.5235-1.5235z" color="#363636" fill="currentColor"/>
</svg>
