<svg width="24" height="24" version="1.1" viewBox="0 0 24 24" xmlns="http://www.w3.org/2000/svg">
 <defs>
  <style id="current-color-scheme" type="text/css">.ColorScheme-Text {
        color:#363636;
      }</style>
 </defs>
 <path d="m6.8418 5.0002c-0.46498 0-0.8418 0.37878-0.8418 0.84375v12.312c0 0.465 0.37682 0.84375 0.8418 0.84375h9.3164c0.46498 0 0.8418-0.37875 0.8418-0.84375v-12.312c0-0.46512-0.37682-0.84375-0.8418-0.84375zm4.6582 12a0.5 0.5 0 0 1 0.5 0.5 0.5 0.5 0 0 1-0.5 0.5 0.5 0.5 0 0 1-0.5-0.5 0.5 0.5 0 0 1 0.5-0.5z" color="#363636" fill="currentColor"/>
</svg>
