<svg fill="none" version="1.1" viewBox="0 0 22 22" xmlns="http://www.w3.org/2000/svg">
 <defs>
  <style id="current-color-scheme" type="text/css">.ColorScheme-Text { color: #363636; }</style>
 </defs>
 <path class="ColorScheme-Text" d="m5 3c-1.662 0-3 1.338-3 3v10c0 1.662 1.338 3 3 3h12c1.662 0 3-1.338 3-3v-10c0-1.662-1.338-3-3-3h-12zm0 1h12c1.108 0 2 0.892 2 2v10c0 1.108-0.892 2-2 2h-12c-1.108 0-2-0.892-2-2v-10c0-1.108 0.892-2 2-2zm5.6699 3-1.6699 4-1.125 3 0.125-1.5v-2.5h-2.5v1h1.5v4h1.5508l2.7793-7h5.1699v-1h-5.8301zm3.3301 2c-1 0-2 0.5-2 1.5h1c0-0.5 0.5-0.59961 1-0.59961s1 0.099609 1 0.59961c0 0.732-0.80227 1.1962-1.8223 1.7852-0.373 0.215-0.77573 0.44684-1.1777 0.71484v1h4v-0.90039h-2l-1 0.09961s3-0.84922 3-2.6992c0-1.1-1-1.5-2-1.5z" fill="currentColor"/>
</svg>
