<svg width="22" height="22" version="1.1" xmlns="http://www.w3.org/2000/svg">
 <style id="current-color-scheme" type="text/css">.ColorScheme-Text {
        color:#363636;
      }</style>
 <path class="ColorScheme-Text" d="m9 3c-0.554 0-1 0.446-1 1v8c0 0.554 0.446 1 1 1h8c0.554 0 1-0.446 1-1v-8c0-0.554-0.446-1-1-1zm4.314 1.5c0.129-1e-3 0.259 0.041 0.327 0.152 0.052 0.308 0.157 0.612 0.326 0.881 0.168 0.35 0.49 0.609 0.736 0.91 0.696 0.85 0.655 2.118 0.01 2.983-0.06 0.066-0.116 0.207-0.223 0.178-0.04-0.02-0.095-0.07-0.07-0.122 0.185-0.425 0.317-0.892 0.31-1.359 0.012-0.646-0.487-1.195-1.043-1.488v3.335c0 0.749-0.386 1.328-1.054 1.486-0.59 0.18-1.308-0.215-1.38-0.818-0.05-0.645 0.503-1.205 1.122-1.37 0.206-0.06 0.442-0.077 0.625-0.039v-4.209c-0.031-0.215 0.017-0.537 0.314-0.52zm-8.814 3.5c-0.277 0-0.5 0.223-0.5 0.5v10c0 0.277 0.223 0.5 0.5 0.5h9c0.277 0 0.5-0.223 0.5-0.5v-4.5h-3v4h-4v-4h2a1.99 1.99 0 0 1-1.725-1h-0.275v-5zm0.5 1h1v1h-1zm0 2h1v1h-1zm0 2h1v1h-1zm0 2h1v1h-1zm7 0h1v1h-1zm-7 2h1v1h-1zm7 0h1v1h-1z" fill="currentColor"/>
</svg>
