<svg width="22" height="22" version="1.1" xmlns="http://www.w3.org/2000/svg">
 <style id="current-color-scheme" type="text/css">.ColorScheme-Text {
        color:#363636;
      }</style>
 <path class="ColorScheme-Text" d="m10.229 4.084-4.006 3a0.5 0.5 0 0 0 0.277 0.916h0.5v2h-3.5c-0.277 0-0.5 0.223-0.5 0.5v6c0 0.277 0.223 0.5 0.5 0.5h5c0.277 0 0.5-0.223 0.5-0.5v-2.5s0-1 1-1h1c1 0 1 1 1 1v2.5c0 0.277 0.223 0.5 0.5 0.5h5c0.277 0 0.5-0.223 0.5-0.5v-6c0-0.277-0.223-0.5-0.5-0.5h-3.5v-2h0.5a0.5 0.5 0 0 0 0.277-0.916l-3.994-3a0.5 0.5 0 0 0-0.555 0zm-1.979 3.916h0.5a0.25 0.25 0 0 1 0.25 0.25v1.5a0.25 0.25 0 0 1-0.25 0.25h-0.5a0.25 0.25 0 0 1-0.25-0.25v-1.5a0.25 0.25 0 0 1 0.25-0.25zm2 0h0.5a0.25 0.25 0 0 1 0.25 0.25v1.5a0.25 0.25 0 0 1-0.25 0.25h-0.5a0.25 0.25 0 0 1-0.25-0.25v-1.5a0.25 0.25 0 0 1 0.25-0.25zm2 0h0.5a0.25 0.25 0 0 1 0.25 0.25v1.5a0.25 0.25 0 0 1-0.25 0.25h-0.5a0.25 0.25 0 0 1-0.25-0.25v-1.5a0.25 0.25 0 0 1 0.25-0.25zm-8 3h0.5a0.25 0.25 0 0 1 0.25 0.25v1.5a0.25 0.25 0 0 1-0.25 0.25h-0.5a0.25 0.25 0 0 1-0.25-0.25v-1.5a0.25 0.25 0 0 1 0.25-0.25zm2 0h0.5a0.25 0.25 0 0 1 0.25 0.25v1.5a0.25 0.25 0 0 1-0.25 0.25h-0.5a0.25 0.25 0 0 1-0.25-0.25v-1.5a0.25 0.25 0 0 1 0.25-0.25zm8 0h0.5a0.25 0.25 0 0 1 0.25 0.25v1.5a0.25 0.25 0 0 1-0.25 0.25h-0.5a0.25 0.25 0 0 1-0.25-0.25v-1.5a0.25 0.25 0 0 1 0.25-0.25zm2 0h0.5a0.25 0.25 0 0 1 0.25 0.25v1.5a0.25 0.25 0 0 1-0.25 0.25h-0.5a0.25 0.25 0 0 1-0.25-0.25v-1.5a0.25 0.25 0 0 1 0.25-0.25zm-12 3h0.5a0.25 0.25 0 0 1 0.25 0.25v1.5a0.25 0.25 0 0 1-0.25 0.25h-0.5a0.25 0.25 0 0 1-0.25-0.25v-1.5a0.25 0.25 0 0 1 0.25-0.25zm2 0h0.5a0.25 0.25 0 0 1 0.25 0.25v1.5a0.25 0.25 0 0 1-0.25 0.25h-0.5a0.25 0.25 0 0 1-0.25-0.25v-1.5a0.25 0.25 0 0 1 0.25-0.25zm8 0h0.5a0.25 0.25 0 0 1 0.25 0.25v1.5a0.25 0.25 0 0 1-0.25 0.25h-0.5a0.25 0.25 0 0 1-0.25-0.25v-1.5a0.25 0.25 0 0 1 0.25-0.25zm2 0h0.5a0.25 0.25 0 0 1 0.25 0.25v1.5a0.25 0.25 0 0 1-0.25 0.25h-0.5a0.25 0.25 0 0 1-0.25-0.25v-1.5a0.25 0.25 0 0 1 0.25-0.25z" fill="currentColor"/>
</svg>
