<svg width="22" height="22" version="1.1" xmlns="http://www.w3.org/2000/svg">
 <style id="current-color-scheme" type="text/css">.ColorScheme-Text {
        color:#363636;
      }</style>
 <path class="ColorScheme-Text" d="m16.436 4.1704c-1.1259-1.0231-3.1298-1.4062-5.806-0.964-0.51797 0.085164-0.57158 0.80897-0.07181 0.96951 0 0 1.1568 0.38988 1.9376 1.0261 0.3904 0.31813 0.65388 0.67428 0.70991 1.0137 0.05599 0.33943-0.03552 0.74538-0.62151 1.3314l-2.0661 2.0661-0.38532-0.38532c-0.39174-0.39174-1.0225-0.39174-1.4142 0l-5.6568 5.6568c-0.39174 0.39174-0.39174 1.0225 0 1.4142l2.8284 2.8284c0.39174 0.39174 1.0225 0.39174 1.4142 0l5.6568-5.6568c0.39174-0.39174 0.39174-1.0225 0-1.4142l-0.45023-0.45023 2.2014-2.2014c0.08809-0.084414 0.37066-0.28229 0.63391-0.34941 0.21664-0.055232 0.39749 0.013011 0.598 0.15606l0.05248 0.94465c7e-3 0.12296 0.05912 0.23902 0.14639 0.32593l0.964 0.964c0.19527 0.19523 0.51183 0.19523 0.70711 0l2.5715-2.5715c0.19523-0.19527 0.19523-0.51183 0-0.70711l-0.964-0.964c-0.070744-0.071016-0.16121-0.11913-0.25964-0.13811l-0.8604-0.16711c-0.075208-0.15234-0.19303-0.40256-0.48061-0.88941-0.36246-0.61361-0.83484-1.3381-1.3852-1.8382zm-0.67259 0.73887c0.39264 0.35678 0.85805 1.0345 1.1974 1.609 0.33935 0.57449 0.56212 1.0427 0.56212 1.0427 0.06879 0.14324 0.20157 0.24526 0.3577 0.27484l0.94189 0.1823 0.50271 0.50271-1.8644 1.8644-0.47647-0.47647-0.058-1.0441c-7e-3 -0.12296-0.05912-0.23902-0.14639-0.32593-0.50766-0.50766-1.1812-0.58003-1.6794-0.45298-0.49814 0.12705-0.86147 0.38725-1.08 0.59659-0.0028 0.00273-0.0056 0.00549-0.0083 0.00829l-2.2083 2.2083-0.57867-0.57867 2.0661-2.0661c0.72988-0.72988 1.0165-1.5049 0.90187-2.2001-0.11469-0.69521-0.57107-1.2234-1.0662-1.6269-0.21865-0.17818-0.27055-0.12694-0.49995-0.26516 1.4325 0.024275 2.5985 0.25845 3.1364 0.74713zm-6.3377 5.0257 2.8284 2.8284-5.6568 5.6568-2.8284-2.8284z" fill="currentColor"/>
</svg>
