<svg width="22" height="22" version="1.1" viewBox="0 0 22 22" xmlns="http://www.w3.org/2000/svg">
 <style id="current-color-scheme" type="text/css">.ColorScheme-Text { color:#363636; }</style>
 <path class="ColorScheme-Text" d="m2.5996 5a0.50005 0.50005 0 0 0-0.45508 0.70508l5.4082 12a0.50005 0.50005 0 0 0 0.91211 0l1.8574-4.1328 0.6875-1.5312 0.54492-1.2148 1.084-2.4121 1.084-2.4141h4.9043l-4.6055 10.281-1.9844-4.3887-0.54688 1.2129 2.0801 4.5996a0.50005 0.50005 0 0 0 0.91016 0l5.375-12a0.50005 0.50005 0 0 0-0.45508-0.70508h-6a0.50005 0.50005 0 0 0-0.45703 0.29492l-1.7305 3.8516-0.20703 0.46094v0.0019531l-0.54688 1.2148-1.2266 2.7285-1.2246 2.7285-4.6328-10.281h4.9023l1.666 3.6836 0.53125-1.248-1.4199-3.1406a0.50005 0.50005 0 0 0-0.45508-0.29492h-6z" fill="currentColor"/>
</svg>
