<svg width="16" height="16" version="1.1" xmlns="http://www.w3.org/2000/svg">
 <path class="ColorScheme-Text" d="m10.248 0.36014c-0.051289-0.039868-0.11079-0.068871-0.17768-0.086795-0.26756-0.071692-0.54013 0.085109-0.61182 0.35267l-0.13648 0.50983a7 7 0 0 0-1.2795-0.12756c-0.014799-0.0013-0.02721-0.008666-0.042357-0.008668-0.015497 1.7e-6 -0.028275 0.007404-0.043403 0.00877a7 7 0 0 0-1.2789 0.12538l-0.13583-0.50692c-0.071693-0.26756-0.34474-0.42521-0.61231-0.35352-0.26756 0.071693-0.42521 0.34474-0.35352 0.61231l0.13511 0.50425a7 7 0 0 0-1.2116 0.5477 7 7 0 0 0-1.0808 0.77426l-0.36901-0.36867c-0.19587-0.19587-0.51032-0.19538-0.70619 4.923e-4 -0.19587 0.19587-0.19538 0.51032 4.923e-4 0.70619l0.36973 0.37133a7 7 0 0 0-1.3249 2.291l-0.50378-0.13524c-0.26756-0.071692-0.54013 0.085109-0.61182 0.35267-0.071692 0.26756 0.085109 0.54013 0.35267 0.61182l0.50983 0.13648a7 7 0 0 0-0.00209 2.6442l-0.50692 0.13583c-0.26756 0.071693-0.42521 0.34474-0.35352 0.61231 0.071693 0.26756 0.34474 0.42521 0.61231 0.35352l0.50425-0.13512a7 7 0 0 0 0.5477 1.2116 7 7 0 0 0 0.77426 1.0808l-0.36867 0.36901c-0.19587 0.19587-0.19538 0.51032 4.923e-4 0.70619 0.19587 0.19586 0.51032 0.19538 0.70619-4.93e-4l0.37133-0.36973a7 7 0 0 0 2.2909 1.325l-0.13524 0.50378c-0.071692 0.26756 0.085109 0.54013 0.35267 0.61182 0.26756 0.0717 0.54013-0.08511 0.61182-0.35267l0.13648-0.50982a7 7 0 0 0 2.6442 0.0021l0.13583 0.50692c0.071693 0.26756 0.34474 0.42521 0.61231 0.35352 0.26756-0.07169 0.42521-0.34474 0.35352-0.61231l-0.13511-0.50426a7 7 0 0 0 1.2116-0.5477 7 7 0 0 0 1.0808-0.77426l0.36901 0.36867c0.19587 0.19586 0.51032 0.19538 0.70619-4.92e-4 0.19586-0.19587 0.19538-0.51031-4.92e-4 -0.70619l-0.36973-0.37133a7 7 0 0 0 0.75739-1.0579c0.0053-8e-3 0.01392-0.01231 0.01878-0.02073 0.0063-0.01084 0.0055-0.02326 0.01082-0.03435a7 7 0 0 0 0.53798-1.1779l0.50378 0.13524c0.26756 0.07169 0.54013-0.08511 0.61182-0.35267 0.0717-0.26756-0.08511-0.54013-0.35267-0.61182l-0.50982-0.13648a7 7 0 0 0 0.0021-2.6442l0.50691-0.13584c0.26756-0.071693 0.42521-0.34474 0.35352-0.61231s-0.34474-0.42521-0.61231-0.35352l-0.50426 0.13511a7 7 0 0 0-0.5477-1.2116 7 7 0 0 0-0.77426-1.0808l0.36867-0.36901c0.19586-0.19587 0.19538-0.51032-4.93e-4 -0.70619-0.1959-0.19594-0.51034-0.19545-0.70621 4.19e-4l-0.37133 0.36973a7 7 0 0 0-2.291-1.3249l0.13524-0.50378c0.053769-0.20067-0.02113-0.40542-0.17499-0.52503zm0.50376 2.3071a6 6 0 0 1 2.4439 2.3334 6 6 0 0 1 0.22678 5.5526l-3.498-2.0195a2 2 0 0 0-0.92455-2.2658 2 2 0 0 0-0.49887-0.20232l-6.704e-4 -4.0418a6 6 0 0 1 2.2514 0.64354zm-3.2526-0.63971 8.883e-4 4.0375a2 2 0 0 0-1.2322 0.93497 2 2 0 0 0-0.19531 1.5336l-3.4979 2.0196a6 6 0 0 1 2.4261-7.7489 6 6 0 0 1 2.4985-0.77671zm1.0008 5.1064a1 1 0 0 1 0.36603 1.366 1 1 0 0 1-1.366 0.36603 1 1 0 0 1-0.36603-1.366 1 1 0 0 1 1.366-0.36603zm0.92619 2.2668 3.4962 2.0185a6 6 0 0 1-1.9232 1.7764 6 6 0 0 1-7.9236-1.7759l3.497-2.018a2 2 0 0 0 0.42733 0.33016 2 2 0 0 0 2.4262-0.33129z" color="#363636" fill="currentColor"/>
</svg>
