<svg width="16" height="16" version="1.1" xmlns="http://www.w3.org/2000/svg">
 <path d="m3 5c-0.554 0-1 0.446-1 1v4c0 0.554 0.446 1 1 1h2.4688l0.25-1h-1.7188a1.0001 1.0001 0 0 1-0.83203-1.5547l2.2969-3.4453h-2.4648zm5.5312 0-0.25 1h1.7188a1.0001 1.0001 0 0 1 0.83203 1.5547l-2.2969 3.4453h2.4648c0.554 0 1-0.446 1-1v-4c0-0.554-0.446-1-1-1h-2.4688zm-2.3418 2.5176-0.32031 0.48242h1.1309a1.0001 1.0001 0 0 1-0.81055-0.48242zm0.81055 0.48242a1.0001 1.0001 0 0 1 0.80859 0.48438l0.32227-0.48438h-1.1309z" fill="#363636"/>
 <path d="m15 6v4a1 2 0 0 0 1-2 1 2 0 0 0-1-2z" fill="#363636"/>
 <path d="m3 3c-1.662 0-3 1.338-3 3v4c0 1.662 1.338 3 3 3h8c1.662 0 3-1.338 3-3v-4c0-1.662-1.338-3-3-3zm0 1h8c1.108 0 2 0.892 2 2v4c0 1.108-0.892 2-2 2h-8c-1.108 0-2-0.892-2-2v-4c0-1.108 0.892-2 2-2z" fill="#363636"/>
 <path d="m7.334 4-3.334 5h3l-0.75 3h0.41602l3.334-5h-3l0.75-3z" fill="#363636"/>
</svg>
