<svg xmlns="http://www.w3.org/2000/svg" width="16" height="16" enable-background="new">
  <path
     d="m 15.957,7.937 c -0.05,0.454 -0.222,0.884 -0.5,1.25 C 15.085,9.675 14.502,10 13.769,10 A 0.52,0.52 0 0 1 13.262,9.5 0.52,0.52 0 0 1 13.769,9 C 14.219,9 14.473,8.828 14.675,8.562 14.878,8.296 14.975,7.898 14.957,7.5 14.937,7.1 14.803,6.715 14.55,6.437 14.298,6.159 13.966,5.968 13.425,5.968 c -2.165,0 -3.509,-1.463 -3.468,-3 0.022,-0.856 0.477,-1.688 1.312,-2.25 l 1,0.563 C 11.354,1.656 10.974,2.349 10.957,3 c -0.025,0.96 0.73,1.968 2.468,1.968 0.792,0 1.444,0.337 1.875,0.813 0.432,0.476 0.628,1.08 0.657,1.687 0.007,0.152 0.016,0.318 0,0.47 z M 13.988,1 H 13.832 L 12.457,0.218 c 0.04,-0.011 0.083,-0.02 0.125,-0.03 z M 13.613,1 C 13.507,1.006 13.399,1.02 13.3,1.03 L 12.082,0.312 C 12.144,0.289 12.204,0.271 12.269,0.25 Z m -0.5,0.062 c -0.09,0.014 -0.167,0.045 -0.25,0.063 L 11.738,0.468 c 0.06,-0.029 0.124,-0.067 0.188,-0.093 z M 12.675,1.156 C 12.587,1.18 12.507,1.221 12.425,1.25 l -1.03,-0.594 c 0.064,-0.04 0.117,-0.088 0.187,-0.125 z"
     style="fill:#363636" />
  <path
     style="fill:#363636;marker:none"
     d="M 6.5,8 C 6,8 6,8.515 6,8.515 V 9 H 1 c 0,0 -1,0 -1,1 0,1 1,1 1,1 h 5 v 0.5 C 6,12 6.5,12 6.5,12 h 6 c 0,0 0.5,0 0.5,-0.5 v -3 C 13,8.5 13,8 12.5,8 Z" />
</svg>
