<svg xmlns="http://www.w3.org/2000/svg" width="16" height="16" enable-background="new"><g transform="translate(-281 136.003)" fill="#363636"><path  d="M296.957-128.066c-.05.454-.222.884-.5 1.25-.372.488-.955.813-1.688.813a.52.52 0 0 1-.507-.5.52.52 0 0 1 .507-.5c.45 0 .704-.172.906-.438.203-.266.3-.664.282-1.062-.02-.4-.154-.785-.407-1.063-.252-.278-.584-.469-1.125-.469-2.165 0-3.509-1.463-3.468-3 .022-.856.477-1.688 1.312-2.25l1 .563c-.915.375-1.295 1.068-1.312 1.719-.025.96.73 1.968 2.468 1.968.792 0 1.444.337 1.875.813.432.476.628 1.08.657 1.687.007.152.016.318 0 .47zm-1.969-6.937h-.156l-1.375-.782c.04-.011.083-.02.125-.03zm-.375 0c-.106.006-.214.02-.313.03l-1.218-.718c.062-.023.122-.041.187-.062zm-.5.062c-.09.014-.167.045-.25.063l-1.125-.657c.06-.029.124-.067.188-.093zm-.438.094c-.088.024-.168.065-.25.094l-1.03-.594c.064-.04.117-.088.187-.125z" /><path style="marker:none" d="M287.5-128.003c-.5 0-.5.515-.5.515v.485h-5s-1 0-1 1 1 1 1 1h5v.5c0 .5.5.5.5.5h6s.5 0 .5-.5v-3s0-.5-.5-.5z"/></g></svg>
