<svg width="16px" height="16px" version="1.1" viewBox="0 0 16 16" xmlns="http://www.w3.org/2000/svg">
 <path transform="scale(-1,1)" d="m-3.2617 1.291c0.12521-0.0089419 0.26403 0.029786 0.40039 0.13672 1.8227 1.7001 2.8587 4.0798 2.8613 6.5723-0.0045 2.4976-1.0466 4.8809-2.877 6.5801-0.4971 0.41988-1.123-0.25687-0.67773-0.72852 1.6268-1.5115 2.5521-3.6311 2.5547-5.8516-0.0033-2.2149-0.92472-4.3294-2.5449-5.8398-0.34133-0.38086-0.092428-0.84232 0.2832-0.86914zm-2.3398 1.416c0.11875 0.0092765 0.24846 0.064636 0.37695 0.18164 1.4172 1.3223 2.2227 3.173 2.2246 5.1113-0.0033 1.9421-0.81333 3.7956-2.2363 5.1172-0.50623 0.41818-1.148-0.28229-0.67969-0.72852 1.2201-1.1336 1.9141-2.7233 1.916-4.3887-0.0026-1.6608-0.6935-3.2463-1.9082-4.3789-0.40251-0.39628-0.11746-0.94719 0.30664-0.91406zm-4.3984 0.29297v10l-3-3h-2c-0.554 0-1-0.446-1-1v-2c0-0.554 0.446-1 1-1h2l3-3zm2.0645 1.1836c0.11203 0.0072082 0.23175 0.058021 0.3457 0.16602 1.0124 0.9442 1.5881 2.266 1.5898 3.6504-0.0022 1.3876-0.58086 2.712-1.5977 3.6562-0.54012 0.42173-1.1523-0.30054-0.67969-0.73047 0.81334-0.7557 1.2761-1.8155 1.2773-2.9258-0.0019-1.1076-0.46299-2.1649-1.2734-2.9199-0.36837-0.39878-0.062227-0.92223 0.33789-0.89648z" fill="#363636" style="paint-order:normal"/>
</svg>
