<svg width="16" height="16" version="1.1" xmlns="http://www.w3.org/2000/svg">
 <defs>
  <style id="current-color-scheme" type="text/css">.ColorScheme-Text { color:#363636; } .ColorScheme-Highlight { color:#5294e2; }</style>
 </defs>
 <path d="m7.2949 1.0449a0.50005 0.50005 0 0 0-0.29492 0.45508v5.2852l-2.7344-1.709a0.5 0.5 0 0 0-0.68945 0.1582 0.5 0.5 0 0 0 0.1582 0.68945l3.2656 2.041v0.070313l-3.2656 2.041a0.5 0.5 0 0 0-0.1582 0.68945 0.5 0.5 0 0 0 0.68945 0.1582l2.7344-1.709v5.2852a0.50005 0.50005 0 0 0 0.83203 0.37305l4.5-4a0.50005 0.50005 0 0 0-0.06641-0.79688l-3.3223-2.0762 3.3223-2.0762a0.50005 0.50005 0 0 0 0.06641-0.79688l-4.5-4a0.50005 0.50005 0 0 0-0.53711-0.082031zm0.70508 1.5684 3.1699 2.8164-3.1699 1.9805zm0 5.9766 3.1699 1.9805-3.1699 2.8164z" fill="#363636"/>
</svg>
