<svg width="16" height="16" version="1.1" xmlns="http://www.w3.org/2000/svg">
 <defs>
  <style id="current-color-scheme" type="text/css">.ColorScheme-Text { color:#363636; } .ColorScheme-Highlight { color:#5294e2; }</style>
 </defs>
 <path d="m2.5 2c-1.3807 0-2.5 1.1193-2.5 2.5v7c0 1.3807 1.1193 2.5 2.5 2.5h7c1.3807 0 2.5-1.1193 2.5-2.5v-1l2.4 1.8c0.6592 0.4944 1.6 0.024 1.6-0.8v-7c0-0.82404-0.9408-1.2944-1.6-0.8l-2.4 1.8v-0.99998c0-1.3807-1.1193-2.5-2.5-2.5zm9.5 4.75 3-2.25v7l-3-2.25zm-1-2.25v7c0 0.8284-0.6716 1.5-1.5 1.5h-7c-0.82843 0-1.5-0.6716-1.5-1.5v-7c0-0.82843 0.67157-1.5 1.5-1.5h7c0.8284 0 1.5 0.67157 1.5 1.5z" fill="#363636"/>
</svg>
