<svg width="16px" height="16px" version="1.1" viewBox="0 0 16 16" xmlns="http://www.w3.org/2000/svg">
 <path d="m2 6v2.5c0 1.3828 1.1172 2.5 2.5 2.5h7.9766c0.5625 0 1.0234 0.46094 1.0234 1.0156-0.007812 0.55078-0.46484 0.99219-1.0234 0.98438h-6.4766v1h6.4688c1.1055 0.015625 2.0156-0.86328 2.0312-1.9766 0-1.1211-0.90234-2.0234-2.0234-2.0234h-7.9766c-0.82422 0-1.5-0.67578-1.5-1.5v-2.5z" fill="#363636"/>
 <rect x="1" y="7" width="14" height="1" fill="#363636"/>
 <path d="m5 1c-1.662 0-3 1.338-3 3v4h1v-4c0-1.108 0.892-2 2-2h6c1.108 0 2 0.892 2 2v4h1v-4c0-1.662-1.338-3-3-3z" fill="#363636"/>
 <path d="m2.5 13c-0.831 0-1.5 0.669-1.5 1.5s0.669 1.5 1.5 1.5h4c0.831 0 1.5-0.669 1.5-1.5s-0.669-1.5-1.5-1.5h-4zm0 1h4c0.277 0 0.5 0.223 0.5 0.5s-0.223 0.5-0.5 0.5h-4c-0.277 0-0.5-0.223-0.5-0.5s0.223-0.5 0.5-0.5z" fill="#363636"/>
</svg>
