<svg height='16' width='16' xmlns='http://www.w3.org/2000/svg'>
  <path
     d="M 7.68,0.002 A 8.481,8.481 0 0 0 1.997,2.019 0.50013698,0.50013698 0 1 0 2.645,2.781 7.493,7.493 0 0 1 12.593,2.993 0.5,0.5 0 1 0 13.273,2.26 8.48,8.48 0 0 0 7.681,0.002 Z M 7.5,1.998 A 6.5,6.5 0 0 0 1,8.468 0.5,0.5 0 0 0 1,8.493 0.5,0.5 0 0 0 1,8.498 0.5,0.5 0 0 0 1,8.501 0.5,0.5 0 0 0 1,8.504 v 0.01 a 0.5,0.5 0 0 0 0,0.023 c 0,1.284 0.237,2.558 0.699,3.756 a 0.50002225,0.50002225 0 1 0 0.933,-0.36 9.45,9.45 0 0 1 -0.633,-3.426 0.5,0.5 0 0 0 0,-0.009 5.5,5.5 0 0 1 5.5,-5.5 5.5,5.5 0 0 1 5.5,5.5 1.5,1.5 0 0 1 -1.5,1.5 1.5,1.5 0 0 1 -1.5,-1.5 2.5,2.5 0 0 0 -2.5,-2.5 A 2.5,2.5 0 0 0 5,8.468 2.5,2.5 0 0 0 5,8.498 0.5,0.5 0 0 0 5,8.504 c -0.01,3.556 2.866,6.463 6.424,6.494 a 0.500025,0.500025 0 1 0 0.01,-1 5.471,5.471 0 0 1 -5.432,-5.491 0.5,0.5 0 0 0 0,-0.009 1.5,1.5 0 0 1 1.5,-1.5 1.5,1.5 0 0 1 1.5,1.5 2.5,2.5 0 0 0 2.5,2.5 2.5,2.5 0 0 0 2.5,-2.5 6.5,6.5 0 0 0 -6.5,-6.5 z m 0,2 A 4.5,4.5 0 0 0 3,8.467 0.5,0.5 0 0 0 3,8.48 a 4.5,4.5 0 0 0 0,0.018 0.5,0.5 0 0 0 0,0.006 8.463,8.463 0 0 0 3.529,6.9 0.5,0.5 0 0 0 0.329,0.097 0.5,0.5 0 0 0 0.05,-0.006 A 0.5,0.5 0 0 0 7.112,14.592 7.465,7.465 0 0 1 4,8.507 a 0.5,0.5 0 0 0 0,-0.01 3.5,3.5 0 0 1 3.5,-3.5 3.5,3.5 0 0 1 3.5,3.5 0.5,0.5 0 0 0 0.5,0.5 A 0.5,0.5 0 0 0 12,8.497 0.5,0.5 0 0 0 12,8.451 4.5,4.5 0 0 0 7.502,3.998 Z M 7.49,7.979 A 0.5,0.5 0 0 0 6.995,8.485 v 0.007 a 0.5,0.5 0 0 0 0,0.006 0.5,0.5 0 0 0 0,0.053 4.506,4.506 0 0 0 4.457,4.447 0.500025,0.500025 0 1 0 0.01,-1 3.492,3.492 0 0 1 -3.469,-3.5 0.5,0.5 0 0 0 0,-0.01 A 0.5,0.5 0 0 0 7.488,7.98 Z"
     fill="#363636" />
</svg>
