<svg width="16px" height="16px" version="1.1" viewBox="0 0 16 16" xmlns="http://www.w3.org/2000/svg">
 <path d="m8.5 2.9727c-2.4805 0-4.5 2.0195-4.5 4.5 0 2.4805 2.0195 4.5 4.5 4.5 2.4805 0 4.5-2.0195 4.5-4.5 0-2.4805-2.0195-4.5-4.5-4.5zm-0.5 1.0371v0.52539c0 0.27734 0.22266 0.5 0.5 0.5s0.5-0.22266 0.5-0.5v-0.52539c0.59551 0.084407 1.1414 0.31513 1.5996 0.6582l-0.37695 0.375c-0.19531 0.19531-0.19531 0.51172 0 0.70703 0.19531 0.19531 0.51172 0.19531 0.70703 0l0.37695-0.37305c0.34148 0.45757 0.57198 1.0026 0.65625 1.5957h-0.52539c-0.27734 0-0.5 0.22266-0.5 0.5 0 0.27734 0.22266 0.5 0.5 0.5h0.52539c-0.084083 0.59456-0.31642 1.1418-0.6582 1.5996l-0.375-0.37305c-0.09375-0.09375-0.21875-0.14844-0.35156-0.14844s-0.26172 0.054688-0.35547 0.14844c-0.19531 0.19531-0.19531 0.51172 0 0.70703l0.375 0.37305c-0.4578 0.34178-1.0031 0.57217-1.5977 0.65625v-0.52539c0-0.27734-0.22266-0.5-0.5-0.5s-0.5 0.22266-0.5 0.5v0.52539c-0.59312-0.084266-1.1381-0.31477-1.5957-0.65625l0.37305-0.37305c0.19531-0.19531 0.19531-0.51172 0-0.70703-0.09375-0.09375-0.22266-0.14844-0.35547-0.14844s-0.25781 0.054688-0.35156 0.14844l-0.375 0.37305-0.0019531-0.0019531c-0.34217-0.4578-0.57198-1.0031-0.65625-1.5977h0.52539c0.27734 0 0.5-0.22266 0.5-0.5 0-0.27734-0.22266-0.5-0.5-0.5h-0.52539c0.084456-0.59312 0.31437-1.1381 0.65625-1.5957l0.37695 0.37305c0.19531 0.19531 0.51172 0.19531 0.70703 0 0.19531-0.19531 0.19531-0.51172 0-0.70703l-0.37695-0.375c0.45827-0.34328 1.005-0.57354 1.5996-0.6582zm0.5 1.9629c-0.82031 0-1.5 0.67969-1.5 1.5 0 0.82422 0.67969 1.5 1.5 1.5 0.82422 0 1.5-0.67578 1.5-1.5 0-0.82031-0.67578-1.5-1.5-1.5zm0 1c0.28125 0 0.5 0.21875 0.5 0.5 0 0.28125-0.21875 0.5-0.5 0.5s-0.5-0.21875-0.5-0.5c0-0.28125 0.21875-0.5 0.5-0.5z" fill="#363636"/>
 <path d="m0 0v1h1c0.554 0 1 0.446 1 1v11 1 2h1v-2h2v1c0 0.554 0.446 1 1 1h5c0.554 0 1-0.446 1-1v-1h2c1.108 0 2-0.892 2-2v-9c0-1.108-0.892-2-2-2h-11.268c-0.34498-0.59808-0.98965-1-1.7324-1h-1zm3 2h11c0.554 0 1 0.446 1 1v9c0 0.554-0.446 1-1 1h-2-1v1 1h-1v-2h-1v2h-1v-2h-1v2h-1v-1-1h-3v-11z" fill="#363636" stroke-linecap="round" stroke-linejoin="round" style="paint-order:fill markers stroke"/>
</svg>
