<svg width="16" height="16" version="1.1" xmlns="http://www.w3.org/2000/svg">
 <path d="m10.791 0.9375c-0.7782 0.044597-1.2405 0.62859-1.5605 0.98633a0.50005 0.50005 0 0 0-0.021484 0.025391c-0.3205 0.41258-0.70446 0.91682-0.81836 1.582a0.50005 0.50005 0 0 0-0.0097656 0.080078c0 0.28508 0.17748 0.47664 0.26758 0.55859 0.09 0.08195 0.12675 0.1258 0.09375 0.078125a0.50005 0.50005 0 0 0 0.076172 0.085938c0.1276 0.11471 0.24693 0.2555 0.29883 0.36328 0.05 0.1039 0.051484 0.13951 0.021484 0.20703-0.2087 0.40662-0.67842 0.75505-1.1367 1.2637-0.1683 0.16865-0.3372 0.33384-0.4707 0.41602-0.1344 0.08268-0.17558 0.093424-0.27148 0.058594-0.1956-0.07378-0.3863-0.35174-0.7793-0.66797a0.50005 0.50005 0 0 0-0.35156-0.10938c-0.5999 0.04604-1.0266 0.37645-1.3555 0.57812a0.50005 0.50005 0 0 0-0.033203 0.021484c-0.4717 0.3419-1.041 0.79995-1.2578 1.5332a0.50005 0.50005 0 0 0-0.0097657 0.035156c-0.087 0.39903 0.1137 0.77825 0.3125 0.98242 0.1987 0.20417 0.40381 0.32606 0.50781 0.41016a0.50005 0.50005 0 0 0 0.021484 0.017578c0.8617 0.62406 1.9769 0.69508 2.9258 0.35156 1.4274-0.50688 2.5285-1.534 3.4707-2.5508a0.50005 0.50005 0 0 0 0.009765-0.0097656c0.8138-0.9251 1.6519-2.0588 1.7676-3.4668a0.50005 0.50005 0 0 0 0-0.0019531c0.086-1.0586-0.43731-2.0551-1.2246-2.6816a0.50005 0.50005 0 0 0-0.12305-0.072266l-0.068359-0.027344a0.50005 0.50005 0 0 0-0.09961-0.027344l-0.068359-0.013672a0.50005 0.50005 0 0 0-0.085938-0.0058594 0.50005 0.50005 0 0 0-0.02539 0h-0.001953zm-0.066407 1.0957c0.46233 0.43809 0.81886 1.0442 0.76953 1.6523-0.086 1.0492-0.75413 2.0164-1.5195 2.8867v0.0019532c-0.9012 0.97123-1.894 1.8636-3.0645 2.2793a0.50005 0.50005 0 0 0 0 0.0019532c-0.6652 0.24121-1.4465 0.17656-1.998-0.2207v-0.0019531c-0.1687-0.13427-0.32554-0.24149-0.39844-0.31641-0.062-0.06356-0.048016-0.046491-0.041016-0.056641 0.1143-0.35047 0.45138-0.67742 0.85938-0.97461 0.3029-0.18566 0.54291-0.30614 0.75391-0.35938 0.1933 0.20566 0.37453 0.47978 0.83203 0.65234a0.50005 0.50005 0 0 0 0 0.0019531c0.4222 0.15642 0.85548 0.03465 1.1465-0.14453 0.2911-0.17918 0.49971-0.40557 0.66211-0.56836a0.50005 0.50005 0 0 0 0.019531-0.019531c0.3584-0.40012 0.94498-0.79606 1.3008-1.5039a0.50005 0.50005 0 0 0 0.009766-0.017578c0.168-0.36932 0.10795-0.77278-0.03125-1.0625-0.1285-0.26713-0.31298-0.45816-0.48828-0.62109-0.037-0.04599-0.051078-0.055641-0.080078-0.082031 0.092-0.31584 0.27356-0.64018 0.53516-0.97852 0.27224-0.30323 0.5097-0.4753 0.73242-0.54883zm0.18164 6.9668c-0.2326 4.53e-4 -0.45772 0.08195-0.63672 0.23047-0.7196 0.59634-1.535 1.1253-2.541 1.4824 0 0.0013-0.0097656 0.002606-0.0097656 0.003906-1.3418 0.48717-2.9526 0.42065-4.2617-0.52734v-0.001953l-0.070312-0.052734-0.017578-0.013672-0.13477-0.083985 0.015625 0.007813-0.21875-0.17383c-0.3962-0.34474-0.99168-0.32426-1.3633 0.046875l-1.375 1.375c-0.1875 0.18758-0.29287 0.44183-0.29297 0.70703v3c1e-4 0.55226 0.4477 0.99994 1 1h14c0.5523-5.5e-5 0.9999-0.44774 1-1v-3c-1e-4 -0.2652-0.10547-0.51952-0.29297-0.70703l-2-2c-0.1875-0.18753-0.44183-0.29291-0.70703-0.29297h-2.0938zm-0.003906 1h0.003906 2.0938l2 2v3h-14v-3l0.80273-0.80273 0.125-0.12695 0.44336-0.44336c0.245 0.213 0.433 0.3273 0.375 0.2793 0.041 0.03219 0.083 0.06345 0.125 0.09375 1.606 1.163 3.5735 1.2422 5.1875 0.65625 1.141-0.405 2.0619-1.0083 2.8438-1.6562zm-0.90234 2a1 1 0 0 0-1 1 1 1 0 0 0 1 1 1 1 0 0 0 1-1 1 1 0 0 0-1-1zm3 0a1 1 0 0 0-1 1 1 1 0 0 0 1 1 1 1 0 0 0 1-1 1 1 0 0 0-1-1z" fill="#363636"/>
</svg>
