<svg width="16px" height="16px" version="1.1" viewBox="0 0 16 16" xmlns="http://www.w3.org/2000/svg">
 <path d="m6 0c-0.554 0-1 0.446-1 1v3c0 0.554 0.446 1 1 1h1.5v2h-7.5v1h2.5v3h-1.5c-0.554 0-1 0.446-1 1v3c0 0.554 0.446 1 1 1h4c0.554 0 1-0.446 1-1v-3c0-0.554-0.446-1-1-1h-1.5v-3h9v3h-1.5c-0.554 0-1 0.446-1 1v3c0 0.554 0.446 1 1 1h4c0.554 0 1-0.446 1-1v-3c0-0.554-0.446-1-1-1h-1.5v-3h2.5v-1h-7.5v-2h1.5c0.554 0 1-0.446 1-1v-3c0-0.554-0.446-1-1-1h-4zm0 1h4v3h-4v-3zm-5 11h4v3h-4v-3zm10 0h4v3h-4v-3z" fill="#363636"/>
</svg>
