<svg width="16" height="16" version="1.1" xmlns="http://www.w3.org/2000/svg">
  <path
     color="#000000"
     d="m 4,0.005 c -1.108,0 -2,0.892 -2,2 v 13.5 c 0,0 0,0.5 0.5,0.5 h 11 c 0,0 0.5,0 0.5,-0.5 v -13.5 c 0,-1.108 -0.892,-2 -2,-2 z m 0,1 h 8 c 0.554,0 1,0.446 1,1 v 10.5 c 0,0 0.054,0.5 -0.5,0.5 h -9 c 0,0 -0.5,0 -0.5,-0.5 v -10.5 c 0,-0.554 0.446,-1 1,-1 z m 8.5,13 a 0.5,0.5 0 1 1 0,1 0.5,0.5 0 0 1 0,-1 z"
     fill="#363636"
     overflow="visible"
     style="marker:none" />
  <path
     color="#bebebe"
     d="m 8,3.005 -3,5 h 3 v 3 l 3,-5 H 8 Z"
     fill="#363636"
     overflow="visible"
     style="isolation:auto;mix-blend-mode:normal;marker:none" />
</svg>
