<svg width="16px" height="16px" version="1.1" viewBox="0 0 16 16" xmlns="http://www.w3.org/2000/svg">
 <path d="m6.0312 12c-0.27344 0-0.53516 0.10938-0.72656 0.30078-0.19531 0.19531-0.30469 0.45703-0.30469 0.72656v2.4727c0 0.27734 0.22656 0.5 0.5 0.5h5c0.27734 0 0.5-0.22266 0.5-0.5v-2.4727c0.0039-0.26953-0.10547-0.53125-0.30078-0.72656-0.19141-0.19141-0.45312-0.30078-0.72656-0.30078zm-0.03125 2h1v1h-1zm3 0h1v1h-1z" fill="#363636"/>
 <path d="m7.0312 8.9727c-1.6719 0-3.0312 1.3555-3.0312 3.0273 0 0.55078 0.44922 1 1 1h6c0.55469 0 1-0.44922 1-1 0-1.6719-1.3555-3.0273-3.0273-3.0273h-1.9414zm0 1h1.9414c1.1314 0 2.0273 0.89597 2.0273 2.0273h-6c0-1.1298 0.89988-2.0273 2.0312-2.0273z" fill="#363636"/>
 <g transform="rotate(-90 7.9999 8.0003)" fill="#363636">
  <g fill="#363636" fill-rule="evenodd">
   <path d="m13.139 1.4277c-0.54546-0.42773-1.1387 0.22461-0.68359 0.73242 1.6202 1.5104 2.5416 3.6249 2.5449 5.8398-0.0026 2.2205-0.92793 4.3401-2.5547 5.8516-0.44531 0.47165 0.18064 1.1484 0.67774 0.72852 1.8304-1.6992 2.8725-4.0825 2.877-6.5801-0.0026-2.4925-1.0386-4.8722-2.8613-6.5723z" style="paint-order:normal"/>
   <path d="m10.775 2.8887c-0.58741-0.53488-1.1988 0.22518-0.68359 0.73242 1.2147 1.1326 1.9056 2.7181 1.9082 4.3789-0.0019 1.6654-0.69594 3.2551-1.916 4.3887-0.46835 0.44623 0.17346 1.1467 0.67969 0.72852 1.423-1.3216 2.233-3.1751 2.2363-5.1172-0.0019-1.9383-0.80739-3.789-2.2246-5.1113z" style="paint-order:normal"/>
   <path d="m8.4102 4.3496c-0.52095-0.49369-1.1551 0.22003-0.68359 0.73047 0.81045 0.75501 1.2715 1.8123 1.2734 2.9199-0.00128 1.1103-0.46396 2.1701-1.2773 2.9258-0.47259 0.42993 0.13957 1.1522 0.67969 0.73047 1.0168-0.94425 1.5955-2.2686 1.5977-3.6562-0.00172-1.3844-0.57738-2.7062-1.5898-3.6504z" style="paint-order:normal"/>
  </g>
 </g>
</svg>
