<svg width="16px" height="16px" version="1.1" viewBox="0 0 16 16" xmlns="http://www.w3.org/2000/svg">
 <path d="m9 0c-1.1055 0-2 0.89453-2 2h-3.4688c-1.1055-0.015625-2.0156 0.86328-2.0312 1.9766 0 1.1211 0.90234 2.0234 2.0234 2.0234h7.9766c0.64917 0 1.2048 0.41923 1.4121 1h-4.4121-1-4.5c-1.1094 0-2 0.89063-2 2v2 1 2c0 1.1094 0.89063 2 2 2h4.5 1 4.5c1.1094 0 2-0.89063 2-2v-5c0-0.7495-0.40782-1.3976-1.0137-1.7402-0.12069-1.2695-1.1847-2.2598-2.4863-2.2598h-7.9766c-0.5625 0-1.0234-0.46094-1.0234-1.0156 0.007812-0.55078 0.46484-0.99219 1.0234-0.98438h3.7441c0.34567 0.59757 0.99171 1 1.7324 1h2v-1h2v-2h-2v-1h-2zm0 1h1v2h-1c-0.554 0-1-0.446-1-1s0.446-1 1-1zm-6 7h4.5v3h-5.5v-2c0-0.554 0.446-1 1-1zm5.5 0h4.5c0.554 0 1 0.446 1 1v2h-5.5v-3zm-6.5 4h5.5v3h-4.5c-0.554 0-1-0.446-1-1v-2zm6.5 0h5.5v2c0 0.554-0.446 1-1 1h-4.5v-3z" fill="#363636"/>
</svg>
