<svg width="22" height="22" version="1.1" viewBox="0 0 22 22" xmlns="http://www.w3.org/2000/svg">
 <defs id="color">
  <style id="current-color-scheme" type="text/css">.ColorScheme-Text {
        color:#363636;
      }</style>
 </defs>
 <path class="ColorScheme-Text" d="m12.637 4.1952a0.5 0.5 0 0 0-0.59961 0.37109l-2.9746 12.639a0.5 0.5 0 0 0 0.37305 0.59961 0.5 0.5 0 0 0 0.59961-0.37109l2.9746-12.639a0.5 0.5 0 0 0-0.37305-0.59961zm1.8965 1.8262a0.5 0.5 0 0 0-0.36914 0.10156 0.5 0.5 0 0 0-0.08789 0.70117l3.2969 4.2363-3.2695 4.4121a0.5 0.5 0 0 0 0.10547 0.69922 0.5 0.5 0 0 0 0.69922-0.10352l3.4941-4.7168a0.50005 0.50005 0 0 0-0.0078-0.60547l-3.5293-4.5371a0.5 0.5 0 0 0-0.33203-0.1875zm-6.6953 0.085938a0.5 0.5 0 0 0-0.70117 0.087891l-3.5312 4.5371a0.50005 0.50005 0 0 0-0.00781 0.60547l3.4941 4.7168a0.5 0.5 0 0 0 0.69922 0.10352 0.5 0.5 0 0 0 0.10547-0.69922l-3.2695-4.4121 3.2988-4.2363a0.5 0.5 0 0 0-0.087891-0.70312z" fill="currentColor"/>
</svg>
