<svg width="22" height="22" version="1.1" xmlns="http://www.w3.org/2000/svg">
 <defs>
  <style id="current-color-scheme" type="text/css">.ColorScheme-Text { color:#363636; }</style>
 </defs>
 <path class="ColorScheme-Text" d="m11 3a6 6 0 0 0-6 6 6 6 0 0 0 1.883 4.36l0.435-0.985a5 5 0 0 1-1.318-3.375 5 5 0 0 1 5-5 5 5 0 0 1 5 5 5 5 0 0 1-1.318 3.375l0.433 0.98a6 6 0 0 0 1.885-4.355 6 6 0 0 0-6-6zm0 2a4 4 0 0 0-4 4 4 4 0 0 0 0.771 2.352l0.256-0.579 0.24-0.543a3 3 0 0 1-0.267-1.23 3 3 0 0 1 0.059-0.584c0-4e-3 0-8e-3 2e-3 -0.012l7e-3 -0.029a3 3 0 0 1 2.295-2.303c0.02-4e-3 0.04-0.01 0.06-0.013a3 3 0 0 1 0.577-0.059 3 3 0 0 1 0.584 0.059 3 3 0 0 1 0.012 2e-3l0.029 7e-3a3 3 0 0 1 2.303 2.295c4e-3 0.02 0.01 0.04 0.013 0.06a3 3 0 0 1 0.059 0.577 3 3 0 0 1-0.268 1.232l0.497 1.122a4 4 0 0 0 0.771-2.354 4 4 0 0 0-4-4zm0 2a2 2 0 1 0 0 4 2 2 0 0 0 0-4zm-2.059 4.178-3.461 7.822h2.185l0.443-1h5.786l0.443 1h2.185l-3.462-7.82a3 3 0 0 1-1.829 0.81l0.447 1.01h-1.356l0.448-1.012a3 3 0 0 1-1.829-0.81zm0.495 3.822h3.128l0.444 1h-4.016z" fill="currentColor" opacity=".8"/>
</svg>
