<svg version="1.1" viewBox="0 0 16 16" xmlns="http://www.w3.org/2000/svg">
 <path d="m4.5 0.875c-1.1502 0-2.3073 0.44399-3.1816 1.3184-1.7489 1.7489-1.7489 4.6144 0 6.3633l6.6816 7.0176 6.6816-7.0176c1.7486-1.7489 1.7486-4.6144 0-6.3633-1.749-1.7486-4.6143-1.7486-6.3633 0-0.13806 0.13834-0.20251 0.3251-0.32031 0.47852-0.11814-0.15393-0.17583-0.33799-0.31641-0.47852-0.87437-0.87438-2.0315-1.3184-3.1816-1.3184zm0 1c0.89578 0 1.7912 0.34197 2.4746 1.0254 0.68263 0.68237 1.0226 1.5801 1.0234 2.4746h0.0039062c2.64e-4 -0.92684 0.3687-1.8186 1.0234-2.4746 1.3668-1.3666 3.5824-1.3666 4.9492 0 1.3666 1.3668 1.3666 3.5824 0 4.9492l-5.9746 6.2754-5.9746-6.2754c-1.3668-1.3668-1.3668-3.5824 0-4.9492 0.68342-0.68342 1.5788-1.0254 2.4746-1.0254z" color="#000000" fill="#363636" stroke-linecap="round"/>
</svg>
