<svg version="1.1" viewBox="0 0 16 16" xmlns="http://www.w3.org/2000/svg">
 <path transform="rotate(68.785)" d="m5.5383-3.2137 7.9172 7.2384-0.40428 1.0415 0.93223 0.36187 1.0856-2.7967-0.93223-0.36187-0.29331 0.75561-2.3754-2.1708 1.5535-4.002 3.2179 4.434e-4 -0.29331 0.75561 0.93223 0.36187 1.0856-2.7967-0.93223-0.36187-0.40428 1.0415-10.727 9.495e-4 -0.36187 0.93223zm1.5538 0.066799 4.8566-3.645e-4 -1.2722 3.2774-3.5844-3.277z" fill="#363636" fill-rule="evenodd" stop-color="#000000" style="paint-order:stroke fill markers"/>
 <path d="m10 0-2.2402 5.7715 0.53516 1.3789 0.058594-0.15039h4.293l1.1641 3h-0.81055v1h3v-1h-1.1172l-3.8828-10zm0.5 1.4727 1.7578 4.5273h-3.5156z" fill="#363636" fill-rule="evenodd" stop-color="#000000" style="paint-order:stroke fill markers"/>
</svg>
