<svg width="16" height="16" version="1.1" xmlns="http://www.w3.org/2000/svg">
 <path d="m4.5055 1c-0.44073 0-0.88236 0.16567-1.2129 0.49609l-1.7852 1.7852c-0.66086 0.66106-0.66086 1.7628 0 2.4238l1.7852 1.7852c0.66106 0.66086 1.7647 0.66086 2.4258 0l1.7852-1.7852c0.66196-0.66122 0.66196-1.7646 0-2.4258l-1.7852-1.7832c-0.33053-0.33043-0.77216-0.49609-1.2129-0.49609zm0 0.99414a0.71428 0.71428 0 0 1 0.50586 0.20898l1.7852 1.7852a0.71428 0.71428 0 0 1 0 1.0098l-1.7852 1.7852a0.71428 0.71428 0 0 1-1.0117 0l-1.7852-1.7852a0.71428 0.71428 0 0 1 0-1.0098l1.7852-1.7852a0.71428 0.71428 0 0 1 0.50586-0.20898z" color="#000000" fill="#363636" stroke-linecap="round" stroke-linejoin="round" style="-inkscape-stroke:none"/>
 <path d="m7 9a3 3 0 0 0-3 3 3 3 0 0 0 3 3 3 3 0 0 0 3-3 3 3 0 0 0-3-3zm0 1a2 2 0 0 1 2 2 2 2 0 0 1-2 2 2 2 0 0 1-2-2 2 2 0 0 1 2-2z" fill="#363636"/>
 <path d="m12 2c-0.03871-5.781e-4 -0.07819-2.104e-4 -0.11719 0.00195-0.5593 0.030567-1.0681 0.34189-1.3496 0.82617h-2e-3l-1.5468 2.666c-0.62008 1.0683 0.20425 2.5016 1.4395 2.5039h3.0997c1.2351-0.00107 2.0578-1.4333 1.4395-2.502l-1.5469-2.668c-0.29434-0.50647-0.8354-0.81945-1.416-0.82812zm-0.0625 1a0.66672 0.66672 0 0 1 0.61328 0.33008l1.5469 2.668a0.66672 0.66672 0 0 1-0.57617 1h-3.0957a0.66672 0.66672 0 0 1-0.57617-1l1.5469-2.668a0.66672 0.66672 0 0 1 0.54102-0.33008z" color="#000000" fill="#363636" style="-inkscape-stroke:none"/>
</svg>
