<svg width="16" height="16" version="1.1" xmlns="http://www.w3.org/2000/svg">
 <g fill="#363636">
  <path d="M3.599.719c-.23.047-.443.131-.655.219-.017.624.087 1.442-.156 1.656-.239.21-1.037.034-1.654-.031a3.63 3.63 0 0 0-.312.75c.477.396 1.139.839 1.155 1.156.015.321-.626.805-1.061 1.25.103.258.25.494.405.719.608-.127 1.365-.374 1.623-.188.263.19.265 1.006.343 1.625.25.075.512.105.78.125.281-.554.567-1.32.874-1.406.315-.089.962.458 1.498.781.218-.151.412-.337.593-.53-.254-.573-.72-1.293-.593-1.595.127-.302.974-.47 1.56-.687.004-.074.031-.144.031-.219 0-.191-.034-.379-.062-.562-.605-.161-1.465-.242-1.623-.532-.156-.288.242-1.061.437-1.656a3.682 3.682 0 0 0-.655-.469c-.5.375-1.083.995-1.404.938-.317-.056-.662-.82-.999-1.344-.04.007-.085-.008-.125 0zm.624 1.875c.93 0 1.685.756 1.685 1.688a1.686 1.686 0 1 1-1.685-1.688z" overflow="visible"/>
 </g>
 <path d="m1 9v2 2 1c0 1.108 0.892 2 2 2h10c1.108 0 2-0.892 2-2v-1-2-2h-2-10-2zm1 1h1 10 1v1 2 1c0 0.554-0.446 1-1 1h-10c-0.554 0-1-0.446-1-1v-1-2-1z" fill="#363636" fill-rule="evenodd" stop-color="#000000" stroke-linecap="round" stroke-linejoin="round" stroke-width="2" style="paint-order:stroke fill markers"/>
 <path d="m12.176-0.0058594c-0.02644 9.2039e-4 -0.053027 0.0028805-0.080078 0.0058594-1.1072 0.12139-2.0914 0.76401-2.6484 1.7285-0.66331 1.1491-0.42683 2.472 0.25977 3.5508l-1.5469 2.7207h1.1523l1.5078-2.6504c-0.88915-0.78771-1.1016-2.0923-0.50781-3.1211 0.39819-0.68948 1.1011-1.1476 1.8926-1.2344-0.0216 0.029486-0.051602 0.049623-0.070312 0.082031l-1 1.7305c-0.277 0.47978-0.11455 1.0902 0.36523 1.3672l0.86523 0.5c0.47978 0.277 1.0902 0.11259 1.3672-0.36719l1-1.7305c0.01871-0.03241 0.018503-0.070052 0.033203-0.10352 0.3206 0.72884 0.27497 1.5663-0.12305 2.2559-0.59455 1.0276-1.829 1.4971-2.9551 1.1211l-1.2188 2.1504h1.1543l0.68164-1.2207c1.2769 0.055342 2.5411-0.40312 3.2051-1.5508 0.55681-0.96463 0.62032-2.1387 0.17188-3.1582-0.08551-0.19415-0.23047-0.35659-0.41406-0.46289-0.51591-0.29922-1.178-0.083106-1.418 0.46289-0.04719 0.1072-0.061512 0.13608-0.070312 0.1543l-0.91406 1.582-0.86523-0.5 0.91406-1.582c0.01135-0.016738 0.028437-0.044196 0.097657-0.13867 0.49952-0.67986-0.016281-1.6203-0.83594-1.5918z" fill="#363636"/>
</svg>
