<svg width="16" height="16" version="1.1" xmlns="http://www.w3.org/2000/svg">
 <path d="m10.469 2h1.062l2.237 6h-1.04l-0.628-1.8h-2.217l-0.62 1.8h-1.03zm0.531 0.99-0.912 2.61h1.807z" fill="#363636"/>
 <path d="m8 0c-1.108 0-2 0.892-2 2v6c0 1.108 0.892 2 2 2h6c1.108 0 2-0.892 2-2v-6c0-1.108-0.892-2-2-2h-6zm0 1h6c0.554 0 1 0.446 1 1v6c0 0.554-0.446 1-1 1h-6c-0.554 0-1-0.446-1-1v-6c0-0.554 0.446-1 1-1z" fill="#363636"/>
 <path d="m3.8711 7.498c-0.061452 0.007957-0.10903 0.059275-0.11328 0.12109-2e-3 0.028-0.0094375 0.10456-0.023438 0.22656-0.023 0.195-0.043641 0.36005-0.056641 0.49805l-0.023438 0.25781v0.0019531l-0.0058594 0.064453c-0.49281 0.039484-0.9874 0.040062-1.4805 0.0039062-0.080707-0.0066001-0.14837 0.061972-0.14062 0.14258l0.054687 0.57227c0.0070715 0.062237 0.058613 0.11081 0.12109 0.11523 0.09 6e-3 0.20361 0.0078125 0.34961 0.0078125 0.34469-0.001609 0.68942-0.015966 1.0332-0.041016-0.03 0.387-0.053547 0.74369-0.060547 1.0547-0.20382 0.10933-0.40069 0.23017-0.58984 0.36328l-0.0019531 0.001953c-0.846 0.637-1.2891 1.3744-1.2891 2.1914 0 0.303 0.063891 0.55061 0.21289 0.72461 0.15 0.175 0.37653 0.25976 0.64453 0.25976 0.383 0 0.78045-0.15806 1.1895-0.41406 0.019394 0.1201 0.039941 0.24143 0.060547 0.36133 0.013627 0.08065 0.097284 0.12844 0.17383 0.099609l0.5918-0.2207c0.061722-0.024216 0.095456-0.090297 0.078125-0.1543-0.063-0.237-0.10295-0.4645-0.12695-0.6875 0.64088-0.61696 1.1648-1.381 1.5723-2.291-0.32666-0.17803-0.59775-0.44441-0.78125-0.76758-0.31711 0.042882-0.60985 0.10051-0.87305 0.18164 0.011-0.272 0.024828-0.53148 0.048828-0.77148 0.20329-0.02171 0.39271-0.054299 0.58984-0.082031-0.01652-0.10387-0.025391-0.2097-0.025391-0.31836v-0.48047c-0.16 0.025-0.32047 0.054219-0.48047 0.074219 0.029-0.277 0.059516-0.5682 0.10352-0.9082 0.0081344-0.073363-0.045514-0.1393-0.11914-0.14453l-0.60742-0.042969c-0.008645-8.688e-4 -0.016751-8.688e-4 -0.025391 0zm1.248 3.2305c-0.21 0.451-0.45823 0.84898-0.74023 1.209-0.013-0.288-0.024391-0.58414-0.025391-0.99414 0.246-0.095 0.50062-0.16284 0.76562-0.21484zm1.7695 0.26758c0.38289 0.26061 0.56836 0.60295 0.56836 1.0684 0 0.487-0.22203 0.86006-0.70703 1.1641-0.38 0.238-0.9005 0.39875-1.5625 0.46875-0.095916 0.010179-0.14744 0.11781-0.095703 0.19922l0.35352 0.54297c0.027057 0.04238 0.075125 0.064994 0.125 0.058594 0.785-0.111 1.4149-0.33369 1.8809-0.67969 0.595-0.441 0.9043-1.0361 0.9043-1.7461-1e-7 -0.402-0.11255-0.75927-0.31055-1.0723h-1.0449c-0.037123 0-0.074715-0.001929-0.11133-0.003906zm-3.3633 0.43164c0.011 0.51 0.025641 0.97608 0.056641 1.3301-0.36 0.318-0.68566 0.47461-0.97266 0.47461-0.054 0-0.069078-0.012391-0.080078-0.025391-0.011-0.011-0.027344-0.041375-0.027344-0.10938 0-0.033-0.0076719-0.065656-0.013672-0.097656 0.003604-0.024327 0.012029-0.049731 0.013672-0.074219 0.029-0.373 0.23934-0.7675 0.65234-1.1875l0.0019531-0.001953c0.129-0.136 0.24914-0.21659 0.36914-0.30859z" fill="#363636"/>
 <path d="m2 6c-1.108 0-2 0.892-2 2v6c0 1.108 0.892 2 2 2h6c1.108 0 2-0.892 2-2v-3h-1v3c0 0.554-0.446 1-1 1h-6c-0.554 0-1-0.446-1-1v-6c0-0.554 0.446-1 1-1h3v-1h-3z" fill="#363636"/>
</svg>
