<svg xmlns="http://www.w3.org/2000/svg" width="16" height="16"><path d="M3 1c-1.108 0-2 .892-2 2v10c0 1.108.892 2 2 2h10c1.108 0 2-.892 2-2V3c0-1.108-.892-2-2-2H3zm0 1h10c.554 0 1 .446 1 1v9c0 .554-.446 1-1 1H3c-.554 0-1-.446-1-1V3c0-.554.446-1 1-1zm6.96 1.115c-.679 0-1.28.15-1.804.45-.52.296-.923.708-1.207 1.234a3.638 3.638 0 0 0-.422 1.75c0 .927.276 1.65.828 2.172.555.52 1.327.781 2.317.781.68 0 1.298-.119 1.855-.356v-.75c-.32.118-.645.208-.976.27-.33.06-.634.09-.91.09-.73 0-1.287-.192-1.672-.574-.383-.386-.574-.938-.574-1.657 0-.533.102-1.004.308-1.41.208-.409.507-.721.895-.937.388-.216.845-.324 1.37-.324.407 0 .768.084 1.083.253.317.17.564.416.738.739.175.32.262.69.262 1.11 0 .392-.05.711-.149.956-.099.242-.231.363-.398.363-.198 0-.297-.18-.297-.543l.09-1.91a3.96 3.96 0 0 0-.668-.152 4.561 4.561 0 0 0-.738-.066c-.563 0-1.019.167-1.368.503-.349.336-.523.78-.523 1.329 0 .481.133.862.398 1.14.266.276.63.414 1.09.414a1.34 1.34 0 0 0 1.075-.504h.062a.806.806 0 0 0 .32.368.958.958 0 0 0 .512.136c.29 0 .543-.088.762-.265.219-.177.388-.421.508-.73.12-.313.18-.657.18-1.032 0-.565-.123-1.064-.368-1.496a2.493 2.493 0 0 0-1.043-1c-.45-.235-.962-.352-1.535-.352zm-.023 2.2c.167 0 .317.014.45.042l-.051.864c-.026.372-.1.642-.223.808-.122.164-.3.246-.535.246-.448 0-.672-.274-.672-.824 0-.351.09-.629.27-.832.182-.203.436-.305.761-.305z" style="marker:none" fill="#363636"/></svg>