<svg width="16" height="16" version="1.1" xmlns="http://www.w3.org/2000/svg">
 <path d="m2 1c-1.108 0-2 0.892-2 2v10c0 1.108 0.892 2 2 2h12c1.108 0 2-0.892 2-2v-10c0-1.108-0.892-2-2-2h-12zm0 1h12c0.554 0 1 0.446 1 1v10c0 0.554-0.446 1-1 1h-12c-0.554 0-1-0.446-1-1v-10c0-0.554 0.446-1 1-1z" fill="#363636"/>
 <path d="m6.5 2-2.1211 2.1211 0.70703 0.70703 0.91406-0.91406-1e-7 8.1719-0.91406-0.91406-0.70703 0.70703 2.1211 2.1211 2.1211-2.1211-0.70703-0.70703-0.91406 0.91406-2e-7 -8.1719 0.91406 0.91406 0.70703-0.70703-1.4141-1.4141z" fill="#363636"/>
 <path d="m15 8.5-2.1211-2.1211-0.70703 0.70703 0.91406 0.91406-10.172-1e-7 0.91406-0.91406-0.70703-0.70703-2.1211 2.1211 2.1211 2.1211 0.70703-0.70703-0.91406-0.91406 10.172-3e-7 -0.91406 0.91406 0.70703 0.70703 1.4141-1.4141z" fill="#363636"/>
</svg>
