<svg width="16" height="16" version="1.1" xmlns="http://www.w3.org/2000/svg">
 <defs>
  <style id="current-color-scheme" type="text/css">.ColorScheme-Text {
                color:#f2f2f2;
            }</style>
 </defs>
 <path d="m3 5c-0.554 0-1 0.446-1 1v4c0 0.554 0.446 1 1 1h1c0.554 0 1-0.446 1-1h-1a1.0001 1.0001 0 0 1-0.83203-1.5547l1.7988-2.6973c-0.11134-0.43096-0.50009-0.74805-0.9668-0.74805h-1z" fill="#f2f2f2"/>
 <path d="m15 6v4a1 2 0 0 0 1-2 1 2 0 0 0-1-2z" fill="#f2f2f2"/>
 <path d="m3 3c-1.662 0-3 1.338-3 3v4c0 1.662 1.338 3 3 3h8c1.662 0 3-1.338 3-3v-4c0-1.662-1.338-3-3-3zm0 1h8c1.108 0 2 0.892 2 2v4c0 1.108-0.892 2-2 2h-8c-1.108 0-2-0.892-2-2v-4c0-1.108 0.892-2 2-2z" fill="#f2f2f2"/>
 <path d="m7.334 4-3.334 5h3l-0.75 3h0.41602l3.334-5h-3l0.75-3z" color="#000000" fill="#f2f2f2" stroke-linecap="round" stroke-linejoin="round" style="-inkscape-stroke:none"/>
</svg>
