<svg width="20" height="16" version="1.1" xmlns="http://www.w3.org/2000/svg">
 <defs>
  <style id="current-color-scheme" type="text/css">.ColorScheme-Text {
                color:#f2f2f2;
            }</style>
 </defs>
 <path d="m2 3c-1.108 0-2 0.892-2 2v6c0 1.108 0.892 2 2 2h13c1.108 0 2-0.892 2-2v-6c0-1.108-0.892-2-2-2zm0 1h13c0.554 0 1 0.446 1 1v6c0 0.554-0.446 1-1 1h-13c-0.554 0-1-0.446-1-1v-6c0-0.554 0.446-1 1-1z" fill="#f2f2f2"/>
 <path d="m18 6v4a2 2 0 0 0 2-2 2 2 0 0 0-2-2z" fill="#f2f2f2"/>
 <path d="m8.834 4-3.334 5h3l-0.75 3h0.41602l3.334-5h-3l0.75-3z" enable-background="new" fill="#f2f2f2"/>
 <path d="m2.6055 5c-0.33577 0-0.60547 0.2697-0.60547 0.60547v4.7891c0 0.33577 0.2697 0.60547 0.60547 0.60547h4.3633l0.25-1h-1.7188a1.0001 1.0001 0 0 1-0.83203-1.5547l2.2969-3.4453h-4.3594zm5.084 2.5176-0.32031 0.48242h1.1309a1.0001 1.0001 0 0 1-0.81055-0.48242zm0.81055 0.48242a1.0001 1.0001 0 0 1 0.5 0.16797v-0.16797h-0.5z" fill="#f2f2f2"/>
</svg>
