<svg width="16" height="16.02" version="1.1" xmlns="http://www.w3.org/2000/svg">
 <path d="m13 9.019c-1.108 0-2 0.911-2 2.031v0.97h-1v4h6v-4h-1v-0.97c0-1.12-0.892-2.03-2-2.03zm0 1c0.554 0 1 0.443 1 1v1h-2v-1c0-0.557 0.446-1 1-1z" color="#000000" fill="#f2f2f2" stroke-linecap="round" stroke-linejoin="round" style="-inkscape-stroke:none"/>
 <path d="m7.4805 1.0117a0.50005 0.50005 0 0 0-0.18555 0.042969 0.50005 0.50005 0 0 0-0.29492 0.45508v5.2852l-2.7344-1.709a0.5 0.5 0 0 0-0.68945 0.1582 0.5 0.5 0 0 0 0.1582 0.68945l3.2656 2.041v0.070312l-3.2656 2.041a0.5 0.5 0 0 0-0.1582 0.68945 0.5 0.5 0 0 0 0.68945 0.1582l2.7344-1.709v5.2852a0.50005 0.50005 0 0 0 0.83203 0.37305l1.168-1.0391v-1.3359l-1 0.88867v-4.7969l2.209 1.3809c0.11945-0.31692 0.29041-0.60781 0.50195-0.86523l-1.7676-1.1055 3.3223-2.0762a0.50005 0.50005 0 0 0 0.066406-0.79688l-4.5-4a0.50005 0.50005 0 0 0-0.35156-0.125zm0.51953 1.6113 3.1699 2.8164-3.1699 1.9805v-4.7969z" fill="#f2f2f2"/>
</svg>
