<svg width="16" height="16" version="1.1" xmlns="http://www.w3.org/2000/svg">
 <style id="current-color-scheme" type="text/css">.ColorScheme-Text {
            color:#f2f2f2;
        }
        .ColorScheme-ButtonFocus {
            color:#3daee9;
        }
        .ColorScheme-NegativeText {
            color:#da4453;
        }</style>
 <g id="icon" class="ColorScheme-Text" fill="currentColor">
  <path d="m1 0c-0.554 0-1 0.446-1 1v4c0 0.554 0.446 1 1 1h1c0 0.554 0.446 1 1 1h2c0.554 0 1-0.446 1-1h1c0.554 0 1-0.446 1-1v-4c0-0.554-0.446-1-1-1zm0 1h6v4h-6zm11.5 8c-1.933 0-3.5 1.567-3.5 3.5s1.567 3.5 3.5 3.5 3.5-1.567 3.5-3.5-1.567-3.5-3.5-3.5zm1.918 1.7891c0.12781 0 0.25558 0.04855 0.35352 0.14648 0.19587 0.19587 0.19587 0.51116 0 0.70703l-2.4219 2.4219c-0.19587 0.19587-0.51116 0.19587-0.70703 0l-1.4141-1.4141c-0.19587-0.19587-0.19587-0.51116 0-0.70703s0.51116-0.19587 0.70703 0l1.0605 1.0605 2.0684-2.0684c0.09793-0.09793 0.22571-0.14648 0.35352-0.14648z"/>
  <path d="m9 1v3h1v-1.8711c1.7654 0.45582 2.9991 2.0478 3 3.8711v2h1v-2c0-2.7614-2.2386-5-5-5zm-7 7v2c0 2.7614 2.2386 5 5 5v-3h-1v1.8711c-1.7654-0.45582-2.9991-2.0478-3-3.8711v-2z" opacity=".65"/>
 </g>
</svg>
