<svg width="16" height="16" version="1.1" xmlns="http://www.w3.org/2000/svg">
 <style id="current-color-scheme" type="text/css">.ColorScheme-Text {
            color:#f2f2f2;
        }
        .ColorScheme-ButtonFocus {
            color:#3daee9;
        }
        .ColorScheme-NegativeText {
            color:#da4453;
        }</style>
 <g id="icon" class="ColorScheme-Text" color="#f2f2f2" fill="currentColor">
  <path d="m7.8398 9.6016 0.72852 5.1094 1.2617-0.66406 0.58789 1.6211 1.9219-1.0117-1.248-1.2754 0.4082-0.21484-0.27148-0.74414-1.2617 0.66406-0.31836-2.2363-1.8086-1.248z" opacity=".35"/>
  <path d="m12.491 11.757 1.2621-0.66469-4.5136-3.1148 0.72724 5.1089 1.2621-0.66469 0.5888 1.6213 1.922-1.0122z" opacity=".65"/>
  <path d="m13.918 10.089 1.2621-0.66469-4.5136-3.1148 0.72724 5.1089 1.2621-0.66469 0.5888 1.6213 1.922-1.0122z"/>
  <path d="m1 0c-0.554 0-1 0.446-1 1v4c0 0.554 0.446 1 1 1h1c0 0.554 0.446 1 1 1h2c0.554 0 1-0.446 1-1h1c0.554 0 1-0.446 1-1v-4c0-0.554-0.446-1-1-1zm0 1h6v4h-6z"/>
  <path d="m9 1v3h1v-1.8711c1.7654 0.45582 2.9991 2.0478 3 3.8711v1h1v-1c0-2.7614-2.2386-5-5-5zm-7 7v2c0 2.7614 2.2386 5 5 5v-3h-1v1.8711c-1.7654-0.45582-2.9991-2.0478-3-3.8711v-2z" opacity=".65"/>
 </g>
</svg>
