<svg width="16" height="16" version="1.1" xmlns="http://www.w3.org/2000/svg">
 <defs>
  <style id="current-color-scheme" type="text/css">.ColorScheme-Text { color:#f2f2f2; } .ColorScheme-Highlight { color:#4285f4; }</style>
 </defs>
 <path class="ColorScheme-Text" d="m6.334 2h1.277c-0.074 0.556-0.203 1.125-0.388 1.977 2.507-0.102 4.386-0.237 5.777-0.4v1.279c-1.168 0.133-3.095 0.066-6.055 0.199-0.296 1.185-0.686 3.217-1.168 4.29l0.112 0.055c1.37-0.925 2.336-1.388 3.298-1.388 1.223 0 2.168 0.296 2.834 0.888 0.667 0.593 0.979 1.352 0.979 2.278 0 1.074-0.404 1.489-1.256 2.045-0.815 0.518-2.038 0.777-3.668 0.777-1.022 0-1.957 6e-3 -3.076-0.055v-1.447c0.944 0.191 1.838 0.225 2.965 0.225 1.185 0 2.075-0.149 2.668-0.446 0.629-0.333 0.943-0.433 0.943-1.099 0-0.593-0.204-1.056-0.611-1.389-0.408-0.37-1-0.555-1.777-0.555-1.519 0-2.743 0.647-4.077 1.944l-1-0.778c0.593-0.962 1.11-3.425 1.555-5.388h-2.666v-1.032c0.96-5e-3 1.932-0.016 2.945-0.047zm-3.334-2c-1.662 0-3 1.338-3 3v10c0 1.662 1.338 3 3 3h9.9989c1.662 0 3-1.338 3-3v-10c0-1.662-1.338-3-3-3zm0 1h9.9989c1.108 0 2 0.892 2 2v10c0 1.108-0.892 2-2 2h-9.9989c-1.108 0-2-0.892-2-2v-10c0-1.108 0.892-2 2-2z" fill="currentColor"/>
</svg>
