<svg width="16" height="16" version="1.1" xmlns="http://www.w3.org/2000/svg">
 <defs>
  <style id="current-color-scheme" type="text/css"/>
 </defs>
 <path d="m2 2h5.549l-0.051 0.55s-0.328 3.52-1.225 6.13c0.583 0.87 1.14 1.769 1.838 3.009l-0.869 0.491c-0.45144-0.80332-0.92563-1.5936-1.422-2.37-1.394 3.121-3.365 4.483-3.365 4.483l-0.557-0.832s1.971-1.31 3.264-4.65c-0.765-1.11-1.635-2.23-3.053-4l0.782-0.622c1.18 1.47 1.973 2.492 2.668 3.452 0.55-1.9 0.798-4.001 0.869-4.641h-4.428zm6 0h6v0.5c0 2.15-0.833 4.97-1.707 6.91-0.111 0.25-0.242 0.46-0.367 0.69 0.624 1.09 1.46 2.12 2.844 3.232l-0.627 0.779c-1.282-1.034-2.147-2.04-2.803-3.06-1.393 1.984-3.104 3.033-3.104 3.033l-0.517-0.855s1.78-1.099 3.068-3.139c-0.33305-0.64945-0.62919-1.3172-0.887-2-0.758-1.95-1.208-4.5-1.31-5.09h-0.59zm1.607 1c0.14 0.77 0.569 3.03 1.227 4.73 0.173 0.45 0.351 0.87 0.539 1.28 0.757-1.68 1.442-4.16 1.551-6.01z" color="#f2f2f2" fill="currentColor"/>
 <path class="ColorScheme-Text" d="m3 0c-1.662 0-3 1.338-3 3v10c0 1.662 1.338 3 3 3h9.9989c1.662 0 3-1.338 3-3v-10c0-1.662-1.338-3-3-3zm0 1h9.9989c1.108 0 2 0.892 2 2v10c0 1.108-0.892 2-2 2h-9.9989c-1.108 0-2-0.892-2-2v-10c0-1.108 0.892-2 2-2z" color="#f2f2f2" fill="currentColor"/>
</svg>
