<svg width="16" height="16" version="1.1" viewBox="0 0 16 16" xmlns="http://www.w3.org/2000/svg">
 <style id="current-color-scheme" type="text/css">.ColorScheme-Text {
        color:#f2f2f2;
      }</style>
 <path class="ColorScheme-Text" d="m6.5946 4.0712e-4c-0.92057-0.01763-1.805 0.53575-2.146 1.4378-0.4071 1.0767-0.29125 2.2436-0.27426 3.3676 0.0055 0.36389-0.090237 0.69603-0.23655 1.0092-0.070002 0.08142-0.1395 0.1585-0.20617 0.22303-0.72318 0.8131-2.5207 2.95-1.9483 5.1394-0.14421 0.06455-0.31135 0.07221-0.49426 0.09385-0.21555 0.0255-0.45576 0.08135-0.6459 0.31164-0.16989 0.20023-0.19545 0.47423-0.21512 0.73231-0.019695 0.25837-0.035006 0.50594-0.12343 0.65833-0.25765 0.40799-0.34573 0.7093-0.28728 0.95506 0.058612 0.24645 0.26085 0.40019 0.50538 0.51921 0.48906 0.23804 1.1962 0.38159 1.6816 0.82367l2.782e-4 2.83e-4c0.51586 0.46476 1.0866 0.72462 1.5867 0.72817 0.41545 3e-3 0.78207-0.1874 0.99177-0.57138 0.18623 0.03399 0.38049 0.03033 0.57754-0.02677 0.66421-0.19249 1.3638-0.20241 2.043-0.05934 0.40698 0.08573 0.81314 0.0534 1.1979-0.06542 0.1636 0.31628 0.44227 0.53032 0.7791 0.62245 0.48718 0.13326 1.0904 0.02504 1.6683-0.33289l2.77e-4 -2.83e-4h5.43e-4c0.55905-0.35378 1.277-0.32255 1.7953-0.43613 0.25913-0.05679 0.48608-0.16169 0.57944-0.39638 0.09331-0.23458 0.04881-0.55618-0.1454-1.0382-0.06591-0.16654-0.03824-0.4155-0.01057-0.67793 0.02764-0.26223 0.05449-0.54239-0.07758-0.77675-0.14648-0.26774-0.37334-0.37224-0.58134-0.44192-0.20812-0.06972-0.39817-0.11484-0.53821-0.25312l-2.78e-4 -2.83e-4c-0.1524-0.15908-0.30273-0.3751-0.49344-0.54571-0.0018-0.0016-0.0039-0.0031-0.0057-0.0047-0.0072-0.30084-0.05582-0.60915-0.13455-0.91752 0.41877-0.56551 0.84316-1.1996 1.1589-1.8179 9.82e-4 -1.41e-4 2e-3 -1.29e-4 3e-3 -2.81e-4l0.23628-0.03395-0.06212-0.29894 0.03744-0.02981 0.77259-1.479c0.423 0.02259 0.88489-0.18694 1.1554-0.68621 0.58354-1.0772 1.2611-2.0575 1.2611-2.0575-1.8539 0.26842-3.2914 0.24214-3.3703 1.686-9e-3 0.16404 0.01543 0.31066 0.06402 0.43972l-1.0685 1.2739-0.0098 0.04279-0.3277 0.05299 0.0982 0.23546c-0.23575 0.28197-0.46372 0.59525-0.67872 0.91808-0.06272 0.09418-0.12411 0.18931-0.18447 0.28459 0.06009-0.09511 0.12159-0.19018 0.18447-0.28459-0.05377-0.09665-0.10799-0.19282-0.16358-0.28597-0.31261-0.6484-0.71885-1.2478-1.1171-1.8422-0.47932-0.7155-0.56518-1.5899-0.57293-2.4616-0.016108-1.8131-0.20592-3.6934-2.2589-3.7328zm0.87947 2.2665c0.16186-0.0098 0.32872 0.07422 0.4533 0.25146 0.12457 0.17725 0.20554 0.51396 0.20671 0.70608 0.00157 0.2606-0.090513 0.52271-0.19477 0.71354-0.027458 0.05027-0.060008 0.09177-0.094129 0.13001-0.11039-0.06565-0.20263-0.11984-0.25771-0.15182-0.038112-0.02213-0.043153-0.02557-0.059408-0.03533a0.321 0.59338 8.4552 0 0 0.22299-0.47477 0.321 0.59338 8.4552 0 0-0.25689-0.63018 0.321 0.59338 8.4552 0 0-0.37978 0.54737 0.321 0.59338 8.4552 0 0 0.00187 0.29259c-0.054062-0.02357-0.11247-0.04406-0.17551-0.05797-0.018161-4e-3 -0.037552-0.0062-0.056421-0.0092-0.018859-0.08129-0.034063-0.1644-0.03879-0.24981-0.014437-0.26035 0.037876-0.42781 0.14215-0.61886 0.10427-0.19105 0.32453-0.40345 0.48639-0.41322zm-2.1021 0.16148a0.93013 0.69491 82.706 0 1 0.028756 8.34e-4 0.93013 0.69491 82.706 0 1 0.70802 0.80628 0.93024 0.695 82.706 0 1-0.052362 0.57028c-0.037984 0.02844-0.075947 0.05746-0.11502 0.09136v2.83e-4h-2.772e-4c-0.076921 0.06751-0.15332 0.10713-0.25473 0.15899a0.55277 0.34205 80.636 0 0 0.15734-0.59236 0.55277 0.34205 80.636 0 0-0.37788-0.47256 0.55277 0.34205 80.636 0 0-0.29026 0.62245 0.55277 0.34205 80.636 0 0 0.46876 0.46401c-0.069118 0.0356-0.14668 0.07658-0.25011 0.1394-0.023498 0.01382-0.043261 0.02886-0.064017 0.04361a0.93024 0.695 82.706 0 1-0.59138-0.78641 0.93013 0.69491 82.706 0 1 0.63315-1.0462zm1.3588 1.2074c0.067349-0.0017 0.13043 0.0055 0.18935 0.01849 0.23568 0.05197 0.40594 0.20205 0.51054 0.28238 0.019655 0.0151 0.045767 0.02884 0.10878 0.06542 0.063005 0.03658 0.15764 0.09163 0.29406 0.17307 0.12202 0.07286 0.1727 0.18306 0.14974 0.32185-0.022957 0.13879-0.12772 0.30758-0.33638 0.46842l-2.782e-4 2.83e-4 -5.415e-4 2.81e-4c-0.1285 0.10259-0.20941 0.22928-0.30762 0.33483-0.098208 0.10555-0.21073 0.19276-0.41098 0.23104-0.23529 0.04463-0.41835-0.0071-0.58324-0.07895-0.16489-0.07179-0.30859-0.16644-0.46388-0.19764h-5.543e-4c-0.31895-0.06036-0.56184-0.23308-0.65377-0.41708-0.035586-0.07124-0.048893-0.14295-0.03879-0.21365 0.057344 0.01 0.13451 0.04119 0.22489 0.08777 0.10898 0.05618 0.23656 0.13156 0.37626 0.20619 0.2794 0.14926 0.60782 0.29694 0.94349 0.27962 0.33536-0.01731 0.59325-0.19233 0.77801-0.36077 0.09238-0.08422 0.16697-0.16714 0.2238-0.22828 0.028422-0.03057 0.052588-0.05565 0.071074-0.07204 0.018476-0.01639 0.033444-0.02074 0.0274-0.02043l-0.00383-0.0737c-0.030957 0.0016-0.048942 0.01849-0.071349 0.03837s-0.047183 0.04606-0.075958 0.07702c-0.057541 0.0619-0.13026 0.14282-0.21946 0.22414-0.1784 0.16264-0.42067 0.32587-0.73325 0.342-0.31227 0.01611-0.63035-0.1239-0.90632-0.27134-0.13799-0.07372-0.26544-0.14878-0.37734-0.20647-0.089324-0.04604-0.16764-0.08084-0.23818-0.09385 0.033375-0.08691 0.10645-0.17384 0.23682-0.25036h2.781e-4l2.781e-4 -2.83e-4c0.28099-0.17064 0.40884-0.19686 0.56045-0.32986 0.28375-0.24624 0.52443-0.33131 0.72647-0.33648zm1.2405 1.1334c0.035743 0.08682 0.066356 0.17988 0.086267 0.28514 0.18517 0.97906 0.38975 1.5848 1.3214 3.2003 0.096232 0.24667 0.16909 0.42292 0.25147 0.62714-0.064135-0.4864-0.25329-0.92376-0.38548-1.1844-0.56986-1.2253-0.00187-0.46961 0.25418 0.07646 0.18703 0.35548 0.40605 0.96645 0.53821 1.6507-0.56523 1.0042-0.94141 1.8618-0.94729 1.8754-0.082218 0.13586-0.12824 0.27071-0.12506 0.40576 0.00197 0.08606 0.030623 0.16962 0.075408 0.24125-0.50644 0.3799-0.53035 1.1259 0.00216 1.3962-0.05359 0.0786-0.1052 0.15306-0.15734 0.23325-0.075899 0.11673-0.14795 0.23523-0.21213 0.35442-1.119 0.80948-2.9071 0.9123-4.2346-0.5562-0.12516-0.27672-0.23862-0.53909-0.28131-0.7417l-2.781e-4 -8.33e-4v-2.83e-4c-0.095849-0.48126-0.19598-0.92516-0.34343-1.2844-0.024333-0.05926-0.050504-0.11563-0.077864-0.17031 0.10338-0.24907 0.1548-0.51087 0.13564-0.66965-0.071054-0.42313-0.37708-0.50918-1.0669-0.34807-0.58602 0.14383-0.94106 0.42804-0.79429 0.85818-0.026397 0.02279-0.052627 0.04287-0.07867 0.06348-0.19407-0.50429 0.20689-0.83685 0.88028-1.0056-0.09872-0.93134 0.43687-1.8767 0.94593-2.4912 0.01481 0.01955-0.022063 0.1306-0.15273 0.40218-0.28829 0.50351-0.57168 1.3243-0.44272 2.0222 0.097205-0.01377 0.18846-0.02349 0.26802-0.02374 0.046426-0.50565 0.16896-0.98244 0.37897-1.3666 0.40196-0.86928 1.4371-2.3371 1.4668-3.5544 0.13873 0.13661 0.34287 0.24242 0.58568 0.28845 0.12832 0.02577 0.27065 0.11594 0.44435 0.19157 0.17369 0.07562 0.3816 0.13392 0.63939 0.08501 0.22081-0.04222 0.35741-0.14646 0.46333-0.2603 0.10574-0.11364 0.18399-0.23409 0.29677-0.32434l5.415e-4 -5.52e-4c0.11504-0.08878 0.20295-0.18147 0.26531-0.27437zm4.9895 1.4111c0.05487 0.0464 0.11512 0.08588 0.17904 0.11924l-0.67872 1.2996-0.15951 0.12753c-0.05357-0.0273-0.10718-0.05157-0.16141-0.09357-0.07127-0.05521-0.09148-0.10357-0.14703-0.16645l0.04178-0.18218 0.92586-1.1041zm-1.307 1.6195c0.06611 0.06791 0.13736 0.13352 0.2162 0.1946 0.08204 0.06356 0.16916 0.12379 0.26124 0.17169-0.86634 1.6222-2.5367 3.4404-2.5511 3.4559-0.10169 0.09069-0.16723 0.07293-0.16928 0.07481 1.9e-6 -0.0014 3.204e-4 8.2e-5 2.781e-4 -0.0019-5.002e-4 -0.02122 0.00953-0.0818 0.066189-0.17114l0.00924-0.01463 0.00708-0.01573s1.0189-2.2771 2.1601-3.6936zm-0.41505 2.54c-0.07774 0.10159-0.15365 0.19887-0.22896 0.29397 0.0751-0.09479 0.15142-0.1927 0.22896-0.29397zm-9.146 0.85708c0.23397 0.42161 0.7395 0.77188 1.1423 0.59512 0.15605-0.06666 0.28982-0.21688 0.39416-0.3961 0.00364 0.0085 0.00757 0.0162 0.011125 0.02484 0.13788 0.33589 0.23756 0.77127 0.33285 1.2499l2.781e-4 5.51e-4v2.83e-4c0.077815 0.37081 0.3204 0.82182 0.51216 1.2684 0.19177 0.44654 0.32281 0.88124 0.22706 1.1723l-2.781e-4 0.0011-2.772e-4 0.0011c-0.14951 0.49114-0.48377 0.69786-0.91989 0.69477-0.43598-0.0031-0.97303-0.23862-1.463-0.67986-0.53655-0.48867-1.2764-0.63484-1.7256-0.85348-0.22459-0.10932-0.36433-0.22549-0.40393-0.39196-0.039586-0.16648 0.017474-0.42001 0.26422-0.80987l0.001081-0.0016 8.2061e-4 -0.0016c0.12505-0.21553 0.12988-0.48707 0.1492-0.74059 0.019321-0.25352 0.051821-0.48372 0.17009-0.62272l5.4248e-4 -5.52e-4 5.4052e-4 -5.5e-4c0.15152-0.18381 0.32143-0.2211 0.52437-0.24512 0.20294-0.02401 0.43528-0.02478 0.64861-0.16231l0.00108-8.33e-4 0.00108-5.52e-4c0.045197-0.03092 0.088586-0.06527 0.1313-0.10047zm9.4753 0.06045c0.12357 0.13335 0.24109 0.28916 0.37029 0.42371l8.19e-4 8.34e-4 0.0011 8.33e-4c0.18476 0.18269 0.41406 0.23207 0.61036 0.29784 0.19631 0.06576 0.35873 0.13777 0.47663 0.35387l2.78e-4 8.33e-4 5.54e-4 5.52e-4c0.09273 0.16419 0.08095 0.40316 0.05371 0.66164-0.02724 0.25848-0.0707 0.53197 0.02333 0.76957v2.83e-4l2.78e-4 2.83e-4c0.18671 0.46316 0.20662 0.74004 0.14513 0.89462-0.06149 0.15457-0.20876 0.22974-0.44516 0.28155-0.47281 0.10362-1.2318 0.06621-1.8547 0.46042-0.5424 0.33574-1.0969 0.42716-1.5213 0.31109-0.42451-0.11611-0.72402-0.42678-0.78726-0.9443v-0.0011l-2.772e-4 -0.0011c-0.044922-0.31125 0.14734-0.69865 0.39986-1.087 0.059516-0.09154 0.12156-0.1803 0.18392-0.27078 0.2596 0.06491 0.6083 0.04005 1.0525-0.13112 0.88028-0.51308 1.2424-1.2333 1.2899-2.0225zm-1.1665 0.11538c-0.03017 0.0352-0.0517 0.0601-0.07975 0.09247 0.02603-0.03 0.0519-0.06003 0.07975-0.09247zm-0.31278 0.35746c-0.11354 0.12683-0.19369 0.21448-0.19369 0.21448s0.10871-0.1204 0.19369-0.21448zm-1.0026 0.27934c0.019223 0.02132 0.039173 0.042 0.062121 0.05852-0.023046-0.01658-0.043438-0.0366-0.062121-0.05852z" fill="currentColor"/>
</svg>
