<svg width="16" height="16" version="1.1" xmlns="http://www.w3.org/2000/svg">
 <defs>
  <style id="current-color-scheme" type="text/css"/>
 </defs>
 <path d="m10.799 2.057 0.873 0.697c-0.032 0.053-0.059 0.1-0.08 0.143-0.0411 0.20017-0.0069 0.40847 0.096 0.585 0.512 0.393 0.816 0.861 1.144 1.366 0.087 0.186 0.186 0.37 0.201 0.566 0.035 0.453-0.147 0.836-0.443 1.143-0.296 0.306-1.121 0.459-1.871 0.459-0.201 0-0.497-0.028-0.719-0.08v3.703c0.19-0.053 0.461-0.121 0.641-0.205 0.19-0.085 0.385-0.18 0.586-0.286l0.412 1.063c-0.2541 0.11621-0.513 0.22164-0.776 0.316-0.253 0.085-0.599 0.16-0.863 0.223v3.25h-1v-3.061c-0.306 0.043-1.827 0.112-2.102 0.112-0.983 0-1.839-0.143-2.568-0.428-0.73-0.296-1.3-0.73-1.713-1.301-0.401-0.57-0.617-1.384-0.617-2.24 0.022768-0.5226 0.21316-1.024 0.543-1.43 0.603-0.764 1.319-1.132 2.137-1.437 0.349-0.095 0.755-0.12 1.22-0.152 0.56982-0.045701 1.1414-0.066721 1.713-0.063h1.387c-0.032-0.497-0.215-1.3-0.5-1.533-0.275-0.233-0.63-0.348-1.063-0.348-0.412 0-0.724 0.08-0.935 0.238-0.20571 0.13696-0.3254 0.37104-0.316 0.618 0 0 0.015 0.206 0.015 0.238l-1.127 0.143c-0.02-0.096-0.031-0.493-0.031-0.493 0-0.581 0.207-1.025 0.62-1.332 0.411-0.306 0.976-0.459 1.694-0.459 1.1 0 1.86 0.444 2.284 1.332 0.30727-0.5111 0.6988-0.96652 1.158-1.347zm-0.096 1.617c-0.264 0.317-0.518 0.629-0.592 0.935-0.074 0.307-0.111 0.24-0.111 0.6v0.697c0.17 0.034 0.44 0.063 0.656 0.063 0.349 0 0.892-0.058 1.03-0.174 0.132-0.185 0.169-0.337 0.158-0.477-0.05-0.275-0.162-0.5-0.305-0.712-0.218-0.39-0.563-0.658-0.836-0.932zm-2.978 2.326c-0.74 0-1.334 0.02-1.778 0.063-0.36076 0.028081-0.7171 0.097537-1.062 0.207-0.24939 0.080075-0.48866 0.1888-0.713 0.324-0.587 0.471-0.848 0.886-0.902 1.338-0.022 0.303-0.084 0.562-0.04 0.787 0.202 1.013 0.78 1.359 1.545 1.826 0.56 0.254 1.31 0.379 2.25 0.379 0.286 0 1.71-0.047 1.975-0.078v-4.846z" color="#f2f2f2" fill="currentColor"/>
 <path class="ColorScheme-Text" d="m3 0c-1.662 0-3 1.338-3 3v10c0 1.662 1.338 3 3 3h9.9989c1.662 0 3-1.338 3-3v-10c0-1.662-1.338-3-3-3zm0 1h9.9989c1.108 0 2 0.892 2 2v10c0 1.108-0.892 2-2 2h-9.9989c-1.108 0-2-0.892-2-2v-10c0-1.108 0.892-2 2-2z" color="#f2f2f2" fill="currentColor"/>
</svg>
