<svg width="16" height="16" version="1.1" xmlns="http://www.w3.org/2000/svg">
 <defs>
  <style id="current-color-scheme" type="text/css"/>
 </defs>
 <path d="m2 4h1v4.293l2.293-2.293h0.707v-2h1v4.293l2.293-2.293h1.414l-3 3 3 3h-1.414l-2.293-2.293v2.293h-1.707l-2.293-2.293v2.293h-1zm10 2c0.583 0 1.111 0.154 1.479 0.521 0.367 0.368 0.521 0.896 0.521 1.479h-1c0-0.417-0.096-0.64-0.229-0.771-0.132-0.133-0.354-0.229-0.771-0.229s-0.639 0.096-0.771 0.229c-0.133 0.131-0.229 0.354-0.229 0.771v2c0 0.417 0.096 0.639 0.229 0.771 0.132 0.133 0.354 0.229 0.771 0.229s0.639-0.096 0.771-0.229c0.133-0.132 0.229-0.354 0.229-0.771h1c0 0.583-0.154 1.111-0.521 1.479-0.368 0.367-0.896 0.521-1.479 0.521s-1.111-0.154-1.479-0.521c-0.367-0.368-0.521-0.896-0.521-1.479v-2c0-0.583 0.154-1.11 0.521-1.479 0.368-0.367 0.896-0.521 1.479-0.521zm-6 0.707-2.293 2.293 2.293 2.293z" color="#f2f2f2" fill="currentColor"/>
 <path class="ColorScheme-Text" d="m3 0c-1.662 0-3 1.338-3 3v10c0 1.662 1.338 3 3 3h9.9989c1.662 0 3-1.338 3-3v-10c0-1.662-1.338-3-3-3zm0 1h9.9989c1.108 0 2 0.892 2 2v10c0 1.108-0.892 2-2 2h-9.9989c-1.108 0-2-0.892-2-2v-10c0-1.108 0.892-2 2-2z" color="#f2f2f2" fill="currentColor"/>
</svg>
