<svg width="16" height="16" version="1.1" xmlns="http://www.w3.org/2000/svg">
 <defs>
  <style id="current-color-scheme" type="text/css"/>
 </defs>
 <path d="m7 2h1v6.982c1.811-0.081 2.721-0.606 3.262-1.492 0.59-0.965 0.738-2.51 0.738-4.49h1c0 2.02-0.102 3.725-0.887 5.01-0.726 1.189-2.063 1.874-4.113 1.97v3.02h5v1h-11v-1h5v-3.02c-2.05-0.096-3.387-0.78-4.113-1.97-0.785-1.285-0.887-2.99-0.887-5.01h1c0 1.98 0.148 3.525 0.738 4.49 0.542 0.886 1.452 1.41 3.262 1.492z" color="#f2f2f2" fill="currentColor"/>
 <path class="ColorScheme-Text" d="m3 0c-1.662 0-3 1.338-3 3v10c0 1.662 1.338 3 3 3h9.9989c1.662 0 3-1.338 3-3v-10c0-1.662-1.338-3-3-3zm0 1h9.9989c1.108 0 2 0.892 2 2v10c0 1.108-0.892 2-2 2h-9.9989c-1.108 0-2-0.892-2-2v-10c0-1.108 0.892-2 2-2z" color="#f2f2f2" fill="currentColor"/>
</svg>
