<svg width="16" height="16" version="1.1" viewBox="0 0 16 16" xmlns="http://www.w3.org/2000/svg">
 <style id="current-color-scheme" type="text/css">.ColorScheme-Text {
        color:#f2f2f2;
      }
      .ColorScheme-Background {
        color:#eff0f1;
      }
      .ColorScheme-Highlight {
        color:#3daee9;
      }
      .ColorScheme-ButtonText {
        color:#f2f2f2;
      }</style>
 <path class="ColorScheme-Text" d="m8 0c-3.3078 0-6 2.6922-6 6-4.047e-4 0.018903 2.631e-4 0.037813 2e-3 0.05664 0.0144 2.3215 0.86034 3.5093 1.6191 4.3945 0.76527 0.89287 1.3789 1.4417 1.3789 3.0488v0.5 1h2v1h2v-1h2v-1-0.5c0-1.6071 0.63385-2.304 1.3906-3.25 0.74894-0.93616 1.5881-2.1039 1.6055-4.1875 0.0026-0.020729 4e-3 -0.041604 4e-3 -0.0625 0-3.3078-2.6922-6-6-6zm0 1c2.7673 0 5 2.2327 5 5 0 1.875-0.64741 2.696-1.3906 3.625-0.66238 0.82796-1.3366 1.8434-1.4942 3.375h-4.2344c-0.16424-1.5039-0.84931-2.4398-1.502-3.2012-0.73469-0.85714-1.3789-1.6599-1.3789-3.7988 0-2.7673 2.2326-5 5-5zm-1.8535 5.1465-1.5 1.5 0.70704 0.70703 1.1465-1.1465 1.1465 1.1465h0.70704l1.1465-1.1465 1.1465 1.1465 0.70704-0.70703-1.5-1.5h-0.70704l-1.1465 1.1465-1.1465-1.1465z" fill="currentColor"/>
</svg>
