<svg width="16" height="16" version="1.1" xmlns="http://www.w3.org/2000/svg">
 <defs>
  <style id="current-color-scheme" type="text/css"/>
 </defs>
 <path d="m7.898 2.502c1.3329-0.025919 2.6298 0.43362 3.649 1.293l-1.291 1.53c-1.338-1.1373-3.3128-1.1026-4.61 0.081-1.3037 1.1771-1.5294 3.1397-0.527 4.582 0.99344 1.4478 2.9082 1.9314 4.47 1.129 0.84825-0.43299 1.4803-1.1967 1.747-2.111h-3.336v-2l5.398-6e-3c0.434 2.355-0.709 4.781-2.898 5.898-2.4552 1.2485-5.4551 0.49221-7.025-1.771-1.5619-2.2695-1.2097-5.3435 0.825-7.201 0.9865-0.89538 2.2649-1.4015 3.597-1.424z" color="#f2f2f2" fill="currentColor"/>
 <path class="ColorScheme-Text" d="m3 0c-1.662 0-3 1.338-3 3v10c0 1.662 1.338 3 3 3h9.9989c1.662 0 3-1.338 3-3v-10c0-1.662-1.338-3-3-3zm0 1h9.9989c1.108 0 2 0.892 2 2v10c0 1.108-0.892 2-2 2h-9.9989c-1.108 0-2-0.892-2-2v-10c0-1.108 0.892-2 2-2z" color="#f2f2f2" fill="currentColor"/>
</svg>
