<svg width="16" height="16" version="1.1" xmlns="http://www.w3.org/2000/svg">
 <defs>
  <style id="current-color-scheme" type="text/css"/>
 </defs>
 <path d="m3 0c-1.662 0-3 1.338-3 3v10c0 1.662 1.338 3 3 3h7 2.998 1.002c1.108 0 2-0.892 2-2v-4c0-0.01385-0.001676-0.027234-0.001953-0.041016v-6.959c0-1.662-1.338-3-3-3h-9.998zm0 1h9.998c1.108 0 2 0.892 2 2v5.2656c-0.29355-0.16879-0.63379-0.26562-0.99805-0.26562h-2v-3h2v-1h-2.375l1.2754-1.6992-0.80078-0.60156-1.5 2 0.39844 0.30078h-1.9961l0.39844-0.30078-1.5-2-0.80078 0.60156 1.2754 1.6992h-1.375v1h1v3h-1.8828l0.10547-0.050781-0.44531-0.89844-0.77734 0.38867v-2.4395h1v-1h-1v-2h-1v2h-2v1h2v2.9395l-2.2227 1.1113 0.44531 0.89844 1.7773-0.88867v3.9395h-2v1h3v-5.4395l1-0.5v0.93945h1.9609c-0.089 0.9-0.39197 1.6105-0.79297 2.3105-0.497 0.86-1.5098 1.8262-1.5098 1.8262l0.68359 0.72852s1.0341-0.95151 1.6582-2v2.1348c0 0.36522 0.097953 0.70592 0.26758 1h-5.2676c-1.108 0-2-0.892-2-2v-10c0-1.108 0.892-2 2-2zm6 4h2v3h-2v-3zm0.86328 5.8594c0.2069 0 0.4227 0.045087 0.59961 0.12305l-0.11133 0.30469c-0.14992-0.05697-0.33885-0.089843-0.50977-0.089843-0.26087 0-0.4043 0.091079-0.4043 0.25 0 0.41979 1.0957 0.15753 1.0957 0.91016 0 0.3898-0.30771 0.64258-0.81445 0.64258-0.23988 0-0.49686-0.062114-0.71875-0.16406l0.11133-0.3125c0.2069 0.086955 0.43805 0.12891 0.62695 0.12891 0.25487 0 0.38867-0.093171 0.38867-0.24609 0-0.42279-1.0918-0.18975-1.0918-0.90039 0-0.3928 0.33337-0.64648 0.82812-0.64648zm1.0664 0.029297h0.38672v1.2715c0 0.31484 0.17944 0.50391 0.48828 0.50391 0.28186 1e-6 0.44726-0.16736 0.44726-0.44922v-1.3262h0.38086v1.2812c0 0.50075-0.34531 0.83008-0.87305 0.83008-0.51274 0-0.83008-0.3128-0.83008-0.81055v-1.3008zm2.25 0h0.44336l1.0059 1.5469 0.001953-1.5469h0.36914v2.082h-0.43164l-1.0234-1.5547v1.5547h-0.36523v-2.082z" fill="#f2f2f2"/>
</svg>
