<svg width="16" height="16" version="1.1" xmlns="http://www.w3.org/2000/svg">
 <style id="current-color-scheme" type="text/css">.ColorScheme-Text {
        color:#f2f2f2;
      }
      .ColorScheme-Background {
        color:#eff0f1;
      }
      .ColorScheme-Highlight {
        color:#3daee9;
      }
      .ColorScheme-ButtonText {
        color:#f2f2f2;
      }</style>
 <path class="ColorScheme-Text" d="m3.8106 0.40625c-0.50782 1.3672-1.3477 2.5976-2.5195 3.6914l0.99609 0.76172c0.19531-0.0391 0.74219-0.72266 1.6406-2.0508h0.76172c0.42969 0.625 0.80078 1.2695 1.1133 1.9336l1.1719-0.64453-0.9375-1.2891h2.0508v-1.1133h-3.6328l0.46875-0.9375zm6.0352 0c-0.46875 1.3281-1.2695 2.5391-2.4023 3.6328l0.99609 0.76172c0.66407-0.625 1.1719-1.2891 1.5234-1.9922h0.99609c0.42969 0.58594 0.80079 1.2109 1.1133 1.875l1.0547-0.64453c-0.27343-0.42968-0.5664-0.83984-0.8789-1.2305h2.4609v-1.1133h-4.1602c0.15625-0.3125 0.29297-0.625 0.41015-0.9375zm-5.4492 4.1016-0.99609 0.58594c0.54688 0.54687 0.95703 1.0938 1.2305 1.6406l1.1133-0.58594c-0.35156-0.58594-0.80078-1.1328-1.3477-1.6406zm1.9922 0.52735v0.99609h6.3867v6.0352c0 0.54687-0.13672 0.82031-0.41016 0.82031-0.39062 0-0.89843-0.0195-1.5234-0.0586l0.29297 1.1133c0.54687 0.0391 1.0156 0.0586 1.4062 0.0586 0.46875 0 0.82031-0.13672 1.0547-0.41016 0.23438-0.27343 0.35157-0.66406 0.35157-1.1719v-7.3828h-7.5586zm-3.9844 1.582v7.3828h1.1719v-7.3828zm2.8711 0.64453v5.0391h5.3906v-5.0391zm1.1133 0.99609h3.1641v0.9961h-3.1641zm0 1.9336h3.1641v1.1133h-3.1641zm-6.3887 4.8086v1h16v-1z" fill="currentColor"/>
</svg>
