<svg width="16" height="16" version="1.1" xmlns="http://www.w3.org/2000/svg">
 <defs>
  <style id="current-color-scheme" type="text/css"/>
 </defs>
 <path d="m10.031 0.992 1 0.016c-0.01 0.68 0.012 1.338 0.037 1.992h2.932v1h-2.883c0.149 2.308 0.482 4.4 0.89 6.033 0.291 1.158 0.617 2.094 0.913 2.71 0.148 0.307 0.293 0.534 0.396 0.655 0.047 0.055-1e-3 0.03 0.012 0.04 0.238-0.064 0.371-0.154 0.479-0.43 0.121-0.313 0.176-0.812 0.183-1.375l1 0.012c-8e-3 0.606-0.047 1.197-0.252 1.724s-0.66 1-1.302 1.111c-0.02646 0.0041-0.05322 0.0061-0.08 6e-3 -0.373 5e-3 -0.608-0.212-0.801-0.44-0.194-0.226-0.364-0.514-0.535-0.87-0.343-0.712-0.679-1.696-0.98-2.9-0.43-1.714-0.775-3.883-0.925-6.276h-8.115v-1h8.07c-0.024-0.66-0.049-1.322-0.039-2.008zm2.969 8e-3c0.417 0.379 0.758 0.777 1.023 1.193l-0.966 0.569c-0.25264-0.45131-0.55812-0.87093-0.91-1.25zm-10 4h6v1h-6zm0 2h6v1h-6zm0 2h6v3h-1v-2h-4v2h-1zm2.01 2h1.082c-0.083 1.204-0.384 2.115-0.93 2.693-0.644 0.72-1.8 1.155-3.467 1.307l-0.455-0.967c1.516-0.151 2.52-0.493 3.012-1.023 0.43-0.43 0.676-1.108 0.758-2.01zm1.693 0.998c0.947 0.455 1.82 0.986 2.615 1.592l-0.797 0.91c-0.7638-0.64818-1.6032-1.2015-2.5-1.648z" color="#f2f2f2" fill="currentColor"/>
 <path class="ColorScheme-Text" d="m3 0c-1.662 0-3 1.338-3 3v10c0 1.662 1.338 3 3 3h9.9989c1.662 0 3-1.338 3-3v-10c0-1.662-1.338-3-3-3zm0 1h9.9989c1.108 0 2 0.892 2 2v10c0 1.108-0.892 2-2 2h-9.9989c-1.108 0-2-0.892-2-2v-10c0-1.108 0.892-2 2-2z" color="#f2f2f2" fill="currentColor"/>
</svg>
