<svg version="1.1" viewBox="0 0 16 16" xmlns="http://www.w3.org/2000/svg"><defs><style id="current-color-scheme" type="text/css">.ColorScheme-NegativeText {
     color:#da4453;
   }</style></defs><g transform="translate(-326 -534.36)"><path class="ColorScheme-NegativeText" d="m329 535.36c-1.662 0-3 1.338-3 3v8c0 1.662 1.338 3 3 3h10c1.662 0 3-1.338 3-3v-8c0-1.662-1.338-3-3-3h-10zm0 1h10c1.108 0 2 0.892 2 2v8c0 1.108-0.892 2-2 2h-10c-1.108 0-2-0.892-2-2v-8c0-1.108 0.892-2 2-2zm4.9336 1.998a4 4 0 0 0-2.9512 1.373 4 4 0 0 0 0.28906 5.5508 4 4 0 0 0 5.5586-0.09571l0.36328-0.41992a4 4 0 0 0-0.67383-5.5156 4 4 0 0 0-2.5859-0.89258zm-0.08203 1.0469a3 3 0 0 1 2.2754 0.83594 3 3 0 0 1 0.31641 3.8535l-4.1406-4.1406a3 3 0 0 1 1.5488-0.54883zm-2.2559 1.2559 4.1035 4.1016a3 3 0 0 1-3.8242-0.28711 3 3 0 0 1-0.2793-3.8144z" fill="currentColor"/></g></svg>
