<svg width="16" height="16" viewBox="0 0 16 16" fill="none" xmlns="http://www.w3.org/2000/svg">
<style type="text/css" id="current-color-scheme">
.ColorScheme-Text {
  color:#ffffff;
}
</style>
<path fill="currentColor" d="M3.31079 3.91986C3.55909 3.92884 3.81278 3.95211 4.05999 3.99479C4.79861 4.12229 5.68132 4.46299 5.97428 5.34189L6.0806 5.66083L5.82534 5.87963C5.30297 6.32737 4.61508 7.24809 4.35494 8.14C4.22646 8.5805 4.21709 8.96279 4.32839 9.26439C4.43282 9.54736 4.66885 9.82905 5.18564 10.0358C6.82859 10.6929 8.19957 11.5451 9.19147 12.3785L8.1885 9.03526L9.22355 9.55279C9.87532 9.87867 10.8712 10.315 11.7408 10.5702C11.8951 10.6156 12.0413 10.6539 12.1776 10.6847L8.34233 8H6.99994V7H8.49994C8.76695 7 9.10184 6.88566 9.49519 6.63893C9.88265 6.39589 10.2866 6.04974 10.6812 5.64913C11.0878 5.23639 11.4715 4.77911 11.803 4.3447L7.1147 5.62333L7.00965 5.09806C6.7787 3.94332 7.11214 3.12493 7.71559 2.61736C7.74088 2.59609 7.76649 2.57549 7.7924 2.55554C7.46407 2.51439 7.17714 2.5 6.99994 2.5C5.91578 2.5 4.92115 2.87709 4.10749 3.36606C3.81291 3.54309 3.54581 3.73257 3.31079 3.91986ZM9.65282 7.69669L14.1401 10.8378L13.9472 11.2236C13.7065 11.7049 13.172 11.7795 12.8094 11.775C12.4047 11.7699 11.9281 11.6674 11.4591 11.5298C10.9101 11.3686 10.3252 11.145 9.79772 10.9192L10.7877 14.2191C10.9173 14.4781 10.9999 14.7434 10.9999 15L10.021 15.1437L9.8574 14.5982C9.81667 14.5242 9.76537 14.4413 9.70129 14.3494C9.47671 14.0276 9.13363 13.6517 8.67704 13.2543C7.76516 12.4606 6.43899 11.6141 4.81424 10.9642C4.08103 10.671 3.60873 10.2026 3.39024 9.61061C3.17863 9.03721 3.23175 8.4195 3.39494 7.86C3.66912 6.91995 4.29518 6.00063 4.87214 5.40624C4.68795 5.21035 4.36471 5.06218 3.88989 4.98021C3.26099 4.87165 2.54513 4.91603 2.08214 4.9932L0.793213 5.20802L1.60951 4.18765C1.97979 3.7248 2.67475 3.0604 3.59239 2.50894C4.51206 1.95625 5.6841 1.5 6.99994 1.5C7.27638 1.5 7.72815 1.5271 8.21748 1.60645C8.70191 1.685 9.25849 1.82026 9.72355 2.05279L9.49994 3C9.15873 3 8.68721 3.10682 8.35929 3.38264C8.14007 3.56703 7.94302 3.86086 7.93563 4.36291L14.1012 2.6814L13.4239 3.765C12.9929 4.45461 12.2461 5.48547 11.3937 6.35087C10.9674 6.78359 10.5026 7.18744 10.0266 7.48607C9.90528 7.56215 9.78045 7.63317 9.65282 7.69669Z" class="ColorScheme-Text"/>
</svg>
