<svg width="16" height="16" version="1.1" xmlns="http://www.w3.org/2000/svg">
 <defs>
  <style id="current-color-scheme" type="text/css">.ColorScheme-Text { color:#f2f2f2; } .ColorScheme-Highlight { color:#5294e2; }</style>
 </defs>
 <path class="ColorScheme-Text" d="m5 0c-1.108 0-2 0.892-2 2v12c0 1.108 0.892 2 2 2h6c1.108 0 2-0.892 2-2v-12c0-1.108-0.892-2-2-2h-6zm0 1h1c0 0.554 0.446 1 1 1h2c0.554 0 1-0.446 1-1h1c0.554 0 1 0.446 1 1v12c0 0.554-0.446 1-1 1h-6c-0.554 0-1-0.446-1-1v-12c0-0.554 0.446-1 1-1z" fill="currentColor"/>
 <rect class="ColorScheme-Text" x="6" y="13.5" width="4" height=".5" rx=".25" ry=".25" fill="currentColor" opacity=".5"/>
 <path class="ColorScheme-Text" d="m6.6501 5a0.33375 0.33373 0 1 0 0.01725 0zm2.3505 0-0.6675 0.66671 1.3342 1.3334-1.3335 1.3334 0.66675 0.66596 1.3335-1.3327 0.666-0.66746-0.666-0.66596zm-3.3338 2.0001a0.66675 0.66671 0 1 0 0 1.3334 0.66675 0.66671 0 0 0 0-1.3334m1.6672 1.9994a1.0005 1.0004 0 1 0 0 2.0001 1.0005 1.0004 0 0 0 0-2.0001" fill="currentColor"/>
</svg>
