<svg width="16" height="16" version="1.1" xmlns="http://www.w3.org/2000/svg">
 <defs>
  <style id="current-color-scheme" type="text/css">.ColorScheme-Text { color:#f2f2f2; } .ColorScheme-Highlight { color:#4285f4; } .ColorScheme-NeutralText { color:#ff9800; } .ColorScheme-PositiveText { color:#4caf50; } .ColorScheme-NegativeText { color:#f44336; }</style>
 </defs>
 <circle class="ColorScheme-Highlight" cx="14.5" cy="1.5" r="1.5" fill="currentColor"/>
 <path class="ColorScheme-Text" d="m8 1a7 7 0 0 0-7 7 7 7 0 0 0 7 7 7 7 0 0 0 7-7 7 7 0 0 0-7-7zm0 1a6 6 0 0 1 6 6 6 6 0 0 1-6 6 6 6 0 0 1-6-6 6 6 0 0 1 6-6zm-0.51953 1.375c-0.01817 1.42e-5 -0.036079 2.106e-4 -0.052734 0.00195-0.16752 0.017029-0.33385 0.029334-0.49609 0.0625-0.32572 0.066619-0.63623 0.15465-0.93555 0.28125-1.4305 0.60497-2.5081 1.8589-2.8926 3.3906 0.00986 0.010766 0.019887 0.019103 0.03125 0.03125 0.26838 0.28664 0.97079 0.68243 1.4922 0.87109 0.28514 0.1032 0.83785 0.26647 1.2148 0.34375 0.32989 0.06749 0.56379 0.13467 0.5918 0.15234v0.0039h-0.00195c-0.037139 0.0030294-0.20542 0.1286-0.37305 0.27931-0.31974 0.28747-0.48487 0.53918-0.62305 0.99414-0.075818 0.24911-0.067436 0.3339 0.03125 0.46875 0.059551 0.08126 0.32694 0.27159 0.5918 0.43555 0.26487 0.16396 0.57508 0.39097 0.68555 0.49805 0.41153 0.39883 0.68359 1.1118 0.68359 1.8047 0 0.1773 0.018293 0.26826 0.03125 0.30859 0.033661 0.0031 0.05804-0.0031 0.091797 0 0.076179-0.02938 0.19148-0.06142 0.37305-0.15234 1.5212-0.76151 2.2189-1.7462 2.1504-3.0508-0.054569-1.0403-0.54502-1.4166-2.5234-1.8359-1.4568-0.30881-2.2383-0.83396-2.2383-1.4941 0-0.17409 0.057849-0.27663 0.24805-0.4668 0.20442-0.20444 0.24823-0.21908 0.40625-0.1875 0.10063 0.020114 0.3588 0.15429 0.55859 0.3125 0.44975 0.35614 0.66974 0.49805 0.90234 0.49805 0.080506 0 0.15552-0.01142 0.17969-0.023437l0.0039-0.0039h0.00195v-0.0078c-0.0082819-0.025098-0.078108-0.1317-0.15429-0.24416-0.44904-0.66163-0.42133-1.9001 0.0625-2.957 0.075982-0.16593 0.13104-0.28065 0.12305-0.3125-0.050412 3e-3 -0.10955-2e-3 -0.16406-0.00195zm4.5996 2.334c-0.1414 0.018244-0.81924 0.73642-0.98047 1.0605-0.33544 0.67438-0.20899 1.1159 0.5918 1.9609 0.27743 0.29272 0.61033 0.68788 0.71484 0.87305 0.09144 0.16205 0.17397 0.29871 0.20898 0.3125h6e-3l6e-3 -0.00585c0.02656-0.036765 0.09667-0.24251 0.15234-0.46289 0.15098-0.5977 0.16276-1.6405 0-2.2422-0.12634-0.46606-0.56691-1.4199-0.68388-1.4922l-2e-3 -0.00195h-2e-3c-8.63e-4 -2.363e-4 -0.0049-0.00182-0.0059-0.00195-1e-3 -4.1e-5 -0.0048-5.49e-5 -0.0059 0z" fill="currentColor"/>
</svg>
