<svg width="16" height="16" version="1.1" xmlns="http://www.w3.org/2000/svg">
 <defs>
  <style id="current-color-scheme" type="text/css">.ColorScheme-Text { color:#ffffff; } .ColorScheme-Highlight { color:#5294e2; }</style>
 </defs>
 <path class="ColorScheme-Text" d="m8 0a8 8 0 0 0-8 8 8 8 0 0 0 8 8 8 8 0 0 0 3.293-0.71094 3 3 0 0 1-0.27539-0.97266 7 7 0 0 1-3.0176 0.68359 7 7 0 0 1-7-7 7 7 0 0 1 6.9062-7 7 7 0 0 1 0.09375 0 7 7 0 0 1 7 7 7 7 0 0 1-0.68359 3.0176 3 3 0 0 1 0.97461 0.27344 8 8 0 0 0 0.70898-3.291 8 8 0 0 0-8-8zm-1 4v2h2v-2h-2zm0 3v5h2v-5h-2z" fill="currentColor"/>
 <circle class="ColorScheme-Highlight" cx="14" cy="14" r="2" fill="currentColor"/>
</svg>
