<svg width="16" height="16" version="1.1" xmlns="http://www.w3.org/2000/svg">
 <defs>
  <style id="current-color-scheme" type="text/css">.ColorScheme-Text { color:#dfdfdf; } .ColorScheme-Highlight { color:#4285f4; } .ColorScheme-NeutralText { color:#ff9800; } .ColorScheme-PositiveText { color:#4caf50; } .ColorScheme-NegativeText { color:#f44336; }</style>
 </defs>
 <path d="m3 1c-1.108 0-2 0.892-2 2v10c0 1.108 0.892 2 2 2h10c1.108 0 2-0.892 2-2v-10c0-1.108-0.892-2-2-2zm0 1h1v2c0 0.554 0.446 1 1 1h6c0.554 0 1-0.446 1-1v-2h1c0.554 0 1 0.446 1 1v10c0 0.554-0.446 1-1 1h-10c-0.554 0-1-0.446-1-1v-10c0-0.554 0.446-1 1-1zm2 0h1v1h1v-1h2v1h1v-1h1v2h-6z" fill="#dedede"/>
 <path d="m4 10c-0.554 0-1 0.446-1 1v1c0 0.554 0.446 1 1 1v-2h1v2h1v-2h1v2c0.554 0 1-0.446 1-1v-1c0-0.554-0.446-1-1-1zm6 0c-0.554 0-1 0.446-1 1v1c0 0.554 0.446 1 1 1h2c0.554 0 1-0.446 1-1v-1c0-0.554-0.446-1-1-1zm0 1h2v1h-2z" fill="#4285f4"/>
</svg>
