<svg width="16" height="16" version="1.1" viewBox="0 0 16 16" xmlns="http://www.w3.org/2000/svg">
 <path d="m3 1c-1.662 0-3 1.338-3 3v5c0 1.662 1.338 3 3 3h3v2h-1.5c-0.277 0-0.5 0.223-0.5 0.5s0.223 0.5 0.5 0.5h7c0.277 0 0.5-0.223 0.5-0.5s-0.223-0.5-0.5-0.5h-2.5v-2h3v-1h-9c-1.108 0-2-0.892-2-2v-5c0-1.108 0.892-2 2-2h7v-1zm9 0c-0.554 0-1 0.446-1 1v5c0 0.554 0.446 1 1 1h1v6.5c0 0.277 0.223 0.5 0.5 0.5s0.5-0.223 0.5-0.5v-6.5h1c0.554 0 1-0.446 1-1v-5c0-0.554-0.446-1-1-1zm0 1h3v2h-3zm0 3h3v2h-3zm-5 7h1v2h-1z" fill="#f2f2f2"/>
 <rect x="5" y="5" width="1" height="3" rx=".5" ry=".5" fill="#f2f2f2"/>
 <rect x="9" y="5" width="1" height="3" rx=".5" ry=".5" fill="#f2f2f2"/>
</svg>
