<svg width="16" height="16" version="1.1" xmlns="http://www.w3.org/2000/svg">
 <defs>
  <style id="current-color-scheme" type="text/css">.ColorScheme-Text { color:#f2f2f2; } .ColorScheme-Highlight { color:#4285f4; } .ColorScheme-NeutralText { color:#ff9800; } .ColorScheme-PositiveText { color:#4caf50; } .ColorScheme-NegativeText { color:#f44336; }</style>
 </defs>
 <path class="ColorScheme-Text" d="m7.9996 1a7 7 0 0 0-7 7 7 7 0 0 0 5.9551 6.9199 5 5 0 0 1-0.64258-1.2168 5.9546 5.9546 0 0 1-0.81641-0.30859c0.23806 0 0.47377-0.01172 0.69336-0.04492a5 5 0 0 1-0.18164-1.2363c-0.4525 0.24777-0.96271 0.37043-1.4414 0.31641-0.12749-0.01474-0.22183-0.02067-0.30859-0.01953-0.04344 0-0.073686-0.0088-0.16602 0.01953-0.010888 0.0023-0.027179 0.01386-0.041016 0.01953a5.9546 5.9546 0 0 1-2.0059-4.4492 5.9546 5.9546 0 0 1 2.2461-4.6602c-0.23478 0.5155-0.38992 1.1778-0.38867 1.7227 0.00125 0.50869 0.12543 1.1133 0.31836 1.5957 0.050926 0.12737 0.11268 0.29778 0.29688 0.41211s0.31501 0.10999 0.5 0.13086c0.16072 0.018034 0.49375 0.090044 0.64062 0.14062 0.7219 0.24833 1.2551 0.78033 1.5332 1.4238a5 5 0 0 1 0.4082-0.41797c-0.21698-0.33951-0.48913-0.65357-0.80469-0.92578 0.62909 0.23564 1.2896 0.2832 1.9277 0.13867a5 5 0 0 1 2.2773-0.56055 5 5 0 0 1 3.9355 1.918 7 7 0 0 0 0.06445-0.91797 7 7 0 0 0-7-7zm0 1.0449a5.9546 5.9546 0 0 1 5.9141 5.3242c-0.16446-0.26223-0.35506-0.51367-0.58984-0.74414-0.65217-0.64605-1.4437-1.0305-2.3828-1.1562-0.14064-0.018828-0.25867-0.052856-0.44922 0.017578-0.19168 0.069868-0.28543 0.22275-0.3418 0.31836-0.08144 0.13781-0.54645 0.6113-0.80664 0.77734-0.73803 0.47161-1.9996 0.47183-2.7402 0-0.87573-0.55781-1.3743-1.6507-1.2168-2.6152 0.08926-0.5459 0.32058-1.0207 0.70508-1.4277 0.07985-0.084612 0.14068-0.15041 0.18945-0.20508 0.0118-0.013157 0.02104-0.0299 0.03125-0.041016a5.9546 5.9546 0 0 1 1.6875-0.24805zm-3.2539 2.8086 0.00195 0.00391c0.10412 0.62631 0.35542 1.156 0.77734 1.6445-0.14483-0.032784-0.28672-0.077166-0.41602-0.091797-0.10434-0.011828-0.13695-0.019092-0.14258-0.017578 4.972e-4 0.00116 0.00119 0.00408 0.00195 0.00586-0.00312-0.00275-0.00508-0.0051-0.00391-0.00586-0.00244-0.00572-0.00121-0.00531-0.011719-0.029297-0.14529-0.3634-0.25484-0.93086-0.25586-1.3027-1.134e-4 -0.054896 0.042703-0.14102 0.048828-0.20703zm6.0547 1.3867c0.01021 6.805e-4 -0.02578 0.00758 0.0332 0.015625 0.32325 0.043327 0.51944 0.27082 0.78711 0.37891-0.33573-0.050699-0.63794-0.24339-0.98047-0.18555-0.06919 0.011115-0.08933 0.092225-0.15625 0.10742 0.10094-0.11274 0.24495-0.20128 0.31641-0.31641z" fill="currentColor"/>
 <path class="ColorScheme-Highlight" d="m11 8a4 4 0 0 0-4 4 4 4 0 0 0 4 4 4 4 0 0 0 4-4 4 4 0 0 0-4-4zm0 1a3 3 0 0 1 3 3 3 3 0 0 1-3 3 3 3 0 0 1-3-3 3 3 0 0 1 3-3zm-1 1v4l3-2z" fill="currentColor"/>
</svg>
