<svg width="16" height="16" version="1.1" xmlns="http://www.w3.org/2000/svg">
 <defs>
  <style id="current-color-scheme" type="text/css">.ColorScheme-Text { color:#f2f2f2; } .ColorScheme-Highlight { color:#4285f4; } .ColorScheme-NeutralText { color:#ff9800; } .ColorScheme-PositiveText { color:#4caf50; } .ColorScheme-NegativeText { color:#f44336; }</style>
 </defs>
 <path class="ColorScheme-Text" d="m8 1a7 7 0 0 0-7 7 7 7 0 0 0 7 7 7 7 0 0 0 7-7 7 7 0 0 0-7-7zm0 1.0449a5.9546 5.9546 0 0 1 5.9141 5.3242c-0.16446-0.26223-0.35506-0.51367-0.58984-0.74414-0.65217-0.64605-1.4437-1.0304-2.3828-1.1562-0.14064-0.018828-0.25867-0.052856-0.44922 0.017578-0.19168 0.069868-0.28543 0.22275-0.3418 0.31836-0.08144 0.13781-0.54645 0.6113-0.80664 0.77734-0.73803 0.47161-1.9996 0.47183-2.7402 0-0.87573-0.55781-1.3743-1.6507-1.2168-2.6152 0.08926-0.5459 0.32058-1.0207 0.70508-1.4277 0.07985-0.084612 0.14068-0.15041 0.18945-0.20508 0.0118-0.013157 0.02104-0.0299 0.03125-0.041016a5.9546 5.9546 0 0 1 1.6875-0.24805zm-3.709 1.2949c-0.23478 0.5155-0.38992 1.1778-0.38867 1.7227 0.0013 0.50869 0.12543 1.1133 0.31836 1.5957 0.05093 0.12737 0.11268 0.29778 0.29688 0.41211s0.31501 0.10999 0.5 0.13086c0.16072 0.018034 0.49374 0.090039 0.64062 0.14062 1.4781 0.50847 2.1745 2.2026 1.4805 3.6191-0.46559 0.9516-1.5878 1.5799-2.5723 1.4688-0.12749-0.01474-0.22183-0.02067-0.30859-0.01953-0.04344 0-0.07369-0.0088-0.16602 0.01953-0.01089 0.0023-0.02718 0.01386-0.04102 0.01953a5.9546 5.9546 0 0 1-2.0059-4.4492 5.9546 5.9546 0 0 1 2.2461-4.6602zm0.45508 1.5137 2e-3 0.00391c0.10412 0.62631 0.35542 1.156 0.77734 1.6445-0.14488-0.032784-0.28677-0.077166-0.41607-0.091797-0.10434-0.011828-0.13695-0.019092-0.14258-0.017578 4.97e-4 0.00116 0.0012 0.00408 2e-3 0.00586-0.0031-0.00275-0.0051-0.0051-0.0039-0.00586-0.0024-0.00572-0.0012-0.00531-0.01172-0.029297-0.14529-0.3634-0.25484-0.93083-0.25586-1.3027-1.13e-4 -0.054896 0.0427-0.14102 0.04883-0.20703zm6.0547 1.3867c0.01021 6.805e-4 -0.02578 0.00758 0.0332 0.015625 0.32325 0.043327 0.51944 0.27082 0.78711 0.37891-0.33573-0.050699-0.63794-0.24339-0.98047-0.18555-0.06919 0.011115-0.08933 0.092223-0.15625 0.10742 0.10094-0.11274 0.24495-0.20128 0.31641-0.31641zm0.41406 0.96094c1.0299 0.024386 2.0459 0.71262 2.418 1.7031 0.02949 0.078715 0.04908 0.13768 0.06836 0.18555 0.0091 0.023819 0.02186 0.042247 0.0332 0.066406 0.0068 0.012703 0.01127 0.025867 0.02148 0.044922 0.0045 0.00953 0.01128 0.019844 0.02149 0.035156 0.0068 0.00941 0.02042 0.023524 0.03516 0.039062a5.9546 5.9546 0 0 1-5.8125 4.6797 5.9546 5.9546 0 0 1-2.5039-0.56055c0.36136 0 0.72157-0.02449 1.0195-0.11523l0.03125-0.01172 0.01953-0.0098 0.0078-0.0059c0.8045-0.262 1.6487-0.85142 2.1152-1.5059l0.25-0.34766-0.23242-0.69141c-0.53467-1.6184 0.40785-3.1968 2.0664-3.4766 0.14518-0.024612 0.29282-0.032813 0.44141-0.029297zm-1.9766 0.20117c-0.57448 0.46684-1.0319 1.0465-1.2656 1.7031-0.22117-0.63368-0.63796-1.218-1.1777-1.6836 0.8003 0.29977 1.6528 0.30077 2.4434-0.019531zm-1.2695 3.5977 0.08594 0.26758-0.01563 0.01953c-0.09051 0.12817-0.33575 0.20846-0.49023 0.3457 0.08371-0.12476 0.23604-0.18225 0.30273-0.31836 0.05115-0.10435 0.07999-0.2101 0.11719-0.31445z" fill="currentColor"/>
</svg>
