<svg id="svg11" version="1.1" viewBox="0 0 16 16" xmlns="http://www.w3.org/2000/svg">
    <style type="text/css" id="current-color-scheme">
        .ColorScheme-Text {            color:#f2f2f2;        }
    </style>
    <path id="rect4365" d="m2.000641 12.999466h0.9998932l-0.00138-1.122808a7 7 0 0 0 4.8710253 2.117177l-1.1324753-1.132476a6 6 0 0 1-3.187505-1.861679l1.4501214-1e-6v-0.9998927h-2.9996796l-3e-7 0.5828107 1e-7 0.417082zm7.4991991 1.207053 4.7066789-4.7066797-7.7063587-7.7063585-4.7066797 4.7066792zm0-1.414213-6.2921459-6.292146 3.2924658-3.2924659 6.292146 6.292146zm1.4998389-6.7920924 2.99968 1e-7 -1e-6 -0.5828108 1e-6 -0.417082v-1.9997871l-0.999893-1e-7 0.0014 1.1228079a7 7 0 0 0-4.8710452-2.1171758l1.1324751 1.1324751a6 6 0 0 1 3.1875051 1.8616799l-1.450121-7e-7z" class="ColorScheme-Text" fill="currentColor" stroke-linecap="square" style="paint-order:markers fill stroke"/>
</svg>
