<svg version="1.1" viewBox="0 0 16 16" xmlns="http://www.w3.org/2000/svg">
    <defs>
        <style id="current-color-scheme" type="text/css">.ColorScheme-Text {
          color:#f2f2f2;
        }
        .ColorScheme-Highlight {
          color:#3daee9;
        }</style>
    </defs>
    <path id="smartphone" class="ColorScheme-Highlight" d="m6 2c-0.96855 0-2 1.0314-2 2v8c0 0.96855 1.0314 2 2 2h4c0.96855 0 2-1.0314 2-2v-8c0-0.96855-1.0314-2-2-2h-4zm0 1h4c0.56208 0 1 0.43788 1 1v8c0 0.56208-0.43788 1-1 1h-4c-0.56208 0-1-0.43788-1-1v-8c0-0.56208 0.43788-1 1-1zm0.5332 1.0215c-0.26932 0.0029772-0.4857 0.22285-0.48438 0.49219 0.0019079 0.26932 0.2209 0.48657 0.49023 0.48633 0.27008-8.38e-4 0.48852-0.22015 0.48828-0.49023v-0.0058594c-0.0040476-0.26932-0.2248-0.48484-0.49414-0.48242zm-0.033203 6.9785c-0.277 0-0.5 0.223-0.5 0.5s0.223 0.5 0.5 0.5h3c0.277 0 0.5-0.223 0.5-0.5s-0.223-0.5-0.5-0.5h-3z" fill="currentColor"/>
</svg>
