<svg width="16" height="16" data-name="Camada 1" version="1.1" xmlns="http://www.w3.org/2000/svg">
 <defs>
  <style>.cls-2,.cls-6,.cls-7{isolation:isolate}.cls-3{clip-path:url(#clip-path)}.cls-4{fill:#1955aa}.cls-7{fill:#fff}.cls-6,.cls-7{opacity:.15}</style>
 </defs>
 <path d="m4.2507 1.0002c-1.8006 0-3.2507 1.4496-3.2507 3.2503v3.2141l3.8518 1.7841a1.9999 1.9999 0 0 1 0.97552-0.35349l1.6815-2.3475a2.7498 2.7498 0 0 1 2.741-2.6649v-4.999e-4a2.7498 2.7498 0 0 1 2.7498 2.7498 2.7498 2.7498 0 0 1-2.3812 2.72l-2.6214 1.5692a1.9999 1.9999 0 0 1-3.9836 0.14745l-3.0135-1.3871v2.0677c0 1.8006 1.4501 3.2503 3.2507 3.2503h7.4985c1.8006 0 3.2508-1.4496 3.2508-3.2503v-7.499c0-1.8006-1.4501-3.2503-3.2508-3.2503zm5.9991 3.8825a1.7499 1.7499 0 0 0 0 3.4998 1.7499 1.7499 0 0 0 0-3.4998zm0 0.49997a1.2499 1.2499 0 0 1 1.2499 1.2499 1.2499 1.2499 0 0 1-1.2499 1.2499 1.2499 1.2499 0 0 1-1.2499-1.2499 1.2499 1.2499 0 0 1 1.2499-1.2499zm-4.2497 3.9997a1.4999 1.4999 0 0 0-0.58883 0.12548l1.0068 0.46628a0.97343 0.97343 0 0 1 0.046872 0.02197 0.99993 0.99993 0 0 1-0.88275 1.7943l-1.0141-0.46676a1.4999 1.4999 0 0 0 1.432 1.0585 1.4999 1.4999 0 0 0 1.4999-1.4999 1.4999 1.4999 0 0 0-0.01758-0.2285l-0.0542-0.2285a1.4999 1.4999 0 0 0-1.4281-1.0429z" fill="#f2f2f2"/>
</svg>
