<svg width="16" height="16" version="1.1" xmlns="http://www.w3.org/2000/svg">
 <defs>
  <style id="current-color-scheme" type="text/css">.ColorScheme-Text {
        color:#f2f2f2;
      }</style>
 </defs>
 <path class="ColorScheme-Text" fill="currentColor" d="m8 0c-0.277 0-0.5 0.223-0.5 0.5v8c0 0.277 0.223 0.5 0.5 0.5s0.5-0.223 0.5-0.5v-8c0-0.277-0.223-0.5-0.5-0.5zm4.9102 1.6875-0.61328 0.78906a7 7 0 0 1 2.7031 5.5234 7 7 0 0 1-7 7 7 7 0 0 1-7-7 7 7 0 0 1 2.7109-5.5156l-0.61133-0.78516a8 8 0 0 0-3.0996 6.3008 8 8 0 0 0 8 8 8 8 0 0 0 8-8 8 8 0 0 0-3.0898-6.3125z"/>
</svg>
