<svg viewBox="0 0 16 16" xmlns="http://www.w3.org/2000/svg">
    <style id="current-color-scheme" type="text/css">
        .ColorScheme-Text {
            color:#f2f2f2;
        }
    </style>
    <path fill="#3daee9" d="m7 9v5l2 1 2-1v-5z"/>
    <path style="fill:currentColor;fill-opacity:1;stroke:none" class="ColorScheme-Text" d="m9 1c-1.108 0-2 0.892-2 2v6.765625a3 3 0 0 0-1 2.234375 3 3 0 0 0 3 3 3 3 0 0 0 3-3 3 3 0 0 0-1-2.2324219v-6.7675781c0-1.108-0.892-2-2-2zm0 1c0.554 0 1 0.446 1 1v7.263672a2 1.9582802 0 0 1 1 1.695312 2 1.9582802 0 0 1-2 1.957032 2 1.9582802 0 0 1-2-1.957032 2 1.9582802 0 0 1 1-1.697265v-7.261719c0-0.554 0.446-1 1-1zm-5 2v1h2v-1zm0 3v1h2v-1zm5 4a1 1 0 0 0-1 1 1 1 0 0 0 1 1 1 1 0 0 0 1-1 1 1 0 0 0-1-1z"/>
</svg>
