<svg width="16" height="16" version="1.1" xmlns="http://www.w3.org/2000/svg">
 <defs>
  <style id="current-color-scheme" type="text/css">.ColorScheme-Text { color:#dedede; } .ColorScheme-Highlight { color:#4285f4; } .ColorScheme-NeutralText { color:#ff9800; } .ColorScheme-PositiveText { color:#4caf50; } .ColorScheme-NegativeText { color:#f44336; }</style>
 </defs>
 <path d="m14 1-3 1.5v1.1172 5.3828c0 1.662-1.338 3-3 3s-3-1.338-3-3v-2.3828-1.1172l-3 1.5v1.1172 0.88281c0 3.324 2.676 6 6 6s6-2.676 6-6v-6.8828-1.1172zm-1 1.6172v2.9824c-0.29566-0.41645-0.63052-0.80364-1-1.1562v-1.3262l1-0.5zm-1 3.3574c0.41897 0.54286 0.7559 1.1443 1 1.7852v1.2402c0 2.77-2.23 5-5 5-0.50944 0-1.0005-0.076452-1.4629-0.2168 0.55089-0.20361 1.0771-0.46818 1.5703-0.78711 6.483e-4 -1.9e-5 0.0013048 1.7e-5 0.0019531 0 2.165-0.057583 3.8906-1.8167 3.8906-3.9961v-3.0254zm-8 1.1426v1.8828c0 1.6888 1.0359 3.1263 2.5098 3.7148-0.42706 0.18353-0.87125 0.32446-1.3262 0.41992-1.3192-0.89836-2.1836-2.4115-2.1836-4.1348v-1.3828l1-0.5zm3.3887 5.8359c0.060561 0.009203 0.12215 0.016963 0.18359 0.023437-0.061701-0.006523-0.12278-0.014158-0.18359-0.023437zm0.2207 0.027344c0.12849 0.012342 0.2588 0.019531 0.39062 0.019531-0.13179 0-0.26215-0.007151-0.39062-0.019531zm-1.5977 0.60938c0.045032 0.019407 0.091001 0.038524 0.13672 0.05664-0.045917-0.01822-0.09149-0.037113-0.13672-0.05664zm0.18555 0.076172c0.042667 0.016389 0.085672 0.03162 0.12891 0.046875-0.043267-0.015279-0.086203-0.030452-0.12891-0.046875z" class="ColorScheme-Text" fill="currentColor"/>
</svg>
