<svg width="16" height="16" version="1.1" viewBox="0 0 16 16" xmlns="http://www.w3.org/2000/svg">
 <defs>
  <style id="current-color-scheme" type="text/css">.ColorScheme-Text{color:#f2f2f2}</style>
 </defs>
 <path id="circle" class="ColorScheme-Text" d="m8 0a8 8 0 0 0-8 8 8 8 0 0 0 8 8 8 8 0 0 0 2.707-0.5 3.5 3.5 0 0 0 1.793 0.5 3.5 3.5 0 0 0 3.5-3.5 3.5 3.5 0 0 0-0.49805-1.8008 8 8 0 0 0 0.49805-2.6992 8 8 0 0 0-8-8zm0 1a7 7 0 0 1 7 7 7 7 0 0 1-0.25781 1.8145 3.5 3.5 0 0 0-2.2422-0.81445 3.5 3.5 0 0 0-3.5 3.5 3.5 3.5 0 0 0 0.81641 2.2402 7 7 0 0 1-1.8164 0.25977 7 7 0 0 1-7-7 7 7 0 0 1 7-7zm3.0859 9.5859c0.12781-2e-6 0.25558 0.04855 0.35352 0.14648l1.0605 1.0605 1.0605-1.0605c0.19587-0.19587 0.51116-0.19587 0.70703 0 0.19587 0.19587 0.19587 0.51116 0 0.70703l-1.0605 1.0605 1.0605 1.0605c0.19587 0.19587 0.19587 0.51116 0 0.70703-0.19587 0.19587-0.51116 0.19587-0.70703 0l-1.0605-1.0605-1.0605 1.0605c-0.19587 0.19587-0.51116 0.19587-0.70703 0-0.19587-0.19587-0.19587-0.51116 0-0.70703l1.0605-1.0605-1.0605-1.0605c-0.19587-0.19587-0.19587-0.51116 0-0.70703 0.097934-0.097934 0.2257-0.14648 0.35352-0.14648z" fill="currentColor"/>
 <path class="ColorScheme-Text" d="m8 3.998c-0.015 0-0.034 0-0.049 2e-3a0.5 0.5 0 0 0-0.267 0.111q-0.02 0.017-0.038 0.035l-2.828 2.829a0.49992 0.49992 0 1 0 0.707 0.707l1.975-1.975v5.795a0.5 0.5 0 1 0 1 0v-5.795l1.975 1.975a0.49992 0.49992 0 1 0 0.707-0.707l-2.828-2.829-0.038-0.035h-2e-3a0.5 0.5 0 0 0-0.264-0.111h-2e-3z" fill="currentColor"/>
</svg>
