<svg width="16" height="16" enable-background="new" version="1.1" xmlns="http://www.w3.org/2000/svg">
 <defs>
  <style id="current-color-scheme" type="text/css">.ColorScheme-Text { color:#f2f2f2; } .ColorScheme-Highlight { color:#4285f4; }</style>
 </defs>
 <path id="circle" class="ColorScheme-Text" d="m8 0c-4.4183 0-8 3.5817-8 8s3.5817 8 8 8c0.69571-0.0104 1.3871-0.11151 2.0566-0.30078-0.2417-0.26497-0.44666-0.56125-0.60938-0.88086-0.47478 0.11078-0.95983 0.17166-1.4473 0.18164-3.866 0-7-3.134-7-7 0-3.866 3.134-7 7-7 3.866 0 7 3.134 7 7-0.0097 0.4854-0.06997 0.96847-0.17969 1.4414 0.31961 0.16272 0.61589 0.36768 0.88086 0.60937 0.18811-0.66775 0.28856-1.3571 0.29883-2.0508 0-4.4183-3.5817-8-8-8zm0 3.998c-0.015 0-0.033828-4.69e-5 -0.048828 0.0019531a0.5 0.5 0 0 0-0.26758 0.11133c-0.013333 0.011333-0.025109 0.023156-0.037109 0.035156l-2.8281 2.8281a0.49995 0.49995 0 1 0 0.70703 0.70703l1.9746-1.9746v5.7949a0.5 0.5 0 0 0 1 0v-5.7949l1.9746 1.9746a0.49995 0.49995 0 1 0 0.70703-0.70703l-2.8281-2.8281-0.037109-0.035156h-0.00195a0.5 0.5 0 0 0-0.26368-0.11133h-0.00195z" fill="currentColor"/>
 <circle cx="13" cy="13" r="3" fill="#f5873d"/>
</svg>
