<?xml version="1.0" encoding="UTF-8"?>
<svg version="1.1" viewBox="0 0 16 16" xmlns="http://www.w3.org/2000/svg">
 <defs>
  <style id="current-color-scheme" type="text/css">.ColorScheme-Text {
        color:#f2f2f2;
      }</style>
 </defs>
 <path class="ColorScheme-Text" d="m10 3v2h-1v1h-0.87891l4.8789 4.8789v-0.87891h1v-1h1v-1h-1v-1h-1v-1h-1v-2h-1v-1h-1zm-7 2.1211v0.87891h-1v2h-1v1h1v2h1v1h1v-2h1v-1h1.8789l-1-1h-0.87891v-0.87891l-0.12109-0.12109h-0.87891v-0.87891l-1-1zm4 4v0.87891h0.87891l-0.87891-0.87891zm1 1v0.87891h0.87891l-0.87891-0.87891zm1 1v0.87891h0.87891l-0.87891-0.87891zm1 1v1.8789h1v-0.87891l-1-1z" fill="currentColor"/>
 <path class="ColorScheme-NegativeText" d="m2.5 1.793-0.70703 0.70703 11.707 11.707 0.70703-0.70703z" color="#da4453" fill="currentColor"/>
</svg>
