<?xml version="1.0" encoding="UTF-8"?>
<svg width="16" height="16" version="1.1" xmlns="http://www.w3.org/2000/svg">
 <path d="m5.4277 12.432c-0.47486 0-0.85547 0.38256-0.85547 0.85742 0 0.47486 0.38061 0.85742 0.85547 0.85742 0.47486 0 0.85742-0.38256 0.85742-0.85742 0-0.47486-0.38256-0.85742-0.85742-0.85742zm5.7148 0c-0.47486 0-0.85742 0.38256-0.85742 0.85742 0 0.47486 0.38256 0.85742 0.85742 0.85742s0.85742-0.38256 0.85742-0.85742c0-0.47486-0.38256-0.85742-0.85742-0.85742zm-8.0449 1.7148c-0.45414 0.022873-0.8125 0.3974-0.8125 0.85742 0 0.47486 0.38256 0.85547 0.85742 0.85547 0.47486 0 0.85742-0.38061 0.85742-0.85547s-0.38256-0.85742-0.85742-0.85742c-0.014839 0-0.030272-7.37e-4 -0.044922 0zm5.1445 0c-0.45414 0.022873-0.81445 0.3974-0.81445 0.85742 0 0.47486 0.38256 0.85547 0.85742 0.85547 0.47486 0 0.85742-0.38061 0.85742-0.85547s-0.38256-0.85742-0.85742-0.85742c-0.014839 0-0.028319-7.37e-4 -0.042969 0zm5.1426 0c-0.45414 0.022873-0.8125 0.3974-0.8125 0.85742 0 0.47486 0.38061 0.85547 0.85547 0.85547 0.47486 0 0.85742-0.38061 0.85742-0.85547s-0.38256-0.85742-0.85742-0.85742c-0.014839 0-0.028319-7.37e-4 -0.042968 0z" fill="#cfd8dc" stroke-width=".57143"/>
 <path d="m6 4v9h5.625a4.375 4.5 0 0 0 4.375-4.5 4.375 4.5 0 0 0-4.375-4.5z" fill="#ececec" stroke-width=".63387"/>
 <circle cx="6" cy="7" r="6" fill="#ececec" stroke-width=".6"/>
</svg>
