<?xml version="1.0" encoding="UTF-8"?>
<svg width="16" height="16" version="1.1" xmlns="http://www.w3.org/2000/svg">
 <g fill="#2196f3">
  <rect x="6" y="14" width="1" height="1.4999" ry=".5"/>
  <rect x="8" y="14" width="1" height="2" ry=".5"/>
  <rect x="10" y="14" width="1" height="1.4999" ry=".5"/>
 </g>
 <path d="m6 4v9h5.625a4.375 4.5 0 0 0 4.375-4.5 4.375 4.5 0 0 0-4.375-4.5z" fill="#ececec"/>
 <circle cx="6" cy="7" r="6" fill="#ececec"/>
 <path d="m3.4849 7.0012c-0.16693 5e-3 -0.3204 0.0928-0.40907 0.23435l-2.4993 3.9998c-0.20753 0.3329 0.0315 0.76424 0.42371 0.76464h0.99974v2.4998c-2.041e-4 0.50225 0.65705 0.6913 0.9236 0.26565l2.4993-3.9998c0.20875-0.3331-0.03069-0.7657-0.42371-0.7656h-0.99974v-2.4999c-4.71e-4 -0.28155-0.23314-0.5072-0.5145-0.499z" fill="#ffca28"/>
</svg>
