<svg width="32" height="32" version="1.1" xmlns="http://www.w3.org/2000/svg">
 <style id="current-color-scheme" type="text/css">.ColorScheme-Text {
        color:#f2f2f2;
      }</style>
 <g id="apport" transform="translate(-22)">
  <path class="ColorScheme-Text" d="m29 4c-1.662 0-3 1.338-3 3v18c0 1.662 1.338 3 3 3h18c1.662 0 3-1.338 3-3v-18c0-1.662-1.338-3-3-3h-18zm0 1h18c1.108 0 2 0.892 2 2v18c0 1.108-0.892 2-2 2h-18c-1.108 0-2-0.892-2-2v-18c0-1.108 0.892-2 2-2zm0 2v2h2v-2h-2zm2 2v3h3v-3h-3zm3 0h2v-2h-2v2zm0 3v2h2v-2h-2zm-3 0h-2v2h2v-2zm9-5v2h2v-2h-2zm2 2v3h3v-3h-3zm3 0h2v-2h-2v2zm0 3v2h2v-2h-2zm-3 0h-2v2h2v-2zm-8 5v2h8v-2h-8zm8 2v2h2v-2h-2zm2 2v2h2v-2h-2zm-10-2h-2v2h2v-2zm-2 2h-2v2h2v-2z" fill="currentColor"/>
  <path d="m22 0v32h32v-32h-32z" fill="none"/>
 </g>
</svg>
