<svg width="32" height="32" version="1.1" xmlns="http://www.w3.org/2000/svg">
 <style id="current-color-scheme" type="text/css">.ColorScheme-Text {
        color:#f2f2f2;
      }
      .ColorScheme-Background{
        color:#eff0f1;
      }
      .ColorScheme-ButtonText {
        color:#f2f2f2;
      }</style>
 <path class="ColorScheme-Text" d="m16 8-3 7h3v4l3-7h-3zm-6 15v3h1v-3zm2 0v3h1v-3zm2 0v3h1v-3zm2 0v3h1v-3zm4.5 0c-0.82843 0-1.5 0.67157-1.5 1.5s0.67157 1.5 1.5 1.5 1.5-0.67157 1.5-1.5-0.67157-1.5-1.5-1.5z" fill="currentColor"/>
 <path class="ColorScheme-Text" d="m7 26.5c0 2.493 2.007 4.5 4.5 4.5h9c2.493 0 4.5-2.007 4.5-4.5v-18c0-2.493-2.007-4.5-4.5-4.5h-9c-2.493 0-4.5 2.007-4.5 4.5zm1 0v-18c0-1.939 1.561-3.5 3.5-3.5h9c1.939 0 3.5 1.561 3.5 3.5v18c0 1.939-1.561 3.5-3.5 3.5h-9c-1.939 0-3.5-1.561-3.5-3.5zm5.5-23.5h5c0-1.1046-1.1193-2-2.5-2s-2.5 0.89543-2.5 2z" fill="currentColor" opacity=".45"/>
</svg>
