<svg width="32" height="32" version="1.1" xmlns="http://www.w3.org/2000/svg">
 <style id="current-color-scheme" type="text/css">.ColorScheme-Text {
            color:#363636;
        }
        .ColorScheme-PositiveText {
            color:#27ae60;
        }</style>
 <path class="ColorScheme-Text" d="m4.5 8c-2.493 0-4.5 2.007-4.5 4.5v7c0 2.493 2.007 4.5 4.5 4.5h20c2.493 0 4.5-2.007 4.5-4.5v-7c0-2.493-2.007-4.5-4.5-4.5zm0 1h20c1.939 0 3.5 1.561 3.5 3.5v7c0 1.939-1.561 3.5-3.5 3.5h-20c-1.939 0-3.5-1.561-3.5-3.5v-7c0-1.939 1.561-3.5 3.5-3.5zm25.5 4.5v5a2 2.5 0 0 0 2-2.5 2 2.5 0 0 0-2-2.5z" fill="currentColor" opacity=".45"/>
 <rect class="ColorScheme-Text" x="2" y="10" width="7" height="12" rx="2.5" ry="2.5" fill="currentColor"/>
 <path class="ColorScheme-PositiveText" d="m17 9-7 8h5l-2 6 7-8h-5z" fill="currentColor"/>
</svg>
