<svg width="32" height="32" version="1.1" viewBox="0 0 32 32" xmlns="http://www.w3.org/2000/svg">
 <defs>
  <style id="current-color-scheme" type="text/css">.ColorScheme-Text { color:#363636; } .ColorScheme-Highlight { color:#4285f4; }</style>
 </defs>
 <path class="ColorScheme-Text" d="m16 4a12 12 0 0 0-12 12 12 12 0 0 0 12 12 12 12 0 0 0 1.3975-0.099621 7.5 7.5 0 0 1-1.3359-1.3506 10.556 10.556 0 0 1-0.06153 0.005851 10.556 10.556 0 0 1-10.556-10.556 10.556 10.556 0 0 1 10.556-10.556 10.556 10.556 0 0 1 10.556 10.556 10.556 10.556 0 0 1-3e-3 0.04101 7.5 7.5 0 0 1 1.3477 1.333 12 12 0 0 0 0.09962-1.374 12 12 0 0 0-12-12zm0 3a0.75 0.75 0 0 0-0.75 0.75 0.75 0.75 0 0 0 0.75 0.75 0.75 0.75 0 0 0 0.75-0.75 0.75 0.75 0 0 0-0.75-0.75zm0 3a6 6 0 0 0-6 6 6 6 0 0 0 4.5147 5.7891 7.5 7.5 0 0 1 0.20214-1.5 4.5 4.5 0 0 1-3.2168-4.2891 4.5 4.5 0 0 1 4.5-4.5 4.5 4.5 0 0 1 4.3095 3.2139 7.5 7.5 0 0 1 1.5-0.19922 6 6 0 0 0-5.8095-4.5147z" fill="currentColor"/>
 <path class="ColorScheme-Text" d="m22 16a6 6 0 0 0-6 6 6 6 0 0 0 6 6 6 6 0 0 0 6-6 6 6 0 0 0-6-6zm-2.6514 2.2881 2.6514 2.6514 2.6514-2.6514 1.0605 1.0605-2.6514 2.6514 2.6514 2.6514-1.0605 1.0605-2.6514-2.6514-2.6514 2.6514-1.0605-1.0605 2.6514-2.6514-2.6514-2.6514z" fill="currentColor"/>
</svg>
