<svg width="32" height="32" xmlns="http://www.w3.org/2000/svg"><defs><linearGradient id="d" x1="44.424" x2="44.424" y1="60.535" y2="-5.497" gradientTransform="translate(-6.723 1.226) scale(.50174)" gradientUnits="userSpaceOnUse"><stop stop-color="#634215" offset="0"/><stop stop-color="#93700d" offset="1"/></linearGradient><linearGradient id="b" x1="16" x2="16" y1="2" y2="30" gradientUnits="userSpaceOnUse"><stop stop-color="#ffbf1d" offset="0"/><stop stop-color="#eef052" offset="1"/></linearGradient><filter id="a" x="-.035" y="-.037" width="1.07" height="1.075" color-interpolation-filters="sRGB"><feGaussianBlur stdDeviation=".435"/></filter><filter id="c" x="-.115" y="-.021" width="1.23" height="1.043" color-interpolation-filters="sRGB"><feGaussianBlur stdDeviation=".162"/></filter></defs><path d="m30.786 27.037-13.021-24C17.392 2.37 16.714 2 15.96 2c-.755 0-1.435.445-1.815 1.11l-12.924 24c-.304.594-.308 1.408.067 2.001.374.592.976.889 1.731.889h25.945c.753 0 1.434-.37 1.738-.964.38-.592.383-1.332.084-1.999z" filter="url(#a)" opacity=".25"/><path d="M0 0h32v32H0z" fill="none"/><path d="m30.786 27.037-13.021-24C17.392 2.37 16.714 2 15.96 2c-.755 0-1.435.445-1.815 1.11l-12.924 24c-.304.594-.308 1.408.067 2.001.374.592.976.889 1.731.889h25.945c.753 0 1.434-.37 1.738-.964.38-.592.383-1.332.084-1.999z" fill="url(#b)"/><path transform="translate(.004)" d="M14.416 9.516c.375 3.666.805 7.307 1.125 10.987h1.02c.265-3.534.692-7.047 1-10.578.158-.835-.272-1.828-1.154-2.03-.873-.256-1.847.376-1.963 1.278-.02.113-.028.228-.028.343zm-.111 14.905c-.04 1.092 1.161 1.947 2.186 1.601.993-.253 1.516-1.501 1.007-2.389-.455-.917-1.791-1.219-2.56-.517-.388.32-.646.796-.633 1.305z" filter="url(#c)" font-family="Georgia" font-size="62.458" font-weight="400" opacity=".25" overflow="visible"/><path transform="translate(.004)" d="M14.416 9.516c.375 3.666.805 7.307 1.125 10.987h1.02c.265-3.534.692-7.047 1-10.578.158-.835-.272-1.828-1.154-2.03-.873-.256-1.847.376-1.963 1.278-.02.113-.028.228-.028.343zm-.111 14.905c-.04 1.092 1.161 1.947 2.186 1.601.993-.253 1.516-1.501 1.007-2.389-.455-.917-1.791-1.219-2.56-.517-.388.32-.646.796-.633 1.305z" fill="url(#d)" font-family="Georgia" font-size="62.458" font-weight="400" overflow="visible"/></svg>