<svg width="32" height="32" xmlns="http://www.w3.org/2000/svg"><defs><filter id="a" x="-.036" y="-.036" width="1.072" height="1.072" color-interpolation-filters="sRGB"><feGaussianBlur stdDeviation=".45"/></filter><filter id="c" x="-.047" y="-.029" width="1.095" height="1.058" color-interpolation-filters="sRGB"><feGaussianBlur stdDeviation=".236"/></filter><linearGradient id="b" x1="16" x2="16" y1="1" y2="31" gradientUnits="userSpaceOnUse"><stop stop-color="#4192f2" offset="0"/><stop stop-color="#44d3f0" offset="1"/></linearGradient></defs><path d="M16 1C7.723 1 1 7.723 1 16s6.723 15 15 15 15-6.723 15-15S24.277 1 16 1z" color="#000" filter="url(#a)" opacity=".25" overflow="visible"/><path d="M16 1C7.723 1 1 7.723 1 16s6.723 15 15 15 15-6.723 15-15S24.277 1 16 1z" color="#000" fill="url(#b)" overflow="visible"/><path d="M16.683 19.873c-.05-1.77.347-3.487 2.018-4.703 1.765-1.376 3.466-3.097 3.286-5.126-.04-1.957-2.32-3.49-4.776-3.711-2.763-.383-6.106.564-7.032 2.722-.47 1.05-.034 2.932 1.542 2.932.921 0 1.345-.595 1.414-1.14.053-.412-.116-.78-.216-1.12-.114-.388.372-1.14.901-1.446.443-.256.906-.342.974-.359 1.588-.381 3.172.462 3.833 1.488.66 1.027-.067 2.584-1.112 4.098-1.046 1.514-2.168 3.233-2.164 5.06 0 .695-.062.931-.018 1.212.036.225.78.198 1.35.093zm-.725 2.38c-1.52-.082-2.57 1.64-1.658 2.737.815 1.212 3.1.913 3.491-.459.408-1.067-.572-2.295-1.833-2.277z" filter="url(#c)" font-family="Standard Symbols L" font-size="72" font-weight="700" opacity=".25"/><path d="M16.683 19.873c-.05-1.77.347-3.487 2.018-4.703 1.765-1.376 3.466-3.097 3.286-5.126-.04-1.957-2.32-3.49-4.776-3.711-2.763-.383-6.106.564-7.032 2.722-.47 1.05-.034 2.932 1.542 2.932.921 0 1.345-.595 1.414-1.14.053-.412-.116-.78-.216-1.12-.114-.388.372-1.14.901-1.446.443-.256.906-.342.974-.359 1.588-.381 3.172.462 3.833 1.488.66 1.027-.067 2.584-1.112 4.098-1.046 1.514-2.168 3.233-2.164 5.06 0 .695-.062.931-.018 1.212.036.225.78.198 1.35.093zm-.725 2.38c-1.52-.082-2.57 1.64-1.658 2.737.815 1.212 3.1.913 3.491-.459.408-1.067-.572-2.295-1.833-2.277z" fill="#fff" font-family="Standard Symbols L" font-size="72" font-weight="700"/></svg>