<svg width="32" height="32" xmlns="http://www.w3.org/2000/svg"><defs><filter id="a" x="-.036" y="-.036" width="1.072" height="1.072" color-interpolation-filters="sRGB"><feGaussianBlur stdDeviation=".45"/></filter><filter id="c" x="-.108" y="-.022" width="1.216" height="1.043" color-interpolation-filters="sRGB"><feGaussianBlur stdDeviation=".18"/></filter><linearGradient id="b" x1="16" x2="16" y1="1" y2="31" gradientUnits="userSpaceOnUse"><stop stop-color="#ff5355" offset="0"/><stop stop-color="#ff9349" offset="1"/></linearGradient></defs><path d="M16 1C7.723 1 1 7.723 1 16c0 8.277 6.723 15 15 15 8.277 0 15-6.723 15-15 0-8.277-6.723-15-15-15z" color="#000" filter="url(#a)" opacity=".25" overflow="visible"/><path d="M16 1C7.723 1 1 7.723 1 16c0 8.277 6.723 15 15 15 8.277 0 15-6.723 15-15 0-8.277-6.723-15-15-15z" color="#000" fill="url(#b)" overflow="visible"/><path d="M16 6a2 2 0 0 0-2 2c0 2 .667 6.667 1.333 12h1.334C17.333 14.667 18 10 18 8a2 2 0 0 0-2-2zm0 16a2 2 0 1 0 0 4 2 2 0 0 0 0-4z" filter="url(#c)" opacity=".25"/><path d="M16 6a2 2 0 0 0-2 2c0 2 .667 6.667 1.333 12h1.334C17.333 14.667 18 10 18 8a2 2 0 0 0-2-2zm0 16a2 2 0 1 0 0 4 2 2 0 0 0 0-4z" fill="#fff"/></svg>