<svg width="32" height="32" xmlns="http://www.w3.org/2000/svg"><defs><filter id="a" x="-.036" y="-.036" width="1.072" height="1.072" color-interpolation-filters="sRGB"><feGaussianBlur stdDeviation=".45"/></filter><filter id="c" x="-.063" y="-.025" width="1.126" height="1.05" color-interpolation-filters="sRGB"><feGaussianBlur stdDeviation=".21"/></filter><linearGradient id="b" x1="16" x2="16" y1="1" y2="31" gradientUnits="userSpaceOnUse"><stop stop-color="#4192f2" offset="0"/><stop stop-color="#44d3f0" offset="1"/></linearGradient></defs><path d="M16 1C7.723 1 1 7.723 1 16s6.723 15 15 15 15-6.723 15-15S24.277 1 16 1z" color="#000" filter="url(#a)" opacity=".25" overflow="visible"/><path d="M16 1C7.723 1 1 7.723 1 16s6.723 15 15 15 15-6.723 15-15S24.277 1 16 1z" color="#000" fill="url(#b)" overflow="visible"/><path d="M11.981 15.788c.192.52.407.94.865.365.569-.339 2.473-1.82 2.283-.369-.61 2.687-1.352 5.346-1.92 8.04-.593 1.476.754 2.811 2.161 1.852 1.496-.617 2.783-1.621 4.098-2.542-.18-.44-.3-1.072-.795-.497-.65.295-2.072 1.688-2.337.54.547-2.91 1.56-5.712 2.208-8.598.595-1.327-.378-3.004-1.834-1.906-1.746.76-3.205 2.002-4.729 3.115zm6.477-9.786c-1.78-.094-2.711 2.776-1.02 3.562 1.374.563 2.868-.845 2.533-2.252-.104-.733-.762-1.334-1.513-1.31z" filter="url(#c)" opacity=".25"/><path d="M11.981 15.788c.192.52.407.94.865.365.569-.339 2.473-1.82 2.283-.369-.61 2.687-1.352 5.346-1.92 8.04-.593 1.476.754 2.811 2.161 1.852 1.496-.617 2.783-1.621 4.098-2.542-.18-.44-.3-1.072-.795-.497-.65.295-2.072 1.688-2.337.54.547-2.91 1.56-5.712 2.208-8.598.595-1.327-.378-3.004-1.834-1.906-1.746.76-3.205 2.002-4.729 3.115zm6.477-9.786c-1.78-.094-2.711 2.776-1.02 3.562 1.374.563 2.868-.845 2.533-2.252-.104-.733-.762-1.334-1.513-1.31z" fill="#fff"/></svg>