<svg version="1.1" viewBox="0 0 32 32" xmlns="http://www.w3.org/2000/svg">
 <defs>
  <style id="current-color-scheme" type="text/css">.ColorScheme-Text { color:#f2f2f2; }</style>
 </defs>
 <path class="ColorScheme-Text" d="m9 4c-1.108 0-2 0.892-2 2v20c0 1.108 0.892 2 2 2h14c1.108 0 2-0.892 2-2v-20c0-1.108-0.892-2-2-2zm0 1h14c0.554 0 1 0.446 1 1v6.1738a3 3 0 0 0-2 2.8262 3 3 0 0 0 2 2.8281v6.1719c0 0.554-0.446 1-1 1h-14c-0.554 0-1-0.446-1-1v-6.1719a3 3 0 0 0 2-2.8281 3 3 0 0 0-2-2.8262v-6.1738c0-0.554 0.446-1 1-1zm0.48828 1a0.5 0.5 0 0 0-0.48828 0.5 0.5 0.5 0 0 0 0.5 0.5 0.5 0.5 0 0 0 0.5-0.5 0.5 0.5 0 0 0-0.5-0.5 0.5 0.5 0 0 0-0.011719 0zm13 0a0.5 0.5 0 0 0-0.48828 0.5 0.5 0.5 0 0 0 0.5 0.5 0.5 0.5 0 0 0 0.5-0.5 0.5 0.5 0 0 0-0.5-0.5 0.5 0.5 0 0 0-0.011719 0zm-14.488 7.2695a2 2 0 0 1 1 1.7305 2 2 0 0 1-1 1.7305zm16 0v3.4609a2 2 0 0 1-1-1.7305 2 2 0 0 1 1-1.7305zm-14.512 9.7305a0.5 0.5 0 0 0-0.48828 0.5 0.5 0.5 0 0 0 0.5 0.5 0.5 0.5 0 0 0 0.5-0.5 0.5 0.5 0 0 0-0.5-0.5 0.5 0.5 0 0 0-0.011719 0zm13 0a0.5 0.5 0 0 0-0.48828 0.5 0.5 0.5 0 0 0 0.5 0.5 0.5 0.5 0 0 0 0.5-0.5 0.5 0.5 0 0 0-0.5-0.5 0.5 0.5 0 0 0-0.011719 0zm-11.988 3h6c0.277 0 0.5 0.223 0.5 0.5s-0.223 0.5-0.5 0.5h-6c-0.277 0-0.5-0.223-0.5-0.5s0.223-0.5 0.5-0.5zm9 0h2c0.277 0 0.5 0.223 0.5 0.5s-0.223 0.5-0.5 0.5h-2c-0.277 0-0.5-0.223-0.5-0.5s0.223-0.5 0.5-0.5z" fill="currentColor"/>
 <path class="ColorScheme-Text" d="m16 11a3 1 0 0 0-3 1v5a3 1 0 0 0 3 1 3 1 0 0 0 3-1v-5a3 1 0 0 0-3-1zm0 1a3 1 0 0 1 2 0.3v0.4a3 1 0 0 1-2 0.3 3 1 0 0 1-2-0.3v-0.4a3 1 0 0 1 2-0.3zm-2 1.7a3 1 0 0 0 2 0.3 3 1 0 0 0 2-0.3v1a3 1 0 0 1-2 0.3 3 1 0 0 1-2-0.3zm0 2a3 1 0 0 0 2 0.3 3 1 0 0 0 2-0.3v1a3 1 0 0 1-2 0.3 3 1 0 0 1-2-0.3z" fill="currentColor"/>
</svg>
