<svg xmlns="http://www.w3.org/2000/svg" width="32" height="32" viewBox="0 0 8.467 8.467"><path d="M4.268 288.795a3.435 3.435 0 0 0-1.713.438.265.265 0 1 0 .257.462 2.91 2.91 0 0 1 4.332 2.541v.53a.265.265 0 1 0 .529 0v-.53a.265.265 0 0 0-.001-.026 3.442 3.442 0 0 0-3.404-3.415zm-2.744 1.495a.265.265 0 0 0-.211.128 3.44 3.44 0 0 0-.518 1.792.265.265 0 0 0-.001.026v2.68a.265.265 0 0 0 .529 0v-2.68c0-.544.152-1.077.44-1.538a.265.265 0 0 0-.239-.408zm2.71.093a1.856 1.856 0 0 0-1.851 1.82.265.265 0 0 0-.002.033v.529a.265.265 0 1 0 .53 0v-.53c0-.733.589-1.323 1.322-1.323.734 0 1.323.59 1.323 1.324v2.647s.002.182.08.414c.077.232.231.535.527.831a.265.265 0 1 0 .374-.374 1.595 1.595 0 0 1-.399-.624c-.055-.165-.053-.247-.053-.247v-2.647a.265.265 0 0 0-.001-.03 1.856 1.856 0 0 0-1.85-1.823zm-.005 1.584a.265.265 0 0 0-.26.269v2.647s0 .29.071.647c.072.357.208.8.535 1.128a.265.265 0 1 0 .375-.374c-.203-.203-.33-.553-.391-.858-.06-.304-.061-.543-.061-.543v-2.647a.265.265 0 0 0-.269-.269zm-1.587 2.117a.265.265 0 0 0-.26.27v1.587a.265.265 0 1 0 .528 0v-1.588a.265.265 0 0 0-.268-.269zm4.762 0a.265.265 0 0 0-.26.268v.53a.265.265 0 1 0 .529 0v-.53a.265.265 0 0 0-.269-.268z" fill="#f2f2f2" transform="translate(0 -288.533)"/></svg>
