<svg xmlns="http://www.w3.org/2000/svg" width="32" height="32" viewBox="0 0 8.467 8.467"><path overflow="visible" font-weight="400" d="M4.268.262a3.435 3.435 0 0 0-1.713.437.265.265 0 1 0 .257.463 2.91 2.91 0 0 1 4.332 2.54v.53a.265.265 0 1 0 .529 0v-.53a.265.265 0 0 0-.001-.026A3.441 3.441 0 0 0 4.268.262ZM1.524 1.757a.265.265 0 0 0-.211.128 3.44 3.44 0 0 0-.518 1.791.265.265 0 0 0-.001.027v2.68a.265.265 0 0 0 .529 0v-2.68c0-.544.152-1.077.44-1.539a.265.265 0 0 0-.239-.407Zm2.71.093a1.856 1.856 0 0 0-1.851 1.82.265.265 0 0 0-.002.033v.529a.265.265 0 0 0 .53 0v-.53c0-.733.589-1.323 1.322-1.323.734 0 1.323.59 1.323 1.324v.708a1.05 1.05 0 0 1 .53-.385v-.323a.265.265 0 0 0-.002-.03 1.856 1.856 0 0 0-1.85-1.823Zm-.005 1.584a.265.265 0 0 0-.26.269v2.646s0 .29.071.647c.009.044.022.092.033.138l.425-.787V3.703a.265.265 0 0 0-.269-.27Zm2.096 1.089c-.139-.008-.275.075-.38.256L4.29 7.846c-.141.255.013.62.29.62h3.48c.26 0 .504-.306.323-.62l-1.67-3.05c-.106-.171-.25-.266-.389-.273ZM2.642 5.55a.265.265 0 0 0-.26.269v1.588a.265.265 0 1 0 .528 0V5.82a.265.265 0 0 0-.268-.269Zm3.7.013a.275.275 0 0 1 .272.273V6.88a.272.272 0 0 1-.264.265.272.272 0 0 1-.265-.265V5.837a.273.273 0 0 1 .215-.264.195.195 0 0 1 .042-.008zm.008 1.844a.265.265 0 1 1 0 .53.265.265 0 0 1 0-.53z" class="warning" fill="#ff7800"/></svg>
