<svg width="32" height="32" version="1.1" xmlns="http://www.w3.org/2000/svg">
 <style id="current-color-scheme" type="text/css">.ColorScheme-Text {
        color:#f2f2f2;
      }
      .ColorScheme-Background {
        color:#eff0f1;
      }
      .ColorScheme-Highlight {
        color:#3daee9;
      }
      .ColorScheme-ButtonText {
        color:#f2f2f2;
      }</style>
 <path class="ColorScheme-Text" d="m10.995 5.496c-2.77 0-5 2.23-5 5v11c0 2.77 3 4.2 5 5l5 2 5-2c2-0.8 5-2.23 5-5v-7h-1.5v5.0254c0 1.9251-1.5496 3.4746-3.4746 3.4746h-10.051c-1.9251 0-3.4746-1.5496-3.4746-3.4746v-9.0508c0-1.9251 1.5496-3.4746 3.4746-3.4746h7.0254v-1.5z" fill="currentColor"/>
 <path class="ColorScheme-Text" d="m22.995 3.996c-0.277 0-0.5 0.223-0.5 0.5v1c0 0.277 0.223 0.5 0.5 0.5s0.5-0.223 0.5-0.5v-1c0-0.277-0.223-0.5-0.5-0.5zm-3.1816 1.3184c-0.12781 0-0.25558 0.0485-0.35352 0.14648-0.19587 0.19587-0.19587 0.51117 0 0.70704l0.70703 0.70703c0.19587 0.19587 0.51116 0.19587 0.70703 0s0.19587-0.51116 0-0.70703l-0.70703-0.70704c-0.09793-0.0979-0.22571-0.14648-0.35352-0.14648zm6.3633 0c-0.12781 0-0.25558 0.0485-0.35352 0.14648l-0.70703 0.70704c-0.19586 0.19587-0.19586 0.51116 0 0.70703 0.19587 0.19587 0.51117 0.19587 0.70703 0l0.70703-0.70703c0.19586-0.19587 0.19586-0.51117 0-0.70704-0.0979-0.0979-0.2257-0.14648-0.35352-0.14648zm-3.1816 1.6816c-1.1046 0-2 0.89543-2 2s0.89543 2 2 2c1.1046 0 2-0.89543 2-2s-0.89543-2-2-2zm0 1v2c-0.55228 0-1-0.44772-1-1s0.44772-1 1-1zm-4.5 0.5c-0.277 0-0.5 0.223-0.5 0.5s0.223 0.5 0.5 0.5h1c0.277 0 0.5-0.223 0.5-0.5s-0.223-0.5-0.5-0.5zm8 0c-0.277 0-0.5 0.223-0.5 0.5s0.223 0.5 0.5 0.5h1c0.277 0 0.5-0.223 0.5-0.5s-0.223-0.5-0.5-0.5zm-5.9746 2.4746c-0.12781 0-0.25558 0.0486-0.35352 0.14648l-0.70703 0.70704c-0.19587 0.19586-0.19587 0.51116 0 0.70703s0.51116 0.19587 0.70703 0l0.70703-0.70703c0.19587-0.19587 0.19587-0.51117 0-0.70704-0.09793-0.0979-0.2257-0.14648-0.35352-0.14648zm4.9492 0c-0.12781 0-0.25558 0.0486-0.35352 0.14648-0.19586 0.19587-0.19586 0.51117 0 0.70704l0.70703 0.70703c0.19587 0.19587 0.51116 0.19587 0.70703 0 0.19586-0.19587 0.19586-0.51117 0-0.70703l-0.70703-0.70704c-0.0979-0.0979-0.22571-0.14648-0.35352-0.14648zm-2.4746 1.0254c-0.277 0-0.5 0.223-0.5 0.5v1c0 0.277 0.223 0.5 0.5 0.5s0.5-0.223 0.5-0.5v-1c0-0.277-0.223-0.5-0.5-0.5z" fill="currentColor"/>
 <path class="ColorScheme-Text" d="m14.882 9.996-3.8086 10h1.6055l0.95312-2.5h4.7266l0.95312 2.5h1.6055l-3.8086-10zm1.1133 1.2969 1.793 4.7031h-3.5859z" fill="currentColor"/>
</svg>
