<svg version="1.1" viewBox="0 0 32 32" xmlns="http://www.w3.org/2000/svg">
 <style id="current-color-scheme" type="text/css">.ColorScheme-Text {
        color:#f2f2f2;
      }</style>
 <path class="ColorScheme-Text" d="m24.203 3.576c-0.464 1.0928-1.07 2.008-1.597 2.8048-0.357 0.5552-0.76 1.1632-1.029 1.8392-0.07 0.236-0.116 0.4808-0.116 0.7296 0 0.8648 0.444 1.6264 1.121 2.1032 0.232 0.05102 0.469 0.07723 0.706 0.07816 1.767 0 3.2-1.3667 3.2-3.0531 0-0.23154-0.03-0.46219-0.08-0.6875 0.03 0.03735 0.05 0.07539 0.08 0.11406-0.217-0.3968-0.457-0.7728-0.683-1.1232-0.526-0.7968-1.133-1.712-1.597-2.8048" fill="currentColor"/>
 <path class="ColorScheme-Text" d="m24.203 2.4c-0.133 0.4552-0.311 0.9-0.505 1.336-0.985 2.16-2.529 3.6384-2.678 5.0016 0 0.02-0.01 0.0424-0.02 0.0624l0.01 0.0048c0 0.0472-0.01 0.0936-0.01 0.1408 0 1.6872 1.433 3.0544 3.2 3.0544s3.2-1.368 3.2-3.0544c0-0.0464-0.01-0.0936-0.01-0.1408l0.01-0.0048c0-0.02-0.01-0.0424-0.02-0.0624-0.149-1.3632-1.692-2.8416-2.678-5.0016-0.194-0.436-0.372-0.8808-0.505-1.336m0 1.172c0.464 1.0928 1.07 2.008 1.597 2.8048 0.357 0.5552 0.76 1.1632 1.029 1.8392 0.07 0.236 0.116 0.4808 0.116 0.7296 0 1.4456-1.227 2.6184-2.742 2.6184s-2.742-1.1728-2.742-2.6184c0-0.2488 0.04-0.4936 0.116-0.7296 0.269-0.6752 0.673-1.284 1.029-1.8392 0.527-0.7968 1.133-1.712 1.597-2.8048" fill="currentColor"/>
 <path class="ColorScheme-Text" d="m10.99 5.5c-2.77 0-5 2.23-5 5v11c0 2.77 3 4.2 5 5l5 2 5-2c2-0.8 5-2.23 5-5v-8.5h-1.5v6.5254c0 1.9251-1.5496 3.4746-3.4746 3.4746h-10.051c-1.9251 0-3.4746-1.5496-3.4746-3.4746v-9.0508c0-1.9251 1.5496-3.4746 3.4746-3.4746h10.025v-1.5z" fill="currentColor"/>
 <path class="ColorScheme-Text" d="m14.877 10-3.8086 10h1.6055l0.95312-2.5h4.7266l0.95312 2.5h1.6055l-3.8086-10zm1.1133 1.2969 1.793 4.7031h-3.5859z" fill="currentColor"/>
</svg>
