<svg width="32" height="32" version="1.1" xmlns="http://www.w3.org/2000/svg">
 <style id="current-color-scheme" type="text/css">.ColorScheme-Text {
            color:#363636;
        }
        .ColorScheme-ButtonFocus {
            color:#3daee9;
        }
        .ColorScheme-NegativeText {
            color:#da4453;
        }</style>
 <path class="ColorScheme-Text" d="m16 6c-5.523-3.746e-4 -10 4.477-10 10-3.752e-4 5.523 4.477 10 10 10 5.523 3.76e-4 10-4.477 10-10 3.74e-4 -5.523-4.477-10-10-10zm0 1.5a8.5 8.5 0 0 1 8.5 8.5 8.5 8.5 0 0 1-8.5 8.5 8.5 8.5 0 0 1-8.5-8.5 8.5 8.5 0 0 1 8.5-8.5z" fill="currentColor"/>
 <circle class="ColorScheme-ButtonFocus" cx="16" cy="16" r="6.5" fill="currentColor"/>
</svg>
