<svg width="32" height="32" version="1.1" xmlns="http://www.w3.org/2000/svg">
 <style id="current-color-scheme" type="text/css">.ColorScheme-Text {
            color:#363636;
        }
        .ColorScheme-ButtonFocus {
            color:#3daee9;
        }
        .ColorScheme-NegativeText {
            color:#da4453;
        }</style>
 <g id="notification-progress-inactive" class="ColorScheme-Text" transform="translate(-105 -125)" fill="currentColor">
  <path d="m121 131c-5.523-3.7e-4 -10 4.477-10 10-3.7e-4 5.523 4.477 10 10 10 5.523 3.7e-4 10-4.477 10-10 3.7e-4 -5.523-4.477-10-10-10zm0 1.5a8.5 8.5 0 0 1 8.5 8.5 8.5 8.5 0 0 1-8.5 8.5 8.5 8.5 0 0 1-8.5-8.5 8.5 8.5 0 0 1 8.5-8.5z"/>
  <circle cx="121" cy="141" r="6" opacity=".35"/>
 </g>
</svg>
