<svg xmlns="http://www.w3.org/2000/svg" width="128" height="128" version="1.0" style="display:inline;enable-background:new"><defs><linearGradient id="a"><stop offset="0" style="stop-color:#d5d3cf;stop-opacity:1"/><stop offset="1" style="stop-color:#f6f5f4;stop-opacity:1"/></linearGradient><linearGradient id="b"><stop offset="0" style="stop-color:#d5d3cf;stop-opacity:1"/><stop offset="1" style="stop-color:#949390;stop-opacity:1"/></linearGradient><linearGradient id="c"><stop offset="0" style="stop-color:#9a9996;stop-opacity:1"/><stop offset="1" style="stop-color:#77767b;stop-opacity:1"/></linearGradient></defs><g style="display:inline"><text y="297.749" x="63.912" style="font-style:normal;font-variant:normal;font-weight:700;font-stretch:normal;font-size:11.0853529px;line-height:0%;font-family:'Droid Sans';-inkscape-font-specification:'Droid Sans Bold';text-align:start;writing-mode:lr-tb;text-anchor:start;display:inline;opacity:1;fill:#000;fill-opacity:1;stroke:none;stroke-width:.99999994;enable-background:new" xml:space="preserve" transform="translate(0 -172)"><tspan y="297.749" x="63.912" style="font-size:9.23779392px;line-height:1.25;stroke-width:.99999994"> </tspan></text><g style="display:inline;opacity:1;stroke-width:1.08250976;enable-background:new" transform="matrix(.70805 0 0 .70805 351.866 -202.978)"><g style="stroke-width:1.08250976"><path style="fill:none;stroke:none;stroke-width:1.08250976" d="M165 961.362h16v16h-16z" transform="matrix(6.69697 0 0 6.69697 -1566.576 -6110.752)"/><path style="fill:#babdb6;fill-opacity:1;stroke:none;stroke-width:1.08250976" d="M173 966.362a3 3 0 1 0 0 6 3 3 0 0 0 0-6zm-.493.826c.374 0 .683.31.683.698 0 .387-.309.713-.683.713-.374 0-.683-.326-.683-.713 0-.387.309-.698.683-.698z" transform="matrix(6.69697 0 0 6.69697 -1566.576 -6110.752)"/><path style="fill:#babdb6;fill-opacity:1;stroke:none;stroke-width:1.08250976" d="M173 963.362c-4.418 0-8 6-8 6s3.582 6 8 6 8-6 8-6-3.582-6-8-6zm0 2c3.866 0 6 4 6 4s-2.134 4-6 4-6-4-6-4 2.134-4 6-4z" transform="matrix(6.69697 0 0 6.69697 -1566.576 -6110.752)"/><path d="m167 967.3-1-1M179 967.3l1-1" style="color:#000;display:inline;overflow:visible;visibility:visible;fill:none;stroke:#babdb6;stroke-width:1.08250976;stroke-linecap:round;stroke-linejoin:miter;stroke-miterlimit:4;stroke-dasharray:none;stroke-dashoffset:0;stroke-opacity:1;marker:none;enable-background:accumulate" transform="matrix(6.69697 0 0 6.69697 -1566.576 -6110.752)"/><path d="m169 966.3-2-2M170.375 964.862 169 962.487M172.438 964.362l-.688-3M177.438 966.3l1.562-2M176.063 964.862l1.33-2.154M174 964.362l.864-3" style="color:#000;display:inline;overflow:visible;visibility:visible;fill:none;stroke:#babdb6;stroke-width:1.08250976;stroke-linecap:round;stroke-miterlimit:4;stroke-dasharray:none;stroke-opacity:1;marker:none;enable-background:accumulate" transform="matrix(6.69697 0 0 6.69697 -1566.576 -6110.752)"/></g><circle r="73.5" cy="361.5" cx="253.5" transform="translate(-660 15.362)" style="color:#000;display:inline;overflow:visible;visibility:visible;fill:none;stroke:#babdb6;stroke-width:21.65019417;stroke-linecap:butt;stroke-linejoin:miter;stroke-miterlimit:4;stroke-dasharray:none;stroke-dashoffset:0;stroke-opacity:1;marker:none;enable-background:accumulate"/><path d="m-358 317.362-92.51 113.592" style="fill:none;stroke:#babdb6;stroke-width:13.59241199;stroke-linecap:butt;stroke-linejoin:miter;stroke-miterlimit:4;stroke-dasharray:none;stroke-opacity:1"/></g></g></svg>