<svg width="32" height="32" version="1.1" viewBox="0 0 32 32" xmlns="http://www.w3.org/2000/svg">
 <defs>
  <style id="current-color-scheme" type="text/css">.ColorScheme-Text {
                color:#363636;
            }</style>
 </defs>
 <path class="ColorScheme-Text" d="m23.94 17a6 6 0 0 1-2.2988 3.7656l2.4961 3.1211a10 10 0 0 0 3.8184-6.8867z" fill="currentColor" opacity=".25"/>
 <path class="ColorScheme-Text" d="m16 4c-6.6215 0-12 5.3785-12 12a0.50005 0.50005 0 0 0 0 0.001953c0.012175 3.7709 1.7974 7.3173 4.8184 9.5742a0.5 0.5 0 0 0 0.69922-0.10156 0.5 0.5 0 0 0-0.10156-0.69922c-2.7699-2.0693-4.4049-5.3198-4.416-8.7773 0.0010771-6.0801 4.9196-10.998 11-10.998 6.081 0 11 4.919 11 11-0.01178 3.4568-1.6466 6.7065-4.416 8.7754a0.5 0.5 0 0 0-0.10156 0.69922 0.5 0.5 0 0 0 0.69922 0.10156c3.021-2.2569 4.8062-5.8033 4.8184-9.5742a0.50005 0.50005 0 0 0 0-0.001953c0-6.6215-5.3785-12-12-12zm0 4c-0.277 0-0.5 0.223-0.5 0.5v5.5664a2 2 0 0 0-1.5 1.9336 2 2 0 0 0 2 2 2 2 0 0 0 2-2 2 2 0 0 0-1.5-1.9355v-5.5645c0-0.277-0.223-0.5-0.5-0.5zm0 7a1 1 0 0 1 1 1 1 1 0 0 1-1 1 1 1 0 0 1-1-1 1 1 0 0 1 1-1z" fill="currentColor"/>
</svg>
