<svg width="32" height="32" version="1.1" viewBox="0 0 32 32" xmlns="http://www.w3.org/2000/svg">
 <defs>
  <style id="current-color-scheme" type="text/css">.ColorScheme-Text {
                color:#363636;
            }</style>
 </defs>
 <path class="ColorScheme-Text" d="m21.912 17a6 6 0 0 1-2.2988 3.7656l2.4961 3.1211a10 10 0 0 0 3.8184-6.8867z" fill="currentColor" opacity=".25"/>
 <path class="ColorScheme-Text" d="m16 5c-6.0662 0-11 4.9338-11 11a0.75008 0.75008 0 0 0 0 0.001953c0.010622 3.5139 1.7013 6.8134 4.5469 8.875a0.75 0.75 0 0 0 1.0469-0.16797 0.75 0.75 0 0 0-0.16797-1.0469c-2.4586-1.7813-3.9166-4.628-3.9258-7.6641 0.001076-5.2547 4.2451-9.498 9.5-9.498 5.2556 0 9.5 4.2444 9.5 9.5-0.0098 3.0353-1.4677 5.8812-3.9258 7.6621a0.75 0.75 0 0 0-0.16797 1.0469 0.75 0.75 0 0 0 1.0469 0.16797c2.8456-2.0616 4.5362-5.3611 4.5469-8.875a0.75008 0.75008 0 0 0 0-0.001953c0-6.0662-4.9338-11-11-11zm0 3.25a0.75 0.75 0 0 0-0.75 0.75v5.1504a2 2 0 0 0-1.25 1.8496 2 2 0 0 0 2 2 2 2 0 0 0 2-2 2 2 0 0 0-1.25-1.8535v-5.1465a0.75 0.75 0 0 0-0.75-0.75z" fill="currentColor"/>
</svg>
