<svg width="32" height="32" version="1.1" viewBox="0 0 32 32" xmlns="http://www.w3.org/2000/svg">
<defs>
  <style id="current-color-scheme" type="text/css">.ColorScheme-Text {
        color:#363636;
      }</style>
 </defs>
  <path class="ColorScheme-Text" d="m9.5728 4.0001c-3.0867 0-5.5726 2.4851-5.5726 5.5721v5.5101l6.6031 3.0585a3.4284 3.4285 0 0 1 1.6723-0.606l2.8826-4.0244a4.7139 4.7141 0 0 1 4.6989-4.5686v-8.57e-4a4.7139 4.7141 0 0 1 4.7139 4.7141 4.7139 4.7141 0 0 1-4.0821 4.663l-4.4938 2.6901a3.4284 3.4285 0 0 1-6.829 0.25278l-5.166-2.378v3.5447c0 3.0868 2.4859 5.5721 5.5726 5.5721h12.855c3.0867 0 5.5728-2.4851 5.5728-5.5721v-12.855c0-3.0868-2.4859-5.5721-5.5728-5.5721zm10.284 6.6559a2.9998 2.9999 0 0 0 0 5.9998 2.9998 2.9999 0 0 0 0-5.9998zm0 0.85712a2.1427 2.1428 0 0 1 2.1427 2.1428 2.1427 2.1428 0 0 1-2.1427 2.1428 2.1427 2.1428 0 0 1-2.1427-2.1428 2.1427 2.1428 0 0 1 2.1427-2.1428zm-7.2852 6.8568a2.5713 2.5713 0 0 0-1.0095 0.21512l1.7259 0.79936a1.6688 1.6688 0 0 1 0.08035 0.03766 1.7142 1.7142 0 0 1-1.5133 3.076l-1.7385-0.80018a2.5713 2.5713 0 0 0 2.4549 1.8147 2.5713 2.5713 0 0 0 2.5713-2.5713 2.5713 2.5713 0 0 0-0.03014-0.39172l-0.09291-0.39172a2.5713 2.5713 0 0 0-2.4482-1.7879z" fill="currentColor"/>
</svg>
