<svg width="32" height="32" version="1.1" xmlns="http://www.w3.org/2000/svg" xmlns:xlink="http://www.w3.org/1999/xlink">
 <defs>
  <linearGradient id="a" x1="16" x2="16" y1="1" y2="31" gradientUnits="userSpaceOnUse">
   <stop stop-color="#f4282c" offset="0"/>
   <stop stop-color="#fac136" offset="1"/>
  </linearGradient>
  <filter id="c" x="-.036" y="-.036" width="1.072" height="1.072" color-interpolation-filters="sRGB">
   <feGaussianBlur stdDeviation="0.45"/>
  </filter>
  <filter id="b" x="-.037287" y="-.034799" width="1.0746" height="1.0696" color-interpolation-filters="sRGB">
   <feGaussianBlur stdDeviation="0.28136255"/>
  </filter>
 </defs>
 <path d="m16 1c-8.2768 0-15 6.7232-15 15 0 8.2768 6.7232 15 15 15 8.2768 0 15-6.7232 15-15 0-8.2768-6.7232-15-15-15z" color="#000000" filter="url(#c)" opacity=".25" overflow="visible"/>
 <path d="m16 1c-8.2768 0-15 6.7232-15 15 0 8.2768 6.7232 15 15 15 8.2768 0 15-6.7232 15-15 0-8.2768-6.7232-15-15-15z" color="#000000" fill="url(#a)" overflow="visible"/>
 <path d="M11.877 8.776c-.204 0-.394.08-.566.162l-.405.243c-1.984 1.309-3.382 3.331-3.8 5.7 0 .002-.04-.003-.04 0-.011.065.01.136 0 .202-.06.4-.121.795-.121 1.213 0 4.822 4.054 8.732 9.055 8.732 5.001 0 9.055-3.91 9.055-8.732 0-.371-.033-.733-.08-1.092-.015-.111-.062-.213-.081-.323-.418-2.369-1.816-4.391-3.8-5.7l-.405-.243c-.172-.081-.362-.162-.566-.162-.736 0-1.334.598-1.334 1.335 0 .419.223.806.526 1.05.096.078.208.154.323.203a6.32 6.32 0 0 1 2.588 3.517c.007.027.033.053.04.08.135.495.202 1 .202 1.537 0 3.445-2.896 6.226-6.468 6.226s-6.468-2.781-6.468-6.226c0-.536.068-1.042.202-1.536.008-.03.032-.053.04-.081a6.32 6.32 0 0 1 2.588-3.517c.115-.05.227-.125.323-.202.303-.245.526-.632.526-1.051 0-.737-.598-1.335-1.334-1.335zM16 5.623a1.29 1.29 0 0 1 1.294 1.294v7.762A1.29 1.29 0 0 1 16 15.972a1.29 1.29 0 0 1-1.294-1.293V6.917A1.29 1.29 0 0 1 16 5.623z" filter="url(#b)" opacity=".25" overflow="visible"/>
 <path d="M11.877 8.776c-.204 0-.394.08-.566.162l-.405.243c-1.984 1.309-3.382 3.331-3.8 5.7 0 .002-.04-.003-.04 0-.011.065.01.136 0 .202-.06.4-.121.795-.121 1.213 0 4.822 4.054 8.732 9.055 8.732 5.001 0 9.055-3.91 9.055-8.732 0-.371-.033-.733-.08-1.092-.015-.111-.062-.213-.081-.323-.418-2.369-1.816-4.391-3.8-5.7l-.405-.243c-.172-.081-.362-.162-.566-.162-.736 0-1.334.598-1.334 1.335 0 .419.223.806.526 1.05.096.078.208.154.323.203a6.32 6.32 0 0 1 2.588 3.517c.007.027.033.053.04.08.135.495.202 1 .202 1.537 0 3.445-2.896 6.226-6.468 6.226s-6.468-2.781-6.468-6.226c0-.536.068-1.042.202-1.536.008-.03.032-.053.04-.081a6.32 6.32 0 0 1 2.588-3.517c.115-.05.227-.125.323-.202.303-.245.526-.632.526-1.051 0-.737-.598-1.335-1.334-1.335zM16 5.623a1.29 1.29 0 0 1 1.294 1.294v7.762A1.29 1.29 0 0 1 16 15.972a1.29 1.29 0 0 1-1.294-1.293V6.917A1.29 1.29 0 0 1 16 5.623z" fill="#fff" overflow="visible"/>
</svg>
