<svg width="32" height="32" version="1.1" xmlns="http://www.w3.org/2000/svg" xmlns:xlink="http://www.w3.org/1999/xlink">
 <defs>
  <linearGradient id="a" x1="16" x2="16" y1="1" y2="31" gradientUnits="userSpaceOnUse">
   <stop stop-color="#ff791d" offset="0"/>
   <stop stop-color="#f8c430" offset="1"/>
  </linearGradient>
  <filter id="c" x="-.036" y="-.036" width="1.072" height="1.072" color-interpolation-filters="sRGB">
   <feGaussianBlur stdDeviation="0.45000001"/>
  </filter>
  <filter id="b" x="-.032824" y="-.039857" width="1.0656" height="1.0797" color-interpolation-filters="sRGB">
   <feGaussianBlur stdDeviation="0.2325"/>
  </filter>
 </defs>
 <path d="m16 1c-8.2759 0-15 6.7241-15 15 0 8.2759 6.7241 15 15 15 8.2759 0 15-6.7241 15-15 0-8.2759-6.7241-15-15-15z" color="#000000" filter="url(#c)" opacity=".25" overflow="visible"/>
 <path d="m16 1c-8.2759 0-15 6.7241-15 15 0 8.2759 6.7241 15 15 15 8.2759 0 15-6.7241 15-15 0-8.2759-6.7241-15-15-15z" color="#000000" fill="url(#a)" overflow="visible"/>
 <path d="M17 9l8 7.027L17 23v-5H8v-3.928h9z" filter="url(#b)" opacity=".25" overflow="visible"/>
 <path d="M17 9l8 7.027L17 23v-5H8v-3.928h9z" fill="#fff" overflow="visible"/>
</svg>
