<svg width="32" height="32" version="1.1" xmlns="http://www.w3.org/2000/svg" xmlns:xlink="http://www.w3.org/1999/xlink">
 <defs>
  <linearGradient id="linearGradient6037" x1="-.00038077" x2="32" y1="16" y2="16" gradientUnits="userSpaceOnUse">
   <stop stop-color="#f2f2f2" offset="0"/>
   <stop stop-color="#cccccc" offset="1"/>
  </linearGradient>
 </defs>
 <path d="m26.805 5.0043a4.9838 4.9833 0 0 0-3.6318 1.7797 0.99996 0.99985 0 1 0 1.5299 1.2858 2.9899 2.9896 0 0 1 3.6438-0.74989c1.2479 0.62591 1.8919 2.0137 1.5699 3.3715a2.9899 2.9896 0 0 1-2.9179 2.3077h-13.999a0.99996 0.99985 0 1 0 0 1.9997h13.999a0.99996 0.99985 0 0 0 0.19999-0.016 5.0038 5.0033 0 0 0 4.6678-3.8314 5.0078 5.0073 0 0 0-2.6199-5.6192 4.9918 4.9913 0 0 0-2.4419-0.52792zm-9.4116 0.019997a2.9959 2.9956 0 0 0-2.6759 1.0458 1.0001 0.99995 0 1 0 1.5319 1.2858c0.29999-0.35995 0.79596-0.45993 1.2159-0.24996 0.41998 0.20997 0.62997 0.6679 0.52198 1.1238a0.98996 0.98985 0 0 1-0.97196 0.76989 0.99996 0.99985 0 0 0-0.016 0h-13.999a0.99996 0.99985 0 1 0 0 1.9997h13.999a0.99996 0.99985 0 0 0 0.016 0h4e-3a0.99996 0.99985 0 0 0 0.32399-0.053993 2.9839 2.9836 0 0 0 2.5899-2.2537 3.0059 3.0056 0 0 0-2.5399-3.6675zm-16.393 7.9748a0.99996 0.99985 0 1 0 0 1.9997h7.9996a0.99996 0.99985 0 1 0 0-1.9997zm1.9019 4.0034a1.0012 1.0011 0 0 0 0.099996 1.9997h21.999a0.99996 0.99985 0 0 0 0.014 0c0.46998 0 0.86396 0.30995 0.97396 0.76589a0.99196 0.99185 0 0 1-0.52398 1.1238 0.98996 0.98985 0 0 1-1.2159-0.24996 0.99996 0.99985 0 1 0-1.5299 1.2858 2.9979 2.9976 0 0 0 3.6438 0.75389c1.2379-0.62191 1.8899-2.0277 1.5699-3.3755a2.9779 2.9776 0 0 0-2.5859-2.2457 0.99996 0.99985 0 0 0-0.34798-0.05999h-21.999a0.99996 0.99985 0 0 0-0.097996 0zm4.0998 3.9954a0.99996 0.99985 0 1 0 0 1.9997l9.9996 4e-3a0.99996 0.99985 0 0 0 0.014 0c0.46998 0 0.86396 0.30995 0.97396 0.76589a0.99196 0.99185 0 0 1-0.52398 1.1238 0.98996 0.98985 0 0 1-1.2159-0.24996 0.99996 0.99985 0 1 0-1.5299 1.2858 2.9979 2.9976 0 0 0 3.6438 0.75389c1.2379-0.61991 1.8899-2.0277 1.5699-3.3755a2.9779 2.9776 0 0 0-2.5859-2.2457 0.99996 0.99985 0 0 0-0.34798-0.05799z" color="#000000" fill="url(#linearGradient6037)" font-weight="400" overflow="visible" stroke-width="1.9998" style="font-feature-settings:normal;font-variant-alternates:normal;font-variant-caps:normal;font-variant-ligatures:normal;font-variant-numeric:normal;font-variant-position:normal;isolation:auto;mix-blend-mode:normal;shape-padding:0;text-decoration-color:#000000;text-decoration-line:none;text-decoration-style:solid;text-indent:0;text-orientation:mixed;text-transform:none;white-space:normal"/>
</svg>
