<svg width="48" height="48" xmlns="http://www.w3.org/2000/svg"><path d="M18.751 7.207c-.885.261-1.742.59-2.564.98l.28.744.114.46-.477.266-.195.357.145.817.58.096.552-.528.48-.505.742-.192.943-.456.553-.673.792-.963.553-.146-.024-.211h-.862l-1.612-.045zm6.595.34c-.042.016-1.173.018-1.173.018l-.291.075.384.46.408-.384.264.168.385-.192s.069-.162.023-.145zm4.612.355-.289.003-.36.048-.312.192-.36.27-.213.384.333.336.288.024.12-.195-.288-.242.168-.144.024-.117.36-.24s.469.006.505 0c.039-.01.144-.147.144-.147l-.12-.172zm2.088.638-.383.23-.408.336.048.145-.213.024v.003l-3.138.523.012-.01-.937.503-.24-.171-.12-.192.049-.196.529.027.243-.096-.478-.241-.672-.241-.676-.12-.723.146-.745.6-.335.337-.502.552-.192.024-.074.264.096.265s.102.12.12.12c.015 0 .192-.097.192-.097s.02-.09.12-.12c.102-.03.192-.048.192-.048l.144.288.173.24.07.193s.278-.171.29-.192c.007-.024.025-.315.025-.315l.208-.145s.057-.102.05-.12a5.393 5.393 0 0 0-.144-.168l-.12-.048.049-.243s.096-.04.096-.072c0-.03.147-.146.147-.146l.168-.211.12-.145.168-.12.195.145v.096l-.171.192-.05.192v.265l.146.12.264-.024.242-.049.214.119-.05.17s-.149.144-.191.168c-.046.024-.315-.048-.385-.024-.069.024-.24.243-.24.243s-.019.191 0 .24c.008.018-.004.055-.01.1l-.02.014-.29.214h-.02l-.192-.072s-.121.006-.173.05c-.048.04-.092.079-.24.093-.147.016-.433 0-.46 0h-.168l.024-.174.12-.192-.213-.172s-.142.177-.147.216c-.003.043.096.215.096.215s-.045.14-.07.17c-.026.03-.24.096-.24.096l-.337-.17s-.139-.03-.12.05c.02.077.173.149.173.215 0 .063-.096.211-.096.211l-.12.146-.192.195-.265.069s-.193.054-.241.072c-.05.018-.195.051-.195.051l-.192.024-.12.171.216.147.145.237s.091.172.118.172c.024 0 .071.168.071.168l-.145.192h-.072l-.505.096-.096-.216-.333.337-.147.554v.46l.58.312.456-.17.461-.818.407-.5.743-.12.168-.145.844.984.093.337.24-.12-.069-.288h.145l-.096-.196-.817-.768.072-.145.264-.023.577.576.288.339v.529l.147.096.288.288.213-.072-.117-.435.072-.265.145-.168.337.12.12.048-.024-.384.192-.36.12-.53.433.074.072.24.168.12.196-.168-.12-.266h.504l-.171.288.336.289.288.145.169.336-.385.093-.552-.12h-.477l-.46.243-.096.145-.334.072.145.36.264.313.48-.169.12.213.213-.168.289.048.026.315-.096.598-.264-.024-.315-.049-.145.358-1.056-.192-.192-.243-.243.216-.265.36-.672-.384-.672-.405v-.723l-.434.023-.022.241-1.057-.048-.337.308-.649.024-.435.385-.264.744-.673.531-.48.649-.024 1.249-.144.384-.049.46.288.5.169.481.58.696.333.288.339.073.069-.289h1.201l.315-.144.384.048.117.241.405.024.268.192V23l-.093.337-.096.264.24.435.312.36.145.913.023.598-.212.504-.023.48.168.888.147.145.208.84.027.363.435.576.048.457.072.528.266-.264.673-.07h.406l.747-1.152.048-.457.504-.504.024-.576.264-.58.625-.597v-.672l-.147-.625-.093-.865.457-.721.818-1.01.315-.311.115-.408.195-.36.05-.532h-.457l-.216.216-.434-.12-.264-.433-.216-.432-.503-.384-.116-.625-.216-.365-.24-.457-.313-.552-.072-.36.337-.05.192.409.384.72.288.53.315.576.334.555.462.462.412-.385.456-.12.334-.408.46-.264.265-.457.024-.384-.216-.243-.288-.336-.192.118-.12.195-.312-.144-.096-.24-.216-.316-.334-.312v-.625l.213.408.264.412.46.264.312-.072.192.216 1.372-.027-.027.027.435.384.312.433.096.213h.211l.074-.24.072.36.12.648.262.625.145.529.213.504.168.213.241-.145.073-.241.096-.596-.027-.53.195-.242s.204-.276.24-.288c.034-.01.478-.5.478-.5l.216-.269.24-.144.288-.169h.12l.049.265.12.312.384.5v.193l.072.216.265-.12-.026-.288.24.05.051.265-.026.408.072.288.216.05.069-.242.264.168.051.243.237.36.243.265.169.147.41-.36.17-.34-.073-.384-.07-.504-.463-.433-.07-.435.192-.306s.123-.245.243-.12c.114.13.172.145.117.289-.048.141-.144.46-.144.46l.288.12.12-.409-.12-.291.288-.12.339-.17a17.748 17.748 0 0 0-8.5-10.068zM27.963 9.79l-.004.005 3.144-.534-.021-.12-.243-.337-.503-.048s.119.51.119.576c0 .063-.337.02-.337.02l-.576.027s-.835.192-.937.192c-.102 0-.586.201-.625.216l-.018.003zM14.367 9.19c-.46.29-.908.6-1.338.929l.118.052.408.357.404.096.146-.552.027-.337.478.073s-.147.24-.073.24c.076 0 .36-.312.36-.312l-.53-.546zm5.332.672-.093.312c.345.268.477.265.477.265l.403-.097.27-.264-.174-.216zm-6.815.594s-.332.192-.653.312l-.005.003c-.07.061-.14.12-.21.182-.04.092-.022.176-.022.176l-.027.648-.528.433-.334.504s-.216-.144-.216-.24c0-.097-.048-.36-.048-.36l-.006-.006c-.33.355-.647.724-.947 1.106l.32.418.215.334s-.191.649-.24.769c-.049.12-.192-.241-.192-.241l-.12-.626-.408.173-.315.742.072-.623.015-.066c-.66.95-1.23 1.967-1.694 3.04h.302l.864-.192.312.409-.048.48.36.312.049-.34s-.018-.552-.073-.695c-.048-.145.435-.48.435-.48l.382-.472.46-.558.215-.433.721-.381.48-.531s.718-.114.862-.196c.147-.069.05-.333-.096-.576-.147-.24.072-.48.072-.48l.553-.334.48.093.05.58s.454.432.6.357c.145-.07.21-.312.21-.312l-.241-.625.146-.623-.648.093v-1.057l-.195.195-.505.024-.069-.529-.336-.408zm8.948.776-.192.169c-.05.234-.115.477-.115.477l.36.171.049.213-.193.195-.168.289.117.12.433-.073.384-.168-.213-.288-.075-.504-.265-.289-.121-.312zm-.595.91-.216.36.288.12.12-.215zm8.406 1.42c.105-.033.288.119.288.119l-.192.17.069.24.216.577.216.36.288.457-.312.146-.408-.264-.172-.504s-.232-.312-.335-.36c-.105-.051-.195-.217-.195-.217l.096-.408s.331-.276.434-.312l.006-.003zm-6.076.913-.289.553.216.216.193-.171.023-.238-.144-.36zm-.962.577v.144l.12-.023-.12-.12zm1.656.36-.144.05.237.408.216-.17-.309-.288zM8.792 18.63v.003l-.237.12.408.215.457.093.264.36.312-.192-.049-.214-.529-.385zm-.749.315-.433.07-.652.648-.279-.036c-.04.155-.078.31-.114.467l.446.212.84.46.12.557.673.646.384-.288.315.242-.05-.557-.597.147-.196-.696-.069-.315-.529-.478v-.336l.409-.435zm2.05 2.063-.004.003-.627.34-.07.69-.144.77-.433.576.023.864.359.889.384 1.08 1.009 1.01.048.576.073 2.601.36 1.46s.22.848.171.914c-.05.07.289.7.289.7l.672 1.056.938.404-.384-.46-.192-.529.192-.552-.504-.265s.334-.219.384-.288c.051-.069-.069-.36-.069-.36l-.147-.36.381-.502.6-.145.097-.46-.36-.168.144-.384.576-.072.504-1.229.36-.84.752-.362s.237-.713.237-.818c0-.1.072-1.177.072-1.177l.577-.786.072-.53-.433-.265-.36-.435-.655.05-1.033-.6-.207-.504s-.37-.625-.435-.625c-.066 0-.501.027-.501.027l-.408-.408-.265-.504-1.033-.216-.336-.168h-.673zm28.003.378c.087.1.625 1.706.697 1.706.069 0 .48.05.48.05l-.216-.648zm-2.762.051-.242.312.12.46.264-.289-.049-.363zm5.985.68-.9.497c0 .072-.556.53-.556.53l.146.48.315.358.21.529.9-.584a17.766 17.766 0 0 0-.116-1.81zm-3.302.208-.335.051 1.534 2.306.408.456 1.009.05.625.195-.675-.48-.96-.267-.242-.887-.529-.433-.84-.984.004-.007zm-8.071 3.747v.337c-.016.051-.312.288-.312.288l-.36.169-.265.216.195.264.12.12-.315.264v.433l.12.457.264.072.315-.48.192-.313-.048-.384.288-.456.096-.216v-.433l-.074-.337-.217-.001zm11.159 1.526c-.039.013-.089.028-.092.04-.015.065-.433.288-.433.288-.086 0-.357.504-.357.504l-.05 1.585-.094.577.1.129c.4-1 .713-2.043.926-3.123zM14.21 33.35l-.166.117-.072.024.384.192-.146-.334zm-.652.142.002.003.001-.003zm.002.003-.167.381.336-.072zm1.154 3.167-.36.552-.673.312.384.48-.576.289-.364-.018a17.595 17.595 0 0 0 10.638 3.56c4.717 0 8.998-1.851 12.167-4.86l-1.959.073-2.354.477s-1.136.61-1.273.58c-.138-.033.48-.793.48-.793l-1.106.07-.694-.577-.7.477s-.934.074-1.173.074c-.243 0-.556.433-.556.433l-1.897-.07-3.267.145-.861.742-.216.027-2.47-.172-1.706.172-.6-.292.023-.048s-.5-1.014-.5-1.153c0-.135-.385-.477-.385-.477l-.002-.002z" fill="#363636" opacity=".75"/><path d="M24 5A19 19 0 0 0 5 24a19 19 0 0 0 19 19 19 19 0 0 0 19-19A19 19 0 0 0 24 5zm0 2a17 17 0 0 1 17 17 17 17 0 0 1-17 17A17 17 0 0 1 7 24 17 17 0 0 1 24 7z" fill="#363636" style="paint-order:stroke fill markers"/></svg>