<svg width="48" height="48" version="1.1" viewBox="0 0 48 48" xmlns="http://www.w3.org/2000/svg">
 <path d="m18.751 7.2069c-0.88533 0.2613-1.7422 0.58945-2.5638 0.97986l0.27897 0.74469 0.11528 0.45957-0.47725 0.26591-0.1952 0.35736 0.14525 0.81694 0.57946 0.09606 0.55257-0.52874 0.48032-0.50415 0.74162-0.19213 0.94297-0.4565 0.55256-0.67245 0.79234-0.96372 0.55256-0.14525-0.02382-0.21134h-0.86151l-1.6124-0.045344zm6.5954 0.34045c-0.04226 0.015373-1.1735 0.017679-1.1735 0.017679l-0.29127 0.07531 0.38426 0.45957 0.40808-0.38426 0.26437 0.16831 0.38426-0.19213s0.06917-0.16216 0.02382-0.14448zm4.6111 0.35429-0.2882 0.0031-0.36044 0.048418-0.31202 0.19213-0.36044 0.26898-0.21288 0.38426 0.33354 0.33661 0.28819 0.023821 0.11989-0.1952-0.2882-0.24132 0.1683-0.14448 0.02382-0.11682 0.36044-0.24055s0.46803 0.0061 0.50415 0c0.03919-0.00922 0.14448-0.14679 0.14448-0.14679l-0.11989-0.17138zm2.0881 0.63787-0.38272 0.22979-0.40808 0.33661 0.04843 0.14525-0.21288 0.023821v0.0031l-3.1386 0.52259 0.01229-0.00922-0.93682 0.50261-0.24055-0.17138-0.11989-0.19213 0.04918-0.1952 0.52874 0.026902 0.24285-0.096064-0.47725-0.24131-0.67245-0.24132-0.67553-0.11989-0.72318 0.14679-0.74469 0.59868-0.33508 0.33738-0.50261 0.55256-0.19213 0.02382-0.07379 0.26437 0.09606 0.26437s0.10222 0.11989 0.11989 0.11989c0.01537 0 0.19213-0.09606 0.19213-0.09606s0.02075-0.08992 0.11989-0.11989c0.10221-0.02997 0.19213-0.04842 0.19213-0.04842l0.14448 0.2882 0.17292 0.24055 0.06917 0.19213s0.27897-0.17138 0.29127-0.19213c0.0061-0.02382 0.02382-0.31509 0.02382-0.31509l0.20827-0.14448s0.05687-0.10221 0.05073-0.11989c-0.0092-0.01537-0.14448-0.16831-0.14448-0.16831l-0.11989-0.04842 0.04843-0.24285s0.09606-0.03919 0.09606-0.07224c0-0.02998 0.14679-0.14525 0.14679-0.14525l0.16831-0.21134 0.11989-0.14525 0.16831-0.11989 0.1952 0.14525v0.09606l-0.17138 0.19213-0.05073 0.19213v0.26437l0.14679 0.11989 0.26437-0.02382 0.24132-0.04842 0.21442 0.11835-0.04918 0.16984s-0.14986 0.14448-0.19213 0.16831c-0.04535 0.02382-0.31509-0.04842-0.38426-0.02382-0.06917 0.02382-0.24132 0.24285-0.24132 0.24285s-0.01768 0.19136 0 0.24055c0.0092 0.01768-0.0031 0.05457-0.0092 0.09914l-0.01921 0.01384-0.29127 0.21441h-0.01922l-0.19213-0.07224s-0.12142 0.0061-0.17292 0.05073c-0.04842 0.0392-0.09222 0.07839-0.24054 0.093-0.14679 0.01537-0.43268 0-0.45957 0h-0.16831l0.02382-0.17445 0.11989-0.19213-0.21288-0.17138s-0.14141 0.17676-0.14679 0.21595c-0.0031 0.04227 0.09606 0.21442 0.09606 0.21442s-0.04535 0.13987-0.06917 0.16984c-0.02691 0.02997-0.24054 0.09606-0.24054 0.09606l-0.33738-0.16984s-0.13833-0.02921-0.11989 0.04918c0.02075 0.07839 0.17292 0.14986 0.17292 0.21595 0 0.06302-0.09606 0.21134-0.09606 0.21134l-0.11989 0.14525-0.19213 0.1952-0.26437 0.06917s-0.1929 0.05378-0.24131 0.07224c-0.05073 0.01768-0.1952 0.05073-0.1952 0.05073l-0.19213 0.02382-0.11989 0.17138 0.21595 0.14679 0.14525 0.23747s0.09145 0.17138 0.11835 0.17138c0.02382 0 0.07071 0.16831 0.07071 0.16831l-0.14525 0.19213h-0.07224l-0.50415 0.09606-0.09606-0.21595-0.33354 0.33661-0.14679 0.5541v0.45957l0.57946 0.31202 0.4565-0.16984 0.46111-0.8177 0.40655-0.50107 0.74316-0.11989 0.16831-0.14448 0.84383 0.98447 0.09299 0.33661 0.24055-0.11989-0.06917-0.28819h0.14448l-0.09606-0.1952-0.81694-0.76852 0.07224-0.14448 0.26437-0.02382 0.57639 0.57639 0.2882 0.33892v0.52874l0.14679 0.09606 0.28819 0.2882 0.21288-0.07224-0.11682-0.43498 0.07224-0.26437 0.14448-0.16831 0.33738 0.11989 0.11989 0.04842-0.02382-0.38426 0.19213-0.36043 0.11989-0.52951 0.43268 0.07379 0.07224 0.24055 0.1683 0.11989 0.1952-0.16831-0.11989-0.26591h0.50415l-0.17138 0.2882 0.33661 0.2882 0.2882 0.14525 0.16831 0.33661-0.38426 0.093-0.55256-0.11989h-0.47725l-0.45958 0.24285-0.09606 0.14448-0.33354 0.07225 0.14448 0.36044 0.26437 0.31202 0.48032-0.16831 0.11989 0.21288 0.21288-0.1683 0.28819 0.04842 0.02691 0.31509-0.09606 0.59714-0.26437-0.02382-0.31509-0.04842-0.14448 0.35736-1.0567-0.19213-0.19213-0.24285-0.24285 0.21595-0.26437 0.36044-0.67245-0.38426-0.67245-0.40501v-0.72319l-0.43344 0.02382-0.02229 0.24055-1.0567-0.04842-0.33738 0.30894-0.64863 0.02382-0.43498 0.38426-0.26437 0.7447-0.67245 0.53104-0.48032 0.64863-0.02382 1.2488-0.14448 0.38426-0.04842 0.45958 0.2882 0.50107 0.1683 0.48032 0.57946 0.69628 0.33354 0.28819 0.33892 0.07224 0.06917-0.2882h1.2012l0.31509-0.14448 0.38426 0.04842 0.11682 0.24055 0.40501 0.02382 0.26744 0.19213v0.40807l-0.09299 0.33661-0.09606 0.26437 0.24055 0.43498 0.31202 0.36044 0.14525 0.913 0.02229 0.59714-0.21134 0.50415-0.02382 0.48032 0.1683 0.88841 0.14679 0.14448 0.20827 0.84076 0.02691 0.36197 0.43498 0.57639 0.04842 0.4565 0.07224 0.52874 0.26591-0.26437 0.67245-0.06917h0.40655l0.74623-1.1528 0.04842-0.4565 0.50415-0.50415 0.02382-0.57639 0.26437-0.57946 0.62481-0.59714v-0.67245l-0.14679-0.6248-0.093-0.86458 0.4565-0.72164 0.8177-1.0091 0.31509-0.31202 0.11528-0.40808 0.1952-0.36044 0.04918-0.53105h-0.4565l-0.21595 0.21595-0.43344-0.11989-0.26437-0.43268-0.21595-0.43268-0.50261-0.38426-0.11682-0.62481-0.21595-0.36505-0.24055-0.4565-0.31202-0.55256-0.07224-0.36043 0.33661-0.04843 0.19213 0.40808 0.38426 0.72087 0.2882 0.52874 0.31509 0.57639 0.33354 0.55564 0.46265 0.46111 0.41116-0.38426 0.4565-0.11989 0.33354-0.40808 0.46111-0.26437 0.26437-0.4565 0.02382-0.38426-0.21596-0.24285-0.28819-0.33661-0.19213 0.11835-0.11989 0.1952-0.31202-0.1445-0.09606-0.24054-0.21595-0.31509-0.33354-0.31202v-0.6248l0.21288 0.40808 0.26437 0.41116 0.45957 0.26437 0.31202-0.07224 0.19213 0.21595 1.3718-0.02691-0.02691 0.02691 0.43498 0.38426 0.31202 0.43268 0.09606 0.21288h0.21134l0.07378-0.23901 0.07224 0.3589 0.11989 0.64863 0.2613 0.62481 0.14525 0.52874 0.21288 0.50415 0.1683 0.21288 0.24132-0.14448 0.07224-0.24132 0.09606-0.5956-0.02691-0.52951 0.1952-0.24285s0.20366-0.2759 0.24055-0.2882c0.03304-0.0092 0.47725-0.49954 0.47725-0.49954l0.21595-0.26898 0.24055-0.14448 0.28819-0.1683h0.11989l0.04843 0.26437 0.11989 0.31202 0.38426 0.50107v0.19213l0.07224 0.21595 0.26437-0.11989-0.02536-0.2882 0.24055 0.05073 0.05073 0.26437-0.02691 0.40808 0.07224 0.28819 0.21595 0.04918 0.06917-0.24132 0.26437 0.1683 0.05073 0.24285 0.23747 0.36044 0.24285 0.26437 0.16831 0.14679 0.41116-0.36044 0.16831-0.33892-0.07224-0.38426-0.06917-0.50415-0.46418-0.43268-0.06917-0.43498 0.19213-0.30587s0.12296-0.24592 0.24285-0.11989c0.11374 0.12911 0.17138 0.14448 0.11682 0.2882-0.04843 0.14141-0.14448 0.45957-0.14448 0.45957l0.2882 0.11989 0.11989-0.40808-0.11989-0.29127 0.28819-0.11989 0.33892-0.16984c-1.4379-4.3467-4.5151-7.9465-8.4999-10.068zm-4.0831 1.2519-0.0031 0.00465 3.1432-0.53412-0.02075-0.11989-0.24285-0.33661-0.50261-0.048417s0.11835 0.5103 0.11835 0.57639c0 0.063016-0.33661 0.01921-0.33661 0.01921l-0.57639 0.026902s-0.83461 0.19213-0.93682 0.19213c-0.10221 0-0.58561 0.20135-0.6248 0.21595l-0.01768 0.0031zm-13.594-0.60175c-0.46111 0.28973-0.90839 0.59944-1.3388 0.92914l0.11835 0.05225 0.40808 0.35736 0.40347 0.09606 0.14679-0.55256 0.02691-0.33661 0.47725 0.072239s-0.14679 0.24055-0.07224 0.24055c0.07531 0 0.36044-0.31202 0.36044-0.31202l-0.53106-0.54641zm5.3312 0.67245-0.09299 0.31202c0.34506 0.26744 0.47725 0.26437 0.47725 0.26437l0.40347-0.09606 0.26898-0.26437-0.17292-0.21595zm-6.8145 0.59406s-0.332 0.19213-0.65324 0.31202c-0.0016 0.0016-0.0031 0.0016-0.0047 0.0031-0.06993 0.06071-0.14064 0.11989-0.2098 0.18137-0.04073 0.09222-0.02229 0.17599-0.02229 0.17599l-0.02691 0.64863-0.52874 0.43268-0.33354 0.50415s-0.21595-0.14448-0.21595-0.24055c0-0.09606-0.04842-0.36044-0.04842-0.36044l-0.0061-0.0047c-0.33043 0.35508-0.6463 0.72397-0.94679 1.1052l0.3197 0.41884 0.21595 0.33354s-0.19136 0.64863-0.24055 0.76852c-0.04842 0.11989-0.19213-0.24055-0.19213-0.24055l-0.11989-0.62558-0.40808 0.17292-0.31509 0.74162 0.072239-0.62327 0.015373-0.0661c-0.65943 0.95064-1.2297 1.9674-1.6946 3.041h0.30203l0.86458-0.19213 0.31202 0.40808-0.048417 0.48032 0.36044 0.31202 0.048417-0.33892s-0.017679-0.55256-0.072239-0.69628c-0.048417-0.14448 0.43498-0.48032 0.43498-0.48032l0.38119-0.4711 0.45957-0.55871 0.21595-0.43268 0.72087-0.38119 0.48032-0.53105s0.7178-0.11374 0.86151-0.1952c0.14679-0.06917 0.05073-0.33354-0.09606-0.57639-0.14679-0.24055 0.07224-0.48032 0.07224-0.48032l0.55256-0.33354 0.48032 0.09299 0.05073 0.57946s0.45343 0.43268 0.60021 0.35736c0.14448-0.06917 0.20827-0.31202 0.20827-0.31202l-0.24055-0.62481 0.14679-0.62327-0.64863 0.09299v-1.0567l-0.1952 0.1952-0.50415 0.02382-0.06917-0.52874-0.33661-0.40808zm8.9479 0.7762-0.19213 0.16831c-0.05073 0.2344-0.11528 0.47725-0.11528 0.47725l0.36044 0.17138 0.04843 0.21288-0.19213 0.1952-0.16831 0.28819 0.11682 0.11989 0.43268-0.07224 0.38426-0.16831-0.21288-0.2882-0.0753-0.50415-0.26437-0.28819-0.12143-0.31202zm-0.5956 0.90993-0.21595 0.36044 0.2882 0.11989 0.11989-0.21595zm8.4061 1.4202c0.10529-0.03304 0.2882 0.11835 0.2882 0.11835l-0.19213 0.16984 0.06917 0.24055 0.21596 0.57639 0.21595 0.36043 0.28819 0.4565-0.31202 0.14679-0.40808-0.26437-0.17138-0.50415s-0.23286-0.31202-0.33507-0.36044c-0.10529-0.05073-0.1952-0.21595-0.1952-0.21595l0.09606-0.40808s0.33123-0.2759 0.43344-0.31202l0.0061-0.0031zm-6.0759 0.913-0.2882 0.55256 0.21595 0.21596 0.19213-0.17138 0.02382-0.23747-0.14448-0.36044zm-0.96219 0.57639v0.14448l0.11989-0.02382-0.11989-0.11989zm1.6569 0.36044-0.14448 0.04918 0.23747 0.40808 0.21595-0.16984-0.30894-0.28819zm-15.47 3.217v0.0031l-0.23747 0.11989 0.40808 0.21442 0.4565 0.093 0.26437 0.36044 0.31202-0.19213-0.04842-0.21442-0.52951-0.38426zm-0.74931 0.31509-0.43344 0.06917-0.6517 0.64863-0.27897-0.03612c-0.040735 0.15447-0.077616 0.31048-0.11374 0.46649l0.44574 0.21288 0.84076 0.45957 0.11989 0.55718 0.67245 0.64556 0.38426-0.28819 0.31509 0.24285-0.050722-0.55718-0.59714 0.14679-0.1952-0.69628-0.069168-0.31509-0.52874-0.47725v-0.33661l0.40808-0.43498zm2.0504 2.0627-0.0047 0.0031-0.62711 0.33892-0.069166 0.69167-0.14448 0.76852-0.43268 0.57639 0.02229 0.86458 0.3589 0.88841 0.38426 1.0805 1.0091 1.0091 0.04843 0.57639 0.07224 2.6014 0.36044 1.4602s0.21903 0.84768 0.17138 0.91377c-0.05073 0.06917 0.2882 0.69935 0.2882 0.69935l0.67245 1.0567 0.93836 0.40347-0.38426-0.45958-0.19213-0.52874 0.19213-0.55256-0.50415-0.26437s0.33354-0.21903 0.38426-0.2882c0.05073-0.06917-0.06917-0.36044-0.06917-0.36044l-0.14679-0.3589 0.38118-0.50261 0.60021-0.14525 0.09606-0.45957-0.36044-0.1683 0.14448-0.38426 0.57639-0.07224 0.50415-1.2281 0.36044-0.84076 0.75084-0.36197s0.23747-0.71318 0.23747-0.8177c0-0.09914 0.07224-1.1766 0.07224-1.1766l0.57639-0.78619 0.07225-0.53105-0.43268-0.26437-0.36044-0.43498-0.65478 0.05073-1.0329-0.60021-0.2075-0.50415s-0.36889-0.6248-0.43498-0.6248c-0.06609 0-0.50107 0.02691-0.50107 0.02691l-0.40809-0.40811-0.26437-0.50415-1.0329-0.21595-0.33661-0.16831h-0.67241zm28.003 0.37811c0.08685 0.09914 0.6248 1.7053 0.69628 1.7053 0.06917 0 0.48032 0.05073 0.48032 0.05073l-0.21595-0.64864zm-2.7621 0.05073-0.24285 0.31202 0.11989 0.45958 0.26437-0.2882-0.04842-0.36351zm5.9845 0.68014-0.89917 0.49646c0 0.07224-0.55718 0.53104-0.55718 0.53104l0.14679 0.48032 0.31509 0.35736 0.2098 0.52874 0.89917-0.58408c-0.0076-0.61174-0.04688-1.215-0.11528-1.8099zm-3.3023 0.20827-0.33507 0.05073 1.534 2.3056 0.40808 0.4565 1.0091 0.04918 0.62557 0.1952-0.67553-0.48032-0.96065-0.26591-0.24131-0.88687-0.52874-0.43344-0.84076-0.98447 0.0047-0.0061zm-8.071 3.7465v0.33738c-0.01537 0.05073-0.31202 0.2882-0.31202 0.2882l-0.36043 0.1683-0.26437 0.21595 0.1952 0.26437 0.11989 0.11989-0.31509 0.26437v0.43268l0.11989 0.4565 0.26437 0.07224 0.31509-0.48032 0.19213-0.31202-0.04842-0.38426 0.28819-0.4565 0.09606-0.21595v-0.43268l-0.07378-0.33661-0.21749-0.0016zm11.159 1.5263c-0.03842 0.01307-0.08838 0.02766-0.09146 0.0392-0.01538 0.0661-0.43268 0.28819-0.43268 0.28819-0.08685 0-0.35736 0.50415-0.35736 0.50415l-0.05073 1.5855-0.09299 0.57639 0.09914 0.12911c0.39963-0.99907 0.71318-2.0427 0.92607-3.1225zm-26.894 5.7531-0.16523 0.11682-0.07224 0.02382 0.38426 0.19213-0.14679-0.33354zm-0.6517 0.14141 0.0016 0.0031 0.0016-0.0031zm0.0016 0.0031-0.16677 0.38119 0.33661-0.07224zm1.1543 3.1671-0.36044 0.55256-0.67245 0.31202 0.38426 0.48032-0.57639 0.28819-0.36351-0.01768c2.9596 2.2341 6.6438 3.559 10.638 3.559 4.7164 0 8.9978-1.8506 12.167-4.8601l-1.959 0.07378-2.3547 0.47725s-1.1351 0.60943-1.2727 0.57946c-0.13833-0.03304 0.48032-0.79234 0.48032-0.79234l-1.1059 0.06917-0.69474-0.57639-0.69935 0.47725s-0.93375 0.07378-1.1735 0.07378c-0.24285 0-0.55564 0.43268-0.55564 0.43268l-1.8975-0.06917-3.2662 0.14448-0.86151 0.74162-0.21595 0.02691-2.4708-0.17138-1.7053 0.17138-0.60021-0.29127 0.02382-0.04843s-0.50107-1.0144-0.50107-1.1528c0-0.13526-0.38426-0.47725-0.38426-0.47725l-0.0016-0.0016z" fill="#363636" opacity=".75" stroke-width=".76852"/>
 <path d="m24 5a19 19 0 0 0-19 19 19 19 0 0 0 19 19 19 19 0 0 0 19-19 19 19 0 0 0-19-19zm0 2a17 17 0 0 1 17 17 17 17 0 0 1-17 17 17 17 0 0 1-17-17 17 17 0 0 1 17-17z" fill="#363636" stroke-linecap="round" stroke-linejoin="round" stroke-width="8" style="paint-order:stroke fill markers"/>
</svg>
