<svg width="16" height="16" version="1.1" xmlns="http://www.w3.org/2000/svg">
 <style id="current-color-scheme" type="text/css">.ColorScheme-NeutralText {
            color:#f67400;
        }
        .ColorScheme-Text {
            color:#232629;
        }</style>
 <rect class="ColorScheme-NeutralText" width="16" height="16" rx="2" fill="currentColor"/>
 <path class="ColorScheme-Text" d="M2 0C.892 0 0 .892 0 2v12c0 1.108.892 2 2 2h12c1.108 0 2-.892 2-2V2c0-1.108-.892-2-2-2zm0 1h12c.554 0 1 .446 1 1v12c0 .554-.446 1-1 1H2c-.554 0-1-.446-1-1V2c0-.554.446-1 1-1z" fill="currentColor" fill-opacity=".6"/>
 <path d="m14.256 1.0371-2.3965 2.3965c-1.1731-0.83845-2.8047-0.7305-3.8594 0.32422l-1.4141 1.4141 0.70703 0.70703 1.4141-1.4141c0.78347-0.78347 2.0447-0.78347 2.8281 0 0.78347 0.78347 0.78347 2.0447 0 2.8281l-1.4141 1.4141 0.70703 0.70703 1.4141-1.4141c1.0547-1.0547 1.1627-2.6862 0.32422-3.8594l2.3965-2.3965c-0.091483-0.34584-0.36119-0.61555-0.70703-0.70703zm-9.084 5.5488-1.4141 1.4141c-1.0547 1.0547-1.1627 2.6862-0.32422 3.8594l-2.3965 2.3965c0.091482 0.34584 0.36119 0.61555 0.70703 0.70703l2.3965-2.3965c1.1731 0.83845 2.8047 0.7305 3.8594-0.32422l1.4141-1.4141-0.70703-0.70703-1.4141 1.4141c-0.78347 0.78347-2.0447 0.78347-2.8281 0-0.78347-0.78347-0.78347-2.0447 0-2.8281l1.4141-1.4141-0.70703-0.70703z" fill="#ffffff" stroke-opacity=".26047"/>
</svg>
