<svg width="16" height="16" version="1.1" xmlns="http://www.w3.org/2000/svg">
 <style id="current-color-scheme" type="text/css">.ColorScheme-Highlight {
            color:#3daee9;
        }
        .ColorScheme-Text {
            color:#232629;
        }</style>
 <rect class="ColorScheme-Highlight" width="16" height="16" rx="2" fill="currentColor"/>
 <path class="ColorScheme-Text" d="M2 0C.892 0 0 .892 0 2v12c0 1.108.892 2 2 2h12c1.108 0 2-.892 2-2V2c0-1.108-.892-2-2-2zm0 1h12c.554 0 1 .446 1 1v12c0 .554-.446 1-1 1H2c-.554 0-1-.446-1-1V2c0-.554.446-1 1-1z" fill="currentColor" fill-opacity=".6"/>
 <g fill="#ffffff" stroke-opacity=".26047">
  <path d="m3.0507 11.182-0.70703-0.70703 5.6563-5.6563 5.6563 5.6563-0.70703 0.70703-4.9493-4.9493z"/>
  <circle cx="13.5" cy="13.5" r=".5"/>
  <circle cx="11.5" cy="13.5" r=".5"/>
  <circle cx="9.5" cy="13.5" r=".5"/>
 </g>
</svg>
