<svg width="16" height="16" version="1.1" xmlns="http://www.w3.org/2000/svg">
 <style id="current-color-scheme" type="text/css">.ColorScheme-NeutralText {
            color:#f67400;
        }
        .ColorScheme-Text {
            color:#232629;
        }</style>
 <rect class="ColorScheme-NeutralText" width="16" height="16" rx="2" fill="currentColor"/>
 <path class="ColorScheme-Text" d="m2 0c-1.108 0-2 .892-2 2v12c0 1.108.892 2 2 2h12c1.108 0 2-.892 2-2v-12c0-1.108-.892-2-2-2zm0 1h12c.554 0 1 .446 1 1v12c0 .554-.446 1-1 1h-12c-.554 0-1-.446-1-1v-12c0-.554.446-1 1-1z" fill="currentColor" fill-opacity=".6"/>
 <path d="m8 2a6 6 0 0 0-6 6 6 6 0 0 0 6 6 6 6 0 0 0 6-6 6 6 0 0 0-6-6zm0 1a5 5 0 0 1 5 5 5 5 0 0 1-1.1387 3.1543l-7.0156-7.0156a5 5 0 0 1 3.1543-1.1387zm-3.8613 1.8457 7.0156 7.0156a5 5 0 0 1-3.1543 1.1387 5 5 0 0 1-5-5 5 5 0 0 1 1.1387-3.1543z" fill="#ffffff" stroke-opacity=".26047"/>
</svg>
