<svg width="24" height="24" version="1.1" xmlns="http://www.w3.org/2000/svg">
 <defs>
  <style id="current-color-scheme" type="text/css">.ColorScheme-Text { color:#f2f2f2; } .ColorScheme-Highlight { color:#4285f4; }</style>
 </defs>
 <g class="ColorScheme-Text" fill="currentColor">
  <path d="m5 11v3c0 3 2 5 5 5h2c3 0 4.76-1.566 4.959-4h0.541c1.5 0 1.5-1.5 1.5-1.5v-1c0-1.5-1.5-1.5-1.5-1.5h-0.5zm12.5 1c0.5-0.032 0.516 0.531 0.516 0.531v1c0 0.469-0.516 0.469-0.516 0.469h-0.5l0.01-1.985z"/>
  <path d="m11.193 3.999c-1.098 1.385-1.428 2.066-1.032 2.948 0.36 0.798 1.288 1.205 0.821 3.052 0.767-0.9 1.376-2.042 0.774-2.964-0.612-0.938-0.948-1.508-0.563-3.036zm-3 0c-1.098 1.385-1.428 2.066-1.032 2.948 0.36 0.798 1.288 1.205 0.821 3.052 0.767-0.9 1.376-2.042 0.774-2.964-0.612-0.938-0.948-1.508-0.563-3.036zm6 0c-1.098 1.385-1.428 2.066-1.032 2.948 0.36 0.798 1.288 1.205 0.821 3.052 0.767-0.9 1.376-2.042 0.774-2.964-0.612-0.938-0.948-1.508-0.563-3.036z" opacity=".35"/>
 </g>
</svg>
