<?xml version="1.0" encoding="UTF-8" standalone="no"?>
<svg
   width="64"
   height="64"
   version="1.1"
   viewBox="0 0 64 64"
   id="svg7519"
   sodipodi:docname="file-manager.svg"
   inkscape:version="1.3 (1:1.3+202307231459+0e150ed6c4)"
   xmlns:inkscape="http://www.inkscape.org/namespaces/inkscape"
   xmlns:sodipodi="http://sodipodi.sourceforge.net/DTD/sodipodi-0.dtd"
   xmlns="http://www.w3.org/2000/svg"
   xmlns:svg="http://www.w3.org/2000/svg">
  <sodipodi:namedview
     id="namedview7521"
     pagecolor="#505050"
     bordercolor="#eeeeee"
     borderopacity="1"
     inkscape:showpageshadow="0"
     inkscape:pageopacity="0"
     inkscape:pagecheckerboard="0"
     inkscape:deskcolor="#505050"
     showgrid="false"
     inkscape:zoom="8"
     inkscape:cx="22.375"
     inkscape:cy="35.875"
     inkscape:window-width="1920"
     inkscape:window-height="1048"
     inkscape:window-x="1920"
     inkscape:window-y="0"
     inkscape:window-maximized="1"
     inkscape:current-layer="svg7519"
     showguides="true" />
  <defs
     id="defs7497">
    <linearGradient
       id="linearGradient1530"
       x1="399.57"
       x2="399.57"
       y1="545.8"
       y2="517.8"
       gradientTransform="matrix(2.1429 0 0 2.1429 -732.65 -1110.1)"
       gradientUnits="userSpaceOnUse">
      <stop
         stop-color="#3889e9"
         offset="0"
         id="stop7482" />
      <stop
         stop-color="#5ea5fb"
         offset="1"
         id="stop7484" />
    </linearGradient>
    <linearGradient
       id="linearGradient1769-9"
       x1="445.28"
       x2="445.28"
       y1="179.28"
       y2="200.07"
       gradientTransform="matrix(1.011 0 0 .99098 -419.54 -154.86)"
       gradientUnits="userSpaceOnUse">
      <stop
         stop-color="#3ab8fb"
         offset="0"
         id="stop7487"
         style="stop-color:#47beff;stop-opacity:1;" />
      <stop
         stop-color="#60c4fb"
         offset="1"
         id="stop7489"
         style="stop-color:#87cefb;stop-opacity:1;" />
    </linearGradient>
    <linearGradient
       id="linearGradient5852"
       x1="19.307"
       x2="19.307"
       y1="24.991"
       y2="15.954"
       gradientUnits="userSpaceOnUse">
      <stop
         stop-color="#009ef8"
         offset="0"
         id="stop7492"
         style="stop-color:#0099e6;stop-opacity:1;" />
      <stop
         stop-color="#27affa"
         offset="1"
         id="stop7494"
         style="stop-color:#037bb9;stop-opacity:1;" />
    </linearGradient>
    <linearGradient
       id="linearGradient862-5"
       x1="7.9373002"
       x2="7.9373002"
       y1="15.081"
       y2="1.852"
       gradientTransform="matrix(3.7796,0,0,3.7796,-0.10998416,0.13990545)"
       gradientUnits="userSpaceOnUse">
      <stop
         stop-color="#0e71de"
         offset="0"
         id="stop257" />
      <stop
         stop-color="#25c9ff"
         offset="1"
         id="stop259" />
    </linearGradient>
  </defs>
  <rect
     x="3.8900146"
     y="4.1085052"
     width="56.001999"
     height="56.001999"
     rx="13.002"
     ry="13.002"
     fill="url(#linearGradient862-5)"
     stroke-width="3.7796"
     id="rect266"
     style="fill:#ffffff;fill-opacity:1" />
  <path
     style="opacity:0.468033;fill:#000000;fill-opacity:1"
     d="m 11.294138,51.181039 8.906476,8.931539 27.077912,-0.01443 c 7.271133,-0.175946 12.584172,-6.285727 12.611462,-12.65337 l 0.008,-19.810894 -7.260064,-7.277007 c -6.890629,5.13736 -41.775366,20.902624 -41.743544,25.983732 0.02278,3.637217 -0.184136,3.852446 0.399768,4.840427 z"
     id="path5"
     sodipodi:nodetypes="ccccccscc" />
  <circle
     cx="125.73"
     cy="29.435"
     r="0"
     fill="url(#linearGradient1530)"
     stroke-width="1.5715"
     id="circle7499" />
  <g
     id="g1"
     transform="translate(-81.80278,-11.379385)">
    <rect
       style="opacity:0.2;stroke-width:0.748588"
       width="41.920902"
       height="26.949154"
       x="92.696884"
       y="36.451283"
       rx="2.096045"
       ry="2.096045"
       id="rect1" />
    <path
       style="fill:#4877b1;stroke-width:0.748588"
       d="m 92.696879,54.567103 c 0,1.16106 0.934838,2.096046 2.096046,2.096046 h 37.728815 c 1.16106,0 2.09604,-0.934986 2.09604,-2.096046 V 31.810041 c 0,-1.16106 -0.93498,-2.096046 -2.09604,-2.096046 h -18.86441 c -3.14407,0 -4.19209,-4.491525 -7.33616,-4.491525 H 94.792925 c -1.161208,0 -2.096046,0.934836 -2.096046,2.096045"
       id="path1" />
    <rect
       style="opacity:0.2;stroke-width:0.748588"
       width="41.920902"
       height="26.949154"
       x="92.696884"
       y="34.954109"
       rx="2.096045"
       ry="2.096045"
       id="rect2" />
    <rect
       style="fill:#e4e4e4;stroke-width:0.748588"
       width="35.932201"
       height="16.468927"
       x="95.691231"
       y="31.959759"
       rx="2.096045"
       ry="2.096045"
       id="rect3" />
    <rect
       style="fill:#5294e2;stroke-width:0.748588"
       width="41.920902"
       height="26.949154"
       x="92.696884"
       y="35.702694"
       rx="2.096045"
       ry="2.096045"
       id="rect4" />
    <path
       style="opacity:0.1;fill:#ffffff;stroke-width:0.748588"
       d="m 94.793525,25.22247 c -1.16121,0 -2.096646,0.935435 -2.096646,2.096644 v 0.748738 c 0,-1.16136 0.935436,-2.096794 2.096646,-2.096794 h 11.526905 c 3.14406,0 4.19283,4.491525 7.3369,4.491525 h 18.86366 c 1.16106,0 2.09679,0.935735 2.09679,2.096794 v -0.748588 c 0,-1.161059 -0.93573,-2.096794 -2.09679,-2.096794 h -18.86366 c -3.14407,0 -4.19284,-4.491525 -7.3369,-4.491525 z"
       id="path4" />
  </g>
</svg>
