<svg xmlns="http://www.w3.org/2000/svg" width="64" height="64" viewBox="0 0 16.933 16.933"><path fill="#d06968" d="M2.21 2.38h2.694c.75 0 .783.03 1.542.63.697.526.948.43 1.864.43h6.413a1.146 1.146 0 0 1 1.152 1.15v8.81a1.15 1.15 0 0 1-1.152 1.152H2.21A1.15 1.15 0 0 1 1.059 13.4V3.532a1.15 1.15 0 0 1 1.15-1.152z" color="#60c0f0" style="-inkscape-stroke:none;paint-order:markers fill stroke"/><rect width="14.816" height="10.054" x="1.058" y="4.498" fill="#fc7f7e" color="#60c0f0" rx="1.152" ry="1.129"/><path fill="#fff" d="M2.21 4.498c-.638 0-1.152.503-1.152 1.128v.265c0-.625.514-1.129 1.152-1.129h12.513c.638 0 1.152.504 1.152 1.13v-.266c0-.625-.514-1.128-1.152-1.128z" opacity=".08"/><path d="M2.21 2.38a1.15 1.15 0 0 0-1.152 1.152V13.4a1.15 1.15 0 0 0 1.152 1.152h12.513a1.15 1.15 0 0 0 1.151-1.152V4.592a1.146 1.146 0 0 0-1.151-1.152H8.31c-.916 0-1.167.096-1.864-.43-.759-.601-.792-.63-1.542-.63H2.21m0 .08h2.695c.374 0 .556.008.737.083s.376.23.755.53h.002c.354.268.607.385.885.428.278.044.572.019 1.027.019h6.413a1.066 1.066 0 0 1 1.072 1.071v8.81a1.07 1.07 0 0 1-1.073 1.071H2.21A1.07 1.07 0 0 1 1.138 13.4V3.532a1.07 1.07 0 0 1 1.07-1.073z" color="#60c0f0" opacity=".1" style="-inkscape-stroke:none;paint-order:markers fill stroke"/><path d="M2.21 4.419a1.23 1.23 0 0 0-1.152.783v.425c0-.626.514-1.129 1.152-1.129h12.513c.638 0 1.152.503 1.152 1.129v-.424a1.23 1.23 0 0 0-1.152-.784z" color="#60c0f0" opacity=".1" style="-inkscape-stroke:none"/><path d="M7.928 10.281c-.312.233-.788.99-.937.694-.075-.043-.193-3.439-.03-3.57.141-.114 3.234 1.79 3.088 1.988-.018.203-.722.266-1.083.402l.778 1.298-.967.541" opacity=".15"/></svg>