<svg width="16" height="16" version="1.1" viewBox="0 0 16 16" xmlns="http://www.w3.org/2000/svg">
    <style>.ColorScheme-Text { 
    color:#363636;
}</style>
    <path class="ColorScheme-Text" d="m14 8c0 0.2761424-0.223858 0.5-0.5 0.5s-0.5-0.2238576-0.5-0.5 0.223858-0.5 0.5-0.5 0.5 0.2238576 0.5 0.5zm-0.803848-3c0.138072 0.2391463 0.056134 0.5449415-0.183012 0.6830127-0.239147 0.1380712-0.544942 0.0561336-0.683013-0.1830127s-0.056134-0.5449415 0.183013-0.6830127c0.239146-0.1380712 0.544941-0.0561336 0.683012 0.1830127zm-2.196152-2.1961524c0.239146 0.1380712 0.321084 0.4438664 0.183013 0.6830127s-0.443867 0.3210839-0.683013 0.1830127-0.321084-0.4438664-0.183013-0.6830127 0.443867-0.3210839 0.683013-0.1830127zm-3-0.8038476c0.2761424 0 0.5 0.2238576 0.5 0.5s-0.2238576 0.5-0.5 0.5-0.5-0.2238576-0.5-0.5 0.2238576-0.5 0.5-0.5zm-3 0.8038476c0.2391463-0.1380712 0.5449415-0.0561336 0.6830127 0.1830127s0.0561336 0.5449415-0.1830127 0.6830127-0.5449415 0.0561336-0.6830127-0.1830127-0.0561336-0.5449415 0.1830127-0.6830127zm-2.1961524 2.1961524c0.1380712-0.2391463 0.4438664-0.3210839 0.6830127-0.1830127s0.3210839 0.4438664 0.1830127 0.6830127-0.4438664 0.3210839-0.6830127 0.1830127-0.3210839-0.4438664-0.1830127-0.6830127zm-0.8038476 3c0-0.2761424 0.2238576-0.5 0.5-0.5s0.5 0.2238576 0.5 0.5-0.2238576 0.5-0.5 0.5-0.5-0.2238576-0.5-0.5zm0.8038476 3c-0.1380712-0.239146-0.0561336-0.544942 0.1830127-0.683013s0.5449415-0.056133 0.6830127 0.183013 0.0561336 0.544942-0.1830127 0.683013-0.5449415 0.056133-0.6830127-0.183013zm2.1961524 2.196152c-0.2391463-0.138071-0.3210839-0.443866-0.1830127-0.683012 0.1380712-0.239147 0.4438664-0.321084 0.6830127-0.183013s0.3210839 0.443866 0.1830127 0.683013c-0.1380712 0.239146-0.4438664 0.321084-0.6830127 0.183012zm3 0.803848c-0.2761424 0-0.5-0.223858-0.5-0.5s0.2238576-0.5 0.5-0.5 0.5 0.223858 0.5 0.5-0.2238576 0.5-0.5 0.5zm3-0.803848c-0.239146 0.138072-0.544942 0.05613-0.683013-0.183012-0.138071-0.239147-0.05613-0.544942 0.183013-0.683013 0.239146-0.138071 0.544942-0.05613 0.683013 0.183013 0.138071 0.239146 0.05613 0.544941-0.183013 0.683012zm2.196152-2.196152c-0.138071 0.239146-0.443866 0.321084-0.683012 0.183013-0.239147-0.138071-0.321084-0.443867-0.183013-0.683013s0.443866-0.321084 0.683013-0.183013c0.239146 0.138071 0.321084 0.443867 0.183012 0.683013zm-0.696152-3.0000005c0 0.5522848-0.447715 1-1 1s-1-0.4477152-1-1c0-0.5522847 0.447715-1 1-1s1 0.4477153 1 1zm-1.318019-3.1819805c0.390524 0.3905243 0.390524 1.0236893 0 1.4142136-0.390525 0.3905243-1.02369 0.3905243-1.414214 0-0.3905243-0.3905243-0.3905243-1.0236893 0-1.4142136 0.390524-0.3905243 1.023689-0.3905243 1.414214 0zm-3.181981-1.3180195c0.5522848 0 1 0.4477153 1 1s-0.4477152 1-1 1c-0.5522847 0-1-0.4477153-1-1s0.4477153-1 1-1zm-3.1819805 1.3180195c0.3905243-0.3905243 1.0236893-0.3905243 1.4142136 0s0.3905243 1.0236892 0 1.4142135-1.0236893 0.3905243-1.4142136 0-0.3905243-1.0236892 0-1.4142135zm-1.3180195 3.1819805c0-0.5522848 0.4477153-1 1-1s1 0.4477152 1 1c0 0.5522847-0.4477153 1-1 1s-1-0.4477153-1-1zm1.3180195 3.1819805c-0.3905243-0.390524-0.3905243-1.023689 0-1.4142136 0.3905243-0.3905243 1.0236892-0.3905243 1.4142135 0 0.3905243 0.3905246 0.3905243 1.0236896 0 1.4142136s-1.0236892 0.390524-1.4142135 0zm3.1819805 1.31802c-0.5522848 0-1-0.447716-1-1 0-0.552285 0.4477152-1 1-1 0.5522847 0 1 0.447715 1 1 0 0.552284-0.4477153 1-1 1zm3.18198-1.31802c-0.390524 0.390524-1.023689 0.390524-1.4142131 0-0.3905243-0.390524-0.3905243-1.023689 0-1.4142135 0.3905241-0.3905243 1.0236891-0.3905243 1.4142131 0 0.390525 0.3905245 0.390525 1.0236895 0 1.4142135zm-1.68198-3.1819805a1.5 1.5 0 0 1-1.5 1.5 1.5 1.5 0 0 1-1.5-1.5 1.5 1.5 0 0 1 1.5-1.5 1.5 1.5 0 0 1 1.5 1.5z" fill="currentColor"/>
</svg>
