<svg version="1.1" viewBox="0 0 16 16" xmlns="http://www.w3.org/2000/svg">
 <style id="current-color-scheme" type="text/css">.ColorScheme-Text {
        color:#363636;
    }</style>
 <g class="ColorScheme-Text" fill="currentColor">
  <path d="M 1.9375,7 C 1.41813,7 1,7.41813 1,7.9375 v 4.125 C 1,12.58187 1.41813,13 1.9375,13 h 12.125 C 14.58187,13 15,12.58187 15,12.0625 V 7.9375 C 15,7.41813 14.58187,7 14.0625,7 Z M 2,8 h 12 v 4 H 2 Z"/>
  <path d="m5 3c-0.56246 0-1.1007 0.30263-1.4004 0.65039-0.29973 0.34776-0.4409 0.70941-0.54883 1.0332l-0.77148 2.3164h1.0547l0.66602-2c0.17519-0.52557 0.446-1 1-1h6c0.554 0 0.82481 0.47443 1 1l0.66602 2h1.0547l-0.77148-2.3164c-0.10794-0.3238-0.2491-0.68544-0.54883-1.0332-0.29974-0.34776-0.83794-0.65039-1.4004-0.65039z"/>
  <circle cx="4" cy="10" r="1"/>
  <circle cx="12" cy="10" r="1"/>
  <rect x="2" y="12" width="2" height="3" rx="1" ry="1"/>
  <rect x="12" y="12" width="2" height="3" rx="1" ry="1"/>
 </g>
</svg>
