<svg width="16" height="16" version="1.1" xmlns="http://www.w3.org/2000/svg">
 <g transform="translate(-31.976 -220.36)" fill="#363636" fill-rule="evenodd" stroke-linecap="round" stroke-linejoin="round">
  <path d="m39.976 220.36a8 8 0 0 0-8 8h8v-8z" opacity=".4" stop-color="#000000" stroke-width="2" style="paint-order:stroke fill markers"/>
  <path d="m39.976 220.36a8 8 0 0 1 8 8h-8z" opacity=".8" stop-color="#000000" stroke-width="2" style="paint-order:stroke fill markers"/>
  <path d="m39.976 236.36a8 8 0 0 1-8-8h8z" opacity=".2" stop-color="#000000" stroke-width="2" style="paint-order:stroke fill markers"/>
  <path d="m39.976 236.36a8 8 0 0 0 8-8h-8z" opacity=".6" stop-color="#000000" stroke-width="2" style="paint-order:stroke fill markers"/>
  <path d="m39.976 220.36a8 8 0 0 0-8 8 8 8 0 0 0 8 8 8 8 0 0 0 8-8 8 8 0 0 0-8-8zm0 1a7 7 0 0 1 7 7 7 7 0 0 1-7 7 7 7 0 0 1-7-7 7 7 0 0 1 7-7z" stop-color="#000000" stroke-width="2.0031" style="paint-order:stroke fill markers"/>
  <path d="m39.976 224.36a4 4 0 0 0-4 4 4 4 0 0 0 4 4 4 4 0 0 0 4-4 4 4 0 0 0-4-4zm0 1a3 3 0 0 1 3 3 3 3 0 0 1-3 3 3 3 0 0 1-3-3 3 3 0 0 1 3-3z" stop-color="#000000" stroke-width="2.2857" style="paint-order:stroke fill markers"/>
 </g>
</svg>
