<svg version="1.1" viewBox="0 0 16 16" xmlns="http://www.w3.org/2000/svg">
 <defs>
  <style id="current-color-scheme" type="text/css">.ColorScheme-Text {
        color:#363636;
      }</style>
 </defs>
 <path class="ColorScheme-Text" d="m2 2c-1.108 0-2 0.892-2 2v8c0 1.108 0.892 2 2 2h11c1.108 0 2-0.892 2-2v-8c0-1.108-0.892-2-2-2zm0 1h11c0.554 0 1 0.446 1 1v8c0 0.554-0.446 1-1 1h-11c-0.554 0-1-0.446-1-1v-8c0-0.554 0.446-1 1-1z" fill="currentColor"/>
 <path class="ColorScheme-Text" d="m4.1719 4.6562-0.70703 0.70703 2.1211 2.1211-2.1211 2.1211 0.70703 0.70703 2.8281-2.8281-2.8281-2.8281zm2.8281 5.3438v1h4v-1h-4z" fill="currentColor"/>
</svg>
