<svg width="16" height="16" version="1.1" viewBox="0 0 16 16" xmlns="http://www.w3.org/2000/svg">
 <defs>
  <style id="current-color-scheme" type="text/css">.ColorScheme-Text {
        color:#363636;
      }</style>
 </defs>
 <path class="ColorScheme-Text" d="m8.1172 0.0010182a8 8 0 0 0-5.7734 2.3437 8 8 0 0 0 0 11.312 8 8 0 0 0 11.312 0 8 8 0 0 0 0-11.312 8 8 0 0 0-5.5391-2.3437zm-0.21875 1a7 7 0 0 1 4.6797 1.7148l-1.4043 1.4043a8 5 45 0 0-5.4238-2.7422 7 7 0 0 1 2.1484-0.37695zm-3.0273 1.3066a7 4 45 0 1 5.5938 2.5215l-2.4648 2.4648-4.5508-4.5508a7 4 45 0 1 1.4219-0.43555zm8.4199 1.1094a7 7 0 0 1 1.3359 6.8105 8 5 45 0 0-2.75-5.3965zm-10.551 0.03125 4.5527 4.5527-2.4668 2.4668a7 4 45 0 1-2.0859-7.0195zm8.4336 2.0859a7 4 45 0 1 2.0859 7.0195l-4.5527-4.5527zm-9.8008 0.24023a8 5 45 0 0 2.75 5.3965l-1.4141 1.4141a7 7 0 0 1-1.3359-6.8105zm6.627 2.9336 4.5508 4.5508a7 4 45 0 1-7.0156-2.0859zm-3.1738 3.1738a8 5 45 0 0 5.4238 2.7422 7 7 0 0 1-6.8281-1.3379z" fill="#ee6d6d"/>
</svg>
