<svg width="16" height="16" version="1.1" viewBox="0 0 16 16" xmlns="http://www.w3.org/2000/svg">
 <defs>
  <style id="current-color-scheme" type="text/css">.ColorScheme-Text {
        color:#363636;
      }</style>
 </defs>
 <path class="ColorScheme-Text" d="m2-1.25e-5c-1.108 0-2 0.892-2 2v3c0 1.108 0.892 2 2 2h4c1.108 0 2-0.892 2-2v-3c0-1.108-0.892-2-2-2zm0 1h4c0.554 0 1 0.446 1 1v3c0 0.554-0.446 1-1 1h-4c-0.554 0-1-0.446-1-1v-3c0-0.554 0.446-1 1-1zm7 0.078125v3.9219h1v-2.6445c2.393 0.84605 3.9948 3.1064 4 5.6445h1c-0.0031-3.4773-2.5584-6.4251-6-6.9219zm-8 6.9219c0.00314 3.4773 2.5584 6.4251 6 6.9219v-3.9219h-1v2.6445c-2.393-0.84605-3.9948-3.1064-4-5.6445zm9 1c-1.108 0-2 0.892-2 2v3c0 1.108 0.892 2 2 2h4c1.108 0 2-0.892 2-2v-3c0-1.108-0.892-2-2-2zm0 1h4c0.554 0 1 0.446 1 1v3c0 0.554-0.446 1-1 1h-4c-0.554 0-1-0.446-1-1v-3c0-0.554 0.446-1 1-1z" fill="currentColor"/>
</svg>
