<svg width="16" height="16" version="1.1" viewBox="0 0 16 16" xmlns="http://www.w3.org/2000/svg">
 <defs>
  <style id="current-color-scheme" type="text/css">.ColorScheme-Text { color:#363636; } .ColorScheme-Highlight { color:#5294e2; }</style>
 </defs>
 <path style="fill:currentColor" class="ColorScheme-Text" d="m8 1a7 7 0 0 0-7 7 7 7 0 0 0 7 7 7 7 0 0 0 7-7 7 7 0 0 0-7-7zm0 1a6 6 0 0 1 6 6 6 6 0 0 1-1.4316 3.8613l-8.4297-8.4297a6 6 0 0 1 3.8613-1.4316zm-4.5684 2.1387 8.4297 8.4297a6 6 0 0 1-3.8613 1.4316 6 6 0 0 1-6-6 6 6 0 0 1 1.4316-3.8613z"/>
</svg>
