<svg width="16" height="16" version="1.1" viewBox="0 0 16 16" xmlns="http://www.w3.org/2000/svg">
 <defs>
  <style id="current-color-scheme" type="text/css">.ColorScheme-Text { color:#363636; } .ColorScheme-Highlight { color:#5294e2; }</style>
 </defs>
 <path style="fill:currentColor" class="ColorScheme-Text" d="m5 4a4 4 0 0 0-4 4 4 4 0 0 0 4 4 4 4 0 0 0 2.0781-0.58984 6 6 0 0 1-0.5-0.86914 3 3 0 0 1-1.5781 0.45898 3 3 0 0 1-3-3 3 3 0 0 1 3-3 3 3 0 0 1 3 3 4 4 0 0 0 4 4 4 4 0 0 0 4-4 4 4 0 0 0-4-4 4 4 0 0 0-2.0781 0.58984 6 6 0 0 1 0.5 0.86914 3 3 0 0 1 1.5781-0.45898 3 3 0 0 1 3 3 3 3 0 0 1-3 3 3 3 0 0 1-3-3 4 4 0 0 0-4-4z"/>
</svg>
