<svg version="1.1" viewBox="0 0 16 16" xmlns="http://www.w3.org/2000/svg">
 <defs>
  <style id="current-color-scheme" type="text/css">.ColorScheme-Text {
        color:#363636;
      }</style>
 </defs>
 <path class="ColorScheme-Text" d="m11 4v5.5c-0.4182-0.3148-0.934-0.5-1.5-0.5-1.385 0-2.5 1.115-2.5 2.5s1.115 2.5 2.5 2.5 2.5-1.115 2.5-2.5v-5.5h2c0-1.108-0.892-2-2-2z" fill="currentColor"/>
 <path class="ColorScheme-Text" d="m3 2c-1.108 0-2 0.892-2 2v8c0 1.108 0.892 2 2 2h4.0605c-0.29446-0.2874-0.53904-0.62549-0.71875-1h-2.3418v-10h6 2 1c0.4667 0 0.85546 0.31709 0.9668 0.74805 0.6299 0.55181 1.0332 1.3578 1.0332 2.252v-2c0-1.108-0.892-2-2-2h-10zm0 1v10c-0.554 0-1-0.446-1-1v-8c0-0.554 0.446-1 1-1zm6 1a4 4 0 0 0-4 4 4 4 0 0 0 1.0898 2.7246c0.085775-0.37352 0.23018-0.72658 0.42578-1.0449a3 3 0 0 1-0.51562-1.6797 3 3 0 0 1 3-3 3 3 0 0 1 1 0.17383v-0.17383-0.87305a4 4 0 0 0-1-0.12695zm5 3v5c0 0.554-0.446 1-1 1h-0.3418c-0.17971 0.37451-0.42429 0.7126-0.71875 1h1.0605c1.108 0 2-0.892 2-2v-5h-1zm-3.3379 3.4961a3 3 0 0 1-1.6621 0.50391 3 3 0 0 1-0.86133-0.14258c-0.088379 0.19345-0.13867 0.4103-0.13867 0.64258 0 0.12825 0.016701 0.25145 0.044922 0.36914a4 4 0 0 0 0.95508 0.13086 4 4 0 0 0 2-0.53516v-0.71289l-0.33789-0.25586z" fill="currentColor"/>
</svg>
