<svg version="1.1" viewBox="0 0 16 16" xmlns="http://www.w3.org/2000/svg">
 <defs>
  <style id="current-color-scheme" type="text/css">.ColorScheme-Text {
        color:#363636;
      }</style>
 </defs>
 <path class="ColorScheme-Text" d="m8.0371 2.9999a1.0001 1.0001 0 0 1 0.45898 0.13086l7 4a1.0001 1.0001 0 0 1 0 1.7383l-7 4a1.0001 1.0001 0 0 1-1.4961-0.86914v-2.2773l-5.5039 3.1465a1.0001 1.0001 0 0 1-1.4961-0.86914v-8a1.0001 1.0001 0 0 1 1.0371-1 1.0001 1.0001 0 0 1 0.45898 0.13086l5.5039 3.1465v-2.2773a1.0001 1.0001 0 0 1 1.0371-1zm-0.03711 1v8l7-4zm-7 0v8l6-3.4297v-1.1406z" fill="currentColor"/>
</svg>
