<svg id="svg1" version="1.1" viewBox="0 0 16 16" xmlns="http://www.w3.org/2000/svg">
    <defs id="defs3051">
        <style id="current-color-scheme" type="text/css">.ColorScheme-Text {
        color:#363636;
      }</style>
    </defs>
    <path id="path5" class="ColorScheme-Text" d="m10 2v3h-3v1h3v3h1v-3h3v-1h-3v-3h-1zm-7 1a1 1 0 0 0-1 1 1 1 0 0 0 1 1 1 1 0 0 0 1-1 1 1 0 0 0-1-1zm0 8a1 1 0 0 0-1 1 1 1 0 0 0 1 1 1 1 0 0 0 1-1 1 1 0 0 0-1-1zm2 0v1h2 6v-1h-6-2zm0 2v1h2 4v-1h-4-2z" fill="currentColor"/>
</svg>
