<svg version="1.1" viewBox="0 0 16 16" xmlns="http://www.w3.org/2000/svg">
 <defs>
  <style id="current-color-scheme" type="text/css">.ColorScheme-Text {
        color:#363636;
      }</style>
 </defs>
 <path class="ColorScheme-Text" d="m14.364 1.636c-0.19587-0.19587-0.51124-0.19587-0.70711 0l-2.4749 2.4749-1.0607-1.0607c-0.39174-0.39174-1.0225-0.39174-1.4142 0l-5.6569 5.6569c-0.39174 0.39174-0.39174 1.0225-5e-7 1.4142l1.0607 1.0607-2.4749 2.4749c-0.19587 0.19587-0.19587 0.51124 2e-7 0.70711s0.51124 0.19587 0.70711 1e-6l2.4749-2.4749 1.0607 1.0607c0.39174 0.39174 1.0225 0.39174 1.4142-1e-6l5.6569-5.6569c0.39174-0.39174 0.39174-1.0225 0-1.4142l-1.0607-1.0607 2.4749-2.4749c0.19587-0.19587 0.19587-0.51124 0-0.70711zm-4.9497 2.1213 2.8284 2.8284-5.6569 5.6569-2.8284-2.8284z" fill="currentColor"/>
</svg>
