<svg version="1.1" viewBox="0 0 16 16" xmlns="http://www.w3.org/2000/svg">
 <defs>
  <style id="current-color-scheme" type="text/css">.ColorScheme-Text {
        color:#363636;
      }</style>
 </defs>
 <g class="ColorScheme-Text" fill="currentColor">
  <path d="m2.091 1.307 3.304 3.307c-0.732 0.273-1.5 0.527-2.306 0.764-0.8 0.231-1.592 0.436-2.375 0.612 0.183-0.776 0.39-1.565 0.621-2.366 0.237-0.805 0.49-1.577 0.756-2.316z"/>
  <path d="m3.244 11.656 0.072 0.084-0.75 0.66-0.091-0.103-0.04-0.05-0.48-0.72 0.832-0.554zm1.11 1.108 0.34 0.226-0.555 0.832-0.367-0.244-0.051-0.039-0.422-0.37 0.658-0.751zm1.353 0.779 0.676 0.23-0.322 0.948-0.717-0.246-0.06-0.024-0.218-0.11 0.442-0.896zm2.326 0.459-0.066 0.996-0.801-0.053 0.066-0.998z"/>
  <path d="m8 6a2 2 0 0 0-2 2 2 2 0 0 0 2 2 2 2 0 0 0 2-2 2 2 0 0 0-2-2zm0 1a1 1 0 0 1 1 1 1 1 0 0 1-1 1 1 1 0 0 1-1-1 1 1 0 0 1 1-1z"/>
  <path d="m8.426 1.014c0.791 0.047 1.586 0.23 2.347 0.558a7.005 7.005 0 0 1 4.083 7.844 7.005 7.005 0 0 1-6.856 5.584h-0.5v-1h0.5c2.85 0 5.3-1.997 5.877-4.787a5.995 5.995 0 0 0-3.5-6.723 5.995 5.995 0 0 0-7.291 2.07l-0.287 0.41-0.82-0.574 0.287-0.41a7.006 7.006 0 0 1 6.16-2.971z"/>
 </g>
</svg>
