<svg width="16" height="16" version="1.1" xmlns="http://www.w3.org/2000/svg">
 <style id="current-color-scheme" type="text/css">.ColorScheme-Text {
        color:#363636;
      }
</style>
 <path class="ColorScheme-Text" d="m1.5 1c-0.277 0-0.5 0.223-0.5 0.5s0.223 0.5 0.5 0.5h6.4043c-0.031968 0.00613-0.06234 0.015467-0.091797 0.027344-0.01009 0.0040699-0.01955 0.0089798-0.029297 0.013672-5e-3 0.00243-0.010686 0.0032594-0.015625 0.0058594-0.00208 0.00109-0.0037994 0.0027863-0.0058593 0.0039062-0.012401 0.00676-0.025189 0.013597-0.037109 0.021484-0.00149 9.842e-4 -0.0024163 0.0029063-0.0039063 0.0039063-0.00491 0.00332-0.010807 0.0062456-0.015625 0.0097656-0.00794 0.0058-0.015862 0.011331-0.023438 0.017578-0.01271 0.010442-0.023272 0.021319-0.035156 0.033203-0.011297 0.011297-0.02303 0.022819-0.033203 0.035156l-2.0879 2.0859c-0.19587 0.19587-0.19587 0.51116 0 0.70703 0.19587 0.19587 0.51116 0.19587 0.70703 0l1.2676-1.2676v2.3691a2 2 0 0 0-1.5 1.9336 2 2 0 0 0 1.5 1.9336v2.3691l-1.2676-1.2676c-0.19587-0.19587-0.51116-0.19587-0.70703 0-0.19587 0.19587-0.19587 0.51116 0 0.70703l2.0879 2.0859c0.010173 0.01234 0.021906 0.023856 0.033203 0.035156 0.011884 0.01188 0.022446 0.022763 0.035156 0.033203 0.007576 0.00625 0.015498 0.011779 0.023438 0.017578 0.004818 0.0036 0.010715 0.006466 0.015625 0.009766 0.00149 1e-3 0.0024163 0.002921 0.0039063 0.003906 0.01192 0.00788 0.024708 0.014685 0.037109 0.021485 0.0020599 0.0011 0.0037793 0.002806 0.0058593 0.003906 0.004939 0.0026 0.010625 0.003459 0.015625 0.005859 0.009747 0.00467 0.019207 0.009572 0.029297 0.013672 0.029457 0.01187 0.059829 0.021244 0.091797 0.027344h-6.4043c-0.277 0-0.5 0.223-0.5 0.5s0.223 0.5 0.5 0.5h13c0.277 0 0.5-0.223 0.5-0.5s-0.223-0.5-0.5-0.5h-6.4043c0.031968-0.00613 0.06234-0.015464 0.091797-0.027344 0.01009-0.00407 0.019547-0.008972 0.029297-0.013672 0.024707-0.0119 0.04809-0.025375 0.070312-0.041015 0.02353-0.01656 0.046125-0.034408 0.066406-0.054688 0.011297-0.0113 0.023029-0.022816 0.033203-0.035156l2.0879-2.0859c0.19587-0.19587 0.19587-0.51116 0-0.70703-0.19587-0.19587-0.51116-0.19587-0.70703 0l-1.2676 1.2676v-2.3691a2 2 0 0 0 1.5-1.9336 2 2 0 0 0-1.5-1.9355v-2.3672l1.2676 1.2676c0.19587 0.19587 0.51116 0.19587 0.70703 0 0.19587-0.19587 0.19587-0.51116 0-0.70703l-2.0879-2.0859c-0.010174-0.012338-0.021906-0.02386-0.033203-0.035156-0.020281-0.020281-0.042876-0.038133-0.066406-0.054688-0.022223-0.015636-0.045605-0.029118-0.070312-0.041016-0.00975-0.00469-0.019207-0.0095999-0.029297-0.013672-0.029457-0.011877-0.059829-0.02121-0.091797-0.027344h6.4043c0.277 0 0.5-0.223 0.5-0.5s-0.223-0.5-0.5-0.5h-13zm6.5 6a1 1 0 0 1 1 1 1 1 0 0 1-1 1 1 1 0 0 1-1-1 1 1 0 0 1 1-1z" fill="currentColor"/>
</svg>
