<svg width="16" height="16" version="1.1" xmlns="http://www.w3.org/2000/svg">
 <style id="current-color-scheme" type="text/css">.ColorScheme-Text {
        color:#363636;
      }</style>
 <path class="ColorScheme-Text" d="m15 1.4999c0-0.277-0.223-0.5-0.5-0.5s-0.5 0.223-0.5 0.5v6.4043c-0.0061-0.031968-0.01547-0.06234-0.02734-0.091797-0.0041-0.01009-9e-3 -0.01955-0.01367-0.029297-0.0024-5e-3 -0.0033-0.010686-0.0059-0.015625-0.0011-0.00208-0.0028-0.0038-0.0039-0.00586-0.0068-0.012401-0.0136-0.025189-0.02148-0.037109-9.84e-4 -0.00149-0.0029-0.00242-0.0039-0.00391-0.0033-0.00491-0.0062-0.010807-0.0098-0.015625-0.0058-0.00794-0.01133-0.015862-0.01758-0.023438-0.01044-0.01271-0.02132-0.023272-0.0332-0.035156-0.0113-0.011297-0.02282-0.02303-0.03516-0.033203l-2.0859-2.0879c-0.19587-0.19587-0.51116-0.19587-0.70703 0s-0.19587 0.51116 0 0.70703l1.2676 1.2676h-2.369a2 2 0 0 0-1.9336-1.5 2 2 0 0 0-1.9336 1.5h-2.3691l1.2676-1.2676c0.19587-0.19587 0.19587-0.51116 0-0.70703s-0.51116-0.19587-0.70703 0l-2.0859 2.0879c-0.01234 0.010173-0.023856 0.021906-0.035156 0.033203-0.01188 0.011884-0.022763 0.022446-0.033203 0.035156-0.00625 0.00758-0.011779 0.015498-0.017578 0.023438-0.0036 0.00482-0.00647 0.010715-0.00977 0.015625-1e-3 0.00149-0.00292 0.00242-0.00391 0.00391-0.00788 0.01192-0.014685 0.024708-0.021485 0.037109-0.0011 0.00206-0.00281 0.00378-0.00391 0.00586-0.0026 0.00494-0.00346 0.010625-0.00586 0.015625-0.00467 0.00975-0.00957 0.019207-0.013672 0.029297-0.01187 0.029457-0.021244 0.059829-0.027344 0.091797v-6.4043c0-0.277-0.223-0.5-0.5-0.5s-0.5 0.223-0.5 0.5v13c0 0.277 0.223 0.5 0.5 0.5s0.5-0.223 0.5-0.5v-6.4043c0.00613 0.031968 0.015464 0.06234 0.027344 0.091797 0.00407 0.01009 0.00897 0.019547 0.013672 0.029297 0.0119 0.024707 0.025375 0.04809 0.041015 0.070312 0.01656 0.02353 0.034408 0.046125 0.054688 0.066406 0.0113 0.011297 0.022816 0.023029 0.035156 0.033203l2.0859 2.0879c0.19587 0.19587 0.51116 0.19587 0.70703 0s0.19587-0.51116 0-0.70703l-1.2676-1.2676h2.3691a2 2 0 0 0 1.9336 1.5 2 2 0 0 0 1.9355-1.5h2.3672l-1.2676 1.2676c-0.19587 0.19587-0.19587 0.51116 0 0.70703 0.19587 0.19587 0.51116 0.19587 0.70703 0l2.0859-2.0879c0.01234-0.010174 0.02386-0.021906 0.03516-0.033203 0.02028-0.020281 0.03813-0.042876 0.05469-0.066406 0.01564-0.022223 0.02912-0.045605 0.04102-0.070312 0.0047-0.00975 0.0096-0.019207 0.01367-0.029297 0.01188-0.029457 0.02121-0.059829 0.02734-0.091797v6.4043c0 0.277 0.223 0.5 0.5 0.5 0.277 0 0.5-0.223 0.5-0.5v-13zm-6 6.5a1 1 0 0 1-1 1 1 1 0 0 1-1-1 1 1 0 0 1 1-1 1 1 0 0 1 1 1z" fill="currentColor"/>
</svg>
