<svg width="16" height="16" version="1.1" viewBox="0 0 16 16" xmlns="http://www.w3.org/2000/svg">
 <defs>
  <style id="current-color-scheme" type="text/css">.ColorScheme-Text { color:#363636; } .ColorScheme-Highlight { color:#5294e2; }</style>
 </defs>
 <path style="fill:currentColor" class="ColorScheme-Text" d="m8 1a3 3 0 0 0-3 3 3 3 0 0 0 3 3 3 3 0 0 0 3-3 3 3 0 0 0-3-3zm0 1a2 2 0 0 1 2 2 2 2 0 0 1-2 2 2 2 0 0 1-2-2 2 2 0 0 1 2-2zm0 6a6 6 0 0 0-6 6v1h6.7637a4.5 4.5 0 0 1-0.49609-1h-5.2676a5 5 0 0 1 5-5 5 5 0 0 1 1.4395 0.21289 4.5 4.5 0 0 1 0.99023-0.69727 6 6 0 0 0-2.4297-0.51562z"/>
 <path style="fill:currentColor" class="ColorScheme-Text" d="m12.5 9a3.5 3.5 0 0 0-3.5 3.5 3.5 3.5 0 0 0 3.5 3.5 3.5 3.5 0 0 0 3.5-3.5 3.5 3.5 0 0 0-3.5-3.5zm-2.5 3h5v1h-5v-1z"/>
</svg>
