<svg width="16" height="16" version="1.1" viewBox="0 0 16 16" xmlns="http://www.w3.org/2000/svg">
 <defs>
  <style id="current-color-scheme" type="text/css">.ColorScheme-Text { color:#363636; } .ColorScheme-Highlight { color:#5294e2; }</style>
 </defs>
 <path style="fill:currentColor" class="ColorScheme-Text" d="m5.9492 1.1992c-0.64058 0-1.281 0.24386-1.7676 0.73047l-2.4336 2.4336c-0.14191 0.14191-0.16954 0.33496-0.21289 0.51953-0.18526 0.035136-0.37669 0.070054-0.51758 0.21094l-0.74219 0.74219c-0.37539 0.37539-0.37539 1.0035 0 1.3789l1.4492 1.4512c0.37539 0.37539 1.0035 0.37539 1.3789 0l0.74219-0.74414c0.14088-0.14088 0.1758-0.33232 0.21094-0.51758 0.18458-0.043356 0.37762-0.070983 0.51953-0.21289l-0.041016 0.041016 2.0508 2.0527 0.70703-0.70703-2.4043-2.4062a0.50005 0.50005 0 0 0-0.70703 0l-0.3125 0.3125c-0.028759 0.028759-0.053272 0.028759-0.082031 0a0.50005 0.50005 0 0 0-0.70703 0.70703l0.041016 0.041016-0.70703 0.70898-1.4141-1.416 0.70703-0.70703 0.041016 0.042969a0.50064 0.50064 0 0 0 0.70703-0.70898c-0.028759-0.028759-0.028759-0.053272 0-0.082031l2.4336-2.4336c0.29686-0.29686 0.67865-0.44531 1.0605-0.44531s0.76369 0.14845 1.0605 0.44531l0.35352 0.35352-0.14844 0.14844c-0.54788-0.23405-1.1751-0.23899-1.6191 0.20508-0.5816 0.5816-0.5816 1.5395 0 2.1211l2.4043 2.4062 0.70703-0.70703-2.4043-2.4062c-0.19945-0.19945-0.19945-0.50758 0-0.70703 0.19945-0.19945 0.50758-0.19945 0.70703 0a0.50005 0.50005 0 0 0 0.70703 0l0.70703-0.70703a0.50005 0.50005 0 0 0 0-0.70703l-0.70703-0.70703c-0.48661-0.48661-1.127-0.73047-1.7676-0.73047zm4.1719 7.3789-0.70703 0.70703 3.6074 3.6055-0.70703 0.70703-3.6074-3.6055-0.70703 0.70703 3.9609 3.959a0.50005 0.50005 0 0 0 0.70703 0l1.4141-1.4141a0.50005 0.50005 0 0 0 0-0.70703l-3.9609-3.959z"/>
 <path style="fill:currentColor" class="ColorScheme-Text" d="m11.701 1.5488c-0.69643 0.11852-1.3588 0.44566-1.8828 0.9668a0.50005 0.50005 0 0 0-0.00195 0.00195c-0.93934 0.94444-1.146 2.3211-0.73242 3.5625l-5.6289 5.6289c-0.58149 0.58149-0.58149 1.5396 0 2.1211 0.58149 0.58149 1.5396 0.58149 2.1211 0l5.6289-5.6289c1.2414 0.41357 2.6181 0.20692 3.5625-0.73242a0.50005 0.50005 0 0 0 0-0.00195c1.0474-1.0476 1.322-2.6457 0.68359-3.9824a0.50005 0.50005 0 0 0-0.80469-0.13867l-1.6055 1.6055c-0.02876 0.02876-0.05327 0.028759-0.08203 0l-0.625-0.625c-0.02876-0.02876-0.02876-0.053272 0-0.082031l1.5996-1.5996a0.50005 0.50005 0 0 0-0.13867-0.80469c-0.66685-0.31849-1.3973-0.40953-2.0938-0.29102zm0.16602 0.98438c0.2222-0.037814 0.44378 0.070345 0.66992 0.09375l-0.91016 0.91016c-0.40867 0.40867-0.40867 1.0874 0 1.4961l0.625 0.625c0.40867 0.40867 1.0874 0.40867 1.4961 0l0.91602-0.91602c0.07606 0.73408-0.06008 1.474-0.60352 2.0176-0.75068 0.74555-1.885 0.93844-2.8398 0.48242a0.50005 0.50005 0 0 0-0.56836 0.097656l-5.7832 5.7832c-0.20198 0.20198-0.50505 0.20198-0.70703 0-0.20198-0.20198-0.20198-0.50505 0-0.70703l5.7832-5.7832a0.50005 0.50005 0 0 0 0.097656-0.56836c-0.45628-0.95537-0.26419-2.0911 0.48242-2.8418 0.37501-0.37218 0.84582-0.60505 1.3418-0.68945z"/>
</svg>
