<svg version="1.1" viewBox="0 0 16 16" xmlns="http://www.w3.org/2000/svg">
 <style id="current-color-scheme" type="text/css">.ColorScheme-Text {
            color:#363636;
        }</style>
 <path class="ColorScheme-Text" d="m10.647 4.6465-3.3535 3.3535 3.3535 3.3535 0.70703-0.70703-2.6465-2.6465 2.6465-2.6465z" fill="currentColor"/>
 <path class="ColorScheme-Text" d="m3 1c-1.108 0-2 0.892-2 2v10c0 1.108 0.892 2 2 2h10c1.108 0 2-0.892 2-2v-10c0-1.108-0.892-2-2-2h-10zm0 1h2v12h-2c-0.554 0-1-0.446-1-1v-10c0-0.554 0.446-1 1-1zm3 0h7c0.554 0 1 0.446 1 1v10c0 0.554-0.446 1-1 1h-7v-12z" fill="currentColor"/>
</svg>
