<svg width="16" height="16" version="1.1" viewBox="0 0 16 16" xmlns="http://www.w3.org/2000/svg">
 <defs>
  <style id="current-color-scheme" type="text/css">.ColorScheme-Text { color:#363636; } .ColorScheme-Highlight { color:#5294e2; }</style>
 </defs>
 <path style="fill:currentColor" class="ColorScheme-Text" d="m8 0a8 8 0 0 0-4.877 1.6836l0.80469 0.62695a7 7 0 0 1 4.0723-1.3105 7 7 0 0 1 7 7 7 7 0 0 1-3.125 5.8105l0.55859 0.83789a8 8 0 0 0 3.5664-6.6484 8 8 0 0 0-8-8zm-6.3164 3.123a8 8 0 0 0-1.6836 4.877 8 8 0 0 0 3.5664 6.6484l0.55859-0.83789a7 7 0 0 1-3.125-5.8105 7 7 0 0 1 1.3086-4.0723l-0.625-0.80469z"/>
 <path style="fill:currentColor" class="ColorScheme-Text" d="m2.3431 2.3431 4.8116 6.1872a1 1 0 0 0 0.13811 0.17678 1 1 0 0 0 1.4142 0 1 1 0 0 0 0-1.4142 1 1 0 0 0-0.19197-0.15054 1 1 0 0 0-0.0055-0.00276z"/>
</svg>
