<svg version="1.1" viewBox="0 0 16 16" xmlns="http://www.w3.org/2000/svg">
 <defs>
  <style id="current-color-scheme" type="text/css">.ColorScheme-Text {
        color:#363636;
      }</style>
 </defs>
 <path class="ColorScheme-Text" d="m12 8-4 4v2h2l4-4zm-0.31055 1.6895 0.5918 0.5918-2.9688 2.9844v0.01563l-0.59375-0.59376z" fill="currentColor"/>
 <path class="ColorScheme-Text" d="m7.9941 1-5.9688 0.03125c-0.5477 0.003254-0.99089 0.44645-0.99414 0.99414l-0.03125 5.9688c-0.001369 0.28107 0.1156 0.54974 0.32227 0.74023l5.6777 5.2402v-1.3594l-5-4.6152 0.03125-5.9688 5.9688-0.03125 6 6.5-0.042969 0.042969 0.70703 0.70703 0.042969-0.042969c0.37898-0.37957 0.39105-0.9905 0.027344-1.3848l-6-6.5c-0.19049-0.20667-0.45916-0.32364-0.74023-0.32227zm-2.4941 3c-0.828 0-1.5 0.672-1.5 1.5s0.672 1.5 1.5 1.5 1.5-0.672 1.5-1.5-0.672-1.5-1.5-1.5z" fill="currentColor"/>
</svg>
