<svg version="1.1" viewBox="0 0 16 16" xmlns="http://www.w3.org/2000/svg">
 <defs>
  <style id="current-color-scheme" type="text/css">.ColorScheme-Text {
        color:#363636;
      }</style>
 </defs>
 <path class="ColorScheme-Text" d="m14.572 8h1.0723zm-0.57227 1v3.2695c-0.30388-0.17609-0.64878-0.26905-1-0.26953-1.1046-5e-6 -2 0.89543-2 2-5e-6 1.1046 0.89543 2 2 2 1.1046 5e-6 2-0.89543 2-2v-4h1l-1-1z" fill="currentColor"/>
 <path class="ColorScheme-Text" d="m8 0a8 8 0 0 0-8 8 8 8 0 0 0 8 8 8 8 0 0 0 2-0.26758v-1.0352a7 7 0 0 1-2 0.30273 7 7 0 0 1-7-7 7 7 0 0 1 6.9062-7 7 7 0 0 1 0.09375 0 7 7 0 0 1 6.9258 6h1.0098a8 8 0 0 0-7.9355-7zm0 5c-1.68 0-3 1.32-3 3s1.32 3 3 3 3-1.32 3-3-1.32-3-3-3zm0.0058594 1.0059a2.002 2.002 0 0 1 1.9961 1.9961 2.002 2.002 0 0 1-1.9961 1.9961c-1.098 0-2.0137-0.89709-2.0137-1.9961 0-1.098 0.91564-1.9961 2.0137-1.9961z" fill="currentColor"/>
</svg>
