<svg width="16" height="16" version="1.1" xmlns="http://www.w3.org/2000/svg">
 <style id="current-color-scheme" type="text/css">.ColorScheme-Text {
            color:#363636;
        }</style>
 <path class="ColorScheme-Text" d="m6 1c-0.554 0-1 0.446-1 1v1h-2c-1.108 0-2 0.892-2 2v8c0 1.108 0.892 2 2 2h10c1.108 0 2-0.892 2-2v-8c0-1.108-0.892-2-2-2h-2v-1c0-0.554-0.446-1-1-1zm0 1h4v1h-4zm-3 2h10c0.554 0 1 0.446 1 1v2h-3v-1h-1v1h-4v-1h-1v1h-3v-2c0-0.554 0.446-1 1-1zm-1 4h3v1h1v-1h4v1h1v-1h3v5c0 0.554-0.446 1-1 1h-10c-0.554 0-1-0.446-1-1z" fill="currentColor"/>
</svg>
