<svg version="1.1" viewBox="0 0 16 16" xmlns="http://www.w3.org/2000/svg">
 <defs>
  <style id="current-color-scheme" type="text/css">.ColorScheme-Text {
        color:#363636;
      }</style>
 </defs>
 <g class="ColorScheme-Text" fill="currentColor">
  <path d="m13.5 11c-1.3807 0-2.5 1.1193-2.5 2.5s1.1193 2.5 2.5 2.5 2.5-1.1193 2.5-2.5-1.1193-2.5-2.5-2.5zm0 1c0.82843 0 1.5 0.67157 1.5 1.5s-0.67157 1.5-1.5 1.5-1.5-0.67157-1.5-1.5 0.67157-1.5 1.5-1.5zm0 1c-0.27614 0-0.5 0.22386-0.5 0.5s0.22386 0.5 0.5 0.5 0.5-0.22386 0.5-0.5-0.22386-0.5-0.5-0.5z"/>
  <path d="m8 5c-1.68 0-3 1.32-3 3s1.32 3 3 3 3-1.32 3-3-1.32-3-3-3zm0.00586 1.0059a2.002 2.002 0 0 1 1.9961 1.9961 2.002 2.002 0 0 1-1.9961 1.9961c-1.098 0-2.0137-0.89709-2.0137-1.9961 0-1.098 0.91567-1.9961 2.0137-1.9961z"/>
  <path d="m8 0a8 8 0 0 0-8 8 8 8 0 0 0 8 8 8 8 0 0 0 2-0.26953v-1.0332a7 7 0 0 1-2 0.30273 7 7 0 0 1-7-7 7 7 0 0 1 6.9062-7 7 7 0 0 1 0.09375 0 7 7 0 0 1 7 7 7 7 0 0 1-0.30273 2h1.0332a8 8 0 0 0 0.26953-2 8 8 0 0 0-8-8z"/>
 </g>
</svg>
