<svg version="1.1" viewBox="0 0 16 16" xmlns="http://www.w3.org/2000/svg">
 <defs>
  <style id="current-color-scheme" type="text/css">.ColorScheme-Text {
        color:#363636;
      }</style>
 </defs>
 <g class="ColorScheme-Text" fill="currentColor">
  <path d="m12 12-2 2 2 2h4v-4zm0.6 1h2.4v2h-2.4l-1-1z"/>
  <path d="m8 5c-1.68 0-3 1.32-3 3s1.32 3 3 3 3-1.32 3-3-1.32-3-3-3zm0.00586 1.0059a2.002 2.002 0 0 1 1.9961 1.9961 2.002 2.002 0 0 1-1.9961 1.9961c-1.098 0-2.0137-0.89709-2.0137-1.9961 0-1.098 0.91567-1.9961 2.0137-1.9961z"/>
  <path d="m8 0a8 8 0 0 0-8 8 8 8 0 0 0 8 8 8 8 0 0 0 1-0.072266v-1.0059a7 7 0 0 1-1 0.078125 7 7 0 0 1-7-7 7 7 0 0 1 6.9062-7 7 7 0 0 1 0.09375 0 7 7 0 0 1 7 7 7 7 0 0 1-0.68945 3h1.0879a8 8 0 0 0 0.60156-3 8 8 0 0 0-8-8z"/>
 </g>
</svg>
