<svg width="16" height="16" version="1.1" viewBox="0 0 16 16" xmlns="http://www.w3.org/2000/svg">
 <defs>
  <style id="current-color-scheme" type="text/css">.ColorScheme-Text { color:#363636; } .ColorScheme-Highlight { color:#5294e2; }</style>
 </defs>
 <path style="fill:currentColor" class="ColorScheme-Text" d="m8 0a6 6 0 0 0-6 6v6h4v-6c0-1.108 0.89201-2 2-2s2 0.89201 2 2v6h4v-6a6 6 0 0 0-6-6zm0 1c2.77 0 5 2.23 5 5v5h-2v-5c0-1.662-1.338-3-3-3s-3 1.338-3 3v5h-2v-5c0-2.77 2.23-5 5-5zm-6 12v2a1 1 0 0 0 1 1h3v-3h-4zm8 0v3h3a1 1 0 0 0 1-1v-2h-4zm-7 1h2v1h-2v-1zm8 0h2v1h-2v-1z"/>
</svg>
