<svg width="16" height="16" version="1.1" viewBox="0 0 16 16" xmlns="http://www.w3.org/2000/svg">
 <defs>
  <style id="current-color-scheme" type="text/css">.ColorScheme-Text { color:#363636; } .ColorScheme-Highlight { color:#5294e2; }</style>
 </defs>
 <path style="fill:currentColor" class="ColorScheme-Text" d="m9.0605 0c-2.3508 0-4.6856 0.88426-6.4395 2.4375-1.6798 1.4844-2.6211 3.4993-2.6211 5.6465 0 2.1473 0.94248 4.1644 2.6211 5.6484 0.83471 0.73835 1.8206 1.3081 2.9238 1.6973v2e-3c1.0593 0.37149 2.1743 0.56313 3.2969 0.56831h0.066406c2.312 0 4.5196-0.77282 6.0801-2.1602 0.45652-0.40357 0.7116-0.98943 0.7207-1.6113v-2e-3c0.0091-0.64632-0.23536-1.2717-0.69726-1.7012l-0.0039-2e-3c-0.48671-0.4498-1.0758-0.53476-1.4141-0.5917h-2e-3l-0.02344-0.00391-2e-3 -0.00195c-0.27364-0.045053-0.16491-0.00835-0.25-0.09375l1.0645-0.94531c1.0327-0.91276 1.6191-2.1661 1.6191-3.498 0-1.3316-0.58516-2.5829-1.6191-3.4961v-0.0019531c-1.3956-1.2283-3.2871-1.8906-5.3203-1.8906zm0 1c1.8158 0 3.4674 0.59278 4.6602 1.6426 0.8361 0.73943 1.2793 1.7039 1.2793 2.7461 0 1.0428-0.44468 2.0086-1.2812 2.748l-1.0918 0.9707h-2e-3c-0.13779 0.12304-0.35938 0.35162-0.35938 0.73242 0 0.38082 0.2225 0.60701 0.36133 0.73047 0.15707 0.14019 0.42435 0.28563 0.77734 0.34375l0.02148 0.0039c0.33839 0.057 0.67535 0.12821 0.9043 0.33984 0.2271 0.21117 0.38448 0.58021 0.37891 0.95508-0.0051 0.36691-0.14111 0.66562-0.38281 0.87891h-2e-3c-1.3458 1.1966-3.3287 1.9082-5.4159 1.9082h-0.06445c-1.0107-0.004884-2.013-0.17719-2.9668-0.51172-0.99037-0.34932-1.8599-0.85671-2.5938-1.5059-1.4831-1.3112-2.2832-3.0412-2.2832-4.8984 0-1.8574 0.79915-3.587 2.2832-4.8984 1.5636-1.3847 3.6791-2.1855 5.7773-2.1855zm-1.9219 1.334c-0.31612-0.055897-0.64087-0.018382-0.92578 0.099609-0.56981 0.23598-1.0195 0.81182-1.0195 1.5273-3e-7 0.90748 0.74486 1.6543 1.6523 1.6543 0.71553 2e-7 1.2933-0.45168 1.5293-1.0215s0.14655-1.2949-0.35938-1.8008c-0.25296-0.25295-0.56084-0.40309-0.87695-0.45898zm3.166 0c-0.31612 0.055897-0.62399 0.20603-0.87695 0.45898-0.50592 0.5059-0.59538 1.231-0.35938 1.8008 0.236 0.5698 0.81182 1.0215 1.5273 1.0215 0.90749 3e-7 1.6543-0.74681 1.6543-1.6543 0-0.71552-0.44972-1.2914-1.0195-1.5273-0.28491-0.11799-0.60967-0.15551-0.92578-0.099609zm-3.709 1.0234c0.23336-0.096644 0.49194-0.078366 0.71289 0.14258 0.22095 0.22094 0.23922 0.4776 0.14258 0.71094-0.096642 0.23333-0.29291 0.4043-0.60547 0.4043-0.36707-2e-7 -0.65234-0.28728-0.65234-0.6543 1e-7 -0.31252 0.16898-0.50687 0.40234-0.60352zm4.252 0c0.23336 0.096644 0.40234 0.291 0.40234 0.60352 0 0.36702-0.28722 0.6543-0.6543 0.6543-0.31256-1e-7 -0.50687-0.17096-0.60352-0.4043-0.096642-0.23333-0.078376-0.48999 0.14258-0.71094 0.22095-0.22094 0.47953-0.23922 0.71289-0.14258zm-6.5937 1.2852c-0.31612-0.055896-0.64087-0.018382-0.92578 0.099609-0.56981 0.23598-1.0195 0.81182-1.0195 1.5273 0 0.90748 0.74486 1.6543 1.6523 1.6543 0.71553-1e-7 1.2933-0.45168 1.5293-1.0215 0.236-0.5698 0.14655-1.2968-0.35938-1.8027-0.25296-0.25295-0.56084-0.40113-0.87695-0.45703zm-0.54297 1.0234c0.23336-0.096644 0.49194-0.080319 0.71289 0.14062 0.22095 0.22094 0.23922 0.47956 0.14258 0.71289-0.096642 0.23333-0.29291 0.4043-0.60547 0.4043-0.36707 1e-7 -0.65234-0.28728-0.65234-0.6543-1e-7 -0.31252 0.16898-0.50687 0.40234-0.60352zm0.24609 2.6895c-0.31612 0.055896-0.62399 0.20603-0.87695 0.45898-0.50592 0.5059-0.59342 1.231-0.35742 1.8008 0.236 0.5698 0.81182 1.0215 1.5273 1.0215 0.90749 0 1.6543-0.74681 1.6543-1.6543 1e-7 -0.71552-0.45167-1.2914-1.0215-1.5273-0.28491-0.11799-0.60967-0.15551-0.92578-0.099609zm0.54297 1.0234c0.23336 0.096644 0.4043 0.291 0.4043 0.60352-1e-7 0.36702-0.28722 0.6543-0.6543 0.6543-0.31256 0-0.50687-0.16901-0.60352-0.40234s-0.08033-0.49195 0.14062-0.71289c0.22095-0.22094 0.47953-0.23922 0.71289-0.14258zm3.1074 0.42773c-0.42549 0.074847-0.83977 0.27534-1.1836 0.61914-0.68764 0.68761-0.80354 1.6591-0.48438 2.4297 0.31916 0.77059 1.088 1.377 2.0605 1.377 1.2261 0 2.2305-1.0044 2.2305-2.2305 0-0.97253-0.60635-1.7414-1.377-2.0605-0.3853-0.15957-0.82061-0.20961-1.2461-0.13477zm0.86328 1.0586c0.43416 0.1798 0.75977 0.56719 0.75977 1.1367-1e-7 0.68564-0.54475 1.2305-1.2305 1.2305-0.56958 0-0.95692-0.32565-1.1367-0.75977-0.1798-0.43412-0.1351-0.93719 0.26758-1.3398 0.40267-0.40266 0.90569-0.44738 1.3398-0.26758z"/>
</svg>
