<svg id="svg1" version="1.1" viewBox="0 0 16 16" xmlns="http://www.w3.org/2000/svg">
    <defs id="defs3051">
        <style id="current-color-scheme" type="text/css">.ColorScheme-Text {
        color:#363636;
      }</style>
    </defs>
    <path id="path1" class="ColorScheme-Text" d="m8 2c-3.3137062 5.5e-6 -5.9999945 2.6862938-6 6 5.5e-6 3.313706 2.6862938 5.999994 6 6 0.335258-2e-3 0.6697622-0.03201 1-0.08984v-1.01516c-0.3289583 0.068513-0.6639853 0.103691-1 0.105-2.7614237 0-5-2.238576-5-5 0-2.7614237 2.2385763-5 5-5 2.761424 0 5 2.2385763 5 5h1c-6e-6 -3.3137062-2.686294-5.9999945-6-6m0 2v4h-3v1h4v-5zm3 9.145631v-3.09l-2 2v-1.41l2.281-2.3129999 0.219-0.187 0.219 0.187 2.281 2.3129999v1.41l-2-2v3.09z" fill="currentColor"/>
</svg>
