<svg version="1.1" viewBox="0 0 16 16" xmlns="http://www.w3.org/2000/svg">
 <style id="current-color-scheme" type="text/css">.ColorScheme-Text {
            color:#363636;
        }
        .ColorScheme-NegativeText {
            color:#da4453;
        }</style>
 <path class="ColorScheme-Text" d="m3.5 2a1.5 1.5 0 0 0-1.5 1.5 1.5 1.5 0 0 0 1 1.4102v6.1797a1.5 1.5 0 0 0-1 1.4102 1.5 1.5 0 0 0 1.5 1.5 1.5 1.5 0 0 0 1.5-1.5 1.5 1.5 0 0 0-1-1.4141v-2.0859a1 1 0 0 1 1-1h5a2 2 0 0 0 0.048828 0 2 2 0 0 0 1.9512-2v-2h-1v2a1 1 0 0 1-1 1h-5a2 2 0 0 0-0.048828 0 2 2 0 0 0-0.95117 0.27734v-2.3672a1.5 1.5 0 0 0 1-1.4102 1.5 1.5 0 0 0-1.5-1.5zm-0.011719 1a0.5 0.5 0 0 1 0.011719 0 0.5 0.5 0 0 1 0.5 0.5 0.5 0.5 0 0 1-0.5 0.5 0.5 0.5 0 0 1-0.5-0.5 0.5 0.5 0 0 1 0.48828-0.5zm0 9h0.011719a0.5 0.5 0 0 1 0.5 0.5 0.5 0.5 0 0 1-0.5 0.5 0.5 0.5 0 0 1-0.5-0.5 0.5 0.5 0 0 1 0.48828-0.5z" fill="currentColor"/>
 <path class="ColorScheme-NegativeText" d="M 11.5,2 A 1.5,1.5 0 0 0 10,3.5 1.5,1.5 0 0 0 11.5,5 1.5,1.5 0 0 0 13,3.5 1.5,1.5 0 0 0 11.5,2 Z M 11.48828,3 A 0.5,0.5 0 0 1 11.5,3 0.5,0.5 0 0 1 12,3.5 0.5,0.5 0 0 1 11.5,4 0.5,0.5 0 0 1 11,3.5 0.5,0.5 0 0 1 11.48828,3 Z" fill="currentColor"/>
 <path class="ColorScheme-NegativeText" d="m8.5 8.793-0.70703 0.70703 2 2-2 2 0.70703 0.70703 2-2 2 2 0.70703-0.70703-2-2 2-2-0.70703-0.70703-2 2-2-2z" fill="currentColor"/>
</svg>
