<svg version="1.1" viewBox="0 0 16 16" xmlns="http://www.w3.org/2000/svg">
 <defs>
  <style id="current-color-scheme" type="text/css">.ColorScheme-Text {
        color:#363636;
      }</style>
 </defs>
 <path class="ColorScheme-Text" d="m7 4v5l3-2.5z" fill="currentColor"/>
 <path class="ColorScheme-Text" d="m3 1c-1.108 0-2 0.892-2 2v7c0 1.108 0.892 2 2 2h3v2h-1c-0.554 0-1 0.446-1 1h8c0-0.554-0.446-1-1-1h-1v-2h3c1.108 0 2-0.892 2-2v-7c0-1.108-0.892-2-2-2h-10zm0 1h10c0.554 0 1 0.446 1 1v7c0 0.554-0.446 1-1 1h-3-1-2-1-3c-0.554 0-1-0.446-1-1v-7c0-0.554 0.446-1 1-1zm4 10h2v2h-2v-2z" fill="currentColor"/>
</svg>
