<svg version="1.1" viewBox="0 0 16 16" xmlns="http://www.w3.org/2000/svg">
 <defs>
  <style id="current-color-scheme" type="text/css">.ColorScheme-Text {
        color:#363636;
      }</style>
 </defs>
 <path class="ColorScheme-Text" d="m8 0c-1.4417 0-2.7893 0.38292-3.9551 1.0449l0.73828 0.73828 0.00195-0.00195 2.7793 2.7773 0.70703-0.70703-2.4824-2.4805c0.69562-0.23268 1.4348-0.37109 2.2109-0.37109 3.878 0 7 3.122 7 7 0 1.1625-0.28583 2.2539-0.7832 3.2168l0.73828 0.73828c0.66205-1.1658 1.0449-2.5134 1.0449-3.9551 0-4.432-3.568-8-8-8zm-6.9551 4.0449c-0.66205 1.1658-1.0449 2.5134-1.0449 3.9551 0 4.432 3.568 8 8 8 1.4417 0 2.7893-0.38292 3.9551-1.0449l-0.68359-0.68359 2e-3 -2e-3 -2.8281-2.8281-0.70703 0.70703 2.4785 2.4785c-0.69735 0.23397-1.4386 0.37309-2.2168 0.37309-3.878 0-7-3.122-7-7 0-1.1625 0.28583-2.2539 0.7832-3.2168z" fill="currentColor"/>
</svg>
