<svg version="1.1" viewBox="0 0 16 16" xmlns="http://www.w3.org/2000/svg">
 <style id="current-color-scheme" type="text/css">.ColorScheme-Text {
            color:#363636;
        }</style>
 <path class="ColorScheme-Text" d="m4.8282 4.6719 0.70703 0.70703-1.6211 1.6211h4.0859v1h-4.0859l1.6211 1.6211-0.70703 0.70703-2.8281-2.8281 2.8281-2.8281zm6.3437 2 2.8281 2.8281-2.8281 2.8281-0.70703-0.70703 1.6211-1.6211h-4.0859v-1h4.0859l-1.6211-1.6211 0.70703-0.70703z" fill="currentColor"/>
 <path class="ColorScheme-Text" d="m11.5 1c-0.83099 0-1.5 0.66901-1.5 1.5v2c0 0.83099 0.66901 1.5 1.5 1.5h3c0.83099 0 1.5-0.66901 1.5-1.5v-2c0-0.83099-0.66901-1.5-1.5-1.5h-3zm0.041016 1h2.918c0.29999 0 0.54102 0.24103 0.54102 0.54102v1.918c0 0.29999-0.24103 0.54102-0.54102 0.54102h-2.918c-0.29999 0-0.54102-0.24103-0.54102-0.54102v-1.918c0-0.29999 0.24103-0.54102 0.54102-0.54102zm-10.041 9c-0.83099 0-1.5 0.66901-1.5 1.5v2c0 0.83099 0.66901 1.5 1.5 1.5h3c0.83099 0 1.5-0.66901 1.5-1.5v-2c0-0.83099-0.66901-1.5-1.5-1.5h-3zm0.041016 1h2.918c0.29999 0 0.54102 0.24103 0.54102 0.54102v1.918c0 0.29999-0.24103 0.54102-0.54102 0.54102h-2.918c-0.29999 0-0.54102-0.24103-0.54102-0.54102v-1.918c0-0.29999 0.24103-0.54102 0.54102-0.54102z" fill="currentColor"/>
</svg>
