<svg version="1.1" viewBox="0 0 16 16" xmlns="http://www.w3.org/2000/svg">
 <defs>
  <style id="current-color-scheme" type="text/css">.ColorScheme-Text {
        color:#363636;
      }</style>
 </defs>
 <path class="ColorScheme-Text" d="m3 2c-0.554 0-1 0.446-1 1v1h1v-1h1v-1h-1zm7.5 0-2.8281 2.8281 0.70703 0.70703 1.6211-1.6211v4.6562h1v-4.6562l1.6211 1.6211 0.70703-0.70703-2.8281-2.8281zm-8.5 5v2h1v-2h-1zm1 3c-0.554 0-1 0.446-1 1v2c0 0.554 0.446 1 1 1h2c0.554 0 1-0.446 1-1v-2c0-0.554-0.446-1-1-1h-2zm0 1h2v2h-2v-2zm10 1v1h-1v1h1c0.554 0 1-0.446 1-1v-1h-1zm-6 1v1h2v-1h-2z" fill="currentColor"/>
</svg>
