<svg version="1.1" viewBox="0 0 16 16" xmlns="http://www.w3.org/2000/svg">
 <defs>
  <style id="current-color-scheme" type="text/css">.ColorScheme-Text {
        color:#363636;
      }</style>
 </defs>
 <path d="m4 2c-1.108 0-2 0.892-2 2v1h1v-1c0-0.554 0.446-1 1-1h1v-1h-1zm7 0v1h1c0.554 0 1 0.446 1 1v1h1v-1c0-1.108-0.892-2-2-2h-1zm-6 2c-0.554 0-1 0.446-1 1v6c0 0.554 0.446 1 1 1h1c0.554 0 1-0.446 1-1v-6c0-0.554-0.446-1-1-1h-1zm3 2v4l2-2-2-2zm3 0v4h2v-4h-2zm-9 5v1c0 1.108 0.892 2 2 2h1v-1h-1c-0.554 0-1-0.446-1-1v-1h-1zm11 0v1c0 0.554-0.446 1-1 1h-1v1h1c1.108 0 2-0.892 2-2v-1h-1z" class="ColorScheme-Text" fill="currentColor"/>
</svg>
