<svg version="1.1" viewBox="0 0 16 16" xmlns="http://www.w3.org/2000/svg">
 <defs>
  <style id="current-color-scheme" type="text/css">.ColorScheme-Text {
        color:#363636;
      }</style>
 </defs>
 <path d="m4 2a2 2 0 0 0-2 2 2 2 0 0 0 2 2 2 2 0 0 0 2-2 2 2 0 0 0 0-0.048828 2 2 0 0 0-2-1.9512zm3 0v1h5c0.554 0 1 0.446 1 1v2h1v-2c0-1.108-0.892-2-2-2h-5zm-3 1a1 1 0 0 1 1 1 1 1 0 0 1-1 1 1 1 0 0 1-1-1 1 1 0 0 1 1-1zm-2 4v5c0 1.108 0.892 2 2 2h3v-1h-3c-0.554 0-1-0.446-1-1v-5h-1zm8 0v5.0859l-1.6211-1.6211-0.70703 0.70703 2.8281 2.8281 2.8281-2.8281-0.70703-0.70703-1.6211 1.6211v-5.0859h-1z" class="ColorScheme-Text" fill="currentColor"/>
</svg>
