<svg version="1.1" viewBox="0 0 16 16" xmlns="http://www.w3.org/2000/svg">
 <defs>
  <style id="current-color-scheme" type="text/css">.ColorScheme-Text {
        color:#363636;
      }</style>
 </defs>
 <path class="ColorScheme-Text" fill="currentColor" d="m11.293 4-3.293 3.293v-2.293h-1v4h4v-1h-2.293l3.293-3.293z"/>
 <path d="m3.9512 10a2 2 0 0 0-1.9512 2 2 2 0 0 0 2 2 2 2 0 0 0 2-2 2 2 0 0 0-2-2 2 2 0 0 0-0.048828 0zm0.048828 1a1 1 0 0 1 1 1 1 1 0 0 1-1 1 1 1 0 0 1-1-1 1 1 0 0 1 1-1z" class="ColorScheme-Text" fill="currentColor"/>
 <path d="m4 2c-1.108 0-2 0.892-2 2v5h1v-5c0-0.554 0.446-1 1-1h8c0.554 0 1 0.446 1 1v8c0 0.554-0.446 1-1 1h-5v1h5c1.108 0 2-0.892 2-2v-8c0-1.108-0.892-2-2-2h-8z" class="ColorScheme-Text" fill="currentColor"/>
</svg>
