<?xml version="1.0" encoding="UTF-8" standalone="no"?>
<svg
   xmlns:dc="http://purl.org/dc/elements/1.1/"
   xmlns:cc="http://creativecommons.org/ns#"
   xmlns:rdf="http://www.w3.org/1999/02/22-rdf-syntax-ns#"
   xmlns:svg="http://www.w3.org/2000/svg"
   xmlns="http://www.w3.org/2000/svg"
   xmlns:sodipodi="http://sodipodi.sourceforge.net/DTD/sodipodi-0.dtd"
   xmlns:inkscape="http://www.inkscape.org/namespaces/inkscape"
   viewBox="0 0 16 16"
   version="1.1"
   id="svg4"
   sodipodi:docname="application-x-godot-scene.svg"
   inkscape:version="1.0.2 (e86c870879, 2021-01-15)">
  <metadata
     id="metadata10">
    <rdf:RDF>
      <cc:Work
         rdf:about="">
        <dc:format>image/svg+xml</dc:format>
        <dc:type
           rdf:resource="http://purl.org/dc/dcmitype/StillImage" />
      </cc:Work>
    </rdf:RDF>
  </metadata>
  <defs
     id="defs8" />
  <sodipodi:namedview
     pagecolor="#ffffff"
     bordercolor="#666666"
     borderopacity="1"
     objecttolerance="10"
     gridtolerance="10"
     guidetolerance="10"
     inkscape:pageopacity="0"
     inkscape:pageshadow="2"
     inkscape:window-width="1366"
     inkscape:window-height="712"
     id="namedview6"
     showgrid="false"
     inkscape:zoom="24.262601"
     inkscape:cx="7.8330976"
     inkscape:cy="10.390001"
     inkscape:window-x="0"
     inkscape:window-y="0"
     inkscape:window-maximized="1"
     inkscape:current-layer="svg4"
     inkscape:document-rotation="0" />
  <g
     id="g836">
    <path
       id="path84-6-5"
       style="fill:#8542c2;fill-opacity:1;fill-rule:nonzero;stroke:none;stroke-width:0.0173333"
       d="M 6.773001,2.3116873 C 6.2219046,2.4342013 5.6767536,2.6047714 5.1656475,2.8620291 5.1773361,3.3133396 5.2065145,3.7457647 5.2656611,4.1850076 5.0671712,4.3121753 4.8585399,4.421316 4.6731456,4.5701835 4.4847749,4.7151006 4.292406,4.8537435 4.1218388,5.0232284 3.7810834,4.7978439 3.4204281,4.5860397 3.0488819,4.399076 2.6483845,4.8300935 2.2739091,5.2952967 1.968003,5.815873 2.2084127,6.1932468 2.4662864,6.5725468 2.7050929,6.8683397 v 2.5711816 0.3265743 0.2971974 c 0.00584,5.2e-5 0.011678,2.71e-4 0.017469,8.12e-4 l 1.958709,0.188856 c 0.1026,0.0099 0.1830326,0.09249 0.1901757,0.195305 l 0.060379,0.864626 1.7085859,0.121926 0.117711,-0.798027 c 0.01526,-0.103466 0.1040038,-0.180147 0.2086601,-0.180147 h 2.0664923 c 0.1046021,0 0.1933491,0.07668 0.2086093,0.180147 l 0.1177109,0.798027 1.7086369,-0.121926 0.06035,-0.864626 c 0.0072,-0.102817 0.08755,-0.185348 0.19015,-0.195305 l 1.957947,-0.188856 c 0.0058,-5.41e-4 0.01158,-7.59e-4 0.01742,-8.12e-4 V 9.8083456 l 8.06e-4,-2.535e-4 V 6.8683397 C 13.570721,6.5211191 13.831895,6.1381102 14.031997,5.815873 13.726199,5.2952968 13.351514,4.8300935 12.951017,4.399076 12.579578,4.5860397 12.218789,4.7978439 11.878033,5.0232284 11.707522,4.8537435 11.51547,4.7151006 11.326828,4.5701834 11.141488,4.421316 10.932627,4.3121753 10.734516,4.1850076 10.7935,3.7457647 10.82266,3.3133398 10.834403,2.8620291 10.323242,2.6047717 9.7781624,2.4342013 9.2267953,2.3116873 9.0066598,2.6816644 8.8053433,3.0823172 8.6300141,3.4739939 8.4221083,3.4392529 8.2132347,3.4263876 8.0040844,3.4238983 v -3.302e-4 c -0.00146,0 -0.00282,3.302e-4 -0.00406,3.302e-4 -0.0013,0 -0.00266,-3.302e-4 -0.00396,-3.302e-4 v 3.302e-4 C 7.7865317,3.4263876 7.5778118,3.4392529 7.3698519,3.4739939 7.1946309,3.0823172 6.9934546,2.6816644 6.7729945,2.3116873 Z M 5.2234111,6.9854921 c 0.6519647,0 1.1803848,0.528027 1.1803848,1.1797753 0,0.6521813 -0.5284201,1.180512 -1.1803848,1.1805117 -0.6516402,0 -1.1802324,-0.5283304 -1.1802324,-1.1805117 0,-0.6517483 0.5285922,-1.1797753 1.1802324,-1.1797753 z m 5.5533359,0 c 0.651586,0 1.180105,0.528027 1.180105,1.1797753 0,0.6521813 -0.528519,1.1805117 -1.180105,1.1805117 -0.652073,1e-7 -1.1805116,-0.5283304 -1.1805116,-1.1805117 0,-0.6517483 0.5284386,-1.1797753 1.1805116,-1.1797753 z"
       sodipodi:nodetypes="cccccccccccccccccssccccccccccccccccccccscccccssssssssss" />
    <path
       d="m 11.536936,10.655713 -0.06066,0.869233 c -0.0073,0.104764 -0.09064,0.188154 -0.195405,0.195676 l -2.0863635,0.148867 c -0.00509,3.78e-4 -0.010173,5.41e-4 -0.015206,5.41e-4 -0.1036822,0 -0.1931325,-0.07608 -0.2084468,-0.1802 L 8.8512066,10.878446 H 7.1488361 l -0.1196459,0.811385 c -0.016072,0.109202 -0.1136933,0.187721 -0.2236529,0.179658 L 4.7191742,11.720622 C 4.6144096,11.7131 4.5310742,11.62971 4.5237687,11.524946 L 4.463107,10.655713 2.7018605,10.485904 c 8.112e-4,0.18929 0.00325,0.396655 0.00325,0.437944 0,1.860113 2.3596386,2.754183 5.2913155,2.764465 h 0.00357 0.00363 c 2.931677,-0.01028 5.290504,-0.904352 5.290504,-2.764465 0,-0.04205 0.0025,-0.248545 0.0034,-0.437944 z"
       style="fill:#8542c2;fill-opacity:1;fill-rule:nonzero;stroke:none;stroke-width:0.0173333"
       id="path88-5-2"
       inkscape:connector-curvature="0" />
  </g>
</svg>
