<?xml version="1.0" encoding="UTF-8" standalone="no"?>
<svg
   xmlns:dc="http://purl.org/dc/elements/1.1/"
   xmlns:cc="http://creativecommons.org/ns#"
   xmlns:rdf="http://www.w3.org/1999/02/22-rdf-syntax-ns#"
   xmlns:svg="http://www.w3.org/2000/svg"
   xmlns="http://www.w3.org/2000/svg"
   xmlns:sodipodi="http://sodipodi.sourceforge.net/DTD/sodipodi-0.dtd"
   xmlns:inkscape="http://www.inkscape.org/namespaces/inkscape"
   viewBox="0 0 16 16"
   version="1.1"
   id="svg4"
   sodipodi:docname="application-x-godot-project.svg"
   inkscape:version="1.0.2 (e86c870879, 2021-01-15)">
  <metadata
     id="metadata10">
    <rdf:RDF>
      <cc:Work
         rdf:about="">
        <dc:format>image/svg+xml</dc:format>
        <dc:type
           rdf:resource="http://purl.org/dc/dcmitype/StillImage" />
      </cc:Work>
    </rdf:RDF>
  </metadata>
  <defs
     id="defs8" />
  <sodipodi:namedview
     pagecolor="#ffffff"
     bordercolor="#666666"
     borderopacity="1"
     objecttolerance="10"
     gridtolerance="10"
     guidetolerance="10"
     inkscape:pageopacity="0"
     inkscape:pageshadow="2"
     inkscape:window-width="1366"
     inkscape:window-height="707"
     id="namedview6"
     showgrid="false"
     inkscape:zoom="24.262601"
     inkscape:cx="7.8330976"
     inkscape:cy="10.390001"
     inkscape:window-x="0"
     inkscape:window-y="0"
     inkscape:window-maximized="1"
     inkscape:current-layer="svg4" />
  <g
     id="g39"
     transform="matrix(0.013,0,0,0.013,14.69616,8.5134091)">
    <path
       id="path84-6-5"
       style="fill:#209ae7;fill-opacity:1;fill-rule:nonzero;stroke:none;stroke-width:1.33333"
       d="m -609.47377,-477.05552 c -42.39203,9.42415 -84.32672,22.54493 -123.64258,42.33398 0.89913,34.71619 3.14362,67.97966 7.69336,101.76758 -15.26846,9.78213 -31.31702,18.17757 -45.57812,29.62891 -14.49005,11.14747 -29.28766,21.81231 -42.40821,34.84961 -26.21196,-17.33727 -53.95467,-33.6299 -82.53515,-48.01172 -30.80749,33.15519 -59.61329,68.94005 -83.14453,108.98438 18.49305,29.02876 38.32949,58.20568 56.69922,80.95898 v 197.783202 25.1211 22.861318 c 0.44956,0.004 0.89835,0.0209 1.34375,0.0625 l 150.66992,14.52735 c 7.89231,0.76175 14.07943,7.11448 14.6289,15.02344 l 4.64453,66.50976 131.42969,9.37891 9.05469,-61.38672 c 1.17385,-7.95892 8.00029,-13.85742 16.05078,-13.85742 h 158.96094 c 8.04632,0 14.87301,5.8985 16.04687,13.85742 l 9.05469,61.38672 131.4336,-9.37891 4.64257,-66.50976 c 0.55363,-7.90896 6.73465,-14.25752 14.62696,-15.02344 l 150.61129,-14.52735 c 0.4454,-0.0416 0.8904,-0.0584 1.3399,-0.0625 V 99.610502 l 0.062,-0.0195 V -126.5438 c 21.2165,-26.70928 41.3068,-56.1715 56.6992,-80.95898 -23.5229,-40.04432 -52.3448,-75.82919 -83.1523,-108.98438 -28.5722,14.38182 -56.3252,30.67445 -82.5372,48.01172 -13.11625,-13.0373 -27.88949,-23.70214 -42.40035,-34.84961 -14.25694,-11.45134 -30.32318,-19.84678 -45.5625,-29.62891 4.53725,-33.78792 6.78031,-67.05137 7.6836,-101.76758 -39.32002,-19.78903 -81.24926,-32.90983 -123.66211,-42.33398 -16.9335,28.45977 -32.41939,59.27922 -45.90625,89.4082 -15.99275,-2.67239 -32.05995,-3.66203 -48.14844,-3.85351 v -0.0254 c -0.11239,0 -0.21676,0.0254 -0.3125,0.0254 -0.0999,0 -0.20479,-0.0254 -0.30469,-0.0254 v 0.0254 c -16.11763,0.19148 -32.17301,1.18112 -48.16992,3.85351 -13.47854,-30.12898 -28.95364,-60.94843 -45.91211,-89.4082 z m -119.19922,359.52344 c 50.15113,0 90.79883,40.617466 90.79883,90.751953 0,50.167788 -40.6477,90.808609 -90.79883,90.808589 -50.12617,0 -90.78711,-40.640801 -90.78711,-90.808589 0,-50.134487 40.66094,-90.751953 90.78711,-90.751953 z m 427.17969,0 c 50.122,0 90.7773,40.617466 90.7773,90.751953 0,50.167788 -40.6553,90.808589 -90.7773,90.808589 -50.15946,10e-6 -90.80859,-40.640801 -90.80859,-90.808589 0,-50.134487 40.64913,-90.751953 90.80859,-90.751953 z"
       sodipodi:nodetypes="cccccccccccccccccssccccccccccccccccccccscccccssssssssss" />
    <path
       d="m -243.01725,164.79263 -4.66629,66.86402 c -0.56195,8.05882 -6.97237,14.4734 -15.03119,15.052 l -160.48946,11.45134 c -0.39129,0.0291 -0.78257,0.0416 -1.1697,0.0416 -7.97556,0 -14.85635,-5.85263 -16.03437,-13.86149 l -9.20354,-62.41416 h -130.95158 l -9.20353,62.41419 c -1.23629,8.40015 -8.74564,14.44009 -17.20407,13.81986 l -160.48947,-11.45134 c -8.05881,-0.5786 -14.46923,-6.99318 -15.03119,-15.052 l -4.66628,-66.86402 -135.4805,-13.06227 c 0.0624,14.56081 0.24975,30.51194 0.24975,33.68801 0,143.08559 181.51066,211.86025 407.02427,212.65114 h 0.27473 0.2789 c 225.51361,-0.79089 406.96187,-69.56555 406.96187,-212.65114 0,-3.23435 0.1956,-19.11887 0.2622,-33.68801 z"
       style="fill:#209ae7;fill-opacity:1;fill-rule:nonzero;stroke:none;stroke-width:1.33333"
       id="path88-5-2"
       inkscape:connector-curvature="0" />
  </g>
</svg>
