<svg height="16" width="16" xmlns="http://www.w3.org/2000/svg">
    <g fill="#e3a943" fill-rule="evenodd">
        <path d="m7 2.5v3.5h.5859375l2.95703125-2.95703125-.54296875-.54296875zm-2 1-2.5 2.5v4l2.5 2.5v-2.5h-2v-1h2v-2h-2v-1h2zm6.95703125.95703125-1.54296875 1.54296875h2.5859375v1h-3.5859375l-1 1 1 1h3.5859375v1h-2.5859375l1.54296875 1.54296875 1.54296875-1.54296875v-4zm-4.95703125 5.54296875v3.5h3l.54296875-.54296875-2.95703125-2.95703125z"/>
        <path d="m8 2a6 6 0 0 0 -6 6 6 6 0 0 0 6 6 6 6 0 0 0 6-6 6 6 0 0 0 -6-6zm0 1a5 5 0 0 1 5 5 5 5 0 0 1 -5 5 5 5 0 0 1 -5-5 5 5 0 0 1 5-5z"/>
    </g>
</svg>
