<?xml version="1.0" encoding="UTF-8" standalone="no"?>
<svg
   width="16"
   height="16"
   version="1.1"
   id="svg1"
   sodipodi:docname="text-x-emacs-lisp.svg"
   inkscape:version="1.4 (e7c3feb100, 2024-10-09)"
   xmlns:inkscape="http://www.inkscape.org/namespaces/inkscape"
   xmlns:sodipodi="http://sodipodi.sourceforge.net/DTD/sodipodi-0.dtd"
   xmlns="http://www.w3.org/2000/svg"
   xmlns:svg="http://www.w3.org/2000/svg">
  <defs
     id="defs1" />
  <sodipodi:namedview
     id="namedview1"
     pagecolor="#505050"
     bordercolor="#ffffff"
     borderopacity="1"
     inkscape:showpageshadow="0"
     inkscape:pageopacity="0"
     inkscape:pagecheckerboard="1"
     inkscape:deskcolor="#505050"
     inkscape:zoom="16.197165"
     inkscape:cx="7.9952265"
     inkscape:cy="7.9952265"
     inkscape:window-width="1920"
     inkscape:window-height="944"
     inkscape:window-x="0"
     inkscape:window-y="0"
     inkscape:window-maximized="1"
     inkscape:current-layer="svg1" />
  <path
     fill="#ffffff"
     d="m 6.2568373,13.608186 c 0,0 0.6067969,-0.04229 1.3657847,-0.219625 0.3078888,-0.07544 1.4730474,-0.363785 2.3284392,-0.690814 0,0 1.0433628,-0.392308 1.5852068,-0.695363 0.569445,-0.314485 0.868288,-0.557991 0.971792,-0.853769 0.03821,-0.100665 0.068,-0.408353 -0.367374,-0.503928 -0.689797,-0.140249 -1.512428,0.02166 -3.1464353,0.32505 C 7.1691254,11.163365 6.5161768,10.936886 6.1558823,10.731057 5.8067559,10.519098 5.8501199,9.7894598 7.0722559,8.9781115 7.6853907,8.5508354 10.199225,7.5650946 10.199225,7.5650946 9.2498609,7.2429528 7.4875275,6.6910051 7.1239104,6.568574 6.8057732,6.4617685 6.2963868,6.3049374 6.1525625,6.0482975 5.9955384,5.8044646 6.3497818,5.5250987 6.5572697,5.4295951 7.2270932,5.1195905 8.1989493,4.8489257 9.0984429,4.7051703 9.5520574,4.6329647 9.6213154,4.5920313 9.6213154,4.5920313 10.229292,4.3950584 10.572585,3.8945454 10.290838,3.2210281 10.023145,2.529437 9.1454864,2.2258938 8.3944495,2.4817424 7.6889594,2.7233416 6.0169232,3.4974901 6.0169232,3.4974901 8.1825222,3.1685223 8.550139,3.1542533 8.7497793,3.3646047 8.8667662,3.4884553 8.7585188,3.6976258 8.1958722,3.8777706 7.5812313,4.0727102 6.2935985,4.3870177 6.2935985,4.3870177 5.0503753,4.6430166 4.1680589,4.7749269 3.9930003,5.3910517 3.8804041,5.7940942 4.2901329,6.0775507 4.481251,6.26395 5.2635555,6.9288153 6.2853894,7.2019598 6.9502497,7.4157449 7.1998942,7.4958877 7.9150217,7.6132065 7.9150217,7.6132065 5.897073,7.784209 4.5539709,8.6239882 3.8220331,9.4730158 3.0096695,10.52236 3.6045255,11.54986 5.6700052,11.939756 c 1.1707516,0.176112 1.8374927,0.19753 3.5262444,-0.07285 1.0088094,-0.202387 1.1747534,-0.190454 1.1987254,-0.1068 0.03348,0.11923 -1.0648045,0.583731 -1.3622902,0.720627 -0.7573518,0.349889 -2.7657523,1.123972 -2.7758495,1.127425"
     id="path3"
     style="fill:#9784ff;fill-opacity:1;stroke-width:1.29405" />
</svg>
