<?xml version="1.0" encoding="UTF-8" standalone="no"?>
<svg
   width="16"
   height="16"
   version="1.1"
   id="svg1"
   sodipodi:docname="text-org.svg"
   inkscape:version="1.4.2 (ebf0e940d0, 2025-05-08)"
   xmlns:inkscape="http://www.inkscape.org/namespaces/inkscape"
   xmlns:sodipodi="http://sodipodi.sourceforge.net/DTD/sodipodi-0.dtd"
   xmlns="http://www.w3.org/2000/svg"
   xmlns:svg="http://www.w3.org/2000/svg">
  <defs
     id="defs1" />
  <sodipodi:namedview
     id="namedview1"
     pagecolor="#505050"
     bordercolor="#ffffff"
     borderopacity="1"
     inkscape:showpageshadow="0"
     inkscape:pageopacity="0"
     inkscape:pagecheckerboard="1"
     inkscape:deskcolor="#505050"
     inkscape:zoom="16.197165"
     inkscape:cx="8.0260959"
     inkscape:cy="7.9952263"
     inkscape:window-width="1920"
     inkscape:window-height="944"
     inkscape:window-x="0"
     inkscape:window-y="0"
     inkscape:window-maximized="1"
     inkscape:current-layer="svg1" />
  <path
     d="M 13.031879,6.5078241 C 13.016778,6.2766458 12.823305,6.1874075 12.592054,6.3518794 12.06225,6.25669 11.542217,6.3013979 11.285724,6.2799322 10.723412,6.2011752 10.255252,5.9036013 10.255252,5.9036013 10.323645,5.8127051 10.290929,5.6161235 9.8517553,5.6026223 9.7309549,5.5627997 9.6069278,5.5052124 9.4897247,5.4573956 9.5296957,5.3733093 9.4793607,5.249267 9.4793607,5.249267 9.6580591,5.1999699 9.6854463,4.9673112 9.6149649,4.8302859 9.8429157,4.8362075 9.8066611,4.4840365 9.7751729,4.3619929 9.9538863,4.2941909 9.9785349,4.0808364 9.9045599,3.9121899 10.120179,3.8628928 10.126352,3.6102635 10.107936,3.4316244 10.329714,3.4197814 10.298966,3.0311482 10.298966,2.9509997 10.49007,2.8278309 10.446857,2.661405 10.476924,2.4686133 10.594763,2.2300922 10.434584,2.1623641 10.321646,2.4165034 10.200402,2.6367416 10.045034,2.7328933 10.046425,2.8955885 10.101792,2.9879651 9.6336178,3.1235396 9.7814944,3.4131343 9.6766823,3.5425207 9.43033,3.7088874 9.5178804,3.907275 9.4734685,4.0045369 9.1591513,4.2326064 9.2946964,4.4482258 8.9990169,4.6454143 9.016619,4.6929794 9.0790766,4.8733653 8.9948423,4.9273997 8.9089648,5.0100057 8.8592828,5.1004282 8.7624649,4.9854016 8.6682526,4.7753929 8.6696439,4.4917493 c 0,-0.2403567 -0.447612,0.02339 -0.447612,0.4978714 0,0.040859 -0.00444,0.077868 -0.010364,0.1131021 C 8.0568036,5.1206358 7.8629907,5.1546838 7.6186811,5.21242 7.6112811,5.21834 7.6068371,5.225744 7.6053551,5.235662 7.5949911,5.200133 7.5883321,5.162235 7.5850741,5.121672 7.5422961,4.8435354 7.2229748,4.4200687 7.0671634,4.9430475 6.9867782,5.1346697 6.9394054,5.2653737 6.9119443,5.367891 6.8844086,5.4704823 6.8872209,5.3844715 6.8417734,5.4125989 6.649559,5.5316226 6.5803505,5.9032904 5.8821968,6.1379179 5.6465477,6.2171191 5.3391142,6.280628 4.9311473,6.3136851 4.2288039,6.3703843 2.8844581,7.5843518 2.7944057,8.7426565 c -0.020725,0.2909121 0.022798,1.0081484 0.2639099,1.6373165 1.184e-4,5.47e-4 2.812e-4,9.44e-4 4.151e-4,0.0014 9.629e-4,0.003 0.00296,0.0059 0.00296,0.0089 0.00444,0.01037 0.0074,0.01954 0.011843,0.02916 0.020578,0.0527 0.042488,0.103037 0.06573,0.151327 0.1384171,0.29562 0.3273155,0.557028 0.5822689,0.725244 0.1295346,0.100963 0.2452716,0.165702 0.3208606,0.202696 0.4335187,0.715475 1.3534503,1.633067 3.0878649,1.090489 2.6607418,-0.754735 4.1291149,1.013448 4.2982809,1.137549 C 11.677985,13.978686 10.783738,11.537161 8.8902101,10.43976 7.7708102,9.8290446 8.4735094,8.7770916 8.5537318,8.4055867 c 0,0 0.8973263,0.6279979 1.5475602,-0.3317119 0.587406,0.1513259 0.980998,-0.1073286 1.486211,0.075648 0.30699,0.1345678 1.597686,0.053294 1.118009,-0.6681462 0.30163,-0.1969072 0.333488,-0.1332355 0.48437,-0.4330004 0.08097,-0.363422 -0.103035,-0.4412167 -0.159024,-0.5405808 z"
     id="path1"
     style="fill:#27cf94;fill-opacity:1;stroke-width:0.0224413" />
</svg>
