<svg width="24" height="24" version="1.1" xmlns="http://www.w3.org/2000/svg">
 <path d="m11.5 3a8.5 8.5 0 0 0-6.0098 2.4902 8.5 8.5 0 0 0 0 12.02 8.5 8.5 0 0 0 12.02 0 8.5 8.5 0 0 0 0-12.02 8.5 8.5 0 0 0-6.0098-2.4902zm0 1a7.5 7.5 0 0 1 5.3027 2.1973 7.5 7.5 0 0 1 0 10.605 7.5 7.5 0 0 1-10.605 0 7.5 7.5 0 0 1 0-10.605 7.5 7.5 0 0 1 5.3027-2.1973zm2.8281 4.1719c-0.12781 0-0.25558 0.04855-0.35352 0.14648l-2.4746 2.4746-1.7676-1.7676c-0.19587-0.19587-0.51116-0.19587-0.70703 0s-0.19587 0.51116 0 0.70703l2.0859 2.084c0.010712 0.013117 0.022915 0.024868 0.035156 0.03711 0.11018 0.11018 0.25908 0.1583 0.40234 0.14453 0.11142-0.010712 0.219-0.058839 0.30469-0.14453 0.012241-0.012242 0.024444-0.023993 0.035156-0.03711l2.793-2.791c0.19587-0.19587 0.19587-0.51116 0-0.70703-0.097935-0.097934-0.22571-0.14648-0.35352-0.14648z" fill="#f2f2f2"/>
</svg>
