<svg xmlns="http://www.w3.org/2000/svg" xmlns:xlink="http://www.w3.org/1999/xlink" xmlns:cc="http://creativecommons.org/ns#" xmlns:dc="http://purl.org/dc/elements/1.1/" xmlns:rdf="http://www.w3.org/1999/02/22-rdf-syntax-ns#" xmlns:inkscape="http://www.inkscape.org/namespaces/inkscape" xmlns:sodipodi="http://sodipodi.sourceforge.net/DTD/sodipodi-0.dtd" width="24" height="24" viewBox="0 0 24 24">
  <style type="text/css" id="current-color-scheme">
      .ColorScheme-Text {
        color:#f2f2f2;
      }
      </style>
  <g transform="translate(1,1)">
    <g id="22-22-apport" transform="translate(0,-10)">
      <path id="path7" class="ColorScheme-Text" d="M 3 13 L 3 29 L 4 29 L 19 29 L 19 28 L 19 13 L 18 13 L 4 13 L 3 13 z M 4 14 L 18 14 L 18 28 L 4 28 L 4 14 z M 5 15 L 5 16 L 6 16 L 6 15 L 5 15 z M 6 16 L 6 18 L 8 18 L 8 16 L 6 16 z M 8 16 L 9 16 L 9 15 L 8 15 L 8 16 z M 8 18 L 8 19 L 9 19 L 9 18 L 8 18 z M 6 18 L 5 18 L 5 19 L 6 19 L 6 18 z M 13 15 L 13 16 L 14 16 L 14 15 L 13 15 z M 14 16 L 14 18 L 16 18 L 16 16 L 14 16 z M 16 16 L 17 16 L 17 15 L 16 15 L 16 16 z M 16 18 L 16 19 L 17 19 L 17 18 L 16 18 z M 14 18 L 13 18 L 13 19 L 14 19 L 14 18 z M 9 21 L 9 23 L 13 23 L 13 21 L 9 21 z M 13 23 L 13 25 L 15 25 L 15 23 L 13 23 z M 15 25 L 15 27 L 17 27 L 17 25 L 15 25 z M 9 23 L 7 23 L 7 25 L 9 25 L 9 23 z M 7 25 L 5 25 L 5 27 L 7 27 L 7 25 z " style="fill:currentColor;fill-opacity:1;stroke:none"/>
      <path id="path9" d="M 0 10 L 0 32 L 22 32 L 22 10 L 0 10 z " style="opacity:1;fill:none"/>
    </g>
  </g>
</svg>
