<svg width="24" height="24" version="1.1" xmlns="http://www.w3.org/2000/svg">
 <defs>
  <style id="current-color-scheme" type="text/css">.ColorScheme-Text { color:#f2f2f2; } .ColorScheme-Highlight { color:#4285f4; } .ColorScheme-NeutralText { color:#ff9800; } .ColorScheme-PositiveText { color:#4caf50; } .ColorScheme-NegativeText { color:#f44336; }</style>
 </defs>
 <path class="ColorScheme-Text" d="m10.002 4-0.17578 2.1074a6.2848 6.2848 0 0 0-1.8359 1.0625l-1.916-0.90234-2 3.4629 1.7383 1.209a6.2848 6.2848 0 0 0-0.095703 1.0586 6.2848 6.2848 0 0 0 0.091797 1.0645l-1.7344 1.2031 2 3.4648 1.9102-0.90039a6.2848 6.2848 0 0 0 1.8418 1.0566l0.17188 2.1133h4l0.17578-2.1074a6.2848 6.2848 0 0 0 1.8359-1.0625l1.916 0.90234 2-3.4629-1.7383-1.209a6.2848 6.2848 0 0 0 0.0957-1.0586 6.2848 6.2848 0 0 0-0.0918-1.0645l1.7344-1.2031-2-3.4648-1.9102 0.90039a6.2848 6.2848 0 0 0-1.8418-1.0566l-0.17188-2.1133zm1.998 5a3 3 0 0 1 3 3 3 3 0 0 1-3 3 3 3 0 0 1-3-3 3 3 0 0 1 3-3z" fill="currentColor"/>
</svg>
