<svg width="24" height="24" version="1.1" xmlns="http://www.w3.org/2000/svg">
 <defs>
  <style id="current-color-scheme" type="text/css">.ColorScheme-Text { color:#f2f2f2; }</style>
 </defs>
 <path class="ColorScheme-Text" d="m10.001 8h1v4.293l2.293-2.293h0.707v-2h1v4.293l2.293-2.293h1.414l-3 3 3 3h-1.414l-2.293-2.293v2.293h-1.707l-2.293-2.293v2.293h-1v-2c0 0.583-0.154 1.111-0.521 1.479-0.369 0.367-0.896 0.521-1.479 0.521s-1.11-0.154-1.478-0.521c-0.367-0.368-0.522-0.896-0.522-1.479h1c0 0.417 0.095 0.639 0.228 0.771 0.132 0.133 0.355 0.229 0.772 0.229s0.64-0.096 0.771-0.229c0.133-0.132 0.229-0.354 0.229-0.771s-0.096-0.64-0.229-0.771c-0.131-0.133-0.354-0.229-0.771-0.229-0.583 0-1.11-0.155-1.478-0.521-0.367-0.369-0.522-0.896-0.522-1.479s0.155-1.11 0.522-1.479c0.368-0.367 0.895-0.521 1.478-0.521s1.11 0.154 1.479 0.521c0.367 0.369 0.521 0.896 0.521 1.479zm0 3h-1c0-0.417-0.096-0.64-0.229-0.771-0.131-0.133-0.354-0.229-0.771-0.229s-0.64 0.096-0.772 0.229c-0.133 0.131-0.228 0.354-0.228 0.771s0.095 0.64 0.228 0.771c0.132 0.133 0.355 0.229 0.772 0.229 0.583 0 1.11 0.155 1.479 0.521 0.367 0.369 0.521 0.897 0.521 1.479zm4-0.293-2.293 2.293 2.293 2.293z" fill="currentColor"/>
 <path class="ColorScheme-Text" d="m7.0006 4c-1.662 0-3 1.338-3 3v10c0 1.662 1.338 3 3 3h9.9989c1.662 0 3-1.338 3-3v-10c0-1.662-1.338-3-3-3zm0 1h9.9989c1.108 0 2 0.892 2 2v10c0 1.108-0.892 2-2 2h-9.9989c-1.108 0-2-0.892-2-2v-10c0-1.108 0.892-2 2-2z" fill="currentColor"/>
</svg>
