<svg width="24" height="24" version="1.1" xmlns="http://www.w3.org/2000/svg">
 <defs>
  <style id="current-color-scheme" type="text/css">.ColorScheme-Text { color:#f2f2f2; } .ColorScheme-Highlight { color:#4285f4; } .ColorScheme-NeutralText { color:#ff9800; } .ColorScheme-PositiveText { color:#4caf50; } .ColorScheme-NegativeText { color:#f44336; }</style>
 </defs>
 <path class="ColorScheme-Text" d="m11.001 5.9746 1 0.050781-0.09766 1.9746h5.0977v1h-5.1465l-0.10742 2.1621c0.57357-0.08322 1.1753-0.11362 1.7754-0.10352 0.15244-0.32542 0.65625-1.2402 0.65625-1.2402l0.91602 0.40039s-0.38336 0.70353-0.45703 0.86523c0.03436 0.0052 0.0713-0.0037 0.10547 2e-3 0.76707 0.12747 1.4884 0.37111 2.0762 0.78711 0.58779 0.416 1.0368 1.0272 1.1738 1.793 0.21112 1.18-0.37591 2.3192-1.3184 3.0996-0.94245 0.78038-2.2665 1.3434-3.6738 1.2034l0.09961-0.99414c1.1269 0.11209 2.2024-0.37013 2.9375-0.97884 0.73512-0.6087 1.105-1.4037 0.9707-2.1543-0.08901-0.49749-0.34677-0.8559-0.76562-1.1523-0.41885-0.29644-1.004-0.5075-1.6641-0.61719-0.14516-0.02412-0.30984 0.0065-0.46094-0.0078-0.4078 0.83913-0.55284 1.268-1.293 2.4395-0.64995 1.0287-1.3751 2.0175-2.1562 2.6914-0.39058 0.33696-0.79946 0.60098-1.248 0.72656s-0.95443 0.08564-1.3828-0.17383c-0.54884-0.33243-0.89878-0.86049-1.0254-1.4355-0.12661-0.57506-0.049457-1.1915 0.17578-1.7891 0.45048-1.1952 1.5032-2.3427 3.002-2.957 0.17331-0.07104 0.35616-0.1308 0.54297-0.18555l0.11719-2.3809h-2.8496v-1h2.9004zm1.6113 6.0527c-0.04293-7.01e-4 -0.08553 0.0011-0.12891 0.0059-0.26841 0.02939-0.53142 0.07245-0.78516 0.125l-0.12109 2.4238c0.13722-0.20002 0.27288-0.40528 0.4043-0.61328 0.57786-0.91461 0.63374-1.1601 1.0195-1.9258-0.13173 0.0064-0.25987-0.01354-0.38867-0.01563zm-1.9316 0.42188c-0.03713 0.01421-0.07534 0.02821-0.11133 0.04297-1.2419 0.50908-2.1041 1.4776-2.4453 2.3828-0.17059 0.4526-0.20974 0.88211-0.13477 1.2227 0.074979 0.34054 0.24474 0.59892 0.56836 0.79492 0.19565 0.11851 0.35442 0.13341 0.59375 0.06641s0.54261-0.24483 0.86328-0.52148c0.16092-0.13883 0.32577-0.30124 0.49219-0.48242z" fill="currentColor"/>
 <path class="ColorScheme-Text" d="m7.0006 4c-1.662 0-3 1.338-3 3v10c0 1.662 1.338 3 3 3h9.9989c1.662 0 3-1.338 3-3v-10c0-1.662-1.338-3-3-3zm0 1h9.9989c1.108 0 2 0.892 2 2v10c0 1.108-0.892 2-2 2h-9.9989c-1.108 0-2-0.892-2-2v-10c0-1.108 0.892-2 2-2z" fill="currentColor"/>
</svg>
