<svg xmlns="http://www.w3.org/2000/svg" id="svg1" version="1.1" viewBox="0 0 24 24" width="24" height="24">
  <style id="current-color-scheme" type="text/css">.ColorScheme-Text {
        color:#f2f2f2;
      }</style>
  <g transform="translate(1,1)">
    <g id="input-keyboard-color" transform="translate(-370 -534.36218)">
      <rect id="rect1" x="370" y="534.36218" width="22" height="22" ry="0" fill="none"/>
      <g fill="currentColor">
        <path id="path1" class="ColorScheme-Text" transform="translate(354,428.36218)" d="m20 109v14l7 2 7-2v-9h-1v6h-12v-10h8v-1zm14 2c-18-5-18-5 0 0zm-7.5625 1-2.4375 6h1.074219l0.40625-1h3.039062l0.40625 1h1.074219l-2.439453-6h-0.537109l-0.023438 0.00977-0.023438-0.00977zm0.5625 1.25781 1.113281 2.74219h-2.226562zm-6 7.74219h12v1h-12z" fill="currentColor"/>
        <path id="path2" class="ColorScheme-Text" d="m386.49911 537.91343c-0.2175 0.51225-0.50173 0.94125-0.7485 1.31476-0.16725 0.26025-0.35623 0.54524-0.48263 0.86211-0.0337 0.1107-0.054 0.22538-0.0543 0.34201 0 0.40538 0.2085 0.76237 0.52575 0.98588 0.1086 0.0239 0.21963 0.0362 0.33107 0.0366 0.82815 0 1.49961-0.64063 1.5-1.43114-7.5e-4 -0.1086-0.015-0.21664-0.0402-0.32227 0.0135 0.0176 0.0254 0.0354 0.0374 0.0534-0.102-0.18601-0.21452-0.36225-0.32025-0.52651-0.24677-0.37348-0.53102-0.8025-0.74852-1.31473" fill="currentColor"/>
        <path id="path3" class="ColorScheme-Text" d="m386.49911 537.36218c-0.0621 0.21337-0.1458 0.42187-0.23662 0.62626-0.462 1.01249-1.18574 1.70549-1.25549 2.34449-2e-3 0.0105-6e-3 0.0198-7e-3 0.0293l6e-3 1e-3c-1e-3 0.0222-6e-3 0.0439-6e-3 0.0661 0 0.79087 0.67163 1.43175 1.5 1.43175 0.82838 0 1.5-0.64125 1.5-1.43175 0-0.0217-5e-3 -0.0439-6e-3 -0.0661l6e-3 -1e-3c-2e-3 -0.0105-6e-3 -0.0198-7e-3 -0.0293-0.0696-0.639-0.79311-1.332-1.25548-2.34449-0.0906-0.20439-0.17439-0.41289-0.23663-0.62626m0 0.54937c0.2175 0.51225 0.50174 0.94126 0.7485 1.31475 0.16725 0.26025 0.35624 0.54525 0.48263 0.86214 0.0337 0.11071 0.054 0.22537 0.0543 0.34199 0 0.67764-0.57525 1.22739-1.2855 1.22739s-1.28552-0.54975-1.28552-1.22739c0-0.11655 0.0202-0.23136 0.0543-0.34199 0.1263-0.31651 0.31574-0.60189 0.48261-0.86214 0.24677-0.37349 0.531-0.8025 0.7485-1.31475" fill="currentColor"/>
      </g>
    </g>
  </g>
</svg>
