<svg width="24" height="24" version="1.1" xmlns="http://www.w3.org/2000/svg">
 <defs>
  <style id="current-color-scheme" type="text/css">.ColorScheme-Text { color:#f2f2f2; } .ColorScheme-Highlight { color:#4285f4; }</style>
 </defs>
 <g transform="translate(1,1)">
  <path class="ColorScheme-Text" fill="currentColor" d="m10.5 7h1v1h-1zm0 2h1v6h-1z"/>
  <circle class="ColorScheme-Highlight" fill="currentColor" cx="17" cy="17" r="2"/>
  <path class="ColorScheme-Text" fill="currentColor" d="m11 3a8 8 0 0 0-8 8 8 8 0 0 0 8 8 8 8 0 0 0 3.293-0.71094 3 3 0 0 1-0.27539-0.97266 7 7 0 0 1-3.0176 0.68359 7 7 0 0 1-7-7 7 7 0 0 1 6.9062-7 7 7 0 0 1 0.09375 0 7 7 0 0 1 7 7 7 7 0 0 1-0.68359 3.0176 3 3 0 0 1 0.97461 0.27344 8 8 0 0 0 0.70898-3.291 8 8 0 0 0-8-8z"/>
 </g>
</svg>
