<svg width="24" height="24" version="1.1" xmlns="http://www.w3.org/2000/svg">
 <defs>
  <style id="current-color-scheme" type="text/css">.ColorScheme-Text { color:#f2f2f2; } .ColorScheme-Highlight { color:#4285f4; } .ColorScheme-NeutralText { color:#ff9800; } .ColorScheme-PositiveText { color:#4caf50; } .ColorScheme-NegativeText { color:#f44336; }</style>
 </defs>
 <path class="ColorScheme-Text" d="m7 4c-1.662 0-3 1.338-3 3v10c0 1.662 1.338 3 3 3h10c1.662 0 3-1.338 3-3v-10c0-1.662-1.338-3-3-3zm0 1h10c1.108 0 2 0.892 2 2v10c0 1.108-0.892 2-2 2h-10c-1.108 0-2-0.892-2-2v-10c0-1.108 0.892-2 2-2zm2.4336 1.5547-0.86719 0.5 1.5234 2.6367a3 3 0 0 0-1.043 1.8086h-3.0469v1h3.0469a3 3 0 0 0 1.043 1.8086l-1.5234 2.6367 0.86719 0.5 1.5254-2.6406a3 3 0 0 0 1.041 0.19531 3 3 0 0 0 1.041-0.19531l1.5254 2.6406 0.86719-0.5-1.5234-2.6367a3 3 0 0 0 1.043-1.8086h3.0469v-1h-3.043a3 3 0 0 0-1.0449-1.8105l1.5215-2.6348-0.86719-0.5-1.5215 2.6348a3 3 0 0 0-1.0449-0.18945 3 3 0 0 0-1.041 0.19531l-1.5254-2.6406zm2.5664 3.4453a2 2 0 0 1 0.26953 0.01953 2 2 0 0 1 0.26562 0.05469 2 2 0 0 1 0.86523 0.5 2 2 0 0 1 0.23242 0.27539 2 2 0 0 1 0.18164 0.31055 2 2 0 0 1 0.12109 0.33984 2 2 0 0 1 0.06445 0.5 2 2 0 0 1-2 2 2 2 0 0 1-2-2 2 2 0 0 1 2-2z" fill="currentColor"/>
</svg>
