<svg width="24" height="24" version="1.1" xmlns="http://www.w3.org/2000/svg">
  <defs>
    <style id="current-color-scheme" type="text/css">.ColorScheme-Text {
        color:#f2f2f2;
      }</style>
    <linearGradient id="linearGradient4181" x1="399.99" x2="399.99" y1="545.14" y2="518.14" gradientTransform="matrix(.42857 0 0 .42857 -183.37 -215.02)" gradientUnits="userSpaceOnUse">
      <stop stop-color="#0bac83" offset="0"/>
      <stop stop-color="#10da96" offset="1"/>
    </linearGradient>
  </defs>
  <g transform="translate(25.03 -1.6194)">
    <g transform="matrix(.96475 0 0 .96475 -51.459 2.6014)">
      <path class="ColorScheme-Text" d="m38.985 0.47121a7.6013 7.6013 0 0 0-7.6013 7.6013 7.6013 7.6013 0 0 0 0.0049 0.16331 5.0675 5.0675 0 0 0-3.8056 4.9042 5.0675 5.0675 0 0 0 5.0675 5.0675h11.402a6.3344 6.3344 0 0 0 6.3344-6.3344 6.3344 6.3344 0 0 0-4.1075-5.9237 7.6013 7.6013 0 0 0-7.2945-5.4783zm0 1.2669a6.3344 6.3344 0 0 1 6.233 5.2086 5.0675 5.0675 0 0 1 3.9021 4.9265 5.0675 5.0675 0 0 1-5.0675 5.0675h-11.402a3.8006 3.8006 0 0 1-3.8006-3.8006 3.8006 3.8006 0 0 1 3.8006-3.8006 3.8006 3.8006 0 0 1 0.13609 0.00748 6.3344 6.3344 0 0 1-0.13609-1.2743 6.3344 6.3344 0 0 1 6.3344-6.3344z" fill="currentColor"/>
    </g>
    <g transform="matrix(1.1085 0 0 1.1085 5.1011 3.2441)">
      <circle cx="-11.694" cy="12.889" r="6" fill="url(#linearGradient4181)"/>
      <g transform="matrix(.475 0 0 .475 -171.84 -245.9)" fill="#fff" fill-opacity=".85098">
        <g transform="matrix(1.3843 0 0 1.3843 325.81 -900.23)" fill="#fff" fill-opacity=".85098">
          <g transform="translate(-401.01 510.63)" fill="#fff" fill-opacity=".85098">
            <g transform="translate(5.0558 -5.2511)" fill="#fff" fill-opacity=".85098">
              <g transform="translate(-11.317 5.8825)" fill="#fff" fill-opacity=".85098" stroke="#000" stroke-opacity=".8">
                <g transform="translate(1.8733 -.28411)" fill="#fff" fill-opacity=".85098">
                  <g transform="matrix(.78637 0 0 .78395 93.526 112.35)" fill="#fff" fill-opacity=".85098">
                    <path id="Download" d="m412.39 537.33c-0.40104-0.40373-1.0517-0.40373-1.4532 0l-4.0568 4.4969-4.0568-4.4969c-0.40151-0.40373-1.0517-0.40373-1.4532 0-0.40152 0.40373-0.40152 1.0577 0 1.4614l4.719 5.2315c0.21722 0.21815 0.5065 0.31434 0.79095 0.29636 0.28395 0.018 0.57373-0.0783 0.79093-0.29636l4.719-5.2315c0.40102-0.40373 0.40102-1.0577 0-1.4614zm-5.516-4.3514c0.93509 0 1.6931-0.76131 1.6931-1.7004 0-0.93912-0.75804-1.7004-1.6931-1.7004s-1.6931 0.76131-1.6931 1.7004c0 0.93911 0.75805 1.7004 1.6931 1.7004zm0 4.8584c0.93509 0 1.6931-0.76131 1.6931-1.7004s-0.75804-1.7004-1.6931-1.7004-1.6931 0.7613-1.6931 1.7004 0.75805 1.7004 1.6931 1.7004z" fill="#fff" fill-opacity=".85098" stroke="none"/>
                  </g>
                </g>
              </g>
            </g>
          </g>
        </g>
      </g>
    </g>
  </g>
</svg>
