<svg width="24" height="24" version="1.1" xmlns="http://www.w3.org/2000/svg">
  <defs>
    <style id="current-color-scheme" type="text/css">.ColorScheme-Text {
        color:#f2f2f2
      }</style>
    <linearGradient id="linearGradient4160-4" x1="2" x2="46.54" y1="1028.4" y2="1031.1" gradientTransform="matrix(.27273 0 0 .27273 -21.787 -269.42)" gradientUnits="userSpaceOnUse">
      <stop stop-color="#06f" offset="0"/>
      <stop stop-color="#5f8dd3" offset="1"/>
    </linearGradient>
  </defs>
  <g transform="translate(-24.022 -1.301)">
    <g transform="matrix(.96475 0 0 .96475 -2.4072 2.283)">
      <path class="ColorScheme-Text" d="m38.985 0.47121a7.6013 7.6013 0 0 0-7.6013 7.6013 7.6013 7.6013 0 0 0 0.0049 0.16331 5.0675 5.0675 0 0 0-3.8056 4.9042 5.0675 5.0675 0 0 0 5.0675 5.0675h11.402a6.3344 6.3344 0 0 0 6.3344-6.3344 6.3344 6.3344 0 0 0-4.1075-5.9237 7.6013 7.6013 0 0 0-7.2945-5.4783zm0 1.2669a6.3344 6.3344 0 0 1 6.233 5.2086 5.0675 5.0675 0 0 1 3.9021 4.9265 5.0675 5.0675 0 0 1-5.0675 5.0675h-11.402a3.8006 3.8006 0 0 1-3.8006-3.8006 3.8006 3.8006 0 0 1 3.8006-3.8006 3.8006 3.8006 0 0 1 0.13609 0.00748 6.3344 6.3344 0 0 1-0.13609-1.2743 6.3344 6.3344 0 0 1 6.3344-6.3344z" fill="currentColor"/>
    </g>
    <g transform="matrix(1.1085 0 0 1.1085 27.888 1.1405)">
      <ellipse transform="rotate(266.31)" cx="-15.242" cy="11.042" rx="6" ry="6" fill="url(#linearGradient4160-4)"/>
      <path d="m12.008 10.326c0.87828 0.0019 1.7689 0.27565 2.4645 0.81745 0.48904 0.56338-0.4428 1.1667-0.86248 0.6174-1.2634-0.76447-3.0452-0.4953-3.9958 0.64761-0.50574 0.56717-0.79067 1.324-0.78733 2.0838h0.83492l-1.3359 2.0038-1.3359-2.0038h0.83492c-0.026653-1.814 1.2781-3.5398 3.0298-4.0096 0.37572-0.10308 0.76299-0.16088 1.1532-0.15671zm3.6653 2.1708 1.3359 2.0038h-0.83492c0.02367 1.8358-1.3144 3.5809-3.0967 4.0259-1.2027 0.33586-2.5626 0.09078-3.551-0.6776-0.50433-0.57279 0.44045-1.1703 0.86405-0.61595 1.2241 0.74266 2.9383 0.50712 3.9046-0.55362 0.5594-0.57642 0.88117-1.3754 0.87699-2.1788h-0.83492l1.3359-2.0038z" enable-background="new" fill="#fff" fill-opacity=".85887" stroke-width="1.3174"/>
    </g>
  </g>
</svg>
