<svg width="24" height="24" version="1.1" xmlns="http://www.w3.org/2000/svg">
  <defs>
    <style id="current-color-scheme" type="text/css">.ColorScheme-Text {
        color:#f2f2f2
      }</style>
  </defs>
  <g transform="translate(27.381 -5.0748)">
    <g transform="matrix(.96475 0 0 .96475 -53.81 6.0569)">
      <path class="ColorScheme-Text" d="m38.985 0.47121a7.6013 7.6013 0 0 0-7.6013 7.6013 7.6013 7.6013 0 0 0 0.0049 0.16331 5.0675 5.0675 0 0 0-3.8056 4.9042 5.0675 5.0675 0 0 0 5.0675 5.0675h11.402a6.3344 6.3344 0 0 0 6.3344-6.3344 6.3344 6.3344 0 0 0-4.1075-5.9237 7.6013 7.6013 0 0 0-7.2945-5.4783zm0 1.2669a6.3344 6.3344 0 0 1 6.233 5.2086 5.0675 5.0675 0 0 1 3.9021 4.9265 5.0675 5.0675 0 0 1-5.0675 5.0675h-11.402a3.8006 3.8006 0 0 1-3.8006-3.8006 3.8006 3.8006 0 0 1 3.8006-3.8006 3.8006 3.8006 0 0 1 0.13609 0.00748 6.3344 6.3344 0 0 1-0.13609-1.2743 6.3344 6.3344 0 0 1 6.3344-6.3344z" fill="currentColor"/>
    </g>
    <g transform="matrix(1.6628 0 0 1.6628 -38.48 -5.6168)">
      <path d="m17 12c-2.216 0-4 1.784-4 4s1.784 4 4 4 4-1.784 4-4-1.784-4-4-4z" color="#27ae60" fill="#bdc3c7"/>
      <g transform="matrix(1.0862 0 0 1.0862 -23.264 -11.894)" fill="#fff" stroke-linecap="round" stroke-linejoin="round" stroke-width="8.1862">
        <circle cx="39.069" cy="25.68" r=".49776"/>
        <circle cx="37.07" cy="25.682" r=".49776"/>
        <circle cx="35.071" cy="25.68" r=".49776"/>
      </g>
    </g>
  </g>
</svg>
