<svg width="24" height="24" version="1.1" xmlns="http://www.w3.org/2000/svg">
  <defs>
    <style id="current-color-scheme" type="text/css">.ColorScheme-Text {
        color:#f2f2f2
      }</style>
    <linearGradient id="linearGradient4160-4" x1="2" x2="46.54" y1="1028.4" y2="1031.1" gradientTransform="matrix(.27273 0 0 .27273 -24.633 -299.31)" gradientUnits="userSpaceOnUse">
      <stop stop-color="#f00" offset="0"/>
      <stop stop-color="#ff2a2a" offset="1"/>
    </linearGradient>
  </defs>
  <g transform="translate(28.686 -2.5863)">
    <g transform="matrix(.96475 0 0 .96475 -55.115 3.5684)">
      <path class="ColorScheme-Text" d="m38.985 0.47121a7.6013 7.6013 0 0 0-7.6013 7.6013 7.6013 7.6013 0 0 0 0.0049 0.16331 5.0675 5.0675 0 0 0-3.8056 4.9042 5.0675 5.0675 0 0 0 5.0675 5.0675h11.402a6.3344 6.3344 0 0 0 6.3344-6.3344 6.3344 6.3344 0 0 0-4.1075-5.9237 7.6013 7.6013 0 0 0-7.2945-5.4783zm0 1.2669a6.3344 6.3344 0 0 1 6.233 5.2086 5.0675 5.0675 0 0 1 3.9021 4.9265 5.0675 5.0675 0 0 1-5.0675 5.0675h-11.402a3.8006 3.8006 0 0 1-3.8006-3.8006 3.8006 3.8006 0 0 1 3.8006-3.8006 3.8006 3.8006 0 0 1 0.13609 0.00748 6.3344 6.3344 0 0 1-0.13609-1.2743 6.3344 6.3344 0 0 1 6.3344-6.3344z" fill="currentColor"/>
    </g>
    <g transform="matrix(1.1085 0 0 1.1085 8.0464 -2.8539)">
      <ellipse transform="rotate(266.31)" cx="-18.087" cy="-18.852" rx="6" ry="6" fill="url(#linearGradient4160-4)"/>
      <path d="m-17.652 15.991c-0.30124 0-0.54297 0.2418-0.54297 0.543v3.8223c0 0.3013 0.24173 0.5429 0.54297 0.5429h0.0039c0.30124 0 0.54297-0.2416 0.54297-0.5429v-3.8223c0-0.3012-0.24173-0.543-0.54297-0.543zm2e-3 6c-0.30218 0-0.54492 0.2428-0.54492 0.545 0 0.3021 0.24274 0.5449 0.54492 0.5449s0.54492-0.2428 0.54492-0.5449c0-0.3022-0.24274-0.545-0.54492-0.545z" fill="#fff"/>
    </g>
  </g>
</svg>
