<svg width="24" height="24" version="1.1" viewBox="0 0 24 24" xmlns="http://www.w3.org/2000/svg">
 <defs>
  <style id="current-color-scheme" type="text/css">.ColorScheme-Text {
        color:#ffffff;
      }</style>
 </defs>
 <path class="ColorScheme-Text" d="m11.943 4.5a7.5 7.5 0 0 0-7.4434 7.5 7.5 7.5 0 0 0 7.5 7.5 7.5 7.5 0 0 0 7.5-7.5 7.5 7.5 0 0 0-7.5-7.5 7.5 7.5 0 0 0-0.056641 0zm0.003907 1a6.5 6.5 0 0 1 0.052734 0 6.5 6.5 0 0 1 6.5 6.5 6.5 6.5 0 0 1-6.5 6.5 6.5 6.5 0 0 1-6.5-6.5 6.5 6.5 0 0 1 6.4473-6.5zm0.93164 2.377c-0.12781 0-0.25558 0.050503-0.35352 0.14844-0.19587 0.19587-0.19587 0.51116 0 0.70703l1.2676 1.2676h-4.793c-0.277 0-0.5 0.223-0.5 0.5s0.223 0.5 0.5 0.5h6c0.031952 0 0.064218-0.003645 0.095703-0.009766 0.13462-0.025832 0.24966-0.10466 0.32227-0.21484 0.007888-0.011921 0.014726-0.024709 0.021484-0.03711 0.001117-0.002061 0.002818-0.00378 0.003906-0.005859 0.002603-0.004939 0.003434-0.010621 0.00586-0.015625 0.018396-0.038203 0.03278-0.078177 0.041015-0.12109 0.002822-0.014515 0.006292-0.030254 0.007813-0.044922 1.31e-4 -0.001294-1.21e-4 -0.002609 0-0.003906 0.00306-0.031836 0.00306-0.065821 0-0.097656-0.006556-0.064947-0.025836-0.12655-0.054688-0.18164-0.001078-0.002045-0.002798-0.003826-0.003906-0.005859-0.006823-0.012592-0.01364-0.025206-0.021484-0.03711-9.75e-4 -0.001473-0.002914-0.002441-0.003907-0.003906-0.00346-0.005131-0.006121-0.010633-0.009765-0.015625-0.00532-0.007284-0.011815-0.01638-0.017578-0.023437-0.010174-0.012338-0.021907-0.02386-0.033203-0.035157l-2.1211-2.1211c-0.097934-0.097934-0.22571-0.14844-0.35352-0.14844zm-3.8789 5.123c-0.078064 0-0.15109 0.019142-0.2168 0.050781-0.0050044 0.002426-0.010686 0.003257-0.015625 0.00586-0.0020788 0.001088-0.003798 0.002789-0.0058593 0.003906-0.012326 0.006725-0.025258 0.015596-0.037109 0.023437-0.041341 0.027364-0.077937 0.059531-0.10938 0.097657-8.967e-4 0.001079-0.001067 0.002821-0.0019532 0.003906-0.010092 0.012452-0.020423 0.025655-0.029297 0.039062l-0.0019532 0.001953c-0.0075032 0.01147-0.014925 0.023053-0.021484 0.035157-0.003828 0.007015-0.0062993 0.014334-0.0097657 0.021484-0.010589 0.02199-0.020017 0.044704-0.027344 0.068359-7.864e-4 0.002502-0.0012071 0.005302-0.0019531 0.007813-0.0057925 0.019843-0.010345 0.039749-0.013672 0.060547-0.0094748 0.058213-0.0093147 0.11782 0.0019531 0.17578 0.0027031 0.014096 0.0059126 0.027375 0.0097656 0.041016 5.603e-4 0.001975 0.0013681 0.00389 0.0019532 0.005859 5.897e-4 0.001992 0.0013394 0.003878 0.0019531 0.00586 0.0041842 0.01348 0.0083161 0.027853 0.013672 0.041015 0.002996 0.007358 0.0064347 0.014308 0.0097656 0.021485 0.003443 0.007397 0.0059401 0.014225 0.0097656 0.021484 0.0010888 0.002079 0.0027893 0.003798 0.0039063 0.005859 0.0067584 0.012401 0.013597 0.025189 0.021484 0.03711 9.842e-4 0.001493 0.0029066 0.002424 0.0039063 0.003906 0.0083518 0.012335 0.017769 0.025385 0.027344 0.037109l0.0019532 0.001953c0.010198 0.012348 0.019686 0.023593 0.03125 0.035157 0.011297 0.011296 0.022819 0.023029 0.035156 0.033203l2.0859 2.0879c0.19587 0.19587 0.51116 0.19587 0.70703 0 0.19587-0.19587 0.19587-0.51116 0-0.70703l-1.2676-1.2676h4.793c0.277 0 0.5-0.223 0.5-0.5s-0.223-0.5-0.5-0.5h-6z" fill="currentColor"/>
</svg>
