<svg width="24" height="24" version="1.1" xmlns="http://www.w3.org/2000/svg">
 <path class="ColorScheme-Text" d="m9.5 4c3.0376 0 5.5 2.4624 5.5 5.5 0 1.3388-0.4783 2.5659-1.2734 3.5196l4.127 4.1268c0.1952 0.1953 0.1952 0.5119 0 0.7072-0.1736 0.1735-0.443 0.1928-0.6379 0.0578l-0.0693-0.0578-4.1268-4.127c-0.9537 0.7951-2.1808 1.2734-3.5196 1.2734-3.0376 0-5.5-2.4624-5.5-5.5s2.4624-5.5 5.5-5.5zm0 1c-2.4853 0-4.5 2.0147-4.5 4.5s2.0147 4.5 4.5 4.5 4.5-2.0147 4.5-4.5-2.0147-4.5-4.5-4.5z" color="#363636" fill="#f2f2f2"/>
</svg>
