<?xml version="1.0" encoding="UTF-8"?>
<svg width="24" height="24" version="1.1" viewBox="0 0 24 24" xmlns="http://www.w3.org/2000/svg">
 <defs>
  <style id="current-color-scheme" type="text/css">.ColorScheme-Text {
        color:#ffffff;
      }</style>
 </defs>
 <path class="ColorScheme-Text" d="m14.927 6a2.5 2.5 0 0 0-2.5 2.5 2.5 2.5 0 0 0 2.5 2.5 2.5 2.5 0 0 0 2.5-2.5 2.5 2.5 0 0 0-2.5-2.5zm-6 2a2.5 2.5 0 0 0-2.5 2.5 2.5 2.5 0 0 0 2.5 2.5 2.5 2.5 0 0 0 2.5-2.5 2.5 2.5 0 0 0-2.5-2.5zm6.1465 4a3.5 4 0 0 0-3.1543 2.2734 4.5 5 0 0 1 1.125 1.7266h5.5293a3.5 4 0 0 0-3.5-4zm0 1a2.5 3 0 0 1 2.3535 2h-4.707a2.5 3 0 0 1 2.3535-2zm-6.1465 1a3.5 4 0 0 0-3.5 4h7a3.5 4 0 0 0-3.5-4zm0 1a2.5 3 0 0 1 2.3535 2h-4.707a2.5 3 0 0 1 2.3535-2z" fill="currentColor"/>
</svg>
