<?xml version="1.0" encoding="UTF-8"?>
<svg width="24" height="24" version="1.1" xmlns="http://www.w3.org/2000/svg">
 <path d="m7.0503 7.0502a7 7 0 0 0 0 9.8995 7 7 0 0 0 9.8995 0 7 7 0 0 0 1.4266-2.0923 7 7 0 0 0 0.01243-0.0041 7 7 0 0 0 0.05248-0.13258 7 7 0 0 0 0.09391-0.24307 7 7 0 0 0 0.15882-0.45713 7 7 0 0 0 0.05248-0.19335 7 7 0 0 0 0.09667-0.35632 6 6 0 0 1-0.0069 0.0041 6 6 0 0 1-0.0055 0.0028 6 6 0 0 1-1.2112 0.60629 6 6 0 0 1-0.0014 0.0014 6 6 0 0 1-6.3253-1.3784 6 6 0 0 1-1.3079-6.4896 6 6 0 0 1 0.11877-0.27345 6 6 0 0 1 0.14916-0.29831 6 6 0 0 1 0.13673-0.24445 6 6 0 0 1 0.14501-0.23892 6 6 0 0 1 0.0041-0.00691 7 7 0 0 0-3.4886 1.8948zm0.70711 0.70711a6 6 0 0 1 0.94465-0.76511 7 7 0 0 0 1.8838 6.422 7 7 0 0 0 6.4095 1.8907 6 6 0 0 1-0.75268 0.93774 6 6 0 0 1-8.4853 0 6 6 0 0 1 0-8.4853z" fill="#ffffff"/>
</svg>
