<svg xmlns="http://www.w3.org/2000/svg" id="svg7" version="1.1" viewBox="0 0 22 22">
<defs id="defs3">
<style id="current-color-scheme" type="text/css">.ColorScheme-Text{color:#f2f2f2}</style>
</defs>
<path id="path1" fill="currentColor" d="M11 6.998c-.015 0-.034 0-.049.002a.5.5 0 0 0-.267.111q-.02.017-.038.035L7.818 9.975a.499.499 0 1 0 .707.707L10.5 8.707v5.795a.499.499 0 1 0 1 0V8.707l1.975 1.975a.499.499 0 1 0 .707-.707l-2.828-2.829-.038-.035h-.002A.5.5 0 0 0 11.05 7h-.002z" class="ColorScheme-Text"/>
<path id="path2" fill="currentColor" d="M11 2a9 9 0 0 0-9 9 9 9 0 0 0 9 9 9 9 0 0 0 2.332-.32A4.5 4.5 0 0 0 16.5 21a4.5 4.5 0 0 0 4.5-4.5 4.5 4.5 0 0 0-1.318-3.182A9 9 0 0 0 20 11a9 9 0 0 0-9-9m0 1a8 8 0 0 1 8 8 8 8 0 0 1-.191 1.639A4.5 4.5 0 0 0 16.5 12a4.5 4.5 0 0 0-4.5 4.5 4.5 4.5 0 0 0 .646 2.309A8 8 0 0 1 11 19a8 8 0 0 1-8-8 8 8 0 0 1 8-8m3.379 10.879c.128 0 .255.048.353.146l1.768 1.768 1.768-1.768a.499.499 0 1 1 .707.707L17.207 16.5l1.768 1.768a.499.499 0 1 1-.707.707L16.5 17.207l-1.768 1.768a.499.499 0 1 1-.707-.707l1.768-1.768-1.768-1.768a.499.499 0 0 1 .354-.853" class="ColorScheme-Text"/>
</svg>
