<svg width="16" height="16" version="1.1" xmlns="http://www.w3.org/2000/svg">
 <g transform="translate(-1113,-41.004)" fill="#363636">
  <path d="m1116.5 50.004v6h1.5s1 0 1-1v-4c0-1-1-1-1-1z"/>
  <path d="m1116.5 50.004v6h1.5s1 0 1-1v-4c0-1-1-1-1-1z"/>
 </g>
 <path d="m8 0c-3.878 0-7 3.122-7 7v5h1.5v-5c0-3.047 2.453-5.5 5.5-5.5s5.5 2.453 5.5 5.5v5h1.5v-5c0-3.878-3.122-7-7-7z" fill="#363636"/>
 <g transform="matrix(-1,0,0,1,1129,-41.004)" fill="#363636">
  <path d="m1116.5 50.004v6h1.5s1 0 1-1v-4c0-1-1-1-1-1z"/>
  <path d="m1116.5 50.004v6h1.5s1 0 1-1v-4c0-1-1-1-1-1z"/>
 </g>
</svg>
