<svg width="16.01" height="16.007" version="1.1" xmlns="http://www.w3.org/2000/svg">
 <path d="m15 0.0039062c-1.108 0-2 0.892-2 2v0.0039063h-10c-1.662 0-3 1.338-3 3v6c0 1.662 1.338 3 3 3h10v1.9922h1.5v-4h1.5v-7.9844h-1.5v-2.0117c0-0.277 0.223-0.5 0.5-0.5h1v-1.5h-1zm-12 3.5039h10v0.50781 7.9844 0.50781h-10c-0.831 0-1.5-0.669-1.5-1.5v-6c0-0.831 0.669-1.5 1.5-1.5z" fill="#363636"/>
 <path d="m9.723 3.987a0.385 0.385 0 0 0-0.178 0.01l-4.09 1.124c-0.252 0.069-0.455 0.348-0.455 0.625v4.261a2.237 2.237 0 0 0-0.869 0.04c-0.803 0.196-1.288 0.774-1.084 1.29 0.203 0.517 1.019 0.777 1.822 0.58 0.685-0.168 1.155-0.62 1.13-1.086v-4.014l3-0.823v3.013a2.237 2.237 0 0 0-0.87 0.04c-0.803 0.196-1.288 0.774-1.084 1.29 0.203 0.517 1.019 0.777 1.822 0.58 0.666-0.164 1.132-0.597 1.13-1.053v-5.492c0-0.207-0.115-0.354-0.278-0.384z" color="#bebebe" fill="#363636" overflow="visible"/>
</svg>
