<svg width="16" height="16" version="1.1" xmlns="http://www.w3.org/2000/svg">
 <path d="m3 0c-1.662 0-3 1.338-3 3v7c0 1.662 1.338 3 3 3h10c1.662 0 3-1.338 3-3v-7c0-1.662-1.338-3-3-3h-10zm0 1.5h10c0.831 0 1.5 0.669 1.5 1.5v7c0 0.831-0.669 1.5-1.5 1.5h-10c-0.831 0-1.5-0.669-1.5-1.5v-7c0-0.831 0.669-1.5 1.5-1.5z" fill="#363636"/>
 <rect x="3" y="14.5" width="10" height="1.5" rx=".75" ry=".75" fill="#363636"/>
 <rect x="7.25" y="12" width="1.5" height="4" rx=".75" ry=".75" fill="#363636" stroke-linecap="round" stroke-linejoin="round" stroke-width=".83895"/>
</svg>
