<svg width="16" height="16" version="1.1" xmlns="http://www.w3.org/2000/svg">
 <title>Gnome Symbolic Icon Theme</title>
 <g transform="translate(-103 -325)">
  <path transform="translate(103 325)" d="m6 2c-1.0958 0-1.8759 0.94686-1.9922 1.877l-1.1406 9.123h10.266l-1.1406-9.1328-0.001954-0.0078125c-0.0647-0.45296-0.24746-0.89282-0.58398-1.25-0.33648-0.35699-0.85755-0.60938-1.4062-0.60938h-4zm0 1h4c0.554 0 0.92165 0.45157 1 1l1 8h-8l1-8c0.0687-0.54972 0.446-1 1-1zm2 1.0625c-0.554 0-1 0.446-1 1v1.9375c0 0.554 0.446 1 1 1s1-0.446 1-1v-1.9375c0-0.554-0.446-1-1-1zm0 4.9375a1 1 0 0 0-1 1 1 1 0 0 0 1 1 1 1 0 0 0 1-1 1 1 0 0 0-1-1zm-5.5 5c-0.277 0-0.5 0.223-0.5 0.5s0.223 0.5 0.5 0.5h11c0.277 0 0.5-0.223 0.5-0.5s-0.223-0.5-0.5-0.5h-11z" fill="#363636"/>
 </g>
</svg>
