<svg height="16" width="16" xmlns="http://www.w3.org/2000/svg"><g fill="#363636"><path d="M4.994 0C3.736.015 2.815-.03 2.062.385a1.88 1.88 0 00-.837.998C1.06 1.82 1 2.343 1 3v10c0 .658.06 1.179.225 1.617.164.439.461.789.837.996.753.415 1.674.372 2.932.387h5.012c1.258-.015 2.179.03 2.932-.385a1.88 1.88 0 00.837-.998c.165-.438.225-.96.225-1.617V3c0-.658-.06-1.179-.225-1.617a1.875 1.875 0 00-.838-.996C12.185-.028 11.264.015 10.006 0H4.998zM5 1h5c1.259.015 2.09.06 2.455.262.184.1.287.213.385.472.097.26.16.674.16 1.266v10c0 .592-.063 1.006-.16 1.266-.098.26-.202.371-.385.472-.366.202-1.197.247-2.455.262H5c-1.259-.015-2.09-.06-2.455-.262-.184-.1-.287-.213-.385-.472C2.063 14.006 2 13.592 2 13V3c0-.592.063-1.006.16-1.266.098-.26.203-.371.387-.472C2.913 1.06 3.74 1.015 5 1z" style="line-height:normal;font-variant-ligatures:normal;font-variant-position:normal;font-variant-caps:normal;font-variant-numeric:normal;font-variant-alternates:normal;font-feature-settings:normal;text-indent:0;text-align:start;text-decoration-line:none;text-decoration-style:solid;text-decoration-color:#000;text-transform:none;text-orientation:mixed;white-space:normal;shape-padding:0;isolation:auto;mix-blend-mode:normal;solid-color:#000;solid-opacity:1;marker:none" color="#000" font-weight="400" font-family="sans-serif" overflow="visible"/><path d="M7 4c-.283 0-.551.055-.799.166a1.85 1.85 0 00-.646.46v.003l-.002.002a2.157 2.157 0 00-.409.719 2.683 2.683 0 00-.144.9c0 .327.047.632.145.908.096.271.231.51.408.711l.002.002c.18.2.398.358.642.469l.002.002h.002c.247.106.517.158.8.158.281 0 .549-.052.796-.158V8.34c.245-.11.458-.268.635-.469.181-.201.321-.44.418-.713a2.7 2.7 0 00.144-.908H9c0-.322-.047-.623-.144-.898a2.102 2.102 0 00-.418-.723 1.779 1.779 0 00-.639-.463A1.95 1.95 0 007 4zm0 1c.552 0 1 .56 1 1.25S7.552 7.5 7 7.5s-1-.56-1-1.25S6.448 5 7 5zM7 9v.002C4.002 9.01 4 11 4 11v.998L7 12c1.25 0 2.5-.003 3-.004v-.998S9.998 9.008 7 9zm0 1.002c1.997.004 1.893.99 1.893.99 0 .002 0 .006.002.008h-3.79l.002-.006s-.104-.986 1.893-.99z" style="line-height:125%;-inkscape-font-specification:'Ubuntu, Normal';font-variant-ligatures:normal;font-variant-position:normal;font-variant-caps:normal;font-variant-numeric:normal;font-variant-alternates:normal;font-feature-settings:normal;text-indent:0;text-align:start;text-decoration-line:none;text-decoration-style:solid;text-decoration-color:#000;text-transform:none;text-orientation:mixed;white-space:normal;shape-padding:0;isolation:auto;mix-blend-mode:normal;solid-color:#000;solid-opacity:1" color="#000" font-weight="400" font-family="Ubuntu" letter-spacing="0" word-spacing="0" overflow="visible"/><path d="M11 1h1v14h-1z"/></g></svg>