<svg clip-rule="evenodd" fill-rule="evenodd" stroke-linejoin="round" stroke-miterlimit="2" version="1.1" viewBox="0 0 16 16" xmlns="http://www.w3.org/2000/svg">
 <path d="m6.5137 1-0.57812 1-3.9355 6.8184-1 1.7324v1.4961 0.95312c0 1.108 0.892 2 2 2h4.3164 1.0762 4.6074c1.108 0 2-0.892 2-2v-2.5-1-6.5c0-1.108-0.892-2-2-2h-2.5-1.0723-1.8379-1.0762zm0.57812 1h1.7812l-1.916 3.4473-0.43164 0.77734-1.957 3.5215c-6.568e-4 0.0013-0.0013131 0.0025962-0.0019532 0.0039062l-0.0039062 0.0078125c-0.019537 0.035788-0.034623 0.07383-0.044922 0.11328-0.00303 0.011621-0.0056325 0.023347-0.0078125 0.035156-0.00224 0.00971-0.0041993 0.019475-0.0058594 0.029297-5.1e-6 0.0013-4.9e-6 0.0025962 0 0.0039062-0.0025288 0.020075-0.003831 0.040304-0.0039062 0.060547v0.001953 0.001953c7.52e-5 0.02024 0.0013763 0.040457 0.0039062 0.060547-5.1e-6 0.0013-4.9e-6 0.002606 0 0.003906 0.0033001 0.02045 0.0078599 0.040667 0.013672 0.060547v0.001953c0.011074 0.04165 0.027486 0.0817 0.048828 0.11914l2.1719 3.75h-3.7383c-0.554 0-1-0.446-1-1v-2.1816l5.0918-8.8184zm2.9238 0h2.9844c0.554 0 1 0.446 1 1v6.5h-4.4141l-1.9102-3.2871 2.3398-4.2129zm-2.9043 5.2305 1.3184 2.2695h-1.543a0.61328 0.61328 0 0 1-0.61328-0.61328 0.61328 0.61328 0 0 1 0.044922-0.22852 0.61328 0.61328 0 0 1 0.0019531-0.0058593l0.79102-1.4219zm-1.2441 3.2695h3.1953 0.58008 4.3574v2.5c0 0.554-0.446 1-1 1h-5.1074l-2.0254-3.5z" fill="#363636"/>
</svg>
