<svg clip-rule="evenodd" fill-rule="evenodd" stroke-linejoin="round" stroke-miterlimit="2" version="1.1" viewBox="0 0 16 16" xmlns="http://www.w3.org/2000/svg">
 <path d="m6.5137 1-0.57812 1-3.9355 6.8184-1 1.7324v1.4961 0.95312c0 1.108 0.892 2 2 2h3.9961 0.32031 0.83008 0.24609 1.6035 1.1504 1.8535c1.108 0 2-0.892 2-2v-0.48438-1.1992-0.81641-1-6.5c0-1.108-0.892-2-2-2h-2.5-1.0723-0.32227-1.1504-0.36523-1.0762zm0.57812 1h1.4355l5.4727 9.5801v1.4199c0 0.39384-0.22533 0.73324-0.55469 0.89648l-6.5762-11.51 0.22266-0.38672zm2.5859 0h0.33789 2.9844c0.554 0 1 0.446 1 1v6.5 0.066406l-4.3223-7.5664zm-3.3867 1.3887 6.0605 10.611h-1.7773l-5.1777-9.0625 0.89453-1.5488zm-1.4727 2.5488 4.6055 8.0625h-1.5312-0.31641l-3.6875-6.4531 0.92969-1.6094zm-1.5078 2.6113 3.1133 5.4512h-3.4238c-0.554 0-1-0.446-1-1v-2.1816l1.3105-2.2695z" fill="#363636"/>
</svg>
