<svg width="16" height="16" version="1.1" xmlns="http://www.w3.org/2000/svg">
 <style id="current-color-scheme" type="text/css">.ColorScheme-Text { color: #363636; }</style>
 <path class="ColorScheme-Text" d="m8 9.8277e-4c-4.4183 0-8 3.5815-8 7.9995 0 4.418 3.5817 7.9995 8 7.9995s8-3.5815 8-7.9995c0-1.2788-0.3004-2.4882-0.83398-3.5603-0.0063-0.011269-0.02391-0.028168-0.0293-0.039058 4.7e-4 -2.3e-4 0.0049-2e-3 0.0059-2e-3 0.18504-0.21855 0.28125-0.46825 0.28125-0.7109 0-0.17522-0.0682-0.35569-0.12891-0.49216 2.9e-4 2.599e-4 0.0059 0.0039 0.0059 0.0039s-0.0012-0.12382-0.07617-0.29881c-0.075-0.17499-0.17383-0.30076-0.17383-0.30076s-0.2375 0.037498-0.375 0.062496c-0.1297 0.023598-0.47319 0.21372-0.51367 0.23632-1.7128-1.6773-3.4115-2.9401-6.1622-2.8982zm0.19922 0.40037c2.1554 0.0033 4.2022 0.94603 5.6055 2.5818-0.77174 0.19071-1.9869 0.63389-2.4121 0.74018-0.49498 0.12373-0.72583 0.23537-1.5195 0.16015-0.90469-0.085695-1.3109-0.092834-1.5488-0.085935-0.35634-0.031498-0.53711-0.10937-0.53711-0.10937l0.03125 0.35154c-0.23691 0.18062-0.71363 0.44267-1.6934 0.70894-0.6364 0.070696-1.1662-0.12402-1.4844 0.052727-0.3182 0.17677-1.3272 0.61841-1.8398 0.74214-0.51266 0.12374-0.89202 0.35631-1.2012 0.45701-0.48839 0.15909 0.96756 2.4939 1.5996 2.8006 0 0-0.21757 0.2259-0.40039 0.41599-0.43969 0.30039-0.78711 0.32029-0.78711 0.32029l0.023437 0.24023c-0.20969 0.11139-0.40586 0.18803-0.58789 0.25193-0.29342-0.81106-0.44473-1.6667-0.44727-2.5291 0.00394-1.3747 0.38569-2.7218 1.1035-3.8943 1.3807-2.0063 3.6602-3.2047 6.0957-3.2049zm6.6504 4.1657c0.49176 1.0073 0.74821 2.1133 0.75 3.2342-0.0015 2.4847-1.2502 4.8029-3.3242 6.1715-0.644 0.37592-1.3405 0.6537-2.0664 0.82417 0.03056-0.2345 0.06104-0.47456 0.08399-0.71285 0.17366-0.25515 0.40625-0.25974 0.40625-0.25974s-0.29922-0.84956-0.26953-1.8729c0.0372-0.24272 0.09976-0.47189 0.17969-0.68941h0.30273s-0.0378-0.41738 0.13281-0.84175c0.56207-0.8542 1.3289-1.4244 1.6562-1.6757 0.30878-0.23709 1.7327-0.60114 2.0332-0.67184 0.30052-0.070696 0.58388-0.548 0.60156-0.68941 0.0177-0.14141-0.08984-0.40622-0.08984-0.40622l-0.42578-0.095694c0.10584 0.074995 0.04519 0.15024-0.13281 0.18163-0.057 0.010099-0.13605 0.014819-0.22461 0.015629 0 0-0.09271-0.36353-0.19336-0.39451-0.0861-0.026498-0.31236 0.25786-0.30859 0.35545-0.0963-0.016299-0.18793-0.037648-0.26172-0.064446-0.27503-0.10001-0.57423-0.16211-0.57423-0.16211s0.29961-0.67535 0.72461-1.3378c0.27092-0.42229 0.70796-0.73021 1-0.90814zm-5.4844 0.15624c0.48595-4e-3 0.84766 0.14061 0.84766 0.14061s0.04719 0.45527-1.3184 1.2714c-0.41865 0.25019-1.5195 0.41599-1.5195 0.41599s-0.0236-0.57527 0.39453-1.0741c0.49929-0.59576 1.1098-0.7494 1.5957-0.75386zm-6.2715 1.2675c0.0451-1e-3 0.080439 0.0028 0.10547 0.0098 0.2 0.062496 0.63748 0.85773 0.40039 1.1991l0.40039 0.40034c0.8-0.79995 1.9938-0.24276 2.1992 0.30076 0.28473 0.75324 0.22551 0.66367-0.95508 0.83589-0.5003 0.072996-1.5209-0.10833-1.9238-0.41794s-1.4391-1.9495-1.3516-2.037c0.0766-0.076595 0.80919-0.28249 1.125-0.291zm11.508 0.59957c-0.0675 0.024099-0.12891 0.30857-0.12891 0.30857s0.0522 0.027978 0.32227-0.0078c0.0727-0.018099-0.12584-0.32484-0.19336-0.30076z" fill="currentColor"/>
</svg>
