<svg width="16" height="16" version="1.1" xmlns="http://www.w3.org/2000/svg">
 <path d="m8 5a3 3 0 0 0-3 3 3 3 0 0 0 3 3 3 3 0 0 0 3-3 3 3 0 0 0-3-3zm0 1a2 2 0 0 1 2 2 2 2 0 0 1-2 2 2 2 0 0 1-2-2 2 2 0 0 1 2-2z" fill="#363636" style="paint-order:fill markers stroke"/>
 <path d="m7.4199 0c-0.22287 0-0.53548 0.061676-0.79492 0.2793-0.25944 0.21762-0.38347 0.53792-0.41406 0.76758l0.019531-0.10156-0.3418 1.4219c-0.13939 0.051171-0.27065 0.10628-0.40234 0.16602l-1.2383-0.75781a1.0001 1.0001 0 0 0-0.0078125-0.0039062c-0.17859-0.10726-0.47427-0.21874-0.79297-0.17969-0.3187 0.039054-0.55502 0.20492-0.69141 0.33008a1.0001 1.0001 0 0 0-0.025391 0.023438l-0.82031 0.80664a1.0001 1.0001 0 0 0-0.037109 0.037109c-0.15471 0.16895-0.31004 0.45605-0.32812 0.75781-0.018082 0.30176 0.081878 0.5479 0.17383 0.70898a1.0001 1.0001 0 0 0 0.019531 0.03125l0.76953 1.2402c-0.055334 0.12087-0.099129 0.2493-0.15039 0.38477l-1.4082 0.33203a1.0001 1.0001 0 0 0-0.013672 0.0019532c-0.16189 0.040528-0.43967 0.13512-0.66211 0.40234s-0.27344 0.59372-0.27344 0.79297v1.1484c0 0.22259 0.062041 0.53338 0.2793 0.79297 0.21726 0.25959 0.53572 0.38334 0.76563 0.41406l-0.099609-0.017578 1.4238 0.33984c0.046822 0.12529 0.093464 0.24575 0.14648 0.36328l-0.77148 1.2578c-0.10296 0.1674-0.21441 0.42855-0.1875 0.75195 0.026914 0.3234 0.21266 0.62196 0.39258 0.78711l0.7832 0.7832c0.15441 0.15462 0.40917 0.32456 0.72461 0.36328 0.31544 0.03872 0.60979-0.06687 0.79297-0.17969l1.252-0.77148c0.12417 0.05748 0.24852 0.11139 0.37891 0.16016l0.34961 1.4316-0.019531-0.10547c0.030979 0.23258 0.16861 0.57271 0.43945 0.78516 0.27084 0.21245 0.56636 0.25391 0.76953 0.25391h1.168c0.20318 0 0.51273-0.05034 0.77734-0.26367 0.26461-0.21333 0.38066-0.51471 0.41992-0.71094l-0.0078124 0.041015 0.34961-1.4297c0.13059-0.04936 0.25606-0.103 0.37891-0.16016l1.2422 0.76953a1.0001 1.0001 0 0 0 0.001953 0c0.18326 0.11293 0.47754 0.2184 0.79297 0.17969 0.31543-0.03872 0.57019-0.20869 0.72461-0.36328a1.0001 1.0001 0 0 0 0.003906-0.001953l0.7793-0.78906c0.16884-0.15492 0.36454-0.45374 0.39258-0.7832 0.02804-0.32946-0.082991-0.57627-0.16992-0.72852a1.0001 1.0001 0 0 0-0.017579-0.029297l-0.76953-1.2461c0.05378-0.11732 0.10085-0.23771 0.14844-0.36328l1.4277-0.3418-0.099609 0.017578c0.23285-0.031118 0.57116-0.16852 0.7832-0.43945 0.21204-0.27093 0.25391-0.56464 0.25391-0.76758v-1.1484c0-0.18069-0.030698-0.48577-0.24805-0.76562-0.21735-0.27986-0.51302-0.38796-0.67969-0.42969a1.0001 1.0001 0 0 0-0.013672-0.0019532l-1.4082-0.33203c-0.05274-0.13695-0.095008-0.26671-0.15039-0.38672l0.75391-1.2246c0.10502-0.16356 0.22747-0.42009 0.20703-0.75391-0.020443-0.33382-0.21458-0.64546-0.39453-0.81055l-0.79102-0.77734c-0.14462-0.14475-0.40396-0.32422-0.72266-0.36328-0.31869-0.039061-0.58703 0.063351-0.75 0.15039a1.0001 1.0001 0 0 0-0.050781 0.029297l-1.2344 0.75781c-0.12539-0.057907-0.25628-0.10785-0.39258-0.16016l-0.33594-1.3789c-0.036391-0.1941-0.14312-0.49597-0.41016-0.71875-0.26703-0.22278-0.58777-0.27539-0.79102-0.27539h-1.168zm0 1h1.168c0.13163 0 0.19354 0.053711 0.2168 0.17773l0.46484 1.916c0.50333 0.12403 0.96054 0.33177 1.3477 0.54883l1.6582-1.0156c0.11612-0.062021 0.20002-0.053962 0.29297 0.039062l0.82031 0.80664c0.09295 0.085272 0.093127 0.17858 0.023437 0.28711l-1.0215 1.6582c0.18581 0.34884 0.41895 0.83021 0.53516 1.3496l1.9043 0.44922c0.12387 0.031011 0.16992 0.085074 0.16992 0.22461v1.1484c0 0.13177-0.0538 0.20128-0.16992 0.2168l-1.9121 0.45703c-0.11621 0.48836-0.32615 0.96187-0.54297 1.3262l1.0293 1.666c0.06194 0.10848 0.0617 0.19401-0.03125 0.2793l-0.8125 0.82227c-0.09295 0.09305-0.18649 0.099115-0.28711 0.037109l-1.6641-1.0293c-0.38712 0.24034-0.8288 0.43254-1.3398 0.55664l-0.46484 1.9082c-0.023259 0.11625-0.085174 0.16992-0.2168 0.16992h-1.168c-0.13163 0-0.20131-0.053671-0.2168-0.16992l-0.46484-1.9082c-0.48783-0.11633-0.96046-0.3163-1.3398-0.55664l-1.6719 1.0293c-0.10067 0.062-0.19418 0.055941-0.28711-0.037109l-0.8125-0.81445c-0.092922-0.08529-0.093204-0.17856-0.03125-0.2793l1.0293-1.6738c-0.21681-0.37202-0.41901-0.83778-0.53516-1.3262l-1.9121-0.45703c-0.11616-0.015523-0.17773-0.085029-0.17773-0.2168v-1.1484c0-0.13953 0.053832-0.19359 0.17773-0.22461l1.9062-0.44922c0.11615-0.51938 0.33963-1.0008 0.5332-1.3496l-1.0293-1.6582c-0.061954-0.10853-0.06174-0.20191 0.023438-0.29492l0.82031-0.80664c0.092921-0.085272 0.17877-0.10102 0.29492-0.03125l1.6562 1.0156c0.34846-0.21705 0.86771-0.43261 1.3633-0.55664l0.45703-1.9082c0.015488-0.11627 0.085167-0.17773 0.2168-0.17773z" color="#000000" fill="#363636" stroke-linecap="round" stroke-linejoin="round" style="-inkscape-stroke:none"/>
</svg>
