<svg width="16" height="16" version="1.1" xmlns="http://www.w3.org/2000/svg">
 <path d="m7.2533 16h1.4933c0.61058 0 1.0888-0.38286 1.2359-0.97188l0.2942-1.2886 0.19125-0.07364 1.1256 0.69944c0.51492 0.32404 1.1255 0.23566 1.5595-0.1988l1.0299-1.0308c0.44143-0.44183 0.51491-1.0456 0.19125-1.5536l-0.6988-1.1266 0.07357-0.17668 1.2873-0.30184c0.5812-0.14728 0.96371-0.62589 0.96371-1.237v-1.4505c0-0.61114-0.37514-1.0897-0.96371-1.237l-1.28-0.30925-0.07349-0.19144 0.6988-1.1192c0.32366-0.50805 0.25009-1.1118-0.19125-1.561l-1.0299-1.0308c-0.42661-0.43442-1.0372-0.51541-1.5522-0.1988l-1.1255 0.69213-0.20598-0.073631-0.2942-1.2959c-0.14714-0.58905-0.62531-0.96456-1.2359-0.96456h-1.4933c-0.61794 0-1.0961 0.37552-1.2359 0.96456l-0.29425 1.2959-0.20597 0.073631-1.1255-0.69213c-0.5223-0.31661-1.1255-0.23562-1.5522 0.1988l-1.0372 1.0308c-0.43402 0.44915-0.51494 1.0529-0.19127 1.561l0.69886 1.1192-0.073563 0.19144-1.2726 0.30925c-0.58851 0.14727-0.96368 0.62586-0.96368 1.237v1.4505c0 0.61114 0.38253 1.0898 0.96368 1.237l1.2874 0.30184 0.066206 0.17668-0.69885 1.1266c-0.32367 0.50802-0.24276 1.1118 0.19127 1.5536l1.0372 1.0308c0.42666 0.43446 1.0372 0.52284 1.5522 0.1988l1.1255-0.69944 0.19862 0.07364 0.29425 1.2886c0.13978 0.58903 0.61793 0.97188 1.2359 0.97188zm0.19126-1.3548c-0.12505 0-0.19126-0.05152-0.20597-0.16194l-0.44138-1.8113c-0.46345-0.1105-0.91218-0.30193-1.2726-0.53022l-1.589 0.97934c-0.095634 0.05889-0.18391 0.05152-0.27219-0.03686l-0.77241-0.77308c-0.088277-0.08101-0.088277-0.16939-0.02942-0.26507l0.97839-1.5905c-0.20597-0.35336-0.39724-0.7952-0.50758-1.2591l-1.817-0.43438c-0.11035-0.014744-0.1692-0.081011-0.1692-0.20617v-1.0898c0-0.13253 0.051491-0.18407 0.1692-0.21353l1.8097-0.42705c0.11034-0.49333 0.32368-0.94984 0.50758-1.2812l-0.97839-1.5757c-0.058857-0.10309-0.058857-0.19144 0.022063-0.27979l0.77977-0.76577c0.088277-0.080995 0.1692-0.095714 0.27955-0.029447l1.5743 0.96456c0.33104-0.20616 0.8239-0.41233 1.2947-0.53014l0.43403-1.8113c0.014714-0.11044 0.08092-0.16935 0.20597-0.16935h1.1108c0.12505 0 0.18389 0.051547 0.20598 0.16935l0.44134 1.8187c0.47817 0.11781 0.91223 0.31661 1.28 0.52278l1.5743-0.96456c0.11032-0.058911 0.19125-0.051547 0.27955 0.036811l0.77974 0.76576c0.0883 0.080995 0.0883 0.16935 0.0221 0.27244l-0.97107 1.5757c0.17652 0.33134 0.39723 0.78785 0.50763 1.2812l1.8096 0.42705c0.11768 0.029455 0.16179 0.080994 0.16179 0.21353v1.0898c0 0.12516-0.05147 0.19143-0.16179 0.20617l-1.817 0.43438c-0.1104 0.46387-0.30902 0.91307-0.515 1.2591l0.97844 1.5831c0.05884 0.10304 0.05884 0.18406-0.02946 0.26507l-0.77237 0.78045c-0.0883 0.08838-0.1766 0.09576-0.27219 0.03686l-1.5817-0.97933c-0.36777 0.22829-0.7871 0.41234-1.2726 0.53022l-0.44134 1.8113c-0.022096 0.11042-0.080936 0.16194-0.20598 0.16194zm0.55908-3.8509c1.5301 0 2.7881-1.2591 2.7881-2.7979 0-1.5242-1.258-2.7833-2.7881-2.7833-1.5375 0-2.8028 1.2591-2.8028 2.7833 0 1.5389 1.2653 2.7979 2.8028 2.7979zm0-1.2738c-0.83862 0-1.5228-0.68478-1.5228-1.5241 0-0.82467 0.6915-1.5094 1.5228-1.5094 0.81656 0 1.5007 0.68477 1.5007 1.5094 0 0.83206-0.68415 1.5241-1.5007 1.5241z" fill="#363636" stroke-width=".83737"/>
</svg>
