<svg width="16" height="16" version="1.1" viewBox="0 0 16 16" xmlns="http://www.w3.org/2000/svg">
 <g fill="#363636">
  <g fill="#363636">
   <g fill="#363636">
    <path d="m12.471 1c-0.03743-2.7279e-4 -0.07477 0.00366-0.11133 0.011719l-1.3555 0.30859c-0.02393 0.00543-0.04743 0.012607-0.07031 0.021484l-1.4492 0.5625c-0.015284 0.00577-0.030276 0.012291-0.044922 0.019531l-1.4219 0.7207c-0.014697 0.0071063-0.029037 0.014928-0.042969 0.023437l-1.2734 0.81445c-0.016967 0.010728-0.033272 0.022468-0.048828 0.035156l-1.0098 0.83203c-0.022637 0.018948-0.043552 0.039863-0.0625 0.0625l-0.10547 0.125-0.76953-0.083984c-0.060993-0.0059662-0.12256-6.699e-4 -0.18164 0.015625l-1.3379 0.35547c-0.033015 0.00843-0.065083 0.020207-0.095703 0.035156l-1.2813 0.64648c-0.040379 0.020246-0.077829 0.045869-0.11133 0.076172l-0.8418 0.76758c-0.10775 0.097675-0.16765 0.23742-0.16406 0.38281l0.019531 0.67383c0.004385 0.15289 0.0785 0.29536 0.20117 0.38672l0.69141 0.51563c0.032051 0.02358 0.066802 0.043251 0.10352 0.058594l0.9668 0.4082 0.57422 0.26172-0.048828 0.7832c-0.00281 0.042478-1.866e-4 0.08514 0.00781 0.12695l0.00391 0.017578-0.125 0.050781c-0.066807 0.02781-0.12678 0.06979-0.17578 0.12305l-0.33789 0.36523c-0.00818 0.0095-0.015994 0.01924-0.023437 0.0293l-0.35547 0.44922c-0.00968 0.01194-0.018805 0.02433-0.027344 0.03711l-0.32812 0.50586c-0.013282 0.02059-0.025032 0.04213-0.035156 0.06445l-0.24414 0.5332c-0.00749 0.0172-0.014015 0.0348-0.019531 0.05273l-0.13086 0.40234c-0.00538 0.01603-0.00994 0.03233-0.013672 0.04883l-0.09375 0.42969c-0.00764 0.03464-0.011565 0.07-0.011719 0.10547v0.40234c-1.705e-4 0.07796 0.017888 0.15487 0.052734 0.22461l0.16016 0.31641c0.045917 0.09303 0.11963 0.16948 0.21094 0.21875l0.28125 0.14844c0.064532 0.0346 0.13587 0.0546 0.20898 0.05859l0.36523 0.01953c0.035915 0.0019 0.071931-7.6e-5 0.10742-0.0059l0.39258-0.06641c0.00654-0.0012 0.013047-0.0025 0.019531-0.0039l0.36523-0.07422c0.02256-5e-3 0.044748-0.01149 0.066406-0.01953l0.62695-0.22456c0.0256-9e-3 0.050421-0.02014 0.074219-0.0332l0.60742-0.33594c0.016153-0.0089 0.031802-0.01867 0.046875-0.0293l0.54297-0.38281c0.013534-0.0098 0.026571-0.02019 0.039063-0.03125l0.41992-0.36523c0.077746-0.06703 0.13298-0.15636 0.1582-0.25586l0.015625-0.06445 0.77165-0.0684 0.027177 0.07621 0.13672 0.31445 0.39062 0.97656c0.014729 0.03662 0.033741 0.07137 0.056641 0.10352l0.50391 0.71094c0.091386 0.12776 0.2375 0.20516 0.39453 0.20898l0.66406 0.019531c0.14021 0.0038 0.27557-0.05149 0.37305-0.15234l0.78711-0.81445c0.03266-0.03433 0.06029-0.07313 0.08203-0.11523l0.67383-1.2812c0.01562-0.03054 0.02806-0.06261 0.03711-0.0957l0.375-1.3184c0.01648-0.05771 0.02243-0.11791 0.01758-0.17773l-0.04492-0.54102 0.14258-0.11328c0.02036-0.01733 0.03931-0.03628 0.05664-0.05664l0.87109-0.97266c0.01106-0.012491 0.02149-0.025529 0.03125-0.039063l0.87891-1.2051c0.0084-0.012021 0.01617-0.024402 0.02344-0.037109l0.81445-1.3457c0.0085-0.013932 0.01633-0.028272 0.02344-0.042969l0.6543-1.375c0.01003-0.021505 0.01851-0.043696 0.02539-0.066406l0.40234-1.291c0.01196-0.038697 0.01918-0.078703 0.02149-0.11914l0.06641-1.1035c0.0045-0.082726-0.0116-0.16528-0.04688-0.24023l-0.37305-0.80469c-0.047989-0.10364-0.13001-0.18773-0.23242-0.23828l-0.81445-0.40039c-0.068555-0.034258-0.14407-0.052301-0.2207-0.052734zm0.05664 1h0.97656l0.55078 0.27148 0.24805 0.53125-0.054686 0.91602-0.37305 1.1992-0.62891 1.3203-0.79102 1.3066-0.85156 1.1699-0.82617 0.92383-0.31445 0.25586c-0.12787 0.10367-0.19653 0.26363-0.18359 0.42773l0.05859 0.71484-0.33593 1.1816-0.61523 1.1719-0.58398 0.60352-0.19336-0.0059-0.32617-0.45898-0.37109-0.92578c-0.00189-0.0046-0.00384-0.0091-0.00586-0.01367l-0.30859-0.7109c-0.096994-0.22481-0.3425-0.34633-0.58008-0.28711l-0.099609 0.02539-0.91406 0.04297-0.75391-0.16406-0.55078-0.35742-0.34961-0.56641-0.14844-0.75391 0.056641-0.89844 0.0078125-0.023438c0.078856-0.23591-0.027675-0.49392-0.25-0.60547l-0.076172-0.037109c-0.00516-0.00269-0.010372-0.0053-0.015625-0.00781l-0.8418-0.38282c-0.00388-2e-3 -0.00779-0.00396-0.011719-0.00586l-0.91797-0.38867-0.44922-0.33398-0.0058594-0.20117 0.62109-0.56641 1.1738-0.58984 1.1992-0.31836 0.62891 0.066406-0.09375-0.13867c0.18416 0.27637 0.58159 0.29974 0.79688 0.046875l0.28906-0.33984 0.95312-0.78516 1.2266-0.7832 1.377-0.69922 1.3926-0.53906zm-1.0859 0.71094-0.54102 0.10352c-0.06389 0.011549-0.12492 0.035431-0.17969 0.070312l-0.47656 0.30859c-0.05437 0.034897-0.10146 0.079999-0.13867 0.13281l-0.32617 0.46875c-0.040724 0.057919-0.068684 0.12383-0.08203 0.19336l-0.10352 0.54297c-0.010613 0.05877-0.010613 0.11896 0 0.17773l0.091797 0.54297c0.012003 0.066213 0.037246 0.12932 0.074219 0.18555l0.30859 0.47656c0.03584 0.05544 0.08231 0.10323 0.13672 0.14062l0.47656 0.32812c0.05708 0.038841 0.12159 0.065442 0.18945 0.078125l0.54297 0.10352c0.05865 0.011259 0.11885 0.011919 0.17773 0.00195l0.54297-0.09375c0.06607-0.011406 0.12917-0.035982 0.18555-0.072266l0.47852-0.30859c0.05742-0.037143 0.10661-0.085669 0.14453-0.14258l0.31641-0.47852c0.03579-0.053287 0.06099-0.11297 0.07422-0.17578l0.11328-0.54102c0.01284-0.064471 0.01284-0.13084 0-0.19531l-0.10156-0.54297c-0.01239-0.063354-0.03693-0.12371-0.072265-0.17773l-0.30859-0.47656c-0.036211-0.056332-0.083367-0.10482-0.13867-0.14258l-0.4668-0.31836c-0.05431-0.036946-0.11537-0.06283-0.17969-0.076172l-0.54297-0.11133c-0.06434-0.013482-0.13071-0.014145-0.19531-0.00195zm0.08984 1 0.34766 0.072266 0.30078 0.20508 0.20117 0.31055 0.06641 0.34961-0.07227 0.34961-0.20703 0.31055-0.30469 0.19531-0.35156 0.060547-0.35156-0.066406-0.30664-0.21094-0.19922-0.30664-0.06055-0.35156 0.06641-0.34961 0.21094-0.30078 0.31055-0.20117zm-8.2832 5.3164-0.068359-0.035156zm0.36328 2.2539 0.29688 0.48047c0.038658 0.06266 0.090678 0.11602 0.15234 0.15625l0.5625 0.36523-0.64453 0.16406-0.42773-0.12695-0.11914-0.41211zm-1.0781 1.1172 0.13281 0.46289c0.046905 0.16414 0.1743 0.29301 0.33789 0.3418l0.46094 0.13477-0.24805 0.08984-0.32031 0.06641-0.33008 0.05469-0.19922-0.0098-0.042969-0.02344-0.035156-0.06836v-0.23047l0.078125-0.35352 0.11328-0.35156z" color="#000000" fill="#363636" stroke-linecap="round" stroke-linejoin="round" style="-inkscape-stroke:none"/>
   </g>
  </g>
 </g>
</svg>
