<svg width="16" height="16" version="1.1" xmlns="http://www.w3.org/2000/svg">
 <path d="m3.5 0a3.5 3.5 0 0 0-3.5 3.5 3.5 3.5 0 0 0 3.5 3.5 3.5 3.5 0 0 0 3.5-3.5 3.5 3.5 0 0 0-3.5-3.5zm0 1a2.5 2.5 0 0 1 2.5 2.5 2.5 2.5 0 0 1-2.5 2.5 2.5 2.5 0 0 1-2.5-2.5 2.5 2.5 0 0 1 2.5-2.5z" fill="#363636" stop-color="#000000" stroke-width="0"/>
 <path d="m12.5 0a3.5 3.5 0 0 0-3.5 3.5 3.5 3.5 0 0 0 3.5 3.5 3.5 3.5 0 0 0 3.5-3.5 3.5 3.5 0 0 0-3.5-3.5zm0 1a2.5 2.5 0 0 1 2.5 2.5 2.5 2.5 0 0 1-2.5 2.5 2.5 2.5 0 0 1-2.5-2.5 2.5 2.5 0 0 1 2.5-2.5z" fill="#363636" stop-color="#000000" stroke-width="0"/>
 <path d="m3.5 9a3.5 3.5 0 0 0-3.5 3.5 3.5 3.5 0 0 0 3.5 3.5 3.5 3.5 0 0 0 3.5-3.5 3.5 3.5 0 0 0-3.5-3.5zm0 1a2.5 2.5 0 0 1 2.5 2.5 2.5 2.5 0 0 1-2.5 2.5 2.5 2.5 0 0 1-2.5-2.5 2.5 2.5 0 0 1 2.5-2.5z" fill="#363636" stop-color="#000000" stroke-width="0"/>
 <path d="m12.5 9a3.5 3.5 0 0 0-3.5 3.5 3.5 3.5 0 0 0 3.5 3.5 3.5 3.5 0 0 0 3.5-3.5 3.5 3.5 0 0 0-3.5-3.5zm0 1a2.5 2.5 0 0 1 2.5 2.5 2.5 2.5 0 0 1-2.5 2.5 2.5 2.5 0 0 1-2.5-2.5 2.5 2.5 0 0 1 2.5-2.5z" fill="#363636" stop-color="#000000" stroke-width="0"/>
 <rect x="6" y="3" width="4" height="1" fill="#363636" stop-color="#000000" stroke-width="0"/>
 <rect x="3" y="6" width="1" height="4" fill="#363636" stop-color="#000000" stroke-width="0"/>
 <rect x="12" y="6" width="1" height="4" fill="#363636" stop-color="#000000" stroke-width="0"/>
 <rect x="6" y="12" width="4" height="1" fill="#363636" stop-color="#000000" stroke-width="0"/>
 <circle cx="3.5" cy="3.5" r="1.5" fill="#363636" opacity=".3" stop-color="#000000" stroke-width="0"/>
 <circle cx="12.5" cy="3.5" r="1.5" fill="#363636" opacity=".3" stop-color="#000000" stroke-width="0"/>
 <circle cx="3.5" cy="12.5" r="1.5" fill="#363636" opacity=".3" stop-color="#000000" stroke-width="0"/>
 <circle cx="12.5" cy="12.5" r="1.5" fill="#363636" opacity=".3" stop-color="#000000" stroke-width="0"/>
</svg>
