<svg width="16" height="16" version="1.1" viewBox="0 0 16 16" xmlns="http://www.w3.org/2000/svg">
 <g transform="translate(-30.238 8.6488)">
  <path d="m36.738-6.6488c-2.493 0-4.5 2.007-4.5 4.5v0.033203c0.010027-0.0057761 0.021168-0.0099293 0.03125-0.015625-1.2133 0.68563-2.0312 1.984-2.0312 3.4824 0 2.216 1.784 4 4 4h8c2.216 0 4-1.784 4-4 0-2.216-1.784-4-4-4h-1.0273c-0.24742-2.2558-2.1489-4-4.4727-4zm0 1c1.7693 0 3.2218 1.2993 3.4629 3 0.023119 0.16311 0.037109 0.3303 0.037109 0.5v0.5h2c1.662 0 3 1.338 3 3 0 1.662-1.338 3-3 3h-8c-1.662 0-3-1.338-3-3 0-1.3105 0.83335-2.4157 2-2.8262v-0.67383c0-0.12855 0.006153-0.25598 0.019531-0.38086-0.090774 0.022709-0.17942 0.049358-0.26758 0.078125 0.087949-0.028888 0.17701-0.055468 0.26758-0.078125 0.18841-1.7588 1.67-3.1191 3.4805-3.1191zm-4.2031 3.3809c-0.038032 0.017863-0.075923 0.035674-0.11328 0.054688 0.037339-0.019076 0.075272-0.036732 0.11328-0.054688z" fill="#363636" stop-color="#000000"/>
 </g>
</svg>
