<svg width="16" height="16" version="1.1" viewBox="0 0 16 16" xmlns="http://www.w3.org/2000/svg">
 <path d="m7.9648 0c-0.33344 6.2945e-4 -0.62936 0.16415-0.8457 0.37891s-0.37896 0.48551-0.51172 0.79687c-0.26552 0.62273-0.41036 1.4203-0.41016 2.2988 1.88e-5 0.080572 0.034654 0.13181 0.037109 0.21094-0.085626-0.09476-0.10623-0.19412-0.19922-0.28711l-0.00195-0.00391c-0.91121-0.91034-1.9131-1.5467-2.8574-1.5312-0.30731 0.0050414-0.62151 0.10302-0.84766 0.33008-0.23532 0.23624-0.32897 0.56236-0.33008 0.86719-0.0011118 0.30483 0.074874 0.60978 0.20117 0.92383 0.2526 0.62809 0.71454 1.2949 1.3359 1.916 0.11984 0.11979 0.2465 0.15033 0.36914 0.25781-0.15867-0.010134-0.26662-0.078126-0.43164-0.078125a0.50005 0.50005 0 0 0-0.00391 0c-0.87852 4.336e-4 -1.6749 0.14798-2.2969 0.41406-0.31098 0.13304-0.58071 0.29493-0.79492 0.51172-0.21421 0.21679-0.37759 0.51228-0.37695 0.8457 6.7777e-4 0.33343 0.16415 0.62938 0.37891 0.8457s0.48552 0.37701 0.79687 0.50977c0.62272 0.2655 1.4203 0.41231 2.2988 0.41211 0.18144-4.22e-5 0.30093-0.073666 0.47461-0.085938-0.14995 0.13038-0.30725 0.21148-0.45312 0.35742-0.62108 0.62138-1.082 1.29-1.334 1.918-0.12598 0.314-0.20276 0.61904-0.20117 0.92383 0.00158 0.30479 0.096108 0.62961 0.33203 0.86523 0.23593 0.2356 0.56043 0.32873 0.86523 0.33008 0.3048 0.0013 0.61177-0.07504 0.92578-0.20117 0.62656-0.25168 1.2921-0.71106 1.9121-1.3301l0.00195-2e-3a0.50005 0.50005 0 0 0 0.00391-0.0039c0.13802-0.13816 0.17528-0.28404 0.29688-0.42578-0.017188 0.20462-0.10162 0.34867-0.10156 0.56445 2.144e-4 0.87858 0.1462 1.6746 0.41211 2.2969 0.13295 0.31111 0.29507 0.58248 0.51172 0.79688 0.21665 0.21443 0.51226 0.37724 0.8457 0.37699 0.33343-2.39e-4 0.62923-0.16432 0.8457-0.37891s0.37887-0.48563 0.51172-0.79688c0.26569-0.62249 0.41211-1.4183 0.41211-2.2969v-0.0039c-1.269e-4 -0.2629-0.097468-0.4417-0.12305-0.6875 0.13149 0.15535 0.17303 0.31568 0.32422 0.4668 0.62138 0.62108 1.288 1.082 1.916 1.334 0.314 0.12598 0.61904 0.20276 0.92383 0.20117 0.30479-0.0016 0.62961-0.09611 0.86523-0.33203 0.23564-0.23592 0.32872-0.56042 0.33008-0.86523 0.0014-0.30481-0.07504-0.61176-0.20117-0.92578-0.25227-0.62805-0.71274-1.2948-1.334-1.916l-2e-3 -0.00195c-0.10304-0.10299-0.21508-0.15652-0.32027-0.25196 0.15244 0.00929 0.25582 0.074257 0.41406 0.074219 0.87854-2.145e-4 1.6747-0.14622 2.2969-0.41211 0.31111-0.13294 0.58248-0.29509 0.79688-0.51172s0.37715-0.51227 0.37695-0.8457c-1.91e-4 -0.33345-0.16433-0.6292-0.37891-0.8457-0.21458-0.2165-0.48563-0.37886-0.79688-0.51172-0.6225-0.26572-1.4183-0.41211-2.2969-0.41211a0.50005 0.50005 0 0 0-0.0039 0c-0.12994 6.23e-5 -0.21377 0.054179-0.33984 0.060547 0.07052-0.065354 0.14535-0.078994 0.21484-0.14844l2e-3 -0.00195h2e-3a0.50005 0.50005 0 0 0 2e-3 -0.00195c0.6208-0.62154 1.0802-1.2881 1.3319-1.916 0.12583-0.31398 0.203-0.62101 0.20117-0.92578-0.001826-0.30477-0.095787-0.62993-0.33203-0.86523-0.22703-0.22611-0.54423-0.32381-0.85156-0.32812-0.94457-0.013315-1.9449 0.62608-2.8555 1.5371-0.10378 0.10383-0.12808 0.21432-0.22266 0.32031 0.0062289-0.12533 0.060548-0.20876 0.060547-0.33789v-0.00195a0.50005 0.50005 0 0 0 0-0.00195c-4.234e-4 -0.87855-0.14798-1.6749-0.41406-2.2969-0.13304-0.31099-0.29493-0.5807-0.51172-0.79492-0.21679-0.21422-0.51227-0.37759-0.8457-0.37695zm0.00195 1c0.017053-3.261e-5 0.053598 0.00189 0.14062 0.087891 0.087027 0.085996 0.2 0.25207 0.29688 0.47852 0.19375 0.45289 0.33166 1.1411 0.33203 1.9043v0.00195c7.8e-6 0.7632-0.13841 1.4526-0.33203 1.9063-0.096807 0.2268-0.20773 0.39208-0.29492 0.47852-0.087197 0.086435-0.12553 0.089831-0.14258 0.089844-0.017054 1.27e-5 -0.055468-0.00364-0.14258-0.089844-0.08711-0.086203-0.19808-0.24994-0.29492-0.47656-0.19369-0.45325-0.33185-1.143-0.33203-1.9062-1.782e-4 -0.76322 0.13652-1.4523 0.33008-1.9062 0.096778-0.22697 0.2096-0.39188 0.29688-0.47852 0.087274-0.086634 0.12552-0.089812 0.14258-0.089844zm-4.7734 1.8633c0.37593-0.00616 1.3429 0.4491 2.1328 1.2383l0.00195 0.00391c0.53967 0.53966 0.92944 1.1244 1.1133 1.582 0.091921 0.22883 0.1314 0.4241 0.13086 0.54688-5.398e-4 0.12277-0.027013 0.152-0.039062 0.16406-0.01205 0.012068-0.039561 0.036467-0.16211 0.037109-0.12255 6.42e-4 -0.31815-0.037139-0.54688-0.12891-0.45746-0.18354-1.0422-0.57372-1.582-1.1133-0.53981-0.53955-0.9311-1.1242-1.1152-1.582-0.092068-0.22893-0.12935-0.42389-0.12891-0.54688 4.485e-4 -0.12298 0.025073-0.15198 0.037109-0.16406 0.00913-0.00917 0.03678-0.035118 0.1582-0.037109zm9.5469 0.089844c0.12205 0.00171 0.14904 0.027978 0.1582 0.037109 0.01208 0.012035 0.03833 0.039768 0.03906 0.16211 7.33e-4 0.12234-0.03729 0.31825-0.12891 0.54688-0.18324 0.45725-0.57191 1.0421-1.1113 1.582a0.50005 0.50005 0 0 0-0.0039 0.00195c-0.53967 0.53967-1.1244 0.92944-1.582 1.1133-0.22883 0.091921-0.4241 0.12945-0.54687 0.12891-0.12277-5.399e-4 -0.152-0.025059-0.16406-0.037109-0.012068-0.01205-0.036468-0.03956-0.037109-0.16211-6.419e-4 -0.12255 0.037138-0.31815 0.12891-0.54688 0.18354-0.45746 0.57372-1.0422 1.1133-1.582 0.7894-0.78978 1.7569-1.2495 2.1348-1.2441zm-9.2695 4.127a0.50005 0.50005 0 0 0 0.00195 0c0.76323-4.6e-6 1.4526 0.13841 1.9062 0.33203 0.2268 0.096812 0.3921 0.20773 0.47852 0.29492 0.08642 0.087193 0.089834 0.12552 0.089844 0.14258 1.02e-5 0.017053-0.00363 0.055465-0.089844 0.14258-0.086214 0.087113-0.24993 0.19808-0.47656 0.29492-0.45326 0.19368-1.143 0.33185-1.9062 0.33203-0.76319 1.783e-4 -1.4523-0.13849-1.9062-0.33203-0.22697-0.096772-0.39187-0.20764-0.47852-0.29492-0.086648-0.087278-0.089809-0.12552-0.089844-0.14258-3.261e-5 -0.017053 0.0019-0.0536 0.087891-0.14062 0.085992-0.087025 0.25208-0.2 0.47852-0.29688 0.45287-0.19374 1.1411-0.33165 1.9043-0.33203zm9.0527 0a0.50005 0.50005 0 0 0 0.0039 0c0.76323-4.4e-6 1.4507 0.13841 1.9043 0.33203 0.2268 0.096812 0.3921 0.20773 0.47852 0.29492 0.08642 0.087193 0.08983 0.12552 0.08984 0.14258 1e-5 0.017053-0.0017 0.055467-0.08789 0.14258-0.08621 0.087111-0.2519 0.19808-0.47852 0.29492-0.45324 0.19368-1.1431 0.33184-1.9062 0.33203-0.7632 1.87e-4 -1.4523-0.13848-1.9062-0.33203-0.22698-0.096773-0.39186-0.20764-0.47852-0.29492-0.08665-0.08728-0.08981-0.12552-0.08984-0.14258-3.2e-5 -0.017053 0.0038-0.053597 0.08984-0.14062 0.086-0.087028 0.25012-0.2 0.47656-0.29688 0.45289-0.19375 1.1411-0.33167 1.9043-0.33203zm-4.5566 0.31836c0.33857-2.907e-4 0.60116 0.263 0.60156 0.60156-1.6e-6 0.33857-0.26299 0.60146-0.60156 0.60156-0.33857 9.57e-5 -0.60332-0.26299-0.60352-0.60156-1.931e-4 -0.33857 0.26494-0.60127 0.60352-0.60156zm1.627 1.8652c0.37584-0.00621 1.3448 0.45103 2.1348 1.2402l2e-3 2e-3c0.53967 0.53968 0.92945 1.1244 1.1133 1.582 0.09191 0.22882 0.12945 0.42607 0.12891 0.54883-5.46e-4 0.12276-0.02506 0.15004-0.03711 0.16211-0.01205 0.01207-0.04151 0.03843-0.16406 0.03906-0.12255 6.37e-4 -0.31815-0.03714-0.54688-0.12891-0.45749-0.18358-1.0403-0.5738-1.5801-1.1133-0.53978-0.53953-0.9311-1.1242-1.1152-1.582-0.092067-0.22892-0.12935-0.42389-0.12891-0.54688 4.439e-4 -0.12299 0.025076-0.15393 0.037109-0.16602 0.00913-0.00917 0.034861-0.03511 0.15625-0.037109zm-3.2559 0.091797c0.12205 0.00171 0.15099 0.027978 0.16016 0.037109 0.012084 0.012035 0.036372 0.039778 0.037109 0.16211 7.377e-4 0.12233-0.037291 0.31826-0.12891 0.54688-0.18271 0.45595-0.57037 1.0395-1.1074 1.5781l-0.00195 2e-3c-7.585e-4 7.6e-4 -0.00119 0.0012-0.00195 2e-3a0.50005 0.50005 0 0 0-0.00195 2e-3c-0.53967 0.5395-1.1244 0.92931-1.582 1.1131-0.22882 0.091914-0.42606 0.12945-0.54883 0.12891-0.12277-5.41e-4 -0.15004-0.02506-0.16211-0.037109-0.012066-0.01205-0.038425-0.041508-0.039062-0.16406-6.373e-4 -0.12256 0.037139-0.31815 0.12891-0.54688 0.18353-0.45744 0.57375-1.0422 1.1133-1.582 0.78937-0.78974 1.7569-1.2475 2.1348-1.2422zm1.6289 0.69727c0.017053-3.2e-5 0.053598 0.0038 0.14062 0.08984 0.087027 0.086 0.2 0.25012 0.29688 0.47656 0.19375 0.45289 0.33166 1.1411 0.33203 1.9043v0.0039c4.7e-6 0.7632-0.13842 1.4507-0.33203 1.9043-0.096807 0.2268-0.20773 0.39208-0.29492 0.47852-0.087197 0.08643-0.12553 0.08983-0.14258 0.08984-0.017054 1.3e-5 -0.055471-0.0017-0.14258-0.08789-0.087107-0.0862-0.19808-0.2519-0.29492-0.47852-0.19369-0.45324-0.33184-1.143-0.33203-1.9062-1.869e-4 -0.76323 0.13652-1.4523 0.33008-1.9062 0.096779-0.22698 0.2096-0.39188 0.29688-0.47852 0.087277-0.08664 0.12552-0.08981 0.14258-0.08984z" color="#000000" fill="#363636" stroke-linecap="round" stroke-linejoin="round" style="-inkscape-stroke:none"/>
</svg>
