<svg height="16" width="16" xmlns="http://www.w3.org/2000/svg"><g fill="#363636"><path d="M3.994 0C2.736.015 1.815-.03 1.063.385a1.88 1.88 0 00-.838.998C.06 1.822 0 2.343 0 3v10c0 .658.06 1.179.225 1.617.164.439.461.79.838.998.752.416 1.673.37 2.931.385H12.006c1.258-.014 2.179.03 2.932-.385a1.88 1.88 0 00.838-.998c.164-.438.224-.96.224-1.617V3c0-.658-.06-1.178-.225-1.617a1.88 1.88 0 00-.837-.998c-.753-.416-1.674-.37-2.932-.385H3.998zM4 1h4v14H4c-1.259-.015-2.09-.06-2.455-.262-.184-.1-.287-.212-.385-.472C1.062 14.006 1 13.592 1 13V3c0-.592.062-1.006.16-1.266s.201-.371.385-.472C1.91 1.06 2.74 1.015 4 1zm6 5h4v1h-4zm0 2h4v1h-4z" style="line-height:normal;font-variant-ligatures:normal;font-variant-position:normal;font-variant-caps:normal;font-variant-numeric:normal;font-variant-alternates:normal;font-feature-settings:normal;text-indent:0;text-align:start;text-decoration-line:none;text-decoration-style:solid;text-decoration-color:#000;text-transform:none;text-orientation:mixed;white-space:normal;shape-padding:0;isolation:auto;mix-blend-mode:normal;solid-color:#000;solid-opacity:1;marker:none" color="#000" font-weight="400" font-family="sans-serif" overflow="visible"/><path style="marker:none" color="#bebebe" overflow="visible" d="M3 5h3v1H3z"/><path style="marker:none" color="#bebebe" overflow="visible" d="M5 4v3H4V4zM3 10h3v1H3z"/></g></svg>