<svg width="16" height="16" version="1.1" xmlns="http://www.w3.org/2000/svg">
 <path id="XMLID_9_" d="m8 0a8 8 0 0 0-8 8 8 8 0 0 0 0.27539 2.0254l-0.023438-0.025391c0.88444 3.4587 4.0182 6.0137 7.748 6.0137 3.638 0 6.7056-2.4315 7.6758-5.7598 0.1049-0.35988 0.18639-0.73043 0.24024-1.1094 2.83e-4 -0.0019961 0.001671-0.0038627 0.001953-0.0058593a8 8 0 0 0 0-0.0097657c0.050055-0.35729 0.078745-0.72098 0.080078-1.0918a8 8 0 0 0 0.001953-0.037109 8 8 0 0 0-8-8zm0 1a7 7 0 0 1 7 7 7 7 0 0 1-0.26367 1.8359l-0.3125-0.19727-3.1543-3.5117-4.0352 4.5957 1.9473-3.8984-0.97266-1.7402-5.7344 6.5977-0.28711 0.19141a7 7 0 0 1-1.1875-3.873 7 7 0 0 1 7-7z" fill="#363636" stroke-width=".69584"/>
</svg>
