<svg width="16" height="16" version="1.1" viewBox="0 0 16 16" xmlns="http://www.w3.org/2000/svg">
 <path d="m8 1c-3.9054 0-7 2.9213-7 6.8047 0 2.0314 0.83984 3.814 2.207 5.0371h0.00195c0.00707 0.0063 0.0059 0.0094 0.00586 0.0078v2e-3l0.037109 1.1602c0.02181 0.7055 0.78368 1.1867 1.4297 0.90234l1.291-0.57035h0.00195c-3.131e-4 1.4e-4 0.0066-0.0019 0.013672 0 0.63526 0.17387 1.3096 0.26758 2.0117 0.26758 3.9054-5e-6 7-2.9213 7-6.8047 0-3.8834-3.0945-6.8066-7-6.8066zm0 1c3.4167 0 6 2.4458 6 5.8066 0 3.3609-2.5832 5.8047-6 5.8047-0.61349 0-1.1995-0.08161-1.75-0.23242h-0.00195v-2e-3c-0.22368-0.05989-0.46358-0.04293-0.68164 0.05469l-1.2871 0.56641c-0.028729 0.01265-0.028327 0.0138-0.029297-0.01758l-0.035159-1.1523c-0.0065357-0.28757-0.13762-0.55023-0.3418-0.73242h0.0019531c-1.1613-1.0389-1.875-2.5329-1.875-4.291 0-3.3609 2.5831-5.8047 6-5.8047z" fill="#363636"/>
 <path d="m11.893 5.7133c0.24741-0.023689 0.47168 0.25742 0.31243 0.51194l-2.0579 3.2605c-0.32714 0.51948-1.0282 0.64871-1.5191 0.28002l-1.6366-1.2269c-0.15006-0.11208-0.3562-0.11125-0.50535 0.00203l-2.2088 1.6761c-0.294 0.224-0.6788-0.1278-0.48105-0.44104l2.0558-3.262c0.32731-0.51931 1.0284-0.6483 1.5191-0.27951l1.6366 1.2264c0.14995 0.11223 0.35608 0.11161 0.50535-0.00152l2.2088-1.6766c0.05513-0.041999 0.11355-0.063905 0.17064-0.069372z" fill="#363636" stroke-width=".0175"/>
</svg>
