<svg width="16" height="16" version="1.1" xmlns="http://www.w3.org/2000/svg">
 <title>Gnome Symbolic Icon Theme</title>
 <path d="m3 2c-1.662 0-3 1.338-3 3v7c0 1.662 1.338 3 3 3h5 1 4c1.662 0 3-1.338 3-3v-3-1-3c0-1.662-1.338-3-3-3h-4-1-5zm0 1h5v5 1 5h-5c-1.108 0-2-0.892-2-2v-7c0-1.108 0.892-2 2-2zm6 0h4c1.108 0 2 0.892 2 2v3h-6v-5zm-5.8809 2.7578a0.60006 0.60006 0 0 0-0.16602 0.029297 0.60006 0.60006 0 0 0-0.25 1.0312l1.5625 1.5625-1.5625 1.5625a0.61872 0.61872 0 1 0 0.875 0.875l2-2a0.60006 0.60006 0 0 0 0-0.875l-2-2a0.60006 0.60006 0 0 0-0.45898-0.18555zm5.8809 3.2422h6v3c0 1.108-0.892 2-2 2h-4v-5zm-4 1v1h2v-1h-2z" enable-background="new" fill="#363636"/>
</svg>
