<svg width="16" height="16" version="1.1" xmlns="http://www.w3.org/2000/svg">
 <title>Gnome Symbolic Icon Theme</title>
 <g transform="translate(-323 125)" fill="#363636">
  <path d="m331-124.98c-0.26956 0-0.53953 0.1015-0.74609 0.30469l-6.9453 6.832c-0.20661 0.20325-0.30896 0.46922-0.3086 0.73437v0.25782c-4e-4 0.26517 0.10199 0.53111 0.3086 0.73437l6.9453 6.832c0.41311 0.4064 1.0791 0.4064 1.4922 0l6.9453-6.832c0.20663-0.20326 0.30894-0.4692 0.30859-0.73437v-0.25782c4e-4 -0.26515-0.10196-0.53112-0.30859-0.73437l-6.9453-6.832c-0.20657-0.20319-0.47653-0.30469-0.7461-0.30469zm-0.00195 0.98047 7 7-7 7-7-7 7-7z"/>
  <path d="m331-116.98v6.9799l6.9799-6.9799z" opacity=".35"/>
  <path d="m324-117h7v7z"/>
 </g>
</svg>
