<svg width="16" height="16" version="1" xmlns="http://www.w3.org/2000/svg">
 <path d="m7.1934 0c-0.45048 0-1.2519 1.3739-1.6758 2.1621 0.39982-0.087425 0.81226-0.14141 1.2363-0.15625 0.026857-0.045371 0.050522-0.089349 0.078125-0.13477 0.11263-0.18532 0.21763-0.31776 0.32812-0.47461 0.08889 0.14406 0.17112 0.25715 0.25977 0.42383 0.036225 0.068113 0.067096 0.13346 0.10156 0.20117a7 7 0 0 1 1.207 0.19531c-0.3555-0.7758-1.0762-2.2168-1.5352-2.2168zm-4.9902 1.041c-0.042479-1e-3 -0.077891 0.0050313-0.10352 0.019531-0.35195 0.20028-0.20945 3.0151-0.20117 3.1738 0.2957-0.31731 0.62027-0.6096 0.9707-0.86914-0.00501-0.15941-0.0074459-0.3486-0.0058594-0.60938 7.659e-4 -0.12594 0.01192-0.21432 0.015625-0.33594 0.14873 0.08263 0.27083 0.13926 0.42578 0.23242 0.11812 0.071019 0.23066 0.14211 0.34375 0.21289 0.34729-0.19221 0.71246-0.35672 1.0938-0.48828-0.73451-0.48131-2.0832-1.3252-2.5391-1.3359zm10.311 0.96289c-0.6043 0.016676-1.9935 0.32258-2.8496 0.52344a7 7 0 0 1 1.3359 0.72852c0.25553-0.052136 0.486-0.091189 0.72266-0.13281-0.02083 0.084743-0.025148 0.13997-0.048828 0.22656-0.032645 0.11936-0.067109 0.23456-0.10156 0.34961a7 7 0 0 1 0.79492 0.81055c0.25941-0.79077 0.70336-2.2859 0.4082-2.4727-0.04225-0.02675-0.13383-0.036732-0.26172-0.033203zm0.52539 2.9766c-0.11198 9.72e-5 -0.20788 0.0022387-0.30469 0.0039062a7 7 0 0 1 0.58203 1c0.062476 0.0010037 0.12245 7.3e-6 0.18555 0.0019531 0.06649 0.00205 0.10655 0.010273 0.17188 0.013672-0.062915 0.12655-0.12531 0.25034-0.1875 0.375a7 7 0 0 1 0.39648 1.3633c0.49384-0.87245 1.2154-2.2048 1.1172-2.4375-0.11438-0.27062-1.1785-0.32099-1.9609-0.32031zm0.96094 4.0312a6.966 6.966 0 0 1-0.60156 2.7891c0.37088-0.27359 1.5834-1.1789 1.6387-1.498 0.042012-0.24095-0.55842-0.84593-1.0371-1.291zm-13.93 0.89258a7 7 0 0 0 2.6016 4.5762c-0.33107-0.90477-0.51982-1.8835-0.5625-2.1211-0.034596-0.052424-0.068553-0.10462-0.10156-0.1582-0.25162-0.14845-0.47892-0.29681-0.66016-0.44336 0 0-0.86331-0.43558-1.1953-1.5176-0.023-0.077-0.050359-0.14747-0.068359-0.23047-0.0055118-0.034584-0.0086778-0.070705-0.013672-0.10547zm13.426 2.1113c0.34018 0.51231 0.71537 1.0972 1.0586 1.666 0.21049-0.39045 0.56608-1.0971 0.41992-1.3477-0.1513-0.25741-1.0496-0.30442-1.4785-0.31836zm-2.7285 1.9844c-0.15974 0.4055-0.36263 0.85297-0.5957 1.2246a6.964 6.964 0 0 0 0.71289-0.40625c1.8833 0.61717 4.3224 1.34 4.6914 1.1484-1.035-0.338-3.4275-0.9878-4.4785-1.9668h-0.33008zm3.9922 0.029297c0.48718 0.83157 0.86016 1.5666 0.86914 1.8613 0.013586-0.085686-0.035237-0.22986-0.11328-0.42578 0.161-0.251 0.59703-0.99138 0.45703-1.2344-0.11635-0.19789-0.79719-0.20698-1.2129-0.20117zm-9.4375 0.72852c-0.24269 0.27537-0.47286 0.57304-0.70312 0.81055a7 7 0 0 0 2.3809 0.43164 6.964 6.964 0 0 0 1.6289-0.21094c-0.28958-0.20478-0.54086-0.52896-0.79297-0.84766-0.27612 0.03891-0.55491 0.058737-0.83594 0.058594-0.58638 0-1.1484-0.085046-1.6777-0.24219z" color="#000000" fill="#363636" opacity=".3" stroke-linecap="round" stroke-linejoin="round" style="-inkscape-stroke:none"/>
 <path d="m7 2c-3.606 0-6.4936 2.7551-6.9316 6.0801a5.157 5.157 0 0 0-0.068359 0.91992c4e-3 0.364 0.032984 0.68977 0.083984 1.0098 0.018 0.083 0.045359 0.15347 0.068359 0.23047 0.332 1.082 1.1953 1.5176 1.1953 1.5176 0.209 0.169 0.47048 0.34072 0.77148 0.51172h-0.025391s0.63206 3.7585 1.7891 3.7305c0.875-0.022 1.5589-2.035 2.6719-2 1.111 0.035 1.562 1.988 2.668 2 0.638 7e-3 1.1939-1.109 1.5449-2h0.33008c1.051 0.979 3.4435 1.6288 4.4785 1.9668 0.014-8e-3 0.033203 0.033203 0.033203 0.033203 0.232-0.297-1.2156-2.6473-2.2266-4.1562a6.966 6.966 0 0 0 0.61719-2.8438 7 7 0 0 0-7-7zm0 1c3.3255 0 6 2.6745 6 6-0.0032 0.83876-0.18416 1.6671-0.5293 2.4316a1.0001 1.0001 0 0 0 0.082031 0.96875c0.38154 0.56948 0.8016 1.2572 1.1875 1.9023-0.01517-0.0057-0.025855-0.007902-0.041015-0.013672-0.80847-0.30797-1.5905-0.71464-1.9199-1.0215a1.0001 1.0001 0 0 0-0.68164-0.26758h-0.33008a1.0001 1.0001 0 0 0-0.92969 0.63281c-0.16169 0.41044-0.37521 0.86387-0.56445 1.1445-0.04731 0.070165-0.089643 0.11854-0.12305 0.15234h-0.0019531c-0.10927-0.094115-0.27814-0.29449-0.47266-0.54102s-0.41591-0.53867-0.73438-0.81641c-0.31846-0.27774-0.7873-0.55437-1.3555-0.57227-0.58246-0.018316-1.0694 0.23852-1.4121 0.50781-0.34266 0.26929-0.59184 0.56856-0.81055 0.83008-0.17707 0.21173-0.31205 0.36406-0.43164 0.49023-0.1363-0.22918-0.29727-0.59277-0.42578-0.99023-0.26754-0.82748-0.40932-1.6567-0.41602-1.6953a1.0001 1.0001 0 0 0-0.47656-0.74219c-0.26646-0.15138-0.48628-0.29828-0.63672-0.41992a1.0001 1.0001 0 0 0-0.17773-0.11524s-0.48003-0.22908-0.69141-0.91797c-0.026636-0.088813-0.033305-0.10676-0.037109-0.11719-0.041463-0.26646-0.066918-0.53294-0.070312-0.8418a1.0001 1.0001 0 0 0 0-0.0019531 1.0001 1.0001 0 0 0 0-0.0019531c-0.00392-0.24834 0.014298-0.49712 0.054688-0.74219a1.0001 1.0001 0 0 0 0.0039063-0.03125c0.12887-0.97827 0.51293-1.8986 1.082-2.6895a1.0001 1.0001 0 0 0-0.14062 0.47852v1a1.0001 1.0001 0 0 0 1 1h1a1.0001 1.0001 0 0 0 1-1v-1a1.0001 1.0001 0 0 0-1-1h-1a1.0001 1.0001 0 0 0-0.67383 0.27148c1.0886-1.3613 2.7612-2.2715 4.6738-2.2715zm-4 3h1v1h-1v-1z" color="#000000" fill="#363636" stroke-linecap="round" stroke-linejoin="round" style="-inkscape-stroke:none"/>
</svg>
