<svg width="16" height="16" version="1.1" viewBox="0 0 16 16" xmlns="http://www.w3.org/2000/svg">
 <path d="m12.442 6.5781c-1.1757 0.16788-2.388 0.77186-3.2461 2.0371-0.26927 0.39705-0.58746 0.80612-0.93945 1.1719-1.0944-0.39556-1.9279-0.93318-2.7227-1.166-0.3998-0.11647-0.81712-0.16878-1.2344-0.17773-0.11168-0.17806-0.21884-0.35466-0.32422-0.52148-0.44828-0.71077-1.041-1.0705-1.6406-1.1816-0.12626-0.023412-0.25205-0.03353-0.37695-0.037109v1.1523c0.16615 0.21427 0.32991 0.47731 0.49219 0.80859-0.17055 0.041905-0.33359 0.08988-0.49219 0.13867v0.5332c0.22433-0.072062 0.46117-0.14188 0.71289-0.19922 0.73457 1.5665 1.8024 2.3295 3.0625 2.3887 0.56181 0.02658 1.0853-0.11912 1.5605-0.36524 0.2403 0.02186 0.49463 0.02513 0.76562 0.0078 0.67259-0.04321 1.3508-0.18836 1.9766-0.45703 0.56234 0.05797 1.1782 0.06276 1.8555-0.01172 0.29151-0.03205 0.56928-0.10782 0.83594-0.22461v-0.55077c-0.28325 0.15401-0.57829 0.24497-0.89258 0.2793-0.34085 0.03748-0.66224 0.05354-0.96875 0.05273 0.4789-0.33148 0.89898-0.76265 1.2227-1.3066a2 2 0 0 1-0.2168-0.62109c-0.03902 0.065428-0.08015 0.13012-0.11719 0.19531l-2e-3 0.00391v0.0039c-0.41794 0.78988-1.0533 1.3283-1.791 1.6699-0.42611-0.051383-0.81657-0.13558-1.1797-0.24023 0.31073-0.34437 0.58625-0.71068 0.82617-1.0645 0.65816-0.9704 1.5257-1.4982 2.418-1.7285a2 2 0 0 1 0.41602-0.58984zm-10.412 0.62695c0.071742 0.00519 0.14424 0.0123 0.21484 0.025391 0.47318 0.087704 0.92119 0.34979 1.3066 0.96094 0.052821 0.083623 0.11053 0.17743 0.16602 0.26758-0.25976 0.018953-0.5162 0.0526-0.76562 0.097656-0.28372-0.59857-0.59342-1.0362-0.92188-1.3516zm2 1.748c0.27263 0.41875 0.59312 0.85786 1.0117 1.2363 0.36111 0.3265 0.80038 0.60349 1.332 0.78125-0.19991 0.04394-0.40429 0.06466-0.61523 0.05469-1.0534-0.049527-1.9128-0.61036-2.584-1.9863 0.28098-0.045304 0.56875-0.076662 0.85547-0.085938zm0.61914 0.017578c0.2559 0.022347 0.50653 0.06359 0.74414 0.13281 0.6289 0.18425 1.4079 0.67653 2.4512 1.0762-0.050038 0.042912-0.10118 0.08647-0.15234 0.12695-0.1637 0.12953-0.33264 0.24244-0.50586 0.3418-0.78524-0.097816-1.3503-0.41765-1.8086-0.83203-0.28004-0.2532-0.51621-0.54455-0.72852-0.8457zm3.7363 1.3945c0.19192 0.06066 0.39084 0.11636 0.59961 0.16602-0.30946 0.07065-0.62775 0.1156-0.94727 0.13672 0.11979-0.09641 0.23559-0.197 0.34766-0.30274z" fill="#363636" opacity=".15"/>
 <path d="m10.345 4.5023-1.8844 0.53725v3.775a2.1541 1.6148 0 0 0-1.6148-0.54641 2.1541 1.6148 0 0 0-2.1541 1.6148 2.1541 1.6148 0 0 0 2.1541 1.6148 2.1541 1.6148 0 0 0 2.1541-1.6148 2.1541 1.6148 0 0 0 0-0.044771v-3.8747l1.3452-0.38462z" fill="#363636"/>
 <path d="m2 1c-0.554 0-1 0.446-1 1v12c0 0.554 0.446 1 1 1h11c0.554 0 1-0.446 1-1v-1.125a7 7 0 0 0 2-4.875 7 7 0 0 0-2-4.8965v-1.1035c0-0.554-0.446-1-1-1h-11zm0.11523 1h10.77c0.063623 0 0.11523 0.051611 0.11523 0.11523v3.0625a3 3 0 0 0-2 2.8223 3 3 0 0 0 2 2.8223v3.0625c0 0.063623-0.051611 0.11523-0.11523 0.11523h-10.77c-0.063623 0-0.11523-0.051611-0.11523-0.11523v-11.77c0-0.063623 0.051611-0.11523 0.11523-0.11523zm11.885 2.6855a6 6 0 0 1 1 3.3145 6 6 0 0 1-1 3.2891v-0.28906-1a2 2 0 0 1-0.48047-0.064453 2 2 0 0 1-0.05664-0.013672 2 2 0 0 1-0.45508-0.19141 2 2 0 0 1-1.0078-1.7305 2 2 0 0 1 1.0078-1.7305 2 2 0 0 1 0.45508-0.19141 2 2 0 0 1 0.05664-0.013672 2 2 0 0 1 0.48047-0.064453v-1-0.31445z" fill="#363636"/>
</svg>
