<svg width="16" height="16" version="1.1" xmlns="http://www.w3.org/2000/svg">
 <defs>
  <style id="current-color-scheme" type="text/css">
   .ColorScheme-Text { color:#363636; } .ColorScheme-Highlight { color:#4285f4; }
  </style>
 </defs>
 <path d="m3.5 2c-1.933 0-3.5 1.567-3.5 3.5s1.567 3.5 3.5 3.5 3.5-1.567 3.5-3.5-1.567-3.5-3.5-3.5zm9 0c-1.933 0-3.5 1.567-3.5 3.5s1.567 3.5 3.5 3.5c0.60372-0.00267 1.1965-0.16146 1.7207-0.46094-1.0016 2.1056-2.8794 3.6937-5.2207 4.4218v1.0391c3.773-1.0388 6.5399-4.1356 6.9609-7.9824 0.0028-0.022774 0.0054-0.045575 0.0078-0.0684 0.0153-0.14999 0.02706-0.30109 0.03516-0.45313h-0.0039c-0.0022-1.9314-1.5686-3.496-3.5-3.496z" class="ColorScheme-Text" fill="currentColor"/>
</svg>
