<svg width="16" height="16" version="1.1" xmlns="http://www.w3.org/2000/svg">
 <path d="m10.191 0c-0.0072 0-0.01428 0.0018018-0.02148 0.0019531h-0.26368l-0.23438 0.13672c-1.6359 0.95936-2.7139 2.6476-2.8984 4.5352l-0.029297 0.29297c-0.040304-0.037789-0.091637-0.08798-0.12891-0.12109-0.051621-0.29414-0.090121-0.59461-0.011719-0.88477l0.5625-2.0781-1.9512 0.91016c-0.18703 0.087348-0.31356 0.262-0.49023 0.36719l0.14453-1.4395-1.5312 0.61328c-0.14128 0.056537-0.27647 0.12642-0.4043 0.20898l-0.011719 0.00781-0.013672 0.00977c-0.29307 0.20216-0.56731 0.42919-0.82031 0.67969-0.27616 0.27158-0.53002 0.56564-0.75781 0.87891-0.53021 0.72276-0.90762 1.545-1.1113 2.418l-0.007813 0.033203v0.00195c-9.6703e-4 0.00452-0.002946 0.015816-0.005859 0.029297-4.1319e-4 0.00191-0.001516 0.00188-0.001953 0.00391v0.00195l-0.009766 0.041016v0.00391c-0.0065175 0.030644-0.012789 0.060206-0.021484 0.10351-0.025265 0.12585-0.05625 0.29746-0.083984 0.49414v0.00195l-0.019531 0.13672c-0.022659 0.13954-0.036571 0.28411-0.050781 0.47266l-0.0039063 0.039063v0.027344c-0.0038721 0.057742-0.0074764 0.12198-0.011719 0.20508l-0.0019531 0.025391v0.076169c0.072731 4.344 3.6708 7.8266 8.0137 7.7617 3.8329 0.03942 7.1602-2.6753 7.8848-6.4414l0.0078-0.035156 0.03516-0.29297v-0.00391c0.16409-1.3257-0.01669-2.6729-0.52538-3.9082-0.29285-0.70955-0.84802-1.249-1.4277-1.7441l-0.03906-0.048828c-0.12605-0.10484-0.16973-0.28298-0.30664-0.375l-0.34961 0.31641c-0.66867-0.78947-1.3492-1.4855-1.8984-2.3223l-0.14258-0.22461c-0.01592-0.026833-0.02773-0.05029-0.04492-0.083984l-0.0118-0.019532c-0.0067-0.012495-0.01019-0.025305-0.01367-0.039062l0.0039 0.021484c-0.07062-0.30923-0.28354-0.57542-0.57804-0.70703l-0.01953-0.0078125-0.02149-0.0097656c-0.11996-0.047089-0.24797-0.070313-0.375-0.070313zm-0.01367 1.002h0.0059c5e-3 -0.00185 0.01058-0.00185 0.01563 0 0.0065 0.00269 0.01094 0.00867 0.01172 0.015625 0.02405 0.093181 0.05947 0.18305 0.10547 0.26758 0.02187 0.042867 0.04555 0.089009 0.07617 0.14062l0.16602 0.26367c1.1014 1.678 2.449 2.4478 3.2363 4.3594v-0.013672c-0.12603-0.71938-0.36533-1.4142-0.70903-2.0586 0.62726 0.42198 1.1158 1.0199 1.4043 1.7188 0.44434 1.0775 0.60245 2.2516 0.45898 3.4082l-0.0332 0.26172c-0.63524 3.3038-3.5463 5.6776-6.9102 5.6348-3.8065 0.060742-6.9423-2.9745-7.0059-6.7812v-0.035156c0.00438-0.085735 0.0093-0.16007 0.013672-0.22656v-0.019531c0.013121-0.17409 0.026348-0.28631 0.042969-0.38867l0.021484-0.1582c0.048113-0.34119 0.11523-0.61908 0.11523-0.62695 0.17278-0.74088 0.49367-1.4391 0.94336-2.0527 0.19665-0.27096 0.41551-0.5251 0.6543-0.75977 0.21132-0.20929 0.44073-0.39949 0.68555-0.56836 0.074034-0.047835 0.15253-0.088388 0.23438-0.12109-0.058304 0.5775 0.024124 1.1605 0.24023 1.6992 0.47002-0.53187 1.0444-0.96134 1.6875-1.2617-0.147 0.5439-0.14023 1.1179 0.019531 1.6582 0.069108 0.045492 0.1239 0.085571 0.18164 0.13281 0.1076 0.087485 0.22873 0.20493 0.48242 0.44727 0.53605 0.37463 1.104 0.70141 1.6973 0.97656-0.18573 0.34032-0.48401 0.60547-0.84375 0.75-1.9928 0-2.3145 1.168-2.3145 1.168 0.13557 0.9718 0.75798 1.8071 1.6504 2.2148 0.038491 0.01925 0.078901 0.03719 0.11914 0.05469 0.068233 0.02976 0.13685 0.05559 0.20508 0.08008 0.29385 0.10273 0.60113 0.16195 0.91211 0.17578 3.1057 0.4031 4.4289-3.8205 1.6484-5.2617 0.59251-0.075384 1.1923 0.065383 1.6895 0.39648-0.64507-1.0801-1.8123-1.7395-3.0703-1.7344-0.083104 0-0.16582 0.00647-0.24805 0.011719 0.15389-1.5693 1.0499-2.9701 2.4102-3.7676zm-1.125 6.1074c0.81518 0.51323 1.0011 1.271 0.76953 2.0098-0.24768 0.79014-0.85578 1.3867-1.9473 1.2461l-0.041016-0.0059-0.042969-2e-3c-0.21011-0.0092-0.41832-0.04886-0.61719-0.11719-0.049366-0.01772-0.099034-0.0368-0.14453-0.05664-0.035506-0.01544-0.05905-0.02562-0.070312-0.03125l-0.03125-0.0156c-0.47367-0.21603-0.71059-0.68948-0.875-1.1718 0.15887-0.1256 0.39863-0.30078 1.123-0.30078h0.19336l0.17969-0.072266c0.57452-0.231 1.051-0.65374 1.3477-1.1973z" color="#000000" fill="#363636" stroke-linecap="round" style="-inkscape-stroke:none"/>
</svg>
