<svg width="16" height="16" version="1.1" xmlns="http://www.w3.org/2000/svg">
 <path d="m7.9348 15.942c-0.67794-0.13264-1.5266-0.51578-2.1102-0.95265-0.35866-0.26849-0.5272-0.41216-0.41795-0.35629 0.02923 0.01495 0.24448 0.13597 0.47833 0.26893 0.56297 0.32009 1.1833 0.59 1.993 0.86722 0.64842 0.22198 0.6718 0.29312 0.056799 0.17279zm0.95301-0.15574c-0.30693-0.05437-0.7733-0.16107-1.0364-0.23712-1.0657-0.30806-2.5854-1.0013-2.8291-1.2906-0.58754-0.74006-1.0617-1.5811-1.2135-2.5217l-0.03793-0.26064c0.22831 0.14072 0.42087 0.35064 0.61338 0.50293 0.20724 0.16102 0.20008 0.14764-0.09005-0.16841-0.36812-0.40099-0.74433-0.96253-0.85994-1.2835-0.04477-0.12432-0.12591-0.60145-0.18032-1.0603-0.11321-0.95478-0.2656-1.6186-0.4807-2.0939-0.16757-0.37028-0.60773-0.8689-0.85848-0.97249l-0.1648-0.068086 0.20725-0.071566c0.45883-0.15844 1.1707-0.13143 1.8772 0.071216 0.10877 0.031198 0.12289 0.022174 0.0918-0.058651-0.06577-0.17096-0.29104-1.3703-0.3238-1.7239l-0.03192-0.34456 0.12902 0.23978c0.16335 0.30359 0.60459 0.7177 0.9068 0.85103 0.12794 0.056446 0.34766 0.11836 0.48829 0.13758l0.25568 0.034953-0.19368-0.22569c-0.49281-0.57425-0.78692-1.4273-0.78556-2.2786 9.07e-4 -0.56291 0.0491-0.72696 0.14921-0.50781 0.10217 0.22365 0.53776 0.65269 0.82772 0.81526 0.33178 0.18602 0.6491 0.29037 1.3076 0.42999 1.0361 0.21968 1.5593 0.6391 1.8418 1.4766 0.10057 0.29807 0.13765 0.35219 0.24131 0.35219 0.09917 0 0.15919-0.073888 0.31536-0.38823 0.24998-0.50319 0.33074-0.89737 0.3029-1.4784-0.01851-0.38624-0.05199-0.53071-0.19228-0.82973-0.09343-0.19913-0.24379-0.45515-0.33415-0.56894-0.09036-0.11379-0.14255-0.20689-0.11598-0.20689 0.02657 0 0.21446 0.056366 0.41755 0.12526 1.0414 0.35327 1.8699 0.92572 2.388 1.65 0.57832 0.80834 0.78841 1.6849 0.5274 2.2005-0.24767 0.48928-0.95553 0.60973-1.7358 0.29536-0.18108-0.072951-0.33775-0.12414-0.34816-0.11376-0.07853 0.078323 0.84516 0.53259 1.2559 0.61763 0.76067 0.1575 1.1673-0.077481 1.3634-0.78784 0.03794-0.13746 0.07113-0.2009 0.07374-0.14098 0.0026 0.059923 0.12496 0.34372 0.27187 0.63065 0.23979 0.46832 0.26615 0.55386 0.25766 0.83603-0.01097 0.36473-0.03862 0.39216-0.57793 0.57348-0.82775 0.27829-2.4146-0.034883-3.6553-0.72141-0.21517-0.11906-0.23242-0.12248-0.12071-0.023993 0.38215 0.33695 1.4909 0.85452 2.2879 1.068 0.35776 0.09584 0.59595 0.12151 1.1447 0.12338 0.65609 0.00225 0.70813-0.00546 0.97746-0.14476 0.15646-0.080918 0.29227-0.13935 0.3018-0.12984 0.0095 0.00951 0.11331 0.21884 0.23061 0.46519l0.21328 0.4479-0.12334 0.10945c-0.06784 0.0602-0.32447 0.17695-0.57029 0.25945-0.39768 0.13347-0.52018 0.14982-1.1113 0.14835-1.1544-0.00288-2.3741-0.33224-3.7071-1.001-0.41655-0.209-0.75736-0.3739-0.75736-0.36644 0 0.036372 0.6415 0.4313 1.0775 0.66332 1.4524 0.773 3.3078 1.2259 4.374 1.0678 0.4864-0.072153 0.79658-0.20398 0.78662-0.33431-0.0038-0.049259 0.02411-0.10141 0.06195-0.11589 0.06904-0.026423 0.13903 0.20145 0.2118 0.68961 0.02951 0.19795 0.0182 0.22907-0.11712 0.32227-0.18571 0.1279-0.65594 0.31321-0.97357 0.38366-0.36981 0.08203-1.5165 0.06571-2.0767-0.02956-1.2427-0.21136-2.7433-0.76726-3.9157-1.4506-0.40561-0.23641-0.34184-0.14694 0.09376 0.13155 2.2453 1.4355 5.2884 2.1697 6.6971 1.6158 0.14764-0.05804 0.28229-0.10553 0.29923-0.10553 0.04392 0-0.03637 0.69819-0.09234 0.80303-0.06159 0.11536-0.73726 0.39201-1.1347 0.46461-0.4535 0.08284-1.5154 0.07053-2.1021-0.02437-1.4245-0.23041-3.0358-0.80836-4.319-1.5492-0.25577-0.14766-0.46504-0.25764-0.46504-0.2444 0 0.06254 1.0493 0.69021 1.6199 0.96895 2.2675 1.1078 4.6263 1.5507 6.0733 1.1402 0.16265-0.04614 0.15324 0.01485-0.07242 0.46973-0.20906 0.42141-0.29446 0.48104-0.93436 0.65247-1.5748 0.42188-4.5785-0.26971-6.8591-1.5793-0.28501-0.16365-0.51819-0.28713-0.51819-0.27439 0 0.05491 0.94944 0.63349 1.5036 0.91626 1.6718 0.85312 3.6013 1.3987 4.9539 1.4007 0.35078 5.65e-4 0.75954-9e-3 0.90837-0.02114l0.27059-0.0221-0.18997 0.22665c-0.36285 0.43289-0.63565 0.54504-1.5205 0.62505-1.4608 0.13209-4.0769-0.60254-5.8851-1.6526-0.27097-0.15736-0.42238-0.22788-0.33647-0.1567 0.08592 0.07118 0.40573 0.27766 0.7107 0.45886 1.5185 0.9022 3.7652 1.6494 4.9926 1.6605 0.27037 0.0025 0.4916 0.02233 0.49162 0.04419 2e-5 0.02187 0.05385 0.04084 0.11962 0.04215 0.17862 0.0036-0.26459 0.22918-0.77339 0.39366-0.50449 0.16309-0.98066 0.17017-1.791 0.02663zm4.3579-9.6215c-0.032828-0.086608-0.12717-0.26481-0.20966-0.39601-0.30862-0.49092-0.32159-0.8395-0.040994-1.102l0.11804-0.11044 0.01163 0.16168c0.0064 0.088927 0.08836 0.28096 0.18215 0.42673 0.22468 0.34922 0.2681 0.7529 0.10811 1.0049l-0.10958 0.17262zm-5.3021-2.4984c-0.21333-0.216-0.45916-0.34332-1.1805-0.61137-0.77868-0.28938-1.4749-0.63482-1.7422-0.86447-0.44309-0.38067-0.65512-0.90503-0.65506-1.62 5.5e-5 -0.62907 0.0303-0.68621 0.22287-0.42106 0.26819 0.36927 0.47349 0.48996 1.5354 0.90262 0.67651 0.2629 0.96476 0.44162 1.325 0.82153 0.36984 0.39004 0.57531 0.84206 0.64646 1.4222 0.03105 0.25318 0.04861 0.4797 0.03903 0.50336-0.0096 0.023664-0.09555-0.036074-0.19103-0.13275z" fill="#363636"/>
</svg>
