<svg width="16" height="16" version="1.1" xmlns="http://www.w3.org/2000/svg">
 <path d="m4.75 1a3.751 3.751 0 0 0-3.75 3.668c0 0.943 0.247 1.6774 0.5 2.3574 1.187 2.81 3.5 5.1586 6.5 7.9746 3-2.816 5.313-5.1646 6.5-7.9746 0.253-0.68 0.5-1.4154 0.5-2.3594a3.751 3.751 0 0 0-7-1.7852 3.748 3.748 0 0 0-3.25-1.8809zm6.3301 0.99023c0.2828-0.0088884 0.56917 0.026104 0.84961 0.097656 1.1186 0.2854 2.0278 1.1412 2.0664 2.5918-0.0026 0.75202-0.18891 1.329-0.42774 1.9727-0.98905 2.3304-2.9854 4.4576-5.5684 6.9238-2.583-2.4662-4.5793-4.5935-5.5684-6.9238-0.23882-0.64364-0.42514-1.2198-0.42773-1.9707 0.038582-1.5015 1.2429-2.6816 2.7461-2.6816 0.98538-1.788e-4 1.8917 0.52464 2.3828 1.3789l0.86523 1.5059 0.86914-1.5059c0.54617-0.94779 1.3645-1.362 2.2129-1.3887z" fill="#363636" stroke-linecap="round"/>
</svg>
