<svg width="16" height="16.001" version="1.1" xmlns="http://www.w3.org/2000/svg">
 <path d="m8.0645 0c-0.10164 0.0011706-0.18202 0.0078732-0.23047 0.0058594l0.042969 0.0039062c-0.4322-0.056743-0.84796 0.23341-1.002 0.5293s-0.17794 0.58595-0.18359 0.82227a0.50005 0.50005 0 0 0 0.0019532 0.060547c0.013274 0.13356 0.0035801 0.12004-0.076172 0.17969-0.079749 0.059645-0.26099 0.1275-0.45117 0.15625a0.50005 0.50005 0 0 0-0.050781 0.0097656c-1.1749 0.30447-2.0981 1.0674-2.8848 1.8145-0.058181-0.009562-0.13756-0.029928-0.3457-0.12695-0.25284-0.11786-0.69471-0.29179-1.1406-0.076172a0.50005 0.50005 0 0 0-0.13867 0.097656c-0.24522 0.24679-0.49171 0.57471-0.58984 1.002-0.049067 0.21362-0.053803 0.46674 0.052734 0.71094 0.10654 0.2442 0.32274 0.44568 0.58203 0.56641a0.50005 0.50005 0 0 0 0.019531 0.0097656c0.16014 0.066546 0.14956 0.088916 0.15625 0.10742 0.006691 0.018501 0.016862 0.10218-0.017578 0.25195-0.065462 0.28468-0.27962 0.72767-0.25586 1.2734-0.1509 0.96587 0.11089 1.8474 0.30273 2.625-0.071441 0.064878-0.23611 0.19463-0.48047 0.41797-0.14344 0.1311-0.30615 0.30276-0.38086 0.57031-0.066056 0.23656 0.015233 0.50917 0.14062 0.74414 0.12912 0.41037 0.40733 0.7573 0.7832 0.87891 0.39928 0.12918 0.84112 0.03704 1.1973-0.2168l-0.015625 0.011719c0.1213-0.07983 0.10469-0.058529 0.13477-0.048829 0.030074 0.0097 0.12816 0.07375 0.25 0.20117 0.2361 0.24692 0.51967 0.71134 1.0957 0.91016 0.66516 0.47584 1.3992 0.6971 2.0625 0.88086 0.0012598 0.003596 0.0018516 0.006255 0.0078125 0.021484 0.015142 0.03869 0.033055 0.13588 0.044922 0.26953 0.023735 0.2673 0.011798 0.74246 0.4082 1.1035a0.50005 0.50005 0 0 0 0.16797 0.10156c0.31311 0.11126 0.69974 0.18103 1.1133 0.097656 0.20677-0.04169 0.43067-0.13081 0.61133-0.31836 0.18066-0.18755 0.28378-0.46843 0.28125-0.74805a0.50005 0.50005 0 0 0 0-0.001953c-0.0034601-0.21103 0.049191-0.40216 0.11328-0.49805 0.06409-0.09589 0.096994-0.1329 0.2793-0.13281a0.50005 0.50005 0 0 0 0.064453-0.003906c0.77016-0.09959 1.3743-0.50082 1.8887-0.9043 0.45798-0.35925 0.84911-0.69329 1.2246-0.93164 0.08797 0.03278 0.18015 0.06949 0.37891 0.1543 0.13383 0.05711 0.29346 0.11684 0.49219 0.13086 0.19873 0.01402 0.43671-0.03678 0.63477-0.16602a0.50005 0.50005 0 0 0 0.085937-0.068359c0.26937-0.27644 0.50139-0.63378 0.55859-1.0762 0.0286-0.2212 0.0022-0.47402-0.12305-0.70312-0.12263-0.22431-0.3337-0.40404-0.58594-0.51562l-0.015624-0.007813c-0.15893-0.076031-0.13657-0.081743-0.14453-0.13281-0.0083-0.053143 0.015297-0.21913 0.091797-0.4375 0.07649-0.21837 0.19023-0.4815 0.26953-0.7793 0.07386-0.27734 0.095589-0.61455-0.019531-0.95312 0.03375-0.43979-0.027987-0.8619-0.12695-1.1953-0.10199-0.3436-0.1464-0.58765-0.14453-0.77148 0.073524-0.060687 0.18283-0.14303 0.38086-0.30664 0.1249-0.10319 0.26632-0.23364 0.36523-0.4375 0.097323-0.20058 0.11782-0.47339 0.044922-0.71484-0.10631-0.39058-0.31712-0.76021-0.68555-0.99414-0.36232-0.23005-0.92552-0.22545-1.3418 0.083984-0.13059 0.088333-0.14221 0.072737-0.18359 0.0625-0.04138-0.010237-0.14041-0.064808-0.26758-0.18359-0.248-0.23166-0.54371-0.67058-1.0703-0.91992-0.63266-0.42831-1.3349-0.70673-2.0508-0.86523-0.046791-0.010287-0.017991 1.598e-4 -0.019531-0.0019532-0.0015407-0.0021128-0.022796-0.045193-0.039063-0.13281-0.031247-0.16831-0.02012-0.46344-0.13867-0.80664-0.053759-0.18905-0.16828-0.36946-0.31641-0.48047-0.15287-0.11456-0.31439-0.16139-0.45117-0.18359-0.13678-0.0222-0.25969-0.026561-0.36133-0.025391zm-0.30273 1.0039a0.50005 0.50005 0 0 0 0.029297 0.0019532c0.21582 0.00897 0.38412-0.0042507 0.46094 0.0058594 0.0256 0.072438 0.035351 0.34289 0.095703 0.66797 0.030435 0.16393 0.082696 0.35319 0.2168 0.53711 0.1341 0.18392 0.36284 0.336 0.61133 0.39062 0.63476 0.14082 1.2351 0.37452 1.75 0.73242a0.50005 0.50005 0 0 0 0.082031 0.046875c0.16538 0.07337 0.45588 0.41935 0.82031 0.75977 0.18222 0.17021 0.40222 0.34746 0.71094 0.42383 0.30872 0.076365 0.67846 5.172e-4 0.98242-0.20508a0.50005 0.50005 0 0 0 0.033204-0.023438c0.16068-0.12819 0.13493-0.093711 0.21484-0.042969 0.07992 0.050742 0.21126 0.22684 0.26172 0.41602a0.50005 0.50005 0 0 0 0.005859 0.017578c-0.0042 0.00595-0.02687 0.040448-0.09375 0.095703-0.1448 0.11962-0.43556 0.25005-0.66992 0.59375a0.50005 0.50005 0 0 0-0.080079 0.19922c-0.08752 0.51819 0.07777 0.95897 0.19141 1.3418 0.10481 0.35311 0.16954 0.64825 0.14062 0.86914-0.40948 0.095504-0.91712 0.16133-1.5469 0.1543-1.2591-0.014068-2.3911-0.72589-3.6191-1.4922-1.1513-0.7184-2.3972-1.4835-3.9043-1.502-0.10047-0.0012278-0.20184 2.083e-4 -0.30469 0.0058594-0.51501 0.028297-1.0139 0.17261-1.4688 0.35938-0.1325-0.21608-0.35043-0.39602-0.60938-0.50781-0.090614-0.042192-0.087096-0.056772-0.087891-0.058594-7.949e-4 -0.00182-0.0091606-0.024446 0.0058594-0.089844 0.0233-0.10144 0.14527-0.26406 0.25391-0.40234 0.036049-0.00436 0.053265-0.01373 0.2168 0.0625 0.2137 0.099616 0.55091 0.31327 1.0156 0.23242a0.50005 0.50005 0 0 0 0.26172-0.13281c0.7817-0.7594 1.6562-1.4729 2.623-1.7246h0.0039063c0.27608-0.045754 0.57807-0.12944 0.85156-0.33398 0.2764-0.20672 0.49296-0.59551 0.47461-1.0176 0.0035401-0.14792 0.040608-0.32175 0.070313-0.38086zm-3.3184 4.9883c1.1825 0.017089 2.2441 0.63859 3.3867 1.3516 1.2188 0.76051 2.519 1.6245 4.1367 1.6426 0.55518 0.0062033 1.0375-0.04 1.457-0.11523-0.046847 0.12621-0.098187 0.26084-0.14844 0.4043-0.0933 0.26635-0.19037 0.56336-0.13477 0.91992 0.033793 0.21671 0.15106 0.43069 0.32422 0.60742-0.39896 0.087913-0.88754 0.14732-1.4863 0.14062-1.2591-0.014072-2.3911-0.72589-3.6191-1.4922-1.1513-0.7184-2.3972-1.4835-3.9043-1.502-0.10047-0.0012279-0.20184 2.083e-4 -0.30469 0.0058593-0.57813 0.031765-1.1366 0.21143-1.6348 0.43164-0.032915-0.30472-0.035871-0.59949 0.013672-0.87891a0.50005 0.50005 0 0 0 0.0058593-0.13477c-0.013889-0.15014 0.12412-0.51786 0.23047-0.95508 0.4733-0.21968 0.99478-0.39744 1.4395-0.42188 0.079966-0.0043938 0.15945-0.0050456 0.23828-0.0039063zm0 2.957c1.1825 0.017089 2.2441 0.63859 3.3867 1.3516 1.1735 0.73224 2.4238 1.5581 3.959 1.6348-0.27243 0.21504-0.52955 0.43775-0.7832 0.63672-0.4646 0.36443-0.90588 0.63528-1.4004 0.69922-0.44477 0.02118-0.83609 0.2569-1.0469 0.57227-0.22103 0.33069-0.28718 0.70939-0.28125 1.0703-1.842e-4 0.051271-0.00312 0.044256 0 0.041016 0.00342-0.0035-0.019778 0.01712-0.089844 0.03125-0.10334 0.02083-0.27716-0.014562-0.42773-0.044922-0.022584-0.05215-0.046298-0.11874-0.068359-0.36719-0.01361-0.15328-0.028546-0.33644-0.10938-0.54297-0.080829-0.20652-0.25579-0.43268-0.5-0.56055a0.50005 0.50005 0 0 0-0.097656-0.039062c-0.7387-0.20349-1.4042-0.38254-1.916-0.7832a0.50005 0.50005 0 0 0-0.16406-0.083985c-0.094622-0.028628-0.36501-0.32634-0.69727-0.67383-0.16613-0.17374-0.36437-0.36359-0.66602-0.46094-0.30164-0.097348-0.6845-0.037158-0.99023 0.16406a0.50005 0.50005 0 0 0-0.015625 0.011719c-0.13885 0.09896-0.24521 0.099255-0.31055 0.078125-0.065339-0.02114-0.12625-0.0566-0.16992-0.22852a0.50005 0.50005 0 0 0-0.066406-0.15234c-0.017376-0.026453-0.017212-0.025665-0.021484-0.03125 0.0092812-0.013689 0.028307-0.042693 0.082031-0.091796 0.16082-0.14699 0.52114-0.30584 0.76367-0.73828a0.50005 0.50005 0 0 0 0.050781-0.35742c-0.052646-0.22807-0.10985-0.45456-0.16211-0.67969 0.48992-0.23356 1.039-0.42563 1.5039-0.45117 0.079966-0.0043938 0.15945-0.0050455 0.23828-0.0039062z" fill="#363636"/>
</svg>
