<svg width="16" height="16" version="1.1" viewBox="0 0 16 16" xmlns="http://www.w3.org/2000/svg">
 <path d="m5.4102 2c-0.77536 0-1.4102 0.63476-1.4102 1.4102v9.5898c4.263e-4 0.94219 1.1844 1.3611 1.7773 0.62891l2.5156-3.1133c0.026474-0.0026-0.041282 0.009512 0.039062 0.007813h2.0312c0.73426 0 1.2619-0.43716 1.3867-1.1211 0.0413-0.19273 0.28767-1.3917 0.3457-1.6934 0.11524-0.57609-0.20533-1.0268-0.64844-1.3281 0.56577-0.10951 1.0107-0.47607 1.1328-1.0254 6.98e-4 -0.0045501 0.001353-0.0091099 0.001953-0.013672l0.33984-1.6426 0.001953-0.0019532c2.94e-4 -0.00137-2.89e-4 -0.0025362 0-0.0039062v-0.0039063c0.14576-0.71922-0.035565-1.6895-1.3496-1.6895h-6.1641zm0 1h6.1641c0.21489 0 0.42971 0.21477 0.37109 0.48828l-0.3418 1.6504c-0.03909 0.17583-0.20501 0.33203-0.41016 0.33203h-2.9707c-0.33212 0-0.60547 0.27335-0.60547 0.60547v0.36133c0 0.33213 0.27335 0.60547 0.60547 0.60547h2.5117c0.23445 0 0.42971 0.22454 0.38086 0.46875-0.04875 0.25397-0.31249 1.5429-0.3418 1.6797-0.01954 0.14651-0.17571 0.33203-0.41016 0.33203h-2.0527c-0.42981 0.00878-0.5175 0.019463-0.77148 0.33203l-2.5391 3.1445v-9.5898c0-0.22468 0.18548-0.41016 0.41016-0.41016z" fill="#363636"/>
</svg>
