<svg width="16" height="16" version="1.1" viewBox="0 0 16 16" xmlns="http://www.w3.org/2000/svg">
 <path d="m8.1213 2c-2.3032 0-4.3573 1.354-5.3568 3.323-0.4092 0.80612-0.64316 1.7144-0.64316 2.677 0 0.99152 0.25022 1.9263 0.68264 2.7504 1.0128 1.9296 3.0425 3.2496 5.3173 3.2496 1.5106 0 2.8628-0.58161 3.8759-1.5374 1.1638-1.0981 1.8815-2.6908 1.8815-4.4626 0-0.38818-0.03553-0.76635-0.10153-1.134h-5.6559v2.268h3.4217c-0.22202 0.78577-0.68734 1.4599-1.3117 1.9238-0.56836 0.4223-1.2685 0.67137-2.0367 0.67137-1.5844 0-2.9745-1.0572-3.4584-2.519-0.11771-0.35598-0.18054-0.73383-0.18054-1.1283 0-0.43138 0.07467-0.8458 0.21439-1.2299 0.51287-1.4101 1.8762-2.4203 3.4246-2.4203 0.86029 0 1.6367 0.31358 2.2369 0.83216l1.6333-1.6587c-1.0204-0.99526-2.3982-1.6051-3.9436-1.6051z" fill="#363636"/>
</svg>
