<svg width="16" height="16" version="1.1" xmlns="http://www.w3.org/2000/svg">
 <path d="M9.43 11.277l-.153-.359-1.332-3.172a2.982 2.982 0 00-2.773-1.879C3.5 5.867 2.14 7.285 2.14 9.035c0 1.746 1.359 3.164 3.03 3.164 1.169 0 2.18-.691 2.688-1.699l.536 1.297a4.089 4.089 0 01-3.223 1.59C2.867 13.387 1 11.44 1 9.035c0-2.41 1.867-4.36 4.172-4.36 1.738 0 3.14.97 3.855 2.688.051.133.754 1.844 1.364 3.297.379.902.699 1.5 1.75 1.535 1.023.04 1.73-.613 1.73-1.441 0-.809-.539-1-1.445-1.316-1.633-.563-2.477-1.126-2.477-2.477 0-1.316.86-2.2 2.258-2.2.906 0 1.563.426 2.02 1.266l-.895.477c-.336-.488-.707-.684-1.176-.684-.656 0-1.12.477-1.12 1.11 0 .898.769 1.03 1.843 1.402C14.329 8.824 15 9.387 15 10.789c0 1.477-1.21 2.55-2.793 2.55-1.46-.007-2.238-.753-2.777-2.062" fill="#363636"/>
</svg>
