<svg width="16px" height="16px" version="1.1" viewBox="0 0 16 16" xmlns="http://www.w3.org/2000/svg">
 <path d="m13.021 0.94922a0.5 0.5 0 0 0-0.37109 0.099609 0.5 0.5 0 0 0-0.091797 0.70117c0.93432 1.2204 1.4405 2.713 1.4414 4.25-0.0065 1.5344-0.51718 3.0243-1.4531 4.2402a0.5 0.5 0 0 0 0.091797 0.70117 0.5 0.5 0 0 0 0.70117-0.091797c1.07-1.3901 1.6532-3.0934 1.6602-4.8477a0.50005 0.50005 0 0 0 0-0.0019531c-0.001076-1.7564-0.58074-3.4648-1.6484-4.8594a0.5 0.5 0 0 0-0.33008-0.19141zm-6.0215 0.050781c-2.7555 0-5 2.2445-5 5a0.5 0.5 0 0 0 0.5 0.5 0.5 0.5 0 0 0 0.5-0.5c0-2.2151 1.7849-4 4-4s4 1.7849 4 4c-0.001714 1.0576-0.27116 1.8139-0.7168 2.3711-0.44564 0.55719-1.0866 0.93228-1.9082 1.1445a0.5 0.5 0 0 0-0.011719 0.0058594 0.5 0.5 0 0 0-0.021484 0.0039062 0.5 0.5 0 0 0-0.13086 0.068359 0.5 0.5 0 0 0-0.029297 0.025391 0.5 0.5 0 0 0-0.09375 0.10547 0.5 0.5 0 0 0-0.025391 0.037109 0.5 0.5 0 0 0-0.0097656 0.015625l-0.5 1c-0.45765 0.9153-1.0307 3.2227-2.5527 3.2227-0.83333 0-1.2754-0.37691-1.584-0.83984-0.30862-0.46294-0.41602-1.0768-0.41602-1.1602v-0.21094-0.007812-0.001953-0.001953-1.2773a0.5 0.5 0 0 0-0.5-0.5 0.5 0.5 0 0 0-0.5 0.5v1.2773 0.001953 0.001953 0.007812 0.023438 0.1875c0 0.41667 0.14261 1.0528 0.58398 1.7148 0.44137 0.66206 1.2494 1.2852 2.416 1.2852 2.4779 0 3.2725-3.4277 3.4473-3.7773l0.40234-0.80273c0.88491-0.26621 1.6584-0.7281 2.2148-1.4238 0.60325-0.75426 0.93355-1.7647 0.93555-2.9961 0-2.7555-2.2445-5-5-5zm0 3a2 2 0 0 0-2 2 2 2 0 0 0 2 2 2 2 0 0 0 2-2 2 2 0 0 0-2-2zm0 1a1 1 0 0 1 1 1 1 1 0 0 1-1 1 1 1 0 0 1-1-1 1 1 0 0 1 1-1z" fill="#363636"/>
</svg>
