<svg xmlns="http://www.w3.org/2000/svg" width="16" height="16"><path style="marker:none" overflow="visible" fill="#363636" d="M8 0a8 8 0 0 0-8 8c0 4.418 3.23 7.072 7.012 7.9l.02-.855c-1.113-.113-1.24-.316-2.188-.795.051-.04.125-.094.125-.094l-.063-.125.219-.218.062-.22.344-.093.25-.687-.062-.157.156-.28.406-.095.188-.468-.032-.625.313-.438.031-.437c-.426-.216-.827-.434-1.25-.657l-.219-.437-.375-.094-.218-.562-.5.062-.47-.344-.468.438v.062c-.141-.041-.311-.046-.437-.125l-.094-.312v-.313l-.313.032c.026-.21.068-.447.094-.657h-.187l-.188.25-.187.094-.25-.156-.032-.313.032-.375.406-.28h.312l.063-.188.375.093.281.344.063-.594.5-.406.156-.469.375-.156.219-.281.468-.094.22-.375h-.688l.437-.187h.313l.406-.157.062.407.188-.282-.219-.156.063-.156-.157-.156-.187-.032.062-.187-.156-.281-.312.125.062-.25-.375-.22-.281.532.031.156-.281.125-.188.407-.062-.375-.5-.188-.094-.281.656-.375.282-.281.03-.344-.155-.094h-.063c.228-.158.442-.307.688-.437v.093l-.22.188-.155.375h.312l.094-.25.031-.063c.126-.09.247-.194.375-.28l.313.093c.194.135.368.272.562.406l.313-.281L6 1.969l-.125-.313-.563-.062v-.063c.01-.004.022.004.031 0l.188.063.156-.156.281-.063c.071-.035.148-.065.22-.094L6 1.469l.656.469v.281l-.25.281.344.688.25-.125.281-.469c.42-.132.823-.286 1.219-.469l-.031.188.187.125.344-.25L8.844 2l-.25.125-.032-.031.344-.937-.344-.125a6.89 6.89 0 0 1 3.407 1.218l-.282-.062-.343-.125-.5.125-.313.219v.187L10 2.938l.125.5.281-.219.188.219.218.125.125-.375-.062-.219.062-.156.313-.281h.125l-.125.312v.281c.123-.034.249-.046.375-.062l-.344.25-.031.156-.406.344-.407-.094v-.25l-.187.125.094.219h-.313l-.156.281-.188.219-.375.062.22.22.062.218-.248-.033.437.406.217-.123.031-.125.406-.094.219.25.25.125-.156.281.219-.062.125-.281-.282-.313h.125l.25.219.063.312.219.282.062-.407.125-.062c.132.14.232.31.344.469l.437.03.219.157-.094.156-.25.22h-.343l-.47-.157-.218.031-.187.188-.5-.5-.336-.092 3.279 3.277s.168-.136.525-.31v-.22c-.16.021-.311.052-.468.063l.312-.343.438-.313.25-.281v-.281c-.054-.104-.103-.241-.157-.344l-.218.281L14.062 7l-.25-.187v-.375l.282.312.312-.03c.14.129.283.226.406.374l.094-.125c.05.338.094.68.094 1.031-.113 1.124.036 1.155-.479 2.096l.672.79c.698-1.143.794-1.37.807-2.886a8 8 0 0 0-8-8zm2.258 5.69l-.035-.036.027.033zM4.75 2.219l.281.218h.25v-.25L5 2.062zm-.938.187l-.062.157s-.103.014-.188.03c.081-.066.167-.124.25-.187zm8.438.031c.065.05.124.105.187.157l-.25.28-.343-.374h.343zm-3.031.407v.187l.125.156v.282l-.063.406.313-.063.25-.218-.22-.22a5.832 5.832 0 0 0-.218-.53zm-.282.406l-.187.062.031.375.281-.156zM8 4.842v10.38l2.344-2.288 1.34 2.734c.328.74 2.033.145 1.548-.844l-1.326-2.838h2.96zm4.594 1.752l.28.343.376.782.219.25-.125.28.218.25c-.09.007-.187 0-.28 0a10.63 10.63 0 0 1-.438-1.124l-.22-.25-.124-.469zM1.031 7.5c.042.1.219.406.219.406l.531.313.563.156.218.313.375.28.188-.062.156.094v.031l-.187.594-.157.219.032.125-.125.468.468.844.47.438.218.28-.031.657.156.344-.156.687s.002.024 0 .032a7.01 7.01 0 0 1-2.97-5.72c0-.167.02-.334.032-.5z" color="#363636"/></svg>