<svg width="16" height="16" version="1.1" viewBox="0 0 4.23 4.23" xmlns="http://www.w3.org/2000/svg">
 <path d="m1.0575 0.26438c-0.43939 0-0.79312 0.35373-0.79312 0.79312v2.115c0 0.43939 0.35373 0.79312 0.79312 0.79312h2.115c0.43939 0 0.79312-0.35373 0.79312-0.79312v-2.115c0-0.43939-0.35373-0.79312-0.79312-0.79312h-2.115zm0 0.26438h2.115c0.29293 0 0.52875 0.23582 0.52875 0.52875v2.115c0 0.29293-0.23582 0.52875-0.52875 0.52875h-2.115c-0.29293 0-0.52875-0.23582-0.52875-0.52875v-2.115c0-0.29293 0.23582-0.52875 0.52875-0.52875z" fill="#363636"/>
 <circle cx="2.115" cy="1.5862" r=".52875" fill="#363636" fill-rule="evenodd" stop-color="#000000" stroke-linecap="round" stroke-linejoin="round" stroke-width=".52875" style="paint-order:stroke fill markers"/>
 <path d="m2.115 2.6438a1.8506 1.8506 0 0 0-1.6637 1.041c0.14526 0.17191 0.36249 0.2809 0.6062 0.2809h2.115c0.24371 0 0.46095-0.10899 0.6062-0.2809a1.8506 1.8506 0 0 0-1.6637-1.041z" fill="#363636" fill-rule="evenodd" stop-color="#000000" stroke-linecap="round" stroke-linejoin="round" stroke-width=".52875" style="paint-order:stroke fill markers"/>
</svg>
