<svg width="16" height="16" version="1.1" viewBox="0 0 4.2333 4.2333" xmlns="http://www.w3.org/2000/svg" xmlns:osb="http://www.openswatchbook.org/uri/2009/osb" xmlns:xlink="http://www.w3.org/1999/xlink">
 <defs>
  <clipPath>
   <rect x="40.903" y="-101.47" width="91.11" height="5.92" ry="1.4192" fill="#1a1a1a" stroke-linecap="round" stroke-linejoin="round" style="paint-order:stroke fill markers"/>
  </clipPath>
  <clipPath>
   <rect x="990.6" y="-849.7" width="173.3" height="127.26" fill="#1c71d8" stroke-width="0"/>
  </clipPath>
  <linearGradient osb:paint="solid">
   <stop stop-color="#000000" offset="0"/>
  </linearGradient>
  <clipPath>
   <rect x="-1063.5" y="-28.125" width="370" height="60" color="#bebebe" fill="#d9dbd9"/>
  </clipPath>
  <linearGradient>
   <stop stop-color="#f4f4f2" offset="0"/>
   <stop stop-color="#ecece9" offset="1"/>
  </linearGradient>
  <linearGradient x1="88.596" x2="536.6" y1="-449.39" y2="-449.39" gradientTransform="matrix(.19997 0 0 .19997 1.2205 85.329)" gradientUnits="userSpaceOnUse">
   <stop stop-color="#77767b" offset="0"/>
   <stop stop-color="#c0bfbc" offset=".035714"/>
   <stop stop-color="#9a9996" offset=".071365"/>
   <stop stop-color="#9a9996" offset=".92857"/>
   <stop stop-color="#c0bfbc" offset=".96429"/>
   <stop stop-color="#77767b" offset="1"/>
  </linearGradient>
  <radialGradient cx="106.67" cy="-60.348" r="225" gradientTransform="matrix(.17141 0 0 .25786 19.852 -38.464)" gradientUnits="userSpaceOnUse" xlink:href="#linearGradient6826"/>
  <linearGradient id="linearGradient6826">
   <stop stop-color="#50dbb5" offset="0"/>
   <stop stop-color="#4a86cf" offset="1"/>
  </linearGradient>
  <radialGradient cx="317.76" cy="86.748" r="225" gradientTransform="matrix(.31082 0 0 .22055 -15.838 9.5093)" gradientUnits="userSpaceOnUse" xlink:href="#linearGradient1044"/>
  <linearGradient id="linearGradient1044">
   <stop stop-color="#1a5fb4" offset="0"/>
   <stop stop-color="#98c1f1" stop-opacity="0" offset="1"/>
  </linearGradient>
  <radialGradient cx="276.59" cy="218.28" r="225" gradientTransform="matrix(.31082 0 0 .41903 -15.838 -116.48)" gradientUnits="userSpaceOnUse" xlink:href="#linearGradient1034"/>
  <linearGradient id="linearGradient1034">
   <stop stop-color="#98c1f1" offset="0"/>
   <stop stop-color="#2dc0af" stop-opacity=".1378" offset="1"/>
  </linearGradient>
  <clipPath>
   <rect x="40.903" y="-101.47" width="91.11" height="5.92" ry="1.4192" fill="#1a1a1a" stroke-linecap="round" stroke-linejoin="round" style="paint-order:stroke fill markers"/>
  </clipPath>
  <clipPath>
   <rect x="990.6" y="-849.7" width="173.3" height="127.26" fill="#1c71d8" stroke-width="0"/>
  </clipPath>
  <clipPath>
   <rect x="-1063.5" y="-28.125" width="370" height="60" color="#bebebe" fill="#d9dbd9"/>
  </clipPath>
  <clipPath>
   <rect x="-239.49" y="1523" width="278.98" height="158.98" rx="8" ry="8" fill="url(#radialGradient13424)" stroke="#9a9996" stroke-linecap="square" stroke-width="1.017"/>
  </clipPath>
  <clipPath>
   <rect x="-239.49" y="1523" width="278.98" height="158.98" rx="8" ry="8" fill="url(#radialGradient13424)" stroke="#9a9996" stroke-linecap="square" stroke-width="1.017"/>
  </clipPath>
  <linearGradient>
   <stop stop-color="#000000" offset="0"/>
   <stop stop-color="#484848" offset="1"/>
  </linearGradient>
  <clipPath>
   <g transform="matrix(.99498 0 0 .76745 -1172.1 1905.1)" stroke-width="1.1444">
    <rect x="1929.1" y="2920.4" width="819" height="715.47" rx="12.061" ry="15.636" fill="#3d3846" stroke="#241f31" stroke-width="1.1367"/>
   </g>
  </clipPath>
  <clipPath>
   <rect x="302.97" y="232.57" width="121.66" height="76.039" rx="0" ry="1.6049" fill="#f6f5f4" style="paint-order:stroke fill markers"/>
  </clipPath>
 </defs>
 <path transform="scale(.26458)" d="m2 0c-1.108 0-2 0.892-2 2v2h1v-2c0-0.554 0.446-1 1-1h2v-1h-2zm10 0v1h2c0.554 0 1 0.446 1 1v2h1v-2c0-1.108-0.892-2-2-2h-2zm-6 4c-1.108 0-2 0.892-2 2v2 2c0 1.108 0.892 2 2 2h6c1.108 0 2-0.892 2-2v-4c0-1.108-0.892-2-2-2h-6zm-2 4-2-2v4l2-2zm4.9473-3a3 3 0 0 1 0.0019532 0 3 3 0 0 1 0.050781 0 3 3 0 0 1 3 3 3 3 0 0 1-3 3 3 3 0 0 1-3-3 3 3 0 0 1 2.9473-3zm0.0039063 1a2 2 0 0 0-1.9512 2 2 2 0 0 0 2 2 2 2 0 0 0 2-2 2 2 0 0 0-2-2 2 2 0 0 0-0.048828 0zm-8.9512 6v2c0 1.108 0.892 2 2 2h2v-1h-2c-0.554 0-1-0.446-1-1v-2h-1zm15 0v2c0 0.554-0.446 1-1 1h-2v1h2c1.108 0 2-0.892 2-2v-2h-1z" fill="#363636" stroke-linecap="round" stroke-linejoin="round" stroke-width=".80126"/>
</svg>
