<svg width="16" height="16" fill="none" version="1.1" viewBox="0 0 16 16" xmlns="http://www.w3.org/2000/svg">
 <style id="current-color-scheme" type="text/css">.ColorScheme-Text {
  color:#363636;
}</style>
 <path class="ColorScheme-Text" d="m3.3108 3.9199c0.2483 0.00898 0.50199 0.03225 0.7492 0.07493 0.73862 0.1275 1.6213 0.4682 1.9143 1.3471l0.10632 0.31894-0.25526 0.2188c-0.52237 0.44774-1.2103 1.3685-1.4704 2.2604-0.12848 0.4405-0.13785 0.82279-0.02655 1.1244 0.10443 0.28297 0.34046 0.56466 0.85725 0.77141 1.643 0.6571 3.0139 1.5093 4.0058 2.3427l-1.003-3.3432 1.035 0.51753c0.65177 0.32588 1.6476 0.76221 2.5172 1.0174 0.1543 0.0454 0.3005 0.0837 0.4368 0.1145l-3.8353-2.6847h-1.3424v-1h1.5c0.26701 0 0.6019-0.11434 0.99525-0.36107 0.38746-0.24304 0.79141-0.58919 1.186-0.9898 0.4066-0.41274 0.7903-0.87002 1.1218-1.3044l-4.6883 1.2786-0.10505-0.52527c-0.23095-1.1547 0.10249-1.9731 0.70594-2.4807 0.02529-0.02127 0.0509-0.04187 0.07681-0.06182-0.32833-0.04115-0.61526-0.05554-0.79246-0.05554-1.0842 0-2.0788 0.37709-2.8924 0.86606-0.29458 0.17703-0.56168 0.36651-0.7967 0.5538zm6.342 3.7768 4.4873 3.1411-0.1929 0.3858c-0.2407 0.4813-0.7752 0.5559-1.1378 0.5514-0.4047-0.0051-0.8813-0.1076-1.3503-0.2452-0.549-0.1612-1.1339-0.3848-1.6614-0.6106l0.98998 3.2999c0.1296 0.259 0.2122 0.5243 0.2122 0.7809l-0.9789 0.1437-0.1636-0.5455c-0.04073-0.074-0.09203-0.1569-0.15611-0.2488-0.22458-0.3218-0.56766-0.6977-1.0242-1.0951-0.91188-0.7937-2.238-1.6402-3.8628-2.2901-0.73321-0.2932-1.2055-0.7616-1.424-1.3536-0.21161-0.5734-0.15849-1.1911 0.0047-1.7506 0.27418-0.94005 0.90024-1.8594 1.4772-2.4538-0.18419-0.19589-0.50743-0.34406-0.98225-0.42603-0.6289-0.10856-1.3448-0.06418-1.8078 0.01299l-1.2889 0.21482 0.8163-1.0204c0.37028-0.46285 1.0652-1.1272 1.9829-1.6787 0.91967-0.55269 2.0917-1.0089 3.4076-1.0089 0.27644 0 0.72821 0.0271 1.2175 0.10645 0.48443 0.07855 1.041 0.21381 1.5061 0.44634l-0.22361 0.94721c-0.34121 0-0.81273 0.10682-1.1406 0.38264-0.21922 0.18439-0.41627 0.47822-0.42366 0.98027l6.1656-1.6815-0.6773 1.0836c-0.431 0.68961-1.1778 1.7205-2.0302 2.5859-0.4263 0.43272-0.8911 0.83657-1.3671 1.1352-0.12132 0.07608-0.24615 0.1471-0.37378 0.21062z" fill="currentColor"/>
</svg>
