<svg width="16" height="16" version="1.1" viewBox="0 0 16 16" xmlns="http://www.w3.org/2000/svg">
 <path d="m7.9922 1c-1.7902 0-3.5805 0.68601-4.9512 2.0566-0.11189 0.13986-0.2221 0.25076-0.33398 0.39062l0.69922 0.70117a6 6 0 0 1 4.5938-2.1484 6 6 0 0 1 6 6 6 6 0 0 1-2.1484 4.5938l0.72852 0.72852c0.13986-0.11189 0.25139-0.22342 0.36328-0.36328 2.7413-2.7413 2.7413-7.1611 0-9.9023-1.3706-1.3706-3.161-2.0566-4.9512-2.0566z" fill="#363636" stroke-width=".27972"/>
 <path class="st0" d="m11.741 13.937-9.6503-9.6503c-0.1958 0.30769-0.36364 0.61538-0.5035 0.95105l9.2028 9.2028c0.33566-0.13986 0.64336-0.30769 0.95105-0.5035z" fill="#363636" stroke-width=".27972"></path>
 <path class="st0" d="m9.7273 14.804-8.5035-8.5035c-0.11189 0.41958-0.16783 0.83916-0.1958 1.2587l7.4406 7.4406c0.41958-0.02797 0.83916-0.08392 1.2587-0.1958z" fill="#363636" stroke-width=".27972"></path>
 <path class="st0" d="m6.9301 14.944-5.8462-5.8462c0.22378 1.4266 0.86713 2.7692 1.958 3.8881 1.1189 1.0629 2.4895 1.7343 3.8881 1.958z" fill="#363636" stroke-width=".27972"></path>
</svg>
