<svg width="16" height="16" version="1.1" xmlns="http://www.w3.org/2000/svg">
 <path d="m5.7385 11.666h0.93206c0.33398 0 0.57481 0.05597 0.72415 0.16797 0.15035 0.11178 0.22553 0.2924 0.22553 0.53906 0 0.12978-0.026321 0.24048-0.081049 0.33203-0.054729 0.09044-0.13538 0.15695-0.23962 0.20117 0.13312 0.04289 0.23693 0.12295 0.3101 0.23828 0.072971 0.11556 0.10924 0.25583 0.10924 0.42383 0 0.25711-0.077571 0.44995-0.23434 0.57617-0.15677 0.12622-0.395 0.18945-0.71535 0.18945h-1.0307v-2.668zm2.5161 0h1.6739v0.52148h-1.0537v0.49609h0.99024v0.51953h-0.99024v0.61133h1.0888v0.51953h-1.709v-2.668zm1.9663 0h2.2183v0.52148h-0.79815v2.1465h-0.6202v-2.1465h-0.79992v-0.52148zm2.886 2e-3h0.74001l0.89154 2.666h-0.62373l-0.15153-0.48633h-0.97085l-0.15329 0.48633h-0.62196l0.88978-2.666zm-6.7482 0.4668v0.56445h0.34358c0.097825 0 0.17148-0.02471 0.222-0.07227 0.050518-0.04755 0.075963-0.11783 0.075762-0.21094 0-0.09156-0.025245-0.16121-0.075762-0.20898-0.050318-0.04889-0.12418-0.07226-0.222-0.07226zm7.12 0.1582-0.33124 1.0605h0.65896zm-7.12 0.875v0.69726h0.36472c0.12449 0 0.21781-0.02945 0.28015-0.08789 0.063348-0.05822 0.095145-0.14567 0.095145-0.26367 1e-7 -0.11556-0.031238-0.20266-0.093386-0.25977-0.062346-0.05822-0.15622-0.08594-0.28191-0.08594h-0.36472z" fill="#363636"/>
 <path d="m8 0c-4.3745 0-7.9384 3.5134-8 7.8867 0.029926-2.2832 2.2998-4.4023 5-4.4023 0.21866 0 1.4662 0.020911 2.625 0.62891 1.021 0.53629 1.5558 1.4579 1.9277 2.0996 0.54044 1.0198 0.56324 1.956-0.033203 2.7344-0.010509 0.013662-0.033541 0.036155-0.050781 0.052734h1.0352c0.49067-1.0172 0.48695-2.208-0.06836-3.2559a1.0001 1.0001 0 0 0-0.01758-0.033203c-0.3723-0.64239-1.017-1.7937-2.3281-2.4824-1.4117-0.7407-2.8061-0.74414-3.0898-0.74414-0.55098 0-1.0548 0.15955-1.5664 0.29297 1.2303-1.0738 2.8-1.7773 4.5664-1.7773 2.7889 0 5.2707 1.3256 6.4004 3.5352 0.23472 0.46291 0.61296 1.13 0.59961 2.2773a1.0001 1.0001 0 0 0 0 0.00977c-2e-3 1.0072-0.40654 1.5038-1.4062 2.0879a1.0001 1.0001 0 0 0-0.0059 0.00391c-0.050931 0.030247-0.10356 0.059176-0.15621 0.085929h0.56836c0.33376 0 0.65371 0.056544 0.95312 0.15625 0.66018-0.59762 1.0449-1.3431 1.0469-2.332 0.0163-1.4003-0.50011-2.3319-0.70898-2.7441-1.3244-2.5905-4.1826-4.0801-7.291-4.0801z" color="#000000" fill="#363636" stroke-linecap="round" stroke-linejoin="round" style="-inkscape-stroke:none"/>
 <path d="m7.0312 6.2539c-1.4039 0.6914-2.3878 1.9307-2.7891 3.3145 0.49355-0.35663 1.0997-0.56836 1.7578-0.56836h0.14258c-0.089538-0.33707-0.13867-0.68472-0.13867-1.0391a1.9671 1.9671 0 0 1 1.0273-1.707z" color="#000000" fill="#363636" opacity=".5" stroke-linecap="round" stroke-linejoin="round" style="-inkscape-stroke:none"/>
 <path d="m5.0059 3.0078c-2.7437 0-5 2.6025-5 4.8867a8.1309 8.1309 0 0 0 0.75781 3.5c0.53733 1.1464 1.3159 2.1103 2.25 2.8555-0.0068165-0.082887-0.013672-0.1653-0.013672-0.25v-1.207c-0.53249-0.5164-0.99619-1.1091-1.3301-1.8203v-2e-3l-0.00195-2e-3c-0.44539-0.95959-0.67155-2.0062-0.66211-3.0644a1.0001 1.0001 0 0 0 0-0.00195 1.0001 1.0001 0 0 0 0-0.00195 1.0001 1.0001 0 0 0 0-0.00195 1.0001 1.0001 0 0 0 0-0.00195 1.0001 1.0001 0 0 0 0-0.00195c0-0.81284 0.44076-1.8306 1.1895-2.6035 0.7487-0.77288 1.755-1.2832 2.8105-1.2832 1.5056 0 2.446 0.28722 3.0215 0.63281 0.22403 0.13453 0.24296 0.3095 0.38281 0.45897-0.1353-0.019932-0.25596-0.092442-0.39453-0.09375-0.69741-0.010187-1.2388 0.26105-1.4102 0.3418a1.0001 1.0001 0 0 0-0.015625 0.00781c-2.2263 1.0964-3.4854 3.363-3.4219 5.6582 0.20318-0.5868 0.58102-1.0889 1.0742-1.4453 0.40125-1.3838 1.3851-2.623 2.7891-3.3145 0.19496-0.091851 0.52941-0.258 0.97266-0.25a2.0222 2.0222 0 0 1 1.6055 0.8125 1.992 1.992 0 0 1 0.39648 1.166c0-0.01304 1.5289-4.9746-5-4.9746z" color="#000000" fill="#363636" opacity=".75" stroke-linecap="round" stroke-linejoin="round" style="-inkscape-stroke:none"/>
 <path d="m6 10c-1.108 0-2 0.892-2 2v2c0 1.108 0.892 2 2 2h8c1.108 0 2-0.892 2-2v-2c0-1.108-0.892-2-2-2zm0 1h8c0.554 0 1 0.446 1 1v2c0 0.554-0.446 1-1 1h-8c-0.554 0-1-0.446-1-1v-2c0-0.554 0.446-1 1-1z" fill="#363636"/>
</svg>
