<svg width="16" height="16" version="1.1" xmlns="http://www.w3.org/2000/svg" xmlns:osb="http://www.openswatchbook.org/uri/2009/osb">
  <path
     d="M 14.49,1 C 14.36024,1.004 14.23697,1.0575 14.14625,1.15039 L 13.65993,1.63672 C 13.44501,1.53383 13.20866,1.48362 12.97047,1.49024 12.58091,1.50154 12.21106,1.6641 11.93927,1.94336 L 10.29277,3.58986 9.35332,2.6504 C 9.25912,2.553 9.12942,2.49806 8.99394,2.49806 8.54453,2.49814 8.32334,3.04489 8.64628,3.35744 l 0.93946,0.93945 -6.1465,6.1465 c -0.35526,0.34249 -0.50915,0.82822 -0.43945,1.2988 v 0.55469 l -1.8535,1.8535 0.70704,0.70704 1.8535,-1.8535 h 0.54492 c 0.47378,0.0725 0.96431,-0.081 1.3086,-0.43945 l 6.1465,-6.1465 0.93945,0.93946 c 0.47127,0.49023 1.1973,-0.23577 0.70704,-0.70704 l -0.93946,-0.93945 1.6465,-1.6465 c 0.45873,-0.44877 0.5812,-1.1396 0.30468,-1.7188 l 0.48829,-0.48828 c 0.32529,-0.31801 0.0914,-0.86991 -0.36329,-0.85743 z m -4.0938,3.9004 0.70704,0.70704 -3.3965,3.3965 h -1.4141 z"
     fill="#363636" />
</svg>
