<svg height="16" width="16" xmlns="http://www.w3.org/2000/svg"><g fill="#363636"><path d="M4.994 0C3.736.015 2.815-.03 2.063.385c-.19.104-.358.246-.5.416H1.5v.088c-.11.148-.207.311-.275.494C1.06 1.82 1 2.343 1 3v9c0 .658.06 1.179.225 1.617.164.439.461.789.838.996.752.415 1.673.372 2.931.387h5.012c1.258-.014 2.179.03 2.932-.385a1.88 1.88 0 00.838-.998c.164-.438.224-.96.224-1.617V3c0-.658-.06-1.179-.225-1.617A1.992 1.992 0 0013.5.89V.8h-.062a1.774 1.774 0 00-.5-.414C12.185-.028 11.264.015 10.006 0H4.998zM2 3h11v9c0 .592-.063 1.006-.16 1.266-.098.26-.202.371-.385.472-.366.202-1.196.247-2.455.262H5c-1.259-.015-2.09-.06-2.455-.262-.184-.1-.287-.213-.385-.472C2.062 13.006 2 12.592 2 12z" style="line-height:normal;font-variant-ligatures:normal;font-variant-position:normal;font-variant-caps:normal;font-variant-numeric:normal;font-variant-alternates:normal;font-feature-settings:normal;text-indent:0;text-align:start;text-decoration-line:none;text-decoration-style:solid;text-decoration-color:#000;text-transform:none;text-orientation:mixed;white-space:normal;shape-padding:0;isolation:auto;mix-blend-mode:normal;solid-color:#000;solid-opacity:1;marker:none" color="#000" font-weight="400" font-family="sans-serif" overflow="visible"/><path d="M5 4h7v1H5zM5 6h7v1H5zM5 8h7v1H5zM5 10h4v1H5zM3 3h1v11H3z"/></g></svg>