<svg width="16" height="16" version="1.1" xmlns="http://www.w3.org/2000/svg">
 <title>Gnome Symbolic Icon Theme</title>
 <g transform="translate(-343 105)">
  <path d="m355.24-103.79c-1.1108-0.0118-2.2279 0.3035-3.2676 0.9082-0.82922 0.48231-1.1273 0.89429-1.2207 0.95117-3.1471-0.43623-6.4108 2.1466-6.7422 6.4531-0.0161 0.20853-0.0208 0.53918 0 0.86719 0.0104 0.16401 0.0262 0.32408 0.0586 0.47656 0.0162 0.07624 0.0356 0.14948 0.0723 0.23438 0.035 0.081 0.0886 0.18825 0.23828 0.28906 1.0897 0.80362 2.4297 0.72582 3.5762 0.39648 1.1548-0.33173 2.1848-0.91853 2.7676-1.2285 1.0801-0.57448 1.5031-0.45534 1.7578-0.29688 0.12735 0.07923 0.23089 0.19799 0.33008 0.33398 0.0626 0.08588 0.16835 0.19346 0.25391 0.29492-4e-3 0.0129 2.1e-4 -7.28e-4 -0.01 0.02148-0.0562 0.12506-0.20798 0.35376-0.38476 0.60547-0.35357 0.50342-0.87961 1.0914-0.79883 1.8848 0.0552 0.5425 0.13086 0.97461 0.13086 0.97461l0.0723 0.41211h0.41993c0.13191-3.3e-5 0.16408-0.02133 0.21484-0.03711 0.0508-0.01578 0.0987-0.03275 0.15234-0.05469 0.10722-0.04387 0.23345-0.10277 0.375-0.17578 0.28312-0.14602 0.62882-0.35021 0.97266-0.59961s0.68602-0.54195 0.95508-0.88672c0.1606-0.2058 0.18871-0.48492 0.26953-0.74023 0.36528 0.04726 0.77149 0.15343 1 0.06055 0.35706-0.14514 0.53394-0.26111 0.98633-0.19141l1.1133 0.17188-0.61914-0.94141c-0.14762-0.22442-0.43688-0.73854-1.0527-1.002l-0.0117-0.0039-0.01-0.0039c-0.33681-0.12612-0.65835-0.15928-0.88672-0.23242-0.21758-0.06969-0.27999-0.11825-0.32226-0.22656-0.0155-0.35916-0.0229-1.4007-0.23633-2.5625-0.22368-1.2176-0.57801-2.3556-1.5473-3.1723l-2e-3 1.2e-4c-0.0496-0.0997-0.0379-0.17648 0.0301-0.38838 0.0678-0.21189 0.21506-0.45225 0.40234-0.64062 0.1835-0.18456 0.43938-0.38586 0.68359-0.57227 0.24422-0.18641 0.4671-0.33796 0.65235-0.55078l0.71093-0.8164zm-1.8379 1.5117c-0.19156 0.24181-0.38809 0.48486-0.48047 0.77343-0.12415 0.38786-0.14503 0.82888 0.0527 1.2266l0.0586 0.11718 0.10937 0.0742c0.63663 0.42937 1.0636 1.5204 1.2676 2.6309s0.21199 2.1586 0.23438 2.5605l4e-3 0.06836 0.0215 0.06641c0.17179 0.49843 0.62124 0.75081 0.97851 0.86524 0.34986 0.11205 0.66873 0.1566 0.82227 0.21094 0.0171 0.0074 0.0191 0.02898 0.0352 0.03711-0.12415 0.0446-0.36109 0.03919-0.44727 0.07422-0.29167 0.11856-0.3084 0.18002-0.69727-0.03906l-0.80078-0.45117 0.0566 0.91797c8e-3 0.13455-0.0608 0.33201-0.24218 0.56445-0.1814 0.23244-0.46001 0.48018-0.75391 0.69336-0.25098 0.18204-0.49944 0.32332-0.7207 0.44336-0.0156-0.11925-0.0206-0.11303-0.0352-0.25586-0.0152-0.14886 0.26732-0.7025 0.62305-1.209 0.17786-0.25324 0.35542-0.49545 0.47851-0.76953 0.0615-0.13704 0.11683-0.28659 0.11524-0.47852-2e-3 -0.19193-0.10016-0.43465-0.26563-0.57617l-0.0215-0.01758-0.0254-0.01563c0.11732 0.07883-0.021-0.05111-0.15039-0.22852-0.1294-0.1774-0.3174-0.41208-0.60938-0.59375-0.58396-0.36333-1.5042-0.40204-2.7559 0.26367-0.6075 0.32311-1.5708 0.86215-2.5742 1.1504-0.96946 0.2785-1.8995 0.29178-2.6387-0.21484-0.0128-0.07302-0.0258-0.16731-0.0332-0.2832-0.0172-0.27019-0.012-0.59634-2e-3 -0.72656 0.30477-3.9601 3.2568-6.0723 5.832-5.5625l0.16015 0.0312 0.14844-0.0684c0.5586-0.26011 0.63951-0.61787 1.3301-1.0195 0.30312-0.1763 0.61687-0.14386 0.92578-0.25976zm-0.25781 8.2598c0.0342 0.0296 0.0211 0.04829 0.0684 0.08008l-0.0469-0.0332c-0.011-0.0094-0.0111-0.03029-0.0215-0.04687z" fill="#363636"/>
 </g>
</svg>
