<svg width="4.2333mm" height="4.2333mm" version="1.1" viewBox="0 0 4.2333 4.2333" xmlns="http://www.w3.org/2000/svg">
 <path d="m1.4552 0.79375c-0.21919 0-0.39688 0.17769-0.39688 0.39688 2.355e-4 0.16798 0.10621 0.31763 0.26458 0.37362v2.6691h0.26458v-0.13229c0-0.22075 0.17612-0.39688 0.39688-0.39688h0.26458c0.36375 0 0.66146-0.29771 0.66146-0.66146v-0.55242c0.15838-0.055994 0.26435-0.20564 0.26458-0.37362 0-0.21919-0.17769-0.39688-0.39688-0.39688s-0.39688 0.17769-0.39688 0.39688c2.354e-4 0.16798 0.10621 0.31763 0.26458 0.37362v0.55242c0 0.22075-0.17612 0.39688-0.39688 0.39688h-0.26458c-0.14937 0-0.28582 0.052064-0.39688 0.13643v-2.0118c0.15838-0.055994 0.26435-0.20564 0.26458-0.37362 0-0.21919-0.17769-0.39688-0.39688-0.39688zm0 0.26458a0.13229 0.13229 0 0 1 0.13229 0.13229 0.13229 0.13229 0 0 1-0.13229 0.13229 0.13229 0.13229 0 0 1-0.13229-0.13229 0.13229 0.13229 0 0 1 0.13229-0.13229zm1.3229 0.92604a0.13229 0.13229 0 0 1 0.13229 0.13229 0.13229 0.13229 0 0 1-0.13229 0.13229 0.13229 0.13229 0 0 1-0.13229-0.13229 0.13229 0.13229 0 0 1 0.13229-0.13229z" fill="#363636"/>
 <path d="m0.79375 0c-0.29316 0-0.52917 0.23601-0.52917 0.52917v3.175c0 0.29316 0.23601 0.52917 0.52917 0.52917h2.6458c0.29316 0 0.52917-0.23601 0.52917-0.52917v-3.175c0-0.29316-0.23601-0.52917-0.52917-0.52917zm0 0.26458h2.6458c0.14658 0 0.26458 0.118 0.26458 0.26458v3.175c0 0.14658-0.118 0.26458-0.26458 0.26458h-2.6458c-0.14658 0-0.26458-0.118-0.26458-0.26458v-3.175c0-0.14658 0.118-0.26458 0.26458-0.26458z" fill="#363636"/>
</svg>
