<svg width="16px" height="16px" version="1.1" viewBox="0 0 16 16" xmlns="http://www.w3.org/2000/svg">
 <path d="m9.5 5c-0.27734 0-0.5 0.22266-0.5 0.5s0.22266 0.5 0.5 0.5h1.793l-3.1484 3.1445c-0.19141 0.19531-0.19141 0.51562 0 0.71094 0.19531 0.19141 0.51562 0.19141 0.71094 0l3.1445-3.1484v1.793c0 0.27734 0.22266 0.5 0.5 0.5s0.5-0.22266 0.5-0.5v-3.5z" fill="#363636"/>
 <path d="m4.5 14h7c0.277 0 0.5 0.223 0.5 0.5s-0.223 0.5-0.5 0.5h-7c-0.277 0-0.5-0.223-0.5-0.5s0.223-0.5 0.5-0.5z" fill="#363636"/>
 <path d="m2 2c-1.108 0-2 0.892-2 2v7c0 1.108 0.892 2 2 2h12c1.108 0 2-0.892 2-2v-7c0-1.108-0.892-2-2-2zm0 1h12c0.554 0 1 0.446 1 1v7c0 0.554-0.446 1-1 1h-12c-0.554 0-1-0.446-1-1v-7c0-0.554 0.446-1 1-1z" fill="#363636"/>
</svg>
