<svg width="16" height="16" version="1.1" xmlns="http://www.w3.org/2000/svg">
 <path d="m11.572 6.011a2.432 2.432 0 0 0-0.774 4.736l-1.902 3.393c-0.409 0-0.87 0.463-0.87 0.872l7.207 9e-3c0-0.409-0.47-0.88-0.88-0.88l-2.007-3.394a2.432 2.432 0 0 0 1.659-2.303 2.432 2.432 0 0 0-2.433-2.432zm-7.508-4.999-1e-3 1.076-2.742 2.21 0.553 1.106 1.35-0.458c0.216 0.27 0.543 0.429 0.89 0.429 0.594 0 1.068-0.46 1.11-1.054v1.69c0 0.54-0.619 1-1.158 1-1 0-2 0.54-2 1.671l0.912 1.21c-0.657 0-1.244 0.494-1.244 1.12h6.186c0-0.7-0.524-1.12-1.106-1.12l1.216-1.186v-3.331c0-1.848-0.935-3.258-2.783-3.258l-0.06 2e-3a1.076 1.076 0 0 0-0.026-0.273c-0.111-0.488-0.596-0.834-1.097-0.835z" fill="#363636"/>
</svg>
