<svg width="16px" height="16px" version="1.1" viewBox="0 0 16 16" xmlns="http://www.w3.org/2000/svg">
 <path d="m3.5 0c-1.3672 0-2.5 1.1328-2.5 2.5v6c0 1.8945 0.94922 3.668 2.5234 4.7188l3.9219 2.6133c0.33594 0.22266 0.77344 0.22266 1.1094 0l3.9219-2.6133c1.5742-1.0508 2.5234-2.8242 2.5234-4.7188v-6c0-1.3672-1.1328-2.5-2.5-2.5zm0 1h9c0.8148 0 1.5 0.68519 1.5 1.5v6c0 1.5605-0.78165 3.0213-2.0781 3.8867l-3.9199 2.6113c-0.00268 0.0018-0.00123 0.0018-0.00391 0l-3.9199-2.6113c-1.2965-0.86539-2.0781-2.3262-2.0781-3.8867v-6c0-0.81481 0.68519-1.5 1.5-1.5z" fill="#363636"/>
 <path d="m8 4a2 2 0 0 0-2 2 2 2 0 0 0 1 1.7266v2.2734c0 0.554 0.446 1 1 1s1-0.446 1-1v-2.2734a2 2 0 0 0 1-1.7266 2 2 0 0 0-2-2zm0 1a1 1 0 0 1 1 1 1 1 0 0 1-1 1 1 1 0 0 1-1-1 1 1 0 0 1 1-1z" fill="#363636" stroke-linecap="round" stroke-linejoin="round" stroke-width="2"/>
</svg>
