<svg width="16px" height="16px" version="1.1" viewBox="0 0 16 16" xmlns="http://www.w3.org/2000/svg">
 <path d="m8 0c-3.8555 0-7 3.1484-7 7 0 0.875 0.16406 1.7148 0.45703 2.4844 0.13672 0.39062 0.32813 0.76953 0.55859 1.1484 0.058594 0.09375 0.11328 0.18359 0.17188 0.27344h0.0039062c0.73047 1.1094 1.9961 2.2539 3.1172 3.2109 1.1211 0.95703 2.0938 1.6836 2.0938 1.6836 0.17578 0.13281 0.38623 0.19922 0.59766 0.19922s0.42188-0.066406 0.59766-0.19922c1e-7 0 0.97265-0.72656 2.0937-1.6836 1.1211-0.95703 2.3867-2.1016 3.1172-3.2109h0.003906c0.058594-0.089844 0.11328-0.17969 0.17188-0.27344 0.23047-0.3789 0.42188-0.75781 0.55859-1.1484 0.29297-0.76953 0.45703-1.6094 0.45703-2.4844 0-3.8516-3.1445-7-7-7zm0 1c3.311 0 6 2.6927 6 6 0 0.75-0.13958 1.4695-0.39062 2.1289-0.0034 0.008419-0.006666 0.016881-0.009766 0.025391-0.10605 0.303-0.26166 0.61721-0.46289 0.94922-0.0018 0.0029-0.002107 0.005012-0.003907 0.007812l-0.001953 0.001953c-0.057644 0.092365-0.10779 0.16968-0.15234 0.23828-2e-3 0.0013-0.00396 0.002607-0.00586 0.003907-0.61243 0.93011-1.8254 2.0592-2.9297 3.002-1.0939 0.93385-2.043 1.6426-2.043 1.6426s-0.94902-0.70872-2.043-1.6426c-1.1043-0.94271-2.3173-2.0718-2.9297-3.002-0.00195-0.0013-0.0038994-0.002607-0.0058594-0.003907-0.044553-0.068598-0.094696-0.14592-0.15234-0.23828l-0.0019531-0.001953c-0.00178-0.0028-0.0021063-0.004912-0.0039063-0.007812-0.20123-0.33201-0.35684-0.64622-0.46289-0.94922-0.0031399-0.0085075-0.0063954-0.016972-0.0097656-0.025391-0.25106-0.65944-0.39062-1.3789-0.39062-2.1289 0-3.3073 2.689-6 6-6z" fill="#363636"/>
 <path d="m8 4a3 3 0 0 0-3 3 3 3 0 0 0 3 3 3 3 0 0 0 3-3 3 3 0 0 0-3-3zm0 1a2 2 0 0 1 2 2 2 2 0 0 1-2 2 2 2 0 0 1-2-2 2 2 0 0 1 2-2z" fill="#363636" stroke-linecap="round" stroke-linejoin="round" stroke-width="2"/>
</svg>
