<svg width="16px" height="16px" version="1.1" viewBox="0 0 16 16" xmlns="http://www.w3.org/2000/svg">
 <g transform="rotate(-90,8,8)" fill="#363636">
  <path d="m15 4.5c0 1.9336-1.5664 3.5-3.5 3.5s-3.5-1.5664-3.5-3.5 1.5664-3.5 3.5-3.5 3.5 1.5664 3.5 3.5z"/>
  <path d="m8 11.5c0 1.9336-1.5664 3.5-3.5 3.5s-3.5-1.5664-3.5-3.5 1.5664-3.5 3.5-3.5 3.5 1.5664 3.5 3.5z"/>
  <path d="m11.5 8c-1.9336 0-3.5 1.5664-3.5 3.5s1.5664 3.5 3.5 3.5 3.5-1.5664 3.5-3.5-1.5664-3.5-3.5-3.5zm0 1c1.3789 0 2.5 1.1211 2.5 2.5s-1.1211 2.5-2.5 2.5-2.5-1.1211-2.5-2.5 1.1211-2.5 2.5-2.5z"/>
  <path d="m4.5 1c-1.9336 0-3.5 1.5664-3.5 3.5s1.5664 3.5 3.5 3.5 3.5-1.5664 3.5-3.5-1.5664-3.5-3.5-3.5zm0 1c1.3789 0 2.5 1.1211 2.5 2.5s-1.1211 2.5-2.5 2.5-2.5-1.1211-2.5-2.5 1.1211-2.5 2.5-2.5z"/>
 </g>
</svg>
