<svg width="16" height="16" version="1.1" xmlns="http://www.w3.org/2000/svg">
 <title>Gnome Symbolic Icon Theme</title>
 <g transform="translate(-483 105)" fill="#363636">
  <path class="ColorScheme-Text" d="m491-104c-1.662 0-3 1.338-3 3v4c0 1.662 1.338 3 3 3 0.38122 0 0.74519-0.070667 1.0801-0.19922a3.5 3.5 0 0 1 1.8984-2.4492c0.01343-0.11567 0.02148-0.23217 0.02148-0.35156v-4c0-1.662-1.338-3-3-3z"/>
  <path class="ColorScheme-Text" d="m486.5-98.998c-0.277 0-0.5 0.223-0.5 0.5v1.5c0 2.6008 1.967 4.7248 4.5 4.9746v1.0254h-2c-0.277 0-0.5 0.223-0.5 0.5s0.223 0.5 0.5 0.5h5c0.22648 0 0.41465-0.15164 0.47656-0.35742a3.5 3.5 0 0 1-0.91211-0.64258h-1.5644v-1.0254c0.26462-0.026099 0.52277-0.075211 0.77344-0.14062a3.5 3.5 0 0 1-0.24805-0.9668c-0.32706 0.085894-0.67064 0.13281-1.0254 0.13281-2.216 0-4-1.784-4-4v-1.5c0-0.277-0.223-0.5-0.5-0.5zm9 0c-0.277 0-0.5 0.223-0.5 0.5v1.5c0 0.011203 9e-5 0.022023 0 0.033203a3.5 3.5 0 0 1 0.5-0.035156 3.5 3.5 0 0 1 0.5 0.035156c7e-5 -0.011118 0-0.022067 0-0.033203v-1.5c0-0.277-0.223-0.5-0.5-0.5z"/>
  <circle cx="495.5" cy="-93.5" r="2.5" color="#000000" color-rendering="auto" enable-background="new" image-rendering="auto" shape-rendering="auto" solid-color="#000000" style="isolation:auto;mix-blend-mode:normal;paint-order:normal"/>
 </g>
</svg>
