<?xml version="1.0" encoding="UTF-8"?>
<svg width="16px" height="16px" version="1.1" viewBox="0 0 16 16" xmlns="http://www.w3.org/2000/svg">
 <path transform="translate(-168,-16)" d="m173 17c-1.662 0-3 1.338-3 3v2.3574c0.28274-0.40665 0.61912-0.77325 1-1.0898v-1.2676c0-1.108 0.892-2 2-2h8c1.108 0 2 0.892 2 2v8c0 1.108-0.892 2-2 2h-3.3574c-0.92058 0.64693-2.0174 0.99596-3.1426 1h6.5c1.662 0 3-1.338 3-3v-8c0-1.662-1.338-3-3-3zm1.5 4c-2.4853 0-4.5 2.0147-4.5 4.5 3e-3 1.0194 0.35221 2.0076 0.99023 2.8027l-2.6582 2.6582c-0.19587 0.19587-0.19587 0.51116 0 0.70703 0.19587 0.19587 0.51116 0.19587 0.70703 0l2.6582-2.6582c0.79511 0.63802 1.7833 0.98715 2.8027 0.99023 2.4853 0 4.5-2.0147 4.5-4.5s-2.0147-4.5-4.5-4.5zm0 1c1.933 0 3.5 1.567 3.5 3.5s-1.567 3.5-3.5 3.5-3.5-1.567-3.5-3.5 1.567-3.5 3.5-3.5z" fill="#363636"/>
</svg>
