<svg width="16" height="16" version="1.1" xmlns="http://www.w3.org/2000/svg">
 <title>Gnome Symbolic Icon Theme</title>
 <g transform="translate(-83 -175)" fill="#363636" fill-opacity=".99608">
  <path d="m85.008 175.98v14h11c0.51254 0 1-0.53386 1-1h-11v-2h10c0.57495 0 1-0.60225 1-1v-9c0-0.48814-0.44713-1-1-1h-11zm0.99219 1.0176h10v9h-10v-9z" enable-background="new" style="paint-order:normal"/>
  <path d="m89.457 177.98h0.26562v1.0117h-0.12695c-0.36996 0-0.55078 0.20372-0.55078 0.55859v1.1172c0 0.52098-0.15854 0.74-0.50586 0.8457 0.34732 0.10571 0.50586 0.32472 0.50586 0.84571v1.1445c0 0.35486 0.18082 0.55859 0.55078 0.55859h0.12695v0.98438h-0.26562c-0.94381 0-1.4277-0.48327-1.4277-1.3516v-1.3066c0-0.24162-0.12817-0.35427-0.33203-0.35351l-0.34179-2e-3v-1.0059h0.34179c0.20386 1.6e-4 0.33203-0.11385 0.33203-0.35546v-1.3398c0-0.86831 0.48393-1.3516 1.4277-1.3516zm2.8594 0h0.26563c0.94381 0 1.4277 0.48325 1.4277 1.3516v1.3398c0 0.24161 0.12817 0.35562 0.33203 0.35546h0.3418v1.0059l-0.3418 2e-3c-0.20386-7.6e-4 -0.33203 0.1119-0.33203 0.35352v1.3066c0 0.8683-0.48392 1.3516-1.4277 1.3516h-0.26563v-0.98437h0.12696c0.36996 0 0.55078-0.20373 0.55078-0.55859v-1.1445c0-0.52099 0.15854-0.74 0.50586-0.84571-0.34732-0.1057-0.50586-0.32472-0.50586-0.8457v-1.1172c0-0.35487-0.18082-0.55859-0.55078-0.55859h-0.12696z" enable-background="new" style="paint-order:normal"/>
 </g>
</svg>
