<svg width="16px" height="16px" version="1.1" viewBox="0 0 16 16" xmlns="http://www.w3.org/2000/svg">
 <path d="m14.293 0-3.8418 3.8418c0.26432 0.20518 0.50185 0.44271 0.70703 0.70703l4.5488-4.5488h-1.4141zm-6.2813 4c-1.6563 0-3 1.3398-3 3v3h3c1.6602 0.007812 3-1.3438 3-3 0-1.6602-1.3398-3-3-3zm-0.011719 1a2 2 0 0 1 2 2 2 2 0 0 1-2 2h-2v-2a2 2 0 0 1 2-2z" fill="#363636"/>
 <path d="m4.5 14h7c0.277 0 0.5 0.223 0.5 0.5s-0.223 0.5-0.5 0.5h-7c-0.277 0-0.5-0.223-0.5-0.5s0.223-0.5 0.5-0.5z" fill="#363636"/>
 <path d="m2 2c-1.108 0-2 0.892-2 2v7c0 1.108 0.892 2 2 2h12c1.108 0 2-0.892 2-2v-7c0-0.78163-0.44522-1.4539-1.0957-1.7832l-0.79102 0.79102c0.49971 0.056443 0.88672 0.4769 0.88672 0.99219v7c0 0.554-0.446 1-1 1h-12c-0.554 0-1-0.446-1-1v-7c0-0.554 0.446-1 1-1h7.8789l1-1h-8.8789z" fill="#363636"/>
</svg>
