<svg width="16" height="16" version="1.1" xmlns="http://www.w3.org/2000/svg">
 <title>Gnome Symbolic Icon Theme</title>
 <g transform="translate(-122 -490)">
  <path d="m124 491c-1.108 0-2 0.892-2 2v10c0 1.108 0.892 2 2 2h6.0156a5 5 0 0 1-0.59179-1h-5.4238c-0.554 0-1-0.446-1-1v-10c0-0.554 0.446-1 1-1h12c0.554 0 1 0.446 1 1v5.002a5 5 0 0 1 1 1v-6.002c0-1.108-0.892-2-2-2h-12z" fill="#363636"/>
  <rect transform="matrix(.70711 -.70711 -.70711 -.70711 0 0)" x="-264.92" y="-443.36" width="4" height="1" fill="#363636"/>
  <rect transform="rotate(45)" x="439.36" y="260.92" width="4" height="1" fill="#363636"/>
  <g transform="translate(-15.691 -.18603)">
   <path d="m149.4 498.18c-0.11093 0-0.26671 0.032-0.39648 0.14063-0.12978 0.10864-0.19138 0.26714-0.20704 0.38086l0.01-0.0488-0.16992 0.71289c-0.0695 0.0254-0.13536 0.0523-0.20117 0.082l-0.6211-0.38086h-2e-3c-0.0899-0.054-0.23759-0.10946-0.39648-0.0898-0.1589 0.0196-0.27734 0.10143-0.34571 0.16406l-8e-3 6e-3 -0.42578 0.41992-8e-3 0.01c-0.0773 0.0844-0.1549 0.22617-0.16407 0.37695-9e-3 0.15079 0.0398 0.27463 0.0859 0.35547l6e-3 8e-3 0.39063 0.62696c-0.0278 0.0608-0.0505 0.12526-0.0762 0.19336l-0.70898 0.16601-4e-3 2e-3c-0.0807 0.0202-0.21876 0.0672-0.33008 0.20118-0.11131 0.13395-0.13671 0.2954-0.13671 0.39453v0.57422c0 0.11086 0.0299 0.26857 0.13867 0.39843 0.1088 0.12987 0.26937 0.19142 0.38281 0.20703l-0.0488-0.01 0.71289 0.16992c0.0234 0.0626 0.0458 0.12299 0.0723 0.18164l-0.38672 0.62891c-0.0512 0.0836-0.10534 0.21538-0.0918 0.37695 0.0135 0.16157 0.10547 0.31007 0.19532 0.39258l0.39062 0.39258h2e-3c0.0787 0.0786 0.2097 0.16377 0.36719 0.18164 0.15749 0.0179 0.30018-0.036 0.39063-0.0918l0.62695-0.38476c0.0619 0.0285 0.12458 0.054 0.18945 0.0781l0.17383 0.7168-0.01-0.0527c0.0154 0.11649 0.0849 0.28837 0.22071 0.39453 0.1358 0.10617 0.28177 0.125 0.38281 0.125h0.58398c0.1013 0 0.25628-0.0243 0.38868-0.13086 0.13239-0.10655 0.19123-0.2576 0.21093-0.35546l0.16993-0.69532c0.065-0.0244 0.12822-0.0498 0.18945-0.0781l0.62109 0.38281c0.0903 0.0558 0.23467 0.10973 0.39258 0.0918 0.15791-0.0179 0.28869-0.10314 0.36719-0.18164l2e-3 -2e-3 0.39063-0.39453c0.0842-0.0774 0.18113-0.22594 0.19531-0.39062 0.0142-0.16469-0.0403-0.28881-0.084-0.36524l-4e-3 -8e-3 -0.39063-0.63086c0.027-0.0587 0.0503-0.11874 0.0742-0.18164l0.71485-0.16992-0.0508 0.01c0.11629-0.0154 0.28639-0.0848 0.39258-0.2207 0.1062-0.13586 0.12696-0.28378 0.12696-0.38476v-0.57422c0-0.0901-0.0164-0.24271-0.125-0.38282-0.10861-0.1401-0.25456-0.19202-0.33789-0.21289l-4e-3 -2e-3 -0.70703-0.16601c-0.0264-0.0686-0.0484-0.13332-0.0762-0.19336l0.37695-0.61329v-2e-3c0.0522-0.0819 0.11373-0.20906 0.10351-0.375-0.0103-0.16674-0.10901-0.32165-0.19921-0.4043l-0.39649-0.39257 2e-3 4e-3c-0.0712-0.0711-0.19952-0.16161-0.35937-0.18164-0.15985-0.02-0.29383 0.0309-0.375 0.0742l-0.0137 8e-3 -0.63086 0.38672c-0.0625-0.0287-0.12755-0.0542-0.19531-0.0801l-0.16797-0.68945c-0.0182-0.0973-0.0731-0.25008-0.20703-0.36133-0.13392-0.11125-0.2935-0.13672-0.39454-0.13672h-0.37695zm0.29297 1.0625 0.21875 0.89844 0.29492 0.0723c0.19376 0.0477 0.38291 0.13158 0.54883 0.22461l0.25586 0.14453 0.76758-0.47266-0.46875 0.76172 0.13476 0.25391c0.0848 0.15916 0.17933 0.36395 0.22071 0.54882l0.0684 0.30469 0.88282 0.20899-0.88282 0.21093-0.0703 0.29883c-0.0436 0.18305-0.13125 0.38298-0.21484 0.52344l-0.1543 0.25977 0.48047 0.77734-0.7793-0.48242-0.26367 0.16211c-0.15023 0.0933-0.3188 0.16906-0.52344 0.21875l-0.29687 0.0703-0.21875 0.89844-0.21875-0.89844-0.29883-0.0723c-0.1891-0.0451-0.38063-0.12612-0.51758-0.21289l-0.26367-0.16797-0.7832 0.48243 0.47461-0.77344-0.15039-0.25781c-0.0851-0.14604-0.16847-0.3406-0.21289-0.52735l-0.0703-0.29883-0.88281-0.21093 0.88281-0.20899 0.0684-0.30469c0.0427-0.19066 0.13552-0.39454 0.2168-0.54101l0.14258-0.25781-0.47461-0.76368 0.7793 0.47852 0.26171-0.16406c0.1112-0.0693 0.3439-0.16795 0.53907-0.2168l0.29492-0.0742z" fill="#363636"/>
  </g>
  <circle cx="134" cy="502" r="1" fill="#363636"/>
 </g>
</svg>
