<svg width="16" height="16" version="1.0" xmlns="http://www.w3.org/2000/svg">
 <rect x="2" y="14" width="11.989" height="1" rx=".5" ry=".5" color="#000000" fill="#363636" opacity=".257" overflow="visible" stroke-width=".79057"/>
 <rect x="2" y="14" width="7.625" height="1" rx=".5" ry=".5" color="#000000" fill="#363636" overflow="visible" stroke-width=".79057"/>
 <path d="m8 1c-3.3122 0-5.9975 2.6842-6 5.9961v4.6426c0.00186 0.75171 0.61082 1.3613 1.3633 1.3613h0.0078126 4.6309c3.3126-0.0019 5.998-2.6871 5.998-6 0-3.3137-2.6863-6-6-6zm0 1c2.7733 0 5 2.2267 5 5 0 2.7726-2.2255 4.9984-4.998 5h-4.6309-0.0078126c-0.21226 0-0.36195-0.1499-0.36328-0.36133v-4.6426c0.0021202-2.7718 2.228-4.9961 5-4.9961z" fill="#363636"/>
 <path d="m9.2227 3.4386v7.7e-5c1.0112 0 1.9662 0.77432 1.9662 1.8408 0 0.09887-0.0011 0.19728-0.01693 0.3098-0.02798 0.28364-0.2874 0.48692-0.57002 0.44685-0.2829-0.04046-0.47501-0.30797-0.42244-0.58832 0.0045-0.03161 0.0066-0.08196 0.0066-0.16832 0-0.60454-0.49455-0.83825-0.96333-0.83825-0.46849 0-0.8908 0.3924-0.8924 0.83711v1.5394l0.86921-0.0058c0.67857-0.01402 0.68551 1.0073 0.00694 1.0025l-0.87615 0.0055-0.00625 1.4361c-0.10489 1.1271-1.0658 2.0286-2.2202 2.0286-1.2236 0-2.2329-0.99959-2.2329-2.2245 0.036834-1.2601 1.0451-2.2509 2.3117-2.239l0.70555-0.0049v1.001l-0.71142 0.0062c-0.69628 0.02051-1.2916 0.49206-1.303 1.2366 0 0.67877 0.54938 1.2219 1.2305 1.2219 0.68046 0 1.2237-0.49432 1.2237-1.2205v-3.7866c3.124e-4 -0.07018 0.00366-0.12642 0.011745-0.20394 0.11437-0.92648 0.94388-1.6325 1.883-1.6325z" fill="#363636"/>
</svg>
