<svg width="16" height="16" version="1.1" viewBox="0 0 16 16" xmlns="http://www.w3.org/2000/svg">
 <g transform="translate(-154.27 -166.1)" fill="#363636">
  <polygon class="st1" transform="matrix(.20821 0 0 .20821 154.27 166.1)" points="29.549 32.877 20.618 38.831 20.618 48.012 43.32 32.877 20.618 17.742 20.618 26.923"/>
  <polygon class="st2" transform="matrix(.20821 0 0 .20821 154.27 166.1)" points="55.388 28.962 32.685 44.097 55.388 59.232 55.388 50.051 46.457 44.097 55.388 38.143" opacity=".65"/>
  <path d="m158.27 167.18c-3.6465 2.1172-5.0237 6.7013-3.1478 10.478l0.86939-0.50195c-1.6006-3.2957-0.38906-7.2681 2.7784-9.1096 3.1785-1.8223 7.2245-0.88534 9.2784 2.1487l0.88462-0.51074c-2.3362-3.5184-7.0049-4.6148-10.663-2.504z" opacity=".65" stroke-linecap="round" stroke-linejoin="round" stroke-width="2"/>
  <path d="m155.62 178.52c2.3324 3.5128 6.9909 4.6122 10.648 2.5128 3.6465-2.1172 5.0237-6.7013 3.1478-10.478l-0.8694 0.50195c1.6006 3.2957 0.38907 7.2681-2.7784 9.1096-3.1785 1.8223-7.2245 0.88534-9.2784-2.1487z" stroke-linecap="round" stroke-linejoin="round" stroke-width="2"/>
 </g>
</svg>
