<svg width="16" height="16" version="1.1" xmlns="http://www.w3.org/2000/svg">
 <path d="m3.4902 0c-0.27613 2.7609e-5 -0.49997 0.22387-0.5 0.5v0.001953l-0.00195 0.91211-2.75 2.2168c-0.18201 0.1475-0.23721 0.4016-0.13281 0.61133l0.5918 1.1855c0.11168 0.22328 0.37093 0.32998 0.60742 0.25l1.3203-0.44727c0.28568 0.20068 0.55986 0.44141 0.91797 0.44141 0.26594 0 0.46375-0.16571 0.6875-0.27734v0.45898c0 0.09803-0.067925 0.23971-0.2207 0.36523s-0.37127 0.20508-0.51758 0.20508c-0.62533 0-1.2598 0.16336-1.7695 0.53906-0.50977 0.3757-0.87305 0.99718-0.87305 1.75 2.8456e-4 0.10863 0.035936 0.21421 0.10156 0.30078l0.5957 0.78906c-0.57773 0.27499-1.0527 0.72218-1.0527 1.4043 2.761e-5 0.27613 0.22387 0.49997 0.5 0.5h6.623c0.27613-2.8e-5 0.49997-0.22387 0.5-0.5 0-0.62764-0.36143-1.0535-0.81641-1.3457l0.7832-0.76367c0.097369-0.094207 0.15234-0.22389 0.15234-0.35938v-3.5664c0-1.0736-0.26946-2.0587-0.85742-2.7969-0.51344-0.64464-1.311-1.0135-2.2402-1.1113-0.18643-0.76619-0.89029-1.2622-1.6484-1.2637zm0.49805 1.3691c0.049389 0.063971 0.1711 0.064625 0.1875 0.13672 0.011982 0.053645 0.017429 0.10912 0.015625 0.16406-0.0092 0.28927 0.22835 0.52592 0.51758 0.51562l0.046875-0.00195h0.00195c0.86089 5.171e-4 1.431 0.30362 1.8379 0.81445 0.40722 0.51127 0.64062 1.2689 0.64062 2.1738v3.3555l-1.1523 1.123c-0.32019 0.31337-0.098411 0.85728 0.34961 0.85742 0.20451 0 0.37548 0.06986 0.5 0.19922h-4.8437c0.10983-0.04776 0.10755-0.19922 0.23633-0.19922 0.41287 7.25e-4 0.64869-0.47092 0.40039-0.80078l-0.82617-1.0957c0.032633-0.37433 0.15437-0.65092 0.41602-0.84375 0.29323-0.21611 0.73045-0.34375 1.1758-0.34375 0.43078 0 0.82948-0.16637 1.1523-0.43164 0.32286-0.26527 0.58594-0.65854 0.58594-1.1387v-1.8105c-0.011596-0.63184-0.94202-0.66461-0.99805-0.035156-0.027581 0.39008-0.31162 0.66406-0.68945 0.66406-0.21878 0-0.42519-0.099853-0.5625-0.27148-0.13168-0.16384-0.35177-0.22784-0.55078-0.16016l-1.0332 0.34961-0.2168-0.43359 2.623-2.1133c0.11733-0.094919 0.18552-0.23775 0.18555-0.38867zm7.5629 4.1096c-1.7057 0.00321-2.8611 1.124-3.0825 2.4783-0.19155 1.1721 0.42551 2.3748 1.6055 3.0605l-1.8047 3.2188c-0.20642 0.08123-0.44134 0.11863-0.5918 0.26953-0.25034 0.2511-0.44727 0.57757-0.44727 0.98438 2.76e-5 0.27613 0.22387 0.49997 0.5 0.5l7.7168 0.009766c0.27613-2.8e-5 0.49997-0.22387 0.5-0.5 0-0.41048-0.20101-0.73598-0.45312-0.98828-0.15241-0.15252-0.38871-0.19144-0.59766-0.27344l-1.8926-3.2012c0.94139-0.54682 1.6276-1.4598 1.6289-2.5781 0-1.5711-1.2335-2.7593-2.752-2.959-0.13089-0.017216-0.21729-0.021991-0.32963-0.021269zm-0.02388 0.87478h2e-3c1.1673 5.68e-4 2.1035 0.93793 2.1035 2.1055-0.0019 0.90442-0.57789 1.7027-1.4355 1.9902-0.30165 0.10117-0.43336 0.45461-0.27148 0.72852l2.1484 3.6348c0.08052 0.10185 0.19748 0.16838 0.32617 0.18555l-5.627-0.0059c0.12957-0.01864 0.24665-0.08735 0.32612-0.19137l2.0352-3.6328c0.15194-0.27252 0.019932-0.61611-0.27539-0.7168-1.174-0.39671-1.5566-1.3901-1.4023-2.334 0.15417-0.94335 0.83254-1.7604 2.0703-1.7637z" fill="#363636" stroke-linecap="round" stroke-linejoin="round"/>
</svg>
