<svg width="16px" height="16px" version="1.1" viewBox="0 0 16 16" xmlns="http://www.w3.org/2000/svg">
 <path d="m8 0v1.5c0 0.13281-0.054688 0.26172-0.14453 0.35547-0.09375 0.09375-0.21875 0.14453-0.34766 0.14453h-3.0117c-0.53516 0-1.0312 0.28906-1.2969 0.75-0.26562 0.46484-0.26562 1.0352 0 1.5 0.26562 0.46094 0.76172 0.75 1.2969 0.75h3.0078c0.17969 0 0.33984 0.09375 0.42969 0.25 0.042968 0.074219 0.066406 0.16406 0.066406 0.25v0.5h-5c-1.662 0-3 1.338-3 3v4c0 1.662 1.338 3 3 3h10c1.662 0 3-1.338 3-3v-4c0-0.87646-0.37522-1.6595-0.9707-2.207l-0.70703 0.70508c0.41558 0.36597 0.67773 0.90213 0.67773 1.502v4c0 1.108-0.892 2-2 2h-10c-1.108 0-2-0.892-2-2v-4c0-1.108 0.892-2 2-2h6.1875l0.99609-1h-1.1836v-0.5c0-0.25781-0.066406-0.51562-0.19922-0.75-0.26562-0.46094-0.76172-0.75-1.2969-0.75h-3.0078c-0.17969 0-0.33984-0.09375-0.42969-0.25-0.089844-0.15234-0.089844-0.34766 0-0.5 0.089844-0.15625 0.25-0.25 0.42969-0.25h3.0117c0.39844 0 0.77734-0.16016 1.0547-0.44141 0.28125-0.28125 0.4375-0.66016 0.4375-1.0586v-1.5h-1zm7 3c-0.26562 0-0.51953 0.10547-0.70312 0.29297h-0.003906l-6.293 6.3164v1.3906h1.3906l6.3164-6.293-0.003906-0.0039062c0.1914-0.18359 0.29688-0.4375 0.29688-0.70312 0-0.55078-0.44922-1-1-1z" fill="#363636"/>
</svg>
