<svg width="36" height="36" version="1.1" viewBox="0 0 36 36" xmlns="http://www.w3.org/2000/svg">
 <path d="m2 0c-1.108 0-2 0.892-2 2v6c0 1.108 0.892 2 2 2h6c1.108 0 2-0.892 2-2v-6c0-1.108-0.892-2-2-2h-6zm13 0c-1.108 0-2 0.892-2 2v6c0 1.108 0.892 2 2 2h6c1.108 0 2-0.892 2-2v-6c0-1.108-0.892-2-2-2h-6zm13 0c-1.108 0-2 0.892-2 2v6c0 1.108 0.892 2 2 2h6c1.108 0 2-0.892 2-2v-6c0-1.108-0.892-2-2-2h-6zm-10.318 1.2188c0.94726 0 1.6543 0.15625 2.123 0.46875 0.472 0.30924 0.70898 0.77539 0.70898 1.4004 0 0.42643-0.11328 0.77734-0.33789 1.0508-0.22461 0.27018-0.55664 0.45964-0.99609 0.57031 0.49153 0.12695 0.86523 0.34831 1.1191 0.66406 0.25716 0.3125 0.38477 0.71224 0.38477 1.1973 0 0.72265-0.2767 1.2728-0.83008 1.6504-0.55339 0.37435-1.3607 0.56055-2.4219 0.56055-0.37435 0-0.74935-0.029948-1.127-0.091797-0.37435-0.058593-0.74544-0.14909-1.1133-0.26953v-1.4492c0.35156 0.17578 0.69987 0.30924 1.0449 0.40039 0.34831 0.087891 0.6901 0.13086 1.0254 0.13086 0.49804 0 0.87891-0.085286 1.1426-0.25781 0.26693-0.17253 0.40039-0.41992 0.40039-0.74219 0-0.33203-0.13672-0.58268-0.41016-0.75195-0.27018-0.17253-0.67057-0.25977-1.2012-0.25977h-0.75195v-1.2109h0.79102c0.472 0 0.82357-0.072266 1.0547-0.21875 0.23112-0.14974 0.3457-0.37695 0.3457-0.67969 0-0.27995-0.11133-0.49544-0.33594-0.64844-0.22461-0.15299-0.54297-0.23047-0.95312-0.23047-0.30273 0-0.60872 0.035156-0.91797 0.10352-0.30924 0.068359-0.61588 0.16927-0.92188 0.30273v-1.377c0.37109-0.10417 0.73893-0.18229 1.1035-0.23438s0.72266-0.078125 1.0742-0.078125zm-12.873 0.0078125c0.87239 0 1.5495 0.19206 2.0312 0.57617 0.48502 0.38411 0.72852 0.92057 0.72852 1.6074 0 0.39713-0.10352 0.76823-0.30859 1.1133-0.20508 0.3418-0.63542 0.80078-1.293 1.377l-1.5586 1.3672h3.209v1.3809h-5.2988v-1.3809l2.6621-2.3496c0.23763-0.21484 0.41341-0.42383 0.52734-0.62891s0.16992-0.41927 0.16992-0.64062c0-0.3418-0.11458-0.61589-0.3457-0.82422-0.22786-0.20833-0.5332-0.3125-0.91406-0.3125-0.29297 0-0.61263 0.0625-0.96094 0.18945-0.34831 0.1237-0.72201 0.30925-1.1191 0.55664v-1.6016c0.42318-0.13997 0.84245-0.24479 1.2559-0.31641 0.41341-0.07487 0.81771-0.11328 1.2148-0.11328zm23.771 0.13477h4.6738v1.3809h-3.1738v1.1289c0.14323-0.039063 0.28646-0.068359 0.42969-0.087891 0.14648-0.022786 0.29688-0.035156 0.45312-0.035156 0.88867 0 1.5814 0.22396 2.0762 0.66992 0.49479 0.44271 0.74219 1.0612 0.74219 1.8555 0 0.78776-0.27018 1.4036-0.81055 1.8496-0.53711 0.44596-1.2852 0.66992-2.2422 0.66992-0.41341 0-0.82357-0.041667-1.2305-0.12305-0.40365-0.078125-0.80469-0.19857-1.2051-0.36133v-1.4785c0.39713 0.22786 0.77214 0.39779 1.127 0.51172 0.35807 0.11393 0.69596 0.17188 1.0117 0.17188 0.45573 0 0.8138-0.11068 1.0742-0.33203 0.26367-0.22461 0.39453-0.52734 0.39453-0.9082 0-0.38411-0.13086-0.68685-0.39453-0.9082-0.26041-0.22135-0.61849-0.33203-1.0742-0.33203-0.27018 0-0.55924 0.035807-0.86524 0.10742-0.30599 0.068359-0.63476 0.17578-0.98633 0.32227v-4.1016zm-26.58 11.639c-1.108 0-2 0.892-2 2v6c0 1.108 0.892 2 2 2h6c1.108 0 2-0.892 2-2v-6c0-1.108-0.892-2-2-2h-6zm13 0c-1.108 0-2 0.892-2 2v6c0 1.108 0.892 2 2 2h6c1.108 0 2-0.892 2-2v-6c0-1.108-0.892-2-2-2h-6zm-9.4453 1.2305c0.33529 0 0.66081 0.026035 0.97656 0.078125 0.31575 0.05208 0.62826 0.13021 0.9375 0.23438v1.3477c-0.30924-0.14649-0.60156-0.25391-0.875-0.32227-0.27344-0.071614-0.54037-0.10742-0.80078-0.10742-0.55989 0-0.99609 0.15625-1.3086 0.46875-0.3125 0.30924-0.49479 0.76888-0.54688 1.3809 0.21484-0.1595 0.44857-0.27734 0.69922-0.35547 0.25065-0.08138 0.52409-0.12305 0.82031-0.12305 0.74544 0 1.3451 0.2181 1.8008 0.6543 0.45898 0.4362 0.68945 1.0085 0.68945 1.7148 0 0.78125-0.25651 1.4069-0.76758 1.8789-0.51107 0.46875-1.1953 0.70312-2.0547 0.70312-0.94726 0-1.6823-0.31901-2.2031-0.95703-0.51758-0.64127-0.77539-1.5495-0.77539-2.7246 0-1.2044 0.30274-2.1491 0.9082-2.8359 0.60872-0.6901 1.4421-1.0352 2.5-1.0352zm12.338 0.12109h2.0898v4.5996h1.041v1.3613h-1.041v1.3281h-1.7773v-1.3281h-3.2324v-1.6113l2.9199-4.3496zm0.3125 1.5469-2.0605 3.0527h2.0605v-3.0527zm9.7949 1.1016c-1.108 0-2 0.892-2 2v6c0 1.108 0.892 2 2 2h6c1.108 0 2-0.892 2-2v-6c0-1.108-0.892-2-2-2h-6zm-22.855 1.043c-0.32878 0-0.57617 0.10742-0.74219 0.32226-0.16276 0.21159-0.24414 0.5306-0.24414 0.95703 0 0.42643 0.08138 0.74805 0.24414 0.96289 0.16602 0.21159 0.41341 0.31641 0.74219 0.31641 0.33203 0 0.57943-0.10482 0.74219-0.31641 0.16602-0.21484 0.24805-0.53646 0.24805-0.96289 0-0.42643-0.082031-0.74544-0.24805-0.95703-0.16276-0.21484-0.41016-0.32226-0.74219-0.32226zm25.715 0.25c0.95052 0 1.6862 0.31966 2.207 0.96094 0.52083 0.64128 0.78125 1.5488 0.78125 2.7207 0 1.2044-0.30534 2.1517-0.91406 2.8418-0.60872 0.68685-1.4427 1.0293-2.5039 1.0293-0.3418 0-0.66992-0.026035-0.98242-0.078125-0.3125-0.04883-0.61849-0.1237-0.91797-0.22461v-1.3477c0.29948 0.13997 0.58594 0.24674 0.85938 0.31836 0.27344 0.06836 0.54362 0.10156 0.81055 0.10156 0.55989 0 0.9961-0.15365 1.3086-0.46289 0.3125-0.3125 0.4974-0.77474 0.55274-1.3867-0.22135 0.16276-0.45833 0.28385-0.70898 0.36523-0.25065 0.08138-0.52148 0.12305-0.81445 0.12305-0.74544 0-1.3477-0.21745-1.8066-0.65039-0.45573-0.4362-0.68359-1.0091-0.68359-1.7188 0-0.78451 0.25391-1.4128 0.76172-1.8848 0.51106-0.472 1.1947-0.70703 2.0508-0.70703zm-0.009766 1.1816c-0.32877 0-0.57617 0.10742-0.74219 0.32227s-0.25 0.53386-0.25 0.95703c0 0.42643 0.08398 0.74609 0.25 0.96094 0.16602 0.21159 0.41341 0.31836 0.74219 0.31836 0.32878 0 0.57617-0.10677 0.74219-0.31836 0.16602-0.21484 0.24805-0.5345 0.24805-0.96094 0-0.42318-0.08203-0.74219-0.24805-0.95703-0.16602-0.21484-0.41341-0.32227-0.74219-0.32227zm-28.85 6.5254c-1.108 0-2 0.892-2 2v6c0 1.108 0.892 2 2 2h6c1.108 0 2-0.892 2-2v-6c0-1.108-0.892-2-2-2h-6zm13 0c-1.108 0-2 0.892-2 2v6c0 1.108 0.892 2 2 2h6c1.108 0 2-0.892 2-2v-6c0-1.108-0.892-2-2-2h-6zm3.002 1.2324c0.88216 0 1.5527 0.16016 2.0117 0.48242 0.45898 0.31901 0.68945 0.78776 0.68945 1.4062 0 0.41341-0.11393 0.75846-0.3418 1.0352-0.22461 0.27669-0.55924 0.48177-1.002 0.61523 0.49479 0.13672 0.86849 0.36068 1.1191 0.66992 0.2539 0.30599 0.38086 0.69336 0.38086 1.1621 0 0.72265-0.24089 1.2695-0.72266 1.6406-0.47852 0.36784-1.1908 0.55078-2.1348 0.55078-0.94726 0-1.6634-0.18294-2.1484-0.55078-0.48177-0.37109-0.72266-0.91797-0.72266-1.6406 0-0.46875 0.1263-0.85612 0.37695-1.1621 0.25391-0.30924 0.62826-0.5332 1.123-0.66992-0.44271-0.13346-0.77734-0.33854-1.002-0.61523-0.22461-0.27669-0.33594-0.62175-0.33594-1.0352 0-0.61524 0.22852-1.084 0.6875-1.4062 0.45898-0.32227 1.1328-0.48242 2.0215-0.48242zm-15.809 0.11914h5.4941v1.0605l-2.8418 6.2305h-1.832l2.6914-5.9082h-3.5117v-1.3828zm15.809 1.0625c-0.29948 0-0.5306 0.07813-0.69336 0.23438-0.1595 0.15625-0.23828 0.3776-0.23828 0.66406 0 0.28971 0.07878 0.51172 0.23828 0.66797 0.16276 0.15625 0.39388 0.23438 0.69336 0.23438 0.29297 0 0.52018-0.07813 0.67969-0.23438 0.1595-0.15625 0.23828-0.37826 0.23828-0.66797s-0.078782-0.51107-0.23828-0.66406c-0.15951-0.15625-0.38672-0.23438-0.67969-0.23438zm0 2.9785c-0.35156 0-0.62174 0.09505-0.81055 0.28711-0.1888 0.19206-0.2832 0.4681-0.2832 0.82617 0 0.35807 0.0944 0.63216 0.2832 0.82422 0.1888 0.1888 0.45898 0.2832 0.81055 0.2832 0.34831 0 0.61524-0.0944 0.80078-0.2832 0.18555-0.19206 0.2793-0.46615 0.2793-0.82422 0-0.36133-0.09375-0.63737-0.2793-0.82617-0.18554-0.19206-0.45247-0.28711-0.80078-0.28711z" color="#000000" color-rendering="auto" fill="#363636" image-rendering="auto" shape-rendering="auto" solid-color="#000000" style="isolation:auto;mix-blend-mode:normal"/>
</svg>
