<svg width="16px" height="16px" version="1.1" viewBox="0 0 16 16" xmlns="http://www.w3.org/2000/svg">
 <path d="m0.69922 4.2031c0 1.9336 1.5703 3.5039 3.5039 3.5039s3.5039-1.5703 3.5039-3.5039-1.5703-3.5039-3.5039-3.5039-3.5039 1.5703-3.5039 3.5039zm2.0039 1.9727c0-0.27734 0.21875-0.50391 0.49219-0.50391 0.27344 0 0.49219 0.22656 0.49219 0.50391 0 0.27734-0.21875 0.5-0.49219 0.5-0.27344 0-0.49219-0.22266-0.49219-0.5z" fill="#363636" opacity=".5"/>
 <path d="m0.69922 11.797c0 1.9336 1.5703 3.5039 3.5039 3.5039s3.5039-1.5703 3.5039-3.5039-1.5703-3.5-3.5039-3.5-3.5039 1.5664-3.5039 3.5zm2.0039 2.0039c0-0.26953 0.21875-0.48828 0.49219-0.48828 0.27344 0 0.49219 0.21875 0.49219 0.48828s-0.21875 0.48828-0.49219 0.48828c-0.27344 0-0.49219-0.21875-0.49219-0.48828z" fill="#363636"/>
 <path d="m8.2969 4.2031c0 1.9336 1.5664 3.5039 3.5 3.5039s3.5039-1.5703 3.5039-3.5039-1.5703-3.5039-3.5039-3.5039-3.5 1.5703-3.5 3.5039zm2 2c0-0.27734 0.22266-0.50391 0.5-0.50391 0.27344 0 0.5 0.22656 0.5 0.50391s-0.22656 0.5-0.5 0.5c-0.27734 0-0.5-0.22266-0.5-0.5z" fill="#363636"/>
 <path d="m8.2969 11.797c0 1.9336 1.5664 3.5039 3.5 3.5039s3.5039-1.5703 3.5039-3.5039-1.5703-3.5-3.5039-3.5-3.5 1.5664-3.5 3.5zm1.9961 2.0039c0-0.27734 0.22266-0.5 0.5-0.5 0.27344 0 0.49609 0.22266 0.49609 0.5 0 0.27734-0.22266 0.5-0.49609 0.5-0.27734 0-0.5-0.22266-0.5-0.5z" fill="#363636" opacity=".5"/>
</svg>
