<svg width="16" height="16" version="1.1" xmlns="http://www.w3.org/2000/svg">
 <path d="m1.9993 0c-1.1076 0-1.9993 0.892-1.9993 2v6 2c0 3.324 2.675 6 5.9978 6h1.9993 5.9978c1.1076 0 1.9993-0.892 1.9993-2v-0.09961l0.005857-0.005859v-3.5859-1.5898c-0.0018-0.00461-0.0041-0.00906-0.0059-0.013672v-0.70508-2c0-3.324-2.675-6-5.9978-6h-1.9992zm4.8771 1h1.1207 1.7494c2.9074 0 5.2481 2.3415 5.2481 5.25v0.625c-0.1929-0.26852-0.39672-0.5316-0.62672-0.7793-0.84635-0.91144-2.1036-1.6723-3.405-1.9551-0.32536-0.07068-0.65305-0.11152-0.97816-0.11719-0.97533-0.017-1.9232 0.28127-2.6904 1.0352-0.35039 0.34428-0.64554 0.85434-0.74973 1.377-0.10418 0.52261-0.018784 1.0574 0.39439 1.4531 0.13113 0.1256 0.32651 0.23209 0.52325 0.26758 0.19559 0.03528 0.39267 7.47e-4 0.53496-0.15625-0.15876-0.14429-0.1937-0.34573-0.15815-0.54297 0.035797-0.19858 0.14277-0.39306 0.26943-0.52539 0.39762-0.41542 0.93621-0.50301 1.4604-0.39844 0.52419 0.10458 1.0351 0.40028 1.3804 0.75195 0.75511 0.76907 1.0536 1.7199 1.0367 2.6973-0.0056 0.32579-0.04639 0.65455-0.11714 0.98047-0.28301 1.3037-1.046 2.5624-1.9583 3.4102-0.24856 0.23098-0.51329 0.4336-0.78292 0.62695h-1.1304-1.7494c-2.9074 0-5.2481-2.3415-5.2481-5.25v-0.63867c0.19532 0.27351 0.40249 0.54098 0.63649 0.79297 0.84635 0.91144 2.1036 1.6723 3.405 1.9551 1.3014 0.28273 2.6475 0.087222 3.6705-0.91797 0.35039-0.34428 0.64554-0.85434 0.74973-1.377 0.10418-0.52261 0.016833-1.0574-0.39634-1.4531-0.13113-0.1256-0.32456-0.23209-0.52129-0.26758-0.19553-0.03527-0.39268-6e-4 -0.53496 0.15625 0.15875 0.14431 0.1937 0.34571 0.15815 0.54297-0.035797 0.19859-0.14276 0.39306-0.26943 0.52539-0.39764 0.41544-0.93619 0.50301-1.4604 0.39844-0.52421-0.10458-1.035-0.40026-1.3804-0.75195-0.75512-0.76908-1.0536-1.7199-1.0367-2.6973 0.005598-0.32579 0.046394-0.65455 0.11714-0.98047 0.28302-1.3037 1.044-2.5624 1.9563-3.4102 0.24856-0.23098 0.51328-0.4336 0.78292-0.62695z" color="#000000" fill="#363636" overflow="visible" stroke-width=".99982"/>
</svg>
