<svg width="16px" height="16px" version="1.1" viewBox="0 0 16 16" xmlns="http://www.w3.org/2000/svg">
 <defs>
  <mask id="mask14626" maskUnits="userSpaceOnUse">
   <g transform="translate(168,16)">
    <g transform="translate(-168,-16)" filter="url(#a)">
     <rect width="16" height="16" fill-opacity=".396"/>
    </g>
   </g>
  </mask>
 </defs>
 <filter id="a" x="0" y="0" width="1" height="1">
  <feColorMatrix in="SourceGraphic" values="0 0 0 0 1 0 0 0 0 1 0 0 0 0 1 0 0 0 1 0"/>
 </filter>
 <path transform="translate(-168,-16)" d="m29 112c-4.4336 0-8-3.5664-8-8v-2c0 4.4336 3.5664 8 8 8h88c4.4336 0 8-3.5664 8-8v2c0 4.4336-3.5664 8-8 8z" fill="#f6f5f4" mask="url(#mask14626)"/>
 <path d="m6 10h1l9-9-1-1-9 9z" fill="#363636"/>
 <path d="m5 0c-1.108 0-2.0366 0.8926-2 2v1h-1c-1.108 0-2 0.892-2 2v6c0 1.108 0.892 2 2 2h1v1c0 1.108 0.892 2 2 2h6c1.108 0 2-0.892 2-2v-1h1c1.108 0 2-0.892 2-2v-6c0-0.70422-0.3611-1.3216-0.9082-1.6777l-0.74219 0.74219c0.38049 0.14123 0.65039 0.50472 0.65039 0.93555v6c0 0.554-0.446 1-1 1h-1v-3c0-0.97898-0.69661-1.7874-1.623-1.9629l-0.96289 0.96289h0.58594c0.554 0 1 0.446 1 1v5c0 0.554-0.446 1-1 1h-6c-0.554 0-1-0.446-1-1v-5c0-0.554 0.446-1 1-1h0.58594l1-1h-1.5859c-1.108 0-2 0.892-2 2v3h-1c-0.554 0-1-0.446-1-1v-6c0-0.554 0.446-1 1-1h7.5859l1-1h-6.5859v-1c0-0.554 0.446-1 1-1h6c0.4252 0 0.81153 0.26436 0.94922 0.63672l0.72852-0.72852c-0.35615-0.54711-0.97351-0.9082-1.6777-0.9082zm8.5 5c-0.03649 0.00321-0.07251 0.01041-0.10742 0.021484l-0.37109 0.37109c-0.01107 0.034912-0.01828 0.070936-0.02148 0.10742 0 0.27614 0.22386 0.5 0.5 0.5s0.5-0.22386 0.5-0.5-0.22386-0.5-0.5-0.5z" fill="#363636"/>
</svg>
