<svg width="16px" height="16px" version="1.1" viewBox="0 0 16 16" xmlns="http://www.w3.org/2000/svg">
 <path d="m2.5008-5.1034e-4v15.601l3.3785-3.3047 1.4168 2.8934c3.762e-4 8.45e-4 0.00138 9e-4 0.00176 0.0018 0.18207 0.40654 0.57993 0.63773 0.95449 0.69961 0.37534 0.06201 0.75247-4e-3 1.0969-0.15645 0.3444-0.15246 0.66522-0.3981 0.85781-0.76289 0.1926-0.36479 0.21093-0.8546-0.0053-1.2955l-1.3764-2.9496 4.3734-0.02637zm0.99844 2.4135 7.302 7.302-3.5438 0.021093 2.0443 4.3752 0.00351 0.0035c0.096689 0.19718 0.074925 0.28162 0.017577 0.39023-0.057344 0.10861-0.19719 0.23464-0.37793 0.31465-0.18074 0.08001-0.39347 0.10707-0.53086 0.08438-0.13739-0.0227-0.17276-0.05304-0.20391-0.12305l-0.00352-7e-3 -2.0391-4.159-2.6684 2.6104z" fill="#363636"/>
</svg>
