<svg width="16px" height="16px" version="1.1" viewBox="0 0 16 16" xmlns="http://www.w3.org/2000/svg">
 <path d="m6 1s-2.8125-7.1798e-4 -2.9922 2.7207c-1.326e-4 0.00201 1.297e-4 0.0038494 0 0.0058594-0.0044484 0.03501-0.0078125 0.071164-0.0078125 0.10742v0.16602 5 2.3594c-0.11725 0.75221-0.61961 1.1458-1.375 1.7617-0.62891 0.48828-0.77344 1.3086-0.30859 1.6992 0.42969 0.35156 1.1641 0.30078 1.6602-0.34375l1.0195-1.4766h3.8438c0.052512 0.0024 0.10069 0.007815 0.15625 0.007812l4.0039-0.007812h0.16602c0.09151 0 0.17947-0.013996 0.26172-0.041016 0.82483-0.1263 2.5713-0.66177 2.5684-2.9512v-9.0078h-8.9961zm0 1h5 1 2v2 1 5c0 1.108-0.892 2-2 2h-5-1-1.1055l3-3h4.1055c0.554 0 1-0.446 1-1h-4.1055l4.7129-4.7129c-0.19587-0.19587-0.45141-0.29297-0.70703-0.29297s-0.51116 0.0971-0.70703 0.29297l-2.1934 2.1934v-2.4805c-0.554 0-1 0.446-1 1v2.4805l-3 3v-6.4805c-0.554 0-1 0.446-1 1v6.4805l-1 1v-1.4805-1-5c0-1.108 0.892-2 2-2z" fill="#363636"/>
</svg>
