<svg width="16" height="16" version="1.1" xmlns="http://www.w3.org/2000/svg">
 <g fill="#363636">
  <path d="m6.127 0.25977c-0.064351-0.008882-0.13038-0.0042511-0.19727 0.013672-0.26756 0.071693-0.42521 0.34377-0.35352 0.61133l0.13672 0.50977a7 7 0 0 0-1.1719 0.5293c-0.013468 0.00627-0.027897 0.0060999-0.041016 0.013672-0.01342 0.00775-0.020785 0.02055-0.033203 0.029297a7 7 0 0 0-1.0449 0.74805l-0.37109-0.37109c-0.19587-0.19587-0.51116-0.19587-0.70703 0s-0.19587 0.51116 0 0.70703l0.36914 0.36914a7 7 0 0 0-0.77539 1.0801 7 7 0 0 0-0.54883 1.2109l-0.50391-0.13477c-0.26756-0.071693-0.53964 0.08595-0.61133 0.35352s0.08595 0.53964 0.35352 0.61133l0.50586 0.13672a7 7 0 0 0-0.0019531 2.6465l-0.50391 0.13477c-0.26756 0.071693-0.42521 0.34377-0.35352 0.61133 0.071693 0.26756 0.34377 0.42521 0.61133 0.35352l0.50977-0.13672a7 7 0 0 0 1.3203 2.291l-0.37109 0.37109c-0.19587 0.19587-0.19587 0.51116 0 0.70703 0.092341 0.092341 0.21163 0.1373 0.33203 0.14258 0.037323-0.22856 0.10725-0.45402 0.22852-0.66406l0.64453-1.1172a6 6 0 0 1-0.74414-7.0176 6 6 0 0 1 1.7754-1.9219l2.0195 3.4961a2 2 0 0 0-0.58203 1.1719l0.7207-1.25c-0.598-0.92147-0.91478-2.0011-0.80078-3.0684l-0.49219-0.85352a6 6 0 0 1 0.80859-0.3125c0.055324-0.12376 0.10575-0.24784 0.17578-0.36914 0.17528-0.30359 0.38504-0.57402 0.61523-0.82031a7 7 0 0 0-0.36914 0.058594l-0.13477-0.50391c-0.05377-0.20067-0.22101-0.34054-0.41406-0.36719zm4.6133 1.3027-0.50391 0.87109a6 6 0 0 1 0.76367 0.37109 6 6 0 0 1 0.94141 0.67578l0.50781-0.87891a7 7 0 0 0-0.94922-0.66406 7 7 0 0 0-0.75977-0.375zm4.5742 4.002c-0.064253-0.0088789-0.13233-0.0062037-0.19922 0.011719l-0.50976 0.13672a7 7 0 0 0-0.035157-0.095703c-0.091307 0.26388-0.20105 0.52484-0.3457 0.77539-0.10125 0.17537-0.2151 0.33683-0.33594 0.48828a6 6 0 0 1 0.083984 0.61914h-0.71875c-0.8467 0.66605-1.9296 0.96566-3.0234 0.94531l-0.03125 0.054688h3.7734a6 6 0 0 1-0.77734 2.5 6 6 0 0 1-6.1289 2.9219l-0.69922 1.2129c-0.12961 0.22449-0.2993 0.41262-0.49414 0.56445 0.019776 0.008103 0.035423 0.021659 0.056641 0.027343 0.26756 0.071691 0.53964-0.085945 0.61133-0.35352l0.13672-0.50586a7 7 0 0 0 2.6465 0.001953l0.13477 0.50391c0.071693 0.26756 0.34377 0.42521 0.61133 0.35352 0.26756-0.07169 0.42521-0.34377 0.35352-0.61133l-0.13672-0.50976a7 7 0 0 0 2.291-1.3203l0.37109 0.37109c0.19587 0.19587 0.51116 0.19587 0.70703 0s0.19587-0.51116 0-0.70703l-0.36914-0.36914a7 7 0 0 0 0.77539-1.0801 7 7 0 0 0 0.54883-1.2109l0.50391 0.13477c0.26756 0.07169 0.53964-0.085946 0.61133-0.35352 0.071691-0.26756-0.085945-0.53963-0.35352-0.61133l-0.50586-0.13672a7 7 0 0 0 0.12695-1.2949c5.42e-4 -0.00958 0.005859-0.017622 0.005859-0.027344 0-0.012518-0.006913-0.022874-0.007812-0.035156a7 7 0 0 0-0.12305-1.2891l0.50391-0.13477c0.26756-0.071693 0.4252-0.34377 0.35352-0.61133-0.053767-0.20067-0.21935-0.3386-0.41211-0.36523zm-6.5801 0.57617a1.0001 1.0001 0 0 1-0.0078125 0.9082 1.0001 1.0001 0 0 1 0.66797-0.48047 2 2 0 0 0-0.66016-0.42773z"/>
  <path d="m10.114 0.6472c-1.1314 0.068874-2.2066 0.68525-2.8182 1.7445-0.80701 1.3978-0.53493 3.1015 0.5436 4.1952l-4.0693 7.0483c-0.277 0.47978-0.11375 1.089 0.36603 1.366 0.47978 0.277 1.089 0.11375 1.366-0.36603l4.0908-7.0855c1.4468 0.31375 2.9832-0.30386 3.765-1.658 0.58039-1.0053 0.59853-2.1699 0.16739-3.1532l-1.1572 2.0044c-0.277 0.47978-0.88625 0.64303-1.366 0.36603l-1.7321-1c-0.47978-0.277-0.64303-0.88625-0.36603-1.366z" stroke-linecap="square" stroke-width="2"/>
  <path d="m10.114 0.6472c-1.1314 0.068874-2.2066 0.68525-2.8182 1.7445-0.80701 1.3978-0.53493 3.1015 0.5436 4.1952l-4.0693 7.0483c-0.277 0.47978-0.11375 1.089 0.36603 1.366 0.47978 0.277 1.089 0.11375 1.366-0.36603l4.0908-7.0855c1.4468 0.31375 2.9832-0.30386 3.765-1.658 0.58039-1.0053 0.59853-2.1699 0.16739-3.1532l-1.1572 2.0044c-0.277 0.47978-0.88625 0.64303-1.366 0.36603l-1.7321-1c-0.47978-0.277-0.64303-0.88625-0.36603-1.366z" color="#000000" color-rendering="auto" dominant-baseline="auto" image-rendering="auto" shape-rendering="auto" solid-color="#000000" stop-color="#000000" style="font-feature-settings:normal;font-variant-alternates:normal;font-variant-caps:normal;font-variant-east-asian:normal;font-variant-ligatures:normal;font-variant-numeric:normal;font-variant-position:normal;font-variation-settings:normal;inline-size:0;isolation:auto;mix-blend-mode:normal;shape-margin:0;shape-padding:0;text-decoration-color:#000000;text-decoration-line:none;text-decoration-style:solid;text-indent:0;text-orientation:mixed;text-transform:none;white-space:normal"/>
 </g>
</svg>
