<svg height="16" width="16" xmlns="http://www.w3.org/2000/svg"><g fill="#363636"><path color="#000" d="M.002 12c.004-.224.113-.53.304-.704L2.468 9.18c.232-.244.786-.293 1.01-.157.081.002 1.136.631 1.289.865.617.946-.344 1.828-1.174 1.547l-.35-.212-1.602 1.572c-.637.526-1.691.092-1.639-.795zM11.62.119c.39-.102.79-.111 1.17-.081l-1.36 2.306a.975.975 0 0 0 .354 1.347l.875.509a.99.99 0 0 0 1.356-.354l1.36-2.306c.212.315.4.666.502 1.054a3.47 3.47 0 0 1-2.496 4.233 3.53 3.53 0 0 1-1.171.081l-.802 1.115L7.998 8s1.519-2.577 1.627-2.594a3.483 3.483 0 0 1-.502-1.054A3.47 3.47 0 0 1 11.62.119z" font-family="Sans" font-weight="400" overflow="visible" style="line-height:normal;-inkscape-font-specification:Sans;text-indent:0;text-align:start;text-decoration-line:none;text-transform:none;marker:none"/><path color="#000" d="M3.599.719c-.23.047-.443.131-.655.219-.017.624.087 1.442-.156 1.656-.239.21-1.037.034-1.654-.031a3.63 3.63 0 0 0-.312.75c.477.396 1.139.839 1.155 1.156.015.321-.626.805-1.061 1.25.103.258.25.494.405.719.608-.127 1.365-.374 1.623-.188.263.19.265 1.006.343 1.625.25.075.512.105.78.125.281-.554.567-1.32.874-1.406.315-.089.962.458 1.498.781.218-.151.412-.337.593-.53-.254-.573-.72-1.293-.593-1.595.127-.302.974-.47 1.56-.687.004-.074.031-.144.031-.219 0-.191-.034-.379-.062-.562-.605-.161-1.465-.242-1.623-.532-.156-.288.242-1.061.437-1.656a3.682 3.682 0 0 0-.655-.469c-.5.375-1.083.995-1.404.938-.317-.056-.662-.82-.999-1.344-.04.007-.085-.008-.125 0zm.624 1.875c.93 0 1.685.756 1.685 1.688a1.686 1.686 0 1 1-1.685-1.688z" overflow="visible" style="marker:none"/><path color="#bebebe" d="M2.997 9h9.986l.008 6.063c0 .492-.472.937-.995.937H4.004a.996.996 0 0 1-.999-1z" overflow="visible" style="marker:none"/><path color="#000" d="M15.962 11.977c-.005-.224-.113-.53-.305-.704l-2.161-2.116c-.233-.244-.787-.293-1.011-.157-.08.002-1.136.631-1.288.865-.617.946.344 1.828 1.173 1.547l.35-.212 1.602 1.572c.638.527 1.692.092 1.64-.795z" font-family="Sans" font-weight="400" overflow="visible" style="line-height:normal;-inkscape-font-specification:Sans;text-indent:0;text-align:start;text-decoration-line:none;text-transform:none;marker:none"/></g></svg>