<svg width="16" height="16" version="1" xmlns="http://www.w3.org/2000/svg">
 <path d="m3 1c-1.1046 0-2 0.89543-2 2s0.89543 2 2 2 2-0.89543 2-2-0.89543-2-2-2zm0 1c0.56413 0 1 0.43587 1 1s-0.43587 1-1 1-1-0.43587-1-1 0.43587-1 1-1zm8.3066 6.998v0.0019531c-0.19-6e-3 -0.21353 0.097094-0.26953 0.37109-0.28 1.804 1.354 2.804 3.502 3.584 0.256 0.091 0.27759 0.045562 0.43359-0.14844 0.284-0.368 0.4528-0.75611 0.5918-1.1621 0.125-0.364 0.22428-0.73991 0.36328-1.1289 0.139-0.328 0.089234-0.32211-0.25976-0.41211l-4.1113-1.0645c-0.08196-0.021031-0.16562-0.034767-0.25-0.041016zm1.0215 1.2754 2.4258 0.62695c-0.04128 0.13428-0.09459 0.30294-0.13476 0.41992a1.0001 1.0001 0 0 0-0.001953 0c-0.06195 0.18095-0.14977 0.29894-0.2207 0.44336-0.7452-0.30947-1.4809-0.63034-1.8535-0.96289-0.19418-0.17331-0.12656-0.37163-0.21484-0.52734z" color="#000000" fill="#363636" stroke-linecap="round" stroke-linejoin="round" style="-inkscape-stroke:none"/>
 <path d="m8 0c-1.081 0.0035428-2.15 0.22612-3.1426 0.6543 0.28015 0.22275 0.51836 0.49402 0.70508 0.80078 0.77894-0.29554 1.6044-0.44965 2.4375-0.45508 3.866 0 7 3.134 7 7-0.0042 0.29477-0.02705 0.58897-0.06836 0.88086l0.98633 0.25586v-0.00195c0.054241-0.37583 0.081654-0.75505 0.082032-1.1348 0-4.4183-3.5817-8-8-8zm0 4c-2.2091 0-4 1.7909-4 4s1.7909 4 4 4c0.85612-0.0055 1.6879-0.28546 2.373-0.79883-0.16046-0.31905-0.27504-0.66521-0.32812-1.0293-0.55171 0.52576-1.2828 0.82185-2.0449 0.82812-1.6569 0-3-1.3431-3-3s1.3431-3 3-3 3 1.3431 3 3c-0.0012 0.011726-0.0025 0.023445-0.0039 0.035156 0.13186-0.031372 0.24921-0.03808 0.34179-0.035156l-0.02734 0.027344c0.02311-0.00934 0.04657-0.017806 0.07031-0.025391 0.14334 0.010615 0.2846 0.034588 0.42383 0.070312h2e-3l0.18164 0.046875c0.004451-0.039652 0.008358-0.07937 0.01167-0.11914 0-2.2091-1.7909-4-4-4zm-7.3457 0.85742c-0.42818 0.99256-0.65075 2.0616-0.6543 3.1426 0 4.4183 3.5817 8 8 8 2.1045-0.0075 4.1212-0.84397 5.6133-2.3281-0.34218-0.13622-0.67367-0.28079-0.99023-0.44141-1.2741 1.1332-2.9179 1.7624-4.623 1.7695-3.866 0-7-3.134-7-7 0.005431-0.83311 0.15954-1.6586 0.45508-2.4375-0.30676-0.18672-0.57803-0.42493-0.80078-0.70508z" fill="#363636" stroke-linecap="round" stroke-linejoin="round" stroke-width="2" style="paint-order:stroke fill markers"/>
 <circle cx="8" cy="2.5" r=".5" fill="#363636" stroke-linecap="round" stroke-linejoin="round" stroke-width="2" style="paint-order:stroke fill markers"/>
 <circle cx="8" cy="13.5" r=".5" fill="#363636" stroke-linecap="round" stroke-linejoin="round" stroke-width="2" style="paint-order:stroke fill markers"/>
 <circle transform="rotate(30)" cx="10.928" cy="-2.5718" r=".5" fill="#363636" stroke-linecap="round" stroke-linejoin="round" stroke-width="2" style="paint-order:stroke fill markers"/>
 <circle transform="rotate(30)" cx="10.928" cy="8.4282" r=".5" fill="#363636" stroke-linecap="round" stroke-linejoin="round" stroke-width="2" style="paint-order:stroke fill markers"/>
 <circle transform="rotate(60)" cx="10.928" cy="-8.4282" r=".5" fill="#363636" stroke-linecap="round" stroke-linejoin="round" stroke-width="2" style="paint-order:stroke fill markers"/>
 <circle transform="rotate(60)" cx="10.928" cy="2.5718" r=".5" fill="#363636" stroke-linecap="round" stroke-linejoin="round" stroke-width="2" style="paint-order:stroke fill markers"/>
 <circle transform="rotate(90)" cx="8" cy="-13.5" r=".5" fill="#363636" stroke-linecap="round" stroke-linejoin="round" stroke-width="2" style="paint-order:stroke fill markers"/>
 <circle transform="rotate(90)" cx="8" cy="-2.5" r=".5" fill="#363636" stroke-linecap="round" stroke-linejoin="round" stroke-width="2" style="paint-order:stroke fill markers"/>
 <circle transform="rotate(150)" cx="-2.9282" cy="-16.428" r=".5" fill="#363636" stroke-linecap="round" stroke-linejoin="round" stroke-width="2" style="paint-order:stroke fill markers"/>
</svg>
