<svg width="16" height="16" version="1.1" xmlns="http://www.w3.org/2000/svg">
 <defs>
  <style id="current-color-scheme" type="text/css">.ColorScheme-Text { color:#363636; }</style>
 </defs>
 <path class="ColorScheme-Text" d="m8 0a8 8 0 0 0-7.9688 7.5781l-0.0097656-0.0039062-0.0039062 0.095703-0.0097656-0.03125 0.0097656 0.10742a8 8 0 0 0-0.017578 0.25391 8 8 0 0 0 0.21484 1.752l0.0078125 0.076172 0.021484 0.10547 0.011719 0.0058593a8 8 0 0 0 7.7441 6.0605 8 8 0 0 0 8-8 8 8 0 0 0-8-8zm-7.7773 9.8281-0.019531-0.10547 0.029297 0.19531-0.0097656-0.089844zm7.7773-8.8281a7 7 0 0 1 7 7 7 7 0 0 1-7 7 7 7 0 0 1-6.4824-4.416l1.4941 0.76562c-0.005419 0.050001-0.0093288 0.10015-0.011719 0.15039 0 1.3807 1.1193 2.5 2.5 2.5 1.3807 0 2.5-1.1193 2.5-2.5-8.9e-5 -0.11829-0.0085746-0.23643-0.025391-0.35352l2.0293-1.1816c0.16432 0.023469 0.3301 0.035214 0.49609 0.035156 1.933 0 3.5-1.567 3.5-3.5 0-1.933-1.567-3.5-3.5-3.5-1.933-2e-7 -3.5 1.567-3.5 3.5 0.0016 0.029321 0.0035194 0.05862 0.0058594 0.087891l-1.4473 2.4141c-0.019522-8.8e-4 -0.039057-0.0015321-0.058594-0.0019531-0.57647 0.001613-1.1347 0.2024-1.5801 0.56836l-2.9141-1.4902a7 7 0 0 1-0.0058594-0.078125 7 7 0 0 1 7-7zm2.5 3.5c1.1046-6e-7 2 0.89543 2 2s-0.89543 2-2 2c-1.1046 2e-7 -2-0.89543-2-2s0.89543-2 2-2zm0 0.5c-0.82843-2e-7 -1.5 0.67157-1.5 1.5s0.67157 1.5 1.5 1.5c0.82843 0 1.5-0.67157 1.5-1.5s-0.67157-1.5-1.5-1.5zm-5 5c0.82843 0 1.5 0.67157 1.5 1.5-2e-7 0.82843-0.67157 1.5-1.5 1.5-0.67784-0.002918-1.2695-0.46007-1.4434-1.1152l0.98828 0.50586c1.188 0.60659 2.0982-1.1747 0.91016-1.7812l-0.99414-0.50781c0.17192-0.066701 0.35466-0.10113 0.53906-0.10156z" fill="currentColor"/>
</svg>
