<svg width="16" height="16" version="1.1" viewBox="0 0 16 16" xmlns="http://www.w3.org/2000/svg">
 <title>Symbolic Icons</title>
 <g transform="translate(-36 108)" fill="#363636">
  <path d="m38.5-105c-0.831 0-1.5 0.669-1.5 1.5s0.669 1.5 1.5 1.5 1.5-0.669 1.5-1.5-0.669-1.5-1.5-1.5zm-0.02539 1c0.0085-4.3e-4 0.01674 0 0.02539 0 0.277 0 0.5 0.223 0.5 0.5s-0.223 0.5-0.5 0.5-0.5-0.223-0.5-0.5c0-0.26834 0.2097-0.48666 0.47461-0.5z"/>
  <rect x="41" y="-104" width="10" height="1"/>
  <path d="m38.5-101c-0.831 0-1.5 0.669-1.5 1.5s0.669 1.5 1.5 1.5 1.5-0.669 1.5-1.5-0.669-1.5-1.5-1.5zm-0.02539 1c0.0085-4.3e-4 0.01674 0 0.02539 0 0.277 0 0.5 0.223 0.5 0.5s-0.223 0.5-0.5 0.5-0.5-0.223-0.5-0.5c0-0.26834 0.2097-0.48666 0.47461-0.5z"/>
  <rect x="41" y="-100" width="10" height="1"/>
  <path d="m38.5-97c-0.831 0-1.5 0.669-1.5 1.5s0.669 1.5 1.5 1.5 1.5-0.669 1.5-1.5-0.669-1.5-1.5-1.5zm-0.02539 1c0.0085-4.3e-4 0.01674 0 0.02539 0 0.277 0 0.5 0.223 0.5 0.5s-0.223 0.5-0.5 0.5-0.5-0.223-0.5-0.5c0-0.26834 0.2097-0.48666 0.47461-0.5z"/>
  <rect x="41" y="-96" width="10" height="1"/>
 </g>
</svg>
