<svg width="16px" height="16px" version="1.1" viewBox="0 0 128 125.8" xmlns="http://www.w3.org/2000/svg">
 <path d="m88-1.0996c-8.2424 0-14.897 0.61103-20.404 3.3125-5.0358 2.4702-8.5983 6.9893-10.619 12.988-8.7165 4.6969-14.119 10.811-14.119 18.041v7.1055l6.0742-3.6855s6.8514-4.0469 15.068-4.0469c16.351 0 30.285 13.934 30.285 30.285 0 16.218-14.235 30.285-30.285 30.285-16.339 0-30.285-14.03-30.285-30.285 0-12.048 7.4668-19.957 7.4668-19.957l1.1035-1.1582v-1.5996c0-6.5619-0.26956-12.392-1.7129-17.35-1.4433-4.9575-4.6232-9.4144-9.7285-10.916l-0.55273-0.16211h-0.57617c-1.6476-1e-6 -3.5039 0.98385-4.3281 2.1172-0.82424 1.1333-0.94141 2.4629-0.94141 2.4629l0.01172-0.11328c-1.0527 8.7974-4.763 10.171-8.2012 15.041-0.0013 0.0019-0.0026 4e-3 -0.0039 0.0059-1.7976 2.5253-3.2069 5.3801-4.375 8.3477-0.65829-0.81003-1.6248-1.7188-3.5918-1.7188-1.8115 0-2.9352 0.94254-3.5488 1.5801-0.61363 0.63749-0.93048 1.1894-1.1973 1.6875-0.51612 0.96342-0.68066 1.3883-0.90234 2.2578-1.8065 5.9599-2.6367 13.689-2.6367 19.475 0 36.286 27.714 64 64 64 36.563 0 64-27.175 64-64 0-10.067-2.0276-21.615-6.3262-31.584l-0.0371-0.08203-0.0391-0.08203c-0.49401-1.0171-1.1647-2.012-1.7774-3.0215 0.126 0.02148 0.25484 0.02432 0.37891 0.04687l11.113 2.0215-7.3652-8.5645c-2.6118-3.037-5.8231-4.8166-9.3398-5.9844 0.32709-0.06221 0.63457-0.1678 0.98047-0.18164l10.189-0.4082-7.748-6.6289c-7.9356-6.7882-17.885-9.5312-30.029-9.5312zm0 8c7.7792 0 13.773 1.1889 18.873 3.7461-1.9232 1.502-3.5179 3.3957-4.5176 5.6055l-2.403 3.4952s3.2334 1.36 4.8081 2.4379c1.5747 1.0779 4.1574 4.2661 4.1574 4.2661 1.8693 2.2587 4.2195 5.6347 5.4414 8.125 3.7337 8.7009 5.6406 19.392 5.6406 28.324 0 32.946-23.305 56-56 56-32.286 0-56-23.714-56-56 0-2.5923 0.26-5.87 0.69141-9.1055 0.23692 0.5876 3.522 21.181 8.3086 25.105 0 0-2.5222-11.758-1.2605-22.07 1.2617-10.312 3.5289-16.001 7.0339-20.923l0.0059-0.0078 0.0059-0.0098c1.5866-2.252 6.394-6.0932 8.6523-14.043 0.53687 0.81681 1.0213 1.7433 1.4531 3.2266 0.93958 3.2273 1.2874 8.0977 1.3438 13.742-2.418 2.9756-8.5195 11.641-8.5195 24.086 0 20.774 17.424 38.285 38.285 38.285 20.636 0 38.285-17.475 38.285-38.285 0-20.849-17.436-38.285-38.285-38.285-3.1399 0-5.9636 0.47808-8.5508 1.1016 1.671-1.3986 3.6868-2.8121 6.5547-4.2324l1.6113-0.79688 0.47266-1.7344c1.4676-5.3811 3.4958-7.8244 7.0312-9.5586 0.42682-0.20936 0.97867-0.35966 1.4648-0.54102 0.94601-0.43567 2.5342-0.94241 4.8867-1.2559 2.9136-0.46332 6.3838-0.69724 10.529-0.69724z" fill="#363636"/>
 <path d="m44.32 49.14c4.8-6.8 12.56-10.24 19.68-10.24s15.04 3.44 19.68 10.24l-19.68 13.76zm42.32 5.76c0.88 2.56 1.36 5.2 1.36 8 0 13.28-10.72 24-24 24s-24-10.72-24-24c0-2.8 0.48-5.44 1.36-8l22.64 16z" fill="#363636" opacity=".45"/>
 <circle transform="rotate(15)" cx="82.691" cy="-4.1494" r="4" fill="#363636" opacity=".45"/>
</svg>
