<svg width="16" height="16" version="1.1" xmlns="http://www.w3.org/2000/svg">
 <path d="m5 0a1 1 0 0 0-1 1 1 1 0 0 0 1 1 1 1 0 0 0 0.25-0.035156l1.0215 1.0352h-2.2715c-1.662 0-3 1.338-3 3v7c0 1.662 1.338 3 3 3h8c1.662 0 3-1.338 3-3v-7c0-1.662-1.338-3-3-3h-2.2637l1.0137-1.0312a1 1 0 0 0 0.23828 0.03125 1 1 0 0 0 1-1 1 1 0 0 0-1-1 1 1 0 0 0-1 1 1 1 0 0 0 0.042969 0.27344l-1.6855 1.7168-0.66992 0.0097656-1.7148-1.7383a1 1 0 0 0 0.039062-0.26172 1 1 0 0 0-1-1zm-1 4h0.5 2.7578l0.0058594 0.0058594 0.37695-0.0058594h3.8594 0.5c1.108 0 2 0.892 2 2v5h-12v-5c0-1.108 0.892-2 2-2zm-2 8h12v1c0 1.108-0.892 2-2 2h-1-7c-1.108 0-2-0.892-2-2v-1zm10.475 1c-0.26491 0.013342-0.47461 0.23166-0.47461 0.5 0 0.277 0.223 0.5 0.5 0.5s0.5-0.223 0.5-0.5-0.223-0.5-0.5-0.5c-0.008656 0-0.016845-4.3e-4 -0.025391 0z" fill="#363636"/>
</svg>
