<svg width="16" height="16" version="1.1" viewBox="0 0 16 16" xmlns="http://www.w3.org/2000/svg">
 <defs>
  <style id="current-color-scheme" type="text/css">.ColorScheme-Text { color:#404040; } .ColorScheme-Highlight { color:#5294e2; }</style>
 </defs>
 <path d="m8 0c-0.38195 0-0.58686 0.15575-0.71875 0.25977-0.13189 0.10401-0.21166 0.19692-0.28516 0.28906-0.14699 0.18428-0.26142 0.37204-0.38281 0.58594-0.24279 0.42779-0.49324 0.94815-0.74023 1.4727-0.247 0.5245-0.48768 1.0519-0.68164 1.4473-0.081141 0.16538-0.14676 0.28659-0.20312 0.38867-0.10639 0.023678-0.22779 0.051186-0.39648 0.080078-0.41534 0.071135-0.96542 0.14765-1.5176 0.23242-0.55216 0.084773-1.1042 0.17544-1.5723 0.28711-0.23403 0.055837-0.4439 0.1127-0.66211 0.20508-0.21821 0.092381-0.58222 0.12-0.79102 0.79492-0.2088 0.67492 0.063068 0.87981 0.18359 1.082 0.12053 0.20222 0.25744 0.37656 0.41406 0.56445 0.31325 0.37578 0.70855 0.78822 1.1074 1.1973 0.39887 0.40905 0.80026 0.81174 1.0977 1.127 0.122 0.12931 0.20889 0.22772 0.2832 0.31445-0.01843 0.11439-0.041302 0.24783-0.080078 0.42773-0.094209 0.4371-0.23441 1.0101-0.37109 1.5859-0.13668 0.57587-0.26876 1.1515-0.34766 1.6465-0.039451 0.24747-0.068496 0.47131-0.068359 0.71094 6.84e-5 0.11981 0.0030398 0.24334 0.042969 0.41016 0.039931 0.16682 0.10929 0.42461 0.41797 0.66016 0.30868 0.23555 0.56485 0.2331 0.73242 0.23047 0.16757-0.0026 0.28831-0.028171 0.4043-0.056641 0.23198-0.05694 0.44338-0.13694 0.67773-0.23438 0.46872-0.19488 1.0065-0.46256 1.543-0.73438 0.53648-0.27182 1.0697-0.54883 1.4805-0.75 0.17944-0.087875 0.32035-0.15046 0.43359-0.19922 0.11324 0.04876 0.25416 0.11134 0.43359 0.19922 0.41078 0.20117 0.94398 0.47818 1.4805 0.75 0.53648 0.27182 1.0743 0.5395 1.543 0.73438 0.23436 0.09744 0.44576 0.17744 0.67774 0.23438 0.11599 0.02847 0.23673 0.054011 0.4043 0.056641 0.16757 0.0026 0.42374 0.0051 0.73242-0.23047 0.30868-0.23554 0.37804-0.49334 0.41797-0.66016 0.03993-0.16682 0.042899-0.29034 0.042969-0.41016 1.37e-4 -0.23962-0.028909-0.46347-0.06836-0.71094-0.0789-0.49494-0.21098-1.0706-0.34766-1.6465s-0.27688-1.1488-0.37109-1.5859c-0.038779-0.17991-0.061648-0.31334-0.080078-0.42773 0.07432-0.08673 0.16121-0.18515 0.2832-0.31445 0.2974-0.31522 0.69879-0.71791 1.0977-1.127 0.39887-0.40905 0.79418-0.82148 1.1074-1.1973 0.15662-0.18789 0.29354-0.36223 0.41406-0.56445 0.12053-0.20222 0.39239-0.40711 0.18359-1.082-0.2088-0.67492-0.57281-0.70254-0.79102-0.79492-0.21821-0.092382-0.42807-0.14924-0.66211-0.20508-0.46807-0.11167-1.0201-0.20234-1.5723-0.28711s-1.1022-0.16129-1.5176-0.23242c-0.16869-0.028892-0.2901-0.0564-0.39648-0.080078-0.056362-0.10208-0.12198-0.22329-0.20312-0.38867-0.19396-0.39533-0.43464-0.92276-0.68164-1.4473-0.247-0.5245-0.49744-1.0449-0.74023-1.4727-0.1214-0.2139-0.23583-0.40166-0.38281-0.58594-0.073493-0.092138-0.15327-0.18505-0.28516-0.28906-0.13189-0.10401-0.3368-0.25977-0.71875-0.25977zm0 1c0.47243 0 1.9947 3.9955 2.377 4.2871 0.3822 0.29165 4.4712 0.57888 4.6172 1.0508 0.14599 0.4719-3.0005 3.2273-3.1465 3.6992-0.14599 0.4719 1.1986 4.6458 0.81641 4.9375-0.38221 0.29165-4.1916-2.002-4.6641-2.002-0.47243 0-4.2819 2.2936-4.6641 2.002-0.38221-0.29165 0.9624-4.4656 0.81641-4.9375-0.14599-0.4719-3.2925-3.2273-3.1465-3.6992 0.14599-0.4719 4.235-0.75913 4.6172-1.0508 0.38221-0.29165 1.9045-4.2871 2.377-4.2871z" fill="#363636"/>
</svg>
