<svg width="64" height="64" version="1.1" xmlns="http://www.w3.org/2000/svg">
 <path d="m8 25c-1.662 0-3 1.338-3 3v9c0 1.662 1.338 3 3 3h4c1.662 0 3-1.338 3-3v-9c0-1.662-1.338-3-3-3h-4zm36 0c-1.662 0-3 1.338-3 3v7c0 1.662 1.338 3 3 3h12c1.662 0 3-1.338 3-3v-7c0-1.662-1.338-3-3-3h-12zm-36 1h4c1.108 0 2 0.892 2 2v9c0 1.108-0.892 2-2 2h-4c-1.108 0-2-0.892-2-2v-9c0-1.108 0.892-2 2-2zm15 0c-1.662 0-3 1.338-3 3v9h1v-9c0-1.108 0.892-2 2-2h10c1.108 0 2 0.892 2 2v9h1v-9c0-1.662-1.338-3-3-3h-10zm21 0h12c1.108 0 2 0.892 2 2v7c0 1.108-0.892 2-2 2h-12c-1.108 0-2-0.892-2-2v-7c0-1.108 0.892-2 2-2zm-35.5 1c-0.277 0-0.5 0.223-0.5 0.5s0.223 0.5 0.5 0.5h3c0.277 0 0.5-0.223 0.5-0.5s-0.223-0.5-0.5-0.5h-3zm10 12c-0.277 0-0.5 0.223-0.5 0.5s0.223 0.5 0.5 0.5h19c0.277 0 0.5-0.223 0.5-0.5s-0.223-0.5-0.5-0.5h-19zm27 0c-0.277 0-0.5 0.223-0.5 0.5s0.223 0.5 0.5 0.5h9c0.277 0 0.5-0.223 0.5-0.5s-0.223-0.5-0.5-0.5h-9z" fill="#363636"/>
</svg>
