<svg width="16" height="16" version="1.1" xmlns="http://www.w3.org/2000/svg">
 <path d="m12.037 1.5137c-3.1762 3.4852-11.037 3.4863-11.037 3.4863v5s0.51808 0.002512 1.3184 0.058594l1.6816 4.9414h1l0.0078125-4.6191c2.4182 0.41264 5.3414 1.2753 7.0059 3.0801h0.98633v-3.4609-0.2793l2.3164-0.77148a1.0001 1.0001 0 0 0 0.68359-0.94922v-1a1.0001 1.0001 0 0 0-0.68359-0.94922l-2.3164-0.77148v-0.2793-3.4863h-0.96289zm-0.037109 1.332v2.1543 0.0058594 0.99414 3 0.99414 0.0058594 2.1543c-1.5656-1.306-3.6288-2.072-5.5293-2.5039-0.54129-0.12302-1.0265-0.21368-1.4707-0.28516v-3.7305c0.44425-0.071475 0.92941-0.16214 1.4707-0.28516 1.9005-0.43192 3.9637-1.1979 5.5293-2.5039zm-8 2.9238v3.4609c-0.93008-0.10049-1.5869-0.10155-2-0.11133v-3.2383c0.41311-0.0097746 1.0699-0.010832 2-0.11133zm9 0.56445 2 0.66602v1l-2 0.66602v-2.332zm-9.5898 3.8223c0.18955 0.020793 0.39412 0.047498 0.59766 0.074219l-0.0019531 1.6777-0.5957-1.752z" fill="#363636"/>
</svg>
