<svg width="16" height="16" version="1.1" xmlns="http://www.w3.org/2000/svg">
 <path d="m4.0566 5c-0.0335 0.33757-0.056641 0.67312-0.056641 1 0 1.572 0.58137 2.476 1.3691 3.0977 0.78777 0.6217 1.8498 0.90234 2.6309 0.90234s1.8431-0.28065 2.6309-0.90234c0.78777-0.6217 1.3691-1.5257 1.3691-3.0977 0-0.32688-0.02314-0.66243-0.056641-1h-7.8867z" fill="#363636" opacity=".1"/>
 <path d="m4.209 0c-0.55897 1.5938-1.209 3.8979-1.209 6 0 3.389 2.535 4.7714 4.498 4.9727v4.0273h-2.498v1h2.498v0.011719h1.0039v-0.011719h2.498v-1h-2.498v-4.0273c1.963-0.20126 4.498-1.5837 4.498-4.9727 0-2.1021-0.65001-4.4062-1.209-6h-7.582zm0.75 1h6.082c0.47934 1.4849 0.95898 3.3392 0.95898 5 0 1.572-0.58137 2.476-1.3691 3.0977-0.78777 0.6217-1.8498 0.90234-2.6309 0.90234s-1.8431-0.28065-2.6309-0.90234c-0.78777-0.6217-1.3691-1.5257-1.3691-3.0977 0-1.6608 0.47965-3.5151 0.95898-5z" fill="#363636" opacity=".35" stroke-linecap="round" stroke-linejoin="round" stroke-width="2" style="paint-order:stroke fill markers"/>
 <rect transform="rotate(45)" x=".31371" y="-.5" width="22" height="1" rx=".5" ry=".5" fill="#363636"/>
</svg>
