<svg xmlns="http://www.w3.org/2000/svg" width="16" height="16"><style>@import &quot;../../highlights.css&quot;;</style><g id="layercompo" fill="#363636"><path d="M1 1v2h1V2h1V1zm3 0v1h2V1zm3 0v1h2V1zm3 0v1h2V1zm3 0v1h1v1h1V1zM1 4v2h1V4zm13 0v2h1V4zM1 7v2h1V7zm13 0v2h1V7zM1 10v2h1v-2zm13 0v2h1v-2zM1 13v2h2v-1H2v-1zm13 0v1h-1v1h2v-2zM4 14v1h2v-1zm3 0v1h2v-1zm3 0v1h2v-1zM4 4v8h8V4H4zm1 1h6v6H5V5z"/><rect width="4" height="4" x="6" y="6" stroke-linecap="round" stroke-linejoin="round" stroke-width=".333" opacity=".35" rx="0" ry="0" style="paint-order:stroke fill markers"/></g></svg>