<svg xmlns="http://www.w3.org/2000/svg" width="16" height="16"><style>@import &quot;../../highlights.css&quot;;</style><g id="align-horizontal-baseline" fill="#363636"><path stroke-width=".829" d="M4.004-.001h1v16h-1z"/><path stroke-linecap="round" stroke-linejoin="round" stroke-width="1.5" d="M1058.2 671.86q1.568 0 2.32.688t.752 2.192v5.84h-1.024l-.272-1.216h-.064q-.56.704-1.184 1.04-.608.336-1.696.336-1.168 0-1.936-.608-.768-.624-.768-1.936 0-1.28 1.008-1.968 1.008-.704 3.104-.768l1.456-.048v-.512q0-1.072-.464-1.488t-1.312-.416q-.672 0-1.28.208-.608.192-1.136.448l-.432-1.056q.56-.304 1.328-.512.768-.224 1.6-.224zm.416 4.576q-1.6.064-2.224.512-.608.448-.608 1.264 0 .72.432 1.056.448.336 1.136.336 1.088 0 1.808-.592.72-.608.72-1.856v-.768z" aria-label="a" style="paint-order:stroke fill markers" transform="translate(-696 -446.91) scale(.66667)"/><path stroke-linecap="round" stroke-linejoin="round" stroke-width="1.5" d="M1053.7 681.95h1.504l1.856 4.88q.24.64.432 1.232.192.576.288 1.104h.064q.096-.4.304-1.04.208-.656.432-1.312l1.744-4.864h1.52l-3.696 9.76q-.448 1.216-1.168 1.936-.704.72-1.952.72-.384 0-.672-.048-.288-.032-.496-.08v-1.12q.176.032.416.064.256.032.528.032.736 0 1.184-.416.464-.416.72-1.104l.448-1.136z" aria-label="y" style="paint-order:stroke fill markers" transform="translate(-696 -446.91) scale(.66667)"/></g></svg>