<svg width="16" height="16" version="1.1" viewBox="0 0 4.233 4.233" xmlns="http://www.w3.org/2000/svg">
 <path d="m4.233 1.5874h-0.263v-1.4544c5.698e-4 -0.074081-0.059925-0.13412-0.134-0.133h-1.058c-0.072902 0-0.132 0.059098-0.132 0.132v1.4544h-2.646v0.26562h0.53v2.249c0 0.073 0.058 0.132 0.131 0.132h1.059c0.072902 0 0.132-0.059098 0.132-0.132v-2.249h0.265v1.455c0 0.074 0.059 0.133 0.132 0.133h1.058c0.073685 5.604e-4 0.13356-0.059315 0.133-0.133v-1.455h0.793zm-0.529-1.3224v1.3224h-0.794v-1.3224zm-0.529 1.587v1.323h-0.794v-1.323zm-1.587 0v2.118h-0.794v-2.118z" fill="#363636"/>
</svg>
