<svg width="16" height="16" version="1.1" viewBox="0 0 4.233 4.233" xmlns="http://www.w3.org/2000/svg">
 <path d="m2.6456 0v0.265h1.4554c0.073 0 0.132 0.059 0.132 0.132v1.058c0 0.072902-0.059098 0.132-0.132 0.132h-1.4544v2.646h-0.26562v-0.529h-2.249c-0.072902 0-0.132-0.059098-0.132-0.132v-1.058c0-0.074 0.059-0.133 0.132-0.133h2.25v-0.264h-1.457c-0.073294 2.1e-6 -0.13256-0.059708-0.132-0.133v-1.058c0-0.073 0.059-0.132 0.132-0.132h1.455v-0.794zm1.3244 0.53h-1.3244v0.793h1.3244zm-1.588 0.528h-1.324v0.794h1.323zm0 1.588h-2.117v0.794h2.115z" fill="#363636"/>
</svg>
