<svg xmlns="http://www.w3.org/2000/svg" width="16" height="16"><style>@import &quot;../../highlights.css&quot;;</style><path id="align-horizontal-node" fill="#363636" d="M1056 861.36v3h-1.5v4.501h1.5v3.001h-1.5v4.501h1.5v3h-1.5v4.501h1.5v1.5h1.5v-1.5h1.5v-4.5h-1.5v-3.001h1.5v-4.5h-1.5v-3.002h1.5v-4.5h-1.5v-3.001h-1.5zm-10.5 1.5a4.49 4.49 0 0 0 4.5 4.501h3v-1.5h-3c-1.662 0-3-1.339-3-3h-1.5zm10.5 3h1.5v1.501h-1.5v-1.5zm4.5 0v1.501c1.662 0 3 1.339 3 3a2.994 2.994 0 0 1-3 3.001v1.5a4.49 4.49 0 0 0 4.5-4.5 4.49 4.49 0 0 0-4.5-4.501zm-7.5 7.502a4.49 4.49 0 0 0-4.5 4.501 4.49 4.49 0 0 0 4.5 4.501v-1.5c-1.662 0-3-1.338-3-3a2.994 2.994 0 0 1 3-3.001v-1.5zm3 0h1.5v1.5h-1.5v-1.5zm0 7.502h1.5v1.5h-1.5v-1.5zm4.5 0v1.5c1.662 0 3 1.339 3 3h1.5a4.49 4.49 0 0 0-4.5-4.5z" transform="matrix(.66667 0 0 .66653 -696 -574.12)"/></svg>