<svg width="16" height="16" version="1.1" viewBox="0 0 4.233 4.233" xmlns="http://www.w3.org/2000/svg">
 <path d="m4.233 2.6456h-0.263v1.4554c2.1e-6 0.073294-0.059708 0.13256-0.133 0.132h-1.059c-0.072902 0-0.132-0.059098-0.132-0.132v-1.4544h-2.646v-0.26562h0.53v-2.249c0-0.072 0.057-0.132 0.13-0.132h1.06c0.073 0 0.132 0.059 0.132 0.132v2.25h0.265v-1.457c0-0.073 0.059-0.132 0.132-0.132h1.058c0.074 0 0.133 0.059 0.133 0.132v1.455h0.793zm-0.529 1.3244v-1.3244h-0.794v1.3244zm-0.529-1.59v-1.322h-0.794v1.323zm-1.587 0v-2.115h-0.794v2.115z" fill="#363636"/>
</svg>
