<svg width="16" height="16" version="1.1" viewBox="0 0 4.233 4.233" xmlns="http://www.w3.org/2000/svg">
 <path d="m1.5884 0v0.265h-1.4554c-0.073292-5.5526e-4 -0.133 0.058706-0.133 0.132v1.058c0 0.073 0.059 0.132 0.132 0.132h1.4554v2.646h0.26462v-0.529h2.249c0.072902 0 0.132-0.059098 0.132-0.132v-1.058c5.553e-4 -0.073292-0.058706-0.133-0.132-0.133h-2.249v-0.264h1.455c0.073685 5.604e-4 0.13356-0.059315 0.133-0.133v-1.058c2.1e-6 -0.073294-0.059708-0.13256-0.133-0.132h-1.455v-0.794h-0.26462zm-1.3234 0.53h1.3234v0.793h-1.3234v-0.794zm1.587 0.528h1.323v0.794h-1.323zm0 1.588h2.118v0.794h-2.118z" fill="#363636"/>
</svg>
