<svg width="16" height="16" version="1.1" viewBox="0 0 4.233 4.233" xmlns="http://www.w3.org/2000/svg">
 <path d="m4.233 1.852h-0.661v0.2645h0.661zm-0.529-1.1914c0-0.072902-0.059098-0.132-0.132-0.132h-1.323c-0.072902 0-0.132 0.059098-0.132 0.132v0.96344c0.04009-0.023348 0.085607-0.035761 0.132-0.036h0.132v-0.79544h1.059v0.83144c0.039797-0.02318 0.084947-0.035587 0.131-0.036h0.133zm0 1.7179h-0.133c-0.045963-1.085e-4 -0.091108-0.01217-0.131-0.035v0.8315h-1.06v-0.7955h-0.13c-0.046484-5.42e-4 -0.092007-0.013302-0.132-0.037v0.9655c0 0.073 0.059 0.132 0.132 0.132h1.323c0.073294 2.1e-6 0.13256-0.059708 0.132-0.133zm-0.661-0.5265h-0.794v0.2645h0.794zm-1.19-1.7204c2.1e-6 -0.073294-0.059708-0.13256-0.133-0.132h-1.323c-0.072902 0-0.132 0.059098-0.132 0.132v1.4564h0.132c0.046302-6.55e-5 0.091813 0.012002 0.132 0.035v-1.3584h1.058v1.3244h0.133c0.046393 2.386e-4 0.09191 0.012652 0.132 0.036zm0 2.2109c-0.040384 0.023517-0.086268 0.035937-0.133 0.036h-0.133v1.3255h-1.057v-1.3595c-0.040187 0.022998-0.085698 0.035065-0.132 0.035h-0.133v1.4575c0 0.074 0.059 0.133 0.132 0.133h1.323c0.073294 2.1e-6 0.13256-0.059708 0.132-0.133zm-0.133-0.4905h-0.794v0.2645h0.794zm-1.323 0h-0.397v0.2645h0.397z" fill="#363636"/>
</svg>
