<svg width="16" height="16" version="1.1" viewBox="0 0 4.233 4.233" xmlns="http://www.w3.org/2000/svg">
 <path d="m1.852 0v0.661h0.2645v-0.661zm-0.926 0.53c-0.072128-8.28e-6 -0.13091 0.057881-0.132 0.13v1.323c0 0.074 0.059 0.133 0.132 0.133h0.698c-0.023517-0.040384-0.035937-0.086268-0.036-0.133v-0.132h-0.53v-1.057h0.566c-0.023348-0.04009-0.035761-0.085607-0.036-0.132v-0.133h-0.662zm1.4532 0v0.132c6.55e-5 0.046302-0.012002 0.091813-0.035 0.132h0.566v1.058h-0.53v0.132c-3.663e-4 0.046824-0.013133 0.092714-0.037 0.133h0.7c0.073294 2.1e-6 0.13256-0.059708 0.132-0.133v-1.323c-5.502e-4 -0.072902-0.060098-0.13155-0.133-0.131zm-0.52719 0.66v0.794h0.2645v-0.793h-0.2645zm-1.455 1.192c-0.073294-2.1e-6 -0.13256 0.059708-0.132 0.133v1.322c0 0.074 0.059 0.133 0.132 0.133h1.191v-0.133c-6.55e-5 -0.046302 0.012002-0.091813 0.035-0.132h-1.093v-1.059h1.059v-0.132c6.3e-5 -0.046732 0.012483-0.092616 0.036-0.133h-1.228zm1.9462 0c0.023517 0.040384 0.035937 0.086268 0.036 0.133v0.132h1.06v1.058h-1.094c0.022998 0.040187 0.035065 0.085698 0.035 0.132v0.133h1.192c0.073685 5.604e-4 0.13356-0.059315 0.133-0.133v-1.323c5.604e-4 -0.073685-0.059315-0.13356-0.133-0.133h-1.229zm-0.49119 0.133v0.793h0.2645v-0.793zm0 1.322v0.397h0.2645v-0.397z" fill="#363636"/>
</svg>
