<svg width="16" height="16" version="1.1" viewBox="0 0 16 16" xmlns="http://www.w3.org/2000/svg">
 <path d="m6 2c-1.4995 0-2.5425 1.0366-2.9316 2.0332l-1.9043 4.9668h1.0723l1.7637-4.6035c0.29153-0.74658 0.892-1.3965 2-1.3965h4c1.108 0 1.7085 0.64989 2 1.3965l2.1875 5.7109c-0.21961-0.062705-0.44722-0.10742-0.6875-0.10742h-5.5v1h5.5c0.831 0 1.5 0.669 1.5 1.5s-0.669 1.5-1.5 1.5h-5.5v1h5.5c1.385 0 2.5-1.115 2.5-2.5 0-0.28498-0.05748-0.55384-0.14453-0.80859h0.011719l-0.058594-0.15039-0.003906-0.015625c-0.0011-0.0027-0.002807-0.005113-0.003907-0.007813l-2.8691-7.4844c-0.38916-0.99659-1.4322-2.0332-2.9316-2.0332h-2-2zm-5.5 8c-0.277 0-0.5 0.223-0.5 0.5s0.223 0.5 0.5 0.5h6c0.277 0 0.5-0.223 0.5-0.5s-0.223-0.5-0.5-0.5h-6zm0 2c-0.277 0-0.5 0.223-0.5 0.5s0.223 0.5 0.5 0.5h6c0.277 0 0.5-0.223 0.5-0.5s-0.223-0.5-0.5-0.5h-6zm8 0a0.5 0.5 0 0 0-0.5 0.5 0.5 0.5 0 0 0 0.5 0.5 0.5 0.5 0 0 0 0.5-0.5 0.5 0.5 0 0 0-0.5-0.5zm2 0a0.5 0.5 0 0 0-0.5 0.5 0.5 0.5 0 0 0 0.5 0.5 0.5 0.5 0 0 0 0.5-0.5 0.5 0.5 0 0 0-0.5-0.5zm2 0a0.5 0.5 0 0 0-0.5 0.5 0.5 0.5 0 0 0 0.5 0.5 0.5 0.5 0 0 0 0.5-0.5 0.5 0.5 0 0 0-0.5-0.5zm-12 2c-0.277 0-0.5 0.223-0.5 0.5s0.223 0.5 0.5 0.5h6c0.277 0 0.5-0.223 0.5-0.5s-0.223-0.5-0.5-0.5h-6z" fill="#363636"/>
</svg>
