<svg width="16" height="16" version="1.1" viewBox="0 0 16 16" xmlns="http://www.w3.org/2000/svg">
 <path d="m10.824 0c-0.41265 0-0.82348 0.039975-1.2305 0.11914-0.42087 0.082215-0.8373 0.22453-1.248 0.42188-0.41653 0.20013-0.79113 0.44798-1.1172 0.74609a0.50005 0.50005 0 0 0 0 0.0019531c-0.34715 0.31779-0.6193 0.72103-0.81836 1.1914-0.20509 0.48377-0.30273 1.0196-0.30273 1.5938 0 0.47907 0.12163 1.0715 0.31641 1.752a3 3 0 0 0-0.43164 0.50781c-0.17077-0.098653-0.33478-0.19718-0.48438-0.29297a0.50005 0.50005 0 0 0-0.0019531-0.0019531c-0.23136-0.14732-0.47624-0.30112-0.73633-0.46289-0.26435-0.16474-0.49896-0.30257-0.70508-0.41602-0.21866-0.12035-0.45117-0.22753-0.69727-0.31836v0.0019531c-0.26364-0.09767-0.50638-0.1576-0.76367-0.14062-0.21202 0.014044-0.42027 0.070242-0.62109 0.1582a0.50005 0.50005 0 0 0-0.068359 0.035156c-0.53099 0.33905-0.93699 0.79827-1.1777 1.3496-0.23428 0.53775-0.32151 1.1247-0.25977 1.7246 0.060864 0.59165 0.24728 1.1752 0.54688 1.7422a0.50005 0.50005 0 0 0 0.0039063 0.0058594c0.24333 0.44498 0.53265 0.85009 0.86914 1.2129 0.34286 0.37004 0.74145 0.68362 1.1895 0.9375a0.50005 0.50005 0 0 0 0.0019531 0c0.49055 0.27761 1.0534 0.40125 1.6465 0.37305 0.60889-0.02933 1.2063-0.23815 1.7734-0.59766a0.50005 0.50005 0 0 0 0.0039063-0.001953c0.287-0.18463 0.60564-0.47862 0.94531-0.83008a3 3 0 0 0 1.0254 0.1875 3 3 0 0 0 0.38867-0.029297c0.026234 0.24414 0.04522 0.50136 0.048828 0.78516-3.88e-5 0.17073-0.0028725 0.41418-0.0078125 0.73242-0.00471 0.32376-0.0078125 0.56959-0.0078125 0.74024 0 0.18038 0.0086505 0.39268 0.023438 0.63867 0.016513 0.26352 0.04691 0.48538 0.10938 0.6875 0.057196 0.18507 0.13908 0.36262 0.24414 0.5293 0.12361 0.1961 0.29672 0.3644 0.50195 0.47461a0.50005 0.50005 0 0 0 0.0039063 0.001953c0.62377 0.32818 1.2691 0.48207 1.9062 0.42969 0.61894-0.05088 1.2062-0.26602 1.7305-0.62891 0.52035-0.35929 0.959-0.83738 1.3125-1.416l0.001953-0.001953c0.2787-0.45023 0.48792-0.93554 0.62695-1.4492 0.14088-0.52051 0.19664-1.0625 0.16992-1.6191-0.029222-0.60676-0.24294-1.1944-0.61328-1.7363-0.37711-0.5518-0.90932-1.0091-1.5684-1.3711-0.49134-0.27402-1.1773-0.49555-2.0195-0.69531a3 3 0 0 0-0.39062-0.78711c0.10171-0.064358 0.20972-0.13062 0.33398-0.20117 0.57378-0.32596 1.0659-0.60022 1.4766-0.82227 0.44773-0.24222 0.85111-0.52564 1.2051-0.84766 0.3818-0.34702 0.64648-0.7614 0.64648-1.2344 0-0.96376-0.39642-1.8075-1.1348-2.3672-0.72093-0.5461-1.6248-0.8125-2.6465-0.8125zm0 1c0.85335 0 1.5139 0.20858 2.043 0.60938 0.51168 0.38786 0.73828 0.85466 0.73828 1.5703 0 0.093287-0.05514 0.2549-0.31836 0.49414a0.50005 0.50005 0 0 0-0.001953 0.0019531c-0.28974 0.26363-0.62294 0.49792-1.0059 0.70508-0.41933 0.22672-0.91798 0.50361-1.4961 0.83203-0.20472 0.11624-0.39029 0.229-0.56836 0.33984a3 3 0 0 0-1.7324-0.55273 3 3 0 0 0-1.1934 0.25195c-0.11734-0.48744-0.18164-0.89168-0.18164-1.1777 0-0.46085 0.075866-0.85688 0.22266-1.2031a0.50005 0.50005 0 0 0 0-0.0019532c0.1522-0.35965 0.34511-0.63402 0.57422-0.84375 0.25021-0.22877 0.53964-0.42285 0.875-0.58398 0.34115-0.16391 0.67484-0.27713 1.0059-0.3418 0.3449-0.067088 0.69045-0.099609 1.0391-0.099609zm-8.1543 4.7012c0.036469-0.00241 0.16449 0.011495 0.34961 0.080078a0.50005 0.50005 0 0 0 0.0019532 0c0.20266 0.074799 0.38857 0.15925 0.56055 0.25391 0.18451 0.10155 0.40504 0.23091 0.6582 0.38867a0.50005 0.50005 0 0 0 0 0.0019531c0.25693 0.15981 0.49891 0.31209 0.72656 0.45703 0.1905 0.12198 0.39811 0.24419 0.61523 0.36719a3 3 0 0 0-0.099609 0.75 3 3 0 0 0 1.0898 2.3086c-0.23553 0.22284-0.43935 0.38784-0.60156 0.49219-0.44755 0.28321-0.86979 0.4214-1.2852 0.44141-0.43192 0.02054-0.78537-0.061038-1.1055-0.24219-0.36264-0.20551-0.67706-0.45432-0.94922-0.74805-0.27757-0.29927-0.51798-0.63471-0.72266-1.0078-0.24729-0.46802-0.38891-0.92358-0.43555-1.377-0.045756-0.44452 0.013961-0.84031 0.17969-1.2207 0.1555-0.35611 0.40994-0.63797 0.7793-0.88086 0.088662-0.033777 0.17097-0.059994 0.23828-0.064453zm5.8125 0.29883a2 2 0 0 1 2 2 2 2 0 0 1-2 2 2 2 0 0 1-2-2 2 2 0 0 1 2-2zm2.959 1.5137a3 3 0 0 1 0.00586 0.029297 3 3 0 0 0-0.00586-0.029297zm0.03125 0.60938c0.61531 0.16841 1.0855 0.34522 1.3945 0.51758a0.50005 0.50005 0 0 0 0.001953 0.0019531c0.54975 0.30141 0.95004 0.65594 1.2266 1.0605 0.28405 0.41563 0.42182 0.81312 0.44141 1.2207 0.02203 0.45897-0.02385 0.89353-0.13672 1.3105-0.11449 0.423-0.28491 0.81638-0.51367 1.1855a0.50005 0.50005 0 0 0-0.001953 0.001953c-0.29 0.47527-0.63163 0.8426-1.0293 1.1172-0.3932 0.27213-0.79868 0.4165-1.2441 0.45313-0.42594 0.035008-0.86786-0.05875-1.3555-0.31445l-0.003906-0.001953c-0.04692-0.02576-0.08333-0.0589-0.125-0.125-0.06119-0.09708-0.10446-0.19295-0.13477-0.29102-0.02493-0.08067-0.052852-0.23927-0.066406-0.45312v-0.001953c-0.013863-0.23111-0.021484-0.42518-0.021484-0.57617 0-0.16124 0.0031425-0.40335 0.0078125-0.72461 0.00502-0.3236 0.0078125-0.57353 0.0078125-0.75391a0.50005 0.50005 0 0 0 0-0.001953 0.50005 0.50005 0 0 0 0-0.001953 0.50005 0.50005 0 0 0 0-0.001953 0.50005 0.50005 0 0 0 0-0.001953c-0.0048541-0.38169-0.023005-0.74306-0.054688-1.0879a3 3 0 0 0 1.6074-2.5313zm-4.5 2.4609a3 3 0 0 0 0.050781 0.027344 3 3 0 0 1-0.050781-0.027344z" color="#000000" fill="#363636" stroke-linecap="round" stroke-linejoin="round" style="-inkscape-stroke:none"/>
</svg>
