<svg width="16px" height="16px" version="1.1" viewBox="0 0 16 16" xmlns="http://www.w3.org/2000/svg">
 <path d="m7 5v5.2754c-0.5958 0.3456-1 0.9836-1 1.7246 0 1.108 0.892 2 2 2s2-0.892 2-2c0-0.741-0.4042-1.379-1-1.7246v-5.2754z" fill="#363636" opacity=".45"/>
 <path d="m8-7e-8c-1.662 0-3 1.338-3 3v6.375c-0.615 0.703-1 1.6134-1 2.625 0 2.216 1.784 4 4 4 2.216 0 4-1.784 4-4 0-1.0116-0.385-1.922-1-2.625v-6.375c0-1.662-1.338-3-3-3zm0 1c1.108 0 2 0.8921 2 2v6.7754c0.6101 0.5484 1 1.3359 1 2.2246 0 1.662-1.338 3-3 3s-3-1.338-3-3c0-0.8887 0.3899-1.6762 1-2.2246v-6.7754c0-1.1079 0.892-2 2-2z" fill="#363636"/>
</svg>
