<svg width="16px" height="16px" version="1.1" viewBox="0 0 16 16" xmlns="http://www.w3.org/2000/svg">
 <path d="m9.4453 0.046875c-0.41797-0.011719-0.82422 0.14062-1.1289 0.42188l-0.32422 0.28906-0.32031-0.28906c-1.5977-1.4688-3.7734 0.97656-2.1289 2.3906l2.4492 2.1836 2.4531-2.1836c1.1094-0.95312 0.46094-2.7734-1-2.8125z" fill="#363636"/>
 <path d="m5.5 5a5.5 5.5 0 0 0-5.5 5.5 5.5 5.5 0 0 0 5.5 5.5 5.5 5.5 0 0 0 1.3066-0.16992 6.5 6.5 0 0 1-0.98828-0.85547 4.5 4.5 0 0 1-0.31836 0.025391 4.5 4.5 0 0 1-4.5-4.5 4.5 4.5 0 0 1 4.5-4.5 4.5 4.5 0 0 1 4.5 4.5 4.5 4.5 0 0 1-1.2051 3.0488 3.5 3.5 0 0 0 0.99609 0.37305 5.5 5.5 0 0 0 1.209-3.4219 5.5 5.5 0 0 0-5.5-5.5z" fill="#363636" stroke-linecap="round" stroke-linejoin="round" stroke-width="2.0038" style="paint-order:stroke fill markers"/>
 <path d="m10.5 16a5.5 5.5 0 0 0 5.5-5.5 5.5 5.5 0 0 0-5.5-5.5 5.5 5.5 0 0 0-1.3066 0.16992 6.5 6.5 0 0 1 0.98828 0.85547 4.5 4.5 0 0 1 0.31836-0.025391 4.5 4.5 0 0 1 4.5 4.5 4.5 4.5 0 0 1-4.5 4.5 4.5 4.5 0 0 1-4.5-4.5 4.5 4.5 0 0 1 1.2051-3.0488 3.5 3.5 0 0 0-0.99609-0.37305 5.5 5.5 0 0 0-1.209 3.4219 5.5 5.5 0 0 0 5.5 5.5z" fill="#363636" stroke-linecap="round" stroke-linejoin="round" stroke-width="2.0038" style="paint-order:stroke fill markers"/>
</svg>
