<svg width="16" height="16" version="1.1" xmlns="http://www.w3.org/2000/svg">
 <path d="m4.005 13-1.8806 1.527c-0.37709 0.3063 0.18854 0.76576 0.56563 0.45946l1.315-1.0688 1.5978 1.2979 1.5978-1.2979 1.5978 1.2979 1.5978-1.2979 1.5978 1.2979 1.8806-1.527c0.37709-0.3063-0.18854-0.76576-0.56563-0.45946l-1.315 1.0688-1.5978-1.2979-1.5978 1.2979-1.5978-1.2979-1.5978 1.2979z" fill="#363636"/>
 <path d="m4 2v1h6c1.108 0 2 0.892 2 2v1h-6c-1.662 0-3 1.338-3 3 0 1.662 1.338 3 3 3h7v-7c0-1.662-1.338-3-3-3zm2 5h6v4h-6c-1.108 0-2-0.892-2-2 0-1.108 0.892-2 2-2z" fill="#363636"/>
</svg>
