<svg width="16px" height="16px" version="1.1" viewBox="0 0 16 16" xmlns="http://www.w3.org/2000/svg">
 <path d="m5.8878 9.6122c-0.12781 0-0.25558 0.04855-0.35352 0.14648l-4.5011 4.5011c-0.021961-0.08262-0.033203-0.17004-0.033202-0.25977l-7e-7 -4-3e-7 -0.5c3e-7 -0.277-0.223-0.5-0.5-0.5-0.277 3e-7 -0.5 0.223-0.5 0.5l-1.6e-7 1 4.8e-7 3.5c2.2e-7 1.108 0.892 2 2 2h3.5l0.5-1e-6 0.5 1e-6c0.277-1e-6 0.5-0.223 0.5-0.5 3e-7 -0.277-0.223-0.5-0.5-0.5h-0.5l-0.5 1e-6 -3.5-1e-6c-0.089721-3e-6 -0.17715-0.01124-0.25977-0.0332l4.5011-4.5011c0.19587-0.19587 0.19587-0.51116 0-0.70703-0.097934-0.097934-0.22571-0.14648-0.35352-0.14648z" fill="#363636"/>
 <path d="m10.112 6.3878c0.12781 0 0.25558-0.04855 0.35352-0.14648l4.5011-4.5011c0.02196 0.08262 0.0332 0.17004 0.0332 0.25977v4l1e-6 0.5c-1e-6 0.277 0.223 0.5 0.5 0.5 0.277 0 0.5-0.223 0.5-0.5v-4.5c-1e-6 -1.108-0.892-2-2-2h-3.5l-0.5 1e-6 -0.5-1e-6c-0.277 1e-6 -0.5 0.223-0.5 0.5-1e-6 0.277 0.223 0.5 0.5 0.5h0.5l0.5-1e-6 3.5 1e-6c0.08972 3e-6 0.17714 0.01124 0.25977 0.0332l-4.5011 4.5011c-0.19587 0.19587-0.19587 0.51116 0 0.70703 0.09793 0.09793 0.22571 0.14648 0.35351 0.14648z" fill="#363636"/>
</svg>
