<svg xmlns="http://www.w3.org/2000/svg" width="16" height="16"><path fill="#363636" d="M8 0a7.91 7.91 0 0 0-3.1.63l2.028 3.516C7.268 4.054 7.627 4 8 4s.731.054 1.072.146L11.1.631A7.91 7.91 0 0 0 8 0zm0 1c.549 0 1.036.193 1.549.314L8.535 3.072C8.355 3.052 8.188 3 8 3c-.188 0-.354.052-.535.072L6.45 1.314C6.964 1.194 7.451 1 8 1zm-4.828.637A8.028 8.028 0 0 0 .064 7h4.063a3.955 3.955 0 0 1 1.065-1.865l-2.02-3.498zm9.656 0-2.02 3.498A3.956 3.956 0 0 1 11.874 7h4.063a8.028 8.028 0 0 0-3.108-5.363zM2.99 3.32l1.07 1.854c-.184.26-.34.532-.472.826H1.44a6.843 6.843 0 0 1 1.55-2.68zm10.02 0A6.842 6.842 0 0 1 14.56 6h-2.147a4.881 4.881 0 0 0-.472-.826l1.07-1.854zM.065 9a8.028 8.028 0 0 0 3.108 5.363l2.02-3.498A3.956 3.956 0 0 1 4.127 9H.065zm11.81 0a3.955 3.955 0 0 1-1.065 1.865l2.02 3.498A8.028 8.028 0 0 0 15.936 9h-4.063zM1.441 10H3.59c.132.294.288.566.472.826l-1.07 1.854A6.842 6.842 0 0 1 1.442 10zm10.971 0h2.147a6.843 6.843 0 0 1-1.55 2.68l-1.07-1.854c.185-.26.34-.532.473-.826zM6.93 11.854 4.9 15.369a7.924 7.924 0 0 0 6.2.001l-2.028-3.516C8.732 11.946 8.373 12 8 12s-.731-.054-1.072-.146zm.537 1.074c.18.02.347.072.535.072.188 0 .354-.052.535-.072l1.014 1.758c-.513.12-1 .314-1.549.314s-1.036-.193-1.549-.314l1.014-1.758z"/></svg>