<svg width="16px" height="16px" version="1.1" viewBox="0 0 16 16" xmlns="http://www.w3.org/2000/svg">
 <path d="m8.2578 3.2566c-0.12781 0-0.25558 0.050503-0.35352 0.14844-0.19587 0.19587-0.19587 0.51116 0 0.70703l3.3887 3.3887h-10.793c-0.277 0-0.5 0.223-0.5 0.5s0.223 0.5 0.5 0.5h10.793l-3.3887 3.3887c-0.19587 0.19587-0.19587 0.51116 0 0.70703 0.19587 0.19587 0.51116 0.19587 0.70703 0l4.2422-4.2422c0.19587-0.19587 0.19587-0.51116 0-0.70703l-4.2422-4.2422c-0.097934-0.097934-0.22571-0.14844-0.35352-0.14844z" fill="#363636" stroke-linecap="round" stroke-linejoin="round"/>
</svg>
