<svg width="16px" height="16px" version="1.1" viewBox="0 0 16 16" xmlns="http://www.w3.org/2000/svg">
 <path d="m7.7422 3.2566c0.12781 0 0.25558 0.050503 0.35352 0.14844 0.19587 0.19587 0.19587 0.51116 0 0.70703l-3.3887 3.3887h10.793c0.277 0 0.5 0.223 0.5 0.5s-0.223 0.5-0.5 0.5h-10.793l3.3887 3.3887c0.19587 0.19587 0.19587 0.51116 0 0.70703-0.19587 0.19587-0.51116 0.19587-0.70703 0l-4.2422-4.2422c-0.19587-0.19587-0.19587-0.51116 0-0.70703l4.2422-4.2422c0.097934-0.097934 0.22571-0.14844 0.35352-0.14844z" fill="#363636" stroke-linecap="round" stroke-linejoin="round"/>
</svg>
