<svg width="16px" height="16px" version="1.1" viewBox="0 0 16 16" xmlns="http://www.w3.org/2000/svg">
 <path d="m3 0c-1.662 0-3 1.338-3 3v3 3 4c0 1.662 1.338 3 3 3h4 3 3c1.662 0 3-1.338 3-3v-4c0-1.662-1.338-3-3-3 0-1.662-1.338-3-3-3 0-1.662-1.338-3-3-3h-4zm0 1h4c1.108 0 2 0.892 2 2h-6c-0.77107 0-1.4697 0.2909-2 0.76562v-0.76562c0-1.108 0.892-2 2-2zm0 3h6v2h-6c-0.77107 0-1.4697 0.2909-2 0.76562v-0.76562c0-1.108 0.892-2 2-2zm7 0c1.108 0 2 0.892 2 2h-2v-2zm-7 3h6v6c0 1.108-0.892 2-2 2h-4c-0.20775 0-0.4076-0.031581-0.5957-0.089844-0.062702-0.019421-0.12373-0.041172-0.18359-0.066406-0.71831-0.30281-1.2207-1.0128-1.2207-1.8438v-4c0-1.108 0.892-2 2-2zm7 0h2v6c0 1.108-0.892 2-2 2h-0.76562c0.47472-0.53034 0.76562-1.2289 0.76562-2v-6zm3 0c1.108 0 2 0.892 2 2v4c0 1.108-0.892 2-2 2h-0.76562c0.47472-0.53034 0.76562-1.2289 0.76562-2v-6z" fill="#363636"/>
</svg>
