<svg xmlns="http://www.w3.org/2000/svg" width="16" height="16"><path fill="#363636" d="M7.785 2.476a1.26 1.26 0 0 0-1.242 1.458c-.26.311-.428.69-.5 1.086-.145.808-.022 1.714.123 2.655.224 1.45.474 2.956.247 4.051-.02 0-.04-.003-.062-.003-.318 0-.606.123-.828.32-1.251-.484-1.873-.978-2.107-1.389-.316-.552-.144-1.123.19-1.855.332-.732.856-1.508.8-2.425-.03-.458-.256-.931-.678-1.295-.422-.364-1.02-.648-1.862-.894l-.283.966c.761.223 1.232.47 1.487.69.255.22.316.382.33.595.026.427-.346 1.144-.711 1.946-.365.803-.695 1.81-.147 2.77.403.705 1.2 1.29 2.552 1.812v.018c0 .693.565 1.259 1.258 1.259.694 0 1.26-.566 1.26-1.26 0-.285-.099-.546-.26-.757.45-1.455.042-3.202-.19-4.704-.142-.92-.228-1.757-.126-2.321.027-.152.061-.278.105-.39.19.115.409.184.645.184.367 0 .695-.161.925-.414.607.292.87.57.978.8.165.351.06.807-.01 1.462-.066.656.013 1.526.773 2.266s2.09 1.389 4.515 2.038l.262-.974c-2.347-.63-3.537-1.262-4.074-1.785-.536-.523-.53-.897-.474-1.443.056-.545.267-1.25-.083-1.993-.244-.517-.73-.948-1.56-1.327a1.26 1.26 0 0 0-1.253-1.147zm0 .504c.422 0 .754.332.754.755a.747.747 0 0 1-.754.755.747.747 0 0 1-.756-.755c0-.423.332-.755.756-.755zM6.35 12.227a.75.75 0 0 1 .757.755.748.748 0 0 1-.757.754.747.747 0 0 1-.755-.754c0-.423.332-.755.755-.755z"/></svg>