<svg width="16" height="16" version="1.1" xmlns="http://www.w3.org/2000/svg">
 <path d="m5 0c-1.662 0-3 1.338-3 3v9c0 1.662 1.338 3 3 3h3.6855a4.5 4.5 0 0 1-0.92188-1h-2.6602c-1.1648 0-2.1035-0.93869-2.1035-2.1035v-8.793c0-1.1648 0.93869-2.1035 2.1035-2.1035h3.8965v2c0 1.108 0.892 2 2 2h2v2.2578a4.5 4.5 0 0 1 1 0.5v-2.3438-0.41406-1l-4-4h-1-4zm5 1.4141 2.5859 2.5859h-1.5859c-0.554 0-1-0.446-1-1v-1.5859z" fill="#363636"/>
 <path d="m13.975 9.0251a3.5 3.5 0 0 0-4.9497 0 3.5 3.5 0 0 0 0 4.9497 3.5 3.5 0 0 0 4.5713 0.32869l1.7926 1.7926c0.19587 0.19587 0.51124 0.19587 0.70711 0 0.19587-0.19587 0.19587-0.51124 0-0.70711l-1.7926-1.7926a3.5 3.5 0 0 0-0.32869-4.5713zm-0.70711 0.70711a2.5 2.5 0 0 1 0 3.5355 2.5 2.5 0 0 1-3.5355 0 2.5 2.5 0 0 1 0-3.5355 2.5 2.5 0 0 1 3.5355 0z" fill="#363636"/>
</svg>
