<svg width="16px" height="16px" version="1.1" viewBox="0 0 16 16" xmlns="http://www.w3.org/2000/svg">
 <path d="m8 0a8 8 0 0 0-8 8 8 8 0 0 0 8 8 8 8 0 0 0 8-8 8 8 0 0 0-8-8zm0 1a7 7 0 0 1 7 7 7 7 0 0 1-7 7 7 7 0 0 1-7-7 7 7 0 0 1 7-7z" fill="#363636" stop-color="#000000" style="paint-order:stroke fill markers"/>
 <path d="m7.8242 0.013672a8 8 0 0 0-1.0117 0.078125 5.5 5.5 0 0 1 0.1875 1.4082 5.5 5.5 0 0 1-5.5 5.5 5.5 5.5 0 0 1-1.4043-0.20117 8 8 0 0 0-0.082031 1.0098 6.5 6.5 0 0 0 1.4863 0.19141 6.5 6.5 0 0 0 6.5-6.5 6.5 6.5 0 0 0-0.17578-1.4863zm6.6758 7.9863a6.5 6.5 0 0 0-6.5 6.5 6.5 6.5 0 0 0 0.19141 1.4863 8 8 0 0 0 1.0098-0.082031 5.5 5.5 0 0 1-0.20117-1.4043 5.5 5.5 0 0 1 5.5-5.5 5.5 5.5 0 0 1 1.4082 0.1875 8 8 0 0 0 0.078125-1.0117 6.5 6.5 0 0 0-1.4863-0.17578z" fill="#363636" stop-color="#000000" style="paint-order:stroke fill markers"/>
</svg>
