<svg width="16px" height="16px" version="1.1" viewBox="0 0 16 16" xmlns="http://www.w3.org/2000/svg">
 <path d="m8 0.50781s-1.0586 0.89844-0.99609 1.4961c0.042969 0.46484 0.52734 0.99609 0.99609 0.99609s0.95312-0.53125 0.99609-0.99609c0.0625-0.59766-0.99609-1.4961-0.99609-1.4961z" fill="#363636"/>
 <path d="m3 7c-1.108 0-2 0.892-2 2v6h1v-6c0-0.554 0.446-1 1-1h10c0.554 0 1 0.446 1 1v6h1v-6c0-1.108-0.892-2-2-2h-10z" fill="#363636" fill-rule="evenodd" stop-color="#000000" style="paint-order:stroke fill markers"/>
 <rect y="15" width="16" height="1" rx="0" ry="0" fill="#363636" fill-rule="evenodd" stop-color="#000000" style="paint-order:stroke fill markers"/>
 <path d="m1 11 4 1 3-1 3 1 4-1v1l-4 1-3-1-3 1-4-1z" fill="#363636"/>
 <rect x="7.5" y="4" width="1" height="4" fill="#363636" stop-color="#000000" style="paint-order:stroke fill markers"/>
</svg>
