<svg width="16" height="16" version="1.1" viewBox="0 0 16 16" xmlns="http://www.w3.org/2000/svg">
 <defs>
  <style id="current-color-scheme" type="text/css">
   .ColorScheme-Text { color:#363636; } .ColorScheme-Highlight { color:#5294e2; }
  </style>
 </defs>
<g transform="translate(-104 -576.36)">
<path style="fill:currentColor" class="ColorScheme-Text" d="m108.5 580.36a4.5 4.5 0 0 0-4.5 4.5 4.5 4.5 0 0 0 4.5 4.5 4.5 4.5 0 0 0 4.3086-3.2266 4.5 4.5 0 0 1-0.0664 0.22852h3.2578v0.99805c0 0.554 0.446 1 1 1s1-0.446 1-1v-0.99805h0.5c0.83133 0 1.5-0.67062 1.5-1.502 0-0.83134-0.66867-1.5-1.5-1.5h-5.7578a4.5 4.5 0 0 0-4.2422-3zm0 1a3.5 3.5 0 0 1 3.5 3.5 3.5 3.5 0 0 1-3.5 3.5 3.5 3.5 0 0 1-3.5-3.5 3.5 3.5 0 0 1 3.5-3.5zm0 2a1.5002 1.5002 0 0 0-1.5 1.5 1.5002 1.5002 0 0 0 1.5 1.5 1.5002 1.5002 0 0 0 1.5-1.5 1.5002 1.5002 0 0 0-1.5-1.5zm4.4707 0.99218a4.5 4.5 0 0 1 0.00196 0.00782h5.5273c0.27732 0 0.5 0.22268 0.5 0.5 0 0.27731-0.22268 0.50195-0.5 0.50195h-0.5v-0.00195h-2v0.00195h-3.0273a4.5 4.5 0 0 1-0.00977 0.05859 4.5 4.5 0 0 0 0.03711-0.56054 4.5 4.5 0 0 0-0.0293-0.50782zm-4.4707 0.00782a0.5 0.5 0 0 1 0.5 0.5 0.5 0.5 0 0 1-0.5 0.5 0.5 0.5 0 0 1-0.5-0.5 0.5 0.5 0 0 1 0.5-0.5zm4.4414 1.1836a4.5 4.5 0 0 1-0.08594 0.42969 4.5 4.5 0 0 0 0.08594-0.42969z"/></g></svg>
