<svg xmlns="http://www.w3.org/2000/svg" width="16" height="16"><path d="M5 5a3 3 0 0 0-3 3 3 3 0 0 0 3 3 3 3 0 0 0 2.418-1.236A4 4 0 0 1 7 8a4 4 0 0 1 .422-1.771A3 3 0 0 0 5 5zm6 0a3 3 0 0 1 3 3 3 3 0 0 1-3 3 3 3 0 0 1-2.418-1.236A4 4 0 0 0 9 8a4 4 0 0 0-.422-1.771A3 3 0 0 1 11 5Z" style="fill:#363636;stroke-width:2;stroke-linecap:round;stroke-linejoin:round;paint-order:stroke fill markers;stop-color:#000;opacity:.35"/><path d="M5 3a5 5 0 0 0-5 5 5 5 0 0 0 5 5 5 5 0 0 0 5-5 5 5 0 0 0-5-5zm0 1a4 4 0 0 1 4 4 4 4 0 0 1-4 4 4 4 0 0 1-4-4 4 4 0 0 1 4-4z" style="fill:#363636;stroke-width:2;stroke-linecap:round;stroke-linejoin:round;paint-order:stroke fill markers;stop-color:#000"/><path d="M11 3a5 5 0 0 0-5 5 5 5 0 0 0 5 5 5 5 0 0 0 5-5 5 5 0 0 0-5-5Zm0 1a4 4 0 0 1 4 4 4 4 0 0 1-4 4 4 4 0 0 1-4-4 4 4 0 0 1 4-4Z" style="fill:#363636;stroke-width:2;stroke-linecap:round;stroke-linejoin:round;paint-order:stroke fill markers;stop-color:#000"/></svg>