<svg width="32" height="32" version="1.1" viewBox="0 0 8.5 8.5" xmlns="http://www.w3.org/2000/svg">
 <path d="m2.1266 1.6a0.52662 0.52662 0 0 0-0.52658 0.52658 0.52662 0.52662 0 0 0 0.52658 0.52658 0.52662 0.52662 0 0 0 0.52658-0.52658 0.52662 0.52662 0 0 0-0.52658-0.52658zm2.1234 0a0.52662 0.52662 0 0 0-0.52658 0.52658 0.52662 0.52662 0 0 0 0.52658 0.52658 0.52662 0.52662 0 0 0 0.52658-0.52658 0.52662 0.52662 0 0 0-0.52658-0.52658zm2.1203 0a0.52662 0.52662 0 0 0-0.52658 0.52658 0.52662 0.52662 0 0 0 0.52658 0.52658 0.52662 0.52662 0 0 0 0.52658-0.52658 0.52662 0.52662 0 0 0-0.52658-0.52658zm-4.2438 2.1234a0.52662 0.52662 0 0 0-0.52658 0.52658 0.52662 0.52662 0 0 0 0.52658 0.52658 0.52662 0.52662 0 0 0 0.52658-0.52658 0.52662 0.52662 0 0 0-0.52658-0.52658zm2.1234 0a0.52662 0.52662 0 0 0-0.52658 0.52658 0.52662 0.52662 0 0 0 0.52658 0.52658 0.52662 0.52662 0 0 0 0.52658-0.52658 0.52662 0.52662 0 0 0-0.52658-0.52658zm2.1203 0a0.52662 0.52662 0 0 0-0.52658 0.52658 0.52662 0.52662 0 0 0 0.52658 0.52658 0.52662 0.52662 0 0 0 0.52658-0.52658 0.52662 0.52662 0 0 0-0.52658-0.52658zm-4.2438 2.125a0.52662 0.52662 0 0 0-0.52658 0.52658 0.52662 0.52662 0 0 0 0.52658 0.52658 0.52662 0.52662 0 0 0 0.52658-0.52658 0.52662 0.52662 0 0 0-0.52658-0.52658zm2.1234 0a0.52662 0.52662 0 0 0-0.52658 0.52658 0.52662 0.52662 0 0 0 0.52658 0.52658 0.52662 0.52662 0 0 0 0.52658-0.52658 0.52662 0.52662 0 0 0-0.52658-0.52658zm2.1203 0a0.52662 0.52662 0 0 0-0.52658 0.52658 0.52662 0.52662 0 0 0 0.52658 0.52658 0.52662 0.52662 0 0 0 0.52658-0.52658 0.52662 0.52662 0 0 0-0.52658-0.52658z" fill="#363636"/>
</svg>
