<svg width="16" height="16" version="1.1" viewBox="0 0 16 16" xmlns="http://www.w3.org/2000/svg">
 <path d="m10.967 1.6667c2.2 1 3.7333 3.1333 4 5.6667h1c-0.4-4.1333-3.8-7.3333-8-7.3333h-0.46667l2.5333 2.5333zm-4.2-0.53333c-0.4-0.4-1-0.4-1.4 0l-4.2667 4.2667c-0.4 0.4-0.4 1 0 1.4l8 8c0.40003 0.40003 1 0.40003 1.4 0l4.2666-4.2667c0.40003-0.40003 0.40003-1 0-1.4zm3.0667 13-8-8 4.2667-4.2667 8 8zm-4.8667 0.2c-2.2-1-3.7333-3.1333-4-5.6667h-0.93333c0.33333 4.1333 3.7333 7.3333 7.9333 7.3333h0.46667l-2.5333-2.5333z" fill="#363636" stroke-width=".026144"/>
</svg>
