<svg version="1.1" viewBox="0 0 16 16" xmlns="http://www.w3.org/2000/svg">
 <path d="m4.668 1.168c-0.12781 0-0.25558 0.04855-0.35352 0.14648-0.19587 0.19587-0.19587 0.51116 0 0.70703l1.7148 1.7148c-0.63086 0.54918-1.0293 1.3577-1.0293 2.2637h-2.5c-0.277 0-0.5 0.223-0.5 0.5s0.223 0.5 0.5 0.5h2.5v2h-2.5c-0.277 0-0.5 0.223-0.5 0.5s0.223 0.5 0.5 0.5h2.5v2h-2.5c-0.277 0-0.5 0.223-0.5 0.5s0.223 0.5 0.5 0.5h2.6699c0.41017 1.1673 1.5192 2 2.8301 2s2.4199-0.83273 2.8301-2h2.6699c0.277 0 0.5-0.223 0.5-0.5s-0.223-0.5-0.5-0.5h-2.5v-2h2.5c0.277 0 0.5-0.223 0.5-0.5s-0.223-0.5-0.5-0.5h-2.5v-2h2.5c0.277 0 0.5-0.223 0.5-0.5s-0.223-0.5-0.5-0.5h-2.5c0-0.90692-0.39919-1.7164-1.0312-2.2656l1.7129-1.7109c0.19587-0.19587 0.19587-0.51116 0-0.70703-0.19587-0.19587-0.51116-0.19587-0.70703 0l-1.8867 1.8867c-0.33718-0.1306-0.7035-0.20312-1.0879-0.20312-0.38503 0-0.7522 0.072111-1.0898 0.20312l-1.8887-1.8887c-0.097934-0.097934-0.22571-0.14648-0.35352-0.14648zm3.332 2.832c1.108 0 2 0.892 2 2v6c0 1.108-0.892 2-2 2s-2-0.892-2-2v-6c0-1.108 0.892-2 2-2z" fill="#363636"/>
</svg>
