<svg width="16px" height="16px" version="1.1" viewBox="0 0 16 16" xmlns="http://www.w3.org/2000/svg">
 <path d="m8.2051 0.25391c-1.1347 0.0091198-2.4623 0.30795-3.8047 0.86133l-0.125 0.052734-0.082031 0.10742c-0.071487 0.09377-0.20558 0.32073-0.12109 0.59766l0.0058594 0.019531 0.0078125 0.019531c0.095617 0.23924 0.3794 0.43501 0.65234 0.42773h0.0039063 0.0039063c0.95939-0.042734 2.2733 0.18932 2.9668 0.87695l0.0019532 0.0019531c0.16021 0.16021 0.33495 0.31704 0.4375 0.57812 0.068027 0.17319 0.042547 0.5695-0.22656 0.84375l-0.011719 0.011719c-0.16555 0.15565-0.45191 0.43711-0.7168 0.69727l-0.36133 0.35352 2.0859 2.0859 1.2383-1.2383 0.003906-0.0039062c0.36363-0.35555 0.84558-0.54688 1.3359-0.54688 0.027379 0 0.054724 0.0027181 0.082031 0.0039062-0.18297-0.071513-0.3733-0.11314-0.5625-0.125-0.41136-0.025777-0.89178 0.086414-1.2617 0.44531l-0.45703 0.42969-1.041-1.041c0.12411-0.12105 0.28021-0.27674 0.34961-0.3418l0.019531-0.019531 0.011719-0.011719c0.54821-0.55868 0.67554-1.3141 0.44141-1.9102-0.19961-0.50819-0.56279-0.8206-0.66016-0.91797l-0.0019531-0.0019532-0.0019531-0.0019531c-0.47678-0.47398-1.0767-0.73737-1.6855-0.91406 0.49373-0.098697 1.0655-0.33651 1.4805-0.33984 0.98684-0.0079299 1.6917 0.27877 1.9277 0.51562l0.007813 0.0078126 0.015624 0.015625 0.007813 0.0078124c0.51641 0.47307 1.1886 1.1729 2.1523 2.1406 0.0137 0.0137 0.008003 0.02837-0.029297 0.11914l-0.003906 0.0078125-0.013672 0.044922c-0.24494 0.61724-0.095501 1.3168 0.36328 1.7852l0.037109 0.037109 0.035157 0.027344-0.041016-0.037109c0.54806 0.51582 1.3339 0.50215 1.9648 0.14062l0.36133 0.36133c0.0086-2.839e-4 0.016027-0.012253-0.001953 0.0058594l-1.1367 1.1367 0.70703 0.70703 1.1387-1.1387 0.001953-0.0019531c0.37951-0.38322 0.37725-1.0304 0.003907-1.4102l-0.001954-0.0019531-0.48828-0.48828-0.005859-0.0039062c-0.07607-0.07159-0.17484-0.14702-0.33398-0.18359-0.15914-0.036577-0.38692 0.0021701-0.53906 0.11719l-0.023438 0.015625-0.019531 0.019531c-0.26161 0.24758-0.67913 0.24673-0.94336-0.0019531-0.17782-0.18151-0.23807-0.44821-0.1582-0.68555l-0.007813 0.0097656 0.015625-0.035156c5.13e-4 -0.0013425 0.001431-0.0025658 0.001953-0.0039062v-0.0019531l0.001953-0.0019531v-0.0019532-0.0019531c0.20141-0.47741 0.07232-0.99212-0.17773-1.2422-0.95039-0.95427-1.6114-1.6452-2.168-2.1562l-0.007812-0.0078125-0.007813-0.0078125c-0.55812-0.55998-1.4826-0.81792-2.6426-0.80859zm-2.3145 6.375-0.35156 0.34961-4.9434 4.9258c-0.19102 0.18911-0.30619 0.31122-0.39258 0.48828-0.075286 0.15431-0.10641 0.35182-0.10742 0.59766v0.007813 0.007812c0.03027 1.0842 0.90797 1.9619 1.9922 1.9922h0.0058594 0.0058594c0.24528 8e-4 0.36866-0.08902 0.51562-0.18945 0.14697-0.10044 0.30484-0.23648 0.49805-0.42969l2.8926-2.8887c0.0024248-0.48265 0.18344-0.96453 0.54492-1.3301l0.0019532-0.001953 1.4512-1.4512-2.1133-2.0781zm0.0039062 1.4062 1.0859 1.0664-4.5742 4.5703c-0.16078 0.16078-0.27872 0.25485-0.34766 0.30273-0.53934-0.04623-0.9466-0.44387-0.96289-0.99414v-0.001953c0.00182-0.13559 0.0085094-0.15388 0.0058594-0.14844-0.012907 0.02645 0.034224-0.0535 0.19922-0.2168l4.5938-4.5781zm7.1055 1.5039v0.18945c0.043417-0.018438 0.084626-0.040386 0.125-0.064453l-0.125-0.125z" fill="#363636"/>
 <path d="m11.5 7c-0.23047 0-0.46094 0.089844-0.63672 0.26172l-3.6016 3.6016c-0.34766 0.35156-0.34766 0.92188 0 1.2734l3.6016 3.5977c0.35156 0.35156 0.92188 0.35156 1.2734 0l3.6016-3.5977c0.34766-0.35156 0.34766-0.92188 0-1.2734l-3.6016-3.6016c-0.17578-0.17188-0.40625-0.26172-0.63672-0.26172zm-0.5 2h1v3h-1zm0.5 3.8984c0.33203 0.0039 0.59766 0.26953 0.60156 0.60156-0.0039 0.33203-0.26953 0.59766-0.60156 0.59766s-0.59766-0.26562-0.60156-0.59766c0.0039-0.33203 0.26953-0.59766 0.60156-0.60156z" fill="#363636"/>
</svg>
