<svg width="16px" height="16px" version="1.1" viewBox="0 0 16 16" xmlns="http://www.w3.org/2000/svg">
 <path d="m6 0v2.334c-1.1843 0.55985-2 1.7646-2 3.166v1.5 1 2 3 1 1c0 0.554 0.446 1 1 1h5c0.554 0 1-0.446 1-1v-5-4.5c0-1.4015-0.81574-2.6062-2-3.166v-2.334h-3zm1 1h1v1.0371c-0.16311-0.02312-0.3303-0.037109-0.5-0.037109s-0.33689 0.01399-0.5 0.037109v-1.0371zm0.5 2c1.214 0 2.2211 0.85579 2.4512 2h-4.9023c0.23009-1.1442 1.2372-2 2.4512-2zm-2.5 3h5v4 5h-5v-1h4v-1-6h-4v-1zm0 2h3v5h-3v-3-2z" fill="#363636"/>
</svg>
