<svg width="16px" height="16px" version="1.1" viewBox="0 0 16 16" xmlns="http://www.w3.org/2000/svg">
 <path d="m4 1c-1.108 0-2 0.89201-2 2v12h-1v1h14v-1h-1v-12c0-1.108-0.892-2-2-2zm0 1h2v2h-3v-1c0-0.554 0.446-1 1-1zm3 0h2v2h-2zm3 0h2c0.554 0 1 0.446 1 1v1h-3zm-7 3h3v2h-3zm4 0h2v2h-2zm3 0h3v2h-3zm-7 3h3v2h-3zm4 0h2v2h-2zm3 0h3v2h-3zm-7 3h10v4h-10z" fill="#363636" stop-color="#000000" style="paint-order:stroke fill markers"/>
 <path d="m8 11c-1.108 0-2 0.892-2 2v3h1v-3c0-0.554 0.446-1 1-1s1 0.446 1 1v3h1v-3c0-1.108-0.892-2-2-2z" fill="#363636" stop-color="#000000" style="paint-order:stroke fill markers"/>
</svg>
