<svg width="16px" height="16px" version="1.1" viewBox="0 0 16 16" xmlns="http://www.w3.org/2000/svg">
 <path d="m8 0.3418c-0.51124-1e-8 -1.0223 0.19615-1.4141 0.58789l-5.6562 5.6562c-0.78347 0.78347-0.78347 2.0447 0 2.8281l5.6562 5.6562c0.78347 0.78347 2.0447 0.78347 2.8281 0l5.6562-5.6562c0.78347-0.78347 0.78347-2.0447 0-2.8281l-5.6562-5.6562c-0.39174-0.39174-0.90282-0.58789-1.4141-0.58789zm0 1c0.25562 0 0.51116 0.099054 0.70703 0.29492l5.6562 5.6562c0.39174 0.39174 0.39174 1.0223 0 1.4141l-5.6562 5.6562c-0.39174 0.39174-1.0223 0.39174-1.4141 0l-5.6562-5.6562c-0.39174-0.39174-0.39174-1.0223 0-1.4141l3.4746-3.4746 1.0371 1.0371c-0.097657 0.19922-0.14844 0.42188-0.14844 0.64453 0 0.63672 0.40235 1.1992 1 1.4102v3.1758c-0.59765 0.21484-1 0.77734-1 1.4141 0 0.82812 0.67188 1.5 1.5 1.5s1.5-0.67188 1.5-1.5c0-0.63672-0.40235-1.1992-1-1.4141v-3.1758c0.050781-0.015625 0.097656-0.035156 0.14453-0.058594l1.5039 1.5039c-0.097657 0.19922-0.14844 0.42188-0.14844 0.64453 0 0.82812 0.67188 1.5 1.5 1.5s1.5-0.67188 1.5-1.5-0.67188-1.5-1.5-1.5c-0.22266 0-0.44531 0.050781-0.64453 0.14844l-1.5039-1.5039c0.097657-0.19922 0.14844-0.42188 0.14844-0.64453 0-0.82812-0.67188-1.5-1.5-1.5-0.22266 0-0.44531 0.050781-0.64453 0.14844l-1.0391-1.0352 1.4766-1.4766c0.19587-0.19587 0.45141-0.29492 0.70703-0.29492z" fill="#363636"/>
</svg>
