<svg width="16px" height="16px" version="1.1" viewBox="0 0 16 16" xmlns="http://www.w3.org/2000/svg">
 <path d="m8 0v1 3h1v-2.9258a7 7 0 0 1 6 6.9258 7 7 0 0 1-7 7 7 7 0 0 1-7-7 7 7 0 0 1 1.4902-4.2969l-0.66992-0.76562a8 8 0 0 0-1.8203 5.0625 8 8 0 0 0 8 8 8 8 0 0 0 8-8 8 8 0 0 0-8-8zm-3.1816 4.1113-0.70703 0.70703 2.1699 2.1699a2 2 0 0 0-0.28125 1.0117 2 2 0 0 0 2 2 2 2 0 0 0 2-2 2 2 0 0 0-2-2 2 2 0 0 0-1.0117 0.28125l-2.1699-2.1699zm3.1816 2.8887a1 1 0 0 1 1 1 1 1 0 0 1-1 1 1 1 0 0 1-1-1 1 1 0 0 1 0.29297-0.70703 1 1 0 0 1 0.70703-0.29297z" fill="#363636"/>
</svg>
