<svg width="16px" height="16px" version="1.1" viewBox="0 0 16 16" xmlns="http://www.w3.org/2000/svg">
 <path d="m8.2051 0.25391c-1.1347 0.0091198-2.4623 0.30795-3.8047 0.86133l-0.125 0.052734-0.082031 0.10742c-0.071487 0.09377-0.20558 0.32073-0.12109 0.59766l0.00586 0.019531 0.00781 0.019531c0.095617 0.23924 0.3794 0.43501 0.65234 0.42773h0.00782c0.95939-0.042734 2.2733 0.18932 2.9668 0.87695l0.00195 0.00195c0.16021 0.16021 0.33495 0.31704 0.4375 0.57812 0.068027 0.17319 0.042547 0.5695-0.22656 0.84375l-0.01172 0.01172c-0.16555 0.15565-0.4519 0.43712-0.71679 0.69727l-0.36133 0.35352 2.4453 2.4453 1.1699-1.1035 2e-3 -0.00195c0.13509-0.13111 0.31635-0.17972 0.50386-0.16797 0.19619 0.012294 0.3678 0.080837 0.50781 0.21484 0.25977 0.25587 0.25914 0.68614 0 0.94531-0.24775 0.24424-0.24539 0.70009 0 0.94531l2e-3 0.00195 0.47461 0.5293 0.01172 0.011719c0.18975 0.18632 0.45628 0.29439 0.71484 0.2832 0.25852-0.011183 0.49613-0.13094 0.67183-0.30664l2.3652-2.3613 2e-3 -0.00195c0.37951-0.38322 0.37724-1.0304 0.0039-1.4102l-2e-3 -0.00195-0.48828-0.48828-0.0059-0.00391c-0.07607-0.07159-0.17484-0.14702-0.33398-0.18359-0.15914-0.036577-0.38692 0.00217-0.53906 0.11719l-0.02344 0.015625-0.01953 0.019531c-0.26161 0.24758-0.67908 0.24673-0.94331-0.0019554-0.1851-0.18894-0.24361-0.47053-0.14844-0.71484 2.5e-4 -6.401e-4 -2.51e-4 -0.00131 0-0.00195l2e-3 -0.00195v-0.00195c3.12e-4 -7.354e-4 -3.1e-4 -0.00122 0-0.00195 0.20141-0.47741 0.07232-0.99212-0.17773-1.2422-0.95039-0.95427-1.6114-1.6452-2.168-2.1562l-0.0156-0.01562c-0.55812-0.55998-1.4826-0.81793-2.6426-0.80861zm0.00781 1c0.98684-0.00793 1.6917 0.27877 1.9277 0.51562l0.0078 0.00781 0.01563 0.015625 0.0078 0.00781c0.51641 0.47308 1.1886 1.1729 2.1523 2.1406 0.0137 0.0137 8e-3 0.02837-0.0293 0.11914l-0.0039 0.00781-0.01367 0.044922c-0.24494 0.61724-0.0955 1.3168 0.36328 1.7852l2e-3 0.00195 0.03516 0.035156 0.03516 0.027344-0.04102-0.037109c0.54806 0.51582 1.3339 0.50215 1.9648 0.14062l0.36133 0.36133c0.0086-2.839e-4 0.01598-0.012252-2e-3 0.00586l-2.3594 2.3555-0.33203-0.37109c0.40605-0.64446 0.42954-1.4794-0.13477-2.0371l-2e-3 -0.00195-0.0039-0.00391-0.0059-0.00586-2e-3 -0.00195c-0.32214-0.30844-0.73391-0.46305-1.1366-0.48828-0.41136-0.025777-0.89178 0.086413-1.2617 0.44531l-0.45703 0.42969-1.041-1.041c0.12411-0.12105 0.28021-0.27674 0.34961-0.3418l0.031252-0.031252c0.54821-0.55868 0.67554-1.3141 0.4414-1.9102-0.19961-0.50819-0.56279-0.8206-0.66016-0.91797l-0.0039-0.0039c-0.47678-0.47398-1.0767-0.73737-1.6856-0.91407 0.49373-0.098697 1.0655-0.33651 1.4805-0.33984zm4.9922 3.2344-0.0078 0.025391-0.0078 0.00977zm-7.3145 2.1406-0.35156 0.34961-4.9434 4.9258c-0.19102 0.18911-0.30619 0.31122-0.39258 0.48828-0.075286 0.15431-0.10641 0.35182-0.10742 0.59766v0.0156c0.03027 1.0842 0.90796 1.9619 1.9922 1.9922h0.01172c0.24528 8e-4 0.36866-0.08902 0.51562-0.18945 0.14697-0.10044 0.30484-0.23648 0.49805-0.42969l5.2891-5.2812zm0.0039062 1.4063 1.0859 1.0664-4.5742 4.5703c-0.16078 0.16078-0.27872 0.25485-0.34766 0.30273-0.53934-0.04623-0.9466-0.44387-0.96289-0.99414-1.96e-5 -6.63e-4 1.85e-5 -0.0013 0-2e-3 0.00182-0.13559 0.00851-0.15388 0.00586-0.14844-0.012907 0.02645 0.034224-0.0535 0.19922-0.2168z" fill="#363636"/>
</svg>
