<svg width="16px" height="16px" version="1.1" viewBox="0 0 16 16" xmlns="http://www.w3.org/2000/svg">
 <path d="m4.0176 0c-1.6714 0-3.0176 1.3194-3.0176 2.957v10.09c0 1.6377 1.3462 2.957 3.0176 2.957h3.9824v-1h-4c-1.108 0-2-0.892-2-2v-10.004c0-1.108 0.892-2 2-2h5.5859l4.4141 4.4141v2.5859h1v-1.5859-1.4141l-5-5h-5.9824zm7.9824 9v0.5625a3.063 3.063 0 0 0-1.25 0.5l-0.15625-0.1875a0.455 0.455 0 0 0-0.34375-0.125h-0.5v0.5c0 0.128 0.05825 0.277 0.15625 0.375l0.15625 0.125c-0.26 0.362-0.424 0.79-0.5 1.25h-0.5625v1h0.5625c0.076 0.46 0.24 0.888 0.5 1.25l-0.15625 0.125a0.559 0.559 0 0 0-0.15625 0.375v0.5h0.5c0.128 0 0.277-0.027 0.375-0.125l0.15625-0.1875c0.359 0.253 0.76575 0.425 1.2188 0.5v0.5625h1v-0.5625c0.453-0.075 0.85975-0.247 1.2188-0.5l0.15625 0.1875c0.098 0.098 0.25 0.098 0.375 0.125h0.5v-0.5a0.559 0.559 0 0 0-0.15625-0.375l-0.15625-0.125c0.258-0.362 0.423-0.79 0.5-1.25h0.5625v-1h-0.5625a2.982 2.982 0 0 0-0.5-1.25l0.15625-0.125c0.098-0.098 0.14025-0.248 0.15625-0.375v-0.5h-0.5c-0.128 0-0.277 0.027-0.375 0.125l-0.15625 0.1875a2.932 2.932 0 0 0-1.2188-0.5v-0.5625h-1zm0.5 1.5a2 2 0 0 1 0 4 2 2 0 0 1 0-4z" fill="#363636"/>
</svg>
