<svg width="16px" height="16px" version="1.1" viewBox="0 0 16 16" xmlns="http://www.w3.org/2000/svg">
 <path d="m9.9922-0.046875 0.0078125 5.0469v0.82031c0 1.1292 0.86274 2.058 1.9668 2.168-0.021092 1.1186-0.93703 2.0234-2.0645 2.0234h-2.3477c-1.957 0-3.543 1.5859-3.543 3.543v0.44141c-1e-7 0.55469 0.44922 1.0039 1.0039 1.0039h8.5977c1.3164 0 2.3867-1.0664 2.3867-2.3867v-6.793-1.6406c0-0.037598-6.3e-5 -0.074196-0.001953-0.11133l-0.005859-4.1152-2.1797 2.0469h-1.625l-2.1953-2.0469zm1.0039 2.3008 0.50976 0.47656a1.0001 1.0001 0 0 0 0.68164 0.26953h1.625a1.0001 1.0001 0 0 0 0.68359-0.27148l0.5-0.46875 0.001953 1.8105a1.0001 1.0001 0 0 0 0.001953 0.048828c2.52e-4 0.00494 0 0.024066 0 0.060547v1.6406 6.793c0 0.77988-0.61038 1.3867-1.3867 1.3867h-8.5977c-0.014779 0-0.0039063 0.010864-0.0039062-0.003906v-0.44141c0-1.4168 1.1262-2.543 2.543-2.543h2.3477c1.6624 0 3.0333-1.3499 3.0645-3.0039a1.0001 1.0001 0 0 0-0.90039-1.0137c-0.60256-0.059992-1.0664-0.55393-1.0664-1.1738v-0.82031a1.0001 1.0001 0 0 0 0-0.0019531l-0.003906-2.7441z" fill="#363636" stroke-width="1.0016"/>
 <path d="m0.47931 3a0.5 0.5 0 0 0-0.5 0.5 0.5 0.5 0 0 0 0.5 0.5h2.1348c1.3437 0 1.9636 0.57393 2.1016 1.3242 0.13794 0.75029-0.26777 1.8322-1.5352 2.7734-1.5678 1.1643-2.3328 2.8155-2.1465 4.2715 0.093135 0.728 0.44175 1.4072 1.0352 1.8848s1.4133 0.74609 2.4102 0.74609h2a0.5 0.5 0 0 0 0.5-0.5 0.5 0.5 0 0 0-0.5-0.5h-2c-0.82033 0-1.3961-0.21385-1.7832-0.52539-0.3871-0.31154-0.60553-0.72913-0.66992-1.2324-0.12877-1.0066 0.42511-2.3545 1.752-3.3398 1.481-1.0998 2.1497-2.5184 1.9219-3.7578-0.22786-1.2394-1.4151-2.1445-3.0859-2.1445z" fill="#363636"/>
</svg>
