<svg width="16px" height="16px" version="1.1" viewBox="0 0 16 16" xmlns="http://www.w3.org/2000/svg">
 <path d="m15 3.293-7.5 7.5-3.1816-3.1816c-0.19587-0.19587-0.51116-0.19587-0.70703 0s-0.19587 0.51116 0 0.70703l3.5352 3.5352c0.024484 0.024483 0.050374 0.04609 0.078125 0.064453 0.027751 0.018362 0.057805 0.03268 0.087891 0.044922 0.021237 0.008641 0.04245 0.013939 0.064453 0.019531 0.017015 0.004349 0.03348 0.009195 0.050781 0.011719 0.023767 0.003443 0.048301 0.005859 0.072266 0.005859 0.023653 0 0.046849-0.002505 0.070312-0.005859 0.017951-0.002548 0.035088-0.007209 0.052734-0.011719 0.021775-0.005566 0.043431-0.010976 0.064453-0.019531 0.030085-0.012242 0.060139-0.02656 0.087891-0.044922 0.013704-0.009069 0.026097-0.020689 0.039062-0.03125 0.013117-0.010712 0.026821-0.020962 0.039062-0.033203l7.1465-7.1465v-1.4141z" fill="#363636"/>
 <path d="m3 0c-1.662 0-3 1.338-3 3v10c0 1.662 1.338 3 3 3h10c1.662 0 3-1.338 3-3v-10c0-1.662-1.338-3-3-3h-10zm0 1h10c1.108 0 2 0.892 2 2v10c0 1.108-0.892 2-2 2h-10c-1.108 0-2-0.892-2-2v-10c0-1.108 0.892-2 2-2z" fill="#363636"/>
</svg>
