<svg width="16px" height="16px" version="1.1" viewBox="0 0 16 16" xmlns="http://www.w3.org/2000/svg">
 <path d="m11.164 5.8633c0.64063 0.042969 0.93359 0.82422 0.47656 1.2773l-3.6406 3.6406c-0.29297 0.29297-0.76953 0.29297-1.0625 0l-2.1758-2.1094c-0.70703-0.70703 0.35547-1.7695 1.0625-1.0625l1.6445 1.5781 3.1094-3.1094c0.15625-0.15234 0.36719-0.23047 0.58594-0.21484z" fill="#363636"/>
 <path d="m7.9961 0c-4.4023 0-7.9961 3.5938-7.9961 8s3.5937 8 7.9961 8c4.4063 0 7.9961-3.5938 7.9961-8s-3.5898-8-7.9961-8zm0.0039062 1a7 7 0 0 1 7 7 7 7 0 0 1-7 7 7 7 0 0 1-7-7 7 7 0 0 1 7-7z" fill="#363636"/>
</svg>
