<svg width="16px" height="16px" version="1.1" viewBox="0 0 16 16" xmlns="http://www.w3.org/2000/svg">
 <path d="m6 0v4h-1v2h-1v9h-1v-9h-3v10h16v-1h-1v-4h-1v-8l-3 3v5h-1v4h-1v-9h-1v-2h-1v-4h-1zm0 5h1v1h-1v-1zm6.5 1c0.27734 0 0.5 0.22266 0.5 0.5s-0.22266 0.5-0.5 0.5-0.5-0.22266-0.5-0.5 0.22266-0.5 0.5-0.5zm-11.5 1h1v1h-1v-1zm4 0h3v1h-3v-1zm7.5 1c0.27734 0 0.5 0.22266 0.5 0.5s-0.22266 0.5-0.5 0.5-0.5-0.22266-0.5-0.5 0.22266-0.5 0.5-0.5zm-11.5 1h1v1h-1v-1zm4 0h3v1h-3v-1zm7.5 1.0078c0.27734 0 0.5 0.22266 0.5 0.5 0 0.27734-0.22266 0.5-0.5 0.5s-0.5-0.22266-0.5-0.5c0-0.27734 0.22266-0.5 0.5-0.5zm-11.5 0.99219h1v1h-1v-1zm4 0h3v1h-3v-1zm6 1h3v1h-3v-1zm-10 1h1v1h-1v-1zm4 0h3v1h-3v-1zm6 1h3v1h-3v-1z" fill="#363636"/>
</svg>
