<svg width="16px" height="16px" version="1.1" viewBox="0 0 16 16" xmlns="http://www.w3.org/2000/svg">
 <path d="m6.3667 11.627h1.1533v-3.6133h0.48c0.46667 0 0.78 0.25333 0.78 0.64 0 0.37333-0.26 0.6-0.67333 0.6h-1.0133v1.0133h0.80667c1.2533 0 2.08-0.68667 2.08-1.7267 0-0.96667-0.70667-1.54-1.8867-1.54h-1.7267z" fill="#363636"/>
 <path d="m8 0c-1.1046 0-2 0.89543-2 2h-1v1h1v1s-1 2e-6 -1 1h6c0-0.75-0.56275-0.953-0.84375-1h-0.15625v-1h1v-1h-1c0-0.138-0.00525-0.27625-0.03125-0.40625-0.19615-0.93036-1.0179-1.5956-1.9688-1.5938zm0 1c0.414 0 0.75425 0.266 0.90625 0.625 0.056891 0.11716 0.088816 0.24486 0.09375 0.375 0 0.89097-1.0771 1.337-1.7071 0.70707s-0.1839-1.7071 0.70707-1.7071z" fill="#363636"/>
 <path d="m4 2c-1.108 0-2 0.892-2 2v9c0 1.108 0.892 2 2 2h8c1.108 0 2-0.892 2-2v-9c0-1.108-0.892-2-2-2h-3v1h3c0.554 0 1 0.446 1 1v9c0 0.554-0.446 1-1 1h-8c-0.554 0-1-0.446-1-1v-9c0-0.554 0.446-1 1-1h3v-1z" fill="#363636"/>
</svg>
