<svg width="16px" height="16px" version="1.1" viewBox="0 0 16 16" xmlns="http://www.w3.org/2000/svg">
 <path d="m7.998 0c-0.78823 0-1.4375 0.64927-1.4375 1.4375v0.22266c0 0.16408-0.21317 0.43884-0.42383 0.50781h-0.0039c0.00955-0.00318-0.014334 6.551e-4 -0.085938 0.029297l0.027344-0.011719c-0.21277 0.070922-0.54154-0.023042-0.63867-0.15625l-0.13086-0.18164v-0.00195c-0.22309-0.30675-0.56218-0.51294-0.94141-0.57031-0.37195-0.05939-0.75489 0.026288-1.0625 0.25195-0.6394 0.46148-0.78721 1.3706-0.32031 2.0098l0.13086 0.18555 0.00195 0.00391c0.096571 0.13057 0.084397 0.4729-0.046875 0.65039-0.031176 0.04188-0.043663 0.061471-0.03125 0.044922l-0.00195 0.00391-0.00391 0.00391c-0.1309 0.18139-0.44833 0.299-0.61133 0.24609l-0.21484-0.070312h-0.00195c-0.74912-0.24476-1.5672 0.17238-1.8086 0.92188-0.24409 0.7489 0.17239 1.5682 0.92187 1.8125l0.20703 0.070312h0.00195c0.1617 0.052481 0.3515 0.33552 0.35742 0.57031v0.068357c0.00654 0.19455-0.19523 0.49245-0.35547 0.54492l-0.20898 0.064453-0.00195 0.00195c-0.75028 0.24454-1.1647 1.0636-0.92187 1.8105 0.24103 0.75111 1.0604 1.1702 1.8105 0.92383l0.21484-0.07031c0.163-0.0529 0.48042 0.0647 0.61133 0.24609l0.00391 0.0039 0.00195 0.0039c0.01812 0.02416 0.031304 0.03989 0.035156 0.04492 0.12994 0.17569 0.14111 0.52043 0.044922 0.65234l-0.00195 2e-3 -0.13281 0.18945c-0.4631 0.63607-0.3202 1.5436 0.32031 2.0059 0.63599 0.46166 1.5409 0.32154 2.0039-0.31445v-2e-3l0.13672-0.1875c0.097424-0.135 0.42353-0.22663 0.63281-0.15625 0.015286 0.0047 0.062117 0.02207 0.03125 0.0098l0.035156 0.01172c0.21038 0.06644 0.41992 0.33307 0.41992 0.50586v0.22266c0 0.78822 0.64927 1.4375 1.4375 1.4375s1.4375-0.64928 1.4375-1.4375v-0.22266c0-0.17001 0.21499-0.43995 0.42188-0.50586h0.00195l0.00391-2e-3c0.037314-0.0124 0.054252-0.01932 0.060547-0.02148 0.21095-0.06792 0.53762 0.02359 0.63477 0.1582l0.13672 0.1875v2e-3c0.46345 0.63654 1.3698 0.77756 2.0059 0.31445 0.63542-0.46263 0.78259-1.3682 0.31836-2.0059l-0.13867-0.19141c-0.09618-0.13191-0.08502-0.47665 0.04492-0.65234 0.0092-0.01338 0.04087-0.05254 0.03516-0.04492l0.0039-0.0039 2e-3 -0.0039c0.13055-0.1809 0.44597-0.29792 0.60938-0.24609l0.2207 0.07422h0.0039c0.74887 0.24031 1.5617-0.17774 1.8066-0.92383 0.24616-0.74966-0.17172-1.5709-0.92188-1.8125h-2e-3l-0.21484-0.068359c-0.15837-0.051399-0.34752-0.33656-0.35352-0.57422v-0.068357c-0.0066-0.19744 0.18692-0.48694 0.35352-0.54102l0.2168-0.070312h2e-3c0.74609-0.24498 1.1647-1.0615 0.91992-1.8125v-0.00195c-0.24482-0.74544-1.0597-1.1646-1.8086-0.91992h-2e-3l-0.21484 0.070312c-0.16218 0.052639-0.48565-0.066528-0.61523-0.24609l-2e-3 -0.00391-0.0039-0.00391c0.01239 0.016515-1e-4 -0.00307-0.03125-0.044922-0.12985-0.17568-0.14111-0.52043-0.04492-0.65234l0.13672-0.1875h-2e-3c0.46397-0.63719 0.32175-1.5464-0.32031-2.0098-0.30839-0.22363-0.68996-0.31312-1.0605-0.25781h-0.0078c-0.37773 0.061104-0.71787 0.26954-0.93945 0.58203l-0.13086 0.17773-2e-3 0.00195c-0.09714 0.13461-0.42181 0.22745-0.63867 0.1582-0.017044-0.00667-0.031575-0.013128-0.056641-0.021484l-0.00391-0.00195h-0.00195c-0.20685-0.065911-0.42188-0.33585-0.42188-0.50586v-0.22266c0-0.78823-0.64927-1.4375-1.4375-1.4375zm0 1c0.24449 0 0.4375 0.19301 0.4375 0.4375v0.22266c0 0.7089 0.49643 1.2612 1.1172 1.459 0.00543 0.00192 0.01036 0.00376 0.025391 0.00977l0.03125 0.011719c0.61811 0.20061 1.3445 0.052011 1.7598-0.52344l0.13672-0.18359 2e-3 -0.00391c0.06354-0.089613 0.16225-0.14992 0.28125-0.16992 0.11786-0.016478 0.23124 0.00855 0.32422 0.076172l2e-3 0.00195c0.20022 0.14451 0.23969 0.41356 0.0957 0.61133l-0.13477 0.1875c-0.41517 0.57099-0.33892 1.309 0.05078 1.8359l2e-3 0.00195c-0.01203-0.016035 0.0022 0.00381 0.03125 0.042969 0.0024 0.00318-7.22e-4 3.983e-4 2e-3 0.00391 0.384 0.52662 1.0586 0.82289 1.7285 0.60547l0.2168-0.070312h2e-3c0.23198-0.076172 0.4696 0.045897 0.54688 0.28125 0.07615 0.23708-0.04656 0.47567-0.28125 0.55273l-0.21289 0.068359h-2e-3c-0.66854 0.21692-1.0676 0.85125-1.0449 1.5254v0.060548c0.01598 0.63392 0.36832 1.2804 1.0449 1.5h2e-3l0.2168 0.070312c0.23033 0.073913 0.35328 0.3156 0.27734 0.54687-0.07728 0.23535-0.3182 0.35784-0.55078 0.2832l-0.2168-0.07031-2e-3 -2e-3c-0.66468-0.21573-1.3309 0.07927-1.7148 0.59766l-0.0098 0.0078c-0.0017 0.0023-0.0042 0.0036-0.0059 0.0059l-0.01172 0.01367-0.02148 0.0293c-0.39009 0.52744-0.4673 1.2667-0.05078 1.8379l0.13867 0.18945c0.14368 0.19734 0.10189 0.4641-0.09766 0.60937-0.19889 0.14481-0.46491 0.10271-0.60938-0.0957l-0.13476-0.18555c-0.41527-0.57545-1.1411-0.72343-1.7578-0.52148h-0.00195c-0.034629 0.01153-0.049408 0.01694-0.056641 0.01953-0.62075 0.19776-1.1172 0.75009-1.1172 1.459v0.22266c0 0.24449-0.19301 0.4375-0.4375 0.4375s-0.4375-0.19301-0.4375-0.4375v-0.22266c0-0.70453-0.49265-1.2586-1.1152-1.457l-0.00391-2e-3c-0.0018 2.46e-4 -0.045398-0.01457-0.023437-0.0059l-0.011719-0.0059-0.013672-0.0039c-0.61835-0.20794-1.3464-0.05787-1.7617 0.51758l-0.13477 0.18555c-0.14446 0.19842-0.41048 0.24051-0.60938 0.0957l-0.00195-2e-3c-0.20177-0.14545-0.24051-0.40853-0.095703-0.60742v-2e-3l0.13477-0.1875c0.41651-0.57121 0.3393-1.3105-0.050781-1.8379l-0.00195-2e-3c-0.016713-0.02229-0.026254-0.03458-0.03125-0.04102-0.38179-0.52896-1.0585-0.82942-1.7305-0.61133l-0.2168 0.07031h-0.00195c-0.23128 0.07594-0.47296-0.04701-0.54688-0.27734v-4e-3c-0.076642-0.23332 0.042135-0.47348 0.2793-0.55078l0.20898-0.066406h0.00391c0.66739-0.21853 1.0677-0.85226 1.0449-1.5293v-0.060548c-0.016017-0.63538-0.37453-1.2742-1.0449-1.4941l-0.21094-0.070312-0.00195-0.00195c-0.23928-0.077989-0.35748-0.31287-0.2793-0.55273v-0.00195c0.073914-0.23034 0.3156-0.35329 0.54688-0.27734h0.00195l0.2168 0.070312c0.67196 0.21809 1.3487-0.082276 1.7305-0.61133 0.025375-0.034531 0.038745-0.056216 0.027344-0.041016l0.00195-0.00195h0.00195c0.38875-0.52563 0.47032-1.2673 0.046875-1.8398l-0.12695-0.18164-0.00391-0.00391c-0.14834-0.20308-0.10523-0.46295 0.097656-0.60938l0.00391-0.00195 0.00195-0.00195c0.085187-0.062817 0.20158-0.092685 0.3163-0.073851l0.00391 0.00195h0.00391c0.11037 0.016474 0.21192 0.078494 0.28125 0.17383l0.13086 0.18164v0.00195c0.41556 0.56992 1.1415 0.72302 1.7637 0.51562l0.013672-0.00391 0.013672-0.00586c-0.032926 0.01317-0.016481 0.00745 0.029297-0.00781 0.61697-0.20202 1.1133-0.74953 1.1133-1.457v-0.22266c0-0.24449 0.19301-0.4375 0.4375-0.4375z" fill="#363636"/>
 <path d="m8 5a3 3 0 0 0-3 3 3 3 0 0 0 3 3 3 3 0 0 0 3-3 3 3 0 0 0-3-3zm0 1a2 2 0 0 1 2 2 2 2 0 0 1-2 2 2 2 0 0 1-2-2 2 2 0 0 1 2-2z" fill="#363636"/>
</svg>
