<svg xmlns="http://www.w3.org/2000/svg" width="16" height="16"><path d="M4 8a4 4 0 0 0-4 4 4 4 0 0 0 4 4 4 4 0 0 0 4-4 4 4 0 0 0-4-4zm0 1a3 3 0 0 1 3 3 3 3 0 0 1-3 3 3 3 0 0 1-3-3 3 3 0 0 1 3-3z" style="opacity:1;fill:#363636;stroke-width:2;stroke-linecap:round;stroke-linejoin:round;paint-order:stroke fill markers;stop-color:#000"/><circle cx="4" cy="12" r="2" style="opacity:1;fill:#363636;stroke-width:2;stroke-linecap:round;stroke-linejoin:round;paint-order:stroke fill markers;stop-color:#000"/><path d="M12 8a4 4 0 0 0-4 4 4 4 0 0 0 4 4 4 4 0 0 0 4-4 4 4 0 0 0-4-4zm0 1a3 3 0 0 1 3 3 3 3 0 0 1-3 3 3 3 0 0 1-3-3 3 3 0 0 1 3-3z" style="opacity:1;fill:#363636;stroke-width:2;stroke-linecap:round;stroke-linejoin:round;paint-order:stroke fill markers;stop-color:#000"/><circle cx="12" cy="12" r="2" style="opacity:1;fill:#363636;stroke-width:2;stroke-linecap:round;stroke-linejoin:round;paint-order:stroke fill markers;stop-color:#000"/><path d="M8 1a4 4 0 0 0-4 4 4 4 0 0 0 4 4 4 4 0 0 0 4-4 4 4 0 0 0-4-4Zm0 1a3 3 0 0 1 3 3 3 3 0 0 1-3 3 3 3 0 0 1-3-3 3 3 0 0 1 3-3Z" style="opacity:1;fill:#363636;stroke-width:2;stroke-linecap:round;stroke-linejoin:round;paint-order:stroke fill markers;stop-color:#000"/></svg>