<svg width="16" height="16" version="1.1" viewBox="0 0 16 16" xmlns="http://www.w3.org/2000/svg">
 <g fill="#363636">
  <path d="m8 0c-4.4101 0-8 3.5899-8 8 0 4.4101 3.5899 8 8 8 0.71493 0 1.3065-0.19185 1.7168-0.56055 0.41027-0.36869 0.58924-0.88256 0.59375-1.3418 0.0076-0.76966-0.51698-1.2965-0.80078-1.5332-0.1419-0.11836-0.22311-0.19968-0.25781-0.24219-0.20617-0.25253 0.10601-0.46474 0.22461-0.52344 0.21944-0.10861 0.64108-0.14453 1.0098-0.14453 1.6386 0 3.0085-0.43918 3.9863-1.2422 0.9778-0.80301 1.5273-1.9776 1.5273-3.2656 0-4.2514-3.9212-7.1465-8-7.1465zm0 1c3.6057-1.1e-7 7 2.51 7 6.1465 0 1.0037-0.41231 1.8784-1.1621 2.4941-0.76152 0.62539-1.8914 1.0137-3.3516 1.0137-0.43223 0-0.85569-0.04764-1.4531 0.24805-0.17883 0.08851-0.37071 0.18152-0.59961 0.49609-0.11445 0.15728-0.23815 0.39596-0.25 0.70508-0.011847 0.30911 0.11943 0.639 0.29297 0.85156 0.12855 0.15746 0.22383 0.2362 0.39258 0.37695 0.18804 0.15685 0.44448 0.44435 0.44141 0.75586-0.00203 0.20678-0.087416 0.45078-0.26172 0.60742-0.18306 0.16451-0.51268 0.30469-1.0488 0.30469-3.8674 0-7-3.1326-7-7 0-3.8674 3.1326-7 7-7z"/>
  <circle cx="4.1161" cy="9.0632" r="1"/>
  <circle cx="4.762" cy="5.6706" r="1"/>
  <circle cx="8" cy="4" r="1"/>
  <circle cx="11.285" cy="5.8438" r="1"/>
 </g>
</svg>
