<svg width="16" height="16" version="1.1" xmlns="http://www.w3.org/2000/svg">
 <path d="m14.998 1.0024c-0.39174-0.39174-1.0225-0.39174-1.4142 0l-2.1213 2.1213-1.0607-1.0607c-0.19587-0.19587-0.51124-0.19587-0.70711 0-0.19587 0.19587-0.19587 0.51124 0 0.70711l0.35355 0.35355-7.0711 7.0711c-0.66099 0.661-0.76093 1.6605-0.3066 2.4279l-1.8147 1.8147c-0.19587 0.19587-0.19587 0.51124 0 0.70711 0.19587 0.19587 0.51124 0.19587 0.70711 0l1.8147-1.8147c0.76737 0.45433 1.7669 0.3544 2.4279-0.3066l7.0711-7.0711 0.35355 0.35355c0.19587 0.19587 0.51124 0.19587 0.70711 0 0.19587-0.19587 0.19587-0.51124 0-0.70711l-1.0607-1.0607 2.1213-2.1213c0.39174-0.39174 0.39174-1.0225 0-1.4142zm-4.2426 2.8284 1.4142 1.4142-4.2426 4.2426h-2.8284z" fill="#363636"/>
</svg>
