<svg width="16" height="16" version="1.1" xmlns="http://www.w3.org/2000/svg">
 <path d="m9.0586 0.0019531a1.0001 1.0001 0 0 0-0.95312 0.55078l-2.7227 5.4473h-1.3828-1-2v1h2v8h-2v1h2 1 8c0.69092 0 1.3851-0.33502 1.6992-0.76562 0.31407-0.43061 0.36105-0.70184 0.43945-0.82617 0.21456-0.34024 0.2947-0.61765 0.43359-1.0215 0.13889-0.40384 0.28968-0.88219 0.44141-1.3809 0.30345-0.99733 0.62056-2.0862 0.82617-2.6777 0.31182-0.89708 0.15401-1.8615-0.37891-2.4707-0.53292-0.60919-1.2893-0.85742-2.0254-0.85742h-2.1641l0.42578-1.7656c0.32884-1.3598-0.30962-2.5119-0.93945-3.1621-0.62983-0.65023-1.3262-0.97461-1.3262-0.97461a1.0001 1.0001 0 0 0-0.37305-0.095703zm-0.058594 0.99805s2.1963 1.0496 1.7246 3l-0.72461 3h3.4355c1 0 1.9079 0.70841 1.459 2-0.44895 1.2916-1.2531 4.3225-1.6016 4.875-0.34843 0.55254-0.29297 1.125-1.293 1.125h-8v-8h2l3-6z" fill="#363636"/>
</svg>
