<svg width="16" height="16" version="1.1" xmlns="http://www.w3.org/2000/svg">
 <path d="m5 2a2 2 0 0 0-2 2 2 2 0 0 0 2 2 2 2 0 0 0 2-2 2 2 0 0 0-2-2zm0 1a1 1 0 0 1 1 1 1 1 0 0 1-1 1 1 1 0 0 1-1-1 1 1 0 0 1 1-1zm6 1a2 2 0 0 0-2 2 2 2 0 0 0 2 2 2 2 0 0 0 2-2 2 2 0 0 0-2-2zm0 1a1 1 0 0 1 1 1 1 1 0 0 1-1 1 1 1 0 0 1-1-1 1 1 0 0 1 1-1zm-7 2c-1.662 0-3 1.338-3 3v1c0 0.554 0.446 1 1 1h4c0-0.34804 0.048446-0.68199 0.13477-1h-4.1348v-1c0-1.108 0.89201-2 2-2h2c0.68256 0 1.2804 0.34035 1.6406 0.85938 0.26995-0.19355 0.56312-0.35837 0.87695-0.48438a2.986 2.986 0 0 0-2.5176-1.375h-2zm6 2c-1.662 0-3 1.338-3 3v1c0 0.554 0.446 1 1 1h6c0.554 0 1-0.446 1-1v-1c0-1.662-1.338-3-3-3h-2zm0 1h2c1.108 0 2 0.892 2 2v1h-6v-1c0-1.108 0.892-2 2-2z" fill="#363636" opacity=".35"/>
 <rect transform="rotate(45)" x=".31371" y="-.5" width="22" height="1" rx=".5" ry=".5" fill="#363636"/>
</svg>
