<svg width="16" height="16" version="1.1" xmlns="http://www.w3.org/2000/svg">
 <path d="m5 1c-1.1074 0-2.242 0.29166-3.125 0.98633-1.8246 1.3217-2.4183 4.0089-1.332 5.9805 0.58951 1.1383 1.6872 1.8506 2.5918 2.7148 1.4214 1.2624 2.8357 2.534 4.2617 3.791 0.4679 0.36986 1.1184 0.16383 1.4746-0.25586 1.9253-1.7239 3.8671-3.4301 5.7813-5.166 1.5904-1.55 1.7957-4.2437 0.49219-6.0332-0.84329-1.2273-2.2911-1.9997-3.7715-2.0176-1.2393-0.021172-2.4909 0.45036-3.3887 1.3145-0.80306-0.78655-1.8782-1.3145-2.9844-1.3145zm0 1c0.78777 0 1.6411 0.39852 2.2852 1.0293a1.0001 1.0001 0 0 0 1.3926 0.0058593c0.69471-0.66862 1.7036-1.0518 2.6777-1.0352a1.0001 1.0001 0 0 0 0.003906 0c1.1409 0.013762 2.3097 0.63419 2.9609 1.582a1.0001 1.0001 0 0 0 0.015626 0.023438c0.99242 1.3625 0.82411 3.5527-0.38086 4.7285v0.0019531c-1.8972 1.72-3.831 3.4148-5.752 5.1348a1.0001 1.0001 0 0 0-0.09375 0.09961c-0.031861 0.03754-0.096858 0.069591-0.13086 0.082031-1.3933-1.229-2.779-2.4743-4.1758-3.7148-0.00138-0.00122-0.0025263-0.0026764-0.0039063-0.0039063-0.98675-0.93737-1.9368-1.5968-2.3672-2.4277a1.0001 1.0001 0 0 0-0.013672-0.023438c-0.82662-1.5003-0.34182-3.681 1.0449-4.6855a1.0001 1.0001 0 0 0 0.03125-0.025391c0.66281-0.52143 1.5739-0.77148 2.5059-0.77148z" fill="#363636"/>
</svg>
