<svg width="16.018" height="16" version="1.1" xmlns="http://www.w3.org/2000/svg">
 <g fill="#2e3436" font-family="sans-serif" font-weight="400">
  <path d="m6.371 5.654-.707.707 1.647 1.647-1.647 1.646.707.707 2.354-2.353z" fill="#363636" overflow="visible" style="font-feature-settings:normal;font-variant-alternates:normal;font-variant-caps:normal;font-variant-ligatures:normal;font-variant-numeric:normal;font-variant-position:normal;isolation:auto;mix-blend-mode:normal;shape-padding:0;text-decoration-color:#000;text-decoration-line:none;text-decoration-style:solid;text-indent:0;text-orientation:mixed;text-transform:none;white-space:normal"/>
 </g>
 <path d="m4 3c-1.108 0-2 0.892-2 2v6c0 1.108 0.892 2 2 2h8c1.108 0 2-0.892 2-2v-6c0-1.108-0.892-2-2-2h-8zm0 1h8c0.554 0 1 0.446 1 1v6c0 0.554-0.446 1-1 1h-8c-0.554 0-1-0.446-1-1v-6c0-0.554 0.446-1 1-1z" fill="#363636" fill-rule="evenodd" stop-color="#000000" stroke-linecap="round" stroke-linejoin="round" stroke-width="2"/>
 <path d="m4 1v1h2v-1h-2zm3 0v1h2v-1h-2zm3 0v1h2v-1h-2zm-7.002 0.125c-1.728 0.44254-2.998 2.0053-2.998 3.875h1c0-1.3105 0.83335-2.4157 2-2.8262v-1.0488c-6.135e-4 1.568e-4 -0.0013398-1.571e-4 -0.0019531 0zm10.002 0.0039062v1.0449c1.1666 0.41051 2 1.5157 2 2.8262h1c0-1.8698-1.2719-3.4286-3-3.8711zm-13 4.8711v2h1v-2h-1zm15 0v2h1v-2h-1zm-15 3v2h1v-2h-1zm15 0v2h1v-2h-1zm-14.871 3c0.36066 1.4086 1.4631 2.5144 2.8711 2.875v-1.0469c-0.85291-0.30071-1.5257-0.9742-1.8262-1.8281h-1.0449zm14.697 0c-0.30047 0.85392-0.97327 1.5274-1.8262 1.8281v1.0469c1.408-0.36059 2.5104-1.4663 2.8711-2.875h-1.0449zm-10.826 2v1h2v-1h-2zm3 0v1h2v-1h-2zm3 0v1h2v-1h-2z" fill="#363636" fill-rule="evenodd" stop-color="#000000" stroke-linecap="round" stroke-linejoin="round" stroke-width="2"/>
</svg>
