<svg xmlns="http://www.w3.org/2000/svg" width="16" height="16"><path d="m9.718 1-3.78.024.6 3.684h.239l2.392-.018Zm-.648.561-.382 2.576-1.678.012-.418-2.572Zm3.938 1.165L10.117 5.09l.12.205 1.212 2.064 3.473-1.37ZM2.797 3.01.93 6.298 4.419 7.62l.118-.208 1.183-2.08Zm10.06.56 1.254 2.138-2.423.956-.849-1.447zm-9.897.28L5 5.471 4.171 6.93l-2.435-.924Zm5.04 3L6.85 8l.162.163.988.988L9.15 8Zm0 .658L8.493 8 8 8.493 7.507 8Zm3.58.87-.12.209-1.18 2.08 2.921 2.322 1.87-3.288zm-7.03.263-3.472 1.37 1.914 3.262 2.89-2.363-.121-.205Zm7.277.428 2.437.924-1.226 2.153L11 10.527zm-7.517.266.849 1.447-2.016 1.648-1.254-2.14Zm5.15 1.954-.237.004-2.394.018-.55 3.69 3.783-.026zm-.472.561.418 2.57-2.478.018.382-2.576z" style="opacity:1;stroke-width:1.03018;fill:#363636;fill-opacity:1"/></svg>