<svg width="16px" height="16px" version="1.1" viewBox="0 0 16 16" xmlns="http://www.w3.org/2000/svg">
 <path d="m4 3.25a0.75 0.75 0 0 0-0.53125 0.21875 0.75 0.75 0 0 0 0 1.0625l3.4688 3.4688-3.4688 3.4688a0.75 0.75 0 0 0 0 1.0625 0.75 0.75 0 0 0 1.0625 0l3.4688-3.4688 3.4688 3.4688a0.75 0.75 0 0 0 1.0625 0 0.75 0.75 0 0 0 0-1.0625l-3.4688-3.4688 3.4688-3.4688a0.75 0.75 0 0 0 0-1.0625 0.75 0.75 0 0 0-0.53125-0.21875 0.75 0.75 0 0 0-0.53125 0.21875l-3.4688 3.4688-3.4688-3.4688a0.75 0.75 0 0 0-0.53125-0.21875z" fill="#363636"/>
</svg>
