<svg width="16px" height="16px" version="1.1" viewBox="0 0 16 16" xmlns="http://www.w3.org/2000/svg">
 <path d="m3 2c-1.6569 0-3 1.3431-3 3s1.3431 3 3 3h12.5c0.277 0 0.5-0.223 0.5-0.5s-0.223-0.5-0.5-0.5h-10.264c0.49186-0.55006 0.76374-1.2621 0.76367-2 0-1.6569-1.3431-3-3-3zm0 1c1.1046 0 2 0.89543 2 2s-0.89543 2-2 2-2-0.89543-2-2 0.89543-2 2-2z" fill="#363636" stroke-linecap="round" stroke-linejoin="round"/>
 <path d="m10.598 14.5c-0.82843 1.4349-2.6632 1.9265-4.0981 1.0981-1.4349-0.82843-1.9265-2.6632-1.0981-4.0981l6.25-10.825c0.1385-0.23989 0.44312-0.32151 0.68301-0.18301 0.23989 0.1385 0.32151 0.44312 0.18301 0.68301l-5.1318 8.8886c0.7223-0.15093 1.4749-0.03037 2.1139 0.33864 1.4349 0.82843 1.9265 2.6632 1.0981 4.0981zm-0.86603-0.5c0.55228-0.95658 0.22453-2.1798-0.73205-2.732-0.95659-0.55228-2.1798-0.22453-2.7321 0.73205-0.55228 0.95658-0.22453 2.1798 0.73205 2.732 0.95659 0.55228 2.1798 0.22453 2.7321-0.73205z" fill="#363636" stroke-linecap="round" stroke-linejoin="round"/>
</svg>
