<svg width="16px" height="16px" version="1.1" viewBox="0 0 16 16" xmlns="http://www.w3.org/2000/svg">
 <filter id="a" x="0" y="0" width="1" height="1">
  <feColorMatrix color-interpolation-filters="sRGB" values="0 0 0 0 1 0 0 0 0 1 0 0 0 0 1 0 0 0 1 0"/>
 </filter>
 <mask id="b">
  <g filter="url(#a)">
   <path d="m-1.6-1.6h19.2v19.2h-19.2z" fill-opacity=".5"/>
  </g>
 </mask>
 <clipPath id="c">
  <path d="m0 0h1600v1200h-1600z"/>
 </clipPath>
 <mask id="d">
  <g filter="url(#a)">
   <path d="m-1.6-1.6h19.2v19.2h-19.2z" fill-opacity=".7"/>
  </g>
 </mask>
 <clipPath id="e">
  <path d="m0 0h1600v1200h-1600z"/>
 </clipPath>
 <mask id="f">
  <g filter="url(#a)">
   <path d="m-1.6-1.6h19.2v19.2h-19.2z" fill-opacity=".35"/>
  </g>
 </mask>
 <clipPath id="g">
  <path d="m0 0h1600v1200h-1600z"/>
 </clipPath>
 <g mask="url(#b)">
  <g transform="translate(-340 -40)" clip-path="url(#c)">
   <path d="m550 182c-0.35156 0.003906-0.69531 0.10156-1 0.28125v3.4375c0.30469 0.17969 0.64844 0.27734 1 0.28125 1.1055 0 2-0.89453 2-2s-0.89453-2-2-2zm0 5c-0.33984 0-0.67969 0.058594-1 0.17578v6.8242h4v-4c0-1.6562-1.3438-3-3-3z"/>
  </g>
 </g>
 <g mask="url(#d)">
  <g transform="translate(-340 -40)" clip-path="url(#e)">
   <path d="m569 182v4c1.1055 0 2-0.89453 2-2s-0.89453-2-2-2zm0 5v7h3v-4c0-1.6562-1.3438-3-3-3z"/>
  </g>
 </g>
 <g mask="url(#f)">
  <g transform="translate(-340 -40)" clip-path="url(#g)">
   <path d="m573 182.27v3.4492c0.61328-0.35547 0.99609-1.0078 1-1.7188 0-0.71484-0.38281-1.375-1-1.7305zm0 4.9062v6.8242h2v-4c0-1.2695-0.80078-2.4023-2-2.8242z"/>
  </g>
 </g>
 <path d="m7.998 1c-2.6843 0.00516-4.9018 2.1569-4.9883 4.8398a1 1 0 0 0 0.96875 1.0312 1 1 0 0 0 0.029297-0.0039063l0.0019531-0.99609c0.069476-2.1549 1.8343-3.8669 3.9902-3.8711 2.2091 0 4 1.7909 4 4-0.00397 1.4492-0.7915 2.7829-2.0586 3.4863-0.0025599 0.005045-0.0050925 0.010745-0.0078124 0.015625l-1.5273 2.7363c-0.54006 0.96746-1.2983 1.7617-2.4062 1.7617s-2-0.892-2-2v-2l0.0019531-1a1 1 0 0 0-0.0019531 0 1 1 0 0 0-1 1v2c0 1.6447 1.3553 3 3 3 1.5859 0 2.6586-1.1616 3.2793-2.2734l1.5273-2.7363c1.3097-0.9275 2.1889-2.3619 2.1934-3.9883a1.0001 1.0001 0 0 0 0-0.0019531c0-2.7496-2.2504-5-5-5a1.0001 1.0001 0 0 0-0.0019531 0z" fill="#363636" opacity=".35"/>
 <rect transform="rotate(45)" x="2.3137" y="-.5" width="18" height="1" rx=".5" ry=".5" fill="#363636" stroke-width=".90453"/>
</svg>
