<svg width="16px" height="16px" version="1.1" viewBox="0 0 16 16" xmlns="http://www.w3.org/2000/svg">
 <path d="m2 3c-0.43647 0-0.81282 0.16523-1.1094 0.36328-0.29656 0.19805-0.51635 0.40932-0.65625 0.68555l0.34375-0.21094a0.50005 0.50005 0 0 0-0.34961 0.21875c-0.23508 0.48293-0.22852 0.93555-0.22852 0.93555v6.0078c0 0.43628 0.165 0.81402 0.36328 1.1113s0.41182 0.51841 0.69141 0.6582c0.48258 0.23934 0.93767 0.23051 0.93945 0.23047h0.00195 9.7422c0.30188 0 0.59183-0.13929 0.77734-0.37109l3.2383-4c0.29136-0.36036 0.29136-0.89745 0-1.2578l-3.2383-4c-0.18554-0.23193-0.47556-0.37109-0.77734-0.37109zm0 1h9.7383a0.50005 0.50005 0 0 0 0.0332 0.037109l-0.017575-0.015625 3.2227 3.9785-3.2227 3.9785 0.01758-0.01563a0.50005 0.50005 0 0 0-0.033205 0.037114h-9.752a0.50005 0.50005 0 0 0-0.00977 0s-0.21756 0.0035-0.47656-0.125c-0.013841-0.006921-0.18766-0.14288-0.30469-0.31836-0.11703-0.17548-0.19531-0.38624-0.19531-0.55664v-6.0137a0.50005 0.50005 0 0 0 0-0.00586s0.00229-0.21946 0.125-0.47852c0.0070218-0.013866 0.14495-0.18953 0.32031-0.30664s0.38515-0.19531 0.55469-0.19531z" color="#000000" fill="#363636" stroke-linecap="round" stroke-linejoin="round" style="-inkscape-stroke:none"/>
</svg>
