<svg width="16px" height="16px" version="1.1" viewBox="0 0 16 16" xmlns="http://www.w3.org/2000/svg">
 <path d="m4 0c-2.1758 0-3.875 1.9609-3.5664 4.1133l1.3633 9.5312c0.18359 1.3398 1.3398 2.3477 2.6914 2.3555h0.0039063c1.375 0 2.5078-1.1328 2.5078-2.5078v-2.4922c0-0.5625 0.4375-1 1-1s1 0.4375 1 1v2.4883c-0.007812 1.3672 1.1172 2.5039 2.4844 2.5117h0.007813c1.3555 0 2.5195-1.0117 2.7109-2.3516l1.3633-9.5352c0.30859-2.1523-1.3906-4.1133-3.5664-4.1133h-1c-1.0937 0-2 0.90625-2 2h-2c0-1.0937-0.90625-2-2-2h-1zm0 1h1c0.54137 0 1 0.45863 1 1a1.0001 1.0001 0 0 0 1 1h2a1.0001 1.0001 0 0 0 1-1c0-0.54137 0.45863-1 1-1h1c1.5749 0 2.7995 1.4133 2.5762 2.9707a1.0001 1.0001 0 0 0 0 0.0019531l-1.3633 9.5352c-0.1211 0.8477-0.86284 1.4922-1.7207 1.4922h-0.001954c-0.81601-0.004663-1.4949-0.69039-1.4902-1.5059a1.0001 1.0001 0 0 0 0-0.001953 1.0001 1.0001 0 0 0 0-0.001954 1.0001 1.0001 0 0 0 0-0.001953v-2.4883c0-1.081-0.91898-2-2-2s-2 0.91898-2 2v2.4922c0 0.82511-0.68098 1.5067-1.5059 1.5078h-0.0019531c-0.85693-0.0059-1.5891-0.64565-1.7051-1.4922a1.0001 1.0001 0 0 0 0-0.001953 1.0001 1.0001 0 0 0 0-0.001953l-1.3633-9.5312a1.0001 1.0001 0 0 0 0-0.0019531c-0.22329-1.5574 1.0012-2.9707 2.5762-2.9707z" fill="#363636"/>
</svg>
