<svg width="16" height="16" version="1.1" xmlns="http://www.w3.org/2000/svg">
 <rect x="6" y="3" width="1" height="10" rx=".5" ry=".5" fill="#363636" stroke-linecap="round" stroke-linejoin="round" stroke-width="2" style="paint-order:stroke fill markers"/>
 <path transform="rotate(-53.13)" d="m-7.6844 8.4195c-0.089678-0.13296-0.24328-0.21992-0.41641-0.21992-0.277 0-0.49844 0.22378-0.49844 0.50078l-7.815e-4 6.4996 1.0008 1.3344-0.0011715-7.8336c0-0.10387-0.030178-0.20147-0.083984-0.28125z" fill="#363636" stroke-linecap="round" stroke-linejoin="round" stroke-width="2" style="paint-order:stroke fill markers"/>
 <path d="m6 8v6l1 2h5c1.6429 0 2-1.5126 2-2v-4c0-0.57131-0.758-0.97-1-1s-4-1-4-1h-3zm1 1h1.873c0.10965 0.028286 0.88129 0.22602 1.791 0.45703 0.4861 0.12344 0.97842 0.24947 1.3691 0.3457 0.19536 0.048118 0.36504 0.088092 0.49805 0.11914 0.133 0.031048 0.14578 0.04553 0.3457 0.070312-0.28923-0.035855 0.005397 0.019156 0.091797 0.08789 0.027886 0.022187 0.026243 0.02329 0.03125 0.029297v3.8906c0-5.35e-4 -0.06385 0.39999-0.21484 0.625-0.15099 0.22501-0.27061 0.375-0.78516 0.375h-4.3828l-0.61719-1.2363v-4.7637z" fill="#363636" stroke-linecap="round" stroke-linejoin="round" stroke-width="2" style="paint-order:stroke fill markers"/>
 <path d="m7 0a4 4 0 0 0-4 4 4 4 0 0 0 2 3.4531v-1.2285a3 3 0 0 1-1-2.2246 3 3 0 0 1 3-3 3 3 0 0 1 3 3 3 3 0 0 1-2 2.8242v1.041a4 4 0 0 0 3-3.8652 4 4 0 0 0-4-4z" fill="#363636" opacity=".35" style="paint-order:stroke fill markers"/>
</svg>
