<svg width="16px" height="16px" version="1.1" viewBox="0 0 16 16" xmlns="http://www.w3.org/2000/svg">
 <circle cx="8" cy="12.75" r=".75" fill="#363636" stroke-width="1.5"/>
 <path d="m8 3c-1.7085 0-3.1074 1.3989-3.1074 3.1074a0.6066 0.6066 0 0 0 0.60742 0.60547 0.6066 0.6066 0 0 0 0.60742-0.60547c0-1.0529 0.8397-1.8945 1.8926-1.8945s1.8926 0.84165 1.8926 1.8945-0.8397 1.8926-1.8926 1.8926a0.60666 0.60666 0 0 0-0.60742 0.60742v2a0.6066 0.6066 0 0 0 0.60742 0.60547 0.6066 0.6066 0 0 0 0.60742-0.60547v-1.6465c1.38-0.3155 2.5-1.3815 2.5-2.8535 0-1.7085-1.3989-3.1074-3.1074-3.1074z" fill="#363636"/>
 <path d="m8 0a8 8 0 0 0-8 8 8 8 0 0 0 8 8 8 8 0 0 0 8-8 8 8 0 0 0-8-8zm0 1a7 7 0 0 1 7 7 7 7 0 0 1-7 7 7 7 0 0 1-7-7 7 7 0 0 1 7-7z" fill="#363636"/>
</svg>
