<svg xmlns="http://www.w3.org/2000/svg" width="16" height="16"><path d="M4 10h1v5H4v-4l-1 1v-1zm3.5 0c.831 0 1.5.669 1.5 1.5v2c0 .831-.669 1.5-1.5 1.5S6 14.331 6 13.5v-2c0-.831.669-1.5 1.5-1.5Zm4.5 0 2 2h-4Zm-4.5 1c-.277 0-.5.223-.5.5v2a.499.499 0 1 0 1 0v-2c0-.277-.223-.5-.5-.5Zm2.5 2h4l-2 2z" style="fill:#363636;fill-opacity:1"/><path d="M2 8c-1.108 0-2 .892-2 2v6h1v-6c0-.554.446-1 1-1h12c.554 0 1 .446 1 1v6h1v-6c0-1.108-.892-2-2-2H2z" style="fill:#363636;stroke-width:0;stroke-linecap:round;stroke-linejoin:round;paint-order:stroke fill markers;stop-color:#000"/><path d="M8 0a.497.497 0 0 0-.498.5l-.002.525a7 7 0 0 0-2.557.682l-.261-.451a.5.5 0 1 0-.866.498l.266.457a7 7 0 0 0-.996.814c-.011.01-.025.015-.035.026-.011.01-.016.023-.026.035a7 7 0 0 0-.814.994l-.455-.262a.5.5 0 1 0-.5.866l.451.261a7 7 0 0 0-.469 1.242A7 7 0 0 0 1.021 7.5H.5a.497.497 0 0 0-.498.5c0 .277.221.498.498.498l.525.002a7 7 0 0 0 .067.5h1.013a6 6 0 0 1 .1-2.553 6 6 0 0 1 1.219-2.316l2.855 2.853a2 2 0 0 0-.21 1.534 2 2 0 0 0 .2.482H9.73a2 2 0 0 0 .268-1.018H10l3.898-1.045A6 6 0 0 1 13.914 9h1.006a7 7 0 0 0 .059-.5h.521a.499.499 0 1 0 0-.998l-.525-.002a7 7 0 0 0-.211-1.283c-.002-.01 0-.02-.002-.03-.003-.012-.014-.02-.018-.03a7 7 0 0 0-.451-1.214l.451-.261A.497.497 0 0 0 14.928 4a.497.497 0 0 0-.682-.184l-.457.266a7 7 0 0 0-1.87-1.871l.265-.455a.5.5 0 1 0-.868-.5l-.26.451a7 7 0 0 0-1.243-.469A7 7 0 0 0 8.5 1.021V.5C8.5.223 8.277 0 8 0zm-.14 2.002a6 6 0 0 1 1.693.203 6 6 0 0 1 4.088 3.766L9.738 7.016a2 2 0 0 0-2.256-.948 2 2 0 0 0-.496.21L4.13 3.42a6 6 0 0 1 2.047-1.137 6 6 0 0 1 1.683-.281zm.27 5.006a1 1 0 0 1 .837.732 1 1 0 0 1-.707 1.227 1 1 0 0 1-1.225-.707 1 1 0 0 1 .707-1.227 1 1 0 0 1 .389-.025z" class="ColorScheme-Text" style="color:#363636;fill:#363636;fill-opacity:1"/></svg>