<svg xmlns="http://www.w3.org/2000/svg" width="16" height="16"><path d="M5.5 1c-.277 0-.5.446-.5 1s.223 1 .5 1 .5-.446.5-1-.223-1-.5-1zm2 0c-.277 0-.5.446-.5 1s.223 1 .5 1 .5-.446.5-1-.223-1-.5-1zm2 0c-.277 0-.5.446-.5 1s.223 1 .5 1 .5-.446.5-1-.223-1-.5-1zm2 0c-.277 0-.5.446-.5 1s.223 1 .5 1 .5-.446.5-1-.223-1-.5-1zM4 4v9h9V4H4zM1.95 5c-.53.013-.95.232-.95.5 0 .277.446.5 1 .5s1-.223 1-.5S2.554 5 2 5h-.05zM5 5h7v7H5V5zm9.95 0c-.53.013-.95.232-.95.5 0 .277.446.5 1 .5s1-.223 1-.5-.446-.5-1-.5h-.05zm-13 2c-.53.013-.95.232-.95.5 0 .277.446.5 1 .5s1-.223 1-.5S2.554 7 2 7h-.05zm13 0c-.53.013-.95.232-.95.5 0 .277.446.5 1 .5s1-.223 1-.5-.446-.5-1-.5h-.05zm-13 2c-.53.013-.95.232-.95.5 0 .277.446.5 1 .5s1-.223 1-.5S2.554 9 2 9h-.05zm13 0c-.53.013-.95.232-.95.5 0 .277.446.5 1 .5s1-.223 1-.5-.446-.5-1-.5h-.05zm-13 2c-.53.013-.95.232-.95.5 0 .277.446.5 1 .5s1-.223 1-.5-.446-.5-1-.5h-.05zm13 0c-.53.013-.95.232-.95.5 0 .277.446.5 1 .5s1-.223 1-.5-.446-.5-1-.5h-.05zM5.5 14c-.277 0-.5.446-.5 1s.223 1 .5 1 .5-.446.5-1-.223-1-.5-1zm2 0c-.277 0-.5.446-.5 1s.223 1 .5 1 .5-.446.5-1-.223-1-.5-1zm2 0c-.277 0-.5.446-.5 1s.223 1 .5 1 .5-.446.5-1-.223-1-.5-1zm2 0c-.277 0-.5.446-.5 1s.223 1 .5 1 .5-.446.5-1-.223-1-.5-1z" style="fill:#363636;fill-opacity:1"/></svg>