<svg xmlns="http://www.w3.org/2000/svg" width="16" height="16"><path fill="#363636" fill-rule="evenodd" d="M2.5 0a.5.5 0 0 0-.5.5V2h1V1h6v3.5a.5.5 0 0 0 .5.5H13v10h-1v1h1.5a.5.5 0 0 0 .5-.5v-11a.5.5 0 0 0-.04-.191.5.5 0 0 0-.106-.163l-4-4a.5.5 0 0 0-.15-.1.5.5 0 0 0-.038-.013.5.5 0 0 0-.13-.025A.5.5 0 0 0 9.5 0h-7zM10 1.707 12.293 4H10ZM2 3v1h1V3Zm0 2v1h1V5Zm0 2v1h1V7Zm0 2v1h1V9Zm0 2v1h1v-1zm0 2v1h1v-1zm0 2v.5a.5.5 0 0 0 .5.5H3v-1h-.5Zm2 0v1h1v-1zm2 0v1h1v-1zm2 0v1h1v-1zm2 0v1h1v-1z" color="#000" style="-inkscape-stroke:none"/></svg>