<svg width="16px" height="16px" version="1.1" viewBox="0 0 16 16" xmlns="http://www.w3.org/2000/svg">
 <path d="m2 2c-1.108 0-2 0.892-2 2v9c0 1.108 0.892 2 2 2h8v-1h-8c-0.554 0-1-0.446-1-1v-6h15v-2c0-1.108-0.892-2-2-2h-7.6289c-0.57985-0.0229-0.6047 0.076884-1.0391-0.35742-0.43381-0.43381-0.613-0.64213-1.332-0.64258zm0 1h2c0.31116-1.7e-6 0.52033 1.419e-4 0.99805 0.4707 0.47877 0.47161 0.6388 0.5293 1 0.5293h8.002c0.554 0 1 0.446 1 1v1h-14v-2c0-0.554 0.446-1 1-1z" fill="#363636"/>
 <circle cx="13" cy="9" r="1" fill="#363636" stroke-width="0"/>
 <circle cx="13" cy="12" r="1" fill="#363636" stroke-width="0"/>
 <circle cx="13" cy="15" r="1" fill="#363636" stroke-width="0"/>
</svg>
