<svg width="16" height="16" version="1.1" viewBox="0 0 16 16" xmlns="http://www.w3.org/2000/svg">
 <g fill="#363636">
  <path d="m4.8008 4v1l2.0996 2.3086 0.29883 2.6914h1.6016l0.29883-2.6914 2.0352-2.2383a3.5 3.5 0 0 1-0.78906-1.0703zm1.3516 1h3.6953l-1.4883 1.6367a1.0001 1.0001 0 0 0-0.25391 0.56055l-0.10547 0.95508-0.10547-0.95508a1.0001 1.0001 0 0 0-0.25391-0.56055z" opacity=".5"/>
  <path d="m2.4883 2c-0.82235 0-1.5 0.67765-1.5 1.5v7c0 0.82235 0.67765 1.5 1.5 1.5h3.5v1h-2v1h8v-1h-2v-1h3.5c0.82235 0 1.5-0.67765 1.5-1.5v-7c0-0.82235-0.67765-1.5-1.5-1.5zm0 1h11c0.28565 0 0.5 0.21435 0.5 0.5v7c0 0.28565-0.21435 0.5-0.5 0.5h-11c-0.28565 0-0.5-0.21435-0.5-0.5v-7c0-0.28565 0.21435-0.5 0.5-0.5zm4.5118 9h2v1h-2z"/>
 </g>
</svg>
