<svg width="16" height="16" version="1.1" viewBox="0 0 16 16" xmlns="http://www.w3.org/2000/svg">
 <g fill="#363636">
  <path d="m6.4941 4.6621-3.2637 3.6016-0.33594 0.37109 0.74023 0.67188 0.33594-0.37109 2.5352-2.7969 3 3.1992 3.1328-3.459c-0.34377-0.086573-0.67239-0.22487-0.97461-0.41016l-2.1699 2.3926z"/>
  <path d="m2.5 2c-0.82235 0-1.5 0.67765-1.5 1.5v7c0 0.82235 0.67765 1.5 1.5 1.5h3.5v1h-2v1h8v-1h-2v-1h3.5c0.82235 0 1.5-0.67765 1.5-1.5v-4.8418a3.5 3.5 0 0 1-1 0.30664v4.5352c0 0.28565-0.21435 0.5-0.5 0.5h-11c-0.28565 0-0.5-0.21435-0.5-0.5v-7c0-0.28565 0.21435-0.5 0.5-0.5h7.5a3 3 0 0 1 0.019531-0.21094 3.5 3.5 0 0 1-0.019531-0.28906 3.5 3.5 0 0 1 0.03516-0.5h-7.5352zm4.5 10h2v1h-2z"/>
  <path d="m13.5 0a2.5 2.5 0 0 0-2.5 2.5 2.5 2.5 0 0 0 2.5 2.5 2.5 2.5 0 0 0 2.5-2.5 2.5 2.5 0 0 0-2.5-2.5zm0 1a1.5 1.5 0 0 1 1.5 1.5 1.5 1.5 0 0 1-1.5 1.5 1.5 1.5 0 0 1-1.5-1.5 1.5 1.5 0 0 1 1.5-1.5z" opacity=".5"/>
 </g>
</svg>
