<svg width="16" height="16" version="1.1" viewBox="0 0 16 16" xmlns="http://www.w3.org/2000/svg">
 <path d="m2.4883 2c-0.82235 0-1.5 0.67765-1.5 1.5v7c0 0.82235 0.67765 1.5 1.5 1.5h3.5v1h-2v1h8v-1h-2v-1h3.5c0.82235 0 1.5-0.67765 1.5-1.5v-7c0-0.82235-0.67765-1.5-1.5-1.5h-11zm0 1h11c0.28565 0 0.5 0.21435 0.5 0.5v7c0 0.28565-0.21435 0.5-0.5 0.5h-11c-0.28565 0-0.5-0.21435-0.5-0.5v-7c0-0.28565 0.21435-0.5 0.5-0.5zm4.0059 1.6621-3.2637 3.6016-0.33594 0.37109 0.74023 0.67188 0.33594-0.37109 2.5352-2.7969 3 3.1992 3.2637-3.6016 0.33594-0.37109-0.74024-0.67188-0.33594 0.37109-2.5352 2.7969-3-3.1992zm0.50586 7.3379h2v1h-2v-1z" fill="#363636"/>
</svg>
