<svg width="16" height="16" version="1.1" viewBox="0 0 16 16" xmlns="http://www.w3.org/2000/svg">
 <path d="m4.8008 4v1l2.0996 2.3086 0.29883 2.6914h1.6016l0.29883-2.6914 2.0352-2.2383a3.5 3.5 0 0 1-0.78906-1.0703zm1.3516 1h3.6953l-1.4883 1.6367a1.0001 1.0001 0 0 0-0.25391 0.56055l-0.10547 0.95508-0.10547-0.95508a1.0001 1.0001 0 0 0-0.25391-0.56055z" fill="#363636" opacity=".5"/>
 <path d="m3 1c-1.662 0-3 1.338-3 3v6c0 1.662 1.338 3 3 3h10c1.662 0 3-1.338 3-3v-6c0-1.662-1.338-3-3-3zm0 1h10c1.108 0 2 0.892 2 2v6c0 1.108-0.892 2-2 2h-10c-1.108 0-2-0.892-2-2v-6c0-1.108 0.892-2 2-2z" fill="#363636" stroke-linecap="round" stroke-linejoin="round" stroke-width="1.0016"/>
 <rect x="4" y="14" width="8" height="1" rx=".5" ry=".5" fill="#363636" stroke-linecap="round" stroke-linejoin="round" stroke-width="1.0016"/>
</svg>
