<svg xmlns="http://www.w3.org/2000/svg" id="svg1" width="16" height="16" version="1.1"><style id="s2">@import &quot;../../highlights.css&quot;;</style><g id="distribute-vertical-baseline" transform="translate(-721.333 -523.575) scale(.66667)"><path id="path18964" d="M1090.352 796.416c.69-.598 1.844-.37 2.384.308.846 1.062 1.132 2.382 1.431 3.64.254 1.065.406 1.683.466 2.773.698-1.378 1.47-2.387 1.494-3.938.012-.785-.456-1.449-.77-2.143-.263-.58.448-1.152 1.073-1 .747.181.883.977.858 1.573-.075 1.771-.807 3.51-1.544 5.129-1.043 2.138-2.524 4.139-4.492 5.624-.755.57-2.682 1.081-3.672.859-1.944-.436-1.762-2.465 0-2.637 1.08-.105 2.246 1.088 2.898 1.077 1.075-.019 1.877-.918 2.132-1.806.33-1.15.044-2.363-.163-3.515-.272-1.509-.63-3.038-1.413-4.399-.16-.528-1.414-.842-.682-1.545z" style="stroke-width:1;fill:#363636;fill-opacity:1"/><path id="path18967" d="M1094 789.862c-.544 0-.954.085-1.23.257-.272.171-.408.424-.408.758 0 .307.108.548.327.724.223.171.532.257.925.257.49 0 .903-.162 1.237-.487.336-.33.503-.74.503-1.232v-.277h-1.355m3.592 3.504h-1.968v-1.123c-.349.46-.742.796-1.179 1.008-.437.208-.968.311-1.593.311-.845 0-1.802-.321-2.33-.777-.524-.46-.787-1.056-.787-1.786 0-.889.328-1.54.983-1.956.66-.415 1.694-.623 3.1-.623h1.537v-.189c0-1.125-1.13-1.109-2.01-1.11-1.176 0-2.106.203-2.897.623v-1.848c.56-.126 1.028-.243 1.683-.284 1.541-.095 3.151-.059 4.303.52.757.382 1.158 1.102 1.158 2.316z" style="stroke-width:1;fill:#363636;fill-opacity:1"/><path id="rect18981" d="M1081.999 794.362v-1.5h24v1.5z" style="fill:#363636;fill-opacity:1"/><path id="rect18969" d="M1082 806.362v-1.5h24v1.5z" style="fill:#363636;fill-opacity:1"/><path id="path826-0" d="M1083.499 803.362h4.5v-1.5h-1.5v-4.5h1.5v-1.5h-4.5v1.5h1.5v4.5h-1.5z" style="opacity:1;fill:#363636;fill-opacity:1;stroke-width:1"/></g></svg>