<svg xmlns="http://www.w3.org/2000/svg" id="svg1" width="16" height="16" version="1.1"><style id="s2">@import &quot;../../highlights.css&quot;;</style><g id="align-horizontal-node" transform="matrix(.66667 0 0 .66653 -696 -574.12)"><path id="path1584" d="M1044 879.361h6l1.398 1.5H1044Z" style="fill:#363636;fill-opacity:1"/><path id="path1586" d="M1044 871.86h7.5l-1.602 1.5H1044Z" style="fill:#363636;fill-opacity:1"/><path id="use5269" d="M1044 864.358h6.17l1.33 1.5h-7.5Z" style="fill:#363636;fill-opacity:1"/><path id="rect830" d="M-877.861 1045.5h3.001v3h-3.001z" style="opacity:.45;fill:#363636;fill-opacity:1;stroke-width:.999997" transform="rotate(-90)"/><path id="rect828" d="M-870.359 1045.5h3.001v3h-3.001z" style="opacity:.45;fill:#363636;fill-opacity:1;stroke-width:.999997" transform="rotate(-90)"/><path id="path6290" fill="#363636" d="M1068 883.862a4.49 4.49 0 0 0-4.5-4.5v1.5c1.662 0 3 1.338 3 3zm-12-3v-1.5c-1.662 0-3-1.34-3-3.001a2.994 2.994 0 0 1 3-3.001v-1.5a4.49 4.49 0 0 0-4.5 4.5 4.49 4.49 0 0 0 4.5 4.502zm7.5-7.502a4.49 4.49 0 0 0 4.5-4.5 4.49 4.49 0 0 0-4.5-4.502v1.5c1.662 0 3 1.339 3 3.001s-1.338 3-3 3zm-7.5-7.502v-1.5c-1.662 0-3-1.339-3-3h-1.5a4.49 4.49 0 0 0 4.5 4.5z" style="opacity:.45;stroke-width:1"/><path id="path6332" fill="#363636" d="M1060.5 885.362v-3h1.5v-4.501h-1.5v-3h1.5v-4.502h-1.5v-3h1.5v-4.501h-1.5v-1.5h-1.5v1.5h-1.5v4.5h1.5v3.001h-1.5v4.501h1.5v3h-1.5v4.502h1.5v3zm0-4.5h-1.5v-1.5h1.5zm0-7.502h-1.5v-1.5h1.5zm0-7.502h-1.5v-1.5h1.5z" style="stroke-width:1"/></g></svg>