<svg xmlns="http://www.w3.org/2000/svg" id="svg1" width="16" height="16" version="1.1"><style id="s2">@import &quot;../../highlights.css&quot;;</style><g id="distribute-horizontal-baseline" transform="translate(-696 -523.575) scale(.66667)"><path id="path18964" d="M1058.915 793.164c.739-.64 1.975-.396 2.553.33.906 1.137 1.212 2.551 1.533 3.898.271 1.14.435 1.803.498 2.97.748-1.476 1.576-2.556 1.6-4.218.014-.84-.488-1.551-.824-2.295-.281-.622.48-1.234 1.15-1.071.8.194.946 1.047.918 1.684-.08 1.898-.864 3.76-1.653 5.494-1.118 2.29-2.704 4.433-4.812 6.024-.808.61-2.872 1.158-3.933.92-2.081-.468-1.887-2.641 0-2.825 1.158-.112 2.407 1.166 3.105 1.154 1.151-.02 2.01-.983 2.283-1.934.354-1.233.047-2.531-.175-3.766-.29-1.615-.675-3.253-1.513-4.71-.171-.566-1.514-.903-.73-1.655z" style="opacity:1;fill:#363636;fill-opacity:1"/><path id="path18967" d="M1052.233 796.98c-.572 0-1.004.082-1.295.245-.287.164-.43.405-.43.723 0 .293.114.523.345.69.235.164.56.246.974.246.516 0 .951-.155 1.304-.465.353-.314.53-.705.53-1.174v-.265h-1.428m3.784 3.342h-2.073v-1.071c-.368.439-.782.76-1.243.961-.46.198-1.02.297-1.679.297-.89 0-1.897-.306-2.455-.741-.55-.439-.412-.972-.412-1.67 0-.847-.07-1.503.62-1.899.695-.396 1.784-.594 3.266-.594h1.62v-.18c0-1.073-1.191-1.057-2.118-1.059-1.24-.002-2.219.194-3.052.594v-1.762c.588-.12 1.082-.232 1.772-.27 1.624-.092 3.32-.057 4.534.496.797.363 1.22 1.053 1.22 2.208z" style="opacity:1;fill:#363636;fill-opacity:1"/><path id="rect18981" d="M1057.5 785.362h1.5v24h-1.5z" style="opacity:1;fill-opacity:1;fill:#363636"/><path id="rect18969" d="M1045.5 785.362h1.5v24h-1.5z" style="opacity:1;fill-opacity:1;fill:#363636"/><path id="path826" d="M3 1v3h1V3h3v1h1V1H7v1H4V1Z" style="opacity:1;stroke-width:.666667;fill:#363636;fill-opacity:1" transform="matrix(1.5 0 0 1.5 1044 785.362)"/></g></svg>