<svg xmlns="http://www.w3.org/2000/svg" id="svg1" width="16" height="16" version="1.1"><style id="s2">@import &quot;../../highlights.css&quot;;</style><g id="distribute-randomize" transform="translate(-696 -548.908) scale(.66667)"><path id="path4069" d="M1050 824.862v4.5h6v-4.5h-6zm9 0v4.5h6v-4.5h-6zm-7.5 1.5h3v1.5h-3v-1.5zm9 0h3v1.5h-3v-1.5zm-14.971 4.497v4.5h6v-4.5h-6zm14.97.003v4.5h6v-4.5h-6zm-13.5 1.5h3v1.5h-3v-1.5zm6 0v4.5h6v-4.5h-6zm9 0h3v1.5h-3v-1.5zm-7.5 1.5h3v1.5h-3v-1.5zm-9 3v4.5h6v-4.5h-6zm1.5 1.5h3v1.5h-3v-1.5zm13.5 0v4.5h6v-4.5h-6zm1.5 1.5h3v1.5h-3v-1.5zm-9 1.5v4.5h6v-4.5h-6zm1.5 1.5h3v1.5h-3v-1.5z" style="opacity:1;stroke-width:1.06066;fill:#363636;fill-opacity:1"/></g></svg>