<svg width="16px" height="16px" version="1.1" viewBox="0 0 16 16" xmlns="http://www.w3.org/2000/svg">
 <path transform="translate(-560,-80)" d="m562 80v2c0 3.878 3.122 7 7 7v3c0 1.662-1.338 3-3 3-0.93335 0-1.7651-0.42158-2.3144-1.0859 1.3535-0.3177 2.3114-1.5238 2.3144-2.9141 0-1.6569-1.3432-3-3-3s-3 1.3431-3 3c2e-3 1.4647 1.0612 2.7138 2.5059 2.9551 0.68292 1.2223 1.989 2.0449 3.4941 2.0449 2.216 0 4-1.784 4-4v-3.0723c3.4004-0.4829 6-3.3898 6-6.9277v-2h-4v1h3v1c0 3.324-2.676 6-6 6s-6-2.676-6-6v-1h3v-1zm1 9c1.1046 0 2 0.89543 2 2s-0.89543 2-2 2-2-0.89543-2-2 0.89543-2 2-2zm0.36133 4.9727c-0.11978 0.016387-0.24045 0.025518-0.36133 0.027344 0.12088-0.0018 0.24155-0.01096 0.36133-0.02734z" fill="#363636"/>
</svg>
