<svg xmlns="http://www.w3.org/2000/svg" width="16" height="16"><path d="M6 1v1c0 .554.446 1 1 1h2.686a2.731 2.731 0 0 1-.286.908C9.11 4.452 8.602 5 7.285 5c-1.113 0-3.297 0-3.869.137-.636.151-1.235.441-1.693.955-.459.513-.727 1.253-.727 2.181 0 .708.131 1.272.395 1.704.263.431.652.71 1.027.853.168.065.338.107.506.137-1.164 1.53-1.459 3.995.076 4.031A2 2 0 0 1 5 13a2 2 0 0 1 2 1.998c1.493 0 3.675-.004 4.504-.004A2.5 2.5 0 0 0 13.5 16a2.5 2.5 0 0 0 2.5-2.5 2.5 2.5 0 0 0-2-2.45V9s-1.494-.25-3.488-.25c-1.933 0-4.334.237-6.295 1.162-.502.01-1.082.053-1.496-.105a.989.989 0 0 1-.514-.444c-.13-.213-.242-.54-.242-1.09 0-.708.181-1.127.453-1.431.272-.305.682-.492 1.209-.615.36-.228 2.477-.135 3.658-.135 1.586 0 2.527-.818 2.963-1.637.313-.588.393-1.17.414-1.455H13c.554 0 1-.446 1-1V1H6zm7.059 10.045a2.5 2.5 0 0 0-.114.023 2.5 2.5 0 0 1 .114-.023zm-.43.12a2.5 2.5 0 0 0-.125.046 2.5 2.5 0 0 1 .125-.047zm-.506.251a2.5 2.5 0 0 0-.05.037 2.5 2.5 0 0 1 .05-.037zm-.336.271a2.5 2.5 0 0 0-.1.1 2.5 2.5 0 0 1 .1-.1zM13.5 12a1.5 1.5 0 0 1 1.5 1.5 1.5 1.5 0 0 1-1.5 1.5 1.5 1.5 0 0 1-1.5-1.5 1.5 1.5 0 0 1 1.5-1.5zm-2.047.072a2.5 2.5 0 0 0-.037.051 2.5 2.5 0 0 1 .037-.05zm-.242.432a2.5 2.5 0 0 0-.047.125 2.5 2.5 0 0 1 .047-.125zm-.143.441a2.5 2.5 0 0 0-.023.114 2.5 2.5 0 0 1 .023-.114zm-.015 1.04a2.5 2.5 0 0 0 .02.087 2.5 2.5 0 0 1-.02-.088zM5 14a1 1 0 0 0-1 1 1 1 0 0 0 1 1 1 1 0 0 0 1-1 1 1 0 0 0-1-1z" style="stroke-width:.998449;fill:#363636;fill-opacity:1"/></svg>