<svg width="16" height="16" version="1.1" xmlns="http://www.w3.org/2000/svg">
 <path d="m8 0a8 8 0 0 0-8 8 8 8 0 0 0 8 8 8 8 0 0 0 8-8 8 8 0 0 0-8-8zm0 1a7 7 0 0 1 7 7 7 7 0 0 1-7 7 7 7 0 0 1-7-7 7 7 0 0 1 7-7z" fill="#363636"/>
 <path d="m7.5 3v1h-1.25c-1.2465 0-2.25 1.0035-2.25 2.25 0 1.2465 1.0035 2.25 2.25 2.25h1.75 1.75c0.6925 0 1.25 0.5575 1.25 1.25 0 0.6925-0.5575 1.25-1.25 1.25h-1.25-1-1.25c-0.60661 0-1.1092-0.42842-1.2246-1h-1.0117c0.12371 1.1279 1.0744 2 2.2363 2h1.25v1h1v-1h1.25c1.2465 0 2.25-1.0035 2.25-2.25 0-1.2465-1.0035-2.25-2.25-2.25h-1.6836-1.8164c-0.6925 0-1.25-0.5575-1.25-1.25 0-0.6925 0.5575-1.25 1.25-1.25h1.25 1 1.25c0.6066 0 1.1092 0.42842 1.2246 1h1.0117c-0.12371-1.1279-1.0744-2-2.2363-2h-1.25v-1h-1z" fill="#363636"/>
</svg>
