<svg xmlns="http://www.w3.org/2000/svg" width="16" height="16"><path d="M2 2C.892 2 0 2.892 0 4v8c0 1.108.892 2 2 2h4v-1H2c-.554 0-1-.446-1-1V4c0-.554.446-1 1-1h9c.554 0 1 .446 1 1v2h1V4c0-1.108-.892-2-2-2H2z" style="fill:#363636;stroke-width:2;stroke-linecap:round;stroke-linejoin:round;paint-order:stroke fill markers;stop-color:#000"/><path d="M2 4v8h4V9c0-1.662 1.338-3 3-3h2V4H2z" style="fill:#363636;stroke-width:2;stroke-linecap:round;stroke-linejoin:round;paint-order:stroke fill markers;stop-color:#000;opacity:.45"/><path d="M9 7c-1.108 0-2 .892-2 2v5c0 1.108.892 2 2 2h5c1.108 0 2-.892 2-2V9c0-1.108-.892-2-2-2H9zm.379 1.877a.5.5 0 0 1 .353.148l1.768 1.768 1.768-1.768a.499.499 0 1 1 .707.707L12.207 11.5l1.768 1.768a.499.499 0 1 1-.707.707L11.5 12.207l-1.768 1.768a.499.499 0 1 1-.707-.707l1.768-1.768-1.768-1.768a.499.499 0 0 1 0-.707.5.5 0 0 1 .354-.148z" style="opacity:1;fill:#363636;stroke-width:2;stroke-linecap:round;stroke-linejoin:round;paint-order:stroke fill markers;stop-color:#000"/></svg>