<svg xmlns="http://www.w3.org/2000/svg" width="16" height="16"><path d="M1.379.674 1 1h.65a34.928 34.928 0 0 0-.27-.326zM2.992 1v1H9V1H2.992zm-2 .006-.37.32s.144.173.37.451v-.771zm2 1.724V3H1.947a37.5 37.5 0 0 1 1.508 2.146c.677 1.046 1.319 2.18 1.72 3.208.403 1.027.535 1.935.35 2.488-.433 1.3-1.5 1.95-2.533 2.299v1.045L3 14.184V15h5v-1H3.56c1.142-.437 2.394-1.28 2.915-2.842.315-.947.072-2.039-.37-3.168-.441-1.129-1.112-2.307-1.81-3.386A36.865 36.865 0 0 0 2.992 2.73z" style="fill:#363636;stroke-linecap:round;stroke-linejoin:round;paint-order:stroke fill markers;stop-color:#000"/><path d="M.992 0c-.554 0-1 .446-1 1v2.002c0 .554.446 1 1 1h2.016c.554 0 1-.446 1-1V1c0-.554-.446-1-1-1zm0 1h2v2h-2z" style="fill:#363636;stroke-linecap:round;stroke-linejoin:round;paint-order:stroke fill markers;stop-color:#000"/><rect width="2" height="2" x=".992" y="1" rx="0" ry="0" style="opacity:.35;fill:#363636;stroke-linecap:round;stroke-linejoin:round;paint-order:stroke fill markers;stop-color:#000"/><path d="M.992 12c-.554 0-1 .446-1 1v2.002c0 .554.446 1 1 1h2.016c.554 0 1-.446 1-1V13c0-.554-.446-1-1-1zm0 1h2v2h-2z" style="fill:#363636;stroke-linecap:round;stroke-linejoin:round;paint-order:stroke fill markers;stop-color:#000"/><rect width="2" height="2" x=".992" y="13" rx="0" ry="0" style="opacity:.35;fill:#363636;stroke-linecap:round;stroke-linejoin:round;paint-order:stroke fill markers;stop-color:#000"/><path d="m8.152 5.87 5.197 3 1.5-2.597.3-.521.504-.873c-.274-.216-.476-.55-.672-1.031-.214-.523-.41-1.194-.707-1.935C13.705.5 12.167.093 11.55-.016l-.334.579-1.065 1.843Zm-.134 2.233 3.464 2 .5-.866-3.464-2zm1.5-2.598 2.497-4.326c.51.2 1.103.542 1.33 1.107.276.685.467 1.343.711 1.941.108.265.23.523.38.76l-1.454 2.518zm-2.45 7.245a.499.499 0 1 0 .865.5l.25-.433 1.25-2.165.25-.433-.433-.25-.433-.25-.25.433-1.25 2.165z" style="fill:#363636;stroke-linecap:round;stroke-linejoin:round;paint-order:stroke fill markers;stop-color:#000"/></svg>