<svg xmlns="http://www.w3.org/2000/svg" width="16" height="16"><path d="m7.979 0-2.33 5.447L0 6.133l4.213 4.013L3.092 16l4.933-2.967 4.955 2.932-1.164-5.848L16 6.077l-5.652-.647L7.978 0zm.007 2.521L9.66 6.357l4.121.471-3.052 2.95.832 4.187-3.541-2.096-3.526 2.121.803-4.191L2.223 6.87l4.117-.5 1.646-3.848z" style="stroke-width:1.01408;fill:#363636;fill-opacity:1"/><path d="M7.986 2.521 6.34 6.37l-4.117.502L5.297 9.8l-.803 4.191 3.526-2.12 3.54 2.095-.831-4.188 3.052-2.949-4.12-.47L7.985 2.52z" style="color:#000;fill:#363636;stroke-width:2;-inkscape-stroke:none;opacity:.35;fill-opacity:1"/></svg>