<svg xmlns="http://www.w3.org/2000/svg" width="16" height="16"><path d="M1.415 10h13.121c.23 0 .416.149.416.333v.334c0 .184-.186.333-.416.333H1.416c-.23 0-.416-.149-.416-.333v-.334c0-.184.185-.333.415-.333z" style="fill:#363636;fill-opacity:1"/><path d="M12.239 6.549 9.526 5l-.775.775 1.55 1.936.775 4.647L12 14v2l1-1 .014-3.804zm-8.475 0L6.437 5l.764.775L5.673 7.71l-.763 4.647L4 14v2l-1-1v-3.804zM7.5.004h1c.277 0 .5.178.5.4V1.6c0 .222-.223.4-.5.4h-1c-.277 0-.5-.178-.5-.4V.404c0-.222.223-.4.5-.4zM7.704 9h.592c.39 0 .704.329.704.737v1.526c0 .408-.314.737-.704.737h-.592c-.39 0-.704-.329-.704-.737V9.737C7 9.33 7.314 9 7.704 9z" style="fill:#363636;fill-opacity:1"/><path d="M8 1a3 3 0 1 0 0 6 3 3 0 0 0 0-6zm0 1.47a1.532 1.532 0 1 1 0 3.063 1.532 1.532 0 0 1 0-3.064z" style="fill:#363636;fill-opacity:1"/></svg>