<svg width="16" height="16" version="1.1" viewBox="0 0 16 16" xmlns="http://www.w3.org/2000/svg">
 <g fill="#363636" fill-rule="evenodd" stroke-linecap="round" stroke-linejoin="round" stroke-width="2">
  <path d="m6 1a5 5 0 0 0-5 5 5 5 0 0 0 5 5v4h9v-9h-4a5 5 0 0 0-5-5zm0 1a4 4 0 0 1 0.23438 0.0078125 4 4 0 0 1 0.080078 0.0058594 4 4 0 0 1 0.20703 0.021484 4 4 0 0 1 0.25977 0.041016 4 4 0 0 1 0.25391 0.060547 4 4 0 0 1 0.23633 0.072266 4 4 0 0 1 0.013672 0.0039062 4 4 0 0 1 0.011719 0.0039063 4 4 0 0 1 0.23438 0.087891 4 4 0 0 1 0.17969 0.080078 4 4 0 0 1 0.017578 0.0078125 4 4 0 0 1 0.12109 0.0625 4 4 0 0 1 0.035156 0.017578 4 4 0 0 1 0.042969 0.023438 4 4 0 0 1 0.097656 0.054687 4 4 0 0 1 0.19727 0.12305 4 4 0 0 1 0.16016 0.11328 4 4 0 0 1 0.019531 0.015625 4 4 0 0 1 0.089844 0.070312 4 4 0 0 1 0.044922 0.035156 4 4 0 0 1 0.041016 0.035156 4 4 0 0 1 0.09375 0.082031 4 4 0 0 1 0.29102 0.28906 4 4 0 0 1 0.011719 0.013672 4 4 0 0 1 0.082031 0.09375 4 4 0 0 1 0.035156 0.041016 4 4 0 0 1 0.035156 0.044922 4 4 0 0 1 0.070312 0.089844 4 4 0 0 1 0.12891 0.17969 4 4 0 0 1 0.12305 0.19727 4 4 0 0 1 0.054687 0.097656 4 4 0 0 1 0.023438 0.042969 4 4 0 0 1 0.017578 0.035156 4 4 0 0 1 0.0625 0.12109 4 4 0 0 1 0.087891 0.19727 4 4 0 0 1 0.087891 0.23438 4 4 0 0 1 0.0039063 0.011719 4 4 0 0 1 0.0039062 0.013672 4 4 0 0 1 0.072266 0.23633 4 4 0 0 1 0.060547 0.25391 4 4 0 0 1 0.041016 0.25977 4 4 0 0 1 0.021484 0.20703 4 4 0 0 1 0.0058594 0.080078 4 4 0 0 1 0.0078125 0.23438 4 4 0 0 1-0.14258 1h1.0293 3.1133v7h-7v-3.1133-1.0293a4 4 0 0 1-1 0.14258 4 4 0 0 1-0.68945-0.066406 4 4 0 0 1-0.2168-0.048828 4 4 0 0 1-0.50781-0.1543 4 4 0 0 1-0.16602-0.060547 4 4 0 0 1-0.61328-0.32812 4 4 0 0 1-0.11328-0.083984 4 4 0 0 1-0.44531-0.36719 4 4 0 0 1-0.13867-0.13867 4 4 0 0 1-0.36719-0.44531 4 4 0 0 1-0.083984-0.11328 4 4 0 0 1-0.32812-0.61328 4 4 0 0 1-0.060547-0.16602 4 4 0 0 1-0.1543-0.50781 4 4 0 0 1-0.048828-0.2168 4 4 0 0 1-0.066406-0.68945 4 4 0 0 1 0.066406-0.68945 4 4 0 0 1 0.048828-0.2168 4 4 0 0 1 0.1543-0.50781 4 4 0 0 1 0.060547-0.16602 4 4 0 0 1 0.32812-0.61328 4 4 0 0 1 0.083984-0.11328 4 4 0 0 1 0.36719-0.44531 4 4 0 0 1 0.13867-0.13867 4 4 0 0 1 0.44531-0.36719 4 4 0 0 1 0.11328-0.083984 4 4 0 0 1 0.61328-0.32812 4 4 0 0 1 0.16602-0.060547 4 4 0 0 1 0.50781-0.1543 4 4 0 0 1 0.2168-0.048828 4 4 0 0 1 0.68945-0.066406z" style="paint-order:stroke fill markers"/>
  <path d="m9.8613 7c-0.36543 1.4015-1.4599 2.4959-2.8613 2.8613v1.0254c1.9554-0.40337 3.4833-1.9313 3.8867-3.8867z" opacity=".35" style="paint-order:stroke fill markers"/>
  <path d="m6 6v4c0.33785-0.0038 0.67386-0.050399 1-0.13867v-2.8613h2.8613c0.088273-0.32614 0.13487-0.66215 0.13867-1z" opacity=".35" style="paint-order:stroke fill markers"/>
 </g>
</svg>
