<svg xmlns="http://www.w3.org/2000/svg" width="16" height="16"><path d="M8 0a8 8 0 0 0-8 8 8 8 0 0 0 8 8 8 8 0 0 0 8-8 8 8 0 0 0-1-3.867V5h-.678A7 7 0 0 1 15 8a7 7 0 0 1-7 7 7 7 0 0 1-7-7 7 7 0 0 1 7-7 7 7 0 0 1 5 2.104V3h1.242A8 8 0 0 0 8 0z" style="fill:#363636;fill-opacity:1"/><path d="M15 3.195v1.018l.164-.104a.5.5 0 0 0 .158-.69.5.5 0 0 0-.31-.222.5.5 0 0 0-.012-.002zm-2 1.088L8.654 7H9v.965L13.74 5H13v-.717z" style="color:#000;fill:#363636;stroke-linecap:round;stroke-linejoin:round;stroke-miterlimit:0;-inkscape-stroke:none"/><path d="M7 6c-.554 0-1 .446-1 1v2c0 .554.446 1 1 1h2c.554 0 1-.446 1-1V7c0-.554-.446-1-1-1H7zm0 1h2v2H7V7z" style="opacity:1;fill:#363636;stroke:none;stroke-width:2.66666;stroke-linecap:round;stroke-linejoin:round;paint-order:stroke fill markers;stop-color:#000"/><rect width="2" height="2" x="7" y="7" rx="0" ry="0" style="opacity:.35;fill:#363636;stroke:none;stroke-width:1.33333;stroke-linecap:round;stroke-linejoin:round;paint-order:stroke fill markers;stop-color:#000"/><path d="M13 2c-.554 0-1 .446-1 1v2c0 .554.446 1 1 1h2c.554 0 1-.446 1-1V3c0-.554-.446-1-1-1Zm0 1h2v2h-2z" style="opacity:1;fill:#363636;stroke:none;stroke-width:2.66666;stroke-linecap:round;stroke-linejoin:round;paint-order:stroke fill markers;stop-color:#000"/><rect width="2" height="2" x="13" y="3" rx="0" ry="0" style="opacity:.35;fill:#363636;stroke:none;stroke-width:1.33333;stroke-linecap:round;stroke-linejoin:round;paint-order:stroke fill markers;stop-color:#000"/></svg>