<svg xmlns="http://www.w3.org/2000/svg" width="16" height="16"><path d="M8 9v4l5-4h-1.818L9 10.656V9Zm-8 5v2h1v-1h1v1h1v-1h1v1h1v-1h1v1h1v-1h1v1h1v-1h1v1h1v-1h1v1h1v-1h1v1h1v-2zM6 2h1v5H6Zm2 4h1v1H8Zm2-4v5h3V2Zm1 1h1v3h-1z" style="fill:#363636;fill-opacity:1"/><path d="M2 0C.892 0 0 .892 0 2v5c0 1.108.892 2 2 2h7V8H2c-.554 0-1-.446-1-1V2c0-.554.446-1 1-1h12c.554 0 1 .446 1 1v5c0 .554-.446 1-1 1h-1.465l-1.332 1H14c1.108 0 2-.892 2-2V2c0-1.108-.892-2-2-2H2z" style="opacity:1;fill:#363636;stroke-linecap:round;stroke-linejoin:round;paint-order:stroke fill markers;stop-color:#000;fill-opacity:1"/></svg>