<svg xmlns="http://www.w3.org/2000/svg" width="16" height="16"><path d="M8.832 1.07C5.886.642 2.79 2 1.245 4.893c-1.78 3.335-.863 7.801 2.411 9.729 2.776 1.634 6.526.708 8.046-2.345 1.252-2.516.53-5.852-2.003-7.2-2.01-1.07-4.703-.344-5.668 1.922-.36.847-.4 1.8-.135 2.66.264.858.862 1.644 1.776 2.01a2.564 2.564 0 0 0 1.944-.015 2.234 2.234 0 0 0 1.33-1.59 1.945 1.945 0 0 0-.193-1.335 1.438 1.438 0 0 0-.532-.581 1.27 1.27 0 0 0-.914-.137.667.667 0 0 0 .248 1.309c.007.008.002.001.017.028.057.11.085.368.07.44-.07.335-.258.52-.54.637-.282.118-.653.12-.933.008-.496-.2-.83-.617-.998-1.167a2.636 2.636 0 0 1 .087-1.744C5.914 5.98 7.71 5.528 9.073 6.253c1.797.957 2.383 3.528 1.436 5.43-1.18 2.37-4.037 3.05-6.177 1.79C1.755 11.956.967 8.245 2.421 5.522c1.704-3.193 5.63-4.092 8.541-2.287 3.35 2.077 4.34 6.933 2.371 10.475l-.02.037a.667.667 0 1 0 1.165.65l.02-.04c2.309-4.153 1.193-9.758-2.834-12.255A7.375 7.375 0 0 0 8.832 1.07Z" style="stroke-width:.666667;stroke-linecap:round;fill:#363636;fill-opacity:1"/></svg>