<svg width="16" height="16" version="1.1" xmlns="http://www.w3.org/2000/svg">
 <path transform="matrix(.66667 0 0 .69185 -272 -429.81)" d="m420.75 622.27-10.14 3.9269-0.06152 10.9 10.201-3.8478v-10.979zm-1.4736 2.1483v7.8114l-7.2422 2.7355 0.04101-7.7577 7.2011-2.7892z" fill="#363636"/>
 <path transform="matrix(.66667 0 0 .69185 -272 -429.81)" d="m421.6 634.43-10.084 3.7772 7.1513 5.4231 9.9726-3.7857-7.04-5.4146zm-0.24902 1.6656 4.3008 3.3086-6.7441 2.5605-4.374-3.3171 6.8174-2.552z" fill="#363636" opacity=".65"/>
 <path transform="matrix(.66667 0 0 .69185 -272 -429.81)" d="m422.29 622.26-0.06738 10.866 7.6845 6.1317-0.09961-10.279-7.5175-6.7188zm1.4502 3.2747 4.5996 4.1075 0.06445 6.5325-4.705-3.7547 0.04101-6.8854z" fill="#363636" opacity=".36"/>
</svg>
