<svg xmlns="http://www.w3.org/2000/svg" width="16" height="16"><path d="M5.678 0 .018 4.437l1.998 6.896h1.29l.717-1.357c-.369-.007-.65.027-1.018.054L1.302 4.902l4.41-3.51L9.027 4l.895-.667Z" style="stroke-width:.666234;fill:#363636;fill-opacity:1"/><path d="M11.714 2.687 8.302 5.875 3.89 4.729 5.784 9 3.33 12.938l4.598-.541L10.798 16l.937-4.667L16 10.197l-4.036-2.864Zm-.842 2.304.166 2.946 2.708 1.802-2.765.666-.675 3.448-1.838-2.365-3.318.248 2.097-2.661-1.693-2.97 3.105.87Z" style="stroke-width:.666233;fill:#363636;fill-opacity:1"/></svg>