<svg width="16px" height="16px" version="1.1" viewBox="0 0 16 16" xmlns="http://www.w3.org/2000/svg">
 <path transform="translate(-640,-140)" d="m647.99 140c-0.25529 0.0125-0.44335 0.20117-0.44335 0.20117-1.3128 1.3558-2.2656 2.9509-2.2656 3.9668 0 1.7817 1.1168 2.832 2.7188 2.832s2.7188-1.0464 2.7188-2.832c0-1.051-0.88638-2.5876-2.2656-3.9668-0.14163-0.14163-0.28235-0.19508-0.41015-0.20117-0.0176-8.4e-4 -0.0357-8.4e-4 -0.0527 0zm0.01 1.2422c1.0679 1.1867 1.7188 2.4797 1.7188 2.9258 0 0.68419-0.19486 1.1058-0.46875 1.3828-0.27412 0.27696-0.66714 0.44922-1.2502 0.44922-0.58228 0-0.97566-0.17347-1.25-0.45117s-0.46875-0.69908-0.46875-1.3809c0-0.19512 0.15363-0.7472 0.50586-1.3555 0.28878-0.4987 0.74411-1.0447 1.2129-1.5703zm-7.9826 2.7578c-6e-3 0.0883 8e-5 0.17694 0.0176 0.26367l3 11c0.1189 0.43485 0.51403 0.7364 0.96484 0.73633h8c0.45081 7e-5 0.84594-0.30148 0.96484-0.73633l3-11c0.0234-0.0859 0.0352-0.17461 0.0352-0.26367h-1l-1.0918 4h-11.816l-1.0918-4zm2.3457 5h11.273l-1.6367 6h-8z" fill="#363636"/>
</svg>
