<svg width="16px" height="16px" version="1.1" viewBox="0 0 16 16" xmlns="http://www.w3.org/2000/svg">
 <path d="m2.9688 1.9961c-1.6523 0-2.9805 1.3281-2.9805 2.9766v3.0273h0.011719v2.5 0.5c0 0.89942 0.39458 1.7011 1.0176 2.25 0.027259-0.40785 0.12575-0.80778 0.29102-1.1816-0.19518-0.30897-0.30859-0.67437-0.30859-1.0684v-1-2h3 7.6992 0.95117 0.34961c1.108 0 2 0.89201 2 2v1c0 0.39338-0.11397 0.75773-0.30859 1.0664 0.16751 0.37215 0.26864 0.77074 0.29883 1.1777 0.61877-0.54878 1.0098-1.3482 1.0098-2.2441v-1c0-1.662-1.338-3-3-3h-0.63477l-0.8457-2.4688c-0.51562-1.5195-1.9375-2.5352-3.5391-2.5352h-5.0117zm0.03125 1.0039h5c1.6638 0 2.4187 1.0679 3.3828 4h-7.3828-3v-2c0-1.108 0.892-2 2-2zm1.5 8a2.5 2.5 0 0 0-2.5 2.5 2.5 2.5 0 0 0 2.5 2.5 2.5 2.5 0 0 0 2.4434-2h2.1172a2.5 2.5 0 0 0 2.4434 2 2.5 2.5 0 0 0 2.5-2.5 2.5 2.5 0 0 0-2.5-2.5 2.5 2.5 0 0 0-2.4434 2h-2.1113a2.5 2.5 0 0 0-2.4492-2zm0 1a1.5 1.5 0 0 1 1.5 1.5 1.5 1.5 0 0 1-1.5 1.5 1.5 1.5 0 0 1-1.5-1.5 1.5 1.5 0 0 1 1.5-1.5zm7.0039 0a1.5 1.5 0 0 1 1.5 1.5 1.5 1.5 0 0 1-1.5 1.5 1.5 1.5 0 0 1-1.5-1.5 1.5 1.5 0 0 1 1.5-1.5z" fill="#363636"/>
</svg>
