<svg xmlns="http://www.w3.org/2000/svg" width="16" height="16"><path d="M7 5c-1.108 0-2 .892-2 2v7c0 1.108.892 2 2 2h7c1.108 0 2-.892 2-2V7c0-1.108-.892-2-2-2Zm0 1h7c.554 0 1 .446 1 1v7c0 .554-.446 1-1 1H7c-.554 0-1-.446-1-1V7c0-.554.446-1 1-1Z" style="fill:#363636;stroke:none;stroke-linecap:round;stroke-linejoin:round;paint-order:stroke fill markers;stop-color:#000"/><path d="M10.5 7a2.494 2.494 0 0 0-2.451 2h1.037c.205-.583.759-1 1.414-1 .831 0 1.5.669 1.5 1.5v.5H8c-.554 0-1 .446-1 1v2c0 .554.446 1 1 1h5c.554 0 1-.446 1-1v-2c0-.554-.446-1-1-1v-.5C13 8.115 11.885 7 10.5 7zM8 11h5v2H8v-2zM2 0C.892 0 0 .892 0 2v7c0 1.108.892 2 2 2h2v-1H2c-.554 0-1-.446-1-1V2c0-.554.446-1 1-1h7c.554 0 1 .446 1 1v2h1V2c0-1.108-.892-2-2-2Z" style="fill:#363636;stroke:none;stroke-linecap:round;stroke-linejoin:round;paint-order:stroke fill markers;stop-color:#000"/></svg>