<svg xmlns="http://www.w3.org/2000/svg" width="16" height="16"><path d="M45 707.362h1v1h-1zm2 0h1v1h-1zm2 0h1v1h-1zm2 0h1v1h-1zm2 0h1v1h-1zm2 0h1v1h-1zm2 0h1v1h-1zm2 0h1v1h-1zm-14 2h1v1h-1zm0 2h1v1h-1zm0 2h1v1h-1zm0 2h1v1h-1zm0 2h1v1h-1zm0 2h1v1h-1zm0 2h1v1h-1zm14-12h1v1h-1zm0 2h1v1h-1zm0 2h1v1h-1zm0 2h1v1h-1zm0 2h1v1h-1zm0 2h1v1h-1zm0 2h1v1h-1zm-12 0h1v1h-1zm2 0h1v1h-1zm2 0h1v1h-1zm2 0h1v1h-1zm2 0h1v1h-1zm2 0h1v1h-1z" style="opacity:1;fill:#363636;fill-opacity:1" transform="translate(-45 -707.362)"/><path d="m56.225 720.256-3.633-1.84-3.337 1.946.628-4.024L47 713.766l4.021-.646 1.556-3.537 1.856 3.625 3.845.387-2.874 2.886z" style="opacity:.999;fill-opacity:1;stroke:none;stroke-width:.833444;stroke-linejoin:round;paint-order:stroke fill markers;fill:#363636" transform="matrix(.97537 0 0 1.02053 -43.842 -722.148)"/></svg>