<svg xmlns="http://www.w3.org/2000/svg" width="16" height="16"><path d="M12 5v1h2c.554 0 1 .446 1 1v7c0 .554-.446 1-1 1H7c-.554 0-1-.446-1-1v-2H5v2c0 1.108.892 2 2 2h7c1.108 0 2-.892 2-2V7c0-1.108-.892-2-2-2h-2zm0 2.502V9c0 .101-.006.2-.016.299.01.066.016.133.016.201v.5h-.174a2.98 2.98 0 0 1-.592 1H13v2H8v-1H7v1c0 .554.446 1 1 1h5c.554 0 1-.446 1-1v-2c0-.554-.446-1-1-1v-.5c0-.82-.393-1.543-1-1.998z" style="fill:#363636;stroke:none;stroke-linecap:round;stroke-linejoin:round;paint-order:stroke fill markers;stop-color:#000"/><path d="M2 0C.892 0 0 .892 0 2v7c0 1.108.892 2 2 2h7c1.108 0 2-.892 2-2V2c0-1.108-.892-2-2-2Zm0 1h7c.554 0 1 .446 1 1v7c0 .554-.446 1-1 1H2c-.554 0-1-.446-1-1V2c0-.554.446-1 1-1Z" style="fill:#363636;stroke:none;stroke-linecap:round;stroke-linejoin:round;paint-order:stroke fill markers;stop-color:#000"/></svg>