<svg width="16" height="16" version="1.1" xmlns="http://www.w3.org/2000/svg">
 <path d="M 10.5,2 A 3.5,3.5 0 0 0 7,5.5 3.5,3.5 0 0 0 10.5,9 3.5,3.5 0 0 0 14,5.5 3.5,3.5 0 0 0 10.5,2 Z m 0,1 A 2.5,2.5 0 0 1 13,5.5 2.5,2.5 0 0 1 10.5,8 2.5,2.5 0 0 1 8,5.5 2.5,2.5 0 0 1 10.5,3 Z" fill="#363636" opacity=".5" stop-color="#000000" stroke-linecap="round" stroke-linejoin="round" style="paint-order:stroke fill markers"/>
 <path d="m2 7v7h9v-4.039c-0.16581 0.022284-0.33274 0.035305-0.5 0.039-0.12057-0.0021604-0.241-0.009166-0.361-0.021-0.046403-0.0039471-0.092742-0.0086144-0.139-0.014v6e-3c-1.3511-0.15336-2.5605-0.90947-3.29-2.057-0.0067189-0.011637-0.013386-0.023304-0.02-0.035-0.072886-0.11783-0.14029-0.23895-0.202-0.363-0.016046-0.031813-0.031714-0.063815-0.047-0.096-0.050404-0.10878-0.096441-0.21954-0.138-0.332-0.011975-0.02921-0.023642-0.058545-0.035-0.088zm1 1h2.605c0.85799 1.6797 2.5168 2.8025 4.395 2.975v2.025h-7z" fill="#363636" opacity=".5" stop-color="#000000" stroke-linecap="round" stroke-linejoin="round" style="paint-order:stroke fill markers"/>
 <path d="m2 0c-1.108 0-2 0.892-2 2v1h1v-1c0-0.554 0.446-1 1-1h1v-1zm2 0v1h2v-1zm3 0v1h2v-1zm3 0v1h2v-1zm3 0v1h1c0.554 0 1 0.446 1 1v1h1v-1c0-1.108-0.892-2-2-2zm-13 4v2h1v-2zm15 0v2h1v-2zm-15 3v2h1v-2zm15 0v2h1v-2zm-15 3v2h1v-2zm15 0v2h1v-2zm-15 3v1c0 1.108 0.892 2 2 2h1v-1h-1c-0.554 0-1-0.446-1-1v-1zm15 0v1c0 0.554-0.446 1-1 1h-1v1h1c1.108 0 2-0.892 2-2v-1zm-11 2v1h2v-1zm3 0v1h2v-1zm3 0v1h2v-1z" fill="#363636" fill-rule="evenodd" opacity=".5" stop-color="#000000" style="paint-order:stroke fill markers"/>
</svg>
