<svg xmlns="http://www.w3.org/2000/svg" width="16" height="16"><path d="M45 707.362h1v1h-1zm2 0h1v1h-1zm2 0h1v1h-1zm2 0h1v1h-1zm2 0h1v1h-1zm2 0h1v1h-1zm2 0h1v1h-1zm2 0h1v1h-1zm-14 2h1v1h-1zm0 2h1v1h-1zm0 2h1v1h-1zm0 2h1v1h-1zm0 2h1v1h-1zm0 2h1v1h-1zm0 2h1v1h-1zm14-12h1v1h-1zm0 2h1v1h-1zm0 2h1v1h-1zm0 2h1v1h-1zm0 2h1v1h-1zm0 2h1v1h-1zm0 2h1v1h-1zm-12 0h1v1h-1zm2 0h1v1h-1zm2 0h1v1h-1zm2 0h1v1h-1zm2 0h1v1h-1zm2 0h1v1h-1z" style="opacity:1;fill:#363636;fill-opacity:1" transform="translate(-45 -707.362)"/><path d="M2 2v11h11V2Zm1 1h9v9H3Z" style="opacity:.999;fill-opacity:1;stroke:none;stroke-width:.831519;stroke-linejoin:round;paint-order:stroke fill markers;fill:#363636"/><path d="M49 711.362h7v7h-7z" style="opacity:.999;fill-opacity:1;stroke:none;stroke-width:.831519;stroke-linejoin:round;paint-order:stroke fill markers;fill:#363636" transform="translate(-45 -707.362)"/></svg>