<svg xmlns="http://www.w3.org/2000/svg" width="16" height="16"><path d="M12 1.969V6H8V5h3V2z" style="fill:#363636;fill-opacity:1"/><path d="M11 0a5 5 0 0 0-5 5 5 5 0 0 0 5 5 5 5 0 0 0 5-5 5 5 0 0 0-5-5zm0 1a4 4 0 0 1 4 4 4 4 0 0 1-4 4 4 4 0 0 1-4-4 4 4 0 0 1 4-4z" style="opacity:1;fill:#363636;stroke-linecap:round;stroke-linejoin:round;paint-order:stroke fill markers;stop-color:#000"/><rect width="6" height="1" x="-7.071" y="7.071" rx="0" ry="0" style="opacity:1;fill:#363636;stroke-width:.866025;stroke-linecap:round;stroke-linejoin:round;paint-order:stroke fill markers;stop-color:#000" transform="rotate(-45)"/><rect width="6" height="1" x="7.071" y="-7.071" rx="0" ry="0" style="opacity:1;fill:#363636;stroke-width:.866025;stroke-linecap:round;stroke-linejoin:round;paint-order:stroke fill markers;stop-color:#000" transform="scale(1 -1) rotate(-45)"/><path d="M1 9.5v1h7.623a6 6 0 0 1-1.588-1H1zm9 1.408V16.5h1V11a6 6 0 0 1-1-.092z" style="opacity:1;fill:#363636;fill-opacity:1;stroke-width:1.05409;stroke-linecap:round;stroke-linejoin:round;paint-order:stroke fill markers;stop-color:#000"/></svg>