<svg width="16" height="16" enable-background="new" version="1.1" xmlns="http://www.w3.org/2000/svg">
 <path transform="rotate(30)" d="m10.608-5.7434 1.61e-4 7.0003-3.999-6.055e-4 -3.955e-4 0.99931 3.999 6.055e-4 1.001-5.81e-4 3.999 6.055e-4 3.95e-4 -0.99932-3.999-6.055e-4 -1.61e-4 -7.0003-1.001 5.811e-4zm-3.9986 9-0.30107 0.39259c-0.74997 0.97866-1.0389 2.2374-0.79162 3.4453l0.0024764 0.012102c0.26292 1.2046 1.0356 2.2367 2.1176 2.8279l0.0072892 0.0048127c0.69102 0.37031 1.4491 0.52992 2.1825 0.5419 0.7285 0.011269 1.4264-0.11815 2.0764-0.32152l-9.76e-4 -0.001692c1.2905-0.40249 2.3901-1.0655 3.4169-1.6638l3.4614-2.0165 0.003383-0.0019531-1.0034-1.7301c-0.001386 7.983e-4 -0.001985 0.0011739-0.003383 0.0019532-0.73137 0.42274-1.3554 0.75421-1.9354 0.8197-0.28624 0.031306-0.52949 0.018943-0.70196-0.032244-0.16596-0.04923-0.28682-0.14589-0.32847-0.20954l-9.76e-4 -0.0016915c-0.033247-0.053586-0.049435-0.11481-0.043913-0.17762l0.001692-9.766e-4c0.007396-0.064788 0.034715-0.12648 0.080628-0.17285l1.6832-1.698-9.9222-0.017837zm0.49237 1.0012 7.0369 0.012515c-0.20539 0.20745-0.33555 0.47646-0.367 0.76668-0.02994 0.29015 0.039693 0.58331 0.19677 0.8291 0.20044 0.31028 0.53189 0.52122 0.88727 0.62665 0.35402 0.10507 0.73211 0.10929 1.0997 0.06875 0.84784-0.09574 1.5916-0.52588 2.3248-0.94983l-3.4647 2.0184c-1.0317 0.60106-2.0705 1.2165-3.2124 1.5727-0.57069 0.17857-1.1625 0.28815-1.7605 0.27893-0.59708-0.0096997-1.1998-0.14178-1.7265-0.42402-0.82828-0.45258-1.4179-1.2418-1.6192-2.1639-0.18931-0.92468 0.03069-1.8869 0.60481-2.636z" fill="#363636" fill-rule="evenodd" stop-color="#000000" style="paint-order:stroke fill markers"/>
</svg>
