<svg xmlns="http://www.w3.org/2000/svg" width="16" height="16"><path d="M0 0h1v1H0Zm2 0h1v1H2Zm2 0h1v1H4Zm2 0h1v1H6Zm2 0h1v1H8Zm2 0h1v1h-1zm2 0h1v1h-1zm2 0h1v1h-1zM0 2h1v1H0Zm0 2h1v1H0Zm0 2h1v1H0Zm0 2h1v1H0Zm0 2h1v1H0Zm0 2h1v1H0Zm0 2h1v1H0ZM14 2h1v1h-1zm0 2h1v1h-1zm0 2h1v1h-1zm0 2h1v1h-1zm0 2h1v1h-1zm0 2h1v1h-1zm0 2h1v1h-1zM2 14h1v1H2Zm2 0h1v1H4Zm2 0h1v1H6Zm2 0h1v1H8Zm2 0h1v1h-1zm2 0h1v1h-1z" style="opacity:.5;fill:#363636;fill-opacity:1"/><path d="M9.5 2A3.5 3.5 0 0 0 6 5.5 3.5 3.5 0 0 0 9.5 9 3.5 3.5 0 0 0 13 5.5 3.5 3.5 0 0 0 9.5 2zm0 1A2.5 2.5 0 0 1 12 5.5 2.5 2.5 0 0 1 9.5 8 2.5 2.5 0 0 1 7 5.5 2.5 2.5 0 0 1 9.5 3z" style="fill:#363636;stroke-linecap:round;stroke-linejoin:round;paint-order:stroke fill markers;stop-color:#000;opacity:.5"/><path d="M2 7v6h8V9.961a4.5 4.5 0 0 1-.5.039 4.5 4.5 0 0 1-.361-.021A4.5 4.5 0 0 1 9 9.965v.006a4.5 4.5 0 0 1-3.29-2.057 4.5 4.5 0 0 1-.02-.035 4.5 4.5 0 0 1-.202-.363 4.5 4.5 0 0 1-.047-.096 4.5 4.5 0 0 1-.138-.332A4.5 4.5 0 0 1 5.268 7H2zm1 1h1.605A5.5 5.5 0 0 0 9 10.975V12H3V8z" style="opacity:.5;fill:#363636;fill-opacity:1;stroke-linecap:round;stroke-linejoin:round;paint-order:stroke fill markers;stop-color:#000"/></svg>