<svg xmlns="http://www.w3.org/2000/svg" width="16" height="16"><path d="M45 707.362h1v1h-1zm2 0h1v1h-1zm2 0h1v1h-1zm2 0h1v1h-1zm2 0h1v1h-1zm2 0h1v1h-1zm2 0h1v1h-1zm2 0h1v1h-1zm-14 2h1v1h-1zm0 2h1v1h-1zm0 2h1v1h-1zm0 2h1v1h-1zm0 2h1v1h-1zm0 2h1v1h-1zm0 2h1v1h-1zm14-12h1v1h-1zm0 2h1v1h-1zm0 2h1v1h-1zm0 2h1v1h-1zm0 2h1v1h-1zm0 2h1v1h-1zm0 2h1v1h-1zm-12 0h1v1h-1zm2 0h1v1h-1zm2 0h1v1h-1zm2 0h1v1h-1zm2 0h1v1h-1zm2 0h1v1h-1z" style="opacity:1;fill:#363636;fill-opacity:1" transform="translate(-45 -707.362)"/><path d="M2 2v11h11V2Zm2 2h7v7H4Z" style="opacity:.5;fill-opacity:1;stroke:none;stroke-width:.831519;stroke-linejoin:round;paint-order:stroke fill markers;fill:#363636"/><path d="M47 713.362h2v3h-2zm9 0h2v3h-2z" style="opacity:.999;fill-opacity:1;stroke:none;stroke-width:.831519;stroke-linejoin:round;paint-order:stroke fill markers;fill:#363636" transform="translate(-45 -707.362)"/><path d="M51 709.362h3v2h-3zm0 9h3v2h-3z" style="opacity:.999;fill-opacity:1;stroke:none;stroke-width:.83152;stroke-linejoin:round;paint-order:stroke fill markers;fill:#363636" transform="translate(-45 -707.362)"/><path d="M47 718.362h2v2h-2zm0-9h2v2h-2zm9 0h2v2h-2zm0 9h2v2h-2z" style="opacity:.999;fill-opacity:1;stroke:none;stroke-width:.831519;stroke-linejoin:round;paint-order:stroke fill markers;fill:#363636" transform="translate(-45 -707.362)"/></svg>