<svg xmlns="http://www.w3.org/2000/svg" width="16" height="16"><path d="M45 707.362h1v1h-1zm2 0h1v1h-1zm2 0h1v1h-1zm2 0h1v1h-1zm2 0h1v1h-1zm2 0h1v1h-1zm2 0h1v1h-1zm2 0h1v1h-1zm-14 2h1v1h-1zm0 2h1v1h-1zm0 2h1v1h-1zm0 2h1v1h-1zm0 2h1v1h-1zm0 2h1v1h-1zm0 2h1v1h-1zm14-12h1v1h-1zm0 2h1v1h-1zm0 2h1v1h-1zm0 2h1v1h-1zm0 2h1v1h-1zm0 2h1v1h-1zm0 2h1v1h-1zm-12 0h1v1h-1zm2 0h1v1h-1zm2 0h1v1h-1zm2 0h1v1h-1zm2 0h1v1h-1zm2 0h1v1h-1z" class="base" style="opacity:1;fill:#363636;fill-opacity:1" transform="translate(-45 -707.362)"/><path d="M48 710.362h9v9h-9z" class="error" style="paint-order:stroke fill markers;stroke-linejoin:round;stroke-width:.831519;stroke:none;fill-opacity:1;opacity:1;fill:#363636" transform="translate(-45 -707.362)"/></svg>