<svg xmlns="http://www.w3.org/2000/svg" width="16" height="16"><path fill="#363636" d="M3 1c-1.108 0-2 .892-2 2v11c0 1.108.892 2 2 2h10c1.108 0 2-.892 2-2V3c0-1.108-.892-2-2-2h-2v1l-.002.033H13c.554 0 1 .446 1 1v10.934c0 .554-.446 1-1 1H3c-.554 0-1-.446-1-1V3.033c0-.554.446-1 1-1h2.002L5 2V1H3z"/><path fill="#363636" d="M6 0c-.554 0-1 .446-1 1v1c0 .554.446 1 1 1h4c.554 0 1-.446 1-1V1c0-.554-.446-1-1-1Zm0 1h4v1H6Z"/><path d="M5 4c-.554 0-1 .446-1 1v7c0 .554.446 1 1 1h4l3-3V5c0-.554-.446-1-1-1H5zm0 1h6v4H9c-.554 0-1 .446-1 1v2H5V5zm4 5h1.586L9 11.586V10z" style="fill:#363636;stroke-linecap:round;stroke-linejoin:round;paint-order:stroke fill markers;stop-color:#000"/></svg>