<svg xmlns="http://www.w3.org/2000/svg" width="16" height="16"><path fill="#363636" d="M3 1c-1.108 0-2 .892-2 2v11c0 1.108.892 2 2 2h10c1.108 0 2-.892 2-2V3c0-1.108-.892-2-2-2h-2v1l-.002.033H13c.554 0 1 .446 1 1v10.934c0 .554-.446 1-1 1H3c-.554 0-1-.446-1-1V3.033c0-.554.446-1 1-1h2.002L5 2V1H3z"/><path fill="#363636" d="M6 0c-.554 0-1 .446-1 1v1c0 .554.446 1 1 1h4c.554 0 1-.446 1-1V1c0-.554-.446-1-1-1zm0 1h4v1H6z"/><path d="m53.07 571.362-.707.707-2.12 2.121.706.707 1.621-1.62v6.171l-1.62-1.621-.708.707 2.121 2.121.707.707.707-.707 2.121-2.121-.707-.707-1.62 1.621v-6.172l1.62 1.621.707-.707z" style="fill:#363636;fill-opacity:1;stroke-width:.999998;stroke-linecap:round;stroke-linejoin:round;paint-order:stroke fill markers;stop-color:#000" transform="translate(-45.07 -567.364)"/></svg>