<svg xmlns="http://www.w3.org/2000/svg" width="16" height="16"><path d="M4.965 1.336a1.5 1.5 0 0 0-1.45 1.113c-.596.119-1.102.385-1.46.836-.728.915-.583 2.25.062 3.611a1.5 1.5 0 0 0-.412 1.034 1.5 1.5 0 0 0 1.5 1.5 1.5 1.5 0 0 0 .565-.112c.547.62 1.168 1.23 1.884 1.8.489.388.987.723 1.485 1.03a1.5 1.5 0 0 0-.03.295 1.5 1.5 0 0 0 1.5 1.5 1.5 1.5 0 0 0 1.164-.556c.24.077.484.163.715.217 1.503.345 2.87.188 3.61-.743.488-.613.58-1.417.398-2.29a1.5 1.5 0 0 0 .77-1.311 1.5 1.5 0 0 0-1.5-1.5 1.5 1.5 0 0 0-.557.11 13.437 13.437 0 0 0-1.967-2.186 1.5 1.5 0 0 0 .244-.819 1.5 1.5 0 0 0-1.5-1.5A1.5 1.5 0 0 0 8.84 3.9a12.014 12.014 0 0 0-2.377-1.115 1.5 1.5 0 0 0-1.498-1.45zm0 1c.28 0 .488.202.498.482l.004.139-.067.121a.495.495 0 0 1-.435.258.49.49 0 0 1-.477-.354l-.043-.138.037-.137a.491.491 0 0 1 .483-.371zm-1.434.937a1.5 1.5 0 0 0 1.434 1.063 1.5 1.5 0 0 0 1.31-.772c.71.242 1.464.601 2.23 1.067a1.5 1.5 0 0 0-.019.234 1.5 1.5 0 0 0 1.5 1.5 1.5 1.5 0 0 0 .65-.148c.776.693 1.43 1.42 1.934 2.137a1.5 1.5 0 0 0-.304.906 1.5 1.5 0 0 0 1.433 1.498c.133.674.066 1.238-.228 1.607-.46.577-1.456.769-2.805.46-.182-.042-.38-.115-.57-.175v-.002a1.5 1.5 0 0 0 .013-.205 1.5 1.5 0 0 0-1.5-1.5 1.5 1.5 0 0 0-1.107.49 14.142 14.142 0 0 1-1.348-.943 14.026 14.026 0 0 1-1.748-1.662 1.5 1.5 0 0 0 .3-.898 1.5 1.5 0 0 0-1.5-1.5 1.5 1.5 0 0 0-.395.052c-.54-1.179-.573-2.144-.131-2.699.192-.242.484-.411.851-.51zm6.455 1.092c.288 0 .5.212.5.5a.496.496 0 0 1-.082.272l-.078.12-.123.06a.5.5 0 0 1-.217.048.486.486 0 0 1-.494-.574l.024-.14.09-.108a.499.499 0 0 1 .38-.178zM3.206 7.43c.287 0 .5.212.5.5a.497.497 0 0 1-.1.299l-.083.109-.132.055a.497.497 0 0 1-.186.037.486.486 0 0 1-.5-.5c0-.129.048-.253.137-.346l.094-.1.138-.037a.495.495 0 0 1 .131-.017zm10.56 1.33c.288 0 .5.212.5.5a.496.496 0 0 1-.256.437l-.123.069-.143-.006a.488.488 0 0 1-.478-.5.5.5 0 0 1 .101-.303l.08-.105.137-.055a.5.5 0 0 1 .182-.037zm-5.157 3.183c.288 0 .5.212.5.5v.002c0 .023 0 .046-.004.069l-.005.039v.006l-.012.086-.092.113a.499.499 0 0 1-.387.185.486.486 0 0 1-.5-.5c0-.033.004-.065.01-.097l.027-.133.096-.106a.498.498 0 0 1 .367-.164z" style="opacity:1;fill:#363636;fill-opacity:1"/></svg>