<svg width="16px" height="16px" version="1.1" viewBox="0 0 16 16" xmlns="http://www.w3.org/2000/svg">
 <path d="m2.9883 0c-1.6555 0-2.9883 1.3328-2.9883 2.9883v10.023c0 1.6555 1.3328 2.9883 2.9883 2.9883h10.023c1.6555 0 2.9883-1.3328 2.9883-2.9883v-10.023c0-1.6555-1.3328-2.9883-2.9883-2.9883h-10.023zm3.5117 3h6c0.277 0 0.5 0.223 0.5 0.5v6c0 0.277-0.223 0.5-0.5 0.5s-0.5-0.223-0.5-0.5v-4.793l-8.1465 8.1465c-0.19587 0.19587-0.51116 0.19587-0.70703 0-0.19587-0.19587-0.19587-0.51116 0-0.70703l8.1465-8.1465h-4.793c-0.277 0-0.5-0.223-0.5-0.5s0.223-0.5 0.5-0.5z" fill="#363636"/>
</svg>
