<svg width="16px" height="16px" version="1.1" viewBox="0 0 16 16" xmlns="http://www.w3.org/2000/svg">
 <path d="m2.9883 0c-1.6555 0-2.9883 1.3328-2.9883 2.9883v10.023c0 1.6555 1.3328 2.9883 2.9883 2.9883h10.023c1.6555 0 2.9883-1.3328 2.9883-2.9883v-10.023c0-1.6555-1.3328-2.9883-2.9883-2.9883h-10.023zm5.0117 3c1.662 0 3 1.338 3 3v1h0.033203c0.53585 0 0.9668 0.43096 0.9668 0.9668v3.0664c0 0.53585-0.43096 0.9668-0.9668 0.9668h-6.0664c-0.53585 0-0.9668-0.43096-0.9668-0.9668v-3.0664c0-0.53585 0.43096-0.9668 0.9668-0.9668h0.033203v-1c0-1.662 1.338-3 3-3zm0 1c-1.108 0-2 0.892-2 2v1h4v-1c0-1.108-0.892-2-2-2zm-3 4v3h6v-3h-6z" fill="#363636"/>
</svg>
