<svg xmlns="http://www.w3.org/2000/svg" width="16" height="16"><path d="m14.725.568-1.444 1.444a3.005 3.005 0 0 0-3.86.324L7.746 4.012a4.07 4.07 0 0 1 1.291.123l1.093-1.092a1.981 1.981 0 0 1 2.43-.31l-.662.663a.5.5 0 0 0 .707.707l.663-.663a1.98 1.98 0 0 1-.31 2.431l-1.685 1.685c.14.374.225.764.256 1.159l2.136-2.137a3.005 3.005 0 0 0 .324-3.859l1.444-1.444ZM4.472 7.285 2.336 9.422a3.005 3.005 0 0 0-.324 3.859L.568 14.725l.707.707 1.444-1.444a3.007 3.007 0 0 0 3.86-.324l1.676-1.676a4.065 4.065 0 0 1-1.291-.123L5.87 12.957a1.981 1.981 0 0 1-2.43.31l.662-.663a.5.5 0 0 0-.707-.707l-.663.663a1.981 1.981 0 0 1 .31-2.431l1.685-1.685a4.28 4.28 0 0 1-.256-1.159Z" style="color:#000;fill-rule:evenodd;stroke-linecap:round;stroke-linejoin:round;-inkscape-stroke:none;fill:#363636;fill-opacity:1"/></svg>