<svg xmlns="http://www.w3.org/2000/svg" width="16" height="16"><path d="M12.554.443a.726.726 0 0 0-.721.723c0 .396.325.722.721.722a.726.726 0 0 0 .723-.722.728.728 0 0 0-.723-.723zm-6.835.768a.725.725 0 0 0-.722.721c0 .396.326.724.722.724a.728.728 0 0 0 .723-.724.726.726 0 0 0-.723-.721zm4.23.618c-1.41.068-2.584.874-3.646 1.745-.927.76-1.781 1.573-2.606 2.048h-.595a.486.486 0 0 0-.481.482V7.59c0 .116.045.222.115.306l-.031.073c-.336.744-.746 1.55-.887 2.358-.146.771-.076 1.486.185 2.242a.24.24 0 0 0 .002.004c.337.926 1.05 1.56 1.207 2.16a.24.24 0 0 0 .248.178c1.679-.116 4.391-.105 5.958-.094a.24.24 0 0 0 .003 0c.624 0 1.16-.01 1.786-.023.7-.011 1.42-.003 2.16.035a.24.24 0 0 0 .221-.362c-.565-.964-.93-1.623-1.128-2.25a.24.24 0 0 0 0-.005 5.311 5.311 0 0 1-.26-2.037v-.005a9.58 9.58 0 0 1 .515-2.426 7.51 7.51 0 0 1 .206-.505h1.212a.486.486 0 0 0 .482-.481V5.272a.486.486 0 0 0-.482-.482h-.514c-.297-.54-.633-1.167-1.108-1.74a.24.24 0 0 0-.003-.005.24.24 0 0 0-.032-.051.24.24 0 0 0-.003-.004.24.24 0 0 0-.004-.003c-.649-.746-1.554-1.202-2.518-1.16a.24.24 0 0 0-.003 0zm.022.48c.798-.034 1.564.344 2.132.993a.24.24 0 0 0 .002.003l.003.003c.397.464.689.988.96 1.487h-.393a.486.486 0 0 0-.481.481v1.486c0 .173.096.326.236.411-.06.135-.117.272-.167.413a9.993 9.993 0 0 0-.544 2.557.24.24 0 0 0 0 .003 5.81 5.81 0 0 0 .284 2.22c.186.586.557 1.232.987 1.979a33.905 33.905 0 0 0-1.792-.029c-.625.014-1.158.023-1.776.022-1.53-.011-4.125-.015-5.845.094-.269-.726-.86-1.312-1.118-2.019-.24-.696-.299-1.304-.166-1.997a.24.24 0 0 0 0-.004c.122-.702.51-1.485.852-2.242.015-.032.027-.064.04-.096h1.378a.486.486 0 0 0 .482-.482V6.107a.486.486 0 0 0-.482-.482h-.018c.69-.487 1.364-1.101 2.065-1.677 1.04-.852 2.126-1.576 3.362-1.636Zm2.702 2.966h1.46V6.76h-1.46Zm-9.57.83h1.459V7.59h-1.46Z" style="opacity:1;fill:#363636;fill-opacity:1"/><path d="M12.753 1.579a.245.245 0 0 0-.026.002.245.245 0 0 0-.047.011.245.245 0 0 0-.043.022.245.245 0 0 0-.022.014.245.245 0 0 0-.036.033.245.245 0 0 0-.027.04.245.245 0 0 0-.013.021.245.245 0 0 0-.009.022.245.245 0 0 0-.006.025.245.245 0 0 0-.005.072.245.245 0 0 0 .003.028l.649 3.182a.245.245 0 0 0 .014.047.245.245 0 0 0 .011.022.245.245 0 0 0 .015.02.245.245 0 0 0 .014.02.245.245 0 0 0 .078.06.245.245 0 0 0 .021.009.245.245 0 0 0 .024.007.245.245 0 0 0 .023.005.245.245 0 0 0 .026.003.245.245 0 0 0 .072-.005.245.245 0 0 0 .067-.03.245.245 0 0 0 .022-.012.245.245 0 0 0 .063-.074.245.245 0 0 0 .013-.022.245.245 0 0 0 .009-.021.245.245 0 0 0 .007-.125l-.648-3.183a.245.245 0 0 0-.008-.024.245.245 0 0 0-.033-.065.245.245 0 0 0-.092-.079.245.245 0 0 0-.117-.023zm-7.376.698a.245.245 0 0 0-.096.018.245.245 0 0 0-.022.011.245.245 0 0 0-.022.013.245.245 0 0 0-.017.014.245.245 0 0 0-.035.037.245.245 0 0 0-.014.017.245.245 0 0 0-.013.022.245.245 0 0 0-.003.004l-1.606 3.3a.245.245 0 0 0-.009.024.245.245 0 0 0-.008.022.245.245 0 0 0-.007.049.245.245 0 0 0 .016.095.245.245 0 0 0 .011.024.245.245 0 0 0 .01.022.245.245 0 0 0 .032.037.245.245 0 0 0 .017.017.245.245 0 0 0 .018.016.245.245 0 0 0 .044.023.245.245 0 0 0 .047.015.245.245 0 0 0 .072.004.245.245 0 0 0 .025-.003.245.245 0 0 0 .024-.008.245.245 0 0 0 .045-.018.245.245 0 0 0 .02-.012.245.245 0 0 0 .083-.095l1.606-3.3a.245.245 0 0 0 .009-.021.245.245 0 0 0 .008-.024.245.245 0 0 0 .006-.074.245.245 0 0 0-.003-.024.245.245 0 0 0-.006-.024.245.245 0 0 0-.009-.023.245.245 0 0 0-.01-.024.245.245 0 0 0-.011-.02.245.245 0 0 0-.015-.02.245.245 0 0 0-.034-.036.245.245 0 0 0-.04-.028.245.245 0 0 0-.021-.011.245.245 0 0 0-.047-.015.245.245 0 0 0-.049-.006zm3.808.287C8.398 3.81 7.434 5.727 6.868 6.628l-2.18.61v.486c0 .136-.11.245-.245.245h-.61L5.71 9.746 4.24 14.67l3.365-2.416 2.415 2.404-.087-3.972 2.148-2.265L9.478 7.21c-.003-1.66-.03-3.216-.293-4.645Z" style="opacity:.3;fill:#363636;fill-opacity:1"/></svg>