<svg width="16" height="16" version="1.1" xmlns="http://www.w3.org/2000/svg">
 <path d="m8 0a8 8 0 0 0-8 8 8 8 0 0 0 8 8 8 8 0 0 0 8-8 8 8 0 0 0-8-8zm-0.09375 1a7 7 0 0 1 0.09375 0 7 7 0 0 1 7 7 7 7 0 0 1-7 7 7 7 0 0 1-7-7 7 7 0 0 1 6.9062-7z" fill="#363636" stroke-linecap="round" stroke-linejoin="round" stroke-width="2"/>
 <rect transform="rotate(-45)" x="-2.5527" y="11.928" width="7" height="1" fill="#363636" stop-color="#000000" stroke-linecap="round" stroke-linejoin="round" stroke-width="3.9686" style="paint-order:fill markers stroke"/>
 <rect transform="matrix(-.70711 -.70711 -.70711 .70711 0 0)" x="-12.928" y="1.5527" width="4" height="1" fill="#363636" stop-color="#000000" stroke-linecap="round" stroke-linejoin="round" stroke-width="3" style="paint-order:fill markers stroke"/>
</svg>
