<svg width="16px" height="16px" version="1.1" viewBox="0 0 16 16" xmlns="http://www.w3.org/2000/svg">
 <path d="m11.5 1a3.5 3.5 0 0 0-3.5 3.5 3.5 3.5 0 0 0 3.5 3.5 3.5 3.5 0 0 0 3.5-3.5 3.5 3.5 0 0 0-3.5-3.5zm-0.015625 1a2.4854 2.4854 0 0 1 2.4863 2.4844 2.4854 2.4854 0 0 1-2.4863 2.4863 2.4854 2.4854 0 0 1-2.4844-2.4863 2.4854 2.4854 0 0 1 2.4844-2.4844z" fill="#363636" stop-color="#000000" stroke-linecap="round" stroke-linejoin="round" stroke-width="3" style="paint-order:fill markers stroke"/>
 <rect x="1" y="4" width="6" height="1" rx=".5" ry=".5" fill="#363636" opacity=".35" stop-color="#000000" stroke-linecap="round" stroke-linejoin="round" stroke-width="3" style="paint-order:fill markers stroke"/>
 <path d="m4.5 8a3.5 3.5 0 0 0-3.5 3.5 3.5 3.5 0 0 0 3.5 3.5 3.5 3.5 0 0 0 3.5-3.5 3.5 3.5 0 0 0-3.5-3.5zm-0.015625 1a2.4852 2.4852 0 0 1 2.4863 2.4844 2.4852 2.4852 0 0 1-2.4863 2.4863 2.4852 2.4852 0 0 1-2.4844-2.4863 2.4852 2.4852 0 0 1 2.4844-2.4844z" fill="#363636" stop-color="#000000" stroke-linecap="round" stroke-linejoin="round" stroke-width="3" style="paint-order:fill markers stroke"/>
 <rect x="7" y="11" width="8" height="1" rx=".5" ry=".5" fill="#363636" stop-color="#000000" stroke-linecap="round" stroke-linejoin="round" stroke-width="3" style="paint-order:fill markers stroke"/>
</svg>
