<svg width="16" height="16" version="1.1" xmlns="http://www.w3.org/2000/svg">
 <title>Gnome Symbolic Icon Theme</title>
 <g transform="translate(20)" fill="#241f31" aria-label="∞">
  <path d="m-14.52 10.488c1.14 0 1.836-0.66 2.388-1.44 0.504 0.78 1.176 1.44 2.388 1.44 1.572 0 2.628-1.068 2.628-2.64 0-1.488-0.972-2.472-2.376-2.472-1.104 0-1.8 0.624-2.352 1.356-0.48-0.732-1.14-1.356-2.352-1.356-1.596 0-2.688 1.056-2.688 2.64 0 1.476 0.972 2.472 2.364 2.472zm-0.804-2.58c0-0.744 0.396-1.236 1.056-1.236 0.744 0 1.152 0.624 1.56 1.38-0.42 0.636-0.864 1.14-1.524 1.14-0.672 0-1.092-0.516-1.092-1.284zm5.544-1.236c0.648 0 1.104 0.492 1.104 1.32 0 0.72-0.36 1.2-1.02 1.2-0.78 0-1.176-0.672-1.572-1.452 0.408-0.6 0.852-1.068 1.488-1.068z" fill="#363636"/>
 </g>
 <path d="m4 1c-1.662 0-3 1.338-3 3v8c0 1.662 1.338 3 3 3h8c1.662 0 3-1.338 3-3v-8c0-1.662-1.338-3-3-3zm0 1h8c1.108 0 2 0.892 2 2v8c0 1.108-0.892 2-2 2h-8c-1.108 0-2-0.892-2-2v-8c0-1.108 0.892-2 2-2z" fill="#363636" stroke-linecap="round" stroke-linejoin="round" stroke-width="8" style="paint-order:stroke fill markers"/>
</svg>
