<svg xmlns="http://www.w3.org/2000/svg" width="16" height="16"><path d="m9.07 21.72-1.356.076.038-1.24 1.085-.038Zm-2.288-1.357-.503 1.123-1.2-.619.697-1.046Zm4.07-.697.813.969-1.276.734-.465-1.163zm-5.89-.542-.93.814-.813-1.085 1.085-.62ZM13.486 18v3.526L9.961 18ZM3.84 16.14l.117 1.123-1.201.193-.156-1.354Zm9.88.851-1.24-.116.038-1.122 1.202-.117zm-.273-2.674-1.201.349-.464-.89.969-.774zm-2.75-3.058 1.123.774-.774.93-.93-.58zm-7.748-.272 3.526 3.526H2.948Zm4.03 1.124-1.047.465-.581-1.085 1.24-.542zm2.44-1.317-.272 1.24-1.084-.116-.117-1.202Z" style="opacity:1;fill:#363636;fill-opacity:1;stroke-width:1" transform="matrix(.6658 0 0 .66667 .02 0)"/><path d="M4.472 1.5c-.831 0-1.5.669-1.5 1.5v4.5c0 .831.669 1.5 1.5 1.5h4.511c.831 0 1.5-.669 1.5-1.5V3c0-.831-.669-1.5-1.5-1.5H4.472zM4.475 3H8.98v4.5H4.475V3zm9.011 1.5V6h1.502a3.002 3.002 44.963 0 1 3.004 3h-2.404l3.19 3 2.995-3h-2.279a4.503 4.503 44.963 0 0-4.506-4.5Zm1.502 0V2.1l-3.004 3.186 3.004 2.99V6m1.499 7.5c-.83 0-1.499.669-1.499 1.5v4.5c0 .831.668 1.5 1.5 1.5h4.511c.831 0 1.5-.669 1.5-1.5V15c0-.831-.669-1.5-1.5-1.5zm.003 1.5h4.506v4.5H16.49z" style="fill:#363636;fill-opacity:1;stroke:none;stroke-width:.150097;stroke-dasharray:10.4453,20.8905,31.3358,41.7811,52.2263,62.6716,73.1168,83.5621;stop-color:#1c1c1c" transform="matrix(.6658 0 0 .66667 .02 0)"/></svg>