<svg width="16px" height="16px" version="1.1" viewBox="0 0 16 16" xmlns="http://www.w3.org/2000/svg">
 <path d="m8 1c-1.662 0-3 1.338-3 3v2h1v-2c0-1.108 0.892-2 2-2h4c1.108 0 2 0.892 2 2v8c0 1.108-0.892 2-2 2h-4c-1.108 0-2-0.892-2-2v-2h-1v2c0 1.662 1.338 3 3 3h4c1.662 0 3-1.338 3-3v-8c0-1.662-1.338-3-3-3zm-4.6719 3.6699c-0.12781 0-0.25558 0.050503-0.35352 0.14844l-2.8281 2.8281c-0.012242 0.012242-0.022492 0.023992-0.033203 0.037109v0.00195c-0.002618 0.00323-0.00528 0.00649-0.007813 0.00977-0.012407 0.016061-0.022797 0.033241-0.033203 0.050781-0.0020042 0.0033-0.0039353 0.00643-0.0058594 0.00977-0.010481 0.018629-0.021231 0.036614-0.029297 0.056641-0.0020615 0.00512-0.0039636 0.010423-0.0058594 0.015625-0.0080251 0.021141-0.014572 0.042611-0.019531 0.064453-0.0039592 0.01827-0.0078508 0.037673-0.0097656 0.056641-6.441e-5 6.418e-4 6.172e-5 0.00131 0 0.00195v0.00195c-0.00288 0.031209-3e-3 0.06255 0 0.09375v0.00195c0.0019059 0.019638 0.0056713 0.0397 0.0097656 0.058594 0.0062223 0.027764 0.014298 0.055421 0.025391 0.082031 0.0044465 0.010923 0.010446 0.020733 0.015625 0.03125 0.0073555 0.014658 0.014582 0.02892 0.023438 0.042969 0.0084328 0.013558 0.017688 0.02642 0.027344 0.039062 0.003134 0.00408 0.006496 0.00771 0.009766 0.011719v0.00195c0.010444 0.012713 0.021317 0.025223 0.033203 0.037109l2.8281 2.8281c0.19587 0.19587 0.51116 0.19587 0.70703 0s0.19587-0.51116 0-0.70703l-1.9746-1.9746h7.793c0.277 0 0.5-0.223 0.5-0.5s-0.223-0.5-0.5-0.5h-7.793l1.9746-1.9746c0.19587-0.19587 0.19587-0.51116 0-0.70703-0.097934-0.097934-0.22571-0.14844-0.35352-0.14844z" fill="#363636"/>
</svg>
