<svg xmlns="http://www.w3.org/2000/svg" width="16" height="16"><path d="m13.133 1.654-.143.291-.322.047.234.225-.054.32.285-.15.289.15-.057-.32.235-.225-.323-.049zm-.664 1.076a2.764 2.764 0 0 0-1.082.204 2.78 2.78 0 0 0-1.123.865c.175.088.34.193.494.314.23-.277.517-.505.847-.64a2.234 2.234 0 0 1 1.71.021l.232-.533c-.34-.15-.71-.226-1.078-.23Zm1.94.2-.143.29-.323.046.233.228-.055.317.287-.149.287.15-.054-.32.232-.226-.32-.047Zm-5.038.756-.47.689a5 5 0 0 1 1.703 1.162l.47-.69a2.389 2.389 0 0 0-.75-.732 4.317 4.317 0 0 0-.953-.43Zm3.902.115-.142.293-.322.047.232.226-.055.319.287-.153.288.154-.053-.322.232-.226-.322-.045Z" style="opacity:1;fill:#363636;fill-opacity:1"/><path d="M7 4a5 5 0 0 0-5 5 5 5 0 0 0 5 5 5 5 0 0 0 5-5 5 5 0 0 0-5-5zm0 1a4 4 0 0 1 4 4 4 4 0 0 1-4 4 4 4 0 0 1-4-4 4 4 0 0 1 4-4z" style="fill:#363636;stroke-width:2;stroke-linecap:square;paint-order:stroke fill markers;stop-color:#000"/><path d="M5.652 6.274c.256.243.424.397.62.617.097.11.072.22-.021.286-.46.198-.98.698-1.1.77-.094.066-.202.07-.243.013a5.229 5.229 0 0 1-.493-.681.184.184 0 0 1 .036-.25c.246-.275.774-.661.921-.76.078-.065.224-.053.28.005zm-1.33 1.397.016.01c.114.079.102.296-.027.486-.13.19-.328.282-.443.204-.115-.079-.103-.297.027-.487.123-.18.31-.273.427-.213z" style="opacity:1;fill:#363636;fill-opacity:1"/></svg>