<svg xmlns="http://www.w3.org/2000/svg" width="16" height="16"><path d="M5.628 8.169c-.28-.133-.402-.458-.375-1a3.567 3.567 0 0 1 .466-1.561c.143-.246.14-.245.257-.058.432.693.629 1.73.43 2.263a.622.622 0 0 1-.237.33c-.082.057-.116.067-.262.072-.141.006-.187-.002-.28-.046zm-.486 5.599c-1.984-.142-3.329-1.088-3.075-2.163.167-.709 1.022-1.296 2.243-1.54.51-.1.73-.12 1.351-.12.61.002.898.03 1.36.13.132.03.265.058.295.063l.055.009-.058.003c-.031.002-.16.033-.285.07-1.05.31-1.68.758-1.873 1.336a1.13 1.13 0 0 0 .012.635c.192.556.867 1.031 1.853 1.304.12.033.227.068.237.076.009.009-.08.038-.198.064a6.797 6.797 0 0 1-1.917.133z" style="opacity:.3;fill:#363636;fill-opacity:1"/><path d="M8.894 13.779c-.557-.037-1.417-.15-1.493-.198-.013-.008.087-.051.221-.097 1.51-.512 2.056-1.603 1.252-2.502-.275-.307-.856-.64-1.394-.798l-.131-.039.197-.04c1.293-.264 2.89-.219 4.084.117 1.35.378 2.072 1.075 1.912 1.844-.047.225-.164.423-.372.63-.218.219-.379.33-.714.492-.565.276-1.389.482-2.225.559-.267.025-1.134.045-1.337.032z" style="opacity:.55;fill:#363636;fill-opacity:1"/><path d="M7.926 9.041c-.194-.062-.35-.277-.397-.548a2.823 2.823 0 0 1 .037-.81c.055-.239.143-.49.25-.717.095-.198.275-.492.302-.492.026 0 .206.294.3.492.184.386.283.77.3 1.166.019.467-.093.756-.342.885a.746.746 0 0 1-.45.024z" style="opacity:.7;fill:#363636;stroke-width:.864459;fill-opacity:1"/><path d="M7.053 13.496a4.535 4.535 0 0 1-.822-.308c-.334-.162-.495-.273-.715-.491-.295-.293-.409-.56-.386-.909.043-.674.736-1.234 1.947-1.572.294-.082.32-.079.743.092.887.357 1.377.872 1.419 1.489.046.696-.581 1.344-1.644 1.697-.13.043-.248.078-.263.077a4.507 4.507 0 0 1-.279-.075z" style="opacity:.7;fill:#363636;fill-opacity:1"/><path d="m4.494 3.661-.817-.816-.771.772c-.765.764-.771.771-.731.816.04.044.056.045 1.588.045H5.31Zm-.835 3.21a42.2 42.2 0 0 1-1.166-1.146c-.737-.74-1.105-1.123-1.115-1.164-.041-.17-.047-.162.928-1.14l.913-.914-.149-.15c-.215-.218-.236-.38-.068-.528.062-.054.097-.068.176-.068a.41.41 0 0 1 .159.031c.032.018.657.632 1.389 1.365.912.914 1.335 1.352 1.345 1.394a.282.282 0 0 1-.094.295c-.045.04-.094.084-.107.099-.213.232-1.899 1.913-1.942 1.936a.28.28 0 0 1-.27-.01zM11 9a48.192 48.192 0 0 1-2.53-2.563c-.147-.152-.283-.313-.17-.493.026-.04.793-.826 1.743-1.771 1.88-1.872 1.79-1.792 1.976-1.742a.327.327 0 0 1 .21.168c.032.06.038.208.011.275a2.04 2.04 0 0 1-.227.25l-.212.21.687.687 1.521 1.498s.248.27.248.389a.416.416 0 0 1-.03.158c-.016.03-.27.295-.27.295s-.48.489-1.698 1.695c-.51.509-.952.935-.985.947-.076.029-.221.027-.274-.003zm2.418-3.023.058-.05-1.066-1.068-1.067-1.068-1.118 1.119-1.119 1.119h4.254z" style="opacity:1;fill:#363636;fill-opacity:1"/><path d="M0 0v2h1V1h1V0H0zm3 0v1h2V0H3zm3 0v1h2V0H6zm3 0v1h2V0H9zm3 0v1h1V0h-1zm2 0v1h1v1h1V0h-2zM0 3v2h1V3H0zm15 0v2h1V3h-1zM0 6v2h1V6H0zm15 0v2h1V6h-1zM0 9v2h1V9H0zm15 0v2h1V9h-1zM0 12v1h1v-1H0zm15 0v1h1v-1h-1zM0 14v2h2v-1H1v-1H0zm15 0v1h-1v1h2v-2h-1zM3 15v1h2v-1H3zm3 0v1h2v-1H6zm3 0v1h2v-1H9zm3 0v1h1v-1h-1z" style="fill:#363636;fill-opacity:1"/></svg>