<svg xmlns="http://www.w3.org/2000/svg" width="16" height="16"><path d="M6.016 14.076a8.937 8.937 0 0 1-1.608-.205c-.607-.137-1.138-.346-1.524-.602-.725-.48-.922-1.146-.516-1.741.408-.597 1.459-1.053 2.82-1.225a9.919 9.919 0 0 1 2.074-.033c1.762.164 3.031.773 3.282 1.576a.887.887 0 0 1 .046.313c0 .298-.12.562-.369.819-.574.59-1.74.982-3.235 1.085-.142.01-.845.02-.97.013zm4.405-3.897c-.118-.023-.066.025-1.184-1.088-1.61-1.602-1.535-1.526-1.564-1.587a.436.436 0 0 1-.03-.092c-.006-.036-.01-.038-.043-.043a.377.377 0 0 1-.262-.202c-.025-.052-.028-.066-.028-.152 0-.167-.133-.02 1.47-1.617 2.411-2.403 2.368-2.36 2.428-2.385.266-.112.553.108.503.385-.019.105-.049.145-.284.38l-.218.218.048.035c.026.02.615.603 1.308 1.295 1.428 1.426 1.322 1.309 1.321 1.465 0 .06-.005.096-.022.138-.02.055-.07.106-1.589 1.62-1.668 1.664-1.605 1.605-1.722 1.63a.255.255 0 0 1-.132 0zm2.54-3.329.055-.055-1.122-1.12a140.678 140.678 0 0 1-1.15-1.156l-.029-.035-1.212 1.21-1.213 1.21 2.309.001h2.308l.055-.055zM6.8 9.76a.634.634 0 0 1-.476-.342 1.092 1.092 0 0 1-.059-.148c-.121-.46.105-1.203.525-1.722.042-.053.095-.113.116-.134l.04-.038.07.075a2.6 2.6 0 0 1 .624 1.351c.016.132.007.36-.02.464-.066.269-.234.436-.49.49-.07.015-.254.017-.33.004z" style="opacity:1;fill:#363636;fill-opacity:1"/><path d="M0 0v2h1V1h1V0Zm3 0v1h2V0Zm3 0v1h2V0Zm3 0v1h2V0Zm3 0v1h1V0Zm2 0v1h1v1h1V0ZM0 3v2h1V3Zm15 0v2h1V3ZM0 6v2h1V6Zm15 0v2h1V6ZM0 9v2h1V9Zm15 0v2h1V9ZM0 12v1h1v-1zm15 0v1h1v-1ZM0 14v2h2v-1H1v-1zm15 0v1h-1v1h2v-2ZM3 15v1h2v-1zm3 0v1h2v-1zm3 0v1h2v-1zm3 0v1h1v-1z" style="fill:#363636;fill-opacity:1"/></svg>