<svg width="16px" height="16px" version="1.1" viewBox="0 0 16 16" xmlns="http://www.w3.org/2000/svg">
 <path d="m10 2c-1.7719 0-3.1223 1.0176-4.0566 2.2793-0.81857 1.1054-1.4339 2.4211-2.0703 3.7207h-2.0449c-0.050492-0.15049-0.10153-0.29789-0.15234-0.43945-0.071695-0.19972-0.14234-0.38465-0.21094-0.56055h-1.0762c0.10642 0.2599 0.22188 0.55352 0.3457 0.89844 0.3481 0.96968 0.6949 2.195 0.72461 3.1172l0.052734 1.6367c-0.3066 0.13147-0.58555 0.34822-0.80078 0.65625l-0.62891 0.90625c-0.10937 0.15625-0.12891 0.35938-0.046875 0.52734 0.082032 0.17187 0.24609 0.28906 0.43359 0.30469 0.19141 0.01563 0.375-0.07031 0.48047-0.22656l0.63281-0.90234c0.39453-0.56641 1.2461-0.45703 1.4844 0.19141l0.027344 0.074219c0.48047 1.3203 2.3359 1.3359 2.8398 0.019531l0.039062-0.10156c0.14844-0.39062 0.71094-0.3867 0.85547 0.007813l0.027344 0.074219c0.48437 1.3164 2.3359 1.3203 2.8242 0.007812l0.03125-0.085937c0.14844-0.39062 0.71094-0.39453 0.85937 0l0.03125 0.089843c0.49609 1.3203 2.3555 1.3164 2.8438 0.007813 0.18359-0.46484 0.85547-0.46483 1.0469 0.007813l0.26953 0.64844c0.07031 0.17578 0.23438 0.30078 0.42188 0.32422 0.1875 0.02344 0.375-0.05469 0.48828-0.20703 0.11328-0.14844 0.14062-0.35156 0.066406-0.52344l-0.26562-0.64062c-0.1091-0.27549-0.2743-0.49547-0.47266-0.66016v-4.1523-1-5c-5.5e-5 -0.55226-0.44774-0.99994-1-1h-4zm0 1h4v5h-9.0098c1.2905-2.6316 2.4874-5 5.0098-5zm-0.49609 1.9648c-0.27734 0-0.50391 0.22656-0.50391 0.50391s0.22656 0.50391 0.50391 0.50391h2c0.27734 0 0.50391-0.22656 0.50391-0.50391s-0.22656-0.50391-0.50391-0.50391h-2zm-7.3711 4.0352h11.867v3.7871c-0.62866-0.011122-1.2646 0.33326-1.543 1.0371-0.14844 0.39453-0.71484 0.39453-0.86328 0l-0.03125-0.089844c-0.49609-1.3164-2.3516-1.3164-2.8438 0.003906l-0.03125 0.085938c-0.14453 0.38281-0.69531 0.3828-0.83594-0.003907l-0.027344-0.074218c-0.48437-1.3203-2.3398-1.3359-2.8398-0.023438l-0.039062 0.10547c-0.15234 0.39062-0.71484 0.38671-0.85938-0.007813l-0.027344-0.074218c-0.26299-0.7242-0.88552-1.1469-1.5508-1.2305l-0.048828-1.5312c-0.020621-0.64014-0.1503-1.3256-0.32617-1.9844zm2.8672 1v1h1v-1h-1zm1.9922 0v1h1.0156v-1h-1.0156zm2.0078 0v1h1v-1h-1zm1.9922 0v1h1.0156v-1h-1.0156z" fill="#363636"/>
</svg>
