<svg width="16" height="16" version="1.1" viewBox="0 0 16 16" xmlns="http://www.w3.org/2000/svg">
 <path d="m2.9062 0c-5.2176 0-3.3487 16 5.1152 16 8.3167 0 10.309-16 5.1367-16-1.6188 0-3.5238 1.2241-5.1367 2.9141 3.5918 3.778 5.737 9.8887 0.029297 9.8887-5.7806 0-3.635-6.1108-0.029297-9.8887-1.6071-1.6904-3.5024-2.9141-5.1152-2.9141zm0 1c0.89543 0 2.2396 0.64287 3.5078 1.752 0.083599 0.07312 0.15345 0.17731 0.23633 0.25391-0.78239 0.92428-1.4966 1.9039-2.0332 2.9336-0.89831 1.7238-1.4354 3.5031-1 5.123 0.21768 0.80996 0.73657 1.5602 1.5098 2.0391 0.77319 0.47888 1.7505 0.70117 2.9238 0.70117 1.1617 0 2.1309-0.22151 2.8965-0.70312 0.76567-0.48161 1.2758-1.2362 1.4863-2.0449 0.42112-1.6175-0.11648-3.3925-1.0137-5.1152-0.53576-1.0288-1.248-2.0077-2.0273-2.9316 0.083359-0.07672 0.15412-0.18066 0.23828-0.25391 1.2734-1.1092 2.6254-1.7539 3.5273-1.7539 0.38864 0 0.62216 0.10999 0.88672 0.38281 0.26464 0.27282 0.52319 0.74481 0.69727 1.3809 0.34832 1.2721 0.34616 3.1483-0.070313 5.0176-0.41632 1.8693-1.2369 3.7341-2.373 5.0703-1.1361 1.3362-2.5188 2.1484-4.2773 2.1484-1.8009 0-3.2011-0.8156-4.3438-2.1504-1.1427-1.3348-1.9595-3.1954-2.3672-5.0625-0.40768-1.8671-0.39635-3.7421-0.035156-5.0137 0.18056-0.6358 0.44504-1.1073 0.7168-1.3828 0.27184-0.27548 0.51743-0.39062 0.91406-0.39062z" color="#000000" fill="#363636" fill-rule="evenodd" style="-inkscape-stroke:none;paint-order:stroke fill markers"/>
</svg>
