<svg width="16" height="16" version="1.1" viewBox="0 0 16 16" xmlns="http://www.w3.org/2000/svg">
 <g id="layercompo">
  <path d="m4 1a3 3 0 0 1-3 3v1 6a4 4 0 0 1 0.50391 0.03125 4 4 0 0 1 0.013672 0.001953 4 4 0 0 1 0.46094 0.089844 4 4 0 0 1 2.8965 2.8867 4 4 0 0 1 0.0078125 0.03125 4 4 0 0 1 0.0058594 0.02539 4 4 0 0 1 0.025391 0.10547 4 4 0 0 1 0.0039063 0.019531 4 4 0 0 1 0.0019531 0.013672 4 4 0 0 1 0.0039062 0.013672 4 4 0 0 1 0.021484 0.11719 4 4 0 0 1 0.0019531 0.017578 4 4 0 0 1 0.0019532 0.015625 4 4 0 0 1 0.0019531 0.005859 4 4 0 0 1 0.0039062 0.025391 4 4 0 0 1 0.0097657 0.066406 4 4 0 0 1 0.0039062 0.033203 4 4 0 0 1 0.0039062 0.029297 4 4 0 0 1 0.0078126 0.070312 4 4 0 0 1 0.0019531 0.019532 4 4 0 0 1 0.0039062 0.046875 4 4 0 0 1 0.0019531 0.019531 4 4 0 0 1 0.0019532 0.052734 4 4 0 0 1 0.0039062 0.060547 4 4 0 0 1 0.0019532 0.035156 4 4 0 0 1 0.0039062 0.13281 4 4 0 0 1 0 0.033203h10v-8-1c0-2.77-2.23-5-5-5h-5-1zm0.86719 1h5.1328c2.216 0 4 1.784 4 4v3h0.009766v4.9766h-8.1152a5 5 0 0 0-3.8945-3.875v-5.2344a4 4 0 0 0 2.8672-2.8672z" fill="#363636" fill-rule="evenodd" stroke-linecap="round" stroke-linejoin="round" stroke-width="2" style="paint-order:stroke fill markers"/>
 </g>
</svg>
