<svg width="16" height="16" version="1.1" xmlns="http://www.w3.org/2000/svg">
 <g transform="rotate(45,7.7071,8.7071)" fill="#363636">
  <path d="m2.2214 4.7269a5 5 0 0 0-1.2209 3.2731 5 5 0 0 0 2.4141 4.2703v-0.11325h2.4997v-0.16297a4 4 0 0 1-3.9139-3.994 4 4 0 0 1 3.9996-3.9996 4 4 0 0 1 3.9996 3.9996 4 4 0 0 1-1.0855 2.729v1.3175a5 5 0 0 0 2.0854-4.0465 5 5 0 0 0-4.9995-4.9995 5 5 0 0 0-3.7786 1.7263z"/>
  <rect x="10" y="7.5" width="7" height="1" stroke-width=".93541"/>
 </g>
 <path d="m2.2324 9.5254-0.70703 0.70703 1.7676 1.7676-1.7676 1.7676 0.70703 0.70703 1.7676-1.7676 1.7676 1.7676 0.70703-0.70703-1.7676-1.7676 1.7676-1.7676-0.70703-0.70703-1.7676 1.7676z" color="#000000" fill="#363636" stroke-width="2" style="-inkscape-stroke:none"/>
</svg>
