<svg width="16px" height="16px" version="1.1" viewBox="0 0 16 16" xmlns="http://www.w3.org/2000/svg">
 <path d="m8 0-2 1v0.3418c-2.334 0.82063-4 3.0367-4 5.6582v2h-2v1h16v-1h-2v-2c0-2.6215-1.666-4.8376-4-5.6582v-0.3418l-2-1zm0 2c2.77 0 5 2.23 5 5v2h-10v-2c0-2.77 2.23-5 5-5zm0 1-2 1v2c0 0.5 0.43359 1.0039 1.0547 1.418 0.46484 0.3125 0.73437 0.39453 0.94531 0.47656 0.21094-0.082031 0.48047-0.16406 0.94531-0.47656 0.62109-0.41406 1.0547-0.91797 1.0547-1.418v-2l-2-1zm-5 8c0 2.77 2.23 5 5 5 2.77 0 5-2.23 5-5h-1c0 2.216-1.784 4-4 4-2.216 0-4-1.784-4-4h-1z" fill="#363636"/>
</svg>
