<svg version="1.1" viewBox="0 0 16 16" xmlns="http://www.w3.org/2000/svg">
 <defs>
  <style id="current-color-scheme" type="text/css">.ColorScheme-Text {
        color:#363636;
      }</style>
 </defs>
 <path d="m5.287 1.008c-0.81 0.046-1.691 0.29-2.709 0.763a1 1 0 0 0-0.578 0.907v12.822a0.5 0.5 0 1 0 1 0v-5.18c0.14 0 0.283-0.023 0.422-0.088 2.269-1.055 2.906-0.58 4.156 0 1.25 0.582 3.113 1.27 5.844 0a1 1 0 0 0 0.578-0.906v-6.648a1 1 0 0 0-1.422-0.907c-1.843 0.857-2.583 0.66-3.496 0.292s-2.057-1.155-3.795-1.055zm0.057 0.998c2.825-0.163 3.593 2.56 7.656 0.672v6.65c-5 2.325-5-2.325-10 0v-6.65c0.937-0.436 1.692-0.635 2.344-0.672z" color="#000000" fill="#363636" overflow="visible"/>
</svg>
