<svg width="16" height="16" version="1.1" viewBox="0 0 16 16" xmlns="http://www.w3.org/2000/svg">
 <path d="m5 8a2 2 0 0 0-2 2 2 2 0 0 0 2 2 2 2 0 0 0 2-2 2 2 0 0 0-2-2zm0 1a1 1 0 0 1 1 1 1 1 0 0 1-1 1 1 1 0 0 1-1-1 1 1 0 0 1 1-1z" fill="#363636" fill-rule="evenodd" stroke-width="0" style="paint-order:stroke fill markers"/>
 <path d="m12 5a2 2 0 0 0-2 2 2 2 0 0 0 2 2 2 2 0 0 0 2-2 2 2 0 0 0-2-2zm0 1a1 1 0 0 1 1 1 1 1 0 0 1-1 1 1 1 0 0 1-1-1 1 1 0 0 1 1-1z" fill="#363636" fill-rule="evenodd" stroke-width="0" style="paint-order:stroke fill markers"/>
 <path d="m13.471 6.4238c-0.211 0.0015132-0.42712 0.0054343-0.64453 0.013672a1 1 0 0 1 0.17383 0.5625 1 1 0 0 1-0.10547 0.44531c1.5435-0.049078 3.0801 0.083984 3.0801 0.083984l0.09375-0.99609s-0.76195-0.075915-1.7871-0.10156c-0.25629-0.0064119-0.52921-0.0098301-0.81055-0.0078125zm-2.3887 0.18359c-0.05565 0.0096641-0.11156 0.018693-0.16602 0.029297-1.9005 0.37005-3.8887 1.6135-5.3906 2.5137a1 1 0 0 1 0.47461 0.84961 1 1 0 0 1-0.0019531 0.037109c1.5451-0.91084 3.4899-2.105 5.1074-2.4199 0.031256-0.0060858 0.065699-0.0099006 0.097656-0.015625a1 1 0 0 1-0.20312-0.60156 1 1 0 0 1 0.082031-0.39258zm-7.0742 3.291c-0.64007 0.18776-1.437 0.30461-2.1445 0.35547-1.0171 0.0731-1.8398 0.039063-1.8398 0.039063l-0.042969 0.99805s0.87687 0.036484 1.9551-0.041016c0.797-0.057287 1.7035-0.16285 2.5-0.42578a1 1 0 0 1-0.43555-0.82422 1 1 0 0 1 0.0078125-0.10156z" color="#000000" fill="#363636" style="-inkscape-stroke:none"/>
</svg>
