<svg id="font_collections" width="16" height="16" version="1.1" viewBox="0 0 16 16" xmlns="http://www.w3.org/2000/svg">
 <g fill="#363636">
  <path d="m1 5 1 7h3.8203l1.8379-6.4824 2.7266 0.052734 1.8496 6.4297h1.7656l1-7h-14z" fill-rule="evenodd" opacity=".35" stroke-linecap="round" stroke-width="2" style="paint-order:stroke fill markers"/>
  <path d="m2.0078 0c-0.51709 0-1 0.51791-1 1v2 1c-0.554 0-1.0784 0.45157-1 1l1 7c0.0784 0.54843 0.446 1 1 1h3.8594l0.26172-1h-4.1289l-1-7h14l-1 7h-2.127l0.26172 1h1.873c0.554 0 0.9216-0.45157 1-1l1-7c0.0784-0.54843-0.446-1-1-1v-1c0-0.48621-0.43266-1-1-1h-6l-1-1c-0.82002-0.82002-1-1-2-1h-3zm-0.0078125 1h3s0.66342 0.014056 1.0059 0.41992c0.34244 0.40587 1.5762 1.5801 1.5762 1.5801h6.4258v1h-6.0078-5.9922-0.0078125v-3z"/>
  <path d="m7.2324 5-0.19922 0.74219-2.7461 10.258h3.1035l0.53711-2h2.1445l0.53711 2h3.1035l-2.9453-11zm0.76758 1h2l2.4102 9h-1.0332l-0.53711-2h-3.6797l-0.53711 2h-1.0332zm0.76758 1-1.3398 5h3.1445l-1.3398-5zm0.23242 3 0.26758 1h-0.53516z" color="#000000" fill-rule="evenodd" stroke-linecap="round" style="-inkscape-stroke:none;paint-order:stroke fill markers"/>
 </g>
</svg>
