<svg width="16px" height="16px" version="1.1" viewBox="0 0 16 16" xmlns="http://www.w3.org/2000/svg">
 <path d="m8 0c-4.4062 0-8 3.5938-8 8 0 4.4062 3.5938 8 8 8 4.4062 0 8-3.5938 8-8 0-4.4062-3.5938-8-8-8zm0 1a7 7 0 0 1 7 7 7 7 0 0 1-7 7 7 7 0 0 1-7-7 7 7 0 0 1 7-7z" fill="#363636"/>
 <path d="m11.348 11-0.59375 2.8789 3.5312-3.3008z" fill="#363636"/>
 <path d="m6.1406 11.938-2.5078 0.40625c0.75781 0.9375 1.957 1.5859 3.7539 1.8438z" fill="#363636"/>
 <path d="m2.9141 8.5-1.0625-1.4297 0.066407 2.9297z" fill="#363636"/>
 <path d="m6.6367 3.043 1.2461-1.2734-2.8828 0.52734z" fill="#363636"/>
 <path d="m12.25 5.1953 1.5938 0.80469-1.375-2.5898z" fill="#363636"/>
 <path d="m9.9961 9.4688-2.8086 0.91406-1.7383-2.3945 1.7422-2.3906 2.8086 0.91797z" fill="#363636"/>
</svg>
