<svg width="16px" height="16px" version="1.1" viewBox="0 0 16 16" xmlns="http://www.w3.org/2000/svg">
 <path d="m11.141 0c-1.1841 0.014815-2.3556 0.21932-3.4727 0.5957l-0.0019532-0.0019531-0.0019531 0.0019531c-1.6143 0.54451-3.1135 1.4532-4.3652 2.6992a1.0001 1.0001 0 0 0-0.0039062 0.0039062c-1.2461 1.2518-2.1552 2.7507-2.6992 4.3652l-0.0019531 0.0019531c-0.76478 2.2713-0.80449 4.7716-0.03125 7.1328a1.0001 1.0001 0 0 0 0.63867 0.63867c2.3612 0.77324 4.8615 0.73353 7.1328-0.03125 7.792e-4 -2.62e-4 0.0011739-0.001691 0.0019531-0.001953 1.6146-0.54404 3.1134-1.4531 4.3652-2.6992a1.0001 1.0001 0 0 0 0.003906-0.003906c1.2461-1.2518 2.1552-2.7507 2.6992-4.3652 2.62e-4 -7.792e-4 0.001691-0.0011739 0.001953-0.0019531 0.76478-2.2713 0.80449-4.7716 0.03125-7.1328a1.0001 1.0001 0 0 0-0.63867-0.63867c-1.0102-0.3308-2.0459-0.51456-3.0781-0.55469-0.19354-0.007524-0.38697-0.010229-0.58008-0.0078125zm-0.37695 1.0137a10.312 10.312 0 0 1 3.7246 0.49805 10.312 10.312 0 0 1 0.11914 6.0234l-6.1348-6.1348a10.312 10.312 0 0 1 2.291-0.38672zm-3.3398 0.75195 6.8223 6.8223a10.312 10.312 0 0 1-2.25 3.4082 10.312 10.312 0 0 1-3.4199 2.2383l-6.8105-6.8105a10.312 10.312 0 0 1 2.2383-3.4199 10.312 10.312 0 0 1 3.4199-2.2383zm-6.0234 6.707 6.127 6.127a10.312 10.312 0 0 1-6.0156-0.11133 10.312 10.312 0 0 1-0.11133-6.0156z" color="#000000" fill="#363636" stroke-linecap="round" stroke-linejoin="round" style="-inkscape-stroke:none;paint-order:stroke fill markers"/>
</svg>
