<svg width="16" height="16" version="1.1" xmlns="http://www.w3.org/2000/svg">
 <g transform="translate(-31.976 -220.36)" fill="#363636">
  <path d="m34.999 221.36c-1.108 0-2 0.89202-2 2v10c0 1.108 0.89202 2 2 2h10.002c1.108 0 1.998-0.89202 1.998-2v-10c0-1.108-0.89007-2-1.998-2zm0 1h10c0.554 0 1 0.446 1 1v10c0 0.554-0.446 1-1 1h-10c-0.554 0-1-0.446-1-1v-10c0-0.554 0.446-1 1-1z" opacity=".25"/>
  <path d="m46.386 225.94c-0.0322 7e-3 -0.06361 0.0177-0.09375 0.0312-2.9921 0.66496-6.1759 1.2914-8.3794 2.3643s-3.8457 2.8382-4.4062 5.9375c-0.125 0.66667 0.875 0.85417 1 0.1875 0.51431-2.8437 1.8422-4.2755 3.8438-5.25s5.1363-1.5984 8.1607-2.2705c0.66671-0.0833 0.5417-1.0834-0.125-1z"/>
 </g>
</svg>
