<svg width="16" height="16" version="1.1" viewBox="0 0 16 16" xmlns="http://www.w3.org/2000/svg">
 <path d="m11.28 0.406-0.6875 0.71875 2.4062 2.4062v2.7812l0.1875 0.125 0.8125 0.78125v4.3086c0 0.96245-0.30718 1.5039-0.99414 1.5039-0.61105 0-1.0059-0.47862-1.0059-1.4785l4e-3 -2.084c-1.8e-4 -0.90387-0.57371-1.4688-1.5547-1.4688h-0.44922v-5c0-1.108-0.892-2-2-2h-5c-1.108 0-2 0.892-2 2v11c-0.554 0-1 0.446-1 1h11c0-0.554-0.446-1-1-1v-5h0.41797c0.32421 0 0.58594 0.25268 0.58594 0.46875v2.084c0 1.6661 0.99089 2.4629 1.9961 2.4629 1.2872 0 1.9996-0.80561 2-2.4629v-7.4902l-0.15625-0.15625-3.5625-3.5zm-8.2812 1.5938h5c0.554 0 1 0.446 1 1v4h-7v-4c0-0.554 0.446-1 1-1zm-1 6h7v6h-7z" fill="#363636"/>
</svg>
