<svg width="16px" height="16px" version="1.1" viewBox="0 0 16 16" xmlns="http://www.w3.org/2000/svg">
 <path transform="translate(-620,-200)" d="m625 200c-2.216 0-4 1.784-4 4v7c-0.554 0-1 0.446-1 1v3c0 0.554 0.446 1 1 1h8c0.554 0 1-0.446 1-1v-3c0-0.554-0.446-1-1-1v-5h5c1.0976 0 2-0.90235 2-2s-0.90235-2-2-2h-5.5332c-0.68967-1.1972-1.9804-2-3.4668-2zm0 1c1.662 0 3 1.338 3 3v7h-6v-7c0-1.662 1.338-3 3-3zm3.7578 1.6211c0.022 0.0599 0.0414 0.12042 0.0606 0.18164-0.0189-0.0607-0.0389-0.12223-0.0606-0.18164zm-3.7578 0.37891c-0.55228 0-1 0.44772-1 1s0.44772 1 1 1 1-0.44772 1-1-0.44772-1-1-1zm3.875 0h2.0801l-1.2578 2h-0.69727v-1c0-0.34559-0.0434-0.68056-0.125-1zm3.2598 0h0.9375l-1.3203 2h-0.87304zm2.1133 0.0312c0.43775 0.10731 0.75195 0.49243 0.75195 0.9688 0 0.5625-0.4375 1-1 1h-1.0527zm-13.248 8.9688h8v3h-8z" fill="#363636"/>
</svg>
