<svg width="16" height="16" version="1.1" xmlns="http://www.w3.org/2000/svg">
 <path d="m6.5 0c-0.277 0-0.5 0.223-0.5 0.5s0.223 0.5 0.5 0.5h3.793l-3.8418 3.8418a4 4 0 0 0-2.4512-0.8418 4 4 0 0 0-4 4 4 4 0 0 0 4 4 4 4 0 0 0 0.52148-0.037109 4 4 0 0 1-0.52148 0.037109 4 4 0 0 0 4 4 4 4 0 0 0 4-4 4 4 0 0 0-0.8418-2.4512l3.8418-3.8398v3.791c0 0.277 0.223 0.5 0.5 0.5s0.5-0.223 0.5-0.5v-5c0-0.1385-0.05611-0.26314-0.14648-0.35352-0.0113-0.011297-0.022817-0.02303-0.035157-0.033203-0.01234-0.010173-0.025772-0.018376-0.039062-0.027344-0.079774-0.053806-0.17542-0.085938-0.2793-0.085938h-3.5v-3.5c0-0.1385-0.05611-0.26314-0.14648-0.35352-0.0113-0.011297-0.022817-0.02303-0.035157-0.033203-0.012334-0.010174-0.025766-0.018376-0.039062-0.027344-0.079775-0.053806-0.17542-0.085938-0.2793-0.085938h-5zm4.5 1.709v2.291 1h1 2.293l-3.8418 3.8418a4 4 0 0 0-2.4512-0.8418 4 4 0 0 1-0.037109 0.52148 4 4 0 0 0 0.037109-0.52148 4 4 0 0 0-0.8418-2.4512l3.8418-3.8398zm-7 3.291a3 3 0 0 1 3 3 3 3 0 0 1-3 3 3 3 0 0 1-3-3 3 3 0 0 1 3-3zm4 4a3 3 0 0 1 3 3 3 3 0 0 1-3 3 3 3 0 0 1-3-3 3 3 0 0 1 0.011719-0.13672 4 4 0 0 0 2.8516-2.8516 3 3 0 0 1 0.13672-0.011719z" fill="#363636" opacity=".35" style="paint-order:stroke fill markers"/>
 <rect transform="rotate(45)" x=".31371" y="-.5" width="22" height="1" rx=".5" ry=".5" fill="#363636"/>
</svg>
