<svg xmlns="http://www.w3.org/2000/svg" width="16" height="16"><path d="M2.5 2C1.669 2 1 2.669 1 3.5S1.669 5 2.5 5 4 4.331 4 3.5 3.331 2 2.5 2Zm-.025 1H2.5a.499.499 0 1 1 0 1 .5.5 0 0 1-.025-1Z" style="fill:#363636;stroke-width:2;stroke-linecap:square;paint-order:stroke fill markers;stop-color:#000"/><rect width="8" height="1" x="6" y="3" rx="0" ry="0" style="fill:#363636;stroke-width:2;stroke-linecap:square;paint-order:stroke fill markers;stop-color:#000"/><path d="M2.5 7C1.669 7 1 7.669 1 8.5S1.669 10 2.5 10 4 9.331 4 8.5 3.331 7 2.5 7Zm-.025 1H2.5a.499.499 0 1 1 0 1 .5.5 0 0 1-.025-1Z" style="fill:#363636;stroke-width:2;stroke-linecap:square;paint-order:stroke fill markers;stop-color:#000"/><rect width="8" height="1" x="6" y="8" rx="0" ry="0" style="fill:#363636;stroke-width:2;stroke-linecap:square;paint-order:stroke fill markers;stop-color:#000"/><path d="M2.5 12c-.831 0-1.5.669-1.5 1.5S1.669 15 2.5 15 4 14.331 4 13.5 3.331 12 2.5 12Zm-.025 1H2.5a.499.499 0 1 1 0 1 .5.5 0 0 1-.025-1Z" style="fill:#363636;stroke-width:2;stroke-linecap:square;paint-order:stroke fill markers;stop-color:#000"/><rect width="8" height="1" x="6" y="13" rx="0" ry="0" style="fill:#363636;stroke-width:2;stroke-linecap:square;paint-order:stroke fill markers;stop-color:#000"/></svg>