<svg xmlns="http://www.w3.org/2000/svg" width="16" height="16"><path d="M10.774 3.021c.367-.013.723.097 1.084.13h2.105v.859h-1.152c.618.591.65 1.57.357 2.328-.306.828-1.149 1.342-2.001 1.434-.409.05-.827.053-1.231-.034-.338.15-.618.608-.354.943.299.315.775.292 1.178.296.766.015 1.575-.085 2.282.277.571.27.916.892.907 1.516.039.82-.49 1.574-1.188 1.964-.967.543-2.14.661-3.22.448-.705-.138-1.439-.562-1.65-1.29-.251-.793.12-1.693.807-2.138.175-.085.256-.134.045-.221-.533-.371-.583-1.19-.18-1.676.068-.177.447-.32.391-.426-.72-.417-1.011-1.3-.945-2.094.034-.864.567-1.694 1.37-2.034a3.306 3.306 0 0 1 1.395-.282Zm-.065.834c-.623-.02-1.255.356-1.462.958-.209.587-.143 1.32.302 1.785.455.435 1.17.489 1.746.297.542-.176.884-.725.911-1.279.058-.594-.147-1.28-.707-1.574a1.635 1.635 0 0 0-.79-.187Zm-.927 6.082c-.556.255-.959.894-.797 1.51.15.584.773.858 1.322.92.716.072 1.517-.015 2.085-.496.453-.376.557-1.138.146-1.58-.413-.392-1.012-.329-1.537-.334-.406-.007-.815.018-1.22-.02Z" style="fill-opacity:1;fill-rule:evenodd;stroke:none;fill:#363636;opacity:.5"/><path d="M2 0C.892 0 0 .892 0 2v4h1V2c0-.554.446-1 1-1h12c.554 0 1 .446 1 1v12c0 .554-.446 1-1 1H2c-.554 0-1-.446-1-1v-4H0v4c0 1.108.892 2 2 2h12c1.108 0 2-.892 2-2V2c0-1.108-.892-2-2-2H2z" style="fill:#363636;stroke-width:2;stroke-linecap:square;paint-order:stroke fill markers;stop-color:#000"/><rect width="6" height="1" y="7.5" rx="0" ry="0" style="fill:#363636;stroke-width:2;stroke-linecap:square;paint-order:stroke fill markers;stop-color:#000"/><path d="M5.607.707h5v1h-5z" style="fill:#363636;stroke-width:2;stroke-linecap:square;paint-order:stroke fill markers;stop-color:#000" transform="rotate(45)"/><path d="M-5.707-10.607h5v1h-5z" style="fill:#363636;stroke-width:2;stroke-linecap:square;paint-order:stroke fill markers;stop-color:#000" transform="scale(1 -1) rotate(45)"/></svg>