<svg width="16px" height="16px" version="1.1" viewBox="0 0 16 16" xmlns="http://www.w3.org/2000/svg">
 <path d="m8 2.5c-0.27734 0-0.5 0.22266-0.5 0.5s0.22266 0.5 0.5 0.5 0.5-0.22266 0.5-0.5-0.22266-0.5-0.5-0.5zm-2 1c-0.27734 0-0.5 0.22266-0.5 0.5s0.22266 0.5 0.5 0.5 0.5-0.22266 0.5-0.5-0.22266-0.5-0.5-0.5zm4 0c-0.27734 0-0.5 0.22266-0.5 0.5s0.22266 0.5 0.5 0.5 0.5-0.22266 0.5-0.5-0.22266-0.5-0.5-0.5zm-2 1c-0.27734 0-0.5 0.22266-0.5 0.5s0.22266 0.5 0.5 0.5 0.5-0.22266 0.5-0.5-0.22266-0.5-0.5-0.5zm-2 1c-0.27734 0-0.5 0.22266-0.5 0.5s0.22266 0.5 0.5 0.5 0.5-0.22266 0.5-0.5-0.22266-0.5-0.5-0.5zm4 0c-0.27734 0-0.5 0.22266-0.5 0.5s0.22266 0.5 0.5 0.5 0.5-0.22266 0.5-0.5-0.22266-0.5-0.5-0.5zm-2 1c-0.27734 0-0.5 0.22266-0.5 0.5s0.22266 0.5 0.5 0.5 0.5-0.22266 0.5-0.5-0.22266-0.5-0.5-0.5zm-3 6.5c-0.55469 0-1 0.44531-1 1h1c2 0 2 2 2 2h2s0-2 2-2h1c0-0.55469-0.44531-1-1-1z" fill="#363636"/>
 <path d="m8 0a6 6 0 0 0-6 6 6 6 0 0 0 6 6 6 6 0 0 0 6-6 6 6 0 0 0-6-6zm0 1a5 5 0 0 1 5 5 5 5 0 0 1-5 5 5 5 0 0 1-5-5 5 5 0 0 1 5-5z" fill="#363636" stop-color="#000000" stroke-linecap="square" stroke-width="2" style="paint-order:stroke fill markers"/>
</svg>
