<svg width="16px" height="16px" version="1.1" viewBox="0 0 16 16" xmlns="http://www.w3.org/2000/svg">
 <path d="m14.982 0.5c-0.032715 4.8837e-4 -0.064453 0.0039063-0.095703 0.011719l-5.1797 1.1094c-0.28125-0.39062-0.73438-0.62109-1.2148-0.62109-0.71094 0-1.3203 0.5-1.4648 1.1953l-6.1406 1.3164c-0.26953 0.058593-0.44141 0.32422-0.38281 0.59375 0.058594 0.26953 0.32422 0.44141 0.59375 0.38281l6.0664-1.3008c0.17759 0.34442 0.47725 0.59703 0.82812 0.72266v1.0898h-0.96875c-1.2266 0-2.3828 0.57422-3.125 1.5547l-1.6445 2.168c-0.79297 1.043-0.79688 2.4766-0.0078124 3.5234l1.6523 2.1953c0.74218 0.98047 1.8984 1.5586 3.125 1.5586h2.5469c1.2305 0 2.3867-0.57813 3.125-1.5586l1.6523-2.1953c0.78906-1.0469 0.78515-2.4805-0.003906-3.5234l-1.6445-2.168c-0.74219-0.98047-1.8984-1.5547-3.1289-1.5547h-0.57812v-1.0879c0.55246-0.19694 0.95872-0.70935 0.99219-1.3301l5.1133-1.0938c0.26953-0.058593 0.44141-0.32422 0.38281-0.59375-0.042969-0.19922-0.19922-0.35156-0.39844-0.38672-0.033203-0.005859-0.066894-0.0083009-0.099609-0.0078125zm-6.4902 1.5c0.27734 0 0.5 0.22266 0.5 0.5s-0.22266 0.5-0.5 0.5c-0.27734 0-0.5-0.22266-0.5-0.5s0.22266-0.5 0.5-0.5zm-1.4688 4h0.96875v4h-5.2715c0.063825-0.23632 0.17285-0.46508 0.33008-0.67188a1.0001 1.0001 0 0 0 0-0.0019531l1.6445-2.168c0.55393-0.73177 1.4137-1.1582 2.3281-1.1582zm1.9688 0h0.57812c0.91935 0 1.7781 0.42643 2.332 1.1582l1.6445 2.168c0.15681 0.20727 0.26493 0.43662 0.32812 0.67383h-4.8828v-4zm-6.2676 5h11.145c-0.063886 0.22646-0.17035 0.44554-0.32031 0.64453l-1.6523 2.1953c-0.5502 0.73056-1.4089 1.1602-2.3262 1.1602h-2.5469c-0.91233 0-1.7734-0.42932-2.3281-1.1621l-1.6504-2.1934c-0.15022-0.1993-0.25666-0.41794-0.32031-0.64453z" fill="#363636"/>
</svg>
