<svg width="16" height="16" version="1.1" viewBox="0 0 16 16" xmlns="http://www.w3.org/2000/svg">
 <path d="m7.0195 0v0.97266l-1.5664-0.89453-0.51172 0.85742 1.3613 0.7832-3.3027 1.791v-2.5098h-0.99414v2.8574l-1.459-0.85742-0.54688 0.91602 1.0801 0.63281-1.0801 0.58594 0.52539 0.86523 1.4805-0.80273v4.6348l-1.4883-0.83203-0.51758 0.875 1.0586 0.58984-1.0586 0.62109 0.51562 0.91406 1.4902-0.875v3.875h0.99414v-3.4551l3.5527 1.9785-2.5527 1.5742 0.48438 0.90234 2.5352-1.5625v1.5625h0.99414v-1.6641l2.9863 1.6641 0.51758-0.84375-2.9687-1.6602 3.4375-2.1172v3.6211h0.99414v-3.4688l2.5039 1.4688 0.51562-0.91406-2.6426-1.5527 2.6426-1.6289-0.48438-0.9043-2.5352 1.5625v-4.0039l2.5078 1.4414 0.51172-0.88867-2.7578-1.5781 2.7578-1.6172-0.51562-0.91602-2.5039 1.4688v-2.4688h-0.99414v2.8145l-3.6133-2.0664 1.627-0.88086-0.52539-0.86719-1.4609 0.79102v-0.79102h-0.99414zm0 2.4805v4.3262l-3.8281-2.252 3.8281-2.0742zm0.99414 0.2207 3.168 1.8223-3.168 1.8594v-3.6816zm3.9727 2.5684v4.457l-3.793-2.2305 3.793-2.2266zm-8.9863 0.40625 3.1094 1.8242-3.1094 1.8242v-3.6484zm4.0195 2.5098v4.4551l-3.8867-2.1758 3.8867-2.2793zm0.99414 0.43164 3.3301 1.9531-3.3301 2.0527v-4.0059z" fill="#363636"/>
</svg>
