<svg width="16px" height="16px" version="1.1" viewBox="0 0 16 16" xmlns="http://www.w3.org/2000/svg">
 <path d="m8.5 0c-0.277 0-0.5 0.223-0.5 0.5v6.5c0 0.554-0.446 1-1 1s-1-0.446-1-1v-5.5c0-0.277-0.223-0.5-0.5-0.5s-0.5 0.223-0.5 0.5v6.5c0 0.554-0.446 1-1 1s-1-0.446-1-1v-0.73438-3.7656c0-0.277-0.223-0.5-0.5-0.5s-0.5 0.223-0.5 0.5v5.5 1.5 3.5c0 1.108 0.89201 2 2 2h6c0.76796 0 1.4322-0.42861 1.7676-1.0605l4.0605-4.0605c0.19587-0.19587 0.19587-0.51116 0-0.70703-0.097934-0.097934-0.22571-0.14648-0.35352-0.14648-0.12781 0-0.25558 0.04855-0.35352 0.14648l-2.3457 2.3457c-0.078948 0.052047-0.17323 0.082031-0.27539 0.082031-0.277 0-0.5-0.223-0.5-0.5v-3.0996-6.5c0-0.277-0.223-0.5-0.5-0.5s-0.5 0.223-0.5 0.5v4.5c0 0.554-0.446 1-1 1-0.554 0-1-0.446-1-1v-6.5c0-0.277-0.223-0.5-0.5-0.5zm3.5 14c0 0.058011-0.003023 0.11515-0.007812 0.17188 0.004796-0.05675 0.007812-0.11384 0.007812-0.17188zm-0.044922 0.42383c-0.012324 0.057555-0.027787 0.11435-0.044922 0.16992 0.017229-0.05581 0.032545-0.11211 0.044922-0.16992zm-0.048828 0.18555c-0.017177 0.05416-0.03705 0.10618-0.058594 0.1582 0.021496-0.051888 0.041438-0.10419 0.058594-0.1582z" fill="#363636" fill-rule="evenodd" stop-color="#000000" stroke-linecap="round" stroke-linejoin="round" stroke-width="2" style="paint-order:stroke fill markers"/>
</svg>
