<svg width="16px" height="16px" version="1.1" xmlns="http://www.w3.org/2000/svg">
 <path d="m10.857 4.0039c-0.57167-0.016071-1.1298 0.18953-1.5508 0.57617l-0.0039062 0.0039063-1.3145 1.1797-1.3164-1.1758-0.0019531-0.0019531c-0.58333-0.52614-1.4066-0.69692-2.1543-0.44922h-0.0019531-0.0019531c-0.75094 0.24573-1.3082 0.87188-1.4668 1.6465-0.15885 0.77586 0.10612 1.5713 0.69727 2.0957l0.0019531 0.0019532 4.2422 3.7773 4.2441-3.7832 0.005859-0.0039062c0.69039-0.59601 0.94266-1.5483 0.63672-2.4062-0.30591-0.85785-1.1037-1.4356-2.0156-1.4609z" color="#000000" fill="#363636" opacity=".35" stroke-width="2"/>
 <path d="m9.5039 2.2363c-0.55338 0.17962-1.0727 0.45298-1.5137 0.84961l0.013672 0.011719c-0.0056-0.00503-0.013909-0.00477-0.019531-0.00977-0.00928 0.00838-0.022032 0.011065-0.03125 0.019531l0.00977-0.00781 0.015625-0.013672c-1.1163-0.98945-2.6759-1.3167-4.0918-0.84765-1.4293 0.46875-2.4993 1.6698-2.8008 3.1426-0.30148 1.4725 0.20662 2.9975 1.3301 3.9941l5.5703 4.9629 5.5566-4.9531c1.3111-1.1319 1.7944-2.9611 1.2129-4.5918-0.58131-1.6302-2.1125-2.7402-3.8418-2.7891h-2e-3c-0.5204 0.00411-0.95041 0.10277-1.4082 0.23242zm1.3809 0.76758c1.321 0.03672 2.486 0.88069 2.9297 2.125 0.44372 1.2443 0.07693 2.6341-0.92383 3.498l-4.9043 4.3711-4.9062-4.3711c-0.8573-0.76054-1.2458-1.9208-1.0156-3.0449 0.23014-1.1242 1.046-2.0376 2.1367-2.3945 1.0875-0.36026 2.288-0.11099 3.1387 0.65625l0.64648 0.57812 0.64453-0.57812c0.61374-0.56375 1.4233-0.86319 2.2539-0.83984z" color="#000000" fill="#363636"/>
</svg>
