<svg width="16" height="16" version="1.1" xmlns="http://www.w3.org/2000/svg">
 <path d="m8 0a8 8 0 0 0-3.6016 0.875 8 8 0 0 0-3.5234 3.5234 8 8 0 0 0-0.875 3.6016 8 8 0 0 0 0.88281 3.6172 8 8 0 0 0 0 0.001953 8 8 0 0 0 3.5156 3.5059 8 8 0 0 0 3.6016 0.875 8 8 0 0 0 3.6016-0.875 8 8 0 0 0 3.5078-3.4922 8 8 0 0 0 0.017578-0.03125 8 8 0 0 0 0.87305-3.6016 8 8 0 0 0-0.86523-3.6152 8 8 0 0 0-0.009766-0.015625 8 8 0 0 0-0.41016-0.71484 8 8 0 0 0-0.47266-0.6543 8 8 0 0 0-0.035157-0.044922 8 8 0 0 0-0.55078-0.61133 8 8 0 0 0-0.62305-0.55859 8 8 0 0 0-1.4023-0.91016 8 8 0 0 0-3.6309-0.875zm0 1a7 7 0 0 1 3.1055 0.72852l-1.6602 3.3223c-0.14331-0.032394-0.29193-0.050781-0.44531-0.050781h-2c-0.15338 0-0.302 0.018387-0.44531 0.050781l-1.6582-3.3184a7 7 0 0 1 3.1035-0.73242zm3.9707 1.2363a7 7 0 0 1 0.97852 0.81445 7 7 0 0 1 0.81445 0.97852l-3.2715 1.6348c-0.048808-0.054473-0.10178-0.10744-0.15625-0.15625l1.6348-3.2715zm-7.9375 0.0078125 1.6309 3.2637c-0.054473 0.048807-0.10744 0.10178-0.15625 0.15625l-3.2637-1.6309a7 7 0 0 1 0.80664-0.98242 7 7 0 0 1 0.98242-0.80664zm10.238 2.6504a7 7 0 0 1 0.72852 3.1055 7 7 0 0 1-0.73242 3.1035l-3.3184-1.6582c0.032394-0.14331 0.050781-0.29193 0.050781-0.44531v-2c0-0.15338-0.018387-0.302-0.050781-0.44531l3.3223-1.6602zm-12.539 0.0019532 3.3184 1.6582c-0.032394 0.14331-0.050781 0.29193-0.050781 0.44531v2c0 0.15338 0.018387 0.302 0.050781 0.44531l-3.3184 1.6582a7 7 0 0 1-0.73242-3.1035 7 7 0 0 1 0.73242-3.1035zm5.2676 1.1035h2c0.554 0 1 0.446 1 1v2c0 0.554-0.446 1-1 1h-2c-0.554 0-1-0.446-1-1v-2c0-0.554 0.446-1 1-1zm-1.4922 4.3359c0.048807 0.054473 0.10178 0.10744 0.15625 0.15625l-1.6309 3.2637a7 7 0 0 1-0.98242-0.80664 7 7 0 0 1-0.80664-0.98242l3.2637-1.6309zm4.9844 0 3.2637 1.6309a7 7 0 0 1-0.80664 0.98242 7 7 0 0 1-0.98242 0.80664l-1.6309-3.2637c0.054473-0.048808 0.10744-0.10178 0.15625-0.15625zm-3.9375 0.61328c0.14331 0.032394 0.29193 0.050781 0.44531 0.050781h2c0.15338 0 0.302-0.018387 0.44531-0.050781l1.6582 3.3184a7 7 0 0 1-3.1035 0.73242 7 7 0 0 1-3.1035-0.73242l1.6582-3.3184z" fill="#363636" fill-rule="evenodd" stop-color="#000000" stroke-linecap="round" stroke-linejoin="round" stroke-width="2" style="paint-order:stroke fill markers"/>
</svg>
