<svg width="16px" height="16px" version="1.1" viewBox="0 0 16 16" xmlns="http://www.w3.org/2000/svg">
 <path d="m11.969 1.002a0.5 0.5 0 0 0-0.41602 0.27539l-5.8613 11.723h-2.6914v1h2.1914l-0.5 1h-1.6914v1h2a0.50005 0.50005 0 0 0 0.44727-0.27734l7-14a0.5 0.5 0 0 0-0.22461-0.66992 0.5 0.5 0 0 0-0.25391-0.050781zm-11.969 11.998v1 1 1h1 1v-1h-1v-1h1v-1h-2z" fill="#363636"/>
 <path d="m4.0312 1.002c-0.087626-0.0056618-0.1752 0.011853-0.25391 0.050781-0.24685 0.12312-0.34735 0.42289-0.22461 0.66992l3.3301 6.6602 0.55859-1.1172-2.9941-5.9883c-0.079696-0.15937-0.23818-0.26428-0.41602-0.27539zm5.0859 9.6152-0.55859 1.1172 1.9941 3.9883c0.084448 0.16977 0.25765 0.27717 0.44727 0.27734h2v-1h-1.6914l-0.5-1h2.1914v-1h-2.6914zm4.8828 2.3828v1h1v1h-1v1h2v-3z" fill="#363636"/>
</svg>
