<svg width="16px" height="16px" version="1.1" viewBox="0 0 16 16" xmlns="http://www.w3.org/2000/svg">
 <path d="m10 6c0 0.55078-0.44922 1-1 1s-1-0.44922-1-1 0.44922-1 1-1 1 0.44922 1 1z" fill="#363636"/>
 <path d="m9.7441-0.019531c-0.12986-0.035564-0.26858-0.017256-0.38477 0.050781l-1.7109 1.0078c-2.6341-0.090942-4.247 1.0931-5.0898 2.3281-0.86455 1.2668-1.0117 2.5762-1.0117 2.5762l-1.4141 9.4863c-0.045564 0.30374 0.19091 0.57639 0.49805 0.57422l7.873-0.0059c0.2746-0.002133 0.49607-0.22535 0.49609-0.49996v-2.9062c0-0.27614-0.22386-0.5-0.5-0.5s-0.5 0.22386-0.5 0.5v2.4082h-6.793l1.332-8.9258c7.32e-4 -0.0052 0.00138-0.010407 0.00195-0.015625 0 0 0.12927-1.08 0.84375-2.127 0.71448-1.0469 1.9401-2.0508 4.3906-1.9062 0.099094 0.00583 0.19768-0.017968 0.2832-0.068359l1.3691-0.80664 4.9648 8.8125-1.4961 1.9297-3.9141-1.8652c-0.075547-0.035604-0.15881-0.051719-0.24218-0.046874 0 0-1.09 0.041441-2.0098-0.41406-0.45988-0.22775-0.86268-0.5608-1.1133-1.0859-0.25061-0.52514-0.36248-1.2716-0.12891-2.377 0.056662-0.26958-0.11539-0.5342-0.38477-0.5918-0.26958-0.056662-0.5342 0.11539-0.5918 0.38477-0.26643 1.2608-0.1588 2.2572 0.20312 3.0156 0.36192 0.7584 0.96544 1.2503 1.5723 1.5508 1.095 0.54228 2.1333 0.51808 2.3496 0.50976l4.1934 1.9961c0.21238 0.1018 0.46702 0.0416 0.61133-0.14453l1.9453-2.5117c0.12387-0.15912 0.14004-0.37707 0.04101-0.55273l-5.3789-9.543c-0.065884-0.11634-0.17561-0.20145-0.30469-0.23633z" fill="#363636"/>
</svg>
