<svg width="16" height="16" version="1.1" xmlns="http://www.w3.org/2000/svg">
 <path d="m11.537 0.91211-1.0996 2.791-3.7227-1.4688-0.36523 0.93164 3.7207 1.4668-2.1191 5.3711a6 6 0 0 0-5.5879 3.9961h-1.3633v1h14v-1h-1.3574a6 6 0 0 0-4.791-3.9336 6 6 0 0 1 0.14258 0.017578l2.0059-5.084 3.7207 1.4668 0.36719-0.92969-3.7207-1.4668 1.0996-2.791-0.92969-0.36719zm-3.5371 9.0879a6 6 0 0 1 0.66406 0.042969 6 6 0 0 0-0.66406-0.042969zm0 1a5 5 0 0 1 4.5684 3h-9.125a5 5 0 0 1 4.5566-3z" fill="#363636" stroke-linecap="round" stroke-linejoin="round" stroke-width="2.1213" style="paint-order:stroke fill markers"/>
</svg>
