<svg width="16px" height="16px" version="1.1" viewBox="0 0 16 16" xmlns="http://www.w3.org/2000/svg">
 <path d="m8 0c-2.75 0-5 2.25-5 5 0 1.1203 0.37255 2.1662 1 3h1.3535l-0.0039062-0.0039062c-0.18344-0.1625-0.35548-0.34465-0.51367-0.54688l-0.0019531-0.0019532c-0.5218-0.67176-0.83398-1.5265-0.83398-2.4473 0-2.2045 1.7955-4 4-4 0.18058 0 0.35055 0.013096 0.51758 0.035156a1.0001 1.0001 0 0 0 0.0019531 0c0.00383 4.979e-4 0.0033 0.0014638 0-0.0039062a1.0001 1.0001 0 0 0 0.0019532 0.0019531 1.0001 1.0001 0 0 0-0.0019532 0.0019531 1.0001 1.0001 0 0 0 0 0.0019532c-0.1079 0.31174-0.15845 0.63116-0.16406 0.94531a1.0001 1.0001 0 0 0 0 0.017578c0 1.644 1.3565 2.9961 2.9961 2.9961 0.20651 0 0.42381-0.024349 0.64258-0.078125l0.001953-0.0019532c0.0079-0.00196 0.015487 8.83e-5 0.023437-0.0019531l-0.019531 0.0058594a1.0001 1.0001 0 0 0 0 0.0019531 1.0001 1.0001 0 0 0 0.12695 0.44531c-0.03706-0.068176-0.074306-0.13697-0.074219-0.13672 3.74e-4 0.0010797-0.042755-0.16125-0.046875-0.19336-0.008261-0.064222-0.00568-0.073981-0.005859-0.080078-3.59e-4 -0.012194 0 0.011719 0 0.042969 0 1.0219-0.38615 1.9618-1.0156 2.666-0.10003 0.11179-0.20944 0.21821-0.33398 0.33008-0.001813 0.0016435-0.004311 0.0022859-0.00586 0.0039062h1.3574c0.62609-0.83593 0.99805-1.8803 0.99805-3 0-0.0625 0-0.097656-0.003906-0.097656-0.003906-0.30078-0.14453-0.58594-0.38281-0.76953-0.23828-0.1875-0.54688-0.25391-0.84375-0.1875-0.13672 0.035157-0.27734 0.050781-0.41797 0.050781-1.1133 0-1.9961-0.87891-1.9961-1.9961 0.0039058-0.21875 0.039062-0.43359 0.10938-0.63672 0.10156-0.28516 0.066406-0.59766-0.09375-0.85547-0.15625-0.25391-0.42188-0.42578-0.72266-0.46484-0.20703-0.027344-0.42188-0.042969-0.64844-0.042969zm4.2012 5.5039a1.0001 1.0001 0 0 0 0.08789 0.085938c-0.031802-0.027939-0.078155-0.068398-0.078124-0.068359 1e-5 1.65e-5 -0.00868-0.015573-0.009766-0.017578zm0.25 0.22852a1.0001 1.0001 0 0 0 0.08789 0.044922c-0.010487-0.0028796-0.054699-0.015632-0.054687-0.015625 1.4e-5 8.1e-6 -0.026099-0.023052-0.033203-0.029297z" fill="#363636" opacity=".65"/>
 <path d="m5 7c-0.33594 0-0.65234 0.16797-0.83594 0.44922-0.18359 0.28125-0.21484 0.63672-0.085938 0.94531l3 7c0.16016 0.36719 0.51953 0.60938 0.92188 0.60938s0.76172-0.24219 0.92188-0.60938l3-7c0.12891-0.30859 0.097654-0.66406-0.085937-0.94531-0.18359-0.28125-0.5-0.44922-0.83594-0.44922h-6zm0.0019531 1h5.9961c3.74e-4 0.00194 0.002053 0.0035894 0.001953 0.0058594l-0.85547 1.9941h-4.291l-0.85352-1.9941c-1.372e-4 -0.0022742 0.0015792-0.0039238 0.0019531-0.0058594zm1.2812 3h3.4336l-1.7148 4c-2.403e-4 1.08e-4 -0.0015531 0.003906-0.0019531 0.003906-4.017e-4 0-0.0017131-0.003806-0.0019531-0.003906l-0.0039063-0.005859-1.7109-3.9941z" fill="#363636"/>
</svg>
