<svg xmlns="http://www.w3.org/2000/svg" width="16" height="16"><rect width="4" height="12" x="-14" y="2" rx="0" ry="0" style="opacity:.5;fill:#363636;stroke-width:1.63299;stroke-linecap:square;paint-order:stroke fill markers;stop-color:#000" transform="rotate(-90)"/><path d="m5.879 3.172-.707.707L7.293 6 5.172 8.121l.707.707L8 6.707l2.121 2.121.707-.707L8.707 6l2.121-2.121-.707-.707L8 5.293Z" style="opacity:1;fill:#363636;stroke-width:2;stroke-linecap:square;paint-order:stroke fill markers;stop-color:#000"/><path d="M3 1c-1.108 0-2 .892-2 2v10c0 1.108.892 2 2 2h10c1.108 0 2-.892 2-2V3c0-1.108-.892-2-2-2H3zm0 1h10c.554 0 1 .446 1 1v10c0 .554-.446 1-1 1H3c-.554 0-1-.446-1-1V3c0-.554.446-1 1-1z" style="opacity:1;fill:#363636;stroke-width:2;stroke-linecap:square;paint-order:stroke fill markers;stop-color:#000"/></svg>