<svg width="16" height="16" version="1.1" xmlns="http://www.w3.org/2000/svg">
 <g transform="translate(-31.976 -220.36)" fill="#363636">
  <path transform="rotate(-61.485)" d="m-175.52 140.63a3 3 31.717 0 0-2.5246-1.3779 3 3 31.717 0 0-3.0005 2.9994 3 3 31.717 0 0 3.0011 2.9995 3 3 31.717 0 0 3.0005-2.9994 3 3 31.717 0 0-0.47647-1.6216zm-0.70463 0.78959a2 2 0 0 1 0.18037 0.83112 2 2 0 0 1-2.0006 2.0005 2 2 0 0 1-1.9995-1.9989 2 2 0 0 1 2.0006-2.0005 2 2 0 0 1 1.8192 1.1677z"/>
  <path d="m35.78 228.37a3 3 45 0 0-2.416 1.5606 3 3 45 0 0 1.2031 4.0684 3 3 45 0 0 4.0684-1.2051 3 3 45 0 0-1.2031-4.0684 3 3 45 0 0-1.6523-0.35547zm0.35742 0.9961a2 2 0 0 1 0.8164 0.23828 2 2 0 0 1 0.80274 2.7129 2 2 0 0 1-2.7109 0.80274 2 2 0 0 1-0.80274-2.7129 2 2 0 0 1 1.8945-1.041z" opacity=".65"/>
  <path d="m43.779 228.37a3 3 0 0 0-2.416 1.5606 3 3 0 0 0 1.2031 4.0684 3 3 0 0 0 4.0684-1.2051 3 3 0 0 0-1.2031-4.0684 3 3 0 0 0-1.6523-0.35547zm0.35742 0.9961a2 2 0 0 1 0.8164 0.23828 2 2 0 0 1 0.80274 2.7129 2 2 0 0 1-2.7109 0.80274 2 2 0 0 1-0.80274-2.7129 2 2 0 0 1 1.8945-1.041z" opacity=".35"/>
 </g>
</svg>
