<svg width="16px" height="16px" version="1.1" viewBox="0 0 16 16" xmlns="http://www.w3.org/2000/svg">
 <path d="m10.27 6.5391c-0.32715 0.0097625-0.62402 0.1709-0.81445 0.42969l-2.1875 3.0469c-0.12695 0.18066-0.32715 0.29395-0.54688 0.30859-0.21973 0.019532-0.43555-0.064453-0.5918-0.2207l-0.51172-0.52148c-0.22949-0.23926-0.55566-0.35742-0.88281-0.32812-0.32715 0.03418-0.62598 0.21094-0.80664 0.48438l-0.92773 1.3867v0.875c0 0.554 0.446 1 1 1h8c0.554 0 1-0.446 1-1v-2.3105c0-0.30274-0.10156-0.5957-0.29688-0.83008l-1.5977-1.9434c-0.20508-0.24902-0.51367-0.38672-0.83594-0.37695z" fill="#363636" stroke-linecap="round" stroke-linejoin="round" stroke-width="1.5"/>
 <path d="m4 1c-1.662 0-3 1.338-3 3v8c0 1.662 1.338 3 3 3h8c1.662 0 3-1.338 3-3v-8c0-1.662-1.338-3-3-3h-8zm0 1h8c1.108 0 2 0.892 2 2v8c0 1.108-0.892 2-2 2h-8c-1.108 0-2-0.892-2-2v-8c0-1.108 0.892-2 2-2z" fill="#363636" stroke-linecap="round" stroke-linejoin="round" stroke-width="1.5"/>
 <circle cx="5" cy="5" r="1" fill="#363636" stroke-linecap="round" stroke-linejoin="round"/>
</svg>
