<svg width="16" height="16" version="1.1" xmlns="http://www.w3.org/2000/svg">
  <path
     d="M 8.0003,4.0214951e-4 A 8,8 0 0 0 3.0001621e-4,8.0004021 8,8 0 0 0 8.0003,16.000402 a 8,8 0 0 0 8,-7.9999999 8,8 0 0 0 -8,-7.99999995049 z m 0,0.99999995049 a 7,7 0 0 1 7,7 7,7 0 0 1 -7,6.9999999 7,7 0 0 1 -7,-6.9999999 7,7 0 0 1 7,-7 z"
     style="fill:#363636" />
  <path
     d="M 7.9883,4.0214951e-4 A 7.9878,7.9878 0 0 0 1.6209483e-8,7.9887021 7.9878,7.9878 0 0 0 7.9883,15.975002 a 7.9878,7.9878 0 0 0 0.01172,0 V 2.1495115e-6 a 7.9878,7.9878 0 0 0 -0.01172,0 z"
     style="fill:#363636" />
</svg>
