<svg xmlns="http://www.w3.org/2000/svg" width="16" height="16"><path d="m10.098 2.748.763.17.168-.764-.763-.168Zm-8.168.104h.779V2.07h-.78ZM9.848 4.33l.775.086.088-.775-.775-.088zm-7.918.082h.779v-.78h-.78Zm7.888.746.01.557v.03l.004.028.037.221.772-.129-.034-.191-.01-.53zm-7.888.817h.779v-.782h-.78Zm8.105.845.211.614.01.029.014.027.062.117.69-.365-.05-.094-.198-.58zm-8.105.715h.779v-.78h-.78Zm8.816.793.274.383.01.014.011.013.203.237.592-.51-.2-.233-.003-.003-.25-.354zm-8.816.77h.779v-.782h-.78Zm9.845.468.532.573.572-.532-.531-.572zM1.93 10.658h.779v-.78h-.78Zm10.804.037.229.375.1.254.726-.287-.113-.287-.012-.033-.02-.028-.244-.402zM1.93 12.221h.779v-.782h-.78Zm11.312-.219.037.205-.006.498.782.008.006-.535v-.037l-.006-.037-.045-.24zM1.93 13.782h.779v-.78h-.78Zm11.14.323.77.135.119-.691-.77-.135z" style="opacity:.5;fill:#363636;fill-opacity:1"/><path d="M8.395 1.984c-.835 3.621-.001 5.487.878 6.952.88 1.464 1.736 2.473 1.252 4.93l.768.15c.528-2.682-.5-4.069-1.35-5.483-.849-1.414-1.587-2.912-.789-6.373Zm-2.086.02c-.557 3.09-.01 4.985.572 6.619.581 1.634 1.172 2.979.848 5.262l.773.11c.35-2.462-.314-4.03-.885-5.634-.57-1.604-1.073-3.27-.54-6.22Zm-2.086.025c-.278 2.547-.008 4.478.28 6.282.29 1.803.595 3.477.43 5.6l.778.06c.173-2.228-.15-3.99-.438-5.784-.287-1.793-.542-3.62-.275-6.072Z" style="opacity:1;fill:#363636;fill-opacity:1"/></svg>