<svg width="16px" height="16px" version="1.1" viewBox="0 0 16 16" xmlns="http://www.w3.org/2000/svg">
 <path d="m5.5 10c-0.82235 0-1.5 0.67765-1.5 1.5s0.67765 1.5 1.5 1.5h9c0.82235 0 1.5-0.67765 1.5-1.5s-0.67765-1.5-1.5-1.5h-9zm0 1h9c0.277 0 0.5 0.223 0.5 0.5s-0.223 0.5-0.5 0.5h-9c-0.277 0-0.5-0.223-0.5-0.5s0.223-0.5 0.5-0.5z" fill="#363636"/>
 <path d="m1 4c-0.54535 0-1 0.45465-1 1 0 0.54535 0.45465 1 1 1h2c0.54535 0 1-0.45465 1-1 0-0.54535-0.45465-1-1-1h-2zm5 0.042969c-0.554 0-1 0.446-1 1 0 0.554 0.446 1 1 1h1c0.554 0 1-0.446 1-1 0-0.554-0.446-1-1-1h-1zm4 0c-0.554 0-1 0.446-1 1 0 0.554 0.446 1 1 1h1c0.554 0 1-0.446 1-1 0-0.554-0.446-1-1-1h-1zm4 0c-0.554 0-1 0.446-1 1 0 0.554 0.446 1 1 1h1c0.554 0 1-0.446 1-1 0-0.554-0.446-1-1-1h-1zm-13 2.957c-0.554 0-1 0.446-1 1s0.446 1 1 1h1c0.554 0 1-0.446 1-1s-0.446-1-1-1h-1zm4 0c-0.554 0-1 0.446-1 1s0.446 1 1 1h1c0.554 0 1-0.446 1-1s-0.446-1-1-1h-1zm4 0c-0.554 0-1 0.446-1 1s0.446 1 1 1h1c0.554 0 1-0.446 1-1s-0.446-1-1-1h-1zm4 0c-0.554 0-1 0.446-1 1s0.446 1 1 1h1c0.554 0 1-0.446 1-1s-0.446-1-1-1h-1z" fill="#363636" opacity=".35"/>
 <path d="m1 10.5c-0.54535 0-1 0.45465-1 1s0.45465 1 1 1h1c0.54535 0 1-0.45465 1-1s-0.45465-1-1-1z" fill="#363636"/>
</svg>
