<svg width="16px" height="16px" version="1.1" viewBox="0 0 16 16" xmlns="http://www.w3.org/2000/svg">
 <path d="m8 0a8 8 0 0 0-8 8 8 8 0 0 0 8 8 8 8 0 0 0 8-8 8 8 0 0 0-8-8zm0 0.97656a7.0234 7.0234 0 0 1 7.0234 7.0234 7.0234 7.0234 0 0 1-7.0234 7.0234 7.0234 7.0234 0 0 1-7.0234-7.0234 7.0234 7.0234 0 0 1 7.0234-7.0234z" fill="#363636" stroke-width="0"/>
 <rect x="6" y="4" width="1" height="8" fill="#363636" stroke-width="0"/>
 <rect x="9" y="4" width="1" height="8" fill="#363636" stroke-width="0"/>
 <rect transform="rotate(90)" x="6" y="-12" width="1" height="8" fill="#363636" stroke-width="0"/>
 <rect transform="rotate(90)" x="9" y="-12" width="1" height="8" fill="#363636" stroke-width="0"/>
</svg>
