<svg width="16px" height="16px" version="1.1" viewBox="0 0 16 16" xmlns="http://www.w3.org/2000/svg">
 <path d="m8 0a8 8 0 0 0-8 8 8 8 0 0 0 8 8 8 8 0 0 0 8-8 8 8 0 0 0-8-8zm0 1a7 7 0 0 1 7 7 7 7 0 0 1-7 7 7 7 0 0 1-7-7 7 7 0 0 1 7-7z" fill="#363636" fill-rule="evenodd" stop-color="#000000"/>
 <path d="m8 4a4 4 0 0 0-4 4v0.5h6.9531a3 3 0 0 1-2.9531 2.5h-4v1h4a4 4 0 0 0 4-4v-0.5h-6.9531a3 3 0 0 1 2.9531-2.5h4v-1h-4z" fill="#363636" fill-rule="evenodd" stop-color="#000000" stroke-width="1.1547"/>
</svg>
