<svg height="16px" viewBox="0 0 16 16" width="16px" xmlns="http://www.w3.org/2000/svg" xmlns:xlink="http://www.w3.org/1999/xlink">
    <g fill="#363636">
        <path d="m 11 0 c -1.109375 0 -2 0.914062 -2 2.015625 v 4.777344 l -0.851562 0.851562 c -0.191407 0.191407 -0.199219 0.496094 -0.015626 0.691407 l 0.867188 0.953124 v 4.664063 c 0 0.65625 0.234375 1.207031 0.625 1.5625 c 0.386719 0.351563 0.894531 0.496094 1.390625 0.484375 l -0.03125 -1 c -0.277344 0.007812 -0.519531 -0.074219 -0.6875 -0.226562 c -0.167969 -0.152344 -0.296875 -0.386719 -0.296875 -0.820313 v -4.859375 c 0 -0.125 -0.046875 -0.246094 -0.128906 -0.335938 l -0.679688 -0.742187 l 0.664063 -0.664063 c 0.09375 -0.09375 0.144531 -0.21875 0.144531 -0.351562 v -4.984375 c 0 -0.585937 0.421875 -1.015625 1 -1.015625 z m 0 0"/>
        <path d="m 5 9 c -1.332031 0 -2.273438 0.8125 -2.644531 1.550781 c -0.367188 0.738281 -0.355469 1.449219 -0.355469 1.449219 v 1 s -0.011719 0.707031 0.355469 1.445312 c 0.371093 0.738282 1.3125 1.554688 2.644531 1.554688 h 2 v -2 h -2 c -0.664062 0 -0.722656 -0.1875 -0.855469 -0.449219 c -0.128906 -0.261719 -0.144531 -0.550781 -0.144531 -0.550781 v -1 s 0.011719 -0.292969 0.144531 -0.554688 c 0.128907 -0.261718 0.1875 -0.445312 0.855469 -0.445312 h 2 v -2 z m 0 0"/>
        <path d="m 13.015625 0 v 1 c 0.578125 0 1 0.429688 1 1.015625 v 4.984375 c 0 0.132812 0.050781 0.257812 0.144531 0.351562 l 0.664063 0.664063 l -0.679688 0.742187 c -0.082031 0.089844 -0.128906 0.210938 -0.128906 0.335938 v 4.859375 c 0 0.433594 -0.128906 0.667969 -0.296875 0.820313 c -0.167969 0.152343 -0.410156 0.234374 -0.691406 0.226562 l -0.027344 1 c 0.496094 0.011719 1 -0.132812 1.390625 -0.484375 c 0.386719 -0.355469 0.625 -0.90625 0.625 -1.5625 v -4.664063 l 0.867187 -0.953124 c 0.179688 -0.195313 0.175782 -0.5 -0.015624 -0.691407 l -0.851563 -0.851562 v -4.777344 c 0 -1.101563 -0.890625 -2.015625 -2 -2.015625 z m 0 0"/>
    </g>
</svg>
