<svg width="16px" height="16px" version="1.1" viewBox="0 0 16 16" xmlns="http://www.w3.org/2000/svg">
 <filter id="a" x="0" y="0" width="1" height="1">
  <feColorMatrix in="SourceGraphic" values="0 0 0 0 1 0 0 0 0 1 0 0 0 0 1 0 0 0 1 0"/>
 </filter>
 <mask id="b">
  <g filter="url(#a)">
   <path d="m0 0h16v16h-16z" fill-opacity=".3"/>
  </g>
 </mask>
 <clipPath id="c">
  <path d="m0 0h800v800h-800z"/>
 </clipPath>
 <mask id="d">
  <g filter="url(#a)">
   <path d="m0 0h16v16h-16z" fill-opacity=".35"/>
  </g>
 </mask>
 <clipPath id="e">
  <path d="m0 0h800v800h-800z"/>
 </clipPath>
 <mask id="f">
  <g filter="url(#a)">
   <path d="m0 0h16v16h-16z" fill-opacity=".35"/>
  </g>
 </mask>
 <clipPath id="g">
  <path d="m0 0h800v800h-800z"/>
 </clipPath>
 <mask id="h">
  <g filter="url(#a)">
   <path d="m0 0h16v16h-16z" fill-opacity=".35"/>
  </g>
 </mask>
 <clipPath id="i">
  <path d="m0 0h800v800h-800z"/>
 </clipPath>
 <mask id="j">
  <g filter="url(#a)">
   <path d="m0 0h16v16h-16z" fill-opacity=".35"/>
  </g>
 </mask>
 <clipPath id="k">
  <path d="m0 0h800v800h-800z"/>
 </clipPath>
 <g transform="translate(-100 -420)" clip-path="url(#c)" mask="url(#b)">
  <path d="m142.5 351h10.449c-1.1836 0.49219-1.2969 2.457 0 3h-10.449z" fill="#2e3436"/>
 </g>
 <g transform="translate(-100 -420)" clip-path="url(#e)" mask="url(#d)">
  <path d="m104 502c0 0.55078-0.44922 1-1 1s-1-0.44922-1-1 0.44922-1 1-1 1 0.44922 1 1z" fill="#2e3436"/>
 </g>
 <g transform="translate(-100 -420)" clip-path="url(#g)" mask="url(#f)">
  <path d="m106 501v2h8v-2z" fill="#2e3436" fill-rule="evenodd"/>
 </g>
 <g transform="translate(-100 -420)" clip-path="url(#i)" mask="url(#h)">
  <path d="m104 514c0 0.55078-0.44922 1-1 1s-1-0.44922-1-1 0.44922-1 1-1 1 0.44922 1 1z" fill="#2e3436"/>
 </g>
 <g transform="translate(-100 -420)" clip-path="url(#k)" mask="url(#j)">
  <path d="m106 513v2h8v-2z" fill="#2e3436" fill-rule="evenodd"/>
 </g>
 <path d="m8 0a8 8 0 0 0-8 8 8 8 0 0 0 8 8 8 8 0 0 0 8-8 8 8 0 0 0-8-8zm0 1a7 7 0 0 1 7 7 7 7 0 0 1-7 7 7 7 0 0 1-7-7 7 7 0 0 1 7-7z" fill="#363636" fill-rule="evenodd" stop-color="#000000"/>
 <rect x="6" y="4" width="1" height="8" fill="#363636" fill-rule="evenodd" stop-color="#000000"/>
 <rect x="9" y="4" width="1" height="8" fill="#363636" fill-rule="evenodd" stop-color="#000000"/>
 <rect x="4" y="6" width="8" height="1" fill="#363636" fill-rule="evenodd" stop-color="#000000"/>
 <rect x="4" y="9" width="8" height="1" fill="#363636" fill-rule="evenodd" stop-color="#000000"/>
</svg>
