<svg width="16px" height="16px" version="1.1" xmlns="http://www.w3.org/2000/svg">
 <g fill="#363636" stroke-linecap="round" stroke-width="2">
  <path d="m8 2.875-6.375 2.5625 6.375 2.5625 6.4062-2.5625zm0.0019531 1.0762 3.7129 1.4863-3.7148 1.4844-3.6934-1.4844z" color="#000000"/>
  <path d="m8 5.875-2.6426 1.0625 1.3398 0.53906 1.3047-0.52539 1.3105 0.52539 1.3457-0.53906-2.6582-1.0625zm-3.9844 1.6016-2.3906 0.96094 6.375 2.5625 6.4062-2.5625-2.4023-0.96094-1.3457 0.53906 1.0566 0.42188-3.7148 1.4844-3.6934-1.4844 1.0488-0.42188-1.3398-0.53906z" color="#000000"/>
  <path d="m8 8.875-2.6426 1.0625 1.3398 0.53906 1.3047-0.52539 1.3105 0.52539 1.3457-0.53906zm-3.9844 1.6016-2.3906 0.96094 6.375 2.5625 6.4062-2.5625-2.4023-0.96094-1.3457 0.53906 1.0566 0.42188-3.7148 1.4844-3.6934-1.4844 1.0488-0.42188z" color="#000000"/>
 </g>
</svg>
