<svg width="16" height="16" version="1.1" viewBox="0 0 16 16" xmlns="http://www.w3.org/2000/svg">
  <path
     d="m 14.5,9.79 -4.707,4.707 0.70703,0.70703 4.707,-4.707 z m 0,3 -1.707,1.707 0.70703,0.70703 1.707,-1.707 z"
     color="#000000"
     stroke-linecap="square"
     stroke-miterlimit="2"
     style="fill:#363636" />
  <path
     d="M 2,0 C 0.892,0 0,0.892 0,2 v 11 c 0,1.108 0.892,2 2,2 H 9 V 14 H 2 C 1.446,14 1,13.554 1,13 V 2 C 1,1.446 1.446,1 2,1 h 11 c 0.554,0 1,0.446 1,1 v 7 h 1 V 2 C 15,0.892 14.108,0 13,0 Z"
     fill-rule="evenodd"
     stroke-linecap="round"
     stroke-linejoin="round"
     stroke-width="2"
     style="fill:#363636;paint-order:stroke fill markers" />
  <path
     d="m 2,2 v 4 7 H 6 V 6 h 7 V 2 H 6 Z m 1,1 h 2 7 V 5 H 5 v 7 H 3 V 5 Z"
     fill-rule="evenodd"
     stroke-linecap="round"
     stroke-linejoin="round"
     stroke-width="2"
     style="fill:#363636;paint-order:stroke fill markers" />
</svg>
