<svg width="16" height="16" version="1.1" viewBox="0 0 16 16" xmlns="http://www.w3.org/2000/svg">
  <path
     d="M 2,0 C 0.892,0 0,0.892 0,2 v 11 c 0,1.108 0.892,2 2,2 h 11 c 1.108,0 2,-0.892 2,-2 V 2 C 15,0.892 14.108,0 13,0 Z m 0,1 h 11 c 0.554,0 1,0.446 1,1 v 11 c 0,0.554 -0.446,1 -1,1 H 2 C 1.446,14 1,13.554 1,13 V 2 C 1,1.446 1.446,1 2,1 Z"
     style="fill:#363636;fill-rule:evenodd;stroke-width:2;stroke-linecap:round;stroke-linejoin:round;paint-order:stroke fill markers" />
  <path
     d="M 2,2 V 13 H 7 V 2 Z m 1,1 h 3 v 9 H 3 Z"
     style="fill:#363636;fill-rule:evenodd;stroke-width:2;stroke-linecap:round;stroke-linejoin:round;paint-order:stroke fill markers" />
  <path
     d="m 8,2 v 11 h 5 V 2 Z m 1,1 h 3 v 9 H 9 Z"
     style="fill:#363636;fill-rule:evenodd;stroke-width:2;stroke-linecap:round;stroke-linejoin:round;paint-order:stroke fill markers" />
</svg>
