<svg width="16px" height="16px" version="1.1" viewBox="0 0 16 16" xmlns="http://www.w3.org/2000/svg">
 <rect y="2" width="8" height="1" rx="0" ry="0" fill="#363636" opacity=".35" style="paint-order:stroke fill markers"/>
 <rect y="6" width="8" height="1" rx="0" ry="0" fill="#363636" style="paint-order:stroke fill markers"/>
 <rect y="10" width="8" height="1" rx="0" ry="0" fill="#363636" style="paint-order:stroke fill markers"/>
 <rect y="14" width="8" height="1" rx="0" ry="0" fill="#363636" style="paint-order:stroke fill markers"/>
 <path d="m10 2v0.50586 0.49414 0.50781 4.4922h1v-4.3359a5.25 5.25 0 0 1 4 5.0859 5.25 5.25 0 0 1-5 5.2305v1.002a6.25 6.25 0 0 0 6-6.2324 6.25 6.25 0 0 0-3.8203-5.75h3.8203v-1h-5-1z" fill="#363636" style="paint-order:stroke fill markers"/>
</svg>
