<svg width="16px" height="16px" version="1.1" viewBox="0 0 16 16" xmlns="http://www.w3.org/2000/svg">
 <path d="m8.3066 3.0469c-0.99726 0-1.7575 0.14674-2.2754 0.29688s-0.82422 0.32227-0.82422 0.32227c-0.239 0.13856-0.32034 0.44468-0.18164 0.68359 0.13856 0.239 0.44468 0.32034 0.68359 0.18164 0 0 0.051164-0.025468 0.095703-0.046875 0.37762 0.32319 1.6953 1.5893 1.6953 3.5156v1.5a0.5 0.5 0 0 0 0.5 0.5 0.5 0.5 0 0 0 0.5-0.5v-1.5c0-1.8169-0.94029-3.1344-1.5918-3.832 0.18329-0.033207 0.37949-0.062882 0.60547-0.083984a0.5 0.5 0 0 0 0.1875 0.31641s1.7988 1.3522 1.7988 3.5996v1.5a0.5 0.5 0 0 0 0.5 0.5 0.5 0.5 0 0 0 0.5-0.5v-1.5c0-1.8967-1.0267-3.2531-1.6777-3.9238 0.24576 0.025295 0.48794 0.06638 0.72656 0.125a0.5 0.5 0 0 0 0.15234 0.19922s1.7988 1.3522 1.7988 3.5996v1.5a0.5 0.5 0 0 0 0.5 0.5 0.5 0.5 0 0 0 0.5-0.5v-1.5c0-1.1468-0.3759-2.0963-0.81641-2.8164 0.49098 0.33616 0.94494 0.72708 1.3477 1.1504 1.2227 1.2852 1.9338 2.8806 1.9199 3.7168-0.01465 0.88505-0.34955 1.9111-0.89453 2.6758-0.54499 0.76467-1.2578 1.2728-2.0566 1.2734l-7.1465-0.001953c-1.3619 0.001042-2.2644-0.55177-2.8672-1.3164-0.60277-0.76464-0.89062-1.7854-0.89062-2.6816 0-0.82397 0.47269-1.8185 0.97461-2.582s1-1.2871 1-1.2871c0.19096-0.19954 0.18397-0.51612-0.015625-0.70703-0.20007-0.19044-0.51667-0.18257-0.70703 0.017578 0 0-0.55906 0.58458-1.1133 1.4277-0.55422 0.84315-1.1387 1.9548-1.1387 3.1309 0 1.1038 0.3354 2.3239 1.1055 3.3008 0.77007 0.97687 2.0143 1.6986 3.6523 1.6973l7.1465 0.001953c1.2012-9.61e-4 2.1988-0.75 2.8711-1.6934 0.67234-0.94336 1.0616-2.1236 1.0801-3.2383 0.022105-1.3352-0.83702-2.9961-2.1953-4.4238-1.3583-1.4278-3.2684-2.5977-5.4492-2.5977z" fill="#363636"/>
</svg>
