<svg width="16" height="16" version="1.1" xmlns="http://www.w3.org/2000/svg">
 <path d="m7 3v1h-3c-1.662 0-3 1.338-3 3s1.338 3 3 3h5.2949l-1.9766-1.9766c-0.19587-0.19587-0.19587-0.51116 0-0.70703 0.09793-0.097934 0.22571-0.14648 0.35352-0.14648s0.25558 0.048554 0.35352 0.14648l2.8281 2.8281c0.1469 0.1469 0.18282 0.3605 0.10938 0.54102v2e-3c-0.02448 0.05962-0.0608 0.1155-0.10938 0.16406l-2.8281 2.8301c-0.19587 0.19587-0.51116 0.19587-0.70703 0s-0.19587-0.51116 0-0.70703l1.9727-1.9746h-5.291c-2.216 0-4-1.784-4-4s1.784-4 4-4h3z" fill="#363636"/>
 <circle transform="scale(-1,1)" cx="-13.5" cy="10.5" r="1.5" fill="#363636"/>
</svg>
