<svg xmlns="http://www.w3.org/2000/svg" width="16" height="16"><path d="m10.988 10.015-.41.006c-3.033 0-1.082-6-5.115-6L5 4.015l-.011 1 .469.006c3.035 0 1.083 6 5.127 6l.416-.006z" style="fill-rule:nonzero;stroke:none;stroke-width:1px;stroke-linecap:butt;stroke-linejoin:miter;stroke-opacity:1;fill:#363636;fill-opacity:1"/><path d="M13.5 9a1.5 1.5 0 1 0 0 3 1.5 1.5 0 0 0 0-3zm0 1a.5.5 0 0 1 .5.5.5.5 0 0 1-.5.5.5.5 0 0 1-.5-.5.5.5 0 0 1 .5-.5zm-11-7a1.5 1.5 0 1 0 0 3 1.5 1.5 0 0 0 0-3zm0 1a.5.5 0 0 1 .5.5.5.5 0 0 1-.5.5.5.5 0 0 1-.5-.5.5.5 0 0 1 .5-.5z" style="fill:#363636;stroke-width:3.19471;fill-opacity:1"/></svg>