<svg xmlns="http://www.w3.org/2000/svg" width="15.982" height="16"><path d="M0 0v2a1 1 0 0 1 0 2v1a1 1 0 1 1 0 2v1a1 1 0 0 1 0 2v1a1 1 0 0 1 0 2v2h2a1 1 0 0 1 2 0h1a1 1 0 0 1 2 0h1a1 1 0 0 1 2 0h1a1 1 0 1 1 2 0h2v-2a1 1 0 1 1 0-2v-1a1 1 0 1 1 0-2V7a1 1 0 1 1 0-2V4a1 1 0 1 1 0-2V0h-2a1 1 0 1 1-2 0h-1a1 1 0 1 1-2 0H7a1 1 0 0 1-2 0H4a1 1 0 0 1-2 0H0zm2 2h11v11h-1.5c0-1.24-.19-2.352-.781-3.188a2.467 2.467 0 0 0-.156-.25c-.02-.022-.043-.04-.063-.062-.1-.127-.222-.208-.344-.313a2.522 2.522 0 0 0-.5-.343 2.198 2.198 0 0 0-.375-.157c-.494.48-1.07.688-1.781.688-.71 0-1.287-.208-1.781-.688-.112.04-.229.099-.344.157-.009.004-.023-.004-.031 0-.035.018-.06.043-.094.062-.254.143-.51.326-.719.563-.03.033-.064.06-.093.093-.04.05-.06.103-.094.157C3.7 10.562 3.5 11.717 3.5 13H2V2z" fill="#5d656b"/><circle cx="7.5" cy="6.308" r="2.308" style="marker:none" color="#5d656b" overflow="visible" fill="#5d656b"/></svg>