<svg width="16px" height="16px" version="1.1" xmlns="http://www.w3.org/2000/svg" xmlns:xlink="http://www.w3.org/1999/xlink">
 <g fill="#cc0000">
  <circle cx="8" cy="8" r="4" color="#000000" opacity=".35"/>
  <path transform="matrix(1.0267 0 0 1.0267 -1.754 -.14973)" d="m9.5 2.0937a5.8438 5.8438 0 0 0-5.8437 5.8437 5.8438 5.8438 0 0 0 5.8437 5.8438 5.8438 5.8438 0 0 0 5.8438-5.8438 5.8438 5.8438 0 0 0-5.8438-5.8437zm0 0.97396a4.8698 4.8698 0 0 1 4.8698 4.8698 4.8698 4.8698 0 0 1-4.8698 4.8698 4.8698 4.8698 0 0 1-4.8698-4.8698 4.8698 4.8698 0 0 1 4.8698-4.8698z" color="#000000"/>
 </g>
</svg>
