<svg width="16" height="16" version="1.1" xmlns="http://www.w3.org/2000/svg">
 <defs>
  <linearGradient id="a" x1="17.273" x2="28.696" y1="96.614" y2="99.996" gradientTransform="translate(-14.809 -90.107)" gradientUnits="userSpaceOnUse">
   <stop stop-color="#3daee9" stop-opacity="0" offset="0"/>
   <stop stop-color="#47b2eb" offset="1"/>
  </linearGradient>
 </defs>
 <path d="M5.781 1.002C4.914.981 3.993 1.272 3 2.113V3h-.084c1.926 2.867-4.36 5.799-.803 10H3v.084c2.866-1.925 5.8 4.358 10 .805V13h.084c-1.926-2.867 4.36-5.798.803-10H13v-.084c-2.19 1.47-4.417-1.846-7.219-1.914z" fill="url(#a)" opacity=".5"/>
 <path d="M5.578.502C4.753.527 3.883.822 3 1.477V3h-.717c.574.623.61 1.12.432 1.771-.188.69-.701 1.504-1.2 2.4C1.018 8.07.53 9.069.503 10.208c-.022.888.262 1.833.975 2.793H3v.717c.623-.574 1.12-.607 1.771-.43.69.188 1.504.699 2.4 1.197.898.499 1.897.986 3.036 1.014.888.022 1.833-.262 2.793-.974V13h.717c-.574-.623-.607-1.12-.43-1.771.188-.69.699-1.504 1.197-2.4.499-.898.988-1.897 1.016-3.036.022-.888-.264-1.833-.977-2.793H13v-.717c-.623.574-1.12.607-1.771.43-.69-.188-1.504-.699-2.4-1.197C7.93 1.017 6.931.53 5.792.502a3.89 3.89 0 0 0-.215 0Zm.192.998c.86.021 1.715.412 2.574.889.858.477 1.703 1.038 2.623 1.289.758.207 1.585.027 2.353-.498.866.966 1.199 1.81 1.18 2.59-.021.86-.412 1.713-.889 2.572-.477.858-1.038 1.703-1.289 2.623-.207.758-.025 1.587.5 2.355-.967.867-1.81 1.197-2.59 1.178-.86-.021-1.715-.41-2.574-.887-.859-.477-1.703-1.038-2.623-1.289-.758-.207-1.587-.027-2.355.498-.866-.966-1.197-1.81-1.178-2.59.02-.86.412-1.713.889-2.572.477-.859 1.038-1.703 1.289-2.623.207-.758.025-1.587-.5-2.355.966-.866 1.81-1.2 2.59-1.18z" fill="#363636" fill-opacity=".972" style="-inkscape-stroke:none"/>
 <path d="M1 0C.446 0 0 .446 0 1v2c0 .554.446 1 1 1h2c.554 0 1-.446 1-1V1c0-.554-.446-1-1-1Zm0 1h2v2H1Zm12-1c-.554 0-1 .446-1 1v2c0 .554.446 1 1 1h2c.554 0 1-.446 1-1V1c0-.554-.446-1-1-1Zm0 1h2v2h-2zM1 12c-.554 0-1 .446-1 1v2c0 .554.446 1 1 1h2c.554 0 1-.446 1-1v-2c0-.554-.446-1-1-1Zm0 1h2v2H1Zm12-1c-.554 0-1 .446-1 1v2c0 .554.446 1 1 1h2c.554 0 1-.446 1-1v-2c0-.554-.446-1-1-1zm0 1h2v2h-2z" fill="#3daee9" style="paint-order:stroke fill markers"/>
</svg>
