<svg width="16px" height="16px" version="1.1" viewBox="0 0 16 16" xmlns="http://www.w3.org/2000/svg">
 <path d="m4 0c-1.6602 0-3 1.3398-3 3v8c0 1.6602 1.3398 3 3 3v-1c-1.108 0-2-0.892-2-2v-3h11v3c0 1.108-0.892 2-2 2v1c1.6602 0 3-1.3398 3-3v-8c0-1.6602-1.3398-3-3-3h-7zm0 1h7c1.108 0 2 0.892 2 2h-11c0-1.108 0.892-2 2-2zm-2 3h11v3h-11v-3zm4.4688 5.0195c-0.27344 0-0.49219 0.21875-0.49219 0.49219 0 0.26953 0.21875 0.48828 0.49219 0.48828h2.0391c0.27344 0 0.49219-0.21875 0.49219-0.48828 0-0.27344-0.21875-0.49219-0.49219-0.49219h-2.0391zm-1.4688 3.9805v1h1v2h1v-2h1v2h1v-2h1v-1h-5z" fill="#363636" stroke-width="1.1055"/>
</svg>
