<svg width="16" height="16" version="1.1" xmlns="http://www.w3.org/2000/svg">
 <path d="m10.828 2.8281-2.8281-2.8281-2.8281 2.8281 0.70703 0.70703 1.6211-1.6211v3.0859h1v-3.0859l1.6211 1.6211z" fill="#363636"/>
 <path d="m10.828 13.172-2.8281 2.8281-2.8281-2.8281 0.70703-0.70703 1.6211 1.6211v-3.0859h1v3.0859l1.6211-1.6211z" fill="#363636"/>
 <path d="m13.172 10.828 2.8281-2.8281-2.8281-2.8281-0.70703 0.70703 1.6211 1.6211h-3.0859v1h3.0859l-1.6211 1.6211z" fill="#363636"/>
 <path d="m2.828 10.828-2.8281-2.8281 2.8281-2.8281 0.70703 0.70703-1.6211 1.6211h3.0859v1h-3.0859l1.6211 1.6211z" fill="#363636"/>
 <circle cx="8" cy="8" r="1" fill="#363636"/>
</svg>
