<svg width="16" height="16" version="1.1" xmlns="http://www.w3.org/2000/svg">
 <path d="m8 1a3 3 0 0 0-3 3 3 3 0 0 0 3 3 3 3 0 0 0 3-3 3 3 0 0 0-3-3zm0 1a2 2 0 0 1 2 2 2 2 0 0 1-2 2 2 2 0 0 1-2-2 2 2 0 0 1 2-2zm-2 6c-2.216 0-4 1.784-4 4v2h7v-1h-6v-1c0-1.662 1.338-3 3-3h4c0.7714 0 1.4701 0.29204 2 0.76758v-1.2344c-0.58758-0.33861-1.2703-0.5332-2-0.5332z" fill="#363636" stroke-linecap="round" stroke-linejoin="round" stroke-width="2"/>
 <path d="m13 8v1 2.2695a2 2 0 0 0-1-0.26953 2 2 0 0 0-2 2 2 2 0 0 0 2 2 2 2 0 0 0 2-2v-4h2v-1h-2-1zm-1 4a1 1 0 0 1 1 1 1 1 0 0 1-1 1 1 1 0 0 1-1-1 1 1 0 0 1 1-1z" fill="#363636" stroke-linecap="round" stroke-linejoin="round" stroke-width="2"/>
</svg>
