<svg width="16px" height="16px" version="1.1" viewBox="0 0 16 16" xmlns="http://www.w3.org/2000/svg">
 <path d="m11.25 8.0098a3.5 3.5 0 0 0-2.2246 1.0156 3.5 3.5 0 0 0 0 4.9492 3.5 3.5 0 0 0 4.5703 0.32812h0.001953l1.4375 1.4395 0.70703-0.70703-1.4395-1.4395a3.5 3.5 0 0 0-0.32812-4.5703 3.5 3.5 0 0 0-2.7246-1.0156zm0.033203 0.99414a2.4874 2.4874 0 0 1 1.9766 0.7207 2.4874 2.4874 0 0 1-0.001954 3.5176 2.4874 2.4874 0 0 1-3.5156 0 2.4874 2.4874 0 0 1-0.0019531-3.5176 2.4874 2.4874 0 0 1 1.543-0.7207z" fill="#363636"/>
 <path class="ColorScheme-Text" d="m2 2c-1.108 0-2 0.892-2 2v9c0 1.108 0.892 2 2 2h5v-1h-5c-0.554 0-1-0.446-1-1v-6h14v1h1v-3c0-1.108-0.892-2-2-2h-7.6289c-0.57985-0.0229-0.6047 0.076884-1.0391-0.35742-0.43381-0.43381-0.613-0.64213-1.332-0.64258zm0 1h2c0.31116-1.7e-6 0.52033 1.419e-4 0.99805 0.4707 0.47877 0.47161 0.6388 0.5293 1 0.5293h8.002c0.554 0 1 0.446 1 1v1h-14v-2c0-0.554 0.446-1 1-1z" color="#363636" fill="currentColor"/>
</svg>
