<svg width="16" height="16" version="1.0" xmlns="http://www.w3.org/2000/svg">
 <path d="m14 2v6c0 1.108-0.892 2-2 2h-8.293l3.3887 3.3887c0.19587 0.19587 0.19587 0.51116 0 0.70703s-0.51116 0.19587-0.70703 0l-4.2422-4.2422c-0.01189-0.011886-0.02276-0.024396-0.0332-0.037109-3.22e-4 -3.952e-4 3.22e-4 -0.00156 0-0.00195-0.06385-0.078191-0.10185-0.17077-0.11133-0.26562-6.1e-5 -6.357e-4 5.9e-5 -0.00132 0-0.00195-3e-3 -0.0312-0.0029-0.062541 0-0.09375 6e-5 -6.208e-4 -6.2e-5 -0.00133 0-0.00195 0.0091-0.095028 0.04766-0.18717 0.11133-0.26562 3.11e-4 -3.808e-4 -3.12e-4 -0.00157 0-0.00195 0.01071-0.013117 0.02096-0.024868 0.0332-0.037109l4.2422-4.2422c0.19587-0.19587 0.51116-0.19587 0.70703 0s0.19587 0.51116 0 0.70703l-3.3887 3.3887h8.2929c0.554 0 1-0.446 1-1v-6h1z" fill="#363636"/>
</svg>
