<svg width="16px" height="16px" version="1.1" viewBox="0 0 16 16" xmlns="http://www.w3.org/2000/svg">
 <path d="m5 0c-1.662 0-3 1.338-3 3v3c0 1.662 1.338 3 3 3v1h-1v1h3v1.2734a2 2 0 0 0-0.72656 0.72656h-2.2734c-1.108 0-2 0.892-2 2h1c0-0.554 0.446-1 1-1h2a2 2 0 0 0 2 2 2 2 0 0 0 2-2h2c0.554 0 1 0.446 1 1h1c0-1.108-0.892-2-2-2h-2.2695a2 2 0 0 0-0.73047-0.73047v-1.2695h3v-1h-1v-1c1.662 0 3-1.338 3-3v-3c0-1.662-1.338-3-3-3h-6zm0 1h6c1.108 0 2 0.892 2 2v3c0 1.108-0.892 2-2 2h-6c-1.108 0-2-0.892-2-2v-3c0-1.108 0.892-2 2-2zm1 8h4v1h-4v-1zm2 4a1 1 0 0 1 1 1 1 1 0 0 1-1 1 1 1 0 0 1-1-1 1 1 0 0 1 1-1z" fill="#363636"/>
</svg>
