<svg width="16" height="16" version="1.1" viewBox="0 0 16 16" xmlns="http://www.w3.org/2000/svg">
 <title>Gnome Symbolic Icon Theme</title>
 <path d="m6-0.011719c-1.0579 0.0056498-1.9285 0.83425-1.9863 1.8906l2.0977 2.0977c1.0564-0.058883 1.8841-0.93029 1.8887-1.9883 0-1.1046-0.89543-2-2-2zm0 1c0.55228 0 1 0.44772 1 1s-0.44772 1-1 1-1-0.44772-1-1 0.44772-1 1-1zm-0.83203 3.459 1.8613 5.209c0.070995 0.19901 0.25941 0.33192 0.4707 0.33203h3.209l-1-1h-1.8574l-0.71289-2h0.57031zm2.9551 1.541 1 1h2.377c0.277 0 0.5-0.223 0.5-0.5 0-0.277-0.223-0.5-0.5-0.5zm3 3 2.1621 2.1621-0.82812-1.8652c-0.080296-0.18058-0.25941-0.29692-0.45703-0.29688z" color="#000000" fill="#363636" stroke-linecap="round" stroke-linejoin="round" stroke-width="2" style="paint-order:stroke fill markers"/>
 <path d="m3.6797 5.7871a5.5 5.5 0 0 0-2.6797 4.7012 5.5 5.5 0 0 0 5.5 5.5 5.5 5.5 0 0 0 4.6973-2.6836l-0.73242-0.73242a4.5 4.5 0 0 1-3.9648 2.416 4.5 4.5 0 0 1-4.5-4.5 4.5 4.5 0 0 1 2.4199-3.9609l-0.74023-0.74023zm7.2813 5.2012a4.5 4.5 0 0 1-0.10742 0.55859l0.75391 0.75391-0.58203-1.3125h-0.064453z" fill="#363636" opacity=".35" stop-color="#000000" stroke-linecap="round" stroke-linejoin="round" stroke-width="1.8333" style="paint-order:stroke fill markers"/>
 <rect transform="rotate(45)" x="1.3216" y="-.51002" width="20" height="1" fill="#363636" stop-color="#000000" stroke-linejoin="round" stroke-width="2.2361" style="paint-order:stroke fill markers"/>
</svg>
