<svg xmlns="http://www.w3.org/2000/svg" width="16" height="16"><path d="M3 16c-.554 0-1-.446-1-1H0v-1h2v-1c0-.554.446-1 1-1h2c.554 0 1 .446 1 1v1h4v-1c0-.554.446-1 1-1h2c.554 0 1 .446 1 1v1h2v1h-2c0 .554-.446 1-1 1h-2c-.554 0-1-.446-1-1H6c0 .554-.446 1-1 1zm0-1h2v-2H3Zm8 0h2v-2h-2zM7.503 5.006h.994V10h-.994z" style="fill:#363636;stroke-linecap:round;stroke-linejoin:round;stop-color:#000"/><path d="M-2.121 12.435h4v1h-4z" style="fill:#363636;stroke-linecap:round;stroke-linejoin:round;stop-color:#000" transform="rotate(-45)"/><path d="M-13.435 1.121h4v1h-4z" style="fill:#363636;stroke-linecap:round;stroke-linejoin:round;stop-color:#000" transform="scale(-1 1) rotate(-45)"/><path d="M3 4c-.554 0-1-.446-1-1V1c0-.554.446-1 1-1h2c.554 0 1 .446 1 1v2c0 .554-.446 1-1 1Zm0-1h2V1H3Zm8 1c-.554 0-1-.446-1-1V1c0-.554.446-1 1-1h2c.554 0 1 .446 1 1v2c0 .554-.446 1-1 1zm0-1h2V1h-2z" style="fill:#363636;stroke-linecap:round;stroke-linejoin:round;stop-color:#000"/><path d="M0-3h2v1H0zm14 0h2v1h-2z" style="fill:#363636;stroke-linecap:round;stroke-linejoin:round;stop-color:#000" transform="scale(1 -1)"/></svg>