<svg xmlns="http://www.w3.org/2000/svg" width="16" height="16"><path d="M4 4h8v1H4z" style="fill:#363636;stroke-linecap:round;stroke-linejoin:round;stop-color:#000"/><path d="M7.5.5h1v8h-1z" style="fill:#363636;stroke-width:1;stroke-linecap:round;stroke-linejoin:round;stop-color:#000"/><path d="M6 11c-.554 0-1 .446-1 1v3c0 .554.446 1 1 1h4c.554 0 1-.446 1-1v-3c0-.554-.446-1-1-1H6zm0 1h4v3H6v-3zm-6 1v1h5v-1H0zm11 0v1h5v-1h-5z" style="fill:#363636;stroke-linecap:round;stroke-linejoin:round;stop-color:#000"/></svg>