<svg width="16.016" height="16" version="1.1" xmlns="http://www.w3.org/2000/svg">
 <path d="m15.457-2e-3a0.5 0.5 0 0 1 0.285 0.936s-0.78 0.439-1.602 1.554c-0.674 0.915-1.356 2.265-1.58 4.178h-1.004c0.233-2.15 1.002-3.716 1.78-4.771 0.931-1.265 1.908-1.829 1.908-1.829a0.5 0.5 0 0 1 0.213-0.068zm-2.899 9.336c0.222 1.92 0.907 3.272 1.582 4.186 0.822 1.11 1.6 1.544 1.6 1.544a0.5 0.5 0 0 1 0.26 0.44 0.5 0.5 0 0 1-0.754 0.432s-0.978-0.563-1.91-1.823c-0.78-1.054-1.55-2.622-1.781-4.779z" color="#000000" color-rendering="auto" dominant-baseline="auto" fill="#363636" image-rendering="auto" opacity=".75" shape-rendering="auto" solid-color="#000000" style="font-feature-settings:normal;font-variant-alternates:normal;font-variant-caps:normal;font-variant-ligatures:normal;font-variant-numeric:normal;font-variant-position:normal;isolation:auto;mix-blend-mode:normal;shape-padding:0;text-decoration-color:#000000;text-decoration-line:none;text-decoration-style:solid;text-indent:0;text-orientation:mixed;text-transform:none;white-space:normal"/>
 <path d="m13.326 5.334c0.739 0 1.332 0.593 1.332 1.332v2.668c0 0.739-0.593 1.332-1.332 1.332h-2.668c-0.739 0-1.332-0.593-1.332-1.332v-2.668c0-0.739 0.593-1.332 1.332-1.332zm0 1.332h-2.668v2.668h2.668z" fill="#363636" stop-color="#000000" stroke-linecap="round" stroke-linejoin="round"/>
 <rect transform="scale(-1,1)" x="-13.325" y="6.667" width="2.667" height="2.667" rx="0" ry="0" fill="#363636" opacity=".5" stop-color="#000000" stroke-linecap="round" stroke-linejoin="round"/>
 <path d="m7.992 7.333h-8v1.333h8z" fill="#363636" stop-color="#000000" stroke-linecap="round" stroke-linejoin="round"/>
 <path d="m4.659 4h-1.333v8h1.333z" fill="#363636" stop-color="#000000" stroke-linecap="round" stroke-linejoin="round"/>
</svg>
