<svg xmlns="http://www.w3.org/2000/svg" width="16" height="16"><path d="M.453.002c-.664.063-.57 1.063.094 1 1.633 0 2.782.533 3.676 1.344.893.81 1.516 1.911 1.931 3.125.361 1.056.562 2.161.68 3.164a.997.997 0 0 1 .98-.205 15.905 15.905 0 0 0-.726-3.272c-.452-1.32-1.117-2.598-2.18-3.562C3.846.63 2.397.002.547.002a.49.49 0 0 0-.094 0zm15.094.014A.501.501 0 0 0 15 .47c-.415 4.405-2.456 7.132-5.645 9.35l.752.751C13.382 8.22 15.563 5.183 15.998.563a.502.502 0 0 0-.451-.548z" style="fill:#363636;fill-opacity:1;stroke-width:.998328"/><path d="M4.672 10.793a.998.998 0 0 0 0 1.414l2.12 2.121a.998.998 0 0 0 1.415 0l2.121-2.12a.998.998 0 0 0 0-1.415l-2.12-2.121a.998.998 0 0 0-1.415 0Zm.707.707L7.5 9.379 9.621 11.5 7.5 13.621Z" style="fill:#363636;stroke-linecap:round;stroke-linejoin:round;stop-color:#000"/></svg>