<svg xmlns="http://www.w3.org/2000/svg" width="16" height="16"><path d="M7 0c-.554 0-1 .446-1 1v3c0 .554.446 1 1 1h2c.554 0 1-.446 1-1V1c0-.554-.446-1-1-1H7zm0 1h2v3H7V1z" style="fill:#363636;stroke-linecap:round;stroke-linejoin:round;stop-color:#000"/><path d="M0 2v1h7V2H0zm9 0v1h7V2H9zM7.503 6.006h.994V11h-.994z" style="fill:#363636;stroke-linecap:round;stroke-linejoin:round;stop-color:#000"/><path d="M-2.828 13.142h4v1h-4z" style="fill:#363636;stroke-linecap:round;stroke-linejoin:round;stop-color:#000" transform="rotate(-45)"/><path d="M-14.142 1.828h4v1h-4z" style="fill:#363636;stroke-linecap:round;stroke-linejoin:round;stop-color:#000" transform="scale(-1 1) rotate(-45)"/><path d="M3 12c-.554 0-1 .446-1 1v2c0 .554.446 1 1 1h2c.554 0 1-.446 1-1v-2c0-.554-.446-1-1-1H3zm0 1h2v2H3v-2zm8-1c-.554 0-1 .446-1 1v2c0 .554.446 1 1 1h2c.554 0 1-.446 1-1v-2c0-.554-.446-1-1-1zm0 1h2v2h-2zM0 13h2v1H0zm14 0h2v1h-2z" style="fill:#363636;stroke-linecap:round;stroke-linejoin:round;stop-color:#000"/></svg>