<svg width="16" height="16" version="1.1" viewBox="0 0 16 16" xmlns="http://www.w3.org/2000/svg" xmlns:osb="http://www.openswatchbook.org/uri/2009/osb">
 <g transform="translate(0 -1037.4)">
  <path transform="translate(0 1037.4)" d="m8 1a1 1 0 0 0-1 1 1 1 0 0 0 0.0097656 0.13672c-1.7312 0.44034-3.0098 1.9912-3.0098 3.8633v2 1a2 2 0 0 1-2 2v1h6 6v-1a2 2 0 0 1-2-2v-1-2c0-1.8727-1.2796-3.4236-3.0117-3.8633a1 1 0 0 0 0.011719-0.13672 1 1 0 0 0-1-1zm0 2c1.662 0 3 1.338 3 3v3a3 3 0 0 0 0.76953 2h-3.7695-3.7695a3 3 0 0 0 0.76953-2v-3c0-1.662 1.338-3 3-3zm-1 10a1 1 0 0 0 1 1 1 1 0 0 0 1-1h-2z" fill="#363636"/>
 </g>
</svg>
