<svg width="16" height="16" version="1.1" xmlns="http://www.w3.org/2000/svg" xmlns:osb="http://www.openswatchbook.org/uri/2009/osb">
 <path d="m14.449 4.5222c-0.19587-0.19587-0.51124-0.19587-0.70711 0l-6.7175 6.7175-3.8891-3.8891c-0.19587-0.19587-0.51124-0.19587-0.70711 0-0.19587 0.19587-0.19587 0.51124 0 0.70711l4.2426 4.2426c0.024484 0.02448 0.050951 0.04657 0.078745 0.06489 0.027724 0.01839 0.056922 0.03333 0.087009 0.04557s0.061047 0.02012 0.092535 0.02624c0.031482 0.0061 0.063339 0.0097 0.095296 0.0097 0.03195 3e-6 0.06381-0.0035 0.095295-0.0097 0.031485-0.0061 0.062443-0.01399 0.092536-0.02624 0.030085-0.01224 0.059254-0.02721 0.087007-0.04557 0.027714-0.01833 0.0542-0.04039 0.078684-0.06487l7.0711-7.0711c0.19587-0.19587 0.19587-0.51124 0-0.70711z" fill="#363636"/>
</svg>
