<svg xmlns="http://www.w3.org/2000/svg" width="16" height="16"><path d="M6.729 0a.5.485 0 0 0-.467.602l.355 1.5a8 6 0 0 1 1.008-.084L7.238.383A.5.485 0 0 0 6.728 0zm3.12 0a.5.485 0 0 0-.464.357l-.5 1.68a8 6 0 0 1 1.002.133l.459-1.545A.5.485 0 0 0 9.85 0zM3.978 1.092a.5.485 0 0 0-.41.734l.556.934a8 6 0 0 1 .957-.338L4.434 1.34a.5.485 0 0 0-.457-.248zm8.388.215a.5.485 0 0 0-.396.234l-.64 1.004a8 6 0 0 1 .933.379l.556-.873a.5.485 0 0 0-.453-.744zM1.995 2.85a.5.485 0 0 0-.349.832l.37.357a8 6 0 0 1 .802-.594l-.464-.449a.5.485 0 0 0-.36-.146zm11.984 0a.5.485 0 0 0-.374.191l-.351.438a8 6 0 0 1 .79.591l.35-.433a.5.485 0 0 0-.415-.787zM.994 4.79a.5.485 0 0 0-.348.83l.012.01a8 6 0 0 1 .555-.788.5.485 0 0 0-.219-.053zm13.996 0a.5.485 0 0 0-.195.044 8 6 0 0 1 .55.793l.009-.008a.5.485 0 0 0-.364-.83z" style="stroke-width:.984519;stroke-linecap:round;fill:#363636;fill-opacity:1"/><path d="M8 2a8 6 0 0 0-8 6 8 6 0 0 0 8 6 8 6 0 0 0 8-6 8 6 0 0 0-8-6zm0 1a7 5 0 0 1 7 5 7 5 0 0 1-7 5 7 5 0 0 1-7-5 7 5 0 0 1 7-5z" style="fill:#363636;stroke-width:1.01966;stroke-linecap:round;stroke-linejoin:round;stop-color:#000"/><path d="M8 5a3 3 0 0 0-3 3 3 3 0 0 0 3 3 3 3 0 0 0 3-3 3 3 0 0 0-3-3zM6.5 6a.5.5 0 0 1 .5.5.5.5 0 0 1-.5.5.5.5 0 0 1-.5-.5.5.5 0 0 1 .5-.5z" style="fill:#363636;stroke-linecap:round;stroke-linejoin:round;stop-color:#000"/></svg>