<svg xmlns="http://www.w3.org/2000/svg" width="16" height="16"><path d="M7.969 1.215a6.709 6.709 0 0 0-.73.05L1.78 5.544a6.709 6.709 0 0 0-.355 1.336l7.011-5.652a6.709 6.709 0 0 0-.384-.012 6.709 6.709 0 0 0-.084 0zm1.17.088L1.354 7.58a6.709 6.709 0 0 0-.01.344 6.709 6.709 0 0 0 .04.73l3.126-2.59a4 4 0 0 1 2.244-1.857l3.258-2.7a6.709 6.709 0 0 0-.873-.204zm-3 .191a6.709 6.709 0 0 0-3.87 3.031l3.87-3.03zm4.422.207L7.766 4.018A4 4 0 0 1 8 4a4 4 0 0 1 .855.094l2.416-2.055a6.709 6.709 0 0 0-.71-.338zm1.164.608-2.3 1.955a4 4 0 0 1 .733.369l2.16-1.885a6.709 6.709 0 0 0-.593-.44zm.97.773-2.127 1.854a4 4 0 0 1 .537.544l2.088-1.867a6.709 6.709 0 0 0-.498-.531zm.805.928-2.104 1.879a4 4 0 0 1 .354.722l2.152-1.968a6.709 6.709 0 0 0-.402-.633zm.639 1.094-2.23 2.04A4 4 0 0 1 12 8a4 4 0 0 1-.01.145l2.444-2.288a6.709 6.709 0 0 0-.295-.753zm.445 1.296-2.703 2.53a4 4 0 0 1-3.215 3.008l-2.568 2.404a6.709 6.709 0 0 0 1.05.228l7.584-7.252a6.709 6.709 0 0 0-.148-.918zm-10.457.633-2.654 2.2a6.709 6.709 0 0 0 .252.923l2.29-1.947A4 4 0 0 1 4 8a4 4 0 0 1 .127-.967zm10.633.95-6.947 6.644a6.709 6.709 0 0 0 .24.006 6.709 6.709 0 0 0 1.117-.096l5.469-5.342a6.709 6.709 0 0 0 .12-1.213zM4.092 8.8l-2.17 1.844a6.709 6.709 0 0 0 .422.8L4.37 9.678a4 4 0 0 1-.28-.877zm.523 1.326-1.992 1.736a6.709 6.709 0 0 0 .57.686l1.961-1.752a4 4 0 0 1-.539-.67zm9.766.02L10.127 14.3a6.709 6.709 0 0 0 4.254-4.155zm-8.854.986-1.974 1.765a6.709 6.709 0 0 0 .71.561l2.022-1.85a4 4 0 0 1-.758-.476zm1.278.68-2.102 1.923a6.709 6.709 0 0 0 .863.418L7.88 11.99a4 4 0 0 1-1.074-.178z" style="opacity:.5;stroke-width:1.14443;fill:#363636;fill-opacity:1"/><path d="M4.646 2.505a.662.662 0 0 1-.661.662.662.662 0 0 1-.662-.662.662.662 0 0 1 .662-.661.662.662 0 0 1 .661.661Z" style="fill:#363636;stroke:none;stroke-width:.330812;stroke-miterlimit:4;stroke-dasharray:none;stroke-opacity:1;fill-opacity:1"/><path d="M8 3a5 5 0 0 0-5 5 5 5 0 0 0 5 5 5 5 0 0 0 5-5 5 5 0 0 0-5-5zm0 1a4 4 0 0 1 4 4 4 4 0 0 1-4 4 4 4 0 0 1-4-4 4 4 0 0 1 4-4z" style="opacity:1;stroke-width:1.13907;fill:#363636;fill-opacity:1"/><circle cx="8" cy="8" r="3" style="fill:#363636;stroke-width:1.00969;stroke-linecap:round;stroke-linejoin:round;stop-color:#000"/></svg>