<svg width="16px" height="16px" version="1.1" viewBox="0 0 16 16" xmlns="http://www.w3.org/2000/svg">
 <path d="m3 1c-1.662 0-3 1.338-3 3v7c0 1.662 1.338 3 3 3h1 2.5c0.554 0 1 0.446 1 1v1h1v-1c0-0.554 0.446-1 1-1h2.5 1c1.662 0 3-1.338 3-3v-7c0-1.662-1.338-3-3-3h-1-2.5c-0.59934 0-1.1341 0.26273-1.5 0.67773-0.36595-0.41501-0.90066-0.67773-1.5-0.67773h-2.5-1zm0 1h1 2.5c0.554 0 1 0.446 1 1v10.266c-0.29376-0.16912-0.63536-0.26562-1-0.26562h-2.5-1c-1.108 0-2-0.892-2-2v-7c0-1.108 0.892-2 2-2zm6.5 0h2.5 1c1.108 0 2 0.892 2 2v7c0 1.108-0.892 2-2 2h-1-2.5c-0.36464 0-0.70624 0.096503-1 0.26562v-10.266c0-0.554 0.446-1 1-1zm-6.5 2v1h3v-1h-3zm7 0v1h3v-1h-3zm-7 2v1h3v-1h-3zm7 0v1h3v-1h-3zm-7 2v1h3v-1h-3zm7 0v1h2v-1h-2z" fill="#363636"/>
</svg>
