<svg width="16" height="16" version="1.1" viewBox="0 0 16 16" xmlns="http://www.w3.org/2000/svg">
 <g transform="translate(-100.28 -119.81)">
  <path d="m113.09 119.81c-1.7976 0-2.9198 1.3122-3.2832 2.5859-0.18168 0.63687-0.20276 1.2762-0.01367 1.8262 0.09719 0.28275 0.27763 0.54778 0.51953 0.73828-0.28029-0.04311-0.57285-0.06723-0.875-0.07227-0.51937-9e-3 -1.0641 0.03925-1.6133 0.13672-1.0984 0.19485-2.2112 0.59705-3.1328 1.2305-0.23041 0.15836-0.44954 0.33203-0.65235 0.52149-0.60842 0.56835-1.0714 1.2756-1.2598 2.1191-0.34541 1.5456 0.34577 3.2447 1.4961 4.5781s2.8031 2.3359 4.5723 2.3359c1.8509 0 3.7782-1.5354 4.1641-3.5801 0.0493-0.26129 0.01384-0.53939-0.11328-0.76172-0.12714-0.22238-0.32554-0.37239-0.52735-0.46679-0.4036-0.18878-0.85096-0.2073-1.2949-0.16211-0.44395 0.0452-0.87974 0.16363-1.2461 0.36328-0.18318 0.0998-0.35286 0.21915-0.49024 0.39258-0.13739 0.17343-0.23955 0.42828-0.20508 0.6914 0.0504 0.38518-0.07173 0.54328-0.19921 0.61328-0.12743 0.07-0.35753 0.09263-0.69727-0.16601-0.31088-0.23669-0.41935-0.41919-0.44531-0.51367-0.0259-0.0945-0.01932-0.15119 0.08008-0.30079 0.19883-0.2992 0.8308-0.7538 1.5723-1.2129 0.74147-0.4591 1.5849-0.95277 2.248-1.5684 0.66311-0.6156 1.1773-1.432 1.0156-2.3926-0.12102-0.71913-0.66849-1.2146-1.3555-1.5039 0.56697-0.0664 1.0918-0.38871 1.5879-0.79492 0.55787-0.45676 1.068-1.0464 1.4316-1.6602 0.36364-0.61379 0.61857-1.2533 0.46289-1.8984-0.0778-0.32255-0.29472-0.63178-0.60547-0.8164-0.31075-0.18463-0.69121-0.26172-1.1406-0.26172zm-9.0508 6.9668c0.11078-0.09986 0.1858-0.22372 0.23633-0.33985 0.0779-0.17902 0.11136-0.3604 0.125-0.54883 0.0273-0.37684-0.02672-0.78364-0.14648-1.1699-0.0067-0.02159-0.01444-0.04297-0.02149-0.06445 0.08437 0.12938 0.17862 0.24949 0.28125 0.35742 0.26342 0.27701 0.62388 0.52946 1.084 0.43555 0.25926-0.0529 0.4449-0.21983 0.5664-0.38867 0.12151-0.16885 0.19798-0.35354 0.25586-0.55078 0.11578-0.39449 0.15397-0.84416 0.11524-1.2852-0.0387-0.44099-0.14091-0.87598-0.42774-1.2305-0.14342-0.17724-0.3505-0.33322-0.60156-0.39648-0.12553-0.0316-0.25573-0.03909-0.38672-0.02539-0.13098 0.0137-0.26282 0.04772-0.38867 0.0996-0.48802 0.20139-0.80538 0.6225-0.91016 1.0547s-0.04355 0.8665 0.08985 1.2598c0.00135 0.00398 0.00254 0.0097 0.0039 0.01367-0.08022-0.11096-0.17449-0.21413-0.28711-0.30469-0.16637-0.13378-0.38774-0.23589-0.63281-0.24414-0.24506-8e-3 -0.48898 0.07683-0.69727 0.2207-0.40278 0.2783-0.61286 0.72756-0.62304 1.1406-0.0102 0.41307 0.13237 0.79271 0.32812 1.1191s0.44836 0.60417 0.74024 0.80273c0.29189 0.19856 0.67262 0.36264 1.084 0.18165 0.08182-0.03602 0.15289-0.08264 0.21289-0.13672zm4.2324-6.4219c-0.07384-5.8e-4 -0.14757 0.00393-0.22265 0.01367-0.58407 0.0758-1.042 0.43095-1.2793 0.86524-0.23729 0.43428-0.298 0.92691-0.26758 1.3965 0.0304 0.46957 0.15243 0.92176 0.35742 1.2988s0.51845 0.74285 1.0195 0.77344c0.28027 0.0171 0.51851-0.1036 0.69531-0.24805 0.17681-0.14445 0.31471-0.3214 0.43554-0.51953 0.24167-0.39627 0.41441-0.88092 0.50196-1.377 0.0875-0.49602 0.10239-1.0038-0.10156-1.4629-0.10197-0.22955-0.27437-0.44909-0.51954-0.58594-0.18387-0.10263-0.39761-0.15255-0.61914-0.1543zm4.8184 0.45508c0.33073 0 0.53054 0.06269 0.62891 0.12109 0.0984 0.0584 0.12182 0.09731 0.14453 0.19141 0.0454 0.18825-0.05491 0.65695-0.34961 1.1543-0.29465 0.49736-0.74706 1.0199-1.207 1.3965-0.45998 0.3766-0.93824 0.58203-1.166 0.58203-0.22788 0-0.30495-0.07414-0.40234-0.35742-0.0974-0.28334-0.10596-0.75425 0.0293-1.2285 0.27059-0.94855 0.9994-1.8594 2.3223-1.8594zm-4.8242 0.54297c0.07573-6.1e-4 0.11322 0.01647 0.13672 0.0293 0.0314 0.0175 0.05945 0.04188 0.09375 0.11914 0.0686 0.15451 0.09735 0.50845 0.03125 0.88281-0.0661 0.37435-0.21445 0.76924-0.37304 1.0293-0.0793 0.13003-0.16157 0.22564-0.21289 0.26757-0.0053 0.0045-0.00985 0.00668-0.01172 0.00782-9e-4 5.3e-4 -0.00251 9.2e-4 -0.00391 0.00195l-0.00195-0.00195c-0.01493-0.01462-0.09107-0.06452-0.18555-0.23829-0.11891-0.21872-0.21693-0.5552-0.23828-0.88476-0.0213-0.32956 0.03492-0.64733 0.14648-0.85156 0.11159-0.20424 0.23728-0.31536 0.53125-0.35352 0.03471-0.0045 0.06265-0.00761 0.08789-0.00781zm-3.0293 1.209c0.01346-2.4e-4 0.0203 0.00263 0.02539 0.00391v-0.00195c0.0136 3e-3 0.02976 0.00934 0.06836 0.05664 0.0772 0.0954 0.18106 0.37155 0.20898 0.68945 0.0279 0.31791-0.00682 0.67469-0.07812 0.91602-0.0288 0.098-0.06119 0.1553-0.08789 0.20117-0.0323-0.0186-0.07485-0.04253-0.13477-0.10547-0.13929-0.14648-0.29253-0.39781-0.38086-0.6582-0.0883-0.26039-0.10945-0.52576-0.06641-0.70313 0.043-0.17736 0.10457-0.27539 0.32227-0.36523 0.0632-0.02607 0.10061-0.0328 0.12305-0.03321zm-2.2812 1.8848c8e-4 -8e-5 0.00332 1e-5 0.0039 0h0.00196 0.00195 0.00195l0.00196 0.00195c0.0055 0.00244 0.01695 0.00869 0.03515 0.02344 0.073 0.0587 0.21369 0.27471 0.29688 0.54297 0.0832 0.26825 0.11927 0.58307 0.10351 0.80078-4e-3 0.0614-0.01403 0.0847-0.02343 0.125-0.0245-0.0106-0.03712-0.01191-0.07422-0.03711-0.14287-0.0972-0.32173-0.28414-0.44532-0.49023-0.12358-0.20609-0.18926-0.42714-0.18554-0.57813 4e-3 -0.15098 0.02925-0.22975 0.1914-0.3418 0.05543-0.03825 0.08024-0.04596 0.08985-0.04687zm6.4668 1.4453c0.44956 8e-3 0.86404 0.06118 1.209 0.15625 0.68989 0.19016 1.0288 0.48876 1.0918 0.86328 0.0913 0.54264-0.16551 0.9896-0.70899 1.4941-0.54349 0.50455-1.3427 0.98496-2.0957 1.4512-0.75295 0.46622-1.4653 0.88834-1.877 1.5078-0.20584 0.30975-0.32236 0.7226-0.21289 1.1211 0.10946 0.39849 0.393 0.73148 0.80469 1.0449 0.56818 0.4326 1.2572 0.53613 1.7852 0.2461 0.51294-0.28177 0.7765-0.89765 0.70898-1.5625 0.0188-0.0229 0.08124-0.08 0.18164-0.13477 0.20421-0.11129 0.54432-0.21108 0.86914-0.24414 0.32481-0.0331 0.63714 0.01037 0.76953 0.07227 0.05793 0.02712 0.07714 0.04966 0.08204 0.05664h0.00195v0.00195l0.00195 0.00195v0.00196c0.00248 0.00773 0.00485 0.02653-0.0039 0.07421-0.28319 1.5011-1.9326 2.7656-3.1816 2.7656-1.3815 0-2.8149-0.82957-3.8145-1.9883s-1.5221-2.6117-1.2773-3.707c0.18481-0.82765 0.72961-1.5043 1.502-2.0352 0.77233-0.53081 1.763-0.89694 2.7402-1.0703 0.48864-0.0867 0.97427-0.12494 1.4238-0.11719z" fill="#363636" stop-color="#000000"/>
 </g>
</svg>
