<svg width="16" height="16" version="1.1" viewBox="0 0 16 16" xmlns="http://www.w3.org/2000/svg">
 <style>.base    { fill: #000000; }
   .success { fill: #009909; }
   .warning { fill: #FF1990; }
   .error   { fill: #00AAFF; }
   .dark    {  }</style>
 <style>@import '../../highlights.css';</style>
 <g fill="#363636">
  <g transform="matrix(.4375 0 0 .4375 8.988 8.9871)">
   <g id="edit-cut" transform="matrix(1 0 0 .99999 -441 -1132.4)" fill="#363636">
    <path id="gtk-edit" d="m441 1132.4h16v16h-16z" opacity="0"/>
    <path d="m444.36 1132.4c-1.0384 0.472-1.3774 1.498-0.7778 2.315l4.3289 6.201-1.7101 2.016 1.3848 1.776 1.5766-2.116 1.5461 2.116 1.3721-1.701-1.6668-2.091 4.3289-6.201c0.5995-0.817 0.2606-1.843-0.7779-2.315l-4.8024 6.813z" fill="#363636"/>
    <path d="m453.5 1141.4c-1.933 0-3.5 1.567-3.5 3.5s1.567 3.5 3.5 3.5 3.5-1.567 3.5-3.5-1.567-3.5-3.5-3.5zm0 2c0.8284 0 1.5 0.672 1.5 1.5 0 0.829-0.6716 1.5-1.5 1.5s-1.5-0.671-1.5-1.5c0-0.828 0.6716-1.5 1.5-1.5z" fill="#363636"/>
    <path d="m444.5 1141.4c-1.933 0-3.5 1.567-3.5 3.5s1.567 3.5 3.5 3.5 3.5-1.567 3.5-3.5-1.567-3.5-3.5-3.5zm0 2c0.8284 0 1.5 0.672 1.5 1.5 0 0.829-0.6716 1.5-1.5 1.5s-1.5-0.671-1.5-1.5c0-0.828 0.6716-1.5 1.5-1.5z" fill="#363636"/>
   </g>
  </g>
  <path transform="translate(-9)" d="m9.7805 10.55h2.3415v1.5502l-1.561-0.77509zm3.122 0h2.3415l-0.78049 0.77509-1.561 0.77509zm-2.3415 2.3253h3.9025c-1.9316 3.4797-3.9025 0-3.9025 0z" stroke-width=".77779"/>
  <path d="m0 9v3.7539c0 1.3326 1.5615 2.4468 3.4883 3.2461 1.9757-0.79927 3.5117-1.7016 3.5117-3.1973v-3.8027h-7zm1 1h5v2.8027c0 0.40541-0.15752 0.68695-0.64648 1.084-0.40368 0.32778-1.1119 0.65588-1.8496 0.97852-0.71468-0.32923-1.4074-0.68166-1.8281-1.0449-0.5053-0.43632-0.67578-0.79056-0.67578-1.0664v-2.7539z" color="#000000" style="-inkscape-stroke:none"/>
 </g>
</svg>
