<svg width="16" height="16" version="1.1" viewBox="0 0 16 16" xmlns="http://www.w3.org/2000/svg">
 <style>.base    { fill: #000000; }
   .success { fill: #009909; }
   .warning { fill: #FF1990; }
   .error   { fill: #00AAFF; }
   .dark    {  }</style>
 <style>@import '../../highlights.css';</style>
 <path d="m10.457 8.9863c-0.4543 0.2065-0.60217 0.65624-0.33984 1.0137l1.8945 2.7129-0.49414 0.58203c-0.26808-0.23073-0.6166-0.37109-0.99805-0.37109-0.84569 0-1.5312 0.68557-1.5312 1.5312 0 0.84568 0.68556 1.5312 1.5312 1.5312 0.84569 0 1.5312-0.68557 1.5312-1.5312 0-0.099566-0.009195-0.19675-0.027343-0.29102l0.53516-0.71875 0.42773 0.58594c-0.038768 0.13472-0.060547 0.27663-0.060547 0.42383 0 0.84568 0.68556 1.5312 1.5312 1.5312 0.84569 0 1.5312-0.68557 1.5312-1.5312 0-0.84568-0.68556-1.5312-1.5312-1.5312-0.35 0-0.67179 0.11881-0.92969 0.31641l-0.42188-0.52734 1.8945-2.7129c0.26228-0.35744 0.1145-0.80717-0.33984-1.0137l-2.1016 2.9824-2.1016-2.9824zm0.0625 4.8125c0.36242 0 0.65625 0.294 0.65625 0.65625 0 0.36269-0.29382 0.65625-0.65625 0.65625-0.36242 0-0.65625-0.29356-0.65625-0.65625 0-0.36225 0.29383-0.65625 0.65625-0.65625zm3.9375 0c0.36242 0 0.65625 0.294 0.65625 0.65625 0 0.36269-0.29382 0.65625-0.65625 0.65625-0.36242 0-0.65625-0.29356-0.65625-0.65625 0-0.36225 0.29383-0.65625 0.65625-0.65625z" fill="#363636" stroke-width=".4375"/>
</svg>
