<svg xmlns="http://www.w3.org/2000/svg" width="16" height="16"><path d="M4 0C2.892 0 2 .892 2 2v3h1V2c0-.554.446-1 1-1h6V0Zm9 4v10c0 .554-.446 1-1 1H4c-.554 0-1-.446-1-1v-1H2v1c0 1.108.892 2 2 2h8c1.108 0 2-.892 2-2V4Z" style="fill:#363636;stroke-linecap:round;stroke-linejoin:round;stop-color:#000"/><path d="M9 4c0 .554.446 1 1 1h4V4h-4V0H9Z" style="fill:#363636;stroke-linecap:round;stroke-linejoin:round;stop-color:#000"/><path d="m9.293.707 4 4L14 4l-4-4Z" style="color:#000;fill:#363636;fill-opacity:1;-inkscape-stroke:none"/><path d="M0 6v6h6V6Zm1 1h4v4H1Z" style="fill:#363636;stroke-width:.800002;stroke-linecap:round;stroke-linejoin:round;stop-color:#000"/></svg>