<svg width="16px" height="16px" version="1.1" viewBox="0 0 16 16" xmlns="http://www.w3.org/2000/svg">
 <path d="m3 2c-1.6445 0-3 1.3555-3 3v6c0 1.6445 1.3555 3 3 3h10c1.6445 0 3-1.3555 3-3v-4.5c0-0.26562-0.10547-0.51953-0.29297-0.70703l-3.5-3.5c-0.1875-0.1875-0.44141-0.29297-0.70703-0.29297h-8.5zm0 1h5 3v2.5c0 1 0.5 1.5 1.5 1.5h2.5v3h-3.957c-0.55859 0-1.0937-0.19531-1.5234-0.55078l-1.1289-0.94141c-0.80469-0.67187-1.9727-0.67578-2.7812-0.0039063l-1.0938 0.89844c-0.44922 0.375-1.0156 0.59766-1.5977 0.59766h-1.918v-5c0-1.108 0.892-2 2-2zm0.5 1a1.5 1.5 0 0 0-1.5 1.5 1.5 1.5 0 0 0 1.5 1.5 1.5 1.5 0 0 0 1.5-1.5 1.5 1.5 0 0 0-1.5-1.5zm0 1a0.5 0.5 0 0 1 0.5 0.5 0.5 0.5 0 0 1-0.5 0.5 0.5 0.5 0 0 1-0.5-0.5 0.5 0.5 0 0 1 0.5-0.5zm3.5 4.002c0.26709 9.765e-4 0.5332 0.09375 0.75 0.27539l1.1289 0.94141c0.60938 0.50391 1.3711 0.78125 2.1641 0.78125h3.957c0 1.108-0.892 2-2 2h-1-4-5c-1.108 0-2-0.892-2-2h1.918c0.81641 0 1.6055-0.30469 2.2344-0.82422l1.0938-0.90234c0.21875-0.18164 0.48682-0.27246 0.75391-0.27148z" fill="#363636"/>
</svg>
