<svg xmlns="http://www.w3.org/2000/svg" width="16" height="16"><path d="M2 2C.892 2 0 2.892 0 4v8c0 1.108.892 2 2 2h10v-1H2c-.554 0-1-.446-1-1V4c0-.554.446-1 1-1h12c.554 0 1 .446 1 1v6h1V4c0-1.108-.892-2-2-2Z" style="fill:#363636;stroke-linecap:round;stroke-linejoin:round;stop-color:#000" transform="matrix(0 1 1 0 0 0)"/><path d="M12 9c-.554 0-1 .446-1 1v4h1v-4h4V9Z" style="fill:#363636;stroke-linecap:round;stroke-linejoin:round;stop-color:#000" transform="matrix(0 1 1 0 0 0)"/><path d="m15.293 9.293-4 4L12 14l4-4Z" style="color:#000;fill:#363636;fill-opacity:1;-inkscape-stroke:none" transform="matrix(0 1 1 0 0 0)"/></svg>