<svg xmlns="http://www.w3.org/2000/svg" id="svg1" width="16" height="16" version="1.1"><g id="snap-page" transform="translate(-979 -527.362)"><path id="rect8761" d="M984 530.362c-1.108 0-2 .892-2 2v6c0 1.108.892 2 2 2h6c1.108 0 2-.892 2-2v-5h-1v5c0 .554-.446 1-1 1h-6c-.554 0-1-.446-1-1v-6c0-.554.446-1 1-1h5v-1h-5z" style="fill:#363636;stroke-linecap:round;stroke-linejoin:round;stop-color:#000"/><path id="rect8766" d="M988 530.362v3c0 .554.446 1 1 1h3v-1h-3v-3h-1z" style="fill:#363636;stroke-linecap:round;stroke-linejoin:round;stop-color:#000"/><path id="path8777" d="m989 530.362-.707.707 3 3 .707-.707Z" style="color:#000;fill:#363636;-inkscape-stroke:none;fill-opacity:1"/><path id="path8783" d="m979 533.362 2 2-2 2z" style="fill:#363636;stroke:none;stroke-width:1px;stroke-linecap:butt;stroke-linejoin:miter;stroke-opacity:1;fill-opacity:1"/><path id="path9265" d="m995 533.362-2 2 2 2z" style="fill:#363636;fill-opacity:1;stroke:none;stroke-width:1px;stroke-linecap:butt;stroke-linejoin:miter;stroke-opacity:1"/><path id="path9267" d="m989 527.362-2 2-2-2z" style="fill:#363636;fill-opacity:1;stroke:none;stroke-width:1px;stroke-linecap:butt;stroke-linejoin:miter;stroke-opacity:1"/><path id="path9269" d="m989 543.362-2-2-2 2z" style="fill:#363636;fill-opacity:1;stroke:none;stroke-width:1px;stroke-linecap:butt;stroke-linejoin:miter;stroke-opacity:1"/></g><style id="s2">@import &quot;../../highlights.css&quot;;.success{fill:#009909}.warning{fill:#ff1990}.error{fill:#0af}</style></svg>