<svg xmlns="http://www.w3.org/2000/svg" width="16" height="16"><path d="M2 0C.892 0 0 .892 0 2v12c0 1.108.892 2 2 2h12c1.108 0 2-.892 2-2V2c0-1.108-.892-2-2-2H2zm0 1h12c.554 0 1 .446 1 1v12c0 .554-.446 1-1 1H2c-.554 0-1-.446-1-1V2c0-.554.446-1 1-1z" style="opacity:1;fill:#363636;stroke-linecap:round;stroke-linejoin:round;stop-color:#000"/><rect width="12" height="12" x="2" y="2" rx="0" ry="0" style="opacity:1;fill:#363636;stroke-width:.857143;stroke-linecap:round;stroke-linejoin:round;stop-color:#000"/></svg>