<svg xmlns="http://www.w3.org/2000/svg" width="16" height="16"><path d="M6.557.514a6.012 6.012 0 0 0-6.018 6.02A6.005 6.005 0 0 0 3.9 11.93V4.338h8.256a6.007 6.007 0 0 0-5.6-3.824Z" style="opacity:.35" transform="translate(-34.95)"/><path d="M3.9 4.338V15.99h3.78V8.117H16v-3.78Z" style="opacity:.65" transform="translate(-34.95)"/><path d="M7.68 15.993V8.117H16V16Z" style="opacity:1" transform="translate(-34.95)"/><path d="M7 7v9h9V7Z" style="opacity:.65;fill:#363636;stroke-width:1.28571;stroke-linecap:round;stroke-linejoin:round;stop-color:#000"/><path d="M5 5v11h2V7h9V5H5z" style="opacity:.35;fill:#363636;stroke-linecap:round;stroke-linejoin:round;stop-color:#000"/><path d="M6 0a6 6 0 0 0-6 6 6 6 0 0 0 5 5.908v-1.023A5 5 0 0 1 1 6a5 5 0 0 1 9.896-1h1.018A6 6 0 0 0 6 0Z" style="fill:#363636;stroke-linecap:round;stroke-linejoin:round;stop-color:#000"/><path d="M6 1a5 5 0 0 0-5 5 5 5 0 0 0 4 4.887V5h5.898A5 5 0 0 0 6 1Z" style="opacity:.15;fill:#363636;stroke-linecap:round;stroke-linejoin:round;stop-color:#000"/><path d="M4 4v12h1V5h11V4H5Z" style="fill:#363636;stroke-linecap:round;stroke-linejoin:round;stop-color:#000"/><path d="M6 8h1v1H6zm0 2h1v1H6zm0 2h1v1H6zm0 2h1v1H6zm0-8h1v1H6zm2 0h1v1H8zm2 0h1v1h-1zm2 0h1v1h-1zm2 0h1v1h-1z" style="fill:#363636;stroke-linecap:round;stroke-linejoin:round;stop-color:#000"/></svg>