<svg xmlns="http://www.w3.org/2000/svg" width="16" height="16"><path d="M9 9v7h7V9Z" style="opacity:.65;fill:#363636;stroke-linecap:round;stroke-linejoin:round;stop-color:#000"/><path d="M5 5v11h3V8h8V5H8Z" style="opacity:.35;fill:#363636;stroke-linecap:round;stroke-linejoin:round;stop-color:#000"/><path d="M6 0a6 6 0 0 0-6 6 6 6 0 0 0 5 5.908v-1.023A5 5 0 0 1 1 6a5 5 0 0 1 9.896-1h1.018A6 6 0 0 0 6 0Z" style="fill:#363636;stroke-linecap:round;stroke-linejoin:round;stop-color:#000"/><path d="M6 1a5 5 0 0 0-5 5 5 5 0 0 0 4 4.887V5h5.898A5 5 0 0 0 6 1Z" style="opacity:.15;fill:#363636;stroke-linecap:round;stroke-linejoin:round;stop-color:#000"/><path d="M4 4v12h1V5h11V4H5Z" style="fill:#363636;stroke-linecap:round;stroke-linejoin:round;stop-color:#000"/><path d="M6 8h1v1H6zm0 2h1v1H6zm0 2h1v1H6zm0 2h1v1H6zm0-8h1v1H6zm2 0h1v1H8zm2 0h1v1h-1zm2 0h1v1h-1zm2 0h1v1h-1zM8 8v8h1V9h7V8H9Z" style="fill:#363636;stroke-linecap:round;stroke-linejoin:round;stop-color:#000"/></svg>