<svg xmlns="http://www.w3.org/2000/svg" width="16" height="16"><path d="M0 0v2.667L2.667 0Zm2.667 0 2.666 2.667L8 0ZM8 0l2.667 2.667L13.333 0Zm5.333 0L16 2.667V0ZM16 2.667l-2.667 2.666L16 8ZM16 8l-2.667 2.667L16 13.333Zm0 5.333L13.333 16H16ZM13.333 16l-2.666-2.667L8 16ZM8 16l-2.667-2.667L2.667 16Zm-5.333 0L0 13.333V16ZM0 13.333l2.667-2.666L0 8ZM0 8l2.667-2.667L0 2.667Zm2.667-2.667L5.333 8 8 5.333 5.333 2.667Zm5.333 0L10.667 8l2.666-2.667-2.666-2.666ZM10.667 8 8 10.667l2.667 2.666 2.666-2.666zM8 10.667 5.333 8l-2.666 2.667 2.666 2.666Z" style="fill:#363636;fill-opacity:1;stroke-width:1.33333"/></svg>