<svg width="16" height="16" version="1.1" viewBox="0 0 16 16" xmlns="http://www.w3.org/2000/svg">
 <path d="m3 1c-1.108 0-2 0.892-2 2v10c0 1.108 0.892 2 2 2h10c1.108 0 2-0.892 2-2v-10c0-1.108-0.892-2-2-2h-10zm0 1h10c0.554 0 1 0.446 1 1v10c0 0.554-0.446 1-1 1h-10c-0.554 0-1-0.446-1-1v-10c0-0.554 0.446-1 1-1zm2 1v1 5 1 3h1v-3h2.5c1.939 0 3.5-1.561 3.5-3.5s-1.561-3.5-3.5-3.5h-3.5zm1 1h2.5c1.385 0 2.5 1.115 2.5 2.5s-1.115 2.5-2.5 2.5h-2.5v-5z" fill="#363636" stroke-linecap="round" stroke-linejoin="round" stroke-width="2" style="paint-order:stroke fill markers"/>
</svg>
