<svg xmlns="http://www.w3.org/2000/svg" width="16" height="16"><path d="M990.498 556.924a.506.506 0 0 0-.506.504l-.017 9.924-3.227-.006-.07-5.915a.506.506 0 0 0-.53-.498l-6.16.272a.506.506 0 0 0-.482.527l.273 6.131a.506.506 0 0 0 .504.483l5.467.01.041 3.377a.506.506 0 0 0 .486.5l4.178.146a.506.506 0 0 0 .524-.504l.006-3.51 3.814.006a.506.506 0 0 0 .506-.506.506.506 0 0 0-.506-.505l-3.813-.006.016-9.924a.506.506 0 0 0-.504-.506zm-4.826 5.043.066 5.377-4.97-.008-.229-5.143zm1.088 6.39 3.213.006-.006 2.989-3.172-.114z" style="color:#000;fill:#363636;stroke-linecap:round;stroke-linejoin:round;-inkscape-stroke:none;fill-opacity:1" transform="matrix(.96486 .20509 -.20607 .9695 -827.823 -742.567)"/></svg>