<svg xmlns="http://www.w3.org/2000/svg" width="16" height="16"><path d="M4.598 1C2.264 1 .908 3.232.908 3.232l.844.536S2.931 2 4.598 2c.333 0 .768.187 1.267.535.5.349 1.048.84 1.633 1.344C8.668 4.887 9.991 6 11.598 6c1.484 0 2.412-.578 2.908-1.184a2.798 2.798 0 0 0 .586-1.248l-.99-.136s-.046.357-.37.752c-.323.394-.894.816-2.134.816-1.118 0-2.296-.887-3.446-1.879-.574-.496-1.14-1.005-1.714-1.406C5.862 1.313 5.264 1 4.598 1Z" style="fill:#363636;fill-opacity:1"/><path d="M-2.828 13.142h4v1h-4z" style="fill:#363636;stroke-linecap:round;stroke-linejoin:round;stop-color:#000" transform="rotate(-45)"/><path d="M-14.142 1.828h4v1h-4z" style="fill:#363636;stroke-linecap:round;stroke-linejoin:round;stop-color:#000" transform="scale(-1 1) rotate(-45)"/><path d="M1 14h14v1H1z" style="fill:#363636;stroke-linecap:round;stroke-linejoin:round;stop-color:#000"/></svg>