<svg width="16" height="16" version="1.1" viewBox="0 0 16 16" xmlns="http://www.w3.org/2000/svg">
 <style>.success { fill:#009909; }
.warning { fill:#FF1990; }
.error { fill:#00AAFF; }</style>
 <path d="m5 5v4.9609a4.5 4.5 0 0 0 0.5 0.039062 4.5 4.5 0 0 0 0.5-0.039062v-3.9609h3.9609a4.5 4.5 0 0 0 0.039062-0.5 4.5 4.5 0 0 0-0.029297-0.5h-4.9707zm5.9766 0a5.5 5.5 0 0 1 0.023438 0.5 5.5 5.5 0 0 1-0.037109 0.5h3.0371v8h-8v-3.0371a5.5 5.5 0 0 1-0.5 0.037109 5.5 5.5 0 0 1-0.5-0.037109v4.0371h10v-10h-4.0234z" fill="#363636" fill-rule="evenodd" stroke-linecap="round" stroke-linejoin="round" stroke-width="2" style="paint-order:stroke fill markers"/>
 <path class="warning" d="m5.5 0a5.5 5.5 0 0 0-5.5 5.5 5.5 5.5 0 0 0 4 5.2871v-1.0547a4.5 4.5 0 0 1-3-4.2324 4.5 4.5 0 0 1 4.5-4.5 4.5 4.5 0 0 1 4.2422 3h1.0488a5.5 5.5 0 0 0-5.291-4z" fill="#363636" fill-rule="evenodd" stroke-linecap="round" stroke-linejoin="round" stroke-width="2" style="paint-order:stroke fill markers"/>
 <path d="m6 6v3.9609a4.5 4.5 0 0 0 3.9609-3.9609h-3.9609zm4.9629 0a5.5 5.5 0 0 1-4.9629 4.9629v3.0371h8v-8h-3.0371z" fill="#363636" fill-rule="evenodd" opacity=".5" stroke-linecap="round" stroke-linejoin="round" stroke-width="2" style="paint-order:stroke fill markers"/>
 <path class="warning" d="m5.5 1a4.5 4.5 0 0 0-4.5 4.5 4.5 4.5 0 0 0 3 4.2324v-5.7324h5.7422a4.5 4.5 0 0 0-4.2422-3z" fill="#363636" fill-rule="evenodd" opacity=".5" stroke-linecap="round" stroke-linejoin="round" stroke-width="2" style="paint-order:stroke fill markers"/>
</svg>
