<svg xmlns="http://www.w3.org/2000/svg" width="16" height="16"><path d="M12.02 2.271c-4.607 1.261-8.577 4.443-9.758 9.75A1.5 1.5 0 0 1 2.5 12a1.5 1.5 0 0 1 .752.203c1.094-4.898 4.676-7.756 8.963-8.933A1.5 1.5 0 0 1 12 2.5a1.5 1.5 0 0 1 .02-.229z" style="fill:#363636;fill-opacity:1"/><path d="M13.5 1A1.5 1.5 0 0 0 12 2.5 1.5 1.5 0 0 0 13.5 4 1.5 1.5 0 0 0 15 2.5 1.5 1.5 0 0 0 13.5 1zm0 1a.5.5 0 0 1 .5.5.5.5 0 0 1-.5.5.5.5 0 0 1-.5-.5.5.5 0 0 1 .5-.5z" style="fill:#363636;fill-opacity:1"/><path d="M2.5 12A1.5 1.5 0 0 0 1 13.5 1.5 1.5 0 0 0 2.5 15 1.5 1.5 0 0 0 4 13.5 1.5 1.5 0 0 0 2.5 12zm0 1a.5.5 0 0 1 .5.5.5.5 0 0 1-.5.5.5.5 0 0 1-.5-.5.5.5 0 0 1 .5-.5z" style="stroke-width:1.22474;fill:#363636;fill-opacity:1"/><path d="M2.983 4.209c-1.244 1.87-1.277 4.207.244 5.615 1.48.807 2.955.649 4.776-.987-3.248.427-4.99-1.103-5.02-4.628zm5.94-3.097c-1.51.914-2.298 2.505-1.661 3.919.804.989 1.921 1.315 3.772.732-2.486-.666-3.243-2.227-2.11-4.65Z" style="fill:#363636;fill-opacity:1"/><path d="M13.678-.707h4v1h-4z" style="opacity:1;fill:#363636;stroke:none;stroke-width:2;stroke-linecap:round;stroke-linejoin:round;stop-color:#000;fill-opacity:1" transform="rotate(45)"/><path d="M-3.293-17.678h4v1h-4z" style="opacity:1;fill:#363636;stroke:none;stroke-width:2;stroke-linecap:round;stroke-linejoin:round;stop-color:#000;fill-opacity:1" transform="scale(1 -1) rotate(45)"/><path d="M14 9h1v6h-1z" style="opacity:1;fill:#363636;stroke:none;stroke-width:2;stroke-linecap:round;stroke-linejoin:round;stop-color:#000;fill-opacity:1"/></svg>