<svg xmlns="http://www.w3.org/2000/svg" id="svg1" width="16" height="16" version="1.1"><style id="s0">.success{fill:#009909}.warning{fill:#ff1990}.error{fill:#0af}</style><g id="path-division" transform="translate(-165 -667.362)"><g id="g15972"><path id="circle15932" d="M170 675.167a2.81 2.81 0 0 1-2.805-2.805 2.81 2.81 0 0 1 2.805-2.805 2.81 2.81 0 0 1 2.805 2.805 2.81 2.81 0 0 1-2.805 2.805zm0-6.805c-2.212 0-4 1.788-4 4 0 2.212 1.788 4 4 4 2.212 0 4-1.788 4-4 0-2.212-1.788-4-4-4z" style="opacity:1;fill:#363636;fill-opacity:1;stroke:none;stroke-width:1.19471;fill-rule:nonzero"/><path id="path15828" d="M176 681.167a2.81 2.81 0 0 1-2.805-2.805 2.81 2.81 0 0 1 2.805-2.805 2.81 2.81 0 0 1 2.805 2.805 2.81 2.81 0 0 1-2.805 2.805zm0-6.805c-2.212 0-4 1.788-4 4 0 2.212 1.788 4 4 4 2.212 0 4-1.788 4-4 0-2.212-1.788-4-4-4z" style="opacity:1;fill:#363636;fill-opacity:1;stroke:none;stroke-width:1.19471;fill-rule:nonzero"/></g></g></svg>