<svg xmlns="http://www.w3.org/2000/svg" width="16" height="16"><path d="M0 8v1a7 7 0 0 1 7 7h1a8 8 0 0 0-8-8Z" style="opacity:.5;fill:#363636;stroke:none;stroke-width:1.06666;stroke-linecap:round;stroke-linejoin:round;stop-color:#000"/><path d="M0 .018v1a15.69 15.69 0 0 1 9 3.367v-1.25A16.682 16.682 0 0 0 0 .018zM11.615 7a15.69 15.69 0 0 1 3.367 9h1a16.682 16.682 0 0 0-3.117-9h-1.25z" style="opacity:1;fill:#363636;stroke-width:1.86667;stroke-linecap:round;stroke-linejoin:round;stop-color:#000"/><path d="M0 4v1a11 11 0 0 1 11 11h1A12 12 0 0 0 0 4Z" style="fill:#363636;stroke:none;stroke-width:1.14286;stroke-linecap:round;stroke-linejoin:round;stop-color:#000;opacity:.5"/><path d="M9 2v5h5V2H9zm1 1h3v3h-3V3z" style="fill:#363636;fill-opacity:1"/></svg>