<svg xmlns="http://www.w3.org/2000/svg" width="16" height="16"><path d="M12 1.014c-3.125.127-5.357.911-7 2.021V4.24c1.512-1.203 3.666-2.098 7-2.228v-.998zm-9 3.85C1.665 6.55 1.038 8.783.994 12h.994c.032-3.397.713-5.462 2.178-7H3v-.137z" style="fill:#363636;fill-opacity:1"/><path d="M1 12c-.554 0-1 .446-1 1v2c0 .554.446 1 1 1h2c.554 0 1-.446 1-1v-2c0-.554-.446-1-1-1H1zm0 1h2v2H1v-2z" style="fill:#363636;stroke-width:2;stroke-linecap:round;stroke-linejoin:round;stop-color:#000"/><rect width="2" height="2" x="1" y="13" rx="0" ry="0" style="fill:#363636;stroke-width:2;stroke-linecap:round;stroke-linejoin:round;stop-color:#000;opacity:.15"/><path d="M13 0c-.554 0-1 .446-1 1v2c0 .554.446 1 1 1h2c.554 0 1-.446 1-1V1c0-.554-.446-1-1-1Zm0 1h2v2h-2z" style="fill:#363636;stroke-width:2;stroke-linecap:round;stroke-linejoin:round;stop-color:#000"/><rect width="2" height="2" x="13" y="1" rx="0" ry="0" style="opacity:.15;fill:#363636;stroke-width:2;stroke-linecap:round;stroke-linejoin:round;stop-color:#000"/><path d="M3 2c-.554 0-1 .446-1 1v2c0 .554.446 1 1 1h2c.554 0 1-.446 1-1V3c0-.554-.446-1-1-1Zm0 1h2v2H3Z" style="fill:#363636;stroke-width:2;stroke-linecap:round;stroke-linejoin:round;stop-color:#000"/><rect width="2" height="2" x="3" y="3" rx="0" ry="0" style="opacity:.15;fill:#363636;stroke-width:2;stroke-linecap:round;stroke-linejoin:round;stop-color:#000"/></svg>