<svg xmlns="http://www.w3.org/2000/svg" width="16" height="16"><path d="M7.105.512a.5.5 0 0 0-.382.072l-6 4a.5.5 0 0 0 .029.85l4.059 2.32-1.766 7.125a.5.5 0 0 0 .807.504l5.775-4.88 5.125 2.93a.5.5 0 0 0 .682-.185.5.5 0 0 0-.186-.682l-4.809-2.748 2.883-2.435a.5.5 0 0 0 .06-.705.5.5 0 0 0-.704-.06l-3.164 2.67-3.551-2.026 1.521-6.14a.5.5 0 0 0-.379-.61Zm-.9 1.619L5.061 6.746l-3.112-1.78ZM5.713 8.27 8.7 9.977l-4.314 3.642Z" style="color:#000;fill:#363636;stroke-linecap:round;stroke-linejoin:round;-inkscape-stroke:none;fill-opacity:1"/></svg>