<svg xmlns="http://www.w3.org/2000/svg" width="16" height="16"><path d="M5.113 2.977c-1.362.013-2.65.665-3.504 1.71C.757 5.733.385 7.1.531 8.428a5.303 5.303 0 0 0 1.3 2.932 5.293 5.293 0 0 0 2.755 1.635l.006.002.006.002c.208.054.313.016.406-.049a.552.552 0 0 0 .203-.324.548.548 0 0 0-.043-.379c-.055-.1-.13-.179-.341-.222l-.006-.002h-.008a4.303 4.303 0 0 1-2.229-1.329 4.32 4.32 0 0 1-1.057-2.375c-.117-1.064.191-2.174.862-2.996.668-.82 1.698-1.335 2.744-1.343h.006a3.311 3.311 0 0 1 1.941.605c.562.4.991.982 1.194 1.637.255.825.156 1.737.261 2.789.067.661.222 1.332.535 1.957.315.627.784 1.192 1.415 1.568a3.293 3.293 0 0 0 2.576.34h.002l.002-.002a3.343 3.343 0 0 0 2.025-1.615 3.374 3.374 0 0 0 .344-2.3 3.375 3.375 0 0 0-1.225-1.98l-.004-.003-.004-.006c-.166-.136-.277-.147-.388-.127a.554.554 0 0 0-.323.207.548.548 0 0 0-.12.361c.007.113.042.219.214.348l.006.004.006.004c.44.344.749.841.861 1.39a2.365 2.365 0 0 1-1.666 2.756 2.308 2.308 0 0 1-1.795-.236c-.438-.262-.79-.672-1.033-1.156 0 0-.2-.454-.276-.727-.076-.272-.157-.88-.157-.88-.092-.922.028-1.917-.303-2.987a4.164 4.164 0 0 0-1.566-2.158 4.297 4.297 0 0 0-2.534-.791h-.006z" style="color:#000;fill:#363636;stroke-width:.999996;stroke-linecap:round;-inkscape-stroke:none;fill-opacity:1"/></svg>