<svg width="16px" height="16px" version="1.1" viewBox="0 0 16 16" xmlns="http://www.w3.org/2000/svg">
 <path d="m8.7712 5.7505c-0.07142 0.00462-0.14137 0.046711-0.21134 0.11754l-3.205 3.2534 0.86575 0.87852h2.0973l2.1702-2.2031c0.12243-0.12357 0.11369-0.30892 0.0029-0.42043l-1.491-1.5144c-0.081623-0.081373-0.15596-0.11604-0.22883-0.1115zm-1.4779 2.1715 1.0319 0.99154c0.078706 0.048211 0.074322 0.22302 0.013072 0.28782l-0.37166 0.40686h-1.5858l-0.4766-0.48522 1.1441-1.1874c0.069969-0.072342 0.18656-0.073841 0.24486-0.013508z" fill="#363636" stroke-width="1.2162"/>
 <path d="m13 8.4871v1.0258c0.58572 0.018996 0.9791 0.11642 1.244 0.26083 0.26488 0.14441 0.39526 0.30618 0.47903 0.62701 0.16755 0.64166-0.05709 1.9842-0.86276 4.063l0.95807 0.37119c0.83091-2.1439 1.1893-3.5859 0.90038-4.6925-0.14447-0.55329-0.50149-1.0065-0.98314-1.2691-0.48165-0.2626-1.0598-0.36432-1.7356-0.38624z" fill="#363636"/>
 <path d="m2.709 1.2656c-1.3826 0.93197-2.5071 2.6842-2.6875 4.3867-0.090183 0.85127 0.083363 1.7236 0.66992 2.3828 0.50329 0.56559 1.2763 0.93637 2.3086 1.0645v-1.0371c-0.77262-0.11384-1.2503-0.38226-1.541-0.70898-0.35707-0.40127-0.483-0.94298-0.41406-1.5938 0.13788-1.3015 1.1608-2.9143 2.2383-3.6406l-0.57422-0.85352z" fill="#363636"/>
 <path d="m4 4v8h8v-8h-8zm1 1h6v6h-6v-6z" fill="#363636"/>
</svg>
