<svg width="16" height="16" version="1.1" viewBox="0 0 4.2333 4.2333" xmlns="http://www.w3.org/2000/svg">
 <path transform="rotate(45)" d="m2.4322-0.56127v0.26456 0.39683h0.26456v-0.20974l0.40633 0.40633h-0.20974v0.26456h0.39683 0.26456v-0.26456-0.39683h-0.26456v0.20974l-0.40633-0.40633h0.20974v-0.26456h-0.66139z" fill="#363636" stroke-linecap="round" stroke-linejoin="round" stroke-width=".59163"/>
 <path d="m0.79375 0.79375 1e-7 0.26458h0.26458l-1e-7 -0.26458zm0.52917 0 1e-7 0.26458h0.52917l-1e-7 -0.26458zm0.79375 0 1e-7 0.26458h0.79375l-1e-7 -0.26458zm1.0583 0 1e-7 0.26458h0.26458l-1e-7 -0.26458z" color="#000000" fill="#353535" stroke-dasharray="3.81467, 1.90732" stroke-dashoffset="1.9073" stroke-width=".65771" style="-inkscape-stroke:none"/>
 <path d="m0.79375 3.175-8e-8 0.26458h2.6458l1e-7 -0.26458z" color="#000000" fill="#353535" stroke-dashoffset="1" stroke-width=".87028" style="-inkscape-stroke:none"/>
</svg>
