<svg width="16px" height="16px" version="1.1" viewBox="0 0 16 16" xmlns="http://www.w3.org/2000/svg">
 <path d="m10.957 1.1465c-0.48479-0.11345-1.407 0.91955-0.508 0.84869 0.32814 0.01813 1.3155-0.79098 0.508-0.84869zm0.8457 2.3711c-0.34378-0.12102-1.5797 0.43842-0.71963 0.53154 0.23065 0.08008 1.6381-0.41074 0.71963-0.53154zm-6.6035 0.81445c-0.70704 0.03679-1.5209 0.09969-2.0457 0.62995-0.51709 0.69752 1.5218 0.77876 0.40968 0.8448-0.87867 0.18847-1.8655 0.40914-2.4735 1.1209-0.18948 0.38489 0.42431 0.50355-0.10614 0.77123-0.65601 0.52493 0.049709 1.2329 0.68024 1.228 0.48391-0.09375-0.56951 0.7754 0.20729 0.63978 0.68292-0.08844 1.1758-0.6703 1.846-0.75256 0.49927-0.05666 1.9667-0.55126 1.0593-1.0367-0.15803-0.02512 0.2594-0.57539-0.2179-0.45704-0.31851-0.00915-0.99555 0.46341-1.0204 0.27964 0.4414-0.4895 1.1118-0.56676 1.6282-0.95321 0.40759-0.17653 0.50821-0.80535-0.037484-0.85344 0.61226-0.07655 1.3616-0.15017 1.7456-0.69171 0.04838-0.75576-1.1381-0.7374-1.6753-0.76961zm7.2656 0.2207c-0.46691-0.05552-1.6585 0.66831-0.98041 1.0168 0.4595 0.11346 1.7523-0.72752 0.98041-1.0168zm1.0566 0.78516c-0.91178 0.05607-1.7661 0.42577-2.5941 0.77267-0.69331 0.08677-1.2579 0.50936-1.8905 0.72884-0.35876-0.02249-1.0874 0.62579-0.88915-0.03195-0.54911-0.40324-1.2856 0.27975-1.7669 0.59056-0.60481 0.37251-0.95089 1.0912-1.6524 1.2389-0.55591 0.35352-1.1102 0.84531-1.7255 1.0975-0.38805 0.02075-0.47595 0.40765-0.42846 0.55858-0.53042 0.20238-0.83345 1.0964-0.14468 1.3067-0.55054 0.35877-0.77039 1.1477-0.98039 1.5752-0.68952 0.08376-0.37854 0.51669 0.16823 0.42578 0.48854-0.07818 0.31247 0.10091 0.41114 0.38715 0.41142 0.04463 1.2338-0.72729 1.3042-0.35083-0.19392 0.76387 1.092 0.24373 1.41-0.02898 0.48622-0.18294 0.5656-0.92541-0.10387-0.71343-0.27147 0.03088-0.90609 0.04969-0.36118-0.17268 0.53288-0.22868 0.88709-1.0102 1.4853-0.58405 0.49896 0.06608-0.58924 0.26683-0.79202 0.44789-0.42412 0.32959 0.67214 0.03055 0.88753-0.01818 0.39284-0.0657 1.3504-0.42228 1.3323-0.33178-0.33107 0.14411-1.2757 1.0024-0.3608 0.81983 1.1813-0.36027 2.3164-0.95052 3.2472-1.7662 0.59236-0.81011-1.1519 0.21309-0.67819-0.42159-0.11023-0.4461 0.96725-0.44029 0.70452-1.0748 0.47653-0.56723 1.1017-0.53383 1.7268-0.80404 0.61485-0.34253 1.3844-0.69968 1.9465-1.2369 0.54496-0.29952 1.0548-1.6431 5.36e-4 -1.4565-1.1337 0.26545 1.1262-0.81183-0.039179-0.95476l-0.10241-0.00464-0.11424 0.00189zm-5.4805 0.37305c-1.0222 0.17663-1.9774 0.695-2.7919 1.3248-0.51048 0.70148 0.90477 0.14595 1.223-0.02616 0.61868-0.31339 1.318-0.59781 1.7452-1.1649 0.056818-0.10906-0.11-0.15077-0.17623-0.13381zm3.3223 2.457c0.2123 0.52375-0.95181 0.21004-0.25104 0.108l0.1305-0.05335 0.12054-0.0546zm-3.2461 1.5801c-0.15679 0.51341-0.54813 0.51038-1.0391 0.60547 0.27256-0.40006 0.58528-0.50693 1.0391-0.60547zm-1.4688 0.18945c-0.18448 0.22179-0.62653 0.36856-0.18546 0.0179-0.014067-0.05459 0.20355 0.04203 0.18546-0.0179zm7.0059 0.45898c-1.1058 0.03156-2.2216 0.15477-3.2863 0.46193-0.26127 0.30986 0.86287 0.11939 1.1449 0.12345 0.84644-0.09996 1.7209-0.16038 2.521-0.47002 0.1142-0.14765-0.31264-0.09716-0.37959-0.11536zm-0.80274 1.293c-0.72264 0.08359-1.5082 0.24974-2.0745 0.72696 0.47436 0.33844 1.338-0.10691 1.9009-0.29279 0.23418-0.07414 0.79655-0.46521 0.17364-0.43417zm2.3535 0.10743c-0.69708 0.19181-1.2688 0.74513-1.6783 1.3262-0.17928 0.66861 0.845-0.09268 1.0475-0.29491 0.18301-0.21403 0.95257-0.76695 0.63086-1.0312zm-8.2246 1.8047c-0.77768 0.01274-1.6291 0.09737-2.2632 0.58759-0.27405 0.78844 1.0913 0.67438 1.6314 0.63919 0.62271-0.11023 1.5177-0.15215 1.7841-0.80877-0.1792-0.41022-0.77669-0.38006-1.1523-0.41801z" fill="#363636"/>
</svg>
