<svg width="16px" height="16px" version="1.1" viewBox="0 0 16 16" xmlns="http://www.w3.org/2000/svg">
 <path d="m2.832 3c-1.5686 0-2.832 1.2635-2.832 2.832v0.16797h1c0-1.108 0.892-2 2-2v-1zm1.168 0v1h2v-1zm3 0v1h2v-1zm3 0v1c1.108 0 2 0.892 2 2h1v-0.16797c0-1.5686-1.2635-2.832-2.832-2.832zm-10 4v2h1v-2zm12 0v2h1v-2zm-12 3v2h1v-2zm12 0v2h1v-2zm-12 3v0.16797c0 1.5686 1.2635 2.832 2.832 2.832h0.16797v-1c-1.108 0-2-0.892-2-2zm12 0c0 1.108-0.892 2-2 2v1h0.16797c1.5686 0 2.832-1.2635 2.832-2.832v-0.16797zm-8 2v1h2v-1zm3 0v1h2v-1z" fill="#363636"/>
 <path d="m6 0c-1.311 0-2.42 0.83257-2.8301 2h1.0957c0.34482-0.59866 0.99116-1 1.7344-1h7c1.108 0 2 0.892 2 2v7c0 0.74321-0.40134 1.3896-1 1.7344v1.0957c1.1674-0.41009 2-1.519 2-2.8301v-7c0-1.662-1.338-3-3-3h-7z" fill="#363636" stroke-linecap="round" stroke-linejoin="round" stroke-width="2"/>
</svg>
