<svg width="16px" height="16px" version="1.1" viewBox="0 0 16 16" xmlns="http://www.w3.org/2000/svg">
 <path d="m4.502 1c-0.256 0-0.51161 0.097656-0.70703 0.29297l-2.502 2.5c-0.39084 0.39062-0.39084 1.0234 0 1.4141l2.502 2.5c0.39084 0.39062 1.0232 0.39062 1.4141 0l2.498-2.5c0.39084-0.39063 0.39084-1.0234 0-1.4141l-2.498-2.5c-0.19542-0.19531-0.45103-0.29297-0.70703-0.29297zm0 1 2.498 2.5-2.498 2.5-2.502-2.5 2.502-2.5z" fill="#363636" stop-color="#000000"/>
 <path d="m11.938 2.0078c-0.33984 0.015631-0.64453 0.20303-0.8125 0.49609l-2.3203 4.002c-0.38672 0.66428 0.09375 1.5 0.86328 1.5h4.6445c0.76953 0 1.25-0.83572 0.86328-1.5l-2.3203-4.002c-0.1875-0.32823-0.54297-0.51954-0.91797-0.49609zm0.052734 0.99805h0.001954l2.3184 4h-4.6387l2.3184-4z" fill="#363636" stop-color="#000000"/>
 <path d="m7 9a3 3 0 0 0-3 3 3 3 0 0 0 3 3 3 3 0 0 0 3-3 3 3 0 0 0-3-3zm0 1a2 2 0 0 1 2 2 2 2 0 0 1-2 2 2 2 0 0 1-2-2 2 2 0 0 1 2-2z" fill="#363636" stroke-linecap="round" stroke-linejoin="round" stroke-width="2"/>
</svg>
