<svg width="16px" height="16px" version="1.1" viewBox="0 0 16 16" xmlns="http://www.w3.org/2000/svg">
 <path d="m11 2c-0.554 0-1 0.446-1 1v2c0 0.554 0.446 1 1 1h2c0.554 0 1-0.446 1-1v-2c0-0.554-0.446-1-1-1h-2zm0 1h2v2h-2v-2z" fill="#363636" opacity=".35" stroke-linecap="round" stroke-linejoin="round" stroke-width="2"/>
 <path d="m12 11c-0.554 0-1 0.446-1 1v1c0 0.554 0.446 1 1 1h1c0.554 0 1-0.446 1-1v-1c0-0.554-0.446-1-1-1h-1zm0 1h1v1h-1v-1z" fill="#363636" opacity=".35" stroke-linecap="round" stroke-linejoin="round" stroke-width="2"/>
 <path d="m4 4c-0.554 0-1 0.446-1 1v1c0 0.554 0.446 1 1 1h1c0.554 0 1-0.446 1-1v-1c0-0.554-0.446-1-1-1zm0 1h1v1h-1z" fill="#363636" opacity=".35" stroke-linecap="round" stroke-linejoin="round" stroke-width="2"/>
 <path d="m7.0151 8.2778a2 2 0 0 0-2.0302 0l0.75683 0.75683a1 1 0 0 1 0.51652 0zm0.70711 0.70711-0.75683 0.75683a1 1 0 0 1 0 0.51652l0.75683 0.75682a2 2 0 0 0 0-2.0302zm-3.4444 0a2 2 0 0 0-1e-7 2.0302l0.75683-0.75683a1 1 0 0 1-3e-7 -0.51652zm1.9805 1.9805a1 1 0 0 1-0.51652-1e-6l-0.75683 0.75683a2 2 0 0 0 2.0302 0z" fill="#363636" stroke-linecap="round" stroke-linejoin="round" stroke-width="2"/>
 <path d="m2.293 9c-0.71626 0-1.293 0.57671-1.293 1.293v3.4141c0 0.71626 0.57671 1.293 1.293 1.293h3.4141c0.71626 0 1.293-0.57671 1.293-1.293v-0.87891a3 3 0 0 1-1 0.17188v0.67188c0 0.18208-0.14605 0.32812-0.32812 0.32812h-3.3438c-0.18208 0-0.32812-0.14605-0.32812-0.32812v-3.3438c0-0.18208 0.14605-0.32812 0.32812-0.32812h0.67188a3 3 0 0 1 0.17188-1h-0.87891z" fill="#363636" stroke-linecap="round" stroke-linejoin="round" stroke-width="2"/>
</svg>
