<svg width="16" height="16" version="1.1" xmlns="http://www.w3.org/2000/svg">
 <path d="m7.8086 1.1309c-0.018469 6.95e-4 -0.036749 0.0030793-0.056641 0.0058594 0.77857 1.312-0.76082 1.9963-0.79492 2.8691-0.034098 1.0007 0.93135 1.3164 1.4883 1.1719 0.69901-0.1779 1.0185-0.76632 1.0469-1.3223 0.051143-1.0007-1.0226-2.6468-1.625-2.7246-0.01989 0-0.040124-6.95e-4 -0.058594 0zm-2.7188 0.14844c-0.65478 0.08648-1.8212 1.9155-1.7656 3.0273 0.030886 0.61772 0.37693 1.273 1.1367 1.4707 0.60536 0.16061 1.6543-0.1928 1.6172-1.3047-0.037063-0.96982-1.7096-1.7297-0.86328-3.1875-0.043243-0.00618-0.08176-0.0058593-0.125-0.0058593zm5.7578 0.78516c-0.020075 7.725e-4 -0.040878 0.0027694-0.0625 0.0058594 0.84627 1.4578-0.82622 2.2177-0.86328 3.1875-0.037063 1.1119 1.0118 1.4633 1.6172 1.3027 0.75979-0.19767 1.1058-0.85299 1.1367-1.4707 0.05559-1.1119-1.1108-2.9389-1.7656-3.0254-0.02162 0-0.042424-7.725e-4 -0.0625 0zm-1.7637 3.3594c-0.39591 0.39881-1.1601 0.43388-1.7227 0.13086-0.18428 4.0215 0.56327 5.4709 0.87891 7.6777 0.11886 0.44004 0.44057 0.37305 0.49023-0.12109 0.31862-3.4712 0.55533-4.0163 0.35352-7.6875zm-3.0117 0.43359c-0.30886 0.46946-1.0506 0.65406-1.6621 0.46875 0.61772 3.9781 1.6373 5.2513 2.3848 7.3516 0.20385 0.40769 0.50645 0.27738 0.45703-0.2168-0.37681-3.4654-0.25311-4.0455-1.1797-7.6035zm4.1348 0.9668c-0.89448 3.9251-0.41736 5.4831-0.49805 7.7109 0.038943 0.45415 0.36936 0.44626 0.50586-0.03125 0.9291-3.3597 1.2586-3.8551 1.7109-7.5039-0.46035 0.32228-1.2188 0.2222-1.7188-0.17578z" fill="#363636" stroke-width=".61772"/>
</svg>
