<svg width="16px" height="16px" version="1.1" viewBox="0 0 16 16" xmlns="http://www.w3.org/2000/svg">
 <path d="m12.308 3.919-0.05635-0.022667-0.08281-0.032089-0.08442-0.02926-0.08522-0.027845-0.08603-0.026431-0.08703-0.021383-0.08703-0.021384-0.08721-0.01775-0.08883-0.014921-0.08963-0.013506-0.08983-0.00987-0.08921-0.00766-0.09082-0.00482-0.09021-0.0026-0.0896-3.91e-4 -0.08898 0.00182-0.08918 0.00546-0.08998 0.00687-0.17754 0.022622-0.08896 0.014944-0.08612 0.016552-0.08774 0.019381-0.08712 0.0216-0.08873 0.024427-0.16756 0.054482-0.1629 0.062745-0.085067 0.037738-0.08063 0.036517-0.080823 0.040149-0.023984 0.01257 0.39002 0.73622 0.013503-0.00729 0.059861-0.029606 0.06128-0.028801 0.05886-0.024559 0.12721-0.049341 0.13046-0.041882 0.06211-0.017099 0.06574-0.016906 0.06414-0.014077 0.06555-0.013273 0.06616-0.011056 0.06677-0.00883 0.06597-0.00743 0.06658-0.00521 0.06578-0.00379 0.06719-0.00299 0.067 6.46e-4 0.06619 0.00206 0.06539 0.00348 0.066 0.0057 0.06519 0.00711 0.06501 0.01074 0.06642 0.011544 0.0642 0.012154 0.06542 0.016593 0.06401 0.01579 0.12762 0.038843 0.0622 0.022253 0.06282 0.024469 0.04565 0.018454zm0.81622 0.49002-0.52897 0.64438 0.03416 0.028773 0.05015 0.043469 0.04935 0.044884 0.04855 0.046297 0.04632 0.046904 0.08944 0.099469 0.08336 0.10352 0.03868 0.053786 0.03646 0.054398 0.03786 0.055201 0.03344 0.056424 0.03263 0.057838 0.03182 0.059253 0.02899 0.057642 0.0288 0.061279 0.05034 0.12216 0.02356 0.063912 0.02073 0.0623 0.01911 0.06513 0.01771 0.064326 0.01771 0.064328 0.01267 0.063333 0.02494 0.13393 0.01607 0.13638 0.0068 0.063748 3e-3 0.067189 0.0016 0.066386 2.18e-4 0.022577 0.83299-0.00381-4.81e-4 -0.032085-0.0019-0.088991-0.0054-0.089176-0.0075-0.092202-0.02201-0.1753-0.03088-0.17286-0.01999-0.08995-0.02099-0.084905-0.02381-0.08651-0.02604-0.085903-0.02906-0.083877-0.03047-0.084679-0.03349-0.082653-0.0349-0.083457-0.03794-0.081435-0.04095-0.079405-0.04094-0.079405-0.04538-0.078186-0.04619-0.076772-0.10126-0.15111-0.05304-0.07131-0.05526-0.070699-0.05748-0.070091-0.05908-0.067258-0.05989-0.065843-0.06291-0.063817-0.06512-0.063205-0.06532-0.059574-0.06754-0.058961zm-4.3518 0.18982-0.00765 0.00688-0.084748 0.086571-0.081308 0.090397-0.07848 0.092004-0.074235 0.094415-0.071406 0.096024-0.067162 0.098436-0.064337 0.10004-0.061511 0.10165-0.057873 0.10184-0.055841 0.10487-0.052213 0.10506-0.048584 0.10525-0.047974 0.10747-0.044949 0.10544-0.04151 0.10927-0.040706 0.10786-0.071928 0.21549-0.064662 0.21587-0.058811 0.21545-0.036368 0.14962 0.80987 0.19824 0.034374-0.13952 0.051994-0.19687 0.058263-0.19144 0.063311-0.19044 0.033889-0.089273 0.035497-0.092103 0.038329-0.090494 0.038937-0.088276 0.041154-0.088888 0.043176-0.085868 0.044597-0.08506 0.04662-0.08204 0.050248-0.081848 0.050064-0.078212 0.053692-0.07802 0.05491-0.073586 0.057131-0.074196 0.058353-0.069759 0.062597-0.067347 0.062404-0.063715zm5.4068 3.2652-0.79546-0.24993-0.01961 0.067446-0.02229 0.062184-0.02444 0.062831-0.025 0.060644-0.02725 0.061235-0.0287 0.060412-0.02934 0.058175-0.03151 0.058816-0.0344 0.05717-0.03521 0.058585-0.03721 0.055575-0.03866 0.054752-0.0393 0.052513-0.03931 0.052513-0.08854 0.10313-0.0942 0.099911-0.0461 0.044909-0.04832 0.045521-0.04974 0.044713-0.05257 0.043108-0.05176 0.041692-0.05379 0.038673-0.05378 0.038673-0.05662 0.037062-0.05581 0.035647-0.11568 0.065254-0.05986 0.029608-0.05905 0.028193-0.06572 0.030023 0.3362 0.76177 0.07761-0.03449 0.08143-0.037932 0.0794-0.040957 0.07879-0.043174 0.07819-0.045387 0.07616-0.048411 0.07474-0.049214 0.07272-0.052239 0.07131-0.053042 0.07069-0.055259 0.06787-0.056865 0.06726-0.059082 0.06584-0.05989 0.06542-0.06574 0.12117-0.12762 0.11349-0.13386 0.05633-0.072778 0.05327-0.070778 0.05136-0.073731 0.04847-0.075378 0.04702-0.076202 0.04565-0.076974 0.04276-0.07862 0.0414-0.079392 0.03851-0.081039 0.0357-0.082634 0.03354-0.081986 0.03288-0.084229 0.03006-0.085835zm-5.9776 0.13984-0.81765-0.16149-0.016753 0.08217-0.083351 0.4167-0.042092 0.2025-0.045726 0.20231-0.049166 0.19848-0.052605 0.19466-0.05685 0.19224-0.064725 0.18964-0.033279 0.091493-0.036107 0.089884-0.036912 0.0913-0.039741 0.08969-0.041761 0.086668-0.043175 0.085865-0.02913 0.05455 0.73466 0.39315 0.033956-0.06305 0.052214-0.10506 0.050791-0.10586 0.047167-0.10606 0.044339-0.10766 0.04212-0.10705 0.040095-0.11007 0.072538-0.21327 0.065466-0.21729 0.058811-0.21545 0.05296-0.21504 0.047913-0.21603 0.044891-0.21401 0.083544-0.42033zm-1.9055 2.7046-0.034007 0.0368-0.064619 0.06432-0.049126 0.04694-0.050542 0.04613-0.052562 0.0431-0.05337 0.04453-0.054588 0.04008-0.056003 0.03928-0.057417 0.03848-0.11889 0.07092-0.060056 0.03324-0.062884 0.03163-0.061279 0.0288-0.063496 0.02942-0.12943 0.04996-0.065325 0.02276-0.065938 0.02054-0.067352 0.01974-0.13431 0.03218-0.067767 0.01389-0.068378 0.01167-0.068991 0.0095-0.067379 0.0067-0.068794 0.0058-0.069406 0.0036-0.068603 0.0022-0.0678 7.68e-4 -0.067609-0.0028-0.026054 0.83286 0.079308 0.0021 0.091819-2.25e-4 0.092616-0.0017 0.092813-0.0053 0.092202-0.0075 0.091589-0.0097 0.091786-0.01334 0.091174-0.01555 0.090562-0.01777 0.089951-0.01999 0.090146-0.02362 0.087318-0.02524 0.088924-0.02806 0.086897-0.03108 0.086902-0.03109 0.085678-0.03552 0.084259-0.03632 0.083041-0.04076 0.081626-0.04156 0.081818-0.0452 0.080404-0.046 0.078382-0.04903 0.07777-0.05125 0.074941-0.05285 0.074331-0.05507 0.072304-0.05809 0.071693-0.0603 0.068864-0.06191 0.069054-0.06554 0.084748-0.08657 0.044075-0.04792zm-3.893-0.42332-0.71555 0.42609 0.045583 0.07456 0.049023 0.07838 0.053457 0.07716 0.054266 0.07573 0.055871 0.07291 0.058088 0.07231 0.061109 0.07028 0.062719 0.06744 0.064937 0.06684 0.066547 0.06401 0.06735 0.06259 0.069568 0.06199 0.071976 0.05775 0.072779 0.05633 0.073607 0.05487 0.07656 0.05297 0.075969 0.05072 0.079031 0.04862 0.080625 0.04582 0.080035 0.04356 0.083044 0.04156 0.083868 0.04011 0.084048 0.0365 0.085644 0.0337 0.065013 0.02389 0.28992-0.78022-0.052929-0.01881-0.063473-0.0266-0.064889-0.0274-0.061827-0.0295-0.062418-0.03176-0.060232-0.03231-0.060822-0.03456-0.057812-0.03657-0.059228-0.03737-0.056166-0.03947-0.056757-0.04172-0.05457-0.04227-0.052975-0.04508-0.051562-0.04428-0.051369-0.0479-0.049955-0.0471-0.048349-0.04992-0.046133-0.05054-0.045329-0.05194-0.042306-0.05398-0.042305-0.05398-0.040087-0.05459-0.038477-0.05742-0.036259-0.058031z" fill="#363636"/>
</svg>
