<svg width="16px" height="16px" version="1.1" viewBox="0 0 16 16" xmlns="http://www.w3.org/2000/svg">
 <path d="m11.5 0c-2.4844 0-4.5 2.0156-4.5 4.5 0 0.30077 0.029597 0.59462 0.085938 0.87891l-6.3555 6.3555c-0.46875 0.46875-0.73047 1.1016-0.73047 1.7656s0.26172 1.3008 0.73047 1.7695c0.97656 0.97266 2.5625 0.97266 3.5391 0l6.3555-6.3555c0.28327 0.055921 0.57538 0.085938 0.875 0.085938 2.4844 0 4.5-2.0156 4.5-4.5 0-0.57422-0.10938-1.1445-0.32422-1.6758l-2.1758 2.1758h-2.5v-2.5l2.1758-2.1758c-0.53125-0.21484-1.1016-0.32422-1.6758-0.32422zm-0.51758 1.1035-0.98242 0.98242v3.9141h3.9141l0.98242-0.98242c-0.25726 1.6838-1.6369 2.9824-3.3965 2.9824-1.9435 0-3.5-1.5565-3.5-3.5 0-1.7596 1.2987-3.1392 2.9824-3.3965zm-3.543 5.3359c0.44399 0.92727 1.1955 1.6796 2.123 2.123l-5.998 5.998c-0.59236 0.58999-1.5338 0.59064-2.127 0.001953l-0.0019531-0.001953c-0.27903-0.27996-0.43555-0.66012-0.43555-1.0605 0-0.40132 0.15535-0.77644 0.4375-1.0586l6.002-6.002zm-4.9395 6.5605a0.5 0.5 0 0 0-0.5 0.5 0.5 0.5 0 0 0 0.5 0.5 0.5 0.5 0 0 0 0.5-0.5 0.5 0.5 0 0 0-0.5-0.5z" fill="#363636"/>
</svg>
