<svg width="16px" height="16px" version="1.1" viewBox="0 0 16 16" xmlns="http://www.w3.org/2000/svg">
 <path d="m16 5.2009e-5c-0.56344 0.018705-1.1198 0.090408-1.6769 0.16545-0.03253 0.024666-0.50549 0.095344-0.72038 0.15474-0.2131 0.041866-1.4909 0.38127-1.7587 0.49507-1.0448 0.31314-2.0549 0.70387-3.0746 1.0914-1.4762 0.44905-2.9264 1.0583-4.1985 1.9484-0.85499 0.62441-1.5569 1.4803-1.8463 2.5119-0.58055 1.4263-0.52544 3.0591-0.053866 4.5063 0.35034 1.0713 1.1434 1.9069 1.8752 2.7347 0.91732 1.0432 2.1394 1.766 3.3973 2.3338 0.90163 0.26859 1.6105-0.64617 1.8684-1.4033 0.40347-1.062 0.16497-2.3849-0.75002-3.1106-0.81534-0.67115-1.5716-1.4154-2.1904-2.2751-0.37638-0.55538-0.79287-1.114-0.97533-1.7649-0.23285-0.74928 0.25533-1.4026 0.72949-1.9227 0.79983-0.90811 1.7645-1.6505 2.7621-2.3245 0.305-0.17611 0.9126-0.58739 1.0083-0.59468 0.0089-0.012363 0.50357-0.34069 0.7545-0.45483 0.29356-0.13332 0.58677-0.26654 0.88428-0.39185 0.13999-0.050884 0.49294-0.21339 0.72941-0.30082 0.23426-0.10429 0.63488-0.26879 0.96259-0.39857 0.77567-0.29814 1.5322-0.62295 2.2736-1.0002zm-1.2634 0.5991c-0.0176 0.006948 0.01751-0.001215 0 0z" fill="#363636"/>
</svg>
