<svg width="16px" height="16px" version="1.1" viewBox="0 0 16 16" xmlns="http://www.w3.org/2000/svg">
 <path d="m5 7c-2.2109 0-4 1.7891-4 4v4h4c2.2109 0.011719 4-1.7891 4-4s-1.7891-4-4-4zm0 1a3 3 0 0 1 3 3 3 3 0 0 1-3 3h-3v-3a3 3 0 0 1 3-3z" fill="#363636"/>
 <path d="m14.406 0.050781c-0.38672 0.0078126-0.75781 0.17187-1.0312 0.44922l-5.8008 5.7734c0.90625 0.47656 1.6445 1.2148 2.1211 2.1211l5.8008-5.7695c0.98047-0.95703 0.27734-2.6172-1.0898-2.5742zm0.019531 1h0.00586 0.005859c0.27405-0.00861 0.39279 0.11411 0.47266 0.30273s0.08461 0.36348-0.11328 0.55664l-0.001953 0.0019532-4.9902 4.9648c-0.21793-0.25809-0.4492-0.49079-0.70703-0.70898l4.9863-4.9629 0.003907-0.0039062c0.09429-0.095636 0.22091-0.14803 0.33789-0.15039z" fill="#363636"/>
</svg>
