<svg width="16px" height="16px" version="1.1" viewBox="0 0 16 16" xmlns="http://www.w3.org/2000/svg">
 <path d="m2.5 5.5v5.5h5.5v-5.5zm0.74814 0.73795h4.0037v4.0241h-4.0037z" color="#000000" fill="#363636" stroke-width=".37738" style="-inkscape-stroke:none"/>
 <path d="m8.4599 2.671c-1.7293 0-3.1215 1.4713-3.1215 3.2549 0 1.7836 1.3922 3.2541 3.1215 3.2541 1.7293 0 3.1207-1.4705 3.1207-3.2541 0-1.7836-1.3915-3.2549-3.1207-3.2549zm0 0.75475c1.3015 0 2.366 1.1055 2.366 2.5001 0 1.3946-1.0644 2.4994-2.366 2.4994-1.3015 0-2.3667-1.1048-2.3667-2.4994 0-1.3946 1.0652-2.5001 2.3667-2.5001z" color="#000000" fill="#363636" stroke-width=".37738" style="-inkscape-stroke:none"/>
 <path d="m9.6523 6.4023-3 5.5 0.35156 0.5918h6l0.35156-0.5918-3-5.5zm0.35156 1.0273 2.3262 4.2637h-4.6523z" color="#000000" fill="#363636" stroke-linejoin="bevel" style="-inkscape-stroke:none"/>
</svg>
