<svg width="16" height="16" version="1.1" viewBox="0 0 4.2333 4.2333" xmlns="http://www.w3.org/2000/svg">
 <path d="m1.8521 1.0583a0.79375 0.79375 0 0 0-0.79375 0.79375 0.79375 0.79375 0 0 0 0.79375 0.79375 0.79375 0.79375 0 0 0 0.79375-0.79375 0.79375 0.79375 0 0 0-0.79375-0.79375zm0 0.26458a0.52917 0.52917 0 0 1 0.52917 0.52917 0.52917 0.52917 0 0 1-0.52917 0.52917 0.52917 0.52917 0 0 1-0.52917-0.52917 0.52917 0.52917 0 0 1 0.52917-0.52917z" fill="#363636" stroke-linecap="round" stroke-linejoin="round" stroke-width=".52917"/>
 <rect transform="rotate(45)" x="3.1486" y="-.13207" width="1.0583" height=".26458" rx=".13229" ry=".13229" fill="#363636" stroke-linecap="round" stroke-linejoin="round" stroke-width=".52917"/>
</svg>
