<svg width="16.031" height="16" version="1.1" viewBox="0 0 16.031 16" xmlns="http://www.w3.org/2000/svg">
 <path d="m9.5 4c0.277 0 0.5 0.223 0.5 0.5v1c0 0.277-0.223 0.5-0.5 0.5s-0.5-0.223-0.5-0.5v-1c0-0.277 0.223-0.5 0.5-0.5z" color="#000000" fill="#363636" opacity=".4"/>
 <path d="m6.5 4c0.277 0 0.5 0.223 0.5 0.5v1c0 0.277-0.223 0.5-0.5 0.5s-0.5-0.223-0.5-0.5v-1c0-0.277 0.223-0.5 0.5-0.5z" color="#000000" fill="#363636" opacity=".4"/>
 <path d="m9.5 5c0.277 0 0.5 0.223 0.5 0.5s-0.223 0.5-0.5 0.5-0.5-0.223-0.5-0.5 0.223-0.5 0.5-0.5z" color="#000000" fill="#363636"/>
 <path d="m8.031 0c-1.7374 0-2.9339 0.5199-3.9375 1.5-0.96345 0.9409-1.3092 2.179-1.5312 3.75 0 0-0.24004 1.3002 0.0625 1.8438-0.49295 0.5876-2.5938 3.2188-2.5938 4.4062 0.36638 1.1425 2.2913-1.4766 2.625 0.0312 0.28436 1.2849 0.8572 1.784 2.0312 2.5-0.93532 0.084-1.6562 0.47705-1.6562 0.96875 1.1628 0.7149 1.2384 0.8125 2.4375 0.8125 1.1046 0 1.5625-0.2602 1.5625-0.8125 0-0.034 0.0065-0.0608 0-0.0937 0.3317 0.054 0.66086 0.0937 1 0.0937s0.6683-0.0397 1-0.0937c-0.0065 0.033 0 0.0598 0 0.0937 0 0.5523 0.45793 0.8125 1.5625 0.8125 1.1991 0 1.2747-0.0976 2.4375-0.8125 0-0.4917-0.72093-0.88475-1.6562-0.96875 1.174-0.716 1.7469-1.2151 2.0312-2.5 0.33375-1.5079 2.2586 1.1112 2.625-0.0312 0-1.1875-2.1008-3.8186-2.5938-4.4062 0.30254-0.5435 0.0625-1.8438 0.0625-1.8438-0.2221-1.571-0.5678-2.8091-1.5312-3.75-1.0036-0.9801-2.2001-1.5-3.9375-1.5zm-1.0312 1.9062c0.53566 0.1177 0.59826 1.0952 1.0312 1.0938 0.433 1e-3 0.49559-0.97605 1.0312-1.0938 3.1431 0.1473 3.2946 4.4038 2.5312 5.2812 0 0 1.0078 1.8626 0.5625 3.2812-0.64299 2.0482-1.909 3.0312-4.125 3.0312s-3.482-0.98305-4.125-3.0312c-0.44532-1.4186 0.5625-3.2812 0.5625-3.2812-0.76333-0.8775-0.61186-5.134 2.5312-5.2812z" color="#000000" fill="#363636"/>
 <path d="m7.044 6.25v0.5c0 0.554 1 1.5 1 1.5s1-0.946 1-1.5v-0.5h-1z" color="#000000" fill="#363636"/>
 <path d="m6.453 5h0.09377c0.25103 0 0.45312 0.20209 0.45312 0.45312v0.0938c0 0.25103-0.20209 0.45312-0.45312 0.45312h-0.09377c-0.25103-2e-5 -0.45312-0.20211-0.45312-0.45314v-0.0938c0-0.25103 0.20209-0.45312 0.45312-0.45312z" color="#000000" fill="#363636"/>
</svg>
