<svg width="16" height="16" version="1.1" xmlns="http://www.w3.org/2000/svg">
 <path d="m7.8047 0.019531a1.0001 1.0001 0 0 0-0.35938 0.14844l-6 4a1.0001 1.0001 0 0 0-0.44531 0.83203v6a1.0001 1.0001 0 0 0 0.44531 0.83203l6 4a1.0001 1.0001 0 0 0 1.1094 0l6-4a1.0001 1.0001 0 0 0 0.44531-0.83203v-6a1.0001 1.0001 0 0 0-0.44531-0.83203l-6-4a1.0001 1.0001 0 0 0-0.75-0.14844zm0.19531 0.98047 5.5488 3.6992-5.5488 3.6992-5.5488-3.6992 5.5488-3.6992zm-6 4.6016 5.5 3.666v5.3984l-5.5-3.666v-5.3984zm12 0v5.3984l-5.5 3.666v-5.3984l5.5-3.666z" fill="#363636"/>
</svg>
