<svg width="16" height="16" version="1.1" viewBox="0 0 16 16" xmlns="http://www.w3.org/2000/svg">
 <title>Gnome Symbolic Icon Theme</title>
 <g transform="translate(-180,-238)">
  <path d="m190.99 240c-0.554 0-1 0.446-1 1v1.5 1.5c0 0.554 0.446 1 1 1h0.71094c-0.66833 2.266-2.4449 4.0426-4.7109 4.7109v-0.71094c0-0.554-0.446-1-1-1h-1.5-1.5c-0.554 0-1 0.446-1 1v1.5a2.5 2.5 0 0 0 2.5 2.5h0.5c5.5051 0 10-4.4949 10-10v-0.5a2.5 2.5 0 0 0-2.5-2.5h-1.5zm0 1h1.5c0.84027 0 1.5 0.65973 1.5 1.5v0.5c0 4.9607-4.0393 9-9 9h-0.5c-0.84027 0-1.5-0.65973-1.5-1.5v-1.5h1.5 1.5v2.0488l1.2832-0.37891c2.5912-0.76423 4.6225-2.7955 5.3867-5.3867l0.37891-1.2832h-2.0488v-1.5-1.5z" color="#000000" fill="#363636" stroke-width="2"/>
 </g>
</svg>
