<svg width="16px" height="16px" version="1.1" viewBox="0 0 16 16" xmlns="http://www.w3.org/2000/svg">
 <path d="m4.5 0a1.5 1.5 0 0 0-1.5 1.5 1.5 1.5 0 0 0 1.5 1.5 1.5 1.5 0 0 0 1.5-1.5 1.5 1.5 0 0 0-1.5-1.5zm0 1a0.5 0.5 0 0 1 0.5 0.5 0.5 0.5 0 0 1-0.5 0.5 0.5 0.5 0 0 1-0.5-0.5 0.5 0.5 0 0 1 0.5-0.5zm-1 2c-1.385 0-2.5 1.115-2.5 2.5v0.45703l-0.97656-0.56445-0.5 0.86523 16.453 9.5 0.5-0.86523-0.47656-0.27539v-3.1172c0-1.385-1.115-2.5-2.5-2.5s-2.5 1.115-2.5 2.5v0.23047l-5-2.8867v-3.3438c0-1.385-1.115-2.5-2.5-2.5zm10 6a1.5 1.5 0 0 0 1.5-1.5 1.5 1.5 0 0 0-1.5-1.5 1.5 1.5 0 0 0-1.5 1.5 1.5 1.5 0 0 0 1.5 1.5zm-10-5c0.831 0 1.5 0.669 1.5 1.5v2.7656l-3-1.7324v-1.0332c0-0.831 0.669-1.5 1.5-1.5zm10 3a0.5 0.5 0 0 1 0.5 0.5 0.5 0.5 0 0 1-0.5 0.5 0.5 0.5 0 0 1-0.5-0.5 0.5 0.5 0 0 1 0.5-0.5zm0 3c0.831 0 1.5 0.669 1.5 1.5v2.5391l-3-1.7324v-0.80664c0-0.831 0.669-1.5 1.5-1.5zm-6 1.0352c-0.375 0-0.71875 0.19531-0.90625 0.51953l-2.5938 4.4453h7l-2.5938-4.4453c-0.1875-0.32422-0.53125-0.51953-0.90625-0.51953zm0 1c0.027777 0 0.031554 0.003202 0.041016 0.019532v0.001953l1.7188 2.9434h-3.5195l1.7188-2.9434c0.00946-0.01636 0.013239-0.021485 0.041016-0.021485z" fill="#363636"/>
</svg>
