<svg width="16" height="16" version="1.1" xmlns="http://www.w3.org/2000/svg">
 <path d="m9.2864 0.65899-2.9969 4.9939c-0.87571-0.099692-1.7866 0.18733-2.4611 0.86179l-0.70711 0.70711 2.1213 2.1213-2.8284 2.8284-1.4142 2.8284 2.8284-1.4142 2.8284-2.8284 2.1213 2.1213 0.70711-0.70711c0.67446-0.67446 0.96148-1.5854 0.86179-2.4611l4.9939-2.9969zm0.19887 1.6131 4.2426 4.2426-3.5355 2.1213-2.8284-2.8284zm-2.1213 4.9497 1.4142 1.4142c0.78347 0.78347 0.78347 2.045 0 2.8284l-4.2426-4.2426c0.78347-0.78347 2.045-0.78347 2.8284 0z" color="#000000" fill="#363636"/>
</svg>
