<svg width="16" height="16" version="1.1" xmlns="http://www.w3.org/2000/svg">
 <path d="m6 2c-1.662 0-3 1.338-3 3v3h1v-3c0-1.108 0.892-2 2-2h3v-1zm4 0v1h5v-1zm-7 7v6h1v-6z" fill="#363636" fill-rule="evenodd" stop-color="#000000"/>
 <rect x="4" y="3" width="11" height="12" rx="0" ry="0" fill="#363636" fill-rule="evenodd" opacity=".35" stop-color="#000000"/>
 <path d="m9.5078 1a1.5085 1.4975 0 0 0-1.5078 1.498 1.5085 1.4975 0 0 0 1.5078 1.4961 1.5085 1.4975 0 0 0 1.5098-1.4961 1.5085 1.4975 0 0 0-1.5098-1.498zm0 0.99414a0.50619 0.5025 0 0 1 0.50781 0.50391 0.50619 0.5025 0 0 1-0.50781 0.50195 0.50619 0.5025 0 0 1-0.50586-0.50195 0.50619 0.5025 0 0 1 0.50586-0.50391z" fill="#363636" fill-rule="evenodd" stop-color="#000000"/>
 <path d="m3.5078 7a1.5085 1.4975 0 0 0-1.5078 1.498 1.5085 1.4975 0 0 0 1.5078 1.4961 1.5085 1.4975 0 0 0 1.5098-1.4961 1.5085 1.4975 0 0 0-1.5098-1.498zm0 0.99414a0.50619 0.5025 0 0 1 0.50781 0.50391 0.50619 0.5025 0 0 1-0.50781 0.50195 0.50619 0.5025 0 0 1-0.50586-0.50195 0.50619 0.5025 0 0 1 0.50586-0.50391z" fill="#363636" fill-rule="evenodd" stop-color="#000000"/>
</svg>
