<svg xmlns="http://www.w3.org/2000/svg" width="16" height="16"><path d="M4.44 2.377a4.68 4.68 0 0 0-.383.004c-.833.043-1.54.322-2.002.904-.728.915-.583 2.25.062 3.611a1.5 1.5 0 0 0-.156.211 1.5 1.5 0 0 1 .85-.625c-.54-1.179-.573-2.144-.131-2.699.344-.433.992-.649 1.863-.6.29.017.604.064.941.141.984.226 2.116.719 3.252 1.44a1.5 1.5 0 0 0-.029.103 1.5 1.5 0 0 1 .607-.803 1.5 1.5 0 0 0-.093.057C8.003 3.34 6.777 2.798 5.664 2.543a6.347 6.347 0 0 0-1.225-.166zm5.693 1.434a1.5 1.5 0 0 0-.358.046 1.5 1.5 0 0 1 .358-.046zm-.475.085a1.5 1.5 0 0 0-.219.092 1.5 1.5 0 0 1 .22-.092zm1.016.016a1.5 1.5 0 0 1 .111.05 1.5 1.5 0 0 0-.111-.05zm.137.063a1.5 1.5 0 0 1 .082.045 1.5 1.5 0 0 0-.082-.045zm.123.068a1.5 1.5 0 0 1 .076.053 1.5 1.5 0 0 0-.076-.053zm.127.09a1.5 1.5 0 0 1 .048.04 1.5 1.5 0 0 0-.048-.04zm.209.201a1.5 1.5 0 0 1 .04.049 1.5 1.5 0 0 0-.04-.049zm.078.1a1.5 1.5 0 0 1 .052.076 1.5 1.5 0 0 0-.052-.076zm.076.117a1.5 1.5 0 0 1 .045.082 1.5 1.5 0 0 0-.045-.082zm.056.107a1.5 1.5 0 0 1 .051.112 1.5 1.5 0 0 0-.05-.112zm-2.802.307a1.5 1.5 0 0 0-.045.346 1.5 1.5 0 0 1 .045-.346zm2.955.346a1.5 1.5 0 0 1-.047.355 1.5 1.5 0 0 0 .047-.355zm-.08.459a1.5 1.5 0 0 1-.608.79 1.5 1.5 0 0 0 .053-.025c1.034.99 1.824 2.037 2.29 2.992.605 1.245.642 2.261.183 2.838-.357.449-1.045.656-1.965.584a1.5 1.5 0 0 1 .004.094 1.5 1.5 0 0 1-.188.715 1.5 1.5 0 0 0 .022-.03c1.15.112 2.158-.118 2.754-.867.74-.93.585-2.296-.09-3.683-.525-1.079-1.388-2.21-2.502-3.264a1.5 1.5 0 0 0 .047-.144zm-7.807.761a1.5 1.5 0 0 1 .111.051 1.5 1.5 0 0 0-.11-.05zm.137.063a1.5 1.5 0 0 1 .082.045 1.5 1.5 0 0 0-.082-.045zm.123.068a1.5 1.5 0 0 1 .076.053 1.5 1.5 0 0 0-.076-.053zm6.67.033a1.5 1.5 0 0 1-.117.05 1.5 1.5 0 0 0 .117-.05zm-6.543.057a1.5 1.5 0 0 1 .049.041 1.5 1.5 0 0 0-.05-.041zm.209.201a1.5 1.5 0 0 1 .04.049 1.5 1.5 0 0 0-.04-.049zm.078.1a1.5 1.5 0 0 1 .053.076 1.5 1.5 0 0 0-.053-.076zm.076.117a1.5 1.5 0 0 1 .045.082 1.5 1.5 0 0 0-.045-.082zm-2.592.016a1.5 1.5 0 0 0-.113.271 1.5 1.5 0 0 1 .113-.271zm2.649.091a1.5 1.5 0 0 1 .05.112 1.5 1.5 0 0 0-.05-.112zm-2.797.27a1.5 1.5 0 0 0-.05.383 1.5 1.5 0 0 1 .05-.383zm2.95.383a1.5 1.5 0 0 1-.052.384 1.5 1.5 0 0 0 .051-.384zm-.056.4a1.5 1.5 0 0 1-.144.344 1.5 1.5 0 0 0 .144-.344zm-.15.356a1.5 1.5 0 0 1-.836.664 1.5 1.5 0 0 0 .106-.032 14.372 14.372 0 0 0 4.748 3.575 1.5 1.5 0 0 0-.008.15 1.5 1.5 0 0 1 .363-.961 1.5 1.5 0 0 0-.064.063 13.621 13.621 0 0 1-2.655-1.655 14.026 14.026 0 0 1-1.748-1.662 1.5 1.5 0 0 0 .094-.142zm-.959.699a1.5 1.5 0 0 1-.336.045 1.5 1.5 0 0 0 .336-.045zm6.045 2.222a1.5 1.5 0 0 0-.135.057 1.5 1.5 0 0 1 .135-.057zm-.39.186a1.5 1.5 0 0 0-.128.098 1.5 1.5 0 0 1 .127-.098zm2.005 2.14a1.5 1.5 0 0 1-.115.151 1.5 1.5 0 0 0 .115-.15zm-.305.305a1.5 1.5 0 0 1-.119.09 1.5 1.5 0 0 0 .12-.09zm-.412.219a1.5 1.5 0 0 1-.074.03 1.5 1.5 0 0 0 .074-.03z" style="opacity:1;fill:#363636;fill-opacity:1"/><path d="M3.205 6.43a1.5 1.5 0 0 0-1.5 1.5 1.5 1.5 0 0 0 1.5 1.5 1.5 1.5 0 0 0 1.5-1.5 1.5 1.5 0 0 0-1.5-1.5zm0 1a.5.5 0 0 1 .5.5.5.5 0 0 1-.5.5.5.5 0 0 1-.5-.5.5.5 0 0 1 .5-.5zm6.928-3.62a1.5 1.5 0 0 0-1.5 1.5 1.5 1.5 0 0 0 1.5 1.5 1.5 1.5 0 0 0 1.5-1.5 1.5 1.5 0 0 0-1.5-1.5zm0 1a.5.5 0 0 1 .5.5.5.5 0 0 1-.5.5.5.5 0 0 1-.5-.5.5.5 0 0 1 .5-.5zm-.123 6.733a1.5 1.5 0 0 0-1.5 1.5 1.5 1.5 0 0 0 1.5 1.5 1.5 1.5 0 0 0 1.5-1.5 1.5 1.5 0 0 0-1.5-1.5zm0 1a.5.5 0 0 1 .5.5.5.5 0 0 1-.5.5.5.5 0 0 1-.5-.5.5.5 0 0 1 .5-.5z" style="fill:#363636;stroke-width:1.01787;stroke-linecap:round;stroke-linejoin:round;stop-color:#000"/></svg>