<svg width="16px" height="16px" version="1.1" viewBox="0 0 16 16" xmlns="http://www.w3.org/2000/svg">
 <path d="m6.8242 12h-1.3555c-0.17969 0-0.34766-0.097656-0.4375-0.25391-0.085938-0.16016-0.082031-0.35156 0.011719-0.50781l1.1953-1.957 0.85156 0.52344-1.1953 1.957-0.42578-0.76172h1.3555zm3.3008-1.9961 0.76953 1.2305c0.09375 0.15625 0.09766 0.35156 0.01172 0.50781-0.089845 0.16016-0.25781 0.25781-0.4375 0.25781h-2.6328v-1h2.6328l-0.42578 0.76562-0.76562-1.2344zm-3.3008-1.6875 0.64453-1.0742c0.085938-0.14453 0.24219-0.23828 0.41406-0.24219 0.17188-0.003906 0.33203 0.078125 0.42578 0.22266l1.2734 1.8867-0.82812 0.55859-1.2734-1.8867 0.84375-0.023438-0.64453 1.0742z" fill="#363636"/>
 <path d="m2 4v9c0 1.662 1.338 3 3 3h6c1.662 0 3-1.338 3-3v-9h-1v9c0 1.108-0.892 2-2 2h-6c-1.108 0-2-0.892-2-2v-9h-1z" fill="#363636" style="paint-order:stroke fill markers"/>
 <rect y="3" width="16" height="1" rx="0" ry="0" fill="#363636" style="paint-order:stroke fill markers"/>
 <path d="m6 0c-1.108 0-2 0.892-2 2v2h1v-2c0-0.554 0.446-1 1-1h4c0.554 0 1 0.446 1 1v2h1v-2c0-1.108-0.892-2-2-2h-4z" fill="#363636" style="paint-order:stroke fill markers"/>
</svg>
