<svg width="16px" height="16px" version="1.1" viewBox="0 0 16 16" xmlns="http://www.w3.org/2000/svg">
 <rect x="5" y="14" width="11" height="1" rx=".5" ry=".5" fill="#363636" stroke-width="0"/>
 <g transform="translate(-.84133 -.20711)" fill="#363636" stroke-width="0">
  <path d="m9.2066 0.84187c-0.51124 0-1.0223 0.19615-1.4141 0.58789l-6.3633 6.3633c-0.78347 0.78347-0.78347 2.0447 0 2.8281l4.5859 4.5859h3.5547l6.002-6c0.78347-0.78347 0.78347-2.0447 0-2.8281l-4.9512-4.9492c-0.39174-0.39174-0.90283-0.58789-1.4141-0.58789zm0 1c0.25562 0 0.51116 0.099054 0.70703 0.29492l4.9512 4.9492c0.39173 0.39174 0.39174 1.0223 0 1.4141l-3.5371 3.5352-6.3633-6.3633 3.5352-3.5352c0.19587-0.19587 0.45141-0.29492 0.70703-0.29492zm-4.9492 4.5371 6.3633 6.3633-2.1211 2.1211c-0.39174 0.39173-1.0223 0.39173-1.4141 0l-4.9492-4.9492c-0.39174-0.39174-0.39174-1.0223 0-1.4141l2.1211-2.1211z"/>
  <path transform="rotate(45)" d="m7.521 1.5002v3.9996h8.4853l0.51376-0.51376v-3.4858h-8.999z" opacity=".45"/>
 </g>
</svg>
