<svg width="16px" height="16px" version="1.1" viewBox="0 0 16 16" xmlns="http://www.w3.org/2000/svg">
 <path d="m4.0176 0c-1.6714 0-3.0176 1.3194-3.0176 2.957v10.086c0 1.6377 1.3462 2.957 3.0176 2.957h3.9824v-1h-4c-1.108 0-2-0.892-2-2v-10c0-1.108 0.892-2 2-2h5.5859l4.4141 4.4141v2.5859h1v-3l-5-5z" fill="#363636"/>
 <path d="m12.5 9a3.5 3.5 0 0 0-3.5 3.5 3.5 3.5 0 0 0 3.5 3.5 3.5 3.5 0 0 0 3.5-3.5 3.5 3.5 0 0 0-3.5-3.5zm-2 3h4c0.277 0 0.5 0.223 0.5 0.5s-0.223 0.5-0.5 0.5h-4c-0.277 0-0.5-0.223-0.5-0.5s0.223-0.5 0.5-0.5z" fill="#363636" stroke-linecap="round" stroke-linejoin="round"/>
</svg>
