<svg width="16px" height="16px" version="1.1" viewBox="0 0 16 16" xmlns="http://www.w3.org/2000/svg">
 <filter id="a" x="0" y="0" width="1" height="1">
  <feColorMatrix color-interpolation-filters="sRGB" values="0 0 0 0 1 0 0 0 0 1 0 0 0 0 1 0 0 0 1 0"/>
 </filter>
 <mask id="b">
  <g filter="url(#a)">
   <path d="m-1.6-1.6h19.2v19.2h-19.2z" fill-opacity=".5"/>
  </g>
 </mask>
 <clipPath id="c">
  <path d="m0 0h1600v1200h-1600z"/>
 </clipPath>
 <mask id="d">
  <g filter="url(#a)">
   <path d="m-1.6-1.6h19.2v19.2h-19.2z" fill-opacity=".7"/>
  </g>
 </mask>
 <clipPath id="e">
  <path d="m0 0h1600v1200h-1600z"/>
 </clipPath>
 <mask id="f">
  <g filter="url(#a)">
   <path d="m-1.6-1.6h19.2v19.2h-19.2z" fill-opacity=".35"/>
  </g>
 </mask>
 <clipPath id="g">
  <path d="m0 0h1600v1200h-1600z"/>
 </clipPath>
 <g mask="url(#b)">
  <g transform="translate(-56 -916)" clip-path="url(#c)">
   <path d="m550 182c-0.35156 0.003906-0.69531 0.10156-1 0.28125v3.4375c0.30469 0.17969 0.64844 0.27734 1 0.28125 1.1055 0 2-0.89453 2-2s-0.89453-2-2-2zm0 5c-0.33984 0-0.67969 0.058594-1 0.17578v6.8242h4v-4c0-1.6562-1.3438-3-3-3z"/>
  </g>
 </g>
 <g mask="url(#d)">
  <g transform="translate(-56 -916)" clip-path="url(#e)">
   <path d="m569 182v4c1.1055 0 2-0.89453 2-2s-0.89453-2-2-2zm0 5v7h3v-4c0-1.6562-1.3438-3-3-3z"/>
  </g>
 </g>
 <g mask="url(#f)">
  <g transform="translate(-56 -916)" clip-path="url(#g)">
   <path d="m573 182.27v3.4492c0.61328-0.35547 0.99609-1.0078 1-1.7188 0-0.71484-0.38281-1.375-1-1.7305zm0 4.9062v6.8242h2v-4c0-1.2695-0.80078-2.4023-2-2.8242z"/>
  </g>
 </g>
 <rect x="5" y="14" width="11" height="1" rx=".5" ry=".5" fill="#363636" stroke-width="0"/>
 <g transform="translate(-.84133 -.20711)" fill="#363636" stroke-width="0">
  <path d="m9.2066 0.84187c-0.51124 0-1.0223 0.19615-1.4141 0.58789l-6.3633 6.3633c-0.78347 0.78347-0.78347 2.0447 0 2.8281l4.5859 4.5859h3.5547l6.002-6c0.78347-0.78347 0.78347-2.0447 0-2.8281l-4.9512-4.9492c-0.39174-0.39174-0.90283-0.58789-1.4141-0.58789zm0 1c0.25562 0 0.51116 0.099054 0.70703 0.29492l4.9512 4.9492c0.39173 0.39174 0.39174 1.0223 0 1.4141l-3.5371 3.5352-6.3633-6.3633 3.5352-3.5352c0.19587-0.19587 0.45141-0.29492 0.70703-0.29492zm-4.9492 4.5371 6.3633 6.3633-2.1211 2.1211c-0.39174 0.39173-1.0223 0.39173-1.4141 0l-4.9492-4.9492c-0.39174-0.39174-0.39174-1.0223 0-1.4141l2.1211-2.1211z"/>
  <path transform="rotate(45)" d="m7.521 1.5002v3.9996h8.4853l0.51376-0.51376v-3.4858h-8.999z" opacity=".45"/>
 </g>
</svg>
