<svg width="16px" height="16px" version="1.1" viewBox="0 0 16 16" xmlns="http://www.w3.org/2000/svg">
 <path d="m7 2c-0.83203 0-1.5586 0.34375-2.293 0.78125-0.73437 0.4375-1.4648 1.0039-2.1289 1.5977-0.66016 0.59766-1.2539 1.2227-1.707 1.7969-0.22656 0.28906-0.41797 0.5625-0.57031 0.83594-0.15234 0.27734-0.30078 0.53125-0.30078 0.98828 0 0.45703 0.14844 0.71094 0.30078 0.98438 0.15234 0.27734 0.34375 0.55078 0.57031 0.83594 0.45313 0.57813 1.0469 1.2031 1.707 1.7969 0.66406 0.59766 1.3945 1.1641 2.1289 1.6016s1.4609 0.78125 2.293 0.78125h6c1.6445 0 3-1.3555 3-3v-6c0-1.6445-1.3555-3-3-3h-6zm0 1h6c1.095 0 2 0.90495 2 2v6c0 1.095-0.90496 2-2 2h-6c-0.5566 0-1.0982-0.23368-1.7812-0.64062-0.65884-0.3925-1.3442-0.92244-1.9707-1.4863h-0.0019531c-0.6224-0.55979-1.1805-1.1502-1.5879-1.6699l-0.0019531-0.0019531-0.0019531-0.0039063c-0.20353-0.25615-0.36085-0.48271-0.47656-0.69336l-0.0019532-0.0039062-0.0019531-0.0019531c-0.15866-0.28478-0.17383-0.25754-0.17383-0.49805s0.017418-0.21595 0.17773-0.50781c0.11634-0.20792 0.27479-0.43716 0.47852-0.69727l0.0019531-0.0019531c0.40844-0.5173 0.96837-1.1075 1.5918-1.6719 0.62655-0.55972 1.3118-1.0891 1.9688-1.4805 0.68309-0.40695 1.2246-0.64062 1.7812-0.64062z" fill="#363636"/>
 <path transform="rotate(45)" d="m9.8746-1.7678c-0.090375 0.090375-0.14639 0.21505-0.14639 0.35355 0 0.277 0.22295 0.49995 0.49995 0.49995h1.9998v1.9998c0 0.277 0.22295 0.49995 0.49995 0.49995s0.49995-0.22295 0.49995-0.49995v-1.9998h1.9998c0.277 0 0.49995-0.22295 0.49995-0.49995s-0.22295-0.49995-0.49995-0.49995h-1.9998v-1.9998c0-0.277-0.22295-0.49995-0.49995-0.49995s-0.49995 0.22295-0.49995 0.49995v1.9998h-1.9998c-0.1385 0-0.26318 0.056018-0.35355 0.14639z" fill="#363636"/>
</svg>
