<svg width="16px" height="16px" version="1.1" viewBox="0 0 16 16" xmlns="http://www.w3.org/2000/svg">
 <path d="m4.9556 7.0502h1.8498c0.50942 0 0.92491 0.41549 0.92491 0.92491v1.8498c0 0.50942-0.41549 0.92491-0.92491 0.92491h-1.8498c-0.50942 0-0.92491-0.41549-0.92491-0.92491v-1.8498c0-0.50942 0.41549-0.92491 0.92491-0.92491z" fill="#363636" opacity=".35"/>
 <path d="m5.369 3.7199h0.62156c0.34234 0 0.62156 0.27922 0.62156 0.62156v0.62156c0 0.34234-0.27922 0.62156-0.62156 0.62156h-0.62156c-0.34235 0-0.62156-0.27922-0.62156-0.62156v-0.62156c0-0.34235 0.27922-0.62156 0.62156-0.62156z" fill="#363636" opacity=".35"/>
 <path d="m10.105 2.3219h1.2431c0.34235 0 0.62156 0.27922 0.62156 0.62156v1.2431c0 0.34235-0.27922 0.62156-0.62156 0.62156h-1.2431c-0.34235 0-0.62156-0.27922-0.62156-0.62156v-1.2431c0-0.34235 0.27922-0.62156 0.62156-0.62156z" fill="#363636" opacity=".35"/>
 <path d="m10.726 9.1591h0.62156c0.34235 0 0.62156 0.27922 0.62156 0.62156v0.62156c0 0.34234-0.27922 0.62156-0.62156 0.62156h-0.62156c-0.34234 0-0.62156-0.27922-0.62156-0.62156v-0.62156c0-0.34234 0.27922-0.62156 0.62156-0.62156z" fill="#363636" opacity=".35"/>
 <path d="m4 0c-1.108 0-2 0.892-2 2v7h1v-7c0-0.554 0.446-1 1-1h8c0.554 0 1 0.446 1 1v7h1v-7c0-1.108-0.892-2-2-2h-8z" fill="#363636"/>
 <rect x="7" y="14" width="2" height="1" rx="0" ry="0" fill="#363636"/>
 <path d="m1 10v1h3.293l-3.2598 3.2598c0.091677 0.34491 0.36212 0.61535 0.70703 0.70703l3.2598-3.2598v3.293h1v-5h-5z" fill="#363636"/>
 <path d="m15 10v1h-3.293l3.2598 3.2598c-0.09168 0.34491-0.36212 0.61535-0.70703 0.70703l-3.2598-3.2598v3.293h-1v-5z" fill="#363636"/>
</svg>
