<svg width="16" height="16" version="1.1" xmlns="http://www.w3.org/2000/svg">
 <g fill="#363636">
  <path d="m11 7v1h3v7h-6v-5h-1v5c0 0.554 0.446 1 1 1h6c0.554 0 1-0.446 1-1v-7c0-0.554-0.446-1-1-1h-3z"/>
  <path transform="rotate(45)" d="m9.8139-1.2071v0.99989h0.99989v0.99989h0.99989v-0.99989h0.99989v-0.99989h-0.99989v-0.99989h-0.99989v0.99989h-0.99989z"/>
  <path d="m7 0v5h1 4v-1h-3.293l3.293-3.293-0.70703-0.70703-3.293 3.293v-3.293h-1z"/>
  <path d="m6 11v-5h-5v1h3.293l-3.293 3.293 0.70703 0.70703 3.293-3.293v3.293z"/>
 </g>
</svg>
