<svg width="16px" height="16px" version="1.1" viewBox="0 0 16 16" xmlns="http://www.w3.org/2000/svg">
 <path d="m6.5 4c-0.82422 0-1.5 0.67578-1.5 1.5s0.67578 1.5 1.5 1.5 1.5-0.67578 1.5-1.5-0.67578-1.5-1.5-1.5zm0 1c0.28125 0 0.5 0.21875 0.5 0.5s-0.21875 0.5-0.5 0.5-0.5-0.21875-0.5-0.5 0.21875-0.5 0.5-0.5zm-1.5 3v1h6v-1zm0 2v1h6v-1zm0 2v1h6v-1z" fill="#363636"/>
 <path d="m4 0c-1.662 0-3 1.338-3 3v10c0 1.662 1.338 3 3 3h8c1.662 0 3-1.338 3-3v-9l-4-4zm0 1h6v2c0 1.108 0.892 2 2 2h2v8c0 1.108-0.892 2-2 2h-8c-1.108 0-2-0.892-2-2v-10c0-1.108 0.892-2 2-2z" fill="#363636"/>
</svg>
