<svg width="16" height="16" version="1.1" viewBox="0 0 4.2333 4.2333" xmlns="http://www.w3.org/2000/svg">
 <g transform="translate(0 -292.77)">
  <path d="m0 293.03v0.26459h0.26458v2.6458h-0.26458v0.26458h0.52917a0.79376 0.79376 0 0 1 0.0031006-0.06666v-5.2e-4a0.79376 0.79376 0 0 1 0.014986-0.10025c0.0065344-0.03027 0.014748-0.06002 0.024805-0.0894a0.79376 0.79376 0 0 1 0.75086-0.53692 0.79376 0.79376 0 0 1 0.79375 0.79375h0.26458a0.79376 0.79376 0 0 1 0.79375-0.79375 0.79376 0.79376 0 0 1 0.79375 0.79375h0.26458v-1.5875c0-0.14658-0.118-0.26458-0.26458-0.26458h-0.26458v-1.0583h0.26458v-0.26459h-1.3229v0.26459h0.26458v1.0583h-0.79375v-1.0583c0-0.14658-0.118-0.26459-0.26458-0.26459h-0.26458-1.5875zm0.52917 0.26459h1.0583 0.26458v1.0583h-1.3229v-1.0583zm2.6458 0h0.26458v1.0583h-0.26458v-1.0583zm-2.6458 1.3229h1.3229 0.26458 1.8521v0.8878a1.0583 1.0583 0 0 0-0.79375-0.35863 1.0583 1.0583 0 0 0-0.92604 0.54725 1.0583 1.0583 0 0 0-0.92604-0.54725 1.0583 1.0583 0 0 0-0.79375 0.35915v-0.88832zm0.79375 1.0583a0.52917 0.52917 0 0 0-0.52917 0.52916 0.52917 0.52917 0 0 0 0.52917 0.52917 0.52917 0.52917 0 0 0 0.52917-0.52917 0.52917 0.52917 0 0 0-0.52917-0.52916zm1.8521 0a0.52917 0.52917 0 0 0-0.52917 0.52916 0.52917 0.52917 0 0 0 0.52917 0.52917 0.52917 0.52917 0 0 0 0.52917-0.52917 0.52917 0.52917 0 0 0-0.52917-0.52916zm-1.8521 0.26458a0.2646 0.2646 0 0 1 0.26458 0.26458 0.2646 0.2646 0 0 1-0.26458 0.26459 0.2646 0.2646 0 0 1-0.26458-0.26459 0.2646 0.2646 0 0 1 0.26458-0.26458zm1.8521 0a0.2646 0.2646 0 0 1 0.26458 0.26458 0.2646 0.2646 0 0 1-0.26458 0.26459 0.2646 0.2646 0 0 1-0.26458-0.26459 0.2646 0.2646 0 0 1 0.26458-0.26458z" fill="#363636" stop-color="#000000" stroke-linecap="round" stroke-linejoin="round" stroke-width=".26458" style="paint-order:stroke fill markers"/>
 </g>
</svg>
