<svg width="16" height="16" version="1.1" viewBox="0 0 16 16" xmlns="http://www.w3.org/2000/svg">
 <g transform="translate(0 -1036.4)">
  <path transform="translate(0 1036.4)" d="m14.479 0v0.0019531a0.50005 0.50005 0 0 0-0.13281 0.021484l-12.986 3.9961a0.50005 0.50005 0 1 0 0.29492 0.95508l12.986-3.9961a0.50005 0.50005 0 0 0-0.16211-0.97852zm-5.0801 3.5938-1.9473 0.59961-0.45117 1.8066h-3c-1.108 0-2 0.892-2 2v5c0 1.108 0.892 2 2 2h9c1.108 0 2-0.892 2-2v-5c0-1.108-0.892-2-2-2h-3l-0.60156-2.4062zm-5.3984 3.4062h2v3h-3v-2c0-0.554 0.44599-1 1-1zm3 0h3v3h-3v-3zm4 0h2c0.55401 0 1 0.446 1 1v2h-3v-3zm-8 4h11v2c0 0.554-0.44599 1-1 1h-9c-0.55401 0-1-0.446-1-1v-2z" fill="#363636"/>
 </g>
</svg>
