<svg width="16" height="16" version="1.1" viewBox="0 0 16 16" xmlns="http://www.w3.org/2000/svg">
  <path
     d="M 4.0625,1 C 2.9204,1 2,1.9204 2,3.0625 v 7.875 C 2,12.0796 2.92037,13 4.0625,13 h 7.875 C 13.0796,13 14,12.0796 14,10.9375 V 3.0625 C 14,1.9204 13.07963,1 11.9375,1 Z M 4,2 h 8 c 0.554,0 1,0.446 1,1 V 7 H 3 V 3 C 3,2.446 3.446,2 4,2 Z M 3,8 h 10 v 3 c 0,0.554 -0.446,1 -1,1 H 4 C 3.446,12 3,11.554 3,11 Z M 5,9 A 1,1 0 0 0 4,10 1,1 0 0 0 5,11 1,1 0 0 0 6,10 1,1 0 0 0 5,9 Z m 6,0 a 1,0.99955 0 0 0 -1,1 1,0.99955 0 0 0 1,1 1,0.99955 0 0 0 1,-1 1,0.99955 0 0 0 -1,-1 z m -6.6348,4.9961 -1.1523,1.1387 c -0.4753,0.4687 0.22783,1.1816 0.70312,0.7129 l 1.8711,-1.8516 h -1.4219 z m 5.9023,0 1.8711,1.8516 c 0.4752,0.4687 1.1783,-0.2442 0.70312,-0.7129 l -1.1523,-1.1387 h -1.4219 z"
     fill="#363636" />
</svg>
