<svg width="16" height="16" version="1.1" viewBox="0 0 16 16" xmlns="http://www.w3.org/2000/svg">
 <g transform="translate(0 -1036.4)" fill="#363636">
  <path d="m5.0039 1048.4v1h6v-1zm-0.63867 1.996-1.1523 1.1387c-0.4753 0.4687 0.22783 1.1816 0.70312 0.7129l1.8711-1.8516zm5.9023 0 1.8711 1.8516c0.4752 0.4687 1.1783-0.2442 0.70312-0.7129l-1.1523-1.1387z"/>
  <rect x="1" y="1038.4" width="14" height="1" stop-color="#000000" stroke-linecap="round" stroke-linejoin="round" style="paint-order:stroke fill markers"/>
  <rect x="3" y="1042.4" width="10" height="1" stop-color="#000000" stroke-linecap="round" stroke-linejoin="round" style="paint-order:stroke fill markers"/>
  <path d="m3 1038.4v8c0 1.108 0.892 2 2 2h6c1.108 0 2-0.892 2-2v-8h-1v8c0 0.554-0.446 1-1 1h-6c-0.554 0-1-0.446-1-1v-8h-1z" stop-color="#000000" stroke-linecap="round" stroke-linejoin="round" style="paint-order:stroke fill markers"/>
  <circle cx="8" cy="1045.4" r="1" stop-color="#000000" stroke-linecap="round" stroke-linejoin="round" style="paint-order:stroke fill markers"/>
  <rect x="5" y="1037.4" width="6" height="1" stop-color="#000000" stroke-linecap="round" stroke-linejoin="round" style="paint-order:stroke fill markers"/>
  <rect x="6" y="1039.4" width="1" height="3" stop-color="#000000" stroke-linecap="round" stroke-linejoin="round" style="paint-order:stroke fill markers"/>
  <rect x="9" y="1039.4" width="1" height="3" stop-color="#000000" stroke-linecap="round" stroke-linejoin="round" style="paint-order:stroke fill markers"/>
 </g>
</svg>
