<svg width="16" height="16" version="1.1" viewBox="0 0 16 16" xmlns="http://www.w3.org/2000/svg">
 <g transform="translate(0 -1036.4)">
  <path d="m7 1037.4v1h-1c-1.108 0-2 0.892-2 2v1 1 0.5l-2 0.7617c0 1.9608 1.6558 4.3515 2.7227 5.6953 0.331-0.084 0.69059-0.2215 1.084-0.3867 0.6453-0.2707 1.3722-0.586 2.2129-0.584 0.837 0 1.5439 0.314 2.1621 0.5801 0.3888 0.1674 0.73941 0.3057 1.0664 0.3867 1.0746-1.3684 2.752-3.8081 2.752-5.6914l-2-0.7637v-0.498-1-1c0-1.108-0.89199-2-2-2h-1v-1h-2zm-1 2h1 2 1c0.554 0 1 0.446 1 1v1 1 0.0234c0 0.03-0.014578 0.056-0.017578 0.086l-2.9043-1.1094h-0.13281l-2.9277 1.1133c0-0.031-0.017578-0.0579-0.017578-0.0899v-0.0234-1-1c0-0.554 0.446-1 1-1zm2.0098 3.0449 2.9902 1.1406 0.84766 0.3243 0.93945 0.3593c-0.25562 1.177-1.0921 2.6956-1.9434 3.8789-0.09794-0.039-0.15831-0.055-0.26758-0.1015-0.60972-0.2625-1.4688-0.6596-2.5547-0.6602h-0.0019532c-1.0909 0-1.9631 0.3931-2.5996 0.6602-0.11734 0.049-0.18886 0.064-0.29492 0.1055-0.84356-1.1589-1.6718-2.6544-1.9199-3.8809l0.8125-0.3086 0.98242-0.375 3.0098-1.1426zm0.0097656 6.9356c-0.8407 0-1.5676 0.3152-2.2129 0.5859-0.6452 0.2708-1.2076 0.4882-1.6836 0.4668-1.0146-0.046-2.4609-0.9668-2.4609-0.9668l-0.5625 0.8281s1.4734 1.069 2.9785 1.1368c0.7839 0.0348 1.4713-0.2728 2.1152-0.543 0.6438-0.2702 1.245-0.509 1.8242-0.5078 0.5829 0 1.1535 0.2329 1.7695 0.498 0.616 0.2652 1.2788 0.572 2.0547 0.543 0.7505-0.028 1.4912-0.3174 2.0664-0.586 0.5752-0.2687 0.99023-0.5332 0.99024-0.5332l-0.53906-0.8437s-0.3611 0.2307-0.875 0.4707c-0.5139 0.24-1.1777 0.4735-1.6797 0.4922-0.4766 0.018-1.0047-0.1949-1.623-0.461-0.6182-0.2662-1.3251-0.5782-2.1621-0.58z" color="#000000" fill="#363636" stroke-linecap="round" stroke-width="2"/>
 </g>
</svg>
