<svg width="16" height="16" version="1.1" viewBox="0 0 16 16" xmlns="http://www.w3.org/2000/svg">
 <title>LiveEffect Icons proposal</title>
 <g id="layercompo">
  <path d="m0 0h16v16h-16z" opacity="0"/>
  <path d="m7.9941 2a5.9944 5.9944 0 0 0-5.9941 5.9941 5.9944 5.9944 0 0 0 5.9941 5.9941 5.9944 5.9944 0 0 0 5.9941-5.9941 5.9944 5.9944 0 0 0-5.9941-5.9941zm0 1a4.9944 4.9944 0 0 1 4.9941 4.9941 4.9944 4.9944 0 0 1-4.9941 4.9941 4.9944 4.9944 0 0 1-4.9941-4.9941 4.9944 4.9944 0 0 1 4.9941-4.9941z" fill="#363636" fill-rule="evenodd" opacity=".35" stroke-linecap="round" stroke-linejoin="round" stroke-width="2.3978" style="paint-order:stroke fill markers"/>
  <path d="m7.5 0v4.5h1v-4.5h-1zm0 5.5v2h1v-2h-1zm0 3v2h1v-2h-1zm0 3v4.5h1v-4.5h-1z" fill="#363636" fill-rule="evenodd" stroke-linecap="round" stroke-linejoin="round" stroke-width="2" style="paint-order:stroke fill markers"/>
  <path transform="rotate(12.997)" d="m9.1068-1.0055 0.00111 2.0283c0.33007-0.032486 0.66256-0.03201 0.99254 0.00142l7.89e-4 -2.0287zm3.1414-0.56273-1.1797 2.7919c0.31964 0.098963 0.62853 0.2298 0.922 0.39054l1.1797-2.7919zm2.2313 2.4937-1.5161 1.3863c0.24507 0.225 0.46704 0.47392 0.66261 0.74306l1.5258-1.3965zm1.6918 2.4839-1.9845 0.64246c0.11215 0.26398 0.20135 0.53713 0.26662 0.81642 0.0077 0.045038 0.01478 0.09018 0.02123 0.13541l2.0012-0.64832zm-1.6019 2.717c-0.0085 0.33441-0.05055 0.66713-0.12556 0.99314l3.0233 0.38459 0.126-0.99123zm-0.50833 2.0617c-0.14634 0.29832-0.32209 0.58129-0.52464 0.84471l1.8445 1.1217 0.51761-0.8491zm-1.3377 1.6818c-0.25943 0.20851-0.53906 0.39057-0.83471 0.54345l1.1995 1.8098 0.82958-0.54828z" fill="#363636" fill-rule="evenodd" stroke-linecap="round" stroke-linejoin="round" stroke-width="2" style="paint-order:stroke fill markers"/>
  <path d="m8 2v1a4.9944 4.9944 0 0 1 4.9883 4.9941 4.9944 4.9944 0 0 1-4.9883 4.9941v1a5.9944 5.9944 0 0 0 5.9883-5.9941 5.9944 5.9944 0 0 0-5.9883-5.9941z" fill="#363636" fill-rule="evenodd" stroke-linecap="round" stroke-linejoin="round" stroke-width="2.3978" style="paint-order:stroke fill markers"/>
 </g>
</svg>
