<svg width="16px" height="16px" version="1.1" viewBox="0 0 16 16" xmlns="http://www.w3.org/2000/svg">
 <path d="m14.364 0.22183-1.0772 1.7954c-1.5721-1.231-3.8377-1.1231-5.2867 0.32593l-5.6569 5.6569c-1.4491 1.4491-1.557 3.7146-0.32593 5.2867l-1.7954 1.0772 1.4142 1.4142 1.0772-1.7954c1.5721 1.231 3.8377 1.1231 5.2867-0.32593l5.6569-5.6569c1.4491-1.4491 1.557-3.7146 0.32593-5.2867l1.7954-1.0772zm-1.4142 2.8284c1.1752 1.1752 1.1752 3.0674 0 4.2426l-5.6569 5.6569c-1.1752 1.1752-3.0674 1.1752-4.2426 0-1.1752-1.1752-1.1752-3.0674 0-4.2426l0.70711-0.70711 2.1213 2.1213 4.2426-4.2426-2.1213-2.1213 0.70711-0.70711c1.1752-1.1752 3.0674-1.1752 4.2426 0zm-5.6569 1.4142 1.4142 1.4142-2.8284 2.8284-1.4142-1.4142z" fill="#363636"/>
</svg>
