<svg width="16px" height="16px" version="1.1" viewBox="0 0 16 16" xmlns="http://www.w3.org/2000/svg">
 <path d="m2.9531 1.0742 2.418 13.211 3.2383-2.3984 2.0547 2.6484c1.0312 1.4336 3.1484-0.21094 2.0117-1.5625l-2.0156-2.5938 2.9844-2.1758-10.691-7.1289zm1.4102 2.1406 7.5332 5.0234-1.8262 1.332a1.0001 1.0001 0 0 0-0.19922 1.4219l2.0156 2.5938a1.0001 1.0001 0 0 0 0.023437 0.03125c0.12146 0.14441 0.096854 0.16193 0.089844 0.20312-7e-3 0.0412-0.05052 0.1251-0.13086 0.1875-0.08034 0.0624-0.17226 0.085472-0.21484 0.082032-0.04258-0.0034-0.067571 0.01448-0.17774-0.13867a1.0001 1.0001 0 0 0-0.021484-0.029297l-2.0547-2.6484a1.0001 1.0001 0 0 0-1.3867-0.18945l-1.9473 1.4414-1.7031-9.3105z" fill="#363636"/>
</svg>
