<svg width="16px" height="16px" version="1.1" viewBox="0 0 16 16" xmlns="http://www.w3.org/2000/svg">
 <g fill="#363636">
  <path d="m6.1307 5.4936c-0.34673 0-0.62509 0.27836-0.62509 0.62509v0.62509c0 0.34673 0.27836 0.62509 0.62509 0.62509h0.62509c0.34673 0 0.62509-0.27836 0.62509-0.62509v-0.62509c0-0.34673-0.27836-0.62509-0.62509-0.62509zm2.5004 0c-0.34673 0-0.62509 0.27836-0.62509 0.62509v1.2502c0 0.34673 0.27836 0.62509 0.62509 0.62509h1.2502c0.34673 0 0.62509-0.27836 0.62509-0.62509v-1.2502c0-0.34673-0.27836-0.62509-0.62509-0.62509zm-2.5004 2.5004c-0.34673 0-0.62509 0.27836-0.62509 0.62509v1.2502c0 0.34673 0.27836 0.62509 0.62509 0.62509h1.2502c0.34673 0 0.62509-0.27836 0.62509-0.62509v-1.2502c0-0.34673-0.27836-0.62509-0.62509-0.62509zm3.1255 0.62509c-0.34673 0-0.62509 0.27836-0.62509 0.62509v0.62509c0 0.34673 0.27836 0.62509 0.62509 0.62509h0.62509c0.34673 0 0.62509-0.27836 0.62509-0.62509v-0.62509c0-0.34673-0.27836-0.62509-0.62509-0.62509z" fill-opacity=".34902" stroke-width="1.4142"/>
  <g>
   <rect x="3" y="3" width="1" height="1"/>
   <rect x="5" y="3" width="2" height="1"/>
   <rect x="8" y="3" width="3" height="1" stroke-width="1.2247"/>
   <rect x="12" y="3" width="1" height="1"/>
   <rect transform="rotate(90)" x="5" y="-13" width="2" height="1"/>
   <rect transform="rotate(90)" x="8" y="-13" width="3" height="1" stroke-width="1.2247"/>
   <rect transform="rotate(90)" x="5" y="-4" width="2" height="1"/>
   <rect transform="rotate(90)" x="8" y="-4" width="3" height="1" stroke-width="1.2247"/>
   <rect transform="scale(-1,1)" x="-11" y="12" width="2" height="1"/>
   <rect transform="scale(-1,1)" x="-8" y="12" width="3" height="1" stroke-width="1.2247"/>
   <rect x="3" y="12" width="1" height="1"/>
   <rect x="12" y="12" width="1" height="1"/>
  </g>
 </g>
</svg>
