<svg xmlns="http://www.w3.org/2000/svg" width="16" height="16"><path d="M1 10.005h1v-1H1Zm2 0h1v-1H3Zm2 0h1v-1H5Zm2-.01h1v-1H7Zm2 0h1v-1H9ZM1 4h1V3H1Zm2 0h1V3H3Zm2 0h1V3H5Zm2 0h1V3H7Zm2 0h1V3H9Zm0 1.998h1v-1H9Zm0 1.998h1v-1H9Z" style="stroke-width:.999635;fill:#363636;fill-opacity:1"/><path d="M5.5 11h1v4h-1z" style="fill:#363636;stroke-width:1.41421;stroke-linecap:square;paint-order:stroke fill markers;stop-color:#000" transform="matrix(0 1 1 0 0 0)"/><path d="M10.556 6.071h5v1h-5z" style="fill:#363636;stroke-width:2;stroke-linecap:square;paint-order:stroke fill markers;stop-color:#000" transform="scale(1 -1) rotate(-45)"/><path d="M2.071 14.556h5v1h-5z" style="fill:#363636;stroke-width:2;stroke-linecap:square;paint-order:stroke fill markers;stop-color:#000" transform="rotate(-45)"/><rect width="8" height="1" y="6" rx="0" ry="0" style="opacity:1;fill:#363636;stroke-linecap:round;stroke-linejoin:round;stop-color:#000;fill-opacity:1"/><path d="M2 14h12v1H2z" style="opacity:1;fill:#363636;fill-opacity:1;stroke-linecap:round;stroke-linejoin:round;stop-color:#000"/></svg>