<svg width="16" height="16" version="1.1" xmlns="http://www.w3.org/2000/svg">
 <g fill="#363636">
  <path d="m9.25 7.25c-0.16235 0-0.32349 0.040577-0.46875 0.12294-0.28931 0.16352-0.46875 0.46549-0.46875 0.79253v0.30916c-0.17334 0.00471-0.3125 0.14201-0.3125 0.31269v1.2127h2.5v-1.2127c0-0.17068-0.13916-0.30794-0.3125-0.31272v-0.30914c0-0.32704-0.17944-0.62901-0.46875-0.79253-0.14526-0.082356-0.3064-0.12294-0.46875-0.12294zm0 0.5025c0.079341 0 0.15747 0.0191 0.22827 0.058488 0.1416 0.079974 0.22827 0.22797 0.22827 0.38791v0.27333h-0.91309v-0.27572c0-0.15875 0.08667-0.30556 0.22827-0.38553 0.0708-0.039388 0.14893-0.058488 0.22827-0.058488z"/>
  <path d="m7.3125 2.5c-0.72113 0-1.3125 0.59137-1.3125 1.3125v7.125c0 0.72113 0.59137 1.3125 1.3125 1.3125h4.125c0.72113 0 1.3125-0.59137 1.3125-1.3125v-7.125c0-0.72113-0.59137-1.3125-1.3125-1.3125zm0 0.75h4.125c0.3186 0 0.5625 0.2439 0.5625 0.5625v7.125c0 0.3186-0.2439 0.5625-0.5625 0.5625h-4.125c-0.3186 0-0.5625-0.2439-0.5625-0.5625v-7.125c0-0.3186 0.2439-0.5625 0.5625-0.5625z"/>
  <path d="m4.2949 5.5-0.095703 0.0058594-0.039063 0.0039062-0.091797 0.013672-0.037109 0.0078125-0.089844 0.023438-0.035156 0.0097656-0.087891 0.03125-0.033203 0.015625-0.082031 0.039062-0.03125 0.017578-0.078125 0.046875-0.029297 0.019531-0.072266 0.054688-0.029297 0.021484-0.066406 0.060547-0.025391 0.025391-0.060547 0.066406-0.021484 0.029297-0.054688 0.072266-0.019531 0.029297-0.046875 0.078125-0.017578 0.03125-0.039062 0.080078 0.67578 0.32617 0.03125-0.064453 0.027344-0.046875 0.033203-0.042969 0.035156-0.041016 0.041016-0.035156 0.042969-0.033203 0.046875-0.027344 0.048828-0.023438 0.050781-0.019531 0.054688-0.013672 0.054687-0.0078126 0.068359-0.0039062h0.019531v-0.75h-0.029297-0.017578zm0.79688 0v0.75h1.125v-0.75h-1.125zm1.875 0v0.75h1.125v-0.75h-1.125zm1.875 0v0.75h1.125v-0.75h-1.125zm1.875 0v0.75h0.71094l0.06836 0.0039062 0.054687 0.0078126 0.054688 0.013672 0.050781 0.019531 0.009766 0.0039062 0.32422-0.67578-0.02539-0.011719-0.033203-0.015625-0.087891-0.03125-0.035156-0.0097656-0.089844-0.023438-0.037109-0.0078125-0.091797-0.013672-0.039063-0.0039062-0.095703-0.0058594h-0.017578-0.7207zm1.9551 0.87109-0.70312 0.25781 0.005859 0.015625 0.013672 0.054688 0.007813 0.054687 0.003906 0.068359v0.17773h0.75v-0.1875-0.017578l-0.005859-0.095703-0.003907-0.039063-0.013672-0.091797-0.007812-0.037109-0.023438-0.089844-0.009765-0.035156-0.013672-0.035156zm-9.6719 0.81641v1.125h0.75v-1.125h-0.75zm0 1.875v1.125h0.75v-1.125h-0.75zm0.77539 2.043-0.72656 0.18555 0.0058594 0.017578 0.0097656 0.035156 0.03125 0.087891 0.015625 0.033203 0.039062 0.082031 0.017578 0.03125 0.046875 0.078125 0.019531 0.029297 0.054688 0.072265 0.021484 0.029297 0.060547 0.066407 0.025391 0.02539 0.066406 0.060547 0.029297 0.021485 0.072266 0.054687 0.029297 0.019531 0.078125 0.046875 0.03125 0.017578 0.082031 0.039063 0.033203 0.015625 0.087891 0.03125 0.035156 0.009765 0.089844 0.023438 0.037109 0.007812 0.091797 0.013672 0.039063 0.003907 0.011719 0.001953 0.037109-0.75-0.048828-0.007813-0.054688-0.013672-0.050781-0.019531-0.048828-0.023437-0.046875-0.027344-0.042969-0.033203-0.041016-0.035156-0.035156-0.041016-0.033203-0.042969-0.027344-0.046875-0.023438-0.048828-0.019531-0.050781zm1.2031 0.39453v0.75h1.125v-0.75h-1.125zm1.875 0v0.75h0.14648v-0.75h-0.14648z"/>
 </g>
</svg>
