<svg width="16px" height="16px" version="1.1" viewBox="0 0 16 16" xmlns="http://www.w3.org/2000/svg">
 <g fill="#363636" fill-opacity=".35">
  <path d="m4.9556 8.3773h1.8498c0.50942 0 0.92491 0.41549 0.92491 0.92491v1.8498c0 0.50942-0.41549 0.92491-0.92491 0.92491h-1.8498c-0.50942 0-0.92491-0.41549-0.92491-0.92491v-1.8498c0-0.50942 0.41549-0.92491 0.92491-0.92491z" stroke-width=".92491"/>
  <g stroke-width=".62156">
   <path d="m5.369 5.047h0.62156c0.34234 0 0.62156 0.27922 0.62156 0.62156v0.62156c0 0.34234-0.27922 0.62156-0.62156 0.62156h-0.62156c-0.34235 0-0.62156-0.27922-0.62156-0.62156v-0.62156c0-0.34235 0.27922-0.62156 0.62156-0.62156z"/>
   <path d="m10.105 3.6491h1.2431c0.34235 0 0.62156 0.27922 0.62156 0.62156v1.2431c0 0.34235-0.27922 0.62156-0.62156 0.62156h-1.2431c-0.34235 0-0.62156-0.27922-0.62156-0.62156v-1.2431c0-0.34235 0.27922-0.62156 0.62156-0.62156z"/>
   <path d="m10.726 10.486h0.62156c0.34235 0 0.62156 0.27922 0.62156 0.62156v0.62156c0 0.34235-0.27922 0.62156-0.62156 0.62156h-0.62156c-0.34234 0-0.62156-0.27922-0.62156-0.62156v-0.62156c0-0.34234 0.27922-0.62156 0.62156-0.62156z"/>
  </g>
 </g>
</svg>
