<svg width="16px" height="16px" version="1.1" viewBox="0 0 16 16" xmlns="http://www.w3.org/2000/svg">
 <path d="m6 5c-0.55078 0-1 0.44922-1 1s0.44922 1 1 1 1-0.44922 1-1-0.44922-1-1-1zm4 0c-0.55078 0-1 0.44922-1 1s0.44922 1 1 1 1-0.44922 1-1-0.44922-1-1-1zm-5.2812 4.0664c-0.11328 0.066406-0.19922 0.17578-0.23438 0.30469s-0.015625 0.26562 0.050781 0.37891c0.71484 1.2383 2.0352 2 3.4648 2s2.75-0.76172 3.4648-2c0.06641-0.11328 0.08594-0.25 0.05078-0.37891-0.035155-0.12891-0.12109-0.23828-0.23437-0.30469s-0.25-0.085937-0.37891-0.050781-0.23828 0.12109-0.30469 0.23438c-0.53516 0.92969-1.5234 1.5-2.5977 1.5s-2.0625-0.57031-2.5977-1.5c-0.066406-0.11328-0.17578-0.19922-0.30469-0.23438s-0.26562-0.015625-0.37891 0.050781z" fill="#363636"/>
 <path d="m8 0a8 8 0 0 0-8 8 8 8 0 0 0 8 8 8 8 0 0 0 8-8 8 8 0 0 0-8-8zm0 1a7 7 0 0 1 7 7 7 7 0 0 1-7 7 7 7 0 0 1-7-7 7 7 0 0 1 7-7z" fill="#363636"/>
</svg>
