<svg width="16" height="16" version="1.1" xmlns="http://www.w3.org/2000/svg">
 <path d="m3 1c-1.099 0-2 0.901-2 2 0 0.9364 0.65397 1.7293 1.5273 1.9434v6.0566h-1.5273v4h4v-4h-1.4551c0.18298-1.5485 0.94359-3.3015 2.1641-4.709 1.3101-1.5108 3.1185-2.6233 5.291-2.7734v1.4824h4v-4h-4v1.5156c-2.499 0.15261-4.5802 1.4303-6.0449 3.1191-0.56872 0.65537-1.0472 1.3735-1.4277 2.1172v-2.8223c0.84566-0.23327 1.4727-1.0131 1.4727-1.9297 0-1.099-0.901-2-2-2zm0 1c0.558 0 1 0.442 1 1s-0.442 1-1 1-1-0.442-1-1 0.442-1 1-1zm9.002 0.0019531h1.9961v1.9961h-1.9961v-1.9961zm-10 10h1.9961v1.9961h-1.9961v-1.9961z" fill="#363636"/>
</svg>
