<svg xmlns="http://www.w3.org/2000/svg" id="svg1" width="16" height="16" version="1.1"><style id="s0">.base{fill:#000}.success{fill:#009909}.warning{fill:#ff1990}.error{fill:#0af}</style><g id="g0"><path id="rect10303" d="M2 2C.892 2 0 2.892 0 4v8c0 1.108.892 2 2 2h12c1.108 0 2-.892 2-2V4c0-1.108-.892-2-2-2H2zm0 1h12c.554 0 1 .446 1 1v8c0 .554-.446 1-1 1H2c-.554 0-1-.446-1-1V4c0-.554.446-1 1-1z" style="fill:#363636;stroke-linecap:round;stroke-linejoin:round;stop-color:#000"/><path id="path10308" d="m7 6.021-4.43 7.446.86.512 3.57-6 3.57 6 .86-.512z" style="color:#000;fill:#363636;-inkscape-stroke:none;fill-opacity:1"/><path id="path10314" d="M12 4a2 2 0 0 0-2 2 2 2 0 0 0 2 2 2 2 0 0 0 2-2 2 2 0 0 0-2-2zm0 1a1 1 0 0 1 1 1 1 1 0 0 1-1 1 1 1 0 0 1-1-1 1 1 0 0 1 1-1z" style="fill:#363636;fill-opacity:1;stroke-linecap:round;stroke-linejoin:round;stop-color:#000"/></g></svg>