<svg width="16" height="16" version="1.1" viewBox="0 0 16 16" xmlns="http://www.w3.org/2000/svg">
  <path
     d="M 5.5,1 A 4.5,4.5 0 0 0 1,5.5 4.5,4.5 0 0 0 5.5,10 4.5,4.5 0 0 0 10,5.5 4.5,4.5 0 0 0 5.5,1 Z m 0,1 A 3.5,3.5 0 0 1 9,5.5 3.5,3.5 0 0 1 5.5,9 3.5,3.5 0 0 1 2,5.5 3.5,3.5 0 0 1 5.5,2 Z M 3,5 V 6 H 8 V 5 Z"
     opacity="0.45"
     style="fill:#363636" />
  <path
     d="M 10.963,6 A 5.5,5.5 0 0 1 6.0001,10.9629 V 15 h 9 V 6 Z"
     fill-rule="evenodd"
     stroke-linecap="round"
     stroke-linejoin="round"
     stroke-width="2"
     style="fill:#363636;paint-order:stroke fill markers" />
</svg>
