<svg xmlns="http://www.w3.org/2000/svg" id="svg1" width="16" height="16" version="1.1"><style id="s0">.base{fill:#000}.success{fill:#009909}.warning{fill:#ff1990}.error{fill:#0af}</style><g id="g0"><path id="path2268" d="M8.24 7.355a.5.5 0 0 0-.704.069L6.09 9.248a.5.5 0 0 0 .008.58l1.449 1.662c.44.472 1.16-.156.754-.656L7.573 10h2.717c.21 0 .365.123.506.305.14.182.209.363.209.363a.5.5 0 0 0 .94-.338s-.113-.319-.358-.637C11.34 9.375 10.904 9 10.29 9H7.532l.776-.941a.5.5 0 0 0-.069-.704Z" style="color:#000;fill:#363636;stroke-linecap:round;stroke-linejoin:round;-inkscape-stroke:none;fill-opacity:1"/><path id="rect10105" d="M3 2c-1.108 0-2 .892-2 2v8c0 1.108.892 2 2 2h10c1.108 0 2-.892 2-2V6c0-1.108-.892-2-2-2H9c-.389-1.037-.892-2-2-2Zm0 1h4c.554 0 .805.481 1 1l.16.426L6.586 6H2V4c0-.554.446-1 1-1Zm6 2h4c.554 0 1 .446 1 1v6c0 .554-.446 1-1 1H3c-.554 0-1-.446-1-1V7h5z" style="fill:#363636;stroke-linecap:round;stroke-linejoin:round;stop-color:#000"/></g></svg>