<svg xmlns="http://www.w3.org/2000/svg" id="svg1" width="16" height="16" version="1.1"><style id="s0">.base{fill:#000}.success{fill:#009909}.warning{fill:#ff1990}.error{fill:#0af}</style><g id="g0"><path id="path1080" d="M7.987 1a.5.5 0 0 0-.447.28L5.656 5.117l-4.228.626a.5.5 0 0 0-.277.853L4.22 9.574l-.711 4.215a.5.5 0 0 0 .726.526l3.78-2 3.789 1.982a.5.5 0 0 0 .724-.53l-.734-4.212 3.056-2.991a.5.5 0 0 0-.28-.852l-4.231-.606-1.902-3.83A.5.5 0 0 0 7.987 1Zm.006 1.63L9.56 5.788a.5.5 0 0 0 .376.272l3.491.499-2.519 2.467a.5.5 0 0 0-.143.442l.605 3.474-3.126-1.633a.5.5 0 0 0-.464.002l-3.117 1.648.588-3.477a.5.5 0 0 0-.145-.442l-2.53-2.454 3.488-.516a.5.5 0 0 0 .375-.274Z" style="color:#000;fill:#363636;fill-opacity:1;stroke-width:.966548;stroke-linecap:round;stroke-linejoin:round;-inkscape-stroke:none"/></g></svg>