<svg xmlns="http://www.w3.org/2000/svg" id="svg1" width="16" height="16" version="1.1"><style id="s0">.base{fill:#000}.success{fill:#009909}.warning{fill:#ff1990}.error{fill:#0af}</style><g id="g0"><path id="path13351" d="M7.45 1.333c-1.888.077-3.737.865-5.074 2.383-2.391 2.716-2.282 7.031.506 9.45 2.466 2.14 6.367 2.029 8.533-.513 1.888-2.214 1.775-5.698-.521-7.611-1.963-1.636-5.033-1.523-6.691.53-1.384 1.711-1.268 4.37.543 5.773 1.46 1.13 3.711 1.011 4.853-.563.877-1.21.753-3.06-.594-3.935a2.293 2.293 0 0 0-1.615-.338c-.557.09-1.107.418-1.402.988a1.64 1.64 0 0 0-.127 1.172c.103.4.428.817.924.928.352.078.568-.013.816-.19a.74.74 0 0 0 .318-.46c.05-.237-.064-.505-.213-.653a.5.5 0 0 0-.707 0 .5.5 0 0 0 0 .324c-.107-.024-.136-.062-.171-.2a.773.773 0 0 1 .048-.462c.14-.27.373-.412.674-.461.301-.049.653.024.91.191.818.531.895 1.727.328 2.508-.783 1.08-2.389 1.165-3.43.36C4.023 9.518 3.933 7.497 4.98 6.2c1.287-1.592 3.724-1.683 5.275-.39 1.846 1.538 1.937 4.39.399 6.195-1.79 2.098-5.058 2.192-7.116.406-2.35-2.04-2.445-5.725-.412-8.035 2.292-2.603 6.395-2.7 8.957-.418 2.855 2.542 2.95 7.063.42 9.877a.5.5 0 1 0 .744.67c2.895-3.219 2.784-8.369-.5-11.293a7.519 7.519 0 0 0-5.296-1.88Z" style="color:#000;fill:#363636;fill-opacity:1;fill-rule:evenodd;stroke-linecap:round;stroke-linejoin:round;-inkscape-stroke:none"/></g></svg>