<svg width="16px" height="16px" version="1.1" viewBox="0 0 16 16" xmlns="http://www.w3.org/2000/svg">
 <path d="m3 7c-1.108 0-2 0.892-2 2v4c0 1.108 0.892 2 2 2h10c1.108 0 2-0.892 2-2v-4c0-1.108-0.892-2-2-2h-1v1h1c0.554 0 1 0.446 1 1v4c0 0.554-0.446 1-1 1h-2-6-2c-0.554 0-1-0.446-1-1v-4c0-0.554 0.446-1 1-1h1v-1h-1z" fill="#363636" stroke-linecap="round" stroke-linejoin="round" stroke-width="2" style="paint-order:stroke fill markers"/>
 <rect x="7.5" y="2" width="1" height="9" rx="0" ry="0" fill="#363636" stroke-linecap="round" stroke-linejoin="round" stroke-width="1.8974" style="paint-order:stroke fill markers"/>
 <rect transform="rotate(45)" x="6.364" y="-4.9497" width="6" height="1" fill="#363636" stroke-linecap="round" stroke-linejoin="round" stroke-width="1.8516" style="paint-order:stroke fill markers"/>
 <rect transform="matrix(-.70711 .70711 .70711 .70711 0 0)" x="-4.9497" y="6.364" width="6" height="1" fill="#363636" stroke-linecap="round" stroke-linejoin="round" stroke-width="1.8516" style="paint-order:stroke fill markers"/>
</svg>
