<svg width="16" height="16" version="1.1" viewBox="0 0 16 16" xmlns="http://www.w3.org/2000/svg">
 <path d="m1 2v1h2.5859l0.1875 1h-2e-3l1.125 6h-0.36132a0.50005 0.50005 0 0 0-0.0352 0c-0.53509 3e-6 -1.0313 0.2866-1.2988 0.75-0.26755 0.46341-0.26755 1.0366 0 1.5s0.76374 0.75 1.2988 0.75h0.58789a1.5 1.5 0 0 0-0.0879 0.5 1.5 1.5 0 0 0 1.5 1.5 1.5 1.5 0 0 0 1.5-1.5 1.5 1.5 0 0 0-0.0879-0.5h3.1758a1.5 1.5 0 0 0-0.0879 0.5 1.5 1.5 0 0 0 1.5 1.5 1.5 1.5 0 0 0 1.5-1.5 1.5 1.5 0 0 0-1.4375-1.4961 0.50005 0.50005 0 0 0-0.0625-0.0039h-8c-0.17943-1e-6 -0.34388-0.09461-0.43359-0.25-0.0897-0.1554-0.0897-0.3446 0-0.5 0.0897-0.15539 0.25416-0.25 0.43359-0.25h7c0.64722 0 1.2071-0.30896 1.6113-0.75391 0.40422-0.44495 0.6884-1.0178 0.91992-1.6484 0.46305-1.2612 0.71177-2.7784 0.95898-3.998a0.50005 0.50005 0 0 0-0.49023-0.59961h-9.711l-0.375-2h-3.4141zm3.9785 3h1.0215v1h1v-1h1v1h1v-1h1v1h1v-1h1v1h1v-1h0.86719c-0.0643 0.32753-0.13435 0.66426-0.20117 1h-0.66602v1h0.45117c-0.0829 0.34954-0.17342 0.68477-0.27734 1h-0.17383v0.46289c-0.0767 0.18827-0.15297 0.3787-0.23828 0.53711h-0.76172v0.87109c-0.14995 0.081743-0.30991 0.12891-0.5 0.12891h-0.5v-1h-1v1h-1v-1h-1v1h-1v-1h-1v1h-0.084l-0.1875-1h0.2715v-1h-0.45898l-0.1875-1h0.64648v-1h-0.83398l-0.1875-1zm1.0215 2v1h1v-1zm1 0h1v-1h-1zm1 0v1h1v-1zm1 0h1v-1h-1zm1 0v1h1v-1zm1 0h1v-1h-1zm1 0v1h1v-1zm0 1h-1v1h1zm-2 0h-1v1h1zm-2 0h-1v1h1zm-1.5 5a0.5 0.5 0 0 1 0.5 0.5 0.5 0.5 0 0 1-0.5 0.5 0.5 0.5 0 0 1-0.5-0.5 0.5 0.5 0 0 1 0.5-0.5zm6 0a0.5 0.5 0 0 1 0.5 0.5 0.5 0.5 0 0 1-0.5 0.5 0.5 0.5 0 0 1-0.5-0.5 0.5 0.5 0 0 1 0.5-0.5z" fill="#363636"/>
</svg>
