<svg width="16px" height="16px" version="1.1" viewBox="0 0 16 16" xmlns="http://www.w3.org/2000/svg">
 <path transform="translate(-760,-140)" d="m550 182c-0.35156 4e-3 -0.69531 0.10156-1 0.28125v3.4375c0.30469 0.17969 0.64844 0.27734 1 0.28125 1.1055 0 2-0.89453 2-2s-0.89453-2-2-2zm0 5c-0.33984 0-0.67969 0.0586-1 0.17578v6.8242h4v-4c0-1.6562-1.3438-3-3-3z" fill="#363636" mask="url(#mask38)"/>
 <path transform="translate(-760,-140)" d="m569 182v4c1.1055 0 2-0.89453 2-2s-0.89453-2-2-2zm0 5v7h3v-4c0-1.6562-1.3438-3-3-3z" fill="#363636" mask="url(#mask28)"/>
 <path transform="translate(-760,-140)" d="m573 182.27v3.4492c0.61328-0.35547 0.99609-1.0078 1-1.7188 0-0.71484-0.38281-1.375-1-1.7305zm0 4.9062v6.8242h2v-4c0-1.2695-0.80078-2.4023-2-2.8242z" fill="#363636" mask="url(#mask33)"/>
 <path d="m7.9961 8c-1.6523 0-2.9961 1.3398-2.9961 2.9922v4.5078c0 0.27734 0.22266 0.5 0.5 0.5h4.9922c0.27734 0 0.5-0.22266 0.5-0.5v-4.5078c0-1.6523-1.3438-2.9922-2.9961-2.9922zm0 1c1.1133 0 1.9961 0.87891 1.9961 1.9922v4.0078h-3.9922v-4.0078c0-1.1133 0.88281-1.9922 1.9961-1.9922z" fill="#363636"/>
 <path d="m1.5 0c-0.27734 0-0.5 0.22266-0.5 0.5v2.043c0 1.1523 0.96484 2.082 2.125 2.082s2.125-0.92969 2.125-2.082v-2.043c0-0.27734-0.22266-0.5-0.5-0.5zm0.5 1h2.25v1.543c0 0.60156-0.48438 1.082-1.125 1.082s-1.125-0.48047-1.125-1.082z" fill="#363636"/>
 <path d="m4.75 0c-0.27734 0-0.5 0.22266-0.5 0.5v2.043c0 1.1523 0.96484 2.082 2.125 2.082s2.125-0.92969 2.125-2.082v-2.043c0-0.27734-0.22266-0.5-0.5-0.5zm0.5 1h2.25v1.543c0 0.60156-0.48438 1.082-1.125 1.082s-1.125-0.48047-1.125-1.082z" fill="#363636"/>
 <path d="m8 0c-0.27734 0-0.5 0.22266-0.5 0.5v2.043c0 1.1523 0.96484 2.082 2.125 2.082s2.125-0.92969 2.125-2.082v-2.043c0-0.27734-0.22266-0.5-0.5-0.5zm0.5 1h2.25v1.543c0 0.60156-0.48438 1.082-1.125 1.082s-1.125-0.48047-1.125-1.082z" fill="#363636"/>
 <path d="m11.25 0c-0.27734 0-0.5 0.22266-0.5 0.5v2.043c0 1.1523 0.96484 2.082 2.125 2.082s2.125-0.92969 2.125-2.082v-2.043c0-0.27734-0.22266-0.5-0.5-0.5zm0.5 1h2.25v1.543c0 0.60156-0.48438 1.082-1.125 1.082s-1.125-0.48047-1.125-1.082z" fill="#363636"/>
 <path d="m2.0742 0c-1.1491 0-2.0742 0.9251-2.0742 2.0742v11.852c0 1.1491 0.9251 2.0742 2.0742 2.0742h11.852c1.1491 0 2.0742-0.9251 2.0742-2.0742v-11.852c0-1.1491-0.9251-2.0742-2.0742-2.0742h-11.852zm-0.074219 1h12c0.554 0 1 0.446 1 1v12c0 0.554-0.446 1-1 1h-12c-0.554 0-1-0.446-1-1v-12c0-0.554 0.446-1 1-1z" fill="#363636" stroke-linecap="round" stroke-linejoin="round" stroke-width="2" style="paint-order:stroke fill markers"/>
</svg>
