<svg xmlns="http://www.w3.org/2000/svg" width="16" height="16"><path d="M75 215h1v16h-1z" style="opacity:1;fill:#363636;fill-opacity:1" transform="translate(-75 -215)"/><path d="M75 215h16v1H75Z" style="opacity:1;fill:#363636;fill-opacity:1" transform="translate(-75 -215)"/><path d="M90 215h1v16h-1z" style="opacity:1;fill:#363636;fill-opacity:1" transform="translate(-75 -215)"/><path d="M75 230h16v1H75Zm0-12h16v1H75Zm0 3h16v1H75Zm0 3h16v1H75Z" style="opacity:1;fill:#363636;fill-opacity:1" transform="translate(-75 -215)"/><path d="M75 739.362h16v1H75Z" style="opacity:1;fill:#363636;fill-opacity:1" transform="translate(-75 -727.362)"/><path d="M78 215h1v16h-1zm3 0h1v16h-1zm3 0h1v16h-1zm3 0h1v16h-1z" style="opacity:1;fill:#363636;fill-opacity:1" transform="translate(-75 -215)"/></svg>