<svg width="16" height="16" version="1.1" viewBox="0 0 16 16" xmlns="http://www.w3.org/2000/svg">
  <path
     d="M 1,3 V 4 H 3.0898 A 1.5,1.5 0 0 1 2.99996,3.5 1.5,1.5 0 0 1 3.0898,3 Z M 5.9141,3 A 1.5,1.5 0 0 1 6.00004,3.5 1.5,1.5 0 0 1 5.9102,4 H 15 V 3 Z"
     style="fill:#363636;stroke-width:2;stroke-linecap:round;stroke-linejoin:round" />
  <path
     d="M 4.5,1 A 2.5,2.5 0 0 0 2,3.5 2.5,2.5 0 0 0 4.5,6 2.5,2.5 0 0 0 7,3.5 2.5,2.5 0 0 0 4.5,1 Z m 0,1 A 1.5,1.5 0 0 1 6,3.5 1.5,1.5 0 0 1 4.5,5 1.5,1.5 0 0 1 3,3.5 1.5,1.5 0 0 1 4.5,2 Z"
     stroke-width="3.3333"
     style="fill:#363636;stroke-linecap:round;stroke-linejoin:round" />
  <path
     d="m 1,8 v 1 h 9.0898 A 1.5,1.5 0 0 1 9.99996,8.5 1.5,1.5 0 0 1 10.0898,8 Z M 12.914,8 A 1.5,1.5 0 0 1 12.99994,8.5 1.5,1.5 0 0 1 12.9101,9 h 2.0898 V 8 Z"
     style="fill:#363636;stroke-width:2;stroke-linecap:round;stroke-linejoin:round" />
  <path
     d="m 1,13 v 1 H 3.0898 A 1.5,1.5 0 0 1 2.99996,13.5 1.5,1.5 0 0 1 3.0898,13 Z m 4.9141,0 A 1.5,1.5 0 0 1 6.00004,13.5 1.5,1.5 0 0 1 5.9102,14 H 15 v -1 z"
     style="fill:#363636;stroke-width:2;stroke-linecap:round;stroke-linejoin:round" />
  <path
     d="M 11.5,6 A 2.5,2.5 0 0 0 9,8.5 2.5,2.5 0 0 0 11.5,11 2.5,2.5 0 0 0 14,8.5 2.5,2.5 0 0 0 11.5,6 Z m 0,1 A 1.5,1.5 0 0 1 13,8.5 1.5,1.5 0 0 1 11.5,10 1.5,1.5 0 0 1 10,8.5 1.5,1.5 0 0 1 11.5,7 Z"
     stroke-width="3.3333"
     style="fill:#363636;stroke-linecap:round;stroke-linejoin:round" />
  <path
     d="M 4.5,11 A 2.5,2.5 0 0 0 2,13.5 2.5,2.5 0 0 0 4.5,16 2.5,2.5 0 0 0 7,13.5 2.5,2.5 0 0 0 4.5,11 Z m 0,1 A 1.5,1.5 0 0 1 6,13.5 1.5,1.5 0 0 1 4.5,15 1.5,1.5 0 0 1 3,13.5 1.5,1.5 0 0 1 4.5,12 Z"
     stroke-width="3.3333"
     style="fill:#363636;stroke-linecap:round;stroke-linejoin:round" />
</svg>
