<svg width="16" height="16" version="1.1" viewBox="0 0 16 16" xmlns="http://www.w3.org/2000/svg">
 <g transform="translate(-39.016 -72.408)" fill="#363636">
  <path d="m50.054 73.828c0.42071-0.02348 1.0329 0.20896 1.5962 0.6061 0.85071 0.59974 1.3301 1.3842 1.0707 1.752-0.10389 0.14587-0.31631 0.20898-0.60443 0.17956l-1.7165 2.435c0.4049 0.53576 0.5273 1.0178 0.32997 1.2997-0.3266 0.46186-1.4187 0.26793-2.5107-0.44585l-1.646 2.3345-0.33294-0.23472 1.646-2.3347c-1.0391-0.78867-1.5887-1.7521-1.2636-2.2149 0.19911-0.28062 0.69436-0.32732 1.3351-0.1259l1.7162-2.4342c-0.1246-0.26178-0.13635-0.48324-0.03343-0.63005 0.07864-0.11159 0.22084-0.1757 0.41354-0.18643z"/>
  <path d="m39.016 77.408v7 4h4 7v-4h-7v-7h-4zm1 1h2v7h7v2h-7-2v-2-7z" opacity=".35" stop-color="#000000" stroke-linecap="round" stroke-linejoin="round" stroke-width="1.206"/>
  <path d="m44.016 72.408v11h11v-11h-11zm1 1h9v9h-9v-9z" stop-color="#000000" stroke-linecap="round" stroke-linejoin="round" stroke-width="2"/>
 </g>
</svg>
