<svg xmlns="http://www.w3.org/2000/svg" width="16" height="16"><rect width="1" height="9" x="4" y="4" rx="0" ry="0" fill="#363636" paint-order="stroke fill markers"/><rect width="7" height="1" x="5" y="12" rx="0" ry="0" fill="#363636" paint-order="stroke fill markers"/><rect ry="0" rx="0" y="9" x="5" height="1" width="5" fill="#363636" paint-order="stroke fill markers"/><rect width="7" height="1" x="5" y="6" rx="0" ry="0" fill="#363636" paint-order="stroke fill markers"/><path d="M12.5 5a1.5 1.5 0 1 0 0 3 1.5 1.5 0 0 0 0-3zm0 1a.499.499 0 1 1 0 1 .499.499 0 1 1 0-1zM10.5 8a1.5 1.5 0 1 0 0 3 1.5 1.5 0 0 0 0-3zm0 1a.499.499 0 1 1 0 1 .499.499 0 1 1 0-1zM12.5 11a1.5 1.5 0 1 0 0 3 1.5 1.5 0 0 0 0-3zm0 1a.499.499 0 1 1 0 1 .499.499 0 1 1 0-1zM4.5 2a1.5 1.5 0 1 0 0 3 1.5 1.5 0 0 0 0-3zm0 1a.499.499 0 1 1 0 1 .499.499 0 1 1 0-1z" fill="#363636"/></svg>