<svg width="16" height="16" version="1.1" xmlns="http://www.w3.org/2000/svg">
 <path d="m12.503 1c1.8141 0 1.9768 2.461 0.5 2.9199v7.0801c0 1.662-1.338 3-3 3h-4.0859c-0.17548 0.54986-0.64108 1-1.4141 1-2 0-2-3 0-3 0.77299 0 1.2386 0.45014 1.4141 1h4.0859c1.108 0 2-0.892 2-2v-1h-4.0859c-0.17548 0.54986-0.64108 1-1.4141 1-2 0-2-3 0-3 0.77299 0 1.2386 0.45014 1.4141 1h4.0859v-3h-6.0859c-0.17548 0.54986-0.64108 1-1.4141 1-2 0-2-3 0-3 0.77299 0 1.2386 0.45014 1.4141 1h6.0859v-1.0801c-1.4768-0.45889-1.3141-2.9199 0.5-2.9199zm0 1c-0.66667 0-0.66667 1 0 1s0.66667-1 0-1zm-8 3c-0.66667 0-0.66667 1 0 1s0.66667-1 0-1zm2 4c-0.66667 0-0.66667 1 0 1s0.66667-1 0-1zm-2 4c-0.66667 0-0.66667 1 0 1s0.66667-1 0-1z" fill="#363636" stroke-width=".88192" style="paint-order:stroke fill markers"/>
</svg>
