<svg width="16px" height="16px" version="1.1" viewBox="0 0 16 16" xmlns="http://www.w3.org/2000/svg">
 <g fill="#363636">
  <path d="m2.9961 2c-1.1058 0-1.9961 0.89026-1.9961 1.9961v8.0078c0 1.1058 0.89026 1.9961 1.9961 1.9961h4.0039v-1h-4c-0.554 0-1-0.446-1-1v-8c0-0.554 0.446-1 1-1h4v-1h-4.0039zm9.0039 0v1h1c0.554 0 1 0.446 1 1v8c0 0.554-0.446 1-1 1h-1v1h1.0039c1.1058 0 1.9961-0.89026 1.9961-1.9961v-8.0078c0-1.1058-0.89026-1.9961-1.9961-1.9961h-1.0039z"/>
  <rect x="6" y="2" width="1" height="11.973" rx="0" ry="0"/>
  <rect x="8" y="2" width="1" height="11.973" rx="0" ry="0"/>
  <rect x="10" y="2" width="1" height="11.973" rx="0" ry="0"/>
  <rect x="2" y="3" width="5" height="10" opacity=".2"/>
 </g>
</svg>
