<svg width="16px" height="16px" version="1.1" xmlns="http://www.w3.org/2000/svg">
 <path d="m11.5 1c-0.277 0-0.5 0.223-0.5 0.5v4.5c0 0.554-0.446 1-1 1s-1-0.446-1-1v-0.5c0-0.034625-0.00313-0.068955-0.00977-0.10156-0.00664-0.032607-0.016679-0.06382-0.029296-0.09375-0.012618-0.02993-0.02894-0.057393-0.046876-0.083984-0.017931-0.026592-0.037949-0.051625-0.060542-0.074219-0.022594-0.022594-0.047627-0.042611-0.074219-0.060547s-0.054055-0.034258-0.083985-0.046875c-0.029929-0.012617-0.061142-0.022658-0.09375-0.029297-0.032607-0.0066386-0.066937-0.0097656-0.10156-0.0097656s-0.068955 0.00313-0.10156 0.00977c-0.032608 0.00664-0.063821 0.01668-0.09375 0.029297-0.02993 0.012617-0.057393 0.028939-0.083985 0.046875s-0.051625 0.037953-0.074219 0.060547c-0.022593 0.022594-0.042611 0.047627-0.060546 0.074219-0.017936 0.026592-0.034258 0.054055-0.046876 0.083984-0.012617 0.02993-0.022658 0.061143-0.029296 0.09375-0.006639 0.032603-0.009766 0.066933-0.009766 0.10156v0.5c0 0.554-0.446 1-1 1s-1-0.446-1-1v-0.5c0-0.034625-0.00313-0.068955-0.00977-0.10156-0.00664-0.032607-0.016679-0.06382-0.029296-0.09375-0.012618-0.02993-0.02894-0.057393-0.046876-0.083984-0.017931-0.026592-0.037949-0.051625-0.060542-0.074219-0.022594-0.022594-0.047627-0.042611-0.074219-0.060547s-0.054055-0.034258-0.083985-0.046875c-0.029929-0.012617-0.061142-0.022658-0.09375-0.029297-0.032607-0.0066386-0.066937-0.0097656-0.10156-0.0097656s-0.068955 0.00313-0.10156 0.00977c-0.032608 0.00664-0.063821 0.01668-0.09375 0.029297-0.02993 0.012617-0.057393 0.028939-0.083985 0.046875s-0.051625 0.037953-0.074219 0.060547c-0.022593 0.022594-0.042611 0.047627-0.060546 0.074219-0.017936 0.026592-0.034258 0.054055-0.046876 0.083984-0.012617 0.02993-0.022658 0.061143-0.029296 0.09375-0.006639 0.032603-0.009766 0.066933-0.009766 0.10156v0.5c0 0.554-0.446 1-1 1s-1-0.446-1-1v-3.5c0-0.277-0.223-0.5-0.5-0.5s-0.5 0.223-0.5 0.5v10.5c0 1.108 0.89201 2 2 2h6c0.76796 0 1.4322-0.42866 1.7676-1.0605l4.0605-4.0605c0.19587-0.19587 0.19587-0.51116 0-0.70703-0.09793-0.09793-0.22571-0.14648-0.35352-0.14648-0.12781 0-0.25558 0.04855-0.35352 0.14648l-2.3457 2.3457c-0.07895 0.05205-0.17323 0.08203-0.27539 0.08203-0.277 0-0.5-0.223-0.5-0.5v-9.5996c0-0.277-0.223-0.5-0.5-0.5zm-7.5 7h1v1.5c0 0.277 0.223 0.5 0.5 0.5s0.5-0.223 0.5-0.5v-1.5h2v1.5c0 0.277 0.223 0.5 0.5 0.5s0.5-0.223 0.5-0.5v-1.5h1c0.554 0 1 0.446 1 1v4c0 0.554-0.446 1-1 1h-6c-0.554 0-1-0.446-1-1v-4c0-0.554 0.446-1 1-1z" fill="#363636" style="paint-order:stroke fill markers"/>
</svg>
