<svg xmlns="http://www.w3.org/2000/svg" width="16" height="16"><path d="M4.203 12v1H16v-1z" style="fill:#363636;fill-opacity:1;stroke-width:.917938;stroke-linecap:butt"/><path d="M3.214 10.386a.998.998 0 0 0-1.414 0L.386 11.801a.998.998 0 0 0 0 1.414L1.8 14.629a.998.998 0 0 0 1.414 0l1.414-1.414a.998.998 0 0 0 0-1.414zm-.707.707 1.414 1.415-1.414 1.414-1.414-1.414z" style="fill:#363636;fill-rule:evenodd;stroke-linecap:round;stroke-linejoin:round;stop-color:#000"/><rect width="2" height="2" x="9.617" y="6.072" rx="0" ry="0" style="opacity:.35;fill:#363636;fill-rule:evenodd;stroke-linecap:round;stroke-linejoin:round;stop-color:#000" transform="rotate(45)"/><path d="M8.65 0 4.648 11h1.067L9.35 1h1.3l3.635 10h1.067L11.35 0h-2.7z" style="color:#000;fill:#363636;-inkscape-stroke:none;fill-opacity:1"/><path d="M7 5h6v1H7z" style="fill:#363636;fill-opacity:1;fill-rule:evenodd;stroke-linecap:round;stroke-linejoin:round;stop-color:#000"/></svg>