<svg xmlns="http://www.w3.org/2000/svg" width="16" height="16"><path d="M8 5h1v11H8Z" style="fill:#363636;fill-opacity:1"/><path d="M3 10h11v1H3Zm7-3h2v2h-2zm0 5h2v2h-2zm-5 0h2v2H5Zm0-5h2v2H5Z" style="fill:#363636;fill-opacity:1"/><path d="M7.5 0A4.5 4.5 0 0 0 3 4.5a4.5 4.5 0 0 0 .035.5H4.04A3.5 3.5 0 0 1 4 4.5 3.5 3.5 0 0 1 7.5 1 3.5 3.5 0 0 1 11 4.5a3.5 3.5 0 0 1-.04.5h1.01a4.5 4.5 0 0 0 .03-.5A4.5 4.5 0 0 0 7.5 0Z" style="opacity:1;fill:#363636;fill-rule:evenodd;stroke-linecap:round;stroke-linejoin:round;stop-color:#000"/><path d="M-.172 1.576h1v5h-1z" style="opacity:1;fill:#363636;fill-rule:evenodd;stroke-linecap:round;stroke-linejoin:round;stop-color:#000" transform="rotate(-30)"/><path d="M-.172 5.576h5v1h-5z" style="opacity:1;fill:#363636;fill-rule:evenodd;stroke-linecap:round;stroke-linejoin:round;stop-color:#000" transform="rotate(-30)"/></svg>