<svg xmlns="http://www.w3.org/2000/svg" width="16" height="16"><path d="M13 0v6.066a1.5 1.494 0 0 1 .5-.09 1.5 1.494 0 0 1 .5.087V0h-1zm0 8.875v7.063h1V8.875a1.5 1.494 0 0 1-.5.09 1.5 1.494 0 0 1-.5-.09z" style="stroke-width:.998052;fill:#363636;fill-opacity:1"/><path d="M13.5 4.98A2.5 2.49 0 0 0 11 7.47a2.5 2.49 0 0 0 2.5 2.49A2.5 2.49 0 0 0 16 7.47a2.5 2.49 0 0 0-2.5-2.49zm0 .997A1.5 1.494 0 0 1 15 7.47a1.5 1.494 0 0 1-1.5 1.494A1.5 1.494 0 0 1 12 7.47a1.5 1.494 0 0 1 1.5-1.494z" style="stroke-width:.998052;fill:#363636;fill-opacity:1"/><path d="M2.121-2.121h4v1h-4z" style="opacity:1;fill:#363636;fill-rule:evenodd;stroke-linecap:round;stroke-linejoin:round;stop-color:#000" transform="rotate(45)"/><path d="M-2.121 2.121h4v1h-4z" style="opacity:1;fill:#363636;fill-rule:evenodd;stroke-linecap:round;stroke-linejoin:round;stop-color:#000" transform="scale(-1 1) rotate(45)"/><path d="M-1.414-12.728h4v1h-4z" style="opacity:1;fill:#363636;fill-rule:evenodd;stroke-linecap:round;stroke-linejoin:round;stop-color:#000" transform="rotate(135)"/><path d="M-12.728-1.414h4v1h-4z" style="opacity:1;fill:#363636;fill-rule:evenodd;stroke-linecap:round;stroke-linejoin:round;stop-color:#000" transform="scale(-1 1) rotate(-45)"/><path d="M-9.192-13.435h4v1h-4z" style="opacity:1;fill:#363636;fill-rule:evenodd;stroke-linecap:round;stroke-linejoin:round;stop-color:#000" transform="scale(1 -1) rotate(45)"/><path d="M-13.435-9.192h4v1h-4z" style="opacity:1;fill:#363636;fill-rule:evenodd;stroke-linecap:round;stroke-linejoin:round;stop-color:#000" transform="rotate(-135)"/><path d="M2.5 1h1v14h-1z" style="opacity:1;fill:#363636;fill-rule:evenodd;stroke-linecap:round;stroke-linejoin:round;stop-color:#000"/><path d="M3 7.5h6v1H3z" style="opacity:1;fill:#363636;fill-rule:evenodd;stroke-linecap:round;stroke-linejoin:round;stop-color:#000"/><path d="M15 7.47a1.5 1.494 0 0 1-1.5 1.495A1.5 1.494 0 0 1 12 7.47a1.5 1.494 0 0 1 1.5-1.495A1.5 1.494 0 0 1 15 7.471Z" style="stroke-width:.598831;opacity:.35;fill:#363636;fill-opacity:1"/></svg>