<svg xmlns="http://www.w3.org/2000/svg" width="16" height="16"><path d="M15.313 15.994a.513.512 0 0 1-.405-.594c.233-1.595-.061-3.721-1.124-5.404a6.002 6.002 0 0 0-2.777-2.374V6.497a7.122 7.122 0 0 1 3.651 2.937c1.225 1.939 1.516 4.26 1.248 6.091a.513.512 0 0 1-.593.469zM.615 15.869a.523.522 0 0 1-.5-.438c-.297-1.826-.053-4.147 1.124-6.06.79-1.285 2.036-2.369 3.776-2.936v1.062c-1.345.501-2.27 1.377-2.902 2.405-1.012 1.646-1.229 3.74-.968 5.342a.523.522 0 0 1-.53.625z" style="stroke-width:.999121;fill:#363636;fill-opacity:1"/><path d="M8 4a2 2 0 0 0-2 2 2 2 0 0 0 2 2 2 2 0 0 0 2-2 2 2 0 0 0-2-2zm0 1a1 1 0 0 1 1 1 1 1 0 0 1-1 1 1 1 0 0 1-1-1 1 1 0 0 1 1-1z" style="fill:#363636;fill-rule:evenodd;stroke-linecap:round;stroke-linejoin:round;stop-color:#000"/></svg>