<svg xmlns="http://www.w3.org/2000/svg" width="16" height="16"><path d="M903.906 506.86a.5.5 0 0 0-.25.157l-5.629 5.628a2 2 0 0 1 .688.688l5.629-5.629a.5.5 0 0 0-.438-.844zm-8.619 8.526-5.63 5.63a.5.5 0 1 0 .687.688l5.63-5.63a2 2 0 0 1-.687-.688zm8.983-2.066a.5.5 0 0 0-.038.025l-5.33.402a2 2 0 0 1 .098.615 2 2 0 0 1-.031.352l5.32-.403a.5.5 0 0 0-.02-.992zm-9.24.72-5.317.402a.5.5 0 1 0 .057.969l5.341-.404a2 2 0 0 1-.111-.645 2 2 0 0 1 .03-.322z" style="opacity:1;fill:#363636;fill-opacity:1" transform="translate(-889 -506.362)"/><path d="M753.5 31a2 2 0 0 0-2 2 2 2 0 0 0 2 2 2 2 0 0 0 2-2 2 2 0 0 0-2-2zm0 .667A1.333 1.333 0 0 1 754.833 33a1.333 1.333 0 0 1-1.333 1.333A1.333 1.333 0 0 1 752.166 33a1.333 1.333 0 0 1 1.334-1.333z" style="opacity:1;fill:#363636;fill-opacity:1" transform="matrix(1.5 0 0 1.49998 -1122.256 -41.5)"/><path d="M899 514.362a2 2 0 0 1-2 2 2 2 0 0 1-2-2 2 2 0 0 1 2-2 2 2 0 0 1 2 2z" style="opacity:.35;stroke-width:1.00002;fill:#363636;fill-opacity:1" transform="translate(-889 -506.362)"/></svg>