<svg xmlns="http://www.w3.org/2000/svg" width="16" height="16"><path d="M927 506.362h1v15h-1z" style="opacity:1;fill:#363636;fill-opacity:1" transform="translate(-919 -506.362)"/><path d="M920 513.362h15v1h-15z" style="opacity:1;fill:#363636;fill-opacity:1" transform="translate(-919 -506.362)"/><path d="M922-4v4h4v-4h-4zm7 0v4h4v-4h-4zm-6 1h2v2h-2v-2zm7 0h2v2h-2v-2zm-8 6v4h4V3h-4zm7 0v4h4V3h-4zm-6 1h2v2h-2V4zm7 0h2v2h-2V4z" style="opacity:1;fill:#363636;fill-opacity:1" transform="translate(-919 6)"/></svg>