<svg xmlns="http://www.w3.org/2000/svg" width="16" height="16"><path d="M800.414 527.37a.497.519 0 0 0 .127 1.028s3.642.546 6.236 2.271c1.297.863 2.298 1.972 2.545 3.436.23 1.364-.151 3.119-1.77 5.396l.862.861-.479.479c3.346-.094 5.18-1.402 6.104-2.78.958-1.43.96-2.917.96-2.917a.497.519 0 1 0-.991 0s.004 1.137-.776 2.3c-.681 1.018-2.17 1.925-4.717 2.174 1.417-2.18 2.066-4.093 1.8-5.676-.312-1.843-1.546-3.197-2.98-4.15-2.866-1.906-6.671-2.398-6.671-2.398a.497.519 0 0 0-.25-.024z" style="opacity:1;fill:#363636;fill-opacity:1" transform="translate(-798.999 -527.362)"/><path d="M8.707 10.879a.998.998 0 0 0-1.414 0l-1.414 1.414a.998.998 0 0 0 0 1.414l1.414 1.414a.998.998 0 0 0 1.414 0l1.414-1.414a.998.998 0 0 0 0-1.414zM8 11.586 9.414 13 8 14.414 6.586 13Z" style="fill:#363636;fill-rule:evenodd;stroke-linecap:round;stroke-linejoin:round;stop-color:#000"/><rect width="2" height="2" x="13.849" y="2.536" rx="0" ry="0" style="opacity:.35;fill:#363636;fill-rule:evenodd;stroke-linecap:round;stroke-linejoin:round;stop-color:#000" transform="rotate(45)"/></svg>