<svg width="16" height="16" version="1.1" xmlns="http://www.w3.org/2000/svg">
 <path d="m10.516 4.98c-0.30606 0.0011-0.5539 0.24894-0.555 0.555 0 0.305 0.25 0.555 0.555 0.555h1.898c0.305 0 0.55-0.25 0.55-0.555 0.0011-0.30503-0.24498-0.55335-0.55-0.555zm-4.016 0.02c-1.3791 0.0038454-2.4962 1.1209-2.5 2.5 0 0.332 0.156 0.629 0.281 0.934-0.73 0.433-1.281 1.156-1.281 2.066 0 0.66667 1 0.66667 1 0 0-0.664 0.418-1.21 1.004-1.418 0.14728-0.048663 0.26224-0.1651 0.309-0.313 0.049436-0.14703 0.027235-0.30873-0.06-0.437-0.16458-0.24629-0.25261-0.53578-0.253-0.832 0-0.836 0.664-1.5 1.5-1.5 1.2043-0.01031 1.9226 1.3384 1.242 2.332-0.084682 0.1293-0.10602 0.29008-0.058 0.437 0.05 0.149 0.164 0.266 0.312 0.313 0.59 0.207 1.024 0.758 1.004 1.406-0.016 0.66667 0.984 0.69067 1 0.024 0.023-0.926-0.543-1.649-1.285-2.082 0.125-0.301 0.285-0.598 0.285-0.93 0-1.375-1.125-2.5-2.5-2.5m3.984 1.984c-0.28836-0.00166-0.523 0.23164-0.523 0.52 0 0.289 0.234 0.523 0.523 0.523h1.961c0.28836 4.8e-6 0.52166-0.23464 0.52-0.523 0-0.29-0.23-0.52-0.52-0.52z" fill="#363636"/>
 <path d="m3 2c-1.662 0-3 1.338-3 3v6c0 1.662 1.338 3 3 3h10c1.662 0 3-1.338 3-3v-6c0-1.662-1.338-3-3-3h-10zm0 1h10c1.108 0 2 0.892 2 2v6c0 1.108-0.892 2-2 2h-10c-1.108 0-2-0.892-2-2v-6c0-1.108 0.892-2 2-2z" fill="#363636"/>
</svg>
