<svg width="16" height="16" version="1.1" xmlns="http://www.w3.org/2000/svg">
 <path d="m7.5234 0c4.207e-4 2.219-1.7986 4.0004-4.0176 4h-2.5059v1h1.4668l-1.9883 5.2461a0.50005 0.50005 0 0 0 0.20898 0.60547c0.69757 0.42138 1.4956 0.64568 2.3105 0.64844a0.50005 0.50005 0 0 0 0.0039062 0c0.81491-0.002812 1.613-0.22705 2.3105-0.64844a0.50005 0.50005 0 0 0 0.20898-0.60547l-1.9883-5.2461c1.6214-0.0086946 3.0594-0.78866 3.9668-1.9922v10.992h-4.5v1h10v-1h-4.5v-11.033c0.90011 1.219 2.3395 2.0131 3.9668 2.0312l-1.9883 5.248a0.50005 0.50005 0 0 0 0.20898 0.60547c0.69757 0.42138 1.4956 0.64568 2.3105 0.64844a0.50005 0.50005 0 0 0 0.003906 0c0.81491-0.0028 1.613-0.22705 2.3105-0.64844a0.50005 0.50005 0 0 0 0.20898-0.60547l-1.9883-5.2461h1.4961v-1h-2.5059c-2.219 4.21e-4 -4.018-1.781-4.0176-4h-0.98242zm-4.5234 6.4102 1.4004 3.6973c-0.44638 0.2015-0.90556 0.39034-1.3984 0.39258-0.49416-0.001673-0.9548-0.19054-1.4023-0.39258l1.4004-3.6973zm10 0 1.4004 3.6973c-0.44638 0.2015-0.90556 0.39034-1.3984 0.39258-0.49416-0.0017-0.9548-0.19054-1.4023-0.39258l1.4004-3.6973z" fill="#363636" stroke-linecap="round" stroke-linejoin="round" stroke-width="2.5" style="paint-order:stroke fill markers"/>
</svg>
