<svg xmlns="http://www.w3.org/2000/svg" width="16" height="16"><path d="M2 6C.892 6 0 6.892 0 8v6c0 1.108.892 2 2 2h7c1.108 0 2-.892 2-2V8c0-1.108-.892-2-2-2Zm0 1h7c.554 0 1 .446 1 1v6c0 .554-.446 1-1 1H2c-.554 0-1-.446-1-1V8c0-.554.446-1 1-1Z" style="fill:#363636;fill-rule:evenodd;stroke-linecap:round;stroke-linejoin:round;stop-color:#000"/><path d="M7 1c-1.108 0-2 .892-2 2v2h1V3c0-.554.446-1 1-1h7c.554 0 1 .446 1 1v6c0 .554-.446 1-1 1h-2v1h2c1.108 0 2-.892 2-2V3c0-1.108-.892-2-2-2Z" style="fill:#363636;fill-rule:evenodd;stroke-linecap:round;stroke-linejoin:round;stop-color:#000"/></svg>