<svg xmlns="http://www.w3.org/2000/svg" width="16" height="16"><path d="M6 6h1v1H6zm0 2h1v1H6zm0 2h1v1H6zm0 2h1v1H6zm0 2h1v1H6zm2-8h1v1H8zm2 0h1v1h-1zm2 0h1v1h-1zm2 0h1v1h-1zM8 8h1v7H8z" style="fill:#363636;fill-opacity:1;fill-rule:evenodd;stroke-linecap:round;stroke-linejoin:round;stop-color:#000"/><path d="M8 8h7v1H8zm3 3h1v4h-1z" style="fill:#363636;fill-opacity:1;fill-rule:evenodd;stroke-linecap:round;stroke-linejoin:round;stop-color:#000"/><path d="M11 11h4v1h-4z" style="fill:#363636;fill-opacity:1;fill-rule:evenodd;stroke-linecap:round;stroke-linejoin:round;stop-color:#000"/><path d="M14 8h1v4h-1zm-6 6h4v1H8zM4 4h1v11H4zm1 0h10v1H5z" style="fill:#363636;fill-opacity:1;fill-rule:evenodd;stroke-linecap:round;stroke-linejoin:round;stop-color:#000"/><path d="M1 1h14v1H1z" style="fill:#363636;fill-opacity:1;fill-rule:evenodd;stroke-width:1.18322;stroke-linecap:round;stroke-linejoin:round;stop-color:#000"/><path d="M1 1h1v14H1z" style="fill:#363636;fill-opacity:1;fill-rule:evenodd;stroke-width:1.18322;stroke-linecap:round;stroke-linejoin:round;stop-color:#000"/><path d="M1 14h4v1H1zM14 1h1v4h-1z" style="fill:#363636;fill-opacity:1;fill-rule:evenodd;stroke-linecap:round;stroke-linejoin:round;stop-color:#000"/></svg>