<svg xmlns="http://www.w3.org/2000/svg" width="16" height="16"><path d="M7.5 1A6.486 6.486 0 0 0 1 7.5V15h4V6h5v9h4V7.5C14 3.899 11.101 1 7.5 1zm0 1C10.547 2 13 4.453 13 7.5V14h-2V5H4v9H2V7.5C2 4.453 4.453 2 7.5 2z" style="fill:#363636;fill-rule:evenodd;stroke-width:2.64575;stroke-linecap:round;stroke-linejoin:round;stop-color:#000;fill-opacity:1"/><path d="M7 7h1v1H7zm0 2h1v1H7zm0 2h1v1H7zm0 2h1v1H7zm0 2h1v1H7z" style="fill:#363636;fill-rule:evenodd;stroke-linecap:round;stroke-linejoin:round;stop-color:#000;fill-opacity:1"/></svg>