<svg width="16px" height="16px" version="1.1" viewBox="0 0 16 16" xmlns="http://www.w3.org/2000/svg">
 <path d="m8 0a8 8 0 0 0-8 8 8 8 0 0 0 1.5469 4.6934l0.79102-0.57617a7 7 0 0 1-1.3379-4.1172 7 7 0 0 1 7-7 7 7 0 0 1 7 7 7 7 0 0 1-1.3379 4.1172l0.79102 0.57617a8 8 0 0 0 1.5469-4.6934 8 8 0 0 0-8-8zm-1.0312 3c-1.6328 0-2.9688 1.3359-2.9688 2.9688v3.0312 1 2.4375c0 0.27734 0.22266 0.5 0.5 0.5s0.5-0.22266 0.5-0.5v-2.4375h5.9961v2.4375c0 0.27734 0.22266 0.5 0.5 0.5 0.27734 0 0.5-0.22266 0.5-0.5v-6.4688c0-1.6328-1.3359-2.9688-2.9688-2.9688h-2.0586zm0 1h2.0586c1.0937 0 1.9688 0.875 1.9688 1.9688v3.0312h-5.9961v-3.0312c0-1.0937 0.875-1.9688 1.9688-1.9688zm-0.49414 7c-0.26521 0.013548-0.47461 0.23511-0.47461 0.5 0 0.27734 0.22266 0.5 0.5 0.5 0.27344 0 0.5-0.22266 0.5-0.5 0-0.27344-0.22656-0.5-0.5-0.5-0.008667 0-0.016836-4.37e-4 -0.025391 0zm3 0c-0.26521 0.013548-0.47461 0.23511-0.47461 0.5 0 0.27734 0.22266 0.5 0.5 0.5 0.27344 0 0.5-0.22266 0.5-0.5 0-0.27344-0.22656-0.5-0.5-0.5-0.008667 0-0.016836-4.37e-4 -0.025391 0zm-5.9824 1.9844c-0.13281 0-0.25781 0.050778-0.35547 0.14844l-1.9805 1.9805c-0.19531 0.19531-0.19531 0.51172 0 0.70703 0.19531 0.19531 0.51172 0.19531 0.70703 0l1.9805-1.9844c0.19531-0.19141 0.19531-0.51172 0-0.70313-0.09375-0.097656-0.21875-0.14844-0.35156-0.14844zm9.0234 0c-0.13281 0-0.26172 0.050781-0.35547 0.14844-0.19531 0.19141-0.19531 0.51172 0 0.70313l1.9805 1.9844c0.19531 0.19531 0.51563 0.19531 0.71094 0 0.19141-0.19531 0.19141-0.51172 0-0.70703l-1.9844-1.9805c-0.09375-0.097659-0.22266-0.14844-0.35156-0.14844z" fill="#363636" fill-rule="evenodd"/>
</svg>
