<svg xmlns="http://www.w3.org/2000/svg" width="16" height="16"><path d="m9.043 5.094-.05.006-.048.013-.252.078.297.955.197-.06.69-.07-.102-.996Zm1.736.904-.021.07.013.004v.008l.038.004.795.248.105-.338.307-.566-.026-.014-.043-.023-.047-.014-.845-.264-.047-.013-.051-.006-.086-.008Zm-3.533-.17-.043.024-.037.03-.393.325.637.772.36-.297.384-.207-.476-.88Zm5.074.928.506.416.158.193.772-.636-.188-.229-.03-.037-.038-.031-.543-.448Zm-6.437.41-.031.037-.024.043-.373.688.879.476.348-.64.111-.135-.772-.637Zm7.615.938.184.335.154.495.955-.295-.168-.54-.014-.046-.023-.043-.209-.385ZM5.002 9.949 4.998 10l.004.05.012.116.996-.1L6.004 10l.082-.828-.994-.102Zm8.977-.13.017.181-.082.81-.01.034.008.002-.002.011.057.006.892.278.028-.086.013-.047.006-.05.092-.907V9.95l-.023-.231zM5.174 11.25l.203.65.014.047.023.043.152.281.88-.476-.128-.234-.19-.606zm8.144.98-.185.225.771.637.213-.258.031-.037.024-.043.316-.584-.879-.477zm-7.148.952.262.318.03.037.038.031.453.373.637-.771-.416-.344-.233-.281Zm6.06.136-.486.264.477.879.533-.29.043-.023.037-.03.303-.25-.637-.772zm-4.35 1.198.13.07.043.023.047.014.816.254.297-.955-.772-.24-.082-.045zm2.93-.602-.802.082.1.996.849-.086.05-.006.048-.013.14-.045-.297-.955z" style="opacity:1;stroke-linecap:butt;fill:#363636;fill-opacity:1"/><path d="M2 10h9v1H2z" style="fill:#363636;fill-rule:evenodd;stroke-linecap:round;stroke-linejoin:round;stop-color:#000" transform="matrix(0 1 1 0 0 0)"/><path d="M10 1h1v10h-1z" style="fill:#363636;fill-rule:evenodd;stroke-width:1.11803;stroke-linecap:round;stroke-linejoin:round;stop-color:#000" transform="matrix(0 1 1 0 0 0)"/><path d="m0 10.5.707-.707 2.121-2.121.707.707-2.12 2.121 2.12 2.121-.707.707-2.121-2.121Z" style="fill:#363636;fill-rule:evenodd;stroke-linecap:round;stroke-linejoin:round;stop-color:#000"/></svg>