<svg xmlns="http://www.w3.org/2000/svg" width="16" height="16"><path d="M8.023.002C5.981.022 3.937.349 1.887.93a.5.5 0 0 0-.33.658c.383 1.006.415 2.455.384 4.025-.03 1.57-.114 3.261.147 4.815.267 1.594 1.175 2.7 2.258 3.517 1.083.817 2.345 1.384 3.441 1.992a.5.5 0 0 0 .451.016c1.36-.628 2.67-1.32 3.71-2.201 1.039-.88 1.814-1.976 1.995-3.342.412-3.092-.404-5.942.51-8.85a.5.5 0 0 0-.322-.624A19.008 19.008 0 0 0 8.023.002Zm.01 1a.5.5 0 0 0 .002 0c1.834-.021 3.648.297 5.402.826-.752 3.008-.13 5.797-.484 8.45a.5.5 0 0 0 0 .001c-.142 1.071-.734 1.933-1.652 2.711-.863.731-2.038 1.35-3.272 1.932-1.07-.58-2.193-1.105-3.082-1.776-.959-.722-1.653-1.57-1.873-2.884-.234-1.4-.164-3.04-.133-4.63.027-1.363-.027-2.655-.332-3.808 1.823-.481 3.631-.805 5.424-.822Z" style="color:#000;fill:#363636;stroke-linecap:round;stroke-linejoin:round;-inkscape-stroke:none;fill-opacity:1"/><path d="M8.031 2.625c.832.669 1.55 1.485 1.966 2.84-.916.678-1.523 1.905-1.685 3.152h.624c.058-.27.12-.572.25-.874 1.193-2.786 4.627-.23 2.778 1.186-.056-1.266-.959-1.703-1.748-.53-.05.073-.086.148-.125.218h.53c.525 0 .525.812 0 .812h-.78c.015.569.459.936.905.936-.5 1.33-1.867.703-1.903-.936H8.28c.026.944.323 1.827.967 2.403-.3.58-.509 1.254-1.217 1.498-.555-.202-.997-.777-1.217-1.498.643-.597.925-1.475.936-2.403h-.593c-.037 1.638-1.403 2.267-1.903.936.446 0 .89-.367.904-.936h-.78c-.523 0-.523-.812 0-.812h.53c-.038-.07-.075-.146-.124-.218-.789-1.173-1.692-.736-1.748.53-1.847-1.416 1.586-3.972 2.779-1.186.13.302.191.604.25.874h.623c-.182-1.215-.802-2.42-1.653-3.152.353-1.101.976-2.083 1.997-2.84Z" style="opacity:1;stroke-width:.998677;fill:#363636;fill-opacity:1"/></svg>