<svg xmlns="http://www.w3.org/2000/svg" width="16" height="16"><path d="M14.5 10a4.5 4.5 0 0 1-4.5 4.5A4.5 4.5 0 0 1 5.5 10 4.5 4.5 0 0 1 10 5.5a4.5 4.5 0 0 1 4.5 4.5Z" style="opacity:.5;fill:#363636;fill-opacity:1"/><path d="M10 5c-2.756 0-5 2.244-5 5s2.244 5 5 5 5-2.244 5-5-2.244-5-5-5zm0 1c2.215 0 4 1.785 4 4s-1.785 4-4 4-4-1.785-4-4 1.785-4 4-4Z" style="opacity:1;stroke-linecap:butt;fill:#363636;fill-opacity:1"/><path d="M2 10h9v1H2z" style="fill:#363636;fill-rule:evenodd;stroke-linecap:round;stroke-linejoin:round;stop-color:#000"/><path d="M10 1h1v10h-1z" style="fill:#363636;fill-rule:evenodd;stroke-width:1.11803;stroke-linecap:round;stroke-linejoin:round;stop-color:#000"/><path d="m10.5 0-.707.707-2.121 2.121.707.707 2.121-2.12 2.121 2.12.707-.707L11.207.707Z" style="fill:#363636;fill-rule:evenodd;stroke-linecap:round;stroke-linejoin:round;stop-color:#000"/></svg>