<svg xmlns="http://www.w3.org/2000/svg" width="16" height="16"><path d="m7.354 1.031.05 1L8 2.002l.352.016.05-.998L8.025 1h-.05zm1.888 1.1.553.142.357.131.344-.94-.39-.142-.024-.008-.025-.005-.565-.147Zm-3.299-.822-.025.005-.023.008-.596.219-.024.008-.023.012-.022.01.33.689.083.22.021-.007.543-.2.313-.082-.249-.968Zm5.024 1.48.385.234.402.301.598-.8-.418-.315-.02-.014-.02-.011-.408-.248Zm-6.862-.605-.02.011-.019.014-.5.375-.02.014-.017.017-.105.096.672.738.084-.076.468-.35.176-.107-.52-.853Zm8.305 1.76.217.236.35.466.013.02.196-.146.644-.393-.014-.022-.011-.02-.014-.019-.375-.5-.014-.02-.017-.017-.235-.26Zm-9.795-.415-.017.018-.014.02-.375.5-.014.019-.011.02-.141.232.853.517.125-.207.35-.466.055-.059-.74-.672Zm10.822 1.948.088.183.202.547.029.111.969-.248-.034-.127-.005-.025-.008-.023-.219-.596-.008-.024-.012-.023-.101-.209Zm-12.115.418-.008.023-.005.025-.094.364.969.25.09-.352.203-.55-.94-.344Zm12.625 1.353.02.13.031.622-.031.623-.045.297.988.15.05-.33.005-.025v-.026L15 8.025v-.05l-.035-.664v-.026l-.004-.025-.025-.162ZM1 7.975v.05l.021.414.999-.05L2.002 8l.027-.559-1-.05zm.172 1.552.137.53.005.025.008.023.157.426.939-.344-.145-.392-.132-.516Zm12.355.81-.164.339.903.433.173-.361.012-.023.008-.024.205-.56-.94-.344zm-11.572 1.18.229.378.011.02.014.019.336.449.8-.6-.322-.431-.214-.354zm10.672.303-.33.364.738.671.35-.384.017-.018.014-.02.287-.384-.8-.598zm-9.33 1.356.232.209.018.017.02.014.5.375.019.014.02.011.054.034.52-.854-.032-.02-.468-.349-.21-.191Zm8.055-.2-.487.297h-.002l-.025.016.154.254.305.633.017-.01.024-.01.02-.013.536-.327.02-.011.02-.014.28-.211-.597-.8zm-6.274 1.38.174.083.023.012.024.008.596.219.023.008.025.005.162.043.25-.968-.148-.04-.545-.199-.15-.074zm4.717-.63-.59.151-.08.014.15.988.11-.018.025-.002.024-.007.623-.16.025-.007.023-.007.23-.086-.343-.938zm-2.66 1.215.125.02.025.004h.026l.664.035h.05l.207-.012-.05-.998-.182.008-.621-.031-.094-.014ZM8 3C5.244 3 3 5.244 3 8s2.244 5 5 5 5-2.244 5-5-2.244-5-5-5Zm0 1c2.215 0 4 1.785 4 4s-1.785 4-4 4-4-1.785-4-4 1.785-4 4-4Z" style="opacity:1;stroke-linecap:butt;fill:#363636;fill-opacity:1"/><path d="M12.5 8A4.5 4.5 0 0 1 8 12.5 4.5 4.5 0 0 1 3.5 8 4.5 4.5 0 0 1 8 3.5 4.5 4.5 0 0 1 12.5 8Z" style="opacity:.35;fill:#363636;fill-opacity:1"/></svg>