<svg width="16px" height="16px" version="1.1" viewBox="0 0 16 16" xmlns="http://www.w3.org/2000/svg">
 <path d="m14 1v3.4375a7 7 0 0 0-5.834-3.4355 7 7 0 0 0-1.9785 0.23633 7 7 0 0 0-5.1035 5.7617h1.0254a6 6 0 0 1 4.3379-4.7949 6 6 0 0 1 6.7129 2.7949h-3.1602v1h4 0.69727 0.30273v-1-4h-1zm-0.10938 8a6 6 0 0 1-4.3379 4.7949 6 6 0 0 1-6.7129-2.7949h3.1602v-1h-4-0.69727-0.30273v1 4h1v-3.4375a7 7 0 0 0 7.8125 3.1992 7 7 0 0 0 5.1035-5.7617h-1.0254z" fill="#363636" stroke-linecap="round" stroke-width="2" style="paint-order:stroke fill markers"/>
</svg>
