<svg version="1.1" viewBox="0 0 16 16" xmlns="http://www.w3.org/2000/svg">
 <defs>
  <style id="current-color-scheme" type="text/css">.ColorScheme-Text {
        color:#363636;
      }</style>
 </defs>
 <path class="ColorScheme-Text" d="m12.5 9c-1.933 0-3.5 1.567-3.5 3.5s1.567 3.5 3.5 3.5 3.5-1.567 3.5-3.5-1.567-3.5-3.5-3.5zm-0.5 1h1v2h2v1h-2v2h-1v-2h-2v-1h2z" fill="currentColor"/>
 <path d="m6.8711 0-4.8906 0.03125c-1.0983 0.0072-1.9847 0.89975-1.9863 1.998l-0.0078125 4.9492c-8e-4 0.53143 0.21014 1.0422 0.58594 1.418l6.6309 6.6309c0.53652 0.53652 1.3006 0.70444 1.9805 0.50391a4.5 4.5 0 0 1-0.64844-0.92578c-0.2279-0.018672-0.45063-0.11077-0.625-0.28516l-6.6309-6.6309c-0.1879-0.1879-0.29337-0.44326-0.29297-0.70898l0.0078125-4.9492c8e-4 -0.54915 0.44299-0.9964 0.99219-1l4.8906-0.03125c0.2671-0.00175 0.52379 0.10438 0.71289 0.29297l6.6816 6.6641c0.15226 0.15188 0.24345 0.34018 0.27734 0.53711a4.5 4.5 0 0 1 0.95508 0.65625c0.16489-0.65991-0.008714-1.387-0.52539-1.9023l-6.6816-6.6641c-0.3781-0.37718-0.89168-0.58748-1.4258-0.58398zm-2.8711 3c-0.5523 0-1 0.44772-1 1s0.4477 1 1 1 1-0.44772 1-1-0.4477-1-1-1z" fill="#363636"/>
</svg>
