<svg xmlns="http://www.w3.org/2000/svg" width="16" height="16"><path d="M3.908 1.5c-.257 0-.495.075-.702.198a4.786 4.786 0 0 0-1.193-.185c-.476-.01-.785.051-.785.051s.613.47 1.321 1.076a1.386 1.386 0 0 0 1.643 1.595c.764.958 1.041 2.155 1.485 3.579.476 1.526 1.203 3.272 3.066 4.746.04.725.642 1.306 1.377 1.306.23 0 .443-.062.634-.162.754.297 1.492.472 2.126.573 1.142.182 1.91.155 1.91.155s-.677-.374-1.642-.925c-.526-.3-1.081-.637-1.646-.999l.002-.026a1.385 1.385 0 0 0-1.873-1.29C8.17 9.998 7.664 8.727 7.228 7.33c-.439-1.408-.76-2.98-1.943-4.32A1.386 1.386 0 0 0 3.908 1.5Zm0 .554a.82.82 0 0 1 .83.828c0 .464-.365.83-.83.83a.823.823 0 0 1-.83-.83.82.82 0 0 1 .83-.828Zm6.212 9.599c.465 0 .83.365.83.83 0 .464-.365.83-.83.83a.82.82 0 0 1-.828-.83.82.82 0 0 1 .828-.83Z" style="opacity:1;fill:#363636;fill-opacity:1"/><path d="m1.455.784-.456 1.56c.75.219 1.343.466 1.824.738a1.1 1.1 0 0 1 .975-1.294c-.644-.392-1.415-.732-2.343-1.004Zm3.542 1.927c.01.056.018.113.018.172a1.1 1.1 0 0 1-1.036 1.099c.178.193.333.393.469.6.588.903.85 2.037 1.26 3.328.408 1.292.995 2.736 2.323 4.03.306.3.651.589 1.038.868a1.098 1.098 0 0 1-.054-.324c0-.539.38-.985.889-1.085a7.636 7.636 0 0 1-.738-.622C8.092 9.729 7.638 8.623 7.257 7.42c-.38-1.202-.652-2.506-1.448-3.725a5.822 5.822 0 0 0-.812-.984Zm6.192 9.5c.023.087.038.178.038.273a1.1 1.1 0 0 1-.94 1.089c1.128.617 2.532 1.17 4.294 1.643l.42-1.57c-1.604-.43-2.839-.917-3.812-1.435Z" style="opacity:.3;fill:#363636;fill-opacity:1"/></svg>