<svg xmlns="http://www.w3.org/2000/svg" width="16" height="16"><path d="M506 838.362h1v11h-1z" style="opacity:1;fill:#363636;fill-opacity:1" transform="translate(-499 -836.362)"/><path d="M499 848.362h8v1h-8z" style="opacity:1;fill:#363636;fill-opacity:1" transform="translate(-499 -836.362)"/><path d="M789.945 608.888h8.465v1.038h-8.465z" style="opacity:1;fill:#363636;fill-opacity:1" transform="matrix(.9328 .3604 -.37858 .92557 -499 -836.362)"/><path d="m2.285 4-2 7h1.04l.571-2h2.506l.559 2H6L4.041 4Zm.754 1h.244l.84 3H2.182ZM13.535 5.722l-4.257 5.906.978.352 1.217-1.687 2.357.85-.153 2.071.977.353.533-7.25zm.37 1.196.23.083-.228 3.107-1.827-.659z" style="color:#000;fill:#363636;fill-opacity:1;-inkscape-stroke:none"/></svg>