<svg width="16px" height="16px" version="1.1" viewBox="0 0 16 16" xmlns="http://www.w3.org/2000/svg">
 <path d="m4 3c-0.55078 0-1 0.44922-1 1s0.44922 1 1 1h1 4.0312 1.9688c0.554 0 1 0.446 1 1v1h-1-1.0078-4.9062-0.085938c-0.0196 0-0.039279-8.516e-4 -0.058594-0.0019531-1.5815 0.020038-2.9041 1.2965-2.9609 2.8965v0.035156c0.0039059 1.6836 1.3906 3.0703 3.0742 3.0703h5.875c1.6836 0 3.0703-1.3906 3.0703-3.0742l-0.003906-3.9297c0-1.6406-1.3594-2.9961-3.0039-2.9961h-6.9922zm1 6h1.9004 3.0645 1.0352 1v1c0 0.554-0.446 1-1 1h-2.1445-1.8398-2.0156c-0.554 0-1-0.446-1-1s0.446-1 1-1z" fill="#363636"/>
</svg>
