<svg xmlns="http://www.w3.org/2000/svg" width="16" height="16"><path d="M439 844.362h7v1h-7zm8 7h8v1h-8z" style="opacity:1;fill:#363636;fill-opacity:1" transform="matrix(.99946 0 0 1 -438.761 -836.361)"/><path d="M446 332h1v8h-1z" style="opacity:1;fill:#363636;fill-opacity:1" transform="matrix(.99946 0 0 1 -438.761 -324)"/><path d="M3 0 1 7h1.04l.571-2h2.506l.559 2h1.039l-1.96-7Zm.754 1h.244l.84 3H2.896ZM11 7l-2 7h1.04l.571-2h2.506l.559 2h1.039l-1.96-7Zm.754 1h.244l.84 3h-1.942z" style="color:#000;fill:#363636;fill-opacity:1;-inkscape-stroke:none"/></svg>