<svg xmlns="http://www.w3.org/2000/svg" width="16" height="16"><path d="M204 568.459c0 5.019 0 2.559.031 5.459v.429h2.75c1.681.067 1.605-4.048-.031-3.926H205v-1.962zm.938 2.852h1.875c.367-.038.434 2.164 0 2.146h-1.876c-.006-.466.004-2.002 0-2.146zM199 569.362v.873h1.75a.344.344 0 0 1 .25.124.63.63 0 0 1 .125.374v.717h-1.875c-1.61-.117-1.687 2.962-.031 2.897h2.75v-.436l.031-3.147c0-.37-.102-.714-.313-.966a1.282 1.282 0 0 0-.843-.436H199zm.188 2.96h1.906l-.032 1.153h-1.875c-.468.018-.4-1.193 0-1.153zm3.75 4.088c-4.242 0-7.698 3.087-7.97 7h1c.28-3.353 3.288-6 6.97-6 3.681 0 6.689 2.647 6.968 6h1c-.27-3.913-3.727-7-7.968-7z" style="opacity:1;fill:#363636;fill-opacity:1" transform="translate(-194.938 -567.409)"/></svg>