<svg width="16px" height="16.004px" version="1.1" viewBox="0 0 16 16.004" xmlns="http://www.w3.org/2000/svg">
 <path d="m7.5469 0-3.0469 8h3.7148l-1.8047 3.6133-1.0117-1.2031-0.35156 5.5898 4.332-3.5859-1.6719-0.17187 4.3398-6.2422h-3.6953l3.1953-6h-3.5469zm0.6875 1h1.6465l-3.1953 6h-0.73633z" fill="#363636"/>
 <path d="m5.9824 1.3008a7 7 0 0 0-4.9824 6.6992 7 7 0 0 0 3.1797 5.8613l0.074219-1.1953a6 6 0 0 1-2.2539-4.666 6 6 0 0 1 3.5039-5.4395l0.47852-1.2598zm5.6309 0.70312-0.47266 0.88672a6 6 0 0 1 2.8594 5.1094 6 6 0 0 1-4.8086 5.8652l-1.3555 1.123a7 7 0 0 0 0.16406 0.011719 7 7 0 0 0 7-7 7 7 0 0 0-3.3867-5.9961z" fill="#363636" stroke-linecap="round" stroke-linejoin="round" stroke-width="2"/>
</svg>
