<svg width="16px" height="16px" version="1.1" viewBox="0 0 16 16" xmlns="http://www.w3.org/2000/svg">
 <path d="m7.9961 4.1055 0.92969 2.8945 3.0742 0.007812-2.4609 1.7773 0.9375 2.9258-2.4492-1.793-2.4922 1.7969 0.94531-2.8828-2.4805-1.8125 3.0391 0.007813z" fill="#363636"/>
 <path d="m2 2c-1.108 0-2 0.892-2 2v2 1a1 1 0 0 1 1 1 1 1 0 0 1-1 1v1 2c0 1.108 0.892 2 2 2h12c1.108 0 2-0.892 2-2v-2-1a1 1 0 0 1-1-1 1 1 0 0 1 1-1v-1-2c0-1.108-0.892-2-2-2h-12zm0 1h12c0.554 0 1 0.446 1 1v2.2676a2 2 0 0 0-1 1.7324 2 2 0 0 0 1 1.7324v2.2676c0 0.554-0.446 1-1 1h-12c-0.554 0-1-0.446-1-1v-2.2676a2 2 0 0 0 1-1.7324 2 2 0 0 0-1-1.7324v-2.2676c0-0.554 0.446-1 1-1z" fill="#363636"/>
</svg>
