<svg width="16px" height="16px" version="1.1" viewBox="0 0 16 16" xmlns="http://www.w3.org/2000/svg">
 <path d="m2 2c-1.108 0-2 0.892-2 2v3a1 1 0 0 1 1 1 1 1 0 0 1-1 1v3c0 1.108 0.892 2 2 2h12c1.108 0 2-0.892 2-2v-3a1 1 0 0 1-1-1 1 1 0 0 1 1-1v-3c0-1.108-0.892-2-2-2zm0 1h12c0.554 0 1 0.446 1 1v2.2676a2 2 0 0 0-1 1.7324 2 2 0 0 0 1 1.7324v2.2676c0 0.554-0.446 1-1 1h-12c-0.554 0-1-0.446-1-1v-2.2676a2 2 0 0 0 1-1.7324 2 2 0 0 0-1-1.7324v-2.2676c0-0.554 0.446-1 1-1z" fill="#363636"/>
 <rect x="3" y="3" width="1" height="1" fill="#363636" stroke-linecap="round" stroke-linejoin="round" stroke-width="2" style="paint-order:stroke fill markers"/>
 <rect x="3" y="9" width="1" height="1" fill="#363636" stroke-linecap="round" stroke-linejoin="round" stroke-width="2" style="paint-order:stroke fill markers"/>
 <rect x="3" y="5" width="1" height="1" fill="#363636" stroke-linecap="round" stroke-linejoin="round" stroke-width="2" style="paint-order:stroke fill markers"/>
 <rect x="3" y="7" width="1" height="1" fill="#363636" stroke-linecap="round" stroke-linejoin="round" stroke-width="2" style="paint-order:stroke fill markers"/>
 <rect x="3" y="11" width="1" height="2" fill="#363636" stroke-linecap="round" stroke-linejoin="round" stroke-width="2.8284" style="paint-order:stroke fill markers"/>
 <rect x="12" y="3" width="1" height="1" fill="#363636" stroke-linecap="round" stroke-linejoin="round" stroke-width="2" style="paint-order:stroke fill markers"/>
 <rect x="12" y="9" width="1" height="1" fill="#363636" stroke-linecap="round" stroke-linejoin="round" stroke-width="2" style="paint-order:stroke fill markers"/>
 <rect x="12" y="5" width="1" height="1" fill="#363636" stroke-linecap="round" stroke-linejoin="round" stroke-width="2" style="paint-order:stroke fill markers"/>
 <rect x="12" y="7" width="1" height="1" fill="#363636" stroke-linecap="round" stroke-linejoin="round" stroke-width="2" style="paint-order:stroke fill markers"/>
 <rect x="12" y="11" width="1" height="2" fill="#363636" stroke-linecap="round" stroke-linejoin="round" stroke-width="2.8284" style="paint-order:stroke fill markers"/>
</svg>
