<svg xmlns="http://www.w3.org/2000/svg" id="svg1" width="16" height="16" version="1.1"><style id="s0">.success{fill:#009909}.error{fill:#0af}</style><path id="rect866" d="M1 1v4h4V1H1zm1 1h2v2H2V2z" style="fill:#363636;fill-rule:evenodd;stroke-linecap:round;stroke-linejoin:round;stop-color:#000"/><path id="path871" d="M6 1v4h4V1Zm1 1h2v2H7Z" style="fill:#ff1990;fill-rule:evenodd;stroke-linecap:round;stroke-linejoin:round;stop-color:#000;fill-opacity:1;opacity:.75"/><path id="path873" d="M11 1v4h4V1Zm1 1h2v2h-2z" style="fill:#ff1990;fill-rule:evenodd;stroke-linecap:round;stroke-linejoin:round;stop-color:#000;fill-opacity:1;opacity:.75"/><path id="path875" d="M1 6v4h4V6Zm1 1h2v2H2Z" style="fill:#ff1990;fill-rule:evenodd;stroke-linecap:round;stroke-linejoin:round;stop-color:#000;fill-opacity:1;opacity:.75"/><path id="path877" d="M6 6v4h4V6Zm1 1h2v2H7Z" style="fill:#ff1990;fill-rule:evenodd;stroke-linecap:round;stroke-linejoin:round;stop-color:#000;fill-opacity:1;opacity:.75"/><path id="path879" d="M11 6v4h4V6Zm1 1h2v2h-2z" style="fill:#ff1990;fill-rule:evenodd;stroke-linecap:round;stroke-linejoin:round;stop-color:#000;fill-opacity:1;opacity:.75"/><path id="path881" d="M1 11v4h4v-4zm1 1h2v2H2Z" style="fill:#ff1990;fill-rule:evenodd;stroke-linecap:round;stroke-linejoin:round;stop-color:#000;fill-opacity:1;opacity:.75"/><path id="path883" d="M6 11v4h4v-4zm1 1h2v2H7Z" style="fill:#ff1990;fill-rule:evenodd;stroke-linecap:round;stroke-linejoin:round;stop-color:#000;fill-opacity:1;opacity:.75"/><path id="path885" d="M11 11v4h4v-4zm1 1h2v2h-2z" style="fill:#ff1990;fill-rule:evenodd;stroke-linecap:round;stroke-linejoin:round;stop-color:#000;fill-opacity:1;opacity:.75"/></svg>