<svg width="16.01" height="16" version="1.1" viewBox="0 0 16.01 16" xmlns="http://www.w3.org/2000/svg">
 <title>Gnome Symbolic Icon Theme</title>
 <g transform="translate(-660,-100)">
  <path d="m664 100a2 2 0 0 0-2 2 2 2 0 0 0 2 2 2 2 0 0 0 2-2 2 2 0 0 0-2-2zm0 4h-2c-0.554 0-1 0.446-1 1v6c0 0.554 0.446 1 1 1v2c0 0.554 0.446 1 1 1h2c0.554 0 1-0.446 1-1v-2c0.554 0 1-0.446 1-1v-6c0-0.554-0.446-1-1-1h-2zm9-4a2 2 0 0 0-2 2 2 2 0 0 0 2 2 2 2 0 0 0 2-2 2 2 0 0 0-2-2zm-9 1a1 1 0 0 1 1 1 1 1 0 0 1-1 1 1 1 0 0 1-1-1 1 1 0 0 1 1-1zm4 0v14h1v-14h-1zm5 0a1 1 0 0 1 1 1 1 1 0 0 1-1 1 1 1 0 0 1-1-1 1 1 0 0 1 1-1zm-11 4h4v6h-4v-6zm10 0a1.0001 1.0001 0 0 0-0.98633 0.83594l-1 6a1.0001 1.0001 0 0 0 0.98633 1.1641v1c0 0.554 0.446 1 1 1h2c0.554 0 1-0.446 1-1v-1a1.0001 1.0001 0 0 0 0.98633-1.1641l-1-6a1.0001 1.0001 0 0 0-0.98633-0.83594h-2zm0 1h2l1 6h-4l1-6zm-9 6h2v2h-2v-2zm9 1h2v1h-2v-1z" fill="#363636" stop-color="#000000" style="paint-order:stroke fill markers"/>
 </g>
</svg>
