<svg height='16' width='16.005' xmlns='http://www.w3.org/2000/svg'>
  <path
     d="M 4.304,2 1.447,10 H 2.726 L 3.331,8.285 H 6.513 L 7.12,10 H 8.464 L 5.447,2 Z M 4.914,3.871 6.12,7.143 H 3.726 Z M 10.005,5 v 1 h 2.5 c 0.214,0 0.5,0.307 0.5,0.5 V 7 h -2.5 C 10.045,7 9.637,7.192 9.38,7.484 A 1.509,1.509 0 0 0 9.005,8.5 C 9.008,8.86 9.14,9.226 9.395,9.516 9.652,9.805 10.051,10 10.505,10 h 3.5 V 9.578 c 0.008,-0.047 0,-0.078 0,-0.078 v -3 A 1.5,1.5 0 0 0 12.505,5 Z m 0.5,3 h 2.5 v 1 h -2.5 C 10.306,9 10.222,8.945 10.145,8.86 A 0.572,0.572 0 0 1 10.005,8.5 0.56,0.56 0 0 1 10.13,8.14 C 10.203,8.058 10.294,8 10.505,8 Z"
     fill="#363636" />
  <path
     color="#000000"
     d="m 2.505,10.793 -2.354,2.353 a 0.5006316,0.5006316 0 1 0 0.708,0.708 l 1.646,-1.647 2,2 2,-2 2,2 2,-2 2,2 2.354,-2.353 a 0.5006316,0.5006316 0 1 0 -0.708,-0.708 l -1.646,1.647 -2,-2 -2,2 -2,-2 -2,2 z"
     fill="#363636"
     font-family="sans-serif"
     font-weight="400"
     overflow="visible"
     style="line-height:normal;font-variant-ligatures:normal;font-variant-position:normal;font-variant-caps:normal;font-variant-numeric:normal;font-variant-alternates:normal;font-feature-settings:normal;text-indent:0;text-align:start;text-decoration-line:none;text-decoration-style:solid;text-decoration-color:#000000;text-transform:none;text-orientation:mixed;shape-padding:0;isolation:auto;mix-blend-mode:normal;marker:none"
     white-space="normal" />
</svg>
