<svg xmlns="http://www.w3.org/2000/svg" width="16" height="16"><path d="M4 0h1v16H4z" style="opacity:1;fill:#363636;fill-rule:evenodd;stroke-linecap:round;stroke-linejoin:round;stop-color:#000;fill-opacity:1"/><path d="M4 15h8v1H4zM8 0v1h2c.554 0 1 .446 1 1v2h1V2c0-1.108-.892-2-2-2H8z" style="opacity:1;fill:#363636;fill-opacity:1;fill-rule:evenodd;stroke-linecap:round;stroke-linejoin:round;stop-color:#000"/><rect width="4" height="1" x="4" rx="0" ry="0" style="opacity:1;fill:#363636;fill-opacity:1;fill-rule:evenodd;stroke-linecap:round;stroke-linejoin:round;stop-color:#000"/><path d="M11 4h1v12h-1zM5 2h2v1H5zM5 4h1v1H5zM5 6h1v1H5zM5 8h2v1H5zM5 10h1v1H5zM5 12h1v1H5z" style="opacity:1;fill:#363636;fill-opacity:1;fill-rule:evenodd;stroke-linecap:round;stroke-linejoin:round;stop-color:#000"/></svg>