<svg xmlns="http://www.w3.org/2000/svg" width="16" height="16"><path d="m6.001 5.976 5.2 9.36 3.467-3.51z" style="stroke-width:.66667;fill:#363636;fill-opacity:1"/><path d="M12 1a11 11 0 0 0-6.969 2.51v1.336A10 10 0 0 1 12 2V1zM3.51 5.031A11 11 0 0 0 1 12h1a10 10 0 0 1 2.846-6.969H3.51z" style="fill:#363636;fill-rule:evenodd;stroke-width:1.04762;stroke-linecap:round;stroke-linejoin:round;stop-color:#000"/><path d="M12 1h2v1h-2zM1 12h1v2H1z" style="fill:#363636;fill-rule:evenodd;stroke-width:.816497;stroke-linecap:round;stroke-linejoin:round;stop-color:#000"/><path d="M0 13v3h3v-3H0zm1 1h1v1H1v-1zM13 0v3h3V0Zm1 1h1v1h-1zM2 2v4h4V2H2zm1 1h2v2H3V3z" style="fill:#363636;fill-opacity:1;fill-rule:evenodd;stroke-linecap:round;stroke-linejoin:round;stop-color:#000"/><path d="M3 3h2v2H3z" style="fill:#363636;fill-opacity:1;fill-rule:evenodd;stroke-linecap:round;stroke-linejoin:round;stop-color:#000;opacity:.15"/></svg>