<svg xmlns="http://www.w3.org/2000/svg" xmlns:xlink="http://www.w3.org/1999/xlink" width="16" height="16"><path id="a" d="M8.114 4.299a.269.269 0 0 1-.27.269.269.269 0 0 1-.268-.269.269.269 0 0 1 .269-.269.269.269 0 0 1 .269.269Z" style="stroke-width:.290481;fill:#363636;fill-opacity:1"/><use xlink:href="#a" id="b" width="744.094" height="1052.362" x="0" y="0" style="fill:#363636;fill-opacity:1" transform="translate(-.97 .503) scale(1.05865)"/><use xlink:href="#b" id="c" width="744.094" height="1052.362" x="0" y="0" style="fill:#363636;fill-opacity:1" transform="translate(0 -1.472)"/><use xlink:href="#b" id="d" width="744.094" height="1052.362" x="0" y="0" style="fill:#363636;fill-opacity:1" transform="translate(-3.684 -1.325) scale(1.37627)"/><use xlink:href="#c" id="e" width="744.094" height="1052.362" x="0" y="0" style="fill:#363636;fill-opacity:1" transform="translate(-3.906 -1.947) scale(1.37627)"/><path id="f" d="M6.165 4.3a.391.391 0 0 1-.391.391.391.391 0 0 1-.392-.391.391.391 0 0 1 .392-.392.391.391 0 0 1 .391.392Z" style="stroke-width:.423229;fill:#363636;fill-opacity:1"/><use xlink:href="#d" id="g" width="744.094" height="1052.362" x="0" y="0" style="fill:#363636;fill-opacity:1" transform="translate(-4.516 -2.16) scale(1.50123)"/><use xlink:href="#e" id="h" width="744.094" height="1052.362" x="0" y="0" style="fill:#363636;fill-opacity:1" transform="translate(-4.6 -2.11) scale(1.50123)"/><use xlink:href="#f" id="i" width="744.094" height="1052.362" x="0" y="0" style="fill:#363636;fill-opacity:1" transform="translate(-4.434 -2.154) scale(1.50123)"/><use xlink:href="#g" width="744.094" height="1052.362" style="fill:#363636;fill-opacity:1" transform="translate(-4.53 -1.93) scale(1.48564)"/><use xlink:href="#h" width="744.094" height="1052.362" style="fill:#363636;fill-opacity:1" transform="translate(-4.393 -1.888) scale(1.48564)"/><use xlink:href="#i" width="744.094" height="1052.362" style="fill:#363636;fill-opacity:1" transform="translate(-4.36 -2.09) scale(1.48564)"/><use xlink:href="#a" id="j" width="744.094" height="1052.362" x="0" y="0" style="fill:#363636;fill-opacity:1" transform="translate(-2.824 -.869)"/><use xlink:href="#j" width="744.094" height="1052.362" style="fill:#363636;fill-opacity:1" transform="translate(.299 1.792)"/><use xlink:href="#e" id="k" width="744.094" height="1052.362" x="0" y="0" style="fill:#363636;fill-opacity:1" transform="translate(-3.15)"/><use xlink:href="#k" width="744.094" height="1052.362" style="fill:#363636;fill-opacity:1" transform="translate(.461 2.743)"/><use xlink:href="#b" width="744.094" height="1052.362" style="fill:#363636;fill-opacity:1" transform="translate(-.49 -.696)"/><rect width="2" height="2" x="10" y="3" rx=".99" ry=".99" style="opacity:1;fill:#363636;fill-rule:evenodd;stroke:none;stroke-linecap:square;stop-color:#000"/><rect width="2" height="1" x="10" y="4" rx="0" ry="0" style="opacity:1;fill:#363636;fill-rule:evenodd;stroke:none;stroke-linecap:square;stop-color:#000"/><path d="M9.25 6 8.5 7h5l-.75-1Zm-1.5 2L7 9v5l8 1V9l-.75-1ZM8 10h6v3H8Z" style="fill:#363636;fill-opacity:1;stroke:none;stroke-width:1px;stroke-linecap:butt;stroke-linejoin:miter;stroke-opacity:1"/></svg>