<svg xmlns="http://www.w3.org/2000/svg" width="16" height="16"><path d="M9.965.729c-.848-.04-1.642.077-2.238.45-2.147 1.347-2.602 3.678-3.23 5.315-.315.819-.663 1.451-1.19 1.817-.528.365-1.355.537-2.71.275L.007 8.47.027 16h15.97l.009-7.55-.613.14c-1.895.43-3.152.373-4.01.055-.858-.319-1.342-.882-1.688-1.665-.297-.674-.312-1.284-.187-1.707.125-.423.36-.627.592-.67.793-.144.929-.01 1.173.227.245.236.566.75 1.276.953.33.095.67.103.97-.035.301-.138.512-.424.6-.727.176-.605.017-1.307-.367-2.126-.706-1.506-2.365-2.1-3.787-2.166Zm-.047.998h.002c1.176.055 2.44.557 2.926 1.593.326.695.366 1.237.312 1.422-.027.093-.036.089-.056.098-.02.01-.101.03-.278-.02-.358-.102-.478-.346-.855-.71-.378-.365-1.046-.672-2.047-.49H9.92c-.676.122-1.168.684-1.371 1.37-.203.687-.149 1.53.232 2.395.42.954 1.133 1.781 2.254 2.197.99.367 2.298.366 3.965.06V15H1.031L1 9.598c1.183.13 2.2.002 2.875-.465.793-.55 1.216-1.397 1.555-2.28.677-1.764 1.073-3.724 2.828-4.826.307-.192.95-.332 1.66-.3Z" style="color:#000;fill:#363636;-inkscape-stroke:none;fill-opacity:1"/></svg>