<svg xmlns="http://www.w3.org/2000/svg" id="svg1" width="16" height="16" version="1.1"><style id="s0">.success{fill:#009909}.warning{fill:#ff1990}.error{fill:#0af}</style><path id="path2280" d="M1 14c0 1.108.892 2 2 2h6c1.108 0 2-.892 2-2V7h-1v7c0 .554-.446 1-1 1H3c-.554 0-1-.446-1-1V5c0-.554.446-1 1-1h4V3H3c-1.108 0-2 .892-2 2Z" style="fill:#363636;stroke-linecap:round;stroke-linejoin:round;stop-color:#000"/><path id="path2282" d="M6 7c0 .554.446 1 1 1h4V7H7V3H6Z" style="fill:#363636;stroke-linecap:round;stroke-linejoin:round;stop-color:#000"/><path id="path2284" d="m6.293 3.707 4 4L11 7 7 3Z" style="color:#000;fill:#363636;fill-opacity:1;-inkscape-stroke:none"/><path id="path2331" d="M7 0C5.892 0 5 .892 5 2h1c0-.554.446-1 1-1h4V0H7zm7 4v7c0 .554-.446 1-1 1h-1v1h1c1.108 0 2-.892 2-2V4h-1z" style="fill:#363636;stroke-linecap:round;stroke-linejoin:round;stop-color:#000"/><path id="path2333" d="M10 4c0 .554.446 1 1 1h4V4h-4V0h-1z" style="fill:#363636;stroke-linecap:round;stroke-linejoin:round;stop-color:#000"/><path id="path2335" d="m10.293.707 4 4L15 4l-4-4Z" style="color:#000;fill:#363636;fill-opacity:1;-inkscape-stroke:none"/></svg>