<svg width="16" height="16" version="1.1" xmlns="http://www.w3.org/2000/svg">
 <path d="m11.779 1.2943c-0.196-0.1959-0.45111-0.29279-0.70711-0.29279-0.255 0-0.51111 0.096887-0.70711 0.29279l-4.244 4.2413 4.244 4.244 4.2413-4.244c0.392-0.3918 0.392-1.0225 0-1.4142zm-0.70849 0.70573 2.8284 2.8284-3.5355 3.5355-2.8284-2.8284zm3.9291 12-6.0007 0.0014c-1 0-0.99989 0.99989-0.99989 0.99989l7.0006-0.0014zm-9.586-7.7575-2.1213 2.1241c-0.3918 0.3918-0.3918 1.0225 0 1.4142l2.827 2.827c0.3917 0.392 1.0224 0.392 1.4142 0l2.1241-2.1213zm0 1.4142 2.8284 2.8284-1.4142 1.4142-2.8284-2.8284zm-0.73887 6.5753c-0.1477-0.13428-0.36284-0.23064-0.67534-0.23064h-2.9997l1e-7 0.99989h3.9996s4.003e-4 -0.47384-0.32455-0.76926z" fill="#363636"/>
</svg>
