<svg xmlns="http://www.w3.org/2000/svg" width="16" height="16"><path d="M1 3c0-.554.446-1 1-1h5c.554 0 1 .446 1 1v5c0 .554-.446 1-1 1H2c-.554 0-1-.446-1-1Zm1 0v5h5V3Z" style="fill:#363636;fill-rule:evenodd;stroke-linecap:square;stop-color:#000"/><path d="M10 5h1v5h-1z" style="opacity:1;fill:#363636;fill-rule:evenodd;stroke-linecap:square;stop-color:#000"/><path d="M10 9h5v1h-5z" style="opacity:1;fill:#363636;fill-rule:evenodd;stroke-linecap:square;stop-color:#000"/><path d="M10 0v1a4 4 0 0 1 4 4 4 4 0 0 1-4 4v1a5 5 0 0 0 5-5 5 5 0 0 0-5-5z" style="opacity:1;fill:#363636;fill-rule:evenodd;stroke-linecap:square;stop-color:#000"/><path d="M11-5h1v5h-1z" style="opacity:1;fill:#363636;fill-rule:evenodd;stroke-linecap:square;stop-color:#000" transform="rotate(90)"/><path d="M11-1h5v1h-5z" style="opacity:1;fill:#363636;fill-rule:evenodd;stroke-linecap:square;stop-color:#000" transform="rotate(90)"/><path d="M10 11H9a4 4 0 0 1-4 4 4 4 0 0 1-4-4H0a5 5 0 0 0 5 5 5 5 0 0 0 5-5z" style="opacity:1;fill:#363636;fill-rule:evenodd;stroke-linecap:square;stop-color:#000"/></svg>