<svg xmlns="http://www.w3.org/2000/svg" width="16" height="16"><path d="M2 1v1h7c2.77 0 5 2.23 5 5v1h1v-.994A5.993 5.993 0 0 0 8.994 1H2z" style="fill:#363636;fill-rule:evenodd;stroke-linecap:square;stop-color:#000"/><path d="M2 12h2v1H2zM5 12h2v1H5zM9 12h5v1H9z" style="fill:#363636;fill-rule:evenodd;stroke:none;stroke-linecap:square;stop-color:#000"/><path d="m12.172 9.672-.707.707 2.12 2.121-2.12 2.121.707.707 2.121-2.121L15 12.5l-.707-.707Z" style="fill:#363636;fill-rule:evenodd;stroke:none;stroke-linecap:square;stop-color:#000"/><path d="M2 5v1h6.043C9.127 6 10 6.873 10 7.957V8h1c0-1.662-1.338-3-3-3H2z" style="fill:#363636;fill-rule:evenodd;stroke-linecap:square;stop-color:#000"/></svg>