<svg xmlns="http://www.w3.org/2000/svg" width="16" height="16"><path d="M3 3h9v1H3z" style="fill:#363636;fill-rule:evenodd;stroke:none;stroke-width:1.34164;stroke-linecap:square;stop-color:#000" transform="matrix(0 1 1 0 0 0)"/><path d="m.672 10.172.707-.707 2.121 2.12 2.121-2.12.707.707-2.121 2.121L3.5 13l-.707-.707Z" style="fill:#363636;fill-rule:evenodd;stroke:none;stroke-linecap:square;stop-color:#000"/><path d="M8 1c0-.554.446-1 1-1h5c.554 0 1 .446 1 1v5c0 .554-.446 1-1 1H9c-.554 0-1-.446-1-1zm1 0v5h5V1z" style="opacity:.5;fill:#363636;fill-rule:evenodd;stroke-linecap:square;stop-color:#000"/><path d="M8 10c0-.554.446-1 1-1h5c.554 0 1 .446 1 1v5c0 .554-.446 1-1 1H9c-.554 0-1-.446-1-1Zm1 0v5h5v-5z" style="fill:#363636;fill-rule:evenodd;stroke-linecap:square;stop-color:#000"/></svg>