<svg xmlns="http://www.w3.org/2000/svg" width="16" height="16"><path d="M-15 4h14v1h-14z" style="fill:#363636;fill-rule:evenodd;stroke:none;stroke-width:1.67332;stroke-linecap:square;stop-color:#000" transform="rotate(-90)"/><path d="m1.672 2.828.707.707L4.5 1.415l2.121 2.12.707-.707L5.207.707 4.5 0l-.707.707ZM1.672 13.172l.707-.707 2.121 2.12 2.121-2.12.707.707-2.121 2.121L4.5 16l-.707-.707Z" style="fill:#363636;fill-rule:evenodd;stroke:none;stroke-linecap:square;stop-color:#000"/><path d="M9 10c0 .554.446 1 1 1h4c.554 0 1-.446 1-1V6c0-.554-.446-1-1-1h-4c-.554 0-1 .446-1 1zm1 0V6h4v4z" style="fill:#363636;fill-rule:evenodd;stroke-linecap:square;stop-color:#000"/></svg>