<svg xmlns="http://www.w3.org/2000/svg" width="16" height="16"><path d="M3 4h9v1H3z" style="fill:#363636;fill-rule:evenodd;stroke:none;stroke-width:1.34164;stroke-linecap:square;stop-color:#000"/><path d="m10.172 1.672-.707.707 2.12 2.121-2.12 2.121.707.707 2.121-2.121L13 4.5l-.707-.707Z" style="fill:#363636;fill-rule:evenodd;stroke:none;stroke-linecap:square;stop-color:#000"/><path d="M1 9c-.554 0-1 .446-1 1v5c0 .554.446 1 1 1h5c.554 0 1-.446 1-1v-5c0-.554-.446-1-1-1H1zm0 1h5v5H1v-5z" style="fill:#363636;fill-rule:evenodd;stroke-linecap:square;stop-color:#000;opacity:.5"/><path d="M10 9c-.554 0-1 .446-1 1v5c0 .554.446 1 1 1h5c.554 0 1-.446 1-1v-5c0-.554-.446-1-1-1Zm0 1h5v5h-5z" style="fill:#363636;fill-rule:evenodd;stroke-linecap:square;stop-color:#000"/></svg>