<svg xmlns="http://www.w3.org/2000/svg" width="16" height="16"><path d="M1 4h14v1H1z" style="fill:#363636;fill-rule:evenodd;stroke:none;stroke-width:1.67332;stroke-linecap:square;stop-color:#000"/><path d="m13.172 1.672-.707.707 2.12 2.121-2.12 2.121.707.707 2.121-2.121L16 4.5l-.707-.707ZM2.828 1.672l.707.707L1.415 4.5l2.12 2.121-.707.707L.707 5.207 0 4.5l.707-.707Z" style="fill:#363636;fill-rule:evenodd;stroke:none;stroke-linecap:square;stop-color:#000"/><path d="M6 9c-.554 0-1 .446-1 1v4c0 .554.446 1 1 1h4c.554 0 1-.446 1-1v-4c0-.554-.446-1-1-1H6zm0 1h4v4H6v-4z" style="fill:#363636;fill-rule:evenodd;stroke-linecap:square;stop-color:#000"/></svg>