<svg width="16px" height="16px" version="1.1" viewBox="0 0 16 16" xmlns="http://www.w3.org/2000/svg">
 <path d="m2 0c-1.108 0-2 0.892-2 2v5c0 1.108 0.892 2 2 2h6c1.108 0 2-0.892 2-2v-5c0-1.108-0.892-2-2-2h-6zm0 1h6c0.554 0 1 0.446 1 1v5c0 0.554-0.446 1-1 1h-6c-0.554 0-1-0.446-1-1v-5c0-0.554 0.446-1 1-1z" fill="#363636"/>
 <path d="m2 10c-1.108 0-2 0.892-2 2v2c0 1.108 0.892 2 2 2h4c1.108 0 2-0.892 2-2v-2c0-1.108-0.892-2-2-2h-4zm0 1h4c0.554 0 1 0.446 1 1v2c0 0.554-0.446 1-1 1h-4c-0.554 0-1-0.446-1-1v-2c0-0.554 0.446-1 1-1z" fill="#363636"/>
 <rect x="1" y="11" width="6" height="4" rx="1" ry="1" fill="#363636" opacity=".35"/>
 <path d="m11 8c-1.108 0-2 0.892-2 2v2c0 1.108 0.892 2 2 2h3c1.108 0 2-0.892 2-2v-2c0-1.108-0.892-2-2-2h-3zm0 1h3c0.554 0 1 0.446 1 1v2c0 0.554-0.446 1-1 1h-3c-0.554 0-1-0.446-1-1v-2c0-0.554 0.446-1 1-1z" fill="#363636"/>
 <rect x="10" y="9" width="5" height="4" rx="1" ry="1" fill="#363636" opacity=".35"/>
 <rect x="4" y="8" width="1" height="3" rx="0" ry="0" fill="#363636"/>
 <rect transform="rotate(45)" x="11.728" y="-1.4142" width="2" height="1" fill="#363636"/>
 <rect transform="matrix(-.96593 .25882 .25882 .96593 0 0)" x="-5.8463" y="12.955" width="2" height="1" fill="#363636"/>
</svg>
