<svg width="16px" height="16px" version="1.1" viewBox="0 0 16 16" xmlns="http://www.w3.org/2000/svg">
 <filter id="a" x="0" y="0" width="1" height="1">
  <feColorMatrix in="SourceGraphic" values="0 0 0 0 1 0 0 0 0 1 0 0 0 0 1 0 0 0 1 0"/>
 </filter>
 <mask id="b">
  <g filter="url(#a)">
   <path d="m0 0h16v16h-16z" fill-opacity=".3"/>
  </g>
 </mask>
 <clipPath id="c">
  <path d="m0 0h800v800h-800z"/>
 </clipPath>
 <mask id="d">
  <g filter="url(#a)">
   <path d="m0 0h16v16h-16z" fill-opacity=".35"/>
  </g>
 </mask>
 <clipPath id="e">
  <path d="m0 0h800v800h-800z"/>
 </clipPath>
 <mask id="f">
  <g filter="url(#a)">
   <path d="m0 0h16v16h-16z" fill-opacity=".35"/>
  </g>
 </mask>
 <clipPath id="g">
  <path d="m0 0h800v800h-800z"/>
 </clipPath>
 <mask id="h">
  <g filter="url(#a)">
   <path d="m0 0h16v16h-16z" fill-opacity=".35"/>
  </g>
 </mask>
 <clipPath id="i">
  <path d="m0 0h800v800h-800z"/>
 </clipPath>
 <mask id="j">
  <g filter="url(#a)">
   <path d="m0 0h16v16h-16z" fill-opacity=".35"/>
  </g>
 </mask>
 <clipPath id="k">
  <path d="m0 0h800v800h-800z"/>
 </clipPath>
 <g transform="translate(-120 -520)" clip-path="url(#c)" mask="url(#b)">
  <path d="m142.5 351h10.449c-1.1836 0.49219-1.2969 2.457 0 3h-10.449z" fill="#2e3436"/>
 </g>
 <g transform="translate(-120 -520)" clip-path="url(#e)" mask="url(#d)">
  <path d="m104 502c0 0.55078-0.44922 1-1 1s-1-0.44922-1-1 0.44922-1 1-1 1 0.44922 1 1z" fill="#2e3436"/>
 </g>
 <g transform="translate(-120 -520)" clip-path="url(#g)" mask="url(#f)">
  <path d="m106 501v2h8v-2z" fill="#2e3436" fill-rule="evenodd"/>
 </g>
 <g transform="translate(-120 -520)" clip-path="url(#i)" mask="url(#h)">
  <path d="m104 514c0 0.55078-0.44922 1-1 1s-1-0.44922-1-1 0.44922-1 1-1 1 0.44922 1 1z" fill="#2e3436"/>
 </g>
 <g transform="translate(-120 -520)" clip-path="url(#k)" mask="url(#j)">
  <path d="m106 513v2h8v-2z" fill="#2e3436" fill-rule="evenodd"/>
 </g>
 <path d="m2 0c-1.108 0-2 0.892-2 2v5c0 1.108 0.892 2 2 2h6c1.108 0 2-0.892 2-2v-5c0-1.108-0.892-2-2-2h-6zm0 1h6c0.554 0 1 0.446 1 1v5c0 0.554-0.446 1-1 1h-6c-0.554 0-1-0.446-1-1v-5c0-0.554 0.446-1 1-1z" fill="#363636" fill-rule="evenodd" stop-color="#000000"/>
 <path d="m2 10c-1.108 0-2 0.892-2 2v2c0 1.108 0.892 2 2 2h4c1.108 0 2-0.892 2-2v-2c0-1.108-0.892-2-2-2h-4zm0 1h4c0.554 0 1 0.446 1 1v2c0 0.554-0.446 1-1 1h-4c-0.554 0-1-0.446-1-1v-2c0-0.554 0.446-1 1-1z" fill="#363636" fill-rule="evenodd" stop-color="#000000"/>
 <rect x="1" y="11" width="6" height="4" rx="1" ry="1" fill="#363636" fill-rule="evenodd" opacity=".35" stop-color="#000000" stroke-width=".70711"/>
 <path d="m11 8c-1.108 0-2 0.892-2 2v2c0 1.108 0.892 2 2 2h3c1.108 0 2-0.892 2-2v-2c0-1.108-0.892-2-2-2h-3zm0 1h3c0.554 0 1 0.446 1 1v2c0 0.554-0.446 1-1 1h-3c-0.554 0-1-0.446-1-1v-2c0-0.554 0.446-1 1-1z" fill="#363636" fill-rule="evenodd" stop-color="#000000"/>
 <rect x="10" y="9" width="5" height="4" rx="1" ry="1" fill="#363636" fill-rule="evenodd" opacity=".35" stop-color="#000000"/>
 <rect x="4" y="8" width="1" height="3" rx="0" ry="0" fill="#363636" fill-rule="evenodd" stop-color="#000000"/>
 <rect transform="rotate(45)" x="11.728" y="-1.4142" width="2" height="1" fill="#363636" fill-rule="evenodd" stop-color="#000000" stroke-width=".8165"/>
 <rect transform="matrix(-.96593 .25882 .25882 .96593 0 0)" x="-5.8463" y="12.955" width="2" height="1" fill="#363636" fill-rule="evenodd" stop-color="#000000" stroke-width=".8165"/>
</svg>
