<svg width="16px" height="16px" version="1.1" viewBox="0 0 16 16" xmlns="http://www.w3.org/2000/svg">
 <path d="m7.9785 3.4863c-1.6025-6.9e-6 -3.0856 0.85464-3.8906 2.2402l-0.00195 0.00195c-0.76708 1.3286-0.70691 2.8683-0.09375 4.1602l-1.0156 1.7617 0.83398 0.55664 1.2852-2.2285-0.14258-0.25c-0.60279-1.0464-0.6505-2.3733-0.0019562-3.498l0.00195-0.00195c0.44313-0.7617 1.1846-1.2073 2-1.4668l-1.2891 2.2344 1.5391 2.332 2.791 0.16797 1.2949-2.2441c0.18368 0.83933 0.16685 1.71-0.27539 2.4766-0.64959 1.1251-1.823 1.7488-3.0313 1.75h-0.28711l-1.3848 2.3965 0.83398 0.55469 1.1797-2.041c1.4254-0.11491 2.7896-0.83154 3.5566-2.1602 0.80278-1.3914 0.8032-3.1088 0-4.5l-0.43359-0.74805-0.43359 0.74805-1.5762 2.7324-1.6758-0.10156-0.92383-1.3984 2.0059-3.4727z" color="#000000" fill="#363636" fill-rule="evenodd" style="-inkscape-stroke:none"/>
 <path d="m7.4453 0.16797-6 4c-0.27768 0.18514-0.44529 0.49829-0.44531 0.83203v6c2.68e-5 0.33374 0.16763 0.64689 0.44531 0.83203l6 4c0.3347 0.22309 0.77467 0.22309 1.1094 0l6-4c0.27768-0.18514 0.44529-0.49829 0.44531-0.83203v-6c-2.6e-5 -0.33374-0.16763-0.64689-0.44531-0.83203l-6-4c-0.3347-0.22309-0.77467-0.22309-1.1094 0zm0.55469 0.83203 6 4v6l-6 4-6-4v-6z" color="#000000" fill="#363636" stroke-linecap="round" stroke-linejoin="round" style="-inkscape-stroke:none"/>
</svg>
