<svg width="16px" height="16px" version="1.1" viewBox="0 0 16 16" xmlns="http://www.w3.org/2000/svg">
 <rect x="1" y="11" width="14" height="1" fill="#363636"/>
 <path d="m8.0078 0.0098c-3.8735 0-6.9922 3.1186-6.9922 6.9922v4.998h1v-5.0078c0-3.3195 2.6726-5.9922 5.9922-5.9922 3.3195 0 5.9922 2.6726 5.9922 5.9922v5.0078h1v-4.998c0-3.8735-3.1186-6.9922-6.9922-6.9922z" fill="#363636"/>
 <path d="m8 6a7 7 0 0 0-6.9297 6h1.0176a6 6 0 0 1 5.9121-5 6 6 0 0 1 5.916 5h1.0117a7 7 0 0 0-6.9277-6z" fill="#363636"/>
 <circle cx="6" cy="5" r="1" fill="#363636"/>
 <circle cx="10" cy="5" r="1" fill="#363636"/>
 <path d="m8 6a2 2 0 0 0-2 2 2 2 0 0 0 2 2 2 2 0 0 0 2-2 2 2 0 0 0-2-2zm0 1a1 1 0 0 1 1 1 1 1 0 0 1-1 1 1 1 0 0 1-1-1 1 1 0 0 1 1-1z" fill="#363636"/>
 <rect x="2" y="13" width="6" height="1" rx="0" ry="0" fill="#363636"/>
 <rect x="5" y="15" width="6" height="1" fill="#363636"/>
</svg>
