<svg width="16px" height="16px" version="1.1" viewBox="0 0 16 16" xmlns="http://www.w3.org/2000/svg">
 <path d="m3.0002 3v4c0 1.108 0.892 2 2 2h7.2949l-1.9766-1.9766c-0.19587-0.19587-0.19587-0.51116 0-0.70703 0.09793-0.097934 0.22571-0.14648 0.35352-0.14648s0.25558 0.04855 0.35352 0.14648l2.8281 2.8281c0.1469 0.1469 0.18283 0.3605 0.10938 0.54102v0.00195c-0.02448 0.05962-0.06081 0.1155-0.10938 0.16406l-2.8281 2.8301c-0.19587 0.19587-0.51116 0.19587-0.70703 0s-0.19587-0.51116 0-0.70703l1.9727-1.9746h-7.291c-1.662 0-3-1.338-3-3v-4z" fill="#363636"/>
</svg>
