<svg width="16px" height="16px" version="1.1" viewBox="0 0 16 16" xmlns="http://www.w3.org/2000/svg">
 <filter id="a" x="0" y="0" width="1" height="1">
  <feColorMatrix in="SourceGraphic" values="0 0 0 0 1 0 0 0 0 1 0 0 0 0 1 0 0 0 1 0"/>
 </filter>
 <mask id="b">
  <g filter="url(#a)">
   <path d="m0 0h16v16h-16z" fill-opacity=".3"/>
  </g>
 </mask>
 <clipPath id="c">
  <path d="m0 0h800v800h-800z"/>
 </clipPath>
 <mask id="d">
  <g filter="url(#a)">
   <path d="m0 0h16v16h-16z" fill-opacity=".35"/>
  </g>
 </mask>
 <clipPath id="e">
  <path d="m0 0h800v800h-800z"/>
 </clipPath>
 <mask id="f">
  <g filter="url(#a)">
   <path d="m0 0h16v16h-16z" fill-opacity=".35"/>
  </g>
 </mask>
 <clipPath id="g">
  <path d="m0 0h800v800h-800z"/>
 </clipPath>
 <mask id="h">
  <g filter="url(#a)">
   <path d="m0 0h16v16h-16z" fill-opacity=".35"/>
  </g>
 </mask>
 <clipPath id="i">
  <path d="m0 0h800v800h-800z"/>
 </clipPath>
 <mask id="j">
  <g filter="url(#a)">
   <path d="m0 0h16v16h-16z" fill-opacity=".35"/>
  </g>
 </mask>
 <clipPath id="k">
  <path d="m0 0h800v800h-800z"/>
 </clipPath>
 <g transform="translate(-160 -520)" clip-path="url(#c)" mask="url(#b)">
  <path d="m142.5 351h10.449c-1.1836 0.49219-1.2969 2.457 0 3h-10.449z" fill="#2e3436"/>
 </g>
 <g transform="translate(-160 -520)" clip-path="url(#e)" mask="url(#d)">
  <path d="m104 502c0 0.55078-0.44922 1-1 1s-1-0.44922-1-1 0.44922-1 1-1 1 0.44922 1 1z" fill="#2e3436"/>
 </g>
 <g transform="translate(-160 -520)" clip-path="url(#g)" mask="url(#f)">
  <path d="m106 501v2h8v-2z" fill="#2e3436" fill-rule="evenodd"/>
 </g>
 <g transform="translate(-160 -520)" clip-path="url(#i)" mask="url(#h)">
  <path d="m104 514c0 0.55078-0.44922 1-1 1s-1-0.44922-1-1 0.44922-1 1-1 1 0.44922 1 1z" fill="#2e3436"/>
 </g>
 <g transform="translate(-160 -520)" clip-path="url(#k)" mask="url(#j)">
  <path d="m106 513v2h8v-2z" fill="#2e3436" fill-rule="evenodd"/>
 </g>
 <rect x="1" y="11" width="14" height="1" fill="#363636" fill-rule="evenodd" stop-color="#000000"/>
 <path d="m8.0078 0.0098c-3.8735 0-6.9922 3.1186-6.9922 6.9922v4.998h1v-5.0078c0-3.3195 2.6726-5.9922 5.9922-5.9922 3.3195 0 5.9922 2.6726 5.9922 5.9922v5.0078h1v-4.998c0-3.8735-3.1186-6.9922-6.9922-6.9922z" fill="#363636" fill-rule="evenodd" stop-color="#000000"/>
 <path d="m8 6a7 7 0 0 0-6.9297 6h1.0176a6 6 0 0 1 5.9121-5 6 6 0 0 1 5.916 5h1.0117a7 7 0 0 0-6.9277-6z" fill="#363636" fill-rule="evenodd" stop-color="#000000" stroke-width="1.0044"/>
 <circle cx="6" cy="5" r="1" fill="#363636" fill-rule="evenodd" stop-color="#000000" stroke-width=".9468"/>
 <circle cx="10" cy="5" r="1" fill="#363636" fill-rule="evenodd" stop-color="#000000" stroke-width=".9468"/>
 <path d="m8 6a2 2 0 0 0-2 2 2 2 0 0 0 2 2 2 2 0 0 0 2-2 2 2 0 0 0-2-2zm0 1a1 1 0 0 1 1 1 1 1 0 0 1-1 1 1 1 0 0 1-1-1 1 1 0 0 1 1-1z" fill="#363636" fill-rule="evenodd" stop-color="#000000"/>
 <rect x="2" y="13" width="6" height="1" rx="0" ry="0" fill="#363636" fill-rule="evenodd" stop-color="#000000"/>
 <rect x="5" y="15" width="6" height="1" fill="#363636" fill-rule="evenodd" stop-color="#000000"/>
</svg>
