<svg width="16px" height="16px" version="1.1" viewBox="0 0 16 16" xmlns="http://www.w3.org/2000/svg">
 <path d="m8.002 0c-0.065491 6.1028e-5 -0.13184 0.0068363-0.19727 0.019531-0.12891 0.027344-0.25 0.074217-0.35938 0.14844l-6 4c-0.27734 0.18359-0.44531 0.49609-0.44531 0.83203v6c0 0.33594 0.16797 0.64844 0.44531 0.83203l6 4c0.33594 0.22266 0.77342 0.22266 1.1094 0l6-4c0.27734-0.18359 0.44531-0.49609 0.44531-0.83203v-6c0-0.33594-0.16797-0.64844-0.44531-0.83203l-6-4c-0.16406-0.11133-0.35626-0.16815-0.55273-0.16797zm-0.0019531 1 5.5215 3.6816-5.5335 3.3184-5.5095-3.3184zm-6 4.5586 5.488 3.3086 0.011985 5.7988-5.5-3.666zm12 0v5.4414l-5.5 3.666-0.011985-5.7988z" fill="#363636"/>
</svg>
