<svg width="16" height="16" version="1.1">
 <g fill="#363636" stroke-linecap="round" stroke-linejoin="round">
  <path d="m2 2c-1.108 0-2 0.892-2 2v9c0 1.108 0.892 2 2 2h12c1.108 0 2-0.892 2-2v-9c0-1.108-0.892-2-2-2zm0 1h12c0.554 0 1 0.446 1 1v9c0 0.554-0.446 1-1 1h-12c-0.554 0-1-0.446-1-1v-9c0-0.554 0.446-1 1-1z"/>
  <rect x="3" y="1" width="2" height="2" ry=".5" stroke-width=".70711"/>
  <rect x="11" y="1" width="2" height="2" ry=".5" stroke-width=".70711"/>
  <rect x="3" y="5" width="10" height="2" rx="1" ry="1"/>
 </g>
</svg>
