<svg width="16" height="16" version="1.1" xmlns="http://www.w3.org/2000/svg">
 <g fill="#363636">
  <path d="m2 3c-0.554 0-1 0.446-1 1v1c0 0.554 0.446 1 1 1h1c0.554 0 1-0.446 1-1v-1c0-0.554-0.446-1-1-1zm0 1h1v1h-1z"/>
  <path d="m6 3c-0.554 0-1 0.446-1 1v1c0 0.554 0.446 1 1 1h8c0.554 0 1-0.446 1-1v-1c0-0.554-0.446-1-1-1zm0 1h8v1h-8z"/>
  <path d="m2 7c-0.554 0-1 0.446-1 1v1c0 0.554 0.446 1 1 1h1c0.554 0 1-0.446 1-1v-1c0-0.554-0.446-1-1-1zm0 1h1v1h-1z"/>
  <path d="m6 7c-0.554 0-1 0.446-1 1v1c0 0.554 0.446 1 1 1h8c0.554 0 1-0.446 1-1v-1c0-0.554-0.446-1-1-1zm0 1h8v1h-8z"/>
  <path d="m2 11c-0.554 0-1 0.446-1 1v1c0 0.554 0.446 1 1 1h1c0.554 0 1-0.446 1-1v-1c0-0.554-0.446-1-1-1zm0 1h1v1h-1z"/>
  <path d="m6 11c-0.554 0-1 0.446-1 1v1c0 0.554 0.446 1 1 1h8c0.554 0 1-0.446 1-1v-1c0-0.554-0.446-1-1-1zm0 1h8v1h-8z"/>
 </g>
</svg>
