<svg width="16px" height="16px" version="1.1" viewBox="0 0 16 16" xmlns="http://www.w3.org/2000/svg">
 <rect x="2" y="4" width="8" height="1" rx="0" ry="0" fill="#363636"/>
 <rect x="2" y="8" width="8" height="1" rx="0" ry="0" fill="#363636"/>
 <rect x="2" y="12" width="8" height="1" rx="0" ry="0" fill="#363636"/>
 <g transform="translate(9.0718)" fill="#363636" aria-label="1">
  <path d="m3.6256 5.3139h0.74784v-3h-0.44525l-1.2061 0.60086 0.28098 0.53602 0.62248-0.25937z" fill="#363636"/>
 </g>
 <g transform="translate(9.0718)" fill="#363636" aria-label="2">
  <path d="m2.5449 9.7256h2.1182v-0.64842h-1.0288c0.63545-0.50576 0.95101-0.98991 0.95101-1.4654 0-0.56196-0.44092-0.9294-1.1196-0.9294-0.38905 0-0.74352 0.12104-1.0331 0.35879l0.1902 0.54899c0.24208-0.16859 0.47983-0.25504 0.69597-0.25504 0.29827 0 0.48847 0.15994 0.48847 0.39337 0 0.37176-0.47983 0.82133-1.2622 1.4697z" fill="#363636"/>
 </g>
 <g transform="translate(9.0718)" fill="#363636" aria-label="3">
  <path d="m3.3533 14.137c0.80836 0 1.3401-0.35014 1.3401-0.88184 0-0.3804-0.25504-0.66571-0.65274-0.74352 0.29827-0.07781 0.48415-0.31988 0.48415-0.65706 0-0.50144-0.39769-0.80404-1.0634-0.80404-0.35447 0-0.70893 0.08646-1.0375 0.26369l0.16859 0.55764c0.26801-0.11672 0.50144-0.18156 0.71326-0.18156 0.26801 0 0.44092 0.10375 0.44092 0.27666 0 0.19885-0.22046 0.33285-0.54899 0.33285h-0.20749v0.56196h0.20749c0.4366 0 0.71758 0.14265 0.71758 0.35879 0 0.17723-0.1902 0.27666-0.5317 0.27666-0.26369 0-0.55764-0.0562-0.80836-0.15994l-0.17291 0.58357c0.31988 0.1513 0.59654 0.21614 0.95101 0.21614z" fill="#363636"/>
 </g>
</svg>
