<svg width="16px" height="16px" version="1.1" xmlns="http://www.w3.org/2000/svg">
 <path d="m0.17893 14.241 0.35355 0.35355c1.7574 1.7574 6.3478 0.016156 10.253-3.8891l1.4142-1.4142-0.071816-0.071815-3.4637-3.4637-7.7091 7.7091zm9.1924-9.1924 0.70711 0.70711 2.892-2.892c0.07226 0.15451 0.17034 0.29556 0.29002 0.41708 0.58579 0.58579 1.5355 0.58579 2.1213 0 0.58579-0.58579 0.58579-1.5355 0-2.1213-0.58579-0.58579-1.5355-0.58579-2.1213 0zm-7.705 9.1192 6.9979-6.9979 2.1213 2.1213-0.70711 0.70711c-3.162 3.159-6.7441 4.9344-8.4121 4.1694zm12.301-12.301c0.19526-0.19526 0.51184-0.19526 0.70711 0s0.19526 0.51184 0 0.70711-0.51184 0.19526-0.70711 0c-0.19526-0.19526-0.19526-0.51184 0-0.70711z" fill="#363636" fill-rule="evenodd" stop-color="#000000" stroke-linecap="round" style="paint-order:stroke fill markers"/>
</svg>
