<svg width="16" height="16" version="1.1" xmlns="http://www.w3.org/2000/svg">
 <path d="m5.0176 1.9941v12h6v-12h-6zm0.98242 1.0059h4v10h-4v-10zm-4.9824 0.99414v1h1v-1h-1zm2 0v1h1v-1h-1zm8.9687 0v1h1v-1h-1zm2.0312 0v1h1v-1h-1zm-13 8v1h1v-1h-1zm2 0v1h1v-1h-1zm8.9687 0v1h1v-1h-1zm2.0312 0v1h1v-1h-1z" fill="#363636"/>
 <path d="m2.344 6.29-2.268 2.221 2.229 2.15c0.475 0.55 1.168 0.504 1.683-0.011l-2.217-2.14 2.264-2.217c-0.513-0.57-1.226-0.465-1.691-4e-3zm11.33 0 2.267 2.221-2.228 2.15c-0.475 0.55-1.169 0.504-1.684-0.011l2.217-2.139-2.264-2.217c0.513-0.57 1.226-0.465 1.692-4e-3z" fill="#363636"/>
</svg>
