<svg width="16" height="16" version="1.1" xmlns="http://www.w3.org/2000/svg">
 <path d="m6 6c-1.108 0-2 0.892-2 2v2c0 1.108 0.892 2 2 2h2c1.108 0 2-0.892 2-2v-2c0-1.108-0.892-2-2-2zm0 1h2c0.554 0 1 0.446 1 1v2c0 0.554-0.446 1-1 1h-2c-0.554 0-1-0.446-1-1v-2c0-0.554 0.446-1 1-1z" fill="#363636" stroke-linecap="round" stroke-linejoin="round" stroke-width="8" style="paint-order:stroke fill markers"/>
 <path d="m8 4c-1.108 0-2 0.892-2 2h1c0-0.554 0.446-1 1-1h2c0.554 0 1 0.446 1 1v2c0 0.554-0.446 1-1 1v1c1.108 0 2-0.892 2-2v-2c0-1.108-0.892-2-2-2h-2z" fill="#363636" opacity=".35" stroke-linecap="round" stroke-linejoin="round" stroke-width="8" style="paint-order:stroke fill markers"/>
</svg>
