<svg xmlns="http://www.w3.org/2000/svg" width="16" height="16"><path d="M2 0C.892 0 0 .892 0 2v12c0 1.108.892 2 2 2h12c1.108 0 2-.892 2-2V2c0-1.108-.892-2-2-2Zm0 1h12c.554 0 1 .446 1 1v12c0 .554-.446 1-1 1H2c-.554 0-1-.446-1-1V2c0-.554.446-1 1-1Z" style="fill:#363636;fill-rule:evenodd;stroke:none;stroke-linecap:square;stop-color:#000"/><rect width="12" height="1" x="2" y="2" rx="0" ry="0" style="fill:#363636;fill-rule:evenodd;stroke:none;stroke-linecap:square;stop-color:#000"/><path d="M-6 6h1v6h-1z" style="fill:#363636;fill-rule:evenodd;stroke:none;stroke-width:1;stroke-linecap:square;stop-color:#000" transform="scale(-1 1)"/><path d="M-3.586 11.314h5v1h-5z" style="fill:#363636;fill-rule:evenodd;stroke:none;stroke-width:.912871;stroke-linecap:square;stop-color:#000" transform="scale(-1 1) rotate(45)"/><path d="M-16.314-1.414h5v1h-5z" style="fill:#363636;fill-rule:evenodd;stroke:none;stroke-width:.912871;stroke-linecap:square;stop-color:#000" transform="rotate(-135)"/></svg>