<svg width="16px" height="16px" version="1.1" viewBox="0 0 16 16" xmlns="http://www.w3.org/2000/svg">
 <g fill="#363636">
  <path d="m6.5 4c-0.82422 0-1.5 0.67578-1.5 1.5s0.67578 1.5 1.5 1.5 1.5-0.67578 1.5-1.5-0.67578-1.5-1.5-1.5zm0 1c0.28125 0 0.5 0.21875 0.5 0.5s-0.21875 0.5-0.5 0.5-0.5-0.21875-0.5-0.5 0.21875-0.5 0.5-0.5zm-1.5 3v1h6v-1zm0 2v1h6v-1zm0 2v1h6v-1z"/>
  <g stroke-linecap="round" stroke-linejoin="round" stroke-width="2">
   <path d="m4 1c-1.108 0-2 0.892-2 2v11c0 1.108 0.892 2 2 2h8c1.108 0 2-0.892 2-2v-8l-1-1v9c0 0.554-0.446 1-1 1h-8c-0.554 0-1-0.446-1-1v-11c0-0.554 0.446-1 1-1h6l-1-1h-5z"/>
   <path transform="rotate(45)" d="m7.0711-5.6569v0.99989l8.0723 0.0013811-1.0013-1.0013h-7.0711z"/>
   <rect x="9" y="2" width="1" height="5"/>
   <rect x="9" y="6" width="5" height="1"/>
  </g>
 </g>
</svg>
