<svg width="16px" height="16px" version="1.1" viewBox="0 0 16 16" xmlns="http://www.w3.org/2000/svg">
 <g fill="#363636" stroke-linecap="round" stroke-linejoin="round" stroke-width="2">
  <path d="m12.95 1.636c-0.78347-0.78347-2.045-0.78347-2.8284 0l-8.4853 8.4853c-0.78347 0.78348-0.78347 2.045 0 2.8284l1.4142 1.4142c0.78347 0.78347 2.045 0.78347 2.8284 0l8.4853-8.4853c0.78347-0.78347 0.78347-2.045 0-2.8284zm-0.70711 0.70711 1.4142 1.4142c0.39174 0.39174 0.39174 1.0225 0 1.4142l-8.4853 8.4853c-0.39174 0.39174-1.0225 0.39174-1.4142 0l-1.4142-1.4142c-0.39174-0.39174-0.39174-1.0225 0-1.4142l8.4853-8.4853c0.39174-0.39174 1.0225-0.39174 1.4142 0z"/>
  <circle transform="rotate(45)" cx="11.314" cy="-3" r="1"/>
  <circle transform="rotate(45)" cx="11.314" cy="8.8818e-16" r="1"/>
  <circle transform="rotate(45)" cx="11.314" cy="3" r="1"/>
  <path d="m5.8787 1.636c-0.78347-0.78347-2.045-0.78347-2.8284 0l-1.4142 1.4142c-0.78347 0.78347-0.78347 2.045 0 2.8284l1.4142 1.4142 0.70711-0.70711-1.4142-1.4142c-0.39174-0.39174-0.39174-1.0225 0-1.4142l1.4142-1.4142c0.39174-0.39174 1.0225-0.39174 1.4142 0l1.4142 1.4142 0.70711-0.70711zm7.0711 7.0711-0.70711 0.70711 1.4142 1.4142c0.39174 0.39174 0.39174 1.0225 0 1.4142l-1.4142 1.4142c-0.39174 0.39174-1.0225 0.39174-1.4142 0l-1.4142-1.4142-0.70711 0.70711 1.4142 1.4142c0.78348 0.78347 2.045 0.78347 2.8284 0l1.4142-1.4142c0.78347-0.78347 0.78347-2.045 0-2.8284z" opacity=".35"/>
 </g>
</svg>
