<svg width="16" height="16" version="1.1" xmlns="http://www.w3.org/2000/svg">
 <path d="m6.668 5.4082c-0.070468-0.00322-0.14129-0.00209-0.21289 0.00195-0.98877 0.05508-1.7508 0.70256-1.9258 1.5898-0.0031 0.01261-0.00701 0.025006-0.011719 0.037109-0.00275 0.00993-0.00601 0.019705-0.00977 0.029297 0.0018-0.00391 0.00433-0.00644 0.00586-0.00977l0.00195-0.00586c0.00425-0.0092 0.00791-0.015754 0.00977-0.019531-0.00141 0.00461-0.00426 0.014452-0.011719 0.035156-0.018548 0.12421-0.017905 0.25001-0.00391 0.375 0.066139 0.21684 0.25869 0.36796 0.48633 0.36914 0.0026-3.39e-5 0.00521-3.39e-5 0.00781 0 0.21655 0.00706 0.39308-0.15105 0.4082-0.36719 6.161e-4 -0.00261 0.00127-0.00522 0.00195-0.00781 0.053676-0.55936 0.54118-0.9934 1.1309-1.0273 0.60569-0.042792 1.1348 0.42791 1.1602 1.0352 7.63e-5 0.00391 7.63e-5 0.00781 0 0.011719v0.019531c0.00612 0.1592-0.00167 0.35412-0.16016 0.54688-0.00193 0.00198-0.00388 0.00393-0.00586 0.00586-0.18255 0.21069-0.38447 0.40234-0.60547 0.57227-0.18984 0.14703-0.36088 0.31791-0.50781 0.50781-0.0013 6.6e-4 -0.0026 0.0013-0.00391 2e-3 -0.16384 0.20563-0.3058 0.50177-0.30664 0.8125 0.00436 0.26721 0.21325 0.47772 0.48047 0.48242 0.59816-0.0045 0.31512-0.55865 0.95117-1.0079l-0.00977 0.0059c0.47665-0.36106 0.76252-0.62706 0.92776-0.90824 0.16381-0.27876 0.23124-0.59826 0.23242-1.123-0.065175-1.0687-0.97227-1.9147-2.0293-1.9629zm-0.074219 6.4102c-0.27193 9.08e-4 -0.48047 0.2237-0.48047 0.51172 1.91e-5 2e-3 1.91e-5 0.0039 0 0.0059-0.00459 0.26864 0.20791 0.47921 0.47656 0.47461 0.0013-8e-6 0.0026-8e-6 0.00391 0 0.28802 0 0.50886-0.20672 0.50977-0.48047-0.0041-0.2842-0.2256-0.50732-0.50977-0.51172z" fill="#474747" stop-color="#000000" stroke-linecap="round" stroke-linejoin="round"/>
 <g fill="#363636" stroke-linecap="round" stroke-linejoin="round" stroke-width="2">
  <path d="m2 3c-1.108 0-2 0.892-2 2v8c0 1.108 0.892 2 2 2h9c1.108 0 2-0.892 2-2v-8c0-1.108-0.892-2-2-2zm0 1h9c0.554 0 1 0.446 1 1v8c0 0.554-0.446 1-1 1h-9c-0.554 0-1-0.446-1-1v-8c0-0.554 0.446-1 1-1z"/>
  <path d="m13 6h3l-3 3z"/>
  <path d="m2 1c-1.108 0-2 0.892-2 2v1c0-1.0737 0.83834-1.9412 1.8984-1.9941 0.033699-0.0034019 0.066938-0.0058594 0.10156-0.0058594h9c0.034625 0 0.067864 0.0024575 0.10156 0.0058594 1.0601 0.052906 1.8984 0.92045 1.8984 1.9941v-1c0-1.108-0.892-2-2-2h-9z"/>
 </g>
</svg>
