<svg width="16px" height="16px" version="1.1" viewBox="0 0 16 16" xmlns="http://www.w3.org/2000/svg">
 <path d="m8 2c-1.6562 0-3 1.3438-3 3s1.3438 3 3 3 3-1.3438 3-3-1.3438-3-3-3zm0 1c1.1154 0 2 0.88463 2 2s-0.88463 2-2 2-2-0.88463-2-2 0.88463-2 2-2zm-2.5586 5.0859c-1.1094 0.36328-2.4375 1.2891-2.4375 2.9023l-0.0039062 3.0117c0 0.55469 0.44531 1 1 1h8c0.55469 0 1-0.44531 1-1v-3c0-1.3867-1.1016-2.5547-2.4453-2.9062-0.70703 0.625-1.5391 0.90625-2.5547 0.90625s-1.8516-0.28906-2.5586-0.91406zm-0.0019531 1.1367c0.76731 0.47206 1.622 0.77734 2.5605 0.77734 0.93821 0 1.7966-0.30136 2.5664-0.77539 0.79896 0.32959 1.4336 1.0128 1.4336 1.7754v3h-8l0.0039062-3.0117c0-0.53222 0.1901-0.88782 0.51562-1.2187 0.24301-0.24704 0.59076-0.3986 0.91992-0.54688z" fill="#363636"/>
</svg>
