<svg width="16px" height="16px" version="1.1" viewBox="0 0 16 16" xmlns="http://www.w3.org/2000/svg">
 <path d="m5 0c-1.108 0-2 0.892-2 2v3a0.5 0.5 0 0 0 0.19922 0.40039l3.4668 2.5996-3.4668 2.5996a0.5 0.5 0 0 0-0.19922 0.43359v2.9668c0 1.108 0.892 2 2 2h6c1.108 0 2-0.892 2-2v-2.9668a0.5 0.5 0 0 0-0.19922-0.43359l-3.4668-2.5996 3.4668-2.5996a0.5 0.5 0 0 0 0.19922-0.43359v-2.9668c0-1.108-0.892-2-2-2h-6zm0 1h6c0.554 0 1 0.446 1 1v2.75l-3.002 2.25h-1.9961-0.0019531l-3-2.25v-2.75c0-0.554 0.446-1 1-1zm2 8h0.0019531 1.9961 0.0019531l3 2.25v2.75c0 0.554-0.446 1-1 1h-6c-0.554 0-1-0.446-1-1v-2.75l3-2.25z" fill="#363636"/>
 <path d="m7 7-3-2.25v-1.75h8v1.75l-3 2.25z" fill="#363636" opacity=".35"/>
</svg>
