<svg width="16" height="16" version="1.1" xmlns="http://www.w3.org/2000/svg">
 <g fill="#363636" stroke-linecap="round" stroke-linejoin="round" stroke-width="2">
  <path d="m4 0c-1.662 0-3 1.338-3 3v10c0 1.662 1.338 3 3 3h8c1.662 0 3-1.338 3-3v-10c0-1.662-1.338-3-3-3h-8zm0 1h8c1.108 0 2 0.892 2 2v10c0 1.108-0.892 2-2 2h-8c-1.108 0-2-0.892-2-2v-10c0-1.108 0.892-2 2-2z"/>
  <path d="m4 2c-0.554 0-1 0.446-1 1v10c0 0.554 0.446 1 1 1h8c0.554 0 1-0.446 1-1v-10c0-0.554-0.446-1-1-1h-8zm0 1h8v10h-8v-10z"/>
  <rect x="4" y="7.5" width="8" height="1"/>
  <path d="m6 4v1c0 0.554 0.446 1 1 1h2c0.554 0 1-0.446 1-1v-1h-1v1h-2v-1z"/>
  <path d="m6 10v1c0 0.554 0.446 1 1 1h2c0.554 0 1-0.446 1-1v-1h-1v1h-2v-1z"/>
 </g>
</svg>
