<svg width="16" height="16" version="1.1" xmlns="http://www.w3.org/2000/svg">
 <path d="m11 11.543-3 0.9043-3-0.86133-4.5488 1.4141 0.54883 1v1h14v-1l0.54883-1-4.5488-1.457z" fill="#363636" opacity=".35"/>
 <path d="m5.4512 1c-0.78205 0-1.6388 0.27197-2.4043 0.52539-0.38277 0.12671-0.74019 0.25042-1.0293 0.33984-0.28911 0.089422-0.53268 0.13477-0.56641 0.13477h-1.4512v1 9 1 2.5c0 0.277 0.223 0.5 0.5 0.5h15c0.017312 0 0.033932-2.52e-4 0.050781-0.001953 0.25274-0.025514 0.44922-0.23836 0.44922-0.49805v-2.5-1-9-1h-1.4512c-0.033722 0-0.2773-0.045344-0.56641-0.13477-0.28911-0.089422-0.64653-0.21313-1.0293-0.33984-0.76554-0.25342-1.6222-0.52539-2.4043-0.52539-1.1027 0-2.0686 0.56909-2.5488 0.91016-0.4802-0.34107-1.4461-0.91016-2.5488-0.91016zm0 1c0.79992 0 1.6807 0.54442 2.0488 0.79883v8.7949c-0.52263-0.29433-1.2498-0.59375-2.0488-0.59375-0.78205 0-1.6388 0.27197-2.4043 0.52539-0.38277 0.12671-0.74019 0.25042-1.0293 0.33984-0.28911 0.089423-0.53268 0.13477-0.56641 0.13477h-0.45117v-9h0.45117c0.29064 0 0.54424-0.079656 0.86133-0.17773 0.31709-0.098078 0.67443-0.22437 1.0469-0.34766 0.74489-0.24658 1.5643-0.47461 2.0918-0.47461zm5.0977 0c0.52751 0 1.3469 0.22803 2.0918 0.47461 0.37244 0.12329 0.72978 0.24958 1.0469 0.34766 0.31709 0.098078 0.57069 0.17773 0.86133 0.17773h0.45117v9h-0.45117c-0.03372 0-0.2773-0.04534-0.56641-0.13477-0.28911-0.089422-0.64653-0.21313-1.0293-0.33984-0.76554-0.25342-1.6222-0.52539-2.4043-0.52539-0.79899 0-1.5262 0.29942-2.0488 0.59375v-8.7949c0.36817-0.25441 1.2489-0.79883 2.0488-0.79883zm-5.0977 10c1.0246 0 2.1818 0.89256 2.2246 0.92578a0.5 0.5 0 0 0 0.056641 0.041016 0.5 0.5 0 0 0 0.0019531 0 0.5 0.5 0 0 0 0.060547 0.033203 0.5 0.5 0 0 0 0.0019531 0 0.5 0.5 0 0 0 0.13281 0.039062 0.5 0.5 0 0 0 0.070312 0.003907 0.5 0.5 0 0 0 0.32227-0.11719 0.5 0.5 0 0 0 0.0019532 0c0.042764-0.033187 1.2-0.92578 2.2246-0.92578 0.52751 0 1.3469 0.22803 2.0918 0.47461 0.37244 0.12329 0.72978 0.24958 1.0469 0.34766s0.57069 0.17773 0.86133 0.17773h0.45117v2h-14v-2h0.45117c0.29064 0 0.54424-0.079656 0.86133-0.17773s0.67443-0.22437 1.0469-0.34766c0.74489-0.24658 1.5643-0.47461 2.0918-0.47461z" fill="#363636" stop-color="#000000" stroke-linecap="round" stroke-linejoin="round"/>
</svg>
