<svg width="16px" height="16px" version="1.1" viewBox="0 0 16 16" xmlns="http://www.w3.org/2000/svg">
 <g fill="#363636">
  <path d="m9.5 3a3.5 3.5 0 0 0-3.5 3.5 3.5 3.5 0 0 0 3.5 3.5 3.5 3.5 0 0 0 3.5-3.5 3.5 3.5 0 0 0-3.5-3.5zm0 1a2.5 2.5 0 0 1 2.5 2.5 2.5 2.5 0 0 1-2.5 2.5 2.5 2.5 0 0 1-2.5-2.5 2.5 2.5 0 0 1 2.5-2.5z"/>
  <path d="m3 5c-1.662 0-3 1.338-3 3v3c0 1.662 1.338 3 3 3h10c1.662 0 3-1.338 3-3v-3c0-1.662-1.338-3-3-3h-1.5a2.5 2.5 0 0 1 0.44922 1h1.0508c1.108 0 2 0.892 2 2v3c0 1.108-0.892 2-2 2h-10c-1.108 0-2-0.892-2-2v-3c0-1.108 0.892-2 2-2h4.0508a2.5 2.5 0 0 1 0.44922-1h-4.5z"/>
  <circle cx="4" cy="9" r="1"/>
  <rect x="3" y="13" width="1" height="2" rx=".5" ry=".5"/>
  <rect x="12" y="13" width="1" height="2" rx=".5" ry=".5"/>
 </g>
</svg>
