<svg width="16px" height="16px" version="1.1" viewBox="0 0 16 16" xmlns="http://www.w3.org/2000/svg">
 <g fill="#363636">
  <path d="m5 1c-1.662 0-3 1.338-3 3v8.5c0 1.385 1.115 2.5 2.5 2.5h9.5v-1h-9.5c-0.831 0-1.5-0.669-1.5-1.5s0.669-1.5 1.5-1.5h8.5 1v-1-9h-9zm0 1h8v8h-8.5c-0.56372 0-1.0827 0.18559-1.5 0.49805v-6.498c0-1.108 0.892-2 2-2z"/>
  <path d="m4.5 11c-0.831 0-1.5 0.669-1.5 1.5s0.669 1.5 1.5 1.5h9c-0.831 0-1.5-0.669-1.5-1.5s0.669-1.5 1.5-1.5z" opacity=".35"/>
  <rect x="6" y="3" width="1" height="6"/>
  <path d="m6 3v1h3c1.108 0 2 0.892 2 2s-0.892 2-2 2h-3v1h3c1.662 0 3-1.338 3-3s-1.338-3-3-3h-3z"/>
 </g>
</svg>
