<svg width="16px" height="16px" version="1.1" viewBox="0 0 16 16" xmlns="http://www.w3.org/2000/svg">
 <g fill="#363636" stroke-linecap="round" stroke-linejoin="round" stroke-width="2">
  <path d="m12 8a4 4 0 0 0-3.4883 2.043 3 3 0 0 0-0.51172-0.042969 3 3 0 0 0-3 3 3 3 0 0 0 3 3h4a4 4 0 0 0 4-4 4 4 0 0 0-4-4zm0 1a3 3 0 0 1 3 3 3 3 0 0 1-3 3h-4a2 2 0 0 1-2-2 2 2 0 0 1 2-2 2 2 0 0 1 0.18555 0.011719 2 2 0 0 1 0.095703 0.011719 2 2 0 0 1 0.14844 0.02539 2 2 0 0 1 0.099609 0.025391 2 2 0 0 1 0.11328 0.033203 2 2 0 0 1 0.13086 0.052734 2 2 0 0 1 0.10352 0.044922 2 2 0 0 1 0.0019531 0 2 2 0 0 1 0.19922 0.11133 3 3 0 0 1 0.10742-0.35156 3 3 0 0 1 0.052734-0.12695 3 3 0 0 1 0.10156-0.2207 3 3 0 0 1 0.070312-0.125 3 3 0 0 1 2.5898-1.4922z"/>
  <path d="m8 4a4 4 0 0 0-4 4 4 4 0 0 0 0.87695 2.5 4 4 0 0 1 0.72461-0.69922 3 3 0 0 1-0.60156-1.8008 3 3 0 0 1 3-3 3 3 0 0 1 2.8711 2.1289 5 5 0 0 1 1.002-0.12695 4 4 0 0 0-3.873-3.002z"/>
  <rect x="7.5" width="1" height="3" rx=".5" ry=".5"/>
  <rect transform="rotate(45)" x="10.814" y="-8" width="1" height="3" rx=".5" ry=".5"/>
  <rect transform="rotate(90)" x="7.5" y="-3" width="1" height="3" rx=".5" ry=".5"/>
  <rect transform="rotate(135)" x="-.5" y="-6.3137" width="1" height="3" rx=".5" ry=".5"/>
 </g>
</svg>
