<svg width="16px" height="16px" version="1.1" viewBox="0 0 16 16" xmlns="http://www.w3.org/2000/svg">
 <path d="m6 1c-1.662 0-3 1.338-3 3v6 2.293l-2.3535 2.3535a0.5 0.5 0 0 0 0 0.70703 0.5 0.5 0 0 0 0.70703 0l2.3535-2.3535h4.293 4c1.662 0 3-1.338 3-3v-3-3-3h-3-2-4zm0 1h5 1 2v2 1 5c0 1.108-0.892 2-2 2h-5-1-1.293l3-3h4.2891c0.554 0 1-0.446 1-1h-4.2891l4.6465-4.6465a0.5 0.5 0 0 0 0-0.70703 0.5 0.5 0 0 0-0.70703 0l-2.6465 2.6465v-2.293c-0.554 0-1 0.446-1 1v2.293l-3 3v-6.293c-0.554 0-1 0.446-1 1v6.293l-1 1v-1.293-1-5c0-1.108 0.892-2 2-2z" fill="#363636" stroke-linecap="round" stroke-linejoin="round" stroke-width=".6"/>
</svg>
