<svg width="16px" height="16px" version="1.1" viewBox="0 0 16 16" xmlns="http://www.w3.org/2000/svg">
 <path d="m5 1c-1.3789 0-2.5 1.1211-2.5 2.5 0 1.3828 1.1211 2.5 2.5 2.5 1.3828 0 2.5-1.1172 2.5-2.5 0-1.3789-1.1172-2.5-2.5-2.5zm0 1c0.82833 2.333e-4 1.4998 0.67167 1.5 1.5-2.333e-4 0.82833-0.67167 1.4998-1.5 1.5-0.82833-2.333e-4 -1.4998-0.67167-1.5-1.5 2.333e-4 -0.82833 0.67167-1.4998 1.5-1.5zm6 2c-1.3789 0-2.5 1.1211-2.5 2.5 0 1.3828 1.1211 2.5 2.5 2.5 1.3828 0 2.5-1.1172 2.5-2.5 0-1.3789-1.1172-2.5-2.5-2.5zm0 1c0.82833 2.333e-4 1.4998 0.67167 1.5 1.5-2.33e-4 0.82833-0.67167 1.4998-1.5 1.5-0.82833-2.333e-4 -1.4998-0.67167-1.5-1.5 2.333e-4 -0.82833 0.67167-1.4998 1.5-1.5zm-8 2c-1.6602 0-3 1.3398-3 3v2c0 0.55469 0.44531 1 1 1h4.0781c0-0.34525 0.046132-0.68046 0.13086-1h-1.1035-1.1055-2v-2c0-1.108 0.892-2 2-2h4c0.35557 0 0.68978 0.092527 0.97852 0.25391-0.21393-0.36914-0.36172-0.77727-0.43164-1.2031-0.17578-0.03125-0.35938-0.050781-0.54688-0.050781h-4zm6 3c-0.81142 0-1.5452 0.32-2.084 0.83984-0.3269 0.31554-0.91602 1.0396-0.91602 2.1602v2c0 0.55469 0.44531 1 1 1h8c0.55469 0 1-0.44531 1-1v-2c0-1.6602-1.3359-3-3-3h-4zm0 1h4c1.108 0 2 0.892 2 2v2h-2-4-2v-2c0-1.108 0.892-2 2-2z" fill="#363636"/>
</svg>
