<svg width="16px" height="16px" version="1.1" viewBox="0 0 16 16" xmlns="http://www.w3.org/2000/svg">
 <path d="m13.176 0.32526c-0.53125-0.21484-1.101-0.32455-1.6752-0.32455-2.4844 0-4.4995 2.0151-4.4995 4.4995 0 0.3008 0.027894 0.59543 0.084245 0.87974l-6.3543 6.3543c-0.46875 0.46875-0.73058 1.1023-0.73058 1.7664 0 0.66406 0.26184 1.3004 0.73058 1.7691 0.97656 0.97266 2.5617 0.97266 3.5383 0l6.3543-6.3543c0.28348 0.056007 0.57712 0.084245 0.87698 0.084245 2.4844 0 4.4995-2.0151 4.4995-4.4995 0-0.57422-0.10971-1.144-0.32455-1.6752l-2.1752 2.1752h-2.4997v-2.4997zm-2.1931 0.77892-0.68915 0.68915a1.0001 1.0001 0 0 0-0.29279 0.70711v2.4997a1.0001 1.0001 0 0 0 0.99989 0.99989h2.4997a1.0001 1.0001 0 0 0 0.70711-0.29279l0.68915-0.68915c-0.25716 1.6837-1.6364 2.9817-3.396 2.9817-0.23708 0-0.46626-0.021966-0.68363-0.06491a1.0001 1.0001 0 0 0-0.90046 0.27345l-6.3529 6.3529c-0.59254 0.59017-1.5322 0.5902-2.1255 0.0014l-0.00138-0.0014c-0.27927-0.28026-0.43642-0.66035-0.43642-1.0607 0-0.4012 0.15597-0.77746 0.4378-1.0593l6.3543-6.3543a1.0001 1.0001 0 0 0 0.27345-0.90046c-0.042972-0.21681-0.06491-0.44741-0.06491-0.68639 0-1.7597 1.298-3.1389 2.9817-3.396z" fill="#363636"/>
 <circle cx="3" cy="13" r="1" fill="#363636"/>
</svg>
