<svg width="16" height="16" version="1.1" xmlns="http://www.w3.org/2000/svg">
 <path d="m3 1c-1.108 0-2 0.892-2 2v10c0 1.108 0.892 2 2 2h10c1.108 0 2-0.892 2-2v-10c0-1.108-0.892-2-2-2zm0 1h10c0.554 0 1 0.446 1 1v10c0 0.554-0.446 1-1 1h-10c-0.554 0-1-0.446-1-1v-10c0-0.554 0.446-1 1-1z" fill="#363636"/>
 <path d="m8 4c-0.33374 2.7e-5 -0.64689 0.16763-0.83203 0.44531l-2 3c-0.10948 0.16422-0.16795 0.35732-0.16797 0.55469v4h1v-3h4v3h1v-4c-1.2e-5 -0.19738-0.05851-0.39048-0.16797-0.55469l-2-3c-0.18514-0.27768-0.49829-0.44529-0.83203-0.44531zm0 1 2 3h-4l2-3z" fill="#363636" fill-rule="evenodd" stop-color="#000000"/>
</svg>
