<svg xmlns="http://www.w3.org/2000/svg" width="16" height="16"><path d="M2 0C.892 0 0 .892 0 2v12c0 1.108.892 2 2 2h7.268A1.993 1.993 0 0 1 9 15H2c-.554 0-1-.446-1-1V2c0-.554.446-1 1-1h12c.554 0 1 .446 1 1v7c.365 0 .706.098 1 .268V2c0-1.108-.892-2-2-2H2z" style="fill:#363636;fill-rule:evenodd;stroke:none;stroke-linecap:square;stop-color:#000"/><path d="M2 2v3h3V2H2zm1 1h1v1H3V3z" style="fill:#363636;fill-rule:evenodd;stroke-linecap:square;stop-color:#000"/><path d="M3 4h1v7H3z" style="fill:#363636;fill-rule:evenodd;stroke-width:1.08012;stroke-linecap:square;stop-color:#000"/><path d="M4 6h4v1H4z" style="fill:#363636;fill-rule:evenodd;stroke-linecap:square;stop-color:#000"/><path d="M8 5v3h6V5H8zm1 1h4v1H9V6z" style="fill:#363636;fill-rule:evenodd;stroke-width:1.22474;stroke-linecap:square;stop-color:#000"/><path d="M4 10h4v1H4z" style="fill:#363636;fill-rule:evenodd;stroke-linecap:square;stop-color:#000"/><path d="M8 9v3h1v-2h.268c.345-.598.99-1 1.732-1H8z" style="fill:#363636;fill-rule:evenodd;stroke-width:1.22474;stroke-linecap:square;stop-color:#000"/><path d="M11 10c-.554 0-1 .446-1 1v4c0 .554.446 1 1 1h4c.554 0 1-.446 1-1v-4c0-.554-.446-1-1-1h-4zm.94 1.232L13 12.293l1.06-1.06.708.706L13.707 13l1.06 1.06-.706.708L13 13.707l-1.06 1.06-.708-.706L12.293 13l-1.06-1.06.706-.708z" style="fill:#363636;fill-rule:evenodd;stroke-linecap:square;stop-color:#000"/></svg>