<svg xmlns="http://www.w3.org/2000/svg" width="16" height="16"><path d="M78 590.362h1v1h-1zm2 0h1v1h-1zm2 0h1v1h-1zm2 0h1v1h-1zm2 0h1v1h-1zm-8 2h1v1h-1zm8 0h1v1h-1zm-8 2h1v1h-1zm8 0h1v1h-1zm-8 2h1v1h-1zm8 0h1v1h-1zm-8 2h1v1h-1zm2 0h1v1h-1zm2 0h1v1h-1zm2 0h1v1h-1zm2 0h1v1h-1z" style="opacity:1;fill:#363636;fill-opacity:1" transform="translate(-75 -587.362)"/><path d="M12.803 2.197a7.5 7.5 0 0 0-10.606 0 7.5 7.5 0 0 0 0 10.606 7.5 7.5 0 0 0 10.606 0 7.5 7.5 0 0 0 0-10.606zm-.707.707a6.5 6.5 0 0 1 0 9.192 6.5 6.5 0 0 1-9.192 0 6.5 6.5 0 0 1 0-9.192 6.5 6.5 0 0 1 9.192 0z" style="fill:#363636;fill-rule:evenodd;stroke-width:2;stroke-linecap:square;stop-color:#000"/><path d="M17.107-.5h6v1h-6z" style="fill:#363636;fill-rule:evenodd;stroke-width:2;stroke-linecap:square;stop-color:#000" transform="rotate(45)"/></svg>