<svg xmlns="http://www.w3.org/2000/svg" width="16" height="16" viewBox="0 0 4.233 4.233"><path d="M.529 0h.794v.265H.529z" style="fill:#363636;fill-rule:evenodd;stroke-width:.529125;stroke-linecap:square;stop-color:#000"/><path d="M.529 0h.265v.794H.529z" style="fill:#363636;fill-rule:evenodd;stroke-width:.529125;stroke-linecap:square;stop-color:#000"/><path d="M-3.704 0h.794v.265h-.794z" style="fill:#363636;fill-rule:evenodd;stroke-width:.529125;stroke-linecap:square;stop-color:#000" transform="scale(-1 1)"/><path d="M-3.704 0h.265v.794h-.265z" style="fill:#363636;fill-rule:evenodd;stroke-width:.529125;stroke-linecap:square;stop-color:#000" transform="scale(-1 1)"/><path d="M.529-4.233h.794v.265H.529z" style="fill:#363636;fill-rule:evenodd;stroke-width:.529125;stroke-linecap:square;stop-color:#000" transform="scale(1 -1)"/><path d="M.529-4.233h.265v.794H.529z" style="fill:#363636;fill-rule:evenodd;stroke-width:.529125;stroke-linecap:square;stop-color:#000" transform="scale(1 -1)"/><path d="M-3.704-4.233h.794v.265h-.794z" style="fill:#363636;fill-rule:evenodd;stroke-width:.529125;stroke-linecap:square;stop-color:#000" transform="scale(-1)"/><path d="M-3.704-4.233h.265v.794h-.265z" style="fill:#363636;fill-rule:evenodd;stroke-width:.529125;stroke-linecap:square;stop-color:#000" transform="scale(-1)"/><path d="M1.058.53v3.174h2.117V.529zm.265.264H2.91v2.645H1.323z" style="fill:#363636;fill-rule:evenodd;stroke-width:.529125;stroke-linecap:square;stop-color:#000"/></svg>