<svg width="16px" height="16px" version="1.1" viewBox="0 0 16 16" xmlns="http://www.w3.org/2000/svg">
 <path d="m1.5 0c-0.82422 0-1.5 0.67578-1.5 1.5s0.67578 1.5 1.5 1.5c0.64453 0 1.1992-0.41797 1.4102-0.99609l1.7812-0.0039062 0.36328 0.71875c0.125 0.24609 0.42188 0.34375 0.67188 0.22266 0.11719-0.058594 0.20703-0.16406 0.25-0.28906 0.039063-0.125 0.031249-0.26562-0.027344-0.38281l-0.64062-1.2695-2.3945 0.0039062c-0.21094-0.58203-0.76562-1.0039-1.4141-1.0039zm7.5 0v1h-1v1h-1v1h1v1h-1v1h1v1h-1v1h1v1h1v1h1v-1h1v1h1v-1h1v1h1v-1h1v-1h1v-1h-1v-1h1v-1h-1v-1h1v-1h-1v-1h-1v-1h-1v1h-1v-1h-1v1h-1v-1h-1zm-7.5 1c0.28125 0 0.5 0.21875 0.5 0.5s-0.21875 0.5-0.5 0.5-0.5-0.21875-0.5-0.5 0.21875-0.5 0.5-0.5zm8 1h4c0.277 0 0.5 0.223 0.5 0.5v4c0 0.277-0.223 0.5-0.5 0.5h-4c-0.277 0-0.5-0.223-0.5-0.5v-4c0-0.277 0.223-0.5 0.5-0.5zm-9.5 2v1h3.2227l1.0391 1.6641h-0.0039063c-0.16406 0.23828-0.25781 0.52734-0.25781 0.83594 0 0.82422 0.67578 1.5 1.5 1.5s1.5-0.67578 1.5-1.5-0.67578-1.5-1.5-1.5c-0.14844 0-0.29297 0.023438-0.42969 0.0625l-1.293-2.0625h-3.7773zm0 3v1h1.7305l2 3h0.95703l0.71875 1.4805c-0.14062 0.14844-0.25 0.32422-0.32031 0.51953h-0.81641l-2-3h-2.2695v1h1.7305l2 3h1.3555c0.21094 0.57812 0.76562 1 1.4141 1 0.82422 0 1.5-0.67578 1.5-1.5s-0.67578-1.5-1.5-1.5c-0.070312 0-0.14062 0.007812-0.21094 0.015625l-0.49219-1.0156h1.9141l0.79688 1.3789c-0.3125 0.27734-0.50781 0.67578-0.50781 1.1211 0 0.82422 0.67578 1.5 1.5 1.5s1.5-0.67578 1.5-1.5-0.67578-1.5-1.5-1.5c-0.019531 0-0.035156 0-0.054688 0.003906l-0.57812-1.0039h1.8438l0.80078 1.375c-0.3125 0.27734-0.51172 0.67969-0.51172 1.125 0 0.82422 0.67578 1.5 1.5 1.5s1.5-0.67578 1.5-1.5-0.67578-1.5-1.5-1.5c-0.015625 0-0.035156 0-0.050781 0.003906l-0.58203-1.0039h1.2188c0.21094 0.57812 0.76562 1 1.4141 1 0.82422 0 1.5-0.67578 1.5-1.5s-0.67578-1.5-1.5-1.5c-0.64844 0-1.2031 0.42188-1.4141 1h-8.8164l-2-3h-2.2695zm5.5 0c0.28125 0 0.5 0.21875 0.5 0.5s-0.21875 0.5-0.5 0.5-0.5-0.21875-0.5-0.5 0.21875-0.5 0.5-0.5zm9 3c0.28125 0 0.5 0.21875 0.5 0.5s-0.21875 0.5-0.5 0.5-0.5-0.21875-0.5-0.5 0.21875-0.5 0.5-0.5zm-8 3c0.28125 0 0.5 0.21875 0.5 0.5s-0.21875 0.5-0.5 0.5-0.5-0.21875-0.5-0.5 0.21875-0.5 0.5-0.5zm3 0c0.28125 0 0.5 0.21875 0.5 0.5s-0.21875 0.5-0.5 0.5-0.5-0.21875-0.5-0.5 0.21875-0.5 0.5-0.5zm3 0c0.28125 0 0.5 0.21875 0.5 0.5s-0.21875 0.5-0.5 0.5-0.5-0.21875-0.5-0.5 0.21875-0.5 0.5-0.5z" fill="#363636"/>
</svg>
