<svg width="16px" height="16px" version="1.1" viewBox="0 0 16 16" xmlns="http://www.w3.org/2000/svg">
 <path transform="rotate(-45)" d="m-0.65739 5.6569h-3.9996-0.99989v0.99989 3.9996h0.99989v-3.9996h3.9996v-0.99989z" fill="#363636" fill-rule="evenodd" stop-color="#000000"/>
 <path d="m12.465 4.4648 3.5352 3.5352-3.5352 3.5352-0.70703-0.70703 2.8281-2.8281-2.8281-2.8281z" fill="#363636" fill-rule="evenodd" stop-color="#000000"/>
 <path d="m8 3a3 3 0 0 0-3 3h1a2 2 0 0 1 2-2 2 2 0 0 1 2 2 2 2 0 0 1-2 2h-0.5v3h1v-2.0469a3 3 0 0 0 2.5-2.9531 3 3 0 0 0-3-3zm-0.5 9v1h1v-1h-1z" fill="#363636" fill-rule="evenodd" stop-color="#000000"/>
</svg>
