<svg width="16" height="16" version="1.1" xmlns="http://www.w3.org/2000/svg">
 <path d="m5.4688 3-3.6367 10h1.0645l1.1035-3.0352v0.035156h2.0352a4.5 4.5 0 0 1-0.035156-0.5 4.5 4.5 0 0 1 0.035156-0.5h-1.6855l1.8184-5h0.66406l0.75391 2.0742a4.5 4.5 0 0 1 0.85742-0.56641l-0.91211-2.5078h-0.53125-1-0.53125zm4.0254 5.3984a1.5 1.5 0 0 0-0.49414 1.1016 1.5 1.5 0 0 0 1.4375 1.4922l-0.94336-2.5938z" fill="#363636"/>
 <path d="m10.5 6a3.5 3.5 0 0 0-3.5 3.5 3.5 3.5 0 0 0 3.5 3.5 3.5 3.5 0 0 0 2.6562-1.2207c0.30281 0.71831 1.0128 1.2207 1.8438 1.2207v-1c-0.554 0-1-0.446-1-1v-1-4h-1v1.0527a3.5 3.5 0 0 0-2.5-1.0527zm0 1a2.5 2.5 0 0 1 2.5 2.5 2.5 2.5 0 0 1-2.5 2.5 2.5 2.5 0 0 1-2.5-2.5 2.5 2.5 0 0 1 2.5-2.5z" fill="#363636"/>
</svg>
