<svg width="16px" height="16px" version="1.1" viewBox="0 0 16 16" xmlns="http://www.w3.org/2000/svg">
 <path d="m8 0a8 8 0 0 0-8 8 8 8 0 0 0 8 8 8 8 0 0 0 8-8 8 8 0 0 0-8-8zm0 1a7 7 0 0 1 7 7 7 7 0 0 1-7 7 7 7 0 0 1-7-7 7 7 0 0 1 7-7z" fill="#363636" fill-rule="evenodd" stop-color="#000000"/>
 <rect x="7.5" y="3" width="1" height="1" rx="0" ry="0" fill="#363636" fill-rule="evenodd" stop-color="#000000"/>
 <rect x="7.5" y="6" width="1" height="7" fill="#363636" fill-rule="evenodd" stop-color="#000000"/>
</svg>
