<svg width="16" height="16" version="1.1" xmlns="http://www.w3.org/2000/svg">
 <path d="m8.0215 1.4766c-0.553 5e-3 -1.1062 0.024922-1.6602 0.044922-1.135 0.04-2.2304 0.41989-3.1484 1.0879-0.129-0.13-0.27927-0.24484-0.44727-0.33984-0.92-0.52-2.0599-0.24091-2.5469 0.62109-0.487 0.86-0.13484 1.979 0.78516 2.498 0.057 0.033 0.11578 0.062844 0.17578 0.089844-0.138 0.476-0.21289 0.98186-0.21289 1.5059v7.5195l14.039 0.019532-0.019531-7.5391c0-0.521-0.07013-1.0202-0.20312-1.4902 0.073-0.031 0.14389-0.064516 0.21289-0.10352 0.92-0.52 1.2712-1.64 0.78516-2.502-0.487-0.861-1.6269-1.1401-2.5469-0.62109-0.172 0.097-0.32784 0.21933-0.46484 0.36133-0.904-0.651-1.9739-1.0354-3.0859-1.1074-0.554-0.039-1.1081-0.049922-1.6621-0.044922zm0.0097656 1c0.53475-0.00483 1.0615 0.0063197 1.582 0.042969 0.0019502 5.7e-6 0.0039094 5.7e-6 0.0058594 0 0.092858 0.0060101 0.16579 0.08061 0.25781 0.091797-0.68045 0.1414-1.3141 0.41462-1.7871 0.88867-0.0013102 0.0013-0.0026063 0.0025962-0.0039063 0.0039062-0.076666 0.077487-0.10906 0.18402-0.17773 0.26758-0.083788-0.10505-0.12982-0.2392-0.22461-0.33398-0.0013-0.00196-0.0025963-0.0039094-0.0039063-0.0058594-0.41857-0.41344-0.93965-0.66694-1.4922-0.83789 0.074861-0.0062564 0.13366-0.069611 0.20898-0.072266h0.0019531c0.55405-0.020002 1.0979-0.040085 1.6328-0.044922zm6.5879 0.73242c0.18994 0.0019962 0.33218-0.0037424 0.49414 0.03125h0.001953v0.0019531h0.001954l0.001953 0.0019531h0.001953c0.104 0.077 0.085797 0.23706-0.033203 0.28906-0.084-0.02-0.16986-0.025531-0.25586-0.019531 0.04 0.021 0.07633 0.046219 0.11133 0.074219 0.066 0.084 0.14919 0.16469 0.24219 0.30469 0.011 0.06-0.012547 0.12216-0.060547 0.16016s-0.11392 0.046484-0.16992 0.021484c0 0-0.10432-0.23422-0.40039-0.32617l-0.16797-0.03125c-0.04594-0.00419-0.09577-0.0050732-0.14844-0.0019531-0.09 0.06-0.18344 0.13352-0.27344 0.22852-0.044 0.037-0.1022 0.052109-0.1582 0.037109-0.131-0.034-0.17508-0.19892-0.080079-0.29492 0.34997-0.31497 0.67458-0.44355 0.89258-0.47656zm-13.504 0.050781c0.037391 0.0013 0.075687 0.0042198 0.11719 0.011719 0.218 0.033 0.54258 0.16352 0.89258 0.47852 0.071 0.066 0.074762 0.17705 0.0097656 0.24805-0.066 0.071-0.17705 0.074762-0.24805 0.0097656-0.091-0.095-0.18344-0.16952-0.27344-0.22852-0.056305-0.00343-0.10959-0.0028969-0.1582 0.0019531l-0.039062 0.0058594c-0.38705 0.057208-0.51953 0.35156-0.51953 0.35156-0.056 0.025-0.12192 0.014562-0.16992-0.023438-0.048-0.038-0.071547-0.098203-0.060547-0.1582 0.07-0.088 0.14619-0.21264 0.24219-0.30664 0.035-0.028 0.071328-0.051266 0.11133-0.072266-0.157-0.01-0.25586 0.019531-0.25586 0.019531-3e-3 -9.999e-4 -0.0048115-0.0019062-0.0078125-0.0039062-0.116-0.056998-0.12753-0.21706-0.019531-0.28906 0.16125-0.02775 0.26673-0.048812 0.37891-0.044922zm4.0273 0.125c0.687 4e-3 1.345 0.27677 1.834 0.75977 0.46 0.46 0.75977 1.13 0.75977 1.834 0 0.329-0.064641 0.65222-0.18164 0.94922 0.226-0.054 0.46045-0.061484 0.68945-0.021484-0.116-0.29-0.18164-0.60473-0.18164-0.92773 4e-3 -0.664 0.26738-1.2995 0.73438-1.7715 0.443-0.444 1.0915-0.73437 1.7715-0.73438 0.664 0.0040002 1.2995 0.26738 1.7715 0.73438 0.444 0.444 0.73438 1.0925 0.73438 1.7715-4e-3 0.664-0.26738 1.2995-0.73438 1.7715-0.443 0.444-1.0925 0.73438-1.7715 0.73438-0.15 0-0.29645-0.015016-0.43945-0.041016 0.047 0.223-0.03113 0.45452-0.20312 0.60352-0.119 0.098-0.30219 0.16508-0.49219 0.20508-0.121 0.024-0.26025 0.042688-0.40625 0.054688v0.82422c-0.0080001 0.131-0.059484 0.25452-0.14648 0.35352-0.099 0.086-0.22252 0.13848-0.35352 0.14648h-1.1504c-0.125-7e-3 -0.27447-0.06648-0.35547-0.14648-0.087-0.098999-0.13848-0.22252-0.14648-0.35352v-0.82422c-0.11-8e-3 -0.21455-0.020156-0.31055-0.035156-0.217-0.036-0.42159-0.10122-0.55859-0.19922-0.179-0.134-0.27309-0.35417-0.24609-0.57617-0.2 0.049-0.40719 0.076172-0.61719 0.076172-0.704 0-1.374-0.29977-1.834-0.75977-0.46-0.459-0.75977-1.13-0.75977-1.834 4e-3 -0.687 0.27677-1.345 0.75977-1.834 0.459-0.46 1.13-0.75977 1.834-0.75977zm1.1543 1.834c-0.242 5e-3 -0.47344 0.099578-0.64844 0.26758-0.168 0.175-0.26258 0.40644-0.26758 0.64844 0 0.24 0.11158 0.49244 0.26758 0.64844 0.175 0.168 0.40644 0.26258 0.64844 0.26758 0.24 0 0.49048-0.11158 0.64648-0.26758 0.168-0.174 0.26453-0.40644 0.26953-0.64844-5e-3 -0.242-0.10153-0.47444-0.26953-0.64844-0.175-0.168-0.40448-0.26258-0.64648-0.26758zm5.2891 0c-0.242 5e-3 -0.47344 0.099578-0.64844 0.26758-0.168 0.175-0.26258 0.40644-0.26758 0.64844 0 0.24 0.11158 0.49244 0.26758 0.64844 0.175 0.168 0.40644 0.26258 0.64844 0.26758 0.24 0 0.49244-0.11158 0.64844-0.26758 0.168-0.175 0.26258-0.40644 0.26758-0.64844-5e-3 -0.242-0.099578-0.47344-0.26758-0.64844-0.175-0.168-0.40644-0.26258-0.64844-0.26758zm2.3535 1.4277c0.0088 0.11563 0.046875 0.21841 0.046875 0.33789v0.0019531l0.017578 6.5352-12.037-0.015625v-5.9258c0.17275 0.34095 0.36749 0.67251 0.63477 0.93945 0.64959 0.64959 1.5529 1.0527 2.541 1.0527 0.044561 0 0.084756-0.013938 0.12891-0.015625 0.077704 0.091564 0.036478 0.24283 0.13477 0.31641 0.00581 0.00462 0.011668 0.0091798 0.017578 0.013672 0.16303 0.11662 0.30089 0.11753 0.45117 0.17188v0.072265c3.84e-5 0.0202 6.918e-4 0.040387 0.0019531 0.060547 0.021712 0.35553 0.16244 0.68902 0.39453 0.95312 0.015639 0.01816 0.031925 0.035745 0.048828 0.052735 0.34233 0.33811 0.60805 0.40958 1.002 0.43164 0.018207 0.0012 0.036444 0.001753 0.054688 0.001953h1.1504c0.020198-5.5e-5 0.040389-6.75e-4 0.060547-0.001953 0.35584-0.02173 0.68879-0.16244 0.94922-0.38867 0.034025-0.0297 0.066-0.061683 0.095703-0.095703 0.2321-0.26411 0.37282-0.5976 0.39453-0.95312 6.11e-4 -0.02018 6.11e-4 -0.040367 0-0.060547v-0.074218c0.1752-0.06171 0.34159-0.078877 0.53516-0.23828 0.0059-0.00514 0.011778-0.010348 0.017578-0.015625 0.09747-0.084436 0.041761-0.24088 0.11523-0.34375 0.91116-0.034539 1.7474-0.39647 2.3516-1.002 0.0013-0.0012999 0.002606-0.0025962 0.003906-0.0039062 0.48891-0.49415 0.75287-1.1343 0.88867-1.8066zm-5.9902 0.58398c-0.444 0-0.86923 0.20356-0.86523 0.47656 4e-3 0.273 0.40623 0.44336 0.86523 0.44336 0.458 0 0.85947-0.18336 0.85547-0.44336-4e-3 -0.261-0.41247-0.47656-0.85547-0.47656zm-1.1523 0.67188c-0.199 0.077-0.32542 0.1432-0.48242 0.2832-0.149 0.135-0.20898 0.24553-0.20898 0.39453 0 0.112 0.020469 0.14703 0.10547 0.20703 0.092 0.067 0.21816 0.10867 0.41016 0.13867 0.133 0.021 0.26734 0.033062 0.40234 0.039063 0.618 0.011 1.2193 0.029 1.8633 0 0.16-0.0070001 0.31956-0.026641 0.47656-0.056641 0.163-0.032 0.2648-0.070812 0.3418-0.13281 0.071-0.058 0.087891-0.092312 0.087891-0.19531 0-0.149-0.061938-0.25853-0.21094-0.39453-0.156-0.14-0.28147-0.2062-0.48047-0.2832-0.063 0.164-0.18094 0.30077-0.33594 0.38477-0.208 0.129-0.51241 0.21484-0.81641 0.21484-0.305 0-0.60841-0.084844-0.81641-0.21484-0.214-0.134-0.26494-0.23477-0.33594-0.38477zm0.42773 1.4219 0.0019531 0.80664c-8e-3 0.054 0.0049688 0.068469 0.042969 0.10547 0.037 0.037 0.052422 0.052922 0.10742 0.044922h1.1484c0.055 8e-3 0.069422-0.007922 0.10742-0.044922 0.037-0.037 0.051922-0.050469 0.044922-0.10547v-0.80664h-1.4531z" fill="#363636" stop-color="#000000" stroke-linecap="round" stroke-linejoin="round"/>
</svg>
