<svg width="16px" height="16px" version="1.1" viewBox="0 0 16 16" xmlns="http://www.w3.org/2000/svg">
 <path d="m7.5635 2.649a0.41618 0.41609 0 1 1 0.83235 0 0.41618 0.41609 0 0 1-0.83235 0m-4.9652 3.7671a0.41618 0.41609 0 1 1 0.83235 0 0.41618 0.41609 0 0 1-0.83235 0m9.9304 0.01925a0.41618 0.41609 0 0 1 0.83235 0 0.41618 0.41609 0 0 1-0.83235 0m-8.7261 0.57141a0.38073 0.38065 0 0 0 0.193-0.50141l-0.18467-0.4174h0.72644v3.2726h-1.4656a5.1246 5.1235 0 0 1-0.16585-1.9557zm3.0379 0.0805v-0.96474h1.7295c0.089269 0 0.63017 0.10326 0.63017 0.50752 0 0.33602-0.41573 0.45678-0.75707 0.45678zm-2.3614 5.1938a0.41618 0.41609 0 1 1 0.83235 0 0.41618 0.41609 0 0 1-0.83235 0m6.1673 0.01925a0.41618 0.41609 0 0 1 0.83235 0 0.41618 0.41609 0 0 1-0.83235 0m0.12866-0.94374c-0.20568-0.04376-0.40699 0.08663-0.45075 0.29184l-0.20874 0.9748a5.1246 5.1235 0 0 1-4.2733-0.020569l-0.20875-0.97479c-0.043764-0.20564-0.24507-0.33602-0.45075-0.29184l-0.8608 0.18463a5.1246 5.1235 0 0 1-0.44505-0.52459h4.188c0.047265 0 0.07878-0.0087 0.07878-0.05163v-1.481c0-0.043756-0.031515-0.051628-0.07878-0.051628h-1.2253v-0.93893h1.3247c0.12078 0 0.64636 0.034999 0.81484 0.70616l0.24725 1.0938c0.07878 0.24064 0.39955 0.72323 0.74089 0.72323h2.1618a5.1246 5.1235 0 0 1-0.47481 0.5491zm2.3256-3.9106a5.1246 5.1235 0 0 1 0.01089 0.88948h-0.52514c-0.05251 0-0.07441 0.035-0.07441 0.086193v0.24152c0 0.56878-0.32033 0.69128-0.60129 0.72323-0.26694 0.030619-0.56452-0.11201-0.60041-0.27564-0.15754-0.8873-0.42011-1.0763-0.83148-1.4045 0.51507-0.32726 1.0511-0.80943 1.0511-1.4556 0-0.69741-0.47831-1.1367-0.80434-1.352-0.45725-0.30189-0.96358-0.36182-1.1001-0.36182h-5.4417a5.1246 5.1235 0 0 1 2.8668-1.6176l0.64111 0.67247c0.14441 0.15182 0.3851 0.15751 0.53652 0.012246l0.7177-0.6856a5.1246 5.1235 0 0 1 3.5083 2.4978l-0.49101 1.1087a0.38073 0.38065 0 0 0 0.193 0.50141zm1.2245 0.017505-0.01663-0.17151 0.50589-0.47166c0.10284-0.096253 0.06434-0.28877-0.06696-0.33777l-0.64636-0.24152-0.050768-0.16625 0.40261-0.56004c0.08227-0.11376 0.0066-0.29534-0.13129-0.31808l-0.68181-0.11069-0.08183-0.15313 0.28664-0.62872c0.058642-0.1282-0.05033-0.29184-0.19124-0.28658l-0.69143 0.024064-0.10941-0.13257 0.15885-0.67379c0.03195-0.13694-0.10678-0.27564-0.24374-0.24369l-0.67394 0.15882-0.13303-0.10938 0.024063-0.69128c0.00525-0.14001-0.15842-0.24939-0.2862-0.1912l-0.62841 0.28658-0.15317-0.082254-0.11115-0.68167c-0.021885-0.13826-0.20438-0.21351-0.31816-0.13126l-0.56016 0.40253-0.16629-0.050315-0.24157-0.64622c-0.049012-0.13126-0.242-0.16976-0.33784-0.067379l-0.47176 0.50578-0.17155-0.016626-0.36409-0.58846c-0.073519-0.11901-0.27132-0.11901-0.34441 0l-0.36409 0.58846-0.17155 0.016626-0.47263-0.50665c-0.096272-0.10238-0.28883-0.064316-0.33784 0.067379l-0.24157 0.64622-0.16629 0.050315-0.56016-0.40253c-0.11378-0.082254-0.29584-0.0065699-0.31815 0.13126l-0.11115 0.68167-0.15317 0.082254-0.62841-0.28658c-0.12779-0.058191-0.2919 0.05119-0.2862 0.1912l0.024061 0.69128-0.13303 0.10938-0.67394-0.15882c-0.13697-0.031939-0.2757 0.10676-0.24375 0.24369l0.15885 0.67379-0.10941 0.13257-0.69143-0.024064c-0.14003-0.004374-0.24944 0.15838-0.19124 0.28658l0.28664 0.62872-0.082266 0.15313-0.68181 0.11069c-0.13829 0.021877-0.21355 0.20433-0.13129 0.31808l0.40261 0.56004-0.050766 0.16625-0.64636 0.24152c-0.13129 0.049004-0.16979 0.24195-0.066955 0.33777l0.50589 0.47166-0.016634 0.17151-0.58859 0.36402c-0.11904 0.073505-0.11904 0.27127 0 0.34433l0.58859 0.36402 0.016634 0.17151-0.5072 0.4734c-0.1024 0.096257-0.064339 0.28877 0.066955 0.33777l0.64636 0.24152 0.050767 0.16626-0.40261 0.56004c-0.08183 0.11376-0.00656 0.29577 0.13129 0.31808l0.68137 0.11069 0.082266 0.15313-0.28664 0.62828c-0.058205 0.12776 0.051637 0.29184 0.19124 0.28658l0.69143-0.02406 0.10941 0.133-0.15885 0.67379c-0.031951 0.1365 0.10678 0.27564 0.24375 0.24326l0.67394-0.15882 0.13303 0.10938-0.024061 0.69128c-0.00529 0.14001 0.15841 0.24939 0.2862 0.1912l0.62841-0.28658 0.15317 0.08225 0.11115 0.68123c0.021881 0.1387 0.20437 0.21351 0.31815 0.13213l0.56016-0.4034 0.16629 0.05076 0.24157 0.64622c0.049008 0.13126 0.242 0.16976 0.33784 0.06694l0.47176-0.50578 0.17155 0.01751 0.36409 0.58846c0.073519 0.11813 0.27045 0.119 0.34441 0l0.36409-0.58846 0.17155-0.01751 0.47176 0.50578c0.096272 0.10282 0.28883 0.06432 0.33784-0.06694l0.24157-0.64622 0.16629-0.05076 0.56016 0.4034c0.11378 0.08181 0.29584 0.0066 0.31815-0.13213l0.11115-0.68123 0.15317-0.08225 0.62841 0.28658c0.12779 0.05819 0.29145-0.05076 0.2862-0.1912l-0.02406-0.69128 0.1326-0.10938 0.67394 0.15882c0.13697 0.03195 0.2757-0.10675 0.24375-0.24326l-0.15885-0.67379 0.10941-0.133 0.69143 0.02406c0.14004 0.0058 0.24944-0.15882 0.19124-0.28658l-0.28663-0.62828 0.08183-0.15313 0.68181-0.11069c0.13873-0.02188 0.21443-0.20389 0.13129-0.31808l-0.40261-0.56004 0.05077-0.16625 0.64636-0.24152c0.13129-0.049436 0.16979-0.24195 0.06696-0.33777l-0.50589-0.47164 0.01663-0.17151 0.58859-0.36402c0.11903-0.073505 0.11948-0.27039 0-0.34433z" fill="#363636" stroke-width="1.5561"/>
</svg>
