<?xml version="1.0" encoding="UTF-8"?>
<svg width="16px" height="16px" version="1.1" viewBox="0 0 16 16" xmlns="http://www.w3.org/2000/svg">
 <path d="m8 0c-3.866 0-7 1.567-7 3.5v9c0 1.933 3.134 3.5 7 3.5s7-1.567 7-3.5v-9c0-1.933-3.134-3.5-7-3.5zm0 1c3.3137 0 6 1.1193 6 2.5s-2.6863 2.5-6 2.5-6-1.1193-6-2.5 2.6863-2.5 6-2.5zm-6 4.2969c1.2627 1.0553 3.5405 1.7019 6 1.7031 2.4595-0.00124 4.7373-0.6478 6-1.7031v2.6988c0 1.3807-2.6863 2.5-6 2.5s-6-1.1193-6-2.5zm0 4.4898c1.2598 1.0576 3.5381 1.7065 6 1.709 2.4572-9e-6 4.7344-0.64419 6-1.6973v2.7016c0 1.3807-2.6863 2.5-6 2.5s-6-1.1193-6-2.5z" fill="#363636" fill-rule="evenodd" stop-color="#000000"/>
</svg>
