<svg width="16" height="16" version="1.1" xmlns="http://www.w3.org/2000/svg">
 <path d="m8.568 10.33c-0.466-0.064-1.047-0.104-1.533 0.275-0.403 0.316-0.777 0.714-1.105 1.018-0.329 0.304-0.652 0.44-0.586 0.44h-3.344v1h3.344c0.582 0 0.901-0.368 1.265-0.706 0.364-0.337 0.732-0.72 1.043-0.964 0.107-0.084 0.407-0.124 0.78-0.073 0.372 0.052 0.705 0.18 1.1 0.18 0.146 0 0.217 0.035 0.325 0.127 0.109 0.092 0.231 0.254 0.366 0.447 0.134 0.194 0.28 0.417 0.498 0.621s0.544 0.383 0.92 0.383h2.359v-1h-2.36c-0.098 0-0.14-0.021-0.238-0.113-0.099-0.092-0.22-0.262-0.359-0.463-0.14-0.201-0.298-0.433-0.537-0.637-0.27204-0.23242-0.61721-0.36164-0.975-0.365-0.033 0-0.496-0.106-0.963-0.17zm-2.136-4.466c-0.86 0-1.568 0.707-1.568 1.568 0 0.86 0.708 1.568 1.568 1.568s1.568-0.708 1.568-1.568-0.708-1.568-1.568-1.568zm0 0.999c0.32 0 0.569 0.249 0.569 0.569s-0.25 0.568-0.569 0.568c-0.31548 0.003948-0.57239-0.25252-0.569-0.568 0-0.32 0.25-0.57 0.57-0.57z" fill="#363636"/>
 <path class="ColorScheme-Text" d="m4 0c-1.662 0-3 1.338-3 3v10c0 1.662 1.338 3 3 3h8c1.662 0 3-1.338 3-3v-9l-4-4zm0 1h6v2c0 1.108 0.892 2 2 2h2v8c0 1.108-0.892 2-2 2h-8c-1.108 0-2-0.892-2-2v-10c0-1.108 0.892-2 2-2z" fill="#363636"/>
</svg>
