<svg width="64" height="64" version="1.1" viewBox="0 0 64 64" xmlns="http://www.w3.org/2000/svg">
 <defs>
  <style id="current-color-scheme" type="text/css">.ColorScheme-Text {
      color:#333333;
    }
    .ColorScheme-Highlight {
      color:#60c0f0;
    }
  </style>
 </defs>
 <rect x="2" y="2" width="60" height="60" rx="30" ry="30" class="ColorScheme-Highlight" fill="currentColor"/>
 <path d="m48.364 46.897c0-5.3595-9.0937-8.0921-12.722-9.0635 0 0 0.15118-3.0086 0.50269-4.1084 0.34772-1.1036 0.40064-2.3547 0.54804-2.7062 0.15118-0.34772 1.9238-1.9541 2.0221-3.4546-0.02268-0.89576-0.20032-1.1074-0.64253-1.1074v-4.6602c0-2.5134-3.6662-4.7094-6.0738-4.7094-2.4038 0-6.07 2.1959-6.07 4.7094v4.6602c-0.44221 0-0.61986 0.21166-0.64253 1.1074 0.09827 1.5005 1.8709 3.1068 2.0221 3.4546 0.15118 0.3515 0.19654 1.6026 0.54804 2.7062 0.3515 1.0999 0.50269 4.1046 0.50269 4.1046-3.6284 0.97514-12.722 3.7078-12.722 9.0673z" fill="#ffffff"/>
</svg>
