<svg width="22" height="22" version="1.1" viewBox="0 0 22 22" xmlns="http://www.w3.org/2000/svg">
 <defs>
  <style id="current-color-scheme" type="text/css">.ColorScheme-Text {
        color:#363636;
      }</style>
 </defs>
 <path class="ColorScheme-Text" d="m5 19c-1.108 0-2-0.892-2-2v-3c0-1.108 0.892-2 2-2h2c1.108 0 2 0.892 2 2v3c0 1.108-0.892 2-2 2zm0-1h2c0.554 0 1-0.446 1-1v-3c0-0.554-0.446-1-1-1h-2c-0.554 0-1 0.446-1 1v3c0 0.554 0.446 1 1 1zm10 0c-1.108 0-2-0.892-2-2v-2c0-1.108 0.892-2 2-2h2c1.108 0 2 0.892 2 2v2c0 1.108-0.892 2-2 2zm0-1h2c0.554 0 1-0.446 1-1v-2c0-0.554-0.446-1-1-1h-2c-0.554 0-1 0.446-1 1v2c0 0.554 0.446 1 1 1zm-11.5-7c-0.277 0-0.5-0.223-0.5-0.5s0.223-0.5 0.5-0.5h15c0.277 0 0.5 0.223 0.5 0.5s-0.223 0.5-0.5 0.5zm10.5-3c-0.554 0-1-0.446-1-1v-2c0-0.554 0.446-1 1-1h4c0.554 0 1 0.446 1 1v2c0 0.554-0.446 1-1 1z" fill="currentColor"/>
</svg>
