<svg width="22" height="22" version="1.1" viewBox="0 0 22 22" xmlns="http://www.w3.org/2000/svg">
 <defs>
  <style id="current-color-scheme" type="text/css">.ColorScheme-Text {
        color:#363636;
      }</style>
 </defs>
 <path class="ColorScheme-Text" d="m11 3c-0.277 0-0.5 0.223-0.5 0.5v0.5h-0.5c-1.108 0-2 0.892-2 2v1c0 1.108 0.892 2 2 2h0.5v4h-3.5c-1.108 0-2 0.892-2 2v1c0 1.108 0.892 2 2 2h3.5v0.5c0 0.277 0.223 0.5 0.5 0.5s0.5-0.223 0.5-0.5v-0.5h3.5c1.108 0 2-0.892 2-2v-1c0-1.108-0.892-2-2-2h-3.5v-4h0.5c1.108 0 2-0.892 2-2v-1c0-1.108-0.892-2-2-2h-0.5v-0.5c0-0.277-0.223-0.5-0.5-0.5zm-1 2h2c0.554 0 1 0.446 1 1v1c0 0.554-0.446 1-1 1h-2c-0.554 0-1-0.446-1-1v-1c0-0.554 0.446-1 1-1zm-3 9h3.5 1 3.5c0.554 0 1 0.446 1 1v1c0 0.554-0.446 1-1 1h-3.5-1-3.5c-0.554 0-1-0.446-1-1v-1c0-0.554 0.446-1 1-1z" fill="currentColor"/>
</svg>
