<svg version="1.1" viewBox="0 0 22 22" xmlns="http://www.w3.org/2000/svg">
 <defs>
  <style id="current-color-scheme" type="text/css">.ColorScheme-Text {
        color:#363636;
      }</style>
 </defs>
 <path class="ColorScheme-Text" d="m5 3c-1.108 0-2 0.892-2 2v4c0 1.108 0.892 2 2 2h3v2c0 1.108 0.892 2 2 2l3 4v-4h4c1.108 0 2-0.892 2-2v-4c0-1.108-0.892-2-2-2h-3v-2c0-1.108-0.892-2-2-2h-7zm0 1h7c0.554 0 1 0.446 1 1v4c0 0.554-0.446 1-1 1h-7c-0.554 0-1-0.446-1-1v-4c0-0.554 0.446-1 1-1zm9 4h3c0.554 0 1 0.446 1 1v4c0 0.554-0.446 1-1 1h-7c-0.554 0-1-0.446-1-1v-2h1v3l2-3c1.108 0 2-0.892 2-2v-1z" fill="currentColor"/>
</svg>
