<svg version="1.1" viewBox="0 0 22 22" xmlns="http://www.w3.org/2000/svg">
 <defs>
  <style id="current-color-scheme" type="text/css">.ColorScheme-Text {
        color:#363636;
      }</style>
 </defs>
 <path class="ColorScheme-Text" d="m16 14v2h-2v1h2v2h1v-2h2v-1h-2v-2z" fill="currentColor"/>
 <path class="ColorScheme-Text" d="m11 3c-1.6569 0-3 1.3431-3 3h-2c-1.108 0-2 0.892-2 2v9c0 1.108 0.892 2 2 2h7v-1h-7c-0.554 0-1-0.446-1-1v-9c0-0.554 0.446-1 1-1h2v1.0879c-0.59859 0.21163-0.99911 0.77721-1 1.4121 0 0.82842 0.67157 1.5 1.5 1.5s1.5-0.67158 1.5-1.5c-8.908e-4 -0.6349-0.40141-1.2005-1-1.4121v-1.0879h4v1.0879c-0.59859 0.21163-0.99911 0.77721-1 1.4121 0 0.82842 0.67158 1.5 1.5 1.5s1.5-0.67158 1.5-1.5c-8.91e-4 -0.6349-0.40141-1.2005-1-1.4121v-1.0879h2c0.554 0 1 0.446 1 1v5h1v-5c0-1.108-0.892-2-2-2h-2c0-1.6569-1.3432-3-3-3zm0 1c1.1046 0 2 0.89543 2 2h-4c0-1.1046 0.89543-2 2-2zm-2.5 5c0.27614 0 0.5 0.22386 0.5 0.5s-0.22386 0.5-0.5 0.5-0.5-0.22386-0.5-0.5 0.22386-0.5 0.5-0.5zm5 0c0.27614 0 0.5 0.22386 0.5 0.5s-0.22386 0.5-0.5 0.5-0.5-0.22386-0.5-0.5 0.22386-0.5 0.5-0.5z" fill="currentColor"/>
</svg>
