<svg version="1.1" viewBox="0 0 22 22" xmlns="http://www.w3.org/2000/svg">
 <defs>
  <style id="current-color-scheme" type="text/css">.ColorScheme-Text {
                color:#363636;
            }</style>
 </defs>
 <path class="ColorScheme-Text" d="m5 5c-1.108 0-2 0.892-2 2v9c0 1.108 0.892 2 2 2h6 6c0.35858 0 0.69396-0.093881 0.98438-0.25781 0.010768-0.006079 0.020608-0.013261 0.03125-0.019532 0.026918-0.015857 0.053992-0.031766 0.080078-0.048828 0.023166-0.015169 0.04588-0.030781 0.068359-0.046875 0.023131-0.016532 0.045982-0.033301 0.06836-0.050781 0.024005-0.01878 0.047211-0.038756 0.070312-0.058594 0.032826-0.028164 0.064787-0.055727 0.095704-0.085937 0.021061-0.020574 0.040411-0.042969 0.060546-0.064453 0.009409-0.01004 0.020096-0.019064 0.029297-0.029297 0.00799-0.008888 0.015607-0.018313 0.023438-0.027344 0.017224-0.019862 0.034341-0.040006 0.050781-0.060547 0.003163-0.003951 0.006633-0.007743 0.009766-0.011719 0.030248-0.038386 0.060476-0.078542 0.08789-0.11914 0.005884-0.008724 0.009876-0.018523 0.015625-0.027344 0.022514-0.034504 0.04406-0.06952 0.064453-0.10547 0.011783-0.020807 0.024107-0.041232 0.035157-0.0625 0.002668-0.005135 0.005187-0.010463 0.007812-0.015625 0.021788-0.042756 0.041813-0.084422 0.060547-0.12891 0.004788-0.011359 0.007135-0.023691 0.011719-0.035156 0.016683-0.041767 0.032978-0.083834 0.046875-0.12695 0.002337-0.007254 0.005555-0.014195 0.007812-0.021485 0.002375-0.007668 0.003574-0.015729 0.00586-0.023437 0.01628-0.054944 0.031377-0.11113 0.042968-0.16797 0.010544-0.051701 0.018901-0.1051 0.025391-0.1582 0.002688-0.022064 0.005843-0.044123 0.007813-0.066406 0.005277-0.05944 0.007812-0.11883 0.007812-0.17969v-9c0-1.108-0.892-2-2-2h-6-6zm0 1h6v7.2969l2-2.2969 5 5c0 0.554-0.446 1-1 1h-6v-3.6992l-1.4785 1.6992-2.5215-2-3 3v-9c0-0.034625 0.0024575-0.067864 0.0058594-0.10156 0.0034018-0.033699 0.0070332-0.067002 0.013672-0.099609 0.013277-0.065215 0.033359-0.12959 0.058594-0.18945s0.055926-0.11674 0.091797-0.16992 0.077859-0.1013 0.12305-0.14648c0.045187-0.045188 0.093301-0.087176 0.14648-0.12305s0.11006-0.066562 0.16992-0.091797 0.12424-0.045316 0.18945-0.058594c0.065215-0.013277 0.13192-0.019531 0.20117-0.019531zm2.5 2c-0.82843 0-1.5 0.67157-1.5 1.5s0.67157 1.5 1.5 1.5 1.5-0.67157 1.5-1.5-0.67157-1.5-1.5-1.5z" fill="currentColor"/>
</svg>
