<svg version="1.1" viewBox="0 0 22 22" xmlns="http://www.w3.org/2000/svg">
 <defs>
  <style id="current-color-scheme" type="text/css">.ColorScheme-Text {
        color:#363636;
      }</style>
 </defs>
 <path class="ColorScheme-Text" d="m6 3c-1.662 0-3 1.338-3 3v10c0 1.662 1.338 3 3 3h7v-1h-7c-1.108 0-2-0.892-2-2v-9h14v4.9648h1v-5.9648c0-1.662-1.338-3-3-3h-10zm0 1h10c1.108 0 2 0.892 2 2h-14c0-1.108 0.892-2 2-2zm9.4648 7.9648-0.70703 0.70703 2.3281 2.3281h-4.0859v1h4.0859l-2.3281 2.3281 0.70703 0.70703 3.5352-3.5352-3.5352-3.5352z" fill="currentColor"/>
</svg>
