<svg version="1.1" viewBox="0 0 22 22" xmlns="http://www.w3.org/2000/svg">
 <style id="current-color-scheme" type="text/css">.ColorScheme-Text {
		color:#363636;
	}</style>
 <path class="ColorScheme-Text" style="fill:currentColor" d="m15.238 4.0002-0.35217 0.36046-8.97 9.0943-0.029002 0.04558c-0.061 0.099-0.27119 0.4489-0.58419 1.0869-0.314 0.638-0.70032 1.5108-1.0123 2.4928l-0.29002 0.91979 0.91979-0.29002c0.85454-0.27528 1.6883-0.61386 2.4928-1.0123 0.638-0.314 0.9859-0.52019 1.0869-0.58419l0.045575-0.029 9.4548-9.3222zm-7.8113 9.1592 7.7782-7.7782 1.4142 1.4142-7.7782 7.7782zm-0.53724 0.73058 1.2209 1.2209-0.17816 0.1754c7e-3 -5e-3 -0.37922 0.22676-0.96122 0.51376-0.214 0.105-0.53617 0.22098-0.83417 0.33698l-0.27345-0.27345c0.116-0.298 0.23198-0.62016 0.33698-0.83416 0.287-0.582 0.51914-0.96584 0.51514-0.95984z"/>
 <path class="ColorScheme-Text" style="fill:currentColor" d="m4.9997 16h12c0.554 0 1 0.446 1 1s-0.446 1-1 1h-13z" opacity=".25"/>
</svg>
