<svg width="64" height="64" version="1.1" viewBox="0 0 16.933 16.933" xmlns="http://www.w3.org/2000/svg" xmlns:xlink="http://www.w3.org/1999/xlink">
 <defs>
  <linearGradient id="linearGradient919">
   <stop stop-color="#c2d2dd" offset="0"/>
   <stop offset=".096454"/>
   <stop stop-color="#c0d0da" stop-opacity="0" offset=".69073"/>
   <stop stop-color="#c0d0d9" stop-opacity="0" offset="1"/>
  </linearGradient>
  <linearGradient id="linearGradient913" x1="175" x2="175" y1="52" y2="5" gradientUnits="userSpaceOnUse">
   <stop stop-color="#d4e8f2" offset="0"/>
   <stop stop-color="#b0b5ba" offset="1"/>
  </linearGradient>
  <linearGradient id="linearGradient921" x1="39.422" x2="42.275" y1="7.6728" y2="7.9319" gradientUnits="userSpaceOnUse" xlink:href="#linearGradient919"/>
  <linearGradient id="linearGradient945" x1="38.628" x2="53.974" y1="14.816" y2="14.816" gradientUnits="userSpaceOnUse">
   <stop stop-color="#bfc7c5" offset="0"/>
   <stop stop-color="#a59c92" offset="1"/>
  </linearGradient>
  <linearGradient id="linearGradient949" x1="39.422" x2="42.275" y1="7.6728" y2="7.9319" gradientTransform="matrix(-1 0 0 1 92.602 0)" gradientUnits="userSpaceOnUse" xlink:href="#linearGradient919"/>
  <linearGradient id="linearGradient968" x1="37.658" x2="37.658" y1="15.081" y2="14.552" gradientUnits="userSpaceOnUse">
   <stop stop-color="#169a19" offset="0"/>
   <stop stop-color="#71df4f" offset="1"/>
  </linearGradient>
  <radialGradient id="radialGradient974" cx="37.65" cy="14.726" r=".14492" gradientTransform="matrix(6.8201 0 0 6.8201 -114.5 -44.937)" gradientUnits="userSpaceOnUse">
   <stop stop-color="#1aff1f" offset="0"/>
   <stop stop-color="#61fe30" stop-opacity="0" offset="1"/>
  </radialGradient>
  <filter id="filter1155" x="-.047568" y="-.04844" width="1.0951" height="1.0969" color-interpolation-filters="sRGB">
   <feGaussianBlur stdDeviation="0.3043853"/>
  </filter>
 </defs>
 <g transform="translate(-37.835)" filter="url(#filter1155)" opacity=".25" stroke-linecap="round" stroke-linejoin="round">
  <path transform="scale(.26458)" d="m156 4c-2.77 0-4.6713 1.3331-4.9609 4.0879l-5.0391 47.485c-0.28967 2.7548 2.23 5.4266 5 5.4266h48c2.77 0 5.2897-2.6718 5-5.4266l-5.0391-47.485c-0.28969-2.7548-2.1909-4.0879-4.9609-4.0879h-19z" opacity="1" stroke-width="3.2711"/>
  <path d="m46.301 1.0583v15.081h-6.3499c-0.73288 0-1.3995-0.66733-1.3229-1.3962l1.3332-12.603c0.07664-0.72886 0.57967-1.0816 1.3126-1.0816z" opacity=".75" stroke-width=".86547"/>
  <path d="m46.301 1.0583v15.081h6.3499c0.73288 0 1.3995-0.66733 1.3229-1.3962l-1.3332-12.603c-0.07664-0.72886-0.57967-1.0816-1.3126-1.0816z" opacity=".75" stroke-width=".86547"/>
  <path d="m39.951 13.493h12.7c0.73288 0 1.3229 0.59001 1.3229 1.3229 0 0.73288-0.59001 1.3229-1.3229 1.3229h-12.7c-0.73288 0-1.3229-0.59001-1.3229-1.3229 0-0.73288 0.59001-1.3229 1.3229-1.3229z" opacity="1" stroke-width=".83667"/>
  <path transform="scale(.26458)" d="m151 52c-2.216 0-4 1.784-4 4s1.784 4 4 4h48c2.216 0 4-1.784 4-4s-1.784-4-4-4zm0 0.5h48c1.939 0 3.5 1.561 3.5 3.5s-1.561 3.5-3.5 3.5h-48c-1.939 0-3.5-1.561-3.5-3.5s1.561-3.5 3.5-3.5z" opacity="1" stroke-width="2.7792"/>
  <g transform="translate(15.001)">
   <path d="m37.957 14.816a0.30612 0.30612 0 0 1-0.30612 0.30612 0.30612 0.30612 0 0 1-0.30612-0.30612 0.30612 0.30612 0 0 1 0.30612-0.30612 0.30612 0.30612 0 0 1 0.30612 0.30612" opacity="1" stroke-width=".91835"/>
   <path d="m37.915 14.816a0.26458 0.26458 0 0 1-0.26458 0.26458 0.26458 0.26458 0 0 1-0.26458-0.26458 0.26458 0.26458 0 0 1 0.26458-0.26458 0.26458 0.26458 0 0 1 0.26458 0.26458" opacity="1" stroke-width=".79373"/>
   <path transform="scale(.26458)" d="m142.3 55a1 1 0 0 0-0.97265 0.78125 0.98836 0.98836 0 0 0 0.94531 0.70508 0.98836 0.98836 0 0 0 0.97266-0.8125 1 1 0 0 0-0.94532-0.67383z" opacity="1" stroke-width="2.9651"/>
  </g>
  <path transform="scale(.26458)" d="m151 52.5c-1.939 0-3.5 1.561-3.5 3.5 0 0.08572 0.0194 0.16586 0.0254 0.25 0.1297-1.8191 1.6213-3.25 3.4746-3.25h48c1.8533 0 3.3449 1.4309 3.4746 3.25 6e-3 -0.08414 0.0254-0.16428 0.0254-0.25 0-1.939-1.561-3.5-3.5-3.5z" opacity=".1" stroke-width="2.5764"/>
  <path transform="scale(.26458)" d="m151 52.5c-1.939 0-3.5 1.561-3.5 3.5 0 0.03686 0.0106 0.07084 0.0117 0.10742 0.0587-1.9919 1.5867-3.5801 3.4883-3.5801h48c1.9015 0 3.4296 1.5882 3.4883 3.5801 0.00114-0.036579 0.01174-0.070562 0.01174-0.10742 0-1.939-1.561-3.5-3.5-3.5zm-3.9902 3.6074c-1e-3 0.03918-0.01 0.07579-0.01 0.11523 0 2.3394 1.784 4.2227 4 4.2227h48c2.216 0 4-1.8832 4-4.2227 0-0.03945-9e-3 -0.07605-0.01-0.11523-0.05739 2.1648-1.8105 3.8926-3.9898 3.8926h-48c-2.1792 0-3.9324-1.7278-3.9902-3.8926z" opacity=".1" stroke-width="2.8556"/>
 </g>
 <g transform="translate(-37.835 -.26458)" stroke-linecap="round" stroke-linejoin="round">
  <path transform="scale(.26458)" d="m156 4c-2.77 0-4.6713 1.3331-4.9609 4.0879l-5.0391 47.485c-0.28967 2.7548 2.23 5.4266 5 5.4266h48c2.77 0 5.2897-2.6718 5-5.4266l-5.0391-47.485c-0.28969-2.7548-2.1909-4.0879-4.9609-4.0879h-19z" fill="url(#linearGradient913)" stroke-width="3.2711"/>
  <path d="m46.301 1.0583v15.081h-6.3499c-0.73288 0-1.3995-0.66733-1.3229-1.3962l1.3332-12.603c0.07664-0.72886 0.57967-1.0816 1.3126-1.0816z" fill="url(#linearGradient921)" opacity=".75" stroke-width=".86547"/>
  <path d="m46.301 1.0583v15.081h6.3499c0.73288 0 1.3995-0.66733 1.3229-1.3962l-1.3332-12.603c-0.07664-0.72886-0.57967-1.0816-1.3126-1.0816z" fill="url(#linearGradient949)" opacity=".75" stroke-width=".86547"/>
  <rect x="38.628" y="13.493" width="15.346" height="2.6458" rx="1.3229" ry="1.3229" fill="url(#linearGradient945)" stroke-width=".83667"/>
  <path transform="scale(.26458)" d="m151 52c-2.216 0-4 1.784-4 4s1.784 4 4 4h48c2.216 0 4-1.784 4-4s-1.784-4-4-4zm0 0.5h48c1.939 0 3.5 1.561 3.5 3.5s-1.561 3.5-3.5 3.5h-48c-1.939 0-3.5-1.561-3.5-3.5s1.561-3.5 3.5-3.5z" stroke-width="2.7792"/>
  <g transform="translate(15.001)">
   <circle cx="37.65" cy="14.816" r=".30612" fill="#827076" stroke-width=".91835"/>
   <circle cx="37.65" cy="14.816" r=".26458" fill="url(#linearGradient968)" stroke-width=".79373"/>
   <path transform="scale(.26458)" d="m142.3 55a1 1 0 0 0-0.97265 0.78125 0.98836 0.98836 0 0 0 0.94531 0.70508 0.98836 0.98836 0 0 0 0.97266-0.8125 1 1 0 0 0-0.94532-0.67383z" fill="url(#radialGradient974)" stroke-width="2.9651"/>
  </g>
  <path transform="scale(.26458)" d="m151 52.5c-1.939 0-3.5 1.561-3.5 3.5 0 0.08572 0.0194 0.16586 0.0254 0.25 0.1297-1.8191 1.6213-3.25 3.4746-3.25h48c1.8533 0 3.3449 1.4309 3.4746 3.25 6e-3 -0.08414 0.0254-0.16428 0.0254-0.25 0-1.939-1.561-3.5-3.5-3.5z" fill="#fff" opacity=".1" stroke-width="2.5764"/>
  <path transform="scale(.26458)" d="m151 52.5c-1.939 0-3.5 1.561-3.5 3.5 0 0.03686 0.0106 0.07084 0.0117 0.10742 0.0587-1.9919 1.5867-3.5801 3.4883-3.5801h48c1.9015 0 3.4296 1.5882 3.4883 3.5801 0.00114-0.036579 0.01174-0.070562 0.01174-0.10742 0-1.939-1.561-3.5-3.5-3.5zm-3.9902 3.6074c-1e-3 0.03918-0.01 0.07579-0.01 0.11523 0 2.3394 1.784 4.2227 4 4.2227h48c2.216 0 4-1.8832 4-4.2227 0-0.03945-9e-3 -0.07605-0.01-0.11523-0.05739 2.1648-1.8105 3.8926-3.9898 3.8926h-48c-2.1792 0-3.9324-1.7278-3.9902-3.8926z" fill="#fff" opacity=".1" stroke-width="2.8556"/>
 </g>
</svg>
