<svg version="1.1" viewBox="0 0 22 22" xmlns="http://www.w3.org/2000/svg">
 <defs>
  <style id="current-color-scheme" type="text/css">.ColorScheme-Text {
                color:#363636;
            }</style>
 </defs>
 <g class="ColorScheme-Text" fill="currentColor">
  <path d="m8 4c-1.662 0-3 1.338-3 3v9.7246 0.27539c0 0.29827 0.044674 0.58588 0.125 0.85742 0.0045351 0.001381 0.0091277 0.002545 0.013672 0.003906 0.25463 0.85009 0.86903 1.543 1.6699 1.8926 0.053002 0.023132 0.10752 0.042422 0.16211 0.0625 0.027373 0.009953 0.054288 0.020123 0.082031 0.029297 0.045143 0.015096 0.090614 0.028052 0.13672 0.041016 0.044427 0.012369 0.08952 0.024796 0.13477 0.035156 0.040487 0.009347 0.081922 0.017708 0.12305 0.025391 0.065592 0.012153 0.13217 0.021457 0.19922 0.029296 0.01582 0.00185 0.030979 0.006208 0.046875 0.007813 0.0045174 4.59e-4 0.0091482-4.39e-4 0.013672 0 0.096728 0.009328 0.19371 0.015625 0.29297 0.015625h6l5-5v-8c0-0.099256-0.006297-0.19624-0.015625-0.29297-4.39e-4 -0.0045237 4.59e-4 -0.0091544 0-0.013672-0.001605-0.015896-0.005963-0.031054-0.007813-0.046875-0.007839-0.067044-0.017143-0.13363-0.029296-0.19922-0.007683-0.041125-0.016043-0.08256-0.025391-0.12305-0.01036-0.045246-0.022787-0.090338-0.035156-0.13477-0.012964-0.046105-0.02592-0.091575-0.041016-0.13672-0.009174-0.027743-0.019344-0.054659-0.029297-0.082031-0.020078-0.054589-0.039368-0.10911-0.0625-0.16211-0.34954-0.80091-1.0425-1.4153-1.8926-1.6699-0.001361-0.0045442-0.002524-0.0091368-0.003906-0.013672-0.27154-0.080326-0.55915-0.125-0.85742-0.125h-0.27539-7.7246zm0 1h8c1.108 0 2 0.892 2 2v7h-5v5h-5c-1.108 0-2-0.892-2-2v-10c0-1.108 0.892-2 2-2zm6 10h3.5859l-3.5859 3.5859v-3.5859z"/>
  <path d="m6 2c-1.662 0-3 1.338-3 3v10c0 1.3551 0.89551 2.4829 2.125 2.8574-0.080326-0.27154-0.125-0.55915-0.125-0.85742v-0.27539c-0.5958-0.34556-1-0.98355-1-1.7246v-10c0-1.108 0.892-2 2-2h8c0.74107 0 1.379 0.4042 1.7246 1h0.27539c0.29827 0 0.58588 0.044674 0.85742 0.125-0.37457-1.2295-1.5023-2.125-2.8574-2.125zm12.816 3.9707c0.01 0.027373 0.02012 0.054288 0.0293 0.082031-0.0093-0.027724-0.01924-0.054687-0.0293-0.082031zm0.07031 0.21875c0.01237 0.044427 0.0248 0.08952 0.03516 0.13477-0.01049-0.045432-0.02262-0.090183-0.03516-0.13477zm0.06055 0.25781c0.01215 0.065592 0.02146 0.13217 0.0293 0.19922-0.0079-0.066981-0.01706-0.13374-0.0293-0.19922zm0.03711 0.25977c0.009327 0.096728 0.015624 0.19371 0.015624 0.29297 0-0.099202-0.006246-0.19641-0.015624-0.29297zm-12.014 13.109c0.027344 0.01006 0.054308 0.02003 0.082031 0.0293-0.027743-0.0092-0.054659-0.01934-0.082031-0.0293zm0.21875 0.07031c0.044582 0.01254 0.089334 0.02467 0.13477 0.03516-0.045246-0.01036-0.090338-0.02279-0.13477-0.03516zm0.25781 0.06055c0.065478 0.01223 0.13224 0.02141 0.19922 0.0293-0.067044-0.0078-0.13363-0.01714-0.19922-0.0293zm0.25977 0.03711c0.096556 0.009378 0.19377 0.015624 0.29297 0.015624-0.099255 0-0.19624-0.0063-0.29297-0.01563z" opacity=".35"/>
 </g>
</svg>
