<svg version="1.1" viewBox="0 0 22 22" xmlns="http://www.w3.org/2000/svg">
 <defs>
  <style id="current-color-scheme" type="text/css">.ColorScheme-Text {
        color:#363636;
      }</style>
 </defs>
 <path d="m16.5 13c-1.385 0-2.5 1.115-2.5 2.5 0 0.4334 0.11805 0.83475 0.31055 1.1895l0.75976-0.75976c-0.041024-0.1371-0.070312-0.27889-0.070312-0.42969 0-0.831 0.669-1.5 1.5-1.5 0.15079 0 0.29259 0.02931 0.42969 0.07031l0.75976-0.75976c-0.35464-0.1924-0.75603-0.31054-1.1895-0.31054zm2.1895 1.3105-0.75976 0.75976c0.041029 0.1371 0.070312 0.27889 0.070312 0.42969 0 0.831-0.669 1.5-1.5 1.5-0.15079 0-0.29259-0.02931-0.42969-0.07031l-0.75976 0.75976c0.35464 0.1924 0.75603 0.31054 1.1895 0.31054 1.385 0 2.5-1.115 2.5-2.5 0-0.4334-0.11805-0.83475-0.31055-1.1895z" fill="#2ecc71"/>
 <path class="ColorScheme-Text" d="m5 4c-1.108 0-2 0.892-2 2v10c0 1.108 0.892 2 2 2h8v-1h-8c-0.554 0-1-0.446-1-1v-7h5l2-2h6c0.554 0 1 0.446 1 1v4h1v-4c0-1.108-0.892-2-2-2h-6l-2-2zm0 1h3.5859l1.4961 1.5039-1.4961 1.4961h-4.5859v-2c0-0.554 0.446-1 1-1z" fill="currentColor"/>
</svg>
