<svg version="1.1" viewBox="0 0 22 22" xmlns="http://www.w3.org/2000/svg">
 <defs>
  <style id="current-color-scheme" type="text/css">.ColorScheme-Text {
        color:#363636;
      }</style>
 </defs>
 <path class="ColorScheme-Text" d="m4 12-3 3 3 3v-2h2v-2h-2z" fill="currentColor"/>
 <path class="ColorScheme-Text" d="m15 1c1.108 0 2 0.892 2 2v1c1.662 0 3 1.338 3 3v8c0 1.662-1.338 3-3 3h-11v-1h11c1.0692 0 1.9288-0.83296 1.9883-1.8867l-4.5977-3.498-0.7207 0.54883c-1.4653 1.1144-3.8764 1.1144-5.3418 0l-0.71875-0.54687-0.8125-0.61719-3.7969-2.8887v3.8886h-1v-4.9999c0-1.662 1.338-3 3-3v-1c0-1.108 0.892-2 2-2zm0 1h-8c-0.554 0-1 0.446-1 1v6.1582l3.1406 2.3887c1.0302 0.78348 2.6886 0.78347 3.7188 0l3.1406-2.3887v-6.1582c0-0.554-0.446-1-1-1zm-0.5 2c0.277 0 0.5 0.223 0.5 0.5s-0.223 0.5-0.5 0.5h-7c-0.277 0-0.5-0.223-0.5-0.5s0.223-0.5 0.5-0.5zm2.5 1v3.3984l1.9883-1.5117c-0.059506-1.0538-0.91908-1.8867-1.9883-1.8867zm-12 0c-1.0692 0-1.9288 0.83296-1.9883 1.8867l1.9883 1.5117zm9.5 2c0.277 0 0.5 0.223 0.5 0.5s-0.223 0.5-0.5 0.5h-7c-0.277 0-0.5-0.223-0.5-0.5s0.223-0.5 0.5-0.5zm4.5 1.1094-3.8008 2.8906 3.8008 2.8887z" fill="currentColor"/>
</svg>
