<svg version="1.1" viewBox="0 0 22 22" xmlns="http://www.w3.org/2000/svg">
 <defs>
  <style id="current-color-scheme" type="text/css">.ColorScheme-Text {
        color:#363636;
      }</style>
 </defs>
 <path class="ColorScheme-Text" d="m9.8262 5.6602c-0.37981 1e-7 -0.54189 0.12418-0.65234 0.18555a1.0001 1.0001 0 0 0-0.021484 0.013672l-6.9355 4.0957c-0.075177 0.043562-0.20874 0.10765-0.36914 0.30469-0.16225 0.1993-0.25781 0.52881-0.25781 0.73633 0 0.20754 0.087648 0.52075 0.24219 0.7207 0.15287 0.1978 0.29598 0.27643 0.38477 0.32812l6.9355 4.0957a1.0001 1.0001 0 0 0 0.021484 0.013672c0.16196 0.09008 0.38778 0.17969 0.65234 0.17969 0.25637-5e-6 0.58772-0.096522 0.83203-0.3418 0.24431-0.24527 0.3418-0.587 0.3418-0.84766v-3.252c0.085552 0.073911 0.16208 0.12049 0.2168 0.15234l6.9355 4.0957a1.0001 1.0001 0 0 0 0.021484 0.013672c0.16196 0.09008 0.38778 0.17969 0.65234 0.17969 0.25637-5e-6 0.58772-0.096521 0.83203-0.3418 0.24431-0.24527 0.3418-0.587 0.3418-0.84766v-8.2871c0-0.26064-0.089821-0.5862-0.32031-0.83203-0.23049-0.24583-0.57064-0.36523-0.85352-0.36523-0.37981 1e-7 -0.54189 0.12418-0.65234 0.18555a1.0001 1.0001 0 0 0-0.021484 0.013672l-6.9355 4.0957c-0.049466 0.028663-0.12577 0.069978-0.2168 0.14844v-3.2461c0-0.26064-0.089825-0.5862-0.32031-0.83203-0.23049-0.24583-0.57064-0.36523-0.85352-0.36523zm0 1c0.09815 0 0.17383 0.068844 0.17383 0.19727v8.2871c0 0.12841-0.07568 0.18945-0.17383 0.18945-0.04538 0-0.09802-0.016867-0.16602-0.054687l-6.9355-4.0957c-0.09064-0.05286-0.13477-0.09682-0.13477-0.1875s0.04412-0.12878 0.13477-0.18164l6.9355-4.0957c0.06799-0.037776 0.12063-0.058594 0.16602-0.058594zm9 0c0.09815 0 0.17383 0.068844 0.17383 0.19727v8.2871c0 0.12841-0.07568 0.18945-0.17383 0.18945-0.04538 0-0.09802-0.016867-0.16602-0.054687l-6.9355-4.0957c-0.09064-0.05286-0.13476-0.09682-0.13476-0.1875s0.044119-0.12878 0.13476-0.18164l6.9355-4.0957c0.06799-0.037776 0.12063-0.058594 0.16602-0.058594z" fill="currentColor"/>
</svg>
