<svg version="1.1" viewBox="0 0 22 22" xmlns="http://www.w3.org/2000/svg">
 <defs>
  <style id="current-color-scheme" type="text/css">.ColorScheme-Text {
        color:#363636;
      }</style>
 </defs>
 <path class="ColorScheme-Text" d="m15.826 5.6631c-0.37981 1e-7 -0.54189 0.12418-0.65234 0.18555-0.0072 0.00447-0.01438 0.00902-0.02148 0.013672l-6.9356 4.0957c-0.075177 0.043562-0.20874 0.10765-0.36914 0.30469-0.16225 0.1993-0.25781 0.52881-0.25781 0.73633 0 0.20754 0.087648 0.52075 0.24219 0.7207 0.15287 0.1978 0.29598 0.27643 0.38477 0.32812l6.9355 4.0957c0.0071 0.0046 0.01426 0.0092 0.02148 0.01367 0.16196 0.09008 0.38778 0.17969 0.65234 0.17969 0.25637-5e-6 0.58772-0.09652 0.83203-0.3418 0.24432-0.24527 0.3418-0.587 0.3418-0.84766v-8.2871c0-0.26064-0.08983-0.5862-0.32031-0.83203-0.23049-0.24583-0.57064-0.36523-0.85352-0.36523zm0 1c0.09815 0 0.17383 0.068844 0.17383 0.19727v8.2871c0 0.12841-0.07568 0.18945-0.17383 0.18945-0.04538 0-0.09802-0.01687-0.16602-0.05469l-6.9355-4.0957c-0.09064-0.05286-0.13477-0.09682-0.13477-0.1875s0.04412-0.12878 0.13477-0.18164l6.9355-4.0957c0.06799-0.037776 0.12063-0.058594 0.16602-0.058594z" fill="currentColor"/>
 <rect class="ColorScheme-Text" x="5" y="6" width="1" height="10" rx=".5" ry=".5" fill="currentColor"/>
</svg>
