<svg width="22" height="22" version="1.1" xmlns="http://www.w3.org/2000/svg">
 <style id="current-color-scheme" type="text/css">.ColorScheme-Text {
        color:#363636;
      }</style>
 <path class="ColorScheme-Text" d="m21 1.5c0-0.277-0.223-0.5-0.5-0.5s-0.5 0.223-0.5 0.5v19c0 0.277 0.223 0.5 0.5 0.5s0.5-0.223 0.5-0.5zm-1 9.4883c0-0.01279-9.73e-4 -0.02631-2e-3 -0.03906-0.0012-0.01525-0.0052-0.02981-0.0078-0.04492-0.01679-0.09861-0.0603-0.19311-0.13672-0.26953-0.02204-0.02204-0.04559-0.04152-0.07031-0.05859-0.0027-0.0019-5e-3 -4e-3 -0.0078-0.0059l-2.0527-2.0547c-0.19587-0.19587-0.51116-0.19587-0.70703 0s-0.19587 0.51116 0 0.70703l1.2773 1.2773h-4.3398a3 3 0 0 0-2.9531-2.5 3 3 0 0 0-2.9531 2.5h-4.3418l1.2773-1.2773c0.19587-0.19587 0.19587-0.51116 0-0.70703-0.19587-0.19587-0.51116-0.19587-0.70703 0l-2.0527 2.0547c-0.0028 0.0019-0.00511 4e-3 -0.00781 0.0059-0.02472 0.01707-0.048273 0.03655-0.070313 0.05859-0.076418 0.07642-0.11993 0.17092-0.13672 0.26953-0.002601 0.015074-0.006614 0.029636-0.007814 0.044886v-9.4492c0-0.277-0.223-0.5-0.5-0.5s-0.5 0.223-0.5 0.5v19c0 0.277 0.223 0.5 0.5 0.5s0.5-0.223 0.5-0.5v-9.4492c0.0015 0.01527 0.00491 0.02982 0.00781 0.04492 0.00613 0.03197 0.015464 0.06234 0.027344 0.0918 0.00407 0.01009 0.00897 0.0196 0.013672 0.0293 0.01317 0.02735 0.027202 0.05385 0.044922 0.07813 0.00532 0.0073 0.011778 0.01438 0.017578 0.02148v2e-3c0.01044 0.01271 0.021323 0.02328 0.033203 0.03516 0.0113 0.01129 0.022817 0.02303 0.035157 0.0332 0.00699 0.0058 0.014284 0.01023 0.021484 0.01563 0.00571 0.0042 0.011678 0.0077 0.017578 0.01172l0.00391 0.0039 2.0527 2.0547c0.19587 0.19587 0.51116 0.19587 0.70703 0 0.19587-0.19587 0.19587-0.51116 0-0.70703l-1.2656-1.2657h4.3301a3 3 0 0 0 2.9531 2.5 3 3 0 0 0 2.957-2.5h4.3242l-1.2656 1.2656c-0.19587 0.19587-0.19587 0.51116 0 0.70703 0.19587 0.19587 0.51116 0.19587 0.70703 0l2.0527-2.0547 0.0039-0.0039c0.0059-4e-3 0.01187-0.0075 0.01758-0.01172 0.0072-0.0054 0.01449-0.0098 0.02148-0.01563 0.01234-0.01017 0.02386-0.02191 0.03516-0.0332 0.01188-0.01188 0.02276-0.02245 0.0332-0.03516v-2e-3c0.0058-0.0071 0.01226-0.0142 0.01758-0.02148 0.01772-0.02428 0.03175-0.05078 0.04492-0.07813 0.0047-0.0097 0.0096-0.01921 0.01367-0.0293 0.01188-0.02946 0.02121-0.05983 0.02734-0.0918 0.0029-0.0151 0.0063-0.02965 0.0078-0.04492v-2e-3c3.66e-4 -0.0038-2.79e-4 -0.0079 0-0.01172 0.0015-0.01592 2e-3 -0.03285 2e-3 -0.04883zm-7 0.011719a2 2 0 0 1-2 2 2 2 0 0 1-2-2 2 2 0 0 1 2-2 2 2 0 0 1 2 2zm-1 0a1 1 0 0 0-1-1 1 1 0 0 0-1 1 1 1 0 0 0 1 1 1 1 0 0 0 1-1z" fill="currentColor"/>
</svg>
