<svg width="22" height="22" version="1.1" xmlns="http://www.w3.org/2000/svg">
 <style id="current-color-scheme" type="text/css">.ColorScheme-Text {
        color:#363636;
      }</style>
 <path class="ColorScheme-Text" d="m1.5 1c-0.277 0-0.5 0.223-0.5 0.5s0.223 0.5 0.5 0.5h9.4883 9.5117c0.277 0 0.5-0.223 0.5-0.5s-0.223-0.5-0.5-0.5h-19zm9.4883 1c-0.012786 0-0.026306 9.73e-4 -0.039062 0.0019531-0.015253 0.001172-0.029806 0.0052392-0.044922 0.0078125-0.09861 0.016787-0.19311 0.060297-0.26953 0.13672-0.022036 0.022035-0.041517 0.045593-0.058594 0.070312-0.001898 0.0027466-0.004023 0.0050374-0.00586 0.0078125l-2.0547 2.0527c-0.19587 0.19587-0.19587 0.51116 0 0.70703s0.51116 0.19587 0.70703 0l1.2773-1.2773v4.3398a3 3 0 0 0-2.5 2.9531 3 3 0 0 0 2.5 2.9531v4.3418l-1.2773-1.2773c-0.19587-0.19587-0.51116-0.19587-0.70703 0-0.19587 0.19587-0.19587 0.51116 0 0.70703l2.0547 2.0527c0.0019 0.0028 0.00396 0.005112 0.00586 0.007812 0.01707 0.02472 0.036554 0.048273 0.058594 0.070313 0.076421 0.076418 0.17092 0.11993 0.26953 0.13672 0.01511 0.002599 0.029672 0.006612 0.044922 0.007812h-9.4492c-0.277 0-0.5 0.223-0.5 0.5s0.223 0.5 0.5 0.5h19c0.277 0 0.5-0.223 0.5-0.5s-0.223-0.5-0.5-0.5h-9.4492c0.01527-0.0015 0.029822-0.004913 0.044922-0.007812 0.03197-0.00613 0.062337-0.015464 0.091797-0.027344 0.01009-0.00407 0.019597-0.008972 0.029297-0.013672 0.02735-0.01317 0.053845-0.027202 0.078125-0.044922 0.00728-0.00532 0.014384-0.011778 0.021484-0.017578h0.001953c0.01271-0.01044 0.023277-0.021323 0.035157-0.033203 0.01129-0.0113 0.023033-0.022817 0.033203-0.035157 0.00583-0.006989 0.010225-0.014284 0.015625-0.021484 0.00422-0.00571 0.007719-0.011678 0.011718-0.017578l0.003907-0.003906 2.0547-2.0527c0.19587-0.19587 0.19587-0.51116 0-0.70703-0.19587-0.19587-0.51116-0.19587-0.70703 0l-1.2656 1.2656v-4.3301a3 3 0 0 0 2.5-2.9531 3 3 0 0 0-2.5-2.957v-4.3242l1.2656 1.2656c0.19587 0.19587 0.51116 0.19587 0.70703 0 0.19587-0.19587 0.19587-0.51116 0-0.70703l-2.0547-2.0527-0.003907-0.0039063c-0.003971-0.005889-0.007505-0.011872-0.011718-0.017578-0.005369-0.0072254-0.009817-0.014488-0.015625-0.021484-0.010174-0.012338-0.021907-0.023859-0.033203-0.035156-0.011884-0.011884-0.022446-0.022761-0.035157-0.033203h-0.001953c-0.007057-0.0057629-0.0142-0.012258-0.021484-0.017578-0.024278-0.017722-0.050777-0.031753-0.078125-0.044922-0.009747-0.0046934-0.019207-0.0096036-0.029297-0.013672-0.029457-0.011877-0.059829-0.02121-0.091797-0.027344-0.015104-0.0029363-0.029654-0.0062848-0.044922-0.0078125h-0.001953c-0.003814-3.666e-4 -0.007899 2.788e-4 -0.011719 0-0.015917-0.0015302-0.032852-0.0019531-0.048828-0.0019531zm0.011719 7a2 2 0 0 1 2 2 2 2 0 0 1-2 2 2 2 0 0 1-2-2 2 2 0 0 1 2-2zm0 1a1 1 0 0 0-1 1 1 1 0 0 0 1 1 1 1 0 0 0 1-1 1 1 0 0 0-1-1z" fill="currentColor"/>
</svg>
