<svg version="1.1" viewBox="0 0 22 22" xmlns="http://www.w3.org/2000/svg">
 <defs>
  <style id="current-color-scheme" type="text/css">.ColorScheme-Text {
        color:#363636;
            }
            .ColorScheme-NegativeText {
                color:#da4453;
      }</style>
 </defs>
 <path class="ColorScheme-NegativeText" d="m14.707 14-0.70703 0.70703 1.793 1.793-1.793 1.793 0.70703 0.70703 1.793-1.793 1.793 1.793 0.70703-0.70703-1.793-1.793 1.793-1.793-0.70703-0.70703-1.793 1.793-1.793-1.793z" fill="currentColor"/>
 <path class="ColorScheme-Text" d="m6 3c-1.662 0-3 1.338-3 3v10c0 1.662 1.338 3 3 3h7v-1h-7c-1.108 0-2-0.892-2-2v-7c0-1.108 0.892-2 2-2h10c1.108 0 2 0.892 2 2v4h1v-7c0-1.662-1.338-3-3-3h-10z" fill="currentColor"/>
</svg>
