<svg version="1.1" viewBox="0 0 22 22" xmlns="http://www.w3.org/2000/svg">
 <defs>
  <style id="current-color-scheme" type="text/css">.ColorScheme-Text {
        color:#363636;
      }</style>
 </defs>
 <path class="ColorScheme-Text" d="m11 3a8 8 0 0 1 8 8 8 8 0 0 1-8 8 8 8 0 0 1-8-8 8 8 0 0 1 8-8zm0 1a7 7 0 0 0-7 7 7 7 0 0 0 7 7 7 7 0 0 0 7-7 7 7 0 0 0-7-7zm1.7422 2.2578c0.12781 0 0.25558 0.04855 0.35352 0.14648 0.19587 0.19587 0.19587 0.51116 0 0.70703l-3.8887 3.8887 3.8887 3.8887c0.19587 0.19587 0.19587 0.51116 0 0.70703s-0.51116 0.19587-0.70703 0l-4.2422-4.2422c-0.19587-0.19587-0.19587-0.51116 0-0.70703l4.2422-4.2422c0.09793-0.097934 0.22571-0.14648 0.35352-0.14648z" fill="currentColor"/>
</svg>
