<svg version="1.1" viewBox="0 0 22 22" xmlns="http://www.w3.org/2000/svg">
 <defs>
  <style id="current-color-scheme" type="text/css">.ColorScheme-Text {
        color:#363636;
      }</style>
 </defs>
 <path class="ColorScheme-Text" d="m4 3c-1.108 0-2 0.892-2 2v12c0 1.108 0.892 2 2 2h14c1.108 0 2-0.892 2-2v-11h-10c-0.554 0-1-0.446-1-1v-2zm6 1v2h8c0-1.108-0.89319-1.9487-2-2zm-6 0h4v1c0 1.108 0.892 2 2 2h9v10c0 0.554-0.446 1-1 1h-14c-0.554 0-1-0.446-1-1v-12c0-0.554 0.446-1 1-1z" fill="currentColor"/>
</svg>
