<svg version="1.1" viewBox="0 0 22 22" xmlns="http://www.w3.org/2000/svg">
 <defs>
  <style id="current-color-scheme" type="text/css">.ColorScheme-Text {
        color:#363636;
      }
      .ColorScheme-Highlight {
        color:#3daee9;
      }</style>
 </defs>
 <path class="ColorScheme-Text" d="m15 11c-2.216 0-4 1.784-4 4s1.784 4 4 4 4-1.784 4-4-1.784-4-4-4zm0 1c1.662 0 3 1.338 3 3s-1.338 3-3 3-3-1.338-3-3 1.338-3 3-3zm-1 1v3h2v-1h-1v-2z" fill="currentColor"/>
 <path class="ColorScheme-Text" d="m4 3c-0.55218 1.143e-4 -0.99989 0.44782-1 1v7.0703c-1.75e-5 0.2652 0.10548 0.51947 0.29297 0.70703l7.7773 7.7793c0.39055 0.39047 1.0236 0.39047 1.4141 0l0.16016-0.16016a5 5 0 0 1-0.84961-0.56445l-0.017578 0.017578-7.7773-7.7793v-7.0703h7.0703l7.4648 7.4648 0.31445 0.3125-0.015625 0.015625a5 5 0 0 1 0.57227 0.8418l0.15039-0.15039c0.39047-0.39055 0.39047-1.0236 0-1.4141l-7.7793-7.7773c-0.18756-0.18749-0.44183-0.29298-0.70703-0.29297h-7.0703z" fill="currentColor"/>
 <path class="ColorScheme-Text" d="m7.9512 6a2 2 0 0 0-1.9512 2 2 2 0 0 0 2 2 2 2 0 0 0 2-2 2 2 0 0 0-2-2 2 2 0 0 0-0.048828 0zm0.048828 1a1 1 0 0 1 1 1 1 1 0 0 1-1 1 1 1 0 0 1-1-1 1 1 0 0 1 1-1z" color="#363636" fill="currentColor"/>
</svg>
