<svg width="22" height="22" version="1.1" viewBox="0 0 22 22" xmlns="http://www.w3.org/2000/svg">
 <defs>
  <style id="current-color-scheme" type="text/css">.ColorScheme-Text { color:#565656; } .ColorScheme-Highlight { color:#5294e2; }</style>
 </defs>
 <path class="ColorScheme-Text" d="m6 3c-1.662 0-3 1.338-3 3v10c0 1.662 1.338 3 3 3h4.5 1 4.5c1.662 0 3-1.338 3-3v-10c0-1.662-1.338-3-3-3h-4.5-1-4.5zm0 1h4.5v14h-4.5c-1.108 0-2-0.892-2-2v-10c0-1.108 0.892-2 2-2zm5.5 0h4.5c1.108 0 2 0.892 2 2v10c0 1.108-0.892 2-2 2h-4.5v-14z" fill="currentColor"/>
</svg>
