<svg version="1.1" viewBox="0 0 22 22" xmlns="http://www.w3.org/2000/svg">
 <style id="current-color-scheme" type="text/css">.ColorScheme-Text {
            color:#363636;
        }</style>
 <path class="ColorScheme-Text" d="m4.9024 7.9052c-0.19587 0.19587-0.19587 0.51124 0 0.70711l3.8891 3.8891-4.5962 4.5962c-0.19587 0.19587-0.19587 0.51124-1e-7 0.70711 0.19587 0.19587 0.51124 0.19587 0.70711 0l4.5962-4.5962 3.8891 3.8891c0.19587 0.19587 0.51124 0.19587 0.70711-1e-6 0.19587-0.19587 0.19587-0.51124 0-0.70711l-1.7678-1.7678 4.5962-4.5962c1.3711-1.3711 1.3711-3.5787 0-4.9497-1.3711-1.3711-3.5787-1.3711-4.9497 2e-7l-4.5962 4.5962-1.7678-1.7678c-0.19587-0.19587-0.51124-0.19587-0.70711 0zm3.182 2.4749 4.5962-4.5962c0.97934-0.97934 2.5562-0.97934 3.5355 1e-7 0.97934 0.97934 0.97934 2.5562 0 3.5355l-4.5962 4.5962z" fill="currentColor"/>
</svg>
