<?xml version="1.0" encoding="UTF-8" standalone="no"?>
<svg
   width="64"
   height="64"
   viewBox="0 0 16.933 16.933"
   version="1.1"
   id="svg4369"
   sodipodi:docname="folder-projects.svg"
   inkscape:version="1.2.2 (732a01da63, 2022-12-09, custom)"
   xmlns:inkscape="http://www.inkscape.org/namespaces/inkscape"
   xmlns:sodipodi="http://sodipodi.sourceforge.net/DTD/sodipodi-0.dtd"
   xmlns="http://www.w3.org/2000/svg"
   xmlns:svg="http://www.w3.org/2000/svg">
  <sodipodi:namedview
     id="namedview4371"
     pagecolor="#505050"
     bordercolor="#eeeeee"
     borderopacity="1"
     inkscape:showpageshadow="0"
     inkscape:pageopacity="0"
     inkscape:pagecheckerboard="0"
     inkscape:deskcolor="#505050"
     showgrid="false"
     inkscape:zoom="7.4569965"
     inkscape:cx="6.5710102"
     inkscape:cy="36.94517"
     inkscape:window-width="1920"
     inkscape:window-height="1048"
     inkscape:window-x="0"
     inkscape:window-y="0"
     inkscape:window-maximized="1"
     inkscape:current-layer="svg4369" />
  <defs
     id="defs4349">
    <linearGradient
       id="b"
       x1="445.28"
       x2="445.28"
       y1="179.28"
       y2="200.07"
       gradientTransform="matrix(.38956 0 0 .38184 -165.52 -63.44)"
       gradientUnits="userSpaceOnUse">
      <stop
         stop-color="#60c0f0"
         offset="0"
         id="stop4318" />
      <stop
         stop-color="#83d4fb"
         offset="1"
         id="stop4320" />
    </linearGradient>
    <linearGradient
       id="c"
       x1="8.467"
       x2="8.467"
       y1="293.3"
       y2="292.77"
       gradientTransform="translate(0 -280.07)"
       gradientUnits="userSpaceOnUse">
      <stop
         stop-color="#008ea2"
         stop-opacity=".25"
         offset="0"
         id="stop4323" />
      <stop
         stop-color="#fff"
         stop-opacity=".15"
         offset="1"
         id="stop4325" />
    </linearGradient>
    <linearGradient
       id="d"
       x1="8.467"
       x2="8.467"
       y1="294.62"
       y2="293.56"
       gradientTransform="translate(0 -280.06) scale(.99998)"
       gradientUnits="userSpaceOnUse">
      <stop
         stop-color="#008ea2"
         stop-opacity=".251"
         offset="0"
         id="stop4328" />
      <stop
         stop-color="#008ea2"
         stop-opacity=".15"
         offset=".757"
         id="stop4330" />
      <stop
         stop-color="#fff"
         stop-opacity=".15"
         offset="1"
         id="stop4332" />
    </linearGradient>
    <linearGradient
       id="a"
       x1="6.879"
       x2="6.879"
       y1="285.36"
       y2="283.77"
       gradientTransform="translate(0 -280.06) scale(.99998)"
       gradientUnits="userSpaceOnUse">
      <stop
         offset="0"
         id="stop4335" />
      <stop
         stop-opacity="0"
         offset="1"
         id="stop4337" />
    </linearGradient>
    <linearGradient
       id="e"
       x1="1.058"
       x2="15.875"
       y1="289.59"
       y2="289.59"
       gradientTransform="translate(0 -280.07)"
       gradientUnits="userSpaceOnUse">
      <stop
         stop-color="#46a2d7"
         stop-opacity=".5"
         offset="0"
         id="stop4340" />
      <stop
         stop-color="#46a2d7"
         stop-opacity="0"
         offset=".108"
         id="stop4342" />
      <stop
         stop-color="#46a2d7"
         stop-opacity=".096"
         offset=".894"
         id="stop4344" />
      <stop
         stop-color="#46a2d7"
         stop-opacity=".5"
         offset="1"
         id="stop4346" />
    </linearGradient>
    <linearGradient
       id="linearGradient5852"
       x1="19.306999"
       x2="19.306999"
       y1="24.990999"
       y2="15.954"
       gradientUnits="userSpaceOnUse"
       gradientTransform="matrix(0.38381141,0,0,0.38381141,19.735008,-3.6254232)">
      <stop
         stop-color="#009ef8"
         offset="0"
         id="stop7492"
         style="stop-color:#0099e6;stop-opacity:1;" />
      <stop
         stop-color="#27affa"
         offset="1"
         id="stop7494"
         style="stop-color:#037bb9;stop-opacity:1;" />
    </linearGradient>
    <linearGradient
       id="linearGradient1769-9"
       x1="445.28"
       x2="445.28"
       y1="179.28"
       y2="200.07001"
       gradientTransform="matrix(0.38803334,0,0,0.38034944,-141.28924,-63.06246)"
       gradientUnits="userSpaceOnUse">
      <stop
         stop-color="#3ab8fb"
         offset="0"
         id="stop7487"
         style="stop-color:#47beff;stop-opacity:1;" />
      <stop
         stop-color="#60c4fb"
         offset="1"
         id="stop7489"
         style="stop-color:#87cefb;stop-opacity:1;" />
    </linearGradient>
  </defs>
  <g
     id="g7740"
     transform="translate(-23.572419,-0.77779873)">
    <path
       d="m 25.787329,2.4982877 h 2.684455 c 0.747818,0 0.779943,0.028386 1.536089,0.6271479 0.778523,0.5881142 0.944099,0.5416346 1.856343,0.5416346 h 6.387773 c 0.635516,-0.00498 1.147212,0.5224058 1.147212,1.1579206 V 13.65035 c 0,0.635515 -0.511619,1.147212 -1.147212,1.147212 H 25.788098 c -0.635516,0 -1.147175,-0.511659 -1.147175,-1.147212 V 3.6451546 c 0,-0.635515 0.511622,-1.1472123 1.147175,-1.1472123 z"
       fill="url(#linearGradient5852)"
       stroke-width="0.996067"
       id="path7509"
       style="opacity:0.6;fill:url(#linearGradient5852)" />
    <rect
       x="24.638968"
       y="5.2022386"
       width="14.759083"
       height="9.5952845"
       rx="1.1472123"
       ry="1.1243756"
       fill="url(#linearGradient1769-9)"
       stroke-width="0.996067"
       id="rect7511"
       style="opacity:0.6;fill:url(#linearGradient1769-9)" />
    <path
       d="m 25.786179,5.0867118 c -0.508014,0 -0.945328,0.2958841 -1.145447,0.7219109 v 0.4895131 c 0.01544,-0.6095309 0.51968,-1.0959736 1.145447,-1.0959736 h 12.465043 c 0.635553,0 1.146943,0.5015265 1.146943,1.1244524 v 7.3465324 c 1.46e-4,-0.0075 0.0015,-0.0149 0.0015,-0.02248 V 5.8147675 C 39.200901,5.3854745 38.761614,5.0868692 38.251222,5.0868692 H 25.786179 Z m 13.611872,8.5862452 c 0,0.03363 -0.0023,0.06685 -0.0052,0.0997 0.0035,-0.03276 0.0046,-0.06616 0.0052,-0.0997 z"
       color="#000000"
       fill="#000000"
       opacity="0.08"
       stroke-linecap="round"
       stroke-linejoin="round"
       id="path7515"
       style="opacity:0.6;fill:#ffffff;stroke-width:0.964668;stroke-dasharray:none" />
    <path
       d="M 25.787714,2.4982877 C 25.152505,2.4987099 24.64077,3.0099467 24.64077,3.6452313 V 13.650427 c 0,0.635553 0.512158,1.146944 1.147673,1.146944 h 12.463508 c 0.635591,0 1.147672,-0.511429 1.147672,-1.146944 V 4.8250675 c 0,-0.6354765 -0.512158,-1.1631787 -1.147672,-1.1581892 h -6.387774 c -0.912243,0 -1.07755,0.046131 -1.856073,-0.5419801 C 29.251958,2.526114 29.219947,2.498211 28.47209,2.498211 h -2.683686 -7.67e-4 z m 0,0.1146945 h 7.67e-4 2.683686 c 0.372458,0 0.547239,0.00783 0.720414,0.08021 0.173146,0.072376 0.366241,0.2230481 0.744403,0.5224825 a 0.11515493,0.11515493 0 0 0 0.0015,0.00149 c 0.393561,0.297304 0.646225,0.4440698 0.920535,0.5112367 0.27434,0.067178 0.551114,0.053972 1.005239,0.053972 h 6.387774 a 0.11515493,0.11515493 0 0 0 0.0015,0 c 0.571341,-0.00448 1.030725,0.4690559 1.030725,1.0427388 v 8.8253598 c 0,0.573722 -0.458425,1.031492 -1.032261,1.031492 H 25.788481 c -0.573721,0 -1.032261,-0.457734 -1.032261,-1.031492 V 3.6452812 c 0,-0.5734909 0.458079,-1.0318385 1.031494,-1.0322608 z"
       color="#000000"
       fill="#000000"
       opacity="0.1"
       stroke-linecap="round"
       stroke-linejoin="round"
       style="opacity:0.6;fill:#ffffff;fill-opacity:1;stroke-width:0.964668;stroke-dasharray:none;paint-order:stroke fill markers"
       id="path7517" />
    <path
       d="m 25.760625,5.1379968 c -0.508315,0 -0.945889,0.2960597 -1.146127,0.7223391 v 0.4898036 c 0.01545,-0.6098926 0.519989,-1.0966237 1.146127,-1.0966237 h 12.472438 c 0.63593,0 1.147624,0.5018239 1.147624,1.1251194 v 7.3508938 c 1.45e-4,-0.0076 0.0014,-0.0149 0.0014,-0.0225 V 5.8664843 c -0.198818,-0.4295476 -0.638365,-0.72833 -1.14906,-0.72833 H 25.760625 Z m 13.619947,8.5913382 c 0,0.03364 -0.0024,0.06688 -0.0052,0.09976 0.0035,-0.03277 0.0046,-0.0662 0.0052,-0.09976 z"
       color="#000000"
       fill="#000000"
       opacity="0.08"
       stroke-linecap="round"
       stroke-linejoin="round"
       id="path7515-3"
       style="opacity:0.5;fill:#ffffff;stroke-width:0.96524;stroke-dasharray:none" />
    <path
       d="m 25.762161,2.5480371 c -0.635585,4.225e-4 -1.147624,0.5119626 -1.147624,1.1476242 V 13.706792 c 0,0.63593 0.512462,1.147624 1.148353,1.147624 h 12.470902 c 0.635969,0 1.148354,-0.511732 1.148354,-1.147624 V 4.8761974 c 0,-0.6358536 -0.512462,-1.1638688 -1.148354,-1.1588763 h -6.391563 c -0.912784,0 -1.07819,0.046158 -1.857174,-0.5423018 C 29.228459,2.57588 29.19643,2.5479604 28.44813,2.5479604 h -2.685278 -7.68e-4 z m 0,0.1147625 h 7.68e-4 2.685278 c 0.372679,0 0.547563,0.00784 0.720841,0.080256 0.173248,0.072418 0.366458,0.2231805 0.744844,0.5227924 a 0.11522324,0.11522324 0 0 0 0.0015,0.0015 c 0.393794,0.2974805 0.646607,0.4443332 0.92108,0.5115401 0.274503,0.067218 0.551441,0.054004 1.005836,0.054004 h 6.391563 a 0.11522324,0.11522324 0 0 0 0.0015,0 c 0.571681,-0.00448 1.031338,0.4693341 1.031338,1.0433573 v 8.8305956 c 0,0.574061 -0.458696,1.032105 -1.032872,1.032105 H 25.762929 c -0.574062,0 -1.032873,-0.458005 -1.032873,-1.032105 V 3.6957112 c 0,-0.5738313 0.45835,-1.0324508 1.032105,-1.0328733 z"
       color="#000000"
       fill="#000000"
       opacity="0.1"
       stroke-linecap="round"
       stroke-linejoin="round"
       style="opacity:0.5;fill:#ffffff;fill-opacity:1;stroke-width:0.96524;stroke-dasharray:none;paint-order:stroke fill markers"
       id="path7517-6" />
  </g>
  <path
     class="st0"
     d="m11.058 10.02.19.19c.05.05.05.13 0 .18l-.155.154c.04.08.075.165.095.255h.2c.07 0 .13.06.13.13v.27c0 .07-.06.13-.13.13h-.215c-.025.084-.065.169-.11.244l.14.14c.05.05.05.13 0 .18l-.19.19c-.05.05-.13.05-.18 0l-.154-.156c-.08.04-.165.075-.255.095v.2c0 .07-.06.13-.13.13h-.27c-.07 0-.13-.06-.13-.13v-.22a1.08 1.08 0 0 1-.244-.11l-.14.14c-.05.05-.13.05-.18 0l-.19-.19a.127.127 0 0 1 0-.18l.155-.154a1.113 1.113 0 0 1-.095-.255H9c-.07 0-.13-.06-.13-.13v-.27c0-.07.06-.13.13-.13h.215a1.08 1.08 0 0 1 .11-.244l-.135-.135a.127.127 0 0 1 0-.18l.19-.19c.05-.05.13-.05.18 0l.155.156c.08-.04.165-.075.254-.095v-.2c0-.07.06-.13.13-.13h.27c.07 0 .13.06.13.13v.215c.085.025.17.065.245.11l.14-.14c.04-.05.124-.05.174 0zm-3.196.294c-.07 0-.125-.07-.125-.15 0-.084.055-.15.125-.15h.62c.07 0 .124.07.124.15 0 .085-.055.15-.125.15zm.185 1.503a.15.15 0 0 1 0 .3H6.149a.356.356 0 0 1-.354-.354v-5.2c0-.1.04-.184.104-.249s.15-.105.25-.105h4.33a.356.356 0 0 1 .355.355v2.412a.15.15 0 0 1-.15.15.15.15 0 0 1-.15-.15V6.564a.045.045 0 0 0-.015-.035.045.045 0 0 0-.035-.015H6.149a.045.045 0 0 0-.035.015c-.01.005-.015.02-.015.035v5.209c0 .015.005.025.015.035.01.01.02.015.035.015h1.898zM6.733 9.91h.535c.03 0 .05.02.05.05v.46c0 .03-.02.05-.05.05h-.535c-.03 0-.05-.02-.05-.05v-.46c0-.03.02-.05.05-.05zm0-2.642h.535c.03 0 .05.02.05.05v.46c0 .03-.02.05-.05.05h-.535c-.03 0-.05-.02-.05-.05v-.46c0-.03.02-.05.05-.05zm1.129.404c-.07 0-.125-.07-.125-.15 0-.084.055-.15.125-.15h1.733c.07 0 .125.07.125.15 0 .086-.055.15-.125.15zm-.974 1.404c-.035.025-.08.02-.115-.015l-.01-.01-.16-.165c-.034-.035-.024-.09.016-.13.044-.035.104-.04.14-.005l.084.09.28-.225c.035-.03.095-.015.125.03.035.045.03.11-.01.14zm.89-.13c-.07 0-.126-.07-.126-.15 0-.085.055-.15.125-.15H9.51c.07 0 .125.07.125.15 0 .085-.055.15-.125.15zm2.416 1.553a.53.53 0 1 1 0 1.06.53.53 0 0 1 0-1.06z"
     clip-rule="evenodd"
     fill-rule="evenodd"
     opacity=".15"
     id="path4367" />
</svg>
