<svg width="64" height="64" version="1.1" viewBox="0 0 16.933 16.933" xmlns="http://www.w3.org/2000/svg">
 <defs>
  <linearGradient id="linearGradient1769" x1="445.28" x2="445.28" y1="179.28" y2="200.07" gradientTransform="matrix(.38956 0 0 .38184 -165.52 216.63)" gradientUnits="userSpaceOnUse">
   <stop stop-color="#60c0f0" offset="0"/>
   <stop stop-color="#83d4fb" offset="1"/>
  </linearGradient>
  <linearGradient id="linearGradient860" x1="8.4667" x2="8.4667" y1="293.3" y2="292.77" gradientUnits="userSpaceOnUse">
   <stop stop-color="#008ea2" stop-opacity=".25" offset="0"/>
   <stop stop-color="#fff" stop-opacity=".15" offset="1"/>
  </linearGradient>
  <linearGradient id="linearGradient868" x1="8.4667" x2="8.4667" y1="294.62" y2="293.56" gradientTransform="matrix(3.7795 0 0 3.7795 0 -1058.5)" gradientUnits="userSpaceOnUse">
   <stop stop-color="#008ea2" stop-opacity=".25098" offset="0"/>
   <stop stop-color="#008ea2" stop-opacity=".15" offset=".75678"/>
   <stop stop-color="#fff" stop-opacity=".15" offset="1"/>
  </linearGradient>
  <linearGradient id="linearGradient897" x1="6.8792" x2="6.8792" y1="285.36" y2="283.77" gradientTransform="matrix(3.7795 0 0 3.7795 0 -1058.5)" gradientUnits="userSpaceOnUse">
   <stop offset="0"/>
   <stop stop-opacity="0" offset="1"/>
  </linearGradient>
  <linearGradient id="linearGradient907" x1="1.0583" x2="15.875" y1="289.59" y2="289.59" gradientUnits="userSpaceOnUse">
   <stop stop-color="#46a2d7" stop-opacity=".5" offset="0"/>
   <stop stop-color="#46a2d7" stop-opacity="0" offset=".10783"/>
   <stop stop-color="#46a2d7" stop-opacity=".095808" offset=".89398"/>
   <stop stop-color="#46a2d7" stop-opacity=".5" offset="1"/>
  </linearGradient>
  <filter id="filter903" x="-.054628" y="-.066543" width="1.1093" height="1.1331" color-interpolation-filters="sRGB">
   <feGaussianBlur stdDeviation="0.33725977"/>
  </filter>
 </defs>
 <path d="m2.2099 2.5197c-0.63806 0-1.1513 0.51331-1.1513 1.1513v2.082c-8e-6 2e-3 -5.17e-4 3e-3 -5.17e-4 5e-3v7.7968c0 0.62536 0.5138 1.1286 1.1518 1.1286h12.513c0.63804 0 1.1518-0.50324 1.1518-1.1286v-8.6996c0-0.63797-0.51384-1.1568-1.1518-1.1518l-6.4124 0.0527c-0.91581 0-1.0823-0.0168-1.8639-0.60718-0.75908-0.60112-0.79125-0.62941-1.542-0.62941z" filter="url(#filter903)" opacity=".25"/>
 <g transform="translate(0 -280.07)">
  <path d="m2.21 282.45h2.695c0.75074 0 0.78302 0.0285 1.5421 0.62962 0.78159 0.5904 0.94779 0.607 1.8636 0.607l6.4126-0.0524c0.638-5e-3 1.1517 0.51363 1.1517 1.1516v6.77c0 0.63802-0.51364 1.1517-1.1517 1.1517h-12.513c-0.63802 0-1.1517-0.51364-1.1517-1.1517v-7.9542c0-0.63802 0.51364-1.1517 1.1517-1.1517z" fill="#46a2d7"/>
  <path transform="matrix(.26458 0 0 .26458 0 280.07)" d="m8.3535 9c-2.4114 0-4.3535 1.9421-4.3535 4.3535v10.646h56v-6.1719c0-2.4114-1.9422-4.3705-4.3535-4.3516l-24.236 0.19727c-3.4614 0-4.0889-0.063489-7.043-2.2949-2.869-2.2719-2.9907-2.3789-5.8281-2.3789h-10.186z" fill="url(#linearGradient897)" opacity=".25"/>
  <rect x="1.0583" y="284.56" width="14.817" height="10.054" rx="1.1517" ry="1.1288" fill="url(#linearGradient1769)"/>
  <rect x="1.0583" y="292.77" width="14.817" height=".52915" fill="url(#linearGradient860)"/>
  <path transform="matrix(.26458 0 0 .26458 0 280.07)" d="m4.0273 51c0.14181 2.2363 2.0077 4 4.3262 4h47.293c2.3184 0 4.1844-1.7637 4.3262-4h-55.945z" fill="url(#linearGradient868)"/>
  <rect x="1.0583" y="284.56" width="14.817" height="10.054" rx="1.1517" ry="1.1288" fill="url(#linearGradient907)"/>
  <path transform="matrix(.26458 0 0 .26458 0 280.07)" d="m8.3535 17c-2.4114 0-4.3535 1.902-4.3535 4.2656v0.88867c0-2.3014 1.9421-4.1543 4.3535-4.1543h47.293c2.4114 0 4.3535 1.8529 4.3535 4.1543v-0.88867c0-2.3636-1.9421-4.2656-4.3535-4.2656h-47.293z" fill="#fff" opacity=".1"/>
 </g>
 <path d="m5.8677 6.6066c-0.069273 0-0.12519 0.055698-0.12519 0.12497v5.5708c0 0.06929 0.055918 0.12499 0.12519 0.12499h5.1982c0.06927 0 0.1252-0.0557 0.1252-0.12499v-5.5708c0-0.069264-0.05592-0.12497-0.1252-0.12497zm1.0974 0.37238h3.0034c0.069274 0 0.12498 0.055698 0.12498 0.12499v2.1215c0 0.069294-0.05571 0.12499-0.12498 0.12499h-3.0034c-0.069277 0-0.12498-0.055698-0.12498-0.12499v-2.1215c0-0.069294 0.055704-0.12499 0.12498-0.12499zm-0.89994 0.00532h0.46187c0.038581 0 0.069718 0.031155 0.069718 0.069695v0.22086c0 0.03857-0.031137 0.069916-0.069718 0.069916h-0.46187c-0.038581 0-0.069504-0.031346-0.069504-0.069916v-0.22086c0-0.03855 0.030932-0.069695 0.069504-0.069695zm4.3412 0h0.46187c0.03858 0 0.06972 0.031155 0.06972 0.069695v0.22086c0 0.03857-0.03114 0.069916-0.06972 0.069916h-0.46187c-0.03858 0-0.06972-0.031346-0.06972-0.069916v-0.22086c0-0.03855 0.03113-0.069695 0.06972-0.069695zm-0.01086 0.66633h0.46187c0.03858 0 0.06972 0.030934 0.06972 0.069505v0.22105c0 0.03857-0.03113 0.069726-0.06972 0.069726h-0.46188c-0.03858 0-0.06972-0.031155-0.06972-0.069726v-0.22105c0-0.03857 0.03114-0.069505 0.06972-0.069505zm-4.3303 0.00582h0.46187c0.038581 0 0.069718 0.031125 0.069718 0.069695v0.22086c0 0.03857-0.031137 0.069916-0.069718 0.069916h-0.46188c-0.038581 0-0.069504-0.031346-0.069504-0.069916v-0.22086c0-0.03857 0.030932-0.069695 0.069503-0.069695zm4.3303 0.66633h0.46187c0.03858 0 0.06972 0.031155 0.06972 0.069726v0.22083c0 0.03857-0.03113 0.069726-0.06972 0.069726h-0.46188c-0.03858 0-0.06972-0.031145-0.06972-0.069726v-0.22089c0-0.03857 0.03114-0.069726 0.06972-0.069726zm-4.3303 0.00602h0.46187c0.038581 0 0.069718 0.031155 0.069718 0.069726v0.22064c0 0.03857-0.031137 0.069916-0.069718 0.069916h-0.46188c-0.038581 0-0.069504-0.031346-0.069504-0.069916v-0.2207c0-0.03857 0.030932-0.069726 0.069504-0.069726zm4.3303 0.66614h0.46187c0.03858 0 0.06972 0.031155 0.06972 0.069726v0.22105c0 0.03857-0.03113 0.069505-0.06972 0.069505h-0.46188c-0.03858 0-0.06972-0.030935-0.06972-0.069505v-0.22105c0-0.03857 0.03114-0.069726 0.06972-0.069726zm-4.3303 0.00602h0.46187c0.038581 0 0.069718 0.031155 0.069718 0.069726v0.22105c0 0.03857-0.031137 0.069505-0.069718 0.069505h-0.46188c-0.038581 0-0.069504-0.030935-0.069504-0.069505v-0.22105c0-0.03857 0.030932-0.069726 0.069503-0.069726zm4.3303 0.66614h0.46187c0.03858 0 0.06972 0.031155 0.06972 0.069726v0.22105c0 0.03857-0.03113 0.069505-0.06972 0.069505h-0.46188c-0.03858 0-0.06972-0.030935-0.06972-0.069505v-0.22105c0-0.03857 0.03114-0.069726 0.06972-0.069726zm-4.3303 0.00602h0.46187c0.038581 0 0.069718 0.031155 0.069718 0.069726v0.22105c0 0.03857-0.031137 0.069505-0.069718 0.069505h-0.46188c-0.038581 0-0.069504-0.03094-0.069504-0.069505v-0.22105c0-0.03857 0.030932-0.069726 0.069504-0.069726zm0.89994 0.025516h3.0034c0.069273 0 0.12498 0.055919 0.12498 0.12519v2.1213c0 0.0693-0.05571 0.12499-0.12498 0.12499h-3.0034c-0.069277 0-0.12498-0.0557-0.12498-0.12499v-2.1213c0-0.069264 0.055704-0.12519 0.12498-0.12519zm3.4304 0.64062h0.46187c0.03858 0 0.06972 0.03116 0.06972 0.06973v0.22105c0 0.03857-0.03113 0.0695-0.06972 0.0695h-0.46188c-0.03858 0-0.06972-0.03093-0.06972-0.0695v-0.22105c0-0.03857 0.03114-0.06973 0.06972-0.06973zm-4.3303 6e-3h0.46187c0.038581 0 0.069718 0.03116 0.069718 0.06973v0.22105c0 0.03857-0.031137 0.06951-0.069718 0.06951h-0.46188c-0.038581 0-0.069504-0.03094-0.069504-0.06951v-0.22108c0-0.03857 0.030932-0.06973 0.069504-0.06973zm4.3303 0.66635h0.46187c0.03858 0 0.06972 0.03093 0.06972 0.0695v0.22105c0 0.03857-0.03113 0.06973-0.06972 0.06973h-0.46188c-0.03858 0-0.06972-0.03116-0.06972-0.06973v-0.22105c0-0.03857 0.03114-0.0695 0.06972-0.0695zm-4.3303 6e-3h0.46187c0.038581 0 0.069718 0.03093 0.069718 0.0695v0.22105c0 0.03857-0.031137 0.06973-0.069718 0.06973h-0.46188c-0.038581 0-0.069504-0.03116-0.069504-0.06973v-0.22105c0-0.03857 0.030932-0.0695 0.069503-0.0695zm4.3303 0.66614h0.46187c0.03858 0 0.06972 0.03093 0.06972 0.0695v0.22105c0 0.03857-0.03113 0.06973-0.06972 0.06973h-0.46188c-0.03858 0-0.06972-0.03116-0.06972-0.06973v-0.22105c0-0.03857 0.03114-0.0695 0.06972-0.0695zm-4.3303 6e-3h0.46187c0.038581 0 0.069718 0.03093 0.069718 0.0695v0.22105c0 0.03857-0.031137 0.06972-0.069718 0.06972h-0.46188c-0.038581 0-0.069504-0.03115-0.069504-0.06972v-0.22105c0-0.03857 0.030932-0.0695 0.069504-0.0695z" opacity=".15" stroke-width=".24093"/>
</svg>
