<?xml version="1.0" encoding="UTF-8" standalone="no"?>
<svg
   width="64"
   height="64"
   viewBox="0 0 16.933 16.933"
   version="1.1"
   id="svg5055"
   sodipodi:docname="folder-html.svg"
   inkscape:version="1.2.2 (732a01da63, 2022-12-09, custom)"
   xmlns:inkscape="http://www.inkscape.org/namespaces/inkscape"
   xmlns:sodipodi="http://sodipodi.sourceforge.net/DTD/sodipodi-0.dtd"
   xmlns="http://www.w3.org/2000/svg"
   xmlns:svg="http://www.w3.org/2000/svg">
  <sodipodi:namedview
     id="namedview5057"
     pagecolor="#505050"
     bordercolor="#eeeeee"
     borderopacity="1"
     inkscape:showpageshadow="0"
     inkscape:pageopacity="0"
     inkscape:pagecheckerboard="0"
     inkscape:deskcolor="#505050"
     showgrid="false"
     inkscape:zoom="11.445496"
     inkscape:cx="22.541619"
     inkscape:cy="35.865637"
     inkscape:window-width="1920"
     inkscape:window-height="1048"
     inkscape:window-x="0"
     inkscape:window-y="0"
     inkscape:window-maximized="1"
     inkscape:current-layer="svg5055" />
  <defs
     id="defs5035">
    <linearGradient
       id="a"
       x1="6.879"
       x2="6.879"
       y1="285.36"
       y2="283.77"
       gradientTransform="translate(0 -280.06) scale(.99998)"
       gradientUnits="userSpaceOnUse">
      <stop
         offset="0"
         id="stop5004" />
      <stop
         stop-opacity="0"
         offset="1"
         id="stop5006" />
    </linearGradient>
    <linearGradient
       id="b"
       x1="445.28"
       x2="445.28"
       y1="179.28"
       y2="200.07"
       gradientTransform="matrix(.38956 0 0 .38184 -165.52 -63.44)"
       gradientUnits="userSpaceOnUse">
      <stop
         stop-color="#60c0f0"
         offset="0"
         id="stop5009" />
      <stop
         stop-color="#83d4fb"
         offset="1"
         id="stop5011" />
    </linearGradient>
    <linearGradient
       id="c"
       x1="8.467"
       x2="8.467"
       y1="293.3"
       y2="292.77"
       gradientTransform="translate(0 -280.07)"
       gradientUnits="userSpaceOnUse">
      <stop
         stop-color="#008ea2"
         stop-opacity=".25"
         offset="0"
         id="stop5014" />
      <stop
         stop-color="#fff"
         stop-opacity=".15"
         offset="1"
         id="stop5016" />
    </linearGradient>
    <linearGradient
       id="d"
       x1="8.467"
       x2="8.467"
       y1="294.62"
       y2="293.56"
       gradientTransform="translate(0 -280.06) scale(.99998)"
       gradientUnits="userSpaceOnUse">
      <stop
         stop-color="#008ea2"
         stop-opacity=".251"
         offset="0"
         id="stop5019" />
      <stop
         stop-color="#008ea2"
         stop-opacity=".15"
         offset=".757"
         id="stop5021" />
      <stop
         stop-color="#fff"
         stop-opacity=".15"
         offset="1"
         id="stop5023" />
    </linearGradient>
    <linearGradient
       id="e"
       x1="1.058"
       x2="15.875"
       y1="289.59"
       y2="289.59"
       gradientTransform="translate(0 -280.07)"
       gradientUnits="userSpaceOnUse">
      <stop
         stop-color="#46a2d7"
         stop-opacity=".5"
         offset="0"
         id="stop5026" />
      <stop
         stop-color="#46a2d7"
         stop-opacity="0"
         offset=".108"
         id="stop5028" />
      <stop
         stop-color="#46a2d7"
         stop-opacity=".096"
         offset=".894"
         id="stop5030" />
      <stop
         stop-color="#46a2d7"
         stop-opacity=".5"
         offset="1"
         id="stop5032" />
    </linearGradient>
    <linearGradient
       id="linearGradient5852"
       x1="19.306999"
       x2="19.306999"
       y1="24.990999"
       y2="15.954"
       gradientUnits="userSpaceOnUse"
       gradientTransform="matrix(0.38381141,0,0,0.38381141,19.735008,-3.6254232)">
      <stop
         stop-color="#009ef8"
         offset="0"
         id="stop7492"
         style="stop-color:#0099e6;stop-opacity:1;" />
      <stop
         stop-color="#27affa"
         offset="1"
         id="stop7494"
         style="stop-color:#037bb9;stop-opacity:1;" />
    </linearGradient>
    <linearGradient
       id="linearGradient1769-9"
       x1="445.28"
       x2="445.28"
       y1="179.28"
       y2="200.07001"
       gradientTransform="matrix(0.38803334,0,0,0.38034944,-141.28924,-63.06246)"
       gradientUnits="userSpaceOnUse">
      <stop
         stop-color="#3ab8fb"
         offset="0"
         id="stop7487"
         style="stop-color:#47beff;stop-opacity:1;" />
      <stop
         stop-color="#60c4fb"
         offset="1"
         id="stop7489"
         style="stop-color:#87cefb;stop-opacity:1;" />
    </linearGradient>
  </defs>
  <g
     id="g7740"
     transform="translate(-23.498952,-0.7195244)">
    <path
       d="m 25.787329,2.4982877 h 2.684455 c 0.747818,0 0.779943,0.028386 1.536089,0.6271479 0.778523,0.5881142 0.944099,0.5416346 1.856343,0.5416346 h 6.387773 c 0.635516,-0.00498 1.147212,0.5224058 1.147212,1.1579206 V 13.65035 c 0,0.635515 -0.511619,1.147212 -1.147212,1.147212 H 25.788098 c -0.635516,0 -1.147175,-0.511659 -1.147175,-1.147212 V 3.6451546 c 0,-0.635515 0.511622,-1.1472123 1.147175,-1.1472123 z"
       fill="url(#linearGradient5852)"
       stroke-width="0.996067"
       id="path7509"
       style="opacity:0.6;fill:url(#linearGradient5852)" />
    <rect
       x="24.638968"
       y="5.2022386"
       width="14.759083"
       height="9.5952845"
       rx="1.1472123"
       ry="1.1243756"
       fill="url(#linearGradient1769-9)"
       stroke-width="0.996067"
       id="rect7511"
       style="opacity:0.6;fill:url(#linearGradient1769-9)" />
    <path
       d="m 25.786179,5.0867118 c -0.508014,0 -0.945328,0.2958841 -1.145447,0.7219109 v 0.4895131 c 0.01544,-0.6095309 0.51968,-1.0959736 1.145447,-1.0959736 h 12.465043 c 0.635553,0 1.146943,0.5015265 1.146943,1.1244524 v 7.3465324 c 1.46e-4,-0.0075 0.0015,-0.0149 0.0015,-0.02248 V 5.8147675 C 39.200901,5.3854745 38.761614,5.0868692 38.251222,5.0868692 H 25.786179 Z m 13.611872,8.5862452 c 0,0.03363 -0.0023,0.06685 -0.0052,0.0997 0.0035,-0.03276 0.0046,-0.06616 0.0052,-0.0997 z"
       color="#000000"
       fill="#000000"
       opacity="0.08"
       stroke-linecap="round"
       stroke-linejoin="round"
       id="path7515"
       style="opacity:0.6;fill:#ffffff;stroke-width:0.964668;stroke-dasharray:none" />
    <path
       d="M 25.787714,2.4982877 C 25.152505,2.4987099 24.64077,3.0099467 24.64077,3.6452313 V 13.650427 c 0,0.635553 0.512158,1.146944 1.147673,1.146944 h 12.463508 c 0.635591,0 1.147672,-0.511429 1.147672,-1.146944 V 4.8250675 c 0,-0.6354765 -0.512158,-1.1631787 -1.147672,-1.1581892 h -6.387774 c -0.912243,0 -1.07755,0.046131 -1.856073,-0.5419801 C 29.251958,2.526114 29.219947,2.498211 28.47209,2.498211 h -2.683686 -7.67e-4 z m 0,0.1146945 h 7.67e-4 2.683686 c 0.372458,0 0.547239,0.00783 0.720414,0.08021 0.173146,0.072376 0.366241,0.2230481 0.744403,0.5224825 a 0.11515493,0.11515493 0 0 0 0.0015,0.00149 c 0.393561,0.297304 0.646225,0.4440698 0.920535,0.5112367 0.27434,0.067178 0.551114,0.053972 1.005239,0.053972 h 6.387774 a 0.11515493,0.11515493 0 0 0 0.0015,0 c 0.571341,-0.00448 1.030725,0.4690559 1.030725,1.0427388 v 8.8253598 c 0,0.573722 -0.458425,1.031492 -1.032261,1.031492 H 25.788481 c -0.573721,0 -1.032261,-0.457734 -1.032261,-1.031492 V 3.6452812 c 0,-0.5734909 0.458079,-1.0318385 1.031494,-1.0322608 z"
       color="#000000"
       fill="#000000"
       opacity="0.1"
       stroke-linecap="round"
       stroke-linejoin="round"
       style="opacity:0.6;fill:#ffffff;fill-opacity:1;stroke-width:0.964668;stroke-dasharray:none;paint-order:stroke fill markers"
       id="path7517" />
    <path
       d="m 25.760625,5.1379968 c -0.508315,0 -0.945889,0.2960597 -1.146127,0.7223391 v 0.4898036 c 0.01545,-0.6098926 0.519989,-1.0966237 1.146127,-1.0966237 h 12.472438 c 0.63593,0 1.147624,0.5018239 1.147624,1.1251194 v 7.3508938 c 1.45e-4,-0.0076 0.0014,-0.0149 0.0014,-0.0225 V 5.8664843 c -0.198818,-0.4295476 -0.638365,-0.72833 -1.14906,-0.72833 H 25.760625 Z m 13.619947,8.5913382 c 0,0.03364 -0.0024,0.06688 -0.0052,0.09976 0.0035,-0.03277 0.0046,-0.0662 0.0052,-0.09976 z"
       color="#000000"
       fill="#000000"
       opacity="0.08"
       stroke-linecap="round"
       stroke-linejoin="round"
       id="path7515-3"
       style="opacity:0.5;fill:#ffffff;stroke-width:0.96524;stroke-dasharray:none" />
    <path
       d="m 25.762161,2.5480371 c -0.635585,4.225e-4 -1.147624,0.5119626 -1.147624,1.1476242 V 13.706792 c 0,0.63593 0.512462,1.147624 1.148353,1.147624 h 12.470902 c 0.635969,0 1.148354,-0.511732 1.148354,-1.147624 V 4.8761974 c 0,-0.6358536 -0.512462,-1.1638688 -1.148354,-1.1588763 h -6.391563 c -0.912784,0 -1.07819,0.046158 -1.857174,-0.5423018 C 29.228459,2.57588 29.19643,2.5479604 28.44813,2.5479604 h -2.685278 -7.68e-4 z m 0,0.1147625 h 7.68e-4 2.685278 c 0.372679,0 0.547563,0.00784 0.720841,0.080256 0.173248,0.072418 0.366458,0.2231805 0.744844,0.5227924 a 0.11522324,0.11522324 0 0 0 0.0015,0.0015 c 0.393794,0.2974805 0.646607,0.4443332 0.92108,0.5115401 0.274503,0.067218 0.551441,0.054004 1.005836,0.054004 h 6.391563 a 0.11522324,0.11522324 0 0 0 0.0015,0 c 0.571681,-0.00448 1.031338,0.4693341 1.031338,1.0433573 v 8.8305956 c 0,0.574061 -0.458696,1.032105 -1.032872,1.032105 H 25.762929 c -0.574062,0 -1.032873,-0.458005 -1.032873,-1.032105 V 3.6957112 c 0,-0.5738313 0.45835,-1.0324508 1.032105,-1.0328733 z"
       color="#000000"
       fill="#000000"
       opacity="0.1"
       stroke-linecap="round"
       stroke-linejoin="round"
       style="opacity:0.5;fill:#ffffff;fill-opacity:1;stroke-width:0.96524;stroke-dasharray:none;paint-order:stroke fill markers"
       id="path7517-6" />
  </g>
  <path
     class="ColorScheme-Text"
     d="M8.466 6.085a3.175 3.175 0 0 0-.06.003 3.175 3.175 0 0 0-.015.001 3.242 3.242 0 0 0-.011 0 3.175 3.175 0 0 0-.039.003 3.175 3.175 0 0 0-.267.02 3.175 3.175 0 0 0-.04.007 3.175 3.175 0 0 0-.264.047 3.175 3.175 0 0 0-.063.015 3.175 3.175 0 0 0-.252.073 3.175 3.175 0 0 0-.03.011 3.175 3.175 0 0 0-.272.108 3.175 3.175 0 0 0-.006.003 3.175 3.175 0 0 0-.274.141 3.175 3.175 0 0 0-.013.009 3.175 3.175 0 0 0-.255.166 3.175 3.175 0 0 0-.006.004 3.175 3.175 0 0 0-.235.19 3.175 3.175 0 0 0-.028.026 3.175 3.175 0 0 0-.199.195 3.175 3.175 0 0 0-.025.028 3.175 3.175 0 0 0-.182.22 3.175 3.175 0 0 0-.01.015 3.175 3.175 0 0 0-.163.242 3.175 3.175 0 0 0-.024.04 3.175 3.175 0 0 0-.125.233 3.175 3.175 0 0 0-.025.055 3.175 3.175 0 0 0-.101.247 3.175 3.175 0 0 0-.01.028 3.175 3.175 0 0 0-.08.265 3.175 3.175 0 0 0-.026.107h.002a3.175 3.175 0 0 0-.007.034 3.175 3.175 0 0 0-.038.22 3.175 3.175 0 0 0-.013.107 3.175 3.175 0 0 0-.016.245 3.175 3.175 0 0 0-.002.067 3.175 3.175 0 0 0 1.82 2.867 3.175 3.175 0 0 0 .004.003 3.175 3.175 0 0 0 .155.069 3.175 3.175 0 0 0 .003.002 3.175 3.175 0 0 0 .245.086 3.175 3.175 0 0 0 .062.02 3.175 3.175 0 0 0 .214.052 3.175 3.175 0 0 0 .102.023 3.175 3.175 0 0 0 .204.028 3.175 3.175 0 0 0 .11.014 3.175 3.175 0 0 0 .256.011 3.175 3.175 0 0 0 .262-.012v-.001a3.175 3.175 0 0 0 .006 0 3.175 3.175 0 0 0 .292-.04 3.175 3.175 0 0 0 .022-.003 3.175 3.175 0 0 0 .005 0 3.175 3.175 0 0 0 .304-.074 3.175 3.175 0 0 0 1.45-.906 3.175 3.175 0 0 0 .008-.009 3.175 3.175 0 0 0 .079-.084 3.175 3.175 0 0 0 0-.002l-.005.003a3.175 3.175 0 0 0 .752-2.047 3.175 3.175 0 0 0-.104-.79h.001a3.175 3.175 0 0 0-.008-.025 3.175 3.175 0 0 0-.002-.006 3.175 3.175 0 0 0-.077-.246 3.175 3.175 0 0 0-.017-.047 3.175 3.175 0 0 0-.437-.796 3.175 3.175 0 0 0-.011-.015 3.175 3.175 0 0 0-.01-.012 3.175 3.175 0 0 0-.41-.44 3.175 3.175 0 0 0-.02-.015 3.175 3.175 0 0 0-.003-.004 3.175 3.175 0 0 0-.224-.177 3.175 3.175 0 0 0-.028-.02 3.175 3.175 0 0 0-.229-.146 3.175 3.175 0 0 0-.035-.021 3.175 3.175 0 0 0-1.561-.415zm0 .397a2.778 2.778 0 0 1 .01 0c-.002.05-.01.097-.01.146 0 .39.05.77.135 1.135-.44.372-.99.619-1.594.685.17-.723.512-1.377.977-1.923a2.778 2.778 0 0 1 .197-.025 2.778 2.778 0 0 1 .084-.01 2.778 2.778 0 0 1 .202-.008zm.404.033a2.778 2.778 0 0 1 .007.001 2.778 2.778 0 0 1 .265.053 2.778 2.778 0 0 1 .001 0 2.778 2.778 0 0 1 .265.081 2.778 2.778 0 0 1 .01.003c-.121.284-.282.546-.48.776a4.635 4.635 0 0 1-.075-.801c0-.038.006-.075.007-.113zm-1.532.21a4.938 4.938 0 0 0-.743 1.737 2.962 2.962 0 0 1-.747-.12 2.778 2.778 0 0 1 .102-.251 2.778 2.778 0 0 1 .008-.017 2.778 2.778 0 0 1 .123-.232 2.778 2.778 0 0 1 .004-.006 2.778 2.778 0 0 1 .152-.228 2.778 2.778 0 0 1 .175-.213 2.778 2.778 0 0 1 .004-.004 2.778 2.778 0 0 1 .191-.19 2.778 2.778 0 0 1 .01-.008 2.778 2.778 0 0 1 .204-.167 2.778 2.778 0 0 1 .012-.008 2.778 2.778 0 0 1 .222-.147 2.778 2.778 0 0 1 .006-.003 2.778 2.778 0 0 1 .243-.127 2.778 2.778 0 0 1 .034-.015zm2.44.087a2.778 2.778 0 0 1 .002.002 2.778 2.778 0 0 1 .236.142 2.778 2.778 0 0 1 .198.148 2.778 2.778 0 0 1 .024.018 2.778 2.778 0 0 1 .003.002 2.778 2.778 0 0 1 .179.164 2.778 2.778 0 0 1 .023.021 2.778 2.778 0 0 1 .002.003 2.778 2.778 0 0 1 .133.148 2.778 2.778 0 0 1 .055.063 2.778 2.778 0 0 1 .103.14 2.778 2.778 0 0 1 .06.085 2.778 2.778 0 0 1 .116.2 2.778 2.778 0 0 1 .02.033 2.778 2.778 0 0 1 0 .002 2.778 2.778 0 0 1 .095.205 2.778 2.778 0 0 1 .02.045 2.778 2.778 0 0 1 .002.005 2.778 2.778 0 0 1 .062.181 2.778 2.778 0 0 1 .03.09 3.358 3.358 0 0 0-1.527.64 4.586 4.586 0 0 1-.57-1.255c.31-.307.56-.674.734-1.082zM8.714 8.176c.143.44.344.854.596 1.231a3.368 3.368 0 0 0-.975 1.767 4.58 4.58 0 0 1-1.281-.419 4.617 4.617 0 0 1-.175-1.244c0-.225.022-.444.053-.66a3.351 3.351 0 0 0 1.782-.675zm-2.972.542c.252.075.515.125.788.138a5.023 5.023 0 0 0-.048.655c0 .333.035.659.097.974a4.578 4.578 0 0 1-.844-.725 2.778 2.778 0 0 1-.027-.2 2.778 2.778 0 0 1-.01-.088 2.778 2.778 0 0 1-.01-.212 2.778 2.778 0 0 1 .015-.277 2.778 2.778 0 0 1 .04-.265zm5.476.18a2.778 2.778 0 0 1 .023.263 2.778 2.778 0 0 1 .004.1 2.778 2.778 0 0 1-.28 1.207 2.778 2.778 0 0 1-.01.02 4.651 4.651 0 0 1-1.11-1.018 2.962 2.962 0 0 1 1.373-.573zm-1.672.829c.34.431.752.8 1.214 1.1a2.778 2.778 0 0 1 0 .002 2.778 2.778 0 0 1-.113.147 4.59 4.59 0 0 1-1.532.269c-.13 0-.258-.01-.386-.02.122-.58.412-1.097.817-1.498zm-3.532.834c.22.176.456.335.706.471.059.186.13.366.21.541a2.778 2.778 0 0 1-.002-.001 2.778 2.778 0 0 1-.21-.156 2.778 2.778 0 0 1-.012-.01 2.778 2.778 0 0 1-.204-.185 2.778 2.778 0 0 1-.186-.206 2.778 2.778 0 0 1-.164-.223 2.778 2.778 0 0 1-.138-.231zm1.213.71c.335.136.689.234 1.055.295-.007.09-.014.181-.014.274 0 .064.005.126.009.189a2.778 2.778 0 0 1-.004 0 2.778 2.778 0 0 1-.735-.154 2.778 2.778 0 0 1-.003-.001 4.315 4.315 0 0 1-.308-.604zm2.802.283a2.778 2.778 0 0 1-.001.001 2.778 2.778 0 0 1-.231.14 2.778 2.778 0 0 1-.005.004 2.778 2.778 0 0 1-.002 0 2.778 2.778 0 0 1-.212.104 2.778 2.778 0 0 1-.052.022 2.778 2.778 0 0 1-.204.075 2.778 2.778 0 0 1-.057.018 2.778 2.778 0 0 1-.191.05 2.778 2.778 0 0 1-.086.02 2.778 2.778 0 0 1-.179.025 2.778 2.778 0 0 1-.132.017c-.005-.063-.012-.126-.012-.19 0-.075.006-.147.011-.22a4.83 4.83 0 0 0 1.353-.066z"
     color="#363636"
     opacity=".15"
     id="path5053" />
</svg>
