<svg width="64" height="64" version="1.1" viewBox="0 0 16.933 16.933" xmlns="http://www.w3.org/2000/svg">
 <defs>
  <linearGradient id="linearGradient1769" x1="445.28" x2="445.28" y1="179.28" y2="200.07" gradientTransform="matrix(.38956 0 0 .38184 -165.52 216.63)" gradientUnits="userSpaceOnUse">
   <stop stop-color="#60c0f0" offset="0"/>
   <stop stop-color="#83d4fb" offset="1"/>
  </linearGradient>
  <linearGradient id="linearGradient860" x1="8.4667" x2="8.4667" y1="293.3" y2="292.77" gradientUnits="userSpaceOnUse">
   <stop stop-color="#008ea2" stop-opacity=".25" offset="0"/>
   <stop stop-color="#fff" stop-opacity=".15" offset="1"/>
  </linearGradient>
  <linearGradient id="linearGradient868" x1="8.4667" x2="8.4667" y1="294.62" y2="293.56" gradientTransform="matrix(3.7795 0 0 3.7795 0 -1058.5)" gradientUnits="userSpaceOnUse">
   <stop stop-color="#008ea2" stop-opacity=".25098" offset="0"/>
   <stop stop-color="#008ea2" stop-opacity=".15" offset=".75678"/>
   <stop stop-color="#fff" stop-opacity=".15" offset="1"/>
  </linearGradient>
  <linearGradient id="linearGradient897" x1="6.8792" x2="6.8792" y1="285.36" y2="283.77" gradientTransform="matrix(3.7795 0 0 3.7795 0 -1058.5)" gradientUnits="userSpaceOnUse">
   <stop offset="0"/>
   <stop stop-opacity="0" offset="1"/>
  </linearGradient>
  <linearGradient id="linearGradient907" x1="1.0583" x2="15.875" y1="289.59" y2="289.59" gradientUnits="userSpaceOnUse">
   <stop stop-color="#46a2d7" stop-opacity=".5" offset="0"/>
   <stop stop-color="#46a2d7" stop-opacity="0" offset=".10783"/>
   <stop stop-color="#46a2d7" stop-opacity=".095808" offset=".89398"/>
   <stop stop-color="#46a2d7" stop-opacity=".5" offset="1"/>
  </linearGradient>
  <filter id="filter903" x="-.054628" y="-.066543" width="1.1093" height="1.1331" color-interpolation-filters="sRGB">
   <feGaussianBlur stdDeviation="0.33725977"/>
  </filter>
 </defs>
 <path d="m2.2099 2.5197c-0.63806 0-1.1513 0.51331-1.1513 1.1513v2.082c-8e-6 2e-3 -5.17e-4 3e-3 -5.17e-4 5e-3v7.7968c0 0.62536 0.5138 1.1286 1.1518 1.1286h12.513c0.63804 0 1.1518-0.50324 1.1518-1.1286v-8.6996c0-0.63797-0.51384-1.1568-1.1518-1.1518l-6.4124 0.0527c-0.91581 0-1.0823-0.0168-1.8639-0.60718-0.75908-0.60112-0.79125-0.62941-1.542-0.62941z" filter="url(#filter903)" opacity=".25"/>
 <g transform="translate(0 -280.07)">
  <path d="m2.21 282.45h2.695c0.75074 0 0.78302 0.0285 1.5421 0.62962 0.78159 0.5904 0.94779 0.607 1.8636 0.607l6.4126-0.0524c0.638-5e-3 1.1517 0.51363 1.1517 1.1516v6.77c0 0.63802-0.51364 1.1517-1.1517 1.1517h-12.513c-0.63802 0-1.1517-0.51364-1.1517-1.1517v-7.9542c0-0.63802 0.51364-1.1517 1.1517-1.1517z" fill="#46a2d7"/>
  <path transform="matrix(.26458 0 0 .26458 0 280.07)" d="m8.3535 9c-2.4114 0-4.3535 1.9421-4.3535 4.3535v10.646h56v-6.1719c0-2.4114-1.9422-4.3705-4.3535-4.3516l-24.236 0.19727c-3.4614 0-4.0889-0.063489-7.043-2.2949-2.869-2.2719-2.9907-2.3789-5.8281-2.3789h-10.186z" fill="url(#linearGradient897)" opacity=".25"/>
  <rect x="1.0583" y="284.56" width="14.817" height="10.054" rx="1.1517" ry="1.1288" fill="url(#linearGradient1769)"/>
  <rect x="1.0583" y="292.77" width="14.817" height=".52915" fill="url(#linearGradient860)"/>
  <path transform="matrix(.26458 0 0 .26458 0 280.07)" d="m4.0273 51c0.14181 2.2363 2.0077 4 4.3262 4h47.293c2.3184 0 4.1844-1.7637 4.3262-4h-55.945z" fill="url(#linearGradient868)"/>
  <rect x="1.0583" y="284.56" width="14.817" height="10.054" rx="1.1517" ry="1.1288" fill="url(#linearGradient907)"/>
  <path transform="matrix(.26458 0 0 .26458 0 280.07)" d="m8.3535 17c-2.4114 0-4.3535 1.902-4.3535 4.2656v0.88867c0-2.3014 1.9421-4.1543 4.3535-4.1543h47.293c2.4114 0 4.3535 1.8529 4.3535 4.1543v-0.88867c0-2.3636-1.9421-4.2656-4.3535-4.2656h-47.293z" fill="#fff" opacity=".1"/>
 </g>
 <path d="m8.4669 6.6065c-0.10077 0-0.20223 0.00837-0.30031 0.018275-0.19615 0.019805-0.38133 0.052636-0.56382 0.10916-0.91244 0.28261-1.6363 1.0065-1.9189 1.9189-0.056522 0.18249-0.089357 0.36792-0.10916 0.56407-0.0099 0.09808-0.018275 0.19929-0.018275 0.30006s0.00837 0.20199 0.018275 0.30006c0.0198 0.19615 0.052636 0.38158 0.10916 0.56407 0.28261 0.91244 1.0065 1.6363 1.9189 1.9189 0.18249 0.05652 0.36767 0.08936 0.56382 0.10916 0.098077 0.0099 0.19954 0.01828 0.30031 0.01828s0.20199-0.0084 0.30006-0.01828c0.19615-0.01979 0.38133-0.05264 0.56382-0.10916 0.18227-0.05669 0.36256-0.13785 0.52752-0.22746 0.65992-0.3576 1.1656-0.96151 1.3916-1.6915 0.05652-0.18249 0.08936-0.36791 0.10916-0.56407 0.0099-0.09808 0.01803-0.19929 0.01803-0.30006 0-0.10046-0.0081-0.20222-0.01803-0.30006-0.0198-0.19615-0.05264-0.38158-0.10916-0.56407-0.11305-0.36498-0.29978-0.70406-0.53666-0.99132-0.059313-0.07187-0.12507-0.13421-0.1909-0.20004-0.26303-0.26303-0.57028-0.48065-0.91871-0.62754-0.087049-0.036818-0.18176-0.071675-0.2729-0.10002-0.18249-0.056523-0.36767-0.089357-0.56382-0.10916-0.098076-0.0099-0.19929-0.018275-0.30006-0.018275zm0 0.29117c0.44043 0 0.85448 0.10802 1.2188 0.30006 0.00963 0.00508 0.017611 0.013085 0.027164 0.018275 0.00737 0.00976 0.00532 0.020024 0.018275 0.027164 0.00952 0.0053 0.018203 0.013529 0.027164 0.018275 0.015336 0.00847 0.030586 0.021477 0.027413 0.036302-0.00421 0.021682-0.039766 0.020426-0.054579 0.036302 0.00205 0.030682-0.010361 0.025061-0.018275 0.045688 0.00478 0.013243 0.016182 0.011303 0.018275 0.027164-0.00263 0.016937-0.024636 0.018848-0.018275 0.036302 0.028579 0.022237 0.055007 0.00368 0.081992 0 0.059262-0.00742 0.10895 0.00139 0.14546-0.027164-0.00387-0.022638 0.017654-0.029071 0.027164-0.045444 0.019317 0.013544 0.035652 0.031399 0.054579 0.045444-0.01112 0.00478-0.035384 0.011929-0.045444 0.018275-0.014815 0.010041-0.019355 0.0252-0.036302 0.036302-0.012168 0.00847-0.041879 0.036302-0.054579 0.036302-0.015336 0-0.043465-0.012831-0.054579-0.00914-0.015891 0.00478-0.00946 0.030204-0.027413 0.036551-0.034921 0.012689-0.09699-0.034328-0.10916 0.018026 0.014815 0.030151 0.064674 0.020158 0.09113 0.03655 0.016416 0.010595 0.04121 0.063759 0.045444 0.081746 0.00421 0.014815 0.00635 0.065878 0 0.081745-0.016416 0.042319-0.060482 0.037612-0.10916 0.036551-0.013243 0-0.024125 0.00115-0.036302 0-0.082012-0.0053-0.16325-0.031547-0.20029 0.027164 0.00263 0.044961 0.010069 0.070014 0 0.10916-0.00739 0.02855-0.037894 0.047991-0.036302 0.072855 5.687e-4 0.012689 0.024239 0.037119 0.027413 0.054579 0.00205 0.00952-0.00425 0.027857 0 0.036302 0.013769 0.025931 0.048268-0.00421 0.072607 0 0.023284 0.00368 0.045444 0.037798 0.045444 0.063717 0 0.018509-0.00639 0.054621-0.018027 0.072608-0.023284 0.034911-0.066685 0.026643-0.10002 0.045688-0.027504 0.015862-0.038175 0.054236-0.054579 0.081745-0.017463 0.029621-0.034304 0.039676-0.027413 0.081993-0.023809 0.047078-0.050814 0.077273-0.10002 0.10002-0.014289 0.00635-0.032216 0.017649-0.045444 0.027164-0.010595 0.00739-0.021477 0.019355-0.036307 0.036302-0.018509 0.02064-0.044527 0.02982-0.054579 0.04569-0.00742 0.01217-0.00119 0.03794-0.00914 0.05433-0.011642 0.02224-0.030629 0.0415-0.045444 0.06372-0.00687 0.0106-0.020019 0.02277-0.027413 0.03655-0.016937 0.03068-0.03948 0.05477-0.036302 0.08175 0.00263 0.02593 0.03472 0.03183 0.036302 0.05458 0.00143 0.01269-0.00966 0.02255-0.00914 0.0363 5.687e-4 0.02011 0.00757 0.02957 0.00914 0.04544 0.00368 0.03914-0.019776 0.05501-0.027164 0.08199-0.00368 0.01269 0.00315 0.02626 0 0.0363-0.00635 0.01958-0.03602 0.0313-0.03655 0.05458-5.687e-4 0.01642 0.025841 0.03132 0.027413 0.05458 0.00115 0.01586-0.012311 0.03063-0.00914 0.04544 0.00582 0.02858 0.059772 0.06891 0.081992 0.09113 0.030161 0.03016 0.059383 0.05 0.072607 0.08174 0.011116 0.02698 0.015685 0.07078 0.036306 0.09088 0.015336 0.01482 0.044139 0.02122 0.063717 0.03655 0.018509 0.01429 0.044139 0.02096 0.063717 0.03631 0.032278 0.02541 0.076106 0.07631 0.12743 0.07261 0.026978-0.0021 0.051585-0.01276 0.081746-0.01803 0.031217-0.0053 0.068274-0.02145 0.10002-0.01828 0.02433 0.0026 0.047456 0.01988 0.072855 0.01828 0.026457-0.0015 0.060726-0.0142 0.090883-0.02741 0.052385-0.02276 0.13299-0.06569 0.20918-0.05458 0.0582 0.0085 0.05928 0.0741 0.10002 0.10002 0.04656 0.0042 0.08126-9e-3 0.1183 0 0.02806 0.0069 0.06107 0.05978 0.06372 0.08199 0.0026 0.02276-0.0151 0.0403-0.01828 0.05458-0.0074 0.03068-0.01301 0.07131-0.01827 0.09088-0.0042 0.01534-0.0094 0.0301-0.0089 0.04544 0 0.01377 0.022 0.04573 0.03631 0.06372 0.01746 0.02224 0.04255 0.03938 0.06372 0.06372 0.03863 0.04444 0.05476 0.10502 0.08175 0.16374 0.0069 0.01482-0.0064 0.01778 0 0.0363-0.01164 0.08887-0.04182 0.14709-0.10002 0.24548-0.0275 0.03174-0.05511 0.06949-0.05458 0.10916-0.0021 0.09522 0.04968 0.14455 0.04544 0.23659-0.0095 0.12378 4.3e-4 0.14306-0.0091 0.20918 0.0418 0.02116 0.02131 0.08328 0.0091 0.12719-0.01798 0.05237-0.03539 0.06536-0.04544 0.10027 0.0217 0.0094 0.03993 0.01154 0.06372 0.0089-0.47657 0.49547-1.15 0.80041-1.8918 0.80041-0.34721 0-0.6792-0.06822-0.98243-0.1909-9.989e-4 -2.53e-4 9.988e-4 -0.0087 0-0.0091 0.027503-0.01165 0.080163 0.02035 0.10027-0.01827 0.010069-0.01851-0.013243-0.05409 0-0.07261 0.00951-0.01269 0.071308-0.02424 0.090883-0.02741 0.028058-0.0048 0.056734 9.08e-4 0.072607-0.0091 0.017463-0.01112 0.039724-0.03981 0.03655-0.07261-0.00148-0.01534-0.015278-0.02257-0.027413-0.03631-0.010041-0.01164-0.00229-0.02595-0.00914-0.03655-0.012688-0.01851-0.031012-0.02757-0.036302-0.05458 0.038098-0.0074 0.090436 0.04278 0.14546 0.02741 0.025931-0.0074 0.069821-0.05766 0.081993-0.08199 0.00368-0.0074-0.00421-0.03644 0-0.04544 0.00478-0.01004 0.016425-0.01301 0.018026-0.01828 0.00368-0.01429-0.00315-0.01823 0-0.02717 0.00952-0.02698 0.038705-0.04415 0.054579-0.06372 0.012168-0.01481 0.025425-0.0301 0.036551-0.04544 0.012688-0.01642 0.018724-0.02201 0.027164-0.0363 0.00795-0.04814-0.029669-0.08512-0.018026-0.12743 0.012689-0.04761 0.081156-0.07833 0.12719-0.10002 0.015861-0.0074 0.032216-0.02242 0.045444-0.02717 0.031747-0.01112 0.07039-0.0077 0.10002-0.01828 0.049739-0.01799 0.066788-0.07281 0.09113-0.1183 0.011642-0.02116 0.025042-0.03924 0.027164-0.05458 0.00205-0.01376-0.00263-0.02956 0-0.04544 0.00263-0.01586 0.00492-0.02799 0.00914-0.04544 0.00582-0.02276 0.00914-0.06549 0.00914-0.09088 0-0.02116-0.00862-0.0264-0.00914-0.04544-0.00368-0.06877 0.020048-0.0716 0.045444-0.10916 0.012688-0.01851 0.018447-0.05049 0.027413-0.06371 0.042859-0.06347 0.1142-0.09463 0.10891-0.1909-0.00205-0.03174-0.013032-0.09911-0.036306-0.10916-0.013243-0.0058-0.04414-0.0018-0.063717-0.0091-0.062437-0.02328-0.10755-0.09473-0.17263-0.10002-0.013764-5.69e-4 -0.0212 5.69e-4 -0.036551 0-0.025405-5.69e-4 -0.053174-0.02424-0.081745-0.02741-0.017988-0.0021-0.053135 0.0053-0.063717 0-0.016416-0.0079-0.013955-0.03645-0.027164-0.04544-0.010595-0.0074-0.029043-0.01245-0.045444-0.01827-0.025931-0.01004-0.042696-0.0159-0.072855-0.01803-0.00951-5.69e-4 -0.034868 0.0015-0.045439 0-0.016416-0.0026-0.030099-0.0179-0.04544-0.02741-0.019035-0.01164-0.028612-0.0199-0.03655-0.0363 0.017463-0.05713-0.04294-0.0667-0.054579-0.10002-0.0053-0.01534 0.0053-0.04082 0-0.05458-0.00687-0.01959-0.023743-0.02905-0.045445-0.04544-0.038099-0.02962-0.072687-0.05684-0.12719-0.06372-0.02433-0.0026-0.052891 0.0021-0.081993 0-0.030686-0.0021-0.067603-0.019-0.090883-0.04544-0.022237-0.02593-0.025864-0.05155-0.045439-0.06372-0.01851-0.01164-0.051019-0.01503-0.063717-0.02716-0.00582-0.0053-0.00382-0.01528-0.00914-0.02741-0.00952-0.01906-0.029669-0.02218-0.018026-0.04544-0.021157-0.0106-0.013802 0.01339-0.036551 0.0091-0.020636-0.0291-0.035183-0.0453-0.081745-0.0363-0.021157 0.0042-0.038849 0.03577-0.063717 0.0363-0.020636 5.691e-4 -0.036732-0.0326-0.063718-0.0363-0.020636-0.0026-0.04943 0.0212-0.063717 0.01803-0.022758-0.0042-0.024818-0.03167-0.045439-0.04544-0.015336-0.01007-0.046113-0.03683-0.054579-0.0363-0.026457 5.69e-4 -0.045239 0.05588-0.081745 0.0363-0.017988-0.02276 0.030314-0.02429 0.00914-0.04544-0.015862-0.01586-0.023843 6.691e-4 -0.03655 0.0091-0.014815 0.01004-0.029042 0.02137-0.045439 0.02716-0.036512 0.01377-0.062312 0.01263-0.090883 0.02741-0.026457 0.01377-0.030099 0.03674-0.045439 0.06372-0.012167 0.02224-0.036058 0.05327-0.054579 0.05433-0.022237 0.0014-0.043609-0.02784-0.063717-0.0363-0.060848-0.02646-0.095197 0.01775-0.14546 0.01827-0.046562 5.73e-4 -0.11127-0.07439-0.10916-0.1183 0.00143-0.02698 0.015102-0.0667 0.018275-0.10002 0.00263-0.02646 0.026672-0.04852 0.027164-0.07286 5.735e-4 -0.03227-0.05169-0.05977-0.072855-0.06347-0.049739-9e-3 -0.11601 0.02224-0.17263 0-0.010595-0.01799 0.020822-0.02823 0.027164-0.04569 0.00368-0.01004-0.00368-0.01605 0-0.02716 0.00635-0.01694 0.028617-0.02746 0.03655-0.04544 0.00582-0.01377 0.00306-0.03765 0.00889-0.05458 0.00687-0.01906 0.025812-0.03168 0.027413-0.04544 0.00205-0.01798-0.013152-0.04294-0.027413-0.05458-0.04392 0.0026-0.074622 0.0065-0.10002 0.01803-0.057142 0.02593-0.042342 0.10031-0.10002 0.1183-0.019589 0.0063-0.050384 0.01458-0.072608 0.01828 0.037635-0.19042 0.096144-0.37264 0.17263-0.54579 0.02011 0.00368 0.037119 0.016674 0.054579 0.018275 0.04868 0.00368 0.050667-0.03342 0.090884-0.054579 0.041272 0.00582 0.0627-0.00421 0.10027 0 0.02541 0.00263 0.06164 0.03472 0.081745 0.036302 0.016937 5.688e-4 0.020426-0.020679 0.036302-0.018027 0.015862 0.00263 0.042796 0.035288 0.045439 0.054332 0.00263 0.023805-0.01579 0.046405-0.00889 0.072854 0.024885 0.025405 0.073707 0.039766 0.10916 0.054579 0.023284-0.01906 0.00368-0.063374 0-0.090883-5.735e-4 -0.012168 0.00143-0.02542 0-0.03655-0.00263-0.019035-0.00914-0.037936-0.00914-0.054332 0-0.075644 0.058363-0.10695 0.10916-0.13657 0.021683-0.012688 0.044421-0.03592 0.06347-0.045444 0.026978-0.013243 0.041492-0.014724 0.063717-0.027413 0.040211-0.022758 0.077939-0.046687 0.10916-0.072608 0.014289-0.034381-0.00143-0.075305 0-0.10916 0.014289-0.00899 0.020975 0.00143 0.036302 0 0.02433-0.0053 0.031929-0.040827 0.045688-0.054579 0.00795-0.00795 0.035905-0.010356 0.045439-0.018275 0.02433-0.019064 0.024268-0.046113 0.045444-0.054579 0.00742-0.00263 0.024646-0.00572 0.036302-0.00889 0.01589-0.00421 0.038323-0.018447 0.063717-0.027413 0.016416-0.00582 0.057367-0.00282 0.063717-0.00914 0.00795-0.00795-0.00206-0.042409 0-0.054579 0.012688-0.059774 0.10116-0.06164 0.1546-0.081746 0.037038-0.014289 0.077024-0.04424 0.1183-0.036302-0.00795 0.02855-0.043432 0.019943-0.03655 0.054332 0.00899 0.048138 0.06506-0.011159 0.081993-0.018026 0.032278-0.013764 0.093993-0.020957 0.13632-0.036302 0.037037-0.013214 0.098636-0.039145 0.063717-0.081993-0.029105-0.00206-0.038323 0.025721-0.063717 0.036302-0.017463 0.00263-0.021501-0.00784-0.036307-0.00889-0.014289-5.735e-4 -0.022003 0.011537-0.036302 0.00889-0.014289-0.00263-0.034433-0.028517-0.036551-0.045444-0.00582-0.044431 0.045731-0.058086 0.063717-0.090883-0.012168-0.040206-0.066158-0.00239-0.10002-0.018275 0.00368-0.023805 0.0174-0.049815 0.045444-0.054579 0.022758-0.00368 0.077126 0.00727 0.090883 0.018275 0.00795 0.00687-0.00301 0.025171 0.00914 0.036302 0.013764 0.012168 0.036589 0.00263 0.054579 0 0.00635-0.030151-0.041597-0.016731-0.036302-0.036302 0.035977-0.023284 0.10154-0.012454 0.14546-0.018275 0.025406-0.00368 0.050101-0.02413 0.072855-0.036302 0.021157-0.012168 0.041248-0.029253 0.06347-0.00914 0.00635 0.021683-0.01503 0.034333-0.027164 0.045439-0.040741 0.035967-0.077412 0.076509-0.10916 0.1183 0.019585 0.019064 0.048939 0.00544 0.081745 0.00914 0.012689 0.00148 0.03246 0.00704 0.045688 0.00914 0.01589 0.00263 0.032742-0.00263 0.045444 0 0.022237 0.0053 0.023221 0.036302 0.045444 0.036302 0.035981 0 0.038925-0.030247 0.018275-0.054579 0.00635-0.024885 0.017912-0.046257 0.00889-0.063717-0.016416-0.032799-0.07857 0.00547-0.081746-0.036302-0.00205-0.026457 0.026777-0.034476 0.036307-0.054579-0.00421-0.050781 0.041841-0.053999 0.036551-0.10002-0.00263-0.019064-0.023317-0.018332-0.03655-0.036302-0.00687-0.00952-0.010113-0.029673-0.018026-0.03655-0.027504-0.023284-0.078817-0.01903-0.081992-0.06347-0.00148-0.026457 0.00368-0.044292 0-0.072855-0.00369-0.026978-0.031314-0.10387-0.054585-0.10916-0.02963-0.00635-0.046295 0.047318-0.081745 0.063717-0.019035 0.00899-0.053279 0.01286-0.072855 0.00914-0.012689-0.00263-0.034715-0.012234-0.036301-0.03655-0.00129-0.014012 0.00325-0.018872 0.00914-0.027164 0.00139-0.00196-0.00143-0.00708 0-0.00914 0.23021-0.06622 0.47607-0.10008 0.72756-0.10008zm-1.0824 0.23635c-0.025821 0.082688-0.10052 0.13-0.20004 0.12743-0.02433 0.023284-0.013955 0.06775-0.027164 0.10002-0.011116 0.026978-0.045874 0.047561-0.072855 0.045444-0.019585-0.00148-0.054579-0.02693-0.054579-0.045444 0-0.015173 0.014758-0.032278 0.018275-0.045439 0.10712-0.069259 0.21926-0.12873 0.33637-0.18201zm2.2284 0.090883c-0.00975 0.00177-0.018581 0.00411-0.027164 0.00914-0.02011 0.012167-0.0212 0.030734-0.03655 0.036551-0.021683 0.00795-0.051404 0.00761-0.054579 0.027164-0.00263 0.016416 0.018829 0.021496 0.018275 0.036307-0.00795 0.019585-0.023164 0.021864-0.027413 0.045688 0.026978 0.043905 0.094101 4.3e-4 0.12743-0.00914 0.014815-0.00421 0.028369 0.00239 0.036302-0.00914 0.00899-0.014289 0.00225-0.043614 0.00914-0.063717 0.00742-0.022237 0.030061-0.016736 0.027413-0.036302-0.00206-0.019584-0.040049-0.039723-0.072855-0.03655zm-2.8831 0.33661c0.019398 0.023417 0.035642 0.05753 0 0.072855-0.0053 0.00263-0.069294 0.011785-0.081993 0.00914-0.00397-5.735e-4 -0.00535-0.00668-0.00889-0.00914 0.027814-0.027016 0.061894-0.047083 0.090883-0.072855zm0.072608 0.090883c0.012688 5.735e-4 0.021726 0.026366 0.03655 0.027413 0.014289 0.00115 0.036962-0.011785 0.045444-0.00914 0.022237 0.00582 0.030314 0.047318 0.00914 0.063717-0.017462 0.00206-0.023871-0.020923-0.03655-0.018275-0.035982 0.00635-0.045621 0.074971-0.072608 0.072855-0.025405-0.00263-0.044216-0.054339-0.018275-0.072855 5.735e-4 -0.01589-0.010218-0.020426-0.00914-0.036302 0.00795-0.010041 0.024263-0.028985 0.045439-0.027413zm-0.11805 0.018275c0.00742 0 0.00624-0.00315 0.00889 0-0.00368 0.028029-0.014628 0.032216-0.036302 0.045439-0.037569 0.022758-0.060437 0.051353-0.072608 0.10002-0.00368 0.014289-0.045726 0.058278-0.063717 0.054579-0.041802-0.00899 0.017649-0.087855 0.027164-0.10002 0.010595-0.013243 0.024392-0.021477 0.03655-0.036302 0.012167-0.014815 0.015556-0.046118 0.027164-0.054579 0.012688-0.00899 0.050634-0.010218 0.072855-0.00914zm3.5835 0.072855c0.0418-0.00263 0.0627 0.047212 0.08175 0.072608 0.01586 0.020636 0.06495 0.049433 0.09088 0.063717 0.01481 0.00795 0.02904 0.020019 0.04544 0.027413 0.0172 0.00767 0.04341 0.017649 0.06372 0.036302 0.02031 0.018657 0.03576 0.046792 0.03655 0.063717 5.74e-4 0.016937-0.01178 0.029573-0.0091 0.045444 0.01833 0.00296 0.02776-0.015843 0.0363-0.03655 0.06858 0.097827 0.1271 0.20244 0.18201 0.30945-0.01114 0.0069-0.01602 0.013535-0.01827 0.027164-0.0053 0.029621 0.01703 0.067566-0.02741 0.072855-0.02803 0.00368-0.0614-0.028101-0.10002-0.036551-0.01586-0.00368-0.04188 0.00421-0.05458 0-0.02911-0.010041-0.02057-0.046013-0.04545-0.06347-0.01429-0.010069-0.04985-0.024794-0.07261-0.027413-0.01429-0.00148-0.02175 0.00206-0.03655 0-0.01798-0.00206-0.0489-1.392e-4 -0.06372-0.00914-0.01429-0.00899-0.05063-0.024125-0.05433-0.036302-0.0058-0.019585 0.04438-0.047318 0.04544-0.063717 0.0012-0.012688-0.01563-0.017262-0.01827-0.036302-0.0021-0.011642 0.0026-0.028894 0-0.036302-0.0037-0.013763-0.02375-0.026887-0.04545-0.027413-0.01906 0-0.03818 0.00914-0.05458 0.00914-0.02328 5.687e-4 -0.07092-0.011785-0.10002-0.00914-0.01746 0.00148-0.02904 0.00809-0.04544 0.00914-0.04603 0.00368-0.07318-0.00263-0.10916 0-0.025931 0.00143-0.075681 0.016077-0.10002 0.027164-0.012168 0.00582-0.020674 0.019498-0.03655 0.027413-0.00739 0.00368-0.01762 0.00492-0.027164 0.00914-0.014815 0.00687-0.040292 0.02347-0.054579 0.027164-0.020636 0.0053-0.044426-0.00143-0.081993 0-0.026978 0.00148-0.072078-0.00406-0.072607-0.036302-5.687e-4 -0.049195 0.089764-0.027852 0.13632-0.036302 0.017463-0.00368 0.024268-0.024392 0.045444-0.03655 0.010069-0.00582 0.017898-0.011685 0.027413-0.018026 0.015862-0.011116 0.042796-0.03299 0.045444-0.045688 0.00206-0.011642-0.010739-0.027857-0.00914-0.036302 0.00205-0.011116 0.022022-0.022022 0.036302-0.036302 0.022237-0.022237 0.036201-0.049436 0.063717-0.063717 0.018509-0.010041 0.055251-0.012382 0.063717-0.027164 0.0021-0.016937-5.69e-4 -0.0212 0-0.03655 0.01164-0.010595 0.0088-0.015933 0.01827-0.018026 0.02858-0.00635 0.05755 0.01049 0.09088 0.00889 0.01429-5.735e-4 0.0301 0.00124 0.04544-0.00889 0.01269-0.00847 0.0236-0.021066 0.0363-0.027413 0.01377-0.00742 0.02874-0.026118 0.04569-0.027164zm-3.253 0.025191c0.00678-6.691e-4 0.012421-6.691e-4 0.015064 0.00196-0.00847 0.034916-0.090781 0.021855-0.1183 0.00914 7.217e-4 -0.00662 0.011274-0.00802 0.018275-0.00914 7e-3 -0.0011 0.018691 7.647e-4 0.027164 0 0.012168-5.735e-4 0.023322 0 0.03655 0 0.00662 0 0.014462-0.00129 0.021238-0.00196zm3.2659 0.062235c-7.65e-4 6.69e-4 -0.0013 0.00244-4e-3 0.00344-0.01746 0.00582-0.02593 0.040684 0 0.045439 0.01216-0.00739 0.01234-0.023222 0.0091-0.045439-0.0034-0.00368-0.0044-0.00411-0.0052-0.00344zm-3.4508 0.00344c0.00899 0 0.017649-0.00368 0.027164 0-0.02433 0.020636-0.057689 0.032216-0.10002 0.045439-0.02011 0.00635-0.050874 0.01307-0.054579-0.00914-0.00425-0.027504 0.018552-0.024545 0.03655-0.027164 0.023284-0.00263 0.063898-0.00861 0.090884-0.00914zm3.438 0.072855c-0.0085 0.00263-0.01845-6.691e-4 -0.02741 0.00889 5.69e-4 0.029621 0.0058 0.046935 0 0.072855 0.01694 0.032799 0.05525 0.01307 0.06372-0.00914 0.01007-0.055015-0.01091-0.079485-0.0363-0.072607zm0.22721 0.14546c-0.02328-0.00115-0.04082 0.00703-0.05458 0.018026 0.01959 0.031743 0.0561 0.03775 0.10002 0.045688 0.01586-0.011642 0.01088-0.043614 0.01828-0.063717-0.01906 0-0.0313 0.00115-0.05458 0zm-4.6202 1.1188c0.018586 0.02368 0.03873 0.0511 0.063717 0.06347 0.013243 0.0069 0.028507 0.0054 0.045439 0.0091 0.013768 0.0026 0.023083 0.01405 0.036302 0.01827 0.028058 0.0095 0.068909 8e-3 0.091131 0.01803 0.033865 0.01482 0.052641 0.0742 0.081745 0.09113 0.00143 0.01694-0.00529 0.03275 0 0.04544 0.013768 0.01851 0.041492 0.02415 0.063717 0.0363 0.026978 0.01482 0.038323 0.05208 0.063717 0.06372 0.00899 0.0037 0.022528-0.0042 0.036302 0 0.034921 0.0106 0.042696 0.06357 0.072854 0.05458 0.019584-0.0058 0.023995-0.03554 0.027164-0.05458 0.013243-0.01429 0.024789-0.0363 0.045439-0.0363 0.032804-5.68e-4 0.042409 0.04035 0.054579 0.07261 0.00687 0.01799 0.022667 0.03554 0.027413 0.05458 0.00795 0.0328 0.00687 0.12589 0 0.14546-0.00847 0.02433-0.043609 0.03727-0.063717 0.06372-0.00951 0.01269-0.020019 0.0281-0.027413 0.03655-0.012688 0.01586-0.026768 0.02203-0.036301 0.0363-0.0053 0.0079-0.0044 0.0252-0.00914 0.0363-0.01589 0.03386-0.040402 0.05929-0.027164 0.10002 0.0053 0.01642 0.027164 0.03501 0.027164 0.05458 0 0.02328-0.050875 0.02919-0.054579 0.05458-0.00263 0.01851 0.02162 0.05713 0.027413 0.08199 0.00421 0.01851 0.034328 0.03327 0.045444 0.04544 0.018509 0.02064 0.037645 0.04616 0.054579 0.07261 0.033334 0.05131 0.048945 0.11348 0.081746 0.16374 0.017462 0.02593 0.052075 0.04535 0.063717 0.07285 0.00582 0.01377-0.0053 0.04189 0 0.05458 0.019035 0.04285 0.11174 0.088 0.1546 0.10916 0.02011 0.01007 0.036063 0.01657 0.054579 0.02716 0.028058 0.01589 0.085737 0.04799 0.10002 0.07285 0.012689 0.02224 0.021071 0.07372 0.027413 0.10916 0.00795 0.04655-0.00206 0.08607 0 0.13632 0.00143 0.0275 0.00889 0.04535 0.00889 0.07286 0 0.0095 5.687e-4 0.02679 0 0.0363-5.687e-4 0.0328 0.00263 0.0667 0 0.10002-0.00143 0.01799-0.00115 0.03924 0 0.05458 0.00143 0.01642 0.017228 0.02201 0.018275 0.0363 0.00115 0.01534-0.019876 0.03352-0.018275 0.04569 0.00368 0.03333 0.039336 0.0602 0.045688 0.09088 0.0053 0.02433 0.012062 0.08006 0.00889 0.10916-0.00206 0.01534-0.00677 0.03765-0.00889 0.05458-0.00143 0.01324 0.00205 0.02414 0 0.03631-0.72519-0.46582-1.2096-1.275-1.2096-2.201 0-0.11871 0.011871-0.23098 0.027164-0.3455zm1.0005 0.26351c0.025405-0.01164 0.020636 0.03338 0 0.03655-0.019589 0.0026-0.019035-0.02754 0-0.03655z" color="#4d4d4d" opacity=".15"/>
</svg>
