<svg width="64" height="64" version="1.1" viewBox="0 0 16.933 16.933" xmlns="http://www.w3.org/2000/svg">
 <defs>
  <linearGradient id="linearGradient1769" x1="445.28" x2="445.28" y1="179.28" y2="200.07" gradientTransform="matrix(.38956 0 0 .38184 -165.52 216.63)" gradientUnits="userSpaceOnUse">
   <stop stop-color="#60c0f0" offset="0"/>
   <stop stop-color="#83d4fb" offset="1"/>
  </linearGradient>
  <linearGradient id="linearGradient860" x1="8.4667" x2="8.4667" y1="293.3" y2="292.77" gradientUnits="userSpaceOnUse">
   <stop stop-color="#008ea2" stop-opacity=".25" offset="0"/>
   <stop stop-color="#fff" stop-opacity=".15" offset="1"/>
  </linearGradient>
  <linearGradient id="linearGradient868" x1="8.4667" x2="8.4667" y1="294.62" y2="293.56" gradientTransform="matrix(3.7795 0 0 3.7795 0 -1058.5)" gradientUnits="userSpaceOnUse">
   <stop stop-color="#008ea2" stop-opacity=".25098" offset="0"/>
   <stop stop-color="#008ea2" stop-opacity=".15" offset=".75678"/>
   <stop stop-color="#fff" stop-opacity=".15" offset="1"/>
  </linearGradient>
  <linearGradient id="linearGradient897" x1="6.8792" x2="6.8792" y1="285.36" y2="283.77" gradientTransform="matrix(3.7795 0 0 3.7795 0 -1058.5)" gradientUnits="userSpaceOnUse">
   <stop offset="0"/>
   <stop stop-opacity="0" offset="1"/>
  </linearGradient>
  <linearGradient id="linearGradient907" x1="1.0583" x2="15.875" y1="289.59" y2="289.59" gradientTransform="translate(-.00030021)" gradientUnits="userSpaceOnUse">
   <stop stop-color="#46a2d7" stop-opacity=".5" offset="0"/>
   <stop stop-color="#46a2d7" stop-opacity="0" offset=".10783"/>
   <stop stop-color="#46a2d7" stop-opacity=".095808" offset=".89398"/>
   <stop stop-color="#46a2d7" stop-opacity=".5" offset="1"/>
  </linearGradient>
  <filter id="filter903" x="-.054628" y="-.066543" width="1.1093" height="1.1331" color-interpolation-filters="sRGB">
   <feGaussianBlur stdDeviation="0.33725977"/>
  </filter>
 </defs>
 <path d="m2.2099 2.5197c-0.63806 0-1.1513 0.51331-1.1513 1.1513v2.082c-8e-6 2e-3 -5.17e-4 3e-3 -5.17e-4 5e-3v7.7968c0 0.62536 0.5138 1.1286 1.1518 1.1286h12.513c0.63804 0 1.1518-0.50324 1.1518-1.1286v-8.6996c0-0.63797-0.51384-1.1568-1.1518-1.1518l-6.4124 0.0527c-0.91581 0-1.0823-0.0168-1.8639-0.60718-0.75908-0.60112-0.79125-0.62941-1.542-0.62941z" filter="url(#filter903)" opacity=".25"/>
 <g transform="translate(0 -280.07)">
  <path d="m2.21 282.45h2.695c0.75074 0 0.78302 0.0285 1.5421 0.62962 0.78159 0.5904 0.94779 0.607 1.8636 0.607l6.4126-0.0524c0.638-5e-3 1.1517 0.51363 1.1517 1.1516v6.77c0 0.63802-0.51364 1.1517-1.1517 1.1517h-12.513c-0.63802 0-1.1517-0.51364-1.1517-1.1517v-7.9542c0-0.63802 0.51364-1.1517 1.1517-1.1517z" fill="#46a2d7"/>
  <path transform="matrix(.26458 0 0 .26458 0 280.07)" d="m8.3535 9c-2.4114 0-4.3535 1.9421-4.3535 4.3535v10.646h56v-6.1719c0-2.4114-1.9422-4.3705-4.3535-4.3516l-24.236 0.19727c-3.4614 0-4.0889-0.063489-7.043-2.2949-2.869-2.2719-2.9907-2.3789-5.8281-2.3789h-10.186z" fill="url(#linearGradient897)" opacity=".25"/>
  <rect x="1.0583" y="284.56" width="14.817" height="10.054" rx="1.1517" ry="1.1288" fill="url(#linearGradient1769)"/>
  <rect x="1.0583" y="292.77" width="14.817" height=".52915" fill="url(#linearGradient860)"/>
  <path transform="matrix(.26458 0 0 .26458 0 280.07)" d="m4.0273 51c0.14181 2.2363 2.0077 4 4.3262 4h47.293c2.3184 0 4.1844-1.7637 4.3262-4h-55.945z" fill="url(#linearGradient868)"/>
  <rect x="1.058" y="284.56" width="14.817" height="10.054" rx="1.1517" ry="1.1288" fill="url(#linearGradient907)"/>
  <path transform="matrix(.26458 0 0 .26458 0 280.07)" d="m8.3535 17c-2.4114 0-4.3535 1.902-4.3535 4.2656v0.88867c0-2.3014 1.9421-4.1543 4.3535-4.1543h47.293c2.4114 0 4.3535 1.8529 4.3535 4.1543v-0.88867c0-2.3636-1.9421-4.2656-4.3535-4.2656h-47.293z" fill="#fff" opacity=".1"/>
 </g>
 <path d="m8.4461 6.8712c-0.36113 0.010643-0.64592 0.30708-0.64592 0.67098 3.33e-4 0.24496 0.13406 0.47028 0.34894 0.5879l-0.85817 0.76446-0.066365 0.056774-0.066575-0.056774v2.14e-4l-0.85817-0.76446c0.21488-0.11762 0.34863-0.34294 0.34894-0.5879 0-0.36496-0.28643-0.66189-0.64905-0.67098h-0.037566c-0.36113 0.010647-0.64592 0.30708-0.64592 0.67097 3.315e-4 0.24496 0.13406 0.47028 0.34894 0.5879l-0.85817 0.76446-0.040071 0.54804 0.68119-0.50671-0.071793 0.82394-0.7029 2.4021h0.52091l0.78617-2.0206 0.00377-2.14e-4 0.78638 2.0208h0.52091v-2.14e-4h0.38672l0.78617-2.0204h0.00377l0.78638 2.0208h0.90763l0.78617-2.0204h0.0037l0.78638 2.0208h0.52095l-0.70285-2.4021-0.07179-0.82396 0.68119 0.50673-0.04007-0.54804-0.85817-0.76446c0.21488-0.11762 0.34863-0.34296 0.34894-0.58792 0-0.36496-0.28643-0.66187-0.64905-0.67095h-0.03756c-0.36113 0.010647-0.64592 0.30705-0.64592 0.67095 3.34e-4 0.24496 0.13406 0.4703 0.34894 0.58792l-0.85818 0.76446v-2.141e-4l-0.066366 0.056705-0.066575-0.056514-0.85817-0.76444c0.21488-0.11762 0.34863-0.34296 0.34894-0.58792 0-0.36496-0.28643-0.66187-0.64905-0.67095zm-0.51402 2.0647-0.071792 0.82393-0.6359 2.173-0.63569-2.1727-0.071793-0.82394 0.68119 0.50671 0.026505 0.016555 0.026294-0.0168zm1.0687 0 0.68119 0.50671 0.026505 0.0168 0.026295-0.017027v2.137e-4l0.68119-0.50672-0.071791 0.82394-0.6359 2.1728-0.6357-2.1728z" opacity=".15" stroke-width=".23656"/>
</svg>
