<?xml version="1.0" encoding="UTF-8" standalone="no"?>
<svg
   width="64"
   height="64"
   viewBox="0 0 16.933 16.933"
   version="1.1"
   id="svg5055"
   sodipodi:docname="material-html.svg"
   inkscape:version="1.3 (1:1.3+202307231459+0e150ed6c4)"
   xmlns:inkscape="http://www.inkscape.org/namespaces/inkscape"
   xmlns:sodipodi="http://sodipodi.sourceforge.net/DTD/sodipodi-0.dtd"
   xmlns="http://www.w3.org/2000/svg"
   xmlns:svg="http://www.w3.org/2000/svg">
  <sodipodi:namedview
     id="namedview5057"
     pagecolor="#505050"
     bordercolor="#eeeeee"
     borderopacity="1"
     inkscape:showpageshadow="0"
     inkscape:pageopacity="0"
     inkscape:pagecheckerboard="0"
     inkscape:deskcolor="#505050"
     showgrid="false"
     inkscape:zoom="11.445496"
     inkscape:cx="22.541618"
     inkscape:cy="35.909322"
     inkscape:window-width="1920"
     inkscape:window-height="1048"
     inkscape:window-x="1920"
     inkscape:window-y="0"
     inkscape:window-maximized="1"
     inkscape:current-layer="svg5055" />
  <defs
     id="defs5035">
    <linearGradient
       id="a"
       x1="6.879"
       x2="6.879"
       y1="285.36"
       y2="283.77"
       gradientTransform="translate(0 -280.06) scale(.99998)"
       gradientUnits="userSpaceOnUse">
      <stop
         offset="0"
         id="stop5004" />
      <stop
         stop-opacity="0"
         offset="1"
         id="stop5006" />
    </linearGradient>
    <linearGradient
       id="b"
       x1="445.28"
       x2="445.28"
       y1="179.28"
       y2="200.07"
       gradientTransform="matrix(.38956 0 0 .38184 -165.52 -63.44)"
       gradientUnits="userSpaceOnUse">
      <stop
         stop-color="#60c0f0"
         offset="0"
         id="stop5009" />
      <stop
         stop-color="#83d4fb"
         offset="1"
         id="stop5011" />
    </linearGradient>
    <linearGradient
       id="c"
       x1="8.467"
       x2="8.467"
       y1="293.3"
       y2="292.77"
       gradientTransform="translate(0 -280.07)"
       gradientUnits="userSpaceOnUse">
      <stop
         stop-color="#008ea2"
         stop-opacity=".25"
         offset="0"
         id="stop5014" />
      <stop
         stop-color="#fff"
         stop-opacity=".15"
         offset="1"
         id="stop5016" />
    </linearGradient>
    <linearGradient
       id="d"
       x1="8.467"
       x2="8.467"
       y1="294.62"
       y2="293.56"
       gradientTransform="translate(0 -280.06) scale(.99998)"
       gradientUnits="userSpaceOnUse">
      <stop
         stop-color="#008ea2"
         stop-opacity=".251"
         offset="0"
         id="stop5019" />
      <stop
         stop-color="#008ea2"
         stop-opacity=".15"
         offset=".757"
         id="stop5021" />
      <stop
         stop-color="#fff"
         stop-opacity=".15"
         offset="1"
         id="stop5023" />
    </linearGradient>
    <linearGradient
       id="e"
       x1="1.058"
       x2="15.875"
       y1="289.59"
       y2="289.59"
       gradientTransform="translate(0 -280.07)"
       gradientUnits="userSpaceOnUse">
      <stop
         stop-color="#46a2d7"
         stop-opacity=".5"
         offset="0"
         id="stop5026" />
      <stop
         stop-color="#46a2d7"
         stop-opacity="0"
         offset=".108"
         id="stop5028" />
      <stop
         stop-color="#46a2d7"
         stop-opacity=".096"
         offset=".894"
         id="stop5030" />
      <stop
         stop-color="#46a2d7"
         stop-opacity=".5"
         offset="1"
         id="stop5032" />
    </linearGradient>
    <linearGradient
       id="linearGradient5852"
       x1="19.306999"
       x2="19.306999"
       y1="24.990999"
       y2="15.954"
       gradientUnits="userSpaceOnUse"
       gradientTransform="matrix(0.38381141,0,0,0.38381141,19.735008,-3.6254232)">
      <stop
         stop-color="#009ef8"
         offset="0"
         id="stop7492"
         style="stop-color:#0099e6;stop-opacity:1;" />
      <stop
         stop-color="#27affa"
         offset="1"
         id="stop7494"
         style="stop-color:#037bb9;stop-opacity:1;" />
    </linearGradient>
    <linearGradient
       id="linearGradient1769-9"
       x1="445.28"
       x2="445.28"
       y1="179.28"
       y2="200.07001"
       gradientTransform="matrix(0.38803334,0,0,0.38034944,-141.28924,-63.06246)"
       gradientUnits="userSpaceOnUse">
      <stop
         stop-color="#3ab8fb"
         offset="0"
         id="stop7487"
         style="stop-color:#47beff;stop-opacity:1;" />
      <stop
         stop-color="#60c4fb"
         offset="1"
         id="stop7489"
         style="stop-color:#87cefb;stop-opacity:1;" />
    </linearGradient>
  </defs>
  <g
     id="g2"
     transform="translate(16.716325,0.22699915)">
    <rect
       style="opacity:0.2;stroke-width:0.264578"
       width="14.816375"
       height="9.5248127"
       x="-15.621273"
       y="5.4984565"
       rx="0.74081874"
       ry="0.74081874"
       id="rect1" />
    <path
       style="fill:#4877b1;stroke-width:0.264578"
       d="m -15.621274,11.901247 c 0,0.41036 0.330406,0.740818 0.740819,0.740818 h 13.3347378 c 0.4103607,0 0.74081878,-0.330458 0.74081878,-0.740818 V 3.8580719 c 0,-0.4103607 -0.33045808,-0.7408187 -0.74081878,-0.7408187 h -6.6673686 c -1.1112281,0 -1.4816374,-1.5874688 -2.5928662,-1.5874688 h -4.074503 c -0.410413,0 -0.740819,0.3304052 -0.740819,0.7408188"
       id="path1" />
    <rect
       style="opacity:0.2;stroke-width:0.264578"
       width="14.816375"
       height="9.5248127"
       x="-15.621273"
       y="4.9693003"
       rx="0.74081874"
       ry="0.74081874"
       id="rect2" />
    <rect
       style="fill:#e4e4e4;stroke-width:0.264578"
       width="12.69975"
       height="5.8207188"
       x="-14.562961"
       y="3.9109876"
       rx="0.74081874"
       ry="0.74081874"
       id="rect3" />
    <rect
       style="fill:#5294e2;stroke-width:0.264578"
       width="14.816375"
       height="9.5248127"
       x="-15.621273"
       y="5.2338781"
       rx="0.74081874"
       ry="0.74081874"
       id="rect4" />
    <path
       style="opacity:0.1;fill:#ffffff;stroke-width:0.264578"
       d="m -14.880243,1.5297844 c -0.410414,0 -0.741031,0.3306169 -0.741031,0.7410304 v 0.2646311 c 0,-0.4104665 0.330617,-0.7410833 0.741031,-0.7410833 h 4.074027 c 1.1112282,0 1.4819021,1.5874687 2.5931302,1.5874687 h 6.6671041 c 0.4103606,0 0.74108328,0.3307226 0.74108328,0.7410833 V 3.8583365 c 0,-0.4103607 -0.33072268,-0.7410833 -0.74108328,-0.7410833 h -6.6671041 c -1.1112281,0 -1.481902,-1.5874688 -2.5931302,-1.5874688 z"
       id="path4" />
  </g>
  <path
     class="ColorScheme-Text"
     d="m 8.5022389,7.1370501 a 3.175,3.175 0 0 0 -0.06,0.003 3.175,3.175 0 0 0 -0.015,0.001 3.242,3.242 0 0 0 -0.011,0 3.175,3.175 0 0 0 -0.039,0.003 3.175,3.175 0 0 0 -0.267,0.02 3.175,3.175 0 0 0 -0.04,0.007 3.175,3.175 0 0 0 -0.264,0.047 3.175,3.175 0 0 0 -0.063,0.015 3.175,3.175 0 0 0 -0.252,0.073 3.175,3.175 0 0 0 -0.03,0.011 3.175,3.175 0 0 0 -0.272,0.108 3.175,3.175 0 0 0 -0.006,0.003 3.175,3.175 0 0 0 -0.274,0.141 3.175,3.175 0 0 0 -0.013,0.009 3.175,3.175 0 0 0 -0.255,0.166 3.175,3.175 0 0 0 -0.006,0.004 3.175,3.175 0 0 0 -0.235,0.19 3.175,3.175 0 0 0 -0.028,0.026 3.175,3.175 0 0 0 -0.199,0.195 3.175,3.175 0 0 0 -0.025,0.028 3.175,3.175 0 0 0 -0.182,0.22 3.175,3.175 0 0 0 -0.01,0.015 3.175,3.175 0 0 0 -0.163,0.242 3.175,3.175 0 0 0 -0.024,0.04 3.175,3.175 0 0 0 -0.125,0.233 3.175,3.175 0 0 0 -0.025,0.055 3.175,3.175 0 0 0 -0.101,0.247 3.175,3.175 0 0 0 -0.01,0.028 3.175,3.175 0 0 0 -0.08,0.265 3.175,3.175 0 0 0 -0.026,0.107 h 0.002 a 3.175,3.175 0 0 0 -0.007,0.034 3.175,3.175 0 0 0 -0.038,0.22 3.175,3.175 0 0 0 -0.013,0.1069999 3.175,3.175 0 0 0 -0.016,0.245 3.175,3.175 0 0 0 -0.002,0.067 3.175,3.175 0 0 0 1.82,2.867 3.175,3.175 0 0 0 0.004,0.003 3.175,3.175 0 0 0 0.155,0.069 3.175,3.175 0 0 0 0.003,0.002 3.175,3.175 0 0 0 0.245,0.086 3.175,3.175 0 0 0 0.062,0.02 3.175,3.175 0 0 0 0.214,0.052 3.175,3.175 0 0 0 0.102,0.023 3.175,3.175 0 0 0 0.204,0.028 3.175,3.175 0 0 0 0.11,0.014 3.175,3.175 0 0 0 0.256,0.011 3.175,3.175 0 0 0 0.262,-0.012 v -10e-4 a 3.175,3.175 0 0 0 0.006,0 3.175,3.175 0 0 0 0.292,-0.04 3.175,3.175 0 0 0 0.022,-0.003 3.175,3.175 0 0 0 0.005,0 3.175,3.175 0 0 0 0.304,-0.074 3.175,3.175 0 0 0 1.4500001,-0.906 3.175,3.175 0 0 0 0.008,-0.009 3.175,3.175 0 0 0 0.079,-0.084 3.175,3.175 0 0 0 0,-0.002 l -0.005,0.003 a 3.175,3.175 0 0 0 0.752,-2.047 3.175,3.175 0 0 0 -0.104,-0.7899999 h 10e-4 a 3.175,3.175 0 0 0 -0.008,-0.025 3.175,3.175 0 0 0 -0.002,-0.006 3.175,3.175 0 0 0 -0.077,-0.246 3.175,3.175 0 0 0 -0.017,-0.047 3.175,3.175 0 0 0 -0.437,-0.796 3.175,3.175 0 0 0 -0.011,-0.015 3.175,3.175 0 0 0 -0.01,-0.012 3.175,3.175 0 0 0 -0.41,-0.44 3.175,3.175 0 0 0 -0.02,-0.015 3.175,3.175 0 0 0 -0.003,-0.004 3.175,3.175 0 0 0 -0.224,-0.177 3.175,3.175 0 0 0 -0.028,-0.02 3.175,3.175 0 0 0 -0.229,-0.146 3.175,3.175 0 0 0 -0.035,-0.021 3.175,3.175 0 0 0 -1.5610001,-0.415 z m 0,0.397 a 2.778,2.778 0 0 1 0.01,0 c -0.002,0.05 -0.01,0.097 -0.01,0.146 0,0.39 0.05,0.77 0.135,1.135 -0.44,0.372 -0.99,0.619 -1.594,0.685 0.17,-0.723 0.512,-1.377 0.977,-1.923 a 2.778,2.778 0 0 1 0.197,-0.025 2.778,2.778 0 0 1 0.084,-0.01 2.778,2.778 0 0 1 0.202,-0.008 z m 0.404,0.033 a 2.778,2.778 0 0 1 0.007,10e-4 2.778,2.778 0 0 1 0.265,0.053 2.778,2.778 0 0 1 10e-4,0 2.778,2.778 0 0 1 0.265,0.081 2.778,2.778 0 0 1 0.01,0.003 c -0.121,0.284 -0.282,0.546 -0.48,0.776 a 4.635,4.635 0 0 1 -0.075,-0.801 c 0,-0.038 0.006,-0.075 0.007,-0.113 z m -1.532,0.21 a 4.938,4.938 0 0 0 -0.743,1.737 2.962,2.962 0 0 1 -0.747,-0.12 2.778,2.778 0 0 1 0.102,-0.251 2.778,2.778 0 0 1 0.008,-0.017 2.778,2.778 0 0 1 0.123,-0.232 2.778,2.778 0 0 1 0.004,-0.006 2.778,2.778 0 0 1 0.152,-0.228 2.778,2.778 0 0 1 0.175,-0.213 2.778,2.778 0 0 1 0.004,-0.004 2.778,2.778 0 0 1 0.191,-0.19 2.778,2.778 0 0 1 0.01,-0.008 2.778,2.778 0 0 1 0.204,-0.167 2.778,2.778 0 0 1 0.012,-0.008 2.778,2.778 0 0 1 0.222,-0.147 2.778,2.778 0 0 1 0.006,-0.003 2.778,2.778 0 0 1 0.243,-0.127 2.778,2.778 0 0 1 0.034,-0.015 z m 2.44,0.087 a 2.778,2.778 0 0 1 0.002,0.002 2.778,2.778 0 0 1 0.2360001,0.142 2.778,2.778 0 0 1 0.198,0.148 2.778,2.778 0 0 1 0.024,0.018 2.778,2.778 0 0 1 0.003,0.002 2.778,2.778 0 0 1 0.179,0.164 2.778,2.778 0 0 1 0.023,0.021 2.778,2.778 0 0 1 0.002,0.003 2.778,2.778 0 0 1 0.133,0.148 2.778,2.778 0 0 1 0.055,0.063 2.778,2.778 0 0 1 0.103,0.14 2.778,2.778 0 0 1 0.06,0.085 2.778,2.778 0 0 1 0.116,0.2 2.778,2.778 0 0 1 0.02,0.033 2.778,2.778 0 0 1 0,0.002 2.778,2.778 0 0 1 0.095,0.205 2.778,2.778 0 0 1 0.02,0.045 2.778,2.778 0 0 1 0.002,0.005 2.778,2.778 0 0 1 0.062,0.181 2.778,2.778 0 0 1 0.03,0.09 3.358,3.358 0 0 0 -1.5270001,0.6399999 4.586,4.586 0 0 1 -0.57,-1.2549999 c 0.31,-0.307 0.56,-0.674 0.734,-1.082 z m -1.064,1.364 c 0.143,0.44 0.344,0.8539999 0.596,1.2309999 a 3.368,3.368 0 0 0 -0.975,1.767 4.58,4.58 0 0 1 -1.281,-0.419 4.617,4.617 0 0 1 -0.175,-1.244 c 0,-0.225 0.022,-0.444 0.053,-0.6599999 a 3.351,3.351 0 0 0 1.782,-0.675 z m -2.972,0.542 c 0.252,0.075 0.515,0.125 0.788,0.138 a 5.023,5.023 0 0 0 -0.048,0.6549999 c 0,0.333 0.035,0.659 0.097,0.974 a 4.578,4.578 0 0 1 -0.844,-0.725 2.778,2.778 0 0 1 -0.027,-0.2 2.778,2.778 0 0 1 -0.01,-0.088 2.778,2.778 0 0 1 -0.01,-0.212 2.778,2.778 0 0 1 0.015,-0.277 2.778,2.778 0 0 1 0.04,-0.2649999 z m 5.4760001,0.18 a 2.778,2.778 0 0 1 0.023,0.2629999 2.778,2.778 0 0 1 0.004,0.1 2.778,2.778 0 0 1 -0.28,1.207 2.778,2.778 0 0 1 -0.01,0.02 4.651,4.651 0 0 1 -1.1100001,-1.018 2.962,2.962 0 0 1 1.3730001,-0.5729999 z M 9.5822389,10.77905 c 0.34,0.431 0.7520001,0.8 1.2140001,1.1 a 2.778,2.778 0 0 1 0,0.002 2.778,2.778 0 0 1 -0.113,0.147 4.59,4.59 0 0 1 -1.5320001,0.269 c -0.13,0 -0.258,-0.01 -0.386,-0.02 0.122,-0.58 0.412,-1.097 0.817,-1.498 z m -3.532,0.834 c 0.22,0.176 0.456,0.335 0.706,0.471 0.059,0.186 0.13,0.366 0.21,0.541 a 2.778,2.778 0 0 1 -0.002,-10e-4 2.778,2.778 0 0 1 -0.21,-0.156 2.778,2.778 0 0 1 -0.012,-0.01 2.778,2.778 0 0 1 -0.204,-0.185 2.778,2.778 0 0 1 -0.186,-0.206 2.778,2.778 0 0 1 -0.164,-0.223 2.778,2.778 0 0 1 -0.138,-0.231 z m 1.213,0.71 c 0.335,0.136 0.689,0.234 1.055,0.295 -0.007,0.09 -0.014,0.181 -0.014,0.274 0,0.064 0.005,0.126 0.009,0.189 a 2.778,2.778 0 0 1 -0.004,0 2.778,2.778 0 0 1 -0.735,-0.154 2.778,2.778 0 0 1 -0.003,-10e-4 4.315,4.315 0 0 1 -0.308,-0.604 z m 2.8020001,0.283 a 2.778,2.778 0 0 1 -10e-4,10e-4 2.778,2.778 0 0 1 -0.2310001,0.14 2.778,2.778 0 0 1 -0.005,0.004 2.778,2.778 0 0 1 -0.002,0 2.778,2.778 0 0 1 -0.212,0.104 2.778,2.778 0 0 1 -0.052,0.022 2.778,2.778 0 0 1 -0.204,0.075 2.778,2.778 0 0 1 -0.057,0.018 2.778,2.778 0 0 1 -0.191,0.05 2.778,2.778 0 0 1 -0.086,0.02 2.778,2.778 0 0 1 -0.179,0.025 2.778,2.778 0 0 1 -0.132,0.017 c -0.005,-0.063 -0.012,-0.126 -0.012,-0.19 0,-0.075 0.006,-0.147 0.011,-0.22 a 4.83,4.83 0 0 0 1.3530001,-0.066 z"
     color="#363636"
     opacity="0.15"
     id="path5053" />
</svg>
