<?xml version="1.0" encoding="UTF-8" standalone="no"?>
<svg
   width="64"
   height="64"
   viewBox="0 0 16.933 16.933"
   version="1.1"
   id="svg4369"
   sodipodi:docname="material-projects.svg"
   inkscape:version="1.3 (1:1.3+202307231459+0e150ed6c4)"
   xmlns:inkscape="http://www.inkscape.org/namespaces/inkscape"
   xmlns:sodipodi="http://sodipodi.sourceforge.net/DTD/sodipodi-0.dtd"
   xmlns="http://www.w3.org/2000/svg"
   xmlns:svg="http://www.w3.org/2000/svg">
  <sodipodi:namedview
     id="namedview4371"
     pagecolor="#505050"
     bordercolor="#eeeeee"
     borderopacity="1"
     inkscape:showpageshadow="0"
     inkscape:pageopacity="0"
     inkscape:pagecheckerboard="0"
     inkscape:deskcolor="#505050"
     showgrid="false"
     inkscape:zoom="10.545786"
     inkscape:cx="17.352904"
     inkscape:cy="38.214318"
     inkscape:window-width="1920"
     inkscape:window-height="1048"
     inkscape:window-x="1920"
     inkscape:window-y="0"
     inkscape:window-maximized="1"
     inkscape:current-layer="svg4369" />
  <defs
     id="defs4349">
    <linearGradient
       id="b"
       x1="445.28"
       x2="445.28"
       y1="179.28"
       y2="200.07"
       gradientTransform="matrix(.38956 0 0 .38184 -165.52 -63.44)"
       gradientUnits="userSpaceOnUse">
      <stop
         stop-color="#60c0f0"
         offset="0"
         id="stop4318" />
      <stop
         stop-color="#83d4fb"
         offset="1"
         id="stop4320" />
    </linearGradient>
    <linearGradient
       id="c"
       x1="8.467"
       x2="8.467"
       y1="293.3"
       y2="292.77"
       gradientTransform="translate(0 -280.07)"
       gradientUnits="userSpaceOnUse">
      <stop
         stop-color="#008ea2"
         stop-opacity=".25"
         offset="0"
         id="stop4323" />
      <stop
         stop-color="#fff"
         stop-opacity=".15"
         offset="1"
         id="stop4325" />
    </linearGradient>
    <linearGradient
       id="d"
       x1="8.467"
       x2="8.467"
       y1="294.62"
       y2="293.56"
       gradientTransform="translate(0 -280.06) scale(.99998)"
       gradientUnits="userSpaceOnUse">
      <stop
         stop-color="#008ea2"
         stop-opacity=".251"
         offset="0"
         id="stop4328" />
      <stop
         stop-color="#008ea2"
         stop-opacity=".15"
         offset=".757"
         id="stop4330" />
      <stop
         stop-color="#fff"
         stop-opacity=".15"
         offset="1"
         id="stop4332" />
    </linearGradient>
    <linearGradient
       id="a"
       x1="6.879"
       x2="6.879"
       y1="285.36"
       y2="283.77"
       gradientTransform="translate(0 -280.06) scale(.99998)"
       gradientUnits="userSpaceOnUse">
      <stop
         offset="0"
         id="stop4335" />
      <stop
         stop-opacity="0"
         offset="1"
         id="stop4337" />
    </linearGradient>
    <linearGradient
       id="e"
       x1="1.058"
       x2="15.875"
       y1="289.59"
       y2="289.59"
       gradientTransform="translate(0 -280.07)"
       gradientUnits="userSpaceOnUse">
      <stop
         stop-color="#46a2d7"
         stop-opacity=".5"
         offset="0"
         id="stop4340" />
      <stop
         stop-color="#46a2d7"
         stop-opacity="0"
         offset=".108"
         id="stop4342" />
      <stop
         stop-color="#46a2d7"
         stop-opacity=".096"
         offset=".894"
         id="stop4344" />
      <stop
         stop-color="#46a2d7"
         stop-opacity=".5"
         offset="1"
         id="stop4346" />
    </linearGradient>
    <linearGradient
       id="linearGradient5852"
       x1="19.306999"
       x2="19.306999"
       y1="24.990999"
       y2="15.954"
       gradientUnits="userSpaceOnUse"
       gradientTransform="matrix(0.38381141,0,0,0.38381141,19.735008,-3.6254232)">
      <stop
         stop-color="#009ef8"
         offset="0"
         id="stop7492"
         style="stop-color:#0099e6;stop-opacity:1;" />
      <stop
         stop-color="#27affa"
         offset="1"
         id="stop7494"
         style="stop-color:#037bb9;stop-opacity:1;" />
    </linearGradient>
    <linearGradient
       id="linearGradient1769-9"
       x1="445.28"
       x2="445.28"
       y1="179.28"
       y2="200.07001"
       gradientTransform="matrix(0.38803334,0,0,0.38034944,-141.28924,-63.06246)"
       gradientUnits="userSpaceOnUse">
      <stop
         stop-color="#3ab8fb"
         offset="0"
         id="stop7487"
         style="stop-color:#47beff;stop-opacity:1;" />
      <stop
         stop-color="#60c4fb"
         offset="1"
         id="stop7489"
         style="stop-color:#87cefb;stop-opacity:1;" />
    </linearGradient>
  </defs>
  <g
     id="g2"
     transform="translate(16.662545,0.11624674)">
    <rect
       style="opacity:0.2;stroke-width:0.264578"
       width="14.816375"
       height="9.5248127"
       x="-15.621273"
       y="5.4984565"
       rx="0.74081874"
       ry="0.74081874"
       id="rect1" />
    <path
       style="fill:#4877b1;stroke-width:0.264578"
       d="m -15.621274,11.901247 c 0,0.41036 0.330406,0.740818 0.740819,0.740818 h 13.3347378 c 0.4103607,0 0.74081878,-0.330458 0.74081878,-0.740818 V 3.8580719 c 0,-0.4103607 -0.33045808,-0.7408187 -0.74081878,-0.7408187 h -6.6673686 c -1.1112281,0 -1.4816374,-1.5874688 -2.5928662,-1.5874688 h -4.074503 c -0.410413,0 -0.740819,0.3304052 -0.740819,0.7408188"
       id="path1" />
    <rect
       style="opacity:0.2;stroke-width:0.264578"
       width="14.816375"
       height="9.5248127"
       x="-15.621273"
       y="4.9693003"
       rx="0.74081874"
       ry="0.74081874"
       id="rect2" />
    <rect
       style="fill:#e4e4e4;stroke-width:0.264578"
       width="12.69975"
       height="5.8207188"
       x="-14.562961"
       y="3.9109876"
       rx="0.74081874"
       ry="0.74081874"
       id="rect3" />
    <rect
       style="fill:#5294e2;stroke-width:0.264578"
       width="14.816375"
       height="9.5248127"
       x="-15.621273"
       y="5.2338781"
       rx="0.74081874"
       ry="0.74081874"
       id="rect4" />
    <path
       style="opacity:0.1;fill:#ffffff;stroke-width:0.264578"
       d="m -14.880243,1.5297844 c -0.410414,0 -0.741031,0.3306169 -0.741031,0.7410304 v 0.2646311 c 0,-0.4104665 0.330617,-0.7410833 0.741031,-0.7410833 h 4.074027 c 1.1112282,0 1.4819021,1.5874687 2.5931302,1.5874687 h 6.6671041 c 0.4103606,0 0.74108328,0.3307226 0.74108328,0.7410833 V 3.8583365 c 0,-0.4103607 -0.33072268,-0.7410833 -0.74108328,-0.7410833 h -6.6671041 c -1.1112281,0 -1.481902,-1.5874688 -2.5931302,-1.5874688 z"
       id="path4" />
  </g>
  <path
     class="st0"
     d="m 10.850959,10.934967 0.19,0.19 c 0.05,0.05 0.05,0.13 0,0.18 l -0.155,0.154 c 0.04,0.08 0.075,0.165 0.095,0.255 h 0.2 c 0.07,0 0.13,0.06 0.13,0.13 v 0.27 c 0,0.07 -0.06,0.13 -0.13,0.13 h -0.215 c -0.025,0.084 -0.065,0.169 -0.11,0.244 l 0.14,0.14 c 0.05,0.05 0.05,0.13 0,0.18 l -0.19,0.19 c -0.05,0.05 -0.13,0.05 -0.18,0 l -0.154,-0.156 c -0.08,0.04 -0.165,0.075 -0.255,0.095 v 0.2 c 0,0.07 -0.06,0.13 -0.13,0.13 H 9.8169589 c -0.07,0 -0.13,-0.06 -0.13,-0.13 v -0.22 a 1.08,1.08 0 0 1 -0.244,-0.11 l -0.14,0.14 c -0.05,0.05 -0.13,0.05 -0.18,0 l -0.19,-0.19 a 0.127,0.127 0 0 1 0,-0.18 l 0.155,-0.154 a 1.113,1.113 0 0 1 -0.095,-0.255 h -0.2 c -0.07,0 -0.13,-0.06 -0.13,-0.13 v -0.27 c 0,-0.07 0.06,-0.13 0.13,-0.13 h 0.215 a 1.08,1.08 0 0 1 0.11,-0.244 l -0.135,-0.135 a 0.127,0.127 0 0 1 0,-0.18 l 0.19,-0.19 c 0.05,-0.05 0.13,-0.05 0.18,0 l 0.155,0.156 c 0.08,-0.04 0.165,-0.075 0.254,-0.095 v -0.2 c 0,-0.07 0.06,-0.13 0.13,-0.13 h 0.2700001 c 0.07,0 0.13,0.06 0.13,0.13 v 0.215 c 0.085,0.025 0.17,0.065 0.245,0.11 l 0.14,-0.14 c 0.04,-0.05 0.124,-0.05 0.174,0 z m -3.1960001,0.294 c -0.07,0 -0.125,-0.07 -0.125,-0.15 0,-0.084 0.055,-0.15 0.125,-0.15 h 0.62 c 0.07,0 0.124,0.07 0.124,0.15 0,0.085 -0.055,0.15 -0.125,0.15 z m 0.185,1.503 a 0.15,0.15 0 0 1 0,0.3 h -1.898 a 0.356,0.356 0 0 1 -0.354,-0.354 V 7.4779668 c 0,-0.1 0.04,-0.184 0.104,-0.249 0.064,-0.065 0.15,-0.105 0.25,-0.105 h 4.3300001 a 0.356,0.356 0 0 1 0.355,0.355 v 2.412 a 0.15,0.15 0 0 1 -0.15,0.1500002 0.15,0.15 0 0 1 -0.15,-0.1500002 v -2.412 a 0.045,0.045 0 0 0 -0.015,-0.035 0.045,0.045 0 0 0 -0.035,-0.015 H 5.9419589 a 0.045,0.045 0 0 0 -0.035,0.015 c -0.01,0.005 -0.015,0.02 -0.015,0.035 v 5.2090002 c 0,0.015 0.005,0.025 0.015,0.035 0.01,0.01 0.02,0.015 0.035,0.015 h 1.898 z m -1.314,-1.907 h 0.535 c 0.03,0 0.05,0.02 0.05,0.05 v 0.46 c 0,0.03 -0.02,0.05 -0.05,0.05 h -0.535 c -0.03,0 -0.05,-0.02 -0.05,-0.05 v -0.46 c 0,-0.03 0.02,-0.05 0.05,-0.05 z m 0,-2.6420002 h 0.535 c 0.03,0 0.05,0.02 0.05,0.05 v 0.46 c 0,0.03 -0.02,0.05 -0.05,0.05 h -0.535 c -0.03,0 -0.05,-0.02 -0.05,-0.05 v -0.46 c 0,-0.03 0.02,-0.05 0.05,-0.05 z m 1.129,0.404 c -0.07,0 -0.125,-0.07 -0.125,-0.15 0,-0.084 0.055,-0.15 0.125,-0.15 h 1.733 c 0.07,0 0.125,0.07 0.125,0.15 0,0.086 -0.055,0.15 -0.125,0.15 z m -0.974,1.404 c -0.035,0.025 -0.08,0.02 -0.115,-0.015 l -0.01,-0.01 -0.16,-0.165 c -0.034,-0.035 -0.024,-0.09 0.016,-0.13 0.044,-0.035 0.104,-0.04 0.14,-0.005 l 0.084,0.09 0.28,-0.225 c 0.035,-0.03 0.095,-0.015 0.125,0.03 0.035,0.045 0.03,0.11 -0.01,0.14 z m 0.89,-0.13 c -0.07,0 -0.126,-0.07 -0.126,-0.15 0,-0.085 0.055,-0.15 0.125,-0.15 h 1.733 c 0.07,0 0.125,0.07 0.125,0.15 0,0.085 -0.055,0.15 -0.125,0.15 z m 2.416,1.5530002 a 0.53,0.53 0 1 1 0,1.06 0.53,0.53 0 0 1 0,-1.06 z"
     clip-rule="evenodd"
     fill-rule="evenodd"
     opacity="0.15"
     id="path4367" />
</svg>
