<svg width="64" height="64" viewBox="0 0 16.933 16.933" xmlns="http://www.w3.org/2000/svg"><defs><linearGradient id="b" x1="6.35" x2="6.35" y1="287.76" y2="293.54" gradientTransform="translate(-.192 -387.88) scale(1.3636)" gradientUnits="userSpaceOnUse"><stop stop-color="#fff" stop-opacity=".75" offset="0"/><stop stop-color="#fff" offset="1"/></linearGradient><linearGradient id="a" x1="7.937" x2="7.937" y1="15.081" y2="1.852" gradientTransform="translate(-.605 -.596) scale(1.0714)" gradientUnits="userSpaceOnUse"><stop stop-color="#28aef1" offset="0"/><stop stop-color="#76e7ff" offset="1"/></linearGradient></defs><rect x=".529" y=".529" width="15.875" height="15.875" rx="7.937" ry="7.937" fill="url(#a)"/><path d="M12.796 12.408c0-1.418-2.406-2.141-3.366-2.398 0 0 .04-.796.133-1.087.092-.292.106-.623.145-.716.04-.092.509-.517.535-.914-.006-.237-.053-.293-.17-.293V5.767c0-.665-.97-1.246-1.607-1.246-.636 0-1.606.581-1.606 1.246V7c-.117 0-.164.056-.17.293.026.397.495.822.535.914.04.093.052.424.145.716.093.291.133 1.086.133 1.086-.96.258-3.366.981-3.366 2.399z" fill="url(#b)" fill-rule="evenodd"/></svg>