<svg width="64" height="64" version="1.1" viewBox="0 0 64 64" xmlns="http://www.w3.org/2000/svg">
 <defs>
  <style id="current-color-scheme" type="text/css">.ColorScheme-Text { color:#363636; }</style>
 </defs>
 <rect x="2" y="2" width="60" height="60" rx="30" ry="30" fill="#4d4d4d" stroke-width="3.7796"/>
 <path d="m31.956 36.729c-5.6837-0.02905-10.092-4.7872-10.092-11.083-0.05807-5.9188 4.4372-10.851 10.092-10.851 5.655 0 10.092 4.9323 10.092 10.851 0 6.2958-4.4078 11.141-10.092 11.083zm0 20.31c-6.4957 0-13.398-2.6983-17.777-7.3987 3.3349-4.9903 9.9469-7.8916 17.777-7.8916 7.7429 0 14.413 2.8436 17.777 7.8916-4.3788 4.7004-11.281 7.3987-17.777 7.3987z" fill="#ffffff" stroke-width="3.3003"/>
</svg>
