<svg width="22" height="22" version="1.1" xmlns="http://www.w3.org/2000/svg">
 <defs>
  <style id="current-color-scheme" type="text/css">.ColorScheme-Text {
        color:#363636;
      }</style>
 </defs>
 <path class="ColorScheme-Text" d="m10.443 3.8164a0.75008 0.75008 0 0 0-0.44336 0.68359v4.832l-2.3516-1.4688a0.75 0.75 0 0 0-1.0352 0.23828 0.75 0.75 0 0 0 0.23828 1.0352l2.9805 1.8633-2.9805 1.8633a0.75 0.75 0 0 0-0.23828 1.0352 0.75 0.75 0 0 0 1.0352 0.23828l2.3516-1.4688v4.832a0.75008 0.75008 0 0 0 1.248 0.56055l4.5-4a0.75008 0.75008 0 0 0-0.09961-1.1973l-2.9805-1.8633 2.9805-1.8633a0.75008 0.75008 0 0 0 0.09961-1.1973l-4.5-4a0.75008 0.75008 0 0 0-0.80469-0.12305zm1.0566 2.3535 2.502 2.2246-2.502 1.5625zm0 5.873 2.502 1.5625-2.502 2.2246z" fill="currentColor"/>
</svg>
