<svg width="16" height="16" version="1.1" xmlns="http://www.w3.org/2000/svg">
 <path d="m6.2472 13.11c0.42745 0 0.74095-0.31921 0.74095-0.74102v-8.704c0-0.4275-0.3135-0.76951-0.75237-0.76951-0.29071 0-0.50161 0.1197-0.80941 0.4218l-2.3826 2.2287c-0.034204 0.034197-0.079802 0.051299-0.1311 0.051299h-1.6131c-0.8436 0-1.2996 0.4674-1.2996 1.3509v2.1204c0 0.8835 0.456 1.3509 1.2996 1.3509h1.6131c0.051299 0 0.091197 0.01712 0.1311 0.0513l2.3826 2.2458c0.28501 0.27362 0.52441 0.39334 0.82083 0.39334z" fill="#363636" stroke-width=".64854"/>
 <rect x="9" y="5" width="1" height="6" rx=".5" ry=".5" fill="#363636" style="paint-order:stroke fill markers"/>
 <rect x="11" y="4" width="1" height="8" rx=".5" ry=".5" fill="#363636" style="paint-order:stroke fill markers"/>
 <rect x="13" y="3" width="1" height="10" rx=".5" ry=".5" fill="#363636" style="paint-order:stroke fill markers"/>
</svg>
