<svg width="16px" height="16px" version="1.1" viewBox="0 0 16 16" xmlns="http://www.w3.org/2000/svg">
 <g fill="#363636">
  <path d="m6.9434 0.81623a0.75008 0.75008 0 0 0-0.44336 0.68359v4.832l-2.3516-1.4688a0.75 0.75 0 0 0-1.0352 0.23828 0.75 0.75 0 0 0 0.23828 1.0352l2.9805 1.8633-2.9805 1.8633a0.75 0.75 0 0 0-0.23828 1.0352 0.75 0.75 0 0 0 1.0352 0.23828l2.3516-1.4688v4.832a0.75008 0.75008 0 0 0 1.248 0.56055l4.5-4a0.75008 0.75008 0 0 0-0.09961-1.1973l-2.9805-1.8633 2.9805-1.8633a0.75008 0.75008 0 0 0 0.09961-1.1973l-4.5-4a0.75008 0.75008 0 0 0-0.80469-0.12305zm1.0566 2.3535 2.502 2.2246-2.502 1.5625zm0 5.873 2.502 1.5625-2.502 2.2246z" opacity=".35"/>
  <g stroke-linecap="round" stroke-linejoin="round" stroke-width="2">
   <circle cx="8" cy="8" r="1" stop-color="#000000"/>
   <circle cx="4" cy="8" r="1" stop-color="#000000"/>
   <circle cx="12" cy="8" r="1" stop-color="#000000"/>
  </g>
 </g>
</svg>
