<svg width="16" height="16" version="1.1" xmlns="http://www.w3.org/2000/svg">
 <g fill="#363636">
  <path d="m13 10c-1.108 0-2 0.892-2 2-0.554 0-1 0.446-1 1v2c0 0.554 0.446 1 1 1h4c0.554 0 1-0.446 1-1v-2c0-0.554-0.446-1-1-1 0-1.108-0.892-2-2-2zm0 1c0.554 0 1 0.446 1 1h-2c0-0.554 0.446-1 1-1z"/>
  <path d="m7.2207 0.75a0.75008 0.75008 0 0 0-0.27734 0.066406 0.75008 0.75008 0 0 0-0.44336 0.68359v4.832l-2.3516-1.4688a0.75 0.75 0 0 0-1.0352 0.23828 0.75 0.75 0 0 0 0.23828 1.0352l2.9805 1.8633-2.9805 1.8633a0.75 0.75 0 0 0-0.23828 1.0352 0.75 0.75 0 0 0 1.0352 0.23828l2.3516-1.4688v4.832a0.75008 0.75008 0 0 0 1.248 0.56055l0.75195-0.66797v-1.3926c0-0.2666 0.050448-0.51222 0.14062-0.73828l-0.64062 0.56836v-3.7871l2.0117 1.2559c0.25148-0.45025 0.59529-0.84084 1.0059-1.1426l-1.8496-1.1562 2.9805-1.8633a0.75008 0.75008 0 0 0 0.099609-1.1973l-4.5-4a0.75008 0.75008 0 0 0-0.52734-0.18945zm0.7793 2.4199 2.502 2.2246-2.502 1.5625v-3.7871z"/>
  <path d="m13 10c-1.108 0-2 0.892-2 2-0.554 0-1 0.446-1 1v2c0 0.554 0.446 1 1 1h4c0.554 0 1-0.446 1-1v-2c0-0.554-0.446-1-1-1 0-1.108-0.892-2-2-2zm0 1c0.554 0 1 0.446 1 1h-2c0-0.554 0.446-1 1-1z" color="#000000" stroke-linecap="round" stroke-linejoin="round" style="-inkscape-stroke:none"/>
 </g>
</svg>
