<svg width="16" height="16" version="1.1" xmlns="http://www.w3.org/2000/svg">
 <path class="error" d="m12.5 8c-1.933 0-3.5 1.567-3.5 3.5s1.567 3.5 3.5 3.5 3.5-1.567 3.5-3.5-1.567-3.5-3.5-3.5zm0 1c0.277 0 0.5 0.223 0.5 0.5v2c0 0.277-0.223 0.5-0.5 0.5s-0.5-0.223-0.5-0.5v-2c0-0.277 0.223-0.5 0.5-0.5zm-0.01172 4a0.5 0.5 0 0 1 0.01172 0 0.5 0.5 0 0 1 0.5 0.5 0.5 0.5 0 0 1-0.5 0.5 0.5 0.5 0 0 1-0.5-0.5 0.5 0.5 0 0 1 0.48828-0.5z" fill="#ff5555"/>
 <path d="m8 3a12 12 0 0 0-7.9629 3.0371l1.4316 1.4316a10 10 0 0 1 6.5312-2.4688 10 10 0 0 1 6.5527 2.4473l1.416-1.416a12 12 0 0 0-7.9688-3.0312z" fill="#363636"/>
 <path d="M 8,11 A 4,4 0 0 0 5.7207031,11.720703 L 8,14 8.4863281,13.513672 A 4.5,4.5 0 0 1 8,11.5 4.5,4.5 0 0 1 8.0351562,11.001953 4,4 0 0 0 8,11 Z" fill="#363636"/>
 <path d="m8 7a8 8 0 0 0-5.1289 1.8711l1.4258 1.4258a6 6 0 0 1 3.7031-1.2969 6 6 0 0 1 0.72852 0.046875 4.5 4.5 0 0 1 1.8477-1.6113 8 8 0 0 0-2.5762-0.43555z" fill="#363636"/>
</svg>
