<svg width="16" height="16" version="1.1" xmlns="http://www.w3.org/2000/svg">
 <path d="m8.0039 4c1.4026 0 2.5723 0.75403 2.5723 2.0527 0 0.91775-0.48436 1.367-1.2637 1.8691-0.51945 0.33767-0.79715 0.59698-0.81445 1.0039 0 0.025977-0.00977 0.069736-0.00977 0.095703-0.034636 0.32035-0.29282 0.57227-0.73438 0.57227-0.48485 4e-7 -0.74609-0.22556-0.74609-0.67578v-0.085938c0-0.7013 0.40682-1.1084 0.96094-1.498 0.65801-0.45888 0.98828-0.71913 0.98828-1.1953 1e-7 -0.52815-0.39811-0.88281-1.0215-0.88281-0.45888 0-0.79775 0.23428-1.0488 0.61523-0.23376 0.27706-0.34581 0.50977-0.80469 0.50977-0.36364 0-0.6582-0.23428-0.6582-0.61523 0-0.14719 0.018368-0.27664 0.070312-0.42383 0.25974-0.72727 1.1591-1.3418 2.5098-1.3418zm-0.25977 6.2773c0.51082 0 0.91797 0.3717 0.91797 0.86523 0 0.5022-0.41581 0.85742-0.91797 0.85742-0.50217 0-0.92578-0.36389-0.92578-0.85742 0-0.5022 0.41495-0.86523 0.92578-0.86523z" fill="#363636"/>
 <path d="m7.6992 0.18945-6 1.8926a1.0001 1.0001 0 0 0-0.69922 0.95508v6.5117c0 0.67569 0.041543 1.2365 0.27734 1.7793 0.2358 0.54275 0.62602 0.94234 1.082 1.334 1.0014 0.86012 2.6562 1.7228 5.166 3.0762a1.0001 1.0001 0 0 0 0.94531 0c2.4797-1.3259 4.1369-2.182 5.1465-3.0469 0.46163-0.39549 0.85521-0.7997 1.0957-1.3457s0.28711-1.1162 0.28711-1.7969v-6.5078a1.0001 1.0001 0 0 0-0.69922-0.95312l-6-1.8984a1.0001 1.0001 0 0 0-0.60156 0zm0.30078 2.002 5 1.582v5.7754c0 0.578-0.05068 0.83924-0.11719 0.99023-0.06651 0.151-0.18964 0.31031-0.56836 0.63476-0.5691 0.48753-2.2244 1.3988-4.3125 2.5234-2.1134-1.1474-3.7797-2.0716-4.3398-2.5527-0.37529-0.32231-0.48903-0.47116-0.55078-0.61328-0.061747-0.14212-0.11133-0.40197-0.11133-0.98242v-5.7793z" color="#000000" fill="#363636" stroke-linecap="round" stroke-linejoin="round" style="-inkscape-stroke:none"/>
</svg>
