<svg width="16" height="16" version="1.1" xmlns="http://www.w3.org/2000/svg">
 <path d="m5.5459 10.825c-0.38198 0-0.68469-0.30989-0.68469-0.69185 0-0.18016 0.072072-0.35318 0.20902-0.48291l1.9604-1.9604-1.9604-1.9676c-0.13694-0.12973-0.20902-0.2955-0.20902-0.47568 0-0.38919 0.3027-0.68469 0.68469-0.68469 0.20181 0 0.36037 0.064863 0.49009 0.2018l1.9676 1.9604 1.9747-1.9676c0.14416-0.14414 0.29554-0.2018 0.49013-0.2018 0.38197 0 0.68472 0.2955 0.68472 0.67748 0 0.18739-0.07208 0.34595-0.20902 0.48289l-1.9604 1.9748 1.9604 1.9531c0.12973 0.13694 0.20181 0.30275 0.20181 0.49013 0 0.38197-0.30275 0.69185-0.69194 0.69185-0.19459 0-0.36032-0.07922-0.49726-0.20181l-1.9532-1.9603-1.9532 1.9603c-0.12974 0.12973-0.3027 0.20181-0.50451 0.20181z" fill="#363636" stroke-width=".82002"/>
 <path d="m7.6992 0.18945-6 1.8926a1.0001 1.0001 0 0 0-0.69922 0.95508v6.5117c0 0.67569 0.041543 1.2365 0.27734 1.7793 0.2358 0.54275 0.62602 0.94234 1.082 1.334 1.0014 0.86012 2.6562 1.7228 5.166 3.0762a1.0001 1.0001 0 0 0 0.94531 0c2.4797-1.3259 4.1369-2.182 5.1465-3.0469 0.46163-0.39549 0.85521-0.7997 1.0957-1.3457s0.28711-1.1162 0.28711-1.7969v-6.5078a1.0001 1.0001 0 0 0-0.69922-0.95312l-6-1.8984a1.0001 1.0001 0 0 0-0.60156 0zm0.30078 2.002 5 1.582v5.7754c0 0.578-0.05068 0.83924-0.11719 0.99023-0.06651 0.151-0.18964 0.31031-0.56836 0.63476-0.5691 0.48753-2.2244 1.3988-4.3125 2.5234-2.1134-1.1474-3.7797-2.0716-4.3398-2.5527-0.37529-0.32231-0.48903-0.47116-0.55078-0.61328-0.061747-0.14212-0.11133-0.40197-0.11133-0.98242v-5.7793z" color="#000000" fill="#363636" stroke-linecap="round" stroke-linejoin="round" style="-inkscape-stroke:none"/>
</svg>
