<svg width="16" height="16" version="1.1" xmlns="http://www.w3.org/2000/svg">
 <path d="m7.9609-0.0058594c-0.39737 0.020013-0.71094 0.34749-0.71094 0.75v0.5c0 0.4155 0.3345 0.75 0.75 0.75 0.4155 0 0.75-0.3345 0.75-0.75v-0.5c0-0.4155-0.3345-0.75-0.75-0.75-0.01298 0-0.026242-6.4558e-4 -0.039062 0zm-5.127 2.125c-0.17957 0.00861-0.35642 0.082983-0.49414 0.2207-0.2938 0.2938-0.2938 0.76674 0 1.0605l0.35352 0.35352c0.2938 0.2938 0.76675 0.2938 1.0605 0 0.2938-0.2938 0.2938-0.76674 0-1.0605l-0.35352-0.35352c-0.15608-0.15608-0.3629-0.23046-0.56641-0.2207zm10.26 0c-0.17957 0.00861-0.35642 0.082983-0.49414 0.2207l-0.35352 0.35352c-0.2938 0.2938-0.2938 0.76674 0 1.0605 0.2938 0.2938 0.76674 0.2938 1.0605 0l0.35352-0.35352c0.2938-0.2938 0.2938-0.76674 0-1.0605-0.15608-0.15608-0.3629-0.23046-0.56641-0.2207zm-5.0938 0.88086a5 5 0 0 0-5 5 5 5 0 0 0 5 5 5 5 0 0 0 5-5 5 5 0 0 0-5-5zm-1.2559 1.7441a3.5 3.5 0 0 0-0.24414 1.2559 3.5 3.5 0 0 0 3.5 3.5 3.5 3.5 0 0 0 1.2559-0.24414 3.5 3.5 0 0 1-3.2559 2.2441 3.5 3.5 0 0 1-3.5-3.5 3.5 3.5 0 0 1 2.2441-3.2559zm-6.0391 2.5059c-0.39737 0.020013-0.71094 0.34749-0.71094 0.75 0 0.4155 0.3345 0.75 0.75 0.75h0.5c0.4155 0 0.75-0.3345 0.75-0.75s-0.3345-0.75-0.75-0.75h-0.5c-0.012984 0-0.026244-6.456e-4 -0.039062 0zm14.012 0c-0.39737 0.020013-0.71094 0.34749-0.71094 0.75 0 0.4155 0.3345 0.75 0.75 0.75h0.5c0.4155 0 0.75-0.3345 0.75-0.75s-0.3345-0.75-0.75-0.75h-0.5c-0.01298 0-0.026242-6.456e-4 -0.039062 0zm-11.494 4.7754c-0.19171 0-0.38239 0.0738-0.5293 0.2207l-0.35352 0.35352c-0.2938 0.2938-0.2938 0.76674 0 1.0605 0.2938 0.2938 0.76674 0.2938 1.0605 0l0.35352-0.35352c0.2938-0.2938 0.2938-0.76674 0-1.0605-0.1469-0.1469-0.33954-0.2207-0.53125-0.2207zm9.5547 0c-0.19171 0-0.38435 0.0738-0.53125 0.2207-0.2938 0.2938-0.2938 0.76674 0 1.0605l0.35352 0.35352c0.2938 0.2938 0.76675 0.2938 1.0605 0 0.2938-0.2938 0.2938-0.76674 0-1.0605l-0.35352-0.35352c-0.1469-0.1469-0.33758-0.2207-0.5293-0.2207zm-4.8164 1.9805c-0.39737 0.02001-0.71094 0.34749-0.71094 0.75v0.5c0 0.4155 0.3345 0.75 0.75 0.75 0.4155 0 0.75-0.3345 0.75-0.75v-0.5c0-0.4155-0.3345-0.75-0.75-0.75-0.01298 0-0.026242-6.46e-4 -0.039062 0z" fill="#363636"/>
</svg>
