<svg width="16" height="16" version="1.1" xmlns="http://www.w3.org/2000/svg">
 <rect x="7" width="2" height="8" rx="1" ry="1" fill="#363636" style="paint-order:stroke fill markers"/>
 <path d="m4.1152 2.4883a1 1 0 0 0-0.72461 0.24609c-1.5181 1.3284-2.3901 3.2484-2.3906 5.2656 0 3.8541 3.1459 7 7 7 3.8541 0 7-3.1459 7-7-0.0011-2.0176-0.87367-3.9377-2.3926-5.2656a1 1 0 0 0-1.4102 0.09375 1 1 0 0 0 0.09375 1.4102c1.0857 0.9492 1.7082 2.3196 1.709 3.7617 0 2.7733-2.2267 5-5 5-2.7733 0-5-2.2267-5-5 3.994e-4 -1.4418 0.62196-2.8122 1.707-3.7617a1 1 0 0 0 0.09375-1.4102 1 1 0 0 0-0.68555-0.33984z" color="#000000" fill="#363636" stroke-linecap="round" stroke-linejoin="round" style="-inkscape-stroke:none;paint-order:fill markers stroke"/>
</svg>
