<svg xmlns="http://www.w3.org/2000/svg" width="64" height="64" viewBox="0 0 16.933 16.933"><defs><linearGradient id="a" x1="8.471" x2="8.471" y1="15.249" y2="1.992" gradientTransform="translate(-.605 -.596)scale(1.0714)" gradientUnits="userSpaceOnUse"><stop offset="0" stop-color="#a7e788"/><stop offset="1" stop-color="#c8ffad"/></linearGradient><linearGradient id="b" x1="8.21" x2="8.21" y1="12.208" y2="5.009" gradientUnits="userSpaceOnUse"><stop offset="0" stop-color="#fff"/><stop offset="1" stop-color="#fff" stop-opacity=".75"/></linearGradient></defs><rect width="15.875" height="15.875" x=".529" y=".529" fill="url(#a)" rx="7.937" ry="7.937"/><path fill="url(#b)" fill-rule="evenodd" d="M12.796 12.408c0-1.418-2.406-2.141-3.366-2.398 0 0 .04-.796.133-1.087.092-.292.106-.623.145-.716.04-.092.509-.517.535-.914-.006-.237-.053-.293-.17-.293V5.767c0-.665-.97-1.246-1.607-1.246-.636 0-1.606.581-1.606 1.246V7c-.117 0-.164.056-.17.293.026.397.495.822.535.914s.052.424.145.716c.093.291.133 1.086.133 1.086-.96.258-3.366.981-3.366 2.399z"/></svg>