<svg width="16" height="16" version="1.1" xmlns="http://www.w3.org/2000/svg">
 <title>Gnome Symbolic Icon Theme</title>
 <g transform="translate(-62.969 -174.97)">
  <path transform="translate(62.969,174.97)" d="m2.5 0c-1.3807 0-2.5 1.1193-2.5 2.5 0.002889 1.1857 0.83826 2.2063 2 2.4434v6.1133c-1.1617 0.23714-1.9971 1.2577-2 2.4434 0 1.3807 1.1193 2.5 2.5 2.5 1.1857-0.0029 2.2063-0.83826 2.4434-2h6.1133c0.23714 1.1617 1.2577 1.9971 2.4434 2 1.3807 0 2.5-1.1193 2.5-2.5-1.38e-4 -1.1879-0.83613-2.2116-2-2.4492v-6.1074c1.1617-0.23714 1.9971-1.2577 2-2.4434 0-1.3807-1.1193-2.5-2.5-2.5-1.1857 0.002889-2.2063 0.83826-2.4434 2h-6.1074c-0.23757-1.1639-1.2613-1.9999-2.4492-2zm2.4434 3h6.1133c0.06945 0.30823 0.1967 0.6005 0.375 0.86133l-0.28516 0.28516c-0.20187-0.096426-0.42276-0.14647-0.64648-0.14648-0.6342 0.0017-1.1988 0.40207-1.4102 1h-2.1758c-0.21188-0.59928-0.77847-0.99995-1.4141-1-0.22014 0.00629-0.43619 0.060967-0.63281 0.16016l-0.29883-0.29883c0.17831-0.26083 0.30555-0.5531 0.375-0.86133zm-1.082 1.5684 0.29883 0.29883c-0.099193 0.19662-0.15387 0.41267-0.16016 0.63281 0.0017 0.6342 0.40207 1.1988 1 1.4102v2.1797c-0.59793 0.2114-0.9983 0.776-1 1.4102 0.00629 0.22014 0.060967 0.43619 0.16016 0.63281l-0.29297 0.29297c-0.2626-0.17898-0.55692-0.30625-0.86719-0.375v-6.1074c0.30823-0.069449 0.6005-0.19669 0.86133-0.375zm8.2773 0c0.26083 0.17831 0.5531 0.30555 0.86133 0.375v6.1133c-0.30823 0.06945-0.6005 0.1967-0.86133 0.375l-0.29883-0.29883c0.09919-0.19662 0.15387-0.41267 0.16016-0.63281-4.8e-5 -0.63563-0.40072-1.2022-1-1.4141v-2.1758c0.59793-0.2114 0.9983-0.776 1-1.4102-5e-6 -0.22372-0.05005-0.44461-0.14648-0.64648l0.28516-0.28516zm-5.2285 1.4316h2.1797c0.15119 0.42475 0.48541 0.75897 0.91016 0.91016v2.1797c-0.42475 0.15119-0.75897 0.48541-0.91016 0.91016h-2.1758c-0.15103-0.42708-0.48698-0.76303-0.91406-0.91406v-2.1758c0.42475-0.15119 0.75897-0.48541 0.91016-0.91016zm0 5h2.1797c0.2114 0.59793 0.776 0.9983 1.4102 1 0.22014-0.0063 0.43619-0.06097 0.63281-0.16016l0.29883 0.29883c-0.1783 0.26083-0.30555 0.5531-0.375 0.86133h-6.1074c-0.068746-0.31027-0.19602-0.60459-0.375-0.86719l0.29297-0.29297c0.19662 0.09919 0.41267 0.15387 0.63281 0.16016 0.6342-0.0017 1.1988-0.40207 1.4102-1z" color="#000000" enable-background="new" fill="#363636" style="text-decoration-line:none;text-indent:0;text-transform:none"/>
 </g>
</svg>
