<svg width="22" height="22" version="1.1" xmlns="http://www.w3.org/2000/svg">
 <defs>
  <style id="current-color-scheme" type="text/css">.ColorScheme-Text { color:#f2f2f2; } .ColorScheme-Highlight { color:#4285f4; }</style>
 </defs>
 <path class="ColorScheme-Text" d="m11 3a8 8 0 0 0-8 8 8 8 0 0 0 8 8 8 8 0 0 0 8-8 8 8 0 0 0-1.2676-4.3164 8 8 0 0 0-0.28516-0.41797 8 8 0 0 0-0.29883-0.37891 8 8 0 0 0-0.013672-0.019531 8 8 0 0 0-6.1348-2.8672zm-0.09375 1a7 7 0 0 1 0.09375 0 7 7 0 0 1 5.4238 2.5781l-5.4238 5.4219-2.8262-2.8281-0.70703 0.70703 3.5352 3.5352 6.0059-6.0059a7 7 0 0 1 0.99219 3.5918 7 7 0 0 1-7 7 7 7 0 0 1-7-7 7 7 0 0 1 6.9062-7z" fill="currentColor"/>
</svg>
