<svg xmlns="http://www.w3.org/2000/svg" width="22" height="22">
 <defs>
  <style id="current-color-scheme" type="text/css">.ColorScheme-Text {
                color:#f2f2f2;
            }</style>
 </defs>
<path class="ColorScheme-Text" fill="currentColor" d="M9 6 6 9H4c-.554 0-1 .445-1 1v2c0 .553.446 1 1 1h2l3 3z"/>
<path d="M15.738 4.29c-.375.027-.624.489-.283.87A8 8 0 0 1 18 11a8 8 0 0 1-2.555 5.85c-.445.472.18 1.15.678.73A9 9 0 0 0 19 11a9 9 0 0 0-2.861-6.573.58.58 0 0 0-.4-.137m-2.39 1.416c-.396.012-.643.534-.256.914A6 6 0 0 1 15 11a6 6 0 0 1-1.916 4.388c-.468.446.173 1.147.68.728A7 7 0 0 0 16 11a7 7 0 0 0-2.225-5.111c-.147-.134-.296-.186-.427-.182m-2.33 1.477c-.377.016-.645.513-.292.896A4 4 0 0 1 12 11a4 4 0 0 1-1.277 2.926c-.473.43.14 1.152.68.73A5 5 0 0 0 13 11a5 5 0 0 0-1.59-3.65.54.54 0 0 0-.392-.166" style="fill:#da4453"/>
</svg>
