<svg xmlns="http://www.w3.org/2000/svg" width="22" height="22">
 <defs>
  <style id="current-color-scheme" type="text/css">.ColorScheme-Text {
                color:#f2f2f2;
            }</style>
 </defs>
<g>
<path d="M6 3 3 6H1c-.554 0-1 .446-1 1v2c0 .554.446 1 1 1h2l3 3z" class="ColorScheme-Text" fill="currentColor" transform="translate(3 3)"/>
<path d="M12.738 1.291c-.376.027-.625.488-.283.87A8 8 0 0 1 15 8a8 8 0 0 1-2.555 5.852c-.445.471.18 1.148.678.728A9 9 0 0 0 16 8a9 9 0 0 0-2.862-6.572.58.58 0 0 0-.4-.137m-2.39 1.416c-.396.012-.643.534-.256.914A6 6 0 0 1 12 8a6 6 0 0 1-1.916 4.389c-.469.446.173 1.146.68.728A7 7 0 0 0 13 8a7 7 0 0 0-2.225-5.111c-.147-.134-.296-.186-.428-.182m-2.33 1.477c-.377.016-.645.513-.292.896A4 4 0 0 1 9 8a4 4 0 0 1-1.278 2.926c-.472.43.14 1.152.68.73A5 5 0 0 0 10 8a5 5 0 0 0-1.59-3.65.54.54 0 0 0-.393-.166" style="fill:#27ae60" transform="translate(3 3)"/>
</g>
</svg>
