<svg width="22" height="22" xmlns="http://www.w3.org/2000/svg"><defs><style id="current-color-scheme" type="text/css"></style></defs><g fill="#fff" fill-rule="evenodd"><path d="M12 5c-1.662 0-3 1.338-3 3v4c0 1.662 1.338 3 3 3s3-1.338 3-3V8c0-1.662-1.338-3-3-3zm-1.5 3c.277 0 .5.223.5.5v3a.499.499 0 11-1 0v-3c0-.277.223-.5.5-.5zm3 0c.277 0 .5.223.5.5v3a.499.499 0 11-1 0v-3c0-.277.223-.5.5-.5z"/><path d="M7.5 10c-.277 0-.5.223-.5.5V12c0 2.6 1.967 4.725 4.5 4.975V18h-2a.499.499 0 100 1h5a.499.499 0 100-1h-2v-1.025A4.988 4.988 0 0017 12v-1.5a.499.499 0 10-1 0V12c0 2.216-1.784 4-4 4s-4-1.784-4-4v-1.5c0-.277-.223-.5-.5-.5z"/></g></svg>