<svg width="22" height="22" version="1.1" xmlns="http://www.w3.org/2000/svg">
 <defs>
  <style id="current-color-scheme" type="text/css">.ColorScheme-Text {
                color:#ffffff;
            }
            .ColorScheme-PositiveText {
                color:#27ae60;
            }</style>
 </defs>
 <g class="ColorScheme-Text" transform="translate(1,3)" fill="currentColor">
  <path d="m8.834 4-3.334 5h3l-0.75 3h0.416l3.334-5h-3l0.75-3z" color="#ffffff" fill="#ffffff" stroke-linecap="round" stroke-linejoin="round" style="-inkscape-stroke:none"/>
  <path d="m2.5918 5c-0.32761 0-0.5918 0.26418-0.5918 0.5918v4.8164c0 0.32761 0.26418 0.5918 0.5918 0.5918h4.377l0.25-1h-1.7188c-0.79859-1.712e-4 -1.2749-0.89013-0.83203-1.5547l2.2969-3.4453z"/>
  <path d="m2 3c-1.108 0-2 0.892-2 2v6c0 1.108 0.892 2 2 2h13c1.108 0 2-0.892 2-2v-6c0-1.108-0.892-2-2-2zm0 1h13c0.554 0 1 0.446 1 1v6c0 0.554-0.446 1-1 1h-13c-0.554 0-1-0.446-1-1v-6c0-0.554 0.446-1 1-1zm16 2v4a2 2 0 0 0 2-2 2 2 0 0 0-2-2z"/>
 </g>
</svg>
