<svg width="22" height="22" xmlns="http://www.w3.org/2000/svg"><g fill="#fff"><path d="M4 7c-1.108 0-2 .892-2 2v6c0 1.108.892 2 2 2h13c1.108 0 2-.892 2-2V9c0-1.108-.892-2-2-2zm0 1h13c.554 0 1 .446 1 1v6c0 .554-.446 1-1 1H4c-.554 0-1-.446-1-1V9c0-.554.446-1 1-1zM20 10v4a2 2 0 002-2 2 2 0 00-2-2z" fill-rule="evenodd" paint-order="stroke fill markers"/><path d="M10.834 8L7.5 13h3l-.75 3h.416l3.334-5h-3l.75-3z"/><path d="M4.482 9C4.215 9 4 9.243 4 9.545v4.91c0 .303.215.545.482.545h2.036c.267 0 .482-.242.482-.545v-.592a.998.998 0 01-.332-1.418L7 11.947V9.545C7 9.243 6.785 9 6.518 9H4.482z" fill-rule="evenodd" paint-order="stroke fill markers"/></g></svg>