<svg width="22" height="22" xmlns="http://www.w3.org/2000/svg"><g fill="#fff"><path d="M10.834 8L7.5 13h3l-.75 3h.416l3.334-5h-3l.75-3z"/><g fill-rule="evenodd" paint-order="stroke fill markers"><path d="M4 7c-1.108 0-2 .892-2 2v6c0 1.108.892 2 2 2h13c1.108 0 2-.892 2-2V9c0-1.108-.892-2-2-2zm0 1h13c.554 0 1 .446 1 1v6c0 .554-.446 1-1 1H4c-.554 0-1-.446-1-1V9c0-.554.446-1 1-1z"/><path d="M4.55 9a.55.55 0 00-.55.55v4.9c0 .304.246.55.55.55H8.97l.25-1H7.5a1 1 0 01-.832-1.555L8.965 9H4.55zm7.481 0l-.25 1h1.72c.187 0 .355.053.5.137V9.55A.55.55 0 0013.448 9h-1.418zm1.97 3.053L12.034 15h1.414a.55.55 0 00.551-.55v-2.397zM20 10v4a2 2 0 002-2 2 2 0 00-2-2z"/></g></g></svg>