<svg width="22" height="22" version="1.1" xmlns="http://www.w3.org/2000/svg">
 <defs>
  <style id="current-color-scheme" type="text/css">.ColorScheme-Text {
                color:#ffffff;
            }
            .ColorScheme-PositiveText {
                color:#27ae60;
            }</style>
 </defs>
 <g class="ColorScheme-Text" transform="translate(1,3)" color="#ffffff" fill="currentColor">
  <path d="m8.834 4-3.334 5h3l-0.75 3h0.416l3.334-5h-3l0.75-3z"/>
  <path d="m2.5527 5c-0.30617 0-0.55273 0.24656-0.55273 0.55273v4.8945c0 0.30617 0.24656 0.55273 0.55273 0.55273h3.8945c0.30617 0 0.55273-0.24656 0.55273-0.55273v-0.44727h-1.5a1.0001 1.0001 0 0 1-0.83203-1.5547l2.1816-3.2715c-0.10064-0.10675-0.24337-0.17383-0.40234-0.17383h-3.8945z"/>
  <path d="m2 3c-1.108 0-2 0.892-2 2v6c0 1.108 0.892 2 2 2h13c1.108 0 2-0.892 2-2v-6c0-1.108-0.892-2-2-2zm0 1h13c0.554 0 1 0.446 1 1v6c0 0.554-0.446 1-1 1h-13c-0.554 0-1-0.446-1-1v-6c0-0.554 0.446-1 1-1zm16 2v4a2 2 0 0 0 2-2 2 2 0 0 0-2-2z"/>
 </g>
</svg>
