<svg width="22" height="22" xmlns="http://www.w3.org/2000/svg"><g fill="#fff"><path d="M10.496 9c.493 0 .894.147 1.203.44.31.287.463.655.463 1.105 0 .195-.051.393-.154.594s-.194.343-.276.43a6.467 6.467 0 01-.326.318l-.039.04c-.33.299-.496.595-.496.893v.327h-.766v-.383c0-.244.052-.452.155-.625.103-.18.285-.389.545-.627.146-.136.249-.236.308-.301a1.22 1.22 0 00.188-.283.82.82 0 00.097-.383c0-.25-.081-.45-.244-.602-.157-.151-.376-.228-.658-.228-.466 0-.785.26-.959.781l-.7-.293a2.05 2.05 0 01.587-.83c.282-.25.638-.373 1.072-.373zm-.008 4.894c.157 0 .288.054.39.163.11.108.163.238.163.39s-.054.282-.162.39c-.103.11-.234.163-.39.163a.543.543 0 01-.553-.553.541.541 0 01.553-.553z" fill="#f55"/><path d="M4 7c-1.108 0-2 .892-2 2v6c0 1.108.892 2 2 2h13c1.108 0 2-.892 2-2V9c0-1.108-.892-2-2-2zm0 1h13c.554 0 1 .446 1 1v6c0 .554-.446 1-1 1H4c-.554 0-1-.446-1-1V9c0-.554.446-1 1-1zM20 10v4a2 2 0 002-2 2 2 0 00-2-2z" fill-rule="evenodd" paint-order="stroke fill markers"/></g></svg>