<svg width="22" height="22" version="1.1" xmlns="http://www.w3.org/2000/svg">
 <defs>
  <style id="current-color-scheme" type="text/css">.ColorScheme-Text {
                color:#f2f2f2;
            }</style>
 </defs>
 <g class="ColorScheme-Text" transform="translate(1,3)" fill="currentColor">
  <path d="m2.5977 5c-0.33107 0-0.59766 0.26659-0.59766 0.59766v4.8047c0 0.33107 0.26659 0.59766 0.59766 0.59766h4.3711l0.25-1h-1.7188c-0.79859-1.712e-4 -1.2749-0.89013-0.83203-1.5547l2.2969-3.4453zm7.3477 0.34766-0.16406 0.65234h0.21875v-0.40234c0-0.089564-0.019674-0.17388-0.054687-0.25z" stroke-width="1.069"/>
  <path d="m8.834 4-3.334 5h3l-0.75 3h0.416l3.334-5h-3l0.75-3z" color="#f2f2f2" fill="#f2f2f2" stroke-linecap="round" stroke-linejoin="round" style="-inkscape-stroke:none"/>
  <path d="m2 3c-1.108 0-2 0.892-2 2v6c0 1.108 0.892 2 2 2h13c1.108 0 2-0.892 2-2v-6c0-1.108-0.892-2-2-2zm0 1h13c0.554 0 1 0.446 1 1v6c0 0.554-0.446 1-1 1h-13c-0.554 0-1-0.446-1-1v-6c0-0.554 0.446-1 1-1zm16 2v4a2 2 0 0 0 2-2 2 2 0 0 0-2-2z"/>
 </g>
</svg>
