<svg width="22" height="22" xmlns="http://www.w3.org/2000/svg"><path d="M11.5 5c-.277 0-.5.223-.5.5v4.875l-1.719-1.5c-.312-.273-.757-.22-1.03.094a.753.753 0 00.062 1.062L10.563 12l-2.25 1.969a.753.753 0 00-.063 1.062c.274.313.719.367 1.031.094l1.72-1.5V18.5c0 .277.222.5.5.5.282 0 .437-.02.655-.188l3.532-3.156a.78.78 0 00.218-.375.745.745 0 00.032-.281.723.723 0 00-.032-.156.78.78 0 00-.218-.375l-2.813-2.47 2.813-2.468a.78.78 0 00.218-.375.712.712 0 000-.437.78.78 0 00-.218-.375l-3.532-3.157C11.957 5.027 11.729 5 11.5 5zm.5 2.063l2.094 1.875L12 10.75zm0 6.187l2.094 1.813L12 16.938z" color="#bebebe" fill="#fff" opacity=".35" overflow="visible"/></svg>