<svg width="22" height="22" xmlns="http://www.w3.org/2000/svg"><path d="M17 13c-1.108 0-2 .911-2 2.031v.97h-1v4h6v-4h-1v-.97c0-1.12-.892-2.03-2-2.03zm0 1c.554 0 1 .443 1 1v1h-2v-1c0-.557.446-1 1-1z" fill="#fff"/><path d="M11.5 5c-.277 0-.5.223-.5.5v4.875l-1.719-1.5c-.312-.273-.756-.22-1.03.094a.753.753 0 00.061 1.062L10.562 12l-2.25 1.969a.753.753 0 00-.062 1.062c.274.313.72.367 1.031.094l1.72-1.5V18.5c0 .277.223.5.5.5.283 0 .437-.02.655-.188L13 18.06V16.04l-1 .896V13.25l2.014 1.744a3.043 3.043 0 01.474-1.578L12.875 12l2.812-2.469a.78.78 0 00.22-.375.712.712 0 000-.437.78.78 0 00-.22-.375l-3.53-3.157c-.2-.16-.428-.187-.657-.187zm.5 2.062l2.094 1.875L12 10.75z" color="#bebebe" fill="#fff"/></svg>