<svg width="22" height="22" xmlns="http://www.w3.org/2000/svg"><path d="M11.51 5c-.277 0-.5.222-.5.5v4.874l-1.719-1.5c-.313-.273-.758-.219-1.031.094a.753.753 0 00.062 1.063l2.25 1.968-2.25 1.97a.753.753 0 00-.062 1.062c.273.312.718.367 1.031.093l1.719-1.5v4.875c0 .277.223.5.5.5.282 0 .437-.02.656-.187l3.531-3.156a.78.78 0 00.22-.375.745.745 0 00.03-.282.723.723 0 00-.03-.156.78.78 0 00-.22-.375l-2.812-2.469 2.812-2.468a.78.78 0 00.22-.375.712.712 0 000-.438.78.78 0 00-.22-.375l-3.53-3.156c-.2-.161-.428-.188-.657-.188zm.5 2.062l2.094 1.875-2.094 1.812zm0 6.187l2.094 1.813-2.094 1.875zm8.049 4.75a2 2 0 00-2.059 2 2 2 0 104 0 2 2 0 00-1.941-2z" fill="#fff" overflow="visible"/></svg>