<svg version="1.1" viewBox="0 0 22 22" xmlns="http://www.w3.org/2000/svg">
 <defs>
  <style id="current-color-scheme" type="text/css">.ColorScheme-Text {
                color:#f2f2f2;
            }</style>
 </defs>
 <path class="ColorScheme-Text" d="m11 7c-2.2032 0-4 1.7968-4 4s1.7968 4 4 4 4-1.7968 4-4-1.7968-4-4-4zm0 1c1.6628 0 3 1.3372 3 3s-1.3372 3-3 3-3-1.3372-3-3 1.3372-3 3-3z" fill="currentColor"/>
 <path class="ColorScheme-Text" d="m11 7.75v6.5h2.1667l1.0833-2.1667v-2.1667l-1.0833-2.1667z" fill="currentColor"/>
 <path class="ColorScheme-Text" d="m11 3c-0.277 0-0.5 0.223-0.5 0.5v2c0 0.277 0.223 0.5 0.5 0.5s0.5-0.223 0.5-0.5v-2c0-0.277-0.223-0.5-0.5-0.5zm-7.4994 7.5c-0.277 0-0.5 0.223-0.5 0.5s0.223 0.5 0.5 0.5h2c0.277 0 0.5-0.223 0.5-0.5s-0.223-0.5-0.5-0.5zm13 0c-0.277 0-0.5 0.223-0.5 0.5s0.223 0.5 0.5 0.5h2c0.277 0 0.5-0.223 0.5-0.5s-0.223-0.5-0.5-0.5zm-5.4996 5.5c-0.277 0-0.5 0.223-0.5 0.5v2c0 0.277 0.223 0.5 0.5 0.5s0.5-0.223 0.5-0.5v-2c0-0.277-0.223-0.5-0.5-0.5z" fill="currentColor"/>
 <path class="ColorScheme-Text" d="m16.657 5.3427c-0.19587-0.19587-0.51124-0.19587-0.70711 0l-1.4142 1.4142c-0.19587 0.19587-0.19587 0.51124 0 0.70711 0.19587 0.19587 0.51124 0.19587 0.70711 0l1.4142-1.4142c0.19587-0.19587 0.19587-0.51124 0-0.70711zm-10.606 4.242e-4c-0.19587-0.19587-0.51124-0.19587-0.70711 0-0.19587 0.19587-0.19587 0.51124 0 0.70711l1.4142 1.4142c0.19587 0.19587 0.51124 0.19587 0.70711 0s0.19587-0.51124 0-0.70711zm9.1924 9.1924c-0.19587-0.19587-0.51124-0.19587-0.70711 0-0.19587 0.19587-0.19587 0.51124 0 0.70711l1.4142 1.4142c0.19587 0.19587 0.51124 0.19587 0.70711 0 0.19587-0.19587 0.19587-0.51124 0-0.70711zm-7.7779 3.04e-4c-0.19587-0.19587-0.51124-0.19587-0.70711 0l-1.4142 1.4142c-0.19587 0.19587-0.19587 0.51124 0 0.70711 0.19587 0.19587 0.51124 0.19587 0.70711 0l1.4142-1.4142c0.19587-0.19587 0.19587-0.51124 0-0.70711z" fill="currentColor"/>
</svg>
