<svg xmlns="http://www.w3.org/2000/svg" viewBox="0 0 22 22"><path d="M11 3.088a7.91 7.91 0 00-7.91 7.91 7.91 7.91 0 007.91 7.91 7.91 7.91 0 007.91-7.91A7.91 7.91 0 0011 3.088zm0 .873a.75.75 0 110 1.5.75.75 0 010-1.5zm-.002 2.037a5.008 5.008 0 015.002 5c0 2.757-2.245 5-5.002 5a5.004 5.004 0 01-4.998-5c0-2.756 2.241-5 4.998-5zm.002 1.5c-1.93 0-3.5 1.57-3.5 3.5s1.57 3.5 3.5 3.5 3.5-1.57 3.5-3.5-1.57-3.5-3.5-3.5zm-1.219 1.5c.09 0 .166.03.229.1l.99.99.99-.99c.06-.07.14-.1.229-.1.09 0 .165.03.228.1l.459.455a.309.309 0 01.094.228c0 .09-.031.166-.094.227l-.99.99.99.992a.317.317 0 01.094.229c0 .09-.031.167-.094.23l-.459.457a.307.307 0 01-.228.092.306.306 0 01-.229-.092l-.99-.99-.99.99a.31.31 0 01-.229.092.307.307 0 01-.228-.092l-.463-.457a.322.322 0 01-.09-.23c0-.091.03-.161.09-.229l.99-.992-.99-.99A.311.311 0 019 9.781c0-.09.03-.165.09-.228l.463-.455a.29.29 0 01.228-.1z" fill-rule="evenodd" stroke="#fff" stroke-linecap="round" stroke-width=".179" fill="#fff"/></svg>