<svg version="1.1" viewBox="0 0 22 22" xmlns="http://www.w3.org/2000/svg">
 <defs>
  <style id="current-color-scheme" type="text/css">.ColorScheme-Text {
                color:#f2f2f2;
            }
            .ColorScheme-NeutralText {
                color:#f67400;
            }</style>
 </defs>
 <path class="ColorScheme-NeutralText" d="m16 12c-1.6569 0-3 0.44772-3 1v5c0 0.55228 1.3431 1 3 1s3-0.44772 3-1v-5c0-0.55228-1.3431-1-3-1zm-0.1 1c0.03333-1.85e-4 0.06667-1.85e-4 0.1 0 0.73919 8.7e-4 1.4514 0.09268 2 0.25781v0.48219c-0.54764 0.16593-1.2599 0.25853-2 0.26-0.75636-0.01228-1.4708-0.11944-2-0.3v-0.5c0.54648-0.13687 1.2168-0.20743 1.9-0.2zm-1.9 1.74c0.54764 0.16593 1.2599 0.25853 2 0.26 0.74006-0.0015 1.4524-0.09407 2-0.26v1c-0.54764 0.16593-1.2599 0.25853-2 0.26-0.75636-0.01228-1.4708-0.11944-2-0.3z" fill="currentColor"/>
 <path class="ColorScheme-Text" d="m7 3c-1.662 0-3 1.338-3 3v10c0 1.662 1.338 3 3 3h5v-3h-5l-2-2v-2.0996c0.6-0.2 1-0.80039 1-1.4004s-0.4-1.2004-1-1.4004v-3.0996c0-1.108 0.892-2 2-2h6c1.108 0 2 0.892 2 2v3.0996c-0.6 0.2-1 0.80039-1 1.4004 6.76e-4 0.2-3.92e-4 0.3 0.09961 0.5h1.9004v-5c0-1.662-1.338-3-3-3zm0 14a0.5 0.5 0 0 1 0.025391 0h3.9746v1h-4a0.5 0.5 0 0 1-0.5-0.5 0.5 0.5 0 0 1 0.5-0.5z" fill="currentColor"/>
</svg>
