<svg height="24" width="24" xmlns="http://www.w3.org/2000/svg"><path color="#000" d="M11.25 5a.25.25 0 00-.25.25v1.5c0 .139.112.25.25.25h.5a.25.25 0 00.25-.25v-1.5a.25.25 0 00-.25-.25zM6.551 6.947a.25.25 0 00-.178.073l-.353.353a.25.25 0 000 .354l1.06 1.06a.25.25 0 00.354 0l.353-.353a.25.25 0 000-.354l-1.06-1.06a.246.246 0 00-.176-.073zm9.898 0a.246.246 0 00-.175.073l-1.06 1.06a.25.25 0 000 .354l.353.353a.25.25 0 00.353 0l1.06-1.06a.25.25 0 000-.354l-.353-.353a.25.25 0 00-.178-.073zM11.5 9A3.5 3.5 0 008 12.5a3.5 3.5 0 003.5 3.5 3.5 3.5 0 003.5-3.5A3.5 3.5 0 0011.5 9zm0 1a2.5 2.5 0 012.5 2.5 2.5 2.5 0 01-2.5 2.5A2.5 2.5 0 019 12.5a2.5 2.5 0 012.5-2.5zm-7.25 2a.25.25 0 00-.25.25v.5c0 .139.112.25.25.25h1.5a.25.25 0 00.25-.25v-.5a.25.25 0 00-.25-.25zm13 0a.25.25 0 00-.25.25v.5c0 .139.112.25.25.25h1.5a.25.25 0 00.25-.25v-.5a.25.25 0 00-.25-.25zm-9.992 4.139a.252.252 0 00-.178.074l-1.06 1.06a.25.25 0 000 .354l.353.353a.25.25 0 00.354 0l1.06-1.06a.25.25 0 000-.354l-.353-.353a.248.248 0 00-.176-.074zm8.484 0a.248.248 0 00-.175.074l-.354.353a.25.25 0 000 .354l1.06 1.06a.25.25 0 00.354 0l.354-.353a.25.25 0 000-.354l-1.06-1.06a.252.252 0 00-.179-.074zM11.25 18a.25.25 0 00-.25.25v1.5c0 .139.112.25.25.25h.5a.25.25 0 00.25-.25v-1.5a.25.25 0 00-.25-.25z" fill="#fff" overflow="visible" style="isolation:auto;mix-blend-mode:normal;marker:none"/></svg>