<svg xmlns="http://www.w3.org/2000/svg" width="22" height="22">
 <defs>
  <style id="current-color-scheme" type="text/css">.ColorScheme-Text {
                color:#f2f2f2;
            }</style>
 </defs>
<path fill="currentColor" d="m9.68 4.615.64.77L8.385 7H16v10H6V7h.818zM7 8v2h6v1H7v2h6v1H7v2h8V8Z" class="ColorScheme-Text"/>
<path fill="currentColor" d="M6 3C4.34 3 3 4.338 3 6v10c0 1.662 1.339 3 3 3h10c1.661 0 3-1.338 3-3V6c0-1.662-1.339-3-3-3zm0 1h10c1.107 0 2 .892 2 2v10c0 1.108-.893 2-2 2H6c-1.107 0-2-.892-2-2V6c0-1.108.893-2 2-2" class="ColorScheme-Text"/>
</svg>
