<svg xmlns="http://www.w3.org/2000/svg" width="22" height="22">
 <defs>
  <style id="current-color-scheme" type="text/css">.ColorScheme-Text {
                color:#f2f2f2;
            }</style>
 </defs>
<path fill="currentColor" d="M10.902 5.503a5.5 5.5 0 0 1 3.65 1.293l-1.292 1.53a3.49 3.49 0 0 0-4.61.081 3.49 3.49 0 0 0-.527 4.582 3.49 3.49 0 0 0 4.47 1.129 3.46 3.46 0 0 0 1.747-2.111h-3.336v-2l5.398-.006c.434 2.355-.709 4.781-2.898 5.898a5.51 5.51 0 0 1-7.025-1.771 5.516 5.516 0 0 1 .825-7.201 5.5 5.5 0 0 1 3.597-1.424z" class="ColorScheme-Text"/>
<path fill="currentColor" d="M6 3C4.34 3 3 4.338 3 6v10c0 1.662 1.339 3 3 3h10c1.661 0 3-1.338 3-3V6c0-1.662-1.339-3-3-3zm0 1h10c1.107 0 2 .892 2 2v10c0 1.108-.893 2-2 2H6c-1.107 0-2-.892-2-2V6c0-1.108.893-2 2-2" class="ColorScheme-Text"/>
</svg>
