<svg xmlns="http://www.w3.org/2000/svg" width="22" height="22">
 <defs>
  <style id="current-color-scheme" type="text/css">.ColorScheme-Text {
                color:#f2f2f2;
            }</style>
 </defs>
<style id="current-color-scheme" type="text/css">.ColorScheme-Text{color:#f2f2f2}</style>
<path fill="currentColor" d="m11.301 4.6-.602.8 2 1.5.602-.8zm-5.947.046-.707.708 2 2 .707-.708zM8 7v1h4v3H9v1h3v4H8v1h9v-1h-4v-4h3v-1h-3V8h4V7zm-2.646.646-.707.707 2 2 .707-.707zm1.172 3.196-2 6 .949.316 2-6z" class="ColorScheme-Text"/>
<path fill="currentColor" d="M6 3C4.338 3 3 4.338 3 6v10c0 1.662 1.338 3 3 3h10c1.662 0 3-1.338 3-3V6c0-1.662-1.338-3-3-3zm0 1h10c1.108 0 2 .892 2 2v10c0 1.108-.892 2-2 2H6c-1.108 0-2-.892-2-2V6c0-1.108.892-2 2-2" class="ColorScheme-Text"/>
</svg>
