<svg xmlns="http://www.w3.org/2000/svg" width="22" height="22">
 <defs>
  <style id="current-color-scheme" type="text/css">.ColorScheme-Text {
                color:#f2f2f2;
            }</style>
 </defs>
<path class="ColorScheme-Text" fill="currentColor" d="M6 3C4.338 3 3 4.338 3 6v10c0 1.662 1.338 3 3 3h11c1.108 0 2-.892 2-2v-4l-.002-.041V6c0-1.662-1.338-3-3-3zm0 1h9.998c1.108 0 2 .892 2 2v5.266A2 2 0 0 0 17 11h-2V8h2V7h-2.375L15.9 5.3l-.8-.6-1.5 2 .398.3h-1.996l.398-.3-1.5-2-.8.6L11.375 7H10v1h1v3H9.117l.106-.05-.446-.9-.777.39V8h1V7H8V5H7v2H5v1h2v2.94l-2.223 1.11.446.9L7 12.06V16H5v1h3v-5.44l1-.5V12h1.96c-.088.9-.391 1.61-.792 2.31-.497.86-1.51 1.827-1.51 1.827l.684.728s1.034-.951 1.658-2V17c0 .365.098.706.267 1H6c-1.108 0-2-.892-2-2V6c0-1.108.892-2 2-2zm6 4h2v3h-2zm.863 5.86c.207 0 .423.044.6.122l-.111.305a1.5 1.5 0 0 0-.51-.09c-.261 0-.405.091-.405.25 0 .42 1.096.158 1.096.91 0 .39-.308.643-.814.643-.24 0-.497-.062-.719-.164l.111-.313c.207.087.438.13.627.13.255 0 .389-.094.389-.247 0-.422-1.092-.19-1.092-.9 0-.393.334-.647.828-.647m1.067.029h.386v1.271c0 .315.18.504.489.504.282 0 .447-.167.447-.45V13.89h.38v1.28c0 .502-.345.831-.872.831-.513 0-.83-.313-.83-.81zm2.25 0h.443l1.006 1.547.002-1.547H18v2.082h-.433l-1.023-1.555v1.555h-.365z"/></svg>
