<svg xmlns="http://www.w3.org/2000/svg" id="svg2" width="22" height="22" version="1.1">
<defs id="defs1"><style id="current-color-scheme" type="text/css">.ColorScheme-Text{color:#f2f2f2}</style>
</defs>
<path id="path1" fill="currentColor" d="m9.507 4.992 1 .05-.098 1.975h5.098v1H10.36l-.107 2.162a11 11 0 0 1 1.775-.103c.153-.325.657-1.24.657-1.24l.916.4s-.384.704-.457.865c.034.006.071-.003.105.002.767.128 1.489.371 2.076.787.588.416 1.037 1.028 1.174 1.793.211 1.18-.376 2.32-1.318 3.1s-2.267 1.343-3.674 1.203l.1-.994c1.126.112 2.202-.37 2.937-.979.735-.608 1.105-1.403.97-2.154-.088-.497-.346-.856-.765-1.152-.419-.297-1.004-.508-1.664-.617-.145-.024-.31.006-.46-.008-.409.839-.554 1.268-1.294 2.44-.65 1.028-1.375 2.017-2.156 2.69-.39.338-.8.602-1.248.727a1.76 1.76 0 0 1-1.383-.173A2.23 2.23 0 0 1 5.52 15.33c-.127-.575-.05-1.191.175-1.79.45-1.194 1.504-2.342 3.002-2.956.174-.071.357-.13.543-.186l.118-2.38h-2.85v-1h2.9zm1.611 6.053q-.064-.002-.129.006-.403.044-.785.125l-.121 2.423q.207-.3.404-.613c.578-.915.634-1.16 1.02-1.926-.132.007-.26-.013-.389-.015m-1.931.422q-.058.02-.112.043c-1.242.509-2.104 1.477-2.445 2.382-.17.453-.21.882-.135 1.223.075.34.245.599.569.795.195.118.354.133.593.066.24-.067.543-.244.864-.521q.24-.21.492-.483z" class="ColorScheme-Text"/>
<path id="path2" fill="currentColor" d="M6 3C4.34 3 3 4.338 3 6v10c0 1.662 1.339 3 3 3h10c1.661 0 3-1.338 3-3V6c0-1.662-1.339-3-3-3zm0 1h10c1.107 0 2 .892 2 2v10c0 1.108-.893 2-2 2H6c-1.107 0-2-.892-2-2V6c0-1.108.893-2 2-2" class="ColorScheme-Text"/>
</svg>
