<svg xmlns="http://www.w3.org/2000/svg" width="22" height="22">
 <defs>
  <style id="current-color-scheme" type="text/css">.ColorScheme-Text {
                color:#f2f2f2;
            }</style>
 </defs>
<path fill="currentColor" d="m12.916 3.996 1 .016a37 37 0 0 0 .037 1.992h2.932v1h-2.883c.149 2.308.482 4.4.89 6.033.291 1.158.617 2.094.913 2.71.148.307.293.534.396.655.047.055-.001.03.012.04.238-.064.371-.154.479-.43.121-.313.176-.812.183-1.375l1 .012c-.008.606-.047 1.197-.252 1.724s-.66 1-1.302 1.111a1 1 0 0 1-.08.006c-.373.005-.608-.212-.801-.44-.194-.226-.364-.514-.535-.87-.343-.712-.679-1.696-.98-2.9-.43-1.714-.775-3.883-.925-6.276H4.885v-1h8.07c-.024-.66-.049-1.322-.039-2.008m2.969.008q.626.569 1.023 1.193l-.966.569a6.5 6.5 0 0 0-.91-1.25Zm-10 4h6v1h-6zm0 2h6v1h-6zm0 2h6v3h-1v-2h-4v2h-1zm2.01 2h1.082c-.083 1.204-.384 2.115-.93 2.693q-.966 1.08-3.467 1.307l-.455-.967q2.274-.227 3.012-1.023c.43-.43.676-1.108.758-2.01m1.693.998q1.422.683 2.615 1.592l-.797.91a12.4 12.4 0 0 0-2.5-1.648z" class="ColorScheme-Text"/>
<path fill="currentColor" d="M6 3C4.34 3 3 4.338 3 6v10c0 1.662 1.339 3 3 3h10c1.661 0 3-1.338 3-3V6c0-1.662-1.339-3-3-3zm0 1h10c1.107 0 2 .892 2 2v10c0 1.108-.893 2-2 2H6c-1.107 0-2-.892-2-2V6c0-1.108.893-2 2-2" class="ColorScheme-Text"/></svg>
