<svg xmlns="http://www.w3.org/2000/svg" id="svg2" width="22" height="22" version="1.1">
<defs id="defs1"><style id="current-color-scheme" type="text/css">.ColorScheme-Text{color:#f2f2f2}</style></defs>
<path id="path1" fill="currentColor" d="M9 6h7.616c.275-.001.46.364.353.694-.798 2.456-1.627 4.017-2.873 5.477l-.715-.742c1.053-1.233 1.653-2.526 2.373-4.43H9.001zm3 2.997 1 .004c-.003 1.47.125 2.436-.18 3.84-.304 1.404-1.233 2.204-2.72 3.205l-.353-1.085c1.344-.906 1.78-1.217 2.035-2.392s.215-2.058.219-3.572zM5 15h3v1H5z" class="ColorScheme-Text"/>
<path id="path2" fill="currentColor" d="M6 3C4.34 3 3 4.338 3 6v10c0 1.662 1.339 3 3 3h10c1.661 0 3-1.338 3-3V6c0-1.662-1.339-3-3-3zm0 1h10c1.107 0 2 .892 2 2v10c0 1.108-.893 2-2 2H6c-1.107 0-2-.892-2-2V6c0-1.108.893-2 2-2" class="ColorScheme-Text"/>
</svg>
