<svg xmlns="http://www.w3.org/2000/svg" width="22" height="22">
 <defs>
  <style id="current-color-scheme" type="text/css">.ColorScheme-Text {
                color:#f2f2f2;
            }</style>
 </defs>
<path fill="currentColor" d="M9 7h1v4.293L12.295 9H13V7h1v4.293L16.294 9h1.414l-3 3 3 3h-1.414L14 12.707V15h-1.707L10 12.707V15H9v-2c0 .583-.154 1.111-.521 1.479-.37.367-.896.521-1.48.521-.582 0-1.11-.154-1.477-.521C5.156 14.111 5 13.583 5 13h1c0 .417.095.639.228.771.132.133.355.229.772.229s.64-.096.77-.229c.134-.132.23-.354.23-.771s-.096-.64-.23-.771c-.13-.133-.353-.229-.77-.229-.583 0-1.11-.155-1.478-.521C5.156 11.11 5 10.583 5 10s.155-1.11.522-1.479C5.89 8.154 6.418 8 7 8s1.11.154 1.479.521C8.847 8.89 9 9.417 9 10zm0 3H8c0-.417-.095-.64-.228-.771C7.64 9.096 7.418 9 7 9s-.64.096-.772.229C6.096 9.36 6 9.583 6 10s.095.64.228.771c.132.133.355.229.772.229.583 0 1.11.155 1.479.521.367.369.52.897.52 1.479zm4-.293L10.709 12 13 14.293z" class="ColorScheme-Text"/>
<path fill="currentColor" d="M6 3C4.34 3 3 4.338 3 6v10c0 1.662 1.339 3 3 3h10c1.661 0 3-1.338 3-3V6c0-1.662-1.339-3-3-3zm0 1h10c1.107 0 2 .892 2 2v10c0 1.108-.893 2-2 2H6c-1.107 0-2-.892-2-2V6c0-1.108.893-2 2-2" class="ColorScheme-Text"/>
</svg>
