<svg xmlns="http://www.w3.org/2000/svg" width="22" height="22">
 <defs>
  <style id="current-color-scheme" type="text/css">.ColorScheme-Text {
                color:#f2f2f2;
            }</style>
 </defs>
<path fill="currentColor" d="M6 3C4.338 3 3 4.338 3 6v10c0 1.662 1.338 3 3 3h10c1.662 0 3-1.338 3-3V6c0-1.662-1.338-3-3-3zm5.3 1.6 2 1.5-.6.8-2-1.5zm-5.946.046 2 2-.708.708-2-2zM8 7h9v1h-4v3h3v1h-3v4h4v1H8v-1h4v-4H9v-1h3V8H8zm-2.646.646 2 2-.708.708-2-2zm1.171 3.196.95.316-2 6-.95-.316z" class="ColorScheme-Text"/>
</svg>
