<svg xmlns="http://www.w3.org/2000/svg" width="22" height="22">
 <defs>
  <style id="current-color-scheme" type="text/css">.ColorScheme-Text {
                color:#f2f2f2;
            }</style>
 </defs>
<path class="ColorScheme-Text" d="m9.002 3-.176 2.107A6.3 6.3 0 0 0 6.99 6.17l-1.916-.902-2 3.462 1.739 1.21a6.3 6.3 0 0 0-.096 1.058 6.3 6.3 0 0 0 .092 1.065l-1.735 1.203 2 3.464 1.91-.9a6.3 6.3 0 0 0 1.842 1.057L8.998 19h4l.176-2.107a6.3 6.3 0 0 0 1.836-1.063l1.916.902 2-3.462-1.738-1.21a6.3 6.3 0 0 0 .095-1.058 6.3 6.3 0 0 0-.092-1.065l1.735-1.203-2-3.464-1.91.9a6.3 6.3 0 0 0-1.842-1.057L13.002 3ZM11 8a3 3 0 0 1 3 3 3 3 0 0 1-3 3 3 3 0 0 1-3-3 3 3 0 0 1 3-3" style="fill:currentColor"/>
</svg>
