<svg xmlns="http://www.w3.org/2000/svg" width="22" height="22">
 <defs>
  <style id="current-color-scheme" type="text/css">.ColorScheme-Text {
                color:#f2f2f2;
            }</style>
 </defs>
<path fill="currentColor" d="M10.584 4.705h.832c1.844 2.765 5.647 3.28 5.647 3.28l-.125.993s-.834-.124-1.938-.535v4.539H7.945q-.063.511-.22 1H15v3H7v-1.377l-.066.125c-.52.911-1.043 1.565-1.043 1.565l-.782-.625s.478-.597.957-1.436c.48-.839.934-1.919.934-2.752v-4.04q-.944.36-1.939.536l-.123-.992s3.802-.516 5.646-3.281m.416.98c-.86 1.07-1.934 1.799-2.934 2.297h2.531l-.874-.584.553-.832 1.5 1-.276.416h2.434c-1-.498-2.075-1.227-2.934-2.297M8 8.982v1h5v1H8v1h6v-3zm0 6v1h6v-1z" class="ColorScheme-Text"/>
<path fill="currentColor" d="M6 3C4.34 3 3 4.338 3 6v10c0 1.662 1.339 3 3 3h10c1.661 0 3-1.338 3-3V6c0-1.662-1.339-3-3-3zm0 1h10c1.107 0 2 .892 2 2v10c0 1.108-.893 2-2 2H6c-1.107 0-2-.892-2-2V6c0-1.108.893-2 2-2" class="ColorScheme-Text"/>
</svg>
