<svg xmlns="http://www.w3.org/2000/svg" width="22" height="22">
 <defs>
  <style id="current-color-scheme" type="text/css">.ColorScheme-Text {
                color:#f2f2f2;
            }</style>
 </defs>
<path class="ColorScheme-Text" d="M6 3C4.338 3 3 4.338 3 6v10c0 1.662 1.338 3 3 3h10c1.662 0 3-1.338 3-3V6c0-1.662-1.338-3-3-3zm2.979 3.979h1v4.292L12.27 8.98h.708v-2h1v4.292L16.27 8.98h1.415l-3 3 3 3H16.27l-2.292-2.293v2.293H12.27L9.98 12.686v2.293h-1v-2c0 .583-.154 1.11-.522 1.478s-.895.522-1.478.522c-.584 0-1.111-.154-1.479-.522s-.521-.895-.521-1.478h1c0 .416.096.639.228.771s.355.229.772.229c.416 0 .639-.097.771-.229s.229-.355.229-.771-.097-.64-.229-.772-.355-.228-.771-.228c-.584 0-1.111-.154-1.479-.522s-.521-.895-.521-1.478c0-.584.153-1.111.521-1.479s.895-.521 1.479-.521c.583 0 1.11.153 1.478.521s.522.895.522 1.479zm0 3h-1c0-.417-.097-.64-.229-.772s-.355-.228-.771-.228-.64.096-.772.228-.228.355-.228.772c0 .416.096.639.228.771s.355.229.772.229c.583 0 1.11.153 1.478.521s.522.895.522 1.479zm4-.293-2.293 2.293 2.293 2.292z" style="fill:currentColor;fill-opacity:1;stroke:none"/></svg>
