<svg width="22" height="22" version="1.1" xmlns="http://www.w3.org/2000/svg">
 <style id="current-color-scheme" type="text/css">.ColorScheme-Text {
        color:#f2f2f2;
      }
      .ColorScheme-Background {
        color:#eff0f1;
      }
      .ColorScheme-Highlight {
        color:#3daee9;
      }
      .ColorScheme-ButtonText {
        color:#f2f2f2;
      }</style>
 <path class="ColorScheme-Text" d="m7.5 5c-1.3807 0-2.5 1.1193-2.5 2.5s1.1193 2.5 2.5 2.5h1.5v2h-1.5c-1.3807 0-2.5 1.1193-2.5 2.5s1.1193 2.5 2.5 2.5 2.5-1.1193 2.5-2.5v-1.5h2v1.5c0 1.3807 1.1193 2.5 2.5 2.5s2.5-1.1193 2.5-2.5-1.1193-2.5-2.5-2.5h-1.5v-2h1.5c1.3807 0 2.5-1.1193 2.5-2.5s-1.1193-2.5-2.5-2.5-2.5 1.1193-2.5 2.5v1.5h-2v-1.5c0-1.3807-1.1193-2.5-2.5-2.5zm0 1c0.82843 0 1.5 0.67157 1.5 1.5v1.5h-1.5c-0.82843 0-1.5-0.67157-1.5-1.5s0.67157-1.5 1.5-1.5zm7 0c0.82843 0 1.5 0.67157 1.5 1.5s-0.67157 1.5-1.5 1.5h-1.5v-1.5c0-0.82843 0.67157-1.5 1.5-1.5zm-4.5 4h2v2h-2zm-2.5 3h1.5v1.5c0 0.82843-0.67157 1.5-1.5 1.5s-1.5-0.67157-1.5-1.5 0.67157-1.5 1.5-1.5zm5.5 0h1.5c0.82843 0 1.5 0.67157 1.5 1.5s-0.67157 1.5-1.5 1.5-1.5-0.67157-1.5-1.5z" fill="currentColor"/>
 <path class="ColorScheme-Text" d="m6 3c-1.66 0-3 1.338-3 3v10c0 1.662 1.339 3 3 3h10c1.661 0 3-1.338 3-3v-10c0-1.662-1.339-3-3-3zm0 1h10c1.107 0 2 0.892 2 2v10c0 1.108-0.893 2-2 2h-10c-1.107 0-2-0.892-2-2v-10c0-1.108 0.893-2 2-2" fill="currentColor"/>
</svg>
