<svg xmlns="http://www.w3.org/2000/svg" width="22" height="22">
 <defs>
  <style id="current-color-scheme" type="text/css">.ColorScheme-Text {
                color:#f2f2f2;
            }</style>
 </defs>
<path fill="currentColor" d="M5 7h1v4.293L8.293 9H9V7h1v4.293L12.293 9h1.414l-3 3 3 3h-1.414L10 12.707V15H8.293L6 12.707V15H5Zm10 2c.583 0 1.111.154 1.479.521.367.368.521.896.521 1.479h-1c0-.417-.096-.64-.229-.771-.132-.133-.354-.229-.771-.229s-.639.096-.771.229c-.133.131-.229.354-.229.771v2c0 .417.096.639.229.771.132.133.354.229.771.229s.639-.096.771-.229c.133-.132.229-.354.229-.771h1c0 .583-.154 1.111-.521 1.479-.368.367-.896.521-1.479.521s-1.111-.154-1.479-.521C13.154 14.111 13 13.583 13 13v-2c0-.583.154-1.11.521-1.479C13.889 9.154 14.417 9 15 9m-6 .707L6.707 12 9 14.293Z" class="ColorScheme-Text"/>
<path fill="currentColor" d="M6 3C4.34 3 3 4.338 3 6v10c0 1.662 1.339 3 3 3h10c1.661 0 3-1.338 3-3V6c0-1.662-1.339-3-3-3zm0 1h10c1.107 0 2 .892 2 2v10c0 1.108-.893 2-2 2H6c-1.107 0-2-.892-2-2V6c0-1.108.893-2 2-2" class="ColorScheme-Text"/>
</svg>
