<svg width="22" height="22" version="1.1" xmlns="http://www.w3.org/2000/svg">
 <defs>
  <style id="current-color-scheme" type="text/css">.ColorScheme-Text { color:#ffffff; } .ColorScheme-Highlight { color:#4285f4; }</style>
 </defs>
 <path class="ColorScheme-Text" d="m5 3c-1.662 0-3 1.338-3 3v11c0 1.662 1.338 3 3 3h11c1.662 0 3-1.338 3-3v-11c0-1.662-1.338-3-3-3zm0 1h11c1.108 0 2 0.892 2 2v11c0 1.108-0.892 2-2 2h-11c-1.108 0-2-0.892-2-2v-11c0-1.108 0.892-2 2-2z" fill="currentColor"/>
 <path class="ColorScheme-Text" d="m8.9492 6a3 3 0 0 0-2.9492 3 3 3 0 0 0 3 3h3a2 2 0 0 1 0.04883 0 2 2 0 0 1 1.9512 2 2 2 0 0 1-2 2h-5v1h5a3 3 0 0 0 3-3 3 3 0 0 0-2.9492-3 3 3 0 0 0-0.050781 0h-3a2 2 0 0 1-2-2 2 2 0 0 1 1.9512-2 2 2 0 0 1 0.048828 0h5v-1h-5a3 3 0 0 0-0.050781 0z" fill="currentColor"/>
</svg>
