<svg width="22" height="22" xmlns="http://www.w3.org/2000/svg"><path d="M11.545 5.742A4.229 4.229 0 008.773 8.17s-1.914 4.62-3.685 4.559c-.019.004-.032.018-.053.023a.731.731 0 00-.217.102c-.027.018-.054.028-.078.048a.736.736 0 00-.207.276.75.75 0 00.407.98l9.7 4.018c.385.159.82-.02.98-.405a.74.74 0 00.048-.341c-.002-.032-.014-.06-.02-.09a.724.724 0 00-.081-.225c-.01-.017-.008-.038-.02-.054-.772-.72-.403-2.643.02-4.086A5 5 0 0111 8a5 5 0 01.545-2.258zm-1.139 11.762a1.997 1.997 0 001.772 1.828 1.99 1.99 0 001.511-.468z" color="#fff" fill="#fff" style="isolation:auto;mix-blend-mode:normal"/><path class="error" d="M20 8a4 4 0 01-8 0 4 4 0 118 0z" color="#fff" fill="#d33636" overflow="visible" style="isolation:auto;mix-blend-mode:normal"/></svg>