<svg width="22" height="22" xmlns="http://www.w3.org/2000/svg"><path d="M12 4.75a1 1 0 00-1 1v.01c-1.764.456-2.998 2.168-3 3.99 0 0 0 5-1.66 5.621-.016.011-.023.031-.04.043a.726.726 0 00-.161.176c-.018.027-.039.048-.053.076A.738.738 0 006 16c0 .416.335.75.75.75h10.5c.416 0 .75-.334.75-.75a.738.738 0 00-.086-.334c-.014-.028-.035-.05-.052-.076a.725.725 0 00-.162-.176c-.016-.012-.023-.032-.04-.043C16 14.751 16 9.75 16 9.75c-.002-1.823-1.235-3.535-3-3.99v-.01a1 1 0 00-1-1zm-1.933 13A2 2 0 0012 19.25a2 2 0 001.936-1.5z" color="#fff" overflow="visible" style="isolation:auto;mix-blend-mode:normal" fill="#d33636"/></svg>