<svg width="22" height="22" viewBox="0 0 22 22" fill="none" xmlns="http://www.w3.org/2000/svg">
<style type="text/css" id="current-color-scheme">
.ColorScheme-Text {
  color:#ffffff;
}
</style>
<path fill="currentColor" d="M4.04252 5.57277C4.52948 5.56415 5.05071 5.59131 5.55062 5.6776C6.55173 5.85041 7.66882 6.30049 8.03678 7.40439L8.1431 7.72333L7.88784 7.94213C7.36389 8.39123 6.70872 9.18751 6.24197 10.083C6.15211 10.2554 6.07107 10.4279 5.99996 10.5991C6.25196 10.4312 6.52452 10.2966 6.80129 10.1907C7.7837 9.8146 8.90288 9.75615 9.64434 9.8125H11.6874C12.1045 9.8125 12.6003 9.63566 13.1555 9.28737C13.7049 8.94277 14.2718 8.45599 14.8203 7.89913C15.5243 7.18437 16.1781 6.37474 16.7038 5.65016L9.9272 7.49833L9.82215 6.97306C9.5162 5.44332 9.95902 4.39056 10.7297 3.74236C10.8874 3.60965 11.0556 3.49673 11.2288 3.40125C11.1888 3.39425 11.1488 3.38752 11.109 3.38105C10.4999 3.28228 9.94225 3.25 9.62494 3.25C8.09078 3.25 6.6899 3.78334 5.55124 4.46763C4.96515 4.81985 4.45611 5.20757 4.04252 5.57277ZM9.26812 10.7954C8.64729 10.7823 7.84555 10.8617 7.15881 11.1246C6.38591 11.4205 5.84113 11.9075 5.741 12.6996C5.88925 13.1944 6.26144 13.6536 7.06064 13.9733C7.50418 14.1507 7.93288 14.3384 8.34563 14.5341C8.81887 14.5196 9.09421 14.371 9.26616 14.1888C9.4629 13.9804 9.58896 13.6593 9.63315 13.228C9.71131 12.4651 9.51552 11.5273 9.26812 10.7954ZM9.61467 15.187C10.9849 15.9501 12.1337 16.7883 13.006 17.5937L11.5635 12.7853L12.5985 13.3028C13.5003 13.7537 14.8806 14.3587 16.0908 14.714C16.6421 14.8758 17.1305 14.9774 17.5106 14.999L11.5298 10.8125H10.3221C10.5463 11.5728 10.7129 12.5011 10.6279 13.33C10.5711 13.8846 10.396 14.4486 9.99342 14.8752C9.88036 14.995 9.75398 15.0991 9.61467 15.187ZM12.8967 10.5486L19.2026 14.9628L19.0097 15.3486C18.7315 15.9049 18.104 16.0091 17.6152 16.0031C17.0844 15.9965 16.4484 15.8612 15.8091 15.6735C14.9321 15.416 13.9851 15.0405 13.176 14.6801L14.6582 19.621C14.8301 19.9606 14.9374 20.302 14.9374 20.625L13.9585 20.7687L13.7279 19.9999C13.6874 19.9251 13.64 19.8452 13.5851 19.7601C13.3295 19.3643 12.9409 18.9066 12.4244 18.4187C11.3924 17.4441 9.88563 16.3833 8.01787 15.4857C7.59284 15.2815 7.14949 15.0858 6.68924 14.9017C5.59208 14.4629 4.96898 13.7413 4.74894 12.8623C4.48093 11.7918 4.84068 10.6078 5.35521 9.62073C5.79899 8.76935 6.39587 7.99095 6.95079 7.44632C6.68063 7.0548 6.13923 6.79399 5.38051 6.66303C4.48912 6.50915 3.48263 6.57228 2.83214 6.6807L1.54321 6.89552L2.35951 5.87515C2.85479 5.25605 3.7935 4.35728 5.03614 3.6105C6.28081 2.8625 7.8591 2.25 9.62494 2.25C9.99513 2.25 10.6063 2.28647 11.269 2.39395C11.9269 2.50063 12.671 2.68276 13.286 2.99029L13.0624 3.9375C12.565 3.9375 11.8685 4.09119 11.3734 4.50764C10.9894 4.83063 10.6737 5.35477 10.7305 6.24273L18.9762 3.9939L18.2989 5.0775C17.7117 6.01711 16.6929 7.42297 15.5327 8.60087C14.9526 9.18984 14.3249 9.73432 13.6869 10.1345C13.4309 10.2951 13.1663 10.4368 12.8967 10.5486Z" class="ColorScheme-Text"/>
</svg>
