<svg xmlns="http://www.w3.org/2000/svg" width="24" height="24"><g fill="#fff" stroke-width="1.375"><path d="M7.837 13.087A4.486 4.486 0 017.693 12v-1.23c0-.167-.061-.311-.183-.433a.591.591 0 00-.433-.183.591.591 0 00-.432.183.591.591 0 00-.183.432V12c0 .712.135 1.398.404 2.058l.97-.971M12 15.076c.846 0 1.57-.3 2.173-.903A2.963 2.963 0 0015.077 12v-1.23l3.47-3.472a.304.304 0 000-.442l-.788-.789a.304.304 0 00-.442 0L5.452 17.932a.304.304 0 000 .443l.789.788a.304.304 0 00.442 0l2.442-2.442a5.285 5.285 0 002.26.779v1.27H8.924a.591.591 0 00-.433.182.591.591 0 00-.183.433c0 .166.061.31.183.432a.591.591 0 00.433.183h6.153a.591.591 0 00.432-.183.591.591 0 00.183-.432c0-.167-.06-.311-.183-.433a.591.591 0 00-.432-.183h-2.462V17.5c1.391-.153 2.56-.754 3.505-1.802.945-1.048 1.419-2.28 1.419-3.697v-1.231c0-.167-.061-.311-.183-.433a.592.592 0 00-.433-.182c-.166 0-.31.06-.432.182a.591.591 0 00-.183.433v1.23c0 1.187-.422 2.2-1.264 3.044-.843.842-1.858 1.264-3.043 1.264-.693 0-1.35-.163-1.972-.49l.923-.923c.347.121.696.182 1.049.182M13.774 4.567A2.977 2.977 0 0012 4c-.846 0-1.57.301-2.173.904a2.963 2.963 0 00-.904 2.173V12l5.971-5.971a3.05 3.05 0 00-1.12-1.462"/></g></svg>