<svg width="24" height="24" version="1.1" xmlns="http://www.w3.org/2000/svg">
 <g transform="translate(.00076531 4.5063e-5)" fill="#fff" stroke-width="1.375">
  <path d="m7.837 13.087a4.486 4.486 0 0 1-0.144-1.087v-1.23c0-0.167-0.061-0.311-0.183-0.433a0.591 0.591 0 0 0-0.433-0.183 0.591 0.591 0 0 0-0.432 0.183 0.591 0.591 0 0 0-0.183 0.432v1.231c0 0.712 0.135 1.398 0.404 2.058l0.97-0.971m4.164 1.989c0.846 0 1.57-0.3 2.173-0.903a2.963 2.963 0 0 0 0.904-2.173v-1.23l3.47-3.472a0.304 0.304 0 0 0 0-0.442l-0.788-0.789a0.304 0.304 0 0 0-0.442 0l-11.865 11.865a0.304 0.304 0 0 0 0 0.443l0.789 0.788a0.304 0.304 0 0 0 0.442 0l2.442-2.442a5.285 5.285 0 0 0 2.26 0.779v1.27h-2.461a0.591 0.591 0 0 0-0.433 0.182 0.591 0.591 0 0 0-0.183 0.433c0 0.166 0.061 0.31 0.183 0.432a0.591 0.591 0 0 0 0.433 0.183h6.153a0.591 0.591 0 0 0 0.432-0.183 0.591 0.591 0 0 0 0.183-0.432c0-0.167-0.06-0.311-0.183-0.433a0.591 0.591 0 0 0-0.432-0.183h-2.462v-1.269c1.391-0.153 2.56-0.754 3.505-1.802s1.419-2.28 1.419-3.697v-1.231c0-0.167-0.061-0.311-0.183-0.433a0.592 0.592 0 0 0-0.433-0.182c-0.166 0-0.31 0.06-0.432 0.182a0.591 0.591 0 0 0-0.183 0.433v1.23c0 1.187-0.422 2.2-1.264 3.044-0.843 0.842-1.858 1.264-3.043 1.264-0.693 0-1.35-0.163-1.972-0.49l0.923-0.923c0.347 0.121 0.696 0.182 1.049 0.182m1.773-10.51a2.977 2.977 0 0 0-1.774-0.567c-0.846 0-1.57 0.301-2.173 0.904a2.963 2.963 0 0 0-0.904 2.173v4.923l5.971-5.971a3.05 3.05 0 0 0-1.12-1.462"/>
 </g>
</svg>
