<svg width="24" height="24" version="1.1" xmlns="http://www.w3.org/2000/svg">
 <g transform="translate(0 .00014068)" fill="#fff" stroke-width="1.375">
  <path d="m12 15.076c0.846 0 1.57-0.3 2.173-0.903a2.963 2.963 0 0 0 0.903-2.173v-4.923c0-0.846-0.3-1.57-0.903-2.173a2.963 2.963 0 0 0-2.173-0.904c-0.846 0-1.57 0.301-2.173 0.904a2.962 2.962 0 0 0-0.904 2.173v4.923c0 0.846 0.301 1.57 0.904 2.173a2.963 2.963 0 0 0 2.173 0.903"/>
  <path d="m17.355 10.336a0.591 0.591 0 0 0-0.432-0.182c-0.167 0-0.311 0.06-0.433 0.182a0.591 0.591 0 0 0-0.183 0.433v1.23c0 1.187-0.421 2.2-1.264 3.044-0.843 0.843-1.857 1.264-3.043 1.264s-2.2-0.421-3.043-1.264-1.265-1.857-1.265-3.043v-1.231c0-0.167-0.06-0.31-0.182-0.433a0.591 0.591 0 0 0-0.433-0.182 0.591 0.591 0 0 0-0.433 0.182 0.591 0.591 0 0 0-0.183 0.433v1.23c0 1.417 0.474 2.65 1.419 3.698s2.114 1.65 3.505 1.803v1.27h-2.462c-0.166 0-0.31 0.06-0.432 0.182a0.591 0.591 0 0 0-0.183 0.433c0 0.166 0.06 0.31 0.183 0.432a0.591 0.591 0 0 0 0.432 0.183h6.154a0.591 0.591 0 0 0 0.432-0.183 0.591 0.591 0 0 0 0.183-0.432 0.591 0.591 0 0 0-0.183-0.433 0.591 0.591 0 0 0-0.432-0.183h-2.462v-1.269c1.391-0.153 2.56-0.754 3.505-1.802s1.419-2.28 1.419-3.697v-1.231a0.591 0.591 0 0 0-0.183-0.433"/>
 </g>
</svg>
