<svg width="22" height="22" version="1.1" xmlns="http://www.w3.org/2000/svg">
 <g transform="translate(-1,-1)" fill="#fff" fill-rule="evenodd">
  <path d="m12 5c-1.662 0-3 1.338-3 3v4c0 1.663 1.338 3.001 3 3.001s3-1.338 3-3v-4.001c0-1.663-1.338-3-3-3zm0 1c1.108 0 2 0.892 2 2v4c0 1.109-0.892 2-2 2s-2-0.891-2-2v-4c0-1.108 0.892-2 2-2z"/>
  <path d="m7.5 10c-0.277 0-0.5 0.223-0.5 0.5v1.5a4.989 4.989 0 0 0 4.5 4.975v1.025h-2a0.5 0.5 0 1 0 0 1h5a0.5 0.5 0 1 0 0-1h-2v-1.025a4.989 4.989 0 0 0 4.5-4.975v-1.5a0.5 0.5 0 1 0-1 0v1.5c0 2.216-1.784 4-4 4s-4-1.784-4-4v-1.5c0-0.277-0.223-0.5-0.5-0.5z"/>
  <path d="m9 10v2c0 1.663 1.338 3.001 3 3.001s3-1.338 3-3v-2z"/>
 </g>
</svg>
