<svg width="22" height="22"><defs><style id="current-color-scheme" type="text/css"></style></defs><path d="M11 2a9 9 0 00-9 9 9 9 0 009 9 9 9 0 009-9 9 9 0 00-9-9zm-.023 5.165c1.08.002 2.111.456 2.84 1.254l1.015-.588-.229 1.896.005.01h-.005l-.155 1.286-2.956-1.263 1.168-.676a2.57 2.57 0 00-1.683-.633c-.917.001-1.766.491-2.225 1.286H7.344c.544-1.54 2-2.57 3.633-2.571zm-3.473 3.88l2.956 1.263-1.153.666c.465.399 1.058.62 1.67.62.918 0 1.766-.49 2.225-1.286h1.409c-.544 1.54-2 2.57-3.634 2.572a3.854 3.854 0 01-2.825-1.238l-1.032.595.231-1.916-.005-.013h.005l.153-1.263z" fill="currentColor" color="#fff"/></svg>