<svg width="22" height="22" version="1.1">
 <defs>
  <style id="current-color-scheme" type="text/css">.ColorScheme-Text { color:#ffffff; } .ColorScheme-Highlight { color:#5294e2; }</style>
 </defs>
 <path class="ColorScheme-Text" d="m11 2a9 9 0 0 0-9 9 9 9 0 0 0 9 9 9 9 0 0 0 9-9 9 9 0 0 0-9-9zm-0.0226 5.1655c1.0805 0.00161 2.1108 0.45585 2.8401 1.2531l1.0145-0.58761-0.22852 1.8959 5e-3 0.01003h-5e-3l-0.15569 1.2857-2.9556-1.2631 1.1677-0.6755c-0.46661-0.4065-1.0636-0.63134-1.6825-0.63282-0.91774 9.42e-4 -1.7661 0.49092-2.2249 1.2857h-1.4088c0.54464-1.5404 1.9997-2.5707 3.6337-2.5714zm-3.473 3.8798 2.9556 1.2631-1.1526 0.66546c0.46509 0.39897 1.0572 0.61928 1.6699 0.62025 0.91774-9.41e-4 1.7661-0.49092 2.2249-1.2857h1.4088c-0.54449 1.54-2.0002 2.5701-3.6337 2.5714-1.0729-0.0014-2.0969-0.45004-2.8251-1.238l-1.0321 0.59514 0.23103-1.916-0.00503-0.01256h0.00503l0.15318-1.2631z" fill="currentColor"/>
</svg>
