<svg version="1.1" viewBox="0 0 22 22" xmlns="http://www.w3.org/2000/svg">
 <defs>
  <style id="current-color-scheme" type="text/css">.ColorScheme-Text {
        color:#ffffff;
      }</style>
 </defs>
 <path class="ColorScheme-Text" d="m15 3.875v3.75c-0.5-0.625-1.125-1.25-1.7227-1.666l-0.57812 0.91602c0.90234 0.58398 1.6758 1.125 2.3008 2v0.125c-0.62499 0.87499-1.3984 1.416-2.3008 2l0.57812 0.91602c0.59765-0.41602 1.2227-1.041 1.7227-1.666v3.75c1.5-1e-4 2.0225-0.35594 2.4961-0.96484l1.5039-1.7852-1.5039-1.7852c-0.16055-0.20642-0.32719-0.38309-0.53516-0.52734 0.20797-0.14426 0.3746-0.32092 0.53516-0.52734l1.5039-1.7852-1.5039-1.7852c-0.4736-0.6089-0.9961-0.96474-2.4961-0.96484zm0.90039 0.90039c0.72499 0 1.8496 1.8496 1.8496 1.8496s-1.125 1.875-1.875 1.875h-0.125s0.125-0.62501 0.15039-1.875zm-0.15039 4.5996h0.125c0.75 0 1.875 1.875 1.875 1.875s-1.1246 1.8496-1.8496 1.8496v-1.8496c-0.02539-1.25-0.15039-1.875-0.15039-1.875z" fill="currentColor"/>
 <path class="ColorScheme-Text" d="m11 6c-2.84 0-5.4323 1.0072-7.4863 2.6582a0.5 0.5 0 0 0-0.095703 0.072266 0.5 0.5 0 0 0-0.1543 0.35938 0.5 0.5 0 0 0 0.5 0.5 0.5 0.5 0 0 0 0.31836-0.11328 10.919 10.919 0 0 1 6.918-2.4766c0.33718 0 0.67095 0.014764 1 0.044922v-1.002c-0.32973-0.027798-0.66277-0.042969-1-0.042969zm0 3a8.918 8.918 0 0 0-5.4883 1.8965 0.5 0.5 0 0 0-0.10156 0.074219 0.5 0.5 0 0 0-0.15625 0.36133 0.5 0.5 0 0 0 0.5 0.5 0.5 0.5 0 0 0 0.32031-0.11523 7.936 7.936 0 0 1 4.9258-1.7168c0.33919 0 0.67248 0.020921 1 0.0625v-1.0059a8.919 8.919 0 0 0-1-0.056641zm0 3c-1.353 0-2.5829 0.46861-3.5859 1.2246a0.507 0.507 0 0 0-0.16797 0.38477 0.5 0.5 0 0 0 0.83594 0.36914c0.822-0.604 1.82-0.97852 2.918-0.97852 0.42762 0 0.83963 0.05902 1.2324 0.16406-0.13917-0.33204-0.21955-0.69518-0.23047-1.0762-0.32495-0.057083-0.65956-0.087891-1.002-0.087891zm0 3a1 1 0 0 0-1 1 1 1 0 0 0 1 1 1 1 0 0 0 1-1 1 1 0 0 0-1-1z" fill="currentColor"/>
</svg>
