<svg width="22" height="22" xmlns="http://www.w3.org/2000/svg"><g fill="#fff"><path d="M9.5 9.5v1c0 .276.1.538.281.72l.781.78-.78.781a1.015 1.015 0 00-.282.72v1h1c.276 0 .538-.1.72-.282l.78-.78.781.78c.181.181.443.281.72.281h1v-1c0-.276-.1-.538-.282-.719l-.782-.78.782-.782a1.02 1.02 0 00.281-.719v-1h-1c-.276 0-.538.1-.719.281l-.78.781-.782-.78A1.015 1.015 0 0010.5 9.5zM6.002 7a1 1 0 00-.854.475l-2.894 3.86a1 1 0 00-.02 1.308l2.938 3.918a1 1 0 101.63-1.155l.003-.002-2.551-3.402L6.804 8.6l-.003-.002A1 1 0 006.002 7zm11.996 0a1 1 0 00-.799 1.598l-.004.002 2.551 3.402-2.55 3.402.001.002a1 1 0 101.63 1.154l2.939-3.917a1 1 0 00-.02-1.307l-2.894-3.861A1 1 0 0017.998 7z"/></g></svg>