<svg width="22" height="22" xmlns="http://www.w3.org/2000/svg"><g fill="#fff"><path d="M9 11a1 1 0 100 2 1 1 0 000-2zm3 0a1 1 0 100 2 1 1 0 000-2zm3 0a1 1 0 100 2 1 1 0 000-2z"/><path d="M12 9a1.99 1.99 0 00-1.879 1.336c.14.09.27.193.377.312.002.002 0 .005.002.006.002-.001 0-.004.002-.006.35-.393.915-.648 1.498-.648s1.148.255 1.498.648c.002.002 0 .005.002.006.002-.001 0-.004.002-.006a1.82 1.82 0 01.377-.312A1.99 1.99 0 0011.999 9zm-1.5 4.346c-.002.001 0 .004-.002.006-.35.393-.915.648-1.498.648 0 .554.446 1 1 1h4c.554 0 1-.446 1-1-.583 0-1.148-.255-1.498-.648-.002-.002 0-.005-.002-.006-.002.001 0 .004-.002.006-.35.393-.915.648-1.498.648s-1.148-.255-1.498-.648c-.001-.002 0-.005-.002-.006z" fill-rule="evenodd"/><path d="M6.002 7a1 1 0 00-.854.475l-2.894 3.86a1 1 0 00-.02 1.308l2.938 3.918a1 1 0 101.63-1.155l.003-.002-2.551-3.402L6.804 8.6l-.003-.002A1 1 0 006.002 7zM17.998 7a1 1 0 00-.799 1.598l-.004.002 2.551 3.402-2.55 3.402.001.002a1 1 0 101.63 1.154l2.939-3.917a1 1 0 00-.02-1.307l-2.894-3.861A1 1 0 0017.998 7z"/></g></svg>