<svg xmlns="http://www.w3.org/2000/svg" width="24" height="24"><path d="M6.352 4.736l-.94.942L18.955 19.22l.94-.942-1.407-1.406a1 1 0 00.34-.312l2.938-3.918a1 1 0 00.029-.038 1 1 0 00.205-.607 1 1 0 00-.254-.662l-2.894-3.861A1 1 0 0017.998 7 1 1 0 0017 8.002a1 1 0 00.2.596l-.005.002 2.551 3.402-2.55 3.402.001.002a1 1 0 00-.068.108l-2.682-2.682A1 1 0 0015 13a1 1 0 000-2 1 1 0 00-.83 1.555L6.352 4.736zM5.523 7.12a1 1 0 00-.375.356l-2.894 3.86a1 1 0 00-.254.663 1 1 0 00.205.607 1 1 0 00.03.038l2.937 3.918a1 1 0 00.826.439A1 1 0 007 16.002a1 1 0 00-.197-.596l.002-.002-2.551-3.402L6.804 8.6l-.003-.002a1 1 0 00.078-.123L5.523 7.119zM9 11a1 1 0 000 2 1 1 0 00.777-1.627l-.15-.15A1 1 0 009 11z" style="font-variant-east_asian:normal;marker:none" opacity=".5" fill="#fff"/></svg>