<svg width="22" height="22" xmlns="http://www.w3.org/2000/svg"><path d="M11.995 8c.658 0 1.192.196 1.604.586.412.383.617.874.617 1.474 0 .26-.068.524-.205.792-.138.267-.26.457-.368.573a8.62 8.62 0 01-.435.424l-.052.055c-.44.397-.661.792-.661 1.19v.435h-1.02v-.51c0-.326.068-.603.205-.834.137-.239.38-.518.726-.836.196-.18.332-.314.412-.401.087-.094.17-.219.25-.378.087-.166.13-.337.13-.51 0-.332-.109-.6-.325-.802-.21-.202-.502-.305-.878-.305-.622 0-1.047.348-1.279 1.042l-.932-.39c.152-.413.413-.782.781-1.108.376-.332.852-.497 1.43-.497zm-.01 6.526c.21 0 .383.072.52.216.145.145.217.319.217.521s-.072.376-.217.52c-.137.145-.31.217-.52.217a.721.721 0 01-.737-.737.722.722 0 01.737-.737zM6.002 7a1 1 0 00-.854.475l-2.894 3.86a1 1 0 00-.02 1.308l2.938 3.918a1 1 0 101.63-1.155l.003-.002-2.551-3.402L6.804 8.6l-.003-.002A1 1 0 006.002 7zm11.996 0a1 1 0 00-.799 1.598l-.004.002 2.551 3.402-2.55 3.402.001.002a1 1 0 101.63 1.154l2.939-3.917a1 1 0 00-.02-1.307l-2.894-3.861A1 1 0 0017.998 7z" fill="#fff"/></svg>