<svg width="24" height="24" version="1.1" xmlns="http://www.w3.org/2000/svg">
 <g fill="#fff">
  <path d="m9 11a1 1 0 1 0 0 2 1 1 0 0 0 0-2zm3 0a1 1 0 1 0 0 2 1 1 0 0 0 0-2zm3 0a1 1 0 1 0 0 2 1 1 0 0 0 0-2z"/>
  <path d="m6.002 7a1 1 0 0 0-0.854 0.475l-2.894 3.86a1 1 0 0 0-0.254 0.663 1 1 0 0 0 0.205 0.607 1 1 0 0 0 0.03 0.038l2.937 3.918a1 1 0 0 0 0.826 0.439 1 1 0 0 0 1.002-0.998 1 1 0 0 0-0.197-0.596l2e-3 -2e-3 -2.551-3.402 2.55-3.402-3e-3 -2e-3a1 1 0 0 0 0.199-0.596 1 1 0 0 0-0.998-1.002zm11.996 0a1 1 0 0 0-0.998 1.002 1 1 0 0 0 0.2 0.596l-5e-3 2e-3 2.551 3.402-2.55 3.402 1e-3 2e-3a1 1 0 0 0-0.197 0.596 1 1 0 0 0 1.002 0.998 1 1 0 0 0 0.826-0.44l2.938-3.917a1 1 0 0 0 0.029-0.038 1 1 0 0 0 0.205-0.607 1 1 0 0 0-0.254-0.662l-2.894-3.861a1 1 0 0 0-0.854-0.475z" opacity=".35"/>
 </g>
</svg>
