<svg xmlns="http://www.w3.org/2000/svg" width="24" height="24"><path d="M9 11a1 1 0 100 2 1 1 0 000-2zm3 0a1 1 0 100 2 1 1 0 000-2zm3 0a1 1 0 100 2 1 1 0 000-2z" fill="#fff"/><path d="M6.002 7a1 1 0 00-.854.475l-2.894 3.86a1 1 0 00-.254.663 1 1 0 00.205.607 1 1 0 00.03.038l2.937 3.918a1 1 0 00.826.439A1 1 0 007 16.002a1 1 0 00-.197-.596l.002-.002-2.551-3.402L6.804 8.6l-.003-.002A1 1 0 007 8.002 1 1 0 006.002 7zm11.996 0A1 1 0 0017 8.002a1 1 0 00.2.596l-.005.002 2.551 3.402-2.55 3.402.001.002a1 1 0 00-.197.596 1 1 0 001.002.998 1 1 0 00.826-.44l2.938-3.917a1 1 0 00.029-.038 1 1 0 00.205-.607 1 1 0 00-.254-.662l-2.894-3.861A1 1 0 0017.998 7z" style="marker:none;font-variant-east_asian:normal" opacity=".35" fill="#fff"/></svg>