<svg width="22" height="22" xmlns="http://www.w3.org/2000/svg"><g fill="#fff"><g transform="translate(4.063 3)"><path d="M8 3C5.16 3 2.568 4.007.514 5.658a.5.5 0 00-.096.072.5.5 0 00-.154.36.5.5 0 00.5.5.5.5 0 00.318-.113A10.919 10.919 0 018 4c2.628 0 5.027.938 6.918 2.477a.5.5 0 00.318.113.5.5 0 00.5-.5.5.5 0 00-.154-.36.5.5 0 00-.096-.072C13.433 4.008 10.841 3 8 3z" fill-rule="evenodd" paint-order="stroke fill markers"/><path d="M8 9c-1.352 0-2.583.47-3.586 1.225a.507.507 0 00-.168.385.5.5 0 00.836.37C5.904 10.375 6.902 10 8 10c.695 0 1.342.163 1.938.427V10h1.3C10.302 9.386 9.204 9 8 9z"/><path d="M8 6a8.918 8.918 0 00-5.488 1.897.5.5 0 00-.102.074.5.5 0 00-.156.361.5.5 0 00.5.5.5.5 0 00.32-.115A7.936 7.936 0 018 7c1.863 0 3.567.648 4.926 1.717a.5.5 0 00.32.115.5.5 0 00.5-.5.5.5 0 00-.156-.361.5.5 0 00-.102-.075A8.919 8.919 0 008 6z" fill-rule="evenodd" paint-order="stroke fill markers"/><circle cx="8" cy="13" r="1" fill-rule="evenodd" paint-order="stroke fill markers"/></g><path d="M15 14v1c0 .276.1.537.282.718l.78.782-.78.78A1.015 1.015 0 0015 18v1h1c.276 0 .538-.1.719-.282l.781-.78.782.78c.18.181.442.282.718.282h1v-1c0-.276-.1-.538-.281-.72l-.781-.78.781-.782c.181-.18.281-.442.281-.718v-1h-1c-.276 0-.537.1-.718.28l-.782.782-.781-.781A1.015 1.015 0 0016 14z"/></g></svg>