<svg xmlns="http://www.w3.org/2000/svg" width="24" height="24"><path d="M6.002 7a1 1 0 00-.854.475l-2.894 3.86a1 1 0 00-.254.663 1 1 0 00.205.607 1 1 0 00.03.038l2.937 3.918a1 1 0 00.826.439A1 1 0 007 16.002a1 1 0 00-.197-.596l.002-.002-2.551-3.402L6.804 8.6l-.003-.002A1 1 0 007 8.002 1 1 0 006.002 7zm11.996 0A1 1 0 0017 8.002a1 1 0 00.2.596l-.005.002 2.551 3.402-.652.871a3.04 3.04 0 01.902 2.129l1.77-2.36a1 1 0 00.029-.037 1 1 0 00.205-.607 1 1 0 00-.254-.662l-2.894-3.861A1 1 0 0017.998 7zM9 11a1 1 0 000 2 1 1 0 000-2zm3 0a1 1 0 000 2 1 1 0 000-2zm3 0a1 1 0 00-.19 1.98c.321-.349.72-.617 1.17-.785A1 1 0 0015 11zm2 2c-1.108 0-2 .91-2 2.031V16h-.5s-.5 0-.5.5v3s0 .5.5.5h5s.5 0 .5-.5v-3c0-.5-.5-.5-.5-.5H19v-.969c0-1.12-.892-2.031-2-2.031zm0 1c.554 0 1 .442 1 1v1h-2v-1c0-.558.446-1 1-1z" fill="#fff"/></svg>