<svg width="22" height="22" xmlns="http://www.w3.org/2000/svg"><g fill="#fff"><path d="M9 11a1 1 0 100 2 1 1 0 000-2zm3 0a1 1 0 100 2 1 1 0 000-2zm3 0a1 1 0 100 2 1 1 0 000-2z"/><path d="M6.002 7a1 1 0 00-.854.475l-2.894 3.86a1 1 0 00-.02 1.308l2.938 3.918a1 1 0 101.63-1.155l.003-.002-2.551-3.402L6.804 8.6l-.003-.002A1 1 0 006.002 7z" opacity=".35"/><path d="M17.998 7a1 1 0 00-.799 1.598l-.004.002 2.551 3.402-2.55 3.402.001.002a1 1 0 101.63 1.154l2.939-3.917a1 1 0 00-.02-1.307l-2.894-3.861A1 1 0 0017.998 7z"/></g></svg>