<svg width="22" height="22" version="1.1" xmlns="http://www.w3.org/2000/svg">
 <style id="current-color-scheme" type="text/css">.ColorScheme-Text {
        color:#f2f2f2;
      }
      .ColorScheme-Background {
        color:#eff0f1;
      }
      .ColorScheme-Highlight {
        color:#3498db;
      }
      .ColorScheme-ViewText {
        color:#f2f2f2;
      }
      .ColorScheme-ViewBackground {
        color:#fcfcfc;
      }
      .ColorScheme-ViewHover {
        color:#93cee9;
      }
      .ColorScheme-ViewFocus{
        color:#3daee9;
      }
      .ColorScheme-ButtonText {
        color:#f2f2f2;
      }
      .ColorScheme-ButtonBackground {
        color:#eff0f1;
      }
      .ColorScheme-ButtonHover {
        color:#93cee9;
      }
      .ColorScheme-ButtonFocus{
        color:#3daee9;
      }
      .ColorScheme-NegativeText{
        color:#e74c3c;
      }</style>
 <path d="m18 10v5h2v-5zm1 6a1 1 0 0 0-1 1 1 1 0 0 0 1 1 1 1 0 0 0 1-1 1 1 0 0 0-1-1z" fill="#fdbc4b"/>
 <g class="ColorScheme-Text" transform="translate(3,3)" fill="currentColor">
  <path d="m8 3c-2.84 0-5.432 1.007-7.486 2.658a0.5 0.5 0 0 0-0.096 0.072 0.5 0.5 0 0 0-0.154 0.36 0.5 0.5 0 0 0 0.5 0.5 0.5 0.5 0 0 0 0.318-0.113 10.919 10.919 0 0 1 6.918-2.477c2.628 0 5.027 0.938 6.918 2.477a0.5 0.5 0 0 0 0.318 0.113 0.5 0.5 0 0 0 0.5-0.5 0.5 0.5 0 0 0-0.154-0.36 0.5 0.5 0 0 0-0.096-0.072c-2.053-1.65-4.645-2.658-7.486-2.658z"/>
  <path d="m8 9c-1.353 0-2.583 0.469-3.586 1.225a0.507 0.507 0 0 0-0.168 0.384 0.5 0.5 0 0 0 0.836 0.37c0.822-0.604 1.82-0.979 2.918-0.979s2.096 0.375 2.918 0.979a0.5 0.5 0 0 0 0.836-0.37 0.507 0.507 0 0 0-0.168-0.384c-1.003-0.756-2.233-1.225-3.586-1.225z"/>
  <path d="m8 6a8.918 8.918 0 0 0-5.488 1.897 0.5 0.5 0 0 0-0.102 0.074 0.5 0.5 0 0 0-0.156 0.361 0.5 0.5 0 0 0 0.5 0.5 0.5 0.5 0 0 0 0.32-0.115 7.936 7.936 0 0 1 4.926-1.717c1.863 0 3.567 0.648 4.926 1.717a0.5 0.5 0 0 0 0.32 0.115 0.5 0.5 0 0 0 0.5-0.5 0.5 0.5 0 0 0-0.156-0.361 0.5 0.5 0 0 0-0.102-0.075 8.919 8.919 0 0 0-5.488-1.896z"/>
  <circle cx="8" cy="13" r="1"/>
 </g>
</svg>
