<svg width="16" height="16" version="1.1" xmlns="http://www.w3.org/2000/svg">
 <defs>
  <style id="current-color-scheme" type="text/css">.ColorScheme-Text { color:#ffffff; } .ColorScheme-Highlight { color:#4285f4; } .ColorScheme-NeutralText { color:#ff9800; } .ColorScheme-PositiveText { color:#4caf50; } .ColorScheme-NegativeText { color:#f44336; }</style>
 </defs>
 <path d="m8 1c-3.866 0-7 3.134-7 7-5.067e-5 3.458 2.525 6.3979 5.9434 6.9199-0.43749-0.60702-0.73317-1.3045-0.86523-2.041-0.096246-0.0382-0.19134-0.07923-0.28516-0.12305 0.08923 0 0.17584-0.0075 0.26367-0.01172-0.037391-0.24629-0.056324-0.49503-0.056641-0.74414-3.314e-4 -0.08728 0.00162-0.17455 0.00586-0.26172-0.33547 0.14003-0.69275 0.20641-1.0332 0.16797-0.1124-0.013-0.19498-0.01858-0.27148-0.01758-0.0383 0-0.065084-0.0074-0.14648 0.01758-0.0096 2e-3 -0.024909 0.01062-0.037109 0.01563-1.1223-0.99482-1.7656-2.4221-1.7676-3.9219-5.303e-4 -1.6 0.72862-3.113 1.9805-4.1094-0.207 0.4545-0.34485 1.0391-0.34375 1.5195 0.0011 0.4485 0.11115 0.98095 0.28125 1.4062 0.0449 0.1123 0.099319 0.26248 0.26172 0.36328s0.27831 0.096834 0.44141 0.11523c0.1417 0.0159 0.43495 0.0804 0.56445 0.125 0.6303 0.21682 1.0948 0.68025 1.3418 1.2402 0.11357-0.12647 0.23352-0.24707 0.35938-0.36133-0.19052-0.29561-0.42398-0.57118-0.69922-0.80859 0.53509 0.20043 1.0965 0.24606 1.6406 0.13477 0.71869-0.39786 1.5243-0.61252 2.3457-0.625 0.02539-1.934e-4 0.05078-1.934e-4 0.07617 0 1.539 2.203e-4 2.9921 0.70913 3.9395 1.9219 0.04046-0.30562 0.06069-0.61359 0.06055-0.92188 0-3.866-3.134-7-7-7zm0 1.75c2.6819 0.00287 4.9305 2.0266 5.2148 4.6934-0.145-0.2312-0.31253-0.45305-0.51953-0.65625-0.575-0.5696-1.2736-0.90853-2.1016-1.0195-0.124-0.0166-0.22848-0.046475-0.39648 0.015625-0.169 0.0616-0.25108 0.19695-0.30078 0.28125-0.0718 0.1215-0.48154 0.53915-0.71094 0.68555-0.6507 0.4158-1.763 0.416-2.416 0-0.7721-0.4918-1.2131-1.4562-1.0742-2.3066 0.0787-0.4813 0.28405-0.89891 0.62305-1.2578 0.0704-0.0746 0.12302-0.13344 0.16602-0.18164 0.0104-0.0116 0.018344-0.025356 0.027344-0.035156 0.48303-0.14398 0.98427-0.21765 1.4883-0.21875zm-2.8691 2.4766 0.00195 0.00195c0.0918 0.5522 0.31355 1.0205 0.68555 1.4512-0.1277-0.0289-0.25319-0.069131-0.36719-0.082031-0.1279-0.0145-0.13405-0.019466-0.12305-0.00977-0.0042-0.0098-0.00237-0.00545-0.013672-0.03125-0.1281-0.3204-0.22566-0.82054-0.22656-1.1484-1e-4 -0.0484 0.037569-0.12344 0.042969-0.18164zm5.3379 1.2227c9e-3 6e-4 -0.0227 0.00657 0.0293 0.013672 0.285 0.0382 0.45931 0.23868 0.69531 0.33398-0.296-0.0447-0.56323-0.21506-0.86523-0.16406-0.061 0.0098-0.07772 0.08035-0.13672 0.09375 0.089-0.0994 0.21434-0.17584 0.27734-0.27734z" style="fill:currentColor" class="ColorScheme-Text"/>
 <path d="m10.939 8a4 4 0 0 0-3.9395 4 4 4 0 0 0 4 4 4 4 0 0 0 4-4 4 4 0 0 0-4-4 4 4 0 0 0-0.060547 0zm-0.93945 2 3 2-3 2v-4z" style="fill:currentColor" class="ColorScheme-Highlight"/>
</svg>
