<svg width="24" height="24" version="1.1" xmlns="http://www.w3.org/2000/svg">
 <g fill="#fff">
  <path d="m16.8 13.6h-1.6v-3.2h1.6a3.2 3.2 0 1 0-3.2-3.2v1.6h-3.2v-1.6a3.2 3.2 0 1 0-3.2 3.2h1.6v3.2h-1.6a3.2 3.2 0 1 0 3.2 3.2v-1.6h3.2v1.6a3.2 3.2 0 1 0 3.2-3.2zm0-8a1.6 1.6 0 0 1 0 3.2h-1.6v-1.6a1.6 1.6 0 0 1 1.6-1.6zm-11.2 1.6a1.6 1.6 0 0 1 3.2 0v1.6h-1.6a1.6 1.6 0 0 1-1.6-1.6zm1.6 11.2a1.6 1.6 0 0 1 0-3.2h1.6v1.6a1.6 1.6 0 0 1-1.6 1.6zm3.2-4.8v-3.2h3.2v3.2zm6.4 4.8a1.6 1.6 0 0 1-1.6-1.6v-1.6h1.6a1.6 1.6 0 0 1 0 3.2z"/>
 </g>
</svg>
