<svg width="22" height="22" version="1" xmlns="http://www.w3.org/2000/svg">
 <defs>
  <style id="current-color-scheme" type="text/css">.ColorScheme-Text { color:#f2f2f2; } .ColorScheme-Highlight { color:#4285f4; }</style>
 </defs>
 <path d="m10.99 2a9 9 0 0 0-8.9902 9 9 9 0 0 0 9 9 9 9 0 0 0 9-9 9 9 0 0 0-9-9 9 9 0 0 0-0.009766 0zm0.009766 1a8 8 0 0 1 8 8 8 8 0 0 1-8 8 8 8 0 0 1-8-8 8 8 0 0 1 8-8zm1 2v6.9473a3 3 0 0 0 0 0.052734v3h1v-0.76367a3 3 0 0 0 2 0.76367 3 3 0 0 0 0.050781 0 3 3 0 0 0 2.9492-3 3 3 0 0 0-3-3 3 3 0 0 0-2 0.76562v-4.7656h-1zm-5.0508 2a3 3 0 0 0-2.9492 3 3 3 0 0 0 3 3 3 3 0 0 0 2-0.76562v4.7656h1v-6.9473a3 3 0 0 0 0-0.052734v-3h-1v0.76367a3 3 0 0 0-2-0.76367 3 3 0 0 0-0.050781 0zm0 1a2 2 0 0 1 0.0019531 0 2 2 0 0 1 0.048828 0 2 2 0 0 1 2 1.9512 2 2 0 0 1 0 0.048828 2 2 0 0 1-2 2 2 2 0 0 1-2-2 2 2 0 0 1 1.9492-2zm8 2a2 2 0 0 1 0.001953 0 2 2 0 0 1 0.048828 0 2 2 0 0 1 2 2 2 2 0 0 1-1.9512 2 2 2 0 0 1-0.048828 0 2 2 0 0 1-2-2 2 2 0 0 1 1.9492-2z" class="ColorScheme-Text" fill="currentColor"/>
</svg>
