<svg width="22" height="22" version="1.1" xmlns="http://www.w3.org/2000/svg">
 <defs>
  <style id="current-color-scheme" type="text/css">.ColorScheme-Text { color:#f2f2f2; } .ColorScheme-Highlight { color:#4285f4; }</style>
 </defs>
 <path class="ColorScheme-Text" d="m11 3c-2.84 0-5.1406 2.3102-5.1406 5.1602 0 1.68 0.79102 3.1596 2.041 4.0996 0.57 0.43 1.0488 0.98976 1.0488 1.7598l0.050781 0.98047h4l0.06055-0.98047c0.04-0.77 0.46906-1.3298 1.0391-1.7598 1.25-0.94 2.041-2.4196 2.041-4.0996-3e-6 -2.85-2.3006-5.1602-5.1406-5.1602zm0 1c2.2977 0 4.1406 1.8482 4.1406 4.1602 0 1.3665-0.6338 2.5422-1.6426 3.3008-0.70793 0.53405-1.3739 1.3876-1.4355 2.498v0.0059l-2e-3 0.0039-0.0019 0.03122h-2.1074l-0.00195-0.03125v0.05078c-3.2e-6 -1.1856-0.75951-2.0398-1.4473-2.5586-1.0088-0.7586-1.6426-1.9343-1.6426-3.3008 0-2.312 1.8429-4.1602 4.1406-4.1602zm-2 12v1h4v-1zm1 2v1h2v-1z" fill="currentColor"/>
</svg>
