<svg xmlns="http://www.w3.org/2000/svg" width="22" height="22"><defs><style id="current-color-scheme" type="text/css">.ColorScheme-Text{color:#fff}</style></defs><path class="ColorScheme-Text" d="M6.463 3a2.499 2.499 0 012.484 2.006h2.733c2.093 0 3.79 1.395 3.79 3.488 0 1.247-.61 2.237-1.54 2.842l1.01 1.443A5.451 5.451 0 0017 8.512c0-3.024-2.462-5.477-5.5-5.477H6.904A2.511 2.511 0 006.463 3zm-2.46 2.52L4 5.523v.036c0-.013.004-.026.004-.04zM4 5.559v10.916c-.048 3.366 5.048 3.366 5 0v-2.489h.68l-.05-.07a2.5 2.5 0 01-.425-1.932H6.793v4.688c.008.54-.806.54-.799 0v-8.73A2.486 2.486 0 014 5.558zm4.97.244c-.005.043-.001.087-.01.13a2.464 2.464 0 01-2.168 2.04l.001 3.213h2.711a2.5 2.5 0 011.662-1.182H9V7.018h2.5c.876 0 1.5.622 1.5 1.494 0 .745-.458 1.301-1.137 1.449a2.5 2.5 0 011.584.748c.742-.456 1.225-1.219 1.225-2.215 0-1.662-1.33-2.691-2.992-2.691H8.97z" fill="currentColor" opacity=".3"/><path class="ColorScheme-Text" d="M6.455 3a2.483 2.483 0 00-1.389.451A2.485 2.485 0 004.04 5.066a2.5 2.5 0 003.895 2.482A2.486 2.486 0 008.96 5.935 2.5 2.5 0 006.455 3zm5.14 6.953a2.5 2.5 0 00-1.964 3.963l2.793 3.988a2.5 2.5 0 104.096-2.867l-2.791-3.988a2.5 2.5 0 00-2.133-1.096z" fill="currentColor"/></svg>