<svg xmlns="http://www.w3.org/2000/svg" id="svg1" width="22" height="22" version="1.1">
<style id="current-color-scheme" type="text/css">.ColorScheme-Text{color:#f2f2f2}</style>
<g id="showinfo" transform="translate(22 -109)"><path id="rect4400" d="M-22 109H0v22h-22z" style="opacity:1;fill:none;fill-opacity:1;stroke:none"/>
<g id="layer1-8" transform="translate(-22 -921.362)"><path id="rect4120" d="M10.5 1037.362h1v1h-1z" class="ColorScheme-Text" style="opacity:1;fill:currentColor;fill-opacity:1;stroke:none"/>
<path id="rect4124" d="M10.5 1039.362h1v7h-1z" class="ColorScheme-Text" style="opacity:1;fill:currentColor;fill-opacity:1;stroke:none"/><path id="rect4129" d="M11 3c-4.432 0-8 3.568-8 8s3.568 8 8 8 8-3.568 8-8-3.568-8-8-8m0 1c3.878 0 7 3.122 7 7s-3.122 7-7 7-7-3.122-7-7 3.122-7 7-7" class="ColorScheme-Text" style="opacity:1;fill:currentColor;fill-opacity:1;stroke:none" transform="translate(0 1030.362)"/>
</g>
</g>
</svg>
