<svg xmlns="http://www.w3.org/2000/svg" width="22" height="22"><defs><style id="current-color-scheme" type="text/css"></style></defs><path d="M8.5 4A1.5 1.5 0 007 5.5 1.5 1.5 0 008.5 7H10V5.5A1.5 1.5 0 008.5 4zm4 0A1.5 1.5 0 0011 5.5v4a1.5 1.5 0 001.5 1.5A1.5 1.5 0 0014 9.5v-4A1.5 1.5 0 0012.5 4zm-8 4A1.5 1.5 0 003 9.5 1.5 1.5 0 004.5 11h4A1.5 1.5 0 0010 9.5 1.5 1.5 0 008.5 8zm12 0A1.5 1.5 0 0015 9.5V11h1.5A1.5 1.5 0 0018 9.5 1.5 1.5 0 0016.5 8zm-12 4A1.5 1.5 0 003 13.5 1.5 1.5 0 004.5 15 1.5 1.5 0 006 13.5V12zm4 0A1.5 1.5 0 007 13.5v4A1.5 1.5 0 008.5 19a1.5 1.5 0 001.5-1.5v-4A1.5 1.5 0 008.5 12zm4 0a1.5 1.5 0 00-1.5 1.5 1.5 1.5 0 001.5 1.5h4a1.5 1.5 0 001.5-1.5 1.5 1.5 0 00-1.5-1.5zM11 16v1.5a1.5 1.5 0 001.5 1.5 1.5 1.5 0 001.5-1.5 1.5 1.5 0 00-1.5-1.5z" fill="currentColor" color="#fff"/></svg>