<svg xmlns="http://www.w3.org/2000/svg" width="22" height="22"><g transform="translate(3 4)" fill="currentColor"><path d="M5.5 0A1.5 1.5 0 004 1.5 1.5 1.5 0 005.5 3H7V1.5A1.5 1.5 0 005.5 0zm4 0A1.5 1.5 0 008 1.5v4A1.5 1.5 0 009.5 7 1.5 1.5 0 0011 5.5V4.232A3 3 0 0110 2a3 3 0 01.484-1.629A1.5 1.5 0 009.5 0zm-8 4A1.5 1.5 0 000 5.5 1.5 1.5 0 001.5 7h4A1.5 1.5 0 007 5.5 1.5 1.5 0 005.5 4zm13.131.516A3 3 0 0113 5a3 3 0 01-.859-.127A1.5 1.5 0 0012 5.5V7h1.5A1.5 1.5 0 0015 5.5a1.5 1.5 0 00-.369-.984zM1.5 8A1.5 1.5 0 000 9.5 1.5 1.5 0 001.5 11 1.5 1.5 0 003 9.5V8zm4 0A1.5 1.5 0 004 9.5v4A1.5 1.5 0 005.5 15 1.5 1.5 0 007 13.5v-4A1.5 1.5 0 005.5 8zm4 0A1.5 1.5 0 008 9.5 1.5 1.5 0 009.5 11h4A1.5 1.5 0 0015 9.5 1.5 1.5 0 0013.5 8zM8 12v1.5A1.5 1.5 0 009.5 15a1.5 1.5 0 001.5-1.5A1.5 1.5 0 009.5 12z" color="#fff"/><circle cx="13" cy="2" r="2" color="#4285f4"/></g></svg>