<svg xmlns="http://www.w3.org/2000/svg" viewBox="0 0 22 22"><path d="M14.873 14.133l-1.186-1.419a.682.682 0 00-.958-.067l-.715.597-.123-.083c-.394-.267-.932-.632-1.476-1.283-.544-.651-.809-1.247-1.002-1.683l-.06-.132.48-.4.236-.198a.681.681 0 00.103-.956L8.987 7.091a.68.68 0 00-.96-.068l-.4.336.01.011a2.13 2.13 0 00-.35.506c-.087.18-.147.353-.183.53-.3 1.41.236 2.77 1.845 4.696 2.225 2.661 4.21 2.652 4.297 2.651a2.208 2.208 0 001.113-.341l.007.008.404-.331a.682.682 0 00.103-.956m4.129-3.142a7.999 7.999 0 01-8 7.999 7.999 7.999 0 01-7.998-7.999 7.999 7.999 0 017.999-7.998 7.999 7.999 0 017.999 7.998" fill="#2ecc71"/></svg>