<svg width="22" height="22" xmlns="http://www.w3.org/2000/svg"><path d="M13.062 6.249c.482-.601.81-1.418.72-2.246-.696.029-1.563.483-2.065 1.067-.443.517-.837 1.364-.735 2.162.78.058 1.58-.395 2.08-.983zm1.76 5.201c-.017-1.77 1.448-2.63 1.514-2.67-.829-1.21-2.114-1.375-2.567-1.39-1.08-.11-2.126.65-2.678.65-.56 0-1.408-.636-2.32-.618-1.176.017-2.277.698-2.88 1.752-1.24 2.155-.315 5.32.877 7.058.597.855 1.292 1.807 2.204 1.77.893-.034 1.225-.567 2.304-.567 1.067 0 1.38.567 2.31.548.958-.015 1.56-.856 2.137-1.715a7.1 7.1 0 00.975-1.992c-.022-.008-1.857-.706-1.877-2.826z" stroke-width=".229" color="#565656" fill="#fff"/></svg>