<svg width="22" height="22" version="1.1" viewBox="0 0 22 22" xmlns="http://www.w3.org/2000/svg">
 <defs>
  <style id="current-color-scheme" type="text/css">.ColorScheme-Text {
        color:#ffffff;
      }</style>
 </defs>
 <path class="ColorScheme-Text" d="m10.943 3.5a7.5 7.5 0 0 0-7.4434 7.5 7.5 7.5 0 0 0 7.5 7.5 7.5 7.5 0 0 0 7.5-7.5 7.5 7.5 0 0 0-7.5-7.5 7.5 7.5 0 0 0-0.05664 0zm0.0039 1a6.5 6.5 0 0 1 0.05273 0 6.5 6.5 0 0 1 6.5 6.5 6.5 6.5 0 0 1-6.5 6.5 6.5 6.5 0 0 1-6.5-6.5 6.5 6.5 0 0 1 6.4473-6.5zm0.93164 2.377c-0.12781 0-0.25558 0.050503-0.35352 0.14844-0.19587 0.19587-0.19587 0.51116 0 0.70703l1.2676 1.2676h-4.793c-0.277 0-0.5 0.223-0.5 0.5s0.223 0.5 0.5 0.5h6c0.03195 0 0.06422-0.0036 0.0957-0.0098 0.13462-0.02583 0.24966-0.10466 0.32227-0.21484 0.0079-0.01192 0.01473-0.02471 0.02148-0.03711 0.0011-0.0021 0.0028-0.0038 0.0039-0.0059 0.0026-0.0049 0.0034-0.01062 0.0059-0.01563 0.0184-0.0382 0.03278-0.07818 0.04101-0.12109 0.0028-0.01451 0.0063-0.03025 0.0078-0.04492 1.31e-4 -0.0013-1.21e-4 -0.0026 0-0.0039 0.0031-0.03184 0.0031-0.06582 0-0.09766-0.0066-0.06495-0.02584-0.12655-0.05469-0.18164-0.0011-2e-3 -0.0028-0.0038-0.0039-0.0059-0.0068-0.01259-0.01364-0.02521-0.02148-0.03711-9.75e-4 -0.0015-0.0029-0.0024-0.0039-0.0039-0.0035-0.0051-0.0061-0.01063-0.0098-0.01563-0.0053-0.0073-0.01182-0.01638-0.01758-0.02344-0.01017-0.01234-0.02191-0.02386-0.0332-0.03516l-2.1211-2.1211c-0.09793-0.097934-0.22571-0.14844-0.35352-0.14844zm-3.8789 5.123c-0.078064 0-0.15109 0.01914-0.2168 0.05078-5e-3 0.0024-0.010686 0.0033-0.015625 0.0059-0.00208 0.0011-0.0038 0.0028-0.00586 0.0039-0.012326 0.0067-0.025258 0.0156-0.037109 0.02344-0.041341 0.02736-0.077937 0.05953-0.10938 0.09766-8.967e-4 0.0011-0.00107 0.0028-0.00195 0.0039-0.010092 0.01245-0.020423 0.02566-0.029297 0.03906l-0.00195 2e-3c-0.0075 0.01147-0.014925 0.02305-0.021484 0.03516-0.00383 7e-3 -0.0063 0.01433-0.00977 0.02148-0.010589 0.02199-0.020017 0.0447-0.027344 0.06836-7.864e-4 0.0025-0.00121 0.0053-0.00195 0.0078-0.00579 0.01984-0.010345 0.03975-0.013672 0.06055-0.00947 0.05821-0.00931 0.11782 0.00195 0.17578 0.0027 0.0141 0.00591 0.02738 0.00977 0.04102 5.603e-4 2e-3 0.00137 0.0039 0.00195 0.0059 5.897e-4 2e-3 0.00134 0.0039 0.00195 0.0059 0.00418 0.01348 0.00832 0.02785 0.013672 0.04101 3e-3 0.0074 0.00643 0.01431 0.00977 0.02149 0.00344 0.0074 0.00594 0.01422 0.00977 0.02148 0.00109 0.0021 0.00279 0.0038 0.00391 0.0059 0.00676 0.0124 0.013597 0.02519 0.021484 0.03711 9.842e-4 0.0015 0.00291 0.0024 0.00391 0.0039 0.00835 0.01234 0.017769 0.02538 0.027344 0.03711l0.00195 2e-3c0.010198 0.01235 0.019686 0.02359 0.03125 0.03516 0.011297 0.0113 0.022819 0.02303 0.035156 0.0332l2.0859 2.0879c0.19587 0.19587 0.51116 0.19587 0.70703 0 0.19587-0.19587 0.19587-0.51116 0-0.70703l-1.2676-1.2676h4.793c0.277 0 0.5-0.223 0.5-0.5s-0.223-0.5-0.5-0.5h-6z" color="#ffffff" fill="currentColor"/>
</svg>
