<svg width="22" height="22" xmlns="http://www.w3.org/2000/svg"><path d="M9.871 4.003c-3.233 0-5.873 2.64-5.873 5.873s2.64 5.874 5.873 5.874c1.287 0 2.417-.502 3.387-1.21l5.462 5.463 1.278-1.278-5.463-5.462c.708-.97 1.21-2.1 1.21-3.387 0-3.233-2.64-5.873-5.874-5.873zm0 1.807c2.256 0 4.066 1.81 4.066 4.066s-1.81 4.066-4.066 4.066a4.053 4.053 0 01-4.066-4.066A4.053 4.053 0 019.87 5.81z" color="#000" fill="#fff" fill-rule="evenodd" font-weight="400" overflow="visible" stroke-width="1.225" style="isolation:auto;mix-blend-mode:normal;text-decoration-color:#000;text-decoration-line:none;text-decoration-style:solid;text-indent:0;text-transform:none;white-space:normal"/></svg>