<svg version="1.1" viewBox="0 0 22 22" xmlns="http://www.w3.org/2000/svg">
 <defs>
  <style id="current-color-scheme" type="text/css">.ColorScheme-Text {
        color:#f2f2f2;
      }</style>
 </defs>
 <path class="ColorScheme-Text" d="m6 3c-1.108 0-2 0.892-2 2h-0.5c-0.277 0-0.5 0.223-0.5 0.5s0.223 0.5 0.5 0.5h0.5v1h-0.5c-0.277 0-0.5 0.223-0.5 0.5s0.223 0.5 0.5 0.5h0.5v6h-0.5c-0.277 0-0.5 0.223-0.5 0.5s0.223 0.5 0.5 0.5h0.5v1h-0.5c-0.277 0-0.5 0.223-0.5 0.5s0.223 0.5 0.5 0.5h0.5c0 1.108 0.892 2 2 2h11c1.108 0 2-0.892 2-2v-6h-1v6c0 0.554-0.446 1-1 1h-10v-14h10c0.554 0 1 0.446 1 1v3h1v-3c0-1.108-0.892-2-2-2h-11zm0 1v1h-1c0-0.554 0.446-1 1-1zm-1 2h1v1h-1v-1zm3 0v1h1v-1h-1zm2 0v1h7v-1h-7zm-5 2h1v6h-1v-6zm12.656 0.92969-5.6562 5.6563-2.8281-2.8281-0.70703 0.70703 3.5352 3.5352 6.3633-6.3633-0.70703-0.70703zm-12.656 6.0703h1v1h-1v-1zm0 2h1v1c-0.554 0-1-0.446-1-1z" fill="currentColor"/>
</svg>
