<svg width="22" height="22" enable-background="new" version="1.1" xmlns="http://www.w3.org/2000/svg">
 <defs>
  <style id="current-color-scheme" type="text/css">.ColorScheme-Text { color:#ffffff; } .ColorScheme-Highlight { color:#4285f4; }</style>
 </defs>
 <circle cx="17" cy="17" r="3" fill="#f76868"/>
 <path class="ColorScheme-Text" d="m11 2a9 9 0 0 0-9 9 9 9 0 0 0 9 9 9 9 0 0 0 2.8906-0.49609 4 4 0 0 1-0.53906-0.86523 8 8 0 0 1-2.3516 0.36133 8 8 0 0 1-8-8 8 8 0 0 1 8-8 8 8 0 0 1 8 8 8 8 0 0 1-0.36133 2.3516 4 4 0 0 1 0.86719 0.53125 9 9 0 0 0 0.49414-2.8828 9 9 0 0 0-9-9zm0 4.998c-0.01534 5e-7 -0.03354 5.463e-4 -0.04883 0.00195-0.07895 0.00789-0.15773 0.036483-0.22656 0.082031-0.01344 0.00889-0.02828 0.018969-0.04101 0.029297-0.01273 0.010457-0.02521 0.023253-0.03711 0.035156l-2.8281 2.8281c-0.19587 0.19587-0.19587 0.51116 0 0.70703 0.19587 0.19587 0.51116 0.19587 0.70703 0l1.9746-1.9746v5.7949c0 0.277 0.223 0.5 0.5 0.5s0.5-0.223 0.5-0.5v-5.7949l1.9746 1.9746c0.19587 0.19587 0.51116 0.19587 0.70703 0 0.19587-0.19587 0.19587-0.51116 0-0.70703l-2.8281-2.8281c-0.0119-0.011903-0.02438-0.024699-0.03711-0.035156h-2e-3c-0.078097-0.063852-0.17072-0.10185-0.26558-0.11133h-2e-3c-0.015873-0.00153-0.030858-0.0019531-0.046828-0.0019531z" fill="currentColor"/>
</svg>
