<?xml version="1.0" encoding="UTF-8"?>
<svg version="1.1" viewBox="0 0 22 22" xmlns="http://www.w3.org/2000/svg">
 <defs>
  <style id="current-color-scheme" type="text/css">.ColorScheme-Text {
        color:#f2f2f2;
      }</style>
 </defs>
 <path class="ColorScheme-Text" d="m6.1211 4 0.87891 0.87891v-0.87891h-0.87891zm7.8789 2v2h-1v1h-1v0.87891l4.1211 4.1211h0.87891v-1h1v-1h1v-1h-1v-1h-1v-1h-1v-2h-1v-1h-1zm-9 1.1211v1.8789h-1v2h-1v1h1v2h1v3h1v2h1v-3h1v-3h1v-1h0.87891l-4.8789-4.8789zm9 9v0.87891h0.87891l-0.87891-0.87891z" fill="currentColor"/>
 <path class="ColorScheme-NegativeText" d="M 3,3.7071073 3.7071067,3 19,18.292893 18.292893,19 Z" color="#da4453" fill="currentColor"/>
</svg>
