<svg width="22" height="22" version="1.1" xmlns="http://www.w3.org/2000/svg">
 <defs>
  <style id="current-color-scheme" type="text/css">.ColorScheme-Text { color:#f2f2f2; } .ColorScheme-Highlight { color:#5294e2; }</style>
 </defs>
 <path class="ColorScheme-Text" d="m11 4.9999c-1.8364 0-3.3667 1.2018-3.9375 2.8438-1.7231 0.21836-3.0625 1.6745-3.0625 3.457 0 1.7798 1.3334 3.2333 3.0527 3.4551l0.50391-1.9062v-2e-3c0.1607-0.61695 0.68871-1.0561 1.2832-1.1387 0.20306-0.02819 0.41106-0.01476 0.60742 0.03711 0.28791 0.07605 0.4688 0.30227 0.66016 0.50781 0.24473-0.2785 0.54869-0.49419 0.91406-0.54492 0.20306-0.02819 0.41106-0.01476 0.60742 0.03711 0.28791 0.07605 0.4688 0.30227 0.66016 0.50781 0.24473-0.2785 0.54869-0.49419 0.91406-0.54492 0.20306-0.02819 0.41106-0.01476 0.60742 0.03711 0.81565 0.21545 1.3132 1.0706 1.0977 1.8867v2e-3l-0.31445 1.166h0.60547c1.5464 0 2.8008-1.2544 2.8008-2.8008s-1.2544-2.8008-2.8008-2.8008c0-2.3195-1.8797-4.1992-4.1992-4.1992z" fill="currentColor"/>
 <path class="ColorScheme-Text" d="m8.9766 12.699c-0.20991 0.02914-0.3939 0.17948-0.45117 0.40039l-0.69727 2.6348c-0.08728 0.2891 0.08045 0.58966 0.375 0.66602 0.28909 0.07637 0.58965-0.09412 0.66602-0.38867l0.70898-2.6348c0.07637-0.2891-0.097629-0.5877-0.38672-0.66406-0.072272-0.01909-0.14487-0.02339-0.21484-0.01367zm2.1816 0c-0.20991 0.02914-0.3939 0.17948-0.45117 0.40039l-1.1348 4.2109c-0.07637 0.29455 0.099582 0.58265 0.38867 0.66992 0.29455 0.07637 0.59356-0.08672 0.66992-0.38672l1.1289-4.2168c0.07637-0.2891-0.09763-0.5877-0.38672-0.66406-0.07227-0.01909-0.14487-0.02339-0.21484-0.01367zm2.1816 0c-0.20992 0.02914-0.3939 0.17948-0.45117 0.40039l-0.69727 2.6348c-0.08728 0.2891 0.0824 0.58966 0.37695 0.66602 0.28909 0.07637 0.5877-0.09412 0.66406-0.38867l0.70898-2.6348c0.07637-0.2891-0.09763-0.5877-0.38672-0.66406-0.07227-0.01909-0.14487-0.02339-0.21484-0.01367z" fill="currentColor" opacity=".45"/>
</svg>
