<svg width="22" height="22" version="1.1" xmlns="http://www.w3.org/2000/svg">
 <defs>
  <style id="current-color-scheme" type="text/css">.ColorScheme-Text { color:#f2f2f2; } .ColorScheme-Highlight { color:#5294e2; }</style>
 </defs>
 <path d="m10.3 4.0318c-2.5788 0.094659-4.955 1.6839-5.892 4.2575-1.1797 3.2402 0.34411 6.8349 3.4418 8.2234-0.08699-0.3149-0.1371-0.65966-0.11667-0.99147 0.025854-0.93432 0.54506-1.7612 1.2834-2.3038-1.4625-1.6173-1.9933-3.9626-1.1959-6.1529 0.4799-1.3183 1.3762-2.3406 2.4792-3.0327zm0.175 10.381c-0.38927 0.16033-0.70746 0.45394-0.8167 0.87483-0.2475 0.76982 0.31324 1.6372 1.1084 1.7497 1.6763-0.06906 3.2663-0.75643 4.4336-1.9538v-0.1458c-1.1955 0.34954-2.503 0.37086-3.7626-0.08743-0.33788-0.12295-0.66152-0.26374-0.96254-0.43742z" color="#f2f2f2" fill="#f2f2f2" stroke-width="1.1667"/>
 <ellipse transform="matrix(.93972 .34195 -.34209 .93967 0 0)" cx="13.501" cy="6.2948" rx="6.5334" ry="6.5323" color="#f2f2f2" fill="#f2f2f2" opacity="0" stroke-width="1.1667"/>
 <path d="m13.333 11.468c-1.2243 0-2.2446 0.80104-2.6251 1.8954-1.1488 0.14555-2.0417 1.1156-2.0417 2.3038 0 1.2884 1.0447 2.3329 2.3334 2.3329h5.1336c1.031 0 1.8667-0.83557 1.8667-1.8663 0-1.0307-0.83576-1.8663-1.8667-1.8663 0-1.5461-1.2536-2.7995-2.8001-2.7995z" color="#f2f2f2" fill="#f2f2f2" stroke-width="1.1667"/>
</svg>
