<svg width="22" height="22" version="1.1" xmlns="http://www.w3.org/2000/svg">
 <defs>
  <style id="current-color-scheme" type="text/css">.ColorScheme-Text { color:#f2f2f2; } .ColorScheme-Highlight { color:#5294e2; }</style>
 </defs>
 <path class="ColorScheme-Text" d="m11 6c-1.8364 0-3.3667 1.2018-3.9375 2.8438-1.7231 0.21836-3.0625 1.6745-3.0625 3.457 0 1.933 1.567 3.5 3.5 3.5h0.13672c-0.00924-0.0886-0.021108-0.17731-0.017578-0.26367 0.021684-0.53046 0.22203-0.98051 0.47266-1.375l1.6816-2.9141 0.68164 1.1797 1.6523-2.8574 1.6797 2.9082c0.27331 0.42271 0.48629 0.88499 0.49609 1.4316 0.0097 0.5432-0.24979 1.0969-0.62109 1.4766-0.19243 0.19888-0.41564 0.32226-0.63867 0.41406h2.1758c1.5464 0 2.8008-1.2544 2.8008-2.8008s-1.2544-2.8008-2.8008-2.8008c0-2.3195-1.8797-4.1992-4.1992-4.1992z" fill="currentColor"/>
 <g class="ColorScheme-Text" transform="matrix(1.1667 0 0 1.1667 1.6667 2.6667)" fill="currentColor" opacity=".45">
  <path d="m7.6681 10.313-0.71876-1.2438-0.71876 1.2438c-0.32306 0.50849-0.40271 1.0246 0 1.4324 0.209 0.2192 0.46388 0.25488 0.71876 0.25488s0.50976-0.03568 0.71876-0.25488c0.40271-0.40781 0.36892-0.86182 0-1.4324z"/>
  <path d="m9.6681 8.875-0.71876-1.2438-0.71876 1.2438c-0.32306 0.50849-0.40271 1.0246 0 1.4324 0.209 0.2192 0.46388 0.25488 0.71876 0.25488s0.50976-0.03568 0.71876-0.25488c0.40271-0.40781 0.36892-0.86182 0-1.4324z"/>
 </g>
</svg>
