<svg version="1.1" viewBox="0 0 32 32" xmlns="http://www.w3.org/2000/svg">
 <defs>
  <style id="current-color-scheme" type="text/css">.ColorScheme-Text {
        color:#363636;
      }</style>
 </defs>
 <path class="ColorScheme-Text" d="m10 4c-1.662 0-3 1.338-3 3h-2c-0.554 0-1 0.446-1 1v4c0 0.554 0.446 1 1 1h2v6h-2c-0.554 0-1 0.446-1 1v4c0 0.554 0.446 1 1 1h2c0 1.662 1.338 3 3 3h15c1.662 0 3-1.338 3-3v-18c0-1.662-1.338-3-3-3h-15zm0 1h2v22h-2c-1.108 0-2-0.892-2-2v-1-4-8-4-1c0-1.108 0.892-2 2-2zm3 0h12c1.108 0 2 0.892 2 2v18c0 1.108-0.892 2-2 2h-12v-22z" fill="currentColor"/>
</svg>
