<svg version="1.1" viewBox="0 0 32 32" xmlns="http://www.w3.org/2000/svg">
 <defs>
  <style id="current-color-scheme" type="text/css">.ColorScheme-Text {
        color:#363636;
      }</style>
 </defs>
 <path class="ColorScheme-Text" d="m29 16.5c0-0.277-0.223-0.5-0.5-0.5h-1.5v-3c0-1.108-0.892-2-2-2h-6c-1.108 0-2 0.892-2 2v3h-1.9883l0.01172-8c0.0016-1.108-0.89068-2-1.9961-2h-5.9844c-1.1054 0-1.9946 0.892-1.9961 2l-0.01172 8h-1.5352c-0.277 0-0.5 0.223-0.5 0.5s0.223 0.5 0.5 0.5h1.5352l-0.01172 8c-0.0016 1.108 0.89068 2 1.9961 2h5.9844c1.1054 0 1.9946-0.892 1.9961-2l0.01172-8h1.9883v3c0 1.108 0.892 2 2 2h6c1.108 0 2-0.892 2-2v-3h1.5c0.277 0 0.5-0.223 0.5-0.5zm-3-3.5v7c0 0.554-0.446 1-1 1h-6c-0.554 0-1-0.446-1-1v-7c0-0.554 0.446-1 1-1h6c0.554 0 1 0.446 1 1zm-11.975-5-0.01172 8h-0.013671v1h0.01367l-0.01172 8c-7.6e-4 0.554-0.44534 1-0.99805 1h-5.9844c-0.55271 0-0.99881-0.446-0.99805-1l0.023441-17c7.6e-4 -0.554 0.44534-1 0.99805-1h5.9844c0.55271 0 0.99885 0.446 0.99805 1z" fill="currentColor"/>
</svg>
