<svg version="1.1" viewBox="0 0 32 32" xmlns="http://www.w3.org/2000/svg">
 <defs>
  <style id="current-color-scheme" type="text/css">.ColorScheme-Text {
        color:#363636;
      }</style>
 </defs>
 <path class="ColorScheme-Text" d="m20 8c-1.108 0-1.9984 0.892-2 2l-0.02336 16c-0.0016 1.108 0.892 2 2 2h6c1.108 0 1.9984-0.892 2-2l0.02336-16c0.001618-1.108-0.892-2-2-2zm0 1h6c0.554 0 1.0008 0.446 1 1l-0.02336 16c-8.09e-4 0.554-0.446 1-1 1h-6c-0.554 0-1.0008-0.446-1-1l0.02336-16c8.09e-4 -0.554 0.446-1 1-1z" fill="currentColor"/>
 <path class="ColorScheme-Text" d="m6 8c-1.108 0-2 0.892-2 2v6c0 1.108 0.892 2 2 2h6c1.108 0 2-0.892 2-2v-6c0-1.108-0.892-2-2-2zm0 1h6c0.554 0 1 0.446 1 1v6c0 0.554-0.446 1-1 1h-6c-0.554 0-1-0.446-1-1v-6c0-0.554 0.446-1 1-1z" fill="currentColor"/>
 <rect class="ColorScheme-Text" x="3" y="4" width="26" height="1" rx=".5" ry=".5" fill="currentColor"/>
</svg>
