<svg version="1.1" viewBox="0 0 32 32" xmlns="http://www.w3.org/2000/svg">
 <defs>
  <style id="current-color-scheme" type="text/css">.ColorScheme-NegativeText {
                color:#da4453;
            }</style>
 </defs>
 <g class="ColorScheme-NegativeText" fill="currentColor">
  <path d="m12.111 13.402-0.70703 0.70898 3.8887 3.8887-3.8887 3.8887 0.70703 0.70703 3.8887-3.8887 3.8887 3.8887 0.70703-0.70703-3.8887-3.8887 3.8887-3.8887-0.70703-0.70898-3.8887 3.8887z" class="ColorScheme-NegativeText" fill="currentColor"/>
 </g>
 <path class="ColorScheme-NegativeText" fill="currentColor" d="m7 4c-1.662 0-3 1.338-3 3v18c0 1.662 1.338 3 3 3h18c1.662 0 3-1.338 3-3v-18c0-1.662-1.338-3-3-3zm0 1h18c1.108 0 2 0.892 2 2v1h-22v-1c0-1.108 0.892-2 2-2zm-2 4h22v16c0 1.108-0.892 2-2 2h-18c-1.108 0-2-0.892-2-2z"/>
</svg>
