<svg version="1.1" viewBox="0 0 32 32" xmlns="http://www.w3.org/2000/svg">
 <style id="current-color-scheme" type="text/css">.ColorScheme-Text{color:#363636;}</style>
 <g class="ColorScheme-Text" fill="currentColor">
  <path d="m16 3v2h2v-2zm0 2h-2v2h2zm0 2v2h2v-2zm0 2h-2v2h2zm0 2v2h2v-2zm0 2h-2v4h4v-2h-2z"/>
  <path d="m25.5 17.996-4.5 4.5 0.70703 0.70703 3.293-3.293v10.09h1v-10.09l3.293 3.293 0.70703-0.70703z"/>
 </g>
 <path d="m5 2c-1.662 0-3 1.338-3 3v22c0 1.662 1.338 3 3 3h16v-1h-16c-1.108 0-2-0.892-2-2v-22c0-1.108 0.892-2 2-2h22c1.108 0 2 0.892 2 2v13h1v-13c0-1.662-1.338-3-3-3h-22z" class="ColorScheme-Text" fill="currentColor"/>
</svg>
