<svg version="1.1" viewBox="0 0 32 32" xmlns="http://www.w3.org/2000/svg">
 <style id="current-color-scheme" type="text/css">.ColorScheme-Text{color:#363636;}</style>
 <path d="m24 19v5h-5v1h5v5h1v-5h5v-1h-5v-5z" class="ColorScheme-Text" fill="currentColor"/>
 <path d="m16 3v2h2v-2zm0 2h-2v2h2zm0 2v2h2v-2zm0 2h-2v2h2zm0 2v2h2v-2zm0 2h-2v4h4v-2h-2z" class="ColorScheme-Text" fill="currentColor"/>
 <path class="ColorScheme-Text" d="m5 2c-1.662 0-3 1.338-3 3v22c0 1.662 1.338 3 3 3h16v-1h-16c-1.108 0-2-0.892-2-2v-22c0-1.108 0.892-2 2-2h22c1.108 0 2 0.892 2 2v13h1v-13c0-1.662-1.338-3-3-3z" fill="currentColor"/>
</svg>
