<svg width="32" height="32" version="1.1" viewBox="0 0 32 32" xmlns="http://www.w3.org/2000/svg">
 <defs>
  <style id="current-color-scheme" type="text/css">.ColorScheme-Text { color: #363636; }</style>
 </defs>
 <path class="ColorScheme-Text" d="m7 4c-1.108 0-2 0.892-2 2v5c0 1.108 0.892 2 2 2h2v6h-3c-1.108 0-2 0.892-2 2v5c0 1.108 0.892 2 2 2h5c1.108 0 2-0.892 2-2v-5c0-1.108-0.892-2-2-2h-1v-6h5c1.108 0 2-0.892 2-2v-2h6c0.554 0 1 0.446 1 1v10h-2c-1.108 0-2 0.892-2 2v4c0 1.108 0.892 2 2 2h4c1.108 0 2-0.892 2-2v-4c0-1.108-0.892-2-2-2h-1v-10c0-1.108-0.892-2-2-2h-6v-2c0-1.108-0.892-2-2-2h-8zm0 1h8c0.554 0 1 0.446 1 1v2 1 2c0 0.554-0.446 1-1 1h-8c-0.554 0-1-0.446-1-1v-5c0-0.554 0.446-1 1-1zm-1 15h5c0.554 0 1 0.446 1 1v5c0 0.554-0.446 1-1 1h-5c-0.554 0-1-0.446-1-1v-5c0-0.554 0.446-1 1-1zm16 1h2 1 1c0.554 0 1 0.446 1 1v4c0 0.554-0.446 1-1 1h-4c-0.554 0-1-0.446-1-1v-4c0-0.554 0.446-1 1-1z" fill="currentColor"/>
</svg>
