<svg version="1.1" viewBox="0 0 32 32" xmlns="http://www.w3.org/2000/svg">
 <defs>
  <style id="current-color-scheme" type="text/css">.ColorScheme-Text {
        color:#363636;
      }
      .ColorScheme-Highlight {
        color:#3daee9;
      }</style>
 </defs>
 <path class="ColorScheme-Text" d="m16 4c-0.277 0-0.5 0.223-0.5 0.5v1.5352a10 10 0 0 0-1.5957 0.21289l-0.39844-1.4863c-0.071693-0.26756-0.34377-0.42521-0.61133-0.35352-0.26756 0.071693-0.42521 0.34572-0.35352 0.61328l0.39453 1.4746a10 10 0 0 0-1.4844 0.62305l-0.76758-1.3281c-0.1385-0.23989-0.4437-0.32209-0.68359-0.18359s-0.32209 0.4437-0.18359 0.68359l0.75586 1.3086a10 10 0 0 0-1.2715 0.99414l-1.0781-1.0781c-0.19587-0.19587-0.51312-0.19587-0.70898 0s-0.19587 0.51116 0 0.70703l1.0801 1.0781a10 10 0 0 0-0.99023 1.2734l-1.3125-0.75781c-0.23989-0.1385-0.54509-0.056295-0.68359 0.18359s-0.056295 0.54509 0.18359 0.68359l1.3281 0.76758a10 10 0 0 0-0.62305 1.4844l-1.4746-0.39453c-0.26756-0.071693-0.54159 0.085954-0.61328 0.35352-0.071693 0.26756 0.085954 0.53964 0.35352 0.61133l1.4863 0.39844a10 10 0 0 0-0.21289 1.5957h-1.5352c-0.277 0-0.5 0.223-0.5 0.5s0.223 0.5 0.5 0.5h1.5352a10 10 0 0 0 0.21289 1.5957l-1.4863 0.39844c-0.26756 0.071693-0.42521 0.34377-0.35352 0.61133 0.071693 0.26756 0.34572 0.42521 0.61328 0.35352l1.4746-0.39453a10 10 0 0 0 0.62305 1.4863l-1.3281 0.76562c-0.23989 0.1385-0.32209 0.4437-0.18359 0.68359s0.4437 0.32209 0.68359 0.18359l1.3125-0.75781a10 10 0 0 0 0.99023 1.2754l-1.0781 1.0781c-0.19587 0.19587-0.19587 0.51116 0 0.70703 0.19587 0.19587 0.51116 0.19587 0.70703 0l1.0781-1.0801a10 10 0 0 0 1.2734 0.99023l-0.75781 1.3125c-0.1385 0.23989-0.056295 0.54509 0.18359 0.68359s0.54509 0.056295 0.68359-0.18359l0.76758-1.3281a10 10 0 0 0 1.4844 0.62305l-0.39453 1.4746c-0.071693 0.26756 0.085954 0.54159 0.35352 0.61328 0.26756 0.071693 0.53964-0.085954 0.61133-0.35352l0.39844-1.4863a10 10 0 0 0 1.5957 0.21289v1.5352c0 0.277 0.223 0.5 0.5 0.5s0.5-0.223 0.5-0.5v-1.5352a10 10 0 0 0 1.5957-0.21289l0.39844 1.4863c0.071693 0.26756 0.34377 0.42521 0.61133 0.35352 0.26756-0.071693 0.42521-0.34572 0.35352-0.61328l-0.39453-1.4746a10 10 0 0 0 1.4844-0.62305l0.76758 1.3281c0.1385 0.23989 0.4437 0.32209 0.68359 0.18359s0.32209-0.4437 0.18359-0.68359l-0.75781-1.3125a10 10 0 0 0 1.2734-0.99023l1.0781 1.0801c0.19587 0.19587 0.51116 0.19587 0.70703 0 0.19587-0.19587 0.19587-0.51116 0-0.70703l-1.0781-1.0801a10 10 0 0 0 0.99023-1.2734l1.3125 0.75781c0.23989 0.1385 0.54509 0.056295 0.68359-0.18359s0.056295-0.54509-0.18359-0.68359l-1.3281-0.76758a10 10 0 0 0 0.62109-1.4863l1.4766 0.39648c0.26756 0.071693 0.54159-0.085954 0.61328-0.35352 0.071693-0.26756-0.087907-0.53964-0.35547-0.61133l-1.4844-0.39844a10 10 0 0 0 0.21289-1.5957h1.5352c0.277 0 0.5-0.223 0.5-0.5s-0.223-0.5-0.5-0.5h-1.5117a10 10 0 0 0-0.21484-1.6016l1.4648-0.39258c0.26756-0.071693 0.42521-0.34377 0.35352-0.61133-0.071693-0.26756-0.34572-0.42521-0.61328-0.35352l-1.4648 0.39258a10 10 0 0 0-0.61719-1.4922l1.3125-0.75781c0.23989-0.1385 0.32209-0.4437 0.18359-0.68359s-0.4437-0.32209-0.68359-0.18359l-1.3125 0.75781a10 10 0 0 0-0.98242-1.2813l1.0703-1.0703c0.19587-0.19587 0.19587-0.51116 0-0.70703s-0.51116-0.19587-0.70703 0l-1.0684 1.0684a10 10 0 0 0-1.2832-0.98047l0.75781-1.3125c0.1385-0.23989 0.056295-0.54509-0.18359-0.68359s-0.54509-0.056295-0.68359 0.18359l-0.75781 1.3125a10 10 0 0 0-1.4922-0.61914l0.39258-1.4629c0.071693-0.26756-0.085954-0.54159-0.35352-0.61328-0.26756-0.071693-0.53964 0.085954-0.61133 0.35352l-0.39258 1.4629a10 10 0 0 0-1.6016-0.21289v-1.5117c0-0.277-0.223-0.5-0.5-0.5zm-0.009766 3c0.003309 6.39e-5 0.006442 0 0.009766 0a9 9 0 0 1 2.3281 0.30664 9 9 0 0 1 2.1719 0.89844 9 9 0 0 1 1.8633 1.4316 9 9 0 0 1 2.1855 3.5547l-5.8223 1.5605a3 3 0 0 0-2.7266-1.752 3 3 0 0 0-0.050781 0 3 3 0 0 0-1.6836 0.55859l-4.248-4.248a9 9 0 0 1 5.9727-2.3105zm-6.6797 3.0176 4.248 4.248a3 3 0 0 0-0.55859 1.7344 3 3 0 0 0 1.75 2.7266l-1.5586 5.8203a9 9 0 0 1-3.5488-2.1777 9 9 0 0 1-0.0058593-0.00586c-3.554e-4 -3.55e-4 -0.001597 3.54e-4 -0.0019532 0a9 9 0 0 1-0.0058594-0.005859 9 9 0 0 1-2.6289-6.3574 9 9 0 0 1 2.3105-5.9824zm6.6406 3.9824a2 2 0 0 1 0.048828 0 2 2 0 0 1 2 2 2 2 0 0 1-2 2 2 2 0 0 1-2-2 2 2 0 0 1 1.9512-2zm8.8574 0.15625a9 9 0 0 1 0.19141 1.8438 9 9 0 0 1-9 9 9 9 0 0 1-1.8379-0.21484l1.5566-5.8047a3 3 0 0 0 0.28125 0.019531 3 3 0 0 0 3-3 3 3 0 0 0-0.013672-0.2832l5.8223-1.5605z" fill="currentColor"/>
</svg>
