<svg width="32" height="32" version="1.1" viewBox="0 0 32 32" xmlns="http://www.w3.org/2000/svg">
 <path d="m6 4a6.0009 6.0009 0 0 0-6 6 6.0009 6.0009 0 0 0 6 6.002 6.0009 6.0009 0 0 0 0.39453-0.013672c0.033883 0.007198 0.069378 0.011719 0.10547 0.011719h25c0.277 0 0.5-0.223 0.5-0.5s-0.223-0.5-0.5-0.5h-22.18a6.0009 6.0009 0 0 0 2.6816-5 6.0009 6.0009 0 0 0-6.002-6zm0 1.002a4.9991 4.9991 0 0 1 5 4.998 4.9991 4.9991 0 0 1-5 5 4.9991 4.9991 0 0 1-4.998-5 4.9991 4.9991 0 0 1 4.998-4.998z" fill="#363636" stroke-linecap="round" stroke-linejoin="round"/>
 <path d="m22.988 0.66602c-0.17724-0.0047876-0.35009 0.085076-0.44531 0.25l-7.5547 13.084h1.1543l7.2656-12.584c0.1385-0.23989 0.058249-0.54509-0.18164-0.68359-0.074965-0.043282-0.15772-0.06423-0.23828-0.066406zm-8.5762 14.334-4.3691 7.5664c-0.01805 0.03125-0.032259 0.064717-0.042969 0.097656a6.0009 6.0009 0 0 0-0.20898 0.33398 6.0009 6.0009 0 0 0 2.1973 8.1973 6.0009 6.0009 0 0 0 8.1973-2.1953 6.0009 6.0009 0 0 0-2.1953-8.1973 6.0009 6.0009 0 0 0-5.6719-0.17773l3.248-5.625h-1.1543zm0.57617 6a4.9991 4.9991 0 0 1 2.5 0.66992 4.9991 4.9991 0 0 1 1.8281 6.8281 4.9991 4.9991 0 0 1-6.8262 1.8301 4.9991 4.9991 0 0 1-1.832-6.8281 4.9991 4.9991 0 0 1 4.3301-2.5z" fill="#363636" stroke-linecap="round" stroke-linejoin="round"/>
</svg>
