<svg version="1.1" viewBox="0 0 32 32" xmlns="http://www.w3.org/2000/svg">
 <defs>
  <style id="current-color-scheme" type="text/css">.ColorScheme-Text {
        color:#363636;
      }</style>
 </defs>
 <path class="ColorScheme-Text" d="m18.5 16c-2.493 0-4.5 2.01-4.5 4.5 0 2.493 2.01 4.5 4.5 4.5 1.0636 0 2.0263-0.3812 2.7949-0.99414l3.998 3.998 0.70703-0.70703-3.998-3.998c0.61565-0.76978 0.99805-1.7335 0.99805-2.7988 0-2.493-2.01-4.5-4.5-4.5zm0 1c1.939 0 3.5 1.561 3.5 3.5s-1.561 3.5-3.5 3.5-3.5-1.561-3.5-3.5 1.561-3.5 3.5-3.5z" fill="currentColor"/>
 <path class="ColorScheme-Text" d="m9 4c-1.662 0-3 1.338-3 3v18c0 1.662 1.338 3 3 3h6v-1h-6c-1.108 0-2-0.892-2-2v-18c0-1.108 0.892-2 2-2h9v4c0 1.662 1.338 3 3 3h4v5h1v-6l-7-7h-1zm10 1.4141 5.5859 5.5859h-3.5859c-1.108 0-2-0.892-2-2z" fill="currentColor"/>
</svg>
