<svg version="1.1" viewBox="0 0 32 32" xmlns="http://www.w3.org/2000/svg">
 <defs>
  <style id="current-color-scheme" type="text/css">.ColorScheme-Text {
                color:#363636;
            }</style>
 </defs>
 <path class="ColorScheme-Text" d="m9 15v-2h2v2zm6 0v-2h2v2zm6 0v-2h2v2zm-15-3v-2h2v2zm6 0v-2h2v2zm6 0v-2h2v2zm6 0v-2h2v2zm-15-3v-2h2v2zm6 0v-2h2v2zm6 0v-2h2v2zm-15-3v-2h2v2zm6 0v-2h2v2zm6 0v-2h2v2zm6 0v-2h2v2z" fill="currentColor"/>
 <path class="ColorScheme-Text" d="m6 16v9c0 1.662 1.338 3 3 3h14c1.662 0 3-1.338 3-3v-9h-1v9c0 1.108-0.892 2-2 2h-14c-1.108 0-2-0.892-2-2v-9h-1z" fill="currentColor"/>
</svg>
