<svg version="1.1" viewBox="0 0 32 32" xmlns="http://www.w3.org/2000/svg">
 <defs>
  <style id="current-color-scheme" type="text/css">.ColorScheme-Text {
                color:#363636;
            }
            .ColorScheme-NegativeText {
                color:#da4453;
            }</style>
 </defs>
 <path class="ColorScheme-NegativeText" d="M 22,20.707 25.293,24 22,27.293 C 22.013,27.318 22.707,28 22.707,28 L 26,24.707 29.293,28 30,27.293 26.707,24 30,20.707 29.293,20 26,23.293 22.707,20 Z" fill="currentColor"/>
 <path class="ColorScheme-NegativeText" d="m15 6 1 1h6v4c0 1.662 1.338 3 3 3h4v4h1v-5l-7-7h-1zm8 1.4141 5.5859 5.5859h-3.5859c-1.108 0-2-0.892-2-2zm-10.826 18.586c0.41051 1.1666 1.5157 2 2.8262 2h5v-1h-5c-0.74278 0-1.3874-0.40192-1.7324-1z" fill="currentColor"/>
 <path class="ColorScheme-Text" d="m5 4c-1.662 0-3 1.338-3 3v16c0 1.662 1.338 3 3 3h12c1.662 0 3-1.338 3-3v-12l-7-7h-1zm0 1h7v4c0 1.662 1.338 3 3 3h4v11c0 1.108-0.892 2-2 2h-12c-1.108 0-2-0.892-2-2v-16c0-1.108 0.892-2 2-2zm8 0.41406 5.5859 5.5859h-3.5859c-1.108 0-2-0.892-2-2z" fill="currentColor"/>
</svg>
