<svg version="1.1" viewBox="0 0 32 32" xmlns="http://www.w3.org/2000/svg">
 <defs>
  <style id="current-color-scheme" type="text/css">.ColorScheme-Text {
        color:#363636;
      }</style>
 </defs>
 <path class="ColorScheme-Text" d="m6 4v2h2v-2zm6 0v2h2v-2zm6 0v2h2v-2zm6 0v2h2v-2zm-15 3v2h2v-2zm6 0v2h2v-2zm6 0v2h2v-2zm-15 3v2h2v-2zm6 0v2h2v-2zm6 0v2h2v-2zm6 0v2h2v-2zm-15 3v2h2v-2zm6 0v2h2v-2zm6 0v2h2v-2zm-2.5 3c-2.493 0-4.5 2.01-4.5 4.5 0 2.493 2.01 4.5 4.5 4.5 1.0636 0 2.0263-0.3812 2.7949-0.99414l3.9961 3.9961 0.70703-0.70703-3.9961-3.9961c0.61565-0.76978 0.99805-1.7335 0.99805-2.7988 0-2.493-2.01-4.5-4.5-4.5zm0 1c1.939 0 3.5 1.561 3.5 3.5s-1.561 3.5-3.5 3.5-3.5-1.561-3.5-3.5 1.561-3.5 3.5-3.5z" fill="currentColor"/>
 <path class="ColorScheme-Text" d="m6 16v9c0 1.662 1.338 3 3 3h7v-1h-7c-1.108 0-2-0.892-2-2v-9z" fill="currentColor"/>
</svg>
