<svg version="1.1" viewBox="0 0 32 32" xmlns="http://www.w3.org/2000/svg">
 <defs>
  <style id="current-color-scheme" type="text/css">.ColorScheme-Text {
        color:#363636;
      }</style>
 </defs>
 <path class="ColorScheme-Text" d="m5 4c-1.0907 0-2 0.9093-2 2v16h1v-11h10c0.5 0 0.95869 0.01379 1.4473-0.23047 0.48851-0.24426 0.7597-0.5625 1.2598-1.0625l1.707-1.707h8.5859c0.554 0 1 0.446 1 1v6 2.2695 4.7305h1v-4-3-6c0-1.108-0.892-2-2-2h-8.5859l-1.707-1.707c-0.5-0.5-0.77118-0.81824-1.2598-1.0625-0.48851-0.24426-0.94721-0.23047-1.4473-0.23047h-9zm0 1h9c1 0 1 0 2 1l1.5 1.5-1.5 1.5c-1 1-1 1-2 1h-10v-4c0-0.554 0.446-1 1-1zm9.5 16c-1.7693 0-3.2218 1.2993-3.4629 3h-8.0371v1h8.0371c0.24105 1.7007 1.6936 3 3.4629 3h0.5v-1h-0.5c-1.385 0-2.5-1.115-2.5-2.5s1.115-2.5 2.5-2.5h0.5v-1h-0.5zm2.5 0v1h0.5c1.385 0 2.5 1.115 2.5 2.5s-1.115 2.5-2.5 2.5h-0.5v1h0.5c1.7693 0 3.2218-1.2993 3.4629-3h8.0371v-1h-8.0371c-0.24105-1.7007-1.6936-3-3.4629-3h-0.5zm-2.5 2c-0.831 0-1.5 0.669-1.5 1.5s0.669 1.5 1.5 1.5h3c0.831 0 1.5-0.669 1.5-1.5s-0.669-1.5-1.5-1.5h-3zm0 1h3c0.277 0 0.5 0.223 0.5 0.5s-0.223 0.5-0.5 0.5h-3c-0.277 0-0.5-0.223-0.5-0.5s0.223-0.5 0.5-0.5z" fill="currentColor"/>
</svg>
