<svg version="1.1" viewBox="0 0 32 32" xmlns="http://www.w3.org/2000/svg">
 <defs>
  <style id="current-color-scheme" type="text/css">.ColorScheme-Text {
        color:#363636;
      }</style>
 </defs>
 <path d="m7 4c-1.662 0-3 1.338-3 3v18c0 1.662 1.338 3 3 3h18c1.662 0 3-1.338 3-3v-13.586-1.4141l-6-6h-15zm0 1h3v6c0 1.108 0.892 2 2 2h7c1.108 0 2-0.892 2-2v-6h0.58594l5.4141 5.4141v14.586c0 1.108-0.892 2-2 2h-2v-6c0-1.108-0.892-2-2-2h-10c-1.108 0-2 0.892-2 2v6h-2c-1.108 0-2-0.892-2-2v-18c0-1.108 0.892-2 2-2zm4 0h6v6c0 0.554-0.446 1-1 1h-4c-0.554 0-1-0.446-1-1v-6zm0 15h10c0.554 0 1 0.446 1 1v6h-12v-6c0-0.554 0.446-1 1-1z" class="ColorScheme-Text" fill="currentColor"/>
</svg>
