<svg width="32" height="32" version="1.1" xmlns="http://www.w3.org/2000/svg">
 <style id="current-color-scheme" type="text/css">.ColorScheme-Text {
        color:#363636;
      }</style>
 <path class="ColorScheme-Text" d="m21 16c-3.3137 0-6 2.6863-6 6s2.6863 6 6 6 6-2.6863 6-6-2.6863-6-6-6zm0 1c2.7614 0 5 2.2386 5 5s-2.2386 5-5 5-5-2.2386-5-5 2.2386-5 5-5zm-1 1v5h4v-1h-3v-4z" fill="currentColor"/>
 <path class="ColorScheme-Text" d="m9 4c-1.662 0-3 1.338-3 3v18c0 1.662 1.338 3 3 3h6v-1h-6c-1.108 0-2-0.892-2-2v-18c0-1.108 0.892-2 2-2h9v4c0 1.662 1.338 3 3 3h4v4h1v-5l-7-7h-1zm10 1.4141 5.5859 5.5859h-3.5859c-1.108 0-2-0.892-2-2z" fill="currentColor"/>
</svg>
