<svg version="1.1" viewBox="0 0 32 32" xmlns="http://www.w3.org/2000/svg">
 <defs>
  <style id="current-color-scheme" type="text/css">.ColorScheme-Text {
        color:#363636;
      }</style>
 </defs>
 <path class="ColorScheme-Text" d="m5 5c-1.0907 0-2 0.9093-2 2v19c0 1.108 0.892 2 2 2h12.027a8.5 8.5 0 0 1-0.73047-1h-11.297c-0.554 0-1-0.446-1-1v-14h10c0.5 0 0.95872 0.013791 1.4473-0.23047 0.48851-0.24426 0.75974-0.5625 1.2598-1.0625l1.707-1.707h8.5859c0.554 0 1 0.446 1 1v5.291a8.5 8.5 0 0 1 1 0.73047v-6.0215c0-1.108-0.892-2-2-2h-8.5859l-1.707-1.707c-0.5-0.5-0.77122-0.81824-1.2598-1.0625-0.48851-0.24426-0.94724-0.23047-1.4473-0.23047h-9zm0 1h9c1 0 1 0 2 1l1.5 1.5-1.5 1.5c-1 1-1 1-2 1h-10v-4c0-0.554 0.446-1 1-1z" fill="currentColor"/>
 <path class="ColorScheme-Text" d="m23.5 15a7.5 7.5 0 0 0-7.5 7.5 7.5 7.5 0 0 0 7.5 7.5 7.5 7.5 0 0 0 7.5-7.5 7.5 7.5 0 0 0-7.5-7.5zm0 1a6.5 6.5 0 0 1 6.5 6.5 6.5 6.5 0 0 1-6.5 6.5 6.5 6.5 0 0 1-6.5-6.5 6.5 6.5 0 0 1 6.5-6.5z" fill="currentColor"/>
 <path class="ColorScheme-Text" d="m23 19c0.35192-0.35192 0.64471-0.35529 1 0l3 3h-7z" fill="currentColor"/>
 <rect class="ColorScheme-Text" x="20" y="24" width="7" height="1" fill="currentColor"/>
</svg>
