<svg version="1.1" viewBox="0 0 32 32" xmlns="http://www.w3.org/2000/svg">
 <defs>
  <style id="current-color-scheme" type="text/css">.ColorScheme-Text {
        color:#363636;
      }</style>
 </defs>
 <path class="ColorScheme-Text" d="m5 4c-1.0907 0-2 0.9093-2 2v9 1 9c0 1.108 0.892 2 2 2h9.9727 0.027344 2 0.027344 9.9727c1.108 0 2-0.892 2-2v-10-2.3789-0.62109-1-2c0-1.108-0.892-2-2-2h-8.5859l-1.707-1.707c-0.5-0.5-0.77115-0.81824-1.2598-1.0625-0.48851-0.24426-0.94718-0.23047-1.4473-0.23047h-9zm0 1h9c1 0 1 3e-6 2 1l2 2h9c0.554 0 1 0.446 1 1v2h-10.207l-4 4h-9.793v-4-1-4c0-0.554 0.446-1 1-1zm13.207 7h9.793v0.62109 2.3789 10c0 0.554-0.446 1-1 1h-10-0.70312-0.59375-0.70312-10c-0.554 0-1-0.446-1-1v-9h10.207l4-4z" fill="currentColor"/>
</svg>
