<svg version="1.1" viewBox="0 0 32 32" xmlns="http://www.w3.org/2000/svg">
 <defs>
  <style id="current-color-scheme" type="text/css">.ColorScheme-Text {
        color:#363636;
      }</style>
 </defs>
 <path class="ColorScheme-Text" d="m23 15c-3.3137 0-6 2.6863-6 6 0.0021 1.0707 0.29076 2.1214 0.83594 3.043l0.73242-0.73242c-0.37262-0.71322-0.5676-1.5058-0.56836-2.3105 0-2.7614 2.2386-5 5-5 0.8042 0.0017 1.5961 0.19732 2.3086 0.57031l0.73047-0.73437c-0.92042-0.5445-1.9696-0.83311-3.0391-0.83594zm5.1602 2.957-0.72852 0.73242c0.37262 0.71322 0.5676 1.5058 0.56836 2.3105 0 2.7614-2.2386 5-5 5-0.8042-0.0017-1.5961-0.19732-2.3086-0.57031l-0.73438 0.73047c0.92118 0.54654 1.9719 0.83653 3.043 0.83984 3.3137 0 6-2.6863 6-6-0.0021-1.0707-0.29076-2.1214-0.83594-3.043z" fill="currentColor"/>
 <path class="ColorScheme-Text" d="m5 4c-1.0907 0-2 0.9093-2 2v19c0 1.108 0.892 2 2 2h9.9727 2.0273v-1h-0.70312-0.59375-10.703c-0.554 0-1-0.446-1-1v-14h10c0.5 0 0.95869 0.01379 1.4473-0.23047 0.48851-0.24426 0.7597-0.5625 1.2598-1.0625l1.707-1.707h8.5859c0.554 0 1 0.446 1 1v6h1v-6c0-1.108-0.892-2-2-2h-8.5859l-1.707-1.707c-0.5-0.5-0.77118-0.81824-1.2598-1.0625-0.48851-0.24426-0.94721-0.23047-1.4473-0.23047h-9zm0 1h9c1 0 1 0 2 1l1.5 1.5-1.5 1.5c-1 1-1 1-2 1h-10v-4c0-0.554 0.446-1 1-1z" fill="currentColor"/>
</svg>
