<svg version="1.1" viewBox="0 0 32 32" xmlns="http://www.w3.org/2000/svg">
 <style id="current-color-scheme" type="text/css">.ColorScheme-Text {
            color:#363636;
        }</style>
 <path d="m26.783 11.499c-0.2938-0.2938-0.82731-0.23335-1.196 0.13534l-9.5874 9.5874-9.5874-9.5874c-0.36869-0.36869-0.9022-0.42915-1.196-0.13534s-0.23335 0.82731 0.13534 1.196l9.9824 9.9824c0.02673 0.02673 0.05456 0.05111 0.08286 0.07458 0.01605 0.02089 0.03349 0.04177 0.05248 0.06077 0.13792 0.13792 0.32864 0.19848 0.53033 0.18506 0.20169 0.01342 0.3924-0.04714 0.53033-0.18506 0.01899-0.01899 0.03643-0.03988 0.05248-0.06077 0.02831-0.02347 0.05614-0.04785 0.08286-0.07458l9.9824-9.9824c0.36869-0.36869 0.42915-0.9022 0.13534-1.196z" class="ColorScheme-Text" fill="currentColor"/>
</svg>
