<svg width="32" height="32" version="1.1" xmlns="http://www.w3.org/2000/svg">
 <defs>
  <style id="current-color-scheme" type="text/css">.ColorScheme-Text { color:#363636; }</style>
 </defs>
 <path class="ColorScheme-Text" d="m9 3c-3.324 0-6 2.676-6 6v14c0 3.324 2.676 6 6 6h14c3.324 0 6-2.676 6-6v-14c0-3.324-2.676-6-6-6zm0 1h14c2.77 0 5 2.23 5 5v14c0 2.77-2.23 5-5 5h-14c-2.77 0-5-2.23-5-5v-14c0-2.77 2.23-5 5-5zm7 5c-0.554 0-1 0.446-1 1s0.446 1 1 1 1-0.446 1-1-0.446-1-1-1zm0 4c-0.554 0-1 0.446-1 1v8c0 0.554 0.446 1 1 1s1-0.446 1-1v-8c0-0.554-0.446-1-1-1z" fill="currentColor"/>
</svg>
