<svg version="1.1" viewBox="0 0 32 32" xmlns="http://www.w3.org/2000/svg">
 <defs>
  <style id="current-color-scheme" type="text/css">.ColorScheme-Text { color:#363636; }</style>
 </defs>
 <path class="ColorScheme-Text" d="m16 3a2 2 0 0 0-2 2h-3-3.082c-1.6165 0-2.918 1.3015-2.918 2.918v17.164c0 1.6165 1.3015 2.918 2.918 2.918h16.164c1.6165 0 2.918-1.3015 2.918-2.918v-17.164c0-1.6165-1.3015-2.918-2.918-2.918h-3.082-3a2 2 0 0 0-2-2zm0 1a1 1 0 0 1 1 1 1 1 0 0 1-1 1 1 1 0 0 1-1-1 1 1 0 0 1 1-1zm-8 2h3c0 1.108 0.892 2 2 2h6c1.108 0 2-0.89201 2-2h3c1.108 0 2 0.89201 2 2v17c0 1.108-0.892 2-2 2h-16c-1.108 0-2-0.892-2-2v-17c0-1.108 0.89201-2 2-2zm1.5 7c-0.277 0-0.5 0.223-0.5 0.5s0.223 0.5 0.5 0.5h12c0.277 0 0.5-0.223 0.5-0.5s-0.223-0.5-0.5-0.5h-12zm0 4c-0.277 0-0.5 0.223-0.5 0.5s0.223 0.5 0.5 0.5h8c0.277 0 0.5-0.223 0.5-0.5s-0.223-0.5-0.5-0.5h-8zm0 4c-0.277 0-0.5 0.223-0.5 0.5s0.223 0.5 0.5 0.5h10c0.277 0 0.5-0.223 0.5-0.5s-0.223-0.5-0.5-0.5h-10z" fill="currentColor"/>
</svg>
