<svg version="1.1" viewBox="0 0 32 32" xmlns="http://www.w3.org/2000/svg">
 <defs>
  <style id="current-color-scheme" type="text/css">.ColorScheme-Text {
        color:#363636;
      }</style>
 </defs>
 <path class="ColorScheme-Text" d="m16.012 2.6309c0.66297 1e-7 1.327 0.18184 1.8301 0.54688l2.5117 1.8223h3.6582c1.662 0 3 1.338 3 3v1.832l2.9883 2.168h0.01172v4h-1v-3h-2.9102l-3.8672 3-0.80273 0.62305-3.6035 2.7949c-0.99892 0.7749-2.6339 0.7749-3.6328 0l-3.6035-2.7949-7.5801 5.8809v0.49609c0 1.662 1.338 3 3 3h17v1h-17c-2.1257 0-3.8489-1.6427-3.9863-3.7324l-0.013671 0.01172v-11.279h0.01367l2.9863-2.168v-1.832c0-1.662 1.338-3 3-3h3.6602l2.5117-1.8223c0.50312-0.36503 1.1652-0.54688 1.8281-0.54688zm0 0.8457c-0.35982 0-0.71965 0.10128-1 0.30469l-1.6797 1.2188h5.3594l-1.6797-1.2188c-0.28035-0.2034-0.64018-0.30469-1-0.30469zm8 2.5234h-16c-1.108 0-2 0.892-2 2v4h0.19922l1.3145 1h0.0059l7.4688 5.7949c0.56803 0.44064 1.4574 0.4425 2.0254 2e-3l7.4726-5.7969 1.3145-1h0.19922v-4c0-1.108-0.892-2-2-2zm3 5.0371v0.96289h1.3281zm-22 0-1.3281 0.96289h1.3281zm0.91016 1.9629h-2.9102v8.2578l6.7773-5.2578z" fill="currentColor"/>
 <path class="ColorScheme-Text" d="m25.496 16-0.72852 0.72656 4.2402 4.2285-8.9961 0.04492v1l9.0605-0.01758-4.3047 4.291 0.72852 0.72656 5.5156-5.5z" fill="currentColor"/>
</svg>
