<svg version="1.1" viewBox="0 0 32 32" xmlns="http://www.w3.org/2000/svg">
 <defs>
  <style id="current-color-scheme" type="text/css">.ColorScheme-Text {
        color:#363636;
      }</style>
 </defs>
 <path class="ColorScheme-Text" d="m25 15c-1.657 0-3 1.343-3 3v3c-1.108 0-2 0.892-2 2v2c0 1.108 0.892 2 2 2h6c1.108 0 2-0.892 2-2v-2c0-1.108-0.892-2-2-2v-3c0-1.657-1.343-3-3-3zm0 1c1.105 0 2 0.895 2 2v3h-4v-3c0-1.105 0.895-2 2-2zm-3 6h6c0.554 0 1 0.446 1 1v2c0 0.554-0.446 1-1 1h-6c-0.554 0-1-0.446-1-1v-2c0-0.554 0.446-1 1-1z" fill="currentColor"/>
 <path class="ColorScheme-Text" d="m6 5c-2.1263 0-3.8499 1.6437-3.9863 3.7344l-0.013672-0.011719v14.556l0.013672-0.011719c0.13738 2.0897 1.8607 3.7324 3.9863 3.7324h13v-1h-13c-1.662 0-3-1.338-3-3v-0.49609l7.5801-5.8809 3.6035 2.7949c0.99892 0.7749 2.6339 0.7749 3.6328 0l1.1836-0.91797v-1.248l-1.9883 1.543c-0.56803 0.44064-1.4574 0.44255-2.0254 2e-3l-11.986-9.2988v-0.49805c0-1.662 1.338-3 3-3h20c1.662 0 3 1.338 3 3v0.49414l-5.8086 4.5059h1.6094l4.1992-3.2578v4.2581h1v-6.2815l-0.01367 0.011719c-0.13833-2.0888-1.8613-3.7305-3.9863-3.7305h-20zm-3 5.7422 6.7773 5.2578-6.7773 5.2578v-10.516z" fill="currentColor"/>
</svg>
