<svg version="1.1" viewBox="0 0 32 32" xmlns="http://www.w3.org/2000/svg">
 <defs>
  <style id="current-color-scheme" type="text/css">.ColorScheme-Text {
        color:#363636;
      }</style>
 </defs>
 <path class="ColorScheme-Text" d="m16 2.6309c-0.66297 1e-7 -1.327 0.18184-1.8301 0.54688l-2.5117 1.8223h-3.6582c-1.662 0-3 1.338-3 3v1.832l-2.9883 2.168h-0.011719v1 0.21289 8.8203 0.9668 0.2793l0.013672-0.011719c0.13738 2.0897 1.8607 3.7324 3.9863 3.7324h20c2.1257 0 3.8489-1.6427 3.9863-3.7324l0.013672 0.011719v-0.2793-0.9668-8.8203-0.21289-1h-0.013672l-2.9863-2.168v-1.832c0-1.662-1.338-3-3-3h-3.6602l-2.5117-1.8223c-0.50312-0.36503-1.1652-0.54688-1.8281-0.54688zm0 0.8457c0.35982 0 0.71965 0.10128 1 0.30469l1.6797 1.2188h-5.3594l1.6797-1.2188c0.28035-0.2034 0.64018-0.30469 1-0.30469zm-8 2.5234h16c1.108 0 2 0.892 2 2v4h-0.19922l-1.3145 1h-0.005859l-7.4688 5.7949c-0.56803 0.44064-1.4574 0.44255-2.0254 0.001953l-7.4727-5.7969-1.3145-1h-0.19922v-4c0-1.108 0.892-2 2-2zm-3 5.0371v0.96289h-1.3281l1.3281-0.96289zm22 0 1.3281 0.96289h-1.3281v-0.96289zm-24 1.9629h2 0.91016l3.8672 3-6.7773 5.2578v-8.2578zm23.09 0h0.91016 2v8.2578l-6.7773-5.2578 3.8672-3zm-15.51 3.623 3.6035 2.7949c0.99892 0.7749 2.6339 0.7749 3.6328 0l3.6035-2.7949 7.5801 5.8809v0.49609c0 1.662-1.338 3-3 3h-20c-1.662 0-3-1.338-3-3v-0.49609l7.5801-5.8809z" fill="currentColor"/>
</svg>
