<svg version="1.1" viewBox="0 0 32 32" xmlns="http://www.w3.org/2000/svg">
 <defs>
  <style id="current-color-scheme" type="text/css">.ColorScheme-Text {
        color:#363636;
      }
      .ColorScheme-NegativeText {
        color:#da4453;
      }</style>
 </defs>
 <path class="ColorScheme-Text" d="m18.398 7.3047c-0.2019 0-0.3601 0.052077-0.4707 0.15625-0.1107 0.10416-0.16406 0.25716-0.16406 0.45898v2.2656h-7.4629c-0.95703 0-1.7878 0.17253-2.4941 0.51758-0.70639 0.34506-1.2559 0.83659-1.6465 1.4746-0.39063 0.63802-0.58594 1.3997-0.58594 2.2852v1.0449c0 0.23437 0.078105 0.43034 0.23438 0.58984 0.15625 0.15951 0.35481 0.24024 0.5957 0.24024 0.23437 0 0.43229-0.08072 0.5918-0.24024 0.15951-0.1595 0.23828-0.35547 0.23828-0.58984v-0.92773c0-0.83984 0.26367-1.513 0.79102-2.0176 0.52735-0.50456 1.2337-0.75586 2.1191-0.75586h7.6191v2.2949c0 0.19532 0.05337 0.34572 0.16406 0.45313 0.1106 0.10742 0.26881 0.16211 0.4707 0.16211 0.0911 0 0.17712-0.01627 0.26172-0.04883 0.0846-0.03254 0.16473-0.07812 0.23633-0.13672l3.6895-3.0566c0.1562-0.13021 0.23949-0.28319 0.24609-0.45898 6e-3 -0.17578-0.07689-0.33203-0.24609-0.46875l-3.6895-3.0664c-0.0716-0.0586-0.15173-0.10352-0.23633-0.13281-0.0846-0.0293-0.17062-0.042969-0.26172-0.042969zm-4.7969 9.9785c-0.0911 0-0.17968 0.01562-0.26758 0.04492s-0.16861 0.07421-0.24023 0.13281l-3.6914 3.0566c-0.15625 0.1367-0.23503 0.29295-0.23828 0.46875-3e-3 0.1758 0.075531 0.32878 0.23828 0.45898l3.6914 3.0664c0.0716 0.0586 0.15234 0.10422 0.24023 0.13672 0.0879 0.0325 0.17642 0.04687 0.26758 0.04687 0.20182 0 0.35742-0.05276 0.46484-0.16016 0.10742-0.1074 0.16016-0.25782 0.16016-0.45312v-2.2871h3.7734v-1.6289h-3.7734v-2.2656c0-0.2019-0.05272-0.35488-0.16016-0.45898-0.10742-0.1042-0.26302-0.1582-0.46484-0.1582z" fill="currentColor"/>
 <path class="ColorScheme-NegativeText" d="m27.591 16.348c-0.2938-0.2938-0.76686-0.2938-1.0607 0l-3.182 3.182-3.182-3.182c-0.2938-0.2938-0.76686-0.2938-1.0607 0-0.2938 0.2938-0.2938 0.76686 0 1.0607l3.182 3.182-3.182 3.182c-0.2938 0.2938-0.2938 0.76686 0 1.0607 0.2938 0.2938 0.76686 0.2938 1.0607 0l3.182-3.182 3.182 3.182c0.2938 0.2938 0.76686 0.2938 1.0607 0 0.2938-0.2938 0.2938-0.76686 0-1.0607l-3.182-3.182 3.182-3.182c0.2938-0.2938 0.2938-0.76686 0-1.0607z" fill="currentColor"/>
</svg>
