<svg version="1.1" viewBox="0 0 32 32" xmlns="http://www.w3.org/2000/svg">
 <defs>
  <style id="current-color-scheme" type="text/css">.ColorScheme-Text {
        color:#363636;
      }</style>
 </defs>
 <path class="ColorScheme-Text" d="m16 5a11 11 0 0 0-11 11 11 11 0 0 0 11 11 11 11 0 0 0 11-11 11 11 0 0 0-11-11zm0 1.5a9.5 9.5 0 0 1 9.5 9.5 9.5 9.5 0 0 1-9.5 9.5 9.5 9.5 0 0 1-9.5-9.5 9.5 9.5 0 0 1 9.5-9.5zm-2.3359 4.9297c-0.35462 0.01544-0.66406 0.2449-0.66406 0.625v7.875c0 0.55274 0.62011 0.82372 1.1504 0.50781l6.498-3.8262c0.4738-0.27085 0.4625-0.95779 0-1.2285l-6.498-3.8359c-0.15516-0.08814-0.32514-0.1242-0.48633-0.11719z" fill="currentColor"/>
</svg>
