<svg version="1.1" viewBox="0 0 32 32" xmlns="http://www.w3.org/2000/svg">
 <style id="current-color-scheme" type="text/css">.ColorScheme-Text {
            color:#363636;
        }</style>
 <path class="ColorScheme-Text" d="m6.6794 16.478c0.23437 0 0.43131-0.0797 0.59082-0.23924 0.15951-0.15951 0.23926-0.35645 0.23926-0.59083v-0.92774c0-0.83984 0.26367-1.512 0.79101-2.0166 0.52735-0.50455 1.2337-0.75682 2.1191-0.75682h5.5274v2.2949c0 0.19532 0.0553 0.34669 0.166 0.45411 0.1106 0.10742 0.2669 0.16113 0.4687 0.16113 0.0846 0 0.1709-0.01628 0.2588-0.04883 0.0878-0.03255 0.1676-0.07812 0.2393-0.13672l3.6914-3.0566c0.1627-0.13021 0.2441-0.28321 0.2441-0.45899s-0.0814-0.33203-0.2441-0.46875l-3.6914-3.0664c-0.0717-0.05859-0.1515-0.10254-0.2393-0.13184-0.0879-0.02929-0.1742-0.04394-0.2588-0.04394-0.2018 0-0.3581 0.05208-0.4687 0.15625-0.1107 0.10416-0.166 0.25716-0.166 0.45898v2.2656h-5.3712c-0.95703 0-1.7887 0.17252-2.4951 0.51757-0.70638 0.34506-1.2549 0.83659-1.6455 1.4746s-0.58594 1.3998-0.58594 2.2852v1.0449c0 0.23438 0.0781 0.43132 0.23438 0.59083 0.15625 0.15954 0.35481 0.23924 0.5957 0.23924zm19.189-0.69335c-0.2409 0-0.4395 0.07813-0.5957 0.23437-0.1562 0.15626-0.2343 0.35478-0.2343 0.59568v0.9278c0 0.8398-0.2637 1.5104-0.7911 2.0117s-1.237 0.7519-2.1289 0.7519h-7.6172v-2.2656c0-0.2018-0.0537-0.3548-0.16113-0.459-0.10742-0.1041-0.26204-0.1562-0.46387-0.1562-0.0912 0-0.18066 0.0146-0.26855 0.0439-0.0879 0.0293-0.16765 0.0733-0.23926 0.1319l-3.6914 3.0566c-0.15625 0.1367-0.236 0.293-0.23925 0.4687-3e-3 0.1758 0.0765 0.3288 0.23925 0.459l3.6914 3.0664c0.0716 0.0586 0.15137 0.1042 0.23926 0.1368 0.0879 0.0325 0.1774 0.0488 0.26855 0.0488 0.20183 0 0.35645-0.0537 0.46387-0.1612 0.10742-0.1074 0.16113-0.2588 0.16113-0.4541v-2.2851h7.461c0.957 0 1.7903-0.1725 2.5-0.5176 0.7096-0.3451 1.2597-0.8382 1.6504-1.4795 0.3906-0.6413 0.5859-1.4014 0.5859-2.2803v-1.0449c0-0.2409-0.0798-0.43942-0.2392-0.59568-0.1596-0.15624-0.3565-0.23437-0.5909-0.23437zm0.01-2.1094c0.2669 0 0.4769-0.07812 0.6299-0.23436 0.153-0.15626 0.2295-0.3711 0.2295-0.64454v-4.5508c0-0.33202-0.0977-0.59569-0.293-0.79101-0.1954-0.19531-0.4493-0.29296-0.7617-0.29296-0.254 0-0.4704 0.04069-0.6494 0.12207-0.1791 0.08138-0.3695 0.2002-0.5713 0.35644l-1.3086 0.99609c-0.1042 0.07813-0.1742 0.15788-0.21 0.23927-0.0358 0.08138-0.0537 0.17089-0.0537 0.26854 0 0.14974 0.0521 0.27344 0.1563 0.3711 0.1041 0.09766 0.2408 0.14648 0.4101 0.14648 0.1432 0 0.2767-0.04882 0.4004-0.14648l1.0449-0.83008h0.0977v4.1113c0 0.27344 0.0781 0.48828 0.2344 0.64454 0.1562 0.15624 0.371 0.23436 0.6445 0.23436z" fill="currentColor"/>
</svg>
