<svg version="1.1" viewBox="0 0 32 32" xmlns="http://www.w3.org/2000/svg">
 <defs>
  <style id="current-color-scheme" type="text/css">.ColorScheme-Text {
        color:#363636;
      }</style>
 </defs>
 <path class="ColorScheme-Text" d="m16 5a11 11 0 0 0-11 11 11 11 0 0 0 11 11 11 11 0 0 0 11-11 11 11 0 0 0-11-11zm0 1.5a9.5 9.5 0 0 1 9.5 9.5 9.5 9.5 0 0 1-9.5 9.5 9.5 9.5 0 0 1-9.5-9.5 9.5 9.5 0 0 1 9.5-9.5zm-2.8574 5.5c-0.70427 0-1.1426 0.41933-1.1426 1.1016v5.7969c0 0.68223 0.43831 1.1016 1.1426 1.1016h5.7148c0.70427 0 1.1426-0.41933 1.1426-1.1016v-5.7969c0-0.68223-0.43831-1.1016-1.1426-1.1016z" fill="currentColor"/>
</svg>
