<svg version="1.1" viewBox="0 0 32 32" xmlns="http://www.w3.org/2000/svg">
 <defs>
  <style id="current-color-scheme" type="text/css">.ColorScheme-Text {
        color:#363636;
      }</style>
 </defs>
 <path class="ColorScheme-Text" d="m16 5.0009a11 11 0 0 0-11 11 11 11 0 0 0 11 11 11 11 0 0 0 11-11 11 11 0 0 0-11-11zm0 1.5a9.5 9.5 0 0 1 9.5 9.5 9.5 9.5 0 0 1-9.5 9.5 9.5 9.5 0 0 1-9.5-9.5 9.5 9.5 0 0 1 9.5-9.5zm0 3.5098c-0.10149 0-0.20197 0.01691-0.30274 0.05078-0.20152 0.06774-0.36459 0.19159-0.48828 0.36719l-3.8418 5.5742c-0.13966 0.20084-0.19268 0.41942-0.16211 0.66016 0.0299 0.24142 0.13479 0.44188 0.31641 0.60352 0.18156 0.16162 0.39526 0.24414 0.63867 0.24414h7.6797c0.24341 0 0.4571-0.0824 0.63867-0.24414 0.18155-0.1616 0.28842-0.36209 0.31836-0.60352 0.0299-0.24141-0.0265-0.45865-0.16406-0.66016l-3.8398-5.5723c-0.12164-0.17757-0.28678-0.30133-0.48829-0.36914-0.10177-0.03388-0.20317-0.05078-0.30468-0.05078zm-4.25 9c-0.4155 0-0.75 0.3345-0.75 0.75s0.3345 0.75 0.75 0.75h8.5c0.4155 0 0.75-0.3345 0.75-0.75s-0.3345-0.75-0.75-0.75z" fill="currentColor"/>
</svg>
