<svg version="1.1" viewBox="0 0 32 32" xmlns="http://www.w3.org/2000/svg">
 <defs>
  <style id="current-color-scheme" type="text/css">.ColorScheme-Text {
        color:#363636;
      }</style>
 </defs>
 <path class="ColorScheme-Text" d="m4.7793 21.005c0 0.2409 0.083 0.4362 0.24902 0.5859s0.38249 0.2246 0.64942 0.2246h2.2266c0.80729 0 1.4828-0.1335 2.0264-0.4004s1.1116-0.7421 1.7041-1.4257l5.9179-6.9043c0.28-0.32552 0.5518-0.58594 0.8155-0.78125s0.5403-0.33691 0.83-0.42481c0.2897-0.08788 0.6136-0.13183 0.9717-0.13183h1.9922v2.207c0 0.19531 0.0537 0.34668 0.1611 0.4541 0.1075 0.10742 0.2621 0.16113 0.4639 0.16113 0.0911 0 0.1807-0.01628 0.2686-0.04883 0.0879-0.03256 0.1676-0.07813 0.2392-0.13673l3.6914-3.0566c0.1563-0.1302 0.2344-0.2832 0.2344-0.45898s-0.0781-0.33203-0.2344-0.46875l-3.6914-3.0664c-0.0716-0.0586-0.1513-0.10254-0.2392-0.13184-0.0879-0.0293-0.1775-0.04395-0.2686-0.04395-0.2018 0-0.3564 0.05208-0.4639 0.15625-0.1074 0.10416-0.1611 0.2539-0.1611 0.44922v2.3535h-2.041c-0.8138 0-1.4941 0.13347-2.041 0.4004-0.5469 0.26692-1.1133 0.74218-1.6992 1.4258l-5.9082 6.9043c-0.42318 0.4948-0.8252 0.8431-1.2061 1.0449-0.38085 0.2018-0.81868 0.3027-1.3135 0.3027h-2.2754c-0.26693 0-0.4834 0.0749-0.64942 0.2246-0.16601 0.1498-0.24902 0.3451-0.24902 0.586zm0-10.068c0 0.24089 0.083 0.4362 0.24902 0.58594 0.16602 0.14975 0.38249 0.22461 0.64942 0.22461h2.2754c0.5013 0 0.94075 0.10091 1.3184 0.30273 0.3776 0.20182 0.77799 0.55013 1.2012 1.0449l5.9082 6.9043c0.5859 0.6836 1.1523 1.1572 1.6992 1.4209s1.2272 0.3955 2.041 0.3955h2.041v2.4219c0 0.1953 0.0537 0.3451 0.1611 0.4492 0.1075 0.1042 0.2621 0.1563 0.4639 0.1563 0.0911 0 0.1807-0.0147 0.2686-0.044s0.1676-0.0732 0.2392-0.1318l3.6914-3.0566c0.1563-0.1303 0.2344-0.2833 0.2344-0.459 0-0.1758-0.0781-0.3321-0.2344-0.4688l-3.6914-3.0664c-0.0716-0.0586-0.1513-0.1042-0.2392-0.1367s-0.1775-0.0488-0.2686-0.0488c-0.2018 0-0.3564 0.0537-0.4639 0.1611-0.1074 0.1074-0.1611 0.2588-0.1611 0.4541v2.1484h-1.9922c-0.5339 0-0.9977-0.1009-1.3916-0.3027s-0.8024-0.5501-1.2256-1.0449l-5.9179-6.9043c-0.59245-0.68359-1.1605-1.1572-1.7041-1.4209-0.54362-0.26367-1.2191-0.3955-2.0264-0.3955h-2.2266c-0.26693 0-0.4834 0.07324-0.64942 0.21972-0.16601 0.14648-0.24902 0.34342-0.24902 0.59082z" fill="currentColor"/>
</svg>
