<svg version="1.1" viewBox="0 0 32 32" xmlns="http://www.w3.org/2000/svg">
 <defs>
  <style id="current-color-scheme" type="text/css">.ColorScheme-Text {
        color:#363636;
      }</style>
 </defs>
 <path class="ColorScheme-Text" d="m7 10.115h-1.3223c-0.26693 0-0.48437 0.07422-0.65039 0.2207-0.16601 0.14648-0.24805 0.35221-0.24805 0.59961 0 0.24089 0.082027 0.4362 0.24805 0.58594 0.16602 0.14975 0.38346 0.22461 0.65039 0.22461h16.484v2.209c0 0.19531 0.05276 0.3457 0.16016 0.45312 0.1075 0.10742 0.26304 0.16016 0.46484 0.16016 0.0911 0 0.18163-0.01628 0.26953-0.04883 0.0879-0.03256 0.16668-0.07812 0.23828-0.13672l3.6914-3.0566c0.1563-0.1302 0.23438-0.2832 0.23438-0.45898 0-0.17578-0.07808-0.33203-0.23438-0.46875l-3.6914-3.0664c-0.0716-0.0586-0.15038-0.10156-0.23828-0.13086-0.0879-0.0293-0.17843-0.044922-0.26953-0.044922-0.2018 0-0.35734 0.052076-0.46484 0.15625-0.1074 0.10416-0.16016 0.2539-0.16016 0.44922v2.3535zm0 11.699h15.162v2.4219c0 0.1953 0.05276 0.34512 0.16016 0.44922 0.1075 0.1042 0.26304 0.1582 0.46484 0.1582 0.0911 0 0.18163-0.01562 0.26953-0.04492s0.16668-0.07421 0.23828-0.13281l3.6914-3.0547c0.1563-0.1303 0.23438-0.28328 0.23438-0.45898 0-0.1758-0.07808-0.334-0.23438-0.4707l-3.6914-3.0664c-0.0716-0.0586-0.15038-0.10422-0.23828-0.13672s-0.17843-0.04687-0.26953-0.04687v-7e-6c-0.2018 0-0.35734 0.05276-0.46484 0.16016-0.1074 0.1074-0.16016 0.25782-0.16016 0.45312v2.1484h-16.484c-0.26693 0-0.48437 0.07491-0.65039 0.22461-0.16601 0.1498-0.24805 0.34699-0.24805 0.58789 0 0.2409 0.082027 0.43428 0.24805 0.58398 0.16602 0.1497 0.38346 0.22461 0.65039 0.22461h1.3223" fill="currentColor"/>
</svg>
