<svg version="1.1" viewBox="0 0 32 32" xmlns="http://www.w3.org/2000/svg">
 <defs>
  <style id="current-color-scheme" type="text/css">.ColorScheme-Text {
        color:#363636;
      }</style>
 </defs>
 <path class="ColorScheme-Text" d="m6.4053 16.337c0.23437 0 0.43131-0.07976 0.59082-0.23927 0.15951-0.1595 0.23926-0.35644 0.23926-0.59081v-0.92775c0-0.83984 0.26367-1.512 0.79102-2.0166s1.2337-0.75684 2.1191-0.75684h7.6172v2.2949c0 0.19532 0.0553 0.34669 0.16599 0.4541 0.1106 0.10742 0.26691 0.16113 0.4688 0.16113 0.0911 0 0.179-0.01627 0.2636-0.04883 0.0846-0.03254 0.1628-0.07811 0.2344-0.13671l3.6914-3.0566c0.1562-0.13021 0.2376-0.2832 0.2442-0.45899 6e-3 -0.17578-0.075-0.33203-0.2442-0.46875l-3.6914-3.0664c-0.0716-0.0586-0.1498-0.10254-0.2344-0.13184-0.0846-0.0293-0.1725-0.04395-0.2636-0.04395-0.2019 0-0.3582 0.05208-0.4688 0.15625-0.1107 0.10416-0.16599 0.25716-0.16599 0.45898v2.2656h-7.461c-0.95703 0-1.7887 0.17253-2.4951 0.51758-0.70639 0.34506-1.2549 0.83659-1.6455 1.4746-0.39063 0.63802-0.58594 1.3997-0.58594 2.2852v1.0449c0 0.23437 0.0781 0.43131 0.23437 0.59081 0.15625 0.15951 0.35482 0.23927 0.59571 0.23927zm19.189-0.69336c-0.2409 0-0.4395 0.07812-0.5957 0.23437s-0.2343 0.35481-0.2343 0.59571v0.9277c0 0.8399-0.2637 1.5104-0.7911 2.0117s-1.237 0.752-2.1289 0.752h-7.6172v-2.2656c0-0.2019-0.0537-0.3549-0.16114-0.459-0.10742-0.1042-0.26204-0.1563-0.46386-0.1563-0.0911 0-0.18066 0.0147-0.26856 0.044s-0.16764 0.0732-0.23926 0.1318l-3.6914 3.0567c-0.15625 0.1367-0.236 0.2929-0.23925 0.4687-3e-3 0.1758 0.0765 0.3288 0.23925 0.459l3.6914 3.0664c0.0716 0.0586 0.15137 0.1042 0.23926 0.1367 0.0879 0.0325 0.1774 0.0488 0.26856 0.0488 0.20182 0 0.35644-0.0537 0.46386-0.1611s0.16114-0.2588 0.16114-0.4541v-2.2852h7.461c0.957 0 1.7903-0.1725 2.5-0.5175 0.70961-0.3451 1.2597-0.8382 1.6504-1.4795 0.3906-0.6413 0.5859-1.4014 0.5859-2.2803v-1.0449c0-0.2409-0.0798-0.43946-0.2392-0.59571-0.1596-0.15625-0.3565-0.23437-0.5909-0.23437z" fill="currentColor"/>
</svg>
