<svg version="1.1" viewBox="0 0 32 32" xmlns="http://www.w3.org/2000/svg">
 <style id="current-color-scheme" type="text/css">.ColorScheme-Text {
            color:#363636;
        }</style>
 <path class="ColorScheme-Text" d="m14.488 8a1.5002 1.5002 0 0 0-0.75195 0.20898l-11 6.5a1.5002 1.5002 0 0 0 0 2.582l11 6.5a1.5002 1.5002 0 0 0 2.2637-1.291v-5.0527l10.736 6.3438a1.5002 1.5002 0 0 0 2.2637-1.291v-13a1.5002 1.5002 0 0 0-0.75586-1.3027 1.5002 1.5002 0 0 0-0.75586-0.19727 1.5002 1.5002 0 0 0-0.75195 0.20898l-10.736 6.3438v-5.0527a1.5002 1.5002 0 0 0-0.75586-1.3027 1.5002 1.5002 0 0 0-0.75586-0.19727zm0.0117 1.5v13l-11-6.5zm13 0v13l-11-6.5z" fill="currentColor"/>
</svg>
