<svg version="1.1" viewBox="0 0 32 32" xmlns="http://www.w3.org/2000/svg">
 <defs>
  <style id="current-color-scheme" type="text/css">.ColorScheme-Text {
        color:#363636;
      }</style>
 </defs>
 <path d="m16 5a11 11 0 0 0-11 11 11 11 0 0 0 11 11 11 11 0 0 0 11-11 11 11 0 0 0-11-11zm0 1.5a9.5 9.5 0 0 1 9.5 9.5 9.5 9.5 0 0 1-9.5 9.5 9.5 9.5 0 0 1-9.5-9.5 9.5 9.5 0 0 1 9.5-9.5zm-0.060547 5.5c-2.1855 0.03306-3.9397 1.8143-3.9395 4 0 2.2091 1.7909 4 4 4s4-1.7909 4-4-1.7909-4-4-4c-0.02019-1.52e-4 -0.040357-1.52e-4 -0.060547 0z" fill="#da4453"/>
</svg>
