<svg version="1.1" viewBox="0 0 32 32" xmlns="http://www.w3.org/2000/svg">
 <defs>
  <style id="current-color-scheme" type="text/css">.ColorScheme-Text {
        color:#363636;
      }</style>
 </defs>
 <path class="ColorScheme-Text" d="m7 6c-1.662 0-3 1.338-3 3v14c0 1.662 1.338 3 3 3h8v-1h-8c-1.108 0-2-0.892-2-2v-14c0-1.108 0.892-2 2-2h18c1.108 0 2 0.892 2 2v9h1v-9c0-1.662-1.338-3-3-3h-18zm3.002 2.998c-1.6569 1e-7 -3 1.3431-3 3 0 1.6569 1.3431 3 3 3 1.6569 0 3-1.3431 3-3s-1.3431-3-3-3zm0 1c1.1046 0 2 0.89543 2 2 0 1.1046-0.89543 2-2 2-1.1046 0-2-0.89543-2-2-1e-7 -1.1046 0.89543-2 2-2zm-3.002 7.002v6h6v-6h-6zm1 1h4v4h-4v-4zm19.273 1-7.6367 7.5605-2.9082-2.8809-0.72852 0.7207 3.6367 3.5996 8.3633-8.2793-0.72656-0.7207z" fill="currentColor"/>
</svg>
