<svg width="32" height="32" version="1.1" viewBox="0 0 32 32" xmlns="http://www.w3.org/2000/svg">
 <defs>
  <style id="current-color-scheme" type="text/css">.ColorScheme-Text {
        color:#363636;
      }</style>
 </defs>
 <path class="ColorScheme-Text" d="m10 5-6 11h6l-3 9 6-11h-6z" fill="currentColor"/>
 <path class="ColorScheme-Text" d="m22.967 4c-1.0986 0-1.9844 0.88385-1.9844 1.9824v0.89648h-1.9824c-1.662 0-3 1.338-3 3v12.121c0 1.662 1.338 3 3 3h1.9824v1.0176c0 1.0986 0.8858 1.9824 1.9844 1.9824h4.0332c1.0986 0 1.9824-0.88385 1.9824-1.9824v-4.0352c0-1.0986-0.88385-1.9824-1.9824-1.9824h-4.0332c-1.0986 0-1.9844 0.88385-1.9844 1.9824v2.0176h-1.9648c-1.1177 0-2.0176-0.89984-2.0176-2.0176v-11.965c0-1.1177 0.89984-2.0176 2.0176-2.0176h1.9648v2.0176c0 1.0986 0.8858 1.9824 1.9844 1.9824h4.0332c1.0986 0 1.9824-0.88385 1.9824-1.9824v-4.0352c0-1.0986-0.88385-1.9824-1.9824-1.9824h-4.0332zm0.015625 0.98242h4c0.56342 0 1.0176 0.45416 1.0176 1.0176v4c0 0.56342-0.45416 1.0176-1.0176 1.0176h-4c-0.56342 0-1.0156-0.45416-1.0156-1.0176v-4c0-0.56342 0.4522-1.0176 1.0156-1.0176zm0 16h4c0.56342 0 1.0176 0.45416 1.0176 1.0176v4c0 0.56342-0.45416 1.0176-1.0176 1.0176h-4c-0.56342 0-1.0156-0.45416-1.0156-1.0176v-4c0-0.56342 0.4522-1.0176 1.0156-1.0176z" fill="currentColor"/>
</svg>
