<svg width="32" height="32" version="1.1" viewBox="0 0 32 32" xmlns="http://www.w3.org/2000/svg">
 <defs>
  <style id="current-color-scheme" type="text/css">.ColorScheme-Text {
        color:#363636;
      }</style>
 </defs>
 <path class="ColorScheme-Text" d="m1.1508 13.879c-1.1752 1.1752-1.1752 3.0674 0 4.2426l12.728 12.728c1.1752 1.1752 3.0674 1.1752 4.2426 0l12.728-12.728c1.1752-1.1752 1.1752-3.0674 0-4.2426l-12.728-12.728c-1.1752-1.1752-3.0674-1.1752-4.2426 0zm0.70711 0.70711 9.1924-9.1924 2.8685 2.8685a2.5 2.5 0 0 0 0.3135 3.1419 2.5 2.5 0 0 0 1.2678 0.67948l-1e-6 9.2449a2.5 2.5 0 0 0-1.2678 0.68225 2.5 2.5 0 0 0 0 3.5355 2.5 2.5 0 0 0 3.5355 0 2.5 2.5 0 0 0 0-3.5355 2.5 2.5 0 0 0-1.2678-0.68225l-1e-6 -9.2449a2.5 2.5 0 0 0 0.87422-0.36598l3.6156 3.6156a2.5 2.5 0 0 0 0.3135 3.1419 2.5 2.5 0 0 0 3.5355 0 2.5 2.5 0 0 0 0-3.5355 2.5 2.5 0 0 0-3.1461-0.31765l-3.6115-3.6115a2.5 2.5 0 0 0-0.3135-3.1419 2.5 2.5 0 0 0-3.1461-0.31765l-2.8643-2.8643 2.8284-2.8284c0.78347-0.78347 2.045-0.78347 2.8284 0l12.728 12.728c0.78347 0.78347 0.78347 2.045 0 2.8284l-12.728 12.728c-0.78347 0.78347-2.045 0.78347-2.8284 0l-12.728-12.728c-0.78347-0.78347-0.78347-2.045 0-2.8284zm13.081-6.0104a1.5 1.5 0 0 1 2.1213 0 1.5 1.5 0 0 1 0 2.1213 1.5 1.5 0 0 1-2.1213 0 1.5 1.5 0 0 1 0-2.1213zm0 14.142a1.5 1.5 0 0 1 2.1213 0 1.5 1.5 0 0 1 0 2.1213 1.5 1.5 0 0 1-2.1213 0 1.5 1.5 0 0 1 0-2.1213zm7.0711-7.0711a1.5 1.5 0 0 1 2.1213 0 1.5 1.5 0 0 1 0 2.1213 1.5 1.5 0 0 1-2.1213 0 1.5 1.5 0 0 1 0-2.1213z" fill="currentColor"/>
</svg>
