<svg width="32px" height="32px" version="1.1" viewBox="0 0 32 32" xmlns="http://www.w3.org/2000/svg">
 <path d="m5 3c-2.216 0-4 1.784-4 4v14c0 2.216 1.784 4 4 4h22c2.216 0 4-1.784 4-4v-14c0-2.216-1.784-4-4-4h-22zm0 1h22c1.662 0 3 1.338 3 3v14c0 1.662-1.338 3-3 3h-22c-1.662 0-3-1.338-3-3v-14c0-1.662 1.338-3 3-3z" fill="#363636" stroke-linecap="round" stroke-linejoin="round" stroke-width="2"/>
 <path d="m10 25v2c0 1.662 1.338 3 3 3h6c1.662 0 3-1.338 3-3v-2h-1v2c0 1.108-0.892 2-2 2h-6c-1.108 0-2-0.892-2-2v-2h-1z" fill="#363636" stroke-linecap="round" stroke-linejoin="round" stroke-width="2.1909"/>
</svg>
