<svg width="32px" height="32px" version="1.1" viewBox="0 0 32 32" xmlns="http://www.w3.org/2000/svg">
 <path d="m3 3c-1.662 0-3 1.338-3 3v14c0 1.662 1.338 3 3 3h19c1.662 0 3-1.338 3-3v-14c0-1.662-1.338-3-3-3h-19zm0 1h19c1.108 0 2 0.892 2 2v14c0 1.108-0.892 2-2 2h-19c-1.108 0-2-0.892-2-2v-14c0-1.108 0.892-2 2-2z" fill="#363636"/>
 <path d="m24 9v1h5c1.108 0 2 0.892 2 2v14c0 1.108-0.892 2-2 2h-19c-1.108 0-2-0.892-2-2v-4h-1v4c0 1.662 1.338 3 3 3h19c1.662 0 3-1.338 3-3v-14c0-1.662-1.338-3-3-3h-5z" fill="#363636"/>
</svg>
