<svg width="32px" height="32px" version="1.1" viewBox="0 0 32 32" xmlns="http://www.w3.org/2000/svg">
 <path d="m3.5 2a3.5 3.5 0 0 0-3.5 3.5 3.5 3.5 0 0 0 3 3.4648v2.5352c0 0.277 0.223 0.5 0.5 0.5s0.5-0.223 0.5-0.5v-2.5352a3.5 3.5 0 0 0 2.9648-2.9648h1.5352c0.277 0 0.5-0.223 0.5-0.5s-0.223-0.5-0.5-0.5h-1.5352a3.5 3.5 0 0 0-3.4648-3zm25 0a3.5 3.5 0 0 0-3.4648 3h-1.5352c-0.277 0-0.5 0.223-0.5 0.5s0.223 0.5 0.5 0.5h1.5352a3.5 3.5 0 0 0 2.9648 2.9648v2.5352c0 0.277 0.223 0.5 0.5 0.5s0.5-0.223 0.5-0.5v-2.5352a3.5 3.5 0 0 0 3-3.4648 3.5 3.5 0 0 0-3.5-3.5zm-25.016 1a2.4851 2.4851 0 0 1 2.4863 2.4844 2.4851 2.4851 0 0 1-2.4863 2.4863 2.4851 2.4851 0 0 1-2.4844-2.4863 2.4851 2.4851 0 0 1 2.4844-2.4844zm25 0a2.4851 2.4851 0 0 1 2.4863 2.4844 2.4851 2.4851 0 0 1-2.4863 2.4863 2.4851 2.4851 0 0 1-2.4844-2.4863 2.4851 2.4851 0 0 1 2.4844-2.4844zm-24.984 2a0.5 0.5 0 0 0-0.5 0.5 0.5 0.5 0 0 0 0.5 0.5 0.5 0.5 0 0 0 0.5-0.5 0.5 0.5 0 0 0-0.5-0.5zm8 0c-0.277 0-0.5 0.223-0.5 0.5s0.223 0.5 0.5 0.5h3c0.277 0 0.5-0.223 0.5-0.5s-0.223-0.5-0.5-0.5h-3zm6 0c-0.277 0-0.5 0.223-0.5 0.5s0.223 0.5 0.5 0.5h3c0.277 0 0.5-0.223 0.5-0.5s-0.223-0.5-0.5-0.5h-3zm11 0a0.5 0.5 0 0 0-0.5 0.5 0.5 0.5 0 0 0 0.5 0.5 0.5 0.5 0 0 0 0.5-0.5 0.5 0.5 0 0 0-0.5-0.5zm-25 9c-0.277 0-0.5 0.223-0.5 0.5v3c0 0.277 0.223 0.5 0.5 0.5s0.5-0.223 0.5-0.5v-3c0-0.277-0.223-0.5-0.5-0.5zm25 0c-0.277 0-0.5 0.223-0.5 0.5v3c0 0.277 0.223 0.5 0.5 0.5s0.5-0.223 0.5-0.5v-3c0-0.277-0.223-0.5-0.5-0.5zm-25 6c-0.277 0-0.5 0.223-0.5 0.5v2.5352a3.5 3.5 0 0 0-3 3.4648 3.5 3.5 0 0 0 3.5 3.5 3.5 3.5 0 0 0 3.4648-3h1.5352c0.277 0 0.5-0.223 0.5-0.5s-0.223-0.5-0.5-0.5h-1.5352a3.5 3.5 0 0 0-2.9648-2.9648v-2.5352c0-0.277-0.223-0.5-0.5-0.5zm25 0c-0.277 0-0.5 0.223-0.5 0.5v2.5352a3.5 3.5 0 0 0-2.9648 2.9648h-1.5352c-0.277 0-0.5 0.223-0.5 0.5s0.223 0.5 0.5 0.5h1.5352a3.5 3.5 0 0 0 3.4648 3 3.5 3.5 0 0 0 3.5-3.5 3.5 3.5 0 0 0-3-3.4648v-2.5352c0-0.277-0.223-0.5-0.5-0.5zm-25.016 4a2.4851 2.4851 0 0 1 2.4863 2.4844 2.4851 2.4851 0 0 1-2.4863 2.4863 2.4851 2.4851 0 0 1-2.4844-2.4863 2.4851 2.4851 0 0 1 2.4844-2.4844zm25 0a2.4851 2.4851 0 0 1 2.4863 2.4844 2.4851 2.4851 0 0 1-2.4863 2.4863 2.4851 2.4851 0 0 1-2.4844-2.4863 2.4851 2.4851 0 0 1 2.4844-2.4844zm-24.984 2a0.5 0.5 0 0 0-0.5 0.5 0.5 0.5 0 0 0 0.5 0.5 0.5 0.5 0 0 0 0.5-0.5 0.5 0.5 0 0 0-0.5-0.5zm8 0c-0.277 0-0.5 0.223-0.5 0.5s0.223 0.5 0.5 0.5h3c0.277 0 0.5-0.223 0.5-0.5s-0.223-0.5-0.5-0.5h-3zm6 0c-0.277 0-0.5 0.223-0.5 0.5s0.223 0.5 0.5 0.5h3c0.277 0 0.5-0.223 0.5-0.5s-0.223-0.5-0.5-0.5h-3zm11 0a0.5 0.5 0 0 0-0.5 0.5 0.5 0.5 0 0 0 0.5 0.5 0.5 0.5 0 0 0 0.5-0.5 0.5 0.5 0 0 0-0.5-0.5z" fill="#363636" stroke-linecap="round" stroke-linejoin="round" stroke-width="2"/>
</svg>
