<svg width="32" height="32" version="1.1" viewBox="0 0 32 32" xmlns="http://www.w3.org/2000/svg">
 <g fill="#363636">
  <g transform="translate(8,8)">
   <path d="m7 7v5c0 0.27734-0.22266 0.5-0.5 0.5s-0.5-0.22266-0.5-0.5v-5c0-0.27734 0.22266-0.5 0.5-0.5s0.5 0.22266 0.5 0.5z"/>
   <path d="m10 7v5c0 0.27734-0.22266 0.5-0.5 0.5s-0.5-0.22266-0.5-0.5v-5c0-0.27734 0.22266-0.5 0.5-0.5s0.5 0.22266 0.5 0.5z"/>
  </g>
  <rect x="8" y="11" width="16" height="1" rx=".5" ry=".5"/>
  <path d="m14 8c-1.108 0-2 0.892-2 2v2h1v-2c0-0.554 0.446-1 1-1h4c0.554 0 1 0.446 1 1v2h1v-2c0-1.108-0.892-2-2-2h-4z"/>
  <path d="m10 11v10c0 1.662 1.338 3 3 3h6c1.662 0 3-1.338 3-3v-10h-1v10c0 1.108-0.892 2-2 2h-6c-1.108 0-2-0.892-2-2v-10h-1z"/>
 </g>
</svg>
