<svg width="32px" height="32px" version="1.1" viewBox="0 0 32 32" xmlns="http://www.w3.org/2000/svg">
 <path d="m17 11c0.55469 0 1 0.44531 1 1s-0.44531 1-1 1-1-0.44531-1-1 0.44531-1 1-1zm-4 0c0.55469 0 1 0.44531 1 1s-0.44531 1-1 1-1-0.44531-1-1 0.44531-1 1-1zm-4 0c0.55469 0 1 0.44531 1 1s-0.44531 1-1 1-1-0.44531-1-1 0.44531-1 1-1zm8 4c0.55469 0 1 0.44531 1 1s-0.44531 1-1 1-1-0.44531-1-1 0.44531-1 1-1zm-4 0c0.55469 0 1 0.44531 1 1s-0.44531 1-1 1-1-0.44531-1-1 0.44531-1 1-1zm-4 0c0.55469 0 1 0.44531 1 1s-0.44531 1-1 1-1-0.44531-1-1 0.44531-1 1-1zm8 4c0.55469 0 1 0.44531 1 1s-0.44531 1-1 1-1-0.44531-1-1 0.44531-1 1-1zm-4 0c0.55469 0 1 0.44531 1 1s-0.44531 1-1 1-1-0.44531-1-1 0.44531-1 1-1zm-4 0c0.55469 0 1 0.44531 1 1s-0.44531 1-1 1-1-0.44531-1-1 0.44531-1 1-1z" fill="#363636"/>
 <path d="m32 7v18h-5c-1.6602 0-3-1.3398-3-3v-12c0-1.6602 1.3398-3 3-3z" fill="#363636" opacity=".25"/>
 <path d="m32 3v1h-25c-3.324 0-6 2.676-6 6v12c0 3.324 2.676 6 6 6h25v1h-25c-3.878 0-7-3.122-7-7v-12c0-3.878 3.122-7 7-7z" fill="#363636" stroke-linecap="round" stroke-linejoin="round" stroke-width="2.1264"/>
</svg>
