<svg width="32px" height="32px" version="1.1" viewBox="0 0 32 32" xmlns="http://www.w3.org/2000/svg">
 <path d="m12.105 1c-2.2744 0-4.1055 1.831-4.1055 4.1055v9.7891c0 2.2744 1.831 4.1055 4.1055 4.1055h3.8945v2c0 1.108 0.892 2 2 2h5c1.108 0 2-0.892 2-2v-2h2.8945c2.2744 0 4.1055-1.831 4.1055-4.1055v-9.7891c0-2.2744-1.831-4.1055-4.1055-4.1055h-15.789zm-0.10547 1h16c1.662 0 3 1.338 3 3v10c0 1.662-1.338 3-3 3h-3-1-7-1-4c-1.662 0-3-1.338-3-3v-10c0-1.662 1.338-3 3-3zm5 17h7v2c0 0.554-0.446 1-1 1h-5c-0.554 0-1-0.446-1-1v-2z" fill="#363636" opacity=".35" stroke-linecap="round" stroke-linejoin="round" stroke-width="2"/>
 <path d="m3 21c-1.108 0-2 0.892-2 2v6.9414l-0.86523 0.89062c-0.38595 0.39744 0.31124 1.168 0.86523 1.168h7 7c0.554 0 1.2512-0.77053 0.86523-1.168l-0.86523-0.89062v-6.9414c0-1.108-0.892-2-2-2h-10zm0 1h10c0.554 0 1 0.446 1 1v6.0234c-0.005533-0.003592-0.035156-0.023438-0.035156-0.023438h-5.9648-5.9648c1e-7 0-0.029623 0.019846-0.035156 0.023438v-6.0234c0-0.554 0.446-1 1-1zm-0.63477 8h5.6348 5.6348c0.04601 0.03473 0.09907 0.073545 0.10352 0.078125l0.89648 0.92188h-6.6348-6.6348l0.89648-0.92188c0.0044497-0.0046 0.057505-0.043395 0.10352-0.078125z" fill="#363636" stroke-linecap="round" stroke-linejoin="round" stroke-width="2"/>
</svg>
