<svg width="32px" height="32px" version="1.1" viewBox="0 0 32 32" xmlns="http://www.w3.org/2000/svg">
 <path d="m11 3c-1.662 0-3 1.338-3 3v14c0 1.662 1.338 3 3 3h18c1.662 0 3-1.338 3-3v-14c0-1.662-1.338-3-3-3h-18zm0 1h18c1.108 0 2 0.892 2 2h-22c0-1.108 0.892-2 2-2zm-2 3h22v13c0 1.108-0.892 2-2 2h-18c-1.108 0-2-0.892-2-2v-13z" fill="#363636" stroke-linecap="round" stroke-linejoin="round" stroke-width="2"/>
 <path d="m3 10c-1.662 0-3 1.338-3 3v14c0 1.662 1.338 3 3 3h18c1.662 0 3-1.338 3-3v-3h-1v3c0 1.108-0.892 2-2 2h-18c-1.108 0-2-0.892-2-2v-13h6v-1h-6c0-1.108 0.892-2 2-2h4v-1h-4z" fill="#363636" stroke-linecap="round" stroke-linejoin="round" stroke-width="2"/>
</svg>
