<svg width="32px" height="32px" version="1.1" viewBox="0 0 32 32" xmlns="http://www.w3.org/2000/svg">
 <path d="m3.75 7h1.5c0.41406 0 0.75 0.33594 0.75 0.75v1.5c0 0.41406-0.33594 0.75-0.75 0.75h-1.5c-0.41406 0-0.75-0.33594-0.75-0.75v-1.5c0-0.41406 0.33594-0.75 0.75-0.75z" fill="#363636" opacity=".25"/>
 <path d="m3.75 11h1.5c0.41406 0 0.75 0.33594 0.75 0.75v1.5c0 0.41406-0.33594 0.75-0.75 0.75h-1.5c-0.41406 0-0.75-0.33594-0.75-0.75v-1.5c0-0.41406 0.33594-0.75 0.75-0.75z" fill="#363636" opacity=".25"/>
 <path d="m3.75 15h1.5c0.41406 0 0.75 0.33594 0.75 0.75v1.5c0 0.41406-0.33594 0.75-0.75 0.75h-1.5c-0.41406 0-0.75-0.33594-0.75-0.75v-1.5c0-0.41406 0.33594-0.75 0.75-0.75z" fill="#363636" opacity=".25"/>
 <path d="m4 3c-2.216 0-4 1.784-4 4v17c0 2.216 1.784 4 4 4h24c2.216 0 4-1.784 4-4v-17c0-2.216-1.784-4-4-4h-24zm0 1h24c1.662 0 3 1.338 3 3v17c0 1.662-1.338 3-3 3h-24c-1.662 0-3-1.338-3-3v-17c0-1.662 1.338-3 3-3z" fill="#363636" stroke-linecap="round" stroke-linejoin="round" stroke-width="2"/>
 <path d="m3.75 19h1.5c0.41406 0 0.75 0.33594 0.75 0.75v1.5c0 0.41406-0.33594 0.75-0.75 0.75h-1.5c-0.41406 0-0.75-0.33594-0.75-0.75v-1.5c0-0.41406 0.33594-0.75 0.75-0.75z" fill="#363636" opacity=".25"/>
</svg>
