<svg version="1.1" viewBox="0 0 32 32" xmlns="http://www.w3.org/2000/svg">
 <defs>
  <style id="current-color-scheme" type="text/css">.ColorScheme-Text {
        color:#363636;
      }</style>
 </defs>
 <path class="ColorScheme-Text" d="m11 7c-2.2091 0-4 1.7909-4 4s1.7909 4 4 4 4-1.7909 4-4-1.7909-4-4-4m0 1c1.6569 0 3 1.3431 3 3 0 1.6569-1.3431 3-3 3-1.6569 0-3-1.3431-3-3 0-1.6569 1.3431-3 3-3m9.5 6.793-5 5-2-2-6.5 6.5 0.707 0.707 5.793-5.793 2 2 5-5 3.793 3.793 0.707-0.707z" fill="currentColor"/>
 <path d="m8 4c-2.216 0-4 1.784-4 4v16c0 2.216 1.784 4 4 4h16c2.216 0 4-1.784 4-4v-16c0-2.216-1.784-4-4-4h-16zm0 1h16c1.662 0 3 1.338 3 3v16c0 1.662-1.338 3-3 3h-16c-1.662 0-3-1.338-3-3v-16c0-1.662 1.338-3 3-3z" class="ColorScheme-Text" style="fill:currentColor"/>
</svg>
