<svg version="1.1" viewBox="0 0 32 32" xmlns="http://www.w3.org/2000/svg">
 <defs>
  <style id="current-color-scheme" type="text/css">.ColorScheme-Text {
        color:#363636;
      }</style>
 </defs>
 <path class="ColorScheme-Text" d="m19.5 13.5v4h-4v1h4v4h1v-4h4v-1h-4v-4z" fill="currentColor"/>
 <path class="ColorScheme-Text" d="m25 4c1.662 0 3 1.338 3 3v18c0 1.662-1.338 3-3 3h-18c-1.662 0-3-1.338-3-3v-18c0-1.662 1.338-3 3-3zm0 1h-18c-1.108 0-2 0.892-2 2v1h22v-1c0-1.108-0.892-2-2-2zm2 4h-22v16c0 1.108 0.892 2 2 2h18c1.108 0 2-0.892 2-2z" fill="currentColor"/>
 <rect class="ColorScheme-Text" transform="scale(-1,1)" x="-13" y="9" width="1" height="18" fill="currentColor"/>
</svg>
