<svg version="1.1" viewBox="0 0 32 32" xmlns="http://www.w3.org/2000/svg">
 <defs>
  <style id="current-color-scheme" type="text/css">.ColorScheme-Text {            color:#363636;        }</style>
 </defs>
 <path class="ColorScheme-Text" d="m14.607 3.0312a12.5 12.5 0 0 0-7.9453 3.6309 12.5 12.5 0 0 0 0 17.676 12.5 12.5 0 0 0 17.297 0.32812l6.7988 6.7988c0.16574 0.16574 0.45648 0.14118 0.65234-0.054688 0.19587-0.19587 0.22042-0.48661 0.054688-0.65234l-6.7812-6.7812a12.5 12.5 0 0 0-0.3457-17.314 12.5 12.5 0 0 0-9.7305-3.6309zm0.072266 0.99805a11.5 11.5 0 0 1 8.9512 3.3398 11.5 11.5 0 0 1 0 16.262 11.5 11.5 0 0 1-16.262 0 11.5 11.5 0 0 1 0-16.262 11.5 11.5 0 0 1 7.3105-3.3398z" fill="currentColor"/>
 <path class="ColorScheme-Text" d="m15.5 9c-0.277 0-0.5 0.223-0.5 0.5v5.5h-5.5c-0.277 0-0.5 0.223-0.5 0.5s0.223 0.5 0.5 0.5h5.5v5.5c0 0.277 0.223 0.5 0.5 0.5s0.5-0.223 0.5-0.5v-5.5h5.5c0.277 0 0.5-0.223 0.5-0.5s-0.223-0.5-0.5-0.5h-5.5v-5.5c0-0.277-0.223-0.5-0.5-0.5z" fill="currentColor"/>
 <path class="ColorScheme-Text" d="m11.5 4c-0.277 0-0.5 0.223-0.5 0.5v1.5h-0.5c-0.277 0-0.5 0.223-0.5 0.5s0.223 0.5 0.5 0.5h0.5v1h-0.5c-0.277 0-0.5 0.223-0.5 0.5s0.223 0.5 0.5 0.5h0.5v1h-0.5c-0.277 0-0.5 0.223-0.5 0.5s0.223 0.5 0.5 0.5h1c0.0087 0 0.016851 4.3e-4 0.025391 0 0.0171-8.6e-4 0.034181-0.003259 0.050781-0.005859 0.0083-0.0013 0.017241-0.002207 0.02539-0.003907 0.0082-0.0017 0.015438-0.003759 0.023438-0.005859 8e-3 -2e-3 0.015598-0.003359 0.023438-0.005859 0.007699-0.0024 0.015867-0.005113 0.023437-0.007813 0.0077-0.0028 0.015948-0.006566 0.023437-0.009765 0.0073-0.0031 0.014325-0.006266 0.021485-0.009766 0.0073-0.0035 0.014404-0.007899 0.021484-0.011719 0.0072-0.0039 0.014515-0.007499 0.021485-0.011719 0.0069-0.0042 0.012881-0.009202 0.019531-0.013672 0.0066-0.004499 0.013121-0.008901 0.019531-0.013671 0.0064-0.0048 0.013361-0.008602 0.019531-0.013672 6e-3 -0.0049 0.011819-0.010405 0.017579-0.015625 0.005899-0.0054 0.011928-0.011928 0.017578-0.017578 0.0058-0.0058 0.012058-0.011489 0.017578-0.017578 0.0054-0.0059 0.010535-0.011409 0.015625-0.017579 0.0051-0.0062 0.008902-0.013121 0.013672-0.019531 0.0048-0.0064 0.009202-0.012881 0.013671-0.019531 0.0044-0.0066 0.009602-0.012751 0.013672-0.019531 0.0042-0.0069 0.007899-0.014395 0.011719-0.021485 0.0039-0.0072 0.008199-0.014064 0.011719-0.021484 0.0035-0.0073 0.006566-0.013995 0.009766-0.021485 0.003199-0.007599 0.006865-0.015657 0.009765-0.023437 0.0028-0.0077 0.005413-0.015598 0.007813-0.023437 0.0024-0.0078 0.003759-0.015438 0.005859-0.023438 2e-3 -8e-3 0.004159-0.015288 0.005859-0.023438 0.0017-0.008199 0.002607-0.0171 0.003907-0.02539 0.0013-0.0083 0.003106-0.016971 0.003906-0.025391 8.52e-4 -0.0084 0.001453-0.01683 0.001953-0.02539 4.3e-4 -0.0085 0-0.016741 0-0.025391 0-0.0087 4.3e-4 -0.016851 0-0.025391v-1.9492c4.3e-4 -0.00855 0-0.016734 0-0.025391 0-0.00866 4.3e-4 -0.016845 0-0.025391v-1.9492c4.3e-4 -0.00855 0-0.016734 0-0.025391 0-0.00866 4.3e-4 -0.016845 0-0.025391v-1.9746c-1.9e-4 -0.277-0.223-0.5-0.5-0.5zm-1 16c-0.277 0-0.5 0.223-0.5 0.5s0.223 0.5 0.5 0.5h0.5v1h-0.5c-0.277 0-0.5 0.223-0.5 0.5 0 0.277 0.223 0.5 0.5 0.5h0.5v1h-0.5c-0.277 0-0.5 0.223-0.5 0.5 0 0.277 0.223 0.5 0.5 0.5h0.5v1.5c0 0.277 0.223 0.5 0.5 0.5s0.5-0.223 0.5-0.5v-1.9746c4.3e-4 -0.00854 0-0.016691 0-0.025391 0-0.00866 4.3e-4 -0.016891 0-0.025391v-1.9492c4.3e-4 -0.00854 0-0.016691 0-0.025391 0-0.00866 4.3e-4 -0.016891 0-0.025391v-1.9492c4.3e-4 -0.00854 0-0.016691 0-0.025391 0-0.00865 4.3e-4 -0.016891 0-0.025391-5e-4 -0.00856-0.001101-0.01699-0.001953-0.02539-8e-4 -0.00842-0.002606-0.017091-0.003906-0.025391-0.0013-0.00829-0.002207-0.017191-0.003907-0.02539-0.0017-0.00815-0.003859-0.015438-0.005859-0.023438-0.0021-8e-3 -0.003459-0.015638-0.005859-0.023438-0.0024-0.007839-0.005013-0.015737-0.007813-0.023437-0.0029-0.00778-0.006566-0.015838-0.009765-0.023437-0.0032-0.00749-0.006266-0.014185-0.009766-0.021485-0.00352-0.00742-0.007819-0.014284-0.011719-0.021484-0.00382-0.00708-0.007519-0.014585-0.011719-0.021485-0.00407-0.00678-0.009272-0.012931-0.013672-0.019531-0.004469-0.00665-0.008871-0.013131-0.013671-0.019531-0.00477-0.00641-0.008572-0.013331-0.013672-0.019531-0.00509-0.00617-0.010225-0.011679-0.015625-0.017579-0.00552-0.006089-0.011778-0.011778-0.017578-0.017578-0.00565-0.00565-0.011679-0.012178-0.017578-0.017578-0.00576-0.00522-0.011579-0.010725-0.017579-0.015625-0.00617-0.00507-0.013131-0.008872-0.019531-0.013672-0.00641-0.00477-0.012931-0.009172-0.019531-0.013671-0.00665-0.00447-0.012631-0.009472-0.019531-0.013672-0.00697-0.00422-0.014285-0.007819-0.021485-0.011719-0.00708-0.00382-0.014184-0.008219-0.021484-0.011719-0.00716-0.0035-0.014185-0.006666-0.021485-0.009766-0.007489-0.003199-0.015737-0.006965-0.023437-0.009765-0.00757-0.0027-0.015738-0.005413-0.023437-0.007813-0.00784-0.0025-0.015438-0.003859-0.023438-0.005859-8e-3 -0.0021-0.015238-0.004159-0.023438-0.005859-0.008149-0.0017-0.01709-0.002607-0.02539-0.003907-0.0166-0.0026-0.033681-0.004999-0.050781-0.005859-0.00854-4.3e-4 -0.016691 0-0.025391 0h-1z" fill="currentColor"/>
</svg>
