<svg version="1.1" viewBox="0 0 32 32" xmlns="http://www.w3.org/2000/svg">
 <defs>
  <style id="current-color-scheme" type="text/css">.ColorScheme-Text {            color:#363636;        }</style>
 </defs>
 <path class="ColorScheme-Text" d="m14.607 3.0312a12.5 12.5 0 0 0-7.9453 3.6309 12.5 12.5 0 0 0 0 17.676 12.5 12.5 0 0 0 17.297 0.32812l6.7988 6.7988c0.16574 0.16574 0.45648 0.14118 0.65234-0.054688 0.19587-0.19587 0.22042-0.48661 0.054688-0.65234l-6.7812-6.7812a12.5 12.5 0 0 0-0.3457-17.314 12.5 12.5 0 0 0-9.7305-3.6309zm0.072266 0.99805a11.5 11.5 0 0 1 8.9512 3.3398 11.5 11.5 0 0 1 0 16.262 11.5 11.5 0 0 1-16.262 0 11.5 11.5 0 0 1 0-16.262 11.5 11.5 0 0 1 7.3105-3.3398zm2.3203 4.9707c-1.108 0-2 0.892-2 2v4h-4c-1.108 0-2 0.892-2 2v4c0 1.108 0.892 2 2 2h4c1.108 0 2-0.892 2-2v-4h4c1.108 0 2-0.892 2-2v-4c0-1.108-0.892-2-2-2h-4zm0 1h4c0.554 0 1 0.446 1 1v4c0 0.554-0.446 1-1 1h-4c-0.554 0-1-0.446-1-1v-4c0-0.554 0.446-1 1-1zm-6 6h4c0.554 0 1 0.446 1 1v4c0 0.554-0.446 1-1 1h-4c-0.554 0-1-0.446-1-1v-4c0-0.554 0.446-1 1-1z" fill="currentColor"/>
</svg>
