<svg version="1.1" viewBox="0 0 32 32" xmlns="http://www.w3.org/2000/svg">
 <defs>
  <style id="current-color-scheme" type="text/css">.ColorScheme-Text {
        color:#363636;
      }</style>
 </defs>
 <path class="ColorScheme-Text" d="m23.838 7.4531-7.8379 7.8398v-5.3633h-1v7.0703h7.0703v-1h-5.3633l7.8398-7.8379z" fill="currentColor"/>
 <path d="m7 4c-1.662 0-3 1.338-3 3v9h1v-9c0-1.108 0.892-2 2-2h18c1.108 0 2 0.892 2 2v18c0 1.108-0.892 2-2 2h-9v1h9c1.662 0 3-1.338 3-3v-18c0-1.662-1.338-3-3-3z" class="ColorScheme-Text" style="fill:currentColor"/>
 <path d="m6 18c-1.108 0-2 0.892-2 2v2h1v-2c0-0.554 0.446-1 1-1h2v-1h-2zm4 0v1h2c0.554 0 1 0.446 1 1v2h1v-2c0-1.108-0.892-2-2-2h-2zm-6 6v2c0 1.108 0.892 2 2 2h2v-1h-2c-0.554 0-1-0.446-1-1v-2h-1zm9 0v2c0 0.554-0.446 1-1 1h-2v1h2c1.108 0 2-0.892 2-2v-2h-1z" class="ColorScheme-Text" style="fill:currentColor"/>
</svg>
