<svg version="1.1" viewBox="0 0 32 32" xmlns="http://www.w3.org/2000/svg">
 <defs>
  <style id="current-color-scheme" type="text/css">.ColorScheme-Text {            color:#363636;        }</style>
 </defs>
 <path class="ColorScheme-Text" d="m14.607 3.0312a12.5 12.5 0 0 0-7.9453 3.6309 12.5 12.5 0 0 0 0 17.676 12.5 12.5 0 0 0 17.297 0.32812l6.7988 6.7988c0.16574 0.16574 0.45648 0.14118 0.65234-0.05469 0.19587-0.19587 0.22042-0.48661 0.05469-0.65234l-6.7812-6.7812a12.5 12.5 0 0 0-0.3457-17.314 12.5 12.5 0 0 0-9.7305-3.6309zm0.07227 0.99805a11.5 11.5 0 0 1 8.9512 3.3398 11.5 11.5 0 0 1 0 16.262 11.5 11.5 0 0 1-16.262 0 11.5 11.5 0 0 1 0-16.262 11.5 11.5 0 0 1 7.3105-3.3398z" fill="currentColor"/>
 <path class="ColorScheme-Text" d="m15 15h-5.5c-0.277 0-0.5 0.223-0.5 0.5s0.223 0.5 0.5 0.5h12c0.277 0 0.5-0.223 0.5-0.5s-0.223-0.5-0.5-0.5h-5.5z" fill="currentColor"/>
 <path class="ColorScheme-Text" d="m11.5 4c-0.277 0-0.5 0.223-0.5 0.5v1.5h-0.5c-0.277 0-0.5 0.223-0.5 0.5s0.223 0.5 0.5 0.5h0.5v1h-0.5c-0.277 0-0.5 0.223-0.5 0.5s0.223 0.5 0.5 0.5h0.5v1h-0.5c-0.277 0-0.5 0.223-0.5 0.5s0.223 0.5 0.5 0.5h1c0.0087 0 0.01685 4.3e-4 0.02539 0 0.0171-8.6e-4 0.03418-0.0033 0.05078-0.0059 0.0083-0.0013 0.01724-0.0022 0.02539-0.0039 0.0082-0.0017 0.01544-0.0038 0.02344-0.0059 8e-3 -2e-3 0.0156-0.0034 0.02344-0.0059 0.0077-0.0024 0.01587-0.0051 0.02344-0.0078 0.0077-0.0028 0.01595-0.0066 0.02344-0.0098 0.0073-0.0031 0.01433-0.0063 0.02149-0.0098 0.0073-0.0035 0.0144-0.0079 0.02148-0.01172 0.0072-0.0039 0.01451-0.0075 0.02149-0.01172 0.0069-0.0042 0.01288-0.0092 0.01953-0.01367 0.0066-0.0045 0.01312-0.0089 0.01953-0.01367 0.0064-0.0048 0.01336-0.0086 0.01953-0.01367 6e-3 -0.0049 0.01182-0.0104 0.01758-0.01563 0.0059-0.0054 0.01193-0.01193 0.01758-0.01758 0.0058-0.0058 0.01206-0.01149 0.01758-0.01758 0.0054-0.0059 0.01054-0.01141 0.01563-0.01758 0.0051-0.0062 0.0089-0.01312 0.01367-0.01953 0.0048-0.0064 0.0092-0.01288 0.01367-0.01953 0.0044-0.0066 0.0096-0.01275 0.01367-0.01953 0.0042-0.0069 0.0079-0.0144 0.01172-0.02149 0.0039-0.0072 0.0082-0.01406 0.01172-0.02148 0.0035-0.0073 0.0066-0.01399 0.0098-0.02149 0.0032-0.0076 0.0069-0.01566 0.0098-0.02344 0.0028-0.0077 0.0054-0.0156 0.0078-0.02344 0.0024-0.0078 0.0038-0.01544 0.0059-0.02344 2e-3 -8e-3 0.0042-0.01529 0.0059-0.02344 0.0017-0.0082 0.0026-0.0171 0.0039-0.02539 0.0013-0.0083 0.0031-0.01697 0.0039-0.02539 8.52e-4 -0.0084 0.0015-0.01683 2e-3 -0.02539 4.3e-4 -0.0085 0-0.01674 0-0.02539 0-0.0087 4.3e-4 -0.01685 0-0.02539v-1.949c4.3e-4 -0.00855 0-0.016734 0-0.025391 0-0.00866 4.3e-4 -0.016845 0-0.025391v-1.9492c4.3e-4 -0.00855 0-0.016734 0-0.025391 0-0.00866 4.3e-4 -0.016845 0-0.025391v-1.9746c-3.8e-4 -0.277-0.22319-0.5-0.50019-0.5zm-1 16c-0.277 0-0.5 0.223-0.5 0.5s0.223 0.5 0.5 0.5h0.5v1h-0.5c-0.277 0-0.5 0.223-0.5 0.5 0 0.277 0.223 0.5 0.5 0.5h0.5v1h-0.5c-0.277 0-0.5 0.223-0.5 0.5 0 0.277 0.223 0.5 0.5 0.5h0.5v1.5c0 0.277 0.223 0.5 0.5 0.5s0.5-0.223 0.5-0.5v-1.9746c4.3e-4 -0.0085 0-0.01669 0-0.02539s4.3e-4 -0.01689 0-0.02539v-1.9492c4.3e-4 -0.0085 0-0.01669 0-0.02539s4.3e-4 -0.01689 0-0.02539v-1.9492c4.3e-4 -0.0085 0-0.01669 0-0.02539 0-0.0086 4.3e-4 -0.01689 0-0.02539-5e-4 -0.0086-0.0011-0.01699-2e-3 -0.02539-8e-4 -0.0084-0.0026-0.01709-0.0039-0.02539s-0.0022-0.01719-0.0039-0.02539c-0.0017-0.0081-0.0039-0.01544-0.0059-0.02344-0.0021-8e-3 -0.0035-0.01564-0.0059-0.02344s-5e-3 -0.01574-0.0078-0.02344c-0.0029-0.0078-0.0066-0.01584-0.0098-0.02344-0.0032-0.0075-0.0063-0.01418-0.0098-0.02148-0.0035-0.0074-0.0078-0.01428-0.01172-0.02148-0.0038-0.0071-0.0075-0.01459-0.01172-0.02148-0.0041-0.0068-0.0093-0.01293-0.01367-0.01953-0.0045-0.0067-0.0089-0.01313-0.01367-0.01953-0.0048-0.0064-0.0086-0.01333-0.01367-0.01953-0.0051-0.0062-0.01023-0.01168-0.01563-0.01758-0.0055-0.0061-0.01178-0.01178-0.01758-0.01758-0.0057-0.0056-0.01168-0.01218-0.01758-0.01758-0.0058-0.0052-0.01158-0.01073-0.01758-0.01563-0.0062-0.0051-0.01313-0.0089-0.01953-0.01367-0.0064-0.0048-0.01293-0.0092-0.01953-0.01367-0.0067-0.0045-0.01263-0.0095-0.01953-0.01367-7e-3 -0.0042-0.01429-0.0078-0.02149-0.01172-0.0071-0.0038-0.01418-0.0082-0.02148-0.01172-0.0072-0.0035-0.01418-0.0067-0.02149-0.0098-0.0075-0.0032-0.01574-7e-3 -0.02344-0.0098-0.0076-0.0027-0.01574-0.0054-0.02344-0.0078-0.0078-0.0025-0.01544-0.0039-0.02344-0.0059-8e-3 -0.0021-0.01524-0.0042-0.02344-0.0059-0.0081-0.0017-0.01709-0.0026-0.02539-0.0039-0.0166-0.0026-0.03368-5e-3 -0.05078-0.0059-0.0085-4.3e-4 -0.01669 0-0.02539 0z" fill="currentColor"/>
</svg>
