<svg width="22" height="22" viewBox="0 0 22 22" xmlns="http://www.w3.org/2000/svg">
 <g transform="matrix(.0094949 0 0 .009495 -1.1713 -1.1526)">
  <path d="m350 2062 98-6c199-13 197-12 207-168 9-148-2.337-1306.8-9-1330-10.975-38.27-52.156-60.281-175-60.25l-121-0.75v-217h1860v831l-219-3.25c-2-2-8-60.75-12-114.75-23-254-80-400.14-190-457.14-58-30-148.56-38.842-438.65-38.93l-270.35 0.072v623h48c81-1 184-20 218-41 44-27 81-105 94-199 9.8-68.603 17.362-119.93 17.362-119.93l212.64-0.067v990h-220v-39c0-64-30-213-51-258-33-69-89-93-248-108l-73-7 4 321c3 305 5 322 24 348 24 32 50 38 209 50l106.73 5.077-0.727 217.92h-1071z" fill="#9264be"/>
 </g>
</svg>
