<svg version="1.1" viewBox="0 0 32 32" xmlns="http://www.w3.org/2000/svg">
 <defs>
  <style id="current-color-scheme" type="text/css">.ColorScheme-Text { color:#363636; }</style>
 </defs>
 <g id="disk-quota" class="ColorScheme-Text" fill="currentColor">
  <path d="m12.215 7c-2.0167 0-3.7605 1.0854-4.5254 2.9199l-1.3789 3.5938a7 7 0 0 1 0.18945-0.013672 7 7 0 0 1 1.3926 0.14062l1.1797-3.1406 2e-3 -2e-3c0.56139-1.3468 1.5905-1.998 3.1406-1.998h7.5801c1.5402 0 2.5721 0.65123 3.1426 2l2.1816 5.8027c-0.50259-0.19305-1.047-0.30273-1.6191-0.30273h-11.641a7 7 0 0 1 0.96484 1.5h10.676c1.662 0 3 1.338 3 3s-1.338 3-3 3h-10.684a7 7 0 0 1-0.96289 1.5h11.646c2.3636 0 4.2868-1.8053 4.4805-4.1172 0.0106-0.12657 0.019531-0.25341 0.019531-0.38281 0-4e-3 1e-5 -0.0078 0-0.01172 2.1e-5 -0.0046 0-0.0091 0-0.01367 0-0.92967-0.26299-1.7358-0.54492-2.4023l-3.1367-8.1563-2e-3 -0.00195c-0.77467-1.829-2.5131-2.9141-4.5214-2.9141zm11.285 12.5c-0.55228 0-1 0.44772-1 1s0.44772 1 1 1 1-0.44772 1-1-0.44772-1-1-1z"/>
  <path d="m6.5 15a5.5 5.5 0 0 0-5.5 5.5 5.5 5.5 0 0 0 5.5 5.5 5.5 5.5 0 0 0 5.5-5.5 5.5 5.5 0 0 0-5.5-5.5zm0 1.5a4 4 0 0 1 4 4 4 4 0 0 1-4 4 4 4 0 0 1-4-4 4 4 0 0 1 4-4zm0 1.5a2.5 2.5 0 0 0-2.5 2.5 2.5 2.5 0 0 0 2.5 2.5 2.5 2.5 0 0 0 2.5-2.5 2.5 2.5 0 0 0-2.5-2.5z"/>
  <path d="m9 20.5a2.5 2.5 0 0 1-2.5 2.5v1.5a4 4 0 0 0 4-4z" opacity=".15"/>
  <path d="m6.5 16.5a4 4 0 0 0-4 4 4 4 0 0 0 4 4v-1.5a2.5 2.5 0 0 1-2.5-2.5 2.5 2.5 0 0 1 2.5-2.5v-0.5z" opacity=".35"/>
 </g>
</svg>
