<svg version="1.1" viewBox="0 0 32 32" xmlns="http://www.w3.org/2000/svg">
 <defs>
  <style id="current-color-scheme" type="text/css">.ColorScheme-Text { color:#363636; }</style>
 </defs>
 <rect class="ColorScheme-Text" x="12.5" y="25" width="7" height="1" rx=".5" ry=".5" fill="currentColor" opacity=".45"/>
 <path class="ColorScheme-Text" d="m10.5 3c-1.385 0-2.5 1.115-2.5 2.5v21c0 1.385 1.115 2.5 2.5 2.5h11c1.385 0 2.5-1.115 2.5-2.5v-21c0-1.385-1.115-2.5-2.5-2.5zm0 1.5h1.5v0.5c0 0.277 0.223 0.5 0.5 0.5h7c0.277 0 0.5-0.223 0.5-0.5v-0.5h1.5c0.554 0 1 0.446 1 1v21c0 0.554-0.446 1-1 1h-11c-0.554 0-1-0.446-1-1v-21c0-0.554 0.446-1 1-1z" fill="currentColor"/>
 <path class="ColorScheme-Text" d="m16.5 8.5-4 8h3.5l-1 6 4.5-8h-3.5z" fill="currentColor"/>
</svg>
