<svg width="32" height="32" version="1.1" xmlns="http://www.w3.org/2000/svg">
 <style id="current-color-scheme" type="text/css">.ColorScheme-Text {
        color:#363636;
      }
      .ColorScheme-Background{
        color:#EFF0F1;
      }
      .ColorScheme-Highlight{
        color:#3DAEE6;
      }
      .ColorScheme-ViewText {
        color:#7B7C7E;
      }
      .ColorScheme-ViewBackground{
        color:#FCFCFC;
      }
      .ColorScheme-ViewHover {
        color:#3DAEE6;
      }
      .ColorScheme-ViewFocus{
        color:#1E92FF;
      }
      .ColorScheme-ButtonText {
        color:#7B7C7E;
      }
      .ColorScheme-ButtonBackground{
        color:#EFF0F1;
      }
      .ColorScheme-ButtonHover {
        color:#3DAEE6;
      }
      .ColorScheme-ButtonFocus{
        color:#1E92FF;
      }</style>
 <path class="ColorScheme-Text" d="m11 4c-1.385 0-2.5 1.115-2.5 2.5v2h-1c-1.939 0-3.5 1.561-3.5 3.5v9.5c0 1.939 1.561 3.5 3.5 3.5h1v1.5c0 1.385 1.115 2.5 2.5 2.5h10c1.385 0 2.5-1.115 2.5-2.5v-1.5h1c1.939 0 3.5-1.561 3.5-3.5v-9.5c0-1.939-1.561-3.5-3.5-3.5h-1v-2c0-1.385-1.115-2.5-2.5-2.5zm0 1.5h10c0.554 0 1 0.446 1 1v2h-12v-2c0-0.554 0.446-1 1-1zm-3.5 4.5h17c1.108 0 2 0.892 2 2v9.5c0 1.108-0.892 2-2 2h-1v-6c0-1.385-1.115-2.5-2.5-2.5h-10c-1.385 0-2.5 1.115-2.5 2.5v6h-1c-1.108 0-2-0.892-2-2v-9.5c0-1.108 0.892-2 2-2zm15 1.5c-0.55228 0-1 0.44772-1 1s0.44772 1 1 1 1-0.44772 1-1-0.44772-1-1-1zm-11.5 5h10c0.554 0 1 0.446 1 1v9c0 0.554-0.446 1-1 1h-10c-0.554 0-1-0.446-1-1v-9c0-0.554 0.446-1 1-1z" fill="currentColor"/>
</svg>
