<svg width="32" height="32" version="1.1" viewBox="0 0 32 32" xmlns="http://www.w3.org/2000/svg" xmlns:xlink="http://www.w3.org/1999/xlink">
 <defs>
  <style id="current-color-scheme" type="text/css">.ColorScheme-Text {
        color:#363636;
      }</style>
 </defs>
 <path class="ColorScheme-Text" fill="currentColor" d="m15.195 4.25c-1.8201-0.0014258-3.9152 0.52522-5.916 1.9746-1.7961 1.3011-2.508 1.6156-3.4082 2.0625a0.75008 0.75008 0 0 0 0.27734 1.4199c0.35345 0.026968 0.71687-0.012325 1.252-0.023437 0.53509-0.011113 1.1756-0.00506 1.7988 0.074219 0.62327 0.079284 1.2254 0.2342 1.6797 0.47852 0.22303 0.11994 0.30147 0.33633 0.45312 0.49609-1.5135 0.65454-2.6821 1.4581-3.2441 2.5273-0.68463 1.3025-0.53111 2.823 0.19531 4.2598 3.005e-4 5.95e-4 -3.007e-4 0.0014 0 2e-3 0.042488 0.08766 0.078487 0.14775 0.09375 0.17774a0.75008 0.75008 0 0 0 0.00781 0.01758c0.00883 0.0163 0.020502 0.03511 0.03125 0.05469 0.80626 1.5439 1.9497 2.4065 3.1738 3.0703s2.5331 1.1764 3.957 2.1289c2.351 1.5726 2.7935 2.2322 4.3418 4.457a0.75008 0.75008 0 0 0 1.3613-0.50591c-0.26265-2.5077-1.1619-5.1694-1.9102-7.1934 0.43782 0.21114 0.85499 0.46512 1.3164 0.62695h-0.0039c0.0427 0.01529 0.1018 0.03926 0.18164 0.06641 0.05301 0.01802 0.08784 0.02736 0.09961 0.03125-0.0034-0.0011 3e-3 1e-3 0.01172 0.0039 0.25955 0.08545 0.52405 0.16473 0.80274 0.23633 1.2528 0.33355 2.5827 0.52403 3.9941 0.625a0.75008 0.75008 0 0 0 0.48828-1.3594c-1.2149-0.86482-2.1828-1.5551-2.9941-2.1406-2.2462-1.6209-3.3152-2.4863-5.0977-3.9961 3.2377-0.9544 5.9241-3.8424 7.6094-6.0684a0.75008 0.75008 0 0 0-0.83985-1.1621c-2.425 0.8274-5.6274 1.638-9.1055 2.6309-0.01352-0.037678-0.02768-0.071716-0.04101-0.11133-0.21208-0.62999-0.24387-1.1689 0.044917-1.5645 0.28879-0.39554 1.0955-0.87271 3.0566-0.94727a0.75008 0.75008 0 0 0 0.32812-1.4102c-1.0003-0.54276-2.3904-0.9382-3.9961-0.93945zm0 1.5c0.21119 1.654e-4 0.31004 0.10306 0.51172 0.11914-0.42443 0.2317-0.86296 0.45278-1.1113 0.79297-0.6908 0.94616-0.54183 2.0802-0.25586 2.9297 0.04183 0.12426 0.08845 0.24933 0.14062 0.37695 0.05055 0.12364 0.10176 0.24141 0.15234 0.34961 0.02943 0.06295 0.05317 0.10762 0.06836 0.13867a0.75008 0.75008 0 0 0 0.88281 0.39062c2.7308-0.79183 4.9406-1.4175 7.1582-2.0723-1.7294 1.854-3.769 3.6415-5.9238 3.9199-1.6069 0.20759-3.2315 0.18974-4.6543 0.45703-0.71138 0.13365-1.3853 0.34136-1.9668 0.74023-0.47419 0.32527-0.78374 0.87142-1.0371 1.4492-0.04522-0.50014 0.031989-0.95887 0.25586-1.3848 0.42905-0.81624 1.4527-1.6309 3.3281-2.252a0.75008 0.75008 0 0 0 0.46875-0.9668c-0.30484-0.8468-0.9285-1.4488-1.623-1.8223-0.69455-0.37351-1.4639-0.5527-2.2012-0.64648-0.20534-0.026121-0.3638-0.0094932-0.5625-0.023438 0.46888-0.28999 0.64783-0.311 1.332-0.80664 1.7398-1.2603 3.5032-1.6907 5.0371-1.6895zm-1.375 8.7441a0.75008 0.75008 0 0 0 2e-3 0.09375c0.12508 0.20851 0.25036 0.40124 0.37305 0.58789 0.44519 0.77301 0.72626 1.6335 0.74219 2.3027 0.01592 0.66921-0.1471 1.0744-0.63281 1.3613-0.03458 0.02042-0.07807 0.0432-0.12695 0.06641-0.13417 0.0637-0.29546 0.11923-0.49219 0.16016-0.99068 0.2061-1.9708-0.12446-2.6211-0.72266s-0.95492-1.3923-0.70117-2.248c0.14093-0.47527 0.35527-0.74158 0.68359-0.9668 0.32833-0.22522 0.79879-0.39003 1.3945-0.50195 0.35961-0.06756 0.94712-0.09436 1.3789-0.13281zm3.168 0.33008c1.9207 1.6314 3.0275 2.5192 5.3691 4.209 0.11884 0.08576 0.31184 0.22212 0.4375 0.3125-0.21003-0.04664-0.4625-0.04925-0.66602-0.10352a0.75008 0.75008 0 0 0-0.0059-2e-3c-0.24161-0.06207-0.47512-0.13198-0.70898-0.20898a0.75008 0.75008 0 0 0-2e-3 0c0.0044 0.0014 2e-3 -4.9e-5 -0.0098-0.0039-0.04909-0.01622-0.07637-0.02476-0.08398-0.02734-0.03519-0.01196-0.09044-0.03292-0.16211-0.05859a0.75008 0.75008 0 0 0-0.0039 0c-0.77913-0.27327-1.5075-0.61636-2.1934-1.0449a0.75008 0.75008 0 0 0-0.02539-0.01563c-0.191-0.10872-0.36457-0.20502-0.55078-0.31641a0.75008 0.75008 0 0 0-1.082 0.92188c0.45536 1.143 1.1503 3.2433 1.7246 5.3906-0.67335-0.70809-1.4445-1.3509-2.6426-2.1523-0.87478-0.58515-1.5261-0.8579-2.2754-1.2285 0.25232-0.06054 0.49729-0.13108 0.71484-0.23438 0.08026-0.03811 0.16115-0.07989 0.24414-0.12891 0.98372-0.58105 1.3956-1.6616 1.3711-2.6895-0.02067-0.86879-0.38414-1.7297-0.79492-2.5508 0.29072-0.01445 0.62104-0.03235 1.3457-0.06836z"/>
</svg>
