<?xml version="1.0" encoding="UTF-8" standalone="no"?>
<svg
   width="64"
   height="64"
   viewBox="0 0 16.933 16.933"
   version="1.1"
   id="svg4883"
   sodipodi:docname="material-images.svg"
   inkscape:version="1.3 (1:1.3+202307231459+0e150ed6c4)"
   xmlns:inkscape="http://www.inkscape.org/namespaces/inkscape"
   xmlns:sodipodi="http://sodipodi.sourceforge.net/DTD/sodipodi-0.dtd"
   xmlns="http://www.w3.org/2000/svg"
   xmlns:svg="http://www.w3.org/2000/svg">
  <sodipodi:namedview
     id="namedview4885"
     pagecolor="#505050"
     bordercolor="#eeeeee"
     borderopacity="1"
     inkscape:showpageshadow="0"
     inkscape:pageopacity="0"
     inkscape:pagecheckerboard="0"
     inkscape:deskcolor="#505050"
     showgrid="false"
     inkscape:zoom="9.8203727"
     inkscape:cx="22.402409"
     inkscape:cy="34.723733"
     inkscape:window-width="1920"
     inkscape:window-height="1048"
     inkscape:window-x="1920"
     inkscape:window-y="0"
     inkscape:window-maximized="1"
     inkscape:current-layer="svg4883" />
  <defs
     id="defs4863">
    <linearGradient
       id="a"
       x1="6.879"
       x2="6.879"
       y1="285.36"
       y2="283.77"
       gradientTransform="translate(0 -280.06) scale(.99998)"
       gradientUnits="userSpaceOnUse">
      <stop
         offset="0"
         id="stop4832" />
      <stop
         stop-opacity="0"
         offset="1"
         id="stop4834" />
    </linearGradient>
    <linearGradient
       id="b"
       x1="445.28"
       x2="445.28"
       y1="179.28"
       y2="200.07"
       gradientTransform="matrix(.38956 0 0 .38184 -165.52 -63.44)"
       gradientUnits="userSpaceOnUse">
      <stop
         stop-color="#60c0f0"
         offset="0"
         id="stop4837" />
      <stop
         stop-color="#83d4fb"
         offset="1"
         id="stop4839" />
    </linearGradient>
    <linearGradient
       id="c"
       x1="8.467"
       x2="8.467"
       y1="293.3"
       y2="292.77"
       gradientTransform="translate(0 -280.07)"
       gradientUnits="userSpaceOnUse">
      <stop
         stop-color="#008ea2"
         stop-opacity=".25"
         offset="0"
         id="stop4842" />
      <stop
         stop-color="#fff"
         stop-opacity=".15"
         offset="1"
         id="stop4844" />
    </linearGradient>
    <linearGradient
       id="d"
       x1="8.467"
       x2="8.467"
       y1="294.62"
       y2="293.56"
       gradientTransform="translate(0 -280.06) scale(.99998)"
       gradientUnits="userSpaceOnUse">
      <stop
         stop-color="#008ea2"
         stop-opacity=".251"
         offset="0"
         id="stop4847" />
      <stop
         stop-color="#008ea2"
         stop-opacity=".15"
         offset=".757"
         id="stop4849" />
      <stop
         stop-color="#fff"
         stop-opacity=".15"
         offset="1"
         id="stop4851" />
    </linearGradient>
    <linearGradient
       id="e"
       x1="1.058"
       x2="15.875"
       y1="289.59"
       y2="289.59"
       gradientTransform="translate(0 -280.07)"
       gradientUnits="userSpaceOnUse">
      <stop
         stop-color="#46a2d7"
         stop-opacity=".5"
         offset="0"
         id="stop4854" />
      <stop
         stop-color="#46a2d7"
         stop-opacity="0"
         offset=".108"
         id="stop4856" />
      <stop
         stop-color="#46a2d7"
         stop-opacity=".096"
         offset=".894"
         id="stop4858" />
      <stop
         stop-color="#46a2d7"
         stop-opacity=".5"
         offset="1"
         id="stop4860" />
    </linearGradient>
    <linearGradient
       id="linearGradient5852"
       x1="19.306999"
       x2="19.306999"
       y1="24.990999"
       y2="15.954"
       gradientUnits="userSpaceOnUse"
       gradientTransform="matrix(0.38381141,0,0,0.38381141,19.735008,-3.6254232)">
      <stop
         stop-color="#009ef8"
         offset="0"
         id="stop7492"
         style="stop-color:#0099e6;stop-opacity:1;" />
      <stop
         stop-color="#27affa"
         offset="1"
         id="stop7494"
         style="stop-color:#037bb9;stop-opacity:1;" />
    </linearGradient>
    <linearGradient
       id="linearGradient1769-9"
       x1="445.28"
       x2="445.28"
       y1="179.28"
       y2="200.07001"
       gradientTransform="matrix(0.38803334,0,0,0.38034944,-141.28924,-63.06246)"
       gradientUnits="userSpaceOnUse">
      <stop
         stop-color="#3ab8fb"
         offset="0"
         id="stop7487"
         style="stop-color:#47beff;stop-opacity:1;" />
      <stop
         stop-color="#60c4fb"
         offset="1"
         id="stop7489"
         style="stop-color:#87cefb;stop-opacity:1;" />
    </linearGradient>
  </defs>
  <g
     id="g2"
     transform="translate(16.663619,0.26356598)">
    <rect
       style="opacity:0.2;stroke-width:0.264578"
       width="14.816375"
       height="9.5248127"
       x="-15.621273"
       y="5.4984565"
       rx="0.74081874"
       ry="0.74081874"
       id="rect1" />
    <path
       style="fill:#4877b1;stroke-width:0.264578"
       d="m -15.621274,11.901247 c 0,0.41036 0.330406,0.740818 0.740819,0.740818 h 13.3347378 c 0.4103607,0 0.74081878,-0.330458 0.74081878,-0.740818 V 3.8580719 c 0,-0.4103607 -0.33045808,-0.7408187 -0.74081878,-0.7408187 h -6.6673686 c -1.1112281,0 -1.4816374,-1.5874688 -2.5928662,-1.5874688 h -4.074503 c -0.410413,0 -0.740819,0.3304052 -0.740819,0.7408188"
       id="path1" />
    <rect
       style="opacity:0.2;stroke-width:0.264578"
       width="14.816375"
       height="9.5248127"
       x="-15.621273"
       y="4.9693003"
       rx="0.74081874"
       ry="0.74081874"
       id="rect2" />
    <rect
       style="fill:#e4e4e4;stroke-width:0.264578"
       width="12.69975"
       height="5.8207188"
       x="-14.562961"
       y="3.9109876"
       rx="0.74081874"
       ry="0.74081874"
       id="rect3" />
    <rect
       style="fill:#5294e2;stroke-width:0.264578"
       width="14.816375"
       height="9.5248127"
       x="-15.621273"
       y="5.2338781"
       rx="0.74081874"
       ry="0.74081874"
       id="rect4" />
    <path
       style="opacity:0.1;fill:#ffffff;stroke-width:0.264578"
       d="m -14.880243,1.5297844 c -0.410414,0 -0.741031,0.3306169 -0.741031,0.7410304 v 0.2646311 c 0,-0.4104665 0.330617,-0.7410833 0.741031,-0.7410833 h 4.074027 c 1.1112282,0 1.4819021,1.5874687 2.5931302,1.5874687 h 6.6671041 c 0.4103606,0 0.74108328,0.3307226 0.74108328,0.7410833 V 3.8583365 c 0,-0.4103607 -0.33072268,-0.7410833 -0.74108328,-0.7410833 h -6.6671041 c -1.1112281,0 -1.481902,-1.5874688 -2.5931302,-1.5874688 z"
       id="path4" />
  </g>
  <path
     class="ColorScheme-Text"
     d="m 5.7635329,7.4394615 c -0.496,0 -0.895,0.399 -0.895,0.895 v 4.0299995 c 0,0.496 0.399,0.895 0.895,0.895 h 5.3730001 c 0.496,0 0.896,-0.4 0.896,-0.895 V 8.3344615 c 0,-0.496 -0.4,-0.895 -0.896,-0.895 z m 0,0.447 h 5.3730001 c 0.248,0 0.448,0.2 0.448,0.448 v 4.0299995 l -2.2390001,-2.239 -1.558,1.791 -1.128,-0.895 -1.344,1.343 V 8.3344615 c 0,-0.248 0.2,-0.448 0.448,-0.448 z m 1.12,0.896 a 0.672,0.672 0 1 0 0,1.3429995 0.672,0.672 0 0 0 0,-1.3429995 z"
     color="#363636"
     opacity="0.15"
     id="path4881" />
</svg>
