<svg xmlns="http://www.w3.org/2000/svg" viewBox="0 0 16 16">
  <defs id="defs3051">
    <style type="text/css" id="current-color-scheme">
      .ColorScheme-Text {
        color:#363636;
      }
      </style>
  </defs>
    <path
       style="fill:currentColor"
       d="M 4.5722656 1 C 4.4562656 1 4.36275 1.0834531 4.34375 1.1894531 L 4.171875 2.3828125 C 3.889875 2.4978125 3.6276719 2.6442187 3.3886719 2.8242188 L 2.2363281 2.3730469 C 2.1323281 2.3350469 2.0130781 2.3737031 1.9550781 2.4707031 L 1.0292969 4.0292969 C 0.97129684 4.1262969 0.9989375 4.2464062 1.0859375 4.3164062 L 2.0605469 5.0625 C 2.0415469 5.2065 2.0292969 5.3529531 2.0292969 5.5019531 C 2.0292969 5.6499531 2.0425469 5.7954531 2.0605469 5.9394531 L 1.0859375 6.6855469 C 0.9979375 6.7525469 0.97129686 6.8736563 1.0292969 6.9726562 L 1.9550781 8.53125 C 2.0130781 8.62825 2.1323281 8.6689063 2.2363281 8.6289062 L 3.3886719 8.1777344 C 3.6266719 8.3557344 3.889875 8.5041406 4.171875 8.6191406 L 4.34375 9.8125 C 4.36275 9.9185 4.4562656 10.001953 4.5722656 10.001953 L 6.4238281 10.001953 C 6.5398281 10.001953 6.6333437 9.9185 6.6523438 9.8125 L 6.8242188 8.6191406 C 7.1062188 8.5041406 7.3684219 8.3577344 7.6074219 8.1777344 L 8.7597656 8.6289062 C 8.8637656 8.6669064 8.9830156 8.62825 9.0410156 8.53125 L 9.9667969 6.9726562 C 10.024797 6.8756563 9.9971563 6.7555469 9.9101562 6.6855469 L 8.9355469 5.9394531 C 8.9545469 5.7954531 8.9667969 5.6509531 8.9667969 5.5019531 C 8.9667969 5.3529531 8.9535469 5.2065 8.9355469 5.0625 L 9.9121094 4.3164062 C 10.000109 4.2494062 10.02675 4.1282969 9.96875 4.0292969 L 9.0429688 2.4707031 C 8.9849688 2.3737031 8.8657187 2.3330469 8.7617188 2.3730469 L 7.609375 2.8242188 C 7.371375 2.6462186 7.1081719 2.4978125 6.8261719 2.3828125 L 6.6542969 1.1894531 C 6.6332969 1.0834531 6.5388281 1 6.4238281 1 L 4.5722656 1 z M 5.4980469 3.9257812 C 6.3930469 3.9257812 7.1171875 4.6309531 7.1171875 5.5019531 C 7.1171875 6.3729531 6.3930469 7.0761719 5.4980469 7.0761719 C 4.6030469 7.0761719 3.8808594 6.3729531 3.8808594 5.5019531 C 3.8808594 4.6309531 4.6030469 3.9257812 5.4980469 3.9257812 z M 10.619141 8.0058594 C 10.535141 7.9848594 10.451922 8.0304688 10.419922 8.1054688 L 10.085938 8.9550781 C 9.861937 8.9890781 9.6454063 9.0545312 9.4414062 9.1445312 L 8.6875 8.6035156 C 8.6185 8.5565156 8.5257969 8.5620469 8.4667969 8.6230469 L 7.5234375 9.6113281 C 7.4644375 9.6723281 7.4616719 9.7689375 7.5136719 9.8359375 L 8.0898438 10.560547 C 8.0508438 10.663547 8.0162344 10.770859 7.9902344 10.880859 C 7.9642344 10.990859 7.9485 11.099936 7.9375 11.210938 L 7.0996094 11.587891 C 7.0236094 11.621891 6.9857656 11.705064 7.0097656 11.789062 L 7.4042969 13.109375 C 7.4302969 13.191375 7.5097969 13.241469 7.5917969 13.230469 L 8.5058594 13.103516 C 8.6468594 13.277516 8.8081875 13.435314 8.9921875 13.570312 L 8.9101562 14.484375 C 8.9051563 14.565375 8.9589688 14.643064 9.0429688 14.664062 L 10.382812 14.996094 C 10.466812 15.017094 10.548078 14.972437 10.580078 14.898438 L 10.916016 14.046875 C 11.140016 14.012875 11.354594 13.949375 11.558594 13.859375 L 12.3125 14.400391 C 12.3815 14.447391 12.474203 14.439906 12.533203 14.378906 L 13.476562 13.390625 C 13.535563 13.328625 13.538328 13.234969 13.486328 13.167969 L 12.910156 12.439453 C 12.949156 12.336453 12.983766 12.231094 13.009766 12.121094 C 13.035766 12.011094 13.0515 11.900016 13.0625 11.791016 L 13.902344 11.414062 C 13.978344 11.380063 14.016188 11.296891 13.992188 11.212891 L 13.597656 9.8925781 C 13.572656 9.8115781 13.492156 9.7604844 13.410156 9.7714844 L 12.496094 9.8984375 C 12.355094 9.7244375 12.193766 9.5676406 12.009766 9.4316406 L 12.091797 8.5175781 C 12.095797 8.4355781 12.041031 8.3578906 11.957031 8.3378906 L 10.619141 8.0058594 z M 10.296875 10.314453 C 10.451047 10.290234 10.613391 10.295938 10.775391 10.335938 C 11.423391 10.495938 11.823875 11.145064 11.671875 11.789062 C 11.518875 12.433064 10.870656 12.824063 10.222656 12.664062 C 9.5746564 12.504064 9.1741719 11.854936 9.3261719 11.210938 C 9.4409219 10.727937 9.8343594 10.387109 10.296875 10.314453 z "
       class="ColorScheme-Text" />
</svg>
