<svg width="16" height="16" version="1.1" viewBox="0 0 16 16" xmlns="http://www.w3.org/2000/svg">
 <defs>
  <style id="current-color-scheme" type="text/css">.ColorScheme-Text { color:#363636; }</style>
 </defs>
 <path d="m2 2c-1.108 0-2 0.892-2 2v8c0 1.108 0.892 2 2 2h12c1.108 0 2-0.892 2-2v-8c0-1.108-0.892-2-2-2h-12zm0 1h12c0.51591 0 0.92289 0.39198 0.97852 0.89258l-6.9746 4.0254-6.9805-4.0312c0.058403-0.49759 0.46278-0.88672 0.97656-0.88672zm-1 2.0293 6.6875 3.8613c0.015553 0.012275 0.034033 0.01906 0.050781 0.029297l0.021484 0.011719c0.0044445 0.0025661 0.009184 0.0034432 0.013672 0.0058594 0.046694 0.02369 0.094899 0.040703 0.14648 0.048828 0.028475 0.005387 0.055425 0.0054509 0.083984 0.0058594 0.028559-4.085e-4 0.055509-4.724e-4 0.083984-0.0058594 0.051585-0.0081252 0.09979-0.025138 0.14648-0.048828 0.0044879-0.0024162 0.0092274-0.0032933 0.013672-0.0058594l0.021484-0.011719c0.016748-0.010236 0.035228-0.017022 0.050781-0.029297l6.6797-3.8574v6.9668c0 0.554-0.446 1-1 1h-12c-0.554 0-1-0.446-1-1v-6.9707z" style="fill:currentColor" class="ColorScheme-Text"/>
</svg>
