<svg xmlns="http://www.w3.org/2000/svg" viewBox="0 0 16 16">
  <defs id="defs3051">
    <style type="text/css" id="current-color-scheme">
      .ColorScheme-Text {
        color:#363636;
      }
      </style>
  </defs>
    <path
       style="fill:currentColor"
       d="M 13.996094 3.6542969 L 6.9960938 3.6582031 L 4.5546875 10.349609 L 3 7.6542969 L 2 7.6542969 L 2 8.6542969 L 2.4277344 8.6542969 L 4.5605469 12.347656 L 7.5800781 4.6542969 L 14.001953 4.6542969 L 13.996094 3.6542969 z M 9.9960938 5.6542969 C 8.3340937 5.6542969 6.9960938 6.9922969 6.9960938 8.6542969 C 6.9960938 10.316297 8.3340938 11.654297 9.9960938 11.654297 C 10.769094 11.654297 11.465094 11.355906 11.996094 10.878906 L 11.996094 11.654297 L 12.996094 11.654297 L 12.996094 5.6542969 L 11.996094 5.6542969 L 11.996094 6.4296875 C 11.465094 5.9526875 10.769094 5.6542969 9.9960938 5.6542969 z M 9.9960938 6.6542969 C 11.104094 6.6542969 11.996094 7.5462969 11.996094 8.6542969 C 11.996094 9.7622969 11.104094 10.654297 9.9960938 10.654297 C 8.8880937 10.654297 7.9960938 9.7622969 7.9960938 8.6542969 C 7.9960938 7.5462969 8.8880937 6.6542969 9.9960938 6.6542969 z "
       class="ColorScheme-Text" />
</svg>
