<svg xmlns="http://www.w3.org/2000/svg" viewBox="0 0 16 16">
  <defs id="defs3051">
    <style type="text/css" id="current-color-scheme">
      .ColorScheme-Text {
        color:#363636;
      }
      </style>
  </defs>
    <path
       style="fill:#eb0a42"
       d="M 1.8378906 2.0683594 L 1.8378906 14.068359 L 13.837891 14.068359 L 13.837891 2.0683594 L 1.8378906 2.0683594 z M 2.8378906 3.0683594 L 12.837891 3.0683594 L 12.837891 13.068359 L 2.8378906 13.068359 L 2.8378906 3.0683594 z M 3.8378906 5.0683594 L 3.8378906 7.0683594 L 5.8378906 7.0683594 L 5.8378906 5.0683594 L 3.8378906 5.0683594 z M 9.8378906 5.0683594 L 9.8378906 7.0683594 L 11.837891 7.0683594 L 11.837891 5.0683594 L 9.8378906 5.0683594 z M 5.8378906 9.0683594 L 5.8378906 10.068359 L 9.8378906 10.068359 L 9.8378906 9.0683594 L 5.8378906 9.0683594 z M 9.8378906 10.068359 L 9.8378906 11.068359 L 10.837891 11.068359 L 10.837891 10.068359 L 9.8378906 10.068359 z M 10.837891 11.068359 L 10.837891 12.068359 L 11.837891 12.068359 L 11.837891 11.068359 L 10.837891 11.068359 z M 5.8378906 10.068359 L 4.8378906 10.068359 L 4.8378906 11.068359 L 5.8378906 11.068359 L 5.8378906 10.068359 z M 4.8378906 11.068359 L 3.8378906 11.068359 L 3.8378906 12.068359 L 4.8378906 12.068359 L 4.8378906 11.068359 z "
       />
</svg>
