<svg version="1.1" viewBox="0 0 16 16" xmlns="http://www.w3.org/2000/svg">
 <defs>
  <style id="current-color-scheme" type="text/css">.ColorScheme-Text {
        color:#363636;
      }</style>
 </defs>
 <path class="ColorScheme-Text" d="m7 0c-1.108 0-2 0.892-2 2v1h-2.154a1.84 1.84 0 0 0-1.846 1.846v3.154h2c0.554 0 1 0.446 1 1s-0.446 1-1 1h-2v3.154c0 1.023 0.823 1.846 1.846 1.846h3.154v-2c0-0.554 0.446-1 1-1s1 0.446 1 1v2h3.154a1.84 1.84 0 0 0 1.846-1.846v-2.154h1c1.108 0 2-0.892 2-2s-0.892-2-2-2h-1v-2.154a1.84 1.84 0 0 0-1.846-1.846h-2.154v-1c0-1.108-0.892-2-2-2m0 1c0.554 0 1 0.446 1 1v2h3c0.554 0 1 0.446 1 1v3h2c0.554 0 1 0.446 1 1s-0.446 1-1 1h-2v3c0 0.554-0.446 1-1 1h-2v-1c0-1.108-0.892-2-2-2s-2 0.892-2 2v1h-2c-0.554 0-1-0.446-1-1v-2h1c1.108 0 2-0.892 2-2s-0.892-2-2-2h-1v-2c0-0.554 0.446-1 1-1h3v-2c0-0.554 0.446-1 1-1" fill="currentColor"/>
</svg>
