<svg xmlns="http://www.w3.org/2000/svg" viewBox="0 0 16 16">
  <defs id="defs3051">
    <style type="text/css" id="current-color-scheme">
      .ColorScheme-Text {
        color:#363636;
      }
      </style>
  </defs>
    <path
       style="fill:currentColor"
       d="M 6.7734375 2.3125 C 6.2223411 2.435014 5.6771217 2.6040704 5.1660156 2.8613281 C 5.1777042 3.3126386 5.2064784 3.746304 5.265625 4.1855469 C 5.0671351 4.3127146 4.8592224 4.421445 4.6738281 4.5703125 C 4.4854574 4.7152296 4.291661 4.8539526 4.1210938 5.0234375 C 3.7803384 4.798053 3.4203743 4.5854012 3.0488281 4.3984375 C 2.6483307 4.829455 2.2746561 5.2958299 1.96875 5.8164062 C 2.2091597 6.19378 2.4662716 6.5733477 2.7050781 6.8691406 L 2.7050781 9.4394531 L 2.7050781 9.765625 L 2.7050781 10.0625 C 2.7109181 10.062552 2.7168652 10.063912 2.7226562 10.064453 L 4.6816406 10.253906 C 4.7842406 10.263806 4.8639506 10.346404 4.8710938 10.449219 L 4.9316406 11.3125 L 6.640625 11.435547 L 6.7578125 10.636719 C 6.7730725 10.533253 6.8621406 10.457031 6.9667969 10.457031 L 9.0332031 10.457031 C 9.1378052 10.457031 9.2269273 10.533252 9.2421875 10.636719 L 9.359375 11.435547 L 11.068359 11.3125 L 11.128906 10.449219 C 11.136106 10.346402 11.215759 10.263863 11.318359 10.253906 L 13.277344 10.064453 C 13.283144 10.063912 13.289082 10.062553 13.294922 10.0625 L 13.294922 9.8085938 L 13.294922 6.8691406 C 13.570738 6.52192 13.831148 6.1386435 14.03125 5.8164062 C 13.725452 5.2958301 13.351669 4.829455 12.951172 4.3984375 C 12.579733 4.5854012 12.219662 4.798053 11.878906 5.0234375 C 11.708395 4.8539526 11.514814 4.7152297 11.326172 4.5703125 C 11.140832 4.4214451 10.932486 4.3127146 10.734375 4.1855469 C 10.793359 3.746304 10.822241 3.3126388 10.833984 2.8613281 C 10.322823 2.6040707 9.7779296 2.435014 9.2265625 2.3125 C 9.006427 2.6824771 8.8061886 3.0829327 8.6308594 3.4746094 C 8.4229536 3.4398684 8.2130566 3.4263174 8.0039062 3.4238281 C 8.0024463 3.4238281 8.00124 3.4238281 8 3.4238281 C 7.9987 3.4238281 7.9973937 3.4238281 7.9960938 3.4238281 C 7.7865611 3.4263174 7.5771005 3.4398684 7.3691406 3.4746094 C 7.1939196 3.0829327 6.9938976 2.6824771 6.7734375 2.3125 z M 5.2226562 6.9863281 C 5.8746209 6.9863281 6.4042969 7.5142673 6.4042969 8.1660156 C 6.4042969 8.8181969 5.8746209 9.3457034 5.2226562 9.3457031 C 4.571016 9.3457031 4.0429688 8.8181969 4.0429688 8.1660156 C 4.0429688 7.5142673 4.5710161 6.9863281 5.2226562 6.9863281 z M 10.777344 6.9863281 C 11.42893 6.9863281 11.957031 7.5142673 11.957031 8.1660156 C 11.957031 8.8181969 11.42893 9.3457031 10.777344 9.3457031 C 10.125271 9.3457032 9.5957031 8.8181969 9.5957031 8.1660156 C 9.5957031 7.5142673 10.125271 6.9863281 10.777344 6.9863281 z M 2.7011719 10.486328 C 2.7019831 10.675618 2.7050781 10.882539 2.7050781 10.923828 C 2.7050781 12.783941 5.0644169 13.677218 7.9960938 13.6875 L 8 13.6875 L 8.0039062 13.6875 C 10.935583 13.67722 13.294922 12.783941 13.294922 10.923828 C 13.294922 10.881778 13.295975 10.675727 13.296875 10.486328 L 11.537109 10.65625 L 11.476562 11.525391 C 11.469262 11.630155 11.386015 11.713181 11.28125 11.720703 L 9.1953125 11.869141 C 9.1902225 11.869519 9.1847205 11.869141 9.1796875 11.869141 C 9.0760053 11.869141 8.9860174 11.793573 8.9707031 11.689453 L 8.8515625 10.878906 L 7.1484375 10.878906 L 7.0292969 11.689453 C 7.0132249 11.798655 6.9146471 11.877204 6.8046875 11.869141 L 4.71875 11.720703 C 4.6139854 11.713181 4.530743 11.630155 4.5234375 11.525391 L 4.4628906 10.65625 L 2.7011719 10.486328 z "
       class="ColorScheme-Text" />
</svg>
