<svg xmlns="http://www.w3.org/2000/svg" viewBox="0 0 16 16">
  <defs id="defs3051">
    <style type="text/css" id="current-color-scheme">
      .ColorScheme-Text {
        color:#363636;
      }
      </style>
  </defs>
    <path
       style="fill:currentColor"
       d="M 7 2 L 4 2 L 4 5 L 5 5 L 5 6.6 A 1.5 1.5 0 0 0 4 8.1 A 1.5 1.5 0 0 0 5 9.5 L 5 11 L 4 11 L 4 14 L 7 14 L 7 12.2 A 7 6 0 0 0 12 14 L 12 13 A 6 5 0 0 1 6.2 9.4 A 1.5 1.5 0 0 0 7 8.1 A 1.5 1.5 0 0 0 6.2 6.7 A 6 5 0 0 1 12 3 L 12 2 A 7 6 0 0 0 7 3.8 L 7 2 z M 5 3 L 6 3 L 6 4 L 5 4 L 5 3 z M 5 12 L 6 12 L 6 13 L 5 13 L 5 12 z "
       class="ColorScheme-Text" />
</svg>
