<svg xmlns="http://www.w3.org/2000/svg" viewBox="0 0 16 16">
  <defs id="defs3051">
    <style type="text/css" id="current-color-scheme">
      .ColorScheme-Text {
        color:#363636;
      }
      </style>
  </defs>
    <path
       style="fill:#3bad7e"
       d="M 6.9882812 2 C 7.2954638 2.1311015 7.5524294 2.3668906 7.7441406 2.7070312 L 9.1132812 5.1445312 L 8.2558594 5.6425781 L 11.03125 5.6816406 L 12.388672 3.1914062 L 11.544922 3.703125 L 10.763672 2.3417969 C 10.635254 2.1188308 10.41827 2 10.136719 2 L 6.9882812 2 z M 6.2597656 2.1171875 C 5.7739488 2.1171875 5.3776086 2.3543005 5.1347656 2.7871094 L 3.9707031 4.84375 L 6.4140625 6.296875 L 7.9238281 3.625 L 7.4882812 2.8769531 C 7.1943065 2.3666083 6.7841599 2.1171875 6.2597656 2.1171875 z M 12.65625 5.7070312 L 10.212891 7.1347656 L 11.722656 9.8085938 L 12.566406 9.8085938 C 12.834357 9.8085936 13.104641 9.7421086 13.296875 9.6367188 C 13.705797 9.4011645 14 8.9034183 14 8.4316406 C 14 8.1956848 13.935783 7.9733806 13.820312 7.7636719 L 12.65625 5.7070312 z M 4.7890625 6.3105469 L 2 6.3632812 L 2.8574219 6.8613281 L 2.0898438 8.2363281 C 2.0387126 8.327925 2 8.4735512 2 8.5917969 C 2 8.7099088 2.038581 8.8403116 2.0898438 8.9316406 L 3.6894531 11.748047 C 3.6768991 11.656718 3.6757813 11.590894 3.6757812 11.539062 C 3.6757812 11.315964 3.7783553 10.961849 3.90625 10.726562 L 5.2753906 8.3027344 L 6.1445312 8.8125 L 4.7890625 6.3105469 z M 9.8535156 9.0996094 L 8.421875 11.550781 L 9.8535156 14 L 9.8535156 12.992188 L 11.351562 12.992188 C 11.620169 12.992188 11.850622 12.861237 11.978516 12.638672 L 13.564453 9.8085938 C 13.295979 10.017766 12.97522 10.123047 12.591797 10.123047 L 9.8535156 10.123047 L 9.8535156 9.0996094 z M 4.609375 10.097656 L 4.2011719 10.84375 C 4.0732771 11.066315 3.9824219 11.419198 3.9824219 11.628906 C 3.9824219 12.375609 4.5833172 12.992187 5.3125 12.992188 L 7.6425781 12.992188 L 7.6425781 10.097656 L 4.609375 10.097656 z "
       />
</svg>
