<svg xmlns="http://www.w3.org/2000/svg" viewBox="0 0 16 16">
  <defs id="defs3051">
    <style type="text/css" id="current-color-scheme">
      .ColorScheme-Text {
        color:#363636;
      }
      </style>
  </defs>
    <path
       style="fill:#9bd916"
       d="M 2.4980469 1.9882812 A 0.50005 0.50005 0 0 0 2.1503906 2.8457031 L 3.4277344 4.1230469 A 5.999991 5.999991 0 0 0 2 8 L 2 14 L 14 14 L 14 8 A 5.999991 5.999991 0 0 0 12.582031 4.125 L 13.861328 2.8457031 A 0.50012 0.50005 0 0 0 13.498047 1.9882812 A 0.50012 0.50005 0 0 0 13.154297 2.1386719 L 11.869141 3.4238281 A 5.999991 5.999991 0 0 0 8 2 A 5.999991 5.999991 0 0 0 4.1308594 3.4121094 L 2.8574219 2.1386719 A 0.50005 0.50005 0 0 0 2.4980469 1.9882812 z M 8 3 A 5 5 0 0 1 13 8 L 3 8 A 5 5 0 0 1 8 3 z M 6 5 A 1 1 0 0 0 5 6 A 1 1 0 0 0 6 7 A 1 1 0 0 0 7 6 A 1 1 0 0 0 6 5 z M 10 5 A 1 1 0 0 0 9 6 A 1 1 0 0 0 10 7 A 1 1 0 0 0 11 6 A 1 1 0 0 0 10 5 z M 3 9 L 7 9 L 7 10 L 8 10 L 8 11 L 9 11 L 9 9 L 13 9 L 13 13 L 3 13 L 3 9 z M 8 11 L 7 11 L 7 12 L 8 12 L 8 11 z "
       />
</svg>
