<svg xmlns="http://www.w3.org/2000/svg" viewBox="0 0 16 16">
  <defs id="defs3051">
    <style type="text/css" id="current-color-scheme">
      .ColorScheme-Text {
        color:#363636;
      }
      </style>
  </defs>
    <path
       style="fill:#f89406"
       d="M 1.9960938 1.9980469 L 2 2 L 2 4 C 7.523 4 12 8.477 12 14 L 14 14 L 14 13.9375 C 14 13.5465 13.9745 13.16225 13.9375 12.78125 C 13.9355 12.76025 13.9395 12.73975 13.9375 12.71875 C 13.8985 12.33775 13.822047 11.96275 13.748047 11.59375 C 13.744047 11.57375 13.752047 11.549297 13.748047 11.529297 C 13.512047 10.372297 13.105547 9.2872969 12.560547 8.2792969 C 12.556547 8.2712969 12.564547 8.2550469 12.560547 8.2480469 C 11.081547 5.5240469 8.5775469 3.4502969 5.5605469 2.5292969 C 5.2035469 2.4182969 4.8367969 2.3250469 4.4667969 2.2480469 C 4.4467969 2.2440469 4.4242969 2.2520469 4.4042969 2.2480469 C 4.0332969 2.1720469 3.6612969 2.1015469 3.2792969 2.0605469 C 3.2582969 2.0585469 3.2377969 2.0625469 3.2167969 2.0605469 C 2.8337969 2.0215469 2.4525469 2.0010469 2.0605469 1.9980469 L 1.9960938 1.9980469 z M 1.9960938 5.9980469 L 1.9960938 7.9980469 C 5.3100938 7.9980469 7.9960938 10.684047 7.9960938 13.998047 L 9.9960938 13.998047 C 9.9960938 9.5800469 6.4140937 5.9980469 1.9960938 5.9980469 z M 3.9960938 9.9980469 C 2.8910938 9.9980469 1.9960937 10.893047 1.9960938 11.998047 C 1.9960938 13.103047 2.8910938 13.998047 3.9960938 13.998047 C 5.1010938 13.998047 5.9960938 13.103047 5.9960938 11.998047 C 5.9960938 10.893047 5.1010937 9.9980469 3.9960938 9.9980469 z "
       />
</svg>
