<svg xmlns="http://www.w3.org/2000/svg" viewBox="0 0 16 16">
  <defs id="defs3051">
    <style type="text/css" id="current-color-scheme">
      .ColorScheme-Text {
        color:#363636;
      }
      </style>
  </defs>
    <path
       style="fill:currentColor"
       d="M 7.9785156 1.9980469 C 7.7665906 1.9980469 7.59375 2.1689344 7.59375 2.3808594 L 7.59375 2.7324219 C 6.9112892 2.9080688 6.4199219 3.5125406 6.4199219 4.2402344 C 6.4199219 4.7498344 6.6632187 5.2028562 7.0429688 5.4882812 C 7.0833937 5.5360562 7.1074219 5.5966875 7.1074219 5.6640625 C 7.1074219 5.6836625 7.1079187 5.7023281 7.1054688 5.7207031 L 5.4179688 9.2988281 L 4.71875 9.2988281 C 4.604825 9.2988281 4.5117188 9.3899812 4.5117188 9.5039062 L 4.5117188 9.5058594 C 4.5117188 9.6197844 4.604825 9.7109375 4.71875 9.7109375 L 5.2226562 9.7109375 L 3.9199219 12.474609 C 3.8378469 12.649784 3.8791875 12.851347 4.0078125 12.982422 L 3.5058594 14.001953 L 4.2988281 13.142578 C 4.5095281 13.197708 4.7345281 13.096651 4.8300781 12.894531 L 6.3320312 9.7109375 L 7.6542969 9.7109375 L 7.6542969 9.984375 C 7.6542969 10.158325 7.7955281 10.298828 7.9707031 10.298828 L 7.9882812 10.298828 C 8.1634562 10.298828 8.3046875 10.158325 8.3046875 9.984375 L 8.3046875 9.7109375 L 9.65625 9.7109375 L 11.158203 12.894531 C 11.252523 13.097881 11.479978 13.197703 11.689453 13.142578 L 12.482422 14.001953 L 11.980469 12.982422 C 12.107869 12.851347 12.150434 12.651009 12.068359 12.474609 L 10.765625 9.7109375 L 11.238281 9.7109375 C 11.353436 9.7109375 11.445312 9.6197844 11.445312 9.5058594 C 11.445313 9.3919344 11.353431 9.3000481 11.238281 9.2988281 L 10.570312 9.2988281 L 8.8828125 5.7207031 C 8.8803625 5.7023281 8.8808594 5.6836625 8.8808594 5.6640625 C 8.8808594 5.5979125 8.9061125 5.5360563 8.9453125 5.4882812 C 9.3250625 5.2028562 9.5703125 4.7498344 9.5703125 4.2402344 C 9.5703125 3.5020861 9.0543815 2.888557 8.3632812 2.7226562 L 8.3632812 2.3808594 C 8.3632812 2.1689344 8.1916656 1.9980469 7.9785156 1.9980469 z M 8.3457031 3.4101562 C 8.6711757 3.5464093 8.8984375 3.8665577 8.8984375 4.2402344 C 8.8984375 4.7375844 8.4958937 5.140625 7.9960938 5.140625 C 7.4938437 5.140625 7.0917969 4.7375844 7.0917969 4.2402344 C 7.0917969 3.8792051 7.307889 3.5731584 7.6171875 3.4296875 C 7.6645864 3.5870199 7.8039885 3.7050781 7.9785156 3.7050781 C 8.1594474 3.7050781 8.305009 3.5783386 8.3457031 3.4101562 z M 7.9882812 6.4023438 L 7.9960938 6.4023438 L 8.0019531 6.4023438 C 8.0509531 6.4023438 8.0941438 6.4246844 8.1210938 6.4589844 L 9.4609375 9.2988281 L 8.3046875 9.2988281 L 8.3046875 8.9667969 C 8.3046875 8.7916219 8.1634562 8.6503906 7.9882812 8.6503906 L 7.9707031 8.6503906 C 7.7955281 8.6503906 7.6542969 8.7928469 7.6542969 8.9667969 L 7.6542969 9.2988281 L 6.5273438 9.2988281 L 7.8671875 6.4589844 C 7.8953625 6.4234594 7.9392812 6.4023438 7.9882812 6.4023438 z "
       class="ColorScheme-Text" />
</svg>
