<svg xmlns="http://www.w3.org/2000/svg" width="64" height="64" viewBox="0 0 16.933 16.933"><defs><linearGradient id="b" x1="26" x2="26" y1="35" y2="7" gradientTransform="translate(1.852 1.476)scale(.26458)" gradientUnits="userSpaceOnUse"><stop offset="0" stop-color="#b6b9bf"/><stop offset="1" stop-color="#dddfe2"/></linearGradient><linearGradient id="c" x1="3" x2="45" y1="42" y2="42" gradientTransform="translate(1.852 1.476)scale(.26458)" gradientUnits="userSpaceOnUse"><stop offset="0" stop-color="#1a1a1a"/><stop offset=".111" stop-color="#2c2c2e"/><stop offset=".29" stop-color="#2b2b2d"/><stop offset=".512" stop-color="#2a2b2d"/><stop offset=".752" stop-color="#2b2b2d"/><stop offset=".897" stop-color="#323232"/><stop offset="1" stop-color="#171717"/></linearGradient><linearGradient id="d" x1="450.06" x2="450.06" y1="544.2" y2="543.43" gradientTransform="matrix(.23328 0 0 .68822 -97.32 -361.68)" gradientUnits="userSpaceOnUse"><stop offset="0" stop-color="#24785a"/><stop offset="1" stop-color="#67e5b8"/></linearGradient><linearGradient id="e" x1="467.17" x2="467.17" y1="546.85" y2="544.72" gradientTransform="translate(-220.72 -259.59)scale(.49857)" gradientUnits="userSpaceOnUse"><stop offset="0" stop-color="#040404"/><stop offset="1" stop-color="#121212" stop-opacity=".908"/></linearGradient><clipPath id="f"><rect width="12.7" height="12.7" x="1.852" y="2.006" stroke-width=".263" opacity="0" rx="0" ry=".261"/></clipPath><filter id="a" width="1.117" height="1.123" x="-.059" y="-.061" color-interpolation-filters="sRGB"><feGaussianBlur stdDeviation="1.075"/></filter></defs><path d="M42.419 20c-2.894 0-4.79 2.156-5.224 4.768l-5.222 31.465a3.3 3.3 0 0 0 .017 1.129C32.182 59.96 34.429 62 37.195 62h33.432c2.66 0 4.84-1.887 5.175-4.344.122-.45.147-.929.049-1.423l-6.269-31.465C69.065 22.169 67.252 20 64.359 20z" filter="url(#a)" opacity=".15" transform="translate(-10.115 -4.944)scale(.3446)"/><path fill="url(#b)" d="M5.292 2.8h5.556c.733 0 1.192.573 1.323 1.26l1.587 8.325c.131.688-.59 1.262-1.323 1.262H3.97c-.733 0-1.432-.57-1.323-1.262L3.97 4.06c.11-.69.59-1.26 1.323-1.26" transform="matrix(1.3302 0 0 1.3333 -2.446 -2.674)"/><path d="M5.291 2.8c-.732 0-1.213.57-1.322 1.26l-1.323 8.325c-.11.691.59 1.262 1.323 1.262h8.466c.733 0 1.454-.574 1.323-1.262L12.171 4.06c-.131-.687-.59-1.26-1.324-1.26zm0 .06h5.557c.35 0 .63.133.843.353s.357.525.42.86l1.588 8.323c.061.322-.074.616-.318.834a1.45 1.45 0 0 1-.945.358H3.969c-.351 0-.697-.139-.938-.358s-.377-.512-.326-.835L4.027 4.07c.107-.669.562-1.21 1.264-1.21" color="#000" opacity=".1" style="-inkscape-stroke:none" transform="matrix(1.3302 0 0 1.3333 -2.446 -2.674)"/><g stroke-width=".265" transform="matrix(1.3302 0 0 1.3333 -2.446 -2.674)"><rect width="11.112" height="2.646" x="2.646" y="11.266" fill="url(#c)" ry="1.323"/><rect width="5.292" height=".529" x="5.027" y="12.324" fill="url(#d)" ry=".265"/><circle cx="12.171" cy="12.589" r=".529" fill="url(#e)" opacity=".452"/></g><path fill="#fff" d="M13.743 13.784a.05.05 0 0 0-.037.016.05.05 0 0 0-.015.036v.263q0 .021.015.037c.016.015.023.015.037.015a.05.05 0 0 0 .037-.015.05.05 0 0 0 .015-.037v-.263a.05.05 0 0 0-.015-.036.05.05 0 0 0-.037-.016m-.15.078c-.014 0-.027 0-.039.01a.306.307 0 0 0-.126.25q0 .064.026.123t.067.1a.32.32 0 0 0 .222.092q.063 0 .121-.025a.306.307 0 0 0 .167-.167.31.31 0 0 0-.1-.373.05.05 0 0 0-.04-.01q-.02.001-.034.02a.05.05 0 0 0-.01.038q.004.021.021.035a.208.209 0 0 1-.206.36.2.2 0 0 1-.112-.111.21.21 0 0 1 .067-.249.05.05 0 0 0 .02-.035.05.05 0 0 0-.01-.039.05.05 0 0 0-.034-.02"/><path d="M3.969 11.266a1.32 1.32 0 0 0-1.323 1.323l.002.046a1.25 1.25 0 0 1 1.252-1.23h8.604a1.25 1.25 0 0 1 1.252 1.23l.002-.046a1.32 1.32 0 0 0-1.323-1.323z" clip-path="url(#f)" opacity=".15" transform="matrix(1.3302 0 0 1.3333 -2.446 -2.674)"/><path d="M10.715 4.331 9.73 4.33a.16.16 0 0 0-.1.033.1.1 0 0 0-.042.08l-.001.798c0 .063.063.114.14.114h.138l-.001.607-1.046.567.005-2.32h.364a.12.12 0 0 0 .095-.043.074.074 0 0 0 .004-.088l-.717-1.123a.12.12 0 0 0-.099-.05.12.12 0 0 0-.1.05l-.721 1.12a.074.074 0 0 0 .003.088.12.12 0 0 0 .095.044h.364l-.006 3.214-1.126-.614.001-.482c.175-.093.29-.253.29-.434.002-.288-.287-.522-.644-.523-.356 0-.645.233-.646.52 0 .182.114.342.289.436l-.002.635c0 .095.059.185.157.238l1.68.916-.003.991c-.237.103-.4.302-.4.535 0 .336.336.61.753.61.418.001.756-.271.757-.608 0-.233-.162-.432-.398-.536l.004-1.884 1.6-.866q.03-.017.053-.036a.264.265 0 0 0 .105-.203l.001-.76h.138a.16.16 0 0 0 .1-.033.1.1 0 0 0 .042-.081l.001-.797c0-.063-.063-.114-.14-.114z" opacity=".15"/></svg>