<svg width="64" height="64" version="1.1" viewBox="0 0 16.933 16.933" xmlns="http://www.w3.org/2000/svg" xmlns:xlink="http://www.w3.org/1999/xlink">
 <defs>
  <filter id="c-5" x="-.058665" y="-.061429" width="1.1173" height="1.1229" color-interpolation-filters="sRGB">
   <feGaussianBlur stdDeviation="1.075"/>
  </filter>
  <linearGradient id="d-4" x1="26" x2="26" y1="35" y2="7" gradientTransform="matrix(.26458 0 0 .26458 1.852 1.4763)" gradientUnits="userSpaceOnUse">
   <stop stop-color="#b6b9bf" offset="0"/>
   <stop stop-color="#dddfe2" offset="1"/>
  </linearGradient>
  <linearGradient id="e-5" x1="3" x2="45" y1="42" y2="42" gradientTransform="matrix(.26458 0 0 .26458 1.852 1.4763)" gradientUnits="userSpaceOnUse">
   <stop stop-color="#1a1a1a" offset="0"/>
   <stop stop-color="#2c2c2e" offset=".111"/>
   <stop stop-color="#2b2b2d" offset=".29"/>
   <stop stop-color="#2a2b2d" offset=".512"/>
   <stop stop-color="#2b2b2d" offset=".752"/>
   <stop stop-color="#323232" offset=".897"/>
   <stop stop-color="#171717" offset="1"/>
  </linearGradient>
  <linearGradient id="f-5" x1="450.06" x2="450.06" y1="544.2" y2="543.43" gradientTransform="matrix(.23328 0 0 .68822 -97.32 -361.68)" gradientUnits="userSpaceOnUse">
   <stop stop-color="#24785a" offset="0"/>
   <stop stop-color="#67e5b8" offset="1"/>
  </linearGradient>
  <linearGradient id="g-4" x1="467.17" x2="467.17" y1="546.85" y2="544.72" gradientTransform="matrix(.49857 0 0 .49857 -220.72 -259.59)" gradientUnits="userSpaceOnUse">
   <stop stop-color="#040404" offset="0"/>
   <stop stop-color="#121212" stop-opacity=".908" offset="1"/>
  </linearGradient>
  <clipPath id="clipPath28">
   <rect x="1.852" y="2.0055" width="12.7" height="12.7" rx="0" ry=".26114" opacity="0" stroke-width=".26326"/>
  </clipPath>
 </defs>
 <path transform="matrix(.3446 0 0 .3446 -10.115 -4.9445)" d="m42.419 20c-2.894 0-4.79 2.156-5.224 4.768l-5.222 31.465a3.3 3.3 0 0 0 0.017 1.129c0.192 2.598 2.439 4.638 5.205 4.638h33.432c2.66 0 4.84-1.887 5.175-4.344 0.122-0.45 0.147-0.929 0.049-1.423l-6.269-31.465c-0.517-2.599-2.33-4.768-5.223-4.768z" filter="url(#c-5)" opacity=".15"/>
 <g transform="matrix(1.3302 0 0 1.3333 -2.4465 -2.674)">
  <path d="m5.2916 2.7992h5.5561c0.73288 0 1.1919 0.57387 1.3229 1.2612l1.5875 8.325c0.13123 0.68764-0.59001 1.2615-1.3229 1.2615h-8.466c-0.73288 0-1.4327-0.57043-1.3229-1.2615l1.3224-8.325c0.1098-0.69081 0.59001-1.2612 1.3229-1.2612" fill="url(#d-4)" stroke-width=".26458"/>
  <path d="m5.2914 2.7992c-0.73288 0-1.213 0.57033-1.3228 1.2611l-1.3224 8.3249c-0.1098 0.69108 0.59031 1.2615 1.3232 1.2615h8.4659c0.73288 0 1.454-0.57389 1.3228-1.2615l-1.5874-8.3249c-0.13096-0.68737-0.59031-1.2611-1.3232-1.2611h-5.5562zm-3.885e-4 0.060073h5.5565c0.35088 0 0.63091 0.13422 0.8438 0.35346 0.21289 0.21924 0.3563 0.52552 0.41996 0.85962l1.5878 8.3241c0.06127 0.32107-0.074372 0.61514-0.31817 0.83404-0.2438 0.2189-0.59431 0.35734-0.94519 0.35734h-8.4671c-0.35098 0-0.69622-0.13888-0.93742-0.35734-0.2412-0.21846-0.37736-0.51233-0.32594-0.83598l1.322-8.3241c0.10637-0.66923 0.5618-1.2111 1.2638-1.2111z" color="#000000" fill="#000000" opacity=".1" stroke-linecap="round" stroke-linejoin="round" style="-inkscape-stroke:none"/>
  <g stroke-width=".26458">
   <rect x="2.6458" y="11.266" width="11.112" height="2.6458" ry="1.3229" fill="url(#e-5)"/>
   <rect x="5.027" y="12.324" width="5.2916" height=".52916" ry=".26458" fill="url(#f-5)"/>
   <circle cx="12.171" cy="12.589" r=".52916" fill="url(#g-4)" opacity=".452"/>
  </g>
  <path d="m12.171 12.344a0.037041 0.037041 0 0 0-0.02778 0.01191 0.037041 0.037041 0 0 0-0.01138 0.02725v0.19711q-2.65e-4 0.01588 0.01138 0.02725c0.01164 0.01138 0.0172 0.01191 0.02778 0.01191a0.037041 0.037041 0 0 0 0.02752-0.01191 0.037041 0.037041 0 0 0 0.01164-0.02725v-0.19711a0.037041 0.037041 0 0 0-0.01164-0.02725 0.037041 0.037041 0 0 0-0.02752-0.01191m-0.11324 0.05794c-0.01058 0-0.02011 0-0.0291 0.0079a0.23018 0.23018 0 0 0-0.09445 0.18785q2.64e-4 0.04762 0.01931 0.09154 0.01852 0.04366 0.05027 0.0754a0.23812 0.23812 0 0 0 0.16668 0.06879q0.04762 0 0.09154-0.01852a0.23018 0.23018 0 0 0 0.12541-0.12567 0.23283 0.23283 0 0 0-0.0754-0.27966 0.037041 0.037041 0 0 0-0.02937-0.0079c-0.01085 0-0.01958 0.0066-0.02593 0.01508a0.037041 0.037041 0 0 0-0.0071 0.0291q0.0021 0.01587 0.01508 0.02646a0.15663 0.15663 0 0 1-0.15504 0.26987 0.1561 0.1561 0 0 1-0.0844-0.08361 0.1561 0.1561 0 0 1 0.05053-0.18653 0.039687 0.039687 0 0 0 0.01588-0.02646 0.037041 0.037041 0 0 0-0.0079-0.02884 0.034395 0.034395 0 0 0-0.02593-0.01482" fill="#ffffff"/>
  <path d="m3.9687 11.266c-0.73288 0-1.3229 0.59001-1.3229 1.3229 0 0.01561 0.00159 0.03069 0.00212 0.04604a1.2499 1.2499 0 0 1 1.252-1.2308h8.6041a1.2499 1.2499 0 0 1 1.2522 1.2308q0.0013-0.02275 0.0019-0.04604c0-0.73288-0.59001-1.3229-1.3229-1.3229z" clip-path="url(#clipPath28)" opacity=".15" stroke-width=".26458"/>
  <path d="m9.8947 5.254-0.74161-0.0010583a0.12171 0.12171 0 0 0-0.07514 0.02487 0.079373 0.079373 0 0 0-0.031485 0.060588l-0.00106 0.59795c0 0.047095 0.047359 0.085459 0.1061 0.085459h0.10319l-7.938e-4 0.4556-0.78606 0.42465 0.00344-1.7401 0.27357 2.646e-4a0.089957 0.089957 0 0 0 0.071701-0.032279 0.055561 0.055561 0 0 0 0.00291-0.066145l-0.53894-0.84215a0.089957 0.089957 0 0 0-0.074611-0.036776 0.087311 0.087311 0 0 0-0.074611 0.036512l-0.54291 0.84056a0.055561 0.055561 0 0 0 0.00265 0.066145 0.089957 0.089957 0 0 0 0.071701 0.032808l0.27357 2.638e-4 -0.005027 2.4103-0.84612-0.4609 7.937e-4 -0.36141c0.13123-0.069849 0.21801-0.18944 0.21828-0.32543 7.937e-4 -0.21616-0.21616-0.39158-0.48444-0.39184-0.26802-5.292e-4 -0.48524 0.17436-0.48603 0.39025-2.646e-4 0.13626 0.086252 0.25611 0.21722 0.32649l-0.00106 0.47624c0 0.071436 0.04392 0.13864 0.118 0.17885l1.2623 0.68711-0.00159 0.7432c-0.17806 0.076728-0.30056 0.22648-0.30109 0.40084-2.646e-4 0.25241 0.25294 0.45772 0.56646 0.45825 0.31379 2.646e-4 0.56831-0.20399 0.56884-0.45666 2.646e-4 -0.17436-0.12171-0.32411-0.29924-0.40163l0.00291-1.4131 1.2036-0.65007q0.021695-0.012171 0.039687-0.026458a0.19843 0.19843 0 0 0 0.078844-0.1524l7.937e-4 -0.5699h0.10345a0.12171 0.12171 0 0 0 0.07514-0.025135 0.079373 0.079373 0 0 0 0.031485-0.060588l0.00106-0.59742c0-0.047624-0.04736-0.085723-0.1061-0.085723z" opacity=".15"/>
 </g>
</svg>
