<svg width="64" height="64" version="1.1" viewBox="0 0 16.933 16.933" xmlns="http://www.w3.org/2000/svg" xmlns:xlink="http://www.w3.org/1999/xlink">
 <defs>
  <linearGradient id="linearGradient211" x1="-20.5" x2="-20.5" y1="14.147" y2="49.884" gradientTransform="matrix(.26458 0 0 .26458 17.641 -.0052961)" gradientUnits="userSpaceOnUse">
   <stop stop-color="#c8cbd1" offset="0"/>
   <stop stop-color="#adb3ba" offset="1"/>
  </linearGradient>
  <filter id="filter212" x="-.023393" y="-.041987" width="1.0468" height="1.084" color-interpolation-filters="sRGB">
   <feGaussianBlur stdDeviation="0.14656725"/>
  </filter>
 </defs>
 <rect x=".099106" y="3.9725" width="16.733" height="9.3231" ry=".35582" fill="#000000" filter="url(#filter212)" opacity=".15" stroke="#000000" stroke-width=".079373"/>
 <rect x=".099106" y="3.8038" width="16.733" height="9.3231" ry=".35582" fill="url(#linearGradient211)" stroke="#8e939a" stroke-width=".079373"/>
 <path d="m0.42891 5.6678c-0.048099 0-0.086815 0.038716-0.086815 0.086815v0.41909c0 0.048099 0.038716 0.086815 0.086815 0.086815h0.86815c0.048099 0 0.086815-0.038716 0.086815-0.086815v-0.41909c0-0.048098-0.038716-0.086815-0.086815-0.086815h-0.86815zm1.2102 0c-0.048099 0-0.086815 0.038716-0.086815 0.086815v0.41909c0 0.048099 0.038716 0.086815 0.086815 0.086815h0.86815c0.048099 0 0.086815-0.038716 0.086815-0.086815v-0.41909c0-0.048098-0.038716-0.086815-0.086815-0.086815h-0.86815zm1.2242 0c-0.048098 0-0.086815 0.038716-0.086815 0.086815v0.41909c0 0.048099 0.038716 0.086815 0.086815 0.086815h0.86815c0.048099 0 0.086815-0.038716 0.086815-0.086815v-0.41909c0-0.048098-0.038716-0.086815-0.086815-0.086815h-0.86815zm1.2102 0c-0.048099 0-0.086815 0.038716-0.086815 0.086815v0.41909c0 0.048099 0.038716 0.086815 0.086815 0.086815h0.86815c0.048099 0 0.086815-0.038716 0.086815-0.086815v-0.41909c0-0.048098-0.038716-0.086815-0.086815-0.086815h-0.86815zm1.2242 0c-0.048098 0-0.086815 0.038716-0.086815 0.086815v0.41909c0 0.048099 0.038716 0.086815 0.086815 0.086815h0.86815c0.048099 0 0.086815-0.038716 0.086815-0.086815v-0.41909c0-0.048098-0.038716-0.086815-0.086815-0.086815h-0.86815zm1.2087 0c-0.048098 0-0.086815 0.038716-0.086815 0.086815v0.41909c0 0.048099 0.038716 0.086815 0.086815 0.086815h0.86815c0.048098 0 0.086815-0.038716 0.086815-0.086815v-0.41909c0-0.048098-0.038716-0.086815-0.086815-0.086815h-0.86815zm1.2242 0c-0.048098 0-0.086815 0.038716-0.086815 0.086815v0.41909c0 0.048099 0.038716 0.086815 0.086815 0.086815h0.86815c0.048098 0 0.086815-0.038716 0.086815-0.086815v-0.41909c0-0.048098-0.038716-0.086815-0.086815-0.086815h-0.86815zm1.2102 0c-0.048098 0-0.086815 0.038716-0.086815 0.086815v0.41909c0 0.048099 0.038716 0.086815 0.086815 0.086815h0.86815c0.048098 0 0.086815-0.038716 0.086815-0.086815v-0.41909c0-0.048098-0.038716-0.086815-0.086815-0.086815h-0.86815zm1.2242 0c-0.048099 0-0.086815 0.038716-0.086815 0.086815v0.41909c0 0.048099 0.038716 0.086815 0.086815 0.086815h0.86815c0.048098 0 0.086815-0.038716 0.086815-0.086815v-0.41909c0-0.048098-0.038717-0.086815-0.086815-0.086815h-0.86815zm1.2082 0c-0.048098 0-0.086815 0.038716-0.086815 0.086815v0.41909c0 0.048099 0.038717 0.086815 0.086815 0.086815h0.86815c0.048099 0 0.086815-0.038716 0.086815-0.086815v-0.41909c0-0.048098-0.038716-0.086815-0.086815-0.086815h-0.86815zm1.2247 0c-0.048098 0-0.086814 0.038716-0.086814 0.086815v0.41909c0 0.048099 0.038716 0.086815 0.086814 0.086815h0.86815c0.048099 0 0.086815-0.038716 0.086815-0.086815v-0.41909c0-0.048098-0.038716-0.086815-0.086815-0.086815h-0.86815zm1.2097 0c-0.048099 0-0.086815 0.038716-0.086815 0.086815v0.41909c0 0.048099 0.038716 0.086815 0.086815 0.086815h0.86815c0.048098 0 0.086815-0.038716 0.086815-0.086815v-0.41909c0-0.048098-0.038717-0.086815-0.086815-0.086815h-0.86815zm1.2356 0c-0.048098 0-0.086815 0.038716-0.086815 0.086815v0.41909c0 0.048099 0.038717 0.086815 0.086815 0.086815h0.54828c0.048099 0 0.086815-0.038716 0.086815-0.086815v-0.41909c0-0.048098-0.038716-0.086815-0.086815-0.086815h-0.54828zm0.8914 0c-0.048099 0-0.086815 0.038716-0.086815 0.086815v0.41909c0 0.048099 0.038716 0.086815 0.086815 0.086815h0.54828c0.048099 0 0.086815-0.038716 0.086815-0.086815v-0.41909c0-0.048098-0.038716-0.086815-0.086815-0.086815h-0.54828zm-15.47 0.77358c-0.068212 0-0.12299 0.054775-0.12299 0.12299v0.91155c0 0.068212 0.054775 0.12299 0.12299 0.12299h0.87952c0.068212 0 0.12299-0.054775 0.12299-0.12299v-0.91155c0-0.068212-0.054775-0.12299-0.12299-0.12299h-0.87952zm1.3436 0c-0.068212 0-0.12299 0.054775-0.12299 0.12299v0.91155c0 0.068212 0.054775 0.12299 0.12299 0.12299h0.879c0.068212 0 0.1235-0.054775 0.1235-0.12299v-0.91155c0-0.068212-0.055292-0.12299-0.1235-0.12299h-0.879zm1.343 0c-0.068212 0-0.12299 0.054775-0.12299 0.12299v0.91155c0 0.068212 0.054775 0.12299 0.12299 0.12299h0.87952c0.068212 0 0.12299-0.054775 0.12299-0.12299v-0.91155c0-0.068212-0.054775-0.12299-0.12299-0.12299h-0.87952zm1.342 0c-0.068212 0-0.1235 0.054775-0.1235 0.12299v0.91155c0 0.068212 0.055292 0.12299 0.1235 0.12299h0.879c0.068212 0 0.1235-0.054775 0.1235-0.12299v-0.91155c0-0.068212-0.055292-0.12299-0.1235-0.12299h-0.879zm1.343 0c-0.068212 0-0.12299 0.054775-0.12299 0.12299v0.91155c0 0.068212 0.054775 0.12299 0.12299 0.12299h0.87952c0.068212 0 0.12299-0.054775 0.12299-0.12299v-0.91155c0-0.068212-0.054775-0.12299-0.12299-0.12299h-0.87952zm1.3436 0c-0.068212 0-0.1235 0.054775-0.1235 0.12299v0.91155c0 0.068212 0.055292 0.12299 0.1235 0.12299h0.879c0.068212 0 0.12299-0.054775 0.12299-0.12299v-0.91155c0-0.068212-0.054775-0.12299-0.12299-0.12299h-0.879zm1.3415 0c-0.068212 0-0.12299 0.054775-0.12299 0.12299v0.91155c0 0.068212 0.054775 0.12299 0.12299 0.12299h0.87952c0.068212 0 0.12299-0.054775 0.12299-0.12299v-0.91155c0-0.068212-0.054775-0.12299-0.12299-0.12299h-0.87952zm1.343 0c-0.068212 0-0.12299 0.054775-0.12299 0.12299v0.91155c0 0.068212 0.054775 0.12299 0.12299 0.12299h0.87952c0.068213 0 0.12299-0.054775 0.12299-0.12299v-0.91155c0-0.068212-0.054775-0.12299-0.12299-0.12299h-0.87952zm1.2945 0c-0.068213 0-0.12299 0.054775-0.12299 0.12299v0.91155c0 0.068212 0.054775 0.12299 0.12299 0.12299h0.879c0.068212 0 0.1235-0.054775 0.1235-0.12299v-0.91155c0-0.068212-0.055292-0.12299-0.1235-0.12299h-0.879zm1.3415 0c-0.068213 0-0.12299 0.054775-0.12299 0.12299v0.91155c0 0.068212 0.054775 0.12299 0.12299 0.12299h0.87952c0.068213 0 0.12299-0.054775 0.12299-0.12299v-0.91155c0-0.068212-0.054775-0.12299-0.12299-0.12299h-0.87952zm1.3436 0c-0.068212 0-0.1235 0.054775-0.1235 0.12299v0.91155c0 0.068212 0.055292 0.12299 0.1235 0.12299h0.879c0.068213 0 0.12299-0.054775 0.12299-0.12299v-0.91155c0-0.068212-0.054775-0.12299-0.12299-0.12299h-0.879zm1.3399 0c-0.068213 0-0.12299 0.054775-0.12299 0.12299v0.91155c0 0.068212 0.054775 0.12299 0.12299 0.12299h1.2614c0.068212 0 0.1235-0.054775 0.1235-0.12299v-0.91155c0-0.068212-0.055292-0.12299-0.1235-0.12299h-1.2614zm-14.683 1.3322c-0.067163 0-0.12092 0.054274-0.12092 0.12144v0.89605c0 0.067163 0.053757 0.12144 0.12092 0.12144h1.3854c0.067163 0 0.12144-0.054274 0.12144-0.12144v-0.89605c0-0.067163-0.054274-0.12144-0.12144-0.12144h-1.3854zm1.8794 0c-0.067163 0-0.12092 0.054274-0.12092 0.12144v0.89605c0 0.067163 0.053757 0.12144 0.12092 0.12144h0.83301c0.067163 0 0.12092-0.054274 0.12092-0.12144v-0.89605c0-0.067163-0.053757-0.12144-0.12092-0.12144h-0.83301zm1.2878 0c-0.067163 0-0.12092 0.054274-0.12092 0.12144v0.89605c0 0.067163 0.053758 0.12144 0.12092 0.12144h0.83301c0.067163 0 0.12092-0.054274 0.12092-0.12144v-0.89605c0-0.067163-0.053758-0.12144-0.12092-0.12144h-0.83301zm1.3544 0c-0.067163 0-0.12092 0.054274-0.12092 0.12144v0.89605c0 0.067163 0.053757 0.12144 0.12092 0.12144h0.83301c0.067163 0 0.12092-0.054274 0.12092-0.12144v-0.89605c0-0.067163-0.053757-0.12144-0.12092-0.12144h-0.83301zm1.2878 0c-0.067163 0-0.12092 0.054274-0.12092 0.12144v0.89605c0 0.067163 0.053757 0.12144 0.12092 0.12144h0.83301c0.067163 0 0.12092-0.054274 0.12092-0.12144v-0.89605c0-0.067163-0.053757-0.12144-0.12092-0.12144h-0.83301zm1.3544 0c-0.067163 0-0.12092 0.054274-0.12092 0.12144v0.89605c0 0.067163 0.053758 0.12144 0.12092 0.12144h0.83301c0.067163 0 0.12092-0.054274 0.12092-0.12144v-0.89605c0-0.067163-0.053758-0.12144-0.12092-0.12144h-0.83301zm1.2878 0c-0.067163 0-0.12092 0.054274-0.12092 0.12144v0.89605c0 0.067163 0.053757 0.12144 0.12092 0.12144h0.83301c0.067163 0 0.12092-0.054274 0.12092-0.12144v-0.89605c0-0.067163-0.053757-0.12144-0.12092-0.12144h-0.83301zm1.3529 0c-0.067163 0-0.12144 0.054274-0.12144 0.12144v0.89605c0 0.067163 0.054274 0.12144 0.12144 0.12144h0.83301c0.067163 0 0.12092-0.054274 0.12092-0.12144v-0.89605c0-0.067163-0.053757-0.12144-0.12092-0.12144h-0.83301zm1.2878 0c-0.067163 0-0.12144 0.054274-0.12144 0.12144v0.89605c0 0.067163 0.054274 0.12144 0.12144 0.12144h0.83301c0.067163 0 0.12092-0.054274 0.12092-0.12144v-0.89605c0-0.067163-0.053758-0.12144-0.12092-0.12144h-0.83301zm1.3291 0c-0.067163 0-0.12144 0.054274-0.12144 0.12144v0.89605c0 0.067163 0.054274 0.12144 0.12144 0.12144h0.83301c0.067163 0 0.12092-0.054274 0.12092-0.12144v-0.89605c0-0.067163-0.053757-0.12144-0.12092-0.12144h-0.83301zm1.2878 0c-0.067163 0-0.12144 0.054274-0.12144 0.12144v0.89605c0 0.067163 0.054274 0.12144 0.12144 0.12144h0.83301c0.067163 0 0.12092-0.054274 0.12092-0.12144v-0.89605c0-0.067163-0.053758-0.12144-0.12092-0.12144h-0.83301zm1.3208 0c-0.067163 0-0.12092 0.054274-0.12092 0.12144v0.89605c0 0.067163 0.053757 0.12144 0.12092 0.12144h0.83301c0.067163 0 0.12144-0.054274 0.12144-0.12144v-0.89605c0-0.067163-0.054274-0.12144-0.12144-0.12144h-0.83301zm-15.03 1.326c-0.067163 0-0.12092 0.054274-0.12092 0.12144v0.89605c0 0.067163 0.053757 0.12144 0.12092 0.12144h1.7771c0.067163 0 0.12092-0.054274 0.12092-0.12144v-0.89605c0-0.067163-0.053757-0.12144-0.12092-0.12144h-1.7771zm2.252 0c-0.067163 0-0.12092 0.054274-0.12092 0.12144v0.89605c0 0.067163 0.053758 0.12144 0.12092 0.12144h0.83301c0.067163 0 0.12144-0.054274 0.12144-0.12144v-0.89605c0-0.067163-0.054274-0.12144-0.12144-0.12144h-0.83301zm1.2784 0c-0.067163 0-0.12144 0.054274-0.12144 0.12144v0.89605c0 0.067163 0.054274 0.12144 0.12144 0.12144h0.83301c0.067163 0 0.12092-0.054274 0.12092-0.12144v-0.89605c0-0.067163-0.053757-0.12144-0.12092-0.12144h-0.83301zm1.3529 0c-0.067163 0-0.12144 0.054274-0.12144 0.12144v0.89605c0 0.067163 0.054274 0.12144 0.12144 0.12144h0.83249c0.067163 0 0.12144-0.054274 0.12144-0.12144v-0.89605c0-0.067163-0.054274-0.12144-0.12144-0.12144h-0.83249zm1.2878 0c-0.067163 0-0.12144 0.054274-0.12144 0.12144v0.89605c0 0.067163 0.054274 0.12144 0.12144 0.12144h0.83301c0.067163 0 0.12092-0.054274 0.12092-0.12144v-0.89605c0-0.067163-0.053758-0.12144-0.12092-0.12144h-0.83301zm1.3544 0c-0.067163 0-0.12144 0.054274-0.12144 0.12144v0.89605c0 0.067163 0.054274 0.12144 0.12144 0.12144h0.83249c0.067163 0 0.12144-0.054274 0.12144-0.12144v-0.89605c0-0.067163-0.054274-0.12144-0.12144-0.12144h-0.83249zm1.2878 0c-0.067163 0-0.12144 0.054274-0.12144 0.12144v0.89605c0 0.067163 0.054274 0.12144 0.12144 0.12144h0.83301c0.067163 0 0.12092-0.054274 0.12092-0.12144v-0.89605c0-0.067163-0.053758-0.12144-0.12092-0.12144h-0.83301zm1.3544 0c-0.067163 0-0.12144 0.054274-0.12144 0.12144v0.89605c0 0.067163 0.054274 0.12144 0.12144 0.12144h0.83249c0.067163 0 0.12144-0.054274 0.12144-0.12144v-0.89605c0-0.067163-0.054274-0.12144-0.12144-0.12144h-0.83249zm1.2878 0c-0.067164 0-0.12144 0.054274-0.12144 0.12144v0.89605c0 0.067163 0.054274 0.12144 0.12144 0.12144h0.83249c0.067164 0 0.12144-0.054274 0.12144-0.12144v-0.89605c0-0.067163-0.054274-0.12144-0.12144-0.12144h-0.83249zm1.3291 0c-0.067163 0-0.12144 0.054274-0.12144 0.12144v0.89605c0 0.067163 0.054274 0.12144 0.12144 0.12144h0.83249c0.067163 0 0.12144-0.054274 0.12144-0.12144v-0.89605c0-0.067163-0.054274-0.12144-0.12144-0.12144h-0.83249zm1.3544 0c-0.067163 0-0.12144 0.054274-0.12144 0.12144v0.89605c0 0.067163 0.054274 0.12144 0.12144 0.12144h1.8293c0.067163 0 0.12092-0.054274 0.12092-0.12144v-0.89605c0-0.067163-0.053757-0.12144-0.12092-0.12144h-1.8293zm-14.139 1.3058c-0.067163 0-0.12092 0.053757-0.12092 0.12092v0.89657c0 0.067164 0.053757 0.12092 0.12092 0.12092h2.1642c0.067163 0 0.12144-0.053757 0.12144-0.12092v-0.89657c0-0.067163-0.054274-0.12092-0.12144-0.12092h-2.1642zm2.6582 0c-0.067163 0-0.12144 0.053757-0.12144 0.12092v0.89657c0 0.067164 0.054274 0.12092 0.12144 0.12092h0.83301c0.067163 0 0.12092-0.053757 0.12092-0.12092v-0.89657c0-0.067163-0.053757-0.12092-0.12092-0.12092h-0.83301zm1.2878 0c-0.067163 0-0.12092 0.053757-0.12092 0.12092v0.89657c0 0.067164 0.053758 0.12092 0.12092 0.12092h0.83301c0.067163 0 0.12092-0.053757 0.12092-0.12092v-0.89657c0-0.067163-0.053757-0.12092-0.12092-0.12092h-0.83301zm1.3544 0c-0.067163 0-0.12144 0.053757-0.12144 0.12092v0.89657c0 0.067164 0.054274 0.12092 0.12144 0.12092h0.83301c0.067163 0 0.12092-0.053757 0.12092-0.12092v-0.89657c0-0.067163-0.053757-0.12092-0.12092-0.12092h-0.83301zm1.2878 0c-0.067163 0-0.12144 0.053757-0.12144 0.12092v0.89657c0 0.067164 0.054274 0.12092 0.12144 0.12092h0.83301c0.067163 0 0.12092-0.053757 0.12092-0.12092v-0.89657c0-0.067163-0.053758-0.12092-0.12092-0.12092h-0.83301zm1.3544 0c-0.067163 0-0.12144 0.053757-0.12144 0.12092v0.89657c0 0.067164 0.054274 0.12092 0.12144 0.12092h0.83301c0.067163 0 0.12092-0.053757 0.12092-0.12092v-0.89657c0-0.067163-0.053758-0.12092-0.12092-0.12092h-0.83301zm1.2878 0c-0.067163 0-0.12144 0.053757-0.12144 0.12092v0.89657c0 0.067164 0.054274 0.12092 0.12144 0.12092h0.83301c0.067163 0 0.12092-0.053757 0.12092-0.12092v-0.89657c0-0.067163-0.053757-0.12092-0.12092-0.12092h-0.83301zm1.3291 0c-0.067163 0-0.12144 0.053757-0.12144 0.12092v0.89657c0 0.067164 0.054274 0.12092 0.12144 0.12092h0.83249c0.067163 0 0.12144-0.053757 0.12144-0.12092v-0.89657c0-0.067163-0.054274-0.12092-0.12144-0.12092h-0.83249zm1.326 0c-0.067163 0-0.12144 0.053757-0.12144 0.12092v0.89657c0 0.067164 0.054274 0.12092 0.12144 0.12092h0.83249c0.067163 0 0.12144-0.053757 0.12144-0.12092v-0.89657c0-0.067163-0.054274-0.12092-0.12144-0.12092h-0.83249zm1.3337 0c-0.067163 0-0.12144 0.053757-0.12144 0.12092v0.89657c0 0.067164 0.054274 0.12092 0.12144 0.12092h2.7486c0.067163 0 0.12144-0.053757 0.12144-0.12092v-0.89657c0-0.067163-0.054274-0.12092-0.12144-0.12092h-2.7486zm-13.203 1.326c-0.067163 0-0.12092 0.053757-0.12092 0.12092v0.89657c0 0.067163 0.053757 0.12092 0.12092 0.12092h0.83301c0.067163 0 0.12092-0.053757 0.12092-0.12092v-0.89657c0-0.067163-0.053758-0.12092-0.12092-0.12092h-0.83301zm1.2878 0c-0.067163 0-0.12092 0.053757-0.12092 0.12092v0.89657c0 0.067163 0.053757 0.12092 0.12092 0.12092h0.83301c0.067163 0 0.12092-0.053757 0.12092-0.12092v-0.89657c0-0.067163-0.053757-0.12092-0.12092-0.12092h-0.83301zm1.3544 0c-0.067163 0-0.12144 0.053757-0.12144 0.12092v0.89657c0 0.067163 0.054274 0.12092 0.12144 0.12092h0.83301c0.067163 0 0.12092-0.053757 0.12092-0.12092v-0.89657c0-0.067163-0.053757-0.12092-0.12092-0.12092h-0.83301zm1.2878 0c-0.067163 0-0.12092 0.053757-0.12092 0.12092v0.89657c0 0.067163 0.053758 0.12092 0.12092 0.12092h0.83301c0.067163 0 0.12092-0.053757 0.12092-0.12092v-0.89657c0-0.067163-0.053757-0.12092-0.12092-0.12092h-0.83301zm1.3275 0c-0.067163 0-0.12144 0.053757-0.12144 0.12092v0.89657c0 0.067163 0.054274 0.12092 0.12144 0.12092h4.8735c0.067163 0 0.12092-0.053757 0.12092-0.12092v-0.89657c0-0.067163-0.053757-0.12092-0.12092-0.12092h-4.8735zm5.2859 0c-0.067163 0-0.12144 0.053757-0.12144 0.12092v0.89657c0 0.067163 0.054274 0.12092 0.12144 0.12092h0.83249c0.067163 0 0.12144-0.053757 0.12144-0.12092v-0.89657c0-0.067163-0.054274-0.12092-0.12144-0.12092h-0.83249zm1.326 0c-0.067163 0-0.12144 0.053757-0.12144 0.12092v0.89657c0 0.067163 0.054274 0.12092 0.12144 0.12092h0.83249c0.067163 0 0.12144-0.053757 0.12144-0.12092v-0.89657c0-0.067163-0.054274-0.12092-0.12144-0.12092h-0.83249zm2.1916 0c-0.067163 0-0.12144 0.053757-0.12144 0.12092v0.89657c0 0.067163 0.054274 0.12092 0.12144 0.12092h0.83301c0.067163 0 0.12092-0.053757 0.12092-0.12092v-0.89657c0-0.067163-0.053757-0.12092-0.12092-0.12092h-0.83301zm-0.99165 0.50952c-0.037079 0-0.066661 0.030099-0.066661 0.067178v0.49505c0 0.037079 0.029582 0.067178 0.066661 0.067178h0.72036c0.03708 0 0.066662-0.030099 0.066662-0.067178v-0.49505c0-0.037079-0.029582-0.067178-0.066662-0.067178h-0.72036zm2.0965 0c-0.03708 0-0.066662 0.030099-0.066662 0.067178v0.49505c0 0.037079 0.029582 0.067178 0.066662 0.067178h0.72036c0.03708 0 0.066661-0.030099 0.066661-0.067178v-0.49505c0-0.037079-0.029581-0.067178-0.066661-0.067178h-0.72036z" fill="#000000" opacity=".15" stroke-width=".31502"/>
 <path d="m0.42012 5.5479c-0.043886 0.0044302-0.07803 0.041722-0.07803 0.086815v0.41857c0 0.048099 0.038716 0.086815 0.086815 0.086815h0.86815c0.048099 0 0.086815-0.038716 0.086815-0.086815v-0.41857c0-0.048099-0.038716-0.086815-0.086815-0.086815h-0.86815c-0.0030062 0-0.0058591-2.954e-4 -0.0087848 0zm1.2102 0c-0.043886 0.0044302-0.07803 0.041722-0.07803 0.086815v0.41857c0 0.048099 0.038716 0.086815 0.086815 0.086815h0.86815c0.048099 0 0.086815-0.038716 0.086815-0.086815v-0.41857c0-0.048099-0.038716-0.086815-0.086815-0.086815h-0.86815c-0.0030062 0-0.0058591-2.954e-4 -0.0087849 0zm1.2242 0c-0.043886 0.0044302-0.07803 0.041722-0.07803 0.086815v0.41857c0 0.048099 0.038716 0.086815 0.086815 0.086815h0.86815c0.048099 0 0.086815-0.038716 0.086815-0.086815v-0.41857c0-0.048099-0.038716-0.086815-0.086815-0.086815h-0.86815c-0.0030061 0-0.005859-2.954e-4 -0.0087848 0zm1.2102 0c-0.043886 0.0044302-0.07803 0.041722-0.07803 0.086815v0.41857c0 0.048099 0.038716 0.086815 0.086815 0.086815h0.86815c0.048099 0 0.086815-0.038716 0.086815-0.086815v-0.41857c0-0.048099-0.038716-0.086815-0.086815-0.086815h-0.86815c-0.0030062 0-0.0058591-2.954e-4 -0.0087849 0zm1.2242 0c-0.043886 0.0044302-0.07803 0.041722-0.07803 0.086815v0.41857c0 0.048099 0.038716 0.086815 0.086815 0.086815h0.86815c0.048099 0 0.086815-0.038716 0.086815-0.086815v-0.41857c0-0.048099-0.038716-0.086815-0.086815-0.086815h-0.86815c-0.0030061 0-0.005859-2.954e-4 -0.0087848 0zm1.2082 0c-0.043886 0.0044302-0.077513 0.041722-0.077513 0.086815v0.41857c0 0.048099 0.038716 0.086815 0.086815 0.086815h0.86815c0.048098 0 0.086815-0.038716 0.086815-0.086815v-0.41857c0-0.048099-0.038716-0.086815-0.086815-0.086815h-0.86815c-0.0030062 0-0.0063758-2.954e-4 -0.0093016 0zm1.2247 0c-0.043886 0.0044302-0.07803 0.041722-0.07803 0.086815v0.41857c0 0.048099 0.038716 0.086815 0.086815 0.086815h0.86815c0.048098 0 0.086815-0.038716 0.086815-0.086815v-0.41857c0-0.048099-0.038716-0.086815-0.086815-0.086815h-0.86815c-0.0030062 0-0.0058591-2.954e-4 -0.0087848 0zm1.2097 0c-0.043886 0.0044302-0.077513 0.041722-0.077513 0.086815v0.41857c0 0.048099 0.038716 0.086815 0.086815 0.086815h0.86815c0.048098 0 0.086815-0.038716 0.086815-0.086815v-0.41857c0-0.048099-0.038716-0.086815-0.086815-0.086815h-0.86815c-0.0030061 0-0.0063758-2.954e-4 -0.0093016 0zm1.2247 0c-0.043886 0.0044302-0.07803 0.041722-0.07803 0.086815v0.41857c0 0.048099 0.038716 0.086815 0.086815 0.086815h0.86815c0.048098 0 0.086815-0.038716 0.086815-0.086815v-0.41857c0-0.048099-0.038717-0.086815-0.086815-0.086815h-0.86815c-0.003006 0-0.005859-2.954e-4 -0.008785 0zm1.2082 0c-0.043886 0.0044302-0.07803 0.041722-0.07803 0.086815v0.41857c0 0.048099 0.038717 0.086815 0.086815 0.086815h0.86815c0.048099 0 0.086815-0.038716 0.086815-0.086815v-0.41857c0-0.048099-0.038716-0.086815-0.086815-0.086815h-0.86815c-0.003006 0-0.005859-2.954e-4 -0.008785 0zm1.2242 0c-0.043886 0.0044302-0.077513 0.041722-0.077513 0.086815v0.41857c0 0.048099 0.038716 0.086815 0.086814 0.086815h0.86815c0.048099 0 0.086815-0.038716 0.086815-0.086815v-0.41857c0-0.048099-0.038716-0.086815-0.086815-0.086815h-0.86815c-0.003006 0-0.006375-2.954e-4 -0.009301 0zm1.2102 0c-0.043886 0.0044302-0.07803 0.041722-0.07803 0.086815v0.41857c0 0.048099 0.038716 0.086815 0.086815 0.086815h0.86815c0.048098 0 0.086815-0.038716 0.086815-0.086815v-0.41857c0-0.048099-0.038717-0.086815-0.086815-0.086815h-0.86815c-0.003006 0-0.005859-2.954e-4 -0.008785 0zm1.2356 0c-0.043886 0.0044302-0.07803 0.041722-0.07803 0.086815v0.41857c0 0.048099 0.038717 0.086815 0.086815 0.086815h0.54828c0.048099 0 0.086815-0.038716 0.086815-0.086815v-0.41857c0-0.048099-0.038716-0.086815-0.086815-0.086815h-0.54828c-0.003006 0-0.005859-2.954e-4 -0.008785 0zm0.8914 0c-0.043886 0.0044302-0.07803 0.041722-0.07803 0.086815v0.41857c0 0.048099 0.038716 0.086815 0.086815 0.086815h0.54828c0.048099 0 0.086815-0.038716 0.086815-0.086815v-0.41857c0-0.048099-0.038716-0.086815-0.086815-0.086815h-0.54828c-0.003006 0-0.005859-2.954e-4 -0.008785 0zm-15.461 0.77306c-0.068212 0-0.12299 0.055292-0.12299 0.1235v0.91104c0 0.068212 0.054775 0.12299 0.12299 0.12299h0.87952c0.068212 0 0.12299-0.054775 0.12299-0.12299v-0.91104c0-0.068212-0.054775-0.1235-0.12299-0.1235h-0.87952zm1.3436 0c-0.068212 0-0.12299 0.055292-0.12299 0.1235v0.91104c0 0.068212 0.054775 0.12299 0.12299 0.12299h0.879c0.068212 0 0.1235-0.054775 0.1235-0.12299v-0.91104c0-0.068212-0.055292-0.1235-0.1235-0.1235h-0.879zm1.343 0c-0.068212 0-0.12299 0.055292-0.12299 0.1235v0.91104c0 0.068212 0.054775 0.12299 0.12299 0.12299h0.87952c0.068212 0 0.12299-0.054775 0.12299-0.12299v-0.91104c0-0.068212-0.054775-0.1235-0.12299-0.1235h-0.87952zm1.342 0c-0.068212 0-0.1235 0.055292-0.1235 0.1235v0.91104c0 0.068212 0.055292 0.12299 0.1235 0.12299h0.879c0.068212 0 0.1235-0.054775 0.1235-0.12299v-0.91104c0-0.068212-0.055292-0.1235-0.1235-0.1235h-0.879zm1.343 0c-0.068212 0-0.12299 0.055292-0.12299 0.1235v0.91104c0 0.068212 0.054775 0.12299 0.12299 0.12299h0.87952c0.068212 0 0.12299-0.054775 0.12299-0.12299v-0.91104c0-0.068212-0.054775-0.1235-0.12299-0.1235h-0.87952zm1.3436 0c-0.068212 0-0.1235 0.055292-0.1235 0.1235v0.91104c0 0.068212 0.055292 0.12299 0.1235 0.12299h0.879c0.068212 0 0.12299-0.054775 0.12299-0.12299v-0.91104c0-0.068212-0.054775-0.1235-0.12299-0.1235h-0.879zm1.3415 0c-0.068212 0-0.12299 0.055292-0.12299 0.1235v0.91104c0 0.068212 0.054775 0.12299 0.12299 0.12299h0.87952c0.068212 0 0.12299-0.054775 0.12299-0.12299v-0.91104c0-0.068212-0.054775-0.1235-0.12299-0.1235h-0.87952zm1.343 0c-0.068212 0-0.12299 0.055292-0.12299 0.1235v0.91104c0 0.068212 0.054775 0.12299 0.12299 0.12299h0.87952c0.068213 0 0.12299-0.054775 0.12299-0.12299v-0.91104c0-0.068212-0.054775-0.1235-0.12299-0.1235h-0.87952zm1.2945 0c-0.068213 0-0.12299 0.055292-0.12299 0.1235v0.91104c0 0.068212 0.054775 0.12299 0.12299 0.12299h0.879c0.068212 0 0.1235-0.054775 0.1235-0.12299v-0.91104c0-0.068212-0.055292-0.1235-0.1235-0.1235h-0.879zm1.3415 0c-0.068213 0-0.12299 0.055292-0.12299 0.1235v0.91104c0 0.068212 0.054775 0.12299 0.12299 0.12299h0.87952c0.068213 0 0.12299-0.054775 0.12299-0.12299v-0.91104c0-0.068212-0.054775-0.1235-0.12299-0.1235h-0.87952zm1.3436 0c-0.068212 0-0.1235 0.055292-0.1235 0.1235v0.91104c0 0.068212 0.055292 0.12299 0.1235 0.12299h0.879c0.068213 0 0.12299-0.054775 0.12299-0.12299v-0.91104c0-0.068212-0.054775-0.1235-0.12299-0.1235h-0.879zm1.3399 0c-0.068213 0-0.12299 0.055292-0.12299 0.1235v0.91104c0 0.068212 0.054775 0.12299 0.12299 0.12299h1.2614c0.068212 0 0.1235-0.054775 0.1235-0.12299v-0.91104c0-0.068212-0.055292-0.1235-0.1235-0.1235h-1.2614zm-14.683 1.3327c-0.067163 0-0.12092 0.053758-0.12092 0.12092v0.89657c0 0.067163 0.053757 0.12092 0.12092 0.12092h1.3854c0.067163 0 0.12144-0.053757 0.12144-0.12092v-0.89657c0-0.067163-0.054274-0.12092-0.12144-0.12092h-1.3854zm1.8794 0c-0.067163 0-0.12092 0.053758-0.12092 0.12092v0.89657c0 0.067163 0.053757 0.12092 0.12092 0.12092h0.83301c0.067163 0 0.12092-0.053757 0.12092-0.12092v-0.89657c0-0.067163-0.053757-0.12092-0.12092-0.12092h-0.83301zm1.2878 0c-0.067163 0-0.12092 0.053758-0.12092 0.12092v0.89657c0 0.067163 0.053758 0.12092 0.12092 0.12092h0.83301c0.067163 0 0.12092-0.053757 0.12092-0.12092v-0.89657c0-0.067163-0.053758-0.12092-0.12092-0.12092h-0.83301zm1.3544 0c-0.067163 0-0.12092 0.053758-0.12092 0.12092v0.89657c0 0.067163 0.053757 0.12092 0.12092 0.12092h0.83301c0.067163 0 0.12092-0.053757 0.12092-0.12092v-0.89657c0-0.067163-0.053757-0.12092-0.12092-0.12092h-0.83301zm1.2878 0c-0.067163 0-0.12092 0.053758-0.12092 0.12092v0.89657c0 0.067163 0.053757 0.12092 0.12092 0.12092h0.83301c0.067163 0 0.12092-0.053757 0.12092-0.12092v-0.89657c0-0.067163-0.053757-0.12092-0.12092-0.12092h-0.83301zm1.3544 0c-0.067163 0-0.12092 0.053758-0.12092 0.12092v0.89657c0 0.067163 0.053758 0.12092 0.12092 0.12092h0.83301c0.067163 0 0.12092-0.053757 0.12092-0.12092v-0.89657c0-0.067163-0.053758-0.12092-0.12092-0.12092h-0.83301zm1.2878 0c-0.067163 0-0.12092 0.053758-0.12092 0.12092v0.89657c0 0.067163 0.053757 0.12092 0.12092 0.12092h0.83301c0.067163 0 0.12092-0.053757 0.12092-0.12092v-0.89657c0-0.067163-0.053757-0.12092-0.12092-0.12092h-0.83301zm1.3529 0c-0.067163 0-0.12144 0.053758-0.12144 0.12092v0.89657c0 0.067163 0.054274 0.12092 0.12144 0.12092h0.83301c0.067163 0 0.12092-0.053757 0.12092-0.12092v-0.89657c0-0.067163-0.053757-0.12092-0.12092-0.12092h-0.83301zm1.2878 0c-0.067163 0-0.12144 0.053758-0.12144 0.12092v0.89657c0 0.067163 0.054274 0.12092 0.12144 0.12092h0.83301c0.067163 0 0.12092-0.053757 0.12092-0.12092v-0.89657c0-0.067163-0.053758-0.12092-0.12092-0.12092h-0.83301zm1.3291 0c-0.067163 0-0.12144 0.053758-0.12144 0.12092v0.89657c0 0.067163 0.054274 0.12092 0.12144 0.12092h0.83301c0.067163 0 0.12092-0.053757 0.12092-0.12092v-0.89657c0-0.067163-0.053757-0.12092-0.12092-0.12092h-0.83301zm1.2878 0c-0.067163 0-0.12144 0.053758-0.12144 0.12092v0.89657c0 0.067163 0.054274 0.12092 0.12144 0.12092h0.83301c0.067163 0 0.12092-0.053757 0.12092-0.12092v-0.89657c0-0.067163-0.053758-0.12092-0.12092-0.12092h-0.83301zm1.3208 0c-0.067163 0-0.12092 0.053758-0.12092 0.12092v0.89657c0 0.067163 0.053757 0.12092 0.12092 0.12092h0.83301c0.067163 0 0.12144-0.053757 0.12144-0.12092v-0.89657c0-0.067163-0.054274-0.12092-0.12144-0.12092h-0.83301zm-15.03 1.326c-0.067163 0-0.12092 0.053757-0.12092 0.12092v0.89657c0 0.067163 0.053757 0.12092 0.12092 0.12092h1.7771c0.067163 0 0.12092-0.053757 0.12092-0.12092v-0.89657c0-0.067163-0.053757-0.12092-0.12092-0.12092h-1.7771zm2.252 0c-0.067163 0-0.12092 0.053757-0.12092 0.12092v0.89657c0 0.067163 0.053758 0.12092 0.12092 0.12092h0.83301c0.067163 0 0.12144-0.053757 0.12144-0.12092v-0.89657c0-0.067163-0.054274-0.12092-0.12144-0.12092h-0.83301zm1.2784 0c-0.067163 0-0.12144 0.053757-0.12144 0.12092v0.89657c0 0.067163 0.054274 0.12092 0.12144 0.12092h0.83301c0.067163 0 0.12092-0.053757 0.12092-0.12092v-0.89657c0-0.067163-0.053757-0.12092-0.12092-0.12092h-0.83301zm1.3529 0c-0.067163 0-0.12144 0.053757-0.12144 0.12092v0.89657c0 0.067163 0.054274 0.12092 0.12144 0.12092h0.83249c0.067163 0 0.12144-0.053757 0.12144-0.12092v-0.89657c0-0.067163-0.054274-0.12092-0.12144-0.12092h-0.83249zm1.2878 0c-0.067163 0-0.12144 0.053757-0.12144 0.12092v0.89657c0 0.067163 0.054274 0.12092 0.12144 0.12092h0.83301c0.067163 0 0.12092-0.053757 0.12092-0.12092v-0.89657c0-0.067163-0.053758-0.12092-0.12092-0.12092h-0.83301zm1.3544 0c-0.067163 0-0.12144 0.053757-0.12144 0.12092v0.89657c0 0.067163 0.054274 0.12092 0.12144 0.12092h0.83249c0.067163 0 0.12144-0.053757 0.12144-0.12092v-0.89657c0-0.067163-0.054274-0.12092-0.12144-0.12092h-0.83249zm1.2878 0c-0.067163 0-0.12144 0.053757-0.12144 0.12092v0.89657c0 0.067163 0.054274 0.12092 0.12144 0.12092h0.83301c0.067163 0 0.12092-0.053757 0.12092-0.12092v-0.89657c0-0.067163-0.053758-0.12092-0.12092-0.12092h-0.83301zm1.3544 0c-0.067163 0-0.12144 0.053757-0.12144 0.12092v0.89657c0 0.067163 0.054274 0.12092 0.12144 0.12092h0.83249c0.067163 0 0.12144-0.053757 0.12144-0.12092v-0.89657c0-0.067163-0.054274-0.12092-0.12144-0.12092h-0.83249zm1.2878 0c-0.067164 0-0.12144 0.053757-0.12144 0.12092v0.89657c0 0.067163 0.054274 0.12092 0.12144 0.12092h0.83249c0.067164 0 0.12144-0.053757 0.12144-0.12092v-0.89657c0-0.067163-0.054274-0.12092-0.12144-0.12092h-0.83249zm1.3291 0c-0.067163 0-0.12144 0.053757-0.12144 0.12092v0.89657c0 0.067163 0.054274 0.12092 0.12144 0.12092h0.83249c0.067163 0 0.12144-0.053757 0.12144-0.12092v-0.89657c0-0.067163-0.054274-0.12092-0.12144-0.12092h-0.83249zm1.3544 0c-0.067163 0-0.12144 0.053757-0.12144 0.12092v0.89657c0 0.067163 0.054274 0.12092 0.12144 0.12092h1.8293c0.067163 0 0.12092-0.053757 0.12092-0.12092v-0.89657c0-0.067163-0.053757-0.12092-0.12092-0.12092h-1.8293zm-14.139 1.3053c-0.067163 0-0.12092 0.053757-0.12092 0.12092v0.89657c0 0.067163 0.053757 0.12144 0.12092 0.12144h2.1642c0.067163 0 0.12144-0.054274 0.12144-0.12144v-0.89657c0-0.067163-0.054274-0.12092-0.12144-0.12092h-2.1642zm2.6582 0c-0.067163 0-0.12144 0.053757-0.12144 0.12092v0.89657c0 0.067163 0.054274 0.12144 0.12144 0.12144h0.83301c0.067163 0 0.12092-0.054274 0.12092-0.12144v-0.89657c0-0.067163-0.053757-0.12092-0.12092-0.12092h-0.83301zm1.2878 0c-0.067163 0-0.12092 0.053757-0.12092 0.12092v0.89657c0 0.067163 0.053758 0.12144 0.12092 0.12144h0.83301c0.067163 0 0.12092-0.054274 0.12092-0.12144v-0.89657c0-0.067163-0.053757-0.12092-0.12092-0.12092h-0.83301zm1.3544 0c-0.067163 0-0.12144 0.053757-0.12144 0.12092v0.89657c0 0.067163 0.054274 0.12144 0.12144 0.12144h0.83301c0.067163 0 0.12092-0.054274 0.12092-0.12144v-0.89657c0-0.067163-0.053757-0.12092-0.12092-0.12092h-0.83301zm1.2878 0c-0.067163 0-0.12144 0.053757-0.12144 0.12092v0.89657c0 0.067163 0.054274 0.12144 0.12144 0.12144h0.83301c0.067163 0 0.12092-0.054274 0.12092-0.12144v-0.89657c0-0.067163-0.053758-0.12092-0.12092-0.12092h-0.83301zm1.3544 0c-0.067163 0-0.12144 0.053757-0.12144 0.12092v0.89657c0 0.067163 0.054274 0.12144 0.12144 0.12144h0.83301c0.067163 0 0.12092-0.054274 0.12092-0.12144v-0.89657c0-0.067163-0.053758-0.12092-0.12092-0.12092h-0.83301zm1.2878 0c-0.067163 0-0.12144 0.053757-0.12144 0.12092v0.89657c0 0.067163 0.054274 0.12144 0.12144 0.12144h0.83301c0.067163 0 0.12092-0.054274 0.12092-0.12144v-0.89657c0-0.067163-0.053757-0.12092-0.12092-0.12092h-0.83301zm1.3291 0c-0.067163 0-0.12144 0.053757-0.12144 0.12092v0.89657c0 0.067163 0.054274 0.12144 0.12144 0.12144h0.83249c0.067163 0 0.12144-0.054274 0.12144-0.12144v-0.89657c0-0.067163-0.054274-0.12092-0.12144-0.12092h-0.83249zm1.326 0c-0.067163 0-0.12144 0.053757-0.12144 0.12092v0.89657c0 0.067163 0.054274 0.12144 0.12144 0.12144h0.83249c0.067163 0 0.12144-0.054274 0.12144-0.12144v-0.89657c0-0.067163-0.054274-0.12092-0.12144-0.12092h-0.83249zm1.3337 0c-0.067163 0-0.12144 0.053757-0.12144 0.12092v0.89657c0 0.067163 0.054274 0.12144 0.12144 0.12144h2.7486c0.067163 0 0.12144-0.054274 0.12144-0.12144v-0.89657c0-0.067163-0.054274-0.12092-0.12144-0.12092h-2.7486zm-13.203 1.326c-0.067163 0-0.12092 0.053757-0.12092 0.12092v0.89657c0 0.067163 0.053757 0.12144 0.12092 0.12144h0.83301c0.067163 0 0.12092-0.054274 0.12092-0.12144v-0.89657c0-0.067163-0.053758-0.12092-0.12092-0.12092h-0.83301zm1.2878 0c-0.067163 0-0.12092 0.053757-0.12092 0.12092v0.89657c0 0.067163 0.053757 0.12144 0.12092 0.12144h0.83301c0.067163 0 0.12092-0.054274 0.12092-0.12144v-0.89657c0-0.067163-0.053757-0.12092-0.12092-0.12092h-0.83301zm1.3544 0c-0.067163 0-0.12144 0.053757-0.12144 0.12092v0.89657c0 0.067163 0.054274 0.12144 0.12144 0.12144h0.83301c0.067163 0 0.12092-0.054274 0.12092-0.12144v-0.89657c0-0.067163-0.053757-0.12092-0.12092-0.12092h-0.83301zm1.2878 0c-0.067163 0-0.12092 0.053757-0.12092 0.12092v0.89657c0 0.067163 0.053758 0.12144 0.12092 0.12144h0.83301c0.067163 0 0.12092-0.054274 0.12092-0.12144v-0.89657c0-0.067163-0.053757-0.12092-0.12092-0.12092h-0.83301zm1.3275 0c-0.067163 0-0.12144 0.053757-0.12144 0.12092v0.89657c0 0.067163 0.054274 0.12144 0.12144 0.12144h4.8735c0.067163 0 0.12092-0.054274 0.12092-0.12144v-0.89657c0-0.067163-0.053757-0.12092-0.12092-0.12092h-4.8735zm5.2859 0c-0.067163 0-0.12144 0.053757-0.12144 0.12092v0.89657c0 0.067163 0.054274 0.12144 0.12144 0.12144h0.83249c0.067163 0 0.12144-0.054274 0.12144-0.12144v-0.89657c0-0.067163-0.054274-0.12092-0.12144-0.12092h-0.83249zm1.326 0c-0.067163 0-0.12144 0.053757-0.12144 0.12092v0.89657c0 0.067163 0.054274 0.12144 0.12144 0.12144h0.83249c0.067163 0 0.12144-0.054274 0.12144-0.12144v-0.89657c0-0.067163-0.054274-0.12092-0.12144-0.12092h-0.83249zm2.1916 0c-0.067163 0-0.12144 0.053757-0.12144 0.12092v0.89657c0 0.067163 0.054274 0.12144 0.12144 0.12144h0.83301c0.067163 0 0.12092-0.054274 0.12092-0.12144v-0.89657c0-0.067163-0.053757-0.12092-0.12092-0.12092h-0.83301zm-0.99165 0.50952c-0.037079 0-0.066661 0.030098-0.066661 0.067178v0.49557c0 0.037079 0.029582 0.066661 0.066661 0.066661h0.72036c0.03708 0 0.066662-0.029582 0.066662-0.066661v-0.49557c0-0.03708-0.029582-0.067178-0.066662-0.067178h-0.72036zm2.0965 0c-0.03708 0-0.066662 0.030098-0.066662 0.067178v0.49557c0 0.037079 0.029582 0.066661 0.066662 0.066661h0.72036c0.03708 0 0.066661-0.029582 0.066661-0.066661v-0.49557c0-0.03708-0.029581-0.067178-0.066661-0.067178h-0.72036z" fill="#f9f9f9" stroke="#b8b8b8" stroke-linecap="round" stroke-linejoin="round" stroke-width=".052916"/>
</svg>
