<svg xmlns="http://www.w3.org/2000/svg" width="64" height="64" viewBox="0 0 16.933 16.933"><defs><linearGradient id="a" x1="29.049" x2="29.049" y1="3.457" y2="40.296" gradientTransform="matrix(.29985 0 0 .27371 -1.129 -.292)" gradientUnits="userSpaceOnUse"><stop offset="0" stop-color="#4285db"/><stop offset="1" stop-color="#42b9db"/></linearGradient></defs><g stroke-width=".265"><rect width="10.054" height="16.933" x="3.439" fill="#4d4d4d" rx="1.323" ry="1.323" style="paint-order:stroke fill markers"/><rect width="8.996" height="15.875" x="3.969" y=".529" fill="url(#a)" rx=".794" ry=".794" style="paint-order:stroke fill markers"/><circle cx="8.466" cy="1.587" r=".265" fill="#333" style="paint-order:stroke fill markers"/><rect width="4.762" height=".265" x="6.085" y="15.346" fill="#fff" opacity=".5" rx=".132" ry=".132" style="paint-order:stroke fill markers"/></g><path fill="#fff" d="M4.762.53a.79.79 0 0 0-.793.793V15.61c0 .44.354.794.793.794h7.409c.44 0 .793-.354.793-.794V1.323a.79.79 0 0 0-.793-.794zm0 .08h7.408a.71.71 0 0 1 .715.712V15.61a.71.71 0 0 1-.715.715H4.762a.71.71 0 0 1-.713-.715V1.322c0-.397.316-.713.713-.713" color="#000" opacity=".1" style="-inkscape-stroke:none;paint-order:stroke fill markers"/><path d="M4.763.45a.873.873 0 0 0-.874.872V15.61c0 .483.391.873.874.873h7.408c.482 0 .873-.39.873-.873V1.322A.873.873 0 0 0 12.17.45zm0 .08h7.408c.44 0 .794.353.794.793V15.61c0 .44-.354.794-.794.794H4.763a.79.79 0 0 1-.794-.794V1.323c0-.44.354-.794.794-.794" color="#000" opacity=".25" style="-inkscape-stroke:none;paint-order:stroke fill markers"/><path fill="#fff" d="M4.762 0A1.32 1.32 0 0 0 3.44 1.323V15.61c0 .733.59 1.323 1.322 1.323h7.409a1.32 1.32 0 0 0 1.323-1.323V1.323A1.32 1.32 0 0 0 12.17 0zm0 .133h7.408c.662 0 1.191.528 1.191 1.19v14.286c0 .662-.53 1.192-1.19 1.192H4.76c-.661 0-1.189-.53-1.189-1.192V1.322c0-.661.528-1.19 1.19-1.19" color="#000" opacity=".1" style="-inkscape-stroke:none;paint-order:stroke fill markers"/></svg>