<svg width="64" height="64" version="1.1" viewBox="0 0 16.933 16.933" xmlns="http://www.w3.org/2000/svg" xmlns:xlink="http://www.w3.org/1999/xlink">
 <defs>
  <linearGradient id="a-9" x1="29.049" x2="29.049" y1="3.457" y2="40.296" gradientTransform="matrix(.29985 0 0 .27371 -1.129 -.29183)" gradientUnits="userSpaceOnUse">
   <stop stop-color="#4285db" offset="0"/>
   <stop stop-color="#42b9db" offset="1"/>
  </linearGradient>
 </defs>
 <g stroke-width=".26458">
  <rect x="3.4395" width="10.054" height="16.933" rx="1.3229" ry="1.3229" fill="#4d4d4d" style="paint-order:stroke fill markers"/>
  <rect x="3.9687" y=".52916" width="8.9957" height="15.875" rx=".79373" ry=".79373" fill="url(#a-9)" style="paint-order:stroke fill markers"/>
  <circle cx="8.4665" cy="1.5875" r=".26458" fill="#333333" style="paint-order:stroke fill markers"/>
  <rect x="6.0853" y="15.346" width="4.7624" height=".26458" rx=".13229" ry=".13229" fill="#ffffff" opacity=".5" style="paint-order:stroke fill markers"/>
 </g>
 <path d="m4.7624 0.52916c-0.43973 0-0.79373 0.35401-0.79373 0.79373v14.287c0 0.43973 0.35401 0.79374 0.79373 0.79374h7.4082c0.43973 0 0.79373-0.35401 0.79373-0.79374v-14.287c0-0.43973-0.35401-0.79373-0.79373-0.79373h-7.4082zm-5.167e-4 0.080097h7.4082c0.39713 0 0.71467 0.31599 0.71467 0.71312v14.287c0 0.39713-0.31754 0.71467-0.71467 0.71467h-7.4082c-0.39713 0-0.71312-0.31754-0.71312-0.71467v-14.287c0-0.39713 0.31599-0.71312 0.71312-0.71312z" color="#000000" fill="#ffffff" opacity=".1" stroke-linecap="round" stroke-linejoin="round" style="-inkscape-stroke:none;paint-order:stroke fill markers"/>
 <path d="m4.7627 0.44906c-0.48233 0-0.87332 0.39099-0.87332 0.87331v14.287c0 0.48233 0.39099 0.8728 0.87332 0.8728h7.4082c0.48233 0 0.8728-0.39047 0.8728-0.8728v-14.287c0-0.48233-0.39047-0.87331-0.8728-0.87331zm5.17e-4 0.080097h7.4082c0.43973 0 0.79373 0.35401 0.79373 0.79373v14.287c0 0.43973-0.35401 0.79374-0.79373 0.79374h-7.4082c-0.43973 0-0.79374-0.35401-0.79374-0.79374v-14.287c0-0.43973 0.35401-0.79373 0.79374-0.79373z" color="#000000" fill="#000000" opacity=".25" stroke-linecap="round" stroke-linejoin="round" style="-inkscape-stroke:none;paint-order:stroke fill markers"/>
 <path d="m4.7624 0c-0.73288-1.5666e-16 -1.3229 0.59001-1.3229 1.3229v14.287c0 0.73288 0.59001 1.3229 1.3229 1.3229h7.4082c0.73288 0 1.3229-0.59001 1.3229-1.3229v-14.287c0-0.73288-0.59001-1.3229-1.3229-1.3229h-7.4082zm-5.167e-4 0.13281h7.4082c0.66188 0 1.1911 0.52769 1.1911 1.1896v14.287c0 0.66188-0.52924 1.1911-1.1911 1.1911h-7.4082c-0.66188 0-1.1896-0.52924-1.1896-1.1911v-14.287c0-0.66188 0.52769-1.1896 1.1896-1.1896z" color="#000000" fill="#ffffff" opacity=".1" style="-inkscape-stroke:none;paint-order:stroke fill markers"/>
</svg>
