<svg width="64" height="64" version="1.1" viewBox="0 0 16.933 16.933" xmlns="http://www.w3.org/2000/svg" xmlns:xlink="http://www.w3.org/1999/xlink">
 <defs>
  <linearGradient id="linearGradient4616" x2="0" y1="-521.8" y2="-518.8" gradientTransform="matrix(.34725 0 0 .35277 -133.41 176.4)" gradientUnits="userSpaceOnUse" xlink:href="#linearGradient4610"/>
  <linearGradient id="linearGradient4610">
   <stop stop-color="#84cbfe" offset="0"/>
   <stop stop-color="#84cbfe" stop-opacity="0" offset="1"/>
  </linearGradient>
  <linearGradient id="linearGradient4616-6" x2="0" y1="-521.8" y2="-518.8" gradientTransform="matrix(.34725 0 0 .35277 -133.41 192.28)" gradientUnits="userSpaceOnUse" xlink:href="#linearGradient4610"/>
  <linearGradient id="linearGradient4158" x2="0" y1="543.8" y2="503.8" gradientTransform="matrix(.38043 0 0 .29765 -146.96 -147.05)" gradientUnits="userSpaceOnUse">
   <stop stop-color="#c6cdd1" offset="0"/>
   <stop stop-color="#e0e5e7" offset="1"/>
  </linearGradient>
 </defs>
 <rect x="2.3812" y="2.9104" width="12.174" height="11.906" rx="0" fill="url(#linearGradient4158)" stroke-width=".26458"/>
 <path d="m2.3812 13.952v0.86437c0 0.39062 0.24227 0.52916 0.62956 0.52916h11.012c0.26458 0 0.52916-0.26457 0.52916-0.52916l-2e-6 -0.79373z" fill="#dfe4e6" stroke-width=".26458"/>
 <rect x="2.9104" y="3.4395" width="11.112" height="10.054" fill="#2085da" stroke-linecap="round" stroke-linejoin="bevel" stroke-width="1.6404"/>
 <path d="m2.3812 2.9104 2.6e-6 -0.79374c0-0.26457 0.26458-0.52916 0.54107-0.52916h11.1c0.26458 0 0.52916 0.26458 0.52916 0.52916l-2e-6 0.79374z" fill="#3d4752" stroke-width=".26458"/>
 <g stroke-linecap="round">
  <g stroke-linejoin="bevel" stroke-width="1.6809">
   <rect x="2.9104" y="7.6728" width="11.112" height=".52915" fill="#84cbfe"/>
   <rect x="2.9104" y="8.2019" width="11.112" height="1.0583" fill="url(#linearGradient4616-6)" opacity=".2"/>
   <rect transform="scale(1,-1)" x="2.9104" y="-7.6728" width="11.112" height="1.0583" fill="url(#linearGradient4616)" opacity=".2"/>
  </g>
  <g stroke-linejoin="round">
   <path d="m13.229 14.023h-9.5248v0.52915c0 0.26458 0.26458 0.52916 0.52916 0.52916h8.4665c0.26458 0 0.52916-0.26457 0.52916-0.52916z" fill="#3e4752" stroke-width=".52916"/>
   <circle transform="matrix(0,-1,-1,0,0,0)" cx="-14.552" cy="-12.435" r=".26458" fill="#11d116" stroke-width=".52916"/>
   <path d="m2.9434 1.5875c-0.31145 0-0.56223 0.25078-0.56223 0.56223v12.634c0 0.31144 0.25078 0.56223 0.56223 0.56223h11.046c0.31145 0 0.56223-0.25078 0.56223-0.56223v-12.634c0-0.31145-0.25078-0.56223-0.56223-0.56223zm0 0.078547h11.047c0.26885 0 0.48265 0.21535 0.48265 0.4842v12.633c0 0.26885-0.2138 0.48213-0.48265 0.48213h-11.047c-0.26885 0-0.48265-0.21328-0.48265-0.48213v-12.633c0-0.26885 0.2138-0.4842 0.48265-0.4842z" color="#000000" fill="#000000" opacity=".15" style="-inkscape-stroke:none;paint-order:markers fill stroke"/>
   <path d="m2.9104 3.4395v10.054h11.112v-10.054zm0.080097 0.080097h10.953v9.8943h-10.953z" color="#000000" fill="#ffffff" opacity=".1" style="-inkscape-stroke:none"/>
  </g>
  <path d="m2.9104 3.3594-0.080097 0.080097v10.054l0.080097 0.07803h11.113l0.07803-0.07803v-10.054l-0.07803-0.080097zm0 0.080097h11.112v10.054h-11.112z" color="#000000" fill="#1b67a7" stroke-linejoin="bevel" style="-inkscape-stroke:none"/>
 </g>
</svg>
