<svg xmlns="http://www.w3.org/2000/svg" xmlns:xlink="http://www.w3.org/1999/xlink" width="64" height="64" viewBox="0 0 16.933 16.933"><defs><linearGradient xlink:href="#a" id="d" x2="0" y1="-521.8" y2="-518.8" gradientTransform="matrix(.34725 0 0 .35277 -133.41 176.4)" gradientUnits="userSpaceOnUse"/><linearGradient id="a"><stop offset="0" stop-color="#84cbfe"/><stop offset="1" stop-color="#84cbfe" stop-opacity="0"/></linearGradient><linearGradient xlink:href="#a" id="c" x2="0" y1="-521.8" y2="-518.8" gradientTransform="matrix(.34725 0 0 .35277 -133.41 192.28)" gradientUnits="userSpaceOnUse"/><linearGradient id="b" x2="0" y1="543.8" y2="503.8" gradientTransform="matrix(.38043 0 0 .29765 -146.96 -147.05)" gradientUnits="userSpaceOnUse"><stop offset="0" stop-color="#c6cdd1"/><stop offset="1" stop-color="#e0e5e7"/></linearGradient></defs><rect width="12.174" height="11.906" x="2.381" y="2.91" fill="url(#b)" rx="0"/><path fill="#dfe4e6" d="M2.381 13.952v.864c0 .391.242.53.63.53h11.012c.264 0 .529-.265.529-.53v-.793z"/><path fill="#2085da" d="M2.91 3.439h11.112v10.054H2.91z"/><path fill="#3d4752" d="M2.381 2.91v-.793c0-.265.265-.53.541-.53h11.1c.265 0 .53.265.53.53v.793z"/><g stroke-linecap="round"><g stroke-linejoin="bevel" stroke-width="1.681"><path fill="#84cbfe" d="M2.91 7.673h11.112v.529H2.91z"/><path fill="url(#c)" d="M2.91 8.202h11.112V9.26H2.91z" opacity=".2"/><path fill="url(#d)" d="M2.91-7.673h11.112v1.058H2.91z" opacity=".2" transform="scale(1 -1)"/></g><g stroke-linejoin="round"><path fill="#3e4752" d="M13.229 14.023H3.704v.53c0 .264.265.528.53.528H12.7c.264 0 .529-.264.529-.529z"/><circle cx="-14.552" cy="-12.435" r=".265" fill="#11d116" transform="scale(1 -1)rotate(90)"/><path d="M2.943 1.588a.56.56 0 0 0-.562.562v12.634c0 .311.251.562.562.562H13.99c.312 0 .563-.25.563-.562V2.15a.56.56 0 0 0-.563-.562zm0 .078H13.99c.27 0 .483.215.483.484v12.633a.48.48 0 0 1-.483.482H2.943a.48.48 0 0 1-.482-.482V2.15c0-.269.214-.484.482-.484" color="#000" opacity=".15" style="-inkscape-stroke:none;paint-order:markers fill stroke"/><path fill="#fff" d="M2.91 3.44v10.054h11.112V3.44zm.08.08h10.953v9.894H2.99z" color="#000" opacity=".1" style="-inkscape-stroke:none"/></g><path fill="#1b67a7" d="m2.91 3.36-.08.08v10.053l.08.079h11.113l.078-.079V3.44l-.078-.08zm0 .08h11.112v10.053H2.91z" color="#000" style="-inkscape-stroke:none"/></g></svg>