<svg width="24" height="24" version="1.1" viewBox="0 0 24 24" xmlns="http://www.w3.org/2000/svg">
 <style id="current-color-scheme" type="text/css">.ColorScheme-Text {
            color:#363636;
        }</style>
 <path class="ColorScheme-Text" d="m9 3c-1.108 0-2 0.892-2 2v3c0 1.108 0.892 2 2 2h6c1.108 0 2-0.892 2-2v-3c0-1.108-0.892-2-2-2zm0 1h6c0.554 0 1 0.446 1 1v3c0 0.554-0.446 1-1 1h-6c-0.554 0-1-0.446-1-1v-3c0-0.554 0.446-1 1-1zm-6 7v1h18v-1zm9 2a4 4 0 0 0-4 4 4 4 0 0 0 4 4 4 4 0 0 0 4-4 4 4 0 0 0-4-4zm0 1a3 3 0 0 1 3 3 3 3 0 0 1-3 3 3 3 0 0 1-3-3 3 3 0 0 1 3-3z" fill="currentColor"/>
</svg>
