<svg width="24" height="24" version="1.1" viewBox="0 0 24 24" xmlns="http://www.w3.org/2000/svg">
 <defs>
  <style id="current-color-scheme" type="text/css">.ColorScheme-Text {
        color:#363636;
      }</style>
 </defs>
 <path class="ColorScheme-Text" d="m8 4c-1.108 0-2 0.892-2 2v12c0 1.108 0.892 2 2 2h10c1.108 0 2-0.892 2-2v-12c0-1.108-0.892-2-2-2zm0 1h1v14h-1c-0.554 0-1-0.446-1-1v-12c0-0.554 0.446-1 1-1zm2 0h8c0.554 0 1 0.446 1 1v12c0 0.554-0.446 1-1 1h-8zm-6 1v3h1v-3zm0 9v3h1v-3z" fill="currentColor"/>
</svg>
