<svg version="1.1" viewBox="0 0 24 24" xmlns="http://www.w3.org/2000/svg">
 <defs>
  <style id="current-color-scheme" type="text/css">.ColorScheme-Text {
        color:#363636;
      }</style>
 </defs>
 <path class="ColorScheme-Text" d="m20 18c0 1.108-0.892 2-2 2h-3c-1.108 0-2-0.892-2-2v-2c0-1.108 0.892-2 2-2h3c1.108 0 2 0.892 2 2zm-1 0v-2c0-0.554-0.446-1-1-1h-3c-0.554 0-1 0.446-1 1v2c0 0.554 0.446 1 1 1h3c0.554 0 1-0.446 1-1zm0-10c0 1.108-0.892 2-2 2h-2c-1.108 0-2-0.892-2-2v-2c0-1.108 0.892-2 2-2h2c1.108 0 2 0.892 2 2zm-1 0v-2c0-0.554-0.446-1-1-1h-2c-0.554 0-1 0.446-1 1v2c0 0.554 0.446 1 1 1h2c0.554 0 1-0.446 1-1zm-7 11.5c0 0.277-0.223 0.5-0.5 0.5s-0.5-0.223-0.5-0.5v-15c0-0.277 0.223-0.5 0.5-0.5s0.5 0.223 0.5 0.5zm-3-10.5c0 0.554-0.446 1-1 1h-2c-0.554 0-1-0.446-1-1v-4c0-0.554 0.446-1 1-1h2c0.554 0 1 0.446 1 1z" fill="currentColor"/>
</svg>
