<svg version="1.1" viewBox="0 0 24 24" xmlns="http://www.w3.org/2000/svg">
 <defs>
  <style id="current-color-scheme" type="text/css">.ColorScheme-Text {
        color:#363636;
      }</style>
 </defs>
 <path class="ColorScheme-Text" d="m8 14c-1.108 0-2 0.892-2 2v1c0 1.108 0.892 2 2 2h8c1.108 0 2-0.892 2-2v-1c0-1.108-0.892-2-2-2h-8zm0 1h8c0.554 0 1 0.446 1 1v1c0 0.554-0.446 1-1 1h-8c-0.554 0-1-0.446-1-1v-1c0-0.554 0.446-1 1-1z" fill="currentColor"/>
 <path class="ColorScheme-Text" d="m11 5c-1.108 0-2 0.892-2 2v1c0 1.108 0.892 2 2 2h2c1.108 0 2-0.892 2-2v-1c0-1.108-0.892-2-2-2zm0 1h2c0.554 0 1 0.446 1 1v1c0 0.554-0.446 1-1 1h-2c-0.554 0-1-0.446-1-1v-1c0-0.554 0.446-1 1-1z" fill="currentColor"/>
 <path class="ColorScheme-Text" d="m12 4c-0.277 0-0.5 0.223-0.5 0.5v1.5h1v-1.5c0-0.277-0.223-0.5-0.5-0.5zm-0.5 5v6h1v-6zm0 9v1.5c0 0.277 0.223 0.5 0.5 0.5s0.5-0.223 0.5-0.5v-1.5z" fill="currentColor"/>
</svg>
