<svg version="1.1" viewBox="0 0 24 24" xmlns="http://www.w3.org/2000/svg">
 <defs>
  <style id="current-color-scheme" type="text/css">.ColorScheme-Text {
        color:#363636;
      }</style>
 </defs>
 <path class="ColorScheme-Text" d="m5 6c-0.554 0-1 0.446-1 1s0.446 1 1 1h14c0.554 0 1-0.446 1-1s-0.446-1-1-1h-14zm0 5c-0.554 0-1 0.446-1 1s0.446 1 1 1h14c0.554 0 1-0.446 1-1s-0.446-1-1-1h-14zm0 5c-0.554 0-1 0.446-1 1s0.446 1 1 1h14c0.554 0 1-0.446 1-1s-0.446-1-1-1h-14z" fill="currentColor"/>
</svg>
