<svg width="24" height="24" version="1.1" xmlns="http://www.w3.org/2000/svg">
 <defs>
  <style id="current-color-scheme" type="text/css">.ColorScheme-NegativeText {
                color:#da4453;
            }</style>
 </defs>
 <path class="ColorScheme-NegativeText" d="m6 4c-1.108 0-2 0.892-2 2v12c0 1.108 0.892 2 2 2h12c1.108 0 2-0.892 2-2v-12c0-1.108-0.892-2-2-2h-12zm0 4h12c0.554 0 1 0.446 1 1v9c0 0.554-0.446 1-1 1h-12c-0.554 0-1-0.446-1-1v-9c0-0.554 0.446-1 1-1zm4 4c-0.554 0-1 0.446-1 1s0.446 1 1 1h4c0.554 0 1-0.446 1-1s-0.446-1-1-1h-4z" fill="currentColor"/>
</svg>
