<svg version="1.1" viewBox="0 0 24 24" xmlns="http://www.w3.org/2000/svg">
 <defs>
  <style id="current-color-scheme" type="text/css">.ColorScheme-Text {
        color:#363636;
      }</style>
 </defs>
 <path class="ColorScheme-Text" d="m10 17c-0.554 0-1 0.446-1 1h-4.5c-0.277 0-0.5 0.223-0.5 0.5s0.223 0.5 0.5 0.5h4.5c0 0.554 0.446 1 1 1h4c0.554 0 1-0.446 1-1h4.5c0.277 0 0.5-0.223 0.5-0.5s-0.223-0.5-0.5-0.5h-4.5c0-0.554-0.446-1-1-1h-4zm2 0.5c0.554 0 1 0.446 1 1s-0.446 1-1 1-1-0.446-1-1 0.446-1 1-1z" fill="currentColor"/>
 <path class="ColorScheme-Text" d="m6 5c-1.108 0-2 0.892-2 2v9h1v-4h14v4h1v-8c0-1.108-0.892-2-2-2h-7.6289c-0.57985-0.0229-0.6047 0.076884-1.0391-0.35742-0.43381-0.43381-0.613-0.64213-1.332-0.64258h-2zm0 1h2c0.31116-1.7e-6 0.52033 1.414e-4 0.99805 0.4707 0.47877 0.47161 0.6388 0.5293 1 0.5293h8.002c0.554 0 1 0.446 1 1v3h-14v-4c0-0.554 0.446-1 1-1z" fill="currentColor"/>
</svg>
