<svg version="1.1" viewBox="0 0 24 24" xmlns="http://www.w3.org/2000/svg">
 <defs>
  <style id="current-color-scheme" type="text/css">.ColorScheme-Text {
        color:#363636;
      }</style>
 </defs>
 <path class="ColorScheme-Text" transform="translate(1,1)" d="m4 15v1h5.293l-2.293 2.293 0.70703 0.70703 3.5-3.5-3.5-3.5-0.70703 0.70703 2.293 2.293h-4.293z" fill="currentColor"/>
 <path class="ColorScheme-Text" d="m8 4c-1.662 0-3 1.338-3 3v8h1v-8c0-1.108 0.892-2 2-2h6v2c0 1.108 0.892 2 2 2h2v8c0 1.108-0.892 2-2 2h-4v1h4c1.662 0 3-1.338 3-3v-9l-4-4z" fill="currentColor"/>
</svg>
