<svg version="1.1" viewBox="0 0 24 24" xmlns="http://www.w3.org/2000/svg">
 <defs>
  <style id="current-color-scheme" type="text/css">.ColorScheme-Text {
        color:#363636;
      }</style>
 </defs>
 <path class="ColorScheme-Text" transform="translate(1,1)" d="m4 11v2h2v-2h-1 12-1v2h2v-2m-10 0v2h2v-2h-2m4 0v2h2v-2h-2m-6 3v2h2v-2h-2m4 0v2h2v-2h-2m4 0v2h2v-2h-2m-10 3v2h2v-2h-2m4 0v2h2v-2h-2m4 0v2h2v-2h-2m4 0v2h2v-2h-2" fill="currentColor"/>
 <path class="ColorScheme-Text" d="m8 4c-1.662 0-3 1.338-3 3v5h1v-5c0-1.108 0.892-2 2-2h6v2c0 1.108 0.892 2 2 2h2v4h1v-5l-4-4z" fill="currentColor"/>
</svg>
