<svg version="1.1" viewBox="0 0 24 24" xmlns="http://www.w3.org/2000/svg">
 <defs>
  <style id="current-color-scheme" type="text/css">.ColorScheme-Text {
        color:#363636;
      }</style>
 </defs>
 <path class="ColorScheme-Text" d="m7 4c-1.662 0-3 1.338-3 3v10c0 1.662 1.338 3 3 3h10c1.662 0 3-1.338 3-3v-10c0-1.662-1.338-3-3-3h-10zm0 4h10c1.108 0 2 0.892 2 2v7c0 1.108-0.892 2-2 2h-10c-1.108 0-2-0.892-2-2v-7c0-1.108 0.892-2 2-2zm0 1c-0.554 0-1 0.446-1 1v7c0 0.554 0.446 1 1 1h3c0.554 0 1-0.446 1-1v-7c0-0.554-0.446-1-1-1h-3zm5.5 1c-0.277 0-0.5 0.223-0.5 0.5s0.223 0.5 0.5 0.5h5c0.277 0 0.5-0.223 0.5-0.5s-0.223-0.5-0.5-0.5h-5zm0 3c-0.277 0-0.5 0.223-0.5 0.5s0.223 0.5 0.5 0.5h3c0.277 0 0.5-0.223 0.5-0.5s-0.223-0.5-0.5-0.5h-3zm-0.025391 3c-0.26491 0.013342-0.47461 0.23166-0.47461 0.5 0 0.277 0.223 0.5 0.5 0.5h1c0.277 0 0.5-0.223 0.5-0.5s-0.223-0.5-0.5-0.5h-1c-0.008656 0-0.016845-4.3e-4 -0.025391 0z" fill="currentColor"/>
</svg>
