<svg version="1.1" viewBox="0 0 24 24" xmlns="http://www.w3.org/2000/svg">
 <defs>
  <style id="current-color-scheme" type="text/css">.ColorScheme-Text {
                color:#363636;
            }
            .ColorScheme-NegativeText {
                color:#da4453;
            }</style>
 </defs>
 <path class="ColorScheme-Text" d="m12 6v1h4v2c0 1.108 0.892 2 2 2h2v3h1v-4l-4-4h-5zm-3 11c0 1.662 1.338 3 3 3h3v-1h-3c-1.108 0-2-0.892-2-2h-1z" fill="currentColor"/>
 <path class="ColorScheme-NegativeText" d="M 16.707,15 16,15.707 17.793,17.5 16,19.293 16.707,20 18.5,18.207 20.293,20 21,19.293 19.207,17.5 21,15.707 20.293,15 18.5,16.793 Z" fill="currentColor"/>
 <path class="ColorScheme-Text" d="m6 4c-1.662 0-3 1.338-3 3v8c0 1.662 1.338 3 3 3h6c1.662 0 3-1.338 3-3v-7l-4-4zm0 1h4v2c0 1.108 0.892 2 2 2h2v6c0 1.108-0.892 2-2 2h-6c-1.108 0-2-0.892-2-2v-8c0-1.108 0.892-2 2-2z" fill="currentColor"/>
</svg>
