<svg width="24" height="24" version="1.1" viewBox="0 0 24 24" xmlns="http://www.w3.org/2000/svg">
 <defs>
  <style id="current-color-scheme" type="text/css">.ColorScheme-Text {
                color:#363636;
            }</style>
 </defs>
 <path class="ColorScheme-Text" d="m4 12v1h16v-1h-16zm1 2v2h1v-2h-1zm13 0v2h1v-2h-1zm-13 3c0 1.3105 0.83335 2.4157 2 2.8262v-1.0938c-0.59808-0.34498-1-0.98965-1-1.7324h-1zm13 0c0 0.74277-0.40192 1.3874-1 1.7324v1.0938c1.1666-0.41051 2-1.5157 2-2.8262h-1zm-10 2v1h2v-1h-2zm3 0v1h2v-1h-2zm3 0v1h2v-1h-2z" fill="currentColor"/>
 <path class="ColorScheme-Text" d="m8 4c-1.662 0-3 1.338-3 3v5h1v-5c0-1.108 0.892-2 2-2h6v2c0 1.108 0.892 2 2 2h2v4h1v-5l-4-4z" fill="currentColor"/>
</svg>
