<svg version="1.1" viewBox="0 0 24 24" xmlns="http://www.w3.org/2000/svg">
 <defs>
  <style id="current-color-scheme" type="text/css">.ColorScheme-Text {
        color:#363636;
      }</style>
 </defs>
 <path class="ColorScheme-Text" transform="translate(1,1)" d="m4 2.998v2.002h2v-2h2v2h2v-2h2v2h2v-2h2v2h2v-2.002h-14m2 3.002v2h2v-2h-2m4 0v2h2v-2h-2m4 0v2h2v-2h-2m-10 3v2h2v-2h-2m4 0v2h2v-2h-2m5 2c-1.662 0-3 1.338-3 3s1.338 3 3 3c0.64939 0 1.2464-0.20859 1.7363-0.55664l2.5566 2.5566 0.70703-0.70703-2.5566-2.5566c0.34806-0.48997 0.55664-1.0869 0.55664-1.7363 0-1.662-1.338-3-3-3m0 1c1.108 0 2 0.892 2 2s-0.892 2-2 2-2-0.892-2-2 0.892-2 2-2" fill="currentColor"/>
 <path class="ColorScheme-Text" d="m5 12v5c0 1.662 1.338 3 3 3h6v-1h-6c-1.108 0-2-0.892-2-2v-5z" fill="currentColor"/>
</svg>
