<svg width="24" height="24" version="1.1" viewBox="0 0 24 24" xmlns="http://www.w3.org/2000/svg">
 <style id="current-color-scheme" type="text/css">.ColorScheme-Text {
            color:#363636;
        }</style>
 <path class="ColorScheme-Text" d="m12 4a8 8 0 0 0-8 8 8 8 0 0 0 8 8 8 8 0 0 0 8-8 8 8 0 0 0-8-8zm0 1a7 7 0 0 1 7 7 7 7 0 0 1-7 7 7 7 0 0 1-7-7 7 7 0 0 1 7-7zm-2.707 3-2.5 2.5 0.70703 0.70703 1.5-1.5v5.293h-2v1h10v-1h-3.8359c0.04354-0.09854 0.03404-0.2484 0.10938-0.33789 0.18696-0.22208 0.51598-0.45139 0.98437-0.73242 1.2865-0.77192 1.9732-1.4018 2.3496-1.9844s0.39258-1.13 0.39258-1.4453c0-1.3748-1.1252-2.5-2.5-2.5s-2.5 1.1252-2.5 2.5v0.5h1v-0.5c0-0.83434 0.66566-1.5 1.5-1.5s1.5 0.66566 1.5 1.5c0 0.3153 0.01615 0.51762-0.23242 0.90234s-0.81194 0.9399-2.0254 1.668c-0.49031 0.29419-0.91102 0.56511-1.2344 0.94922-0.22762 0.27038-0.3849 0.6024-0.45898 0.98047h-2.0488v-7h-0.70703z" fill="currentColor"/>
</svg>
