<svg width="24" height="24" version="1.1" xmlns="http://www.w3.org/2000/svg">
 <path d="m16.597 4.4051a2.99 2.99 0 0 0-2.121 0.877l-3.092 3.09c0.433-0.028 0.869 0.013 1.29 0.123l2.509-2.506c0.79-0.79 2.038-0.79 2.828 0s0.79 2.039 0 2.828l-4.242 4.243c-0.79 0.79-2.039 0.79-2.829 0a2.011 2.011 0 0 1-0.523-0.891l-0.77 0.77a3.004 3.004 0 0 0 4.828 0.828l4.243-4.243a3.004 3.004 0 0 0 0-4.242 2.99 2.99 0 0 0-2.121-0.877zm-4.95 4.95a2.99 2.99 0 0 0-2.12 0.877l-4.245 4.242a3.006 3.006 0 0 0 0 4.244 3.006 3.006 0 0 0 4.244 0l3.09-3.092a4.063 4.063 0 0 1-1.29-0.123l-2.507 2.508c-0.79 0.79-2.04 0.79-2.83 0s-0.79-2.04 0-2.83l4.244-4.242c0.79-0.79 2.039-0.79 2.829 0 0.258 0.258 0.432 0.567 0.521 0.892l0.771-0.771a2.99 2.99 0 0 0-2.707-1.705z" fill="#363636"/>
</svg>
