<svg width="24" height="24" version="1.1" xmlns="http://www.w3.org/2000/svg">
 <path d="m18.724 4.568-1.444 1.444a3.005 3.005 0 0 0-3.86 0.324l-1.675 1.676a4.07 4.07 0 0 1 1.291 0.123l1.093-1.092a1.981 1.981 0 0 1 2.43-0.31l-0.662 0.663a0.5 0.5 0 0 0 0.707 0.707l0.663-0.663a1.98 1.98 0 0 1-0.31 2.431l-1.685 1.685c0.14 0.374 0.225 0.764 0.256 1.159l2.136-2.137a3.005 3.005 0 0 0 0.324-3.859l1.444-1.444zm-10.253 6.717-2.136 2.137a3.005 3.005 0 0 0-0.324 3.859l-1.444 1.444 0.707 0.707 1.444-1.444a3.007 3.007 0 0 0 3.86-0.324l1.676-1.676a4.065 4.065 0 0 1-1.291-0.123l-1.094 1.092a1.981 1.981 0 0 1-2.43 0.31l0.662-0.663a0.5 0.5 0 0 0-0.707-0.707l-0.663 0.663a1.981 1.981 0 0 1 0.31-2.431l1.685-1.685a4.28 4.28 0 0 1-0.256-1.159z" color="#000000" fill="#363636" fill-rule="evenodd" stroke-linecap="round" stroke-linejoin="round" style="-inkscape-stroke:none"/>
</svg>
