<svg width="24" height="24" version="1.1" viewBox="0 0 24 24" xmlns="http://www.w3.org/2000/svg">
 <defs>
  <style id="current-color-scheme" type="text/css">.ColorScheme-Text {
                color:#363636;
            }</style>
 </defs>
 <path class="ColorScheme-Text" d="m5 4.5c-1.108 0-2 0.892-2 2v11c0 1.108 0.892 2 2 2h8v-1h-8c-0.554 0-1-0.446-1-1v-8h16v2h1v-4c0-1.108-0.892-2-2-2h-9.6289c-0.57985-0.0229-0.6047 0.076884-1.0391-0.35742-0.43381-0.43381-0.613-0.64213-1.332-0.64258zm0 1h2c0.31116-1.7e-6 0.52033 1.414e-4 0.99805 0.4707 0.47877 0.47161 0.6388 0.5293 1 0.5293h10.002c0.554 0 1 0.446 1 1v1h-16v-2c0-0.554 0.446-1 1-1z" fill="currentColor"/>
 <path class="ColorScheme-Text" d="m17.5 11.5c-1.385 0-2.5 1.115-2.5 2.5v0.5c-0.554 0-1 0.446-1 1v3c0 0.554 0.446 1 1 1h5c0.554 0 1-0.446 1-1v-3c0-0.554-0.446-1-1-1v-0.5c0-1.385-1.115-2.5-2.5-2.5zm0 1c0.831 0 1.5 0.669 1.5 1.5v0.5h-3v-0.5c0-0.831 0.669-1.5 1.5-1.5zm-2.5 3h5v3h-5z" fill="currentColor"/>
</svg>
