<svg version="1.1" viewBox="0 0 24 24" xmlns="http://www.w3.org/2000/svg">
 <defs>
  <style id="current-color-scheme" type="text/css">.ColorScheme-Text {
        color:#363636;
      }</style>
 </defs>
 <path class="ColorScheme-Text" d="m12 4c-2.216 0-4 1.784-4 4v1h1v-0.5c0-1.939 1.338-3.5 3-3.5s3 1.561 3 3.5v3.5h1v-4c0-2.216-1.784-4-4-4z" fill="currentColor"/>
 <path class="ColorScheme-Text" d="m8 12c-1.108 0-2 0.892-2 2v4c0 1.108 0.892 2 2 2h8c1.108 0 2-0.892 2-2v-4c0-1.108-0.892-2-2-2h-8zm0 1h8c0.554 0 1 0.446 1 1v4c0 0.554-0.446 1-1 1h-8c-0.554 0-1-0.446-1-1v-4c0-0.554 0.446-1 1-1z" fill="currentColor"/>
</svg>
