<?xml version="1.0" encoding="UTF-8" standalone="no"?>
<svg
   viewBox="0 0 24 24"
   width="24"
   height="24"
   version="1.1"
   id="svg757"
   sodipodi:docname="input-keyboard-virtual-hide.svg"
   inkscape:version="1.2.2 (b0a8486541, 2022-12-01)"
   xmlns:inkscape="http://www.inkscape.org/namespaces/inkscape"
   xmlns:sodipodi="http://sodipodi.sourceforge.net/DTD/sodipodi-0.dtd"
   xmlns="http://www.w3.org/2000/svg"
   xmlns:svg="http://www.w3.org/2000/svg">
  <defs
     id="defs761" />
  <sodipodi:namedview
     id="namedview759"
     pagecolor="#ffffff"
     bordercolor="#666666"
     borderopacity="1.0"
     inkscape:showpageshadow="2"
     inkscape:pageopacity="0.0"
     inkscape:pagecheckerboard="0"
     inkscape:deskcolor="#d1d1d1"
     showgrid="true"
     inkscape:zoom="27.812867"
     inkscape:cx="17.132358"
     inkscape:cy="17.348086"
     inkscape:window-width="2898"
     inkscape:window-height="1603"
     inkscape:window-x="333"
     inkscape:window-y="261"
     inkscape:window-maximized="0"
     inkscape:current-layer="svg757">
    <inkscape:grid
       type="xygrid"
       id="grid776" />
  </sodipodi:namedview>
  <style
     type="text/css"
     id="current-color-scheme">
        .ColorScheme-Text {
            color:#363636;
        }
    </style>
  <path
     class="ColorScheme-Text"
     d="m 5,2.9999853 c -1.108,0 -2,0.892 -2,2 v 7.0000007 c 0,1.108 0.892,2 2,2 h 14 c 1.108,0 2,-0.892 2,-2 V 4.9999853 c 0,-1.108 -0.892,-2 -2,-2 z m 0,1 h 14 c 0.554,0 1,0.446 1,1 H 4 c 0,-0.554 0.446,-1 1,-1 z m -1,2 h 16 v 6.0000007 c 0,0.554 -0.446,1 -1,1 H 5 c -0.554,0 -1,-0.446 -1,-1 z m 1,1 v 1 h 2 v -1 z m 3,0 v 1 h 2 v -1 z m 3,0 v 1 h 2 v -1 z m 3,0 v 1 h 2 v -1 z m 3,0 v 1 h 2 v -1 z m -12,2 V 9.9999857 H 7 V 8.9999853 Z m 3,0 v 1.0000004 h 2 V 8.9999853 Z m 3,0 v 1.0000004 h 2 V 8.9999853 Z m 3,0 v 1.0000004 h 2 V 8.9999853 Z m 3,0 v 1.0000004 h 2 V 8.9999853 Z M 5,10.999986 v 1 h 2 v -1 z m 3,0 v 1 h 8 v -1 z m 9,0 v 1 h 2 v -1 z m -9.293,4.293 -0.707029,0.70703 4.999999,4.999999 5,-4.999999 -0.70703,-0.70703 -4.292999,4.292999 -4.293,-4.292999 z"
     fill="currentColor"
     id="path725" />
</svg>
