<svg version="1.1" viewBox="0 0 24 24" xmlns="http://www.w3.org/2000/svg">
 <defs>
  <style id="current-color-scheme" type="text/css">.ColorScheme-Text {
        color:#363636;
      }</style>
 </defs>
 <path class="ColorScheme-Text" d="m6 5c-1.108 0-2 0.892-2 2v9c0 1.108 0.892 2 2 2h10v-1h-1c-0.554 0-1-0.446-1-1v-1c0-0.554 0.446-1 1-1h1v-1l-2-2-3.4785 4-2.5215-2-3 3v-9c0-0.554 0.446-1 1-1h12c0.554 0 1 0.446 1 1v6 1h1v-7c0-1.108-0.892-2-2-2h-12zm2.5 3c-0.82843 0-1.5 0.67157-1.5 1.5 0 0.82843 0.67157 1.5 1.5 1.5 0.82843 0 1.5-0.67157 1.5-1.5 0-0.82843-0.67157-1.5-1.5-1.5zm8.5 5v2h-2v1h2v2h1v-2h2v-1h-2v-2h-1z" fill="currentColor"/>
</svg>
