<svg version="1.1" viewBox="0 0 24 24" xmlns="http://www.w3.org/2000/svg">
 <defs>
  <style id="current-color-scheme" type="text/css">.ColorScheme-Text {
        color:#363636;
      }</style>
 </defs>
 <path class="ColorScheme-Text" d="m17 9v6.5c-0.4182-0.3148-0.934-0.5-1.5-0.5-1.385 0-2.5 1.115-2.5 2.5s1.115 2.5 2.5 2.5 2.5-1.115 2.5-2.5v-6.5h2c0-1.108-0.892-2-2-2z" fill="currentColor"/>
 <path class="ColorScheme-Text" d="m13 9a3 3 0 0 0-3 3 3 3 0 0 0 3 3 3 3 0 0 0 0.06445-0.0039c0.56879-0.55343 1.323-0.91738 2.1562-0.98438a3 3 0 0 0 0.7793-2.0117 3 3 0 0 0-3-3z" fill="currentColor" opacity=".15"/>
 <path class="ColorScheme-Text" d="m6 4c-1.662 0-3 1.338-3 3v10c0 1.662 1.338 3 3 3h7.0605c-0.29446-0.2874-0.53904-0.62549-0.71875-1h-6.3418v-14h12c1.108 0 2 0.892 2 2v1.7773c0.61082 0.55092 1 1.3442 1 2.2227v-4c0-1.662-1.338-3-3-3zm-1 1.2676v13.465c-0.59808-0.34498-1-0.98967-1-1.7324v-10c0-0.74277 0.40192-1.3874 1-1.7324zm8 0.73242c-3.3137 0-6 2.6863-6 6 0.00306 2.9352 2.1292 5.4373 5.0254 5.9141-0.016305-0.13599-0.025391-0.27394-0.025391-0.41406 0-0.20226 0.01921-0.40054 0.05273-0.59375-2.3516-0.45374-4.0512-2.5113-4.0527-4.9062 0-2.7614 2.2386-5 5-5 1.0821 5.634e-4 2.1348 0.35215 3 1.002v-0.0019531h1.4688c-1.1375-1.2717-2.7626-1.999-4.4688-2zm0 5c-0.55228 0-1 0.44772-1 1s0.44772 1 1 1 1-0.44772 1-1-0.44772-1-1-1zm7 1v5c0 0.85379-0.53126 1.5773-1.2812 1.8652-0.18359 0.42837-0.44985 0.81322-0.7793 1.1348h0.060547c1.662 0 3-1.338 3-3v-5z" fill="currentColor"/>
</svg>
