<svg width="24" height="24" version="1.1" viewBox="0 0 24 24" xmlns="http://www.w3.org/2000/svg">
 <path d="m6.291 0c-0.603 0-1.207 0.086813-1.791 0.25781l3.7715 3.7695c0.409 1.889-2.3302 4.6602-4.2422 4.2422l-3.7715-3.7695c-0.172 0.584-0.25781 1.189-0.25781 1.793 0 1.602 0.60708 3.2018 1.8301 4.4258 1.351 1.351 3.1646 1.9573 4.9316 1.8203 0.933-0.071999 1.8517 0.26964 2.5137 0.93164l9.6621 9.6621c0.578 0.578 1.3357 0.86719 2.0957 0.86719 1.661 0 3.0018-1.3633 2.9668-3.0293-0.016-0.737-0.30519-1.4702-0.86719-2.0332l-9.6621-9.6641c-0.662-0.661-1.0026-1.5807-0.93164-2.5137 0.137-1.767-0.47131-3.5797-1.8203-4.9297-1.225-1.224-2.8247-1.8301-4.4277-1.8301zm0.45312 1.0879c1.1901 0.10252 2.3521 0.5345 3.2676 1.4492 1.1388 1.1396 1.6446 2.6594 1.5293 4.1465-0.0931 1.2234 0.3535 2.431 1.2227 3.2988l9.6621 9.6621c0.3756 0.37729 0.56362 0.85927 0.57422 1.3477 0.022418 1.1177-0.85392 2.0078-1.9668 2.0078-0.50561 0-1.0019-0.18747-1.3887-0.57422l-9.6621-9.6621c-0.86779-0.86779-2.0741-1.3172-3.2988-1.2227-1.4875 0.11533-3.0059-0.3887-4.1465-1.5293-0.91471-0.91546-1.3491-2.0793-1.4512-3.2695l2.4434 2.4414 0.28516 0.0625c1.5037 0.32875 2.8859-0.49447 3.9141-1.5273 1.0282-1.0329 1.8431-2.4078 1.5195-3.9023l-0.0625-0.28711-2.4414-2.4414z" fill="#363636"/>
 <circle cx="21" cy="21" r="1" fill="#363636"/>
</svg>
