<svg width="24" height="24" version="1.1" viewBox="0 0 24 24" xmlns="http://www.w3.org/2000/svg">
 <g transform="translate(-212.97 -204.92)">
  <path d="m216.97 204.92c-2.216 0-4 1.784-4 4v4h1v-4c0-1.662 1.338-3 3-3h4v-1h-4zm12 0v1h4c1.662 0 3 1.338 3 3v4h1v-4c0-2.216-1.784-4-4-4h-4zm-4 1-3.9961 8.9922h0.99609v0.00781h6v-0.00781h0.99609l-3.9961-8.9922zm0 2.4629 2.4609 5.5371h-4.9219l2.4609-5.5371zm-3 10.537v0.00781h-0.99609l3.9961 8.9922 3.9961-8.9922h-0.99609v-0.00781h-6zm0.53906 1h4.9219l-2.4609 5.5371-2.4609-5.5371zm-9.5391 1v4c0 2.216 1.784 4 4 4h4v-1h-4c-1.662 0-3-1.338-3-3v-4h-1zm23 0v4c0 1.662-1.338 3-3 3h-4v1h4c2.216 0 4-1.784 4-4v-4h-1z" fill="#363636" stroke-linecap="round" stroke-linejoin="round" stroke-width="2"/>
 </g>
</svg>
