<svg width="24" height="24" version="1.1" viewBox="0 0 24 24" xmlns="http://www.w3.org/2000/svg">
 <g transform="translate(-186.75 -190.76)">
  <path d="m190.75 190.76c-2.216 0-4 1.784-4 4v14c0 2.216 1.784 4 4 4h7v-1h-7c-1.662 0-3-1.338-3-3v-11h20v4h1v-7c0-2.216-1.784-4-4-4h-14zm0 1h14c1.662 0 3 1.338 3 3v2h-20v-2c0-1.662 1.338-3 3-3zm11 12c-1.108 0-2 0.89201-2 2v7c0 1.108 0.89201 2 2 2h7c1.108 0 2-0.89201 2-2v-7c0-1.108-0.89201-2-2-2h-7zm0 1h7c0.554 0 1 0.446 1 1v1h-9v-1c0-0.554 0.446-1 1-1zm-1 3h9v5c0 0.554-0.446 1-1 1h-7c-0.554 0-1-0.446-1-1v-5z" fill="#363636" stroke-linecap="round" stroke-linejoin="round" stroke-width="2"/>
 </g>
</svg>
