<svg width="24" height="24" version="1.1" viewBox="0 0 24 24" xmlns="http://www.w3.org/2000/svg">
 <path d="m21.899 2.1005c-2.7422-2.7422-7.1573-2.7422-9.8995 0l-3.5355 3.5355 0.70711 0.70711 3.5355-3.5355c2.3504-2.3504 6.1349-2.3504 8.4853 0 2.3504 2.3504 2.3504 6.1349 0 8.4853l-3.5355 3.5355 0.70711 0.70711 3.5355-3.5355c2.7422-2.7422 2.7422-7.1573 0-9.8995zm-16.263 6.364-3.5355 3.5355c-2.7422 2.7422-2.7422 7.1573 0 9.8995 2.7422 2.7422 7.1573 2.7422 9.8995 0l3.5355-3.5355-0.70711-0.70711-3.5355 3.5355c-2.3504 2.3504-6.1349 2.3504-8.4853 0-2.3504-2.3504-2.3504-6.1349 0-8.4853l3.5355-3.5355z" fill="#363636" stroke-linecap="round" stroke-linejoin="round" stroke-width="2"/>
</svg>
