<svg width="24" height="24" version="1.1" viewBox="0 0 24 24" xmlns="http://www.w3.org/2000/svg">
 <title>org.remmina.Remmina-password-conceal-symbolic</title>
 <g fill="#363636">
  <path d="m11.994 2a13.188 17 0 0 0-11.994 10 13.188 17 0 0 0 11.994 10 13.188 17 0 0 0 12.006-10.029 13.188 17 0 0 0-12.006-9.9707zm0 1h2e-3c4.5701 0.00177 8.8129 3.4242 10.896 8.9727-2.0718 5.5693-6.3178 9.0154-10.897 9.0273-4.5719-0.010639-8.8124-3.4441-10.889-9 2.076-5.5552 6.3155-8.9884 10.887-9z" opacity=".45" stroke-linecap="round" stroke-linejoin="round" stroke-width="2.0447"/>
  <path d="m12 7a5 5 0 0 0-5 5 5 5 0 0 0 5 5 5 5 0 0 0 5-5 5 5 0 0 0-0.22266-1.4727 2.5 2.5 0 0 1-2.2773 1.4727 2.5 2.5 0 0 1-2.5-2.5 2.5 2.5 0 0 1 1.4727-2.2773 5 5 0 0 0-1.4727-0.22266z" opacity=".45"/>
  <path d="m1.6464 2.3536 0.70711-0.70711 20 20-0.70711 0.70711z" fill-rule="evenodd"/>
 </g>
</svg>
