<svg width="24" height="24" version="1.1" viewBox="0 0 24 24" xmlns="http://www.w3.org/2000/svg">
 <path d="m4 0c0 3.656 1.7891 2.9796 1.7891 5.3516 0 1.073-0.36502 1.5901-0.91602 2.373-1.5934 2.2641-1.8338 3.8027-1.8672 6.3379-1.52e-4 0.01017 1.46e-4 0.0191 0 0.0293-0.003699 0.29149-0.0058594 0.58754-0.0058594 0.9082h13c0-0.331-0.0019-0.63748-0.0059-0.9375-0.01121-0.8539-0.04839-1.5935-0.15039-2.2871-0.36641-0.09432-0.72389-0.22045-1.0684-0.37695 0.1568 0.75352 0.19577 1.5642 0.21098 2.6016h-10.973c0.03546-2.4138 0.19871-3.5977 1.6777-5.6992 0.55062-0.78245 1.0977-1.6494 1.0977-2.9492 0-1.4374-0.70605-2.2885-1.0996-2.8027-0.27828-0.3636-0.46392-0.82053-0.57422-1.5488h7.7168c0.36175-0.38105 0.76836-0.71683 1.2109-1h-9.0918zm13.5 1c-2.4853 0-4.5 2.0147-4.5 4.5s2.0147 4.5 4.5 4.5 4.5-2.0147 4.5-4.5-2.0147-4.5-4.5-4.5zm0 1c1.933 0 3.5 1.567 3.5 3.5s-1.567 3.5-3.5 3.5-3.5-1.567-3.5-3.5 1.567-3.5 3.5-3.5zm-2.5 3v1h5v-1zm-6 11v8l1-2v-6z" fill="#363636"/>
</svg>
