<svg width="24" height="24" version="1.1" viewBox="0 0 24 24" xmlns="http://www.w3.org/2000/svg">
 <path d="m16 8h2v2h-2zm-3 0h2v2h-2zm3 3v2h-2v-2zm-6-3h2v2h-2zm3 3v2h-2v-2zm-6-3h2v2h-2zm3 3v2h-2v-2zm-7-3h3v2h-3zm0 3h4v2h-4zm14 5h-10v-2h10zm4-3h-4v-2h4zm0-3h-2v-2h2z" fill="#363636"/>
 <path d="m3 5c-1.662 0-3 1.338-3 3v8c0 1.662 1.338 3 3 3h18c1.662 0 3-1.338 3-3v-8c0-1.662-1.338-3-3-3h-18zm0 1h18c1.108 0 2 0.892 2 2v8c0 1.108-0.892 2-2 2h-18c-1.108 0-2-0.892-2-2v-8c0-1.108 0.892-2 2-2z" fill="#363636" stroke-linecap="round" stroke-linejoin="round" stroke-width="2"/>
</svg>
