<svg width="24" height="24" version="1.1" xmlns="http://www.w3.org/2000/svg">
 <style id="current-color-scheme" type="text/css">.ColorScheme-Text {
        color:#363636;
      }</style>
 <path class="ColorScheme-Text" d="m2.5 2.0001c-0.277 0-0.5 0.223-0.5 0.5s0.223 0.5 0.5 0.5h19c0.277 0 0.5-0.223 0.5-0.5s-0.223-0.5-0.5-0.5zm9.4883 1c-0.01279 0-0.02631 9.73e-4 -0.03906 0.00195-0.01525 0.00117-0.02981 0.00524-0.04492 0.00781-0.09861 0.016787-0.19311 0.060297-0.26953 0.13672-0.02204 0.022035-0.04152 0.045593-0.05859 0.070312-0.0019 0.00275-4e-3 0.00504-0.0059 0.00781l-2.0547 2.0527c-0.19587 0.19587-0.19587 0.51116 0 0.70703s0.51116 0.19587 0.70703 0l1.2773-1.2773v4.3398a3 3 0 0 0-2.5 2.9531 3 3 0 0 0 2.5 2.9531v4.3418l-1.2773-1.2773c-0.19587-0.19587-0.51116-0.19587-0.70703 0s-0.19587 0.51116 0 0.70703l2.0547 2.0527c0.0019 0.0028 4e-3 0.0051 0.0059 0.0078 0.01707 0.02472 0.03655 0.04827 0.05859 0.07031 0.07642 0.07642 0.17092 0.11993 0.26953 0.13672 0.01511 0.0026 0.02967 0.0066 0.04492 0.0078h-9.4492c-0.277 0-0.5 0.223-0.5 0.5s0.223 0.5 0.5 0.5h19c0.277 0 0.5-0.223 0.5-0.5s-0.223-0.5-0.5-0.5h-9.4492c0.01527-0.0015 0.02982-0.0049 0.04492-0.0078 0.03197-0.0061 0.06234-0.01546 0.0918-0.02734 0.01009-0.0041 0.0196-9e-3 0.0293-0.01367 0.02735-0.01317 0.05385-0.0272 0.07813-0.04492 0.0073-0.0053 0.01438-0.01178 0.02148-0.01758h2e-3c0.01271-0.01044 0.02328-0.02132 0.03516-0.0332 0.01129-0.0113 0.02303-0.02282 0.0332-0.03516 0.0058-7e-3 0.01023-0.01428 0.01563-0.02148 0.0042-0.0057 0.0077-0.01168 0.01172-0.01758l0.0039-0.0039 2.0547-2.0527c0.19587-0.19587 0.19587-0.51116 0-0.70703s-0.51116-0.19587-0.70703 0l-1.2656 1.2656v-4.3301a3 3 0 0 0 2.5-2.9531 3 3 0 0 0-2.5-2.957v-4.3242l1.2656 1.2656c0.19587 0.19587 0.51116 0.19587 0.70703 0s0.19587-0.51116 0-0.70703l-2.0547-2.0527-0.0039-0.00391c-4e-3 -0.00589-0.0075-0.011872-0.01172-0.017578-0.0054-0.00723-0.0098-0.014488-0.01563-0.021484-0.01017-0.012338-0.02191-0.023859-0.0332-0.035156-0.01188-0.011884-0.02245-0.022761-0.03516-0.033203h-2e-3c-0.0071-0.00576-0.0142-0.012258-0.02148-0.017578-0.02428-0.017722-0.05078-0.031753-0.07813-0.044922-0.0097-0.00469-0.01921-0.0096-0.0293-0.013672-0.02946-0.011877-0.05983-0.02121-0.0918-0.027344-0.0151-0.00294-0.02965-0.00628-0.04492-0.00781h-2e-3c-0.0038-3.666e-4 -0.0079 2.788e-4 -0.01172 0-0.01592-0.00153-0.03285-0.00195-0.04883-0.00195zm0.01172 7a2 2 0 0 1 2 2 2 2 0 0 1-2 2 2 2 0 0 1-2-2 2 2 0 0 1 2-2zm0 1a1 1 0 0 0-1 1 1 1 0 0 0 1 1 1 1 0 0 0 1-1 1 1 0 0 0-1-1z" fill="currentColor"/>
</svg>
