<svg version="1.1" viewBox="0 0 24 24" xmlns="http://www.w3.org/2000/svg">
 <defs>
  <style id="current-color-scheme" type="text/css">.ColorScheme-Text {
        color:#363636;
      }</style>
 </defs>
 <path class="ColorScheme-Text" d="m15 14h1v2h2v1h-2v2h-1v-2h-2v-1h2z" color="#363636" fill="currentColor"/>
 <path class="ColorScheme-Text" d="m6 4c-1.662 0-3 1.338-3 3v10c0 1.662 1.338 3 3 3h3v-1h-3c-1.108 0-2-0.892-2-2v-8c0-1.108 0.892-2 2-2h11c1.108 0 2 0.892 2 2h1v-2c0-1.662-1.338-3-3-3h-11zm0.4707 5c-0.2605 0-0.4707 0.2102-0.4707 0.4707v1.0586c0 0.2605 0.2102 0.4707 0.4707 0.4707h1.0586c0.2605 0 0.4707-0.2102 0.4707-0.4707v-1.0586c0-0.2605-0.2102-0.4707-0.4707-0.4707h-1.0586zm3 0c-0.2605 0-0.4707 0.2102-0.4707 0.4707v1.0586c0 0.2605 0.2102 0.4707 0.4707 0.4707h0.064453c0.35084-0.6085 0.85639-1.114 1.4648-1.4648v-0.064453c0-0.2605-0.2102-0.4707-0.4707-0.4707h-1.0586zm3.5293 1c-1.662 0-3 1.338-3 3v5c0 1.662 1.338 3 3 3h5c1.662 0 3-1.338 3-3v-5c0-1.662-1.338-3-3-3h-5zm-6.5293 2c-0.2605 0-0.4707 0.2102-0.4707 0.4707v1.0586c0 0.2605 0.2102 0.4707 0.4707 0.4707h1.0586c0.2605 0 0.4707-0.2102 0.4707-0.4707v-1.0586c0-0.2605-0.2102-0.4707-0.4707-0.4707h-1.0586zm6.5293 1h5c1.108 0 2 0.892 2 2v3c0 1.108-0.892 2-2 2h-5c-1.108 0-2-0.892-2-2v-3c0-1.108 0.892-2 2-2zm-6.5293 2c-0.2605 0-0.4707 0.2102-0.4707 0.4707v1.0586c0 0.2605 0.2102 0.4707 0.4707 0.4707h1.0586c0.2605 0 0.4707-0.2102 0.4707-0.4707v-1.0586c0-0.2605-0.2102-0.4707-0.4707-0.4707h-1.0586z" fill="currentColor"/>
</svg>
