<svg width="24" height="24" version="1.1" viewBox="0 0 24 24" xmlns="http://www.w3.org/2000/svg">
 <style id="current-color-scheme" type="text/css">.ColorScheme-Text {
            color:#363636;
        }</style>
 <g class="ColorScheme-Text" transform="matrix(-1,0,0,1,23,1)" fill="currentColor">
  <path d="m6 3c-1.662 0-3 1.338-3 3v10c0 1.662 1.338 3 3 3h10c1.662 0 3-1.338 3-3v-10c0-1.662-1.338-3-3-3zm0 1h1v14h-1c-1.108 0-2-0.892-2-2v-10c0-1.108 0.892-2 2-2zm2 0h8c1.108 0 2 0.892 2 2v10c0 1.108-0.892 2-2 2h-8z"/>
  <path d="m11 6.6465 4.3535 4.3535-4.3535 4.3535-0.70703-0.70703 3.6465-3.6465-3.6465-3.6465z"/>
 </g>
</svg>
