<svg width="24" height="24" enable-background="new" version="1.1" xmlns="http://www.w3.org/2000/svg">
 <path d="m20 6c0-0.554-0.446-1-1-1h-5c-0.554 0-1 0.446-1 1v2c0 0.554 0.446 1 1 1h5c0.554 0 1-0.446 1-1zm0 5c0-0.554-0.446-1-1-1h-5c-0.554 0-1 0.446-1 1v2c0 0.554 0.446 1 1 1h5c0.554 0 1-0.446 1-1zm0 5c0-0.554-0.446-1-1-1h-5c-0.554 0-1 0.446-1 1v2c0 0.554 0.446 1 1 1h5c0.554 0 1-0.446 1-1zm-1-10v2h-5v-2zm0 5v2h-5v-2zm0 5v2h-5v-2zm-8-10c0-0.554-0.446-1-1-1h-5c-0.554 0-1 0.446-1 1v2c0 0.554 0.446 1 1 1h5c0.554 0 1-0.446 1-1zm0 5c0-0.554-0.446-1-1-1h-5c-0.554 0-1 0.446-1 1v2c0 0.554 0.446 1 1 1h5c0.554 0 1-0.446 1-1zm0 5c0-0.554-0.446-1-1-1h-5c-0.554 0-1 0.446-1 1v2c0 0.554 0.446 1 1 1h5c0.554 0 1-0.446 1-1zm-1-10v2h-5v-2zm0 5v2h-5v-2zm0 5v2h-5v-2z" fill="#363636"/>
</svg>
