<svg version="1.1" viewBox="0 0 24 24" xmlns="http://www.w3.org/2000/svg">
 <defs>
  <style id="current-color-scheme" type="text/css">.ColorScheme-Text {
        color:#363636;
      }</style>
 </defs>
 <path class="ColorScheme-Text" d="m6 4c-1.662 0-3 1.338-3 3v10c0 1.662 1.338 3 3 3h12c1.662 0 3-1.338 3-3v-10c0-1.662-1.338-3-3-3h-12zm0 1h12c1.108 0 2 0.892 2 2v1h-16v-1c0-1.108 0.892-2 2-2zm-2 4h4v10h-2c-1.108 0-2-0.892-2-2v-8zm5 0h11v8c0 1.108-0.892 2-2 2h-9v-10zm2 3v1h7v-1h-7zm0 3v1h7v-1h-7z" fill="currentColor"/>
</svg>
