<svg width="24" height="24" version="1.1" viewBox="0 0 24 24" xmlns="http://www.w3.org/2000/svg">
 <defs>
  <style id="current-color-scheme" type="text/css">.ColorScheme-Text {
        color:#363636;
      }</style>
 </defs>
 <path class="ColorScheme-Text" d="m6 4c-1.108 0-2 0.892-2 2v12c0 1.108 0.892 2 2 2h12c1.108 0 2-0.892 2-2v-12c0-1.108-0.892-2-2-2zm0 1h12c0.554 0 1 0.446 1 1v1h-14v-1c0-0.554 0.446-1 1-1zm-1 3h9v11h-8c-0.554 0-1-0.446-1-1zm10 0h4v10c0 0.554-0.446 1-1 1h-3zm-6 3v2h-2v1h2v2h1v-2h2v-1h-2v-2z" fill="currentColor"/>
</svg>
