<svg version="1.1" viewBox="0 0 24 24" xmlns="http://www.w3.org/2000/svg">
 <defs>
  <style id="current-color-scheme" type="text/css">.ColorScheme-Text {
        color:#363636;
      }
      .ColorScheme-NegativeText {
        color:#da4453;
      }</style>
 </defs>
 <path class="ColorScheme-NegativeText" d="m16.293 11 0.70703 0.70703-1.793 1.793 1.793 1.793-0.70703 0.70703-1.793-1.793-1.793 1.793-0.70703-0.70703 1.793-1.793-1.793-1.793 0.70703-0.70703 1.793 1.793z" fill="currentColor"/>
 <path class="ColorScheme-Text" d="m18 4c1.108 0 2 0.892 2 2v12c0 1.108-0.892 2-2 2h-12c-1.108 0-2-0.892-2-2v-12c0-1.108 0.892-2 2-2zm0 1h-12c-0.554 0-1 0.446-1 1v1h14v-1c0-0.554-0.446-1-1-1zm1 3h-9v11h8c0.554 0 1-0.446 1-1zm-10 0h-4v10c0 0.554 0.446 1 1 1h3z" fill="currentColor"/>
</svg>
