<svg version="1.1" viewBox="0 0 24 24" xmlns="http://www.w3.org/2000/svg">
 <style id="current-color-scheme" type="text/css">.ColorScheme-Text {
            color:#363636;
        }</style>
 <path class="ColorScheme-Text" d="m6 5c-1.108 0-2 0.892-2 2v3c0 1.108 0.892 2 2 2h4c1.108 0 2-0.892 2-2v-3c0-1.108-0.892-2-2-2zm9 0c-1.108 0-2 0.892-2 2v3c0 1.108 0.892 2 2 2h4c1.108 0 2-0.892 2-2v-3c0-1.108-0.892-2-2-2zm-9 1h4c0.554 0 1 0.446 1 1v3c0 0.554-0.446 1-1 1h-4c-0.554 0-1-0.446-1-1v-3c0-0.554 0.446-1 1-1zm9 0h4c0.554 0 1 0.446 1 1v3c0 0.554-0.446 1-1 1h-4c-0.554 0-1-0.446-1-1v-3c0-0.554 0.446-1 1-1zm-9 1v1h2v-1zm0 6c-1.108 0-2 0.892-2 2v3c0 1.108 0.892 2 2 2h4c1.108 0 2-0.892 2-2v-3c0-1.108-0.892-2-2-2zm9 0c-1.108 0-2 0.892-2 2v3c0 1.108 0.892 2 2 2h4c1.108 0 2-0.892 2-2v-3c0-1.108-0.892-2-2-2zm-9 1h4c0.554 0 1 0.446 1 1v3c0 0.554-0.446 1-1 1h-4c-0.554 0-1-0.446-1-1v-3c0-0.554 0.446-1 1-1zm9 0h4c0.554 0 1 0.446 1 1v3c0 0.554-0.446 1-1 1h-4c-0.554 0-1-0.446-1-1v-3c0-0.554 0.446-1 1-1zm2 3v1h2v-1z" fill="currentColor"/>
</svg>
