<svg width="16" height="16" version="1.1" xmlns="http://www.w3.org/2000/svg">
 <defs>
  <style id="current-color-scheme" type="text/css">.ColorScheme-Text { color:#363636; }</style>
 </defs>
 <path d="m8.0035 14.916c0.16788 0 0.32883-0.01401 0.50371-0.02802l0.39179 0.74155c0.083978 0.18897 0.27287 0.27987 0.4897 0.25193 0.2029-0.03502 0.34284-0.18889 0.37085-0.39879l0.11892-0.83253c0.32883-0.08398 0.65065-0.2099 0.95846-0.34284l0.61562 0.55274c0.14694 0.14686 0.34984 0.16788 0.55266 0.06296 0.17496-0.10499 0.24493-0.29388 0.2099-0.50379l-0.17488-0.81152c0.27287-0.1959 0.53865-0.41272 0.79058-0.65065l0.75556 0.31482c0.2029 0.08398 0.39179 0.03502 0.54566-0.13986 0.12593-0.14694 0.14694-0.35684 0.03502-0.53873l-0.44074-0.70661c0.18889-0.27287 0.34976-0.57368 0.4967-0.88849l0.83954 0.04195c0.20282 0.01401 0.38478-0.10491 0.45475-0.30081 0.06989-0.1959 0-0.3988-0.16095-0.52472l-0.65064-0.51771c0.08398-0.32182 0.14694-0.65757 0.17488-1.0074l0.79058-0.25185c0.2029-0.069968 0.32883-0.23084 0.32883-0.44074s-0.12593-0.37078-0.32883-0.44074l-0.79058-0.25188c-0.027939-0.34981-0.097907-0.67862-0.17488-1.0074l0.65065-0.51771c0.16095-0.11893 0.22391-0.31482 0.16095-0.51071-0.06997-0.20288-0.25193-0.32182-0.45475-0.30783l-0.83954 0.027987c-0.14694-0.30783-0.30781-0.60166-0.4967-0.88151l0.44074-0.7136c0.10491-0.16791 0.0909-0.37779-0.03502-0.5247-0.15387-0.1749-0.34276-0.22387-0.54566-0.13992l-0.76256 0.30783c-0.24493-0.23087-0.51071-0.45474-0.78358-0.64364l0.17488-0.81154c0.03502-0.21688-0.03494-0.40577-0.21683-0.50371-0.1959-0.10494-0.3988-0.090951-0.54574 0.062963l-0.61562 0.5457c-0.30781-0.13992-0.62963-0.25186-0.95846-0.34281l-0.11892-0.81854c-0.028019-0.20988-0.16796-0.36379-0.37085-0.40577-0.21683-0.027985-0.39871 0.062964-0.4897 0.23787l-0.39179 0.74858c-0.17488-0.013994-0.33583-0.02099-0.50371-0.02099-0.18189 0-0.34284 7e-3 -0.51772 0.02099l-0.39177-0.74858c-0.083954-0.1749-0.27284-0.26585-0.48972-0.23087-0.20289 0.03498-0.34281 0.18889-0.37079 0.39877l-0.11894 0.81854c-0.32181 0.090951-0.64364 0.20289-0.95846 0.34281l-0.60866-0.5457c-0.15391-0.14692-0.3568-0.16791-0.55268-0.062963-0.1749 0.097947-0.25186 0.28684-0.21688 0.50371l0.1749 0.81154c-0.27284 0.1889-0.53869 0.41277-0.78356 0.64364l-0.76257-0.30783c-0.19589-0.083954-0.39178-0.034984-0.5387 0.13992-0.13292 0.14692-0.14692 0.3568-0.041973 0.5247l0.44775 0.7136c-0.1889 0.27985-0.34981 0.57368-0.50371 0.88151l-0.83253-0.027987c-0.20988-0.013994-0.39178 0.10494-0.45474 0.30783-0.06996 0.19589-0.013994 0.39178 0.15391 0.51071l0.65763 0.51771c-0.083954 0.32882-0.15391 0.65763-0.1749 1.0074l-0.79055 0.25188c-0.20988 0.069968-0.32882 0.22383-0.32882 0.44074 0 0.2099 0.11894 0.37078 0.32882 0.44074l0.79055 0.25185c0.02099 0.34984 0.090951 0.68559 0.1749 1.0074l-0.65063 0.51772c-0.16791 0.11892-0.22387 0.32182-0.16091 0.51772 0.062963 0.2029 0.24486 0.32182 0.45474 0.30781l0.83253-0.04195c0.14692 0.31482 0.31482 0.61562 0.50371 0.88849l-0.44775 0.71361c-0.11194 0.17488-0.09095 0.38478 0.041973 0.53173 0.14692 0.17488 0.34281 0.22383 0.5387 0.13986l0.76257-0.31482c0.24486 0.23792 0.51071 0.45475 0.78356 0.65065l-0.1749 0.81152c-0.034984 0.2099 0.034976 0.3988 0.21688 0.50379 0.19589 0.10491 0.39877 0.0839 0.55268-0.06296l0.60866-0.55274c0.31482 0.13293 0.62965 0.25886 0.95846 0.34984l0.11894 0.82553c0.027979 0.2099 0.1679 0.36377 0.37779 0.39879 0.20988 0.02794 0.39877-0.06296 0.48272-0.24493l0.39177-0.74856c0.17488 0.01401 0.33583 0.02802 0.51772 0.02802zm1.8259-7.4718c-0.34276-0.90249-1.0424-1.3922-1.8679-1.3922-0.11892 0-0.24493 0.013994-0.46176 0.062971l-1.8889-3.2462c0.72059-0.33581 1.5251-0.52471 2.3856-0.52471 2.9594 0 5.2821 2.2247 5.5479 5.1001zm-7.4018 0.5597c0-1.875 0.86051-3.519 2.2247-4.5475l1.9029 3.2532c-0.37079 0.40577-0.54569 0.85355-0.54569 1.3152 0 0.44074 0.16091 0.86055 0.54569 1.2873l-1.9589 3.1972c-1.3293-1.0284-2.1688-2.6585-2.1688-4.5054zm4.6944 0.01393c0-0.47569 0.39881-0.83949 0.84656-0.83949 0.46868 0 0.85347 0.3638 0.85347 0.83949 0 0.46176-0.38478 0.84654-0.85347 0.84654-0.44775 0-0.84656-0.38478-0.84656-0.84654zm0.8745 5.6388c-0.88149 0-1.707-0.1959-2.4416-0.55266l1.9379-3.1762c0.2099 0.041949 0.34984 0.055959 0.46876 0.055959 0.83253 0 1.5251-0.50371 1.8679-1.4272h3.7149c-0.26578 2.8754-2.5885 5.1001-5.5479 5.1001z" fill="#363636" stroke-width=".796"/>
</svg>
