<svg width="16px" height="16px" version="1.1" viewBox="0 0 16 16" xmlns="http://www.w3.org/2000/svg">
 <path d="m8 0c-0.34424 0-0.68263 0.023863-1.0156 0.066406a8 8 0 0 0-0.054688 0.0078125c-0.34006 0.045853-0.67468 0.11178-1 0.19922-0.32719 0.087946-0.64568 0.19709-0.95508 0.32422a8 8 0 0 0-0.056641 0.021484c-0.29008 0.12178-0.57011 0.26217-0.8418 0.41602a8 8 0 0 0-0.14258 0.080078c-0.24618 0.14614-0.48452 0.30571-0.71289 0.47656-7.244e-4 5.419e-4 -0.0012289 0.0014109-0.0019531 0.0019531a8 8 0 0 0-0.18945 0.14844c-0.20487 0.16316-0.40196 0.33551-0.58984 0.51758a8 8 0 0 0-0.17969 0.17969c-0.18206 0.18788-0.35442 0.38497-0.51758 0.58984a8 8 0 0 0-0.14844 0.18945 8 8 0 0 0-0.0019531 0.0019531c-0.17085 0.22837-0.33042 0.46671-0.47656 0.71289a8 8 0 0 0-0.080078 0.14258c-0.15384 0.27168-0.29424 0.55171-0.41602 0.8418a8 8 0 0 0-0.021484 0.056641c-0.12713 0.3094-0.23627 0.62789-0.32422 0.95508-0.087443 0.32532-0.15337 0.65994-0.19922 1a8 8 0 0 0-0.0078125 0.054688c-0.042543 0.33299-0.066406 0.67139-0.066406 1.0156s0.023863 0.68263 0.066406 1.0156a8 8 0 0 0 0.0078125 0.054688c0.045853 0.34006 0.11178 0.67468 0.19922 1 0.087946 0.32719 0.19709 0.64568 0.32422 0.95508a8 8 0 0 0 0.021484 0.05664c0.12178 0.29008 0.26217 0.57011 0.41602 0.8418a8 8 0 0 0 0.080078 0.14258c0.14614 0.24618 0.30571 0.48452 0.47656 0.71289 5.419e-4 7.24e-4 0.0014109 0.001229 0.0019531 0.001953a8 8 0 0 0 0.14844 0.18945c0.16316 0.20487 0.33551 0.40196 0.51758 0.58984a8 8 0 0 0 0.17969 0.17969c0.18788 0.18206 0.38497 0.35442 0.58984 0.51758a8 8 0 0 0 0.18945 0.14844 8 8 0 0 0 0.0019531 0.001953c0.22837 0.17085 0.46671 0.33042 0.71289 0.47656a8 8 0 0 0 0.14258 0.080078c0.27168 0.15384 0.55171 0.29424 0.8418 0.41602a8 8 0 0 0 0.056641 0.021485c0.3094 0.12713 0.62789 0.23627 0.95508 0.32422 0.32532 0.087444 0.65994 0.15337 1 0.19922a8 8 0 0 0 0.054688 0.007813c0.33299 0.042543 0.67139 0.066406 1.0156 0.066406 4.4062 0 8-3.5938 8-8 0-4.4062-3.5938-8-8-8zm0 1.5a6.5 6.5 0 0 1 6.5 6.5 6.5 6.5 0 0 1-6.5 6.5v-13z" fill="#363636"/>
</svg>
