<svg width="16" height="16" version="1.1" xmlns="http://www.w3.org/2000/svg">
 <path d="m8 16c4.3756 0 8-3.6167 8-8 0-4.3756-3.6244-8-8.0077-8-4.3756 0-7.9923 3.6244-7.9923 8 0 4.3833 3.6244 8 8 8zm0-1.5721c-3.5624 0-6.4201-2.8654-6.4201-6.4279 0-3.5624 2.8499-6.4201 6.4124-6.4201 3.5625 0 6.4279 2.8577 6.4356 6.4201 0 3.5625-2.8654 6.4279-6.4279 6.4279zm-3.4927-3.2294c-0.23233 0.58852 0.39497 1.0222 0.89835 0.52657l2.3853-2.393c0.12391-0.12389 0.27879-0.12389 0.39493 0l2.3931 2.393c0.49564 0.49564 1.1307 0.06194 0.89057-0.52657l-2.8809-7.334c-0.2246-0.57309-0.97582-0.56534-1.2082 0.01549z" fill="#363636"/>
</svg>
