<svg width="16px" height="16px" version="1.1" viewBox="0 0 16 16" xmlns="http://www.w3.org/2000/svg">
 <g fill="#363636">
  <path d="m10.059 6c-0.56641 0-1.0195 0.42578-1.0391 0.96484h-0.99219c-1.1133 0-2.0117 0.89844-2.0117 2.0117v4.0117c0 1.1133 0.89844 2.0117 2.0117 2.0117h5.9766c1.1133 0 2.0117-0.89844 2.0117-2.0117v-4.0117c0-1.1133-0.89844-2.0117-2.0117-2.0117h-0.98828c-0.019531-0.53906-0.47656-0.96484-1.043-0.96484zm0.95703 3c1.1055 0 2 0.89453 2 2s-0.89453 2-2 2-2-0.89453-2-2 0.89453-2 2-2z"/>
  <g stroke-linecap="round" stroke-linejoin="round">
   <path d="m2.7812 0c-1.5279 0-2.7812 1.2534-2.7812 2.7812v1.4688c0 0.41421 0.33579 0.75 0.75 0.75 0.41421 0 0.75-0.33579 0.75-0.75v-1.4688c0-0.72331 0.55794-1.2812 1.2812-1.2812h1.4688c0.41421 0 0.75-0.33579 0.75-0.75 0-0.41421-0.33579-0.75-0.75-0.75z" color="#000000" style="-inkscape-stroke:none"/>
   <path d="m13.219 0c1.5279 0 2.7812 1.2534 2.7812 2.7812v1.4688c0 0.41421-0.33579 0.75-0.75 0.75s-0.75-0.33579-0.75-0.75v-1.4688c0-0.72331-0.55794-1.2812-1.2812-1.2812h-1.4688c-0.41421 0-0.75-0.33579-0.75-0.75 0-0.41421 0.33579-0.75 0.75-0.75z" color="#000000" style="-inkscape-stroke:none"/>
   <path d="m2.7812 13c-1.5279 0-2.7812-1.2534-2.7812-2.7812v-1.4688c0-0.41421 0.33579-0.75 0.75-0.75 0.41421 0 0.75 0.33579 0.75 0.75v1.4688c0 0.72331 0.55794 1.2812 1.2812 1.2812h1.4688c0.41421 0 0.75 0.33579 0.75 0.75s-0.33579 0.75-0.75 0.75z" color="#000000" style="-inkscape-stroke:none"/>
  </g>
 </g>
</svg>
