<svg width="64" height="64" xmlns="http://www.w3.org/2000/svg" xmlns:xlink="http://www.w3.org/1999/xlink"><defs><linearGradient id="b" x1="7.937" x2="7.937" y1="15.346" y2="16.933" gradientUnits="userSpaceOnUse" xlink:href="#a"/><linearGradient id="a"><stop offset="0"/><stop stop-opacity="0" offset="1"/></linearGradient><linearGradient id="d" x1="43" x2="46.748" y1="12" y2="8.252" gradientUnits="userSpaceOnUse" xlink:href="#a"/><linearGradient id="f" x1="5.821" x2="5.821" y1="1.058" gradientUnits="userSpaceOnUse" xlink:href="#a"/><linearGradient id="h" x1="13.758" x2="15.081" y1="10.583" y2="10.583" gradientUnits="userSpaceOnUse" xlink:href="#a"/><linearGradient id="i" x1="3.175" x2="1.852" y1="8.466" y2="8.466" gradientUnits="userSpaceOnUse" xlink:href="#a"/><linearGradient id="l" x1="7.937" x2="7.937" y1="15.346" y2="16.668" gradientUnits="userSpaceOnUse" xlink:href="#a"/><linearGradient id="n" x1="43" x2="46.004" y1="12" y2="8.996" gradientUnits="userSpaceOnUse" xlink:href="#a"/><linearGradient id="p" x1="5.821" x2="5.821" y1="1.058" y2=".265" gradientUnits="userSpaceOnUse" xlink:href="#a"/><linearGradient id="r" x1="13.758" x2="14.816" y1="10.583" y2="10.583" gradientUnits="userSpaceOnUse" xlink:href="#a"/><linearGradient id="s" x1="3.175" x2="2.117" y1="8.466" y2="8.466" gradientUnits="userSpaceOnUse" xlink:href="#a"/><linearGradient id="v" x1="21.039" x2="21.039" y1="2" y2="62" gradientTransform="translate(0 -.265) scale(.26458)" gradientUnits="userSpaceOnUse"><stop stop-color="gray" offset="0"/><stop stop-color="#4d4d4d" offset="1"/></linearGradient><linearGradient id="z" x1="10.583" x2="6.35" y1="3.175" y2="3.175" gradientTransform="matrix(1 0 0 .66667 0 1.411)" gradientUnits="userSpaceOnUse" xlink:href="#a"/><linearGradient id="A" x1="10.583" x2="8.731" y1="3.043" y2="3.043" gradientTransform="matrix(1 0 0 .66667 0 1.411)" gradientUnits="userSpaceOnUse" xlink:href="#a"/><linearGradient id="D" x1="10.583" x2="6.35" y1="3.175" y2="3.175" gradientTransform="matrix(1 0 0 .66667 -14.816 9.348)" gradientUnits="userSpaceOnUse" xlink:href="#a"/><linearGradient id="E" x1="10.583" x2="8.724" y1="3.043" y2="3.043" gradientTransform="matrix(1 0 0 .66667 -14.816 9.348)" gradientUnits="userSpaceOnUse" xlink:href="#a"/><linearGradient id="G" x1="40" x2="46" y1="17" y2="11" gradientTransform="translate(0 -.265) scale(.26458)" gradientUnits="userSpaceOnUse"><stop stop-color="#fefefe" offset="0"/><stop stop-color="#e9e9e9" offset="1"/></linearGradient><radialGradient id="c" cx="35" cy="4" r="3.728" gradientTransform="matrix(1.696 0 0 1.0731 -24.361 -.292)" gradientUnits="userSpaceOnUse" xlink:href="#a"/><radialGradient id="e" cx="52" cy="22" r="5.206" gradientTransform="matrix(.96042 0 0 1.3331 2.058 -7.328)" gradientUnits="userSpaceOnUse" xlink:href="#a"/><radialGradient id="g" cx="3.175" cy="1.323" r=".794" gradientTransform="matrix(0 -1.3333 1.6667 0 .97 5.292)" gradientUnits="userSpaceOnUse" xlink:href="#a"/><radialGradient id="j" cx="13.758" cy="15.346" r=".794" gradientTransform="matrix(0 2 -1.6667 0 39.334 -12.171)" gradientUnits="userSpaceOnUse" xlink:href="#a"/><radialGradient id="k" cx="3.175" cy="15.346" r=".794" gradientTransform="matrix(-1.6667 0 0 -2 8.466 46.037)" gradientUnits="userSpaceOnUse" xlink:href="#a"/><radialGradient id="m" cx="35" cy="4" r="3.728" gradientTransform="matrix(1.6115 0 0 .80482 -21.403 .78)" gradientUnits="userSpaceOnUse" xlink:href="#a"/><radialGradient id="o" cx="52" cy="22" r="5.206" gradientTransform="matrix(.76834 0 0 1.2272 12.047 -4.999)" gradientUnits="userSpaceOnUse" xlink:href="#a"/><radialGradient id="q" cx="3.175" cy="1.323" r=".794" gradientTransform="matrix(0 -1 1.3333 0 1.411 4.233)" gradientUnits="userSpaceOnUse" xlink:href="#a"/><radialGradient id="t" cx="13.758" cy="15.346" r=".794" gradientTransform="matrix(0 1.6667 -1.3333 0 34.219 -7.585)" gradientUnits="userSpaceOnUse" xlink:href="#a"/><radialGradient id="u" cx="3.175" cy="15.346" r=".794" gradientTransform="matrix(-1.3333 0 0 -1.6667 7.408 40.921)" gradientUnits="userSpaceOnUse" xlink:href="#a"/><radialGradient id="w" cx="40" cy="12" r="8" gradientTransform="matrix(1.5 0 0 -2 -14 40)" gradientUnits="userSpaceOnUse" xlink:href="#a"/><radialGradient id="x" cx="10.583" cy="4.233" r="2.117" gradientTransform="matrix(-2 0 0 -2 31.749 12.7)" gradientUnits="userSpaceOnUse" xlink:href="#a"/><radialGradient id="y" cx="40" cy="12" r="8" gradientTransform="matrix(0 -1.5 2 0 16 70)" gradientUnits="userSpaceOnUse" xlink:href="#a"/><radialGradient id="B" cx="10.583" cy="4.233" r="2.117" gradientTransform="matrix(-.875 0 0 -.87849 19.843 7.952)" gradientUnits="userSpaceOnUse" xlink:href="#a"/><radialGradient id="C" cx="40" cy="12" r="8" gradientTransform="matrix(0 -1.3078 .87983 0 29.442 62.311)" gradientUnits="userSpaceOnUse" xlink:href="#a"/><radialGradient id="F" cx="40" cy="12" r="8" gradientTransform="matrix(1.4336 0 0 -.87849 -11.344 26.542)" gradientUnits="userSpaceOnUse" xlink:href="#a"/></defs><g opacity=".1"><path fill="url(#b)" opacity="1" d="M3.175 15.346h10.583v1.587H3.175z" transform="translate(-.021) scale(3.7796)"/><path transform="translate(-.021)" d="M35 0v7l7-7z" fill="url(#c)" opacity="1"/><path transform="translate(-.021)" d="m42 0-7 7 14 15 9-9V3.545L54.455 0z" fill="url(#d)" opacity="1"/><path transform="translate(-.021)" d="m58 13-9 9h9z" fill="url(#e)" opacity="1"/><path fill="url(#f)" opacity="1" d="M3.175 0H9.26v1.058H3.175z" transform="translate(-.021) scale(3.7796)"/><path fill="url(#g)" opacity="1" d="M1.587 0h1.587v1.058H1.587z" transform="translate(-.021) scale(3.7796)"/><path fill="url(#h)" opacity="1" d="M13.758 5.821h1.587v9.525h-1.587z" transform="translate(-.021) scale(3.7796)"/><path fill="url(#i)" opacity="1" d="M1.587 1.058h1.587v14.287H1.587z" transform="translate(-.021) scale(3.7796)"/><path fill="url(#j)" opacity="1" d="M13.758 15.346h1.587v1.587h-1.587z" transform="translate(-.021) scale(3.7796)"/><path fill="url(#k)" opacity="1" d="M1.587 15.346h1.587v1.587H1.587z" transform="translate(-.021) scale(3.7796)"/></g><g opacity=".2" transform="translate(-.021) scale(3.7796)"><path fill="url(#l)" opacity="1" d="M3.175 15.346h10.583v1.587H3.175z"/><path transform="scale(.26458)" d="M35 0v7l7-7z" fill="url(#m)" opacity="1"/><path transform="scale(.26458)" d="m42 0-7 7 14 15 9-9V3.545L54.455 0z" fill="url(#n)" opacity="1"/><path transform="scale(.26458)" d="m58 13-9 9h9z" fill="url(#o)" opacity="1"/><path fill="url(#p)" opacity="1" d="M3.175 0H9.26v1.058H3.175z"/><rect x="1.587" width="1.587" height="1.058" ry="0" fill="url(#q)" opacity="1"/><path fill="url(#r)" opacity="1" d="M13.758 5.821h1.587v9.525h-1.587z"/><path fill="url(#s)" opacity="1" d="M1.587 1.058h1.587v14.287H1.587z"/><path fill="url(#t)" opacity="1" d="M13.758 15.346h1.587v1.587h-1.587z"/><path fill="url(#u)" opacity="1" d="M1.587 15.346h1.587v1.587H1.587z"/></g><path d="M2.91.265a.528.528 0 0 0-.529.529V15.61c0 .293.236.529.53.529h11.111c.294 0 .53-.236.53-.53V5.292c0-.265-.162-.69-.53-1.059l-3.44-3.44A1.325 1.325 0 0 0 9.526.265z" fill="url(#v)" transform="translate(-.021) scale(3.7796)"/><path transform="translate(-.021)" d="M46 16v16h9V20c0-.132-.026-.3-.04-.453-.148-.993-.763-2.35-1.96-3.547z" fill="url(#w)" opacity=".05"/><path fill="none" d="M32.94-2.049h25.082V23.03H32.941z"/><g transform="translate(-.021) scale(3.7796)"><rect x="6.35" y="4.233" width="4.233" height="4.233" ry="0" fill="url(#x)" opacity=".05"/><path transform="scale(.26458)" d="M24 1v9h16V3c-1.338-1.693-3-2-4-2z" fill="url(#y)" opacity=".05"/><rect x="6.35" y="2.646" width="4.233" height="1.587" ry="0" fill="url(#z)" opacity=".05"/><rect x="7.673" y="2.646" width="2.91" height="1.587" ry="0" fill="url(#A)" opacity=".2"/><rect x="7.673" y="4.233" width="2.91" height="2.91" ry="0" fill="url(#B)" opacity=".2"/><path transform="scale(.26458)" d="M29 1v9h11V3a5.288 5.288 0 0 0-1.68-1.42L36 1z" fill="url(#C)" opacity=".2"/><rect transform="rotate(-90)" x="-8.466" y="10.583" width="4.233" height="1.587" ry="0" fill="url(#D)" opacity=".05"/><rect transform="rotate(-90)" x="-7.144" y="10.583" width="2.91" height="1.587" ry="0" fill="url(#E)" opacity=".2"/><path transform="scale(.26458)" d="M46 16v11h9v-7l-.44-1.76A7.54 7.54 0 0 0 53 16z" fill="url(#F)" opacity=".2"/></g><path d="M10.054.375v3.857c0 .293.236.529.53.529h3.826a2.017 2.017 0 0 0-.382-.53l-3.44-3.44a1.375 1.375 0 0 0-.529-.416z" fill="url(#G)" transform="translate(-.021) scale(3.7796)"/><path d="M29.542 25c.842 0 1.528.67 1.528 1.494v5.915a2.485 2.485 0 0 0-1.528-.522c-.259 0-.468.205-.468.458s.21.457.468.457c.842 0 1.528.67 1.528 1.494v10.989a4.459 4.459 0 0 0-2.364-1.541.47.47 0 0 0-.574.323.458.458 0 0 0 .33.561c1.536.404 2.608 1.77 2.608 3.324 0 1.9-1.58 3.445-3.523 3.445a3.526 3.526 0 0 1-3.116-1.845.468.468 0 0 0-.294-.229c-1.535-.403-2.605-1.768-2.605-3.32 0-.233.023-.467.07-.694a.456.456 0 0 0-.268-.509c-1.092-.475-1.798-1.533-1.798-2.7 0-.53.14-1.037.408-1.486.699.602 1.612.969 2.614.969a.463.463 0 0 0 .469-.458.463.463 0 0 0-.469-.457c-1.667 0-3.022-1.328-3.022-2.958 0-.878.396-1.705 1.087-2.269a.449.449 0 0 0 .133-.522 2.87 2.87 0 0 1-.223-1.11c0-1.63 1.355-2.956 3.023-2.956s3.025 1.326 3.025 2.956c0 .253.209.457.468.457s.468-.204.468-.457c0-2.051-1.64-3.733-3.706-3.861a1.94 1.94 0 0 1-.285-1.016 1.98 1.98 0 0 1 1.227-1.818.397.397 0 0 0 .08-.035c.223-.083.464-.128.717-.128a2.02 2.02 0 0 1 1.826 1.116.47.47 0 0 0 .623.21.45.45 0 0 0 .215-.61 2.969 2.969 0 0 0-1.982-1.55C27.426 25.404 28.596 25 29.54 25m3.99 0c.938 0 2.113.405 3.307 1.116-.851.2-1.591.766-1.982 1.551a.452.452 0 0 0 .216.61c.232.111.512.017.625-.21a2.016 2.016 0 0 1 1.823-1.116c.253 0 .495.045.718.128a1.98 1.98 0 0 1 1.309 1.852c0 .362-.1.711-.288 1.017-2.065.128-3.703 1.81-3.703 3.86 0 .254.21.458.468.458s.468-.204.468-.457c0-1.63 1.355-2.956 3.023-2.956s3.025 1.326 3.025 2.956c0 .38-.076.754-.223 1.11a.45.45 0 0 0 .133.522 2.926 2.926 0 0 1 1.087 2.269c0 1.63-1.357 2.958-3.025 2.958-.259 0-.468.204-.468.457s.21.458.468.458a3.992 3.992 0 0 0 2.614-.97c.269.45.41.957.41 1.487 0 1.166-.705 2.225-1.797 2.7a.456.456 0 0 0-.268.51c.047.226.07.46.07.692 0 1.553-1.072 2.917-2.607 3.321a.468.468 0 0 0-.292.229 3.529 3.529 0 0 1-3.119 1.845C33.58 51.397 32 49.85 32 47.952c0-.128-.007-.258-.019-.383a.414.414 0 0 0 .019-.122V32.345c0-.823.686-1.493 1.528-1.493a.463.463 0 0 0 .468-.458.463.463 0 0 0-.468-.457 2.49 2.49 0 0 0-1.528.522v-3.967c0-.823.686-1.493 1.528-1.493m6.983 7.863a.463.463 0 0 0-.468.457c0 1.63-1.355 2.956-3.022 2.956-.82 0-1.587-.313-2.16-.886a.478.478 0 0 0-.664-.007.449.449 0 0 0-.007.646 3.965 3.965 0 0 0 2.394 1.14c.215 1.39 1.447 2.46 2.929 2.46.258 0 .468-.204.468-.457s-.21-.457-.468-.457c-.97 0-1.78-.67-1.98-1.558 1.94-.249 3.445-1.873 3.445-3.837a.463.463 0 0 0-.468-.457m-16.959.489a.46.46 0 0 0-.468.455c0 1.964 1.504 3.592 3.445 3.839-.2.889-1.01 1.556-1.98 1.556-.258 0-.468.204-.468.457s.21.458.468.458c1.482 0 2.715-1.07 2.929-2.462a3.959 3.959 0 0 0 2.394-1.137.451.451 0 0 0-.007-.648.474.474 0 0 0-.66.007 3.035 3.035 0 0 1-2.161.888c-1.668 0-3.025-1.328-3.025-2.958a.46.46 0 0 0-.468-.455m9.977 6.826c-.26 0-.469.205-.469.457s.21.458.469.458c1.667 0 3.024 1.328 3.024 2.958 0 .104-.007.208-.019.311-1.45.575-2.476 1.968-2.476 3.59 0 .253.209.457.468.457a.463.463 0 0 0 .468-.457c0-1.63 1.357-2.958 3.025-2.958.258 0 .468-.205.468-.458s-.21-.457-.468-.457c-.18 0-.36.013-.532.036l.002-.064c0-2.135-1.777-3.873-3.96-3.873m-5.486.975c-2.183 0-3.96 1.738-3.96 3.873l.002.064a4.175 4.175 0 0 0-.532-.036c-.259 0-.468.205-.468.457s.21.458.468.458c1.668 0 3.025 1.328 3.025 2.958 0 .253.21.457.468.457s.468-.204.468-.457c0-1.622-1.025-3.016-2.477-3.59a3.058 3.058 0 0 1-.019-.311c0-1.63 1.358-2.958 3.025-2.958.259 0 .468-.205.468-.458s-.21-.457-.468-.457" color="#000" fill="#fff" opacity=".75" style="isolation:auto;mix-blend-mode:normal"/></svg>