<svg width="64" height="64" xmlns="http://www.w3.org/2000/svg" xmlns:xlink="http://www.w3.org/1999/xlink"><defs><linearGradient id="b" x1="7.937" x2="7.937" y1="15.346" y2="16.933" gradientUnits="userSpaceOnUse" xlink:href="#a"/><linearGradient id="a"><stop offset="0"/><stop stop-opacity="0" offset="1"/></linearGradient><linearGradient id="d" x1="43" x2="46.748" y1="12" y2="8.252" gradientUnits="userSpaceOnUse" xlink:href="#a"/><linearGradient id="f" x1="5.821" x2="5.821" y1="1.058" gradientUnits="userSpaceOnUse" xlink:href="#a"/><linearGradient id="h" x1="13.758" x2="15.081" y1="10.583" y2="10.583" gradientUnits="userSpaceOnUse" xlink:href="#a"/><linearGradient id="i" x1="3.175" x2="1.852" y1="8.466" y2="8.466" gradientUnits="userSpaceOnUse" xlink:href="#a"/><linearGradient id="l" x1="7.937" x2="7.937" y1="15.346" y2="16.668" gradientUnits="userSpaceOnUse" xlink:href="#a"/><linearGradient id="n" x1="43" x2="46.004" y1="12" y2="8.996" gradientUnits="userSpaceOnUse" xlink:href="#a"/><linearGradient id="p" x1="5.821" x2="5.821" y1="1.058" y2=".265" gradientUnits="userSpaceOnUse" xlink:href="#a"/><linearGradient id="r" x1="13.758" x2="14.816" y1="10.583" y2="10.583" gradientUnits="userSpaceOnUse" xlink:href="#a"/><linearGradient id="s" x1="3.175" x2="2.117" y1="8.466" y2="8.466" gradientUnits="userSpaceOnUse" xlink:href="#a"/><linearGradient id="v" x1="21.039" x2="21.039" y1="2" y2="62" gradientTransform="translate(45.221 -.507) scale(.26458)" gradientUnits="userSpaceOnUse"><stop stop-color="#00d6dd" offset="0"/><stop stop-color="#0076dd" offset="1"/></linearGradient><linearGradient id="z" x1="10.583" x2="6.35" y1="3.175" y2="3.175" gradientTransform="matrix(1 0 0 .66667 45.221 1.169)" gradientUnits="userSpaceOnUse" xlink:href="#a"/><linearGradient id="A" x1="10.583" x2="8.731" y1="3.043" y2="3.043" gradientTransform="matrix(1 0 0 .66667 45.221 1.169)" gradientUnits="userSpaceOnUse" xlink:href="#a"/><linearGradient id="D" x1="10.583" x2="6.35" y1="3.175" y2="3.175" gradientTransform="matrix(1 0 0 .66667 -14.574 54.57)" gradientUnits="userSpaceOnUse" xlink:href="#a"/><linearGradient id="E" x1="10.583" x2="8.724" y1="3.043" y2="3.043" gradientTransform="matrix(1 0 0 .66667 -14.574 54.57)" gradientUnits="userSpaceOnUse" xlink:href="#a"/><linearGradient id="G" x1="40" x2="46" y1="17" y2="11" gradientTransform="translate(45.221 -.507) scale(.26458)" gradientUnits="userSpaceOnUse"><stop stop-color="#fefefe" offset="0"/><stop stop-color="#e9e9e9" offset="1"/></linearGradient><radialGradient id="c" cx="35" cy="4" r="3.728" gradientTransform="matrix(1.696 0 0 1.0731 -24.361 -.292)" gradientUnits="userSpaceOnUse" xlink:href="#a"/><radialGradient id="e" cx="52" cy="22" r="5.206" gradientTransform="matrix(.96042 0 0 1.3331 2.058 -7.328)" gradientUnits="userSpaceOnUse" xlink:href="#a"/><radialGradient id="g" cx="3.175" cy="1.323" r=".794" gradientTransform="matrix(0 -1.3333 1.6667 0 .97 5.292)" gradientUnits="userSpaceOnUse" xlink:href="#a"/><radialGradient id="j" cx="13.758" cy="15.346" r=".794" gradientTransform="matrix(0 2 -1.6667 0 39.334 -12.171)" gradientUnits="userSpaceOnUse" xlink:href="#a"/><radialGradient id="k" cx="3.175" cy="15.346" r=".794" gradientTransform="matrix(-1.6667 0 0 -2 8.466 46.037)" gradientUnits="userSpaceOnUse" xlink:href="#a"/><radialGradient id="m" cx="35" cy="4" r="3.728" gradientTransform="matrix(1.6115 0 0 .80482 -21.403 .78)" gradientUnits="userSpaceOnUse" xlink:href="#a"/><radialGradient id="o" cx="52" cy="22" r="5.206" gradientTransform="matrix(.76834 0 0 1.2272 12.047 -4.999)" gradientUnits="userSpaceOnUse" xlink:href="#a"/><radialGradient id="q" cx="3.175" cy="1.323" r=".794" gradientTransform="matrix(0 -1 1.3333 0 1.411 4.233)" gradientUnits="userSpaceOnUse" xlink:href="#a"/><radialGradient id="t" cx="13.758" cy="15.346" r=".794" gradientTransform="matrix(0 1.6667 -1.3333 0 34.219 -7.585)" gradientUnits="userSpaceOnUse" xlink:href="#a"/><radialGradient id="u" cx="3.175" cy="15.346" r=".794" gradientTransform="matrix(-1.3333 0 0 -1.6667 7.408 40.921)" gradientUnits="userSpaceOnUse" xlink:href="#a"/><radialGradient id="w" cx="40" cy="12" r="8" gradientTransform="matrix(.39687 0 0 -.52916 41.517 10.341)" gradientUnits="userSpaceOnUse" xlink:href="#a"/><radialGradient id="x" cx="10.583" cy="4.233" r="2.117" gradientTransform="matrix(-2 0 0 -2 76.971 12.457)" gradientUnits="userSpaceOnUse" xlink:href="#a"/><radialGradient id="y" cx="40" cy="12" r="8" gradientTransform="matrix(0 -.39687 .52916 0 49.455 18.278)" gradientUnits="userSpaceOnUse" xlink:href="#a"/><radialGradient id="B" cx="10.583" cy="4.233" r="2.117" gradientTransform="matrix(-.875 0 0 -.87849 65.065 7.71)" gradientUnits="userSpaceOnUse" xlink:href="#a"/><radialGradient id="C" cx="40" cy="12" r="8" gradientTransform="matrix(0 -.34601 .23278 0 53.011 16.244)" gradientUnits="userSpaceOnUse" xlink:href="#a"/><radialGradient id="F" cx="40" cy="12" r="8" gradientTransform="matrix(.3793 0 0 -.23243 42.22 6.78)" gradientUnits="userSpaceOnUse" xlink:href="#a"/></defs><g transform="translate(-170.94 1.941) scale(3.7796)"><g opacity=".15"><path fill="url(#b)" opacity="1" d="M3.175 15.346h10.583v1.587H3.175z" transform="translate(45.221 -.243)"/><path transform="translate(45.221 -.243) scale(.26458)" d="M35 0v7l7-7z" fill="url(#c)" opacity="1"/><path transform="translate(45.221 -.243) scale(.26458)" d="m42 0-7 7 14 15 9-9V3.545L54.455 0z" fill="url(#d)" opacity="1"/><path transform="translate(45.221 -.243) scale(.26458)" d="m58 13-9 9h9z" fill="url(#e)" opacity="1"/><path fill="url(#f)" opacity="1" d="M3.175 0H9.26v1.058H3.175z" transform="translate(45.221 -.243)"/><path fill="url(#g)" opacity="1" d="M1.587 0h1.587v1.058H1.587z" transform="translate(45.221 -.243)"/><path fill="url(#h)" opacity="1" d="M13.758 5.821h1.587v9.525h-1.587z" transform="translate(45.221 -.243)"/><path fill="url(#i)" opacity="1" d="M1.587 1.058h1.587v14.287H1.587z" transform="translate(45.221 -.243)"/><path fill="url(#j)" opacity="1" d="M13.758 15.346h1.587v1.587h-1.587z" transform="translate(45.221 -.243)"/><path fill="url(#k)" opacity="1" d="M1.587 15.346h1.587v1.587H1.587z" transform="translate(45.221 -.243)"/></g><g transform="translate(45.221 -.243)" opacity=".25"><path fill="url(#l)" opacity="1" d="M3.175 15.346h10.583v1.587H3.175z"/><path transform="scale(.26458)" d="M35 0v7l7-7z" fill="url(#m)" opacity="1"/><path transform="scale(.26458)" d="m42 0-7 7 14 15 9-9V3.545L54.455 0z" fill="url(#n)" opacity="1"/><path transform="scale(.26458)" d="m58 13-9 9h9z" fill="url(#o)" opacity="1"/><path fill="url(#p)" opacity="1" d="M3.175 0H9.26v1.058H3.175z"/><rect x="1.587" width="1.587" height="1.058" ry="0" fill="url(#q)" opacity="1"/><path fill="url(#r)" opacity="1" d="M13.758 5.821h1.587v9.525h-1.587z"/><path fill="url(#s)" opacity="1" d="M1.587 1.058h1.587v14.287H1.587z"/><path fill="url(#t)" opacity="1" d="M13.758 15.346h1.587v1.587h-1.587z"/><path fill="url(#u)" opacity="1" d="M1.587 15.346h1.587v1.587H1.587z"/></g><path d="M48.132.022a.528.528 0 0 0-.53.53v14.815c0 .293.237.53.53.53h11.112c.293 0 .53-.237.53-.53V5.048c0-.264-.162-.69-.53-1.058L55.804.55a1.325 1.325 0 0 0-1.058-.529z" fill="url(#v)"/><path d="M57.392 3.99v4.234h2.381V5.049c0-.035-.007-.08-.01-.12-.04-.263-.202-.621-.519-.938z" fill="url(#w)" opacity=".05"/><path fill="none" d="M53.942-.785h6.636V5.85h-6.636z"/><rect x="51.571" y="3.991" width="4.233" height="4.233" ry="0" fill="url(#x)" opacity=".05"/><path d="M51.571.022v2.381h4.233V.551a1.325 1.325 0 0 0-1.058-.529z" fill="url(#y)" opacity=".05"/><rect x="51.571" y="2.403" width="4.233" height="1.587" ry="0" fill="url(#z)" opacity=".05"/><rect x="52.894" y="2.403" width="2.91" height="1.587" ry="0" fill="url(#A)" opacity=".2"/><rect x="52.894" y="3.991" width="2.91" height="2.91" ry="0" fill="url(#B)" opacity=".2"/><path d="M52.894.022v2.381h2.91V.551a1.4 1.4 0 0 0-.444-.375l-.614-.154z" fill="url(#C)" opacity=".2"/><rect transform="rotate(-90)" x="-8.224" y="55.804" width="4.233" height="1.587" ry="0" fill="url(#D)" opacity=".05"/><rect transform="rotate(-90)" x="-6.901" y="55.804" width="2.91" height="1.587" ry="0" fill="url(#E)" opacity=".2"/><path d="M57.392 3.99v2.911h2.381V5.05l-.116-.466c-.086-.192-.22-.4-.413-.592z" fill="url(#F)" opacity=".2"/><path d="M55.275.133v3.856c0 .293.236.53.53.53h3.826a2.017 2.017 0 0 0-.382-.53l-3.44-3.44a1.375 1.375 0 0 0-.529-.416z" fill="url(#G)"/></g><path d="M32 25c-4.432 0-8 3.568-8 8v4h-1v5.687l.406-.53c.582-.781 2.131-1.897 3.344-2.376.639-.252 2.173-.53 3.906-.719C33.267 38.77 38.2 39 40 37v-4c0-4.432-3.568-8-8-8zm.656.969c.38.022.751.066 1.125.156 1.345.323 1.496.634.188.375-2.06-.408-4.794.508-6.469 2.187-.5.503-1.133 1.334-1.406 1.844-.564 1.052-.475.374.125-.906 1.097-2.341 3.783-3.811 6.437-3.656zM32 29c2.216 0 4 1.784 4 4v4h-8v-4c0-2.216 1.784-4 4-4zm9 9.156-1.063.875c-.577.492-1.48 1.164-2.03 1.5-1.126.688-3.795 1.656-4.595 1.656-.3 0-.476.073-.406.188.134.216 1.731.119 3.406-.219.55-.11 1.827-.61 2.844-1.125L41 40.094zm0 2.156-.563.782c-1.865 2.571-4.903 3.996-9.125 4.25-2.819.169-1.787.49 1.594.5 2.29.003 2.807-.067 4.188-.532.864-.29 1.581-.512 1.625-.468.157.157-1.533 1.556-2.469 2.031-1.793.91-3.014 1.165-6.25 1.312-2.299.105-3.243.224-3.688.47-.566.311-.192.333 7.032.343H41z" fill="#fff" overflow="visible"/></svg>