<svg width="64" height="64" xmlns="http://www.w3.org/2000/svg" xmlns:xlink="http://www.w3.org/1999/xlink"><defs><linearGradient id="b" x1="7.937" x2="7.937" y1="15.346" y2="16.933" gradientUnits="userSpaceOnUse" xlink:href="#a"/><linearGradient id="a"><stop offset="0"/><stop stop-opacity="0" offset="1"/></linearGradient><linearGradient id="d" x1="43" x2="46.748" y1="12" y2="8.252" gradientUnits="userSpaceOnUse" xlink:href="#a"/><linearGradient id="f" x1="5.821" x2="5.821" y1="1.058" gradientUnits="userSpaceOnUse" xlink:href="#a"/><linearGradient id="h" x1="13.758" x2="15.081" y1="10.583" y2="10.583" gradientUnits="userSpaceOnUse" xlink:href="#a"/><linearGradient id="i" x1="3.175" x2="1.852" y1="8.466" y2="8.466" gradientUnits="userSpaceOnUse" xlink:href="#a"/><linearGradient id="l" x1="7.937" x2="7.937" y1="15.346" y2="16.668" gradientUnits="userSpaceOnUse" xlink:href="#a"/><linearGradient id="n" x1="43" x2="46.004" y1="12" y2="8.996" gradientUnits="userSpaceOnUse" xlink:href="#a"/><linearGradient id="p" x1="5.821" x2="5.821" y1="1.058" y2=".265" gradientUnits="userSpaceOnUse" xlink:href="#a"/><linearGradient id="r" x1="13.758" x2="14.816" y1="10.583" y2="10.583" gradientUnits="userSpaceOnUse" xlink:href="#a"/><linearGradient id="s" x1="3.175" x2="2.117" y1="8.466" y2="8.466" gradientUnits="userSpaceOnUse" xlink:href="#a"/><linearGradient id="v" x1="45" x2="11" y1="9" y2="60" gradientTransform="translate(.047 -.265) scale(.26458)" gradientUnits="userSpaceOnUse"><stop stop-color="#ededed" offset="0"/><stop stop-color="#fcfcfc" offset="1"/></linearGradient><linearGradient id="z" x1="10.583" x2="6.35" y1="3.175" y2="3.175" gradientTransform="matrix(1 0 0 .66667 .047 1.411)" gradientUnits="userSpaceOnUse" xlink:href="#a"/><linearGradient id="A" x1="10.583" x2="8.731" y1="3.043" y2="3.043" gradientTransform="matrix(1 0 0 .66667 .047 1.411)" gradientUnits="userSpaceOnUse" xlink:href="#a"/><linearGradient id="D" x1="10.583" x2="6.35" y1="3.175" y2="3.175" gradientTransform="matrix(1 0 0 .66667 -14.816 9.395)" gradientUnits="userSpaceOnUse" xlink:href="#a"/><linearGradient id="E" x1="10.583" x2="8.724" y1="3.043" y2="3.043" gradientTransform="matrix(1 0 0 .66667 -14.816 9.395)" gradientUnits="userSpaceOnUse" xlink:href="#a"/><linearGradient id="G" x1="40" x2="46" y1="17" y2="11" gradientTransform="translate(.047 -.265) scale(.26458)" gradientUnits="userSpaceOnUse"><stop stop-color="#fefefe" offset="0"/><stop stop-color="#e9e9e9" offset="1"/></linearGradient><radialGradient id="c" cx="35" cy="4" r="3.728" gradientTransform="matrix(1.696 0 0 1.0731 -24.361 -.292)" gradientUnits="userSpaceOnUse" xlink:href="#a"/><radialGradient id="e" cx="52" cy="22" r="5.206" gradientTransform="matrix(.96042 0 0 1.3331 2.058 -7.328)" gradientUnits="userSpaceOnUse" xlink:href="#a"/><radialGradient id="g" cx="3.175" cy="1.323" r=".794" gradientTransform="matrix(0 -1.3333 1.6667 0 .97 5.292)" gradientUnits="userSpaceOnUse" xlink:href="#a"/><radialGradient id="j" cx="13.758" cy="15.346" r=".794" gradientTransform="matrix(0 2 -1.6667 0 39.334 -12.171)" gradientUnits="userSpaceOnUse" xlink:href="#a"/><radialGradient id="k" cx="3.175" cy="15.346" r=".794" gradientTransform="matrix(-1.6667 0 0 -2 8.466 46.037)" gradientUnits="userSpaceOnUse" xlink:href="#a"/><radialGradient id="m" cx="35" cy="4" r="3.728" gradientTransform="matrix(1.6115 0 0 .80482 -21.403 .78)" gradientUnits="userSpaceOnUse" xlink:href="#a"/><radialGradient id="o" cx="52" cy="22" r="5.206" gradientTransform="matrix(.76834 0 0 1.2272 12.047 -4.999)" gradientUnits="userSpaceOnUse" xlink:href="#a"/><radialGradient id="q" cx="3.175" cy="1.323" r=".794" gradientTransform="matrix(0 -1 1.3333 0 1.411 4.233)" gradientUnits="userSpaceOnUse" xlink:href="#a"/><radialGradient id="t" cx="13.758" cy="15.346" r=".794" gradientTransform="matrix(0 1.6667 -1.3333 0 34.219 -7.585)" gradientUnits="userSpaceOnUse" xlink:href="#a"/><radialGradient id="u" cx="3.175" cy="15.346" r=".794" gradientTransform="matrix(-1.3333 0 0 -1.6667 7.408 40.921)" gradientUnits="userSpaceOnUse" xlink:href="#a"/><radialGradient id="w" cx="40" cy="12" r="8" gradientTransform="matrix(.39687 0 0 -.52916 -3.657 10.583)" gradientUnits="userSpaceOnUse" xlink:href="#a"/><radialGradient id="x" cx="10.583" cy="4.233" r="2.117" gradientTransform="matrix(-2 0 0 -2 31.796 12.7)" gradientUnits="userSpaceOnUse" xlink:href="#a"/><radialGradient id="y" cx="40" cy="12" r="8" gradientTransform="matrix(0 -.39687 .52916 0 4.28 18.52)" gradientUnits="userSpaceOnUse" xlink:href="#a"/><radialGradient id="B" cx="10.583" cy="4.233" r="2.117" gradientTransform="matrix(-.875 0 0 -.87849 19.89 7.952)" gradientUnits="userSpaceOnUse" xlink:href="#a"/><radialGradient id="C" cx="40" cy="12" r="8" gradientTransform="matrix(0 -.34601 .23278 0 7.837 16.486)" gradientUnits="userSpaceOnUse" xlink:href="#a"/><radialGradient id="F" cx="40" cy="12" r="8" gradientTransform="matrix(.3793 0 0 -.23243 -2.955 7.022)" gradientUnits="userSpaceOnUse" xlink:href="#a"/></defs><g opacity=".1"><path fill="url(#b)" opacity="1" d="M3.175 15.346h10.583v1.587H3.175z" transform="translate(-.021) scale(3.7796)"/><path transform="translate(-.021)" d="M35 0v7l7-7z" fill="url(#c)" opacity="1"/><path transform="translate(-.021)" d="m42 0-7 7 14 15 9-9V3.545L54.455 0z" fill="url(#d)" opacity="1"/><path transform="translate(-.021)" d="m58 13-9 9h9z" fill="url(#e)" opacity="1"/><path fill="url(#f)" opacity="1" d="M3.175 0H9.26v1.058H3.175z" transform="translate(-.021) scale(3.7796)"/><path fill="url(#g)" opacity="1" d="M1.587 0h1.587v1.058H1.587z" transform="translate(-.021) scale(3.7796)"/><path fill="url(#h)" opacity="1" d="M13.758 5.821h1.587v9.525h-1.587z" transform="translate(-.021) scale(3.7796)"/><path fill="url(#i)" opacity="1" d="M1.587 1.058h1.587v14.287H1.587z" transform="translate(-.021) scale(3.7796)"/><path fill="url(#j)" opacity="1" d="M13.758 15.346h1.587v1.587h-1.587z" transform="translate(-.021) scale(3.7796)"/><path fill="url(#k)" opacity="1" d="M1.587 15.346h1.587v1.587H1.587z" transform="translate(-.021) scale(3.7796)"/></g><g transform="translate(-.021) scale(3.7796)" opacity=".2"><path fill="url(#l)" opacity="1" d="M3.175 15.346h10.583v1.587H3.175z"/><path transform="scale(.26458)" d="M35 0v7l7-7z" fill="url(#m)" opacity="1"/><path transform="scale(.26458)" d="m42 0-7 7 14 15 9-9V3.545L54.455 0z" fill="url(#n)" opacity="1"/><path transform="scale(.26458)" d="m58 13-9 9h9z" fill="url(#o)" opacity="1"/><path fill="url(#p)" opacity="1" d="M3.175 0H9.26v1.058H3.175z"/><rect x="1.587" width="1.587" height="1.058" ry="0" fill="url(#q)" opacity="1"/><path fill="url(#r)" opacity="1" d="M13.758 5.821h1.587v9.525h-1.587z"/><path fill="url(#s)" opacity="1" d="M1.587 1.058h1.587v14.287H1.587z"/><path fill="url(#t)" opacity="1" d="M13.758 15.346h1.587v1.587h-1.587z"/><path fill="url(#u)" opacity="1" d="M1.587 15.346h1.587v1.587H1.587z"/></g><path d="M2.957.265a.528.528 0 0 0-.529.529V15.61c0 .293.236.529.53.529h11.111c.293 0 .53-.236.53-.53V5.292c0-.265-.162-.69-.53-1.059L10.63.792A1.325 1.325 0 0 0 9.572.265z" fill="url(#v)" transform="translate(-.198) scale(3.7796)"/><path d="M12.217 4.233v4.233h2.381V5.292c0-.035-.007-.08-.01-.12-.04-.263-.202-.622-.519-.939z" fill="url(#w)" opacity=".05" transform="translate(-.198) scale(3.7796)"/><path fill="none" d="M32.942-2.049h25.081V23.03H32.942z"/><g transform="translate(-.198) scale(3.7796)"><rect x="6.397" y="4.233" width="4.233" height="4.233" ry="0" fill="url(#x)" opacity=".05"/><path d="M6.397.265v2.38h4.233V.795A1.325 1.325 0 0 0 9.57.264z" fill="url(#y)" opacity=".05"/><rect x="6.397" y="2.646" width="4.233" height="1.587" ry="0" fill="url(#z)" opacity=".05"/><rect x="7.72" y="2.646" width="2.91" height="1.587" ry="0" fill="url(#A)" opacity=".2"/><rect x="7.72" y="4.233" width="2.91" height="2.91" ry="0" fill="url(#B)" opacity=".2"/><path d="M7.72.265v2.38h2.91V.795a1.4 1.4 0 0 0-.445-.376L9.572.265z" fill="url(#C)" opacity=".2"/><rect transform="rotate(-90)" x="-8.466" y="10.63" width="4.233" height="1.587" ry="0" fill="url(#D)" opacity=".05"/><rect transform="rotate(-90)" x="-7.144" y="10.63" width="2.91" height="1.587" ry="0" fill="url(#E)" opacity=".2"/><path d="M12.217 4.233v2.91h2.381V5.293l-.116-.466c-.086-.193-.22-.4-.413-.593z" fill="url(#F)" opacity=".2"/></g><path d="M10.101.375v3.857c0 .293.236.529.53.529h3.821a2.017 2.017 0 0 0-.382-.53L10.63.792a1.375 1.375 0 0 0-.529-.416z" fill="url(#G)" transform="translate(-.198) scale(3.7796)"/><path d="M19 21h6v32h-6z" color="#bebebe" fill="#68b723" opacity=".75" overflow="visible"/><path d="M29 37h6v16h-6z" fill="#c6262e" opacity=".75" overflow="visible"/><path d="M39 29h6v24h-6z" color="#bebebe" fill="#3689e6" opacity=".75" overflow="visible"/></svg>