<svg xmlns="http://www.w3.org/2000/svg" xmlns:xlink="http://www.w3.org/1999/xlink" width="64" height="64"><defs><linearGradient xlink:href="#a" id="b" x1="7.937" x2="7.937" y1="15.346" y2="16.933" gradientUnits="userSpaceOnUse"/><linearGradient id="a"><stop offset="0"/><stop offset="1" stop-opacity="0"/></linearGradient><linearGradient xlink:href="#a" id="d" x1="43" x2="46.748" y1="12" y2="8.252" gradientUnits="userSpaceOnUse"/><linearGradient xlink:href="#a" id="f" x1="5.821" x2="5.821" y1="1.058" gradientUnits="userSpaceOnUse"/><linearGradient xlink:href="#a" id="h" x1="13.758" x2="15.081" y1="10.583" y2="10.583" gradientUnits="userSpaceOnUse"/><linearGradient xlink:href="#a" id="i" x1="3.175" x2="1.852" y1="8.466" y2="8.466" gradientUnits="userSpaceOnUse"/><linearGradient xlink:href="#a" id="l" x1="7.937" x2="7.937" y1="15.346" y2="16.668" gradientUnits="userSpaceOnUse"/><linearGradient xlink:href="#a" id="n" x1="43" x2="46.004" y1="12" y2="8.996" gradientUnits="userSpaceOnUse"/><linearGradient xlink:href="#a" id="p" x1="5.821" x2="5.821" y1="1.058" y2=".265" gradientUnits="userSpaceOnUse"/><linearGradient xlink:href="#a" id="r" x1="13.758" x2="14.816" y1="10.583" y2="10.583" gradientUnits="userSpaceOnUse"/><linearGradient xlink:href="#a" id="s" x1="3.175" x2="2.117" y1="8.466" y2="8.466" gradientUnits="userSpaceOnUse"/><linearGradient id="v" x1="45" x2="11" y1="9" y2="60" gradientTransform="translate(.047 -.265)scale(.26458)" gradientUnits="userSpaceOnUse"><stop offset="0" stop-color="#ededed"/><stop offset="1" stop-color="#fcfcfc"/></linearGradient><linearGradient xlink:href="#a" id="z" x1="10.583" x2="6.35" y1="3.175" y2="3.175" gradientTransform="matrix(1 0 0 .66667 .047 1.411)" gradientUnits="userSpaceOnUse"/><linearGradient xlink:href="#a" id="A" x1="10.583" x2="8.731" y1="3.043" y2="3.043" gradientTransform="matrix(1 0 0 .66667 .047 1.411)" gradientUnits="userSpaceOnUse"/><linearGradient xlink:href="#a" id="D" x1="10.583" x2="6.35" y1="3.175" y2="3.175" gradientTransform="matrix(1 0 0 .66667 -14.816 9.395)" gradientUnits="userSpaceOnUse"/><linearGradient xlink:href="#a" id="E" x1="10.583" x2="8.724" y1="3.043" y2="3.043" gradientTransform="matrix(1 0 0 .66667 -14.816 9.395)" gradientUnits="userSpaceOnUse"/><linearGradient id="G" x1="40" x2="46" y1="17" y2="11" gradientTransform="translate(.047 -.265)scale(.26458)" gradientUnits="userSpaceOnUse"><stop offset="0" stop-color="#fefefe"/><stop offset="1" stop-color="#e9e9e9"/></linearGradient><radialGradient xlink:href="#a" id="c" cx="35" cy="4" r="3.728" gradientTransform="matrix(1.696 0 0 1.0731 -24.361 -.292)" gradientUnits="userSpaceOnUse"/><radialGradient xlink:href="#a" id="e" cx="52" cy="22" r="5.206" gradientTransform="matrix(.96042 0 0 1.3331 2.058 -7.328)" gradientUnits="userSpaceOnUse"/><radialGradient xlink:href="#a" id="g" cx="3.175" cy="1.323" r=".794" gradientTransform="matrix(0 -1.3333 1.6667 0 .97 5.292)" gradientUnits="userSpaceOnUse"/><radialGradient xlink:href="#a" id="j" cx="13.758" cy="15.346" r=".794" gradientTransform="matrix(0 2 -1.6667 0 39.334 -12.171)" gradientUnits="userSpaceOnUse"/><radialGradient xlink:href="#a" id="k" cx="3.175" cy="15.346" r=".794" gradientTransform="matrix(-1.6667 0 0 -2 8.466 46.037)" gradientUnits="userSpaceOnUse"/><radialGradient xlink:href="#a" id="m" cx="35" cy="4" r="3.728" gradientTransform="matrix(1.6115 0 0 .80482 -21.403 .78)" gradientUnits="userSpaceOnUse"/><radialGradient xlink:href="#a" id="o" cx="52" cy="22" r="5.206" gradientTransform="matrix(.76834 0 0 1.2272 12.047 -4.999)" gradientUnits="userSpaceOnUse"/><radialGradient xlink:href="#a" id="q" cx="3.175" cy="1.323" r=".794" gradientTransform="matrix(0 -1 1.3333 0 1.411 4.233)" gradientUnits="userSpaceOnUse"/><radialGradient xlink:href="#a" id="t" cx="13.758" cy="15.346" r=".794" gradientTransform="matrix(0 1.6667 -1.3333 0 34.219 -7.585)" gradientUnits="userSpaceOnUse"/><radialGradient xlink:href="#a" id="u" cx="3.175" cy="15.346" r=".794" gradientTransform="matrix(-1.3333 0 0 -1.6667 7.408 40.921)" gradientUnits="userSpaceOnUse"/><radialGradient xlink:href="#a" id="w" cx="40" cy="12" r="8" gradientTransform="matrix(.39687 0 0 -.52916 -3.657 10.583)" gradientUnits="userSpaceOnUse"/><radialGradient xlink:href="#a" id="x" cx="10.583" cy="4.233" r="2.117" gradientTransform="matrix(-2 0 0 -2 31.796 12.7)" gradientUnits="userSpaceOnUse"/><radialGradient xlink:href="#a" id="y" cx="40" cy="12" r="8" gradientTransform="matrix(0 -.39687 .52916 0 4.28 18.52)" gradientUnits="userSpaceOnUse"/><radialGradient xlink:href="#a" id="B" cx="10.583" cy="4.233" r="2.117" gradientTransform="matrix(-.875 0 0 -.87849 19.89 7.952)" gradientUnits="userSpaceOnUse"/><radialGradient xlink:href="#a" id="C" cx="40" cy="12" r="8" gradientTransform="matrix(0 -.34601 .23278 0 7.837 16.486)" gradientUnits="userSpaceOnUse"/><radialGradient xlink:href="#a" id="F" cx="40" cy="12" r="8" gradientTransform="matrix(.3793 0 0 -.23243 -2.955 7.022)" gradientUnits="userSpaceOnUse"/></defs><g opacity=".1"><path fill="url(#b)" d="M3.175 15.346h10.583v1.587H3.175z" opacity="1" transform="translate(-.021)scale(3.7796)"/><path fill="url(#c)" d="M35 0v7l7-7z" opacity="1" transform="translate(-.021)"/><path fill="url(#d)" d="m42 0-7 7 14 15 9-9V3.545L54.455 0z" opacity="1" transform="translate(-.021)"/><path fill="url(#e)" d="m58 13-9 9h9z" opacity="1" transform="translate(-.021)"/><path fill="url(#f)" d="M3.175 0H9.26v1.058H3.175z" opacity="1" transform="translate(-.021)scale(3.7796)"/><path fill="url(#g)" d="M1.587 0h1.587v1.058H1.587z" opacity="1" transform="translate(-.021)scale(3.7796)"/><path fill="url(#h)" d="M13.758 5.821h1.587v9.525h-1.587z" opacity="1" transform="translate(-.021)scale(3.7796)"/><path fill="url(#i)" d="M1.587 1.058h1.587v14.287H1.587z" opacity="1" transform="translate(-.021)scale(3.7796)"/><path fill="url(#j)" d="M13.758 15.346h1.587v1.587h-1.587z" opacity="1" transform="translate(-.021)scale(3.7796)"/><path fill="url(#k)" d="M1.587 15.346h1.587v1.587H1.587z" opacity="1" transform="translate(-.021)scale(3.7796)"/></g><g opacity=".2" transform="translate(-.021)scale(3.7796)"><path fill="url(#l)" d="M3.175 15.346h10.583v1.587H3.175z" opacity="1"/><path fill="url(#m)" d="M35 0v7l7-7z" opacity="1" transform="scale(.26458)"/><path fill="url(#n)" d="m42 0-7 7 14 15 9-9V3.545L54.455 0z" opacity="1" transform="scale(.26458)"/><path fill="url(#o)" d="m58 13-9 9h9z" opacity="1" transform="scale(.26458)"/><path fill="url(#p)" d="M3.175 0H9.26v1.058H3.175z" opacity="1"/><rect width="1.587" height="1.058" x="1.587" fill="url(#q)" opacity="1" ry="0"/><path fill="url(#r)" d="M13.758 5.821h1.587v9.525h-1.587z" opacity="1"/><path fill="url(#s)" d="M1.587 1.058h1.587v14.287H1.587z" opacity="1"/><path fill="url(#t)" d="M13.758 15.346h1.587v1.587h-1.587z" opacity="1"/><path fill="url(#u)" d="M1.587 15.346h1.587v1.587H1.587z" opacity="1"/></g><path fill="url(#v)" d="M2.957.265a.53.53 0 0 0-.529.529V15.61c0 .293.236.529.53.529h11.111c.293 0 .53-.236.53-.53V5.292c0-.265-.162-.69-.53-1.059L10.63.792A1.33 1.33 0 0 0 9.572.265z" transform="translate(-.198)scale(3.7796)"/><path fill="url(#w)" d="M12.217 4.233v4.233h2.381V5.292c0-.035-.007-.08-.01-.12-.04-.263-.202-.622-.519-.939z" opacity=".05" transform="translate(-.198)scale(3.7796)"/><path fill="none" d="M32.942-2.049h25.081V23.03H32.942z"/><g transform="translate(-.198)scale(3.7796)"><rect width="4.233" height="4.233" x="6.397" y="4.233" fill="url(#x)" opacity=".05" ry="0"/><path fill="url(#y)" d="M6.397.265v2.38h4.233V.795A1.33 1.33 0 0 0 9.57.264z" opacity=".05"/><rect width="4.233" height="1.587" x="6.397" y="2.646" fill="url(#z)" opacity=".05" ry="0"/><rect width="2.91" height="1.587" x="7.72" y="2.646" fill="url(#A)" opacity=".2" ry="0"/><rect width="2.91" height="2.91" x="7.72" y="4.233" fill="url(#B)" opacity=".2" ry="0"/><path fill="url(#C)" d="M7.72.265v2.38h2.91V.795a1.4 1.4 0 0 0-.445-.376L9.572.265z" opacity=".2"/><rect width="4.233" height="1.587" x="-8.466" y="10.63" fill="url(#D)" opacity=".05" ry="0" transform="rotate(-90)"/><rect width="2.91" height="1.587" x="-7.144" y="10.63" fill="url(#E)" opacity=".2" ry="0" transform="rotate(-90)"/><path fill="url(#F)" d="M12.217 4.233v2.91h2.381v-1.85l-.116-.466c-.086-.193-.22-.4-.413-.593z" opacity=".2"/></g><path fill="url(#G)" d="M10.101.375v3.857c0 .293.236.529.53.529h3.821a2 2 0 0 0-.382-.53L10.63.792a1.4 1.4 0 0 0-.529-.416z" transform="translate(-.198)scale(3.7796)"/><path fill="#68b723" d="M19 21h6v32h-6z" color="#bebebe" opacity=".75" overflow="visible"/><path fill="#c6262e" d="M29 37h6v16h-6z" opacity=".75" overflow="visible"/><path fill="#3689e6" d="M39 29h6v24h-6z" color="#bebebe" opacity=".75" overflow="visible"/></svg>