<svg width="64" height="64" version="1.1" viewBox="0 0 16.933 16.933" xmlns="http://www.w3.org/2000/svg" xmlns:xlink="http://www.w3.org/1999/xlink">
 <defs>
  <linearGradient id="linearGradient6191" x1="7.9373" x2="7.9373" y1="15.346" y2="16.933" gradientUnits="userSpaceOnUse" xlink:href="#linearGradient6067"/>
  <linearGradient id="linearGradient6067">
   <stop offset="0"/>
   <stop stop-opacity="0" offset="1"/>
  </linearGradient>
  <radialGradient id="radialGradient6247" cx="35" cy="4" r="3.7275" gradientTransform="matrix(1.696 0 0 1.0731 -24.361 -.29238)" gradientUnits="userSpaceOnUse" xlink:href="#linearGradient6067"/>
  <linearGradient id="linearGradient6263" x1="43" x2="46.748" y1="12" y2="8.2517" gradientUnits="userSpaceOnUse" xlink:href="#linearGradient6067"/>
  <radialGradient id="radialGradient6255" cx="52" cy="22" r="5.2061" gradientTransform="matrix(.96042 0 0 1.3331 2.0581 -7.3283)" gradientUnits="userSpaceOnUse" xlink:href="#linearGradient6067"/>
  <linearGradient id="linearGradient6239" x1="5.8207" x2="5.8207" y1="1.0583" gradientUnits="userSpaceOnUse" xlink:href="#linearGradient6067"/>
  <radialGradient id="radialGradient6231" cx="3.1749" cy="1.3229" r=".79373" gradientTransform="matrix(-2.1078e-8 -1.3333 1.6667 -2.6348e-8 .97012 5.2916)" gradientUnits="userSpaceOnUse" xlink:href="#linearGradient6067"/>
  <linearGradient id="linearGradient6215" x1="13.758" x2="15.081" y1="10.583" y2="10.583" gradientUnits="userSpaceOnUse" xlink:href="#linearGradient6067"/>
  <linearGradient id="linearGradient6223" x1="3.1749" x2="1.852" y1="8.4665" y2="8.4665" gradientUnits="userSpaceOnUse" xlink:href="#linearGradient6067"/>
  <radialGradient id="radialGradient6207" cx="13.758" cy="15.346" r=".79373" gradientTransform="matrix(5.1718e-7,2,-1.6667,4.3098e-7,39.334,-12.171)" gradientUnits="userSpaceOnUse" xlink:href="#linearGradient6067"/>
  <radialGradient id="radialGradient6199" cx="3.1749" cy="15.346" r=".79373" gradientTransform="matrix(-1.6667,-1.37e-6,1.644e-6,-2,8.4665,46.037)" gradientUnits="userSpaceOnUse" xlink:href="#linearGradient6067"/>
  <linearGradient id="linearGradient6315" x1="7.9373" x2="7.9373" y1="15.346" y2="16.668" gradientUnits="userSpaceOnUse" xlink:href="#linearGradient6067"/>
  <radialGradient id="radialGradient6331" cx="35" cy="4" r="3.7275" gradientTransform="matrix(1.6115 -1.9122e-7 9.5496e-8 .80482 -21.403 .78072)" gradientUnits="userSpaceOnUse" xlink:href="#linearGradient6067"/>
  <linearGradient id="linearGradient6333" x1="43" x2="46.004" y1="12" y2="8.9965" gradientUnits="userSpaceOnUse" xlink:href="#linearGradient6067"/>
  <radialGradient id="radialGradient6321" cx="52" cy="22" r="5.2061" gradientTransform="matrix(.76834 -9.6042e-8 1.534e-7 1.2272 12.047 -4.9986)" gradientUnits="userSpaceOnUse" xlink:href="#linearGradient6067"/>
  <linearGradient id="linearGradient6335" x1="5.8207" x2="5.8207" y1="1.0583" y2=".26458" gradientUnits="userSpaceOnUse" xlink:href="#linearGradient6067"/>
  <radialGradient id="radialGradient6337" cx="3.1749" cy="1.3229" r=".79373" gradientTransform="matrix(-7.442e-8,-1,1.3333,-9.9226e-8,1.4111,4.2333)" gradientUnits="userSpaceOnUse" xlink:href="#linearGradient6067"/>
  <linearGradient id="linearGradient6319" x1="13.758" x2="14.816" y1="10.583" y2="10.583" gradientUnits="userSpaceOnUse" xlink:href="#linearGradient6067"/>
  <linearGradient id="linearGradient6309" x1="3.1749" x2="2.1166" y1="8.4665" y2="8.4665" gradientUnits="userSpaceOnUse" xlink:href="#linearGradient6067"/>
  <radialGradient id="radialGradient6317" cx="13.758" cy="15.346" r=".79373" gradientTransform="matrix(0,1.6667,-1.3333,0,34.219,-7.5846)" gradientUnits="userSpaceOnUse" xlink:href="#linearGradient6067"/>
  <radialGradient id="radialGradient6311" cx="3.1749" cy="15.346" r=".79373" gradientTransform="matrix(-1.3333,0,0,-1.6667,7.4082,40.921)" gradientUnits="userSpaceOnUse" xlink:href="#linearGradient6067"/>
  <linearGradient id="linearGradient4553" x1="45" x2="11" y1="9" y2="60" gradientTransform="matrix(.26458 0 0 .26458 .046771 -.26458)" gradientUnits="userSpaceOnUse">
   <stop stop-color="#ededed" offset="0"/>
   <stop stop-color="#fcfcfc" offset="1"/>
  </linearGradient>
  <radialGradient id="radialGradient6129" cx="40" cy="12" r="8" gradientTransform="matrix(.39687 0 0 -.52916 -3.6573 10.583)" gradientUnits="userSpaceOnUse" xlink:href="#linearGradient6067"/>
  <radialGradient id="radialGradient6017" cx="10.583" cy="4.2333" r="2.1166" gradientTransform="matrix(-2,3.1236e-7,-3.1236e-7,-2,31.796,12.7)" gradientUnits="userSpaceOnUse" xlink:href="#linearGradient6067"/>
  <radialGradient id="radialGradient6042" cx="40" cy="12" r="8" gradientTransform="matrix(0 -.39687 .52916 0 4.28 18.52)" gradientUnits="userSpaceOnUse" xlink:href="#linearGradient6067"/>
  <linearGradient id="linearGradient6093" x1="10.583" x2="6.3499" y1="3.1749" y2="3.1749" gradientTransform="matrix(1 0 0 .66667 .046771 1.4111)" gradientUnits="userSpaceOnUse" xlink:href="#linearGradient6067"/>
  <linearGradient id="linearGradient6073" x1="10.583" x2="8.7311" y1="3.0426" y2="3.0426" gradientTransform="matrix(1 0 0 .66667 .046771 1.4111)" gradientUnits="userSpaceOnUse" xlink:href="#linearGradient6067"/>
  <radialGradient id="radialGradient6083" cx="10.583" cy="4.2333" r="2.1166" gradientTransform="matrix(-.875 -1.6564e-7 1.6631e-7 -.87849 19.89 7.9521)" gradientUnits="userSpaceOnUse" xlink:href="#linearGradient6067"/>
  <radialGradient id="radialGradient6089" cx="40" cy="12" r="8" gradientTransform="matrix(0 -.34601 .23278 0 7.8365 16.486)" gradientUnits="userSpaceOnUse" xlink:href="#linearGradient6067"/>
  <linearGradient id="linearGradient6121" x1="10.583" x2="6.3499" y1="3.1749" y2="3.1749" gradientTransform="matrix(1 0 0 .66667 -14.816 9.3952)" gradientUnits="userSpaceOnUse" xlink:href="#linearGradient6067"/>
  <linearGradient id="linearGradient6123" x1="10.583" x2="8.7237" y1="3.0426" y2="3.0426" gradientTransform="matrix(1 0 0 .66667 -14.816 9.3952)" gradientUnits="userSpaceOnUse" xlink:href="#linearGradient6067"/>
  <radialGradient id="radialGradient6131" cx="40" cy="12" r="8" gradientTransform="matrix(.3793 0 0 -.23243 -2.9547 7.0224)" gradientUnits="userSpaceOnUse" xlink:href="#linearGradient6067"/>
  <linearGradient id="linearGradient4561" x1="40" x2="46" y1="17" y2="11" gradientTransform="matrix(.26458 0 0 .26458 .046771 -.26458)" gradientUnits="userSpaceOnUse">
   <stop stop-color="#fefefe" offset="0"/>
   <stop stop-color="#e9e9e9" offset="1"/>
  </linearGradient>
 </defs>
 <g transform="translate(-.052351)">
  <g transform="translate(.046771)" opacity=".1">
   <rect x="3.1749" y="15.346" width="10.583" height="1.5875" fill="url(#linearGradient6191)" opacity="1"/>
   <path transform="scale(.26458)" d="m35 0 1e-6 7 7-7z" fill="url(#radialGradient6247)" opacity="1"/>
   <path transform="scale(.26458)" d="m42 0-7 7 14 15 9-9 2e-6 -9.4551-3.5449-3.5449z" fill="url(#linearGradient6263)" opacity="1"/>
   <path transform="scale(.26458)" d="m58 13-9 9h9z" fill="url(#radialGradient6255)" opacity="1"/>
   <rect x="3.1749" width="6.0853" height="1.0583" fill="url(#linearGradient6239)" opacity="1"/>
   <rect x="1.5875" width="1.5875" height="1.0583" fill="url(#radialGradient6231)" opacity="1"/>
   <rect x="13.758" y="5.8207" width="1.5875" height="9.5248" fill="url(#linearGradient6215)" opacity="1"/>
   <rect x="1.5875" y="1.0583" width="1.5875" height="14.287" fill="url(#linearGradient6223)" opacity="1"/>
   <rect x="13.758" y="15.346" width="1.5875" height="1.5875" fill="url(#radialGradient6207)" opacity="1"/>
   <rect x="1.5875" y="15.346" width="1.5875" height="1.5875" fill="url(#radialGradient6199)" opacity="1"/>
  </g>
  <g transform="translate(.046771)" opacity=".2">
   <rect x="3.1749" y="15.346" width="10.583" height="1.5875" fill="url(#linearGradient6315)" opacity="1"/>
   <path transform="scale(.26458)" d="m35 0 1e-6 7 7-7z" fill="url(#radialGradient6331)" opacity="1"/>
   <path transform="scale(.26458)" d="m42 0-7 7 14 15 9-9 2e-6 -9.4551-3.5449-3.5449z" fill="url(#linearGradient6333)" opacity="1"/>
   <path transform="scale(.26458)" d="m58 13-9 9h9z" fill="url(#radialGradient6321)" opacity="1"/>
   <rect x="3.1749" width="6.0853" height="1.0583" fill="url(#linearGradient6335)" opacity="1"/>
   <rect x="1.5875" width="1.5875" height="1.0583" ry="0" fill="url(#radialGradient6337)" opacity="1"/>
   <rect x="13.758" y="5.8207" width="1.5875" height="9.5248" fill="url(#linearGradient6319)" opacity="1"/>
   <rect x="1.5875" y="1.0583" width="1.5875" height="14.287" fill="url(#linearGradient6309)" opacity="1"/>
   <rect x="13.758" y="15.346" width="1.5875" height="1.5875" fill="url(#radialGradient6317)" opacity="1"/>
   <rect x="1.5875" y="15.346" width="1.5875" height="1.5875" fill="url(#radialGradient6311)" opacity="1"/>
  </g>
  <path d="m2.9572 0.26458c-0.29316 0-0.52916 0.23601-0.52916 0.52916v14.816c0 0.29316 0.23601 0.52916 0.52916 0.52916h11.112c0.29316 0 0.52916-0.23601 0.52916-0.52916v-10.319c0-0.26458-0.16113-0.69029-0.52916-1.0583l-3.4395-3.4395c-0.35403-0.44799-0.79374-0.52916-1.0583-0.52916z" fill="url(#linearGradient4553)" stroke-width=".26458"/>
  <path d="m12.217 4.2332v4.2332h2.3812v-3.1749c0-0.034876-0.0069-0.079523-0.01034-0.11989-0.03935-0.26272-0.20199-0.6216-0.51882-0.93843z" fill="url(#radialGradient6129)" opacity=".05"/>
  <rect x="8.7676" y="-.54211" width="6.6358" height="6.6348" fill="none"/>
  <rect x="6.3966" y="4.2333" width="4.2333" height="4.2333" ry="0" fill="url(#radialGradient6017)" opacity=".05"/>
  <path d="m6.3966 0.26458v2.3812h4.2332v-1.852c-0.35403-0.44799-0.79373-0.52916-1.0583-0.52916z" fill="url(#radialGradient6042)" opacity=".05"/>
  <rect x="6.3966" y="2.6458" width="4.2333" height="1.5875" ry="0" fill="url(#linearGradient6093)" opacity=".05"/>
  <rect x="7.7195" y="2.6458" width="2.9104" height="1.5875" ry="0" fill="url(#linearGradient6073)" opacity=".2"/>
  <rect x="7.7195" y="4.2333" width="2.9104" height="2.9104" ry="0" fill="url(#radialGradient6083)" opacity=".2"/>
  <path d="m7.7195 0.26458v2.3812h2.9104v-1.852c-0.14016-0.17736-0.29358-0.29558-0.44441-0.37568l-0.6139-0.15348z" fill="url(#radialGradient6089)" opacity=".2"/>
  <rect transform="rotate(-90)" x="-8.4665" y="10.63" width="4.2333" height="1.5875" ry="0" fill="url(#linearGradient6121)" opacity=".05"/>
  <rect transform="rotate(-90)" x="-7.1436" y="10.63" width="2.9104" height="1.5875" ry="0" fill="url(#linearGradient6123)" opacity=".2"/>
  <path d="m12.217 4.2332v2.9104h2.3812v-1.852l-0.11627-0.4656c-0.085847-0.19266-0.2205-0.40033-0.41289-0.59272z" fill="url(#radialGradient6131)" opacity=".2"/>
  <path d="m10.101 0.37542v3.8561c0 0.29315 0.23601 0.52917 0.52917 0.52917h3.822c-0.08627-0.1743-0.21103-0.35779-0.3824-0.52917l-3.4396-3.4396c-0.16657-0.21078-0.35183-0.33839-0.52917-0.41652z" fill="url(#linearGradient4561)"/>
  <path transform="matrix(.26458 0 0 .26458 .052351 0)" d="m46.801 27.453c-1.1387 0.09638-1.1367 1.0545-1.5449 3.416a20.736 20.632 0 0 0-2.291 0.32031c-1.0098-2.4316-1.3625-3.2808-2.3164-2.959-1.0968 0.36986-0.8401 1.3083-0.66992 3.7695a20.736 20.632 0 0 0-2.1289 0.87695c-1.7032-2.0522-2.2862-2.7665-3.1074-2.1758-0.92628 0.66636-0.43104 1.4913 0.43555 3.7227a20.736 20.632 0 0 0-1.8477 1.4199c-2.1463-1.5829-2.8866-2.1294-3.541-1.3594-0.74286 0.87378-0.04876 1.5449 1.3457 3.5293a20.736 20.632 0 0 0-1.3926 1.8027c-2.2496-0.83442-3.0812-1.3221-3.7363-0.38867-0.57969 0.82546 0.13838 1.403 2.209 3.0664a20.736 20.632 0 0 0-0.89062 2.1367c-2.3667-0.22368-3.2929-0.47063-3.6816 0.5957-0.34224 0.93843 0.49104 1.3146 2.8711 2.3633a20.736 20.632 0 0 0-0.29297 2.2637c-2.3333 0.45071-3.2971 0.46718-3.3691 1.5996-0.06251 0.98354 0.83921 1.1202 3.3418 1.4473a20.736 20.632 0 0 0 0.32812 2.4102c-2.144 0.93728-3.066 1.1783-2.8867 2.291 0.15963 0.99092 1.0757 0.90485 3.6973 0.66211a20.736 20.632 0 0 0 0.92969 2.2246c-0.25738 0.19903-0.44694 0.34418-0.66406 0.50977h4.2793c-1.1672-1.9789-2.1563-4.5631-2.2559-5.5254-0.86774-3.9255-0.73306-8.0864 2.1562-13.186 0.53808-0.94962 1.1269-1.7455 1.7598-2.3105 0.5869-0.51173 1.3663-0.91138 2.2031-0.9375 0.11948-0.003685 0.23966 0.001555 0.36133 0.013672 0.79118 0.10772 1.6059 0.33575 2.082 1.0234 1.486 2.1377 3.0965 5.2663 4.4336 7.6953 0.22504 0.40886 0.27747 0.88908 0.21484 1.0781-0.048379 0.96946-0.75723 1.9995-0.58398 2.9531 0.12764 1.6061 0.91571 1.8444 0.43555 3.0605-1.1377 2.0756-2.3441 4.1301-3.5742 6.1348h4.252c0.82937-1.3914 1.7082-2.7915 2.4629-4.0332 0.24239-0.39876 0.63469-0.68226 0.83008-0.72266 0.8655-0.44321 2.1182-0.34421 2.8594-0.9707 1.3304-0.91333 1.1417-1.715 2.4375-1.9082 1.0056-0.023285 2.0168-0.025633 3.0273-0.029297v-3.6738c-0.93793-0.015482-1.9073-0.032041-2.7539-0.041015-0.46746-0.004914-0.9086-0.19466-1.043-0.3418-0.82305-0.51754-1.3791-1.6378-2.2969-1.9551-1.4653-0.67725-2.0602-0.1111-2.8867-1.125-1.5225-2.4367-2.9935-4.9394-4.3457-7.4258-0.97967-1.7014-0.33783-3.4084 1.1387-4.3262 0.5777-0.44708 1.8025-0.62735 3.1797-0.65039 2.2955-0.038703 5.0207 0.36612 5.9062 0.75 1.0584 0.3219 2.0919 0.73088 3.1016 1.2402v-3.293a20.736 20.632 0 0 0-1.3203-0.53125c0.2233-2.6541 0.3111-3.5731-0.68945-3.7246-1.1222-0.16986-1.3513 0.75794-2.2832 2.9277a20.736 20.632 0 0 0-2.3496-0.28906c-0.39701-2.5989-0.53037-3.5064-1.5332-3.4219h-0.001953zm0.046875 22.279a1.7141 1.7143 0 0 1 1.7148 1.7148 1.7141 1.7143 0 0 1-1.7148 1.7148 1.7141 1.7143 0 0 1-1.7129-1.7148 1.7141 1.7143 0 0 1 1.7129-1.7148z" fill="#b3b3b3"/>
 </g>
 <path class="ColorScheme-Text" d="m6.1751 3.856c-0.12553 0.010625-0.1255 0.11615-0.17051 0.37649a2.286 2.2745 0 0 0-0.25244 0.035437c-0.11133-0.26806-0.15023-0.36178-0.25539-0.3263-0.12091 0.040775-0.092574 0.14429-0.073814 0.41562a2.286 2.2745 0 0 0-0.23473 0.096713c-0.18776-0.22624-0.25197-0.30505-0.3425-0.23993-0.10211 0.073462-0.047551 0.16447 0.047978 0.41046a2.286 2.2745 0 0 0-0.20372 0.15651c-0.23661-0.1745-0.31831-0.23475-0.39045-0.14986-0.081894 0.096325-0.00536 0.1703 0.14837 0.38906a2.286 2.2745 0 0 0-0.15353 0.19859c-0.24799-0.091988-0.33962-0.14571-0.41185-0.042812-0.063905 0.091 0.015315 0.15473 0.24358 0.3381a2.286 2.2745 0 0 0-0.098174 0.2355c-0.26091-0.024663-0.3631-0.05185-0.40596 0.0657-0.037729 0.10345 0.054281 0.14499 0.31666 0.2606a2.286 2.2745 0 0 0-0.032478 0.24953c-0.25723 0.049687-0.36333 0.0516-0.37127 0.17644-0.00689 0.10842 0.09244 0.1234 0.36833 0.15946a2.286 2.2745 0 0 0 0.036168 0.26576c-0.23635 0.10332-0.3379 0.12981-0.31813 0.25248 0.017597 0.10924 0.11845 0.099837 0.40745 0.073075a2.286 2.2745 0 0 0 0.10259 0.24509c-0.20151 0.15583-0.29328 0.20689-0.24432 0.32039 0.044013 0.10204 0.14019 0.0678 0.41631-0.029525a2.286 2.2745 0 0 0 0.1491 0.19268c-0.15198 0.22265-0.22813 0.29787-0.14467 0.39346 0.072794 0.0834 0.15374 0.022112 0.38457-0.15282a2.286 2.2745 0 0 0 0.20446 0.15725c-0.092506 0.25693-0.14817 0.34927-0.042812 0.42151 0.092266 0.063275 0.15475-0.017325 0.33879-0.24953l-0.045025-0.026575a2.286 2.2745 0 0 0 0.26868 0.11442c-0.017832 0.26381-0.0435 0.36691 0.076026 0.40679 0.10348 0.034512 0.1426-0.05725 0.24875-0.31523a2.286 2.2745 0 0 0 0.25909 0.0347c0.04891 0.29187 0.06501 0.39197 0.17641 0.38093 0.12507-0.012375 0.12291-0.11832 0.16387-0.37799a2.286 2.2745 0 0 0 0.2613-0.033962c0.10764 0.26163 0.14685 0.35437 0.25097 0.31965 0.11956-0.039875 0.093846-0.14275 0.076026-0.40679a2.286 2.2745 0 0 0 0.23694-0.096713c0.17873 0.22549 0.24179 0.30462 0.33291 0.24214 0.10344-0.070938 0.051074-0.16261-0.038374-0.40897a2.286 2.2745 0 0 0 0.21111-0.16093c0.22111 0.16751 0.30205 0.22581 0.37349 0.14396 0.081366-0.093225 0.01-0.16951-0.13434-0.37944a2.286 2.2745 0 0 0 0.15427-0.19637c0.26997 0.09515 0.36535 0.12835 0.40891 0.027312 0.048674-0.11282-0.041626-0.16378-0.24063-0.31743a2.286 2.2745 0 0 0 0.10407-0.24805c0.28397 0.026275 0.3848 0.035325 0.40229-0.073075 0.019574-0.12148-0.080774-0.14941-0.31223-0.25026a2.286 2.2745 0 0 0 0.033946-0.26798c0.27278-0.035675 0.37147-0.051563 0.36463-0.15946-0.00784-0.12346-0.11284-0.12684-0.36389-0.17496a2.286 2.2745 0 0 0-0.034686-0.25395c0.25786-0.11362 0.34895-0.15497 0.31149-0.25764-0.042526-0.11659-0.14389-0.090938-0.40007-0.066438a2.286 2.2745 0 0 0-0.098914-0.23919c0.22375-0.17977 0.30177-0.24347 0.23841-0.33367-0.071946-0.10246-0.16331-0.0492-0.40891 0.042088a2.286 2.2745 0 0 0-0.15796-0.20301c0.16592-0.23393 0.22369-0.3166 0.13803-0.38609-0.096254-0.078075-0.16973-0.0045-0.3757 0.14691a2.286 2.2745 0 0 0-0.20889-0.15947c0.10981-0.26741 0.14821-0.36032 0.04872-0.40897-0.11453-0.056-0.16746 0.036675-0.34544 0.24214a2.286 2.2745 0 0 0-0.23694-0.096712c0.02462-0.29259 0.034274-0.39376-0.076026-0.41046-0.12371-0.018725-0.14897 0.083413-0.25171 0.32261a2.286 2.2745 0 0 0-0.25908-0.03175c-0.043768-0.2865-0.058482-0.38655-0.16903-0.37723zm-0.091526 0.69913c0.25305-0.00425 0.5534 0.04035 0.65103 0.082675 0.42485 0.12921 0.81767 0.3671 1.1522 0.91986 0.062314 0.10294 0.10754 0.2026 0.1277 0.29381 0.020006 0.095912 0.012634 0.20805-0.049454 0.29603-0.053214 0.069975-0.11914 0.13554-0.21111 0.14396-0.2862 0.02675-0.67473 0.011375-0.98093 0.00812-0.051534-5.65e-4 -0.10033-0.021425-0.11515-0.03765-0.090734-0.05705-0.152-0.18058-0.25318-0.21556-0.16154-0.074658-0.22702-0.012245-0.31813-0.12402-0.16784-0.26862-0.32999-0.54464-0.47905-0.81874-0.108-0.18757-0.037292-0.37573 0.12548-0.47691 0.063688-0.049288 0.19877-0.069075 0.3506-0.071612zm-1.1279 0.57804c0.013176-4.063e-4 0.026444 1.225e-4 0.039859 0.0015 0.08722 0.011875 0.17707 0.037138 0.22956 0.11295 0.16382 0.23566 0.34124 0.58042 0.48865 0.8482 0.024804 0.045075 0.030523 0.098013 0.02362 0.11885-0.0053 0.10688-0.08332 0.22043-0.064216 0.32557 0.014073 0.17706 0.10091 0.2033 0.047978 0.33737-0.15223 0.27773-0.3143 0.55465-0.48054 0.81873-0.1108 0.18593-0.30932 0.21587-0.47757 0.12402-0.19814-0.083125-0.4645-0.70653-0.48199-0.87553-0.09566-0.43275-0.08084-0.89147 0.23768-1.4536 0.059319-0.10469 0.12436-0.1924 0.19413-0.25469 0.064703-0.056412 0.15059-0.10048 0.24285-0.10335zm1.2245 1.1789a0.18896 0.18899 0 0 1 0.18896 0.18899 0.18896 0.18899 0 0 1-0.18896 0.18899 0.18896 0.18899 0 0 1-0.18896-0.18899 0.18896 0.18899 0 0 1 0.18896-0.18899zm1.0393 0.39571h7.334e-4c0.15865 8e-4 0.3172 0.00387 0.47317 0.00962 0.2168 0.00275 0.34253 0.16011 0.34693 0.35139 0.02692 0.21276-0.38169 0.75453-0.51963 0.85413-0.32781 0.29903-0.73307 0.51534-1.3803 0.52119-0.12053 0.0010663-0.22918-0.0115-0.31813-0.0406-0.092932-0.03165-0.18527-0.09455-0.22955-0.19267-0.033261-0.081325-0.056548-0.17218-0.016978-0.25543 0.12265-0.25937 0.33281-0.58475 0.49159-0.846 0.02672-0.043962 0.069986-0.075275 0.091526-0.079725 0.095414-0.048863 0.23347-0.037975 0.31518-0.10704 0.14666-0.10069 0.12583-0.1891 0.26868-0.2104 0.15835-0.00362 0.31818-0.00525 0.47683-0.00437z" fill="#b3b3b3" stroke-width=".33073"/>
</svg>
