<svg width="64" height="64" viewBox="0 0 16.933 16.933" xmlns="http://www.w3.org/2000/svg" xmlns:xlink="http://www.w3.org/1999/xlink"><defs><linearGradient id="b" x1="7.937" x2="7.937" y1="15.346" y2="16.933" gradientUnits="userSpaceOnUse" xlink:href="#a"/><linearGradient id="a"><stop offset="0"/><stop stop-opacity="0" offset="1"/></linearGradient><linearGradient id="d" x1="43" x2="46.748" y1="12" y2="8.252" gradientUnits="userSpaceOnUse" xlink:href="#a"/><linearGradient id="f" x1="5.821" x2="5.821" y1="1.058" gradientUnits="userSpaceOnUse" xlink:href="#a"/><linearGradient id="h" x1="13.758" x2="15.081" y1="10.583" y2="10.583" gradientUnits="userSpaceOnUse" xlink:href="#a"/><linearGradient id="i" x1="3.175" x2="1.852" y1="8.466" y2="8.466" gradientUnits="userSpaceOnUse" xlink:href="#a"/><linearGradient id="l" x1="7.937" x2="7.937" y1="15.346" y2="16.668" gradientUnits="userSpaceOnUse" xlink:href="#a"/><linearGradient id="n" x1="43" x2="46.004" y1="12" y2="8.996" gradientUnits="userSpaceOnUse" xlink:href="#a"/><linearGradient id="p" x1="5.821" x2="5.821" y1="1.058" y2=".265" gradientUnits="userSpaceOnUse" xlink:href="#a"/><linearGradient id="r" x1="13.758" x2="14.816" y1="10.583" y2="10.583" gradientUnits="userSpaceOnUse" xlink:href="#a"/><linearGradient id="s" x1="3.175" x2="2.117" y1="8.466" y2="8.466" gradientUnits="userSpaceOnUse" xlink:href="#a"/><linearGradient id="v" x1="21.039" x2="21.039" y1="2" y2="62" gradientTransform="translate(45.221 -.507) scale(.26458)" gradientUnits="userSpaceOnUse"><stop stop-color="#2b3949" offset="0"/><stop stop-color="#10222e" offset="1"/></linearGradient><linearGradient id="z" x1="10.583" x2="6.35" y1="3.175" y2="3.175" gradientTransform="matrix(1 0 0 .66667 45.221 1.169)" gradientUnits="userSpaceOnUse" xlink:href="#a"/><linearGradient id="A" x1="10.583" x2="8.731" y1="3.043" y2="3.043" gradientTransform="matrix(1 0 0 .66667 45.221 1.169)" gradientUnits="userSpaceOnUse" xlink:href="#a"/><linearGradient id="D" x1="10.583" x2="6.35" y1="3.175" y2="3.175" gradientTransform="matrix(1 0 0 .66667 -14.574 54.57)" gradientUnits="userSpaceOnUse" xlink:href="#a"/><linearGradient id="E" x1="10.583" x2="8.724" y1="3.043" y2="3.043" gradientTransform="matrix(1 0 0 .66667 -14.574 54.57)" gradientUnits="userSpaceOnUse" xlink:href="#a"/><linearGradient id="G" x1="40" x2="46" y1="17" y2="11" gradientTransform="translate(45.221 -.507) scale(.26458)" gradientUnits="userSpaceOnUse"><stop stop-color="#1dceff" offset="0"/><stop stop-color="#00a0cc" offset="1"/></linearGradient><radialGradient id="c" cx="35" cy="4" r="3.728" gradientTransform="matrix(1.696 0 0 1.0731 -24.361 -.292)" gradientUnits="userSpaceOnUse" xlink:href="#a"/><radialGradient id="e" cx="52" cy="22" r="5.206" gradientTransform="matrix(.96042 0 0 1.3331 2.058 -7.328)" gradientUnits="userSpaceOnUse" xlink:href="#a"/><radialGradient id="g" cx="3.175" cy="1.323" r=".794" gradientTransform="matrix(0 -1.3333 1.6667 0 .97 5.292)" gradientUnits="userSpaceOnUse" xlink:href="#a"/><radialGradient id="j" cx="13.758" cy="15.346" r=".794" gradientTransform="matrix(0 2 -1.6667 0 39.334 -12.171)" gradientUnits="userSpaceOnUse" xlink:href="#a"/><radialGradient id="k" cx="3.175" cy="15.346" r=".794" gradientTransform="matrix(-1.6667 0 0 -2 8.466 46.037)" gradientUnits="userSpaceOnUse" xlink:href="#a"/><radialGradient id="m" cx="35" cy="4" r="3.728" gradientTransform="matrix(1.6115 0 0 .80482 -21.403 .78)" gradientUnits="userSpaceOnUse" xlink:href="#a"/><radialGradient id="o" cx="52" cy="22" r="5.206" gradientTransform="matrix(.76834 0 0 1.2272 12.047 -4.999)" gradientUnits="userSpaceOnUse" xlink:href="#a"/><radialGradient id="q" cx="3.175" cy="1.323" r=".794" gradientTransform="matrix(0 -1 1.3333 0 1.411 4.233)" gradientUnits="userSpaceOnUse" xlink:href="#a"/><radialGradient id="t" cx="13.758" cy="15.346" r=".794" gradientTransform="matrix(0 1.6667 -1.3333 0 34.219 -7.585)" gradientUnits="userSpaceOnUse" xlink:href="#a"/><radialGradient id="u" cx="3.175" cy="15.346" r=".794" gradientTransform="matrix(-1.3333 0 0 -1.6667 7.408 40.921)" gradientUnits="userSpaceOnUse" xlink:href="#a"/><radialGradient id="w" cx="40" cy="12" r="8" gradientTransform="matrix(.39687 0 0 -.52916 41.517 10.341)" gradientUnits="userSpaceOnUse" xlink:href="#a"/><radialGradient id="x" cx="10.583" cy="4.233" r="2.117" gradientTransform="matrix(-2 0 0 -2 76.971 12.457)" gradientUnits="userSpaceOnUse" xlink:href="#a"/><radialGradient id="y" cx="40" cy="12" r="8" gradientTransform="matrix(0 -.39687 .52916 0 49.455 18.278)" gradientUnits="userSpaceOnUse" xlink:href="#a"/><radialGradient id="B" cx="10.583" cy="4.233" r="2.117" gradientTransform="matrix(-.875 0 0 -.87849 65.065 7.71)" gradientUnits="userSpaceOnUse" xlink:href="#a"/><radialGradient id="C" cx="40" cy="12" r="8" gradientTransform="matrix(0 -.34601 .23278 0 53.011 16.244)" gradientUnits="userSpaceOnUse" xlink:href="#a"/><radialGradient id="F" cx="40" cy="12" r="8" gradientTransform="matrix(.3793 0 0 -.23243 42.22 6.78)" gradientUnits="userSpaceOnUse" xlink:href="#a"/></defs><g transform="translate(-45.227 .514)"><g opacity=".15"><path fill="url(#b)" opacity="1" d="M3.175 15.346h10.583v1.587H3.175z" transform="translate(45.221 -.243)"/><path transform="translate(45.221 -.243) scale(.26458)" d="M35 0v7l7-7z" fill="url(#c)" opacity="1"/><path transform="translate(45.221 -.243) scale(.26458)" d="m42 0-7 7 14 15 9-9V3.545L54.455 0z" fill="url(#d)" opacity="1"/><path transform="translate(45.221 -.243) scale(.26458)" d="m58 13-9 9h9z" fill="url(#e)" opacity="1"/><path fill="url(#f)" opacity="1" d="M3.175 0H9.26v1.058H3.175z" transform="translate(45.221 -.243)"/><path fill="url(#g)" opacity="1" d="M1.587 0h1.587v1.058H1.587z" transform="translate(45.221 -.243)"/><path fill="url(#h)" opacity="1" d="M13.758 5.821h1.587v9.525h-1.587z" transform="translate(45.221 -.243)"/><path fill="url(#i)" opacity="1" d="M1.587 1.058h1.587v14.287H1.587z" transform="translate(45.221 -.243)"/><path fill="url(#j)" opacity="1" d="M13.758 15.346h1.587v1.587h-1.587z" transform="translate(45.221 -.243)"/><path fill="url(#k)" opacity="1" d="M1.587 15.346h1.587v1.587H1.587z" transform="translate(45.221 -.243)"/></g><g transform="translate(45.221 -.243)" opacity=".25"><path fill="url(#l)" opacity="1" d="M3.175 15.346h10.583v1.587H3.175z"/><path transform="scale(.26458)" d="M35 0v7l7-7z" fill="url(#m)" opacity="1"/><path transform="scale(.26458)" d="m42 0-7 7 14 15 9-9V3.545L54.455 0z" fill="url(#n)" opacity="1"/><path transform="scale(.26458)" d="m58 13-9 9h9z" fill="url(#o)" opacity="1"/><path fill="url(#p)" opacity="1" d="M3.175 0H9.26v1.058H3.175z"/><rect x="1.587" width="1.587" height="1.058" ry="0" fill="url(#q)" opacity="1"/><path fill="url(#r)" opacity="1" d="M13.758 5.821h1.587v9.525h-1.587z"/><path fill="url(#s)" opacity="1" d="M1.587 1.058h1.587v14.287H1.587z"/><path fill="url(#t)" opacity="1" d="M13.758 15.346h1.587v1.587h-1.587z"/><path fill="url(#u)" opacity="1" d="M1.587 15.346h1.587v1.587H1.587z"/></g><path d="M48.132.022a.528.528 0 0 0-.53.53v14.815c0 .293.237.53.53.53h11.112c.293 0 .53-.237.53-.53V5.048c0-.264-.162-.69-.53-1.058L55.804.55a1.325 1.325 0 0 0-1.058-.529z" fill="url(#v)"/><path d="M57.392 3.99v4.234h2.381V5.049c0-.035-.007-.08-.01-.12-.04-.263-.202-.621-.519-.938z" fill="url(#w)" opacity=".05"/><path fill="none" d="M53.942-.785h6.636V5.85h-6.636z"/><rect x="51.571" y="3.991" width="4.233" height="4.233" ry="0" fill="url(#x)" opacity=".05"/><path d="M51.571.022v2.381h4.233V.551a1.325 1.325 0 0 0-1.058-.529z" fill="url(#y)" opacity=".05"/><rect x="51.571" y="2.403" width="4.233" height="1.587" ry="0" fill="url(#z)" opacity=".05"/><rect x="52.894" y="2.403" width="2.91" height="1.587" ry="0" fill="url(#A)" opacity=".2"/><rect x="52.894" y="3.991" width="2.91" height="2.91" ry="0" fill="url(#B)" opacity=".2"/><path d="M52.894.022v2.381h2.91V.551a1.4 1.4 0 0 0-.444-.375l-.614-.154z" fill="url(#C)" opacity=".2"/><rect transform="rotate(-90)" x="-8.224" y="55.804" width="4.233" height="1.587" ry="0" fill="url(#D)" opacity=".05"/><rect transform="rotate(-90)" x="-6.901" y="55.804" width="2.91" height="1.587" ry="0" fill="url(#E)" opacity=".2"/><path d="M57.392 3.99v2.911h2.381V5.05l-.116-.466c-.086-.192-.22-.4-.413-.592z" fill="url(#F)" opacity=".2"/><path d="M55.275.133v3.856c0 .293.236.53.53.53h3.826a2.017 2.017 0 0 0-.382-.53l-3.44-3.44a1.375 1.375 0 0 0-.529-.416z" fill="url(#G)"/></g><path class="st1" d="M5.406 7.231c0-.034.068-.058.107-.058.31-.014.77-.024 1.251-.024 1.344 0 1.868.737 1.868 1.683 0 1.232-.893 1.76-1.99 1.76-.184 0-.247-.009-.378-.009v1.863c0 .039-.014.058-.058.058h-.742c-.039 0-.058-.015-.058-.058zm.863 2.576c.112.01.2.01.393.01.568 0 1.101-.2 1.101-.97 0-.616-.383-.927-1.028-.927-.194 0-.378.01-.466.015zm4.172-.577c-.383 0-.514.194-.514.354 0 .174.087.296.601.563.762.368 1 .722 1 1.241 0 .776-.593 1.194-1.393 1.194-.422 0-.786-.088-.994-.209-.034-.015-.039-.039-.039-.078v-.713c0-.048.024-.063.058-.038a1.8 1.8 0 0 0 .975.286c.383 0 .543-.16.543-.379 0-.174-.111-.33-.601-.582-.689-.33-.975-.664-.975-1.222 0-.626.49-1.145 1.339-1.145.417 0 .708.063.868.136.039.024.049.063.049.097V9.4c0 .038-.025.063-.073.048-.214-.136-.529-.218-.844-.218z" fill="#00c8ff"/></svg>