<svg width="64" height="64" version="1.1" viewBox="0 0 16.933 16.933" xmlns="http://www.w3.org/2000/svg" xmlns:xlink="http://www.w3.org/1999/xlink">
 <defs>
  <linearGradient id="linearGradient6191" x1="7.9373" x2="7.9373" y1="15.346" y2="16.933" gradientUnits="userSpaceOnUse" xlink:href="#linearGradient6067"/>
  <linearGradient id="linearGradient6067">
   <stop offset="0"/>
   <stop stop-opacity="0" offset="1"/>
  </linearGradient>
  <radialGradient id="radialGradient6247" cx="35" cy="4" r="3.7275" gradientTransform="matrix(1.696 0 0 1.0731 -24.361 -.29238)" gradientUnits="userSpaceOnUse" xlink:href="#linearGradient6067"/>
  <linearGradient id="linearGradient6263" x1="43" x2="46.748" y1="12" y2="8.2517" gradientUnits="userSpaceOnUse" xlink:href="#linearGradient6067"/>
  <radialGradient id="radialGradient6255" cx="52" cy="22" r="5.2061" gradientTransform="matrix(.96042 0 0 1.3331 2.0581 -7.3283)" gradientUnits="userSpaceOnUse" xlink:href="#linearGradient6067"/>
  <linearGradient id="linearGradient6239" x1="5.8207" x2="5.8207" y1="1.0583" gradientUnits="userSpaceOnUse" xlink:href="#linearGradient6067"/>
  <radialGradient id="radialGradient6231" cx="3.1749" cy="1.3229" r=".79373" gradientTransform="matrix(-2.1078e-8 -1.3333 1.6667 -2.6348e-8 .97012 5.2916)" gradientUnits="userSpaceOnUse" xlink:href="#linearGradient6067"/>
  <linearGradient id="linearGradient6215" x1="13.758" x2="15.081" y1="10.583" y2="10.583" gradientUnits="userSpaceOnUse" xlink:href="#linearGradient6067"/>
  <linearGradient id="linearGradient6223" x1="3.1749" x2="1.852" y1="8.4665" y2="8.4665" gradientUnits="userSpaceOnUse" xlink:href="#linearGradient6067"/>
  <radialGradient id="radialGradient6207" cx="13.758" cy="15.346" r=".79373" gradientTransform="matrix(5.1718e-7 2 -1.6667 4.3098e-7 39.334 -12.171)" gradientUnits="userSpaceOnUse" xlink:href="#linearGradient6067"/>
  <radialGradient id="radialGradient6199" cx="3.1749" cy="15.346" r=".79373" gradientTransform="matrix(-1.6667 -1.37e-6 1.644e-6 -2 8.4665 46.037)" gradientUnits="userSpaceOnUse" xlink:href="#linearGradient6067"/>
  <linearGradient id="linearGradient6315" x1="7.9373" x2="7.9373" y1="15.346" y2="16.668" gradientUnits="userSpaceOnUse" xlink:href="#linearGradient6067"/>
  <radialGradient id="radialGradient6331" cx="35" cy="4" r="3.7275" gradientTransform="matrix(1.6115 -1.9122e-7 9.5496e-8 .80482 -21.403 .78072)" gradientUnits="userSpaceOnUse" xlink:href="#linearGradient6067"/>
  <linearGradient id="linearGradient6333" x1="43" x2="46.004" y1="12" y2="8.9965" gradientUnits="userSpaceOnUse" xlink:href="#linearGradient6067"/>
  <radialGradient id="radialGradient6321" cx="52" cy="22" r="5.2061" gradientTransform="matrix(.76834 -9.6042e-8 1.534e-7 1.2272 12.047 -4.9986)" gradientUnits="userSpaceOnUse" xlink:href="#linearGradient6067"/>
  <linearGradient id="linearGradient6335" x1="5.8207" x2="5.8207" y1="1.0583" y2=".26458" gradientUnits="userSpaceOnUse" xlink:href="#linearGradient6067"/>
  <radialGradient id="radialGradient6337" cx="3.1749" cy="1.3229" r=".79373" gradientTransform="matrix(-7.442e-8 -1 1.3333 -9.9226e-8 1.4111 4.2333)" gradientUnits="userSpaceOnUse" xlink:href="#linearGradient6067"/>
  <linearGradient id="linearGradient6319" x1="13.758" x2="14.816" y1="10.583" y2="10.583" gradientUnits="userSpaceOnUse" xlink:href="#linearGradient6067"/>
  <linearGradient id="linearGradient6309" x1="3.1749" x2="2.1166" y1="8.4665" y2="8.4665" gradientUnits="userSpaceOnUse" xlink:href="#linearGradient6067"/>
  <radialGradient id="radialGradient6317" cx="13.758" cy="15.346" r=".79373" gradientTransform="matrix(0 1.6667 -1.3333 0 34.219 -7.5846)" gradientUnits="userSpaceOnUse" xlink:href="#linearGradient6067"/>
  <radialGradient id="radialGradient6311" cx="3.1749" cy="15.346" r=".79373" gradientTransform="matrix(-1.3333 0 0 -1.6667 7.4082 40.921)" gradientUnits="userSpaceOnUse" xlink:href="#linearGradient6067"/>
  <linearGradient id="linearGradient4553" x1="45" x2="11" y1="9" y2="60" gradientTransform="matrix(.26458 0 0 .26458 .046771 -.26458)" gradientUnits="userSpaceOnUse">
   <stop stop-color="#ededed" offset="0"/>
   <stop stop-color="#fcfcfc" offset="1"/>
  </linearGradient>
  <radialGradient id="radialGradient6129" cx="40" cy="12" r="8" gradientTransform="matrix(.39687 0 0 -.52916 -3.6573 10.583)" gradientUnits="userSpaceOnUse" xlink:href="#linearGradient6067"/>
  <radialGradient id="radialGradient6017" cx="10.583" cy="4.2333" r="2.1166" gradientTransform="matrix(-2 3.1236e-7 -3.1236e-7 -2 31.796 12.7)" gradientUnits="userSpaceOnUse" xlink:href="#linearGradient6067"/>
  <radialGradient id="radialGradient6042" cx="40" cy="12" r="8" gradientTransform="matrix(0 -.39687 .52916 0 4.28 18.52)" gradientUnits="userSpaceOnUse" xlink:href="#linearGradient6067"/>
  <linearGradient id="linearGradient6093" x1="10.583" x2="6.3499" y1="3.1749" y2="3.1749" gradientTransform="matrix(1 0 0 .66667 .046771 1.4111)" gradientUnits="userSpaceOnUse" xlink:href="#linearGradient6067"/>
  <linearGradient id="linearGradient6073" x1="10.583" x2="8.7311" y1="3.0426" y2="3.0426" gradientTransform="matrix(1 0 0 .66667 .046771 1.4111)" gradientUnits="userSpaceOnUse" xlink:href="#linearGradient6067"/>
  <radialGradient id="radialGradient6083" cx="10.583" cy="4.2333" r="2.1166" gradientTransform="matrix(-.875 -1.6564e-7 1.6631e-7 -.87849 19.89 7.9521)" gradientUnits="userSpaceOnUse" xlink:href="#linearGradient6067"/>
  <radialGradient id="radialGradient6089" cx="40" cy="12" r="8" gradientTransform="matrix(0 -.34601 .23278 0 7.8365 16.486)" gradientUnits="userSpaceOnUse" xlink:href="#linearGradient6067"/>
  <linearGradient id="linearGradient6121" x1="10.583" x2="6.3499" y1="3.1749" y2="3.1749" gradientTransform="matrix(1 0 0 .66667 -14.816 9.3952)" gradientUnits="userSpaceOnUse" xlink:href="#linearGradient6067"/>
  <linearGradient id="linearGradient6123" x1="10.583" x2="8.7237" y1="3.0426" y2="3.0426" gradientTransform="matrix(1 0 0 .66667 -14.816 9.3952)" gradientUnits="userSpaceOnUse" xlink:href="#linearGradient6067"/>
  <radialGradient id="radialGradient6131" cx="40" cy="12" r="8" gradientTransform="matrix(.3793 0 0 -.23243 -2.9547 7.0224)" gradientUnits="userSpaceOnUse" xlink:href="#linearGradient6067"/>
  <linearGradient id="linearGradient4561" x1="40" x2="46" y1="17" y2="11" gradientTransform="matrix(.26458 0 0 .26458 .046771 -.26458)" gradientUnits="userSpaceOnUse">
   <stop stop-color="#fefefe" offset="0"/>
   <stop stop-color="#e9e9e9" offset="1"/>
  </linearGradient>
 </defs>
 <g transform="translate(-.052351)">
  <g transform="translate(.046771)" opacity=".1">
   <rect x="3.1749" y="15.346" width="10.583" height="1.5875" fill="url(#linearGradient6191)" opacity="1"/>
   <path transform="scale(.26458)" d="m35 0 1e-6 7 7-7z" fill="url(#radialGradient6247)" opacity="1"/>
   <path transform="scale(.26458)" d="m42 0-7 7 14 15 9-9 2e-6 -9.4551-3.5449-3.5449z" fill="url(#linearGradient6263)" opacity="1"/>
   <path transform="scale(.26458)" d="m58 13-9 9h9z" fill="url(#radialGradient6255)" opacity="1"/>
   <rect x="3.1749" width="6.0853" height="1.0583" fill="url(#linearGradient6239)" opacity="1"/>
   <rect x="1.5875" width="1.5875" height="1.0583" fill="url(#radialGradient6231)" opacity="1"/>
   <rect x="13.758" y="5.8207" width="1.5875" height="9.5248" fill="url(#linearGradient6215)" opacity="1"/>
   <rect x="1.5875" y="1.0583" width="1.5875" height="14.287" fill="url(#linearGradient6223)" opacity="1"/>
   <rect x="13.758" y="15.346" width="1.5875" height="1.5875" fill="url(#radialGradient6207)" opacity="1"/>
   <rect x="1.5875" y="15.346" width="1.5875" height="1.5875" fill="url(#radialGradient6199)" opacity="1"/>
  </g>
  <g transform="translate(.046771)" opacity=".2">
   <rect x="3.1749" y="15.346" width="10.583" height="1.5875" fill="url(#linearGradient6315)" opacity="1"/>
   <path transform="scale(.26458)" d="m35 0 1e-6 7 7-7z" fill="url(#radialGradient6331)" opacity="1"/>
   <path transform="scale(.26458)" d="m42 0-7 7 14 15 9-9 2e-6 -9.4551-3.5449-3.5449z" fill="url(#linearGradient6333)" opacity="1"/>
   <path transform="scale(.26458)" d="m58 13-9 9h9z" fill="url(#radialGradient6321)" opacity="1"/>
   <rect x="3.1749" width="6.0853" height="1.0583" fill="url(#linearGradient6335)" opacity="1"/>
   <rect x="1.5875" width="1.5875" height="1.0583" ry="0" fill="url(#radialGradient6337)" opacity="1"/>
   <rect x="13.758" y="5.8207" width="1.5875" height="9.5248" fill="url(#linearGradient6319)" opacity="1"/>
   <rect x="1.5875" y="1.0583" width="1.5875" height="14.287" fill="url(#linearGradient6309)" opacity="1"/>
   <rect x="13.758" y="15.346" width="1.5875" height="1.5875" fill="url(#radialGradient6317)" opacity="1"/>
   <rect x="1.5875" y="15.346" width="1.5875" height="1.5875" fill="url(#radialGradient6311)" opacity="1"/>
  </g>
  <path d="m2.9572 0.26458c-0.29316 0-0.52916 0.23601-0.52916 0.52916v14.816c0 0.29316 0.23601 0.52916 0.52916 0.52916h11.112c0.29316 0 0.52916-0.23601 0.52916-0.52916v-10.319c0-0.26458-0.16113-0.69029-0.52916-1.0583l-3.4395-3.4395c-0.35403-0.44799-0.79374-0.52916-1.0583-0.52916z" fill="url(#linearGradient4553)" stroke-width=".26458"/>
  <path d="m12.217 4.2332v4.2332h2.3812v-3.1749c0-0.034876-0.0069-0.079523-0.01034-0.11989-0.03935-0.26272-0.20199-0.6216-0.51882-0.93843z" fill="url(#radialGradient6129)" opacity=".05"/>
  <rect x="8.7676" y="-.54211" width="6.6358" height="6.6348" fill="none"/>
  <g>
   <rect x="6.3966" y="4.2333" width="4.2333" height="4.2333" ry="0" fill="url(#radialGradient6017)" opacity=".05"/>
   <path d="m6.3966 0.26458v2.3812h4.2332v-1.852c-0.35403-0.44799-0.79373-0.52916-1.0583-0.52916z" fill="url(#radialGradient6042)" opacity=".05"/>
   <rect x="6.3966" y="2.6458" width="4.2333" height="1.5875" ry="0" fill="url(#linearGradient6093)" opacity=".05"/>
   <rect x="7.7195" y="2.6458" width="2.9104" height="1.5875" ry="0" fill="url(#linearGradient6073)" opacity=".2"/>
   <rect x="7.7195" y="4.2333" width="2.9104" height="2.9104" ry="0" fill="url(#radialGradient6083)" opacity=".2"/>
   <path d="m7.7195 0.26458v2.3812h2.9104v-1.852c-0.14016-0.17736-0.29358-0.29558-0.44441-0.37568l-0.6139-0.15348z" fill="url(#radialGradient6089)" opacity=".2"/>
   <rect transform="rotate(-90)" x="-8.4665" y="10.63" width="4.2333" height="1.5875" ry="0" fill="url(#linearGradient6121)" opacity=".05"/>
   <rect transform="rotate(-90)" x="-7.1436" y="10.63" width="2.9104" height="1.5875" ry="0" fill="url(#linearGradient6123)" opacity=".2"/>
   <path d="m12.217 4.2332v2.9104h2.3812v-1.852l-0.11627-0.4656c-0.085847-0.19266-0.2205-0.40033-0.41289-0.59272z" fill="url(#radialGradient6131)" opacity=".2"/>
  </g>
  <path d="m10.101 0.37542v3.8561c0 0.29315 0.23601 0.52917 0.52917 0.52917h3.822c-0.08627-0.1743-0.21103-0.35779-0.3824-0.52917l-3.4396-3.4396c-0.16657-0.21078-0.35183-0.33839-0.52917-0.41652z" fill="url(#linearGradient4561)"/>
 </g>
 <g transform="translate(-.35818 2.6445)" fill="#57688e" fill-opacity=".471" stroke-width=".427">
  <path d="m10.692 4.262a1.73 1.73 0 0 0-0.162 0.194l-0.132 0.174-0.047-0.032c-0.066-0.044-0.129-0.054-0.189-0.027-0.04 0.018-0.138 0.142-0.774 0.979a42.55 42.55 0 0 0-0.728 0.97c0 6e-3 0.162 0.133 0.357 0.281l0.357 0.271 0.475-0.625c0.26-0.344 0.478-0.622 0.483-0.618 0.017 0.012 0.046 0.283 0.04 0.37a0.904 0.904 0 0 1-0.04 0.19c-0.033 0.101-0.037 0.108-0.626 0.885-0.325 0.43-0.596 0.795-0.6 0.81-0.015 0.04 0 0.114 0.03 0.157 0.05 0.073 0.175 0.096 0.246 0.045 0.05-0.036 1.215-1.587 1.253-1.668 0.108-0.231 0.132-0.528 0.066-0.82a1.896 1.896 0 0 0-0.095-0.307c-0.01-0.022 7e-3 -0.05 0.116-0.194 0.103-0.138 0.126-0.177 0.128-0.213 5e-3 -0.077-0.018-0.12-0.093-0.178l-0.07-0.055 0.14-0.186c0.115-0.154 0.14-0.194 0.142-0.23 7e-3 -0.153-0.151-0.252-0.277-0.173"/>
  <path d="m7.483 8.058c-0.837 1.104-0.956 1.267-1.033 1.408-0.154 0.28-0.322 0.707-0.435 1.097-0.072 0.25-0.075 0.228 0.024 0.175 0.308-0.164 0.71-0.43 0.944-0.627 0.23-0.193 0.268-0.242 1.241-1.523l0.936-1.233-0.36-0.273c-0.198-0.15-0.362-0.273-0.365-0.272-3e-3 0-0.431 0.562-0.952 1.248m0.935 1.612a0.631 0.631 0 0 0-0.384 0.3 1.301 1.301 0 0 0-0.075 0.186 1.9 1.9 0 0 1-0.039 0.122c-0.01 0.014-0.288 0.08-0.45 0.108-0.384 0.067-0.488 0.092-0.525 0.127-0.074 0.068-0.017 0.136 0.087 0.106 0.028-9e-3 0.146-0.032 0.26-0.052s0.288-0.055 0.387-0.078a0.971 0.971 0 0 1 0.187-0.034 0.813 0.813 0 0 1-0.04 0.176l-0.046 0.168-0.105 0.045a1.34 1.34 0 0 0-0.182 0.098c-0.13 0.086-0.156 0.194-0.064 0.264 0.05 0.038 0.189 0.037 0.276 0 0.077-0.035 0.12-0.083 0.18-0.21 0.032-0.066 0.056-0.1 0.076-0.105 0.016-6e-3 0.153-0.032 0.306-0.063l0.31-0.064c0.03-7e-3 0.033-6e-3 0.024 0.022a0.735 0.735 0 0 1-0.057 0.109 0.315 0.315 0 0 0-0.047 0.115c0 0.043 0.036 0.086 0.066 0.075a0.08 0.08 0 0 1 0.033-9e-3 0.255 0.255 0 0 0 0.068-0.05c0.057-0.052 0.196-0.304 0.196-0.356 0-0.027 0.02-0.034 0.033-0.013 4e-3 7e-3 0.037 0.02 0.071 0.028 0.05 0.013 0.063 0.022 0.063 0.045 0 0.043 0.071 0.106 0.134 0.118a0.32 0.32 0 0 0 0.178-0.029c0.024-0.01 0.025-7e-3 0.017 0.03a0.897 0.897 0 0 1-0.09 0.158 2.288 2.288 0 0 0-0.232 0.45c-0.023 0.082-0.013 0.143 0.03 0.172 0.038 0.025 0.102 0.014 0.136-0.022a4.34 4.34 0 0 0 0.246-0.52 0.563 0.563 0 0 1 0.156-0.237c0.078-0.082 0.103-0.102 0.086-0.07-0.027 0.06-0.026 0.106 5e-3 0.134 0.065 0.06 0.16 0 0.242-0.148 0.049-0.09 0.085-0.116 0.266-0.201l0.095-0.043-0.01 0.051a1.081 1.081 0 0 1-0.072 0.175c-0.065 0.138-0.078 0.226-0.039 0.3 0.027 0.052 0.055 0.053 0.183 0.01 0.178-0.06 0.41-0.198 0.47-0.277 0.082-0.112 0.107-0.22 0.057-0.255-0.052-0.038-0.08-0.022-0.146 0.074a0.837 0.837 0 0 1-0.3 0.283c-0.05 0.026-0.093 0.043-0.097 0.038a5.018 5.018 0 0 1 0.165-0.445 0.281 0.281 0 0 0 0.023-0.08c0-0.04-0.05-0.084-0.09-0.084a0.958 0.958 0 0 0-0.204 0.084c-0.19 0.095-0.178 0.103-0.13-0.075 0.03-0.11 0.02-0.139-0.046-0.146-0.064-7e-3 -0.09 0.015-0.148 0.119a0.822 0.822 0 0 1-0.183 0.218c-0.127 0.117-0.132 0.121-0.162 0.1-0.045-0.032-0.07-0.027-0.178 0.027-0.106 0.053-0.141 0.06-0.168 0.028-0.022-0.026 0.013-0.04 0.207-0.078 0.187-0.036 0.21-0.046 0.21-0.085 0-0.062-0.05-0.122-0.142-0.163-0.159-0.07-0.177-0.075-0.247-0.057-0.075 0.02-0.186 0.127-0.202 0.194-0.015 0.069-0.062 0.049-0.062-0.028a0.243 0.243 0 0 0-0.062-0.127c-0.047-0.032-0.124 0.038-0.182 0.165l-0.046 0.099-0.102 0.022c-0.134 0.03-0.522 0.107-0.574 0.117-0.034 6e-3 -0.04 6e-3 -0.032-0.017l0.039-0.137c0.043-0.172 0.055-0.195 0.118-0.217a6.14 6.14 0 0 0 0.394-0.169 0.86 0.86 0 0 0 0.14-0.104c0.14-0.131 0.162-0.252 0.062-0.341a0.424 0.424 0 0 0-0.08-0.056 0.59 0.59 0 0 0-0.24-0.014zm0.179 0.191c0.028 0.028 0.028 0.03 3e-3 0.083a0.323 0.323 0 0 1-0.105 0.106c-0.085 0.058-0.35 0.165-0.36 0.146-0.01-0.032 0.075-0.223 0.13-0.284 0.072-0.082 0.093-0.09 0.208-0.084 0.074 7e-3 0.103 0.012 0.124 0.034m-0.908 1.158c-0.018 0.034-0.065 0.06-0.091 0.05-0.03-0.013-0.023-0.03 0.026-0.055 0.064-0.032 0.084-0.03 0.066 7e-3z"/>
 </g>
</svg>
