<svg version="1.1" viewBox="0 0 64 64" xmlns="http://www.w3.org/2000/svg" xmlns:xlink="http://www.w3.org/1999/xlink">
 <defs>
  <linearGradient id="b" x1="7.937" x2="7.937" y1="15.346" y2="16.933" gradientUnits="userSpaceOnUse" xlink:href="#a"/>
  <linearGradient id="a">
   <stop offset="0"/>
   <stop stop-opacity="0" offset="1"/>
  </linearGradient>
  <linearGradient id="d" x1="43" x2="46.748" y1="12" y2="8.252" gradientUnits="userSpaceOnUse" xlink:href="#a"/>
  <linearGradient id="f" x1="5.821" x2="5.821" y1="1.058" gradientUnits="userSpaceOnUse" xlink:href="#a"/>
  <linearGradient id="h" x1="13.758" x2="15.081" y1="10.583" y2="10.583" gradientUnits="userSpaceOnUse" xlink:href="#a"/>
  <linearGradient id="i" x1="3.175" x2="1.852" y1="8.466" y2="8.466" gradientUnits="userSpaceOnUse" xlink:href="#a"/>
  <linearGradient id="l" x1="7.937" x2="7.937" y1="15.346" y2="16.668" gradientUnits="userSpaceOnUse" xlink:href="#a"/>
  <linearGradient id="n" x1="43" x2="46.004" y1="12" y2="8.996" gradientUnits="userSpaceOnUse" xlink:href="#a"/>
  <linearGradient id="p" x1="5.821" x2="5.821" y1="1.058" y2=".265" gradientUnits="userSpaceOnUse" xlink:href="#a"/>
  <linearGradient id="r" x1="13.758" x2="14.816" y1="10.583" y2="10.583" gradientUnits="userSpaceOnUse" xlink:href="#a"/>
  <linearGradient id="s" x1="3.175" x2="2.117" y1="8.466" y2="8.466" gradientUnits="userSpaceOnUse" xlink:href="#a"/>
  <linearGradient id="v" x1="21.039" x2="21.039" y1="2" y2="62" gradientTransform="translate(45.221 -.507) scale(.26458)" gradientUnits="userSpaceOnUse">
   <stop stop-color="#f9d351" offset="0"/>
   <stop stop-color="#f89137" offset="1"/>
  </linearGradient>
  <linearGradient id="z" x1="10.583" x2="6.35" y1="3.175" y2="3.175" gradientTransform="matrix(1 0 0 .66667 45.221 1.169)" gradientUnits="userSpaceOnUse" xlink:href="#a"/>
  <linearGradient id="A" x1="10.583" x2="8.731" y1="3.043" y2="3.043" gradientTransform="matrix(1 0 0 .66667 45.221 1.169)" gradientUnits="userSpaceOnUse" xlink:href="#a"/>
  <linearGradient id="D" x1="10.583" x2="6.35" y1="3.175" y2="3.175" gradientTransform="matrix(1 0 0 .66667 -14.574 54.57)" gradientUnits="userSpaceOnUse" xlink:href="#a"/>
  <linearGradient id="E" x1="10.583" x2="8.724" y1="3.043" y2="3.043" gradientTransform="matrix(1 0 0 .66667 -14.574 54.57)" gradientUnits="userSpaceOnUse" xlink:href="#a"/>
  <linearGradient id="G" x1="40" x2="46" y1="17" y2="11" gradientTransform="translate(45.221 -.507) scale(.26458)" gradientUnits="userSpaceOnUse">
   <stop stop-color="#fefefe" offset="0"/>
   <stop stop-color="#e9e9e9" offset="1"/>
  </linearGradient>
  <radialGradient id="c" cx="35" cy="4" r="3.728" gradientTransform="matrix(1.696 0 0 1.0731 -24.361 -.292)" gradientUnits="userSpaceOnUse" xlink:href="#a"/>
  <radialGradient id="e" cx="52" cy="22" r="5.206" gradientTransform="matrix(.96042 0 0 1.3331 2.058 -7.328)" gradientUnits="userSpaceOnUse" xlink:href="#a"/>
  <radialGradient id="g" cx="3.175" cy="1.323" r=".794" gradientTransform="matrix(0 -1.3333 1.6667 0 .97 5.292)" gradientUnits="userSpaceOnUse" xlink:href="#a"/>
  <radialGradient id="j" cx="13.758" cy="15.346" r=".794" gradientTransform="matrix(0 2 -1.6667 0 39.334 -12.171)" gradientUnits="userSpaceOnUse" xlink:href="#a"/>
  <radialGradient id="k" cx="3.175" cy="15.346" r=".794" gradientTransform="matrix(-1.6667 0 0 -2 8.466 46.037)" gradientUnits="userSpaceOnUse" xlink:href="#a"/>
  <radialGradient id="m" cx="35" cy="4" r="3.728" gradientTransform="matrix(1.6115 0 0 .80482 -21.403 .78)" gradientUnits="userSpaceOnUse" xlink:href="#a"/>
  <radialGradient id="o" cx="52" cy="22" r="5.206" gradientTransform="matrix(.76834 0 0 1.2272 12.047 -4.999)" gradientUnits="userSpaceOnUse" xlink:href="#a"/>
  <radialGradient id="q" cx="3.175" cy="1.323" r=".794" gradientTransform="matrix(0 -1 1.3333 0 1.411 4.233)" gradientUnits="userSpaceOnUse" xlink:href="#a"/>
  <radialGradient id="t" cx="13.758" cy="15.346" r=".794" gradientTransform="matrix(0 1.6667 -1.3333 0 34.219 -7.585)" gradientUnits="userSpaceOnUse" xlink:href="#a"/>
  <radialGradient id="u" cx="3.175" cy="15.346" r=".794" gradientTransform="matrix(-1.3333 0 0 -1.6667 7.408 40.921)" gradientUnits="userSpaceOnUse" xlink:href="#a"/>
  <radialGradient id="w" cx="40" cy="12" r="8" gradientTransform="matrix(.39687 0 0 -.52916 41.517 10.341)" gradientUnits="userSpaceOnUse" xlink:href="#a"/>
  <radialGradient id="x" cx="10.583" cy="4.233" r="2.117" gradientTransform="matrix(-2 0 0 -2 76.971 12.457)" gradientUnits="userSpaceOnUse" xlink:href="#a"/>
  <radialGradient id="y" cx="40" cy="12" r="8" gradientTransform="matrix(0 -.39687 .52916 0 49.455 18.278)" gradientUnits="userSpaceOnUse" xlink:href="#a"/>
  <radialGradient id="B" cx="10.583" cy="4.233" r="2.117" gradientTransform="matrix(-.875 0 0 -.87849 65.065 7.71)" gradientUnits="userSpaceOnUse" xlink:href="#a"/>
  <radialGradient id="C" cx="40" cy="12" r="8" gradientTransform="matrix(0 -.34601 .23278 0 53.011 16.244)" gradientUnits="userSpaceOnUse" xlink:href="#a"/>
  <radialGradient id="F" cx="40" cy="12" r="8" gradientTransform="matrix(.3793 0 0 -.23243 42.22 6.78)" gradientUnits="userSpaceOnUse" xlink:href="#a"/>
 </defs>
 <g transform="translate(-170.94 1.941) scale(3.7796)">
  <g opacity=".15">
   <path transform="translate(45.221 -.243)" d="M3.175 15.346h10.583v1.587H3.175z" fill="url(#b)" opacity="1"/>
   <path transform="translate(45.221 -.243) scale(.26458)" d="m35 0v7l7-7z" fill="url(#c)" opacity="1"/>
   <path transform="translate(45.221 -.243) scale(.26458)" d="m42 0-7 7 14 15 9-9V3.545L54.455 0z" fill="url(#d)" opacity="1"/>
   <path transform="translate(45.221 -.243) scale(.26458)" d="m58 13-9 9h9z" fill="url(#e)" opacity="1"/>
   <path transform="translate(45.221 -.243)" d="M3.175 0H9.26v1.058H3.175z" fill="url(#f)" opacity="1"/>
   <path transform="translate(45.221 -.243)" d="M1.587 0h1.587v1.058H1.587z" fill="url(#g)" opacity="1"/>
   <path transform="translate(45.221 -.243)" d="m13.758 5.821h1.587v9.525h-1.587z" fill="url(#h)" opacity="1"/>
   <path transform="translate(45.221 -.243)" d="M1.587 1.058h1.587v14.287H1.587z" fill="url(#i)" opacity="1"/>
   <path transform="translate(45.221 -.243)" d="m13.758 15.346h1.587v1.587h-1.587z" fill="url(#j)" opacity="1"/>
   <path transform="translate(45.221 -.243)" d="M1.587 15.346h1.587v1.587H1.587z" fill="url(#k)" opacity="1"/>
  </g>
  <g transform="translate(45.221 -.243)" opacity=".25">
   <path d="M3.175 15.346h10.583v1.587H3.175z" fill="url(#l)" opacity="1"/>
   <path transform="scale(.26458)" d="m35 0v7l7-7z" fill="url(#m)" opacity="1"/>
   <path transform="scale(.26458)" d="m42 0-7 7 14 15 9-9V3.545L54.455 0z" fill="url(#n)" opacity="1"/>
   <path transform="scale(.26458)" d="m58 13-9 9h9z" fill="url(#o)" opacity="1"/>
   <path d="M3.175 0H9.26v1.058H3.175z" fill="url(#p)" opacity="1"/>
   <rect x="1.587" width="1.587" height="1.058" ry="0" fill="url(#q)" opacity="1"/>
   <path d="m13.758 5.821h1.587v9.525h-1.587z" fill="url(#r)" opacity="1"/>
   <path d="M1.587 1.058h1.587v14.287H1.587z" fill="url(#s)" opacity="1"/>
   <path d="m13.758 15.346h1.587v1.587h-1.587z" fill="url(#t)" opacity="1"/>
   <path d="M1.587 15.346h1.587v1.587H1.587z" fill="url(#u)" opacity="1"/>
  </g>
  <path d="M48.132.022a.528.528 0 0 0-.53.53v14.815c0 .293.237.53.53.53h11.112c.293 0 .53-.237.53-.53V5.048c0-.264-.162-.69-.53-1.058L55.804.55a1.325 1.325 0 0 0-1.058-.529z" fill="url(#v)"/>
  <path d="M57.392 3.99v4.234h2.381V5.049c0-.035-.007-.08-.01-.12-.04-.263-.202-.621-.519-.938z" fill="url(#w)" opacity=".05"/>
  <path d="M53.942-.785h6.636V5.85h-6.636z" fill="none"/>
  <rect x="51.571" y="3.991" width="4.233" height="4.233" ry="0" fill="url(#x)" opacity=".05"/>
  <path d="M51.571.022v2.381h4.233V.551a1.325 1.325 0 0 0-1.058-.529z" fill="url(#y)" opacity=".05"/>
  <rect x="51.571" y="2.403" width="4.233" height="1.587" ry="0" fill="url(#z)" opacity=".05"/>
  <rect x="52.894" y="2.403" width="2.91" height="1.587" ry="0" fill="url(#A)" opacity=".2"/>
  <rect x="52.894" y="3.991" width="2.91" height="2.91" ry="0" fill="url(#B)" opacity=".2"/>
  <path d="M52.894.022v2.381h2.91V.551a1.4 1.4 0 0 0-.444-.375l-.614-.154z" fill="url(#C)" opacity=".2"/>
  <rect transform="rotate(-90)" x="-8.224" y="55.804" width="4.233" height="1.587" ry="0" fill="url(#D)" opacity=".05"/>
  <rect transform="rotate(-90)" x="-6.901" y="55.804" width="2.91" height="1.587" ry="0" fill="url(#E)" opacity=".2"/>
  <path d="M57.392 3.99v2.911h2.381V5.05l-.116-.466c-.086-.192-.22-.4-.413-.592z" fill="url(#F)" opacity=".2"/>
  <path d="M55.275.133v3.856c0 .293.236.53.53.53h3.826a2.017 2.017 0 0 0-.382-.53l-3.44-3.44a1.375 1.375 0 0 0-.529-.416z" fill="url(#G)"/>
 </g>
 <path d="m31.999 30.856c-3.1504 0-5.7296 1.9439-5.9766 4.4133-2.292-1.0329-4.2841-1.5145-5.7117-1.6148l0.0071-0.0024c-1.866-0.132-3.0822 0.31814-3.6258 1.2422-0.5484 0.9276-0.36551 2.1652 0.67969 3.6844 1.0416 1.5144 3.1734 3.5107 6.375 5.3203 0.04783 0.02681 0.09167 0.04576 0.13828 0.07031-1.4224 0.6521-2.6053 1.3277-3.45 1.9711-1.6596 1.2612-2.2991 2.4987-1.7039 3.4875 0.5952 0.9888 2.2948 1.5326 4.7836 1.6406 1.0066 0.04434 2.2274-0.03544 3.5227-0.17344a6 9 0 0 0 4.9617 3.9609 6 9 0 0 0 4.9617-3.9586c1.2961 0.13815 2.5178 0.2178 3.525 0.17344 2.4888-0.108 4.1884-0.65182 4.7836-1.6406 0.5952-0.98882-0.04427-2.2263-1.7039-3.4875-0.84466-0.64337-2.0276-1.319-3.45-1.9711 0.04661-0.02455 0.09046-0.0435 0.13828-0.07031 3.2016-1.8096 5.3334-3.8059 6.375-5.3203 1.0452-1.5192 1.2281-2.7568 0.67969-3.6844-0.5436-0.924-1.7598-1.3765-3.6258-1.2445l0.0071 0.0024c-1.4278 0.10028-3.4197 0.58192-5.7117 1.6148-0.24699-2.4694-2.8286-4.4133-5.9789-4.4133zm-3.6 2.4c0.66274 0 1.2 0.80589 1.2 1.8 0 0.99412-0.53727 1.8-1.2 1.8s-1.2-0.80589-1.2-1.8c0-0.99412 0.53727-1.8 1.2-1.8zm7.2 0c0.66274 0 1.2 0.80589 1.2 1.8 0 0.99412-0.53727 1.8-1.2 1.8s-1.2-0.80589-1.2-1.8c0-0.99412 0.53727-1.8 1.2-1.8zm-13.966 2.2828c0.1869 7.23e-4 0.38031 0.0077 0.57891 0.02344 1.1694 0.09362 2.5252 0.4686 3.9188 1.0852 0.25951 0.978 0.89657 1.8743 1.8375 2.557a6 9 0 0 0-1.6336 3.7641c-0.48407 0.1734-0.95044 0.35032-1.3945 0.53203-0.21822-0.12767-0.44189-0.2579-0.6-0.34688-3.8016-2.1564-6.5154-4.7177-5.475-6.4805 0.4557-0.7749 1.4597-1.1394 2.768-1.1344zm20.735 0c1.3083-5e-3 2.3123 0.35948 2.768 1.1344 1.0404 1.7628-1.6734 4.3264-5.475 6.4828-0.15811 0.08899-0.38178 0.21922-0.6 0.34688-0.44425-0.18175-0.91033-0.36092-1.3945-0.53438a6 9 0 0 0-1.6359-3.7664c0.94036-0.6824 1.5801-1.5773 1.8398-2.5547 1.3936-0.61657 2.7493-0.99154 3.9188-1.0852 0.1986-0.01576 0.392-0.02272 0.57891-0.02344zm-10.235 3.7172a4.9347 7.2 0 0 1 4.4672 4.1531c-1.2707-0.95609-2.9605-1.7531-4.6008-1.7531-1.4818 0-3.0547 0.7611-4.268 1.5656a4.9347 7.2 0 0 1 4.4016-3.9656zm-5.932 4.3594a6 9 0 0 0-0.20156 2.2406 6 9 0 0 0 0.7875 4.4086c-2.9038 0.11173-5.1607-0.37136-5.8336-1.4836-0.8983-1.4944 1.3939-3.5985 5.2477-5.1656zm11.599 0c3.8538 1.5671 6.146 3.6735 5.2477 5.168-0.67298 1.1122-2.9299 1.5953-5.8336 1.4836a6 9 0 0 0 0.78516-4.4109 6 9 0 0 0-0.19922-2.2406zm-5.8008 0.44063c2 0 3.7752 0.72103 5.0344 1.6031a4.9347 7.2 0 0 1 0.03516 0.79688 4.9347 7.2 0 0 1-0.04219 0.86953c-1.3704-1.1807-3.1994-2.0695-5.0274-2.0695-1.6282 0-3.4371 0.85875-4.7719 1.9008a4.9347 7.2 0 0 1-0.02813-0.70078 4.9347 7.2 0 0 1 0.0539-0.99141c1.229-0.79027 2.8767-1.4086 4.7461-1.4086zm0 3.6c1.7395 0 3.952 0.86297 4.5984 1.8539a4.9347 7.2 0 0 1-0.375 0.97735c-0.8839-0.82688-2.874-1.6232-4.2234-1.6289-1.2013-5e-3 -3.0757 0.62044-4.0453 1.4156a4.9347 7.2 0 0 1-0.35859-1.0125c0.82367-0.88176 2.8116-1.6031 4.4039-1.6031zm0 3.6c1.3225 0 2.1242 0.42205 3.1055 0.93985a4.9347 7.2 0 0 1-2.9719 1.4602 4.9347 7.2 0 0 1-3.0539-1.5563c0.90059-0.47291 1.6798-0.84375 2.9203-0.84375z" fill="#ffffff" stroke-width="1.2"/>
</svg>
