<svg xmlns="http://www.w3.org/2000/svg" xmlns:xlink="http://www.w3.org/1999/xlink" width="64" height="64"><defs><linearGradient xlink:href="#a" id="b" x1="7.937" x2="7.937" y1="15.346" y2="16.933" gradientUnits="userSpaceOnUse"/><linearGradient id="a"><stop offset="0"/><stop offset="1" stop-opacity="0"/></linearGradient><linearGradient xlink:href="#a" id="d" x1="43" x2="46.748" y1="12" y2="8.252" gradientUnits="userSpaceOnUse"/><linearGradient xlink:href="#a" id="f" x1="5.821" x2="5.821" y1="1.058" gradientUnits="userSpaceOnUse"/><linearGradient xlink:href="#a" id="h" x1="13.758" x2="15.081" y1="10.583" y2="10.583" gradientUnits="userSpaceOnUse"/><linearGradient xlink:href="#a" id="i" x1="3.175" x2="1.852" y1="8.466" y2="8.466" gradientUnits="userSpaceOnUse"/><linearGradient xlink:href="#a" id="l" x1="7.937" x2="7.937" y1="15.346" y2="16.668" gradientUnits="userSpaceOnUse"/><linearGradient xlink:href="#a" id="n" x1="43" x2="46.004" y1="12" y2="8.996" gradientUnits="userSpaceOnUse"/><linearGradient xlink:href="#a" id="p" x1="5.821" x2="5.821" y1="1.058" y2=".265" gradientUnits="userSpaceOnUse"/><linearGradient xlink:href="#a" id="r" x1="13.758" x2="14.816" y1="10.583" y2="10.583" gradientUnits="userSpaceOnUse"/><linearGradient xlink:href="#a" id="s" x1="3.175" x2="2.117" y1="8.466" y2="8.466" gradientUnits="userSpaceOnUse"/><linearGradient id="v" x1="21.039" x2="21.039" y1="2" y2="62" gradientTransform="translate(45.221 -.507)scale(.26458)" gradientUnits="userSpaceOnUse"><stop offset="0" stop-color="#73e94f"/><stop offset="1" stop-color="#19c262"/></linearGradient><linearGradient xlink:href="#a" id="z" x1="10.583" x2="6.35" y1="3.175" y2="3.175" gradientTransform="matrix(1 0 0 .66667 45.221 1.169)" gradientUnits="userSpaceOnUse"/><linearGradient xlink:href="#a" id="A" x1="10.583" x2="8.731" y1="3.043" y2="3.043" gradientTransform="matrix(1 0 0 .66667 45.221 1.169)" gradientUnits="userSpaceOnUse"/><linearGradient xlink:href="#a" id="D" x1="10.583" x2="6.35" y1="3.175" y2="3.175" gradientTransform="matrix(1 0 0 .66667 -14.574 54.57)" gradientUnits="userSpaceOnUse"/><linearGradient xlink:href="#a" id="E" x1="10.583" x2="8.724" y1="3.043" y2="3.043" gradientTransform="matrix(1 0 0 .66667 -14.574 54.57)" gradientUnits="userSpaceOnUse"/><linearGradient id="G" x1="40" x2="46" y1="17" y2="11" gradientTransform="translate(45.221 -.507)scale(.26458)" gradientUnits="userSpaceOnUse"><stop offset="0" stop-color="#fefefe"/><stop offset="1" stop-color="#e9e9e9"/></linearGradient><radialGradient xlink:href="#a" id="c" cx="35" cy="4" r="3.728" gradientTransform="matrix(1.696 0 0 1.0731 -24.361 -.292)" gradientUnits="userSpaceOnUse"/><radialGradient xlink:href="#a" id="e" cx="52" cy="22" r="5.206" gradientTransform="matrix(.96042 0 0 1.3331 2.058 -7.328)" gradientUnits="userSpaceOnUse"/><radialGradient xlink:href="#a" id="g" cx="3.175" cy="1.323" r=".794" gradientTransform="matrix(0 -1.3333 1.6667 0 .97 5.292)" gradientUnits="userSpaceOnUse"/><radialGradient xlink:href="#a" id="j" cx="13.758" cy="15.346" r=".794" gradientTransform="matrix(0 2 -1.6667 0 39.334 -12.171)" gradientUnits="userSpaceOnUse"/><radialGradient xlink:href="#a" id="k" cx="3.175" cy="15.346" r=".794" gradientTransform="matrix(-1.6667 0 0 -2 8.466 46.037)" gradientUnits="userSpaceOnUse"/><radialGradient xlink:href="#a" id="m" cx="35" cy="4" r="3.728" gradientTransform="matrix(1.6115 0 0 .80482 -21.403 .78)" gradientUnits="userSpaceOnUse"/><radialGradient xlink:href="#a" id="o" cx="52" cy="22" r="5.206" gradientTransform="matrix(.76834 0 0 1.2272 12.047 -4.999)" gradientUnits="userSpaceOnUse"/><radialGradient xlink:href="#a" id="q" cx="3.175" cy="1.323" r=".794" gradientTransform="matrix(0 -1 1.3333 0 1.411 4.233)" gradientUnits="userSpaceOnUse"/><radialGradient xlink:href="#a" id="t" cx="13.758" cy="15.346" r=".794" gradientTransform="matrix(0 1.6667 -1.3333 0 34.219 -7.585)" gradientUnits="userSpaceOnUse"/><radialGradient xlink:href="#a" id="u" cx="3.175" cy="15.346" r=".794" gradientTransform="matrix(-1.3333 0 0 -1.6667 7.408 40.921)" gradientUnits="userSpaceOnUse"/><radialGradient xlink:href="#a" id="w" cx="40" cy="12" r="8" gradientTransform="matrix(.39687 0 0 -.52916 41.517 10.341)" gradientUnits="userSpaceOnUse"/><radialGradient xlink:href="#a" id="x" cx="10.583" cy="4.233" r="2.117" gradientTransform="matrix(-2 0 0 -2 76.971 12.457)" gradientUnits="userSpaceOnUse"/><radialGradient xlink:href="#a" id="y" cx="40" cy="12" r="8" gradientTransform="matrix(0 -.39687 .52916 0 49.455 18.278)" gradientUnits="userSpaceOnUse"/><radialGradient xlink:href="#a" id="B" cx="10.583" cy="4.233" r="2.117" gradientTransform="matrix(-.875 0 0 -.87849 65.065 7.71)" gradientUnits="userSpaceOnUse"/><radialGradient xlink:href="#a" id="C" cx="40" cy="12" r="8" gradientTransform="matrix(0 -.34601 .23278 0 53.011 16.244)" gradientUnits="userSpaceOnUse"/><radialGradient xlink:href="#a" id="F" cx="40" cy="12" r="8" gradientTransform="matrix(.3793 0 0 -.23243 42.22 6.78)" gradientUnits="userSpaceOnUse"/></defs><g transform="translate(-170.94 1.941)scale(3.7796)"><g opacity=".15"><path fill="url(#b)" d="M3.175 15.346h10.583v1.587H3.175z" opacity="1" transform="translate(45.221 -.243)"/><path fill="url(#c)" d="M35 0v7l7-7z" opacity="1" transform="translate(45.221 -.243)scale(.26458)"/><path fill="url(#d)" d="m42 0-7 7 14 15 9-9V3.545L54.455 0z" opacity="1" transform="translate(45.221 -.243)scale(.26458)"/><path fill="url(#e)" d="m58 13-9 9h9z" opacity="1" transform="translate(45.221 -.243)scale(.26458)"/><path fill="url(#f)" d="M3.175 0H9.26v1.058H3.175z" opacity="1" transform="translate(45.221 -.243)"/><path fill="url(#g)" d="M1.587 0h1.587v1.058H1.587z" opacity="1" transform="translate(45.221 -.243)"/><path fill="url(#h)" d="M13.758 5.821h1.587v9.525h-1.587z" opacity="1" transform="translate(45.221 -.243)"/><path fill="url(#i)" d="M1.587 1.058h1.587v14.287H1.587z" opacity="1" transform="translate(45.221 -.243)"/><path fill="url(#j)" d="M13.758 15.346h1.587v1.587h-1.587z" opacity="1" transform="translate(45.221 -.243)"/><path fill="url(#k)" d="M1.587 15.346h1.587v1.587H1.587z" opacity="1" transform="translate(45.221 -.243)"/></g><g opacity=".25" transform="translate(45.221 -.243)"><path fill="url(#l)" d="M3.175 15.346h10.583v1.587H3.175z" opacity="1"/><path fill="url(#m)" d="M35 0v7l7-7z" opacity="1" transform="scale(.26458)"/><path fill="url(#n)" d="m42 0-7 7 14 15 9-9V3.545L54.455 0z" opacity="1" transform="scale(.26458)"/><path fill="url(#o)" d="m58 13-9 9h9z" opacity="1" transform="scale(.26458)"/><path fill="url(#p)" d="M3.175 0H9.26v1.058H3.175z" opacity="1"/><rect width="1.587" height="1.058" x="1.587" fill="url(#q)" opacity="1" ry="0"/><path fill="url(#r)" d="M13.758 5.821h1.587v9.525h-1.587z" opacity="1"/><path fill="url(#s)" d="M1.587 1.058h1.587v14.287H1.587z" opacity="1"/><path fill="url(#t)" d="M13.758 15.346h1.587v1.587h-1.587z" opacity="1"/><path fill="url(#u)" d="M1.587 15.346h1.587v1.587H1.587z" opacity="1"/></g><path fill="url(#v)" d="M48.132.022a.53.53 0 0 0-.53.53v14.815c0 .293.237.53.53.53h11.112a.53.53 0 0 0 .53-.53V5.048c0-.264-.162-.69-.53-1.058L55.804.55a1.33 1.33 0 0 0-1.058-.529z"/><path fill="url(#w)" d="M57.392 3.99v4.234h2.381V5.049c0-.035-.007-.08-.01-.12-.04-.263-.202-.621-.519-.938z" opacity=".05"/><path fill="none" d="M53.942-.785h6.636V5.85h-6.636z"/><rect width="4.233" height="4.233" x="51.571" y="3.991" fill="url(#x)" opacity=".05" ry="0"/><path fill="url(#y)" d="M51.571.022v2.381h4.233V.551a1.33 1.33 0 0 0-1.058-.529z" opacity=".05"/><rect width="4.233" height="1.587" x="51.571" y="2.403" fill="url(#z)" opacity=".05" ry="0"/><rect width="2.91" height="1.587" x="52.894" y="2.403" fill="url(#A)" opacity=".2" ry="0"/><rect width="2.91" height="2.91" x="52.894" y="3.991" fill="url(#B)" opacity=".2" ry="0"/><path fill="url(#C)" d="M52.894.022v2.381h2.91V.551a1.4 1.4 0 0 0-.444-.375l-.614-.154z" opacity=".2"/><rect width="4.233" height="1.587" x="-8.224" y="55.804" fill="url(#D)" opacity=".05" ry="0" transform="rotate(-90)"/><rect width="2.91" height="1.587" x="-6.901" y="55.804" fill="url(#E)" opacity=".2" ry="0" transform="rotate(-90)"/><path fill="url(#F)" d="M57.392 3.99v2.911h2.381V5.05l-.116-.466c-.086-.192-.22-.4-.413-.592z" opacity=".2"/><path fill="url(#G)" d="M55.275.133v3.856c0 .293.236.53.53.53h3.826a2 2 0 0 0-.382-.53l-3.44-3.44a1.4 1.4 0 0 0-.529-.416z"/></g><path fill="#fff" d="M34.633 23c-4.876.868-9.754 2.02-14.631 2.873 0 7.418-.003 14.839 0 22.26 4.851.85 9.704 1.983 14.545 2.867H36V23zm-7.338 8.816c.962-.02 1.887.119 2.637.797 1.437 1.744 1.056 4.95-1.074 5.994-.757.387-1.624.334-2.448.307a761 761 0 0 0-.002 3.91c-.66-.056-1.324-.114-1.984-.168-.03-3.56-.036-6.957.004-10.518.938-.117 1.905-.302 2.867-.322m-.11 1.932c-.262-.007-.53.018-.777.03-.01 1.12-.017 2.236.053 3.353.663-.08 1.524-.015 1.904-.701.317-.674.335-1.533-.045-2.186-.277-.385-.697-.484-1.134-.496z" style="isolation:auto;mix-blend-mode:normal"/><path fill="#fff" d="M37 26v1h7v15h-2V30c0-.554-.446-1-1-1-1.556-.611-4.061-.985-4-2v5h3v4h-3v2h3v1h-3v2h3v1h-3v2h3v1h-3v3h4c.554 0 1-.446 1-1v-4h2c.554 0 1-.446 1-1V27c0-.554-.446-1-1-1z"/></svg>