<svg xmlns="http://www.w3.org/2000/svg" width="64" height="64" viewBox="0 0 16.933 16.933"><path fill="#f9f9f9" fill-rule="evenodd" d="M3.44 1.058a1.32 1.32 0 0 0-1.323 1.323v12.171c0 .733.59 1.323 1.323 1.323h10.053a1.32 1.32 0 0 0 1.323-1.323V4.233l-3.175-3.175z" style="paint-order:stroke fill markers"/><path fill="#5b5b5b" d="M3.44 1.058a1.32 1.32 0 0 0-1.323 1.323v12.171c0 .733.59 1.323 1.323 1.323h10.053a1.32 1.32 0 0 0 1.323-1.323V4.233l-3.174-3.175zm0 .53h7.982l2.865 2.864v10.1a.78.78 0 0 1-.794.793H3.44a.78.78 0 0 1-.793-.794V2.381a.78.78 0 0 1 .793-.794z" color="#000" style="font-feature-settings:normal;font-variant-alternates:normal;font-variant-caps:normal;font-variant-ligatures:normal;font-variant-numeric:normal;font-variant-position:normal;isolation:auto;mix-blend-mode:normal;paint-order:fill markers stroke;shape-padding:0;text-decoration-color:#000;text-decoration-line:none;text-decoration-style:solid;text-indent:0;text-orientation:mixed;text-transform:none;white-space:normal"/><path fill="#5b5b5b" fill-rule="evenodd" d="m12.171 1.058 2.646 2.646V2.381a1.32 1.32 0 0 0-1.323-1.323z" style="paint-order:stroke fill markers"/><path fill="#ccc" d="M4.238 10.19h8.467v1.852H4.238z"/><path fill="#f2f2f2" d="M4.238 4.766h8.467v5.556H4.238z"/><path fill="#4d4d4d" stroke-width=".132" d="M6.658 10.847v.102a.4.4 0 0 0-.09-.04.3.3 0 0 0-.092-.012.2.2 0 0 0-.106.023q-.035.022-.035.07.001.043.026.063a.34.34 0 0 0 .13.04l.042.009q.077.015.117.059.04.043.04.115a.18.18 0 0 1-.066.147.3.3 0 0 1-.186.052.5.5 0 0 1-.099-.01 1 1 0 0 1-.111-.03v-.107a.6.6 0 0 0 .111.045.4.4 0 0 0 .101.015.2.2 0 0 0 .107-.028.1.1 0 0 0 .038-.078q0-.073-.139-.1l-.004-.002-.04-.008a.25.25 0 0 1-.13-.059A.16.16 0 0 1 6.23 11q0-.092.062-.14.062-.05.176-.05a.5.5 0 0 1 .19.037m.331.304q0 .12.038.183a.13.13 0 0 0 .114.062q.075 0 .114-.062a.35.35 0 0 0 .039-.183.34.34 0 0 0-.04-.182.13.13 0 0 0-.113-.063.13.13 0 0 0-.114.062.35.35 0 0 0-.038.183m.305.236a.18.18 0 0 1-.17.097.21.21 0 0 1-.18-.088.4.4 0 0 1-.065-.243q0-.158.065-.246a.21.21 0 0 1 .18-.089q.057 0 .1.025.044.024.07.071v-.08h.104v.875h-.104zm.846-.408a.2.2 0 0 0-.068-.038.2.2 0 0 0-.076-.012q-.097 0-.149.061a.27.27 0 0 0-.051.177v.315H7.69v-.634h.105v.124a.21.21 0 0 1 .208-.14.23.23 0 0 1 .136.04v.107m.451-.317v.18h.237v.081H8.59v.344q0 .07.027.098.026.028.092.028h.118v.083h-.128q-.117 0-.165-.047-.048-.046-.048-.162v-.344h-.17v-.08h.17v-.181zm.966.873v.082H9.52q-.14 0-.19-.042-.047-.042-.047-.167v-.136q0-.085-.03-.118t-.11-.033h-.035v-.08h.035q.08 0 .11-.033.03-.032.03-.117v-.136q0-.126.047-.167.05-.042.19-.042h.036v.081h-.04q-.08 0-.103.025-.024.025-.024.105v.14a.25.25 0 0 1-.026.13q-.026.039-.088.054.063.015.088.055a.25.25 0 0 1 .026.129v.14q0 .082.024.106c.024.024.05.024.103.024zm.701-.701-.227.303.25.331h-.122l-.185-.254-.185.254h-.121l.25-.33-.228-.304h.116l.168.23.167-.23zm.185.701h.038q.08 0 .105-.025t.024-.105v-.14a.25.25 0 0 1 .026-.129.14.14 0 0 1 .088-.055q-.063-.015-.088-.054a.25.25 0 0 1-.026-.13v-.14q0-.08-.024-.105-.025-.024-.104-.025h-.039v-.08h.035q.141 0 .189.041.047.041.047.167v.136q0 .084.03.117.03.032.11.032h.037v.081h-.036q-.08 0-.11.033t-.03.118v.136q0 .125-.048.167t-.189.042h-.035z"/><path fill="#868583" d="M7.942 5.361h3.97v.794h-.397V5.89H8.273L6.655 9.727H6.42l-.99-2.115-.386.203-.143-.496.8-.305.834 1.626L7.94 5.361" opacity=".8"/><path fill="#868583" d="M11.672 6.684h-.656l-.806 1.058h-.02l-.78-1.058H8.7l1.116 1.484v.019l-1.157 1.54h.656l.86-1.146h.021l.861 1.146h.71l-1.184-1.565v-.02z" opacity=".8"/></svg>