<svg xmlns="http://www.w3.org/2000/svg" xmlns:xlink="http://www.w3.org/1999/xlink" width="64" height="64" viewBox="0 0 16.933 16.933"><path fill="#f9f9f9" fill-rule="evenodd" d="M3.44 1.058a1.32 1.32 0 0 0-1.323 1.323v12.171c0 .733.59 1.323 1.323 1.323h10.053a1.32 1.32 0 0 0 1.323-1.323V4.233l-3.175-3.175z" style="paint-order:stroke fill markers"/><path fill="#d17520" d="M3.44 1.058a1.32 1.32 0 0 0-1.323 1.323v12.171c0 .733.59 1.323 1.323 1.323h10.053a1.32 1.32 0 0 0 1.323-1.323V4.233l-3.174-3.175zm0 .53h7.982l2.865 2.864v10.1a.78.78 0 0 1-.794.793H3.44a.78.78 0 0 1-.793-.794V2.381a.78.78 0 0 1 .793-.794z" color="#000" style="font-feature-settings:normal;font-variant-alternates:normal;font-variant-caps:normal;font-variant-ligatures:normal;font-variant-numeric:normal;font-variant-position:normal;isolation:auto;mix-blend-mode:normal;paint-order:fill markers stroke;shape-padding:0;text-decoration-color:#000;text-decoration-line:none;text-decoration-style:solid;text-indent:0;text-orientation:mixed;text-transform:none;white-space:normal"/><path fill="#d17520" fill-rule="evenodd" d="m12.171 1.058 2.646 2.646V2.381a1.32 1.32 0 0 0-1.323-1.323z" style="paint-order:stroke fill markers"/><g color="#000"><path fill="#f7bfaf" d="M9.282 7.467a2.234 2.234 0 1 1-4.468 0 2.234 2.234 0 1 1 4.468 0"/><path fill="#d39d1d" d="M8.474 6.762h3.528v3.528H8.474z"/><path fill="#f9d254" d="M9.87 11.23H5.402l2.234-3.586 1.117 1.793z"/></g><path id="a" fill="#9ef290" stroke-width="0" d="M4.961 10.966h.647v.647h-.647z" color="#000" opacity=".75"/><path fill="none" d="M9.415 10.407h2.705V6.644H8.357v2.07z" color="#000"/><use xlink:href="#a" width="5033" height="1085" transform="translate(2.352 -3.763)"/><use xlink:href="#a" width="5033" height="1085" transform="translate(4.704)"/></svg>