<svg version="1.1" viewBox="0 0 64 64" xmlns="http://www.w3.org/2000/svg" xmlns:xlink="http://www.w3.org/1999/xlink">
 <defs>
  <linearGradient id="linearGradient6191" x1="7.9373" x2="7.9373" y1="15.346" y2="16.933" gradientUnits="userSpaceOnUse" xlink:href="#linearGradient6067"/>
  <linearGradient id="linearGradient6067">
   <stop offset="0"/>
   <stop stop-opacity="0" offset="1"/>
  </linearGradient>
  <radialGradient id="radialGradient6247" cx="35" cy="4" r="3.7275" gradientTransform="matrix(1.696 0 0 1.0731 -24.361 -.29238)" gradientUnits="userSpaceOnUse" xlink:href="#linearGradient6067"/>
  <linearGradient id="linearGradient6263" x1="43" x2="46.748" y1="12" y2="8.2517" gradientUnits="userSpaceOnUse" xlink:href="#linearGradient6067"/>
  <radialGradient id="radialGradient6255" cx="52" cy="22" r="5.2061" gradientTransform="matrix(.96042 0 0 1.3331 2.0581 -7.3283)" gradientUnits="userSpaceOnUse" xlink:href="#linearGradient6067"/>
  <linearGradient id="linearGradient6239" x1="5.8207" x2="5.8207" y1="1.0583" gradientUnits="userSpaceOnUse" xlink:href="#linearGradient6067"/>
  <radialGradient id="radialGradient6231" cx="3.1749" cy="1.3229" r=".79373" gradientTransform="matrix(-2.1078e-8 -1.3333 1.6667 -2.6348e-8 .97012 5.2916)" gradientUnits="userSpaceOnUse" xlink:href="#linearGradient6067"/>
  <linearGradient id="linearGradient6215" x1="13.758" x2="15.081" y1="10.583" y2="10.583" gradientUnits="userSpaceOnUse" xlink:href="#linearGradient6067"/>
  <linearGradient id="linearGradient6223" x1="3.1749" x2="1.852" y1="8.4665" y2="8.4665" gradientUnits="userSpaceOnUse" xlink:href="#linearGradient6067"/>
  <radialGradient id="radialGradient6207" cx="13.758" cy="15.346" r=".79373" gradientTransform="matrix(5.1718e-7 2 -1.6667 4.3098e-7 39.334 -12.171)" gradientUnits="userSpaceOnUse" xlink:href="#linearGradient6067"/>
  <radialGradient id="radialGradient6199" cx="3.1749" cy="15.346" r=".79373" gradientTransform="matrix(-1.6667 -1.37e-6 1.644e-6 -2 8.4665 46.037)" gradientUnits="userSpaceOnUse" xlink:href="#linearGradient6067"/>
  <linearGradient id="linearGradient6315" x1="7.9373" x2="7.9373" y1="15.346" y2="16.668" gradientUnits="userSpaceOnUse" xlink:href="#linearGradient6067"/>
  <radialGradient id="radialGradient6331" cx="35" cy="4" r="3.7275" gradientTransform="matrix(1.6115 -1.9122e-7 9.5496e-8 .80482 -21.403 .78072)" gradientUnits="userSpaceOnUse" xlink:href="#linearGradient6067"/>
  <linearGradient id="linearGradient6333" x1="43" x2="46.004" y1="12" y2="8.9965" gradientUnits="userSpaceOnUse" xlink:href="#linearGradient6067"/>
  <radialGradient id="radialGradient6321" cx="52" cy="22" r="5.2061" gradientTransform="matrix(.76834 -9.6042e-8 1.534e-7 1.2272 12.047 -4.9986)" gradientUnits="userSpaceOnUse" xlink:href="#linearGradient6067"/>
  <linearGradient id="linearGradient6335" x1="5.8207" x2="5.8207" y1="1.0583" y2=".26458" gradientUnits="userSpaceOnUse" xlink:href="#linearGradient6067"/>
  <radialGradient id="radialGradient6337" cx="3.1749" cy="1.3229" r=".79373" gradientTransform="matrix(-7.442e-8 -1 1.3333 -9.9226e-8 1.4111 4.2333)" gradientUnits="userSpaceOnUse" xlink:href="#linearGradient6067"/>
  <linearGradient id="linearGradient6319" x1="13.758" x2="14.816" y1="10.583" y2="10.583" gradientUnits="userSpaceOnUse" xlink:href="#linearGradient6067"/>
  <linearGradient id="linearGradient6309" x1="3.1749" x2="2.1166" y1="8.4665" y2="8.4665" gradientUnits="userSpaceOnUse" xlink:href="#linearGradient6067"/>
  <radialGradient id="radialGradient6317" cx="13.758" cy="15.346" r=".79373" gradientTransform="matrix(0 1.6667 -1.3333 0 34.219 -7.5846)" gradientUnits="userSpaceOnUse" xlink:href="#linearGradient6067"/>
  <radialGradient id="radialGradient6311" cx="3.1749" cy="15.346" r=".79373" gradientTransform="matrix(-1.3333 0 0 -1.6667 7.4082 40.921)" gradientUnits="userSpaceOnUse" xlink:href="#linearGradient6067"/>
  <linearGradient id="linearGradient4553" x1="45" x2="11" y1="9" y2="60" gradientTransform="matrix(.26458 0 0 .26458 .046771 -.26458)" gradientUnits="userSpaceOnUse">
   <stop stop-color="#ededed" offset="0"/>
   <stop stop-color="#fcfcfc" offset="1"/>
  </linearGradient>
  <radialGradient id="radialGradient6129" cx="40" cy="12" r="8" gradientTransform="matrix(.39687 0 0 -.52916 -3.6573 10.583)" gradientUnits="userSpaceOnUse" xlink:href="#linearGradient6067"/>
  <radialGradient id="radialGradient6017" cx="10.583" cy="4.2333" r="2.1166" gradientTransform="matrix(-2 3.1236e-7 -3.1236e-7 -2 31.796 12.7)" gradientUnits="userSpaceOnUse" xlink:href="#linearGradient6067"/>
  <radialGradient id="radialGradient6042" cx="40" cy="12" r="8" gradientTransform="matrix(0 -.39687 .52916 0 4.28 18.52)" gradientUnits="userSpaceOnUse" xlink:href="#linearGradient6067"/>
  <linearGradient id="linearGradient6093" x1="10.583" x2="6.3499" y1="3.1749" y2="3.1749" gradientTransform="matrix(1 0 0 .66667 .046771 1.4111)" gradientUnits="userSpaceOnUse" xlink:href="#linearGradient6067"/>
  <linearGradient id="linearGradient6073" x1="10.583" x2="8.7311" y1="3.0426" y2="3.0426" gradientTransform="matrix(1 0 0 .66667 .046771 1.4111)" gradientUnits="userSpaceOnUse" xlink:href="#linearGradient6067"/>
  <radialGradient id="radialGradient6083" cx="10.583" cy="4.2333" r="2.1166" gradientTransform="matrix(-.875 -1.6564e-7 1.6631e-7 -.87849 19.89 7.9521)" gradientUnits="userSpaceOnUse" xlink:href="#linearGradient6067"/>
  <radialGradient id="radialGradient6089" cx="40" cy="12" r="8" gradientTransform="matrix(0 -.34601 .23278 0 7.8365 16.486)" gradientUnits="userSpaceOnUse" xlink:href="#linearGradient6067"/>
  <linearGradient id="linearGradient6121" x1="10.583" x2="6.3499" y1="3.1749" y2="3.1749" gradientTransform="matrix(1 0 0 .66667 -14.816 9.3952)" gradientUnits="userSpaceOnUse" xlink:href="#linearGradient6067"/>
  <linearGradient id="linearGradient6123" x1="10.583" x2="8.7237" y1="3.0426" y2="3.0426" gradientTransform="matrix(1 0 0 .66667 -14.816 9.3952)" gradientUnits="userSpaceOnUse" xlink:href="#linearGradient6067"/>
  <radialGradient id="radialGradient6131" cx="40" cy="12" r="8" gradientTransform="matrix(.3793 0 0 -.23243 -2.9547 7.0224)" gradientUnits="userSpaceOnUse" xlink:href="#linearGradient6067"/>
  <linearGradient id="linearGradient4561" x1="40" x2="46" y1="17" y2="11" gradientTransform="matrix(.26458 0 0 .26458 .046771 -.26458)" gradientUnits="userSpaceOnUse">
   <stop stop-color="#fefefe" offset="0"/>
   <stop stop-color="#e9e9e9" offset="1"/>
  </linearGradient>
 </defs>
 <g transform="matrix(3.7796 0 0 3.7796 -.19787 3.4078e-7)">
  <g transform="translate(.046771)" opacity=".1">
   <rect x="3.1749" y="15.346" width="10.583" height="1.5875" fill="url(#linearGradient6191)" opacity="1"/>
   <path transform="scale(.26458)" d="m35 0 1e-6 7 7-7z" fill="url(#radialGradient6247)" opacity="1"/>
   <path transform="scale(.26458)" d="m42 0-7 7 14 15 9-9 2e-6 -9.4551-3.5449-3.5449z" fill="url(#linearGradient6263)" opacity="1"/>
   <path transform="scale(.26458)" d="m58 13-9 9h9z" fill="url(#radialGradient6255)" opacity="1"/>
   <rect x="3.1749" width="6.0853" height="1.0583" fill="url(#linearGradient6239)" opacity="1"/>
   <rect x="1.5875" width="1.5875" height="1.0583" fill="url(#radialGradient6231)" opacity="1"/>
   <rect x="13.758" y="5.8207" width="1.5875" height="9.5248" fill="url(#linearGradient6215)" opacity="1"/>
   <rect x="1.5875" y="1.0583" width="1.5875" height="14.287" fill="url(#linearGradient6223)" opacity="1"/>
   <rect x="13.758" y="15.346" width="1.5875" height="1.5875" fill="url(#radialGradient6207)" opacity="1"/>
   <rect x="1.5875" y="15.346" width="1.5875" height="1.5875" fill="url(#radialGradient6199)" opacity="1"/>
  </g>
  <g transform="translate(.046771)" opacity=".2">
   <rect x="3.1749" y="15.346" width="10.583" height="1.5875" fill="url(#linearGradient6315)" opacity="1"/>
   <path transform="scale(.26458)" d="m35 0 1e-6 7 7-7z" fill="url(#radialGradient6331)" opacity="1"/>
   <path transform="scale(.26458)" d="m42 0-7 7 14 15 9-9 2e-6 -9.4551-3.5449-3.5449z" fill="url(#linearGradient6333)" opacity="1"/>
   <path transform="scale(.26458)" d="m58 13-9 9h9z" fill="url(#radialGradient6321)" opacity="1"/>
   <rect x="3.1749" width="6.0853" height="1.0583" fill="url(#linearGradient6335)" opacity="1"/>
   <rect x="1.5875" width="1.5875" height="1.0583" ry="0" fill="url(#radialGradient6337)" opacity="1"/>
   <rect x="13.758" y="5.8207" width="1.5875" height="9.5248" fill="url(#linearGradient6319)" opacity="1"/>
   <rect x="1.5875" y="1.0583" width="1.5875" height="14.287" fill="url(#linearGradient6309)" opacity="1"/>
   <rect x="13.758" y="15.346" width="1.5875" height="1.5875" fill="url(#radialGradient6317)" opacity="1"/>
   <rect x="1.5875" y="15.346" width="1.5875" height="1.5875" fill="url(#radialGradient6311)" opacity="1"/>
  </g>
  <path d="m2.9572 0.26458c-0.29316 0-0.52916 0.23601-0.52916 0.52916v14.816c0 0.29316 0.23601 0.52916 0.52916 0.52916h11.112c0.29316 0 0.52916-0.23601 0.52916-0.52916v-10.319c0-0.26458-0.16113-0.69029-0.52916-1.0583l-3.4395-3.4395c-0.35403-0.44799-0.79374-0.52916-1.0583-0.52916z" fill="url(#linearGradient4553)" stroke-width=".26458"/>
  <path d="m12.217 4.2332v4.2332h2.3812v-3.1749c0-0.034876-0.0069-0.079523-0.01034-0.11989-0.03935-0.26272-0.20199-0.6216-0.51882-0.93843z" fill="url(#radialGradient6129)" opacity=".05"/>
  <rect x="8.7676" y="-.54211" width="6.6358" height="6.6348" fill="none"/>
  <g fill="#7b7b7b" stroke-width=".05444" aria-label="APPORT">
   <path d="m4.9941 13.44-0.29134 0.79001h0.58374zm-0.12121-0.21159h0.24349l0.605 1.5875h-0.22329l-0.14461-0.40723h-0.71558l-0.14461 0.40723h-0.22648z"/>
   <path d="m6.168 13.405v0.5965h0.27007q0.14992 0 0.23179-0.07762 0.081872-0.07762 0.081872-0.22116 0-0.14248-0.081872-0.2201-0.081872-0.077618-0.23179-0.077618zm-0.21478-0.1765h0.48485q0.26688 0 0.40298 0.12121 0.13716 0.12015 0.13716 0.35301 0 0.23498-0.13716 0.35513-0.1361 0.12015-0.40298 0.12015h-0.27007v0.63796h-0.21478z"/>
   <path d="m7.4811 13.405v0.5965h0.27007q0.14992 0 0.23179-0.07762 0.081872-0.07762 0.081872-0.22116 0-0.14248-0.081872-0.2201-0.081872-0.07762-0.23179-0.07762zm-0.21478-0.1765h0.48485q0.26688 0 0.40298 0.12121 0.13716 0.12015 0.13716 0.35301 0 0.23498-0.13716 0.35513-0.1361 0.12015-0.40298 0.12015h-0.27007v0.63796h-0.21478z"/>
   <path d="m9.2238 13.375q-0.23392 0-0.37215 0.17438-0.13716 0.17438-0.13716 0.47528 0 0.29984 0.13716 0.47422 0.13823 0.17438 0.37215 0.17438t0.37002-0.17438q0.13716-0.17438 0.13716-0.47422 0-0.30091-0.13716-0.47528-0.1361-0.17438-0.37002-0.17438zm0-0.17438q0.33387 0 0.53376 0.22435 0.1999 0.22329 0.1999 0.59969 0 0.37534-0.1999 0.59969-0.1999 0.22329-0.53376 0.22329-0.33493 0-0.53589-0.22329-0.1999-0.22329-0.1999-0.59969t0.1999-0.59969q0.20096-0.22435 0.53589-0.22435z"/>
   <path d="m11.046 14.072q0.06911 0.02339 0.13397 0.09995 0.06592 0.07656 0.13185 0.21053l0.21797 0.43382h-0.23073l-0.20308-0.40723q-0.07868-0.15949-0.15311-0.21159-0.07337-0.0521-0.20096-0.0521h-0.23392v0.67093h-0.21478v-1.5875h0.48485q0.2722 0 0.40617 0.11377 0.13397 0.11377 0.13397 0.34344 0 0.14992-0.07018 0.24881-0.06911 0.09888-0.20202 0.13716zm-0.53802-0.66667v0.56354h0.27007q0.15524 0 0.23392-0.07124 0.07975-0.0723 0.07975-0.21159 0-0.13929-0.07975-0.20946-0.07868-0.07124-0.23392-0.07124z"/>
   <path d="m11.428 13.229h1.3429v0.18076h-0.56354v1.4067h-0.21584v-1.4067h-0.56354z"/>
  </g>
  <g>
   <rect x="6.3966" y="4.2333" width="4.2333" height="4.2333" ry="0" fill="url(#radialGradient6017)" opacity=".05"/>
   <path d="m6.3966 0.26458v2.3812h4.2332v-1.852c-0.35403-0.44799-0.79373-0.52916-1.0583-0.52916z" fill="url(#radialGradient6042)" opacity=".05"/>
   <rect x="6.3966" y="2.6458" width="4.2333" height="1.5875" ry="0" fill="url(#linearGradient6093)" opacity=".05"/>
   <rect x="7.7195" y="2.6458" width="2.9104" height="1.5875" ry="0" fill="url(#linearGradient6073)" opacity=".2"/>
   <rect x="7.7195" y="4.2333" width="2.9104" height="2.9104" ry="0" fill="url(#radialGradient6083)" opacity=".2"/>
   <path d="m7.7195 0.26458v2.3812h2.9104v-1.852c-0.14016-0.17736-0.29358-0.29558-0.44441-0.37568l-0.6139-0.15348z" fill="url(#radialGradient6089)" opacity=".2"/>
   <rect transform="rotate(-90)" x="-8.4665" y="10.63" width="4.2333" height="1.5875" ry="0" fill="url(#linearGradient6121)" opacity=".05"/>
   <rect transform="rotate(-90)" x="-7.1436" y="10.63" width="2.9104" height="1.5875" ry="0" fill="url(#linearGradient6123)" opacity=".2"/>
   <path d="m12.217 4.2332v2.9104h2.3812v-1.852l-0.11627-0.4656c-0.085847-0.19266-0.2205-0.40033-0.41289-0.59272z" fill="url(#radialGradient6131)" opacity=".2"/>
  </g>
  <path d="m10.101 0.37542v3.8561c0 0.29315 0.23601 0.52917 0.52917 0.52917h3.822c-0.08627-0.1743-0.21103-0.35779-0.3824-0.52917l-3.4396-3.4396c-0.16657-0.21078-0.35183-0.33839-0.52917-0.41652z" fill="url(#linearGradient4561)"/>
 </g>
 <path d="m23 21c-1.108 0-2 0.892-2 2v18c0 1.108 0.892 2 2 2h18c1.108 0 2-0.892 2-2v-18c0-1.108-0.892-2-2-2h-18zm1 4h1v1h2v-1h1v1h-1v2h1v1h-1v-1h-2v1h-1v-1h1v-2h-1v-1zm12 0h1v1h2v-1h1v1h-1v2h1v1h-1v-1h-2v1h-1v-1h1v-2h-1v-1zm-7 8h6v2h2v2h2v2h-2v-2h-2v-2h-6v2h-2v2h-2v-2h2v-2h2v-2z" color="#000000" color-rendering="auto" fill="#d00310" image-rendering="auto" opacity=".75" shape-rendering="auto" solid-color="#000000" style="isolation:auto;mix-blend-mode:normal"/>
</svg>
