<svg width="64" height="64" version="1.1" viewBox="0 0 16.933 16.933" xmlns="http://www.w3.org/2000/svg" xmlns:xlink="http://www.w3.org/1999/xlink">
 <defs>
  <linearGradient id="linearGradient6191" x1="7.9373" x2="7.9373" y1="15.346" y2="16.933" gradientUnits="userSpaceOnUse" xlink:href="#linearGradient6067"/>
  <linearGradient id="linearGradient6067">
   <stop offset="0"/>
   <stop stop-opacity="0" offset="1"/>
  </linearGradient>
  <radialGradient id="radialGradient6247" cx="35" cy="4" r="3.7275" gradientTransform="matrix(1.696 0 0 1.0731 -24.361 -.29238)" gradientUnits="userSpaceOnUse" xlink:href="#linearGradient6067"/>
  <linearGradient id="linearGradient6263" x1="43" x2="46.748" y1="12" y2="8.2517" gradientUnits="userSpaceOnUse" xlink:href="#linearGradient6067"/>
  <radialGradient id="radialGradient6255" cx="52" cy="22" r="5.2061" gradientTransform="matrix(.96042 0 0 1.3331 2.0581 -7.3283)" gradientUnits="userSpaceOnUse" xlink:href="#linearGradient6067"/>
  <linearGradient id="linearGradient6239" x1="5.8207" x2="5.8207" y1="1.0583" gradientUnits="userSpaceOnUse" xlink:href="#linearGradient6067"/>
  <radialGradient id="radialGradient6231" cx="3.1749" cy="1.3229" r=".79373" gradientTransform="matrix(-2.1078e-8 -1.3333 1.6667 -2.6348e-8 .97012 5.2916)" gradientUnits="userSpaceOnUse" xlink:href="#linearGradient6067"/>
  <linearGradient id="linearGradient6215" x1="13.758" x2="15.081" y1="10.583" y2="10.583" gradientUnits="userSpaceOnUse" xlink:href="#linearGradient6067"/>
  <linearGradient id="linearGradient6223" x1="3.1749" x2="1.852" y1="8.4665" y2="8.4665" gradientUnits="userSpaceOnUse" xlink:href="#linearGradient6067"/>
  <radialGradient id="radialGradient6207" cx="13.758" cy="15.346" r=".79373" gradientTransform="matrix(5.1718e-7 2 -1.6667 4.3098e-7 39.334 -12.171)" gradientUnits="userSpaceOnUse" xlink:href="#linearGradient6067"/>
  <radialGradient id="radialGradient6199" cx="3.1749" cy="15.346" r=".79373" gradientTransform="matrix(-1.6667 -1.37e-6 1.644e-6 -2 8.4665 46.037)" gradientUnits="userSpaceOnUse" xlink:href="#linearGradient6067"/>
  <linearGradient id="linearGradient6315" x1="7.9373" x2="7.9373" y1="15.346" y2="16.668" gradientUnits="userSpaceOnUse" xlink:href="#linearGradient6067"/>
  <radialGradient id="radialGradient6331" cx="35" cy="4" r="3.7275" gradientTransform="matrix(1.6115 -1.9122e-7 9.5496e-8 .80482 -21.403 .78072)" gradientUnits="userSpaceOnUse" xlink:href="#linearGradient6067"/>
  <linearGradient id="linearGradient6333" x1="43" x2="46.004" y1="12" y2="8.9965" gradientUnits="userSpaceOnUse" xlink:href="#linearGradient6067"/>
  <radialGradient id="radialGradient6321" cx="52" cy="22" r="5.2061" gradientTransform="matrix(.76834 -9.6042e-8 1.534e-7 1.2272 12.047 -4.9986)" gradientUnits="userSpaceOnUse" xlink:href="#linearGradient6067"/>
  <linearGradient id="linearGradient6335" x1="5.8207" x2="5.8207" y1="1.0583" y2=".26458" gradientUnits="userSpaceOnUse" xlink:href="#linearGradient6067"/>
  <radialGradient id="radialGradient6337" cx="3.1749" cy="1.3229" r=".79373" gradientTransform="matrix(-7.442e-8 -1 1.3333 -9.9226e-8 1.4111 4.2333)" gradientUnits="userSpaceOnUse" xlink:href="#linearGradient6067"/>
  <linearGradient id="linearGradient6319" x1="13.758" x2="14.816" y1="10.583" y2="10.583" gradientUnits="userSpaceOnUse" xlink:href="#linearGradient6067"/>
  <linearGradient id="linearGradient6309" x1="3.1749" x2="2.1166" y1="8.4665" y2="8.4665" gradientUnits="userSpaceOnUse" xlink:href="#linearGradient6067"/>
  <radialGradient id="radialGradient6317" cx="13.758" cy="15.346" r=".79373" gradientTransform="matrix(0 1.6667 -1.3333 0 34.219 -7.5846)" gradientUnits="userSpaceOnUse" xlink:href="#linearGradient6067"/>
  <radialGradient id="radialGradient6311" cx="3.1749" cy="15.346" r=".79373" gradientTransform="matrix(-1.3333 0 0 -1.6667 7.4082 40.921)" gradientUnits="userSpaceOnUse" xlink:href="#linearGradient6067"/>
  <linearGradient id="linearGradient4553" x1="45" x2="11" y1="9" y2="60" gradientTransform="matrix(.26458 0 0 .26458 -.0055802 -.26458)" gradientUnits="userSpaceOnUse">
   <stop stop-color="#ededed" offset="0"/>
   <stop stop-color="#fcfcfc" offset="1"/>
  </linearGradient>
  <radialGradient id="radialGradient6129" cx="40" cy="12" r="8" gradientTransform="matrix(.39687 0 0 -.52916 -3.7097 10.583)" gradientUnits="userSpaceOnUse" xlink:href="#linearGradient6067"/>
  <radialGradient id="radialGradient6017" cx="10.583" cy="4.2333" r="2.1166" gradientTransform="matrix(-2 3.1236e-7 -3.1236e-7 -2 31.744 12.7)" gradientUnits="userSpaceOnUse" xlink:href="#linearGradient6067"/>
  <radialGradient id="radialGradient6042" cx="40" cy="12" r="8" gradientTransform="matrix(0 -.39687 .52916 0 4.2277 18.52)" gradientUnits="userSpaceOnUse" xlink:href="#linearGradient6067"/>
  <linearGradient id="linearGradient6093" x1="10.583" x2="6.3499" y1="3.1749" y2="3.1749" gradientTransform="matrix(1 0 0 .66667 -.0055802 1.4111)" gradientUnits="userSpaceOnUse" xlink:href="#linearGradient6067"/>
  <linearGradient id="linearGradient6073" x1="10.583" x2="8.7311" y1="3.0426" y2="3.0426" gradientTransform="matrix(1 0 0 .66667 -.0055802 1.4111)" gradientUnits="userSpaceOnUse" xlink:href="#linearGradient6067"/>
  <radialGradient id="radialGradient6083" cx="10.583" cy="4.2333" r="2.1166" gradientTransform="matrix(-.875 -1.6564e-7 1.6631e-7 -.87849 19.838 7.9521)" gradientUnits="userSpaceOnUse" xlink:href="#linearGradient6067"/>
  <radialGradient id="radialGradient6089" cx="40" cy="12" r="8" gradientTransform="matrix(0 -.34601 .23278 0 7.7842 16.486)" gradientUnits="userSpaceOnUse" xlink:href="#linearGradient6067"/>
  <linearGradient id="linearGradient6121" x1="10.583" x2="6.3499" y1="3.1749" y2="3.1749" gradientTransform="matrix(1 0 0 .66667 -14.816 9.3428)" gradientUnits="userSpaceOnUse" xlink:href="#linearGradient6067"/>
  <linearGradient id="linearGradient6123" x1="10.583" x2="8.7237" y1="3.0426" y2="3.0426" gradientTransform="matrix(1 0 0 .66667 -14.816 9.3428)" gradientUnits="userSpaceOnUse" xlink:href="#linearGradient6067"/>
  <radialGradient id="radialGradient6131" cx="40" cy="12" r="8" gradientTransform="matrix(.3793 0 0 -.23243 -3.0071 7.0224)" gradientUnits="userSpaceOnUse" xlink:href="#linearGradient6067"/>
  <linearGradient id="linearGradient4561" x1="40" x2="46" y1="17" y2="11" gradientTransform="matrix(.26458 0 0 .26458 -.0055802 -.26458)" gradientUnits="userSpaceOnUse">
   <stop stop-color="#fefefe" offset="0"/>
   <stop stop-color="#e9e9e9" offset="1"/>
  </linearGradient>
 </defs>
 <g transform="translate(-.0055802)" opacity=".1">
  <rect x="3.1749" y="15.346" width="10.583" height="1.5875" fill="url(#linearGradient6191)" opacity="1"/>
  <path transform="scale(.26458)" d="m35 0 1e-6 7 7-7z" fill="url(#radialGradient6247)" opacity="1"/>
  <path transform="scale(.26458)" d="m42 0-7 7 14 15 9-9 2e-6 -9.4551-3.5449-3.5449z" fill="url(#linearGradient6263)" opacity="1"/>
  <path transform="scale(.26458)" d="m58 13-9 9h9z" fill="url(#radialGradient6255)" opacity="1"/>
  <rect x="3.1749" width="6.0853" height="1.0583" fill="url(#linearGradient6239)" opacity="1"/>
  <rect x="1.5875" width="1.5875" height="1.0583" fill="url(#radialGradient6231)" opacity="1"/>
  <rect x="13.758" y="5.8207" width="1.5875" height="9.5248" fill="url(#linearGradient6215)" opacity="1"/>
  <rect x="1.5875" y="1.0583" width="1.5875" height="14.287" fill="url(#linearGradient6223)" opacity="1"/>
  <rect x="13.758" y="15.346" width="1.5875" height="1.5875" fill="url(#radialGradient6207)" opacity="1"/>
  <rect x="1.5875" y="15.346" width="1.5875" height="1.5875" fill="url(#radialGradient6199)" opacity="1"/>
 </g>
 <g transform="translate(-.0055802)" opacity=".2">
  <rect x="3.1749" y="15.346" width="10.583" height="1.5875" fill="url(#linearGradient6315)" opacity="1"/>
  <path transform="scale(.26458)" d="m35 0 1e-6 7 7-7z" fill="url(#radialGradient6331)" opacity="1"/>
  <path transform="scale(.26458)" d="m42 0-7 7 14 15 9-9 2e-6 -9.4551-3.5449-3.5449z" fill="url(#linearGradient6333)" opacity="1"/>
  <path transform="scale(.26458)" d="m58 13-9 9h9z" fill="url(#radialGradient6321)" opacity="1"/>
  <rect x="3.1749" width="6.0853" height="1.0583" fill="url(#linearGradient6335)" opacity="1"/>
  <rect x="1.5875" width="1.5875" height="1.0583" ry="0" fill="url(#radialGradient6337)" opacity="1"/>
  <rect x="13.758" y="5.8207" width="1.5875" height="9.5248" fill="url(#linearGradient6319)" opacity="1"/>
  <rect x="1.5875" y="1.0583" width="1.5875" height="14.287" fill="url(#linearGradient6309)" opacity="1"/>
  <rect x="13.758" y="15.346" width="1.5875" height="1.5875" fill="url(#radialGradient6317)" opacity="1"/>
  <rect x="1.5875" y="15.346" width="1.5875" height="1.5875" fill="url(#radialGradient6311)" opacity="1"/>
 </g>
 <path d="m2.9048 0.26458c-0.29316 0-0.52916 0.23601-0.52916 0.52916v14.816c0 0.29316 0.23601 0.52916 0.52916 0.52916h11.112c0.29316 0 0.52916-0.23601 0.52916-0.52916v-10.319c0-0.26458-0.16113-0.69029-0.52916-1.0583l-3.4395-3.4395c-0.35403-0.44799-0.79374-0.52916-1.0583-0.52916z" fill="url(#linearGradient4553)" stroke-width=".26458"/>
 <path d="m8.4668 4.4978c-0.03837 0-0.07678 0.01695-0.09758 0.05072l-0.20644 0.33356-0.09724 0.0095-0.26742-0.2868c-0.0542-0.05799-0.16367-0.03653-0.19146 0.03816l-0.13702 0.36646-0.09448 0.0286-0.31754-0.22849c-0.06452-0.0466-0.16768-0.0037-0.18043 0.07466l-0.06305 0.38644-0.08673 0.04652-0.3563-0.16244c-0.07241-0.0331-0.16538 0.02912-0.16234 0.10852l0.01369 0.39213-0.07527 0.06192-0.38188-0.09008c-0.07757-0.01807-0.15645 0.06065-0.13823 0.13822l0.09 0.38197-0.06184 0.0751-0.39213-0.0137c-0.0791-0.0023-0.14137 0.08986-0.10843 0.16243l0.16243 0.35638-0.04651 0.08673-0.38636 0.06287c-0.07849 0.01274-0.12106 0.1159-0.07475 0.18043l0.22858 0.31736-0.02868 0.09465-0.36646 0.13694c-0.07439 0.02778-0.09621 0.13718-0.03807 0.19154l0.28671 0.26733-0.0095 0.09715-0.33356 0.20653c-0.06756 0.04175-0.06756 0.15356 0 0.19516l0.33356 0.20644 0.0095 0.09714-0.28671 0.26742c-0.05814 0.0542-0.03632 0.16352 0.03807 0.19145l0.36646 0.13703 0.02868 0.09457-0.22858 0.31745c-0.04645 0.06467-0.0036 0.16783 0.07484 0.18043l0.38627 0.06278 0.04651 0.08689-0.16243 0.35631c-0.03309 0.07241 0.02934 0.16553 0.10843 0.16234l0.39204-0.01378 0.06192 0.07536-0.09 0.38196c-0.01822 0.07743 0.06066 0.15611 0.13823 0.1379l0.38188-0.08992 0.07527 0.06174-0.01369 0.39222c-3e-3 0.0794 0.08993 0.14153 0.16234 0.10843l0.3563-0.16244 0.08673 0.0466 0.06304 0.38618c0.01275 0.07864 0.11591 0.12114 0.18043 0.07484l0.31737-0.22874 0.09456 0.02876 0.13702 0.36638c0.02778 0.07438 0.13726 0.09627 0.19145 0.03798l0.26742-0.28662 0.09723 0.0097 0.20644 0.33356c0.0416 0.06724 0.15341 0.0674 0.19516 0l0.20653-0.33356 0.09715-0.0097 0.26733 0.28662c0.0542 0.0583 0.16367 0.0364 0.19146-0.03798l0.13694-0.36638 0.09465-0.02876 0.31746 0.22874c0.06452 0.0463 0.16759 0.0037 0.18034-0.07484l0.06304-0.38618 0.08673-0.0466 0.3563 0.16244c0.07241 0.0331 0.16523-0.02888 0.16234-0.10843l-0.0137-0.39222 0.07519-0.06174 0.38196 0.08992c0.07758 0.01821 0.15628-0.06047 0.13806-0.1379l-0.09-0.38196 0.06184-0.07536 0.39213 0.01378c0.07909 0.0032 0.14159-0.08993 0.10834-0.16234l-0.16234-0.35631 0.04651-0.08689 0.38636-0.06278c0.07864-0.0126 0.12128-0.11576 0.07467-0.18044l-0.22857-0.31745 0.02868-0.09457 0.36646-0.13703c0.07454-0.02793 0.09628-0.13725 0.03798-0.19145l-0.28662-0.26742 0.0095-0.09714 0.33356-0.20644c0.06756-0.0416 0.06763-0.15341 6.6e-5 -0.19516l-0.33356-0.20653-0.0095-0.09715 0.28662-0.26733c0.0583-0.05436 0.03647-0.16376-0.03807-0.19154l-0.36638-0.13694-0.02868-0.09465 0.22858-0.31736c0.04661-0.06453 0.0038-0.16752-0.07467-0.18043l-0.38644-0.06287-0.04642-0.08673 0.16234-0.35638c0.03325-0.07257-0.02849-0.16547-0.10835-0.16243l-0.39213 0.01369-0.06201-0.0751 0.09017-0.38197c0.01822-0.07757-0.06057-0.15644-0.13814-0.13822l-0.38188 0.09008-0.07527-0.06192 0.01378-0.39213c3e-3 -0.0794-0.08993-0.14147-0.16235-0.10852l-0.3563 0.16244-0.08673-0.04652-0.06304-0.38644c-0.01275-0.07833-0.11583-0.12113-0.18034-0.07466l-0.31763 0.22849-0.09448-0.0286-0.13694-0.36646c-0.02778-0.07469-0.13726-0.09615-0.19146-0.03816l-0.26733 0.2868-0.09724-0.0095-0.20644-0.33356c-0.02088-0.03377-0.05921-0.05072-0.09758-0.05072zm-0.01266 0.69916c0.11799 0 0.23604 0.07864 0.23598 0.23597-1.33e-4 0.31444-0.47176 0.31444-0.47188 0-6.6e-5 -0.15733 0.11791-0.23597 0.2359-0.23597zm0.54758 0.38868c0.83865 0.15709 1.5658 0.67494 1.9884 1.4162l-0.27827 0.62844c-0.04805 0.10878 9.25e-4 0.23602 0.10938 0.28422l0.53578 0.23796c0.01666 0.16758 0.01869 0.33632 0.0061 0.50426h-0.29799c-0.02983 0-0.04177 0.0196-0.04177 0.04883v0.13685c0 0.32215-0.18171 0.39221-0.34088 0.41004-0.15159 0.01708-0.31964-0.06347-0.34037-0.15623-0.08942-0.50296-0.23838-0.61038-0.47368-0.79596 0.29201-0.18544 0.59581-0.45899 0.59581-0.82516 0-0.3954-0.27102-0.64447-0.45577-0.7666-0.25922-0.17086-0.5462-0.18694-0.62363-0.18694h-3.0821c0.42606-0.4761 0.99721-0.81662 1.625-0.93527l0.36328 0.38119c0.08213 0.086 0.21818 0.08918 0.30411 7e-3zm-3.3619 1.7473c0.11799 0 0.23596 0.07864 0.2359 0.23598-1.32e-4 0.31443-0.47176 0.31443-0.47188 0-6.6e-5 -0.15733 0.11799-0.23598 0.23598-0.23598zm5.6286 0.01103c0.11799 0 0.23604 0.07864 0.23598 0.23598-1.32e-4 0.31443-0.47176 0.31443-0.47188 0-6.6e-5 -0.15734 0.11791-0.23598 0.2359-0.23598zm-5.1335 0.09339h0.34734l-1e-3 1.8386h-0.80853c-0.10251-0.36007-0.13445-0.77473-0.09405-1.1469l0.50822-0.22581c0.10855-0.0482 0.15758-0.17544 0.10938-0.28421zm1.5685 0h1.073c0.05063 0 0.3575 0.02038 0.3575 0.24985 0 0.19051-0.23534 0.2843-0.4289 0.2843h-1.0016v-0.53424zm0 1.221h0.85609c0.06854 0 0.36645 0.0959 0.46171 0.47671 0.02983 0.11712 0.09534 0.49812 0.14013 0.6201 0.04463 0.13678 0.22639 0.42967 0.42003 0.42967h1.2256c-0.0822 0.11002-0.17214 0.19441-0.26905 0.2917l-0.49892-0.10723c-0.11621-0.0249-0.23046 0.04901-0.25536 0.16545l-0.11842 0.55258c-0.77058 0.34905-1.6551 0.34489-2.4223-0.01155l-0.11834-0.55266c-0.0249-0.11628-0.13922-0.19033-0.25536-0.16536l-0.48781 0.10473c-0.09064-0.09335-0.17493-0.17302-0.25226-0.27767h2.3375v-0.91584h-0.7632zm-0.99706 1.999c0.11799 0 0.23604 0.07865 0.23598 0.23598-1.32e-4 0.31443-0.47175 0.31443-0.47188 0-6.6e-5 -0.15734 0.11791-0.23598 0.2359-0.23598zm3.4956 0.01094c0.11799 0 0.23596 0.07873 0.2359 0.23606-1.32e-4 0.31444-0.47176 0.31444-0.47188 0-6.6e-5 -0.15734 0.11799-0.23606 0.23598-0.23606z" enable-background="new" fill="#666" stroke-width=".03816"/>
 <path d="m12.165 4.2332v4.2332h2.3812v-3.1749c0-0.034876-0.0069-0.079523-0.01034-0.11989-0.03935-0.26272-0.20199-0.6216-0.51882-0.93843z" fill="url(#radialGradient6129)" opacity=".05"/>
 <rect x="8.7153" y="-.54211" width="6.6358" height="6.6348" fill="none"/>
 <g fill="#7b7b7b" stroke-width=".05444" aria-label="RUST">
  <path d="m6.4133 14.072q0.069113 0.02339 0.13397 0.09995 0.065923 0.07656 0.13185 0.21053l0.21797 0.43382h-0.23073l-0.20309-0.40724q-0.078682-0.15949-0.15311-0.21159-0.073366-0.0521-0.20096-0.0521h-0.23392v0.67093h-0.21478v-1.5875h0.48485q0.2722 0 0.40617 0.11377 0.13397 0.11377 0.13397 0.34344 0 0.14992-0.070176 0.24881-0.069113 0.09888-0.20202 0.13716zm-0.53802-0.66667v0.56354h0.27007q0.15524 0 0.23392-0.07124 0.079746-0.0723 0.079746-0.21159 0-0.13929-0.079746-0.20946-0.078682-0.07124-0.23392-0.07124z"/>
  <path d="m7.1491 13.229h0.21584v0.96439q0 0.25519 0.092505 0.36789 0.092505 0.11164 0.29984 0.11164 0.20628 0 0.29878-0.11164 0.092505-0.11271 0.092505-0.36789v-0.96439h0.21584v0.99097q0 0.31048-0.15417 0.4689-0.15311 0.15843-0.45296 0.15843-0.30091 0-0.45508-0.15843-0.15311-0.15843-0.15311-0.4689z"/>
  <path d="m9.719 13.281v0.20947q-0.12228-0.05848-0.23073-0.08719t-0.20947-0.02871q-0.17544 0-0.27114 0.06805-0.094631 0.06805-0.094631 0.19352 0 0.10526 0.062733 0.15949 0.063797 0.05316 0.2403 0.08613l0.12972 0.02658q0.2403 0.04572 0.35407 0.16162 0.11483 0.11483 0.11483 0.30835 0 0.23073-0.15524 0.34982-0.15417 0.11909-0.45296 0.11909-0.11271 0-0.2403-0.02552-0.12653-0.02552-0.26263-0.07549v-0.22116q0.13078 0.07337 0.25625 0.11058 0.12547 0.03722 0.24668 0.03722 0.18395 0 0.28389-0.0723 0.099948-0.0723 0.099948-0.20628 0-0.11696-0.072303-0.18288-0.071239-0.06592-0.23498-0.09889l-0.13078-0.025523q-0.2403-0.04785-0.34769-0.14992-0.10739-0.10208-0.10739-0.28389 0-0.21053 0.1478-0.33174 0.14886-0.12121 0.40936-0.12121 0.11164 0 0.22754 0.0202t0.23711 0.06061z"/>
  <path d="m9.9296 13.229h1.3429v0.18076h-0.56354v1.4067h-0.21584v-1.4067h-0.56354z"/>
 </g>
 <g>
  <rect x="6.3443" y="4.2333" width="4.2333" height="4.2333" ry="0" fill="url(#radialGradient6017)" opacity=".05"/>
  <path d="m6.3443 0.26458v2.3812h4.2333v-1.852c-0.35403-0.44799-0.79373-0.52916-1.0583-0.52916z" fill="url(#radialGradient6042)" opacity=".05"/>
  <rect x="6.3443" y="2.6458" width="4.2333" height="1.5875" ry="0" fill="url(#linearGradient6093)" opacity=".05"/>
  <rect x="7.6672" y="2.6458" width="2.9104" height="1.5875" ry="0" fill="url(#linearGradient6073)" opacity=".2"/>
  <rect x="7.6672" y="4.2333" width="2.9104" height="2.9104" ry="0" fill="url(#radialGradient6083)" opacity=".2"/>
  <path d="m7.6672 0.26458v2.3812h2.9104v-1.852c-0.14016-0.17736-0.29358-0.29558-0.44441-0.37568l-0.6139-0.15348z" fill="url(#radialGradient6089)" opacity=".2"/>
  <rect transform="rotate(-90)" x="-8.4665" y="10.578" width="4.2333" height="1.5875" ry="0" fill="url(#linearGradient6121)" opacity=".05"/>
  <rect transform="rotate(-90)" x="-7.1436" y="10.578" width="2.9104" height="1.5875" ry="0" fill="url(#linearGradient6123)" opacity=".2"/>
  <path d="m12.165 4.2332v2.9104h2.3812v-1.852l-0.11627-0.4656c-0.085847-0.19266-0.2205-0.40033-0.41289-0.59272z" fill="url(#radialGradient6131)" opacity=".2"/>
 </g>
 <path d="m10.048 0.37542v3.8561c0 0.29315 0.23601 0.52917 0.52917 0.52917h3.822c-0.08627-0.1743-0.21103-0.35779-0.3824-0.52917l-3.4396-3.4396c-0.16657-0.21078-0.35183-0.33839-0.52917-0.41652z" fill="url(#linearGradient4561)"/>
</svg>
