<svg width="16" height="16" version="1.1" xmlns="http://www.w3.org/2000/svg">
 <defs>
  <style id="current-color-scheme" type="text/css">.ColorScheme-Text {
        color:#363636;
      }</style>
 </defs>
 <path class="ColorScheme-Text" fill="currentColor" d="m7 0c-1.108 0-2 0.892-2 2v7c0 1.108 0.892 2 2 2h7c1.108 0 2-0.892 2-2v-7c0-1.108-0.892-2-2-2h-7zm0 1h7c0.554 0 1 0.446 1 1v7c0 0.554-0.446 1-1 1h-7c-0.554 0-1-0.446-1-1v-7c0-0.554 0.446-1 1-1zm2.5918 1-2.2656 7h1.4922l0.48242-1.6602h2.4043l0.47656 1.6602h1.4922l-2.2754-7h-1.8066zm0.91016 0.98242c0.015893 0.11126 0.043885 0.24535 0.082031 0.4043 0.038147 0.15895 0.077814 0.31957 0.11914 0.47852 0.044507 0.15577 0.0849 0.2974 0.12305 0.42773 0.038147 0.13034 0.066864 0.22403 0.085937 0.28125l0.44922 1.5273h-1.7031l0.44336-1.5273c0.00954-0.034973 0.023896-0.088996 0.042969-0.16211 0.022254-0.073107 0.046833-0.15658 0.072266-0.25195 0.025433-0.095373 0.051471-0.19661 0.080078-0.30469 0.028607-0.10808 0.056598-0.21541 0.082031-0.32031 0.028614-0.10809 0.051239-0.20932 0.070313-0.30469 0.022253-0.095373 0.040021-0.17811 0.052734-0.24805z"/>
 <path class="ColorScheme-Text" fill="currentColor" d="m2 5c-1.108 0-2 0.892-2 2v7c0 1.108 0.892 2 2 2h7c1.108 0 2-0.892 2-2v-2h-1v2c0 0.554-0.446 1-1 1h-7c-0.554 0-1-0.446-1-1v-7c0-0.554 0.446-1 1-1h1v-1zm0.11133 2.7227v5.0156h0.45312v-0.74609h1.123v-1.0996c-0.17996-0.2199-0.34104-0.45677-0.45312-0.72266v1.291h-0.66992v-3.207h0.43555v-0.53125h-0.88867zm2.2871 3.8086c-0.2619 0.79515-0.59351 1.6615-0.85547 2.1992l0.5 0.26953c0.26364-0.63828 0.56751-1.4745 0.8125-2.2266-0.16079-0.06611-0.31184-0.15041-0.45703-0.24219zm1.0566 0.41406c-0.059049 0.35177-0.11882 0.73737-0.17383 1.0078h2.5312c-0.038462 0.23077-0.092759 0.37792-0.1543 0.43945-0.076923 0.09231-0.15427 0.10742-0.27734 0.10742-0.13846 0-0.49222-0.0083-0.86914-0.03906 0.084615 0.13846 0.13879 0.33822 0.14648 0.48437 0.36154 0.01538 0.72188 0.02319 0.92188 0.0078 0.22308-0.02308 0.36935-0.08479 0.50781-0.26172 0.1-0.12308 0.16905-0.33828 0.23828-0.73828h0.43945v-0.48438h-0.37695c0.014938-0.12548 0.026067-0.32071 0.039062-0.46875h-0.49219c-0.012996 0.14768-0.024125 0.34925-0.039062 0.46875h-2.0156c0.021088-0.14159 0.049009-0.31698 0.072266-0.47266-0.17027-0.0026-0.33594-0.02114-0.49805-0.05078zm1.4062 0.05469c0.16757 0.15351 0.31455 0.30677 0.4043 0.43164l0.30664-0.30078c-0.030305-0.03879-0.089385-0.08822-0.12891-0.13086z" opacity=".35"/>
</svg>
