<svg width="16" height="16" version="1.1" viewBox="0 0 16 16" xmlns="http://www.w3.org/2000/svg">
 <defs>
  <style id="current-color-scheme" type="text/css">.ColorScheme-Text { color:#363636; } .ColorScheme-Highlight { color:#5294e2; }</style>
 </defs>
 <path style="fill:currentColor" class="ColorScheme-Text" d="m11.5 1a1.5 1.5 0 0 0-1.4102 1h-9.5898c-0.277 0-0.5 0.223-0.5 0.5s0.223 0.5 0.5 0.5h9.5898a1.5 1.5 0 0 0 1.4102 1 1.5 1.5 0 0 0 1.4102-1h2.5898c0.277 0 0.5-0.223 0.5-0.5s-0.223-0.5-0.5-0.5h-2.5859a1.5 1.5 0 0 0-1.4141-1zm0 1a0.5 0.5 0 0 1 0.5 0.5 0.5 0.5 0 0 1-0.5 0.5 0.5 0.5 0 0 1-0.5-0.5 0.5 0.5 0 0 1 0.5-0.5z"/>
 <path style="fill:currentColor" class="ColorScheme-Text" d="m4.5 6.5a1.5 1.5 0 0 1 1.4102 1h9.5898c0.277 0 0.5 0.223 0.5 0.5s-0.223 0.5-0.5 0.5h-9.5898a1.5 1.5 0 0 1-1.4102 1 1.5 1.5 0 0 1-1.4102-1h-2.5898c-0.277 0-0.5-0.223-0.5-0.5s0.223-0.5 0.5-0.5h2.5859a1.5 1.5 0 0 1 1.4141-1zm0 1a0.5 0.5 0 0 0-0.5 0.5 0.5 0.5 0 0 0 0.5 0.5 0.5 0.5 0 0 0 0.5-0.5 0.5 0.5 0 0 0-0.5-0.5z"/>
 <path style="fill:currentColor" class="ColorScheme-Text" d="m11.5 12a1.5 1.5 0 0 0-1.4102 1h-9.5898c-0.277 0-0.5 0.223-0.5 0.5s0.223 0.5 0.5 0.5h9.5898a1.5 1.5 0 0 0 1.4102 1 1.5 1.5 0 0 0 1.4102-1h2.5898c0.277 0 0.5-0.223 0.5-0.5s-0.223-0.5-0.5-0.5h-2.5859a1.5 1.5 0 0 0-1.4141-1zm0 1a0.5 0.5 0 0 1 0.5 0.5 0.5 0.5 0 0 1-0.5 0.5 0.5 0.5 0 0 1-0.5-0.5 0.5 0.5 0 0 1 0.5-0.5z"/>
</svg>
