<svg width="16" height="16" xmlns="http://www.w3.org/2000/svg"><path d="M10.101 5.7a.36.36 0 01.264.11l.526.526c.072.072.11.16.11.262a.36.36 0 01-.11.264L7.563 10.19a.36.36 0 01-.264.11.357.357 0 01-.262-.11l-.528-.526-1.4-1.4A.36.36 0 015 8a.36.36 0 01.11-.264l.525-.526a.359.359 0 01.264-.108c.103 0 .19.036.262.108L7.3 8.353 9.84 5.81a.357.357 0 01.262-.11z" fill="#363636" fill-rule="evenodd"/><path d="M8 1a7 7 0 00-7 7 7 7 0 007 7 7 7 0 007-7 7 7 0 00-7-7zm0 1a6 6 0 016 6 6 6 0 01-6 6 6 6 0 01-6-6 6 6 0 016-6z" fill="#363636"/></svg>