<svg width="16" height="16" version="1.1" xmlns="http://www.w3.org/2000/svg">
 <path d="m8.0023 1.0023c0.55 0 1 0.45 1 1v1.6l-6.19 6.19-0.75 0.24c-1.05 0.27-1.06 0.27-1.06-0.53 0-0.43 0.01-0.43 0.5-0.72l5.5-3.68v-3.1c0-0.55 0.44-1 1-1zm1.78 4.62 4.72 3.16c0.45 0.27 0.5 0.29 0.5 0.66v0.06c0 0.8-0.04 0.78-1.03 0.53l-4.97-1.62v4.5l1.78 1.22c0.21 0.14 0.22 0.12 0.22 0.34v0.22c0 0.43-0.44 0.28-0.44 0.28l-2.56-0.28-2.57 0.28s-0.43 0.14-0.43-0.25v-0.25c0-0.21 0.01-0.2 0.22-0.34l1.78-1.22v-4.5z" fill="#363636"/>
 <path d="m13.65 0.93-12.72 12.72 1.41 1.41 12.72-12.72z" fill="#363636"/>
</svg>
