<svg width="16" height="16" xmlns="http://www.w3.org/2000/svg"><path d="M4.95 2A3 3 0 002 5a3 3 0 00.486 1.637A6 6 0 002 9a6 6 0 002.402 4.803l-.33.826.01.004a.923.923 0 00-.08.367c0 .524.475 1 .998 1 .396 0 .764-.273.92-.633l.008.004.261-.652A6 6 0 008 15a6 6 0 001.813-.28l.26.651.01-.004c.156.36.522.633.918.633.523 0 1-.477 1-1a.921.921 0 00-.08-.367l.008-.004-.33-.828A6 6 0 0014 9a6 6 0 00-.486-2.363A3 3 0 0014 5a3 3 0 00-3-3 3 3 0 00-.05 0 3 3 0 00-2.224 1.045A6 6 0 008 3a6 6 0 00-.727.045A3 3 0 005 2a3 3 0 00-.05 0zm0 1a2 2 0 01.001 0A2 2 0 015 3a2 2 0 011.078.316 6 6 0 00-2.996 2.247A2 2 0 013 5a2 2 0 011.95-2zm5.98 0a2 2 0 01.021 0A2 2 0 0111 3a2 2 0 012 2 2 2 0 01-.082.563A6 6 0 009.92 3.316 2 2 0 0110.93 3zM8 4a5 5 0 015 5 5 5 0 01-5 5 5 5 0 01-5-5 5 5 0 015-5zm1.969 2.531a.503.503 0 00-.25.156L8.063 8.344 6.906 7.187c-.157-.257-.568-.306-.78-.093s-.163.624.093.78l1.5 1.501a.518.518 0 00.687 0l2-2c.293-.298-.024-.91-.437-.844z" fill="#363636"/></svg>