<svg width="16" height="16" version="1.1" xmlns="http://www.w3.org/2000/svg">
 <path d="m8 1a1 1 0 0 0-0.99414 1.0996 4.988 4.988 0 0 0-4.0059 4.9004v4.5l-2 2v0.5h14v-0.5l-2-2v-3.6309a4 4 0 0 1-1 0.12695v3.9258l1 1.0781h-10l1-1.0781v-4.9219a4 4 0 0 1 4-4 4 4 0 0 1 0.13086 0.00586 4 4 0 0 1 0.74023-1.4922 1 1 0 0 0-0.87109-0.51367zm0 3a3 3 0 0 0-3 3v5h6v-4.1309a4 4 0 0 1-3-3.8691zm-1.7305 11a2 2 0 0 0 1.7305 1 2 2 0 0 0 1.7285-1z" fill="#363636" stroke-linecap="round" stroke-width="3"/>
 <path d="m15 3.9993a3 3 0 0 1-5.9999 0 3 3 0 1 1 5.9999 0z" color="#bebebe" fill="#ff9125" overflow="visible" stroke-width="1.2" style="isolation:auto;mix-blend-mode:normal"/>
</svg>
