<svg width="16" height="16" version="1.1" xmlns="http://www.w3.org/2000/svg">
 <path d="m7.5 0c-4.13 0-7.5 3.37-7.5 7.5s3.37 7.5 7.5 7.5c0.428 0 0.84491-0.044281 1.2539-0.11328a4.411 4.411 0 0 1-0.66211-1.918c-0.194 0.02-0.3918 0.03125-0.5918 0.03125-3.05 0-5.5-2.45-5.5-5.5s2.45-5.5 5.5-5.5a5.485 5.485 0 0 1 5.4668 6.0938 4.409 4.409 0 0 1 1.918 0.66016 7.46 7.46 0 0 0 0.11523-1.2539c0-4.13-3.37-7.5-7.5-7.5zm2.9648 4.002a0.5 0.5 0 0 0-0.048828 0.0039063 0.425 0.425 0 0 0-0.023438 0.0039062v0.0078125a0.5 0.5 0 0 0-0.25 0.15625l-2.6562 2.6484-1.6562-1.6484a0.5 0.5 0 1 0-0.6875 0.6875l2 2a0.5 0.5 0 0 0 0.6875 0l3-3a0.5 0.5 0 0 0-0.36523-0.85938z" color="#000000" fill="#363636" style="font-feature-settings:normal;font-variant-alternates:normal;font-variant-caps:normal;font-variant-ligatures:normal;font-variant-numeric:normal;font-variant-position:normal;isolation:auto;mix-blend-mode:normal;shape-padding:0;text-decoration-color:#000000;text-decoration-line:none;text-decoration-style:solid;text-indent:0;text-orientation:mixed;text-transform:none;white-space:normal"/>
 <path class="error" d="m12.5 9a3.5 3.5 0 1 0 0 7 3.5 3.5 0 0 0 0-7zm-0.5 1h1v3h-1zm0 4h1v1h-1z" color="#bebebe" fill="#ef2929" overflow="visible"/>
</svg>
