<svg width="16" height="16" xmlns="http://www.w3.org/2000/svg"><path d="M10.465 4.002a.5.5 0 00-.072.008v.008a.5.5 0 00-.25.156L7.487 6.822 5.83 5.174c-.314-.514-1.2.373-.687.687l2 2a.5.5 0 00.687 0l3-3a.5.5 0 00-.365-.859z" color="#000" fill="#363636" style="font-feature-settings:normal;font-variant-alternates:normal;font-variant-caps:normal;font-variant-ligatures:normal;font-variant-numeric:normal;font-variant-position:normal;isolation:auto;mix-blend-mode:normal;shape-padding:0;text-decoration-color:#000;text-decoration-line:none;text-decoration-style:solid;text-indent:0;text-orientation:mixed;text-transform:none;white-space:normal"/><path class="warning" d="M12.48 9.729a.44.44 0 00-.36.22l-3.061 5.397a.437.437 0 00.379.654h6.125a.437.437 0 00.379-.654l-3.06-5.397a.439.439 0 00-.401-.22zM12 11h1v2h-1zm0 3h1v1h-1z" color="#000" fill="#f9c440" fill-rule="evenodd" font-weight="400" overflow="visible" style="isolation:auto;mix-blend-mode:normal;text-decoration-color:#000;text-decoration-line:none;text-decoration-style:solid;text-indent:0;text-transform:none;white-space:normal"/><path d="M7.463 0A7.5 7.5 0 000 7.5 7.5 7.5 0 007.5 15a7.5 7.5 0 00.5-.018V13.98a6.5 6.5 0 01-.5.02A6.5 6.5 0 011 7.5 6.5 6.5 0 017.5 1 6.5 6.5 0 0114 7.5a6.5 6.5 0 01-.176 1.5h1.024A7.5 7.5 0 0015 7.5 7.5 7.5 0 007.5 0a7.5 7.5 0 00-.037 0z" fill="#363636"/></svg>