<svg width="16" height="16" version="1.1" xmlns="http://www.w3.org/2000/svg">
 <path d="m8 1c-3.866 0-7 3.134-7 7 0 3.866 3.134 7 7 7 3.866 0 7-3.134 7-7 0-3.866-3.134-7-7-7zm0 4c0.61792 0.00131 1.22 0.19417 1.7246 0.55078l0.27539-0.55078 1 2h-2l0.26953-0.53906c-0.35718-0.29597-0.80566-0.45953-1.2695-0.46094-1.1046 0-2 0.89543-2 2h-1c0-1.6569 1.3431-3 3-3zm2 3h1c0 1.6569-1.3431 3-3 3-0.61802-0.001663-1.2201-0.19387-1.7246-0.55078l-0.27539 0.55078-1-2h2l-0.26953 0.53906c0.35718 0.29597 0.80566 0.45953 1.2695 0.46094 1.1046 0 2-0.89543 2-2z" fill="#363636" fill-rule="evenodd" style="paint-order:stroke fill markers"/>
</svg>
