<svg width="16" height="16" xmlns="http://www.w3.org/2000/svg"><path d="M12.738 1.291c-.376.027-.625.488-.283.87A8 8 0 0115 8a8 8 0 01-2.555 5.852c-.445.471.18 1.148.678.728A9 9 0 0016 8a9 9 0 00-2.862-6.572.579.579 0 00-.4-.137zm-2.39 1.416c-.396.012-.643.534-.256.914A6 6 0 0112 8a6 6 0 01-1.916 4.389c-.469.446.173 1.146.68.728A7 7 0 0013 8a7 7 0 00-2.225-5.111c-.147-.134-.296-.186-.428-.182zM6 3L3 6H1c-.554 0-1 .446-1 1v2c0 .554.446 1 1 1h2l3 3V3zm2.017 1.184c-.376.016-.644.513-.29.896A4 4 0 019 8a4 4 0 01-1.278 2.926c-.472.43.14 1.152.68.73A5 5 0 0010 8a5 5 0 00-1.59-3.65.536.536 0 00-.393-.166z" fill="#363636" fill-rule="evenodd" opacity=".5"/></svg>