<svg width="16" height="16" xmlns="http://www.w3.org/2000/svg"><path d="M8 1.002c-1.662 0-3 1.338-3 3v4c0 1.662 1.338 3 3 3s3-1.338 3-3v-4c0-1.662-1.338-3-3-3zm0 1c1.108 0 2 .892 2 2v4c0 1.108-.892 2-2 2s-2-.892-2-2v-4c0-1.108.892-2 2-2z" fill="#363636" fill-rule="evenodd"/><path d="M3.5 6.001c-.277 0-.5.223-.5.5v1.5c0 2.6 1.967 4.725 4.5 4.975V14h-2a.499.499 0 100 1h5a.499.499 0 100-1h-2v-1.025A4.988 4.988 0 0013 8v-1.5a.499.499 0 10-1 0v1.5c0 2.216-1.784 4-4 4s-4-1.784-4-4v-1.5c0-.277-.223-.5-.5-.5z" fill="#363636" fill-rule="evenodd"/></svg>