<svg width="16" height="16" xmlns="http://www.w3.org/2000/svg"><g fill="#363636"><rect y="6" width="5" height="4" ry="1" fill-rule="evenodd"/><path d="M6 3L3 6v4l3 3z"/><g fill-rule="evenodd"><path d="M13.139 1.428c-.545-.428-1.139.224-.684.732A8 8 0 0115 8a8 8 0 01-2.554 5.852c-.446.471.18 1.148.677.728A9 9 0 0016 8a9 9 0 00-2.861-6.572z"/><path d="M10.775 2.889c-.587-.535-1.199.225-.684.732A6 6 0 0112 8a6 6 0 01-1.916 4.389c-.469.446.173 1.146.68.728A7 7 0 0013 8a7 7 0 00-2.225-5.111z"/><path d="M8.41 4.35c-.52-.494-1.155.22-.683.73A4 4 0 019 8a4 4 0 01-1.277 2.926c-.473.43.14 1.152.68.73A5 5 0 0010 8a5 5 0 00-1.59-3.65z"/></g></g></svg>