<?xml version="1.0" encoding="UTF-8"?>
<svg width="16" height="16" version="1.1" xmlns="http://www.w3.org/2000/svg">
 <g fill="#363636">
  <path d="m8 0c-1.662 0-3 1.338-3 3v6.0254c0 1.662 1.338 3 3 3s3-1.338 3-3v-6.0254c0-1.662-1.338-3-3-3zm0 1c1.108 0 2 0.892 2 2v6.0254c0 1.108-0.892 2-2 2s-2-0.892-2-2v-6.0254c0-1.108 0.892-2 2-2z" fill-opacity=".99216" opacity=".35"/>
  <path d="m3.5 7.025c-0.277 0-0.5 0.223-0.5 0.5v1.5c0 2.6 1.967 4.725 4.5 4.975v1.024h-2a0.5 0.5 0 1 0 0 1h5a0.5 0.5 0 1 0 0-1h-2v-1.025a4.988 4.988 0 0 0 4.5-4.975v-1.5a0.5 0.5 0 1 0-1 0v1.5c0 2.216-1.784 4-4 4s-4-1.784-4-4v-1.5c0-0.277-0.223-0.5-0.5-0.5z" fill-rule="evenodd" opacity=".35"/>
  <rect transform="rotate(45)" x="1.3137" y="-.5" width="20" height="1" rx=".5" ry=".5" stroke-linecap="round" stroke-linejoin="round" stroke-width=".48307" style="paint-order:markers stroke fill"/>
 </g>
</svg>
