<?xml version="1.0" encoding="UTF-8"?>
<svg width="16px" height="16px" version="1.1" viewBox="0 0 16 16" xmlns="http://www.w3.org/2000/svg">
 <path d="m7.9902 0c-4.4074 0.0044516-7.9947 3.6026-7.9902 8.0098v5.9863c0 1.0946 0.90931 2.0039 2.0039 2.0039h0.0078126c1.088-0.007715 1.9917-0.90914 1.9883-2.0039 0 1.0946 0.90931 2.0039 2.0039 2.0039h0.0078126c1.088-0.007715 1.9917-0.90914 1.9883-2.0039 0 1.0946 0.90931 2.0039 2.0039 2.0039h0.007813c1.088-0.007715 1.9917-0.90914 1.9883-2.0039 0 1.0946 0.90931 2.0039 2.0039 2.0039h0.007813c1.0906-0.007734 1.9961-0.91339 1.9883-2.0117v-5.9805c0-4.4113-3.5965-8.0078-8.0078-8.0078h-0.0019531zm0.0019531 1c3.8711 0 7.0078 3.1367 7.0078 7.0078v5.9883c0.003906 0.55078-0.44531 1-0.99609 1.0039-0.55469 0-1.0039-0.44922-1.0039-1.0039v-0.99219c0.003906-0.55078-0.44531-1-0.99609-1.0039-0.55469 0-1.0039 0.44922-1.0039 1.0039v0.99219c0.003906 0.55078-0.44531 1-0.99609 1.0039-0.55469 0-1.0039-0.44922-1.0039-1.0039v-0.99219c0.003906-0.55078-0.44531-1-0.99609-1.0039-0.55469 0-1.0039 0.44922-1.0039 1.0039v0.99219c0.003906 0.55078-0.44531 1-0.99609 1.0039-0.55469 0-1.0039-0.44922-1.0039-1.0039v-0.99219c0.003906-0.55078-0.44531-1-0.99609-1.0039-0.55469 0-1.0039 0.44922-1.0039 1.0039v0.99219c0.003906 0.55078-0.44531 1-0.99609 1.0039-0.55469 0-1.0039-0.44922-1.0039-1.0039v-5.9883c-0.003906-3.8672 3.125-7.0039 6.9922-7.0078zm-1.9922 4c-0.55469 0-1 0.44531-1 1v1c0 0.55469 0.44531 1 1 1s1-0.44531 1-1v-1c0-0.55469-0.44531-1-1-1zm4 0c-0.55469 0-1 0.44531-1 1v1c0 0.55469 0.44531 1 1 1s1-0.44531 1-1v-1c0-0.55469-0.44531-1-1-1zm-6 7.9961v0.003906h-0.0039062c0.010944 7.8e-5 0.0039262-0.007106 0.0039062-0.003906zm4 0v0.003906h-0.0039062c0.010944 7.8e-5 0.0039262-0.007106 0.0039062-0.003906zm4 0v0.003906h-0.003906c0.01094 7.8e-5 0.003906-0.007106 0.003906-0.003906z" fill="#363636"/>
</svg>
