<svg width="16" height="16" xmlns="http://www.w3.org/2000/svg"><g fill="#363636"><path d="M6.834 4L3.5 9h3l-.75 3h.416L9.5 7h-3l.75-3z"/><g fill-rule="evenodd" paint-order="stroke fill markers"><path d="M2 3C.892 3 0 3.892 0 5v6c0 1.108.892 2 2 2h9c1.108 0 2-.892 2-2V5c0-1.108-.892-2-2-2zm0 1h9c.554 0 1 .446 1 1v6c0 .554-.446 1-1 1H2c-.554 0-1-.446-1-1V5c0-.554.446-1 1-1z"/><path d="M2.518 5A.53.53 0 002 5.545v4.91c0 .303.23.545.518.545h1.964A.53.53 0 005 10.455V10H3.5a1 1 0 01-.832-1.555l2.185-3.277A.5.5 0 004.483 5H2.517zM14 6v4a2 2 0 002-2 2 2 0 00-2-2z"/></g></g></svg>