<svg width="16" height="16" xmlns="http://www.w3.org/2000/svg"><path d="M2.52 5a.531.531 0 00-.52.545v4.91c0 .303.232.545.52.545h2.449l.25-1h-1.72a1 1 0 01-.831-1.555L4.965 5z" fill="#363636" paint-order="stroke fill markers"/><g fill="#363636"><path d="M6.834 4L3.5 9h3l-.75 3h.416L9.5 7h-3l.75-3z"/><path d="M2 3C.892 3 0 3.892 0 5v6c0 1.108.892 2 2 2h9c1.108 0 2-.892 2-2V5c0-1.108-.892-2-2-2zm0 1h9c.554 0 1 .446 1 1v6c0 .554-.446 1-1 1H2c-.554 0-1-.446-1-1V5c0-.554.446-1 1-1zM14 6v4a2 2 0 002-2 2 2 0 00-2-2z" fill-rule="evenodd" paint-order="stroke fill markers"/></g></svg>