<svg width="16" height="16" xmlns="http://www.w3.org/2000/svg"><g fill-rule="evenodd" paint-order="stroke fill markers"><path d="M2 3C.892 3 0 3.892 0 5v6c0 1.108.892 2 2 2h5.264a4.5 4.5 0 01-.23-1H2c-.554 0-1-.446-1-1V5c0-.554.446-1 1-1h9c.554 0 1 .446 1 1v2.031a4.5 4.5 0 011 .233V5c0-1.108-.892-2-2-2H2z" fill="#363636"/><rect x="2" y="5" width="1" height="6" rx="0" ry=".546" fill="#f55" stroke-width=".333"/><path d="M14 6v1.76a4.5 4.5 0 011.457 1.607A2 2 0 0016 8a2 2 0 00-2-2z" fill="#363636"/></g><path d="M11.5 8A3.5 3.5 0 008 11.5a3.5 3.5 0 003.5 3.5 3.5 3.5 0 003.5-3.5A3.5 3.5 0 0011.5 8zM11 9h1v3h-1V9zm0 4h1v1h-1v-1z" fill="#ff7f2a"/></svg>