<svg width="16" height="16" xmlns="http://www.w3.org/2000/svg"><path d="M7.5 1c-.277 0-.5.223-.5.5v4.875l-1.719-1.5c-.312-.273-.757-.22-1.03.094a.753.753 0 00.062 1.062L6.563 8l-2.25 1.969a.753.753 0 00-.063 1.062c.274.313.719.367 1.031.094l1.72-1.5V14.5c0 .277.222.5.5.5.282 0 .437-.02.655-.188l3.532-3.156a.78.78 0 00.218-.375.745.745 0 00.032-.281.723.723 0 00-.032-.156.78.78 0 00-.218-.375l-2.813-2.47 2.813-2.468a.78.78 0 00.218-.375.712.712 0 000-.437.78.78 0 00-.218-.375L8.156 1.187C7.957 1.027 7.729 1 7.5 1zM8 3.063l2.094 1.875L8 6.75zM8 9.25l2.094 1.813L8 12.938z" color="#bebebe" fill="#363636" opacity=".35" overflow="visible"/></svg>