<svg width="16" height="16" version="1.1" xmlns="http://www.w3.org/2000/svg">
 <path d="m7.4805 1.002a0.50005 0.50005 0 0 0-0.18555 0.042969 0.50005 0.50005 0 0 0-0.29492 0.45508v5.2852l-2.7344-1.709a0.5 0.5 0 0 0-0.68945 0.1582 0.5 0.5 0 0 0 0.1582 0.68945l3.2656 2.041v0.070312l-3.2656 2.041a0.5 0.5 0 0 0-0.1582 0.68945 0.5 0.5 0 0 0 0.68945 0.1582l2.7344-1.709v5.2852a0.50005 0.50005 0 0 0 0.83203 0.37305l1.3652-1.2129a3.4998 3.4998 0 0 1-0.19727-1.1562 3.4998 3.4998 0 0 1 0-0.005859l-1 0.88867v-4.7969l2.1328 1.332a3.4998 3.4998 0 0 1 0.91406-0.60742l-2.1035-1.3145 3.3223-2.0762a0.50005 0.50005 0 0 0 0.066406-0.79688l-4.5-4a0.50005 0.50005 0 0 0-0.35156-0.125zm0.51953 1.6113 3.1699 2.8164-3.1699 1.9805v-4.7969z" fill="#363636"/>
 <path d="m15 12.502a2.5 2.5 0 0 1-5 0 2.5 2.5 0 1 1 5 0z" fill="#363636"/>
</svg>
