<svg width="16" height="16" version="1.1" xmlns="http://www.w3.org/2000/svg">
 <path d="m12.5 9c-1.933 0-3.5 1.567-3.5 3.5s1.567 3.5 3.5 3.5 3.5-1.567 3.5-3.5-1.567-3.5-3.5-3.5zm-1.4141 1.5859c0.12781 0 0.25558 0.04855 0.35352 0.14648l1.0605 1.0605 1.0605-1.0605c0.19587-0.19587 0.51116-0.19587 0.70703 0s0.19587 0.51116 0 0.70703l-1.0605 1.0605 1.0605 1.0605c0.19587 0.19587 0.19587 0.51116 0 0.70703s-0.51116 0.19587-0.70703 0l-1.0605-1.0605-1.0605 1.0605c-0.19587 0.19587-0.51116 0.19587-0.70703 0s-0.19587-0.51116 0-0.70703l1.0605-1.0605-1.0605-1.0605c-0.19587-0.19587-0.19587-0.51116 0-0.70703 0.09793-0.09793 0.22571-0.14648 0.35352-0.14648z" fill="#363636"/>
 <path d="m7.4805 1.002a0.50005 0.50005 0 0 0-0.18555 0.042969 0.50005 0.50005 0 0 0-0.29492 0.45508v5.2852l-2.7344-1.709a0.5 0.5 0 0 0-0.68945 0.1582 0.5 0.5 0 0 0 0.1582 0.68945l3.2656 2.041v0.070312l-3.2656 2.041a0.5 0.5 0 0 0-0.1582 0.68945 0.5 0.5 0 0 0 0.68945 0.1582l2.7344-1.709v5.2852a0.50005 0.50005 0 0 0 0.83203 0.37305l0.57227-0.50977a4.5 4.5 0 0 1-0.32227-1.0508l-0.082031 0.074219v-0.88672-3.9102l1.2695 0.79297a4.5 4.5 0 0 1 0.80859-0.67383l-1.1348-0.70898 3.3223-2.0762a0.50005 0.50005 0 0 0 0.066406-0.79688l-4.5-4a0.50005 0.50005 0 0 0-0.35156-0.125zm0.51953 1.6113 3.1699 2.8164-3.1699 1.9805v-4.7969z" fill="#363636"/>
</svg>
