<svg width="16px" height="16px" version="1.1" viewBox="0 0 16 16" xmlns="http://www.w3.org/2000/svg">
 <path d="m7.4805 1.002a0.50005 0.50005 0 0 0-0.18555 0.042969 0.50005 0.50005 0 0 0-0.29492 0.45508v4.5h1v-3.3867l3.1699 2.8164-0.91211 0.57031h1.8867l0.12109-0.076172a0.50005 0.50005 0 0 0 0.066406-0.79688l-4.5-4a0.50005 0.50005 0 0 0-0.35156-0.125zm-3.3965 4.0039a0.5 0.5 0 0 0-0.50781 0.22852 0.5 0.5 0 0 0 0.1582 0.68945l0.12109 0.076172h1.8887l-1.4785-0.92383a0.5 0.5 0 0 0-0.18164-0.070312zm-0.22852 4.9941-0.12109 0.076172a0.5 0.5 0 0 0-0.1582 0.68945 0.5 0.5 0 0 0 0.68945 0.1582l1.4785-0.92383h-1.8887zm3.1445 0v4.5a0.50005 0.50005 0 0 0 0.83203 0.37305l4.5-4a0.50005 0.50005 0 0 0-0.066406-0.79688l-0.12109-0.076172h-1.8867l0.91211 0.57031-3.1699 2.8164v-3.3867h-1z" fill="#363636" opacity=".35"/>
 <circle cx="8" cy="8" r="1" fill="#363636" stop-color="#000000" stroke-linecap="round" stroke-linejoin="round" stroke-width="2"/>
 <circle cx="4" cy="8" r="1" fill="#363636" stop-color="#000000" stroke-linecap="round" stroke-linejoin="round" stroke-width="2"/>
 <circle cx="12" cy="8" r="1" fill="#363636" stop-color="#000000" stroke-linecap="round" stroke-linejoin="round" stroke-width="2"/>
</svg>
