<svg width="16" height="16" version="1" xmlns="http://www.w3.org/2000/svg"><g fill="#363636"><path d="M11.016 4c1.543 1.051 2.416 2.367 2.416 2.367a1 1 0 01.105.91 1 1 0 01.413.225c-.004-.004.05.034.05.033V4h-2.984zM14 11.346c-.428.238-.879.456-1.35.654H14v-.654z" opacity=".35"/><path d="M6.915 3.728c-.089.004-.147.01-.236.017v.002c-.757.069-1.492.302-2.166.613-.674.311-1.288.7-1.808 1.081C1.664 6.203 1 6.93 1 6.93s.715 2.3 2.516 3.883a6.495 6.495 0 001.092.773 5.411 5.411 0 002.07.655c.2.022.374.036.586.036 2.197 0 6.073-1.272 7.736-2.85-.244-.28-1.431-.92-1.722-1.183-1.748 1.71-3.555 3.156-6.052 3.156-.2 0-.363-.016-.547-.042a3.9 3.9 0 01-1.515-.554 4.988 4.988 0 01-1.135-.984 6.683 6.683 0 01-.561-.75v-.002a8.028 8.028 0 01-.419-.731v-.002a8.611 8.611 0 01-.285-.626v-.002a6.703 6.703 0 01-.218-.604 5.16 5.16 0 01.588-.735c.13-.139.281-.287.454-.438l.002-.002c.04-.034.092-.067.133-.101.689-.569 1.668-1.137 2.956-1.249.088-.006.146-.013.236-.016 2.476-.088 4.1 2.412 4.1 2.412S9.264 9.734 7.383 9.734c-.271 0-.486-.05-.703-.133a2.112 2.112 0 01-.45-.239 2.526 2.526 0 01-.372-.316 3.537 3.537 0 01-.543-.74 4.382 4.382 0 01-.389-.923s.785-1.026 1.752-.894h.002c.963.133 1.129.615 1.709 1.71l1.286-1.232s-.94-1.399-2.526-1.399a4.38 4.38 0 00-1.711.382 5.13 5.13 0 00-.938.546c-.516.376-.801.724-.801.724s.094.382.334.885c.028.06.069.128.101.19.15.29.337.6.587.9.153.183.324.36.518.52.388.321.863.579 1.44.695.217.044.418.068.664.068 2.683 0 5.26-3.551 5.26-3.551s-2.243-3.33-5.687-3.199z"/><path d="M8 2c-.554 0-1 .446-1 1v1.111L7.375 4 8 4.18V3h7v10H8v-1H7v1c0 .554.446 1 1 1h7c.554 0 1-.446 1-1V3c0-.554-.446-1-1-1H8z"/></g></svg>