<svg width="16" height="16" xmlns="http://www.w3.org/2000/svg"><g fill="#363636" fill-rule="evenodd"><path color="#000" d="M8.5 1a.5.5 0 100 1h3.793L7.5 6.793 2.854 2.146a.5.5 0 10-.707.708L7.5 8.207l5.5-5.5V6.5a.5.5 0 101 0V1z" font-family="sans-serif" font-weight="400" overflow="visible" style="line-height:normal;font-variant-ligatures:normal;font-variant-position:normal;font-variant-caps:normal;font-variant-numeric:normal;font-variant-alternates:normal;font-feature-settings:normal;text-indent:0;text-align:start;text-decoration-line:none;text-decoration-style:solid;text-decoration-color:#000;text-transform:none;text-orientation:mixed;shape-padding:0;isolation:auto;mix-blend-mode:normal"/><path d="M1 14c0 1 1 1 1 1h2s1 0 1-1v-.5C5 12 7 12 7 12h2s2 0 2 1.5v.5c0 1 1 1 1 1h2s1 0 1-1v-1c0-3.5-5.5-3-5.5-3h-3S1 9.5 1 13z" opacity=".4"/></g></svg>