<svg width="16px" height="16px" version="1.1" viewBox="0 0 16 16" xmlns="http://www.w3.org/2000/svg">
 <path d="m13.533 2.5078c-0.032904-0.0010136-0.06638-3.274e-4 -0.099609 0.0019531-0.2615 0.018123-0.5113 0.14292-0.68555 0.33984l-6.1875 7.0723-2.2617-3.0137c-0.33371-0.4467-0.95407-0.5341-1.4023-0.19922-0.20959 0.15876-0.3486 0.39538-0.38477 0.65625l-0.0019532 0.0019531v0.0039063c-0.03853 0.25943 0.031048 0.528 0.18945 0.73828h0.0019531l2.998 3.998 0.0019531 0.001953c0.18503 0.24184 0.46243 0.38812 0.76172 0.39844 0.29907 0.010404 0.59236-0.11467 0.78906-0.33984l7-8c0.36618-0.42151 0.3253-1.0429-0.091797-1.4121-0.17697-0.15399-0.39662-0.24095-0.62695-0.24805z" fill="#363636"/>
</svg>
