<svg width="16" height="16" xmlns="http://www.w3.org/2000/svg"><g color="#000" fill="#363636" font-family="sans-serif" font-weight="400"><path d="M3.479 1A2.485 2.485 0 001 3.479v9.042A2.485 2.485 0 003.479 15h9.044A2.483 2.483 0 0015 12.521V3.479A2.483 2.483 0 0012.523 1zm0 .992h9.044c.833 0 1.487.654 1.487 1.487v9.042c0 .833-.654 1.489-1.487 1.489H3.479a1.474 1.474 0 01-1.487-1.489V3.479c0-.833.654-1.487 1.487-1.487z" overflow="visible" style="line-height:normal;font-variant-ligatures:normal;font-variant-position:normal;font-variant-caps:normal;font-variant-numeric:normal;font-variant-alternates:normal;font-feature-settings:normal;text-indent:0;text-align:start;text-decoration-line:none;text-decoration-style:solid;text-decoration-color:#000;text-transform:none;text-orientation:mixed;shape-padding:0;isolation:auto;mix-blend-mode:normal;marker:none"/><path d="M3.898 7.053v2h8.13v-2h-7.13z" overflow="visible" style="line-height:normal;font-variant-ligatures:normal;font-variant-position:normal;font-variant-caps:normal;font-variant-numeric:normal;font-variant-alternates:normal;font-feature-settings:normal;text-indent:0;text-align:start;text-decoration-line:none;text-decoration-style:solid;text-decoration-color:#000;text-transform:none;text-orientation:mixed;shape-padding:0;isolation:auto;mix-blend-mode:normal;marker:none"/></g></svg>