<svg height="16" width="16" xmlns="http://www.w3.org/2000/svg"><path color="#000" d="M3.5 1A2.506 2.506 0 001 3.5v9C1 13.876 2.124 15 3.5 15h9c1.377 0 2.5-1.124 2.5-2.5v-9C15 2.124 13.877 1 12.5 1zm0 1h9c.84 0 1.5.66 1.5 1.5v9c0 .84-.66 1.5-1.5 1.5h-9c-.84 0-1.5-.66-1.5-1.5v-9C2 2.66 2.66 2 3.5 2zM2 8.875l5.25 4.5L14 4.438l-2-1.813-5.218 6.594-3.063-2.656z" fill="#363636" font-family="Sans" font-weight="400" overflow="visible" style="line-height:normal;-inkscape-font-specification:Sans;text-indent:0;text-align:start;text-decoration-line:none;text-transform:none;marker:none"/></svg>