<svg width="16" height="16" xmlns="http://www.w3.org/2000/svg"><path color="#000" d="M0 15v1h15v-1z" fill="#363636" fill-rule="evenodd" font-family="sans-serif" font-weight="400" overflow="visible" style="line-height:normal;font-variant-ligatures:normal;font-variant-position:normal;font-variant-caps:normal;font-variant-numeric:normal;font-variant-alternates:normal;font-feature-settings:normal;text-indent:0;text-align:start;text-decoration-line:none;text-decoration-style:solid;text-decoration-color:#000;text-transform:none;text-orientation:mixed;shape-padding:0;isolation:auto;mix-blend-mode:normal"/><path d="M7.5 6c-.277 0-.5.223-.5.5V9H4l3.5 4.5L11.063 9H8V6.5a.499.499 0 00-.5-.5z" fill="#363636"/><path class="warning" d="M.5 1a.5.5 0 100 1h1a.5.5 0 100-1zm2.551 0c.252 2.247 2.135 4 4.45 4 2.313 0 4.196-1.753 4.448-4zm10.45 0a.5.5 0 100 1h1a.5.5 0 100-1zm-1.759 3.242a.499.499 0 00-.354.854l.708.707a.498.498 0 00.707 0 .499.499 0 000-.707l-.707-.707a.501.501 0 00-.354-.147zm-8.58.01a.497.497 0 00-.258.137l-.707.707a.499.499 0 000 .707.5.5 0 00.354.148.5.5 0 00.353-.148l.708-.707a.499.499 0 00-.45-.844z" fill="#363636"/></svg>