<svg width="16" height="16" xmlns="http://www.w3.org/2000/svg"><g fill="#363636"><path color="#000" d="M0 15v1h15v-1z" fill-rule="evenodd" font-family="sans-serif" font-weight="400" overflow="visible" style="line-height:normal;font-variant-ligatures:normal;font-variant-position:normal;font-variant-caps:normal;font-variant-numeric:normal;font-variant-alternates:normal;font-feature-settings:normal;text-indent:0;text-align:start;text-decoration-line:none;text-decoration-style:solid;text-decoration-color:#000;text-transform:none;text-orientation:mixed;shape-padding:0;isolation:auto;mix-blend-mode:normal"/><path d="M2.551 9.049a.5.5 0 00-.353.148.499.499 0 000 .707l.707.707a.498.498 0 00.707 0 .499.499 0 000-.707l-.707-.707a.5.5 0 00-.354-.148zm9.898.002a.498.498 0 00-.353.146l-.707.707a.5.5 0 10.707.707l.707-.707a.499.499 0 00-.354-.853zM7.5 10c-2.314 0-4.197 1.753-4.449 4h8.898c-.251-2.247-2.135-4-4.449-4zm-7 3a.5.5 0 100 1h1a.5.5 0 100-1zm13 0a.5.5 0 100 1h1a.5.5 0 100-1zM7.5 1.5L4 6h3v2.5a.5.5 0 101 0V6h3z"/></g></svg>