<svg width="16" height="16" xmlns="http://www.w3.org/2000/svg"><path d="M7.25 1a.25.25 0 00-.25.25v1.5c0 .139.112.25.25.25h.5A.25.25 0 008 2.75v-1.5A.25.25 0 007.75 1zM2.551 2.947a.25.25 0 00-.178.073l-.353.353a.25.25 0 000 .354l1.06 1.06a.25.25 0 00.354 0l.353-.353a.25.25 0 000-.354l-1.06-1.06a.246.246 0 00-.176-.073zm9.898 0a.246.246 0 00-.175.073l-1.06 1.06a.25.25 0 000 .354l.353.353a.25.25 0 00.353 0l1.06-1.06a.25.25 0 000-.354l-.353-.353a.25.25 0 00-.178-.073zM7.5 5A3.5 3.5 0 004 8.5 3.5 3.5 0 007.5 12 3.5 3.5 0 0011 8.5 3.5 3.5 0 007.5 5zm0 1A2.5 2.5 0 0110 8.5 2.5 2.5 0 017.5 11 2.5 2.5 0 015 8.5 2.5 2.5 0 017.5 6zM.25 8a.25.25 0 00-.25.25v.5c0 .139.112.25.25.25h1.5A.25.25 0 002 8.75v-.5A.25.25 0 001.75 8zm13 0a.25.25 0 00-.25.25v.5c0 .139.112.25.25.25h1.5a.25.25 0 00.25-.25v-.5a.25.25 0 00-.25-.25zm-9.992 4.139a.252.252 0 00-.178.074l-1.06 1.06a.25.25 0 000 .354l.353.353a.25.25 0 00.354 0l1.06-1.06a.25.25 0 000-.354l-.353-.353a.248.248 0 00-.176-.074zm8.484 0a.248.248 0 00-.175.074l-.354.353a.25.25 0 000 .354l1.06 1.06a.25.25 0 00.354 0l.354-.353a.25.25 0 000-.354l-1.06-1.06a.252.252 0 00-.179-.074zM7.25 14a.25.25 0 00-.25.25v1.5c0 .139.112.25.25.25h.5a.25.25 0 00.25-.25v-1.5a.25.25 0 00-.25-.25z" fill="#363636" overflow="visible" style="isolation:auto;mix-blend-mode:normal"/><path d="M6 5.342A3.5 3.5 0 004 8.5a3.5 3.5 0 002 3.158V5.342z" fill="#363636" fill-rule="evenodd" paint-order="stroke fill markers"/></svg>