<svg width="16" height="16" version="1.1" xmlns="http://www.w3.org/2000/svg">
  <path
     d="M 7.25,1 A 0.25,0.25 0 0 0 7,1.25 v 1.5 C 7,2.889 7.112,3 7.25,3 h 0.5 A 0.25,0.25 0 0 0 8,2.75 V 1.25 A 0.25,0.25 0 0 0 7.75,1 Z M 2.551,2.947 A 0.25,0.25 0 0 0 2.373,3.02 L 2.02,3.373 a 0.25,0.25 0 0 0 0,0.354 l 1.06,1.06 a 0.25,0.25 0 0 0 0.354,0 L 3.787,4.434 a 0.25,0.25 0 0 0 0,-0.354 L 2.727,3.02 A 0.246,0.246 0 0 0 2.551,2.947 Z m 9.898,0 A 0.246,0.246 0 0 0 12.274,3.02 l -1.06,1.06 a 0.25,0.25 0 0 0 0,0.354 l 0.353,0.353 a 0.25,0.25 0 0 0 0.353,0 l 1.06,-1.06 a 0.25,0.25 0 0 0 0,-0.354 L 12.627,3.02 A 0.25,0.25 0 0 0 12.449,2.947 Z M 7.5,5 A 3.5,3.5 0 0 0 4,8.5 3.5,3.5 0 0 0 7.5,12 3.5,3.5 0 0 0 11,8.5 3.5,3.5 0 0 0 7.5,5 Z m 0,1 A 2.5,2.5 0 0 1 10,8.5 2.5,2.5 0 0 1 7.5,11 2.5,2.5 0 0 1 5,8.5 2.5,2.5 0 0 1 7.5,6 Z M 0.25,8 A 0.25,0.25 0 0 0 0,8.25 v 0.5 C 0,8.889 0.112,9 0.25,9 h 1.5 A 0.25,0.25 0 0 0 2,8.75 V 8.25 A 0.25,0.25 0 0 0 1.75,8 Z m 13,0 A 0.25,0.25 0 0 0 13,8.25 v 0.5 C 13,8.889 13.112,9 13.25,9 h 1.5 A 0.25,0.25 0 0 0 15,8.75 V 8.25 A 0.25,0.25 0 0 0 14.75,8 Z M 3.258,12.139 A 0.252,0.252 0 0 0 3.08,12.213 l -1.06,1.06 a 0.25,0.25 0 0 0 0,0.354 l 0.353,0.353 a 0.25,0.25 0 0 0 0.354,0 l 1.06,-1.06 a 0.25,0.25 0 0 0 0,-0.354 L 3.434,12.213 A 0.248,0.248 0 0 0 3.258,12.139 Z m 8.484,0 a 0.248,0.248 0 0 0 -0.175,0.074 l -0.354,0.353 a 0.25,0.25 0 0 0 0,0.354 l 1.06,1.06 a 0.25,0.25 0 0 0 0.354,0 l 0.354,-0.353 a 0.25,0.25 0 0 0 0,-0.354 l -1.06,-1.06 A 0.252,0.252 0 0 0 11.742,12.139 Z M 7.25,14 A 0.25,0.25 0 0 0 7,14.25 v 1.5 C 7,15.889 7.112,16 7.25,16 h 0.5 A 0.25,0.25 0 0 0 8,15.75 v -1.5 A 0.25,0.25 0 0 0 7.75,14 Z"
     fill="#363636"
     overflow="visible"
     style="opacity:0.35;isolation:auto;mix-blend-mode:normal" />
</svg>
