<svg width="16px" height="16px" version="1.1" viewBox="0 0 16 16" xmlns="http://www.w3.org/2000/svg">
 <path d="m1 9v4c0 1.108 0.892 2 2 2h10c1.108 0 2-0.892 2-2v-4h-1v4c0 0.554-0.446 1-1 1h-10c-0.554 0-1-0.446-1-1v-4z" fill="#363636"/>
 <path d="m8 1c-0.277 0-0.5 0.223-0.5 0.5v8.793l-3.3887-3.3887c-0.097934-0.097934-0.22571-0.14844-0.35352-0.14844s-0.25558 0.050503-0.35352 0.14844c-0.19587 0.19587-0.19587 0.51116 0 0.70703l4.2422 4.2422c0.022594 0.022593 0.047627 0.042611 0.074219 0.060546 0.013222 0.008958 0.027191 0.015886 0.041016 0.023438 0.016725 0.009101 0.032957 0.018212 0.050781 0.025391 0.027704 0.011158 0.055999 0.021248 0.085938 0.027343 0.033433 0.006931 0.067567 0.009766 0.10156 0.009766s0.068129-0.002835 0.10156-0.009766c0.0041001-8.34e-4 0.0076564-0.002972 0.011719-0.003906 0.025269-0.005894 0.049921-0.013549 0.074219-0.023437 0.017824-0.007179 0.034056-0.01629 0.050781-0.025391 0.013824-0.007552 0.027794-0.01448 0.041016-0.023438 0.026592-0.017935 0.051625-0.037953 0.074219-0.060546l4.2422-4.2422c0.19587-0.19587 0.19587-0.51116 0-0.70703-0.19587-0.19587-0.51116-0.19587-0.70703 0l-3.3887 3.3887v-8.793c0-0.277-0.223-0.5-0.5-0.5z" fill="#363636"/>
</svg>
