<svg width="16" height="16" version="1.1" xmlns="http://www.w3.org/2000/svg">
 <path d="m7.9999 2c-0.47486 0-0.85714 0.38229-0.85714 0.85714 0 0.00931-2.91e-4 0.017548 0 0.026786-1.4811 0.38406-2.5714 1.7255-2.5714 3.3482 0 0.01825-2.744e-4 0.03539 0 0.05357 0 1.7188 5.922e-4 5.1429-1.5268 5.1429-0.10176 0-0.1875 0.09557-0.1875 0.21429v0.42857c0 0.11871 0.085745 0.21428 0.1875 0.21428h9.9107c0.10176 0 0.1875-0.09557 0.1875-0.21428v-0.42857c0-0.11871-0.08574-0.21429-0.1875-0.21429-1.5334 0-1.5268-3.4244-1.5268-5.1429 2.74e-4 -0.01818 0-0.03532 0-0.05357 0-1.6227-1.0903-2.9642-2.5714-3.3482 2.91e-4 -0.00924 0-0.017475 0-0.026786 0-0.47486-0.38229-0.85714-0.85714-0.85714zm-1.6071 11.143c0.2342 0.50093 0.85924 0.85714 1.6071 0.85714 0.7479 0 1.3729-0.35621 1.6071-0.85714h-3.2143z" color="#363636" color-rendering="auto" fill="#363636" image-rendering="auto" opacity=".35" shape-rendering="auto" solid-color="#000000" style="isolation:auto;mix-blend-mode:normal"/>
</svg>
