<svg xmlns="http://www.w3.org/2000/svg" width="16" height="16" version="1.1" id="svg7"><defs id="defs3"><style id="current-color-scheme" type="text/css"/></defs><path d="M10.213 1.006a2.998 2.998 0 00-2.816 1.506 2.998 2.998 0 104.092-1.115v-.002a2.985 2.985 0 00-1.276-.39zm-6.36 2a2 2 0 10.293 3.989 2 2 0 00-.292-3.99zm-1.464 5a1.5 1.5 0 10.855.191 1.494 1.494 0 00-.855-.191zm9.465 0a1.999 1.999 0 10.291 3.987 1.999 1.999 0 00-.291-3.987zm-3.256 3.996a1.5 1.5 0 101.242 2.17 1.5 1.5 0 00-.668-2.012 1.497 1.497 0 00-.574-.158zm-4.672 1.002a1 1 0 10.57.127.993.993 0 00-.57-.127z" id="path5" fill="#363636" fill-opacity="1"/></svg>