<svg width="16px" height="16px" version="1.1" viewBox="0 0 16 16" xmlns="http://www.w3.org/2000/svg">
 <path d="m10.965 0.96289c-0.12781-9e-8 -0.25558 0.050503-0.35352 0.14844-0.19587 0.19587-0.19587 0.51116 0 0.70703l2.6816 2.6816h-7.793c-0.277 0-0.5 0.223-0.5 0.5s0.223 0.5 0.5 0.5h7.793l-2.6816 2.6816c-0.19587 0.19587-0.19587 0.51116 0 0.70703 0.19587 0.19587 0.51116 0.19587 0.70703 0l3.5352-3.5352c0.19587-0.19587 0.19587-0.51116 0-0.70703l-3.5352-3.5352c-0.097934-0.097934-0.22571-0.14844-0.35352-0.14844z" fill="#363636"/>
 <path d="m5.0352 15.037c0.12781 1e-6 0.25558-0.0505 0.35352-0.14844 0.19587-0.19587 0.19587-0.51116 0-0.70703l-2.6816-2.6816h7.793c0.277 0 0.5-0.223 0.5-0.5s-0.223-0.5-0.5-0.5h-7.793l2.6816-2.6816c0.19587-0.19587 0.19587-0.51116 0-0.70703-0.19587-0.19587-0.51116-0.19587-0.70703 0l-3.5352 3.5352c-0.19587 0.19587-0.19587 0.51116 0 0.70703l3.5352 3.5352c0.09793 0.09793 0.22571 0.14844 0.35352 0.14844z" fill="#363636"/>
</svg>
