<svg width="16px" height="16px" version="1.1" viewBox="0 0 16 16" xmlns="http://www.w3.org/2000/svg">
 <path d="m8 5.5a0.5 0.5 0 0 0-0.5 0.5 0.5 0.5 0 0 0 0.5 0.5 0.5 0.5 0 0 0 0.5-0.5 0.5 0.5 0 0 0-0.5-0.5zm-3.9238 1.6113a0.5 0.5 0 0 0-0.31836 0.14648 0.5 0.5 0 0 0 0 0.70703 0.5 0.5 0 0 0 0.70703 0 0.5 0.5 0 0 0 0-0.70703 0.5 0.5 0 0 0-0.38867-0.14648zm7.7773 0a0.5 0.5 0 0 0-0.31836 0.14648 0.5 0.5 0 0 0 0 0.70703 0.5 0.5 0 0 0 0.70703 0 0.5 0.5 0 0 0 0-0.70703 0.5 0.5 0 0 0-0.38867-0.14648zm-9.3535 3.8887a0.5 0.5 0 0 0-0.5 0.5 0.5 0.5 0 0 0 0.5 0.5 0.5 0.5 0 0 0 0.5-0.5 0.5 0.5 0 0 0-0.5-0.5zm2.5 0v1h6v-1h-6zm8.5 0a0.5 0.5 0 0 0-0.5 0.5 0.5 0.5 0 0 0 0.5 0.5 0.5 0.5 0 0 0 0.5-0.5 0.5 0.5 0 0 0-0.5-0.5z" fill="#363636" opacity=".35" stroke-linecap="round" stroke-linejoin="round" stroke-width="2"/>
 <rect transform="rotate(45)" x="1.3137" y="-.5" width="20" height="1" rx=".5" ry=".5" fill="#363636" stroke-linecap="round" stroke-linejoin="round" stroke-width=".48307" style="paint-order:markers stroke fill"/>
</svg>
