<svg width="16" height="16" xmlns="http://www.w3.org/2000/svg"><path d="M8 1a1 1 0 00-.994 1.1A4.988 4.988 0 003 7v4.5l-2 2v.5h14v-.5l-2-2V7.87a4 4 0 01-1 .126v3.926L13 13H3l1-1.078V7a4 4 0 014-4c.044.001.087.003.13.006a4 4 0 01.741-1.492A1 1 0 008 1zM6.27 15A2 2 0 008 16a2 2 0 001.728-1z" fill="#363636" stroke-linecap="round" stroke-width="3"/><path d="M15 4a3 3 0 01-6 0 3 3 0 116 0z" color="#bebebe" fill="#363636" opacity=".35" overflow="visible" stroke-width="1.2" style="isolation:auto;mix-blend-mode:normal"/></svg>