<svg width="16.001" height="16" xmlns="http://www.w3.org/2000/svg"><g fill="#363636"><path d="M15.343 4.926l.707.707-.354.354a2.999 2.999 0 000 4.242l.354.353-.707.707-.354-.353a4 4 0 010-5.656z" color="#000" font-family="sans-serif" font-weight="400" overflow="visible" style="font-feature-settings:normal;font-variant-alternates:normal;font-variant-caps:normal;font-variant-ligatures:normal;font-variant-numeric:normal;font-variant-position:normal;isolation:auto;mix-blend-mode:normal;shape-padding:0;text-decoration-color:#000;text-decoration-line:none;text-decoration-style:solid;text-indent:0;text-orientation:mixed;text-transform:none;white-space:normal"/><path d="M13.221 2.805l.707.707-.353.353a5.999 5.999 0 000 8.485l.353.353-.707.707-.353-.353a7 7 0 010-9.899z" color="#000" font-family="sans-serif" font-weight="400" overflow="visible" style="font-feature-settings:normal;font-variant-alternates:normal;font-variant-caps:normal;font-variant-ligatures:normal;font-variant-numeric:normal;font-variant-position:normal;isolation:auto;mix-blend-mode:normal;shape-padding:0;text-decoration-color:#000;text-decoration-line:none;text-decoration-style:solid;text-indent:0;text-orientation:mixed;text-transform:none;white-space:normal"/><path d="M4.5 0A2.495 2.495 0 002 2.5v6C2 9.885 3.115 11 4.5 11S7 9.885 7 8.5v-6C7 1.115 5.885 0 4.5 0zM0 7v1.5c0 2.321 1.748 4.199 4 4.45V15H2v1h5v-1H5v-2.05c2.252-.251 4-2.129 4-4.45V7H8v1.5C8 10.439 6.439 12 4.5 12S1 10.439 1 8.5V7H0z" stroke-linecap="square" stroke-width="2"/></g></svg>