<svg width="16" height="16" version="1.1" xmlns="http://www.w3.org/2000/svg">
 <defs>
  <style id="current-color-scheme" type="text/css">.ColorScheme-Text {
        color:#363636;
      }</style>
 </defs>
 <path class="ColorScheme-Text" fill="currentColor" d="m8 2.51e-6a2.495 2.495 0 0 0-2.5 2.5v6c0 1.385 1.115 2.5 2.5 2.5s2.5-1.115 2.5-2.5v-6c0-1.385-1.115-2.5-2.5-2.5zm0 1c0.831 0 1.5 0.669 1.5 1.5v6c0 0.831-0.669 1.5-1.5 1.5s-1.5-0.669-1.5-1.5v-6c0-0.831 0.669-1.5 1.5-1.5zm-4.5 6v1.5c0 2.321 1.748 4.1982 4 4.4492v2.0508h-2v1h5v-1h-2v-2.0508c2.252-0.251 4-2.1282 4-4.4492v-1.5h-1v1.5c0 1.939-1.561 3.5-3.5 3.5s-3.5-1.561-3.5-3.5v-1.5z" opacity=".35"/>
 <rect y="7" width="16" height="2" rx="0" ry="0" class="ColorScheme-Text" fill="currentColor"/>
</svg>
