<svg width="16" height="16" version="1.1" xmlns="http://www.w3.org/2000/svg">
 <g fill="#363636">
  <path d="m15.343 4.926 0.707 0.707-0.354 0.354a2.999 2.999 0 0 0 0 4.242l0.354 0.353-0.707 0.707-0.354-0.353a4 4 0 0 1 0-5.656z"/>
  <path d="m13.221 2.805 0.707 0.707-0.353 0.353a5.999 5.999 0 0 0 0 8.485l0.353 0.353-0.707 0.707-0.353-0.353a7 7 0 0 1 0-9.899z"/>
  <path d="m4.5 0a2.495 2.495 0 0 0-2.5 2.5v6c0 1.385 1.115 2.5 2.5 2.5s2.5-1.115 2.5-2.5v-6c0-1.385-1.115-2.5-2.5-2.5zm-4.5 7v1.5c0 2.321 1.748 4.199 4 4.45v2.05h-2v1h5v-1h-2v-2.05c2.252-0.251 4-2.129 4-4.45v-1.5h-1v1.5c0 1.939-1.561 3.5-3.5 3.5s-3.5-1.561-3.5-3.5v-1.5z"/>
 </g>
</svg>
