<svg width="16.007" height="16" version="1.1">
 <g transform="translate(-502 -190)" fill="#363636">
  <path d="m509.32 192c-0.20188 0.0205-0.39825 0.0539-0.59375 0.0937-0.39253 0.0803-0.76429 0.1912-1.125 0.34375-1.7239 0.72916-3.0366 2.248-3.5 4.0938 0.012 0.0131 0.0174 0.0165 0.0312 0.0312 0.32346 0.34543 1.2154 0.83514 1.8438 1.0625 0.34366 0.12436 0.98318 0.31312 1.4375 0.40625 0.45434 0.093 0.76351 0.18389 0.71875 0.1875-0.0448 4e-3 -0.23549 0.13088-0.4375 0.3125-0.38532 0.34642-0.58347 0.67047-0.75 1.2188-0.0913 0.3002-0.0879 0.36875 0.0312 0.53125 0.0718 0.0979 0.39955 0.33367 0.71875 0.53125 0.31918 0.19759 0.67938 0.49597 0.8125 0.625 0.49594 0.48069 0.8125 1.3213 0.8125 2.1562 0 0.21366 0.0156 0.35764 0.0312 0.40625 0.0406 4e-3 0.0843-4e-3 0.125 0 0.0918-0.0354 0.2187-0.078 0.4375-0.1875 1.8333-0.91773 2.7076-2.1467 2.625-3.7188-0.0658-1.2536-0.6783-1.6822-3.0625-2.1875-1.7556-0.37209-2.6875-0.98567-2.6875-1.7812 0-0.2098 0.052-0.33333 0.28125-0.5625 0.24634-0.24636 0.30958-0.2568 0.5-0.21875 0.12126 0.0242 0.41548 0.18436 0.65625 0.375 0.542 0.42919 0.81345 0.59375 1.0938 0.59375 0.1194 0 0.21875-0.0134 0.21875-0.0312 0-0.0179-0.0895-0.16793-0.1875-0.3125-0.54114-0.79732-0.48929-2.32 0.0937-3.5938 0.0916-0.19997 0.1346-0.33661 0.125-0.375-0.081 5e-3 -0.16973-8e-3 -0.25 0zm5.625 2.8438c-0.10909-0.0673-0.98364 0.87144-1.1875 1.2812-0.40423 0.81266-0.24628 1.3254 0.71875 2.3438 0.33433 0.35276 0.7178 0.83934 0.84375 1.0625 0.12594 0.22317 0.25172 0.37568 0.28125 0.34375 0.0295-0.0319 0.087-0.28834 0.15625-0.5625 0.18194-0.72034 0.19614-1.9624 0-2.6875-0.15192-0.56158-0.67155-1.6941-0.8125-1.7812z"/>
  <path d="m510.01 190c-4.4183 0-8 3.5817-8 8s3.5817 8 8 8 8-3.5817 8-8-3.5817-8-8-8zm0 1c3.866 0 7 3.134 7 7s-3.134 7-7 7-7-3.134-7-7 3.134-7 7-7z"/>
 </g>
</svg>
