<svg width="16" height="16" version="1.1" viewBox="0 0 16 16" xmlns="http://www.w3.org/2000/svg">
  <path
     d="M 8,0 C 7.9345,6.1e-5 7.86817,0.0068 7.80274,0.01953 7.67383,0.04687 7.55274,0.09375 7.44336,0.16797 l -6,4 C 1.16602,4.35156 0.99805,4.66406 0.99805,5 v 6 c 0,0.33594 0.16797,0.64844 0.44531,0.83203 l 6,4 c 0.33594,0.22266 0.77342,0.22266 1.1094,0 l 6,-4 C 14.8301,11.64844 14.99807,11.33594 14.99807,11 V 5 c 0,-0.33594 -0.16797,-0.64844 -0.44531,-0.83203 l -6,-4 C 8.3887,0.05664 8.19649,-1.8e-4 8.00002,0 Z M 7.998,1 v 8 l 6,-4 v 6 l -6,4 V 9 l -6,-4 z"
     fill="#363636" />
</svg>
