<svg width="16" height="16" version="1.1" xmlns="http://www.w3.org/2000/svg">
 <g transform="matrix(-1,0,0,1,16,2)" fill="#363636" stroke-width="1.5">
  <g transform="matrix(.43738 0 0 .5 -145.4 -266.68)">
   <g transform="matrix(0,-1.0825,-1.0825,0,1464.7,557.15)" fill="#363636" stroke-width="1.5"></g>
  </g>
  <g transform="matrix(-.43738 0 0 -.5 161.4 278.68)">
   <g transform="matrix(0,-1.0825,-1.0825,0,1464.7,557.15)" fill="#363636" stroke-width="1.5"></g>
  </g>
 </g>
 <path d="m13 1c1.662 0 3 1.338 3 3v6c0 1.662-1.338 3-3 3 0 1.108-0.892 2-2 2h-6c-1.108 0-2-0.892-2-2-1.662 0-3-1.338-3-3v-6c0-1.662 1.338-3 3-3zm0 1h-10c-1.108 0-2 0.892-2 2v6c0 1.108 0.892 2 2 2h1v1c0 0.554 0.446 1 1 1h6c0.554 0 1-0.446 1-1v-1h1c1.108 0 2-0.892 2-2v-6c0-1.108-0.892-2-2-2z" fill="#363636"/>
 <circle transform="scale(-1,1)" cx="-11" cy="7" r="1" fill="#363636" stop-color="#000000" stroke-linecap="round" stroke-linejoin="round" stroke-width="2" style="paint-order:fill markers stroke"/>
 <circle transform="scale(-1,1)" cx="-8" cy="7" r="1" fill="#363636" opacity=".65" stop-color="#000000" stroke-linecap="round" stroke-linejoin="round" stroke-width="2" style="paint-order:fill markers stroke"/>
 <circle transform="scale(-1,1)" cx="-5" cy="7" r="1" fill="#363636" opacity=".35" stop-color="#000000" stroke-linecap="round" stroke-linejoin="round" stroke-width="2" style="paint-order:fill markers stroke"/>
</svg>
