<svg width="16" height="16" xmlns="http://www.w3.org/2000/svg"><g fill="#363636"><path d="M4.667 7.333C4.114 7.333 4 7.632 4 8s.114.667.667.667c.035 0 .07-.002.105-.005.026.001.05.005.077.005h6.302c.026 0 .05-.004.074-.005.036.003.072.005.108.005.553 0 .667-.299.667-.667s-.114-.667-.667-.667c-.035 0-.07.002-.105.005-.026-.001-.05-.005-.077-.005H4.85c-.026 0-.05.004-.074.005a1.49 1.49 0 00-.108-.005z"/><path d="M.115 8.38l2.999 3.453c.19.22.5.221.693.003a.618.618 0 00.002-.792L1.156 7.989 3.83 4.956a.619.619 0 00.002-.792.448.448 0 00-.693-.003L.118 7.59a.601.601 0 00-.145.395c0 .143.047.287.142.397zM15.885 7.62l-2.999-3.453a.448.448 0 00-.693-.003.618.618 0 00-.002.792l2.653 3.055-2.673 3.033a.619.619 0 00-.002.792c.19.22.5.22.693.003l3.02-3.428a.601.601 0 00.145-.395.602.602 0 00-.142-.397z" stroke-width="1.5"/></g></svg>