<svg width="16" height="16.001" version="1.1" xmlns="http://www.w3.org/2000/svg">
 <path d="M13.5 0c-.277 0-.5.223-.5.5v14c0 .277.223.5.5.5h1c.277 0 .5-.223.5-.5V.5c0-.277-.223-.5-.5-.5h-1zm-3 3c-.277 0-.5.223-.5.5v11c0 .277.223.5.5.5h1c.277 0 .5-.223.5-.5v-11c0-.277-.223-.5-.5-.5h-1zm-3 3c-.277 0-.5.223-.5.5v8c0 .277.223.5.5.5h1c.277 0 .5-.223.5-.5v-8c0-.277-.223-.5-.5-.5h-1zm-3 3c-.277 0-.5.223-.5.5v5c0 .277.223.5.5.5h1c.277 0 .5-.223.5-.5v-5c0-.277-.223-.5-.5-.5h-1zm-3 3c-.277 0-.5.223-.5.5v2c0 .277.223.5.5.5h1c.277 0 .5-.223.5-.5v-2c0-.277-.223-.5-.5-.5h-1z" color="#363636" fill="#363636" opacity=".35" overflow="visible"/>
 <rect transform="rotate(45)" x="1.3137" y="-.5" width="20" height="1" rx=".5" ry=".5" fill="#363636" stroke-linecap="round" stroke-linejoin="round" stroke-width=".48307" style="paint-order:markers stroke fill"/>
</svg>
