<svg width="16" height="16" xmlns="http://www.w3.org/2000/svg"><path d="M7.99 3C5.154 3.002 2.565 4.009.514 5.658a.5.5 0 00-.096.072.5.5 0 00-.154.36.5.5 0 00.5.5.5.5 0 00.318-.113 11.02 11.02 0 014.287-2.149c.159-.207.335-.404.535-.58.395-.348.757-.542 1.276-.646.285-.051.58-.102.81-.102zM8 3c.852.001 1.679.289 2.281.857.156.146.293.31.412.485a11.025 11.025 0 014.225 2.135.5.5 0 00.318.113.5.5 0 00.5-.5.5.5 0 00-.154-.36.5.5 0 00-.096-.072C13.432 4.008 10.84 3 8 3zm0 3c-.059 0-.116.007-.174.008-.034.032-.097.107-.162.303a1 1 0 01-1.334.607l-.934-.39c-.05-.022-.085-.06-.13-.089a9.075 9.075 0 00-2.754 1.457.5.5 0 00-.102.075.5.5 0 00-.156.361.5.5 0 00.5.5.5.5 0 00.32-.115 7.95 7.95 0 014.244-1.688c.127-.137.256-.273.408-.414.186-.172.315-.3.354-.344l.002-.001a.707.707 0 00.1-.163c.02-.038.015-.04.015-.046 0-.084-.002-.058-.006-.053C8.127 6.006 8.064 6 8 6zm3.148.584a2.9 2.9 0 01-.248.725c-.038.073-.076.135-.113.203.776.293 1.497.7 2.139 1.205a.5.5 0 00.32.115.5.5 0 00.5-.5.5.5 0 00-.156-.361.5.5 0 00-.102-.075 9.11 9.11 0 00-2.34-1.312zM9.494 9.217v.312a1 1 0 01-.228.635c.006.008.01.02.017.027.594.167 1.148.43 1.635.788a.5.5 0 00.836-.37.507.507 0 00-.168-.384 6.09 6.09 0 00-2.092-1.008zm-3.02.008a6.094 6.094 0 00-2.06 1 .507.507 0 00-.168.384.5.5 0 00.836.37 5.084 5.084 0 011.572-.77c.015-.018.02-.043.035-.06a1 1 0 01-.214-.62v-.304zm2.739.81c.003.003.003.009.006.012.003.003.008.003.011.006l-.017-.018zm-.26 2.662c-.29.193-.644.303-.969.303-.317 0-.658-.104-.943-.281A1 1 0 007 13a1 1 0 001 1 1 1 0 001-1 1 1 0 00-.047-.303z" fill-rule="evenodd" paint-order="stroke fill markers" fill="#363636"/><path d="M7.995 4c.657 0 1.192.196 1.604.586.412.383.617.874.617 1.474 0 .26-.068.524-.206.792-.137.267-.258.457-.367.573a8.62 8.62 0 01-.435.424l-.052.055c-.44.397-.661.792-.661 1.19v.435H7.474v-.51c0-.326.068-.603.206-.834.137-.239.38-.518.726-.836.195-.18.332-.314.412-.401.086-.094.17-.219.25-.378.086-.166.13-.337.13-.51 0-.332-.109-.6-.326-.802-.21-.203-.501-.305-.877-.305-.622 0-1.048.348-1.279 1.042l-.932-.39c.152-.413.413-.782.781-1.108.376-.332.852-.497 1.43-.497zm-.01 6.526c.209 0 .383.072.52.216.145.145.216.319.216.521s-.071.376-.216.52c-.137.145-.311.217-.52.217a.723.723 0 01-.738-.737.722.722 0 01.737-.737z" fill="#f55"/></svg>