<svg width="16" height="16" xmlns="http://www.w3.org/2000/svg"><path d="M5 7a1 1 0 100 2 1 1 0 000-2zm3 0a1 1 0 100 2 1 1 0 000-2zm3 0a1 1 0 100 2 1 1 0 000-2z" fill="#363636"/><path d="M8 5a1.99 1.99 0 00-1.879 1.336c.14.09.27.193.377.312.002.002 0 .005.002.006.001-.001 0-.004.002-.006C6.852 6.255 7.417 6 8 6s1.148.255 1.498.648c.001.002 0 .005.002.006.001-.001 0-.004.002-.006a1.82 1.82 0 01.377-.312A1.99 1.99 0 007.999 5zM6.5 9.346c-.001.001 0 .004-.002.006C6.148 9.745 5.583 10 5 10c0 .554.446 1 1 1h4c.554 0 1-.446 1-1-.583 0-1.148-.255-1.498-.648-.001-.002 0-.005-.002-.006-.001.001 0 .004-.002.006C9.148 9.745 8.583 10 8 10s-1.148-.255-1.498-.648c-.001-.002 0-.005-.002-.006z" fill="#363636" fill-rule="evenodd"/><g fill="#363636" stroke-width="1.5"><path d="M.115 8.38l2.999 3.453c.19.22.5.221.693.003a.618.618 0 00.002-.792L1.156 7.989 3.83 4.956a.619.619 0 00.002-.792.448.448 0 00-.693-.003L.118 7.59a.601.601 0 00-.145.395c0 .143.047.287.142.397zM15.885 7.62l-2.999-3.453a.448.448 0 00-.693-.003.618.618 0 00-.002.792l2.653 3.055-2.673 3.033a.619.619 0 00-.002.792c.19.22.5.22.693.003l3.02-3.428a.601.601 0 00.145-.395.602.602 0 00-.142-.397z"/></g></svg>