<svg width="16" height="16" version="1.1" xmlns="http://www.w3.org/2000/svg">
 <g transform="translate(0 2)" fill="#363636" stroke-width="1.5">
  <g transform="matrix(.43738 0 0 .5 -145.4 -266.68)">
   <g transform="matrix(0,-1.0825,-1.0825,0,1464.7,557.15)" fill="#363636" stroke-width="1.5"></g>
  </g>
  <g transform="matrix(-.43738 0 0 -.5 161.4 278.68)">
   <g transform="matrix(0,-1.0825,-1.0825,0,1464.7,557.15)" fill="#363636" stroke-width="1.5"></g>
  </g>
 </g>
 <path d="m3 1c-1.662 0-3 1.338-3 3v5c0 1.662 1.338 3 3 3h3v2h-1.5c-0.277 0-0.5 0.223-0.5 0.5s0.223 0.5 0.5 0.5h7c0.14148 0 0.26859-0.05851 0.35938-0.15234-0.06791-0.19114-0.10742-0.39113-0.10742-0.58398 0-0.06175 0.0044-0.12464 0.01172-0.1875-0.076626-0.04766-0.16642-0.076172-0.26367-0.076172h-2.5v-2h2.9785c6.56e-4 -0.11447 0.007504-0.2298 0.021484-0.34375v-0.65625h-9c-1.108 0-2-0.892-2-2v-5c0-1.108 0.892-2 2-2h7v-1zm9 0c-0.554 0-1 0.446-1 1v5c0 0.051073 0.0064 0.099465 0.01367 0.14844 0.12145-0.14087 0.25285-0.27538 0.39453-0.40039 0.17969-0.15895 0.37952-0.29236 0.5918-0.40039v-1.3477h3v1.3242c0.28903 0.13585 0.55574 0.3144 0.78906 0.53516 0.07157 0.066894 0.13929 0.13719 0.20313 0.21094 0.001678-0.023795 0.007812-0.046076 0.007812-0.070312v-5c0-0.554-0.446-1-1-1zm0 1h3v2h-3zm3.0605 5.5273c0.0022 0.00203 0.0017 0.00576 0.0039 0.00781 0.0022 0.0021 0.0056 0.0018 0.0078 0.00391zm-8.0605 4.4727h1v2h-1z" fill="#363636"/>
 <path d="m13.5 7c0.65763 0 1.1922 0.19569 1.6041 0.58594 0.41192 0.38302 0.61719 0.87414 0.61719 1.474 0 0.26016-0.06843 0.52428-0.20573 0.79167-0.13731 0.26739-0.25879 0.4573-0.36719 0.57292-0.10117 0.1084-0.247 0.25104-0.4349 0.42448l-0.05208 0.05469c-0.44083 0.39747-0.66147 0.79263-0.66147 1.1901v0.4349h-1.0208v-0.51042c0-0.3252 0.06842-0.60208 0.20573-0.83334 0.13731-0.23848 0.37968-0.51796 0.72656-0.83594 0.19512-0.18067 0.33196-0.31432 0.41146-0.40104 0.08672-0.093949 0.17051-0.21861 0.25-0.3776 0.08672-0.16621 0.13021-0.33698 0.13021-0.51042 0-0.33243-0.10872-0.59974-0.32552-0.80209-0.20957-0.20235-0.50182-0.3047-0.87761-0.3047-0.6215 0-1.0474 0.3479-1.2786 1.0417l-0.9323-0.39063c0.15176-0.41192 0.41268-0.78158 0.78126-1.1068 0.37579-0.33243 0.85155-0.4974 1.4297-0.4974zm-0.0104 6.526c0.20957 0 0.38352 0.07161 0.52083 0.21615 0.14453 0.14454 0.21615 0.31848 0.21615 0.52083s-0.07161 0.3763-0.21615 0.52083c-0.13731 0.14453-0.31127 0.21615-0.52084 0.21615s-0.38672-0.07161-0.53126-0.21615c-0.13731-0.14454-0.20573-0.31848-0.20573-0.52083s0.06842-0.3763 0.20573-0.52083c0.14453-0.14453 0.32168-0.21615 0.53126-0.21615z" color="#000000" fill="#363636" stroke-linecap="round" stroke-linejoin="round" style="-inkscape-stroke:none"/>
</svg>
