<svg width="16" height="16" xmlns="http://www.w3.org/2000/svg"><g fill="#363636" stroke-width="1.5"><path d="M.115 8.38l2.999 3.453c.19.22.5.221.693.003a.618.618 0 00.002-.792L1.156 7.989 3.83 4.956a.619.619 0 00.002-.792.448.448 0 00-.693-.003L.118 7.59a.601.601 0 00-.145.395c0 .143.047.287.142.397zM15.885 7.62l-2.999-3.453a.448.448 0 00-.693-.003.618.618 0 00-.002.792l2.653 3.055-2.673 3.033a.619.619 0 00-.002.792c.19.22.5.22.693.003l3.02-3.428a.601.601 0 00.145-.395.602.602 0 00-.142-.397z"/></g><path d="M7.995 4c.657 0 1.192.196 1.604.586.412.383.617.874.617 1.474 0 .26-.068.524-.206.792-.137.267-.258.457-.367.573a8.62 8.62 0 01-.435.424l-.052.055c-.44.397-.661.792-.661 1.19v.435H7.474v-.51c0-.326.068-.603.206-.834.137-.239.38-.518.726-.836.195-.18.332-.314.412-.401.086-.094.17-.219.25-.378.086-.166.13-.337.13-.51 0-.332-.109-.6-.326-.802-.21-.203-.501-.305-.877-.305-.622 0-1.048.348-1.279 1.042l-.932-.39c.152-.413.413-.782.781-1.108.376-.332.852-.497 1.43-.497zm-.01 6.526c.209 0 .383.072.52.216.145.145.216.319.216.521s-.071.376-.216.52a.688.688 0 01-.52.217.722.722 0 01-.738-.737.722.722 0 01.737-.737z" fill="#363636"/></svg>