<svg width="16.031" height="16" xmlns="http://www.w3.org/2000/svg"><path d="M8 3C5.16 3 2.568 4.007.514 5.658a.5.5 0 00-.096.072.5.5 0 00-.154.36.5.5 0 00.166.37 3 3 0 01.36-.487 3 3 0 012.597-.944A10.833 10.833 0 018 4c1.65 0 3.21.372 4.61 1.027a3 3 0 012.41.754l.029.028a3 3 0 01.523.652.5.5 0 00.164-.371.5.5 0 00-.154-.36.5.5 0 00-.096-.072C13.433 4.008 10.841 3 8 3zM5.502 9.654a3 3 0 01-.303.387 3 3 0 01-.931.676.493.493 0 00.814.262 5.18 5.18 0 011.092-.602 3 3 0 01-.207-.172 3 3 0 01-.465-.55zm5 0a3 3 0 01-.303.387 3 3 0 01-.375.336c.388.16.759.356 1.094.602a.492.492 0 00.814-.264 3 3 0 01-.765-.51 3 3 0 01-.465-.55z" fill="#363636" fill-rule="evenodd" paint-order="stroke fill markers"/><circle cx="8" cy="13" r="1" fill="#363636" fill-rule="evenodd" paint-order="stroke fill markers"/><g fill="#363636" fill-rule="evenodd"><path d="M4.365 6.539a2 2 0 01.1 2.822 2 2 0 01-2.82.11 2 2 0 01-.12-2.822 2 2 0 012.822-.127M9.365 6.539a2 2 0 01.1 2.822 2 2 0 01-2.82.11 2 2 0 01-.12-2.822 2 2 0 012.822-.127M14.365 6.539a2 2 0 01.1 2.822 2 2 0 01-2.821.11 2 2 0 01-.119-2.822 2 2 0 012.821-.127"/></g></svg>