<svg enable-background="new" version="1.1" viewBox="0 0 16 16" xmlns="http://www.w3.org/2000/svg" xmlns:osb="http://www.openswatchbook.org/uri/2009/osb">
 <g transform="translate(-261 283)">
  <g transform="matrix(.86429 0 0 .86429 209.41 -486.8)" fill="#363636">
   <path transform="translate(61,237)" d="m2.9998 0.99998s-2 0-2 2.0625v9.9375c0 2 2 2 2 2h10c2 0 2-2 2-2v-10s0-2-2-2zm3.0002 2h4c2 0 2.0522 2.3514 2 2v1h-2v-1h-4v6h4v-1h-2v-1-1h4v1.0312 1.9688s0 2-2 2h-4s-2 0-2-2v-6c0-2 2-2 2-2z" color="#363636"/>
  </g>
 </g>
</svg>
