<svg height="16" width="16" xmlns="http://www.w3.org/2000/svg"><g><path fill="none" d="M0 0h16v16H0z"/><path d="M2.063 0C.911 0 0 .912 0 2.063v11.874C0 15.088.912 16 2.063 16h11.874C15.088 16 16 15.088 16 13.937V2.063C16 .911 15.088 0 13.937 0zm-.088 3H7v2H4.006v2H5c1.004.004 2.006 1.002 2.006 2H7v2h.006c0 1-1.005 2-2.012 2h-3.02v-2h3.014V9H1.975zM10 3h2c.833 0 1.525.564 1.77 1.053.244.488.23.947.23.947v1h-2V5h-2v6h2V9h-1V7h3v4s.014.459-.23.947C13.525 12.436 12.833 13 12 13h-2s-.459.014-.947-.23C8.564 12.525 8 11.833 8 11V5s-.014-.459.23-.947C8.475 3.564 9.167 3 10 3z" fill="#363636"/></g></svg>
