<svg width="16" height="16" xmlns="http://www.w3.org/2000/svg"><path d="M8 3C5.16 3 2.568 4.007.514 5.658a.5.5 0 00-.096.072.5.5 0 00-.154.36.5.5 0 00.5.5.5.5 0 00.318-.113A10.919 10.919 0 018 4c2.628 0 5.027.938 6.918 2.477a.5.5 0 00.318.113.5.5 0 00.5-.5.5.5 0 00-.154-.36.5.5 0 00-.096-.072C13.433 4.008 10.841 3 8 3zM5.103 6.488a9.09 9.09 0 00-2.591 1.409.5.5 0 00-.102.074.5.5 0 00-.156.361.5.5 0 00.5.5.5.5 0 00.32-.115A8.057 8.057 0 015.367 7.45a1.51 1.51 0 01-.263-.963zm5.794 0a1.51 1.51 0 01-.264.963 8.059 8.059 0 012.293 1.266.5.5 0 00.32.115.5.5 0 00.5-.5.5.5 0 00-.156-.361.5.5 0 00-.102-.075 9.09 9.09 0 00-2.591-1.408zM5.136 9.76a6.32 6.32 0 00-.723.465.507.507 0 00-.168.384.5.5 0 00.836.37c.19-.14.392-.264.6-.377-.054-.04-.108-.08-.157-.127a1.466 1.466 0 01-.388-.715zm5.726 0c-.06.264-.187.514-.388.715-.049.048-.103.086-.157.127.208.113.41.237.6.377a.5.5 0 00.836-.37.507.507 0 00-.168-.384 6.318 6.318 0 00-.723-.465zM8 12a1 1 0 00-1 1 1 1 0 001 1 1 1 0 001-1 1 1 0 00-1-1z" fill-rule="evenodd" paint-order="stroke fill markers" fill="#363636"/><path d="M6.586 6.086a.499.499 0 00-.354.854L7.293 8l-1.06 1.06a.499.499 0 10.707.708L8 8.707l1.06 1.06a.499.499 0 10.708-.706L8.707 8l1.06-1.06a.499.499 0 10-.706-.708L8 7.293l-1.06-1.06a.498.498 0 00-.354-.147z" fill="#363636" fill-rule="evenodd" opacity=".5" paint-order="fill markers stroke"/></svg>