<svg width="16" height="16" xmlns="http://www.w3.org/2000/svg"><path d="M5 7a1 1 0 100 2 1 1 0 000-2zm3 0a1 1 0 100 2 1 1 0 000-2zm3 0a1 1 0 100 2 1 1 0 000-2z" fill="#363636"/><g fill="#363636" stroke-width="1.5"><path d="M.115 8.38l2.999 3.453c.19.22.5.221.693.003a.618.618 0 00.002-.792L1.156 7.989 3.83 4.956a.619.619 0 00.002-.792.448.448 0 00-.693-.003L.118 7.59a.601.601 0 00-.145.395c0 .143.047.287.142.397z"/><path d="M15.885 7.62l-2.999-3.453a.448.448 0 00-.693-.003.618.618 0 00-.002.792l2.653 3.055-2.673 3.033a.619.619 0 00-.002.792c.19.22.5.22.693.003l3.02-3.428a.601.601 0 00.145-.395.602.602 0 00-.142-.397z" opacity=".35"/></g></svg>