<svg width="16" height="16" version="1.1" xmlns="http://www.w3.org/2000/svg">
 <defs>
  <style id="current-color-scheme" type="text/css">.ColorScheme-Text{color:#363636}</style>
 </defs>
 <path d="m3 1c-1.662 0-3 1.338-3 3v6c0 1.662 1.338 3 3 3 0 1.108 0.892 2 2 2h4.2773c-0.17448-0.2959-0.27734-0.63714-0.27734-1h-4c-0.554 0-1-0.446-1-1v-1h-1c-1.108 0-2-0.892-2-2v-6c0-1.108 0.892-2 2-2h10c1.108 0 2 0.892 2 2v4.9453c0.32598 0.37963 0.56709 0.84616 0.70703 1.3516 0.089296 0.038444 0.17558 0.082055 0.25977 0.12891 0.019768-0.13964 0.033203-0.28051 0.033203-0.42578v-6c0-1.662-1.338-3-3-3h-10zm2.5 4c-0.277 0-0.5 0.223-0.5 0.5v3c0 0.277 0.223 0.5 0.5 0.5s0.5-0.223 0.5-0.5v-3c0-0.277-0.223-0.5-0.5-0.5zm5 0c-0.277 0-0.5 0.223-0.5 0.5v3c0 0.277 0.223 0.5 0.5 0.5s0.5-0.223 0.5-0.5v-3c0-0.277-0.223-0.5-0.5-0.5z" fill="#363636"/>
 <path d="m13 9c-1.108 0-2 0.892-2 2-0.554 0-1 0.446-1 1v2c0 0.554 0.446 1 1 1h4c0.554 0 1-0.446 1-1v-2c0-0.554-0.446-1-1-1 0-1.108-0.892-2-2-2zm0 1c0.554 0 1 0.446 1 1h-2c0-0.554 0.446-1 1-1zm-2 2h4v2h-4z" color="#000000" fill="#363636" stroke-width="2" style="-inkscape-stroke:none"/>
</svg>
