<svg enable-background="new" version="1.1" viewBox="0 0 16 16" xmlns="http://www.w3.org/2000/svg" xmlns:osb="http://www.openswatchbook.org/uri/2009/osb">
 <g transform="translate(-341 283)">
  <path d="m344.71-281s-1.7143 0-1.7143 1.7679v8.5178c0 1.7143 1.7143 1.7143 1.7143 1.7143h8.5714c1.7143 0 1.7143-1.7143 1.7143-1.7143v-8.5714s0-1.7143-1.7143-1.7143zm2.5716 1.7143h3.4286c1.7143 0 1.759 2.0155 1.7143 1.7143v0.85714h-1.7143v-0.85714h-3.4286v5.1429h3.4286v-0.85715h1.7143v0.85715s0 1.7143-1.7143 1.7143h-3.4286s-1.7143 0-1.7143-1.7143v-5.1429c0-1.7143 1.7143-1.7143 1.7143-1.7143z" color="#363636" fill="#363636"/>
 </g>
</svg>
