<svg enable-background="new" version="1.1" viewBox="0 0 16 16" xmlns="http://www.w3.org/2000/svg" xmlns:osb="http://www.openswatchbook.org/uri/2009/osb">
 <g transform="translate(-301 283)">
  <g transform="matrix(.75 0 0 .85714 242.25 -485)" fill="#363636">
   <path d="m81 240.06-5e-4 9.9375c-1.01e-4 2 2 2 2 2h12c2 0 2-2 2-2v-10s1.2e-5 -2-2-2h-12s-1.9994 4.3e-4 -1.9995 2.0625zm1.9997-0.06248h4c0.66639 0.0162 1.1672 0.83815 0.8755 1.4375l-1.375 2.7812c0.35458 0.11552 0.74913 0.19557 0.96875 0.4375 0.33238 0.36614 0.53125 0.8102 0.53125 1.3438v2c0 1.1124-0.90732 2-2 2h-3l-5e-4 -2h3v-2h-0.9995c-0.66639-0.0162-1.1667-0.83815-0.875-1.4375l1.25-2.5625h-2.375zm10 0c2 0 2 2 2 2v1h-2v-1h-2v6h2v-2h-1l8e-4 -1.9688 1.9992-0.03125 1.0008 0.0312v1 2.9375c0 5e-5 -8e-4 2.0313-2.0008 2.0313l-1.9992-5e-5s-2.0008 5e-5 -2.0008-2v-6c0-2 2-2 2-2z" color="#363636"/>
  </g>
 </g>
</svg>
