<svg width="16px" height="16px" version="1.1" viewBox="0 0 16 16" xmlns="http://www.w3.org/2000/svg">
 <g transform="matrix(-1,0,0,1,16,0)" color="#363636" fill="#363636">
  <path d="m10.5 3c-0.277 0-0.5 0.222-0.5 0.5v11c0 0.276 0.223 0.5 0.5 0.5h1c0.277 0 0.5-0.224 0.5-0.5v-11c0-0.278-0.223-0.5-0.5-0.5zm-3 3c-0.277 0-0.5 0.222-0.5 0.5v8c0 0.276 0.223 0.5 0.5 0.5h1c0.277 0 0.5-0.224 0.5-0.5v-8c0-0.278-0.223-0.5-0.5-0.5zm-3 3c-0.277 0-0.5 0.222-0.5 0.5v5c0 0.276 0.223 0.5 0.5 0.5h1c0.277 0 0.5-0.224 0.5-0.5v-5c0-0.278-0.223-0.5-0.5-0.5zm-3 3c-0.277 0-0.5 0.222-0.5 0.5v2c0 0.276 0.223 0.5 0.5 0.5h1c0.277 0 0.5-0.224 0.5-0.5v-2c0-0.278-0.223-0.5-0.5-0.5z" overflow="visible"/>
  <path d="m13.5 0h1c0.277 0 0.5 0.223 0.5 0.5v14c0 0.277-0.223 0.5-0.5 0.5h-1a0.499 0.499 0 0 1-0.5-0.5v-14c0-0.277 0.223-0.5 0.5-0.5z" opacity=".35" overflow="visible"/>
 </g>
</svg>
