<svg version="1.1" viewBox="0 0 16 16" xmlns="http://www.w3.org/2000/svg">
 <path d="m2.285-6.61e-4s-2.285 0-2.285 2.3575v11.355c0 2.2874 2.285 2.2874 2.285 2.2874h11.429c2.2863 0 2.2863-2.2874 2.2863-2.2874v-11.426s0-2.2861-2.2863-2.2861zm3.4288 2.2861h4.5726c2.285 0 2.285 2.2848 2.285 2.2848v1.1424h-2.285v-1.1424h-4.5726v6.857h4.5726v-1.1424h-2.2863v-2.2874h4.5712v3.4285s0 2.2848-2.285 2.2848h-4.5726s-2.285 0-2.285-2.2848v-6.8556c0-2.2848 2.285-2.2848 2.285-2.2848z" color="#363636" fill="#363636" stroke-width="1.3223"/>
</svg>
