<svg width="16" height="16" version="1.1" xmlns="http://www.w3.org/2000/svg">
 <path d="m5 6a1 1 0 1 0 0 2 1 1 0 0 0 0-2zm3 0a1 1 0 1 0 0 2 1 1 0 0 0 0-2zm3 0a1 1 0 1 0 0 2 1 1 0 0 0 0-2z" fill="#363636"/>
 <g transform="translate(0 2)" fill="#363636" stroke-width="1.5">
  <g transform="matrix(.43738 0 0 .5 -145.4 -266.68)">
   <g transform="matrix(0,-1.0825,-1.0825,0,1464.7,557.15)" fill="#363636" stroke-width="1.5"></g>
  </g>
  <g transform="matrix(-.43738 0 0 -.5 161.4 278.68)">
   <g transform="matrix(0,-1.0825,-1.0825,0,1464.7,557.15)" fill="#363636" stroke-width="1.5"></g>
  </g>
 </g>
 <path d="m3 1c-1.662 0-3 1.338-3 3v6c0 1.662 1.338 3 3 3 0 1.108 0.892 2 2 2h6c1.108 0 2-0.892 2-2 1.662 0 3-1.338 3-3v-6c0-1.662-1.338-3-3-3zm0 1h10c1.108 0 2 0.892 2 2v6c0 1.108-0.892 2-2 2h-1v1c0 0.554-0.446 1-1 1h-6c-0.554 0-1-0.446-1-1v-1h-1c-1.108 0-2-0.892-2-2v-6c0-1.108 0.892-2 2-2z" fill="#363636"/>
</svg>
