<svg width="16" height="16" version="1.1" xmlns="http://www.w3.org/2000/svg">
 <g transform="translate(-260 327)" color="#363636" fill="#363636">
  <path transform="translate(260 -327)" d="m10.5 3c-0.277 0-0.5 0.223-0.5 0.5v11c0 0.277 0.223 0.5 0.5 0.5h0.5v-2-1h0.24219l-0.24219-1.9375v-4.0625-1h1v-1.5c0-0.277-0.223-0.5-0.5-0.5h-1z"/>
  <rect x="267" y="-321" width="2" height="9" ry=".5" overflow="visible"/>
  <rect x="264" y="-318" width="2" height="6" ry=".5" overflow="visible"/>
  <rect x="261" y="-315" width="2" height="3" ry=".5" overflow="visible"/>
  <path transform="translate(260 -327)" d="m13.5 0c-0.277 0-0.5 0.223-0.5 0.5v4.5h2v-4.5c0-0.277-0.223-0.5-0.5-0.5h-1zm1.5 10.062-0.24219 1.9375h0.24219v-1.9375z"/>
 </g>
 <path class="warning" d="M12 6v4l.25 2h1.5l.25-2V6zm0 7v2h2v-2z" fill="#f55"/>
</svg>
