<svg width="16" height="16" version="1.1" xmlns="http://www.w3.org/2000/svg">
 <path d="m3 1c-1.662 0-3 1.338-3 3v6c0 1.662 1.338 3 3 3 0 1.108 0.892 2 2 2h6c1.108 0 2-0.892 2-2 1.662 0 3-1.338 3-3v-6c0-1.662-1.338-3-3-3zm0 1h10c1.108 0 2 0.892 2 2v6c0 1.108-0.892 2-2 2h-1v1c0 0.554-0.446 1-1 1h-6c-0.554 0-1-0.446-1-1v-1h-1c-1.108 0-2-0.892-2-2v-6c0-1.108 0.892-2 2-2zm2.5 3c-0.277 0-0.5 0.223-0.5 0.5v3c0 0.277 0.223 0.5 0.5 0.5s0.5-0.223 0.5-0.5v-3c0-0.277-0.223-0.5-0.5-0.5zm5 0c-0.277 0-0.5 0.223-0.5 0.5v3c0 0.277 0.223 0.5 0.5 0.5s0.5-0.223 0.5-0.5v-3c0-0.277-0.223-0.5-0.5-0.5z" fill="#363636"/>
</svg>
