<svg width="16" height="16" version="1.1" xmlns="http://www.w3.org/2000/svg">
 <path d="m7.998-1.41e-4c-0.27102 0-0.54135 0.061232-0.81445 0.15625a1.0001 1.0001 0 0 0-0.037109 0.013672c-1.1343 0.44698-3.7671 1.3187-5.1914 1.8867a1.0001 1.0001 0 0 0-0.023437 0.00977c-0.22994 0.098558-0.55638 0.30917-0.73828 0.63867s-0.18925 0.61851-0.18945 0.84766l-0.003906 5.3418c-0.001241 1.4947 0.47441 2.739 1.4727 3.709 0.99665 0.96839 2.3954 1.7697 4.4707 3.0352 0.00124 7.68e-4 0.00267 0.0012 0.00391 2e-3 0.00166 1e-3 0.00224 8.91e-4 0.00391 2e-3 0.31446 0.19425 0.6773 0.35421 1.0391 0.35547 0 0 0.00195 2e-3 0.00195 2e-3h0.00195s0.00195-2e-3 0.00195-2e-3c0.35749-0.0013 0.73683-0.16347 1.0527-0.35938h0.00195c2.0468-1.2376 3.4453-2.0342 4.4473-3.006 1.0041-0.97382 1.4968-2.2275 1.498-3.7363l0.0039-5.3418c1.93e-4 -0.22992-0.0038-0.52168-0.19141-0.85742-0.18756-0.33575-0.53463-0.55217-0.7832-0.64648a1.0001 1.0001 0 0 0-0.01953-0.00586c-1.3647-0.48562-3.9846-1.4171-5.1465-1.875a1.0001 1.0001 0 0 0-0.039056-0.013672c-0.27311-0.09503-0.55163-0.15625-0.82227-0.15625zm0 1c0.13725 0 0.28371 0.028341 0.49414 0.10156 1.2077 0.47595 3.8144 1.3997 5.1777 1.8848 0.26536 0.10068 0.33035 0.2369 0.33008 0.56641l-0.0039 5.3418c-0.0023 2.6818-1.3553 3.4048-5.4727 5.8945-0.2641 0.16398-0.39277 0.21051-0.5293 0.21094-0.12747-4.44e-4 -0.25937-0.047-0.52344-0.21094-4.1723-2.5445-5.4729-3.2311-5.4707-5.8945l0.00391-5.3418c2.851e-4 -0.32951 0.064108-0.45658 0.32031-0.56641 1.3542-0.54003 3.9817-1.4088 5.1895-1.8848 0.21045-0.073221 0.35629-0.10156 0.48438-0.10156z" fill="#363636"/>
</svg>
