<svg height="16" width="16" xmlns="http://www.w3.org/2000/svg">
  <path
     fill="none"
     d="M 0,0 H 16 V 16 H 0 Z" />
  <path
     d="M 2.063,0 C 0.911,0 0,0.912 0,2.063 V 13.937 C 0,15.088 0.912,16 2.063,16 H 13.937 C 15.088,16 16,15.088 16,13.937 V 2.063 C 16,0.911 15.088,0 13.937,0 Z M 1.975,3 H 7 V 5 H 4.006 V 7 H 5 C 6.004,7.004 7.006,8.002 7.006,9 H 7 v 2 h 0.006 c 0,1 -1.005,2 -2.012,2 H 1.974 V 11 H 4.988 V 9 H 1.975 Z M 10,3 h 2 c 0.833,0 1.525,0.564 1.77,1.053 C 14.014,4.541 14,5 14,5 V 6 H 12 V 5 h -2 v 6 h 2 V 9 H 11 V 7 h 3 v 4 c 0,0 0.014,0.459 -0.23,0.947 C 13.525,12.436 12.833,13 12,13 H 10 C 10,13 9.541,13.014 9.053,12.77 8.564,12.525 8,11.833 8,11 V 5 C 8,5 7.986,4.541 8.23,4.053 8.475,3.564 9.167,3 10,3 Z"
     fill="#363636" />
</svg>
