<svg width="16px" height="16px" version="1.1" viewBox="0 0 16 16" xmlns="http://www.w3.org/2000/svg">
 <g transform="matrix(-1,0,0,1,16,0)" fill="#363636">
  <path d="m14.5 0c0.277 0 0.5 0.223 0.5 0.5v14c0 0.277-0.223 0.5-0.5 0.5h-1c-0.277 0-0.5-0.223-0.5-0.5v-14c0-0.277 0.223-0.5 0.5-0.5h1zm-3 3c0.277 0 0.5 0.223 0.5 0.5v4.25a3.973 3.973 0 0 0-1.7402-3.0449 4 4 0 0 0-0.082032-0.054688 3.973 3.973 0 0 0-0.17773-0.11914v-1.0312c0-0.277 0.223-0.5 0.5-0.5h1zm0.5 4.8125v0.1875a4 4 0 0 0-0.003906-0.03125c0.001019-0.051806 0.003906-0.10358 0.003906-0.15625zm0 0.1875v6.5c0 0.277-0.223 0.5-0.5 0.5h-1c-0.277 0-0.5-0.223-0.5-0.5v-3.0547a4 4 0 0 0 1.3516-1.2695c0.063343-0.08679 0.1244-0.17518 0.17969-0.26953 0.3228-0.54939 0.44363-1.1647 0.46484-1.8574a4 4 0 0 0 0.003906-0.048828zm-7.8203 1.1191a4 4 0 0 0 1.8203 2.3262v3.0547c0 0.277-0.223 0.5-0.5 0.5h-1c-0.277 0-0.5-0.223-0.5-0.5v-5c0-0.15405 0.070816-0.28928 0.17969-0.38086zm-1.6797 2.8809c0.277 0 0.5 0.223 0.5 0.5v2c0 0.277-0.223 0.5-0.5 0.5h-1c-0.277 0-0.5-0.223-0.5-0.5v-2c0-0.277 0.223-0.5 0.5-0.5h1z" opacity=".35"/>
  <path d="m8.1823 5c-1.642-0.092-3.095 1.17-3.187 2.813 0 1.4 0.378 1.921 1.594 2.843 0.19 0.144 0.325 0.25 0.375 0.313 0.05 0.062 0.03 0.033 0.03 0.031-6e-3 0.528 0.473 1 1 1 0.53 0 1.008-0.472 1-1 0-0.502-0.223-0.943-0.468-1.25a3.82 3.82 0 0 0-0.719-0.688c-0.204-0.16-0.46-0.384-0.687-0.656-0.094-0.112-0.13-0.307-0.125-0.437v-0.032a0.988 0.988 0 0 1 1.062-0.937c0.564 0.032 0.97 0.437 0.938 1h2c0.092-1.642-1.17-2.908-2.813-3zm-0.187 8a1 1 0 1 0 0 2 1 1 0 0 0 0-2z"/>
 </g>
</svg>
