<svg width="16" height="16" version="1.1" xmlns="http://www.w3.org/2000/svg">
 <g transform="translate(0 2)" fill="#363636" stroke-width="1.5">
  <g transform="matrix(.43738 0 0 .5 -145.4 -266.68)">
   <g transform="matrix(0,-1.0825,-1.0825,0,1464.7,557.15)" fill="#363636" stroke-width="1.5">
    <g transform="matrix(.00011827 .032712 -.032712 .00011827 18.269 1034.4)" fill="#363636" stroke-width="1.5">
     <path d="m345.44 248.29-194.29 194.28c-12.359 12.365-32.397 12.365-44.75 0-12.354-12.354-12.354-32.391 0-44.744l171.91-171.91-171.91-171.9c-12.354-12.359-12.354-32.394 0-44.748 12.354-12.359 32.391-12.359 44.75 0l194.29 194.28c6.177 6.18 9.262 14.271 9.262 22.366 0 8.099-3.091 16.196-9.267 22.373z" fill="#363636" stroke-width="1.5"/>
    </g>
   </g>
  </g>
  <g transform="matrix(-.43738 0 0 -.5 161.4 278.68)">
   <g transform="matrix(0,-1.0825,-1.0825,0,1464.7,557.15)" fill="#363636" stroke-width="1.5">
    <g transform="matrix(.00011827 .032712 -.032712 .00011827 18.269 1034.4)" fill="#363636" stroke-width="1.5">
     <path d="m345.44 248.29-194.29 194.28c-12.359 12.365-32.397 12.365-44.75 0-12.354-12.354-12.354-32.391 0-44.744l171.91-171.91-171.91-171.9c-12.354-12.359-12.354-32.394 0-44.748 12.354-12.359 32.391-12.359 44.75 0l194.29 194.28c6.177 6.18 9.262 14.271 9.262 22.366 0 8.099-3.091 16.196-9.267 22.373z" fill="#363636" stroke-width="1.5"/>
    </g>
   </g>
  </g>
 </g>
 <path d="m8 4.5c-1.933 0-3.5 1.567-3.5 3.5s1.567 3.5 3.5 3.5 3.5-1.567 3.5-3.5-1.567-3.5-3.5-3.5zm-1.4141 1.5859c0.12781 0 0.25558 0.04855 0.35352 0.14648l1.0605 1.0605 1.0605-1.0605c0.19587-0.19587 0.51116-0.19587 0.70703 0s0.19587 0.51116 0 0.70703l-1.0605 1.0605 1.0605 1.0605c0.19587 0.19587 0.19587 0.51116 0 0.70703s-0.51116 0.19587-0.70703 0l-1.0605-1.0605-1.0605 1.0605c-0.19587 0.19587-0.51116 0.19587-0.70703 0s-0.19587-0.51116 0-0.70703l1.0605-1.0605-1.0605-1.0605c-0.19587-0.19587-0.19587-0.51116 0-0.70703 0.09793-0.097934 0.22571-0.14648 0.35352-0.14648z" fill="#363636"/>
</svg>
