<svg width="16" height="16" version="1.1" xmlns="http://www.w3.org/2000/svg">
 <circle cx="8" cy="6" r="1" fill="#363636"/>
 <path d="m2.3574 0.35742a8.0001 8 0 0 0-2.3574 5.6426 8.0001 8 0 0 0 2.3574 5.6426l0.69336-0.69336a7.0001 7 0 0 1-2.0508-4.9492 7.0001 7 0 0 1 2.0508-4.9492l-0.69336-0.69336zm2.1191 2.1191a4.9999 4.9999 0 0 0-1.4766 3.5234 4.9999 4.9999 0 0 0 1.4766 3.5234l0.69531-0.69531a3.9999 3.9999 0 0 1-1.1719-2.8281 3.9999 3.9999 0 0 1 1.1719-2.8281l-0.69531-0.69531z" fill="#363636"/>
 <path d="m13.643 0.35742a8.0001 8 0 0 1 2.3574 5.6426 8.0001 8 0 0 1-2.3574 5.6426l-0.69336-0.69336a7.0001 7 0 0 0 2.0508-4.9492 7.0001 7 0 0 0-2.0508-4.9492zm-2.1191 2.1191a4.9999 4.9999 0 0 1 1.4766 3.5234 4.9999 4.9999 0 0 1-1.4766 3.5234l-0.69531-0.69531a3.9999 3.9999 0 0 0 1.1719-2.8281 3.9999 3.9999 0 0 0-1.1719-2.8281z" fill="#363636"/>
 <rect x="7.5" y="9" width="1" height="7" rx="0" ry="0" fill="#363636" stroke-width=".93541"/>
</svg>
