<?xml version="1.0" encoding="UTF-8"?>
<svg width="16" height="16" version="1.1" xmlns="http://www.w3.org/2000/svg" xmlns:cc="http://creativecommons.org/ns#" xmlns:dc="http://purl.org/dc/elements/1.1/" xmlns:rdf="http://www.w3.org/1999/02/22-rdf-syntax-ns#">
 <metadata>
  <rdf:RDF>
   <cc:Work rdf:about="">
    <dc:format>image/svg+xml</dc:format>
    <dc:type rdf:resource="http://purl.org/dc/dcmitype/StillImage"/>
    <dc:title/>
   </cc:Work>
  </rdf:RDF>
 </metadata>
 <g fill="#363636">
  <path d="m7.959 1c-0.38233 0.016107-0.72199 0.24886-0.875 0.59961l-1.4883 3.4004h-3.8457c-0.91921 0.00104-1.3507 1.137-0.66406 1.748l2.9941 2.6523-1.5215 4.2637c-0.31475 0.88725 0.6585 1.6786 1.4629 1.1895l3.9785-2.4316 3.9785 2.4316a1.0006 1.0006 0 0 0 1.4629-1.1895l-1.5215-4.2637 2.9941-2.6523a1.0006 1.0006 0 0 0-0.66406-1.748h-3.8457l-1.4043-3.209-0.083984-0.19141a1.0006 1.0006 0 0 0-0.14844-0.24023c-0.00384-0.0046-0.0078-0.00914-0.011719-0.013672a1.0006 1.0006 0 0 0-0.20508-0.17773 1.0006 1.0006 0 0 0-0.00195-0.00195c-0.00126-8.316e-4 -0.00264-0.00113-0.00391-0.00195-0.00245-0.0016-0.00535-0.00233-0.00781-0.00391a1.0006 1.0006 0 0 0-0.23828-0.11328c-0.00589-0.00185-0.011642-0.00412-0.017578-0.00586a1.0006 1.0006 0 0 0-0.28125-0.041015c-0.013672-2.803e-4 -0.027344-2.803e-4 -0.041016 0zm0.041016 1 1 2.2852 0.75 1.7148h4.5l-3.5 3.1016 1.75 4.8984-3.6289-2.2168-0.87109-0.5332-4.5 2.75 1.75-4.8984-3.5-3.1016h4.5z" opacity=".3"/>
 </g>
</svg>
