<svg width="16" height="16" xmlns="http://www.w3.org/2000/svg"><path d="M7.959 1a1 1 0 00-.875.6L5.596 5H1.75C.83 5.001.4 6.137 1.086 6.748L4.08 9.4l-1.521 4.264c-.315.887.658 1.679 1.462 1.19L8 12.422l3.978 2.432a1 1 0 001.463-1.19L11.92 9.4l2.994-2.652A1 1 0 0014.25 5h-3.846L9 1.791 8.916 1.6a1 1 0 00-.149-.24l-.011-.014a1 1 0 00-.205-.178 1 1 0 00-.002-.002l-.004-.002-.008-.004a1 1 0 00-.238-.113L8.28 1.04A1 1 0 008 1a1 1 0 00-.041 0zM8 2l1 2.285L9.75 6h4.5l-3.5 3.102L12.5 14l-3.629-2.217L8 11.25 3.5 14l1.75-4.898L1.75 6h4.5z" opacity=".3" fill="#363636"/></svg>