<svg version="1.1" viewBox="0 0 16 16" xmlns="http://www.w3.org/2000/svg" xmlns:xlink="http://www.w3.org/1999/xlink">
 <path d="m13.223 2-2.2951 2.2951c-0.4423-0.60159-1.076-1.0487-1.8193-1.2414 2.812e-4 -0.00893 0-0.016894 0-0.025897 0-0.4591-0.3696-0.8287-0.8287-0.8287-0.4591 0-0.8287 0.3696-0.8287 0.8287 0 9e-3 -2.82e-4 0.016966 0 0.025897-1.432 0.37132-2.4861 1.6683-2.4861 3.2371 0 0.017644-2.652e-4 0.034215 0 0.051794 0 1.6617 5.725e-4 4.9722-1.4761 4.9722-0.098379 0-0.18128 0.0924-0.18128 0.20718v0.39331l-1.3078 1.3078 0.77529 0.77691 11.225-11.225-0.77691-0.77529zm-1.6283 4.2876-5.8576 5.8559h5.8576 1.4761c0.09838 0 0.18128-0.0924 0.18128-0.20718v-0.41435c0-0.11477-0.0829-0.20718-0.18128-0.20718-1.4825 0-1.4761-3.3108-1.4761-4.9722 2.66e-4 -0.017577 0-0.034151 0-0.051794v-0.00324zm-4.8686 6.6847c0.22643 0.48431 0.83073 0.8287 1.5538 0.8287 0.72309 0 1.3274-0.34439 1.5538-0.8287h-3.1076z" color="#363636" color-rendering="auto" fill="#363636" image-rendering="auto" opacity=".4" shape-rendering="auto" solid-color="#000000" style="isolation:auto;mix-blend-mode:normal"/>
</svg>
