<svg width="16" height="16" xmlns="http://www.w3.org/2000/svg"><g fill="#363636" stroke-linecap="square"><path d="M1 3c-.554 0-1 .446-1 1v1a1 1 0 011 1 1 1 0 01-1 1v1a1 1 0 011 1 1 1 0 01-1 1v1a1 1 0 011 1h14a1 1 0 011-1v-1a1 1 0 01-1-1 1 1 0 011-1V7a1 1 0 01-1-1 1 1 0 011-1V4c0-.554-.446-1-1-1H1zm2 1h10c.554 0 1 .446 1 1v5c0 .554-.446 1-1 1H3c-.554 0-1-.446-1-1V5c0-.554.446-1 1-1zm-3 9v1c0 .554.446 1 1 1h6v-2H0zm8 0v2h7c.554 0 1-.446 1-1v-1H8z" stroke-width="2.089"/><g stroke-width="1.581"><rect x="4" y="5" width="2" height="5" rx=".014" ry="0"/><rect x="7" y="5" width="2" height="5" rx="0" ry="0"/><rect x="10" y="5" width="2" height="5" rx="0" ry="0"/></g></g></svg>