<svg width="16" height="16" version="1.1" xmlns="http://www.w3.org/2000/svg">
 <path d="m2.281 6c-0.71 0-1.281 0.571-1.281 1.281v7.438c0 0.71 0.571 1.28 1.281 1.28h4.439c0.71 0 1.28-0.57 1.28-1.28v-7.439c0-0.709-0.57-1.28-1.28-1.28h-4.44zm0.13 1h0.589c0 0.554 0.446 1 1 1h1c0.554 0 1-0.446 1-1h0.59c0.227 0 0.41 0.182 0.41 0.41v7.11c0 0.266-0.214 0.48-0.48 0.48h-4.04c-0.26533 5.54e-4 -0.48055-0.21467-0.48-0.48v-7.11c0-0.228 0.182-0.41 0.41-0.41z" fill="#363636"/>
 <path d="m3 2c-1.108 0-2 0.892-2 2v1h1v-1c0-0.554 0.446-1 1-1h10c0.554 0 1 0.446 1 1v7c0 0.554-0.446 1-1 1h-4v1h4c1.108 0 2-0.892 2-2v-7c0-1.108-0.892-2-2-2z" fill="#363636" stroke-linecap="square" stroke-width="2"/>
 <rect x="9" y="14" width="4" height="1" fill="#363636" stroke-linecap="square" stroke-width="2"/>
</svg>
