<svg width="16" height="16" version="1" xmlns="http://www.w3.org/2000/svg">
 <path d="m2 5.462h0.76782v0.75601h-0.76782zm11.232 0.75601h0.76782v4.3201c-0.66049-0.05904-0.76782-0.29289-0.76782-0.72057zm-6.0481 0.043876h0.76782v0.92814h0.76782v0.75601h-0.76782v1.08c0 0.19505 0.041622 0.75601 0.24975 0.75601h0.51807v0.75601h-0.76782c-0.71502 0-0.76782-0.88479-0.76782-1.3618zm-5.1841 0.82014h0.76782v3.4561c-0.66041-0.056678-0.76782-0.62557-0.76782-1.0361zm1.4395 0h1.9204c0.76617-0.00802 1.1526 0.59868 1.1526 1.0361v2.4199h-0.76782v-2.4199c0-0.18248-0.25826-0.34426-0.5147-0.34426h-1.0226v2.7642h-0.76782zm7.9466 0h0.0017c0.92622 8.324e-4 1.4597 0.72922 1.4597 1.6858v0.38813h-2.1938c0.03533 0.38776 0.29996 0.66995 0.7577 0.66995 0.38631 0 0.57885-0.10467 0.80158-0.31894l0.53495 0.49951c-0.34484 0.3297-0.70505 0.52988-1.3433 0.52988-0.83256 0-1.6285-0.44232-1.6285-1.7314 0-1.1009 0.69443-1.7223 1.6099-1.723zm-0.07593 0.69189c-0.42366 9.26e-5 -0.76722 0.30892-0.76783 0.6902h1.5373c-6.15e-4 -0.38187-0.3452-0.69094-0.76952-0.6902z" fill="#363636" stroke-width=".86402"/>
 <path d="m2 1c-1.108 0-2 0.892-2 2v10c0 1.108 0.892 2 2 2h12c1.108 0 2-0.892 2-2v-10c0-1.108-0.892-2-2-2zm0 1h12c0.554 0 1 0.446 1 1v10c0 0.554-0.446 1-1 1h-12c-0.554 0-1-0.446-1-1v-10c0-0.554 0.446-1 1-1z" fill="#363636" fill-rule="evenodd" stop-color="#000000" stroke-width="0" style="paint-order:stroke fill markers"/>
</svg>
