<svg height='16.01' width='16' xmlns='http://www.w3.org/2000/svg'>
  <path
     color="#000000"
     d="M 3.938,0.007 C 3.578,0.054 3,0.257 3,1.007 v 2 c 0,0 -1,0 -1,1 v 3 H 1 c 0,0 -1,0 -1,1 v 5.5 c 0,0.5 0.5,0.5 0.5,0.5 H 1 c 0,1 1,1 1,1 0,0 0,1 1,1 h 6.719 a 4.557,4.557 0 0 1 -0.938,-1 h -5.78 v -1 h 5.28 a 4.417,4.417 0 0 1 -0.218,-1 H 1 V 8.569 C 1,8.148 1.378,8.033 1.563,8.007 a 0.25,0.25 0 0 1 0.093,0 h 12.688 c 0,0 0.656,0 0.656,0.563 v 0.218 c 0.381,0.258 0.714,0.579 1,0.938 V 8.007 c 0,-1 -1,-1 -1,-1 h -1 v -3 c 0,-1 -1,-1 -1,-1 v -2 c 0,-1 -1,-1 -1.187,-1 H 4.188 c -0.047,0 -0.13,-0.016 -0.25,0 z m 0.062,1 h 8 v 6 H 4 Z"
     fill="#363636" />
  <path
     d="m 3,8.007 v 4 h 5.063 c 0.253,-2.238 2.135,-4 4.437,-4 z m 9.5,0 c 0.171,0 0.334,0.044 0.5,0.063 V 8.007 Z"
     fill="#363636"
     opacity="0.5" />
  <path
     class="error"
     d="m 12.5,9.007 a 3.5,3.5 0 1 0 0,7 3.5,3.5 0 0 0 0,-7 z m -0.5,1 h 1 v 3 h -1 z m 0,4 h 1 v 1 h -1 z"
     fill="#ef2929" />
</svg>
