<svg height="16.007" width="16" xmlns="http://www.w3.org/2000/svg"><path color="#000" d="M3.938.007c-.36.047-.938.25-.938 1v2s-1 0-1 1v3H1s-1 0-1 1v5.5c0 .5.5.5.5.5H1c0 1 1 1 1 1s0 1 1 1h10c1 0 1-1 1-1s1 0 1-1h.5c.5 0 .5-.42.5-.5v-5.5c0-1-1-1-1-1h-1v-3c0-1-1-1-1-1v-2c0-1-1-1-1.187-1H4.188c-.047 0-.13-.016-.25 0zm.062 1h8v6H4zm-2.437 7a.25.25 0 01.093 0h12.688s.656 0 .656.562v4.438H1V8.569c0-.421.378-.536.563-.562zm1.437 6h10v1H3z" fill="#363636" font-family="Sans" font-weight="400" overflow="visible" style="line-height:normal;-inkscape-font-specification:Sans;text-indent:0;text-align:start;text-decoration-line:none;text-transform:none;marker:none"/><path d="M3 8.007v4h10v-4z" fill="#363636" opacity=".5"/><path class="success" d="M7 2l2.03.011L9 3h1L8.04 6.002 6 3l.993.002z" fill="#363636"/></svg>