<svg xmlns="http://www.w3.org/2000/svg" width="16" height="16" version="1"><path d="M7.994 0a8 8 0 00-3.142.645 3 3 0 011.11 1.896 1 1 0 01.034.34 3 3 0 010 .004A3 3 0 016 3a3 3 0 01-3 3 3 3 0 01-.111-.006 1 1 0 01-.368-.037A3 3 0 01.646 4.859 8 8 0 00-.006 8a8 8 0 008 8 8 8 0 005.631-2.326c-.607-.241-1.182-.511-1.697-.844a1 1 0 01-.428 1.232 1 1 0 01-1.365-.367 1 1 0 01.365-1.365 1 1 0 01.477-.133 1 1 0 01.158.01c-.55-.522-.964-1.224-1.084-2.02A3 3 0 018 11a3 3 0 01-3-3 3 3 0 013-3 3 3 0 013 3 3 3 0 01-.002.041c.13-.03.25-.044.342-.041.187.006.308.037.437.066a1 1 0 01.03.006l1.279.33A1 1 0 0113 8a1 1 0 011-1 1 1 0 011 1 1 1 0 01-.395.795l1.3.336A8 8 0 0015.994 8a8 8 0 00-8-8zM3 1a2 2 0 00-2 2 2 2 0 002 2 2 2 0 002-2 2 2 0 00-2-2zm5 0a1 1 0 011 1 1 1 0 01-1 1 1 1 0 01-1-1 1 1 0 011-1zm2.953.805a1 1 0 01.547.133 1 1 0 01.365 1.367 1 1 0 01-1.365.365 1 1 0 01-.365-1.365 1 1 0 01.818-.5zM13.172 4a1 1 0 01.89.5 1 1 0 01-.367 1.365A1 1 0 0112.33 5.5a1 1 0 01.365-1.365A1 1 0 0113.172 4zM2 7a1 1 0 011 1 1 1 0 01-1 1 1 1 0 01-1-1 1 1 0 011-1zm9.307 2c-.19-.006-.214.097-.27.371-.28 1.804 1.354 2.804 3.502 3.584.256.091.278.046.434-.148.284-.368.452-.756.591-1.162.125-.364.225-.741.364-1.13.139-.328.089-.321-.26-.411L11.557 9.04a1.431 1.431 0 00-.25-.041zm-8.528 1a1 1 0 01.89.5 1 1 0 01-.364 1.365 1 1 0 01-1.368-.365 1 1 0 01.368-1.365A1 1 0 012.779 10zm2.174 2.197a1 1 0 01.547.133 1 1 0 01.365 1.365 1 1 0 01-1.365.367 1 1 0 01-.365-1.367 1 1 0 01.818-.498zM8 13a1 1 0 011 1 1 1 0 01-1 1 1 1 0 01-1-1 1 1 0 011-1z" fill="#363636"/></svg>