<svg height="16" width="16" xmlns="http://www.w3.org/2000/svg"><path color="#000" d="M8.488 1.021A7.006 7.006 0 001 8.003a7.006 7.006 0 005.192 6.762 7.009 7.009 0 007.877-3.262.5.5 0 10-.868-.5 5.999 5.999 0 01-6.752 2.795A5.996 5.996 0 012 8.003a5.996 5.996 0 0110.71-3.709L11 6.003h4v-4l-1.58 1.58a7.012 7.012 0 00-4.932-2.562zM8 4.003c-1.108 0-2 .91-2 2.031v.969h-.5s-.5 0-.5.5v3s0 .5.5.5h5s.5 0 .5-.5v-3c0-.5-.5-.5-.5-.5H10v-.969c0-1.12-.892-2.031-2-2.031zm0 1c.554 0 1 .442 1 1v1H7v-1c0-.558.446-1 1-1z" fill="#363636" font-family="sans-serif" font-weight="400" overflow="visible" style="line-height:normal;font-variant-ligatures:normal;font-variant-position:normal;font-variant-caps:normal;font-variant-numeric:normal;font-variant-alternates:normal;font-feature-settings:normal;text-indent:0;text-align:start;text-decoration-line:none;text-decoration-style:solid;text-decoration-color:#000;text-transform:none;text-orientation:mixed;shape-padding:0;isolation:auto;mix-blend-mode:normal"/></svg>