<svg width="16px" height="16px" version="1.1" viewBox="0 0 16 16" xmlns="http://www.w3.org/2000/svg">
 <path d="m4 1c-1.662 0-3 1.338-3 3v6c0 1.662 1.338 3 3 3h2v1h-2.5c-0.277 0-0.5 0.223-0.5 0.5s0.223 0.5 0.5 0.5h9c0.277 0 0.5-0.223 0.5-0.5s-0.223-0.5-0.5-0.5h-2.5v-1h2c1.662 0 3-1.338 3-3v-6c0-1.662-1.338-3-3-3h-6.3379zm0 1h0.66211l-2.6621 2.6602v-0.66016c0-1.108 0.892-2 2-2zm2.0762 0h1.4141l-5.4902 5.4883v-1.4141zm2.8281 0h1.4141l-8.2949 8.293c-0.013978-0.095797-0.023438-0.19317-0.023438-0.29297v-1.0957zm2.8281 0h0.26758c1.108 0 2 0.892 2 2v6c0 1.108-0.892 2-2 2h-8c-0.62225 0-1.1767-0.28168-1.543-0.72461zm-4.7324 11h2v1h-2z" fill="#363636"/>
</svg>
