<svg width="16" height="16" version="1.1" viewBox="0 0 16 16" xmlns="http://www.w3.org/2000/svg">
  <path
     d="M 2,1 C 0.892,1 0,1.892 0,3 v 10 c 0,1.108 0.892,2 2,2 h 12 c 1.108,0 2,-0.892 2,-2 V 3 C 16,1.892 15.108,1 14,1 Z m 0,1 h 12 c 0.55403,0 1,0.446 1,1 v 10 c 0,0.554 -0.44597,1 -1,1 H 2 C 1.44597,14 1,13.554 1,13 V 3 C 1,2.446 1.44597,2 2,2 Z"
     style="fill:#363636;stroke-linecap:round;stroke-linejoin:round" />
  <path
     d="M 3,3 C 2.44597,3 2,3.446 2,4 V 6 H 3 V 4 H 5 V 3 Z m 8,0 v 1 h 2 v 2 h 1 V 4 C 14,3.446 13.55402,3 13,3 Z m -9,7 v 2 c 0,0.554 0.44597,1 1,1 H 5 V 12 H 3 v -2 z m 11,0 v 2 h -2 v 1 h 2 c 0.55402,0 1,-0.446 1,-1 v -2 z"
     style="fill:#363636;stroke-linecap:round;stroke-linejoin:round" />
</svg>
