<svg width="16" height="16" version="1.1" viewBox="0 0 16 16" xmlns="http://www.w3.org/2000/svg">
  <path
     d="m 5,6 v 0.5 5 0.5 h 0.5 7 0.5 V 11.5 6.5 6 h -0.5 -7 z m 1,1 h 6 v 4 H 6 Z"
     color="#000000"
     style="text-indent:0;text-decoration-line:none;text-transform:none;fill:#363636" />
  <path
     d="M 2,1 C 0.892,1 0,1.892 0,3 v 10 c 0,1.108 0.892,2 2,2 h 12 c 1.108,0 2,-0.892 2,-2 V 3 C 16,1.892 15.108,1 14,1 Z m 0,1 h 12 c 0.55403,0 1,0.446 1,1 v 10 c 0,0.554 -0.44597,1 -1,1 H 2 C 1.44597,14 1,13.554 1,13 V 3 C 1,2.446 1.44597,2 2,2 Z"
     style="fill:#363636" />
</svg>
