<svg width="16" height="16" version="1.1" xmlns="http://www.w3.org/2000/svg">
 <path d="m8 0-7 2.1289v0.37109c0 4.1186 0.091497 6.5417 1.0293 8.4492 0.9378 1.9075 2.674 3.1428 5.7207 4.9062l0.25 0.14453 0.25-0.14453c3.0467-1.7635 4.7829-2.9987 5.7207-4.9062 0.9378-1.9075 1.0293-4.3306 1.0293-8.4492v-0.37109l-7-2.1289zm-0.99023 3h2v4l-0.5 2h-1l-0.5-2v-4zm0.95898 7a1 1 0 0 1 0.041016 0 1 1 0 0 1 0 2 1.0002 1.0002 0 0 1-0.041016-2z" color="#000000" color-rendering="auto" fill="#f9c440" image-rendering="auto" shape-rendering="auto" solid-color="#000000" style="block-progression:tb;isolation:auto;mix-blend-mode:normal;text-decoration-color:#000000;text-decoration-line:none;text-decoration-style:solid;text-indent:0;text-transform:none;white-space:normal"/>
</svg>
