<svg viewBox="0 0 16 16" xmlns="http://www.w3.org/2000/svg"><path class="warning" d="M7.959 1a1 1 0 00-.875.6L5.596 5H1.75C.83 5.001.4 6.137 1.086 6.748L4.08 9.4l-1.521 4.264c-.315.887.658 1.679 1.462 1.19L8 12.422c1-.684 1-.502 1-1.584V1.79L8.916 1.6a1 1 0 00-.957-.6zM8 2v9.25L3.5 14l1.75-4.898L1.75 6h4.5z" fill="#f9c440"/><path class="warning" d="M8 2L6.25 6h-4.5l3.5 3.102L3.5 14 8 11.25z" fill="#f9c440" opacity=".3"/><path d="M8 1c.097 0 .191.015.281.041A1 1 0 008 1zm.299.047c.088.027.17.067.246.117a1 1 0 00-.246-.117zm.25.119c.076.05.146.11.207.18a1 1 0 00-.207-.18zm.219.193c.06.072.11.153.148.24a1 1 0 00-.148-.24zM9 1.791v2.494L9.75 6h4.5l-3.5 3.102L12.5 14l-3.629-2.217c-.126.174-.374.3-.871.639l3.979 2.431a1 1 0 001.462-1.189L11.92 9.4l2.994-2.652A1 1 0 0014.25 5h-3.846L9 1.791z" fill="#363636" opacity=".75"/></svg>