<svg width="16" height="16" enable-background="new" version="1.1" xmlns="http://www.w3.org/2000/svg">
 <path d="m8 0c-4.4183 0-8 3.5817-8 8s3.5817 8 8 8 8-3.5817 8-8-3.5817-8-8-8zm-0.09375 1c0.03125-2.0927e-4 0.0625-2.0927e-4 0.09375 0 3.866 0 7 3.134 7 7 0 3.866-3.134 7-7 7-3.866 0-7-3.134-7-7-3.4384e-4 -3.8297 3.0769-6.9487 6.9062-7z" fill="#363636"/>
 <path d="m7.5 12v-6.0859l-2.3281 2.3281-0.70703-0.70703 3.5352-3.5352 3.5352 3.5352-0.70703 0.70703-2.3281-2.3281v6.0859h-1z" fill="#363636"/>
</svg>
