<svg width="16" height="16" version="1.1" xmlns="http://www.w3.org/2000/svg">
 <g fill="#363636">
  <path d="m8 1a7 7 0 0 0-7 7 7 7 0 0 0 7 7 7 7 0 0 0 7-7 7 7 0 0 0-7-7zm0 1a6 6 0 0 1 6 6 6 6 0 0 1-6 6 6 6 0 0 1-6-6 6 6 0 0 1 6-6z" opacity=".45"/>
  <path d="m7.9746 3a4.9749 4.9749 0 0 0-4.9746 4.9746 4.9749 4.9749 0 0 0 4.9746 4.9746 4.9749 4.9749 0 0 0 4.8555-3.9492h-2.0645a2.9749 2.9749 0 0 1-2.791 1.9492 2.9749 2.9749 0 0 1-2.9746-2.9746 2.9749 2.9749 0 0 1 2.9746-2.9746 2.9749 2.9749 0 0 1 2.8066 2h2.0586a4.9749 4.9749 0 0 0-4.8652-4z"/>
  <circle cx="8" cy="8" r="2" opacity=".45"/>
 </g>
</svg>
