<svg width="16" height="16" version="1.2" xmlns="http://www.w3.org/2000/svg">
 <path d="m13.657 2.3403a8 8 0 0 0-10.556-0.65601l0.71125 0.71125a7 7 0 0 1 9.1371 0.65186 7 7 0 0 1 1.2015 8.2726l-2.6157-2.6157-0.70711 0.70711 3.49 3.49a8 8 0 0 0-0.66153-10.561zm-11.97 0.75821a8 8 0 0 0 0.65601 10.556 8 8 0 0 0 10.556 0.65601l-0.71125-0.71125a7 7 0 0 1-9.1371-0.65186 7 7 0 0 1-1.1988-8.2698l2.613 2.613 0.70711-0.70711-2.7732-2.7732z" fill="#363636" fill-rule="evenodd" stop-color="#000000" stroke-width="0" style="paint-order:stroke fill markers"/>
</svg>
