<svg width="16" height="16" version="1.1" xmlns="http://www.w3.org/2000/svg">
 <rect x="7" y="1" width="1" height="7" rx=".5" ry=".5" fill="#363636" style="paint-order:stroke fill markers"/>
 <path d="m11.297 2.3926a0.5 0.5 0 0 0-0.33984 0.17773 0.5 0.5 0 0 0 0.06445 0.70508c1.254 1.0453 1.9787 2.5921 1.9785 4.2246 0 3.0435-2.4565 5.5-5.5 5.5-3.0435 0-5.5-2.4565-5.5-5.5 0.00231-1.6312 0.72854-3.1753 1.9824-4.2188a0.5 0.5 0 0 0 0.064453-0.70508 0.5 0.5 0 0 0-0.70508-0.064453c-1.4813 1.2327-2.3391 3.0612-2.3418 4.9883 0 3.5839 2.9161 6.5 6.5 6.5s6.5-2.9161 6.5-6.5c2e-4 -1.9286-0.85646-3.7592-2.3379-4.9941a0.5 0.5 0 0 0-0.36523-0.11328z" fill="#363636"/>
</svg>
