<svg width="16" height="16" version="1.1" xmlns="http://www.w3.org/2000/svg">
 <g transform="translate(-385.03 235)">
  <g transform="matrix(.52112 0 0 .52112 388.21 -231.62)" fill="#fff"></g>
  <circle transform="rotate(266.31)" cx="197.24" cy="394.25" r="0" enable-background="new" fill="#bebebe"/>
  <path transform="translate(385.03 -235)" d="m8 1a2 2 0 0 0-2 2h-3c-0.55399 0-1 0.446-1 1v10c0 0.554 0.44601 1 1 1h5.0078a5 5 0 0 1-0.89844-2h-3.1094v-1h3a5 5 0 0 1 0.10156-1h-3.1016v-1h3.4199a5 5 0 0 1 0.58789-1h-4.0078v-1h5.0098a5 5 0 0 1 2.9902-1h-8v-1h8v1a5 5 0 0 1 2 0.41992v-3.4199c0-0.554-0.44601-1-1-1h-3a2 2 0 0 0-2-2zm0 1a1 1 0 0 1 1 1 1 1 0 0 1-1 1 1 1 0 0 1-1-1 1 1 0 0 1 0.0058594-0.099609 1 1 0 0 1 0.99414-0.90039z" fill="#363636" fill-rule="evenodd" style="paint-order:stroke fill markers"/>
  <path d="m397.03-219a4 4 0 0 1-4-4 4 4 0 0 1 4-4 4 4 0 0 1 4 4 4 4 0 0 1-4 4zm-0.0996-1.75a0.5 0.5 0 0 0 0.5-0.49999 0.5 0.5 0 0 0-0.5-0.5 0.5 0.5 0 0 0-0.5 0.5 0.5 0.5 0 0 0 0.5 0.49999zm-0.0537-1.5h0.10652c0.17806 0 0.32226-0.14322 0.32226-0.32129v-2.3574c0-0.17807-0.1442-0.32128-0.32226-0.32128h-0.10652c-0.17807 0-0.32129 0.14321-0.32129 0.32128v2.3574c0 0.17807 0.14322 0.32129 0.32129 0.32129z" enable-background="new" fill="#f67d42" fill-rule="evenodd"/>
 </g>
</svg>
