<svg width="16" height="16" version="1.1" xmlns="http://www.w3.org/2000/svg">
  <circle
     cx="3.5"
     cy="8.5"
     r="1.5"
     style="fill:#363636" />
  <circle
     cx="7.5"
     cy="8.5"
     r="1.5"
     style="fill:#363636" />
  <circle
     cx="11.5"
     cy="8.5"
     r="1.5"
     style="fill:#363636" />
  <path
     d="m 9,0.99 c -1.013,0 -2.008,0.838 -2.008,2.008 v 3 h 1 v -3 C 7.992,2.443 8.592,1.99 9,1.99 c 0.403,0 1.008,0.468 1.008,1.008 v 3 h 1 v -3 C 11.008,1.834 10.018,0.99 9,0.99 Z m 5.504,1.927 c 0,0 -0.357,-0.015 -0.73,0.168 -0.374,0.183 -0.782,0.658 -0.782,1.332 v 1.581 h 1 V 4.417 c 0,-0.347 0.094,-0.372 0.221,-0.434 0.127,-0.062 0.27,-0.066 0.27,-0.066 z M 2.992,4.559 v 1.439 h 1 v -1.44 z m 0,6.439 v 2.46 c 0,1.506 1.273,2.55 2.52,2.5 a 2.68,2.68 0 0 0 1.666,-0.681 c 0.474,-0.424 0.814,-1.06 0.814,-1.819 v -2.46 h -1 v 2.46 c 0,0.47 -0.189,0.814 -0.48,1.075 -0.291,0.26 -0.694,0.412 -1.04,0.425 -0.636,0.026 -1.48,-0.574 -1.48,-1.5 v -2.46 z m 7.016,0 v 2 c 0,0.636 0.266,1.169 0.654,1.504 0.388,0.335 0.873,0.488 1.338,0.488 0.986,0 1.992,-0.801 1.992,-1.992 v -2 h -1 v 2 c 0,0.604 -0.57,0.992 -0.992,0.992 a 1.08,1.08 0 0 1 -0.683,-0.244 c -0.183,-0.158 -0.309,-0.371 -0.309,-0.748 v -2 z M 2,-0.002 v 2 H 1 v 1 c 0,1.108 0.892,2 2,2 h 1 c 1.108,0 2,-0.892 2,-2 v -1 H 5 v -2 H 4 v 2 H 3 v -2 z"
     opacity="0.5"
     style="fill:#363636" />
</svg>
