<svg width="16" height="16" version="1.1" xmlns="http://www.w3.org/2000/svg">
 <path d="m2 0c0 0.554 0.446 1 1 1v2c0 2.0554 1.2347 3.802 3 4.5723v0.85547c-1.7653 0.77022-3 2.5169-3 4.5723v2c-0.554 0-1 0.446-1 1h12c0-0.554-0.446-1-1-1v-2c0-2.0554-1.2347-3.802-3-4.5723v-0.85547c1.7653-0.77022 3-2.5169 3-4.5723v-2c0.554 0 1-0.446 1-1h-12zm2 1h8v2c0 1.8686-1.2737 3.4176-3 3.8613v1.0391 0.19922 1.0391c1.7263 0.44369 3 1.9928 3 3.8613v2h-2v-2c0-1.1046-0.89543-2-2-2-0.016275-1.99e-4 -0.032553-1.99e-4 -0.048828 0-1.0855 0.02649-1.9515 0.91421-1.9512 2-1.987e-4 0.01628-1.987e-4 0.032548 0 0.048828v1.9512h-2v-2c0-1.8686 1.2737-3.4176 3-3.8613v-0.13867-1.0996-1.0391c-1.7263-0.44369-3-1.9928-3-3.8613v-2zm1.1738 3c0.42351 1.1979 1.5556 1.9991 2.8262 2 1.2712-1.386e-4 2.4044-0.80148 2.8281-2h-5.6543z" fill="#363636"/>
</svg>
