<svg width="16" height="16" version="1.1" xmlns="http://www.w3.org/2000/svg">
 <path d="m2 1c-0.822 0-1.5 0.678-1.5 1.5v11c0 0.822 0.678 1.5 1.5 1.5h12c0.823 0 1.5-0.678 1.5-1.5v-11c0-0.822-0.677-1.5-1.5-1.5zm0 1h12c0.286 0 0.5 0.214 0.5 0.5v8.496h-13v-8.496c0-0.286 0.215-0.5 0.5-0.5zm-0.5 9.996h6.01v2.004h-5.51a0.488 0.488 0 0 1-0.5-0.5zm7.01 0h5.99v1.504c0 0.286-0.214 0.5-0.5 0.5h-5.49z" color="#000000" fill="#363636" font-weight="400" overflow="visible" style="font-feature-settings:normal;font-variant-alternates:normal;font-variant-caps:normal;font-variant-ligatures:normal;font-variant-numeric:normal;font-variant-position:normal;isolation:auto;mix-blend-mode:normal;shape-padding:0;text-decoration-color:#000000;text-decoration-line:none;text-decoration-style:solid;text-indent:0;text-orientation:mixed;text-transform:none"/>
</svg>
