<svg width="16px" height="16px" version="1.1" viewBox="0 0 16 16" xmlns="http://www.w3.org/2000/svg">
 <path d="m8 14c-0.277 0-0.5-0.223-0.5-0.5v-10.793l-3.3887 3.3887c-0.097934 0.09793-0.22571 0.14844-0.35352 0.14844s-0.25558-0.0505-0.35352-0.14844c-0.19587-0.19587-0.19587-0.51116 0-0.70703l4.2422-4.2422c0.022594-0.02259 0.047627-0.04261 0.074219-0.06055 0.013222-9e-3 0.027191-0.01589 0.041016-0.02344 0.016725-0.0091 0.032957-0.01821 0.050781-0.02539 0.027704-0.01116 0.055999-0.02125 0.085938-0.02734 0.033433-0.0069 0.067567-0.0098 0.10156-0.0098s0.068129 0.0028 0.10156 0.0098c0.0041 8.34e-4 0.00766 3e-3 0.011719 0.0039 0.025269 0.0059 0.049921 0.01355 0.074219 0.02344 0.017824 0.0072 0.034056 0.01629 0.050781 0.02539 0.013824 0.0076 0.027793 0.01448 0.041016 0.02344 0.02659 0.01793 0.05162 0.03795 0.07422 0.06055l4.2422 4.2422c0.19587 0.19587 0.19587 0.51116 0 0.70703s-0.51116 0.19587-0.70703 0l-3.3887-3.3887v10.793c-1.5e-6 0.277-0.223 0.5-0.5 0.5z" fill="#363636"/>
</svg>
