<svg width="16" height="16" version="1.1" xmlns="http://www.w3.org/2000/svg">
 <g transform="matrix(.75 0 0 .75 -211.75 190.62)" fill="#363636">
  <path d="m289-243c-1.6568 0-3 1.3432-3 3s1.3432 3 3 3c1.5587 0 2.8224-1.1984 2.9688-2.7188 0.29974-0.17924 0.65661-0.28125 1.0312-0.28125 0.37464 0 0.73151 0.10201 1.0312 0.28125 0.14632 1.5203 1.4101 2.7188 2.9688 2.7188 1.6568 0 3-1.3432 3-3s-1.3432-3-3-3c-1.3911 0-2.5354 0.96568-2.875 2.25-0.35167-0.1447-0.72114-0.25-1.125-0.25s-0.77333 0.1053-1.125 0.25c-0.33956-1.2843-1.4839-2.25-2.875-2.25zm0 1.25c0.9665 0 1.75 0.7835 1.75 1.75s-0.7835 1.75-1.75 1.75-1.75-0.7835-1.75-1.75 0.7835-1.75 1.75-1.75zm8 0c0.9665 0 1.75 0.7835 1.75 1.75s-0.7835 1.75-1.75 1.75-1.75-0.7835-1.75-1.75 0.7835-1.75 1.75-1.75z"/>
  <path d="m289-250-0.75 3h9.5l-0.75-3-4 0.5zm-1 4-3 2h16l-3-2z"/>
 </g>
</svg>
