<svg width="16" height="16" xmlns="http://www.w3.org/2000/svg"><g fill="#363636"><path d="M5 8.37a2.25 2.25 0 000 4.5 2.244 2.244 0 002.227-2.04A1.51 1.51 0 018 10.62c.281 0 .549.076.773.21A2.244 2.244 0 0011 12.87a2.25 2.25 0 000-4.5c-1.043 0-1.902.724-2.156 1.688C8.58 9.949 8.303 9.87 8 9.87s-.58.079-.844.188C6.902 9.094 6.043 8.37 5 8.37zm0 .938a1.312 1.312 0 110 2.624 1.312 1.312 0 010-2.624zm6 0a1.312 1.312 0 110 2.624 1.312 1.312 0 010-2.624zM5 3.12l-.563 2.25h7.125L11 3.12l-3 .375zm-.75 3L2 7.62h12l-2.25-1.5z"/></g></svg>