<svg width="16" height="16" version="1.1" xmlns="http://www.w3.org/2000/svg">
 <path d="m12.48 9.729a0.443 0.443 0 0 0-0.36 0.22l-3.061 5.397a0.437 0.437 0 0 0 0.379 0.654h6.125a0.437 0.437 0 0 0 0.378-0.654l-3.058-5.397a0.442 0.442 0 0 0-0.402-0.22zm-0.48 1.271h1v0.168c0 0.348-0.016 0.667-0.047 0.957s-0.069 0.581-0.115 0.875h-0.666a12.898 12.898 0 0 1-0.125-0.875 9.146 9.146 0 0 1-0.047-0.957zm0.5 3a0.5 0.5 0 1 1 0 1 0.5 0.5 0 0 1 0-1z" color="#000000" fill="#fdc92b" fill-rule="evenodd" stroke-linecap="round" stroke-linejoin="round" stroke-width="2" style="-inkscape-stroke:none"/>
 <path d="m12.738 1.2891c-0.37566 0.026625-0.62445 0.49009-0.2832 0.87109 1.6202 1.5104 2.5416 3.6249 2.5449 5.8398-0.0075 0.94026-0.18074 1.8718-0.51172 2.752l0.62109 1.0977c0.57837-1.2014 0.88258-2.5163 0.89062-3.8496-0.00257-2.4925-1.0386-4.8722-2.8613-6.5723-0.13625-0.107-0.27517-0.14755-0.40039-0.13867zm-2.3906 1.416c-0.39562 0.011812-0.64211 0.53577-0.25586 0.91602 1.2147 1.1326 1.9056 2.7181 1.9082 4.3789-0.0033 0.28451-0.02676 0.56843-0.07031 0.84961 0.15594-0.067919 0.32377-0.11003 0.49805-0.11914 0.0033-1.59e-5 0.0065-1.59e-5 0.0098 0 0.175-0.00775 0.3461 0.017638 0.50781 0.070312 0.033494-0.26566 0.051754-0.53303 0.054652-0.80078-0.001895-1.9383-0.80739-3.789-2.2246-5.1113-0.14675-0.13375-0.29586-0.18753-0.42774-0.18359zm-4.3477 0.29492-3 3h-2c-0.554 0-1 0.446-1 1v2c0 0.554 0.446 1 1 1h2l3 3zm2.0176 1.1836c-0.37584 0.016312-0.64502 0.51398-0.29102 0.89648 0.81045 0.75501 1.2715 1.8123 1.2734 2.9199-0.001278 1.1103-0.46396 2.1701-1.2773 2.9258-0.473 0.43 0.13969 1.1525 0.67969 0.73047 1.0168-0.94425 1.5955-2.2686 1.5977-3.6562-0.0017245-1.3844-0.57738-2.7062-1.5898-3.6504-0.13-0.1235-0.2673-0.17145-0.39258-0.16602z" fill="#363636"/>
</svg>
