<svg width="16" height="16" xmlns="http://www.w3.org/2000/svg"><path d="M6 1.143a.356.356 0 00-.357.357v1.429a.356.356 0 10.714 0V1.5A.356.356 0 006 1.143zm-3.283 1.36a.356.356 0 00-.253.61l1.01 1.01a.356.356 0 10.506-.505l-1.01-1.01a.356.356 0 00-.253-.105zm6.566 0a.356.356 0 00-.253.105l-1.01 1.01a.356.356 0 10.505.505l1.01-1.01a.356.356 0 00-.252-.61zM6 4a2.143 2.143 0 00-2.143 2.143A2.143 2.143 0 006 8.286a2.143 2.143 0 002.143-2.143A2.143 2.143 0 006 4zM1.357 5.786a.356.356 0 100 .714h1.429a.356.356 0 100-.714zm7.857 0a.356.356 0 100 .714h1.429a.356.356 0 100-.714zM3.727 8.058a.356.356 0 00-.252.105l-1.01 1.01a.356.356 0 10.505.505l1.01-1.01a.356.356 0 00-.253-.61zm4.546 0a.356.356 0 00-.253.61l1.01 1.01a.356.356 0 10.505-.505l-1.01-1.01a.356.356 0 00-.252-.105zM6 9a.356.356 0 00-.357.357v1.429a.356.356 0 10.714 0V9.357A.356.356 0 006 9z" fill="#363636" fill-rule="evenodd" opacity=".5" paint-order="stroke fill markers"/><path d="M9.729 7.345c-1.383 0-2.535.908-2.965 2.149a2.635 2.635 0 00-2.306 2.612 2.64 2.64 0 002.635 2.644h5.799A2.112 2.112 0 0015 12.635a2.112 2.112 0 00-2.11-2.116A3.168 3.168 0 009.73 7.345z" fill="#363636"/></svg>