<svg width="16" height="16.001" version="1.1" xmlns="http://www.w3.org/2000/svg">
 <path d="m12.783 10.806a0.5 0.5 0 0 0-0.193-0.68l-0.686-0.396 0.2-0.053a0.5 0.5 0 1 0-0.259-0.965l-1.166 0.311-1.67-0.964 1.668-0.964 1.166 0.313a0.5 0.5 0 1 0 0.26-0.964l-0.204-0.054 0.69-0.398a0.496 0.496 0 0 0 0.204-0.214c0.224-0.447-0.275-0.91-0.704-0.653l-0.687 0.398 0.053-0.2c0.212-0.666-0.816-0.942-0.965-0.26l-0.313 1.166-1.669 0.964-1e-3 -1.977 0.854-0.853a0.498 0.498 0 0 0 0.091-0.12c0.282-0.51-0.392-1.008-0.797-0.588l-0.148 0.146v-0.793c0.03-0.695-1.028-0.695-0.999 0v0.794l-0.146-0.148c-0.472-0.472-1.18 0.236-0.708 0.708l0.855 0.852-1e-3 1.978-1.844-1.064-0.313-1.166c-0.164-0.658-1.152-0.393-0.966 0.259l0.055 0.2-0.511-0.295c-0.578-0.333-1.078 0.533-0.5 0.866l0.51 0.295-0.2 0.054c-0.658 0.164-0.393 1.152 0.259 0.966l1.166-0.313 1.845 1.065-1.846 1.065-1.165-0.313c-0.66-0.2-0.93 0.811-0.258 0.966l0.2 0.054-0.512 0.296c-0.617 0.321-0.089 1.238 0.499 0.865l0.514-0.296-0.055 0.201c-0.163 0.569 0.623 0.899 0.915 0.384a0.497 0.497 0 0 0 0.051-0.124l0.313-1.168 1.845-1.066v2.08l-0.855 0.854c-0.505 0.47 0.234 1.21 0.706 0.707l0.149-0.147v0.59c-8e-3 0.533 0.712 0.705 0.947 0.228a0.5 0.5 0 0 0 0.051-0.228v-0.589l0.146 0.146a0.50063 0.50063 0 1 0 0.708-0.708l-0.854-0.853v-2.079l1.67 0.964 0.313 1.166c0.165 0.659 1.153 0.394 0.966-0.258l-0.054-0.201 0.687 0.396a0.5 0.5 0 0 0 0.692-0.187z" fill="#363636" opacity=".6"/>
</svg>
