<svg width="16" height="16" xmlns="http://www.w3.org/2000/svg"><g fill="#363636"><path d="M8 2C6.164 2 4.633 3.202 4.062 4.844 2.34 5.062 1 6.518 1 8.3a3.49 3.49 0 003.045 3.455c.04-.052.078-.105.125-.152-.113-.433-.085-.89.24-1.223l.006-.004.004-.004c.34-.34.8-.37 1.234-.254.32-.309.728-.51 1.174-.392h.002c.045.011.079.036.12.052.048-.064.097-.128.153-.187-.112-.433-.083-.89.243-1.223l.004-.006.003-.004c.34-.34.798-.368 1.233-.252.32-.31.73-.511 1.178-.394.458.12.713.509.834.941.432.121.819.375.939.834.117.447-.084.854-.393 1.174.106.392.076.799-.177 1.125l.008.014h1.224a2.801 2.801 0 000-5.602C12.2 3.88 10.32 2 8 2z"/><path d="M4.953 12.162l.657-.17-.483-.487a.302.302 0 010-.425.302.302 0 01.426 0l.485.482.171-.656a.3.3 0 11.579.156l-.177.656.657-.177a.3.3 0 11.156.579l-.657.17.483.487c.117.114.117.309 0 .426s-.312.116-.426 0l-.486-.483-.17.656a.3.3 0 11-.579-.156l.177-.656-.657.177a.3.3 0 11-.156-.579zM8.488 13.774l.657-.17-.483-.487a.302.302 0 010-.425.302.302 0 01.426 0l.486.482.17-.656a.3.3 0 11.579.156l-.177.656.657-.177a.3.3 0 11.156.579l-.657.17.483.487c.117.114.117.309 0 .426s-.312.116-.426 0l-.486-.483-.17.656a.3.3 0 11-.579-.156l.177-.656-.657.177a.3.3 0 11-.156-.579zM7.887 10.149l.657-.17-.483-.487a.302.302 0 010-.425.302.302 0 01.426 0l.486.482.17-.656a.3.3 0 11.579.156l-.177.656.657-.177a.3.3 0 11.156.579l-.657.17.483.487c.117.114.117.309 0 .426s-.312.116-.426 0l-.486-.483-.17.656a.3.3 0 11-.579-.156l.177-.656-.657.177a.3.3 0 11-.156-.579z" opacity=".5"/></g></svg>