<svg width="16" height="16" xmlns="http://www.w3.org/2000/svg"><g fill="#363636"><path d="M8 2C6.164 2 4.633 3.202 4.062 4.844 2.34 5.062 1 6.518 1 8.3a3.489 3.489 0 003.053 3.455l.504-1.906v-.002A1.556 1.556 0 015.84 8.709c.203-.028.41-.015.607.037.288.076.469.302.66.508.245-.279.55-.494.914-.545.204-.028.412-.015.608.037.288.076.469.302.66.508.245-.279.549-.494.914-.545.203-.028.411-.015.608.037a1.555 1.555 0 011.097 1.887v.002l-.314 1.166h.605a2.801 2.801 0 000-5.602C12.2 3.88 10.32 2 8 2z"/><path d="M5.977 9.7a.541.541 0 00-.452.4l-.697 2.634c-.087.29.08.59.375.666.29.077.59-.094.666-.388l.71-2.635a.545.545 0 00-.602-.678zm2.181 0a.541.541 0 00-.451.4l-1.135 4.21c-.076.295.1.583.389.67a.54.54 0 00.67-.386l1.129-4.217a.545.545 0 00-.602-.678zm2.182 0a.541.541 0 00-.451.4l-.698 2.634c-.087.29.083.59.377.666a.542.542 0 00.664-.388l.71-2.635a.545.545 0 00-.602-.678z"/><path d="M.933 13.442l.656-.17-.482-.487a.302.302 0 010-.425.302.302 0 01.425 0l.486.482.171-.656a.3.3 0 11.579.156l-.177.656.657-.177a.3.3 0 11.156.579l-.657.17.483.487c.117.114.117.309 0 .426s-.312.116-.426 0L2.318 14l-.17.656a.3.3 0 11-.579-.156l.176-.656-.656.177a.3.3 0 11-.156-.579zM11.612 13.871l.657-.17-.483-.487a.302.302 0 010-.425.302.302 0 01.426 0l.485.482.171-.656a.3.3 0 11.579.156l-.177.656.657-.177a.3.3 0 11.156.579l-.657.17.483.487c.117.114.117.309 0 .426s-.312.116-.426 0l-.486-.483-.17.656a.3.3 0 11-.579-.156l.177-.656-.657.177a.3.3 0 11-.156-.579z" opacity=".5" stroke-width="1.167"/></g></svg>