<svg width="16" height="16" xmlns="http://www.w3.org/2000/svg"><g stroke-width=".857" fill="#363636"><path d="M7.3 1.032c-2.579.095-4.955 1.684-5.892 4.258-1.18 3.24.344 6.835 3.442 8.223a3.078 3.078 0 01-.117-.991c.026-.934.545-1.761 1.284-2.304A6.061 6.061 0 014.82 4.065C5.3 2.747 6.197 1.725 7.3 1.032zm.175 10.382c-.39.16-.707.454-.817.875-.247.77.314 1.637 1.109 1.75a6.554 6.554 0 004.433-1.955v-.145c-1.195.35-2.503.37-3.762-.088a6.076 6.076 0 01-.963-.437z" color="#363636"/><path d="M10.334 8.468c-1.225 0-2.245.802-2.625 1.896A2.327 2.327 0 008 15h5.134a1.866 1.866 0 100-3.733 2.8 2.8 0 00-2.8-2.8z"/></g></svg>