<svg width="16" height="16" xmlns="http://www.w3.org/2000/svg"><path d="M8 3C6.164 3 4.633 4.202 4.062 5.844 2.34 6.062 1 7.518 1 9.3a3.5 3.5 0 003.5 3.5h.137c-.01-.089-.021-.178-.018-.264.022-.53.222-.98.473-1.375l1.681-2.914.682 1.18L9.107 6.57l1.68 2.909c.273.422.486.885.496 1.431.01.543-.25 1.097-.621 1.477a1.831 1.831 0 01-.639.414H12.2a2.801 2.801 0 000-5.602C12.2 4.88 10.32 3 8 3zm1.107 7.566c-.118.192-.154.338-.156.375-.001.038-.034-.015.03.05l.005.005.008.008c.001.001-.09-.014.113-.014.204 0 .115.015.116.014l.005-.008.008-.006c.095-.096.047-.04.047-.043 0-.003-.02-.14-.176-.38zm-2.334 1.68c-.118.192-.154.336-.156.373-.001.038-.034-.017.03.047l.007.008.006.006c.001 0-.09-.014.113-.014.204 0 .115.015.116.014l.005-.006.008-.008c.095-.096.047-.04.047-.043 0-.003-.02-.136-.176-.377z" fill="#363636"/><g fill="#5294e2" stroke-width=".857"><path d="M7.613 11.699l-.839-1.451-.838 1.45c-.377.594-.47 1.196 0 1.672.244.256.541.297.838.297s.595-.041.84-.297c.469-.476.43-1.005 0-1.671zM9.946 10.021L9.108 8.57l-.839 1.451c-.377.593-.47 1.196 0 1.671.244.256.542.298.839.298s.595-.042.838-.298c.47-.475.43-1.005 0-1.67z"/></g></svg>