<svg width="16" height="16" xmlns="http://www.w3.org/2000/svg"><path d="M8 3.1c-1.836 0-3.367 1.202-3.938 2.843C2.34 6.162 1 7.618 1 9.4a3.5 3.5 0 003.5 3.5h1.844v-.334c0-.445.049-.851.248-1.261.206-.452.512-.764.904-1.1.288-.247.426-.433.416-.408a.959.959 0 00.028-.201h-.05c-.141 0-.476.068-.933.275l-.918.416-1.096-2.465.875-.42c.702-.336 1.387-.535 2.073-.535.748 0 1.484.24 2.015.75.54.48.844 1.207.844 1.926 0 .46-.084.912-.289 1.322-.224.449-.55.784-.977 1.159-.306.285-.455.464-.482.49.003-.001-.002-.003-.002.127v.26h3.2a2.8 2.8 0 100-5.6A4.2 4.2 0 008 3.1z" fill="#363636"/><path d="M7.344 12.713v-.146q0-.546.146-.838.146-.328.656-.765t.656-.692q.145-.292.145-.73t-.291-.692q-.255-.255-.765-.255-.547 0-1.349.365l-.291-.656q.91-.438 1.64-.438.874 0 1.348.474.51.437.51 1.203 0 .51-.182.874-.182.365-.765.875-.547.51-.693.729-.109.218-.109.62v.072zm.947 1.385q0 .328-.145.51-.146.146-.438.146t-.437-.146q-.146-.182-.146-.51t.146-.474q.146-.146.437-.146t.438.146.145.474z" fill="#f55" aria-label="?"/></svg>