<svg width="16" height="16" xmlns="http://www.w3.org/2000/svg"><path d="M8 3C6.164 3 4.633 4.202 4.062 5.844 2.34 6.062 1 7.517 1 9.3a3.5 3.5 0 003.5 3.5h7.7a2.8 2.8 0 100-5.6A4.2 4.2 0 008 3z" fill="#363636"/><path d="M53 4a2.5 2.5 0 00-2.164 1.254A1.5 1.5 0 0050 5a1.5 1.5 0 00-1.5 1.5 1.5 1.5 0 00.102.543A2 2 0 0047 9a2 2 0 002 2h6a2 2 0 002-2 2 2 0 00-1.564-1.951A2.5 2.5 0 0055.5 6.5 2.5 2.5 0 0053 4z" fill="#fafafa" opacity=".6"/><path d="M11.504 1.5l.184.816.828.196-.83.168-.16.82-.19-.83-.82-.182.816-.162zM14 3l.277 1.225 1.239.29-1.244.255-.24 1.23-.286-1.244-1.23-.272 1.224-.246z" color="#000" fill="#363636" style="font-feature-settings:normal;font-variant-alternates:normal;font-variant-caps:normal;font-variant-east-asian:normal;font-variant-ligatures:normal;font-variant-numeric:normal;font-variant-position:normal;font-variation-settings:normal;inline-size:0;isolation:auto;mix-blend-mode:normal;shape-margin:0;shape-padding:0;text-decoration-color:#000;text-decoration-line:none;text-decoration-style:solid;text-indent:0;text-orientation:mixed;text-transform:none;white-space:normal"/></svg>