<svg width="16" height="16" xmlns="http://www.w3.org/2000/svg"><path d="M9 5.784a3.743 3.743 0 00-3.445 2.297A2.986 2.986 0 003 11.034a3 3 0 003 3h6.375A2.625 2.625 0 0015 11.409a2.618 2.618 0 00-2.32-2.601A3.759 3.759 0 009 5.784z" fill="#363636"/><path d="M6 1.143a.356.356 0 00-.357.357v1.429a.356.356 0 10.714 0V1.5A.356.356 0 006 1.143zm-3.283 1.36a.356.356 0 00-.253.61l1.01 1.01a.356.356 0 10.506-.505l-1.01-1.01a.356.356 0 00-.253-.105zm6.566 0a.356.356 0 00-.253.105l-1.01 1.01a.356.356 0 10.505.505l1.01-1.01a.356.356 0 00-.252-.61zM6 4a2.143 2.143 0 00-2.143 2.143A2.143 2.143 0 006 8.286a2.143 2.143 0 002.143-2.143A2.143 2.143 0 006 4zM1.357 5.786a.356.356 0 100 .714h1.429a.356.356 0 100-.714zm7.857 0a.356.356 0 100 .714h1.429a.356.356 0 100-.714zM3.727 8.058a.356.356 0 00-.252.105l-1.01 1.01a.356.356 0 10.505.505l1.01-1.01a.356.356 0 00-.253-.61zm4.546 0a.356.356 0 00-.253.61l1.01 1.01a.356.356 0 10.505-.505l-1.01-1.01a.356.356 0 00-.252-.105zM6 9a.356.356 0 00-.357.357v1.429a.356.356 0 10.714 0V9.357A.356.356 0 006 9z" fill="#363636" fill-rule="evenodd" opacity=".5" paint-order="stroke fill markers"/></svg>