<svg width="16" height="16.001" version="1.1" xmlns="http://www.w3.org/2000/svg">
 <path d="m14.072 11.562a0.63477 0.63477 0 0 0-0.24502-0.86329l-0.87091-0.50274 0.25391-0.06729a0.63477 0.63477 0 1 0-0.32881-1.2251l-1.4803 0.39483-2.1201-1.2238 2.1176-1.2238 1.4803 0.39737a0.63477 0.63477 0 1 0 0.33008-1.2238l-0.25899-0.068555 0.87598-0.50528a0.62969 0.62969 0 0 0 0.25899-0.27168c0.28438-0.56749-0.34912-1.1553-0.89376-0.82901l-0.87218 0.50528 0.06729-0.25391c0.26914-0.84552-1.036-1.1959-1.2251-0.33008l-0.39737 1.4803-2.1189 1.2238-0.0012695-2.5099 1.0842-1.0829a0.63223 0.63223 0 0 0 0.11553-0.15235c0.35801-0.64747-0.49766-1.2797-1.0118-0.74649l-0.18789 0.18535v-1.0067c0.038086-0.88233-1.3051-0.88233-1.2683 0v1.008l-0.18535-0.18789c-0.59922-0.59922-1.4981 0.29961-0.89884 0.89884l1.0855 1.0817-0.0012695 2.5112-2.341-1.3508-0.39737-1.4803c-0.20821-0.83536-1.4625-0.49893-1.2264 0.32881l0.069825 0.25391-0.64874-0.37452c-0.7338-0.42276-1.3686 0.67667-0.63477 1.0994l0.64747 0.37452-0.25391 0.068555c-0.83536 0.20821-0.49893 1.4625 0.32881 1.2264l1.4803-0.39737 2.3423 1.3521-2.3436 1.3521-1.479-0.39737c-0.8379-0.25391-1.1807 1.0296-0.32754 1.2264l0.25391 0.06855-0.65001 0.37578c-0.78331 0.40752-0.11299 1.5717 0.6335 1.0982l0.65255-0.37578-0.069825 0.25518c-0.20694 0.72237 0.79093 1.1413 1.1616 0.4875a0.63096 0.63096 0 0 0 0.064747-0.15742l0.39737-1.4828 2.3423-1.3533v2.6407l-1.0855 1.0842c-0.64112 0.59669 0.29707 1.5361 0.8963 0.89757l0.18916-0.18662v0.74903c-0.010156 0.67667 0.90392 0.89503 1.2023 0.28946a0.63477 0.63477 0 0 0 0.064747-0.28946v-0.74776l0.18535 0.18535a0.63557 0.63557 0 1 0 0.89884-0.89884l-1.0842-1.0829v-2.6394l2.1201 1.2238 0.39737 1.4803c0.20948 0.83663 1.4638 0.5002 1.2264-0.32754l-0.06856-0.25518 0.87218 0.50274a0.63477 0.63477 0 0 0 0.87852-0.2374z" fill="#363636" stroke-width="1.2695"/>
</svg>
