<svg width="16" height="16" version="1.1" xmlns="http://www.w3.org/2000/svg">
 <path d="m3 1c-1.108 0-2 0.892-2 2v10c0 1.108 0.892 2 2 2h5.7617c-0.20691-0.31135-0.37421-0.64727-0.49805-1h-5.2637c-0.554 0-1-0.446-1-1v-10c0-0.554 0.446-1 1-1h10c0.554 0 1 0.446 1 1v5.2637c0.35263 0.12322 0.68855 0.28986 1 0.49609v-5.7598c0-1.108-0.892-2-2-2h-10z" fill="#363636"/>
 <path d="m12.5 9c-1.933 0-3.5 1.567-3.5 3.5s1.567 3.5 3.5 3.5 3.5-1.567 3.5-3.5-1.567-3.5-3.5-3.5zm-0.5 1h1v2h2v1h-2v2h-1v-2h-2v-1h2z" fill="#363636"/>
 <rect x="2" y="4" width="12" height="1" rx="0" ry="0" fill="#363636" fill-rule="evenodd"/>
</svg>
