<svg width="16" height="16" version="1.1" xmlns="http://www.w3.org/2000/svg">
 <defs>fill="none" opacity="0"/&gt;
  
class="ColorScheme-Text" fill="currentColor" /&gt;</defs>
 <path d="m13.928 2.3008c-0.10547-0.0025382-0.21064 0.025903-0.30469 0.087891-0.27362 0.1767-0.31314 0.51235-0.125 0.81445 0.82322 1.2537 1.3496 2.7934 1.4062 4.4961a4.5 4.5 0 0 1 1.0742 0.94727c0.013253-0.21255 0.021484-0.42574 0.021484-0.64258 0-2.0577-0.61558-3.9231-1.6074-5.4336-0.11398-0.17456-0.28905-0.2653-0.46484-0.26953zm-7.6914 0.5957c-0.29071 0-0.50275 0.11978-0.81055 0.42188l-2.3828 2.2285c-0.034204 0.034197-0.079561 0.050781-0.13086 0.050781h-1.6133c-0.8436 0-1.2988 0.46806-1.2988 1.3516v2.1191c0 0.8835 0.45523 1.3516 1.2988 1.3516h1.6133c0.051299 0 0.090956 0.016601 0.13086 0.050781l2.3828 2.2461c0.28501 0.27362 0.52585 0.39258 0.82227 0.39258v0.001953c0.42745 0 0.74023-0.32038 0.74023-0.74219v-8.7031c0-0.4275-0.31308-0.76953-0.75195-0.76953zm5.3867 0.93945c-0.10414-9.366e-4 -0.21026 0.029813-0.30859 0.091797-0.27355 0.17101-0.31268 0.51235-0.10742 0.81445 0.44154 0.64984 0.74303 1.4435 0.875 2.2949a4.5 4.5 0 0 1 0.41797-0.037109 4.5 4.5 0 0 1 0.69141 0.056641c-0.14207-1.1068-0.52994-2.148-1.1133-2.9629-0.11402-0.16744-0.28151-0.25625-0.45508-0.25781zm-2.3105 1.5312c-0.10133 9.686e-4 -0.20302 0.031762-0.29492 0.09375-0.27932 0.1824-0.32973 0.51902-0.10742 0.84961 0.3135 0.4503 0.48828 1.0548 0.48828 1.6875 0 0.093041-0.0042056 0.18418-0.011719 0.27539a4.5 4.5 0 0 1 1.0762-0.76953c-0.079746-0.72207-0.32826-1.3933-0.70508-1.9004-0.11041-0.15675-0.27643-0.23794-0.44531-0.23633z" fill="#363636" opacity=".35"/>
 <path d="m12.5 8c-1.933 0-3.5 1.567-3.5 3.5s1.567 3.5 3.5 3.5 3.5-1.567 3.5-3.5-1.567-3.5-3.5-3.5zm-1.4141 1.5859c0.12781 0 0.25558 0.04855 0.35352 0.14648l1.0605 1.0605 1.0605-1.0605c0.19587-0.19587 0.51116-0.19587 0.70703 0s0.19587 0.51116 0 0.70703l-1.0605 1.0605 1.0605 1.0605c0.19587 0.19587 0.19587 0.51116 0 0.70703s-0.51116 0.19587-0.70703 0l-1.0605-1.0605-1.0605 1.0605c-0.19587 0.19587-0.51116 0.19587-0.70703 0s-0.19587-0.51116 0-0.70703l1.0605-1.0605-1.0605-1.0605c-0.19587-0.19587-0.19587-0.51116 0-0.70703 0.09793-0.097934 0.22571-0.14648 0.35352-0.14648z" fill="#363636"/>
</svg>
