<svg width="16" height="16" version="1.1" xmlns="http://www.w3.org/2000/svg">
 <path d="m8 0c-1.662 0-3 1.338-3 3v2 2 0.5c0 1.662 1.338 3 3 3s3-1.338 3-3v-0.5-2-2c0-1.662-1.338-3-3-3zm0 1.5c0.831 0 1.5 0.669 1.5 1.5v2h-3v-2c0-0.831 0.669-1.5 1.5-1.5z" fill="#363636"/>
 <path d="m3.25 5.75a0.75 0.75 0 0 0-0.75 0.75v1c0 2.7924 2.0604 5.0855 4.75 5.4492v1.5508h-2c-0.4155 0-0.75 0.3345-0.75 0.75s0.3345 0.75 0.75 0.75h5.5c0.4155 0 0.75-0.3345 0.75-0.75s-0.3345-0.75-0.75-0.75h-2v-1.5508c2.6896-0.36376 4.75-2.6568 4.75-5.4492v-1a0.75 0.75 0 0 0-0.75-0.75 0.75 0.75 0 0 0-0.75 0.75v1c0 2.216-1.784 4-4 4s-4-1.784-4-4v-1a0.75 0.75 0 0 0-0.75-0.75z" fill="#363636" stroke-linecap="round" stroke-linejoin="round" stroke-width="1.5732" style="paint-order:fill markers stroke"/>
</svg>
