<svg width="16" height="16" version="1.1" xmlns="http://www.w3.org/2000/svg">
 <path class="error" d="m7.0899 5c0.49322 0 0.89418 0.14677 1.2031 0.43945 0.30894 0.28726 0.46289 0.6556 0.46289 1.1055 0 0.19512-0.05132 0.39321-0.1543 0.59375s-0.19409 0.34297-0.27539 0.42969c-0.07588 0.081301-0.18525 0.18828-0.32617 0.31836l-0.03906 0.041016c-0.33062 0.2981-0.4961 0.59447-0.4961 0.89258v0.32617h-0.76562v-0.38281c0-0.2439 0.05132-0.45156 0.1543-0.625 0.10298-0.17886 0.28476-0.38847 0.54492-0.62695 0.14634-0.1355 0.24897-0.23574 0.30859-0.30078 0.06504-0.070461 0.12788-0.16396 0.1875-0.2832 0.06504-0.12466 0.09766-0.25273 0.09766-0.38281 0-0.24932-0.08154-0.4498-0.24414-0.60156-0.15718-0.15176-0.37636-0.22852-0.6582-0.22852-0.46612 0-0.78554 0.26092-0.95898 0.78125l-0.69922-0.29297c0.11382-0.30894 0.30951-0.58618 0.58594-0.83008 0.28184-0.24932 0.63866-0.37305 1.0723-0.37305zm-0.0078 4.8945c0.15718 0 0.28764 0.05371 0.39062 0.16211 0.1084 0.1084 0.16211 0.23886 0.16211 0.39062s-0.05371 0.28222-0.16211 0.39062c-0.10298 0.1084-0.23345 0.16211-0.39063 0.16211s-0.29004-0.05371-0.39844-0.16211c-0.10298-0.1084-0.1543-0.23886-0.1543-0.39062s0.05132-0.28222 0.1543-0.39062c0.1084-0.1084 0.24126-0.16211 0.39844-0.16211z" fill="#ff5555"/>
 <path d="m3.3125 3c-0.66596 0-1.7127 0.14822-2.4258 0.84766l-0.023438 0.023438c-0.66093 0.67066-0.86328 1.7094-0.86328 2.4102v3.4375c0 0.70081 0.20236 1.7395 0.86328 2.4102l0.023438 0.02344c0.71304 0.69944 1.7598 0.84765 2.4258 0.84765h7.875c0.66596 0 1.7128-0.1482 2.4258-0.84766 0.69746-0.6839 0.88672-1.7522 0.88672-2.4336v-3.4375c0-0.70096-0.20248-1.7396-0.86328-2.4102l-0.023438-0.023438c-0.71298-0.69947-1.7598-0.84766-2.4258-0.84766zm0 1h7.875c0.59122 0 1.2575 0.10225 1.7246 0.56055l0.0118 0.01172c0.43731 0.44382 0.57609 1.1052 0.57609 1.709v3.4375c0 0.59399-0.12845 1.2702-0.58789 1.7207-0.46715 0.45829-1.1334 0.56055-1.7246 0.56055h-7.875c-0.59122 0-1.2574-0.10234-1.7246-0.56055l-0.01172-0.0118c-0.43745-0.44381-0.57617-1.1052-0.57617-1.7089v-3.4375c0-0.60372 0.13872-1.2651 0.57617-1.709l0.01172-0.01172c0.4672-0.45828 1.1334-0.56055 1.7246-0.56055z" color="#000000" fill="#363636" style="-inkscape-stroke:none"/>
 <path d="m15 9.5c0.43016-0.029013 1-0.61509 1-1.5029 0-0.88201-0.56984-1.4681-1-1.4971z" fill="#363636" stroke-width=".7626"/>
</svg>
