<svg width="16" height="16" version="1.1" xmlns="http://www.w3.org/2000/svg">
 <path d="m3.3125 3c-0.66596 0-1.7127 0.14822-2.4258 0.84766l-0.023438 0.023438c-0.66093 0.67066-0.86328 1.7094-0.86328 2.4102v3.4375c0 0.70081 0.20236 1.7395 0.86328 2.4102l0.023438 0.02344c0.71304 0.69944 1.7598 0.84765 2.4258 0.84765h7.875c0.66596 0 1.7128-0.1482 2.4258-0.84766 0.69746-0.6839 0.88672-1.7522 0.88672-2.4336v-3.4375c0-0.70096-0.20248-1.7396-0.86328-2.4102l-0.023438-0.023438c-0.71298-0.69947-1.7598-0.84766-2.4258-0.84766zm0 1h7.875c0.59122 0 1.2575 0.10225 1.7246 0.56055l0.0118 0.01172c0.43731 0.44382 0.57609 1.1052 0.57609 1.709v3.4375c0 0.59399-0.12845 1.2702-0.58789 1.7207-0.46715 0.45829-1.1334 0.56055-1.7246 0.56055h-7.875c-0.59122 0-1.2574-0.10234-1.7246-0.56055l-0.01172-0.0118c-0.43745-0.44381-0.57617-1.1052-0.57617-1.7089v-3.4375c0-0.60372 0.13872-1.2651 0.57617-1.709l0.01172-0.01172c0.4672-0.45828 1.1334-0.56055 1.7246-0.56055z" color="#000000" fill="#363636" style="-inkscape-stroke:none"/>
 <path d="m15 9.5c0.43016-0.029013 1-0.61509 1-1.5029 0-0.88201-0.56984-1.4681-1-1.4971z" fill="#363636" stroke-width=".7626"/>
 <path d="m3.3134 11h4.3733c0.51649 0 0.80421-0.0579 1.0255-0.27503 0.22143-0.21712 0.28781-0.4994 0.28781-1.006v-3.4379c0-0.50663-0.07384-0.7889-0.28781-1.006-0.22133-0.21713-0.50904-0.27503-1.0255-0.27503h-4.3733c-0.51649 0-0.80425 0.057898-1.0256 0.27503-0.21397 0.21712-0.28775 0.4994-0.28775 1.006v3.4379c0 0.50663 0.073782 0.7889 0.28775 1.006 0.22136 0.21713 0.50911 0.27503 1.0256 0.27503z" color="#000000" fill="#363636" stroke-width="4" style="-inkscape-stroke:none"/>
</svg>
