<svg width="16" height="16" version="1.1" xmlns="http://www.w3.org/2000/svg">
 <path class="warning" d="m3.3125 5c-0.51649 0-0.80404 0.058259-1.0254 0.27539-0.21397 0.21712-0.28711 0.49926-0.28711 1.0059v3.4375c0 0.50663 0.073141 0.78876 0.28711 1.0059 0.22136 0.21713 0.5089 0.27539 1.0254 0.27539h0.375c0.51649 0 0.8041-0.058261 1.0254-0.27539 0.1762-0.17277 0.25282-0.38912 0.27734-0.72461h-0.57617a1.0001 1.0001 0 0 1-0.039062 0c-0.6361-0.025701-1.3203-0.58234-1.3203-1.3398 0-0.36892 0.15834-0.70179 0.3418-0.93164v-0.0019531l1.5566-1.9785c-0.042896-0.19915-0.11681-0.34743-0.24023-0.47266-0.22133-0.21713-0.50893-0.27539-1.0254-0.27539h-0.375z" fill="#ff7f2a"/>
 <path d="m3.3125 3c-0.66596 0-1.7127 0.14822-2.4258 0.84766l-0.023438 0.023438c-0.66093 0.67066-0.86328 1.7094-0.86328 2.4102v3.4375c0 0.70081 0.20236 1.7395 0.86328 2.4102l0.023438 0.02344c0.71304 0.69944 1.7598 0.84765 2.4258 0.84765h1.2988c-0.087003-0.30565-0.085597-0.63682 0.015625-0.91797a1.0001 1.0001 0 0 1 0.00781-0.02344l0.02344-0.058591h-1.3457c-0.59122 0-1.2574-0.10234-1.7246-0.56055l-0.011719-0.01172c-0.43745-0.44381-0.57617-1.1053-0.57617-1.709v-3.4375c0-0.60372 0.13872-1.2651 0.57617-1.709l0.011719-0.011719c0.4672-0.45828 1.1334-0.56055 1.7246-0.56055h3.0176l0.78711-1zm6.5664 0c0.086837 0.30549 0.085809 0.63621-0.015625 0.91797a1.0001 1.0001 0 0 1-0.00781 0.021484l-0.02344 0.060547h1.3555c0.59122 0 1.2575 0.10225 1.7246 0.56055l0.01172 0.011719c0.43731 0.44382 0.57617 1.1052 0.57617 1.709v3.4375c0 0.59399-0.12845 1.2702-0.58789 1.7207-0.46715 0.45829-1.1334 0.56055-1.7246 0.56055h-3.0176l-0.78711 1h3.8047c0.66596 0 1.7128-0.1482 2.4258-0.84766 0.69746-0.6839 0.88672-1.7522 0.88672-2.4336v-3.4375c0-0.70096-0.20248-1.7396-0.86328-2.4102l-0.02344-0.023438c-0.71298-0.69947-1.7598-0.84766-2.4258-0.84766z" fill="#363636" style="-inkscape-stroke:none"/>
 <path d="m15 9.5c0.43016-0.029013 1-0.61509 1-1.5029 0-0.88201-0.56984-1.4681-1-1.4971z" fill="#363636" stroke-width=".7626"/>
 <path d="m4.0542 8.6604c0 0.19556 0.16484 0.33171 0.36024 0.3396h2.4805l-1.3277 3.4206c-0.18526 0.51456 0.36024 0.79245 0.69983 0.38082l4.045-5.1427c0.08232-0.09263 0.13373-0.20585 0.13373-0.30877 0-0.20585-0.16465-0.34962-0.37052-0.34994h-2.4702l1.3174-3.4206c0.18526-0.51462-0.36021-0.79252-0.68951-0.38082l-4.0552 5.153c-0.082336 0.10293-0.12351 0.20587-0.12351 0.3088z" color="#000000" fill="#363636" stroke-linecap="round" stroke-linejoin="round" stroke-width="2" style="-inkscape-stroke:none"/>
</svg>
