<svg width="16" height="16" version="1.1" xmlns="http://www.w3.org/2000/svg">
 <g>
  <path class="success" d="m3.3134 11h2.3733c0.51649 0 0.80421-0.0579 1.0255-0.27503 0.22143-0.21712 0.28781-0.4994 0.28781-1.006v-3.4379c0-0.50663-0.07384-0.7889-0.28781-1.006-0.22133-0.21713-0.50904-0.27503-1.0255-0.27503h-2.3733c-0.51649 0-0.80425 0.057898-1.0256 0.27503-0.21397 0.21712-0.28775 0.4994-0.28775 1.006v3.4379c0 0.50663 0.073782 0.7889 0.28775 1.006 0.22136 0.21713 0.50911 0.27503 1.0256 0.27503z" color="#000000" fill="#5ef377" opacity=".5"/>
  <path d="m3.3125 3c-0.66596 0-1.7127 0.14822-2.4258 0.84766l-0.023438 0.023438c-0.66093 0.67066-0.86328 1.7094-0.86328 2.4102v3.4375c0 0.70081 0.20236 1.7395 0.86328 2.4102l0.023438 0.02344c0.71304 0.69944 1.7598 0.84765 2.4258 0.84765h1.1895c-2.016e-4 -0.011721-0.0019531-0.023448-0.0019531-0.035156v-0.96484h-1.1875c-0.59122 0-1.2574-0.10234-1.7246-0.56055l-0.011719-0.01172c-0.43745-0.44381-0.57617-1.1053-0.57617-1.709v-3.4375c0-0.60372 0.13872-1.2651 0.57617-1.709l0.011719-0.011719c0.4672-0.45828 1.1334-0.56055 1.7246-0.56055h0.6875v-1zm7.6875 0v1h0.1875c0.59122 0 1.2575 0.10225 1.7246 0.56055l0.01172 0.011719c0.43731 0.44382 0.57617 1.1052 0.57617 1.709v3.4375c0 0.59399-0.12845 1.2702-0.58789 1.7207-0.46715 0.45829-1.1334 0.56055-1.7246 0.56055h-0.6875v0.96484c0 0.01171-0.0018 0.02344-2e-3 0.03516h0.6895c0.66596 0 1.7128-0.1482 2.4258-0.84766 0.69746-0.6839 0.88672-1.7522 0.88672-2.4336v-3.4375c0-0.70096-0.20248-1.7396-0.86328-2.4102l-0.02344-0.023438c-0.71298-0.69947-1.7598-0.84766-2.4258-0.84766z" fill="#363636" style="-inkscape-stroke:none"/>
  <path class="error" d="m15 9.5c0.43016-0.029013 1-0.61509 1-1.5029 0-0.88201-0.56984-1.4681-1-1.4971z" fill="#363636" stroke-width=".7626"/>
  <path d="m8.3606 14c0.66488 0 1.1394-0.35631 1.1394-1.035v-1.4931c0-0.6193 0.026286-0.95016 0.55657-1.3489 0.94264-0.7084 1.4434-1.7943 1.4434-2.9353v-1.6119c0-0.34358-0.21894-0.58463-0.55126-0.57579h-0.94874v-2.2619c0-0.40299-0.36794-0.73807-0.77196-0.73807-0.39981 0-0.72804 0.33508-0.72804 0.73807v2.2619h-2v-2.2619c0-0.40299-0.32827-0.73807-0.72804-0.73807-0.40402 0-0.77196 0.33508-0.77196 0.73807v2.2619h-0.95713c-0.32825 0-0.54287 0.23646-0.54287 0.57579v1.6119c0 1.141 0.50079 2.2312 1.4435 2.9353 0.53446 0.39873 0.55655 0.72959 0.55655 1.3489v1.4931c0 0.67869 0.4745 1.035 1.1394 1.035z" color="#000000" fill="#363636" stroke-linecap="round" stroke-linejoin="round" stroke-width="2" style="-inkscape-stroke:none"/>
 </g>
</svg>
