<svg width="16" height="16" version="1.1" xmlns="http://www.w3.org/2000/svg">
 <path d="m6.9434 0.81623a0.75008 0.75008 0 0 0-0.44336 0.68359v4.832l-2.3516-1.4688a0.75 0.75 0 0 0-1.0352 0.23828 0.75 0.75 0 0 0 0.23828 1.0352l2.9805 1.8633-2.9805 1.8633a0.75 0.75 0 0 0-0.23828 1.0352 0.75 0.75 0 0 0 1.0352 0.23828l2.3516-1.4688v4.832a0.75008 0.75008 0 0 0 1.248 0.56055l4.5-4a0.75008 0.75008 0 0 0-0.09961-1.1973l-2.9805-1.8633 2.9805-1.8633a0.75008 0.75008 0 0 0 0.09961-1.1973l-4.5-4a0.75008 0.75008 0 0 0-0.80469-0.12305zm1.0566 2.3535 2.502 2.2246-2.502 1.5625zm0 5.873 2.502 1.5625-2.502 2.2246z" fill="#363636" opacity=".35"/>
 <path d="m1.636 1.636c0.19587-0.19587 0.51124-0.19587 0.70711 0l12.021 12.021c0.19587 0.19587 0.19587 0.51124 0 0.70711s-0.51124 0.19587-0.70711 0l-12.021-12.021c-0.19587-0.19587-0.19587-0.51124 0-0.70711z" color="#000000" fill="#363636" stroke-linecap="round" stroke-linejoin="round" stroke-width="2" style="-inkscape-stroke:none;paint-order:stroke fill markers"/>
</svg>
