<svg width="16" height="16" version="1.1" xmlns="http://www.w3.org/2000/svg">
 <path d="m7.193-1e-3c-1.098 1.385-1.428 2.066-1.032 2.948 0.36 0.798 1.288 1.205 0.821 3.052 0.767-0.9 1.376-2.042 0.774-2.964-0.612-0.938-0.948-1.508-0.563-3.036z" fill="#363636" opacity=".35"/>
 <path d="m4.193-1e-3c-1.098 1.385-1.428 2.066-1.032 2.948 0.36 0.798 1.288 1.205 0.821 3.052 0.767-0.9 1.376-2.042 0.774-2.964-0.612-0.938-0.948-1.508-0.563-3.036z" fill="#363636" opacity=".35"/>
 <path d="m10.193-1e-3c-1.098 1.385-1.428 2.066-1.032 2.948 0.36 0.798 1.288 1.205 0.821 3.052 0.767-0.9 1.376-2.042 0.774-2.964-0.612-0.938-0.948-1.508-0.563-3.036z" fill="#363636" opacity=".35"/>
 <path d="m1 7v2.5c0 3.601 2.899 6.5 6.5 6.5 2.3105 0 4.3322-1.1934 5.4844-3a3 3 0 0 0 0.015625 0 3 3 0 0 0 3-3 3 3 0 0 0-2-2.8281l-0.41797-0.17188h-11.082zm1.5 1.5h10v1c0 2.77-2.23 5-5 5s-5-2.23-5-5zm11.5 0.38281a1.5 1.5 0 0 1 0.5 1.1172 1.5 1.5 0 0 1-0.75 1.2988c0.1628-0.57062 0.25-1.1746 0.25-1.7988z" fill="#363636"/>
</svg>
