<svg width="16" height="16" version="1.1" xmlns="http://www.w3.org/2000/svg">
 <path d="m7 0c-1.108 0-2 0.892-2 2v2h-2c-1.108 0-2 0.892-2 2v8c0 1.108 0.892 2 2 2h6c1.108 0 2-0.892 2-2v-2h2c1.108 0 2-0.892 2-2v-8c0-1.108-0.892-2-2-2h-6zm1.5 1h3c0.277 0 0.5 0.223 0.5 0.5s-0.223 0.5-0.5 0.5h-3c-0.277 0-0.5-0.223-0.5-0.5s0.223-0.5 0.5-0.5zm-5.5 4h2v4c0 0.554 0.446 1 1 1h4v4c0 0.554-0.446 1-1 1h-6c-0.554 0-1-0.446-1-1v-8c0-0.554 0.446-1 1-1zm3 0 4 4h-3.2852c-0.39571 0-0.71484-0.31913-0.71484-0.71484v-3.2852z" fill="#363636"/>
</svg>
