<svg width="16" height="16" version="1.1" xmlns="http://www.w3.org/2000/svg">
 <rect transform="scale(-1,1)" x="-12" y="5" width="1.5" height="4" rx=".75" ry=".75" fill="#363636" opacity=".35" stroke-width=".86602" style="paint-order:stroke fill markers"/>
 <rect transform="scale(-1,1)" x="-8.7501" y="5" width="1.5" height="4" rx=".75" ry=".75" fill="#363636" opacity=".65" stroke-width=".86602" style="paint-order:stroke fill markers"/>
 <rect transform="scale(-1,1)" x="-5.5001" y="5" width="1.5" height="4" rx=".75" ry=".75" fill="#363636" stroke-width=".86602" style="paint-order:stroke fill markers"/>
 <g class="ColorScheme-Text" transform="matrix(-1 0 0 1 16 0)">
  <path d="m3 1.5c-1.3591-5e-7 -2.5 1.1409-2.5 2.5v6c0 1.3591 1.1409 2.5 2.5 2.5h0.71094c0.26223 1.0967 1.1232 2 2.2891 2h4c1.1659 0 2.0268-0.90328 2.2891-2h0.71094c1.3591 0 2.5-1.1409 2.5-2.5v-6c0-1.3591-1.1409-2.5-2.5-2.5zm0 1.5h10c0.554 0 1 0.446 1 1v6c0 0.554-0.446 1-1 1h-2v1c0 0.554-0.446 1-1 1h-4c-0.554 0-1-0.446-1-1v-1h-2c-0.554 0-1-0.446-1-1v-6c0-0.554 0.446-1 1-1z" color="#000000" fill="#363636" style="-inkscape-stroke:none"/>
 </g>
</svg>
