<svg width="16" height="16" version="1.1" xmlns="http://www.w3.org/2000/svg">
 <defs>
  <style id="current-color-scheme" type="text/css">.ColorScheme-Text{color:#363636}</style>
 </defs>
 <g class="ColorScheme-Text">
  <path d="m3 1.5c-1.3591-5e-7 -2.5 1.1409-2.5 2.5v6c0 1.3591 1.1409 2.5 2.5 2.5h0.71094c0.26223 1.0967 1.1232 2 2.2891 2h3v-1.5h-3c-0.554 0-1-0.446-1-1v-1h-2c-0.554 0-1-0.446-1-1v-6c0-0.554 0.446-1 1-1h10c0.554 0 1 0.446 1 1v5.2031c0.61977 0.26317 1.1092 0.7632 1.4277 1.3789 0.046375-0.18742 0.072266-0.38226 0.072266-0.58203v-6c0-1.3591-1.1409-2.5-2.5-2.5h-10zm8 11.5v1.2539c0.49878-0.26299 0.887-0.71641 1.1211-1.2539h-0.12109-1z" color="#000000" fill="#363636" style="-inkscape-stroke:none"/>
 </g>
 <path d="m13 10c-1.108 0-2 0.892-2 2-0.554 0-1 0.446-1 1v2c0 0.554 0.446 1 1 1h4c0.554 0 1-0.446 1-1v-2c0-0.554-0.446-1-1-1 0-1.108-0.892-2-2-2zm0 1c0.554 0 1 0.446 1 1h-2c0-0.554 0.446-1 1-1z" color="#000000" fill="#363636" fill-rule="evenodd" stroke-linecap="round" stroke-width="2" style="-inkscape-stroke:none;paint-order:stroke fill markers"/>
</svg>
