<svg width="16" height="16" version="1.1" xmlns="http://www.w3.org/2000/svg">
 <path d="m8.0039 4c1.4026 0 2.5723 0.75403 2.5723 2.0527 0 0.91775-0.48436 1.367-1.2637 1.8691-0.51945 0.33767-0.79715 0.59698-0.81445 1.0039 0 0.025977-0.00977 0.069736-0.00977 0.095703-0.034636 0.32035-0.29282 0.57227-0.73438 0.57227-0.48485 4e-7 -0.74609-0.22556-0.74609-0.67578v-0.085938c0-0.7013 0.40682-1.1084 0.96094-1.498 0.65801-0.45888 0.98828-0.71913 0.98828-1.1953 1e-7 -0.52815-0.39811-0.88281-1.0215-0.88281-0.45888 0-0.79775 0.23428-1.0488 0.61523-0.23376 0.27706-0.34581 0.50977-0.80469 0.50977-0.36364 0-0.6582-0.23428-0.6582-0.61523 0-0.14719 0.018368-0.27664 0.070312-0.42383 0.25974-0.72727 1.1591-1.3418 2.5098-1.3418zm-0.25977 6.2773c0.51082 0 0.91797 0.3717 0.91797 0.86523 0 0.5022-0.41581 0.85742-0.91797 0.85742-0.50217 0-0.92578-0.36389-0.92578-0.85742 0-0.5022 0.41495-0.86523 0.92578-0.86523z" fill="#363636"/>
 <path d="m7.9938 16c0.14899 0 0.37245-0.04964 0.58765-0.1656 4.7591-2.5914 6.4121-3.7918 6.4144-6.8054l0.0041-5.4027c8.04e-4 -0.9935-0.38069-1.3495-1.2166-1.7055-0.91044-0.38912-4.0059-1.4654-4.8998-1.7717-0.2814-0.09107-0.59592-0.14902-0.88561-0.14902-0.2814 0-0.6042 0.074512-0.87733 0.14902-0.89388 0.25665-3.9894 1.3909-4.8998 1.7717-0.83595 0.34772-1.2159 0.71201-1.2167 1.7055l-0.0041428 5.4027c-0.0023108 3.0136 1.6553 4.1976 6.4144 6.8054 0.2152 0.11596 0.43866 0.1656 0.57936 0.1656zm0-1.7552c-0.11587 0-0.23174-0.04135-0.47177-0.19037-3.7742-2.3016-4.9515-2.9226-4.9495-5.3318l0.00414-4.8314c2.596e-4 -0.29805 0.057937-0.41396 0.28969-0.5133 1.225-0.48847 3.6004-1.275 4.6929-1.7055 0.19037-0.066231 0.3228-0.091071 0.43866-0.091071 0.12415 0 0.25659 0.02484 0.44694 0.091071 1.0925 0.43051 3.4514 1.2667 4.6846 1.7055 0.24004 0.091071 0.29821 0.21525 0.29796 0.5133l-0.0041 4.8314c-0.002124 2.4258-1.225 3.0798-4.9495 5.3318-0.24002 0.14902-0.3559 0.19037-0.48005 0.19037z" fill="#363636" stroke-width=".94184"/>
</svg>
