<svg width="16" height="16" version="1.1" xmlns="http://www.w3.org/2000/svg">
 <path d="m8 3a12 12 0 0 0-7.9629 3.0371l1.4316 1.4316a10 10 0 0 1 6.5312-2.4688 10 10 0 0 1 6.5527 2.4473l1.416-1.416a12 12 0 0 0-7.9688-3.0312z" fill="#363636" opacity=".35"/>
 <path d="M 8,11 A 4,4 0 0 0 5.7207,11.7207 L 8,14 10.2832,11.7168 A 4,4 0 0 0 8,11 Z" fill="#363636" opacity=".35"/>
 <path d="M 8,7 A 8,8 0 0 0 2.8711,8.8711 l 1.4258,1.4258 A 6,6 0 0 1 8,9 6,6 0 0 1 11.7129,10.2871 L 13.1328,8.8672 A 8,8 0 0 0 8,7 Z" fill="#363636" opacity=".35"/>
 <rect transform="rotate(-45)" x="-.7749" y="2.7868" width="1" height="16" rx=".5" ry=".5" fill="#363636"/>
 <path d="m1.7762 2.1649c0.19587-0.19587 0.51124-0.19587 0.70711 0l10.607 10.607c0.19587 0.19587 0.19587 0.51124 0 0.70711s-0.51124 0.19587-0.70711 0l-10.607-10.607c-0.19587-0.19587-0.19587-0.51124 0-0.70711z" color="#000000" fill="#363636" stroke-width="2" style="-inkscape-stroke:none"/>
</svg>
