<svg width="16" height="16" version="1.1" xmlns="http://www.w3.org/2000/svg">
 <path d="m8 3a12 12 0 0 0-7.9629 3.0371l1.4316 1.4316a10 10 0 0 1 6.5312-2.4688 10 10 0 0 1 6.5527 2.4473l1.416-1.416a12 12 0 0 0-7.9688-3.0312z" fill="#363636"/>
 <path d="M 8,11 A 4,4 0 0 0 5.7207031,11.720703 L 8,14 8.4863281,13.513672 A 4.5,4.5 0 0 1 8,11.5 4.5,4.5 0 0 1 8.0351562,11.001953 4,4 0 0 0 8,11 Z" fill="#363636"/>
 <path d="m8 7a8 8 0 0 0-5.1289 1.8711l1.4258 1.4258a6 6 0 0 1 3.7031-1.2969 6 6 0 0 1 0.72852 0.046875 4.5 4.5 0 0 1 1.8477-1.6113 8 8 0 0 0-2.5762-0.43555z" fill="#363636"/>
 <path class="error" d="m12.5 8c-1.933 0-3.5 1.567-3.5 3.5s1.567 3.5 3.5 3.5 3.5-1.567 3.5-3.5-1.567-3.5-3.5-3.5zm0.019531 1c0.5668 0 0.9766 0.18718 1.2285 0.56055l0.007812 0.0058593v0.0078126c0.13495 0.20243 0.20117 0.44044 0.20117 0.71484v0.00586c0 0.31489-0.11433 0.60569-0.34375 0.87109-0.08547 0.10346-0.19512 0.21643-0.33008 0.33789-0.2834 0.26091-0.4472 0.45081-0.49219 0.57227-0.026991 0.067476-0.041016 0.15435-0.041016 0.25781v0.32227h-0.60742v-0.37109c0-0.22492 0.063497-0.4195 0.18945-0.58594 0.076474-0.098966 0.19216-0.22265 0.34961-0.37109l0.013671-0.007813 0.14844-0.13476c0.33288-0.2969 0.50136-0.58905 0.50586-0.87695v-0.013672c0-0.31489-0.13575-0.53888-0.41016-0.67383h-0.007812c-0.13046-0.062978-0.27887-0.095703-0.44531-0.095703-0.36887 0-0.62091 0.13167-0.75586 0.39258-0.076474 0.15295-0.11524 0.3709-0.11524 0.6543v0.005859h-0.57226c0-0.94917 0.40513-1.47 1.2148-1.5645l0.26172-0.013672zm-0.37695 4.2988h0.60742v0.70117h-0.60742v-0.70117z" fill="#ff7f2a"/>
</svg>
