<svg width="16" height="16" version="1.1" xmlns="http://www.w3.org/2000/svg">
 <g class="ColorScheme-Text">
  <path d="m3 1.5c-1.3591-5e-7 -2.5 1.1409-2.5 2.5v6c0 1.3591 1.1409 2.5 2.5 2.5h0.71094c0.26223 1.0967 1.1232 2 2.2891 2h2.4785a4.5 4.5 0 0 1-0.44336-1.5h-2.0352c-0.554 0-1-0.446-1-1v-1h-2c-0.554 0-1-0.446-1-1v-6c0-0.554 0.446-1 1-1h10c0.554 0 1 0.446 1 1v4.2578a4.5 4.5 0 0 1 1.5 0.88867v-5.1465c0-1.3591-1.1409-2.5-2.5-2.5h-10z" color="#000000" fill="#363636" style="-inkscape-stroke:none"/>
 </g>
 <path d="m12.5 9c-1.933 0-3.5 1.567-3.5 3.5s1.567 3.5 3.5 3.5 3.5-1.567 3.5-3.5-1.567-3.5-3.5-3.5zm-1.4141 1.5859c0.12781 0 0.25558 0.04855 0.35352 0.14648l1.0605 1.0605 1.0605-1.0605c0.19587-0.19587 0.51116-0.19587 0.70703 0s0.19587 0.51116 0 0.70703l-1.0605 1.0605 1.0605 1.0605c0.19587 0.19587 0.19587 0.51116 0 0.70703s-0.51116 0.19587-0.70703 0l-1.0605-1.0605-1.0605 1.0605c-0.19587 0.19587-0.51116 0.19587-0.70703 0s-0.19587-0.51116 0-0.70703l1.0605-1.0605-1.0605-1.0605c-0.19587-0.19587-0.19587-0.51116 0-0.70703 0.09793-0.09793 0.22571-0.14648 0.35352-0.14648z" fill="#363636"/>
</svg>
