<svg width="16" height="16" version="1.1" xmlns="http://www.w3.org/2000/svg">
 <path d="m7.5 0c-0.1385 0-0.25 0.1115-0.25 0.25v1.5c0 0.1385 0.1115 0.25 0.25 0.25h1c0.1385 0 0.25-0.1115 0.25-0.25v-1.5c0-0.1385-0.1115-0.25-0.25-0.25h-1zm-4.627 1.916c-0.063905 0-0.12681 0.025252-0.17578 0.074219l-0.70703 0.70703c-0.097934 0.097934-0.097934 0.25558 0 0.35352l1.0605 1.0605c0.097934 0.097934 0.25558 0.097934 0.35352 0l0.70703-0.70703c0.097934-0.097934 0.097934-0.25558 0-0.35352l-1.0605-1.0605c-0.048967-0.048967-0.11383-0.074219-0.17773-0.074219zm10.254 0c-0.063905 0-0.12877 0.025252-0.17773 0.074219l-1.0605 1.0605c-0.097934 0.097934-0.097934 0.25558 0 0.35352l0.70703 0.70703c0.097934 0.097934 0.25558 0.097934 0.35352 0l1.0605-1.0605c0.097934-0.097934 0.097934-0.25558 0-0.35352l-0.70703-0.70703c-0.048967-0.048967-0.11188-0.074219-0.17578-0.074219zm-5.127 1.084a5 5 0 0 0-5 5 5 5 0 0 0 5 5 5 5 0 0 0 5-5 5 5 0 0 0-0.072266-0.83594 5 5 0 0 0-0.35352-1.1777 5 5 0 0 0 0-0.0019531 5 5 0 0 0 0-0.0019531 5 5 0 0 0-0.63281-1.0547 5 5 0 0 0-0.86914-0.86914 5 5 0 0 0-1.0547-0.63281 5 5 0 0 0-0.001953 0 5 5 0 0 0-0.001953 0 5 5 0 0 0-1.1777-0.35352 5 5 0 0 0-0.83594-0.072266zm-1.5957 1.8965a3.5 3.5 0 0 0-0.4043 1.6035 3.5 3.5 0 0 0 3.5 3.5 3.5 3.5 0 0 0 1.6035-0.4043 3.5 3.5 0 0 1-3.1035 1.9043 3.5 3.5 0 0 1-3.5-3.5 3.5 3.5 0 0 1 1.9043-3.1035zm-6.1543 2.3535c-0.1385 0-0.25 0.1115-0.25 0.25v1c0 0.1385 0.1115 0.25 0.25 0.25h1.5c0.1385 0 0.25-0.1115 0.25-0.25v-1c0-0.1385-0.1115-0.25-0.25-0.25h-1.5zm14 0c-0.1385 0-0.25 0.1115-0.25 0.25v1c0 0.1385 0.1115 0.25 0.25 0.25h1.5c0.1385 0 0.25-0.1115 0.25-0.25v-1c0-0.1385-0.1115-0.25-0.25-0.25h-1.5zm-11.047 4.5664c-0.055712 0.005356-0.1095 0.02942-0.15234 0.072266l-1.0605 1.0605c-0.097934 0.097934-0.097934 0.25558 0 0.35352l0.70703 0.70703c0.097934 0.097934 0.25558 0.097934 0.35352 0l1.0605-1.0605c0.097934-0.097935 0.097934-0.25558 0-0.35352l-0.70703-0.70703c-0.055088-0.055088-0.12954-0.079152-0.20117-0.072266zm9.5469 0c-0.055712 0.005356-0.11145 0.02942-0.1543 0.072266l-0.70703 0.70703c-0.097934 0.097934-0.097934 0.25558 0 0.35352l1.0605 1.0605c0.097934 0.097934 0.25558 0.097934 0.35352 0l0.70703-0.70703c0.097934-0.097934 0.097934-0.25558 0-0.35352l-1.0605-1.0605c-0.055088-0.055088-0.12759-0.079152-0.19922-0.072266zm-5.25 2.1836c-0.1385 0-0.25 0.1115-0.25 0.25v1.5c0 0.1385 0.1115 0.25 0.25 0.25h1c0.1385 0 0.25-0.1115 0.25-0.25v-1.5c0-0.1385-0.1115-0.25-0.25-0.25h-1z" fill="#363636" style="paint-order:fill markers stroke"/>
</svg>
