<svg width="16" height="16" version="1.1" xmlns="http://www.w3.org/2000/svg">
 <path d="m13 10c-1.108 0-2 0.892-2 2-0.554 0-1 0.446-1 1v2c0 0.554 0.446 1 1 1h4c0.554 0 1-0.446 1-1v-2c0-0.554-0.446-1-1-1 0-1.108-0.892-2-2-2zm0 1c0.554 0 1 0.446 1 1h-2c0-0.554 0.446-1 1-1z" color="#000000" fill="#363636" fill-rule="evenodd" stroke-linecap="round" stroke-width="2" style="-inkscape-stroke:none;paint-order:stroke fill markers"/>
 <path d="m8 3a12 12 0 0 0-7.9629 3.0371l1.4316 1.4316a10 10 0 0 1 6.5312-2.4688 10 10 0 0 1 6.5527 2.4473l1.416-1.416a12 12 0 0 0-7.9688-3.0312z" fill="#363636" opacity=".35"/>
 <path d="m8 11a4 4 0 0 0-2.2793 0.7207l2.2793 2.2793 1-1c0-0.66778 0.38661-1.1764 0.91797-1.5078a4 4 0 0 0-1.918-0.49219z" fill="#363636"/>
 <path d="m8 7a8 8 0 0 0-5.1289 1.8711l1.4258 1.4258a6 6 0 0 1 3.7031-1.2969 6 6 0 0 1 3.0781 0.85547c0.4845-0.52158 1.1408-0.85547 1.9219-0.85547l0.13281-0.13281a8 8 0 0 0-5.1328-1.8672z" fill="#363636" opacity=".75"/>
</svg>
