<svg width="16" height="16" version="1.1" xmlns="http://www.w3.org/2000/svg">
 <path d="m8 3a12 12 0 0 0-7.9629 3.0371l1.4316 1.4316a10 10 0 0 1 6.5312-2.4688 10 10 0 0 1 6.5527 2.4473l1.416-1.416a12 12 0 0 0-7.9688-3.0312z" fill="#363636"/>
 <path d="m8 11a4 4 0 0 0-2.2793 0.7207l2.2793 2.2793 2.2832-2.2832a4 4 0 0 0-2.2832-0.7168z" fill="#363636"/>
 <path d="m8 7a8 8 0 0 0-5.1289 1.8711l1.4258 1.4258a6 6 0 0 1 3.7031-1.2969 6 6 0 0 1 3.7129 1.2871l1.4199-1.4199a8 8 0 0 0-5.1328-1.8672z" fill="#363636"/>
</svg>
