<svg version="1.1" viewBox="0 0 16 16" xmlns="http://www.w3.org/2000/svg">
 <path d="m8.0078 0c-0.70922 0-1.4464 0.32075-1.9141 0.84375-0.26335 0.29454-0.28589 0.67411-0.40039 1.0273-0.72746 0.30302-1.4561 0.78488-1.9355 1.5781-0.59237 0.98018-0.86401 2.2187-0.91406 3.8477-0.07275 1.2465-0.39406 2.0296-0.45508 2.0977-0.29151 0.32448-0.65994 0.64095-0.99219 1.002-0.25486 0.27684-0.39638 0.63937-0.39648 1.0156v0.087891c8.3e-5 0.82839 0.67161 1.4999 1.5 1.5h2.5a3 3 0 0 0 3 3 3 3 0 0 0 3-3h2.5c0.82839-8.3e-5 1.4999-0.67161 1.5-1.5v-0.087891c-1.08e-4 -0.37628-0.14164-0.73882-0.39648-1.0156-0.30445-0.33078-0.66553-0.65778-0.96875-0.99414-0.049098-0.055546-0.27244-0.59895-0.39648-1.4746a4.5 4.5 0 0 1-1.5195-0.0078125c0.11193 1.1158 0.35068 1.9784 0.79102 2.4766 0.37014 0.41208 0.79382 0.80225 0.99023 1.0156v0.087891h-11v-0.087891c0.19643-0.2134 0.63372-0.60358 1.0039-1.0156 0.52129-0.58127 0.76234-1.6546 0.83789-3.0527 0.09066-2.9506 1.0294-3.9453 2.2383-4.2617 0.18885-0.051505 0.28574-0.13922 0.30078-0.33789 0.037823-0.74319 0.46967-1.2441 1.127-1.2441 0.1553 0 0.2968 0.028704 0.42383 0.080078a4.5 4.5 0 0 1 0.86914-1.2324c-0.3943-0.22263-0.85003-0.34766-1.293-0.34766zm-1.5078 13h3a1.5 1.5 0 0 1-1.5 1.5 1.5 1.5 0 0 1-1.5-1.5z" fill="#363636"/>
 <path d="m15.5 3.5a3 3 0 0 1-6 0 3 3 0 1 1 6 0z" color="#bebebe" fill="#009dff" overflow="visible" stroke-width="1.2" style="isolation:auto;mix-blend-mode:normal"/>
</svg>
