<svg width="16" height="16" version="1.0" xmlns="http://www.w3.org/2000/svg">
 <rect transform="rotate(45)" x="1.3137" y="-.5" width="20" height="1" rx=".5" ry=".5" fill="#363636"/>
 <path d="m8.0078 0c-0.70922 0-1.4464 0.32075-1.9141 0.84375-0.26335 0.29454-0.28589 0.67407-0.40039 1.0273-0.72746 0.30302-1.4561 0.78485-1.9355 1.5781-0.59237 0.98018-0.86401 2.2187-0.91406 3.8477-0.07275 1.2465-0.39406 2.0296-0.45508 2.0977-0.29151 0.32448-0.65994 0.641-0.99219 1.002-0.25486 0.27684-0.39638 0.63934-0.39648 1.0156v0.087891c8.3e-5 0.82839 0.67161 1.4999 1.5 1.5h2.5a3 3 0 0 0 3 3 3 3 0 0 0 3-3h2.5c0.82839-8.3e-5 1.4999-0.67161 1.5-1.5v-0.08789c-1.08e-4 -0.37628-0.14163-0.73879-0.39648-1.0156-0.30445-0.33078-0.66553-0.65778-0.96875-0.99414-0.06076-0.06874-0.38922-0.87633-0.46484-2.1484-0.05356-1.6056-0.32255-2.8303-0.9082-3.8027-0.47846-0.79442-1.2091-1.2769-1.9395-1.5801-0.11261-0.35147-0.13175-0.72747-0.39453-1.0234-0.46751-0.52655-1.2112-0.84766-1.9199-0.84766zm0 1.5c0.6648 0 1.0872 0.50095 1.125 1.2441 0.01505 0.19867 0.12145 0.28639 0.30273 0.33789 1.2164 0.31641 2.1456 1.3111 2.2363 4.2617 0.08312 1.3981 0.32412 2.4715 0.83789 3.0527 0.37014 0.41208 0.79382 0.80222 0.99023 1.0156v0.087891h-11v-0.08789c0.19643-0.2134 0.63371-0.60355 1.0039-1.0156 0.52129-0.58127 0.76234-1.6546 0.83789-3.0527 0.09066-2.9506 1.0294-3.9453 2.2383-4.2617 0.18885-0.051505 0.28574-0.13922 0.30078-0.33789 0.037823-0.74319 0.46972-1.2441 1.127-1.2441zm-1.5078 11.5h3a1.5 1.5 0 0 1-1.5 1.5 1.5 1.5 0 0 1-1.5-1.5z" fill="#363636" opacity=".35"/>
</svg>
