<svg width="16" height="16" version="1.1" xmlns="http://www.w3.org/2000/svg">
 <rect x="7.25" y="1" width="1.5" height="7" rx=".75" ry=".75" fill="#363636" stroke-width=".81009" style="paint-order:stroke fill markers"/>
 <path d="m3.4941 3.252a0.75 0.75 0 0 0-0.51758 0.24609c-1.1097 1.2362-1.7243 2.8388-1.7266 4.5a0.75008 0.75008 0 0 0 0 0.0019531c0 3.719 3.031 6.75 6.75 6.75 3.719 0 6.75-3.031 6.75-6.75-4.43e-4 -1.6604-0.61335-3.2628-1.7207-4.5a0.75 0.75 0 0 0-1.0586-0.058594 0.75 0.75 0 0 0-0.058594 1.0586c0.86151 0.9625 1.3375 2.2083 1.3379 3.5 0 2.9084-2.3416 5.25-5.25 5.25-2.9077 0-5.2489-2.3406-5.25-5.248v-0.0019531c0.0022329-1.2917 0.48082-2.5368 1.3438-3.498a0.75 0.75 0 0 0-0.056641-1.0605 0.75 0.75 0 0 0-0.54297-0.18945z" color="#000000" fill="#363636" stroke-linecap="round" stroke-linejoin="round" style="-inkscape-stroke:none;paint-order:fill markers stroke"/>
</svg>
