<?xml version="1.0" encoding="UTF-8"?>
<svg xmlns="http://www.w3.org/2000/svg" xmlns:xlink="http://www.w3.org/1999/xlink" xmlns:cc="http://creativecommons.org/ns#" xmlns:dc="http://purl.org/dc/elements/1.1/" xmlns:rdf="http://www.w3.org/1999/02/22-rdf-syntax-ns#" xmlns:inkscape="http://www.inkscape.org/namespaces/inkscape" xmlns:sodipodi="http://sodipodi.sourceforge.net/DTD/sodipodi-0.dtd" width="22" height="22">
    <style type="text/css" id="current-color-scheme">.ColorScheme-Text { color: #363636; } </style>
    <g id="22-22-akonadi" transform="translate(0,-10)">
    <path id="path7" class="ColorScheme-Text" d="M 11 13 C 6.5817084 13 2.9999808 13.895432 3 15 L 3 18.994141 L 3 19 L 3 22.994141 L 3 23 L 3 27 C 2.9999808 28.104568 6.5817084 29 11 29 C 15.418292 29 19.000019 28.104568 19 27 L 19 23 L 19 19 L 19 15 C 19.000019 13.895432 15.418292 13 11 13 z M 11 14 C 14.865993 14 18 14.447715 18 15 C 18 15.552285 14.865993 16 11 16 C 7.1340068 16 4 15.552285 4 15 C 4 14.447715 7.1340068 14 11 14 z M 18 15.962891 L 18 18.033203 L 18 19 C 18 19.552285 14.865993 20 11 20 C 7.1340068 20 4 19.552285 4 19 L 4 18.037109 L 4 15.966797 C 5.4074293 16.603987 8.0884558 16.999708 11 17 C 13.91485 16.9989 16.596667 16.601589 18 15.962891 z M 18 19.962891 L 18 22.033203 L 18 23 C 18 23.552285 14.865993 24 11 24 C 7.1340068 24 4 23.552285 4 23 L 4 22.037109 L 4 19.966797 C 6.0449242 20.765443 8.2553846 20.932052 10.433594 20.994141 C 10.622063 20.997741 10.810982 20.9997 11 21 C 11.266763 21.000065 11.533372 20.996834 11.798828 20.990234 C 13.831395 20.881706 16.098876 20.799866 17.992188 19.966797 L 18 19.962891 z M 18 23.962891 L 18 27 C 18 27.552285 14.865993 28 11 28 C 7.1340068 28 4 27.552285 4 27 L 4 23.966797 C 4.1292021 24.025157 4.2700031 24.081873 4.421875 24.136719 C 6.3560885 24.779777 8.4074965 24.936388 10.433594 24.994141 C 10.622063 24.997741 10.810982 24.9997 11 25 C 11.266763 25.000065 11.533372 24.996834 11.798828 24.990234 C 13.831392 24.881703 16.098888 24.799913 17.992188 23.966797 L 18 23.962891 z " style="fill:currentColor;fill-opacity:1;stroke:none"/>
    <path id="path9" d="M 0 10 L 0 32 L 22 32 L 22 10 L 0 10 z " style="opacity:1;fill:none"/>
  </g>
</svg>
