<svg width="22" height="22" version="1.1" xmlns="http://www.w3.org/2000/svg">
 <style id="current-color-scheme" type="text/css">.ColorScheme-Text { color: #363636; }</style>
 <path class="ColorScheme-Text" d="m11 3c-4.4183 0-8 3.5817-8 8s3.5817 8 8 8 8-3.5817 8-8c0-1.2789-0.3004-2.4884-0.83398-3.5605-0.0063-0.01127-0.02391-0.02817-0.0293-0.03906 4.7e-4 -2.3e-4 0.0049-2e-3 0.0059-2e-3 0.18504-0.21856 0.28125-0.46828 0.28125-0.71094 0-0.17523-0.0682-0.35571-0.12891-0.49219 2.9e-4 2.6e-4 0.0059 0.0039 0.0059 0.0039s-0.0012-0.12383-0.07617-0.29883c-0.075-0.175-0.17383-0.30078-0.17383-0.30078s-0.2375 0.0375-0.375 0.0625c-0.1297 0.0236-0.47319 0.21373-0.51367 0.23633-1.7128-1.6774-3.4115-2.9403-6.1622-2.8984zm0.19922 0.40039c2.1554 0.0033 4.2022 0.94609 5.6055 2.582-0.77174 0.19072-1.9869 0.63393-2.4121 0.74023-0.49498 0.12374-0.72583 0.23538-1.5195 0.16016-0.90469-0.0857-1.3109-0.09284-1.5488-0.08594-0.35634-0.0315-0.53711-0.10938-0.53711-0.10938l0.03125 0.35156c-0.23691 0.18063-0.71363 0.4427-1.6934 0.70898-0.6364 0.0707-1.1662-0.12403-1.4844 0.05273-0.3182 0.17678-1.3272 0.61845-1.8398 0.74219-0.51266 0.12375-0.89202 0.35633-1.2012 0.45704-0.48839 0.1591 0.96756 2.4941 1.5996 2.8008 0 0-0.21757 0.22591-0.40039 0.41602-0.43969 0.30041-0.78711 0.32031-0.78711 0.32031l0.023437 0.24024c-0.20969 0.1114-0.40586 0.18804-0.58789 0.25195-0.29342-0.81111-0.44473-1.6668-0.44727-2.5293 0.0039433-1.3748 0.38569-2.722 1.1035-3.8945 1.3807-2.0064 3.6602-3.2049 6.0957-3.2051zm6.6504 4.166c0.49176 1.0074 0.74821 2.1134 0.75 3.2344-0.0015 2.4849-1.2502 4.8032-3.3242 6.1719-0.644 0.37594-1.3405 0.65374-2.0664 0.82422 0.03056-0.23452 0.06104-0.47459 0.08399-0.71289 0.17366-0.25517 0.40625-0.25976 0.40625-0.25976s-0.29922-0.84961-0.26953-1.873c0.0372-0.24274 0.09976-0.47192 0.17969-0.68945h0.30273s-0.0378-0.41741 0.13281-0.8418c0.56207-0.85425 1.3289-1.4245 1.6562-1.6758 0.30878-0.2371 1.7327-0.60118 2.0332-0.67188 0.30052-0.0707 0.58388-0.54803 0.60156-0.68945 0.0177-0.14142-0.08984-0.40625-0.08984-0.40625l-0.42578-0.0957c0.10584 0.075 0.04519 0.15025-0.13281 0.18164-0.057 0.0101-0.13605 0.01482-0.22461 0.01563 0 0-0.09271-0.36355-0.19336-0.39453-0.0861-0.0265-0.31236 0.25788-0.30859 0.35547-0.0963-0.0163-0.18793-0.03765-0.26172-0.06445-0.27503-0.10002-0.57423-0.16212-0.57423-0.16212s0.29961-0.67539 0.72461-1.3379c0.27092-0.42232 0.70796-0.73025 1-0.9082zm-5.4844 0.15625c0.48595-4e-3 0.84766 0.14062 0.84766 0.14062s0.04719 0.4553-1.3184 1.2715c-0.41865 0.25021-1.5195 0.41602-1.5195 0.41602s-0.0236-0.57531 0.39453-1.0742c0.49929-0.5958 1.1098-0.74945 1.5957-0.75391zm-6.2715 1.2676c0.0451-1e-3 0.080439 0.0028 0.10547 0.0098 0.2 0.0625 0.63748 0.85778 0.40039 1.1992l0.40039 0.40036c0.8-0.8 1.9938-0.24277 2.1992 0.30078 0.28473 0.75329 0.22551 0.66371-0.95508 0.83594-0.5003 0.073-1.5209-0.10834-1.9238-0.41797s-1.4391-1.9496-1.3516-2.0371c0.0766-0.0766 0.80919-0.28251 1.125-0.29102zm11.508 0.59961c-0.0675 0.0241-0.12891 0.30859-0.12891 0.30859s0.0522 0.02798 0.32227-0.0078c0.0727-0.0181-0.12584-0.32486-0.19336-0.30078z" fill="currentColor"/>
</svg>
