<?xml version="1.0" encoding="UTF-8"?>
<svg xmlns="http://www.w3.org/2000/svg" xmlns:xlink="http://www.w3.org/1999/xlink" xmlns:cc="http://creativecommons.org/ns#" xmlns:dc="http://purl.org/dc/elements/1.1/" xmlns:rdf="http://www.w3.org/1999/02/22-rdf-syntax-ns#" xmlns:inkscape="http://www.inkscape.org/namespaces/inkscape" xmlns:sodipodi="http://sodipodi.sourceforge.net/DTD/sodipodi-0.dtd" width="22" height="22">
    <style type="text/css" id="current-color-scheme">.ColorScheme-Text { color: #363636; } </style>
    <g id="22-22-amarok" transform="translate(0,-10)">
    <path id="path7" class="ColorScheme-Text" d="m 11,13 c -4.418278,0 -8,3.581722 -8,8 0,4.418278 3.581722,8 8,8 4.418278,0 8,-3.581722 8,-8 0,-1.278859 -0.300401,-2.488432 -0.833984,-3.560547 -0.0063,-0.01127 -0.02391,-0.02817 -0.0293,-0.03906 4.7e-4,-2.3e-4 0.0049,-0.002 0.0059,-0.002 0.18504,-0.21856 0.28125,-0.468277 0.28125,-0.710937 0,-0.17523 -0.0682,-0.355708 -0.128906,-0.492188 2.9e-4,2.6e-4 0.0059,0.0039 0.0059,0.0039 0,0 -0.0012,-0.123828 -0.07617,-0.298828 -0.075,-0.175 -0.173828,-0.300782 -0.173828,-0.300782 0,0 -0.2375,0.0375 -0.375,0.0625 -0.1297,0.0236 -0.473192,0.213728 -0.513672,0.236329 C 15.449382,14.221004 13.750717,12.958114 11,13 Z m 0.199219,0.400391 c 2.155353,0.0033 4.202168,0.946089 5.605469,2.582031 -0.771741,0.19072 -1.98692,0.633934 -2.41211,0.740234 -0.49498,0.12374 -0.725831,0.235377 -1.519531,0.160156 -0.90469,-0.0857 -1.310858,-0.09284 -1.548828,-0.08594 -0.35634,-0.0315 -0.53711,-0.109375 -0.53711,-0.109375 l 0.03125,0.351562 c -0.23691,0.180629 -0.713629,0.442695 -1.693359,0.708985 -0.6364,0.0707 -1.166185,-0.124026 -1.484375,0.05273 -0.3182,0.17678 -1.3271936,0.618447 -1.8398438,0.742188 C 5.2881213,18.666708 4.9087594,18.89929 4.5996094,19 c -0.48839,0.1591 0.9675593,2.494141 1.5996094,2.800781 0,0 -0.2175707,0.225906 -0.4003907,0.416016 -0.43969,0.30041 -0.7871095,0.320312 -0.7871093,0.320312 l 0.023437,0.240235 C 4.8254613,22.888749 4.6292983,22.965385 4.4472656,23.029297 4.1538435,22.21819 4.0025365,21.362546 4,20.5 4.0039433,19.125219 4.3856864,17.77797 5.1035156,16.605469 6.484172,14.59908 8.7636867,13.400526 11.199219,13.400391 Z m 6.65039,4.166015 c 0.491759,1.0074 0.748213,2.113362 0.75,3.234375 -0.0015,2.484939 -1.250164,4.803217 -3.324218,6.171875 -0.643998,0.37594 -1.34046,0.653735 -2.066407,0.824219 0.03056,-0.234525 0.06104,-0.474588 0.08399,-0.712891 0.17366,-0.25517 0.40625,-0.259765 0.40625,-0.259765 0,0 -0.299225,-0.849607 -0.269531,-1.873047 0.0372,-0.24274 0.09976,-0.471923 0.179687,-0.689453 l 0.302734,0 c 0,0 -0.0378,-0.417407 0.132813,-0.841797 0.56207,-0.85425 1.32894,-1.424461 1.65625,-1.675781 0.30878,-0.2371 1.732673,-0.601175 2.033203,-0.671875 0.30052,-0.0707 0.583883,-0.548029 0.601563,-0.689454 0.0177,-0.14142 -0.08984,-0.40625 -0.08984,-0.40625 l -0.425782,-0.0957 c 0.105842,0.075 0.04519,0.150251 -0.132812,0.181641 -0.057,0.0101 -0.136049,0.01482 -0.224609,0.01563 0,0 -0.09271,-0.363551 -0.19336,-0.394531 -0.0861,-0.0265 -0.312355,0.257884 -0.308593,0.355468 -0.0963,-0.0163 -0.187929,-0.03765 -0.261719,-0.06445 C 16.424201,19.8746 16.125,19.8125 16.125,19.8125 c 0,0 0.299609,-0.675391 0.724609,-1.337891 0.27092,-0.42232 0.70796,-0.730253 1,-0.908203 z m -5.484375,0.15625 c 0.48595,-0.004 0.847657,0.140625 0.847657,0.140625 0,0 0.04719,0.455305 -1.31836,1.271485 -0.41865,0.25021 -1.519531,0.416015 -1.519531,0.416015 0,0 -0.0236,-0.575308 0.394531,-1.074219 0.49929,-0.5958 1.109763,-0.749446 1.595703,-0.753906 z M 6.09375,18.990234 c 0.0451,-0.001 0.080439,0.0028 0.1054688,0.0098 0.1999998,0.0625 0.6374806,0.857776 0.4003906,1.199219 L 7,20.599609 c 0.8,-0.799996 1.9937687,-0.242768 2.1992188,0.300782 0.2847291,0.75329 0.2255118,0.663707 -0.9550782,0.835937 -0.5003,0.073 -1.5209181,-0.108339 -1.9238281,-0.417969 C 5.9174025,21.008729 4.88125,19.36875 4.96875,19.28125 c 0.0766,-0.0766 0.80919,-0.282506 1.125,-0.291016 z m 11.507812,0.59961 c -0.0675,0.0241 -0.128906,0.308593 -0.128906,0.308593 0,0 0.0522,0.02798 0.322266,-0.0078 0.0727,-0.0181 -0.125839,-0.324859 -0.19336,-0.300781 z" style="fill:currentColor;fill-opacity:1;stroke:none"/>
    <path id="path9" d="M 0 10 L 0 32 L 22 32 L 22 10 L 0 10 z " style="opacity:1;fill:none"/>
  </g>
</svg>
