<svg xmlns="http://www.w3.org/2000/svg" width="22" height="22"><defs><linearGradient id="a" x1="7.937" x2="7.937" y1="15.081" y2="1.852" gradientTransform="translate(.001 .015)scale(1.8897)" gradientUnits="userSpaceOnUse"><stop offset="0" stop-color="#8e8d92"/><stop offset="1" stop-color="#b3b2b6"/></linearGradient></defs><rect width="22" height="22" fill="url(#a)" rx="6" ry="6"/><path fill="#fff" d="M15.14 15.38c-2.13-1.665-.627-8.513-.627-8.513h2.602c.272 0 1.337-.17 1.337-1.445 0-1.569-1.301-1.473-1.301-1.473H7.569c-1.573 0-2.992 1.801-3.807 3.09-.434.687-.188.88.557.556 2.61-1.144 3.347-.732 3.347-.732.184.88.245 4.854-.425 6.423-.68 1.476-1.932 3.347-.092 4.446 1.437.815 2.944-.858 2.795-3.706-.07-1.507-.189-7.159-.189-7.159h2.401c-.074.88-.481 5.376-.056 8.04.442 4.446 5.274 3.583 6.177 1.064.223-.696.17-1.23.004-1.634-.307-.749-.82-.788-.762-.438.035.223.013.442-.022.64-.106.61-1.35 1.564-2.357.841"/></svg>