<svg xmlns="http://www.w3.org/2000/svg" width="22" height="22" viewBox="0 0 22 22"><defs><linearGradient id="a" x1="16" x2="16" y1="30" y2="2" gradientTransform="translate(-1.571 -1.571)scale(.78571)" gradientUnits="userSpaceOnUse"><stop offset="0" stop-color="#faae2a"/><stop offset="1" stop-color="#ffc35a"/></linearGradient></defs><rect width="22" height="22" rx="6" ry="6" style="fill:url(#a);stroke-width:.785714"/><path fill="#fff" d="M5.333 4q1.745 0 3.362.452a12.71 12.71 0 0 1 8.853 8.853Q18 14.922 18 16.667q0 .552-.39.942t-.943.39q-.55 0-.942-.39-.39-.39-.39-.942 0-1.378-.36-2.657t-1.011-2.39A10 10 0 0 0 12.4 9.598a10 10 0 0 0-4.41-2.573 9.8 9.8 0 0 0-2.658-.36q-.552 0-.942-.39T4 5.333t.39-.942Q4.78 4 5.334 4m0 5.04q1.577 0 2.964.604 1.386.605 2.42 1.64a7.8 7.8 0 0 1 1.639 2.42q.605 1.386.605 2.963 0 .552-.391.942-.39.39-.942.391-.552 0-.942-.39t-.39-.943q0-1.026-.391-1.93A5 5 0 0 0 8.84 13.16a5 5 0 0 0-1.577-1.065 4.8 4.8 0 0 0-1.93-.39q-.552 0-.942-.39Q4 10.923 4 10.371q0-.552.39-.942.391-.39.943-.39m2.45 7a1.84 1.84 0 0 1-.543 1.324 1.9 1.9 0 0 1-.598.399q-.345.145-.727.145a1.84 1.84 0 0 1-1.325-.544 1.835 1.835 0 0 1-.544-1.325q0-.382.145-.727a1.85 1.85 0 0 1 .988-.996q.337-.145.736-.145.382 0 .727.145.346.146.598.399.251.252.398.597.145.345.145.727"/></svg>