<svg xmlns="http://www.w3.org/2000/svg" width="22" height="22"><defs><linearGradient id="a" x1="-9.401" x2="-9.401" y1="9.701" y2=".529" gradientTransform="translate(63.899)scale(3.7796)" gradientUnits="userSpaceOnUse"><stop offset="0" stop-color="#624484"/><stop offset="1" stop-color="#bd67a3"/></linearGradient></defs><rect width="22" height="22" fill="url(#a)" rx="6" ry="6"/><path fill="#fff" d="M18.964 5.047a1.103 1.103 0 1 0-1.666 1.206c-.053.81-.295 1.797-1.008 2.659-2.01-2.293-2.857-3.228-3.25-3.607.21-.133.386-.216.504-.263a1.102 1.102 0 0 0 1.773-1.126 1.104 1.104 0 0 0-2.16.123c-.83.352-3.666 1.923-3.243 6.814-3.106.09-4.74.911-5.482 1.45a1.1 1.1 0 0 0-.609-.017 1.104 1.104 0 0 0-.786 1.35 1.102 1.102 0 0 0 2.168-.253l3.247 3.408a4 4 0 0 1-.224.128 1.1 1.1 0 0 0-.93-.176 1.104 1.104 0 0 0 .562 2.134c.459-.12.772-.515.815-.962 1.52-.755 2.777-2.608 2.45-5.988a10.7 10.7 0 0 0 2.679-.327c1.208-.317 2.211-.86 2.971-1.62.958-.958 1.506-2.214 1.6-3.657a1.104 1.104 0 0 0 .589-1.276M8.885 16.46l-3.388-3.555a6.4 6.4 0 0 1 .82-.366l3.173 3.161a3.2 3.2 0 0 1-.605.76m.854-1.273-2.843-2.834a11 11 0 0 1 1.56-.306l1.626 1.552a5.4 5.4 0 0 1-.344 1.588zm-.576-3.214q.415-.032.878-.044.054.502.06.94zm1.836-1.123a9 9 0 0 1 .01-1.967l1.587 1.863q-.751.108-1.597.104m2.212-.214-2.084-2.443a5.4 5.4 0 0 1 .448-1.25c.677.73 1.934 2.149 2.928 3.281a7 7 0 0 1-1.292.412m1.792-.66C13.24 7.961 12.34 6.957 11.86 6.458c.24-.352.5-.627.748-.836.425.42 2.075 2.276 3.312 3.685a4.7 4.7 0 0 1-.916.666" style="stroke-width:.799953"/></svg>