<svg xmlns="http://www.w3.org/2000/svg" width="22" height="22"><defs><linearGradient id="a" x1="7.937" x2="7.937" y1="15.081" y2="1.852" gradientTransform="translate(.001 .015)scale(1.8897)" gradientUnits="userSpaceOnUse"><stop offset="0" stop-color="#8e8d92"/><stop offset="1" stop-color="#b3b2b6"/></linearGradient></defs><rect width="22" height="22" fill="url(#a)" rx="6" ry="6"/><g fill="#fff" transform="translate(-5 -3)"><path d="M11.5 16a2.5 2.5 0 0 0-1.992 1H8c-.554 0-1 .446-1 1v1c0 .554.446 1 1 1h1.508a2.5 2.5 0 0 0 1.992 1 2.5 2.5 0 0 0 1.992-1H24c.554 0 1-.446 1-1v-1c0-.554-.446-1-1-1H13.498a2.5 2.5 0 0 0-1.998-1m0 1a1.5 1.5 0 0 1 1.5 1.5 1.5 1.5 0 0 1-1.5 1.5 1.5 1.5 0 0 1-1.5-1.5 1.5 1.5 0 0 1 1.5-1.5M8 18h1.057a2.5 2.5 0 0 0-.057.5 2.5 2.5 0 0 0 .057.5H8Zm5.95 0H24v1H13.943a2.5 2.5 0 0 0 .057-.5 2.5 2.5 0 0 0-.05-.5M10.5 8A3.49 3.49 0 0 0 7 11.5c0 1.939 1.561 3.5 3.5 3.5h11c1.939 0 3.5-1.561 3.5-3.5S23.439 8 21.5 8Zm0 1h11c1.385 0 2.5 1.115 2.5 2.5S22.885 14 21.5 14h-11A2.495 2.495 0 0 1 8 11.5C8 10.115 9.115 9 10.5 9"/><circle cx="21.5" cy="11.5" r="1.5"/></g></svg>