<svg xmlns="http://www.w3.org/2000/svg" width="22" height="22"><defs><linearGradient id="a" x1="7.937" x2="7.937" y1="15.081" y2="1.852" gradientTransform="translate(.001 .015)scale(1.8897)" gradientUnits="userSpaceOnUse"><stop offset="0" stop-color="#8e8d92"/><stop offset="1" stop-color="#b3b2b6"/></linearGradient></defs><rect width="22" height="22" fill="url(#a)" rx="6" ry="6"/><path fill="#fff" d="M10.86 4.501 4.932 12.09c-1.112 1.422-.8 3.957.622 5.068s3.957.8 5.068-.622l6.67-8.536c.74-.949.533-2.638-.416-3.38-.948-.74-2.637-.533-3.377.415l-5.93 7.588c-.37.475-.266 1.319.208 1.689.475.371 1.319.267 1.69-.206l5.187-6.64.949.74-5.188 6.64c-.741.948-2.43 1.156-3.379.415s-1.155-2.43-.415-3.379l5.93-7.588c1.11-1.422 3.644-1.733 5.067-.622s1.733 3.646.622 5.068l-.74.949-5.93 7.587c-1.481 1.897-4.86 2.312-6.757.83s-2.31-4.86-.83-6.758L9.912 3.76Z" style="stroke-width:.88888"/></svg>