<svg xmlns="http://www.w3.org/2000/svg" width="22" height="22"><defs><linearGradient id="a" x1="7.937" x2="7.937" y1="15.081" y2="1.852" gradientTransform="translate(.001 .016)scale(1.8897)" gradientUnits="userSpaceOnUse"><stop offset="0" stop-color="#3377f4"/><stop offset="1" stop-color="#5194f5"/></linearGradient></defs><rect width="22" height="22" fill="url(#a)" rx="6" ry="6"/><path d="M9.166 0v1.834h-2.75V.024A7 7 0 0 0 5.5.16v1.674H2.75V1.43a7 7 0 0 0-1.32 1.32h.404V5.5H.16a7 7 0 0 0-.137.916h1.811v2.75H0v.918h1.834v2.75H0v.916h1.834v2.75H.16q.102.471.266.916h1.408v2.316c.488.534 1.059.991 1.691 1.352H5.5v.756q.448.098.916.137v-.893h2.75V22h.918v-.916h2.75V22h.916v-.916h2.75v.756q.471-.102.916-.266v-.49h1.059a7 7 0 0 0 1.257-.918h-2.316v-2.75h2.75v2.316c.35-.382.66-.804.918-1.257v-1.059h.49q.164-.445.266-.916h-.756v-2.75H22v-.916h-.916v-2.75H22v-.918h-.916v-2.75h.893a7 7 0 0 0-.137-.916h-.756V3.525a7 7 0 0 0-1.352-1.691h-2.316V.426A7 7 0 0 0 16.5.16v1.674h-2.75V0h-.916v1.834h-2.75V0zM2.75 2.75H5.5V5.5H2.75zm3.666 0h2.75V5.5h-2.75zm3.668 0h2.75V5.5h-2.75zm3.666 0h2.75V5.5h-2.75zm3.666 0h2.75V5.5h-2.75zM2.75 6.416H5.5v2.75H2.75zm3.666 0h2.75v2.75h-2.75zm3.668 0h2.75v2.75h-2.75zm3.666 0h2.75v2.75h-2.75zm3.666 0h2.75v2.75h-2.75zM2.75 10.084H5.5v2.75H2.75zm3.666 0h2.75v2.75h-2.75zm3.668 0h2.75v2.75h-2.75zm3.666 0h2.75v2.75h-2.75zm3.666 0h2.75v2.75h-2.75zM2.75 13.75H5.5v2.75H2.75zm3.666 0h2.75v2.75h-2.75zm3.668 0h2.75v2.75h-2.75zm3.666 0h2.75v2.75h-2.75zm3.666 0h2.75v2.75h-2.75zM2.75 17.416H5.5v2.75H2.75zm3.666 0h2.75v2.75h-2.75zm3.668 0h2.75v2.75h-2.75zm3.666 0h2.75v2.75h-2.75z" style="font-variation-settings:normal;stroke-width:.916667;-inkscape-stroke:none;fill:#fff;opacity:.1"/><path fill="#fff" d="M8.375 15c1.328-1.375 2.54-2.805 2.696-3.177.155-.372.766-1.107 1.358-1.633 1.549-1.378 2.452-1.27 3.23.386.198.422.471.767.606.767.31 0 1.735-1.381 1.735-1.68 0-.389-.731-1.057-1.156-1.057-.448 0-.876-.64-.876-1.307 0-.506-1.4-1.915-2.416-2.431-.485-.246-1.318-.368-2.527-.368-1.828 0-2.592.302-1.422.561.351.078 1.013.453 1.47.834 1.176.98 1.129 1.715-.213 3.302-.574.678-1.184 1.233-1.356 1.233-.38 0-5.504 4.739-5.504 5.09 0 .266 1.573 1.98 1.817 1.98.079 0 1.23-1.125 2.558-2.5" color="#000" style="font-variation-settings:normal;isolation:auto;mix-blend-mode:normal;-inkscape-stroke:none"/></svg>