<svg xmlns="http://www.w3.org/2000/svg" width="22" height="22"><defs><linearGradient id="a" x1="7.937" x2="7.937" y1="15.081" y2="1.852" gradientTransform="translate(.001 .016)scale(1.8897)" gradientUnits="userSpaceOnUse"><stop offset="0" stop-color="#3377f4"/><stop offset="1" stop-color="#5194f5"/></linearGradient></defs><rect width="22" height="22" fill="url(#a)" rx="6" ry="6"/><path fill="#fff" d="M12.532 3.742c-1.705 0-3.182 1-3.914 2.452a3 3 0 0 0-1.64-.49c-1.691 0-3.063 1.405-3.063 3.138 0 .276.043.542.108.797A4.74 4.74 0 0 0 2 13.55c0 2.608 2.05 4.708 4.596 4.708h8.808c2.546 0 4.596-2.1 4.596-4.708 0-2.083-1.312-3.839-3.136-4.463q.073-.405.072-.833c0-2.492-1.972-4.512-4.404-4.512" color="#000"/></svg>