<svg width="22" height="22" version="1.1" viewBox="0 0 22 22" xmlns="http://www.w3.org/2000/svg">
 <defs>
  <style id="current-color-scheme" type="text/css">.ColorScheme-Text { color:#363636; }</style>
 </defs>
 <path class="ColorScheme-Text" fill="currentColor" d="m11 3a8 8 0 0 0-8 8 8 8 0 0 0 8 8 8 8 0 0 0 8-8 8 8 0 0 0-8-8zm0 1a7 7 0 0 1 7 7 7 7 0 0 1-7 7 7 7 0 0 1-7-7 7 7 0 0 1 7-7zm-1.0605 3.8105c-1.0372 0-2.0699 0.12637-3.0723 0.375-0.33188 0.082121-0.53329 0.48176-0.45117 0.8125 0.082121 0.33075 0.41812 0.53329 0.75 0.45117 0.9045-0.22388 1.8383-0.33789 2.7754-0.33789 1.7977 0 3.5194 0.40551 5.1191 1.2031 0.08775 0.04389 0.1812 0.064453 0.27344 0.064453 0.22838 0 0.44637-0.18913 0.55664-0.40625 0.15189-0.30491 0.026713-0.67819-0.2793-0.83008-1.773-0.88425-3.6796-1.332-5.6719-1.332zm0.0019531 2.7031c-0.9315 0-1.8595 0.12501-2.7539 0.36914-0.28799 0.07876-0.45763 0.56943-0.37891 0.85742 0.078758 0.28799 0.3769 0.45653 0.66602 0.37891 0.801-0.21826 1.6321-0.33008 2.4668-0.33008 1.5187 0 2.9656 0.35246 4.3066 1.0488 0.07876 0.04163 0.16366 0.0625 0.24805 0.0625 0.19688 0 0.38568-0.30376 0.48242-0.48828 0.13504-0.26434 0.030004-0.59043-0.23438-0.72656-1.4737-0.765-3.1332-1.1719-4.8027-1.1719zm-0.0019531 2.5293c-0.83586 0-1.66 0.12275-2.4531 0.36914-0.24526 0.07313-0.382 0.59344-0.30664 0.83984 0.07536 0.24413 0.33481 0.38232 0.58008 0.30469 0.70312-0.21826 1.4372-0.32812 2.1797-0.32812 1.2397 0 2.4677 0.31358 3.5488 0.91211l0.22461 0.056641c0.16424 0 0.32218-0.088068 0.4043-0.24219 0.12261-0.22389 0.044509-0.76605-0.18164-0.88867-1.2173-0.66833-2.6-1.0234-3.9961-1.0234z"/>
</svg>
