<svg xmlns="http://www.w3.org/2000/svg" width="22" height="22"><defs><linearGradient id="a" x1="7.937" x2="7.937" y1="15.081" y2="1.852" gradientTransform="translate(.001 .016)scale(1.8897)" gradientUnits="userSpaceOnUse"><stop offset="0" stop-color="#3377f4"/><stop offset="1" stop-color="#5194f5"/></linearGradient></defs><rect width="22" height="22" fill="url(#a)" rx="6" ry="6"/><path fill="#fff" fill-rule="evenodd" d="M6.667 3A2.66 2.66 0 0 0 4 5.667v10.666A2.66 2.66 0 0 0 6.667 19h8.666A2.66 2.66 0 0 0 18 16.333V5.667A2.66 2.66 0 0 0 15.333 3Zm.444 4.444h7.778c.592 0 .592.89 0 .89H7.11c-.592 0-.592-.89 0-.89m0 3.556h7.778c.592 0 .592.889 0 .889H7.11c-.592 0-.592-.889 0-.889m0 3.556h7.778c.593-.001.593.89 0 .888H7.11c-.593.001-.593-.89 0-.888" style="stroke-width:.888889;paint-order:stroke fill markers"/></svg>