<svg width="22" height="22" version="1.1" xmlns="http://www.w3.org/2000/svg">
 <defs>
  <linearGradient id="a" x1="346.66" x2="346.66" y1="553.8" y2="525.8" gradientTransform="translate(-261.38 -413.13) scale(.78571)" gradientUnits="userSpaceOnUse">
   <stop stop-color="#63984b" offset="0"/>
   <stop stop-color="#8fc278" offset="1"/>
  </linearGradient>
 </defs>
 <rect width="22" height="22" rx="6" ry="6" fill="url(#a)" stroke-width=".78571"/>
 <path d="m6 2c-2.216 0-4 1.784-4 4v10c0 2.216 1.784 4 4 4h10c2.216 0 4-1.784 4-4v-10c0-2.216-1.784-4-4-4zm-1.5 2a0.5 0.5 0 0 1 0.5 0.5 0.5 0.5 0 0 1-0.5 0.5 0.5 0.5 0 0 1-0.5-0.5 0.5 0.5 0 0 1 0.5-0.5zm13 13a0.5 0.5 0 0 1 0.5 0.5 0.5 0.5 0 0 1-0.5 0.5 0.5 0.5 0 0 1-0.5-0.5 0.5 0.5 0 0 1 0.5-0.5z" fill="#ffffff"/>
 <path d="m4 15h4v1h-4zm0 2h2v1h-2zm11-13v3h1v-1h1v-1h-1v-1zm2 1h1v-1h-1zm0 1v1h1v-1z" fill="#484a4b"/>
 <path d="m4 9h2v1h-2zm1 2h2v1h-2zm2-2h2v1h-2zm1 2h2v1h-2zm2-2h2v1h-2zm1 2h2v1h-2zm2-2h2v1h-2zm1 2h2v1h-2zm2-2h2v1h-2z" opacity=".15" stroke-linecap="round" stroke-linejoin="round"/>
</svg>
