<svg xmlns="http://www.w3.org/2000/svg" width="22" height="22"><defs><linearGradient id="a" x1="400.57" x2="400.57" y1="545.8" y2="517.8" gradientTransform="translate(-384.57 -515.8)" gradientUnits="userSpaceOnUse"><stop offset="0" stop-color="#42a603"/><stop offset="1" stop-color="#78da06"/></linearGradient></defs><rect width="22" height="22" fill="url(#a)" rx="6" ry="6"/><path fill="#fff" d="M10 3c-1.108 0-2 .892-2 2v1H5.846A1.84 1.84 0 0 0 4 7.846V11h2c.554 0 1 .446 1 1s-.446 1-1 1H4v3.154C4 17.177 4.823 18 5.846 18H9v-2c0-.554.446-1 1-1s1 .446 1 1v2h3.154A1.84 1.84 0 0 0 16 16.154V14h1c1.108 0 2-.892 2-2s-.892-2-2-2h-1V7.846A1.84 1.84 0 0 0 14.154 6H12V5c0-1.108-.892-2-2-2m0 1c.554 0 1 .446 1 1v2h3c.554 0 1 .446 1 1v3h2c.554 0 1 .446 1 1s-.446 1-1 1h-2v3c0 .554-.446 1-1 1h-2v-1c0-1.108-.892-2-2-2s-2 .892-2 2v1H6c-.554 0-1-.446-1-1v-2h1c1.108 0 2-.892 2-2s-.892-2-2-2H5V8c0-.554.446-1 1-1h3V5c0-.554.446-1 1-1"/></svg>