<svg width="22" height="22" version="1.1" xmlns="http://www.w3.org/2000/svg">
 <defs>
  <linearGradient id="a" x1="7.937" x2="7.937" y1="15.081" y2="1.852" gradientTransform="translate(.001 .015)scale(1.8897)" gradientUnits="userSpaceOnUse">
   <stop stop-color="#8e8d92" offset="0"/>
   <stop stop-color="#b3b2b6" offset="1"/>
  </linearGradient>
 </defs>
 <rect width="22" height="22" rx="6" ry="6" fill="url(#a)"/>
 <path d="m0 15.715v0.28516c0 3.2447 2.5502 5.8726 5.7637 5.9961 0.078505 0.003016 0.15706 0.003906 0.23633 0.003906a8.5654 6.983 0 0 0 0.052734 0h9.9473a8.5654 6.983 0 0 0 0.23633-0.003906c3.2134-0.12346 5.7637-2.7514 5.7637-5.9961v-0.28516h-22z" fill="#ffffff" opacity=".35" stroke-width=".8702" style="paint-order:stroke fill markers"/>
 <rect y="14.929" width="22" height=".786" rx="0" ry="0" fill-rule="evenodd" opacity=".15" stroke-width=".78571" style="paint-order:stroke fill markers"/>
 <rect x="2.357" y="14.143" width="3.143" height="3.143" rx=".786" ry=".786" fill="#fff" stroke-width=".78571"/>
 <rect x="7.071" y="14.143" width="3.143" height="3.143" rx=".786" ry=".786" fill="#fff" stroke-width=".78571"/>
 <rect x="11.786" y="14.143" width="3.143" height="3.143" rx=".786" ry=".786" fill="#fff" stroke-width=".78571"/>
 <rect x="16.5" y="14.143" width="3.143" height="3.143" rx=".786" ry=".786" fill="#fff" stroke-width=".78571"/>
</svg>
