<svg xmlns="http://www.w3.org/2000/svg" width="22" height="22"><defs><linearGradient id="a" x1="7.937" x2="7.937" y1="15.081" y2="1.852" gradientTransform="translate(.001 .016)scale(1.8897)" gradientUnits="userSpaceOnUse"><stop offset="0" stop-color="#3377f4"/><stop offset="1" stop-color="#5194f5"/></linearGradient></defs><rect width="22" height="22" fill="url(#a)" rx="6" ry="6"/><g fill="#fff"><path d="M11 3a8 8 0 0 0-8 8 8 8 0 0 0 8 8 8 8 0 0 0 8-8 8 8 0 0 0-8-8m0 5.333A2.667 2.667 0 0 1 13.667 11 2.667 2.667 0 0 1 11 13.667 2.667 2.667 0 0 1 8.333 11 2.667 2.667 0 0 1 11 8.333"/><path d="M11 8.333A2.667 2.667 0 0 0 8.333 11 2.667 2.667 0 0 0 11 13.667 2.667 2.667 0 0 0 13.667 11 2.667 2.667 0 0 0 11 8.333m0 1.334A1.333 1.333 0 0 1 12.333 11 1.333 1.333 0 0 1 11 12.333 1.333 1.333 0 0 1 9.667 11 1.333 1.333 0 0 1 11 9.667" opacity=".35"/></g><rect width="4" height="22" x="9" rx="0" ry="0" style="opacity:.15;fill:#fff;stroke-width:.794998;stroke-linecap:round;stroke-linejoin:round"/></svg>