<svg xmlns="http://www.w3.org/2000/svg" width="22" height="22"><defs><linearGradient id="a" x1="7.937" x2="7.937" y1="15.081" y2="1.852" gradientTransform="translate(0 .016)scale(1.8897)" gradientUnits="userSpaceOnUse"><stop offset="0" stop-color="#333"/><stop offset="1" stop-color="#424242"/></linearGradient></defs><rect width="22" height="22" fill="url(#a)" rx="6" ry="6"/><path d="M5 4c-1.108 0-2 .892-2 2v9c0 1.108.892 2 2 2h12c1.108 0 2-.892 2-2V6c0-1.108-.892-2-2-2Zm0 1h12c.554 0 1 .446 1 1H4c0-.554.446-1 1-1M4 7h14v8c0 .554-.446 1-1 1H5c-.554 0-1-.446-1-1Zm3 6c-.554 0-1 .446-1 1s.446 1 1 1h8c.554 0 1-.446 1-1s-.446-1-1-1z" class="ColorScheme-Text" style="fill:#fff"/></svg>