<svg xmlns="http://www.w3.org/2000/svg" width="22" height="22"><defs><linearGradient id="a" x1="7.937" x2="7.937" y1="15.081" y2="1.852" gradientTransform="translate(.001 .015)scale(1.8897)" gradientUnits="userSpaceOnUse"><stop offset="0" stop-color="#8e8d92"/><stop offset="1" stop-color="#b3b2b6"/></linearGradient></defs><rect width="22" height="22" fill="url(#a)" rx="6" ry="6"/><path d="M9 4C7.5 4 6.458 5.037 6.068 6.033L3.2 13.518l-.008.023-.056.15h.011A2.5 2.5 0 0 0 3 14.5C3 15.885 4.115 17 5.5 17h7.113a5.5 5.5 0 0 1-.4-1H5.5c-.83 0-1.5-.669-1.5-1.5S4.67 13 5.5 13h6.713a5.5 5.5 0 0 1 .4-1H5.5c-.24 0-.468.045-.687.107L7 6.397C7.292 5.648 7.892 5 9 5h4c1.108 0 1.709.65 2 1.396l1.072 2.801a5.5 5.5 0 0 1 1.008-.166l-1.148-2.998C15.542 5.037 14.499 4 13 4Zm8.5 6a4.5 4.5 0 1 0 0 9 4.5 4.5 0 0 0 0-9m0 1c.277 0 .5.223.5.5v4c0 .667-1 .667-1 0v-4c0-.277.223-.5.5-.5m-.025 6h.025c.667 0 .667 1 0 1-.667.017-.692-.983-.025-1" style="fill:#fff"/><circle cx="5.5" cy="14.5" r=".5" style="opacity:1;fill:#fff;stroke-linecap:round;stroke-linejoin:round"/><circle cx="7.5" cy="14.5" r=".5" style="opacity:1;fill:#fff;stroke-linecap:round;stroke-linejoin:round"/></svg>