<svg xmlns="http://www.w3.org/2000/svg" width="22" height="22" viewBox="0 0 22 22"><defs><linearGradient id="a" x1="400.57" x2="400.57" y1="545.8" y2="517.8" gradientTransform="translate(-303.734 -406.843)scale(.78571)" gradientUnits="userSpaceOnUse"><stop offset="0" stop-color="#4cbe04"/><stop offset="1" stop-color="#72cd09"/></linearGradient></defs><rect width="22" height="22" fill="url(#a)" rx="6" ry="6" style="fill:url(#a);stroke-width:.785714"/><path fill="#fff" d="M11 3a8 8 0 0 0-8 8 8 8 0 0 0 8 8 8 8 0 0 0 8-8 8 8 0 0 0-8-8m0 1.067A6.933 6.933 0 0 1 17.933 11 6.933 6.933 0 0 1 11 17.933 6.933 6.933 0 0 1 4.067 11 6.933 6.933 0 0 1 11 4.067m0 3.2a.53.53 0 0 0-.533.533v5.113L9.115 11.56a.532.532 0 1 0-.755.755l2.263 2.262a.53.53 0 0 0 .577.117.5.5 0 0 0 .177-.117l2.263-2.262a.532.532 0 1 0-.755-.755l-1.352 1.353V7.8A.53.53 0 0 0 11 7.267" style="stroke-width:1.06667"/></svg>