<svg width="22" height="22" version="1.1" viewBox="0 0 22 22" xmlns="http://www.w3.org/2000/svg">
 <defs>
  <style id="current-color-scheme" type="text/css">.ColorScheme-Text { color:#363636; }</style>
 </defs>
 <path class="ColorScheme-Text" d="m4 3c-0.554 0-1 0.446-1 1v14c0 0.554 0.446 1 1 1h13c0.554 0 1-0.446 1-1v-2.125c1.2762-1.3025 1.9937-3.0515 2-4.875-6.49e-4 -1.8309-0.71862-3.5887-2-4.8965v-2.1035c0-0.554-0.446-1-1-1zm0.11523 1h12.77c0.06362 0 0.11523 0.051615 0.11523 0.11523v4.0625c-1.1965 0.42303-1.9974 1.5532-2 2.8223 0.0026 1.2691 0.80348 2.3993 2 2.8223v4.0625c0 0.06362-0.05161 0.11523-0.11523 0.11523h-12.77c-0.063623 0-0.11523-0.051615-0.11523-0.11523v-13.77c0-0.063623 0.051615-0.11523 0.11523-0.11523zm8.7696 2.9995-1.8848 0.53711v4.7799c-0.40879-0.34758-0.99707-0.54676-1.6152-0.54688-1.19-8.3e-5 -2.1546 0.72316-2.1543 1.6152-2.948e-4 0.89204 0.96434 1.6153 2.1543 1.6152 1.19 8.3e-5 2.1543-0.72316 2.1543-1.6152v-4.9255l1.3457-0.38477v-1.0762zm5.1151 0.68609c0.65177 0.98258 0.99958 2.1354 1 3.3145-0.0054 1.1704-0.35299 2.3137-1 3.2891v-1.2891c-0.16218-0.0019-0.32352-0.02357-0.48047-0.06445-0.01894-0.0043-0.03783-0.0088-0.05664-0.01367-0.15902-0.04476-0.31187-0.10906-0.45508-0.19141-0.62133-0.355-1.0056-1.0149-1.0078-1.7305 0.0022-0.71559 0.38647-1.3755 1.0078-1.7305 0.14321-0.082353 0.29606-0.14665 0.45508-0.19141 0.01881-0.00483 0.03769-0.00939 0.05664-0.013672 0.15695-0.040887 0.31829-0.06253 0.48047-0.064453v-1.3144z" fill="currentColor"/>
</svg>
