<svg width="22" height="22" fill="none" version="1.1" viewBox="0 0 22 22" xmlns="http://www.w3.org/2000/svg">
 <style id="current-color-scheme" type="text/css">.ColorScheme-Text {
  color:#363636;
}</style>
 <path class="ColorScheme-Text" d="m4.0425 5.5728c0.48696-0.00862 1.0082 0.01854 1.5081 0.10483 1.0011 0.17281 2.1182 0.62289 2.4862 1.7268l0.10632 0.31894-0.25526 0.2188c-0.52395 0.4491-1.1791 1.2454-1.6459 2.1409-0.08986 0.1724-0.1709 0.3449-0.24201 0.5161 0.252-0.1679 0.52456-0.3025 0.80133-0.4084 0.98241-0.3761 2.1016-0.43455 2.843-0.3782h2.0431c0.4171 0 0.9129-0.17684 1.4681-0.52513 0.5494-0.3446 1.1163-0.83138 1.6648-1.3882 0.704-0.71476 1.3578-1.5244 1.8835-2.249l-6.7766 1.8482-0.10505-0.52527c-0.30595-1.5297 0.13687-2.5825 0.90755-3.2307 0.1577-0.13271 0.3259-0.24563 0.4991-0.34111-0.04-7e-3 -0.08-0.01373-0.1198-0.0202-0.6091-0.09877-1.1668-0.13105-1.4841-0.13105-1.5342 0-2.935 0.53334-4.0737 1.2176-0.58609 0.35222-1.0951 0.73994-1.5087 1.1051zm5.2256 5.2226c-0.62083-0.0131-1.4226 0.0663-2.1093 0.3292-0.7729 0.2959-1.3177 0.7829-1.4178 1.575 0.14825 0.4948 0.52044 0.954 1.3196 1.2737 0.44354 0.1774 0.87224 0.3651 1.285 0.5608 0.47324-0.0145 0.74858-0.1631 0.92053-0.3453 0.19674-0.2084 0.3228-0.5295 0.36699-0.9608 0.07816-0.7629-0.11763-1.7007-0.36503-2.4326zm0.34655 4.3916c1.3702 0.7631 2.519 1.6013 3.3913 2.4067l-1.4425-4.8084 1.035 0.5175c0.9018 0.4509 2.2821 1.0559 3.4923 1.4112 0.5513 0.1618 1.0397 0.2634 1.4198 0.285l-5.9808-4.1865h-1.2077c0.2242 0.7603 0.3908 1.6886 0.3058 2.5175-0.0568 0.5546-0.2319 1.1186-0.63448 1.5452-0.11306 0.1198-0.23944 0.2239-0.37875 0.3118zm3.282-4.6384 6.3059 4.4142-0.1929 0.3858c-0.2782 0.5563-0.9057 0.6605-1.3945 0.6545-0.5308-0.0066-1.1668-0.1419-1.8061-0.3296-0.877-0.2575-1.824-0.633-2.6331-0.9934l1.4822 4.9409c0.1719 0.3396 0.2792 0.681 0.2792 1.004l-0.9789 0.1437-0.2306-0.7688c-0.0405-0.0748-0.0879-0.1547-0.1428-0.2398-0.2556-0.3958-0.6442-0.8535-1.1607-1.3414-1.032-0.9746-2.5388-2.0354-4.4065-2.933-0.42503-0.2042-0.86838-0.3999-1.3286-0.584-1.0972-0.4388-1.7203-1.1604-1.9403-2.0394-0.26801-1.0705 0.09174-2.2545 0.60627-3.2416 0.44378-0.85138 1.0407-1.6298 1.5956-2.1744-0.27016-0.39152-0.81156-0.65233-1.5703-0.78329-0.89139-0.15388-1.8979-0.09075-2.5484 0.01767l-1.2889 0.21482 0.8163-1.0204c0.49528-0.6191 1.434-1.5179 2.6766-2.2646 1.2447-0.748 2.823-1.3605 4.5888-1.3605 0.37019 0 0.98136 0.03647 1.6441 0.14395 0.6579 0.10668 1.402 0.28881 2.017 0.59634l-0.2236 0.94721c-0.4974 0-1.1939 0.15369-1.689 0.57014-0.384 0.32299-0.6997 0.84713-0.6429 1.7351l8.2457-2.2488-0.6773 1.0836c-0.5872 0.93961-1.606 2.3455-2.7662 3.5234-0.5801 0.58897-1.2078 1.1334-1.8458 1.5336-0.256 0.1606-0.5206 0.3023-0.7902 0.4141z" fill="currentColor"/>
</svg>
