<svg xmlns="http://www.w3.org/2000/svg" width="22" height="22" viewBox="0 0 22 22"><defs><linearGradient id="a" x1="7.937" x2="7.937" y1="15.081" y2="1.852" gradientTransform="translate(-1.57 -1.559)scale(1.48476)" gradientUnits="userSpaceOnUse"><stop offset="0" stop-color="#3377f4"/><stop offset="1" stop-color="#5194f5"/></linearGradient></defs><rect width="22" height="22" fill="url(#a)" rx="6" ry="6" style="fill:url(#a)"/><g fill="#fff" transform="translate(-5 -5)"><path d="M16 7a2 2 0 0 0-2 2h-3v.006c-1.113.032-2 .933-2 2.055V21.94c0 1.142.919 2.06 2.06 2.06h9.88c1.141 0 2.06-.918 2.06-2.06V11.06C23 9.92 22.081 9 20.94 9H18c0-.138-.005-.276-.031-.406A2.01 2.01 0 0 0 16 7m-.012 1H16c.414 0 .754.266.906.625A.9.9 0 0 1 17 9c0 .888-1.072 1.335-1.703.71-.632-.623-.197-1.7.691-1.71M11 10h3v1s-1 0-1 1h6c0-.75-.563-.953-.844-1H18v-1h3c.554 0 1 .446 1 1v11c0 .554-.446 1-1 1H11c-.554 0-1-.446-1-1V11c0-.554.446-1 1-1" style="color:#363636"/><rect width="6" height="1" x="13" y="15" rx=".5" ry=".5" style="paint-order:stroke fill markers"/><rect width="6" height="1" x="13" y="18" rx=".5" ry=".5" style="paint-order:stroke fill markers"/></g></svg>