<svg width="22" height="22" version="1" xmlns="http://www.w3.org/2000/svg">
 <defs>
  <style id="current-color-scheme" type="text/css">.ColorScheme-Text { color:#363636; }</style>
 </defs>
 <path class="ColorScheme-Text" d="m3 16v1c0 1.108 0.892 2 2 2h12c1.108 0 2-0.892 2-2v-1h-1v1c0 0.554-0.446 1-1 1h-12c-0.554 0-1-0.446-1-1v-1z" fill="currentColor"/>
 <path class="ColorScheme-Text" d="m10 3c-1.108 0-2 0.892-2 2v6.791l-2.3027-2.3027c-0.097934-0.097934-0.22766-0.14648-0.35547-0.14648-0.12781-1e-7 -0.25558 0.04855-0.35352 0.14648-0.19587 0.19587-0.19392 0.51116 0.0019532 0.70703l5.6562 5.6582c0.19587 0.19587 0.50921 0.19587 0.70508 0l5.6582-5.6582c0.19587-0.19587 0.19587-0.51116 0-0.70703-0.19587-0.19587-0.50921-0.19587-0.70508 0l-2.3047 2.3047v-6.793c0-1.108-0.892-2-2-2zm0 1h2c0.554 0 1 0.446 1 1v7.793l-2 2-2-2v-7.793c0-0.554 0.446-1 1-1z" fill="currentColor"/>
</svg>
