<svg width="22" height="22" version="1.1" xmlns="http://www.w3.org/2000/svg">
 <style id="current-color-scheme" type="text/css">.ColorScheme-Text { color: #363636; }</style>
 <path class="ColorScheme-Text" d="m7 2c-1.662 0-3 1.338-3 3v3 0.26953a2 2 0 0 1 1 1.7305 2 2 0 0 1-1 1.7188v1.0977 4.1836c0 1.662 1.338 3 3 3h8c1.662 0 3-1.338 3-3v-4.1836-1.0977a2 2 0 0 1-1-1.7188 2 2 0 0 1 1-1.7188v-0.28125-3c0-1.662-1.338-3-3-3h-8zm0 1h8c1.108 0 2 0.892 2 2v2.7871a3 3 0 0 0-1 2.2129 3 3 0 0 0 1 2.2129v3.7871h-12v-3.7871a3 3 0 0 0 1-2.2129 3 3 0 0 0-1-2.2246v-2.7754c0-1.108 0.892-2 2-2zm4 3a4 4 0 0 0-4 4 4 4 0 0 0 4 4 4 4 0 0 0 4-4 4 4 0 0 0-4-4zm0 1a2.9999 2.9999 0 0 1 3 3 2.9999 2.9999 0 0 1-3 3 2.9999 2.9999 0 0 1-3-3 2.9999 2.9999 0 0 1 3-3zm-0.5 1c-0.277 0-0.5 0.223-0.5 0.5v2c0 0.277 0.223 0.5 0.5 0.5h2c0.277 0 0.5-0.223 0.5-0.5s-0.223-0.5-0.5-0.5h-1.5v-1.5c0-0.277-0.223-0.5-0.5-0.5zm-5.5 9h7v2h-5c-1.108 0-2-0.892-2-2zm8 0h4c0 1.108-0.892 2-2 2h-2v-2z" fill="currentColor"/>
</svg>
