<svg width="22" height="22" version="1.1" xmlns="http://www.w3.org/2000/svg" xmlns:xlink="http://www.w3.org/1999/xlink">
 <defs>
  <radialGradient id="b" cx="26.008" cy="20.969" r="11" gradientTransform="rotate(184.95 49.673 27.351) scale(3.0997 2.3439)" gradientUnits="userSpaceOnUse">
   <stop stop-color="#f945b3" offset="0"/>
   <stop stop-color="#ffb953" offset=".496"/>
   <stop stop-color="#65e955" offset="1"/>
  </radialGradient>
 </defs>
 <rect width="22" height="22" rx="6" ry="6" fill="url(#b)"/>
 <rect x="2" y="2" width="18" height="18" rx="4" ry="4" fill="#ffffff" stroke-width="1.0051"/>
 <path d="M11 5a6 6 0 0 0-.824.059 6 6 0 0 0-.236.046 6 6 0 0 0-.569.125 6 6 0 0 0-.3.102 6 6 0 0 0-.463.172 6 6 0 0 0-.315.155 6 6 0 0 0-.428.236 6 6 0 0 0-.274.182 6 6 0 0 0-.39.291 6 6 0 0 0-.271.239 6 6 0 0 0-.323.323 6 6 0 0 0-.239.27 6 6 0 0 0-.291.391 6 6 0 0 0-.182.274 6 6 0 0 0-.236.428 6 6 0 0 0-.155.315 6 6 0 0 0-.172.464 6 6 0 0 0-.102.3 6 6 0 0 0-.125.568 6 6 0 0 0-.046.236A6 6 0 0 0 5 11a6 6 0 0 0 .059.824 6 6 0 0 0 .046.236 6 6 0 0 0 .125.569 6 6 0 0 0 .102.3 6 6 0 0 0 .172.463 6 6 0 0 0 .155.315 6 6 0 0 0 .236.428 6 6 0 0 0 .182.274 6 6 0 0 0 .291.39 6 6 0 0 0 .239.271 6 6 0 0 0 .323.323 6 6 0 0 0 .27.239 6 6 0 0 0 .391.291 6 6 0 0 0 .274.182 6 6 0 0 0 .428.236 6 6 0 0 0 .315.155 6 6 0 0 0 .464.172 6 6 0 0 0 .3.102 6 6 0 0 0 .568.125 6 6 0 0 0 .236.046A6 6 0 0 0 11 17a6 6 0 0 0 6-6 6 6 0 0 0-6-6m0 .667A5.333 5.333 0 0 1 16.333 11 5.333 5.333 0 0 1 11 16.333v-2.666A2.667 2.667 0 0 1 8.333 11 2.667 2.667 0 0 1 11 8.333Zm0 2.666v5.334A2.667 2.667 0 0 0 13.667 11 2.667 2.667 0 0 0 11 8.333" fill="#363636" style="paint-order:stroke fill markers"/>
</svg>
