<svg xmlns="http://www.w3.org/2000/svg" width="22" height="22"><defs><linearGradient id="a" x1="7.937" x2="7.937" y1="15.081" y2="1.852" gradientTransform="translate(0 .015)scale(1.8897)" gradientUnits="userSpaceOnUse"><stop offset="0" stop-color="#888"/><stop offset="1" stop-color="#aaa"/></linearGradient></defs><linearGradient id="b" x1="12" x2="12" y1="48" y2="10" gradientTransform="matrix(.44444 0 0 .44532 -3.222 -2.376)" gradientUnits="userSpaceOnUse"><stop offset="0" stop-color="#eef1f2"/><stop offset="1" stop-color="#f9fafb"/></linearGradient><rect width="22" height="22" fill="url(#a)" rx="6" ry="6"/><path d="M7.667 20a1.33 1.33 0 0 0-1.334 1.333V22h9.334v-.667A1.33 1.33 0 0 0 14.333 20Z" opacity=".5" style="stroke-width:.666667"/><path fill="url(#b)" d="M7 2C4.791 2 3 3.795 3 6.008v4.06c.565.506.888 1.27.889 2.03 0 .76-.324 1.524-.889 2.03v2.436L5.4 19h11.2l2.4-2.436v-2.436c-.565-.506-.888-1.27-.889-2.03 0-.76.324-1.524.889-2.03v-4.06A4.004 4.004 0 0 0 15 2Z" style="fill:url(#b);stroke-width:.805976"/><rect width="4" height=".667" x="7.667" y="20.667" fill="#f6b44d" fill-rule="evenodd" rx=".333" ry=".333" style="stroke-width:.666667;paint-order:stroke fill markers"/><rect width="2" height=".667" x="12.333" y="20.667" fill="#f6b44d" fill-rule="evenodd" rx=".333" ry=".333" style="stroke-width:.666667;paint-order:stroke fill markers"/><g stroke-width=".549"><path fill="#e38c53" d="M10.6 15.268a5.6 5.6 0 0 1-5.41-4.15 5.6 5.6 0 0 1 2.61-6.3 5.6 5.6 0 0 1 6.76.89l-3.96 3.96"/><path fill="#59a3c8" d="M15.36 6.108a5.6 5.6 0 0 1 1.302 5.876L11.4 10.068"/><path fill="#a8cf36" d="M16.286 12.647a5.2 5.2 0 0 1-4.886 3.421v-5.2z"/></g></svg>