<svg width="22" height="22" version="1.1" xmlns="http://www.w3.org/2000/svg">
 <defs>
  <style id="current-color-scheme" type="text/css">.ColorScheme-Text { color:#363636; }</style>
 </defs>
 <g class="ColorScheme-Text" fill="currentColor">
  <path d="m11 3c-4.3745 0-7.9384 3.5134-8 7.8867 0.029926-2.2832 2.2998-4.4023 5-4.4023 0.21866 0 1.4662 0.02091 2.625 0.62891 1.021 0.53629 1.5558 1.4579 1.9277 2.0996 0.54044 1.0198 0.56324 1.956-0.0332 2.7344-0.05037 0.06548-0.20508 0.15589-0.20508 0.35352 0 0.16296 0.10618 0.32158 0.29492 0.45312 0.89866 0.62518 2.593 0.54102 2.5977 0.54102a3.7229 3.7229 0 0 0 1.8906-0.52148c1.1751-0.68651 1.8996-1.5883 1.9023-2.9492 0.0163-1.4003-0.5001-2.3319-0.70898-2.7441-1.3244-2.5905-4.1826-4.0801-7.291-4.0801zm0 1c2.7889 0 5.2707 1.3256 6.4004 3.5352 0.23472 0.46291 0.61296 1.13 0.59961 2.2773a1.0001 1.0001 0 0 0 0 0.00977c-2e-3 1.0072-0.40654 1.5038-1.4062 2.0879a1.0001 1.0001 0 0 0-0.0059 0.0039c-0.41776 0.24797-0.8951 0.37907-1.3809 0.38086-0.0023 0-0.40186 0.01757-0.85742-0.03125-0.33301-0.0357-0.60651-0.14443-0.85547-0.24219 0.50107-1.0219 0.5006-2.2221-0.05859-3.2773a1.0001 1.0001 0 0 0-0.01758-0.033203c-0.3723-0.6424-1.017-1.7937-2.3281-2.4824-1.4117-0.74071-2.8061-0.74414-3.0898-0.74414-0.55098 0-1.0548 0.15955-1.5664 0.29297 1.2303-1.0738 2.8-1.7773 4.5664-1.7773z"/>
  <path d="m10.031 9.2539c-2.8103 1.384-3.9311 4.9677-2.084 7.498a4.9499 4.9499 0 0 0 1.4199 1.334l0.00586 2e-3c1.0083 0.63063 2.3883 0.85357 3.5938 0.63867 0.05969-0.01266 0.12273-0.0236 0.17969-0.03711 0.14056-0.03335 0.27096-0.06818 0.38281-0.10352l0.08203-0.02734a8.0186 8.0186 0 0 0 4.1621-3.2988c0.13863-0.21845-0.10778-0.47734-0.33398-0.35352-0.76655 0.7535-1.9542 0.93276-2.9004 0.9375-2.957 0-5.5352-2.2728-5.5352-4.8828a1.9671 1.9671 0 0 1 1.0273-1.707zm-1.6641 3.2715c0.8018 2.4806 3.2928 4.3184 6.1719 4.3184a1.0001 1.0001 0 0 0 0.0059 0c0.05524-2.77e-4 0.12837-0.02028 0.18555-0.02148-0.46348 0.29648-0.91841 0.60896-1.4453 0.79102l-0.07226 0.02344c-0.07793 0.02416-0.1795 0.05223-0.29688 0.08008-0.01089 0.0026-0.06617 0.01332-0.125 0.02539h-2e-3c-0.95772 0.1702-2.1369-0.03296-2.8867-0.50195a1.0001 1.0001 0 0 0-0.00781-0.0039c-0.44453-0.27629-0.82937-0.63805-1.1328-1.0645a1.0001 1.0001 0 0 0-0.00586-0.0098c-0.80586-1.1039-0.84669-2.4451-0.38867-3.6367z" opacity=".5"/>
  <path d="m8.0057 6.0078c-2.7437 0-5 2.6025-5 4.8867a8.1309 8.1309 0 0 0 0.75781 3.5c1.7221 3.674 5.9233 5.477 9.7734 4.1934-1.3182 0.4154-2.9926 0.23274-4.1641-0.5l-0.00586-2e-3a4.9499 4.9499 0 0 1-1.4199-1.334c-1.8471-2.5303-0.72634-6.114 2.084-7.498 0.19496-0.091851 0.52941-0.258 0.97266-0.25a2.0222 2.0222 0 0 1 1.6055 0.8125 1.992 1.992 0 0 1 0.39648 1.166c0-0.01304 1.5289-4.9746-5-4.9746zm0 1c1.5056 0 2.446 0.28722 3.0215 0.63281 0.22403 0.13454 0.24296 0.30951 0.38281 0.45898-0.1353-0.019932-0.25596-0.092442-0.39453-0.09375-0.69741-0.010187-1.2388 0.26105-1.4102 0.3418a1.0001 1.0001 0 0 0-0.015625 0.00781c-3.0315 1.4929-4.2742 5.1543-2.8184 8.1055-0.85288-0.66016-1.6143-1.4503-2.1016-2.4883v-2e-3l-0.00195-2e-3c-0.44538-0.95978-0.67154-2.0063-0.66211-3.0645a1.0001 1.0001 0 0 0 0-0.0019 1.0001 1.0001 0 0 0 0-2e-3 1.0001 1.0001 0 0 0 0-0.0019 1.0001 1.0001 0 0 0 0-2e-3 1.0001 1.0001 0 0 0 0-2e-3c0-0.81284 0.44076-1.8306 1.1895-2.6035 0.7487-0.77287 1.755-1.2832 2.8105-1.2832zm-0.87305 10.324c8.174e-4 0.0011 0.00309 7.6e-4 0.00391 2e-3 0.00166 0.0023 2.935e-4 0.0055 0.00195 0.0078z" opacity=".75"/>
 </g>
</svg>
