<svg xmlns="http://www.w3.org/2000/svg" width="22" height="22" viewBox="0 0 22 22"><defs><linearGradient id="a" x1="7.937" x2="7.937" y1="15.081" y2="1.852" gradientTransform="translate(-1.57 -1.559)scale(1.48476)" gradientUnits="userSpaceOnUse"><stop offset="0" stop-color="#3377f4"/><stop offset="1" stop-color="#5194f5"/></linearGradient></defs><rect width="22" height="22" fill="url(#a)" rx="6" ry="6" style="fill:url(#a);stroke-width:.785716"/><path fill="#fff" d="M10 4.5c-.554 0-1 .446-1 1v2c0 .554.446 1 1 1h.5v2H7c-1.108 0-2 .892-2 2v1H4c-.554 0-1 .446-1 1v2c0 .554.446 1 1 1h2c.554 0 1-.446 1-1v-2c0-.554-.446-1-1-1v-1c0-.554.446-1 1-1h3.5v2H10c-.554 0-1 .446-1 1v2c0 .554.446 1 1 1h2c.554 0 1-.446 1-1v-2c0-.554-.446-1-1-1h-.5v-2H15c.554 0 1 .446 1 1v1c-.554 0-1 .446-1 1v2c0 .554.446 1 1 1h2c.554 0 1-.446 1-1v-2c0-.554-.446-1-1-1h-1v-1c0-1.108-.892-2-2-2h-3.5v-2h.5c.554 0 1-.446 1-1v-2c0-.554-.446-1-1-1Zm0 1h2v2h-2Zm-6 9h2v2H4Zm6 0h2v2h-2Zm6 0h2v2h-2Z" style="paint-order:stroke fill markers"/></svg>