<svg xmlns="http://www.w3.org/2000/svg" width="22" height="22" viewBox="0 0 22 22"><defs><linearGradient id="a" x1="7.937" x2="7.937" y1="15.081" y2="1.852" gradientTransform="translate(-1.57 -1.559)scale(1.48476)" gradientUnits="userSpaceOnUse"><stop offset="0" stop-color="#3377f4"/><stop offset="1" stop-color="#5194f5"/></linearGradient></defs><rect width="22" height="22" fill="url(#a)" rx="6" ry="6" style="fill:url(#a);stroke-width:.785716"/><g fill="#fff" fill-rule="evenodd" style="color:#232629"><path d="M11 11a1.14 1.14 0 0 0-1.143 1.143v5.714h2.286v-5.714A1.14 1.14 0 0 0 11 11"/><path d="M11 4.143c-4.433 0-8 3.567-8 8 0 2.214.893 4.219 2.34 5.66l.807-.808a6.84 6.84 0 0 1-2.004-4.852c0-3.8 3.058-6.857 6.857-6.857s6.857 3.058 6.857 6.857a6.83 6.83 0 0 1-2.004 4.852l.808.809A7.97 7.97 0 0 0 19 12.143c0-4.433-3.567-8-8-8m0 3.428a4.563 4.563 0 0 0-4.571 4.572c0 1.268.508 2.406 1.339 3.232l.803-.804c-.616-.62-1-1.477-1-2.428A3.424 3.424 0 0 1 11 8.714a3.424 3.424 0 0 1 3.429 3.429c0 .95-.384 1.808-1 2.428l.803.804a4.53 4.53 0 0 0 1.34-3.232A4.563 4.563 0 0 0 11 7.57"/></g></svg>