<svg width="22" height="22" version="1.1" xmlns="http://www.w3.org/2000/svg">
 <defs>
  <linearGradient id="a" x1="7.937" x2="7.937" y1="15.081" y2="1.852" gradientTransform="translate(.001 .015)scale(1.8897)" gradientUnits="userSpaceOnUse">
   <stop stop-color="#8e8d92" offset="0"/>
   <stop stop-color="#b3b2b6" offset="1"/>
  </linearGradient>
 </defs>
 <rect width="22" height="22" rx="6" ry="6" fill="url(#a)"/>
 <path d="m0 15.715v0.28516c0 3.2447 2.5502 5.8726 5.7637 5.9961 0.078505 0.003016 0.15706 0.003906 0.23633 0.003906a8.5654 6.983 0 0 0 0.052734 0h9.9473a8.5654 6.983 0 0 0 0.23633-0.0039c3.2134-0.12347 5.7637-2.7514 5.7637-5.9961v-0.28516z" fill="#ffffff" opacity=".35" stroke-width=".8702" style="paint-order:stroke fill markers"/>
 <rect y="14.929" width="22" height=".786" rx="0" ry="0" fill-rule="evenodd" opacity=".15" stroke-width=".78571" style="paint-order:stroke fill markers"/>
 <rect x="2.357" y="14.143" width="3.143" height="3.143" rx=".786" ry=".786" fill="#fff" stroke-width=".78571"/>
 <rect x="7.071" y="14.143" width="3.143" height="3.143" rx=".786" ry=".786" fill="#fff" stroke-width=".78571"/>
 <rect x="11.786" y="14.143" width="3.143" height="3.143" rx=".786" ry=".786" fill="#fff" stroke-width=".78571"/>
 <rect x="16.5" y="14.143" width="3.143" height="3.143" rx=".786" ry=".786" fill="#fff" stroke-width=".78571"/>
 <path class="ColorScheme-Text" d="M8.998 4.48a.515.515 0 0 0-.502.65l.14.528a7 7 0 0 0-1.208.547c-.014.007-.03.006-.043.014-.014.008-.022.022-.035.031a7 7 0 0 0-1.08.773l-.383-.384a.516.516 0 1 0-.729.73l.381.383a7 7 0 0 0-.8 1.115 7 7 0 0 0-.567 1.25l-.522-.14a.515.515 0 0 0-.632.367.515.515 0 0 0 .365.63l.523.141a7.2 7.2 0 0 0-.002 2.735l-.52.14a.515.515 0 0 0-.366.63c.074.276.356.439.632.364l.526-.14a7 7 0 0 0 .367.87h1.174a6.2 6.2 0 0 1-.084-6.333 6.2 6.2 0 0 1 1.834-1.983l.002-.002 2.084 3.614a2.07 2.07 0 0 0-.62 1.47 2.07 2.07 0 0 0 .618 1.475l-1.016 1.76H9.73l.717-1.242a2.1 2.1 0 0 0 .553.076A2.07 2.07 0 0 0 13 13h4.17a6.2 6.2 0 0 1-.803 2.582l-.08.133h1.18a7 7 0 0 0 .361-.87l.522.14a.515.515 0 0 0 .632-.366.515.515 0 0 0-.365-.629l-.523-.142a7 7 0 0 0 .13-1.338l.003-.006q.003-.011.005-.024c0-.013-.007-.021-.007-.035a7 7 0 0 0-.13-1.332l.52-.138a.515.515 0 0 0 .367-.631.515.515 0 0 0-.632-.367l-.526.142a7.2 7.2 0 0 0-1.365-2.367l.385-.383a.517.517 0 1 0-.73-.73l-.382.38a7 7 0 0 0-1.117-.798 7 7 0 0 0-1.25-.569l.139-.52a.515.515 0 0 0-.365-.632.515.515 0 0 0-.633.365l-.14.524a7.2 7.2 0 0 0-2.733-.002l-.139-.522a.52.52 0 0 0-.428-.379 1 1 0 0 0-.068-.006m1.711 1.81a6.2 6.2 0 0 1 3.389.825 6.2 6.2 0 0 1 3.072 4.85h-4.172A2.07 2.07 0 0 0 11 10.415a2.1 2.1 0 0 0-.55.075L8.36 6.875a6.3 6.3 0 0 1 2.348-.586M11 11.45a1.033 1.033 0 0 1 1.033 1.031A1.033 1.033 0 0 1 11 13.516a1.033 1.033 0 0 1-1.033-1.034A1.033 1.033 0 0 1 11 11.452" fill="#fff" opacity=".35" stroke-width="1.3332"/>
</svg>
