<svg xmlns="http://www.w3.org/2000/svg" width="22" height="22"><defs><linearGradient id="a" x1="7.937" x2="7.937" y1="15.081" y2="1.852" gradientTransform="translate(0 .016)scale(1.8897)" gradientUnits="userSpaceOnUse"><stop offset="0" stop-color="#333"/><stop offset="1" stop-color="#424242"/></linearGradient></defs><rect width="22" height="22" fill="url(#a)" rx="6" ry="6"/><path fill="#fff" d="M11 4a3 3 0 0 0-2.826 2H10v1H8v1h2v1H8v1h2v1H8a3 3 0 0 0 3 3 3 3 0 0 0 3-3h-2v-1h2V9h-2V8h2V7h-2V6h1.824A3 3 0 0 0 11 4m-5 7a5 5 0 0 0 3.492 4.762L8 18h6l-1.49-2.234A5 5 0 0 0 16 11h-1a4 4 0 0 1-4 4 4 4 0 0 1-4-4z"/></svg>