<svg xmlns="http://www.w3.org/2000/svg" width="22" height="22" viewBox="0 0 22 22"><defs><linearGradient id="a" x1="7.937" x2="7.937" y1="15.081" y2="1.852" gradientTransform="translate(-1.57 -1.56)scale(1.48476)" gradientUnits="userSpaceOnUse"><stop offset="0" stop-color="#8e8d92"/><stop offset="1" stop-color="#b3b2b6"/></linearGradient></defs><rect width="22" height="22" fill="url(#a)" rx="6" ry="6" style="fill:url(#a);stroke-width:.785714"/><g fill="#fff"><path d="M9.056 4.197c-.64 0-1.28.244-1.767.73L4.855 7.362c-.142.142-.17.335-.213.52-.185.035-.377.07-.517.21l-.743.743a.985.985 0 0 0 0 1.379l1.45 1.451a.985.985 0 0 0 1.378 0l.743-.744c.14-.14.175-.332.21-.518.185-.043.378-.07.52-.212l-.04.04 2.05 2.053.707-.707L7.996 9.17a.5.5 0 0 0-.707 0l-.313.313c-.029.028-.053.028-.082 0a.5.5 0 0 0-.707.707l.041.04-.707.71-1.414-1.416.707-.707.04.042a.5.5 0 0 0 .708-.708c-.029-.03-.029-.054 0-.083l2.434-2.433a1.5 1.5 0 0 1 1.06-.445c.382 0 .764.148 1.06.445l.354.353-.148.149c-.548-.234-1.175-.24-1.62.205a1.507 1.507 0 0 0 0 2.121l2.405 2.406.707-.707L9.41 7.756c-.2-.2-.2-.508 0-.707.199-.2.507-.2.707 0a.5.5 0 0 0 .707 0l.707-.707a.5.5 0 0 0 0-.707l-.707-.707a2.5 2.5 0 0 0-1.768-.73zm4.172 7.38-.707.706 3.607 3.606-.707.707-3.607-3.606-.707.707 3.96 3.96a.5.5 0 0 0 .708 0l1.414-1.415a.5.5 0 0 0 0-.707z"/><path d="M14.808 4.547a3.5 3.5 0 0 0-1.883.967l-.002.002c-.939.944-1.146 2.32-.732 3.562l-5.629 5.63a1.51 1.51 0 0 0 0 2.12c.582.582 1.54.582 2.121 0l5.63-5.629c1.24.414 2.617.207 3.562-.732v-.002a3.5 3.5 0 0 0 .683-3.982.5.5 0 0 0-.805-.14L16.148 7.95c-.029.03-.053.03-.082 0l-.625-.625q-.043-.04 0-.082l1.6-1.6a.5.5 0 0 0-.14-.804 3.5 3.5 0 0 0-2.093-.29Zm.166.984c.222-.038.444.07.67.094l-.91.91a1.066 1.066 0 0 0 0 1.496l.625.625a1.066 1.066 0 0 0 1.496 0l.916-.916c.076.734-.06 1.474-.603 2.018a2.5 2.5 0 0 1-2.84.482.5.5 0 0 0-.569.098l-5.783 5.783a.49.49 0 0 1-.707 0 .49.49 0 0 1 0-.707l5.783-5.783a.5.5 0 0 0 .098-.568 2.5 2.5 0 0 1 .482-2.842 2.5 2.5 0 0 1 1.342-.69"/></g></svg>