<svg width="22" height="22" version="1.1" xmlns="http://www.w3.org/2000/svg">
 <defs>
  <linearGradient id="a" x1="7.937" x2="7.937" y1="15.081" y2="1.852" gradientTransform="translate(0 .015)scale(1.88973)" gradientUnits="userSpaceOnUse">
   <stop stop-color="#8e8d92" offset="0"/>
   <stop stop-color="#b3b2b6" offset="1"/>
  </linearGradient>
 </defs>
 <rect width="22" height="22" rx="6" ry="6" fill="url(#a)" stroke-width=".49998"/>
 <g transform="matrix(.9 0 0 .9 -3.4 -3.4)">
  <rect x="6" y="6" width="20" height="20" rx="4.4444" ry="4.4444" fill="#ffffff" fill-rule="evenodd" opacity=".35" stroke-linecap="round" stroke-linejoin="round" stroke-width="1.0526" style="paint-order:stroke fill markers"/>
  <path d="m20.444 6v20h1.1111c2.3083 0 4.1938-1.7421 4.4206-3.9887 0.01512-0.14977 0.023872-0.30184 0.023872-0.45573v-11.111c0-0.15389-0.008752-0.30596-0.023872-0.45573-0.22679-2.2466-2.1122-3.9887-4.4206-3.9887h-1.1111z" fill="#ffffff" fill-rule="evenodd" stroke-linecap="round" stroke-linejoin="round" stroke-width="1.0759" style="paint-order:stroke fill markers"/>
  <path d="m23 8-2 4h4zm0 7c-.554 0-1 .446-1 1 0 .56.446 1 1 1s1-.446 1-1-.446-1-1-1m-2 5 2 4 2-4z" fill="#4a525a" stroke-width="2"/>
 </g>
</svg>
