<svg xmlns="http://www.w3.org/2000/svg" width="22" height="22"><defs><linearGradient id="a" x1="7.937" x2="7.937" y1="15.081" y2="1.852" gradientTransform="translate(0 .015)scale(1.88973)" gradientUnits="userSpaceOnUse"><stop offset="0" style="stop-color:#333;stop-opacity:1"/><stop offset="1" style="stop-color:#424242;stop-opacity:1"/></linearGradient></defs><rect width="22" height="22" rx="6" ry="6" style="fill:url(#a);stroke-width:.499982"/><path d="M10.91 2A8.89 8.89 0 0 0 2 10.91V16h14V2z" style="opacity:.35;fill:#0074ff;fill-opacity:1;fill-rule:evenodd;stroke-linecap:round;stroke-linejoin:round;paint-order:stroke fill markers" transform="translate(-1.571 -1.571)scale(.78571)"/><path fill="#67aace" fill-rule="evenodd" d="M3.143 4.714h6.286V9.43H3.143Z"/><path fill="#85c9ec" fill-rule="evenodd" d="M3.143 4.714V9.43h6.286V4.714Zm.786.786h4.714v3.143H3.929Z"/><path fill="#636367" d="M12.571 12.571h6.286v4.715h-6.286z"/><path fill="#9a9b9d" d="M12.571 12.571v4.715h6.286V12.57zm.786.786h4.714V16.5h-4.714z"/><path d="M16 2v14H2v.5h14V30h.5V16.5H30V16H16.5V2Z" style="opacity:.06;fill:#fff;stroke-width:.707107;stroke-linecap:round;stroke-linejoin:round" transform="translate(-1.571 -1.571)scale(.78571)"/></svg>