<svg xmlns="http://www.w3.org/2000/svg" width="22" height="22"><defs><linearGradient id="a" x1="7.937" x2="7.937" y1="15.081" y2="1.852" gradientTransform="translate(.001 .016)scale(1.8897)" gradientUnits="userSpaceOnUse"><stop offset="0" stop-color="#3377f4"/><stop offset="1" stop-color="#5194f5"/></linearGradient></defs><rect width="22" height="22" fill="url(#a)" rx="6" ry="6"/><g fill="#fff"><path d="M8.922 2a7 7 0 0 0-2.063.31 6.9 6.9 0 0 0-3.283 2.204 6.9 6.9 0 0 0-1.54 3.698v.001a7 7 0 0 0-.034.668v2.17a8.52 8.52 0 0 0 8.516-8.518 9 9 0 0 0-.02-.533Z" opacity=".15" style="paint-order:markers stroke fill" transform="translate(-2.002 -2)"/><path d="M7.833 2.085a6.9 6.9 0 0 0-2.215.748 6.9 6.9 0 0 0-2.042 1.681 6.9 6.9 0 0 0-1.542 3.698v.001c-.005.057-.003.118-.008.175a5.857 5.857 0 0 0 5.83-5.855 6 6 0 0 0-.024-.448Z" opacity=".15" style="paint-order:markers stroke fill" transform="translate(-2.002 -2)"/><path d="M5.139 3.12a7 7 0 0 0-1.563 1.394 7 7 0 0 0-.735 1.097 3.19 3.19 0 0 0 2.297-2.49Z" opacity=".15" style="paint-order:markers stroke fill" transform="translate(-2.002 -2)"/></g><g fill="#fff"><path d="M8.922 2a7 7 0 0 0-2.063.31 6.9 6.9 0 0 0-3.283 2.204 6.9 6.9 0 0 0-1.54 3.698v.001a7 7 0 0 0-.034.668v2.17a8.52 8.52 0 0 0 8.516-8.518 9 9 0 0 0-.02-.533Z" opacity=".15" style="paint-order:markers stroke fill" transform="rotate(180 12.001 12)"/><path d="M7.833 2.085a6.9 6.9 0 0 0-2.215.748 6.9 6.9 0 0 0-2.042 1.681 6.9 6.9 0 0 0-1.542 3.698v.001c-.005.057-.003.118-.008.175a5.857 5.857 0 0 0 5.83-5.855 6 6 0 0 0-.024-.448Z" opacity=".15" style="paint-order:markers stroke fill" transform="rotate(180 12.001 12)"/><path d="M5.139 3.12a7 7 0 0 0-1.563 1.394 7 7 0 0 0-.735 1.097 3.19 3.19 0 0 0 2.297-2.49Z" opacity=".15" style="paint-order:markers stroke fill" transform="rotate(180 12.001 12)"/></g></svg>