<svg xmlns="http://www.w3.org/2000/svg" width="22" height="22"><defs><linearGradient id="a" x1="7.937" x2="7.937" y1="15.081" y2="1.852" gradientTransform="translate(.001 .015)scale(1.88973)" gradientUnits="userSpaceOnUse"><stop offset="0" style="stop-color:#8e8d92;stop-opacity:1"/><stop offset="1" style="stop-color:#b3b2b6;stop-opacity:1"/></linearGradient></defs><linearGradient id="f" x1="358.571" x2="358.571" y1="519.798" y2="505.798" gradientUnits="userSpaceOnUse"><stop offset="0" stop-color="#4d4d4d"/><stop offset="1" stop-color="#585858"/></linearGradient><linearGradient id="e" x1="356.571" x2="356.571" y1="519.798" y2="505.798" gradientUnits="userSpaceOnUse"><stop offset="0" stop-color="#afb0b3"/><stop offset="1" stop-color="#bdc3c7"/></linearGradient><linearGradient id="d" x1="350.571" x2="350.571" y1="505.798" y2="519.798" gradientUnits="userSpaceOnUse"><stop offset="0" stop-color="#7f8c8d"/><stop offset="1" stop-color="#afb0b3"/></linearGradient><linearGradient id="c" x1="353.571" x2="353.571" y1="505.798" y2="519.798" gradientUnits="userSpaceOnUse"><stop offset="0" stop-color="#31363b"/><stop offset="1" stop-color="#4d4d4d"/></linearGradient><linearGradient id="b" x1="428.371" x2="428.371" y1="530.798" y2="525.798" gradientTransform="matrix(2.85714 0 0 2.8 -885.347 -966.434)" gradientUnits="userSpaceOnUse"><stop offset="0" stop-color="#da4453"/><stop offset="1" stop-color="#fa4e5f"/></linearGradient><rect width="22" height="22" rx="6" ry="6" style="fill:url(#a);stroke-width:.499982"/><path d="m6 0c-3.324 0-6 2.676-6 6v1h22v-1c0-3.324-2.676-6-6-6h-10z" fill="#ffffff" opacity=".35"/><rect width="22" height="1" y="7" rx="0" ry="0" style="opacity:.15;fill:#000;fill-rule:evenodd;stroke-width:.886405;stroke-linecap:round;stroke-linejoin:round;paint-order:stroke fill markers"/><circle cx="5" cy="4" r="1" style="fill:#fff;stroke-width:.831569;stroke-linecap:round;stroke-linejoin:round"/><path fill="url(#b)" d="M331.571 505.798h3l3.5 10 3.5-10h3l-5 14h-3z" style="fill:url(#b)" transform="matrix(.58824 0 0 .57143 -194.043 -279.028)"/><path fill="url(#c)" d="m342.571 519.798 5-14h3l-5 14zm10 0 5-14h3l-5 14z" style="fill:url(#c)" transform="matrix(.58824 0 0 .57143 -194.043 -279.028)"/><path fill="url(#d)" d="m339.571 519.798 5-14h3l-5 14zm10 0 5-14h3l-5 14z" style="fill:#fff" transform="matrix(.58824 0 0 .57143 -194.043 -279.028)"/><path fill="url(#e)" d="M352.571 519.798h-3l-5-14h3zm10 0h-3l-5-14h3z" style="fill:#fff" transform="matrix(.58824 0 0 .57143 -194.043 -279.028)"/><path fill="url(#f)" d="m347.571 505.798 5 14h3l-5-14zm10 0 5 14h3l-5-14z" style="fill:url(#f)" transform="matrix(.58824 0 0 .57143 -194.043 -279.028)"/><circle cx="11" cy="11" r="8" style="fill:#f2f2f2;fill-rule:evenodd;stroke-width:1.14286;stroke-linecap:round;stroke-linejoin:round;paint-order:stroke fill markers"/><path fill="#27ae60" d="M10.5 7v6.086l-2.293-2.293-.707.707 2.75 2.75.75.75.75-.75 2.75-2.75-.707-.707-2.293 2.293V7Z"/></svg>