<svg xmlns="http://www.w3.org/2000/svg" width="22" height="22"><defs><linearGradient id="a" x1="7.937" x2="7.937" y1="15.081" y2="1.852" gradientTransform="translate(0 .016)scale(1.88973)" gradientUnits="userSpaceOnUse"><stop offset="0" stop-color="#0e71de" style="stop-color:#3377f4;stop-opacity:1"/><stop offset="1" stop-color="#25c9ff" style="stop-color:#5194f5;stop-opacity:1"/></linearGradient></defs><rect width="22" height="22" rx="6" ry="6" style="fill:url(#a);stroke-width:.499982"/><path d="M11 1.42C8.667 2.658 6.334 3.16 4 3.63v9.214c0 2.58 3.782 6.102 7 7.735 3.22-1.634 7-5.157 7-7.736V3.632c-2.333-.47-4.666-.976-7-2.21z" style="fill:#fff;stroke-width:.684262"/><g transform="translate(-5 -5)"><rect width="8" height="5" x="12" y="15" rx="1" ry="1" style="fill:#4386f5;fill-opacity:1;fill-rule:evenodd;stroke-linecap:round;stroke-linejoin:round;paint-order:stroke fill markers"/><path d="M16 11c-1.108 0-2 .892-2 2v3.686c0 1.108.892 2 2 2s2-.892 2-2V13c0-1.108-.892-2-2-2m0 1c.554 0 1 .446 1 1v3c0 .554-.446 1-1 1s-1-.446-1-1v-3c0-.554.446-1 1-1" style="fill:#4386f5;fill-opacity:1;fill-rule:evenodd;stroke-linecap:round;stroke-linejoin:round;paint-order:stroke fill markers"/></g></svg>