<svg xmlns="http://www.w3.org/2000/svg" width="22" height="22"><defs><linearGradient id="a" x1="7.937" x2="7.937" y1="15.081" y2="1.852" gradientTransform="translate(0 .015)scale(1.88973)" gradientUnits="userSpaceOnUse"><stop offset="0" style="stop-color:#8e8d92;stop-opacity:1"/><stop offset="1" style="stop-color:#b3b2b6;stop-opacity:1"/></linearGradient></defs><linearGradient id="e" x1="16" x2="16" y1="17" y2="9" gradientUnits="userSpaceOnUse"><stop offset="0" stop-color="#bdc3c7"/><stop offset="1" stop-color="#eff0f1"/></linearGradient><linearGradient id="d" x1="16" x2="16" y1="7" y2="9" gradientUnits="userSpaceOnUse"><stop offset="0" stop-color="#afb0b3"/><stop offset="1" stop-color="#bdc3c7"/></linearGradient><linearGradient id="b" x1="16" x2="16" y1="25" y2="19" gradientUnits="userSpaceOnUse"><stop offset="0" stop-color="#6c5548"/><stop offset="1" stop-color="#997657"/></linearGradient><linearGradient id="c" x1="16" x2="16" y1="18" y2="17" gradientUnits="userSpaceOnUse"><stop offset="0" stop-color="#b0b8b8"/><stop offset="1" stop-color="#cfd5d5"/></linearGradient><linearGradient id="f" x1="16" x2="16" y1="8" y2="5" gradientUnits="userSpaceOnUse"><stop offset="0" stop-color="#909c9c"/><stop offset=".333" stop-color="#cfd5d5"/><stop offset="1" stop-color="#eff1f1"/></linearGradient><rect width="22" height="22" rx="6" ry="6" style="fill:url(#a);stroke-width:.499982"/><path fill="url(#b)" d="M6 19a.97.97 0 0 0-.621.217 1 1 0 0 0-.36.584A1 1 0 0 0 5 20a1.99 1.99 0 0 1-1.275 1.862 2 2 0 0 1-.385.108A2 2 0 0 1 3 22a.5.5 0 0 0-.17.028.6.6 0 0 0-.193.108 1 1 0 0 0-.178.18 1.7 1.7 0 0 0-.225.395 2.5 2.5 0 0 0-.111.33 3 3 0 0 0-.117.759A4 4 0 0 0 2 24v1h28v-1a4 4 0 0 0-.123-.959 3 3 0 0 0-.111-.33 2 2 0 0 0-.145-.277 1.1 1.1 0 0 0-.258-.297A.6.6 0 0 0 29 22a2 2 0 0 1-.34-.03 2 2 0 0 1-.566-.187A2 2 0 0 1 27 20a1 1 0 0 0-.045-.295 1 1 0 0 0-.19-.35 1 1 0 0 0-.312-.246A1 1 0 0 0 26 19H16Z" style="fill:url(#b)" transform="translate(.714 .714)scale(.64286)"/><path fill="#4d4d4d" d="m14.857 12.93-.643-.644h-.643l.643.643zm-7.714 0 .643-.644h.643l-.643.643z"/><path fill="url(#c)" d="M25.787 17H6.203c-.135.658-.203.328-.203 1h20c-.004-.672-.075-.342-.213-1" opacity=".998" style="fill:url(#c)" transform="translate(.714 .714)scale(.64286)"/><path fill="url(#d)" d="M15 7v3h2V7Z" style="fill:url(#d)" transform="translate(.714 .714)scale(.64286)"/><path fill="url(#e)" d="M16 9a10 10 0 0 0-9.797 8h19.584A10 10 0 0 0 16 9" opacity=".998" style="fill:url(#e)" transform="translate(.714 .714)scale(.64286)"/><path fill="url(#f)" d="M16 5a2 2 0 0 0-2 2 2 1 0 0 0 1 .865 2 1 0 0 0 2 0A2 1 0 0 0 18 7a2 2 0 0 0-2-2" style="fill:url(#f)" transform="translate(.714 .714)scale(.64286)"/><path fill="#433a35" d="M2 16.786h18v1.285H2Z"/></svg>