<svg xmlns="http://www.w3.org/2000/svg" width="22" height="22"><defs><linearGradient id="a" x1="7.937" x2="7.937" y1="15.081" y2="1.852" gradientTransform="translate(0 .016)scale(1.88973)" gradientUnits="userSpaceOnUse"><stop offset="0" stop-color="#0e71de" style="stop-color:#3377f4;stop-opacity:1"/><stop offset="1" stop-color="#25c9ff" style="stop-color:#5194f5;stop-opacity:1"/></linearGradient></defs><rect width="22" height="22" rx="6" ry="6" style="fill:url(#a);stroke-width:.499982"/><path d="M7 3C5.338 3 4 4.338 4 6v10c0 1.662 1.338 3 3 3h8c1.662 0 3-1.338 3-3V8l-5-5h-1zm0 1h5v5h5v7c0 1.108-.892 2-2 2H7c-1.108 0-2-.892-2-2V6c0-1.108.892-2 2-2m6 .414L16.586 8H13Z" style="fill:#fff"/></svg>