<svg width="22" height="22" version="1.1" viewBox="0 0 22 22" xmlns="http://www.w3.org/2000/svg">
 <defs>
  <linearGradient id="a" x1="16" x2="16" y1="30" y2="2" gradientTransform="matrix(.78574 0 0 .78574 -1.571 -1.571)" gradientUnits="userSpaceOnUse">
   <stop stop-color="#faae2a" offset="0"/>
   <stop stop-color="#ffc35a" offset="1"/>
  </linearGradient>
 </defs>
 <rect width="22" height="22" rx="6" ry="6" fill="url(#a)" stroke-width="2.9698"/>
 <path d="m8.1316 3.0038a2.0028 2.0028 0 1 0 0 3.9981 2.0028 2.0028 0 0 0 0-3.9981m-1.5834 4.5687c-0.32121 0-0.49882 0.19273-0.62352 0.49126l-2.0028 4.1153c-0.44213 0.99386 1.0808 1.6287 1.4776 0.61596q0.34388-0.91072 0.74445-1.795v7.1989c0 0.44213 0.359 0.80113 0.80113 0.80113 0.44591 0 0.92584-0.36278 0.91828-0.80113l-0.00378-3.7714h0.55172l0.00378 3.7714c0 0.44213 0.49126 0.80113 0.9334 0.80113a0.79358 0.79358 0 0 0 0.79735-0.80113v-7.1422l0.8616 1.7383a0.80113 0.80113 0 0 0 1.145 0.40057l1.4511 0.84648q-0.02267 0.07558-0.03023 0.15872v4.3987c0 0.21918 0.33255 0.40057 0.5555 0.40057s0.60463-0.18139 0.56684-0.40057v-1.8895h0.5744v1.8895c0 0.21918 0.35144 0.40057 0.57062 0.40057 0.22296 0 0.59329-0.18139 0.59329-0.40057v-4.0019l1.0279 0.85404c0.37789 0.39301 0.95607-0.18895 0.56684-0.56684l-1.7119-1.4776a0.37789 0.37789 0 0 0-0.28342-0.11715h-1.9499l-1.5305-0.78602a0.75579 0.75579 0 0 0-0.06802-0.32499l-2.0028-4.1115a0.79358 0.79358 0 0 0-0.73689-0.49126zm8.4346 2.2863a1.436 1.436 0 0 0-1.4284 1.4284 1.436 1.436 0 0 0 1.4284 1.4247 1.436 1.436 0 0 0 1.4284-1.4247 1.436 1.436 0 0 0-1.4284-1.4284" fill="#ffffff" stroke-width="3.7789"/>
</svg>
