<svg xmlns="http://www.w3.org/2000/svg" width="22" height="22"><defs><linearGradient id="a" x1="7.937" x2="7.937" y1="15.081" y2="1.852" gradientTransform="translate(0 .015)scale(1.88973)" gradientUnits="userSpaceOnUse"><stop offset="0" style="stop-color:#333;stop-opacity:1"/><stop offset="1" style="stop-color:#424242;stop-opacity:1"/></linearGradient></defs><rect width="22" height="22" rx="6" ry="6" style="fill:url(#a);stroke-width:.499982"/><path d="M.287 5A7 7 0 0 0 0 7v1h22V7c0-.696-.1-1.367-.287-2ZM0 14v1c0 .696.1 1.367.287 2h21.426A7 7 0 0 0 22 15v-1z" style="opacity:.5;fill:#000;stroke-linecap:round;stroke-linejoin:round"/><rect width="18" height="18" x="2" y="2" rx="5" ry="5" style="fill:#f2f2f2;stroke-width:.409076"/><path fill="#232629" d="M10 5h2v5h-2zm3 .35v1.07A5 5 0 0 1 16 11a5 5 0 0 1-5 5 5 5 0 0 1-5-5 5 5 0 0 1 3-4.576V5.352A6 6 0 0 0 5 11a6 6 0 0 0 6 6 6 6 0 0 0 6-6 6 6 0 0 0-4-5.65"/></svg>