<svg xmlns="http://www.w3.org/2000/svg" width="22" height="22"><defs><linearGradient id="a" x1="7.937" x2="7.937" y1="15.081" y2="1.852" gradientTransform="translate(0 .015)scale(1.88973)" gradientUnits="userSpaceOnUse"><stop offset="0" style="stop-color:#8e8d92;stop-opacity:1"/><stop offset="1" style="stop-color:#b3b2b6;stop-opacity:1"/></linearGradient></defs><linearGradient id="b" x1="16" x2="16" y1="22" y2="10" gradientUnits="userSpaceOnUse"><stop offset="0" stop-color="#566472"/><stop offset="1" stop-color="#6c7a89"/></linearGradient><linearGradient id="c" x1="25" x2="25" y1="30" y2="20" gradientTransform="translate(-2 -2)" gradientUnits="userSpaceOnUse"><stop offset="0" stop-color="#27ae60"/><stop offset="1" stop-color="#2ecc71"/></linearGradient><rect width="22" height="22" rx="6" ry="6" style="fill:url(#a);stroke-width:.499982"/><path d="M16 5A11 11 0 0 0 5 16a11 11 0 0 0 11 11 11 11 0 0 0 11-11A11 11 0 0 0 16 5m0 8a3 3 0 0 1 3 3 3 3 0 0 1-3 3 3 3 0 0 1-3-3 3 3 0 0 1 3-3" style="fill:#fff;stroke-width:.785714" transform="translate(-2.09 -2.09)scale(.81818)"/><path fill="url(#b)" d="M16 10a6 6 0 0 0-6 6 6 6 0 0 0 6 6 6 6 0 0 0 6-6 6 6 0 0 0-6-6m0 3a3 3 0 0 1 3 3 3 3 0 0 1-3 3 3 3 0 0 1-3-3 3 3 0 0 1 3-3" style="fill:url(#b)" transform="translate(-2.09 -2.09)scale(.81818)"/><path fill="url(#c)" d="M23 18c-2.77 0-5 2.23-5 5s2.23 5 5 5 5-2.23 5-5-2.23-5-5-5" style="fill:url(#c)" transform="translate(-6 -6)"/><path fill="#fcfcfc" d="m25.5 20.5.5.5.5.5L22 26l-2.5-2.5.5-.5.5-.5L22 24Z" style="fill:#fff" transform="translate(-6 -6)"/></svg>