<svg xmlns="http://www.w3.org/2000/svg" width="22" height="22"><defs><linearGradient id="a" x1="7.937" x2="7.937" y1="15.081" y2="1.852" gradientTransform="translate(0 .016)scale(1.8897)" gradientUnits="userSpaceOnUse"><stop offset="0" stop-color="#ea425a"/><stop offset="1" stop-color="#fc7390"/></linearGradient></defs><rect width="22" height="22" fill="url(#a)" rx="6" ry="6"/><g fill="#fff"><path d="M10.998 3a2.5 2.5 0 0 0-.852.17c-1.134.447-3.767 1.319-5.191 1.887l-.023.01c-.23.098-.557.308-.739.638s-.189.619-.19.848L4 11.894c-.001 1.495.474 2.74 1.473 3.71.996.968 2.395 1.77 4.47 3.035q.003 0 .004.002l.004.002c.315.194.677.354 1.04.355l.001.002h.002l.002-.002c.358-.001.737-.163 1.053-.36h.002c2.047-1.237 3.445-2.033 4.447-3.005 1.004-.974 1.497-2.228 1.498-3.737L18 6.555c0-.23-.004-.522-.191-.858-.188-.336-.535-.552-.784-.646l-.02-.006c-1.364-.486-3.984-1.417-5.146-1.875a2.5 2.5 0 0 0-.861-.17" opacity=".75"/><path d="M10.998 3a2.5 2.5 0 0 0-.852.17c-1.134.447-3.767 1.319-5.191 1.887l-.023.01c-.23.098-.557.309-.739.638s-.189.619-.19.848L4 11.895c-.001 1.494.474 2.739 1.473 3.709.996.968 2.395 1.77 4.47 3.035q.003 0 .004.002l.004.002c.315.194.677.354 1.04.355l.001.002h.002l.002-.002H11V3Z"/></g></svg>