<svg width="22" height="22" version="1.1" xmlns="http://www.w3.org/2000/svg">
 <style id="current-color-scheme" type="text/css">.ColorScheme-Text {
        color:#363636;
      }</style>
 <path class="ColorScheme-Text" d="m7.2949 4.0449a0.50005 0.50005 0 0 0-0.29492 0.45508v5.2852l-2.7344-1.709a0.5 0.5 0 0 0-0.68945 0.1582 0.5 0.5 0 0 0 0.1582 0.68945l3.2656 2.041v0.07031l-3.2656 2.041a0.5 0.5 0 0 0-0.1582 0.68945 0.5 0.5 0 0 0 0.68945 0.1582l2.7344-1.709v5.2852a0.50005 0.50005 0 0 0 0.83203 0.37305l4.5-4a0.50005 0.50005 0 0 0-0.06641-0.79688l-3.3223-2.0762 3.3223-2.0762a0.50005 0.50005 0 0 0 0.06641-0.79688l-4.5-4a0.50005 0.50005 0 0 0-0.53711-0.08203zm0.70508 1.5684 3.1699 2.8164-3.1699 1.9805zm0 5.9766 3.1699 1.9805-3.1699 2.8164z" fill="currentColor"/>
 <path class="ColorScheme-Text" d="m17 3c-1.662 0-3 1.338-3 3v10c0 1.662 1.338 3 3 3s3-1.338 3-3v-10c0-1.662-1.338-3-3-3zm0 1c1.108 0 2 0.892 2 2v10c0 1.108-0.892 2-2 2s-2-0.892-2-2v-10c0-1.108 0.892-2 2-2z" fill="currentColor" opacity=".45"/>
 <rect class="ColorScheme-Text" x="16" y="5" width="2" height="12" rx="1" ry="1" fill="currentColor"/>
</svg>
