<svg xmlns="http://www.w3.org/2000/svg" width="22" height="22"><defs><linearGradient id="a" x1="7.937" x2="7.937" y1="15.081" y2="1.852" gradientTransform="translate(0 .015)scale(1.8897)" gradientUnits="userSpaceOnUse"><stop offset="0" stop-color="#8e8d92"/><stop offset="1" stop-color="#b3b2b6"/></linearGradient></defs><rect width="22" height="22" fill="url(#a)" rx="6" ry="6"/><path fill="#fff" fill-rule="evenodd" d="M7 3C5.338 3 4 4.338 4 6v10c0 1.662 1.338 3 3 3h8c1.662 0 3-1.338 3-3V6c0-1.662-1.338-3-3-3Zm0 1h8c1.108 0 2 .892 2 2v10c0 1.108-.892 2-2 2H7c-1.108 0-2-.892-2-2V6c0-1.108.892-2 2-2" style="paint-order:stroke fill markers"/><path fill="#fff" d="m18.5 3.742 1.732 1L13.732 16l-1.866 1.232L12 15Z"/></svg>