<svg xmlns="http://www.w3.org/2000/svg" width="22" height="22"><defs><radialGradient id="a" cx="1.852" cy="0" r="7.409" gradientTransform="rotate(138.239 3.237 1.787)scale(2.057 2.5332)" gradientUnits="userSpaceOnUse"><stop offset="0" stop-color="#ff8100"/><stop offset="1" stop-color="#f69429" stop-opacity="0"/></radialGradient><linearGradient id="b" x1="7.937" x2="7.937" y1="15.081" y2="1.852" gradientTransform="translate(0 .016)scale(1.8897)" gradientUnits="userSpaceOnUse"><stop offset="0" stop-color="#333"/><stop offset="1" stop-color="#424242"/></linearGradient></defs><rect width="22" height="22" fill="url(#a)" rx="6" ry="6" style="fill:url(#b)"/><path fill="#fff" d="m15.95 7.053-.167-.155c-.008-.011-.011-.023-.021-.033l-4.56-4.56a.28.28 0 0 0-.394 0L6.172 6.938l-.122.112a7 7 0 0 0 0 9.9 7 7 0 0 0 9.9 0 7 7 0 0 0 0-9.9z" style="stroke-width:.777858"/><g transform="translate(-17.028 -15.78)scale(2.40769)"><path fill="#f69429" d="M10.32 10.32a1.87 1.87 0 0 0-.548 1.321h1.869z"/><g stroke-width="1.413"><path fill="#2da8b8" d="M12.962 12.962a1.87 1.87 0 0 0 .548-1.321h-1.87Z"/><path fill="#f9da3e" d="M9.773 11.64a1.87 1.87 0 0 0 .546 1.322l1.322-1.322z"/><path fill="#56c7d9" d="M13.51 11.64a1.87 1.87 0 0 0-.546-1.322l-1.322 1.322Z"/><path fill="#c4dc2b" d="M10.32 12.962a1.87 1.87 0 0 0 1.321.548v-1.87z"/><path fill="#d462aa" d="M12.962 10.319a1.87 1.87 0 0 0-1.321-.548v1.87z"/><path fill="#72cb6b" d="M11.641 13.509a1.87 1.87 0 0 0 1.322-.546l-1.322-1.322z"/><path fill="#f566a0" d="M11.641 9.772a1.87 1.87 0 0 0-1.322.547l1.322 1.322z"/></g><circle cx="11.641" cy="11.641" r=".934" fill="#fff"/></g></svg>