<svg xmlns="http://www.w3.org/2000/svg" width="22" height="22"><defs><linearGradient id="a" x1="7.937" x2="7.937" y1="15.081" y2="1.852" gradientTransform="translate(.001 .016)scale(1.88973)" gradientUnits="userSpaceOnUse"><stop offset="0" stop-color="#0e71de" style="stop-color:#3377f4;stop-opacity:1"/><stop offset="1" stop-color="#25c9ff" style="stop-color:#5194f5;stop-opacity:1"/></linearGradient></defs><rect width="22" height="22" rx="6" ry="6" style="fill:url(#a);stroke-width:.499982"/><path d="M4.263 7.675a10.33 10.33 0 0 0 7.569 3.247 10.08 10.08 0 0 0 6.235-2.166l-.447-.878a9.04 9.04 0 0 1-5.788 2.094 9.3 9.3 0 0 1-7.129-3.27Zm-.839 4.478c4.078 3.483 9.914 4.133 14.62 1.671l-.024-1.076c-4.573 2.644-10.416 1.985-14.36-1.662Zm3.89 5.388 1.122.259a10.8 10.8 0 0 1-.832-3.969c-.22-3.898 1.46-7.615 4.456-10.071l-1.005-.391a13.07 13.07 0 0 0-4.4 10.478c.016 1.255.244 2.494.659 3.694m5.169.776.886-.39a12.22 12.22 0 0 1-2.267-7.091c0-2.432.706-4.753 2.031-6.73l-.924-.33a13.1 13.1 0 0 0-2.055 7.059c0 2.706.815 5.287 2.329 7.482m4.62-2.917.635-.722a8.58 8.58 0 0 1-4.322-7.356 8.4 8.4 0 0 1 .572-3.192l-.917-.26a9.3 9.3 0 0 0-.604 3.46 9.53 9.53 0 0 0 4.635 8.07m-9.506-4.572a1.23 1.23 0 0 0 1.216-1.232 1.224 1.224 0 1 0-2.447 0c0 .674.549 1.232 1.231 1.232m6.008.65a1.209 1.209 0 0 0 0-2.415 1.21 1.21 0 0 0-1.216 1.2c0 .674.542 1.215 1.216 1.215m-2.337 4.534c.675 0 1.216-.542 1.216-1.224a1.22 1.22 0 0 0-1.216-1.224 1.227 1.227 0 0 0-1.231 1.224c0 .682.549 1.224 1.23 1.224M11 19c4.377 0 8-3.631 8-8 0-4.377-3.631-8-8.007-8C6.624 3 3 6.623 3 11c0 4.369 3.632 8 8 8m0-1.067c-3.788 0-6.933-3.145-6.933-6.933s3.137-6.933 6.926-6.933c3.787 0 6.94 3.145 6.94 6.933S14.788 17.933 11 17.933" style="fill:#fff;stroke-width:.669283"/></svg>