<svg xmlns="http://www.w3.org/2000/svg" width="22" height="22"><defs><linearGradient id="a" x1="7.937" x2="7.937" y1="15.081" y2="1.852" gradientTransform="translate(.001 .016)scale(1.8897)" gradientUnits="userSpaceOnUse"><stop offset="0" stop-color="#3377f4"/><stop offset="1" stop-color="#5194f5"/></linearGradient></defs><rect width="22" height="22" fill="url(#a)" rx="6" ry="6"/><path fill="#fff" d="M11 3a8 8 0 0 0-8 8 8 8 0 0 0 3.836 6.82l.035.021a8 8 0 0 0 .652.355l.101.045a8 8 0 0 0 .628.263l.151.05a8 8 0 0 0 .59.184l.244.053a8 8 0 0 0 .527.107 8 8 0 0 0 .298.035 8 8 0 0 0 .51.05A8 8 0 0 0 11 19a8 8 0 0 0 5.914-2.627l.075-.08-.002-.004A8 8 0 0 0 19 10.998 8 8 0 0 0 11 3m0 .889a7.112 7.11 0 0 1 7.112 7.109 7.112 7.11 0 0 1-1.664 4.566c-1.222-1.438-3.08-2.346-5.45-2.346-2.363 0-4.22.904-5.446 2.34a7.112 7.11 0 0 1-1.662-4.562 7.112 7.11 0 0 1 7.109-7.11Zm0 2.221A2.667 2.889 0 0 0 8.334 9 2.667 2.889 0 0 0 11 11.889a2.667 2.889 0 0 0 2.666-2.89A2.667 2.889 0 0 0 11 6.112Z" style="stroke-width:.888885"/></svg>