<svg xmlns="http://www.w3.org/2000/svg" xmlns:xlink="http://www.w3.org/1999/xlink" width="22" height="22"><defs><linearGradient id="b" x1="7.937" x2="7.937" y1="15.081" y2="1.852" gradientTransform="translate(0 .015)scale(1.88973)" gradientUnits="userSpaceOnUse"><stop offset="0" style="stop-color:#333;stop-opacity:1"/><stop offset="1" style="stop-color:#424242;stop-opacity:1"/></linearGradient></defs><linearGradient id="a"><stop offset="0" stop-color="#c6cdd1"/><stop offset="1" stop-color="#e0e5e7"/></linearGradient><linearGradient xlink:href="#a" id="c" x1="389.571" x2="389.571" y1="534.798" y2="519.798" gradientTransform="matrix(2 0 0 1 -767.143 -510.798)" gradientUnits="userSpaceOnUse"/><rect width="22" height="22" rx="6" ry="6" style="fill:url(#b);stroke-width:.499982"/><path fill="url(#c)" d="M11.999 9h10v1h-10zm0 6h8v1h-8zm0 2h8v1h-8zm0 2h6v1h-6zm0-8h8v1h-8zm0 2h6v1h-6zm0 8h10v1h-10zm0 2h6v1h-6z" style="fill:url(#c);stroke-width:1.41421" transform="translate(-4 -5.5)"/><path fill="#11d116" d="M4 3.5h3v1H4Zm0 2h3v1H4Zm0 2h3v1H4Zm0 2h3v1H4Zm0 2h3v1H4Zm0 2h3v1H4Zm0 2h3v1H4Zm0 2h3v1H4Z"/></svg>