<svg xmlns="http://www.w3.org/2000/svg" width="22" height="22"><defs><linearGradient id="a" x1="7.937" x2="7.937" y1="15.081" y2="1.852" gradientTransform="translate(0 .015)scale(1.88973)" gradientUnits="userSpaceOnUse"><stop offset="0" style="stop-color:#888;stop-opacity:1"/><stop offset="1" style="stop-color:#aaa;stop-opacity:1"/></linearGradient><linearGradient id="d" x1="12" x2="12" y1="48" y2="10" gradientTransform="matrix(.44444 0 0 .44532 -3.222 -2.376)" gradientUnits="userSpaceOnUse"><stop offset="0" stop-color="#eef1f2"/><stop offset="1" stop-color="#f9fafb"/></linearGradient><linearGradient id="b" x1="7.937" x2="7.937" y1="15.081" y2="1.852" gradientTransform="translate(0 .015)scale(1.8897)" gradientUnits="userSpaceOnUse"><stop offset="0" stop-color="#888"/><stop offset="1" stop-color="#aaa"/></linearGradient></defs><linearGradient id="e" x1="16" x2="16" y1="22" y2="6" gradientTransform="matrix(.74997 0 0 .75 -1 .5)" gradientUnits="userSpaceOnUse"><stop offset="0" stop-color="#3e3e3e"/><stop offset="1" stop-color="#5c5c5c"/></linearGradient><linearGradient id="c" x1="1.333" x2="1.333" y1="48.714" y2="9.714" gradientTransform="matrix(.52174 0 0 .53846 -.696 -1.23)" gradientUnits="userSpaceOnUse"><stop offset="0" stop-color="#eef1f2"/><stop offset="1" stop-color="#f9fafb"/></linearGradient><rect width="22" height="22" fill="url(#a)" rx="6" ry="6" style="fill:url(#b)"/><path d="M7.667 20a1.33 1.33 0 0 0-1.334 1.333V22h9.334v-.667A1.33 1.33 0 0 0 14.333 20Z" opacity=".5" style="stroke-width:.666667"/><path fill="url(#c)" d="M7 2C4.791 2 3 3.795 3 6.008v4.06c.565.506.888 1.27.889 2.03 0 .76-.324 1.524-.889 2.03v2.436L5.4 19h11.2l2.4-2.436v-2.436c-.565-.506-.888-1.27-.889-2.03 0-.76.324-1.524.889-2.03v-4.06A4.004 4.004 0 0 0 15 2Z" style="fill:url(#d);stroke-width:.805976"/><rect width="4" height=".667" x="7.667" y="20.667" fill="#f6b44d" fill-rule="evenodd" rx=".333" ry=".333" style="stroke-width:.666667;paint-order:stroke fill markers"/><rect width="2" height=".667" x="12.333" y="20.667" fill="#f6b44d" fill-rule="evenodd" rx=".333" ry=".333" style="stroke-width:.666667;paint-order:stroke fill markers"/><path fill="url(#e)" d="M11.003 5c-.239 0-.47.02-.703.047a6 6 0 0 0-.68.117c-.07.017-.138.05-.21.07-.063.018-.126.029-.187.048-.08.025-.161.044-.236.07-.08.029-.155.063-.234.094-.155.063-.297.137-.445.21-.053.028-.113.043-.165.072-.173.09-.33.197-.491.304-.062.041-.128.074-.188.116-.025.018-.046.029-.07.048-.07.053-.144.106-.211.165-.08.066-.158.139-.235.21l-.07.07-.024.023c-.012.012-.01.036-.023.048-.157.153-.33.299-.469.468-.003.008.004.019 0 .023a6 6 0 0 0-.375.516q-.023.034-.047.071c-.011.018-.035.028-.047.047-.045.074-.076.157-.117.234-.014.025-.034.046-.047.07q-.086.164-.165.33c-.003.007.003.016 0 .022a6 6 0 0 0-.234.586c-.015.04-.034.078-.048.117-.002.008.003.017 0 .023q-.024.07-.047.142a6 6 0 0 0-.14.585c-.026.144-.056.297-.071.445a6 6 0 0 0-.024.61c0 .302.027.6.071.89.004.03-.005.064 0 .094.033.2.088.394.141.585.02.073.048.14.07.211.03.097.06.187.094.28a6 6 0 0 0 .188.47q.056.119.117.234a6 6 0 0 0 .375.633c.012.018.034.03.047.048.148.21.295.42.469.609.03.033.063.061.093.093l.094.094c.16.16.338.304.516.446q.345.272.727.49c.009.008.014.019.022.024q.059.036.118.07c.236.118.518.244.703.329.082.032.173.043.258.07.04.014.077.035.117.048.102.03.2.067.304.093l.094.024c.219.052.452.09.68.117.232.027.463.047.703.047.255 0 .502-.016.75-.047.274-.036.51-.093.75-.141a5.93 5.93 0 0 0 3.163-2.062c.021-.026.05-.043.07-.07l.024-.023c.01-.014.014-.034.023-.048a6 6 0 0 0 1.008-2.108c.042-.163.089-.324.117-.492.004-.023-.004-.048 0-.07.005-.03.019-.06.024-.095.004-.032.019-.061.023-.093h-.023c.033-.247.07-.494.07-.75 0-.413-.037-.827-.117-1.218q-.012-.047-.022-.094c-.036-.155-.094-.316-.142-.468-.003-.007.002-.016 0-.023l-.023-.07c-.03-.09-.061-.194-.094-.282-.01-.024-.014-.048-.023-.07-.033-.083-.081-.155-.117-.235-.002 0 .001-.02 0-.023-.02-.041-.051-.078-.071-.118a6 6 0 0 0-.235-.445c-.043-.073-.07-.162-.117-.234-.018-.027-.051-.043-.07-.07-.05-.075-.11-.14-.164-.211-.06-.075-.105-.162-.165-.235-.004-.007.004-.019 0-.023-.129-.158-.277-.303-.422-.446-.07-.069-.138-.145-.21-.21-.022-.02-.05-.029-.071-.048a6 6 0 0 0-.492-.375c-.041-.027-.075-.065-.117-.093-.053-.034-.111-.06-.164-.093-.1-.063-.2-.131-.304-.188a6 6 0 0 0-.281-.141 6 6 0 0 0-.492-.21 6 6 0 0 0-.61-.188A5.9 5.9 0 0 0 11 5.002m0 .75a5.3 5.3 0 0 1 1.055.118h.022c.125.026.254.06.375.094.073.02.141.047.212.07.129.043.25.088.375.141.145.06.284.114.422.188l-.07.022a.23.23 0 0 0-.094.094c-.015.036.003.086 0 .141.028.013.045.068.093.094.02.01.03-.008.048 0 .028.015.052.065.047.093-.008.042-.066.017-.094.048.005.058-.032.078-.047.117.009.024.043.018.047.047-.005.032-.06.037-.047.07.054.042.112-.016.164-.023.112-.015.212.03.281-.023-.009-.053.075-.069.07-.117-.004-.036-.067-.046-.093-.07-.015-.014-.03-.045-.047-.071-.02-.03-.048-.065-.07-.094-.03-.039-.094-.087-.094-.117 0-.033.039-.047.047-.093-.01-.043-.088 0-.094-.048a.2.2 0 0 1 .023-.047q.17.095.329.21l.07.048c.081.06.156.128.235.188-.05.009-.076.067-.117.117a.4.4 0 0 1-.117.093c-.02.01-.05-.012-.07 0-.028.019-.039.072-.07.094-.024.015-.094.07-.118.07-.028 0-.073-.03-.094-.023-.03.01-.012.058-.047.07-.066.023-.187-.052-.21.048.028.057.114.038.164.07a.4.4 0 0 1 .093.141.5.5 0 0 1 0 .165c-.03.08-.12.073-.21.07h-.07c-.156-.01-.306-.063-.376.048.005.084.019.137 0 .21-.013.053-.073.093-.07.14.001.025.04.062.047.094.004.017-.008.055 0 .07.025.05.095-.007.14 0 .045.008.095.092.095.142a.262.263 0 0 1-.048.117c-.043.067-.125.058-.187.094-.053.029-.063.089-.094.14-.033.056-.06.083-.047.165a.367.368 0 0 1-.188.187c-.027.013-.069.03-.093.048a.5.5 0 0 0-.07.07c-.036.039-.076.064-.095.094-.015.022-.007.063-.023.094-.022.041-.066.074-.094.116-.012.02-.032.045-.047.071-.031.058-.076.113-.07.164.005.049.066.05.07.093.003.024-.025.045-.023.07 0 .039.02.065.022.095.008.074-.032.09-.046.14-.008.025.006.052 0 .071-.012.038-.07.074-.07.117-.001.032.044.073.047.117.001.03-.029.043-.024.07.01.055.122.122.165.165.056.056.116.104.14.164.02.05.03.126.071.164.03.028.08.04.117.07.035.028.08.042.117.071.06.048.137.148.235.141.05-.007.106-.037.164-.047.06-.01.128-.03.188-.023.045.007.093.05.14.047.05 0 .108-.046.165-.07.098-.043.253-.115.397-.094.11.015.113.162.188.21.088.007.165-.04.235-.023.052.013.112.1.117.141.005.044-.04.09-.048.117-.013.059-.012.127-.022.164-.01.028-.025.064-.024.093a.4.4 0 0 0 .07.141c.033.042.078.072.117.117a1.4 1.4 0 0 1 .165.282c.012.028-.012.058 0 .094-.022.168-.078.282-.187.468-.053.06-.12.113-.118.188-.004.18.102.294.094.468-.018.234.018.25 0 .375.079.04.023.175 0 .258-.034.099-.075.121-.094.187a.33.33 0 0 0 .188 0s.072.3.07.305a5.25 5.25 0 0 1-2.203 1.288c-.412.1-.534.1-.727.141a5 5 0 0 1-.773.07q-.273 0-.539-.023c-.136-.013-.265-.046-.397-.07l-.118-.023c-.122-.041-.262-.066-.375-.094a5 5 0 0 1-.375-.117c.01-.01.02-.008.023-.023.008-.03.002-.047 0-.094.012-.049.06-.044.07-.094-.02-.036-.061-.028-.093-.047a.097.098 0 0 1-.047-.094c.052-.022.15.05.187-.023.02-.035-.025-.105 0-.141.018-.023.128-.041.165-.047.053-.01.11-.008.14-.023a.17.17 0 0 0 .071-.142c-.003-.029-.025-.044-.047-.07-.019-.022-.01-.05-.023-.07-.024-.036-.06-.044-.071-.094.072-.015.177.076.281.047.05-.014.118-.141.141-.188.008-.014-.007-.03 0-.047.01-.02.045-.037.048-.047.007-.027-.006-.053 0-.07.018-.052.063-.057.093-.094.023-.029.049-.066.07-.094.024-.03.032-.067.048-.094.015-.09-.045-.154-.022-.234.023-.09.146-.124.234-.165.03-.013.069-.037.093-.046.06-.021.132-.027.188-.048.094-.034.118-.125.164-.21a.5.5 0 0 0 .047-.117c.004-.027-.005-.04 0-.07q.009-.045.024-.095a.8.8 0 0 0 .023-.164c0-.04-.022-.058-.023-.094-.007-.13.045-.163.093-.234.024-.036.03-.068.048-.094.08-.12.22-.169.21-.351-.004-.06-.026-.192-.07-.21-.026-.012-.08-.009-.117-.024-.119-.045-.206-.203-.329-.21-.026 0-.041.022-.07.022-.049 0-.11-.04-.164-.047-.035-.007-.097.01-.117 0-.032-.015-.022-.076-.048-.094-.02-.013-.063-.01-.093-.023-.05-.019-.084-.042-.141-.047h-.071c-.031-.008-.064-.03-.094-.047a.15.15 0 0 1-.07-.07c.033-.109-.072-.126-.094-.188-.01-.03.01-.068 0-.094-.013-.038-.052-.063-.094-.094-.072-.055-.13-.104-.234-.117-.045-.007-.11 0-.165 0a.277.278 0 0 1-.164-.094c-.042-.048-.057-.093-.094-.117-.035-.022-.093-.022-.117-.047-.01-.01-.012-.022-.022-.047-.018-.036-.047-.074-.024-.117-.04-.02-.026.054-.07.047-.04-.055-.076-.086-.165-.07-.04.007-.07.045-.117.047-.039 0-.066-.04-.117-.047-.039-.008-.09.027-.117.023-.043-.007-.055-.044-.094-.07-.028-.02-.078-.072-.093-.071-.05 0-.095.107-.165.07-.033-.042.064-.052.024-.093-.03-.03-.045.007-.07.023a.5.5 0 0 1-.095.047c-.069.026-.11.019-.164.048-.05.025-.065.066-.094.117-.022.042-.059.114-.093.117-.042 0-.08-.054-.117-.071-.114-.05-.186.023-.28.023-.09 0-.216-.127-.212-.21.003-.05.04-.124.048-.187.004-.05.046-.095.047-.141 0-.061-.101-.11-.141-.117-.094-.017-.221.045-.329 0-.02-.034.036-.061.048-.094.006-.019-.008-.025 0-.047.012-.032.055-.06.07-.094.011-.025.012-.061.023-.094.013-.037.045-.068.048-.093.003-.034-.02-.072-.048-.094-.083.007-.14 0-.187.023-.108.05-.08.2-.188.235-.037.012-.1.015-.14.022-.036.008-.08.025-.118.024a.262.263 0 0 1-.14-.07.2.2 0 0 1-.024-.048c.002-.007-.001-.015 0-.023.035-.167.07-.333.117-.492.002-.007-.002-.016 0-.022.032-.105.077-.203.117-.306.01-.007.014-.017.023-.022.058-.04.117-.09.187-.094.044 0 .124.015.165.023.038.007.062.045.094.048.092.007.112-.078.187-.117.078.011.117-.008.188 0 .048.007.103.067.14.07.032 0 .04-.052.071-.047.03.007.09.081.094.117.005.045-.036.091-.023.14.047.048.142.042.21.07.045-.035.007-.088 0-.14 0-.023.004-.049 0-.07-.004-.036-.023-.063-.023-.094 0-.142.116-.225.21-.281.042-.025.081-.053.117-.07.05-.026.075-.048.117-.071.076-.043.152-.069.211-.117.028-.065-.003-.147 0-.21.028-.017.041 0 .07 0 .046-.01.068-.069.094-.095.015-.015.053-.032.07-.047.047-.036.055-.078.095-.094.015-.007.048-.012.07-.023.03-.008.07-.03.117-.047.032-.01.105-.011.117-.023.015-.015-.004-.072 0-.094.024-.113.204-.126.305-.164.07-.027.133-.086.21-.07-.015.053-.082.028-.07.093.017.09.132-.01.165-.023.06-.026.177-.042.257-.07.07-.026.184-.06.117-.142-.055 0-.069.05-.117.07-.033.008-.042-.02-.07-.022-.027 0-.043.028-.07.023-.029-.008-.067-.062-.071-.094-.012-.083.082-.102.117-.164-.023-.075-.125-.018-.188-.048a.112.113 0 0 1 .094-.093.4.4 0 0 1 .165.023c.015.013 0 .05.022.071.026.023.061.008.094 0 .012-.057-.08-.032-.07-.07.067-.045.198-.012.28-.024.048-.007.1-.046.142-.07.04-.023.075-.06.117-.023.012.04-.024.05-.047.07a1.5 1.5 0 0 0-.21.234c.036.036.1.017.163.023.024 0 .045.02.07.024.03.007.071-.01.094 0 .042.01.053.07.094.07.068 0 .062-.094.023-.14.012-.048.04-.06.024-.095-.03-.061-.158.011-.165-.07-.004-.05.053-.056.07-.094-.007-.096.08-.1.071-.187-.004-.036-.045-.036-.07-.07-.013-.017-.008-.057-.023-.07-.052-.046-.157-.034-.165-.118-.003-.049.008-.086 0-.14-.006-.05-.05-.202-.093-.211-.057-.012-.097.085-.165.117a.3.3 0 0 1-.14.022c-.025-.007-.067-.023-.071-.07-.005-.052.037-.061.047-.117-.007-.033-.037-.022-.07-.047-.037-.027-.068-.087-.117-.093-.025 0-.07.021-.094.023-.045 0-.08-.012-.117-.024.016-.007.03-.018.047-.023.092-.031.188-.044.281-.07.017-.008.031-.019.048-.024.023.025.042.078.07.094.019.01.047-.007.07 0 .074.023.131.064.211.048.028-.05-.055-.056-.022-.094.053.007.098.03.14.047.058-.042.096-.05.094-.117 0-.034-.047-.047-.07-.07l.14-.024c.004.013.016.023.024.024.028.007.123-.039.14-.048.004 0-.004-.02 0-.023.19-.02.391-.023.586-.023m-1.875.352c-.017.032-.035.059-.07.07.009.049-.063.079-.07.117-.005.026-.002.07 0 .094.014.239-.188.357-.423.35-.045.044-.022.128-.047.188-.021.05-.09.099-.141.094-.038 0-.094-.06-.094-.094 0-.042.06-.067.023-.117.006-.033.08-.064.07-.117-.008-.055-.071-.014-.14-.022a1 1 0 0 1-.141-.048q.114-.074.235-.141.104-.061.21-.117c.19-.095.392-.183.586-.258m4.031.563c-.02 0-.03.013-.047.023-.038.023-.04.06-.07.07-.041.016-.088.008-.094.047-.005.031.024.042.022.07-.015.038-.039.05-.046.095.05.082.171-.008.234-.023.029-.009.055 0 .07-.024.018-.026.01-.079.023-.117.015-.042.053-.032.048-.07s-.08-.077-.14-.071m-5.484.585c.045.013.147.146.047.188a.8.8 0 0 1-.165.024c-.034-.008-.058-.065-.093-.071-.07-.012-.164.075-.21 0 .011-.045.064-.032.116-.047.094-.026.224-.115.305-.094m.187.235c.023 0 .041.044.07.047.027 0 .054-.027.07-.023.042.011.063.086.024.117-.033 0-.045-.028-.07-.023-.068.012-.09.144-.141.14-.048-.007-.072-.105-.023-.14.001-.03-.025-.041-.024-.071.015-.019.054-.05.093-.047m-.234.022c.015.002.018 0 .023 0-.006.054-.029.07-.07.095a.28.28 0 0 0-.14.187c-.008.027-.084.1-.118.093-.08-.016.029-.165.047-.187.02-.024.047-.042.07-.07s.026-.079.048-.094a.3.3 0 0 1 .141-.023m7.123.023c.036.01.044.052.07.07.021.014.049.01.071.023.027.018.04.045.07.072a.8.8 0 0 0 .166.093.3.3 0 0 0 .046.023c.042.054.078.108.117.165.005.03.01.073.024.093.039.053.098.099.14.165 0 .061.028.099.071.116.055.093.113.186.165.281.021.044.026.097.047.141-.015 0-.033.008-.048 0-.05-.087-.306-.104-.328.023-.01.057.037.132-.047.142-.053.007-.115-.055-.188-.071-.03-.007-.07.01-.094 0-.054-.019-.046-.084-.093-.117a.5.5 0 0 0-.141-.047h-.07c-.035-.008-.09-.008-.118-.023-.027-.017-.087-.047-.094-.071-.01-.037.068-.085.07-.117.002-.022-.016-.034-.022-.07-.004-.022.004-.056 0-.071-.007-.025-.054-.046-.094-.047-.036 0-.063.022-.094.023-.044 0-.133-.028-.187-.022-.033 0-.063.02-.093.022-.087.008-.144-.007-.211 0a.6.6 0 0 0-.188.047c-.023.01-.04.033-.07.048l-.047.023c-.029.013-.068.04-.094.047-.04.01-.093 0-.165 0-.05 0-.14-.01-.14-.07-.001-.093.17-.054.258-.071.033-.007.054-.047.093-.07.02-.012.03-.012.048-.023.03-.022.089-.07.093-.094s-.026-.054-.023-.071c.004-.021.043-.043.07-.07.043-.042.066-.09.118-.117.035-.02.1-.018.117-.048.003-.032-.001-.041 0-.07.021-.02.028-.044.047-.047.054-.012.101.026.164.023a.2.2 0 0 0 .093-.023q.036-.027.07-.048c.027-.013.039-.044.071-.047.079-.007.128.093.165.141.03.04.114.09.164.117.027.016.063.034.093.047.066.03.186.124.188.188.001.031-.029.04-.023.07.05.009.092-.044.093-.093.001-.03-.029-.038-.022-.071.022-.05.11-.007.14-.022-.005-.057-.093-.066-.14-.095-.026-.015-.044-.036-.071-.047-.04-.015-.087-.024-.117-.047-.029-.022-.043-.06-.07-.094-.041-.048-.12-.055-.095-.164.012-.017.028-.052.048-.048m-6.608.165h.07c.026 0 .06-.014.07 0-.016.066-.158.047-.21.023.003-.025.037-.02.07-.023m-.234.117c.017 0 .029-.008.047 0a.5.5 0 0 1-.188.093c-.038.012-.087.019-.093-.022-.009-.053.035-.043.07-.048.044-.008.113-.022.164-.023m6.515 0c-.032.01-.05.084 0 .093.023-.013.03-.05.023-.093-.012-.014-.012 0-.023 0m-.023.14c-.016.008-.03.008-.047.024 0 .056.011.092 0 .14.032.062.1.02.117-.023.02-.104-.023-.153-.07-.14m.327.28c.038.06.106.103.188.118.03-.023.033-.079.047-.117h-.117c-.044 0-.092-.021-.117 0M5.966 10.25c.123-.007.159.161.258.21.024.014.061.017.093.024l.07.023c.053.018.122.007.165.024.064.028.11.154.164.187.003.032-.01.069 0 .093.027.035.075.048.117.07.051.028.07.096.117.117.017.008.045-.007.07 0 .067.02.085.11.142.094.037-.01.041-.058.047-.094.025-.026.056-.07.094-.07.062 0 .071.056.094.117.012.035.037.081.047.117a1 1 0 0 1 0 .281c-.016.045-.08.067-.117.117-.018.023-.033.053-.047.07-.024.03-.053.044-.07.071-.011.015-.014.05-.024.07-.03.065-.072.112-.047.188.01.032.046.057.047.094 0 .044-.086.07-.094.117-.005.035.036.095.047.141.008.035.073.07.094.094.035.04.062.09.094.14.064.098.102.21.164.305.032.049.095.09.117.14.011.027-.01.071 0 .094.036.081.2.171.281.211.038.019.083 0 .117.023a.7.7 0 0 1 .188.165c.024.042.035.144.047.21.015.088-.004.163 0 .258.003.052.023.09.023.141v.07c-.001.063.006.125 0 .188a1 1 0 0 0 0 .093c.003.031.021.043.024.07.001.03-.027.072-.024.095.007.062.058.106.07.164.01.045.03.156.023.21-.003.03-.018.063-.022.094-.003.025.004.047 0 .07-.005.036-.026.061-.023.094.004.068.06.12.07.188.004.022 0 .049 0 .07 0 .02.017.029.023.048a5 5 0 0 1-.563-.375 5 5 0 0 1-.491-.423l-.023-.022a5 5 0 0 1-.446-.492c-.078-.099-.163-.2-.235-.304-.042-.063-.078-.123-.117-.188q-.036-.058-.07-.117a5 5 0 0 1-.188-.352c-.037-.075-.06-.156-.093-.234a5 5 0 0 1-.211-.563c-.04-.138-.065-.278-.094-.421-.022-.11-.055-.217-.07-.329l-.024-.187a5.3 5.3 0 0 1 .024-1.195v-.023c.048 0 .112-.07.165-.071m2.016.563c.048-.023.063.087.022.093-.037.008-.06-.076-.022-.094" style="fill:url(#e);stroke-width:.749985"/></svg>