<svg xmlns="http://www.w3.org/2000/svg" width="22" height="22"><defs><linearGradient id="a" x1="7.937" x2="7.937" y1="15.081" y2="1.852" gradientTransform="translate(.001 .016)scale(1.88973)" gradientUnits="userSpaceOnUse"><stop offset="0" stop-color="#0e71de" style="stop-color:#3377f4;stop-opacity:1"/><stop offset="1" stop-color="#25c9ff" style="stop-color:#5194f5;stop-opacity:1"/></linearGradient></defs><rect width="22" height="22" rx="6" ry="6" style="fill:url(#a);stroke-width:.499982"/><path d="M10.296 4.045A.5.5 0 0 0 10 4.5v5.285l-2.735-1.71a.5.5 0 0 0-.69.159.5.5 0 0 0 .16.69L10 10.964v.07l-3.266 2.042a.5.5 0 0 0-.158.69.5.5 0 0 0 .69.158L10 12.214V17.5a.5.5 0 0 0 .832.373l4.5-4a.5.5 0 0 0-.067-.797L11.944 11l3.322-2.076a.5.5 0 0 0 .067-.797l-4.5-4a.5.5 0 0 0-.537-.082M11 5.613l3.17 2.817L11 10.41zm0 5.977 3.17 1.98L11 16.387z" style="fill:#fff"/></svg>