<svg xmlns="http://www.w3.org/2000/svg" xmlns:xlink="http://www.w3.org/1999/xlink" width="22" height="22"><defs><linearGradient id="b" x1="7.937" x2="7.937" y1="15.081" y2="1.852" gradientTransform="translate(0 .015)scale(1.88973)" gradientUnits="userSpaceOnUse"><stop offset="0" style="stop-color:#333;stop-opacity:1"/><stop offset="1" style="stop-color:#424242;stop-opacity:1"/></linearGradient></defs><linearGradient id="a"><stop offset="0" stop-color="#eff0f1"/><stop offset="1" stop-color="#fcfcfc"/></linearGradient><linearGradient xlink:href="#a" id="c" x1="16" x2="16" y1="21" y2="7" gradientTransform="translate(-5 -3)" gradientUnits="userSpaceOnUse"/><rect width="22" height="22" rx="6" ry="6" style="fill:url(#b);stroke-width:.499982"/><path fill="url(#c)" d="m5.5 4-.531.969L4 5.5l.969.531L5.5 7l.531-.969L7 5.5l-.969-.531Zm4 0-.531.969L8 5.5l.969.531L9.5 7l.531-.969L11 5.5l-.969-.531Zm5.654 0L4 15.154 6.846 18 18 6.846Zm0 1.422 1.422 1.424-3.326 3.33-1.424-1.424zM7.5 7l-.531.969L6 8.5l.969.531L7.5 10l.531-.969L9 8.5l-.969-.531Z" style="fill:url(#c)"/></svg>