<svg xmlns="http://www.w3.org/2000/svg" width="22" height="22"><defs><linearGradient id="a" x1="7.937" x2="7.937" y1="15.081" y2="1.852" gradientTransform="translate(.001 .015)scale(1.8897)" gradientUnits="userSpaceOnUse"><stop offset="0" stop-color="#8e8d92"/><stop offset="1" stop-color="#b3b2b6"/></linearGradient></defs><rect width="22" height="22" fill="url(#a)" rx="6" ry="6"/><path fill="#fff" d="M16.058 13.19c-.935 0-1.758.446-2.296 1.128l-4.995-2.556c.066-.245.113-.496.113-.762 0-.29-.057-.561-.135-.825l4.973-2.546a2.917 2.908 0 0 0 2.34 1.18A2.945 2.936 0 0 0 19 5.865a2.945 2.936 0 0 0-2.94-2.94 2.946 2.937 0 0 0-2.941 2.94c0 .267.048.52.114.765L8.239 9.186a2.923 2.914 0 0 0-2.3-1.13A2.945 2.936 0 0 0 3 11a2.945 2.936 0 0 0 2.94 2.943 2.922 2.913 0 0 0 2.343-1.182l4.97 2.545a2.928 2.919 0 0 0-.134.828 2.946 2.937 0 0 0 2.939 2.942 2.945 2.936 0 0 0 2.94-2.942 2.945 2.936 0 0 0-2.94-2.944z"/></svg>