<svg xmlns="http://www.w3.org/2000/svg" width="22" height="22"><defs><linearGradient id="a" x1="7.937" x2="7.937" y1="15.081" y2="1.852" gradientTransform="translate(.001 .015)scale(1.88973)" gradientUnits="userSpaceOnUse"><stop offset="0" style="stop-color:#8e8d92;stop-opacity:1"/><stop offset="1" style="stop-color:#b3b2b6;stop-opacity:1"/></linearGradient></defs><rect width="22" height="22" rx="6" ry="6" style="fill:url(#a);stroke-width:.499982"/><path d="M6.556 3a2.66 2.66 0 0 0-2.667 2.667v10.666A2.66 2.66 0 0 0 6.556 19h8.888a2.66 2.66 0 0 0 2.667-2.667V5.667A2.66 2.66 0 0 0 15.444 3ZM7 7.444h8a.444.444 0 1 1 0 .89H7a.444.444 0 1 1 0-.89M7 11h8a.444.444 0 1 1 0 .889H7A.444.444 0 1 1 7 11m0 3.556h8a.444.444 0 1 1 0 .888H7a.444.444 0 1 1 0-.888" style="fill:#fff;fill-rule:evenodd;stroke-width:.839349;stroke-linecap:round;stroke-linejoin:round;paint-order:stroke fill markers"/></svg>