<svg xmlns="http://www.w3.org/2000/svg" width="22" height="22"><defs><linearGradient id="a" x1="7.937" x2="7.937" y1="15.081" y2="1.852" gradientTransform="translate(.001 .015)scale(1.8897)" gradientUnits="userSpaceOnUse"><stop offset="0" stop-color="#8e8d92"/><stop offset="1" stop-color="#b3b2b6"/></linearGradient><linearGradient id="b" x1="-86.388" x2="-94.072" y1="734.34" y2="939.73" gradientTransform="matrix(.10078 0 0 .10025 -10.023 -66.877)" gradientUnits="userSpaceOnUse"><stop offset="0" stop-color="#1769cc"/><stop offset="1" stop-color="#5ee6fb"/></linearGradient></defs><rect width="22" height="22" fill="url(#a)" rx="6" ry="6"/><g transform="translate(-16 -16)scale(1.125)"><circle cx="24" cy="24" r="8" fill="#f2f2f2" fill-rule="evenodd" style="paint-order:stroke fill markers"/><path fill="url(#b)" d="M25.668 26.452a.6.6 0 0 1-.454-.213A1.6 1.6 0 0 0 24 25.667c-.469 0-.9.202-1.213.568a.59.59 0 0 1-.866.046.68.68 0 0 1-.043-.92A2.8 2.8 0 0 1 24 24.365c.806 0 1.58.364 2.121.999a.68.68 0 0 1-.042.92.6.6 0 0 1-.412.168zm1.36-1.628a.6.6 0 0 1-.432-.19 3.55 3.55 0 0 0-2.595-1.136 3.55 3.55 0 0 0-2.597 1.134.59.59 0 0 1-.868-.003.68.68 0 0 1 .003-.92c.924-.976 2.154-1.513 3.462-1.513 1.306 0 2.535.538 3.46 1.515a.68.68 0 0 1 .003.92.6.6 0 0 1-.435.193zm1.359-1.626a.6.6 0 0 1-.425-.181c-1.07-1.09-2.477-1.689-3.961-1.689-1.487 0-2.895.599-3.963 1.687a.59.59 0 0 1-.867-.019.68.68 0 0 1 .018-.92c1.297-1.322 3.006-2.05 4.812-2.05 1.801 0 3.51.73 4.81 2.051a.68.68 0 0 1 .019.92.6.6 0 0 1-.443.2zm-4.463 4.829c.409 0 .74-.334.74-.746a.743.743 0 0 0-.74-.746.743.743 0 0 0-.741.746c0 .412.332.746.74.746z" style="fill:url(#b)"/></g></svg>