<svg xmlns="http://www.w3.org/2000/svg" xmlns:xlink="http://www.w3.org/1999/xlink" width="22" height="22"><defs><linearGradient id="d" x1="7.937" x2="7.937" y1="15.081" y2="1.852" gradientTransform="translate(0 .015)scale(1.88973)" gradientUnits="userSpaceOnUse"><stop offset="0" style="stop-color:#8e8d92;stop-opacity:1"/><stop offset="1" style="stop-color:#b3b2b6;stop-opacity:1"/></linearGradient></defs><linearGradient xlink:href="#a" id="l" x1="20.308" x2="24.077" y1="19.231" y2="23" gradientUnits="userSpaceOnUse"/><linearGradient xlink:href="#b" id="i" x1="32" x2="32" y1="54" y2="9" gradientUnits="userSpaceOnUse"/><linearGradient xlink:href="#c" id="j" x1="32" x2="32" y1="54" y2="9" gradientUnits="userSpaceOnUse"/><linearGradient id="k" x1="37" x2="37" y1="46" y2="38" gradientUnits="userSpaceOnUse"><stop offset="0" stop-color="#be4434"/><stop offset=".25" stop-color="#c44837"/><stop offset="1" stop-color="#cb4c3b"/></linearGradient><linearGradient xlink:href="#b" id="h" x1="28.385" x2="28.385" y1="27.846" y2="3.615" gradientUnits="userSpaceOnUse"/><linearGradient xlink:href="#c" id="g" x1="28.385" x2="28.385" y1="27.846" y2="3.615" gradientUnits="userSpaceOnUse"/><linearGradient xlink:href="#a" id="f" x1="21.923" x2="23.538" y1="22.462" y2="24.077" gradientUnits="userSpaceOnUse"/><linearGradient id="e" x1="16" x2="16" y1="30" y2="2" gradientUnits="userSpaceOnUse"><stop offset="0" stop-color="#173f4f"/><stop offset="1" stop-color="#2f5361"/></linearGradient><linearGradient id="c"><stop offset="0" stop-color="#bf4231"/><stop offset="1" stop-color="#e05e4c"/></linearGradient><linearGradient id="b"><stop offset="0" stop-color="#eff0f1"/><stop offset="1" stop-color="#fcfcfc"/></linearGradient><linearGradient id="a"><stop offset="0" stop-color="#292c2f"/><stop offset="1" stop-opacity="0"/></linearGradient><rect width="22" height="22" rx="6" ry="6" style="fill:url(#d);stroke-width:.499982"/><path fill="url(#e)" d="M16 2C12.59 3.806 9.18 4.544 5.77 5.23v13.463c0 3.77 5.526 8.918 10.23 11.307 4.704-2.389 10.23-7.537 10.23-11.307V5.231C22.82 4.544 19.41 3.806 16 2" style="fill:url(#e)" transform="translate(1.616 1.616)scale(.58648)"/><g stroke-width=".538"><path fill="url(#f)" d="M24.615 6.308 10.451 23.703l6.036 6.035c4.59-2.485 9.744-7.404 9.744-11.045V7.923Z" opacity=".2" style="fill:url(#f)" transform="translate(1.616 1.616)scale(.58648)"/><path fill="url(#g)" d="m20.752 5.419-9.487 18.974c1.473 1.373 3.127 2.636 4.735 3.453 3.98-2.021 8.615-6.503 8.615-9.692V6.308a61 61 0 0 1-3.863-.889" style="fill:url(#g)" transform="translate(1.616 1.616)scale(.58648)"/><path fill="url(#h)" d="M16 3.615c-2.886 1.529-5.73 2.112-8.615 2.693v11.846c0 1.9 1.707 4.215 3.88 6.24l9.487-18.975c-1.58-.426-3.16-.96-4.752-1.804" style="fill:url(#h)" transform="translate(1.616 1.616)scale(.58648)"/></g><g stroke-width="1.857"><path fill="url(#i)" d="m24 14 16 32 8-16h-4l-1 2h-6l-9-18Zm14 20h4l-2 4z" style="fill:url(#i)" transform="translate(.894 .895)scale(.3158)"/><path fill="url(#j)" d="m24 14-8 16h4l1-2h6l8.5 17h4zm0 8 2 4h-4z" style="fill:url(#j)" transform="translate(.894 .895)scale(.3158)"/><path fill="url(#k)" d="m32 38 4 8h4l-4-8z" style="fill:url(#k)" transform="translate(.894 .895)scale(.3158)"/></g><path fill="url(#l)" d="m24.615 14.923-4.307 8.615 1.947 1.948c2.161-2.093 3.78-4.428 3.959-6.428a4 4 0 0 0 .017-.365v-2.155z" opacity=".2" style="fill:url(#l)" transform="translate(1.616 1.616)scale(.58648)"/></svg>