<svg xmlns="http://www.w3.org/2000/svg" viewBox="0 0 22 22"><defs><linearGradient id="a" x1="7.937" x2="7.937" y1="15.081" y2="1.852" gradientTransform="translate(0 .015)scale(1.88973)" gradientUnits="userSpaceOnUse"><stop offset="0" style="stop-color:#8e8d92;stop-opacity:1"/><stop offset="1" style="stop-color:#b3b2b6;stop-opacity:1"/></linearGradient></defs><rect width="22" height="22" rx="6" ry="6" style="fill:url(#a);stroke-width:.499982"/><path d="M9 9c-1.108 0-2 .892-2 2v10c0 1.108.892 2 2 2h14c1.108 0 2-.892 2-2V11c0-1.108-.892-2-2-2Zm0 1h14c.554 0 1 .446 1 1v10c0 .554-.446 1-1 1H9c-.554 0-1-.446-1-1V11c0-.554.446-1 1-1" style="fill:#fff;fill-rule:evenodd;stroke-width:.887412;stroke-linecap:round;stroke-linejoin:round;paint-order:stroke fill markers" transform="translate(-5 -5)"/><path d="M8 13h16v1H8Z" style="fill:#fff;fill-rule:evenodd;stroke-linecap:round;stroke-linejoin:round;paint-order:stroke fill markers" transform="translate(-5 -5)"/><path d="M8 10h8v3H8Z" style="opacity:.35;fill:#fff;fill-rule:evenodd;stroke-linecap:round;stroke-linejoin:round;paint-order:stroke fill markers" transform="translate(-5 -5)"/></svg>