<svg xmlns="http://www.w3.org/2000/svg" width="22" height="22"><defs><linearGradient id="a" x1="7.937" x2="7.937" y1="15.081" y2="1.852" gradientTransform="translate(0 .015)scale(1.88973)" gradientUnits="userSpaceOnUse"><stop offset="0" style="stop-color:#8e8d92;stop-opacity:1"/><stop offset="1" style="stop-color:#b3b2b6;stop-opacity:1"/></linearGradient></defs><rect width="22" height="22" rx="6" ry="6" style="fill:url(#a);stroke-width:.499982"/><g transform="translate(-2.895 -2.053)scale(.8421)"><path fill="#7f8c8d" d="M16.078 11.452 13 13.914l-.116.24v3.544l-2.962 2.37.385.48 2.885-2.308 2.885 2.308.384-.48-2.962-2.37v-3.396l2.77-2.216 2.769 2.216v3.544l.115.24 3.077 2.462.385-.48-2.962-2.37v-3.544l-.116-.24-3.076-2.462z" style="opacity:.35;fill:#fff;stroke-width:.615385"/><rect width="5" height="5" x="7" y="19" rx="1" ry="1" style="opacity:1;fill:#fff;fill-rule:evenodd;stroke-linecap:round;stroke-linejoin:round;paint-order:stroke fill markers"/><rect width="5" height="5" x="14" y="19" rx="1" ry="1" style="opacity:1;fill:#fff;fill-rule:evenodd;stroke-linecap:round;stroke-linejoin:round;paint-order:stroke fill markers"/><rect width="5" height="5" x="21" y="19" rx="1" ry="1" style="opacity:1;fill:#fff;fill-rule:evenodd;stroke-linecap:round;stroke-linejoin:round;paint-order:stroke fill markers"/><rect width="5" height="5" x="10" y="13" rx="1" ry="1" style="opacity:1;fill:#fff;fill-rule:evenodd;stroke-linecap:round;stroke-linejoin:round;paint-order:stroke fill markers"/><rect width="5" height="5" x="18" y="13" rx="1" ry="1" style="opacity:1;fill:#fff;fill-rule:evenodd;stroke-linecap:round;stroke-linejoin:round;paint-order:stroke fill markers"/><rect width="5" height="5" x="14" y="7" rx="1" ry="1" style="opacity:1;fill:#fff;fill-rule:evenodd;stroke-linecap:round;stroke-linejoin:round;paint-order:stroke fill markers"/></g></svg>