<svg xmlns="http://www.w3.org/2000/svg" width="22" height="22" image-rendering="optimizeSpeed"><defs><linearGradient id="b" x1="18.601" x2="18.601" y1=".854" y2="49.956" gradientTransform="matrix(1.1117 0 0 .96015 24.948 10.068)" gradientUnits="userSpaceOnUse"><stop offset="0" stop-color="#fafafa"/><stop offset="1" stop-color="#d4d4d4"/></linearGradient><linearGradient id="a" x1="7.937" x2="7.937" y1="15.081" y2="1.852" gradientTransform="translate(0 .015)scale(1.8897)" gradientUnits="userSpaceOnUse"><stop offset="0" stop-color="#8e8d92"/><stop offset="1" stop-color="#b3b2b6"/></linearGradient></defs><rect width="22" height="22" fill="url(#a)" rx="6" ry="6"/><path fill="url(#b)" d="M31.053 11.45c-2.926.032-6.07.3-8.214 2.308-3.283 3.078-2.869 5.207-3.191 9.42-.658 8.598-.404 20.382 1.345 28.848.513 2.483 2.855 4.231 5.34 4.71 1.907.367 3.88.645 5.854.712 1.975-.067 3.947-.345 5.854-.713 2.485-.478 4.827-2.226 5.34-4.709 1.749-8.466 2.003-20.25 1.345-28.849-.322-4.212.092-6.34-3.19-9.418-2.144-2.01-5.29-2.277-8.215-2.309-.382-.004-.762 0-1.134 0s-.751-.004-1.134 0" style="fill:url(#b)" transform="translate(-1.595 -2.48)scale(.3913)"/><path fill="#4d4d4d" fill-opacity=".588" d="M11 4.347c.217 0 .391.215.391.482v1.385c0 .268-.174.482-.39.482-.218 0-.392-.215-.392-.482V4.829c0-.266.174-.482.391-.482"/><path fill="#4d4d4d" fill-opacity=".588" d="M11 4.739c.217 0 .391.215.391.482v1.384c0 .268-.174.482-.39.482-.218 0-.392-.215-.392-.482V5.221c0-.266.174-.482.391-.482"/><path fill="#999" d="M10.673 17.366q-.013-.004-.01-.004a.3.3 0 0 1-.128-.078 1.3 1.3 0 0 1-.162-.21 1.3 1.3 0 0 1-.159-.43 1 1 0 0 1-.002-.3c.045-.256.236-.436.465-.436.047 0 .08.007.145.03.15.053.15.053.175.053a.2.2 0 0 0 .075-.018c.186-.066.199-.07.276-.068.102 0 .2.03.277.087a.5.5 0 0 1 .083.083l.008.012-.032.025a.42.42 0 0 0-.171.38.4.4 0 0 0 .031.136.47.47 0 0 0 .196.215.1.1 0 0 1 .026.017 1.203 1.203 0 0 1-.224.391.3.3 0 0 1-.16.105q-.02.004-.018.007l-.023.003q-.024 0-.023-.003.005-.004-.016-.006a1 1 0 0 1-.127-.04.4.4 0 0 0-.167-.03.4.4 0 0 0-.136.03 1 1 0 0 1-.122.04q-.013.002-.013.005.002.004-.006.004l-.026.001zm.319-1.497a.3.3 0 0 1 .003-.101.43.43 0 0 1 .319-.324q.026-.007.025-.009 0-.003.01-.003l.016-.002c.012-.004 0 .104-.016.155a.43.43 0 0 1-.246.27c-.038.012-.104.021-.111.014"/></svg>