<svg xmlns="http://www.w3.org/2000/svg" width="22" height="22"><defs><linearGradient id="a" x1="7.937" x2="7.937" y1="15.081" y2="1.852" gradientTransform="translate(0 .015)scale(1.88973)" gradientUnits="userSpaceOnUse"><stop offset="0" style="stop-color:#333;stop-opacity:1"/><stop offset="1" style="stop-color:#424242;stop-opacity:1"/></linearGradient></defs><rect width="22" height="22" rx="6" ry="6" style="fill:url(#a);stroke-width:.499982"/><path d="M11 4C8.784 4 7 5.784 7 8v2c-1.108 0-2 .892-2 2v5c0 1.108.892 2 2 2h8c1.108 0 2-.892 2-2v-5c0-1.108-.892-2-2-2V8c0-2.216-1.784-4-4-4m0 1c1.662 0 3 1.338 3 3v2H8V8c0-1.662 1.338-3 3-3m-4 6h8c.554 0 1 .446 1 1v5c0 .554-.446 1-1 1H7c-.554 0-1-.446-1-1v-5c0-.554.446-1 1-1" class="ColorScheme-Text" style="color:#363636;fill:#fff"/></svg>