<svg xmlns="http://www.w3.org/2000/svg" width="22" height="22"><defs><linearGradient id="a" x1="7.937" x2="7.937" y1="15.081" y2="1.852" gradientTransform="translate(0 .015)scale(1.8897)" gradientUnits="userSpaceOnUse"><stop offset="0" stop-color="#8e8d92"/><stop offset="1" stop-color="#b3b2b6"/></linearGradient></defs><rect width="22" height="22" fill="url(#a)" rx="6" ry="6"/><g fill="#fff" transform="translate(3 3)"><rect width="5" height="4" y="6" ry="1"/><path d="M6 3 3 6v4l3 3zm7.139-1.572c-.545-.428-1.139.224-.684.732A8 8 0 0 1 15 8a8 8 0 0 1-2.554 5.852c-.446.471.18 1.148.677.728A9 9 0 0 0 16 8a9 9 0 0 0-2.861-6.572"/><path d="M10.775 2.889c-.587-.535-1.199.225-.684.732A6 6 0 0 1 12 8a6 6 0 0 1-1.916 4.389c-.469.446.173 1.146.68.728A7 7 0 0 0 13 8a7 7 0 0 0-2.225-5.111"/><path d="M8.41 4.35c-.52-.494-1.155.22-.683.73A4 4 0 0 1 9 8a4 4 0 0 1-1.277 2.926c-.473.43.14 1.152.68.73A5 5 0 0 0 10 8a5 5 0 0 0-1.59-3.65"/></g></svg>