<svg xmlns="http://www.w3.org/2000/svg" width="22" height="22"><defs><linearGradient id="a" x1="7.937" x2="7.937" y1="15.081" y2="1.852" gradientTransform="translate(0 .015)scale(1.88973)" gradientUnits="userSpaceOnUse"><stop offset="0" style="stop-color:#333;stop-opacity:1"/><stop offset="1" style="stop-color:#424242;stop-opacity:1"/></linearGradient></defs><linearGradient id="b" x1="16" x2="16" y1="23" y2="9" gradientTransform="translate(-5 -5)" gradientUnits="userSpaceOnUse"><stop offset="0" stop-color="#ffd42a"/><stop offset="1" stop-color="#ffdf62"/></linearGradient><rect width="22" height="22" rx="6" ry="6" style="fill:url(#a);stroke-width:.499982"/><path d="M6.998 0A7 7 0 0 0 5.24.22c.445.396.791.903.791.903s-.388.5.002.998c.39.497.682.842.78.842s2.373-1.545 2.373-1.545.95-.764.875-1.418zm10.877.611c-.148.302-1.036.552-1.164.653-.13.102-.479.562-.479.562l-.26-.408-.152.408-.455.371-.193-.275-.131-.186h.52s.229-.573-.747-.459c-.878-.383-1.529-.154-1.822.077-.292.229-.49.728-.75.843s-.228 1.112 0 1.112h.781l.293-.346s.39-1.455.553-1.033-.781.88.584.88c-.412.613-.908.805-.908.805h-.846s-.91.537-1.072.653-.781-.653-.781-.653.195.996.195 1.494c0 .499-.814.653-.814.653s.129 1.074.162 1.611C9.999 7.756 10 8.445 10 8.445l-.586.346-.26 2.107s-.39.651 0 .881 1.041 1.344 1.041 1.344.683.152.975 0c.292-.154.424-1.035.814-.23s.422.115.422.115.52.345.162 1.265c.228.268.391.612.391 1.416v1.649s1.041 2.415.846 2.99c-.196.575.715-.192 1.04 0s1.334-1.802 1.204-2.492.812-.958.877-1.303c.065-.346-.065-1.378-.422-1.685-.358-.308 2.212-2.494 1.789-3.108s-.847.422-1.172.23-.226-.572-.226-.572 1.928-.154 2.248-.959.645-2.032 1.718-.115c.513.916.87 1.552 1.139 1.955V6.988A6.99 6.99 0 0 0 17.875.611M4.025.658A6.99 6.99 0 0 0 0 6.992v1.336c.339.051.6.117.6.117l.13.883.293-1.521L2.105 6.67l2.168-1.982s.618 1.111.88.652c-.177-.351-.424-.766-.163-1.188-1.366-2.108.229-2.146.229-2.146l-.91-1.15S4.14.757 4.025.657M0 10.916v1.281q.16.1.342.158c.617.192-.196 1.533-.033 2.032.162.499.455 1.418.455 1.418s.422.996 1.105 1.457c.283.19.197 1.37.192 2.709.477.474 1.024.88 1.623 1.2.286-.076.43-.075.43-.075l1.17-2.951s.691-.159.747-.23l.002-.003v-.01h-.002V17.9l-.002-.002-.002-.002-.002-.005c-.043-.15.205-1.63.268-1.74.065-.116.488-.69.293-.997-.195-.306-.685-.806-1.465-1.074-.358-.297-.65-1.226-1.072-1.342-.423-.114-1.041-.924-1.041-.924s-.553.27-1.139 0c-.584-.267-1.82.196-1.82.196s.161-.69-.033-1.072c-.006-.01-.011-.014-.016-.022" style="opacity:.06;fill:#fff;stroke-width:.0428029"/><path fill="url(#b)" d="M11 6.254c-1.526 1.06-3.24 1.596-4.96 1.96.815 4.622 2.57 6.599 4.96 7.837 2.39-1.238 4.145-3.215 4.96-7.837-1.72-.364-3.434-.9-4.96-1.96M11 4S9.25 6.324 4 6.907c0 0 0 8.17 7 11.093 7-2.924 7-11.093 7-11.093C12.75 6.324 11 4 11 4m0 1.205c1.388 1.177 3.393 1.961 5.99 2.357-.14 1.264-.277 2.215-.603 3.135-.688 1.933-1.488 3.11-2.205 3.955-1.115 1.311-2.126 1.84-3.182 2.368-1.056-.527-2.067-1.057-3.182-2.368-.717-.845-1.517-2.022-2.205-3.955-.326-.92-.463-1.87-.604-3.135C7.607 7.166 9.612 6.382 11 5.205" style="fill:url(#b)"/></svg>