<svg xmlns="http://www.w3.org/2000/svg" xmlns:xlink="http://www.w3.org/1999/xlink" width="22" height="22"><defs><linearGradient id="b" x1="7.937" x2="7.937" y1="15.081" y2="1.852" gradientTransform="translate(0 .016)scale(1.88973)" gradientUnits="userSpaceOnUse"><stop offset="0" stop-color="#0e71de" style="stop-color:#3377f4;stop-opacity:1"/><stop offset="1" stop-color="#25c9ff" style="stop-color:#5194f5;stop-opacity:1"/></linearGradient></defs><linearGradient id="a"><stop offset="0" stop-color="#7cbaf8"/><stop offset="1" stop-color="#f4fcff"/></linearGradient><linearGradient xlink:href="#a" id="c" x2="0" y1="23" y2="9" gradientUnits="userSpaceOnUse"/><linearGradient xlink:href="#a" id="d" x1="-21" x2="-21" y1="23" y2="9" gradientTransform="matrix(.5 0 0 1 395.071 515.798)" gradientUnits="userSpaceOnUse"/><rect width="22" height="22" rx="6" ry="6" style="fill:url(#b);stroke-width:.499982"/><path fill="url(#c)" d="M16 9a3.49 3.49 0 0 0-3.5 3.5c0 1.939 1.561 3.5 3.5 3.5s3.5-1.561 3.5-3.5S17.939 9 16 9m0 7c-3.878 0-7 3.122-7 7h8v-1h-6.91A5.98 5.98 0 0 1 16 17c.359 0 .707.038 1.045.104l.26-.973A6.7 6.7 0 0 0 16 16m0-6c1.385 0 2.5 1.115 2.5 2.5S17.385 15 16 15a2.495 2.495 0 0 1-2.5-2.5c0-1.385 1.115-2.5 2.5-2.5" style="fill:#fff" transform="translate(-5.5 -5)"/><g fill="url(#d)" stroke-width=".707" style="fill:#fff" transform="translate(-390.071 -520.798)"><path d="M406.571 532.798v6h1v-6z" style="fill:#fff"/><path d="M402.571 537.798h6v-1h-6zm0-3h6v-1h-6z" style="fill:#fff"/><path d="M403.571 532.798v6h1v-6z" style="fill:#fff"/></g></svg>