<svg xmlns="http://www.w3.org/2000/svg" width="22" height="22"><defs><linearGradient id="a" x1="7.937" x2="7.937" y1="15.081" y2="1.852" gradientTransform="translate(0 .015)scale(1.88973)" gradientUnits="userSpaceOnUse"><stop offset="0" style="stop-color:#333;stop-opacity:1"/><stop offset="1" style="stop-color:#424242;stop-opacity:1"/></linearGradient></defs><rect width="22" height="22" rx="6" ry="6" style="fill:url(#a);stroke-width:.499982"/><rect width="2" height="1" x="5" y="3" rx=".5" ry=".5" style="fill:#6ed106;fill-opacity:1;fill-rule:evenodd;stroke-linecap:round;stroke-linejoin:round;paint-order:stroke fill markers"/><path d="M.287 5A7 7 0 0 0 0 7v1h22V7c0-.696-.1-1.367-.287-2zM0 14v1c0 .696.1 1.367.287 2h21.426A7 7 0 0 0 22 15v-1z" style="opacity:.5;fill:#000;stroke-linecap:round;stroke-linejoin:round"/><rect width="2" height="1" x="5" y="11" rx=".5" ry=".5" style="fill:#6ed106;fill-opacity:1;fill-rule:evenodd;stroke-linecap:round;stroke-linejoin:round;paint-order:stroke fill markers"/><rect width="2" height="1" x="5" y="18" rx=".5" ry=".5" style="fill:#6ed106;fill-opacity:1;fill-rule:evenodd;stroke-linecap:round;stroke-linejoin:round;paint-order:stroke fill markers"/></svg>