<svg xmlns="http://www.w3.org/2000/svg" width="22" height="22" viewBox="0 0 22 22"><defs><linearGradient id="a" x1="7.937" x2="7.937" y1="15.081" y2="1.852" gradientTransform="translate(-1.57 -1.559)scale(1.48476)" gradientUnits="userSpaceOnUse"><stop offset="0" stop-color="#3377f4"/><stop offset="1" stop-color="#5194f5"/></linearGradient></defs><rect width="22" height="22" fill="url(#a)" rx="6" ry="6" style="fill:url(#a);stroke-width:.785714"/><path fill="#fff" d="M16.74 5.426A8 8 0 0 0 11 3a8 8 0 0 0-8 8 8 8 0 0 0 8 8 8 8 0 0 0 8-8 8 8 0 0 0-2.26-5.575Zm-.861.552a7 7 0 0 1 2.096 4.522H15.99a5 8.001 0 0 0-1.896-5.775 7 7 0 0 1 1.786 1.253m-3.065-1.217a4 7.001 0 0 1 2.172 5.74H11.5V4.063a4 7.001 0 0 1 1.314.697m5.17 6.74a7 7 0 0 1-3.872 5.76 5 8.001 0 0 0 1.872-5.76zM10.5 4.06v6.44H7.01a4 7.001 0 0 1 3.49-6.44m4.489 7.44a4 7.001 0 0 1-3.49 6.439V11.5zM7.888 4.738A5 8.001 0 0 0 6.016 10.5h-2A7 7 0 0 1 7.888 4.74zM10.5 11.5v6.437A4 7.001 0 0 1 7.013 11.5zm-4.49 0a5 8.001 0 0 0 1.897 5.775A7 7 0 0 1 4.024 11.5z"/></svg>