<svg width="22" height="22" version="1.1" xmlns="http://www.w3.org/2000/svg">
 <defs>
  <linearGradient id="a" x1="-9.401" x2="-9.401" y1="9.701" y2=".529" gradientTransform="translate(63.899)scale(3.7796)" gradientUnits="userSpaceOnUse">
   <stop stop-color="#624484" offset="0"/>
   <stop stop-color="#bd67a3" offset="1"/>
  </linearGradient>
 </defs>
 <rect width="22" height="22" rx="6" ry="6" fill="url(#a)"/>
 <path d="m7 0c-3.8729 0-6.9918 3.1135-7 6.9844-1.0753e-5 0.0050877 0 0.010535 0 0.015625v8c0 0.00509-1.0753e-5 0.010537 0 0.015625 0.0081812 3.8709 3.1271 6.9844 7 6.9844v-22z" fill="#ffffff" opacity=".15"/>
 <g transform="matrix(.75 0 0 .75 .24999 2.375)" fill="#ffffff">
  <rect x="3" y="2" width="4" height="4" rx="1.012" ry="1.012" opacity=".5"/>
  <rect x="3" y="7" width="4" height="4" rx="1.012" ry="1.012" opacity=".5"/>
  <rect x="3" y="12" width="4" height="4" rx="1.012" ry="1.012" opacity=".5"/>
  <rect x="3" y="17" width="4" height="4" rx="1.012" ry="1.012" opacity=".5"/>
 </g>
</svg>
