<svg xmlns="http://www.w3.org/2000/svg" width="22" height="22"><defs><linearGradient id="a" x1="7.937" x2="7.937" y1="15.081" y2="1.852" gradientTransform="translate(0 .016)scale(1.88973)" gradientUnits="userSpaceOnUse"><stop offset="0" stop-color="#0e71de" style="stop-color:#3377f4;stop-opacity:1"/><stop offset="1" stop-color="#25c9ff" style="stop-color:#5194f5;stop-opacity:1"/></linearGradient></defs><rect width="22" height="22" rx="6" ry="6" style="fill:url(#a);stroke-width:.499982"/><path d="M6.998 0A7 7 0 0 0 5.24.22c.445.396.791.903.791.903s-.388.5.002.998c.39.497.682.842.78.842s2.373-1.545 2.373-1.545.95-.764.875-1.418zm10.877.611c-.148.302-1.036.552-1.164.653-.13.102-.479.562-.479.562l-.26-.408-.152.408-.455.371-.193-.275-.131-.186h.52s.229-.573-.747-.459c-.878-.383-1.529-.154-1.822.077-.292.229-.49.728-.75.843s-.228 1.112 0 1.112h.781l.293-.346s.39-1.455.553-1.033-.781.88.584.88c-.412.613-.908.805-.908.805h-.846s-.91.537-1.072.653-.781-.653-.781-.653.195.996.195 1.494c0 .499-.814.653-.814.653s.129 1.074.162 1.611C9.999 7.756 10 8.445 10 8.445l-.586.346-.26 2.107s-.39.651 0 .881 1.041 1.344 1.041 1.344.683.152.975 0c.292-.154.424-1.035.814-.23s.422.115.422.115.52.345.162 1.265c.228.268.391.612.391 1.416v1.649s1.041 2.415.846 2.99c-.196.575.715-.192 1.04 0s1.334-1.802 1.204-2.492.812-.958.877-1.303c.065-.346-.065-1.378-.422-1.685-.358-.308 2.212-2.494 1.789-3.108s-.847.422-1.172.23-.226-.572-.226-.572 1.928-.154 2.248-.959.645-2.032 1.718-.115c.513.916.87 1.552 1.139 1.955V6.988A6.99 6.99 0 0 0 17.875.611M4.025.658A6.99 6.99 0 0 0 0 6.992v1.336c.339.051.6.117.6.117l.13.883.293-1.521L2.105 6.67l2.168-1.982s.618 1.111.88.652c-.177-.351-.424-.766-.163-1.188-1.366-2.108.229-2.146.229-2.146l-.91-1.15S4.14.757 4.025.657M0 10.916v1.281q.16.1.342.158c.617.192-.196 1.533-.033 2.032.162.499.455 1.418.455 1.418s.422.996 1.105 1.457c.283.19.197 1.37.192 2.709.477.474 1.024.88 1.623 1.2.286-.076.43-.075.43-.075l1.17-2.951s.691-.159.747-.23l.002-.003v-.01h-.002V17.9l-.002-.002-.002-.002-.002-.006c-.043-.15.205-1.629.268-1.74.065-.116.488-.69.293-.996S5.9 14.348 5.12 14.08c-.358-.297-.65-1.226-1.072-1.342-.423-.114-1.041-.924-1.041-.924s-.553.27-1.139 0c-.584-.267-1.82.196-1.82.196s.161-.69-.033-1.072c-.006-.01-.011-.014-.016-.022" style="opacity:.15;fill:#fff;stroke-width:.0428029"/><g transform="translate(-5 -5)"><path d="M16 12a9 9 0 0 0-7.877 4.668c.129.364.357.677.656.908A8 8 0 0 1 16 13a4 4 0 0 0-4 4 4 4 0 0 0 4 4 4 4 0 0 0 4-4 4 4 0 0 0-3.65-3.982 8 8 0 0 1 6.87 4.558c.302-.234.533-.55.66-.918A9 9 0 0 0 16 12m0 2a3 3 0 0 1 3 3 3 3 0 0 1-3 3 3 3 0 0 1-3-3 3 3 0 0 1 3-3m0 1a2 2 0 0 0-2 2 2 2 0 0 0 2 2 2 2 0 0 0 2-2 2 2 0 0 0-.09-.588A1 1 0 0 1 17 17a1 1 0 0 1-1-1 1 1 0 0 1 .59-.91A2 2 0 0 0 16 15" style="fill:#fff" transform="translate(0 -2)"/><path d="M10 9c-1.108 0-2 .892-2 2v8c0 1.108.892 2 2 2h12c1.108 0 2-.892 2-2v-8c0-1.108-.892-2-2-2Zm0 1h12c.554 0 1 .446 1 1v8c0 .554-.446 1-1 1H10c-.554 0-1-.446-1-1v-8c0-.554.446-1 1-1" style="fill:#fff;fill-rule:evenodd;stroke-linecap:round;stroke-linejoin:round;paint-order:stroke fill markers"/><rect width="8" height="1" x="12" y="22" rx=".5" ry=".5" style="fill:#fff;fill-rule:evenodd;stroke-linecap:round;stroke-linejoin:round;paint-order:stroke fill markers"/></g></svg>