<svg xmlns="http://www.w3.org/2000/svg" width="22" height="22"><defs><linearGradient id="a" x1="400.57" x2="400.57" y1="545.8" y2="517.8" gradientTransform="translate(-384.57 -515.8)" gradientUnits="userSpaceOnUse"><stop offset="0" stop-color="#6dad45"/><stop offset="1" stop-color="#7dda58"/></linearGradient></defs><rect width="22" height="22" fill="url(#a)" rx="6" ry="6"/><g fill="#fff" transform="translate(-5 -5)"><path d="M9 10c-1.662 0-3 1.338-3 3v6c0 1.662 1.338 3 3 3h12c1.662 0 3-1.338 3-3v-6c0-1.662-1.338-3-3-3zm0 1h12c1.108 0 2 .892 2 2v6c0 1.108-.892 2-2 2H9c-1.108 0-2-.892-2-2v-6c0-1.108.892-2 2-2m16 3v4c.554 0 1-.446 1-1v-2c0-.554-.446-1-1-1" opacity=".45"/><rect width="14" height="8" x="8" y="12" rx="1" ry="1"/></g></svg>