<svg xmlns="http://www.w3.org/2000/svg" width="22" height="22"><defs><linearGradient id="a" x1="7.937" x2="7.937" y1="15.081" y2="1.852" gradientTransform="translate(.001 .015)scale(1.8897)" gradientUnits="userSpaceOnUse"><stop offset="0" stop-color="#8e8d92"/><stop offset="1" stop-color="#b3b2b6"/></linearGradient></defs><rect width="22" height="22" fill="url(#a)" rx="6" ry="6"/><path fill="#fff" d="M5.954 9.747c0-.312.192-.506.517-.506h1.121v-1.09c0-.318.181-.512.493-.512.306 0 .493.194.493.511v1.091H9.63c.35 0 .555.194.555.506 0 .324-.205.523-.554.523H8.579v1.091c0 .318-.188.518-.494.518-.312 0-.493-.2-.493-.518V10.27H6.471c-.324 0-.517-.2-.517-.523m6.128.873a.89.89 0 0 1 .897-.905c.505 0 .899.393.899.904a.886.886 0 0 1-.899.898.89.89 0 0 1-.898-.898zm1.839-1.846a.886.886 0 0 1 .89-.904c.513 0 .899.393.899.904a.877.877 0 0 1-.897.89.88.88 0 0 1-.892-.89m-9.545 7.875c.854 0 1.44-.313 1.964-.96l1.128-1.367c.162-.192.35-.286.537-.286h5.99c.188 0 .375.094.537.286l1.128 1.366c.524.648 1.11.96 1.964.96 1.427 0 2.376-.948 2.376-2.407 0-.623-.144-1.34-.387-2.144-.38-1.278-1.048-3.018-1.683-4.365-.536-1.122-.81-1.633-2.133-1.932-1.172-.269-2.799-.449-4.794-.449s-3.628.18-4.8.449c-1.322.3-1.597.81-2.133 1.933a34 34 0 0 0-1.683 4.364C2.144 12.901 2 13.618 2 14.241c0 1.459.948 2.407 2.376 2.407z" style="stroke-width:.899955"/></svg>