<svg xmlns="http://www.w3.org/2000/svg" xmlns:xlink="http://www.w3.org/1999/xlink" width="22" height="22"><defs><linearGradient id="a"><stop style="stop-color:#197cf1"/><stop offset="1" style="stop-color:#21c9fb"/></linearGradient><linearGradient xlink:href="#a" id="c" x1="20" x2="8" y1="19" y2="10" gradientTransform="translate(-5.962 -6.096)scale(1.07692)" gradientUnits="userSpaceOnUse"/><linearGradient id="b" x1="7.937" x2="7.937" y1="15.081" y2="1.852" gradientTransform="translate(0 .015)scale(1.88973)" gradientUnits="userSpaceOnUse"><stop offset="0" style="stop-color:#333;stop-opacity:1"/><stop offset="1" style="stop-color:#424242;stop-opacity:1"/></linearGradient></defs><rect width="22" height="22" rx="6" ry="6" style="fill:url(#b);stroke-width:.499982"/><path d="M8.039 4.673a2.154 2.154 0 0 0-2.154 2.154A2.154 2.154 0 0 0 7.5 8.912V7.757a1.08 1.08 0 0 1-.54-.93A1.077 1.077 0 0 1 8.04 5.75a1.077 1.077 0 0 1 1.077 1.077 1 1 0 0 1-.01.145l.908.707a2.2 2.2 0 0 0 .179-.852 2.154 2.154 0 0 0-2.154-2.154m0 2.154.007 10.5 3.224-4.308h4.846z" style="fill:url(#c);stroke-width:1.07692;stroke-linejoin:round"/><path d="M.158 16.49A6.98 6.98 0 0 0 6.984 22h3.536v-5.51zm11.281 0V22h3.577a6.98 6.98 0 0 0 6.826-5.51z" style="opacity:.06;fill:#fff;fill-rule:evenodd;stroke-width:.918387;stroke-linecap:round;stroke-linejoin:round;paint-order:stroke fill markers"/></svg>