<svg xmlns="http://www.w3.org/2000/svg" width="22" height="22"><defs><linearGradient id="a" x1="7.937" x2="7.937" y1="15.081" y2="1.852" gradientTransform="translate(0 .015)scale(1.88973)" gradientUnits="userSpaceOnUse"><stop offset="0" style="stop-color:#8e8d92;stop-opacity:1"/><stop offset="1" style="stop-color:#b3b2b6;stop-opacity:1"/></linearGradient></defs><rect width="22" height="22" rx="6" ry="6" style="fill:url(#a);stroke-width:.499982"/><g transform="translate(-5 -5)"><path d="M11 7c-1.662 0-3 1.338-3 3v12c0 1.662 1.338 3 3 3h10c1.662 0 3-1.338 3-3V10c0-1.662-1.338-3-3-3Zm0 1h10c1.108 0 2 .892 2 2v12c0 1.108-.892 2-2 2H11c-1.108 0-2-.892-2-2V10c0-1.108.892-2 2-2" style="fill:#fff;fill-rule:evenodd;stroke-width:1.00525;stroke-linecap:round;stroke-linejoin:round;paint-order:stroke fill markers"/><rect width="16" height="1" x="8" y="15" rx="0" ry="0" style="fill:#fff;fill-rule:evenodd;stroke-linecap:round;stroke-linejoin:round;paint-order:stroke fill markers"/><circle cx="20.5" cy="21.5" r=".5" style="fill:#fff;fill-rule:evenodd;stroke-linecap:round;stroke-linejoin:round;paint-order:stroke fill markers"/><path d="M9 8h14v7H9Z" style="opacity:.15;fill:#fff;fill-rule:evenodd;stroke-linecap:round;stroke-linejoin:round;paint-order:stroke fill markers"/></g></svg>