<svg xmlns="http://www.w3.org/2000/svg" width="22" height="22"><defs><linearGradient id="a" x1="7.937" x2="7.937" y1="15.081" y2="1.852" gradientTransform="translate(0 .015)scale(1.88973)" gradientUnits="userSpaceOnUse"><stop offset="0" style="stop-color:#888;stop-opacity:1"/><stop offset="1" style="stop-color:#aaa;stop-opacity:1"/></linearGradient><linearGradient id="d" x1="12" x2="12" y1="48" y2="10" gradientTransform="matrix(.44444 0 0 .44532 -3.222 -2.376)" gradientUnits="userSpaceOnUse"><stop offset="0" stop-color="#eef1f2"/><stop offset="1" stop-color="#f9fafb"/></linearGradient><linearGradient id="b" x1="7.937" x2="7.937" y1="15.081" y2="1.852" gradientTransform="translate(0 .015)scale(1.8897)" gradientUnits="userSpaceOnUse"><stop offset="0" stop-color="#888"/><stop offset="1" stop-color="#aaa"/></linearGradient></defs><linearGradient id="e" x1="400.571" x2="400.571" y1="522.798" y2="535.798" gradientTransform="translate(-389.571 -518.798)" gradientUnits="userSpaceOnUse"><stop offset="0" stop-color="#da4453"/><stop offset="1" stop-color="#c72737"/></linearGradient><linearGradient id="c" x1="12" x2="12" y1="48" y2="10" gradientTransform="matrix(.55555 0 0 .54843 -1.778 -1.325)" gradientUnits="userSpaceOnUse"><stop offset="0" stop-color="#eef1f2"/><stop offset="1" stop-color="#f9fafb"/></linearGradient><rect width="22" height="22" fill="url(#a)" rx="6" ry="6" style="fill:url(#b)"/><path d="M7.667 20a1.33 1.33 0 0 0-1.334 1.333V22h9.334v-.667A1.33 1.33 0 0 0 14.333 20Z" opacity=".5" style="stroke-width:.666667"/><path fill="url(#c)" d="M7 2C4.791 2 3 3.795 3 6.008v4.06c.565.506.888 1.27.889 2.03 0 .76-.324 1.524-.889 2.03v2.436L5.4 19h11.2l2.4-2.436v-2.436c-.565-.506-.888-1.27-.889-2.03 0-.76.324-1.524.889-2.03v-4.06A4.004 4.004 0 0 0 15 2Z" style="fill:url(#d);stroke-width:.805976"/><rect width="4" height=".667" x="7.667" y="20.667" fill="#f6b44d" fill-rule="evenodd" rx=".333" ry=".333" style="stroke-width:.666667;paint-order:stroke fill markers"/><rect width="2" height=".667" x="12.333" y="20.667" fill="#f6b44d" fill-rule="evenodd" rx=".333" ry=".333" style="stroke-width:.666667;paint-order:stroke fill markers"/><path d="M11 4C9.338 4 8 5.338 8 7v3c-1.108 0-2 .892-2 2v3c0 1.108.892 2 2 2h6c1.108 0 2-.892 2-2v-3c0-1.108-.892-2-2-2V7c0-1.662-1.338-3-3-3m0 1c1.246 0 2 .546 2 2v3H9V7c0-1.454.754-2 2-2" style="fill:url(#e)"/></svg>