<svg xmlns="http://www.w3.org/2000/svg" width="22" height="22"><defs><linearGradient id="a" x1="7.937" x2="7.937" y1="15.081" y2="1.852" gradientTransform="translate(.001 .016)scale(1.88973)" gradientUnits="userSpaceOnUse"><stop offset="0" stop-color="#0e71de" style="stop-color:#3377f4;stop-opacity:1"/><stop offset="1" stop-color="#25c9ff" style="stop-color:#5194f5;stop-opacity:1"/></linearGradient></defs><rect width="22" height="22" rx="6" ry="6" style="fill:url(#a);stroke-width:.499982"/><path d="M11 3C8.784 3 7 4.784 7 7h1c0-1.662 1.338-3 3-3s3 1.338 3 3v2h1V7c0-2.216-1.784-4-4-4M7 9c-1.108 0-2 .892-2 2v5c0 1.108.892 2 2 2h8c1.108 0 2-.892 2-2v-5c0-1.108-.892-2-2-2Zm0 1h8c.554 0 1 .446 1 1v5c0 .554-.446 1-1 1H7c-.554 0-1-.446-1-1v-5c0-.554.446-1 1-1" class="ColorScheme-Text" style="color:#363636;fill:#fff"/></svg>