<svg width="22" height="22" version="1.1" xmlns="http://www.w3.org/2000/svg">
 <defs>
  <linearGradient id="b-7" x1="346.66" x2="346.66" y1="553.8" y2="525.8" gradientTransform="matrix(.78571 0 0 .78571 -261.38 -413.13)" gradientUnits="userSpaceOnUse">
   <stop stop-color="#63984b" offset="0"/>
   <stop stop-color="#8fc278" offset="1"/>
  </linearGradient>
 </defs>
 <linearGradient id="c" x1="394.86" x2="394.86" y1="543.8" y2="535.8" gradientTransform="matrix(1.1428 0 0 1.1429 -437.63 -606.48)" gradientUnits="userSpaceOnUse">
  <stop stop-color="#2a2c2f" offset="0"/>
  <stop stop-color="#424649" offset="1"/>
 </linearGradient>
 <rect width="22" height="22" rx="6" ry="6" fill="url(#b-7)" stroke-width=".78571"/>
 <path d="m6 2c-2.216 0-4 1.784-4 4v10c0 2.216 1.784 4 4 4h10c2.216 0 4-1.784 4-4v-10c0-2.216-1.784-4-4-4zm-1.5 2a0.5 0.5 0 0 1 0.5 0.5 0.5 0.5 0 0 1-0.5 0.5 0.5 0.5 0 0 1-0.5-0.5 0.5 0.5 0 0 1 0.5-0.5zm13 13a0.5 0.5 0 0 1 0.5 0.5 0.5 0.5 0 0 1-0.5 0.5 0.5 0.5 0 0 1-0.5-0.5 0.5 0.5 0 0 1 0.5-0.5z" fill="#ffffff"/>
 <path d="m4 15h4v1h-4zm0 2h2v1h-2zm11-13v3h1v-1h1v-1h-1v-1zm2 1h1v-1h-1zm0 1v1h1v-1z" fill="#484a4b" opacity=".75"/>
 <path d="m20 6h1v1h-1zm-1 1h1v1h-1zm1 1h1v1h-1zm-1 1h1v1h-1zm1 1h1v1h-1zm-1 1h1v1h-1zm1 1h1v1h-1zm-1 3h1v1h-1zm1-1h1v1h-1zm-1-1h1v1h-1zm-3 7v1h-1v-1zm-1-1v1h-1v-1zm-1 1v1h-1v-1zm-1-1v1h-1v-1zm-1 1v1h-1v-1zm-1-1v1h-1v-1zm-1 1v1h-1v-1zm-3-1v1h-1v-1zm1 1v1h-1v-1zm1-1v1h-1v-1z" opacity=".35"/>
 <path d="m9.8575 12.714a1.14 1.14 0 0 0-1.1433 1.1433c0 0.63333 0.50998 1.1427 1.1433 1.1427a1.14 1.14 0 0 0 1.1426-1.1427 1.14 1.14 0 0 0-1.1426-1.1433m-1.9999-2.8567a0.8573 0.85733 0 0 0-0.8573 0.856 0.8573 0.85733 0 1 0 1.7139 0 0.8573 0.85733 0 0 0-0.85663-0.85667m4.2852-2.8567-1.1426 1.1427 1.7139 1.7147-1.7139 1.714 1.1426 1.1427 1.7146-1.714 1.1426-1.1427-1.1426-1.144zm-2.8559 0a0.57131 0.57133 0 1 0 0 1.1427 0.57131 0.57133 0 1 0 0-1.1427" fill="url(#c)" stroke-width="1.1428"/>
</svg>
