<svg xmlns="http://www.w3.org/2000/svg" width="22" height="22"><defs><linearGradient id="a" x1="7.937" x2="7.937" y1="15.081" y2="1.852" gradientTransform="translate(0 .015)scale(1.88973)" gradientUnits="userSpaceOnUse"><stop offset="0" style="stop-color:#333;stop-opacity:1"/><stop offset="1" style="stop-color:#424242;stop-opacity:1"/></linearGradient></defs><rect width="22" height="22" rx="6" ry="6" style="fill:url(#a);stroke-width:.499982"/><path d="M.287 5A7 7 0 0 0 0 7v1h22V7c0-.696-.1-1.367-.287-2ZM0 14v1c0 .696.1 1.367.287 2h21.426A7 7 0 0 0 22 15v-1z" style="opacity:.5;fill:#000;stroke-linecap:round;stroke-linejoin:round"/><rect width="16" height="16" x="3" y="3" rx="3" ry="3" style="fill:#f2f2f2;stroke-width:.363623"/><g fill="#232629"><path d="M14.936 12a2 2 0 0 1 .064.5v.5a2 2 0 0 1-2 2h-1v2h5v-5h-2z"/><path d="M12 12v2h1a1 1 0 0 0 .295-.045 1 1 0 0 0 .35-.19 1 1 0 0 0 .246-.312A1 1 0 0 0 14 13v-.5a1 1 0 0 0-.137-.5Zm-7 0v5h5v-2H7v-1h3v-2zm0-7v5h2.064A2 2 0 0 1 7 9.5V9a2 2 0 0 1 2-2h1V5z"/><path d="M9 8a1 1 0 0 0-.295.045 1 1 0 0 0-.35.19 1 1 0 0 0-.246.312A1 1 0 0 0 8 9v.5a1 1 0 0 0 .137.5H10V8zm3-3v2h3v1h-3v2h5V5z"/></g></svg>