<svg xmlns="http://www.w3.org/2000/svg" width="22" height="22" viewBox="0 0 22 22"><defs><linearGradient id="d" x1="23" x2="23" y1="18" y2="9" gradientUnits="userSpaceOnUse"><stop offset="0" stop-color="#c61423"/><stop offset="1" stop-color="#dc2b41"/></linearGradient><linearGradient id="b" x1="400.571" x2="400.571" y1="545.798" y2="517.798" gradientTransform="translate(-327.347 -439.827)scale(.85714)" gradientUnits="userSpaceOnUse"><stop offset="0" stop-color="#eff0f1"/><stop offset="1" stop-color="#fcfcfc"/></linearGradient><linearGradient id="c" x1="9" x2="18" y1="14" y2="23" gradientUnits="userSpaceOnUse"><stop offset="0" stop-color="#4d4d4d"/><stop offset="1" stop-color="#232629"/></linearGradient><linearGradient id="a" x1="7.937" x2="7.937" y1="15.081" y2="1.852" gradientTransform="translate(0 .015)scale(1.88973)" gradientUnits="userSpaceOnUse"><stop offset="0" style="stop-color:#8e8d92;stop-opacity:1"/><stop offset="1" style="stop-color:#b3b2b6;stop-opacity:1"/></linearGradient></defs><rect width="22" height="22" rx="6" ry="6" style="fill:url(#a);stroke-width:.499982"/><path fill="url(#b)" d="M16 4c6.648 0 12 5.352 12 12s-5.352 12-12 12S4 22.648 4 16 9.352 4 16 4" style="fill:url(#b)" transform="matrix(.75 0 0 .75 -1 -1)"/><path fill="#4d4d4d" d="M11.375 3.5h-.75V2h.75z"/><path fill="url(#c)" d="m18 18-9 5 5-9z" style="fill:url(#c)" transform="matrix(.75 0 0 .75 -1 -1)"/><path fill="url(#d)" d="m14 14 9-5-5 9z" style="fill:url(#d)" transform="matrix(.75 0 0 .75 -1 -1)"/><path fill="#bdc3c7" d="M11.75 11a.75.75 0 0 1-.75.75.75.75 0 0 1-.75-.75.75.75 0 0 1 .75-.75.75.75 0 0 1 .75.75"/><path fill="#9fa5a8" d="M11.375 11a.375.375 0 0 1-.375.375.375.375 0 0 1-.375-.375.375.375 0 0 1 .375-.375.375.375 0 0 1 .375.375"/><path fill="#4d4d4d" d="M3.5 10.625v.75H2v-.75zm16.5 0v.75h-1.5v-.75zM11.375 20h-.75v-1.5h.75z"/></svg>