<svg xmlns="http://www.w3.org/2000/svg" width="22" height="22"><defs><linearGradient id="a" x1="7.937" x2="7.937" y1="15.081" y2="1.852" gradientTransform="translate(0 .016)scale(1.88973)" gradientUnits="userSpaceOnUse"><stop offset="0" stop-color="#0e71de" style="stop-color:#3377f4;stop-opacity:1"/><stop offset="1" stop-color="#25c9ff" style="stop-color:#5194f5;stop-opacity:1"/></linearGradient></defs><rect width="22" height="22" rx="6" ry="6" style="fill:url(#a);stroke-width:.499982"/><path d="M5 5C3.338 5 2 6.338 2 8v6c0 1.662 1.338 3 3 3h7.2l4.8 4v-4c1.662 0 3-1.338 3-3V8c0-1.662-1.338-3-3-3Zm0 1h12c1.108 0 2 .892 2 2v6c0 1.108-.892 2-2 2H5c-1.108 0-2-.892-2-2V8c0-1.108.892-2 2-2m2.002 3-.604 1.295-1.396.215 1.01 1.047L5.779 13 7 12.32l1.22.68-.232-1.443L9 10.51l-1.396-.215ZM9 10.51l1.012 1.047L9.779 13 11 12.32l1.22.68-.232-1.443L13 10.51l-1.396-.215L11 9l-.604 1.295Zm4 0 1.012 1.047L13.779 13 15 12.32l1.22.68-.232-1.443 1.01-1.047-1.396-.215L14.998 9l-.602 1.295Z" style="fill:#fff;fill-rule:evenodd;stroke-linecap:round;stroke-linejoin:round;paint-order:stroke fill markers"/></svg>