<svg xmlns="http://www.w3.org/2000/svg" width="22" height="22"><defs><linearGradient id="a" x1="7.937" x2="7.937" y1="15.081" y2="1.852" gradientTransform="translate(.001 .015)scale(1.88973)" gradientUnits="userSpaceOnUse"><stop offset="0" style="stop-color:#8e8d92;stop-opacity:1"/><stop offset="1" style="stop-color:#b3b2b6;stop-opacity:1"/></linearGradient></defs><rect width="22" height="22" rx="6" ry="6" style="fill:url(#a);stroke-width:.499982"/><path d="M9.2 7a.445.445 0 1 0 .023 0zm3.134 0-.89.889 1.779 1.778-1.778 1.778.889.888 1.778-1.777.888-.89-.888-.888ZM7.889 9.667a.889.889 0 1 0 0 1.778.889.889 0 0 0 0-1.778m2.223 2.666a1.334 1.334 0 1 0 0 2.667 1.334 1.334 0 0 0 0-2.667" style="fill:#fff;stroke-width:.888889"/><path d="M8 2C6.338 2 5 3.338 5 5v12c0 1.662 1.338 3 3 3h6c1.662 0 3-1.338 3-3V5c0-1.662-1.338-3-3-3Zm0 1h6c1.108 0 2 .892 2 2v12c0 1.108-.892 2-2 2H8c-1.108 0-2-.892-2-2V5c0-1.108.892-2 2-2" style="fill:#fff;fill-rule:evenodd;stroke-linecap:round;stroke-linejoin:round;paint-order:stroke fill markers"/><rect width="6" height="2" x="8" y="2" rx="1" ry="1" style="fill:#fff;fill-rule:evenodd;stroke-width:1.22474;stroke-linecap:round;stroke-linejoin:round;paint-order:stroke fill markers"/><rect width="6" height="1" x="8" y="17" rx=".5" ry=".5" style="opacity:.35;fill:#fff;fill-rule:evenodd;stroke-linecap:round;stroke-linejoin:round;paint-order:stroke fill markers"/></svg>