<svg xmlns="http://www.w3.org/2000/svg" width="22" height="22"><defs><linearGradient id="a" x1="7.937" x2="7.937" y1="15.081" y2="1.852" gradientTransform="translate(.001 .016)scale(1.8897)" gradientUnits="userSpaceOnUse"><stop offset="0" stop-color="#3377f4"/><stop offset="1" stop-color="#5194f5"/></linearGradient></defs><rect width="22" height="22" fill="url(#a)" rx="6" ry="6"/><path fill="#fff" d="M11 3a8 8 0 0 0-8 8 8 8 0 0 0 8 8 8 8 0 0 0 8-8 8 8 0 0 0-8-8m0 .889A7.11 7.11 0 0 1 18.111 11 7.11 7.11 0 0 1 11 18.111 7.11 7.11 0 0 1 3.889 11 7.11 7.11 0 0 1 11 3.889m.06 1.778a1.23 1.23 0 0 0-1.235 1.222c0 .674.554 1.22 1.235 1.22a1.227 1.227 0 0 0 1.232-1.22c0-.674-.552-1.222-1.232-1.222M6.526 8.17a.4.4 0 0 0-.095.03.37.37 0 0 0-.203.324.35.35 0 0 0 .203.304L9.712 9.86l-.022 2.368-1.158 3.546a.33.33 0 0 0 .09.476c.167.107.404.076.516-.085l1.87-3.83 1.833 3.823c.1.167.32.226.492.13a.344.344 0 0 0 .136-.477l-1.137-3.563-.045-2.23 3.328-1.204a.35.35 0 0 0 .135-.411.364.364 0 0 0-.382-.215.36.36 0 0 0-.157.064L11 8.903l-4.188-.66a.4.4 0 0 0-.285-.073Z" style="stroke-width:.888889"/></svg>