<svg xmlns="http://www.w3.org/2000/svg" width="22" height="22"><defs><linearGradient id="a" x1="7.937" x2="7.937" y1="15.081" y2="1.852" gradientTransform="translate(0 .015)scale(1.88973)" gradientUnits="userSpaceOnUse"><stop offset="0" style="stop-color:#333;stop-opacity:1"/><stop offset="1" style="stop-color:#424242;stop-opacity:1"/></linearGradient></defs><rect width="22" height="22" rx="6" ry="6" style="fill:url(#a);stroke-width:.499982"/><path d="M.287 5A7 7 0 0 0 0 7v1h22V7c0-.696-.1-1.367-.287-2ZM0 14v1c0 .696.1 1.367.287 2h21.426A7 7 0 0 0 22 15v-1z" style="opacity:.5;fill:#000;stroke-linecap:round;stroke-linejoin:round"/><rect width="16" height="16" x="3" y="3" rx="3" ry="3" style="fill:#f2f2f2;stroke-width:.363623"/><path fill="#232629" d="M9 5v4h1V6h2v3h1V5ZM6.707 9 6 9.707 9.293 13 11 14.707 12.707 13 16 9.707 15.293 9 12 12.293l-1 1-1-1zM5 15v2h12v-2h-1v1H6v-1z"/></svg>