<svg xmlns="http://www.w3.org/2000/svg" id="svg7" width="22" height="22" fill="none"><defs id="defs4"><linearGradient id="j" x1="17.635" x2="17.635" y1="9.846" y2="32.002" gradientTransform="translate(2.453 1.87)scale(.76917)" gradientUnits="userSpaceOnUse"><stop id="stop1" offset="0" stop-color="#fccec0"/><stop id="stop2" offset="1" stop-color="#c98350"/></linearGradient><linearGradient id="a-5" x1="7.937" x2="7.937" y1="15.081" y2="1.852" gradientTransform="translate(0 .015)scale(1.8897)" gradientUnits="userSpaceOnUse"><stop id="stop3" offset="0" stop-color="#333"/><stop id="stop4" offset="1" stop-color="#424242"/></linearGradient><style id="current-color-scheme" type="text/css">.ColorScheme-Highlight{color:#3daee9}</style></defs><rect id="rect4" width="22" height="22" x="0" y="0" fill="url(#a-5)" stroke-width=".5" rx="6" ry="6"/><g id="g7" transform="translate(-1.72 -1.683)scale(.7805)"><path id="path5" fill="#fff" stroke-width=".86" d="M19.461 10.73a4.73 4.73 0 1 1-9.461 0 4.73 4.73 0 0 1 9.46 0z" class="ColorScheme-Highlight" opacity=".35"/><path id="path6" fill="#fff" stroke-width=".829" d="M18.461 10.73a3.73 3.73 0 1 1-7.461 0 3.73 3.73 0 0 1 7.46 0z" class="ColorScheme-Highlight"/><path id="path7" fill="url(#j)" stroke-width=".769" d="M15.302 26.257c1.904.211 4.595.226 4.97.227l.089.001c1.654.027 3.085-1.074 3.297-2.72l.532-3.662c.456-2.735-1.596-3.418-2.28-2.05 0-1.596-1.823-2.508-2.734-1.14 0-1.368-1.966-2.28-2.877-.912v-5.014c0-1.823-2.693-2.279-2.693 0v9.729s-.384-1.154-1.153-1.923c-2.507-2.507-3.76-.057-3.76-.057 1.823 1.367 3.203 7.142 6.609 7.52z" style="fill:url(#j)" transform="translate(-.176 .014)"/></g></svg>