<svg xmlns="http://www.w3.org/2000/svg" xmlns:xlink="http://www.w3.org/1999/xlink" viewBox="0 0 22 22"><defs><linearGradient id="d" x1="12" x2="12" y1="48" y2="10" gradientTransform="matrix(.44444 0 0 .44532 -3.222 -2.376)" gradientUnits="userSpaceOnUse"><stop offset="0" stop-color="#eef1f2"/><stop offset="1" stop-color="#f9fafb"/></linearGradient><linearGradient id="c" x1="7.937" x2="7.937" y1="15.081" y2="1.852" gradientTransform="translate(0 .015)scale(1.8897)" gradientUnits="userSpaceOnUse"><stop offset="0" stop-color="#888"/><stop offset="1" stop-color="#aaa"/></linearGradient></defs><linearGradient id="a"><stop offset="0" stop-color="#7f8c8d"/><stop offset="1" stop-color="#bdc3c7"/></linearGradient><linearGradient id="b"><stop offset="0" stop-color="#31363b"/><stop offset="1" stop-color="#232629"/></linearGradient><linearGradient xlink:href="#a" id="j" x1="26" x2="27" y1="10" y2="5" gradientUnits="userSpaceOnUse"/><radialGradient id="h" cx="23" cy="13" r="6.324" gradientTransform="matrix(1 0 0 .31624 -1 8.889)" gradientUnits="userSpaceOnUse"><stop offset="0" stop-color="#4d4d4d"/><stop offset="1" stop-color="#31363b"/></radialGradient><linearGradient xlink:href="#b" id="i" x1="15" x2="24" y1="10" y2="19" gradientUnits="userSpaceOnUse"/><linearGradient xlink:href="#b" id="e" x1="9" x2="23" y1="21" y2="21" gradientUnits="userSpaceOnUse"/><linearGradient id="g" x1="9" x2="11" y1="13" y2="15" gradientUnits="userSpaceOnUse"><stop offset="0" stop-color="#fcfcfc"/><stop offset="1" stop-color="#eff0f1"/></linearGradient><linearGradient xlink:href="#a" id="f" x1="13" x2="7" y1="17" y2="11" gradientUnits="userSpaceOnUse"/><rect width="22" height="22" fill="url(#a)" rx="6" ry="6" style="fill:url(#c)"/><path d="M7.667 20a1.33 1.33 0 0 0-1.334 1.333V22h9.334v-.667A1.33 1.33 0 0 0 14.333 20Z" opacity=".5" style="stroke-width:.666667"/><path fill="url(#b)" d="M7 2C4.791 2 3 3.795 3 6.008v4.06c.565.506.888 1.27.889 2.03 0 .76-.324 1.524-.889 2.03v2.436L5.4 19h11.2l2.4-2.436v-2.436c-.565-.506-.888-1.27-.889-2.03 0-.76.324-1.524.889-2.03v-4.06A4.004 4.004 0 0 0 15 2Z" style="fill:url(#d);stroke-width:.805976"/><rect width="4" height=".667" x="7.667" y="20.667" fill="#f6b44d" fill-rule="evenodd" rx=".333" ry=".333" style="stroke-width:.666667;paint-order:stroke fill markers"/><rect width="2" height=".667" x="12.333" y="20.667" fill="#f6b44d" fill-rule="evenodd" rx=".333" ry=".333" style="stroke-width:.666667;paint-order:stroke fill markers"/><g transform="translate(.91 -2.91)scale(.72727)"><path fill="url(#e)" d="M9 19a7 7 0 0 0 14 0h-2a5 5 0 1 1-10 0v-3H9Z" style="fill:url(#e)"/><circle cx="10" cy="14" r="3" fill="url(#f)" style="fill:url(#f)"/><circle cx="10" cy="14" r="2" fill="url(#g)" style="fill:url(#g)"/><path fill="url(#h)" d="M15.676 11A7 7 0 0 0 22 15a7 7 0 0 0 6.324-4h-1.129A6 6 0 0 1 22 14a6 6 0 0 1-5.195-3Z" style="fill:url(#h)"/><path fill="none" stroke="url(#i)" stroke-width="2" d="M28 10v3l-6 6-6-6v-3" style="stroke:url(#i);stroke-linecap:round;stroke-linejoin:round"/><path fill="none" stroke="url(#j)" d="M18 5.5h-2.5V10m13 0V5.5H26" style="stroke:url(#j);stroke-linecap:round;stroke-linejoin:round"/><path d="M18 7V4h1.5a1.5 1.5 0 1 1 0 3zm8-3v3h-1.5a1.5 1.5 0 1 1 0-3z"/></g></svg>