<svg width="22" height="22" version="1.1" xmlns="http://www.w3.org/2000/svg">
 <style id="current-color-scheme" type="text/css">.ColorScheme-Text {
            color:#363636;
        }
        .ColorScheme-ButtonFocus {
            color:#3daee9;
        }
        .ColorScheme-NegativeText {
            color:#da4453;
        }</style>
 <path class="ColorScheme-Text" d="m11 3a1 1 0 0 0-0.99414 1.0996 4.988 4.988 0 0 0-4.0059 4.9004v4.5l-2 2v0.5h14v-0.5l-2-2v-4.5a4.987 4.987 0 0 0-4.0059-4.9004 1 1 0 0 0-0.99414-1.0996zm0 2a4 4 0 0 1 4 4v4.9219l1 1.0781h-10l1-1.0781v-4.9219a4 4 0 0 1 4-4zm-2 12a2 2 0 0 0 2 2 2 2 0 0 0 2-2h-3.7305z" fill="currentColor"/>
</svg>
