<svg xmlns="http://www.w3.org/2000/svg" width="22" height="22"><defs><linearGradient id="a" x1="7.937" x2="7.937" y1="15.081" y2="1.852" gradientTransform="translate(0 .015)scale(1.88973)" gradientUnits="userSpaceOnUse"><stop offset="0" style="stop-color:#8e8d92;stop-opacity:1"/><stop offset="1" style="stop-color:#b3b2b6;stop-opacity:1"/></linearGradient></defs><linearGradient id="c" x1="407.571" x2="407.571" y1="535.798" y2="532.798" gradientUnits="userSpaceOnUse"><stop offset="0" stop-color="#eff0f1"/><stop offset="1" stop-color="#fcfcfc"/></linearGradient><linearGradient id="b" x1="406.571" x2="406.571" y1="531.798" y2="523.798" gradientUnits="userSpaceOnUse"><stop offset="0" stop-color="#eff0f1"/><stop offset="1" stop-color="#fcfcfc"/></linearGradient><rect width="22" height="22" rx="6" ry="6" style="fill:url(#a);stroke-width:.499982"/><g fill-rule="evenodd" style="fill:#fff"><path fill="url(#b)" d="M400.571 523.798a1 1 0 0 0-1 1h2a1 1 0 0 0-1-1m0 2a6 6 0 0 0-6 6h12a6 6 0 0 0-6-6" style="fill:#fff" transform="translate(-389.571 -518.798)"/><path fill="url(#c)" d="M394.571 532.798a1 1 0 0 0-1 1v2h14v-2a1 1 0 0 0-1-1z" style="fill:#fff" transform="translate(-389.571 -518.798)"/></g></svg>