<svg xmlns="http://www.w3.org/2000/svg" width="22" height="22"><defs><linearGradient id="a" x1="14.511" x2="14.511" y1="29" y2="3" gradientUnits="userSpaceOnUse"><stop offset="0" stop-color="#ef4728"/><stop offset="1" stop-color="#f37760"/></linearGradient></defs><rect width="22" height="22" fill="url(#a)" rx="6" ry="6"/><g fill="#fff"><path d="M6.545 6.546H11l1.91-3.819c.771 0 1.911-.005 1.59.637l-1.59 3.181h3.182l-.637 1.91H5.907"/><path d="M12.91 9.726c0 1.53.043 3.16 1.271 4.455-1.631-1.456-1.909-1.91-1.909-5.09H5.91C5.004 11.682 4 13.545 4 16.725c0 1.273.636 2.547 1.91 2.547h7c-.296-1.676-.486-2.761-.638-4.455.605 1.71.872 2.712 1.91 4.454h1.909c.973 0 1.925-1.08 1.909-2.546-.007-.625-.064-1.293-1.49-2.605-1.04-.955-1.693-2.045-1.693-3.121 0-.804.103-1.343.319-1.91h-1.273c-.475 0-.954.144-.954.636" opacity=".75"/></g></svg>