<svg xmlns="http://www.w3.org/2000/svg" viewBox="0 0 22 22"><defs><linearGradient id="a" x1="7.937" x2="7.937" y1="15.081" y2="1.852" gradientTransform="translate(0 .015)scale(1.88973)" gradientUnits="userSpaceOnUse"><stop offset="0" style="stop-color:#8e8d92;stop-opacity:1"/><stop offset="1" style="stop-color:#b3b2b6;stop-opacity:1"/></linearGradient></defs><rect width="22" height="22" rx="6" ry="6" style="fill:url(#a);stroke-width:.499982"/><path d="M16 7a9 9 0 0 0-9 9 9 9 0 0 0 9 9 9 9 0 0 0 9-9 9 9 0 0 0-9-9m0 1a8 8 0 0 1 8 8 8 8 0 0 1-8 8 8 8 0 0 1-8-8 8 8 0 0 1 8-8" style="fill:#fff;fill-rule:evenodd;stroke-width:1.2;stroke-linecap:round;stroke-linejoin:round;paint-order:stroke fill markers" transform="translate(-3.222 -3.222)scale(.88889)"/><path d="M16 7a9 9 0 0 0-9 9 9 9 0 0 0 9 9v-5a4 4 0 0 1-4-4 4 4 0 0 1 4-4z" style="fill:#fff;fill-rule:evenodd;stroke-width:1.2;stroke-linecap:round;stroke-linejoin:round;paint-order:stroke fill markers" transform="translate(-3.222 -3.222)scale(.88889)"/><path d="M16 12v8a4 4 0 0 0 4-4 4 4 0 0 0-4-4" style="fill:#fff;fill-rule:evenodd;stroke-width:1.14286;stroke-linecap:round;stroke-linejoin:round;paint-order:stroke fill markers" transform="translate(-3.222 -3.222)scale(.88889)"/></svg>