<svg xmlns="http://www.w3.org/2000/svg" width="22" height="22" viewBox="0 0 22 22"><defs><linearGradient id="a" x1="7.937" x2="7.937" y1="15.081" y2="1.852" gradientTransform="translate(-1.999 -1.984)scale(1.8897)" gradientUnits="userSpaceOnUse"><stop offset="0" stop-color="#3377f4"/><stop offset="1" stop-color="#5194f5"/></linearGradient></defs><rect width="22" height="22" fill="url(#a)" rx="6" ry="6" style="fill:url(#a)"/><g fill="#fff"><path d="M15.3 12.447a4.36 4.36 0 0 1-1.672 2.739l1.815 2.27a7.27 7.27 0 0 0 2.777-5.009z" opacity=".25"/><path d="M11 3.72c-4.412 0-8 3.588-8 8v.002a8 8 0 0 0 3.307 6.454.545.545 0 0 0 .761-.122.545.545 0 0 0-.122-.761 6.9 6.9 0 0 1-2.855-5.574A6.9 6.9 0 0 1 11 4.81a6.9 6.9 0 0 1 6.91 6.91 6.9 6.9 0 0 1-2.856 5.572.545.545 0 0 0-.122.761.545.545 0 0 0 .761.122A8 8 0 0 0 19 11.722v-.002c0-4.411-3.588-8-8-8zm0 2.364a.545.545 0 0 0-.545.545v3.746a1.455 1.455 0 0 0-.91 1.345A1.455 1.455 0 0 0 11 13.175a1.455 1.455 0 0 0 1.454-1.455 1.455 1.455 0 0 0-.909-1.348V6.63A.545.545 0 0 0 11 6.084"/></g></svg>