<svg xmlns="http://www.w3.org/2000/svg" width="22" height="22" viewBox="0 0 22 22"><defs><linearGradient id="a" x1="445.28" x2="445.28" y1="179.28" y2="200.07" gradientTransform="matrix(.27479 0 0 .26936 -114.26 -42.097)" gradientUnits="userSpaceOnUse"><stop offset="0" stop-color="#60c0f0"/><stop offset="1" stop-color="#83d4fb"/></linearGradient></defs><g transform="translate(-5.2 -5.4)scale(1.9133)"><path fill="#2c96d3" d="M4.053 4.328h1.901c.53 0 .552.02 1.088.444.491.371.668.303 1.315.303h4.523a.81.81 0 0 1 .813.813v4.863a.81.81 0 0 1-.813.813H4.053a.81.81 0 0 1-.812-.813v-5.61a.81.81 0 0 1 .812-.813"/><rect width="10.451" height="7.092" x="3.241" y="5.822" fill="url(#a)" rx=".812" ry=".796"/><path fill="#fff" d="M4.053 5.822a.803.803 0 0 0-.812.796v.187c0-.441.362-.796.812-.796h8.827c.45 0 .812.355.812.796v-.187a.803.803 0 0 0-.812-.796z" opacity=".08"/><path d="M3.24 11.931v.187c0 .44.363.796.813.796h8.827c.45 0 .812-.355.812-.796v-.187a.803.803 0 0 1-.812.796H4.053a.803.803 0 0 1-.812-.796z" opacity=".15"/><path d="M4.053 5.635a.803.803 0 0 0-.812.796v.187c0-.441.362-.796.812-.796h8.827c.45 0 .812.355.812.796v-.187a.803.803 0 0 0-.812-.796z" opacity=".05"/></g></svg>