<svg width="22" height="22" version="1.1" viewBox="0 0 22 22" xmlns="http://www.w3.org/2000/svg">
 <defs>
  <style id="current-color-scheme" type="text/css">.ColorScheme-Text { color:#363636; }</style>
 </defs>
 <path class="ColorScheme-Text" d="m5.0005 3.9988c-1.108 0-2.0007 0.89273-2.0007 2.0007v10.001c0 1.108 0.89273 2.0007 2.0007 2.0007h11.999c1.108 0 2.0007-0.89273 2.0007-2.0007v-10.001c0-1.108-0.89273-2.0007-2.0007-2.0007zm0 1.0017h11.999c0.554 0 1.0017 0.44502 1.0017 0.99902v10.001c0 0.554-0.44771 0.99902-1.0017 0.99902h-11.999c-0.554 0-1.0017-0.44502-1.0017-0.99902v-10.001c0-0.554 0.44771-0.99902 1.0017-0.99902zm2.1699 3.1716-0.7063 0.7063 2.1216 2.1216-2.1216 2.1216 0.70898 0.7063 2.1189-2.1216 0.70898-0.7063-0.70898-0.7063zm2.8306 4.8286v0.99902h3.9988v-0.99902z" fill="currentColor"/>
</svg>
