<svg xmlns="http://www.w3.org/2000/svg" xmlns:xlink="http://www.w3.org/1999/xlink" width="22" height="22"><defs><linearGradient id="e"><stop offset="0" style="stop-color:#cd1f03;stop-opacity:1"/><stop offset="1" style="stop-color:#d94460;stop-opacity:1"/></linearGradient><linearGradient xlink:href="#e" id="f" x1="394.346" x2="383.146" y1="545.128" y2="533.928" gradientTransform="translate(-553.114 -773.662)scale(1.44197)" gradientUnits="userSpaceOnUse"/></defs><g transform="translate(0 6)"><rect width="22" height="22" y="-6" rx="6.993" ry="6.993" style="fill:#f5d66c;fill-opacity:1;stroke-linecap:round;stroke-linejoin:round"/><path d="m10.474-1.736-.005.46c-1.271.095-2.485.393-3.581 1.012-1.867.996-3.133 3.89-3.203 5.903.004.184-.04.39.035.56.178.228.602.297.79.042.483-.559 1.233-.95 2.018-.91.734-.037 1.412.36 1.84.894.155.201.483.255.686.087.243-.228.458-.492.757-.666.214-.134.45-.228.7-.273.044 1.753 0 2.526.007 4.28.016.289-.059.576-.263.799-.361.458-1.072.627-1.618.362a1.26 1.26 0 0 1-.74-1.06c-.021-.22-.176-.445-.432-.46-.286-.036-.54.218-.5.481-.017.96.8 1.83 1.795 2.01 1.07.225 2.244-.403 2.582-1.372.192-.521.089-1.082.121-1.623.01-1.468-.021-1.955.024-3.422.587.113 1.062.503 1.427.926.207.186.57.144.724-.082.345-.423.839-.76 1.407-.851.734-.14 1.483.13 2.037.573.217.136.378.361.623.456.315.093.697-.177.616-.497.01-1.87-.994-4.681-2.603-5.782-1.115-.774-2.474-1.213-3.854-1.346-.128-.022-.259-.014-.372-.045l-.009-.456c.005-.696-.989-.686-1.01 0m4.905 2.97c.624.477 1.466 2.12 1.672 3.238-.616-.362-1.123-.36-1.86-.293-.734.049-1.427.642-1.953 1.116-.633-.573-1.512-1.182-2.404-1.12-.778.02-1.516.357-2.075.85-.849-.785-2.182-1.07-3.317-.703-.248.075-.507.11-.53-.103C5.222 2.75 6.966.988 7.634.606c.699-.36 2.184-.92 3.417-.874 1.611-.085 3.622.853 4.328 1.502" style="color:#000;display:inline;overflow:visible;visibility:visible;fill:url(#f);fill-opacity:1;fill-rule:nonzero;stroke:none;stroke-width:1;marker:none"/></g></svg>