<svg xmlns="http://www.w3.org/2000/svg" width="22" height="22" viewBox="0 0 22 22"><defs><linearGradient id="a" x1="7.937" x2="7.937" y1="15.081" y2="1.852" gradientTransform="translate(-1.571 -1.56)scale(1.4847)" gradientUnits="userSpaceOnUse"><stop offset="0" stop-color="#3377f4"/><stop offset="1" stop-color="#5194f5"/></linearGradient></defs><rect width="22" height="22" fill="url(#a)" rx="6" ry="6" style="fill:url(#a);stroke-width:2.96976"/><path fill="#fff" d="M3.27 6c-.443 0-.728.397-.542.799l4.412 9.545.397.857c.184.4.496.793.933.799.437-.006.75-.4.933-.799l2.237-4.84 1.77-3.827c.123-.268.408-.534.706-.534h1.875l.096.012q.012.003.023.012a.36.36 0 0 1 .225.51l-1.4 3.033-.175.38-.7 1.515-.175.38-.09.195-.088.184c-.029.081-.064.18-.174.178-.108 0-.146-.105-.175-.175l-.7-1.517-.175-.379-.088-.187-1.067 2.31 1.271 2.753c.187.4.496.79.934.796.437-.006.752-.397.933-.799l.396-.857 4.41-9.542c.186-.405-.097-.802-.54-.802h-5.599c-.446 0-.875.397-1.061.799l-2.567 5.558-.16.35-.175.38-.175.378-.175.38-.175.379c-.03.07-.064.175-.175.175-.105 0-.143-.097-.175-.175l-.084-.187-.088-.193-.175-.379-.178-.379-.7-1.516-1.4-3.033C5.543 8.266 5.733 8 6.03 8h1.86c.297 0 .583.266.708.534l1.08 2.339 1.07-2.31L9.937 6.8C9.75 6.397 9.319 6 8.875 6H6.87Z" style="stroke-width:2.91616;paint-order:stroke markers fill"/></svg>