<svg xmlns="http://www.w3.org/2000/svg" width="22" height="22"><defs><linearGradient id="a" x1="14" x2="14" y1="29" y2="3" gradientTransform="matrix(.35 0 0 .70968 -145.81 -355.53)" gradientUnits="userSpaceOnUse"><stop offset="0" stop-color="#73ba25"/><stop offset="1" stop-color="#81c13b" stop-opacity=".85"/></linearGradient></defs><rect width="22" height="22" fill="url(#a)" rx="6" ry="6"/><path fill="#fff" d="M11 4a7 7 0 1 0 0 14 7 7 0 0 0 0-14m0 1.167c.202 0 .387.016.583.036.047.005.1-.006.146 0 .062.008.122.027.182.037.168.026.312.069.475.109.299.074.595.174.875.291.153.066.29.142.438.22v.036c.032.015.05.078.108.11.021.011.018.025.037.036.033.018.08.04.073.073-.01.047-.077.036-.11.072.005.068-.055.065-.072.11.01.03.067.037.072.072-.006.038-.086.035-.072.074.063.049.122.012.182 0 .13-.016.247-.007.328-.073-.011-.062.116-.053.11-.109.033.023.075.047.109.072-.013.012-.024.03-.037.037q-.038.016-.073.037l-.11.072c-.026.019-.081.11-.108.11-.035 0-.085-.044-.11-.037-.035.011-.033.059-.073.073-.077.028-.229-.042-.254.074.032.066.16.035.218.072a.35.35 0 0 1 .11.146.7.7 0 0 1 0 .219c-.037.093-.149.074-.256.072h-.074c-.18-.011-.355-.093-.437.037.006.099.023.169 0 .255-.015.063-.112.128-.109.182 0 .028.066.07.073.11.004.02-.01.052 0 .073.03.057.093-.012.145 0s.11.088.11.146a.3.3 0 0 1-.036.146c-.051.077-.146.066-.22.108-.06.035-.072.123-.108.183-.038.066-.089.09-.073.182a.43.43 0 0 1-.22.219c-.031.014-.079.016-.108.037-.023.016-.041.071-.074.108-.04.047-.086.075-.108.11-.018.027-.02.072-.037.11-.026.049-.077.06-.109.108-.015.024-.021.08-.037.11-.038.068-.08.124-.073.183.006.056.07.058.073.109.003.028-.038.042-.036.073 0 .044.032.074.036.109.008.086-.056.123-.073.183-.008.028.007.049 0 .072-.014.043-.072.095-.073.146 0 .036.07.058.073.11.003.033-.043.077-.037.11.013.062.134.132.183.181.067.067.153.112.182.182.025.06.028.175.074.22.032.032.102.037.146.072.04.031.065.038.108.073.071.056.179.19.292.182.06-.011.116-.06.183-.073.069-.012.148-.042.218-.035.054.012.126.038.182.035.058-.012.117-.007.183-.035.116-.051.306-.134.474-.11.128.018.128.161.218.218.103.012.174-.02.256 0 .061.016.14.097.145.146.006.05-.066.115-.073.146-.015.068.012.14 0 .182-.01.035-.037.076-.035.11 0 .03.04.105.072.146.039.049.1.093.146.145.085.098.123.199.182.328.015.033-.014.068 0 .11-.026.196-.091.33-.22.547-.059.07-.146.13-.145.218-.004.21.119.344.11.547-.021.273.02.292 0 .438.093.047.026.195 0 .292-.04.115-.087.14-.109.219.062.027.15.015.218 0l-.11.109a6 6 0 0 1-.874.729 5.7 5.7 0 0 1-2.005.875 6 6 0 0 1-1.24.11q-.332 0-.657-.037c-.17-.02-.343-.04-.51-.073-.33-.068-.64-.207-.948-.328-.01-.02-.039-.05-.035-.074.06-.025.174.087.218 0 .022-.04-.03-.14 0-.182.021-.028.139-.028.182-.036.062-.012.147-.02.182-.036.039-.025.08-.11.074-.183-.004-.034-.047-.042-.074-.073-.022-.025.015-.049 0-.073-.028-.04-.097-.049-.108-.109.084-.016.206.07.326.037.058-.017.157-.129.183-.182.009-.017-.009-.053 0-.074.01-.02.033-.06.037-.072.008-.032-.007-.016 0-.037.02-.059.074-.103.11-.146.026-.033.084-.075.109-.109.028-.036.017-.04.036-.073.018-.105-.062-.199-.036-.292.028-.105.19-.17.292-.218.035-.016.079-.027.108-.037.07-.024.154-.05.22-.073.109-.04.128-.119.181-.22.026-.046.07-.11.074-.145.005-.03-.006-.036 0-.072.006-.034-.01-.07 0-.11.011-.05.036-.163.036-.218 0-.047-.035-.068-.036-.11-.008-.152.053-.136.108-.22.028-.04.054-.116.074-.145.094-.14.267-.188.255-.4-.004-.07-.058-.234-.11-.256-.029-.012-.066-.02-.109-.036-.138-.051-.257-.208-.4-.22h-.074c-.056 0-.119-.027-.182-.035-.04-.012-.122.011-.146 0-.036-.018-.044-.09-.073-.11-.023-.016-.074-.023-.109-.036-.058-.021-.079-.069-.145-.074-.021 0-.05.012-.074 0-.036-.011-.076-.015-.11-.035-.042-.027-.09-.037-.108-.073.038-.126-.084-.146-.11-.22-.011-.033.012-.115 0-.145-.015-.044-.061-.073-.11-.109a.43.43 0 0 0-.255-.11c-.054-.011-.118.012-.182 0a.4.4 0 0 1-.22-.11c-.048-.056-.065-.118-.108-.145-.04-.026-.081-.047-.11-.073-.012-.012-.024-.01-.036-.035-.02-.045-.063-.059-.037-.111-.047-.024-.022.045-.072.037-.046-.064-.08-.128-.182-.11-.047.012-.091.109-.146.11-.047 0-.086-.1-.146-.11-.046-.011-.114.042-.146.037-.05-.012-.064-.042-.11-.073-.033-.023-.09-.074-.109-.073-.058 0-.101.116-.182.073-.04-.05.083-.063.036-.11-.035-.033-.044.02-.072.037-.033.02-.074.023-.11.037-.08.03-.156.039-.22.072a.23.23 0 0 0-.108.11c-.026.049-.069.143-.11.146-.048 0-.065-.054-.109-.074-.134-.058-.217.035-.328.038-.103 0-.26-.159-.255-.257.003-.058.03-.145.037-.218.006-.058.071-.128.072-.182.002-.072-.135-.102-.182-.11-.11-.02-.24.05-.365 0-.023-.04.023-.07.037-.108.009-.021-.008-.05 0-.074.013-.037.091-.07.109-.11.013-.03-.012-.07 0-.108.015-.042.07-.08.073-.11.005-.04-.042-.084-.073-.11-.097.012-.163.009-.218.037-.126.058-.092.216-.22.255a1 1 0 0 1-.145.037c-.021.011-.05-.003-.073 0 .003-.012-.002-.024 0-.037.005-.027.03-.046.037-.073a6 6 0 0 1 .365-1.093h.035c.045.011.072.07.11.073.107.012.13-.099.219-.146.09.012.136-.011.219 0 .056.012.138.068.182.073.037 0 .037-.041.072-.037.035.012.104.067.11.109.006.052-.051.125-.036.183.055.056.177.076.254.109.051-.044.008-.122 0-.182 0-.027.004-.084 0-.109-.005-.042-.035-.073-.035-.11 0-.166.142-.226.254-.291.048-.028.104-.089.146-.11.06-.029.097-.008.146-.036.089-.05.15-.126.22-.183.031-.076-.004-.18 0-.255.031-.02.074 0 .108 0 .054-.011.08-.079.11-.11.017-.017.051-.018.073-.035.053-.042.062-.091.109-.11a.4.4 0 0 1 .073-.036c.035-.012.09-.017.146-.038.035-.011.132-.02.146-.035.017-.018-.005-.084 0-.11.028-.131.21-.138.328-.182.081-.03.163-.125.255-.109-.017.063-.089.07-.073.146.02.105.146-.022.183-.037.07-.03.198-.074.292-.109.081-.029.221-.052.145-.146-.064-.011-.09.05-.145.073-.039.011-.041-.033-.074-.037-.031 0-.04.043-.073.037-.032-.012-.068-.07-.073-.11-.013-.098.07-.11.11-.182-.027-.089-.145-.038-.22-.074a.13.13 0 0 1 .11-.108c.05-.012.19.01.22.036.017.015-.027.05 0 .074.03.026.07.011.108 0 .014-.067-.084-.03-.072-.074.079-.051.23-.023.328-.036a.8.8 0 0 0 .182-.073c.046-.027.06-.081.11-.037.013.048-.01.084-.037.11-.09.08-.185.163-.255.254.043.042.11.03.181.038.029.011.081-.006.11 0 .035.011.082-.012.11 0 .049.011.06.108.108.108.08 0 .047-.093 0-.146.014-.054.058-.106.038-.146-.037-.072-.175.023-.183-.072-.004-.058.052-.065.073-.11-.01-.111.084-.116.074-.218-.006-.042-.045-.033-.074-.073-.015-.021-.019-.093-.036-.109-.06-.051-.175-.011-.183-.11-.003-.058.008-.12 0-.182-.009-.059-.059-.243-.109-.255-.065-.014-.105.109-.183.146a.5.5 0 0 1-.182.036c-.028-.012-.07-.017-.072-.073-.005-.05.054-.07.072-.109.005-.01-.002-.023 0-.037.085-.023.17-.053.255-.072q.073-.02.146-.037c.035-.007.075.006.11 0A6 6 0 0 1 11 5.166m-2.37.548c-.037.212-.236.297-.474.291-.053.052-.007.147-.035.219-.026.06-.124.114-.184.11-.043 0-.11-.07-.11-.11 0-.05.081-.052.038-.109.001-.012.023-.026.035-.037.025-.014.05-.022.074-.036.21-.131.428-.226.656-.328m4.885.218c-.02.012-.017.026-.036.037-.044.027-.076.06-.11.073-.046.017-.101.029-.108.073-.006.035.037.039.035.072-.016.044-.026.058-.035.11.058.097.18-.022.254-.037.033-.012.056-.008.074-.035.02-.033.02-.066.036-.111.016-.049.08-.065.073-.109-.004-.043-.11-.079-.183-.073m-6.379.73c.055.043.133.14.035.182a.6.6 0 0 1-.18.035c-.013 0-.028-.026-.038-.035.06-.058.12-.127.183-.183m.218.22c.028 0 .04.07.074.072.031 0 .053-.041.072-.036.049.012.083.11.036.145-.038.012-.044-.04-.072-.036-.08.014-.124.187-.183.182-.056-.011-.094-.14-.035-.182 0-.035-.004-.037 0-.073.016-.021.061-.076.108-.073m-.292.037c.017 0 .03-.012.037 0-.009.061-.025.08-.073.11-.082.05-.155.111-.183.218-.008.031-.105.116-.146.11-.092-.02.053-.193.074-.22.023-.03.047-.039.073-.072s.047-.091.073-.11a.3.3 0 0 1 .146-.036m7.91.182c.094-.012.14.09.184.146a.7.7 0 0 0 .182.145c.033.018.072.058.108.074.076.034.216.143.22.218 0 .037-.042.075-.037.11.058.011.108-.089.109-.146.107.152.2.313.292.474.044.077.105.14.146.219-.052.015-.065.023-.073.072-.011.065.025.172-.073.183-.061.012-.133-.053-.218-.073-.035-.012-.082.011-.11 0-.064-.021-.054-.107-.109-.146a.6.6 0 0 0-.183-.073c-.031 0-.04.011-.072 0-.04-.012-.113.016-.146 0a.35.35 0 0 1-.11-.109c-.013-.043.108-.073.11-.11.002-.028-.031-.066-.037-.11-.004-.025.005-.054 0-.072-.008-.03-.061-.035-.109-.037h-.11c-.05 0-.155-.005-.219 0-.038 0-.072-.003-.108 0-.102.012-.176-.012-.256 0a.7.7 0 0 0-.22.074l-.072.036a1 1 0 0 1-.073.037c-.031.015-.077.063-.108.072-.047.012-.1-.011-.184 0-.058 0-.143-.038-.145-.11 0-.108.19-.052.291-.072.039-.011.063-.045.11-.073.023-.012.016-.022.037-.036.035-.025.103-.082.109-.11.004-.026-.004-.053 0-.072.004-.025.042-.041.073-.074.05-.049.085-.114.146-.146.04-.02.09-.038.108-.072.005-.037 0-.038 0-.073a.15.15 0 0 1 .074-.037c.063-.014.109.004.182 0 .032 0 .076.016.11 0 .028-.018.044-.058.073-.073a.4.4 0 0 1 .109-.035zm.657.693h-.145c-.052 0-.117-.027-.146 0 .043.07.121.092.218.11a.23.23 0 0 0 .073-.11m-7.984-.657h.11c.029 0 .06-.012.072 0-.019.077-.195.065-.255.037.003-.029.035-.032.073-.037m-.256.146c-.05.037-.101.085-.182.11-.044.013-.101.012-.11-.037-.009-.06.07-.03.11-.036.052-.012.123-.035.182-.037m7.584 0c-.039.012-.058.098 0 .11.027-.017.044-.059.037-.11-.015-.015-.026-.01-.037 0zm-.073.183c0 .065.012.125 0 .182.038.072.128.011.146-.036.022-.122-.017-.161-.073-.146-.019.011-.053-.015-.073 0M5.24 10.197c.067.06.105.144.183.184a.6.6 0 0 0 .109.036c.031.011.044-.01.073 0 .062.02.133.05.182.073.075.033.155.145.22.182.003.037-.012.082 0 .109.03.04.059.081.108.11.06.032.091.083.146.109.02.012.043-.012.073 0 .077.023.117.128.182.11.044-.013.03-.068.038-.11.029-.031.063-.073.108-.073.072 0 .083.112.11.183.015.04.063.066.073.108a1.2 1.2 0 0 1 0 .33c-.018.053-.101.05-.146.108-.02.028-.02.09-.037.11-.028.034-.051.04-.072.073l-.038.072c-.035.075-.101.129-.072.22.012.034.074.065.074.108 0 .051-.102.09-.11.146-.006.04.023.092.036.146.01.04.085.082.11.11.04.046.071.124.108.183.074.113.111.253.184.363.038.058.12.086.145.146.012.03-.011.082 0 .11.042.093.234.209.328.254.045.024.105.014.146.038a.8.8 0 0 1 .22.182c.026.049.022.177.034.255.019.103-.003.181 0 .292.005.06.038.085.038.146v.108c-.002.072.005.146 0 .22a1 1 0 0 0 0 .11c.003.034.035.039.036.071.002.035-.04.083-.036.11.008.074.058.114.073.182.012.054.043.191.035.256-.003.033-.03.07-.035.11-.003.03.004.044 0 .072-.003.026.006.051 0 .073q-.056-.035-.11-.073a6 6 0 0 1-.875-.73l-.11-.108a6 6 0 0 1-.582-.73c-.017-.022-.021-.05-.037-.073a6 6 0 0 1-.51-.948l-.037-.072a6 6 0 0 1-.328-1.131A6 6 0 0 1 5.166 11c0-.278.036-.535.074-.803zm2.261.621c.056-.026.046.064 0 .072-.043.012-.042-.051 0-.072" style="stroke-width:1.16667"/><path d="M22 17v3.326A6 6 0 0 1 20.326 22H17v-5zm-1 1h-1v1h-1v-1h-1v2h1v1h1v-1h1z" style="fill:#fff"/><rect width="4" height="22" x="9" rx="0" ry="0" style="opacity:.15;fill:#fff;stroke-linecap:round;stroke-linejoin:round"/></svg>