<svg xmlns="http://www.w3.org/2000/svg" xmlns:xlink="http://www.w3.org/1999/xlink" width="22" height="22"><defs><linearGradient xlink:href="#a" id="b" x1="14" x2="14" y1="29" y2="3" gradientUnits="userSpaceOnUse"/></defs><linearGradient id="c" x2="0" y1="30" y2="8" gradientUnits="userSpaceOnUse"><stop offset="0" stop-color="#cea476"/><stop offset="1" stop-color="#dab58b"/></linearGradient><linearGradient id="a" x1="300.483" x2="300.483" y1="543.251" y2="512.251" gradientTransform="matrix(.35 0 0 .70968 -145.807 -355.533)" gradientUnits="userSpaceOnUse"><stop offset="0" stop-color="#73ba25"/><stop offset="1" stop-color="#81c13b" stop-opacity=".85"/></linearGradient><rect width="22" height="22" rx="6" ry="6" style="fill:url(#b);stroke-width:.499982;fill-opacity:1"/><path d="M22 17v3.326A6 6 0 0 1 20.326 22H17v-5zm-1 1h-1v1h-1v-1h-1v2h1v1h1v-1h1z" style="fill:#fff"/><path fill="url(#c)" d="M9.833 4v1.286a5.8 5.8 0 0 0-2.046.851l-.911-.91-1.65 1.649.911.911a5.8 5.8 0 0 0-.848 2.046H4v2.334h1.286a5.8 5.8 0 0 0 .851 2.046l-.91.911 1.649 1.65.911-.911a5.8 5.8 0 0 0 2.046.848V18h2.334v-1.286a5.8 5.8 0 0 0 2.046-.851l.911.91 1.65-1.649-.911-.911a5.8 5.8 0 0 0 .848-2.046H18V9.833h-1.286a5.8 5.8 0 0 0-.851-2.046l.91-.911-1.649-1.65-.911.911a5.8 5.8 0 0 0-2.046-.848V4ZM11 6.333a4.67 4.67 0 0 1 3.348 1.415A4.67 4.67 0 0 1 15.667 11a4.67 4.67 0 0 1-1.415 3.348A4.67 4.67 0 0 1 11 15.667a4.67 4.67 0 0 1-3.348-1.415A4.67 4.67 0 0 1 6.333 11a4.67 4.67 0 0 1 1.415-3.348A4.67 4.67 0 0 1 11 6.333M9.833 8.667v4.666l3.5-2.333Z" style="fill:#fff;stroke-width:1.16666"/><rect width="4" height="22" x="9" rx="0" ry="0" style="opacity:.15;fill:#fff;stroke-linecap:round;stroke-linejoin:round"/></svg>