<svg xmlns="http://www.w3.org/2000/svg" xmlns:xlink="http://www.w3.org/1999/xlink" width="22" height="22"><defs><linearGradient id="b" x1="7.937" x2="7.937" y1="15.081" y2="1.852" gradientTransform="translate(0 .015)scale(1.88973)" gradientUnits="userSpaceOnUse"><stop offset="0" style="stop-color:#8e8d92;stop-opacity:1"/><stop offset="1" style="stop-color:#b3b2b6;stop-opacity:1"/></linearGradient></defs><linearGradient xlink:href="#a" id="c" x1="22" x2="22" y1="30" y2="8" gradientUnits="userSpaceOnUse"/><linearGradient id="a" x2="0" y1="30" y2="8" gradientUnits="userSpaceOnUse"><stop offset="0" stop-color="#cfd2d5"/><stop offset="1" stop-color="#eff0f1"/></linearGradient><rect width="22" height="22" rx="6" ry="6" style="fill:url(#b);stroke-width:.499982"/><path d="M22 17v3.326A6 6 0 0 1 20.326 22H17v-5zm-1 1h-1v1h-1v-1h-1v2h1v1h1v-1h1z" style="fill:#fff"/><path fill="url(#c)" d="M9.833 4v1.286a5.8 5.8 0 0 0-2.046.851l-.911-.91-1.65 1.649.911.911a5.8 5.8 0 0 0-.848 2.046H4v2.334h1.286a5.8 5.8 0 0 0 .851 2.046l-.91.911 1.649 1.65.911-.911a5.8 5.8 0 0 0 2.046.848V18h2.334v-1.286a5.8 5.8 0 0 0 2.046-.851l.911.91 1.65-1.649-.911-.911a5.8 5.8 0 0 0 .848-2.046H18V9.833h-1.286a5.8 5.8 0 0 0-.851-2.046l.91-.911-1.649-1.65-.911.911a5.8 5.8 0 0 0-2.046-.848V4ZM11 6.333a4.67 4.67 0 0 1 3.348 1.415A4.67 4.67 0 0 1 15.667 11a4.67 4.67 0 0 1-1.415 3.348A4.67 4.67 0 0 1 11 15.667a4.67 4.67 0 0 1-3.348-1.415A4.67 4.67 0 0 1 6.333 11a4.67 4.67 0 0 1 1.415-3.348A4.67 4.67 0 0 1 11 6.333M9.833 8.667v4.666l3.5-2.333Z" style="fill:#fff;stroke-width:1.16666"/><rect width="4" height="22" x="9" rx="0" ry="0" style="fill:#fff;stroke-linecap:round;stroke-linejoin:round;opacity:.15"/></svg>