<svg width="64" height="64" xmlns="http://www.w3.org/2000/svg" xmlns:xlink="http://www.w3.org/1999/xlink"><defs><linearGradient id="a"><stop stop-color="#1d1f23" offset="0"/><stop stop-color="#424649" offset="1"/></linearGradient><linearGradient id="k" x2="0" y1="58" y2="36" gradientTransform="translate(292.23 491.8)" gradientUnits="userSpaceOnUse" xlink:href="#a"/><linearGradient id="i" x2="0" y1="58" y2="36" gradientTransform="matrix(-1 0 0 1 355.23 491.8)" gradientUnits="userSpaceOnUse" xlink:href="#a"/><linearGradient id="e" x2="0" y1="16" y2="6" gradientTransform="translate(292.23 491.8)" gradientUnits="userSpaceOnUse"><stop stop-color="#2a2c2f" offset="0"/><stop stop-color="#424649" offset="1"/></linearGradient><linearGradient id="g" x2="0" y1="28" y2="6" gradientTransform="translate(292.23 491.8)" gradientUnits="userSpaceOnUse"><stop stop-color="#197cf1" offset="0"/><stop stop-color="#20bcfa" offset="1"/></linearGradient><linearGradient id="n" x1="49" x2="56" y1="37" y2="44" gradientTransform="translate(292.23 491.8)" gradientUnits="userSpaceOnUse" xlink:href="#b"/><linearGradient id="b"><stop stop-color="#292c2f" offset="0"/><stop stop-opacity="0" offset="1"/></linearGradient><linearGradient id="o" x1="56" x2="49" y1="37" y2="44" gradientTransform="matrix(-1 0 0 1 355.23 491.8)" gradientUnits="userSpaceOnUse" xlink:href="#b"/><linearGradient id="d" x1="58.177" x2="60.816" y1="192.12" y2="192.12" gradientTransform="matrix(16.148 0 0 3.8777 -751.73 -897.5)" gradientUnits="userSpaceOnUse" xlink:href="#c"/><linearGradient id="c"><stop stop-color="#4d4d4d" offset="0"/><stop stop-color="#1a1a1a" offset="1"/></linearGradient><filter id="l" x="-.08" y="-.116" width="1.161" height="1.232" color-interpolation-filters="sRGB"><feGaussianBlur stdDeviation=".435"/></filter><filter id="j" x="-.08" y="-.116" width="1.161" height="1.232" color-interpolation-filters="sRGB"><feGaussianBlur stdDeviation=".435"/></filter><filter id="h" x="-.02" y="-.031" width="1.04" height="1.061" color-interpolation-filters="sRGB"><feGaussianBlur stdDeviation=".395"/></filter><filter id="m" x="-.045" y="-.181" width="1.09" height="1.362" color-interpolation-filters="sRGB"><feGaussianBlur stdDeviation=".174"/></filter><filter id="f" x="-.037" y="-.035" width="1.074" height="1.07" color-interpolation-filters="sRGB"><feGaussianBlur stdDeviation=".757"/></filter></defs><g transform="translate(-291.731 -494.8)"><path d="M323.14 501.8a20.861 20.861 0 0 0-20.908 20.908v1a20.849 20.849 0 0 1 9.379-17.455c.305.202.683.285 1 .47.313.184.665.298.988.466.325-.168.627-.37.961-.52l-.02-.008a20.86 20.86 0 0 1 8.6-1.861h2.184c3.074 0 5.976.679 8.6 1.861l-.02.008c.334.15.636.352.96.52.324-.168.676-.282.99-.465.316-.186.694-.27 1-.471a20.849 20.849 0 0 1 9.378 17.455v-1a20.861 20.861 0 0 0-20.908-20.908z" fill="url(#e)"/><path transform="translate(291.73 494.8)" d="M32.5 3c-13.296 0-24 10.704-24 24v7c0 .554.446 1 1 1h2c.554 0 1-.446 1-1v-9c0-2.754.553-5.373 1.55-7.756a20.934 20.934 0 0 1 5.829-5.79c.305.2.683.284 1 .47.313.184.665.297.988.465.325-.167.627-.37.961-.52l-.02-.008a20.86 20.86 0 0 1 8.6-1.861h2.184c3.074 0 5.976.68 8.6 1.861l-.02.008c.334.15.636.353.96.52.324-.168.676-.281.99-.465.316-.186.693-.27 1-.47a20.934 20.934 0 0 1 5.827 5.79A20.023 20.023 0 0 1 52.5 25v9c0 .554.446 1 1 1h2c.554 0 1-.446 1-1v-7c0-13.296-10.704-24-24-24zm0 2c7.028 0 13.177 3.595 16.742 9.047C45.417 9.729 39.841 7 33.592 7h-2.184c-6.249 0-11.826 2.729-15.65 7.047C19.323 8.595 25.473 5 32.5 5zm-16 28s-3 0-3 2c0 0-2 5-5 5-.554 0-1 .446-1 1v6c0 .554.446 1 1 1 3 0 5 5 5 5 0 2 3 2 3 2h1s3 0 3-2V35c0-2-3-2-3-2h-1zm30 0s-3 0-3 2v18c0 2 3 2 3 2h1s3 0 3-2c0 0 2-5 5-5 .554 0 1-.446 1-1v-6c0-.554-.446-1-1-1-3 0-5-5-5-5 0-2-3-2-3-2h-1z" filter="url(#f)" opacity=".25"/><path d="M324.23 497.8c-13.296 0-24 10.704-24 24v7c0 .554.446 1 1 1h2c.554 0 1-.446 1-1v-9c0-11.08 8.92-20 20-20s20 8.92 20 20v9c0 .554.446 1 1 1h2c.554 0 1-.446 1-1v-7c0-13.296-10.704-24-24-24z" fill="url(#g)"/><path d="M324.23 498.8c-11.08 0-20 8.92-20 20v1c0-11.08 8.92-20 20-20s20 8.92 20 20v-1c0-11.08-8.92-20-20-20zm-24 29v1c0 .554.446 1 1 1h2c.554 0 1-.446 1-1v-1c0 .554-.446 1-1 1h-2c-.554 0-1-.446-1-1zm44 0v1c0 .554.446 1 1 1h2c.554 0 1-.446 1-1v-1c0 .554-.446 1-1 1h-2c-.554 0-1-.446-1-1z" fill="#1a89f3" filter="url(#h)"/><path d="M339.23 527.8s3 0 3 2c0 0 2 5 5 5 .554 0 1 .446 1 1v6c0 .554-.446 1-1 1-3 0-5 5-5 5 0 2-3 2-3 2h-1s-3 0-3-2v-18c0-2 3-2 3-2z" fill="url(#i)"/><path d="M348.23 540.8v1c0 .554-.446 1-1 1-3 0-5 5-5 5 0 2-3 2-3 2h-1s-3 0-3-2v-1c0 2 3 2 3 2h1s3 0 3-2c0 0 2-5 5-5 .554 0 1-.446 1-1z" fill="#1c1e20" filter="url(#j)"/><rect x="301.23" y="529.8" width="2" height="4" rx="0" fill="#8ca5ad"/><path d="M308.23 527.8s-3 0-3 2c0 0-2 5-5 5-.554 0-1 .446-1 1v6c0 .554.446 1 1 1 3 0 5 5 5 5 0 2 3 2 3 2h1s3 0 3-2v-18c0-2-3-2-3-2z" fill="url(#k)"/><path d="M299.23 540.8v1c0 .554.446 1 1 1 3 0 5 5 5 5 0 2 3 2 3 2h1s3 0 3-2v-1c0 2-3 2-3 2h-1s-3 0-3-2c0 0-2-5-5-5-.554 0-1-.446-1-1z" fill="#1c1e20" filter="url(#l)"/><rect x="301.23" y="532.8" width="2" height="13" rx="1" fill="#afc0c6"/><circle cx="302.23" cy="538.8" r="1" fill="#2b2d30"/><rect transform="scale(-1 1)" x="-347.23" y="529.8" width="2" height="4" rx="0" fill="#8ca5ad"/><rect transform="scale(-1 1)" x="-347.23" y="532.8" width="2" height="13" rx="1" fill="#afc0c6"/><circle transform="scale(-1 1)" cx="-346.23" cy="538.8" r="1" fill="#2b2d30"/><path d="M306.23 528.27c-.547.291-.994.76-.994 1.531v18c0 .77.447 1.24.994 1.531 0-.01.006-.02.006-.03v-21c0-.012-.005-.021-.006-.032zM341.24 528.27c.547.291.994.76.994 1.531v18c0 .77-.447 1.24-.994 1.531 0-.01-.006-.02-.006-.03v-21c0-.012.005-.021.006-.032z" fill="#afc0c6"/><path d="m324.23 502.8-1 2h2zm1 2h.092c1.217 0 2.407.11 3.564.313l-.656-1.313-1 1-1-1zm-2 0-1-1-1 1-1-1-.656 1.313a20.687 20.687 0 0 1 3.564-.313z" fill="#1c1e20" fill-rule="evenodd" filter="url(#m)"/><path d="M341.23 528.26v21.066c.55-.29 1-.76 1-1.533 0 0 2-5 5-5 .554 0 1-.446 1-1v-6c0-.554-.446-1-1-1-3 0-5-5-5-5 0-.773-.45-1.242-1-1.533z" fill="url(#n)" fill-rule="evenodd"/><path d="M306.23 528.26v21.066c-.55-.29-1-.76-1-1.533 0 0-2-5-5-5-.554 0-1-.446-1-1v-6c0-.554.446-1 1-1 3 0 5-5 5-5 0-.773.45-1.242 1-1.533z" fill="url(#o)" fill-rule="evenodd"/></g></svg>