<svg width="64" height="64" xmlns="http://www.w3.org/2000/svg" xmlns:xlink="http://www.w3.org/1999/xlink"><defs><linearGradient id="b"><stop stop-color="#6f6f6f" offset="0"/><stop stop-color="#cecfce" offset=".121"/><stop stop-color="#848484" offset=".197"/><stop stop-color="#2d2d2d" offset=".337"/><stop stop-color="#565656" offset=".489"/><stop stop-color="silver" offset=".617"/><stop stop-color="#3e3e3e" offset=".757"/><stop stop-color="#848585" offset=".918"/><stop stop-color="#969596" offset="1"/></linearGradient><linearGradient id="e" x1="21" x2="45" y1="6" y2="6" gradientTransform="matrix(1.3228 0 0 1.3145 -11.597 1.91)" gradientUnits="userSpaceOnUse"><stop stop-color="#d8d9d9" offset="0"/><stop stop-color="#d4d4d2" offset=".372"/><stop stop-color="#6d6d6d" offset="1"/></linearGradient><linearGradient id="f" x1="34" x2="25" y1="8" y2="8" gradientUnits="userSpaceOnUse" xlink:href="#a"/><linearGradient id="a"><stop stop-color="#8d8d8d" offset="0"/><stop stop-color="#2d2d2d" offset=".646"/><stop stop-color="gray" offset="1"/></linearGradient><linearGradient id="h" x1="38" x2="34" y1="4" y2="9" gradientUnits="userSpaceOnUse" xlink:href="#a"/><linearGradient id="i" x1="21" x2="45" y1="6" y2="6" gradientTransform="matrix(.27558 0 0 .27385 22.807 8.41)" gradientUnits="userSpaceOnUse" xlink:href="#b"/><linearGradient id="j" x1="35" x2="24.983" y1="3" y2="4.644" gradientUnits="userSpaceOnUse"><stop stop-color="#818181" offset="0"/><stop stop-color="#454545" offset=".222"/><stop stop-color="#838383" offset=".375"/><stop stop-color="#646563" offset=".515"/><stop stop-color="#d6d6d5" offset="1"/></linearGradient><linearGradient id="k" x1="21" x2="45" y1="6" y2="6" gradientTransform="matrix(.27558 0 0 .32862 22.807 6.546)" gradientUnits="userSpaceOnUse"><stop stop-color="#d0d0d0" offset="0"/><stop stop-color="#6d6d6d" offset="1"/></linearGradient><linearGradient id="n" x1="32" x2="32" y1="14.831" y2="21.831" gradientTransform="matrix(1.3228 0 0 1.3145 -10.468 1.957)" gradientUnits="userSpaceOnUse"><stop stop-color="#6bc602" offset="0"/><stop stop-color="#abfd4c" offset="1"/></linearGradient><linearGradient id="l" x1="45" x2="26.75" y1="42.553" y2="19.934" gradientTransform="matrix(1.3228 0 0 1.3145 -10.468 1.957)" gradientUnits="userSpaceOnUse"><stop stop-color="#427b01" offset="0"/><stop stop-color="#74d702" stop-opacity="0" offset="1"/></linearGradient><linearGradient id="o" x1="20.009" x2="44.2" y1="33.357" y2="33.357" gradientTransform="matrix(1.3228 0 0 1.3145 -10.468 -9.848)" gradientUnits="userSpaceOnUse"><stop stop-color="#fff" stop-opacity=".228" offset="0"/><stop stop-color="#fff" stop-opacity="0" offset=".219"/><stop stop-color="#fff" stop-opacity=".593" offset=".5"/><stop stop-color="#fff" stop-opacity=".118" offset=".656"/><stop stop-color="#fff" stop-opacity=".096" offset=".719"/><stop stop-color="#fff" stop-opacity=".673" offset=".844"/><stop stop-color="#fff" stop-opacity="0" offset=".946"/><stop stop-color="#fff" stop-opacity=".27" offset="1"/></linearGradient><linearGradient id="d" x1="21" x2="45" y1="6" y2="6" gradientTransform="matrix(1.3228 0 0 1.3145 -11.597 4.54)" gradientUnits="userSpaceOnUse" xlink:href="#b"/><filter id="c" x="-.157" y="-.515" width="1.313" height="2.03" color-interpolation-filters="sRGB"><feGaussianBlur stdDeviation="1.502"/></filter><filter id="g" x="-.051" y="-.125" width="1.101" height="1.25" color-interpolation-filters="sRGB"><feGaussianBlur stdDeviation=".208"/></filter><filter id="m" x="-.039" y="-.129" width="1.078" height="1.257" color-interpolation-filters="sRGB"><feGaussianBlur stdDeviation=".375"/></filter></defs><g fill-rule="evenodd"><ellipse transform="matrix(1.5764 0 0 1.1585 -16.384 8.33)" cx="32" cy="41.299" rx="11.5" ry="3.5" fill-opacity=".996" filter="url(#c)" opacity=".35" style="paint-order:stroke fill markers"/><path d="M16.175 12.399c-.1 0-.18.08-.18.18v41.705c0 .02.014.033.02.051a15.874 5.258 0 0 0-.031.203 15.874 5.258 0 0 0 15.874 5.258 15.874 5.258 0 0 0 15.874-5.258 15.874 5.258 0 0 0-.018-.182c.011-.024.028-.045.028-.072V12.579c0-.1-.08-.18-.18-.18z" opacity=".15" style="paint-order:stroke fill markers"/><path d="M31.862 7.215a15.874 5.258 0 0 0-13.732 2.63h-2.057a.085.085 0 0 0-.085.084v2.46c0 .005.01.005.01.01a15.874 5.258 0 0 0-.01.074 15.874 5.258 0 0 0 15.874 5.258 15.874 5.258 0 0 0 15.874-5.258 15.874 5.258 0 0 0-.008-.077c.001-.004.008-.003.008-.007v-2.46a.085.085 0 0 0-.085-.085h-2.062a15.874 5.258 0 0 0-13.727-2.629z" fill="url(#d)" style="paint-order:stroke fill markers"/><ellipse cx="31.862" cy="9.844" rx="15.874" ry="5.258" fill="url(#e)" style="paint-order:stroke fill markers"/><path transform="matrix(1.3228 0 0 1.3145 -10.468 1.957)" d="M33.79 9.955a12 4 0 0 1-9.881-1L31.999 6z" fill="url(#f)" filter="url(#g)" opacity=".75" style="paint-order:stroke fill markers"/><path transform="matrix(1.3228 0 0 1.3145 -10.468 1.957)" d="M43.783 5.242a12 4 0 0 1-6.765 4.392L32 6z" fill="url(#h)" filter="url(#g)" opacity=".75" style="paint-order:stroke fill markers"/><path d="M31.862 7.982c-1.18 0-2.27.21-2.86.548h-.43a.018.018 0 0 0-.017.017v1.499s.002 0 .002.002l-.002.015c0 .605 1.48 1.096 3.307 1.096s3.307-.49 3.307-1.096l-.002-.016.002-.001V8.547a.018.018 0 0 0-.018-.017h-.43c-.59-.339-1.679-.547-2.86-.548z" fill="url(#i)" style="paint-order:stroke fill markers"/><path transform="matrix(1.3228 0 0 1.3145 -10.468 1.957)" d="M24.143 2.977a12 4 0 0 1 12.08-.721L32 6z" fill="url(#j)" filter="url(#g)" opacity=".5" style="paint-order:stroke fill markers"/><ellipse cx="31.862" cy="8.53" rx="3.307" ry="1.315" fill="url(#k)" style="paint-order:stroke fill markers"/><path d="M16.833 25.852c-.096 0-.173.054-.173.12v27.759c0 .013.012.024.018.036a15.207 3.5 0 0 0-.028.133 15.207 3.5 0 0 0 .036.167 15.212 4.6 0 0 0-.036.218 15.212 4.6 0 0 0 15.212 4.601 15.212 4.6 0 0 0 15.212-4.6 15.212 4.6 0 0 0-.031-.258 15.207 3.5 0 0 0 .02-.128 15.207 3.5 0 0 0-.018-.12c.011-.016.029-.03.029-.05V25.974c0-.066-.078-.121-.174-.121z" fill="#73d205" fill-opacity=".914" style="paint-order:stroke fill markers"/><path d="M16.833 25.852c-.096 0-.173.054-.173.12v27.759c0 .013.012.024.018.036a15.207 3.5 0 0 0-.028.133 15.207 3.5 0 0 0 .036.167 15.212 4.6 0 0 0-.036.218 15.212 4.6 0 0 0 15.212 4.601 15.212 4.6 0 0 0 15.212-4.6 15.212 4.6 0 0 0-.031-.258 15.207 3.5 0 0 0 .02-.128 15.207 3.5 0 0 0-.018-.12c.011-.016.029-.03.029-.05V25.974c0-.066-.078-.121-.174-.121z" fill="url(#l)" style="paint-order:stroke fill markers"/><ellipse transform="matrix(1.3228 0 0 1.3145 -10.468 -9.848)" cx="32" cy="48.789" rx="11.5" ry="3.5" fill-opacity=".996" filter="url(#m)" opacity=".05" style="paint-order:stroke fill markers"/><ellipse cx="31.862" cy="26.054" rx="15.212" ry="4.601" fill="url(#n)" style="paint-order:stroke fill markers"/><path d="M47.727 12.545a15.874 5.258 0 0 1-15.865 5.186 15.874 5.258 0 0 1-15.859-5.17c0 .006-.008.01-.008.017v41.705c0 .02.014.035.02.053a15.874 5.258 0 0 0-.032.201 15.874 5.258 0 0 0 15.875 5.26 15.874 5.258 0 0 0 15.873-5.26 15.874 5.258 0 0 0-.017-.182c.011-.023.027-.044.027-.072V12.578c0-.013-.01-.02-.013-.033z" fill="url(#o)" opacity=".75" style="paint-order:stroke fill markers"/></g></svg>