<svg width="64" height="64" viewBox="0 0 16.933 16.933" xmlns="http://www.w3.org/2000/svg"><defs><filter id="l" x="-.233" y="-.248" width="1.465" height="1.496" color-interpolation-filters="sRGB"><feGaussianBlur stdDeviation="1.061"/></filter><filter id="k" x="-.012" y="-.012" width="1.023" height="1.025" color-interpolation-filters="sRGB"><feGaussianBlur stdDeviation=".03"/></filter><filter id="i" x="-.062" y="-.067" width="1.125" height="1.133" color-interpolation-filters="sRGB"><feGaussianBlur stdDeviation=".086"/></filter><filter id="j" x="-.055" y="-.066" width="1.111" height="1.131" color-interpolation-filters="sRGB"><feGaussianBlur stdDeviation=".762"/></filter><filter id="n" x="-.233" y="-.248" width="1.465" height="1.496" color-interpolation-filters="sRGB"><feGaussianBlur stdDeviation=".512"/></filter><filter id="h" x="-.058" y="-.062" width="1.116" height="1.124" color-interpolation-filters="sRGB"><feGaussianBlur stdDeviation=".128"/></filter><filter id="m" x="-.196" y="-.309" width="1.393" height="1.617" color-interpolation-filters="sRGB"><feGaussianBlur stdDeviation="2.988"/></filter><filter id="f" x="-.11" y="-.13" width="1.22" height="1.26" color-interpolation-filters="sRGB"><feGaussianBlur stdDeviation=".152"/></filter><filter id="g" x="-.19" y="-.243" width="1.38" height="1.486" color-interpolation-filters="sRGB"><feGaussianBlur stdDeviation=".152"/></filter><linearGradient id="b" x1="9.969" x2="9.969" y1="295.76" y2="281.49" gradientTransform="translate(-.102 -283.55) scale(1.012)" gradientUnits="userSpaceOnUse"><stop stop-color="#666" offset="0"/><stop stop-color="#9f9f9f" offset="1"/></linearGradient><linearGradient id="c" x1="5.033" x2="5.033" y1="294.19" y2="282.62" gradientTransform="translate(0 -280.07)" gradientUnits="userSpaceOnUse"><stop stop-color="#333" offset="0"/><stop stop-color="#666" offset="1"/></linearGradient><linearGradient id="d" x1="8.467" x2="8.467" y1="283.24" y2="293.82" gradientTransform="translate(0 -280.07)" gradientUnits="userSpaceOnUse"><stop offset="0"/><stop stop-color="#121212" offset="1"/></linearGradient><linearGradient id="a" x1="8.13" x2="8.13" y1="15.101" y2="1.993" gradientUnits="userSpaceOnUse"><stop stop-color="#ccc" offset="0"/><stop stop-color="#ebebeb" offset="1"/></linearGradient><radialGradient id="e" cx="-136.99" cy="198.65" r="38.5" gradientTransform="matrix(.0982 0 0 .08247 21.918 -7.92)" gradientUnits="userSpaceOnUse"><stop stop-color="#2561db" stop-opacity=".941" offset="0"/><stop stop-color="#0d0d0d" offset="1"/></radialGradient></defs><g color="#000"><path d="M4.37.53C2.254.53.53 2.312.53 4.496v8.468c0 2.184 1.725 3.968 3.84 3.968h8.194c2.114 0 3.84-1.783 3.84-3.968V4.497c0-2.184-1.726-3.968-3.84-3.968zm.256.52h7.681c1.844 0 3.33 1.534 3.33 3.44v7.937c0 1.906-1.485 3.44-3.33 3.44h-7.68c-1.845 0-3.33-1.534-3.33-3.44V4.49c0-1.906 1.485-3.44 3.33-3.44z" opacity=".01" style="font-feature-settings:normal;font-variant-alternates:normal;font-variant-caps:normal;font-variant-east-asian:normal;font-variant-ligatures:normal;font-variant-numeric:normal;font-variant-position:normal;font-variation-settings:normal;inline-size:0;isolation:auto;mix-blend-mode:normal;shape-margin:0;shape-padding:0;text-decoration-color:#000;text-decoration-line:none;text-decoration-style:solid;text-indent:0;text-orientation:mixed;text-transform:none;white-space:normal"/><path d="M4.359.794C2.392.794.795 2.447.795 4.48v8.5c0 2.035 1.597 3.688 3.564 3.688h8.216c1.967 0 3.564-1.653 3.564-3.688v-8.5c0-2.034-1.597-3.687-3.564-3.687zm.272.256h7.672c1.842 0 3.325 1.534 3.325 3.44v7.937c0 1.906-1.483 3.44-3.325 3.44H4.63c-1.842 0-3.325-1.534-3.325-3.44V4.49c0-1.906 1.483-3.44 3.325-3.44z" opacity=".01" style="font-feature-settings:normal;font-variant-alternates:normal;font-variant-caps:normal;font-variant-east-asian:normal;font-variant-ligatures:normal;font-variant-numeric:normal;font-variant-position:normal;font-variation-settings:normal;inline-size:0;isolation:auto;mix-blend-mode:normal;shape-margin:0;shape-padding:0;text-decoration-color:#000;text-decoration-line:none;text-decoration-style:solid;text-indent:0;text-orientation:mixed;text-transform:none;white-space:normal"/><path d="M4.31 1.058c-1.866 0-3.375 1.539-3.375 3.44v8.467c0 1.9 1.57 3.439 3.435 3.439h8.2c1.866 0 3.427-1.538 3.427-3.44V4.498c0-1.9-1.51-3.439-3.375-3.439h-.097c1.794.087 3.214 1.582 3.214 3.432v7.937c0 1.906-1.506 3.44-3.377 3.44h-7.79c-1.871 0-3.377-1.534-3.377-3.44V4.49c0-1.85 1.42-3.345 3.214-3.432z" opacity=".03" style="font-feature-settings:normal;font-variant-alternates:normal;font-variant-caps:normal;font-variant-east-asian:normal;font-variant-ligatures:normal;font-variant-numeric:normal;font-variant-position:normal;font-variation-settings:normal;inline-size:0;isolation:auto;mix-blend-mode:normal;shape-margin:0;shape-padding:0;text-decoration-color:#000;text-decoration-line:none;text-decoration-style:solid;text-indent:0;text-orientation:mixed;text-transform:none;white-space:normal"/><path transform="scale(.26458)" d="M4 46.969V49c0 6.648 5.896 12 12.544 12h30.961C54.153 61 60 55.648 60 49v-1.992a12.972 12.972 0 0 1-13 12.963H17.002A12.973 12.973 0 0 1 4 46.969z" opacity=".03" style="font-feature-settings:normal;font-variant-alternates:normal;font-variant-caps:normal;font-variant-east-asian:normal;font-variant-ligatures:normal;font-variant-numeric:normal;font-variant-position:normal;font-variation-settings:normal;inline-size:0;isolation:auto;mix-blend-mode:normal;shape-margin:0;shape-padding:0;text-decoration-color:#000;text-decoration-line:none;text-decoration-style:solid;text-indent:0;text-orientation:mixed;text-transform:none;white-space:normal"/><path d="M1.058 11.906v.592c0 1.939 1.573 3.5 3.332 3.5h8.16c1.76 0 3.325-1.561 3.325-3.5v-.58c-.006 2.095-1.537 3.78-3.44 3.78H4.498c-1.905 0-3.44-1.692-3.44-3.792z" opacity=".05" style="font-feature-settings:normal;font-variant-alternates:normal;font-variant-caps:normal;font-variant-east-asian:normal;font-variant-ligatures:normal;font-variant-numeric:normal;font-variant-position:normal;font-variation-settings:normal;inline-size:0;isolation:auto;mix-blend-mode:normal;shape-margin:0;shape-padding:0;text-decoration-color:#000;text-decoration-line:none;text-decoration-style:solid;text-indent:0;text-orientation:mixed;text-transform:none;white-space:normal"/></g><rect x="1.058" y="1.05" width="14.817" height="14.817" rx="3.44" ry="3.44" fill="url(#a)"/><g transform="translate(2.561 2.566) scale(.69746)" stroke-width="1.434"><circle cx="8.467" cy="8.46" r="7.966" fill="url(#b)"/><circle cx="8.467" cy="8.46" r="6.35" fill="url(#c)"/><circle cx="8.467" cy="8.46" r="5.292" fill="url(#d)"/><circle cx="8.467" cy="8.46" r="4.116" fill="url(#e)" stroke="#0d224d" stroke-linecap="round" stroke-linejoin="round" stroke-width=".336"/><path d="m4.945 6.47 1.464.81s.458-.477.772-.686c.348-.23 1.105-.416 1.093-.36l-.241-1.762S6.412 4.31 4.945 6.47z" fill="#4678cc" filter="url(#f)" opacity=".8"/><path d="m4.788 6.73 1.565.695s-.089.202-.123.421c-.032.2.004.387.004.387l-1.806-.019s.072-1.036.36-1.484z" fill="#4678cc" filter="url(#g)" opacity=".8"/><g transform="translate(0 -280.07)" fill="#fff"><ellipse transform="matrix(.15683 -.13591 .13591 .15683 36.278 248.68)" cx="-228.33" cy="44.944" rx="3.083" ry="1.903" fill-opacity=".3" filter="url(#h)"/><ellipse transform="matrix(.10291 -.08918 .08918 .10291 26.112 262.03)" cx="-228.1" cy="51.166" rx="1.918" ry="1.184" fill-opacity=".3" filter="url(#i)"/><ellipse transform="matrix(.11873 -.07942 .07942 .11873 27.406 259.75)" cx="-222.03" cy="111.72" rx="18.419" ry="11.368" filter="url(#j)" opacity=".2"/><ellipse transform="matrix(.10291 -.08918 .08918 .10291 26.764 261.46)" cx="-235.29" cy="75.046" rx="3.667" ry="2.263" fill-opacity=".3" filter="url(#k)"/><ellipse transform="matrix(.12523 -.10853 .10853 .12523 29.918 254.7)" cx="-234.21" cy="88.759" rx="6.386" ry="3.941" filter="url(#l)"/></g><g transform="translate(0 -280.07)"><ellipse transform="matrix(.14046 -.08281 .08281 .14046 31.651 256.02)" cx="-222.03" cy="111.72" rx="18.419" ry="11.368" fill="#4397ee" filter="url(#m)" opacity=".45"/><ellipse transform="matrix(.08132 -.07048 .07048 .08132 22.059 267.13)" cx="-228.33" cy="44.944" rx="3.083" ry="1.903" fill="#fff" fill-opacity=".854" filter="url(#n)"/><ellipse transform="rotate(-40.912 374.319 107.861) scale(.09151)" cx="-228.1" cy="51.166" rx="1.918" ry="1.184" fill="#fff" fill-opacity=".3" filter="url(#i)"/></g></g></svg>