<svg xmlns="http://www.w3.org/2000/svg" width="64" height="64"><defs><linearGradient id="b" x1="73" x2="99" y1="36" y2="52" gradientTransform="matrix(1 0 0 1.0625 0 -2.25)" gradientUnits="userSpaceOnUse"><stop offset="0" stop-color="#1bd3fa"/><stop offset="1" stop-color="#1c7df2"/></linearGradient><linearGradient id="c" x1="72" x2="100" y1="56.5" y2="56.5" gradientTransform="matrix(1.1429 0 0 .28572 -12.286 38.857)" gradientUnits="userSpaceOnUse"><stop offset="0" stop-color="#c9cace"/><stop offset=".502" stop-color="#e5e5e7"/><stop offset="1" stop-color="#cbccce"/></linearGradient><filter id="a" width="1.038" height="1.612" x="-.019" y="-.306" color-interpolation-filters="sRGB"><feGaussianBlur stdDeviation=".255"/></filter></defs><g fill-rule="evenodd" stroke-width=".5" transform="matrix(2 0 0 2 -140 -58)"><path d="M72.286 54.105H102v1c0 .37-1.734 1-3 1H73c-1.266 0-3-.63-3-1v-1z" filter="url(#a)" opacity=".35" style="paint-order:fill markers stroke"/><rect width="28" height="20" x="72" y="35" fill="#1a1a1a" rx="1" ry="1" style="paint-order:fill markers stroke"/><path fill="url(#b)" d="M73 36h26v17H73z" style="paint-order:fill markers stroke"/><path fill="url(#c)" d="M72.286 54H102v1c0 .37-1.734 1-3 1H73c-1.266 0-3-.63-3-1v-1z" style="paint-order:fill markers stroke"/><path d="M22 50c0 1.108.892 2 2 2h16c1.108 0 2-.892 2-2z" opacity=".35" style="paint-order:fill markers stroke" transform="matrix(.5 0 0 .5 70 29)"/></g></svg>