<svg width="64" height="64" xmlns="http://www.w3.org/2000/svg" xmlns:xlink="http://www.w3.org/1999/xlink"><linearGradient id="a"><stop stop-color="#909090" offset="0"/><stop stop-color="#636363" stop-opacity="0" offset="1"/></linearGradient><radialGradient id="c" cx="199.22" cy="60.978" r="62.148" gradientTransform="matrix(1.0119 0 0 5.0958 -134.28 -251.23)" gradientUnits="userSpaceOnUse"><stop stop-color="#e6e6e8" offset="0"/><stop stop-color="#cbccce" offset="1"/></radialGradient><radialGradient id="d" cx="199.22" cy="60.978" r="62.148" gradientTransform="matrix(1.3103 0 0 3.6151 -193.73 -160.94)" gradientUnits="userSpaceOnUse"><stop stop-color="#ececef" offset="0"/><stop stop-color="#cbccce" stop-opacity="0" offset="1"/></radialGradient><filter id="b" x="-.014" y="-.017" width="1.029" height="1.034" color-interpolation-filters="sRGB"><feGaussianBlur stdDeviation=".75"/></filter><linearGradient id="g" x1="174.79" x2="174.86" y1="109.47" y2="118.12" gradientUnits="userSpaceOnUse"><stop stop-color="#909090" offset="0"/><stop stop-color="#727272" stop-opacity="0" offset="1"/></linearGradient><radialGradient id="h" cx="178.79" cy="120.7" r="22.055" gradientTransform="matrix(3.8591 0 0 .1388 -511.17 103.95)" gradientUnits="userSpaceOnUse" xlink:href="#a"/><filter id="i" x="-.041" y="-.504" width="1.082" height="2.008" color-interpolation-filters="sRGB"><feGaussianBlur stdDeviation=".328"/></filter><filter id="f" x="-.08" y="-.245" width="1.161" height="1.491" color-interpolation-filters="sRGB"><feGaussianBlur stdDeviation="1.479"/></filter><linearGradient id="j" x1="183.06" x2="183.06" y1="129.42" y2="127.06" gradientUnits="userSpaceOnUse" xlink:href="#a"/><linearGradient id="e" x1="23.844" x2="23.816" y1="17.574" y2="85.151" gradientUnits="userSpaceOnUse"><stop stop-color="#1bd2fa" offset="0"/><stop stop-color="#1c7ef2" offset="1"/></linearGradient><g stroke-width="2.058" transform="matrix(.48966 0 0 .48209 -.956 -1.386)"><rect x="5.156" y="8.779" width="124.3" height="103.95" rx="5.662" fill="#1a1a1a" filter="url(#b)" opacity=".887"/><rect x="5.156" y="8.779" width="124.3" height="103.95" rx="5.662" fill="url(#c)"/><rect x="5.156" y="8.779" width="124.3" height="103.95" rx="5.662" fill="url(#d)"/><path d="M10.818 8.778a5.65 5.65 0 0 0-5.662 5.662v75.664h124.3V14.44a5.65 5.65 0 0 0-5.662-5.662z" fill="#080808"/><path d="M10.318 12.353h113.49v73.329H10.318z" fill="url(#e)"/><path d="M5.156 106.01v1.057a5.65 5.65 0 0 0 5.662 5.662h112.97a5.65 5.65 0 0 0 5.662-5.662v-1.057a5.65 5.65 0 0 1-5.662 5.662H10.818a5.65 5.65 0 0 1-5.662-5.662z" fill="#afafaf"/><g transform="translate(-111.48 -1.474)"><path d="M194.34 114.95c-.088 3.7-.946 7.822 4.95 11.334 4.707 2.926-2.61 3.127-4.429 3.127h-32.145c-1.818 0-9.136-.201-4.43-3.127 5.898-3.513 5.04-7.635 4.951-11.334z" filter="url(#f)"/><path d="M194.34 113.47c-.088 3.7-.946 7.822 4.95 11.334 4.707 2.926-2.61 3.127-4.429 3.127-10.492.462-21.162.762-32.145 0-1.818 0-9.136-.201-4.43-3.127 5.898-3.513 5.04-7.635 4.951-11.334z" fill="#e0e1e6"/><path d="M194.34 113.47c-.088 3.7-.946 7.822 4.95 11.334 4.707 2.926-2.61 3.127-4.429 3.127h-32.145c-1.818 0-9.136-.201-4.43-3.127 5.898-3.513 5.04-7.635 4.951-11.334z" fill="url(#g)"/><path d="M194.34 113.47c-.088 3.7-.946 7.822 4.95 11.334 4.707 2.926-2.61 3.127-4.429 3.127h-32.145c-1.818 0-9.136-.201-4.43-3.127 5.898-3.513 5.04-7.635 4.951-11.334z" fill="url(#h)"/><ellipse cx="178.29" cy="127.15" rx="15.764" ry=".782" fill="#fff" filter="url(#i)" opacity=".887"/><path d="M194.34 113.47c-.088 3.7-.946 7.822 4.95 11.334 4.707 2.926-2.61 3.127-4.429 3.127h-32.145c-1.818 0-9.136-.201-4.43-3.127 5.898-3.513 5.04-7.635 4.951-11.334z" fill="url(#j)"/></g></g><path d="M34.09 48.22a2.76 2.76 0 0 1-.278.494 2.515 2.515 0 0 1-.359.427.701.701 0 0 1-.46.2c-.119 0-.261-.033-.427-.1a1.239 1.239 0 0 0-.459-.1c-.146 0-.303.033-.471.1a1.285 1.285 0 0 1-.408.105c-.157.007-.314-.061-.471-.205a2.641 2.641 0 0 1-.376-.442 3.04 3.04 0 0 1-.397-.776 2.803 2.803 0 0 1-.166-.925c0-.342.075-.637.225-.884a1.311 1.311 0 0 1 1.11-.647c.125 0 .29.038.493.113.204.075.335.113.392.113.043 0 .188-.045.434-.134.233-.082.429-.116.59-.103.436.035.763.204.981.509-.39.233-.583.558-.579.976.004.326.124.597.36.812.106.1.225.177.358.231-.029.083-.059.161-.091.237zm-1-3.873c0 .256-.094.494-.282.714-.228.262-.504.414-.802.39a.76.76 0 0 1-.006-.097c0-.245.108-.507.3-.721.096-.109.218-.199.366-.27.148-.072.288-.11.42-.118a.894.894 0 0 1 .005.102z" fill="#1e1f28"/><path d="M4.096 4.569V39.92h55.572V4.57zm.27.244h55.078v34.885H4.367z" fill-opacity=".212"/><path d="M4.34 2.966c-1.535 0-2.772 1.217-2.772 2.73v36.356h60.865V5.695c0-1.512-1.236-2.73-2.772-2.73zm-.244 2.567h55.572V39.92H4.096z" fill="#080808"/></svg>