<svg width="64" height="64" xmlns="http://www.w3.org/2000/svg"><defs><linearGradient id="b" x1="73" x2="99" y1="36" y2="52" gradientTransform="matrix(1 0 0 1.0625 0 -2.25)" gradientUnits="userSpaceOnUse"><stop stop-color="#1bd3fa" offset="0"/><stop stop-color="#1c7df2" offset="1"/></linearGradient><linearGradient id="c" x1="72" x2="100" y1="56.5" y2="56.5" gradientTransform="matrix(1.1429 0 0 .28572 -12.286 38.857)" gradientUnits="userSpaceOnUse"><stop stop-color="#c9cace" offset="0"/><stop stop-color="#e5e5e7" offset=".502"/><stop stop-color="#cbccce" offset="1"/></linearGradient><filter id="a" x="-.019" y="-.306" width="1.038" height="1.612" color-interpolation-filters="sRGB"><feGaussianBlur stdDeviation=".255"/></filter></defs><g transform="matrix(2 0 0 2 -140 -58)" fill-rule="evenodd" stroke-width=".5"><path d="M72.286 54.105H102v1c0 .37-1.734 1-3 1H73c-1.266 0-3-.63-3-1v-1z" filter="url(#a)" opacity=".35" style="paint-order:fill markers stroke"/><rect x="72" y="35" width="28" height="20" rx="1" ry="1" fill="#1a1a1a" style="paint-order:fill markers stroke"/><path fill="url(#b)" style="paint-order:fill markers stroke" d="M73 36h26v17H73z"/><path d="M72.286 54H102v1c0 .37-1.734 1-3 1H73c-1.266 0-3-.63-3-1v-1z" fill="url(#c)" style="paint-order:fill markers stroke"/><path transform="matrix(.5 0 0 .5 70 29)" d="M22 50c0 1.108.892 2 2 2h16c1.108 0 2-.892 2-2H22z" opacity=".35" style="paint-order:fill markers stroke"/></g></svg>