<svg xmlns="http://www.w3.org/2000/svg" xmlns:xlink="http://www.w3.org/1999/xlink" width="64" height="64"><linearGradient id="a"><stop offset="0" stop-color="#909090"/><stop offset="1" stop-color="#636363" stop-opacity="0"/></linearGradient><radialGradient id="c" cx="199.22" cy="60.978" r="62.148" gradientTransform="matrix(1.0119 0 0 5.0958 -134.28 -251.23)" gradientUnits="userSpaceOnUse"><stop offset="0" stop-color="#e6e6e8"/><stop offset="1" stop-color="#cbccce"/></radialGradient><radialGradient id="d" cx="199.22" cy="60.978" r="62.148" gradientTransform="matrix(1.3103 0 0 3.6151 -193.73 -160.94)" gradientUnits="userSpaceOnUse"><stop offset="0" stop-color="#ececef"/><stop offset="1" stop-color="#cbccce" stop-opacity="0"/></radialGradient><filter id="b" width="1.029" height="1.034" x="-.014" y="-.017" color-interpolation-filters="sRGB"><feGaussianBlur stdDeviation=".75"/></filter><linearGradient id="g" x1="174.79" x2="174.86" y1="109.47" y2="118.12" gradientUnits="userSpaceOnUse"><stop offset="0" stop-color="#909090"/><stop offset="1" stop-color="#727272" stop-opacity="0"/></linearGradient><radialGradient xlink:href="#a" id="h" cx="178.79" cy="120.7" r="22.055" gradientTransform="matrix(3.8591 0 0 .1388 -511.17 103.95)" gradientUnits="userSpaceOnUse"/><filter id="i" width="1.082" height="2.008" x="-.041" y="-.504" color-interpolation-filters="sRGB"><feGaussianBlur stdDeviation=".328"/></filter><filter id="f" width="1.161" height="1.491" x="-.08" y="-.245" color-interpolation-filters="sRGB"><feGaussianBlur stdDeviation="1.479"/></filter><linearGradient xlink:href="#a" id="j" x1="183.06" x2="183.06" y1="129.42" y2="127.06" gradientUnits="userSpaceOnUse"/><linearGradient id="e" x1="23.844" x2="23.816" y1="17.574" y2="85.151" gradientUnits="userSpaceOnUse"><stop offset="0" stop-color="#1bd2fa"/><stop offset="1" stop-color="#1c7ef2"/></linearGradient><g stroke-width="2.058" transform="matrix(.48966 0 0 .48209 -.956 -1.386)"><rect width="124.3" height="103.95" x="5.156" y="8.779" fill="#1a1a1a" filter="url(#b)" opacity=".887" rx="5.662"/><rect width="124.3" height="103.95" x="5.156" y="8.779" fill="url(#c)" rx="5.662"/><rect width="124.3" height="103.95" x="5.156" y="8.779" fill="url(#d)" rx="5.662"/><path fill="#080808" d="M10.818 8.778a5.65 5.65 0 0 0-5.662 5.662v75.664h124.3V14.44a5.65 5.65 0 0 0-5.662-5.662z"/><path fill="url(#e)" d="M10.318 12.353h113.49v73.329H10.318z"/><path fill="#afafaf" d="M5.156 106.01v1.057a5.65 5.65 0 0 0 5.662 5.662h112.97a5.65 5.65 0 0 0 5.662-5.662v-1.057a5.65 5.65 0 0 1-5.662 5.662H10.818a5.65 5.65 0 0 1-5.662-5.662"/><g transform="translate(-111.48 -1.474)"><path d="M194.34 114.95c-.088 3.7-.946 7.822 4.95 11.334 4.707 2.926-2.61 3.127-4.429 3.127h-32.145c-1.818 0-9.136-.201-4.43-3.127 5.898-3.513 5.04-7.635 4.951-11.334z" filter="url(#f)"/><path fill="#e0e1e6" d="M194.34 113.47c-.088 3.7-.946 7.822 4.95 11.334 4.707 2.926-2.61 3.127-4.429 3.127-10.492.462-21.162.762-32.145 0-1.818 0-9.136-.201-4.43-3.127 5.898-3.513 5.04-7.635 4.951-11.334z"/><path fill="url(#g)" d="M194.34 113.47c-.088 3.7-.946 7.822 4.95 11.334 4.707 2.926-2.61 3.127-4.429 3.127h-32.145c-1.818 0-9.136-.201-4.43-3.127 5.898-3.513 5.04-7.635 4.951-11.334z"/><path fill="url(#h)" d="M194.34 113.47c-.088 3.7-.946 7.822 4.95 11.334 4.707 2.926-2.61 3.127-4.429 3.127h-32.145c-1.818 0-9.136-.201-4.43-3.127 5.898-3.513 5.04-7.635 4.951-11.334z"/><ellipse cx="178.29" cy="127.15" fill="#fff" filter="url(#i)" opacity=".887" rx="15.764" ry=".782"/><path fill="url(#j)" d="M194.34 113.47c-.088 3.7-.946 7.822 4.95 11.334 4.707 2.926-2.61 3.127-4.429 3.127h-32.145c-1.818 0-9.136-.201-4.43-3.127 5.898-3.513 5.04-7.635 4.951-11.334z"/></g></g><path fill="#1e1f28" d="M34.09 48.22a3 3 0 0 1-.278.494 2.5 2.5 0 0 1-.359.427.7.7 0 0 1-.46.2q-.178 0-.427-.1a1.2 1.2 0 0 0-.459-.1q-.219 0-.471.1a1.3 1.3 0 0 1-.408.105q-.235.01-.471-.205a2.6 2.6 0 0 1-.376-.442 3 3 0 0 1-.397-.776 2.8 2.8 0 0 1-.166-.925q0-.513.225-.884a1.31 1.31 0 0 1 1.11-.647q.188 0 .493.113.306.113.392.113.065 0 .434-.134.349-.123.59-.103.654.052.981.509-.585.35-.579.976.006.49.36.812.159.15.358.231a4 4 0 0 1-.091.237zm-1-3.873q0 .384-.282.714c-.228.262-.504.414-.802.39a1 1 0 0 1-.006-.097c0-.245.108-.507.3-.721q.144-.163.366-.27t.42-.118a1 1 0 0 1 .005.102z"/><path fill-opacity=".212" d="M4.096 4.569V39.92h55.572V4.57zm.27.244h55.078v34.885H4.367z"/><path fill="#080808" d="M4.34 2.966c-1.535 0-2.772 1.217-2.772 2.73v36.356h60.865V5.695c0-1.512-1.236-2.73-2.772-2.73zm-.244 2.567h55.572V39.92H4.096z"/></svg>