<svg xmlns="http://www.w3.org/2000/svg" xmlns:xlink="http://www.w3.org/1999/xlink" width="64" height="64"><defs><linearGradient id="a"><stop offset="0" stop-opacity="0"/><stop offset=".141"/><stop offset="1" stop-opacity="0"/></linearGradient><linearGradient id="d" x1="3" x2="45" y1="42" y2="42" gradientTransform="translate(0 -2.667)scale(1.3333)" gradientUnits="userSpaceOnUse"><stop offset="0" stop-color="#1a1a1a"/><stop offset=".111" stop-color="#2c2c2e"/><stop offset=".29" stop-color="#2b2b2d"/><stop offset=".512" stop-color="#2a2b2d"/><stop offset=".752" stop-color="#2b2b2d"/><stop offset=".897" stop-color="#323232"/><stop offset="1" stop-color="#171717"/></linearGradient><linearGradient id="e" x1="450.06" x2="450.06" y1="544.2" y2="543.43" gradientTransform="matrix(1.1756 0 0 3.4682 -499.76 -1832.8)" gradientUnits="userSpaceOnUse"><stop offset="0" stop-color="#24785a"/><stop offset="1" stop-color="#67e5b8"/></linearGradient><linearGradient id="f" x1="467.17" x2="467.17" y1="546.85" y2="544.72" gradientTransform="translate(-1121.6 -1318.3)scale(2.5125)" gradientUnits="userSpaceOnUse"><stop offset="0" stop-color="#040404"/><stop offset="1" stop-color="#121212" stop-opacity=".908"/></linearGradient><linearGradient id="g" x1="26" x2="26" y1="35" y2="7" gradientTransform="translate(-.01 -2.667)scale(1.3333)" gradientUnits="userSpaceOnUse"><stop offset="0" stop-color="#e78c09"/><stop offset="1" stop-color="#fcb519"/></linearGradient><linearGradient id="c" x1="26" x2="26" y1="35" y2="7" gradientTransform="matrix(-1.3333 0 0 1.3333 64.011 -2.667)" gradientUnits="userSpaceOnUse"><stop offset="0" stop-color="#b6b9bf"/><stop offset="1" stop-color="#dddfe2"/></linearGradient><linearGradient xlink:href="#a" id="h" x1="7" x2="16.79" y1="30" y2="31.567" gradientUnits="userSpaceOnUse"/><linearGradient xlink:href="#a" id="i" x1="7" x2="16.79" y1="30" y2="31.567" gradientTransform="matrix(-1 0 0 1 63.939 0)" gradientUnits="userSpaceOnUse"/><filter id="b" width="1.117" height="1.123" x="-.059" y="-.061" color-interpolation-filters="sRGB"><feGaussianBlur stdDeviation="1.075"/></filter></defs><path d="M12.507 20c-2.894 0-4.79 2.156-5.224 4.768L2.061 56.233a3.3 3.3 0 0 0 .017 1.129C2.27 59.96 4.517 62 7.283 62h33.432c2.66 0 4.84-1.887 5.175-4.344.122-.45.147-.929.049-1.423L39.67 24.768C39.153 22.169 37.34 20 34.447 20z" filter="url(#b)" opacity=".15" transform="translate(0 -21.333)scale(1.3333)"/><path fill="url(#c)" d="M17.322 4c-3.693 0-6.113 2.874-6.666 6.356L3.992 52.309c-.553 3.481 2.973 6.355 6.666 6.355h42.684c3.693 0 7.219-2.874 6.666-6.356l-6.664-41.953C52.79 6.874 50.37 4 46.678 4z"/><rect width="55.999" height="13.333" x="4" y="46.665" fill="url(#d)" ry="6.667"/><rect width="26.666" height="2.667" x="16" y="51.999" fill="url(#e)" ry="1.333"/><circle cx="51.999" cy="53.332" r="2.667" fill="url(#f)" opacity=".452"/><g stroke-width="1.333"><path fill="#fff" d="M52.003 52.098a.2.2 0 0 0-.14.06.18.18 0 0 0-.058.138v.992q0 .08.057.138.06.059.141.06.08 0 .138-.06a.2.2 0 0 0 .06-.138v-.992a.2.2 0 0 0-.06-.138.2.2 0 0 0-.138-.06m-.57.292c-.054 0-.102 0-.146.039a1.16 1.16 0 0 0-.477.948q.001.24.097.46.094.222.252.38a1.2 1.2 0 0 0 .841.347q.242 0 .461-.094a1.18 1.18 0 0 0 .633-.632 1.17 1.17 0 0 0-.38-1.409.2.2 0 0 0-.149-.04c-.054 0-.098.033-.13.076a.2.2 0 0 0-.036.146q.01.082.075.133a.79.79 0 0 1-.78 1.362.79.79 0 0 1-.404-1.083.8.8 0 0 1 .234-.28.2.2 0 0 0 .078-.132.2.2 0 0 0-.04-.146.18.18 0 0 0-.13-.075z"/><path d="M10.666 46.665a6.65 6.65 0 0 0-6.667 6.667c0 .078.008.154.01.231a6.3 6.3 0 0 1 6.31-6.203h43.36a6.3 6.3 0 0 1 6.31 6.203c.002-.077.01-.153.01-.232a6.65 6.65 0 0 0-6.667-6.666z" opacity=".15"/><path fill="url(#g)" d="M17.322 4c-3.693 0-6.113 2.874-6.666 6.356L5.236 44.48C6.757 41.84 9.438 40 13 40h38c3.562 0 6.242 1.84 7.764 4.48l-5.42-34.124C52.79 6.873 50.37 4 46.678 4z"/><path fill="url(#h)" d="M17.322 4c-3.693 0-6.113 2.874-6.666 6.356L3.992 52.309a4.5 4.5 0 0 0 .037 1.584 7 7 0 0 1-.03-.561 6.65 6.65 0 0 1 6.667-6.666H32V4z" opacity=".1"/><path fill="url(#i)" d="M46.617 4c3.693 0 6.113 2.874 6.666 6.356l6.664 41.953a4.5 4.5 0 0 1-.037 1.584c.015-.186.03-.372.03-.561a6.65 6.65 0 0 0-6.667-6.666H31.94V4z" opacity=".1"/></g></svg>