<svg width="64" height="64" xmlns="http://www.w3.org/2000/svg" xmlns:xlink="http://www.w3.org/1999/xlink"><defs><linearGradient id="a"><stop stop-opacity="0" offset="0"/><stop offset=".141"/><stop stop-opacity="0" offset="1"/></linearGradient><linearGradient id="d" x1="3" x2="45" y1="42" y2="42" gradientTransform="translate(0 -2.667) scale(1.3333)" gradientUnits="userSpaceOnUse"><stop stop-color="#1a1a1a" offset="0"/><stop stop-color="#2c2c2e" offset=".111"/><stop stop-color="#2b2b2d" offset=".29"/><stop stop-color="#2a2b2d" offset=".512"/><stop stop-color="#2b2b2d" offset=".752"/><stop stop-color="#323232" offset=".897"/><stop stop-color="#171717" offset="1"/></linearGradient><linearGradient id="e" x1="450.06" x2="450.06" y1="544.2" y2="543.43" gradientTransform="matrix(1.1756 0 0 3.4682 -499.76 -1832.8)" gradientUnits="userSpaceOnUse"><stop stop-color="#24785a" offset="0"/><stop stop-color="#67e5b8" offset="1"/></linearGradient><linearGradient id="f" x1="467.17" x2="467.17" y1="546.85" y2="544.72" gradientTransform="translate(-1121.6 -1318.3) scale(2.5125)" gradientUnits="userSpaceOnUse"><stop stop-color="#040404" offset="0"/><stop stop-color="#121212" stop-opacity=".908" offset="1"/></linearGradient><linearGradient id="g" x1="26" x2="26" y1="35" y2="7" gradientTransform="translate(-.01 -2.667) scale(1.3333)" gradientUnits="userSpaceOnUse"><stop stop-color="#e78c09" offset="0"/><stop stop-color="#fcb519" offset="1"/></linearGradient><linearGradient id="c" x1="26" x2="26" y1="35" y2="7" gradientTransform="matrix(-1.3333 0 0 1.3333 64.011 -2.667)" gradientUnits="userSpaceOnUse"><stop stop-color="#b6b9bf" offset="0"/><stop stop-color="#dddfe2" offset="1"/></linearGradient><linearGradient id="h" x1="7" x2="16.79" y1="30" y2="31.567" gradientUnits="userSpaceOnUse" xlink:href="#a"/><linearGradient id="i" x1="7" x2="16.79" y1="30" y2="31.567" gradientTransform="matrix(-1 0 0 1 63.939 0)" gradientUnits="userSpaceOnUse" xlink:href="#a"/><filter id="b" x="-.059" y="-.061" width="1.117" height="1.123" color-interpolation-filters="sRGB"><feGaussianBlur stdDeviation="1.075"/></filter></defs><path transform="translate(0 -21.333) scale(1.3333)" d="M12.507 20c-2.894 0-4.79 2.156-5.224 4.768L2.061 56.233c-.064.388-.05.766.017 1.129C2.27 59.96 4.517 62 7.283 62h33.432c2.66 0 4.84-1.887 5.175-4.344.122-.45.147-.929.049-1.423L39.67 24.768C39.153 22.169 37.34 20 34.447 20z" filter="url(#b)" opacity=".15"/><path d="M17.322 4c-3.693 0-6.113 2.874-6.666 6.356L3.992 52.309c-.553 3.481 2.973 6.355 6.666 6.355h42.684c3.693 0 7.219-2.874 6.666-6.356l-6.664-41.953C52.79 6.874 50.37 4 46.678 4H17.322z" fill="url(#c)"/><rect x="4" y="46.665" width="55.999" height="13.333" ry="6.667" fill="url(#d)"/><rect x="16" y="51.999" width="26.666" height="2.667" ry="1.333" fill="url(#e)"/><circle cx="51.999" cy="53.332" r="2.667" fill="url(#f)" opacity=".452"/><g stroke-width="1.333"><path d="M52.003 52.098a.191.191 0 0 0-.14.06.184.184 0 0 0-.058.138v.992c0 .053.018.1.057.138.04.038.087.06.141.06.054 0 .099-.02.138-.06a.189.189 0 0 0 .06-.138v-.992a.189.189 0 0 0-.06-.138.192.192 0 0 0-.138-.06zm-.57.292c-.054 0-.102 0-.146.039a1.161 1.161 0 0 0-.477.948c0 .16.034.314.097.46.063.148.146.274.252.38a1.21 1.21 0 0 0 .841.347c.161 0 .315-.031.461-.094a1.178 1.178 0 0 0 .633-.632 1.173 1.173 0 0 0-.38-1.409.19.19 0 0 0-.149-.04c-.054 0-.098.033-.13.076a.188.188 0 0 0-.036.146c.007.054.032.1.075.133a.79.79 0 0 1-.78 1.362.792.792 0 0 1-.404-1.083.786.786 0 0 1 .234-.28.2.2 0 0 0 .078-.132.188.188 0 0 0-.04-.146.179.179 0 0 0-.13-.075z" fill="#fff"/><path d="M10.666 46.665a6.652 6.652 0 0 0-6.667 6.667c0 .078.008.154.01.231a6.299 6.299 0 0 1 6.31-6.203h43.36a6.299 6.299 0 0 1 6.31 6.203c.002-.077.01-.153.01-.232a6.652 6.652 0 0 0-6.667-6.666H10.666z" opacity=".15"/><path d="M17.322 4c-3.693 0-6.113 2.874-6.666 6.356L5.236 44.48C6.757 41.84 9.438 40 13 40h38c3.562 0 6.242 1.84 7.764 4.48l-5.42-34.124C52.79 6.873 50.37 4 46.678 4H17.322z" fill="url(#g)"/><path d="M17.322 4c-3.693 0-6.113 2.874-6.666 6.356L3.992 52.309a4.51 4.51 0 0 0 .037 1.584 6.774 6.774 0 0 1-.03-.561 6.651 6.651 0 0 1 6.667-6.666H32V4H17.322z" fill="url(#h)" opacity=".1"/><path d="M46.617 4c3.693 0 6.113 2.874 6.666 6.356l6.664 41.953a4.51 4.51 0 0 1-.037 1.584c.015-.186.03-.372.03-.561a6.651 6.651 0 0 0-6.667-6.666H31.94V4z" fill="url(#i)" opacity=".1"/></g></svg>