<svg width="64" height="64" version="1.1" xmlns="http://www.w3.org/2000/svg" xmlns:xlink="http://www.w3.org/1999/xlink">
 <defs>
  <linearGradient id="k" x1="32" x2="32" y1="41" y2="23" gradientTransform="matrix(1.1538,0,0,1.1538,-4.923,-4.923)" gradientUnits="userSpaceOnUse" xlink:href="#a"/>
  <linearGradient id="m-2" x1="38.364" x2="39.951" y1="15.17" y2="15.17" gradientTransform="matrix(7.3154,0,0,7.3154,-276.92,-58)" gradientUnits="userSpaceOnUse">
   <stop stop-color="#2d2e30" offset="0"/>
   <stop stop-color="#5d5c5b" stop-opacity="0" offset=".334"/>
   <stop stop-color="#7a7b7b" stop-opacity="0" offset=".502"/>
   <stop stop-color="#555" stop-opacity="0" offset=".686"/>
   <stop stop-color="#333" offset="1"/>
  </linearGradient>
  <linearGradient id="n-6" x1="38.364" x2="39.951" y1="15.17" y2="15.17" gradientTransform="matrix(7.3154,0,0,7.3154,-232.4,-58)" gradientUnits="userSpaceOnUse">
   <stop stop-color="#2d2e30" offset="0"/>
   <stop stop-color="#5d5c5b" stop-opacity="0" offset=".334"/>
   <stop stop-color="#7a7b7b" stop-opacity="0" offset=".502"/>
   <stop stop-color="#555" stop-opacity="0" offset=".686"/>
   <stop stop-color="#70787e" offset="1"/>
  </linearGradient>
  <linearGradient id="o-1" x1="50.27" x2="50.27" y1="14.816" y2="8.731" gradientTransform="matrix(7.3154,0,0,7.3154,-335.74,-59.935)" gradientUnits="userSpaceOnUse">
   <stop stop-color="#c0d5dc" offset="0"/>
   <stop stop-color="#9ea5a8" offset="1"/>
  </linearGradient>
  <linearGradient id="p-8" x1="285.3" x2="177.35" y1="58.879" y2="58.879" gradientTransform="matrix(.3932 0 0 .3932 -58.986 .793)" gradientUnits="userSpaceOnUse">
   <stop stop-color="#3e3f41" offset="0"/>
   <stop stop-color="#f6f7f7" offset=".148"/>
   <stop stop-color="#8396a5" offset=".55"/>
   <stop stop-color="#50484b" offset="1"/>
  </linearGradient>
  <linearGradient id="q-7" x1="237.32" x2="239.69" y1="18.634" y2="111.87" gradientTransform="matrix(.3932 0 0 .3932 -58.986 .793)" gradientUnits="userSpaceOnUse">
   <stop stop-color="#9fa6aa" offset="0"/>
   <stop stop-color="#c2d5dc" offset="1"/>
  </linearGradient>
  <linearGradient id="r-9" x1="144.66" x2="174.56" y1="55.562" y2="55.562" gradientTransform="matrix(1.9355,0,0,1.9355,-276.92,-58)" gradientUnits="userSpaceOnUse" xlink:href="#a-2"/>
  <linearGradient id="a-2">
   <stop stop-color="#868f93" offset="0"/>
   <stop stop-color="#939b9d" offset=".056"/>
   <stop stop-color="#7c7a74" offset=".115"/>
   <stop stop-color="#918b7f" offset=".505"/>
   <stop stop-color="#656866" offset=".915"/>
   <stop stop-color="#8f9ea5" offset=".962"/>
   <stop stop-color="#98aab4" offset="1"/>
  </linearGradient>
  <linearGradient id="s-0" x1="144.66" x2="174.56" y1="55.562" y2="55.562" gradientTransform="matrix(1.9355,0,0,1.9355,-276.92,-48.322)" gradientUnits="userSpaceOnUse" xlink:href="#a-2"/>
  <linearGradient id="f-2" x1="120.59" x2="118.64" y1="137.54" y2="139.07" gradientTransform="matrix(.3932 0 0 .3932 -17.752 1.088)" gradientUnits="userSpaceOnUse" xlink:href="#b-3"/>
  <linearGradient id="b-3">
   <stop offset="0"/>
   <stop stop-color="#313131" offset="1"/>
  </linearGradient>
  <linearGradient id="g-7" x1="120.59" x2="118.64" y1="137.54" y2="139.07" gradientTransform="matrix(.3932 0 0 .3932 -15.285 1.088)" gradientUnits="userSpaceOnUse" xlink:href="#b-3"/>
  <linearGradient id="h-5" x1="120.59" x2="118.64" y1="137.54" y2="139.07" gradientTransform="matrix(.3932 0 0 .3932 -12.819 1.088)" gradientUnits="userSpaceOnUse" xlink:href="#b-3"/>
  <linearGradient id="i-9" x1="120.59" x2="118.64" y1="137.54" y2="139.07" gradientTransform="matrix(.3932 0 0 .3932 -10.353 1.088)" gradientUnits="userSpaceOnUse" xlink:href="#b-3"/>
  <linearGradient id="j-2" x1="120.59" x2="118.64" y1="137.54" y2="139.07" gradientTransform="matrix(.3932 0 0 .3932 -7.887 1.088)" gradientUnits="userSpaceOnUse" xlink:href="#b-3"/>
  <linearGradient id="k-2" x1="120.59" x2="118.64" y1="137.54" y2="139.07" gradientTransform="matrix(.3932 0 0 .3932 -5.42 1.088)" gradientUnits="userSpaceOnUse" xlink:href="#b-3"/>
  <linearGradient id="l-8" x1="120.59" x2="118.64" y1="137.54" y2="139.07" gradientTransform="matrix(.3932 0 0 .3932 -2.955 1.088)" gradientUnits="userSpaceOnUse" xlink:href="#b-3"/>
  <linearGradient id="d-9" x1="50.27" x2="50.27" y1="15.081" y2="14.023" gradientTransform="matrix(7.3154,0,0,7.3154,-335.74,-50.258)" gradientUnits="userSpaceOnUse">
   <stop stop-color="#404041" offset="0"/>
   <stop stop-color="#1e1e1e" offset="1"/>
  </linearGradient>
  <linearGradient id="e-7" x1="242.09" x2="173.32" y1="131.04" y2="131.04" gradientTransform="matrix(.3932 0 0 .3932 -58.986 .793)" gradientUnits="userSpaceOnUse">
   <stop stop-color="#8a8a8a" offset="0"/>
   <stop stop-color="#3d3c3c" offset="1"/>
  </linearGradient>
  <filter id="c-3" x="-.025257" y="-.029044" width="1.0505" height="1.0581" color-interpolation-filters="sRGB">
   <feGaussianBlur stdDeviation=".609"/>
  </filter>
 </defs>
 <linearGradient id="d" x1="6" x2="6" y1="58" y2="6" gradientTransform="matrix(1.1538,0,0,1.1538,-4.923,-4.923)" gradientUnits="userSpaceOnUse" xlink:href="#b"/>
 <linearGradient id="f" x1="32" x2="32" y1="58" y2="32" gradientTransform="matrix(1.154 0 0 1.2 -4.9239 -6.4004)" gradientUnits="userSpaceOnUse">
  <stop stop-color="#fdad23" offset="0"/>
  <stop stop-color="#fdc96f" offset="1"/>
 </linearGradient>
 <linearGradient id="i" x1="32" x2="32" y1="32" y2="6" gradientTransform="matrix(1.1538,0,0,1.1538,-4.923,-4.923)" gradientUnits="userSpaceOnUse">
  <stop stop-color="#27ad60" offset="0"/>
  <stop stop-color="#58d68d" offset="1"/>
 </linearGradient>
 <linearGradient id="e" x1="32" x2="32" y1="58" y2="32" gradientTransform="matrix(-1.154 0 0 1.2 68.924 -6.4004)" gradientUnits="userSpaceOnUse">
  <stop stop-color="#8e44ad" offset="0"/>
  <stop stop-color="#af7ac4" offset="1"/>
 </linearGradient>
 <linearGradient id="s" x1="32" x2="32" y1="35" y2="29" gradientTransform="matrix(1.1538,0,0,1.1538,-4.923,-4.923)" gradientUnits="userSpaceOnUse" xlink:href="#b"/>
 <linearGradient id="l" x1="32" x2="32" y1="36" y2="28" gradientTransform="matrix(1.1538,0,0,1.1538,-4.923,-4.923)" gradientUnits="userSpaceOnUse">
  <stop stop-color="#5c7274" offset="0"/>
  <stop stop-color="#a4a4a4" offset="1"/>
 </linearGradient>
 <linearGradient id="v" x1="32" x2="32" y1="58" y2="40" gradientTransform="matrix(1.1538,0,0,1.1538,-4.923,-4.923)" gradientUnits="userSpaceOnUse" xlink:href="#a"/>
 <linearGradient id="j" x1="32" x2="32" y1="32" y2="6" gradientTransform="matrix(1.1538,0,0,1.1538,-4.923,-4.923)" gradientUnits="userSpaceOnUse">
  <stop stop-color="#1190d9" offset="0"/>
  <stop stop-color="#73c4ef" offset="1"/>
 </linearGradient>
 <linearGradient id="a" x1="32" x2="32" y1="41" y2="23" gradientUnits="userSpaceOnUse">
  <stop stop-color="#cecece" offset="0"/>
  <stop stop-color="#ececec" offset="1"/>
 </linearGradient>
 <linearGradient id="b" x1="6" x2="6" y1="58" y2="6" gradientUnits="userSpaceOnUse">
  <stop stop-color="#98a7b0" offset="0"/>
  <stop stop-color="#dde1e3" offset="1"/>
 </linearGradient>
 <path d="m13.325 12.637c-3.8 0-5.756 1.757-6.135 5.413l-4.102 39.53c-0.307 2.965 2.399 5.38 5.38 5.38h47.062c2.98 0 5.687-2.415 5.38-5.38l-4.102-39.53c-0.379-3.656-2.335-5.413-6.135-5.413h-19.43z" filter="url(#c-3)" opacity=".35"/>
 <g stroke-width="7.315">
  <path d="m13.325 11.677c-3.8 0-5.756 1.757-6.135 5.413l-4.102 39.53c-0.307 2.965 2.399 5.38 5.38 5.38h47.062c2.98 0 5.687-2.415 5.38-5.38l-4.102-39.53c-0.379-3.656-2.335-5.413-6.135-5.413h-19.43z" fill="url(#d-9)"/>
  <path d="m9.533 53.574h4.713c6.422 4.372 13.079 4.367 19.792 4.367h11.626l8.835-3.686s0.84-3.226 0.463-3.132c-0.377 0.095-46.088 0-46.088 0z" fill-opacity=".084"/>
  <path d="m9.533 53.245h4.713c6.422 4.372 13.079 4.367 19.792 4.367h11.362l9.262-3.353s0.676-3.559 0.3-3.465c-0.378 0.095-46.089 0-46.089 0z" fill="url(#e-7)"/>
  <path d="m3.725 45.886v9.678a5.806 4.502 0 0 0 5.806 4.502 5.806 4.502 0 0 0 5.807-4.502v-9.678z" fill="#7a7b7b"/>
 </g>
 <g stroke-width=".393">
  <rect x="28.899" y="51.272" width="1.399" height="6.531" rx=".2" ry=".2" fill="url(#f-2)" style="paint-order:fill markers stroke"/>
  <rect x="31.365" y="51.272" width="1.399" height="6.531" rx=".2" ry=".2" fill="url(#g-7)" style="paint-order:fill markers stroke"/>
  <rect x="33.832" y="51.272" width="1.399" height="6.531" rx=".2" ry=".2" fill="url(#h-5)" style="paint-order:fill markers stroke"/>
  <rect x="36.298" y="51.272" width="1.399" height="6.531" rx=".2" ry=".2" fill="url(#i-9)" style="paint-order:fill markers stroke"/>
  <rect x="38.764" y="51.272" width="1.399" height="6.531" rx=".2" ry=".2" fill="url(#j-2)" style="paint-order:fill markers stroke"/>
  <rect x="41.229" y="51.272" width="1.399" height="6.531" rx=".2" ry=".2" fill="url(#k-2)" style="paint-order:fill markers stroke"/>
  <rect x="43.694" y="51.272" width="1.399" height="6.531" rx=".2" ry=".2" fill="url(#l-8)" style="paint-order:fill markers stroke"/>
 </g>
 <g stroke-width="7.315">
  <path d="m48.241 45.886v9.678a5.806 4.502 0 0 0 5.806 4.502 5.806 4.502 0 0 0 5.807-4.502v-9.678z" fill="#797a7a"/>
  <path d="m3.725 45.886v9.678a5.806 4.502 0 0 0 5.806 4.502 5.806 4.502 0 0 0 5.807-4.502v-9.678z" fill="url(#m-2)"/>
  <path d="m48.241 45.886v9.678a5.806 4.502 0 0 0 5.806 4.502 5.806 4.502 0 0 0 5.807-4.502v-9.678z" fill="url(#n-6)"/>
  <path d="m13.325 2c-3.8 0-5.756 1.757-6.135 5.413l-4.102 39.53c-0.307 2.965 2.399 5.38 5.38 5.38h47.062c2.98 0 5.687-2.415 5.38-5.38l-4.102-39.53c-0.378-3.656-2.334-5.413-6.134-5.413h-19.43z" fill="url(#o-1)"/>
  <path d="m50.882 7.067-0.996-0.913-10.3 11.474c-2.63 0.35-5.248 0.527-7.895 0.508-12.35-0.469-23.016 6.821-23.016 14.793 0 7.971 10.018 14.433 22.378 14.433s22.88-6.56 22.88-14.53a9.53 9.53 0 0 0-0.306-2.368z" fill="url(#p-8)" style="paint-order:fill markers stroke"/>
  <path d="m12.608 14.46 31.018 0.43-0.644-7.965c-7.837 0.791-26.614 1.819-29.77 6.926z" fill="#7a8285"/>
  <path d="m49.997 6.124-36.452 0.252-0.32 7.493 27.303 0.21-0.556 3.164-0.406 0.662c-0.793-0.06-4.24 0.441-5.055 0.386-13.308-0.903-24.5 6.095-24.5 13.825s9.429 13.996 21.059 13.996 21.53-6.36 21.53-14.089a9.5 9.5 0 0 0-0.286-2.296z" fill="url(#q-7)" style="paint-order:fill markers stroke"/>
  <path d="m15.527 7.041h22.599c0.369 0 0.643 0.297 0.665 0.665l0.285 4.627c0.022 0.368-0.297 0.666-0.666 0.666h-23.135c-0.368 0-0.685-0.298-0.665-0.666l0.251-4.627c0.029-0.367 0.297-0.665 0.666-0.665z" fill="#1f2021"/>
  <path d="m15.79 9.309h15.76v0.086h-15.76zm-0.066-1.244v0.121h0.095v-0.12zm8.302 0v0.314a0.199 0.199 0 0 0-0.076-0.08 0.22 0.22 0 0 0-0.11-0.022 0.205 0.205 0 0 0-0.17 0.083 0.344 0.344 0 0 0-0.068 0.22c0 0.09 0.024 0.166 0.068 0.222s0.1 0.084 0.17 0.084c0.043 0 0.08-0.01 0.11-0.027a0.194 0.194 0 0 0 0.076-0.076v0.087h0.094v-0.805zm1.444 0v0.121h0.098v-0.12zm0.843 0v0.805h0.098v-0.283l0.295 0.283h0.125l-0.322-0.31 0.306-0.272h-0.12l-0.284 0.254v-0.477zm-4.53 0.03v0.775h0.107v-0.37h0.378v0.37h0.106v-0.775h-0.106v0.318h-0.378v-0.318zm2.874 0v0.775h0.215c0.15 0 0.259-0.032 0.33-0.094 0.07-0.063 0.105-0.162 0.105-0.295s-0.032-0.229-0.102-0.291c-0.07-0.063-0.183-0.095-0.333-0.095zm-7.965 0.03v0.163h-0.072v0.076h0.072v0.314c0 0.072 0.014 0.123 0.042 0.15 0.027 0.028 0.077 0.042 0.15 0.042h0.1v-0.08h-0.1c-0.039 0-0.066-8e-3 -0.079-0.022-0.012-0.013-0.019-0.043-0.019-0.09v-0.314h0.197v-0.076h-0.197v-0.162zm3.243 0v0.163h-0.068v0.076h0.068v0.314c0 0.072 0.014 0.123 0.042 0.15 0.028 0.028 0.082 0.042 0.155 0.042h0.098v-0.08h-0.098c-0.04 0-0.066-8e-3 -0.08-0.022-0.012-0.013-0.018-0.043-0.018-0.09v-0.314h0.196v-0.076h-0.196v-0.162zm4.828 0.057h0.128c0.107 0 0.182 0.024 0.23 0.072 0.05 0.048 0.077 0.123 0.077 0.227s-0.026 0.182-0.076 0.23c-0.05 0.049-0.124 0.072-0.23 0.072h-0.13zm-8.464 0.095a0.213 0.213 0 0 0-0.185 0.102v-0.09h-0.099v0.581h0.099v-0.329c0-0.056 0.011-0.1 0.041-0.132a0.163 0.163 0 0 1 0.125-0.049c0.043 0 0.073 0.014 0.095 0.042a0.191 0.191 0 0 1 0.034 0.12v0.348h0.095v-0.35a0.28 0.28 0 0 0-0.053-0.182c-0.035-0.041-0.085-0.06-0.151-0.06zm1.05 0a0.268 0.268 0 0 0-0.207 0.083 0.322 0.322 0 0 0-0.076 0.227c0 0.092 0.026 0.161 0.08 0.215s0.13 0.083 0.223 0.083a0.534 0.534 0 0 0 0.211-0.045v-0.09a0.414 0.414 0 0 1-0.208 0.053c-0.062 0-0.111-0.016-0.147-0.05a0.227 0.227 0 0 1-0.06-0.151h0.438v-0.045a0.292 0.292 0 0 0-0.068-0.205 0.237 0.237 0 0 0-0.185-0.075zm0.696 0a0.23 0.23 0 0 0-0.113 0.026 0.19 0.19 0 0 0-0.08 0.076v-0.09h-0.098v0.581h0.099v-0.306c0-0.065 0.013-0.116 0.041-0.151a0.153 0.153 0 0 1 0.125-0.053c0.015 0 0.03 0 0.042 4e-3a0.113 0.113 0 0 1 0.033 0.015v-0.098a0.327 0.327 0 0 0-0.026-4e-3zm0.412 0c-0.04 0-0.074 9e-3 -0.105 0.026a0.236 0.236 0 0 0-0.084 0.076v-0.09h-0.094v0.581h0.094v-0.329c0-0.056 0.016-0.1 0.046-0.132 0.03-0.033 0.07-0.049 0.12-0.049 0.043 0 0.078 0.014 0.1 0.042 0.02 0.027 0.03 0.066 0.03 0.12v0.348h0.094v-0.35c0-0.08-0.016-0.14-0.05-0.182-0.034-0.041-0.084-0.06-0.15-0.06zm0.636 0a0.268 0.268 0 0 0-0.208 0.083 0.322 0.322 0 0 0-0.076 0.227c0 0.092 0.026 0.161 0.08 0.215a0.298 0.298 0 0 0 0.219 0.083 0.534 0.534 0 0 0 0.215-0.045v-0.09a0.414 0.414 0 0 1-0.208 0.053c-0.063 0-0.112-0.016-0.147-0.05a0.227 0.227 0 0 1-0.061-0.151h0.439v-0.045a0.292 0.292 0 0 0-0.069-0.205 0.237 0.237 0 0 0-0.185-0.075zm0.695 0a0.245 0.245 0 0 0-0.117 0.026 0.18 0.18 0 0 0-0.076 0.076v-0.09h-0.098v0.581h0.098v-0.306c0-0.065 0.013-0.116 0.042-0.151a0.153 0.153 0 0 1 0.125-0.053c0.015 0 0.029 0 0.041 4e-3a0.113 0.113 0 0 1 0.034 0.015v-0.098a0.327 0.327 0 0 0-0.026-4e-3zm0.81 0a0.268 0.268 0 0 0-0.209 0.083 0.322 0.322 0 0 0-0.075 0.227c0 0.092 0.025 0.161 0.079 0.215a0.298 0.298 0 0 0 0.22 0.083 0.534 0.534 0 0 0 0.215-0.045v-0.09a0.414 0.414 0 0 1-0.208 0.053c-0.063 0-0.112-0.016-0.148-0.05a0.227 0.227 0 0 1-0.06-0.151h0.438v-0.045a0.292 0.292 0 0 0-0.068-0.205 0.237 0.237 0 0 0-0.185-0.075zm0.695 0a0.245 0.245 0 0 0-0.118 0.026 0.18 0.18 0 0 0-0.075 0.076v-0.09h-0.098v0.581h0.098v-0.306c0-0.065 0.013-0.116 0.042-0.151a0.153 0.153 0 0 1 0.124-0.053c0.016 0 0.03 0 0.042 4e-3a0.126 0.126 0 0 1 0.034 0.015v-0.098a0.287 0.287 0 0 0-0.026-4e-3zm1.489 0a0.478 0.478 0 0 0-0.197 0.038v0.09a0.374 0.374 0 0 1 0.185-0.05c0.053 1e-3 0.093 0.015 0.122 0.039a0.128 0.128 0 0 1 0.045 0.102v8e-3h-0.136c-0.087 0-0.149 0.015-0.193 0.049a0.176 0.176 0 0 0-0.068 0.147c0 0.056 0.018 0.103 0.053 0.136s0.084 0.05 0.143 0.05c0.047 0 0.085-0.01 0.118-0.027a0.208 0.208 0 0 0 0.083-0.076v0.087h0.094v-0.332c0-0.089-0.022-0.153-0.064-0.197s-0.101-0.064-0.185-0.064zm0.733 0a0.245 0.245 0 0 0-0.117 0.026 0.19 0.19 0 0 0-0.08 0.076v-0.09h-0.094v0.581h0.095v-0.306c0-0.065 0.013-0.116 0.042-0.151a0.153 0.153 0 0 1 0.124-0.053c0.016 0 0.03 0 0.042 4e-3a0.15 0.15 0 0 1 0.038 0.015l-4e-3 -0.098a0.327 0.327 0 0 0-0.026-4e-3zm2.435 0a0.259 0.259 0 0 0-0.163 0.045 0.149 0.149 0 0 0-0.06 0.125c0 0.045 0.015 0.08 0.041 0.106 0.027 0.025 0.07 0.044 0.129 0.056l0.03 8e-3c0.06 0.013 0.1 0.028 0.117 0.042 0.018 0.013 0.026 0.03 0.026 0.056a0.078 0.078 0 0 1-0.038 0.068 0.19 0.19 0 0 1-0.102 0.023 0.528 0.528 0 0 1-0.208-0.057v0.099a0.78 0.78 0 0 0 0.205 0.037 0.284 0.284 0 0 0 0.173-0.049 0.147 0.147 0 0 0 0.068-0.125 0.151 0.151 0 0 0-0.045-0.113 0.306 0.306 0 0 0-0.144-0.06l-0.034-8e-3a0.312 0.312 0 0 1-0.102-0.034c-0.017-0.013-0.023-0.03-0.023-0.053 0-0.029 0.01-0.05 0.035-0.064a0.205 0.205 0 0 1 0.106-0.023 0.386 0.386 0 0 1 0.173 0.042v-0.09a0.394 0.394 0 0 0-0.083-0.024 0.647 0.647 0 0 0-0.102-7e-3zm-10.225 0.011v0.582h0.094v-0.582zm9.745 0v0.582h0.099v-0.582zm-8.116 0.068c0.047 0 0.081 0.014 0.11 0.046a0.182 0.182 0 0 1 0.045 0.124l-0.34 4e-3a0.198 0.198 0 0 1 0.056-0.128 0.182 0.182 0 0 1 0.129-0.046zm1.739 0c0.047 0 0.085 0.014 0.113 0.046a0.182 0.182 0 0 1 0.046 0.124l-0.34 4e-3a0.198 0.198 0 0 1 0.056-0.128 0.172 0.172 0 0 1 0.124-0.046zm1.504 0c0.047 0 0.086 0.014 0.114 0.046a0.182 0.182 0 0 1 0.045 0.124l-0.34 4e-3a0.196 0.196 0 0 1 0.053-0.128 0.181 0.181 0 0 1 0.128-0.046zm3.267 0c0.05 0 0.092 0.02 0.12 0.06a0.27 0.27 0 0 1 0.042 0.163c0 0.07-0.013 0.127-0.041 0.167-0.03 0.04-0.07 0.06-0.121 0.06a0.137 0.137 0 0 1-0.118-0.06 0.284 0.284 0 0 1-0.045-0.167 0.27 0.27 0 0 1 0.045-0.162c0.03-0.04 0.067-0.06 0.118-0.06zm-1.025 0.223h0.099v0.02a0.227 0.227 0 0 1-0.05 0.15 0.162 0.162 0 0 1-0.128 0.057 0.134 0.134 0 0 1-0.09-0.03 0.101 0.101 0 0 1-0.034-0.08c0-0.042 0.015-0.073 0.045-0.09a0.335 0.335 0 0 1 0.159-0.027zm-7.114 1.134v0.091h0.075v-0.09zm6.37 0v0.239a0.15 0.15 0 0 0-0.061-0.057 0.167 0.167 0 0 0-0.083-0.019 0.162 0.162 0 0 0-0.133 0.064 0.269 0.269 0 0 0-0.049 0.17c0 0.07 0.016 0.124 0.05 0.167a0.161 0.161 0 0 0 0.132 0.064 0.17 0.17 0 0 0 0.083-0.019 0.157 0.157 0 0 0 0.06-0.057v0.065h0.072v-0.617zm1.107 0v0.091h0.072v-0.09zm0.647 0v0.617h0.075v-0.216l0.223 0.216h0.098l-0.245-0.235 0.234-0.208h-0.094l-0.216 0.19v-0.364zm0.733 0v0.091h0.072v-0.09zm-4.207 0.023v0.594h0.079v-0.28h0.291v0.28h0.08v-0.594h-0.08v0.246h-0.291v-0.246zm2.203 0v0.594h0.167c0.114 0 0.199-0.024 0.253-0.072s0.08-0.121 0.08-0.223-0.026-0.18-0.08-0.227c-0.053-0.048-0.138-0.072-0.253-0.072zm-6.112 0.023v0.128h-0.053v0.057h0.053v0.238c0 0.056 0.012 0.096 0.033 0.117 0.022 0.021 0.058 0.03 0.114 0.03h0.075v-0.06h-0.075c-0.03 0-0.05-5e-3 -0.06-0.015s-0.013-0.036-0.013-0.072v-0.238h0.148v-0.057h-0.148v-0.127zm2.491 0v0.128h-0.053v0.057h0.053v0.238c0 0.056 9e-3 0.096 0.03 0.117s0.06 0.03 0.117 0.03h0.076v-0.06h-0.076c-0.03 0-0.05-5e-3 -0.06-0.015s-0.016-0.036-0.016-0.072v-0.238h0.151v-0.057h-0.15v-0.127zm6.366 0v0.128h-0.053v0.057h0.053v0.238c0 0.056 9e-3 0.096 0.03 0.117s0.06 0.03 0.117 0.03h0.076v-0.06h-0.076c-0.03 0-0.05-5e-3 -0.06-0.015s-0.016-0.036-0.016-0.072v-0.238h0.151v-0.057h-0.151v-0.127zm2.491 0v0.128h-0.057v0.057h0.057v0.238c0 0.056 9e-3 0.096 0.03 0.117s0.06 0.03 0.117 0.03h0.076v-0.06h-0.076c-0.03 0-0.05-5e-3 -0.06-0.015s-0.016-0.036-0.016-0.072v-0.238h0.151v-0.057h-0.15v-0.127zm-5.156 0.045h0.098c0.082 0 0.14 0.02 0.178 0.057s0.06 0.094 0.06 0.174-0.022 0.137-0.06 0.174-0.096 0.056-0.178 0.056h-0.098zm-6.49 0.072a0.17 0.17 0 0 0-0.084 0.019 0.18 0.18 0 0 0-0.06 0.06v-0.068h-0.076v0.443h0.075v-0.25c0-0.043 0.011-0.077 0.035-0.102a0.114 0.114 0 0 1 0.09-0.038c0.033 0 0.06 0.01 0.076 0.03 0.017 0.021 0.026 0.053 0.026 0.095v0.265h0.072v-0.269a0.214 0.214 0 0 0-0.042-0.14c-0.026-0.032-0.062-0.045-0.113-0.045zm0.804 0a0.205 0.205 0 0 0-0.158 0.064 0.25 0.25 0 0 0-0.061 0.174c0 0.07 0.023 0.125 0.064 0.166 0.042 0.042 0.096 0.06 0.167 0.06 0.028 0 0.06 0 0.087-7e-3a0.441 0.441 0 0 0 0.079-0.026v-0.068a0.378 0.378 0 0 1-0.159 0.041c-0.048 0-0.086-0.011-0.113-0.037a0.174 0.174 0 0 1-0.046-0.118h0.333v-0.034a0.229 0.229 0 0 0-0.053-0.158 0.175 0.175 0 0 0-0.14-0.057zm0.537 0a0.19 0.19 0 0 0-0.09 0.019 0.159 0.159 0 0 0-0.061 0.06v-0.068h-0.072v0.443h0.072v-0.235c0-0.05 0.012-0.086 0.034-0.113a0.115 0.115 0 0 1 0.095-0.042 0.12 0.12 0 0 1 0.03 4e-3c0.01 2e-3 0.018 7e-3 0.026 0.011v-0.075l-0.019-4e-3zm0.31 0a0.156 0.156 0 0 0-0.08 0.019 0.19 0.19 0 0 0-0.064 0.06v-0.068h-0.071v0.443h0.071v-0.25c0-0.043 0.015-0.077 0.038-0.102a0.114 0.114 0 0 1 0.091-0.038c0.033 0 0.06 0.01 0.076 0.03 0.017 0.021 0.022 0.053 0.022 0.095v0.265h0.076v-0.269a0.214 0.214 0 0 0-0.042-0.14c-0.026-0.032-0.065-0.045-0.117-0.045zm0.488 0a0.205 0.205 0 0 0-0.159 0.064 0.249 0.249 0 0 0-0.057 0.174c0 0.07 0.019 0.125 0.06 0.166 0.042 0.042 0.1 0.06 0.17 0.06a0.405 0.405 0 0 0 0.084-7e-3 0.441 0.441 0 0 0 0.08-0.026v-0.068a0.338 0.338 0 0 1-0.16 0.041c-0.048 0-0.085-0.011-0.113-0.037a0.174 0.174 0 0 1-0.045-0.118h0.336v-0.034a0.229 0.229 0 0 0-0.052-0.158 0.184 0.184 0 0 0-0.144-0.057zm0.537 0a0.192 0.192 0 0 0-0.091 0.019 0.142 0.142 0 0 0-0.057 0.06v-0.068h-0.076v0.443h0.076v-0.235c0-0.05 8e-3 -0.086 0.03-0.113a0.115 0.115 0 0 1 0.094-0.042c0.011 0 0.024 2e-3 0.035 4e-3 0.01 2e-3 0.018 7e-3 0.026 0.011v-0.075l-0.019-4e-3h-0.019zm0.62 0a0.205 0.205 0 0 0-0.16 0.064 0.25 0.25 0 0 0-0.06 0.174c0 0.07 0.023 0.125 0.064 0.166 0.042 0.042 0.096 0.06 0.167 0.06a0.405 0.405 0 0 0 0.166-0.033v-0.068a0.378 0.378 0 0 1-0.162 0.041c-0.049 0-0.087-0.011-0.114-0.037a0.174 0.174 0 0 1-0.045-0.118h0.336v-0.034a0.229 0.229 0 0 0-0.052-0.158 0.175 0.175 0 0 0-0.14-0.057zm0.533 0a0.175 0.175 0 0 0-0.087 0.019 0.159 0.159 0 0 0-0.061 0.06v-0.068h-0.076v0.443h0.076v-0.235c0-0.05 8e-3 -0.086 0.03-0.113a0.123 0.123 0 0 1 0.098-0.042 0.12 0.12 0 0 1 0.03 4e-3c0.01 2e-3 0.019 7e-3 0.027 0.011v-0.075l-0.02-4e-3h-0.018zm1.141 0a0.378 0.378 0 0 0-0.151 0.03v0.068a0.316 0.316 0 0 1 0.144-0.038c0.04 0 0.068 8e-3 0.09 0.027a0.098 0.098 0 0 1 0.035 0.08v7e-3h-0.102c-0.067 0-0.114 0.012-0.148 0.038a0.137 0.137 0 0 0-0.052 0.113c0 0.043 0.014 0.076 0.041 0.102a0.155 0.155 0 0 0 0.11 0.038 0.197 0.197 0 0 0 0.09-0.019 0.159 0.159 0 0 0 0.061-0.06v0.068h0.076v-0.254c0-0.068-0.017-0.118-0.049-0.151-0.031-0.033-0.08-0.05-0.144-0.05zm0.564 0a0.192 0.192 0 0 0-0.091 0.019 0.15 0.15 0 0 0-0.06 0.06v-0.068h-0.073v0.443h0.072v-0.235c0-0.05 0.013-0.086 0.034-0.113a0.115 0.115 0 0 1 0.095-0.042c0.011 0 0.024 2e-3 0.034 4e-3s0.018 7e-3 0.026 0.011v-0.075l-0.023-4e-3h-0.015zm1.867 0a0.2 0.2 0 0 0-0.125 0.034 0.11 0.11 0 0 0-0.045 0.094c0 0.035 0.01 0.064 0.03 0.084s0.053 0.032 0.098 0.041l0.027 8e-3c0.045 0.01 0.073 0.02 0.087 0.03 0.013 0.01 0.019 0.025 0.019 0.045a0.054 0.054 0 0 1-0.027 0.05 0.147 0.147 0 0 1-0.08 0.018 0.38 0.38 0 0 1-0.159-0.042v0.076a0.593 0.593 0 0 0 0.16 0.027c0.057 0 0.1-0.01 0.132-0.034a0.115 0.115 0 0 0 0.05-0.099c0-0.036-9e-3 -0.066-0.03-0.087a0.25 0.25 0 0 0-0.114-0.045l-0.023-7e-3a0.252 0.252 0 0 1-0.08-0.027 0.043 0.043 0 0 1-0.018-0.038 0.06 0.06 0 0 1 0.026-0.053 0.168 0.168 0 0 1 0.083-0.015 0.293 0.293 0 0 1 0.133 0.03v-0.068a0.3 0.3 0 0 0-0.065-0.018c-0.024-4e-3 -0.052-4e-3 -0.08-4e-3zm1.452 0a0.156 0.156 0 0 0-0.08 0.019 0.19 0.19 0 0 0-0.064 0.06v-0.068h-0.072v0.443h0.072v-0.25c0-0.043 0.01-0.077 0.034-0.102a0.122 0.122 0 0 1 0.095-0.038c0.033 0 0.059 0.01 0.075 0.03 0.017 0.021 0.023 0.053 0.023 0.095v0.265h0.076v-0.269h-4e-3c0-0.061-0.012-0.108-0.038-0.14-0.027-0.032-0.066-0.045-0.117-0.045zm0.809 0a0.205 0.205 0 0 0-0.16 0.064 0.25 0.25 0 0 0-0.06 0.174c0 0.07 0.023 0.125 0.065 0.166 0.041 0.042 0.095 0.06 0.166 0.06a0.405 0.405 0 0 0 0.166-0.033v-0.068a0.378 0.378 0 0 1-0.162 0.041c-0.049 0-0.086-0.011-0.114-0.037a0.174 0.174 0 0 1-0.045-0.118h0.336v-0.034a0.229 0.229 0 0 0-0.052-0.158 0.175 0.175 0 0 0-0.14-0.057zm0.533 0a0.176 0.176 0 0 0-0.087 0.019 0.15 0.15 0 0 0-0.061 0.06v-0.068h-0.076v0.443h0.076v-0.235c0-0.05 8e-3 -0.086 0.03-0.113a0.123 0.123 0 0 1 0.098-0.042 0.12 0.12 0 0 1 0.03 4e-3c0.01 2e-3 0.019 7e-3 0.027 0.011v-0.075l-0.02-4e-3h-0.018zm0.313 0a0.17 0.17 0 0 0-0.083 0.019 0.18 0.18 0 0 0-0.06 0.06v-0.068h-0.072v0.443h0.071v-0.25c0-0.043 0.011-0.077 0.035-0.102a0.122 0.122 0 0 1 0.094-0.038c0.033 0 0.06 0.01 0.076 0.03 0.017 0.021 0.023 0.053 0.023 0.095v0.265h0.071v-0.269c0-0.061-0.011-0.108-0.038-0.14-0.026-0.032-0.065-0.045-0.117-0.045zm0.488 0a0.205 0.205 0 0 0-0.159 0.064 0.249 0.249 0 0 0-0.057 0.174c0 0.07 0.02 0.125 0.061 0.166 0.042 0.042 0.1 0.06 0.17 0.06a0.405 0.405 0 0 0 0.083-7e-3 0.441 0.441 0 0 0 0.08-0.026v-0.068a0.378 0.378 0 0 1-0.16 0.041c-0.047 0-0.085-0.011-0.113-0.037a0.174 0.174 0 0 1-0.045-0.118h0.337v-0.034a0.229 0.229 0 0 0-0.053-0.158 0.184 0.184 0 0 0-0.144-0.057zm0.537 0a0.192 0.192 0 0 0-0.09 0.019 0.15 0.15 0 0 0-0.062 0.06v-0.068h-0.071v0.443h0.071v-0.235c0-0.05 0.013-0.086 0.035-0.113a0.115 0.115 0 0 1 0.094-0.042 0.12 0.12 0 0 1 0.03 4e-3c0.01 2e-3 0.022 7e-3 0.03 0.011v-0.075l-0.022-4e-3h-0.016zm0.616 0a0.205 0.205 0 0 0-0.159 0.064 0.249 0.249 0 0 0-0.057 0.174c0 0.07 0.02 0.125 0.06 0.166 0.043 0.042 0.1 0.06 0.171 0.06a0.404 0.404 0 0 0 0.083-7e-3 0.441 0.441 0 0 0 0.08-0.026v-0.068a0.338 0.338 0 0 1-0.16 0.041c-0.047 0-0.085-0.011-0.113-0.037a0.174 0.174 0 0 1-0.045-0.118h0.337v-0.034a0.229 0.229 0 0 0-0.053-0.158 0.184 0.184 0 0 0-0.144-0.057zm0.537 0a0.192 0.192 0 0 0-0.09 0.019 0.142 0.142 0 0 0-0.058 0.06v-0.068h-0.076v0.443h0.076v-0.235c0-0.05 8e-3 -0.086 0.03-0.113a0.115 0.115 0 0 1 0.095-0.042c0.01 0 0.024 2e-3 0.034 4e-3s0.018 7e-3 0.026 0.011v-0.075l-0.019-4e-3h-0.019zm-13.13 0.011v0.443h0.076v-0.443zm7.478 0v0.443h0.071v-0.443zm1.38 0v0.443h0.071v-0.443zm-7.61 0.05c0.036 0 0.065 0.013 0.087 0.037a0.137 0.137 0 0 1 0.034 0.095h-0.26a0.15 0.15 0 0 1 0.041-0.098 0.136 0.136 0 0 1 0.099-0.034zm1.338 0c0.036 0 0.066 0.013 0.087 0.037a0.137 0.137 0 0 1 0.035 0.095h-0.261a0.147 0.147 0 0 1 0.042-0.098 0.136 0.136 0 0 1 0.098-0.034zm1.153 0c0.036 0 0.066 0.013 0.087 0.037a0.133 0.133 0 0 1 0.034 0.095h-0.26a0.147 0.147 0 0 1 0.04-0.098 0.136 0.136 0 0 1 0.1-0.034zm2.507 0c0.038 0 0.068 0.014 0.09 0.045 0.023 0.03 0.035 0.075 0.035 0.128a0.203 0.203 0 0 1-0.035 0.125c-0.022 0.03-0.052 0.045-0.09 0.045s-0.068-0.014-0.091-0.045a0.208 0.208 0 0 1-0.034-0.125 0.22 0.22 0 0 1 0.034-0.128 0.105 0.105 0 0 1 0.09-0.046zm3.86 0c0.035 0 0.065 0.013 0.086 0.037a0.137 0.137 0 0 1 0.035 0.095h-0.261a0.15 0.15 0 0 1 0.042-0.098 0.136 0.136 0 0 1 0.098-0.034zm1.338 0c0.035 0 0.061 0.013 0.083 0.037a0.137 0.137 0 0 1 0.034 0.095h-0.26a0.153 0.153 0 0 1 0.045-0.098 0.136 0.136 0 0 1 0.098-0.034zm1.153 0c0.035 0 0.065 0.013 0.087 0.037a0.137 0.137 0 0 1 0.034 0.095h-0.261a0.15 0.15 0 0 1 0.042-0.098 0.136 0.136 0 0 1 0.098-0.034zm-7.137 0.17h0.071v0.015c0 0.047-0.01 0.088-0.034 0.117a0.122 0.122 0 0 1-0.099 0.041 0.105 0.105 0 0 1-0.071-0.022c-0.017-0.016-0.023-0.035-0.023-0.06 0-0.033 0.011-0.059 0.035-0.073 0.022-0.013 0.062-0.018 0.12-0.018zm-5.46 0.415v0.091h0.076v-0.09zm6.37 0v0.239a0.15 0.15 0 0 0-0.06-0.057 0.167 0.167 0 0 0-0.083-0.019 0.162 0.162 0 0 0-0.133 0.064 0.269 0.269 0 0 0-0.049 0.17c0 0.07 0.016 0.124 0.05 0.167a0.161 0.161 0 0 0 0.132 0.064 0.17 0.17 0 0 0 0.083-0.019 0.157 0.157 0 0 0 0.06-0.057v0.065h0.072v-0.617zm1.108 0v0.091h0.072v-0.09zm0.647 0v0.617h0.075v-0.216l0.223 0.216h0.098l-0.245-0.235 0.234-0.208h-0.094l-0.216 0.19v-0.364zm0.733 0v0.091h0.072v-0.09zm-4.207 0.023v0.594h0.079v-0.28h0.291v0.28h0.08v-0.594h-0.08v0.246h-0.291v-0.246zm2.203 0v0.594h0.167c0.114 0 0.199-0.024 0.253-0.072s0.08-0.121 0.08-0.223-0.026-0.18-0.08-0.227c-0.053-0.048-0.138-0.072-0.253-0.072zm-6.112 0.023v0.128h-0.053v0.057h0.053v0.238c0 0.056 0.012 0.096 0.033 0.117 0.022 0.021 0.058 0.03 0.114 0.03h0.075v-0.06h-0.075c-0.03 0-0.05-5e-3 -0.06-0.015s-0.013-0.036-0.013-0.072v-0.238h0.148v-0.057h-0.148v-0.128zm2.491 0v0.128h-0.053v0.057h0.053v0.238c0 0.056 9e-3 0.096 0.03 0.117s0.06 0.03 0.117 0.03h0.076v-0.06h-0.076c-0.03 0-0.05-5e-3 -0.06-0.015s-0.016-0.036-0.016-0.072v-0.238h0.151v-0.057h-0.15v-0.128zm6.366 0v0.128h-0.053v0.057h0.053v0.238c0 0.056 9e-3 0.096 0.03 0.117s0.06 0.03 0.117 0.03h0.076v-0.06h-0.076c-0.03 0-0.05-5e-3 -0.06-0.015s-0.016-0.036-0.016-0.072v-0.238h0.151v-0.057h-0.151v-0.128zm2.491 0v0.128h-0.057v0.057h0.057v0.238c0 0.056 9e-3 0.096 0.03 0.117s0.06 0.03 0.117 0.03h0.076v-0.06h-0.076c-0.03 0-0.05-5e-3 -0.06-0.015s-0.016-0.036-0.016-0.072v-0.238h0.151v-0.057h-0.15v-0.128zm-5.156 0.045h0.098c0.082 0 0.14 0.02 0.178 0.057s0.06 0.094 0.06 0.174-0.022 0.137-0.06 0.174-0.096 0.056-0.178 0.056h-0.098zm-6.49 0.072a0.17 0.17 0 0 0-0.084 0.019 0.18 0.18 0 0 0-0.06 0.06v-0.068h-0.076v0.443h0.075v-0.25c0-0.043 0.011-0.077 0.035-0.102a0.114 0.114 0 0 1 0.09-0.038c0.033 0 0.06 0.01 0.076 0.03 0.017 0.021 0.026 0.053 0.026 0.095v0.265h0.072v-0.269a0.214 0.214 0 0 0-0.042-0.14c-0.026-0.032-0.062-0.045-0.113-0.045zm0.804 0a0.205 0.205 0 0 0-0.158 0.064 0.25 0.25 0 0 0-0.061 0.174c0 0.07 0.023 0.125 0.064 0.166 0.042 0.042 0.096 0.06 0.167 0.06 0.028 0 0.06 0 0.087-7e-3a0.441 0.441 0 0 0 0.079-0.026v-0.068a0.378 0.378 0 0 1-0.159 0.041c-0.048 0-0.086-0.011-0.113-0.037a0.174 0.174 0 0 1-0.046-0.118h0.333v-0.034a0.229 0.229 0 0 0-0.053-0.158 0.175 0.175 0 0 0-0.14-0.057zm0.537 0a0.19 0.19 0 0 0-0.09 0.019 0.159 0.159 0 0 0-0.061 0.06v-0.068h-0.072v0.443h0.072v-0.235c0-0.05 0.012-0.086 0.034-0.113a0.115 0.115 0 0 1 0.095-0.042 0.12 0.12 0 0 1 0.03 4e-3c0.01 2e-3 0.018 7e-3 0.026 0.011v-0.075c-8e-3 -2e-3 -0.013-4e-3 -0.019-4e-3zm0.31 0a0.155 0.155 0 0 0-0.08 0.019 0.19 0.19 0 0 0-0.064 0.06v-0.068h-0.071v0.443h0.071v-0.25c0-0.043 0.015-0.077 0.038-0.102a0.114 0.114 0 0 1 0.091-0.038c0.033 0 0.06 0.01 0.076 0.03 0.017 0.021 0.022 0.053 0.022 0.095v0.265h0.076v-0.269a0.214 0.214 0 0 0-0.042-0.14c-0.026-0.032-0.065-0.045-0.117-0.045zm0.488 0a0.205 0.205 0 0 0-0.159 0.064 0.249 0.249 0 0 0-0.057 0.174c0 0.07 0.019 0.125 0.06 0.166 0.042 0.042 0.1 0.06 0.17 0.06a0.404 0.404 0 0 0 0.084-7e-3 0.441 0.441 0 0 0 0.08-0.026v-0.068a0.338 0.338 0 0 1-0.16 0.041c-0.048 0-0.085-0.011-0.113-0.037a0.174 0.174 0 0 1-0.045-0.118h0.336v-0.034a0.229 0.229 0 0 0-0.052-0.158 0.184 0.184 0 0 0-0.144-0.057zm0.537 0a0.192 0.192 0 0 0-0.091 0.019 0.142 0.142 0 0 0-0.057 0.06v-0.068h-0.076v0.443h0.076v-0.235c0-0.05 8e-3 -0.086 0.03-0.113a0.115 0.115 0 0 1 0.094-0.042c0.011 0 0.024 2e-3 0.035 4e-3 0.01 2e-3 0.018 7e-3 0.026 0.011v-0.075c-8e-3 -2e-3 -0.013-4e-3 -0.019-4e-3h-0.019zm0.62 0a0.205 0.205 0 0 0-0.16 0.064 0.25 0.25 0 0 0-0.06 0.174c0 0.07 0.023 0.125 0.065 0.166 0.041 0.042 0.095 0.06 0.166 0.06a0.405 0.405 0 0 0 0.166-0.033v-0.068a0.378 0.378 0 0 1-0.162 0.041c-0.049 0-0.087-0.011-0.114-0.037a0.174 0.174 0 0 1-0.045-0.118h0.336v-0.034a0.229 0.229 0 0 0-0.052-0.158 0.175 0.175 0 0 0-0.14-0.057zm0.533 0a0.175 0.175 0 0 0-0.087 0.019 0.159 0.159 0 0 0-0.061 0.06v-0.068h-0.076v0.443h0.076v-0.235c0-0.05 8e-3 -0.086 0.03-0.113a0.123 0.123 0 0 1 0.098-0.042 0.12 0.12 0 0 1 0.03 4e-3c0.01 2e-3 0.019 7e-3 0.027 0.011v-0.075c-8e-3 -2e-3 -0.014-4e-3 -0.02-4e-3h-0.018zm1.141 0a0.377 0.377 0 0 0-0.15 0.03v0.068a0.316 0.316 0 0 1 0.144-0.038c0.039 0 0.067 8e-3 0.09 0.027a0.098 0.098 0 0 1 0.034 0.08v7e-3h-0.102c-0.067 0-0.114 0.012-0.148 0.038a0.137 0.137 0 0 0-0.052 0.113c0 0.043 0.014 0.076 0.041 0.102a0.155 0.155 0 0 0 0.11 0.038 0.197 0.197 0 0 0 0.09-0.019 0.159 0.159 0 0 0 0.061-0.06v0.067h0.076v-0.253c0-0.068-0.017-0.118-0.049-0.151-0.031-0.033-0.08-0.05-0.144-0.05zm0.564 0a0.192 0.192 0 0 0-0.091 0.019 0.15 0.15 0 0 0-0.06 0.06v-0.068h-0.073v0.443h0.072v-0.235c0-0.05 0.013-0.086 0.034-0.113a0.115 0.115 0 0 1 0.095-0.042 0.15 0.15 0 0 1 0.034 4e-3c0.01 2e-3 0.018 7e-3 0.026 0.011v-0.075c-8e-3 -2e-3 -0.017-4e-3 -0.023-4e-3h-0.015zm1.867 0a0.2 0.2 0 0 0-0.125 0.034 0.11 0.11 0 0 0-0.045 0.094c0 0.035 0.01 0.064 0.03 0.084s0.053 0.032 0.098 0.041l0.027 8e-3c0.045 0.01 0.073 0.02 0.087 0.03 0.013 0.01 0.019 0.025 0.019 0.045a0.054 0.054 0 0 1-0.027 0.05 0.147 0.147 0 0 1-0.08 0.018 0.38 0.38 0 0 1-0.159-0.042v0.076a0.593 0.593 0 0 0 0.16 0.027c0.057 0 0.1-0.01 0.132-0.034a0.115 0.115 0 0 0 0.05-0.099c0-0.036-9e-3 -0.066-0.03-0.087a0.25 0.25 0 0 0-0.114-0.045l-0.023-7e-3a0.252 0.252 0 0 1-0.08-0.027 0.043 0.043 0 0 1-0.018-0.038 0.06 0.06 0 0 1 0.026-0.053 0.168 0.168 0 0 1 0.083-0.015 0.293 0.293 0 0 1 0.133 0.03v-0.068a0.3 0.3 0 0 0-0.065-0.018c-0.024-4e-3 -0.052-4e-3 -0.08-4e-3zm1.452 0a0.155 0.155 0 0 0-0.08 0.019 0.19 0.19 0 0 0-0.064 0.06v-0.068h-0.072v0.443h0.072v-0.25c0-0.043 0.01-0.077 0.034-0.102a0.122 0.122 0 0 1 0.095-0.038c0.033 0 0.059 0.01 0.075 0.03 0.017 0.021 0.023 0.053 0.023 0.095v0.265h0.076v-0.269h-4e-3c0-0.061-0.012-0.108-0.038-0.14-0.027-0.032-0.066-0.045-0.117-0.045zm0.809 0a0.205 0.205 0 0 0-0.16 0.064 0.25 0.25 0 0 0-0.06 0.174c0 0.07 0.023 0.125 0.065 0.166 0.041 0.042 0.095 0.06 0.166 0.06a0.405 0.405 0 0 0 0.166-0.033v-0.068a0.378 0.378 0 0 1-0.162 0.041c-0.049 0-0.086-0.011-0.114-0.037a0.174 0.174 0 0 1-0.045-0.118h0.336v-0.034a0.229 0.229 0 0 0-0.052-0.158 0.175 0.175 0 0 0-0.14-0.057zm0.533 0a0.176 0.176 0 0 0-0.087 0.019 0.15 0.15 0 0 0-0.061 0.06v-0.068h-0.076v0.443h0.076v-0.235c0-0.05 8e-3 -0.086 0.03-0.113a0.123 0.123 0 0 1 0.098-0.042 0.12 0.12 0 0 1 0.03 4e-3c0.01 2e-3 0.019 7e-3 0.027 0.011v-0.075c-8e-3 -2e-3 -0.014-4e-3 -0.02-4e-3h-0.018zm0.313 0a0.17 0.17 0 0 0-0.083 0.019 0.18 0.18 0 0 0-0.06 0.06v-0.068h-0.072v0.443h0.072v-0.25c0-0.043 0.01-0.077 0.034-0.102a0.122 0.122 0 0 1 0.094-0.038c0.033 0 0.06 0.01 0.076 0.03 0.017 0.021 0.023 0.053 0.023 0.095v0.265h0.071v-0.269c0-0.061-0.011-0.108-0.038-0.14-0.026-0.032-0.065-0.045-0.117-0.045zm0.488 0a0.205 0.205 0 0 0-0.159 0.064 0.249 0.249 0 0 0-0.057 0.174c0 0.07 0.02 0.125 0.061 0.166 0.042 0.042 0.1 0.06 0.17 0.06a0.404 0.404 0 0 0 0.083-7e-3 0.441 0.441 0 0 0 0.08-0.026v-0.068a0.378 0.378 0 0 1-0.16 0.041c-0.047 0-0.085-0.011-0.113-0.037a0.174 0.174 0 0 1-0.045-0.118h0.337v-0.034a0.229 0.229 0 0 0-0.053-0.158 0.184 0.184 0 0 0-0.144-0.057zm0.537 0a0.192 0.192 0 0 0-0.09 0.019 0.15 0.15 0 0 0-0.062 0.06v-0.068h-0.071v0.443h0.071v-0.235c0-0.05 0.013-0.086 0.035-0.113a0.115 0.115 0 0 1 0.094-0.042 0.12 0.12 0 0 1 0.03 4e-3c0.01 2e-3 0.022 7e-3 0.03 0.011v-0.075l-0.022-4e-3h-0.016zm0.616 0a0.205 0.205 0 0 0-0.159 0.064 0.249 0.249 0 0 0-0.057 0.174c0 0.07 0.02 0.125 0.06 0.166 0.043 0.042 0.1 0.06 0.171 0.06a0.405 0.405 0 0 0 0.083-7e-3 0.441 0.441 0 0 0 0.08-0.026v-0.068a0.338 0.338 0 0 1-0.16 0.041c-0.047 0-0.085-0.011-0.112-0.037a0.174 0.174 0 0 1-0.046-0.118h0.337v-0.034a0.229 0.229 0 0 0-0.053-0.158 0.184 0.184 0 0 0-0.144-0.057zm0.537 0a0.192 0.192 0 0 0-0.09 0.019 0.142 0.142 0 0 0-0.058 0.06v-0.068h-0.076v0.443h0.076v-0.235c0-0.05 8e-3 -0.086 0.03-0.113a0.115 0.115 0 0 1 0.095-0.042c0.01 0 0.024 2e-3 0.034 4e-3s0.018 7e-3 0.026 0.011v-0.075c-8e-3 -2e-3 -0.013-4e-3 -0.019-4e-3h-0.019zm-13.13 0.011v0.443h0.076v-0.443zm7.478 0v0.443h0.072v-0.443zm1.38 0v0.443h0.071v-0.443zm-7.61 0.05c0.036 0 0.065 0.013 0.087 0.037a0.137 0.137 0 0 1 0.035 0.095h-0.261a0.15 0.15 0 0 1 0.041-0.098 0.136 0.136 0 0 1 0.099-0.035zm1.338 0c0.036 0 0.066 0.013 0.087 0.037a0.137 0.137 0 0 1 0.035 0.095h-0.261a0.147 0.147 0 0 1 0.042-0.098 0.136 0.136 0 0 1 0.098-0.035zm1.153 0c0.036 0 0.066 0.013 0.087 0.037a0.133 0.133 0 0 1 0.034 0.095h-0.26a0.147 0.147 0 0 1 0.041-0.098 0.136 0.136 0 0 1 0.098-0.035zm2.507 0c0.038 0 0.068 0.014 0.09 0.045 0.023 0.03 0.035 0.075 0.035 0.128a0.203 0.203 0 0 1-0.035 0.125c-0.022 0.03-0.052 0.045-0.09 0.045s-0.068-0.014-0.091-0.045a0.208 0.208 0 0 1-0.034-0.125 0.22 0.22 0 0 1 0.034-0.128 0.105 0.105 0 0 1 0.09-0.046zm3.86 0c0.035 0 0.065 0.013 0.086 0.037a0.137 0.137 0 0 1 0.035 0.095h-0.261a0.15 0.15 0 0 1 0.042-0.098 0.136 0.136 0 0 1 0.098-0.035zm1.338 0c0.035 0 0.061 0.013 0.083 0.037a0.137 0.137 0 0 1 0.034 0.095h-0.26a0.153 0.153 0 0 1 0.045-0.098 0.136 0.136 0 0 1 0.098-0.035zm1.153 0c0.035 0 0.065 0.013 0.087 0.037a0.137 0.137 0 0 1 0.034 0.095h-0.261a0.15 0.15 0 0 1 0.042-0.098 0.136 0.136 0 0 1 0.098-0.035zm-7.137 0.17h0.071v0.015c0 0.047-0.01 0.088-0.034 0.117a0.122 0.122 0 0 1-0.098 0.041 0.105 0.105 0 0 1-0.072-0.022c-0.017-0.016-0.023-0.035-0.023-0.06 0-0.033 0.011-0.059 0.035-0.073 0.022-0.013 0.062-0.018 0.12-0.018zm-5.46 0.415v0.091h0.076v-0.09zm6.37 0v0.239a0.15 0.15 0 0 0-0.06-0.057 0.167 0.167 0 0 0-0.083-0.019 0.162 0.162 0 0 0-0.133 0.064 0.269 0.269 0 0 0-0.049 0.17c0 0.07 0.016 0.124 0.05 0.167a0.161 0.161 0 0 0 0.132 0.064 0.17 0.17 0 0 0 0.083-0.019 0.157 0.157 0 0 0 0.06-0.057v0.065h0.072v-0.617zm1.108 0v0.091h0.072v-0.09zm0.647 0v0.617h0.075v-0.216l0.223 0.216h0.099l-0.246-0.235 0.234-0.208h-0.094l-0.216 0.19v-0.364zm0.733 0v0.091h0.072v-0.09zm-4.207 0.023v0.594h0.079v-0.28h0.291v0.28h0.08v-0.594h-0.08v0.246h-0.291v-0.246zm2.203 0v0.594h0.167c0.114 0 0.2-0.024 0.253-0.072 0.054-0.048 0.08-0.121 0.08-0.223s-0.026-0.18-0.08-0.227c-0.053-0.048-0.138-0.072-0.253-0.072zm-6.112 0.023v0.128h-0.053v0.057h0.053v0.238c0 0.056 0.012 0.096 0.033 0.117 0.022 0.021 0.058 0.03 0.114 0.03h0.075v-0.06h-0.075c-0.03 0-0.05-5e-3 -0.06-0.015s-0.013-0.036-0.013-0.072v-0.238h0.148v-0.057h-0.148v-0.128zm2.491 0v0.128h-0.053v0.057h0.053v0.238c0 0.056 9e-3 0.096 0.03 0.117s0.06 0.03 0.117 0.03h0.076v-0.06h-0.076c-0.03 0-0.05-5e-3 -0.06-0.015s-0.016-0.036-0.016-0.072v-0.238h0.151v-0.057h-0.15v-0.128zm6.366 0v0.128h-0.053v0.057h0.053v0.238c0 0.056 9e-3 0.096 0.03 0.117s0.06 0.03 0.117 0.03h0.076v-0.06h-0.076c-0.03 0-0.05-5e-3 -0.06-0.015s-0.016-0.036-0.016-0.072v-0.238h0.151v-0.057h-0.151v-0.128zm2.491 0v0.128h-0.057v0.057h0.057v0.238c0 0.056 9e-3 0.096 0.03 0.117s0.06 0.03 0.117 0.03h0.076v-0.06h-0.076c-0.03 0-0.05-5e-3 -0.06-0.015s-0.016-0.036-0.016-0.072v-0.238h0.151v-0.057h-0.15v-0.128zm2.764 0v0.128h-0.058v0.057h0.058v0.238c0 0.056 8e-3 0.096 0.03 0.117 0.02 0.021 0.06 0.03 0.117 0.03h0.075v-0.06h-0.075c-0.03 0-0.05-5e-3 -0.061-0.015-0.01-0.01-0.015-0.036-0.015-0.072v-0.238h0.15v-0.057h-0.15v-0.128zm-7.92 0.045h0.098c0.082 0 0.14 0.02 0.178 0.057s0.06 0.094 0.06 0.174-0.022 0.137-0.06 0.174-0.096 0.056-0.178 0.056h-0.098zm-6.49 0.072a0.17 0.17 0 0 0-0.084 0.019 0.18 0.18 0 0 0-0.06 0.06v-0.068h-0.076v0.443h0.075v-0.25c0-0.043 0.011-0.077 0.035-0.102a0.114 0.114 0 0 1 0.09-0.038c0.033 0 0.06 0.01 0.076 0.03 0.017 0.021 0.026 0.053 0.026 0.095v0.265h0.072v-0.269a0.214 0.214 0 0 0-0.042-0.14c-0.026-0.032-0.062-0.045-0.113-0.045zm0.804 0a0.205 0.205 0 0 0-0.158 0.064 0.25 0.25 0 0 0-0.061 0.174c0 0.07 0.023 0.125 0.064 0.166 0.042 0.042 0.096 0.06 0.167 0.06 0.028 0 0.06 0 0.087-7e-3a0.441 0.441 0 0 0 0.079-0.026v-0.068a0.378 0.378 0 0 1-0.159 0.041c-0.048 0-0.086-0.011-0.113-0.037a0.174 0.174 0 0 1-0.046-0.118h0.333v-0.034a0.229 0.229 0 0 0-0.053-0.158 0.175 0.175 0 0 0-0.14-0.057zm0.537 0a0.19 0.19 0 0 0-0.09 0.019 0.159 0.159 0 0 0-0.061 0.06v-0.068h-0.072v0.443h0.072v-0.235c0-0.05 0.012-0.086 0.034-0.113a0.115 0.115 0 0 1 0.095-0.042 0.12 0.12 0 0 1 0.03 4e-3c0.01 2e-3 0.018 7e-3 0.026 0.011v-0.075l-0.019-4e-3zm0.31 0a0.155 0.155 0 0 0-0.08 0.019 0.19 0.19 0 0 0-0.064 0.06v-0.068h-0.071v0.443h0.071v-0.25c0-0.043 0.015-0.077 0.038-0.102a0.114 0.114 0 0 1 0.091-0.038c0.033 0 0.06 0.01 0.076 0.03 0.017 0.021 0.023 0.053 0.023 0.095v0.265h0.075v-0.269a0.214 0.214 0 0 0-0.042-0.14c-0.026-0.032-0.065-0.045-0.117-0.045zm0.488 0a0.205 0.205 0 0 0-0.159 0.064 0.249 0.249 0 0 0-0.057 0.174c0 0.07 0.019 0.125 0.06 0.166 0.042 0.042 0.1 0.06 0.17 0.06a0.405 0.405 0 0 0 0.084-7e-3 0.441 0.441 0 0 0 0.08-0.026v-0.068a0.338 0.338 0 0 1-0.16 0.041c-0.048 0-0.085-0.011-0.113-0.037a0.174 0.174 0 0 1-0.045-0.118h0.336v-0.034a0.229 0.229 0 0 0-0.052-0.158 0.184 0.184 0 0 0-0.144-0.057zm0.537 0a0.192 0.192 0 0 0-0.091 0.019 0.142 0.142 0 0 0-0.057 0.06v-0.068h-0.076v0.443h0.076v-0.235c0-0.05 8e-3 -0.086 0.03-0.113a0.115 0.115 0 0 1 0.094-0.042c0.011 0 0.024 2e-3 0.035 4e-3 0.01 2e-3 0.018 7e-3 0.026 0.011v-0.075l-0.019-4e-3h-0.019zm0.62 0a0.205 0.205 0 0 0-0.16 0.064 0.25 0.25 0 0 0-0.06 0.174c0 0.07 0.023 0.125 0.065 0.166 0.041 0.042 0.095 0.06 0.166 0.06a0.405 0.405 0 0 0 0.166-0.033v-0.068a0.378 0.378 0 0 1-0.162 0.041c-0.049 0-0.086-0.011-0.114-0.037a0.174 0.174 0 0 1-0.045-0.118h0.336v-0.034a0.229 0.229 0 0 0-0.052-0.158 0.175 0.175 0 0 0-0.14-0.057zm0.533 0a0.175 0.175 0 0 0-0.087 0.019 0.159 0.159 0 0 0-0.061 0.06v-0.068h-0.076v0.443h0.076v-0.235c0-0.05 8e-3 -0.086 0.03-0.113a0.123 0.123 0 0 1 0.098-0.042 0.12 0.12 0 0 1 0.03 4e-3c0.01 2e-3 0.019 7e-3 0.027 0.011v-0.075l-0.02-4e-3h-0.018zm1.141 0a0.377 0.377 0 0 0-0.15 0.03v0.068a0.316 0.316 0 0 1 0.144-0.038c0.039 0 0.067 8e-3 0.09 0.027a0.098 0.098 0 0 1 0.034 0.08v7e-3h-0.102c-0.067 0-0.114 0.012-0.148 0.038a0.137 0.137 0 0 0-0.052 0.113c0 0.043 0.014 0.076 0.041 0.102a0.155 0.155 0 0 0 0.11 0.038 0.197 0.197 0 0 0 0.09-0.019 0.159 0.159 0 0 0 0.061-0.06v0.067h0.076v-0.253c0-0.068-0.017-0.118-0.049-0.151-0.031-0.033-0.08-0.05-0.144-0.05zm0.564 0a0.192 0.192 0 0 0-0.091 0.019 0.15 0.15 0 0 0-0.06 0.06v-0.068h-0.073v0.443h0.072v-0.235c0-0.05 0.013-0.086 0.035-0.113a0.115 0.115 0 0 1 0.094-0.042 0.15 0.15 0 0 1 0.034 4e-3c0.01 2e-3 0.018 7e-3 0.026 0.011v-0.075l-0.023-4e-3h-0.015zm1.867 0a0.2 0.2 0 0 0-0.125 0.034 0.11 0.11 0 0 0-0.045 0.094c0 0.035 0.01 0.064 0.03 0.084s0.053 0.035 0.098 0.045l0.027 4e-3c0.045 0.01 0.073 0.02 0.087 0.03 0.013 0.01 0.019 0.026 0.019 0.045a0.054 0.054 0 0 1-0.027 0.05 0.147 0.147 0 0 1-0.08 0.018 0.38 0.38 0 0 1-0.159-0.042v0.076a0.593 0.593 0 0 0 0.16 0.027c0.057 0 0.1-0.01 0.132-0.034a0.115 0.115 0 0 0 0.05-0.098c0-0.037-9e-3 -0.067-0.03-0.087a0.25 0.25 0 0 0-0.114-0.046l-0.023-7e-3a0.252 0.252 0 0 1-0.08-0.027 0.043 0.043 0 0 1-0.018-0.038 0.06 0.06 0 0 1 0.026-0.052 0.168 0.168 0 0 1 0.083-0.016 0.293 0.293 0 0 1 0.133 0.03v-0.067a0.299 0.299 0 0 0-0.065-0.02c-0.024-3e-3 -0.052-3e-3 -0.08-3e-3zm1.452 0a0.155 0.155 0 0 0-0.08 0.019 0.19 0.19 0 0 0-0.064 0.06v-0.068h-0.072v0.443h0.072v-0.25c0-0.043 0.01-0.077 0.034-0.102a0.122 0.122 0 0 1 0.095-0.038c0.033 0 0.059 0.01 0.075 0.03 0.017 0.021 0.023 0.053 0.023 0.095v0.265h0.076v-0.269h-4e-3c0-0.061-0.012-0.108-0.038-0.14-0.027-0.032-0.066-0.045-0.117-0.045zm0.809 0a0.205 0.205 0 0 0-0.16 0.064 0.25 0.25 0 0 0-0.06 0.174c0 0.07 0.023 0.125 0.065 0.166 0.041 0.042 0.095 0.06 0.166 0.06a0.405 0.405 0 0 0 0.166-0.033v-0.068a0.378 0.378 0 0 1-0.162 0.041c-0.049 0-0.086-0.011-0.114-0.037a0.174 0.174 0 0 1-0.045-0.118h0.336v-0.034a0.229 0.229 0 0 0-0.052-0.158 0.175 0.175 0 0 0-0.14-0.057zm0.533 0a0.176 0.176 0 0 0-0.087 0.019 0.15 0.15 0 0 0-0.061 0.06v-0.068h-0.076v0.443h0.076v-0.235c0-0.05 8e-3 -0.086 0.03-0.113a0.123 0.123 0 0 1 0.098-0.042 0.12 0.12 0 0 1 0.03 4e-3c0.01 2e-3 0.019 7e-3 0.027 0.011v-0.075l-0.02-4e-3h-0.018zm0.313 0a0.17 0.17 0 0 0-0.083 0.019 0.18 0.18 0 0 0-0.06 0.06v-0.068h-0.072v0.443h0.072v-0.25c0-0.043 0.01-0.077 0.034-0.102a0.122 0.122 0 0 1 0.094-0.038c0.033 0 0.06 0.01 0.076 0.03 0.017 0.021 0.023 0.053 0.023 0.095v0.265h0.071v-0.269c0-0.061-0.011-0.108-0.038-0.14-0.026-0.032-0.065-0.045-0.117-0.045zm0.488 0a0.205 0.205 0 0 0-0.159 0.064 0.249 0.249 0 0 0-0.057 0.174c0 0.07 0.02 0.125 0.061 0.166 0.042 0.042 0.1 0.06 0.17 0.06a0.405 0.405 0 0 0 0.083-7e-3 0.441 0.441 0 0 0 0.08-0.026v-0.068a0.378 0.378 0 0 1-0.16 0.041c-0.047 0-0.085-0.011-0.113-0.037a0.174 0.174 0 0 1-0.045-0.118h0.337v-0.034a0.229 0.229 0 0 0-0.053-0.158 0.184 0.184 0 0 0-0.144-0.057zm0.537 0a0.192 0.192 0 0 0-0.09 0.019 0.15 0.15 0 0 0-0.062 0.06v-0.068h-0.071v0.443h0.071v-0.235c0-0.05 0.013-0.086 0.035-0.113a0.115 0.115 0 0 1 0.094-0.042 0.12 0.12 0 0 1 0.03 4e-3c0.01 2e-3 0.022 7e-3 0.03 0.011v-0.075l-0.022-4e-3h-0.016zm0.616 0a0.205 0.205 0 0 0-0.159 0.064 0.249 0.249 0 0 0-0.057 0.174c0 0.07 0.02 0.125 0.06 0.166 0.043 0.042 0.1 0.06 0.171 0.06a0.405 0.405 0 0 0 0.083-7e-3 0.441 0.441 0 0 0 0.08-0.026v-0.068a0.338 0.338 0 0 1-0.16 0.041c-0.047 0-0.085-0.011-0.112-0.037a0.174 0.174 0 0 1-0.046-0.118h0.337v-0.034a0.229 0.229 0 0 0-0.053-0.158 0.184 0.184 0 0 0-0.144-0.057zm0.537 0a0.192 0.192 0 0 0-0.09 0.019 0.142 0.142 0 0 0-0.058 0.06v-0.068h-0.076v0.443h0.076v-0.235c0-0.05 8e-3 -0.086 0.03-0.113a0.115 0.115 0 0 1 0.095-0.042c0.01 0 0.024 2e-3 0.034 4e-3s0.018 7e-3 0.026 0.011v-0.075l-0.019-4e-3h-0.019zm0.586 0a0.17 0.17 0 0 0-0.083 0.019 0.18 0.18 0 0 0-0.061 0.06v-0.068h-0.072v0.443h0.072v-0.25c0-0.043 0.01-0.077 0.034-0.102a0.122 0.122 0 0 1 0.095-0.038c0.033 0 0.059 0.01 0.075 0.03 0.017 0.021 0.023 0.053 0.023 0.095v0.265h0.072v-0.269c0-0.061-0.012-0.108-0.038-0.14-0.027-0.032-0.066-0.045-0.118-0.045zm0.487 0a0.205 0.205 0 0 0-0.158 0.064 0.249 0.249 0 0 0-0.057 0.174c0 0.07 0.019 0.125 0.06 0.166 0.042 0.042 0.1 0.06 0.17 0.06a0.405 0.405 0 0 0 0.084-7e-3 0.441 0.441 0 0 0 0.079-0.026v-0.068a0.378 0.378 0 0 1-0.159 0.041c-0.048 0-0.086-0.011-0.113-0.037a0.174 0.174 0 0 1-0.046-0.118h0.337v-0.034a0.229 0.229 0 0 0-0.053-0.158 0.184 0.184 0 0 0-0.143-0.057zm0.537 0a0.19 0.19 0 0 0-0.09 0.019 0.159 0.159 0 0 0-0.061 0.06v-0.068h-0.072v0.443h0.072v-0.235c0-0.05 0.012-0.086 0.034-0.113a0.115 0.115 0 0 1 0.095-0.042 0.12 0.12 0 0 1 0.03 4e-3c0.01 2e-3 0.022 7e-3 0.03 0.011v-0.075l-0.023-4e-3zm0.616 0a0.205 0.205 0 0 0-0.158 0.064 0.249 0.249 0 0 0-0.057 0.174c0 0.07 0.019 0.125 0.06 0.166 0.042 0.042 0.1 0.06 0.17 0.06a0.405 0.405 0 0 0 0.084-7e-3 0.441 0.441 0 0 0 0.079-0.026v-0.068a0.338 0.338 0 0 1-0.159 0.041c-0.048 0-0.086-0.011-0.113-0.037a0.174 0.174 0 0 1-0.046-0.118h0.337v-0.034a0.229 0.229 0 0 0-0.053-0.158 0.184 0.184 0 0 0-0.143-0.057zm0.537 0a0.192 0.192 0 0 0-0.09 0.019 0.15 0.15 0 0 0-0.061 0.06v-0.068h-0.072v0.443h0.072v-0.235c0-0.05 0.012-0.086 0.033-0.113a0.115 0.115 0 0 1 0.095-0.042c0.01 0 0.024 2e-3 0.034 4e-3s0.019 7e-3 0.027 0.011v-0.075l-0.02-4e-3zm-15.892 0.011v0.443h0.076v-0.443zm7.477 0v0.443h0.072v-0.443zm1.38 0v0.443h0.072v-0.443zm-7.61 0.05c0.036 0 0.066 0.013 0.087 0.037a0.137 0.137 0 0 1 0.035 0.095h-0.261a0.15 0.15 0 0 1 0.042-0.099 0.136 0.136 0 0 1 0.098-0.034zm1.339 0c0.036 0 0.065 0.013 0.087 0.037a0.137 0.137 0 0 1 0.034 0.095h-0.26a0.147 0.147 0 0 1 0.041-0.099 0.136 0.136 0 0 1 0.098-0.034zm1.153 0c0.036 0 0.065 0.013 0.087 0.037a0.133 0.133 0 0 1 0.033 0.095h-0.26a0.147 0.147 0 0 1 0.041-0.099 0.136 0.136 0 0 1 0.099-0.034zm2.506 0c0.039 0 0.068 0.014 0.09 0.045 0.023 0.03 0.035 0.075 0.035 0.128a0.203 0.203 0 0 1-0.034 0.125c-0.023 0.03-0.052 0.045-0.09 0.045s-0.069-0.014-0.092-0.045a0.208 0.208 0 0 1-0.034-0.125 0.22 0.22 0 0 1 0.034-0.128 0.105 0.105 0 0 1 0.091-0.046zm3.86 0c0.036 0 0.065 0.013 0.087 0.037a0.137 0.137 0 0 1 0.034 0.095h-0.26a0.15 0.15 0 0 1 0.04-0.099 0.136 0.136 0 0 1 0.1-0.034zm1.338 0c0.036 0 0.061 0.013 0.083 0.037a0.137 0.137 0 0 1 0.035 0.095h-0.261a0.153 0.153 0 0 1 0.045-0.099 0.136 0.136 0 0 1 0.098-0.034zm1.153 0c0.036 0 0.065 0.013 0.087 0.037a0.137 0.137 0 0 1 0.034 0.095h-0.26a0.15 0.15 0 0 1 0.041-0.099 0.136 0.136 0 0 1 0.098-0.034zm1.61 0c0.036 0 0.062 0.013 0.084 0.037a0.133 0.133 0 0 1 0.033 0.095h-0.26a0.153 0.153 0 0 1 0.045-0.099 0.136 0.136 0 0 1 0.098-0.034zm1.153 0c0.036 0 0.065 0.013 0.087 0.037a0.137 0.137 0 0 1 0.035 0.095h-0.261a0.15 0.15 0 0 1 0.042-0.099 0.136 0.136 0 0 1 0.098-0.034zm-9.9 0.17h0.071v0.015c0 0.047-9e-3 0.088-0.034 0.117a0.122 0.122 0 0 1-0.098 0.041 0.105 0.105 0 0 1-0.072-0.022c-0.017-0.016-0.023-0.035-0.023-0.06 0-0.033 0.011-0.059 0.035-0.073 0.022-0.013 0.062-0.018 0.12-0.018z" fill="#ffffff"/>
  <path d="m49.997 6.23-36.453 0.146v0.386l36.453-0.254z" fill="#8b8789" style="paint-order:fill markers stroke"/>
  <path d="m12.601 14.451 0.491-7.279 0.479-0.832-0.35 7.526z" fill="#423d3f"/>
  <path d="m40.099 14.806 0.492-0.791-0.62 3.229-0.385 0.385z" fill="#463d40"/>
  <path d="m3.108 46.756-0.019 0.185c-0.307 2.965 2.399 5.38 5.38 5.38h47.064c2.98 0 5.686-2.415 5.379-5.38l-0.015-0.162c-0.288 2.51-2.712 4.426-5.365 4.426h-47.064c-2.66 0-5.084-1.928-5.36-4.449z" fill="url(#r-9)"/>
  <path d="m3.108 56.434-0.019 0.185c-0.307 2.965 2.399 5.381 5.381 5.381h47.064c2.98 0 5.686-2.415 5.379-5.38l-0.015-0.162c-0.288 2.51-2.712 4.426-5.365 4.426h-47.065c-2.66 0-5.084-1.928-5.36-4.449z" fill="url(#s-0)"/>
 </g>
 <ellipse cx="7.399" cy="47.614" rx="1.284" ry="1.052" fill="#233242" style="paint-order:fill markers stroke"/>
 <ellipse cx="7.403" cy="47.542" rx="1.239" ry=".927" fill="#c2dfea" style="paint-order:fill markers stroke"/>
 <path d="m7.429 46.844a0.139 0.605 2.576 0 0-0.148 0.404 0.766 0.139 23.938 0 0-0.578-0.11 0.766 0.139 23.938 0 0 0.382 0.315 0.139 0.766 66.062 0 0-0.382 0.31 0.139 0.766 66.062 0 0 0.56-0.106 0.139 0.605 2.576 0 0 0.11 0.397 0.139 0.605 2.576 0 0 0.15-0.401 0.766 0.139 23.938 0 0 0.579 0.11 0.766 0.139 23.938 0 0-0.382-0.31 0.139 0.766 66.062 0 0 0.382-0.314 0.139 0.766 66.062 0 0-0.564 0.106 0.139 0.605 2.576 0 0-0.11-0.401z" fill="#1a1c20"/>
 <ellipse cx="55.98" cy="47.614" rx="1.284" ry="1.052" fill="#233242" style="paint-order:fill markers stroke"/>
 <ellipse cx="55.984" cy="47.542" rx="1.239" ry=".927" fill="#c2dfea" style="paint-order:fill markers stroke"/>
 <path d="m56.01 46.844a0.139 0.605 2.576 0 0-0.147 0.404 0.766 0.139 23.938 0 0-0.579-0.11 0.766 0.139 23.938 0 0 0.382 0.315 0.139 0.766 66.062 0 0-0.382 0.31 0.139 0.766 66.062 0 0 0.56-0.106 0.139 0.605 2.576 0 0 0.11 0.397 0.139 0.605 2.576 0 0 0.15-0.401 0.766 0.139 23.938 0 0 0.579 0.11 0.766 0.139 23.938 0 0-0.382-0.31 0.139 0.766 66.062 0 0 0.382-0.314 0.139 0.766 66.062 0 0-0.563 0.106 0.139 0.605 2.576 0 0-0.11-0.401z" fill="#1a1c20"/>
 <ellipse cx="8.511" cy="24.369" rx="1.284" ry="1.052" fill="#233242" style="paint-order:fill markers stroke"/>
 <ellipse cx="8.515" cy="24.297" rx="1.239" ry=".927" fill="#99acb5" style="paint-order:fill markers stroke"/>
 <path d="m8.54 23.599a0.139 0.605 2.576 0 0-0.147 0.404 0.766 0.139 23.938 0 0-0.578-0.11 0.766 0.139 23.938 0 0 0.382 0.315 0.139 0.766 66.062 0 0-0.382 0.31 0.139 0.766 66.062 0 0 0.56-0.106 0.139 0.605 2.576 0 0 0.109 0.397 0.139 0.605 2.576 0 0 0.151-0.401 0.766 0.139 23.938 0 0 0.579 0.11 0.766 0.139 23.938 0 0-0.382-0.31 0.139 0.766 66.062 0 0 0.382-0.314 0.139 0.766 66.062 0 0-0.564 0.106 0.139 0.605 2.576 0 0-0.11-0.401z" fill="#1a1c20"/>
 <ellipse cx="55.103" cy="24.369" rx="1.284" ry="1.052" fill="#233242" style="paint-order:fill markers stroke"/>
 <ellipse cx="55.106" cy="24.297" rx="1.239" ry=".927" fill="#99acb5" style="paint-order:fill markers stroke"/>
 <path d="m55.132 23.599a0.139 0.605 2.576 0 0-0.147 0.404 0.766 0.139 23.938 0 0-0.579-0.11 0.766 0.139 23.938 0 0 0.382 0.315 0.139 0.766 66.062 0 0-0.382 0.31 0.139 0.766 66.062 0 0 0.56-0.106 0.139 0.605 2.576 0 0 0.11 0.397 0.139 0.605 2.576 0 0 0.15-0.401 0.766 0.139 23.938 0 0 0.579 0.11 0.766 0.139 23.938 0 0-0.382-0.31 0.139 0.766 66.062 0 0 0.382-0.314 0.139 0.766 66.062 0 0-0.563 0.106 0.139 0.605 2.576 0 0-0.11-0.401z" fill="#1a1c20"/>
 <ellipse cx="11.291" cy="5.176" rx="1.284" ry="1.052" fill="#233242" style="paint-order:fill markers stroke"/>
 <ellipse cx="11.294" cy="5.104" rx="1.239" ry=".927" fill="#848f95" style="paint-order:fill markers stroke"/>
 <path d="m11.321 4.406a0.139 0.605 2.576 0 0-0.147 0.404 0.766 0.139 23.938 0 0-0.579-0.11 0.766 0.139 23.938 0 0 0.382 0.315 0.139 0.766 66.062 0 0-0.382 0.31 0.139 0.766 66.062 0 0 0.56-0.106 0.139 0.605 2.576 0 0 0.11 0.397 0.139 0.605 2.576 0 0 0.15-0.401 0.766 0.139 23.938 0 0 0.579 0.11 0.766 0.139 23.938 0 0-0.382-0.31 0.139 0.766 66.062 0 0 0.382-0.314 0.139 0.766 66.062 0 0-0.563 0.106 0.139 0.605 2.576 0 0-0.11-0.401z" fill="#1a1c20"/>
 <ellipse cx="53.076" cy="5.176" rx="1.284" ry="1.052" fill="#233242" style="paint-order:fill markers stroke"/>
 <ellipse cx="53.08" cy="5.104" rx="1.239" ry=".927" fill="#848f95" style="paint-order:fill markers stroke"/>
 <path d="m53.106 4.406a0.139 0.605 2.576 0 0-0.147 0.404 0.766 0.139 23.938 0 0-0.579-0.11 0.766 0.139 23.938 0 0 0.382 0.315 0.139 0.766 66.062 0 0-0.382 0.31 0.139 0.766 66.062 0 0 0.56-0.106 0.139 0.605 2.576 0 0 0.11 0.397 0.139 0.605 2.576 0 0 0.15-0.401 0.766 0.139 23.938 0 0 0.579 0.11 0.766 0.139 23.938 0 0-0.382-0.31 0.139 0.766 66.062 0 0 0.382-0.314 0.139 0.766 66.062 0 0-0.563 0.106 0.139 0.605 2.576 0 0-0.11-0.401z" fill="#1a1c20"/>
 <path d="m34.978 8.44c-0.154 0-0.191 0.153-0.28 0.28l-1.996 2.842c-0.088 0.126 0.122 0.28 0.276 0.28h4.064c0.154 0 0.362-0.152 0.276-0.28l-1.902-2.842c-0.085-0.128-0.125-0.28-0.28-0.28zm0.034 1.058c0.131 0 0.235 0.126 0.235 0.28v0.62c0 0.154-0.104 0.28-0.235 0.28-0.13 0-0.238-0.126-0.238-0.28v-0.62c0-0.154 0.107-0.28 0.238-0.28zm-0.015 1.346a0.22 0.197 0 0 1 0.015 0 0.22 0.197 0 0 1 0.22 0.196 0.22 0.197 0 0 1-0.22 0.197 0.22 0.197 0 0 1-0.219-0.197 0.22 0.197 0 0 1 0.204-0.196z" fill="#ffffff"/>
 <g transform="matrix(.63323 0 0 .40002 11.743 19.2)">
  <g stroke-width=".867">
   <path d="m31.999 21.615a10.384 10.384 0 0 0-10.384 10.384 10.384 10.384 0 0 0 10.384 10.384 10.384 10.384 0 0 0 10.384-10.384 10.384 10.384 0 0 0-10.384-10.384zm0 6.923c1.918 0 3.461 1.544 3.461 3.461s-1.543 3.462-3.46 3.462-3.461-1.544-3.461-3.462 1.543-3.461 3.461-3.461z" fill="url(#d)"/>
   <path d="m32 62v-24a5.7698 6 0 0 0 5.7698-6h24.23c0 17.284-13.38 30-30 30z" fill="url(#e)" stroke-width=".88425"/>
   <path d="m32 62v-24a5.7698 6 0 0 1-5.7698-6h-24.23c0 17.284 13.38 30 30 30z" fill="url(#f)" stroke-width=".88425"/>
   <path d="m31.999 2v24.23a5.769 5.769 0 0 0-5.769 5.769h-24.227c0-16.619 13.378-29.999 29.996-29.999z" fill="url(#i)"/>
   <path d="m31.999 2v24.23a5.769 5.769 0 0 1 5.769 5.769h24.227c0-16.619-13.378-29.999-29.996-29.999z" fill="url(#j)"/>
   <path d="m31.999 21.615a10.384 10.384 0 1 0 0 20.768 10.384 10.384 0 0 0 0-20.768zm0 4.615a5.769 5.769 0 1 1 0 11.538 5.769 5.769 0 0 1 0-11.538z" fill="url(#k)"/>
   <path d="m37.768 27.384a1.154 1.154 0 1 1 0-2.308 1.154 1.154 0 0 1 0 2.308zm-11.538 11.538a1.154 1.154 0 1 1 0-2.308 1.154 1.154 0 0 1 0 2.308zm1.154-12.692a1.154 1.154 0 1 1-2.308 0 1.154 1.154 0 0 1 2.308 0zm11.538 11.538a1.154 1.154 0 1 1-2.308 0 1.154 1.154 0 0 1 2.308 0z" fill="#292c2f" opacity=".4"/>
   <path d="m31.999 27.384a4.615 4.615 0 1 0 0 9.23 4.615 4.615 0 0 0 0-9.23zm0 1.154a3.4615 3.4615 0 1 1 0 6.923 3.4615 3.4615 0 0 1 0-6.923z" fill="url(#l)"/>
   <path d="m33.153 23.922a1.154 1.154 0 1 1-2.308 0 1.154 1.154 0 0 1 2.308 0zm8.077 8.077a1.154 1.154 0 1 1-2.308 0 1.154 1.154 0 0 1 2.308 0zm-8.077 8.076a1.154 1.154 0 1 1-2.308 0 1.154 1.154 0 0 1 2.308 0zm-8.077-8.075a1.154 1.154 0 1 1-2.307 0 1.154 1.154 0 0 1 2.307 0z" fill="#4d4d4d"/>
  </g>
  <path d="m48.152 41.229-9.23 4.615-1.154 2.308-3.462 3.461-12.054 8.77a30.123 30.123 0 0 0 9.748 1.613c0.251 0 0.498-0.011 0.747-0.018l5.021-6.904 3.462-3.462 2.307-1.154z" fill="#292c2f" opacity=".2"/>
  <circle cx="31.999" cy="31.999" r="3.461" fill="url(#s)"/>
  <g stroke-width=".867">
   <path d="m48.152 41.229-9.23 4.615-1.154 2.308-3.462 3.461-12.054 8.77a30.123 30.123 0 0 0 9.748 1.613c0.251 0 0.498-0.011 0.747-0.018l5.021-6.904 3.462-3.462 2.307-1.154zm-6.923 5.291 1.632 1.632-1.632 1.631-1.631-1.631zm-3.939 3.94 1.632 1.63-0.677 0.677h-1.631v-1.631zm-2.984 3.46a1.154 1.154 0 0 1 1.154 1.155 1.154 1.154 0 0 1-1.154 1.153 1.154 1.154 0 0 1-1.153-1.153 1.154 1.154 0 0 1 1.153-1.154zm-3.461 2.308 2.308 2.308-1.909 2.29a29.451 29.451 0 0 1-5.21-0.59zm-4.656 5.204c0.111 0.022 0.223 0.038 0.334 0.058-0.11-0.02-0.223-0.036-0.335-0.058z" fill="url(#v)"/>
   <path d="m36.614 51.136-5.769 5.093 2.308 2.308 5.093-5.77h-1.632zm2.984-2.984-2.308 2.308 1.632 1.631 2.307-2.307zm6.246-4.615-4.615 2.984 1.632 1.631z" fill="#292c2f" opacity=".1"/>
  </g>
 </g>
 <ellipse cx="32.016" cy="31.985" rx="19.007" ry="12.069" fill="none" stop-color="#000000" stroke="#000000" stroke-linecap="round" stroke-linejoin="round" stroke-opacity=".2" stroke-width=".5" style="paint-order:stroke fill markers"/>
</svg>
