<svg width="64" height="64" xmlns="http://www.w3.org/2000/svg" xmlns:xlink="http://www.w3.org/1999/xlink"><defs><filter id="h" x="-.052" y="-.062" width="1.105" height="1.124" color-interpolation-filters="sRGB"><feGaussianBlur stdDeviation=".567"/></filter><filter id="n" x="-.045" y="-.058" width="1.091" height="1.115" color-interpolation-filters="sRGB"><feGaussianBlur stdDeviation=".567"/></filter><filter id="r" x="-.066" y="-.076" width="1.133" height="1.151" color-interpolation-filters="sRGB"><feGaussianBlur stdDeviation=".567"/></filter><filter id="p" x="-.036" y="-.036" width="1.072" height="1.072" color-interpolation-filters="sRGB"><feGaussianBlur stdDeviation=".094"/></filter><filter id="u" x="-.033" y="-.04" width="1.065" height="1.08" color-interpolation-filters="sRGB"><feGaussianBlur stdDeviation=".181"/></filter><linearGradient id="k" x1="32" x2="32" y1="41" y2="23" gradientTransform="translate(-4.923 -4.923) scale(1.1538)" gradientUnits="userSpaceOnUse" xlink:href="#a"/></defs><linearGradient id="d" x1="6" x2="6" y1="58" y2="6" gradientTransform="translate(-4.923 -4.923) scale(1.1538)" gradientUnits="userSpaceOnUse" xlink:href="#b"/><linearGradient id="t" x1="35.002" x2="52.002" y1="32" y2="49" gradientUnits="userSpaceOnUse" xlink:href="#c"/><linearGradient id="g" x1="6" x2="19" y1="32" y2="45" gradientUnits="userSpaceOnUse" xlink:href="#c"/><linearGradient id="f" x1="32" x2="32" y1="58" y2="32" gradientTransform="translate(-4.923 -4.923) scale(1.1538)" gradientUnits="userSpaceOnUse"><stop stop-color="#fdad23" offset="0"/><stop stop-color="#fdc96f" offset="1"/></linearGradient><linearGradient id="i" x1="32" x2="32" y1="32" y2="6" gradientTransform="translate(-4.923 -4.923) scale(1.1538)" gradientUnits="userSpaceOnUse"><stop stop-color="#27ad60" offset="0"/><stop stop-color="#58d68d" offset="1"/></linearGradient><linearGradient id="e" x1="32" x2="32" y1="58" y2="32" gradientTransform="matrix(-1.1538 0 0 1.1538 68.92 -4.923)" gradientUnits="userSpaceOnUse"><stop stop-color="#8e44ad" offset="0"/><stop stop-color="#af7ac4" offset="1"/></linearGradient><linearGradient id="s" x1="32" x2="32" y1="35" y2="29" gradientTransform="translate(-4.923 -4.923) scale(1.1538)" gradientUnits="userSpaceOnUse" xlink:href="#b"/><linearGradient id="l" x1="32" x2="32" y1="36" y2="28" gradientTransform="translate(-4.923 -4.923) scale(1.1538)" gradientUnits="userSpaceOnUse"><stop stop-color="#5c7274" offset="0"/><stop stop-color="#a4a4a4" offset="1"/></linearGradient><linearGradient id="v" x1="32" x2="32" y1="58" y2="40" gradientTransform="translate(-4.923 -4.923) scale(1.1538)" gradientUnits="userSpaceOnUse" xlink:href="#a"/><linearGradient id="o" x1="25.637" x2="57.998" y1="40.676" y2="40.676" gradientUnits="userSpaceOnUse"><stop stop-color="#292c2f" offset="0"/><stop stop-color="#292c2f" stop-opacity="0" offset="1"/></linearGradient><linearGradient id="q" x1="46" x2="53.135" y1="40" y2="47.135" gradientUnits="userSpaceOnUse" xlink:href="#c"/><linearGradient id="c"><stop stop-color="#292c2f" offset="0"/><stop stop-opacity="0" offset="1"/></linearGradient><linearGradient id="j" x1="32" x2="32" y1="32" y2="6" gradientTransform="translate(-4.923 -4.923) scale(1.1538)" gradientUnits="userSpaceOnUse"><stop stop-color="#1190d9" offset="0"/><stop stop-color="#73c4ef" offset="1"/></linearGradient><linearGradient id="a" x1="32" x2="32" y1="41" y2="23" gradientUnits="userSpaceOnUse"><stop stop-color="#cecece" offset="0"/><stop stop-color="#ececec" offset="1"/></linearGradient><linearGradient id="b" x1="6" x2="6" y1="58" y2="6" gradientUnits="userSpaceOnUse"><stop stop-color="#98a7b0" offset="0"/><stop stop-color="#dde1e3" offset="1"/></linearGradient><linearGradient id="m" x1="26" x2="50" y1="26" y2="50" gradientUnits="userSpaceOnUse" xlink:href="#c"/><g stroke-width=".867"><path d="M31.999 21.615a10.384 10.384 0 0 0-10.384 10.384 10.384 10.384 0 0 0 10.384 10.384 10.384 10.384 0 0 0 10.384-10.384 10.384 10.384 0 0 0-10.384-10.384zm0 6.923c1.918 0 3.461 1.544 3.461 3.461S33.917 35.461 32 35.461s-3.461-1.544-3.461-3.462 1.543-3.461 3.461-3.461z" fill="url(#d)"/><path d="M32.001 60.844V37.768a5.769 5.769 0 0 0 5.769-5.769h24.227c0 16.619-13.378 28.845-29.996 28.845z" fill="url(#e)"/><path d="M31.996 60.844V37.768a5.769 5.769 0 0 1-5.769-5.769H2c0 16.619 13.378 28.845 29.996 28.845z" fill="url(#f)"/></g><path transform="translate(-4.923 -4.923) scale(1.1538)" d="m6 32 22 22 3.998-2.998v-6.277l-6.361-6.362.004-.004A9 9 0 0 1 23 32zm22.582 8.32a9 9 0 0 0 .272.1 9 9 0 0 1-.272-.1zm.842.3a9 9 0 0 0 .306.077 9 9 0 0 1-.306-.078zm.879.214a9 9 0 0 0 .306.047 9 9 0 0 1-.306-.047zm.875.125a9 9 0 0 0 .82.041 9 9 0 0 1-.82-.041z" fill="url(#g)" filter="url(#h)" opacity=".1"/><g stroke-width=".867"><path d="M31.999 2v24.23a5.769 5.769 0 0 0-5.769 5.769H2.003C2.003 15.38 15.381 2 31.999 2z" fill="url(#i)"/><path d="M2.002 31.065c-.005.252 0 .503 0 .756 0 13.284 8.45 24.503 20.26 28.554l1.126-.82C11.22 55.828 2.328 44.434 2.002 31.062z" fill="#ca902a"/><path d="M31.999 2v24.23a5.769 5.769 0 0 1 5.769 5.769h24.227C61.995 15.38 48.617 2 31.999 2z" fill="url(#j)"/><path d="M31.999 21.615a10.384 10.384 0 1 0 0 20.768 10.384 10.384 0 0 0 0-20.768zm0 4.615a5.769 5.769 0 1 1 0 11.538 5.769 5.769 0 0 1 0-11.538z" fill="url(#k)"/><path d="M37.768 27.384a1.154 1.154 0 1 1 0-2.308 1.154 1.154 0 0 1 0 2.308zM26.23 38.922a1.154 1.154 0 1 1 0-2.308 1.154 1.154 0 0 1 0 2.308zm1.154-12.692a1.154 1.154 0 1 1-2.308 0 1.154 1.154 0 0 1 2.308 0zm11.538 11.538a1.154 1.154 0 1 1-2.308 0 1.154 1.154 0 0 1 2.308 0z" fill="#292c2f" opacity=".4"/><path d="M31.999 27.384a4.615 4.615 0 1 0 0 9.23 4.615 4.615 0 0 0 0-9.23zm0 1.154a3.461 3.461 0 1 1 0 6.923 3.461 3.461 0 0 1 0-6.923z" fill="url(#l)"/><path d="M33.153 23.922a1.154 1.154 0 1 1-2.308 0 1.154 1.154 0 0 1 2.308 0zm8.077 8.077a1.154 1.154 0 1 1-2.308 0 1.154 1.154 0 0 1 2.308 0zm-8.077 8.076a1.154 1.154 0 1 1-2.308 0 1.154 1.154 0 0 1 2.308 0zM25.076 32a1.154 1.154 0 1 1-2.307 0 1.154 1.154 0 0 1 2.307 0z" fill="#4d4d4d"/><path d="M42.359 32.488a10.384 10.384 0 0 1-10.36 9.895 10.384 10.384 0 0 1-10.36-9.72 10.384 10.384 0 0 0-.024.49 10.384 10.384 0 0 0 10.384 10.384 10.384 10.384 0 0 0 10.384-10.384 10.384 10.384 0 0 0-.024-.665z" fill="#7f8c8d"/></g><path transform="translate(-4.923 -4.923) scale(1.1538)" d="M41 32a9 9 0 0 1-9 9 9 9 0 0 1-6.36-2.64l-.003.003 9.5 9.5L37 46l1-2 8-4 7.135 7.135a25.966 25.966 0 0 0 2.486-4.242L44.727 32zm11.967 15.389c-.086.116-.177.228-.264.343a25.966 25.966 0 0 0 .264-.343zm-1.705 2.095c-.053.058-.11.113-.162.17a25.966 25.966 0 0 0 .162-.17zM49.54 51.2c-.08.074-.159.15-.24.223a25.966 25.966 0 0 0 .24-.223zm-2.01 1.658c-.102.077-.203.154-.306.229a25.966 25.966 0 0 0 .306-.229zm-2.203 1.475c-.11.066-.222.13-.334.193a25.966 25.966 0 0 0 .334-.193zm-2.371 1.258-.066.03.004.003a25.966 25.966 0 0 0 .062-.033z" fill="url(#m)" filter="url(#n)" opacity=".3"/><path transform="translate(-4.923 -4.923) scale(1.1538)" d="M41 32h3.727l-6.27-6.27A9 9 0 0 1 41 32z" fill="url(#o)" filter="url(#p)" opacity=".2"/><path d="m48.152 41.229-9.23 4.615-1.154 2.308-3.462 3.461-12.054 8.77A30.123 30.123 0 0 0 32 61.996c.251 0 .498-.011.747-.018l5.021-6.904 3.462-3.462 2.307-1.154z" fill="#292c2f" opacity=".2"/><path transform="translate(-4.923 -4.923) scale(1.1538)" d="m46 40-4 8-2 1-3 3-4.352 5.984a25.91 25.91 0 0 0 20.5-10.836z" fill="url(#q)" filter="url(#r)" opacity=".2"/><circle cx="31.999" cy="31.999" r="3.461" fill="url(#s)"/><path transform="translate(-4.923 -4.923) scale(1.1538)" d="m44.721 32 10.883 10.88A25.912 25.912 0 0 0 58 32Z" fill="url(#t)" filter="url(#u)" opacity=".1"/><g stroke-width=".867"><path d="M61.995 31.065c-.384 15.827-12.773 28.89-28.389 29.733l-.86 1.18c16.27-.398 29.25-13.693 29.25-30.158 0-.254.005-.504 0-.755z" fill="#6e3e86"/><path d="m48.152 41.229-9.23 4.615-1.154 2.308-3.462 3.461-12.054 8.77A30.123 30.123 0 0 0 32 61.996c.251 0 .498-.011.747-.018l5.021-6.904 3.462-3.462 2.307-1.154zm-6.923 5.291 1.632 1.632-1.632 1.631-1.631-1.631zm-3.939 3.94 1.632 1.63-.677.677h-1.631v-1.631zm-2.984 3.46a1.154 1.154 0 0 1 1.154 1.155 1.154 1.154 0 0 1-1.154 1.153 1.154 1.154 0 0 1-1.153-1.153 1.154 1.154 0 0 1 1.153-1.154zm-3.461 2.308 2.308 2.308-1.909 2.29a29.451 29.451 0 0 1-5.21-.59zm-4.656 5.204c.111.022.223.038.334.058-.11-.02-.223-.036-.335-.058z" fill="url(#v)"/><path d="m36.614 51.136-5.769 5.093 2.308 2.308 5.093-5.77h-1.632zm2.984-2.984L37.29 50.46l1.632 1.631 2.307-2.307zm6.246-4.615-4.615 2.984 1.632 1.631z" fill="#292c2f" opacity=".1"/></g></svg>