<svg width="64" height="64" xmlns="http://www.w3.org/2000/svg" xmlns:xlink="http://www.w3.org/1999/xlink"><defs><linearGradient id="b"><stop offset="0"/><stop stop-color="#313131" offset="1"/></linearGradient><linearGradient id="s" x1="144.66" x2="174.56" y1="55.562" y2="55.562" gradientTransform="translate(-276.92 -48.322) scale(1.9355)" gradientUnits="userSpaceOnUse" xlink:href="#a"/><linearGradient id="a"><stop stop-color="#868f93" offset="0"/><stop stop-color="#939b9d" offset=".056"/><stop stop-color="#7c7a74" offset=".115"/><stop stop-color="#918b7f" offset=".505"/><stop stop-color="#656866" offset=".915"/><stop stop-color="#8f9ea5" offset=".962"/><stop stop-color="#98aab4" offset="1"/></linearGradient><linearGradient id="r" x1="144.66" x2="174.56" y1="55.562" y2="55.562" gradientTransform="translate(-276.92 -58) scale(1.9355)" gradientUnits="userSpaceOnUse" xlink:href="#a"/><linearGradient id="q" x1="237.32" x2="239.69" y1="18.634" y2="111.87" gradientTransform="translate(-58.986 .793) scale(.3932)" gradientUnits="userSpaceOnUse"><stop stop-color="#9fa6aa" offset="0"/><stop stop-color="#c2d5dc" offset="1"/></linearGradient><linearGradient id="p" x1="285.3" x2="177.35" y1="58.879" y2="58.879" gradientTransform="translate(-58.986 .793) scale(.3932)" gradientUnits="userSpaceOnUse"><stop stop-color="#3e3f41" offset="0"/><stop stop-color="#f6f7f7" offset=".148"/><stop stop-color="#8396a5" offset=".55"/><stop stop-color="#50484b" offset="1"/></linearGradient><linearGradient id="o" x1="50.27" x2="50.27" y1="14.816" y2="8.731" gradientTransform="translate(-335.74 -59.935) scale(7.3154)" gradientUnits="userSpaceOnUse"><stop stop-color="#c0d5dc" offset="0"/><stop stop-color="#9ea5a8" offset="1"/></linearGradient><linearGradient id="n" x1="38.364" x2="39.951" y1="15.17" y2="15.17" gradientTransform="translate(-232.4 -58) scale(7.3154)" gradientUnits="userSpaceOnUse"><stop stop-color="#2d2e30" offset="0"/><stop stop-color="#5d5c5b" stop-opacity="0" offset=".334"/><stop stop-color="#7a7b7b" stop-opacity="0" offset=".502"/><stop stop-color="#555" stop-opacity="0" offset=".686"/><stop stop-color="#70787e" offset="1"/></linearGradient><linearGradient id="m" x1="38.364" x2="39.951" y1="15.17" y2="15.17" gradientTransform="translate(-276.92 -58) scale(7.3154)" gradientUnits="userSpaceOnUse"><stop stop-color="#2d2e30" offset="0"/><stop stop-color="#5d5c5b" stop-opacity="0" offset=".334"/><stop stop-color="#7a7b7b" stop-opacity="0" offset=".502"/><stop stop-color="#555" stop-opacity="0" offset=".686"/><stop stop-color="#333" offset="1"/></linearGradient><linearGradient id="l" x1="120.59" x2="118.64" y1="137.54" y2="139.07" gradientTransform="translate(-2.955 1.088) scale(.3932)" gradientUnits="userSpaceOnUse" xlink:href="#b"/><linearGradient id="k" x1="120.59" x2="118.64" y1="137.54" y2="139.07" gradientTransform="translate(-5.42 1.088) scale(.3932)" gradientUnits="userSpaceOnUse" xlink:href="#b"/><linearGradient id="j" x1="120.59" x2="118.64" y1="137.54" y2="139.07" gradientTransform="translate(-7.887 1.088) scale(.3932)" gradientUnits="userSpaceOnUse" xlink:href="#b"/><linearGradient id="i" x1="120.59" x2="118.64" y1="137.54" y2="139.07" gradientTransform="translate(-10.353 1.088) scale(.3932)" gradientUnits="userSpaceOnUse" xlink:href="#b"/><linearGradient id="h" x1="120.59" x2="118.64" y1="137.54" y2="139.07" gradientTransform="translate(-12.819 1.088) scale(.3932)" gradientUnits="userSpaceOnUse" xlink:href="#b"/><linearGradient id="g" x1="120.59" x2="118.64" y1="137.54" y2="139.07" gradientTransform="translate(-15.285 1.088) scale(.3932)" gradientUnits="userSpaceOnUse" xlink:href="#b"/><linearGradient id="f" x1="120.59" x2="118.64" y1="137.54" y2="139.07" gradientTransform="translate(-17.752 1.088) scale(.3932)" gradientUnits="userSpaceOnUse" xlink:href="#b"/><linearGradient id="e" x1="242.09" x2="173.32" y1="131.04" y2="131.04" gradientTransform="translate(-58.986 .793) scale(.3932)" gradientUnits="userSpaceOnUse"><stop stop-color="#8a8a8a" offset="0"/><stop stop-color="#3d3c3c" offset="1"/></linearGradient><linearGradient id="d" x1="50.27" x2="50.27" y1="15.081" y2="14.023" gradientTransform="translate(-335.74 -50.258) scale(7.3154)" gradientUnits="userSpaceOnUse"><stop stop-color="#404041" offset="0"/><stop stop-color="#1e1e1e" offset="1"/></linearGradient><filter id="c" x="-.025" y="-.029" width="1.05" height="1.058" color-interpolation-filters="sRGB"><feGaussianBlur stdDeviation=".609"/></filter></defs><path d="M13.325 12.637c-3.8 0-5.756 1.757-6.135 5.413L3.088 57.58c-.307 2.965 2.399 5.38 5.38 5.38H55.53c2.98 0 5.687-2.415 5.38-5.38l-4.102-39.53c-.379-3.656-2.335-5.413-6.135-5.413h-19.43z" filter="url(#c)" opacity=".35"/><g stroke-width="7.315"><path d="M13.325 11.677c-3.8 0-5.756 1.757-6.135 5.413L3.088 56.62C2.781 59.585 5.487 62 8.468 62H55.53c2.98 0 5.687-2.415 5.38-5.38l-4.102-39.53c-.379-3.656-2.335-5.413-6.135-5.413h-19.43z" fill="url(#d)"/><path d="M9.533 53.574h4.713c6.422 4.372 13.079 4.367 19.792 4.367h11.626l8.835-3.686s.84-3.226.463-3.132c-.377.095-46.088 0-46.088 0z" fill-opacity=".084"/><path d="M9.533 53.245h4.713c6.422 4.372 13.079 4.367 19.792 4.367H45.4l9.262-3.353s.676-3.559.3-3.465c-.378.095-46.089 0-46.089 0z" fill="url(#e)"/><path d="M3.725 45.886v9.678a5.806 4.502 0 0 0 5.806 4.502 5.806 4.502 0 0 0 5.807-4.502v-9.678z" fill="#7a7b7b"/></g><g stroke-width=".393"><rect x="28.899" y="51.272" width="1.399" height="6.531" rx=".2" ry=".2" fill="url(#f)" style="paint-order:fill markers stroke"/><rect x="31.365" y="51.272" width="1.399" height="6.531" rx=".2" ry=".2" fill="url(#g)" style="paint-order:fill markers stroke"/><rect x="33.832" y="51.272" width="1.399" height="6.531" rx=".2" ry=".2" fill="url(#h)" style="paint-order:fill markers stroke"/><rect x="36.298" y="51.272" width="1.399" height="6.531" rx=".2" ry=".2" fill="url(#i)" style="paint-order:fill markers stroke"/><rect x="38.764" y="51.272" width="1.399" height="6.531" rx=".2" ry=".2" fill="url(#j)" style="paint-order:fill markers stroke"/><rect x="41.229" y="51.272" width="1.399" height="6.531" rx=".2" ry=".2" fill="url(#k)" style="paint-order:fill markers stroke"/><rect x="43.694" y="51.272" width="1.399" height="6.531" rx=".2" ry=".2" fill="url(#l)" style="paint-order:fill markers stroke"/></g><g stroke-width="7.315"><path d="M48.241 45.886v9.678a5.806 4.502 0 0 0 5.806 4.502 5.806 4.502 0 0 0 5.807-4.502v-9.678z" fill="#797a7a"/><path d="M3.725 45.886v9.678a5.806 4.502 0 0 0 5.806 4.502 5.806 4.502 0 0 0 5.807-4.502v-9.678z" fill="url(#m)"/><path d="M48.241 45.886v9.678a5.806 4.502 0 0 0 5.806 4.502 5.806 4.502 0 0 0 5.807-4.502v-9.678z" fill="url(#n)"/><path d="M13.325 2c-3.8 0-5.756 1.757-6.135 5.413l-4.102 39.53c-.307 2.965 2.399 5.38 5.38 5.38H55.53c2.98 0 5.687-2.415 5.38-5.38l-4.102-39.53C56.43 3.757 54.474 2 50.674 2h-19.43z" fill="url(#o)"/><path d="m50.882 7.067-.996-.913-10.3 11.474c-2.63.35-5.248.527-7.895.508-12.35-.469-23.016 6.821-23.016 14.793 0 7.971 10.018 14.433 22.378 14.433s22.88-6.56 22.88-14.53a9.53 9.53 0 0 0-.306-2.368z" fill="url(#p)" style="paint-order:fill markers stroke"/><path d="m12.608 14.46 31.018.43-.644-7.965c-7.837.791-26.614 1.819-29.77 6.926z" fill="#7a8285"/><path d="m49.997 6.124-36.452.252-.32 7.493 27.303.21-.556 3.164-.406.662c-.793-.06-4.24.441-5.055.386-13.308-.903-24.5 6.095-24.5 13.825 0 7.73 9.429 13.996 21.059 13.996s21.53-6.36 21.53-14.089a9.5 9.5 0 0 0-.286-2.296z" fill="url(#q)" style="paint-order:fill markers stroke"/><path d="M15.527 7.041h22.599c.369 0 .643.297.665.665l.285 4.627c.022.368-.297.666-.666.666H15.275c-.368 0-.685-.298-.665-.666l.251-4.627c.029-.367.297-.665.666-.665z" fill="#1f2021"/><path fill="#fff" d="M15.79 9.309h15.76v.086H15.79zM15.724 8.065v.121h.095v-.12zm8.302 0v.314a.199.199 0 0 0-.076-.08.22.22 0 0 0-.11-.022.205.205 0 0 0-.17.083.344.344 0 0 0-.068.22c0 .09.024.166.068.222.044.056.1.084.17.084.043 0 .08-.01.11-.027a.194.194 0 0 0 .076-.076v.087h.094v-.805zm1.444 0v.121h.098v-.12zm.843 0v.805h.098v-.283l.295.283h.125l-.322-.31.306-.272h-.12l-.284.254v-.477zm-4.53.03v.775h.107V8.5h.378v.37h.106v-.775h-.106v.318h-.378v-.318zm2.874 0v.775h.215c.15 0 .259-.032.33-.094.07-.063.105-.162.105-.295 0-.133-.032-.229-.102-.291-.07-.063-.183-.095-.333-.095zm-7.965.03v.163h-.072v.076h.072v.314c0 .072.014.123.042.15.027.028.077.042.15.042h.1v-.08h-.1c-.039 0-.066-.008-.079-.022-.012-.013-.019-.043-.019-.09v-.314h.197v-.076h-.197v-.162zm3.243 0v.163h-.068v.076h.068v.314c0 .072.014.123.042.15.028.028.082.042.155.042h.098v-.08h-.098c-.04 0-.066-.008-.08-.022-.012-.013-.018-.043-.018-.09v-.314h.196v-.076h-.196v-.162zm4.828.057h.128c.107 0 .182.024.23.072.05.048.077.123.077.227 0 .104-.026.182-.076.23-.05.049-.124.072-.23.072h-.13zm-8.464.095a.213.213 0 0 0-.185.102v-.09h-.099v.581h.099v-.329c0-.056.011-.1.041-.132a.163.163 0 0 1 .125-.049c.043 0 .073.014.095.042a.191.191 0 0 1 .034.12v.348h.095V8.52a.28.28 0 0 0-.053-.182c-.035-.041-.085-.06-.151-.06zm1.05 0a.268.268 0 0 0-.207.083.322.322 0 0 0-.076.227c0 .092.026.161.08.215.054.054.13.083.223.083a.534.534 0 0 0 .211-.045v-.09a.414.414 0 0 1-.208.053c-.062 0-.111-.016-.147-.05a.227.227 0 0 1-.06-.151h.438v-.045a.292.292 0 0 0-.068-.205.237.237 0 0 0-.185-.075zm.696 0a.23.23 0 0 0-.113.026.19.19 0 0 0-.08.076v-.09h-.098v.581h.099v-.306c0-.065.013-.116.041-.151a.153.153 0 0 1 .125-.053c.015 0 .03 0 .042.004a.113.113 0 0 1 .033.015v-.098a.327.327 0 0 0-.026-.004h-.023zm.412 0c-.04 0-.074.009-.105.026a.236.236 0 0 0-.084.076v-.09h-.094v.581h.094v-.329c0-.056.016-.1.046-.132.03-.033.07-.049.12-.049.043 0 .078.014.1.042.02.027.03.066.03.12v.348h.094V8.52c0-.08-.016-.14-.05-.182-.034-.041-.084-.06-.15-.06zm.636 0a.268.268 0 0 0-.208.083.322.322 0 0 0-.076.227c0 .092.026.161.08.215a.298.298 0 0 0 .219.083.534.534 0 0 0 .215-.045v-.09a.414.414 0 0 1-.208.053c-.063 0-.112-.016-.147-.05a.227.227 0 0 1-.061-.151h.439v-.045a.292.292 0 0 0-.069-.205.237.237 0 0 0-.185-.075zm.695 0a.245.245 0 0 0-.117.026.18.18 0 0 0-.076.076v-.09h-.098v.581h.098v-.306c0-.065.013-.116.042-.151a.153.153 0 0 1 .125-.053c.015 0 .029 0 .041.004a.113.113 0 0 1 .034.015v-.098a.327.327 0 0 0-.026-.004h-.023zm.81 0a.268.268 0 0 0-.209.083.322.322 0 0 0-.075.227c0 .092.025.161.079.215a.298.298 0 0 0 .22.083.534.534 0 0 0 .215-.045v-.09a.414.414 0 0 1-.208.053c-.063 0-.112-.016-.148-.05a.227.227 0 0 1-.06-.151h.438v-.045a.292.292 0 0 0-.068-.205.237.237 0 0 0-.185-.075zm.695 0a.245.245 0 0 0-.118.026.18.18 0 0 0-.075.076v-.09h-.098v.581h.098v-.306c0-.065.013-.116.042-.151a.153.153 0 0 1 .124-.053c.016 0 .03 0 .042.004a.126.126 0 0 1 .034.015v-.098a.287.287 0 0 0-.026-.004h-.023zm1.489 0a.478.478 0 0 0-.197.038v.09a.374.374 0 0 1 .185-.05c.053.001.093.015.122.039a.128.128 0 0 1 .045.102v.008h-.136c-.087 0-.149.015-.193.049a.176.176 0 0 0-.068.147c0 .056.018.103.053.136.035.033.084.05.143.05.047 0 .085-.01.118-.027a.208.208 0 0 0 .083-.076v.087h.094v-.332c0-.089-.022-.153-.064-.197-.042-.044-.101-.064-.185-.064zm.733 0a.245.245 0 0 0-.117.026.19.19 0 0 0-.08.076v-.09h-.094v.581h.095v-.306c0-.065.013-.116.042-.151a.153.153 0 0 1 .124-.053c.016 0 .03 0 .042.004a.15.15 0 0 1 .038.015l-.004-.098a.327.327 0 0 0-.026-.004h-.02zm2.435 0a.259.259 0 0 0-.163.045.149.149 0 0 0-.06.125c0 .045.015.08.041.106.027.025.07.044.129.056l.03.008c.06.013.1.028.117.042.018.013.026.03.026.056a.078.078 0 0 1-.038.068.19.19 0 0 1-.102.023.528.528 0 0 1-.208-.057v.099a.78.78 0 0 0 .205.037.284.284 0 0 0 .173-.049.147.147 0 0 0 .068-.125.151.151 0 0 0-.045-.113.306.306 0 0 0-.144-.06l-.034-.008a.312.312 0 0 1-.102-.034c-.017-.013-.023-.03-.023-.053 0-.029.01-.05.035-.064a.205.205 0 0 1 .106-.023.386.386 0 0 1 .173.042v-.09a.394.394 0 0 0-.083-.024.647.647 0 0 0-.102-.007zm-10.225.011v.582h.094v-.582zm9.745 0v.582h.099v-.582zm-8.116.068c.047 0 .081.014.11.046a.182.182 0 0 1 .045.124l-.34.004a.198.198 0 0 1 .056-.128.182.182 0 0 1 .129-.046zm1.739 0c.047 0 .085.014.113.046a.182.182 0 0 1 .046.124l-.34.004a.198.198 0 0 1 .056-.128.172.172 0 0 1 .124-.046zm1.504 0c.047 0 .086.014.114.046a.182.182 0 0 1 .045.124l-.34.004a.196.196 0 0 1 .053-.128.181.181 0 0 1 .128-.046zm3.267 0c.05 0 .092.02.12.06a.27.27 0 0 1 .042.163c0 .07-.013.127-.041.167-.03.04-.07.06-.121.06a.137.137 0 0 1-.118-.06.284.284 0 0 1-.045-.167.27.27 0 0 1 .045-.162c.03-.04.067-.06.118-.06zm-1.025.223h.099v.02a.227.227 0 0 1-.05.15.162.162 0 0 1-.128.057.134.134 0 0 1-.09-.03.101.101 0 0 1-.034-.08c0-.042.015-.073.045-.09a.335.335 0 0 1 .159-.027zm-7.114 1.134v.091h.075v-.09zm6.37 0v.239a.15.15 0 0 0-.061-.057.167.167 0 0 0-.083-.019.162.162 0 0 0-.133.064.269.269 0 0 0-.049.17c0 .07.016.124.05.167a.161.161 0 0 0 .132.064.17.17 0 0 0 .083-.019.157.157 0 0 0 .06-.057v.065h.072v-.617zm1.107 0v.091h.072v-.09zm.647 0v.617h.075v-.216l.223.216h.098L24 10.095l.234-.208h-.094l-.216.19v-.364zm.733 0v.091h.072v-.09zm-4.207.023v.594h.079v-.28h.291v.28h.08v-.594h-.08v.246h-.291v-.246zm2.203 0v.594h.167c.114 0 .199-.024.253-.072.054-.048.08-.121.08-.223 0-.102-.026-.18-.08-.227-.053-.048-.138-.072-.253-.072zm-6.112.023v.128h-.053v.057h.053v.238c0 .056.012.096.033.117.022.021.058.03.114.03h.075v-.06h-.075c-.03 0-.05-.005-.06-.015-.01-.01-.013-.036-.013-.072v-.238h.148v-.057h-.148V9.76zm2.491 0v.128h-.053v.057h.053v.238c0 .056.009.096.03.117.021.021.06.03.117.03h.076v-.06h-.076c-.03 0-.05-.005-.06-.015-.01-.01-.016-.036-.016-.072v-.238h.151v-.057h-.15V9.76zm6.366 0v.128h-.053v.057h.053v.238c0 .056.009.096.03.117.021.021.06.03.117.03h.076v-.06h-.076c-.03 0-.05-.005-.06-.015-.01-.01-.016-.036-.016-.072v-.238h.151v-.057h-.151V9.76zm2.491 0v.128h-.057v.057h.057v.238c0 .056.009.096.03.117.021.021.06.03.117.03h.076v-.06h-.076c-.03 0-.05-.005-.06-.015-.01-.01-.016-.036-.016-.072v-.238h.151v-.057h-.15V9.76zm-5.156.045h.098c.082 0 .14.02.178.057.038.037.06.094.06.174 0 .08-.022.137-.06.174-.038.037-.096.056-.178.056h-.098zm-6.49.072a.17.17 0 0 0-.084.019.18.18 0 0 0-.06.06v-.068h-.076v.443h.075v-.25c0-.043.011-.077.035-.102a.114.114 0 0 1 .09-.038c.033 0 .06.01.076.03.017.021.026.053.026.095v.265h.072v-.269a.214.214 0 0 0-.042-.14c-.026-.032-.062-.045-.113-.045zm.804 0a.205.205 0 0 0-.158.064.25.25 0 0 0-.061.174c0 .07.023.125.064.166.042.042.096.06.167.06.028 0 .06 0 .087-.007a.441.441 0 0 0 .079-.026v-.068a.378.378 0 0 1-.159.041c-.048 0-.086-.011-.113-.037a.174.174 0 0 1-.046-.118h.333v-.034a.229.229 0 0 0-.053-.158.175.175 0 0 0-.14-.057zm.537 0a.19.19 0 0 0-.09.019.159.159 0 0 0-.061.06v-.068h-.072v.443h.072v-.235c0-.05.012-.086.034-.113a.115.115 0 0 1 .095-.042.12.12 0 0 1 .03.004c.01.002.018.007.026.011V9.88l-.019-.004h-.015zm.31 0a.156.156 0 0 0-.08.019.19.19 0 0 0-.064.06v-.068h-.071v.443h.071v-.25c0-.043.015-.077.038-.102a.114.114 0 0 1 .091-.038c.033 0 .06.01.076.03.017.021.022.053.022.095v.265h.076v-.269a.214.214 0 0 0-.042-.14c-.026-.032-.065-.045-.117-.045zm.488 0a.205.205 0 0 0-.159.064.249.249 0 0 0-.057.174c0 .07.019.125.06.166.042.042.1.06.17.06a.405.405 0 0 0 .084-.007.441.441 0 0 0 .08-.026v-.068a.338.338 0 0 1-.16.041c-.048 0-.085-.011-.113-.037a.174.174 0 0 1-.045-.118h.336v-.034a.229.229 0 0 0-.052-.158.184.184 0 0 0-.144-.057zm.537 0a.192.192 0 0 0-.091.019.142.142 0 0 0-.057.06v-.068h-.076v.443h.076v-.235c0-.05.008-.086.03-.113a.115.115 0 0 1 .094-.042c.011 0 .024.002.035.004.01.002.018.007.026.011V9.88l-.019-.004h-.019zm.62 0a.205.205 0 0 0-.16.064.25.25 0 0 0-.06.174c0 .07.023.125.064.166.042.042.096.06.167.06a.405.405 0 0 0 .166-.033v-.068a.378.378 0 0 1-.162.041c-.049 0-.087-.011-.114-.037a.174.174 0 0 1-.045-.118h.336v-.034a.229.229 0 0 0-.052-.158.175.175 0 0 0-.14-.057zm.533 0a.175.175 0 0 0-.087.019.159.159 0 0 0-.061.06v-.068h-.076v.443h.076v-.235c0-.05.008-.086.03-.113a.123.123 0 0 1 .098-.042.12.12 0 0 1 .03.004c.01.002.019.007.027.011V9.88l-.02-.004h-.018zm1.141 0a.378.378 0 0 0-.151.03v.068a.316.316 0 0 1 .144-.038c.04 0 .068.008.09.027a.098.098 0 0 1 .035.08v.007h-.102c-.067 0-.114.012-.148.038a.137.137 0 0 0-.052.113c0 .043.014.076.041.102a.155.155 0 0 0 .11.038.197.197 0 0 0 .09-.019.159.159 0 0 0 .061-.06v.068h.076v-.254c0-.068-.017-.118-.049-.151-.031-.033-.08-.05-.144-.05zm.564 0a.192.192 0 0 0-.091.019.15.15 0 0 0-.06.06v-.068h-.073v.443h.072v-.235c0-.05.013-.086.034-.113a.115.115 0 0 1 .095-.042c.011 0 .024.002.034.004.01.002.018.007.026.011V9.88l-.023-.004h-.015zm1.867 0a.2.2 0 0 0-.125.034.11.11 0 0 0-.045.094c0 .035.01.064.03.084.02.02.053.032.098.041l.027.008c.045.01.073.02.087.03.013.01.019.025.019.045a.054.054 0 0 1-.027.05.147.147 0 0 1-.08.018.38.38 0 0 1-.159-.042v.076a.593.593 0 0 0 .16.027c.057 0 .1-.01.132-.034a.115.115 0 0 0 .05-.099c0-.036-.009-.066-.03-.087a.25.25 0 0 0-.114-.045l-.023-.007a.252.252 0 0 1-.08-.027.043.043 0 0 1-.018-.038.06.06 0 0 1 .026-.053.168.168 0 0 1 .083-.015.293.293 0 0 1 .133.03v-.068a.3.3 0 0 0-.065-.018c-.024-.004-.052-.004-.08-.004zm1.452 0a.156.156 0 0 0-.08.019.19.19 0 0 0-.064.06v-.068h-.072v.443h.072v-.25c0-.043.01-.077.034-.102a.122.122 0 0 1 .095-.038c.033 0 .059.01.075.03.017.021.023.053.023.095v.265h.076v-.269h-.004c0-.061-.012-.108-.038-.14-.027-.032-.066-.045-.117-.045zm.809 0a.205.205 0 0 0-.16.064.25.25 0 0 0-.06.174c0 .07.023.125.065.166.041.042.095.06.166.06a.405.405 0 0 0 .166-.033v-.068a.378.378 0 0 1-.162.041c-.049 0-.086-.011-.114-.037a.174.174 0 0 1-.045-.118h.336v-.034a.229.229 0 0 0-.052-.158.175.175 0 0 0-.14-.057zm.533 0a.176.176 0 0 0-.087.019.15.15 0 0 0-.061.06v-.068h-.076v.443h.076v-.235c0-.05.008-.086.03-.113a.123.123 0 0 1 .098-.042.12.12 0 0 1 .03.004c.01.002.019.007.027.011V9.88l-.02-.004h-.018zm.313 0a.17.17 0 0 0-.083.019.18.18 0 0 0-.06.06v-.068h-.072v.443h.071v-.25c0-.043.011-.077.035-.102a.122.122 0 0 1 .094-.038c.033 0 .06.01.076.03.017.021.023.053.023.095v.265h.071v-.269c0-.061-.011-.108-.038-.14-.026-.032-.065-.045-.117-.045zm.488 0a.205.205 0 0 0-.159.064.249.249 0 0 0-.057.174c0 .07.02.125.061.166.042.042.1.06.17.06a.405.405 0 0 0 .083-.007.441.441 0 0 0 .08-.026v-.068a.378.378 0 0 1-.16.041c-.047 0-.085-.011-.113-.037a.174.174 0 0 1-.045-.118h.337v-.034a.229.229 0 0 0-.053-.158.184.184 0 0 0-.144-.057zm.537 0a.192.192 0 0 0-.09.019.15.15 0 0 0-.062.06v-.068h-.071v.443h.071v-.235c0-.05.013-.086.035-.113a.115.115 0 0 1 .094-.042.12.12 0 0 1 .03.004c.01.002.022.007.03.011V9.88l-.022-.004H27.7zm.616 0a.205.205 0 0 0-.159.064.249.249 0 0 0-.057.174c0 .07.02.125.06.166.043.042.1.06.171.06a.404.404 0 0 0 .083-.007.441.441 0 0 0 .08-.026v-.068a.338.338 0 0 1-.16.041c-.047 0-.085-.011-.113-.037a.174.174 0 0 1-.045-.118h.337v-.034a.229.229 0 0 0-.053-.158.184.184 0 0 0-.144-.057zm.537 0a.192.192 0 0 0-.09.019.142.142 0 0 0-.058.06v-.068h-.076v.443h.076v-.235c0-.05.008-.086.03-.113a.115.115 0 0 1 .095-.042c.01 0 .024.002.034.004.01.002.018.007.026.011V9.88l-.019-.004h-.019zm-13.13.011v.443h.076v-.443zm7.478 0v.443h.071v-.443zm1.38 0v.443h.071v-.443zm-7.61.05c.036 0 .065.013.087.037a.137.137 0 0 1 .034.095h-.26a.15.15 0 0 1 .041-.098.136.136 0 0 1 .099-.034zm1.338 0c.036 0 .066.013.087.037a.137.137 0 0 1 .035.095h-.261a.147.147 0 0 1 .042-.098.136.136 0 0 1 .098-.034zm1.153 0c.036 0 .066.013.087.037a.133.133 0 0 1 .034.095h-.26a.147.147 0 0 1 .04-.098.136.136 0 0 1 .1-.034zm2.507 0c.038 0 .068.014.09.045.023.03.035.075.035.128a.203.203 0 0 1-.035.125c-.022.03-.052.045-.09.045s-.068-.014-.091-.045a.208.208 0 0 1-.034-.125.22.22 0 0 1 .034-.128.105.105 0 0 1 .09-.046zm3.86 0c.035 0 .065.013.086.037a.137.137 0 0 1 .035.095h-.261a.15.15 0 0 1 .042-.098.136.136 0 0 1 .098-.034zm1.338 0c.035 0 .061.013.083.037a.137.137 0 0 1 .034.095h-.26a.153.153 0 0 1 .045-.098.136.136 0 0 1 .098-.034zm1.153 0c.035 0 .065.013.087.037a.137.137 0 0 1 .034.095h-.261a.15.15 0 0 1 .042-.098.136.136 0 0 1 .098-.034zm-7.137.17h.071v.015c0 .047-.01.088-.034.117a.122.122 0 0 1-.099.041.105.105 0 0 1-.071-.022c-.017-.016-.023-.035-.023-.06 0-.033.011-.059.035-.073.022-.013.062-.018.12-.018zm-5.46.415v.091h.076v-.09zm6.37 0v.239a.15.15 0 0 0-.06-.057.167.167 0 0 0-.083-.019.162.162 0 0 0-.133.064.269.269 0 0 0-.049.17c0 .07.016.124.05.167a.161.161 0 0 0 .132.064.17.17 0 0 0 .083-.019.157.157 0 0 0 .06-.057v.065h.072v-.617zm1.108 0v.091h.072v-.09zm.647 0v.617h.075v-.216l.223.216h.098L24 10.904l.234-.208h-.094l-.216.19v-.364zm.733 0v.091h.072v-.09zm-4.207.023v.594h.079v-.28h.291v.28h.08v-.594h-.08v.246h-.291v-.246zm2.203 0v.594h.167c.114 0 .199-.024.253-.072.054-.048.08-.121.08-.223 0-.102-.026-.18-.08-.227-.053-.048-.138-.072-.253-.072zm-6.112.023v.128h-.053v.057h.053v.238c0 .056.012.096.033.117.022.021.058.03.114.03h.075v-.06h-.075c-.03 0-.05-.005-.06-.015-.01-.01-.013-.036-.013-.072v-.238h.148v-.057h-.148v-.128zm2.491 0v.128h-.053v.057h.053v.238c0 .056.009.096.03.117.021.021.06.03.117.03h.076v-.06h-.076c-.03 0-.05-.005-.06-.015-.01-.01-.016-.036-.016-.072v-.238h.151v-.057h-.15v-.128zm6.366 0v.128h-.053v.057h.053v.238c0 .056.009.096.03.117.021.021.06.03.117.03h.076v-.06h-.076c-.03 0-.05-.005-.06-.015-.01-.01-.016-.036-.016-.072v-.238h.151v-.057h-.151v-.128zm2.491 0v.128h-.057v.057h.057v.238c0 .056.009.096.03.117.021.021.06.03.117.03h.076v-.06h-.076c-.03 0-.05-.005-.06-.015-.01-.01-.016-.036-.016-.072v-.238h.151v-.057h-.15v-.128zm-5.156.045h.098c.082 0 .14.02.178.057.038.037.06.094.06.174 0 .08-.022.137-.06.174-.038.037-.096.056-.178.056h-.098zm-6.49.072a.17.17 0 0 0-.084.019.18.18 0 0 0-.06.06v-.068h-.076v.443h.075v-.25c0-.043.011-.077.035-.102a.114.114 0 0 1 .09-.038c.033 0 .06.01.076.03.017.021.026.053.026.095v.265h.072v-.269a.214.214 0 0 0-.042-.14c-.026-.032-.062-.045-.113-.045zm.804 0a.205.205 0 0 0-.158.064.25.25 0 0 0-.061.174c0 .07.023.125.064.166.042.042.096.06.167.06.028 0 .06 0 .087-.007a.441.441 0 0 0 .079-.026v-.068a.378.378 0 0 1-.159.041c-.048 0-.086-.011-.113-.037a.174.174 0 0 1-.046-.118h.333V10.9a.229.229 0 0 0-.053-.158.175.175 0 0 0-.14-.057zm.537 0a.19.19 0 0 0-.09.019.159.159 0 0 0-.061.06v-.068h-.072v.443h.072v-.235c0-.05.012-.086.034-.113a.115.115 0 0 1 .095-.042.12.12 0 0 1 .03.004c.01.002.018.007.026.011v-.075c-.008-.002-.013-.004-.019-.004h-.015zm.31 0a.155.155 0 0 0-.08.019.19.19 0 0 0-.064.06v-.068h-.071v.443h.071v-.25c0-.043.015-.077.038-.102a.114.114 0 0 1 .091-.038c.033 0 .06.01.076.03.017.021.022.053.022.095v.265h.076v-.269a.214.214 0 0 0-.042-.14c-.026-.032-.065-.045-.117-.045zm.488 0a.205.205 0 0 0-.159.064.249.249 0 0 0-.057.174c0 .07.019.125.06.166.042.042.1.06.17.06a.404.404 0 0 0 .084-.007.441.441 0 0 0 .08-.026v-.068a.338.338 0 0 1-.16.041c-.048 0-.085-.011-.113-.037a.174.174 0 0 1-.045-.118h.336V10.9a.229.229 0 0 0-.052-.158.184.184 0 0 0-.144-.057zm.537 0a.192.192 0 0 0-.091.019.142.142 0 0 0-.057.06v-.068h-.076v.443h.076v-.235c0-.05.008-.086.03-.113a.115.115 0 0 1 .094-.042c.011 0 .024.002.035.004.01.002.018.007.026.011v-.075c-.008-.002-.013-.004-.019-.004h-.019zm.62 0a.205.205 0 0 0-.16.064.25.25 0 0 0-.06.174c0 .07.023.125.065.166.041.042.095.06.166.06a.405.405 0 0 0 .166-.033v-.068a.378.378 0 0 1-.162.041c-.049 0-.087-.011-.114-.037a.174.174 0 0 1-.045-.118h.336V10.9a.229.229 0 0 0-.052-.158.175.175 0 0 0-.14-.057zm.533 0a.175.175 0 0 0-.087.019.159.159 0 0 0-.061.06v-.068h-.076v.443h.076v-.235c0-.05.008-.086.03-.113a.123.123 0 0 1 .098-.042.12.12 0 0 1 .03.004c.01.002.019.007.027.011v-.075c-.008-.002-.014-.004-.02-.004h-.018zm1.141 0a.377.377 0 0 0-.15.03v.068a.316.316 0 0 1 .144-.038c.039 0 .067.008.09.027a.098.098 0 0 1 .034.08v.007h-.102c-.067 0-.114.012-.148.038a.137.137 0 0 0-.052.113c0 .043.014.076.041.102a.155.155 0 0 0 .11.038.197.197 0 0 0 .09-.019.159.159 0 0 0 .061-.06v.067h.076v-.253c0-.068-.017-.118-.049-.151-.031-.033-.08-.05-.144-.05zm.564 0a.192.192 0 0 0-.091.019.15.15 0 0 0-.06.06v-.068h-.073v.443h.072v-.235c0-.05.013-.086.034-.113a.115.115 0 0 1 .095-.042.15.15 0 0 1 .034.004c.01.002.018.007.026.011v-.075c-.008-.002-.017-.004-.023-.004h-.015zm1.867 0a.2.2 0 0 0-.125.034.11.11 0 0 0-.045.094c0 .035.01.064.03.084.02.02.053.032.098.041l.027.008c.045.01.073.02.087.03.013.01.019.025.019.045a.054.054 0 0 1-.027.05.147.147 0 0 1-.08.018.38.38 0 0 1-.159-.042v.076a.593.593 0 0 0 .16.027c.057 0 .1-.01.132-.034a.115.115 0 0 0 .05-.099c0-.036-.009-.066-.03-.087a.25.25 0 0 0-.114-.045l-.023-.007a.252.252 0 0 1-.08-.027.043.043 0 0 1-.018-.038.06.06 0 0 1 .026-.053.168.168 0 0 1 .083-.015.293.293 0 0 1 .133.03v-.068a.3.3 0 0 0-.065-.018c-.024-.004-.052-.004-.08-.004zm1.452 0a.155.155 0 0 0-.08.019.19.19 0 0 0-.064.06v-.068h-.072v.443h.072v-.25c0-.043.01-.077.034-.102a.122.122 0 0 1 .095-.038c.033 0 .059.01.075.03.017.021.023.053.023.095v.265h.076v-.269h-.004c0-.061-.012-.108-.038-.14-.027-.032-.066-.045-.117-.045zm.809 0a.205.205 0 0 0-.16.064.25.25 0 0 0-.06.174c0 .07.023.125.065.166.041.042.095.06.166.06a.405.405 0 0 0 .166-.033v-.068a.378.378 0 0 1-.162.041c-.049 0-.086-.011-.114-.037a.174.174 0 0 1-.045-.118h.336V10.9a.229.229 0 0 0-.052-.158.175.175 0 0 0-.14-.057zm.533 0a.176.176 0 0 0-.087.019.15.15 0 0 0-.061.06v-.068h-.076v.443h.076v-.235c0-.05.008-.086.03-.113a.123.123 0 0 1 .098-.042.12.12 0 0 1 .03.004c.01.002.019.007.027.011v-.075c-.008-.002-.014-.004-.02-.004h-.018zm.313 0a.17.17 0 0 0-.083.019.18.18 0 0 0-.06.06v-.068h-.072v.443h.072v-.25c0-.043.01-.077.034-.102a.122.122 0 0 1 .094-.038c.033 0 .06.01.076.03.017.021.023.053.023.095v.265h.071v-.269c0-.061-.011-.108-.038-.14-.026-.032-.065-.045-.117-.045zm.488 0a.205.205 0 0 0-.159.064.249.249 0 0 0-.057.174c0 .07.02.125.061.166.042.042.1.06.17.06a.404.404 0 0 0 .083-.007.441.441 0 0 0 .08-.026v-.068a.378.378 0 0 1-.16.041c-.047 0-.085-.011-.113-.037a.174.174 0 0 1-.045-.118h.337V10.9a.229.229 0 0 0-.053-.158.184.184 0 0 0-.144-.057zm.537 0a.192.192 0 0 0-.09.019.15.15 0 0 0-.062.06v-.068h-.071v.443h.071v-.235c0-.05.013-.086.035-.113a.115.115 0 0 1 .094-.042.12.12 0 0 1 .03.004c.01.002.022.007.03.011v-.075l-.022-.004H27.7zm.616 0a.205.205 0 0 0-.159.064.249.249 0 0 0-.057.174c0 .07.02.125.06.166.043.042.1.06.171.06a.405.405 0 0 0 .083-.007.441.441 0 0 0 .08-.026v-.068a.338.338 0 0 1-.16.041c-.047 0-.085-.011-.112-.037a.174.174 0 0 1-.046-.118h.337V10.9a.229.229 0 0 0-.053-.158.184.184 0 0 0-.144-.057zm.537 0a.192.192 0 0 0-.09.019.142.142 0 0 0-.058.06v-.068h-.076v.443h.076v-.235c0-.05.008-.086.03-.113a.115.115 0 0 1 .095-.042c.01 0 .024.002.034.004.01.002.018.007.026.011v-.075c-.008-.002-.013-.004-.019-.004h-.019zm-13.13.011v.443h.076v-.443zm7.478 0v.443h.072v-.443zm1.38 0v.443h.071v-.443zm-7.61.05c.036 0 .065.013.087.037a.137.137 0 0 1 .035.095h-.261a.15.15 0 0 1 .041-.098.136.136 0 0 1 .099-.035zm1.338 0c.036 0 .066.013.087.037a.137.137 0 0 1 .035.095h-.261a.147.147 0 0 1 .042-.098.136.136 0 0 1 .098-.035zm1.153 0c.036 0 .066.013.087.037a.133.133 0 0 1 .034.095h-.26a.147.147 0 0 1 .041-.098.136.136 0 0 1 .098-.035zm2.507 0c.038 0 .068.014.09.045.023.03.035.075.035.128a.203.203 0 0 1-.035.125c-.022.03-.052.045-.09.045s-.068-.014-.091-.045a.208.208 0 0 1-.034-.125.22.22 0 0 1 .034-.128.105.105 0 0 1 .09-.046zm3.86 0c.035 0 .065.013.086.037a.137.137 0 0 1 .035.095h-.261a.15.15 0 0 1 .042-.098.136.136 0 0 1 .098-.035zm1.338 0c.035 0 .061.013.083.037a.137.137 0 0 1 .034.095h-.26a.153.153 0 0 1 .045-.098.136.136 0 0 1 .098-.035zm1.153 0c.035 0 .065.013.087.037a.137.137 0 0 1 .034.095h-.261a.15.15 0 0 1 .042-.098.136.136 0 0 1 .098-.035zm-7.137.17h.071v.015c0 .047-.01.088-.034.117a.122.122 0 0 1-.098.041.105.105 0 0 1-.072-.022c-.017-.016-.023-.035-.023-.06 0-.033.011-.059.035-.073.022-.013.062-.018.12-.018zm-5.46.415v.091h.076v-.09zm6.37 0v.239a.15.15 0 0 0-.06-.057.167.167 0 0 0-.083-.019.162.162 0 0 0-.133.064.269.269 0 0 0-.049.17c0 .07.016.124.05.167a.161.161 0 0 0 .132.064.17.17 0 0 0 .083-.019.157.157 0 0 0 .06-.057v.065h.072v-.617zm1.108 0v.091h.072v-.09zm.647 0v.617h.075v-.216l.223.216h.099L24 11.713l.234-.208h-.094l-.216.19v-.364zm.733 0v.091h.072v-.09zm-4.207.023v.594h.079v-.28h.291v.28h.08v-.594h-.08v.246h-.291v-.246zm2.203 0v.594h.167c.114 0 .2-.024.253-.072.054-.048.08-.121.08-.223 0-.102-.026-.18-.08-.227-.053-.048-.138-.072-.253-.072zm-6.112.023v.128h-.053v.057h.053v.238c0 .056.012.096.033.117.022.021.058.03.114.03h.075v-.06h-.075c-.03 0-.05-.005-.06-.015-.01-.01-.013-.036-.013-.072v-.238h.148v-.057h-.148v-.128zm2.491 0v.128h-.053v.057h.053v.238c0 .056.009.096.03.117.021.021.06.03.117.03h.076v-.06h-.076c-.03 0-.05-.005-.06-.015-.01-.01-.016-.036-.016-.072v-.238h.151v-.057h-.15v-.128zm6.366 0v.128h-.053v.057h.053v.238c0 .056.009.096.03.117.021.021.06.03.117.03h.076v-.06h-.076c-.03 0-.05-.005-.06-.015-.01-.01-.016-.036-.016-.072v-.238h.151v-.057h-.151v-.128zm2.491 0v.128h-.057v.057h.057v.238c0 .056.009.096.03.117.021.021.06.03.117.03h.076v-.06h-.076c-.03 0-.05-.005-.06-.015-.01-.01-.016-.036-.016-.072v-.238h.151v-.057h-.15v-.128zm2.764 0v.128h-.058v.057h.058v.238c0 .056.008.096.03.117.02.021.06.03.117.03h.075v-.06h-.075c-.03 0-.05-.005-.061-.015-.01-.01-.015-.036-.015-.072v-.238h.15v-.057h-.15v-.128zm-7.92.045h.098c.082 0 .14.02.178.057.038.037.06.094.06.174 0 .08-.022.137-.06.174-.038.037-.096.056-.178.056h-.098zm-6.49.072a.17.17 0 0 0-.084.019.18.18 0 0 0-.06.06v-.068h-.076v.443h.075v-.25c0-.043.011-.077.035-.102a.114.114 0 0 1 .09-.038c.033 0 .06.01.076.03.017.021.026.053.026.095v.265h.072v-.269a.214.214 0 0 0-.042-.14c-.026-.032-.062-.045-.113-.045zm.804 0a.205.205 0 0 0-.158.064.25.25 0 0 0-.061.174c0 .07.023.125.064.166.042.042.096.06.167.06.028 0 .06 0 .087-.007a.441.441 0 0 0 .079-.026v-.068a.378.378 0 0 1-.159.041c-.048 0-.086-.011-.113-.037a.174.174 0 0 1-.046-.118h.333v-.034a.229.229 0 0 0-.053-.158.175.175 0 0 0-.14-.057zm.537 0a.19.19 0 0 0-.09.019.159.159 0 0 0-.061.06v-.068h-.072v.443h.072v-.235c0-.05.012-.086.034-.113a.115.115 0 0 1 .095-.042.12.12 0 0 1 .03.004c.01.002.018.007.026.011v-.075l-.019-.004h-.015zm.31 0a.155.155 0 0 0-.08.019.19.19 0 0 0-.064.06v-.068h-.071v.443h.071v-.25c0-.043.015-.077.038-.102a.114.114 0 0 1 .091-.038c.033 0 .06.01.076.03.017.021.023.053.023.095v.265h.075v-.269a.214.214 0 0 0-.042-.14c-.026-.032-.065-.045-.117-.045zm.488 0a.205.205 0 0 0-.159.064.249.249 0 0 0-.057.174c0 .07.019.125.06.166.042.042.1.06.17.06a.405.405 0 0 0 .084-.007.441.441 0 0 0 .08-.026v-.068a.338.338 0 0 1-.16.041c-.048 0-.085-.011-.113-.037a.174.174 0 0 1-.045-.118h.336v-.034a.229.229 0 0 0-.052-.158.184.184 0 0 0-.144-.057zm.537 0a.192.192 0 0 0-.091.019.142.142 0 0 0-.057.06v-.068h-.076v.443h.076v-.235c0-.05.008-.086.03-.113a.115.115 0 0 1 .094-.042c.011 0 .024.002.035.004.01.002.018.007.026.011v-.075l-.019-.004h-.019zm.62 0a.205.205 0 0 0-.16.064.25.25 0 0 0-.06.174c0 .07.023.125.065.166.041.042.095.06.166.06a.405.405 0 0 0 .166-.033v-.068a.378.378 0 0 1-.162.041c-.049 0-.086-.011-.114-.037a.174.174 0 0 1-.045-.118h.336v-.034a.229.229 0 0 0-.052-.158.175.175 0 0 0-.14-.057zm.533 0a.175.175 0 0 0-.087.019.159.159 0 0 0-.061.06v-.068h-.076v.443h.076v-.235c0-.05.008-.086.03-.113a.123.123 0 0 1 .098-.042.12.12 0 0 1 .03.004c.01.002.019.007.027.011v-.075l-.02-.004h-.018zm1.141 0a.377.377 0 0 0-.15.03v.068a.316.316 0 0 1 .144-.038c.039 0 .067.008.09.027a.098.098 0 0 1 .034.08v.007h-.102c-.067 0-.114.012-.148.038a.137.137 0 0 0-.052.113c0 .043.014.076.041.102a.155.155 0 0 0 .11.038.197.197 0 0 0 .09-.019.159.159 0 0 0 .061-.06v.067h.076v-.253c0-.068-.017-.118-.049-.151-.031-.033-.08-.05-.144-.05zm.564 0a.192.192 0 0 0-.091.019.15.15 0 0 0-.06.06v-.068h-.073v.443h.072v-.235c0-.05.013-.086.035-.113a.115.115 0 0 1 .094-.042.15.15 0 0 1 .034.004c.01.002.018.007.026.011v-.075l-.023-.004h-.015zm1.867 0a.2.2 0 0 0-.125.034.11.11 0 0 0-.045.094c0 .035.01.064.03.084.02.02.053.035.098.045l.027.004c.045.01.073.02.087.03.013.01.019.026.019.045a.054.054 0 0 1-.027.05.147.147 0 0 1-.08.018.38.38 0 0 1-.159-.042v.076a.593.593 0 0 0 .16.027c.057 0 .1-.01.132-.034a.115.115 0 0 0 .05-.098c0-.037-.009-.067-.03-.087a.25.25 0 0 0-.114-.046l-.023-.007a.252.252 0 0 1-.08-.027.043.043 0 0 1-.018-.038.06.06 0 0 1 .026-.052.168.168 0 0 1 .083-.016.293.293 0 0 1 .133.03v-.067a.299.299 0 0 0-.065-.02c-.024-.003-.052-.003-.08-.003zm1.452 0a.155.155 0 0 0-.08.019.19.19 0 0 0-.064.06v-.068h-.072v.443h.072v-.25c0-.043.01-.077.034-.102a.122.122 0 0 1 .095-.038c.033 0 .059.01.075.03.017.021.023.053.023.095v.265h.076v-.269h-.004c0-.061-.012-.108-.038-.14-.027-.032-.066-.045-.117-.045zm.809 0a.205.205 0 0 0-.16.064.25.25 0 0 0-.06.174c0 .07.023.125.065.166.041.042.095.06.166.06a.405.405 0 0 0 .166-.033v-.068a.378.378 0 0 1-.162.041c-.049 0-.086-.011-.114-.037a.174.174 0 0 1-.045-.118h.336v-.034a.229.229 0 0 0-.052-.158.175.175 0 0 0-.14-.057zm.533 0a.176.176 0 0 0-.087.019.15.15 0 0 0-.061.06v-.068h-.076v.443h.076v-.235c0-.05.008-.086.03-.113a.123.123 0 0 1 .098-.042.12.12 0 0 1 .03.004c.01.002.019.007.027.011v-.075l-.02-.004h-.018zm.313 0a.17.17 0 0 0-.083.019.18.18 0 0 0-.06.06v-.068h-.072v.443h.072v-.25c0-.043.01-.077.034-.102a.122.122 0 0 1 .094-.038c.033 0 .06.01.076.03.017.021.023.053.023.095v.265h.071v-.269c0-.061-.011-.108-.038-.14-.026-.032-.065-.045-.117-.045zm.488 0a.205.205 0 0 0-.159.064.249.249 0 0 0-.057.174c0 .07.02.125.061.166.042.042.1.06.17.06a.405.405 0 0 0 .083-.007.441.441 0 0 0 .08-.026v-.068a.378.378 0 0 1-.16.041c-.047 0-.085-.011-.113-.037a.174.174 0 0 1-.045-.118h.337v-.034a.229.229 0 0 0-.053-.158.184.184 0 0 0-.144-.057zm.537 0a.192.192 0 0 0-.09.019.15.15 0 0 0-.062.06v-.068h-.071v.443h.071v-.235c0-.05.013-.086.035-.113a.115.115 0 0 1 .094-.042.12.12 0 0 1 .03.004c.01.002.022.007.03.011v-.075l-.022-.004H27.7zm.616 0a.205.205 0 0 0-.159.064.249.249 0 0 0-.057.174c0 .07.02.125.06.166.043.042.1.06.171.06a.405.405 0 0 0 .083-.007.441.441 0 0 0 .08-.026v-.068a.338.338 0 0 1-.16.041c-.047 0-.085-.011-.112-.037a.174.174 0 0 1-.046-.118h.337v-.034a.229.229 0 0 0-.053-.158.184.184 0 0 0-.144-.057zm.537 0a.192.192 0 0 0-.09.019.142.142 0 0 0-.058.06v-.068h-.076v.443h.076v-.235c0-.05.008-.086.03-.113a.115.115 0 0 1 .095-.042c.01 0 .024.002.034.004.01.002.018.007.026.011v-.075l-.019-.004h-.019zm.586 0a.17.17 0 0 0-.083.019.18.18 0 0 0-.061.06v-.068h-.072v.443h.072v-.25c0-.043.01-.077.034-.102a.122.122 0 0 1 .095-.038c.033 0 .059.01.075.03.017.021.023.053.023.095v.265h.072v-.269c0-.061-.012-.108-.038-.14-.027-.032-.066-.045-.118-.045zm.487 0a.205.205 0 0 0-.158.064.249.249 0 0 0-.057.174c0 .07.019.125.06.166.042.042.1.06.17.06a.405.405 0 0 0 .084-.007.441.441 0 0 0 .079-.026v-.068a.378.378 0 0 1-.159.041c-.048 0-.086-.011-.113-.037a.174.174 0 0 1-.046-.118h.337v-.034a.229.229 0 0 0-.053-.158.184.184 0 0 0-.143-.057zm.537 0a.19.19 0 0 0-.09.019.159.159 0 0 0-.061.06v-.068h-.072v.443h.072v-.235c0-.05.012-.086.034-.113a.115.115 0 0 1 .095-.042.12.12 0 0 1 .03.004c.01.002.022.007.03.011v-.075l-.023-.004h-.015zm.616 0a.205.205 0 0 0-.158.064.249.249 0 0 0-.057.174c0 .07.019.125.06.166.042.042.1.06.17.06a.405.405 0 0 0 .084-.007.441.441 0 0 0 .079-.026v-.068a.338.338 0 0 1-.159.041c-.048 0-.086-.011-.113-.037a.174.174 0 0 1-.046-.118h.337v-.034a.229.229 0 0 0-.053-.158.184.184 0 0 0-.143-.057zm.537 0a.192.192 0 0 0-.09.019.15.15 0 0 0-.061.06v-.068h-.072v.443h.072v-.235c0-.05.012-.086.033-.113a.115.115 0 0 1 .095-.042c.01 0 .024.002.034.004.01.002.019.007.027.011v-.075l-.02-.004h-.018zm-15.892.011v.443h.076v-.443zm7.477 0v.443h.072v-.443zm1.38 0v.443h.072v-.443zm-7.61.05c.036 0 .066.013.087.037a.137.137 0 0 1 .035.095h-.261a.15.15 0 0 1 .042-.099.136.136 0 0 1 .098-.034zm1.339 0c.036 0 .065.013.087.037a.137.137 0 0 1 .034.095h-.26a.147.147 0 0 1 .041-.099.136.136 0 0 1 .098-.034zm1.153 0c.036 0 .065.013.087.037a.133.133 0 0 1 .033.095h-.26a.147.147 0 0 1 .041-.099.136.136 0 0 1 .099-.034zm2.506 0c.039 0 .068.014.09.045.023.03.035.075.035.128a.203.203 0 0 1-.034.125c-.023.03-.052.045-.09.045s-.069-.014-.092-.045a.208.208 0 0 1-.034-.125.22.22 0 0 1 .034-.128.105.105 0 0 1 .091-.046zm3.86 0c.036 0 .065.013.087.037a.137.137 0 0 1 .034.095h-.26a.15.15 0 0 1 .04-.099.136.136 0 0 1 .1-.034zm1.338 0c.036 0 .061.013.083.037a.137.137 0 0 1 .035.095h-.261a.153.153 0 0 1 .045-.099.136.136 0 0 1 .098-.034zm1.153 0c.036 0 .065.013.087.037a.137.137 0 0 1 .034.095h-.26a.15.15 0 0 1 .041-.099.136.136 0 0 1 .098-.034zm1.61 0c.036 0 .062.013.084.037a.133.133 0 0 1 .033.095h-.26a.153.153 0 0 1 .045-.099.136.136 0 0 1 .098-.034zm1.153 0c.036 0 .065.013.087.037a.137.137 0 0 1 .035.095h-.261a.15.15 0 0 1 .042-.099.136.136 0 0 1 .098-.034zm-9.9.17h.071v.015c0 .047-.009.088-.034.117a.122.122 0 0 1-.098.041.105.105 0 0 1-.072-.022c-.017-.016-.023-.035-.023-.06 0-.033.011-.059.035-.073.022-.013.062-.018.12-.018z"/><path d="m49.997 6.23-36.453.146v.386l36.453-.254z" fill="#8b8789" style="paint-order:fill markers stroke"/><path d="m12.601 14.451.491-7.279.479-.832-.35 7.526z" fill="#423d3f"/><path d="m40.099 14.806.492-.791-.62 3.229-.385.385z" fill="#463d40"/><path d="m3.108 46.756-.019.185c-.307 2.965 2.399 5.38 5.38 5.38h47.064c2.98 0 5.686-2.415 5.379-5.38l-.015-.162c-.288 2.51-2.712 4.426-5.365 4.426H8.468c-2.66 0-5.084-1.928-5.36-4.449z" fill="url(#r)"/><path d="m3.108 56.434-.019.185C2.782 59.584 5.488 62 8.47 62h47.064c2.98 0 5.686-2.415 5.379-5.38l-.015-.162c-.288 2.51-2.712 4.426-5.365 4.426H8.468c-2.66 0-5.084-1.928-5.36-4.449z" fill="url(#s)"/></g><ellipse cx="7.399" cy="47.614" rx="1.284" ry="1.052" fill="#233242" style="paint-order:fill markers stroke"/><ellipse cx="7.403" cy="47.542" rx="1.239" ry=".927" fill="#c2dfea" style="paint-order:fill markers stroke"/><path d="M7.429 46.844a.139.605 2.576 0 0-.148.404.766.139 23.938 0 0-.578-.11.766.139 23.938 0 0 .382.315.139.766 66.062 0 0-.382.31.139.766 66.062 0 0 .56-.106.139.605 2.576 0 0 .11.397.139.605 2.576 0 0 .15-.401.766.139 23.938 0 0 .579.11.766.139 23.938 0 0-.382-.31.139.766 66.062 0 0 .382-.314.139.766 66.062 0 0-.564.106.139.605 2.576 0 0-.11-.401z" fill="#1a1c20"/><ellipse cx="55.98" cy="47.614" rx="1.284" ry="1.052" fill="#233242" style="paint-order:fill markers stroke"/><ellipse cx="55.984" cy="47.542" rx="1.239" ry=".927" fill="#c2dfea" style="paint-order:fill markers stroke"/><path d="M56.01 46.844a.139.605 2.576 0 0-.147.404.766.139 23.938 0 0-.579-.11.766.139 23.938 0 0 .382.315.139.766 66.062 0 0-.382.31.139.766 66.062 0 0 .56-.106.139.605 2.576 0 0 .11.397.139.605 2.576 0 0 .15-.401.766.139 23.938 0 0 .579.11.766.139 23.938 0 0-.382-.31.139.766 66.062 0 0 .382-.314.139.766 66.062 0 0-.563.106.139.605 2.576 0 0-.11-.401z" fill="#1a1c20"/><ellipse cx="8.511" cy="24.369" rx="1.284" ry="1.052" fill="#233242" style="paint-order:fill markers stroke"/><ellipse cx="8.515" cy="24.297" rx="1.239" ry=".927" fill="#99acb5" style="paint-order:fill markers stroke"/><path d="M8.54 23.599a.139.605 2.576 0 0-.147.404.766.139 23.938 0 0-.578-.11.766.139 23.938 0 0 .382.315.139.766 66.062 0 0-.382.31.139.766 66.062 0 0 .56-.106.139.605 2.576 0 0 .109.397.139.605 2.576 0 0 .151-.401.766.139 23.938 0 0 .579.11.766.139 23.938 0 0-.382-.31.139.766 66.062 0 0 .382-.314.139.766 66.062 0 0-.564.106.139.605 2.576 0 0-.11-.401z" fill="#1a1c20"/><ellipse cx="55.103" cy="24.369" rx="1.284" ry="1.052" fill="#233242" style="paint-order:fill markers stroke"/><ellipse cx="55.106" cy="24.297" rx="1.239" ry=".927" fill="#99acb5" style="paint-order:fill markers stroke"/><path d="M55.132 23.599a.139.605 2.576 0 0-.147.404.766.139 23.938 0 0-.579-.11.766.139 23.938 0 0 .382.315.139.766 66.062 0 0-.382.31.139.766 66.062 0 0 .56-.106.139.605 2.576 0 0 .11.397.139.605 2.576 0 0 .15-.401.766.139 23.938 0 0 .579.11.766.139 23.938 0 0-.382-.31.139.766 66.062 0 0 .382-.314.139.766 66.062 0 0-.563.106.139.605 2.576 0 0-.11-.401z" fill="#1a1c20"/><ellipse cx="11.291" cy="5.176" rx="1.284" ry="1.052" fill="#233242" style="paint-order:fill markers stroke"/><ellipse cx="11.294" cy="5.104" rx="1.239" ry=".927" fill="#848f95" style="paint-order:fill markers stroke"/><path d="M11.321 4.406a.139.605 2.576 0 0-.147.404.766.139 23.938 0 0-.579-.11.766.139 23.938 0 0 .382.315.139.766 66.062 0 0-.382.31.139.766 66.062 0 0 .56-.106.139.605 2.576 0 0 .11.397.139.605 2.576 0 0 .15-.401.766.139 23.938 0 0 .579.11.766.139 23.938 0 0-.382-.31.139.766 66.062 0 0 .382-.314.139.766 66.062 0 0-.563.106.139.605 2.576 0 0-.11-.401z" fill="#1a1c20"/><ellipse cx="53.076" cy="5.176" rx="1.284" ry="1.052" fill="#233242" style="paint-order:fill markers stroke"/><ellipse cx="53.08" cy="5.104" rx="1.239" ry=".927" fill="#848f95" style="paint-order:fill markers stroke"/><path d="M53.106 4.406a.139.605 2.576 0 0-.147.404.766.139 23.938 0 0-.579-.11.766.139 23.938 0 0 .382.315.139.766 66.062 0 0-.382.31.139.766 66.062 0 0 .56-.106.139.605 2.576 0 0 .11.397.139.605 2.576 0 0 .15-.401.766.139 23.938 0 0 .579.11.766.139 23.938 0 0-.382-.31.139.766 66.062 0 0 .382-.314.139.766 66.062 0 0-.563.106.139.605 2.576 0 0-.11-.401z" fill="#1a1c20"/><path d="M34.978 8.44c-.154 0-.191.153-.28.28l-1.996 2.842c-.088.126.122.28.276.28h4.064c.154 0 .362-.152.276-.28L35.416 8.72c-.085-.128-.125-.28-.28-.28zm.034 1.058c.131 0 .235.126.235.28v.62c0 .154-.104.28-.235.28-.13 0-.238-.126-.238-.28v-.62c0-.154.107-.28.238-.28zm-.015 1.346a.22.197 0 0 1 .015 0 .22.197 0 0 1 .22.196.22.197 0 0 1-.22.197.22.197 0 0 1-.219-.197.22.197 0 0 1 .204-.196z" fill="#fff"/><path d="m39.187 34.122-2.39.016-.034-4.34 2.39-.015c2.639-.017 4.763-1.974 4.744-4.37-.019-2.396-2.174-4.325-4.813-4.308-2.64.018-4.764 1.974-4.745 4.37l.017 2.17-4.78.031-.017-2.17c-.019-2.395-2.174-4.324-4.813-4.307-2.64.017-4.764 1.974-4.745 4.37.019 2.396 2.174 4.325 4.813 4.308l2.39-.016.035 4.34-2.39.015c-2.64.017-4.764 1.974-4.745 4.37.019 2.396 2.174 4.325 4.814 4.308 2.64-.018 4.764-1.974 4.745-4.37l-.018-2.17 4.78-.031.017 2.164v.005c.019 2.397 2.174 4.325 4.814 4.308 2.639-.017 4.764-1.974 4.745-4.37-.02-2.396-2.175-4.325-4.814-4.308zm-.086-10.847c1.32-.009 2.397.956 2.407 2.154.01 1.198-1.053 2.176-2.373 2.185l-2.39.016-.017-2.17c-.01-1.198 1.053-2.176 2.373-2.185zM22.39 25.554c-.01-1.198 1.052-2.176 2.372-2.185 1.32-.009 2.398.956 2.407 2.154l.017 2.169-2.39.016c-1.32.008-2.397-.956-2.406-2.154zm2.51 15.17c-1.32.009-2.397-.956-2.407-2.154-.01-1.198 1.053-2.176 2.373-2.185l2.39-.016.017 2.17c.009 1.198-1.053 2.176-2.373 2.185zm4.728-6.54-.035-4.339 4.78-.03.034 4.338zm9.61 6.446c-1.32.01-2.397-.956-2.407-2.154l-.017-2.17 2.39-.015c1.32-.009 2.397.956 2.406 2.154.01 1.198-1.052 2.176-2.372 2.185z" opacity=".25"/></svg>