<svg width="64" height="64" version="1.1" viewBox="0 0 64 64" xmlns="http://www.w3.org/2000/svg" xmlns:osb="http://www.openswatchbook.org/uri/2009/osb" xmlns:xlink="http://www.w3.org/1999/xlink">
 <defs>
  <linearGradient id="a">
   <stop offset="0"/>
   <stop stop-color="#313131" offset="1"/>
  </linearGradient>
  <linearGradient id="b">
   <stop stop-color="#6c6c6b" offset="0"/>
   <stop stop-color="#6d727a" offset="1"/>
  </linearGradient>
  <linearGradient id="t" x1="166.11" x2="171.5" y1="136.33" y2="136.33" gradientTransform="matrix(.84531 0 0 .84531 -25.691 -64.514)" gradientUnits="userSpaceOnUse" xlink:href="#b"/>
  <linearGradient id="s" x1="230.57" x2="230.57" y1="6.7137" y2="129.44" gradientTransform="matrix(.84531 0 0 .84531 -130.22 -65.373)" gradientUnits="userSpaceOnUse">
   <stop stop-color="#cedee2" offset="0"/>
   <stop stop-color="#848989" offset="1"/>
  </linearGradient>
  <linearGradient id="r" x1="166.11" x2="171.5" y1="136.33" y2="136.33" gradientTransform="matrix(.84531 0 0 .84531 -132.86 -64.514)" gradientUnits="userSpaceOnUse" xlink:href="#b"/>
  <linearGradient id="q" x1="134.75" x2="135.25" y1="63.39" y2="83.39" gradientUnits="userSpaceOnUse">
   <stop stop-color="#bcc8ca" offset="0"/>
   <stop stop-color="#939da0" offset="1"/>
  </linearGradient>
  <linearGradient id="p" x1="130.72" x2="154.75" y1="76.017" y2="76.017" gradientUnits="userSpaceOnUse">
   <stop stop-color="#696f71" offset="0"/>
   <stop stop-color="#b8bfc3" offset="1"/>
  </linearGradient>
  <linearGradient id="o" x1="237.32" x2="239.69" y1="11.673" y2="111.87" gradientTransform="matrix(.84531 0 0 .84531 -130.22 -65.373)" gradientUnits="userSpaceOnUse">
   <stop stop-color="#d3e0e4" offset="0"/>
   <stop stop-color="#848b8c" offset="1"/>
  </linearGradient>
  <linearGradient id="n" x1="285.3" x2="177.35" y1="58.879" y2="58.879" gradientTransform="matrix(.84531 0 0 .84531 -130.22 -65.373)" gradientUnits="userSpaceOnUse">
   <stop stop-color="#e9eff1" offset="0"/>
   <stop stop-color="#918989" offset=".1"/>
   <stop stop-color="#767b7f" offset=".22745"/>
   <stop stop-color="#9ca0a4" offset=".41862"/>
   <stop stop-color="#6e7378" offset=".55724"/>
   <stop stop-color="#929699" offset=".7055"/>
   <stop stop-color="#84898b" offset=".905"/>
   <stop stop-color="#697072" offset="1"/>
  </linearGradient>
  <linearGradient id="m" x1="223.65" x2="223.65" y1="33.812" y2="79.594" gradientTransform="matrix(.84531 0 0 .84531 -130.22 -65.373)" gradientUnits="userSpaceOnUse">
   <stop stop-color="#e3e8ea" offset="0"/>
   <stop stop-color="#bdcace" offset=".6"/>
   <stop stop-color="#6a7173" offset="1"/>
  </linearGradient>
  <linearGradient id="l" x1="84.407" x2="84.407" y1="168.22" y2="191.95" gradientTransform="matrix(.84531 0 0 .84531 1.1902 -102.77)" gradientUnits="userSpaceOnUse">
   <stop stop-color="#373737" offset="0"/>
   <stop stop-color="#454545" offset="1"/>
  </linearGradient>
  <linearGradient id="k" x1="242.09" x2="173.32" y1="131.04" y2="131.04" gradientTransform="matrix(.84531 0 0 .84531 -130.22 -65.373)" gradientUnits="userSpaceOnUse">
   <stop stop-color="#8a8a8a" offset="0"/>
   <stop stop-color="#3d3c3c" offset="1"/>
  </linearGradient>
  <linearGradient id="j" x1="120.59" x2="118.64" y1="137.54" y2="139.07" gradientTransform="translate(-46.262)" gradientUnits="userSpaceOnUse" xlink:href="#a"/>
  <linearGradient id="i" x1="120.59" x2="118.64" y1="137.54" y2="139.07" gradientTransform="translate(-39.989)" gradientUnits="userSpaceOnUse" xlink:href="#a"/>
  <linearGradient id="h" x1="120.59" x2="118.64" y1="137.54" y2="139.07" gradientTransform="translate(-33.717)" gradientUnits="userSpaceOnUse" xlink:href="#a"/>
  <linearGradient id="g" x1="120.59" x2="118.64" y1="137.54" y2="139.07" gradientTransform="translate(-27.445)" gradientUnits="userSpaceOnUse" xlink:href="#a"/>
  <linearGradient id="f" x1="120.59" x2="118.64" y1="137.54" y2="139.07" gradientTransform="translate(-21.173)" gradientUnits="userSpaceOnUse" xlink:href="#a"/>
  <linearGradient id="e" x1="120.59" x2="118.64" y1="137.54" y2="139.07" gradientTransform="translate(-14.901)" gradientUnits="userSpaceOnUse" xlink:href="#a"/>
  <linearGradient id="d" x1="120.59" x2="118.64" y1="137.54" y2="139.07" gradientTransform="translate(-8.6291)" gradientUnits="userSpaceOnUse" xlink:href="#a"/>
  <linearGradient id="c" x1="167.68" x2="148.33" y1="75.318" y2="75.318" gradientUnits="userSpaceOnUse">
   <stop stop-color="#bdc4c8" offset="0"/>
   <stop stop-color="#696e6f" offset="1"/>
  </linearGradient>
 </defs>
 <g transform="matrix(.49909 0 0 .49909 -1.0006 31.845)" stroke-width="2.0037">
  <ellipse cx="76.78" cy="28.915" rx=".16949" ry=".84746" fill="#848989" style="paint-order:fill markers stroke"/>
  <rect x="7.7808" y="39.359" width="116.48" height="21.061" rx="2.9901" ry="2.9901" fill="url(#l)" style="paint-order:fill markers stroke"/>
  <path d="m17.088 48.102h10.131c13.806 9.399 28.118 9.388 42.549 9.388h45.185s0.60785-14.859-0.20262-14.656c-0.81048 0.20262-99.08 0-99.08 0z" fill-opacity=".08365"/>
  <path d="m17.088 47.386h10.131c13.806 9.399 28.118 9.388 42.549 9.388h45.185s0.60785-14.859-0.20262-14.656c-0.81048 0.20262-99.08 0-99.08 0z" fill="url(#k)"/>
  <path d="m114.08 40.946h9.5231v16.209c-2.7173 2.1412-6.638 2.202-9.5231 0z" fill-opacity=".1711" style="paint-order:fill markers stroke"/>
  <path d="m114.72 40.444h9.5231v16.209c-2.7173 2.1412-6.638 2.202-9.5231 0z" fill="url(#t)" style="paint-order:fill markers stroke"/>
  <path d="m8.1364 40.973h9.5231v16.209c-2.7173 2.1412-6.638 2.202-9.5231 0z" fill-opacity=".1711" style="paint-order:fill markers stroke"/>
  <g>
   <path d="m7.5553 40.444h9.5231v16.209c-2.7173 2.1412-6.638 2.202-9.5231 0z" fill="url(#r)" style="paint-order:fill markers stroke"/>
   <path d="m20.938-59.8h90.165c2.1328 0 3.6217 1.7292 3.8498 3.8498l10.131 94.218c0.22801 2.1205-1.717 3.8458-3.8498 3.8498l-110.22 0.20261c-2.1328 4e-3 -4.0728-1.7287-3.8497-3.8498l9.9283-94.42c0.22304-2.1211 1.717-3.8498 3.8498-3.8498z" fill="url(#s)" style="paint-order:fill markers stroke"/>
   <path d="m105.99-51.886-2.5962-1.4418-22.981 26.013h-10.454l-5.5209-0.20943c-26.55-1.0071-49.185 14.1-49.185 31.237 0 17.137 21.538 31.029 48.107 31.029 26.569 0 49.184-14.1 49.184-31.237 0-1.7344-0.23197-3.4341-0.65612-5.091z" fill="url(#n)" style="paint-order:fill markers stroke"/>
   <path d="m23.61-35.069h66.765l-1.3836-17.123c-16.85 1.7026-56.107 3.893-63.495 14.476z" fill="#7a8285"/>
   <path d="m64.402-30.149c-25.004-1e-6 -48.516 14.483-48.516 31.1 0 6.8055 3.7781 12.945 9.9522 17.826-4.8759-4.8003-7.7234-10.585-7.7234-16.812 0-16.617 21.283-30.289 46.287-30.289 1.7581 0 3.4898 0.07347 5.1957 0.20307h9.8383l0.86182-1.6989z" fill="url(#m)" style="paint-order:fill markers stroke"/>
   <path d="m104.08-53.912-78.894 0.28727v15.902h59.122l-4.8704 9.6005h-9.8383c-1.7059-0.1296-3.4376-0.20307-5.1957-0.20307-25.004-1e-6 -46.287 13.672-46.287 30.289s20.269 30.088 45.274 30.088 46.287-13.672 46.287-30.289c0-1.6818-0.21831-3.3299-0.61747-4.9365z" fill="url(#o)" style="paint-order:fill markers stroke"/>
  </g>
  <g stroke-width="2.0037">
   <g transform="matrix(.84531 0 0 .84531 7.8689 -65.391)">
    <circle cx="132.52" cy="121.26" r="3.2659" fill="#383e3f" style="paint-order:fill markers stroke"/>
    <path d="m132.52 117.99a3.2659 3.2659 0 0 0-3.2676 3.2676 3.2659 3.2659 0 0 0 0.0703 0.65234 3.2659 3.2659 0 0 1 3.1973-2.6016 3.2659 3.2659 0 0 1 3.1953 2.6133 3.2659 3.2659 0 0 0 0.0703-0.66406 3.2659 3.2659 0 0 0-3.2656-3.2676z" fill="#cdd1d2" style="paint-order:fill markers stroke"/>
   </g>
   <g transform="matrix(.84531 0 0 .84531 -99.519 -65.391)">
    <circle cx="132.52" cy="121.26" r="3.2659" fill="#383e3f" style="paint-order:fill markers stroke"/>
    <path d="m132.52 117.99a3.2659 3.2659 0 0 0-3.2676 3.2676 3.2659 3.2659 0 0 0 0.0703 0.65234 3.2659 3.2659 0 0 1 3.1973-2.6016 3.2659 3.2659 0 0 1 3.1953 2.6133 3.2659 3.2659 0 0 0 0.0703-0.66406 3.2659 3.2659 0 0 0-3.2656-3.2676z" fill="#cdd1d2" style="paint-order:fill markers stroke"/>
   </g>
   <g transform="matrix(.84531 0 0 .84531 -1.7555 -65.373)">
    <g transform="matrix(.83488 0 0 .83488 -89.103 -38.381)">
     <circle cx="132.52" cy="121.26" r="3.2659" fill="#383e3f" style="paint-order:fill markers stroke"/>
     <path d="m132.52 117.99a3.2659 3.2659 0 0 0-3.2676 3.2676 3.2659 3.2659 0 0 0 0.0703 0.65234 3.2659 3.2659 0 0 1 3.1973-2.6016 3.2659 3.2659 0 0 1 3.1953 2.6133 3.2659 3.2659 0 0 0 0.0703-0.66406 3.2659 3.2659 0 0 0-3.2656-3.2676z" fill="#cdd1d2" style="paint-order:fill markers stroke"/>
    </g>
    <g transform="matrix(.83488 0 0 .83488 27.39 -38.381)">
     <circle cx="132.52" cy="121.26" r="3.2659" fill="#383e3f" style="paint-order:fill markers stroke"/>
     <path d="m132.52 117.99a3.2659 3.2659 0 0 0-3.2676 3.2676 3.2659 3.2659 0 0 0 0.0703 0.65234 3.2659 3.2659 0 0 1 3.1973-2.6016 3.2659 3.2659 0 0 1 3.1953 2.6133 3.2659 3.2659 0 0 0 0.0703-0.66406 3.2659 3.2659 0 0 0-3.2656-3.2676z" fill="#cdd1d2" style="paint-order:fill markers stroke"/>
    </g>
   </g>
  </g>
  <path d="m23.065-35.688v-15.196l1.9249-2.4314 0.81047 15.399z" fill="#b6c5ca"/>
  <g stroke-width="2.0037">
   <g transform="matrix(.69179 0 0 .69179 -70.649 -139.84)" opacity=".782">
    <circle cx="132.52" cy="121.26" r="3.2659" fill="#3e6470" opacity="1" style="paint-order:fill markers stroke"/>
    <path d="m132.52 117.99a3.2659 3.2659 0 0 0-3.2676 3.2676 3.2659 3.2659 0 0 0 0.0703 0.65234 3.2659 3.2659 0 0 1 3.1973-2.6016 3.2659 3.2659 0 0 1 3.1953 2.6133 3.2659 3.2659 0 0 0 0.0703-0.66406 3.2659 3.2659 0 0 0-3.2656-3.2676z" fill="#cdd1d2" opacity="1" style="paint-order:fill markers stroke"/>
   </g>
   <g transform="matrix(.69179 0 0 .69179 19.613 -139.84)" opacity=".782">
    <circle cx="132.52" cy="121.26" r="3.2659" fill="#3e6470" opacity="1" style="paint-order:fill markers stroke"/>
    <path d="m132.52 117.99a3.2659 3.2659 0 0 0-3.2676 3.2676 3.2659 3.2659 0 0 0 0.0703 0.65234 3.2659 3.2659 0 0 1 3.1973-2.6016 3.2659 3.2659 0 0 1 3.1953 2.6133 3.2659 3.2659 0 0 0 0.0703-0.66406 3.2659 3.2659 0 0 0-3.2656-3.2676z" fill="#cdd1d2" opacity="1" style="paint-order:fill markers stroke"/>
   </g>
   <g transform="matrix(.84531 0 0 .84531 -2.4646 -65.373)">
    <rect x="72.383" y="127.63" width="3.5593" height="16.61" rx=".50848" ry=".50848" fill="url(#j)" style="paint-order:fill markers stroke"/>
    <rect x="78.655" y="127.63" width="3.5593" height="16.61" rx=".50848" ry=".50848" fill="url(#i)" style="paint-order:fill markers stroke"/>
    <rect x="84.927" y="127.63" width="3.5593" height="16.61" rx=".50848" ry=".50848" fill="url(#h)" style="paint-order:fill markers stroke"/>
    <rect x="91.199" y="127.63" width="3.5593" height="16.61" rx=".50848" ry=".50848" fill="url(#g)" style="paint-order:fill markers stroke"/>
    <rect x="97.471" y="127.63" width="3.5593" height="16.61" rx=".50848" ry=".50848" fill="url(#f)" style="paint-order:fill markers stroke"/>
    <rect x="103.74" y="127.63" width="3.5593" height="16.61" rx=".50848" ry=".50848" fill="url(#e)" style="paint-order:fill markers stroke"/>
    <rect x="110.01" y="127.63" width="3.5593" height="16.61" rx=".50848" ry=".50848" fill="url(#d)" style="paint-order:fill markers stroke"/>
   </g>
  </g>
  <path d="m125.04 37.837c-0.33234 1.6656-1.997 2.9041-3.8022 2.9074l-110.23 0.20142c-1.8082 3e-3 -3.4718-1.2424-3.8022-2.914l-0.046238 0.43917c-0.22304 2.1211 1.7157 3.8527 3.8485 3.8485l110.23-0.20143c2.1328-4e-3 4.0765-1.7296 3.8485-3.8501l-0.0462-0.4309z" fill="#c1cdcf" fill-opacity=".3384" style="paint-order:fill markers stroke"/>
  <g stroke-width="2.0037">
   <g transform="matrix(.92658 0 0 .92658 -357.61 -82.196)">
    <path d="m416.15 33.077h60.182l1.1122 12.543h-61.116z" fill="#0d0e0e"/>
    <path d="m464.68 41.832s-1.2295 0.12943-0.19417-1.1649c1.2743-1.4596 1.8414-2.1435 3.3004-3.8829 0 0 0.51771-0.64724 1.2943 0 0.77656 0.64725 4.0122 4.0771 4.0122 4.0771s0.58243 0.84127-0.19417 0.90602c-2.8742-0.05185-5.3417-0.0455-8.2186 0.0649z" fill="#252828" stroke="#c6d4d9" stroke-linecap="round" stroke-linejoin="round" stroke-width="1.3661"/>
    <g transform="matrix(1.4637 0 0 .68276 388.29 -143.6)" fill="#c6d4d9" aria-label="!">
     <path d="m54.983 268.68h-0.11594l-0.26848-2.4713q-0.0183-0.16169-0.0183-0.24102 0-0.19221 0.10068-0.30814 0.10373-0.11594 0.24713-0.11594t0.24102 0.11594q0.10068 0.11593 0.10068 0.34475 0 0.0732-0.0122 0.20441zm-0.06102 0.50646q0.14034 0 0.23797 0.10068 0.10068 0.0976 0.10068 0.23492 0 0.14034-0.10068 0.24102-0.09763 0.0976-0.23797 0.0976t-0.24102-0.0976q-0.09763-0.10068-0.09763-0.24102 0-0.13729 0.09763-0.23492 0.10068-0.10068 0.24102-0.10068z" fill="#c6d4d9" stroke-width=".31716"/>
    </g>
    <g transform="matrix(1.834 0 0 1.459 382.03 -1378.7)" fill="#d5e3e8" stroke-width="2.0304">
     <path d="m19.619 970.72v-1.9678h0.39732v1.9678h-0.39732"/>
     <path d="m21.688 970.72h-0.37718v-0.72753c-1e-6 -0.15391-0.0081-0.25324-0.02416-0.29799-0.01611-0.0456-0.04251-0.081-0.0792-0.10604-0.0358-0.025-0.0792-0.0376-0.1302-0.0376-0.06533 0-0.12394 0.0179-0.17584 0.0537-0.0519 0.0358-0.0877 0.0832-0.10738 0.14228-0.01879 0.0591-0.02819 0.16824-0.02819 0.32752v0.64565h-0.37718v-1.4255h0.35034v0.2094c0.12438-0.16108 0.28099-0.24161 0.4698-0.24162 0.08322 1e-5 0.15928 0.0152 0.22819 0.0456 0.0689 0.0295 0.1208 0.0676 0.15571 0.1141 0.03579 0.0465 0.0604 0.0993 0.07383 0.15839 0.01432 0.0591 0.02147 0.14362 0.02148 0.25369v0.88592"/>
     <path d="m22.725 969.3v0.30067h-0.25772v0.57451c-1e-6 0.11633 0.0022 0.18434 0.0067 0.20402 0.0054 0.0188 0.01655 0.0345 0.03356 0.047 0.0179 0.0125 0.03937 0.0188 0.06443 0.0188 0.0349 0 0.08546-0.0121 0.15168-0.0362l0.03222 0.29262c-0.0877 0.0376-0.18703 0.0564-0.29799 0.0564-0.06801 0-0.12931-0.0112-0.18389-0.0336-0.05459-0.0233-0.09486-0.0528-0.12081-0.0886-0.02506-0.0367-0.04251-0.0859-0.05235-0.14765-0.0081-0.0439-0.01208-0.13244-0.01208-0.26577v-0.62149h-0.17316v-0.30067h0.17316v-0.28323l0.37853-0.22013v0.50336h0.25772"/>
     <path d="m23.815 970.27 0.37584 0.0631c-0.04832 0.13781-0.12483 0.24295-0.22953 0.31544-0.1038 0.0716-0.23401 0.10738-0.39061 0.10738-0.24788 0-0.43132-0.081-0.55034-0.24295-0.09396-0.12976-0.14094-0.29352-0.14094-0.49128 0-0.23625 0.06175-0.42104 0.18524-0.55437 0.12349-0.13423 0.27964-0.20134 0.46846-0.20135 0.21208 1e-5 0.37942 0.0702 0.50202 0.21074 0.1226 0.1396 0.18121 0.35392 0.17584 0.64296h-0.94498c0.0027 0.11186 0.03311 0.19911 0.09128 0.26175 0.05817 0.0617 0.13065 0.0926 0.21745 0.0926 0.05906 0 0.10872-0.0161 0.149-0.0483s0.07069-0.0841 0.09128-0.15571m0.02148-0.38121c-0.0027-0.10917-0.03087-0.19195-0.08457-0.24833-0.05369-0.0573-0.11902-0.0859-0.19598-0.0859-0.08233 0-0.15034 0.03-0.20403 0.0899-0.05369 0.06-0.08009 0.14139-0.07919 0.2443h0.56376"/>
     <path d="m24.881 970.72h-0.37718v-1.4255h0.35034v0.20269c0.05996-0.0957 0.11365-0.15884 0.16108-0.18927 0.04832-0.0304 0.10291-0.0456 0.16376-0.0456 0.08591 1e-5 0.16868 0.0237 0.24832 0.0711l-0.11678 0.32886c-0.06354-0.0412-0.1226-0.0618-0.17718-0.0618-0.0528 0-0.09754 0.0148-0.13423 0.0443-0.03669 0.0286-0.06577 0.081-0.08725 0.15705-0.02058 0.0761-0.03087 0.23535-0.03087 0.47785v0.44028"/>
     <path d="m26.885 970.72h-0.37718v-0.72753c-1e-6 -0.15391-0.0081-0.25324-0.02416-0.29799-0.01611-0.0456-0.04251-0.081-0.0792-0.10604-0.0358-0.025-0.0792-0.0376-0.1302-0.0376-0.06533 0-0.12394 0.0179-0.17584 0.0537-0.0519 0.0358-0.0877 0.0832-0.10738 0.14228-0.01879 0.0591-0.02819 0.16824-0.02819 0.32752v0.64565h-0.37718v-1.4255h0.35034v0.2094c0.12438-0.16108 0.28099-0.24161 0.4698-0.24162 0.08322 1e-5 0.15928 0.0152 0.22819 0.0456 0.0689 0.0295 0.1208 0.0676 0.15571 0.1141 0.03579 0.0465 0.0604 0.0993 0.07383 0.15839 0.01432 0.0591 0.02147 0.14362 0.02148 0.25369v0.88592"/>
     <path d="m27.551 969.73-0.34229-0.0617c0.03848-0.13781 0.1047-0.23983 0.19866-0.30605 0.09396-0.0662 0.23356-0.0993 0.4188-0.0993 0.16823 1e-5 0.29351 0.0201 0.37584 0.0604 0.08233 0.0394 0.14004 0.0899 0.17316 0.15168 0.034 0.0609 0.051 0.17315 0.05101 0.33691l-4e-3 0.44028c-2e-6 0.12528 0.0058 0.21789 0.01745 0.27785 0.01253 0.0591 0.03534 0.1226 0.06846 0.19061h-0.37316c-0.0098-0.0251-0.02192-0.0622-0.03624-0.11141-0.0063-0.0224-0.01074-0.0371-0.01342-0.0443-0.06443 0.0626-0.13334 0.10962-0.20671 0.14094-0.07338 0.0313-0.15168 0.047-0.2349 0.047-0.14676 0-0.26264-0.0398-0.34765-0.11946-0.08412-0.0797-0.12618-0.18032-0.12618-0.30202 0-0.0805 0.01924-0.15213 0.05772-0.21477 0.03848-0.0635 0.09217-0.11185 0.16108-0.14496 0.0698-0.034 0.17002-0.0635 0.30067-0.0886 0.17629-0.0331 0.29844-0.064 0.36645-0.0926v-0.0376c-1e-6 -0.0725-0.0179-0.12394-0.05369-0.15436-0.0358-0.0313-0.10336-0.047-0.20269-0.047-0.06712 0-0.11946 0.0134-0.15705 0.0403-0.03758 0.0259-0.06801 0.072-0.09128 0.13825m0.5047 0.30605c-0.04832 0.0161-0.12483 0.0353-0.22953 0.0577-0.1047 0.0224-0.17316 0.0443-0.20537 0.0658-0.04922 0.0349-0.07383 0.0792-0.07383 0.13288-1e-6 0.0528 0.01969 0.0984 0.05906 0.13692 0.03937 0.0385 0.08948 0.0577 0.15034 0.0577 0.06801 0 0.13289-0.0224 0.19463-0.0671 0.04564-0.034 0.07561-0.0756 0.08993-0.12483 0.0098-0.0322 0.01476-0.0935 0.01477-0.1839v-0.0752"/>
     <path d="m28.799 970.72v-1.9678h0.37718v1.9678h-0.37718"/>
     <path d="m30.328 970.72v-1.9678h0.39732v0.77451h0.77853v-0.77451h0.39732v1.9678h-0.39732v-0.86041h-0.77853v0.86041h-0.39732"/>
     <path d="m32.592 969.73-0.34228-0.0617c0.03848-0.13781 0.1047-0.23983 0.19866-0.30605 0.09396-0.0662 0.23356-0.0993 0.4188-0.0993 0.16823 1e-5 0.29351 0.0201 0.37584 0.0604 0.08233 0.0394 0.14004 0.0899 0.17316 0.15168 0.034 0.0609 0.05101 0.17315 0.05101 0.33691l-4e-3 0.44028c-1e-6 0.12528 0.0058 0.21789 0.01745 0.27785 0.01253 0.0591 0.03535 0.1226 0.06846 0.19061h-0.37316c-0.0098-0.0251-0.02192-0.0622-0.03624-0.11141-0.0063-0.0224-0.01074-0.0371-0.01342-0.0443-0.06443 0.0626-0.13334 0.10962-0.20671 0.14094-0.07338 0.0313-0.15168 0.047-0.2349 0.047-0.14676 0-0.26264-0.0398-0.34765-0.11946-0.08412-0.0797-0.12618-0.18032-0.12618-0.30202 0-0.0805 0.01924-0.15213 0.05772-0.21477 0.03848-0.0635 0.09217-0.11185 0.16108-0.14496 0.0698-0.034 0.17002-0.0635 0.30067-0.0886 0.17629-0.0331 0.29844-0.064 0.36645-0.0926v-0.0376c-1e-6 -0.0725-0.0179-0.12394-0.05369-0.15436-0.0358-0.0313-0.10336-0.047-0.20269-0.047-0.06712 0-0.11946 0.0134-0.15705 0.0403-0.03758 0.0259-0.06801 0.072-0.09128 0.13825m0.5047 0.30605c-0.04832 0.0161-0.12483 0.0353-0.22953 0.0577s-0.17316 0.0443-0.20537 0.0658c-0.04922 0.0349-0.07383 0.0792-0.07383 0.13288 0 0.0528 0.01969 0.0984 0.05906 0.13692 0.03937 0.0385 0.08949 0.0577 0.15034 0.0577 0.06801 0 0.13289-0.0224 0.19463-0.0671 0.04564-0.034 0.07562-0.0756 0.08993-0.12483 0.0098-0.0322 0.01476-0.0935 0.01477-0.1839v-0.0752"/>
     <path d="m34.202 970.72h-0.37718v-1.4255h0.35034v0.20269c0.05995-0.0957 0.11365-0.15884 0.16108-0.18927 0.04832-0.0304 0.10291-0.0456 0.16376-0.0456 0.08591 1e-5 0.16868 0.0237 0.24832 0.0711l-0.11678 0.32886c-0.06354-0.0412-0.1226-0.0618-0.17718-0.0618-0.0528 0-0.09754 0.0148-0.13423 0.0443-0.03669 0.0286-0.06577 0.081-0.08725 0.15705-0.02058 0.0761-0.03087 0.23535-0.03087 0.47785v0.44028"/>
     <path d="m36.217 970.72h-0.35034v-0.2094c-0.05817 0.0814-0.12707 0.14228-0.20671 0.18255-0.07875 0.0394-0.15839 0.0591-0.23893 0.0591-0.16376 0-0.30425-0.0658-0.42148-0.19732-0.11633-0.13244-0.1745-0.31678-0.1745-0.55302 0-0.24161 0.05682-0.42506 0.17047-0.55034 0.11365-0.12618 0.25727-0.18926 0.43088-0.18927 0.15928 1e-5 0.29709 0.0662 0.41343 0.19866v-0.70873h0.37718v1.9678m-1.0067-0.74364c-1e-6 0.15213 0.02103 0.2622 0.06309 0.33021 0.06085 0.0984 0.14586 0.14765 0.25504 0.14765 0.0868 0 0.16063-0.0367 0.22148-0.11007 0.06085-0.0743 0.09127-0.18479 0.09128-0.33154-1e-6 -0.16376-0.02953-0.28144-0.08859-0.35303-0.05906-0.0725-0.13468-0.10872-0.22685-0.10872-0.08949 0-0.16466 0.0358-0.22551 0.10738-0.05996 0.0707-0.08993 0.17674-0.08993 0.31812"/>
     <path d="m37.353 968.76h0.72618c0.16376 0 0.28859 0.0125 0.3745 0.0376 0.11544 0.034 0.21432 0.0944 0.29665 0.18121 0.08232 0.0868 0.14497 0.19329 0.18792 0.31946 0.04295 0.12528 0.06443 0.2801 0.06443 0.46444-2e-6 0.16197-0.02014 0.30157-0.0604 0.41879-0.04922 0.14318-0.11947 0.25907-0.21074 0.34766-0.06891 0.0671-0.16197 0.11946-0.2792 0.15704-0.0877 0.0278-0.20492 0.0416-0.35168 0.0416h-0.74766v-1.9678m0.39732 0.33289v1.3034h0.29665c0.11096 0 0.19105-6e-3 0.24027-0.0188 0.06443-0.0161 0.11767-0.0434 0.15973-0.0819 0.04295-0.0385 0.07785-0.10157 0.1047-0.18927 0.02684-0.0886 0.04027-0.20895 0.04027-0.36107-2e-6 -0.15213-0.01342-0.26891-0.04027-0.35034-0.02685-0.0814-0.06443-0.14497-0.11275-0.19061-0.04832-0.0456-0.10962-0.0765-0.18389-0.0926-0.05548-0.0125-0.16421-0.0188-0.32618-0.0188h-0.17852"/>
     <path d="m39.339 969.11v-0.349h0.37718v0.349h-0.37718m0 1.6188v-1.4255h0.37718v1.4255h-0.37718"/>
     <path d="m39.968 970.32 0.37853-0.0577c0.01611 0.0734 0.04877 0.12931 0.09799 0.16779 0.04922 0.0376 0.11812 0.0564 0.20671 0.0564 0.09754 0 0.17092-0.0179 0.22014-0.0537 0.03311-0.025 0.04966-0.0586 0.04967-0.10067-1e-6 -0.0286-0.0089-0.0523-0.02685-0.0711-0.01879-0.0179-0.06085-0.0345-0.12618-0.0497-0.30425-0.0671-0.4971-0.12841-0.57853-0.18389-0.11275-0.077-0.16913-0.18389-0.16913-0.32081 0-0.12349 0.04877-0.22729 0.14631-0.31141 0.09754-0.0841 0.24877-0.12617 0.4537-0.12618 0.19508 1e-5 0.34005 0.0318 0.4349 0.0953 0.09485 0.0635 0.16018 0.15749 0.19598 0.28188l-0.35571 0.0658c-0.01521-0.0555-0.0443-0.098-0.08725-0.12752-0.04206-0.0295-0.10246-0.0443-0.18121-0.0443-0.09933 0-0.17047 0.0139-0.21342 0.0416-0.02864 0.0197-0.04295 0.0452-0.04295 0.0765 0 0.0268 0.01253 0.0497 0.03758 0.0685 0.034 0.0251 0.15123 0.0604 0.35168 0.10604 0.20134 0.0456 0.34184 0.10157 0.42148 0.16778 0.07875 0.0671 0.11812 0.16063 0.11812 0.28054-1e-6 0.13065-0.05459 0.24296-0.16376 0.33692-0.10917 0.094-0.2707 0.14094-0.48457 0.14094-0.19419 0-0.3481-0.0394-0.46175-0.11812-0.11275-0.0788-0.18658-0.18568-0.22148-0.32081"/>
     <path d="m41.618 970.72v-1.9678h0.37718v1.0443l0.44162-0.50202h0.46443l-0.48725 0.52081 0.52215 0.90471h-0.40672l-0.35839-0.64028-0.17584 0.1839v0.45638h-0.37718"/>
    </g>
    <g transform="matrix(1.2728 0 0 1.0069 361.65 -940.63)" fill="#d5e3e8">
     <g fill="#d5e3e8" stroke-width="2.0304px">
      <path d="m43.961 975.06 0.62052-1.6436h0.2538l0.59034 1.6436h-0.23926l-0.16659-0.4763h-0.65742l-0.17218 0.4763h-0.11404zm0.7368-1.402-0.26386 0.72898h0.51766z"/>
      <path d="m45.607 975.06v-1.1963h0.19119v0.17666l0.04472-0.0593q0.13081-0.15317 0.32759-0.15317 0.1979 0 0.30523 0.10733t0.10733 0.30523v0.81954h-0.20125v-0.75134q0-0.15765-0.06149-0.22696-0.06038-0.0704-0.19678-0.0704-0.14535 0-0.23032 0.11069-0.08497 0.10957-0.08497 0.2974v0.64065h-0.20125z"/>
      <path d="m47.852 973.86-0.45505 1.2355q-0.1051 0.27616-0.18783 0.36113-0.08162 0.085-0.24597 0.085-0.05367 1e-3 -0.09727-0.0123v-0.18672q0.04584 0.0168 0.11516 0.0179 0.0682 0 0.11404-0.0559 0.04584-0.0559 0.10398-0.20908l0.0034-0.019-0.44387-1.2164h0.2292l0.31976 0.98949 0.32424-0.98949h0.22026z"/>
      <path d="m49.118 975.09q-0.24038 0-0.38238-0.17889-0.14199-0.18001-0.14199-0.48524 0-0.26945 0.13752-0.43492 0.13752-0.16547 0.3589-0.16547 0.22026 0 0.34884 0.18671l0.01565 0.0224v-0.62052h0.20125v1.6436h-0.18672v-0.16324l-0.02572 0.0369q-0.1241 0.15876-0.32536 0.15876zm0.01118-1.0834q-0.16883 0-0.24709 0.10845-0.07826 0.10734-0.07826 0.34213 0 0.22138 0.08385 0.34101 0.08497 0.11963 0.2415 0.11963 0.14647 0 0.23591-0.10957 0.08944-0.11069 0.08944-0.29181 0-0.24486-0.08497-0.37679-0.08385-0.13305-0.24038-0.13305z"/>
      <path d="m50.251 975.09q-0.17554 0-0.2784-0.0939-0.10286-0.0939-0.10286-0.2538 0-0.161 0.09615-0.25603 0.09727-0.095 0.28287-0.11852l0.27392-0.0347q0.03354-3e-3 0.06373-0.0112 0.03913-0.0101 0.06038-0.0403 0.02124-0.0302 0.02124-0.076v-0.0101q0-0.0961-0.07267-0.14982-0.07267-0.0548-0.20237-0.0548-0.1241 0-0.19454 0.0581-0.06932 0.057-0.08385 0.17106h-0.1856q0.01454-0.19678 0.13864-0.29517 0.1241-0.0995 0.35554-0.0995 0.21802 0 0.33206 0.095 0.11404 0.0939 0.11404 0.27504v0.65742q0 0.0302 0.01789 0.0492 0.01901 0.0179 0.05031 0.0179 0.0089 0 0.02571-2e-3 0.01789-2e-3 0.03801-7e-3v0.14535q-0.02907 0.0112-0.06149 0.0179-0.03242 7e-3 -0.05479 7e-3 -0.11404 0-0.16547-0.0626-0.03354-0.0414-0.04808-0.1174-0.02236 0.028-0.05143 0.0537-0.15094 0.13528-0.36896 0.13528zm0.41704-0.50648v-0.12969q-0.0559 0.0268-0.1241 0.0369l-0.18448 0.0268q-0.14535 0.0201-0.21243 0.0682-0.06708 0.047-0.06708 0.12857 0 0.10063 0.05478 0.15541 0.05479 0.0537 0.15541 0.0537 0.15876 0 0.26833-0.0861 0.07491-0.0604 0.09951-0.1364 0.0045-0.0145 0.0067-0.0458 0.0034-0.0324 0.0034-0.0716z"/>
      <path d="m51.65 975.06q-0.10286 0.0156-0.14982 0.0156-0.13193 0-0.18672-0.0581-0.05367-0.0581-0.05367-0.20013v-0.78823h-0.16547v-0.16436h0.16547v-0.33541h0.20125v0.33541h0.18895v0.16436h-0.18895v0.78823q0 0.0403 0.03131 0.0637 0.03242 0.0235 0.08609 0.0235h0.07156v0.15541z"/>
      <path d="m52.161 975.09q-0.17554 0-0.2784-0.0939-0.10286-0.0939-0.10286-0.2538 0-0.161 0.09615-0.25603 0.09727-0.095 0.28287-0.11852l0.27392-0.0347q0.03354-3e-3 0.06373-0.0112 0.03913-0.0101 0.06038-0.0403 0.02124-0.0302 0.02124-0.076v-0.0101q0-0.0961-0.07267-0.14982-0.07267-0.0548-0.20237-0.0548-0.1241 0-0.19454 0.0581-0.06932 0.057-0.08385 0.17106h-0.1856q0.01454-0.19678 0.13864-0.29517 0.1241-0.0995 0.35554-0.0995 0.21802 0 0.33206 0.095 0.11404 0.0939 0.11404 0.27504v0.65742q0 0.0302 0.01789 0.0492 0.01901 0.0179 0.05031 0.0179 0.0089 0 0.02571-2e-3 0.01789-2e-3 0.03801-7e-3v0.14535q-0.02907 0.0112-0.06149 0.0179-0.03242 7e-3 -0.05479 7e-3 -0.11404 0-0.16547-0.0626-0.03354-0.0414-0.04808-0.1174-0.02236 0.028-0.05143 0.0537-0.15094 0.13528-0.36896 0.13528zm0.41704-0.50648v-0.12969q-0.0559 0.0268-0.1241 0.0369l-0.18448 0.0268q-0.14535 0.0201-0.21243 0.0682-0.06708 0.047-0.06708 0.12857 0 0.10063 0.05478 0.15541 0.05479 0.0537 0.15541 0.0537 0.15876 0 0.26833-0.0861 0.07491-0.0604 0.09951-0.1364 0.0045-0.0145 0.0067-0.0458 0.0034-0.0324 0.0034-0.0716z"/>
      <path d="m53.76 975.06v-1.6436h0.20125v1.6436h-0.10063z"/>
      <path d="m54.753 975.09q-0.24821 0-0.4025-0.17442-0.15318-0.17441-0.15318-0.45728 0-0.28399 0.15318-0.45841 0.15429-0.17441 0.4025-0.17441 0.25045 0 0.40362 0.17441 0.15317 0.17442 0.15317 0.45841 0 0.28287-0.15317 0.45728-0.15317 0.17442-0.40362 0.17442zm0-0.1733q0.15876 0 0.25268-0.1241 0.09392-0.12411 0.09392-0.3343 0-0.2102-0.09392-0.3343-0.09392-0.12523-0.25268-0.12523-0.15876 0-0.25268 0.12523-0.0928 0.1241-0.0928 0.3343 0 0.21019 0.0928 0.3343 0.09392 0.1241 0.25268 0.1241z"/>
      <path d="m56.225 974.21q-0.0089-0.0995-0.08162-0.15429-0.07156-0.0548-0.19342-0.0548-0.12522 0-0.19119 0.0436-0.06485 0.0436-0.06485 0.12746 0 0.0637 0.04584 0.0962 0.04584 0.0324 0.18224 0.0648l0.20796 0.0492q0.17442 0.0425 0.24933 0.1174 0.07379 0.0738 0.07379 0.20684 0 0.17777-0.12858 0.28175-0.12746 0.10398-0.34548 0.10398-0.25268 0-0.37679-0.0995-0.1241-0.10062-0.13752-0.31529h0.19342q0.01453 0.12746 0.08944 0.18448 0.07603 0.057 0.23144 0.057 0.13529 0 0.2046-0.0514 0.07044-0.0514 0.07044-0.14982 0-0.0626-0.04584-0.095t-0.18448-0.0648l-0.20796-0.0492q-0.16883-0.0403-0.24038-0.11292-0.07156-0.0716-0.07156-0.20125 0-0.16883 0.11963-0.26722 0.12075-0.0995 0.32647-0.0995 0.20908 0 0.33206 0.10174 0.1241 0.10174 0.13193 0.28063h-0.18895z"/>
      <path d="m57.37 974.21q-0.0089-0.0995-0.08162-0.15429-0.07156-0.0548-0.19342-0.0548-0.12522 0-0.19119 0.0436-0.06485 0.0436-0.06485 0.12746 0 0.0637 0.04584 0.0962 0.04584 0.0324 0.18224 0.0648l0.20796 0.0492q0.17442 0.0425 0.24933 0.1174 0.07379 0.0738 0.07379 0.20684 0 0.17777-0.12858 0.28175-0.12746 0.10398-0.34548 0.10398-0.25268 0-0.37679-0.0995-0.1241-0.10062-0.13752-0.31529h0.19342q0.01453 0.12746 0.08944 0.18448 0.07603 0.057 0.23144 0.057 0.13528 0 0.2046-0.0514 0.07044-0.0514 0.07044-0.14982 0-0.0626-0.04584-0.095t-0.18448-0.0648l-0.20796-0.0492q-0.16883-0.0403-0.24038-0.11292-0.07156-0.0716-0.07156-0.20125 0-0.16883 0.11963-0.26722 0.12075-0.0995 0.32647-0.0995 0.20908 0 0.33206 0.10174 0.1241 0.10174 0.13193 0.28063h-0.18895z"/>
      <path d="m58.471 975.06v-1.1963h0.20125v1.1963h-0.10062zm-0.0022-1.6436h0.20572v0.22808h-0.20572z"/>
      <path d="m59.66 974.21q-0.0089-0.0995-0.08162-0.15429-0.07156-0.0548-0.19342-0.0548-0.12522 0-0.19119 0.0436-0.06485 0.0436-0.06485 0.12746 0 0.0637 0.04584 0.0962 0.04584 0.0324 0.18224 0.0648l0.20796 0.0492q0.17442 0.0425 0.24933 0.1174 0.07379 0.0738 0.07379 0.20684 0 0.17777-0.12858 0.28175-0.12746 0.10398-0.34548 0.10398-0.25268 0-0.37679-0.0995-0.1241-0.10062-0.13752-0.31529h0.19342q0.01454 0.12746 0.08944 0.18448 0.07603 0.057 0.23144 0.057 0.13528 0 0.2046-0.0514 0.07044-0.0514 0.07044-0.14982 0-0.0626-0.04584-0.095t-0.18448-0.0648l-0.20796-0.0492q-0.16883-0.0403-0.24038-0.11292-0.07155-0.0716-0.07155-0.20125 0-0.16883 0.11963-0.26722 0.12075-0.0995 0.32647-0.0995 0.20908 0 0.33206 0.10174 0.1241 0.10174 0.13193 0.28063h-0.18895z"/>
      <path d="m60.754 975.06v-1.1963h0.19119v0.17666l0.04472-0.0593q0.13081-0.15317 0.32759-0.15317 0.1979 0 0.30523 0.10733 0.10733 0.10733 0.10733 0.30523v0.81954h-0.20125v-0.75134q0-0.15765-0.06149-0.22696-0.06038-0.0704-0.19678-0.0704-0.14535 0-0.23032 0.11069-0.08497 0.10957-0.08497 0.2974v0.64065h-0.20125z"/>
      <path d="m62.516 975.09q-0.24821 0-0.4025-0.17442-0.15318-0.17441-0.15318-0.45728 0-0.28399 0.15318-0.45841 0.15429-0.17441 0.4025-0.17441 0.25045 0 0.40362 0.17441 0.15317 0.17442 0.15317 0.45841 0 0.28287-0.15317 0.45728-0.15317 0.17442-0.40362 0.17442zm0-0.1733q0.15876 0 0.25268-0.1241 0.09392-0.12411 0.09392-0.3343 0-0.2102-0.09392-0.3343-0.09392-0.12523-0.25268-0.12523-0.15876 0-0.25268 0.12523-0.0928 0.1241-0.0928 0.3343 0 0.21019 0.0928 0.3343 0.09392 0.1241 0.25268 0.1241z"/>
      <path d="m63.743 975.06q-0.10286 0.0156-0.14982 0.0156-0.13193 0-0.18672-0.0581-0.05367-0.0581-0.05367-0.20013v-0.78823h-0.16547v-0.16436h0.16547v-0.33541h0.20125v0.33541h0.18895v0.16436h-0.18895v0.78823q0 0.0403 0.03131 0.0637 0.03242 0.0235 0.08609 0.0235h0.07156v0.15541z"/>
      <path d="m65.012 975.4q0.1733 0 0.26386-0.10957 0.09056-0.10845 0.09056-0.31753v-0.0391l-0.0011 1e-3q-0.1241 0.15876-0.32424 0.15876-0.24038 0-0.38238-0.17889-0.14199-0.18001-0.14199-0.48524 0-0.26945 0.13976-0.43492t0.36561-0.16547q0.21578 0 0.34213 0.18671l0.01454 0.0212v-0.17218h0.18895v1.108q-0.0011 0.303-0.1364 0.44834-0.13529 0.14535-0.41592 0.14535-0.20349 0-0.32312-0.0939-0.11963-0.0939-0.14423-0.2728h0.20572q0.01789 0.0962 0.08497 0.14758 0.0682 0.0525 0.1733 0.0525zm0.03913-1.3875q-0.16883 0-0.24709 0.10733-0.07715 0.10733-0.07715 0.34101 0 0.22026 0.08385 0.33989 0.08497 0.11851 0.24038 0.11851 0.14647 0 0.23591-0.10957 0.08944-0.10957 0.08944-0.28957 0-0.2538-0.08162-0.38014-0.0805-0.12746-0.24374-0.12746z"/>
      <path d="m66.056 973.86v0.77146q0 0.15094 0.05814 0.21803 0.05814 0.066 0.18895 0.066 0.14535 0 0.23032-0.1118 0.08497-0.11293 0.08497-0.30523v-0.63842h0.20125v1.1963h-0.19118v-0.18225q-0.02012 0.0324-0.04472 0.0615-0.12858 0.15317-0.322 0.15317-0.20349 0-0.30523-0.10174-0.10174-0.10175-0.10174-0.30523v-0.82178h0.20125z"/>
      <path d="m67.438 975.09q-0.17554 0-0.2784-0.0939-0.10286-0.0939-0.10286-0.2538 0-0.161 0.09615-0.25603 0.09727-0.095 0.28287-0.11852l0.27392-0.0347q0.03354-3e-3 0.06373-0.0112 0.03913-0.0101 0.06037-0.0403t0.02124-0.076v-0.0101q0-0.0961-0.07267-0.14982-0.07267-0.0548-0.20237-0.0548-0.1241 0-0.19454 0.0581-0.06932 0.057-0.08385 0.17106h-0.1856q0.01453-0.19678 0.13864-0.29517 0.1241-0.0995 0.35554-0.0995 0.21802 0 0.33206 0.095 0.11404 0.0939 0.11404 0.27504v0.65742q0 0.0302 0.01789 0.0492 0.01901 0.0179 0.05031 0.0179 0.0089 0 0.02572-2e-3 0.01789-2e-3 0.03801-7e-3v0.14535q-0.02907 0.0112-0.06149 0.0179-0.03242 7e-3 -0.05479 7e-3 -0.11404 0-0.16547-0.0626-0.03354-0.0414-0.04808-0.1174-0.02236 0.028-0.05143 0.0537-0.15094 0.13528-0.36896 0.13528zm0.41704-0.50648v-0.12969q-0.0559 0.0268-0.1241 0.0369l-0.18448 0.0268q-0.14535 0.0201-0.21243 0.0682-0.06708 0.047-0.06708 0.12857 0 0.10063 0.05479 0.15541 0.05478 0.0537 0.15541 0.0537 0.15876 0 0.26833-0.0861 0.07491-0.0604 0.09951-0.1364 0.0045-0.0145 0.0067-0.0458 0.0034-0.0324 0.0034-0.0716z"/>
      <path d="m68.425 975.06v-1.1963h0.19118v0.20461q0.02572-0.0481 0.05479-0.0872 0.11404-0.15317 0.28063-0.15317 0.02795 0 0.05702 0.0101v0.20572l-0.04137-1e-3q-0.16324 0-0.25268 0.0984-0.08833 0.0973-0.08833 0.2784v0.64065h-0.20125z"/>
      <path d="m69.477 975.09q-0.17554 0-0.2784-0.0939-0.10286-0.0939-0.10286-0.2538 0-0.161 0.09615-0.25603 0.09727-0.095 0.28287-0.11852l0.27392-0.0347q0.03354-3e-3 0.06373-0.0112 0.03913-0.0101 0.06038-0.0403 0.02124-0.0302 0.02124-0.076v-0.0101q0-0.0961-0.07267-0.14982-0.07267-0.0548-0.20237-0.0548-0.1241 0-0.19454 0.0581-0.06932 0.057-0.08385 0.17106h-0.1856q0.01454-0.19678 0.13864-0.29517 0.1241-0.0995 0.35554-0.0995 0.21802 0 0.33206 0.095 0.11404 0.0939 0.11404 0.27504v0.65742q0 0.0302 0.01789 0.0492 0.01901 0.0179 0.05031 0.0179 0.0089 0 0.02572-2e-3 0.01789-2e-3 0.03801-7e-3v0.14535q-0.02907 0.0112-0.06149 0.0179-0.03242 7e-3 -0.05478 7e-3 -0.11404 0-0.16547-0.0626-0.03354-0.0414-0.04808-0.1174-0.02236 0.028-0.05143 0.0537-0.15094 0.13528-0.36896 0.13528zm0.41704-0.50648v-0.12969q-0.0559 0.0268-0.1241 0.0369l-0.18448 0.0268q-0.14535 0.0201-0.21243 0.0682-0.06708 0.047-0.06708 0.12857 0 0.10063 0.05478 0.15541 0.05478 0.0537 0.15541 0.0537 0.15876 0 0.26833-0.0861 0.07491-0.0604 0.09951-0.1364 0.0045-0.0145 0.0067-0.0458 0.0034-0.0324 0.0034-0.0716z"/>
      <path d="m70.437 975.06v-1.1963h0.19118v0.17666l0.04472-0.0593q0.13081-0.15317 0.32759-0.15317 0.1979 0 0.30523 0.10733t0.10733 0.30523v0.81954h-0.20125v-0.75134q0-0.15765-0.06149-0.22696-0.06038-0.0704-0.19678-0.0704-0.14535 0-0.23032 0.11069-0.08497 0.10957-0.08497 0.2974v0.64065h-0.20125z"/>
      <path d="m72.151 975.06q-0.10286 0.0156-0.14982 0.0156-0.13193 0-0.18672-0.0581-0.05367-0.0581-0.05367-0.20013v-0.78823h-0.16547v-0.16436h0.16547v-0.33541h0.20125v0.33541h0.18895v0.16436h-0.18895v0.78823q0 0.0403 0.03131 0.0637 0.03242 0.0235 0.08609 0.0235h0.07155v0.15541z"/>
      <path d="m72.834 975.09q-0.2538 0-0.39915-0.161t-0.14535-0.44499q0-0.30187 0.15317-0.47964 0.15429-0.17889 0.41368-0.17889 0.23479 0 0.37902 0.17441 0.14423 0.17442 0.14423 0.45841l-0.0022 0.0716h-0.87432q0.0123 0.17889 0.08162 0.27281 0.08497 0.11404 0.26833 0.11404 0.11516 0 0.20125-0.0648t0.1051-0.16547h0.19902q-0.04472 0.19678-0.17889 0.30076-0.13417 0.10286-0.34548 0.10286zm0.33542-0.72227q-0.0089-0.16659-0.08274-0.25939-0.08162-0.10286-0.23926-0.10286-0.15876 0-0.2538 0.11852-0.07491 0.0928-0.09056 0.24373h0.66636z"/>
      <path d="m74.108 975.09q-0.2538 0-0.39915-0.161-0.14535-0.161-0.14535-0.44499 0-0.30187 0.15317-0.47964 0.15429-0.17889 0.41368-0.17889 0.23479 0 0.37902 0.17441 0.14423 0.17442 0.14423 0.45841l-0.0022 0.0716h-0.87432q0.0123 0.17889 0.08162 0.27281 0.08497 0.11404 0.26833 0.11404 0.11516 0 0.20125-0.0648 0.08609-0.0648 0.1051-0.16547h0.19901q-0.04472 0.19678-0.17889 0.30076-0.13417 0.10286-0.34548 0.10286zm0.33542-0.72227q-0.0089-0.16659-0.08274-0.25939-0.08162-0.10286-0.23926-0.10286-0.15876 0-0.2538 0.11852-0.07491 0.0928-0.09056 0.24373z"/>
      <path d="m75.352 975.09q-0.24038 0-0.38238-0.17889-0.14199-0.18001-0.14199-0.48524 0-0.26945 0.13752-0.43492t0.3589-0.16547q0.22026 0 0.34884 0.18671l0.01565 0.0224v-0.62052h0.20125v1.6436h-0.18672v-0.16324l-0.02572 0.0369q-0.1241 0.15876-0.32536 0.15876zm0.01118-1.0834q-0.16883 0-0.24709 0.10845-0.07826 0.10734-0.07826 0.34213 0 0.22138 0.08385 0.34101 0.08497 0.11963 0.2415 0.11963 0.14647 0 0.23591-0.10957 0.08945-0.11069 0.08945-0.29181 0-0.24486-0.08497-0.37679-0.08385-0.13305-0.24038-0.13305z"/>
      <path d="m76.22 974.81h0.23926v0.24262h-0.23926z"/>
      <path d="m44.114 977.92v-1.6436h0.67531q0.31306 0 0.49754 0.22362 0.1856 0.22249 0.1856 0.59928 0 0.37566-0.19007 0.59816-0.18895 0.22249-0.51095 0.22249h-0.54673zm0.22249-0.19007h0.40697q0.23926 0 0.36896-0.16435 0.13081-0.16436 0.13081-0.46623 0-0.303-0.12522-0.46735-0.12522-0.16548-0.35554-0.16548h-0.42598z"/>
      <path d="m46.22 977.95q-0.24821 0-0.4025-0.17442-0.15318-0.17442-0.15318-0.45729 0-0.28399 0.15318-0.4584 0.15429-0.17442 0.4025-0.17442 0.25045 0 0.40362 0.17442 0.15317 0.17441 0.15317 0.4584 0 0.28287-0.15317 0.45729t-0.40362 0.17442zm0-0.1733q0.15876 0 0.25268-0.12411 0.09392-0.1241 0.09392-0.3343 0-0.21019-0.09392-0.3343-0.09392-0.12522-0.25268-0.12522-0.15876 0-0.25268 0.12522-0.0928 0.12411-0.0928 0.3343 0 0.2102 0.0928 0.3343 0.09392 0.12411 0.25268 0.12411z"/>
      <path d="m47.007 977.92v-1.1963h0.19119v0.17665l0.04472-0.0593q0.13081-0.15317 0.32759-0.15317 0.1979 0 0.30523 0.10733 0.10733 0.10734 0.10733 0.30523v0.81954h-0.20125v-0.75133q0-0.15765-0.06149-0.22697-0.06038-0.0704-0.19678-0.0704-0.14535 0-0.23032 0.11069-0.08497 0.10957-0.08497 0.2974v0.64065h-0.20125z"/>
      <path d="m48.268 976.86v-0.58251h0.16659v0.58251z"/>
      <path d="m49.159 977.92q-0.10286 0.0157-0.14982 0.0157-0.13193 0-0.18672-0.0581-0.05367-0.0581-0.05367-0.20013v-0.78824h-0.16547v-0.16435h0.16547v-0.33542h0.20125v0.33542h0.18895v0.16435h-0.18895v0.78824q0 0.0403 0.0313 0.0637 0.03242 0.0235 0.08609 0.0235h0.07156v0.15541z"/>
      <path d="m50.24 976.89v1.0297h-0.20125v-1.0297h-0.16547v-0.16659h0.16547v-0.20349q0-0.13305 0.07827-0.20013 0.07826-0.0671 0.23479-0.0671l0.08833 3e-3v0.18112l-0.07938-3e-3q-0.05814 0-0.08945 0.038-0.03131 0.0369-0.03131 0.10622v0.14535h0.20013v0.16659h-0.20013z"/>
      <path d="m51.112 977.95q-0.24821 0-0.4025-0.17442-0.15317-0.17442-0.15317-0.45729 0-0.28399 0.15317-0.4584 0.15429-0.17442 0.4025-0.17442 0.25044 0 0.40362 0.17442 0.15318 0.17441 0.15318 0.4584 0 0.28287-0.15318 0.45729-0.15317 0.17442-0.40362 0.17442zm0-0.1733q0.15876 0 0.25268-0.12411 0.09392-0.1241 0.09392-0.3343 0-0.21019-0.09392-0.3343-0.09392-0.12522-0.25268-0.12522-0.15876 0-0.25268 0.12522-0.0928 0.12411-0.0928 0.3343 0 0.2102 0.0928 0.3343 0.09392 0.12411 0.25268 0.12411z"/>
      <path d="m51.927 977.92v-1.1963h0.19119v0.2046q0.02571-0.0481 0.05479-0.0872 0.11404-0.15317 0.28063-0.15317 0.02795 0 0.05702 0.0101v0.20573l-0.04137-1e-3q-0.16324 0-0.25268 0.0984-0.08833 0.0973-0.08833 0.27839v0.64065h-0.20125z"/>
      <path d="m53.102 978.26q0.1733 0 0.26386-0.10957 0.09056-0.10845 0.09056-0.31752v-0.0391l-0.0011 1e-3q-0.1241 0.15877-0.32424 0.15877-0.24038 0-0.38238-0.17889-0.14199-0.18001-0.14199-0.48524 0-0.26945 0.13976-0.43493 0.13976-0.16547 0.3656-0.16547 0.21579 0 0.34213 0.18672l0.01454 0.0212v-0.17218h0.18895v1.108q-0.0011 0.30299-0.1364 0.44834-0.13528 0.14535-0.41592 0.14535-0.20349 0-0.32312-0.0939-0.11963-0.0939-0.14423-0.27281h0.20572q0.01789 0.0961 0.08497 0.14759 0.0682 0.0525 0.1733 0.0525zm0.03913-1.3875q-0.16883 0-0.24709 0.10734-0.07715 0.10733-0.07715 0.341 0 0.22026 0.08385 0.33989 0.08497 0.11852 0.24038 0.11852 0.14647 0 0.23591-0.10957 0.08944-0.10957 0.08944-0.28958 0-0.2538-0.08162-0.38014-0.0805-0.12746-0.24374-0.12746z"/>
      <path d="m54.426 977.95q-0.2538 0-0.39915-0.161-0.14535-0.16101-0.14535-0.44499 0-0.30188 0.15317-0.47965 0.15429-0.17889 0.41368-0.17889 0.23479 0 0.37902 0.17442 0.14423 0.17441 0.14423 0.4584l-0.0022 0.0716h-0.87432q0.0123 0.17889 0.08162 0.2728 0.08497 0.11405 0.26833 0.11405 0.11516 0 0.20125-0.0648 0.08609-0.0648 0.1051-0.16547h0.19901q-0.04472 0.19677-0.17889 0.30075-0.13417 0.10287-0.34548 0.10287zm0.33542-0.72227q-0.0089-0.16659-0.08274-0.25939-0.08162-0.10286-0.23926-0.10286-0.15876 0-0.2538 0.11851-0.07491 0.0928-0.09056 0.24374h0.66636z"/>
      <path d="m55.653 977.92q-0.10286 0.0157-0.14982 0.0157-0.13193 0-0.18672-0.0581-0.05367-0.0581-0.05367-0.20013v-0.78824h-0.16547v-0.16435h0.16547v-0.33542h0.20125v0.33542h0.18895v0.16435h-0.18895v0.78824q0 0.0403 0.03131 0.0637 0.03242 0.0235 0.08609 0.0235h0.07156v0.15541z"/>
      <path d="m56.923 977.92q-0.10286 0.0157-0.14982 0.0157-0.13193 0-0.18672-0.0581-0.05367-0.0581-0.05367-0.20013v-0.78824h-0.16547v-0.16435h0.16547v-0.33542h0.20125v0.33542h0.18895v0.16435h-0.18895v0.78824q0 0.0403 0.03131 0.0637 0.03242 0.0235 0.08609 0.0235h0.07156v0.15541z"/>
      <path d="m57.606 977.95q-0.24821 0-0.4025-0.17442-0.15317-0.17442-0.15317-0.45729 0-0.28399 0.15317-0.4584 0.15429-0.17442 0.4025-0.17442 0.25044 0 0.40362 0.17442 0.15317 0.17441 0.15317 0.4584 0 0.28287-0.15317 0.45729-0.15318 0.17442-0.40362 0.17442zm0-0.1733q0.15876 0 0.25268-0.12411 0.09392-0.1241 0.09392-0.3343 0-0.21019-0.09392-0.3343-0.09392-0.12522-0.25268-0.12522-0.15876 0-0.25268 0.12522-0.0928 0.12411-0.0928 0.3343 0 0.2102 0.0928 0.3343 0.09392 0.12411 0.25268 0.12411z"/>
      <path d="m59.012 976.28h0.20125v0.60264q0.13193-0.19343 0.34101-0.19119 0.23479 0 0.3712 0.16212 0.13752 0.161 0.13752 0.43604 0 0.31194-0.13864 0.48971-0.13752 0.17666-0.38238 0.17666-0.20237 0-0.322-0.15541l-0.01901-0.0246v0.14758h-0.18895v-1.6436zm0.5199 1.5016q0.15765 0 0.23926-0.11852 0.08162-0.11963 0.08162-0.34771 0-0.22473-0.07826-0.33207-0.07826-0.10845-0.2415-0.10845-0.16659 0-0.24374 0.12187-0.07603 0.12187-0.07603 0.38573 0 0.19119 0.08274 0.29517t0.23591 0.10398z"/>
      <path d="m60.618 977.95q-0.17554 0-0.2784-0.0939-0.10286-0.0939-0.10286-0.2538 0-0.161 0.09615-0.25604 0.09727-0.095 0.28287-0.11851l0.27392-0.0347q0.03354-3e-3 0.06373-0.0112 0.03913-0.0101 0.06038-0.0403 0.02124-0.0302 0.02124-0.076v-0.0101q0-0.0962-0.07267-0.14982-0.07267-0.0548-0.20237-0.0548-0.1241 0-0.19454 0.0581-0.06932 0.057-0.08385 0.17107h-0.1856q0.01454-0.19678 0.13864-0.29517 0.1241-0.0995 0.35554-0.0995 0.21802 0 0.33206 0.095 0.11404 0.0939 0.11404 0.27505v0.65742q0 0.0302 0.01789 0.0492 0.01901 0.0179 0.05031 0.0179 0.0089 0 0.02572-2e-3 0.01789-2e-3 0.03801-7e-3v0.14534q-0.02907 0.0112-0.06149 0.0179-0.03242 7e-3 -0.05479 7e-3 -0.11404 0-0.16547-0.0626-0.03354-0.0414-0.04808-0.1174-0.02236 0.028-0.05143 0.0537-0.15094 0.13529-0.36896 0.13529zm0.41704-0.50649v-0.12969q-0.0559 0.0268-0.1241 0.0369l-0.18448 0.0268q-0.14535 0.0201-0.21243 0.0682-0.06708 0.047-0.06708 0.12858 0 0.10062 0.05479 0.15541 0.05479 0.0537 0.15541 0.0537 0.15876 0 0.26834-0.0861 0.07491-0.0604 0.09951-0.1364 0.0045-0.0145 0.0067-0.0458 0.0034-0.0324 0.0034-0.0716z"/>
      <path d="m62.521 977.49q-0.03131 0.22585-0.15988 0.34436-0.12858 0.11852-0.34213 0.11852-0.23815 0-0.38014-0.17107-0.14199-0.17106-0.14199-0.46064t0.14647-0.46064q0.14758-0.17218 0.39579-0.17218 0.21578 0 0.34436 0.11851 0.12858 0.1174 0.13752 0.32424h-0.19342q-0.0123-0.12858-0.08944-0.19901-0.07715-0.0704-0.20572-0.0704-0.15206 0-0.23926 0.12299-0.08609 0.12186-0.08609 0.33653 0 0.22809 0.0805 0.34325t0.23926 0.11516q0.1174 0 0.19566-0.0749 0.07938-0.076 0.1051-0.21467h0.19342z"/>
      <path d="m62.727 977.92v-1.6436h0.20125v0.947l0.50536-0.49977h0.25604l-0.45505 0.44387 0.48524 0.75245h-0.26274l-0.3712-0.60822-0.15765 0.15429v0.45393h-0.10062z"/>
      <path d="m64.075 976.72v0.77146q0 0.15094 0.05814 0.21802 0.05814 0.066 0.18895 0.066 0.14535 0 0.23032-0.11181 0.08497-0.11292 0.08497-0.30523v-0.63841h0.20125v1.1963h-0.19118v-0.18224q-0.02013 0.0324-0.04472 0.0615-0.12858 0.15318-0.322 0.15318-0.20349 0-0.30523-0.10175-0.10174-0.10174-0.10174-0.30523v-0.82177h0.20125z"/>
      <path d="m65.126 976.72h0.19119v0.16994l0.01006-0.0145q0.1297-0.19119 0.34101-0.19119 0.23479 0 0.3712 0.16212 0.13752 0.161 0.13752 0.43604 0 0.31194-0.13864 0.48971-0.13752 0.17666-0.38238 0.17666-0.20237 0-0.322-0.15541l-0.0067-9e-3v0.60487h-0.20125v-1.6693zm0.5199 1.0543q0.15765 0 0.23926-0.11852 0.08162-0.11963 0.08162-0.34771 0-0.22473-0.07826-0.33207-0.07826-0.10845-0.2415-0.10845-0.16659 0-0.24374 0.12187-0.07603 0.12187-0.07603 0.38573 0 0.19119 0.08274 0.29517t0.23591 0.10398z"/>
      <path d="m68.022 976.72-0.45505 1.2354q-0.1051 0.27617-0.18783 0.36114-0.08162 0.085-0.24597 0.085-0.05367 1e-3 -0.09727-0.0123v-0.18671q0.04584 0.0168 0.11516 0.0179 0.0682 0 0.11404-0.0559 0.04584-0.0559 0.10398-0.20908l0.0034-0.019-0.44387-1.2164h0.2292l0.31976 0.98948 0.32424-0.98948h0.22026z"/>
      <path d="m68.684 977.95q-0.24821 0-0.4025-0.17442-0.15318-0.17442-0.15318-0.45729 0-0.28399 0.15318-0.4584 0.15429-0.17442 0.4025-0.17442 0.25045 0 0.40362 0.17442 0.15317 0.17441 0.15317 0.4584 0 0.28287-0.15317 0.45729t-0.40362 0.17442zm0-0.1733q0.15876 0 0.25268-0.12411 0.09392-0.1241 0.09392-0.3343 0-0.21019-0.09392-0.3343-0.09392-0.12522-0.25268-0.12522-0.15876 0-0.25268 0.12522-0.0928 0.12411-0.0928 0.3343 0 0.2102 0.0928 0.3343 0.09392 0.12411 0.25268 0.12411z"/>
      <path d="m69.679 976.72v0.77146q0 0.15094 0.05814 0.21802 0.05814 0.066 0.18895 0.066 0.14535 0 0.23032-0.11181 0.08497-0.11292 0.08497-0.30523v-0.63841h0.20125v1.1963h-0.19118v-0.18224q-0.02013 0.0324-0.04472 0.0615-0.12858 0.15318-0.322 0.15318-0.20349 0-0.30523-0.10175-0.10174-0.10174-0.10174-0.30523v-0.82177h0.20125z"/>
      <path d="m70.773 977.92v-1.1963h0.19119v0.2046q0.02572-0.0481 0.05478-0.0872 0.11404-0.15317 0.28063-0.15317 0.02795 0 0.05702 0.0101v0.20573l-0.04137-1e-3q-0.16324 0-0.25268 0.0984-0.08833 0.0973-0.08833 0.27839v0.64065h-0.20125z"/>
      <path d="m72.601 977.95q-0.24038 0-0.38238-0.17889-0.14199-0.18001-0.14199-0.48524 0-0.26945 0.13752-0.43493 0.13752-0.16547 0.3589-0.16547 0.22026 0 0.34884 0.18672l0.01565 0.0224v-0.62053h0.20125v1.6436h-0.18672v-0.16323l-0.02572 0.0369q-0.1241 0.15877-0.32536 0.15877zm0.01118-1.0834q-0.16883 0-0.24709 0.10845-0.07826 0.10733-0.07826 0.34212 0 0.22138 0.08385 0.34101 0.08497 0.11963 0.2415 0.11963 0.14647 0 0.23591-0.10957 0.08944-0.11068 0.08944-0.29181 0-0.24485-0.08497-0.37679-0.08385-0.13304-0.24038-0.13304z"/>
      <path d="m73.735 977.95q-0.17554 0-0.2784-0.0939-0.10286-0.0939-0.10286-0.2538 0-0.161 0.09615-0.25604 0.09727-0.095 0.28287-0.11851l0.27392-0.0347q0.03354-3e-3 0.06373-0.0112 0.03913-0.0101 0.06037-0.0403t0.02124-0.076v-0.0101q0-0.0962-0.07267-0.14982-0.07267-0.0548-0.20237-0.0548-0.1241 0-0.19454 0.0581-0.06932 0.057-0.08385 0.17107h-0.1856q0.01453-0.19678 0.13864-0.29517 0.1241-0.0995 0.35554-0.0995 0.21802 0 0.33206 0.095 0.11404 0.0939 0.11404 0.27505v0.65742q0 0.0302 0.01789 0.0492 0.01901 0.0179 0.05031 0.0179 0.0089 0 0.02571-2e-3 0.01789-2e-3 0.03801-7e-3v0.14534q-0.02907 0.0112-0.06149 0.0179-0.03242 7e-3 -0.05478 7e-3 -0.11404 0-0.16547-0.0626-0.03354-0.0414-0.04808-0.1174-0.02236 0.028-0.05143 0.0537-0.15094 0.13529-0.36896 0.13529zm0.41704-0.50649v-0.12969q-0.0559 0.0268-0.1241 0.0369l-0.18448 0.0268q-0.14535 0.0201-0.21243 0.0682-0.06708 0.047-0.06708 0.12858 0 0.10062 0.05479 0.15541 0.05478 0.0537 0.15541 0.0537 0.15876 0 0.26833-0.0861 0.07491-0.0604 0.09951-0.1364 0.0045-0.0145 0.0067-0.0458 0.0034-0.0324 0.0034-0.0716z"/>
      <path d="m75.134 977.92q-0.10286 0.0157-0.14982 0.0157-0.13193 0-0.18672-0.0581-0.05367-0.0581-0.05367-0.20013v-0.78824h-0.16547v-0.16435h0.16547v-0.33542h0.20125v0.33542h0.18895v0.16435h-0.18895v0.78824q0 0.0403 0.03131 0.0637 0.03242 0.0235 0.08609 0.0235h0.07156v0.15541z"/>
      <path d="m75.645 977.95q-0.17554 0-0.2784-0.0939-0.10286-0.0939-0.10286-0.2538 0-0.161 0.09615-0.25604 0.09727-0.095 0.28287-0.11851l0.27392-0.0347q0.03354-3e-3 0.06373-0.0112 0.03913-0.0101 0.06038-0.0403 0.02124-0.0302 0.02124-0.076v-0.0101q0-0.0962-0.07267-0.14982-0.07267-0.0548-0.20237-0.0548-0.1241 0-0.19454 0.0581-0.06932 0.057-0.08385 0.17107h-0.1856q0.01453-0.19678 0.13864-0.29517 0.1241-0.0995 0.35554-0.0995 0.21802 0 0.33206 0.095 0.11404 0.0939 0.11404 0.27505v0.65742q0 0.0302 0.01789 0.0492 0.01901 0.0179 0.05031 0.0179 0.0089 0 0.02572-2e-3 0.01789-2e-3 0.03801-7e-3v0.14534q-0.02907 0.0112-0.06149 0.0179-0.03242 7e-3 -0.05478 7e-3 -0.11404 0-0.16547-0.0626-0.03354-0.0414-0.04808-0.1174-0.02236 0.028-0.05143 0.0537-0.15094 0.13529-0.36896 0.13529zm0.41704-0.50649v-0.12969q-0.0559 0.0268-0.1241 0.0369l-0.18448 0.0268q-0.14535 0.0201-0.21243 0.0682-0.06708 0.047-0.06708 0.12858 0 0.10062 0.05478 0.15541 0.05478 0.0537 0.15541 0.0537 0.15876 0 0.26833-0.0861 0.07491-0.0604 0.09951-0.1364 0.0045-0.0145 0.0067-0.0458 0.0034-0.0324 0.0034-0.0716z"/>
      <path d="m76.654 977.68h0.23926v0.24262h-0.23926z"/>
     </g>
    </g>
   </g>
   <g transform="matrix(.84531 0 0 .84531 -61.003 -67.064)">
    <circle cx="135.42" cy="76.017" r="0" fill="#252828" fill-opacity=".3346" style="paint-order:fill markers stroke"/>
    <path d="m168.33 76.068c0 5.8973-3.1503 13.178-19.322 13.178-14.296 0-19.072-6.5307-19.072-12.428 0-5.8973 8.6508-8.678 19.322-8.678 10.671 1e-6 19.072 2.0307 19.072 7.928z" fill="url(#c)" style="paint-order:fill markers stroke"/>
   </g>
   <g transform="matrix(.84531 0 0 .84531 -49.168 -65.373)">
    <circle cx="135.42" cy="76.017" r="0" fill="url(#p)" style="paint-order:fill markers stroke"/>
    <ellipse cx="135.25" cy="74.068" rx="19.322" ry="10.678" fill="url(#q)" style="paint-order:fill markers stroke"/>
   </g>
   <path d="m80.521 4.563-4.7881 0.03136-0.06907-8.6936 4.7881-0.03136c5.2884-0.03464 9.5452-3.9553 9.5071-8.7563-0.03808-4.801-4.3568-8.6655-9.6452-8.6309-5.289 0.03464-9.5452 3.9553-9.5071 8.7563l0.03453 4.3468-9.5762 0.0627-0.03453-4.3468c-0.03813-4.801-4.3568-8.6655-9.6452-8.6309-5.2884 0.03462-9.5452 3.9553-9.5071 8.7563 0.03814 4.801 4.3568 8.6655 9.6452 8.6309l4.7881-0.03136 0.06906 8.6936-4.7881 0.03136c-5.2884 0.03462-9.5452 3.9553-9.5071 8.7563 0.03814 4.8011 4.3568 8.6655 9.6452 8.6309 5.289-0.03462 9.5452-3.9553 9.5071-8.7563l-0.03453-4.3468 9.5762-0.06268 0.03445 4.3359c3.5e-5 0.0036-5.39e-4 0.0073-5.12e-4 0.01093 0.03813 4.8011 4.3568 8.6655 9.6452 8.6309 5.2884-0.03462 9.5452-3.9553 9.5071-8.7563-0.03808-4.8011-4.3562-8.6645-9.6446-8.6309zm-0.17273-21.734c2.6442-0.01731 4.8035 1.9149 4.8226 4.3155 0.01913 2.4005-2.1093 4.3608-4.7536 4.3782l-4.7881 0.03136-0.03453-4.3468c-0.01908-2.4005 2.1093-4.3608 4.7535-4.3782zm-33.482 4.5662c-0.01908-2.4005 2.1093-4.3608 4.7535-4.3782 2.6442-0.01731 4.8035 1.9149 4.8226 4.3155l0.03453 4.3468-4.7881 0.03136c-2.6442 0.01731-4.8035-1.9155-4.8226-4.3155zm5.0298 30.396c-2.6442 0.01822-4.8035-1.9149-4.8226-4.3154-0.01908-2.4005 2.1093-4.3608 4.7535-4.3782l4.7881-0.03134 0.03453 4.3468c0.01908 2.4005-2.1093 4.3609-4.7535 4.3782zm9.4726-13.103-0.06907-8.6936 9.5762-0.06269 0.06907 8.6936zm19.256 12.915c-2.6442 0.01822-4.8035-1.9149-4.8226-4.3155l-0.03453-4.3468 4.7875-0.03134c2.6442-0.01822 4.8035 1.9149 4.8226 4.3155 0.01913 2.4005-2.1087 4.3608-4.753 4.3781z" opacity=".25"/>
  </g>
 </g>
</svg>
