<svg width="64" height="64" version="1.1" viewBox="0 0 16.933 16.933" xmlns="http://www.w3.org/2000/svg" xmlns:xlink="http://www.w3.org/1999/xlink">
 <defs>
  <linearGradient id="a">
   <stop stop-color="#c2d2dd" offset="0"/>
   <stop offset=".096"/>
   <stop stop-color="#c0d0da" stop-opacity="0" offset=".691"/>
   <stop stop-color="#c0d0d9" stop-opacity="0" offset="1"/>
  </linearGradient>
  <linearGradient id="c" x1="175" x2="175" y1="52" y2="5" gradientUnits="userSpaceOnUse">
   <stop stop-color="#d4e8f2" offset="0"/>
   <stop stop-color="#b0b5ba" offset="1"/>
  </linearGradient>
  <linearGradient id="d" x1="39.422" x2="42.275" y1="7.673" y2="7.932" gradientUnits="userSpaceOnUse" xlink:href="#a"/>
  <linearGradient id="f" x1="38.628" x2="53.974" y1="14.816" y2="14.816" gradientUnits="userSpaceOnUse">
   <stop stop-color="#bfc7c5" offset="0"/>
   <stop stop-color="#a59c92" offset="1"/>
  </linearGradient>
  <linearGradient id="e" x1="39.422" x2="42.275" y1="7.673" y2="7.932" gradientTransform="matrix(-1 0 0 1 92.602 0)" gradientUnits="userSpaceOnUse" xlink:href="#a"/>
  <linearGradient id="g" x1="37.658" x2="37.658" y1="15.081" y2="14.552" gradientUnits="userSpaceOnUse">
   <stop stop-color="#169a19" offset="0"/>
   <stop stop-color="#71df4f" offset="1"/>
  </linearGradient>
  <radialGradient id="h" cx="37.65" cy="14.726" r=".145" gradientTransform="translate(-114.5 -44.937)scale(6.8201)" gradientUnits="userSpaceOnUse">
   <stop stop-color="#1aff1f" offset="0"/>
   <stop stop-color="#61fe30" stop-opacity="0" offset="1"/>
  </radialGradient>
  <filter id="b" x="-.047506" y="-.048376" width="1.095" height="1.0968" color-interpolation-filters="sRGB">
   <feGaussianBlur stdDeviation=".304"/>
  </filter>
 </defs>
 <g transform="translate(-37.835)" filter="url(#b)" opacity=".25" stroke-linecap="round" stroke-linejoin="round">
  <path d="M41.274 1.058c-.732 0-1.235.353-1.312 1.082l-1.333 12.563c-.077.73.59 1.436 1.323 1.436h12.7c.732 0 1.399-.707 1.322-1.436L52.641 2.14c-.077-.729-.58-1.082-1.312-1.082h-5.027z" opacity="1"/>
  <path d="M46.301 1.058V16.14h-6.35c-.733 0-1.4-.667-1.323-1.396L39.961 2.14c.077-.729.58-1.082 1.313-1.082zm0 0V16.14h6.35c.733 0 1.4-.667 1.323-1.396L52.64 2.14c-.077-.729-.58-1.082-1.313-1.082z" opacity=".75"/>
  <path d="M39.951 13.493h12.7c.733 0 1.323.59 1.323 1.323a1.32 1.32 0 0 1-1.323 1.323h-12.7a1.32 1.32 0 0 1-1.323-1.323c0-.733.59-1.323 1.323-1.323" opacity="1"/>
  <path d="M39.952 13.758c-.587 0-1.059.472-1.059 1.058s.472 1.059 1.059 1.059h12.7c.586 0 1.058-.472 1.058-1.059s-.472-1.058-1.059-1.058zm0 .132h12.7c.512 0 .925.413.925.926s-.413.927-.926.927h-12.7c-.512 0-.925-.413-.925-.927s.413-.926.926-.926" opacity="1"/>
  <path d="M52.958 14.816a.306.306 0 0 1-.306.306.306.306 0 0 1-.306-.306.306.306 0 0 1 .306-.306.306.306 0 0 1 .306.306"/>
  <path d="M52.916 14.816a.265.265 0 0 1-.265.265.265.265 0 0 1-.264-.265.265.265 0 0 1 .264-.265.265.265 0 0 1 .265.265"/>
  <path d="M52.65 14.552a.265.265 0 0 0-.257.207.26.26 0 0 0 .25.186.26.26 0 0 0 .258-.215.265.265 0 0 0-.25-.178z"/>
  <path d="M39.952 13.89a.924.924 0 0 0-.926.926c0 .023.005.044.006.067a.92.92 0 0 1 .92-.86h12.7a.92.92 0 0 1 .919.86c.001-.023.006-.044.006-.067a.924.924 0 0 0-.926-.926z" opacity=".1"/>
  <path d="M39.952 13.89a.924.924 0 0 0-.926.926q0 .015.003.029c.015-.527.42-.947.923-.947h12.7c.503 0 .907.42.922.947l.003-.029a.924.924 0 0 0-.926-.926zm-1.056.955-.003.03c0 .62.472 1.118 1.059 1.118h12.7c.586 0 1.058-.499 1.058-1.118l-.003-.03a1.054 1.054 0 0 1-1.056 1.03h-12.7c-.576 0-1.04-.457-1.055-1.03" opacity=".1"/>
 </g>
 <g transform="translate(-37.835 -.265)" stroke-linecap="round" stroke-linejoin="round">
  <path transform="scale(.26458)" d="M156 4c-2.77 0-4.671 1.333-4.96 4.088L146 55.573c-.29 2.755 2.23 5.427 5 5.427h48c2.77 0 5.29-2.672 5-5.427l-5.04-47.485C198.672 5.333 196.77 4 194 4h-19z" fill="url(#c)"/>
  <path d="M46.301 1.058V16.14h-6.35c-.733 0-1.4-.667-1.323-1.396L39.961 2.14c.077-.729.58-1.082 1.313-1.082z" fill="url(#d)" opacity=".75"/>
  <path d="M46.301 1.058V16.14h6.35c.733 0 1.4-.667 1.323-1.396L52.64 2.14c-.077-.729-.58-1.082-1.313-1.082z" fill="url(#e)" opacity=".75"/>
  <rect x="38.628" y="13.493" width="15.346" height="2.646" rx="1.323" ry="1.323" fill="url(#f)"/>
  <path d="M39.952 13.758c-.587 0-1.059.472-1.059 1.058s.472 1.059 1.059 1.059h12.7c.586 0 1.058-.472 1.058-1.059s-.472-1.058-1.059-1.058zm0 .132h12.7c.512 0 .925.413.925.926s-.413.927-.926.927h-12.7c-.512 0-.925-.413-.925-.927s.413-.926.926-.926"/>
  <g transform="translate(15.001)">
   <circle cx="37.65" cy="14.816" r=".306" fill="#827076"/>
   <circle cx="37.65" cy="14.816" r=".265" fill="url(#g)"/>
   <path transform="scale(.26458)" d="M142.3 55a1 1 0 0 0-.973.781.99.99 0 0 0 .946.705.99.99 0 0 0 .972-.812A1 1 0 0 0 142.3 55" fill="url(#h)"/>
  </g>
  <path d="M39.952 13.89a.924.924 0 0 0-.926.926c0 .023.005.044.006.067a.92.92 0 0 1 .92-.86h12.7a.92.92 0 0 1 .919.86c.001-.023.006-.044.006-.067a.924.924 0 0 0-.926-.926z" fill="#fff" opacity=".1"/>
  <path d="M39.952 13.89a.924.924 0 0 0-.926.926q0 .015.003.029c.015-.527.42-.947.923-.947h12.7c.503 0 .907.42.922.947l.003-.029a.924.924 0 0 0-.926-.926zm-1.056.955-.003.03c0 .62.472 1.118 1.059 1.118h12.7c.586 0 1.058-.499 1.058-1.118l-.003-.03a1.054 1.054 0 0 1-1.056 1.03h-12.7c-.576 0-1.04-.457-1.055-1.03" fill="#fff" opacity=".1"/>
 </g>
 <path d="m10.458 4.8574-0.85492-0.00122a0.1403 0.1403 0 0 0-0.08662 0.02867 0.0915 0.0915 0 0 0-0.036295 0.069845l-0.00122 0.6893c0 0.05429 0.054594 0.098515 0.1223 0.098515h0.11895l-9.151e-4 0.52521-0.90615 0.48952 0.00397-2.006 0.31537 3.05e-4a0.1037 0.1037 0 0 0 0.082655-0.037209 0.06405 0.06405 0 0 0 0.00335-0.07625l-0.62128-0.97082a0.1037 0.1037 0 0 0-0.08601-0.042395 0.10065 0.10065 0 0 0-0.08601 0.04209l-0.62586 0.96898a0.06405 0.06405 0 0 0 0.00305 0.07625 0.1037 0.1037 0 0 0 0.082655 0.03782l0.31536 3.041e-4 -0.0058 2.7785-0.97539-0.53131 9.15e-4 -0.41663c0.15128-0.08052 0.25132-0.21838 0.25162-0.37515 9.15e-4 -0.24918-0.24918-0.4514-0.55845-0.4517-0.30896-6.1e-4 -0.55937 0.20099-0.56028 0.44987-3.049e-4 0.15707 0.09943 0.29524 0.2504 0.37637l-0.00122 0.549c0 0.08235 0.05063 0.15982 0.13603 0.20618l1.4552 0.79208-0.00183 0.85674c-0.20526 0.08845-0.34648 0.26108-0.34708 0.46208-3.049e-4 0.29097 0.29158 0.52765 0.653 0.52826 0.36173 3.05e-4 0.65514-0.23516 0.65575-0.52643 3.049e-4 -0.201-0.1403-0.37362-0.34495-0.46299l0.00336-1.629 1.3874-0.74938q0.02501-0.01403 0.04575-0.0305a0.22875 0.22875 0 0 0 0.09089-0.17568l9.15e-4 -0.65697h0.11926a0.1403 0.1403 0 0 0 0.08662-0.028975 0.0915 0.0915 0 0 0 0.03629-0.069845l0.0013-0.68869c0-0.0549-0.05459-0.09882-0.1223-0.09882z" opacity=".15" stroke-width=".305"/>
</svg>
