<svg xmlns="http://www.w3.org/2000/svg" xmlns:xlink="http://www.w3.org/1999/xlink" width="64" height="64"><linearGradient id="a"><stop offset="0" stop-color="#424649"/><stop offset="1" stop-color="#2a2c2f"/></linearGradient><linearGradient xlink:href="#a" id="b" x1="22" x2="22" y1="6" y2="58" gradientUnits="userSpaceOnUse"/><linearGradient id="e" x1="24" x2="24" y1="9" y2="13" gradientUnits="userSpaceOnUse"><stop offset="0" stop-color="#da4453"/><stop offset="1" stop-color="#c0392b"/></linearGradient><linearGradient id="f" x1="40" x2="40" y1="9" y2="19" gradientUnits="userSpaceOnUse"><stop offset="0" stop-color="#7f8c8d"/><stop offset=".397" stop-color="#596364"/><stop offset=".601" stop-color="#7f8c8d"/><stop offset="1" stop-color="#596364"/></linearGradient><linearGradient id="c" x1="24" x2="24" y1="37" y2="21" gradientUnits="userSpaceOnUse"><stop offset="0" stop-color="#596364"/><stop offset="1" stop-color="#4c5455"/><stop offset="1" stop-color="#596364"/><stop offset="1" stop-color="#4c5455"/></linearGradient><linearGradient xlink:href="#a" id="d" x1="32" x2="32" y1="25" y2="34" gradientUnits="userSpaceOnUse"/><linearGradient id="i" x1="24" x2="24" y1="39" y2="49" gradientUnits="userSpaceOnUse"><stop offset="0" stop-color="#596364"/><stop offset=".4" stop-color="#4c5455"/><stop offset=".6" stop-color="#596364"/><stop offset="1" stop-color="#4c5455"/></linearGradient><rect width="20" height="52" x="22" y="6" fill="url(#b)" ry="3"/><g stroke-width="2"><circle cx="32" cy="29" r="8" fill="url(#c)"/><circle cx="32" cy="29" r="4" fill="url(#d)"/><path d="M24 11v1a2 2 0 0 0 2 2 2 2 0 0 0 2-2v-1zm12 0v1a2 2 0 0 0 2 2 2 2 0 0 0 2-2v-1zm-12 6v1a2 2 0 0 0 2 2 2 2 0 0 0 2-2v-1zm6 0v1a2 2 0 0 0 2 2 2 2 0 0 0 2-2v-1zm6 0v1a2 2 0 0 0 2 2 2 2 0 0 0 2-2v-1zm-.035 11.48A4 4 0 0 1 32 32a4 4 0 0 1-3.965-3.5A4 4 0 0 0 28 29a4 4 0 0 0 4 4 4 4 0 0 0 4-4 4 4 0 0 0-.035-.52M24 41v1a2 2 0 0 0 2 2 2 2 0 0 0 2-2v-1zm6 0v1a2 2 0 0 0 2 2 2 2 0 0 0 2-2v-1zm6 0v1a2 2 0 0 0 2 2 2 2 0 0 0 2-2v-1zm-12 6v1a2 2 0 0 0 2 2 2 2 0 0 0 2-2v-1zm6 0v1a2 2 0 0 0 2 2 2 2 0 0 0 2-2v-1zm6 0v1a2 2 0 0 0 2 2 2 2 0 0 0 2-2v-1z" opacity=".15"/></g><path d="M22 54v1c0 1.662 1.338 3 3 3h14c1.662 0 3-1.338 3-3v-1c0 1.662-1.338 3-3 3H25c-1.662 0-3-1.338-3-3" opacity=".4"/><g stroke-width="2"><circle cx="26" cy="11" r="2" fill="url(#e)"/><path fill="url(#f)" d="M38 9a2 2 0 0 0-2 2 2 2 0 0 0 2 2 2 2 0 0 0 2-2 2 2 0 0 0-2-2m-12 6a2 2 0 0 0-2 2 2 2 0 0 0 2 2 2 2 0 0 0 2-2 2 2 0 0 0-2-2m6 0a2 2 0 0 0-2 2 2 2 0 0 0 2 2 2 2 0 0 0 2-2 2 2 0 0 0-2-2m6 0a2 2 0 0 0-2 2 2 2 0 0 0 2 2 2 2 0 0 0 2-2 2 2 0 0 0-2-2"/><path fill="url(#i)" d="M26 39a2 2 0 0 0-2 2 2 2 0 0 0 2 2 2 2 0 0 0 2-2 2 2 0 0 0-2-2m6 0a2 2 0 0 0-2 2 2 2 0 0 0 2 2 2 2 0 0 0 2-2 2 2 0 0 0-2-2m6 0a2 2 0 0 0-2 2 2 2 0 0 0 2 2 2 2 0 0 0 2-2 2 2 0 0 0-2-2m-12 6a2 2 0 0 0-2 2 2 2 0 0 0 2 2 2 2 0 0 0 2-2 2 2 0 0 0-2-2m6 0a2 2 0 0 0-2 2 2 2 0 0 0 2 2 2 2 0 0 0 2-2 2 2 0 0 0-2-2m6 0a2 2 0 0 0-2 2 2 2 0 0 0 2 2 2 2 0 0 0 2-2 2 2 0 0 0-2-2"/></g></svg>