<svg width="64" height="64" viewBox="0 0 16.933 16.933" xmlns="http://www.w3.org/2000/svg" xmlns:xlink="http://www.w3.org/1999/xlink"><defs><linearGradient id="f" x1="-1067.4" x2="-1063.9" y1="767.72" y2="769.13" gradientTransform="matrix(2.732 0 0 -2.732 2963.2 2127.6)" gradientUnits="userSpaceOnUse"><stop stop-color="#E7DDAF" offset="0"/><stop stop-color="#E7DDAF" stop-opacity="0" offset="1"/></linearGradient><linearGradient id="g" x1="-1062.2" x2="-1058.5" y1="772.47" y2="773.39" gradientTransform="matrix(2.731 .07716 .07716 -2.731 2897.1 2218.6)" gradientUnits="userSpaceOnUse"><stop stop-color="#EAC7AE" offset="0"/><stop stop-color="#EAC7AE" stop-opacity="0" offset="1"/></linearGradient><linearGradient id="h" x1="-1070.5" x2="-1067.6" y1="765.57" y2="767.88" gradientTransform="matrix(2.732 0 0 -2.732 2963.2 2127.6)" gradientUnits="userSpaceOnUse"><stop stop-color="#CAEFB9" offset="0"/><stop stop-color="#CAEFB9" stop-opacity="0" offset="1"/></linearGradient><linearGradient id="i" x1="-1072.8" x2="-1070.6" y1="763.1" y2="765.83" gradientTransform="matrix(2.732 0 0 -2.732 2963.2 2127.6)" gradientUnits="userSpaceOnUse"><stop stop-color="#B1E3DA" offset="0"/><stop stop-color="#B1E3DA" stop-opacity="0" offset="1"/></linearGradient><linearGradient id="j" x1="-1073.9" x2="-1074.7" y1="761.09" y2="758.36" gradientTransform="matrix(2.732 0 0 -2.732 2963.2 2127.6)" gradientUnits="userSpaceOnUse"><stop stop-color="#A5C5EE" offset="0"/><stop stop-color="#A5C5EE" stop-opacity="0" offset="1"/></linearGradient><linearGradient id="k" x1="-1050.5" x2="-1047" y1="749.27" y2="750.66" gradientTransform="matrix(-2.732 0 0 2.732 -2788.9 -1949.3)" gradientUnits="userSpaceOnUse"><stop stop-color="#E7DDAF" offset="0"/><stop stop-color="#E7DDAF" stop-opacity="0" offset="1"/></linearGradient><linearGradient id="l" x1="-1044.8" x2="-1041.1" y1="754.5" y2="755.41" gradientTransform="matrix(-2.731 -.07716 -.07716 2.731 -2722.7 -2040.3)" gradientUnits="userSpaceOnUse"><stop stop-color="#EAC7AE" offset="0"/><stop stop-color="#EAC7AE" stop-opacity="0" offset="1"/></linearGradient><linearGradient id="m" x1="-1053.6" x2="-1050.7" y1="747.11" y2="749.42" gradientTransform="matrix(-2.732 0 0 2.732 -2788.9 -1949.3)" gradientUnits="userSpaceOnUse"><stop stop-color="#CAEFB9" offset="0"/><stop stop-color="#CAEFB9" stop-opacity="0" offset="1"/></linearGradient><linearGradient id="n" x1="-1055.9" x2="-1053.6" y1="744.65" y2="747.38" gradientTransform="matrix(-2.732 0 0 2.732 -2788.9 -1949.3)" gradientUnits="userSpaceOnUse"><stop stop-color="#B1E3DA" offset="0"/><stop stop-color="#B1E3DA" stop-opacity="0" offset="1"/></linearGradient><linearGradient id="o" x1="-1056.9" x2="-1057.8" y1="742.61" y2="739.87" gradientTransform="matrix(-2.732 0 0 2.732 -2788.9 -1949.3)" gradientUnits="userSpaceOnUse"><stop stop-color="#A5C5EE" offset="0"/><stop stop-color="#A5C5EE" stop-opacity="0" offset="1"/></linearGradient><linearGradient id="a" x1="1456.9" x2="1460.4" y1="-810.5" y2="-811.9" gradientTransform="matrix(-2.732 0 0 2.732 4027.2 2244.5)" gradientUnits="userSpaceOnUse"><stop stop-color="#E7DDAF" offset="0"/><stop stop-color="#E7DDAF" stop-opacity="0" offset="1"/></linearGradient><linearGradient id="b" x1="1456.3" x2="1460" y1="-807.81" y2="-808.72" gradientTransform="matrix(-2.731 -.07716 -.07716 2.731 3970.8 2345.5)" gradientUnits="userSpaceOnUse"><stop stop-color="#EAC7AE" offset="0"/><stop stop-color="#EAC7AE" stop-opacity="0" offset="1"/></linearGradient><linearGradient id="c" x1="1459.9" x2="1462.9" y1="-808.34" y2="-810.66" gradientTransform="matrix(-2.732 0 0 2.732 4027.2 2244.5)" gradientUnits="userSpaceOnUse"><stop stop-color="#CAEFB9" offset="0"/><stop stop-color="#CAEFB9" stop-opacity="0" offset="1"/></linearGradient><linearGradient id="d" x1="1462.3" x2="1464.5" y1="-805.88" y2="-808.6" gradientTransform="matrix(-2.732 0 0 2.732 4027.2 2244.5)" gradientUnits="userSpaceOnUse"><stop stop-color="#B1E3DA" offset="0"/><stop stop-color="#B1E3DA" stop-opacity="0" offset="1"/></linearGradient><linearGradient id="e" x1="1463.3" x2="1462.4" y1="-803.87" y2="-801.14" gradientTransform="matrix(-2.732 0 0 2.732 4027.2 2244.5)" gradientUnits="userSpaceOnUse"><stop stop-color="#A5C5EE" offset="0"/><stop stop-color="#A5C5EE" stop-opacity="0" offset="1"/></linearGradient><linearGradient id="q" x1="1456.9" x2="1460.4" y1="-810.5" y2="-811.9" gradientTransform="matrix(-2.732 0 0 2.732 4027.2 2244.5)" gradientUnits="userSpaceOnUse" xlink:href="#a"/><linearGradient id="r" x1="1456.3" x2="1460" y1="-807.81" y2="-808.72" gradientTransform="matrix(-2.731 -.07716 -.07716 2.731 3970.8 2345.5)" gradientUnits="userSpaceOnUse" xlink:href="#b"/><linearGradient id="s" x1="1459.9" x2="1462.9" y1="-808.34" y2="-810.66" gradientTransform="matrix(-2.732 0 0 2.732 4027.2 2244.5)" gradientUnits="userSpaceOnUse" xlink:href="#c"/><linearGradient id="t" x1="1462.3" x2="1464.5" y1="-805.88" y2="-808.6" gradientTransform="matrix(-2.732 0 0 2.732 4027.2 2244.5)" gradientUnits="userSpaceOnUse" xlink:href="#d"/><linearGradient id="u" x1="1463.3" x2="1462.4" y1="-803.87" y2="-801.14" gradientTransform="matrix(-2.732 0 0 2.732 4027.2 2244.5)" gradientUnits="userSpaceOnUse" xlink:href="#e"/><linearGradient id="y" x1="-1129.7" x2="-1106.6" y1="944.53" y2="962.74" gradientTransform="matrix(0 .88949 .88843 0 -830.45 1274.5)" gradientUnits="userSpaceOnUse"><stop stop-color="#BFBFBF" offset="0"/><stop stop-color="#fff" offset=".5"/><stop stop-color="#BFBFBF" offset="1"/></linearGradient><linearGradient id="z" x1="-1067.4" x2="-1063.9" y1="767.72" y2="769.13" gradientTransform="matrix(2.732 0 0 -2.732 2963.2 2127.6)" gradientUnits="userSpaceOnUse" xlink:href="#f"/><linearGradient id="B" x1="-1062.2" x2="-1058.5" y1="772.47" y2="773.39" gradientTransform="matrix(2.731 .07716 .07716 -2.731 2897.1 2218.6)" gradientUnits="userSpaceOnUse" xlink:href="#g"/><linearGradient id="C" x1="-1070.5" x2="-1067.6" y1="765.57" y2="767.88" gradientTransform="matrix(2.732 0 0 -2.732 2963.2 2127.6)" gradientUnits="userSpaceOnUse" xlink:href="#h"/><linearGradient id="D" x1="-1196.7" x2="-1197.3" y1="860.46" y2="818.54" gradientTransform="matrix(.28013 0 0 .28047 -.98 262.12)" gradientUnits="userSpaceOnUse"><stop stop-color="#323232" offset="0"/><stop offset="1"/></linearGradient><linearGradient id="E" x1="-1072.8" x2="-1070.6" y1="763.1" y2="765.83" gradientTransform="matrix(2.732 0 0 -2.732 2963.2 2127.6)" gradientUnits="userSpaceOnUse" xlink:href="#i"/><linearGradient id="F" x1="-1073.9" x2="-1074.7" y1="761.09" y2="758.36" gradientTransform="matrix(2.732 0 0 -2.732 2963.2 2127.6)" gradientUnits="userSpaceOnUse" xlink:href="#j"/><linearGradient id="G" x1="-1050.5" x2="-1047" y1="749.27" y2="750.66" gradientTransform="matrix(-2.732 0 0 2.732 -2788.9 -1949.3)" gradientUnits="userSpaceOnUse" xlink:href="#k"/><linearGradient id="I" x1="-1044.8" x2="-1041.1" y1="754.5" y2="755.41" gradientTransform="matrix(-2.731 -.07716 -.07716 2.731 -2722.7 -2040.3)" gradientUnits="userSpaceOnUse" xlink:href="#l"/><linearGradient id="J" x1="-1053.6" x2="-1050.7" y1="747.11" y2="749.42" gradientTransform="matrix(-2.732 0 0 2.732 -2788.9 -1949.3)" gradientUnits="userSpaceOnUse" xlink:href="#m"/><linearGradient id="K" x1="-1055.9" x2="-1053.6" y1="744.65" y2="747.38" gradientTransform="matrix(-2.732 0 0 2.732 -2788.9 -1949.3)" gradientUnits="userSpaceOnUse" xlink:href="#n"/><linearGradient id="L" x1="-1056.9" x2="-1057.8" y1="742.61" y2="739.87" gradientTransform="matrix(-2.732 0 0 2.732 -2788.9 -1949.3)" gradientUnits="userSpaceOnUse" xlink:href="#o"/><filter id="p" x="-.147" y="-.166" width="1.295" height="1.331" color-interpolation-filters="sRGB"><feGaussianBlur stdDeviation="3.362"/></filter><filter id="v" x="-.147" y="-.166" width="1.295" height="1.331" color-interpolation-filters="sRGB"><feGaussianBlur stdDeviation="3.362"/></filter><filter id="w" x="-.147" y="-.166" width="1.295" height="1.331" color-interpolation-filters="sRGB"><feGaussianBlur stdDeviation="3.362"/></filter><filter id="x" x="-.147" y="-.166" width="1.295" height="1.331" color-interpolation-filters="sRGB"><feGaussianBlur stdDeviation="3.362"/></filter><filter id="A" x="-.113" y="-.127" width="1.227" height="1.255" color-interpolation-filters="sRGB"><feGaussianBlur stdDeviation="2.587"/></filter><filter id="H" x="-.114" y="-.126" width="1.228" height="1.253" color-interpolation-filters="sRGB"><feGaussianBlur stdDeviation="2.581"/></filter></defs><g stroke-width="2.03"><path d="M32.472 280.08c0-8.628-6.93-15.566-15.547-15.566A15.517 15.517 0 0 0 1.378 280.08c0 8.628 6.93 15.566 15.547 15.566a15.516 15.516 0 0 0 15.547-15.566zm-9.86 0a5.665 5.665 0 0 1-5.687 5.695c-3.256 0-5.688-2.624-5.688-5.695 0-3.134 2.306-5.695 5.688-5.695 3.381 0 5.688 2.623 5.688 5.695z" fill="url(#y)" stroke="#999" stroke-width=".537" transform="matrix(.50187 0 0 .48339 -.027 -126.92)"/><path d="M8.478 5.616c-1.63 0-2.952 1.275-2.952 2.847 0 1.571 1.323 2.847 2.952 2.847 1.63 0 2.953-1.276 2.953-2.847 0-1.572-1.323-2.847-2.953-2.847zm0 1.423c.815 0 1.477.638 1.477 1.424 0 .786-.662 1.423-1.477 1.423-.814 0-1.476-.637-1.476-1.423s.662-1.424 1.476-1.424z" enable-background="new" fill="#323232" opacity=".2"/><path transform="matrix(.14059 0 0 .13558 -.52 -.214)" d="m32.026 20.525 18.936 25.572a22.652 22.652 0 0 1 8.586-3.894l.25-.055-6.637-31.13c-7.893 1.534-14.533 5.07-21.134 9.507z" enable-background="new" fill="url(#z)" filter="url(#A)" opacity=".8"/><path transform="matrix(.14059 0 0 .13558 -.52 -.214)" d="m43.664 13.967 12.202 29.352a22.655 22.655 0 0 1 9.273-1.702c.087.002.168.003.255.007L66.33 9.89c-8.03-.42-15.188 1.367-22.666 4.076z" enable-background="new" fill="url(#B)" filter="url(#A)" opacity=".8"/><path transform="matrix(.14059 0 0 .13558 -.52 -.214)" d="m21.456 30.745 25.172 19.55a22.657 22.657 0 0 1 7.286-5.983c.077-.04.149-.079.227-.118l-14.617-28.19c-7.227 3.523-12.84 8.747-18.068 14.741z" enable-background="new" fill="url(#C)" filter="url(#A)" opacity=".8"/><path d="M16.961 285.94a5.867 5.867 0 0 1-5.879-5.886c0-3.262 2.62-5.885 5.879-5.885s5.879 2.623 5.879 5.885a5.867 5.867 0 0 1-5.879 5.886z" enable-background="new" fill="none" opacity=".1" stroke="url(#D)" stroke-width="6.446" transform="matrix(.50187 0 0 .48339 -.027 -126.92)"/><path transform="matrix(.14059 0 0 .13558 -.52 -.214)" d="M14.299 42.841c19.602 6.125 21.447 19.21 34.907 4.792l-21.61-23.758c-6.068 5.274-9.799 11.822-13.297 18.966z" enable-background="new" fill="url(#E)" filter="url(#A)" opacity=".8"/><path transform="matrix(.14059 0 0 .13558 -.52 -.214)" d="M18.458 34.97c-3.232 4.787-5.212 9.935-6.899 15.419l30.978 8.129c.589-2.085 1.416-4.139 2.647-6.062.047-.074.123-.183.17-.256z" enable-background="new" fill="url(#F)" filter="url(#A)" opacity=".8"/><path transform="matrix(.14059 0 0 .13558 -.52 -.214)" d="M96.074 107.42 77.316 81.702a22.28 22.28 0 0 1-8.754 3.97l6.576 31.309c7.819-1.542 14.397-5.098 20.936-9.56z" enable-background="new" fill="url(#G)" filter="url(#H)" opacity=".8"/><path transform="matrix(.14059 0 0 .13558 -.52 -.214)" d="M84.546 114.02 72.458 84.502a22.158 22.158 0 0 1-9.186 1.71l-.253-.006-.927 31.913c7.954.423 15.045-1.375 22.454-4.1z" enable-background="new" fill="url(#I)" filter="url(#H)" opacity=".8"/><path transform="matrix(.14059 0 0 .13558 -.52 -.214)" d="M106.55 97.145 81.613 77.484a22.529 22.529 0 0 1-7.218 6.017c-.077.04-.147.079-.223.118L88.65 111.97c7.158-3.544 12.72-8.796 17.898-14.825z" enable-background="new" fill="url(#J)" filter="url(#H)" opacity=".8"/><path transform="matrix(.14059 0 0 .13558 -.52 -.214)" d="M113.64 84.979c-19.418-6.16-21.247-19.318-34.58-4.818l21.407 23.894c6.013-5.306 9.708-11.89 13.173-19.075z" enable-background="new" fill="url(#K)" filter="url(#H)" opacity=".8"/><path transform="matrix(.14059 0 0 .13558 -.52 -.214)" d="M109.51 92.895c3.204-4.814 5.164-9.991 6.835-15.508l-30.688-8.175c-.584 2.098-1.403 4.162-2.621 6.097-.047.075-.123.184-.17.258z" enable-background="new" fill="url(#L)" filter="url(#H)" opacity=".8"/><path transform="matrix(.14059 0 0 .13558 -.52 -.214)" d="m32.026 20.525 18.936 25.572a22.652 22.652 0 0 1 8.586-3.894l.25-.055-6.637-31.13c-7.893 1.534-14.533 5.07-21.134 9.507z" enable-background="new" fill="url(#z)" filter="url(#A)" opacity=".8"/><path transform="matrix(.14059 0 0 .13558 -.52 -.214)" d="m43.664 13.967 12.202 29.352a22.655 22.655 0 0 1 9.273-1.702c.087.002.168.003.255.007L66.33 9.89c-8.03-.42-15.188 1.367-22.666 4.076z" enable-background="new" fill="url(#B)" filter="url(#A)" opacity=".8"/><path transform="matrix(.14059 0 0 .13558 -.52 -.214)" d="m21.456 30.745 25.172 19.55a22.657 22.657 0 0 1 7.286-5.983c.077-.04.149-.079.227-.118l-14.617-28.19c-7.227 3.523-12.84 8.747-18.068 14.741z" enable-background="new" fill="url(#C)" filter="url(#A)" opacity=".8"/><path transform="matrix(.14059 0 0 .13558 -.52 -.214)" d="M14.299 42.841c19.602 6.125 21.447 19.21 34.907 4.792l-21.61-23.758c-6.068 5.274-9.799 11.822-13.297 18.966z" enable-background="new" fill="url(#E)" filter="url(#A)" opacity=".8"/><path transform="matrix(.14059 0 0 .13558 -.52 -.214)" d="M18.458 34.97c-3.232 4.787-5.212 9.935-6.899 15.419l30.978 8.129c.589-2.085 1.416-4.139 2.647-6.062.047-.074.123-.183.17-.256z" enable-background="new" fill="url(#F)" filter="url(#A)" opacity=".8"/><path transform="matrix(.14059 0 0 .13558 -.52 -.214)" d="M96.074 107.42 77.316 81.702a22.28 22.28 0 0 1-8.754 3.97l6.576 31.309c7.819-1.542 14.397-5.098 20.936-9.56z" enable-background="new" fill="url(#G)" filter="url(#H)" opacity=".8"/><path transform="matrix(.14059 0 0 .13558 -.52 -.214)" d="M84.546 114.02 72.458 84.502a22.158 22.158 0 0 1-9.186 1.71l-.253-.006-.927 31.913c7.954.423 15.045-1.375 22.454-4.1z" enable-background="new" fill="url(#I)" filter="url(#H)" opacity=".8"/><path transform="matrix(.14059 0 0 .13558 -.52 -.214)" d="M106.55 97.145 81.613 77.484a22.529 22.529 0 0 1-7.218 6.017c-.077.04-.147.079-.223.118L88.65 111.97c7.158-3.544 12.72-8.796 17.898-14.825z" enable-background="new" fill="url(#J)" filter="url(#H)" opacity=".8"/><path transform="matrix(.14059 0 0 .13558 -.52 -.214)" d="M113.64 84.979c-19.418-6.16-21.247-19.318-34.58-4.818l21.407 23.894c6.013-5.306 9.708-11.89 13.173-19.075z" enable-background="new" fill="url(#K)" filter="url(#H)" opacity=".8"/><path transform="matrix(.14059 0 0 .13558 -.52 -.214)" d="M109.51 92.895c3.204-4.814 5.164-9.991 6.835-15.508l-30.688-8.175c-.584 2.098-1.403 4.162-2.621 6.097-.047.075-.123.184-.17.258z" enable-background="new" fill="url(#L)" filter="url(#H)" opacity=".8"/></g></svg>