<svg xmlns="http://www.w3.org/2000/svg" xmlns:xlink="http://www.w3.org/1999/xlink" width="64" height="64" viewBox="0 0 16.933 16.933"><defs><linearGradient id="b"><stop offset="0" stop-color="#929292"/><stop offset="1" stop-color="#cecece"/></linearGradient><linearGradient id="a"><stop offset="0" stop-color="#1a1a1a"/><stop offset="1" stop-color="#4d4d4d"/></linearGradient><linearGradient id="h" x1="496.55" x2="504.38" y1="216.14" y2="349.1" gradientTransform="matrix(.22258 0 0 .10724 -94.94 254.99)" gradientUnits="userSpaceOnUse"><stop offset="0" stop-color="#d5e3e8"/><stop offset="1" stop-color="#a0a0a1"/></linearGradient><linearGradient xlink:href="#a" id="i" x1="-131.75" x2="-131.53" y1="253.74" y2="261.35" gradientTransform="translate(54.155 219.57)scale(.29217)" gradientUnits="userSpaceOnUse"/><linearGradient xlink:href="#a" id="k" x1="-129.65" x2="-129.71" y1="210.32" y2="212.59" gradientTransform="matrix(.29217 0 0 .17799 54.416 241.39)" gradientUnits="userSpaceOnUse"/><linearGradient id="j" x1="-134.19" x2="-134.4" y1="203.68" y2="243.69" gradientTransform="translate(54.155 219.57)scale(.29217)" gradientUnits="userSpaceOnUse"><stop offset="0" stop-color="#5cc3f5"/><stop offset="1" stop-color="#2058c1"/></linearGradient><linearGradient xlink:href="#b" id="f" x1="25.956" x2="28.025" y1="270.94" y2="270.94" gradientUnits="userSpaceOnUse"/><linearGradient xlink:href="#b" id="g" x1="5.533" x2="7.867" y1="271.1" y2="271.07" gradientUnits="userSpaceOnUse"/><filter id="c" width="1.056" height="1.379" x="-.028" y="-.189" color-interpolation-filters="sRGB"><feGaussianBlur stdDeviation=".391"/></filter><filter id="d" width="1.056" height="1.127" x="-.028" y="-.063" color-interpolation-filters="sRGB"><feGaussianBlur stdDeviation=".391"/></filter><radialGradient id="e" cx="502.62" cy="372.05" r="74.884" gradientTransform="matrix(.20977 0 0 .03309 -88.503 282.3)" gradientUnits="userSpaceOnUse"><stop offset="0" stop-color="#dfe5e8"/><stop offset="1" stop-color="#c3cacc"/></radialGradient></defs><g stroke-width="2.061" transform="matrix(.48529 0 0 .48511 .25 -127.37)"><path d="M.801 291.69c-.582.064-.569.662-.506 1.26.023.775.088 1.675.197 2.482.06.67.71 1.213 1.593 1.213h29.696c.883 0 1.534-.542 1.593-1.213.11-.807.175-1.707.197-2.482.064-.598.077-1.196-.505-1.26H3.138z" filter="url(#c)" opacity=".35"/><path d="M4.411 277.91a3.8 3.8 0 0 0-.862.083c-.384.068-.546.197-.657.406L.244 291.92a.3.3 0 0 0 .022.193.4.4 0 0 0 .068.107.7.7 0 0 0 .104.1q.1.079.242.145l.057.025a2.3 2.3 0 0 0 .397.125c.217.048.46.076.709.076h30.182c.58 0 1.124-.15 1.405-.372a.7.7 0 0 0 .13-.134.4.4 0 0 0 .041-.072.3.3 0 0 0 .022-.193l-2.648-13.52c-.11-.21-.273-.339-.657-.407a3.8 3.8 0 0 0-.862-.083l-12.522.009z" filter="url(#d)" opacity=".35"/><path fill="url(#e)" d="M.801 291.69c-.582.064-.569.662-.506 1.26.023.775.088 1.675.197 2.482.06.67.71 1.213 1.593 1.213h29.696c.883 0 1.534-.542 1.593-1.213.11-.807.175-1.707.197-2.482.064-.598.077-1.196-.505-1.26H3.138z"/><path fill="#f3fdff" d="M4.411 277.91c-.335 0-.626.027-.862.085-.384.07-.546.202-.657.416L.244 292.255a.33.33 0 0 0 .022.197.4.4 0 0 0 .068.11.7.7 0 0 0 .104.102q.1.081.242.149l.057.026a2 2 0 0 0 .397.127c.217.05.46.078.709.078h30.182c.58 0 1.124-.152 1.405-.38a.7.7 0 0 0 .13-.138.4.4 0 0 0 .041-.074.33.33 0 0 0 .022-.197l-2.648-13.844c-.11-.214-.273-.346-.657-.416a3.7 3.7 0 0 0-.862-.085l-12.522.01z" opacity=".35"/><path fill="url(#f)" d="M26.953 263.4c-.22.023-.392.574-.407.921-.208 4.954-.386 13.862-.386 13.862h1.761s-.178-8.907-.386-13.862c-.017-.391-.234-1.042-.495-.9a.15.15 0 0 0-.087-.021"/><path fill="url(#g)" d="M6.63 263.4c-.22.023-.392.574-.407.921-.208 4.954-.386 13.862-.386 13.862h1.761s-.178-8.907-.386-13.862c-.017-.391-.234-1.042-.495-.9a.15.15 0 0 0-.087-.021"/><path fill="url(#h)" d="M4.411 277.91a3.8 3.8 0 0 0-.862.083c-.384.068-.546.197-.657.406L.244 291.92a.3.3 0 0 0 .022.193.4.4 0 0 0 .068.107.7.7 0 0 0 .104.1q.1.079.242.145l.057.025a2.3 2.3 0 0 0 .397.125c.217.048.46.076.709.076h30.182c.58 0 1.124-.15 1.405-.372a.7.7 0 0 0 .13-.134.4.4 0 0 0 .041-.072.3.3 0 0 0 .022-.193l-2.648-13.52c-.11-.21-.273-.339-.657-.407a3.8 3.8 0 0 0-.862-.083l-12.522.009z"/><rect width="24.29" height="2.416" x="4.789" y="293.58" fill="url(#i)" ry=".741"/><g fill="#0f0"><circle cx="6.715" cy="294.78" r=".73"/><circle cx="8.75" cy="294.78" r=".73"/><circle cx="10.781" cy="294.78" r=".73"/><circle cx="25.06" cy="294.78" r=".73"/><circle cx="27.09" cy="294.78" r=".73"/></g><path fill="url(#j)" d="M5.837 278.03a3.2 3.2 0 0 0-.756.074c-.336.062-.478.177-.575.365l-2.32 12.125a.3.3 0 0 0 .02.172.4.4 0 0 0 .058.096 1 1 0 0 0 .091.09q.088.071.213.13l.05.023q.13.056.285.096l.062.016c.19.043.403.068.621.068h5.988a7.567 5.122 0 0 1 7.232-3.619 7.567 5.122 0 0 1 7.226 3.619h5.994c.51 0 .985-.134 1.23-.333a.6.6 0 0 0 .115-.12.4.4 0 0 0 .036-.066.3.3 0 0 0 .02-.172l-2.32-12.125c-.097-.188-.24-.303-.576-.364a3.2 3.2 0 0 0-.755-.075l-10.97.008z"/><rect width="19.423" height=".438" x="7.095" y="278.75" fill="url(#k)" opacity=".8" ry=".219"/><path fill="#4d4d4d" d="M14.537 290.234h.2l.254.494.255-.494h.2v.725h-.131v-.636l-.256.497h-.136l-.256-.497v.636h-.13zm1.46.244q-.098 0-.155.056-.058.056-.058.154 0 .097.057.154.057.055.156.055.098 0 .156-.056t.057-.153q0-.097-.057-.153-.058-.057-.156-.057m0-.076q.16 0 .251.076t.092.21-.092.21q-.09.075-.25.075-.161 0-.252-.076-.09-.076-.09-.21 0-.133.09-.21.091-.075.251-.075m1.036.097v-.295h.122v.756h-.122v-.082q-.039.049-.098.073t-.141.023q-.135 0-.22-.079-.085-.078-.085-.207 0-.128.084-.206.086-.08.22-.08.083 0 .142.025.06.023.098.072m-.418.19q0 .098.056.154.055.056.153.056t.153-.056q.056-.056.056-.155 0-.098-.056-.154t-.153-.056-.153.056-.056.154zm1.43-.023v.044h-.563q.008.092.076.14t.19.049q.07 0 .137-.013.066-.012.132-.038v.085q-.066.02-.136.031t-.14.01q-.178 0-.283-.075-.104-.076-.104-.205 0-.134.099-.212t.267-.078q.15 0 .237.07.088.071.088.192m-.122-.026q-.002-.073-.057-.117-.054-.044-.145-.044-.102 0-.164.043t-.071.119zm.904-.118q.046-.06.11-.09t.15-.028q.117 0 .18.06.063.059.063.169v.328h-.123v-.325q0-.079-.038-.116t-.116-.038q-.095 0-.15.046t-.056.126v.307h-.123v-.325q0-.079-.038-.116t-.117-.038q-.094 0-.149.046t-.055.126v.307h-.123v-.544h.123v.085q.042-.05.1-.074t.14-.024q.08 0 .137.03t.085.088" aria-label="Modem"/></g></svg>