<svg xmlns="http://www.w3.org/2000/svg" xmlns:xlink="http://www.w3.org/1999/xlink" width="64" height="64" viewBox="0 0 16.933 16.933"><defs><radialGradient xlink:href="#a" id="e" cx="4.141" cy="6.432" r="2.117" gradientTransform="translate(-.294 -.161)" gradientUnits="userSpaceOnUse"/><radialGradient xlink:href="#a" id="f" cx="4.141" cy="6.432" r="2.117" gradientTransform="translate(6.528 .832)scale(.76854)" gradientUnits="userSpaceOnUse"/><radialGradient xlink:href="#a" id="g" cx="4.141" cy="6.432" r="2.117" gradientTransform="translate(7.839 4.218)scale(.56172)" gradientUnits="userSpaceOnUse"/><radialGradient xlink:href="#a" id="h" cx="4.141" cy="6.432" r="2.117" gradientTransform="translate(10.291 -.538)scale(.56172)" gradientUnits="userSpaceOnUse"/><radialGradient xlink:href="#a" id="i" cx="4.141" cy="6.432" r="2.117" gradientTransform="translate(11.348 .93)scale(.56172)" gradientUnits="userSpaceOnUse"/><radialGradient xlink:href="#a" id="j" cx="4.141" cy="6.432" r="2.117" gradientTransform="translate(12.766 7.115)scale(.44942)" gradientUnits="userSpaceOnUse"/><radialGradient xlink:href="#a" id="k" cx="4.141" cy="6.432" r="2.117" gradientTransform="translate(12.639 8.381)scale(.44942)" gradientUnits="userSpaceOnUse"/><radialGradient xlink:href="#a" id="l" cx="4.141" cy="6.432" r="2.117" gradientTransform="translate(8.247 5.461)scale(.81425)" gradientUnits="userSpaceOnUse"/><radialGradient xlink:href="#a" id="m" cx="4.141" cy="6.432" r="2.117" gradientTransform="translate(4.691 8.523)scale(.81425)" gradientUnits="userSpaceOnUse"/><radialGradient xlink:href="#a" id="n" cx="4.141" cy="6.432" r="2.117" gradientTransform="translate(2.535 6.225)scale(.50533)" gradientUnits="userSpaceOnUse"/><radialGradient xlink:href="#a" id="o" cx="4.141" cy="6.432" r="2.117" gradientTransform="translate(9.268 13.167)scale(.30687)" gradientUnits="userSpaceOnUse"/><radialGradient xlink:href="#a" id="p" cx="4.141" cy="6.432" r="2.117" gradientTransform="translate(6.631 7.434)scale(.46849)" gradientUnits="userSpaceOnUse"/><radialGradient xlink:href="#a" id="q" cx="4.141" cy="6.432" r="2.117" gradientTransform="translate(13.236 11.66)scale(.22451)" gradientUnits="userSpaceOnUse"/><radialGradient xlink:href="#a" id="r" cx="4.141" cy="6.432" r="2.117" gradientTransform="translate(12.106 10.813)scale(.22451)" gradientUnits="userSpaceOnUse"/><linearGradient id="a"><stop offset="0" stop-color="#fff"/><stop offset="1" stop-color="#fff" stop-opacity="0"/></linearGradient><linearGradient id="c" x1="8.466" x2="8.466" y1=".529" y2="16.404" gradientUnits="userSpaceOnUse"><stop offset="0" stop-color="#bec9ec"/><stop offset=".41" stop-color="#69759a"/><stop offset=".728" stop-color="#55576e"/><stop offset="1" stop-color="#23263a"/></linearGradient><linearGradient id="d" x1="32.351" x2="32.351" y1="2.08" y2="61.924" gradientTransform="scale(.26459)" gradientUnits="userSpaceOnUse"><stop offset="0" stop-color="#fff" stop-opacity=".776"/><stop offset="1" stop-color="#fff" stop-opacity=".235"/></linearGradient><linearGradient id="b" x1="7.937" x2="7.937" y1="15.081" y2="1.852" gradientTransform="translate(0 .008)scale(.99996)" gradientUnits="userSpaceOnUse"><stop offset="0" stop-color="#f1efeb"/><stop offset="1" stop-color="#fdfcfc"/></linearGradient></defs><g color="#000"><path d="M4.37.53C2.254.53.53 2.312.53 4.496v8.468c0 2.184 1.725 3.968 3.84 3.968h8.194c2.114 0 3.84-1.783 3.84-3.968V4.497c0-2.184-1.726-3.968-3.84-3.968zm.256.52h7.681c1.844 0 3.33 1.534 3.33 3.44v7.937c0 1.906-1.485 3.44-3.33 3.44h-7.68c-1.845 0-3.33-1.534-3.33-3.44V4.49c0-1.906 1.485-3.44 3.33-3.44z" opacity=".01" style="font-feature-settings:normal;font-variant-alternates:normal;font-variant-caps:normal;font-variant-east-asian:normal;font-variant-ligatures:normal;font-variant-numeric:normal;font-variant-position:normal;font-variation-settings:normal;inline-size:0;isolation:auto;mix-blend-mode:normal;shape-margin:0;shape-padding:0;text-decoration-color:#000;text-decoration-line:none;text-decoration-style:solid;text-indent:0;text-orientation:mixed;text-transform:none;white-space:normal"/><path d="M4.359.794C2.392.794.795 2.447.795 4.48v8.5c0 2.035 1.597 3.688 3.564 3.688h8.216c1.967 0 3.564-1.653 3.564-3.688v-8.5c0-2.034-1.597-3.687-3.564-3.687zm.272.256h7.672c1.842 0 3.325 1.534 3.325 3.44v7.937c0 1.906-1.483 3.44-3.325 3.44H4.63c-1.842 0-3.325-1.534-3.325-3.44V4.49c0-1.906 1.483-3.44 3.325-3.44z" opacity=".01" style="font-feature-settings:normal;font-variant-alternates:normal;font-variant-caps:normal;font-variant-east-asian:normal;font-variant-ligatures:normal;font-variant-numeric:normal;font-variant-position:normal;font-variation-settings:normal;inline-size:0;isolation:auto;mix-blend-mode:normal;shape-margin:0;shape-padding:0;text-decoration-color:#000;text-decoration-line:none;text-decoration-style:solid;text-indent:0;text-orientation:mixed;text-transform:none;white-space:normal"/><path d="M4.31 1.058c-1.866 0-3.375 1.539-3.375 3.44v8.467c0 1.9 1.57 3.439 3.435 3.439h8.2c1.866 0 3.427-1.538 3.427-3.44V4.498c0-1.9-1.51-3.439-3.375-3.439h-.097c1.794.087 3.214 1.582 3.214 3.432v7.937c0 1.906-1.506 3.44-3.377 3.44h-7.79c-1.871 0-3.377-1.534-3.377-3.44V4.49c0-1.85 1.42-3.345 3.214-3.432z" opacity=".03" style="font-feature-settings:normal;font-variant-alternates:normal;font-variant-caps:normal;font-variant-east-asian:normal;font-variant-ligatures:normal;font-variant-numeric:normal;font-variant-position:normal;font-variation-settings:normal;inline-size:0;isolation:auto;mix-blend-mode:normal;shape-margin:0;shape-padding:0;text-decoration-color:#000;text-decoration-line:none;text-decoration-style:solid;text-indent:0;text-orientation:mixed;text-transform:none;white-space:normal"/><path d="M4 46.969V49c0 6.648 5.896 12 12.544 12h30.961C54.153 61 60 55.648 60 49v-1.992a12.97 12.97 0 0 1-13 12.963H17.002A12.973 12.973 0 0 1 4 46.969" opacity=".03" style="font-feature-settings:normal;font-variant-alternates:normal;font-variant-caps:normal;font-variant-east-asian:normal;font-variant-ligatures:normal;font-variant-numeric:normal;font-variant-position:normal;font-variation-settings:normal;inline-size:0;isolation:auto;mix-blend-mode:normal;shape-margin:0;shape-padding:0;text-decoration-color:#000;text-decoration-line:none;text-decoration-style:solid;text-indent:0;text-orientation:mixed;text-transform:none;white-space:normal" transform="scale(.26458)"/><path d="M1.058 11.906v.592c0 1.939 1.573 3.5 3.332 3.5h8.16c1.76 0 3.325-1.561 3.325-3.5v-.58c-.006 2.095-1.537 3.78-3.44 3.78H4.498c-1.905 0-3.44-1.692-3.44-3.792" opacity=".05" style="font-feature-settings:normal;font-variant-alternates:normal;font-variant-caps:normal;font-variant-east-asian:normal;font-variant-ligatures:normal;font-variant-numeric:normal;font-variant-position:normal;font-variation-settings:normal;inline-size:0;isolation:auto;mix-blend-mode:normal;shape-margin:0;shape-padding:0;text-decoration-color:#000;text-decoration-line:none;text-decoration-style:solid;text-indent:0;text-orientation:mixed;text-transform:none;white-space:normal"/></g><rect width="14.816" height="14.816" x="1.058" y="1.058" fill="url(#b)" rx="3.44" ry="3.44"/><g transform="translate(1.699 1.693)scale(.79998)"><circle cx="8.46" cy="8.467" r="7.938" fill="url(#c)" fill-rule="evenodd" style="paint-order:stroke fill markers"/><path fill="url(#d)" fill-rule="evenodd" d="M8.89.55c-.754.392-1.665.982-2.57 1.865a11.2 11.2 0 0 0-2.327 3.27q-.013-.505.02-.982c.089-1.31.41-2.41.743-3.25a8 8 0 0 0-.259.15 10.36 10.36 0 0 0-.756 4.66A8 8 0 0 1 1.423 5.03l-.075-.06-.076.157.043.038a7.6 7.6 0 0 0 2.336 1.343 10 10 0 0 0-.224.68q-.154.531-.25 1.055a15 15 0 0 1-1.2-.86A16 16 0 0 1 .82 6.36l-.042.163c.281.303.624.644 1.067 1.02.374.319.803.647 1.285.967a11 11 0 0 0 .057 3.842 10.6 10.6 0 0 0 .947 2.758 8 8 0 0 0 .308.19 11.1 11.1 0 0 1-.995-2.996 11.1 11.1 0 0 1-.042-3.616q.46.292.977.564.157.424.358.847.022.05.047.1a10.64 10.64 0 0 0 2.963 3.676c-.033.604-.018 1.167.026 1.67.027.305.065.576.107.83l.18.009a12.5 12.5 0 0 1-.07-2.323 10.3 10.3 0 0 0 2.293 1.288 7 7 0 0 0-.24.81l-.016.081.21-.048q.101-.354.262-.758c.384.146.733.247 1.06.33a8 8 0 0 0 .244-.108c-.37-.103-.773-.23-1.223-.416a7.3 7.3 0 0 1 1.613-2.339q.335-.325.727-.61c.402.327.796.591 1.16.803-.122.494-.266.938-.414 1.352a8 8 0 0 0 .343-.305c.104-.29.205-.593.296-.922.13.07.246.125.364.18l.104-.137c-.134-.072-.268-.144-.417-.234.136-.522.25-1.087.326-1.687a7.3 7.3 0 0 1 1.296-.348 8 8 0 0 0 .091-.278 7 7 0 0 0-1.35.308q.042-.397.06-.814c.588-.18 1.093-.38 1.523-.573l.03-.202a15 15 0 0 1-1.546.536 13 13 0 0 0-.145-2.298 13.5 13.5 0 0 0-.889-3.16c.431-.264.822-.464 1.175-.632l-.1-.14a11 11 0 0 0-1.161.568 14 14 0 0 0-.72-1.421 7 7 0 0 0 .33-.72l-.128-.096a9 9 0 0 1-.317.622 13 13 0 0 0-.954-1.38l-.001-.001a8 8 0 0 0-.421-.192c.083.105.165.204.253.323.324.438.657.94.974 1.503-.537.875-1.4 1.912-2.705 2.671l-.073.042a9.5 9.5 0 0 1 .107-1.864 9.6 9.6 0 0 1 .932-2.861l-.15-.054a8.8 8.8 0 0 0-1.045 2.87 9.2 9.2 0 0 0-.134 2.064 7.6 7.6 0 0 1-1.755.637 7.7 7.7 0 0 1-2.978.096 8 8 0 0 1-.853-.194A11.2 11.2 0 0 1 6.5 2.598 11.5 11.5 0 0 1 9.226.568 8 8 0 0 0 8.89.55m3.91 2.604c.218.404.428.837.622 1.298a12 12 0 0 0-3.276 2.924 9 9 0 0 1-.22-1.394 7.63 7.63 0 0 0 2.873-2.828zm.71 1.512a13.8 13.8 0 0 1 .967 4.324q.03.543.017 1.06a14.6 14.6 0 0 1-2.889.45A8.9 8.9 0 0 1 10.322 8l-.018-.054-.061-.205a12.4 12.4 0 0 1 3.267-3.075M9.638 6.134a9 9 0 0 0 .272 1.56 11.6 11.6 0 0 0-1.415 2.633l-.15-.026a13.8 13.8 0 0 1-3.711-1.23 10.7 10.7 0 0 1-.574-2.43q.37.11.775.184c.955.173 2.015.17 3.093-.079a7.7 7.7 0 0 0 1.71-.612m-5.827.833c.084.625.226 1.265.437 1.906a15 15 0 0 1-.799-.458 11 11 0 0 1 .362-1.448m6.206 1.093.011.035a8.9 8.9 0 0 0 1.228 2.42 14 14 0 0 1-2.46-.14 11.6 11.6 0 0 1 1.221-2.315M4.782 9.453a13.6 13.6 0 0 0 3.51 1.145l.099.017a12 12 0 0 0-.618 2.927 10.65 10.65 0 0 1-2.99-4.088zm9.704.843a14 14 0 0 1-.06.832 7.2 7.2 0 0 0-1.528.81 9.5 9.5 0 0 1-1.087-1.167 14 14 0 0 0 2.675-.475m-5.798.367c.969.145 1.9.178 2.776.13a9 9 0 0 0 1.222 1.298 7 7 0 0 0-2.325 3.056 10.7 10.7 0 0 1-2.346-1.407c.084-.953.285-2.001.673-3.077m5.7.796c-.063.503-.152.98-.256 1.427a10 10 0 0 1-1-.743c.414-.28.837-.506 1.257-.684z" style="paint-order:stroke fill markers"/><g stroke-linecap="round" stroke-linejoin="round"><circle cx="3.847" cy="6.271" r="2.117" fill="url(#e)"/><circle cx="9.71" cy="5.776" r="1.627" fill="url(#f)"/><g stroke-width=".498"><circle cx="10.165" cy="7.831" r="1.189" fill="url(#g)"/><circle cx="12.617" cy="3.075" r="1.189" fill="url(#h)"/><circle cx="13.674" cy="4.542" r="1.189" fill="url(#i)"/></g><circle cx="14.627" cy="10.006" r=".951" fill="url(#j)"/><circle cx="14.5" cy="11.272" r=".951" fill="url(#k)"/><circle cx="11.619" cy="10.698" r="1.724" fill="url(#l)"/><circle cx="8.063" cy="13.76" r="1.724" fill="url(#m)"/><circle cx="4.628" cy="9.475" r="1.07" fill="url(#n)"/><circle cx="10.539" cy="15.141" r=".65" fill="url(#o)"/><circle cx="8.571" cy="10.448" r=".992" fill="url(#p)"/><circle cx="14.166" cy="13.104" r=".475" fill="url(#q)"/><circle cx="13.036" cy="12.257" r=".475" fill="url(#r)"/></g></g></svg>