<svg width="64" height="64" version="1.1" viewBox="0 0 16.933 16.933" xmlns="http://www.w3.org/2000/svg" xmlns:xlink="http://www.w3.org/1999/xlink">
 <defs>
  <filter id="d" x="-.036" y="-.036" width="1.072" height="1.072" color-interpolation-filters="sRGB">
   <feGaussianBlur stdDeviation="0.238125"/>
  </filter>
  <linearGradient id="q" x1="8.4665" x2="8.4665" y1=".5292" y2="16.404" gradientTransform="matrix(1 0 0 1 104.93 62.51)" gradientUnits="userSpaceOnUse">
   <stop stop-color="#bec9ec" offset="0"/>
   <stop stop-color="#69759a" offset=".41037"/>
   <stop stop-color="#55576e" offset=".72843"/>
   <stop stop-color="#23263a" offset="1"/>
  </linearGradient>
  <linearGradient id="a" x1="32.351" x2="32.351" y1="2.0801" y2="61.924" gradientTransform="matrix(.26459 0 0 .26459 104.93 62.51)" gradientUnits="userSpaceOnUse">
   <stop stop-color="#fff" stop-opacity=".77647" offset="0"/>
   <stop stop-color="#fff" stop-opacity=".23529" offset="1"/>
  </linearGradient>
  <filter id="b" x="-.35515" y="-.35515" width="1.7103" height="1.7103" color-interpolation-filters="sRGB">
   <feGaussianBlur stdDeviation="0.31321568"/>
  </filter>
  <filter id="c" x="-.35515" y="-.35515" width="1.7103" height="1.7103" color-interpolation-filters="sRGB">
   <feGaussianBlur stdDeviation="0.31321568"/>
  </filter>
  <filter id="e" x="-.35515" y="-.35515" width="1.7103" height="1.7103" color-interpolation-filters="sRGB">
   <feGaussianBlur stdDeviation="0.31321568"/>
  </filter>
  <filter id="f" x="-.59868" y="-.59868" width="2.1974" height="2.1974" color-interpolation-filters="sRGB">
   <feGaussianBlur stdDeviation="0.31321568"/>
  </filter>
  <filter id="g" x="-.3108" y="-.3108" width="1.6216" height="1.6216" color-interpolation-filters="sRGB">
   <feGaussianBlur stdDeviation="0.16260279"/>
  </filter>
  <filter id="h" x="-.75025" y="-.75025" width="2.5005" height="2.5005" color-interpolation-filters="sRGB">
   <feGaussianBlur stdDeviation="0.31321568"/>
  </filter>
  <filter id="i" x="-.75025" y="-.75025" width="2.5005" height="2.5005" color-interpolation-filters="sRGB">
   <feGaussianBlur stdDeviation="0.31321568"/>
  </filter>
  <filter id="j" x="-.75025" y="-.75025" width="2.5005" height="2.5005" color-interpolation-filters="sRGB">
   <feGaussianBlur stdDeviation="0.31321568"/>
  </filter>
  <filter id="k" x="-.75025" y="-.75025" width="2.5005" height="2.5005" color-interpolation-filters="sRGB">
   <feGaussianBlur stdDeviation="0.31321568"/>
  </filter>
  <filter id="l" x="-.75025" y="-.75025" width="2.5005" height="2.5005" color-interpolation-filters="sRGB">
   <feGaussianBlur stdDeviation="0.31321568"/>
  </filter>
  <filter id="m" x="-.75025" y="-.75025" width="2.5005" height="2.5005" color-interpolation-filters="sRGB">
   <feGaussianBlur stdDeviation="0.31321568"/>
  </filter>
  <filter id="n" x="-.75025" y="-.75025" width="2.5005" height="2.5005" color-interpolation-filters="sRGB">
   <feGaussianBlur stdDeviation="0.31321568"/>
  </filter>
  <filter id="o" x="-.75025" y="-.75025" width="2.5005" height="2.5005" color-interpolation-filters="sRGB">
   <feGaussianBlur stdDeviation="0.31321568"/>
  </filter>
  <filter id="p" x="-.75025" y="-.75025" width="2.5005" height="2.5005" color-interpolation-filters="sRGB">
   <feGaussianBlur stdDeviation="0.31321568"/>
  </filter>
 </defs>
 <g transform="translate(0 -280.07)">
  <g transform="translate(-104.93 217.56)" fill-rule="evenodd">
   <circle transform="matrix(1 0 0 1 104.93 62.51)" cx="8.4667" cy="8.46" r="7.9375" filter="url(#d)" opacity=".25" style="paint-order:stroke fill markers"/>
   <circle cx="113.39" cy="70.977" r="7.9375" fill="url(#q)" style="paint-order:stroke fill markers"/>
   <path d="m113.82 63.06c-0.75377 0.39196-1.6646 0.98222-2.5709 1.865-0.86948 0.84678-1.7106 1.9444-2.3265 3.2695-9e-3 -0.33526-1e-3 -0.66358 0.0202-0.98135 0.0888-1.3103 0.4109-2.4099 0.74361-3.2499a7.9376 7.9376 0 0 0-0.25941 0.14883c-0.33468 0.81357-0.6431 1.8526-0.74571 3.0819-0.042 0.50427-0.0468 1.0339-0.01 1.5793-0.98741-0.32975-1.77-0.81495-2.3182-1.233-0.0271-0.02066-0.0503-0.03993-0.0754-0.05994a7.9376 7.9376 0 0 0-0.0755 0.15658c0.0144 0.01269 0.0276 0.02475 0.0429 0.03772 0.53708 0.4549 1.3238 0.98095 2.3358 1.3431-0.0333 0.09087-0.0656 0.18218-0.0966 0.27493-0.0447 0.13371-0.0874 0.26906-0.12713 0.40566-0.10297 0.35372-0.18545 0.70557-0.25063 1.0547-0.44411-0.28654-0.84472-0.57806-1.1994-0.86093-0.4807-0.38336-0.85143-0.72488-1.1581-1.0222a7.9376 7.9376 0 0 0-0.0419 0.16278c0.28131 0.30314 0.62374 0.64479 1.0666 1.0211 0.37439 0.31814 0.80344 0.64604 1.2857 0.96634-0.22058 1.3679-0.16795 2.6818 0.0568 3.842 0.21353 1.1013 0.57404 2.0156 0.94671 2.758a7.9376 7.9376 0 0 0 0.30851 0.18966c-0.38733-0.78373-0.77921-1.7807-0.99529-2.9962-0.19529-1.098-0.23842-2.3312-0.0424-3.6153 0.30623 0.19325 0.63231 0.38262 0.97722 0.56328 0.10521 0.28334 0.224 0.56584 0.35761 0.84749 0.0157 0.03312 0.031 0.06672 0.047 0.09973 0.75724 1.5533 1.8291 2.7792 2.9636 3.6759-0.0332 0.60405-0.0186 1.1669 0.0258 1.6707 0.0269 0.30504 0.065 0.5759 0.10697 0.82942a7.9376 7.9376 0 0 0 0.17932 0.0088c-0.031-0.26124-0.0587-0.53989-0.076-0.85268-0.0248-0.44866-0.0271-0.94338 6e-3 -1.4707 0.13634 0.10144 0.27313 0.1984 0.41032 0.29044 0.64768 0.43448 1.2881 0.75653 1.8831 0.99788-0.10381 0.28713-0.18199 0.56103-0.23927 0.81132-6e-3 0.02809-0.0106 0.05331-0.016 0.0801a7.9376 7.9376 0 0 0 0.20929-0.04754c0.0678-0.23565 0.15378-0.49075 0.262-0.75862 0.38415 0.14593 0.73346 0.24682 1.0609 0.33073a7.9376 7.9376 0 0 0 0.2434-0.10852c-0.36918-0.10325-0.77352-0.23083-1.2232-0.41601 0.32962-0.75642 0.83802-1.5921 1.6128-2.3389 0.2236-0.21571 0.46631-0.41976 0.72761-0.61082 0.40185 0.32793 0.79587 0.59219 1.1602 0.80357-0.12286 0.49461-0.26644 0.93859-0.41394 1.3519a7.9376 7.9376 0 0 0 0.34211-0.30438c0.10417-0.29065 0.20537-0.59299 0.29609-0.92192 0.12981 0.07021 0.24657 0.12434 0.36434 0.17984a7.9376 7.9376 0 0 0 0.10387-0.13694c-0.13384-0.07225-0.26813-0.14442-0.41651-0.23461 0.1358-0.52203 0.24925-1.0863 0.32607-1.6867 0.44271-0.16495 0.87769-0.27485 1.2956-0.3483a7.9376 7.9376 0 0 0 0.091-0.27802c-0.43292 0.05654-0.88631 0.15261-1.3498 0.308 0.0274-0.26461 0.0477-0.53605 0.0594-0.81339 0.58825-0.18 1.0932-0.38 1.5234-0.57309a7.9376 7.9376 0 0 0 0.0305-0.20206c-0.43689 0.17785-0.94542 0.36572-1.5467 0.53587 8e-3 -0.32417 4e-3 -0.65628-0.0129-0.99582-0.022-0.42847-0.0652-0.86329-0.13229-1.3023-0.17775-1.1633-0.4961-2.2194-0.88832-3.1599 0.43085-0.26416 0.82162-0.46443 1.1751-0.63201a7.9376 7.9376 0 0 0-0.10025-0.14056c-0.35164 0.14811-0.7369 0.32737-1.1612 0.56896-0.22241-0.51012-0.46633-0.98481-0.72038-1.4216 0.0479-0.09048 0.0928-0.17865 0.13384-0.26459 0.0781-0.16351 0.13951-0.31229 0.19534-0.45477a7.9376 7.9376 0 0 0-0.12661-0.09612c-0.0676 0.14616-0.14138 0.29917-0.23203 0.46818-0.027 0.05025-0.0559 0.10159-0.0853 0.15348-0.31184-0.51663-0.6362-0.97754-0.95396-1.3798-4e-4 -5.08e-4 -6.4e-4 -1e-3 -1e-3 -0.0016a7.9376 7.9376 0 0 0-0.4212-0.19172c0.0835 0.1048 0.16531 0.20439 0.25322 0.32298 0.32446 0.43773 0.65659 0.94007 0.97409 1.5028-0.53729 0.87556-1.4001 1.9123-2.7054 2.6718-0.024 0.01403-0.0481 0.02803-0.0724 0.04186-0.0278-0.65686 0.0159-1.286 0.10697-1.864 0.19501-1.2349 0.59585-2.2011 0.93174-2.8618a7.9376 7.9376 0 0 0-0.14986-0.05374c-0.37881 0.65011-0.81935 1.6178-1.0439 2.8713-0.11394 0.6349-0.1694 1.3327-0.13436 2.064-0.53605 0.27334-1.1247 0.492-1.7549 0.63717-1.0372 0.23897-2.0566 0.25035-2.9782 0.09612-0.29811-0.04978-0.58225-0.1159-0.85268-0.19431v-5.29e-4c0.60394-1.5345 1.5187-2.7977 2.4686-3.7553 0.97876-0.98603 1.956-1.6161 2.7266-2.0309a7.9376 7.9376 0 0 0-0.33642-0.01705zm3.9092 2.604c0.2191 0.4036 0.42921 0.83678 0.6227 1.2981-0.19869 0.11974-0.40169 0.25021-0.60876 0.39325-0.90022 0.62188-1.8414 1.46-2.667 2.5311-0.11401-0.47154-0.1847-0.93832-0.22014-1.3942 0.0675-0.03743 0.1343-0.07562 0.19999-0.11472 1.2992-0.77478 2.151-1.8167 2.6734-2.7136zm0.71054 1.5121c0.36593 0.91406 0.66377 1.9341 0.83458 3.052 0.0656 0.42921 0.10979 0.85368 0.13281 1.2723 0.0199 0.36182 0.0245 0.71544 0.0165 1.0599-0.15965 0.04165-0.32367 0.08141-0.493 0.11937-0.72795 0.16299-1.5333 0.28401-2.3952 0.33073-0.52033-0.7138-0.97677-1.5509-1.2837-2.4996-6e-3 -0.01826-0.0118-0.03652-0.0176-0.05478-0.0216-0.06829-0.0418-0.13696-0.0615-0.20516 0.83151-1.1377 1.7934-2.0293 2.7115-2.6951 0.18843-0.13664 0.37405-0.26267 0.55553-0.37981zm-3.8722 1.4676c0.0425 0.50922 0.12986 1.0326 0.27234 1.5601-0.27583 0.38399-0.53656 0.79537-0.77516 1.2356-0.0455 0.08397-0.0902 0.16769-0.13333 0.25218-0.19509 0.38299-0.36243 0.76582-0.50644 1.1457-0.0502-0.0086-0.10051-0.01709-0.15089-0.02635-0.10049-0.01816-0.19989-0.03714-0.29922-0.05736-1.2792-0.26058-2.4191-0.6821-3.4108-1.172-0.29864-0.8181-0.48231-1.6384-0.57413-2.4309 0.24671 0.0726 0.50462 0.13538 0.77463 0.18449 0.95552 0.17329 2.0154 0.16945 3.0938-0.07906 0.61095-0.1408 1.184-0.35052 1.709-0.61238zm-5.827 0.83302c0.0841 0.62508 0.22693 1.2651 0.4377 1.9064-0.27924-0.14853-0.54563-0.3021-0.79891-0.45786 0.0674-0.37793 0.15553-0.75915 0.26718-1.1426 0.0299-0.10278 0.0613-0.20483 0.094-0.30591zm6.2069 1.093c4e-3 0.01197 7e-3 0.02379 0.0109 0.03566 0.29647 0.91478 0.73013 1.7247 1.2278 2.42-0.78222 0.02346-1.6075-0.01557-2.4608-0.14056 0.13705-0.35047 0.29411-0.70348 0.4744-1.0563 0.042-0.08228 0.0854-0.16366 0.12971-0.24546 0.19284-0.35595 0.40034-0.69393 0.61804-1.0134zm-5.2353 1.3937c0.94036 0.4545 2.0105 0.84112 3.2025 1.0852 0.10157 0.02074 0.2037 0.04045 0.30645 0.05891 0.0334 6e-3 0.0665 0.01136 0.0997 0.01757-0.35647 1.0211-0.54258 2.0151-0.61804 2.9266-1.0393-0.87496-2.0145-2.0342-2.7162-3.4748-0.0156-0.03198-0.0307-0.06383-0.046-0.09612-0.0815-0.17177-0.15764-0.34467-0.22841-0.51728zm9.7039 0.84233c-0.0117 0.28422-0.0322 0.56179-0.0599 0.83252-0.51017 0.19603-1.0258 0.46154-1.5281 0.80976-0.13445-0.1219-0.26901-0.25036-0.4036-0.38756-0.2331-0.2378-0.46279-0.49858-0.68369-0.77981 0.8077-0.06339 1.5622-0.19252 2.2464-0.36121 0.14691-0.03628 0.28956-0.07448 0.42892-0.11369zm-5.7976 0.3669c0.96833 0.1452 1.9002 0.1782 2.7755 0.13126 0.26885 0.34719 0.55267 0.66271 0.8413 0.94518 0.12677 0.12412 0.25362 0.24111 0.38034 0.35192-0.25003 0.18729-0.48302 0.3873-0.69816 0.59791-0.80293 0.78685-1.3131 1.6655-1.6268 2.4578-0.57455-0.25139-1.1903-0.57957-1.8123-1.0113-0.1784-0.12383-0.35666-0.25581-0.53329-0.39585 0.0836-0.95243 0.28477-2.0007 0.67334-3.0769zm5.7 0.79635c-0.0637 0.50266-0.15219 0.97978-0.25632 1.4273-0.31649-0.20457-0.65521-0.45006-1.0004-0.74311 0.41405-0.2807 0.83683-0.50665 1.2568-0.68419z" fill="url(#a)" style="paint-order:stroke fill markers"/>
   <g fill="#fff">
    <circle transform="matrix(1 0 0 1 104.93 62.51)" cx="4.0628" cy="6.4306" r="1.0583" filter="url(#b)" style="paint-order:stroke fill markers"/>
    <circle transform="matrix(.61649 0 0 .61649 109.74 67.15)" cx="12.565" cy="12.099" r="1.0583" filter="url(#c)" stroke-width="1.6221" style="paint-order:stroke fill markers"/>
    <circle transform="matrix(.76273 0 0 .76273 106.99 64.981)" cx="8.6907" cy="10.413" r="1.0583" filter="url(#e)" stroke-width="1.3111" style="paint-order:stroke fill markers"/>
    <circle transform="matrix(1 0 0 1 104.93 62.51)" cx="9.767" cy="5.8207" r=".62781" filter="url(#f)" style="paint-order:stroke fill markers"/>
    <circle transform="matrix(1.942 0 0 1.942 95.421 55.202)" cx="10.09" cy="7.758" r=".62781" filter="url(#g)" stroke-width=".51493" style="paint-order:stroke fill markers"/>
    <circle transform="matrix(1 0 0 1 104.93 62.51)" cx="13.407" cy="4.601" r=".50098" filter="url(#h)" style="paint-order:stroke fill markers"/>
    <circle transform="matrix(1 0 0 1 104.93 62.51)" cx="12.684" cy="3.0282" r=".50098" filter="url(#i)" style="paint-order:stroke fill markers"/>
    <circle transform="matrix(1 0 0 1 104.93 62.51)" cx="14.435" cy="10.042" r=".50098" filter="url(#j)" style="paint-order:stroke fill markers"/>
    <circle transform="matrix(1 0 0 1 104.93 62.51)" cx="14.447" cy="11.273" r=".50098" filter="url(#k)" style="paint-order:stroke fill markers"/>
    <circle transform="matrix(1 0 0 1 104.93 62.51)" cx="14.092" cy="12.972" r=".50098" filter="url(#l)" style="paint-order:stroke fill markers"/>
    <circle transform="matrix(1 0 0 1 104.93 62.51)" cx="10.389" cy="15.078" r=".50098" filter="url(#m)" style="paint-order:stroke fill markers"/>
    <circle transform="matrix(1 0 0 1 104.93 62.51)" cx="7.928" cy="13.53" r=".50098" filter="url(#n)" style="paint-order:stroke fill markers"/>
    <circle transform="matrix(1 0 0 1 104.93 62.51)" cx="4.6993" cy="9.1894" r=".50098" filter="url(#o)" style="paint-order:stroke fill markers"/>
    <circle transform="matrix(1 0 0 1 104.93 62.51)" cx="3.4436" cy="8.5078" r=".50098" filter="url(#p)" style="paint-order:stroke fill markers"/>
   </g>
  </g>
 </g>
</svg>
