<svg xmlns="http://www.w3.org/2000/svg" xmlns:xlink="http://www.w3.org/1999/xlink" viewBox="0 0 64 64"><defs><linearGradient id="a" x1="31.756" x2="30.031" y1="44.109" y2="25.774" gradientTransform="matrix(4.0863 0 0 4.0001 -66.386 -117.54)" gradientUnits="userSpaceOnUse"><stop offset="0" stop-color="#353535"/><stop offset="1" stop-color="#979797"/></linearGradient><linearGradient xlink:href="#a" id="b" x1="32" x2="32" y1="60" y2="6" gradientTransform="matrix(1 0 0 1.03846 0 -1.23)" gradientUnits="userSpaceOnUse"/></defs><rect width="30" height="56" x="17" y="4" rx="5" ry="5" style="opacity:1;fill:#000;stroke:none;stroke-width:.563602;stroke-linecap:round;stroke-linejoin:round;paint-order:stroke fill markers"/><rect width="28" height="54" x="18" y="5" rx="4" ry="4" style="opacity:1;fill:url(#b);stroke:none;stroke-width:.53468;stroke-linecap:round;stroke-linejoin:round;paint-order:stroke fill markers"/><path fill="#a5a5a5" d="M26.514 56a.511.497 0 0 0-.514.5.511.497 0 0 0 .514.5h10.97a.511.497 0 0 0 .516-.5.511.497 0 0 0-.516-.5Z" style="stroke-width:0"/><rect width="12" height="3" x="26" y="7" fill-opacity=".906" rx="1.5" ry="1.5" style="stroke-width:0;paint-order:markers fill stroke"/><rect width="4" height="4" x="21" y="49" fill="#69cf50" rx="1" ry="1" style="opacity:.35;fill:#fff;stroke-width:0;stroke-miterlimit:4.4"/><rect width="4" height="4" x="27" y="49" fill="#69cf50" rx="1" ry="1" style="opacity:.35;fill:#fff;stroke-width:0;stroke-miterlimit:4.4"/><rect width="4" height="4" x="33" y="49" fill="#69cf50" rx="1" ry="1" style="opacity:.35;fill:#fff;stroke-width:0;stroke-miterlimit:4.4"/><rect width="4" height="4" x="39" y="49" fill="#69cf50" rx="1" ry="1" style="opacity:.35;fill:#fff;stroke-width:0;stroke-miterlimit:4.4"/></svg>