<svg width="64" height="64" xmlns="http://www.w3.org/2000/svg" xmlns:xlink="http://www.w3.org/1999/xlink"><defs><linearGradient id="a"><stop stop-color="#2e5d89" offset="0"/><stop stop-color="#1b92f4" offset="1"/></linearGradient><linearGradient id="f" x1="744.57" x2="744.57" y1="408.87" y2="301.8" gradientTransform="matrix(.2847 0 0 .30497 -48.016 202.88)" gradientUnits="userSpaceOnUse"><stop stop-color="#cbcbcb" offset="0"/><stop stop-color="#e9e9e9" offset=".6"/><stop stop-color="#bebebe" offset="1"/></linearGradient><linearGradient id="g" x1="747.8" x2="746.39" y1="503.04" y2="421.01" gradientTransform="matrix(.28525 0 0 .30497 -48.439 201.9)" gradientUnits="userSpaceOnUse"><stop stop-color="#a8a8a8" offset="0"/><stop stop-color="#ccc" offset="1"/></linearGradient><linearGradient id="h" x1="744.57" x2="744.57" y1="381.8" y2="311.8" gradientTransform="matrix(.28525 0 0 .30497 -48.439 202.63)" gradientUnits="userSpaceOnUse"><stop stop-color="#333" offset="0"/><stop stop-color="#4e4e4e" offset=".643"/><stop stop-color="#333" offset="1"/></linearGradient><linearGradient id="i" x1="745.91" x2="742.23" y1="499.57" y2="438.57" gradientTransform="matrix(.28525 0 0 .30497 -48.439 202.88)" gradientUnits="userSpaceOnUse" xlink:href="#b"/><linearGradient id="b"><stop stop-color="#060606" offset="0"/><stop stop-color="#343434" offset="1"/></linearGradient><linearGradient id="j" x1="735.78" x2="736.7" y1="464.59" y2="504.09" gradientTransform="matrix(.28525 0 0 .30497 -48.439 202.93)" gradientUnits="userSpaceOnUse" xlink:href="#b"/><linearGradient id="k" x1="736.45" x2="736.63" y1="501.81" y2="571.81" gradientTransform="matrix(.28487 0 0 .30497 -48.386 202.88)" gradientUnits="userSpaceOnUse" xlink:href="#c"/><linearGradient id="c"><stop stop-color="#1f1f1f" offset="0"/><stop stop-color="#444" offset="1"/></linearGradient><linearGradient id="l" x1="743.78" x2="748.2" y1="547.5" y2="463.92" gradientTransform="matrix(.28525 0 0 .30497 -48.439 202.88)" gradientUnits="userSpaceOnUse"><stop stop-color="#f4f4f4" offset="0"/><stop stop-color="#b0b0b0" offset="1"/></linearGradient><linearGradient id="m" x1="754.57" x2="752.57" y1="302.8" y2="258.8" gradientTransform="matrix(.28525 0 0 .30497 -48.439 202.88)" gradientUnits="userSpaceOnUse" xlink:href="#c"/><linearGradient id="n" x1="736.82" x2="738.94" y1="307.47" y2="233.22" gradientTransform="matrix(.28525 0 0 .30497 -48.439 202.88)" gradientUnits="userSpaceOnUse" xlink:href="#d"/><linearGradient id="d"><stop stop-color="#cbcbcb" offset="0"/><stop stop-color="#f3f3f3" offset="1"/></linearGradient><filter id="e" x="-.026" y="-.057" width="1.053" height="1.114" color-interpolation-filters="sRGB"><feGaussianBlur stdDeviation="1.129"/></filter></defs><g transform="matrix(.56813 0 0 .56855 -60.292 -153.685)" fill-rule="evenodd" stroke-width="1.76"><path d="M111.02 331.62v23.018c0 2.332 1.757 4.209 3.938 4.209h8.851l-3.969 18.777-.043.072v1.66h85.83v-1.607l-.017-.033h.008l-4.559-18.87h8.895c2.18 0 3.935-1.876 3.935-4.208v-22.79z" filter="url(#e)" opacity=".5"/><path d="M120.34 374.77h84.731l.549.986v1.607h-85.83v-1.661z" fill="#2a2a2a"/><path d="M119.56 297.52h85.184l9.085 9.304v23.043H111.04v-23.15z" fill="url(#f)" stroke="gray" stroke-linecap="round" stroke-width=".352"/><path d="M213.89 329.85v22.79c0 2.332-1.756 4.209-3.937 4.209h-94.995c-2.18 0-3.936-1.877-3.936-4.209v-23.019z" fill="url(#g)" stroke="gray" stroke-linecap="round" stroke-width=".352"/><path d="M131.04 297.3h62.874l2.853 6.52v11.81s.016 4.744-4.438 4.744h-59.704s-4.295-.188-4.437-4.529v-12.102z" fill="url(#h)"/><path d="M128.87 338.02h67.167c2.794 0 5.043 2.405 5.043 5.391v13.478h-77.252v-13.478c0-2.987 2.249-5.391 5.042-5.391z" fill="url(#i)"/><path d="M133.68 343.63h58.494c2.794 0 5.043 2.404 5.043 5.391v7.871h-68.58v-7.87c0-2.988 2.25-5.392 5.043-5.392z" fill="url(#j)"/><path d="M123.81 356.85h77.25l4.558 18.869h-85.796z" fill="url(#k)"/><path d="M133.08 343.63h60.006l2.853 27.387h-65.712z" fill="url(#l)"/><path fill="url(#m)" d="M127.44 278.81h69.316v18.603H127.44z"/><path fill="url(#n)" d="M132.39 274h60.208v23.505H132.39z"/><path d="M207.52 315.58h6.311v4.498h-6.311c-1.165 0-2.104-1.003-2.104-2.249s.939-2.249 2.104-2.249z" fill="#3b3b3b"/><rect x="206.94" y="316.49" width="5.7" height="2.732" ry="1.366" fill="#d5d5d5"/><path fill="url(#n)" stroke="gray" stroke-linecap="round" stroke-width=".352" d="M132.39 274h60.208v23.505H132.39z"/></g></svg>