<svg xmlns="http://www.w3.org/2000/svg" xmlns:xlink="http://www.w3.org/1999/xlink" width="64" height="64" viewBox="0 0 16.933 16.933"><defs><filter id="h" width="1.109" height="1.133" x="-.055" y="-.066" color-interpolation-filters="sRGB"><feGaussianBlur stdDeviation=".302"/></filter><filter id="e" width="1.173" height="1.848" x="-.087" y="-.424" color-interpolation-filters="sRGB"><feGaussianBlur stdDeviation=".707"/></filter><filter id="k" width="1.04" height="1.476" x="-.02" y="-.238" color-interpolation-filters="sRGB"><feGaussianBlur stdDeviation=".105"/></filter><filter id="d" width="1.04" height="1.352" x="-.02" y="-.176" color-interpolation-filters="sRGB"><feGaussianBlur stdDeviation=".44"/></filter><filter id="i" width="1.083" height="1.22" x="-.041" y="-.11" color-interpolation-filters="sRGB"><feGaussianBlur stdDeviation=".341"/></filter><filter id="m" width="1.36" height="1.36" x="-.18" y="-.18" color-interpolation-filters="sRGB"><feGaussianBlur stdDeviation=".041"/></filter><filter id="b" width="1.119" height="1.121" x="-.059" y="-.061" color-interpolation-filters="sRGB"><feGaussianBlur stdDeviation="1.338"/></filter><radialGradient id="f" cx="32" cy="53.196" r="9.909" gradientTransform="matrix(.3738 0 0 .1302 -3.495 5.725)" gradientUnits="userSpaceOnUse"><stop offset="0" stop-color="#fdfdfd"/><stop offset=".473" stop-color="#f5f5f5"/><stop offset="1" stop-color="#cecece"/></radialGradient><radialGradient id="j" cx="7.937" cy="13.903" r="7.142" gradientTransform="matrix(1.1114 0 0 1.2966 -.884 -5.225)" gradientUnits="userSpaceOnUse"><stop offset="0" stop-color="#fff"/><stop offset="1" stop-color="#fff" stop-opacity="0"/></radialGradient><radialGradient xlink:href="#a" id="l" cx="14.155" cy="14.42" r=".397" gradientUnits="userSpaceOnUse"/><radialGradient xlink:href="#a" id="n" cx="14.155" cy="14.42" r=".397" gradientTransform="translate(3.528 4.806)scale(.66667)" gradientUnits="userSpaceOnUse"/><radialGradient xlink:href="#a" id="o" cx="14.155" cy="14.42" r=".397" gradientTransform="translate(2.47 4.806)scale(.66667)" gradientUnits="userSpaceOnUse"/><linearGradient id="a"><stop offset="0" stop-color="#bebebe"/><stop offset="1" stop-color="#464646"/></linearGradient><linearGradient id="c" x1="8.466" x2="8.466" y1="12.477" y2="15.356" gradientTransform="matrix(.99497 0 0 1 .043 0)" gradientUnits="userSpaceOnUse"><stop offset="0" stop-color="#f3f3f3"/><stop offset="1" stop-color="#e4e4e4"/></linearGradient><clipPath id="g"><path fill="#929292" d="M3.814 1.38a.9.9 0 0 0-.36.065c-.16.053-.229.153-.275.316l-1.687 9.643a.45.45 0 0 0 .038.233.6.6 0 0 0 .169.21.7.7 0 0 0 .165.097c.09.038.192.06.296.06h3.746a3.496 5.043 0 0 1 2.56-1.619 3.496 5.043 0 0 1 2.562 1.619h3.744c.243 0 .47-.116.588-.29l.043-.077.012-.027a.5.5 0 0 0 .026-.206L13.495 1.76c-.046-.162-.114-.262-.274-.316a.9.9 0 0 0-.36-.064H8.465z"/></clipPath></defs><path d="M14 5c-.543-.001-1.013.09-1.395.28-.62.23-.883.663-1.062 1.368L5.016 48.394a2.2 2.2 0 0 0 .037.647l.01.037c-.007.418.006.859.037 1.312.037 1.99.142 2.467.318 4.538.097 1.72 1.15 3.112 2.576 3.11L56.006 58c1.427-.001 2.48-1.352 2.576-3.072.177-2.071.282-2.55.319-4.54.03-.45.041-.888.035-1.304l.012-.043a2.2 2.2 0 0 0 .037-.649L51.457 6.65c-.179-.705-.441-1.138-1.062-1.369-.381-.19-.852-.28-1.395-.28H32zm18 38.982a13.526 21.831 0 0 1 6.977 3.176h-13.96A13.526 21.831 0 0 1 32 43.982" filter="url(#b)" opacity=".35" transform="scale(.26458)"/><path fill="url(#c)" stroke="#000" stroke-opacity=".196" stroke-width=".265" d="M1.6 12.477c-.248.043-.242.45-.215.855.01.526.037.653.084 1.2.025.456.302.824.678.824l12.639-.01c.375 0 .652-.358.678-.814.046-.547.074-.674.084-1.2.027-.406.032-.812-.216-.855H2.594z"/><path fill-rule="evenodd" d="M6.771 45.307c-.607 0-1.097.746-1.097 1.672v2.646c0 .926.49 1.672 1.097 1.672h15.867A9.864 5.113 0 0 1 32 47.786a9.864 5.113 0 0 1 9.353 3.511h15.875c.608 0 1.098-.746 1.098-1.672V46.98c0-.926-.49-1.672-1.098-1.672z" filter="url(#d)" opacity=".35" style="paint-order:stroke fill markers" transform="scale(.26458)"/><path fill-rule="evenodd" d="M31.855 47a10.294 5.798 0 0 0-9.771 4h2.502a10.294 5.798 0 0 1 7.269-1.7 10.294 5.798 0 0 1 7.258 1.7h2.521a10.294 5.798 0 0 0-9.779-4" filter="url(#e)" opacity=".35" style="paint-order:stroke fill markers" transform="translate(0 -.265)scale(.26458)"/><path fill="url(#f)" d="M8.466 11.522a3.579 6.132 0 0 0-2.62 1.968h.232a2.724 1.629 0 0 1 2.389-.847 2.724 1.629 0 0 1 2.385.847h.237a3.579 6.132 0 0 0-2.622-1.968z"/><path fill="#b2b2b2" d="M3.704 1.323a.8.8 0 0 0-.369.074c-.164.06-.234.175-.281.362L1.327 12.804a.57.57 0 0 0 .083.356.65.65 0 0 0 .267.248l.03.015a.7.7 0 0 0 .304.067h3.835a3.579 5.776 0 0 1 2.62-1.853 3.579 5.776 0 0 1 2.623 1.853h3.833a.71.71 0 0 0 .6-.33 1 1 0 0 0 .045-.09l.012-.03a.6.6 0 0 0 .027-.236L13.614 1.76c-.047-.187-.117-.302-.28-.363a.8.8 0 0 0-.37-.074z"/><path fill="#d8d8d8" d="M4.054 1.78a.8.8 0 0 0-.342.067c-.152.055-.216.158-.26.325l-1.6 9.912a.5.5 0 0 0 .077.319.6.6 0 0 0 .119.137.7.7 0 0 0 .157.099.7.7 0 0 0 .28.06h3.553a3.316 5.183 0 0 1 2.429-1.663 3.316 5.183 0 0 1 2.43 1.664h3.55c.23 0 .446-.12.557-.297a1 1 0 0 0 .041-.08l.011-.028a.5.5 0 0 0 .025-.212l-1.845-9.91c-.044-.168-.108-.27-.26-.326a.8.8 0 0 0-.342-.066H8.467z" clip-path="url(#g)" filter="url(#h)" transform="matrix(1.0237 0 0 1.1453 -.2 -.258)"/><path d="M32 43.549a13.526 23.175 0 0 0-9.906 7.438h.297a13.526 23.175 0 0 1 9.61-6.92 13.526 23.175 0 0 1 9.603 6.92h.308A13.526 23.175 0 0 0 32 43.548z" filter="url(#i)" opacity=".15" transform="scale(.26458)"/><path fill="url(#j)" d="M3.704 1.322a.8.8 0 0 0-.368.074c-.165.06-.234.175-.282.362L1.327 12.803a.57.57 0 0 0 .084.356.65.65 0 0 0 .267.248l.03.015a.7.7 0 0 0 .304.067h3.834a3.579 5.776 0 0 1 2.62-1.853 3.579 5.776 0 0 1 2.623 1.853h3.833a.71.71 0 0 0 .601-.33 1 1 0 0 0 .045-.09l.011-.03a.6.6 0 0 0 .027-.236L13.615 1.759c-.048-.187-.117-.302-.281-.363a.8.8 0 0 0-.37-.074H8.468z"/><g fill-rule="evenodd"><rect width="12.7" height="1.058" x="2.117" y="14.023" filter="url(#k)" opacity=".1" rx=".265" ry=".295" style="paint-order:stroke fill markers" transform="matrix(1.0417 0 0 .96682 -.353 .5)"/><circle cx="14.155" cy="14.42" r=".397" fill="url(#l)" style="paint-order:stroke fill markers"/><circle cx="14.155" cy="14.328" r=".27" fill="#fff" filter="url(#m)" opacity=".36" style="paint-order:stroke fill markers"/><circle cx="12.964" cy="14.42" r=".265" fill="url(#n)" style="paint-order:stroke fill markers"/><circle cx="11.906" cy="14.42" r=".265" fill="url(#o)" style="paint-order:stroke fill markers"/></g></svg>