<svg width="64" height="64" viewBox="0 0 16.933 16.933" xmlns="http://www.w3.org/2000/svg" xmlns:xlink="http://www.w3.org/1999/xlink"><defs><linearGradient id="b" x1="-23.585" x2="28.501" y1="124.84" y2="170.24" gradientTransform="translate(12.941 235.25) scale(.25202)" gradientUnits="userSpaceOnUse"><stop stop-color="#333" offset="0"/><stop stop-color="#1a1a1a" offset="1"/></linearGradient><linearGradient id="a"><stop stop-color="#6a6a6a" offset="0"/><stop stop-color="#0d0d0d" offset="1"/></linearGradient><radialGradient id="c" cx="-74.104" cy="276.04" r="5.603" gradientTransform="matrix(1.0755 -1.109 1.1794 1.1438 -318.67 -120.38)" gradientUnits="userSpaceOnUse" xlink:href="#a"/></defs><g transform="matrix(.52631 0 0 .52674 -.45 -138.77)" stroke-width="1.976"><g fill="#262626"><path fill-opacity=".997" d="M26.297 263.44h1.378v.206h-1.378z"/><path d="M29.189 267.78h.434v.448h-.434z"/><rect x="29.189" y="269.29" width=".434" height="1.012" ry=".104"/><rect x="29.189" y="270.93" width=".434" height="1.012" ry=".104"/></g><rect x="4.459" y="263.68" width="24.95" height="31.71" ry="1.438" fill="#b2b2b2" fill-opacity=".983" stroke="gray" stroke-linecap="round" stroke-linejoin="round" stroke-width=".101"/><rect x="4.711" y="264" width="24.445" height="31.07" ry="1.409"/><rect x="6.997" y="266.71" width="19.872" height="25.65" ry="0" fill="url(#b)"/><g transform="translate(-30.285 268.56) scale(.12733)"><circle cx="-73.293" cy="269.83" r="5.603" transform="translate(446.63 -80.455) scale(1.0342)" fill="url(#c)"/><rect x="368.87" y="196.83" width="3.934" height="3.54" ry=".866" fill="#1a1a1a" fill-opacity=".983" stroke="#b4b4b5" stroke-linecap="round" stroke-linejoin="round" stroke-width=".981"/></g></g></svg>