<svg width="16px" height="16px" version="1.1" viewBox="0 0 16 16" xmlns="http://www.w3.org/2000/svg">
 <path d="m12.845 12.843c-1.7643 1.7606-4.1796 2.7107-6.6706 2.624-0.68815-0.08325-0.64636-0.96401 0.034527-1.0013 2.2137 0.07764 4.3604-0.76602 5.9289-2.3299 1.5683-1.572 2.4128-3.725 2.3312-5.9441 0.01863-0.64839 0.93976-0.68431 0.99437-0.035908 0.09277 2.4958-0.85562 4.9179-2.6185 6.6871zm-2.1227-2.1227c-1.3719 1.3692-3.2502 2.1083-5.1873 2.0412-0.79358-0.03714-0.68846-1.0069 0.034527-1.0013 1.6598 0.05805 3.2695-0.57453 4.4457-1.7471 1.1763-1.179 1.8109-2.7924 1.7498-4.4567-0.01564-0.64671 0.93349-0.68818 0.99575-0.034527 0.0717 1.9407-0.66752 3.8227-2.0385 5.1983zm-2.1199-2.1199c-0.98013 0.9777-2.3219 1.5053-3.7054 1.457-0.71746-0.019276-0.6612-0.97237 0.033146-0.99989 1.1069 0.039202 2.1806-0.38239 2.9652-1.1642 0.7842-0.78601 1.2064-1.8626 1.1656-2.9721-0.030165-0.63818 0.91342-0.71604 0.99713-0.035908 0.0513 1.3867-0.47602 2.7323-1.4556 3.7151zm-6.364 0.70711v-4.2426l-1.4142-1.4142c-0.39174-0.39174-0.39174-1.0225 0-1.4142l1.4142-1.4142c0.39174-0.39174 1.0225-0.39174 1.4142 0l1.4142 1.4142h4.2426z" fill="#363636"/>
</svg>
