<svg width="16px" height="16px" version="1.1" viewBox="0 0 16 16" xmlns="http://www.w3.org/2000/svg">
 <path d="m6 1c-1.108 0-2 0.892-2 2v4c0 1.108 0.892 2 2 2h4c1.108 0 2-0.892 2-2v-4c0-1.108-0.892-2-2-2h-4zm0 1h4c0.55415 0 1 0.44585 1 1v4c0 0.55415-0.44585 1-1 1h-4c-0.55415 0-1-0.44585-1-1v-4c0-0.55415 0.44585-1 1-1z" fill="#363636"/>
 <path d="m8 16c-2.4925-0.0026-4.8722-1.0386-6.5723-2.8613-0.42773-0.54546 0.22461-1.1387 0.73242-0.68359 1.5104 1.6202 3.6249 2.5416 5.8398 2.5449 2.2205-0.0026 4.3401-0.92792 5.8516-2.5547 0.47165-0.44531 1.1484 0.18063 0.72852 0.67773-1.6992 1.8304-4.0825 2.8725-6.5801 2.877zm0-3.002c-1.9383-0.0019-3.789-0.8074-5.1113-2.2246-0.53488-0.58741 0.22518-1.1988 0.73242-0.68359 1.1326 1.2147 2.7181 1.9056 4.3789 1.9082 1.6654-0.0019 3.2551-0.694 4.3887-1.9141 0.44623-0.46835 1.1467 0.17346 0.72852 0.67969-1.3216 1.423-3.1751 2.2311-5.1172 2.2344z" fill="#363636"/>
</svg>
