<svg width="16" height="16" version="1.1" xmlns="http://www.w3.org/2000/svg">
 <defs>
  <style id="current-color-scheme" type="text/css">.ColorScheme-Text { color:#363636; } .ColorScheme-Highlight { color:#5294e2; }</style>
 </defs>
 <path class="ColorScheme-Text" d="m8 0c-1.662 0-3 1.338-3 3v6.0254c0 1.662 1.338 3 3 3s3-1.338 3-3v-6.0254c0-1.662-1.338-3-3-3zm0 1c1.108 0 2 0.892 2 2v6.0254c0 1.108-0.892 2-2 2s-2-0.892-2-2v-6.0254c0-1.108 0.892-2 2-2zm-4.5 6.0234v0.0019531c-0.277 0-0.5 0.223-0.5 0.5v1.5c0 2.6 1.967 4.7246 4.5 4.9746v1.0234h-2a0.5 0.5 0 0 0 0 1h5a0.5 0.5 0 0 0 0-1h-2v-1.0254a4.988 4.988 0 0 0 4.5-4.9746v-1.5a0.5 0.5 0 0 0-1 0v1.5c0 2.216-1.784 4-4 4-2.216 0-4-1.784-4-4v-1.5c0-0.277-0.223-0.5-0.5-0.5z" fill="currentColor"/>
</svg>
