<svg width="16" height="16" version="1.1" xmlns="http://www.w3.org/2000/svg">
 <defs>
  <style id="current-color-scheme" type="text/css">
   .ColorScheme-Text { color:#363636; } .ColorScheme-Highlight { color:#5294e2; }
  </style>
 </defs>
<g style="fill:currentColor" class="ColorScheme-Text" >
<path d="M15 8c0-3.225-1.205-5.982-2.946-7.25l-1.155 1.04c1.5 1.062 2.542 3.453 2.542 6.21s-1.043 5.148-2.542 6.21l1.155 1.04C13.795 13.982 15 11.225 15 8z"/>
<path d="M11.939 8c0-2.18-.83-4.085-2.08-5.285l-1.069.953C9.756 4.694 10.379 6.25 10.379 8s-.623 3.306-1.589 4.332l1.07.953c1.25-1.2 2.079-3.104 2.079-5.285z"/>
<path d="M8.993 8c0-1.326-.44-2.542-1.156-3.495l-1.097.982a4.9 4.9 0 0 1 0 5.026l1.097.982A5.814 5.814 0 0 0 8.993 8zM0 6v4h1.652L5 13.37V2.63L1.652 6z"/>
</g>
</svg>
