<svg width="16px" height="16px" version="1.1" viewBox="0 0 16 16" xmlns="http://www.w3.org/2000/svg">
 <path d="m3.1575 3.155c-1.7606 1.7643-2.7108 4.1796-2.6241 6.6706 0.083248 0.68815 0.96401 0.64636 1.0013-0.034528-0.07764-2.2137 0.76601-4.3604 2.3298-5.9289 1.572-1.5683 3.7251-2.4128 5.9442-2.3313 0.64839-0.018625 0.68432-0.93977 0.035914-0.99437-2.4958-0.092772-4.9179 0.8556-6.6872 2.6185zm2.1227 2.1227c-1.3692 1.3719-2.1083 3.2501-2.0412 5.1873 0.037144 0.79358 1.0069 0.68845 1.0013-0.034528-0.058054-1.6598 0.57452-3.2694 1.747-4.4457 1.179-1.1763 2.7924-1.811 4.4568-1.7498 0.64671 0.015641 0.68818-0.93349 0.034528-0.99575-1.9407-0.071701-3.8228 0.66751-5.1984 2.0384zm2.1199 2.1199c-0.9777 0.98013-1.5053 2.3219-1.4571 3.7054 0.019276 0.71746 0.97236 0.66119 0.99989-0.033149-0.039202-1.1069 0.3824-2.1806 1.1643-2.9651 0.78601-0.7842 1.8626-1.2064 2.972-1.1657 0.63818 0.030165 0.71604-0.91342 0.035907-0.99713-1.3867-0.051301-2.7323 0.47595-3.7151 1.4556zm-0.70711 6.364h4.2426l1.4142 1.4142c0.39174 0.39174 1.0225 0.39174 1.4142 0l1.4142-1.4142c0.39174-0.39174 0.39174-1.0225 0-1.4142l-1.4142-1.4142v-4.2426z" fill="#363636"/>
</svg>
