<svg width="16px" height="16px" version="1.1" viewBox="0 0 16 16" xmlns="http://www.w3.org/2000/svg">
 <path d="m8 16c-2.4925-0.0026-4.8722-1.0386-6.5723-2.8613-0.42773-0.54546 0.22461-1.1387 0.73242-0.68359 1.5104 1.6202 3.6249 2.5416 5.8398 2.5449 2.2205-0.0026 4.3401-0.92792 5.8516-2.5547 0.47165-0.44531 1.1484 0.18063 0.72852 0.67773-1.6992 1.8304-4.0825 2.8725-6.5801 2.877zm0-3.002c-1.9383-0.0019-3.789-0.8074-5.1113-2.2246-0.53488-0.58741 0.22518-1.1988 0.73242-0.68359 1.1326 1.2147 2.7181 1.9056 4.3789 1.9082 1.6654-0.0019 3.2551-0.694 4.3887-1.9141 0.44623-0.46835 1.1467 0.17346 0.72852 0.67969-1.3216 1.423-3.1751 2.2311-5.1172 2.2344zm0-2.998c-1.3844-0.00172-2.7062-0.57742-3.6504-1.5898-0.49369-0.52095 0.22003-1.1551 0.73047-0.68359 0.75501 0.81045 1.8123 1.2715 2.9199 1.2734 1.1103-0.00128 2.1701-0.464 2.9258-1.2773 0.42993-0.47259 1.1522 0.13957 0.73047 0.67969-0.94425 1.0168-2.2686 1.5955-3.6562 1.5977zm-5-4 3-3v-2c0-0.554 0.446-1 1-1h2c0.554 0 1 0.446 1 1v2l3 3z" fill="#363636"/>
</svg>
