<svg width="16" height="16" version="1.1" xmlns="http://www.w3.org/2000/svg">
 <defs>
  <style id="current-color-scheme" type="text/css">
   .ColorScheme-Text { color:#363636; } .ColorScheme-Highlight { color:#5294e2; }
  </style>
 </defs>
<path style="fill:currentColor" class="ColorScheme-Text" d="M3 2.003v11c0 .834.564 1.526 1.053 1.77.488.244.947.23.947.23h7s.459.014.947-.23c.489-.244 1.053-.936 1.053-1.77V4.558l-.324-.324-1.906-1.906-.325-.325H11zm1 1h1v2h1v-2h1v2h1v-2h1v2h1v-2h1.031l.031.032 1.906 1.906.031.031v8.031c0 1-1 1-1 1h-7s-1 0-1-1z"/>
</svg>
