<svg xmlns="http://www.w3.org/2000/svg" width="64" height="64" viewBox="0 0 16.933 16.933"><defs><linearGradient id="d" x1="379.24" x2="374.24" y1="546.85" y2="546.85" gradientTransform="translate(-203.64 -300.16)scale(.56696)" gradientUnits="userSpaceOnUse"><stop offset="0" stop-color="#f6f5f4"/><stop offset=".6" stop-color="#fff"/><stop offset="1" stop-color="#dddbd8"/></linearGradient><linearGradient id="b" x1="7.937" x2="7.937" y1="15.081" y2="1.852" gradientTransform="translate(.908 .915)scale(.89277)" gradientUnits="userSpaceOnUse"><stop offset="0" stop-color="#f1efeb"/><stop offset="1" stop-color="#fff"/></linearGradient><linearGradient id="a" x1="7.937" x2="7.937" y1="15.081" y2="1.852" gradientTransform="translate(-.004 .008)" gradientUnits="userSpaceOnUse"><stop offset="0" stop-color="#932625"/><stop offset="1" stop-color="#dd4c4b"/></linearGradient><linearGradient id="h" x1="5.821" x2="5.821" y1="2.117" y2="10.848" gradientUnits="userSpaceOnUse"><stop offset="0" stop-color="#dd4c4b"/><stop offset="1" stop-color="#932625"/></linearGradient><linearGradient id="f" x1="8.467" x2="8.467" y1="-2.92" y2="19.84" gradientTransform="translate(9.021 9.024)scale(.37199)" gradientUnits="userSpaceOnUse"><stop offset="0" stop-color="#ccc"/><stop offset="1" stop-color="#ebebeb"/></linearGradient><linearGradient id="g" x1="12.435" x2="12.435" y1="13.758" y2="9.789" gradientTransform="translate(0 .265)" gradientUnits="userSpaceOnUse"><stop offset="0" stop-color="#2e2e2e"/><stop offset="1" stop-color="#5c5c5c"/></linearGradient><linearGradient id="c" x1="376.35" x2="374.24" y1="546.85" y2="546.85" gradientTransform="matrix(-.56696 0 0 .56696 220.57 -300.16)" gradientUnits="userSpaceOnUse"><stop offset="0" stop-opacity="0"/><stop offset=".6" stop-opacity="0"/><stop offset="1" stop-opacity=".05"/></linearGradient><radialGradient id="e" cx="12.171" cy="12.171" r="4.762" gradientUnits="userSpaceOnUse"><stop offset="0"/><stop offset="1" stop-opacity="0"/></radialGradient></defs><g color="#000"><path d="M4.37.53C2.254.53.53 2.312.53 4.496v8.468c0 2.184 1.725 3.968 3.84 3.968h8.194c2.114 0 3.84-1.783 3.84-3.968V4.497c0-2.184-1.726-3.968-3.84-3.968zm.256.52h7.681c1.844 0 3.33 1.534 3.33 3.44v7.937c0 1.906-1.485 3.44-3.33 3.44h-7.68c-1.845 0-3.33-1.534-3.33-3.44V4.49c0-1.906 1.485-3.44 3.33-3.44z" opacity=".01" style="font-feature-settings:normal;font-variant-alternates:normal;font-variant-caps:normal;font-variant-east-asian:normal;font-variant-ligatures:normal;font-variant-numeric:normal;font-variant-position:normal;font-variation-settings:normal;inline-size:0;isolation:auto;mix-blend-mode:normal;shape-margin:0;shape-padding:0;text-decoration-color:#000;text-decoration-line:none;text-decoration-style:solid;text-indent:0;text-orientation:mixed;text-transform:none;white-space:normal"/><path d="M4.359.794C2.392.794.795 2.447.795 4.48v8.5c0 2.035 1.597 3.688 3.564 3.688h8.216c1.967 0 3.564-1.653 3.564-3.688v-8.5c0-2.034-1.597-3.687-3.564-3.687zm.272.256h7.672c1.842 0 3.325 1.534 3.325 3.44v7.937c0 1.906-1.483 3.44-3.325 3.44H4.63c-1.842 0-3.325-1.534-3.325-3.44V4.49c0-1.906 1.483-3.44 3.325-3.44z" opacity=".01" style="font-feature-settings:normal;font-variant-alternates:normal;font-variant-caps:normal;font-variant-east-asian:normal;font-variant-ligatures:normal;font-variant-numeric:normal;font-variant-position:normal;font-variation-settings:normal;inline-size:0;isolation:auto;mix-blend-mode:normal;shape-margin:0;shape-padding:0;text-decoration-color:#000;text-decoration-line:none;text-decoration-style:solid;text-indent:0;text-orientation:mixed;text-transform:none;white-space:normal"/><path d="M4.31 1.058c-1.866 0-3.375 1.539-3.375 3.44v8.467c0 1.9 1.57 3.439 3.435 3.439h8.2c1.866 0 3.427-1.538 3.427-3.44V4.498c0-1.9-1.51-3.439-3.375-3.439h-.097c1.794.087 3.214 1.582 3.214 3.432v7.937c0 1.906-1.506 3.44-3.377 3.44h-7.79c-1.871 0-3.377-1.534-3.377-3.44V4.49c0-1.85 1.42-3.345 3.214-3.432z" opacity=".03" style="font-feature-settings:normal;font-variant-alternates:normal;font-variant-caps:normal;font-variant-east-asian:normal;font-variant-ligatures:normal;font-variant-numeric:normal;font-variant-position:normal;font-variation-settings:normal;inline-size:0;isolation:auto;mix-blend-mode:normal;shape-margin:0;shape-padding:0;text-decoration-color:#000;text-decoration-line:none;text-decoration-style:solid;text-indent:0;text-orientation:mixed;text-transform:none;white-space:normal"/><path d="M4 46.969V49c0 6.648 5.896 12 12.544 12h30.961C54.153 61 60 55.648 60 49v-1.992a12.97 12.97 0 0 1-13 12.963H17.002A12.973 12.973 0 0 1 4 46.969" opacity=".03" style="font-feature-settings:normal;font-variant-alternates:normal;font-variant-caps:normal;font-variant-east-asian:normal;font-variant-ligatures:normal;font-variant-numeric:normal;font-variant-position:normal;font-variation-settings:normal;inline-size:0;isolation:auto;mix-blend-mode:normal;shape-margin:0;shape-padding:0;text-decoration-color:#000;text-decoration-line:none;text-decoration-style:solid;text-indent:0;text-orientation:mixed;text-transform:none;white-space:normal" transform="scale(.26458)"/><path d="M1.058 11.906v.592c0 1.939 1.573 3.5 3.332 3.5h8.16c1.76 0 3.325-1.561 3.325-3.5v-.58c-.006 2.095-1.537 3.78-3.44 3.78H4.498c-1.905 0-3.44-1.692-3.44-3.792" opacity=".05" style="font-feature-settings:normal;font-variant-alternates:normal;font-variant-caps:normal;font-variant-east-asian:normal;font-variant-ligatures:normal;font-variant-numeric:normal;font-variant-position:normal;font-variation-settings:normal;inline-size:0;isolation:auto;mix-blend-mode:normal;shape-margin:0;shape-padding:0;text-decoration-color:#000;text-decoration-line:none;text-decoration-style:solid;text-indent:0;text-orientation:mixed;text-transform:none;white-space:normal"/></g><path fill="url(#a)" d="M4.495 1.058a3.43 3.43 0 0 0-3.44 3.44v7.937a3.43 3.43 0 0 0 3.44 3.44h7.936a3.43 3.43 0 0 0 3.44-3.44V4.498a3.43 3.43 0 0 0-3.44-3.44z"/><rect width="13.228" height="13.228" x="1.853" y="1.852" fill="url(#b)" rx="2.646" ry="2.646"/><path fill="url(#c)" d="M4.499 1.852a2.64 2.64 0 0 0-2.646 2.646v7.937a2.64 2.64 0 0 0 2.646 2.645h3.968V1.852z"/><circle cx="8.472" cy="8.478" r="7.938" fill="none"/><path fill="url(#d)" d="M12.435 1.852a2.64 2.64 0 0 1 2.646 2.646v7.937a2.64 2.64 0 0 1-2.646 2.645H8.467V1.852z"/><g stroke-width=".265"><rect width="4.498" height=".132" x="9.525" y="3.704" opacity=".1" rx="0" ry="0"/><rect width="4.498" height=".132" x="9.525" y="4.762" opacity=".1" rx="0" ry="0"/><rect width="4.498" height=".132" x="9.525" y="5.821" opacity=".1" rx="0" ry="0"/><rect width="4.498" height=".132" x="9.525" y="6.879" opacity=".1" rx="0" ry="0"/><rect width="4.498" height=".132" x="9.525" y="7.937" opacity=".1" rx="0" ry="0"/><rect width="4.498" height=".132" x="9.525" y="8.996" opacity=".1" rx="0" ry="0"/></g><circle cx="12.171" cy="12.171" r="4.762" fill="url(#e)"/><g stroke-width=".265" transform="translate(0 .265)"><rect width="4.498" height=".132" x="9.525" y="10.054" opacity=".1" rx="0" ry="0"/><rect width="4.498" height=".132" x="9.525" y="11.112" opacity=".1" rx="0" ry="0"/><rect width="4.498" height=".132" x="9.525" y="12.171" opacity=".1" rx="0" ry="0"/><rect width="4.498" height=".132" x="9.525" y="13.229" opacity=".1" rx="0" ry="0"/></g><circle cx="12.171" cy="12.171" r="4.233" fill="url(#f)"/><path fill="#fff" d="M13.914 13.85a.9.9 0 0 0 .43-.225l.086-.085.032.07c.078.164.241.252.469.252a.8.8 0 0 0 .34-.07l.075-.034v-.161l-.06.01c-.12.018-.22-.022-.268-.108l-.029-.052-.012-1.425-.032-.095a.64.64 0 0 0-.342-.391c-.404-.2-1.124-.125-1.419.148-.198.183-.198.439 0 .548.055.03.076.034.152.034a.25.25 0 0 0 .15-.034c.177-.097.201-.316.05-.453-.045-.04-.047-.044-.025-.056.104-.055.38-.075.539-.04a.47.47 0 0 1 .264.173c.067.1.09.198.09.398v.174l-.326.073c-.18.04-.369.084-.42.098a2 2 0 0 0-.376.154.9.9 0 0 0-.246.23.63.63 0 0 0-.026.544.64.64 0 0 0 .43.33c.102.024.349.02.474-.007m-.105-.285a.36.36 0 0 1-.263-.295.42.42 0 0 1 .117-.382c.055-.05.2-.125.304-.157.082-.025.395-.096.425-.096.017 0 .019.041.019.368v.368l-.063.062a.5.5 0 0 1-.393.148.7.7 0 0 1-.146-.016m-3.442.18v-.08l-.044-.008c-.334-.057-.357-.126-.2-.584l.112-.33.03-.085 1.157.006.098.28c.147.421.164.499.128.584-.026.061-.108.1-.279.129l-.043.007v.163h1.425v-.161l-.086-.02a.4.4 0 0 1-.254-.156c-.067-.095-.067-.096-.585-1.515l-.349-.953-.175-.479-.044-.122-.443-.007-.518 1.412c-.285.776-.535 1.452-.557 1.502q-.08.19-.176.253a.5.5 0 0 1-.191.07c-.05 0-.058.012-.058.096v.08h1.052zm-.023-1.306c0-.008.457-1.351.486-1.428.008-.02-.002-.049.273.742.116.334.22.627.229.651l.017.044h-.503c-.276 0-.502-.004-.502-.01z"/><path fill="url(#g)" d="M13.859 13.781a.9.9 0 0 0 .43-.225l.086-.085.032.07c.078.164.241.252.469.252a.8.8 0 0 0 .34-.07l.075-.034v-.161l-.06.01c-.12.018-.22-.022-.268-.108l-.029-.052-.012-1.425-.032-.095a.64.64 0 0 0-.342-.391c-.404-.2-1.124-.125-1.419.148-.198.183-.198.439 0 .548.055.03.076.034.152.034a.25.25 0 0 0 .15-.034c.177-.097.201-.316.05-.453-.045-.04-.047-.044-.025-.056.104-.055.38-.075.539-.04a.47.47 0 0 1 .264.173c.067.1.09.198.09.398v.174l-.326.073c-.18.04-.369.084-.42.098a2 2 0 0 0-.376.154.9.9 0 0 0-.246.23.63.63 0 0 0-.026.544.64.64 0 0 0 .43.33c.102.024.349.02.474-.007m-.105-.285a.36.36 0 0 1-.263-.295.42.42 0 0 1 .117-.382c.055-.05.2-.125.304-.157.082-.025.395-.096.425-.096.017 0 .019.041.019.368v.368l-.063.063a.5.5 0 0 1-.393.147.7.7 0 0 1-.146-.016m-3.442.18v-.08l-.044-.008c-.334-.057-.357-.126-.2-.584l.112-.33.03-.085 1.157.006.098.28c.147.421.164.499.128.584-.026.061-.108.1-.279.129l-.043.007v.163h1.425v-.161l-.086-.02a.4.4 0 0 1-.254-.156c-.067-.095-.067-.096-.585-1.515l-.349-.953-.175-.479-.044-.122-.443-.007-.518 1.412c-.285.776-.535 1.452-.557 1.502q-.08.19-.176.253a.5.5 0 0 1-.191.07c-.05 0-.058.012-.058.096v.08h1.052zm-.023-1.306c0-.008.457-1.351.486-1.428.008-.02-.002-.049.273.742.116.334.22.627.229.651l.017.044h-.503c-.276 0-.502-.004-.502-.01z"/><g stroke-linecap="round" stroke-linejoin="round"><g stroke="#000"><path stroke-width="1.058" d="M4.285 2.048H7.46v8.996L5.873 9.721l-1.588 1.323z" opacity=".01"/><path stroke-width=".794" d="M4.285 2.048H7.46v8.996L5.873 9.721l-1.588 1.323z" opacity=".02"/><path stroke-width=".529" d="M4.285 2.048H7.46v8.996L5.873 9.721l-1.588 1.323z" opacity=".03"/><path stroke-width=".265" d="M4.285 2.048H7.46v8.996L5.873 9.721l-1.588 1.323z" opacity=".04"/></g><path d="M4.285 2.048H7.46v8.996L5.873 9.721l-1.588 1.323z" opacity=".05"/></g><path fill="url(#h)" d="M4.233 1.253h3.175v9.595L5.821 9.525l-1.588 1.323z"/><path fill="#fff" d="m10.76 10.346-.518 1.411c-.285.777-.535 1.453-.557 1.503q-.081.189-.177.253a.5.5 0 0 1-.19.07c-.05 0-.058.012-.058.095v.08h.056v-.01c0-.084.007-.096.057-.096a.5.5 0 0 0 .19-.07q.098-.063.177-.253c.022-.05.273-.727.558-1.503l.517-1.411.413.005-.026-.068zm-.003.46c.007.004-.006-.001-.007.004l-.01.027c.034.094.176.469.308.847.116.335.22.628.229.652l.017.043h-.503c-.233 0-.52-.005-.576-.01l-.023.068c0 .005.378.012.654.012h.503l-.017-.044c-.01-.024-.112-.318-.229-.652-.206-.593-.368-.958-.346-.947m3.243.549c-.336-.003-.686.09-.87.26-.176.163-.196.382-.06.506-.07-.126-.032-.301.115-.437.294-.272 1.015-.347 1.419-.147q.115.058.193.141a.64.64 0 0 0-.249-.21 1.3 1.3 0 0 0-.548-.113m-.497.38c-.003.007.003.017.033.044a.3.3 0 0 0-.033-.044m.764.068c.06.095.082.193.083.383v.173l-.328.073c-.18.04-.368.085-.419.099a2 2 0 0 0-.376.153.9.9 0 0 0-.246.23.63.63 0 0 0-.026.544.6.6 0 0 0 .101.14q-.025-.034-.046-.07a.63.63 0 0 1 .026-.545.9.9 0 0 1 .246-.23c.083-.048.253-.118.377-.153.05-.014.239-.059.419-.099l.327-.072v-.175c0-.2-.024-.298-.091-.397a.4.4 0 0 0-.047-.054m.099.695-.04.01c.002.052.03.272.03.426v.368l-.063.063a.5.5 0 0 1-.393.147.7.7 0 0 1-.146-.015.4.4 0 0 1-.154-.09.36.36 0 0 0 .209.159.7.7 0 0 0 .146.015c.17.002.29-.044.393-.147l.063-.063v-.367c0-.327-.03-.506-.045-.506m-3.012.051.111.328c.147.42.164.497.128.582-.026.062-.108.1-.278.13l-.044.007v.163h.055v-.094l.043-.008c.17-.029.254-.067.28-.129.035-.085.018-.162-.129-.583l-.135-.396zm1.045.922.012.02q.082.117.254.156l.031.007v-.057l-.086-.019a.43.43 0 0 1-.211-.107m2.614.017.006.012c.048.086.148.126.267.107h.005v-.079l-.06.01a.27.27 0 0 1-.218-.05m-4.974.026c.027.08.113.113.273.14v-.058l-.044-.007a.6.6 0 0 1-.229-.075m4.391.027-.013.014q.033.061.082.108c-.012-.018-.027-.033-.036-.053z" opacity=".1"/><path d="m11.159 10.351.028.078.176.479.175.479.173.473c.517 1.42.518 1.42.585 1.516a.4.4 0 0 0 .104.097.3.3 0 0 1-.045-.052c-.066-.096-.067-.096-.585-1.515l-.173-.473-.175-.48-.175-.479-.045-.123zm-.42.485c-.004-.007-.005-.001-.007.004-.028.077-.518 1.52-.518 1.528 0 0 .065 0 .074.002.026-.082.438-1.296.489-1.44-.019-.051-.036-.085-.037-.094zm3.897.684c.089.076.153.17.194.292l.032.094.012 1.426.03.052q.032.054.088.082-.016-.016-.029-.036l-.03-.052-.012-1.426-.031-.094a.63.63 0 0 0-.254-.338m-.838.032c-.15-.007-.324.015-.401.056-.022.012-.021.015.023.056.152.137.129.356-.049.453-.053.03-.076.034-.15.034-.076 0-.097-.004-.151-.034l-.011-.008q.03.03.07.053c.054.03.076.035.15.035.076 0 .098-.005.152-.034.177-.098.2-.316.049-.453-.045-.04-.046-.044-.024-.056.104-.055.38-.076.538-.04a.5.5 0 0 1 .15.066.5.5 0 0 0-.21-.111 1 1 0 0 0-.136-.017m.527.955c-.03 0-.39.084-.473.109a1 1 0 0 0-.304.157.42.42 0 0 0-.117.381q.034.178.173.256a.37.37 0 0 1-.114-.21.42.42 0 0 1 .118-.381c.055-.05.199-.125.304-.157a6 6 0 0 1 .428-.1c-.002-.044-.007-.055-.015-.055m-4.176.036-.029.085-.113.33c-.115.34-.132.464.002.53-.063-.076-.036-.21.058-.484l.113-.33.029-.085 1.16.005-.016-.046zm4.206.885-.113.114c-.093.094-.28.157-.443.193a1.4 1.4 0 0 1-.473.006.7.7 0 0 1-.226-.102.7.7 0 0 0 .285.148c.102.025.349.021.474-.006a.9.9 0 0 0 .43-.225l.087-.088-.001-.002zm.935.1-.06.009v.106l-.073.035a.8.8 0 0 1-.341.069.6.6 0 0 1-.29-.064c.087.07.203.11.35.11a.8.8 0 0 0 .34-.07l.074-.034zm-.765.155q-.024-.017-.045-.035.021.019.045.035m-1.888-.1v.129H11.27v.046h1.426v-.161zm-2.385.002v.127H9.26v.046h1.052v-.163l-.044-.007z" opacity=".5"/></svg>