<svg width="64" height="64" xmlns="http://www.w3.org/2000/svg"><defs><linearGradient id="a" x1="-133.39" x2="-133.39" y1="135.31" y2="34.648" gradientTransform="translate(98.269 -9.95) scale(.49622)" gradientUnits="userSpaceOnUse"><stop stop-color="#852ec0" offset="0"/><stop stop-color="#d26ef7" offset="1"/></linearGradient></defs><g color="#000"><path d="M4.37.53C2.254.53.53 2.312.53 4.496v8.468c0 2.184 1.725 3.968 3.84 3.968h8.194c2.114 0 3.84-1.783 3.84-3.968V4.497c0-2.184-1.726-3.968-3.84-3.968zm.256.52h7.681c1.844 0 3.33 1.534 3.33 3.44v7.937c0 1.906-1.485 3.44-3.33 3.44h-7.68c-1.845 0-3.33-1.534-3.33-3.44V4.49c0-1.906 1.485-3.44 3.33-3.44z" opacity=".01" style="font-feature-settings:normal;font-variant-alternates:normal;font-variant-caps:normal;font-variant-east-asian:normal;font-variant-ligatures:normal;font-variant-numeric:normal;font-variant-position:normal;font-variation-settings:normal;inline-size:0;isolation:auto;mix-blend-mode:normal;shape-margin:0;shape-padding:0;text-decoration-color:#000;text-decoration-line:none;text-decoration-style:solid;text-indent:0;text-orientation:mixed;text-transform:none;white-space:normal" transform="scale(3.7796)"/><path d="M4.359.794C2.392.794.795 2.447.795 4.48v8.5c0 2.035 1.597 3.688 3.564 3.688h8.216c1.967 0 3.564-1.653 3.564-3.688v-8.5c0-2.034-1.597-3.687-3.564-3.687zm.272.256h7.672c1.842 0 3.325 1.534 3.325 3.44v7.937c0 1.906-1.483 3.44-3.325 3.44H4.63c-1.842 0-3.325-1.534-3.325-3.44V4.49c0-1.906 1.483-3.44 3.325-3.44z" opacity=".01" style="font-feature-settings:normal;font-variant-alternates:normal;font-variant-caps:normal;font-variant-east-asian:normal;font-variant-ligatures:normal;font-variant-numeric:normal;font-variant-position:normal;font-variation-settings:normal;inline-size:0;isolation:auto;mix-blend-mode:normal;shape-margin:0;shape-padding:0;text-decoration-color:#000;text-decoration-line:none;text-decoration-style:solid;text-indent:0;text-orientation:mixed;text-transform:none;white-space:normal" transform="scale(3.7796)"/><path d="M4.31 1.058c-1.866 0-3.375 1.539-3.375 3.44v8.467c0 1.9 1.57 3.439 3.435 3.439h8.2c1.866 0 3.427-1.538 3.427-3.44V4.498c0-1.9-1.51-3.439-3.375-3.439h-.097c1.794.087 3.214 1.582 3.214 3.432v7.937c0 1.906-1.506 3.44-3.377 3.44h-7.79c-1.871 0-3.377-1.534-3.377-3.44V4.49c0-1.85 1.42-3.345 3.214-3.432z" opacity=".03" style="font-feature-settings:normal;font-variant-alternates:normal;font-variant-caps:normal;font-variant-east-asian:normal;font-variant-ligatures:normal;font-variant-numeric:normal;font-variant-position:normal;font-variation-settings:normal;inline-size:0;isolation:auto;mix-blend-mode:normal;shape-margin:0;shape-padding:0;text-decoration-color:#000;text-decoration-line:none;text-decoration-style:solid;text-indent:0;text-orientation:mixed;text-transform:none;white-space:normal" transform="scale(3.7796)"/><path d="M4 46.969V49c0 6.648 5.896 12 12.544 12h30.961C54.153 61 60 55.648 60 49v-1.992a12.972 12.972 0 0 1-13 12.963H17.002A12.973 12.973 0 0 1 4 46.969z" opacity=".03" style="font-feature-settings:normal;font-variant-alternates:normal;font-variant-caps:normal;font-variant-east-asian:normal;font-variant-ligatures:normal;font-variant-numeric:normal;font-variant-position:normal;font-variation-settings:normal;inline-size:0;isolation:auto;mix-blend-mode:normal;shape-margin:0;shape-padding:0;text-decoration-color:#000;text-decoration-line:none;text-decoration-style:solid;text-indent:0;text-orientation:mixed;text-transform:none;white-space:normal"/><path d="M1.058 11.906v.592c0 1.939 1.573 3.5 3.332 3.5h8.16c1.76 0 3.325-1.561 3.325-3.5v-.58c-.006 2.095-1.537 3.78-3.44 3.78H4.498c-1.905 0-3.44-1.692-3.44-3.792z" opacity=".05" style="font-feature-settings:normal;font-variant-alternates:normal;font-variant-caps:normal;font-variant-east-asian:normal;font-variant-ligatures:normal;font-variant-numeric:normal;font-variant-position:normal;font-variation-settings:normal;inline-size:0;isolation:auto;mix-blend-mode:normal;shape-margin:0;shape-padding:0;text-decoration-color:#000;text-decoration-line:none;text-decoration-style:solid;text-indent:0;text-orientation:mixed;text-transform:none;white-space:normal" transform="scale(3.7796)"/></g><rect x="4" y="3.969" width="56.002" height="56.002" rx="13.002" ry="13.002" fill="url(#a)"/><g stroke="#000" stroke-linecap="round" stroke-linejoin="round"><path d="M86.794 12.008c-.851 0-1.702.023-2.11.07-5.003.569-9.1 2.636-12.635 6.377-2.379 2.517-4.006 5.554-4.878 9.103-.285 1.16-.36 1.669-.427 2.921-.07 1.288.002 3.516.15 4.64.213 1.628.85 3.712 1.7 5.56 1.571 3.415 4.108 6.29 7.39 8.374 1.036.658 3.143 1.737 4.023 2.062.266.098.314.097.398-.004.156-.189-.049-1.922-.28-2.374-.15-.29-.3-.406-.944-.727-3.529-1.761-6.334-4.613-8.122-8.256-.772-1.572-1.3-3.142-1.479-4.392-.201-1.409-.236-3.743-.083-5.54.137-1.605.601-3.191 1.454-4.967a18.082 18.082 0 0 1 5.507-6.726c2.3-1.722 5.03-2.87 7.722-3.247.7-.098 3.713-.135 4.634-.057 2.105.179 3.891.71 5.988 1.78 3.776 1.928 6.805 5.275 8.392 9.273.848 2.138 1.071 3.493 1.071 6.519 0 2.418-.13 3.38-.676 5.017a18.383 18.383 0 0 1-3.836 6.564c-1.379 1.521-3.435 3.09-5.18 3.953-.798.395-.948.527-1.105.973-.205.58-.342 2.057-.204 2.195.115.114.539-.043 1.77-.655 1.233-.612 2.904-1.584 3.674-2.138 3.544-2.55 6.356-6.613 7.522-10.868.481-1.757.579-2.497.621-4.734.036-1.874-.034-3.248-.212-4.14-.68-3.415-1.99-6.319-3.966-8.784-1.02-1.273-2.312-2.579-3.44-3.476-3.043-2.419-6.35-3.772-10.324-4.225-.411-.047-1.263-.071-2.114-.071zm-.058 6.687c-1.507.007-2.974.194-3.948.52-2.08.697-4.138 1.997-5.69 3.594a13.372 13.372 0 0 0-3.16 5.196c-.472 1.416-.619 2.606-.567 4.588.018.686.072 1.488.123 1.812.397 2.54 2.058 5.628 4.031 7.496.27.256.58.526.691.6.11.075.414.287.673.472s.5.328.532.317c.033-.01.076-.093.095-.183.02-.09.038-.73.042-1.423l.006-1.259-.648-.782c-1.382-1.668-2.156-3.104-2.597-4.815-1.081-4.191.446-8.564 3.947-11.302 1.654-1.293 3.638-2.022 6.153-2.26 1.274-.121 3.62.364 5.086 1.052 2.592 1.214 4.735 3.665 5.658 6.468.427 1.298.502 1.805.499 3.387-.002 1.269-.013 1.424-.152 2.072-.299 1.404-.899 2.84-1.66 3.975-.216.321-.697.95-1.069 1.395l-.675.811.017 1.382c.012 1.004.035 1.401.086 1.452.092.092.635-.28 1.385-.948 2.642-2.354 4.048-4.957 4.598-8.516.15-.965.136-2.76-.028-3.693-.253-1.437-.604-2.53-1.214-3.776-2.091-4.275-6.268-7.231-10.71-7.578a18.216 18.216 0 0 0-1.504-.054zm.102 7.192c-.89 0-1.021.012-1.438.14-1.171.36-2.29 1.351-2.84 2.514-.269.572-.37.986-.405 1.674-.053 1.041.198 2.038.71 2.818.299.454 1.1 1.247 1.583 1.565a4.78 4.78 0 0 0 3.82.652c1.66-.423 2.903-1.638 3.417-3.34.13-.432.149-.588.149-1.276 0-.687-.018-.843-.149-1.275-.513-1.7-1.723-2.884-3.42-3.35-.381-.104-.594-.122-1.427-.122zm-.126 11.276c-2.227.011-3.859.754-4.526 2.075-.333.66-.438 1.8-.332 3.622.176 3.045.904 8.55 1.378 10.42.345 1.362.84 2.172 1.634 2.677.312.198 1.011.426 1.524.498.618.086 1.605.023 2.107-.136 1.115-.352 1.743-1.11 2.134-2.576.345-1.294.963-5.91 1.275-9.512.122-1.414.124-3.429.004-4.02-.172-.843-.458-1.295-1.156-1.827-1.127-.858-2.002-1.153-3.588-1.213a10.523 10.523 0 0 0-.454-.008z" opacity=".01" stroke-width="5" style="paint-order:fill markers stroke" transform="translate(-54.787)"/><path d="M86.794 12.008c-.851 0-1.702.023-2.11.07-5.003.569-9.1 2.636-12.635 6.377-2.379 2.517-4.006 5.554-4.878 9.103-.285 1.16-.36 1.669-.427 2.921-.07 1.288.002 3.516.15 4.64.213 1.628.85 3.712 1.7 5.56 1.571 3.415 4.108 6.29 7.39 8.374 1.036.658 3.143 1.737 4.023 2.062.266.098.314.097.398-.004.156-.189-.049-1.922-.28-2.374-.15-.29-.3-.406-.944-.727-3.529-1.761-6.334-4.613-8.122-8.256-.772-1.572-1.3-3.142-1.479-4.392-.201-1.409-.236-3.743-.083-5.54.137-1.605.601-3.191 1.454-4.967a18.082 18.082 0 0 1 5.507-6.726c2.3-1.722 5.03-2.87 7.722-3.247.7-.098 3.713-.135 4.634-.057 2.105.179 3.891.71 5.988 1.78 3.776 1.928 6.805 5.275 8.392 9.273.848 2.138 1.071 3.493 1.071 6.519 0 2.418-.13 3.38-.676 5.017a18.383 18.383 0 0 1-3.836 6.564c-1.379 1.521-3.435 3.09-5.18 3.953-.798.395-.948.527-1.105.973-.205.58-.342 2.057-.204 2.195.115.114.539-.043 1.77-.655 1.233-.612 2.904-1.584 3.674-2.138 3.544-2.55 6.356-6.613 7.522-10.868.481-1.757.579-2.497.621-4.734.036-1.874-.034-3.248-.212-4.14-.68-3.415-1.99-6.319-3.966-8.784-1.02-1.273-2.312-2.579-3.44-3.476-3.043-2.419-6.35-3.772-10.324-4.225-.411-.047-1.263-.071-2.114-.071zm-.058 6.687c-1.507.007-2.974.194-3.948.52-2.08.697-4.138 1.997-5.69 3.594a13.372 13.372 0 0 0-3.16 5.196c-.472 1.416-.619 2.606-.567 4.588.018.686.072 1.488.123 1.812.397 2.54 2.058 5.628 4.031 7.496.27.256.58.526.691.6.11.075.414.287.673.472s.5.328.532.317c.033-.01.076-.093.095-.183.02-.09.038-.73.042-1.423l.006-1.259-.648-.782c-1.382-1.668-2.156-3.104-2.597-4.815-1.081-4.191.446-8.564 3.947-11.302 1.654-1.293 3.638-2.022 6.153-2.26 1.274-.121 3.62.364 5.086 1.052 2.592 1.214 4.735 3.665 5.658 6.468.427 1.298.502 1.805.499 3.387-.002 1.269-.013 1.424-.152 2.072-.299 1.404-.899 2.84-1.66 3.975-.216.321-.697.95-1.069 1.395l-.675.811.017 1.382c.012 1.004.035 1.401.086 1.452.092.092.635-.28 1.385-.948 2.642-2.354 4.048-4.957 4.598-8.516.15-.965.136-2.76-.028-3.693-.253-1.437-.604-2.53-1.214-3.776-2.091-4.275-6.268-7.231-10.71-7.578a18.216 18.216 0 0 0-1.504-.054zm.102 7.192c-.89 0-1.021.012-1.438.14-1.171.36-2.29 1.351-2.84 2.514-.269.572-.37.986-.405 1.674-.053 1.041.198 2.038.71 2.818.299.454 1.1 1.247 1.583 1.565a4.78 4.78 0 0 0 3.82.652c1.66-.423 2.903-1.638 3.417-3.34.13-.432.149-.588.149-1.276 0-.687-.018-.843-.149-1.275-.513-1.7-1.723-2.884-3.42-3.35-.381-.104-.594-.122-1.427-.122zm-.126 11.276c-2.227.011-3.859.754-4.526 2.075-.333.66-.438 1.8-.332 3.622.176 3.045.904 8.55 1.378 10.42.345 1.362.84 2.172 1.634 2.677.312.198 1.011.426 1.524.498.618.086 1.605.023 2.107-.136 1.115-.352 1.743-1.11 2.134-2.576.345-1.294.963-5.91 1.275-9.512.122-1.414.124-3.429.004-4.02-.172-.843-.458-1.295-1.156-1.827-1.127-.858-2.002-1.153-3.588-1.213a10.523 10.523 0 0 0-.454-.008z" opacity=".02" stroke-width="4" style="paint-order:fill markers stroke" transform="translate(-54.787)"/><path d="M86.794 12.008c-.851 0-1.702.023-2.11.07-5.003.569-9.1 2.636-12.635 6.377-2.379 2.517-4.006 5.554-4.878 9.103-.285 1.16-.36 1.669-.427 2.921-.07 1.288.002 3.516.15 4.64.213 1.628.85 3.712 1.7 5.56 1.571 3.415 4.108 6.29 7.39 8.374 1.036.658 3.143 1.737 4.023 2.062.266.098.314.097.398-.004.156-.189-.049-1.922-.28-2.374-.15-.29-.3-.406-.944-.727-3.529-1.761-6.334-4.613-8.122-8.256-.772-1.572-1.3-3.142-1.479-4.392-.201-1.409-.236-3.743-.083-5.54.137-1.605.601-3.191 1.454-4.967a18.082 18.082 0 0 1 5.507-6.726c2.3-1.722 5.03-2.87 7.722-3.247.7-.098 3.713-.135 4.634-.057 2.105.179 3.891.71 5.988 1.78 3.776 1.928 6.805 5.275 8.392 9.273.848 2.138 1.071 3.493 1.071 6.519 0 2.418-.13 3.38-.676 5.017a18.383 18.383 0 0 1-3.836 6.564c-1.379 1.521-3.435 3.09-5.18 3.953-.798.395-.948.527-1.105.973-.205.58-.342 2.057-.204 2.195.115.114.539-.043 1.77-.655 1.233-.612 2.904-1.584 3.674-2.138 3.544-2.55 6.356-6.613 7.522-10.868.481-1.757.579-2.497.621-4.734.036-1.874-.034-3.248-.212-4.14-.68-3.415-1.99-6.319-3.966-8.784-1.02-1.273-2.312-2.579-3.44-3.476-3.043-2.419-6.35-3.772-10.324-4.225-.411-.047-1.263-.071-2.114-.071zm-.058 6.687c-1.507.007-2.974.194-3.948.52-2.08.697-4.138 1.997-5.69 3.594a13.372 13.372 0 0 0-3.16 5.196c-.472 1.416-.619 2.606-.567 4.588.018.686.072 1.488.123 1.812.397 2.54 2.058 5.628 4.031 7.496.27.256.58.526.691.6.11.075.414.287.673.472s.5.328.532.317c.033-.01.076-.093.095-.183.02-.09.038-.73.042-1.423l.006-1.259-.648-.782c-1.382-1.668-2.156-3.104-2.597-4.815-1.081-4.191.446-8.564 3.947-11.302 1.654-1.293 3.638-2.022 6.153-2.26 1.274-.121 3.62.364 5.086 1.052 2.592 1.214 4.735 3.665 5.658 6.468.427 1.298.502 1.805.499 3.387-.002 1.269-.013 1.424-.152 2.072-.299 1.404-.899 2.84-1.66 3.975-.216.321-.697.95-1.069 1.395l-.675.811.017 1.382c.012 1.004.035 1.401.086 1.452.092.092.635-.28 1.385-.948 2.642-2.354 4.048-4.957 4.598-8.516.15-.965.136-2.76-.028-3.693-.253-1.437-.604-2.53-1.214-3.776-2.091-4.275-6.268-7.231-10.71-7.578a18.216 18.216 0 0 0-1.504-.054zm.102 7.192c-.89 0-1.021.012-1.438.14-1.171.36-2.29 1.351-2.84 2.514-.269.572-.37.986-.405 1.674-.053 1.041.198 2.038.71 2.818.299.454 1.1 1.247 1.583 1.565a4.78 4.78 0 0 0 3.82.652c1.66-.423 2.903-1.638 3.417-3.34.13-.432.149-.588.149-1.276 0-.687-.018-.843-.149-1.275-.513-1.7-1.723-2.884-3.42-3.35-.381-.104-.594-.122-1.427-.122zm-.126 11.276c-2.227.011-3.859.754-4.526 2.075-.333.66-.438 1.8-.332 3.622.176 3.045.904 8.55 1.378 10.42.345 1.362.84 2.172 1.634 2.677.312.198 1.011.426 1.524.498.618.086 1.605.023 2.107-.136 1.115-.352 1.743-1.11 2.134-2.576.345-1.294.963-5.91 1.275-9.512.122-1.414.124-3.429.004-4.02-.172-.843-.458-1.295-1.156-1.827-1.127-.858-2.002-1.153-3.588-1.213a10.523 10.523 0 0 0-.454-.008z" opacity=".03" stroke-width="3" style="paint-order:fill markers stroke" transform="translate(-54.787)"/><path d="M86.794 12.008c-.851 0-1.702.023-2.11.07-5.003.569-9.1 2.636-12.635 6.377-2.379 2.517-4.006 5.554-4.878 9.103-.285 1.16-.36 1.669-.427 2.921-.07 1.288.002 3.516.15 4.64.213 1.628.85 3.712 1.7 5.56 1.571 3.415 4.108 6.29 7.39 8.374 1.036.658 3.143 1.737 4.023 2.062.266.098.314.097.398-.004.156-.189-.049-1.922-.28-2.374-.15-.29-.3-.406-.944-.727-3.529-1.761-6.334-4.613-8.122-8.256-.772-1.572-1.3-3.142-1.479-4.392-.201-1.409-.236-3.743-.083-5.54.137-1.605.601-3.191 1.454-4.967a18.082 18.082 0 0 1 5.507-6.726c2.3-1.722 5.03-2.87 7.722-3.247.7-.098 3.713-.135 4.634-.057 2.105.179 3.891.71 5.988 1.78 3.776 1.928 6.805 5.275 8.392 9.273.848 2.138 1.071 3.493 1.071 6.519 0 2.418-.13 3.38-.676 5.017a18.383 18.383 0 0 1-3.836 6.564c-1.379 1.521-3.435 3.09-5.18 3.953-.798.395-.948.527-1.105.973-.205.58-.342 2.057-.204 2.195.115.114.539-.043 1.77-.655 1.233-.612 2.904-1.584 3.674-2.138 3.544-2.55 6.356-6.613 7.522-10.868.481-1.757.579-2.497.621-4.734.036-1.874-.034-3.248-.212-4.14-.68-3.415-1.99-6.319-3.966-8.784-1.02-1.273-2.312-2.579-3.44-3.476-3.043-2.419-6.35-3.772-10.324-4.225-.411-.047-1.263-.071-2.114-.071zm-.058 6.687c-1.507.007-2.974.194-3.948.52-2.08.697-4.138 1.997-5.69 3.594a13.372 13.372 0 0 0-3.16 5.196c-.472 1.416-.619 2.606-.567 4.588.018.686.072 1.488.123 1.812.397 2.54 2.058 5.628 4.031 7.496.27.256.58.526.691.6.11.075.414.287.673.472s.5.328.532.317c.033-.01.076-.093.095-.183.02-.09.038-.73.042-1.423l.006-1.259-.648-.782c-1.382-1.668-2.156-3.104-2.597-4.815-1.081-4.191.446-8.564 3.947-11.302 1.654-1.293 3.638-2.022 6.153-2.26 1.274-.121 3.62.364 5.086 1.052 2.592 1.214 4.735 3.665 5.658 6.468.427 1.298.502 1.805.499 3.387-.002 1.269-.013 1.424-.152 2.072-.299 1.404-.899 2.84-1.66 3.975-.216.321-.697.95-1.069 1.395l-.675.811.017 1.382c.012 1.004.035 1.401.086 1.452.092.092.635-.28 1.385-.948 2.642-2.354 4.048-4.957 4.598-8.516.15-.965.136-2.76-.028-3.693-.253-1.437-.604-2.53-1.214-3.776-2.091-4.275-6.268-7.231-10.71-7.578a18.216 18.216 0 0 0-1.504-.054zm.102 7.192c-.89 0-1.021.012-1.438.14-1.171.36-2.29 1.351-2.84 2.514-.269.572-.37.986-.405 1.674-.053 1.041.198 2.038.71 2.818.299.454 1.1 1.247 1.583 1.565a4.78 4.78 0 0 0 3.82.652c1.66-.423 2.903-1.638 3.417-3.34.13-.432.149-.588.149-1.276 0-.687-.018-.843-.149-1.275-.513-1.7-1.723-2.884-3.42-3.35-.381-.104-.594-.122-1.427-.122zm-.126 11.276c-2.227.011-3.859.754-4.526 2.075-.333.66-.438 1.8-.332 3.622.176 3.045.904 8.55 1.378 10.42.345 1.362.84 2.172 1.634 2.677.312.198 1.011.426 1.524.498.618.086 1.605.023 2.107-.136 1.115-.352 1.743-1.11 2.134-2.576.345-1.294.963-5.91 1.275-9.512.122-1.414.124-3.429.004-4.02-.172-.843-.458-1.295-1.156-1.827-1.127-.858-2.002-1.153-3.588-1.213a10.523 10.523 0 0 0-.454-.008z" opacity=".04" stroke-width="2" style="paint-order:fill markers stroke" transform="translate(-54.787)"/><path d="M86.794 12.008c-.851 0-1.702.023-2.11.07-5.003.569-9.1 2.636-12.635 6.377-2.379 2.517-4.006 5.554-4.878 9.103-.285 1.16-.36 1.669-.427 2.921-.07 1.288.002 3.516.15 4.64.213 1.628.85 3.712 1.7 5.56 1.571 3.415 4.108 6.29 7.39 8.374 1.036.658 3.143 1.737 4.023 2.062.266.098.314.097.398-.004.156-.189-.049-1.922-.28-2.374-.15-.29-.3-.406-.944-.727-3.529-1.761-6.334-4.613-8.122-8.256-.772-1.572-1.3-3.142-1.479-4.392-.201-1.409-.236-3.743-.083-5.54.137-1.605.601-3.191 1.454-4.967a18.082 18.082 0 0 1 5.507-6.726c2.3-1.722 5.03-2.87 7.722-3.247.7-.098 3.713-.135 4.634-.057 2.105.179 3.891.71 5.988 1.78 3.776 1.928 6.805 5.275 8.392 9.273.848 2.138 1.071 3.493 1.071 6.519 0 2.418-.13 3.38-.676 5.017a18.383 18.383 0 0 1-3.836 6.564c-1.379 1.521-3.435 3.09-5.18 3.953-.798.395-.948.527-1.105.973-.205.58-.342 2.057-.204 2.195.115.114.539-.043 1.77-.655 1.233-.612 2.904-1.584 3.674-2.138 3.544-2.55 6.356-6.613 7.522-10.868.481-1.757.579-2.497.621-4.734.036-1.874-.034-3.248-.212-4.14-.68-3.415-1.99-6.319-3.966-8.784-1.02-1.273-2.312-2.579-3.44-3.476-3.043-2.419-6.35-3.772-10.324-4.225-.411-.047-1.263-.071-2.114-.071zm-.058 6.687c-1.507.007-2.974.194-3.948.52-2.08.697-4.138 1.997-5.69 3.594a13.372 13.372 0 0 0-3.16 5.196c-.472 1.416-.619 2.606-.567 4.588.018.686.072 1.488.123 1.812.397 2.54 2.058 5.628 4.031 7.496.27.256.58.526.691.6.11.075.414.287.673.472s.5.328.532.317c.033-.01.076-.093.095-.183.02-.09.038-.73.042-1.423l.006-1.259-.648-.782c-1.382-1.668-2.156-3.104-2.597-4.815-1.081-4.191.446-8.564 3.947-11.302 1.654-1.293 3.638-2.022 6.153-2.26 1.274-.121 3.62.364 5.086 1.052 2.592 1.214 4.735 3.665 5.658 6.468.427 1.298.502 1.805.499 3.387-.002 1.269-.013 1.424-.152 2.072-.299 1.404-.899 2.84-1.66 3.975-.216.321-.697.95-1.069 1.395l-.675.811.017 1.382c.012 1.004.035 1.401.086 1.452.092.092.635-.28 1.385-.948 2.642-2.354 4.048-4.957 4.598-8.516.15-.965.136-2.76-.028-3.693-.253-1.437-.604-2.53-1.214-3.776-2.091-4.275-6.268-7.231-10.71-7.578a18.216 18.216 0 0 0-1.504-.054zm.102 7.192c-.89 0-1.021.012-1.438.14-1.171.36-2.29 1.351-2.84 2.514-.269.572-.37.986-.405 1.674-.053 1.041.198 2.038.71 2.818.299.454 1.1 1.247 1.583 1.565a4.78 4.78 0 0 0 3.82.652c1.66-.423 2.903-1.638 3.417-3.34.13-.432.149-.588.149-1.276 0-.687-.018-.843-.149-1.275-.513-1.7-1.723-2.884-3.42-3.35-.381-.104-.594-.122-1.427-.122zm-.126 11.276c-2.227.011-3.859.754-4.526 2.075-.333.66-.438 1.8-.332 3.622.176 3.045.904 8.55 1.378 10.42.345 1.362.84 2.172 1.634 2.677.312.198 1.011.426 1.524.498.618.086 1.605.023 2.107-.136 1.115-.352 1.743-1.11 2.134-2.576.345-1.294.963-5.91 1.275-9.512.122-1.414.124-3.429.004-4.02-.172-.843-.458-1.295-1.156-1.827-1.127-.858-2.002-1.153-3.588-1.213a10.523 10.523 0 0 0-.454-.008z" opacity=".05" style="paint-order:fill markers stroke" transform="translate(-54.787)"/></g><path d="M86.794 12.008c-.851 0-1.702.023-2.11.07-5.003.569-9.1 2.636-12.635 6.377-2.379 2.517-4.006 5.554-4.878 9.103-.285 1.16-.36 1.669-.427 2.921-.07 1.288.002 3.516.15 4.64.213 1.628.85 3.712 1.7 5.56 1.571 3.415 4.108 6.29 7.39 8.374 1.036.658 3.143 1.737 4.023 2.062.266.098.314.097.398-.004.156-.189-.049-1.922-.28-2.374-.15-.29-.3-.406-.944-.727-3.529-1.761-6.334-4.613-8.122-8.256-.772-1.572-1.3-3.142-1.479-4.392-.201-1.409-.236-3.743-.083-5.54.137-1.605.601-3.191 1.454-4.967a18.082 18.082 0 0 1 5.507-6.726c2.3-1.722 5.03-2.87 7.722-3.247.7-.098 3.713-.135 4.634-.057 2.105.179 3.891.71 5.988 1.78 3.776 1.928 6.805 5.275 8.392 9.273.848 2.138 1.071 3.493 1.071 6.519 0 2.418-.13 3.38-.676 5.017a18.383 18.383 0 0 1-3.836 6.564c-1.379 1.521-3.435 3.09-5.18 3.953-.798.395-.948.527-1.105.973-.205.58-.342 2.057-.204 2.195.115.114.539-.043 1.77-.655 1.233-.612 2.904-1.584 3.674-2.138 3.544-2.55 6.356-6.613 7.522-10.868.481-1.757.579-2.497.621-4.734.036-1.874-.034-3.248-.212-4.14-.68-3.415-1.99-6.319-3.966-8.784-1.02-1.273-2.312-2.579-3.44-3.476-3.043-2.419-6.35-3.772-10.324-4.225-.411-.047-1.263-.071-2.114-.071zm-.058 6.687c-1.507.007-2.974.194-3.948.52-2.08.697-4.138 1.997-5.69 3.594a13.372 13.372 0 0 0-3.16 5.196c-.472 1.416-.619 2.606-.567 4.588.018.686.072 1.488.123 1.812.397 2.54 2.058 5.628 4.031 7.496.27.256.58.526.691.6.11.075.414.287.673.472s.5.328.532.317c.033-.01.076-.093.095-.183.02-.09.038-.73.042-1.423l.006-1.259-.648-.782c-1.382-1.668-2.156-3.104-2.597-4.815-1.081-4.191.446-8.564 3.947-11.302 1.654-1.293 3.638-2.022 6.153-2.26 1.274-.121 3.62.364 5.086 1.052 2.592 1.214 4.735 3.665 5.658 6.468.427 1.298.502 1.805.499 3.387-.002 1.269-.013 1.424-.152 2.072-.299 1.404-.899 2.84-1.66 3.975-.216.321-.697.95-1.069 1.395l-.675.811.017 1.382c.012 1.004.035 1.401.086 1.452.092.092.635-.28 1.385-.948 2.642-2.354 4.048-4.957 4.598-8.516.15-.965.136-2.76-.028-3.693-.253-1.437-.604-2.53-1.214-3.776-2.091-4.275-6.268-7.231-10.71-7.578a18.216 18.216 0 0 0-1.504-.054zm.102 7.192c-.89 0-1.021.012-1.438.14-1.171.36-2.29 1.351-2.84 2.514-.269.572-.37.986-.405 1.674-.053 1.041.198 2.038.71 2.818.299.454 1.1 1.247 1.583 1.565a4.78 4.78 0 0 0 3.82.652c1.66-.423 2.903-1.638 3.417-3.34.13-.432.149-.588.149-1.276 0-.687-.018-.843-.149-1.275-.513-1.7-1.723-2.884-3.42-3.35-.381-.104-.594-.122-1.427-.122zm-.126 11.276c-2.227.011-3.859.754-4.526 2.075-.333.66-.438 1.8-.332 3.622.176 3.045.904 8.55 1.378 10.42.345 1.362.84 2.172 1.634 2.677.312.198 1.011.426 1.524.498.618.086 1.605.023 2.107-.136 1.115-.352 1.743-1.11 2.134-2.576.345-1.294.963-5.91 1.275-9.512.122-1.414.124-3.429.004-4.02-.172-.843-.458-1.295-1.156-1.827-1.127-.858-2.002-1.153-3.588-1.213a10.523 10.523 0 0 0-.454-.008z" opacity=".1" style="paint-order:fill markers stroke" transform="translate(-54.787)"/><path d="M32.005 11.458c-.851 0-1.702.023-2.11.07-5.003.569-9.1 2.636-12.634 6.377-2.38 2.517-4.007 5.554-4.879 9.103-.285 1.16-.36 1.669-.427 2.921-.07 1.288.002 3.516.15 4.64.213 1.628.85 3.712 1.7 5.56 1.571 3.415 4.108 6.29 7.39 8.374 1.036.658 3.143 1.737 4.023 2.062.266.098.314.097.398-.004.156-.189-.049-1.922-.28-2.374-.15-.29-.3-.406-.944-.727-3.529-1.761-6.334-4.613-8.122-8.256-.772-1.572-1.3-3.142-1.479-4.392-.2-1.409-.236-3.743-.083-5.54.137-1.605.601-3.191 1.454-4.967a18.082 18.082 0 0 1 5.507-6.726c2.3-1.722 5.03-2.87 7.722-3.247.7-.098 3.713-.135 4.634-.057 2.105.179 3.891.71 5.988 1.78 3.776 1.928 6.805 5.275 8.392 9.273.848 2.138 1.071 3.493 1.071 6.519 0 2.418-.13 3.38-.676 5.017a18.383 18.383 0 0 1-3.835 6.564c-1.38 1.521-3.436 3.09-5.182 3.953-.797.395-.947.527-1.104.973-.205.58-.342 2.057-.204 2.195.115.114.539-.043 1.77-.655 1.233-.612 2.904-1.584 3.674-2.138 3.544-2.55 6.356-6.613 7.522-10.868.481-1.757.579-2.497.621-4.734.036-1.874-.034-3.248-.212-4.14-.68-3.415-1.99-6.319-3.966-8.784-1.02-1.273-2.312-2.579-3.44-3.476-3.043-2.419-6.35-3.772-10.324-4.225-.411-.047-1.263-.071-2.114-.071zm-.058 6.687c-1.507.007-2.974.194-3.948.52-2.08.697-4.137 1.997-5.69 3.594a13.372 13.372 0 0 0-3.16 5.196c-.472 1.416-.619 2.606-.567 4.588.018.686.072 1.488.123 1.812.397 2.54 2.058 5.628 4.031 7.496.27.256.58.526.691.6.11.075.414.287.673.472s.5.328.532.317c.032-.01.076-.093.095-.183.02-.09.038-.73.042-1.423l.006-1.259-.648-.782c-1.382-1.668-2.156-3.104-2.597-4.815-1.081-4.191.446-8.564 3.947-11.302 1.654-1.293 3.638-2.022 6.153-2.26 1.274-.121 3.62.364 5.086 1.052 2.592 1.214 4.735 3.665 5.658 6.468.427 1.298.502 1.805.499 3.387-.002 1.269-.013 1.424-.152 2.072-.299 1.404-.899 2.84-1.66 3.975-.216.321-.697.95-1.069 1.395l-.675.811.017 1.382c.012 1.004.035 1.401.086 1.452.092.092.635-.28 1.385-.948 2.642-2.354 4.048-4.957 4.598-8.516.15-.965.136-2.76-.028-3.693-.253-1.437-.604-2.53-1.214-3.776-2.091-4.275-6.268-7.231-10.71-7.578a18.216 18.216 0 0 0-1.504-.054zm.102 7.192c-.89 0-1.021.012-1.438.14-1.171.36-2.29 1.351-2.84 2.514-.269.572-.37.986-.405 1.674-.053 1.041.198 2.038.71 2.818.299.454 1.1 1.247 1.583 1.565a4.78 4.78 0 0 0 3.82.652c1.66-.423 2.903-1.638 3.417-3.34.13-.432.149-.588.149-1.276 0-.687-.018-.843-.149-1.275-.513-1.7-1.723-2.884-3.42-3.35-.381-.104-.594-.122-1.427-.122zm-.126 11.276c-2.227.011-3.859.754-4.526 2.075-.333.66-.438 1.8-.332 3.622.176 3.045.904 8.55 1.378 10.42.345 1.362.84 2.172 1.634 2.677.312.198 1.011.426 1.524.498.618.086 1.605.023 2.107-.136 1.115-.352 1.743-1.11 2.134-2.576.345-1.294.963-5.91 1.275-9.512.122-1.414.124-3.429.004-4.02-.172-.843-.458-1.295-1.156-1.827-1.127-.858-2.002-1.153-3.588-1.213a10.523 10.523 0 0 0-.454-.008z" fill="#fff" style="paint-order:fill markers stroke"/><path d="M31.625 13.457c-.956.012-1.884.045-2.234.094-2.692.376-5.421 1.526-7.721 3.248a18.08 18.08 0 0 0-5.508 6.724c-.852 1.777-1.316 3.363-1.453 4.97-.08.94-.106 2.021-.086 3.046.004-.78.026-1.563.086-2.266.137-1.605.6-3.192 1.453-4.968a18.08 18.08 0 0 1 5.508-6.725c2.3-1.722 5.03-2.872 7.72-3.248.702-.098 3.714-.135 4.635-.057 2.105.179 3.892.71 5.989 1.78 3.775 1.928 6.803 5.275 8.39 9.273.813 2.047 1.046 3.415 1.065 6.182.001-.157.008-.273.008-.444 0-3.026-.224-4.381-1.073-6.52-1.587-3.997-4.614-7.345-8.39-9.273-2.097-1.07-3.884-1.6-5.989-1.779-.46-.039-1.444-.049-2.4-.037zm.53 6.459a4.775 4.775 0 0 0-.524.018c-2.515.238-4.5.968-6.154 2.261-2.86 2.237-4.4 5.564-4.28 8.992.121-3.147 1.637-6.144 4.28-8.21 1.653-1.294 3.639-2.024 6.154-2.262 1.273-.12 3.62.365 5.086 1.053 2.592 1.214 4.733 3.665 5.656 6.468.383 1.164.477 1.73.492 2.97.001-.142.008-.182.008-.364.002-1.583-.073-2.09-.5-3.387-.923-2.803-3.064-5.254-5.656-6.469-1.284-.601-3.24-1.048-4.563-1.07zm-4.774 9.643c-.003.039-.012.064-.014.105-.053 1.041.197 2.038.71 2.818.297.454 1.1 1.249 1.583 1.567a4.777 4.777 0 0 0 3.819.65c1.66-.423 2.903-1.638 3.418-3.34.13-.431.148-.588.148-1.275 0-.183-.01-.268-.014-.39a3.138 3.138 0 0 1-.134.884c-.515 1.702-1.759 2.917-3.418 3.34a4.777 4.777 0 0 1-3.819-.65c-.482-.318-1.286-1.113-1.584-1.567-.4-.61-.634-1.35-.695-2.142zm18.115 1.544c-.01.509-.036.998-.092 1.362-.55 3.558-1.958 6.16-4.6 8.515-.75.669-1.292 1.04-1.384.948-.05-.05-.074-.448-.086-1.452l-.008-.61-.01.01.018 1.382c.012 1.003.035 1.4.086 1.45.092.094.634-.278 1.385-.946 2.641-2.355 4.049-4.958 4.6-8.516.084-.551.11-1.365.09-2.143zm-26.914.159c-.001.256-.008.495 0 .78.018.687.072 1.49.123 1.813.397 2.54 2.058 5.628 4.031 7.497.27.255.581.525.692.6.11.074.412.287.671.472s.501.327.534.316c.032-.01.074-.094.093-.183.02-.09.04-.73.043-1.422l.006-1.26-.004-.004-.002.482c-.003.693-.023 1.333-.043 1.422-.019.09-.06.173-.093.184-.033.01-.274-.131-.534-.316s-.561-.399-.671-.473a8.315 8.315 0 0 1-.692-.6c-1.973-1.868-3.634-4.956-4.031-7.496-.05-.324-.105-1.126-.123-1.812zm33.475.3c-.045 2.07-.15 2.845-.615 4.543-1.166 4.256-3.98 8.32-7.524 10.87-.77.553-2.44 1.526-3.672 2.138-1.231.612-1.657.769-1.771.654-.016-.016-.017-.1-.026-.148-.042.458-.043.86.026.93.114.114.54-.043 1.771-.655 1.233-.612 2.902-1.584 3.672-2.138 3.545-2.55 6.358-6.612 7.524-10.867.481-1.757.578-2.498.62-4.735.005-.227-.006-.379-.005-.591zm-40.105.004c.013 1.111.057 2.265.154 3.002.214 1.629.85 3.714 1.7 5.56 1.57 3.417 4.108 6.29 7.39 8.374 1.036.658 3.143 1.738 4.023 2.062.267.098.313.098.397-.004.068-.082.06-.474.017-.91-.008.036-.004.114-.017.13-.084.1-.13.101-.397.003-.88-.324-2.987-1.404-4.023-2.062-3.282-2.084-5.82-4.957-7.39-8.373-.85-1.847-1.486-3.932-1.7-5.56a25.603 25.603 0 0 1-.154-2.222zm15.088 9.162c-.013.465-.01.973.025 1.582.177 3.045.905 8.55 1.38 10.42.344 1.363.838 2.171 1.632 2.676.312.199 1.013.427 1.525.498.618.087 1.604.024 2.106-.134 1.115-.353 1.744-1.111 2.135-2.577.345-1.294.964-5.909 1.275-9.511.076-.883.1-1.97.082-2.828a28.33 28.33 0 0 1-.082 2.046c-.311 3.603-.93 8.218-1.275 9.512-.39 1.466-1.02 2.224-2.135 2.576-.502.159-1.488.221-2.106.135-.512-.071-1.213-.3-1.525-.498-.794-.505-1.288-1.314-1.633-2.676-.474-1.87-1.202-7.375-1.379-10.42-.017-.293-.02-.542-.025-.8z" opacity=".15" style="paint-order:fill markers stroke"/></svg>