<svg width="64" height="64" viewBox="0 0 16.933 16.933" xmlns="http://www.w3.org/2000/svg"><defs><linearGradient id="f" x1="8.467" x2="8.467" y1="280.6" y2="296.47" gradientTransform="translate(8.983 -96.719) scale(.37645)" gradientUnits="userSpaceOnUse"><stop stop-color="#666" offset="0"/><stop stop-color="#9f9f9f" offset="1"/></linearGradient><linearGradient id="g" x1="8.467" x2="8.467" y1="282.18" y2="294.88" gradientTransform="translate(9.021 -95.424) scale(.37199)" gradientUnits="userSpaceOnUse"><stop stop-color="#333" offset="0"/><stop stop-color="#666" offset="1"/></linearGradient><linearGradient id="h" x1="8.467" x2="8.467" y1="283.24" y2="293.82" gradientTransform="translate(9.021 -95.424) scale(.37199)" gradientUnits="userSpaceOnUse"><stop offset="0"/><stop stop-color="#121212" offset="1"/></linearGradient><linearGradient id="e" x1="8.467" x2="8.467" y1="-2.92" y2="19.84" gradientTransform="translate(9.021 8.759) scale(.37199)" gradientUnits="userSpaceOnUse"><stop stop-color="#ccc" offset="0"/><stop stop-color="#ebebeb" offset="1"/></linearGradient><linearGradient id="a" x1="6.87" x2="6.87" y1="15.131" y2="1.822" gradientUnits="userSpaceOnUse"><stop stop-color="#3b3838" offset="0"/><stop stop-color="#535358" offset="1"/></linearGradient><linearGradient id="s" x1="26.044" x2="26.044" y1="52.608" y2="47.87" gradientUnits="userSpaceOnUse"><stop stop-opacity=".35" offset="0"/><stop stop-opacity="0" offset="1"/></linearGradient><linearGradient id="t" x1="26.044" x2="26.044" y1="16.069" y2="12.62" gradientUnits="userSpaceOnUse"><stop stop-opacity=".35" offset="0"/><stop stop-opacity="0" offset="1"/></linearGradient><linearGradient id="u" x1="26.044" x2="26.044" y1="22.046" y2="20.66" gradientUnits="userSpaceOnUse"><stop stop-opacity=".35" offset="0"/><stop stop-opacity="0" offset="1"/></linearGradient><linearGradient id="c" x1="26.044" x2="26.044" y1="43.104" y2="39.648" gradientUnits="userSpaceOnUse"><stop stop-opacity=".35" offset="0"/><stop stop-opacity="0" offset="1"/></linearGradient><filter id="p" x="-.233" y="-.248" width="1.465" height="1.496" color-interpolation-filters="sRGB"><feGaussianBlur stdDeviation="1.061"/></filter><filter id="o" x="-.012" y="-.012" width="1.023" height="1.025" color-interpolation-filters="sRGB"><feGaussianBlur stdDeviation=".03"/></filter><filter id="m" x="-.062" y="-.067" width="1.125" height="1.133" color-interpolation-filters="sRGB"><feGaussianBlur stdDeviation=".086"/></filter><filter id="n" x="-.055" y="-.066" width="1.111" height="1.131" color-interpolation-filters="sRGB"><feGaussianBlur stdDeviation=".762"/></filter><filter id="r" x="-.233" y="-.248" width="1.465" height="1.496" color-interpolation-filters="sRGB"><feGaussianBlur stdDeviation=".512"/></filter><filter id="l" x="-.058" y="-.062" width="1.116" height="1.124" color-interpolation-filters="sRGB"><feGaussianBlur stdDeviation=".128"/></filter><filter id="q" x="-.196" y="-.309" width="1.393" height="1.617" color-interpolation-filters="sRGB"><feGaussianBlur stdDeviation="2.988"/></filter><filter id="j" x="-.11" y="-.13" width="1.22" height="1.26" color-interpolation-filters="sRGB"><feGaussianBlur stdDeviation=".152"/></filter><filter id="k" x="-.19" y="-.243" width="1.38" height="1.486" color-interpolation-filters="sRGB"><feGaussianBlur stdDeviation=".152"/></filter><radialGradient id="i" cx="-136.99" cy="198.65" r="38.5" gradientTransform="matrix(.03653 0 0 .03068 17.174 5.813)" gradientUnits="userSpaceOnUse"><stop stop-color="#2561db" stop-opacity=".941" offset="0"/><stop stop-color="#0d0d0d" offset="1"/></radialGradient><radialGradient id="b" cx="12.171" cy="12.171" r="4.762" gradientUnits="userSpaceOnUse"><stop offset="0"/><stop stop-opacity="0" offset="1"/></radialGradient><radialGradient id="v" cx="31.987" cy="35.464" r="6.926" gradientTransform="matrix(1 0 0 1.1098 0 -6.946)" gradientUnits="userSpaceOnUse"><stop offset="0"/><stop stop-opacity=".65" offset=".584"/><stop stop-opacity="0" offset="1"/></radialGradient><radialGradient id="d" cx="30.995" cy="31.327" r="5.011" gradientTransform="matrix(0 1.1627 -1.006 0 63.512 -3.825)" gradientUnits="userSpaceOnUse"><stop stop-opacity="0" offset="0"/><stop stop-opacity="0" offset=".8"/><stop stop-opacity=".35" offset="1"/></radialGradient></defs><g color="#000"><path d="M4.37.53C2.254.53.53 2.312.53 4.496v8.468c0 2.184 1.725 3.968 3.84 3.968h8.194c2.114 0 3.84-1.783 3.84-3.968V4.497c0-2.184-1.726-3.968-3.84-3.968zm.256.52h7.681c1.844 0 3.33 1.534 3.33 3.44v7.937c0 1.906-1.485 3.44-3.33 3.44h-7.68c-1.845 0-3.33-1.534-3.33-3.44V4.49c0-1.906 1.485-3.44 3.33-3.44z" opacity=".01" style="font-feature-settings:normal;font-variant-alternates:normal;font-variant-caps:normal;font-variant-east-asian:normal;font-variant-ligatures:normal;font-variant-numeric:normal;font-variant-position:normal;font-variation-settings:normal;inline-size:0;isolation:auto;mix-blend-mode:normal;shape-margin:0;shape-padding:0;text-decoration-color:#000;text-decoration-line:none;text-decoration-style:solid;text-indent:0;text-orientation:mixed;text-transform:none;white-space:normal"/><path d="M4.359.794C2.392.794.795 2.447.795 4.48v8.5c0 2.035 1.597 3.688 3.564 3.688h8.216c1.967 0 3.564-1.653 3.564-3.688v-8.5c0-2.034-1.597-3.687-3.564-3.687zm.272.256h7.672c1.842 0 3.325 1.534 3.325 3.44v7.937c0 1.906-1.483 3.44-3.325 3.44H4.63c-1.842 0-3.325-1.534-3.325-3.44V4.49c0-1.906 1.483-3.44 3.325-3.44z" opacity=".01" style="font-feature-settings:normal;font-variant-alternates:normal;font-variant-caps:normal;font-variant-east-asian:normal;font-variant-ligatures:normal;font-variant-numeric:normal;font-variant-position:normal;font-variation-settings:normal;inline-size:0;isolation:auto;mix-blend-mode:normal;shape-margin:0;shape-padding:0;text-decoration-color:#000;text-decoration-line:none;text-decoration-style:solid;text-indent:0;text-orientation:mixed;text-transform:none;white-space:normal"/><path d="M4.31 1.058c-1.866 0-3.375 1.539-3.375 3.44v8.467c0 1.9 1.57 3.439 3.435 3.439h8.2c1.866 0 3.427-1.538 3.427-3.44V4.498c0-1.9-1.51-3.439-3.375-3.439h-.097c1.794.087 3.214 1.582 3.214 3.432v7.937c0 1.906-1.506 3.44-3.377 3.44h-7.79c-1.871 0-3.377-1.534-3.377-3.44V4.49c0-1.85 1.42-3.345 3.214-3.432z" opacity=".03" style="font-feature-settings:normal;font-variant-alternates:normal;font-variant-caps:normal;font-variant-east-asian:normal;font-variant-ligatures:normal;font-variant-numeric:normal;font-variant-position:normal;font-variation-settings:normal;inline-size:0;isolation:auto;mix-blend-mode:normal;shape-margin:0;shape-padding:0;text-decoration-color:#000;text-decoration-line:none;text-decoration-style:solid;text-indent:0;text-orientation:mixed;text-transform:none;white-space:normal"/><path transform="scale(.26458)" d="M4 46.969V49c0 6.648 5.896 12 12.544 12h30.961C54.153 61 60 55.648 60 49v-1.992a12.972 12.972 0 0 1-13 12.963H17.002A12.973 12.973 0 0 1 4 46.969z" opacity=".03" style="font-feature-settings:normal;font-variant-alternates:normal;font-variant-caps:normal;font-variant-east-asian:normal;font-variant-ligatures:normal;font-variant-numeric:normal;font-variant-position:normal;font-variation-settings:normal;inline-size:0;isolation:auto;mix-blend-mode:normal;shape-margin:0;shape-padding:0;text-decoration-color:#000;text-decoration-line:none;text-decoration-style:solid;text-indent:0;text-orientation:mixed;text-transform:none;white-space:normal"/><path d="M1.058 11.906v.592c0 1.939 1.573 3.5 3.332 3.5h8.16c1.76 0 3.325-1.561 3.325-3.5v-.58c-.006 2.095-1.537 3.78-3.44 3.78H4.498c-1.905 0-3.44-1.692-3.44-3.792z" opacity=".05" style="font-feature-settings:normal;font-variant-alternates:normal;font-variant-caps:normal;font-variant-east-asian:normal;font-variant-ligatures:normal;font-variant-numeric:normal;font-variant-position:normal;font-variation-settings:normal;inline-size:0;isolation:auto;mix-blend-mode:normal;shape-margin:0;shape-padding:0;text-decoration-color:#000;text-decoration-line:none;text-decoration-style:solid;text-indent:0;text-orientation:mixed;text-transform:none;white-space:normal"/></g><rect x="1.058" y="1.05" width="14.817" height="14.817" rx="3.44" ry="3.44" fill="url(#a)"/><g stroke="#000" stroke-linecap="round" stroke-linejoin="round" stroke-opacity=".996"><path d="M11.112 3.704v.53h1.587c.294 0 .53.235.53.528V6.35h.529V4.762c0-.586-.472-1.058-1.058-1.058zm-6.88.003c-.585 0-1.057.472-1.057 1.058v1.587h.529V4.765c0-.293.236-.53.529-.53H5.82v-.528zm3.38 2.643-.105.051c-.133.065-.193.135-.303.348-.096.185-.18.282-.293.338-.067.033-.124.037-.772.045-.679.01-.7.011-.79.052a.583.583 0 0 0-.278.27l-.044.092V9.38c0 2.032-.006 1.926.12 2.075.036.04.115.1.177.131l.113.056h6.058l.114-.056a.588.588 0 0 0 .177-.135c.126-.155.12-.041.12-2.07V7.546l-.044-.092a.583.583 0 0 0-.278-.27c-.09-.041-.111-.043-.79-.052-.78-.01-.774-.01-.906-.142a1.23 1.23 0 0 1-.16-.241c-.11-.213-.17-.283-.302-.348l-.104-.051H7.61zm.774 1.079c.157-.007.316 0 .432.024.338.068.658.236.912.478.258.246.43.533.524.876.037.136.042.197.041.47 0 .284-.006.327-.05.474-.089.29-.205.504-.395.726a1.961 1.961 0 0 1-.933.568 2.11 2.11 0 0 1-.7.044 1.896 1.896 0 0 1-1.381-.968 1.683 1.683 0 0 1-.204-.935 1.66 1.66 0 0 1 .3-.94c.237-.36.604-.629 1.033-.757.109-.033.264-.054.421-.06zm.176.508a1.383 1.383 0 0 0-.24.007c-.533.06-.96.418-1.128.946a1.522 1.522 0 0 0-.025.646c.062.285.237.575.46.76.326.272.805.37 1.218.25.205-.059.39-.17.56-.34a1.26 1.26 0 0 0 .343-.55c.04-.12.047-.176.048-.38.001-.202-.005-.26-.041-.376-.176-.562-.644-.929-1.195-.963zm-5.378 3.704v1.588c0 .586.472 1.062 1.058 1.058h1.587v-.529H4.242a.528.528 0 0 1-.53-.529v-1.588z" opacity=".03" stroke-width="1.058"/><path d="M11.112 3.704v.53h1.587c.294 0 .53.235.53.528V6.35h.529V4.762c0-.586-.472-1.058-1.058-1.058zm-6.88.003c-.585 0-1.057.472-1.057 1.058v1.587h.529V4.765c0-.293.236-.53.529-.53H5.82v-.528zm3.38 2.643-.105.051c-.133.065-.193.135-.303.348-.096.185-.18.282-.293.338-.067.033-.124.037-.772.045-.679.01-.7.011-.79.052a.583.583 0 0 0-.278.27l-.044.092V9.38c0 2.032-.006 1.926.12 2.075.036.04.115.1.177.131l.113.056h6.058l.114-.056a.588.588 0 0 0 .177-.135c.126-.155.12-.041.12-2.07V7.546l-.044-.092a.583.583 0 0 0-.278-.27c-.09-.041-.111-.043-.79-.052-.78-.01-.774-.01-.906-.142a1.23 1.23 0 0 1-.16-.241c-.11-.213-.17-.283-.302-.348l-.104-.051H7.61zm.774 1.079c.157-.007.316 0 .432.024.338.068.658.236.912.478.258.246.43.533.524.876.037.136.042.197.041.47 0 .284-.006.327-.05.474-.089.29-.205.504-.395.726a1.961 1.961 0 0 1-.933.568 2.11 2.11 0 0 1-.7.044 1.896 1.896 0 0 1-1.381-.968 1.683 1.683 0 0 1-.204-.935 1.66 1.66 0 0 1 .3-.94c.237-.36.604-.629 1.033-.757.109-.033.264-.054.421-.06zm.176.508a1.383 1.383 0 0 0-.24.007c-.533.06-.96.418-1.128.946a1.522 1.522 0 0 0-.025.646c.062.285.237.575.46.76.326.272.805.37 1.218.25.205-.059.39-.17.56-.34a1.26 1.26 0 0 0 .343-.55c.04-.12.047-.176.048-.38.001-.202-.005-.26-.041-.376-.176-.562-.644-.929-1.195-.963zm-5.378 3.704v1.588c0 .586.472 1.062 1.058 1.058h1.587v-.529H4.242a.528.528 0 0 1-.53-.529v-1.588z" opacity=".03" stroke-width=".794"/><path d="M11.112 3.704v.53h1.587c.294 0 .53.235.53.528V6.35h.529V4.762c0-.586-.472-1.058-1.058-1.058zm-6.88.003c-.585 0-1.057.472-1.057 1.058v1.587h.529V4.765c0-.293.236-.53.529-.53H5.82v-.528zm3.38 2.643-.105.051c-.133.065-.193.135-.303.348-.096.185-.18.282-.293.338-.067.033-.124.037-.772.045-.679.01-.7.011-.79.052a.583.583 0 0 0-.278.27l-.044.092V9.38c0 2.032-.006 1.926.12 2.075.036.04.115.1.177.131l.113.056h6.058l.114-.056a.588.588 0 0 0 .177-.135c.126-.155.12-.041.12-2.07V7.546l-.044-.092a.583.583 0 0 0-.278-.27c-.09-.041-.111-.043-.79-.052-.78-.01-.774-.01-.906-.142a1.23 1.23 0 0 1-.16-.241c-.11-.213-.17-.283-.302-.348l-.104-.051H7.61zm.774 1.079c.157-.007.316 0 .432.024.338.068.658.236.912.478.258.246.43.533.524.876.037.136.042.197.041.47 0 .284-.006.327-.05.474-.089.29-.205.504-.395.726a1.961 1.961 0 0 1-.933.568 2.11 2.11 0 0 1-.7.044 1.896 1.896 0 0 1-1.381-.968 1.683 1.683 0 0 1-.204-.935 1.66 1.66 0 0 1 .3-.94c.237-.36.604-.629 1.033-.757.109-.033.264-.054.421-.06zm.176.508a1.383 1.383 0 0 0-.24.007c-.533.06-.96.418-1.128.946a1.522 1.522 0 0 0-.025.646c.062.285.237.575.46.76.326.272.805.37 1.218.25.205-.059.39-.17.56-.34a1.26 1.26 0 0 0 .343-.55c.04-.12.047-.176.048-.38.001-.202-.005-.26-.041-.376-.176-.562-.644-.929-1.195-.963zm-5.378 3.704v1.588c0 .586.472 1.062 1.058 1.058h1.587v-.529H4.242a.528.528 0 0 1-.53-.529v-1.588z" opacity=".03" stroke-width=".529"/><path d="M11.112 3.704v.53h1.587c.294 0 .53.235.53.528V6.35h.529V4.762c0-.586-.472-1.058-1.058-1.058zm-6.88.003c-.585 0-1.057.472-1.057 1.058v1.587h.529V4.765c0-.293.236-.53.529-.53H5.82v-.528zm3.38 2.643-.105.051c-.133.065-.193.135-.303.348-.096.185-.18.282-.293.338-.067.033-.124.037-.772.045-.679.01-.7.011-.79.052a.583.583 0 0 0-.278.27l-.044.092V9.38c0 2.032-.006 1.926.12 2.075.036.04.115.1.177.131l.113.056h6.058l.114-.056a.588.588 0 0 0 .177-.135c.126-.155.12-.041.12-2.07V7.546l-.044-.092a.583.583 0 0 0-.278-.27c-.09-.041-.111-.043-.79-.052-.78-.01-.774-.01-.906-.142a1.23 1.23 0 0 1-.16-.241c-.11-.213-.17-.283-.302-.348l-.104-.051H7.61zm.774 1.079c.157-.007.316 0 .432.024.338.068.658.236.912.478.258.246.43.533.524.876.037.136.042.197.041.47 0 .284-.006.327-.05.474-.089.29-.205.504-.395.726a1.961 1.961 0 0 1-.933.568 2.11 2.11 0 0 1-.7.044 1.896 1.896 0 0 1-1.381-.968 1.683 1.683 0 0 1-.204-.935 1.66 1.66 0 0 1 .3-.94c.237-.36.604-.629 1.033-.757.109-.033.264-.054.421-.06zm.176.508a1.383 1.383 0 0 0-.24.007c-.533.06-.96.418-1.128.946a1.522 1.522 0 0 0-.025.646c.062.285.237.575.46.76.326.272.805.37 1.218.25.205-.059.39-.17.56-.34a1.26 1.26 0 0 0 .343-.55c.04-.12.047-.176.048-.38.001-.202-.005-.26-.041-.376-.176-.562-.644-.929-1.195-.963zm-5.378 3.704v1.588c0 .586.472 1.062 1.058 1.058h1.587v-.529H4.242a.528.528 0 0 1-.53-.529v-1.588z" opacity=".04" stroke-width=".265"/></g><path d="M11.112 3.704v.53h1.587c.294 0 .53.235.53.528V6.35h.529V4.762c0-.586-.472-1.058-1.058-1.058zm-6.88.003c-.585 0-1.057.472-1.057 1.058v1.587h.529V4.765c0-.293.236-.53.529-.53H5.82v-.528zm3.38 2.643-.105.051c-.133.065-.193.135-.303.348-.096.185-.18.282-.293.338-.067.033-.124.037-.772.045-.679.01-.7.011-.79.052a.583.583 0 0 0-.278.27l-.044.092V9.38c0 2.032-.006 1.926.12 2.075.036.04.115.1.177.131l.113.056h6.058l.114-.056a.588.588 0 0 0 .177-.135c.126-.155.12-.041.12-2.07V7.546l-.044-.092a.583.583 0 0 0-.278-.27c-.09-.041-.111-.043-.79-.052-.78-.01-.774-.01-.906-.142a1.23 1.23 0 0 1-.16-.241c-.11-.213-.17-.283-.302-.348l-.104-.051H7.61zm.774 1.079c.157-.007.316 0 .432.024.338.068.658.236.912.478.258.246.43.533.524.876.037.136.042.197.041.47 0 .284-.006.327-.05.474-.089.29-.205.504-.395.726a1.961 1.961 0 0 1-.933.568 2.11 2.11 0 0 1-.7.044 1.896 1.896 0 0 1-1.381-.968 1.683 1.683 0 0 1-.204-.935 1.66 1.66 0 0 1 .3-.94c.237-.36.604-.629 1.033-.757.109-.033.264-.054.421-.06zm.176.508a1.383 1.383 0 0 0-.24.007c-.533.06-.96.418-1.128.946a1.522 1.522 0 0 0-.025.646c.062.285.237.575.46.76.326.272.805.37 1.218.25.205-.059.39-.17.56-.34a1.26 1.26 0 0 0 .343-.55c.04-.12.047-.176.048-.38.001-.202-.005-.26-.041-.376-.176-.562-.644-.929-1.195-.963zm-5.378 3.704v1.588c0 .586.472 1.062 1.058 1.058h1.587v-.529H4.242a.528.528 0 0 1-.53-.529v-1.588z" opacity=".05"/><path d="M11.112 3.175v.53H12.7c.293 0 .529.235.529.528v1.588h.53V4.233c0-.586-.473-1.058-1.06-1.058h-1.587zm-6.879.003c-.586 0-1.058.472-1.058 1.058v1.587h.53V4.236c0-.293.235-.53.528-.53h1.588v-.528H4.233zM7.611 5.82l-.104.05c-.132.066-.193.136-.303.349-.095.185-.179.282-.292.338-.068.033-.125.036-.772.045-.68.01-.702.01-.79.052a.583.583 0 0 0-.279.27l-.043.092V8.85c-.001 2.032-.007 1.926.12 2.075.035.04.115.1.177.131l.112.056h6.059l.113-.056a.588.588 0 0 0 .177-.135c.127-.155.12-.042.12-2.07V7.017l-.044-.092a.583.583 0 0 0-.278-.27c-.09-.041-.111-.043-.79-.052-.78-.01-.773-.01-.906-.142a1.23 1.23 0 0 1-.159-.241c-.11-.213-.17-.283-.303-.348l-.104-.051h-1.71zm.776 1.08a1.94 1.94 0 0 1 .431.024c.338.068.658.236.912.478.259.246.43.533.524.876.037.136.043.196.042.47-.002.284-.006.327-.051.474-.089.29-.205.504-.394.726a1.962 1.962 0 0 1-.934.567 2.08 2.08 0 0 1-.699.044 1.896 1.896 0 0 1-1.382-.968 1.683 1.683 0 0 1-.204-.934 1.66 1.66 0 0 1 .3-.94c.238-.36.604-.629 1.033-.757.11-.033.265-.054.422-.06zm.176.508a1.383 1.383 0 0 0-.24.006c-.533.06-.96.418-1.13.947a1.522 1.522 0 0 0-.024.646c.062.285.237.575.46.76.327.272.805.37 1.219.25.205-.059.388-.17.559-.34a1.26 1.26 0 0 0 .343-.55c.04-.12.047-.176.048-.38.002-.203-.004-.26-.041-.377-.176-.56-.644-.928-1.194-.962zm-5.38 3.704V12.7c0 .586.473 1.061 1.06 1.058H5.83v-.529H4.242a.528.528 0 0 1-.529-.53v-1.587h-.53z" fill="#f8f8f8"/><circle cx="12.171" cy="12.171" r="4.762" fill="url(#b)"/><path transform="scale(.26458)" d="M19 32.412v1.037c0 7.679-.023 7.28.457 7.842.133.155.433.379.668.496l.426.213h22.898l.428-.215c.257-.129.523-.331.67-.51.477-.583.453-.155.453-7.824v-1.037c0 7.23.015 6.923-.454 7.496a2.21 2.21 0 0 1-.67.51l-.427.215H20.55l-.426-.213c-.235-.118-.535-.341-.668-.496-.47-.551-.458-.273-.457-7.514z" fill="url(#c)"/><path transform="scale(.26458)" d="M37.01 32.242c-.02.33-.058.585-.158.89-.28.852-.634 1.42-1.299 2.079-.643.638-1.338 1.06-2.113 1.285-1.562.452-3.37.08-4.604-.943-.844-.702-1.507-1.8-1.74-2.877-.02-.097-.03-.217-.043-.329-.063.575-.057 1.232.043 1.694.233 1.078.896 2.175 1.74 2.877 1.233 1.024 3.042 1.395 4.604.943.775-.224 1.47-.647 2.113-1.285.665-.66 1.018-1.227 1.299-2.078.15-.454.176-.668.181-1.438a7.575 7.575 0 0 0-.023-.818z" fill="url(#d)"/><g stroke-width=".533"><circle cx="12.171" cy="11.906" r="4.233" fill="url(#e)"/><circle cx="12.171" cy="11.906" r="2.963" fill="url(#f)"/><circle cx="12.171" cy="11.906" r="2.362" fill="url(#g)"/><circle cx="12.171" cy="11.906" r="1.968" fill="url(#h)"/></g><circle cx="12.171" cy="11.906" r="1.531" fill="url(#i)" stroke="#0d224d" stroke-linecap="round" stroke-linejoin="round" stroke-width=".125"/><g stroke-width="1.434"><path d="m4.945 6.47 1.464.81s.458-.477.772-.686c.348-.23 1.105-.416 1.093-.36l-.241-1.762S6.412 4.31 4.945 6.47z" fill="#4678cc" filter="url(#j)" opacity=".8" transform="translate(9.021 8.759) scale(.37199)"/><path d="m4.788 6.73 1.565.695s-.089.202-.123.421c-.032.2.004.387.004.387l-1.806-.019s.072-1.036.36-1.484z" fill="#4678cc" filter="url(#k)" opacity=".8" transform="translate(9.021 8.759) scale(.37199)"/><g transform="translate(9.021 -95.424) scale(.37199)" fill="#fff"><ellipse transform="matrix(.15683 -.13591 .13591 .15683 36.278 248.68)" cx="-228.33" cy="44.944" rx="3.083" ry="1.903" fill-opacity=".3" filter="url(#l)"/><ellipse transform="matrix(.10291 -.08918 .08918 .10291 26.112 262.03)" cx="-228.1" cy="51.166" rx="1.918" ry="1.184" fill-opacity=".3" filter="url(#m)"/><ellipse transform="matrix(.11873 -.07942 .07942 .11873 27.406 259.75)" cx="-222.03" cy="111.72" rx="18.419" ry="11.368" filter="url(#n)" opacity=".2"/><ellipse transform="matrix(.10291 -.08918 .08918 .10291 26.764 261.46)" cx="-235.29" cy="75.046" rx="3.667" ry="2.263" fill-opacity=".3" filter="url(#o)"/><ellipse transform="matrix(.12523 -.10853 .10853 .12523 29.918 254.7)" cx="-234.21" cy="88.759" rx="6.386" ry="3.941" filter="url(#p)"/></g><g transform="translate(9.021 -95.424) scale(.37199)"><ellipse transform="matrix(.14046 -.08281 .08281 .14046 31.651 256.02)" cx="-222.03" cy="111.72" rx="18.419" ry="11.368" fill="#4397ee" filter="url(#q)" opacity=".45"/><ellipse transform="rotate(-40.914 369.07 103.988) scale(.10761)" cx="-228.33" cy="44.944" rx="3.083" ry="1.903" fill="#fff" fill-opacity=".854" filter="url(#r)"/><ellipse transform="rotate(-40.912 374.319 107.861) scale(.09151)" cx="-228.1" cy="51.166" rx="1.918" ry="1.184" fill="#fff" fill-opacity=".3" filter="url(#m)"/></g></g><path transform="scale(.26458)" d="M12.033 46.635V48c0 2.216 1.784 4.013 4 4h6v-1.365h-6c-2.216.012-4-1.784-4-4z" fill="url(#s)"/><path transform="scale(.26458)" d="M42 12.635V14h6c1.108 0 2 .892 2 2v-1.365c0-1.108-.892-2-2-2zm-26 .01c-1.108 0-2 .892-2 2v1.365c0-1.108.892-2 2-2h6v-1.365z" fill="url(#t)"/><path transform="scale(.26458)" d="M50 20.635V22h2v-1.365zm-38 .01v1.365h2v-1.365z" fill="url(#u)"/><path transform="scale(.26458)" d="M31.697 24.713c-.593.025-1.18.103-1.592.227-1.622.486-3.007 1.5-3.908 2.86-.763 1.153-1.08 2.145-1.13 3.556a8.49 8.49 0 0 0 .026 1.074c.085-1.252.397-2.196 1.104-3.264.9-1.36 2.286-2.375 3.908-2.861.411-.123.998-.202 1.592-.227.593-.024 1.193.004 1.63.092a7.043 7.043 0 0 1 3.448 1.805 7.006 7.006 0 0 1 1.98 3.312c.09.325.122.607.14.977.005-.18.016-.289.017-.569.004-1.03-.016-1.258-.156-1.773a7.006 7.006 0 0 0-1.98-3.312 7.044 7.044 0 0 0-3.448-1.805c-.438-.088-1.038-.117-1.631-.092z" fill="url(#v)"/></svg>