<svg width="64" height="64" version="1.1" viewBox="0 0 16.933 16.933" xmlns="http://www.w3.org/2000/svg">
 <defs>
  <linearGradient id="linearGradient862" x1="7.9373" x2="7.9373" y1="15.081" y2="1.852" gradientUnits="userSpaceOnUse">
   <stop stop-color="#eae8e9" offset="0"/>
   <stop stop-color="#f9f8f9" offset="1"/>
  </linearGradient>
  <linearGradient id="linearGradient1021" x1="25.135" x2="25.135" y1="11.222" y2="9.3897" gradientTransform="translate(2.1817 .14366)" gradientUnits="userSpaceOnUse">
   <stop stop-color="#212020" offset="0"/>
   <stop stop-color="#212020" offset=".28446"/>
   <stop stop-color="#5d7788" offset=".63483"/>
   <stop stop-color="#fff" offset=".67901"/>
   <stop stop-color="#fff" offset=".76713"/>
   <stop stop-color="#374550" offset=".79259"/>
   <stop stop-color="#212020" offset="1"/>
  </linearGradient>
  <linearGradient id="linearGradient1039" x1="81.162" x2="81.162" y1="42.393" y2="35.405" gradientTransform="matrix(.26458 0 0 .26458 2.1817 .14366)" gradientUnits="userSpaceOnUse">
   <stop stop-color="#212020" offset="0"/>
   <stop stop-color="#688297" offset=".50969"/>
   <stop stop-color="#212020" offset="1"/>
  </linearGradient>
  <linearGradient id="linearGradient1056" x1="30.946" x2="30.946" y1="11.199" y2="9.3642" gradientTransform="matrix(1 0 0 .54079 3.2497 4.869)" gradientUnits="userSpaceOnUse">
   <stop stop-color="#212020" offset="0"/>
   <stop stop-color="#212020" offset=".28446"/>
   <stop stop-color="#374550" offset=".63483"/>
   <stop stop-color="#fefefe" offset=".67901"/>
   <stop stop-color="#fff" offset=".76713"/>
   <stop stop-color="#374550" offset=".79259"/>
   <stop stop-color="#212020" offset="1"/>
  </linearGradient>
  <linearGradient id="linearGradient1129" x1="25.135" x2="25.135" y1="11.222" y2="9.3897" gradientTransform="translate(-10.229 .14366)" gradientUnits="userSpaceOnUse">
   <stop stop-color="#212020" offset="0"/>
   <stop stop-color="#212020" offset=".28446"/>
   <stop stop-color="#374550" offset=".63483"/>
   <stop stop-color="#212020" offset="1"/>
  </linearGradient>
  <linearGradient id="linearGradient1161" x1="17.367" x2="17.367" y1="10.635" y2="10.254" gradientUnits="userSpaceOnUse">
   <stop stop-color="#212020" offset="0"/>
   <stop stop-color="#212020" offset=".28446"/>
   <stop stop-color="#374550" offset=".63483"/>
   <stop stop-color="#374550" offset=".79259"/>
   <stop stop-color="#212020" offset="1"/>
  </linearGradient>
  <linearGradient id="linearGradient1181" x1="17.367" x2="17.367" y1="10.635" y2="10.254" gradientTransform="matrix(1 0 0 .66667 -.43399 3.49)" gradientUnits="userSpaceOnUse">
   <stop stop-color="#212020" offset="0"/>
   <stop stop-color="#1c2328" offset=".63329"/>
   <stop stop-color="#212020" offset="1"/>
  </linearGradient>
 </defs>
 <g shape-rendering="auto">
  <path d="m4.3693 0.52916c-2.1142 0-3.8402 1.7835-3.8402 3.9682v8.4675c0 2.1846 1.726 3.9682 3.8402 3.9682h8.1944c2.1142 0 3.8402-1.7835 3.8402-3.9682v-8.4675c0-2.1846-1.726-3.9682-3.8402-3.9682zm0.25704 0.52089h7.6808c1.8443 0 3.3291 1.5342 3.3291 3.44v7.9368c0 1.9058-1.4847 3.44-3.3291 3.44h-7.6808c-1.8443 0-3.3291-1.5342-3.3291-3.44v-7.9368c0-1.9058 1.4847-3.44 3.3291-3.44z" color="#000000" color-rendering="auto" dominant-baseline="auto" image-rendering="auto" opacity=".01" solid-color="#000000" stop-color="#000000" style="font-feature-settings:normal;font-variant-alternates:normal;font-variant-caps:normal;font-variant-east-asian:normal;font-variant-ligatures:normal;font-variant-numeric:normal;font-variant-position:normal;font-variation-settings:normal;inline-size:0;isolation:auto;mix-blend-mode:normal;shape-margin:0;shape-padding:0;text-decoration-color:#000000;text-decoration-line:none;text-decoration-style:solid;text-indent:0;text-orientation:mixed;text-transform:none;white-space:normal"/>
  <path d="m4.3587 0.79373c-1.9668 0-3.5639 1.6528-3.5639 3.6876v8.4996c0 2.0348 1.5971 3.6876 3.5639 3.6876h8.2162c1.9668 0 3.5644-1.6528 3.5644-3.6876v-8.4996c0-2.0348-1.5976-3.6876-3.5644-3.6876zm0.27222 0.25631h7.6718c1.8422 0 3.3251 1.5342 3.3251 3.44v7.9368c0 1.9058-1.483 3.44-3.3251 3.44h-7.6718c-1.8422 0-3.3251-1.5342-3.3251-3.44v-7.9368c0-1.9058 1.483-3.44 3.3251-3.44z" color="#000000" color-rendering="auto" dominant-baseline="auto" image-rendering="auto" opacity=".01" solid-color="#000000" stop-color="#000000" style="font-feature-settings:normal;font-variant-alternates:normal;font-variant-caps:normal;font-variant-east-asian:normal;font-variant-ligatures:normal;font-variant-numeric:normal;font-variant-position:normal;font-variation-settings:normal;inline-size:0;isolation:auto;mix-blend-mode:normal;shape-margin:0;shape-padding:0;text-decoration-color:#000000;text-decoration-line:none;text-decoration-style:solid;text-indent:0;text-orientation:mixed;text-transform:none;white-space:normal"/>
  <path d="m4.3097 1.0583c-1.8657 0-3.3751 1.5383-3.3751 3.439v8.4675c0 1.9007 1.57 3.439 3.4357 3.439h8.1996c1.8657 0 3.4274-1.5383 3.4274-3.439v-8.4675c0-1.9007-1.51-3.439-3.3756-3.439h-0.09688c1.794 0.086515 3.2138 1.5819 3.2138 3.4318v7.9368c0 1.9058-1.5059 3.44-3.3766 3.44h-7.7905c-1.8707 0-3.3766-1.5342-3.3766-3.44v-7.9368c0-1.8498 1.4199-3.3451 3.2138-3.4318z" color="#000000" color-rendering="auto" dominant-baseline="auto" image-rendering="auto" opacity=".03" solid-color="#000000" stop-color="#000000" style="font-feature-settings:normal;font-variant-alternates:normal;font-variant-caps:normal;font-variant-east-asian:normal;font-variant-ligatures:normal;font-variant-numeric:normal;font-variant-position:normal;font-variation-settings:normal;inline-size:0;isolation:auto;mix-blend-mode:normal;shape-margin:0;shape-padding:0;text-decoration-color:#000000;text-decoration-line:none;text-decoration-style:solid;text-indent:0;text-orientation:mixed;text-transform:none;white-space:normal"/>
  <path transform="scale(.26458)" d="m4 46.969v2.0312c0 6.6479 5.8957 12 12.544 12h30.961c6.6479 0 12.495-5.3521 12.495-12v-1.9922c-0.02117 7.1849-5.81 12.963-13 12.963h-29.998c-7.2032 0-13.002-5.7987-13.002-13.002z" color="#000000" color-rendering="auto" dominant-baseline="auto" image-rendering="auto" opacity=".03" solid-color="#000000" stop-color="#000000" style="font-feature-settings:normal;font-variant-alternates:normal;font-variant-caps:normal;font-variant-east-asian:normal;font-variant-ligatures:normal;font-variant-numeric:normal;font-variant-position:normal;font-variation-settings:normal;inline-size:0;isolation:auto;mix-blend-mode:normal;shape-margin:0;shape-padding:0;text-decoration-color:#000000;text-decoration-line:none;text-decoration-style:solid;text-indent:0;text-orientation:mixed;text-transform:none;white-space:normal"/>
  <path d="m1.0583 11.906v0.59234c0 1.9386 1.5729 3.4993 3.3318 3.4993h8.1603c1.7589 0 3.3243-1.5608 3.3243-3.4993v-0.58095c-0.0056 2.0952-1.5372 3.7801-3.4395 3.7801h-7.9368c-1.9058 0-3.44-1.691-3.44-3.7915z" color="#000000" color-rendering="auto" dominant-baseline="auto" image-rendering="auto" opacity=".05" solid-color="#000000" stop-color="#000000" style="font-feature-settings:normal;font-variant-alternates:normal;font-variant-caps:normal;font-variant-east-asian:normal;font-variant-ligatures:normal;font-variant-numeric:normal;font-variant-position:normal;font-variation-settings:normal;inline-size:0;isolation:auto;mix-blend-mode:normal;shape-margin:0;shape-padding:0;text-decoration-color:#000000;text-decoration-line:none;text-decoration-style:solid;text-indent:0;text-orientation:mixed;text-transform:none;white-space:normal"/>
 </g>
 <rect x="1.0583" y="1.05" width="14.817" height="14.817" rx="3.4401" ry="3.4401" fill="url(#linearGradient862)"/>
 <g transform="translate(0 .26458)" opacity=".25" stroke-linecap="round" stroke-linejoin="round" stroke-opacity=".35" stroke-width=".074834">
  <rect x="2.3812" y="3.9687" width="12.171" height=".13229" rx="0" ry=".066145" opacity=".75"/>
  <rect x="2.3812" y="6.0853" width="12.171" height=".13229" rx="0" ry=".066145" opacity=".75"/>
  <rect x="2.3812" y="8.2019" width="12.171" height=".13229" rx="0" ry=".066145" opacity=".75"/>
  <rect x="2.3812" y="10.054" width="12.171" height=".13229" rx="0" ry=".066145" opacity=".75"/>
  <rect x="2.3812" y="12.171" width="12.171" height=".13229" rx="0" ry=".066145" opacity=".75"/>
 </g>
 <g fill="#666" stroke-width=".019517" aria-label="editor {    border: 1px solid black;      color: white;    background: transparent;  }">
  <path d="m3.4295 3.619q0 0.028741-0.071464 0.052044-0.059035 0.018643-0.097097 0.018643-0.12195 0-0.12195-0.10642 0-0.068357 0.046607-0.12428 0.052821-0.064473 0.1305-0.064473 0.049714 0 0.080008 0.020196t0.030294 0.04583q0 0.046607-0.09166 0.09399-0.076901 0.039616-0.10487 0.039616-0.02175 0-0.02175-0.02641 0-0.00854 0.081562-0.041946 0.082339-0.034178 0.082339-0.056705 0-0.00932-0.012429-0.017089-0.013982-0.00544-0.0435-0.00544-0.058258 0-0.092437 0.041169-0.031071 0.038062-0.031071 0.09399 0 0.027187 0.015536 0.041946t0.049714 0.014759q0.038839 0 0.07224-0.015536l0.074571-0.034955q0.024857 0 0.024857 0.031071z"/>
  <path d="m3.7985 3.2073-0.076901 0.46374q-0.00311 0.018643-0.029518 0.018643-0.024857 0-0.024857-0.029518l0.00311-0.020196-0.038839 0.022527q-0.039616 0.022527-0.084669 0.022527-0.027964 0-0.055928-0.020196-0.039616-0.028741-0.039616-0.081562 0-0.066026 0.051267-0.12118 0.059812-0.066026 0.15769-0.066026h0.017866q0.00544 0 0.014759 0.00155l0.017866 0.00311 0.032625-0.19653q0-0.018643 0.029518-0.02175 0.012428 0 0.020973 0.010098 0.00466 0.00699 0.00466 0.014759zm-0.097097 0.24935q-0.00466-0.00466-0.051267-0.00466-0.068357 0-0.10875 0.047384-0.033401 0.038062-0.033401 0.088553 0 0.022527 0.016312 0.032625 0.011652 0.00854 0.025634 0.00854 0.031848 0 0.077678-0.023303 0.030294-0.015536 0.053598-0.034955z"/>
  <path d="m3.953 3.3184q0 0.025634-0.02175 0.033402-0.00621 0.00233-0.015535 0.00233-0.014759 0-0.024857-0.00932t-0.010098-0.02641q0-0.035732 0.034955-0.035732 0.015535 0 0.027187 0.00854 0.010098 0.010875 0.010098 0.027187zm-0.027964 0.10564q0 0.013982-0.00466 0.044276l-0.032625 0.19808q0 0.010098-0.010098 0.016312-0.00932 0.00699-0.019419 0.00699-0.022527 0-0.025634-0.02641l0.00544-0.038062 0.034178-0.20274q0.00388-0.02175 0.027964-0.02175 0.024857 0 0.024857 0.023303z"/>
  <path d="m4.2467 3.4163q0 0.011652-0.00699 0.018643-0.00777 0.00854-0.01942 0.010098l-0.082339 0.00699-0.034955 0.21284q-0.00388 0.020196-0.031071 0.023303-0.024857 0-0.024857-0.024857l0.034178-0.20662-0.073017 0.00699q-0.00932 0-0.017866-0.00854-0.00777-0.00621-0.00932-0.017089 0-0.013982 0.00621-0.020973 0.00699-0.00777 0.018643-0.00854l0.084669-0.00621 0.017089-0.11574q0.00388-0.02175 0.027964-0.02175 0.00932 0 0.018643 0.00699 0.00777 0.00854 0.00777 0.020973l-0.015536 0.10331 0.073794-0.00621q0.00854 0 0.017089 0.00621 0.00777 0.00699 0.00932 0.020196z"/>
  <path d="m4.5589 3.5149q0 0.072241-0.046607 0.1204-0.046607 0.04816-0.12662 0.04816-0.059812 0-0.092437-0.041169-0.027964-0.035732-0.027964-0.093214 0-0.059035 0.0435-0.10331 0.049714-0.051267 0.12817-0.051267 0.059035 0 0.093213 0.039616 0.028741 0.034178 0.028741 0.080785zm-0.052821 0.00932q0-0.028741-0.017089-0.050491-0.020973-0.025634-0.062919-0.025634-0.044276 0-0.076124 0.032625-0.027964 0.028741-0.027964 0.06525 0 0.081562 0.074571 0.081562 0.045053 0 0.076901-0.031071 0.032625-0.031071 0.032625-0.07224z"/>
  <path d="m4.8805 3.424q0 0.02175-0.013982 0.027964-0.00932 0.00466-0.029518 0.00466-0.071464 0-0.13361 0.050491-0.046607 0.037285-0.056705 0.068357l-0.013982 0.092437q-0.00311 0.020196-0.028741 0.020196-0.02408 0-0.027964-0.02641l0.039616-0.23769q0.00388-0.024857 0.027187-0.024857 0.027187 0 0.027187 0.029518l-0.00699 0.0435q0.042723-0.039616 0.080008-0.052821 0.047384-0.017089 0.10797-0.017089 0.029518 0 0.029518 0.02175z"/>
  <path d="m5.4965 3.8039q-0.069133 0-0.094767-0.022526-0.027187-0.024857-0.027187-0.093214v-0.12506q0-0.044276-0.010098-0.062142t-0.048937-0.028741q0.046607-0.011652 0.055928-0.052821 0.00311-0.013205 0.00311-0.034178v-0.13749q0-0.064473 0.028741-0.086999 0.023303-0.019419 0.093214-0.019419-0.038062 0.010098-0.052821 0.033401-0.012429 0.020196-0.012429 0.062142v0.13594q0 0.045053-0.010098 0.064473-0.012429 0.02408-0.052044 0.034955 0.039616 0.010875 0.052044 0.038062 0.010098 0.020196 0.010098 0.068357v0.12972q0 0.038839 0.014759 0.062919 0.014759 0.024857 0.050491 0.032625z"/>
  <path d="m4.2187 5.4464q0 0.1002-0.083115 0.15225-0.059035 0.036509-0.12118 0.036509-0.029518 0-0.029518-0.02641 0-0.029518 0.02641-0.029518 0.042723 0 0.087776-0.025634 0.064473-0.034955 0.064473-0.099428 0-0.048937-0.045053-0.048937-0.038062 0-0.082339 0.023303l-0.045053 0.02408-0.02641 0.16235q-0.00388 0.023303-0.031071 0.023303-0.010875 0-0.017866-0.010098-0.00621-0.00854-0.00621-0.01942l0.076901-0.45752q0.00466-0.018643 0.029518-0.02175 0.010098 0 0.017866 0.00699 0.00699 0.00777 0.00699 0.025634l-0.037285 0.22138 0.039616-0.016312q0.039616-0.016312 0.085446-0.016312 0.032625 0 0.056705 0.017866 0.033402 0.025634 0.033402 0.077678z"/>
  <path d="m4.531 5.4666q0 0.07224-0.046607 0.1204t-0.12662 0.04816q-0.059812 0-0.092437-0.041169-0.027964-0.035732-0.027964-0.093214 0-0.059035 0.0435-0.10331 0.049714-0.051267 0.12817-0.051267 0.059035 0 0.093213 0.039616 0.028741 0.034178 0.028741 0.080785zm-0.052821 0.00932q0-0.028741-0.017089-0.050491-0.020973-0.025634-0.062919-0.025634-0.044276 0-0.076124 0.032625-0.027964 0.028741-0.027964 0.065249 0 0.081562 0.074571 0.081562 0.045053 0 0.076901-0.031071 0.032625-0.031071 0.032625-0.072241z"/>
  <path d="m4.8525 5.3757q0 0.02175-0.013982 0.027964-0.00932 0.00466-0.029518 0.00466-0.071464 0-0.13361 0.050491-0.046607 0.037285-0.056705 0.068357l-0.013982 0.092437q-0.00311 0.020196-0.028741 0.020196-0.02408 0-0.027964-0.02641l0.039616-0.23769q0.00388-0.024857 0.027187-0.024857 0.027187 0 0.027187 0.029518l-0.00699 0.0435q0.042723-0.039616 0.080008-0.052821 0.047384-0.017089 0.10797-0.017089 0.029518 0 0.029518 0.02175z"/>
  <path d="m5.2215 5.159-0.076901 0.46374q-0.00311 0.018643-0.029518 0.018643-0.024857 0-0.024857-0.029518l0.00311-0.020196-0.038839 0.022527q-0.039616 0.022527-0.084669 0.022527-0.027964 0-0.055928-0.020196-0.039616-0.028741-0.039616-0.081562 0-0.066026 0.051267-0.12118 0.059812-0.066026 0.15769-0.066026h0.017866q0.00544 0 0.014759 0.00155l0.017866 0.00311 0.032625-0.19653q0-0.018643 0.029518-0.02175 0.012428 0 0.020973 0.010098 0.00466 0.00699 0.00466 0.014759zm-0.097097 0.24935q-0.00466-0.00466-0.051267-0.00466-0.068357 0-0.10875 0.047384-0.033402 0.038062-0.033402 0.088553 0 0.022527 0.016312 0.032625 0.011652 0.00854 0.025634 0.00854 0.031848 0 0.077678-0.023303 0.030294-0.015536 0.053598-0.034955z"/>
  <path d="m5.5353 5.5707q0 0.028741-0.071464 0.052044-0.059035 0.018643-0.097097 0.018643-0.12195 0-0.12195-0.10642 0-0.068357 0.046607-0.12428 0.052821-0.064473 0.1305-0.064473 0.049714 0 0.080008 0.020196t0.030294 0.04583q0 0.046607-0.09166 0.09399-0.076901 0.039616-0.10487 0.039616-0.02175 0-0.02175-0.026411 0-0.00854 0.081562-0.041946 0.082339-0.034178 0.082339-0.056705 0-0.00932-0.012429-0.017089-0.013982-0.00544-0.0435-0.00544-0.058258 0-0.092437 0.041169-0.031071 0.038062-0.031071 0.09399 0 0.027187 0.015536 0.041946t0.049714 0.014759q0.038839 0 0.07224-0.015536l0.074571-0.034955q0.024857 0 0.024857 0.031071z"/>
  <path d="m5.8569 5.3757q0 0.02175-0.013982 0.027964-0.00932 0.00466-0.029518 0.00466-0.071464 0-0.13361 0.050491-0.046607 0.037285-0.056705 0.068357l-0.013982 0.092437q-0.00311 0.020196-0.028741 0.020196-0.02408 0-0.027964-0.02641l0.039616-0.23769q0.00388-0.024857 0.027187-0.024857 0.027187 0 0.027187 0.029518l-0.00699 0.0435q0.042723-0.039616 0.080008-0.052821 0.047383-0.017089 0.10797-0.017089 0.029518 0 0.029518 0.02175z"/>
  <path d="m5.9447 5.3633q0 0.013982-0.010098 0.02408-0.00932 0.00932-0.022527 0.00932-0.033402 0-0.033402-0.033402 0-0.032625 0.031848-0.032625 0.034178 0 0.034178 0.032625zm-0.020973 0.2408q0 0.013982-0.00932 0.02408-0.00854 0.010098-0.023303 0.010098-0.032625 0-0.032625-0.034178 0-0.015536 0.010098-0.02408 0.010098-0.00932 0.022527-0.00932 0.032625 0 0.032625 0.033402z"/>
  <path d="m6.5816 5.145-0.078455 0.4684q-0.00155 0.011652-0.013205 0.017866-0.00932 0.00699-0.020973 0.00699-0.00777 0-0.016312-0.010098-0.00854-0.010098-0.00854-0.025634l0.066798-0.40315-0.016312 0.010098q-0.00932 0.00388-0.019419 0.00388-0.02408 0-0.02641-0.023303 0-0.029518 0.052044-0.053598 0.0435-0.020196 0.06991-0.020196 0.010875 0 0.010875 0.028741z"/>
  <path d="m6.9172 5.4464q0 0.06758-0.069133 0.12506-0.066026 0.054375-0.13516 0.054375-0.00854 0-0.015536-0.00854-0.00777-0.00777-0.00777-0.017866 0-0.027964 0.023303-0.027964 0.057482 0 0.10564-0.047383 0.042723-0.041946 0.042723-0.083892 0-0.0435-0.033401-0.0435-0.024857 0-0.079231 0.020196-0.059035 0.023303-0.062142 0.041946l-0.065249 0.38761q-0.00388 0.020196-0.033402 0.020196-0.010098 0-0.017089-0.010875-0.00621-0.00932-0.00621-0.020973l0.080785-0.4684q0.00388-0.019419 0.010098-0.025634 0.00699-0.00699 0.023303-0.00699 0.024857 0 0.023303 0.020196l-0.00155 0.025634q0.061366-0.036509 0.11574-0.036509 0.037285 0 0.062142 0.016312 0.038839 0.025634 0.038839 0.086999z"/>
  <path d="m7.1782 5.3679q0 0.013982-0.023303 0.034178-0.069133 0.059812-0.078455 0.075348l0.039616 0.074571q0.02175 0.040392 0.02175 0.047383 0 0.013205-0.010875 0.022527-0.010098 0.00854-0.02408 0.00854-0.00777 0-0.019419-0.02408-0.025634-0.054374-0.04583-0.088553-0.011652 0.014759-0.065249 0.093214-0.012429 0.017866-0.02408 0.019419-0.010875 0-0.018643-0.00854-0.00777-0.00854-0.010098-0.017866 0-0.012429 0.017866-0.034955 0.045053-0.058258 0.073794-0.099428l-0.041946-0.076124q-0.00699-0.011652-0.00854-0.02408 0-0.023303 0.030294-0.027964 0.00699 0 0.015536 0.00932l0.041946 0.078455q0.079232-0.08933 0.10331-0.08933 0.011652 0 0.018643 0.00854 0.00777 0.00854 0.00777 0.019419z"/>
  <path d="m7.8128 5.3819q0 0.013205-0.00699 0.022527-0.00854 0.010875-0.020196 0.010875-0.00544 0-0.035732-0.011652-0.029518-0.012428-0.050491-0.012428-0.034955 0-0.037285 0.022527 0 0.017866 0.038062 0.034955 0.063696 0.028741 0.070687 0.033401 0.038062 0.02408 0.038062 0.059812 0 0.055151-0.037285 0.080008-0.02641 0.017866-0.066026 0.017866-0.062919 0-0.08933-0.010098t-0.026411-0.027187q0-0.027187 0.023303-0.031848l0.041169 0.011652q0.016312 0.00466 0.040393 0.00466 0.057482 0 0.057482-0.038062 0-0.017866-0.037285-0.037285-0.066026-0.032625-0.06991-0.035732-0.038062-0.025634-0.038062-0.059035 0-0.038062 0.034178-0.058258 0.027964-0.015536 0.069133-0.015536 0.027964 0 0.059035 0.00854 0.0435 0.010875 0.0435 0.030294z"/>
  <path d="m8.1251 5.4666q0 0.07224-0.046607 0.1204t-0.12662 0.04816q-0.059812 0-0.092437-0.041169-0.027964-0.035732-0.027964-0.093214 0-0.059035 0.0435-0.10331 0.049714-0.051267 0.12817-0.051267 0.059035 0 0.093214 0.039616 0.028741 0.034178 0.028741 0.080785zm-0.052821 0.00932q0-0.028741-0.017089-0.050491-0.020973-0.025634-0.062919-0.025634-0.044276 0-0.076124 0.032625-0.027964 0.028741-0.027964 0.065249 0 0.081562 0.074571 0.081562 0.045053 0 0.076901-0.031071 0.032625-0.031071 0.032625-0.072241z"/>
  <path d="m8.2859 5.1574-0.078455 0.45908q-0.00388 0.023303-0.032625 0.023303-0.00854 0-0.016312-0.00777-0.00388-0.00621-0.00544-0.018643l0.076901-0.45908q0.00311-0.020196 0.027964-0.020196 0.011652 0 0.018643 0.00544 0.00777 0.00544 0.00932 0.017866z"/>
  <path d="m8.4405 5.27q0 0.025634-0.02175 0.033402-0.00621 0.00233-0.015535 0.00233-0.014759 0-0.024857-0.00932t-0.010098-0.02641q0-0.035732 0.034955-0.035732 0.015535 0 0.027187 0.00854 0.010098 0.010875 0.010098 0.027187zm-0.027964 0.10564q0 0.013982-0.00466 0.044276l-0.032625 0.19808q0 0.010098-0.010098 0.016312-0.00932 0.00699-0.019419 0.00699-0.022527 0-0.025634-0.026411l0.00544-0.038062 0.034178-0.20274q0.00388-0.02175 0.027964-0.02175 0.024857 0 0.024857 0.023303z"/>
  <path d="m8.8094 5.159-0.076901 0.46374q-0.00311 0.018643-0.029518 0.018643-0.024857 0-0.024857-0.029518l0.00311-0.020196-0.038839 0.022527q-0.039616 0.022527-0.084669 0.022527-0.027964 0-0.055928-0.020196-0.039616-0.028741-0.039616-0.081562 0-0.066026 0.051267-0.12118 0.059812-0.066026 0.15769-0.066026h0.017866q0.00544 0 0.014759 0.00155l0.017866 0.00311 0.032625-0.19653q0-0.018643 0.029518-0.02175 0.012428 0 0.020973 0.010098 0.00466 0.00699 0.00466 0.014759zm-0.097097 0.24935q-0.00466-0.00466-0.051267-0.00466-0.068357 0-0.10875 0.047384-0.033402 0.038062-0.033402 0.088553 0 0.022527 0.016312 0.032625 0.011652 0.00854 0.025634 0.00854 0.031848 0 0.077678-0.023303 0.030294-0.015536 0.053598-0.034955z"/>
  <path d="m9.5241 5.4464q0 0.1002-0.083115 0.15225-0.059035 0.036509-0.12118 0.036509-0.029518 0-0.029518-0.02641 0-0.029518 0.02641-0.029518 0.042723 0 0.087776-0.025634 0.064473-0.034955 0.064473-0.099428 0-0.048937-0.045053-0.048937-0.038062 0-0.082339 0.023303l-0.045053 0.02408-0.02641 0.16235q-0.00388 0.023303-0.031071 0.023303-0.010875 0-0.017866-0.010098-0.00621-0.00854-0.00621-0.01942l0.076901-0.45752q0.00466-0.018643 0.029518-0.02175 0.010098 0 0.017866 0.00699 0.00699 0.00777 0.00699 0.025634l-0.037285 0.22138 0.039616-0.016312q0.039616-0.016312 0.085446-0.016312 0.032625 0 0.056705 0.017866 0.033402 0.025634 0.033402 0.077678z"/>
  <path d="m9.6849 5.1574-0.078455 0.45908q-0.00388 0.023303-0.032625 0.023303-0.00854 0-0.016312-0.00777-0.00388-0.00621-0.00544-0.018643l0.076901-0.45908q0.00311-0.020196 0.027964-0.020196 0.011652 0 0.018643 0.00544 0.00777 0.00544 0.00932 0.017866z"/>
  <path d="m10.022 5.3772q-0.043499 0.13283-0.043499 0.23769 0 0.023303-0.02641 0.026411-0.013205 0-0.02175-0.010098-0.00777-0.00932-0.00777-0.022527-0.025634 0.031071-0.090883 0.031071-0.044277 0-0.080785-0.031071-0.042723-0.036509-0.042723-0.09399 0-0.071464 0.055928-0.11807 0.052821-0.044276 0.12584-0.044276 0.035732 0 0.046607 0.00854 0.00777 0.00544 0.00777 0.01942 0 0.010875-0.00621 0.019419-0.00699 0.00699-0.025634 0.00699-0.056705 0-0.097874 0.02408-0.049714 0.029518-0.049714 0.082339 0 0.038839 0.025634 0.056705 0.017866 0.012428 0.042723 0.012428 0.048937 0 0.090883-0.033402 0.022527-0.12506 0.039616-0.16623 0.012428-0.030294 0.031848-0.030294 0.024857 0 0.02641 0.024857z"/>
  <path d="m10.337 5.3835q0 0.012429-0.0078 0.01942-0.0078 0.00932-0.0202 0.00932l-0.02486-0.00777q-0.02408-0.00621-0.04505-0.00621-0.05981 0-0.10486 0.046607-0.04039 0.041946-0.04039 0.086999 0 0.02175 0.01476 0.036509 0.01476 0.013982 0.03962 0.013982 0.03806 0 0.06603-0.014759l0.06214-0.031071q0.02641 0 0.02641 0.027187 0 0.027964-0.06292 0.053598-0.05438 0.020973-0.08855 0.020973-0.04738 0-0.08001-0.028741-0.03262-0.028741-0.03262-0.076124 0-0.070687 0.05127-0.12662 0.05903-0.063696 0.15225-0.063696 0.03651 0 0.06525 0.013205 0.02952 0.012429 0.02952 0.027187z"/>
  <path d="m10.636 5.6149q0 0.010098-0.0101 0.019419-0.0093 0.010098-0.01942 0.010098-0.0039 0-0.08001-0.090883-0.08389-0.098651-0.08855-0.10409l-0.02796 0.16856q0 0.019419-0.02874 0.023303-0.01165 0-0.01864-0.00777-0.0078-0.00699-0.0078-0.020196l0.0769-0.45908q0.0016-0.010875 0.0085-0.015536 0.0054-0.00466 0.01942-0.00466 0.0093 0 0.01787 0.00777 0.0093 0.00777 0.0101 0.017089l-0.03884 0.22294q0.04272-0.01942 0.11496-0.057482 0.01942-0.010098 0.0334-0.012429 0.0093 0 0.01709 0.010098 0.0078 0.00932 0.0078 0.019419 7.77e-4 0.033402-0.13283 0.082339 0.02952 0.029518 0.04583 0.04816 0.01631 0.018643 0.04816 0.059035 0.05282 0.06758 0.05282 0.083892z"/>
  <path d="m10.723 5.3633q0 0.013982-0.0101 0.02408-0.0093 0.00932-0.02253 0.00932-0.0334 0-0.0334-0.033402 0-0.032625 0.03185-0.032625 0.03418 0 0.03418 0.032625zm-0.01398 0.24236q0 0.022527-0.02253 0.048937t-0.03729 0.02641q-0.0062-0.00155-0.0078-0.00388 0-0.00699 0.0047-0.01942 0.0047-0.011652 0.0047-0.019419l-7e-3 -0.018643q-0.0023-0.00621-0.0039-0.020196 0-0.013205 0.01243-0.020973 0.0101-0.00777 0.02408-0.00777 0.03263 0.00388 0.03263 0.034955z"/>
  <path d="m4.2078 7.3351q0 0.012428-0.00777 0.019419-0.00777 0.00932-0.020196 0.00932l-0.024857-0.00777q-0.02408-0.00621-0.045053-0.00621-0.059812 0-0.10487 0.046607-0.040392 0.041946-0.040392 0.086999 0 0.02175 0.014759 0.036509 0.014759 0.013982 0.039616 0.013982 0.038062 0 0.066026-0.014759l0.062142-0.031071q0.02641 0 0.02641 0.027187 0 0.027964-0.062919 0.053598-0.054374 0.020973-0.088553 0.020973-0.047383 0-0.080008-0.028741t-0.032625-0.076124q0-0.070687 0.051267-0.12662 0.059035-0.063696 0.15225-0.063696 0.036509 0 0.065249 0.013205 0.029518 0.012429 0.029518 0.027187z"/>
  <path d="m4.5201 7.4182q0 0.07224-0.046607 0.1204t-0.12661 0.04816q-0.059812 0-0.092437-0.041169-0.027964-0.035732-0.027964-0.093214 0-0.059035 0.0435-0.10331 0.049714-0.051267 0.12817-0.051267 0.059035 0 0.093214 0.039616 0.028741 0.034178 0.028741 0.080785zm-0.052821 0.00932q0-0.028741-0.017089-0.050491-0.020973-0.025634-0.062919-0.025634-0.044276 0-0.076124 0.032625-0.027964 0.028741-0.027964 0.065249 0 0.081562 0.074571 0.081562 0.045053 0 0.076901-0.031071 0.032625-0.031071 0.032625-0.072241z"/>
  <path d="m4.6809 7.1091-0.078455 0.45908q-0.00388 0.023303-0.032625 0.023303-0.00854 0-0.016312-0.00777-0.00388-0.00621-0.00544-0.018643l0.076901-0.45908q0.00311-0.020196 0.027964-0.020196 0.011652 0 0.018643 0.00544 0.00777 0.00544 0.00932 0.017866z"/>
  <path d="m4.9931 7.4182q0 0.07224-0.046607 0.1204t-0.12662 0.04816q-0.059812 0-0.092437-0.041169-0.027964-0.035732-0.027964-0.093214 0-0.059035 0.0435-0.10331 0.049714-0.051267 0.12817-0.051267 0.059035 0 0.093214 0.039616 0.028741 0.034178 0.028741 0.080785zm-0.052821 0.00932q0-0.028741-0.017089-0.050491-0.020973-0.025634-0.062919-0.025634-0.044276 0-0.076124 0.032625-0.027964 0.028741-0.027964 0.065249 0 0.081562 0.074571 0.081562 0.045053 0 0.076901-0.031071 0.032625-0.031071 0.032625-0.072241z"/>
  <path d="m5.3147 7.3273q0 0.02175-0.013982 0.027964-0.00932 0.00466-0.029518 0.00466-0.071464 0-0.13361 0.050491-0.046607 0.037285-0.056705 0.068357l-0.013982 0.092437q-0.00311 0.020196-0.028741 0.020196-0.02408 0-0.027964-0.02641l0.039616-0.23769q0.00388-0.024857 0.027187-0.024857 0.027187 0 0.027187 0.029518l-0.00699 0.0435q0.042723-0.039616 0.080008-0.052821 0.047383-0.017089 0.10797-0.017089 0.029518 0 0.029518 0.02175z"/>
  <path d="m5.4025 7.3149q0 0.013982-0.010098 0.02408-0.00932 0.00932-0.022527 0.00932-0.033402 0-0.033402-0.033402 0-0.032625 0.031848-0.032625 0.034178 0 0.034178 0.032625zm-0.020973 0.2408q0 0.013982-0.00932 0.02408-0.00854 0.010098-0.023303 0.010098-0.032625 0-0.032625-0.034178 0-0.015536 0.010098-0.02408 0.010098-0.00932 0.022527-0.00932 0.032625 0 0.032625 0.033402z"/>
  <path d="m6.344 7.3312q-0.073794 0.12351-0.13283 0.1973-0.050491 0.062919-0.071464 0.062919-0.028741 0-0.059812-0.17478-0.029518 0.038839-0.083892 0.097097-0.070687 0.076124-0.090883 0.076124-0.017089 0-0.048937-0.10953-0.031071-0.1103-0.031071-0.16079 0-0.027964 0.027964-0.027964 0.025634 0 0.033402 0.059812 0.011652 0.096321 0.038839 0.1538 0.062919-0.055928 0.10331-0.11263 0.047383-0.066803 0.065249-0.066803 0.023303 0 0.041169 0.076124 0.00932 0.050491 0.020196 0.1002l0.020973-0.02408q0.02175-0.02408 0.053598-0.069133 0.044276-0.062142 0.070687-0.10953z"/>
  <path d="m6.6655 7.4011q0 0.052821-0.010875 0.10797-0.015536 0.082339-0.04816 0.082339-0.027964 0-0.027964-0.02641l0.020196-0.079231q0.00932-0.037285 0.00932-0.075348 0-0.031848-0.00388-0.040393-0.00233-0.010098-0.014759-0.010098-0.023303 0-0.087776 0.042723-0.065249 0.042723-0.068357 0.063696l-0.017089 0.10331q-0.00388 0.02175-0.031071 0.02175-0.010098 0-0.016312-0.00932-0.00621-0.00854-0.00777-0.02175l0.076901-0.45442q0.00155-0.00932 0.00854-0.014759 0.00699-0.00544 0.01942-0.00699 0.011652 0 0.018643 0.00854 0.00777 0.00777 0.00777 0.019419l-0.0435 0.26177q0.057482-0.039616 0.086999-0.054375 0.041169-0.020196 0.076901-0.020196 0.026411 0 0.041169 0.039616 0.011652 0.030294 0.011652 0.062142z"/>
  <path d="m6.8201 7.2217q0 0.025634-0.02175 0.033402-0.00621 0.00233-0.015536 0.00233-0.014759 0-0.024857-0.00932t-0.010098-0.02641q0-0.035732 0.034955-0.035732 0.015536 0 0.027187 0.00854 0.010098 0.010875 0.010098 0.027187zm-0.027964 0.10564q0 0.013982-0.00466 0.044276l-0.032625 0.19808q0 0.010098-0.010098 0.016312-0.00932 0.00699-0.019419 0.00699-0.022527 0-0.025634-0.02641l0.00544-0.038062 0.034178-0.20274q0.00388-0.02175 0.027964-0.02175 0.024857 0 0.024857 0.023303z"/>
  <path d="m7.1137 7.3196q0 0.011652-0.00699 0.018643-0.00777 0.00854-0.019419 0.010098l-0.082339 0.00699-0.034955 0.21284q-0.00388 0.020196-0.031071 0.023303-0.024857 0-0.024857-0.024857l0.034178-0.20662-0.073017 0.00699q-0.00932 0-0.017866-0.00854-0.00777-0.00621-0.00932-0.017089 0-0.013982 0.00621-0.020973 0.00699-0.00777 0.018643-0.00854l0.084669-0.00621 0.017089-0.11574q0.00388-0.02175 0.027964-0.02175 0.00932 0 0.018643 0.00699 0.00777 0.00854 0.00777 0.020973l-0.015535 0.10331 0.073794-0.00621q0.00854 0 0.017089 0.00621 0.00777 0.00699 0.00932 0.020196z"/>
  <path d="m7.4276 7.5223q0 0.028741-0.071464 0.052044-0.059035 0.018643-0.097097 0.018643-0.12195 0-0.12195-0.10642 0-0.068357 0.046607-0.12428 0.052821-0.064473 0.1305-0.064473 0.049714 0 0.080008 0.020196t0.030294 0.04583q0 0.046607-0.09166 0.09399-0.076901 0.039616-0.10487 0.039616-0.02175 0-0.02175-0.02641 0-0.00854 0.081562-0.041946 0.082339-0.034178 0.082339-0.056705 0-0.00932-0.012428-0.017089-0.013982-0.00544-0.0435-0.00544-0.058258 0-0.092437 0.041169-0.031071 0.038062-0.031071 0.09399 0 0.027187 0.015536 0.041946t0.049714 0.014759q0.038839 0 0.072241-0.015536l0.074571-0.034955q0.024857 0 0.024857 0.031071z"/>
  <path d="m7.5153 7.3149q0 0.013982-0.010098 0.02408-0.00932 0.00932-0.022527 0.00932-0.033402 0-0.033402-0.033402 0-0.032625 0.031848-0.032625 0.034178 0 0.034178 0.032625zm-0.013982 0.24236q0 0.022527-0.022527 0.048937t-0.037285 0.02641q-0.00621-0.00155-0.00777-0.00388 0-0.00699 0.00466-0.019419 0.00466-0.011652 0.00466-0.019419l-0.00699-0.018643q-0.00233-0.00621-0.00388-0.020196 0-0.013205 0.012428-0.020973 0.010098-0.00777 0.02408-0.00777 0.032625 0.00388 0.032625 0.034955z"/>
  <path d="m4.2187 9.3497q0 0.1002-0.083115 0.15225-0.059035 0.036509-0.12118 0.036509-0.029518 0-0.029518-0.02641 0-0.029518 0.02641-0.029518 0.042723 0 0.087776-0.025634 0.064473-0.034955 0.064473-0.099428 0-0.048937-0.045053-0.048937-0.038062 0-0.082339 0.023303l-0.045053 0.02408-0.02641 0.16235q-0.00388 0.023303-0.031071 0.023303-0.010875 0-0.017866-0.010098-0.00621-0.00854-0.00621-0.019419l0.076901-0.45752q0.00466-0.018643 0.029518-0.02175 0.010098 0 0.017866 0.00699 0.00699 0.00777 0.00699 0.025634l-0.037285 0.22138 0.039616-0.016312q0.039616-0.016312 0.085446-0.016312 0.032625 0 0.056705 0.017866 0.033402 0.025634 0.033402 0.077678z"/>
  <path d="m4.5558 9.2806q-0.0435 0.13283-0.0435 0.23769 0 0.023303-0.02641 0.02641-0.013205 0-0.02175-0.010098-0.00777-0.00932-0.00777-0.022527-0.025634 0.031071-0.090883 0.031071-0.044276 0-0.080785-0.031071-0.042723-0.036509-0.042723-0.09399 0-0.071464 0.055928-0.11807 0.052821-0.044276 0.12584-0.044276 0.035732 0 0.046607 0.00854 0.00777 0.00544 0.00777 0.019419 0 0.010875-0.00621 0.019419-0.00699 0.00699-0.025634 0.00699-0.056705 0-0.097874 0.02408-0.049714 0.029518-0.049714 0.082339 0 0.038839 0.025634 0.056705 0.017866 0.012428 0.042723 0.012428 0.048937 0 0.090883-0.033402 0.022527-0.12506 0.039616-0.16623 0.012428-0.030294 0.031848-0.030294 0.024857 0 0.02641 0.024857z"/>
  <path d="m4.8712 9.2868q0 0.012428-0.00777 0.019419-0.00777 0.00932-0.020196 0.00932l-0.024857-0.00777q-0.02408-0.00621-0.045053-0.00621-0.059812 0-0.10487 0.046607-0.040393 0.041946-0.040393 0.086999 0 0.02175 0.014759 0.036509 0.014759 0.013982 0.039616 0.013982 0.038062 0 0.066026-0.014759l0.062142-0.031071q0.02641 0 0.02641 0.027187 0 0.027964-0.062919 0.053598-0.054375 0.020973-0.088553 0.020973-0.047384 0-0.080008-0.028741-0.032625-0.028741-0.032625-0.076124 0-0.070687 0.051267-0.12662 0.059035-0.063696 0.15225-0.063696 0.036509 0 0.06525 0.013205 0.029518 0.012428 0.029518 0.027187z"/>
  <path d="m5.1695 9.5182q0 0.010098-0.010098 0.019419-0.00932 0.010098-0.01942 0.010098-0.00388 0-0.080008-0.090883-0.083892-0.098651-0.088553-0.10409l-0.027964 0.16856q0 0.019419-0.028741 0.023303-0.011652 0-0.018643-0.00777-0.00777-0.00699-0.00777-0.020196l0.076901-0.45908q0.00155-0.010875 0.00854-0.015536 0.00544-0.00466 0.019419-0.00466 0.00932 0 0.017866 0.00777 0.00932 0.00777 0.010098 0.017089l-0.038831 0.22294q0.042723-0.01942 0.11496-0.057482 0.01942-0.010098 0.033402-0.012428 0.00932 0 0.017089 0.010098 0.00777 0.00932 0.00777 0.019419 7.768e-4 0.033402-0.13283 0.082339 0.029518 0.029518 0.04583 0.04816 0.016312 0.018643 0.04816 0.059035 0.052821 0.06758 0.052821 0.083892z"/>
  <path d="m5.505 9.2837-0.057482 0.35188q-0.010098 0.059812-0.054375 0.09399-0.042723 0.031848-0.10487 0.031848-0.04816 0-0.085446-0.031071-0.031848-0.027187-0.031848-0.051267 0-0.023303 0.024857-0.026411 0.014759 0 0.031071 0.017089 0.034178 0.037285 0.061366 0.037285 0.031848 0 0.058258-0.014759 0.038062-0.020973 0.046607-0.069133l0.02175-0.13205-0.036509 0.02175q-0.04583 0.022527-0.086999 0.022527-0.040393 0-0.069133-0.028741-0.027964-0.029518-0.027964-0.077678 0-0.058258 0.04816-0.11186 0.054375-0.061365 0.13594-0.061365 0.029518 0 0.040393 0.00621 0.010098 0.00699 0.010098 0.02175 0 0.019419-0.012428 0.024857-0.00621 0.00311-0.029518 0.00311-0.062142 0-0.10253 0.040393-0.034955 0.034178-0.034955 0.076901 0 0.046607 0.041946 0.046607 0.065249 0 0.13594-0.063696l0.023303-0.13749q0.00466-0.024857 0.02641-0.024857 0.014759 0 0.02175 0.00699 0.00621 0.00777 0.00621 0.027187z"/>
  <path d="m5.8266 9.279q0 0.02175-0.013982 0.027964-0.00932 0.00466-0.029518 0.00466-0.071464 0-0.13361 0.050491-0.046607 0.037285-0.056705 0.068357l-0.013982 0.092437q-0.00311 0.020196-0.028741 0.020196-0.02408 0-0.027964-0.02641l0.039616-0.23769q0.00388-0.024857 0.027187-0.024857 0.027187 0 0.027187 0.029518l-0.00699 0.0435q0.042723-0.039616 0.080008-0.052821 0.047383-0.017089 0.10797-0.017089 0.029518 0 0.029518 0.02175z"/>
  <path d="m6.1389 9.3699q0 0.072241-0.046607 0.1204-0.046607 0.04816-0.12662 0.04816-0.059812 0-0.092437-0.041169-0.027964-0.035732-0.027964-0.093213 0-0.059035 0.0435-0.10331 0.049714-0.051267 0.12817-0.051267 0.059035 0 0.093214 0.039616 0.028741 0.034178 0.028741 0.080785zm-0.052821 0.00932q0-0.028741-0.017089-0.050491-0.020973-0.025634-0.062919-0.025634-0.044276 0-0.076124 0.032625-0.027964 0.028741-0.027964 0.06525 0 0.081562 0.074571 0.081562 0.045053 0 0.076901-0.031071 0.032625-0.031071 0.032625-0.07224z"/>
  <path d="m6.462 9.2697-0.027187 0.1072q-0.011652 0.044276-0.011652 0.075348v0.015536q0 0.00388 0.00155 0.019419l0.00311 0.029518q0 0.027964-0.027964 0.027964-0.020973 0-0.027964-0.019419-7.768e-4 -0.00388-0.00544-0.038062-0.014759 0.014759-0.052044 0.032625-0.036509 0.017089-0.06758 0.017089-0.045053 0-0.068357-0.035732-0.020973-0.031848-0.020973-0.078455 0-0.051267 0.023303-0.11652 0.023303-0.062919 0.04583-0.062919 0.011652 0 0.019419 0.00854 0.00854 0.00699 0.00854 0.022527-0.013982 0.037285-0.027964 0.083892t-0.013982 0.069133q0 0.023303 0.010098 0.039616 0.012428 0.013982 0.027187 0.013982 0.027964 0 0.068357-0.025634 0.034955-0.02175 0.053598-0.041946l0.035732-0.14992q0-0.017089 0.024857-0.017089 0.013205 0 0.02175 0.00466 0.00777 0.00544 0.00777 0.018643z"/>
  <path d="m6.7852 9.359q0 0.038062-0.00932 0.079232-0.00311 0.013205-0.010875 0.040392-0.00699 0.027187-0.013982 0.0435-0.00932 0.020973-0.023303 0.020973-0.031071 0-0.031071-0.027964 0.013205-0.045053 0.020973-0.081562 0.010098-0.047384 0.010098-0.082339 0-0.039616-0.019419-0.039616-0.022527 0-0.087776 0.0435-0.066026 0.0435-0.069133 0.062919l-0.017089 0.10331q-0.00388 0.02175-0.028741 0.02175-0.02641 0-0.02641-0.02641l0.041169-0.24857q0.00311-0.02175 0.030294-0.02175 0.00932 0 0.017866 0.010098 0.00621 0.00544 0.00621 0.014759v0.00311l-0.00777 0.051267q0.097874-0.074571 0.16545-0.074571 0.01942 0 0.035732 0.029518 0.017089 0.028741 0.017089 0.078455z"/>
  <path d="m7.1541 9.0623-0.076901 0.46374q-0.00311 0.018643-0.029518 0.018643-0.024857 0-0.024857-0.029518l0.00311-0.020196-0.038839 0.022527q-0.039616 0.022527-0.084669 0.022527-0.027964 0-0.055928-0.020196-0.039616-0.028741-0.039616-0.081562 0-0.066026 0.051267-0.12118 0.059812-0.066026 0.15769-0.066026h0.017866q0.00544 0 0.014759 0.00155l0.017866 0.00311 0.032625-0.19653q0-0.018643 0.029518-0.02175 0.012429 0 0.020973 0.010098 0.00466 0.00699 0.00466 0.014759zm-0.097097 0.24935q-0.00466-0.00466-0.051267-0.00466-0.068357 0-0.10875 0.047383-0.033401 0.038062-0.033401 0.088553 0 0.022527 0.016312 0.032625 0.011652 0.00854 0.025634 0.00854 0.031848 0 0.077678-0.023303 0.030294-0.015536 0.053598-0.034955z"/>
  <path d="m7.2419 9.2666q0 0.013982-0.010098 0.02408-0.00932 0.00932-0.022527 0.00932-0.033402 0-0.033402-0.033402 0-0.032625 0.031848-0.032625 0.034178 0 0.034178 0.032625zm-0.020973 0.2408q0 0.013982-0.00932 0.02408-0.00854 0.010098-0.023303 0.010098-0.032625 0-0.032625-0.034178 0-0.015536 0.010098-0.02408 0.010098-0.00932 0.022527-0.00932 0.032625 0 0.032625 0.033402z"/>
  <path d="m7.9239 9.2712q0 0.011652-0.00699 0.018643-0.00777 0.00854-0.019419 0.010098l-0.082338 0.00699-0.034955 0.21284q-0.00388 0.020196-0.031071 0.023303-0.024857 0-0.024857-0.024857l0.034178-0.20662-0.073017 0.00699q-0.00932 0-0.017866-0.00854-0.00777-0.00621-0.00932-0.017089 0-0.013982 0.00621-0.020973 0.00699-0.00777 0.018643-0.00854l0.084669-0.00621 0.017089-0.11574q0.00388-0.02175 0.027964-0.02175 0.00932 0 0.018643 0.00699 0.00777 0.00854 0.00777 0.020973l-0.015536 0.10331 0.073794-0.00621q0.00854 0 0.017089 0.00621 0.00777 0.00699 0.00932 0.020196z"/>
  <path d="m8.2455 9.279q0 0.02175-0.013982 0.027964-0.00932 0.00466-0.029518 0.00466-0.071464 0-0.13361 0.050491-0.046607 0.037285-0.056705 0.068357l-0.013982 0.092437q-0.00311 0.020196-0.028741 0.020196-0.02408 0-0.027964-0.02641l0.039616-0.23769q0.00388-0.024857 0.027187-0.024857 0.027187 0 0.027187 0.029518l-0.00699 0.0435q0.042723-0.039616 0.080008-0.052821 0.047384-0.017089 0.10797-0.017089 0.029518 0 0.029518 0.02175z"/>
  <path d="m8.5826 9.2806q-0.0435 0.13283-0.0435 0.23769 0 0.023303-0.02641 0.02641-0.013205 0-0.02175-0.010098-0.00777-0.00932-0.00777-0.022527-0.025634 0.031071-0.090883 0.031071-0.044276 0-0.080785-0.031071-0.042723-0.036509-0.042723-0.09399 0-0.071464 0.055928-0.11807 0.052821-0.044276 0.12584-0.044276 0.035732 0 0.046607 0.00854 0.00777 0.00544 0.00777 0.019419 0 0.010875-0.00621 0.019419-0.00699 0.00699-0.025634 0.00699-0.056705 0-0.097874 0.02408-0.049714 0.029518-0.049714 0.082339 0 0.038839 0.025634 0.056705 0.017866 0.012428 0.042723 0.012428 0.048937 0 0.090883-0.033402 0.022527-0.12506 0.039616-0.16623 0.012429-0.030294 0.031848-0.030294 0.024857 0 0.02641 0.024857z"/>
  <path d="m8.9058 9.359q0 0.038062-0.00932 0.079232-0.00311 0.013205-0.010875 0.040392-0.00699 0.027187-0.013982 0.0435-0.00932 0.020973-0.023303 0.020973-0.031071 0-0.031071-0.027964 0.013205-0.045053 0.020973-0.081562 0.010098-0.047384 0.010098-0.082339 0-0.039616-0.019419-0.039616-0.022527 0-0.087776 0.0435-0.066026 0.0435-0.069133 0.062919l-0.017089 0.10331q-0.00388 0.02175-0.028741 0.02175-0.026411 0-0.026411-0.02641l0.041169-0.24857q0.00311-0.02175 0.030294-0.02175 0.00932 0 0.017866 0.010098 0.00621 0.00544 0.00621 0.014759v0.00311l-0.00777 0.051267q0.097874-0.074571 0.16545-0.074571 0.019419 0 0.035732 0.029518 0.017089 0.028741 0.017089 0.078455z"/>
  <path d="m9.152 9.2852q0 0.013205-0.00699 0.022527-0.00854 0.010875-0.020196 0.010875-0.00544 0-0.035732-0.011652-0.029518-0.012429-0.050491-0.012429-0.034955 0-0.037285 0.022527 0 0.017866 0.038062 0.034955 0.063696 0.028741 0.070687 0.033402 0.038062 0.02408 0.038062 0.059812 0 0.055151-0.037285 0.080008-0.026411 0.017866-0.066026 0.017866-0.062919 0-0.08933-0.010098-0.02641-0.010098-0.02641-0.027187 0-0.027187 0.023303-0.031848l0.041169 0.011652q0.016312 0.00466 0.040392 0.00466 0.057482 0 0.057482-0.038062 0-0.017866-0.037285-0.037285-0.066026-0.032625-0.06991-0.035732-0.038062-0.025634-0.038062-0.059035 0-0.038062 0.034178-0.058259 0.027964-0.015536 0.069133-0.015536 0.027964 0 0.059035 0.00854 0.0435 0.010875 0.0435 0.030294z"/>
  <path d="m9.4876 9.3497q0 0.06758-0.069133 0.12506-0.066026 0.054374-0.13516 0.054374-0.00854 0-0.015536-0.00854-0.00777-0.00777-0.00777-0.017866 0-0.027964 0.023303-0.027964 0.057482 0 0.10564-0.047384 0.042723-0.041946 0.042723-0.083892 0-0.0435-0.033402-0.0435-0.024857 0-0.079232 0.020196-0.059035 0.023303-0.062142 0.041946l-0.06525 0.38761q-0.00388 0.020196-0.033402 0.020196-0.010098 0-0.017089-0.010875-0.00621-0.00932-0.00621-0.020973l0.080785-0.4684q0.00388-0.01942 0.010098-0.025634 0.00699-0.00699 0.023303-0.00699 0.024857 0 0.023303 0.020196l-0.00155 0.025634q0.061365-0.036509 0.11574-0.036509 0.037285 0 0.062142 0.016312 0.038839 0.025634 0.038839 0.086999z"/>
  <path d="m9.8247 9.2806q-0.0435 0.13283-0.0435 0.23769 0 0.023303-0.02641 0.02641-0.013205 0-0.02175-0.010098-0.00777-0.00932-0.00777-0.022527-0.025634 0.031071-0.090883 0.031071-0.044276 0-0.080785-0.031071-0.042723-0.036509-0.042723-0.09399 0-0.071464 0.055928-0.11807 0.052821-0.044276 0.12584-0.044276 0.035732 0 0.046607 0.00854 0.00777 0.00544 0.00777 0.019419 0 0.010875-0.00621 0.019419-0.00699 0.00699-0.025634 0.00699-0.056705 0-0.097874 0.02408-0.049714 0.029518-0.049714 0.082339 0 0.038839 0.025634 0.056705 0.017866 0.012428 0.042723 0.012428 0.048937 0 0.090883-0.033402 0.022527-0.12506 0.039616-0.16623 0.012429-0.030294 0.031848-0.030294 0.024857 0 0.02641 0.024857z"/>
  <path d="m10.146 9.279q0 0.02175-0.01398 0.027964-0.0093 0.00466-0.02952 0.00466-0.07146 0-0.13361 0.050491-0.046607 0.037285-0.056705 0.068357l-0.013982 0.092437q-0.00311 0.020196-0.028741 0.020196-0.02408 0-0.027964-0.02641l0.039616-0.23769q0.00388-0.024857 0.027187-0.024857 0.027187 0 0.027187 0.029518l-0.00699 0.0435q0.042723-0.039616 0.080008-0.052821 0.04738-0.017089 0.10797-0.017089 0.02952 0 0.02952 0.02175z"/>
  <path d="m10.46 9.474q0 0.028741-0.07146 0.052044-0.05904 0.018643-0.0971 0.018643-0.12196 0-0.12196-0.10642 0-0.068357 0.04661-0.12428 0.05282-0.064473 0.1305-0.064473 0.04971 0 0.08001 0.020196 0.03029 0.020196 0.03029 0.04583 0 0.046607-0.09166 0.09399-0.0769 0.039616-0.10487 0.039616-0.02175 0-0.02175-0.02641 0-0.00854 0.08156-0.041946 0.08234-0.034178 0.08234-0.056705 0-0.00932-0.01243-0.017089-0.01398-0.00544-0.0435-0.00544-0.05826 0-0.09244 0.041169-0.03107 0.038062-0.03107 0.09399 0 0.027187 0.01554 0.041946 0.01553 0.014759 0.04971 0.014759 0.03884 0 0.07224-0.015536l0.07457-0.034955q0.02486 0 0.02486 0.031071z"/>
  <path d="m10.783 9.359q0 0.038062-0.0093 0.079232-0.0031 0.013205-0.01088 0.040392-7e-3 0.027187-0.01398 0.0435-0.0093 0.020973-0.0233 0.020973-0.03107 0-0.03107-0.027964 0.01321-0.045053 0.02097-0.081562 0.0101-0.047384 0.0101-0.082339 0-0.039616-0.01942-0.039616-0.02253 0-0.08778 0.0435-0.06603 0.0435-0.06913 0.062919l-0.01709 0.10331q-0.0039 0.02175-0.02874 0.02175-0.02641 0-0.02641-0.02641l0.04117-0.24857q0.0031-0.02175 0.03029-0.02175 0.0093 0 0.01787 0.010098 0.0062 0.00544 0.0062 0.014759v0.00311l-0.0078 0.051267q0.09787-0.074571 0.16545-0.074571 0.01942 0 0.03573 0.029518 0.01709 0.028741 0.01709 0.078455z"/>
  <path d="m11.077 9.2712q0 0.011652-7e-3 0.018643-0.0078 0.00854-0.01942 0.010098l-0.08234 0.00699-0.03496 0.21284q-0.0039 0.020196-0.03107 0.023303-0.02486 0-0.02486-0.024857l0.03418-0.20662-0.07302 0.00699q-0.0093 0-0.01787-0.00854-0.0078-0.00621-0.0093-0.017089 0-0.013982 0.0062-0.020973 7e-3 -0.00777 0.01864-0.00854l0.08467-0.00621 0.01709-0.11574q0.0039-0.02175 0.02796-0.02175 0.0093 0 0.01864 0.00699 0.0078 0.00854 0.0078 0.020973l-0.01553 0.10331 0.07379-0.00621q0.0085 0 0.01709 0.00621 0.0078 0.00699 0.0093 0.020196z"/>
  <path d="m11.165 9.2666q0 0.013982-0.0101 0.02408-0.0093 0.00932-0.02253 0.00932-0.0334 0-0.0334-0.033402 0-0.032625 0.03185-0.032625 0.03418 0 0.03418 0.032625zm-0.01398 0.24236q0 0.022527-0.02253 0.048937t-0.03729 0.02641q-0.0062-0.00155-0.0078-0.00388 0-0.00699 0.0047-0.019419 0.0047-0.011652 0.0047-0.019419l-7e-3 -0.018643q-0.0023-0.00621-0.0039-0.020196 0-0.013205 0.01243-0.020973 0.0101-0.00777 0.02408-0.00777 0.03263 0.00388 0.03263 0.034955z"/>
  <path d="m3.3518 11.279q-0.036509 0.0101-0.04816 0.02874-0.011652 0.01864-0.011652 0.06214v0.12506q0 0.06913-0.025634 0.09244-0.025634 0.0233-0.095544 0.0233 0.065249-0.0132 0.065249-0.09554v-0.12972q0-0.04661 0.011652-0.06991 0.011652-0.02408 0.050491-0.03651-0.038062-0.0085-0.051267-0.03573-0.010875-0.02097-0.010875-0.0637v-0.13594q0-0.04117-0.013205-0.06214-0.013205-0.02175-0.052044-0.0334 0.068357 0 0.092437 0.01864 0.028741 0.02175 0.028741 0.08778v0.13749q0 0.03573 0.011652 0.05593t0.04816 0.03107z"/>
 </g>
 <g stroke-linecap="round" stroke-linejoin="round">
  <g stroke="#07080a">
   <path d="m15.667 0.71212c-0.10229-0.003837-0.18401 0.025412-0.22065 0.088882l-0.43356 0.75084c-0.0706-0.018315-0.13604-0.028458-0.1974-0.033072l-0.27543-0.087331c-0.03144-0.00996-0.06464-0.00634-0.08113 0.02222l-3.2478 5.6249c-0.0165 0.028571-0.0097 0.071687 0.0217 0.081647l0.04341 0.013953-2.9445 5.0998c0.00113-2e-3 0.00388-0.0028 0.00517-0.0047-0.00476 8e-3 -0.012227 0.0132-0.015503 0.02274l-1.1715 3.408s1.754e-4 0.01966 0.034622 0.03256c-3.505e-4 5.72e-4 -0.00121 4.5e-4 -0.00155 1e-3l-0.25579 0.44286c-0.02006 0.03475-0.00839 0.07916 0.026354 0.09922l0.00258 0.0016-0.19275 0.33382c-0.013373 0.02316-0.00508 0.05277 0.018086 0.06614l0.14521 0.08423c0.023166 0.01337 0.052772 0.0051 0.066145-0.01809l0.19585-0.33951c0.031166 0.0088 0.065194 4.55e-4 0.082164-0.02894l0.25579-0.44286c0.00179-0.0031-2.559e-4 -0.0066 0.00103-0.0098 0.00108 0.0018 0.00366 0.0034 0.00465 0.0052 0.03116 0.01453 0.042891 0.0067 0.042891 0.0067l2.3559-2.7269c0.0027-0.0032 0.0023-0.0071 0.0047-0.01033-4.75e-4 9.02e-4 -6e-6 0.0022-5.17e-4 0.0031l6.1457-10.645c0.07058-0.12225-0.01458-0.31328-0.2005-0.50228l0.43356-0.75136c0.04118-0.071322 0.01194-0.16971-0.05994-0.26716-0.01689-0.022794-0.03596-0.044905-0.05788-0.067178-0.0159-0.016272-0.03127-0.03188-0.04961-0.047541-0.03559-0.030265-0.07453-0.059227-0.11834-0.085781-6e-3 -0.00361-0.0099-0.00837-0.01602-0.011885-0.0059-0.003395-0.01168-0.004512-0.01757-0.007751-0.04508-0.024754-0.09018-0.043708-0.13436-0.059427-0.02291-0.008096-0.04393-0.013996-0.06614-0.019637-0.03109-0.008033-0.06051-0.013388-0.0894-0.016536-0.01212-0.001291-0.0261-0.006282-0.03772-0.006718z" opacity=".03" stroke-width=".79373"/>
   <path d="m15.667 0.71212c-0.10229-0.003837-0.18401 0.025412-0.22065 0.088882l-0.43356 0.75084c-0.0706-0.018315-0.13604-0.028458-0.1974-0.033072l-0.27543-0.087331c-0.03144-0.00996-0.06464-0.00634-0.08113 0.02222l-3.2478 5.6249c-0.0165 0.028571-0.0097 0.071687 0.0217 0.081647l0.04341 0.013953-2.9445 5.0998c0.00113-2e-3 0.00388-0.0028 0.00517-0.0047-0.00476 8e-3 -0.012227 0.0132-0.015503 0.02274l-1.1715 3.408s1.754e-4 0.01966 0.034622 0.03256c-3.505e-4 5.72e-4 -0.00121 4.5e-4 -0.00155 1e-3l-0.25579 0.44286c-0.02006 0.03475-0.00839 0.07916 0.026354 0.09922l0.00258 0.0016-0.19275 0.33382c-0.013373 0.02316-0.00508 0.05277 0.018086 0.06614l0.14521 0.08423c0.023166 0.01337 0.052772 0.0051 0.066145-0.01809l0.19585-0.33951c0.031166 0.0088 0.065194 4.55e-4 0.082164-0.02894l0.25579-0.44286c0.00179-0.0031-2.559e-4 -0.0066 0.00103-0.0098 0.00108 0.0018 0.00366 0.0034 0.00465 0.0052 0.03116 0.01453 0.042891 0.0067 0.042891 0.0067l2.3559-2.7269c0.0027-0.0032 0.0023-0.0071 0.0047-0.01033-4.75e-4 9.02e-4 -6e-6 0.0022-5.17e-4 0.0031l6.1457-10.645c0.07058-0.12225-0.01458-0.31328-0.2005-0.50228l0.43356-0.75136c0.04118-0.071322 0.01194-0.16971-0.05994-0.26716-0.01689-0.022794-0.03596-0.044905-0.05788-0.067178-0.0159-0.016272-0.03127-0.03188-0.04961-0.047541-0.03559-0.030265-0.07453-0.059227-0.11834-0.085781-6e-3 -0.00361-0.0099-0.00837-0.01602-0.011885-0.0059-0.003395-0.01168-0.004512-0.01757-0.007751-0.04508-0.024754-0.09018-0.043708-0.13436-0.059427-0.02291-0.008096-0.04393-0.013996-0.06614-0.019637-0.03109-0.008033-0.06051-0.013388-0.0894-0.016536-0.01212-0.001291-0.0261-0.006282-0.03772-0.006718z" opacity=".05" stroke-width=".52916"/>
   <path d="m15.667 0.71212c-0.10229-0.003837-0.18401 0.025412-0.22065 0.088882l-0.43356 0.75084c-0.0706-0.018315-0.13604-0.028458-0.1974-0.033072l-0.27543-0.087331c-0.03144-0.00996-0.06464-0.00634-0.08113 0.02222l-3.2478 5.6249c-0.0165 0.028571-0.0097 0.071687 0.0217 0.081647l0.04341 0.013953-2.9445 5.0998c0.00113-2e-3 0.00388-0.0028 0.00517-0.0047-0.00476 8e-3 -0.012227 0.0132-0.015503 0.02274l-1.1715 3.408s1.754e-4 0.01966 0.034622 0.03256c-3.505e-4 5.72e-4 -0.00121 4.5e-4 -0.00155 1e-3l-0.25579 0.44286c-0.02006 0.03475-0.00839 0.07916 0.026354 0.09922l0.00258 0.0016-0.19275 0.33382c-0.013373 0.02316-0.00508 0.05277 0.018086 0.06614l0.14521 0.08423c0.023166 0.01337 0.052772 0.0051 0.066145-0.01809l0.19585-0.33951c0.031166 0.0088 0.065194 4.55e-4 0.082164-0.02894l0.25579-0.44286c0.00179-0.0031-2.559e-4 -0.0066 0.00103-0.0098 0.00108 0.0018 0.00366 0.0034 0.00465 0.0052 0.03116 0.01453 0.042891 0.0067 0.042891 0.0067l2.3559-2.7269c0.0027-0.0032 0.0023-0.0071 0.0047-0.01033-4.75e-4 9.02e-4 -6e-6 0.0022-5.17e-4 0.0031l6.1457-10.645c0.07058-0.12225-0.01458-0.31328-0.2005-0.50228l0.43356-0.75136c0.04118-0.071322 0.01194-0.16971-0.05994-0.26716-0.01689-0.022794-0.03596-0.044905-0.05788-0.067178-0.0159-0.016272-0.03127-0.03188-0.04961-0.047541-0.03559-0.030265-0.07453-0.059227-0.11834-0.085781-6e-3 -0.00361-0.0099-0.00837-0.01602-0.011885-0.0059-0.003395-0.01168-0.004512-0.01757-0.007751-0.04508-0.024754-0.09018-0.043708-0.13436-0.059427-0.02291-0.008096-0.04393-0.013996-0.06614-0.019637-0.03109-0.008033-0.06051-0.013388-0.0894-0.016536-0.01212-0.001291-0.0261-0.006282-0.03772-0.006718z" opacity=".1" stroke-width=".26458"/>
  </g>
  <path d="m15.667 0.71212c-0.10229-0.003837-0.18401 0.025412-0.22065 0.088882l-0.43356 0.75084c-0.0706-0.018315-0.13604-0.028458-0.1974-0.033072l-0.27543-0.087331c-0.03144-0.00996-0.06464-0.00634-0.08113 0.02222l-3.2478 5.6249c-0.0165 0.028571-0.0097 0.071687 0.0217 0.081647l0.04341 0.013953-2.9445 5.0998c0.00113-2e-3 0.00388-0.0028 0.00517-0.0047-0.00476 8e-3 -0.012227 0.0132-0.015503 0.02274l-1.1715 3.408s1.754e-4 0.01966 0.034622 0.03256c-3.505e-4 5.72e-4 -0.00121 4.5e-4 -0.00155 1e-3l-0.25579 0.44286c-0.02006 0.03475-0.00839 0.07916 0.026354 0.09922l0.00258 0.0016-0.19275 0.33382c-0.013373 0.02316-0.00508 0.05277 0.018086 0.06614l0.14521 0.08423c0.023166 0.01337 0.052772 0.0051 0.066145-0.01809l0.19585-0.33951c0.031166 0.0088 0.065194 4.55e-4 0.082164-0.02894l0.25579-0.44286c0.00179-0.0031-2.559e-4 -0.0066 0.00103-0.0098 0.00108 0.0018 0.00366 0.0034 0.00465 0.0052 0.03116 0.01453 0.042891 0.0067 0.042891 0.0067l2.3559-2.7269c0.0027-0.0032 0.0023-0.0071 0.0047-0.01033-4.75e-4 9.02e-4 -6e-6 0.0022-5.17e-4 0.0031l6.1457-10.645c0.07058-0.12225-0.01458-0.31328-0.2005-0.50228l0.43356-0.75136c0.04118-0.071322 0.01194-0.16971-0.05994-0.26716-0.01689-0.022794-0.03596-0.044905-0.05788-0.067178-0.0159-0.016272-0.03127-0.03188-0.04961-0.047541-0.03559-0.030265-0.07453-0.059227-0.11834-0.085781-6e-3 -0.00361-0.0099-0.00837-0.01602-0.011885-0.0059-0.003395-0.01168-0.004512-0.01757-0.007751-0.04508-0.024754-0.09018-0.043708-0.13436-0.059427-0.02291-0.008096-0.04393-0.013996-0.06614-0.019637-0.03109-0.008033-0.06051-0.013388-0.0894-0.016536-0.01212-0.001291-0.0261-0.006282-0.03772-0.006718z" opacity=".15" stroke-opacity=".35" stroke-width=".088062"/>
  <path d="m15.535 0.71212c-0.10229-0.003837-0.18401 0.025412-0.22065 0.088882l-0.43356 0.75084c-0.0706-0.018315-0.13604-0.028458-0.1974-0.033072l-0.27543-0.087331c-0.03144-0.00996-0.06464-0.00634-0.08113 0.02222l-3.2478 5.6249c-0.0165 0.028571-0.0097 0.071687 0.0217 0.081647l0.04341 0.013953-2.9445 5.0998c0.00113-2e-3 0.00388-0.0028 0.00517-0.0047-0.00476 8e-3 -0.012227 0.0132-0.015503 0.02274l-1.1715 3.408s1.754e-4 0.01966 0.034622 0.03256c-3.505e-4 5.72e-4 -0.00121 4.5e-4 -0.00155 1e-3l-0.25579 0.44286c-0.02006 0.03475-0.00839 0.07916 0.026354 0.09922l0.00258 0.0016-0.19275 0.33382c-0.013373 0.02316-0.00508 0.05277 0.018086 0.06614l0.14521 0.08423c0.023166 0.01337 0.052772 0.0051 0.066145-0.01809l0.19585-0.33951c0.031166 0.0088 0.065194 4.55e-4 0.082164-0.02894l0.25579-0.44286c0.00179-0.0031-2.559e-4 -0.0066 0.00103-0.0098 0.00108 0.0018 0.00366 0.0034 0.00465 0.0052 0.03116 0.01453 0.042891 0.0067 0.042891 0.0067l2.3559-2.7269c0.0027-0.0032 0.0023-0.0071 0.0047-0.01033-4.75e-4 9.02e-4 -6e-6 0.0022-5.17e-4 0.0031l6.1457-10.645c0.07058-0.12225-0.01458-0.31328-0.2005-0.50228l0.43356-0.75136c0.04118-0.071322 0.01194-0.16971-0.05994-0.26716-0.01689-0.022794-0.03596-0.044905-0.05788-0.067178-0.0159-0.016272-0.03127-0.03188-0.04961-0.047541-0.03559-0.030265-0.07453-0.059227-0.11834-0.085781-6e-3 -0.00361-0.0099-0.00837-0.01602-0.011885-0.0059-0.003395-0.01168-0.004512-0.01757-0.007751-0.04508-0.024754-0.09018-0.043708-0.13436-0.059427-0.02291-0.008096-0.04393-0.013996-0.06614-0.019637-0.03109-0.008033-0.06051-0.013388-0.0894-0.016536-0.01212-0.001291-0.0261-0.006282-0.03772-0.006718z" opacity=".25" stroke-opacity=".35" stroke-width=".088062"/>
 </g>
 <g transform="rotate(-60 17.022 22.198)" stroke-linecap="round" stroke-linejoin="round" stroke-opacity=".35">
  <rect x="16.643" y="10.319" width=".65636" height=".26458" rx="0" ry=".048279" fill="url(#linearGradient1181)" stroke-width=".088062"/>
  <rect x="17.077" y="10.243" width=".65636" height=".39687" rx="0" ry=".072418" fill="url(#linearGradient1161)" stroke-width=".10785"/>
  <path d="m33.137 9.933c0.14658 0 0.26458 0.2233 0.26458 0.50073s-0.118 0.50074-0.26458 0.50074h1.5875c0.14658 0 0.26458-0.2233 0.26458-0.50074 0-0.27743-0.118-0.50073-0.26458-0.50073z" fill="url(#linearGradient1056)" stroke-width=".076702"/>
  <path d="m33.72 9.933c0.14658 0 0.18526 0.2233 0.18526 0.50073s-0.03868 0.50074-0.18526 0.50074h0.13177c0.14658 0 0.18526-0.2233 0.18526-0.50074 0-0.27743-0.03868-0.50073-0.18526-0.50073z" fill="#212020" stroke-width=".076702"/>
  <path d="m21.231 9.5078c0.14658 0 0.26458 0.41301 0.26458 0.92602 0 0.51302-0.118 0.92602-0.26458 0.92602h12.292c0.22096 0 0.39842-0.41301 0.39842-0.92602 0-0.51302-0.17745-0.92602-0.39842-0.92602z" fill="url(#linearGradient1021)" stroke-width=".1043"/>
  <path d="m21.572 9.5078 0.05684 0.21239-0.10955 0.40927-0.15503-0.57876-0.04599 0.011885c0.06154 0.075053 0.10935 0.23191 0.14056 0.42839 0.0052 0.032851 0.01247 0.059904 0.01654 0.095083 0.01624 0.09307 0.02853 0.19131 0.03101 0.29713l0.01292-0.04909 0.10955 0.40875-0.10955 0.40824-0.06563-0.24598c-0.0072 0.04153-0.01434 0.08301-0.02325 0.11989l0.06149 0.22892-0.02842 0.10593h0.05478l1e-3 -0.0036 1e-3 0.0036h0.05478l-0.02842-0.10645 0.10955-0.40875 0.10955 0.40875-0.02842 0.10645h0.05478l1e-3 -0.0041 1e-3 0.0041h0.05478l-0.02842-0.10645 0.10955-0.40875 0.10955 0.40875-0.02842 0.10645h0.05478l1e-3 -0.0041 1e-3 0.0041h0.05478l-0.02842-0.10645 0.10955-0.40875 0.11007 0.40979-0.02842 0.10542h0.05478l1e-3 -0.0031 1e-3 0.0031h0.05478l-0.02842-0.10542 0.10955-0.40927 0.10904 0.40772-0.02842 0.10697h0.05478l1e-3 -0.0047 1e-3 0.0047h0.05478l-0.02842-0.10645 0.10955-0.40824 0.11007 0.40927-0.02842 0.10542h0.05478l1e-3 -0.0031 1e-3 0.0031h0.05478l-0.02842-0.10542 0.10955-0.40927 0.10955 0.40875-0.02842 0.10593h0.05478l1e-3 -0.0041 1e-3 0.0041h0.05478l-0.02842-0.10645 0.10955-0.40875 0.10955 0.40927-0.02842 0.10593h0.05477l1e-3 -0.0036 1e-3 0.0036h0.05477l-0.02842-0.10593 0.10955-0.40927 0.10955 0.40927-0.02842 0.10593h0.05478l1e-3 -0.0036 1e-3 0.0036h0.05478l-0.02842-0.10593 0.10955-0.40875 0.10955 0.40875-0.02842 0.10593h0.05478l1e-3 -0.0036 1e-3 0.0036h0.05478l-0.02842-0.10645 0.10955-0.40875 0.10955 0.40927-0.02842 0.10593h0.05478l1e-3 -0.0036 1e-3 0.0036h0.05478l-0.02842-0.10593 0.10955-0.40875 0.10955 0.40875-0.02842 0.10593h0.05478l1e-3 -0.0036 1e-3 0.0036h0.05478l-0.02842-0.10645 0.10955-0.40875 0.10955 0.40927-0.02842 0.10593h0.05478l1e-3 -0.0041 1e-3 0.0041h0.05478l-0.02842-0.10593 0.10955-0.40927 0.10955 0.40875-0.02842 0.10645h0.05478l1e-3 -0.0041 1e-3 0.0041h0.05478l-0.02842-0.10593 0.10955-0.40927 0.10955 0.40875-0.02842 0.10645h0.05529l1e-3 -0.0031 1e-3 0.0031h0.05426l-0.0279-0.1049 0.10955-0.40927 0.10904 0.40772-0.02842 0.10645h0.05478l1e-3 -0.0047 1e-3 0.0047h0.05478l-0.02842-0.10697 0.10955-0.40875 0.10955 0.40927-0.02842 0.10645h0.05478l1e-3 -0.0041 1e-3 0.0041h0.05478l-0.02842-0.10593 0.10955-0.40927 0.10955 0.40875-0.02842 0.10645h0.05478l1e-3 -0.0041 1e-3 0.0041h0.03721c0.0057 0 0.01094-0.0031 0.01654-0.0036l-0.02739-0.10283 0.10955-0.40875 0.10283 0.38498c0.10247-0.13979 0.17451-0.38102 0.19172-0.66661l-0.02067 0.077-0.10955-0.40927 0.07545-0.28215c-0.0088-0.033221-0.01894-0.063813-0.02945-0.094049l-0.07338 0.2744-0.10904-0.40824 0.03566-0.13229c-0.01467-0.015127-0.03045-0.025171-0.04599-0.036173l-0.01757 0.065628-0.0248-0.093016c-0.01895-0.0082-0.03858-0.011653-0.05839-0.013435l0.05581 0.20877-0.10955 0.40875-0.10955-0.40927 0.05684-0.21187h-0.05478l-0.02945 0.11007-0.02945-0.11007h-0.05478l0.05684 0.21239-0.10955 0.40875-0.10904-0.40824 0.05684-0.2129h-0.05529l-0.02945 0.11007-0.02945-0.11007h-0.05478l0.05684 0.21239-0.10955 0.40927-0.10955-0.40875 0.05684-0.2129h-0.05478l-0.02945 0.11059-0.02946-0.11059h-0.05478l0.05684 0.21187-0.10955 0.40875-0.10955-0.40875 0.05684-0.21187h-0.05478l-0.02946 0.11007-0.02945-0.11007h-0.05478l0.05684 0.21239-0.10955 0.40927-0.10955-0.40927 0.05684-0.21239h-0.05478l-0.02945 0.11059-0.02945-0.11059h-0.05478l0.05684 0.21239-0.10955 0.40875-0.10955-0.40875 0.05684-0.21239h-0.05478l-0.02946 0.11007-0.02945-0.11007h-0.05478l0.05684 0.21239-0.10955 0.40927-0.10955-0.40875 0.05684-0.2129h-0.05478l-0.02945 0.11059-0.02946-0.11059h-0.05478l0.05684 0.2129-0.10955 0.40875-0.10955-0.40927 0.05684-0.21239h-0.05478l-0.02946 0.11007-0.02945-0.11007h-0.05478l0.05684 0.21239-0.10955 0.40927-0.10955-0.40875 0.05684-0.2129h-0.05477l-0.02946 0.11059-0.02945-0.11059h-0.05478l0.05684 0.2129-0.10955 0.40875-0.10955-0.40927 0.05684-0.21239h-0.05478l-0.02945 0.11007-0.02945-0.11007h-0.05478l0.05684 0.21239-0.10955 0.40927-0.10955-0.40875 0.05684-0.2129h-0.05478l-0.02945 0.11059-0.02946-0.11059h-0.05478l0.05684 0.2129-0.10955 0.40927-0.10955-0.40927 0.05684-0.2129h-0.05478l-0.02945 0.11059-0.02997-0.11059h-0.05426l0.05684 0.21239-0.10955 0.40927-0.10955-0.40927 0.05684-0.21239h-0.05478l-0.02946 0.11059-0.02945-0.11059h-0.05478l0.05796 0.21288-0.10955 0.40927-0.11007-0.40875 0.05736-0.21342h-0.05529l-0.02946 0.11059-0.02945-0.11059h-0.05478l0.05684 0.2129-0.10955 0.40824-0.10955-0.40875 0.05684-0.21239h-0.05478l-0.02945 0.11007-0.02946-0.11007h-0.05478l0.056842 0.21239-0.10955 0.40875-0.10955-0.40824 0.05684-0.2129h-0.05478l-0.02946 0.11059-0.02945-0.11059h-0.05478l0.05684 0.2129-0.10955 0.40824-0.10955-0.40875 0.05684-0.21239h-0.05478l-0.02945 0.11007-0.02946-0.11007zm3.6452 0.31419 0.10955 0.40875-0.10955 0.40927-0.10955-0.40875zm0.27388 0 0.10955 0.40927-0.10955 0.40875-0.10955-0.40927zm0.54776 0 0.10955 0.40927-0.10955 0.40875-0.10955-0.40927zm-4.3826 5.167e-4 0.10955 0.40875-0.10955 0.40927-0.10955-0.40875zm0.54776 0 0.10955 0.40875-0.10955 0.40875-0.10955-0.40875zm0.54828 0 0.10955 0.40875-0.11007 0.40979-0.10904-0.40875zm0.27388 0 0.10955 0.40927-0.10955 0.40875-0.10955-0.40875zm0.54776 0 0.10955 0.40927-0.10955 0.40875-0.10955-0.40875zm0.27388 0 0.10955 0.40927-0.10955 0.40875-0.10955-0.40927zm0.27388 0 0.10955 0.40927-0.10955 0.40875-0.10955-0.40875zm0.27388 0 0.10955 0.40927-0.10955 0.40875-0.10955-0.40927zm0.27388 0 0.10955 0.40875-0.10955 0.40927-0.10955-0.40875zm0.27388 0 0.10955 0.40927-0.10955 0.40875-0.10955-0.40927zm-3.0132 5.167e-4 0.10955 0.40824-0.10955 0.40875-0.10955-0.40875zm1.3699 0 0.10955 0.40875-0.10955 0.40927-0.10955-0.40875zm2.4654 0 0.10904 0.40824-0.10955 0.40927-0.10955-0.40772zm0.54776 0 0.10904 0.40824-0.10955 0.40875-0.10904-0.40824zm-3.8354 5.17e-4 0.11007 0.40875-0.10955 0.40875-0.11007-0.40979zm2.8763 0.50952 0.10955 0.40927-0.10955 0.40927-0.10955-0.40927zm0.54776 0 0.10955 0.40927-0.10955 0.40927-0.10955-0.40927zm0.54776 0 0.10955 0.40927-0.10955 0.40875-0.10955-0.40875zm-4.6565 5.17e-4 0.10955 0.40875-0.10955 0.40875-0.10955-0.40824zm0.27388 0 0.10955 0.40875-0.10955 0.40875-0.10955-0.40875zm0.27388 0 0.11007 0.40927-0.10955 0.40927-0.11007-0.40979zm0.54828 0 0.10955 0.40927-0.10955 0.40927-0.11007-0.40927zm0.54776 0 0.10955 0.40927-0.10955 0.40927-0.10955-0.40927zm0.27388 0 0.10955 0.40927-0.10955 0.40875-0.10955-0.40875zm0.54776 0 0.10955 0.40927-0.10955 0.40875-0.10955-0.40875zm0.27388 0 0.10955 0.40875-0.10955 0.40875-0.10955-0.40875zm0.27388 0 0.10955 0.40875-0.10955 0.40927-0.10955-0.40875zm0.27388 0 0.10955 0.40875-0.10955 0.40927-0.10955-0.40927zm-1.9172 5.17e-4 0.10955 0.40875-0.10955 0.40875-0.10955-0.40875zm0.82164 0 0.10955 0.40875-0.10955 0.40875-0.10955-0.40875zm1.6438 0 0.10904 0.40824-0.10955 0.40875-0.10904-0.40824zm0.54724 0 0.10955 0.40824-0.10955 0.40875-0.10955-0.40875zm-3.5604 5.16e-4 0.10904 0.40824-0.10955 0.40824-0.10904-0.40772zm-1.3694 1.0201c-0.0051 1e-3 -0.0098 0.0052-0.01499 0.0052h0.01344z" fill="url(#linearGradient1039)" opacity=".75" stroke-width=".081337"/>
  <g fill="#212020">
   <path d="m31.562 9.5078c0.22096 0 0.39893 0.41301 0.39893 0.92602 0 0.51302-0.17797 0.92602-0.39893 0.92602h0.11782c0.22096 0 0.39893-0.41301 0.39893-0.92602 0-0.51302-0.17797-0.92602-0.39893-0.92602z" stroke-width=".1043"/>
   <path d="m34.85 9.9951c0.03917 0.083506 0.09899 0.24162 0.09899 0.43496s-0.05982 0.35898-0.09899 0.44248c0.07961-0.08143 0.13305-0.237 0.13694-0.41909 3.1e-5 -0.0069 5.29e-4 -0.01267 5.29e-4 -0.01964 0-7e-3 -5.29e-4 -0.01273-5.29e-4 -0.01964-0.0039-0.18208-0.05733-0.33766-0.13694-0.41909z" stroke-width=".061463"/>
   <path d="m27.116 9.4537 6.4313 0.21473c0.03296 0.0011 0.27279 0.18649 0.25909 0.21649l-0.11126 0.24363c-0.0137 0.03-0.02655 0.05954-0.05954 0.05954h-6.4954c-0.03298 0-0.05244-0.02733-0.05954-0.05954l-0.08829-0.40058c-0.0071-0.03221 0.09066-0.27426 0.12365-0.27426z" stroke-width=".10583"/>
  </g>
  <path d="m27.171 9.4039h6.4954c0.03298 0 0.05244 0.027326 0.05954 0.059537l0.08829 0.40058c0.0071 0.03221-0.02655 0.059537-0.05954 0.059537h-6.4954c-0.03298 0-0.05244-0.027326-0.05954-0.059537l-0.08829-0.40058c-0.0071-0.03221 0.02655-0.059537 0.05954-0.059537z" fill="#374550" stroke-width=".10583"/>
  <path d="m27.147 9.4132c-0.0225 0.00943-0.04141 0.026356-0.03617 0.050125l0.08836 0.40048c0.0071 0.032211 0.02645 0.059944 0.05943 0.059944h6.4956c0.03299 0 0.06653-0.027734 0.05943-0.059944l-0.0047-0.020153c-0.0079 0.00329-0.01469 0.0093-0.02325 0.0093h-6.4956c-0.03298 0-0.05233-0.027216-0.05943-0.059427z" fill="#565e64" stroke-width=".10583"/>
  <g stroke-width=".1043">
   <path d="m17.674 10.198s-0.01787 0.0095-0.01129 0.04666c0.03723 0.04536 0.05265 0.14856 0.05361 0.18949s-0.01292 0.14934-0.04836 0.20844c3e-3 0.03425 0.01566 0.04079 0.01566 0.04079l3.5398 0.6768c0.21703 0.0415 0.28773-0.41301 0.28773-0.92602 0-0.51302-0.08337-0.96833-0.30024-0.92602z" fill="url(#linearGradient1129)"/>
   <path d="m17.792 10.301s-0.02941-4.36e-4 -0.02749 0.08142c0.0019 0.08186 0.02749 0.08623 0.02749 0.08623l3.3701 0.02939c0.22096 0.0019 0.2305-0.35557 0.2305-0.5007 0-0.21274-0.14975-0.38834-0.2293-0.37239z" fill="#374550"/>
   <path d="m17.792 10.301s-0.02941-4.36e-4 -0.02749 0.08142c0.0019 0.08186 0.02749 0.08623 0.02749 0.08623l3.3217-0.12256c0.22082-0.0081 0.20164-0.20543 0.20164-0.35056 0-0.21274-0.09313-0.29602-0.17304-0.28201z" fill="#565e64"/>
   <path d="m17.792 10.319s-0.02941-0.01819-0.02749 0.06367c0.0019 0.08186 0.02749 0.06811 0.02749 0.06811l3.3559-0.24296c0.08366-0.0061 0.12098-0.06814 0.12098-0.21327 0-0.21274-0.07815-0.20471-0.14459-0.19437z" fill="#fff"/>
  </g>
  <path d="m17.41 10.353c0 0.01341-0.12228 0.02429-0.19999 0.02429-0.0777 0-0.08142-0.01088-0.08142-0.02429s0.0037-0.02429 0.08142-0.02429c0.0777 0 0.19999 0.01088 0.19999 0.02429z" fill="#fff" stroke-width=".087931"/>
  <path d="m16.983 10.412c0 0.01341-0.12228 0.02429-0.19999 0.02429-0.0777 0-0.08142-0.01088-0.08142-0.02429s0.0037-0.02429 0.08142-0.02429c0.0777 0 0.19999 0.01088 0.19999 0.02429z" fill="#374550" stroke-width=".087931"/>
  <g fill="#212020" stroke-width=".1043">
   <path d="m26.174 9.5078c0.22096 0 0.39893 0.41301 0.39893 0.92602 0 0.51302-0.17797 0.92602-0.39893 0.92602h0.11782c0.22096 0 0.39893-0.41301 0.39893-0.92602 0-0.51302-0.17797-0.92602-0.39893-0.92602z" opacity=".75"/>
   <path d="m22.848 9.5078c0.22096 0 0.39893 0.41301 0.39893 0.92602 0 0.51302-0.17797 0.92602-0.39893 0.92602h0.11782c0.22096 0 0.39893-0.41301 0.39893-0.92602 0-0.51302-0.17797-0.92602-0.39893-0.92602z" opacity=".75"/>
   <path d="m22.234 9.5078c0.22096 0 0.39893 0.41301 0.39893 0.92602 0 0.51302-0.17797 0.92602-0.39893 0.92602h0.11782c0.22096 0 0.39893-0.41301 0.39893-0.92602 0-0.51302-0.17797-0.92602-0.39893-0.92602z" opacity=".75"/>
  </g>
 </g>
 <g fill="#666" stroke-width=".04849" aria-label="Vince">
  <path d="m11.651 13.695q0.04849-0.04655 0.1222-0.11056 0.07371-0.06595 0.15323-0.12995 0.07952-0.06595 0.15711-0.12026 0.07758-0.05625 0.13577-0.0834 0.02521-0.01164 0.06013-0.02134 0.03491-0.01164 0.07371-0.01746l0.02521-0.0039q0.02522-0.0039 0.03103-0.01358 0.0078-0.0097 0.0078-0.0194 0-0.0194-0.02909-0.0194-0.03491 0-0.0931 0.02715t-0.12801 0.07177q-0.06789 0.04461-0.14353 0.10086-0.07371 0.05625-0.14547 0.11444-0.06982 0.05625-0.12995 0.11056t-0.10086 0.09504l-0.1862 0.18426q-0.06595 0.06595-0.13771 0.13383-0.07177 0.06595-0.13771 0.12026-0.06595 0.05237-0.1222 0.08728-0.05431 0.03297-0.08534 0.03297-0.0097 0-0.01746-0.0039-0.0078-0.0039-0.0078-0.01746 0-0.02715 0.04267-0.07952 0.04461-0.05237 0.10862-0.12026 0.06595-0.06789 0.14159-0.14935 0.07564-0.0834 0.13965-0.17262 0.06595-0.09116 0.10862-0.18426 0.04461-0.09504 0.04461-0.1862 0-0.16293-0.10474-0.25409-0.10474-0.0931-0.28318-0.0931-0.11832 0-0.23857 0.04267-0.12026 0.04073-0.21917 0.11056-0.09698 0.06789-0.15905 0.15905-0.06207 0.08922-0.06207 0.1862 0 0.05625 0.0194 0.09892t0.05043 0.07177q0.03103 0.02715 0.06982 0.04267 0.04073 0.01358 0.08146 0.01358 0.06982 0 0.13577-0.02522 0.06595-0.02521 0.12219-0.06401 0.05819-0.04073 0.10474-0.08728 0.04849-0.04849 0.0834-0.09116 0.03491-0.04461 0.05431-0.07952t0.02134-0.04655l-0.01552-0.0078-0.08146 0.09698q-0.02327 0.02715-0.0737 0.07371-0.05043 0.04655-0.11444 0.0931-0.06207 0.04655-0.12801 0.08146-0.06595 0.03297-0.12026 0.03297-0.03685 0-0.07177-0.01164-0.03491-0.01164-0.06207-0.03685t-0.04461-0.06207q-0.01552-0.03879-0.01552-0.09116 0-0.0931 0.06207-0.18038t0.15905-0.15517q0.09892-0.06789 0.21724-0.10862t0.23081-0.04073q0.07564 0 0.13965 0.0194 0.06401 0.01746 0.1125 0.05625t0.07564 0.09892q0.02715 0.05819 0.02715 0.13965 0 0.10086-0.04461 0.19008t-0.1125 0.16875q-0.06595 0.07952-0.14353 0.15129-0.07758 0.06983-0.14547 0.13383-0.06595 0.06401-0.11056 0.12413-0.04461 0.05819-0.04461 0.1125 0 0.02909 0.01552 0.05043 0.01552 0.0194 0.04849 0.0194 0.03879 0 0.09698-0.03685 0.06013-0.03879 0.12219-0.08922 0.06207-0.05237 0.11832-0.10474 0.05819-0.05431 0.0931-0.08728z"/>
  <path d="m12.037 14.115q-0.02716 0.01746-0.06207 0.04073-0.03491 0.02133-0.06789 0.04073-0.03297 0.01746-0.06207 0.03103-0.02715 0.01164-0.04073 0.01164-0.01746 0-0.03103-0.0097-0.01164-0.0097-0.01164-0.02521 0-0.0194 0.02521-0.05043 0.02716-0.03103 0.06013-0.06401l0.16099-0.16099q0.01358-0.01552 0.02134-0.02327 0.0078-0.0078 0.0078-0.01552 0-0.0097-0.01358-0.01164-0.01358-0.0039-0.02328-0.0039-0.01552 0-0.02715 0.0097-0.01164 0.0097-0.03297 0.02715l-0.13189 0.11444-0.16874 0.11444 0.0097 0.0078 0.11444-0.07758 0.0039 0.0039q-0.0194 0.02134-0.04073 0.05625-0.0194 0.03491-0.0194 0.06401 0 0.03103 0.02521 0.04849 0.02521 0.01552 0.05431 0.01552 0.01552 0 0.04267-0.0097 0.02909-0.01164 0.06207-0.02909 0.03491-0.01746 0.07371-0.04073 0.03879-0.02522 0.07758-0.05431zm0.23081-0.45581q0-0.01552-0.01164-0.02521-0.0097-0.01164-0.02521-0.01164-0.01552 0-0.02716 0.01164-0.0097 0.0097-0.0097 0.02521 0 0.01552 0.0097 0.02715 0.01164 0.0097 0.02716 0.0097t0.02521-0.0097q0.01164-0.01164 0.01164-0.02715z"/>
  <path d="m12.719 14.115q-0.0097 0.0058-0.04073 0.02715-0.03103 0.02134-0.06982 0.04461-0.03685 0.02134-0.07371 0.03879-0.03491 0.01746-0.05431 0.01746-0.04461 0-0.04461-0.03297 0-0.0078 0.0097-0.02327 0.01164-0.01746 0.02909-0.03685 0.01746-0.02134 0.03879-0.04267 0.02327-0.02328 0.04461-0.04461 0.04461-0.04267 0.07952-0.08534 0.03491-0.04461 0.03491-0.07758 0-0.01746-0.01164-0.02521-0.0097-0.0097-0.02328-0.0097-0.01164 0-0.03297 0.0097-0.02134 0.0078-0.04655 0.02134-0.02327 0.01358-0.05043 0.03103-0.02715 0.01552-0.05043 0.03103l-0.08146 0.05625-0.0039-0.0039q0.01164-0.01164 0.02909-0.04461 0.01746-0.03297 0.01746-0.06595 0-0.01552-0.01164-0.02521-0.0097-0.0097-0.02521-0.0097-0.01552 0-0.04267 0.0194-0.02715 0.01746-0.05237 0.03685-0.08728 0.07177-0.15129 0.1222-0.06207 0.04849-0.13771 0.09698l0.0097 0.0078q0.0194-0.01164 0.04655-0.03103 0.02909-0.0194 0.05819-0.04267 0.03103-0.02327 0.06013-0.04655 0.03103-0.02327 0.05237-0.04073 0.05043-0.04073 0.09116-0.06789 0.04267-0.02909 0.04849-0.02909 0.0078 0 0.0078 0.0097 0 0.02134-0.02134 0.05043-0.02134 0.02715-0.04267 0.04849l-0.11638 0.12413q-0.01164 0.01358-0.02909 0.03103-0.01746 0.01552-0.03491 0.03103-0.01552 0.01552-0.02716 0.02909-0.0097 0.01358-0.0097 0.0194 0 0.0097 0.0097 0.01552 0.01164 0.0039 0.0194 0.0039 0.02134 0 0.03103-0.0058 0.01164-0.0058 0.03685-0.03297l0.14741-0.14935q0.02909-0.02327 0.06789-0.05237 0.03879-0.02909 0.07758-0.05431 0.04073-0.02715 0.07176-0.04461 0.03297-0.01746 0.04849-0.01746 0.0078 0 0.0078 0.01164 0 0.01552-0.03491 0.04655-0.03491 0.02909-0.07758 0.07371-0.04267 0.04461-0.07952 0.08728-0.03491 0.04073-0.03491 0.06789 0 0.03879 0.02716 0.05819 0.02909 0.01746 0.06789 0.01746 0.01746 0 0.05625-0.01746 0.03879-0.0194 0.07758-0.04267 0.04073-0.02521 0.07176-0.04655 0.03297-0.02134 0.04073-0.02715z"/>
  <path d="m13.187 14.115q-0.02327 0.01552-0.05625 0.03685-0.03103 0.02134-0.06595 0.04073-0.03297 0.0194-0.06595 0.03297-0.03297 0.01164-0.05819 0.01164-0.03491 0-0.05819-0.01358-0.02134-0.01552-0.02134-0.05819 0-0.03685 0.03103-0.08534 0.03297-0.04849 0.07564-0.0931 0.04461-0.04461 0.08922-0.07564 0.04655-0.03103 0.07176-0.03103 0.0097 0 0.02327 0.0058 0.01552 0.0039 0.01552 0.01552 0 0.0097-0.0097 0.01552-0.0097 0.0058-0.02134 0.01164-0.01164 0.0058-0.02134 0.01552-0.0097 0.0078-0.0097 0.02327 0 0.01552 0.0097 0.02522 0.0097 0.0078 0.02522 0.0078 0.02521 0 0.04461-0.02522 0.0194-0.02716 0.0194-0.05237 0-0.03297-0.02715-0.04461-0.02522-0.01358-0.05237-0.01358-0.03491 0-0.07564 0.01746t-0.08146 0.04461q-0.04073 0.02521-0.07758 0.05625-0.03685 0.03103-0.06595 0.05819l-0.13965 0.09698 0.0097 0.0078 0.1125-0.07564q-0.0039 0.0194-0.0097 0.03685-0.0058 0.01746-0.0058 0.03685 0 0.05625 0.03491 0.08534t0.08728 0.02909q0.03103 0 0.06595-0.01164 0.03491-0.01358 0.07176-0.03297 0.03685-0.0194 0.07177-0.04267 0.03685-0.02327 0.06983-0.04655z"/>
  <path d="m13.338 14.108q0.01746-0.03685 0.05043-0.07371 0.03297-0.03879 0.06983-0.06983 0.03685-0.03297 0.06982-0.05237 0.03491-0.02134 0.05625-0.02134 0.01746 0 0.02909 0.0097 0.01358 0.0097 0.01552 0.02521 0 0.03685-0.02909 0.06789-0.02909 0.03103-0.07371 0.05625-0.04267 0.02327-0.09504 0.03879-0.05043 0.01552-0.0931 0.0194zm0.31228 0.0097q-0.01746 0.01358-0.04849 0.03297-0.03103 0.0194-0.06595 0.03879-0.03491 0.01746-0.06983 0.03103-0.03491 0.01358-0.06401 0.01358-0.03491 0-0.05819-0.01358-0.02133-0.01552-0.02133-0.05431 0-0.01358 0.0058-0.03685 0.06982-0.0078 0.12801-0.02909 0.06013-0.02133 0.1028-0.05043 0.04461-0.02909 0.06789-0.06207 0.02522-0.03491 0.02522-0.06401 0-0.0194-0.0194-0.03879-0.01746-0.0194-0.05237-0.0194t-0.07564 0.01746q-0.03879 0.01746-0.07952 0.04461-0.03879 0.02715-0.07564 0.06013-0.03491 0.03103-0.06401 0.05819l-0.13965 0.09698 0.0097 0.0078 0.1125-0.07564q-0.0039 0.0194-0.0097 0.03491-0.0058 0.01552-0.0058 0.03491 0 0.05625 0.03297 0.08534 0.03491 0.02909 0.08146 0.02909 0.03491 0 0.07758-0.01552t0.0834-0.03685q0.04073-0.02134 0.07371-0.04267 0.03491-0.02327 0.05431-0.03685z"/>
 </g>
</svg>
