<svg width="64" height="64" version="1.1" viewBox="0 0 64 64" xmlns="http://www.w3.org/2000/svg">
 <defs>
  <linearGradient id="linearGradient877" x1="-133.39" x2="-133.39" y1="135.31" y2="34.648" gradientTransform="matrix(.49622 0 0 .49622 98.269 -9.9505)" gradientUnits="userSpaceOnUse">
   <stop stop-color="#852ec0" offset="0"/>
   <stop stop-color="#d26ef7" offset="1"/>
  </linearGradient>
 </defs>
 <filter id="i" x="-.069933" y="-.054406" width="1.1399" height="1.1088" color-interpolation-filters="sRGB">
  <feGaussianBlur stdDeviation="1.9764485"/>
 </filter>
 <g transform="scale(3.7796)" shape-rendering="auto">
  <path d="m4.3693 0.52916c-2.1142 0-3.8402 1.7835-3.8402 3.9682v8.4675c0 2.1846 1.726 3.9682 3.8402 3.9682h8.1944c2.1142 0 3.8402-1.7835 3.8402-3.9682v-8.4675c0-2.1846-1.726-3.9682-3.8402-3.9682zm0.25704 0.52089h7.6808c1.8443 0 3.3291 1.5342 3.3291 3.44v7.9368c0 1.9058-1.4847 3.44-3.3291 3.44h-7.6808c-1.8443 0-3.3291-1.5342-3.3291-3.44v-7.9368c0-1.9058 1.4847-3.44 3.3291-3.44z" color="#000000" color-rendering="auto" dominant-baseline="auto" image-rendering="auto" opacity=".01" solid-color="#000000" stop-color="#000000" style="font-feature-settings:normal;font-variant-alternates:normal;font-variant-caps:normal;font-variant-east-asian:normal;font-variant-ligatures:normal;font-variant-numeric:normal;font-variant-position:normal;font-variation-settings:normal;inline-size:0;isolation:auto;mix-blend-mode:normal;shape-margin:0;shape-padding:0;text-decoration-color:#000000;text-decoration-line:none;text-decoration-style:solid;text-indent:0;text-orientation:mixed;text-transform:none;white-space:normal"/>
  <path d="m4.3587 0.79373c-1.9668 0-3.5639 1.6528-3.5639 3.6876v8.4996c0 2.0348 1.5971 3.6876 3.5639 3.6876h8.2162c1.9668 0 3.5644-1.6528 3.5644-3.6876v-8.4996c0-2.0348-1.5976-3.6876-3.5644-3.6876zm0.27222 0.25631h7.6718c1.8422 0 3.3251 1.5342 3.3251 3.44v7.9368c0 1.9058-1.483 3.44-3.3251 3.44h-7.6718c-1.8422 0-3.3251-1.5342-3.3251-3.44v-7.9368c0-1.9058 1.483-3.44 3.3251-3.44z" color="#000000" color-rendering="auto" dominant-baseline="auto" image-rendering="auto" opacity=".01" solid-color="#000000" stop-color="#000000" style="font-feature-settings:normal;font-variant-alternates:normal;font-variant-caps:normal;font-variant-east-asian:normal;font-variant-ligatures:normal;font-variant-numeric:normal;font-variant-position:normal;font-variation-settings:normal;inline-size:0;isolation:auto;mix-blend-mode:normal;shape-margin:0;shape-padding:0;text-decoration-color:#000000;text-decoration-line:none;text-decoration-style:solid;text-indent:0;text-orientation:mixed;text-transform:none;white-space:normal"/>
  <path d="m4.3097 1.0583c-1.8657 0-3.3751 1.5383-3.3751 3.439v8.4675c0 1.9007 1.57 3.439 3.4357 3.439h8.1996c1.8657 0 3.4274-1.5383 3.4274-3.439v-8.4675c0-1.9007-1.51-3.439-3.3756-3.439h-0.09688c1.794 0.086515 3.2138 1.5819 3.2138 3.4318v7.9368c0 1.9058-1.5059 3.44-3.3766 3.44h-7.7905c-1.8707 0-3.3766-1.5342-3.3766-3.44v-7.9368c0-1.8498 1.4199-3.3451 3.2138-3.4318z" color="#000000" color-rendering="auto" dominant-baseline="auto" image-rendering="auto" opacity=".03" solid-color="#000000" stop-color="#000000" style="font-feature-settings:normal;font-variant-alternates:normal;font-variant-caps:normal;font-variant-east-asian:normal;font-variant-ligatures:normal;font-variant-numeric:normal;font-variant-position:normal;font-variation-settings:normal;inline-size:0;isolation:auto;mix-blend-mode:normal;shape-margin:0;shape-padding:0;text-decoration-color:#000000;text-decoration-line:none;text-decoration-style:solid;text-indent:0;text-orientation:mixed;text-transform:none;white-space:normal"/>
  <path transform="scale(.26458)" d="m4 46.969v2.0312c0 6.6479 5.8957 12 12.544 12h30.961c6.6479 0 12.495-5.3521 12.495-12v-1.9922c-0.02117 7.1849-5.81 12.963-13 12.963h-29.998c-7.2032 0-13.002-5.7987-13.002-13.002z" color="#000000" color-rendering="auto" dominant-baseline="auto" image-rendering="auto" opacity=".03" solid-color="#000000" stop-color="#000000" style="font-feature-settings:normal;font-variant-alternates:normal;font-variant-caps:normal;font-variant-east-asian:normal;font-variant-ligatures:normal;font-variant-numeric:normal;font-variant-position:normal;font-variation-settings:normal;inline-size:0;isolation:auto;mix-blend-mode:normal;shape-margin:0;shape-padding:0;text-decoration-color:#000000;text-decoration-line:none;text-decoration-style:solid;text-indent:0;text-orientation:mixed;text-transform:none;white-space:normal"/>
  <path d="m1.0583 11.906v0.59234c0 1.9386 1.5729 3.4993 3.3318 3.4993h8.1603c1.7589 0 3.3243-1.5608 3.3243-3.4993v-0.58095c-0.0056 2.0952-1.5372 3.7801-3.4395 3.7801h-7.9368c-1.9058 0-3.44-1.691-3.44-3.7915z" color="#000000" color-rendering="auto" dominant-baseline="auto" image-rendering="auto" opacity=".05" solid-color="#000000" stop-color="#000000" style="font-feature-settings:normal;font-variant-alternates:normal;font-variant-caps:normal;font-variant-east-asian:normal;font-variant-ligatures:normal;font-variant-numeric:normal;font-variant-position:normal;font-variation-settings:normal;inline-size:0;isolation:auto;mix-blend-mode:normal;shape-margin:0;shape-padding:0;text-decoration-color:#000000;text-decoration-line:none;text-decoration-style:solid;text-indent:0;text-orientation:mixed;text-transform:none;white-space:normal"/>
 </g>
 <rect x="4" y="3.9686" width="56.002" height="56.002" rx="13.002" ry="13.002" fill="url(#linearGradient877)" stroke-width="3.7796"/>
 <g transform="translate(-54.787)">
  <g stroke="#000" stroke-linecap="round" stroke-linejoin="round">
   <path d="m86.794 12.008c-0.85136-3.51e-4 -1.7023 0.0228-2.1105 0.06928-5.0029 0.56931-9.0992 2.637-12.634 6.3774-2.3794 2.5175-4.0067 5.5542-4.8781 9.1032-0.28508 1.161-0.35957 1.669-0.42732 2.9212-0.06965 1.2876 0.0021 3.5156 0.14953 4.6394 0.21346 1.6285 0.85092 3.7128 1.7003 5.5596 1.5711 3.4164 4.1078 6.2906 7.3897 8.3747 1.0362 0.65794 3.1429 1.7376 4.0235 2.0618 0.26621 0.09802 0.31358 0.09739 0.39782-4e-3 0.15612-0.18811-0.04878-1.9214-0.28053-2.3732-0.14882-0.29012-0.29891-0.40596-0.94381-0.72776-3.5284-1.7606-6.3338-4.6125-8.1216-8.2556-0.77167-1.5723-1.3004-3.1421-1.4788-4.3918-0.20114-1.409-0.23622-3.7432-0.08299-5.5393 0.13699-1.6057 0.60102-3.192 1.4534-4.9682 1.2938-2.6958 3.1454-4.9562 5.5075-6.7253 2.2998-1.7222 5.0302-2.8706 7.7217-3.247 0.70111-0.09805 3.7131-0.13495 4.6346-0.05693 2.105 0.17823 3.891 0.7089 5.9874 1.7792 3.7758 1.9279 6.8052 5.2753 8.3921 9.2734 0.84844 2.1377 1.0712 3.4929 1.0714 6.5188 1.2e-4 2.4179-0.12974 3.3806-0.6763 5.0168-0.81896 2.4514-2.1097 4.6606-3.8355 6.564-1.3795 1.5214-3.4356 3.0901-5.181 3.9535-0.79743 0.39442-0.94738 0.52669-1.105 0.97329-0.2045 0.57958-0.34104 2.0562-0.20303 2.1942 0.11454 0.11454 0.53845-0.04257 1.7703-0.65436 1.2325-0.61214 2.9031-1.5847 3.673-2.1386 3.5443-2.55 6.3561-6.6126 7.5222-10.868 0.48144-1.7566 0.57869-2.4969 0.62142-4.7334 0.0358-1.8746-0.0344-3.2487-0.21194-4.1401-0.67997-3.4149-1.9914-6.3189-3.9665-8.7841-1.0202-1.2735-2.3121-2.579-3.4404-3.4761-3.0423-2.4188-6.3501-3.7723-10.324-4.2251-0.41072-0.0468-1.2626-0.07097-2.1139-0.07134zm-0.0583 6.6866c-1.5067 0.0075-2.9733 0.19414-3.9473 0.52058-2.0797 0.69694-4.1379 1.9965-5.6907 3.5941-1.4603 1.5022-2.4981 3.2087-3.1599 5.1954-0.47177 1.4163-0.61854 2.6062-0.56654 4.588 0.01798 0.68592 0.07217 1.4882 0.12278 1.8121 0.39674 2.5398 2.0577 5.6281 4.031 7.4964 0.27003 0.2556 0.58088 0.5257 0.69138 0.60018 0.11048 0.07446 0.41319 0.28688 0.67287 0.4719s0.4989 0.32775 0.53155 0.31689c0.03266-0.01087 0.0759-0.09336 0.09534-0.18314 0.01942-0.08978 0.0382-0.72994 0.04184-1.4226l0.0062-1.2593-0.64816-0.78259c-1.3818-1.6678-2.1564-3.1034-2.5975-4.8143-1.0808-4.1917 0.44616-8.5638 3.9473-11.302 1.6539-1.2936 3.6385-2.0227 6.1536-2.2607 1.2734-0.12048 3.6192 0.36485 5.0858 1.0522 2.5918 1.2145 4.7348 3.6655 5.6574 6.4687 0.42691 1.2974 0.50188 1.8043 0.49935 3.387-0.0021 1.2683-0.01338 1.4232-0.15158 2.0714-0.29934 1.404-0.8993 2.8394-1.6612 3.9748-0.21567 0.32138-0.69634 0.94962-1.0679 1.3958l-0.6756 0.81072 0.01714 1.3821c0.01215 1.0036 0.03552 1.4012 0.08574 1.4513 0.09269 0.09257 0.63546-0.27871 1.3855-0.94723 2.6419-2.3548 4.0477-4.9578 4.5983-8.5161 0.14934-0.96525 0.13521-2.7594-0.0288-3.6929-0.25262-1.4376-0.60384-2.5306-1.2134-3.7765-2.0913-4.275-6.2687-7.2309-10.711-7.5783-0.49442-0.03869-1.0012-0.05599-1.5035-0.0535zm0.1022 7.1922c-0.88913-4.56e-4 -1.0212 0.01238-1.4383 0.14061-1.171 0.36002-2.2903 1.3506-2.8389 2.5138-0.26959 0.57155-0.37001 0.98624-0.40537 1.6736-0.05355 1.0412 0.19812 2.0382 0.71059 2.8183 0.29791 0.4535 1.1 1.2471 1.5823 1.5652 1.1346 0.7484 2.5157 0.98396 3.8198 0.65159 1.6596-0.42295 2.9029-1.6381 3.4171-3.3396 0.1305-0.43182 0.14884-0.58852 0.14884-1.2758 0-0.68726-0.01833-0.84328-0.14884-1.2751-0.51359-1.6995-1.7234-2.8848-3.4205-3.3499-0.38094-0.1044-0.59338-0.12234-1.4267-0.12278zm-0.12552 11.276c-2.2276 0.01145-3.8593 0.7543-4.5262 2.0755-0.33325 0.66017-0.43813 1.8001-0.33266 3.6215 0.17632 3.0448 0.90476 8.5499 1.3786 10.42 0.3453 1.3622 0.83931 2.1722 1.6338 2.6771 0.31193 0.19824 1.0112 0.4264 1.524 0.49796 0.61799 0.08623 1.6053 0.02278 2.107-0.13581 1.1148-0.35222 1.7432-1.1108 2.1338-2.5762 0.345-1.2941 0.96371-5.9095 1.2751-9.512 0.12222-1.414 0.1243-3.4285 0.0041-4.0193-0.17161-0.84362-0.45771-1.296-1.1564-1.8279-1.1266-0.85762-2.0013-1.1529-3.5879-1.2127-0.15369-0.0058-0.30487-0.0083-0.45338-0.0075z" opacity=".01" stroke-width="5" style="paint-order:fill markers stroke"/>
   <path d="m86.794 12.008c-0.85136-3.51e-4 -1.7023 0.0228-2.1105 0.06928-5.0029 0.56931-9.0992 2.637-12.634 6.3774-2.3794 2.5175-4.0067 5.5542-4.8781 9.1032-0.28508 1.161-0.35957 1.669-0.42732 2.9212-0.06965 1.2876 0.0021 3.5156 0.14953 4.6394 0.21346 1.6285 0.85092 3.7128 1.7003 5.5596 1.5711 3.4164 4.1078 6.2906 7.3897 8.3747 1.0362 0.65794 3.1429 1.7376 4.0235 2.0618 0.26621 0.09802 0.31358 0.09739 0.39782-4e-3 0.15612-0.18811-0.04878-1.9214-0.28053-2.3732-0.14882-0.29012-0.29891-0.40596-0.94381-0.72776-3.5284-1.7606-6.3338-4.6125-8.1216-8.2556-0.77167-1.5723-1.3004-3.1421-1.4788-4.3918-0.20114-1.409-0.23622-3.7432-0.08299-5.5393 0.13699-1.6057 0.60102-3.192 1.4534-4.9682 1.2938-2.6958 3.1454-4.9562 5.5075-6.7253 2.2998-1.7222 5.0302-2.8706 7.7217-3.247 0.70111-0.09805 3.7131-0.13495 4.6346-0.05693 2.105 0.17823 3.891 0.7089 5.9874 1.7792 3.7758 1.9279 6.8052 5.2753 8.3921 9.2734 0.84844 2.1377 1.0712 3.4929 1.0714 6.5188 1.2e-4 2.4179-0.12974 3.3806-0.6763 5.0168-0.81896 2.4514-2.1097 4.6606-3.8355 6.564-1.3795 1.5214-3.4356 3.0901-5.181 3.9535-0.79743 0.39442-0.94738 0.52669-1.105 0.97329-0.2045 0.57958-0.34104 2.0562-0.20303 2.1942 0.11454 0.11454 0.53845-0.04257 1.7703-0.65436 1.2325-0.61214 2.9031-1.5847 3.673-2.1386 3.5443-2.55 6.3561-6.6126 7.5222-10.868 0.48144-1.7566 0.57869-2.4969 0.62142-4.7334 0.0358-1.8746-0.0344-3.2487-0.21194-4.1401-0.67997-3.4149-1.9914-6.3189-3.9665-8.7841-1.0202-1.2735-2.3121-2.579-3.4404-3.4761-3.0423-2.4188-6.3501-3.7723-10.324-4.2251-0.41072-0.0468-1.2626-0.07097-2.1139-0.07134zm-0.0583 6.6866c-1.5067 0.0075-2.9733 0.19414-3.9473 0.52058-2.0797 0.69694-4.1379 1.9965-5.6907 3.5941-1.4603 1.5022-2.4981 3.2087-3.1599 5.1954-0.47177 1.4163-0.61854 2.6062-0.56654 4.588 0.01798 0.68592 0.07217 1.4882 0.12278 1.8121 0.39674 2.5398 2.0577 5.6281 4.031 7.4964 0.27003 0.2556 0.58088 0.5257 0.69138 0.60018 0.11048 0.07446 0.41319 0.28688 0.67287 0.4719s0.4989 0.32775 0.53155 0.31689c0.03266-0.01087 0.0759-0.09336 0.09534-0.18314 0.01942-0.08978 0.0382-0.72994 0.04184-1.4226l0.0062-1.2593-0.64816-0.78259c-1.3818-1.6678-2.1564-3.1034-2.5975-4.8143-1.0808-4.1917 0.44616-8.5638 3.9473-11.302 1.6539-1.2936 3.6385-2.0227 6.1536-2.2607 1.2734-0.12048 3.6192 0.36485 5.0858 1.0522 2.5918 1.2145 4.7348 3.6655 5.6574 6.4687 0.42691 1.2974 0.50188 1.8043 0.49935 3.387-0.0021 1.2683-0.01338 1.4232-0.15158 2.0714-0.29934 1.404-0.8993 2.8394-1.6612 3.9748-0.21567 0.32138-0.69634 0.94962-1.0679 1.3958l-0.6756 0.81072 0.01714 1.3821c0.01215 1.0036 0.03552 1.4012 0.08574 1.4513 0.09269 0.09257 0.63546-0.27871 1.3855-0.94723 2.6419-2.3548 4.0477-4.9578 4.5983-8.5161 0.14934-0.96525 0.13521-2.7594-0.0288-3.6929-0.25262-1.4376-0.60384-2.5306-1.2134-3.7765-2.0913-4.275-6.2687-7.2309-10.711-7.5783-0.49442-0.03869-1.0012-0.05599-1.5035-0.0535zm0.1022 7.1922c-0.88913-4.56e-4 -1.0212 0.01238-1.4383 0.14061-1.171 0.36002-2.2903 1.3506-2.8389 2.5138-0.26959 0.57155-0.37001 0.98624-0.40537 1.6736-0.05355 1.0412 0.19812 2.0382 0.71059 2.8183 0.29791 0.4535 1.1 1.2471 1.5823 1.5652 1.1346 0.7484 2.5157 0.98396 3.8198 0.65159 1.6596-0.42295 2.9029-1.6381 3.4171-3.3396 0.1305-0.43182 0.14884-0.58852 0.14884-1.2758 0-0.68726-0.01833-0.84328-0.14884-1.2751-0.51359-1.6995-1.7234-2.8848-3.4205-3.3499-0.38094-0.1044-0.59338-0.12234-1.4267-0.12278zm-0.12552 11.276c-2.2276 0.01145-3.8593 0.7543-4.5262 2.0755-0.33325 0.66017-0.43813 1.8001-0.33266 3.6215 0.17632 3.0448 0.90476 8.5499 1.3786 10.42 0.3453 1.3622 0.83931 2.1722 1.6338 2.6771 0.31193 0.19824 1.0112 0.4264 1.524 0.49796 0.61799 0.08623 1.6053 0.02278 2.107-0.13581 1.1148-0.35222 1.7432-1.1108 2.1338-2.5762 0.345-1.2941 0.96371-5.9095 1.2751-9.512 0.12222-1.414 0.1243-3.4285 0.0041-4.0193-0.17161-0.84362-0.45771-1.296-1.1564-1.8279-1.1266-0.85762-2.0013-1.1529-3.5879-1.2127-0.15369-0.0058-0.30487-0.0083-0.45338-0.0075z" opacity=".02" stroke-width="4" style="paint-order:fill markers stroke"/>
   <path d="m86.794 12.008c-0.85136-3.51e-4 -1.7023 0.0228-2.1105 0.06928-5.0029 0.56931-9.0992 2.637-12.634 6.3774-2.3794 2.5175-4.0067 5.5542-4.8781 9.1032-0.28508 1.161-0.35957 1.669-0.42732 2.9212-0.06965 1.2876 0.0021 3.5156 0.14953 4.6394 0.21346 1.6285 0.85092 3.7128 1.7003 5.5596 1.5711 3.4164 4.1078 6.2906 7.3897 8.3747 1.0362 0.65794 3.1429 1.7376 4.0235 2.0618 0.26621 0.09802 0.31358 0.09739 0.39782-4e-3 0.15612-0.18811-0.04878-1.9214-0.28053-2.3732-0.14882-0.29012-0.29891-0.40596-0.94381-0.72776-3.5284-1.7606-6.3338-4.6125-8.1216-8.2556-0.77167-1.5723-1.3004-3.1421-1.4788-4.3918-0.20114-1.409-0.23622-3.7432-0.08299-5.5393 0.13699-1.6057 0.60102-3.192 1.4534-4.9682 1.2938-2.6958 3.1454-4.9562 5.5075-6.7253 2.2998-1.7222 5.0302-2.8706 7.7217-3.247 0.70111-0.09805 3.7131-0.13495 4.6346-0.05693 2.105 0.17823 3.891 0.7089 5.9874 1.7792 3.7758 1.9279 6.8052 5.2753 8.3921 9.2734 0.84844 2.1377 1.0712 3.4929 1.0714 6.5188 1.2e-4 2.4179-0.12974 3.3806-0.6763 5.0168-0.81896 2.4514-2.1097 4.6606-3.8355 6.564-1.3795 1.5214-3.4356 3.0901-5.181 3.9535-0.79743 0.39442-0.94738 0.52669-1.105 0.97329-0.2045 0.57958-0.34104 2.0562-0.20303 2.1942 0.11454 0.11454 0.53845-0.04257 1.7703-0.65436 1.2325-0.61214 2.9031-1.5847 3.673-2.1386 3.5443-2.55 6.3561-6.6126 7.5222-10.868 0.48144-1.7566 0.57869-2.4969 0.62142-4.7334 0.0358-1.8746-0.0344-3.2487-0.21194-4.1401-0.67997-3.4149-1.9914-6.3189-3.9665-8.7841-1.0202-1.2735-2.3121-2.579-3.4404-3.4761-3.0423-2.4188-6.3501-3.7723-10.324-4.2251-0.41072-0.0468-1.2626-0.07097-2.1139-0.07134zm-0.0583 6.6866c-1.5067 0.0075-2.9733 0.19414-3.9473 0.52058-2.0797 0.69694-4.1379 1.9965-5.6907 3.5941-1.4603 1.5022-2.4981 3.2087-3.1599 5.1954-0.47177 1.4163-0.61854 2.6062-0.56654 4.588 0.01798 0.68592 0.07217 1.4882 0.12278 1.8121 0.39674 2.5398 2.0577 5.6281 4.031 7.4964 0.27003 0.2556 0.58088 0.5257 0.69138 0.60018 0.11048 0.07446 0.41319 0.28688 0.67287 0.4719s0.4989 0.32775 0.53155 0.31689c0.03266-0.01087 0.0759-0.09336 0.09534-0.18314 0.01942-0.08978 0.0382-0.72994 0.04184-1.4226l0.0062-1.2593-0.64816-0.78259c-1.3818-1.6678-2.1564-3.1034-2.5975-4.8143-1.0808-4.1917 0.44616-8.5638 3.9473-11.302 1.6539-1.2936 3.6385-2.0227 6.1536-2.2607 1.2734-0.12048 3.6192 0.36485 5.0858 1.0522 2.5918 1.2145 4.7348 3.6655 5.6574 6.4687 0.42691 1.2974 0.50188 1.8043 0.49935 3.387-0.0021 1.2683-0.01338 1.4232-0.15158 2.0714-0.29934 1.404-0.8993 2.8394-1.6612 3.9748-0.21567 0.32138-0.69634 0.94962-1.0679 1.3958l-0.6756 0.81072 0.01714 1.3821c0.01215 1.0036 0.03552 1.4012 0.08574 1.4513 0.09269 0.09257 0.63546-0.27871 1.3855-0.94723 2.6419-2.3548 4.0477-4.9578 4.5983-8.5161 0.14934-0.96525 0.13521-2.7594-0.0288-3.6929-0.25262-1.4376-0.60384-2.5306-1.2134-3.7765-2.0913-4.275-6.2687-7.2309-10.711-7.5783-0.49442-0.03869-1.0012-0.05599-1.5035-0.0535zm0.1022 7.1922c-0.88913-4.56e-4 -1.0212 0.01238-1.4383 0.14061-1.171 0.36002-2.2903 1.3506-2.8389 2.5138-0.26959 0.57155-0.37001 0.98624-0.40537 1.6736-0.05355 1.0412 0.19812 2.0382 0.71059 2.8183 0.29791 0.4535 1.1 1.2471 1.5823 1.5652 1.1346 0.7484 2.5157 0.98396 3.8198 0.65159 1.6596-0.42295 2.9029-1.6381 3.4171-3.3396 0.1305-0.43182 0.14884-0.58852 0.14884-1.2758 0-0.68726-0.01833-0.84328-0.14884-1.2751-0.51359-1.6995-1.7234-2.8848-3.4205-3.3499-0.38094-0.1044-0.59338-0.12234-1.4267-0.12278zm-0.12552 11.276c-2.2276 0.01145-3.8593 0.7543-4.5262 2.0755-0.33325 0.66017-0.43813 1.8001-0.33266 3.6215 0.17632 3.0448 0.90476 8.5499 1.3786 10.42 0.3453 1.3622 0.83931 2.1722 1.6338 2.6771 0.31193 0.19824 1.0112 0.4264 1.524 0.49796 0.61799 0.08623 1.6053 0.02278 2.107-0.13581 1.1148-0.35222 1.7432-1.1108 2.1338-2.5762 0.345-1.2941 0.96371-5.9095 1.2751-9.512 0.12222-1.414 0.1243-3.4285 0.0041-4.0193-0.17161-0.84362-0.45771-1.296-1.1564-1.8279-1.1266-0.85762-2.0013-1.1529-3.5879-1.2127-0.15369-0.0058-0.30487-0.0083-0.45338-0.0075z" opacity=".03" stroke-width="3" style="paint-order:fill markers stroke"/>
   <path d="m86.794 12.008c-0.85136-3.51e-4 -1.7023 0.0228-2.1105 0.06928-5.0029 0.56931-9.0992 2.637-12.634 6.3774-2.3794 2.5175-4.0067 5.5542-4.8781 9.1032-0.28508 1.161-0.35957 1.669-0.42732 2.9212-0.06965 1.2876 0.0021 3.5156 0.14953 4.6394 0.21346 1.6285 0.85092 3.7128 1.7003 5.5596 1.5711 3.4164 4.1078 6.2906 7.3897 8.3747 1.0362 0.65794 3.1429 1.7376 4.0235 2.0618 0.26621 0.09802 0.31358 0.09739 0.39782-4e-3 0.15612-0.18811-0.04878-1.9214-0.28053-2.3732-0.14882-0.29012-0.29891-0.40596-0.94381-0.72776-3.5284-1.7606-6.3338-4.6125-8.1216-8.2556-0.77167-1.5723-1.3004-3.1421-1.4788-4.3918-0.20114-1.409-0.23622-3.7432-0.08299-5.5393 0.13699-1.6057 0.60102-3.192 1.4534-4.9682 1.2938-2.6958 3.1454-4.9562 5.5075-6.7253 2.2998-1.7222 5.0302-2.8706 7.7217-3.247 0.70111-0.09805 3.7131-0.13495 4.6346-0.05693 2.105 0.17823 3.891 0.7089 5.9874 1.7792 3.7758 1.9279 6.8052 5.2753 8.3921 9.2734 0.84844 2.1377 1.0712 3.4929 1.0714 6.5188 1.2e-4 2.4179-0.12974 3.3806-0.6763 5.0168-0.81896 2.4514-2.1097 4.6606-3.8355 6.564-1.3795 1.5214-3.4356 3.0901-5.181 3.9535-0.79743 0.39442-0.94738 0.52669-1.105 0.97329-0.2045 0.57958-0.34104 2.0562-0.20303 2.1942 0.11454 0.11454 0.53845-0.04257 1.7703-0.65436 1.2325-0.61214 2.9031-1.5847 3.673-2.1386 3.5443-2.55 6.3561-6.6126 7.5222-10.868 0.48144-1.7566 0.57869-2.4969 0.62142-4.7334 0.0358-1.8746-0.0344-3.2487-0.21194-4.1401-0.67997-3.4149-1.9914-6.3189-3.9665-8.7841-1.0202-1.2735-2.3121-2.579-3.4404-3.4761-3.0423-2.4188-6.3501-3.7723-10.324-4.2251-0.41072-0.0468-1.2626-0.07097-2.1139-0.07134zm-0.0583 6.6866c-1.5067 0.0075-2.9733 0.19414-3.9473 0.52058-2.0797 0.69694-4.1379 1.9965-5.6907 3.5941-1.4603 1.5022-2.4981 3.2087-3.1599 5.1954-0.47177 1.4163-0.61854 2.6062-0.56654 4.588 0.01798 0.68592 0.07217 1.4882 0.12278 1.8121 0.39674 2.5398 2.0577 5.6281 4.031 7.4964 0.27003 0.2556 0.58088 0.5257 0.69138 0.60018 0.11048 0.07446 0.41319 0.28688 0.67287 0.4719s0.4989 0.32775 0.53155 0.31689c0.03266-0.01087 0.0759-0.09336 0.09534-0.18314 0.01942-0.08978 0.0382-0.72994 0.04184-1.4226l0.0062-1.2593-0.64816-0.78259c-1.3818-1.6678-2.1564-3.1034-2.5975-4.8143-1.0808-4.1917 0.44616-8.5638 3.9473-11.302 1.6539-1.2936 3.6385-2.0227 6.1536-2.2607 1.2734-0.12048 3.6192 0.36485 5.0858 1.0522 2.5918 1.2145 4.7348 3.6655 5.6574 6.4687 0.42691 1.2974 0.50188 1.8043 0.49935 3.387-0.0021 1.2683-0.01338 1.4232-0.15158 2.0714-0.29934 1.404-0.8993 2.8394-1.6612 3.9748-0.21567 0.32138-0.69634 0.94962-1.0679 1.3958l-0.6756 0.81072 0.01714 1.3821c0.01215 1.0036 0.03552 1.4012 0.08574 1.4513 0.09269 0.09257 0.63546-0.27871 1.3855-0.94723 2.6419-2.3548 4.0477-4.9578 4.5983-8.5161 0.14934-0.96525 0.13521-2.7594-0.0288-3.6929-0.25262-1.4376-0.60384-2.5306-1.2134-3.7765-2.0913-4.275-6.2687-7.2309-10.711-7.5783-0.49442-0.03869-1.0012-0.05599-1.5035-0.0535zm0.1022 7.1922c-0.88913-4.56e-4 -1.0212 0.01238-1.4383 0.14061-1.171 0.36002-2.2903 1.3506-2.8389 2.5138-0.26959 0.57155-0.37001 0.98624-0.40537 1.6736-0.05355 1.0412 0.19812 2.0382 0.71059 2.8183 0.29791 0.4535 1.1 1.2471 1.5823 1.5652 1.1346 0.7484 2.5157 0.98396 3.8198 0.65159 1.6596-0.42295 2.9029-1.6381 3.4171-3.3396 0.1305-0.43182 0.14884-0.58852 0.14884-1.2758 0-0.68726-0.01833-0.84328-0.14884-1.2751-0.51359-1.6995-1.7234-2.8848-3.4205-3.3499-0.38094-0.1044-0.59338-0.12234-1.4267-0.12278zm-0.12552 11.276c-2.2276 0.01145-3.8593 0.7543-4.5262 2.0755-0.33325 0.66017-0.43813 1.8001-0.33266 3.6215 0.17632 3.0448 0.90476 8.5499 1.3786 10.42 0.3453 1.3622 0.83931 2.1722 1.6338 2.6771 0.31193 0.19824 1.0112 0.4264 1.524 0.49796 0.61799 0.08623 1.6053 0.02278 2.107-0.13581 1.1148-0.35222 1.7432-1.1108 2.1338-2.5762 0.345-1.2941 0.96371-5.9095 1.2751-9.512 0.12222-1.414 0.1243-3.4285 0.0041-4.0193-0.17161-0.84362-0.45771-1.296-1.1564-1.8279-1.1266-0.85762-2.0013-1.1529-3.5879-1.2127-0.15369-0.0058-0.30487-0.0083-0.45338-0.0075z" opacity=".04" stroke-width="2" style="paint-order:fill markers stroke"/>
   <path d="m86.794 12.008c-0.85136-3.51e-4 -1.7023 0.0228-2.1105 0.06928-5.0029 0.56931-9.0992 2.637-12.634 6.3774-2.3794 2.5175-4.0067 5.5542-4.8781 9.1032-0.28508 1.161-0.35957 1.669-0.42732 2.9212-0.06965 1.2876 0.0021 3.5156 0.14953 4.6394 0.21346 1.6285 0.85092 3.7128 1.7003 5.5596 1.5711 3.4164 4.1078 6.2906 7.3897 8.3747 1.0362 0.65794 3.1429 1.7376 4.0235 2.0618 0.26621 0.09802 0.31358 0.09739 0.39782-4e-3 0.15612-0.18811-0.04878-1.9214-0.28053-2.3732-0.14882-0.29012-0.29891-0.40596-0.94381-0.72776-3.5284-1.7606-6.3338-4.6125-8.1216-8.2556-0.77167-1.5723-1.3004-3.1421-1.4788-4.3918-0.20114-1.409-0.23622-3.7432-0.08299-5.5393 0.13699-1.6057 0.60102-3.192 1.4534-4.9682 1.2938-2.6958 3.1454-4.9562 5.5075-6.7253 2.2998-1.7222 5.0302-2.8706 7.7217-3.247 0.70111-0.09805 3.7131-0.13495 4.6346-0.05693 2.105 0.17823 3.891 0.7089 5.9874 1.7792 3.7758 1.9279 6.8052 5.2753 8.3921 9.2734 0.84844 2.1377 1.0712 3.4929 1.0714 6.5188 1.2e-4 2.4179-0.12974 3.3806-0.6763 5.0168-0.81896 2.4514-2.1097 4.6606-3.8355 6.564-1.3795 1.5214-3.4356 3.0901-5.181 3.9535-0.79743 0.39442-0.94738 0.52669-1.105 0.97329-0.2045 0.57958-0.34104 2.0562-0.20303 2.1942 0.11454 0.11454 0.53845-0.04257 1.7703-0.65436 1.2325-0.61214 2.9031-1.5847 3.673-2.1386 3.5443-2.55 6.3561-6.6126 7.5222-10.868 0.48144-1.7566 0.57869-2.4969 0.62142-4.7334 0.0358-1.8746-0.0344-3.2487-0.21194-4.1401-0.67997-3.4149-1.9914-6.3189-3.9665-8.7841-1.0202-1.2735-2.3121-2.579-3.4404-3.4761-3.0423-2.4188-6.3501-3.7723-10.324-4.2251-0.41072-0.0468-1.2626-0.07097-2.1139-0.07134zm-0.0583 6.6866c-1.5067 0.0075-2.9733 0.19414-3.9473 0.52058-2.0797 0.69694-4.1379 1.9965-5.6907 3.5941-1.4603 1.5022-2.4981 3.2087-3.1599 5.1954-0.47177 1.4163-0.61854 2.6062-0.56654 4.588 0.01798 0.68592 0.07217 1.4882 0.12278 1.8121 0.39674 2.5398 2.0577 5.6281 4.031 7.4964 0.27003 0.2556 0.58088 0.5257 0.69138 0.60018 0.11048 0.07446 0.41319 0.28688 0.67287 0.4719s0.4989 0.32775 0.53155 0.31689c0.03266-0.01087 0.0759-0.09336 0.09534-0.18314 0.01942-0.08978 0.0382-0.72994 0.04184-1.4226l0.0062-1.2593-0.64816-0.78259c-1.3818-1.6678-2.1564-3.1034-2.5975-4.8143-1.0808-4.1917 0.44616-8.5638 3.9473-11.302 1.6539-1.2936 3.6385-2.0227 6.1536-2.2607 1.2734-0.12048 3.6192 0.36485 5.0858 1.0522 2.5918 1.2145 4.7348 3.6655 5.6574 6.4687 0.42691 1.2974 0.50188 1.8043 0.49935 3.387-0.0021 1.2683-0.01338 1.4232-0.15158 2.0714-0.29934 1.404-0.8993 2.8394-1.6612 3.9748-0.21567 0.32138-0.69634 0.94962-1.0679 1.3958l-0.6756 0.81072 0.01714 1.3821c0.01215 1.0036 0.03552 1.4012 0.08574 1.4513 0.09269 0.09257 0.63546-0.27871 1.3855-0.94723 2.6419-2.3548 4.0477-4.9578 4.5983-8.5161 0.14934-0.96525 0.13521-2.7594-0.0288-3.6929-0.25262-1.4376-0.60384-2.5306-1.2134-3.7765-2.0913-4.275-6.2687-7.2309-10.711-7.5783-0.49442-0.03869-1.0012-0.05599-1.5035-0.0535zm0.1022 7.1922c-0.88913-4.56e-4 -1.0212 0.01238-1.4383 0.14061-1.171 0.36002-2.2903 1.3506-2.8389 2.5138-0.26959 0.57155-0.37001 0.98624-0.40537 1.6736-0.05355 1.0412 0.19812 2.0382 0.71059 2.8183 0.29791 0.4535 1.1 1.2471 1.5823 1.5652 1.1346 0.7484 2.5157 0.98396 3.8198 0.65159 1.6596-0.42295 2.9029-1.6381 3.4171-3.3396 0.1305-0.43182 0.14884-0.58852 0.14884-1.2758 0-0.68726-0.01833-0.84328-0.14884-1.2751-0.51359-1.6995-1.7234-2.8848-3.4205-3.3499-0.38094-0.1044-0.59338-0.12234-1.4267-0.12278zm-0.12552 11.276c-2.2276 0.01145-3.8593 0.7543-4.5262 2.0755-0.33325 0.66017-0.43813 1.8001-0.33266 3.6215 0.17632 3.0448 0.90476 8.5499 1.3786 10.42 0.3453 1.3622 0.83931 2.1722 1.6338 2.6771 0.31193 0.19824 1.0112 0.4264 1.524 0.49796 0.61799 0.08623 1.6053 0.02278 2.107-0.13581 1.1148-0.35222 1.7432-1.1108 2.1338-2.5762 0.345-1.2941 0.96371-5.9095 1.2751-9.512 0.12222-1.414 0.1243-3.4285 0.0041-4.0193-0.17161-0.84362-0.45771-1.296-1.1564-1.8279-1.1266-0.85762-2.0013-1.1529-3.5879-1.2127-0.15369-0.0058-0.30487-0.0083-0.45338-0.0075z" opacity=".05" style="paint-order:fill markers stroke"/>
  </g>
  <path d="m86.794 12.008c-0.85136-3.51e-4 -1.7023 0.0228-2.1105 0.06928-5.0029 0.56931-9.0992 2.637-12.634 6.3774-2.3794 2.5175-4.0067 5.5542-4.8781 9.1032-0.28508 1.161-0.35957 1.669-0.42732 2.9212-0.06965 1.2876 0.0021 3.5156 0.14953 4.6394 0.21346 1.6285 0.85092 3.7128 1.7003 5.5596 1.5711 3.4164 4.1078 6.2906 7.3897 8.3747 1.0362 0.65794 3.1429 1.7376 4.0235 2.0618 0.26621 0.09802 0.31358 0.09739 0.39782-4e-3 0.15612-0.18811-0.04878-1.9214-0.28053-2.3732-0.14882-0.29012-0.29891-0.40596-0.94381-0.72776-3.5284-1.7606-6.3338-4.6125-8.1216-8.2556-0.77167-1.5723-1.3004-3.1421-1.4788-4.3918-0.20114-1.409-0.23622-3.7432-0.08299-5.5393 0.13699-1.6057 0.60102-3.192 1.4534-4.9682 1.2938-2.6958 3.1454-4.9562 5.5075-6.7253 2.2998-1.7222 5.0302-2.8706 7.7217-3.247 0.70111-0.09805 3.7131-0.13495 4.6346-0.05693 2.105 0.17823 3.891 0.7089 5.9874 1.7792 3.7758 1.9279 6.8052 5.2753 8.3921 9.2734 0.84844 2.1377 1.0712 3.4929 1.0714 6.5188 1.2e-4 2.4179-0.12974 3.3806-0.6763 5.0168-0.81896 2.4514-2.1097 4.6606-3.8355 6.564-1.3795 1.5214-3.4356 3.0901-5.181 3.9535-0.79743 0.39442-0.94738 0.52669-1.105 0.97329-0.2045 0.57958-0.34104 2.0562-0.20303 2.1942 0.11454 0.11454 0.53845-0.04257 1.7703-0.65436 1.2325-0.61214 2.9031-1.5847 3.673-2.1386 3.5443-2.55 6.3561-6.6126 7.5222-10.868 0.48144-1.7566 0.57869-2.4969 0.62142-4.7334 0.0358-1.8746-0.0344-3.2487-0.21194-4.1401-0.67997-3.4149-1.9914-6.3189-3.9665-8.7841-1.0202-1.2735-2.3121-2.579-3.4404-3.4761-3.0423-2.4188-6.3501-3.7723-10.324-4.2251-0.41072-0.0468-1.2626-0.07097-2.1139-0.07134zm-0.0583 6.6866c-1.5067 0.0075-2.9733 0.19414-3.9473 0.52058-2.0797 0.69694-4.1379 1.9965-5.6907 3.5941-1.4603 1.5022-2.4981 3.2087-3.1599 5.1954-0.47177 1.4163-0.61854 2.6062-0.56654 4.588 0.01798 0.68592 0.07217 1.4882 0.12278 1.8121 0.39674 2.5398 2.0577 5.6281 4.031 7.4964 0.27003 0.2556 0.58088 0.5257 0.69138 0.60018 0.11048 0.07446 0.41319 0.28688 0.67287 0.4719s0.4989 0.32775 0.53155 0.31689c0.03266-0.01087 0.0759-0.09336 0.09534-0.18314 0.01942-0.08978 0.0382-0.72994 0.04184-1.4226l0.0062-1.2593-0.64816-0.78259c-1.3818-1.6678-2.1564-3.1034-2.5975-4.8143-1.0808-4.1917 0.44616-8.5638 3.9473-11.302 1.6539-1.2936 3.6385-2.0227 6.1536-2.2607 1.2734-0.12048 3.6192 0.36485 5.0858 1.0522 2.5918 1.2145 4.7348 3.6655 5.6574 6.4687 0.42691 1.2974 0.50188 1.8043 0.49935 3.387-0.0021 1.2683-0.01338 1.4232-0.15158 2.0714-0.29934 1.404-0.8993 2.8394-1.6612 3.9748-0.21567 0.32138-0.69634 0.94962-1.0679 1.3958l-0.6756 0.81072 0.01714 1.3821c0.01215 1.0036 0.03552 1.4012 0.08574 1.4513 0.09269 0.09257 0.63546-0.27871 1.3855-0.94723 2.6419-2.3548 4.0477-4.9578 4.5983-8.5161 0.14934-0.96525 0.13521-2.7594-0.0288-3.6929-0.25262-1.4376-0.60384-2.5306-1.2134-3.7765-2.0913-4.275-6.2687-7.2309-10.711-7.5783-0.49442-0.03869-1.0012-0.05599-1.5035-0.0535zm0.1022 7.1922c-0.88913-4.56e-4 -1.0212 0.01238-1.4383 0.14061-1.171 0.36002-2.2903 1.3506-2.8389 2.5138-0.26959 0.57155-0.37001 0.98624-0.40537 1.6736-0.05355 1.0412 0.19812 2.0382 0.71059 2.8183 0.29791 0.4535 1.1 1.2471 1.5823 1.5652 1.1346 0.7484 2.5157 0.98396 3.8198 0.65159 1.6596-0.42295 2.9029-1.6381 3.4171-3.3396 0.1305-0.43182 0.14884-0.58852 0.14884-1.2758 0-0.68726-0.01833-0.84328-0.14884-1.2751-0.51359-1.6995-1.7234-2.8848-3.4205-3.3499-0.38094-0.1044-0.59338-0.12234-1.4267-0.12278zm-0.12552 11.276c-2.2276 0.01145-3.8593 0.7543-4.5262 2.0755-0.33325 0.66017-0.43813 1.8001-0.33266 3.6215 0.17632 3.0448 0.90476 8.5499 1.3786 10.42 0.3453 1.3622 0.83931 2.1722 1.6338 2.6771 0.31193 0.19824 1.0112 0.4264 1.524 0.49796 0.61799 0.08623 1.6053 0.02278 2.107-0.13581 1.1148-0.35222 1.7432-1.1108 2.1338-2.5762 0.345-1.2941 0.96371-5.9095 1.2751-9.512 0.12222-1.414 0.1243-3.4285 0.0041-4.0193-0.17161-0.84362-0.45771-1.296-1.1564-1.8279-1.1266-0.85762-2.0013-1.1529-3.5879-1.2127-0.15369-0.0058-0.30487-0.0083-0.45338-0.0075z" opacity=".1" stroke-width=".99998" style="paint-order:fill markers stroke"/>
 </g>
 <path d="m32.005 11.458c-0.85136-3.51e-4 -1.7023 0.0228-2.1105 0.06928-5.0029 0.56931-9.0992 2.637-12.634 6.3774-2.3794 2.5175-4.0067 5.5542-4.8781 9.1032-0.28508 1.161-0.35957 1.669-0.42732 2.9212-0.06965 1.2876 0.0021 3.5156 0.14953 4.6394 0.21346 1.6285 0.85092 3.7128 1.7003 5.5596 1.5711 3.4164 4.1078 6.2906 7.3897 8.3747 1.0362 0.65794 3.1429 1.7376 4.0235 2.0618 0.26621 0.09802 0.31358 0.09739 0.39782-4e-3 0.15612-0.18811-0.04878-1.9214-0.28053-2.3732-0.14882-0.29012-0.29891-0.40596-0.94381-0.72776-3.5284-1.7606-6.3338-4.6125-8.1216-8.2556-0.77167-1.5723-1.3004-3.1421-1.4788-4.3918-0.20114-1.409-0.23622-3.7432-0.08299-5.5393 0.13699-1.6057 0.60102-3.192 1.4534-4.9682 1.2938-2.6958 3.1454-4.9562 5.5075-6.7253 2.2998-1.7222 5.0302-2.8706 7.7217-3.247 0.70111-0.09805 3.7131-0.13495 4.6346-0.05693 2.105 0.17823 3.891 0.7089 5.9874 1.7792 3.7758 1.9279 6.8052 5.2753 8.3921 9.2734 0.84844 2.1377 1.0712 3.4929 1.0714 6.5188 1.14e-4 2.4179-0.12974 3.3806-0.6763 5.0168-0.81896 2.4514-2.1097 4.6606-3.8355 6.564-1.3795 1.5214-3.4356 3.0901-5.181 3.9535-0.79743 0.39442-0.94738 0.52669-1.105 0.97329-0.2045 0.57958-0.34104 2.0562-0.20303 2.1942 0.11454 0.11454 0.53845-0.04257 1.7703-0.65436 1.2325-0.61214 2.9031-1.5847 3.673-2.1386 3.5443-2.55 6.3561-6.6126 7.5222-10.868 0.48144-1.7566 0.57869-2.4969 0.62142-4.7334 0.03583-1.8746-0.03444-3.2487-0.21194-4.1401-0.67997-3.4149-1.9914-6.3189-3.9665-8.7841-1.0202-1.2735-2.3121-2.579-3.4404-3.4761-3.0423-2.4188-6.3501-3.7723-10.324-4.2251-0.41072-0.0468-1.2626-0.07097-2.1139-0.07134zm-0.0583 6.6866c-1.5067 0.0075-2.9733 0.19414-3.9473 0.52058-2.0797 0.69694-4.1379 1.9965-5.6907 3.5941-1.4603 1.5022-2.4981 3.2087-3.1599 5.1954-0.47177 1.4163-0.61854 2.6062-0.56654 4.588 0.01798 0.68592 0.07217 1.4882 0.12278 1.8121 0.39674 2.5398 2.0577 5.6281 4.031 7.4964 0.27003 0.2556 0.58088 0.5257 0.69138 0.60018 0.11048 0.07446 0.41319 0.28688 0.67287 0.4719s0.4989 0.32775 0.53155 0.31689c0.03266-0.01087 0.0759-0.09336 0.09534-0.18314 0.01942-0.08978 0.0382-0.72994 0.04184-1.4226l0.0062-1.2593-0.64816-0.78259c-1.3818-1.6678-2.1564-3.1034-2.5975-4.8143-1.0808-4.1917 0.44616-8.5638 3.9473-11.302 1.6539-1.2936 3.6385-2.0227 6.1536-2.2607 1.2734-0.12048 3.6192 0.36485 5.0858 1.0522 2.5918 1.2145 4.7348 3.6655 5.6574 6.4687 0.42691 1.2974 0.50188 1.8043 0.49935 3.387-0.0021 1.2683-0.01338 1.4232-0.15158 2.0714-0.29934 1.404-0.8993 2.8394-1.6612 3.9748-0.21567 0.32138-0.69634 0.94962-1.0679 1.3958l-0.6756 0.81072 0.01714 1.3821c0.01215 1.0036 0.03552 1.4012 0.08574 1.4513 0.09269 0.09257 0.63546-0.27871 1.3855-0.94723 2.6419-2.3548 4.0477-4.9578 4.5983-8.5161 0.14934-0.96525 0.13521-2.7594-0.0288-3.6929-0.25262-1.4376-0.60385-2.5306-1.2134-3.7765-2.0913-4.275-6.2687-7.2309-10.711-7.5783-0.49442-0.03869-1.0012-0.05599-1.5035-0.0535zm0.1022 7.1922c-0.88913-4.56e-4 -1.0212 0.01238-1.4383 0.14061-1.171 0.36002-2.2903 1.3506-2.8389 2.5138-0.26959 0.57155-0.37001 0.98624-0.40537 1.6736-0.05355 1.0412 0.19812 2.0382 0.71059 2.8183 0.29791 0.4535 1.1 1.2471 1.5823 1.5652 1.1346 0.7484 2.5157 0.98396 3.8198 0.65159 1.6596-0.42295 2.9029-1.6381 3.4171-3.3396 0.1305-0.43182 0.14884-0.58852 0.14884-1.2758 0-0.68726-0.01833-0.84328-0.14884-1.2751-0.51359-1.6995-1.7234-2.8848-3.4205-3.3499-0.38094-0.1044-0.59338-0.12234-1.4267-0.12278zm-0.12552 11.276c-2.2276 0.01145-3.8593 0.7543-4.5262 2.0755-0.33325 0.66017-0.43813 1.8001-0.33266 3.6215 0.17632 3.0448 0.90476 8.5499 1.3786 10.42 0.3453 1.3622 0.83931 2.1722 1.6338 2.6771 0.31193 0.19824 1.0112 0.4264 1.524 0.49796 0.61799 0.08623 1.6053 0.02278 2.107-0.13581 1.1148-0.35222 1.7432-1.1108 2.1338-2.5762 0.345-1.2941 0.96371-5.9095 1.2751-9.512 0.12222-1.414 0.1243-3.4285 0.0041-4.0193-0.17161-0.84362-0.45771-1.296-1.1564-1.8279-1.1266-0.85762-2.0013-1.1529-3.5879-1.2127-0.15369-0.0058-0.30487-0.0083-0.45338-0.0075z" fill="#fff" stroke-width=".99998" style="paint-order:fill markers stroke"/>
 <path d="m31.625 13.457c-0.95582 0.011729-1.8838 0.044725-2.2344 0.09375-2.6915 0.3764-5.4209 1.5258-7.7207 3.248-2.3621 1.7691-4.214 4.0288-5.5078 6.7246-0.85238 1.7762-1.3161 3.363-1.4531 4.9688-0.080203 0.94012-0.10572 2.0218-0.085937 3.0469 0.003636-0.77976 0.025991-1.563 0.085937-2.2656 0.13699-1.6057 0.60074-3.1926 1.4531-4.9688 1.2938-2.6958 3.1457-4.9555 5.5078-6.7246 2.2998-1.7222 5.0292-2.8716 7.7207-3.248 0.70111-0.09805 3.7133-0.13466 4.6348-0.05664 2.105 0.17823 3.8919 0.709 5.9883 1.7793 3.7758 1.9279 6.8037 5.2753 8.3906 9.2734 0.81254 2.0472 1.0455 3.415 1.0645 6.1816 0.001384-0.15673 0.007821-0.27291 0.007812-0.44336-1.99e-4 -3.0259-0.22382-4.3818-1.0723-6.5195-1.5869-3.9981-4.6148-7.3455-8.3906-9.2734-2.0964-1.0703-3.8833-1.6011-5.9883-1.7793-0.46075-0.03901-1.4446-0.048838-2.4004-0.03711zm0.5293 6.459c-0.18888-0.003083-0.36426 0.002518-0.52344 0.017578-2.5151 0.238-4.5004 0.96812-6.1543 2.2617-2.8599 2.2367-4.3992 5.564-4.2793 8.9922 0.12121-3.1477 1.6371-6.1445 4.2793-8.2109 1.6539-1.2936 3.6392-2.0237 6.1543-2.2617 1.2734-0.12048 3.6193 0.36538 5.0859 1.0527 2.5918 1.2145 4.7336 3.6656 5.6562 6.4688 0.3829 1.1637 0.47751 1.7303 0.49219 2.9688 0.001025-0.14075 0.007512-0.18153 0.007813-0.36328 0.00253-1.5827-0.07309-2.0893-0.5-3.3867-0.9226-2.8032-3.0644-5.2542-5.6562-6.4688-1.2833-0.60143-3.2404-1.0487-4.5625-1.0703zm-4.7734 9.6426c-0.002612 0.039374-0.01155 0.064223-0.013671 0.10547-0.053551 1.0412 0.19651 2.0383 0.70898 2.8184 0.29791 0.4535 1.1017 1.2483 1.584 1.5664 1.1346 0.7484 2.5143 0.98276 3.8184 0.65039 1.6596-0.42295 2.9038-1.6383 3.418-3.3398 0.1305-0.43182 0.14844-0.58811 0.14844-1.2754 0-0.18327-0.009285-0.2676-0.013672-0.39062-0.012032 0.33916-0.038974 0.56779-0.13477 0.88477-0.5142 1.7015-1.7584 2.9169-3.418 3.3398-1.3041 0.33237-2.6838 0.098009-3.8184-0.65039-0.4823-0.3181-1.2861-1.1129-1.584-1.5664-0.40025-0.60927-0.6344-1.351-0.69531-2.1426zm18.115 1.5449c-0.010611 0.50819-0.035576 0.99795-0.091797 1.3613-0.5506 3.5583-1.9577 6.1608-4.5996 8.5156-0.75004 0.66852-1.2921 1.0398-1.3848 0.94726-0.05022-0.0501-0.073788-0.44757-0.085938-1.4512l-0.007812-0.61133-0.009766 0.011719 0.017578 1.3809c0.01215 1.0036 0.035718 1.4011 0.085938 1.4512 0.09269 0.09257 0.63472-0.27874 1.3848-0.94726 2.6419-2.3548 4.049-4.9573 4.5996-8.5156 0.085315-0.55143 0.11065-1.3651 0.091797-2.1426zm-26.914 0.1582c-0.001153 0.25606-0.007503 0.49528 0 0.78125 0.01798 0.68592 0.072437 1.4886 0.12305 1.8125 0.39674 2.5398 2.058 5.6278 4.0312 7.4961 0.27003 0.2556 0.58091 0.52513 0.69141 0.59961 0.11048 0.07446 0.4122 0.28764 0.67188 0.47266s0.50055 0.32727 0.5332 0.31641c0.03266-0.01087 0.074311-0.093813 0.09375-0.18359 0.019421-0.08978 0.039329-0.72922 0.042969-1.4219l0.00586-1.2598-0.003907-0.003906-0.001953 0.48242c-0.00364 0.69266-0.023548 1.3321-0.042969 1.4219-0.019439 0.08978-0.06109 0.17272-0.09375 0.18359-0.03265 0.01086-0.27352-0.13139-0.5332-0.31641s-0.5614-0.3982-0.67188-0.47266c-0.1105-0.07448-0.42138-0.34401-0.69141-0.59961-1.9733-1.8683-3.6345-4.9563-4.0312-7.4961-0.05061-0.3239-0.10507-1.1266-0.12305-1.8125zm33.475 0.30078c-0.045146 2.0699-0.14968 2.8443-0.61524 4.543-1.1661 4.2554-3.9791 8.3191-7.5234 10.869-0.7699 0.5539-2.4394 1.5265-3.6719 2.1387-1.2318 0.61179-1.6569 0.76884-1.7715 0.6543-0.015989-0.015989-0.01645-0.099988-0.02539-0.14844-0.042243 0.45794-0.043505 0.8608 0.02539 0.92969 0.11454 0.11454 0.53964-0.042507 1.7715-0.6543 1.2325-0.61214 2.902-1.5848 3.6719-2.1387 3.5443-2.55 6.3573-6.6118 7.5234-10.867 0.48144-1.7566 0.57836-2.4979 0.62109-4.7344 0.004346-0.22738-0.007081-0.37911-0.005859-0.5918zm-40.105 0.003906c0.012988 1.1108 0.057542 2.2644 0.1543 3.002 0.21346 1.6285 0.84984 3.7137 1.6992 5.5605 1.5711 3.4164 4.1087 6.2889 7.3906 8.373 1.0362 0.65794 3.1428 1.7383 4.0234 2.0625 0.26621 0.09802 0.31224 0.097484 0.39648-0.003906 0.06817-0.082138 0.059253-0.47414 0.017578-0.91016-0.008186 0.035463-0.004577 0.11324-0.017578 0.12891-0.08424 0.10139-0.13027 0.10193-0.39648 0.003906-0.8806-0.3242-2.9872-1.4046-4.0234-2.0625-3.2819-2.0841-5.8195-4.9566-7.3906-8.373-0.84938-1.8468-1.4858-3.932-1.6992-5.5605-0.072612-0.55349-0.12625-1.3758-0.1543-2.2207zm15.088 9.1621c-0.01249 0.46443-0.009902 0.97254 0.025391 1.582 0.17632 3.0448 0.90507 8.5498 1.3789 10.42 0.3453 1.3622 0.83832 2.1709 1.6328 2.6758 0.31193 0.19824 1.0126 0.42649 1.5254 0.49805 0.61799 0.08623 1.6038 0.023824 2.1055-0.13477 1.1148-0.35222 1.7442-1.1108 2.1348-2.5762 0.345-1.2941 0.964-5.9092 1.2754-9.5117 0.076328-0.88307 0.099938-1.9697 0.082031-2.8281-0.006944 0.68413-0.028077 1.4227-0.082031 2.0469-0.31139 3.6025-0.93039 8.2176-1.2754 9.5117-0.3906 1.4654-1.02 2.224-2.1348 2.5762-0.5017 0.15859-1.4875 0.221-2.1055 0.13477-0.5128-0.07156-1.2135-0.29981-1.5254-0.49805-0.79449-0.5049-1.2875-1.3136-1.6328-2.6758-0.47384-1.8701-1.2026-7.3751-1.3789-10.42-0.016998-0.29355-0.019395-0.54179-0.025391-0.80078z" opacity=".15" style="paint-order:fill markers stroke"/>
</svg>
