<svg width="64" height="64" version="1.1" viewBox="0 0 16.933 16.933" xmlns="http://www.w3.org/2000/svg">
 <defs>
  <linearGradient id="linearGradient991" x1="4" x2="8" y1="31.97" y2="31.97" gradientUnits="userSpaceOnUse">
   <stop stop-color="#1e170b" stop-opacity=".45" offset="0"/>
   <stop stop-opacity=".15" offset=".48612"/>
   <stop stop-opacity=".35" offset="1"/>
  </linearGradient>
  <linearGradient id="linearGradient889" x1="8.1105" x2="8.1105" y1="14.648" y2="2.624" gradientUnits="userSpaceOnUse">
   <stop stop-color="#ce1921" offset="0"/>
   <stop stop-color="#f44" offset="1"/>
  </linearGradient>
 </defs>
 <g shape-rendering="auto">
  <path d="m4.3693 0.52916c-2.1142 0-3.8402 1.7835-3.8402 3.9682v8.4675c0 2.1846 1.726 3.9682 3.8402 3.9682h8.1944c2.1142 0 3.8402-1.7835 3.8402-3.9682v-8.4675c0-2.1846-1.726-3.9682-3.8402-3.9682zm0.25704 0.52089h7.6808c1.8443 0 3.3291 1.5342 3.3291 3.44v7.9368c0 1.9058-1.4847 3.44-3.3291 3.44h-7.6808c-1.8443 0-3.3291-1.5342-3.3291-3.44v-7.9368c0-1.9058 1.4847-3.44 3.3291-3.44z" color="#000000" color-rendering="auto" dominant-baseline="auto" image-rendering="auto" opacity=".01" solid-color="#000000" stop-color="#000000" style="font-feature-settings:normal;font-variant-alternates:normal;font-variant-caps:normal;font-variant-east-asian:normal;font-variant-ligatures:normal;font-variant-numeric:normal;font-variant-position:normal;font-variation-settings:normal;inline-size:0;isolation:auto;mix-blend-mode:normal;shape-margin:0;shape-padding:0;text-decoration-color:#000000;text-decoration-line:none;text-decoration-style:solid;text-indent:0;text-orientation:mixed;text-transform:none;white-space:normal"/>
  <path d="m4.3587 0.79373c-1.9668 0-3.5639 1.6528-3.5639 3.6876v8.4996c0 2.0348 1.5971 3.6876 3.5639 3.6876h8.2162c1.9668 0 3.5644-1.6528 3.5644-3.6876v-8.4996c0-2.0348-1.5976-3.6876-3.5644-3.6876zm0.27222 0.25631h7.6718c1.8422 0 3.3251 1.5342 3.3251 3.44v7.9368c0 1.9058-1.483 3.44-3.3251 3.44h-7.6718c-1.8422 0-3.3251-1.5342-3.3251-3.44v-7.9368c0-1.9058 1.483-3.44 3.3251-3.44z" color="#000000" color-rendering="auto" dominant-baseline="auto" image-rendering="auto" opacity=".01" solid-color="#000000" stop-color="#000000" style="font-feature-settings:normal;font-variant-alternates:normal;font-variant-caps:normal;font-variant-east-asian:normal;font-variant-ligatures:normal;font-variant-numeric:normal;font-variant-position:normal;font-variation-settings:normal;inline-size:0;isolation:auto;mix-blend-mode:normal;shape-margin:0;shape-padding:0;text-decoration-color:#000000;text-decoration-line:none;text-decoration-style:solid;text-indent:0;text-orientation:mixed;text-transform:none;white-space:normal"/>
  <path d="m4.3097 1.0583c-1.8657 0-3.3751 1.5383-3.3751 3.439v8.4675c0 1.9007 1.57 3.439 3.4357 3.439h8.1996c1.8657 0 3.4274-1.5383 3.4274-3.439v-8.4675c0-1.9007-1.51-3.439-3.3756-3.439h-0.09688c1.794 0.086515 3.2138 1.5819 3.2138 3.4318v7.9368c0 1.9058-1.5059 3.44-3.3766 3.44h-7.7905c-1.8707 0-3.3766-1.5342-3.3766-3.44v-7.9368c0-1.8498 1.4199-3.3451 3.2138-3.4318z" color="#000000" color-rendering="auto" dominant-baseline="auto" image-rendering="auto" opacity=".03" solid-color="#000000" stop-color="#000000" style="font-feature-settings:normal;font-variant-alternates:normal;font-variant-caps:normal;font-variant-east-asian:normal;font-variant-ligatures:normal;font-variant-numeric:normal;font-variant-position:normal;font-variation-settings:normal;inline-size:0;isolation:auto;mix-blend-mode:normal;shape-margin:0;shape-padding:0;text-decoration-color:#000000;text-decoration-line:none;text-decoration-style:solid;text-indent:0;text-orientation:mixed;text-transform:none;white-space:normal"/>
  <path transform="scale(.26458)" d="m4 46.969v2.0312c0 6.6479 5.8957 12 12.544 12h30.961c6.6479 0 12.495-5.3521 12.495-12v-1.9922c-0.02117 7.1849-5.81 12.963-13 12.963h-29.998c-7.2032 0-13.002-5.7987-13.002-13.002z" color="#000000" color-rendering="auto" dominant-baseline="auto" image-rendering="auto" opacity=".03" solid-color="#000000" stop-color="#000000" style="font-feature-settings:normal;font-variant-alternates:normal;font-variant-caps:normal;font-variant-east-asian:normal;font-variant-ligatures:normal;font-variant-numeric:normal;font-variant-position:normal;font-variation-settings:normal;inline-size:0;isolation:auto;mix-blend-mode:normal;shape-margin:0;shape-padding:0;text-decoration-color:#000000;text-decoration-line:none;text-decoration-style:solid;text-indent:0;text-orientation:mixed;text-transform:none;white-space:normal"/>
  <path d="m1.0583 11.906v0.59234c0 1.9386 1.5729 3.4993 3.3318 3.4993h8.1603c1.7589 0 3.3243-1.5608 3.3243-3.4993v-0.58095c-0.0056 2.0952-1.5372 3.7801-3.4395 3.7801h-7.9368c-1.9058 0-3.44-1.691-3.44-3.7915z" color="#000000" color-rendering="auto" dominant-baseline="auto" image-rendering="auto" opacity=".05" solid-color="#000000" stop-color="#000000" style="font-feature-settings:normal;font-variant-alternates:normal;font-variant-caps:normal;font-variant-east-asian:normal;font-variant-ligatures:normal;font-variant-numeric:normal;font-variant-position:normal;font-variation-settings:normal;inline-size:0;isolation:auto;mix-blend-mode:normal;shape-margin:0;shape-padding:0;text-decoration-color:#000000;text-decoration-line:none;text-decoration-style:solid;text-indent:0;text-orientation:mixed;text-transform:none;white-space:normal"/>
 </g>
 <rect x="1.0583" y="1.05" width="14.817" height="14.817" rx="3.4401" ry="3.4401" fill="url(#linearGradient889)"/>
 <path transform="scale(.26458)" d="m8 7.5859c-2.4633 2.3633-4 5.6857-4 9.3848v29.998c0 3.699 1.5367 7.0215 4 9.3848v-48.768z" fill="url(#linearGradient991)" opacity=".5"/>
 <path transform="scale(.26458)" d="m17.002 3.9688c-7.2032 0-13.002 5.7987-13.002 13.002v1.0312c0-7.2032 5.7987-13.002 13.002-13.002h29.998c7.2032 0 13.002 5.7987 13.002 13.002v-1.0312c0-7.2032-5.7987-13.002-13.002-13.002h-29.998z" fill="#fff" opacity=".25" stroke-width="3.7796"/>
 <path d="m4.4983 15.875c-1.9058 0-3.44-1.5342-3.44-3.44v-0.27285c0 1.9058 1.5342 3.44 3.44 3.44h7.9368c1.9058 0 3.44-1.5342 3.44-3.44v0.27285c0 1.9058-1.5342 3.44-3.44 3.44z" opacity=".25"/>
 <path d="m4.1864 1.0766c-0.021 2.188e-4 -0.04202 2e-3 -0.06304 0.00258-0.50058 0.053762-0.96622 0.2166-1.3782 0.46043-0.07639 0.065772-0.16042 0.11572-0.24546 0.15864-0.23256 0.16592-0.44418 0.35914-0.62838 0.5767 0.09692 0.032604 0.22798 0.03711 0.39274 0.00723 0.44082-0.079935 0.57332 0.018047 0.55138 0.40928-0.01587 0.28313-0.20753 0.62801-0.42582 0.76583-0.54683 0.3453-0.79215 0.31961-0.69659-0.072347 0.04434-0.18189 0.03033-0.24078-0.03101-0.13074-0.06134 0.11004-0.19061 0.15167-0.28731 0.091984-0.09671-0.059689-0.20602 0.67616-0.24288 1.6355-0.04508 1.1733 0.04154 1.8133 0.26458 1.9549 0.48103 0.30543 0.51741 0.27442 0.33848-0.2894-0.47161-1.4859-0.34861-1.9769 0.32607-1.3022 0.23198 0.23198 0.40507 0.22397 0.71416-0.032557 0.44407-0.36856 0.57361-1.2008 0.14572-0.93638-0.14436 0.089221-0.4718 0.03965-0.7276-0.11007-0.37372-0.21873-0.29612-0.25443 0.39481-0.18138 0.53482 0.056541 0.85988-0.026855 0.85988-0.22065 0-0.46188 0.72241-1.3658 0.92759-1.1606 0.09747 0.097469-0.08738 0.53506-0.41081 0.97254-0.33869 0.45812-0.51818 0.97776-0.42322 1.2252 0.11224 0.29247 0.06026 0.37126-0.16278 0.24649-0.18023-0.10081-0.13062 0.026159 0.11007 0.28215 0.62377 0.66341 1.1054 0.25467 0.93534-0.79321-0.08513-0.52461 0.0053-1.0717 0.23047-1.3932 0.31948-0.45611 0.31731-0.57369-0.01757-0.8516-0.21375-0.17739-0.56895-0.25345-0.78908-0.16898-0.45987 0.17647-0.50749-0.052501-0.1297-0.62372 0.22304-0.33723 0.33628-0.30152 0.75344 0.23667 0.52321 0.67502 1.093 0.56951 1.093-0.20257 0-0.36636-0.67642-0.56387-1.3782-0.55654zm8.6743 0.010852c-0.26343 0.038147-0.31707 0.17649-0.22944 0.51159 0.12706 0.48587-0.20974 0.67415-1.0196 0.56998-0.09353-0.012028-0.23117 0.21233-0.30591 0.49815-0.07475 0.28583-0.0078 0.51934 0.14831 0.51934 0.15614 0 0.20718 0.076519 0.11369 0.17001-0.09349 0.093495-0.35681 0.014605-0.58549-0.17518-0.33141-0.27503-0.34644-0.3892-0.07286-0.56276 0.18879-0.11975 0.22406-0.21756 0.07855-0.21756-0.3535 0-0.97654 0.40505-0.94826 0.6165 0.06583 0.49188-0.0031 0.69815-0.23357 0.69815-0.14095 0-0.18314-0.20836-0.09353-0.46302 0.13333-0.3789 0.09807-0.40258-0.19482-0.13074-0.29649 0.27519-0.20136 0.46622 0.55604 1.1136 0.50283 0.42981 0.80252 0.78628 0.66558 0.79218-0.29657 0.012808 0.67645 0.78414 1.0046 0.79633 0.1247 0.00463 0.15302-0.18358 0.06304-0.41806-0.11105-0.2894-0.04806-0.38227 0.19533-0.28887 0.25812 0.099048 0.32438-0.040941 0.23668-0.49971-0.07503-0.39248 0.0022-0.63716 0.20154-0.63716 0.17808 0 0.25664 0.17499 0.17466 0.38862-0.08197 0.21361-0.01643 0.47008 0.14521 0.56998 0.17129 0.10586 0.21971 0.061949 0.11627-0.10542-0.09762-0.15794-0.05466-0.36343 0.0956-0.45629 0.15031-0.092867 0.21542-0.26228 0.14469-0.37671-0.07073-0.11444 0.1541-0.15392 0.49971-0.087849 0.42132 0.080541 0.6151 0.00254 0.58755-0.23667-0.04712-0.40909 0.11858-0.49318 0.95085-0.48008 0.58927 0.00928 0.58858 0.013755-0.06615 0.40825l-0.66145 0.39843 0.66145-0.14469c0.65378-0.14305 0.65454-0.14111 0.06615 0.16175-0.32742 0.16852-0.5953 0.46645-0.5953 0.66248 0 0.19604-0.1786 0.35657-0.39687 0.35657s-0.39687 0.12734-0.39687 0.28268c0 0.15578-0.22229 0.21144-0.49609 0.12454-0.35173-0.11164-0.53681-0.00383-0.63457 0.36999-0.07739 0.29596-0.01455 0.50281 0.14262 0.47077 0.15409-0.031403 0.36401 0.2403 0.46664 0.60409 0.18215 0.64565 0.19688 0.63761 0.62682-0.3421 0.42986-0.97948 1.0636-1.4877 1.4159-1.1353 0.09651 0.096505-0.08718 0.24418-0.40825 0.32813-0.70344 0.18396-0.74527 0.49082-0.12092 0.88986 0.40978 0.26191 0.39573 0.28172-0.12299 0.1726-0.41449-0.087208-0.63362 0.026818-0.74879 0.38965-0.1147 0.36139-0.31305 0.46545-0.67076 0.35192-0.57144-0.18137-0.66947 0.13616-0.19017 0.61547 0.19372 0.19372 0.41237 0.22219 0.5612 0.073379 0.13414-0.13414 0.42775-0.17345 0.65214-0.087333 0.2578 0.098927 0.34104 0.048664 0.22634-0.13694-0.16268-0.26323 0.76122-1.3839 1.141-1.3839 0.08411 0 0.15123-0.82732 0.14883-1.8386-0.0016-0.66571-0.05655-1.208-0.14469-1.6149-0.11778-0.28318-0.27363-0.54533-0.45889-0.78392-0.10473 0.00193-0.2172 0.08683-0.33382 0.2713-0.20042 0.31699-0.25043 0.32223-0.25373 0.026871-0.0018-0.16304 0.13447-0.40901 0.31988-0.60718-0.05095-0.05159-0.10556-0.099509-0.15968-0.14779-0.38819 0.17285-0.45487 0.12731-0.40618-0.23667 0.0036-0.02695-0.0012-0.054974-0.01033-0.082681-0.42608-0.27641-0.91722-0.46-1.4469-0.52503zm-3.8608 0.042375c-3.1205 0.021885-3.1707 0.031519-3.1707 0.62682 0 0.33271-0.13733 0.68965-0.30488 0.79321-0.21109 0.13046-0.15486 0.29765 0.18293 0.54466 0.4532 0.33139 0.43759 0.35657-0.22427 0.35657-0.3916 0-0.71209 0.11906-0.71209 0.26458 0 0.14552 0.29765 0.26458 0.66145 0.26458 0.3638 0 0.66145-0.11906 0.66145-0.26458 0-0.14552 0.20836-0.27818 0.46302-0.29506 0.44095-0.029228 0.44095-0.036692 0-0.15193-0.31056-0.081157-0.46302-0.38121-0.46302-0.91105 0-0.48135 0.10767-0.72307 0.27596-0.61906 0.15189 0.093873 0.46878 0.011489 0.70434-0.18293 0.36311-0.29969 0.40719-0.29305 0.28887 0.043407-0.21862 0.62168 0.27815 1.3248 0.92293 1.3064l0.58599-0.017052-0.5953-0.23926c-0.34356-0.1381-0.5953-0.46638-0.5953-0.77667 0-0.58705 0.38615-0.7181 0.68627-0.23254 0.10559 0.17086 0.07385 0.23453-0.07235 0.14417-0.14375-0.088841-0.26148-0.00432-0.26148 0.18758 0 0.20731 0.19572 0.29763 0.48214 0.22272 0.26514-0.069336 0.43084-0.20928 0.36792-0.31109-0.1573-0.25453 1.2324-0.20162 1.6412 0.062528 0.22115 0.14289 0.33215 0.055474 0.33485-0.26458 0.0034-0.40581 0.04299-0.41864 0.26045-0.082165 0.22798 0.35276 0.25944 0.35276 0.27956 0 0.01753-0.30712 0.06335-0.29397 0.20257 0.056842 0.12076 0.30429 0.29945 0.37912 0.54414 0.22789 0.8752-0.54091-0.10316-0.7753-3.1467-0.75395zm-4.2772 0.20464c0.15474-1e-7 0.35986 0.12695 0.45579 0.28215 0.28474 0.46074-0.03968 0.55866-0.40256 0.12144-0.20868-0.25145-0.22866-0.40359-0.05323-0.40359zm8.8351 0.019637c0.03427 0.00101 0.06283 0.011157 0.0832 0.031522 0.08146 0.081459-0.06566 0.2293-0.3266 0.32866-0.37708 0.14358-0.40714 0.1135-0.1478-0.14779 0.1346-0.13561 0.28837-0.21541 0.39118-0.21239zm-10.507 0.24494c0.07275 0 0.13229 0.059533 0.13229 0.13229s-0.05953 0.13229-0.13229 0.13229-0.13229-0.059533-0.13229-0.13229 0.05953-0.13229 0.13229-0.13229zm10.583 0.26458c0.07276 0 0.13229 0.059533 0.13229 0.13229s-0.05953 0.13229-0.13229 0.13229-0.13229-0.059533-0.13229-0.13229c0-0.072757 0.05953-0.13229 0.13229-0.13229zm-3.5665 0.063044c-0.07378 0.00582-0.17817 0.022663-0.31522 0.048058-0.33861 0.06274-0.65266 0.12303-0.69762 0.13384-0.04497 0.010813-0.0078 0.1387 0.08217 0.28421 0.22092 0.35745 0.36443 0.33424 0.8325-0.13384 0.26601-0.26601 0.31953-0.34975 0.09818-0.33229zm4.1356 0.26614c0.03842-0.01754 0.06344 0.061134 0.07183 0.23409 0.01149 0.23683-0.15792 0.57848-0.37621 0.75964-0.21827 0.18115-0.39687 0.25124-0.39687 0.15554s-0.23813-0.046719-0.52916 0.10904c-0.40073 0.21447-0.534 0.20067-0.54982-0.056842-0.01149-0.18701-0.14065-0.012599-0.2868 0.38756-0.14615 0.40018-0.40436 0.72394-0.57411 0.71934-0.50606-0.013796-1.2929-0.71815-1.0025-0.89761 0.14528-0.089788 0.382 0.04632 0.52554 0.30281 0.3189 0.56983 0.63097 0.31292 0.63097-0.51934 0-0.60623 1.1686-1.452 1.5022-1.0873 0.08336 0.091153 0.0026 0.21874-0.17931 0.28371-0.50196 0.17927-0.39512 0.4899 0.16846 0.4899 0.32726 0 0.44841-0.13193 0.35192-0.38343-0.08927-0.23263-0.03398-0.31427 0.14004-0.2067 0.15781 0.097535 0.34694 0.027773 0.42063-0.15503 0.03229-0.080099 0.06015-0.12487 0.0832-0.13539zm-7.5921 0.20154c-0.15513-0.00151-0.25218 0.081967-0.25218 0.26303 0 0.14552 0.1786 0.26458 0.39687 0.26458 0.21827 0 0.39687 0.11906 0.39687 0.26458 0 0.14552 0.18551 0.26458 0.41238 0.26458 0.22686 0 0.33377 0.12723 0.23771 0.28268-0.09606 0.15544-0.3411 0.21867-0.54466 0.14056-0.20356-0.07811-0.36999-0.026744-0.36999 0.1142 0 0.35443 0.62216 0.32197 0.9963-0.052194 0.23537-0.23537 0.34946-0.20391 0.47852 0.13229 0.0931 0.24261 0.32051 0.44079 0.5054 0.44079 0.18489 0 0.48445 0.1786 0.66558 0.39687 0.2077 0.25026 0.22496 0.39687 0.04754 0.39687-0.15474 0-0.36062-0.12846-0.45786-0.28577-0.09722-0.15731-0.45166-0.2171-0.78755-0.13281-0.36441 0.091457-0.67169 0.019825-0.76223-0.17725-0.0835-0.18164-0.0808-0.047463 0.0062 0.29818 0.10643 0.4228 0.0622 0.5693-0.13488 0.44751-0.1611-0.099569-0.29249-0.33766-0.29249-0.52916 0-0.54855-1.6161-0.76408-2.1001-0.28008-0.36589 0.36589-0.3203 0.38973 0.4501 0.23564 0.53355-0.10671 0.85626-0.065828 0.85626 0.10852 0 0.1539 0.23813 0.35515 0.52916 0.44751 0.69259 0.21982 0.67642 0.53797-0.02997 0.59118-0.30747 0.023161-0.49336-0.023926-0.41288-0.10438 0.08046-0.080459 0.0081-0.29413-0.16071-0.47489-0.33435-0.35792-1.2485-0.23571-1.2485 0.16691 0 0.13713 0.10123 0.18675 0.22531 0.11007 0.12408-0.076683 0.45151 0.031308 0.7276 0.24029 0.27609 0.20898 0.69577 0.38398 0.93222 0.38861 0.64748 0.012671 0.58197 1.3312-0.06614 1.3312-0.27291 0-0.49609 0.18545-0.49609 0.41237 0 0.22686-0.11907 0.33901-0.26458 0.24908-0.15065-0.093106-0.26458 0.13476-0.26458 0.52916 0 0.39441 0.11393 0.62227 0.26458 0.52916 0.14551-0.089933 0.26458-0.32805 0.26458-0.52916 0-0.50879 0.48849-0.75879 0.87126-0.44595 0.21634 0.17681 0.42915 0.1415 0.66042-0.10955 0.19697-0.21383 0.22493-0.37052 0.06615-0.37052-0.15125 0-0.27493-0.12146-0.27493-0.26974 0-0.15865 0.29948-0.20006 0.7276-0.10077 0.71156 0.16502 0.71593 0.15885 0.19844-0.28112-0.44211-0.37589-0.45301-0.426-0.06614-0.30437 0.25465 0.08007 0.46301 0.030363 0.46301-0.11059s-0.27799-0.25631-0.61753-0.25631c-0.7046 0-0.84097-0.6964-0.25166-1.2857 0.31138-0.31138 0.34337-0.25274 0.21497 0.39377-0.14212 0.71558-0.13286 0.72516 0.15968 0.16433 0.17078-0.32742 0.41155-0.5953 0.53485-0.5953 0.36083 0 0.25738 0.79144-0.10645 0.8144-0.26457 0.016711-0.26457 0.047751 0 0.15451 0.18189 0.073395 0.33991 0.3321 0.35139 0.57464 0.01512 0.31914 0.06053 0.34112 0.16433 0.080099 0.12109-0.30448 0.17916-0.30448 0.37205 0 0.1772 0.27969 0.22944 0.25333 0.23254-0.11782 0.0022-0.26324 0.12268-0.40515 0.2682-0.31522 0.30694 0.1897 0.35996 1.6221 0.06615 1.7864-0.25045 0.14006 0.33311-0.014213 0.85988-0.22737 0.21827-0.088328 0.39687-0.028794 0.39687 0.13229 0 0.16108-0.11488 0.293-0.25528 0.293s-0.37711 0.22867-0.52657 0.50797c-0.25943 0.48476-0.23632 0.48963 0.51934 0.11265 0.43539-0.2172 0.788-0.53517 0.7834-0.7064-0.01165-0.43111-0.65304-1.2371-0.98442-1.2371-0.15028 0-0.34575-0.1884-0.43407-0.41857-0.25604-0.66722-0.17155-0.80903 0.19482-0.3271 0.41692 0.54842 1.8081 0.74926 1.912 0.27596 0.04073-0.18553 0.01351-0.2153-0.06046-0.066145-0.24002 0.48397-0.59171 0.28646-0.48421-0.2718 0.08477-0.44016 0.0043-0.51082-0.42478-0.37465-0.29112 0.092399-0.70233 0.02446-0.91362-0.15089-0.27106-0.22496-0.38446-0.23176-0.38446-0.022219 0 0.16333-0.23813 0.29712-0.52916 0.29712-0.29104 0-0.52863-0.11906-0.52863-0.26458s0.08878-0.23481 0.19792-0.19843c0.08635 0.028781 0.17705-0.00399 0.22996-0.072347-0.01031 0.00259-0.02043 0.0062-0.03152 0.0062-0.07276 0-0.13229-0.059533-0.13229-0.13229 0-0.072757 0.05953-0.13229 0.13229-0.13229 0.04276 0 0.07913 0.022013 0.10335 0.053741 0.12458-0.53969-0.10971-0.93201-0.72141-1.1911-0.461-0.19528-0.70841-0.47093-0.64129-0.71468 0.08166-0.29659 0.04973-0.31234-0.12661-0.063044-0.17878 0.25274-0.38703 0.17262-0.85988-0.33073-0.39555-0.42105-0.81475-0.66047-1.0733-0.66301zm3.4226 2.9625c-0.01101 0.047696-0.02053 0.094651-0.03721 0.14469-0.0076 0.022788-0.02066 0.041902-0.03462 0.059943 0.05734-0.014467 0.10077-0.06442 0.10077-0.12609 0-0.029993-0.01195-0.056295-0.02894-0.078548zm-8.5695-1.6412c0.07276 0 0.13229 0.059533 0.13229 0.13229s-0.05953 0.13229-0.13229 0.13229-0.13229-0.059533-0.13229-0.13229c0-0.072757 0.05953-0.13229 0.13229-0.13229zm14.022 0.52916c0.07276 0 0.13229 0.059533 0.13229 0.13229 0 0.072757-0.05953 0.13229-0.13229 0.13229s-0.13229-0.059533-0.13229-0.13229c0-0.072757 0.05953-0.13229 0.13229-0.13229zm-1.4888 0.068727c-0.06034-0.00402-0.13048-0.00343-0.21032 0.00259-0.2994 0.022553-0.49506 0.22034-0.47542 0.48111h5.29e-4c0.027 0.35851 0.12388 0.38645 0.5085 0.14624 0.5431-0.33919 0.59909-0.60176 0.17673-0.62994zm-9.8953 0.065629c0.02894 0.012385 0.05635 0.088388 0.08527 0.22479 0.05725 0.27011-0.01135 0.60615-0.15244 0.74723-0.16566 0.16566-0.2023-0.00812-0.10387-0.49093 0.07056-0.3461 0.12281-0.50175 0.17105-0.48111zm10.855 0.13022c0.07276 0 0.13229 0.059533 0.13229 0.13229 0 0.072757-0.05953 0.13229-0.13229 0.13229s-0.13229-0.059533-0.13229-0.13229c0-0.07276 0.05953-0.13229 0.13229-0.13229zm-13.096 0.015502c0.06394 0 0.12771 0.024357 0.17622 0.072863 0.09701 0.097011 0.01781 0.17622-0.17622 0.17622-0.19402 0-0.27323-0.079205-0.17622-0.17622 0.0485-0.048505 0.11228-0.072863 0.17622-0.072863zm0.39687 0.51366c0.07276 0 0.13229 0.059533 0.13229 0.13229 0 0.072757-0.05953 0.13229-0.13229 0.13229-0.07275 0-0.13229-0.059533-0.13229-0.13229 0-0.072757 0.05953-0.13229 0.13229-0.13229zm11.052 0.83663c0.02936-6.614e-4 0.07992 0.020216 0.15089 0.064079 0.168 0.10383 0.3054 0.24123 0.3054 0.3054 0 0.22069-0.2337 0.11637-0.42219-0.18862-0.0731-0.11828-0.08303-0.17978-0.03411-0.18086zm1.8009 0.087333c0.14231-0.015568 0.24288 0.036914 0.24288 0.14262 0 0.14095-0.1786 0.25631-0.39687 0.25631-0.21827 0-0.39687-0.04668-0.39687-0.10387 0-0.057189 0.1786-0.17255 0.39687-0.25631 0.05457-0.020939 0.10656-0.033567 0.15399-0.038756zm-10.391 0.13436c-0.23853 0-0.47333 0.11933-0.52194 0.26511-0.05864 0.17592-0.39388 0.17757-0.99683 0.00465-1.1721-0.33615-1.315-0.16179-0.54207 0.66092 0.4582 0.48773 0.54562 0.74215 0.32916 0.95857-0.39475 0.39475-1.7397 0.056996-1.496-0.37568 0.12653-0.22462 0.06996-0.21907-0.18552 0.018603-0.31284 0.29104-0.30871 0.37867 0.02739 0.59118 0.25986 0.16429 0.28244 0.25106 0.06615 0.25373-0.20192 0.00249-0.29731 0.28903-0.24753 0.7436 0.10747 0.98167 0.37946 1.3813 0.92241 1.356 0.27545-0.01286 0.32041-0.07183 0.11679-0.15399-0.43939-0.17729-0.4056-0.89439 0.07183-1.5255 0.4368-0.57737 0.66457-0.46809 0.72603 0.34779 0.02316 0.30747 0.14893 0.55914 0.27905 0.55914 0.13011 0 0.16361-0.20836 0.07493-0.46302-0.15356-0.44095-0.1439-0.44095 0.19947 0 0.19829 0.25465 0.52588 0.4722 0.72812 0.48368 0.24789 0.014081 0.26461 0.062716 0.05168 0.14934-0.17367 0.070671-0.25359 0.29019-0.17777 0.48783 0.07583 0.19762-0.10506 0.60271-0.40203 0.89968-0.54879 0.54879-0.52726 0.61216 0.31109 0.91106 0.34927 0.12452 0.45349 0.04971 0.39687-0.28421-0.04297-0.25345 0.09827-0.46302 0.32038-0.47593 0.74392-0.0433 0.79017 0.17198 0.16278 0.75344-0.62269 0.57708-0.69193 0.70479-0.69193 1.2743 0 0.19352-0.15633 0.17047-0.44804-0.06614-0.30416-0.24673-0.38356-0.25676-0.24856-0.03204 0.31744 0.52839-0.07878 0.93968-0.53794 0.55861-0.31506-0.26148-0.4392-0.25206-0.62372 0.04651-0.14405 0.23308-0.11171 0.44825 0.0863 0.57411 0.2185 0.1389 0.22439 0.20287 0.0186 0.20567-0.16408 0.0022-0.46174-0.19769-0.66145-0.44389-0.30996-0.38211-0.30826-0.41449 0.0124-0.22117 0.28694 0.17297 0.33258 0.11543 0.1943-0.24494-0.15144-0.39467-0.06822-0.4505 0.50694-0.34054 0.57184 0.10931 0.6656 0.04775 0.55758-0.36536-0.14066-0.53789 0.33221-0.67288 0.78186-0.22324 0.18814 0.18814 0.27336 0.14689 0.27336-0.13229 0-0.22312-0.12115-0.40565-0.26924-0.40565-0.2659 0-2.5528-1.0467-2.5528-1.1684 0-0.03458 0.35718-0.01033 0.79374 0.05374 0.6021 0.08837 0.79374 0.01326 0.79374-0.31056 0-0.23479 0.13192-0.42685 0.293-0.42685 0.16286 0 0.21876 0.19259 0.12609 0.43407-0.14075 0.36682-0.1028 0.3811 0.24494 0.0925 0.4332-0.35956 0.42809-0.82655-0.0093-0.83716-0.14188-0.0034-0.46381-0.11609-0.71519-0.25063-0.35493-0.18996-0.42277-0.15516-0.30334 0.15606 0.20393 0.53141-0.58861 0.82232-1.095 0.40203-0.32787-0.27212-0.39324-0.22971-0.39324 0.2527 0 0.64804 0.46055 1.6386 0.89193 1.9187 0.1559 0.10123 0.19634 0.27133 0.08991 0.37774-0.10642 0.10642-0.35112-0.02197-0.54363-0.28524-0.33599-0.45952-0.35102-0.45894-0.37258 0.01912-0.0046 0.10261-2.3e-5 0.20924 0.01137 0.31728 0.15635 0.70045 0.52503 1.3173 1.0356 1.7833 0.59583 0.1759 1.0729-0.08645 0.83507-0.47127-0.1019-0.16487-0.05532-0.21145 0.10955-0.10955 0.15794 0.09761 0.36576 0.05099 0.46145-0.10387 0.0957-0.15486 0.41981-0.24643 0.72037-0.20309 0.40523 0.05844 0.70632-0.20717 1.1653-1.0283 0.67986-1.2164 0.58589-2.0569-0.20722-1.8495-0.27082 0.07082-0.5593 0.02127-0.64079-0.11059-0.08149-0.13185-0.02233-0.23978 0.13177-0.23978s0.28059-0.12598 0.28059-0.28008c0-0.15411-0.10231-0.21733-0.22738-0.14004-0.34591 0.21378-0.1226-1.1912 0.24339-1.5311 0.24637-0.22885 0.2849-0.15038 0.16588 0.34054-0.18674 0.77022 0.21446 1.6107 0.76892 1.6107 0.23738 0 0.32559 0.12556 0.21446 0.3054-0.11267 0.18231-0.07322 0.23409 0.09818 0.12816 0.15794-0.09761 0.35525-0.06808 0.4382 0.06614 0.08296 0.13423 0.39555 0.18011 0.69505 0.1018 0.39867-0.10425 0.58366 0.0068 0.6904 0.41497l0.14572 0.55758 0.47749-0.58858c0.26249-0.32377 0.57345-0.49273 0.6909-0.37568 0.11745 0.11705 0.03836 0.3235-0.1757 0.45889-0.34059 0.21542-0.33959 0.24714 0.0077 0.25425 0.32842 0.0067 0.33377 0.04763 0.03204 0.23874-0.20054 0.12702-0.28292 0.36324-0.18293 0.52503 0.11153 0.18046-0.03449 0.29456-0.37827 0.29456-0.33006 0-0.48889 0.11621-0.38602 0.28268 0.09606 0.15541 0.33263 0.22182 0.52554 0.14779 0.40854-0.15677 1.034 0.49175 0.81544 0.84541-0.08181 0.13237-0.4478 0.18305-0.81337 0.11317-0.36557-0.06988-0.59951-0.23233-0.51984-0.3612 0.36184-0.58546-0.23708-0.73828-0.93791-0.23926-0.41243 0.29366-0.88028 0.53432-1.0397 0.53432-0.43634 0-0.34835-0.45042 0.12351-0.63147 0.22746-0.0873 0.33218-0.29043 0.23254-0.45164-0.12045-0.19489-0.36671-0.10819-0.73432 0.25941-0.43285 0.43285-0.48288 0.62248-0.23202 0.87333 0.17624 0.17623 0.32038 0.47997 0.32038 0.67489 0 0.2898-0.06765 0.29241-0.36949 0.01344-0.203-0.18763-0.31464-0.43037-0.24856-0.5395 0.06607-0.10914-0.06932-0.19844-0.30075-0.19844-0.23142 0-0.50106 0.20836-0.59893 0.46302-0.15058 0.39182-0.20634 0.36128-0.36224-0.19844-0.1749-0.6279-0.18528-0.63126-0.21032-0.06615-0.0145 0.32742-0.15234 0.5953-0.30644 0.5953s-0.20147-0.12796-0.1049-0.28421c0.09657-0.15626-0.07006-0.13079-0.37052 0.05684-0.2149 0.13421-0.32747 0.24449-0.34829 0.33951 0.30776 0.16453 0.64399 0.28191 0.9994 0.34673 1.342 0.07283 3.6494-0.11295 3.7425-0.39274 0.0605-0.18189-0.08872-0.33072-0.33126-0.33072-0.24253 0-0.39348-0.14139-0.33588-0.31419 0.15463-0.46389 0.73275-0.58377 0.73275-0.15193 0 0.26418 0.29352 0.3556 1.0144 0.31625 0.70018-0.03822 1.0144 0.05479 1.0144 0.30024 0 0.19553-0.12916 0.27463-0.2868 0.17622-0.42391-0.26469-1.4774-0.27971-1.4774-0.02119 0 0.12304 0.26789 0.23694 0.5953 0.25321 0.32742 0.01627 1 0.07582 1.4945 0.13229 0.49442 0.05647 1.06-0.03099 1.2568-0.1943 0.26451-0.21952 0.35761-0.21956 0.35761 0 0 0.235 0.65518 0.31398 1.3146 0.24132 0.43777-0.06727 0.84705-0.21533 1.2133-0.43047-0.06895 0.0081-0.17936 0.02755-0.34467 0.05891-0.32726 0.06208-0.65698 0.01327-0.73225-0.10852-0.07527-0.12179-0.41264-0.17121-0.74982-0.11007-0.4079 0.07397-0.61287-0.01604-0.61287-0.26871 0-0.28625 0.1196-0.31609 0.48524-0.1204 0.52749 0.28231 0.56668 0.23398 0.324-0.39843-0.08833-0.23017-0.39952-0.41857-0.69193-0.41857-0.39817 0-0.49754 0.13042-0.39584 0.51934 0.07471 0.28569-0.03041 0.65716-0.23357 0.82578-0.30691 0.25471-0.34216 0.16984-0.20774-0.50228 0.14513-0.72564 0.10438-0.79408-0.39687-0.66301-0.32231 0.08429-0.55914 0.02106-0.55914-0.14934 0-0.27223 0.42878-0.39713 1.2568-0.36639 0.18189 0.0068 0.33072-0.26217 0.33072-0.5979 0-0.89899 0.2782-1.4679 0.62322-1.2749 0.2157 0.1207 0.21343 0.073-0.0072-0.16588-0.17052-0.18459-0.2537-0.48244-0.185-0.66145 0.06866-0.17901-0.17877-0.52423-0.54986-0.76738-0.58716-0.38473-0.67489-0.38994-0.67489-0.03927 0 0.22163 0.10789 0.40306 0.23978 0.40306 0.13185 0 0.19046 0.26789 0.1297 0.5953-0.06074 0.32742-0.03978 0.44584 0.04703 0.26303 0.0868-0.18278 0.26255-0.26799 0.39015-0.18913 0.38428 0.23749-0.32549 1.4474-0.84904 1.4474-0.50921 0-0.65891-0.3919-0.24701-0.64648 0.13185-0.08149 0.17851-0.38282 0.10335-0.67024-0.10387-0.39719-0.24442-0.46545-0.58496-0.28318-0.25463 0.13627-0.60777 0.14131-0.81803 0.01137-0.43164-0.26675-0.8702-0.07496-0.64854 0.28371 0.08372 0.13546 0.02646 0.24649-0.12764 0.24649-0.26256 0-0.42618-0.8643-0.27543-1.4552 0.14692-0.57592 0.2314-1.5577 0.0956-1.1105-0.12092 0.39811-0.21754 0.42227-0.58549 0.14521-0.37208-0.28019-0.38917-0.27424-0.11007 0.038756 0.36467 0.40893 0.44492 1.0588 0.13074 1.0588-0.10999 0-0.36353-0.36935-0.56326-0.82062-0.24879-0.56205-0.42743-0.71635-0.56739-0.4899-0.19988 0.32342-0.07175 0.55908 0.86764 1.5942 0.25467 0.28061 0.37372 0.50842 0.26458 0.50643-0.71619-0.01304-1.3665-0.3975-1.6226-0.95963-0.16387-0.35967-0.3996-0.59126-0.52347-0.51469-0.12388 0.076559-0.16895-0.15531-0.10025-0.51469 0.07251-0.3793 9.52e-4 -0.6532-0.17053-0.6532-0.16248 0-0.37292-0.029765-0.46817-0.066145-0.09527-0.03638-0.20561 0.15317-0.24494 0.42116-0.11064 0.75387-0.28646 0.79303-0.88314 0.19637-0.69241-0.69241-0.69905-0.91648-0.02222-0.73947 0.29088 0.076069 0.59546 0.03057 0.67695-0.10128 0.08149-0.13185 0.37951-0.23978 0.66198-0.23978 0.28244 0 0.51366-0.12598 0.51366-0.28008 0-0.1541-0.14883-0.19459-0.33072-0.089915-0.19215 0.11057-0.23868 0.089291-0.11059-0.050643 0.12126-0.13247 0.29985-0.25114 0.39687-0.26406 0.09701-0.012922 0.44285-0.13411 0.76842-0.26924 0.58266-0.24183 0.58369-0.2509 0.06615-0.57411-0.31279-0.19534-0.52554-0.22022-0.52554-0.061494 0 0.14675-0.12435 0.26664-0.27596 0.26664-0.1516 0-0.53495 0.24193-0.85213 0.53742-0.68108 0.63452-1.3408 0.58234-1.4754-0.11627-0.07225-0.37517 0.01381-0.45619 0.34882-0.32763 0.24486 0.09396 0.70024-0.00758 1.0118-0.22582 0.44783-0.31366 0.47561-0.39687 0.13281-0.39687zm0.71312 0c-0.07276 0-0.13229 0.059533-0.13229 0.13229 0 0.072757 0.05953 0.13229 0.13229 0.13229 0.07275 0 0.13229-0.059533 0.13229-0.13229 0-0.072757-0.05953-0.13229-0.13229-0.13229zm2.1166 0c0.07276 0 0.13229 0.059533 0.13229 0.13229 0 0.072757-0.05953 0.13229-0.13229 0.13229s-0.13229-0.059533-0.13229-0.13229c0-0.072757 0.05953-0.13229 0.13229-0.13229zm4.2328 0.26458c0.07276 0 0.13229 0.059533 0.13229 0.13229 0 0.072757-0.05953 0.13229-0.13229 0.13229s-0.13229-0.059533-0.13229-0.13229c0-0.072759 0.05953-0.13229 0.13229-0.13229zm3.9708 0.72037c-0.01871-0.00459-0.03861 0.018811-0.05891 0.073379-0.21595 0.58036-1.0527 1.3229-1.4909 1.3229-0.50019 0-0.73699 0.65206-0.36999 1.0191 0.20977 0.2098 0.20816 0.46765-0.0052 0.93585-0.23433 0.51429-0.21694 0.67579 0.08372 0.79115 0.21222 0.08144 0.35007 0.0042 0.31472-0.17622-0.03463-0.17666 0.08579-0.29114 0.26768-0.25476 0.18189 0.03638 0.33072-0.05292 0.33072-0.19844 0-0.14552-0.12598-0.26458-0.28008-0.26458-0.1541 0-0.20798-0.11688-0.11989-0.25941 0.23364-0.37803 1.1709 0.27506 1.0072 0.70174-0.07348 0.1915-0.22625 0.29098-0.34004 0.22066-0.11378-0.07032-0.35398 0.04894-0.53382 0.26561-0.17982 0.21667-0.21614 0.39428-0.08061 0.39428 0.13552 0 0.47717 0.18744 0.75964 0.4165 0.28246 0.22907 0.37605 0.34782 0.20774 0.26406-0.19943-0.09923-0.25766 0.03218-0.16743 0.37724 0.08279 0.31657 8e-3 0.52969-0.18552 0.52969-0.17802 0-0.26244-0.15992-0.18758-0.35501 0.07486-0.19509 0.0171-0.52252-0.12867-0.7276-0.20631-0.29022-0.23054-0.26495-0.108 0.11265 0.10397 0.32041 0.04543 0.44537-0.17312 0.36896-0.18199-0.06363-0.29596-0.3113-0.25321-0.55086 0.04521-0.25329-0.09708-0.43563-0.34004-0.43563-0.33104 0-0.3612 0.10606-0.14418 0.51159 0.36753 0.68672 0.35589 0.7281-0.25476 0.8878-0.64621 0.16899-0.97725-0.27326-0.52038-0.69505 0.25542-0.23581 0.28934-0.23022 0.14624 0.02325-0.10269 0.18189-0.0516 0.33072 0.11317 0.33072 0.37864 0 0.23086-0.84803-0.17105-0.98183-0.16453-0.05477-0.37636 0.20786-0.47077 0.58393-0.09439 0.37607-0.28715 0.61232-0.42838 0.52503-0.56326-0.34811-0.21034 0.59972 0.52194 1.4015h5.29e-4c0.70032 0.76673 1.5914 1.2128 1.219 0.61028-0.08225-0.13309 1.32e-4 -0.31204 0.18293-0.3979 0.1828-0.08585 0.01099-0.11386-0.3819-0.06201-0.77556 0.10237-1.1473-0.373-0.66714-0.85316 0.43706-0.43706 0.93495-0.36335 1.5746 0.23254 0.40293 0.37536 0.45759 0.5304 0.18758 0.53329-0.32461 0.0035-0.32324 0.03981 0.0093 0.25011 0.09077 0.0574 0.17709 0.08581 0.2558 0.09198 0.14034-0.16756 0.26437-0.3489 0.37102-0.54157-0.02467-0.08702-0.07043-0.17748-0.14314-0.26511-0.21667-0.26106-0.19466-0.3099 0.09043-0.2005 0.30914 0.11863 0.37838-0.2777 0.3819-2.1895 0.0041-2.2465-0.01865-2.3363-0.60462-2.3848-0.33485-0.027715-0.60925 0.063767-0.60925 0.20309 0 0.13932-0.17788 0.18472-0.39531 0.10128-0.57448-0.22045-0.21236-0.62528 0.55914-0.62528 0.45876 0 0.60031-0.10136 0.46249-0.33072-0.13501-0.22472-0.05509-0.21417 0.24908 0.032557 0.40637 0.32964 0.44579 0.26863 0.42685-0.66145-0.0086-0.42261-0.05342-0.68746-0.10955-0.70124zm-13.363 0.073379c-0.14551 0-0.26458 0.1786-0.26458 0.39687 0 0.21827 0.11907 0.39687 0.26458 0.39687 0.14551 0 0.26458-0.1786 0.26458-0.39687 0-0.21827-0.11907-0.39687-0.26458-0.39687zm1.4552 0c-0.07276 0-0.13229 0.059533-0.13229 0.13229 0 0.072757 0.05953 0.13229 0.13229 0.13229s0.13229-0.059533 0.13229-0.13229c0-0.07276-0.05953-0.13229-0.13229-0.13229zm5.644 0.26458c-0.26423 0-0.29054 0.37091-0.04392 0.61753 0.24524 0.24524 0.26458 0.22895 0.26458-0.22065 0-0.21827-0.09939-0.39687-0.22065-0.39687zm0.68108 0.047542c-0.06325-0.00951-0.108 0.071524-0.108 0.21704 0 0.19402 0.07972 0.27323 0.17673 0.17622 0.09701-0.097011 0.09701-0.25542 0-0.35242-0.02425-0.024251-0.04765-0.037655-0.06873-0.040825zm2.5109 0.61391-0.25683 0.63354c-0.14121 0.34853-0.2245 0.64621-0.185 0.66145 0.03951 0.015253 0.30996 0.16979 0.60099 0.34313 0.29104 0.17334 0.61846 0.32213 0.72759 0.33072 0.35229 0.02762 0.21077-0.52591-0.17208-0.67283-0.20393-0.078258-0.44807-0.40147-0.5426-0.71881zm-10.673 0.39687c0.06417 0 0.11679 0.11906 0.11679 0.26458s-0.12598 0.26458-0.28008 0.26458c-0.1541 0-0.20672-0.11906-0.11679-0.26458 0.08993-0.14552 0.21591-0.26458 0.28008-0.26458zm2.8948 0c0.07275 0 0.13229 0.059533 0.13229 0.13229 0 0.072757-0.05953 0.13229-0.13229 0.13229s-0.13229-0.059533-0.13229-0.13229c0-0.072757 0.05953-0.13229 0.13229-0.13229zm4.0716 0c-0.1294 0-0.23512 0.35028-0.23512 0.77824s-0.13578 0.86147-0.30128 0.96376c-0.18557 0.11468-0.0081 0.30974 0.46302 0.509 0.63301 0.2677 0.84335 0.2545 1.2263-0.07803 0.35057-0.30445 0.39047-0.48746 0.16588-0.75808-0.16282-0.19619-0.19207-0.36052-0.06511-0.36536 0.29797-0.011364-0.94212-1.0495-1.2537-1.0495zm1.4841 0.26458c-0.07276 0-0.13229 0.059533-0.13229 0.13229 0 0.072757 0.05953 0.13229 0.13229 0.13229 0.07275 0 0.13229-0.059533 0.13229-0.13229 0-0.072757-0.05953-0.13229-0.13229-0.13229zm-0.93378 0.32297c0.19891-0.00936 0.30292 0.24309 0.51469 1.1255 0.03405 0.14188-0.06568 0.30077-0.22221 0.35295-0.16553 0.05518-0.21582-0.08487-0.11989-0.33485 0.10811-0.28172 0.03962-0.40341-0.19844-0.35295-0.43293 0.091743-0.49469-0.62867-0.06615-0.77152 0.03286-0.010953 0.06357-0.017782 0.09198-0.019121zm5.5485 0.20619c0.13693 0 0.32244 0.11906 0.41237 0.26458 0.08993 0.14552-0.02222 0.26458-0.24908 0.26458-0.22686 0-0.41237-0.11906-0.41237-0.26458 0-0.14552 0.11215-0.26458 0.24908-0.26458zm-3.1543 0.40669c-0.15964 0.00317-0.29083 0.038137-0.36536 0.11265-0.18949 0.18949-0.13541 0.28464 0.17518 0.30747 0.24738 0.01818 0.56864 0.06284 0.71415 0.09922 0.14552 0.03638 0.39108 0.08103 0.54517 0.09922 0.15411 0.01819 0.20509 0.1539 0.11369 0.30178-0.0914 0.14789-0.26426 0.20813-0.38446 0.13384-0.12021-0.07429-0.28707 0.04301-0.37052 0.26045-0.10111 0.26349 0.01279 0.39531 0.34107 0.39531 0.52286 0 0.92209-0.66854 0.65629-1.0986-0.21336-0.34523-0.9463-0.62084-1.4252-0.61132zm-5.399 0.21342c-0.09487-0.015951-0.16174 0.04255-0.16174 0.15813 0 0.1541 0.11907 0.28008 0.26458 0.28008 0.14551 0 0.26458-0.05262 0.26458-0.11679 0-0.06417-0.11907-0.19015-0.26458-0.28008-0.03638-0.022484-0.07121-0.036025-0.10284-0.041341zm-0.848 0.22117c0.02108 0.0032 0.04448 0.01657 0.06873 0.04082 0.09701 0.09701 0.09701 0.25542 0 0.35242-0.09701 0.09701-0.17622 0.01781-0.17622-0.17622 0-0.14552 0.04424-0.22655 0.10748-0.21704zm-2.0918 0.21704c0.07275 0 0.13229 0.05953 0.13229 0.13229s-0.05953 0.13229-0.13229 0.13229-0.13229-0.05953-0.13229-0.13229 0.05953-0.13229 0.13229-0.13229zm10.847 0.52916c-0.07276 0-0.13229 0.05953-0.13229 0.13229 0 0.07275 0.05953 0.13229 0.13229 0.13229s0.13229-0.05953 0.13229-0.13229c0-0.07276-0.05953-0.13229-0.13229-0.13229zm-5.5557 0.26458c0.07276 0 0.13229 0.05953 0.13229 0.13229s-0.05953 0.13229-0.13229 0.13229-0.13229-0.05953-0.13229-0.13229 0.05953-0.13229 0.13229-0.13229zm6.3494 0.26458c0.07276 0 0.13229 0.05953 0.13229 0.13229 0 0.07275-0.05953 0.13229-0.13229 0.13229-0.07275 0-0.13229-0.05953-0.13229-0.13229s0.05953-0.13229 0.13229-0.13229zm-5.2326 0.12506c0.03653-0.0022 0.07226 0.0064 0.10542 0.02687 0.13264 0.08198 0.17312 0.25986 0.0894 0.39531-0.2488 0.40256-0.64661 0.27982-0.48214-0.14883 0.06258-0.16308 0.17772-0.26659 0.28731-0.27336zm-5.3501 0.13952c-0.07275 0-0.13229 0.05953-0.13229 0.13229s0.05953 0.13229 0.13229 0.13229 0.13229-0.05953 0.13229-0.13229-0.05953-0.13229-0.13229-0.13229zm0.93894 0.3979c0.12553-0.0074 0.15126 0.0848 0.07751 0.27699-0.08092 0.21086-0.25349 0.38343-0.38343 0.38343-0.38036 0-0.2712-0.45899 0.14728-0.61959 0.06406-0.02458 0.1168-0.03834 0.15864-0.04082zm2.0954 0.02325c-0.05538-0.0017-0.11268 0.0075-0.16846 0.02894-0.29503 0.11321-0.31469 0.20366-0.07648 0.35089 0.17698 0.10938 0.22975 0.34496 0.11782 0.52606-0.15295 0.24749-0.26204 0.22212-0.44389-0.10283-0.13261-0.23696-0.37245-0.43047-0.53329-0.43047-0.16084 0-0.08034 0.23403 0.1788 0.52038 0.36314 0.40126 0.5847 0.45981 0.96686 0.25528 0.55324-0.29609 0.5575-0.30702 0.34157-0.8697-0.06497-0.16931-0.21678-0.27334-0.38293-0.27852zm2.2272 0.46198c0.09488-0.01833 0.16175 0.03452 0.16175 0.14366 0 0.14551-0.11907 0.33845-0.26458 0.42838-0.14551 0.08993-0.26406 0.04423-0.26406-0.10128s0.11855-0.33795 0.26406-0.42788c0.03638-0.02248 0.07121-0.03678 0.10284-0.04289zm-1.2929 0.17518c-0.07276 0-0.13229 0.05953-0.13229 0.13229s0.05953 0.13229 0.13229 0.13229c0.07275 0 0.13229-0.05953 0.13229-0.13229s-0.05953-0.13229-0.13229-0.13229zm1.9999 0.26458c0.1541 0 0.2062 0.11907 0.11627 0.26458-0.08993 0.14551-0.21591 0.26458-0.28008 0.26458-0.06417 0-0.11679-0.11907-0.11679-0.26458 0-0.14551 0.1265-0.26458 0.28059-0.26458zm1.9844 0c0.06417 0 0.11627 0.11907 0.11627 0.26458 0 0.14551-0.12598 0.26458-0.28008 0.26458-0.1541 0-0.20672-0.11907-0.11679-0.26458 0.08993-0.14551 0.21643-0.26458 0.28059-0.26458zm-6.8947 0.26458c-0.07276 0-0.13229 0.05953-0.13229 0.13229 0 0.07275 0.05953 0.13229 0.13229 0.13229s0.13229-0.05953 0.13229-0.13229-0.05953-0.13229-0.13229-0.13229zm-0.81803 0.04754c0.02108 0.0032 0.04396 0.01605 0.06821 0.04031 0.09701 0.09701 0.09701 0.25593 0 0.35295-0.09701 0.09701-0.17622 0.01781-0.17622-0.17622 0-0.14552 0.04475-0.22655 0.108-0.21704zm-3.4152 0.21704c0.07276 0 0.13229 0.05953 0.13229 0.13229s-0.05953 0.13229-0.13229 0.13229-0.13229-0.05953-0.13229-0.13229 0.05953-0.13229 0.13229-0.13229zm12.054 0c-0.13693 0-0.32295 0.11906-0.41288 0.26458-0.08993 0.14551 0.02222 0.26458 0.24908 0.26458 0.22686 0 0.41238-0.11907 0.41238-0.26458 0-0.14552-0.11163-0.26458-0.24856-0.26458zm-4.35 0.26458c-0.07276 0-0.20566 0.11907-0.29559 0.26458-0.08993 0.14551-0.10428 0.26458-0.03152 0.26458 0.07276 0 0.20617-0.11907 0.29609-0.26458 0.08993-0.14551 0.10376-0.26458 0.03101-0.26458zm0.87798 0.83869c0.01993 0.0024 0.04198 0.0074 0.06615 0.0155 0.1729 0.05763 0.3615 0.24629 0.41909 0.41909 0.15873 0.47619-0.38803 0.37602-0.57258-0.1049-0.08652-0.22546-0.05215-0.34618 0.08733-0.32969zm4.5143 0.23512c-0.06394 0-0.12771 0.02384-0.17622 0.07235-0.09701 0.09701-0.01781 0.17673 0.17622 0.17673 0.02874 0 0.04936-5e-3 0.07286-0.0083 0.0458-0.03801 0.08855-0.07958 0.13229-0.11989-0.0065-0.01569-0.01129-0.03145-0.02842-0.04857-0.04851-0.04851-0.11279-0.07235-0.17673-0.07235zm-9.6566 0.24908c0.07275 0 0.13229 0.05953 0.13229 0.13229 0 0.07275-0.05953 0.13229-0.13229 0.13229s-0.13229-0.05953-0.13229-0.13229c0-0.07276 0.05953-0.13229 0.13229-0.13229z" opacity=".03" stroke-width=".26457"/>
 <g transform="matrix(.93203 0 0 .93203 .60552 1.4614)" fill="#050505" stroke="#000" stroke-linecap="round" stroke-linejoin="round">
  <path d="m8.1785 3.4418c-0.10085-0.016137-0.20043 0.050754-0.30645 0.23142-0.16963 0.28771-0.24777 1.0933-0.10799 1.8682 0.047221 0.26482 0.1481 0.64999 0.28472 1.0701-0.10813 0.39356-0.22925 0.81088-0.36117 1.2251-0.52112 1.6366-1.6404 3.3514-2.2307 4.2742-0.37319 0.58083-1.2704 1.2634-1.3464 1.1304-0.074639-0.133 0.17815-0.43114 0.49298-0.90883 0.31348-0.47499 1.1164-0.96774 1.1164-0.96774s-0.34289-0.01336-1.2209 0.76018c-0.87802 0.77759-0.61222 1.1617-0.40321 1.2798 0.20763 0.12077 0.7908 0.58181 2.7722-2.8583 0.72348-1.2567 1.1435-2.3995 1.3879-3.3472 0.25026 0.64833 0.57326 1.3034 0.93198 1.716 0.20914 0.24187 0.48393 0.47229 0.78894 0.68586-0.24017 0.04375-0.51609 0.096962-0.88991 0.1655-1.3689 0.24826-2.0502 0.78671-2.0653 0.79875 0.01102-0.0035 1.6028-0.50701 3.2939-0.74125 0.66514 0.40468 1.4292 0.71598 2.061 0.84223 0.98574 0.19943 1.2544-0.16193 1.2862-0.21038-0.03842 0.0318-0.16651 0.09141-0.57365 0.0568-0.32712-0.02698-1.2215-0.27989-2.1277-0.76579 1.8764-0.17339 2.5249 0.017265 2.6921 0.15077 0.16692 0.13435 0.16691 0.28261 0.16691 0.28261s0.21477-0.20762 0.07363-0.41797c-0.11942-0.21849-0.30288-0.40026-1.8079-0.35414-0.74622 0.022141-1.1481 0.047778-1.5323 0.098874-0.45592-0.28363-0.89507-0.62181-1.2412-1.0316-0.46404-0.54928-0.74773-1.1815-0.93271-1.8037 0.27719-1.3348 0.19096-2.1611 0.19005-2.1698 0 0-0.1408 0.63968-0.35765 1.4832-0.12441-0.6376-0.16717-1.2254-0.20266-1.6431-0.075999-0.95809 0.35268-0.69228 0.41374-0.57014 0.09771 0.078709 0.14517 0.34082 0.14517 0.34082s-0.033781-0.39133-0.20477-0.55962c-0.063611-0.062598-0.12463-0.10181-0.18513-0.1115zm-1.1571 7.1236c-3.81e-5 1.3e-5 -0.00419 0.0014-0.00419 0.0014l-0.0014 0.0028s0.00545-0.0041 0.00557-0.0042z" opacity=".01" stroke-width="1.5875"/>
  <path d="m8.1785 3.4418c-0.10085-0.016137-0.20043 0.050754-0.30645 0.23142-0.16963 0.28771-0.24777 1.0933-0.10799 1.8682 0.047221 0.26482 0.1481 0.64999 0.28472 1.0701-0.10813 0.39356-0.22925 0.81088-0.36117 1.2251-0.52112 1.6366-1.6404 3.3514-2.2307 4.2742-0.37319 0.58083-1.2704 1.2634-1.3464 1.1304-0.074639-0.133 0.17815-0.43114 0.49298-0.90883 0.31348-0.47499 1.1164-0.96774 1.1164-0.96774s-0.34289-0.01336-1.2209 0.76018c-0.87802 0.77759-0.61222 1.1617-0.40321 1.2798 0.20763 0.12077 0.7908 0.58181 2.7722-2.8583 0.72348-1.2567 1.1435-2.3995 1.3879-3.3472 0.25026 0.64833 0.57326 1.3034 0.93198 1.716 0.20914 0.24187 0.48393 0.47229 0.78894 0.68586-0.24017 0.04375-0.51609 0.096962-0.88991 0.1655-1.3689 0.24826-2.0502 0.78671-2.0653 0.79875 0.01102-0.0035 1.6028-0.50701 3.2939-0.74125 0.66514 0.40468 1.4292 0.71598 2.061 0.84223 0.98574 0.19943 1.2544-0.16193 1.2862-0.21038-0.03842 0.0318-0.16651 0.09141-0.57365 0.0568-0.32712-0.02698-1.2215-0.27989-2.1277-0.76579 1.8764-0.17339 2.5249 0.017265 2.6921 0.15077 0.16692 0.13435 0.16691 0.28261 0.16691 0.28261s0.21477-0.20762 0.07363-0.41797c-0.11942-0.21849-0.30288-0.40026-1.8079-0.35414-0.74622 0.022141-1.1481 0.047778-1.5323 0.098874-0.45592-0.28363-0.89507-0.62181-1.2412-1.0316-0.46404-0.54928-0.74773-1.1815-0.93271-1.8037 0.27719-1.3348 0.19096-2.1611 0.19005-2.1698 0 0-0.1408 0.63968-0.35765 1.4832-0.12441-0.6376-0.16717-1.2254-0.20266-1.6431-0.075999-0.95809 0.35268-0.69228 0.41374-0.57014 0.09771 0.078709 0.14517 0.34082 0.14517 0.34082s-0.033781-0.39133-0.20477-0.55962c-0.063611-0.062598-0.12463-0.10181-0.18513-0.1115zm-1.1571 7.1236c-3.81e-5 1.3e-5 -0.00419 0.0014-0.00419 0.0014l-0.0014 0.0028s0.00545-0.0041 0.00557-0.0042z" opacity=".01" stroke-width="1.3229"/>
  <path d="m8.1785 3.4418c-0.10085-0.016137-0.20043 0.050754-0.30645 0.23142-0.16963 0.28771-0.24777 1.0933-0.10799 1.8682 0.047221 0.26482 0.1481 0.64999 0.28472 1.0701-0.10813 0.39356-0.22925 0.81088-0.36117 1.2251-0.52112 1.6366-1.6404 3.3514-2.2307 4.2742-0.37319 0.58083-1.2704 1.2634-1.3464 1.1304-0.074639-0.133 0.17815-0.43114 0.49298-0.90883 0.31348-0.47499 1.1164-0.96774 1.1164-0.96774s-0.34289-0.01336-1.2209 0.76018c-0.87802 0.77759-0.61222 1.1617-0.40321 1.2798 0.20763 0.12077 0.7908 0.58181 2.7722-2.8583 0.72348-1.2567 1.1435-2.3995 1.3879-3.3472 0.25026 0.64833 0.57326 1.3034 0.93198 1.716 0.20914 0.24187 0.48393 0.47229 0.78894 0.68586-0.24017 0.04375-0.51609 0.096962-0.88991 0.1655-1.3689 0.24826-2.0502 0.78671-2.0653 0.79875 0.01102-0.0035 1.6028-0.50701 3.2939-0.74125 0.66514 0.40468 1.4292 0.71598 2.061 0.84223 0.98574 0.19943 1.2544-0.16193 1.2862-0.21038-0.03842 0.0318-0.16651 0.09141-0.57365 0.0568-0.32712-0.02698-1.2215-0.27989-2.1277-0.76579 1.8764-0.17339 2.5249 0.017265 2.6921 0.15077 0.16692 0.13435 0.16691 0.28261 0.16691 0.28261s0.21477-0.20762 0.07363-0.41797c-0.11942-0.21849-0.30288-0.40026-1.8079-0.35414-0.74622 0.022141-1.1481 0.047778-1.5323 0.098874-0.45592-0.28363-0.89507-0.62181-1.2412-1.0316-0.46404-0.54928-0.74773-1.1815-0.93271-1.8037 0.27719-1.3348 0.19096-2.1611 0.19005-2.1698 0 0-0.1408 0.63968-0.35765 1.4832-0.12441-0.6376-0.16717-1.2254-0.20266-1.6431-0.075999-0.95809 0.35268-0.69228 0.41374-0.57014 0.09771 0.078709 0.14517 0.34082 0.14517 0.34082s-0.033781-0.39133-0.20477-0.55962c-0.063611-0.062598-0.12463-0.10181-0.18513-0.1115zm-1.1571 7.1236c-3.81e-5 1.3e-5 -0.00419 0.0014-0.00419 0.0014l-0.0014 0.0028s0.00545-0.0041 0.00557-0.0042z" opacity=".01" stroke-width="1.0583"/>
  <path d="m8.1785 3.4418c-0.10085-0.016137-0.20043 0.050754-0.30645 0.23142-0.16963 0.28771-0.24777 1.0933-0.10799 1.8682 0.047221 0.26482 0.1481 0.64999 0.28472 1.0701-0.10813 0.39356-0.22925 0.81088-0.36117 1.2251-0.52112 1.6366-1.6404 3.3514-2.2307 4.2742-0.37319 0.58083-1.2704 1.2634-1.3464 1.1304-0.074639-0.133 0.17815-0.43114 0.49298-0.90883 0.31348-0.47499 1.1164-0.96774 1.1164-0.96774s-0.34289-0.01336-1.2209 0.76018c-0.87802 0.77759-0.61222 1.1617-0.40321 1.2798 0.20763 0.12077 0.7908 0.58181 2.7722-2.8583 0.72348-1.2567 1.1435-2.3995 1.3879-3.3472 0.25026 0.64833 0.57326 1.3034 0.93198 1.716 0.20914 0.24187 0.48393 0.47229 0.78894 0.68586-0.24017 0.04375-0.51609 0.096962-0.88991 0.1655-1.3689 0.24826-2.0502 0.78671-2.0653 0.79875 0.01102-0.0035 1.6028-0.50701 3.2939-0.74125 0.66514 0.40468 1.4292 0.71598 2.061 0.84223 0.98574 0.19943 1.2544-0.16193 1.2862-0.21038-0.03842 0.0318-0.16651 0.09141-0.57365 0.0568-0.32712-0.02698-1.2215-0.27989-2.1277-0.76579 1.8764-0.17339 2.5249 0.017265 2.6921 0.15077 0.16692 0.13435 0.16691 0.28261 0.16691 0.28261s0.21477-0.20762 0.07363-0.41797c-0.11942-0.21849-0.30288-0.40026-1.8079-0.35414-0.74622 0.022141-1.1481 0.047778-1.5323 0.098874-0.45592-0.28363-0.89507-0.62181-1.2412-1.0316-0.46404-0.54928-0.74773-1.1815-0.93271-1.8037 0.27719-1.3348 0.19096-2.1611 0.19005-2.1698 0 0-0.1408 0.63968-0.35765 1.4832-0.12441-0.6376-0.16717-1.2254-0.20266-1.6431-0.075999-0.95809 0.35268-0.69228 0.41374-0.57014 0.09771 0.078709 0.14517 0.34082 0.14517 0.34082s-0.033781-0.39133-0.20477-0.55962c-0.063611-0.062598-0.12463-0.10181-0.18513-0.1115zm-1.1571 7.1236c-3.81e-5 1.3e-5 -0.00419 0.0014-0.00419 0.0014l-0.0014 0.0028s0.00545-0.0041 0.00557-0.0042z" opacity=".01" stroke-width=".79373"/>
  <path d="m8.1785 3.4418c-0.10085-0.016137-0.20043 0.050754-0.30645 0.23142-0.16963 0.28771-0.24777 1.0933-0.10799 1.8682 0.047221 0.26482 0.1481 0.64999 0.28472 1.0701-0.10813 0.39356-0.22925 0.81088-0.36117 1.2251-0.52112 1.6366-1.6404 3.3514-2.2307 4.2742-0.37319 0.58083-1.2704 1.2634-1.3464 1.1304-0.074639-0.133 0.17815-0.43114 0.49298-0.90883 0.31348-0.47499 1.1164-0.96774 1.1164-0.96774s-0.34289-0.01336-1.2209 0.76018c-0.87802 0.77759-0.61222 1.1617-0.40321 1.2798 0.20763 0.12077 0.7908 0.58181 2.7722-2.8583 0.72348-1.2567 1.1435-2.3995 1.3879-3.3472 0.25026 0.64833 0.57326 1.3034 0.93198 1.716 0.20914 0.24187 0.48393 0.47229 0.78894 0.68586-0.24017 0.04375-0.51609 0.096962-0.88991 0.1655-1.3689 0.24826-2.0502 0.78671-2.0653 0.79875 0.01102-0.0035 1.6028-0.50701 3.2939-0.74125 0.66514 0.40468 1.4292 0.71598 2.061 0.84223 0.98574 0.19943 1.2544-0.16193 1.2862-0.21038-0.03842 0.0318-0.16651 0.09141-0.57365 0.0568-0.32712-0.02698-1.2215-0.27989-2.1277-0.76579 1.8764-0.17339 2.5249 0.017265 2.6921 0.15077 0.16692 0.13435 0.16691 0.28261 0.16691 0.28261s0.21477-0.20762 0.07363-0.41797c-0.11942-0.21849-0.30288-0.40026-1.8079-0.35414-0.74622 0.022141-1.1481 0.047778-1.5323 0.098874-0.45592-0.28363-0.89507-0.62181-1.2412-1.0316-0.46404-0.54928-0.74773-1.1815-0.93271-1.8037 0.27719-1.3348 0.19096-2.1611 0.19005-2.1698 0 0-0.1408 0.63968-0.35765 1.4832-0.12441-0.6376-0.16717-1.2254-0.20266-1.6431-0.075999-0.95809 0.35268-0.69228 0.41374-0.57014 0.09771 0.078709 0.14517 0.34082 0.14517 0.34082s-0.033781-0.39133-0.20477-0.55962c-0.063611-0.062598-0.12463-0.10181-0.18513-0.1115zm-1.1571 7.1236c-3.81e-5 1.3e-5 -0.00419 0.0014-0.00419 0.0014l-0.0014 0.0028s0.00545-0.0041 0.00557-0.0042z" opacity=".01" stroke-width=".52916"/>
  <g stroke-width=".26458">
   <path d="m8.1785 3.4418c-0.10085-0.016137-0.20043 0.050754-0.30645 0.23142-0.16963 0.28771-0.24777 1.0933-0.10799 1.8682 0.047221 0.26482 0.1481 0.64999 0.28472 1.0701-0.10813 0.39356-0.22925 0.81088-0.36117 1.2251-0.52112 1.6366-1.6404 3.3514-2.2307 4.2742-0.37319 0.58083-1.2704 1.2634-1.3464 1.1304-0.074639-0.133 0.17815-0.43114 0.49298-0.90883 0.31348-0.47499 1.1164-0.96774 1.1164-0.96774s-0.34289-0.01336-1.2209 0.76018c-0.87802 0.77759-0.61222 1.1617-0.40321 1.2798 0.20763 0.12077 0.7908 0.58181 2.7722-2.8583 0.72348-1.2567 1.1435-2.3995 1.3879-3.3472 0.25026 0.64833 0.57326 1.3034 0.93198 1.716 0.20914 0.24187 0.48393 0.47229 0.78894 0.68586-0.24017 0.04375-0.51609 0.096962-0.88991 0.1655-1.3689 0.24826-2.0502 0.78671-2.0653 0.79875 0.01102-0.0035 1.6028-0.50701 3.2939-0.74125 0.66514 0.40468 1.4292 0.71598 2.061 0.84223 0.98574 0.19943 1.2544-0.16193 1.2862-0.21038-0.03842 0.0318-0.16651 0.09141-0.57365 0.0568-0.32712-0.02698-1.2215-0.27989-2.1277-0.76579 1.8764-0.17339 2.5249 0.017265 2.6921 0.15077 0.16692 0.13435 0.16691 0.28261 0.16691 0.28261s0.21477-0.20762 0.07363-0.41797c-0.11942-0.21849-0.30288-0.40026-1.8079-0.35414-0.74622 0.022141-1.1481 0.047778-1.5323 0.098874-0.45592-0.28363-0.89507-0.62181-1.2412-1.0316-0.46404-0.54928-0.74773-1.1815-0.93271-1.8037 0.27719-1.3348 0.19096-2.1611 0.19005-2.1698 0 0-0.1408 0.63968-0.35765 1.4832-0.12441-0.6376-0.16717-1.2254-0.20266-1.6431-0.075999-0.95809 0.35268-0.69228 0.41374-0.57014 0.09771 0.078709 0.14517 0.34082 0.14517 0.34082s-0.033781-0.39133-0.20477-0.55962c-0.063611-0.062598-0.12463-0.10181-0.18513-0.1115zm-1.1571 7.1236c-3.81e-5 1.3e-5 -0.00419 0.0014-0.00419 0.0014l-0.0014 0.0028s0.00545-0.0041 0.00557-0.0042z" opacity=".01"/>
   <path d="m8.1785 3.3103c-0.10085-0.016137-0.20043 0.050754-0.30645 0.23142-0.16963 0.28771-0.24777 1.0933-0.10799 1.8682 0.047221 0.26482 0.1481 0.64999 0.28472 1.0701-0.10813 0.39356-0.22925 0.81088-0.36117 1.2251-0.52112 1.6366-1.6404 3.3514-2.2307 4.2742-0.37319 0.58083-1.2704 1.2634-1.3464 1.1304-0.074639-0.133 0.17815-0.43114 0.49298-0.90883 0.31348-0.47499 1.1164-0.96774 1.1164-0.96774s-0.34289-0.01336-1.2209 0.76018c-0.87802 0.77759-0.61222 1.1617-0.40321 1.2798 0.20763 0.12077 0.7908 0.58181 2.7722-2.8583 0.72348-1.2567 1.1435-2.3995 1.3879-3.3472 0.25026 0.64833 0.57326 1.3034 0.93198 1.716 0.20914 0.24187 0.48393 0.47229 0.78894 0.68586-0.24017 0.04375-0.51609 0.096962-0.88991 0.1655-1.3689 0.24826-2.0502 0.78671-2.0653 0.79875 0.01102-0.0035 1.6028-0.50701 3.2939-0.74125 0.66514 0.40468 1.4292 0.71598 2.061 0.84223 0.98574 0.19943 1.2544-0.16193 1.2862-0.21038-0.03842 0.0318-0.16651 0.09141-0.57365 0.0568-0.32712-0.02698-1.2215-0.27989-2.1277-0.76579 1.8764-0.17339 2.5249 0.017265 2.6921 0.15077 0.16692 0.13435 0.16691 0.28261 0.16691 0.28261s0.21477-0.20762 0.07363-0.41797c-0.11942-0.21849-0.30288-0.40026-1.8079-0.35414-0.74622 0.022141-1.1481 0.047778-1.5323 0.098874-0.45592-0.28363-0.89507-0.62181-1.2412-1.0316-0.46404-0.54928-0.74773-1.1815-0.93271-1.8037 0.27719-1.3348 0.19096-2.1611 0.19005-2.1698 0 0-0.1408 0.63968-0.35765 1.4832-0.12441-0.6376-0.16717-1.2254-0.20266-1.6431-0.075999-0.95809 0.35268-0.69228 0.41374-0.57014 0.09771 0.078709 0.14517 0.34082 0.14517 0.34082s-0.033781-0.39133-0.20477-0.55962c-0.063611-0.062598-0.12463-0.10181-0.18513-0.1115zm-1.1571 7.1236c-3.81e-5 1.3e-5 -0.00419 0.0014-0.00419 0.0014l-0.0014 0.0028s0.00545-0.0041 0.00557-0.0042z" opacity=".01"/>
   <path d="m8.1785 3.1661c-0.10085-0.016137-0.20043 0.050754-0.30645 0.23142-0.16963 0.28771-0.24777 1.0933-0.10799 1.8682 0.047221 0.26482 0.1481 0.64999 0.28472 1.0701-0.10813 0.39356-0.22925 0.81088-0.36117 1.2251-0.52112 1.6366-1.6404 3.3514-2.2307 4.2742-0.37319 0.58083-1.2704 1.2634-1.3464 1.1304-0.074639-0.133 0.17815-0.43114 0.49298-0.90883 0.31348-0.47499 1.1164-0.96774 1.1164-0.96774s-0.34289-0.01336-1.2209 0.76018c-0.87802 0.77759-0.61222 1.1617-0.40321 1.2798 0.20763 0.12077 0.7908 0.58181 2.7722-2.8583 0.72348-1.2567 1.1435-2.3995 1.3879-3.3472 0.25026 0.64833 0.57326 1.3034 0.93198 1.716 0.20914 0.24187 0.48393 0.47229 0.78894 0.68586-0.24017 0.04375-0.51609 0.096962-0.88991 0.1655-1.3689 0.24826-2.0502 0.78671-2.0653 0.79875 0.01102-0.0035 1.6028-0.50701 3.2939-0.74125 0.66514 0.40468 1.4292 0.71598 2.061 0.84223 0.98574 0.19943 1.2544-0.16193 1.2862-0.21038-0.03842 0.0318-0.16651 0.09141-0.57365 0.0568-0.32712-0.02698-1.2215-0.27989-2.1277-0.76579 1.8764-0.17339 2.5249 0.017265 2.6921 0.15077 0.16692 0.13435 0.16691 0.28261 0.16691 0.28261s0.21477-0.20762 0.07363-0.41797c-0.11942-0.21849-0.30288-0.40026-1.8079-0.35414-0.74622 0.022141-1.1481 0.047778-1.5323 0.098874-0.45592-0.28363-0.89507-0.62181-1.2412-1.0316-0.46404-0.54928-0.74773-1.1815-0.93271-1.8037 0.27719-1.3348 0.19096-2.1611 0.19005-2.1698 0 0-0.1408 0.63968-0.35765 1.4832-0.12441-0.6376-0.16717-1.2254-0.20266-1.6431-0.075999-0.95809 0.35268-0.69228 0.41374-0.57014 0.09771 0.078709 0.14517 0.34082 0.14517 0.34082s-0.033781-0.39133-0.20477-0.55962c-0.063611-0.062598-0.12463-0.10181-0.18513-0.1115zm-1.1571 7.1236c-3.81e-5 1.3e-5 -0.00419 0.0014-0.00419 0.0014l-0.0014 0.0028s0.00545-0.0041 0.00557-0.0042z" opacity=".01"/>
   <path d="m8.1785 2.9715c-0.10085-0.016137-0.20043 0.050754-0.30645 0.23142-0.16963 0.28771-0.24777 1.0933-0.10799 1.8682 0.047221 0.26482 0.1481 0.64999 0.28472 1.0701-0.10813 0.39356-0.22925 0.81088-0.36117 1.2251-0.52112 1.6366-1.6404 3.3514-2.2307 4.2742-0.37319 0.58083-1.2704 1.2634-1.3464 1.1304-0.074639-0.133 0.17815-0.43114 0.49298-0.90883 0.31348-0.47499 1.1164-0.96774 1.1164-0.96774s-0.34289-0.01336-1.2209 0.76018c-0.87802 0.77759-0.61222 1.1617-0.40321 1.2798 0.20763 0.12077 0.7908 0.58181 2.7722-2.8583 0.72348-1.2567 1.1435-2.3995 1.3879-3.3472 0.25026 0.64833 0.57326 1.3034 0.93198 1.716 0.20914 0.24187 0.48393 0.47229 0.78894 0.68586-0.24017 0.04375-0.51609 0.096962-0.88991 0.1655-1.3689 0.24826-2.0502 0.78671-2.0653 0.79875 0.01102-0.0035 1.6028-0.50701 3.2939-0.74125 0.66514 0.40468 1.4292 0.71598 2.061 0.84223 0.98574 0.19943 1.2544-0.16193 1.2862-0.21038-0.03842 0.0318-0.16651 0.09141-0.57365 0.0568-0.32712-0.02698-1.2215-0.27989-2.1277-0.76579 1.8764-0.17339 2.5249 0.017265 2.6921 0.15077 0.16692 0.13435 0.16691 0.28261 0.16691 0.28261s0.21477-0.20762 0.07363-0.41797c-0.11942-0.21849-0.30288-0.40026-1.8079-0.35414-0.74622 0.022141-1.1481 0.047778-1.5323 0.098874-0.45592-0.28363-0.89507-0.62181-1.2412-1.0316-0.46404-0.54928-0.74773-1.1815-0.93271-1.8037 0.27719-1.3348 0.19096-2.1611 0.19005-2.1698 0 0-0.1408 0.63968-0.35765 1.4832-0.12441-0.6376-0.16717-1.2254-0.20266-1.6431-0.075999-0.95809 0.35268-0.69228 0.41374-0.57014 0.09771 0.078709 0.14517 0.34082 0.14517 0.34082s-0.033781-0.39133-0.20477-0.55962c-0.063611-0.062598-0.12463-0.10181-0.18513-0.1115zm-1.1571 7.1236c-3.81e-5 1.3e-5 -0.00419 0.0014-0.00419 0.0014l-0.0014 0.0028s0.00545-0.0041 0.00557-0.0042z" opacity=".01"/>
   <path d="m8.1785 2.7542c-0.10085-0.016137-0.20043 0.050754-0.30645 0.23142-0.16963 0.28771-0.24777 1.0933-0.10799 1.8682 0.047221 0.26482 0.1481 0.64999 0.28472 1.0701-0.10813 0.39356-0.22925 0.81088-0.36117 1.2251-0.52112 1.6366-1.6404 3.3514-2.2307 4.2742-0.37319 0.58083-1.2704 1.2634-1.3464 1.1304-0.074639-0.133 0.17815-0.43114 0.49298-0.90883 0.31348-0.47499 1.1164-0.96774 1.1164-0.96774s-0.34289-0.01336-1.2209 0.76018c-0.87802 0.77759-0.61222 1.1617-0.40321 1.2798 0.20763 0.12077 0.7908 0.58181 2.7722-2.8583 0.72348-1.2567 1.1435-2.3995 1.3879-3.3472 0.25026 0.64833 0.57326 1.3034 0.93198 1.716 0.20914 0.24187 0.48393 0.47229 0.78894 0.68586-0.24017 0.04375-0.51609 0.096962-0.88991 0.1655-1.3689 0.24826-2.0502 0.78671-2.0653 0.79875 0.01102-0.0035 1.6028-0.50701 3.2939-0.74125 0.66514 0.40468 1.4292 0.71598 2.061 0.84223 0.98574 0.19943 1.2544-0.16193 1.2862-0.21038-0.03842 0.0318-0.16651 0.09141-0.57365 0.0568-0.32712-0.02698-1.2215-0.27989-2.1277-0.76579 1.8764-0.17339 2.5249 0.017265 2.6921 0.15077 0.16692 0.13435 0.16691 0.28261 0.16691 0.28261s0.21477-0.20762 0.07363-0.41797c-0.11942-0.21849-0.30288-0.40026-1.8079-0.35414-0.74622 0.022141-1.1481 0.047778-1.5323 0.098874-0.45592-0.28363-0.89507-0.62181-1.2412-1.0316-0.46404-0.54928-0.74773-1.1815-0.93271-1.8037 0.27719-1.3348 0.19096-2.1611 0.19005-2.1698 0 0-0.1408 0.63968-0.35765 1.4832-0.12441-0.6376-0.16717-1.2254-0.20266-1.6431-0.075999-0.95809 0.35268-0.69228 0.41374-0.57014 0.09771 0.078709 0.14517 0.34082 0.14517 0.34082s-0.033781-0.39133-0.20477-0.55962c-0.063611-0.062598-0.12463-0.10181-0.18513-0.1115zm-1.1571 7.1236c-3.81e-5 1.3e-5 -0.00419 0.0014-0.00419 0.0014l-0.0014 0.0028s0.00545-0.0041 0.00557-0.0042z" opacity=".01"/>
  </g>
 </g>
 <path d="m8.1785 3.4418c-0.10085-0.016137-0.20043 0.050754-0.30645 0.23142-0.16963 0.28771-0.24777 1.0933-0.10799 1.8682 0.047221 0.26482 0.1481 0.64999 0.28472 1.0701-0.10813 0.39356-0.22925 0.81088-0.36117 1.2251-0.52112 1.6366-1.6404 3.3514-2.2307 4.2742-0.37319 0.58083-1.2704 1.2634-1.3464 1.1304-0.074639-0.133 0.17815-0.43114 0.49298-0.90883 0.31348-0.47499 1.1164-0.96774 1.1164-0.96774s-0.34289-0.01336-1.2209 0.76018c-0.87802 0.77759-0.61222 1.1617-0.40321 1.2798 0.20763 0.12077 0.7908 0.58181 2.7722-2.8583 0.72348-1.2567 1.1435-2.3995 1.3879-3.3472 0.25026 0.64833 0.57326 1.3034 0.93198 1.716 0.20914 0.24187 0.48393 0.47229 0.78894 0.68586-0.24017 0.04375-0.51609 0.096962-0.88991 0.1655-1.3689 0.24826-2.0502 0.78671-2.0653 0.79875 0.01102-0.0035 1.6028-0.50701 3.2939-0.74125 0.66514 0.40468 1.4292 0.71598 2.061 0.84223 0.98574 0.19943 1.2544-0.16193 1.2862-0.21038-0.03842 0.0318-0.16651 0.09141-0.57365 0.0568-0.32712-0.02698-1.2215-0.27989-2.1277-0.76579 1.8764-0.17339 2.5249 0.017265 2.6921 0.15077 0.16692 0.13435 0.16691 0.28261 0.16691 0.28261s0.21477-0.20762 0.07363-0.41797c-0.11942-0.21849-0.30288-0.40026-1.8079-0.35414-0.74622 0.022141-1.1481 0.047778-1.5323 0.098874-0.45592-0.28363-0.89507-0.62181-1.2412-1.0316-0.46404-0.54928-0.74773-1.1815-0.93271-1.8037 0.27719-1.3348 0.19096-2.1611 0.19005-2.1698 0 0-0.1408 0.63968-0.35765 1.4832-0.12441-0.6376-0.16717-1.2254-0.20266-1.6431-0.075999-0.95809 0.35268-0.69228 0.41374-0.57014 0.09771 0.078709 0.14517 0.34082 0.14517 0.34082s-0.033781-0.39133-0.20477-0.55962c-0.063611-0.062598-0.12463-0.10181-0.18513-0.1115zm-1.1571 7.1236c-3.81e-5 1.3e-5 -0.00419 0.0014-0.00419 0.0014l-0.0014 0.0028s0.00545-0.0041 0.00557-0.0042z" fill="#fff" stroke-width="1.2666"/>
</svg>
