<svg width="64" height="64" version="1.1" viewBox="0 0 16.933 16.933" xmlns="http://www.w3.org/2000/svg">
 <defs>
  <linearGradient id="linearGradient932" x1="379.24" x2="374.24" y1="546.85" y2="546.85" gradientTransform="matrix(.56696 0 0 .56696 -203.64 -300.16)" gradientUnits="userSpaceOnUse">
   <stop stop-color="#f6f5f4" offset="0"/>
   <stop stop-color="#fff" offset=".6"/>
   <stop stop-color="#dddbd8" offset="1"/>
  </linearGradient>
  <linearGradient id="b" x1="399.57" x2="399.57" y1="545.8" y2="517.8" gradientTransform="matrix(.56696 0 0 .56696 -218.64 -293.02)" gradientUnits="userSpaceOnUse">
   <stop stop-color="#3889e9" offset="0"/>
   <stop stop-color="#5ea5fb" offset="1"/>
  </linearGradient>
  <linearGradient id="linearGradient862" x1="7.9373" x2="7.9373" y1="15.081" y2="1.852" gradientTransform="matrix(.89277 0 0 .89277 .90782 .91462)" gradientUnits="userSpaceOnUse">
   <stop stop-color="#f1efeb" offset="0"/>
   <stop stop-color="#fff" offset="1"/>
  </linearGradient>
  <linearGradient id="linearGradient910" x1="7.9373" x2="7.9373" y1="15.081" y2="1.852" gradientTransform="translate(-.0038746 .0082548)" gradientUnits="userSpaceOnUse">
   <stop stop-color="#932625" offset="0"/>
   <stop stop-color="#dd4c4b" offset="1"/>
  </linearGradient>
  <linearGradient id="linearGradient984" x1="5.8207" x2="5.8207" y1="2.1166" y2="10.848" gradientUnits="userSpaceOnUse">
   <stop stop-color="#dd4c4b" offset="0"/>
   <stop stop-color="#932625" offset="1"/>
  </linearGradient>
  <linearGradient id="l" x1="8.4667" x2="8.4667" y1="-2.9203" y2="19.84" gradientTransform="matrix(.37199 0 0 .37199 9.0211 9.0235)" gradientUnits="userSpaceOnUse">
   <stop stop-color="#ccc" offset="0"/>
   <stop stop-color="#ebebeb" offset="1"/>
  </linearGradient>
  <linearGradient id="linearGradient1028" x1="12.435" x2="12.435" y1="13.758" y2="9.7894" gradientTransform="translate(0 .26454)" gradientUnits="userSpaceOnUse">
   <stop stop-color="#2e2e2e" offset="0"/>
   <stop stop-color="#5c5c5c" offset="1"/>
  </linearGradient>
  <radialGradient id="radialGradient1042" cx="12.171" cy="12.171" r="4.7624" gradientUnits="userSpaceOnUse">
   <stop offset="0"/>
   <stop stop-opacity="0" offset="1"/>
  </radialGradient>
  <linearGradient id="linearGradient953" x1="376.35" x2="374.24" y1="546.85" y2="546.85" gradientTransform="matrix(-.56696 0 0 .56696 220.57 -300.16)" gradientUnits="userSpaceOnUse">
   <stop stop-opacity="0" offset="0"/>
   <stop stop-opacity="0" offset=".6"/>
   <stop stop-opacity=".05" offset="1"/>
  </linearGradient>
 </defs>
 <g shape-rendering="auto">
  <path d="m4.3693 0.52916c-2.1142 0-3.8402 1.7835-3.8402 3.9682v8.4675c0 2.1846 1.726 3.9682 3.8402 3.9682h8.1944c2.1142 0 3.8402-1.7835 3.8402-3.9682v-8.4675c0-2.1846-1.726-3.9682-3.8402-3.9682zm0.25704 0.52089h7.6808c1.8443 0 3.3291 1.5342 3.3291 3.44v7.9368c0 1.9058-1.4847 3.44-3.3291 3.44h-7.6808c-1.8443 0-3.3291-1.5342-3.3291-3.44v-7.9368c0-1.9058 1.4847-3.44 3.3291-3.44z" color="#000000" color-rendering="auto" dominant-baseline="auto" image-rendering="auto" opacity=".01" solid-color="#000000" stop-color="#000000" style="font-feature-settings:normal;font-variant-alternates:normal;font-variant-caps:normal;font-variant-east-asian:normal;font-variant-ligatures:normal;font-variant-numeric:normal;font-variant-position:normal;font-variation-settings:normal;inline-size:0;isolation:auto;mix-blend-mode:normal;shape-margin:0;shape-padding:0;text-decoration-color:#000000;text-decoration-line:none;text-decoration-style:solid;text-indent:0;text-orientation:mixed;text-transform:none;white-space:normal"/>
  <path d="m4.3587 0.79373c-1.9668 0-3.5639 1.6528-3.5639 3.6876v8.4996c0 2.0348 1.5971 3.6876 3.5639 3.6876h8.2162c1.9668 0 3.5644-1.6528 3.5644-3.6876v-8.4996c0-2.0348-1.5976-3.6876-3.5644-3.6876zm0.27222 0.25631h7.6718c1.8422 0 3.3251 1.5342 3.3251 3.44v7.9368c0 1.9058-1.483 3.44-3.3251 3.44h-7.6718c-1.8422 0-3.3251-1.5342-3.3251-3.44v-7.9368c0-1.9058 1.483-3.44 3.3251-3.44z" color="#000000" color-rendering="auto" dominant-baseline="auto" image-rendering="auto" opacity=".01" solid-color="#000000" stop-color="#000000" style="font-feature-settings:normal;font-variant-alternates:normal;font-variant-caps:normal;font-variant-east-asian:normal;font-variant-ligatures:normal;font-variant-numeric:normal;font-variant-position:normal;font-variation-settings:normal;inline-size:0;isolation:auto;mix-blend-mode:normal;shape-margin:0;shape-padding:0;text-decoration-color:#000000;text-decoration-line:none;text-decoration-style:solid;text-indent:0;text-orientation:mixed;text-transform:none;white-space:normal"/>
  <path d="m4.3097 1.0583c-1.8657 0-3.3751 1.5383-3.3751 3.439v8.4675c0 1.9007 1.57 3.439 3.4357 3.439h8.1996c1.8657 0 3.4274-1.5383 3.4274-3.439v-8.4675c0-1.9007-1.51-3.439-3.3756-3.439h-0.09688c1.794 0.086515 3.2138 1.5819 3.2138 3.4318v7.9368c0 1.9058-1.5059 3.44-3.3766 3.44h-7.7905c-1.8707 0-3.3766-1.5342-3.3766-3.44v-7.9368c0-1.8498 1.4199-3.3451 3.2138-3.4318z" color="#000000" color-rendering="auto" dominant-baseline="auto" image-rendering="auto" opacity=".03" solid-color="#000000" stop-color="#000000" style="font-feature-settings:normal;font-variant-alternates:normal;font-variant-caps:normal;font-variant-east-asian:normal;font-variant-ligatures:normal;font-variant-numeric:normal;font-variant-position:normal;font-variation-settings:normal;inline-size:0;isolation:auto;mix-blend-mode:normal;shape-margin:0;shape-padding:0;text-decoration-color:#000000;text-decoration-line:none;text-decoration-style:solid;text-indent:0;text-orientation:mixed;text-transform:none;white-space:normal"/>
  <path transform="scale(.26458)" d="m4 46.969v2.0312c0 6.6479 5.8957 12 12.544 12h30.961c6.6479 0 12.495-5.3521 12.495-12v-1.9922c-0.02117 7.1849-5.81 12.963-13 12.963h-29.998c-7.2032 0-13.002-5.7987-13.002-13.002z" color="#000000" color-rendering="auto" dominant-baseline="auto" image-rendering="auto" opacity=".03" solid-color="#000000" stop-color="#000000" style="font-feature-settings:normal;font-variant-alternates:normal;font-variant-caps:normal;font-variant-east-asian:normal;font-variant-ligatures:normal;font-variant-numeric:normal;font-variant-position:normal;font-variation-settings:normal;inline-size:0;isolation:auto;mix-blend-mode:normal;shape-margin:0;shape-padding:0;text-decoration-color:#000000;text-decoration-line:none;text-decoration-style:solid;text-indent:0;text-orientation:mixed;text-transform:none;white-space:normal"/>
  <path d="m1.0583 11.906v0.59234c0 1.9386 1.5729 3.4993 3.3318 3.4993h8.1603c1.7589 0 3.3243-1.5608 3.3243-3.4993v-0.58095c-0.0056 2.0952-1.5372 3.7801-3.4395 3.7801h-7.9368c-1.9058 0-3.44-1.691-3.44-3.7915z" color="#000000" color-rendering="auto" dominant-baseline="auto" image-rendering="auto" opacity=".05" solid-color="#000000" stop-color="#000000" style="font-feature-settings:normal;font-variant-alternates:normal;font-variant-caps:normal;font-variant-east-asian:normal;font-variant-ligatures:normal;font-variant-numeric:normal;font-variant-position:normal;font-variation-settings:normal;inline-size:0;isolation:auto;mix-blend-mode:normal;shape-margin:0;shape-padding:0;text-decoration-color:#000000;text-decoration-line:none;text-decoration-style:solid;text-indent:0;text-orientation:mixed;text-transform:none;white-space:normal"/>
 </g>
 <path d="m4.4945 1.0583c-1.9058 0-3.44 1.5342-3.44 3.44v7.9368c0 1.9058 1.5342 3.44 3.44 3.44h7.9368c1.9058 0 3.44-1.5342 3.44-3.44v-7.9368c0-1.9058-1.5342-3.44-3.44-3.44z" fill="url(#linearGradient910)"/>
 <rect x="1.8527" y="1.852" width="13.228" height="13.228" rx="2.6458" ry="2.6458" fill="url(#linearGradient862)" stroke-width=".89277"/>
 <path d="m4.4988 1.852c-1.4658 0-2.6458 1.18-2.6458 2.6458v7.9368c0 1.4658 1.18 2.6458 2.6458 2.6458h3.9681v-13.228z" fill="url(#linearGradient953)" stroke-width=".89277"/>
 <circle cx="8.4718" cy="8.4781" r="7.9376" fill-opacity="0" stroke-width=".41578"/>
 <circle cx="8.4718" cy="8.4781" r="0" fill="url(#b)" stroke-width=".41578"/>
 <path d="m12.435 1.852c1.4658 0 2.6458 1.18 2.6458 2.6458v7.9368c0 1.4658-1.18 2.6458-2.6458 2.6458h-3.9681v-13.228z" fill="url(#linearGradient932)" stroke-width=".89277"/>
 <g stroke-width=".26458">
  <rect x="9.5248" y="3.7041" width="4.4978" height=".13229" rx="0" ry="0" opacity=".1"/>
  <rect x="9.5248" y="4.7624" width="4.4978" height=".13229" rx="0" ry="0" opacity=".1"/>
  <rect x="9.5248" y="5.8207" width="4.4978" height=".13229" rx="0" ry="0" opacity=".1"/>
  <rect x="9.5248" y="6.879" width="4.4978" height=".13229" rx="0" ry="0" opacity=".1"/>
  <rect x="9.5248" y="7.9373" width="4.4978" height=".13229" rx="0" ry="0" opacity=".1"/>
  <rect x="9.5248" y="8.9957" width="4.4978" height=".13229" rx="0" ry="0" opacity=".1"/>
 </g>
 <circle cx="12.171" cy="12.171" r="4.7624" fill="url(#radialGradient1042)" stroke-width="1.125"/>
 <g transform="translate(0 .26454)" stroke-width=".26458">
  <rect x="9.5248" y="10.054" width="4.4978" height=".13229" rx="0" ry="0" opacity=".1"/>
  <rect x="9.5248" y="11.112" width="4.4978" height=".13229" rx="0" ry="0" opacity=".1"/>
  <rect x="9.5248" y="12.171" width="4.4978" height=".13229" rx="0" ry="0" opacity=".1"/>
  <rect x="9.5248" y="13.229" width="4.4978" height=".13229" rx="0" ry="0" opacity=".1"/>
 </g>
 <circle cx="12.171" cy="12.171" r="4.2333" fill="url(#l)"/>
 <path d="m13.914 13.85c0.16357-0.03616 0.32378-0.1199 0.43005-0.2248l0.08597-0.08487 0.0324 0.06895c0.0772 0.1643 0.24095 0.25258 0.46828 0.25244 0.12885-8.1e-5 0.24296-0.02317 0.3408-0.06895l0.07406-0.03466v-0.16134l-0.05945 0.0094c-0.11951 0.01889-0.21948-0.02105-0.26776-0.10697l-0.02921-0.05199-0.01237-1.4257-0.03169-0.0944c-0.06123-0.18249-0.16896-0.30588-0.34158-0.39123-0.40424-0.19987-1.1246-0.12475-1.4192 0.14799-0.19818 0.18348-0.19808 0.43904 2.29e-4 0.54765 0.05435 0.02977 0.07585 0.03471 0.15102 0.03471 0.07502 0 0.09669-5e-3 0.15041-0.03441 0.17736-0.09725 0.2012-0.31614 0.04937-0.45332-0.04472-0.04041-0.04604-0.04345-0.02398-0.05525 0.10348-0.05539 0.37947-0.07568 0.5382-0.03958 0.103 0.02343 0.21027 0.09356 0.26414 0.17272 0.06759 0.09931 0.09002 0.19768 0.09062 0.39756l5.24e-4 0.17401-0.32721 0.07271c-0.17997 0.03999-0.36856 0.08439-0.41911 0.09867-0.1234 0.03487-0.29432 0.10453-0.37659 0.15347-0.08742 0.05201-0.20852 0.16472-0.24638 0.22932-0.09043 0.1543-0.10167 0.39346-0.02561 0.54497 0.08188 0.1631 0.23743 0.28192 0.43078 0.32905 0.10133 0.0247 0.34826 0.0215 0.47328-0.0061zm-0.10516-0.28467c-0.14764-0.04645-0.23354-0.14294-0.26333-0.29579-0.02718-0.13945 0.02046-0.29443 0.11742-0.38203 0.05552-0.05016 0.19934-0.12415 0.30423-0.15653 0.08233-0.02542 0.39488-0.09595 0.42514-0.09595 0.01632 0 0.01838 0.04115 0.01838 0.36786v0.36786l-0.06275 0.06275c-0.10306 0.10306-0.22382 0.14829-0.39302 0.1472-0.05463-3.55e-4 -0.12037-0.0073-0.14608-0.01535zm-3.4416 0.1804v-0.08127l-0.04383-0.0075c-0.3341-0.05738-0.35769-0.1258-0.20123-0.58369 0.04612-0.13498 0.09696-0.28359 0.11296-0.33025l0.02911-0.08483 1.1578 0.0061 0.09793 0.28047c0.14683 0.42054 0.16383 0.4978 0.12827 0.5829-0.02581 0.06176-0.10836 0.10004-0.27889 0.12933l-0.04383 0.0075v0.16255h1.4257v-0.16126l-0.08594-0.01912c-0.1142-0.02541-0.20011-0.07816-0.25468-0.1564-0.06671-0.09563-0.06692-0.09618-0.58451-1.5154-0.07032-0.19282-0.14826-0.40581-0.17321-0.47329-0.02495-0.06749-0.1039-0.2831-0.17546-0.47914s-0.15031-0.41165-0.17501-0.47914l-0.04491-0.1227-0.44216-0.0063-0.51813 1.4114c-0.28497 0.77621-0.53562 1.4525-0.557 1.5027-0.05376 0.12632-0.11262 0.21066-0.17661 0.25304-0.05248 0.03476-0.14922 0.07048-0.19087 0.07048-0.05041 0-0.05727 0.01135-0.05727 0.09474v0.08056h1.0518zm-0.02337-1.3071c0-0.0073 0.45763-1.3508 0.48641-1.428 0.0077-0.02054-0.0025-0.0483 0.27278 0.74209 0.11643 0.33422 0.21932 0.6274 0.22866 0.65151l0.01698 0.04383h-0.50241c-0.27632 0-0.50241-0.0043-0.50241-0.0094z" fill="#fff" stroke-width=".011686"/>
 <path d="m13.859 13.781c0.16357-0.03616 0.32378-0.1199 0.43005-0.2248l0.08597-0.08487 0.0324 0.06895c0.0772 0.1643 0.24095 0.25258 0.46828 0.25244 0.12885-8.1e-5 0.24296-0.02317 0.3408-0.06895l0.07406-0.03466v-0.16134l-0.05945 0.0094c-0.11951 0.01889-0.21948-0.02105-0.26776-0.10697l-0.02921-0.05199-0.01237-1.4257-0.03169-0.0944c-0.06123-0.18249-0.16896-0.30588-0.34158-0.39123-0.40424-0.19987-1.1246-0.12475-1.4192 0.14799-0.19818 0.18348-0.19808 0.43904 2.29e-4 0.54765 0.05435 0.02977 0.07585 0.03471 0.15102 0.03471 0.07502 0 0.09669-5e-3 0.15041-0.03441 0.17736-0.09725 0.2012-0.31614 0.04937-0.45332-0.04472-0.04041-0.04604-0.04345-0.02398-0.05525 0.10348-0.05539 0.37947-0.07568 0.5382-0.03958 0.103 0.02343 0.21027 0.09356 0.26414 0.17272 0.06759 0.09931 0.09002 0.19768 0.09062 0.39756l5.24e-4 0.17401-0.32721 0.07271c-0.17997 0.03999-0.36856 0.08439-0.41911 0.09867-0.1234 0.03487-0.29432 0.10453-0.37659 0.15347-0.08742 0.05201-0.20852 0.16472-0.24638 0.22932-0.09043 0.1543-0.10167 0.39346-0.02561 0.54497 0.08188 0.1631 0.23743 0.28192 0.43078 0.32905 0.10133 0.0247 0.34826 0.0215 0.47328-0.0061zm-0.10516-0.28467c-0.14764-0.04645-0.23354-0.14294-0.26333-0.29579-0.02718-0.13945 0.02046-0.29443 0.11742-0.38203 0.05552-0.05016 0.19934-0.12415 0.30423-0.15653 0.08233-0.02542 0.39488-0.09595 0.42514-0.09595 0.01632 0 0.01838 0.04115 0.01838 0.36786v0.36786l-0.06275 0.06275c-0.10306 0.10306-0.22382 0.14829-0.39302 0.1472-0.05463-3.55e-4 -0.12037-0.0073-0.14608-0.01535zm-3.4416 0.1804v-0.08127l-0.04383-0.0075c-0.3341-0.05738-0.35769-0.1258-0.20123-0.58369 0.04612-0.13498 0.09696-0.28359 0.11296-0.33025l0.02911-0.08483 1.1578 0.0061 0.09793 0.28047c0.14683 0.42054 0.16383 0.4978 0.12827 0.5829-0.02581 0.06176-0.10836 0.10004-0.27889 0.12933l-0.04383 0.0075v0.16255h1.4257v-0.16126l-0.08594-0.01912c-0.1142-0.02541-0.20011-0.07816-0.25468-0.1564-0.06671-0.09563-0.06692-0.09618-0.58451-1.5154-0.07032-0.19282-0.14826-0.40581-0.17321-0.47329-0.02495-0.06749-0.1039-0.2831-0.17546-0.47914s-0.15031-0.41165-0.17501-0.47914l-0.04491-0.1227-0.44216-0.0063-0.51813 1.4114c-0.28497 0.77621-0.53562 1.4525-0.557 1.5027-0.05376 0.12632-0.11262 0.21066-0.17661 0.25304-0.05248 0.03476-0.14922 0.07048-0.19087 0.07048-0.05041 0-0.05727 0.01135-0.05727 0.09474v0.08056h1.0518zm-0.02337-1.3071c0-0.0073 0.45763-1.3508 0.48641-1.428 0.0077-0.02054-0.0025-0.0483 0.27278 0.74209 0.11643 0.33422 0.21932 0.6274 0.22866 0.65151l0.01698 0.04383h-0.50241c-0.27632 0-0.50241-0.0043-0.50241-0.0094z" fill="url(#linearGradient1028)" stroke-width=".011686"/>
 <g stroke-linecap="round" stroke-linejoin="round">
  <g stroke="#000">
   <path d="m4.2853 2.0484h3.1749v8.9957l-1.5875-1.3229-1.5875 1.3229z" opacity=".01" stroke-width="1.0583"/>
   <path d="m4.2853 2.0484h3.1749v8.9957l-1.5875-1.3229-1.5875 1.3229z" opacity=".02" stroke-width=".79373"/>
   <path d="m4.2853 2.0484h3.1749v8.9957l-1.5875-1.3229-1.5875 1.3229z" opacity=".03" stroke-width=".52916"/>
   <path d="m4.2853 2.0484h3.1749v8.9957l-1.5875-1.3229-1.5875 1.3229z" opacity=".04" stroke-width=".26458"/>
  </g>
  <path d="m4.2853 2.0484h3.1749v8.9957l-1.5875-1.3229-1.5875 1.3229z" opacity=".05" stroke-width=".39687"/>
 </g>
 <path d="m4.2333 1.2528h3.1749v9.5949l-1.5875-1.3229-1.5875 1.3229z" fill="url(#linearGradient984)" stroke-linecap="round" stroke-linejoin="round" stroke-width=".39687"/>
 <path d="m10.76 10.346-0.51778 1.4113c-0.28498 0.77622-0.53569 1.4525-0.55707 1.5027-0.05376 0.12632-0.11275 0.21031-0.17673 0.2527-0.05248 0.03476-0.14902 0.0708-0.19068 0.0708-0.05041 0-0.057361 0.01118-0.057361 0.09457v0.08061h0.055292v-0.01137c0-0.08339 0.00695-0.09508 0.057361-0.09508 0.041658 0 0.1382-0.03552 0.19068-0.07028 0.063986-0.04238 0.12297-0.12689 0.17673-0.25321 0.021378-0.05022 0.27209-0.72651 0.55707-1.5027l0.51778-1.4113 0.41238 0.0057-0.02532-0.06821zm-0.0033 0.46042c0.0073 0.0037-0.0053-0.0015-0.0072 0.0036-5.29e-4 0.0015-0.0085 0.02454-0.0093 0.02687 0.03422 0.09395 0.17596 0.46915 0.30771 0.84748 0.11643 0.33422 0.21959 0.62753 0.22892 0.65163l0.01705 0.04341h-0.50289c-0.23311 0-0.5199-0.0058-0.57591-0.0098-2e-3 0.0061-0.02325 0.06735-0.02325 0.0677 0 0.0051 0.37814 0.01133 0.65447 0.01133h0.50228l-0.01654-0.04393c-0.0093-0.02411-0.1125-0.31742-0.22892-0.65163-0.20646-0.59279-0.36837-0.95765-0.34647-0.94669zm3.243 0.54829c-0.33562-0.0028-0.68611 0.08999-0.87023 0.26045-0.1758 0.16276-0.19511 0.38208-0.05891 0.5054-0.07017-0.12593-0.0323-0.30051 0.1142-0.43613 0.29458-0.27273 1.0148-0.34766 1.419-0.14779 0.07763 0.03838 0.14021 0.08591 0.19327 0.14159-0.06158-0.08755-0.14122-0.15777-0.24856-0.21084-0.15159-0.07495-0.34742-0.11096-0.54879-0.11265zm-0.49712 0.38033c-0.0027 0.0074 0.0034 0.01708 0.03307 0.04393 8.47e-4 7.67e-4 0.0012 0.0018 0.0021 0.0026-0.0099-0.01619-0.02162-0.03157-0.03514-0.04651zm0.7648 0.06821c0.05982 0.0944 0.0816 0.19272 0.08216 0.3824l5.29e-4 0.17363-0.32763 0.07286c-0.17997 0.03999-0.36853 0.08442-0.4191 0.0987-0.1234 0.03487-0.29392 0.10453-0.37621 0.15348-0.08742 0.05201-0.20864 0.16484-0.24649 0.22944-0.09043 0.1543-0.1019 0.39316-0.02584 0.54466 0.02594 0.05168 0.06169 0.09709 0.10128 0.13901-0.0159-0.02284-0.03343-0.04474-0.04599-0.06976-0.07606-0.15151-0.06459-0.39086 0.02584-0.54517 0.03786-0.06461 0.15907-0.17691 0.24649-0.22892 0.08227-0.04895 0.2528-0.11861 0.37621-0.15348 0.05054-0.01428 0.23912-0.05871 0.41909-0.0987l0.32763-0.07286-5.29e-4 -0.17415c-6.09e-4 -0.19988-0.02336-0.29808-0.09095-0.3974-0.01262-0.01855-0.02876-0.03667-0.04651-0.05374zm0.09818 0.69516c-0.0028 0-0.03243 0.0076-0.03979 0.0088 0.0022 0.05262 0.02998 0.2727 0.02998 0.42724v0.36792l-0.06253 0.06253c-0.10306 0.10306-0.22405 0.14837-0.39324 0.14728-0.05463-3.44e-4 -0.12054-0.0075-0.14624-0.0155-0.0631-0.01985-0.11249-0.05077-0.15348-0.0894 0.04533 0.07443 0.11264 0.1284 0.20877 0.15864 0.02571 0.0081 0.09161 0.01515 0.14624 0.0155 0.1692 0.0011 0.28966-0.04421 0.39274-0.14728l0.06304-0.06304v-0.36742c0-0.3267-0.02916-0.50527-0.04548-0.50527zm-3.0117 0.05067 0.11114 0.3275c0.14683 0.42055 0.16371 0.49781 0.12816 0.5829-0.02581 0.06176-0.108 0.0999-0.27852 0.12919l-0.04392 0.0072v0.16278h0.05529v-0.09353l0.04341-0.0078c0.17053-0.02929 0.25324-0.06743 0.27905-0.12919 0.03556-0.08511 0.01867-0.16236-0.12816-0.5829l-0.13543-0.39621zm1.0449 0.92227c0.0038 0.0057 0.0077 0.01356 0.01189 0.01964 0.05457 0.07824 0.14056 0.13065 0.25476 0.15606l0.03101 0.0067v-0.05633l-0.0863-0.01912c-0.08785-0.01955-0.15837-0.0559-0.21136-0.10697zm2.6138 0.01705 0.0062 0.01137c0.04829 0.08593 0.14817 0.12586 0.26768 0.10697l0.0041-5.29e-4v-0.07803l-0.05943 0.0093c-0.0879 0.01389-0.16462-0.0044-0.21859-0.04909zm-4.9733 0.02584c0.02689 0.08037 0.11313 0.11228 0.27284 0.14056v-0.05891l-0.04392-0.0072c-0.10879-0.01868-0.18148-0.04032-0.22893-0.07441zm4.391 0.02687-0.01344 0.01343c0.02154 0.04154 0.04938 0.07757 0.08216 0.10852-0.01202-0.01783-0.02671-0.03309-0.03617-0.05322z" fill="#fff" opacity=".1" stroke-width=".26458"/>
 <path d="m11.159 10.351 0.02842 0.07751c0.0247 0.06749 0.10362 0.283 0.17518 0.47902 0.07156 0.19604 0.15023 0.41156 0.17518 0.47902 0.02495 0.06749 0.10279 0.28053 0.17311 0.47336 0.5176 1.4193 0.51826 1.42 0.58496 1.5156 0.02707 0.03882 0.06174 0.07111 0.10387 0.09715-0.01664-0.0158-0.03136-0.03292-0.04444-0.05167-0.06671-0.09563-0.06738-0.09586-0.58496-1.5151-0.07032-0.19282-0.14816-0.40586-0.17312-0.47336-0.02495-0.06749-0.10363-0.2835-0.17518-0.47955-0.07156-0.19604-0.15048-0.41155-0.17518-0.47902l-0.04496-0.12247zm-0.41933 0.48524c-0.0044-0.0069-0.0053-0.0015-0.0072 0.0036-0.02878 0.07722-0.51855 1.5208-0.51855 1.5281 0 7.67e-4 0.06506 8.46e-4 0.07441 0.0016 0.02563-0.08168 0.43735-1.2953 0.48857-1.4392-0.0188-0.05153-0.03629-0.08537-0.03721-0.09405zm3.8962 0.68368c0.08875 0.07565 0.15315 0.16983 0.1943 0.29249l0.03152 0.09405 0.0124 1.4257 0.02945 0.05219c0.02059 0.03663 0.052 0.06273 0.08888 0.08165-0.0104-0.01145-0.02163-0.02225-0.02946-0.03617l-0.02946-0.05168-0.0124-1.4257-0.03152-0.09457c-0.0498-0.14846-0.13244-0.25638-0.25371-0.33794zm-0.83766 0.03204c-0.14944-0.0069-0.3239 0.01478-0.40153 0.05633-0.02206 0.0118-0.02095 0.01488 0.02377 0.05529 0.15184 0.13717 0.12827 0.35594-0.04909 0.4532-0.05372 0.02941-0.07587 0.03462-0.15089 0.03462-0.07517 0-0.09654-0.0049-0.15089-0.03462-0.0041-0.0022-0.0069-0.0054-0.01085-0.0078 0.01986 0.0201 0.04281 0.03818 0.07028 0.05323 0.05435 0.02977 0.07572 0.03462 0.15089 0.03462 0.07502 0 0.09718-0.0047 0.15089-0.03411 0.17737-0.09725 0.20093-0.31602 0.04909-0.4532-0.04472-0.04041-0.04583-0.04349-0.02377-0.05529 0.10348-0.05539 0.37922-0.07589 0.53794-0.03979 0.05129 0.01167 0.10358 0.03494 0.14986 0.06511-0.05725-0.05198-0.13435-0.09354-0.20929-0.11059-0.03968-9e-3 -0.08661-0.01474-0.13642-0.01705zm0.5271 0.95455c-0.03026 0-0.39049 0.08402-0.47283 0.10944-0.1049 0.03238-0.24885 0.10642-0.30437 0.15658-0.09696 0.08761-0.14448 0.24243-0.1173 0.3819 0.02307 0.11839 0.08063 0.20209 0.17363 0.2558-0.05735-0.05217-0.0967-0.12002-0.1142-0.2098-0.02718-0.13945 0.02034-0.29427 0.1173-0.3819 0.05552-0.05016 0.19947-0.1242 0.30437-0.15658 0.07371-0.02276 0.35337-0.08753 0.42838-0.09963-0.0026-0.04452-0.0072-0.05581-0.01498-0.05581zm-4.1759 0.03658-0.02894 0.08527c-0.016 0.04666-0.06705 0.19523-0.11317 0.3302-0.11575 0.33877-0.1321 0.46352 0.0021 0.52916-0.063549-0.07612-0.036369-0.20938 0.05736-0.48368 0.04612-0.13498 0.09717-0.28355 0.11317-0.3302l0.02894-0.08475 1.1606 0.0053-0.01602-0.04599zm4.2055 0.88468-0.11301 0.11412c-0.09326 0.09418-0.27908 0.1572-0.44264 0.19336-0.12501 0.0276-0.37203 0.0309-0.47336 0.0062-0.08412-0.02051-0.15948-0.05693-0.22634-0.10232 0.07911 0.06865 0.17526 0.12085 0.28577 0.14779 0.10133 0.0247 0.34835 0.0214 0.47336-0.0062 0.16357-0.03616 0.32366-0.11989 0.42994-0.22479l0.08769-0.08828c-3.71e-4 -7.93e-4 -0.0012-0.0013-0.0016-0.0021zm0.93521 0.09975-0.05943 0.0093v0.10645l-0.0739 0.03462c-0.09784 0.04578-0.21221 0.06865-0.34107 0.06873-0.11367 6.7e-5 -0.21141-0.02149-0.29043-0.06408 0.08751 0.06979 0.2036 0.11016 0.34985 0.11007 0.12885-8.1e-5 0.24322-0.02295 0.34107-0.06873l0.0739-0.03462zm-0.7648 0.15503c-0.01713-0.0092-0.02962-0.02347-0.04496-0.03462 0.01292 0.0137 0.03015 0.02281 0.04496 0.03462zm-1.8888-0.0987v0.12816h-1.3663v0.04599h1.4257v-0.16123zm-2.3843 1e-3v0.12712h-0.99218v0.04599h1.0516v-0.16278l-0.04392-0.0072c-0.0058-1e-3 -0.0098-0.0021-0.0155-0.0031z" opacity=".5" stroke-width=".26458"/>
</svg>
