<svg width="64" height="64" viewBox="0 0 16.933 16.933" xmlns="http://www.w3.org/2000/svg"><defs><linearGradient id="a" x1="7.937" x2="7.937" y1="15.081" y2="1.852" gradientUnits="userSpaceOnUse"><stop stop-color="#eae8e9" offset="0"/><stop stop-color="#f9f8f9" offset="1"/></linearGradient><linearGradient id="e" x1="25.135" x2="25.135" y1="11.222" y2="9.39" gradientTransform="translate(2.182 .144)" gradientUnits="userSpaceOnUse"><stop stop-color="#212020" offset="0"/><stop stop-color="#212020" offset=".284"/><stop stop-color="#5d7788" offset=".635"/><stop stop-color="#fff" offset=".679"/><stop stop-color="#fff" offset=".767"/><stop stop-color="#374550" offset=".793"/><stop stop-color="#212020" offset="1"/></linearGradient><linearGradient id="f" x1="81.162" x2="81.162" y1="42.393" y2="35.405" gradientTransform="translate(2.182 .144) scale(.26458)" gradientUnits="userSpaceOnUse"><stop stop-color="#212020" offset="0"/><stop stop-color="#688297" offset=".51"/><stop stop-color="#212020" offset="1"/></linearGradient><linearGradient id="d" x1="30.946" x2="30.946" y1="11.199" y2="9.364" gradientTransform="matrix(1 0 0 .54079 3.25 4.869)" gradientUnits="userSpaceOnUse"><stop stop-color="#212020" offset="0"/><stop stop-color="#212020" offset=".284"/><stop stop-color="#374550" offset=".635"/><stop stop-color="#fefefe" offset=".679"/><stop stop-color="#fff" offset=".767"/><stop stop-color="#374550" offset=".793"/><stop stop-color="#212020" offset="1"/></linearGradient><linearGradient id="g" x1="25.135" x2="25.135" y1="11.222" y2="9.39" gradientTransform="translate(-10.229 .144)" gradientUnits="userSpaceOnUse"><stop stop-color="#212020" offset="0"/><stop stop-color="#212020" offset=".284"/><stop stop-color="#374550" offset=".635"/><stop stop-color="#212020" offset="1"/></linearGradient><linearGradient id="c" x1="17.367" x2="17.367" y1="10.635" y2="10.254" gradientUnits="userSpaceOnUse"><stop stop-color="#212020" offset="0"/><stop stop-color="#212020" offset=".284"/><stop stop-color="#374550" offset=".635"/><stop stop-color="#374550" offset=".793"/><stop stop-color="#212020" offset="1"/></linearGradient><linearGradient id="b" x1="17.367" x2="17.367" y1="10.635" y2="10.254" gradientTransform="matrix(1 0 0 .66667 -.434 3.49)" gradientUnits="userSpaceOnUse"><stop stop-color="#212020" offset="0"/><stop stop-color="#1c2328" offset=".633"/><stop stop-color="#212020" offset="1"/></linearGradient></defs><g color="#000"><path d="M4.37.53C2.254.53.53 2.312.53 4.496v8.468c0 2.184 1.725 3.968 3.84 3.968h8.194c2.114 0 3.84-1.783 3.84-3.968V4.497c0-2.184-1.726-3.968-3.84-3.968zm.256.52h7.681c1.844 0 3.33 1.534 3.33 3.44v7.937c0 1.906-1.485 3.44-3.33 3.44h-7.68c-1.845 0-3.33-1.534-3.33-3.44V4.49c0-1.906 1.485-3.44 3.33-3.44z" opacity=".01" style="font-feature-settings:normal;font-variant-alternates:normal;font-variant-caps:normal;font-variant-east-asian:normal;font-variant-ligatures:normal;font-variant-numeric:normal;font-variant-position:normal;font-variation-settings:normal;inline-size:0;isolation:auto;mix-blend-mode:normal;shape-margin:0;shape-padding:0;text-decoration-color:#000;text-decoration-line:none;text-decoration-style:solid;text-indent:0;text-orientation:mixed;text-transform:none;white-space:normal"/><path d="M4.359.794C2.392.794.795 2.447.795 4.48v8.5c0 2.035 1.597 3.688 3.564 3.688h8.216c1.967 0 3.564-1.653 3.564-3.688v-8.5c0-2.034-1.597-3.687-3.564-3.687zm.272.256h7.672c1.842 0 3.325 1.534 3.325 3.44v7.937c0 1.906-1.483 3.44-3.325 3.44H4.63c-1.842 0-3.325-1.534-3.325-3.44V4.49c0-1.906 1.483-3.44 3.325-3.44z" opacity=".01" style="font-feature-settings:normal;font-variant-alternates:normal;font-variant-caps:normal;font-variant-east-asian:normal;font-variant-ligatures:normal;font-variant-numeric:normal;font-variant-position:normal;font-variation-settings:normal;inline-size:0;isolation:auto;mix-blend-mode:normal;shape-margin:0;shape-padding:0;text-decoration-color:#000;text-decoration-line:none;text-decoration-style:solid;text-indent:0;text-orientation:mixed;text-transform:none;white-space:normal"/><path d="M4.31 1.058c-1.866 0-3.375 1.539-3.375 3.44v8.467c0 1.9 1.57 3.439 3.435 3.439h8.2c1.866 0 3.427-1.538 3.427-3.44V4.498c0-1.9-1.51-3.439-3.375-3.439h-.097c1.794.087 3.214 1.582 3.214 3.432v7.937c0 1.906-1.506 3.44-3.377 3.44h-7.79c-1.871 0-3.377-1.534-3.377-3.44V4.49c0-1.85 1.42-3.345 3.214-3.432z" opacity=".03" style="font-feature-settings:normal;font-variant-alternates:normal;font-variant-caps:normal;font-variant-east-asian:normal;font-variant-ligatures:normal;font-variant-numeric:normal;font-variant-position:normal;font-variation-settings:normal;inline-size:0;isolation:auto;mix-blend-mode:normal;shape-margin:0;shape-padding:0;text-decoration-color:#000;text-decoration-line:none;text-decoration-style:solid;text-indent:0;text-orientation:mixed;text-transform:none;white-space:normal"/><path transform="scale(.26458)" d="M4 46.969V49c0 6.648 5.896 12 12.544 12h30.961C54.153 61 60 55.648 60 49v-1.992a12.972 12.972 0 0 1-13 12.963H17.002A12.973 12.973 0 0 1 4 46.969z" opacity=".03" style="font-feature-settings:normal;font-variant-alternates:normal;font-variant-caps:normal;font-variant-east-asian:normal;font-variant-ligatures:normal;font-variant-numeric:normal;font-variant-position:normal;font-variation-settings:normal;inline-size:0;isolation:auto;mix-blend-mode:normal;shape-margin:0;shape-padding:0;text-decoration-color:#000;text-decoration-line:none;text-decoration-style:solid;text-indent:0;text-orientation:mixed;text-transform:none;white-space:normal"/><path d="M1.058 11.906v.592c0 1.939 1.573 3.5 3.332 3.5h8.16c1.76 0 3.325-1.561 3.325-3.5v-.58c-.006 2.095-1.537 3.78-3.44 3.78H4.498c-1.905 0-3.44-1.692-3.44-3.792z" opacity=".05" style="font-feature-settings:normal;font-variant-alternates:normal;font-variant-caps:normal;font-variant-east-asian:normal;font-variant-ligatures:normal;font-variant-numeric:normal;font-variant-position:normal;font-variation-settings:normal;inline-size:0;isolation:auto;mix-blend-mode:normal;shape-margin:0;shape-padding:0;text-decoration-color:#000;text-decoration-line:none;text-decoration-style:solid;text-indent:0;text-orientation:mixed;text-transform:none;white-space:normal"/></g><rect x="1.058" y="1.05" width="14.817" height="14.817" rx="3.44" ry="3.44" fill="url(#a)"/><g transform="translate(0 .265)" opacity=".25" stroke-linecap="round" stroke-linejoin="round" stroke-opacity=".35" stroke-width=".075"><rect x="2.381" y="3.969" width="12.171" height=".132" rx="0" ry=".066" opacity=".75"/><rect x="2.381" y="6.085" width="12.171" height=".132" rx="0" ry=".066" opacity=".75"/><rect x="2.381" y="8.202" width="12.171" height=".132" rx="0" ry=".066" opacity=".75"/><rect x="2.381" y="10.054" width="12.171" height=".132" rx="0" ry=".066" opacity=".75"/><rect x="2.381" y="12.171" width="12.171" height=".132" rx="0" ry=".066" opacity=".75"/></g><path d="M3.43 3.619q0 .029-.072.052-.059.019-.097.019-.122 0-.122-.107 0-.068.047-.124.052-.064.13-.064.05 0 .08.02t.03.046q0 .046-.091.094-.077.04-.105.04-.022 0-.022-.027 0-.009.082-.042.082-.034.082-.057 0-.01-.012-.017-.014-.005-.044-.005-.058 0-.092.04-.031.039-.031.095 0 .027.015.042t.05.014q.039 0 .072-.015l.075-.035q.024 0 .024.031zm.369-.412-.077.464q-.004.019-.03.019-.025 0-.025-.03l.003-.02-.039.022q-.04.023-.084.023-.028 0-.056-.02-.04-.029-.04-.082 0-.066.052-.12.06-.067.157-.067h.018l.015.002.018.003.032-.197q0-.018.03-.022.012 0 .02.01.006.008.006.015zm-.098.25q-.004-.005-.05-.005-.07 0-.11.047-.033.038-.033.089 0 .022.016.033.012.008.026.008.032 0 .078-.023.03-.016.053-.035zm.252-.139q0 .026-.022.034-.006.002-.015.002-.015 0-.025-.01t-.01-.026q0-.035.035-.035.015 0 .027.008.01.011.01.027zm-.028.106q0 .014-.005.044l-.032.198q0 .01-.01.017-.01.007-.02.007-.022 0-.025-.027l.005-.038.034-.203q.004-.021.028-.021.025 0 .025.023zm.322-.008q0 .012-.007.019-.008.008-.02.01l-.082.007-.035.213q-.004.02-.031.023-.025 0-.025-.025l.034-.206-.073.007q-.01 0-.018-.009-.007-.006-.009-.017 0-.014.006-.02.007-.009.019-.01l.085-.006.017-.115q.004-.022.028-.022.009 0 .018.007.008.008.008.02l-.016.104.074-.006q.009 0 .017.006.008.007.01.02zm.312.099q0 .072-.047.12-.046.048-.126.048-.06 0-.093-.04-.028-.036-.028-.094 0-.059.044-.103.05-.052.128-.052.059 0 .093.04.029.034.029.08zm-.053.01q0-.03-.017-.051-.021-.026-.063-.026-.044 0-.076.033-.028.028-.028.065 0 .082.075.082.045 0 .076-.032.033-.03.033-.072zm.374-.101q0 .022-.013.028-.01.005-.03.005-.071 0-.134.05-.046.037-.056.068l-.014.093q-.003.02-.029.02-.024 0-.028-.026l.04-.238q.003-.025.027-.025.027 0 .027.03l-.007.043q.043-.04.08-.053.047-.017.108-.017.03 0 .03.022zm.617.38q-.07 0-.095-.023-.027-.024-.027-.093v-.125q0-.044-.01-.062t-.05-.029q.047-.011.056-.053.004-.013.004-.034v-.137q0-.065.028-.087.024-.02.094-.02-.039.01-.053.034-.013.02-.013.062v.136q0 .045-.01.064-.012.024-.052.035.04.011.052.038.01.02.01.069v.13q0 .038.015.062.015.025.05.033zM4.219 5.446q0 .1-.083.153-.06.036-.122.036-.03 0-.03-.026 0-.03.027-.03.043 0 .088-.025.065-.035.065-.1 0-.049-.046-.049-.038 0-.082.024l-.045.024-.026.162q-.004.023-.031.023-.011 0-.018-.01-.006-.008-.006-.02l.076-.457q.005-.018.03-.022.01 0 .018.007.007.008.007.026l-.037.221.04-.016q.039-.016.085-.016.032 0 .056.018.034.025.034.077zm.312.021q0 .072-.047.12t-.126.048q-.06 0-.093-.041-.028-.036-.028-.093 0-.06.044-.104.05-.05.128-.05.06 0 .093.039.029.034.029.08zm-.053.009q0-.029-.017-.05-.02-.026-.063-.026-.044 0-.076.032-.028.03-.028.066 0 .081.075.081.045 0 .077-.03.032-.032.032-.073zm.375-.1q0 .021-.014.028-.01.004-.03.004-.071 0-.134.05-.046.038-.056.07l-.014.092q-.003.02-.029.02-.024 0-.028-.027l.04-.237q.003-.025.027-.025.027 0 .027.03l-.007.043q.043-.04.08-.053.047-.017.108-.017.03 0 .03.022zm.368-.217-.076.464q-.004.018-.03.018-.025 0-.025-.03l.003-.02-.039.023q-.04.023-.084.023-.028 0-.056-.02-.04-.03-.04-.082 0-.066.052-.121.06-.066.157-.066h.018l.015.001.018.003.032-.196q0-.019.03-.022.012 0 .02.01.006.007.006.015zm-.097.25q-.004-.005-.05-.005-.07 0-.11.047-.033.038-.033.089 0 .022.016.032.012.009.026.009.032 0 .078-.024.03-.015.053-.034zm.411.161q0 .03-.071.053-.06.018-.097.018-.122 0-.122-.106 0-.068.046-.124.053-.065.13-.065.05 0 .08.02t.031.046q0 .047-.091.094-.077.04-.105.04-.022 0-.022-.027 0-.008.081-.042.083-.034.083-.056 0-.01-.013-.017-.014-.006-.043-.006-.058 0-.093.041-.03.038-.03.094 0 .028.015.042t.05.015q.038 0 .072-.015l.074-.035q.025 0 .025.03zm.322-.194q0 .021-.014.028-.01.004-.03.004-.071 0-.133.05-.047.038-.057.07l-.014.092q-.003.02-.029.02-.024 0-.028-.027l.04-.237q.004-.025.027-.025.027 0 .027.03l-.007.043q.043-.04.08-.053.048-.017.108-.017.03 0 .03.022zm.088-.013q0 .014-.01.024t-.023.01q-.033 0-.033-.034 0-.032.032-.032.034 0 .034.032zm-.021.241q0 .014-.01.024-.008.01-.023.01-.033 0-.033-.034 0-.015.01-.024.01-.01.023-.01.033 0 .033.034zm.658-.459-.079.468q-.001.012-.013.018-.01.007-.021.007-.008 0-.016-.01-.009-.01-.009-.025l.067-.404-.016.01q-.01.004-.02.004-.024 0-.026-.023 0-.03.052-.054.043-.02.07-.02.01 0 .01.029zm.335.301q0 .068-.069.125-.066.055-.135.055-.009 0-.016-.009Q6.69 5.61 6.69 5.6q0-.028.023-.028.057 0 .106-.047.042-.042.042-.084 0-.043-.033-.043-.025 0-.08.02-.058.023-.062.042l-.065.387q-.004.02-.033.02-.01 0-.017-.01-.006-.01-.006-.021l.08-.469q.004-.019.01-.025.007-.007.024-.007.025 0 .023.02L6.7 5.38q.062-.037.116-.037.038 0 .062.016.04.026.04.087zm.261-.078q0 .014-.023.034-.07.06-.079.075l.04.075q.022.04.022.047 0 .014-.011.023-.01.008-.024.008-.008 0-.02-.024-.025-.054-.045-.088-.012.015-.066.093-.012.018-.024.02-.01 0-.018-.01-.008-.008-.01-.017 0-.012.017-.035.045-.058.074-.1l-.042-.075q-.007-.012-.008-.025 0-.023.03-.028.007 0 .016.01l.041.078q.08-.09.104-.09.011 0 .018.01.008.008.008.019zm.635.014q0 .013-.007.022-.009.011-.02.011-.006 0-.036-.011-.03-.013-.05-.013-.036 0-.038.023 0 .018.038.035.064.028.07.033.039.024.039.06 0 .055-.037.08-.027.018-.066.018-.063 0-.09-.01t-.026-.027q0-.028.023-.032l.041.011q.017.005.04.005.058 0 .058-.038 0-.018-.037-.037l-.07-.036q-.038-.026-.038-.06 0-.037.034-.057.028-.016.07-.016.027 0 .058.009.044.01.044.03zm.312.085q0 .072-.047.12t-.126.048q-.06 0-.093-.041-.028-.036-.028-.093 0-.06.044-.104.05-.05.128-.05.06 0 .093.039.03.034.03.08zm-.053.009q0-.029-.017-.05-.02-.026-.063-.026-.044 0-.076.032-.028.03-.028.066 0 .081.075.081.045 0 .077-.03.032-.032.032-.073zm.214-.319-.079.46q-.003.023-.032.023-.009 0-.016-.008-.004-.006-.006-.019l.077-.459q.003-.02.028-.02.012 0 .019.006.007.005.009.017zm.154.113q0 .026-.021.033-.006.003-.016.003-.015 0-.025-.01t-.01-.026q0-.036.035-.036.016 0 .027.009.01.01.01.027zm-.027.106q0 .014-.005.044l-.033.198q0 .01-.01.016-.01.007-.02.007-.022 0-.025-.026l.006-.038.034-.203q.004-.022.028-.022.025 0 .025.024zm.397-.217-.078.464q-.003.018-.029.018-.025 0-.025-.03l.003-.02-.039.023q-.04.023-.084.023-.028 0-.056-.02-.04-.03-.04-.082 0-.066.051-.121.06-.066.158-.066h.018l.015.001.018.003.032-.196q0-.019.03-.022.012 0 .02.01.005.007.005.015zm-.098.25q-.004-.005-.051-.005-.068 0-.109.047-.033.038-.033.089 0 .022.016.032.012.009.026.009.032 0 .078-.024.03-.015.053-.034zm.812.037q0 .1-.083.153-.059.036-.121.036-.03 0-.03-.026 0-.03.027-.03.042 0 .087-.025.065-.035.065-.1 0-.049-.045-.049-.038 0-.082.024l-.045.024-.027.162q-.004.023-.031.023-.01 0-.018-.01-.006-.008-.006-.02l.077-.457q.005-.018.03-.022.01 0 .017.007.007.008.007.026l-.037.221.04-.016q.04-.016.085-.016.033 0 .057.018.033.025.033.077zm.161-.289-.079.46q-.003.023-.032.023-.009 0-.016-.008-.004-.006-.006-.019l.077-.459q.003-.02.028-.02.012 0 .019.006.007.005.009.017zm.337.22q-.043.133-.043.238 0 .023-.027.026-.013 0-.022-.01-.007-.01-.007-.022-.026.03-.091.03-.045 0-.081-.03-.043-.037-.043-.094 0-.072.056-.118.053-.045.126-.045.036 0 .047.009.007.005.007.02 0 .01-.006.019-.007.007-.026.007-.056 0-.097.024-.05.03-.05.082 0 .039.026.057.017.012.042.012.05 0 .091-.033.023-.125.04-.166.012-.03.032-.03.024 0 .026.024zm.315.006q0 .013-.008.02-.008.01-.02.01l-.025-.009q-.024-.006-.045-.006-.06 0-.105.047-.04.042-.04.087 0 .022.015.036.014.014.04.014.037 0 .065-.014l.062-.031q.027 0 .027.027 0 .028-.063.053-.055.021-.089.021-.047 0-.08-.028-.032-.03-.032-.077 0-.07.051-.126.059-.064.152-.064.037 0 .065.013.03.013.03.027zm.299.232q0 .01-.01.02t-.02.01q-.003 0-.08-.091l-.088-.105-.028.169q0 .02-.029.023-.011 0-.018-.007-.008-.007-.008-.02l.077-.46q.001-.01.008-.015.006-.005.02-.005.009 0 .017.008.01.008.01.017l-.038.223q.042-.02.115-.058.02-.01.033-.012.01 0 .017.01.008.01.008.02 0 .033-.133.082l.046.048.048.059q.053.068.053.084zm.087-.252q0 .014-.01.024t-.023.01q-.033 0-.033-.034 0-.032.032-.032.034 0 .034.032zm-.014.243q0 .022-.023.049t-.037.026l-.008-.004q0-.007.005-.02.005-.01.005-.019l-.007-.018-.004-.02q0-.014.012-.022.01-.007.024-.007.033.004.033.035zM4.208 7.335q0 .013-.008.02-.008.009-.02.009l-.025-.008q-.024-.006-.045-.006-.06 0-.105.046-.04.042-.04.087 0 .022.014.037.015.014.04.014.038 0 .066-.015l.062-.03q.027 0 .027.026 0 .028-.063.054-.055.02-.089.02-.047 0-.08-.028t-.032-.076q0-.07.05-.127.06-.063.153-.063.037 0 .065.013.03.012.03.027zm.312.083q0 .072-.047.12t-.126.049q-.06 0-.093-.041-.028-.036-.028-.094 0-.059.044-.103.05-.051.128-.051.06 0 .093.04.03.034.03.08zm-.053.01q0-.03-.017-.051-.02-.026-.063-.026-.044 0-.076.033-.028.029-.028.065 0 .082.075.082.045 0 .077-.031t.032-.072zm.213-.318-.078.458q-.003.023-.032.023-.009 0-.016-.007-.004-.006-.006-.019l.077-.459q.003-.02.028-.02.012 0 .019.005.007.006.009.018zm.313.308q0 .072-.047.12t-.126.049q-.06 0-.093-.041Q4.7 7.51 4.7 7.452q0-.059.044-.103.05-.051.128-.051.06 0 .093.04.03.034.03.08zm-.053.01q0-.03-.017-.051-.02-.026-.063-.026-.044 0-.076.033-.028.029-.028.065 0 .082.075.082.045 0 .077-.031t.032-.072zm.375-.101q0 .022-.014.028-.01.005-.03.005-.071 0-.133.05-.047.038-.057.069l-.014.092q-.003.02-.029.02-.024 0-.028-.026l.04-.238q.004-.025.027-.025.027 0 .027.03l-.007.043q.043-.04.08-.052.048-.017.108-.017.03 0 .03.021zm.087-.012q0 .014-.01.024-.009.01-.022.01-.034 0-.034-.034 0-.033.032-.033.034 0 .034.033zm-.02.24q0 .015-.01.025-.008.01-.023.01-.033 0-.033-.034 0-.016.01-.024.01-.01.023-.01.033 0 .033.034zm.962-.224q-.074.124-.133.197-.05.063-.071.063-.029 0-.06-.174-.03.038-.084.097-.07.076-.09.076-.018 0-.05-.11-.03-.11-.03-.16 0-.028.027-.028.026 0 .033.06.012.096.04.153.062-.056.103-.112.047-.067.065-.067.023 0 .041.076l.02.1.021-.024q.022-.024.054-.07.044-.061.07-.109zm.321.07q0 .053-.01.108-.016.082-.049.082-.027 0-.027-.026l.02-.08q.009-.037.009-.075 0-.031-.004-.04-.002-.01-.015-.01-.023 0-.087.043-.066.042-.069.063l-.017.104q-.004.021-.03.021-.011 0-.017-.009-.006-.008-.008-.022l.077-.454q.001-.01.008-.015.007-.005.02-.007.012 0 .019.009.007.007.007.02l-.043.26q.057-.039.087-.053.04-.02.077-.02.026 0 .04.039.012.03.012.062zm.155-.179q0 .025-.022.033-.006.002-.015.002-.015 0-.025-.009t-.01-.026q0-.036.035-.036.015 0 .027.009.01.01.01.027zm-.028.105q0 .014-.005.045l-.032.198q0 .01-.01.016-.01.007-.02.007-.022 0-.025-.026l.005-.038.034-.203q.004-.022.028-.022.025 0 .025.023zm.322-.007q0 .011-.007.018-.008.009-.02.01l-.082.007-.035.213q-.004.02-.031.023-.025 0-.025-.024l.034-.207-.073.007q-.01 0-.018-.009-.007-.006-.009-.017 0-.014.006-.02.007-.008.019-.01l.085-.005.017-.116q.004-.022.028-.022.009 0 .018.007.008.009.008.021l-.016.103.074-.006q.009 0 .017.006.008.007.01.02zm.314.202q0 .029-.072.052-.059.019-.097.019-.122 0-.122-.106 0-.069.047-.125.053-.064.13-.064.05 0 .08.02t.03.046q0 .046-.091.094-.077.04-.105.04-.022 0-.022-.027 0-.009.082-.042.082-.034.082-.057 0-.009-.012-.017-.014-.005-.044-.005-.058 0-.092.041-.031.038-.031.094 0 .027.015.042t.05.015q.039 0 .072-.016l.075-.035q.025 0 .025.031zm.087-.207q0 .014-.01.024t-.022.01q-.034 0-.034-.034 0-.033.032-.033.034 0 .034.033zm-.014.242q0 .023-.022.05t-.037.026q-.007-.002-.008-.004 0-.007.004-.02.005-.011.005-.02l-.007-.018-.004-.02q0-.013.013-.02.01-.009.024-.009.032.004.032.035zM4.219 9.35q0 .1-.083.152-.06.036-.122.036-.03 0-.03-.026 0-.03.027-.03.043 0 .088-.025.065-.035.065-.1 0-.048-.046-.048-.038 0-.082.023l-.045.024-.026.162q-.004.024-.031.024-.011 0-.018-.01-.006-.01-.006-.02l.076-.457q.005-.02.03-.022.01 0 .018.007.007.008.007.025l-.037.222.04-.017q.039-.016.085-.016.032 0 .056.018.034.026.034.078zm.337-.07q-.044.133-.044.238 0 .024-.026.027-.013 0-.022-.01-.008-.01-.008-.023-.025.031-.09.031-.045 0-.081-.03-.043-.037-.043-.095 0-.071.056-.118.053-.044.126-.044.035 0 .046.008.008.006.008.02 0 .01-.006.02-.007.006-.026.006-.056 0-.098.024-.05.03-.05.083 0 .038.026.056.018.013.043.013.049 0 .09-.034.023-.125.04-.166.013-.03.032-.03.025 0 .027.025zm.315.007q0 .012-.008.02-.007.009-.02.009l-.025-.008q-.024-.006-.045-.006-.06 0-.105.046-.04.042-.04.087 0 .022.015.037.015.014.04.014.037 0 .065-.015l.063-.031q.026 0 .026.027 0 .028-.063.054-.054.02-.088.02-.048 0-.08-.028-.033-.029-.033-.076 0-.071.051-.127.06-.064.152-.064.037 0 .066.014.03.012.03.027zm.299.231q0 .01-.01.02t-.02.01q-.004 0-.08-.091l-.089-.104-.028.168q0 .02-.028.024-.012 0-.019-.008-.008-.007-.008-.02l.077-.46q.002-.01.009-.015.005-.005.02-.005.008 0 .017.008.01.008.01.017l-.039.223q.043-.02.115-.057.02-.01.034-.013.009 0 .017.01.008.01.008.02 0 .033-.133.082l.046.048.048.06q.052.067.052.083zm.335-.234-.057.352q-.01.06-.055.094-.043.031-.105.031-.048 0-.085-.03-.032-.028-.032-.052 0-.023.025-.026.015 0 .03.017.035.037.062.037.032 0 .059-.015.038-.02.046-.069l.022-.132-.037.022q-.045.022-.087.022-.04 0-.069-.028-.028-.03-.028-.078 0-.058.048-.112.055-.061.136-.061.03 0 .04.006.01.007.01.022 0 .02-.012.025-.006.003-.03.003-.061 0-.102.04-.035.034-.035.077 0 .047.042.047.066 0 .136-.064l.024-.138q.004-.024.026-.024.015 0 .022.007.006.007.006.027zm.322-.005q0 .022-.014.028-.01.005-.03.005-.071 0-.134.05-.046.037-.056.068l-.014.093q-.003.02-.029.02-.024 0-.028-.026l.04-.238q.004-.025.027-.025.027 0 .027.03l-.007.043q.043-.04.08-.053.047-.017.108-.017.03 0 .03.022zm.312.091q0 .072-.047.12-.046.048-.126.048-.06 0-.093-.04-.028-.036-.028-.094 0-.059.044-.103.05-.051.128-.051.059 0 .093.04.029.033.029.08zm-.053.01q0-.03-.017-.051-.021-.026-.063-.026-.044 0-.076.033-.028.028-.028.065 0 .082.075.082.045 0 .076-.032.033-.03.033-.072zm.376-.11-.027.107q-.012.044-.012.075v.016l.002.02.003.029q0 .028-.028.028-.021 0-.028-.02l-.006-.038q-.014.015-.052.033-.036.017-.067.017-.045 0-.069-.036-.02-.032-.02-.078 0-.052.023-.117.023-.063.046-.063.011 0 .02.009.008.007.008.022-.014.038-.028.084t-.014.07q0 .023.01.039.012.014.027.014.028 0 .068-.026.035-.021.054-.042l.036-.15q0-.017.024-.017.014 0 .022.005.008.005.008.019zm.323.089q0 .038-.01.08l-.01.04q-.007.027-.014.043-.01.021-.023.021-.031 0-.031-.028.013-.045.02-.081.01-.048.01-.083 0-.04-.019-.04-.022 0-.087.044-.067.044-.07.063l-.017.103q-.004.022-.028.022-.027 0-.027-.026l.041-.249q.003-.022.03-.022.01 0 .018.01.007.006.007.015v.003l-.008.052q.098-.075.165-.075.02 0 .036.03.017.028.017.078zm.369-.297-.077.464q-.003.019-.03.019-.024 0-.024-.03l.003-.02-.039.022q-.04.023-.085.023-.028 0-.056-.02-.04-.029-.04-.082 0-.066.052-.12.06-.067.158-.067h.018l.014.002.018.003.033-.197q0-.018.03-.022.012 0 .02.01.005.008.005.015zm-.097.25q-.005-.005-.051-.005-.069 0-.109.047-.033.038-.033.089 0 .022.016.033.012.008.026.008.031 0 .077-.023.03-.016.054-.035zm.185-.045q0 .014-.01.024-.01.009-.023.009-.033 0-.033-.033t.032-.033q.034 0 .034.033zm-.021.24q0 .014-.01.024-.008.01-.023.01-.032 0-.032-.034 0-.015.01-.024.01-.009.022-.009.033 0 .033.033zm.703-.236q0 .012-.007.019-.008.008-.02.01l-.082.007-.035.213q-.004.02-.03.023-.026 0-.026-.025l.034-.206-.073.007q-.009 0-.017-.009-.008-.006-.01-.017 0-.014.006-.021.007-.008.02-.009l.084-.006.017-.116q.004-.021.028-.021.01 0 .018.007.008.008.008.02l-.015.104.073-.006q.009 0 .018.006.007.007.009.02zm.321.008q0 .022-.013.028-.01.005-.03.005-.071 0-.134.05-.046.037-.056.068l-.014.093q-.003.02-.029.02-.024 0-.028-.026l.04-.238q.003-.025.027-.025.027 0 .027.03l-.007.043q.043-.04.08-.053.047-.017.108-.017.03 0 .03.022zm.338.001q-.044.133-.044.238 0 .024-.026.027-.014 0-.022-.01-.008-.01-.008-.023-.025.031-.09.031-.045 0-.081-.03-.043-.037-.043-.095 0-.071.056-.118.053-.044.126-.044.035 0 .046.008.008.006.008.02 0 .01-.006.02-.007.006-.026.006-.057 0-.098.024-.05.03-.05.083 0 .038.026.056.018.013.043.013.049 0 .09-.034.023-.125.04-.166.013-.03.032-.03.025 0 .027.025zm.323.079q0 .038-.01.08l-.01.04q-.007.027-.014.043-.01.021-.024.021-.03 0-.03-.028l.02-.081q.01-.048.01-.083 0-.04-.02-.04-.022 0-.087.044-.066.044-.069.063l-.017.103q-.004.022-.029.022-.026 0-.026-.026l.04-.249q.004-.022.031-.022.01 0 .018.01.006.006.006.015v.003l-.007.052q.097-.075.165-.075.02 0 .036.03.017.028.017.078zm.246-.074q0 .013-.007.023-.009.01-.02.01-.006 0-.036-.011-.03-.012-.05-.012-.035 0-.038.022 0 .018.038.035l.071.033q.038.024.038.06 0 .055-.037.08-.027.018-.066.018-.063 0-.09-.01-.026-.01-.026-.027 0-.027.023-.032l.042.012q.016.004.04.004.057 0 .057-.038 0-.018-.037-.037l-.07-.036q-.038-.025-.038-.059 0-.038.034-.058.028-.016.07-.016.027 0 .059.009.043.01.043.03zm.336.065q0 .067-.07.125-.066.054-.135.054-.008 0-.015-.008-.008-.008-.008-.018 0-.028.023-.028.058 0 .106-.048.043-.042.043-.084 0-.043-.034-.043-.025 0-.079.02-.059.023-.062.042l-.065.388q-.004.02-.034.02-.01 0-.017-.01-.006-.01-.006-.022l.08-.468q.005-.02.01-.026.008-.007.024-.007.025 0 .023.02l-.001.026q.061-.037.116-.037.037 0 .062.017.039.025.039.087zm.337-.07q-.044.133-.044.238 0 .024-.026.027-.013 0-.022-.01-.008-.01-.008-.023-.025.031-.09.031-.045 0-.081-.03-.043-.037-.043-.095 0-.071.056-.118.053-.044.126-.044.035 0 .046.008.008.006.008.02 0 .01-.006.02-.007.006-.026.006-.057 0-.098.024-.05.03-.05.083 0 .038.026.056.018.013.043.013.049 0 .09-.034.023-.125.04-.166.013-.03.032-.03.025 0 .027.025zm.321-.001q0 .022-.014.028-.01.005-.03.005-.071 0-.133.05-.047.037-.057.068l-.014.093q-.003.02-.029.02-.024 0-.028-.026l.04-.238q.004-.025.027-.025.027 0 .027.03l-.007.043q.043-.04.08-.053.048-.017.108-.017.03 0 .03.022zm.314.195q0 .029-.071.052-.06.019-.098.019-.122 0-.122-.107 0-.068.047-.124.053-.064.13-.064.05 0 .08.02t.03.046q0 .046-.09.094-.078.04-.106.04-.021 0-.021-.027 0-.009.081-.042.083-.034.083-.057 0-.01-.013-.017-.014-.005-.043-.005-.059 0-.093.04-.03.039-.03.095 0 .027.015.042.015.014.05.014.038 0 .072-.015l.074-.035q.025 0 .025.031zm.323-.115q0 .038-.01.08l-.01.04q-.007.027-.014.043-.01.021-.023.021-.032 0-.032-.028.014-.045.021-.081.01-.048.01-.083 0-.04-.019-.04-.022 0-.088.044t-.069.063l-.017.103q-.004.022-.029.022-.026 0-.026-.026l.041-.249q.003-.022.03-.022.01 0 .018.01.006.006.006.015v.003l-.007.052q.098-.075.165-.075.02 0 .036.03.017.028.017.078zm.294-.088q0 .012-.007.019-.008.008-.02.01l-.082.007-.035.213q-.004.02-.03.023-.026 0-.026-.025l.035-.206-.073.007q-.01 0-.018-.009-.008-.006-.01-.017 0-.014.007-.021.007-.008.018-.009l.085-.006.017-.116q.004-.021.028-.021.01 0 .019.007.007.008.007.02l-.015.104.074-.006q.008 0 .017.006.007.007.009.02zm.088-.004q0 .014-.01.024-.01.009-.023.009-.033 0-.033-.033t.032-.033q.034 0 .034.033zm-.014.242q0 .022-.023.049t-.037.026q-.006-.001-.008-.004 0-.007.005-.019t.005-.02l-.007-.018q-.003-.006-.004-.02 0-.013.012-.021.01-.008.024-.008.033.004.033.035zm-7.799 1.77q-.037.01-.048.029-.012.018-.012.062v.125q0 .07-.026.092-.025.024-.095.024.065-.014.065-.096v-.13q0-.046.012-.07.011-.024.05-.036-.038-.009-.051-.036-.01-.02-.01-.063v-.136q0-.042-.014-.063-.013-.021-.052-.033.068 0 .092.019.029.021.029.088v.137q0 .036.012.056t.048.031z" fill="#666" aria-label="editor { border: 1px solid black; color: white; background: transparent; }"/><g stroke-linecap="round" stroke-linejoin="round"><g stroke="#07080a"><path d="M15.667.712c-.102-.004-.184.026-.22.089l-.434.75a1.114 1.114 0 0 0-.198-.032l-.275-.088c-.031-.01-.065-.006-.081.023L11.21 7.079c-.016.028-.01.071.022.081l.043.014-2.944 5.1c0-.002.004-.003.005-.005-.005.008-.012.013-.016.023L7.15 15.7s0 .02.034.033h-.001l-.256.443a.073.073 0 0 0 .026.1l.003.001-.193.334a.049.049 0 0 0 .018.066l.146.084a.049.049 0 0 0 .066-.018l.196-.34c.03.01.065.001.082-.028l.256-.443v-.01l.005.005c.031.015.043.007.043.007l2.356-2.727c.003-.003.002-.007.005-.01v.003L16.08 2.555c.07-.122-.015-.313-.2-.502l.433-.752c.041-.071.012-.17-.06-.267a.632.632 0 0 0-.107-.115.91.91 0 0 0-.119-.085c-.006-.004-.01-.009-.016-.012-.006-.004-.012-.005-.017-.008a.912.912 0 0 0-.2-.079.626.626 0 0 0-.09-.017c-.012 0-.026-.006-.038-.006z" opacity=".03" stroke-width=".794"/><path d="M15.667.712c-.102-.004-.184.026-.22.089l-.434.75a1.114 1.114 0 0 0-.198-.032l-.275-.088c-.031-.01-.065-.006-.081.023L11.21 7.079c-.016.028-.01.071.022.081l.043.014-2.944 5.1c0-.002.004-.003.005-.005-.005.008-.012.013-.016.023L7.15 15.7s0 .02.034.033h-.001l-.256.443a.073.073 0 0 0 .026.1l.003.001-.193.334a.049.049 0 0 0 .018.066l.146.084a.049.049 0 0 0 .066-.018l.196-.34c.03.01.065.001.082-.028l.256-.443v-.01l.005.005c.031.015.043.007.043.007l2.356-2.727c.003-.003.002-.007.005-.01v.003L16.08 2.555c.07-.122-.015-.313-.2-.502l.433-.752c.041-.071.012-.17-.06-.267a.632.632 0 0 0-.107-.115.91.91 0 0 0-.119-.085c-.006-.004-.01-.009-.016-.012-.006-.004-.012-.005-.017-.008a.912.912 0 0 0-.2-.079.626.626 0 0 0-.09-.017c-.012 0-.026-.006-.038-.006z" opacity=".05" stroke-width=".529"/><path d="M15.667.712c-.102-.004-.184.026-.22.089l-.434.75a1.114 1.114 0 0 0-.198-.032l-.275-.088c-.031-.01-.065-.006-.081.023L11.21 7.079c-.016.028-.01.071.022.081l.043.014-2.944 5.1c0-.002.004-.003.005-.005-.005.008-.012.013-.016.023L7.15 15.7s0 .02.034.033h-.001l-.256.443a.073.073 0 0 0 .026.1l.003.001-.193.334a.049.049 0 0 0 .018.066l.146.084a.049.049 0 0 0 .066-.018l.196-.34c.03.01.065.001.082-.028l.256-.443v-.01l.005.005c.031.015.043.007.043.007l2.356-2.727c.003-.003.002-.007.005-.01v.003L16.08 2.555c.07-.122-.015-.313-.2-.502l.433-.752c.041-.071.012-.17-.06-.267a.632.632 0 0 0-.107-.115.91.91 0 0 0-.119-.085c-.006-.004-.01-.009-.016-.012-.006-.004-.012-.005-.017-.008a.912.912 0 0 0-.2-.079.626.626 0 0 0-.09-.017c-.012 0-.026-.006-.038-.006z" opacity=".1" stroke-width=".265"/></g><path d="M15.667.712c-.102-.004-.184.026-.22.089l-.434.75a1.114 1.114 0 0 0-.198-.032l-.275-.088c-.031-.01-.065-.006-.081.023L11.21 7.079c-.016.028-.01.071.022.081l.043.014-2.944 5.1c0-.002.004-.003.005-.005-.005.008-.012.013-.016.023L7.15 15.7s0 .02.034.033h-.001l-.256.443a.073.073 0 0 0 .026.1l.003.001-.193.334a.049.049 0 0 0 .018.066l.146.084a.049.049 0 0 0 .066-.018l.196-.34c.03.01.065.001.082-.028l.256-.443v-.01l.005.005c.031.015.043.007.043.007l2.356-2.727c.003-.003.002-.007.005-.01v.003L16.08 2.555c.07-.122-.015-.313-.2-.502l.433-.752c.041-.071.012-.17-.06-.267a.632.632 0 0 0-.107-.115.91.91 0 0 0-.119-.085c-.006-.004-.01-.009-.016-.012-.006-.004-.012-.005-.017-.008a.912.912 0 0 0-.2-.079.626.626 0 0 0-.09-.017c-.012 0-.026-.006-.038-.006z" opacity=".15"/><path d="M15.535.712c-.102-.004-.184.026-.22.089l-.434.75a1.114 1.114 0 0 0-.198-.032l-.275-.088c-.031-.01-.065-.006-.081.023l-3.248 5.625c-.016.028-.01.071.022.081l.043.014-2.944 5.1c0-.002.004-.003.005-.005-.005.008-.012.013-.016.023L7.018 15.7s0 .02.034.033h-.001l-.256.443a.073.073 0 0 0 .026.1l.003.001-.193.334a.049.049 0 0 0 .018.066l.146.084a.049.049 0 0 0 .066-.018l.196-.34c.03.01.065.001.082-.028l.256-.443v-.01l.005.005c.031.015.043.007.043.007L9.8 13.207c.003-.003.002-.007.005-.01v.003L15.95 2.555c.07-.122-.015-.313-.2-.502l.433-.752c.041-.071.012-.17-.06-.267a.632.632 0 0 0-.107-.115.91.91 0 0 0-.119-.085c-.006-.004-.01-.009-.016-.012-.006-.004-.012-.005-.017-.008a.912.912 0 0 0-.2-.079.626.626 0 0 0-.09-.017c-.012 0-.026-.006-.038-.006z" opacity=".25"/></g><g transform="rotate(-60 17.022 22.198)" stroke-linecap="round" stroke-linejoin="round" stroke-opacity=".35"><rect x="16.643" y="10.319" width=".656" height=".265" rx="0" ry=".048" fill="url(#b)"/><rect x="17.077" y="10.243" width=".656" height=".397" rx="0" ry=".072" fill="url(#c)"/><path d="M33.137 9.933c.147 0 .265.223.265.5s-.118.501-.265.501h1.587c.147 0 .265-.223.265-.5 0-.278-.118-.501-.264-.501z" fill="url(#d)"/><path d="M33.72 9.933c.147 0 .185.223.185.5s-.038.501-.185.501h.132c.146 0 .185-.223.185-.5 0-.278-.039-.501-.185-.501z" fill="#212020"/><path d="M21.231 9.508c.147 0 .265.413.265.926 0 .513-.118.926-.265.926h12.292c.221 0 .398-.413.398-.926 0-.513-.177-.926-.398-.926z" fill="url(#e)"/><path d="m21.572 9.508.057.212-.11.41-.155-.58-.046.013c.062.075.11.231.14.428.006.033.013.06.017.095.017.093.029.191.031.297l.013-.049.11.409-.11.408-.065-.246c-.008.042-.015.083-.024.12l.062.229-.029.106h.055l.001-.004.001.004h.055l-.028-.107.11-.408.109.408-.029.107h.055l.001-.004.001.004h.055l-.029-.107.11-.408.11.408-.029.107h.055v-.004l.002.004h.055l-.029-.107.11-.408.11.41-.029.105h.055l.001-.003.001.003h.055l-.028-.106.11-.409.108.408-.028.107h.055v-.005l.002.005h.054l-.028-.107.11-.408.11.41-.029.105h.055v-.003l.002.003h.055l-.029-.106.11-.409.11.409-.03.106h.056v-.004l.002.004h.055l-.029-.107.11-.408.11.409-.03.106h.056v-.004l.002.004h.054l-.028-.106.11-.41.109.41-.028.106h.054l.001-.004.001.004h.055l-.028-.106.11-.409.109.409-.029.106h.055l.001-.004.001.004h.055l-.028-.107.11-.408.109.409-.029.106h.055l.001-.004.001.004h.055l-.029-.106.11-.409.11.409-.029.106h.055v-.004l.002.004h.055l-.029-.107.11-.408.11.409-.03.106h.056v-.004l.002.004h.054l-.028-.106.11-.41.11.41-.03.106h.055l.001-.004.001.004h.055l-.028-.106.11-.41.109.41-.029.106h.056v-.003l.002.003h.054l-.028-.105.11-.41.109.408-.029.107h.055l.001-.005.001.005h.055l-.029-.107.11-.409.11.41-.029.106h.055v-.004l.002.004h.055l-.029-.106.11-.41.11.41-.03.106h.056v-.004l.002.004h.037c.006 0 .01-.003.016-.004l-.027-.103.11-.408.102.385c.103-.14.175-.381.192-.667l-.02.077-.11-.41.075-.281a1.283 1.283 0 0 0-.029-.094l-.073.274-.11-.408.036-.133c-.014-.015-.03-.025-.046-.036l-.017.066-.025-.093a.187.187 0 0 0-.059-.014l.056.21-.11.408-.109-.41.057-.211h-.055l-.03.11-.029-.11h-.054l.056.212-.11.409-.108-.408.057-.213h-.056l-.03.11-.029-.11h-.054l.057.212-.11.41-.11-.41.057-.212h-.055l-.029.11-.03-.11h-.054l.057.212-.11.408-.11-.408.057-.212h-.054l-.03.11-.03-.11h-.054l.057.212-.11.41-.11-.41.057-.212h-.054l-.03.11-.03-.11h-.054l.057.212-.11.409-.11-.409.058-.212h-.055l-.03.11-.03-.11h-.054l.057.212-.11.41-.11-.41.058-.212h-.055l-.03.11-.029-.11h-.055l.057.213-.11.408-.109-.409.057-.212h-.055l-.03.11-.029-.11h-.055l.057.212-.11.41-.109-.41.057-.212h-.055l-.03.11-.029-.11h-.055l.057.213-.11.408-.109-.409.057-.212h-.055l-.03.11-.029-.11h-.054l.056.212-.11.41-.109-.41.057-.212h-.055l-.03.11-.029-.11h-.054l.057.213-.11.409-.11-.41.057-.212h-.055l-.029.11-.03-.11h-.054l.057.212-.11.41-.11-.41.057-.212h-.054l-.03.11-.03-.11h-.054l.058.213-.11.409-.11-.409.058-.213h-.056l-.03.11-.029-.11h-.054l.056.213-.11.408-.109-.409.057-.212h-.055l-.029.11-.03-.11h-.054l.057.212-.11.409-.11-.408.057-.213h-.054l-.03.11-.03-.11h-.054l.057.213-.11.408-.11-.409.057-.212h-.054l-.03.11-.03-.11zm3.645.314.11.409-.11.409-.11-.409zm.274 0 .11.41-.11.408-.11-.41zm.548 0 .11.41-.11.408-.11-.41zm-4.383 0 .11.41-.11.409-.11-.41zm.548 0 .11.41-.11.408-.11-.409zm.548 0 .11.41-.11.409-.11-.409zm.274 0 .11.41-.11.409-.11-.41zm.548 0 .11.41-.11.409-.11-.41zm.274 0 .11.41-.11.409-.11-.41zm.274 0 .11.41-.11.409-.11-.41zm.274 0 .11.41-.11.409-.11-.41zm.273 0 .11.41-.11.409-.11-.41zm.274 0 .11.41-.11.409-.11-.41zm-3.013.001.11.408-.11.409-.11-.409zm1.37 0 .11.409-.11.409-.11-.409zm2.465 0 .11.408-.11.41-.11-.408zm.548 0 .11.408-.11.409-.11-.408zm-3.835 0 .11.41-.11.408-.11-.41zm2.876.51.11.41-.11.409-.11-.41zm.548 0 .11.41-.11.409-.11-.41zm.548 0 .11.41-.11.408-.11-.409zm-4.657 0 .11.41-.11.408-.11-.408zm.274 0 .11.41-.11.408-.11-.409zm.274 0 .11.41-.11.41-.11-.41zm.548 0 .11.41-.11.41-.11-.41zm.548 0 .11.41-.11.41-.11-.41zm.274 0 .11.41-.11.409-.11-.41zm.548 0 .11.41-.11.409-.11-.41zm.273 0 .11.41-.11.408-.11-.409zm.274 0 .11.41-.11.409-.11-.41zm.274 0 .11.41-.11.409-.11-.41zm-1.917.001.11.409-.11.409-.11-.41zm.822 0 .11.409-.11.409-.11-.41zm1.643 0 .11.408-.11.41-.11-.41zm.548 0 .11.408-.11.41-.11-.41zm-3.56 0 .108.409-.11.408-.108-.408zm-1.37 1.02c-.005.002-.01.006-.015.006h.013z" fill="url(#f)" opacity=".75"/><g fill="#212020"><path d="M31.562 9.508c.221 0 .399.413.399.926 0 .513-.178.926-.399.926h.118c.22 0 .399-.413.399-.926 0-.513-.178-.926-.4-.926zm3.288.487c.04.084.099.242.099.435s-.06.359-.099.443c.08-.082.133-.237.137-.42v-.039c-.004-.182-.057-.337-.137-.419z"/><path d="m27.116 9.454 6.431.214c.033.002.273.187.26.217l-.112.244c-.014.03-.026.06-.06.06H27.14c-.033 0-.052-.028-.06-.06l-.088-.401c-.007-.032.091-.274.124-.274z"/></g><path d="M27.171 9.404h6.495c.033 0 .053.027.06.06l.088.4c.007.032-.026.06-.06.06H27.26c-.033 0-.052-.028-.06-.06l-.088-.4c-.007-.033.027-.06.06-.06z" fill="#374550"/><path d="M27.147 9.413c-.022.01-.041.027-.036.05l.088.4c.007.033.027.06.06.06h6.495c.033 0 .067-.027.06-.06l-.005-.02c-.008.004-.015.01-.023.01H27.29c-.033 0-.052-.027-.06-.06z" fill="#565e64"/><g stroke-width=".104"><path d="M17.674 10.198s-.018.01-.011.047c.037.045.052.148.053.19s-.013.148-.048.208c.003.034.016.04.016.04l3.54.677c.216.042.287-.413.287-.926 0-.513-.083-.968-.3-.926z" fill="url(#g)"/><path d="M17.792 10.301s-.03 0-.027.081c.001.082.027.087.027.087l3.37.029c.221.002.23-.356.23-.5 0-.213-.15-.389-.229-.373z" fill="#374550"/><path d="M17.792 10.301s-.03 0-.027.081c.001.082.027.087.027.087l3.322-.123c.22-.008.201-.205.201-.35 0-.213-.093-.296-.173-.282z" fill="#565e64"/><path d="M17.792 10.319s-.03-.018-.027.064c.001.082.027.068.027.068l3.356-.243c.084-.006.12-.068.12-.213 0-.213-.077-.205-.144-.195z" fill="#fff"/></g><path d="M17.41 10.353c0 .013-.122.024-.2.024-.078 0-.081-.01-.081-.024s.003-.024.081-.024.2.01.2.024z" fill="#fff"/><path d="M16.983 10.412c0 .013-.122.024-.2.024-.078 0-.081-.01-.081-.024s.003-.024.081-.024.2.01.2.024z" fill="#374550"/><path d="M26.174 9.508c.221 0 .399.413.399.926 0 .513-.178.926-.399.926h.118c.22 0 .399-.413.399-.926 0-.513-.178-.926-.4-.926zm-3.326 0c.221 0 .399.413.399.926 0 .513-.178.926-.399.926h.118c.22 0 .399-.413.399-.926 0-.513-.178-.926-.4-.926zm-.614 0c.221 0 .399.413.399.926 0 .513-.178.926-.399.926h.118c.22 0 .399-.413.399-.926 0-.513-.178-.926-.4-.926z" opacity=".75" fill="#212020"/></g><g fill="#666" stroke-width=".048" aria-label="Vince"><path d="M11.651 13.695q.048-.047.122-.11.074-.067.153-.13.08-.066.158-.12.077-.057.135-.084.026-.012.06-.022.035-.011.074-.017l.025-.004q.026-.004.031-.013.008-.01.008-.02 0-.02-.029-.02-.035 0-.093.028t-.128.072q-.068.044-.144.1l-.145.115q-.07.056-.13.11t-.1.096l-.187.184q-.066.066-.138.134-.072.066-.137.12-.066.052-.123.087-.054.033-.085.033-.01 0-.017-.004-.008-.004-.008-.017 0-.027.042-.08.045-.052.109-.12.066-.068.142-.15.075-.083.14-.172.065-.091.108-.184.045-.095.045-.186 0-.163-.105-.254-.105-.094-.283-.094-.119 0-.239.043-.12.04-.22.11-.096.069-.158.16-.062.089-.062.186 0 .056.02.099t.05.072q.03.027.07.042.04.014.08.014.07 0 .137-.025.066-.026.122-.064.058-.041.105-.088.048-.048.083-.09.035-.045.054-.08t.022-.047l-.016-.008-.081.097q-.024.027-.074.074-.05.047-.115.093-.062.047-.128.082-.065.033-.12.033-.037 0-.072-.012-.034-.012-.062-.037t-.044-.062q-.016-.039-.016-.091 0-.093.062-.18t.16-.156q.098-.068.217-.108t.23-.041q.076 0 .14.02.064.017.113.056t.075.098q.027.059.027.14 0 .101-.044.19t-.113.169q-.066.08-.143.151-.078.07-.146.134-.066.064-.11.124-.045.058-.045.113 0 .029.016.05.015.02.048.02.039 0 .097-.037.06-.04.122-.09.062-.052.119-.104l.093-.088zm.386.42-.062.04-.068.041q-.033.018-.062.031-.027.012-.04.012-.018 0-.032-.01-.011-.01-.011-.025 0-.02.025-.05.027-.031.06-.064l.16-.161.022-.023q.008-.008.008-.016 0-.01-.014-.012-.013-.004-.023-.004-.015 0-.027.01l-.033.027-.132.115-.169.114.01.008.115-.078.003.004q-.019.022-.04.057-.02.034-.02.064t.026.048q.025.016.054.016.015 0 .043-.01.029-.012.062-.03.035-.017.073-.04.04-.025.078-.054zm.23-.456q0-.015-.01-.025-.01-.012-.026-.012t-.027.012q-.01.01-.01.025 0 .016.01.027.011.01.027.01t.025-.01q.012-.011.012-.027z"/><path d="m12.719 14.115-.04.027-.07.045q-.037.021-.074.039-.035.017-.055.017-.044 0-.044-.033 0-.008.01-.023.011-.018.029-.037.017-.021.038-.043l.045-.044q.045-.043.08-.086.034-.044.034-.077 0-.018-.011-.025-.01-.01-.023-.01-.012 0-.033.01-.022.007-.047.02l-.05.032q-.028.015-.05.03l-.082.057-.004-.004q.011-.011.029-.044.017-.033.017-.066 0-.016-.011-.026-.01-.01-.026-.01-.015 0-.042.02l-.053.037-.15.122q-.063.049-.139.097l.01.008.047-.031q.029-.02.058-.043l.06-.046.052-.041q.05-.04.092-.068.042-.029.048-.029.008 0 .008.01 0 .021-.022.05-.02.027-.042.049l-.117.124q-.011.013-.029.03l-.035.032-.027.029q-.01.014-.01.02 0 .01.01.015.012.004.02.004.021 0 .03-.006.012-.006.038-.033l.147-.15.068-.052q.039-.029.077-.054.041-.027.072-.045.033-.017.049-.017.007 0 .007.012 0 .015-.034.046-.035.03-.078.074t-.08.087q-.034.04-.034.068 0 .039.027.058.029.018.068.018.017 0 .056-.018.039-.02.077-.043.041-.025.072-.046.033-.021.04-.027z"/><path d="m13.187 14.115-.056.037q-.031.021-.066.04-.033.02-.066.034-.033.011-.058.011-.035 0-.059-.013-.02-.016-.02-.059 0-.036.03-.085.033-.048.076-.093.044-.045.089-.076.047-.03.072-.03.01 0 .023.005.016.004.016.016 0 .01-.01.015l-.021.012q-.012.006-.022.015-.01.008-.01.024 0 .015.01.025.01.008.025.008.026 0 .045-.026.02-.027.02-.052 0-.033-.028-.045-.025-.013-.052-.013-.035 0-.076.017t-.081.045q-.04.025-.078.056-.037.031-.066.058l-.14.097.01.008.113-.076q-.004.02-.01.037-.006.018-.006.037 0 .056.035.086t.088.029q.03 0 .065-.012.035-.014.072-.033.037-.02.072-.043.037-.023.07-.046z"/><path d="M13.338 14.108q.017-.037.05-.074.033-.039.07-.07.037-.033.07-.052.035-.021.056-.021.018 0 .03.01.013.01.015.025 0 .037-.03.068-.028.03-.073.056-.043.023-.095.039-.05.015-.093.019zm.312.01q-.017.013-.048.033-.031.02-.066.038t-.07.031q-.035.014-.064.014-.035 0-.058-.014-.022-.015-.022-.054 0-.013.006-.037.07-.007.128-.029.06-.021.103-.05.045-.03.068-.062.025-.035.025-.064 0-.02-.02-.04-.017-.018-.052-.018t-.075.017q-.039.017-.08.045-.039.027-.075.06-.035.03-.064.058l-.14.097.01.008.112-.076q-.004.02-.01.035-.005.016-.005.035 0 .056.033.085.035.03.081.03.035 0 .078-.016t.083-.037q.04-.021.074-.043l.054-.037z"/></g></svg>