<svg width="64" height="64" version="1.1" xmlns="http://www.w3.org/2000/svg" xmlns:xlink="http://www.w3.org/1999/xlink">
 <defs>
  <linearGradient id="e" x1="31.537" x2="35.973" y1="27.6" y2="31" gradientUnits="userSpaceOnUse">
   <stop offset="0"/>
   <stop stop-opacity="0" offset="1"/>
  </linearGradient>
  <linearGradient id="b" x1="25.869" x2="24.539" y1="39.24" y2="10.624" gradientTransform="matrix(1.3028 0 0 1.3028 -2.5031 2.2272)" gradientUnits="userSpaceOnUse">
   <stop stop-color="#2980b9" offset="0"/>
   <stop stop-color="#1d99f3" offset="1"/>
  </linearGradient>
  <linearGradient id="d" x1="27.04" x2="24.839" y1="16.621" y2="17.991" gradientTransform="matrix(1.3028,0,0,1.3028,-2.503,2.2271)" gradientUnits="userSpaceOnUse">
   <stop stop-color="#fcfcfc" offset="0"/>
   <stop stop-color="#c7c7c7" offset="1"/>
  </linearGradient>
  <linearGradient id="g" x1="3.783" x2="19.574" y1="23.644" y2="22.495" gradientTransform="matrix(1.3028,0,0,1.3028,-2.503,2.2271)" gradientUnits="userSpaceOnUse">
   <stop stop-color="#2980b9" offset="0"/>
   <stop stop-color="#34495e" offset="1"/>
  </linearGradient>
  <linearGradient id="c" x1="29.507" x2="35.895" y1="28.849" y2="32.639" gradientUnits="userSpaceOnUse" xlink:href="#e"/>
  <filter id="h" x="-.023485" y="-.024538" width="1.047" height="1.0491" color-interpolation-filters="sRGB">
   <feGaussianBlur stdDeviation="0.29216796"/>
  </filter>
  <linearGradient id="i" x1="22.14" x2="28.818" y1="20.882" y2="26.073" gradientTransform="matrix(1.243,0,0,1.243,-14.385,10.144)" gradientUnits="userSpaceOnUse" xlink:href="#e"/>
  <linearGradient id="linearGradient862-3" x1="7.9373" x2="7.9373" y1="15.081" y2="1.852" gradientTransform="matrix(3.7795 0 0 3.7795 .00014309 .031541)" gradientUnits="userSpaceOnUse">
   <stop stop-color="#f1efeb" offset="0"/>
   <stop stop-color="#fdfcfc" offset="1"/>
  </linearGradient>
 </defs>
 <g transform="scale(3.7796)" shape-rendering="auto">
  <path d="m4.3693 0.52916c-2.1142 0-3.8402 1.7835-3.8402 3.9682v8.4675c0 2.1846 1.726 3.9682 3.8402 3.9682h8.1944c2.1142 0 3.8402-1.7835 3.8402-3.9682v-8.4675c0-2.1846-1.726-3.9682-3.8402-3.9682zm0.25704 0.52089h7.6808c1.8443 0 3.3291 1.5342 3.3291 3.44v7.9368c0 1.9058-1.4847 3.44-3.3291 3.44h-7.6808c-1.8443 0-3.3291-1.5342-3.3291-3.44v-7.9368c0-1.9058 1.4847-3.44 3.3291-3.44z" color="#000000" color-rendering="auto" dominant-baseline="auto" image-rendering="auto" opacity=".01" solid-color="#000000" stop-color="#000000" style="font-feature-settings:normal;font-variant-alternates:normal;font-variant-caps:normal;font-variant-east-asian:normal;font-variant-ligatures:normal;font-variant-numeric:normal;font-variant-position:normal;font-variation-settings:normal;inline-size:0;isolation:auto;mix-blend-mode:normal;shape-margin:0;shape-padding:0;text-decoration-color:#000000;text-decoration-line:none;text-decoration-style:solid;text-indent:0;text-orientation:mixed;text-transform:none;white-space:normal"/>
  <path d="m4.3587 0.79373c-1.9668 0-3.5639 1.6528-3.5639 3.6876v8.4996c0 2.0348 1.5971 3.6876 3.5639 3.6876h8.2162c1.9668 0 3.5644-1.6528 3.5644-3.6876v-8.4996c0-2.0348-1.5976-3.6876-3.5644-3.6876zm0.27222 0.25631h7.6718c1.8422 0 3.3251 1.5342 3.3251 3.44v7.9368c0 1.9058-1.483 3.44-3.3251 3.44h-7.6718c-1.8422 0-3.3251-1.5342-3.3251-3.44v-7.9368c0-1.9058 1.483-3.44 3.3251-3.44z" color="#000000" color-rendering="auto" dominant-baseline="auto" image-rendering="auto" opacity=".01" solid-color="#000000" stop-color="#000000" style="font-feature-settings:normal;font-variant-alternates:normal;font-variant-caps:normal;font-variant-east-asian:normal;font-variant-ligatures:normal;font-variant-numeric:normal;font-variant-position:normal;font-variation-settings:normal;inline-size:0;isolation:auto;mix-blend-mode:normal;shape-margin:0;shape-padding:0;text-decoration-color:#000000;text-decoration-line:none;text-decoration-style:solid;text-indent:0;text-orientation:mixed;text-transform:none;white-space:normal"/>
  <g>
   <path d="m4.3097 1.0583c-1.8657 0-3.3751 1.5383-3.3751 3.439v8.4675c0 1.9007 1.57 3.439 3.4357 3.439h8.1996c1.8657 0 3.4274-1.5383 3.4274-3.439v-8.4675c0-1.9007-1.51-3.439-3.3756-3.439h-0.09688c1.794 0.086515 3.2138 1.5819 3.2138 3.4318v7.9368c0 1.9058-1.5059 3.44-3.3766 3.44h-7.7905c-1.8707 0-3.3766-1.5342-3.3766-3.44v-7.9368c0-1.8498 1.4199-3.3451 3.2138-3.4318z" color="#000000" color-rendering="auto" dominant-baseline="auto" image-rendering="auto" opacity=".03" solid-color="#000000" stop-color="#000000" style="font-feature-settings:normal;font-variant-alternates:normal;font-variant-caps:normal;font-variant-east-asian:normal;font-variant-ligatures:normal;font-variant-numeric:normal;font-variant-position:normal;font-variation-settings:normal;inline-size:0;isolation:auto;mix-blend-mode:normal;shape-margin:0;shape-padding:0;text-decoration-color:#000000;text-decoration-line:none;text-decoration-style:solid;text-indent:0;text-orientation:mixed;text-transform:none;white-space:normal"/>
   <path transform="scale(.26458)" d="m4 46.969v2.0312c0 6.6479 5.8957 12 12.544 12h30.961c6.6479 0 12.495-5.3521 12.495-12v-1.9922c-0.021173 7.1849-5.81 12.963-13 12.963h-29.998c-7.2032 0-13.002-5.7987-13.002-13.002z" color="#000000" color-rendering="auto" dominant-baseline="auto" image-rendering="auto" opacity=".03" solid-color="#000000" stop-color="#000000" style="font-feature-settings:normal;font-variant-alternates:normal;font-variant-caps:normal;font-variant-east-asian:normal;font-variant-ligatures:normal;font-variant-numeric:normal;font-variant-position:normal;font-variation-settings:normal;inline-size:0;isolation:auto;mix-blend-mode:normal;shape-margin:0;shape-padding:0;text-decoration-color:#000000;text-decoration-line:none;text-decoration-style:solid;text-indent:0;text-orientation:mixed;text-transform:none;white-space:normal"/>
   <path d="m1.0583 11.906v0.59234c0 1.9386 1.5729 3.4993 3.3318 3.4993h8.1603c1.7589 0 3.3243-1.5608 3.3243-3.4993v-0.58095c-0.0056 2.0952-1.5372 3.7801-3.4395 3.7801h-7.9368c-1.9058 0-3.44-1.691-3.44-3.7915z" color="#000000" color-rendering="auto" dominant-baseline="auto" image-rendering="auto" opacity=".05" solid-color="#000000" stop-color="#000000" style="font-feature-settings:normal;font-variant-alternates:normal;font-variant-caps:normal;font-variant-east-asian:normal;font-variant-ligatures:normal;font-variant-numeric:normal;font-variant-position:normal;font-variation-settings:normal;inline-size:0;isolation:auto;mix-blend-mode:normal;shape-margin:0;shape-padding:0;text-decoration-color:#000000;text-decoration-line:none;text-decoration-style:solid;text-indent:0;text-orientation:mixed;text-transform:none;white-space:normal"/>
  </g>
 </g>
 <path d="m17.002 4c-7.2029 0-13.002 5.7991-13.002 13.002v24.211l1.6445-0.61328 1.0527-0.25c0.7247-0.20882 1.667-0.54169 2.6465-1.0625l-0.068359-0.74805s1.0774-0.06261 2.4434-0.99609c0.56309-0.59039 1.2422-1.2969 1.2422-1.2969l0.0059 2e-3s1.3025 0.77891 4.1875 1.2773c2.8862 0.49844 4.5137-0.0332 4.5137-0.0332l9.9433 9.9433-4.5254 12.564h19.912c7.2029 0 13.002-5.7991 13.002-13.002v-29.996c0-7.2029-5.7991-13.002-13.002-13.002z" fill="url(#linearGradient862-3)" stroke-width="3.7795"/>
 <g transform="matrix(1.3028 0 0 1.3028 -2.503 2.2271)" color="#000000" stroke-linejoin="round" stroke-width="2.3027">
  <path d="m40.01 13.424-26.867 24.652a18.5 18.5 0 0 0 11.357 3.9238 18.5 18.5 0 0 0 18.5-18.5 18.5 18.5 0 0 0-2.9902-10.076" fill="url(#c)" filter="url(#h)" opacity=".2" stroke-width="2.3027"/>
 </g>
 <g fill-rule="evenodd">
  <path d="m49.184 16.885c-0.12751 3.25e-4 -0.26164 0.007797-0.40234 0.029296-2.246 0.34524-7.3539 2.2459-8.9668 2.6484-1.6116 0.40256-2.3664 0.76446-4.9512 0.51953-2.9469-0.2788-4.2717-0.29754-5.0469-0.27539-1.1608-0.10292-1.7461-0.35742-1.7461-0.35742l0.10156 1.1426c-0.77126 0.58886-2.3251 1.4461-5.5156 2.3125-2.0727 0.2306-3.7989-0.40397-4.8359 0.17188-1.0357 0.57584-4.3181 2.0154-5.9883 2.418-1.6702 0.40256-2.9064 1.158-3.9082 1.4863-1.5907 0.51851 3.1525 8.1199 5.2109 9.1191 0 0-0.7126 0.74052-1.3027 1.3594-1.4318 0.9784-2.5605 1.043-2.5605 1.043l0.072266 0.78516c-1.6624 0.8833-3.3089 1.2949-3.8574 1.373-0.066404 0.009306-0.74268 0.21554-1.4863 0.4668v5.8711c0 7.2028 5.7991 13.002 13.002 13.002h18.125c0.46581-2.5623 0.99422-5.491 1.1094-6.6895 0.56541-0.83118 1.3262-0.8418 1.3262-0.8418s-0.97727-2.7697-0.88086-6.1035c0.12116-0.7908 0.32733-1.5354 0.58789-2.2441h0.98438s-0.12465-1.3599 0.43164-2.7422c1.8304-2.7828 4.3295-4.6428 5.3965-5.4609 1.0058-0.77256 5.6407-1.9569 6.6191-2.1875 0.9784-0.2306 1.8997-1.7869 1.957-2.248 0.0573-0.4611-0.28711-1.3242-0.28711-1.3242l-2.5898-0.57422-3.1348-0.35352s4.303-6.3746 5.0781-7.1133c0.82206-0.78298 1.2227-1.7469 1.2227-2.668s-0.67774-2.1602-0.67774-2.1602-0.77862-0.39391-2.0488-0.3457c-0.21236 0.0078-0.4302-0.021465-0.66602-0.041015h-0.003907c-0.1179-0.0098-0.23968-0.017898-0.36719-0.017578z" fill="url(#b)"/>
  <path d="m52.54 17.861s-0.40778-0.36609-0.85464-0.40778c-0.44816-0.04039-1.3849 0.12246-1.6689 0.08208-0.28531-0.04039-1.2624-0.61101-1.2624-0.61101s1.3028-0.73348 1.751-0.81425c0.44816-0.08208 1.222-0.20324 1.222-0.20324s0.3257 0.40778 0.57063 0.9771c0.24493 0.57063 0.24493 0.9771 0.24493 0.9771" fill="#2c3e50"/>
  <path d="m50.895 29.886c-0.87939 0.11725-1.0488 0.01954-1.0488 0.01954s0.20324-0.92108 0.42341-0.99925c0.22017-0.07817 0.86245 0.92108 0.62534 0.97971" fill="#fcfcfc"/>
  <path d="m52.092 21.729s-2.8909 1.3849-4.2745 3.5423c-1.3849 2.1574-2.362 4.3566-2.362 4.3566s0.9771 0.20324 1.8734 0.52894 2.5248 0.40778 3.2166 0.28531c0.69179-0.12246 0.89633-0.44816 0.20324-0.73348-0.69179-0.28531-1.7106-0.48855-1.751-1.0996-0.04039-0.61101 1.2624-4.1533 1.6285-4.7226 0.36609-0.57063 1.4656-2.1574 1.4656-2.1574" fill="#2c3e50"/>
  <path d="m26.729 28.772s3.5814-0.53936 4.9454-1.3549c4.4478-2.6577 4.2966-4.1416 4.2966-4.1416s-4.7044-1.8825-7.9575 1.9985c-1.3614 1.6246-1.2846 3.498-1.2846 3.498" fill="#34495e"/>
  <path d="m28.07 27.163s3.5697-0.71915 4.8946-1.6989c1.3236-0.9784 1.8708-1.4969 1.6989-1.8422-0.17327-0.34524-1.4683-0.86376-3.0798-0.46119-1.6116 0.40257-2.7632 1.5542-3.0798 2.2747-0.31658 0.71915-0.63316 1.4969-0.43123 1.7275" fill="url(#d)"/>
  <path d="m48.249 30.467c1.3158 0.15112 1.5634 0.02475 1.5634 0.02475s-0.30225-1.1855-0.63056-1.2859c-0.32831-0.10032-1.2859 1.1855-0.9328 1.2611" fill="#fcfcfc"/>
  <path d="m13.519 34.53c1.3158 1.0084 4.638 1.6024 6.2678 1.3653 3.8446-0.56151 4.0426-0.27359 3.115-2.7268-0.66964-1.7705-4.5598-3.5827-7.1654-0.9771l-1.3028-1.3028c0.77256-1.1126-0.6514-3.7052-1.3028-3.9084s-3.7247 0.63316-4.01 0.91847 3.0863 5.6242 4.3983 6.6326" fill="url(#g)"/>
 </g>
 <path d="m12.961 36.246s-0.6791 0.70648-1.2422 1.2969c-1.366 0.93348-2.4434 0.99609-2.4434 0.99609l0.068359 0.74805c-0.97947 0.52081-1.9218 0.85368-2.6465 1.0625l-1.0527 0.25-1.6445 0.61328v5.7852c0 7.2028 5.7991 13.002 13.002 13.002h10.084l4.5254-12.564-9.9434-9.9434s-1.6275 0.53164-4.5137 0.033203c-2.885-0.49843-4.1875-1.2773-4.1875-1.2773l-0.005859-0.001953z" fill="url(#i)" opacity=".15" style="mix-blend-mode:normal"/>
</svg>
