<?xml version="1.0" encoding="UTF-8" standalone="no"?>
<svg
   width="64"
   height="64"
   version="1.1"
   viewBox="0 0 16.933 16.933"
   id="svg46"
   sodipodi:docname="ape.svg"
   inkscape:version="1.3.2 (091e20ef0f, 2023-11-25)"
   xmlns:inkscape="http://www.inkscape.org/namespaces/inkscape"
   xmlns:sodipodi="http://sodipodi.sourceforge.net/DTD/sodipodi-0.dtd"
   xmlns="http://www.w3.org/2000/svg"
   xmlns:svg="http://www.w3.org/2000/svg">
  <sodipodi:namedview
     id="namedview46"
     pagecolor="#ffffff"
     bordercolor="#111111"
     borderopacity="1"
     inkscape:showpageshadow="0"
     inkscape:pageopacity="0"
     inkscape:pagecheckerboard="1"
     inkscape:deskcolor="#d1d1d1"
     inkscape:zoom="12.546875"
     inkscape:cx="23.910336"
     inkscape:cy="31.28269"
     inkscape:window-width="1920"
     inkscape:window-height="1011"
     inkscape:window-x="0"
     inkscape:window-y="0"
     inkscape:window-maximized="1"
     inkscape:current-layer="svg46" />
  <defs
     id="defs7">
    <filter
       id="filter1178"
       x="-0.04799993"
       y="-0.04799993"
       width="1.0959999"
       height="1.0959999"
       color-interpolation-filters="sRGB">
      <feGaussianBlur
         stdDeviation="0.30691955"
         id="feGaussianBlur1" />
    </filter>
    <linearGradient
       id="linearGradient1340"
       x1="8.5011"
       x2="8.489"
       y1="16.007"
       y2=".79375"
       gradientUnits="userSpaceOnUse"
       gradientTransform="matrix(0.98245307,0,0,0.98245307,0.14851867,0.14852167)">
      <stop
         stop-color="#2e3440"
         offset="0"
         id="stop1"
         style="stop-color:#0b2863;stop-opacity:1;" />
      <stop
         stop-color="#4c566a"
         offset="1"
         id="stop2"
         style="stop-color:#0e41a8;stop-opacity:1;" />
    </linearGradient>
    <filter
       id="filter3623"
       x="-0.10793395"
       y="-0.077654951"
       width="1.2119949"
       height="1.1517083"
       color-interpolation-filters="sRGB">
      <feGaussianBlur
         stdDeviation="0.073287797"
         id="feGaussianBlur2" />
    </filter>
    <filter
       id="filter3699"
       x="-0.084191688"
       y="-0.140577"
       width="1.1860816"
       height="1.3032634"
       color-interpolation-filters="sRGB">
      <feGaussianBlur
         stdDeviation="0.058926971"
         id="feGaussianBlur3" />
    </filter>
    <filter
       id="filter4411"
       x="-0.070430434"
       y="-0.1697883"
       width="1.1598162"
       height="1.3848359"
       color-interpolation-filters="sRGB">
      <feGaussianBlur
         stdDeviation="0.067928048"
         id="feGaussianBlur4" />
    </filter>
    <filter
       id="filter4469"
       x="-0.11301676"
       y="-0.093915408"
       width="1.2688122"
       height="1.1913137"
       color-interpolation-filters="sRGB">
      <feGaussianBlur
         stdDeviation="0.068167464"
         id="feGaussianBlur5" />
    </filter>
    <filter
       id="filter4527"
       x="-0.074289847"
       y="-0.29486781"
       width="1.1522954"
       height="1.6452424"
       color-interpolation-filters="sRGB">
      <feGaussianBlur
         stdDeviation="0.059296745"
         id="feGaussianBlur6" />
    </filter>
    <filter
       id="filter4842"
       x="-0.088415451"
       y="-0.092620853"
       width="1.1869047"
       height="1.1979614"
       color-interpolation-filters="sRGB">
      <feGaussianBlur
         stdDeviation="0.38907125"
         id="feGaussianBlur7" />
    </filter>
  </defs>
  <g
     stroke-linecap="round"
     stroke-linejoin="round"
     id="g9">
    <rect
       transform="matrix(.99138 0 0 1 .072989 .0019055)"
       x=".79375"
       y=".90545"
       width="15.346"
       height="15.346"
       rx="3.0526"
       ry="3.0526"
       fill="#000000"
       filter="url(#filter1178)"
       opacity=".15"
       stroke-width="1.2489"
       style="mix-blend-mode:normal"
       id="rect7" />
    <rect
       x="1.0583125"
       y="1.0583125"
       width="14.816375"
       height="14.816375"
       rx="3.4400673"
       ry="3.4400673"
       fill="url(#linearGradient1340)"
       stroke-width="1.20586"
       id="rect8"
       inkscape:label="flag"
       style="fill:url(#linearGradient1340)" />
    <rect
       x=".01215"
       y=".0060174"
       width="16.924"
       height="16.927"
       fill="none"
       opacity=".15"
       stroke-width="1.052"
       id="rect9" />
  </g>
  <g
     transform="matrix(.87968 0 0 .87968 -60.14 -14.451)"
     filter="url(#filter4842)"
     opacity=".5"
     stroke="#2e3440"
     id="g28">
    <g
       fill="none"
       id="g22">
      <path
         transform="scale(.26458)"
         d="m295.86 87.341c0.13743 0.0083 0.26864 0.01166 0.39327 0.0094 4.5836-0.08138 18.056-6.8827 22.88 2.1384 0.0265 0.04956 0.0525 0.09895 0.0781 0.14815"
         stroke-width="2.527"
         id="path9" />
      <path
         d="m78.719 20.819c2.5186 0.1163 2.5697 2.4234 3.1941 4.0037 0.64725 1.6382 3.7277 2.4686 2.6149 4.9593-0.04829 0.10807-0.1012 0.20778-0.15833 0.29963"
         stroke-width=".66859"
         id="path10" />
      <path
         transform="scale(.26458)"
         d="m319.21 89.637c4.632 8.9053-5.6347 11.843-9.3024 17.415-3.6879 5.6031-2.2916 16.107-12.883 16.295-0.3741 7e-3 -0.73513 2e-3 -1.0837-0.0144"
         stroke-width="2.527"
         id="path11" />
      <path
         d="m84.37 30.081c-1.2595 2.0251-4.5728 0.2368-5.7329 0.2574-1.2127 0.02153-4.7773 1.821-6.0536-0.56576-7e-3 -0.01311-0.01389-0.02618-0.02066-0.0392"
         stroke-width=".66859"
         id="path12" />
      <path
         transform="scale(.26458)"
         d="m295.94 123.33c-9.5193-0.43958-9.7125-9.1595-12.072-15.132-2.4464-6.1917-14.089-9.3305-9.8832-18.744 0.18252-0.40847 0.38248-0.78531 0.59842-1.1325"
         stroke-width="2.527"
         id="path13" />
      <path
         d="m72.563 29.734c-1.2255-2.3562 1.4908-3.1333 2.4612-4.6076 0.97573-1.4824 0.60629-4.2615 3.4086-4.3113 0.09898-0.0019 0.1945-5.29e-4 0.28671 0.0038"
         stroke-width=".66859"
         id="path14" />
      <path
         transform="scale(.26458)"
         d="m274.59 88.323c4.6252-7.4365 16.578-1.2676 21.275-0.9823"
         stroke-width="2.527"
         id="path15" />
      <path
         transform="scale(.26458)"
         d="m295.86 87.341c0.13743 0.0083 0.26864 0.01166 0.39327 0.0094 4.5836-0.08138 18.056-6.8827 22.88 2.1384 0.0265 0.04956 0.0525 0.09895 0.0781 0.14815"
         stroke-width="2.527"
         id="path16" />
      <path
         d="m78.719 20.819c2.5186 0.1163 2.5697 2.4234 3.1941 4.0037 0.64725 1.6382 3.7277 2.4686 2.6149 4.9593-0.04829 0.10807-0.1012 0.20778-0.15833 0.29963"
         stroke-width=".66859"
         id="path17" />
      <path
         transform="scale(.26458)"
         d="m319.21 89.637c4.632 8.9053-5.6347 11.843-9.3024 17.415-3.6879 5.6031-2.2916 16.107-12.883 16.295-0.3741 7e-3 -0.73513 2e-3 -1.0837-0.0144"
         stroke-width="2.527"
         id="path18" />
      <path
         d="m84.37 30.081c-1.2595 2.0251-4.5728 0.2368-5.7329 0.2574-1.2127 0.02153-4.7773 1.821-6.0536-0.56576-7e-3 -0.01311-0.01389-0.02618-0.02066-0.0392"
         stroke-width=".66859"
         id="path19" />
      <path
         transform="scale(.26458)"
         d="m295.94 123.33c-9.5193-0.43958-9.7125-9.1595-12.072-15.132-2.4464-6.1917-14.089-9.3305-9.8832-18.744 0.18252-0.40847 0.38248-0.78531 0.59842-1.1325"
         stroke-width="2.527"
         id="path20" />
      <path
         d="m72.563 29.734c-1.2255-2.3562 1.4908-3.1333 2.4612-4.6076 0.97573-1.4824 0.60629-4.2615 3.4086-4.3113 0.09898-0.0019 0.1945-5.29e-4 0.28671 0.0038"
         stroke-width=".66859"
         id="path21" />
      <path
         transform="scale(.26458)"
         d="m274.59 88.323c4.6252-7.4365 16.578-1.2676 21.275-0.9823"
         stroke-width="2.527"
         id="path22" />
    </g>
    <g
       fill="#eceff4"
       stroke-width=".079373"
       id="g27">
      <path
         d="m76.141 21.887c0.21638-1.09 1.8808-1.5086 2.3213-1.1792-1.7768 0.35334-1.5982 0.84943-2.3213 1.1792z"
         filter="url(#filter3699)"
         opacity=".6"
         id="path23" />
      <path
         d="m72.493 23.328c0.21638-1.09 2.5707-1.4603 3.1534-1.0006-1.8965-0.05589-2.4142 0.44778-3.1534 1.0006z"
         filter="url(#filter4411)"
         opacity=".6"
         id="path24" />
      <path
         d="m77.051 30.618c0.50661-0.98912 2.6924-0.5949 3.0258-0.15744-1.8499-0.33852-2.1635-0.17177-3.0258 0.15744z"
         filter="url(#filter4527)"
         opacity=".6"
         id="path25" />
      <path
         d="m71.946 28.812c-0.2935-1.0719 1.0819-2.3559 1.7602-2.562-1.2041 1.4265-1.1819 1.8346-1.7602 2.562z"
         filter="url(#filter4469)"
         opacity=".6"
         id="path26" />
      <path
         d="m81.194 29.593c0.45314-1.5053 0.89305-2.0863 1.9817-2.7087-1.2041 1.4265-1.4034 1.9813-1.9817 2.7087z"
         filter="url(#filter3623)"
         opacity=".6"
         id="path27" />
    </g>
  </g>
  <g
     transform="matrix(.87968 0 0 .87968 -60.437 -14.945)"
     fill="none"
     id="g41">
    <path
       transform="scale(.26458)"
       d="m295.86 87.341c0.13743 0.0083 0.26864 0.01166 0.39327 0.0094 4.5836-0.08138 18.056-6.8827 22.88 2.1384 0.0265 0.04956 0.0525 0.09895 0.0781 0.14815"
       stroke="#a3be8c"
       stroke-width="2.527"
       id="path28" />
    <path
       d="m78.719 20.819c2.5186 0.1163 2.5697 2.4234 3.1941 4.0037 0.64725 1.6382 3.7277 2.4686 2.6149 4.9593-0.04829 0.10807-0.1012 0.20778-0.15833 0.29963"
       stroke="#5e81ac"
       stroke-width=".66859"
       id="path29" />
    <path
       transform="scale(.26458)"
       d="m319.21 89.637c4.632 8.9053-5.6347 11.843-9.3024 17.415-3.6879 5.6031-2.2916 16.107-12.883 16.295-0.3741 7e-3 -0.73513 2e-3 -1.0837-0.0144"
       stroke="#a3be8c"
       stroke-width="2.527"
       id="path30" />
    <path
       d="m84.37 30.081c-1.2595 2.0251-4.5728 0.2368-5.7329 0.2574-1.2127 0.02153-4.7773 1.821-6.0536-0.56576-7e-3 -0.01311-0.01389-0.02618-0.02066-0.0392"
       stroke="#5e81ac"
       stroke-width=".66859"
       id="path31" />
    <path
       transform="scale(.26458)"
       d="m295.94 123.33c-9.5193-0.43958-9.7125-9.1595-12.072-15.132-2.4464-6.1917-14.089-9.3305-9.8832-18.744 0.18252-0.40847 0.38248-0.78531 0.59842-1.1325"
       stroke="#a3be8c"
       stroke-width="2.527"
       id="path32" />
    <path
       d="m72.563 29.734c-1.2255-2.3562 1.4908-3.1333 2.4612-4.6076 0.97573-1.4824 0.60629-4.2615 3.4086-4.3113 0.09898-0.0019 0.1945-5.29e-4 0.28671 0.0038"
       stroke="#5e81ac"
       stroke-width=".66859"
       id="path33" />
    <path
       transform="scale(.26458)"
       d="m274.59 88.323c4.6252-7.4365 16.578-1.2676 21.275-0.9823"
       stroke="#a3be8c"
       stroke-width="2.527"
       id="path34" />
    <path
       transform="scale(.26458)"
       d="m295.86 87.341c0.13743 0.0083 0.26864 0.01166 0.39327 0.0094 4.5836-0.08138 18.056-6.8827 22.88 2.1384 0.0265 0.04956 0.0525 0.09895 0.0781 0.14815"
       stroke="#a3be8c"
       stroke-width="2.527"
       id="path35" />
    <path
       d="m78.719 20.819c2.5186 0.1163 2.5697 2.4234 3.1941 4.0037 0.64725 1.6382 3.7277 2.4686 2.6149 4.9593-0.04829 0.10807-0.1012 0.20778-0.15833 0.29963"
       stroke="#5e81ac"
       stroke-width=".66859"
       id="path36" />
    <path
       transform="scale(.26458)"
       d="m319.21 89.637c4.632 8.9053-5.6347 11.843-9.3024 17.415-3.6879 5.6031-2.2916 16.107-12.883 16.295-0.3741 7e-3 -0.73513 2e-3 -1.0837-0.0144"
       stroke="#a3be8c"
       stroke-width="2.527"
       id="path37" />
    <path
       d="m84.37 30.081c-1.2595 2.0251-4.5728 0.2368-5.7329 0.2574-1.2127 0.02153-4.7773 1.821-6.0536-0.56576-7e-3 -0.01311-0.01389-0.02618-0.02066-0.0392"
       stroke="#5e81ac"
       stroke-width=".66859"
       id="path38" />
    <path
       transform="scale(.26458)"
       d="m295.94 123.33c-9.5193-0.43958-9.7125-9.1595-12.072-15.132-2.4464-6.1917-14.089-9.3305-9.8832-18.744 0.18252-0.40847 0.38248-0.78531 0.59842-1.1325"
       stroke="#a3be8c"
       stroke-width="2.527"
       id="path39" />
    <path
       d="m72.563 29.734c-1.2255-2.3562 1.4908-3.1333 2.4612-4.6076 0.97573-1.4824 0.60629-4.2615 3.4086-4.3113 0.09898-0.0019 0.1945-5.29e-4 0.28671 0.0038"
       stroke="#5e81ac"
       stroke-width=".66859"
       id="path40" />
    <path
       transform="scale(.26458)"
       d="m274.59 88.323c4.6252-7.4365 16.578-1.2676 21.275-0.9823"
       stroke="#a3be8c"
       stroke-width="2.527"
       id="path41" />
  </g>
  <g
     fill="#eceff4"
     id="g46">
    <path
       transform="matrix(.87968 0 0 .87968 -60.437 -14.945)"
       d="m76.141 21.887c0.21638-1.09 1.8808-1.5086 2.3213-1.1792-1.7768 0.35334-1.5982 0.84943-2.3213 1.1792z"
       filter="url(#filter3699)"
       opacity=".6"
       id="path42" />
    <path
       transform="matrix(.87968 0 0 .87968 -60.437 -14.945)"
       d="m72.493 23.328c0.21638-1.09 2.5707-1.4603 3.1534-1.0006-1.8965-0.05589-2.4142 0.44778-3.1534 1.0006z"
       filter="url(#filter4411)"
       opacity=".6"
       id="path43" />
    <path
       transform="matrix(.87968 0 0 .87968 -60.437 -14.945)"
       d="m77.051 30.618c0.64759-0.92013 2.9223-0.4506 3.2558-0.01314-1.8499-0.33852-2.3934-0.31607-3.2558 0.01314z"
       filter="url(#filter4527)"
       opacity=".6"
       id="path44" />
    <path
       transform="matrix(.87968 0 0 .87968 -60.437 -14.945)"
       d="m71.946 28.812c-0.2935-1.0719 1.0819-2.3559 1.7602-2.562-1.2041 1.4265-1.1819 1.8346-1.7602 2.562z"
       filter="url(#filter4469)"
       opacity=".6"
       id="path45" />
    <path
       transform="matrix(.87968 0 0 .87968 -60.437 -14.945)"
       d="m81.194 29.593c0.45314-1.5053 0.89305-2.0863 1.9817-2.7087-1.2041 1.4265-1.4034 1.9813-1.9817 2.7087z"
       filter="url(#filter3623)"
       opacity=".6"
       id="path46" />
  </g>
</svg>
