<svg width="64" height="64" viewBox="0 0 16.933 16.933" xmlns="http://www.w3.org/2000/svg"><defs><linearGradient id="a" x1="7.937" x2="7.937" y1="15.081" y2="1.852" gradientUnits="userSpaceOnUse"><stop stop-color="#282929" offset="0"/><stop stop-color="#505353" offset="1"/></linearGradient><linearGradient id="b" x1="25.163" x2="35.091" y1="12.334" y2="1.707" gradientTransform="translate(-21.564 1.53)" gradientUnits="userSpaceOnUse"><stop stop-color="#807c76" offset=".058"/><stop stop-color="#fff" offset=".385"/><stop stop-color="#bdbfba" offset=".558"/><stop stop-color="#acb3ac" offset=".635"/><stop stop-color="#f7f8f7" offset=".75"/><stop stop-color="#c2c7c1" offset=".863"/><stop stop-color="#7f7a75" offset=".941"/></linearGradient></defs><g color="#000"><path d="M4.37.53C2.254.53.53 2.312.53 4.496v8.468c0 2.184 1.725 3.968 3.84 3.968h8.194c2.114 0 3.84-1.783 3.84-3.968V4.497c0-2.184-1.726-3.968-3.84-3.968zm.256.52h7.681c1.844 0 3.33 1.534 3.33 3.44v7.937c0 1.906-1.485 3.44-3.33 3.44h-7.68c-1.845 0-3.33-1.534-3.33-3.44V4.49c0-1.906 1.485-3.44 3.33-3.44z" opacity=".01" style="font-feature-settings:normal;font-variant-alternates:normal;font-variant-caps:normal;font-variant-east-asian:normal;font-variant-ligatures:normal;font-variant-numeric:normal;font-variant-position:normal;font-variation-settings:normal;inline-size:0;isolation:auto;mix-blend-mode:normal;shape-margin:0;shape-padding:0;text-decoration-color:#000;text-decoration-line:none;text-decoration-style:solid;text-indent:0;text-orientation:mixed;text-transform:none;white-space:normal"/><path d="M4.359.794C2.392.794.795 2.447.795 4.48v8.5c0 2.035 1.597 3.688 3.564 3.688h8.216c1.967 0 3.564-1.653 3.564-3.688v-8.5c0-2.034-1.597-3.687-3.564-3.687zm.272.256h7.672c1.842 0 3.325 1.534 3.325 3.44v7.937c0 1.906-1.483 3.44-3.325 3.44H4.63c-1.842 0-3.325-1.534-3.325-3.44V4.49c0-1.906 1.483-3.44 3.325-3.44z" opacity=".01" style="font-feature-settings:normal;font-variant-alternates:normal;font-variant-caps:normal;font-variant-east-asian:normal;font-variant-ligatures:normal;font-variant-numeric:normal;font-variant-position:normal;font-variation-settings:normal;inline-size:0;isolation:auto;mix-blend-mode:normal;shape-margin:0;shape-padding:0;text-decoration-color:#000;text-decoration-line:none;text-decoration-style:solid;text-indent:0;text-orientation:mixed;text-transform:none;white-space:normal"/><path d="M4.31 1.058c-1.866 0-3.375 1.539-3.375 3.44v8.467c0 1.9 1.57 3.439 3.435 3.439h8.2c1.866 0 3.427-1.538 3.427-3.44V4.498c0-1.9-1.51-3.439-3.375-3.439h-.097c1.794.087 3.214 1.582 3.214 3.432v7.937c0 1.906-1.506 3.44-3.377 3.44h-7.79c-1.871 0-3.377-1.534-3.377-3.44V4.49c0-1.85 1.42-3.345 3.214-3.432z" opacity=".03" style="font-feature-settings:normal;font-variant-alternates:normal;font-variant-caps:normal;font-variant-east-asian:normal;font-variant-ligatures:normal;font-variant-numeric:normal;font-variant-position:normal;font-variation-settings:normal;inline-size:0;isolation:auto;mix-blend-mode:normal;shape-margin:0;shape-padding:0;text-decoration-color:#000;text-decoration-line:none;text-decoration-style:solid;text-indent:0;text-orientation:mixed;text-transform:none;white-space:normal"/><path transform="scale(.26458)" d="M4 46.969V49c0 6.648 5.896 12 12.544 12h30.961C54.153 61 60 55.648 60 49v-1.992a12.972 12.972 0 0 1-13 12.963H17.002A12.973 12.973 0 0 1 4 46.969z" opacity=".03" style="font-feature-settings:normal;font-variant-alternates:normal;font-variant-caps:normal;font-variant-east-asian:normal;font-variant-ligatures:normal;font-variant-numeric:normal;font-variant-position:normal;font-variation-settings:normal;inline-size:0;isolation:auto;mix-blend-mode:normal;shape-margin:0;shape-padding:0;text-decoration-color:#000;text-decoration-line:none;text-decoration-style:solid;text-indent:0;text-orientation:mixed;text-transform:none;white-space:normal"/><path d="M1.058 11.906v.592c0 1.939 1.573 3.5 3.332 3.5h8.16c1.76 0 3.325-1.561 3.325-3.5v-.58c-.006 2.095-1.537 3.78-3.44 3.78H4.498c-1.905 0-3.44-1.692-3.44-3.792z" opacity=".05" style="font-feature-settings:normal;font-variant-alternates:normal;font-variant-caps:normal;font-variant-east-asian:normal;font-variant-ligatures:normal;font-variant-numeric:normal;font-variant-position:normal;font-variation-settings:normal;inline-size:0;isolation:auto;mix-blend-mode:normal;shape-margin:0;shape-padding:0;text-decoration-color:#000;text-decoration-line:none;text-decoration-style:solid;text-indent:0;text-orientation:mixed;text-transform:none;white-space:normal"/></g><rect x="1.058" y="1.05" width="14.817" height="14.817" rx="3.44" ry="3.44" fill="url(#a)"/><path d="M7.228 1.05c.186.446.24.875.262 1.206A4.146 4.146 0 0 1 3.6 6.643c-.67.038-1.798-.05-2.542-.631V7.39c.04-.02.082-.05.13-.098.078-.097.168-.225.286-.393.187.08.282.1.479.156-.004.556-.045.775.21.844.221.06.293-.138.483-.693.18.023.363.037.546.04.14.606.185.814.417.777.26-.041.244-.263.297-.813.182-.025.363-.06.542-.105.258.536.352.725.566.64.245-.1.178-.312.107-.864.166-.069.328-.146.485-.232.403.451.545.608.728.466.208-.162.086-.348-.132-.854.148-.113.288-.235.422-.365.484.324.66.437.8.256.158-.206 0-.356-.33-.779.108-.138.207-.282.298-.432.578.166.781.224.86.006.088-.243-.107-.34-.544-.637.073-.173.136-.351.188-.532.598.019.81.024.833-.206.025-.257-.189-.302-.686-.485.024-.188.036-.378.037-.568.567-.109.772-.153.744-.38-.032-.257-.252-.252-.784-.322a4.77 4.77 0 0 0-.105-.527c.101-.052.178-.093.254-.135.042-.043.05-.077.035-.105h-.996zm.985 4.617-.324.043a.054.054 0 0 0-.035.02.061.061 0 0 0-.011.04l.006.404a2.398 2.398 0 0 0-.668.28l-.275-.29a.056.056 0 0 0-.036-.02.053.053 0 0 0-.04.01l-.26.198a.054.054 0 0 0-.02.037.065.065 0 0 0 .01.04l.2.35c-.173.168-.32.361-.434.573l-.38-.111a.054.054 0 0 0-.07.03l-.127.3a.055.055 0 0 0 0 .042.065.065 0 0 0 .03.03l.348.202a2.396 2.396 0 0 0-.09.714l-.388.094a.056.056 0 0 0-.037.02.053.053 0 0 0-.01.04l.042.324c.002.015.01.028.02.036a.064.064 0 0 0 .04.011l.406.002c.059.233.153.457.279.663l-.29.274a.054.054 0 0 0-.01.076l.2.26a.053.053 0 0 0 .036.02.064.064 0 0 0 .04-.01l.348-.2c.169.174.362.32.575.436l-.111.379a.056.056 0 0 0 0 .041.053.053 0 0 0 .029.03l.3.125a.055.055 0 0 0 .043 0 .066.066 0 0 0 .03-.03l.202-.347a2.397 2.397 0 0 0 .714.09l.093.388a.06.06 0 0 0 .021.036.054.054 0 0 0 .04.01l.324-.042a.054.054 0 0 0 .036-.02.066.066 0 0 0 .011-.041l.002-.405a2.41 2.41 0 0 0 .646-.27l.294.279c.076.01.022.019.036.02a.054.054 0 0 0 .04-.01l.259-.199a.054.054 0 0 0 .02-.036.063.063 0 0 0-.01-.04l-.206-.344a2.4 2.4 0 0 0 .429-.562l.394.095c.07-.03.029.005.042 0a.053.053 0 0 0 .029-.03l.125-.301a.055.055 0 0 0 0-.042.064.064 0 0 0-.03-.03l-.354-.196c.062-.213.093-.434.094-.656l-.002-.044.387-.115c.047-.061.028-.01.036-.02a.053.053 0 0 0 .01-.04l-.042-.325a.053.053 0 0 0-.02-.035.063.063 0 0 0-.04-.011l-.404.007a2.398 2.398 0 0 0-.271-.652l.28-.294c.01-.076.018-.023.02-.036a.054.054 0 0 0-.01-.04l-.2-.26a.054.054 0 0 0-.035-.02.063.063 0 0 0-.04.01l-.345.207a2.396 2.396 0 0 0-.561-.429l.094-.394c-.03-.071.005-.03 0-.042a.053.053 0 0 0-.029-.03l-.302-.125a.053.053 0 0 0-.04 0 .063.063 0 0 0-.03.03l-.197.355a2.397 2.397 0 0 0-.7-.093l-.115-.387c-.061-.047-.01-.027-.02-.036a.054.054 0 0 0-.041-.01zm.219.939a1.892 1.892 0 1 1 0 3.783 1.892 1.892 0 0 1 0-3.783zm6.14 2.218c-.263-.001-.283.219-.424.748a4.802 4.802 0 0 0-.547.012c-.178-.583-.24-.787-.467-.734-.257.06-.223.281-.237.837-.175.04-.346.09-.515.149-.313-.524-.422-.706-.63-.6-.238.121-.148.328-.026.887a4.8 4.8 0 0 0-.458.272c-.458-.413-.616-.557-.784-.394-.19.184-.048.355.225.838a4.793 4.793 0 0 0-.375.39c-.544-.292-.732-.394-.856-.195-.14.225.04.357.426.766-.094.148-.18.301-.258.459-.543-.116-.749-.2-.867.036-.105.209.079.316.608.629a4.78 4.78 0 0 0-.132.52c-.55.029-.77.003-.823.26-.046.227.157.285.737.445-.007.177-.004.354.01.53-.52.182-.739.219-.717.481.019.228.228.229.812.22.03.134.069.266.11.398.01.034.026.062.042.09h.78c-.207-.844-.458-1.953-.01-3.11.083-.217.183-.404.296-.55a4.146 4.146 0 0 1 2.099-1.714 1.82 1.82 0 0 1 .448-.138c.126-.032.254-.058.383-.078a4.14 4.14 0 0 1 .412-.04 4.767 4.767 0 0 1 2.041.406V9.25c-.036-.04-.079-.049-.13-.007-.1.097-.2.277-.368.541a4.801 4.801 0 0 0-.52-.13c-.038-.616-.05-.829-.285-.83z" fill="#fff" opacity=".1"/><g stroke="#010101" stroke-linecap="round" stroke-linejoin="round"><path d="M8.477 3.083c-.263.022-.262.245-.357.793a4.796 4.783 0 0 0-.53.073c-.234-.564-.316-.76-.536-.686-.254.086-.195.304-.155.874a4.796 4.783 0 0 0-.493.203c-.394-.475-.529-.64-.718-.504-.215.155-.1.346.1.863a4.796 4.783 0 0 0-.427.33c-.496-.367-.667-.495-.819-.316-.171.202-.012.359.311.819a4.796 4.783 0 0 0-.322.418c-.52-.194-.712-.307-.863-.09-.135.191.032.324.51.71a4.796 4.783 0 0 0-.206.496c-.547-.052-.762-.11-.852.137-.079.218.114.305.665.548a4.796 4.783 0 0 0-.068.525c-.54.104-.762.11-.779.372-.014.228.194.259.772.335a4.796 4.783 0 0 0 .077.558c-.495.217-.709.273-.667.531.037.23.248.21.855.154a4.796 4.783 0 0 0 .214.516c-.423.328-.614.435-.512.673.093.215.293.143.873-.062a4.796 4.783 0 0 0 .313.405c-.32.468-.478.627-.303.828.153.175.322.047.806-.321a4.796 4.783 0 0 0 .429.33c-.194.54-.31.734-.09.886.194.133.325-.035.711-.524l-.094-.056a4.796 4.783 0 0 0 .563.24c-.038.555-.091.772.16.856.217.073.3-.12.523-.663a4.796 4.783 0 0 0 .543.072c.102.614.135.825.37.802.262-.026.258-.248.344-.794a4.796 4.783 0 0 0 .547-.072c.226.55.308.744.527.671.25-.083.197-.3.16-.855a4.796 4.783 0 0 0 .497-.202c.375.474.507.64.699.508.217-.149.107-.342-.081-.86a4.796 4.783 0 0 0 .443-.338c.464.352.633.475.783.303.17-.196.021-.356-.282-.797a4.796 4.783 0 0 0 .324-.414c.566.2.766.27.857.057.102-.237-.087-.345-.505-.668a4.796 4.783 0 0 0 .22-.52c.595.055.806.073.843-.155.041-.255-.17-.313-.655-.525a4.796 4.783 0 0 0 .071-.565c.573-.075.78-.107.765-.334-.017-.26-.236-.268-.762-.369a4.796 4.783 0 0 0-.074-.533c.541-.24.733-.327.654-.543-.089-.245-.302-.19-.84-.138a4.796 4.783 0 0 0-.208-.504c.47-.378.634-.512.501-.701-.15-.216-.343-.104-.858.087a4.796 4.783 0 0 0-.33-.427c.347-.492.468-.666.288-.812-.201-.164-.356-.009-.788.31a4.796 4.783 0 0 0-.438-.335c.23-.562.31-.76.102-.861-.24-.118-.352.078-.726.51a4.796 4.783 0 0 0-.495-.204c.052-.615.07-.827-.16-.863-.26-.039-.313.176-.528.679a4.796 4.783 0 0 0-.544-.068c-.091-.602-.123-.813-.355-.793zm-.192 1.47c.531-.01 1.162.086 1.367.175.891.272 1.715.771 2.417 1.934.131.216.225.426.267.618.042.202.027.436-.104.621-.111.147-.25.286-.443.304-.6.056-1.414.024-2.057.017-.108-.001-.211-.045-.242-.079-.19-.12-.319-.38-.53-.454-.34-.157-.477-.025-.669-.26a33.284 33.284 0 0 1-1.005-1.722c-.227-.395-.077-.79.264-1.002.134-.104.417-.147.735-.152zM5.92 5.769c.028 0 .056 0 .084.003.183.025.371.077.481.237.344.495.716 1.22 1.025 1.784.052.094.065.206.05.25-.01.225-.175.464-.135.685.03.373.212.428.1.71a32.669 32.669 0 0 1-1.007 1.72c-.232.392-.65.455-1.002.262-.416-.175-.974-1.487-1.01-1.842-.202-.91-.171-1.873.497-3.056.125-.22.262-.405.409-.536a.83.83 0 0 1 .508-.217zm2.567 2.507a.37.37 0 0 1 .002 0 .37.37 0 0 1 .37.37.37.37 0 0 1-.37.37.37.37 0 0 1-.37-.37.37.37 0 0 1 .368-.37zm2.184.804c.333.002.665.009.993.021.455.006.718.335.727.738.057.447-.8 1.587-1.09 1.796-.687.63-1.537 1.084-2.895 1.096a2.122 2.122 0 0 1-.668-.085c-.195-.066-.389-.2-.482-.406-.07-.17-.119-.36-.036-.535.258-.546.7-1.23 1.033-1.78.056-.092.146-.159.191-.168.2-.103.49-.08.662-.225.308-.212.264-.397.564-.442.333-.008.667-.011 1-.01z" opacity=".03" stroke-width="1.323"/><path d="M8.477 3.083c-.263.022-.262.245-.357.793a4.796 4.783 0 0 0-.53.073c-.234-.564-.316-.76-.536-.686-.254.086-.195.304-.155.874a4.796 4.783 0 0 0-.493.203c-.394-.475-.529-.64-.718-.504-.215.155-.1.346.1.863a4.796 4.783 0 0 0-.427.33c-.496-.367-.667-.495-.819-.316-.171.202-.012.359.311.819a4.796 4.783 0 0 0-.322.418c-.52-.194-.712-.307-.863-.09-.135.191.032.324.51.71a4.796 4.783 0 0 0-.206.496c-.547-.052-.762-.11-.852.137-.079.218.114.305.665.548a4.796 4.783 0 0 0-.068.525c-.54.104-.762.11-.779.372-.014.228.194.259.772.335a4.796 4.783 0 0 0 .077.558c-.495.217-.709.273-.667.531.037.23.248.21.855.154a4.796 4.783 0 0 0 .214.516c-.423.328-.614.435-.512.673.093.215.293.143.873-.062a4.796 4.783 0 0 0 .313.405c-.32.468-.478.627-.303.828.153.175.322.047.806-.321a4.796 4.783 0 0 0 .429.33c-.194.54-.31.734-.09.886.194.133.325-.035.711-.524l-.094-.056a4.796 4.783 0 0 0 .563.24c-.038.555-.091.772.16.856.217.073.3-.12.523-.663a4.796 4.783 0 0 0 .543.072c.102.614.135.825.37.802.262-.026.258-.248.344-.794a4.796 4.783 0 0 0 .547-.072c.226.55.308.744.527.671.25-.083.197-.3.16-.855a4.796 4.783 0 0 0 .497-.202c.375.474.507.64.699.508.217-.149.107-.342-.081-.86a4.796 4.783 0 0 0 .443-.338c.464.352.633.475.783.303.17-.196.021-.356-.282-.797a4.796 4.783 0 0 0 .324-.414c.566.2.766.27.857.057.102-.237-.087-.345-.505-.668a4.796 4.783 0 0 0 .22-.52c.595.055.806.073.843-.155.041-.255-.17-.313-.655-.525a4.796 4.783 0 0 0 .071-.565c.573-.075.78-.107.765-.334-.017-.26-.236-.268-.762-.369a4.796 4.783 0 0 0-.074-.533c.541-.24.733-.327.654-.543-.089-.245-.302-.19-.84-.138a4.796 4.783 0 0 0-.208-.504c.47-.378.634-.512.501-.701-.15-.216-.343-.104-.858.087a4.796 4.783 0 0 0-.33-.427c.347-.492.468-.666.288-.812-.201-.164-.356-.009-.788.31a4.796 4.783 0 0 0-.438-.335c.23-.562.31-.76.102-.861-.24-.118-.352.078-.726.51a4.796 4.783 0 0 0-.495-.204c.052-.615.07-.827-.16-.863-.26-.039-.313.176-.528.679a4.796 4.783 0 0 0-.544-.068c-.091-.602-.123-.813-.355-.793zm-.192 1.47c.531-.01 1.162.086 1.367.175.891.272 1.715.771 2.417 1.934.131.216.225.426.267.618.042.202.027.436-.104.621-.111.147-.25.286-.443.304-.6.056-1.414.024-2.057.017-.108-.001-.211-.045-.242-.079-.19-.12-.319-.38-.53-.454-.34-.157-.477-.025-.669-.26a33.284 33.284 0 0 1-1.005-1.722c-.227-.395-.077-.79.264-1.002.134-.104.417-.147.735-.152zM5.92 5.769c.028 0 .056 0 .084.003.183.025.371.077.481.237.344.495.716 1.22 1.025 1.784.052.094.065.206.05.25-.01.225-.175.464-.135.685.03.373.212.428.1.71a32.669 32.669 0 0 1-1.007 1.72c-.232.392-.65.455-1.002.262-.416-.175-.974-1.487-1.01-1.842-.202-.91-.171-1.873.497-3.056.125-.22.262-.405.409-.536a.83.83 0 0 1 .508-.217zm2.567 2.507a.37.37 0 0 1 .002 0 .37.37 0 0 1 .37.37.37.37 0 0 1-.37.37.37.37 0 0 1-.37-.37.37.37 0 0 1 .368-.37zm2.184.804c.333.002.665.009.993.021.455.006.718.335.727.738.057.447-.8 1.587-1.09 1.796-.687.63-1.537 1.084-2.895 1.096a2.122 2.122 0 0 1-.668-.085c-.195-.066-.389-.2-.482-.406-.07-.17-.119-.36-.036-.535.258-.546.7-1.23 1.033-1.78.056-.092.146-.159.191-.168.2-.103.49-.08.662-.225.308-.212.264-.397.564-.442.333-.008.667-.011 1-.01z" opacity=".04" stroke-width="1.058"/><path d="M8.477 3.083c-.263.022-.262.245-.357.793a4.796 4.783 0 0 0-.53.073c-.234-.564-.316-.76-.536-.686-.254.086-.195.304-.155.874a4.796 4.783 0 0 0-.493.203c-.394-.475-.529-.64-.718-.504-.215.155-.1.346.1.863a4.796 4.783 0 0 0-.427.33c-.496-.367-.667-.495-.819-.316-.171.202-.012.359.311.819a4.796 4.783 0 0 0-.322.418c-.52-.194-.712-.307-.863-.09-.135.191.032.324.51.71a4.796 4.783 0 0 0-.206.496c-.547-.052-.762-.11-.852.137-.079.218.114.305.665.548a4.796 4.783 0 0 0-.068.525c-.54.104-.762.11-.779.372-.014.228.194.259.772.335a4.796 4.783 0 0 0 .077.558c-.495.217-.709.273-.667.531.037.23.248.21.855.154a4.796 4.783 0 0 0 .214.516c-.423.328-.614.435-.512.673.093.215.293.143.873-.062a4.796 4.783 0 0 0 .313.405c-.32.468-.478.627-.303.828.153.175.322.047.806-.321a4.796 4.783 0 0 0 .429.33c-.194.54-.31.734-.09.886.194.133.325-.035.711-.524l-.094-.056a4.796 4.783 0 0 0 .563.24c-.038.555-.091.772.16.856.217.073.3-.12.523-.663a4.796 4.783 0 0 0 .543.072c.102.614.135.825.37.802.262-.026.258-.248.344-.794a4.796 4.783 0 0 0 .547-.072c.226.55.308.744.527.671.25-.083.197-.3.16-.855a4.796 4.783 0 0 0 .497-.202c.375.474.507.64.699.508.217-.149.107-.342-.081-.86a4.796 4.783 0 0 0 .443-.338c.464.352.633.475.783.303.17-.196.021-.356-.282-.797a4.796 4.783 0 0 0 .324-.414c.566.2.766.27.857.057.102-.237-.087-.345-.505-.668a4.796 4.783 0 0 0 .22-.52c.595.055.806.073.843-.155.041-.255-.17-.313-.655-.525a4.796 4.783 0 0 0 .071-.565c.573-.075.78-.107.765-.334-.017-.26-.236-.268-.762-.369a4.796 4.783 0 0 0-.074-.533c.541-.24.733-.327.654-.543-.089-.245-.302-.19-.84-.138a4.796 4.783 0 0 0-.208-.504c.47-.378.634-.512.501-.701-.15-.216-.343-.104-.858.087a4.796 4.783 0 0 0-.33-.427c.347-.492.468-.666.288-.812-.201-.164-.356-.009-.788.31a4.796 4.783 0 0 0-.438-.335c.23-.562.31-.76.102-.861-.24-.118-.352.078-.726.51a4.796 4.783 0 0 0-.495-.204c.052-.615.07-.827-.16-.863-.26-.039-.313.176-.528.679a4.796 4.783 0 0 0-.544-.068c-.091-.602-.123-.813-.355-.793zm-.192 1.47c.531-.01 1.162.086 1.367.175.891.272 1.715.771 2.417 1.934.131.216.225.426.267.618.042.202.027.436-.104.621-.111.147-.25.286-.443.304-.6.056-1.414.024-2.057.017-.108-.001-.211-.045-.242-.079-.19-.12-.319-.38-.53-.454-.34-.157-.477-.025-.669-.26a33.284 33.284 0 0 1-1.005-1.722c-.227-.395-.077-.79.264-1.002.134-.104.417-.147.735-.152zM5.92 5.769c.028 0 .056 0 .084.003.183.025.371.077.481.237.344.495.716 1.22 1.025 1.784.052.094.065.206.05.25-.01.225-.175.464-.135.685.03.373.212.428.1.71a32.669 32.669 0 0 1-1.007 1.72c-.232.392-.65.455-1.002.262-.416-.175-.974-1.487-1.01-1.842-.202-.91-.171-1.873.497-3.056.125-.22.262-.405.409-.536a.83.83 0 0 1 .508-.217zm2.567 2.507a.37.37 0 0 1 .002 0 .37.37 0 0 1 .37.37.37.37 0 0 1-.37.37.37.37 0 0 1-.37-.37.37.37 0 0 1 .368-.37zm2.184.804c.333.002.665.009.993.021.455.006.718.335.727.738.057.447-.8 1.587-1.09 1.796-.687.63-1.537 1.084-2.895 1.096a2.122 2.122 0 0 1-.668-.085c-.195-.066-.389-.2-.482-.406-.07-.17-.119-.36-.036-.535.258-.546.7-1.23 1.033-1.78.056-.092.146-.159.191-.168.2-.103.49-.08.662-.225.308-.212.264-.397.564-.442.333-.008.667-.011 1-.01z" opacity=".05" stroke-width=".794"/><path d="M8.477 3.083c-.263.022-.262.245-.357.793a4.796 4.783 0 0 0-.53.073c-.234-.564-.316-.76-.536-.686-.254.086-.195.304-.155.874a4.796 4.783 0 0 0-.493.203c-.394-.475-.529-.64-.718-.504-.215.155-.1.346.1.863a4.796 4.783 0 0 0-.427.33c-.496-.367-.667-.495-.819-.316-.171.202-.012.359.311.819a4.796 4.783 0 0 0-.322.418c-.52-.194-.712-.307-.863-.09-.135.191.032.324.51.71a4.796 4.783 0 0 0-.206.496c-.547-.052-.762-.11-.852.137-.079.218.114.305.665.548a4.796 4.783 0 0 0-.068.525c-.54.104-.762.11-.779.372-.014.228.194.259.772.335a4.796 4.783 0 0 0 .077.558c-.495.217-.709.273-.667.531.037.23.248.21.855.154a4.796 4.783 0 0 0 .214.516c-.423.328-.614.435-.512.673.093.215.293.143.873-.062a4.796 4.783 0 0 0 .313.405c-.32.468-.478.627-.303.828.153.175.322.047.806-.321a4.796 4.783 0 0 0 .429.33c-.194.54-.31.734-.09.886.194.133.325-.035.711-.524l-.094-.056a4.796 4.783 0 0 0 .563.24c-.038.555-.091.772.16.856.217.073.3-.12.523-.663a4.796 4.783 0 0 0 .543.072c.102.614.135.825.37.802.262-.026.258-.248.344-.794a4.796 4.783 0 0 0 .547-.072c.226.55.308.744.527.671.25-.083.197-.3.16-.855a4.796 4.783 0 0 0 .497-.202c.375.474.507.64.699.508.217-.149.107-.342-.081-.86a4.796 4.783 0 0 0 .443-.338c.464.352.633.475.783.303.17-.196.021-.356-.282-.797a4.796 4.783 0 0 0 .324-.414c.566.2.766.27.857.057.102-.237-.087-.345-.505-.668a4.796 4.783 0 0 0 .22-.52c.595.055.806.073.843-.155.041-.255-.17-.313-.655-.525a4.796 4.783 0 0 0 .071-.565c.573-.075.78-.107.765-.334-.017-.26-.236-.268-.762-.369a4.796 4.783 0 0 0-.074-.533c.541-.24.733-.327.654-.543-.089-.245-.302-.19-.84-.138a4.796 4.783 0 0 0-.208-.504c.47-.378.634-.512.501-.701-.15-.216-.343-.104-.858.087a4.796 4.783 0 0 0-.33-.427c.347-.492.468-.666.288-.812-.201-.164-.356-.009-.788.31a4.796 4.783 0 0 0-.438-.335c.23-.562.31-.76.102-.861-.24-.118-.352.078-.726.51a4.796 4.783 0 0 0-.495-.204c.052-.615.07-.827-.16-.863-.26-.039-.313.176-.528.679a4.796 4.783 0 0 0-.544-.068c-.091-.602-.123-.813-.355-.793zm-.192 1.47c.531-.01 1.162.086 1.367.175.891.272 1.715.771 2.417 1.934.131.216.225.426.267.618.042.202.027.436-.104.621-.111.147-.25.286-.443.304-.6.056-1.414.024-2.057.017-.108-.001-.211-.045-.242-.079-.19-.12-.319-.38-.53-.454-.34-.157-.477-.025-.669-.26a33.284 33.284 0 0 1-1.005-1.722c-.227-.395-.077-.79.264-1.002.134-.104.417-.147.735-.152zM5.92 5.769c.028 0 .056 0 .084.003.183.025.371.077.481.237.344.495.716 1.22 1.025 1.784.052.094.065.206.05.25-.01.225-.175.464-.135.685.03.373.212.428.1.71a32.669 32.669 0 0 1-1.007 1.72c-.232.392-.65.455-1.002.262-.416-.175-.974-1.487-1.01-1.842-.202-.91-.171-1.873.497-3.056.125-.22.262-.405.409-.536a.83.83 0 0 1 .508-.217zm2.567 2.507a.37.37 0 0 1 .002 0 .37.37 0 0 1 .37.37.37.37 0 0 1-.37.37.37.37 0 0 1-.37-.37.37.37 0 0 1 .368-.37zm2.184.804c.333.002.665.009.993.021.455.006.718.335.727.738.057.447-.8 1.587-1.09 1.796-.687.63-1.537 1.084-2.895 1.096a2.122 2.122 0 0 1-.668-.085c-.195-.066-.389-.2-.482-.406-.07-.17-.119-.36-.036-.535.258-.546.7-1.23 1.033-1.78.056-.092.146-.159.191-.168.2-.103.49-.08.662-.225.308-.212.264-.397.564-.442.333-.008.667-.011 1-.01z" opacity=".06" stroke-width=".529"/><path d="M8.477 3.083c-.263.022-.262.245-.357.793a4.796 4.783 0 0 0-.53.073c-.234-.564-.316-.76-.536-.686-.254.086-.195.304-.155.874a4.796 4.783 0 0 0-.493.203c-.394-.475-.529-.64-.718-.504-.215.155-.1.346.1.863a4.796 4.783 0 0 0-.427.33c-.496-.367-.667-.495-.819-.316-.171.202-.012.359.311.819a4.796 4.783 0 0 0-.322.418c-.52-.194-.712-.307-.863-.09-.135.191.032.324.51.71a4.796 4.783 0 0 0-.206.496c-.547-.052-.762-.11-.852.137-.079.218.114.305.665.548a4.796 4.783 0 0 0-.068.525c-.54.104-.762.11-.779.372-.014.228.194.259.772.335a4.796 4.783 0 0 0 .077.558c-.495.217-.709.273-.667.531.037.23.248.21.855.154a4.796 4.783 0 0 0 .214.516c-.423.328-.614.435-.512.673.093.215.293.143.873-.062a4.796 4.783 0 0 0 .313.405c-.32.468-.478.627-.303.828.153.175.322.047.806-.321a4.796 4.783 0 0 0 .429.33c-.194.54-.31.734-.09.886.194.133.325-.035.711-.524l-.094-.056a4.796 4.783 0 0 0 .563.24c-.038.555-.091.772.16.856.217.073.3-.12.523-.663a4.796 4.783 0 0 0 .543.072c.102.614.135.825.37.802.262-.026.258-.248.344-.794a4.796 4.783 0 0 0 .547-.072c.226.55.308.744.527.671.25-.083.197-.3.16-.855a4.796 4.783 0 0 0 .497-.202c.375.474.507.64.699.508.217-.149.107-.342-.081-.86a4.796 4.783 0 0 0 .443-.338c.464.352.633.475.783.303.17-.196.021-.356-.282-.797a4.796 4.783 0 0 0 .324-.414c.566.2.766.27.857.057.102-.237-.087-.345-.505-.668a4.796 4.783 0 0 0 .22-.52c.595.055.806.073.843-.155.041-.255-.17-.313-.655-.525a4.796 4.783 0 0 0 .071-.565c.573-.075.78-.107.765-.334-.017-.26-.236-.268-.762-.369a4.796 4.783 0 0 0-.074-.533c.541-.24.733-.327.654-.543-.089-.245-.302-.19-.84-.138a4.796 4.783 0 0 0-.208-.504c.47-.378.634-.512.501-.701-.15-.216-.343-.104-.858.087a4.796 4.783 0 0 0-.33-.427c.347-.492.468-.666.288-.812-.201-.164-.356-.009-.788.31a4.796 4.783 0 0 0-.438-.335c.23-.562.31-.76.102-.861-.24-.118-.352.078-.726.51a4.796 4.783 0 0 0-.495-.204c.052-.615.07-.827-.16-.863-.26-.039-.313.176-.528.679a4.796 4.783 0 0 0-.544-.068c-.091-.602-.123-.813-.355-.793zm-.192 1.47c.531-.01 1.162.086 1.367.175.891.272 1.715.771 2.417 1.934.131.216.225.426.267.618.042.202.027.436-.104.621-.111.147-.25.286-.443.304-.6.056-1.414.024-2.057.017-.108-.001-.211-.045-.242-.079-.19-.12-.319-.38-.53-.454-.34-.157-.477-.025-.669-.26a33.284 33.284 0 0 1-1.005-1.722c-.227-.395-.077-.79.264-1.002.134-.104.417-.147.735-.152zM5.92 5.769c.028 0 .056 0 .084.003.183.025.371.077.481.237.344.495.716 1.22 1.025 1.784.052.094.065.206.05.25-.01.225-.175.464-.135.685.03.373.212.428.1.71a32.669 32.669 0 0 1-1.007 1.72c-.232.392-.65.455-1.002.262-.416-.175-.974-1.487-1.01-1.842-.202-.91-.171-1.873.497-3.056.125-.22.262-.405.409-.536a.83.83 0 0 1 .508-.217zm2.567 2.507a.37.37 0 0 1 .002 0 .37.37 0 0 1 .37.37.37.37 0 0 1-.37.37.37.37 0 0 1-.37-.37.37.37 0 0 1 .368-.37zm2.184.804c.333.002.665.009.993.021.455.006.718.335.727.738.057.447-.8 1.587-1.09 1.796-.687.63-1.537 1.084-2.895 1.096a2.122 2.122 0 0 1-.668-.085c-.195-.066-.389-.2-.482-.406-.07-.17-.119-.36-.036-.535.258-.546.7-1.23 1.033-1.78.056-.092.146-.159.191-.168.2-.103.49-.08.662-.225.308-.212.264-.397.564-.442.333-.008.667-.011 1-.01z" opacity=".07" stroke-width=".265"/></g><path d="M8.477 3.083c-.263.022-.262.245-.357.793a4.796 4.783 0 0 0-.53.073c-.234-.564-.316-.76-.536-.686-.254.086-.195.304-.155.874a4.796 4.783 0 0 0-.493.203c-.394-.475-.529-.64-.718-.504-.215.155-.1.346.1.863a4.796 4.783 0 0 0-.427.33c-.496-.367-.667-.495-.819-.316-.171.202-.012.359.311.819a4.796 4.783 0 0 0-.322.418c-.52-.194-.712-.307-.863-.09-.135.191.032.324.51.71a4.796 4.783 0 0 0-.206.496c-.547-.052-.762-.11-.852.137-.079.218.114.305.665.548a4.796 4.783 0 0 0-.068.525c-.54.104-.762.11-.779.372-.014.228.194.259.772.335a4.796 4.783 0 0 0 .077.558c-.495.217-.709.273-.667.531.037.23.248.21.855.154a4.796 4.783 0 0 0 .214.516c-.423.328-.614.435-.512.673.093.215.293.143.873-.062a4.796 4.783 0 0 0 .313.405c-.32.468-.478.627-.303.828.153.175.322.047.806-.321a4.796 4.783 0 0 0 .429.33c-.194.54-.31.734-.09.886.194.133.325-.035.711-.524l-.094-.056a4.796 4.783 0 0 0 .563.24c-.038.555-.091.772.16.856.217.073.3-.12.523-.663a4.796 4.783 0 0 0 .543.072c.102.614.135.825.37.802.262-.026.258-.248.344-.794a4.796 4.783 0 0 0 .547-.072c.226.55.308.744.527.671.25-.083.197-.3.16-.855a4.796 4.783 0 0 0 .497-.202c.375.474.507.64.699.508.217-.149.107-.342-.081-.86a4.796 4.783 0 0 0 .443-.338c.464.352.633.475.783.303.17-.196.021-.356-.282-.797a4.796 4.783 0 0 0 .324-.414c.566.2.766.27.857.057.102-.237-.087-.345-.505-.668a4.796 4.783 0 0 0 .22-.52c.595.055.806.073.843-.155.041-.255-.17-.313-.655-.525a4.796 4.783 0 0 0 .071-.565c.573-.075.78-.107.765-.334-.017-.26-.236-.268-.762-.369a4.796 4.783 0 0 0-.074-.533c.541-.24.733-.327.654-.543-.089-.245-.302-.19-.84-.138a4.796 4.783 0 0 0-.208-.504c.47-.378.634-.512.501-.701-.15-.216-.343-.104-.858.087a4.796 4.783 0 0 0-.33-.427c.347-.492.468-.666.288-.812-.201-.164-.356-.009-.788.31a4.796 4.783 0 0 0-.438-.335c.23-.562.31-.76.102-.861-.24-.118-.352.078-.726.51a4.796 4.783 0 0 0-.495-.204c.052-.615.07-.827-.16-.863-.26-.039-.313.176-.528.679a4.796 4.783 0 0 0-.544-.068c-.091-.602-.123-.813-.355-.793zm-.192 1.47c.531-.01 1.162.086 1.367.175.891.272 1.715.771 2.417 1.934.131.216.225.426.267.618.042.202.027.436-.104.621-.111.147-.25.286-.443.304-.6.056-1.414.024-2.057.017-.108-.001-.211-.045-.242-.079-.19-.12-.319-.38-.53-.454-.34-.157-.477-.025-.669-.26a33.284 33.284 0 0 1-1.005-1.722c-.227-.395-.077-.79.264-1.002.134-.104.417-.147.735-.152zM5.92 5.769c.028 0 .056 0 .084.003.183.025.371.077.481.237.344.495.716 1.22 1.025 1.784.052.094.065.206.05.25-.01.225-.175.464-.135.685.03.373.212.428.1.71a32.669 32.669 0 0 1-1.007 1.72c-.232.392-.65.455-1.002.262-.416-.175-.974-1.487-1.01-1.842-.202-.91-.171-1.873.497-3.056.125-.22.262-.405.409-.536a.83.83 0 0 1 .508-.217zm2.567 2.507a.37.37 0 0 1 .002 0 .37.37 0 0 1 .37.37.37.37 0 0 1-.37.37.37.37 0 0 1-.37-.37.37.37 0 0 1 .368-.37zm2.184.804c.333.002.665.009.993.021.455.006.718.335.727.738.057.447-.8 1.587-1.09 1.796-.687.63-1.537 1.084-2.895 1.096a2.122 2.122 0 0 1-.668-.085c-.195-.066-.389-.2-.482-.406-.07-.17-.119-.36-.036-.535.258-.546.7-1.23 1.033-1.78.056-.092.146-.159.191-.168.2-.103.49-.08.662-.225.308-.212.264-.397.564-.442.333-.008.667-.011 1-.01z" opacity=".25"/><path d="M8.455 2.904c-.263.022-.262.245-.356.792a4.796 4.783 0 0 0-.53.073c-.234-.563-.316-.76-.537-.685-.253.086-.194.303-.155.874a4.796 4.783 0 0 0-.492.203c-.394-.476-.53-.64-.719-.504-.214.155-.1.345.101.863a4.796 4.783 0 0 0-.428.33c-.496-.367-.667-.495-.818-.316-.172.202-.012.359.31.819a4.796 4.783 0 0 0-.322.417c-.52-.193-.711-.306-.863-.09-.134.192.032.325.511.71a4.796 4.783 0 0 0-.207.496c-.547-.052-.761-.11-.851.138-.08.217.114.304.664.548a4.796 4.783 0 0 0-.068.525c-.54.104-.762.11-.778.372-.015.228.193.259.772.334a4.796 4.783 0 0 0 .077.559c-.496.217-.71.273-.668.53.037.23.249.21.855.154a4.796 4.783 0 0 0 .214.517c-.422.327-.614.434-.511.673.092.214.293.142.872-.062a4.796 4.783 0 0 0 .313.404c-.319.469-.478.627-.303.828.153.176.322.047.807-.32a4.796 4.783 0 0 0 .428.33c-.194.54-.31.734-.09.886.194.133.325-.036.712-.524l-.095-.056a4.796 4.783 0 0 0 .563.24c-.037.555-.09.772.16.856.217.072.3-.12.523-.663a4.796 4.783 0 0 0 .543.072c.103.614.136.825.37.802.262-.026.258-.249.344-.795a4.796 4.783 0 0 0 .547-.072c.226.55.309.745.527.672.25-.084.197-.3.16-.855a4.796 4.783 0 0 0 .498-.203c.375.474.507.64.698.509.217-.15.107-.342-.08-.86a4.796 4.783 0 0 0 .442-.339c.464.353.634.476.784.304.17-.196.02-.356-.283-.798a4.796 4.783 0 0 0 .324-.413c.566.2.766.27.858.057.102-.237-.088-.345-.505-.668a4.796 4.783 0 0 0 .219-.52c.596.055.807.073.843-.155.041-.256-.17-.314-.655-.526a4.796 4.783 0 0 0 .072-.565c.572-.075.779-.106.764-.333-.016-.26-.235-.268-.762-.37a4.796 4.783 0 0 0-.073-.533c.54-.239.732-.326.654-.542-.09-.245-.303-.19-.84-.139a4.796 4.783 0 0 0-.208-.504c.47-.378.633-.511.5-.7-.15-.216-.342-.105-.858.087a4.796 4.783 0 0 0-.33-.427c.348-.492.469-.666.289-.812-.202-.164-.357-.009-.789.31a4.796 4.783 0 0 0-.437-.335c.23-.563.31-.76.101-.862-.24-.118-.352.079-.725.51a4.796 4.783 0 0 0-.496-.203c.052-.616.071-.828-.16-.863-.26-.04-.312.176-.528.679a4.796 4.783 0 0 0-.543-.068c-.092-.603-.124-.813-.356-.793zm-.191 1.47c.53-.01 1.161.085 1.366.174.891.272 1.716.772 2.418 1.934.13.217.224.427.267.619.042.201.026.436-.104.62-.112.148-.25.287-.443.304-.6.056-1.415.025-2.057.018-.109-.001-.212-.045-.243-.08-.19-.12-.318-.38-.53-.454-.34-.157-.477-.025-.668-.26a33.284 33.284 0 0 1-1.006-1.722c-.226-.394-.077-.789.265-1.002.133-.103.416-.146.735-.152zM5.897 5.59a.59.59 0 0 1 .084.003c.183.025.372.077.482.236.344.496.715 1.221 1.025 1.784.052.095.064.207.05.25-.011.225-.176.465-.136.686.03.372.212.427.101.71a33.81 33.81 0 0 1-1.007 1.72c-.233.391-.65.455-1.003.262-.415-.175-.974-1.487-1.01-1.842-.201-.91-.17-1.874.498-3.056.124-.22.262-.405.408-.536a.83.83 0 0 1 .508-.217zm2.567 2.507a.37.37 0 0 1 .002 0 .37.37 0 0 1 .37.37.37.37 0 0 1-.37.369.37.37 0 0 1-.37-.37.37.37 0 0 1 .368-.37zm2.184.804c.333.002.665.009.993.02.455.007.719.336.728.738.056.448-.8 1.587-1.09 1.797-.688.629-1.538 1.084-2.895 1.096a2.122 2.122 0 0 1-.669-.085c-.195-.067-.388-.2-.481-.406-.07-.17-.12-.36-.036-.536.257-.545.7-1.23 1.033-1.779.056-.092.146-.16.19-.168.201-.103.49-.08.662-.226.308-.212.265-.397.565-.442.332-.007.667-.01 1-.009z" fill="url(#b)"/></svg>