<svg width="64" height="64" version="1.1" xmlns="http://www.w3.org/2000/svg">
 <defs>
  <linearGradient id="f" x1="99.036" x2="99.036" y1="-.50472" y2="199.84" gradientTransform="matrix(.24 0 0 .24 8 7.968)" gradientUnits="userSpaceOnUse">
   <stop stop-color="#5cf5a4" offset="0"/>
   <stop stop-color="#1dab77" offset="1"/>
  </linearGradient>
  <linearGradient id="e" x1="24.586" x2="24.586" y1="12.173" y2="35.946" gradientTransform="matrix(1.462 0 0 1.462 -3.068 -3.3022)" gradientUnits="userSpaceOnUse">
   <stop stop-color="#fff" offset="0"/>
   <stop stop-color="#e8e8e8" offset="1"/>
  </linearGradient>
  <linearGradient id="linearGradient899" x1="7.9373" x2="7.9373" y1="15.081" y2="1.852" gradientTransform="matrix(3.7796 0 0 3.7796 -.0010004 .0302)" gradientUnits="userSpaceOnUse">
   <stop stop-color="#daf6ed" offset="0"/>
   <stop stop-color="#fbfffd" offset="1"/>
  </linearGradient>
  <filter id="filter936" x="-.036256" y="-.070997" width="1.0725" height="1.142" color-interpolation-filters="sRGB">
   <feGaussianBlur stdDeviation="0.7251228"/>
  </filter>
 </defs>
 <g transform="scale(3.7796)" shape-rendering="auto">
  <path d="m4.3693 0.52916c-2.1142 0-3.8402 1.7835-3.8402 3.9682v8.4675c0 2.1846 1.726 3.9682 3.8402 3.9682h8.1944c2.1142 0 3.8402-1.7835 3.8402-3.9682v-8.4675c0-2.1846-1.726-3.9682-3.8402-3.9682zm0.25704 0.52089h7.6808c1.8443 0 3.3291 1.5342 3.3291 3.44v7.9368c0 1.9058-1.4847 3.44-3.3291 3.44h-7.6808c-1.8443 0-3.3291-1.5342-3.3291-3.44v-7.9368c0-1.9058 1.4847-3.44 3.3291-3.44z" color="#000000" color-rendering="auto" dominant-baseline="auto" image-rendering="auto" opacity=".01" solid-color="#000000" stop-color="#000000" style="font-feature-settings:normal;font-variant-alternates:normal;font-variant-caps:normal;font-variant-east-asian:normal;font-variant-ligatures:normal;font-variant-numeric:normal;font-variant-position:normal;font-variation-settings:normal;inline-size:0;isolation:auto;mix-blend-mode:normal;shape-margin:0;shape-padding:0;text-decoration-color:#000000;text-decoration-line:none;text-decoration-style:solid;text-indent:0;text-orientation:mixed;text-transform:none;white-space:normal"/>
  <path d="m4.3587 0.79373c-1.9668 0-3.5639 1.6528-3.5639 3.6876v8.4996c0 2.0348 1.5971 3.6876 3.5639 3.6876h8.2162c1.9668 0 3.5644-1.6528 3.5644-3.6876v-8.4996c0-2.0348-1.5976-3.6876-3.5644-3.6876zm0.27222 0.25631h7.6718c1.8422 0 3.3251 1.5342 3.3251 3.44v7.9368c0 1.9058-1.483 3.44-3.3251 3.44h-7.6718c-1.8422 0-3.3251-1.5342-3.3251-3.44v-7.9368c0-1.9058 1.483-3.44 3.3251-3.44z" color="#000000" color-rendering="auto" dominant-baseline="auto" image-rendering="auto" opacity=".01" solid-color="#000000" stop-color="#000000" style="font-feature-settings:normal;font-variant-alternates:normal;font-variant-caps:normal;font-variant-east-asian:normal;font-variant-ligatures:normal;font-variant-numeric:normal;font-variant-position:normal;font-variation-settings:normal;inline-size:0;isolation:auto;mix-blend-mode:normal;shape-margin:0;shape-padding:0;text-decoration-color:#000000;text-decoration-line:none;text-decoration-style:solid;text-indent:0;text-orientation:mixed;text-transform:none;white-space:normal"/>
  <path d="m4.3097 1.0583c-1.8657 0-3.3751 1.5383-3.3751 3.439v8.4675c0 1.9007 1.57 3.439 3.4357 3.439h8.1996c1.8657 0 3.4274-1.5383 3.4274-3.439v-8.4675c0-1.9007-1.51-3.439-3.3756-3.439h-0.09688c1.794 0.086515 3.2138 1.5819 3.2138 3.4318v7.9368c0 1.9058-1.5059 3.44-3.3766 3.44h-7.7905c-1.8707 0-3.3766-1.5342-3.3766-3.44v-7.9368c0-1.8498 1.4199-3.3451 3.2138-3.4318z" color="#000000" color-rendering="auto" dominant-baseline="auto" image-rendering="auto" opacity=".03" solid-color="#000000" stop-color="#000000" style="font-feature-settings:normal;font-variant-alternates:normal;font-variant-caps:normal;font-variant-east-asian:normal;font-variant-ligatures:normal;font-variant-numeric:normal;font-variant-position:normal;font-variation-settings:normal;inline-size:0;isolation:auto;mix-blend-mode:normal;shape-margin:0;shape-padding:0;text-decoration-color:#000000;text-decoration-line:none;text-decoration-style:solid;text-indent:0;text-orientation:mixed;text-transform:none;white-space:normal"/>
  <path transform="scale(.26458)" d="m4 46.969v2.0312c0 6.6479 5.8957 12 12.544 12h30.961c6.6479 0 12.495-5.3521 12.495-12v-1.9922c-0.02117 7.1849-5.81 12.963-13 12.963h-29.998c-7.2032 0-13.002-5.7987-13.002-13.002z" color="#000000" color-rendering="auto" dominant-baseline="auto" image-rendering="auto" opacity=".03" solid-color="#000000" stop-color="#000000" style="font-feature-settings:normal;font-variant-alternates:normal;font-variant-caps:normal;font-variant-east-asian:normal;font-variant-ligatures:normal;font-variant-numeric:normal;font-variant-position:normal;font-variation-settings:normal;inline-size:0;isolation:auto;mix-blend-mode:normal;shape-margin:0;shape-padding:0;text-decoration-color:#000000;text-decoration-line:none;text-decoration-style:solid;text-indent:0;text-orientation:mixed;text-transform:none;white-space:normal"/>
  <path d="m1.0583 11.906v0.59234c0 1.9386 1.5729 3.4993 3.3318 3.4993h8.1603c1.7589 0 3.3243-1.5608 3.3243-3.4993v-0.58095c-0.0056 2.0952-1.5372 3.7801-3.4395 3.7801h-7.9368c-1.9058 0-3.44-1.691-3.44-3.7915z" color="#000000" color-rendering="auto" dominant-baseline="auto" image-rendering="auto" opacity=".05" solid-color="#000000" stop-color="#000000" style="font-feature-settings:normal;font-variant-alternates:normal;font-variant-caps:normal;font-variant-east-asian:normal;font-variant-ligatures:normal;font-variant-numeric:normal;font-variant-position:normal;font-variation-settings:normal;inline-size:0;isolation:auto;mix-blend-mode:normal;shape-margin:0;shape-padding:0;text-decoration-color:#000000;text-decoration-line:none;text-decoration-style:solid;text-indent:0;text-orientation:mixed;text-transform:none;white-space:normal"/>
 </g>
 <path d="m17.001 3.999c-7.2032 0-13.002 5.7987-13.002 13.002v29.998c0 7.2032 5.7987 13.002 13.002 13.002h29.998c7.2032 0 13.002-5.7987 13.002-13.002v-29.998c0-7.2032-5.7987-13.002-13.002-13.002z" fill="url(#linearGradient899)" stroke-width="3.7796"/>
 <path d="m55.994 32.488c-0.26564 13.062-12.325 18.583-23.994 18.583-11.79-2.64e-4 -23.715-5.5074-23.994-18.559-0.00361 0.16274-0.00556 0.3255-0.00586 0.48828 0 13.255 10.745 24 24 24s24-10.745 24-24c-1.48e-4 -0.17059-0.0021-0.34117-0.0059-0.51172z" color="#000000" filter="url(#filter936)" opacity=".15" stroke-width=".8"/>
 <circle cx="32" cy="32" r="24" color="#000000" fill="url(#f)" stroke-width=".8"/>
 <path d="m25.199 14.67c-0.4333-0.01224-0.84208 0.02777-1.1133 0.11914-1.3304 0.45614-2.165 1.4373-2.627 3.0762-0.39912 1.4284-0.38737 4 0.0293 6.2383 0.0731 0.38889 0.14652 0.74181 0.16406 0.79883 0.02193 0.08041-0.11939 0.13212-0.74805 0.27539-3.0731 0.70175-5.3181 1.7458-6.666 3.1055-0.60526 0.60526-0.94032 1.1366-1.1348 1.8047-0.13743 0.46345-0.13743 1.3822 0 1.8398 0.37719 1.2573 1.4388 2.4391 3.1172 3.4844 1.1652 0.7193 1.5134 0.79907 1.8906 0.42188 0.1769-0.1769 0.2168-0.26262 0.2168-0.47461 0-0.41082-0.12558-0.5763-0.67383-0.89062-3.4371-1.9357-4.0434-3.8764-1.748-5.6016 1.1652-0.87427 2.7934-1.565 4.9863-2.1016 0.96052-0.23392 1.1777-0.2644 1.1777-0.13867 0 0.17105 0.70677 2.4336 1.0723 3.4102l0.37695 1.0215-0.49609 0.95898c-1.9868 3.8377-3.2625 7.7502-3.416 10.611-0.12573 2.2047 0.27534 3.7812 1.2461 4.7578 1.0614 1.0629 2.5584 1.2908 4.4824 0.67383 0.72514-0.23392 2.1647-0.96547 3.0039-1.5371 0.60526-0.40497 0.736-0.52434 0.81641-0.73633s0.08041-0.28168 0-0.50391c-0.11988-0.33187-0.37079-0.51367-0.71289-0.51367-0.22222 0-0.37563 0.06814-0.94726 0.45703-1.2968 0.88012-2.5132 1.4286-3.5234 1.5996-1.3991 0.23977-2.2962-0.37786-2.707-1.8398-0.1769-0.6345-0.16515-2.6656 0.0293-3.7168 0.29678-1.6725 0.8159-3.4088 1.5586-5.2363 0.44006-1.0848 1.2785-2.9016 1.3926-3.0215 0.05702-0.06287 0.13172 0.0404 0.32031 0.47461 0.96052 2.1579 2.4286 4.7898 3.8613 6.9199 3.421 5.0789 7.1663 8.3857 10.051 8.8594l-0.03125 0.0059c1.2675 0.20468 2.3366-0.11002 3.1641-0.9375 0.67398-0.68567 1.1196-1.6501 1.3711-2.9922 0.15351-0.83918 0.15351-3.1883 0-4.3359-0.46784-3.421-1.7131-7.3436-3.5801-11.25-0.29094-0.61111-0.45484-0.75976-0.83203-0.75976-0.42251-0.0058-0.76562 0.31965-0.76562 0.73047 0 0.14328 0.14305 0.53029 0.38281 1.0391 2.3012 4.905 3.5359 9.6512 3.4102 13.084-0.07749 2.0453-0.58978 3.2744-1.5547 3.748-0.50731 0.25-1.1472 0.24556-1.9922-0.0293-3.8787-1.3129-9.1336-7.8809-12.52-15.648l-0.33594-0.77539 0.49024-0.83984c0.55409-0.95322 1.9549-3.0828 2.5996-3.957l0.43359-0.58203h1.1406c6.94 0 13.812 1.5696 17.455 3.9746 0.74269 0.49123 1.6372 1.3892 1.9062 1.9141 0.19444 0.3655 0.21289 0.46189 0.21289 0.94726 0 0.47515-0.01838 0.58797-0.17774 0.87891-0.4459 0.85672-1.6216 1.7483-3.1348 2.3828-0.70175 0.29678-0.89062 0.49152-0.89062 0.89648 0 0.3421 0.22429 0.62813 0.56055 0.73047 0.21784 0.06287 0.2908 0.05195 0.67969-0.10156 2.4444-0.96637 4.1169-2.4693 4.459-3.9883 0.09649-0.41082 0.09063-1.1829-0.0059-1.582-0.18275-0.78362-0.83349-1.787-1.582-2.4609-3.3348-2.9927-10.41-4.9228-18.805-5.123l-0.59961-0.01758 0.70117-0.78906c0.37719-0.44006 1.0517-1.1708 1.5137-1.6387 2.3874-2.4269 4.6034-4.0135 6.5391-4.6758 0.61696-0.21637 0.74246-0.24023 1.3828-0.24023 0.59503 0 0.73683 0.01686 0.99414 0.14844 0.34942 0.1652 0.74307 0.57008 0.94336 0.95312 0.39327 0.78216 0.52453 2.1552 0.33594 3.6172-0.06287 0.50292-0.11523 1.0849-0.11523 1.2852 0 0.33772 0.01259 0.38753 0.20703 0.55274 0.15936 0.14912 0.26652 0.18945 0.47266 0.18945 0.33187 0 0.64032-0.1782 0.73242-0.41797 0.27339-0.7076 0.41518-3.2145 0.23828-4.2715-0.27485-1.6228-0.96994-2.7193-2.0781-3.25-1.9591-0.94737-4.8024-0.02214-8.1211 2.6387-1.7354 1.3933-4.0197 3.7574-5.5957 5.7793l-0.1543 0.18359-0.93164 0.05078c-0.78216 0.04532-2.0556 0.17076-3.5352 0.34766l-0.32031 0.03906-0.13672-0.78125c-0.26754-1.5585-0.29102-1.792-0.29102-3.2832 0-1.3085 0.01685-1.5611 0.14258-2.0859 0.30848-1.3246 0.92101-2.1473 1.7266-2.3184 1.1082-0.23392 2.4842 0.32116 4.4141 1.7539 0.61696 0.46345 1.3655 0.06888 1.2734-0.66211-0.03947-0.31871-0.33005-0.59357-1.3125-1.25-0.8231-0.55409-1.7476-1.0122-2.502-1.2344-0.37134-0.11111-0.82842-0.17526-1.2617-0.1875zm1.0039 11.244c0.28189-0.01814 0.46875-0.02156 0.46875 0 0 0.02924-0.26187 0.43453-0.58789 0.91406-0.32602 0.47368-0.78758 1.1697-1.0273 1.5645v2e-3c-0.23392 0.38304-0.46444 0.73008-0.50977 0.78125-0.06286 0.06725-0.15435-0.11551-0.43359-1.0059-0.39912-1.2281-0.5707-1.8902-0.51953-1.9473 0.0636-0.06469 1.7637-0.25418 2.6094-0.30859zm6.5469 4.4043c-1.2105 0-2.1914 0.98674-2.1914 2.1973s0.98088 2.1934 2.1914 2.1934 2.1934-0.98284 2.1934-2.1934-0.98284-2.1973-2.1934-2.1973z" fill="url(#e)" stroke-width="23.301"/>
 <path d="m31.789 8a24 24 0 0 0-23.789 24 24 24 0 0 0 0.0058594 0.51172 24 24 0 0 1 23.994-23.512 24 24 0 0 1 23.994 23.488 24 24 0 0 0 0.005859-0.48828 24 24 0 0 0-24-24 24 24 0 0 0-0.21094 0z" color="#000000" fill="#fff" opacity=".1" stroke-width=".8"/>
</svg>
