<svg xmlns="http://www.w3.org/2000/svg" xmlns:xlink="http://www.w3.org/1999/xlink" width="128" height="128" viewBox="0 0 33.867 33.867"><defs><linearGradient id="a"><stop offset="0" style="stop-color:#fff;stop-opacity:1"/><stop offset="1" style="stop-color:#fff;stop-opacity:0"/></linearGradient><linearGradient id="b" x1="32.228" x2="32.228" y1="4.61" y2="59.593" gradientTransform="translate(.074 -.04)scale(.52884)" gradientUnits="userSpaceOnUse"><stop offset="0" stop-color="#525252"/><stop offset="1"/></linearGradient><linearGradient xlink:href="#a" id="c" x1="15.105" x2="5.535" y1="10.038" y2="45.754" gradientUnits="userSpaceOnUse"/></defs><g style="opacity:.295" transform="translate(-65.685 -37.254)scale(.97573)"><rect width="29.811" height="29.811" x="69.84" y="40.71" rx="6.61" ry="6.61" style="fill:none;fill-opacity:1;stroke:#000;stroke-width:.1;stroke-linecap:round;stroke-linejoin:round;stroke-miterlimit:4;stroke-dasharray:none;stroke-opacity:.02"/><rect width="29.811" height="29.811" x="69.84" y="40.71" rx="6.61" ry="6.61" style="fill:none;fill-opacity:1;stroke:#000;stroke-width:.2;stroke-linecap:round;stroke-linejoin:round;stroke-miterlimit:4;stroke-dasharray:none;stroke-opacity:.02"/><rect width="29.811" height="29.811" x="69.84" y="40.71" rx="6.61" ry="6.61" style="fill:none;fill-opacity:1;stroke:#000;stroke-width:.3;stroke-linecap:round;stroke-linejoin:round;stroke-miterlimit:4;stroke-dasharray:none;stroke-opacity:.02"/><rect width="29.811" height="29.811" x="69.84" y="40.71" rx="6.61" ry="6.61" style="fill:none;fill-opacity:1;stroke:#000;stroke-width:.4;stroke-linecap:round;stroke-linejoin:round;stroke-miterlimit:4;stroke-dasharray:none;stroke-opacity:.02"/><rect width="29.811" height="29.811" x="69.84" y="40.71" rx="6.61" ry="6.61" style="fill:none;fill-opacity:1;stroke:#000;stroke-width:.5;stroke-linecap:round;stroke-linejoin:round;stroke-miterlimit:4;stroke-dasharray:none;stroke-opacity:.02"/><rect width="29.811" height="29.811" x="69.84" y="40.71" rx="6.61" ry="6.61" style="fill:none;fill-opacity:1;stroke:#000;stroke-width:.6;stroke-linecap:round;stroke-linejoin:round;stroke-miterlimit:4;stroke-dasharray:none;stroke-opacity:.02"/><rect width="29.811" height="29.811" x="69.84" y="40.71" rx="6.61" ry="6.61" style="fill:none;fill-opacity:1;stroke:#000;stroke-width:.7;stroke-linecap:round;stroke-linejoin:round;stroke-miterlimit:4;stroke-dasharray:none;stroke-opacity:.02"/><rect width="29.811" height="29.811" x="69.84" y="40.71" rx="6.61" ry="6.61" style="fill:none;fill-opacity:1;stroke:#000;stroke-width:.8;stroke-linecap:round;stroke-linejoin:round;stroke-miterlimit:4;stroke-dasharray:none;stroke-opacity:.02"/><rect width="29.811" height="29.811" x="69.84" y="40.71" rx="6.61" ry="6.61" style="fill:none;fill-opacity:1;stroke:#000;stroke-width:1;stroke-linecap:round;stroke-linejoin:round;stroke-miterlimit:4;stroke-dasharray:none;stroke-opacity:.02"/><rect width="29.811" height="29.811" x="69.84" y="40.71" rx="6.61" ry="6.61" style="fill:none;fill-opacity:1;stroke:#000;stroke-width:1.2;stroke-linecap:round;stroke-linejoin:round;stroke-miterlimit:4;stroke-dasharray:none;stroke-opacity:.02"/><rect width="29.811" height="29.811" x="69.84" y="40.71" rx="6.61" ry="6.61" style="fill:none;fill-opacity:1;stroke:#000;stroke-width:1.4;stroke-linecap:round;stroke-linejoin:round;stroke-miterlimit:4;stroke-dasharray:none;stroke-opacity:.02"/><rect width="29.811" height="29.811" x="69.84" y="40.71" rx="6.61" ry="6.61" style="fill:none;fill-opacity:1;stroke:#000;stroke-width:1.6;stroke-linecap:round;stroke-linejoin:round;stroke-miterlimit:4;stroke-dasharray:none;stroke-opacity:.02"/><rect width="29.811" height="29.811" x="69.84" y="40.71" rx="6.61" ry="6.61" style="fill:none;fill-opacity:1;stroke:#000;stroke-width:1.8;stroke-linecap:round;stroke-linejoin:round;stroke-miterlimit:4;stroke-dasharray:none;stroke-opacity:.02"/><rect width="29.811" height="29.811" x="69.84" y="40.71" rx="6.61" ry="6.61" style="fill:none;fill-opacity:1;stroke:#000;stroke-width:2;stroke-linecap:round;stroke-linejoin:round;stroke-miterlimit:4;stroke-dasharray:none;stroke-opacity:.02"/><rect width="29.811" height="29.811" x="69.84" y="40.71" rx="6.61" ry="6.61" style="fill:none;fill-opacity:1;stroke:#000;stroke-width:2.2;stroke-linecap:round;stroke-linejoin:round;stroke-miterlimit:4;stroke-dasharray:none;stroke-opacity:.02"/><rect width="29.811" height="29.811" x="69.84" y="40.71" rx="6.61" ry="6.61" style="fill:none;fill-opacity:1;stroke:#000;stroke-width:2.6;stroke-linecap:round;stroke-linejoin:round;stroke-miterlimit:4;stroke-dasharray:none;stroke-opacity:.02"/><rect width="29.811" height="29.811" x="69.84" y="40.71" rx="6.61" ry="6.61" style="fill:none;fill-opacity:1;stroke:#000;stroke-width:3;stroke-linecap:round;stroke-linejoin:round;stroke-miterlimit:4;stroke-dasharray:none;stroke-opacity:.02"/><rect width="29.811" height="29.811" x="69.84" y="40.71" rx="6.61" ry="6.61" style="fill:none;fill-opacity:1;stroke:#000;stroke-width:3.4;stroke-linecap:round;stroke-linejoin:round;stroke-miterlimit:4;stroke-dasharray:none;stroke-opacity:.02"/><rect width="29.811" height="29.811" x="69.84" y="40.71" rx="6.61" ry="6.61" style="fill:none;fill-opacity:1;stroke:#000;stroke-width:3.8;stroke-linecap:round;stroke-linejoin:round;stroke-miterlimit:4;stroke-dasharray:none;stroke-opacity:.02"/><rect width="29.811" height="29.811" x="69.84" y="40.71" rx="6.61" ry="6.61" style="fill:none;fill-opacity:1;stroke:#000;stroke-width:4.2;stroke-linecap:round;stroke-linejoin:round;stroke-miterlimit:4;stroke-dasharray:none;stroke-opacity:.02"/><rect width="29.811" height="29.811" x="69.84" y="40.71" rx="6.61" ry="6.61" style="fill:none;fill-opacity:1;stroke:#000;stroke-width:4.6;stroke-linecap:round;stroke-linejoin:round;stroke-miterlimit:4;stroke-dasharray:none;stroke-opacity:.02"/><rect width="29.811" height="29.811" x="69.84" y="40.71" rx="6.61" ry="6.61" style="fill:none;fill-opacity:1;stroke:#000;stroke-width:5;stroke-linecap:round;stroke-linejoin:round;stroke-miterlimit:4;stroke-dasharray:none;stroke-opacity:.02"/></g><path d="M9.328 2.34a6.86 6.86 0 0 0-6.875 6.874V24.55a6.86 6.86 0 0 0 6.875 6.875h15.337a6.86 6.86 0 0 0 6.875-6.875V9.214a6.86 6.86 0 0 0-6.875-6.875z" style="fill:url(#b);stroke-width:.528835"/><path d="M16.208 28.046c-.075-.074-.138-.183-.138-.242 0-.078-.033-.094-.12-.056-.067.03-.39.066-.72.081l-.598.028-.11-.205c-.097-.184-.129-.199-.285-.141-.43.159-.858.035-.858-.248 0-.175 0-.175-.44-.131-.253.025-.52.015-.626-.024-.156-.058-.181-.102-.163-.286l.022-.218-.42-.033c-.494-.04-.666-.147-.607-.378.037-.144.019-.16-.19-.161q-.432-.006-.535-.377c-.043-.157-.085-.187-.233-.17-.28.032-.431-.247-.416-.772.012-.42-.021-.49-.165-.35-.041.04-.148.062-.238.05-.208-.03-.254-.358-.103-.726.122-.295.096-.343-.158-.294q-.501.098-.242-.708c.045-.14.035-.155-.08-.11-.276.11-.338.079-.36-.176a1 1 0 0 1 .122-.52c.148-.282.142-.296-.118-.275-.252.02-.261-.174-.026-.542.119-.185.216-.36.216-.388s-.078-.087-.173-.129c-.22-.097-.218-.243.007-.558.19-.267.175-.393-.048-.393-.288 0-.255-.368.071-.766.164-.2.198-.295.167-.464a.65.65 0 0 0-.17-.324c-.072-.061-.13-.169-.13-.239 0-.136.277-.42.534-.55.184-.091.197-.217.044-.443-.103-.153-.102-.179.004-.336a1 1 0 0 1 .342-.276.94.94 0 0 0 .349-.304c.114-.189.114-.204-.005-.332-.198-.212-.018-.45.455-.607.493-.162.616-.277.497-.463-.173-.27.002-.442.574-.565.301-.064.38-.151.334-.372-.034-.163-.01-.206.147-.276.167-.074.183-.11.147-.321-.102-.588-.123-.927-.06-.965.037-.022.164-.005.282.038.118.044.231.062.252.042s.004-.267-.04-.548c-.043-.282-.058-.618-.033-.748.042-.217.066-.237.285-.237.276 0 .268.034.136-.57-.132-.608-.13-.68.025-.83.252-.246.291-.858.114-1.757-.145-.736-.11-1.137.1-1.137.07 0 .19.076.265.168.156.193.256.213.315.062.079-.198.043-.367-.156-.752-.222-.426-.422-1.03-.422-1.268s.158-.19.57.176c.388.346.71.863.91 1.463q.286.85.35-.288c.03-.517.061-.634.173-.634.13 0 .274.411.417 1.184.128.692.141.93.1 1.846-.027.578-.027 1.12 0 1.204l.051.153.159-.194.159-.193.049.19c.027.104.033.66.013 1.236-.019.576-.02 1.085-.004 1.131.078.211.459.005.513-.278q.074-.383.546-.08c.16.104.388.215.506.248.181.05.231.037.33-.09.109-.14.133-.145.346-.06.43.17.506.144.487-.168-.012-.181.018-.305.086-.36.06-.048.106-.201.109-.36.002-.153.028-.336.057-.407.033-.084-.029-.356-.178-.771-.377-1.055-.278-1.725.185-1.246q.343.354.345-.061c0-.148-.147-.507-.414-1.013-.561-1.062-.557-1.33.014-.978.393.242.772.678 1.124 1.292.385.67.48.68.431.045-.064-.826.164-.974.5-.325.33.633.416 1.07.49 2.481.038.72.096 1.335.13 1.369.038.036.112-.039.184-.185.232-.474.348-.2.41.964.05.975.046.959.276.857.162-.072.198-.063.313.075.071.086.13.24.13.342 0 .285.17.386.413.246.177-.101.207-.102.303-.01.058.057.125.216.148.353.064.383.155.552.299.552.18 0 .272.126.324.447.067.405.13.479.292.337.301-.265.502.071.328.549a3 3 0 0 0-.106.323c0 .016.14.009.31-.016.291-.043.31-.036.31.108a.45.45 0 0 1-.103.265c-.162.173-.064.536.144.536.092 0 .194.059.237.137.061.11.042.197-.1.445-.22.38-.22.397.007.504.253.12.264.205.06.441-.212.245-.22.324-.038.37.156.04.19.306.057.436-.062.06-.051.11.046.215.105.113.113.164.047.304a.6.6 0 0 1-.252.245c-.198.088-.222.202-.067.326.08.066.095.158.06.394-.053.355-.132.476-.309.476-.192 0-.215.101-.064.288.237.292.117.549-.185.397-.158-.08-.299-.034-.299.097 0 .055.08.233.178.395.217.36.203.592-.04.623-.27.035-.305.118-.146.335.188.258.192.525.008.582-.176.055-.175.197.005.443.174.237.15.422-.057.45-.193.027-.195.09-.01.253.27.238.303.371.125.502-.142.104-.15.137-.077.294.182.387.055.77-.21.632-.157-.082-.144-.096-.247.254-.063.213-.13.295-.283.347-.127.043-.21.123-.223.217-.035.229-.228.317-.387.177-.183-.161-.205-.148-.257.155-.045.258-.185.469-.31.469-.033 0-.124-.08-.202-.176-.16-.198-.328-.177-.363.047a.36.36 0 0 1-.144.223c-.1.06-.15.038-.287-.128l-.166-.201-.2.184c-.22.204-.416.239-.477.084-.056-.141-.146-.126-.382.067-.112.092-.25.167-.305.167s-.13-.075-.165-.167c-.037-.092-.078-.168-.094-.168a5 5 0 0 0-.425.171c-.467.201-.73.194-.826-.021q-.07-.15-.173-.108c-.524.221-.694.257-.83.174-.114-.07-.214-.066-.545.017-.532.134-.668.13-.833-.032z" style="fill:url(#c);stroke-width:.397874;fill-opacity:1"/><path d="M18.92 21.43q-.136-.002-.273.025c-.765.15-1.674.705-2.16 1.317-.359.452-.556.98-.604 1.616l-.035.473.362.385c.611.65 1.252.857 2.552.824.58-.015.781-.047 1.01-.162.385-.193.553-.417.65-.869.101-.477.048-2.006-.086-2.47-.197-.68-.782-1.133-1.416-1.14m.7 1.58c.151 0 .177.03.177.207 0 .148-.039.218-.132.242-.122.03-.125.05-.035.26.12.276.128.965.015 1.205-.153.326-.716.488-1.193.345-.332-.1-.447-.291-.448-.745-.002-.812.746-1.514 1.616-1.514" style="opacity:.2;stroke-width:.397874"/><path d="M18.92 21.031q-.136 0-.273.026c-.765.15-1.674.705-2.16 1.317-.359.453-.556.98-.604 1.616l-.035.473.362.385c.611.65 1.252.857 2.552.824.58-.015.781-.047 1.01-.162.385-.193.553-.417.65-.869.101-.477.048-2.006-.086-2.47-.197-.68-.782-1.133-1.416-1.14m.7 1.581c.151 0 .177.03.177.207 0 .148-.039.218-.132.242-.122.03-.125.05-.035.26.12.276.128.965.015 1.205-.153.326-.716.489-1.193.345-.332-.1-.447-.29-.448-.745-.002-.812.746-1.514 1.616-1.514" style="fill:#131313;stroke-width:.397874;fill-opacity:1"/><path d="M19.13 24.483c.479-.212.398-1.133-.1-1.133-.237 0-.613.418-.612.681.001.257.046.34.24.447.176.097.264.098.472.005" style="fill:#fff;stroke-width:.397874"/><path d="M23.678 25.533c.196-.145.277-.78.239-1.885-.036-1.05-.128-1.474-.348-1.604-.104-.06-.153-.04-.286.12-.241.291-.648 1.385-.656 1.764-.001.043.089-.01.2-.118.142-.138.269-.196.431-.196.21 0 .244.03.393.345.187.396.178.928-.017 1.118-.235.228-.952.063-1.03-.237-.017-.065-.02-.018-.008.105.028.284.131.404.477.557.328.145.442.15.605.031" style="opacity:.2;stroke-width:.397874"/><path d="M23.678 25.135c.196-.145.277-.78.239-1.885-.036-1.05-.128-1.474-.348-1.603-.104-.061-.153-.04-.286.12-.241.29-.648 1.384-.656 1.763-.001.043.089-.01.2-.117.142-.139.269-.197.431-.197.21 0 .244.03.393.345.187.396.178.928-.017 1.118-.235.228-.952.063-1.03-.237-.017-.065-.02-.018-.008.105.028.284.131.404.477.557.328.145.442.15.605.031" style="fill:#131313;stroke-width:.397874;fill-opacity:1"/><path d="M23.414 24.385c.154-.15.134-.394-.051-.603-.207-.234-.436-.178-.519.126-.09.329.026.583.266.583a.5.5 0 0 0 .304-.105" style="fill:#fff;stroke-width:.397874"/></svg>