<?xml version="1.0" encoding="UTF-8" standalone="no"?>
<svg
   width="128"
   height="128"
   viewBox="0 0 33.866666 33.866668"
   version="1.1"
   id="svg1500"
   inkscape:version="1.1.2 (0a00cf5339, 2022-02-04)"
   sodipodi:docname="badland.svg"
   xmlns:inkscape="http://www.inkscape.org/namespaces/inkscape"
   xmlns:sodipodi="http://sodipodi.sourceforge.net/DTD/sodipodi-0.dtd"
   xmlns:xlink="http://www.w3.org/1999/xlink"
   xmlns="http://www.w3.org/2000/svg"
   xmlns:svg="http://www.w3.org/2000/svg"
   xmlns:rdf="http://www.w3.org/1999/02/22-rdf-syntax-ns#"
   xmlns:cc="http://creativecommons.org/ns#"
   xmlns:dc="http://purl.org/dc/elements/1.1/">
  <defs
     id="defs1494">
    <linearGradient
       inkscape:collect="always"
       id="linearGradient2554">
      <stop
         style="stop-color:#ffffff;stop-opacity:1;"
         offset="0"
         id="stop2550" />
      <stop
         style="stop-color:#ffffff;stop-opacity:0;"
         offset="1"
         id="stop2552" />
    </linearGradient>
    <linearGradient
       gradientTransform="matrix(0.52883532,0,0,0.52883532,0.0739541,-0.04053188)"
       id="b-3"
       gradientUnits="userSpaceOnUse"
       x1="32.228001"
       x2="32.228001"
       y1="4.6100001"
       y2="59.592999">
      <stop
         offset="0"
         stop-color="#525252"
         id="stop2-6" />
      <stop
         offset="1"
         id="stop4-7" />
    </linearGradient>
    <linearGradient
       gradientTransform="matrix(0.02871047,0,0,0.02871047,2.5261637,2.2546141)"
       id="c-5"
       gradientUnits="userSpaceOnUse"
       x1="548.22198"
       x2="728.22198"
       y1="295.892"
       y2="918.55798">
      <stop
         offset="0"
         stop-color="#d5e7ec"
         id="stop7-3" />
      <stop
         offset=".229"
         stop-color="#cadbde"
         id="stop9-5" />
      <stop
         offset=".666"
         stop-color="#9fa5a1"
         id="stop11" />
      <stop
         offset="1"
         stop-color="#868685"
         id="stop13" />
    </linearGradient>
    <linearGradient
       gradientTransform="matrix(0.02871047,0,0,0.02871047,2.5261637,2.2546141)"
       id="d-6"
       gradientUnits="userSpaceOnUse"
       x1="616.677"
       x2="720.677"
       xlink:href="#a-2"
       y1="616.94202"
       y2="934.94202" />
    <linearGradient
       id="a-2">
      <stop
         offset="0"
         stop-color="#535555"
         id="stop16" />
      <stop
         offset=".078"
         stop-color="#606262"
         id="stop18" />
      <stop
         offset=".271"
         stop-color="#7a7b7b"
         id="stop20-9" />
      <stop
         offset=".47"
         stop-color="#8c8d8d"
         id="stop22-1" />
      <stop
         offset=".677"
         stop-color="#979898"
         id="stop24" />
      <stop
         offset=".902"
         stop-color="#9b9c9c"
         id="stop26" />
    </linearGradient>
    <linearGradient
       gradientTransform="matrix(0.02871047,0,0,0.02871047,2.5261637,2.2546141)"
       id="e-2"
       gradientUnits="userSpaceOnUse"
       x1="560.41699"
       x2="560.41699"
       y1="318.677"
       y2="970.04498">
      <stop
         offset="0"
         stop-color="#d5e7ec"
         id="stop30-7" />
      <stop
         offset=".252"
         stop-color="#c5d4d7"
         id="stop32-0" />
      <stop
         offset=".751"
         stop-color="#989d9e"
         id="stop34" />
      <stop
         offset="1"
         stop-color="#818076"
         id="stop36" />
    </linearGradient>
    <linearGradient
       gradientTransform="matrix(0.02871047,0,0,0.02871047,2.5261637,2.2546141)"
       id="f-9"
       gradientUnits="userSpaceOnUse"
       x1="527.086"
       x2="527.086"
       xlink:href="#a-2"
       y1="649"
       y2="970.03699" />
    <linearGradient
       gradientTransform="matrix(0.02871047,0,0,0.02871047,2.5261637,2.2546141)"
       id="g-3"
       gradientUnits="userSpaceOnUse"
       x1="562.59998"
       x2="217.43201"
       y1="321.423"
       y2="990.64301">
      <stop
         offset="0"
         stop-color="#d5e6eb"
         id="stop40-6" />
      <stop
         offset=".252"
         stop-color="#c3d2d3"
         id="stop42-0" />
      <stop
         offset=".751"
         stop-color="#989d9e"
         id="stop44" />
      <stop
         offset="1"
         stop-color="#868685"
         id="stop46" />
    </linearGradient>
    <linearGradient
       gradientTransform="matrix(0.02871047,0,0,0.02871047,2.5261637,2.2546141)"
       id="h-6"
       gradientUnits="userSpaceOnUse"
       x1="672.19702"
       x2="582.07098"
       y1="153.623"
       y2="183.217">
      <stop
         offset=".015"
         stop-color="#afb5b8"
         id="stop49-2" />
      <stop
         offset=".573"
         stop-color="#a3abaf"
         id="stop51-6" />
      <stop
         offset="1"
         stop-color="#97a1a5"
         id="stop53" />
    </linearGradient>
    <linearGradient
       gradientTransform="matrix(0.02871047,0,0,0.02871047,2.5261637,2.2546141)"
       id="i-1"
       gradientUnits="userSpaceOnUse"
       x1="406.97601"
       x2="556.47601"
       y1="104.929"
       y2="417.92899">
      <stop
         offset="0"
         stop-color="#c0cdce"
         id="stop56" />
      <stop
         offset=".238"
         stop-color="#b1bcbd"
         id="stop58" />
      <stop
         offset=".71"
         stop-color="#888f90"
         id="stop60-8" />
      <stop
         offset="1"
         stop-color="#6d7171"
         id="stop62-7" />
    </linearGradient>
    <linearGradient
       gradientTransform="matrix(0.02871047,0,0,0.02871047,2.5261637,2.2546141)"
       id="j-9"
       gradientUnits="userSpaceOnUse"
       x1="526.67999"
       x2="531.42999"
       y1="401.496"
       y2="420.746">
      <stop
         offset="0"
         stop-color="#989b9b"
         id="stop65-2" />
      <stop
         offset=".46"
         stop-color="#878a8a"
         id="stop67-0" />
      <stop
         offset="1"
         stop-color="#6d7171"
         id="stop69" />
    </linearGradient>
    <linearGradient
       gradientTransform="matrix(0.02871047,0,0,0.02871047,2.5261637,2.2546141)"
       id="k-2"
       gradientUnits="userSpaceOnUse"
       x1="388.30099"
       x2="667.75098"
       y1="174.45399"
       y2="174.45399">
      <stop
         offset="0"
         stop-color="#c9cfd0"
         id="stop72-3" />
      <stop
         offset=".591"
         stop-color="#b8bfc1"
         id="stop74-7" />
      <stop
         offset="1"
         stop-color="#a9b2b4"
         id="stop76-5" />
    </linearGradient>
    <linearGradient
       inkscape:collect="always"
       xlink:href="#linearGradient2554"
       id="linearGradient2556"
       x1="15.104504"
       y1="10.038132"
       x2="5.5345106"
       y2="45.753834"
       gradientUnits="userSpaceOnUse" />
  </defs>
  <sodipodi:namedview
     id="base"
     pagecolor="#ffffff"
     bordercolor="#666666"
     borderopacity="1.0"
     inkscape:pageopacity="0.0"
     inkscape:pageshadow="2"
     inkscape:zoom="0.7"
     inkscape:cx="-152.85714"
     inkscape:cy="-124.28571"
     inkscape:document-units="mm"
     inkscape:current-layer="layer1"
     inkscape:document-rotation="0"
     showgrid="false"
     units="px"
     inkscape:window-width="1514"
     inkscape:window-height="941"
     inkscape:window-x="50"
     inkscape:window-y="27"
     inkscape:window-maximized="0"
     inkscape:pagecheckerboard="0" />
  <metadata
     id="metadata1497">
    <rdf:RDF>
      <cc:Work
         rdf:about="">
        <dc:format>image/svg+xml</dc:format>
        <dc:type
           rdf:resource="http://purl.org/dc/dcmitype/StillImage" />
      </cc:Work>
    </rdf:RDF>
  </metadata>
  <g
     inkscape:label="Capa 1"
     inkscape:groupmode="layer"
     id="layer1">
    <g
       id="g1702"
       transform="matrix(0.97573206,0,0,0.97573206,-65.685032,-37.254228)"
       style="opacity:0.295">
      <rect
         style="fill:none;fill-opacity:1;stroke:#000000;stroke-width:0.1;stroke-linecap:round;stroke-linejoin:round;stroke-miterlimit:4;stroke-dasharray:none;stroke-opacity:0.02"
         id="rect1634"
         width="29.810888"
         height="29.810888"
         x="69.839508"
         y="40.709618"
         rx="6.6098609"
         ry="6.6098609" />
      <rect
         ry="6.6098609"
         rx="6.6098609"
         y="40.709618"
         x="69.839508"
         height="29.810888"
         width="29.810888"
         id="rect1638"
         style="fill:none;fill-opacity:1;stroke:#000000;stroke-width:0.2;stroke-linecap:round;stroke-linejoin:round;stroke-miterlimit:4;stroke-dasharray:none;stroke-opacity:0.02" />
      <rect
         style="fill:none;fill-opacity:1;stroke:#000000;stroke-width:0.3;stroke-linecap:round;stroke-linejoin:round;stroke-miterlimit:4;stroke-dasharray:none;stroke-opacity:0.02"
         id="rect1640"
         width="29.810888"
         height="29.810888"
         x="69.839508"
         y="40.709618"
         rx="6.6098609"
         ry="6.6098609" />
      <rect
         ry="6.6098609"
         rx="6.6098609"
         y="40.709618"
         x="69.839508"
         height="29.810888"
         width="29.810888"
         id="rect1642"
         style="fill:none;fill-opacity:1;stroke:#000000;stroke-width:0.4;stroke-linecap:round;stroke-linejoin:round;stroke-miterlimit:4;stroke-dasharray:none;stroke-opacity:0.02" />
      <rect
         style="fill:none;fill-opacity:1;stroke:#000000;stroke-width:0.5;stroke-linecap:round;stroke-linejoin:round;stroke-miterlimit:4;stroke-dasharray:none;stroke-opacity:0.02"
         id="rect1644"
         width="29.810888"
         height="29.810888"
         x="69.839508"
         y="40.709618"
         rx="6.6098609"
         ry="6.6098609" />
      <rect
         ry="6.6098609"
         rx="6.6098609"
         y="40.709618"
         x="69.839508"
         height="29.810888"
         width="29.810888"
         id="rect1646"
         style="fill:none;fill-opacity:1;stroke:#000000;stroke-width:0.6;stroke-linecap:round;stroke-linejoin:round;stroke-miterlimit:4;stroke-dasharray:none;stroke-opacity:0.02" />
      <rect
         style="fill:none;fill-opacity:1;stroke:#000000;stroke-width:0.7;stroke-linecap:round;stroke-linejoin:round;stroke-miterlimit:4;stroke-dasharray:none;stroke-opacity:0.02"
         id="rect1648"
         width="29.810888"
         height="29.810888"
         x="69.839508"
         y="40.709618"
         rx="6.6098609"
         ry="6.6098609" />
      <rect
         ry="6.6098609"
         rx="6.6098609"
         y="40.709618"
         x="69.839508"
         height="29.810888"
         width="29.810888"
         id="rect1650"
         style="fill:none;fill-opacity:1;stroke:#000000;stroke-width:0.8;stroke-linecap:round;stroke-linejoin:round;stroke-miterlimit:4;stroke-dasharray:none;stroke-opacity:0.02" />
      <rect
         style="fill:none;fill-opacity:1;stroke:#000000;stroke-width:1;stroke-linecap:round;stroke-linejoin:round;stroke-miterlimit:4;stroke-dasharray:none;stroke-opacity:0.02"
         id="rect1652"
         width="29.810888"
         height="29.810888"
         x="69.839508"
         y="40.709618"
         rx="6.6098609"
         ry="6.6098609" />
      <rect
         ry="6.6098609"
         rx="6.6098609"
         y="40.709618"
         x="69.839508"
         height="29.810888"
         width="29.810888"
         id="rect1654"
         style="fill:none;fill-opacity:1;stroke:#000000;stroke-width:1.2;stroke-linecap:round;stroke-linejoin:round;stroke-miterlimit:4;stroke-dasharray:none;stroke-opacity:0.02" />
      <rect
         style="fill:none;fill-opacity:1;stroke:#000000;stroke-width:1.4;stroke-linecap:round;stroke-linejoin:round;stroke-miterlimit:4;stroke-dasharray:none;stroke-opacity:0.02"
         id="rect1656"
         width="29.810888"
         height="29.810888"
         x="69.839508"
         y="40.709618"
         rx="6.6098609"
         ry="6.6098609" />
      <rect
         ry="6.6098609"
         rx="6.6098609"
         y="40.709618"
         x="69.839508"
         height="29.810888"
         width="29.810888"
         id="rect1658"
         style="fill:none;fill-opacity:1;stroke:#000000;stroke-width:1.6;stroke-linecap:round;stroke-linejoin:round;stroke-miterlimit:4;stroke-dasharray:none;stroke-opacity:0.02" />
      <rect
         style="fill:none;fill-opacity:1;stroke:#000000;stroke-width:1.8;stroke-linecap:round;stroke-linejoin:round;stroke-miterlimit:4;stroke-dasharray:none;stroke-opacity:0.02"
         id="rect1660"
         width="29.810888"
         height="29.810888"
         x="69.839508"
         y="40.709618"
         rx="6.6098609"
         ry="6.6098609" />
      <rect
         ry="6.6098609"
         rx="6.6098609"
         y="40.709618"
         x="69.839508"
         height="29.810888"
         width="29.810888"
         id="rect1662"
         style="fill:none;fill-opacity:1;stroke:#000000;stroke-width:2;stroke-linecap:round;stroke-linejoin:round;stroke-miterlimit:4;stroke-dasharray:none;stroke-opacity:0.02" />
      <rect
         style="fill:none;fill-opacity:1;stroke:#000000;stroke-width:2.2;stroke-linecap:round;stroke-linejoin:round;stroke-miterlimit:4;stroke-dasharray:none;stroke-opacity:0.02"
         id="rect1664"
         width="29.810888"
         height="29.810888"
         x="69.839508"
         y="40.709618"
         rx="6.6098609"
         ry="6.6098609" />
      <rect
         ry="6.6098609"
         rx="6.6098609"
         y="40.709618"
         x="69.839508"
         height="29.810888"
         width="29.810888"
         id="rect1666"
         style="fill:none;fill-opacity:1;stroke:#000000;stroke-width:2.6;stroke-linecap:round;stroke-linejoin:round;stroke-miterlimit:4;stroke-dasharray:none;stroke-opacity:0.02" />
      <rect
         style="fill:none;fill-opacity:1;stroke:#000000;stroke-width:3;stroke-linecap:round;stroke-linejoin:round;stroke-miterlimit:4;stroke-dasharray:none;stroke-opacity:0.02"
         id="rect1668"
         width="29.810888"
         height="29.810888"
         x="69.839508"
         y="40.709618"
         rx="6.6098609"
         ry="6.6098609" />
      <rect
         ry="6.6098609"
         rx="6.6098609"
         y="40.709618"
         x="69.839508"
         height="29.810888"
         width="29.810888"
         id="rect1670"
         style="fill:none;fill-opacity:1;stroke:#000000;stroke-width:3.4;stroke-linecap:round;stroke-linejoin:round;stroke-miterlimit:4;stroke-dasharray:none;stroke-opacity:0.02" />
      <rect
         style="fill:none;fill-opacity:1;stroke:#000000;stroke-width:3.8;stroke-linecap:round;stroke-linejoin:round;stroke-miterlimit:4;stroke-dasharray:none;stroke-opacity:0.02"
         id="rect1672"
         width="29.810888"
         height="29.810888"
         x="69.839508"
         y="40.709618"
         rx="6.6098609"
         ry="6.6098609" />
      <rect
         ry="6.6098609"
         rx="6.6098609"
         y="40.709618"
         x="69.839508"
         height="29.810888"
         width="29.810888"
         id="rect1674"
         style="fill:none;fill-opacity:1;stroke:#000000;stroke-width:4.2;stroke-linecap:round;stroke-linejoin:round;stroke-miterlimit:4;stroke-dasharray:none;stroke-opacity:0.02" />
      <rect
         style="fill:none;fill-opacity:1;stroke:#000000;stroke-width:4.6;stroke-linecap:round;stroke-linejoin:round;stroke-miterlimit:4;stroke-dasharray:none;stroke-opacity:0.02"
         id="rect1676"
         width="29.810888"
         height="29.810888"
         x="69.839508"
         y="40.709618"
         rx="6.6098609"
         ry="6.6098609" />
      <rect
         ry="6.6098609"
         rx="6.6098609"
         y="40.709618"
         x="69.839508"
         height="29.810888"
         width="29.810888"
         id="rect1678"
         style="fill:none;fill-opacity:1;stroke:#000000;stroke-width:5;stroke-linecap:round;stroke-linejoin:round;stroke-miterlimit:4;stroke-dasharray:none;stroke-opacity:0.02" />
    </g>
    <path
       id="path79"
       d="m 9.328044,2.3392271 c -3.8086717,0 -6.8748586,3.0661869 -6.8748586,6.8748586 V 24.550311 c 0,3.808672 3.0661869,6.874859 6.8748586,6.874859 h 15.337283 c 3.808671,0 6.874858,-3.066187 6.874858,-6.874859 V 9.2140857 c 0,-3.8086717 -3.066187,-6.8748586 -6.874858,-6.8748586 z"
       style="fill:url(#b-3);stroke-width:0.528835"
       inkscape:connector-curvature="0" />
    <path
       style="fill:url(#linearGradient2556);stroke-width:0.397874;fill-opacity:1"
       d="m 16.208415,28.045549 c -0.0759,-0.07379 -0.138002,-0.182675 -0.138002,-0.241968 0,-0.07796 -0.03343,-0.09327 -0.120738,-0.05529 -0.0664,0.02889 -0.390073,0.06522 -0.71924,0.08074 l -0.598805,0.02826 -0.109419,-0.205702 c -0.09741,-0.18313 -0.128874,-0.198624 -0.285701,-0.140664 -0.429627,0.158813 -0.857262,0.03495 -0.857262,-0.248349 0,-0.174456 -3.97e-4,-0.174567 -0.440964,-0.130678 -0.251899,0.02508 -0.520023,0.01473 -0.625379,-0.02424 -0.155406,-0.0573 -0.18095,-0.101847 -0.162649,-0.28567 l 0.02165,-0.218031 -0.420794,-0.03341 c -0.493284,-0.03979 -0.665484,-0.146423 -0.606042,-0.377181 0.03732,-0.144032 0.01893,-0.159946 -0.190419,-0.161537 -0.28734,-0.0032 -0.465592,-0.128919 -0.534424,-0.377181 -0.0432,-0.156763 -0.08522,-0.186997 -0.232833,-0.170286 -0.2806559,0.03263 -0.4317729,-0.246679 -0.4167339,-0.771082 0.01203,-0.420952 -0.02076,-0.490978 -0.164397,-0.350922 -0.04122,0.03979 -0.148333,0.06286 -0.238085,0.05014 -0.207766,-0.02864 -0.254317,-0.357287 -0.102741,-0.725724 0.121506,-0.295218 0.09549,-0.342964 -0.158668,-0.293627 -0.333734,0.06445 -0.414347,-0.171083 -0.242143,-0.708217 0.04552,-0.140845 0.03524,-0.155172 -0.07958,-0.109817 -0.275724,0.109011 -0.338191,0.07878 -0.359995,-0.175857 -0.01308,-0.152784 0.03343,-0.350921 0.122153,-0.519623 0.148091,-0.282489 0.142122,-0.296811 -0.118573,-0.276123 -0.251531,0.01989 -0.260684,-0.173469 -0.02545,-0.541109 0.118528,-0.185366 0.215493,-0.360375 0.215493,-0.388895 0,-0.02852 -0.07763,-0.08624 -0.172491,-0.128272 -0.219709,-0.09734 -0.21799,-0.243026 0.0066,-0.558099 0.190197,-0.266836 0.174982,-0.393272 -0.04731,-0.393272 -0.288973,0 -0.255026,-0.367411 0.07079,-0.766029 0.163585,-0.200126 0.197645,-0.295043 0.166514,-0.463921 -0.02154,-0.116784 -0.09785,-0.262458 -0.169594,-0.323714 -0.07175,-0.06126 -0.130453,-0.168808 -0.130453,-0.239008 0,-0.135747 0.277314,-0.420673 0.534744,-0.549387 0.183662,-0.09185 0.196132,-0.218222 0.04382,-0.444226 -0.102818,-0.152556 -0.102542,-0.178529 0.0033,-0.335706 0.06315,-0.0937 0.217371,-0.217913 0.342725,-0.276026 0.125356,-0.05813 0.282042,-0.194757 0.348193,-0.303639 0.114813,-0.188962 0.114588,-0.204082 -0.0049,-0.3323 -0.197284,-0.211944 -0.018,-0.450674 0.4556469,-0.606719 0.492412,-0.162226 0.61599,-0.27738 0.496826,-0.462889 -0.173086,-0.269468 0.0022,-0.442118 0.573457,-0.564863 0.301649,-0.06482 0.379705,-0.151824 0.334267,-0.372684 -0.03358,-0.163194 -0.01071,-0.20612 0.147657,-0.276232 0.166697,-0.07386 0.18285,-0.109298 0.146211,-0.320826 -0.101836,-0.58806 -0.122827,-0.926731 -0.0598,-0.964609 0.03702,-0.02224 0.163809,-0.005 0.281763,0.03827 0.117956,0.04329 0.231687,0.06197 0.252727,0.04152 0.02104,-0.02045 0.0032,-0.267217 -0.03993,-0.54835 -0.04345,-0.281134 -0.05809,-0.617741 -0.03295,-0.748005 0.0417,-0.216757 0.06557,-0.23681 0.284397,-0.23681 0.276121,0 0.267846,0.03465 0.136077,-0.5702342 C 12.454567,9.3597608 12.456703,9.287984 12.611711,9.1372693 12.863523,8.8924452 12.903492,8.2798494 12.726314,7.3809312 12.5812,6.644624 12.616068,6.2444415 12.825364,6.2444415 c 0.07142,0 0.190913,0.075475 0.265546,0.1677089 0.156322,0.1932115 0.255814,0.2126433 0.315432,0.061595 0.07838,-0.1978641 0.04298,-0.3665625 -0.156763,-0.751626 -0.221218,-0.426004 -0.421747,-1.0292222 -0.421747,-1.2681064 0,-0.2381956 0.157863,-0.1893047 0.569358,0.1763511 0.389221,0.3458601 0.710962,0.8622741 0.911213,1.462548 0.189162,0.5670899 0.307139,0.4699292 0.349759,-0.2880654 0.02905,-0.5166412 0.06113,-0.6343328 0.172914,-0.6343328 0.129189,0 0.274227,0.4116021 0.417171,1.1839955 0.128092,0.6920238 0.140903,0.9311066 0.09888,1.8460205 -0.02655,0.578072 -0.02574,1.1200172 0.0018,1.2043657 l 0.05005,0.1533224 0.158875,-0.1937304 0.158879,-0.1937288 0.04898,0.1896941 c 0.02693,0.1043328 0.0331,0.6608311 0.01369,1.2366741 -0.01939,0.575804 -0.0213,1.084686 -0.0042,1.13084 0.07822,0.2111 0.458351,0.005 0.512663,-0.277912 0.04896,-0.255072 0.231844,-0.28169 0.546121,-0.07949 0.160714,0.103404 0.388362,0.214817 0.505899,0.247586 0.181332,0.05055 0.231359,0.0368 0.330439,-0.09092 0.108448,-0.139775 0.133039,-0.144032 0.345311,-0.05985 0.43074,0.17081 0.506773,0.144738 0.48704,-0.167009 -0.01142,-0.181539 0.01815,-0.305453 0.08625,-0.360398 0.0598,-0.04826 0.105821,-0.201058 0.108613,-0.360623 0.0028,-0.152291 0.02836,-0.335261 0.0571,-0.406627 0.03385,-0.08403 -0.02863,-0.3555618 -0.177346,-0.7707637 -0.377729,-1.0546058 -0.278499,-1.7252249 0.184388,-1.2461437 0.227913,0.2358647 0.344994,0.2152223 0.344994,-0.060828 0,-0.1474905 -0.146799,-0.5065342 -0.413989,-1.0125122 -0.560963,-1.0623247 -0.557025,-1.3305733 0.01444,-0.9782936 0.392697,0.2421339 0.771519,0.6774613 1.124075,1.2918194 0.384406,0.6698222 0.480435,0.6798478 0.431058,0.044948 -0.06421,-0.8255113 0.163561,-0.9737583 0.500167,-0.3254418 0.329159,0.6339735 0.415382,1.0713174 0.489387,2.4819825 0.03772,0.7191591 0.09666,1.3348691 0.131009,1.3682911 0.03725,0.03621 0.111085,-0.03847 0.183027,-0.18515 0.232258,-0.473552 0.348534,-0.199952 0.40977,0.96413 0.0513,0.975348 0.04614,0.959274 0.276297,0.857339 0.162234,-0.07187 0.197621,-0.06338 0.312813,0.07491 0.07143,0.08577 0.129897,0.239476 0.129897,0.341563 0,0.285312 0.169522,0.386642 0.412954,0.246829 0.177376,-0.101869 0.207471,-0.102829 0.303256,-0.0098 0.05848,0.05686 0.125055,0.21562 0.147942,0.352792 0.06386,0.382886 0.15516,0.551296 0.298878,0.551296 0.180266,0 0.271936,0.126167 0.324688,0.446893 0.06669,0.405512 0.130512,0.479159 0.292027,0.337051 0.300598,-0.264488 0.501203,0.07176 0.327766,0.549385 -0.05862,0.161445 -0.106582,0.306685 -0.106582,0.322752 0,0.01607 0.139716,0.0088 0.310489,-0.01605 0.290978,-0.04242 0.310489,-0.03564 0.310489,0.108007 0,0.0843 -0.04681,0.203556 -0.104021,0.265019 -0.1617,0.173724 -0.06388,0.536097 0.144708,0.536097 0.09203,0 0.193921,0.05901 0.236995,0.13725 0.06099,0.110799 0.0415,0.196482 -0.101075,0.444507 -0.21908,0.381104 -0.218826,0.397178 0.0079,0.504704 0.25283,0.119837 0.264296,0.204535 0.0597,0.440925 -0.211417,0.244282 -0.219463,0.32408 -0.03735,0.370385 0.155331,0.03949 0.190077,0.305588 0.05682,0.435155 -0.06221,0.0605 -0.05163,0.110663 0.04545,0.214938 0.105103,0.112903 0.113189,0.164656 0.04768,0.304448 -0.04341,0.09263 -0.157009,0.203007 -0.252439,0.245286 -0.197883,0.08765 -0.221421,0.20148 -0.06739,0.325783 0.08122,0.06553 0.09537,0.158013 0.06029,0.393941 -0.05272,0.354598 -0.131475,0.476018 -0.308794,0.476018 -0.192313,0 -0.214689,0.10114 -0.06369,0.287802 0.236525,0.292354 0.116979,0.548669 -0.185294,0.397265 -0.158354,-0.07933 -0.298632,-0.03385 -0.298632,0.09681 0,0.05491 0.07993,0.232459 0.177613,0.394528 0.217278,0.360472 0.202555,0.592236 -0.0396,0.623748 -0.269596,0.0351 -0.305668,0.117565 -0.146483,0.33492 0.188485,0.257365 0.192391,0.525036 0.0084,0.581772 -0.176652,0.05452 -0.175046,0.197024 0.005,0.442835 0.17393,0.237488 0.150444,0.421827 -0.05744,0.450673 -0.192495,0.02671 -0.195034,0.08985 -0.01027,0.252519 0.270224,0.237767 0.303702,0.371285 0.125806,0.501759 -0.142122,0.104231 -0.150827,0.137431 -0.07719,0.294559 0.181307,0.386889 0.05456,0.769172 -0.209477,0.631785 -0.15808,-0.08225 -0.144679,-0.09599 -0.247904,0.253856 -0.06295,0.213345 -0.129385,0.29479 -0.282909,0.346824 -0.126437,0.04286 -0.209055,0.123265 -0.223402,0.217442 -0.03481,0.22848 -0.227588,0.316841 -0.386404,0.177098 -0.183393,-0.161358 -0.20483,-0.148468 -0.25758,0.155089 -0.0448,0.257817 -0.184197,0.468257 -0.310179,0.468257 -0.03249,0 -0.122889,-0.07889 -0.200899,-0.175314 -0.160896,-0.19887 -0.328879,-0.177138 -0.363057,0.04697 -0.01248,0.0815 -0.0773,0.18146 -0.144137,0.222122 -0.100125,0.06092 -0.150795,0.03848 -0.287581,-0.127326 l -0.166037,-0.201246 -0.199173,0.184473 c -0.220154,0.203907 -0.416176,0.238356 -0.47717,0.08385 -0.05595,-0.141745 -0.146723,-0.12582 -0.382521,0.06709 -0.112196,0.0915 -0.249065,0.167102 -0.304768,0.167102 -0.05495,0 -0.129415,-0.07548 -0.165488,-0.167707 -0.03606,-0.09224 -0.07802,-0.167708 -0.09321,-0.167708 -0.01519,0 -0.206803,0.07703 -0.425805,0.171209 -0.466827,0.200724 -0.728866,0.193992 -0.825988,-0.0212 -0.04511,-0.09998 -0.104033,-0.136889 -0.172491,-0.108017 -0.52408,0.22096 -0.693853,0.256554 -0.829808,0.173986 -0.113835,-0.06911 -0.214339,-0.06593 -0.544809,0.01734 -0.532356,0.134122 -0.668231,0.128889 -0.833787,-0.03208 z"
       id="path2" />
    <path
       style="opacity:0.2;stroke-width:0.397874"
       d="m 18.92033,21.42929 c -0.09052,-8.76e-4 -0.182,0.0075 -0.273535,0.02565 -0.765073,0.150889 -1.67374,0.704675 -2.159785,1.317203 -0.358877,0.452264 -0.556108,0.979647 -0.604052,1.615571 l -0.03534,0.473231 0.362436,0.384662 c 0.611373,0.650406 1.251793,0.857102 2.551849,0.824078 0.579664,-0.01474 0.781545,-0.04711 1.01092,-0.162018 0.384662,-0.192679 0.552012,-0.416495 0.648496,-0.868402 0.101969,-0.477568 0.04901,-2.006045 -0.08548,-2.469967 -0.196976,-0.67949 -0.781903,-1.133703 -1.415558,-1.13999 z m 0.699781,1.580557 c 0.151233,0 0.176654,0.0296 0.176654,0.20748 0,0.147851 -0.03831,0.21741 -0.132213,0.241283 -0.121971,0.03101 -0.124227,0.05042 -0.0342,0.259935 0.118783,0.276416 0.127235,0.965404 0.01489,1.205242 -0.152812,0.326079 -0.715817,0.48859 -1.193307,0.345026 -0.331913,-0.0998 -0.44653,-0.290763 -0.447923,-0.744861 -0.0025,-0.812221 0.746294,-1.514111 1.616128,-1.514111 z"
       id="path4" />
    <path
       style="fill:#131313;stroke-width:0.397874;fill-opacity:1"
       d="m 18.92033,21.031414 c -0.09052,-8.75e-4 -0.182,0.0075 -0.273535,0.02564 -0.765073,0.150886 -1.67374,0.704676 -2.159785,1.317204 -0.358877,0.452265 -0.556108,0.979647 -0.604052,1.615569 l -0.03534,0.473234 0.362436,0.38466 c 0.611373,0.650407 1.251793,0.857103 2.551849,0.824079 0.579664,-0.01474 0.781545,-0.04711 1.01092,-0.162019 0.384662,-0.192678 0.552012,-0.416494 0.648496,-0.868401 0.101969,-0.47757 0.04901,-2.006045 -0.08548,-2.469966 -0.196976,-0.67949 -0.781903,-1.133705 -1.415558,-1.139992 z m 0.699781,1.580558 c 0.151233,0 0.176654,0.02959 0.176654,0.207481 0,0.147851 -0.03831,0.21741 -0.132213,0.241282 -0.121971,0.03101 -0.124227,0.05042 -0.0342,0.259936 0.118783,0.276415 0.127235,0.965403 0.01489,1.205242 -0.152812,0.326078 -0.715817,0.48859 -1.193307,0.345025 -0.331913,-0.0998 -0.44653,-0.290763 -0.447923,-0.744861 -0.0025,-0.812221 0.746294,-1.514113 1.616128,-1.514113 z"
       id="path6" />
    <path
       style="fill:#ffffff;stroke-width:0.397874"
       d="m 19.130407,24.483376 c 0.478286,-0.21188 0.397378,-1.132988 -0.09953,-1.132988 -0.238213,0 -0.61424,0.417689 -0.613007,0.680883 0.0013,0.25645 0.04572,0.339081 0.240431,0.446456 0.175739,0.09689 0.263836,0.09794 0.472119,0.0057 z"
       id="path8" />
    <path
       style="opacity:0.2;stroke-width:0.397874"
       d="m 23.677718,25.53297 c 0.196165,-0.144754 0.276869,-0.780431 0.239317,-1.88509 -0.03567,-1.049594 -0.127852,-1.474087 -0.348104,-1.603396 -0.10358,-0.06083 -0.153306,-0.03997 -0.28598,0.119865 -0.241236,0.29066 -0.648298,1.384286 -0.656414,1.763501 -9.55e-4,0.04328 0.08907,-0.0096 0.199999,-0.117399 0.142229,-0.138288 0.269476,-0.196086 0.431654,-0.196086 0.209677,0 0.2443,0.03041 0.392643,0.344794 0.186783,0.395858 0.178634,0.927765 -0.01713,1.118108 -0.234425,0.227923 -0.952035,0.06276 -1.02962,-0.236978 -0.01696,-0.06548 -0.02072,-0.01825 -0.0084,0.10496 0.02842,0.283298 0.131641,0.403564 0.477648,0.556587 0.327893,0.145009 0.442119,0.150905 0.604372,0.03116 z"
       id="path10" />
    <path
       style="fill:#131313;stroke-width:0.397874;fill-opacity:1"
       d="m 23.677718,25.135095 c 0.196165,-0.144753 0.276869,-0.780432 0.239317,-1.885091 -0.03567,-1.049594 -0.127852,-1.474085 -0.348104,-1.603395 -0.10358,-0.06083 -0.153306,-0.03999 -0.28598,0.119867 -0.241236,0.290658 -0.648298,1.384285 -0.656414,1.763499 -9.55e-4,0.04328 0.08907,-0.0096 0.199999,-0.117401 0.142229,-0.138287 0.269476,-0.196083 0.431654,-0.196083 0.209677,0 0.2443,0.03041 0.392643,0.344794 0.186783,0.395858 0.178634,0.927763 -0.01713,1.118107 -0.234425,0.227924 -0.952035,0.06276 -1.02962,-0.236978 -0.01696,-0.06548 -0.02072,-0.01823 -0.0084,0.10496 0.02842,0.283299 0.131641,0.403565 0.477648,0.556586 0.327893,0.145025 0.442119,0.150906 0.604372,0.03116 z"
       id="path12" />
    <path
       style="fill:#ffffff;stroke-width:0.397874"
       d="m 23.413529,24.385499 c 0.154626,-0.150347 0.134032,-0.394814 -0.05086,-0.603814 -0.206613,-0.233533 -0.435236,-0.17776 -0.51859,0.126512 -0.08994,0.328315 0.02606,0.582728 0.265696,0.582728 0.107432,0 0.2441,-0.04743 0.303741,-0.105412 z"
       id="path14" />
  </g>
</svg>
