<svg width="64" height="64" viewBox="0 0 16.933 16.933" xmlns:xlink="http://www.w3.org/1999/xlink" xmlns="http://www.w3.org/2000/svg"><defs><linearGradient id="a"><stop style="stop-color:#deb247;stop-opacity:1" offset="0"/><stop style="stop-color:#de7947;stop-opacity:1" offset="1"/></linearGradient><linearGradient id="c" x1="8.501" x2="8.489" y1="16.132" y2=".794" gradientUnits="userSpaceOnUse"><stop stop-color="#2e3440" offset="0" style="stop-color:#0c2622;stop-opacity:1"/><stop stop-color="#4c566a" offset="1" style="stop-color:#194d44;stop-opacity:1"/></linearGradient><linearGradient xlink:href="#a" id="d" x1="5.822" y1="5.441" x2="12.294" y2="13.421" gradientUnits="userSpaceOnUse" gradientTransform="translate(-1.324 -1.324) scale(1.15635)"/><filter id="b" x="-.048" y="-.048" width="1.096" height="1.096" color-interpolation-filters="sRGB"><feGaussianBlur stdDeviation=".307"/></filter></defs><g stroke-linecap="round" stroke-linejoin="round"><rect transform="matrix(.99138 0 0 1 .073 .112)" x=".794" y=".794" width="15.346" height="15.346" rx="3.053" ry="3.053" fill="#2e3440" filter="url(#b)" opacity=".2"/><rect x=".926" y=".926" width="15.081" height="15.081" rx="3" ry="3" fill="url(#c)" style="fill:url(#c)"/><path fill="none" opacity=".15" d="M.012.006h16.924v16.927H.012z"/></g><path style="fill:url(#d);fill-opacity:1;stroke-width:.00654318" d="M8.342 14.84c-1.332-.766-5.413-3.127-5.426-3.14a.182.182 0 0 1-.03-.037c-.01-.018-.01-.166-.008-2.034 0-1.109.004-2.538.006-3.177L2.89 5.29l.014-.026a.202.202 0 0 1 .032-.043c.01-.01.446-.264.968-.565.521-.301.96-.555.975-.565.014-.01.372-.216.795-.46L7.43 2.618l.99-.57h.092l2.73 1.575a466.15 466.15 0 0 1 2.751 1.595.19.19 0 0 1 .036.046l.014.026.005 1.162c.002.639.005 2.068.006 3.177.003 1.868.002 2.016-.008 2.034a.18.18 0 0 1-.03.037c-.014.014-5.408 3.133-5.491 3.176a.157.157 0 0 1-.061.01c-.04 0-.046-.002-.123-.047zm-.02-3.32V8.542L7.68 8.17a20.198 20.198 0 0 1-.669-.395.173.173 0 0 1-.034-.045.182.182 0 0 1-.002-.105.211.211 0 0 1 .074-.078.166.166 0 0 1 .121.004c.015.007.31.177.655.376.345.2.634.363.641.363.012 0 1.648-.939 1.665-.955.003-.002-.003-.01-.014-.018C10.065 7.281 5 4.362 4.99 4.362c-.01 0-1.623.925-1.662.954-.01.007.13.09 1.24.73.69.397 1.263.731 1.275.742.032.03.041.052.041.102 0 .062-.023.1-.079.128a.173.173 0 0 1-.105.004c-.01-.003-.579-.33-1.265-.727-.687-.396-1.251-.72-1.254-.72-.007 0-.014 1.688-.015 4.016l-.002 1.933 2.578 1.488 2.58 1.488s.002-1.34.002-2.98zm-2.417.698a.549.549 0 0 1-.257-.092c-.163-.119-.318-.323-.457-.604a1.846 1.846 0 0 1-.193-.655c0-.023.015-.126.033-.23.03-.173.037-.227.03-.227a.785.785 0 0 0-.05.023c-.213.097-.387.1-.544.01-.06-.035-.18-.15-.24-.232-.113-.15-.247-.39-.272-.484a.777.777 0 0 1-.014-.114c-.004-.07-.006-.078-.022-.099a2.813 2.813 0 0 1-.163-.255 2.897 2.897 0 0 1-.207-.54.605.605 0 0 1-.01-.111c-.001-.06 0-.07.019-.106.04-.078.096-.109.2-.108.091 0 .181.026.367.104.196.083.418.202.582.311.117.078.35.258.49.377.006.005.013.008.015.006a.719.719 0 0 0-.046-.207 1.044 1.044 0 0 1-.064-.351c0-.108.01-.152.048-.227a.336.336 0 0 1 .132-.136c.025-.013.03-.019.027-.03a1.548 1.548 0 0 0-.15-.257c-.08-.12-.084-.128-.087-.165a.23.23 0 0 1 .001-.055.225.225 0 0 1 .077-.086.191.191 0 0 1 .116 0c.032.016.078.073.151.184.08.121.14.236.172.33.02.056.024.064.044.074l.108.053a1.864 1.864 0 0 1 .223.129c.015.009.017.008.037-.013a.408.408 0 0 1 .128-.082.674.674 0 0 1 .184-.05c.065 0 .13.055.133.112.002.07-.003.088-.04.126-.02.02-.035.029-.095.047-.078.025-.115.044-.115.059a.48.48 0 0 0 .05.081.896.896 0 0 1 .174.501.57.57 0 0 1-.068.286.683.683 0 0 0-.041.114.747.747 0 0 0-.002.233c.005.005.05.022.1.038.346.107.582.211.84.372.213.131.435.298.562.423.118.115.163.193.17.296a.364.364 0 0 1-.044.203c-.08.167-.212.304-.328.341-.024.008-.024.008-.032.058-.017.113-.08.188-.212.253a.497.497 0 0 1-.24.063c-.196 0-.352-.116-.561-.418a.325.325 0 0 0-.059-.074.455.455 0 0 0 .008.072.382.382 0 0 1-.005.19c-.02.09-.049.17-.084.238a.459.459 0 0 1-.103.13.549.549 0 0 1-.416.171zm.127-.304a.33.33 0 0 0 .13-.11c.026-.04.046-.088.04-.095a.672.672 0 0 0-.082-.017 1.344 1.344 0 0 1-.649-.305c-.028-.025-.047-.037-.047-.031 0 .028.134.255.213.361a.65.65 0 0 0 .23.209.272.272 0 0 0 .165-.012zm1.187-.308c.067-.03.076-.04.076-.077v-.031l-.22-.172a12.433 12.433 0 0 1-.555-.444c-.015 0 .24.403.339.535.063.085.15.17.194.193.032.016.042.018.082.016a.227.227 0 0 0 .084-.02zm-1.003-.196c0-.026-.033-.216-.037-.22a.562.562 0 0 0-.081-.024c-.274-.066-.491-.184-.741-.405-.03-.025-.047-.037-.051-.032a.151.151 0 0 0-.014.047l-.007.04.058.063c.181.198.414.388.556.454.113.053.317.103.317.077zm1.297-.14a.182.182 0 0 0 .072-.054c.075-.08.124-.175.113-.22-.006-.025-.11-.131-.2-.202a4.18 4.18 0 0 0-.638-.421 4.44 4.44 0 0 0-.687-.248c-.01.008.24.28.333.362.135.12.3.265.357.313.072.06.611.48.616.48a.27.27 0 0 0 .034-.01zm-1.383-.41a.074.074 0 0 0-.005-.03.349.349 0 0 0-.084-.034 1.866 1.866 0 0 1-.385-.17c-.032-.021-.055-.034-.055-.03a1.367 1.367 0 0 0 .287.2c.05.025.215.085.234.085.005 0 .009-.008.008-.02zm-.095-.403.017-.032-.053-.061a1.619 1.619 0 0 1-.072-.09c-.065-.092-.093-.217-.067-.302a.229.229 0 0 1 .118-.125c.023-.01.041-.02.041-.022 0-.01-.137-.165-.182-.208-.095-.088-.219-.16-.288-.167-.022-.001-.04-.001-.04.001s.02.031.046.065c.05.067.1.158.107.197.01.05.005.118-.01.158a.238.238 0 0 1-.119.126l-.034.013-.004.05a.592.592 0 0 1-.008.065c-.004.015.002.022.046.06.118.101.257.199.35.246.055.027.122.057.131.058.003 0 .012-.014.021-.032zm-1.257-.24c.023-.006.061-.018.086-.027.047-.017.252-.12.288-.143l.019-.012-.027-.024c-.024-.021-.04-.027-.17-.061a4.304 4.304 0 0 1-.509-.164 6.796 6.796 0 0 0-.207-.076c-.01 0-.006.01.035.082.056.102.153.246.208.31a.46.46 0 0 0 .148.117c.029.01.084.01.13-.002zm.574-.498a.453.453 0 0 0-.08-.098c-.04-.038-.316-.27-.434-.364a3.302 3.302 0 0 0-.772-.479 1.498 1.498 0 0 0-.23-.086c-.01.01.105.312.157.412.03.061.13.215.163.254.012.015.073.04.303.126.158.059.317.116.353.127.075.023.353.098.393.106a.606.606 0 0 0 .147.002zm.746-.32a.322.322 0 0 0 .037-.186.595.595 0 0 0-.126-.33.58.58 0 0 0-.162-.17 1.509 1.509 0 0 0-.287-.17c-.073-.032-.088-.037-.11-.033-.04.007-.056.023-.065.068-.014.072 0 .163.056.343a1.8 1.8 0 0 1 .056.237l.066.008c.078.01.125.025.21.068.09.045.16.09.233.155a.61.61 0 0 0 .068.053c.002 0 .013-.02.024-.043zm5.133 3.59 2.539-1.465-.001-1.933a299.649 299.649 0 0 0-.016-4.016 90.5 90.5 0 0 0-.832.477l-.826.478-.001.849c-.002.944.001.88-.046.926-.014.012-.373.224-.799.469l-.774.446h-.045c-.05 0-.065-.005-.097-.036-.045-.042-.042-.008-.048-.553-.003-.272-.005-.619-.005-.771 0-.262-.001-.277-.012-.273-.006.002-.382.218-.834.48l-.823.474v5.96l.04-.023c.023-.012 1.184-.682 2.58-1.489zm-.054-4.5c.328-.19.605-.35.615-.357l.018-.012-.004-.708-.006-.71c-.001-.002-1.213.696-1.225.707-.01.008-.012 1.425-.002 1.425.004 0 .276-.155.604-.345zm-.14-1.674c.333-.193.61-.354.615-.359.006-.007-.481-.29-2.558-1.49a510.628 510.628 0 0 0-2.579-1.484 40.933 40.933 0 0 0-1.238.711c.006.006 5.143 2.972 5.147 2.972.003 0 .278-.158.612-.35zm1.747-1.01c.453-.261.825-.478.826-.482a774.09 774.09 0 0 0-5.147-2.972c-.022.005-1.659.956-1.657.963.004.01 5.128 2.968 5.142 2.968.006 0 .382-.215.836-.476z"/></svg>