<?xml version="1.0" encoding="UTF-8" standalone="no"?>
<svg
   width="64"
   height="64"
   version="1.1"
   viewBox="0 0 16.933 16.933"
   id="svg124"
   sodipodi:docname="bee-package-manager.svg"
   inkscape:version="1.1.2 (0a00cf5339, 2022-02-04)"
   xmlns:inkscape="http://www.inkscape.org/namespaces/inkscape"
   xmlns:sodipodi="http://sodipodi.sourceforge.net/DTD/sodipodi-0.dtd"
   xmlns:xlink="http://www.w3.org/1999/xlink"
   xmlns="http://www.w3.org/2000/svg"
   xmlns:svg="http://www.w3.org/2000/svg">
  <sodipodi:namedview
     id="namedview30"
     pagecolor="#ffffff"
     bordercolor="#666666"
     borderopacity="1.0"
     inkscape:pageshadow="2"
     inkscape:pageopacity="0.0"
     inkscape:pagecheckerboard="0"
     showgrid="false"
     inkscape:zoom="5.328125"
     inkscape:cx="-20.269795"
     inkscape:cy="13.888563"
     inkscape:window-width="1920"
     inkscape:window-height="1019"
     inkscape:window-x="0"
     inkscape:window-y="31"
     inkscape:window-maximized="1"
     inkscape:current-layer="svg124" />
  <defs
     id="defs28">
    <linearGradient
       id="linearGradient1213">
      <stop
         style="stop-color:#deb247;stop-opacity:1"
         offset="0"
         id="stop1209" />
      <stop
         style="stop-color:#de7947;stop-opacity:1"
         offset="1"
         id="stop1211" />
    </linearGradient>
    <filter
       id="filter1178"
       x="-0.04799993"
       y="-0.04799993"
       width="1.0959999"
       height="1.0959999"
       color-interpolation-filters="sRGB">
      <feGaussianBlur
         stdDeviation="0.30691955"
         id="feGaussianBlur2" />
    </filter>
    <linearGradient
       id="linearGradient1340"
       x1="8.5010996"
       x2="8.4890003"
       y1="16.131804"
       y2="0.79374999"
       gradientUnits="userSpaceOnUse">
      <stop
         stop-color="#2e3440"
         offset="0"
         id="stop5"
         style="stop-color:#0c2622;stop-opacity:1" />
      <stop
         stop-color="#4c566a"
         offset="1"
         id="stop7"
         style="stop-color:#194d44;stop-opacity:1" />
    </linearGradient>
    <filter
       id="filter3623"
       x="-0.10793395"
       y="-0.077654951"
       width="1.2119949"
       height="1.1517083"
       color-interpolation-filters="sRGB">
      <feGaussianBlur
         stdDeviation="0.073287797"
         id="feGaussianBlur10" />
    </filter>
    <filter
       id="filter3699"
       x="-0.084191688"
       y="-0.140577"
       width="1.1860816"
       height="1.3032634"
       color-interpolation-filters="sRGB">
      <feGaussianBlur
         stdDeviation="0.058926971"
         id="feGaussianBlur13" />
    </filter>
    <filter
       id="filter4411"
       x="-0.070430434"
       y="-0.1697883"
       width="1.1598162"
       height="1.3848359"
       color-interpolation-filters="sRGB">
      <feGaussianBlur
         stdDeviation="0.067928048"
         id="feGaussianBlur16" />
    </filter>
    <filter
       id="filter4469"
       x="-0.11301676"
       y="-0.093915408"
       width="1.2688122"
       height="1.1913137"
       color-interpolation-filters="sRGB">
      <feGaussianBlur
         stdDeviation="0.068167464"
         id="feGaussianBlur19" />
    </filter>
    <filter
       id="filter4527"
       x="-0.074289847"
       y="-0.29486781"
       width="1.1522954"
       height="1.6452424"
       color-interpolation-filters="sRGB">
      <feGaussianBlur
         stdDeviation="0.059296745"
         id="feGaussianBlur22" />
    </filter>
    <filter
       id="filter4842"
       x="-0.088415451"
       y="-0.092620853"
       width="1.1869047"
       height="1.1979614"
       color-interpolation-filters="sRGB">
      <feGaussianBlur
         stdDeviation="0.38907125"
         id="feGaussianBlur25" />
    </filter>
    <linearGradient
       xlink:href="#linearGradient1213"
       id="linearGradient1217"
       x1="5.8220344"
       y1="5.4406605"
       x2="12.293686"
       y2="13.420819"
       gradientUnits="userSpaceOnUse"
       gradientTransform="matrix(1.1563511,0,0,1.1563511,-1.3237308,-1.3237425)" />
  </defs>
  <g
     stroke-linecap="round"
     stroke-linejoin="round"
     id="g36">
    <rect
       transform="matrix(.99138 0 0 1 .072989 .1117)"
       x=".79375"
       y=".79375"
       width="15.346"
       height="15.346"
       rx="3.0526"
       ry="3.0526"
       fill="#2e3440"
       filter="url(#filter1178)"
       opacity=".2"
       stroke-width="1.2489"
       id="rect30" />
    <rect
       x=".92604"
       y=".92604"
       width="15.081"
       height="15.081"
       rx="3"
       ry="3"
       fill="url(#linearGradient1340)"
       stroke-width="1.2274"
       id="rect32"
       style="fill:url(#linearGradient1340)" />
    <rect
       x=".01215"
       y=".0060174"
       width="16.924"
       height="16.927"
       fill="none"
       opacity=".15"
       stroke-width="1.052"
       id="rect34" />
  </g>
  <path
     style="fill:url(#linearGradient1217);fill-opacity:1;stroke-width:0.00654318"
     d="M 8.3417949,14.839201 C 7.0098877,14.073509 2.92901,11.71293 2.9156318,11.700446 c -0.010246,-0.0096 -0.023467,-0.02616 -0.029434,-0.03697 -0.010072,-0.01821 -0.010696,-0.166571 -0.00862,-2.0349401 0.00124,-1.1084169 0.0043,-2.5379434 0.0068,-3.1767253 l 0.00458,-1.1614191 0.013852,-0.026186 c 0.00764,-0.014408 0.02223,-0.034059 0.032451,-0.043695 0.010226,-0.00964 0.4455301,-0.2638397 0.9673483,-0.564897 C 4.4244302,4.3545519 4.8631517,4.1005644 4.8775468,4.0911933 4.8919543,4.0818808 5.2496937,3.8747747 5.6725483,3.6310781 6.0954028,3.3873826 6.8866695,2.9312893 7.4309183,2.6175325 l 0.989546,-0.5704614 h 0.046042 0.046042 l 2.7298427,1.5758555 c 1.501409,0.8667202 2.739664,1.5844057 2.751673,1.594862 0.01201,0.010453 0.02817,0.031066 0.03591,0.045804 l 0.01407,0.026805 0.0046,1.1614194 c 0.0024,0.6387818 0.0056,2.0683075 0.0067,3.1767251 0.0022,1.8683679 0.0016,2.0167379 -0.0087,2.0349399 -0.0059,0.01075 -0.01922,0.02743 -0.02943,0.03695 -0.01438,0.01336 -5.4079012,3.132271 -5.4913788,3.175437 -0.011626,0.006 -0.036426,0.01006 -0.061159,0.01006 -0.039635,0 -0.045437,-0.0022 -0.123011,-0.04681 z M 8.3225331,11.520536 V 8.5411114 L 7.6796611,8.1697588 C 7.3229915,7.963728 7.0255287,7.787774 7.0114922,7.7745258 6.997579,7.7613849 6.9821197,7.7411685 6.9771428,7.7295876 c -0.010766,-0.025013 -0.011846,-0.078652 -0.00216,-0.1044763 0.00844,-0.022445 0.048551,-0.065067 0.073558,-0.07819 0.027794,-0.014563 0.089416,-0.012641 0.1216722,0.0038 0.01487,0.00756 0.3095731,0.1771289 0.6548961,0.3767597 0.345326,0.1996307 0.6339465,0.3629679 0.641385,0.3629679 0.011286,0 1.6476669,-0.9391081 1.6640629,-0.9549964 0.0032,-0.00278 -0.0027,-0.011067 -0.01307,-0.018149 -0.05248,-0.036621 -5.1176073,-2.9556932 -5.1287375,-2.9557296 -0.010672,-3.78e-5 -1.6224941,0.925321 -1.6617098,0.9539968 -0.010419,0.00761 0.1302513,0.090461 1.2404722,0.7305111 0.6887227,0.3970567 1.2620462,0.7310145 1.2740483,0.7421294 0.032596,0.030176 0.041491,0.052053 0.041491,0.1019993 0,0.062166 -0.022847,0.099153 -0.078618,0.1273144 -0.024024,0.012115 -0.080069,0.014624 -0.1057471,0.00469 -0.009,-0.00346 -0.578211,-0.3305108 -1.2649149,-0.7267517 C 3.7470666,5.8992231 3.1828328,5.5750229 3.1799173,5.5750229 c -0.00722,0 -0.013666,1.6883574 -0.015336,4.0162544 l -0.00124,1.9322437 2.5776911,1.488215 c 1.417734,0.818522 2.5785782,1.488222 2.5796604,1.488222 9.275e-4,0 0.00186,-1.340744 0.00186,-2.979427 z m -2.4177148,0.697371 c -0.090398,-0.008 -0.1912057,-0.04403 -0.2564076,-0.09158 C 5.4851233,12.007256 5.3300911,11.802575 5.1907894,11.522141 5.1039297,11.347278 5.0587748,11.21335 5.0183476,11.010688 c -0.011321,-0.05674 -0.020561,-0.121516 -0.020561,-0.143953 1.54e-5,-0.02245 0.014933,-0.126129 0.033124,-0.230429 0.030145,-0.172638 0.037376,-0.225848 0.030764,-0.225848 -0.00124,0 -0.024116,0.0099 -0.050712,0.02223 -0.2124984,0.09769 -0.387423,0.100856 -0.54359,0.0098 -0.059715,-0.03477 -0.179589,-0.150187 -0.24058,-0.231598 C 4.1144539,10.060942 3.9796917,9.8206194 3.9551864,9.7265379 3.9499265,9.7063226 3.9436224,9.6554011 3.9411822,9.6133686 3.9371392,9.5436018 3.9351655,9.5349504 3.9188898,9.5140404 3.8836627,9.4688271 3.7887582,9.3198135 3.7563629,9.2588571 3.6818646,9.1186778 3.5804612,8.8547292 3.5489812,8.7190416 c -0.00594,-0.025602 -0.010731,-0.074803 -0.010823,-0.1115404 -1.885e-4,-0.060418 0.00155,-0.068913 0.019663,-0.1050824 0.039795,-0.078842 0.095761,-0.1091074 0.2010469,-0.1087524 0.090371,3.092e-4 0.1804682,0.025971 0.3662386,0.1043861 0.1959916,0.082712 0.4183622,0.2016498 0.5820451,0.3113106 0.1164511,0.078023 0.3505851,0.2580618 0.4894446,0.3763703 0.00631,0.00537 0.013046,0.00814 0.014996,0.00632 0.00744,-0.00738 -0.011846,-0.094954 -0.045617,-0.2069798 -0.051815,-0.1718222 -0.064426,-0.2407527 -0.064242,-0.351063 1.855e-4,-0.1078089 0.00971,-0.1523056 0.048667,-0.2273179 0.029155,-0.056147 0.079695,-0.1083593 0.131421,-0.1357855 0.02492,-0.013206 0.030021,-0.018794 0.026805,-0.029434 C 5.2973108,8.2040304 5.2351886,8.096796 5.1595491,7.9841113 5.0784366,7.863274 5.0745384,7.8559403 5.0718759,7.8191328 c -0.00155,-0.021178 -9.275e-4,-0.04616 0.00155,-0.0555 0.00517,-0.020561 0.051876,-0.072545 0.076765,-0.085416 0.023159,-0.011967 0.092591,-0.01202 0.1157022,-7.42e-5 0.031619,0.016355 0.078032,0.072791 0.151545,0.1842926 0.079801,0.1210288 0.1397128,0.2360267 0.1718853,0.3299205 0.019137,0.055825 0.023619,0.063315 0.044147,0.073487 0.012548,0.00625 0.061124,0.030019 0.1079084,0.052909 0.046785,0.02288 0.1125326,0.058995 0.1461096,0.080275 0.033577,0.021271 0.068191,0.043117 0.076923,0.04852 0.015057,0.00926 0.016942,0.00868 0.03648,-0.012181 0.026248,-0.028039 0.076837,-0.060399 0.1280969,-0.081972 0.061281,-0.025787 0.1501504,-0.049797 0.1843697,-0.049797 0.064896,0 0.1301165,0.054654 0.132329,0.1109114 0.00278,0.070395 -0.00278,0.088438 -0.039268,0.1265546 -0.019787,0.020714 -0.035652,0.028536 -0.09574,0.047379 -0.078009,0.02446 -0.1145493,0.043088 -0.1145493,0.05841 0,0.00537 0.022075,0.041898 0.049062,0.081192 0.1146604,0.1669659 0.1736508,0.3365887 0.1743805,0.5014182 6.183e-4,0.1085839 -0.014408,0.1718569 -0.06712,0.2850895 -0.017717,0.038045 -0.036518,0.08957 -0.0418,0.1145058 -0.012277,0.057877 -0.013383,0.218447 -0.00155,0.232705 0.00447,0.00546 0.049404,0.022668 0.099783,0.038218 0.3463029,0.1069548 0.5820853,0.2111558 0.8408024,0.3715738 0.2123873,0.131692 0.433889,0.298576 0.5616892,0.42319 0.117965,0.115022 0.1627741,0.193342 0.1694678,0.296197 0.00474,0.07275 -0.00622,0.123067 -0.0441,0.202911 -0.079405,0.167287 -0.2112806,0.304646 -0.3279535,0.34158 -0.023435,0.0074 -0.023745,0.008 -0.031442,0.05798 -0.017344,0.112675 -0.080231,0.187741 -0.2120411,0.253052 -0.092626,0.04588 -0.1579354,0.06303 -0.2399377,0.06299 -0.1967183,-1.3e-4 -0.3526379,-0.116456 -0.561408,-0.418848 -0.030887,-0.04473 -0.057275,-0.07794 -0.058654,-0.0738 -0.00124,0.0041 0.00215,0.03666 0.00778,0.07229 0.013697,0.08605 0.013019,0.10968 -0.00548,0.190798 -0.020375,0.08936 -0.048571,0.169679 -0.083239,0.237007 -0.022879,0.04443 -0.041471,0.06776 -0.1034831,0.12984 -0.067016,0.06709 -0.083013,0.07944 -0.1410237,0.108893 -0.089283,0.04533 -0.1953578,0.06939 -0.2748126,0.06233 z M 6.0324118,11.91427 c 0.051211,-0.02376 0.099758,-0.06508 0.1304281,-0.111021 0.025601,-0.03832 0.04544,-0.08715 0.038329,-0.09426 -0.00186,-0.0018 -0.038448,-0.0095 -0.081205,-0.01672 -0.239131,-0.04082 -0.4689928,-0.149019 -0.6486323,-0.305339 -0.028721,-0.02499 -0.047439,-0.03736 -0.047439,-0.03133 0,0.02848 0.1339871,0.25518 0.213587,0.361391 0.077971,0.104048 0.1681754,0.186156 0.2296423,0.209057 0.03894,0.0145 0.1212824,0.0087 0.1652906,-0.01174 z m 1.1866418,-0.308405 c 0.066643,-0.03051 0.076196,-0.0401 0.076196,-0.07644 v -0.03173 L 7.0744157,11.325701 C 6.7945759,11.10773 6.7101591,11.040266 6.6071979,10.952305 c -0.045545,-0.0389 -0.084633,-0.07073 -0.086866,-0.07073 -0.015707,0 0.2388092,0.403118 0.3381933,0.535627 0.063594,0.0848 0.1498567,0.170326 0.1947426,0.193094 0.031539,0.01598 0.041441,0.01788 0.082032,0.01548 0.031418,-0.0018 0.058166,-0.0082 0.083755,-0.01991 z M 6.2155175,11.40993 c -3.092e-4,-0.02564 -0.032196,-0.216404 -0.036856,-0.220609 -0.00308,-0.0028 -0.039432,-0.01323 -0.080819,-0.02317 -0.2740026,-0.06602 -0.491216,-0.184643 -0.7412051,-0.404809 -0.029247,-0.02576 -0.04656,-0.03686 -0.050829,-0.03259 -0.00356,0.0034 -0.00968,0.0247 -0.013604,0.04702 l -0.00714,0.04054 0.057656,0.06281 c 0.1815346,0.197762 0.4142438,0.387795 0.5560559,0.45408 0.1136821,0.05314 0.3170798,0.102394 0.3167522,0.07671 z m 1.2974497,-0.139552 c 0.021982,-0.0074 0.041723,-0.02246 0.071998,-0.05453 0.075046,-0.07956 0.1244987,-0.175064 0.113445,-0.2191 C 7.6920154,10.971178 7.5873148,10.86499 7.49809,10.793528 7.3007935,10.635532 7.036295,10.461102 6.8598092,10.372614 6.7766965,10.330937 6.6462377,10.277716 6.5225494,10.235028 6.3611326,10.179316 6.175962,10.120776 6.1724065,10.124335 c -0.00862,0.0086 0.2409394,0.280063 0.3338896,0.363127 0.1344416,0.120145 0.2994042,0.264492 0.3569261,0.312319 0.07204,0.0599 0.6108511,0.480651 0.6157083,0.480807 0.00216,5.5e-5 0.017376,-0.0045 0.034037,-0.01029 z M 6.13046,10.860303 c -5.58e-5,-0.01174 -0.00278,-0.02538 -0.00587,-0.0304 -0.00318,-0.005 -0.040669,-0.02021 -0.083324,-0.03374 -0.1391412,-0.04416 -0.3137102,-0.121091 -0.38508,-0.169671 -0.031983,-0.02176 -0.055618,-0.03447 -0.055618,-0.02986 0,0.0063 0.1007425,0.08355 0.1671149,0.128074 0.036207,0.0243 0.090422,0.05653 0.1204754,0.07164 0.049773,0.02503 0.2145918,0.08492 0.2342304,0.08513 0.00491,5.6e-5 0.00812,-0.0084 0.00806,-0.02118 z M 6.035324,10.456965 6.051556,10.424955 5.998933,10.363725 C 5.969994,10.330045 5.937525,10.289915 5.926796,10.274557 5.862168,10.181979 5.834391,10.057078 5.859569,9.9722892 5.87376,9.9244812 5.923711,9.8717049 5.9784432,9.846682 c 0.022476,-0.010299 0.040895,-0.0201 0.040895,-0.021796 0,-0.00901 -0.1370354,-0.1647931 -0.1826632,-0.2077166 C 5.74244,9.5285194 5.6184314,9.4567212 5.548623,9.4503921 c -0.021796,-0.00182 -0.039655,-0.00182 -0.039655,6.181e-4 0,0.00211 0.020684,0.031406 0.045981,0.064708 0.050884,0.067008 0.1004198,0.1579823 0.1074563,0.1973312 0.00905,0.050711 0.00468,0.1183457 -0.010315,0.1583989 -0.019354,0.051707 -0.072336,0.1075149 -0.118831,0.1251502 l -0.034102,0.012924 -0.00408,0.04955 c -0.00215,0.02727 -0.00596,0.05701 -0.00826,0.06612 -0.00364,0.01453 0.00216,0.02188 0.046617,0.06013 0.1173751,0.100699 0.2569238,0.198719 0.3493917,0.245404 0.054699,0.02761 0.1224427,0.05751 0.1314858,0.05804 0.00278,1.48e-4 0.012089,-0.01413 0.021022,-0.03173 z M 4.7784437,10.217092 c 0.022106,-0.0056 0.060815,-0.01784 0.086007,-0.02724 0.046091,-0.01723 0.2519523,-0.119443 0.2872013,-0.142628 L 5.170573,10.034761 5.144076,10.01124 C 5.1201152,9.9899712 5.1039324,9.9840983 4.974648,9.9496077 4.7620103,9.8928803 4.6877188,9.8690051 4.4654596,9.7859057 4.3542864,9.744335 4.2609223,9.7103426 4.2579852,9.7103426 c -0.00971,0 -0.00572,0.00949 0.034518,0.081944 0.056177,0.101224 0.1534958,0.2454714 0.2083309,0.3087904 0.046642,0.05386 0.110886,0.1053 0.147674,0.11824 0.029064,0.01024 0.084387,0.0093 0.1299209,-0.0021 z m 0.573472,-0.4977023 c 0,-0.00891 -0.046899,-0.066624 -0.079689,-0.098119 C 5.232562,9.5831682 4.9563151,9.3518591 4.8375983,9.2573473 4.5563545,9.0334441 4.3398304,8.8988934 4.0661773,8.7779793 3.9732243,8.7369106 3.8403131,8.6875325 3.8355425,8.6923115 c -0.00946,0.00946 0.1059414,0.3120857 0.1571719,0.4121496 0.031189,0.060914 0.1300113,0.2147192 0.1631574,0.2539282 0.011993,0.014189 0.07277,0.0393 0.3028981,0.1251769 0.1583466,0.059094 0.3173457,0.1164583 0.3533336,0.1274934 0.074461,0.022821 0.3530708,0.097857 0.3925924,0.1057203 0.031455,0.00623 0.1472196,0.00834 0.1472196,0.0024 z M 6.0981015,9.398955 C 6.1328833,9.3214279 6.139221,9.2896535 6.1351185,9.2133172 6.1288144,9.0961431 6.0912005,8.9971648 6.0094087,8.8826187 5.9448036,8.7921424 5.9201721,8.7664466 5.8467429,8.7129344 5.7398342,8.6350199 5.6504761,8.5818701 5.5595665,8.5421063 c -0.072157,-0.03156 -0.087661,-0.036144 -0.1096638,-0.032418 -0.04039,0.00682 -0.055794,0.023153 -0.064747,0.068669 -0.014067,0.071536 6.182e-4,0.1623782 0.055893,0.3421546 0.016387,0.053489 0.035447,0.1284333 0.042315,0.1665396 0.00687,0.038103 0.013236,0.069815 0.01413,0.070457 9.275e-4,6.189e-4 0.030578,0.0046 0.065981,0.00891 0.077922,0.00929 0.1244824,0.024201 0.2104734,0.067486 0.088913,0.044742 0.1583189,0.090931 0.2323105,0.1546174 0.034173,0.029403 0.064467,0.053518 0.067313,0.053547 0.00278,5.55e-5 0.013882,-0.019324 0.024517,-0.043037 z m 5.1328835,3.590398 2.538763,-1.465847 -0.0012,-1.9322354 c -0.0015,-2.3178265 -0.008,-4.0162445 -0.01527,-4.0162445 -0.0028,0 -0.377188,0.2147711 -0.831818,0.4772693 l -0.826595,0.4772661 -0.0012,0.8493667 c -0.0015,0.9442553 0.0016,0.8803952 -0.04611,0.9256149 -0.01348,0.012738 -0.372694,0.2239912 -0.798283,0.4694259 l -0.773807,0.4462463 -0.04532,1.485e-4 c -0.04984,1.485e-4 -0.06492,-0.00537 -0.09742,-0.035899 -0.04508,-0.042309 -0.04219,-0.00872 -0.04756,-0.5537503 -0.0028,-0.2717085 -0.0051,-0.6187288 -0.0054,-0.7711641 -6.18e-4,-0.2611441 -0.0012,-0.2768965 -0.01193,-0.2727721 -0.0063,0.00246 -0.3817127,0.2181164 -0.8342568,0.4793531 L 8.6107325,8.5410988 v 2.9799922 2.979993 l 0.040893,-0.02294 c 0.022479,-0.01255 1.1833388,-0.682574 2.5796575,-1.488792 z M 11.177135,8.4890895 C 11.50545,8.2996395 11.782084,8.13903 11.791872,8.1321786 l 0.01781,-0.012465 -0.004,-0.7079967 c -0.0022,-0.3893958 -0.0046,-0.7087852 -0.0054,-0.7097528 -0.0016,-0.00215 -1.212843,0.6965356 -1.225282,0.7066487 -0.01064,0.00866 -0.01214,1.4249221 -0.0016,1.4249221 0.0035,0 0.275295,-0.1550044 0.60361,-0.3444533 z M 11.036203,6.814654 C 11.370058,6.6219489 11.646976,6.4605444 11.651583,6.455981 11.65829,6.4492745 11.170873,6.1652892 9.0939386,4.9660797 7.6826261,4.1511958 6.5223074,3.4835175 6.5154561,3.482349 6.5025585,3.4801905 5.2705287,4.1871796 5.2766257,4.1932761 c 0.00608,0.00607 5.1429313,2.971286 5.1477883,2.9715209 0.0028,1.299e-4 0.277943,-0.1574377 0.611791,-0.350143 z M 12.783686,5.8056763 C 13.237141,5.5438645 13.608832,5.3267653 13.60967,5.3232314 13.61147,5.3155014 8.473608,2.3479705 8.4629911,2.350635 8.4408531,2.356165 6.8043886,3.3074524 6.8064262,3.3135801 c 0.00331,0.00998 5.1278868,2.9681132 5.1417838,2.9681132 0.006,0 0.382026,-0.2142081 0.835476,-0.476017 z"
     id="path827" />
</svg>
