<svg width="64" height="64" version="1.1" xmlns="http://www.w3.org/2000/svg" xmlns:xlink="http://www.w3.org/1999/xlink">
 <defs>
  <linearGradient id="c-3" x1="196" x2="156.08" y1="124.13" y2="62" gradientTransform="matrix(.21206 0 0 .21206 -4.9847 -6.1965)" gradientUnits="userSpaceOnUse" xlink:href="#b-6"/>
  <linearGradient id="b-6">
   <stop stop-color="#763704" offset="0"/>
   <stop stop-color="#763704" stop-opacity="0" offset="1"/>
  </linearGradient>
  <linearGradient id="d-3" x1="196" x2="156.08" y1="124.13" y2="62" gradientTransform="matrix(.14996 -.14995 .14995 .14996 -23.989 38.844)" gradientUnits="userSpaceOnUse" xlink:href="#b-6"/>
  <linearGradient id="e-5" x1="196" x2="156.08" y1="124.13" y2="62" gradientTransform="matrix(0 -.21206 .21206 0 -4.9637 83.674)" gradientUnits="userSpaceOnUse" xlink:href="#b-6"/>
  <linearGradient id="linearGradient924" x1="10.686" x2="10.686" y1="295.09" y2="281.37" gradientTransform="matrix(3.4896,0,0,3.4896,1.7084,-974.13)" gradientUnits="userSpaceOnUse">
   <stop stop-color="#f36f1a" offset="0"/>
   <stop stop-color="#faae20" offset="1"/>
  </linearGradient>
  <linearGradient id="linearGradient932" x1="10.929" x2="10.929" y1="291.68" y2="289.11" gradientTransform="matrix(3.4896,0,0,3.4896,1.7084,-974.13)" gradientUnits="userSpaceOnUse">
   <stop stop-color="#1c9af5" offset="0"/>
   <stop stop-color="#20c2fa" offset="1"/>
  </linearGradient>
  <linearGradient id="linearGradient862-3" x1="7.9373" x2="7.9373" y1="15.081" y2="1.852" gradientTransform="matrix(3.7795 0 0 3.7795 .00014314 .031541)" gradientUnits="userSpaceOnUse">
   <stop stop-color="#f1efeb" offset="0"/>
   <stop stop-color="#fdfcfc" offset="1"/>
  </linearGradient>
  <filter id="filter913" x="-.10792" y="-.10808" width="1.2158" height="1.2162" color-interpolation-filters="sRGB">
   <feGaussianBlur stdDeviation="2.3383507"/>
  </filter>
 </defs>
 <g transform="scale(3.7796)" shape-rendering="auto">
  <path d="m4.3693 0.52916c-2.1142 0-3.8402 1.7835-3.8402 3.9682v8.4675c0 2.1846 1.726 3.9682 3.8402 3.9682h8.1944c2.1142 0 3.8402-1.7835 3.8402-3.9682v-8.4675c0-2.1846-1.726-3.9682-3.8402-3.9682zm0.25704 0.52089h7.6808c1.8443 0 3.3291 1.5342 3.3291 3.44v7.9368c0 1.9058-1.4847 3.44-3.3291 3.44h-7.6808c-1.8443 0-3.3291-1.5342-3.3291-3.44v-7.9368c0-1.9058 1.4847-3.44 3.3291-3.44z" color="#000000" color-rendering="auto" dominant-baseline="auto" image-rendering="auto" opacity=".01" solid-color="#000000" stop-color="#000000" style="font-feature-settings:normal;font-variant-alternates:normal;font-variant-caps:normal;font-variant-east-asian:normal;font-variant-ligatures:normal;font-variant-numeric:normal;font-variant-position:normal;font-variation-settings:normal;inline-size:0;isolation:auto;mix-blend-mode:normal;shape-margin:0;shape-padding:0;text-decoration-color:#000000;text-decoration-line:none;text-decoration-style:solid;text-indent:0;text-orientation:mixed;text-transform:none;white-space:normal"/>
  <path d="m4.3587 0.79373c-1.9668 0-3.5639 1.6528-3.5639 3.6876v8.4996c0 2.0348 1.5971 3.6876 3.5639 3.6876h8.2162c1.9668 0 3.5644-1.6528 3.5644-3.6876v-8.4996c0-2.0348-1.5976-3.6876-3.5644-3.6876zm0.27222 0.25631h7.6718c1.8422 0 3.3251 1.5342 3.3251 3.44v7.9368c0 1.9058-1.483 3.44-3.3251 3.44h-7.6718c-1.8422 0-3.3251-1.5342-3.3251-3.44v-7.9368c0-1.9058 1.483-3.44 3.3251-3.44z" color="#000000" color-rendering="auto" dominant-baseline="auto" image-rendering="auto" opacity=".01" solid-color="#000000" stop-color="#000000" style="font-feature-settings:normal;font-variant-alternates:normal;font-variant-caps:normal;font-variant-east-asian:normal;font-variant-ligatures:normal;font-variant-numeric:normal;font-variant-position:normal;font-variation-settings:normal;inline-size:0;isolation:auto;mix-blend-mode:normal;shape-margin:0;shape-padding:0;text-decoration-color:#000000;text-decoration-line:none;text-decoration-style:solid;text-indent:0;text-orientation:mixed;text-transform:none;white-space:normal"/>
  <path d="m4.3097 1.0583c-1.8657 0-3.3751 1.5383-3.3751 3.439v8.4675c0 1.9007 1.57 3.439 3.4357 3.439h8.1996c1.8657 0 3.4274-1.5383 3.4274-3.439v-8.4675c0-1.9007-1.51-3.439-3.3756-3.439h-0.09688c1.794 0.086515 3.2138 1.5819 3.2138 3.4318v7.9368c0 1.9058-1.5059 3.44-3.3766 3.44h-7.7905c-1.8707 0-3.3766-1.5342-3.3766-3.44v-7.9368c0-1.8498 1.4199-3.3451 3.2138-3.4318z" color="#000000" color-rendering="auto" dominant-baseline="auto" image-rendering="auto" opacity=".03" solid-color="#000000" stop-color="#000000" style="font-feature-settings:normal;font-variant-alternates:normal;font-variant-caps:normal;font-variant-east-asian:normal;font-variant-ligatures:normal;font-variant-numeric:normal;font-variant-position:normal;font-variation-settings:normal;inline-size:0;isolation:auto;mix-blend-mode:normal;shape-margin:0;shape-padding:0;text-decoration-color:#000000;text-decoration-line:none;text-decoration-style:solid;text-indent:0;text-orientation:mixed;text-transform:none;white-space:normal"/>
  <path transform="scale(.26458)" d="m4 46.969v2.0312c0 6.6479 5.8957 12 12.544 12h30.961c6.6479 0 12.495-5.3521 12.495-12v-1.9922c-0.02117 7.1849-5.81 12.963-13 12.963h-29.998c-7.2032 0-13.002-5.7987-13.002-13.002z" color="#000000" color-rendering="auto" dominant-baseline="auto" image-rendering="auto" opacity=".03" solid-color="#000000" stop-color="#000000" style="font-feature-settings:normal;font-variant-alternates:normal;font-variant-caps:normal;font-variant-east-asian:normal;font-variant-ligatures:normal;font-variant-numeric:normal;font-variant-position:normal;font-variation-settings:normal;inline-size:0;isolation:auto;mix-blend-mode:normal;shape-margin:0;shape-padding:0;text-decoration-color:#000000;text-decoration-line:none;text-decoration-style:solid;text-indent:0;text-orientation:mixed;text-transform:none;white-space:normal"/>
  <path d="m1.0583 11.906v0.59234c0 1.9386 1.5729 3.4993 3.3318 3.4993h8.1603c1.7589 0 3.3243-1.5608 3.3243-3.4993v-0.58095c-0.0056 2.0952-1.5372 3.7801-3.4395 3.7801h-7.9368c-1.9058 0-3.44-1.691-3.44-3.7915z" color="#000000" color-rendering="auto" dominant-baseline="auto" image-rendering="auto" opacity=".05" solid-color="#000000" stop-color="#000000" style="font-feature-settings:normal;font-variant-alternates:normal;font-variant-caps:normal;font-variant-east-asian:normal;font-variant-ligatures:normal;font-variant-numeric:normal;font-variant-position:normal;font-variation-settings:normal;inline-size:0;isolation:auto;mix-blend-mode:normal;shape-margin:0;shape-padding:0;text-decoration-color:#000000;text-decoration-line:none;text-decoration-style:solid;text-indent:0;text-orientation:mixed;text-transform:none;white-space:normal"/>
 </g>
 <rect x="4" y="4" width="56" height="56" rx="13.002" ry="13.002" fill="url(#linearGradient862-3)" stroke-width="3.7795"/>
 <g transform="matrix(.92306 0 0 .92306 2.4593 3.385)" stroke-width="3.4896">
  <path d="m29.866 6.1616a3.5733 3.5733 0 0 0-2.5369 1.0504 3.5768 3.5768 0 0 0 0 5.0704l9.9593 9.9593h-25.963a3.5768 3.5768 0 0 0-3.5838 3.5838 3.5768 3.5768 0 0 0 3.5838 3.5838c3.7339-0.01047 9.0276-0.01047 14.098-0.01047l-18.369 18.366a3.5768 3.5768 0 0 0 0 5.0669 3.5768 3.5768 0 0 0 5.0669 0c2.6975-2.7079 6.5604-6.5709 10.225-10.235a17.923 17.923 0 0 0 17.734 15.487c9.8965 0 17.923-8.0261 17.923-17.923a17.923 17.923 0 0 0-6.1417-13.491 8950.5 8950.5 0 0 1-19.461-19.458 3.5733 3.5733 0 0 0-2.5334-1.0539zm10.423 29.735a4.184 4.184 0 1 1 0 8.368 4.184 4.184 0 0 1 0-8.368z" filter="url(#filter913)" opacity=".15"/>
  <path d="m29.866 5.0783a3.5733 3.5733 0 0 0-2.5369 1.0504 3.5768 3.5768 0 0 0 0 5.0704l9.9593 9.9593h-25.963a3.5768 3.5768 0 0 0-3.5838 3.5838 3.5768 3.5768 0 0 0 3.5838 3.5838c3.7339-0.01047 9.0276-0.01047 14.098-0.01047l-18.369 18.366a3.5768 3.5768 0 0 0 0 5.0669 3.5768 3.5768 0 0 0 5.0669 0c2.6975-2.7079 6.5604-6.5709 10.225-10.235a17.923 17.923 0 0 0 17.734 15.487c9.8965 0 17.923-8.0261 17.923-17.923a17.923 17.923 0 0 0-6.1417-13.491 8950.5 8950.5 0 0 1-19.461-19.458 3.5733 3.5733 0 0 0-2.5334-1.0539zm10.423 29.735a4.184 4.184 0 1 1 0 8.368 4.184 4.184 0 0 1 0-8.368z" fill="url(#linearGradient924)"/>
  <path d="m40.275 25.241a13.77 13.77 0 0 0-13.77 13.77 13.77 13.77 0 0 0 13.77 13.77 13.77 13.77 0 0 0 13.766-13.77 13.77 13.77 0 0 0-13.766-13.77zm0 8.3855a5.3844 5.3844 0 0 1 5.3844 5.3844 5.3844 5.3844 0 0 1-5.3844 5.3844 5.3844 5.3844 0 0 1-5.3879-5.3844 5.3844 5.3844 0 0 1 5.3879-5.3844z" fill="#fff" fill-opacity=".099"/>
  <path d="m40.275 28.246a10.755 10.755 0 0 0-10.755 10.751 10.755 10.755 0 0 0 10.755 10.755 10.755 10.755 0 0 0 10.751-10.755 10.755 10.755 0 0 0-10.751-10.751zm0 6.5465a4.205 4.205 0 0 1 4.205 4.205 4.205 4.205 0 0 1-4.205 4.205 4.205 4.205 0 0 1-4.2084-4.205 4.205 4.205 0 0 1 4.2084-4.205z" fill="#fff"/>
  <circle cx="40.275" cy="39.011" r="5.5031" color="#000000" display="block" fill="url(#linearGradient932)" overflow="visible" style="isolation:auto;mix-blend-mode:normal" paint-order="fill markers stroke"/>
  <path d="m29.866 5.0783a3.5733 3.5733 0 0 0-2.5369 1.0504 3.5768 3.5768 0 0 0 0 5.0704l9.9593 9.9593-7.4224-16.084z" fill="url(#c-3)" opacity=".5"/>
  <path d="m8.5968 22.233a3.5733 3.5733 0 0 0-1.0469 2.5369 3.5768 3.5768 0 0 0 3.5838 3.5838h14.084z" fill="url(#d-3)" opacity=".5"/>
  <path d="m6.3077 48.824c0 0.91427 0.35245 1.832 1.0539 2.5334a3.5768 3.5768 0 0 0 5.0704 0l9.9593-9.9593z" fill="url(#e-5)" opacity=".5"/>
 </g>
</svg>
