<?xml version="1.0" encoding="UTF-8" standalone="no"?>
<svg
   inkscape:version="1.1.1 (3bf5ae0d25, 2021-09-20)"
   sodipodi:docname="blockbench.svg"
   id="svg31"
   version="1.1"
   height="64"
   width="64"
   xmlns:inkscape="http://www.inkscape.org/namespaces/inkscape"
   xmlns:sodipodi="http://sodipodi.sourceforge.net/DTD/sodipodi-0.dtd"
   xmlns:xlink="http://www.w3.org/1999/xlink"
   xmlns="http://www.w3.org/2000/svg"
   xmlns:svg="http://www.w3.org/2000/svg"
   xmlns:rdf="http://www.w3.org/1999/02/22-rdf-syntax-ns#"
   xmlns:cc="http://creativecommons.org/ns#"
   xmlns:dc="http://purl.org/dc/elements/1.1/">
  <metadata
     id="metadata35">
    <rdf:RDF>
      <cc:Work
         rdf:about="">
        <dc:format>image/svg+xml</dc:format>
        <dc:type
           rdf:resource="http://purl.org/dc/dcmitype/StillImage" />
      </cc:Work>
    </rdf:RDF>
  </metadata>
  <sodipodi:namedview
     inkscape:current-layer="svg31"
     inkscape:window-maximized="1"
     inkscape:window-y="28"
     inkscape:window-x="0"
     inkscape:cy="29.385435"
     inkscape:cx="20.404973"
     inkscape:zoom="8.796875"
     showgrid="false"
     id="namedview33"
     inkscape:window-height="1020"
     inkscape:window-width="1920"
     inkscape:pageshadow="2"
     inkscape:pageopacity="0"
     guidetolerance="10"
     gridtolerance="10"
     objecttolerance="10"
     borderopacity="1"
     bordercolor="#666666"
     pagecolor="#ffffff"
     inkscape:pagecheckerboard="1"
     inkscape:snap-center="false"
     showguides="false" />
  <defs
     id="defs17">
    <linearGradient
       gradientUnits="userSpaceOnUse"
       gradientTransform="matrix(2.1429,0,0,2.1429,-826.36,-1107.5)"
       y2="517.8"
       y1="545.8"
       x2="399.57"
       x1="399.57"
       id="linearGradient1734">
      <stop
         id="stop1730"
         offset="0"
         stop-color="#3889e9" />
      <stop
         id="stop1732"
         offset="1"
         stop-color="#5ea5fb" />
    </linearGradient>
    <linearGradient
       gradientUnits="userSpaceOnUse"
       gradientTransform="matrix(2.1429,0,0,2.1429,-826.36,-1107.5)"
       y2="517.8"
       y1="545.8"
       x2="399.57"
       x1="399.57"
       id="linearGradient1148">
      <stop
         id="stop1144"
         offset="0"
         stop-color="#3889e9"
         style="stop-color:#212e3c;stop-opacity:1" />
      <stop
         id="stop1146"
         offset="1"
         stop-color="#5ea5fb"
         style="stop-color:#3c6a8c;stop-opacity:1" />
    </linearGradient>
    <linearGradient
       gradientUnits="userSpaceOnUse"
       gradientTransform="matrix(3.7796,0,0,3.7796,63.9706,-0.03139877)"
       y2="1.852"
       y1="15.081"
       x2="7.9373002"
       x1="7.9373002"
       id="linearGradient862"
       spreadMethod="pad"
       xlink:href="#b-3">
      <stop
         id="stop2"
         offset="0"
         stop-color="#0e71de"
         style="stop-color:#212e3c;stop-opacity:1" />
      <stop
         id="stop4"
         offset="1"
         stop-color="#25c9ff"
         style="stop-color:#3c6a8c;stop-opacity:1" />
    </linearGradient>
    <linearGradient
       gradientUnits="userSpaceOnUse"
       gradientTransform="matrix(2.1429,0,0,2.1429,-826.36,-1107.5)"
       y2="517.8"
       y1="545.8"
       x2="399.57"
       x1="399.57"
       id="b-3">
      <stop
         id="stop7"
         offset="0"
         stop-color="#3889e9" />
      <stop
         id="stop9"
         offset="1"
         stop-color="#5ea5fb" />
    </linearGradient>
    <linearGradient
       gradientUnits="userSpaceOnUse"
       y2="49.062"
       y1="19.232"
       x2="32.39"
       x1="32.39"
       id="linearGradient997">
      <stop
         id="stop12"
         offset="0"
         stop-color="#f5fdff" />
      <stop
         id="stop14"
         offset="1"
         stop-color="#c9e5ff" />
    </linearGradient>
    <filter
       inkscape:collect="always"
       style="color-interpolation-filters:sRGB"
       id="filter22010"
       x="-0.064726231"
       y="-0.089150561"
       width="1.1294525"
       height="1.1783011">
      <feGaussianBlur
         inkscape:collect="always"
         stdDeviation="0.99452684"
         id="feGaussianBlur22012" />
    </filter>
  </defs>
  <g
     transform="scale(3.779602)"
     id="g997">
    <path
       id="path923"
       style="color:#000000;font-style:normal;font-variant:normal;font-weight:normal;font-stretch:normal;font-size:medium;line-height:normal;font-family:sans-serif;font-variant-ligatures:normal;font-variant-position:normal;font-variant-caps:normal;font-variant-numeric:normal;font-variant-alternates:normal;font-variant-east-asian:normal;font-feature-settings:normal;font-variation-settings:normal;text-indent:0;text-align:start;text-decoration:none;text-decoration-line:none;text-decoration-style:solid;text-decoration-color:#000000;letter-spacing:normal;word-spacing:normal;text-transform:none;writing-mode:lr-tb;direction:ltr;text-orientation:mixed;dominant-baseline:auto;baseline-shift:baseline;text-anchor:start;white-space:normal;shape-padding:0;shape-margin:0;inline-size:0;clip-rule:nonzero;display:inline;overflow:visible;visibility:visible;opacity:0.01;isolation:auto;mix-blend-mode:normal;color-interpolation:sRGB;color-interpolation-filters:linearRGB;solid-color:#000000;solid-opacity:1;vector-effect:none;fill:#000000;fill-opacity:1;fill-rule:nonzero;stroke:none;stroke-width:1.56146;stroke-linecap:round;stroke-linejoin:round;stroke-miterlimit:4;stroke-dasharray:none;stroke-dashoffset:0;stroke-opacity:1;color-rendering:auto;image-rendering:auto;shape-rendering:auto;text-rendering:auto;enable-background:accumulate;stop-color:#000000"
       d="m 4.3693062,0.52915624 c -2.1141659,0 -3.84015027,1.78351786 -3.84015027,3.96815506 v 8.4675337 c 0,2.184636 1.72598437,3.968155 3.84015027,3.968155 h 8.1943878 c 2.114164,0 3.84015,-1.783519 3.84015,-3.968155 V 4.4973113 c 0,-2.1846372 -1.725986,-3.96815506 -3.84015,-3.96815506 z M 4.6263496,1.0500444 H 12.30715 c 1.844338,0 3.329064,1.534217 3.329064,3.4400323 v 7.9368273 c 0,1.905816 -1.484726,3.440032 -3.329064,3.440032 H 4.6263496 c -1.8443375,0 -3.3290636,-1.534216 -3.3290636,-3.440032 V 4.4900767 c 0,-1.9058153 1.4847261,-3.4400323 3.3290636,-3.4400323 z" />
    <path
       id="path941"
       style="color:#000000;font-style:normal;font-variant:normal;font-weight:normal;font-stretch:normal;font-size:medium;line-height:normal;font-family:sans-serif;font-variant-ligatures:normal;font-variant-position:normal;font-variant-caps:normal;font-variant-numeric:normal;font-variant-alternates:normal;font-variant-east-asian:normal;font-feature-settings:normal;font-variation-settings:normal;text-indent:0;text-align:start;text-decoration:none;text-decoration-line:none;text-decoration-style:solid;text-decoration-color:#000000;letter-spacing:normal;word-spacing:normal;text-transform:none;writing-mode:lr-tb;direction:ltr;text-orientation:mixed;dominant-baseline:auto;baseline-shift:baseline;text-anchor:start;white-space:normal;shape-padding:0;shape-margin:0;inline-size:0;clip-rule:nonzero;display:inline;overflow:visible;visibility:visible;opacity:0.01;isolation:auto;mix-blend-mode:normal;color-interpolation:sRGB;color-interpolation-filters:linearRGB;solid-color:#000000;solid-opacity:1;vector-effect:none;fill-opacity:1;fill-rule:nonzero;stroke:none;stroke-width:0.986777;stroke-linecap:butt;stroke-linejoin:miter;stroke-miterlimit:4;stroke-dasharray:none;stroke-dashoffset:0;stroke-opacity:1;color-rendering:auto;image-rendering:auto;shape-rendering:auto;text-rendering:auto;enable-background:accumulate;stop-color:#000000"
       d="m 4.3586671,0.79373436 c -1.9668129,0 -3.56389958,1.65278604 -3.56389958,3.68755754 v 8.4995721 c 0,2.034771 1.59708668,3.687558 3.56389958,3.687558 h 8.2161999 c 1.966813,0 3.564399,-1.652787 3.564399,-3.687558 V 4.4812919 c 0,-2.0347715 -1.597586,-3.68755754 -3.564399,-3.68755754 z M 4.630892,1.0500444 h 7.67175 c 1.842164,0 3.32514,1.534217 3.32514,3.4400323 v 7.9368273 c 0,1.905816 -1.482976,3.440032 -3.32514,3.440032 h -7.67175 c -1.8421641,0 -3.3251407,-1.534216 -3.3251407,-3.440032 V 4.4900767 c 0,-1.9058153 1.4829766,-3.4400323 3.3251407,-3.4400323 z" />
    <path
       id="path935"
       style="color:#000000;font-style:normal;font-variant:normal;font-weight:normal;font-stretch:normal;font-size:medium;line-height:normal;font-family:sans-serif;font-variant-ligatures:normal;font-variant-position:normal;font-variant-caps:normal;font-variant-numeric:normal;font-variant-alternates:normal;font-variant-east-asian:normal;font-feature-settings:normal;font-variation-settings:normal;text-indent:0;text-align:start;text-decoration:none;text-decoration-line:none;text-decoration-style:solid;text-decoration-color:#000000;letter-spacing:normal;word-spacing:normal;text-transform:none;writing-mode:lr-tb;direction:ltr;text-orientation:mixed;dominant-baseline:auto;baseline-shift:baseline;text-anchor:start;white-space:normal;shape-padding:0;shape-margin:0;inline-size:0;clip-rule:nonzero;display:inline;overflow:visible;visibility:visible;opacity:0.03;isolation:auto;mix-blend-mode:normal;color-interpolation:sRGB;color-interpolation-filters:linearRGB;solid-color:#000000;solid-opacity:1;vector-effect:none;fill:#000000;fill-opacity:1;fill-rule:nonzero;stroke:none;stroke-width:0.5242;stroke-linecap:round;stroke-linejoin:round;stroke-miterlimit:4;stroke-dasharray:none;stroke-dashoffset:0;stroke-opacity:1;color-rendering:auto;image-rendering:auto;shape-rendering:auto;text-rendering:auto;enable-background:accumulate;stop-color:#000000"
       d="m 4.3097392,1.0583125 c -1.8656597,0 -3.3751097,1.5383087 -3.3751097,3.4389988 v 8.4675337 c 0,1.90069 1.50945,3.438998 3.3751097,3.438998 H 12.62172 c 1.86566,0 3.375617,-1.538308 3.375617,-3.438998 V 4.4973113 c 0,-1.9006901 -1.509957,-3.4389988 -3.375617,-3.4389988 h -0.09688 c 1.79399,0.086515 3.21381,1.5819306 3.21381,3.4317642 v 7.9368273 c 0,1.905816 -1.50594,3.440032 -3.376631,3.440032 H 4.5714698 c -1.8706905,0 -3.3766312,-1.534216 -3.3766312,-3.440032 V 4.4900767 c 0,-1.8497517 1.4199335,-3.3451277 3.2138103,-3.4317642 z" />
    <path
       id="path939"
       style="color:#000000;font-style:normal;font-variant:normal;font-weight:normal;font-stretch:normal;font-size:medium;line-height:normal;font-family:sans-serif;font-variant-ligatures:normal;font-variant-position:normal;font-variant-caps:normal;font-variant-numeric:normal;font-variant-alternates:normal;font-variant-east-asian:normal;font-feature-settings:normal;font-variation-settings:normal;text-indent:0;text-align:start;text-decoration:none;text-decoration-line:none;text-decoration-style:solid;text-decoration-color:#000000;letter-spacing:normal;word-spacing:normal;text-transform:none;writing-mode:lr-tb;direction:ltr;text-orientation:mixed;dominant-baseline:auto;baseline-shift:baseline;text-anchor:start;white-space:normal;shape-padding:0;shape-margin:0;inline-size:0;clip-rule:nonzero;display:inline;overflow:visible;visibility:visible;opacity:0.03;isolation:auto;mix-blend-mode:normal;color-interpolation:sRGB;color-interpolation-filters:linearRGB;solid-color:#000000;solid-opacity:1;vector-effect:none;fill:#000000;fill-opacity:1;fill-rule:nonzero;stroke:none;stroke-width:3.77944;stroke-linecap:butt;stroke-linejoin:miter;stroke-miterlimit:4;stroke-dasharray:none;stroke-dashoffset:0;stroke-opacity:1;color-rendering:auto;image-rendering:auto;shape-rendering:auto;text-rendering:auto;enable-background:accumulate;stop-color:#000000"
       d="M 4,46.96875 V 49 c 0,6.647851 5.3521526,12 12,12 h 32 c 6.647851,0 12,-5.352149 12,-12 V 47.007812 C 59.978827,54.19271 54.190043,59.970703 47,59.970703 H 17.001953 C 9.7987295,59.970703 4,54.171976 4,46.96875 Z"
       transform="scale(0.26457812)" />
    <path
       d="m 1.0583125,11.906016 v 0.592337 c 0,1.938596 1.4160625,3.499349 3.1749374,3.499349 H 12.69975 c 1.758876,0 3.174937,-1.560753 3.174937,-3.499349 v -0.580947 c -0.0056,2.095205 -1.537187,3.780139 -3.439515,3.780139 H 4.4983448 c -1.9058154,0 -3.4400323,-1.690981 -3.4400323,-3.791529 z"
       style="color:#000000;font-style:normal;font-variant:normal;font-weight:normal;font-stretch:normal;font-size:medium;line-height:normal;font-family:sans-serif;font-variant-ligatures:normal;font-variant-position:normal;font-variant-caps:normal;font-variant-numeric:normal;font-variant-alternates:normal;font-variant-east-asian:normal;font-feature-settings:normal;font-variation-settings:normal;text-indent:0;text-align:start;text-decoration:none;text-decoration-line:none;text-decoration-style:solid;text-decoration-color:#000000;letter-spacing:normal;word-spacing:normal;text-transform:none;writing-mode:lr-tb;direction:ltr;text-orientation:mixed;dominant-baseline:auto;baseline-shift:baseline;text-anchor:start;white-space:normal;shape-padding:0;shape-margin:0;inline-size:0;clip-rule:nonzero;display:inline;overflow:visible;visibility:visible;opacity:0.05;isolation:auto;mix-blend-mode:normal;color-interpolation:sRGB;color-interpolation-filters:linearRGB;solid-color:#000000;solid-opacity:1;vector-effect:none;fill:#000000;fill-opacity:1;fill-rule:nonzero;stroke:none;stroke-width:1.0498;stroke-linecap:butt;stroke-linejoin:miter;stroke-miterlimit:4;stroke-dasharray:none;stroke-dashoffset:0;stroke-opacity:1;color-rendering:auto;image-rendering:auto;shape-rendering:auto;text-rendering:auto;enable-background:accumulate;stop-color:#000000"
       id="path848" />
  </g>
  <rect
     id="rect21"
     stroke-width="3.7796"
     fill="url(#linearGradient862)"
     ry="13.002"
     rx="13.002"
     height="56.001999"
     width="56.001999"
     y="3.9686012"
     x="4"
     style="opacity:1;mix-blend-mode:normal;fill:url(#linearGradient862);fill-opacity:1;fill-rule:nonzero;stroke-width:3.78;stroke-miterlimit:4;stroke-dasharray:none" />
  <path
     style="fill:#000000;fill-opacity:1;stroke-width:0.0979156;filter:url(#filter22010);opacity:0.5"
     d="m 34.220221,45.213309 c -0.200712,-0.162526 -0.207781,-0.206026 -0.09944,-0.611971 0.123491,-0.462718 1.373228,-4.028247 1.438805,-4.104938 0.0212,-0.02479 0.334033,0.03066 0.695195,0.123216 0.361163,0.09256 0.76139,0.167913 0.889394,0.167461 0.252653,-8.82e-4 1.080112,-0.431772 2.878405,-1.498861 0.634058,-0.376246 1.181999,-0.654913 1.217648,-0.619264 0.03565,0.03565 -0.10453,0.837118 -0.311508,1.781044 -0.287033,1.309007 -0.426613,1.76463 -0.58826,1.920209 -0.506504,0.487495 -5.313904,3.012276 -5.74366,3.016492 -0.08828,8.82e-4 -0.257736,-0.07716 -0.376576,-0.173388 z M 18.616452,39.921786 c -0.08912,-0.09849 -0.161754,-0.241686 -0.161393,-0.318225 6.07e-4,-0.129492 1.38622,-3.162614 1.624101,-3.555183 0.100882,-0.166481 0.219692,-0.147035 2.056221,0.336546 1.072035,0.282281 1.984149,0.544019 2.026921,0.581642 0.117999,0.103791 -0.310139,1.159066 -0.602932,1.486109 -0.216654,0.241995 -0.60449,0.39727 -2.412296,0.965776 -1.184774,0.372582 -2.202385,0.67854 -2.261354,0.679909 -0.05898,0.0013 -0.180141,-0.07809 -0.269268,-0.176574 z M 36.274988,39.555587 C 35.71568,39.377242 28.78471,37.3814 20.482324,35.007931 c -3.542963,-1.012855 -6.550187,-1.912604 -6.68272,-1.999442 -0.308251,-0.201975 -0.318493,-0.588662 -0.02065,-0.779876 0.318236,-0.204311 8.455335,-1.358288 9.22131,-1.307737 0.682808,0.04506 23.459007,3.392083 23.576351,3.464605 0.121526,0.07512 0.09049,0.491059 -0.04499,0.603027 -0.333414,0.275541 -9.354379,4.719806 -9.568735,4.714128 -0.136002,-0.0035 -0.445552,-0.06977 -0.687894,-0.147049 z m 4.210358,-7.340657 c -3.796666,-0.503672 -8.775658,-1.160207 -11.064429,-1.458968 -5.6443,-0.736768 -5.581171,-0.723488 -5.581171,-1.174095 0,-0.117644 0.216312,-1.158719 0.480694,-2.3135 0.264382,-1.154781 0.688336,-3.068964 0.942122,-4.253738 0.472857,-2.207492 0.606959,-2.619656 0.903685,-2.77745 0.279428,-0.148597 23.80219,-1.734921 23.988025,-1.6177 0.08716,0.05498 0.201587,0.168311 0.254278,0.251846 0.09645,0.152904 0.06727,0.3139 -1.85918,10.258403 -0.401161,2.070824 -0.776815,3.822284 -0.834784,3.892133 -0.05798,0.06985 -0.155083,0.122913 -0.215805,0.117918 -0.06072,-0.005 -3.216769,-0.421177 -7.013435,-0.924849 z"
     id="path1009-7" />
  <path
     style="fill:#ffffff;fill-opacity:1;stroke-width:0.0979156"
     d="m 34.220221,45.213309 c -0.200712,-0.162526 -0.207781,-0.206026 -0.09944,-0.611971 0.123491,-0.462718 1.373228,-4.028247 1.438805,-4.104938 0.0212,-0.02479 0.334033,0.03066 0.695195,0.123216 0.361163,0.09256 0.76139,0.167913 0.889394,0.167461 0.252653,-8.82e-4 1.080112,-0.431772 2.878405,-1.498861 0.634058,-0.376246 1.181999,-0.654913 1.217648,-0.619264 0.03565,0.03565 -0.10453,0.837118 -0.311508,1.781044 -0.287033,1.309007 -0.426613,1.76463 -0.58826,1.920209 -0.506504,0.487495 -5.313904,3.012276 -5.74366,3.016492 -0.08828,8.82e-4 -0.257736,-0.07716 -0.376576,-0.173388 z M 18.616452,39.921786 c -0.08912,-0.09849 -0.161754,-0.241686 -0.161393,-0.318225 6.07e-4,-0.129492 1.38622,-3.162614 1.624101,-3.555183 0.100882,-0.166481 0.219692,-0.147035 2.056221,0.336546 1.072035,0.282281 1.984149,0.544019 2.026921,0.581642 0.117999,0.103791 -0.310139,1.159066 -0.602932,1.486109 -0.216654,0.241995 -0.60449,0.39727 -2.412296,0.965776 -1.184774,0.372582 -2.202385,0.67854 -2.261354,0.679909 -0.05898,0.0013 -0.180141,-0.07809 -0.269268,-0.176574 z M 36.274988,39.555587 C 35.71568,39.377242 28.78471,37.3814 20.482324,35.007931 c -3.542963,-1.012855 -6.550187,-1.912604 -6.68272,-1.999442 -0.308251,-0.201975 -0.318493,-0.588662 -0.02065,-0.779876 0.318236,-0.204311 8.455335,-1.358288 9.22131,-1.307737 0.682808,0.04506 23.459007,3.392083 23.576351,3.464605 0.121526,0.07512 0.09049,0.491059 -0.04499,0.603027 -0.333414,0.275541 -9.354379,4.719806 -9.568735,4.714128 -0.136002,-0.0035 -0.445552,-0.06977 -0.687894,-0.147049 z m 4.210358,-7.340657 c -3.796666,-0.503672 -8.775658,-1.160207 -11.064429,-1.458968 -5.6443,-0.736768 -5.581171,-0.723488 -5.581171,-1.174095 0,-0.117644 0.216312,-1.158719 0.480694,-2.3135 0.264382,-1.154781 0.688336,-3.068964 0.942122,-4.253738 0.472857,-2.207492 0.606959,-2.619656 0.903685,-2.77745 0.279428,-0.148597 23.80219,-1.734921 23.988025,-1.6177 0.08716,0.05498 0.201587,0.168311 0.254278,0.251846 0.09645,0.152904 0.06727,0.3139 -1.85918,10.258403 -0.401161,2.070824 -0.776815,3.822284 -0.834784,3.892133 -0.05798,0.06985 -0.155083,0.122913 -0.215805,0.117918 -0.06072,-0.005 -3.216769,-0.421177 -7.013435,-0.924849 z"
     id="path1009" />
  <circle
     id="circle23"
     stroke-width="1.5715"
     fill-opacity="0"
     r="30.001"
     cy="32.044"
     cx="32.02" />
  <circle
     id="circle25"
     stroke-width="1.5715"
     fill="url(#b-3)"
     r="0"
     cy="32.044"
     cx="32.02" />
</svg>
