<svg width="64" xmlns="http://www.w3.org/2000/svg" height="64" fill="none"><g xmlns:xlink="http://www.w3.org/1999/xlink" style="fill: rgb(0, 0, 0);"><defs><pattern patternUnits="userSpaceOnUse" x="1.559" y="1.999" width="63.926" height="65.101" id="a"><rect width="63.926" height="65.101" fill="none"/><image href="https://design.penpot.app/assets/by-file-media-id/1c096c09-a10e-80c0-8003-2a94e3380417" preserveAspectRatio="none" width="60.882" height="62.001"/></pattern></defs><rect width="60.882" height="62.001" x="1.559" transform="matrix(1.000000, 0.000000, 0.000000, 1.000000, 0.000000, 0.000000)" ry="0" fill="url(#a)" rx="0" y="1.999" class="fills"/><defs><linearGradient x1="7.937" y1="15.081" x2="7.937" y2="1.852" id="b" gradientTransform="matrix(1.000000, 0.000000, 0.000000, 1.000000, -0.001000, 0.030400) scale(3.7796)" gradientUnits="userSpaceOnUse"><stop stop-color="#363636" offset="0"/><stop stop-color="#6c6c6c" offset="1"/></linearGradient></defs><rect width="56.002" height="56.002" x="3.999" transform="matrix(1.000000, 0.000000, 0.000000, 1.000000, 0.000000, 0.000000)" style="fill: rgb(255, 255, 255); fill-opacity: 1;" ry="13.002" fill="url(#b)" rx="13.002" y="3.999" class="fills"/><g style="fill: rgb(0, 0, 0);"><path d="M23.227,17.307L19.980,18.630L14.748,25.059L11.500,33.190L12.943,37.161C13.849,40.029,15.486,42.595,18.175,44.725L19.980,42.204C19.980,42.204,22.738,48.035,27.729,48.981C27.729,48.981,35.135,50.445,38.984,48.318C41.452,46.954,42.171,44.977,42.171,44.977L44.637,42.393L45.780,44.158L47.283,44.095L51.192,38.611L52.455,34.514L52.335,31.110L50.651,26.950L47.163,21.341C47.163,21.341,45.238,17.622,41.269,18.378C41.269,18.378,36.578,14.722,32.729,15.290C28.880,15.857,29.422,14.344,23.227,17.307ZZ" style="fill: rgb(244, 170, 65);" class="fills"/><path d="M32.248,42.015L30.023,43.843L28.219,43.843L28.159,46.742L28.700,49.389L29.482,50.839L31.526,51.974L34.834,51.533L35.977,50.209L36.698,46.994L36.518,43.969L35.075,44.158Z" style="fill: rgb(234, 90, 71);" class="fills"/><path d="M29.722,34.199L28.580,37.035L30.143,37.981L31.045,38.359L34.173,38.485L36.277,36.783L35.015,34.325Z" style="fill: rgb(63, 63, 63);" class="fills"/><path d="M27.562,29.048C27.562,29.048,26.259,29.988,25.578,29.553C24.897,29.119,24.681,28.188,25.096,27.474C25.511,26.761,26.399,26.535,27.079,26.969C27.760,27.404,27.562,29.048,27.562,29.048ZZ" class="fills"/><path d="M30.162,34.265L34.597,34.265C34.886,34.265,35.148,34.446,35.261,34.725L36.097,36.786L34.524,37.653C34.080,37.897,33.539,37.604,33.473,37.082" fill="none" style="fill: none;" class="fills"/><g fill="none" stroke-linejoin="round" stroke-miterlimit="10" class="strokes"><path d="M30.162,34.265L34.597,34.265C34.886,34.265,35.148,34.446,35.261,34.725L36.097,36.786L34.524,37.653C34.080,37.897,33.539,37.604,33.473,37.082" style="fill: none; stroke-width: 1.5; stroke: rgb(0, 0, 0); stroke-opacity: 1;" class="stroke-shape"/></g><path d="M31.354,37.107C31.272,37.581,30.794,37.855,30.369,37.672L28.699,36.952L29.486,34.755C29.592,34.460,29.861,34.265,30.162,34.265" fill="none" style="fill: none;" class="fills"/><g fill="none" stroke-linejoin="round" stroke-miterlimit="10" class="strokes"><path d="M31.354,37.107C31.272,37.581,30.794,37.855,30.369,37.672L28.699,36.952L29.486,34.755C29.592,34.460,29.861,34.265,30.162,34.265" style="fill: none; stroke-width: 1.5; stroke: rgb(0, 0, 0); stroke-opacity: 1;" class="stroke-shape"/></g><path d="M28.233,44.113C28.233,44.113,27.714,50.765,30.403,51.630C32.313,52.244,34.120,52.033,34.778,51.441C35.410,50.874,36.678,48.057,36.097,44.113" fill="none" style="fill: none;" class="fills"/><g fill="none" stroke-linejoin="round" stroke-miterlimit="10" class="strokes"><path d="M28.233,44.113C28.233,44.113,27.714,50.765,30.403,51.630C32.313,52.244,34.120,52.033,34.778,51.441C35.410,50.874,36.678,48.057,36.097,44.113" style="fill: none; stroke-width: 1.5; stroke: rgb(0, 0, 0); stroke-opacity: 1;" class="stroke-shape"/></g><path d="M38.212,29.048C38.212,29.048,39.514,29.988,40.195,29.553C40.876,29.119,41.092,28.188,40.677,27.474C40.263,26.761,39.375,26.535,38.694,26.969C38.013,27.404,38.212,29.048,38.212,29.048ZZ" class="fills"/><path d="M24.760,38.677C24.418,41.402,26.373,43.027,27.853,43.852C28.716,44.333,29.766,44.244,30.535,43.611L32.398,42.081L34.261,43.611C35.031,44.244,36.080,44.333,36.944,43.852C38.423,43.027,40.379,41.402,40.036,38.677" fill="none" style="fill: none;" class="fills"/><g fill="none" stroke-linejoin="round" stroke-miterlimit="10" class="strokes"><path d="M24.760,38.677C24.418,41.402,26.373,43.027,27.853,43.852C28.716,44.333,29.766,44.244,30.535,43.611L32.398,42.081L34.261,43.611C35.031,44.244,36.080,44.333,36.944,43.852C38.423,43.027,40.379,41.402,40.036,38.677" style="fill: none; stroke-width: 1.5; stroke: rgb(0, 0, 0); stroke-opacity: 1;" class="stroke-shape"/></g><path d="M20.666,27.723C18.994,31.626,20.299,37.575,20.752,39.353C20.840,39.699,20.806,40.061,20.660,40.384L19.226,43.556C18.776,44.550,17.499,44.731,16.822,43.890C14.518,41.025,10.646,35.275,12.096,31.269C17.193,17.192,23.547,17.546,23.547,17.546C25.601,16.083,33.004,12.299,41.454,18.208C41.454,18.208,47.683,16.909,52.234,31.019C53.535,35.055,49.759,40.751,47.506,43.608C46.834,44.461,45.546,44.284,45.094,43.285L43.670,40.134C43.523,39.811,43.490,39.449,43.578,39.103C44.031,37.325,45.336,31.376,43.664,27.473" fill="none" style="fill: none;" class="fills"/><g fill="none" stroke-linejoin="round" stroke-miterlimit="10" class="strokes"><path d="M20.666,27.723C18.994,31.626,20.299,37.575,20.752,39.353C20.840,39.699,20.806,40.061,20.660,40.384L19.226,43.556C18.776,44.550,17.499,44.731,16.822,43.890C14.518,41.025,10.646,35.275,12.096,31.269C17.193,17.192,23.547,17.546,23.547,17.546C25.601,16.083,33.004,12.299,41.454,18.208C41.454,18.208,47.683,16.909,52.234,31.019C53.535,35.055,49.759,40.751,47.506,43.608C46.834,44.461,45.546,44.284,45.094,43.285L43.670,40.134C43.523,39.811,43.490,39.449,43.578,39.103C44.031,37.325,45.336,31.376,43.664,27.473" style="fill: none; stroke-width: 1.5; stroke: rgb(0, 0, 0); stroke-opacity: 1;" class="stroke-shape"/></g><path d="M44.250,41.418C44.250,41.418,42.029,46.502,38.618,47.674" fill="none" style="fill: none;" class="fills"/><g fill="none" stroke-linejoin="round" stroke-miterlimit="10" class="strokes"><path d="M44.250,41.418C44.250,41.418,42.029,46.502,38.618,47.674" style="fill: none; stroke-width: 1.5; stroke: rgb(0, 0, 0); stroke-opacity: 1;" class="stroke-shape"/></g><path d="M20.295,41.801C20.295,41.801,22.516,46.401,25.928,47.573" fill="none" style="fill: none;" class="fills"/><g fill="none" stroke-linejoin="round" stroke-miterlimit="10" class="strokes"><path d="M20.295,41.801C20.295,41.801,22.516,46.401,25.928,47.573" style="fill: none; stroke-width: 1.5; stroke: rgb(0, 0, 0); stroke-opacity: 1;" class="stroke-shape"/></g><path d="M32.398,42.081L32.398,39.789" fill="none" style="fill: none;" class="fills"/><g fill="none" stroke-linejoin="round" stroke-miterlimit="10" class="strokes"><path d="M32.398,42.081L32.398,39.789" style="fill: none; stroke-width: 1.5; stroke: rgb(0, 0, 0); stroke-opacity: 1;" class="stroke-shape"/></g></g></g></svg>