<svg width="64" height="64" version="1.1" viewBox="0 0 16.933 16.933" xmlns="http://www.w3.org/2000/svg">
 <defs>
  <linearGradient id="linearGradient1249" x1="8.4665" x2="8.4665" y1="15.875" y2="1.0583" gradientTransform="translate(-.00030021 .0079998)" gradientUnits="userSpaceOnUse">
   <stop stop-color="#292929" offset="0"/>
   <stop stop-color="#5c5c5c" offset="1"/>
  </linearGradient>
  <radialGradient id="radialGradient1042" cx="12.171" cy="12.171" r="4.7624" gradientUnits="userSpaceOnUse">
   <stop offset="0"/>
   <stop stop-opacity="0" offset="1"/>
  </radialGradient>
  <linearGradient id="linearGradient967" x1="9.3898" x2="15.269" y1="15.064" y2="9.1855" gradientUnits="userSpaceOnUse">
   <stop stop-color="#2f5fdd" offset="0"/>
   <stop stop-color="#1a7fd4" offset="1"/>
  </linearGradient>
 </defs>
 <g shape-rendering="auto">
  <path d="m4.3693 0.52916c-2.1142 0-3.8402 1.7835-3.8402 3.9682v8.4675c0 2.1846 1.726 3.9682 3.8402 3.9682h8.1944c2.1142 0 3.8402-1.7835 3.8402-3.9682v-8.4675c0-2.1846-1.726-3.9682-3.8402-3.9682zm0.25704 0.52089h7.6808c1.8443 0 3.3291 1.5342 3.3291 3.44v7.9368c0 1.9058-1.4847 3.44-3.3291 3.44h-7.6808c-1.8443 0-3.3291-1.5342-3.3291-3.44v-7.9368c0-1.9058 1.4847-3.44 3.3291-3.44z" color="#000000" color-rendering="auto" dominant-baseline="auto" image-rendering="auto" opacity=".01" solid-color="#000000" stop-color="#000000" style="font-feature-settings:normal;font-variant-alternates:normal;font-variant-caps:normal;font-variant-east-asian:normal;font-variant-ligatures:normal;font-variant-numeric:normal;font-variant-position:normal;font-variation-settings:normal;inline-size:0;isolation:auto;mix-blend-mode:normal;shape-margin:0;shape-padding:0;text-decoration-color:#000000;text-decoration-line:none;text-decoration-style:solid;text-indent:0;text-orientation:mixed;text-transform:none;white-space:normal"/>
  <path d="m4.3587 0.79373c-1.9668 0-3.5639 1.6528-3.5639 3.6876v8.4996c0 2.0348 1.5971 3.6876 3.5639 3.6876h8.2162c1.9668 0 3.5644-1.6528 3.5644-3.6876v-8.4996c0-2.0348-1.5976-3.6876-3.5644-3.6876zm0.27222 0.25631h7.6718c1.8422 0 3.3251 1.5342 3.3251 3.44v7.9368c0 1.9058-1.483 3.44-3.3251 3.44h-7.6718c-1.8422 0-3.3251-1.5342-3.3251-3.44v-7.9368c0-1.9058 1.483-3.44 3.3251-3.44z" color="#000000" color-rendering="auto" dominant-baseline="auto" image-rendering="auto" opacity=".01" solid-color="#000000" stop-color="#000000" style="font-feature-settings:normal;font-variant-alternates:normal;font-variant-caps:normal;font-variant-east-asian:normal;font-variant-ligatures:normal;font-variant-numeric:normal;font-variant-position:normal;font-variation-settings:normal;inline-size:0;isolation:auto;mix-blend-mode:normal;shape-margin:0;shape-padding:0;text-decoration-color:#000000;text-decoration-line:none;text-decoration-style:solid;text-indent:0;text-orientation:mixed;text-transform:none;white-space:normal"/>
  <path d="m4.3097 1.0583c-1.8657 0-3.3751 1.5383-3.3751 3.439v8.4675c0 1.9007 1.57 3.439 3.4357 3.439h8.1996c1.8657 0 3.4274-1.5383 3.4274-3.439v-8.4675c0-1.9007-1.51-3.439-3.3756-3.439h-0.09688c1.794 0.086515 3.2138 1.5819 3.2138 3.4318v7.9368c0 1.9058-1.5059 3.44-3.3766 3.44h-7.7905c-1.8707 0-3.3766-1.5342-3.3766-3.44v-7.9368c0-1.8498 1.4199-3.3451 3.2138-3.4318z" color="#000000" color-rendering="auto" dominant-baseline="auto" image-rendering="auto" opacity=".03" solid-color="#000000" stop-color="#000000" style="font-feature-settings:normal;font-variant-alternates:normal;font-variant-caps:normal;font-variant-east-asian:normal;font-variant-ligatures:normal;font-variant-numeric:normal;font-variant-position:normal;font-variation-settings:normal;inline-size:0;isolation:auto;mix-blend-mode:normal;shape-margin:0;shape-padding:0;text-decoration-color:#000000;text-decoration-line:none;text-decoration-style:solid;text-indent:0;text-orientation:mixed;text-transform:none;white-space:normal"/>
  <path transform="scale(.26458)" d="m4 46.969v2.0312c0 6.6479 5.8957 12 12.544 12h30.961c6.6479 0 12.495-5.3521 12.495-12v-1.9922c-0.02117 7.1849-5.81 12.963-13 12.963h-29.998c-7.2032 0-13.002-5.7987-13.002-13.002z" color="#000000" color-rendering="auto" dominant-baseline="auto" image-rendering="auto" opacity=".03" solid-color="#000000" stop-color="#000000" style="font-feature-settings:normal;font-variant-alternates:normal;font-variant-caps:normal;font-variant-east-asian:normal;font-variant-ligatures:normal;font-variant-numeric:normal;font-variant-position:normal;font-variation-settings:normal;inline-size:0;isolation:auto;mix-blend-mode:normal;shape-margin:0;shape-padding:0;text-decoration-color:#000000;text-decoration-line:none;text-decoration-style:solid;text-indent:0;text-orientation:mixed;text-transform:none;white-space:normal"/>
  <path d="m1.0583 11.906v0.59234c0 1.9386 1.5729 3.4993 3.3318 3.4993h8.1603c1.7589 0 3.3243-1.5608 3.3243-3.4993v-0.58095c-0.0056 2.0952-1.5372 3.7801-3.4395 3.7801h-7.9368c-1.9058 0-3.44-1.691-3.44-3.7915z" color="#000000" color-rendering="auto" dominant-baseline="auto" image-rendering="auto" opacity=".05" solid-color="#000000" stop-color="#000000" style="font-feature-settings:normal;font-variant-alternates:normal;font-variant-caps:normal;font-variant-east-asian:normal;font-variant-ligatures:normal;font-variant-numeric:normal;font-variant-position:normal;font-variation-settings:normal;inline-size:0;isolation:auto;mix-blend-mode:normal;shape-margin:0;shape-padding:0;text-decoration-color:#000000;text-decoration-line:none;text-decoration-style:solid;text-indent:0;text-orientation:mixed;text-transform:none;white-space:normal"/>
 </g>
 <rect x="1.058" y="1.058" width="14.817" height="14.817" ry="3.175" fill="url(#linearGradient1249)"/>
 <path d="m8.4267 1.0583v7.3684h-7.3684v0.07958h7.3684v7.3684h0.07958v-7.3684h7.3684v-0.07958h-7.3684v-7.3684z" opacity=".5" stroke-linecap="round" stroke-linejoin="round" stroke-width=".57966"/>
 <path d="m4.2332 15.875c-1.759 0-3.1749-1.416-3.1749-3.1749v-0.27285c0 1.759 1.416 3.1749 3.1749 3.1749h8.467c1.759 0 3.1749-1.416 3.1749-3.1749v0.27285c0 1.759-1.416 3.1749-3.1749 3.1749z" opacity=".25"/>
 <circle cx="12.171" cy="12.171" r="4.7624" fill="url(#radialGradient1042)" stroke-width="1.125"/>
 <circle cx="12.171" cy="11.906" r="4.2333" fill="url(#linearGradient967)"/>
 <g transform="translate(0 .17712)" opacity=".15">
  <path transform="scale(.26458)" d="m19.5 16c-0.277 0-0.5 0.223-0.5 0.5v3.5h-3.5c-0.277 0-0.5 0.223-0.5 0.5s0.223 0.5 0.5 0.5h3.5v3.5c0 0.277 0.223 0.5 0.5 0.5s0.5-0.223 0.5-0.5v-3.5h3.5c0.277 0 0.5-0.223 0.5-0.5s-0.223-0.5-0.5-0.5h-3.5v-3.5c0-0.277-0.223-0.5-0.5-0.5z"/>
  <path d="m12.964 5.4239c0 0.073288-0.059 0.13229-0.13229 0.13229h-2.1166c-0.07329 0-0.13229-0.059001-0.13229-0.13229 0-0.073288 0.059-0.13229 0.13229-0.13229h2.1166c0.07329 0 0.13229 0.059001 0.13229 0.13229z"/>
  <path d="m6.0012 10.8c-0.051822-0.05182-0.13526-0.05182-0.18708 0l-0.6548 0.6548-0.6548-0.6548c-0.051822-0.05182-0.13526-0.05182-0.18708 0-0.051824 0.05182-0.051823 0.13526 0 0.18708l0.6548 0.6548-0.6548 0.6548c-0.051824 0.05182-0.051822 0.13526 0 0.18708s0.13526 0.05182 0.18708 0l0.6548-0.6548 0.6548 0.6548c0.051822 0.05182 0.13526 0.05182 0.18708 0 0.051824-0.05182 0.051823-0.13526 0-0.18708l-0.6548-0.6548 0.6548-0.6548c0.051824-0.05182 0.051822-0.13526 0-0.18708z"/>
 </g>
 <g fill="#fff">
  <path transform="scale(.26458)" d="m19.5 16c-0.277 0-0.5 0.223-0.5 0.5v3.5h-3.5c-0.277 0-0.5 0.223-0.5 0.5s0.223 0.5 0.5 0.5h3.5v3.5c0 0.277 0.223 0.5 0.5 0.5s0.5-0.223 0.5-0.5v-3.5h3.5c0.277 0 0.5-0.223 0.5-0.5s-0.223-0.5-0.5-0.5h-3.5v-3.5c0-0.277-0.223-0.5-0.5-0.5z"/>
  <path d="m12.964 5.4239c0 0.073288-0.059 0.13229-0.13229 0.13229h-2.1166c-0.07329 0-0.13229-0.059001-0.13229-0.13229 0-0.073288 0.059-0.13229 0.13229-0.13229h2.1166c0.07329 0 0.13229 0.059001 0.13229 0.13229z"/>
  <path d="m6.0012 10.8c-0.051822-0.05182-0.13526-0.05182-0.18708 0l-0.6548 0.6548-0.6548-0.6548c-0.051822-0.05182-0.13526-0.05182-0.18708 0-0.051824 0.05182-0.051823 0.13526 0 0.18708l0.6548 0.6548-0.6548 0.6548c-0.051824 0.05182-0.051822 0.13526 0 0.18708s0.13526 0.05182 0.18708 0l0.6548-0.6548 0.6548 0.6548c0.051822 0.05182 0.13526 0.05182 0.18708 0 0.051824-0.05182 0.051823-0.13526 0-0.18708l-0.6548-0.6548 0.6548-0.6548c0.051824-0.05182 0.051822-0.13526-1e-7 -0.18708z"/>
 </g>
 <g transform="matrix(1.1111 0 0 1 -1.4989 .13275)" opacity=".15">
  <path transform="rotate(90)" d="m11.245-13.493c0.07329 0 0.13229 0.059 0.13229 0.13229v2.1166c0 0.07329-0.059 0.13229-0.13229 0.13229s-0.13229-0.059-0.13229-0.13229v-2.1166c0-0.07329 0.059-0.13229 0.13229-0.13229z"/>
  <path transform="rotate(90)" d="m12.567-13.493c0.07329 0 0.13229 0.059 0.13229 0.13229v2.1166c0 0.07329-0.059 0.13229-0.13229 0.13229s-0.13229-0.059-0.13229-0.13229v-2.1166c0-0.07329 0.059-0.13229 0.13229-0.13229z"/>
 </g>
 <g fill="#fff">
  <g transform="matrix(1.1111 0 0 1 -1.4989 -1.5393e-5)">
   <path transform="rotate(90)" d="m11.245-13.493c0.07329 0 0.13229 0.059 0.13229 0.13229v2.1166c0 0.07329-0.059 0.13229-0.13229 0.13229s-0.13229-0.059-0.13229-0.13229v-2.1166c0-0.07329 0.059-0.13229 0.13229-0.13229z"/>
   <path transform="rotate(90)" d="m12.567-13.493c0.07329 0 0.13229 0.059 0.13229 0.13229v2.1166c0 0.07329-0.059 0.13229-0.13229 0.13229s-0.13229-0.059-0.13229-0.13229v-2.1166c0-0.07329 0.059-0.13229 0.13229-0.13229z"/>
  </g>
  <path d="m4.2332 1.0583c-1.759 0-3.1749 1.416-3.1749 3.1749v0.27285c0-1.759 1.416-3.1749 3.1749-3.1749h8.467c1.759 0 3.1749 1.416 3.1749 3.1749v-0.27285c0-1.759-1.416-3.1749-3.1749-3.1749z" opacity=".1"/>
  <path transform="scale(.26458)" d="m46.002 29a16 16 0 0 0-16 16 16 16 0 0 0 0.007813 0.49609 16 16 0 0 1 15.992-15.496 16 16 0 0 1 15.992 15.486 16 16 0 0 0 0.007812-0.48633 16 16 0 0 0-16-16z" opacity=".05" stroke-width="3.7796"/>
 </g>
 <path d="m12.171 16.139a4.2333 4.2333 0 0 1-4.2332-4.2332 4.2333 4.2333 0 0 1 0.00207-0.13126 4.2333 4.2333 0 0 0 4.2312 4.0999 4.2333 4.2333 0 0 0 4.2312-4.0973 4.2333 4.2333 0 0 1 0.0021 0.12867 4.2333 4.2333 0 0 1-4.2332 4.2332z" opacity=".15"/>
</svg>
