<svg width="64" height="64" viewBox="0 0 16.933 16.933" xmlns="http://www.w3.org/2000/svg" xmlns:xlink="http://www.w3.org/1999/xlink"><defs><linearGradient id="a"><stop offset="0"/><stop stop-opacity="0" offset="1"/></linearGradient><linearGradient id="e" x1="9.39" x2="15.269" y1="15.064" y2="9.185" gradientTransform="translate(21.524)" gradientUnits="userSpaceOnUse"><stop stop-color="#2f5fdd" offset="0"/><stop stop-color="#1a7fd4" offset="1"/></linearGradient><linearGradient id="c" x1="8.466" x2="8.466" y1="15.875" y2="1.058" gradientTransform="translate(21.524 .008)" gradientUnits="userSpaceOnUse"><stop stop-color="#292929" offset="0"/><stop stop-color="#5c5c5c" offset="1"/></linearGradient><linearGradient id="g" x1="8.466" x2="8.466" y1="15.875" y2="1.058" gradientTransform="translate(44.221 .915) scale(.89283)" gradientUnits="userSpaceOnUse"><stop stop-color="#161616" offset="0"/><stop stop-color="#474747" offset="1"/></linearGradient><linearGradient id="b" x1="8.467" x2="8.467" y1="14.808" y2="2.109" gradientTransform="translate(43.314 .008)" gradientUnits="userSpaceOnUse"><stop stop-color="#2f5fdd" offset="0"/><stop stop-color="#1a7fd4" offset="1"/></linearGradient><linearGradient id="h" x1="8.466" x2="8.466" y1="1.852" y2="2.646" gradientTransform="matrix(1 0 0 2 0 -1.852)" gradientUnits="userSpaceOnUse" xlink:href="#a"/><linearGradient id="k" x1="8.466" x2="8.466" y1="1.852" y2="2.646" gradientTransform="matrix(1 0 0 2 -16.933 -1.852)" gradientUnits="userSpaceOnUse" xlink:href="#a"/><linearGradient id="l" x1="8.466" x2="8.466" y1="1.852" y2="2.646" gradientTransform="matrix(.5 0 0 2 -10.583 -18.785)" gradientUnits="userSpaceOnUse" xlink:href="#a"/><linearGradient id="n" x1="8.466" x2="8.466" y1="1.852" y2="2.646" gradientTransform="matrix(.5 0 0 2 2.117 -18.785)" gradientUnits="userSpaceOnUse" xlink:href="#a"/><linearGradient id="o" x1="8.466" x2="8.466" y1="15.875" y2="1.058" gradientUnits="userSpaceOnUse"><stop stop-color="#bfbfbd" offset="0"/><stop stop-color="#d4d6d6" offset="1"/></linearGradient><linearGradient id="q" x1="-1.784" x2="6.966" y1="-27.458" y2="-19.626" gradientTransform="matrix(3.2483 0 0 3.192 25.795 106.65)" gradientUnits="userSpaceOnUse"><stop stop-color="#4d5055" offset="0"/><stop stop-color="#131311" offset="1"/></linearGradient><linearGradient id="r" x1="11.906" x2="11.906" y1="15.081" y2="10.054" gradientTransform="scale(3.7796)" gradientUnits="userSpaceOnUse" xlink:href="#b"/><linearGradient id="f" x1="8.467" x2="8.467" y1="14.808" y2="2.109" gradientTransform="translate(43.314 .008)" gradientUnits="userSpaceOnUse" xlink:href="#b"/><radialGradient id="d" cx="12.171" cy="12.171" r="4.762" gradientTransform="translate(21.524)" gradientUnits="userSpaceOnUse"><stop offset="0"/><stop stop-opacity="0" offset="1"/></radialGradient><radialGradient id="i" cx="16" cy="16" r="4.5" gradientTransform="matrix(0 -2 2 0 -16 48)" gradientUnits="userSpaceOnUse"><stop stop-opacity="0" offset="0"/><stop stop-opacity="0" offset=".333"/><stop offset="1"/></radialGradient><radialGradient id="j" cx="16" cy="16" r="4.5" gradientTransform="rotate(90 -4.233 0) scale(.52916)" gradientUnits="userSpaceOnUse"><stop stop-opacity="0" offset="0"/><stop stop-opacity="0" offset=".333"/><stop offset="1"/></radialGradient><radialGradient id="m" cx="16" cy="16" r="4.5" gradientTransform="translate(4.233 -4.233) scale(.52916)" gradientUnits="userSpaceOnUse"><stop stop-opacity="0" offset="0"/><stop stop-opacity="0" offset=".333"/><stop offset="1"/></radialGradient><filter id="p" x="-.233" y="-.163" width="1.466" height="1.326" color-interpolation-filters="sRGB"><feGaussianBlur stdDeviation=".72"/></filter></defs><g color="#000"><path d="M4.37.53C2.254.53.53 2.312.53 4.496v8.468c0 2.184 1.725 3.968 3.84 3.968h8.194c2.114 0 3.84-1.783 3.84-3.968V4.497c0-2.184-1.726-3.968-3.84-3.968zm.256.52h7.681c1.844 0 3.33 1.534 3.33 3.44v7.937c0 1.906-1.485 3.44-3.33 3.44h-7.68c-1.845 0-3.33-1.534-3.33-3.44V4.49c0-1.906 1.485-3.44 3.33-3.44z" opacity=".01" style="font-feature-settings:normal;font-variant-alternates:normal;font-variant-caps:normal;font-variant-east-asian:normal;font-variant-ligatures:normal;font-variant-numeric:normal;font-variant-position:normal;font-variation-settings:normal;inline-size:0;isolation:auto;mix-blend-mode:normal;shape-margin:0;shape-padding:0;text-decoration-color:#000;text-decoration-line:none;text-decoration-style:solid;text-indent:0;text-orientation:mixed;text-transform:none;white-space:normal" transform="translate(21.524)"/><path d="M4.359.794C2.392.794.795 2.447.795 4.48v8.5c0 2.035 1.597 3.688 3.564 3.688h8.216c1.967 0 3.564-1.653 3.564-3.688v-8.5c0-2.034-1.597-3.687-3.564-3.687zm.272.256h7.672c1.842 0 3.325 1.534 3.325 3.44v7.937c0 1.906-1.483 3.44-3.325 3.44H4.63c-1.842 0-3.325-1.534-3.325-3.44V4.49c0-1.906 1.483-3.44 3.325-3.44z" opacity=".01" style="font-feature-settings:normal;font-variant-alternates:normal;font-variant-caps:normal;font-variant-east-asian:normal;font-variant-ligatures:normal;font-variant-numeric:normal;font-variant-position:normal;font-variation-settings:normal;inline-size:0;isolation:auto;mix-blend-mode:normal;shape-margin:0;shape-padding:0;text-decoration-color:#000;text-decoration-line:none;text-decoration-style:solid;text-indent:0;text-orientation:mixed;text-transform:none;white-space:normal" transform="translate(21.524)"/><path d="M4.31 1.058c-1.866 0-3.375 1.539-3.375 3.44v8.467c0 1.9 1.57 3.439 3.435 3.439h8.2c1.866 0 3.427-1.538 3.427-3.44V4.498c0-1.9-1.51-3.439-3.375-3.439h-.097c1.794.087 3.214 1.582 3.214 3.432v7.937c0 1.906-1.506 3.44-3.377 3.44h-7.79c-1.871 0-3.377-1.534-3.377-3.44V4.49c0-1.85 1.42-3.345 3.214-3.432z" opacity=".03" style="font-feature-settings:normal;font-variant-alternates:normal;font-variant-caps:normal;font-variant-east-asian:normal;font-variant-ligatures:normal;font-variant-numeric:normal;font-variant-position:normal;font-variation-settings:normal;inline-size:0;isolation:auto;mix-blend-mode:normal;shape-margin:0;shape-padding:0;text-decoration-color:#000;text-decoration-line:none;text-decoration-style:solid;text-indent:0;text-orientation:mixed;text-transform:none;white-space:normal" transform="translate(21.524)"/><path transform="translate(21.524) scale(.26458)" d="M4 46.969V49c0 6.648 5.896 12 12.544 12h30.961C54.153 61 60 55.648 60 49v-1.992a12.972 12.972 0 0 1-13 12.963H17.002A12.973 12.973 0 0 1 4 46.969z" opacity=".03" style="font-feature-settings:normal;font-variant-alternates:normal;font-variant-caps:normal;font-variant-east-asian:normal;font-variant-ligatures:normal;font-variant-numeric:normal;font-variant-position:normal;font-variation-settings:normal;inline-size:0;isolation:auto;mix-blend-mode:normal;shape-margin:0;shape-padding:0;text-decoration-color:#000;text-decoration-line:none;text-decoration-style:solid;text-indent:0;text-orientation:mixed;text-transform:none;white-space:normal"/><path d="M1.058 11.906v.592c0 1.939 1.573 3.5 3.332 3.5h8.16c1.76 0 3.325-1.561 3.325-3.5v-.58c-.006 2.095-1.537 3.78-3.44 3.78H4.498c-1.905 0-3.44-1.692-3.44-3.792z" opacity=".05" style="font-feature-settings:normal;font-variant-alternates:normal;font-variant-caps:normal;font-variant-east-asian:normal;font-variant-ligatures:normal;font-variant-numeric:normal;font-variant-position:normal;font-variation-settings:normal;inline-size:0;isolation:auto;mix-blend-mode:normal;shape-margin:0;shape-padding:0;text-decoration-color:#000;text-decoration-line:none;text-decoration-style:solid;text-indent:0;text-orientation:mixed;text-transform:none;white-space:normal" transform="translate(21.524)"/></g><rect x="22.582" y="1.058" width="14.817" height="14.817" ry="3.175" fill="url(#c)"/><path d="M29.951 1.058v7.369h-7.368v.08h7.368v7.368h.08V8.506h7.368v-.08h-7.368V1.059z" opacity=".5"/><path d="M25.758 15.875a3.168 3.168 0 0 1-3.175-3.175v-.273a3.168 3.168 0 0 0 3.175 3.175h8.467a3.168 3.168 0 0 0 3.175-3.175v.273a3.168 3.168 0 0 1-3.175 3.175z" opacity=".25"/><circle cx="33.695" cy="12.171" r="4.762" fill="url(#d)"/><circle cx="33.695" cy="11.906" r="4.233" fill="url(#e)"/><path d="M26.683 4.41a.132.132 0 0 0-.132.133v.926h-.926a.132.132 0 1 0 0 .264h.926v.926a.132.132 0 1 0 .264 0v-.926h.926a.132.132 0 1 0 0-.264h-.926v-.926a.132.132 0 0 0-.132-.133zm7.805 1.191a.132.132 0 0 1-.132.132h-2.117a.132.132 0 1 1 0-.264h2.117c.073 0 .132.059.132.132zm-6.963 5.376a.132.132 0 0 0-.187 0l-.655.655-.655-.655a.132.132 0 1 0-.187.187l.655.655-.655.655a.132.132 0 1 0 .187.187l.655-.655.655.655a.132.132 0 1 0 .187-.187l-.655-.655.655-.655a.132.132 0 0 0 0-.187z" opacity=".15"/><path d="M26.683 4.233a.132.132 0 0 0-.132.133v.926h-.926a.132.132 0 1 0 0 .264h.926v.926a.132.132 0 1 0 .264 0v-.926h.926a.132.132 0 1 0 0-.264h-.926v-.926a.132.132 0 0 0-.132-.133zm7.805 1.191a.132.132 0 0 1-.132.132h-2.117a.132.132 0 1 1 0-.264h2.117c.073 0 .132.059.132.132zM27.525 10.8a.132.132 0 0 0-.187 0l-.655.655-.655-.655a.132.132 0 1 0-.187.187l.655.655-.655.655a.132.132 0 1 0 .187.187l.655-.655.655.655a.132.132 0 1 0 .187-.187l-.655-.655.655-.655a.132.132 0 0 0 0-.187z" fill="#fff"/><path d="M35.017 11.378c0 .073-.066.132-.147.132h-2.352c-.081 0-.147-.059-.147-.132s.066-.132.147-.132h2.352c.081 0 .147.059.147.132zm0 1.322c0 .073-.066.132-.147.132h-2.352c-.081 0-.147-.059-.147-.132s.066-.132.147-.132h2.352c.081 0 .147.059.147.132z" opacity=".15"/><g fill="#fff"><path d="M35.017 11.245c0 .073-.066.132-.147.132h-2.352c-.081 0-.147-.059-.147-.132s.066-.132.147-.132h2.352c.081 0 .147.059.147.132zm0 1.322c0 .073-.066.132-.147.132h-2.352c-.081 0-.147-.059-.147-.132s.066-.132.147-.132h2.352c.081 0 .147.059.147.132z"/><path d="M25.757 1.058a3.168 3.168 0 0 0-3.175 3.175v.273a3.168 3.168 0 0 1 3.175-3.175h8.467a3.168 3.168 0 0 1 3.175 3.175v-.273a3.168 3.168 0 0 0-3.175-3.175z" opacity=".1"/><path d="M33.695 7.673a4.233 4.233 0 0 0-4.233 4.233 4.233 4.233 0 0 0 .002.131 4.233 4.233 0 0 1 4.231-4.1 4.233 4.233 0 0 1 4.231 4.098 4.233 4.233 0 0 0 .002-.129 4.233 4.233 0 0 0-4.233-4.233z" opacity=".05"/></g><path d="M33.695 16.139a4.233 4.233 0 0 1-4.233-4.233 4.233 4.233 0 0 1 .002-.131 4.233 4.233 0 0 0 4.231 4.1 4.233 4.233 0 0 0 4.231-4.098 4.233 4.233 0 0 1 .002.129 4.233 4.233 0 0 1-4.233 4.233z" opacity=".15"/><g transform="translate(-43.314)"><g color="#000"><path d="M4.37.53C2.254.53.53 2.312.53 4.496v8.468c0 2.184 1.725 3.968 3.84 3.968h8.194c2.114 0 3.84-1.783 3.84-3.968V4.497c0-2.184-1.726-3.968-3.84-3.968zm.256.52h7.681c1.844 0 3.33 1.534 3.33 3.44v7.937c0 1.906-1.485 3.44-3.33 3.44h-7.68c-1.845 0-3.33-1.534-3.33-3.44V4.49c0-1.906 1.485-3.44 3.33-3.44z" opacity=".01" style="font-feature-settings:normal;font-variant-alternates:normal;font-variant-caps:normal;font-variant-east-asian:normal;font-variant-ligatures:normal;font-variant-numeric:normal;font-variant-position:normal;font-variation-settings:normal;inline-size:0;isolation:auto;mix-blend-mode:normal;shape-margin:0;shape-padding:0;text-decoration-color:#000;text-decoration-line:none;text-decoration-style:solid;text-indent:0;text-orientation:mixed;text-transform:none;white-space:normal" transform="translate(43.314)"/><path d="M4.359.794C2.392.794.795 2.447.795 4.48v8.5c0 2.035 1.597 3.688 3.564 3.688h8.216c1.967 0 3.564-1.653 3.564-3.688v-8.5c0-2.034-1.597-3.687-3.564-3.687zm.272.256h7.672c1.842 0 3.325 1.534 3.325 3.44v7.937c0 1.906-1.483 3.44-3.325 3.44H4.63c-1.842 0-3.325-1.534-3.325-3.44V4.49c0-1.906 1.483-3.44 3.325-3.44z" opacity=".01" style="font-feature-settings:normal;font-variant-alternates:normal;font-variant-caps:normal;font-variant-east-asian:normal;font-variant-ligatures:normal;font-variant-numeric:normal;font-variant-position:normal;font-variation-settings:normal;inline-size:0;isolation:auto;mix-blend-mode:normal;shape-margin:0;shape-padding:0;text-decoration-color:#000;text-decoration-line:none;text-decoration-style:solid;text-indent:0;text-orientation:mixed;text-transform:none;white-space:normal" transform="translate(43.314)"/><path d="M4.31 1.058c-1.866 0-3.375 1.539-3.375 3.44v8.467c0 1.9 1.57 3.439 3.435 3.439h8.2c1.866 0 3.427-1.538 3.427-3.44V4.498c0-1.9-1.51-3.439-3.375-3.439h-.097c1.794.087 3.214 1.582 3.214 3.432v7.937c0 1.906-1.506 3.44-3.377 3.44h-7.79c-1.871 0-3.377-1.534-3.377-3.44V4.49c0-1.85 1.42-3.345 3.214-3.432z" opacity=".03" style="font-feature-settings:normal;font-variant-alternates:normal;font-variant-caps:normal;font-variant-east-asian:normal;font-variant-ligatures:normal;font-variant-numeric:normal;font-variant-position:normal;font-variation-settings:normal;inline-size:0;isolation:auto;mix-blend-mode:normal;shape-margin:0;shape-padding:0;text-decoration-color:#000;text-decoration-line:none;text-decoration-style:solid;text-indent:0;text-orientation:mixed;text-transform:none;white-space:normal" transform="translate(43.314)"/><path transform="translate(43.314) scale(.26458)" d="M4 46.969V49c0 6.648 5.896 12 12.544 12h30.961C54.153 61 60 55.648 60 49v-1.992a12.972 12.972 0 0 1-13 12.963H17.002A12.973 12.973 0 0 1 4 46.969z" opacity=".03" style="font-feature-settings:normal;font-variant-alternates:normal;font-variant-caps:normal;font-variant-east-asian:normal;font-variant-ligatures:normal;font-variant-numeric:normal;font-variant-position:normal;font-variation-settings:normal;inline-size:0;isolation:auto;mix-blend-mode:normal;shape-margin:0;shape-padding:0;text-decoration-color:#000;text-decoration-line:none;text-decoration-style:solid;text-indent:0;text-orientation:mixed;text-transform:none;white-space:normal"/><path d="M1.058 11.906v.592c0 1.939 1.573 3.5 3.332 3.5h8.16c1.76 0 3.325-1.561 3.325-3.5v-.58c-.006 2.095-1.537 3.78-3.44 3.78H4.498c-1.905 0-3.44-1.692-3.44-3.792z" opacity=".05" style="font-feature-settings:normal;font-variant-alternates:normal;font-variant-caps:normal;font-variant-east-asian:normal;font-variant-ligatures:normal;font-variant-numeric:normal;font-variant-position:normal;font-variation-settings:normal;inline-size:0;isolation:auto;mix-blend-mode:normal;shape-margin:0;shape-padding:0;text-decoration-color:#000;text-decoration-line:none;text-decoration-style:solid;text-indent:0;text-orientation:mixed;text-transform:none;white-space:normal" transform="translate(43.314)"/></g><rect x="44.372" y="1.058" width="14.817" height="14.817" rx="3.175" ry="3.175" fill="url(#f)"/><path d="M47.547 1.852a2.376 2.376 0 0 0-2.381 2.381V12.7a2.376 2.376 0 0 0 2.381 2.381h4.233v-5.027c0-.88.708-1.587 1.588-1.587h5.027V4.233a2.376 2.376 0 0 0-2.381-2.38z" fill="url(#g)"/><g transform="translate(43.314)" stroke-linecap="round" stroke-linejoin="round"><rect x="4.233" y="1.852" width="8.466" height="1.587" rx="0" ry="0" fill="url(#h)" opacity=".15"/><path transform="scale(.26458)" d="M15.99 7A9 9 0 0 0 7 16h9V7a9 9 0 0 0-.01 0z" fill="url(#i)" opacity=".15"/><path d="M4.23 15.081A2.381 2.381 0 0 1 1.853 12.7h2.381v2.381a2.381 2.381 0 0 1-.002 0z" fill="url(#j)" opacity=".15"/><rect transform="rotate(-90)" x="-12.7" y="1.852" width="8.466" height="1.587" rx="0" ry="0" fill="url(#k)" opacity=".15"/><rect transform="matrix(0 -1 -1 0 0 0)" x="-8.466" y="-15.081" width="4.233" height="1.587" rx="0" ry="0" fill="url(#l)" opacity=".15"/><path d="M15.081 4.23A2.381 2.381 0 0 0 12.7 1.853v2.381h2.381a2.381 2.381 0 0 0 0-.002z" fill="url(#m)" opacity=".15"/><rect transform="scale(1 -1)" x="4.233" y="-15.081" width="4.233" height="1.587" rx="0" ry="0" fill="url(#n)" opacity=".15"/></g><path d="M48.474 4.41a.132.132 0 0 0-.133.133v.926h-.926a.132.132 0 1 0 0 .264h.926v.926a.132.132 0 1 0 .265 0v-.926h.926a.132.132 0 1 0 0-.264h-.926v-.926a.132.132 0 0 0-.132-.133zm7.804 1.191a.132.132 0 0 1-.132.132h-2.117a.132.132 0 1 1 0-.264h2.117c.073 0 .132.059.132.132zm-6.962 5.376a.132.132 0 0 0-.188 0l-.654.655-.655-.655a.132.132 0 1 0-.187.187l.655.655-.655.655a.132.132 0 1 0 .187.187l.655-.655.654.655a.132.132 0 1 0 .188-.187l-.655-.655.654-.655a.132.132 0 0 0 0-.187z" opacity=".15"/><path d="M48.474 4.233a.132.132 0 0 0-.133.133v.926h-.926a.132.132 0 1 0 0 .264h.926v.926a.132.132 0 1 0 .265 0v-.926h.926a.132.132 0 1 0 0-.264h-.926v-.926a.132.132 0 0 0-.132-.133zm7.804 1.191a.132.132 0 0 1-.132.132h-2.117a.132.132 0 1 1 0-.264h2.117c.073 0 .132.059.132.132zM49.316 10.8a.132.132 0 0 0-.188 0l-.654.655-.655-.655a.132.132 0 1 0-.187.187l.655.655-.655.655a.132.132 0 1 0 .187.187l.655-.655.654.655a.132.132 0 1 0 .188-.187l-.655-.655.654-.655a.132.132 0 0 0 0-.187z" fill="#fff"/><g stroke-width="1.054"><path d="M56.543 11.378c0 .073-.066.132-.147.132h-2.352c-.081 0-.147-.059-.147-.132s.066-.132.147-.132h2.352c.081 0 .147.059.147.132zm0 1.322c0 .073-.066.132-.147.132h-2.352c-.081 0-.147-.059-.147-.132s.066-.132.147-.132h2.352c.081 0 .147.059.147.132z" opacity=".15"/><path d="M56.543 11.245c0 .073-.066.132-.147.132h-2.352c-.081 0-.147-.059-.147-.132s.066-.132.147-.132h2.352c.081 0 .147.059.147.132zm0 1.322c0 .073-.066.132-.147.132h-2.352c-.081 0-.147-.059-.147-.132s.066-.132.147-.132h2.352c.081 0 .147.059.147.132z" fill="#fff"/></g><path d="M53.368 8.202a1.848 1.848 0 0 0-1.852 1.852v5.027h.264v-5.027c0-.88.709-1.587 1.588-1.587h5.027v-.265z" opacity=".1"/></g><g transform="translate(41.424)"><g color="#000"><path d="M4.37.53C2.254.53.53 2.312.53 4.496v8.468c0 2.184 1.725 3.968 3.84 3.968h8.194c2.114 0 3.84-1.783 3.84-3.968V4.497c0-2.184-1.726-3.968-3.84-3.968zm.256.52h7.681c1.844 0 3.33 1.534 3.33 3.44v7.937c0 1.906-1.485 3.44-3.33 3.44h-7.68c-1.845 0-3.33-1.534-3.33-3.44V4.49c0-1.906 1.485-3.44 3.33-3.44z" opacity=".01" style="font-feature-settings:normal;font-variant-alternates:normal;font-variant-caps:normal;font-variant-east-asian:normal;font-variant-ligatures:normal;font-variant-numeric:normal;font-variant-position:normal;font-variation-settings:normal;inline-size:0;isolation:auto;mix-blend-mode:normal;shape-margin:0;shape-padding:0;text-decoration-color:#000;text-decoration-line:none;text-decoration-style:solid;text-indent:0;text-orientation:mixed;text-transform:none;white-space:normal"/><path d="M4.359.794C2.392.794.795 2.447.795 4.48v8.5c0 2.035 1.597 3.688 3.564 3.688h8.216c1.967 0 3.564-1.653 3.564-3.688v-8.5c0-2.034-1.597-3.687-3.564-3.687zm.272.256h7.672c1.842 0 3.325 1.534 3.325 3.44v7.937c0 1.906-1.483 3.44-3.325 3.44H4.63c-1.842 0-3.325-1.534-3.325-3.44V4.49c0-1.906 1.483-3.44 3.325-3.44z" opacity=".01" style="font-feature-settings:normal;font-variant-alternates:normal;font-variant-caps:normal;font-variant-east-asian:normal;font-variant-ligatures:normal;font-variant-numeric:normal;font-variant-position:normal;font-variation-settings:normal;inline-size:0;isolation:auto;mix-blend-mode:normal;shape-margin:0;shape-padding:0;text-decoration-color:#000;text-decoration-line:none;text-decoration-style:solid;text-indent:0;text-orientation:mixed;text-transform:none;white-space:normal"/><path d="M4.31 1.058c-1.866 0-3.375 1.539-3.375 3.44v8.467c0 1.9 1.57 3.439 3.435 3.439h8.2c1.866 0 3.427-1.538 3.427-3.44V4.498c0-1.9-1.51-3.439-3.375-3.439h-.097c1.794.087 3.214 1.582 3.214 3.432v7.937c0 1.906-1.506 3.44-3.377 3.44h-7.79c-1.871 0-3.377-1.534-3.377-3.44V4.49c0-1.85 1.42-3.345 3.214-3.432z" opacity=".03" style="font-feature-settings:normal;font-variant-alternates:normal;font-variant-caps:normal;font-variant-east-asian:normal;font-variant-ligatures:normal;font-variant-numeric:normal;font-variant-position:normal;font-variation-settings:normal;inline-size:0;isolation:auto;mix-blend-mode:normal;shape-margin:0;shape-padding:0;text-decoration-color:#000;text-decoration-line:none;text-decoration-style:solid;text-indent:0;text-orientation:mixed;text-transform:none;white-space:normal"/><path transform="scale(.26458)" d="M4 46.969V49c0 6.648 5.896 12 12.544 12h30.961C54.153 61 60 55.648 60 49v-1.992a12.972 12.972 0 0 1-13 12.963H17.002A12.973 12.973 0 0 1 4 46.969z" opacity=".03" style="font-feature-settings:normal;font-variant-alternates:normal;font-variant-caps:normal;font-variant-east-asian:normal;font-variant-ligatures:normal;font-variant-numeric:normal;font-variant-position:normal;font-variation-settings:normal;inline-size:0;isolation:auto;mix-blend-mode:normal;shape-margin:0;shape-padding:0;text-decoration-color:#000;text-decoration-line:none;text-decoration-style:solid;text-indent:0;text-orientation:mixed;text-transform:none;white-space:normal"/><path d="M1.058 11.906v.592c0 1.939 1.573 3.5 3.332 3.5h8.16c1.76 0 3.325-1.561 3.325-3.5v-.58c-.006 2.095-1.537 3.78-3.44 3.78H4.498c-1.905 0-3.44-1.692-3.44-3.792z" opacity=".05" style="font-feature-settings:normal;font-variant-alternates:normal;font-variant-caps:normal;font-variant-east-asian:normal;font-variant-ligatures:normal;font-variant-numeric:normal;font-variant-position:normal;font-variation-settings:normal;inline-size:0;isolation:auto;mix-blend-mode:normal;shape-margin:0;shape-padding:0;text-decoration-color:#000;text-decoration-line:none;text-decoration-style:solid;text-indent:0;text-orientation:mixed;text-transform:none;white-space:normal"/></g><rect x="1.058" y="1.05" width="14.817" height="14.817" ry="3.175" fill="url(#o)"/><path d="M6.085 3.704h4.763c.733 0 1.323.59 1.323 1.323v7.937a1.32 1.32 0 0 1-1.323 1.323H6.085a1.32 1.32 0 0 1-1.323-1.323V5.027c0-.733.59-1.323 1.323-1.323z" filter="url(#p)" opacity=".5"/><path transform="scale(.26458)" d="M23 12c-2.77 0-5 2.23-5 5v30c0 2.77 2.23 5 5 5h18V40.699h5V17c0-2.77-2.23-5-5-5zm23 35zm-.1.992c-.016.082-.05.156-.07.237.02-.08.054-.155.07-.237zm-.285.932c-.047.113-.114.215-.17.324.056-.11.123-.21.17-.324zm-.437.822c-.098.149-.217.281-.33.418.113-.137.232-.269.33-.418zm-.582.725c-.129.132-.274.247-.416.365.142-.118.287-.232.416-.365zm-.715.611c-.154.108-.32.195-.486.285.165-.09.332-.177.486-.285zm-.815.463c-.17.077-.35.133-.53.191.18-.058.36-.114.53-.191zm-.914.309z" fill="url(#q)"/><g fill="#fff" stroke-linecap="square"><g stroke-width=".29"><rect x="4.762" y="6.006" width="7.408" height=".079" rx="0" ry="0" opacity=".15"/><rect x="4.762" y="7.593" width="7.408" height=".079" rx="0" ry="0" opacity=".15"/><rect x="4.762" y="9.181" width="7.408" height=".079" rx="0" ry="0" opacity=".15"/><rect x="4.762" y="10.768" width="7.408" height=".079" rx="0" ry="0" opacity=".15"/></g><rect x="4.762" y="12.356" width="6.085" height=".079" rx="0" ry="0" opacity=".15"/></g><path transform="scale(.26458)" d="M41 40.7V52l.287-.014A4.985 4.985 0 0 0 46 47l.009-6.3z" fill="url(#r)"/><g fill="#fff"><g stroke-linecap="square"><g stroke-width="1.027"><rect x="10.848" y="6.085" width=".079" height="7.673" rx="0" ry="0" opacity=".15"/><rect x="9.26" y="6.085" width=".079" height="7.673" rx="0" ry="0" opacity=".15"/><rect x="7.673" y="6.085" width=".079" height="7.673" rx="0" ry="0" opacity=".15"/><rect x="6.085" y="6.085" width=".079" height="7.673" rx="0" ry="0" opacity=".15"/></g><rect x="4.762" y="6.085" width="7.408" height="3.096" rx="0" ry="0" opacity=".05"/><path d="M9.34 9.26v4.498h1.508v-2.91h1.323V9.26z" opacity=".05"/></g><g stroke-width=".027"><path d="M5.396 10.304h-.04v-.433l.001-.038q-.01.01-.02.017l-.022.018-.071.056-.022-.03.14-.105h.034z" aria-label="1"/><path d="M7.042 10.315h-.326v-.035l.148-.154q.037-.038.062-.068.025-.03.038-.06.013-.03.013-.068 0-.049-.028-.075-.028-.026-.076-.026-.034 0-.065.012t-.06.035l-.022-.029q.032-.025.07-.04.037-.014.077-.014.067 0 .106.036.04.037.04.098 0 .042-.015.077-.015.035-.042.068-.027.033-.064.07l-.13.133v.001h.274z" aria-label="2"/><path d="M8.647 9.916q0 .05-.03.083t-.078.041v.002q.124.017.124.126 0 .066-.047.109-.046.042-.14.042-.083 0-.144-.03v-.04q.03.016.068.025.038.009.076.009.073 0 .108-.031t.035-.085q0-.056-.041-.08-.042-.024-.112-.024H8.41v-.036h.056q.06 0 .098-.028.04-.028.04-.081 0-.046-.03-.07-.03-.023-.079-.023-.041 0-.074.013-.033.012-.064.034l-.021-.03q.03-.022.069-.037.04-.016.09-.016.071 0 .111.035.04.034.04.092z" aria-label="3"/><path d="M5.606 11.774h-.085v.127h-.039v-.127h-.257v-.034l.254-.353h.042v.35h.085zm-.124-.038v-.271l.002-.033h-.002l-.018.031q-.008.014-.02.03l-.175.243z" aria-label="4"/><path d="M6.896 11.59q.077 0 .123.04.045.038.045.11 0 .078-.05.122t-.135.044q-.04 0-.074-.008-.033-.007-.056-.021v-.04q.024.015.059.024.035.01.071.01.064 0 .104-.033.04-.033.04-.095 0-.056-.034-.086-.034-.032-.103-.032-.027 0-.053.004l-.047.01-.023-.015.021-.236h.247v.038H6.82l-.015.175.038-.007q.023-.004.054-.004z" aria-label="5"/><path d="M8.297 11.682q0-.092.023-.16.023-.067.072-.104.05-.038.129-.038.039 0 .066.008v.037q-.027-.01-.065-.01-.093 0-.137.062-.044.062-.048.177h.003q.015-.027.048-.05.034-.022.087-.022.069 0 .109.042.04.04.04.112 0 .077-.042.124-.042.046-.115.046-.055 0-.093-.028-.038-.03-.058-.08-.019-.05-.019-.116zm.169.188q.055 0 .086-.034.031-.034.031-.1 0-.056-.028-.088t-.086-.032q-.04 0-.069.016-.029.016-.044.04t-.016.046.006.05q.007.025.021.049.015.023.04.038.024.015.059.015z" aria-label="6"/><path d="m5.406 13.31.211-.474h-.29v-.037h.334v.03l-.21.48z" aria-label="7"/><path d="M6.876 12.768q.066 0 .106.032.041.03.041.088 0 .046-.03.077-.03.029-.077.05.055.022.089.055.035.032.035.086 0 .043-.021.074t-.058.047-.085.017q-.075 0-.119-.037-.043-.036-.043-.098 0-.056.033-.088.035-.034.086-.054-.028-.014-.052-.03-.024-.017-.037-.041-.014-.024-.014-.058 0-.037.019-.064.018-.027.051-.041.034-.015.076-.015zm0 .035q-.046 0-.077.023-.029.022-.029.063 0 .043.03.068.031.023.079.041.048-.02.075-.044.028-.025.028-.065 0-.043-.029-.064-.028-.022-.077-.022zm-.122.356q0 .045.031.073.032.028.09.028.057 0 .09-.028.034-.027.034-.076 0-.042-.03-.069-.03-.027-.083-.047l-.016-.006q-.052.02-.084.049-.032.028-.032.076z" aria-label="8"/><path d="M8.629 12.964q0 .092-.024.16-.023.067-.072.105-.05.038-.129.038l-.037-.002q-.02-.002-.033-.007v-.036q.012.004.031.007.02.003.039.003.091 0 .136-.063.045-.062.048-.177h-.003q-.015.028-.049.05-.033.023-.087.023-.069 0-.108-.041-.04-.042-.04-.114 0-.077.043-.123.042-.047.116-.047.055 0 .092.029.038.029.057.08.02.05.02.115zm-.17-.189q-.055 0-.086.035-.03.035-.03.1 0 .056.027.089.028.032.086.032.04 0 .069-.016.03-.016.045-.04.016-.024.016-.048 0-.021-.007-.047-.007-.027-.021-.05-.015-.024-.039-.039-.024-.016-.06-.016z" aria-label="9"/></g><rect x="11.292" y="11.906" width=".529" height=".079" rx="0" ry="0"/><rect x="11.292" y="12.171" width=".529" height=".079" rx="0" ry="0"/></g><text x="6.53" y="5.541" fill="#fff" font-family="Cantarell" font-size="1.482" font-weight="300" letter-spacing="0" stroke-width=".037" word-spacing="0" style="line-height:1.25" xml:space="preserve"><tspan x="6.53" y="5.541">3.14159</tspan></text></g></svg>