<svg width="64" height="64" viewBox="0 0 16.933 16.933" xmlns="http://www.w3.org/2000/svg"><defs><linearGradient id="c" x1="9.39" x2="15.269" y1="15.064" y2="9.185" gradientTransform="translate(21.524)" gradientUnits="userSpaceOnUse"><stop stop-color="#2f5fdd" offset="0"/><stop stop-color="#1a7fd4" offset="1"/></linearGradient><linearGradient id="a" x1="8.466" x2="8.466" y1="15.875" y2="1.058" gradientTransform="translate(21.524 .008)" gradientUnits="userSpaceOnUse"><stop stop-color="#292929" offset="0"/><stop stop-color="#5c5c5c" offset="1"/></linearGradient><radialGradient id="b" cx="12.171" cy="12.171" r="4.762" gradientTransform="translate(21.524)" gradientUnits="userSpaceOnUse"><stop offset="0"/><stop stop-opacity="0" offset="1"/></radialGradient></defs><g transform="translate(-21.524)"><g color="#000"><path transform="translate(21.524)" d="M4.37.53C2.254.53.53 2.312.53 4.496v8.468c0 2.184 1.725 3.968 3.84 3.968h8.194c2.114 0 3.84-1.783 3.84-3.968V4.497c0-2.184-1.726-3.968-3.84-3.968zm.256.52h7.681c1.844 0 3.33 1.534 3.33 3.44v7.937c0 1.906-1.485 3.44-3.33 3.44h-7.68c-1.845 0-3.33-1.534-3.33-3.44V4.49c0-1.906 1.485-3.44 3.33-3.44z" opacity=".01" style="font-feature-settings:normal;font-variant-alternates:normal;font-variant-caps:normal;font-variant-east-asian:normal;font-variant-ligatures:normal;font-variant-numeric:normal;font-variant-position:normal;font-variation-settings:normal;inline-size:0;isolation:auto;mix-blend-mode:normal;shape-margin:0;shape-padding:0;text-decoration-color:#000;text-decoration-line:none;text-decoration-style:solid;text-indent:0;text-orientation:mixed;text-transform:none;white-space:normal"/><path transform="translate(21.524)" d="M4.359.794C2.392.794.795 2.447.795 4.48v8.5c0 2.035 1.597 3.688 3.564 3.688h8.216c1.967 0 3.564-1.653 3.564-3.688v-8.5c0-2.034-1.597-3.687-3.564-3.687zm.272.256h7.672c1.842 0 3.325 1.534 3.325 3.44v7.937c0 1.906-1.483 3.44-3.325 3.44H4.63c-1.842 0-3.325-1.534-3.325-3.44V4.49c0-1.906 1.483-3.44 3.325-3.44z" opacity=".01" style="font-feature-settings:normal;font-variant-alternates:normal;font-variant-caps:normal;font-variant-east-asian:normal;font-variant-ligatures:normal;font-variant-numeric:normal;font-variant-position:normal;font-variation-settings:normal;inline-size:0;isolation:auto;mix-blend-mode:normal;shape-margin:0;shape-padding:0;text-decoration-color:#000;text-decoration-line:none;text-decoration-style:solid;text-indent:0;text-orientation:mixed;text-transform:none;white-space:normal"/><path transform="translate(21.524)" d="M4.31 1.058c-1.866 0-3.375 1.539-3.375 3.44v8.467c0 1.9 1.57 3.439 3.435 3.439h8.2c1.866 0 3.427-1.538 3.427-3.44V4.498c0-1.9-1.51-3.439-3.375-3.439h-.097c1.794.087 3.214 1.582 3.214 3.432v7.937c0 1.906-1.506 3.44-3.377 3.44h-7.79c-1.871 0-3.377-1.534-3.377-3.44V4.49c0-1.85 1.42-3.345 3.214-3.432z" opacity=".03" style="font-feature-settings:normal;font-variant-alternates:normal;font-variant-caps:normal;font-variant-east-asian:normal;font-variant-ligatures:normal;font-variant-numeric:normal;font-variant-position:normal;font-variation-settings:normal;inline-size:0;isolation:auto;mix-blend-mode:normal;shape-margin:0;shape-padding:0;text-decoration-color:#000;text-decoration-line:none;text-decoration-style:solid;text-indent:0;text-orientation:mixed;text-transform:none;white-space:normal"/><path transform="translate(21.524) scale(.26458)" d="M4 46.969V49c0 6.648 5.896 12 12.544 12h30.961C54.153 61 60 55.648 60 49v-1.992a12.972 12.972 0 0 1-13 12.963H17.002A12.973 12.973 0 0 1 4 46.969z" opacity=".03" style="font-feature-settings:normal;font-variant-alternates:normal;font-variant-caps:normal;font-variant-east-asian:normal;font-variant-ligatures:normal;font-variant-numeric:normal;font-variant-position:normal;font-variation-settings:normal;inline-size:0;isolation:auto;mix-blend-mode:normal;shape-margin:0;shape-padding:0;text-decoration-color:#000;text-decoration-line:none;text-decoration-style:solid;text-indent:0;text-orientation:mixed;text-transform:none;white-space:normal"/><path transform="translate(21.524)" d="M1.058 11.906v.592c0 1.939 1.573 3.5 3.332 3.5h8.16c1.76 0 3.325-1.561 3.325-3.5v-.58c-.006 2.095-1.537 3.78-3.44 3.78H4.498c-1.905 0-3.44-1.692-3.44-3.792z" opacity=".05" style="font-feature-settings:normal;font-variant-alternates:normal;font-variant-caps:normal;font-variant-east-asian:normal;font-variant-ligatures:normal;font-variant-numeric:normal;font-variant-position:normal;font-variation-settings:normal;inline-size:0;isolation:auto;mix-blend-mode:normal;shape-margin:0;shape-padding:0;text-decoration-color:#000;text-decoration-line:none;text-decoration-style:solid;text-indent:0;text-orientation:mixed;text-transform:none;white-space:normal"/></g><rect x="22.582" y="1.058" width="14.817" height="14.817" ry="3.175" fill="url(#a)"/><path d="M29.951 1.058v7.369h-7.368v.08h7.368v7.368h.08V8.506h7.368v-.08h-7.368V1.059z" opacity=".5"/><path d="M25.758 15.875a3.168 3.168 0 0 1-3.175-3.175v-.273a3.168 3.168 0 0 0 3.175 3.175h8.467a3.168 3.168 0 0 0 3.175-3.175v.273a3.168 3.168 0 0 1-3.175 3.175z" opacity=".25"/><circle cx="33.695" cy="12.171" r="4.762" fill="url(#b)"/><circle cx="33.695" cy="11.906" r="4.233" fill="url(#c)"/><path d="M26.683 4.41a.132.132 0 0 0-.132.133v.926h-.926a.132.132 0 1 0 0 .264h.926v.926a.132.132 0 1 0 .264 0v-.926h.926a.132.132 0 1 0 0-.264h-.926v-.926a.132.132 0 0 0-.132-.133zm7.805 1.191a.132.132 0 0 1-.132.132h-2.117a.132.132 0 1 1 0-.264h2.117c.073 0 .132.059.132.132zm-6.963 5.376a.132.132 0 0 0-.187 0l-.655.655-.655-.655a.132.132 0 1 0-.187.187l.655.655-.655.655a.132.132 0 1 0 .187.187l.655-.655.655.655a.132.132 0 1 0 .187-.187l-.655-.655.655-.655a.132.132 0 0 0 0-.187z" opacity=".15"/><path d="M26.683 4.233a.132.132 0 0 0-.132.133v.926h-.926a.132.132 0 1 0 0 .264h.926v.926a.132.132 0 1 0 .264 0v-.926h.926a.132.132 0 1 0 0-.264h-.926v-.926a.132.132 0 0 0-.132-.133zm7.805 1.191a.132.132 0 0 1-.132.132h-2.117a.132.132 0 1 1 0-.264h2.117c.073 0 .132.059.132.132zM27.525 10.8a.132.132 0 0 0-.187 0l-.655.655-.655-.655a.132.132 0 1 0-.187.187l.655.655-.655.655a.132.132 0 1 0 .187.187l.655-.655.655.655a.132.132 0 1 0 .187-.187l-.655-.655.655-.655a.132.132 0 0 0 0-.187z" fill="#fff"/><path d="M35.017 11.378c0 .073-.066.132-.147.132h-2.352c-.081 0-.147-.059-.147-.132s.066-.132.147-.132h2.352c.081 0 .147.059.147.132zm0 1.322c0 .073-.066.132-.147.132h-2.352c-.081 0-.147-.059-.147-.132s.066-.132.147-.132h2.352c.081 0 .147.059.147.132z" opacity=".15"/><g fill="#fff"><path d="M35.017 11.245c0 .073-.066.132-.147.132h-2.352c-.081 0-.147-.059-.147-.132s.066-.132.147-.132h2.352c.081 0 .147.059.147.132zm0 1.322c0 .073-.066.132-.147.132h-2.352c-.081 0-.147-.059-.147-.132s.066-.132.147-.132h2.352c.081 0 .147.059.147.132z"/><path d="M25.757 1.058a3.168 3.168 0 0 0-3.175 3.175v.273a3.168 3.168 0 0 1 3.175-3.175h8.467a3.168 3.168 0 0 1 3.175 3.175v-.273a3.168 3.168 0 0 0-3.175-3.175z" opacity=".1"/><path d="M33.695 7.673a4.233 4.233 0 0 0-4.233 4.233 4.233 4.233 0 0 0 .002.131 4.233 4.233 0 0 1 4.231-4.1 4.233 4.233 0 0 1 4.231 4.098 4.233 4.233 0 0 0 .002-.129 4.233 4.233 0 0 0-4.233-4.233z" opacity=".05"/></g><path d="M33.695 16.139a4.233 4.233 0 0 1-4.233-4.233 4.233 4.233 0 0 1 .002-.131 4.233 4.233 0 0 0 4.231 4.1 4.233 4.233 0 0 0 4.231-4.098 4.233 4.233 0 0 1 .002.129 4.233 4.233 0 0 1-4.233 4.233z" opacity=".15"/></g></svg>