<svg xmlns="http://www.w3.org/2000/svg" xmlns:xlink="http://www.w3.org/1999/xlink" width="55.998" height="55.983" xmlns:v="https://vecta.io/nano"><style><![CDATA[.B{stroke-width:3.78}.C{color-interpolation-filters:sRGB}]]></style><defs><linearGradient id="A" x1="34.535" y1="851.771" x2="34.535" y2="866.054" xlink:href="#R"><stop offset="0" stop-color="#ff9696"/><stop offset="1" stop-color="#ec5656"/></linearGradient><clipPath ><rect y="6" x="6" rx="6" height="84" width="84" fill="#fff" fill-opacity="1" fill-rule="nonzero" stroke="none"/></clipPath><filter  height="1.392" width="1.392" y="-.196" x="-.196" class="C"><feGaussianBlur stdDeviation="5.28"/></filter><filter  x="-.048" y="-.048" width="1.095" height="1.097" class="C"><feGaussianBlur stdDeviation="1.71"/></filter><linearGradient id="E" x1="35.712" y1="859.531" x2="35.712" y2="871.227" xlink:href="#R"><stop offset="0"/><stop offset="1" stop-color="#454545"/></linearGradient><linearGradient id="F" x1="35.436" y1="820.291" x2="35.436" y2="846.864" xlink:href="#R"><stop offset="0" stop-color="#fff"/><stop offset=".276" stop-color="#fff"/><stop offset="1" stop-color="#c3c3c3"/></linearGradient><linearGradient id="G" x1="28.841" y1="864.973" x2="28.841" y2="809.708" xlink:href="#R"><stop offset="0" stop-color="#a2a2a2"/><stop offset="1" stop-color="#f7f7f7"/></linearGradient><linearGradient id="H" x1="53.739" y1="864.425" x2="53.739" y2="810.01" xlink:href="#R"><stop offset="0"/><stop offset="1" stop-color="#2d2d2d"/></linearGradient><clipPath id="I"><rect x="14.561" y="809.38" width="56" height="56" rx="13.002" fill="url(#J)" class="B"/></clipPath><linearGradient id="J" y1="862.41" y2="812.411" x1="40.56" x2="40.56" xlink:href="#R"><stop stop-color="#292929" offset="0"/><stop stop-color="#4d4d4d" offset="1"/></linearGradient><clipPath id="K"><rect x="14.561" y="809.38" width="56" height="56" rx="13.002" fill="url(#J)" class="B"/></clipPath><clipPath id="L"><rect x="14.561" y="809.38" width="56" height="56" rx="13.002" fill="url(#J)" class="B"/></clipPath><clipPath id="M"><rect x="14.561" y="809.38" width="56" height="56" rx="13.002" fill="url(#J)" class="B"/></clipPath><clipPath id="N"><rect x="14.561" y="809.38" width="56" height="56" rx="13.002" fill="url(#J)" class="B"/></clipPath><clipPath id="O"><rect x="14.561" y="809.38" width="56" height="56" rx="13.002" fill="url(#J)" class="B"/></clipPath><clipPath id="P"><rect x="14.561" y="809.38" width="56" height="56" rx="13.002" fill="url(#J)" class="B"/></clipPath><clipPath id="Q"><rect x="14.561" y="809.38" width="56" height="56" rx="13.002" fill="url(#J)" class="B"/></clipPath><linearGradient id="R" gradientUnits="userSpaceOnUse"/></defs><g transform="translate(-14.561 -809.38)"><path d="M38.413 809.379c.649 1.53.74 3.304.146 4.986l-.102.262c-.903 2.253-2.865 3.761-5.083 4.192.42 1.206.457 2.556 0 3.849l-.088.226a5.81 5.81 0 0 1-4.208 3.528l-.102.233a5.7 5.7 0 0 1-1.699 2.318c.278 1.653.151 3.401-.445 5.088l-.146.401c-1.946 4.854-7.205 7.383-12.135 6.05v19.398a5.44 5.44 0 0 0 5.455 5.453h8.963c.093-.397.218-.791.372-1.166-2.173-.51-4.047-2.066-4.857-4.323-1.271-3.54.564-7.448 4.106-8.718 2.778-.996 5.789-.08 7.57 2.092a7.06 7.06 0 0 1 2.268-2.078 4.68 4.68 0 0 1-.882-1.487 4.71 4.71 0 0 1 2.844-6.021 4.75 4.75 0 0 1 1.809-.277c.06.002.109.01.168.015.47-2.789 2.391-5.246 5.243-6.269 2.367-.849 4.881-.532 6.892.671a7.53 7.53 0 0 1 4.39-4.126c.833-.299 1.684-.442 2.523-.445 2.998-.009 5.832 1.773 7.023 4.702l.044.102c.72.124 1.414.347 2.078.641v-11.335c-.425.213-.85.415-1.298.576-5.402 1.938-11.356-.877-13.294-6.276-1.259-3.506-.514-7.244 1.641-9.965-1.59-.411-3.067-1.202-4.303-2.296H38.413zm-19.508.109c-.178.036-.354.086-.525.139.171-.053.347-.102.525-.139zm47.3 0a5.49 5.49 0 0 1 .525.139c-.171-.053-.347-.102-.525-.139zm1.728.678a5.46 5.46 0 0 1 .438.292c-.14-.105-.288-.201-.438-.292zm.438.292c.14.104.272.218.401.335-.129-.117-.261-.231-.401-.335zm-51.282-.233c-.119.075-.238.149-.35.233.114-.085.23-.157.35-.233zm52.055.94a5.44 5.44 0 0 1 .335.401 5.44 5.44 0 0 0-.335-.401zm.335.401c.104.14.201.288.292.437-.091-.15-.187-.297-.292-.437zm.831 1.64a5.48 5.48 0 0 1 .139.525 5.47 5.47 0 0 0-.139-.525zm.139 47.806c-.036.178-.086.354-.139.525.053-.171.102-.347.139-.525zm-.737 1.815c-.076.12-.149.236-.233.35.084-.112.158-.231.233-.35z" clip-path="url(#Q)" fill="url(#G)"/><path d="M20.005 809.381a5.44 5.44 0 0 0-5.454 5.451v25.68c4.93 1.332 10.188-1.199 12.134-6.053l.148-.398a10.17 10.17 0 0 0 .445-5.084c.733-.595 1.319-1.381 1.695-2.32l.094-.219c1.847-.403 3.467-1.671 4.219-3.546l.086-.226a5.8 5.8 0 0 0 0-3.85 6.87 6.87 0 0 0 5.086-4.186l.102-.266c.595-1.682.5-3.453-.148-4.983H20.005zm33.3 0c1.236 1.095 2.715 1.885 4.305 2.296a10.38 10.38 0 0 0-1.641 9.966c1.938 5.4 7.888 8.209 13.29 6.271.448-.161.871-.357 1.281-.57l.016-12.512a5.44 5.44 0 0 0-5.454-5.451H53.305zm8.11 23.852a7.51 7.51 0 0 0-2.524.445 7.53 7.53 0 0 0-4.391 4.124c-2.01-1.202-4.525-1.521-6.891-.672-2.852 1.023-4.772 3.482-5.243 6.271-.059-.005-.112-.013-.172-.016-.595-.027-1.211.06-1.805.273a4.71 4.71 0 0 0-2.844 6.022c.203.565.512 1.064.883 1.492a7.05 7.05 0 0 0-2.266 2.078c-1.781-2.172-4.793-3.089-7.571-2.093-3.542 1.27-5.381 5.176-4.11 8.716.81 2.256 2.687 3.817 4.86 4.327-.154.376-.282.767-.375 1.164h36.136a5.44 5.44 0 0 0 5.454-5.451v-21.236a8.84 8.84 0 0 0-2.078-.64l-.039-.102c-1.191-2.929-4.026-4.711-7.024-4.702z" clip-path="url(#P)" fill="url(#H)"/><path d="M33.444 850.025a14.11 14.11 0 0 0-4.938.914c-5.946 2.246-9.631 8.081-9.696 14.292.386.086.783.133 1.195.133h.461c-.03-.023-.065-.046-.094-.07.04-5.623 3.367-10.877 8.688-12.887a12.54 12.54 0 0 1 4.391-.82c3.385-.011 6.635 1.374 9.071 3.811 1.284-1.288 2.841-2.32 4.618-2.991 6.617-2.499 13.933.932 16.58 7.787l.188.539c.519 1.521.775 3.071.781 4.6-.012.01-.027.021-.039.031h.453c.394 0 .778-.038 1.149-.117-.015-1.673-.303-3.366-.867-5.022v-.007l-.188-.539-.008-.024-.008-.023c-2.932-7.594-11.179-11.494-18.596-8.693-1.505.568-2.861 1.38-4.055 2.359-2.567-2.101-5.766-3.284-9.087-3.272z" clip-path="url(#O)"/><path d="M33.448 851.59c-1.458.005-2.943.269-4.39.815-5.321 2.01-8.645 7.269-8.684 12.892.029.024.059.043.089.067h44.186l.037-.03c-.006-1.529-.26-3.082-.779-4.604l-.185-.534c-2.647-6.855-9.966-10.291-16.583-7.791-1.776.671-3.329 1.707-4.613 2.995-2.436-2.437-5.693-3.822-9.077-3.81z" clip-path="url(#N)" fill="url(#A)"/><path d="M34.368 859.307c-.786.003-1.585.166-2.366.504-2.19.947-3.749 3.06-4.376 5.553h13.527l-.104-.408-.111-.334c-1.115-3.307-3.764-5.326-6.571-5.315zm16.116 0c-.786.003-1.585.166-2.366.504-2.19.947-3.756 3.06-4.383 5.553h13.527l-.104-.408-.111-.334c-1.115-3.307-3.757-5.326-6.563-5.315z" clip-path="url(#M)" fill="url(#E)"/><path d="M33.637 820.007c-4.724-.091-9.649 3.669-11.639 9.549-2.359 6.969.329 14.025 5.783 15.87 5.237 1.771 11.364-1.824 13.936-8.288l.649-1.633.656 1.633c2.573 6.464 8.692 10.06 13.929 8.288 5.454-1.845 8.142-8.901 5.783-15.87s-8.782-10.942-14.235-9.098c-2.479.839-4.371 2.731-5.499 5.227l-.642 1.414-.634-1.414c-1.128-2.495-3.014-4.389-5.491-5.227-.851-.288-1.72-.435-2.596-.452z" clip-path="url(#L)" fill="url(#F)"/><path d="M46.399 826.335c-2.26 0-4.115 1.64-4.696 3.82-.617-.968-1.66-1.618-2.859-1.618-1.924 0-3.457 1.668-3.457 3.652s1.531 3.652 3.457 3.652c1.388 0 2.556-.871 3.107-2.099.772 1.791 2.458 3.062 4.449 3.062 2.73 0 4.901-2.38 4.901-5.234s-2.17-5.234-4.901-5.234z" clip-path="url(#K)"/><path d="M33.666 818.61c-5.473-.106-10.839 4.134-12.995 10.504-2.556 7.55.321 15.498 6.658 17.641 5.681 1.921 11.953-1.596 15.037-7.771 3.083 6.175 9.349 9.692 15.03 7.771 6.337-2.143 9.221-10.09 6.665-17.641s-9.677-12.123-16.015-9.98c-2.47.835-4.378 2.61-5.681 4.848-1.301-2.238-3.21-4.012-5.681-4.848a10.01 10.01 0 0 0-3.019-.525zm-.029 1.4c.876.017 1.745.164 2.596.452 2.478.838 4.363 2.731 5.491 5.227l.634 1.414.642-1.414c1.128-2.496 3.019-4.388 5.499-5.227 5.454-1.845 11.876 2.129 14.235 9.098s-.329 14.025-5.783 15.87c-5.237 1.771-11.356-1.824-13.929-8.288l-.656-1.633-.649 1.633c-2.572 6.465-8.699 10.06-13.936 8.288-5.454-1.845-8.142-8.901-5.783-15.87 1.991-5.88 6.916-9.641 11.639-9.549z" clip-path="url(#I)"/></g></svg>