<svg width="64" height="64" version="1.1" xmlns="http://www.w3.org/2000/svg" xmlns:xlink="http://www.w3.org/1999/xlink">
 <defs>
  <linearGradient id="a" x1="32" x2="32" y1="4.4929" y2="62" gradientUnits="userSpaceOnUse">
   <stop stop-color="#00a192" offset="0"/>
   <stop stop-color="#00b27a" offset="1"/>
  </linearGradient>
  <linearGradient id="linearGradient1011" x1="23.255" x2="23.255" y1="40.578" y2="7.6408" gradientUnits="userSpaceOnUse" xlink:href="#a"/>
  <linearGradient id="linearGradient1033" x1="11.993" x2="11.993" y1="15.289" y2="8.3841" gradientTransform="matrix(3.7796 0 0 3.7796 -1.53e-7 .99986)" gradientUnits="userSpaceOnUse">
   <stop stop-color="#2e2e2e" offset="0"/>
   <stop stop-color="#5c5c5c" offset="1"/>
  </linearGradient>
  <radialGradient id="radialGradient1042" cx="12.171" cy="12.171" r="4.7624" gradientTransform="matrix(3.7796 0 0 3.7796 -1.53e-7 2.2574e-6)" gradientUnits="userSpaceOnUse">
   <stop offset="0"/>
   <stop stop-opacity="0" offset="1"/>
  </radialGradient>
  <linearGradient id="linearGradient932" x1="379.24" x2="374.24" y1="546.85" y2="546.85" gradientTransform="matrix(2.1429 0 0 2.1429 -769.68 -1134.5)" gradientUnits="userSpaceOnUse">
   <stop stop-color="#f6f5f4" offset="0"/>
   <stop stop-color="#fff" offset=".6"/>
   <stop stop-color="#dddbd8" offset="1"/>
  </linearGradient>
  <linearGradient id="b-3" x1="399.57" x2="399.57" y1="545.8" y2="517.8" gradientTransform="matrix(2.1429 0 0 2.1429 -826.37 -1107.5)" gradientUnits="userSpaceOnUse">
   <stop stop-color="#3889e9" offset="0"/>
   <stop stop-color="#5ea5fb" offset="1"/>
  </linearGradient>
  <linearGradient id="linearGradient953" x1="376.35" x2="374.24" y1="546.85" y2="546.85" gradientTransform="matrix(-2.1429 0 0 2.1429 833.67 -1134.5)" gradientUnits="userSpaceOnUse">
   <stop stop-opacity="0" offset="0"/>
   <stop stop-opacity="0" offset=".6"/>
   <stop stop-opacity=".05" offset="1"/>
  </linearGradient>
  <linearGradient id="linearGradient1293" x1="7.9373" x2="7.9373" y1="15.081" y2="1.852" gradientTransform="matrix(3.3743 0 0 3.3743 3.4312 3.4569)" gradientUnits="userSpaceOnUse">
   <stop stop-color="#f1efeb" offset="0"/>
   <stop stop-color="#fff" offset="1"/>
  </linearGradient>
  <linearGradient id="linearGradient1003" x1="32.002" x2="32.002" y1="57.171" y2="7.0013" gradientUnits="userSpaceOnUse" xlink:href="#a"/>
  <filter id="filter1039" x="-.108" y="-.108" width="1.216" height="1.216" color-interpolation-filters="sRGB">
   <feGaussianBlur stdDeviation="1.0799946"/>
  </filter>
  <linearGradient id="f-9-6" x1="2331.3" x2="2331.3" y1="435.51" y2="45.726" gradientTransform="matrix(.077745 0 0 .077745 -134.88 27.286)" gradientUnits="userSpaceOnUse">
   <stop stop-color="#807c76" offset=".057692"/>
   <stop stop-color="#d4d7d0" offset=".38462"/>
   <stop stop-color="#bdbfba" offset=".55769"/>
   <stop stop-color="#acb3ac" offset=".63462"/>
   <stop stop-color="#dadfda" offset=".75"/>
   <stop stop-color="#c2c7c1" offset=".86274"/>
   <stop stop-color="#7f7a75" offset=".94118"/>
  </linearGradient>
 </defs>
 <g transform="matrix(3.7796 0 0 3.7796 -1.2634e-7 2.2574e-6)" shape-rendering="auto">
  <path d="m4.3693 0.52916c-2.1142 0-3.8402 1.7835-3.8402 3.9682v8.4675c0 2.1846 1.726 3.9682 3.8402 3.9682h8.1944c2.1142 0 3.8402-1.7835 3.8402-3.9682v-8.4675c0-2.1846-1.726-3.9682-3.8402-3.9682zm0.25704 0.52089h7.6808c1.8443 0 3.3291 1.5342 3.3291 3.44v7.9368c0 1.9058-1.4847 3.44-3.3291 3.44h-7.6808c-1.8443 0-3.3291-1.5342-3.3291-3.44v-7.9368c0-1.9058 1.4847-3.44 3.3291-3.44z" color="#000000" color-rendering="auto" dominant-baseline="auto" image-rendering="auto" opacity=".01" solid-color="#000000" stop-color="#000000" style="font-feature-settings:normal;font-variant-alternates:normal;font-variant-caps:normal;font-variant-east-asian:normal;font-variant-ligatures:normal;font-variant-numeric:normal;font-variant-position:normal;font-variation-settings:normal;inline-size:0;isolation:auto;mix-blend-mode:normal;shape-margin:0;shape-padding:0;text-decoration-color:#000000;text-decoration-line:none;text-decoration-style:solid;text-indent:0;text-orientation:mixed;text-transform:none;white-space:normal"/>
  <path d="m4.3587 0.79373c-1.9668 0-3.5639 1.6528-3.5639 3.6876v8.4996c0 2.0348 1.5971 3.6876 3.5639 3.6876h8.2162c1.9668 0 3.5644-1.6528 3.5644-3.6876v-8.4996c0-2.0348-1.5976-3.6876-3.5644-3.6876zm0.27222 0.25631h7.6718c1.8422 0 3.3251 1.5342 3.3251 3.44v7.9368c0 1.9058-1.483 3.44-3.3251 3.44h-7.6718c-1.8422 0-3.3251-1.5342-3.3251-3.44v-7.9368c0-1.9058 1.483-3.44 3.3251-3.44z" color="#000000" color-rendering="auto" dominant-baseline="auto" image-rendering="auto" opacity=".01" solid-color="#000000" stop-color="#000000" style="font-feature-settings:normal;font-variant-alternates:normal;font-variant-caps:normal;font-variant-east-asian:normal;font-variant-ligatures:normal;font-variant-numeric:normal;font-variant-position:normal;font-variation-settings:normal;inline-size:0;isolation:auto;mix-blend-mode:normal;shape-margin:0;shape-padding:0;text-decoration-color:#000000;text-decoration-line:none;text-decoration-style:solid;text-indent:0;text-orientation:mixed;text-transform:none;white-space:normal"/>
  <path d="m4.3097 1.0583c-1.8657 0-3.3751 1.5383-3.3751 3.439v8.4675c0 1.9007 1.57 3.439 3.4357 3.439h8.1996c1.8657 0 3.4274-1.5383 3.4274-3.439v-8.4675c0-1.9007-1.51-3.439-3.3756-3.439h-0.09688c1.794 0.086515 3.2138 1.5819 3.2138 3.4318v7.9368c0 1.9058-1.5059 3.44-3.3766 3.44h-7.7905c-1.8707 0-3.3766-1.5342-3.3766-3.44v-7.9368c0-1.8498 1.4199-3.3451 3.2138-3.4318z" color="#000000" color-rendering="auto" dominant-baseline="auto" image-rendering="auto" opacity=".03" solid-color="#000000" stop-color="#000000" style="font-feature-settings:normal;font-variant-alternates:normal;font-variant-caps:normal;font-variant-east-asian:normal;font-variant-ligatures:normal;font-variant-numeric:normal;font-variant-position:normal;font-variation-settings:normal;inline-size:0;isolation:auto;mix-blend-mode:normal;shape-margin:0;shape-padding:0;text-decoration-color:#000000;text-decoration-line:none;text-decoration-style:solid;text-indent:0;text-orientation:mixed;text-transform:none;white-space:normal"/>
  <path transform="scale(.26458)" d="m4 46.969v2.0312c0 6.6479 5.8957 12 12.544 12h30.961c6.6479 0 12.495-5.3521 12.495-12v-1.9922c-0.02117 7.1849-5.81 12.963-13 12.963h-29.998c-7.2032 0-13.002-5.7987-13.002-13.002z" color="#000000" color-rendering="auto" dominant-baseline="auto" image-rendering="auto" opacity=".03" solid-color="#000000" stop-color="#000000" style="font-feature-settings:normal;font-variant-alternates:normal;font-variant-caps:normal;font-variant-east-asian:normal;font-variant-ligatures:normal;font-variant-numeric:normal;font-variant-position:normal;font-variation-settings:normal;inline-size:0;isolation:auto;mix-blend-mode:normal;shape-margin:0;shape-padding:0;text-decoration-color:#000000;text-decoration-line:none;text-decoration-style:solid;text-indent:0;text-orientation:mixed;text-transform:none;white-space:normal"/>
  <path d="m1.0583 11.906v0.59234c0 1.9386 1.5729 3.4993 3.3318 3.4993h8.1603c1.7589 0 3.3243-1.5608 3.3243-3.4993v-0.58095c-0.0056 2.0952-1.5372 3.7801-3.4395 3.7801h-7.9368c-1.9058 0-3.44-1.691-3.44-3.7915z" color="#000000" color-rendering="auto" dominant-baseline="auto" image-rendering="auto" opacity=".05" solid-color="#000000" stop-color="#000000" style="font-feature-settings:normal;font-variant-alternates:normal;font-variant-caps:normal;font-variant-east-asian:normal;font-variant-ligatures:normal;font-variant-numeric:normal;font-variant-position:normal;font-variation-settings:normal;inline-size:0;isolation:auto;mix-blend-mode:normal;shape-margin:0;shape-padding:0;text-decoration-color:#000000;text-decoration-line:none;text-decoration-style:solid;text-indent:0;text-orientation:mixed;text-transform:none;white-space:normal"/>
 </g>
 <path d="m16.987 4c-7.2032 0-13.002 5.7987-13.002 13.002v29.998c0 7.2032 5.7987 13.002 13.002 13.002h29.998c7.2032 0 13.002-5.7987 13.002-13.002v-29.998c0-7.2032-5.7987-13.002-13.002-13.002z" fill="url(#linearGradient1003)" stroke-width="3.7796"/>
 <rect x="7.0025" y="6.9998" width="49.997" height="49.997" rx="10" ry="10" fill="url(#linearGradient1293)" stroke-width="3.3743"/>
 <path d="m17.004 6.9998c-5.5401 0-10 4.4599-10 10v29.998c0 5.5401 4.4599 10 10 10h14.998v-49.997z" fill="url(#linearGradient953)" stroke-width="3.3743"/>
 <circle cx="32.02" cy="32.044" r="30.001" fill-opacity="0" stroke-width="1.5715"/>
 <circle cx="32.02" cy="32.044" r="0" fill="url(#b-3)" stroke-width="1.5715"/>
 <path d="m46.999 6.9998c5.5401 0 10 4.4599 10 10v29.998c0 5.5401-4.4599 10-10 10h-14.998v-49.997z" fill="url(#linearGradient932)" stroke-width="3.3743"/>
 <g transform="matrix(3.7796 0 0 3.7796 -1.2634e-7 2.2574e-6)" stroke-width=".26458">
  <rect x="9.5248" y="3.7041" width="4.4978" height=".13229" rx="0" ry="0" opacity=".1"/>
  <rect x="9.5248" y="4.7624" width="4.4978" height=".13229" rx="0" ry="0" opacity=".1"/>
  <rect x="9.5248" y="5.8207" width="4.4978" height=".13229" rx="0" ry="0" opacity=".1"/>
  <rect x="9.5248" y="6.879" width="4.4978" height=".13229" rx="0" ry="0" opacity=".1"/>
  <rect x="9.5248" y="7.9373" width="4.4978" height=".13229" rx="0" ry="0" opacity=".1"/>
  <rect x="9.5248" y="8.9957" width="4.4978" height=".13229" rx="0" ry="0" opacity=".1"/>
 </g>
 <circle cx="46.002" cy="46.002" r="18" fill="url(#radialGradient1042)" stroke-width="4.252"/>
 <circle cx="46.002" cy="46.002" r="16" fill="url(#linearGradient1033)" stroke-width="3.7796"/>
 <g transform="matrix(3.7796 0 0 3.7796 -1.2634e-7 2.2574e-6)" stroke-linecap="round" stroke-linejoin="round">
  <g stroke="#000">
   <path d="m4.2853 2.0484h3.1749v8.9957l-1.5875-1.3229-1.5875 1.3229z" opacity=".01" stroke-width="1.0583"/>
   <path d="m4.2853 2.0484h3.1749v8.9957l-1.5875-1.3229-1.5875 1.3229z" opacity=".02" stroke-width=".79373"/>
   <path d="m4.2853 2.0484h3.1749v8.9957l-1.5875-1.3229-1.5875 1.3229z" opacity=".03" stroke-width=".52916"/>
   <path d="m4.2853 2.0484h3.1749v8.9957l-1.5875-1.3229-1.5875 1.3229z" opacity=".04" stroke-width=".26458"/>
  </g>
  <path d="m4.2853 2.0484h3.1749v8.9957l-1.5875-1.3229-1.5875 1.3229z" opacity=".05" stroke-width=".39687"/>
 </g>
 <path d="m16 4.7351h12v36.265l-6.0001-5-6.0001 5z" fill="url(#linearGradient1011)" stroke-linecap="round" stroke-linejoin="round" stroke-width="1.5"/>
 <path class="shp86" d="m52.527 36.694-0.50146 1.3395c-0.03265 0.08785 7.78e-4 0.20447 0.07464 0.26122l0.59009 0.45169c0.07229 0.0552 0.19592 0.05831 0.27211 0.0039l1.1631-0.8303c0.07619-0.05443 0.19203-0.0451 0.25811 0.02176l0.48747 0.48747c0.06764 0.06764 0.07619 0.18192 0.02176 0.25811l-0.8303 1.1623c-0.05443 0.07619-0.05209 0.19825 0.0047 0.27211l0.45248 0.59009c0.0552 0.07229 0.17415 0.10729 0.26122 0.07463l1.338-0.50146c0.08786-0.03266 0.1967 0.0062 0.24334 0.08786l0.34441 0.5963c0.04821 0.08319 0.02644 0.19514-0.04587 0.255l-1.104 0.90883c-0.07229 0.05986-0.10185 0.17804-0.06608 0.26355l0.28377 0.68648c0.03499 0.08397 0.13994 0.14849 0.23324 0.13994l1.4235-0.13838c0.09328-0.0094 0.18892 0.05675 0.21302 0.14772l0.17804 0.6655c0.02487 0.09252-0.02487 0.19514-0.1104 0.23401l-1.3022 0.59242c-0.08552 0.03888-0.1446 0.14538-0.13216 0.2379l0.09718 0.73625c0.01166 0.09019 0.09719 0.17959 0.1897 0.19514l1.4103 0.23479c0.09252 0.01555 0.16715 0.10418 0.16715 0.19747v0.68881c0 0.09563-0.07463 0.1827-0.16715 0.19747l-1.4087 0.23479c-0.09252 0.01554-0.17726 0.10262-0.18892 0.19514l-0.0964 0.73704c-0.01166 0.09018 0.04742 0.19903 0.13216 0.2379l1.2999 0.59164c0.08473 0.03888 0.1345 0.14383 0.1104 0.23401l-0.17804 0.66551c-0.02487 0.09252-0.11973 0.15705-0.21302 0.14772l-1.422-0.13761c-0.09329-0.0094-0.19747 0.05364-0.23323 0.13994l-0.28532 0.68648c-0.03498 0.08396-0.0062 0.20447 0.06608 0.26356l1.104 0.90883c0.07229 0.05986 0.09329 0.17337 0.04587 0.255l-0.34441 0.5963c-0.04821 0.08319-0.15627 0.1205-0.24412 0.08785l-1.3395-0.50146c-0.08785-0.03265-0.20447 7.77e-4 -0.26122 0.07463l-0.45169 0.59009c-0.0552 0.07229-0.05831 0.19592-0.0039 0.27211l0.8303 1.1631c0.05443 0.07619 0.0451 0.19203-0.02176 0.25811l-0.48747 0.48747c-0.06764 0.06764-0.18192 0.07619-0.25811 0.02176l-1.1623-0.8303c-0.07619-0.05442-0.19825-0.05209-0.27211 0.0047l-0.59009 0.45248c-0.07229 0.0552-0.10729 0.17415-0.07463 0.26122l0.50146 1.338c0.03266 0.08785-0.0062 0.19669-0.08786 0.24334l-0.5963 0.34441c-0.08319 0.04821-0.19514 0.02644-0.255-0.04587l-0.90887-1.1039c-0.05986-0.0723-0.17804-0.10185-0.26356-0.06608l-0.68648 0.28377c-0.08396 0.03499-0.14849 0.13994-0.13994 0.23323l0.13839 1.4235c0.0094 0.09328-0.05675 0.18892-0.14772 0.21302l-0.6655 0.17804c-0.09252 0.02487-0.19514-0.02487-0.23401-0.1104l-0.59243-1.3022c-0.03888-0.08552-0.14538-0.1446-0.2379-0.13216l-0.73625 0.09718c-0.09019 0.01166-0.17959 0.09719-0.19514 0.1897l-0.23479 1.4103c-0.01555 0.09252-0.10418 0.16715-0.19747 0.16715h-0.68881c-0.09563 0-0.1827-0.07463-0.19747-0.16715l-0.23479-1.4087c-0.01554-0.09252-0.10262-0.17726-0.19514-0.18892l-0.73703-0.0964c-0.09019-0.01166-0.19903 0.04742-0.2379 0.13216l-0.59164 1.2999c-0.03888 0.08473-0.14383 0.1345-0.23401 0.1104l-0.6655-0.17804c-0.09252-0.02487-0.15704-0.11973-0.14772-0.21302l0.13761-1.4219c0.0094-0.0933-0.05364-0.19747-0.13994-0.23323l-0.68648-0.28532c-0.08397-0.03498-0.20447-0.0062-0.26356 0.06608l-0.90883 1.104c-0.05986 0.0723-0.17337 0.0933-0.255 0.04587l-0.5963-0.34441c-0.08319-0.04821-0.1205-0.15627-0.08786-0.24412l0.50146-1.3395c0.03266-0.08786-7.79e-4 -0.20447-0.07463-0.26122l-0.59009-0.45169c-0.07229-0.0552-0.19592-0.05831-0.27211-0.0039l-1.1631 0.8303c-0.07619 0.05443-0.19203 0.0451-0.25811-0.02176l-0.48747-0.48748c-0.06764-0.06764-0.07619-0.18192-0.02176-0.25811l0.8303-1.1623c0.05442-0.07619 0.05209-0.19825-0.0047-0.27211l-0.45248-0.59009c-0.0552-0.07231-0.17415-0.10729-0.26122-0.07463l-1.338 0.50146c-0.08785 0.03266-0.1967-0.0062-0.24334-0.08786l-0.34441-0.5963c-0.04821-0.08319-0.02643-0.19514 0.04587-0.255l1.104-0.90883c0.07231-0.05986 0.10185-0.17804 0.06609-0.26356l-0.28377-0.68648c-0.03498-0.08396-0.13994-0.14849-0.23323-0.13994l-1.4235 0.13839c-0.09329 0.0094-0.18892-0.05675-0.21302-0.14772l-0.17804-0.6655c-0.02487-0.09252 0.02487-0.19514 0.1104-0.23401l1.3022-0.59242c0.08553-0.03888 0.1446-0.14538 0.13216-0.2379l-0.09718-0.73625c-0.01166-0.09018-0.09718-0.17959-0.1897-0.19514l-1.4103-0.2348c-0.09252-0.01555-0.16715-0.10418-0.16715-0.19747v-0.6888c0-0.09563 0.07463-0.1827 0.16715-0.19747l1.4088-0.23479c0.09252-0.01555 0.17726-0.10262 0.18892-0.19514l0.0964-0.73704c0.01166-0.09018-0.04742-0.19903-0.13216-0.2379l-1.2999-0.59164c-0.08474-0.03888-0.1345-0.14383-0.1104-0.23401l0.17804-0.6655c0.02487-0.09252 0.11973-0.15704 0.21302-0.14772l1.4219 0.13761c0.09329 0.0094 0.19747-0.05364 0.23324-0.13994l0.28532-0.68648c0.03498-0.08397 0.0062-0.20447-0.06609-0.26356l-1.104-0.90883c-0.07229-0.05986-0.09329-0.17337-0.04587-0.255l0.34441-0.5963c0.04821-0.08319 0.15627-0.1205 0.24412-0.08785l1.3395 0.50146c0.08785 0.03265 0.20447-7.79e-4 0.26122-0.07463l0.45169-0.59009c0.0552-0.07231 0.05831-0.19592 0.0039-0.27211l-0.8303-1.1631c-0.05443-0.07619-0.0451-0.19203 0.02176-0.25811l0.48747-0.48747c0.06764-0.06764 0.18192-0.07619 0.25811-0.02176l1.1623 0.8303c0.07619 0.05443 0.19825 0.05209 0.27211-0.0047l0.59009-0.45248c0.0723-0.0552 0.10729-0.17415 0.07463-0.26122l-0.50146-1.338c-0.03266-0.08785 0.0062-0.1967 0.08785-0.24334l0.5963-0.34441c0.08319-0.04821 0.19514-0.02644 0.255 0.04587l0.90883 1.104c0.05986 0.07231 0.17804 0.10185 0.26355 0.06609l0.68648-0.28377c0.08397-0.03499 0.14849-0.13994 0.13994-0.23323l-0.13834-1.4235c-0.0094-0.0933 0.05675-0.18892 0.14772-0.21302l0.6655-0.17804c0.09252-0.02487 0.19514 0.02487 0.23401 0.1104l0.59242 1.3022c0.03888 0.08553 0.14538 0.1446 0.2379 0.13216l0.73625-0.09718c0.09018-0.01166 0.17959-0.09718 0.19514-0.1897l0.23479-1.4103c0.01554-0.09252 0.10418-0.16715 0.19747-0.16715h0.68881c0.09563 0 0.1827 0.07463 0.19747 0.16715l0.23479 1.4087c0.01555 0.09252 0.10262 0.17726 0.19514 0.18892l0.73703 0.0964c0.09019 0.01166 0.19903-0.04742 0.2379-0.13216l0.59164-1.2999c0.03888-0.08475 0.14383-0.1345 0.23401-0.1104l0.6655 0.17804c0.09252 0.02487 0.15704 0.11973 0.14772 0.21302l-0.13761 1.4219c-0.0094 0.0933 0.05364 0.19747 0.13994 0.23323l0.68648 0.28532c0.08396 0.03498 0.20447 0.0062 0.26356-0.06609l0.90883-1.104c0.05986-0.07229 0.17337-0.09329 0.255-0.04587l0.5963 0.3444c0.08319 0.04821 0.1205 0.15627 0.08785 0.24412zm-2.2826 2.854c-1.9327-1.1164-4.1305-1.359-6.1355-0.85052-0.38639 0.09796-0.15938 0.04431-0.15938 0.04431-0.538 0.18348-0.75257 0.73779-0.48124 1.2323 0 0-0.15627-0.28532 0.01244 0.02176 0.80388 1.467 2.4132 4.4027 2.4132 4.4027 0.36384 0.66393 1.2727 1.1895 2.0307 1.174 0 0 3.5653-0.07385 5.3488-0.11117 0.33121-7e-3 0 0 0 0 0.54886-0.01166 0.90574-0.47346 0.78601-0.99047-0.55664-2.0043-1.8698-3.8001-3.8141-4.9228zm-0.1345 14.318c1.9522-1.0822 3.2917-2.8408 3.8887-4.8217 0.11506-0.38173 0.04431-0.15938 0.04431-0.15938 0.11973-0.55589-0.2449-1.0247-0.80854-1.0472 0 0 0.32497 0.01321-0.02487-7.79e-4 -1.6715-0.06608-5.016-0.19903-5.016-0.19903-0.75647-0.03033-1.6754 0.47812-2.0524 1.1358 0 0-1.7726 3.0941-2.6596 4.6422-0.16482 0.28765 0 0 0 0-0.27288 0.47657-0.05986 1.02 0.4447 1.1841 0 0-0.31876-0.08864 0 0 2.005 0.5551 4.2209 0.35452 6.1839-0.73392zm-9.7328-1.31c0.39417 0.3553 0.9718 0.26744 1.2478-0.20758 0 0-0.16637 0.2861 0 0 0.89717-1.5417 2.69-4.6241 2.69-4.6241 0.38094-0.65539 0.3623-1.705-0.04199-2.3456 0 0-1.7874-2.8307-2.6807-4.2448-0.18736-0.29621-0.01321-0.02099-0.01321-0.02099-0.30087-0.47657-0.8894-0.55822-1.3108-0.17648 0 0 0.15704-0.17259-0.11584 0.11817-1.4165 1.5075-2.2701 3.5466-2.2313 5.7788 0.03888 2.2445 0.97337 4.2634 2.4567 5.722z" filter="url(#filter1039)" opacity=".5" stroke-width="3.0501"/>
 <path id="gear" class="shp86" d="m52.527 36.023-0.50146 1.3395c-0.03265 0.08785 7.78e-4 0.20447 0.07464 0.26122l0.59009 0.45169c0.07229 0.0552 0.19592 0.05831 0.27211 0.0039l1.1631-0.8303c0.07619-0.05443 0.19203-0.0451 0.25811 0.02176l0.48747 0.48747c0.06764 0.06764 0.07619 0.18192 0.02176 0.25811l-0.8303 1.1623c-0.05443 0.07619-0.05209 0.19825 0.0047 0.27211l0.45248 0.59009c0.0552 0.07229 0.17415 0.10729 0.26122 0.07463l1.338-0.50146c0.08786-0.03266 0.1967 0.0062 0.24334 0.08786l0.34441 0.5963c0.04821 0.08319 0.02644 0.19514-0.04587 0.255l-1.104 0.90883c-0.07229 0.05986-0.10185 0.17804-0.06608 0.26355l0.28377 0.68648c0.03499 0.08397 0.13994 0.14849 0.23324 0.13994l1.4235-0.13838c0.09328-0.0094 0.18892 0.05675 0.21302 0.14772l0.17804 0.6655c0.02487 0.09252-0.02487 0.19514-0.1104 0.23401l-1.3022 0.59242c-0.08552 0.03888-0.1446 0.14538-0.13216 0.2379l0.09718 0.73625c0.01166 0.09019 0.09719 0.17959 0.1897 0.19514l1.4103 0.23479c0.09252 0.01555 0.16715 0.10418 0.16715 0.19747v0.68881c0 0.09563-0.07463 0.1827-0.16715 0.19747l-1.4087 0.23479c-0.09252 0.01554-0.17726 0.10262-0.18892 0.19514l-0.0964 0.73704c-0.01166 0.09018 0.04742 0.19903 0.13216 0.2379l1.2999 0.59164c0.08473 0.03888 0.1345 0.14383 0.1104 0.23401l-0.17804 0.66551c-0.02487 0.09252-0.11973 0.15705-0.21302 0.14772l-1.422-0.13761c-0.09329-0.0094-0.19747 0.05364-0.23323 0.13994l-0.28532 0.68648c-0.03498 0.08396-0.0062 0.20447 0.06608 0.26356l1.104 0.90883c0.07229 0.05986 0.09329 0.17337 0.04587 0.255l-0.34441 0.5963c-0.04821 0.08319-0.15627 0.1205-0.24412 0.08785l-1.3395-0.50146c-0.08785-0.03265-0.20447 7.77e-4 -0.26122 0.07463l-0.45169 0.59009c-0.0552 0.07229-0.05831 0.19592-0.0039 0.27211l0.8303 1.1631c0.05443 0.07619 0.0451 0.19203-0.02176 0.25811l-0.48747 0.48747c-0.06764 0.06764-0.18192 0.07619-0.25811 0.02176l-1.1623-0.8303c-0.07619-0.05442-0.19825-0.05209-0.27211 0.0047l-0.59009 0.45248c-0.07229 0.0552-0.10729 0.17415-0.07463 0.26122l0.50146 1.338c0.03266 0.08785-0.0062 0.19669-0.08786 0.24334l-0.5963 0.34441c-0.08319 0.04821-0.19514 0.02644-0.255-0.04587l-0.90887-1.1039c-0.05986-0.0723-0.17804-0.10185-0.26356-0.06608l-0.68648 0.28377c-0.08396 0.03499-0.14849 0.13994-0.13994 0.23323l0.13839 1.4235c0.0094 0.09328-0.05675 0.18892-0.14772 0.21302l-0.6655 0.17804c-0.09252 0.02487-0.19514-0.02487-0.23401-0.1104l-0.59243-1.3022c-0.03888-0.08552-0.14538-0.1446-0.2379-0.13216l-0.73625 0.09718c-0.09019 0.01166-0.17959 0.09719-0.19514 0.1897l-0.23479 1.4103c-0.01555 0.09252-0.10418 0.16715-0.19747 0.16715h-0.68881c-0.09563 0-0.1827-0.07463-0.19747-0.16715l-0.23479-1.4087c-0.01554-0.09252-0.10262-0.17726-0.19514-0.18892l-0.73703-0.0964c-0.09019-0.01166-0.19903 0.04742-0.2379 0.13216l-0.59164 1.2999c-0.03888 0.08473-0.14383 0.1345-0.23401 0.1104l-0.6655-0.17804c-0.09252-0.02487-0.15704-0.11973-0.14772-0.21302l0.13761-1.4219c0.0094-0.0933-0.05364-0.19747-0.13994-0.23323l-0.68648-0.28532c-0.08397-0.03498-0.20447-0.0062-0.26356 0.06608l-0.90883 1.104c-0.05986 0.0723-0.17337 0.0933-0.255 0.04587l-0.5963-0.34441c-0.08319-0.04821-0.1205-0.15627-0.08786-0.24412l0.50146-1.3395c0.03266-0.08786-7.79e-4 -0.20447-0.07463-0.26122l-0.59009-0.45169c-0.07229-0.0552-0.19592-0.05831-0.27211-0.0039l-1.1631 0.8303c-0.07619 0.05443-0.19203 0.0451-0.25811-0.02176l-0.48747-0.48748c-0.06764-0.06764-0.07619-0.18192-0.02176-0.25811l0.8303-1.1623c0.05442-0.07619 0.05209-0.19825-0.0047-0.27211l-0.45248-0.59009c-0.0552-0.07231-0.17415-0.10729-0.26122-0.07463l-1.338 0.50146c-0.08785 0.03266-0.1967-0.0062-0.24334-0.08786l-0.34441-0.5963c-0.04821-0.08319-0.02643-0.19514 0.04587-0.255l1.104-0.90883c0.07231-0.05986 0.10185-0.17804 0.06609-0.26356l-0.28377-0.68648c-0.03498-0.08396-0.13994-0.14849-0.23323-0.13994l-1.4235 0.13839c-0.09329 0.0094-0.18892-0.05675-0.21302-0.14772l-0.17804-0.6655c-0.02487-0.09252 0.02487-0.19514 0.1104-0.23401l1.3022-0.59242c0.08553-0.03888 0.1446-0.14538 0.13216-0.2379l-0.09718-0.73625c-0.01166-0.09018-0.09718-0.17959-0.1897-0.19514l-1.4103-0.2348c-0.09252-0.01555-0.16715-0.10418-0.16715-0.19747v-0.6888c0-0.09563 0.07463-0.1827 0.16715-0.19747l1.4088-0.23479c0.09252-0.01555 0.17726-0.10262 0.18892-0.19514l0.0964-0.73704c0.01166-0.09018-0.04742-0.19903-0.13216-0.2379l-1.2999-0.59164c-0.08474-0.03888-0.1345-0.14383-0.1104-0.23401l0.17804-0.6655c0.02487-0.09252 0.11973-0.15704 0.21302-0.14772l1.4219 0.13761c0.09329 0.0094 0.19747-0.05364 0.23324-0.13994l0.28532-0.68648c0.03498-0.08397 0.0062-0.20447-0.06609-0.26356l-1.104-0.90883c-0.07229-0.05986-0.09329-0.17337-0.04587-0.255l0.34441-0.5963c0.04821-0.08319 0.15627-0.1205 0.24412-0.08785l1.3395 0.50146c0.08785 0.03265 0.20447-7.79e-4 0.26122-0.07463l0.45169-0.59009c0.0552-0.07231 0.05831-0.19592 0.0039-0.27211l-0.8303-1.1631c-0.05443-0.07619-0.0451-0.19203 0.02176-0.25811l0.48747-0.48747c0.06764-0.06764 0.18192-0.07619 0.25811-0.02176l1.1623 0.8303c0.07619 0.05443 0.19825 0.05209 0.27211-0.0047l0.59009-0.45248c0.0723-0.0552 0.10729-0.17415 0.07463-0.26122l-0.50146-1.338c-0.03266-0.08785 0.0062-0.1967 0.08785-0.24334l0.5963-0.34441c0.08319-0.04821 0.19514-0.02644 0.255 0.04587l0.90883 1.104c0.05986 0.07231 0.17804 0.10185 0.26355 0.06609l0.68648-0.28377c0.08397-0.03499 0.14849-0.13994 0.13994-0.23323l-0.13834-1.4235c-0.0094-0.0933 0.05675-0.18892 0.14772-0.21302l0.6655-0.17804c0.09252-0.02487 0.19514 0.02487 0.23401 0.1104l0.59242 1.3022c0.03888 0.08553 0.14538 0.1446 0.2379 0.13216l0.73625-0.09718c0.09018-0.01166 0.17959-0.09718 0.19514-0.1897l0.23479-1.4103c0.01554-0.09252 0.10418-0.16715 0.19747-0.16715h0.68881c0.09563 0 0.1827 0.07463 0.19747 0.16715l0.23479 1.4087c0.01555 0.09252 0.10262 0.17726 0.19514 0.18892l0.73703 0.0964c0.09019 0.01166 0.19903-0.04742 0.2379-0.13216l0.59164-1.2999c0.03888-0.08475 0.14383-0.1345 0.23401-0.1104l0.6655 0.17804c0.09252 0.02487 0.15704 0.11973 0.14772 0.21302l-0.13761 1.4219c-0.0094 0.0933 0.05364 0.19747 0.13994 0.23323l0.68648 0.28532c0.08396 0.03498 0.20447 0.0062 0.26356-0.06609l0.90883-1.104c0.05986-0.07229 0.17337-0.09329 0.255-0.04587l0.5963 0.3444c0.08319 0.04821 0.1205 0.15627 0.08785 0.24412zm-2.2826 2.854c-1.9327-1.1164-4.1305-1.359-6.1355-0.85052-0.38639 0.09796-0.15938 0.04431-0.15938 0.04431-0.538 0.18348-0.75257 0.73779-0.48124 1.2323 0 0-0.15627-0.28532 0.01244 0.02176 0.80388 1.467 2.4132 4.4027 2.4132 4.4027 0.36384 0.66393 1.2727 1.1895 2.0307 1.174 0 0 3.5653-0.07385 5.3488-0.11117 0.33121-7e-3 0 0 0 0 0.54886-0.01166 0.90574-0.47346 0.78601-0.99047-0.55664-2.0043-1.8698-3.8001-3.8141-4.9228zm-0.1345 14.318c1.9522-1.0822 3.2917-2.8408 3.8887-4.8217 0.11506-0.38173 0.04431-0.15938 0.04431-0.15938 0.11973-0.55589-0.2449-1.0247-0.80854-1.0472 0 0 0.32497 0.01321-0.02487-7.79e-4 -1.6715-0.06608-5.016-0.19903-5.016-0.19903-0.75647-0.03033-1.6754 0.47812-2.0524 1.1358 0 0-1.7726 3.0941-2.6596 4.6422-0.16482 0.28765 0 0 0 0-0.27288 0.47657-0.05986 1.02 0.4447 1.1841 0 0-0.31876-0.08864 0 0 2.005 0.5551 4.2209 0.35452 6.1839-0.73392zm-9.7328-1.31c0.39417 0.3553 0.9718 0.26744 1.2478-0.20758 0 0-0.16637 0.2861 0 0 0.89717-1.5417 2.69-4.6241 2.69-4.6241 0.38094-0.65539 0.3623-1.705-0.04199-2.3456 0 0-1.7874-2.8307-2.6807-4.2448-0.18736-0.29621-0.01321-0.02099-0.01321-0.02099-0.30087-0.47657-0.8894-0.55822-1.3108-0.17648 0 0 0.15704-0.17259-0.11584 0.11817-1.4165 1.5075-2.2701 3.5466-2.2313 5.7788 0.03888 2.2445 0.97337 4.2634 2.4567 5.722z" fill="url(#f-9-6)" stroke-width="3.0501"/>
</svg>
