<svg xmlns="http://www.w3.org/2000/svg" xmlns:xlink="http://www.w3.org/1999/xlink" width="64" height="64"><defs><linearGradient id="a" x1="32" x2="32" y1="4.493" y2="62" gradientTransform="translate(69.517 -3.391)" gradientUnits="userSpaceOnUse"><stop offset="0" stop-color="#ff7037"/><stop offset="1" stop-color="#f6b31e"/></linearGradient><linearGradient id="e" x1="379.24" x2="374.24" y1="546.85" y2="546.85" gradientTransform="translate(-769.68 -1134.5)scale(2.1429)" gradientUnits="userSpaceOnUse"><stop offset="0" stop-color="#f6f5f4"/><stop offset=".6" stop-color="#fff"/><stop offset="1" stop-color="#dddbd8"/></linearGradient><linearGradient id="d" x1="376.35" x2="374.24" y1="546.85" y2="546.85" gradientTransform="matrix(-2.1429 0 0 2.1429 833.67 -1134.5)" gradientUnits="userSpaceOnUse"><stop offset="0" stop-opacity="0"/><stop offset=".6" stop-opacity="0"/><stop offset="1" stop-opacity=".05"/></linearGradient><linearGradient id="b" x1="7.937" x2="7.937" y1="15.081" y2="1.852" gradientTransform="translate(3.431 3.457)scale(3.3743)" gradientUnits="userSpaceOnUse"><stop offset="0" stop-color="#f1efeb"/><stop offset="1" stop-color="#fff"/></linearGradient><linearGradient xlink:href="#a" id="c" x1="32.002" x2="32.002" y1="57.171" y2="7.001" gradientUnits="userSpaceOnUse"/><linearGradient xlink:href="#a" id="h" x1="23.255" x2="23.255" y1="40.578" y2="7.641" gradientUnits="userSpaceOnUse"/><linearGradient id="g" x1="11.993" x2="11.993" y1="15.289" y2="8.384" gradientTransform="translate(0 1)scale(3.7796)" gradientUnits="userSpaceOnUse"><stop offset="0" stop-color="#2e2e2e"/><stop offset="1" stop-color="#5c5c5c"/></linearGradient><linearGradient xlink:href="#b" id="i" x1="34.002" x2="58.001" y1="46.002" y2="46.002" gradientUnits="userSpaceOnUse"/><radialGradient id="f" cx="12.171" cy="12.171" r="4.762" gradientTransform="scale(3.7796)" gradientUnits="userSpaceOnUse"><stop offset="0"/><stop offset="1" stop-opacity="0"/></radialGradient></defs><g color="#000"><path d="M4.37.53C2.254.53.53 2.312.53 4.496v8.468c0 2.184 1.725 3.968 3.84 3.968h8.194c2.114 0 3.84-1.783 3.84-3.968V4.497c0-2.184-1.726-3.968-3.84-3.968zm.256.52h7.681c1.844 0 3.33 1.534 3.33 3.44v7.937c0 1.906-1.485 3.44-3.33 3.44h-7.68c-1.845 0-3.33-1.534-3.33-3.44V4.49c0-1.906 1.485-3.44 3.33-3.44z" opacity=".01" style="font-feature-settings:normal;font-variant-alternates:normal;font-variant-caps:normal;font-variant-east-asian:normal;font-variant-ligatures:normal;font-variant-numeric:normal;font-variant-position:normal;font-variation-settings:normal;inline-size:0;isolation:auto;mix-blend-mode:normal;shape-margin:0;shape-padding:0;text-decoration-color:#000;text-decoration-line:none;text-decoration-style:solid;text-indent:0;text-orientation:mixed;text-transform:none;white-space:normal" transform="scale(3.7796)"/><path d="M4.359.794C2.392.794.795 2.447.795 4.48v8.5c0 2.035 1.597 3.688 3.564 3.688h8.216c1.967 0 3.564-1.653 3.564-3.688v-8.5c0-2.034-1.597-3.687-3.564-3.687zm.272.256h7.672c1.842 0 3.325 1.534 3.325 3.44v7.937c0 1.906-1.483 3.44-3.325 3.44H4.63c-1.842 0-3.325-1.534-3.325-3.44V4.49c0-1.906 1.483-3.44 3.325-3.44z" opacity=".01" style="font-feature-settings:normal;font-variant-alternates:normal;font-variant-caps:normal;font-variant-east-asian:normal;font-variant-ligatures:normal;font-variant-numeric:normal;font-variant-position:normal;font-variation-settings:normal;inline-size:0;isolation:auto;mix-blend-mode:normal;shape-margin:0;shape-padding:0;text-decoration-color:#000;text-decoration-line:none;text-decoration-style:solid;text-indent:0;text-orientation:mixed;text-transform:none;white-space:normal" transform="scale(3.7796)"/><path d="M4.31 1.058c-1.866 0-3.375 1.539-3.375 3.44v8.467c0 1.9 1.57 3.439 3.435 3.439h8.2c1.866 0 3.427-1.538 3.427-3.44V4.498c0-1.9-1.51-3.439-3.375-3.439h-.097c1.794.087 3.214 1.582 3.214 3.432v7.937c0 1.906-1.506 3.44-3.377 3.44h-7.79c-1.871 0-3.377-1.534-3.377-3.44V4.49c0-1.85 1.42-3.345 3.214-3.432z" opacity=".03" style="font-feature-settings:normal;font-variant-alternates:normal;font-variant-caps:normal;font-variant-east-asian:normal;font-variant-ligatures:normal;font-variant-numeric:normal;font-variant-position:normal;font-variation-settings:normal;inline-size:0;isolation:auto;mix-blend-mode:normal;shape-margin:0;shape-padding:0;text-decoration-color:#000;text-decoration-line:none;text-decoration-style:solid;text-indent:0;text-orientation:mixed;text-transform:none;white-space:normal" transform="scale(3.7796)"/><path d="M4 46.969V49c0 6.648 5.896 12 12.544 12h30.961C54.153 61 60 55.648 60 49v-1.992a12.97 12.97 0 0 1-13 12.963H17.002A12.973 12.973 0 0 1 4 46.969" opacity=".03" style="font-feature-settings:normal;font-variant-alternates:normal;font-variant-caps:normal;font-variant-east-asian:normal;font-variant-ligatures:normal;font-variant-numeric:normal;font-variant-position:normal;font-variation-settings:normal;inline-size:0;isolation:auto;mix-blend-mode:normal;shape-margin:0;shape-padding:0;text-decoration-color:#000;text-decoration-line:none;text-decoration-style:solid;text-indent:0;text-orientation:mixed;text-transform:none;white-space:normal"/><path d="M1.058 11.906v.592c0 1.939 1.573 3.5 3.332 3.5h8.16c1.76 0 3.325-1.561 3.325-3.5v-.58c-.006 2.095-1.537 3.78-3.44 3.78H4.498c-1.905 0-3.44-1.692-3.44-3.792" opacity=".05" style="font-feature-settings:normal;font-variant-alternates:normal;font-variant-caps:normal;font-variant-east-asian:normal;font-variant-ligatures:normal;font-variant-numeric:normal;font-variant-position:normal;font-variation-settings:normal;inline-size:0;isolation:auto;mix-blend-mode:normal;shape-margin:0;shape-padding:0;text-decoration-color:#000;text-decoration-line:none;text-decoration-style:solid;text-indent:0;text-orientation:mixed;text-transform:none;white-space:normal" transform="scale(3.7796)"/></g><path fill="url(#c)" d="M16.987 4A12.973 12.973 0 0 0 3.985 17.002V47a12.973 12.973 0 0 0 13.002 13.002h29.998A12.973 12.973 0 0 0 59.987 47V17.002A12.973 12.973 0 0 0 46.985 4z"/><rect width="49.997" height="49.997" x="7.003" y="7" fill="url(#b)" rx="10" ry="10"/><path fill="url(#d)" d="M17.004 7c-5.54 0-10 4.46-10 10v29.998c0 5.54 4.46 10 10 10h14.998V7z"/><circle cx="32.02" cy="32.044" r="30.001" fill="none"/><path fill="url(#e)" d="M46.999 7c5.54 0 10 4.46 10 10v29.998c0 5.54-4.46 10-10 10H32.001V7z"/><g stroke-width=".265" transform="scale(3.7796)"><rect width="4.498" height=".132" x="9.525" y="3.704" opacity=".1" rx="0" ry="0"/><rect width="4.498" height=".132" x="9.525" y="4.762" opacity=".1" rx="0" ry="0"/><rect width="4.498" height=".132" x="9.525" y="5.821" opacity=".1" rx="0" ry="0"/><rect width="4.498" height=".132" x="9.525" y="6.879" opacity=".1" rx="0" ry="0"/><rect width="4.498" height=".132" x="9.525" y="7.937" opacity=".1" rx="0" ry="0"/><rect width="4.498" height=".132" x="9.525" y="8.996" opacity=".1" rx="0" ry="0"/></g><circle cx="46.002" cy="46.002" r="18" fill="url(#f)"/><circle cx="46.002" cy="46.002" r="16" fill="url(#g)"/><g stroke-linecap="round" stroke-linejoin="round"><g stroke="#000"><path stroke-width="3.999" d="M16.197 7.742h12v34l-6-5-6 5z" opacity=".01"/><path stroke-width="3.001" d="M16.197 7.742h12v34l-6-5-6 5z" opacity=".02"/><path stroke-width="1.999" d="M16.197 7.742h12v34l-6-5-6 5z" opacity=".03"/><path stroke-width="1.002" d="M16.197 7.742h12v34l-6-5-6 5z" opacity=".04"/></g><path d="M16.197 7.742h12v34l-6-5-6 5z" opacity=".05"/></g><path fill="url(#h)" d="M16 4.735h12V41l-6-5-6 5z"/><g stroke-width="2.4"><path d="M46.002 39.779c-2.326.023-4.668.554-6.694 1.702-.808.527-1.777 1.206-2.508 1.89-1.15 1.126-2.133 2.439-2.798 3.91 1.822 4.02 5.828 6.967 10.236 7.402 2.89.327 5.916-.172 8.457-1.603.808-.526 1.777-1.205 2.508-1.89 1.15-1.128 2.134-2.44 2.798-3.91-1.821-4.02-5.829-6.966-10.235-7.4a15 15 0 0 0-1.764-.102zm0 3c2.41-.053 4.545 2.104 4.5 4.502.077 2.65-2.563 4.937-5.174 4.442-2.636-.31-4.488-3.267-3.62-5.773.553-1.843 2.363-3.192 4.295-3.17zm0 3.001a1.5 1.5 0 0 0-1.5 1.503 1.5 1.5 0 0 0 1.5 1.5 1.5 1.5 0 0 0 1.5-1.5 1.5 1.5 0 0 0-1.5-1.5z" opacity=".15"/><path d="M46.002 39.056c-2.326.023-4.668.554-6.694 1.702-.808.527-1.777 1.206-2.508 1.89-1.15 1.126-2.133 2.439-2.798 3.91 1.822 4.02 5.828 6.967 10.236 7.402 2.89.327 5.916-.172 8.457-1.603.808-.526 1.777-1.205 2.508-1.89 1.15-1.128 2.134-2.44 2.798-3.91-1.821-4.02-5.829-6.966-10.235-7.4a15 15 0 0 0-1.764-.102zm0 3c2.41-.053 4.545 2.104 4.5 4.502.077 2.65-2.563 4.937-5.174 4.442-2.636-.31-4.488-3.267-3.62-5.773.553-1.843 2.363-3.192 4.295-3.17zm0 3.001a1.5 1.5 0 0 0-1.5 1.503 1.5 1.5 0 0 0 1.5 1.5 1.5 1.5 0 0 0 1.5-1.5 1.5 1.5 0 0 0-1.5-1.5z" opacity=".15"/><path fill="url(#i)" d="M46.002 38.502c-2.326.023-4.668.554-6.694 1.702-.808.527-1.777 1.206-2.508 1.89-1.15 1.126-2.133 2.439-2.798 3.91 1.822 4.02 5.828 6.967 10.236 7.402 2.89.327 5.916-.172 8.457-1.603.808-.526 1.777-1.205 2.508-1.89 1.15-1.128 2.134-2.44 2.798-3.91-1.821-4.02-5.829-6.966-10.235-7.4a15 15 0 0 0-1.764-.102zm0 3c2.41-.053 4.545 2.104 4.5 4.502.077 2.65-2.563 4.937-5.174 4.442-2.636-.31-4.488-3.267-3.62-5.773.553-1.843 2.363-3.192 4.295-3.17zm0 3.001a1.5 1.5 0 0 0-1.5 1.503 1.5 1.5 0 0 0 1.5 1.5 1.5 1.5 0 0 0 1.5-1.5 1.5 1.5 0 0 0-1.5-1.5z"/></g></svg>