<svg width="64" height="64" xmlns="http://www.w3.org/2000/svg" xmlns:xlink="http://www.w3.org/1999/xlink"><defs><linearGradient id="a" x1="32" x2="32" y1="4.493" y2="62" gradientUnits="userSpaceOnUse"><stop stop-color="#00a192" offset="0"/><stop stop-color="#00b27a" offset="1"/></linearGradient><linearGradient id="h" x1="23.255" x2="23.255" y1="40.578" y2="7.641" gradientUnits="userSpaceOnUse" xlink:href="#a"/><linearGradient id="g" x1="11.993" x2="11.993" y1="15.289" y2="8.384" gradientTransform="translate(0 1) scale(3.7796)" gradientUnits="userSpaceOnUse"><stop stop-color="#2e2e2e" offset="0"/><stop stop-color="#5c5c5c" offset="1"/></linearGradient><linearGradient id="e" x1="379.24" x2="374.24" y1="546.85" y2="546.85" gradientTransform="translate(-769.68 -1134.5) scale(2.1429)" gradientUnits="userSpaceOnUse"><stop stop-color="#f6f5f4" offset="0"/><stop stop-color="#fff" offset=".6"/><stop stop-color="#dddbd8" offset="1"/></linearGradient><linearGradient id="d" x1="376.35" x2="374.24" y1="546.85" y2="546.85" gradientTransform="matrix(-2.1429 0 0 2.1429 833.67 -1134.5)" gradientUnits="userSpaceOnUse"><stop stop-opacity="0" offset="0"/><stop stop-opacity="0" offset=".6"/><stop stop-opacity=".05" offset="1"/></linearGradient><linearGradient id="c" x1="7.937" x2="7.937" y1="15.081" y2="1.852" gradientTransform="translate(3.431 3.457) scale(3.3743)" gradientUnits="userSpaceOnUse"><stop stop-color="#f1efeb" offset="0"/><stop stop-color="#fff" offset="1"/></linearGradient><linearGradient id="b" x1="32.002" x2="32.002" y1="57.171" y2="7.001" gradientUnits="userSpaceOnUse" xlink:href="#a"/><linearGradient id="j" x1="2331.3" x2="2331.3" y1="435.51" y2="45.726" gradientTransform="translate(-134.88 27.286) scale(.07774)" gradientUnits="userSpaceOnUse"><stop stop-color="#807c76" offset=".058"/><stop stop-color="#d4d7d0" offset=".385"/><stop stop-color="#bdbfba" offset=".558"/><stop stop-color="#acb3ac" offset=".635"/><stop stop-color="#dadfda" offset=".75"/><stop stop-color="#c2c7c1" offset=".863"/><stop stop-color="#7f7a75" offset=".941"/></linearGradient><radialGradient id="f" cx="12.171" cy="12.171" r="4.762" gradientTransform="scale(3.7796)" gradientUnits="userSpaceOnUse"><stop offset="0"/><stop stop-opacity="0" offset="1"/></radialGradient><filter id="i" x="-.108" y="-.108" width="1.216" height="1.216" color-interpolation-filters="sRGB"><feGaussianBlur stdDeviation="1.08"/></filter></defs><g color="#000"><path d="M4.37.53C2.254.53.53 2.312.53 4.496v8.468c0 2.184 1.725 3.968 3.84 3.968h8.194c2.114 0 3.84-1.783 3.84-3.968V4.497c0-2.184-1.726-3.968-3.84-3.968zm.256.52h7.681c1.844 0 3.33 1.534 3.33 3.44v7.937c0 1.906-1.485 3.44-3.33 3.44h-7.68c-1.845 0-3.33-1.534-3.33-3.44V4.49c0-1.906 1.485-3.44 3.33-3.44z" opacity=".01" style="font-feature-settings:normal;font-variant-alternates:normal;font-variant-caps:normal;font-variant-east-asian:normal;font-variant-ligatures:normal;font-variant-numeric:normal;font-variant-position:normal;font-variation-settings:normal;inline-size:0;isolation:auto;mix-blend-mode:normal;shape-margin:0;shape-padding:0;text-decoration-color:#000;text-decoration-line:none;text-decoration-style:solid;text-indent:0;text-orientation:mixed;text-transform:none;white-space:normal" transform="scale(3.7796)"/><path d="M4.359.794C2.392.794.795 2.447.795 4.48v8.5c0 2.035 1.597 3.688 3.564 3.688h8.216c1.967 0 3.564-1.653 3.564-3.688v-8.5c0-2.034-1.597-3.687-3.564-3.687zm.272.256h7.672c1.842 0 3.325 1.534 3.325 3.44v7.937c0 1.906-1.483 3.44-3.325 3.44H4.63c-1.842 0-3.325-1.534-3.325-3.44V4.49c0-1.906 1.483-3.44 3.325-3.44z" opacity=".01" style="font-feature-settings:normal;font-variant-alternates:normal;font-variant-caps:normal;font-variant-east-asian:normal;font-variant-ligatures:normal;font-variant-numeric:normal;font-variant-position:normal;font-variation-settings:normal;inline-size:0;isolation:auto;mix-blend-mode:normal;shape-margin:0;shape-padding:0;text-decoration-color:#000;text-decoration-line:none;text-decoration-style:solid;text-indent:0;text-orientation:mixed;text-transform:none;white-space:normal" transform="scale(3.7796)"/><path d="M4.31 1.058c-1.866 0-3.375 1.539-3.375 3.44v8.467c0 1.9 1.57 3.439 3.435 3.439h8.2c1.866 0 3.427-1.538 3.427-3.44V4.498c0-1.9-1.51-3.439-3.375-3.439h-.097c1.794.087 3.214 1.582 3.214 3.432v7.937c0 1.906-1.506 3.44-3.377 3.44h-7.79c-1.871 0-3.377-1.534-3.377-3.44V4.49c0-1.85 1.42-3.345 3.214-3.432z" opacity=".03" style="font-feature-settings:normal;font-variant-alternates:normal;font-variant-caps:normal;font-variant-east-asian:normal;font-variant-ligatures:normal;font-variant-numeric:normal;font-variant-position:normal;font-variation-settings:normal;inline-size:0;isolation:auto;mix-blend-mode:normal;shape-margin:0;shape-padding:0;text-decoration-color:#000;text-decoration-line:none;text-decoration-style:solid;text-indent:0;text-orientation:mixed;text-transform:none;white-space:normal" transform="scale(3.7796)"/><path d="M4 46.969V49c0 6.648 5.896 12 12.544 12h30.961C54.153 61 60 55.648 60 49v-1.992a12.972 12.972 0 0 1-13 12.963H17.002A12.973 12.973 0 0 1 4 46.969z" opacity=".03" style="font-feature-settings:normal;font-variant-alternates:normal;font-variant-caps:normal;font-variant-east-asian:normal;font-variant-ligatures:normal;font-variant-numeric:normal;font-variant-position:normal;font-variation-settings:normal;inline-size:0;isolation:auto;mix-blend-mode:normal;shape-margin:0;shape-padding:0;text-decoration-color:#000;text-decoration-line:none;text-decoration-style:solid;text-indent:0;text-orientation:mixed;text-transform:none;white-space:normal"/><path d="M1.058 11.906v.592c0 1.939 1.573 3.5 3.332 3.5h8.16c1.76 0 3.325-1.561 3.325-3.5v-.58c-.006 2.095-1.537 3.78-3.44 3.78H4.498c-1.905 0-3.44-1.692-3.44-3.792z" opacity=".05" style="font-feature-settings:normal;font-variant-alternates:normal;font-variant-caps:normal;font-variant-east-asian:normal;font-variant-ligatures:normal;font-variant-numeric:normal;font-variant-position:normal;font-variation-settings:normal;inline-size:0;isolation:auto;mix-blend-mode:normal;shape-margin:0;shape-padding:0;text-decoration-color:#000;text-decoration-line:none;text-decoration-style:solid;text-indent:0;text-orientation:mixed;text-transform:none;white-space:normal" transform="scale(3.7796)"/></g><path d="M16.987 4A12.973 12.973 0 0 0 3.985 17.002V47a12.973 12.973 0 0 0 13.002 13.002h29.998A12.973 12.973 0 0 0 59.987 47V17.002A12.973 12.973 0 0 0 46.985 4z" fill="url(#b)"/><rect x="7.003" y="7" width="49.997" height="49.997" rx="10" ry="10" fill="url(#c)"/><path d="M17.004 7c-5.54 0-10 4.46-10 10v29.998c0 5.54 4.46 10 10 10h14.998V7z" fill="url(#d)"/><circle cx="32.02" cy="32.044" r="30.001" fill="none"/><path d="M46.999 7c5.54 0 10 4.46 10 10v29.998c0 5.54-4.46 10-10 10H32.001V7z" fill="url(#e)"/><g transform="scale(3.7796)" stroke-width=".265"><rect x="9.525" y="3.704" width="4.498" height=".132" rx="0" ry="0" opacity=".1"/><rect x="9.525" y="4.762" width="4.498" height=".132" rx="0" ry="0" opacity=".1"/><rect x="9.525" y="5.821" width="4.498" height=".132" rx="0" ry="0" opacity=".1"/><rect x="9.525" y="6.879" width="4.498" height=".132" rx="0" ry="0" opacity=".1"/><rect x="9.525" y="7.937" width="4.498" height=".132" rx="0" ry="0" opacity=".1"/><rect x="9.525" y="8.996" width="4.498" height=".132" rx="0" ry="0" opacity=".1"/></g><circle cx="46.002" cy="46.002" r="18" fill="url(#f)"/><circle cx="46.002" cy="46.002" r="16" fill="url(#g)"/><g stroke-linecap="round" stroke-linejoin="round"><g stroke="#000"><path d="M16.197 7.742h12v34l-6-5-6 5z" opacity=".01" stroke-width="3.999"/><path d="M16.197 7.742h12v34l-6-5-6 5z" opacity=".02" stroke-width="3.001"/><path d="M16.197 7.742h12v34l-6-5-6 5z" opacity=".03" stroke-width="1.999"/><path d="M16.197 7.742h12v34l-6-5-6 5z" opacity=".04" stroke-width="1.002"/></g><path d="M16.197 7.742h12v34l-6-5-6 5z" opacity=".05"/></g><path d="M16 4.735h12V41l-6-5-6 5z" fill="url(#h)"/><path class="shp86" d="m52.527 36.694-.501 1.34a.243.243 0 0 0 .074.26l.59.452a.246.246 0 0 0 .272.004l1.163-.83a.207.207 0 0 1 .259.022l.487.487a.206.206 0 0 1 .022.258l-.83 1.163a.243.243 0 0 0 .004.272l.453.59a.245.245 0 0 0 .26.074l1.339-.501a.206.206 0 0 1 .243.088l.345.596a.205.205 0 0 1-.046.255l-1.104.909a.242.242 0 0 0-.066.264l.283.686c.035.084.14.149.234.14l1.423-.138a.207.207 0 0 1 .213.147l.178.666a.205.205 0 0 1-.11.234l-1.302.592a.242.242 0 0 0-.132.238l.097.736c.011.09.097.18.19.196l1.41.234a.207.207 0 0 1 .167.198v.689a.205.205 0 0 1-.167.197l-1.409.235a.241.241 0 0 0-.189.195l-.096.737a.247.247 0 0 0 .132.238l1.3.592a.208.208 0 0 1 .11.234l-.178.665a.206.206 0 0 1-.213.148l-1.422-.138a.242.242 0 0 0-.233.14l-.285.687a.244.244 0 0 0 .066.263l1.104.909c.072.06.093.173.045.255l-.344.596a.206.206 0 0 1-.244.088l-1.34-.501a.243.243 0 0 0-.26.074l-.452.59a.246.246 0 0 0-.004.273l.83 1.163a.207.207 0 0 1-.022.258l-.487.487a.206.206 0 0 1-.258.022l-1.163-.83a.243.243 0 0 0-.272.004l-.59.453a.245.245 0 0 0-.075.261l.502 1.338a.206.206 0 0 1-.088.243l-.596.345a.205.205 0 0 1-.255-.046l-.91-1.104a.242.242 0 0 0-.263-.066l-.686.284a.246.246 0 0 0-.14.233l.138 1.423a.207.207 0 0 1-.147.214l-.666.178a.205.205 0 0 1-.234-.11l-.592-1.303a.242.242 0 0 0-.238-.132l-.736.097a.245.245 0 0 0-.196.19l-.234 1.41a.207.207 0 0 1-.198.167h-.689a.205.205 0 0 1-.197-.167l-.235-1.409a.241.241 0 0 0-.195-.189l-.737-.096a.247.247 0 0 0-.238.132l-.592 1.3a.208.208 0 0 1-.234.11l-.665-.178a.206.206 0 0 1-.148-.213l.138-1.422a.242.242 0 0 0-.14-.233l-.687-.285a.244.244 0 0 0-.263.066l-.91 1.104a.207.207 0 0 1-.254.046l-.596-.345a.206.206 0 0 1-.088-.244l.501-1.34a.243.243 0 0 0-.074-.26l-.59-.452a.246.246 0 0 0-.273-.004l-1.163.83a.207.207 0 0 1-.258-.021l-.487-.488a.206.206 0 0 1-.022-.258l.83-1.162a.243.243 0 0 0-.004-.272l-.453-.59a.245.245 0 0 0-.261-.075l-1.338.501a.206.206 0 0 1-.244-.088l-.344-.596a.205.205 0 0 1 .046-.255l1.104-.909a.242.242 0 0 0 .066-.263l-.284-.687a.246.246 0 0 0-.233-.14l-1.423.139a.207.207 0 0 1-.213-.148l-.179-.666a.205.205 0 0 1 .11-.234l1.303-.592a.242.242 0 0 0 .132-.238l-.097-.736a.245.245 0 0 0-.19-.195l-1.41-.235a.207.207 0 0 1-.167-.197v-.69c0-.095.075-.182.167-.197l1.409-.235a.241.241 0 0 0 .189-.195l.096-.737a.247.247 0 0 0-.132-.238l-1.3-.591a.208.208 0 0 1-.11-.234l.178-.666a.206.206 0 0 1 .213-.148l1.422.138a.242.242 0 0 0 .233-.14l.285-.686a.244.244 0 0 0-.066-.264l-1.104-.909a.207.207 0 0 1-.046-.255l.345-.596a.206.206 0 0 1 .244-.088l1.34.502a.242.242 0 0 0 .26-.075l.452-.59a.246.246 0 0 0 .004-.272l-.83-1.163a.207.207 0 0 1 .022-.258l.487-.488a.206.206 0 0 1 .258-.022l1.162.83a.243.243 0 0 0 .273-.004l.59-.453a.245.245 0 0 0 .074-.26l-.501-1.339a.206.206 0 0 1 .088-.243l.596-.345a.205.205 0 0 1 .255.046l.909 1.104a.24.24 0 0 0 .263.066l.687-.283a.246.246 0 0 0 .14-.234l-.139-1.423a.207.207 0 0 1 .148-.213l.666-.178a.205.205 0 0 1 .234.11l.592 1.302a.242.242 0 0 0 .238.133l.736-.098a.245.245 0 0 0 .195-.19l.235-1.41a.207.207 0 0 1 .198-.167h.688c.096 0 .183.075.198.167l.235 1.41a.241.241 0 0 0 .195.188l.737.096a.247.247 0 0 0 .238-.132l.591-1.3a.208.208 0 0 1 .234-.11l.666.178c.092.025.157.12.148.213l-.138 1.422a.242.242 0 0 0 .14.233l.686.286a.244.244 0 0 0 .264-.067l.909-1.104a.207.207 0 0 1 .255-.045l.596.344c.083.048.12.156.088.244zm-2.283 2.854a8.199 8.199 0 0 0-6.135-.85c-.386.097-.16.044-.16.044-.537.183-.752.738-.48 1.232 0 0-.157-.285.012.022l2.413 4.403c.364.663 1.273 1.19 2.03 1.174l5.35-.112c.33-.007 0 0 0 0 .548-.011.905-.473.785-.99a8.202 8.202 0 0 0-3.814-4.923zm-.134 14.318a8.2 8.2 0 0 0 3.889-4.822c.115-.381.044-.16.044-.16.12-.555-.245-1.024-.809-1.046l-.025-.001-5.016-.2c-.756-.03-1.675.479-2.052 1.137l-2.66 4.642c-.164.288 0 0 0 0-.272.476-.06 1.02.445 1.184 0 0-.319-.089 0 0a8.2 8.2 0 0 0 6.184-.734zm-9.733-1.31c.394.355.972.267 1.248-.208 0 0-.166.287 0 0l2.69-4.624c.38-.655.362-1.705-.042-2.345l-2.68-4.245c-.188-.296-.014-.021-.014-.021-.3-.477-.89-.558-1.31-.177 0 0 .156-.172-.117.119a8.203 8.203 0 0 0-2.23 5.778 8.199 8.199 0 0 0 2.456 5.722z" filter="url(#i)" opacity=".5"/><path class="shp86" d="m52.527 36.023-.501 1.34a.243.243 0 0 0 .074.26l.59.452a.246.246 0 0 0 .272.004l1.163-.83a.207.207 0 0 1 .259.022l.487.487a.206.206 0 0 1 .022.258l-.83 1.163a.243.243 0 0 0 .004.272l.453.59a.245.245 0 0 0 .26.074l1.339-.501a.206.206 0 0 1 .243.088l.345.596a.205.205 0 0 1-.046.255l-1.104.909a.242.242 0 0 0-.066.264l.283.686c.035.084.14.149.234.14l1.423-.138a.207.207 0 0 1 .213.147l.178.666a.205.205 0 0 1-.11.234l-1.302.592a.242.242 0 0 0-.132.238l.097.736c.011.09.097.18.19.196l1.41.234a.207.207 0 0 1 .167.198v.689a.205.205 0 0 1-.167.197l-1.409.235a.241.241 0 0 0-.189.195l-.096.737a.247.247 0 0 0 .132.238l1.3.592a.208.208 0 0 1 .11.234l-.178.665a.206.206 0 0 1-.213.148l-1.422-.138a.242.242 0 0 0-.233.14l-.285.687a.244.244 0 0 0 .066.263l1.104.909c.072.06.093.173.045.255l-.344.596a.206.206 0 0 1-.244.088l-1.34-.501a.243.243 0 0 0-.26.074l-.452.59a.246.246 0 0 0-.004.273l.83 1.163a.207.207 0 0 1-.022.258l-.487.487a.206.206 0 0 1-.258.022l-1.163-.83a.243.243 0 0 0-.272.004l-.59.453a.245.245 0 0 0-.075.261l.502 1.338a.206.206 0 0 1-.088.243l-.596.345a.205.205 0 0 1-.255-.046l-.91-1.104a.242.242 0 0 0-.263-.066l-.686.284a.246.246 0 0 0-.14.233l.138 1.423a.207.207 0 0 1-.147.214l-.666.178a.205.205 0 0 1-.234-.11l-.592-1.303a.242.242 0 0 0-.238-.132l-.736.097a.245.245 0 0 0-.196.19l-.234 1.41a.207.207 0 0 1-.198.167h-.689a.205.205 0 0 1-.197-.167l-.235-1.409a.241.241 0 0 0-.195-.189l-.737-.096a.247.247 0 0 0-.238.132l-.592 1.3a.208.208 0 0 1-.234.11l-.665-.178a.206.206 0 0 1-.148-.213l.138-1.422a.242.242 0 0 0-.14-.233l-.687-.285a.244.244 0 0 0-.263.066l-.91 1.104a.207.207 0 0 1-.254.046l-.596-.345a.206.206 0 0 1-.088-.244l.501-1.34a.243.243 0 0 0-.074-.26l-.59-.452a.246.246 0 0 0-.273-.004l-1.163.83a.207.207 0 0 1-.258-.021l-.487-.488a.206.206 0 0 1-.022-.258l.83-1.162a.243.243 0 0 0-.004-.272l-.453-.59a.245.245 0 0 0-.261-.075l-1.338.501a.206.206 0 0 1-.244-.088l-.344-.596a.205.205 0 0 1 .046-.255l1.104-.909a.242.242 0 0 0 .066-.263l-.284-.687a.246.246 0 0 0-.233-.14l-1.423.139a.207.207 0 0 1-.213-.148l-.179-.666a.205.205 0 0 1 .11-.234l1.303-.592a.242.242 0 0 0 .132-.238l-.097-.736a.245.245 0 0 0-.19-.195l-1.41-.235a.207.207 0 0 1-.167-.197v-.69c0-.095.075-.182.167-.197l1.409-.235a.241.241 0 0 0 .189-.195l.096-.737a.247.247 0 0 0-.132-.238l-1.3-.591a.208.208 0 0 1-.11-.234l.178-.666a.206.206 0 0 1 .213-.148l1.422.138a.242.242 0 0 0 .233-.14l.285-.686a.244.244 0 0 0-.066-.264l-1.104-.909a.207.207 0 0 1-.046-.255l.345-.596a.206.206 0 0 1 .244-.088l1.34.502a.242.242 0 0 0 .26-.075l.452-.59a.246.246 0 0 0 .004-.272l-.83-1.163a.207.207 0 0 1 .022-.258l.487-.488a.206.206 0 0 1 .258-.022l1.162.83a.243.243 0 0 0 .273-.004l.59-.453a.245.245 0 0 0 .074-.26l-.501-1.339a.206.206 0 0 1 .088-.243l.596-.345a.205.205 0 0 1 .255.046l.909 1.104a.24.24 0 0 0 .263.066l.687-.283a.246.246 0 0 0 .14-.234l-.139-1.423a.207.207 0 0 1 .148-.213l.666-.178a.205.205 0 0 1 .234.11l.592 1.302a.242.242 0 0 0 .238.133l.736-.098a.245.245 0 0 0 .195-.19l.235-1.41a.207.207 0 0 1 .198-.167h.688c.096 0 .183.075.198.167l.235 1.41a.241.241 0 0 0 .195.188l.737.096a.247.247 0 0 0 .238-.132l.591-1.3a.208.208 0 0 1 .234-.11l.666.178c.092.025.157.12.148.213l-.138 1.422a.242.242 0 0 0 .14.233l.686.286a.244.244 0 0 0 .264-.067l.909-1.104a.207.207 0 0 1 .255-.045l.596.344c.083.048.12.156.088.244zm-2.283 2.854a8.199 8.199 0 0 0-6.135-.85c-.386.097-.16.044-.16.044-.537.183-.752.738-.48 1.232 0 0-.157-.285.012.022l2.413 4.403c.364.663 1.273 1.19 2.03 1.174l5.35-.112c.33-.007 0 0 0 0 .548-.011.905-.473.785-.99a8.202 8.202 0 0 0-3.814-4.923zm-.134 14.318a8.2 8.2 0 0 0 3.889-4.822c.115-.381.044-.16.044-.16.12-.555-.245-1.024-.809-1.046l-.025-.001-5.016-.2c-.756-.03-1.675.479-2.052 1.137l-2.66 4.642c-.164.288 0 0 0 0-.272.476-.06 1.02.445 1.184 0 0-.319-.089 0 0a8.2 8.2 0 0 0 6.184-.734zm-9.733-1.31c.394.355.972.267 1.248-.208 0 0-.166.287 0 0l2.69-4.624c.38-.655.362-1.705-.042-2.345l-2.68-4.245c-.188-.296-.014-.021-.014-.021-.3-.477-.89-.558-1.31-.177 0 0 .156-.172-.117.119a8.203 8.203 0 0 0-2.23 5.778 8.199 8.199 0 0 0 2.456 5.722z" fill="url(#j)"/></svg>