<svg xmlns="http://www.w3.org/2000/svg" width="64" height="64" enable-background="new 0 0 1024 1024" image-rendering="optimizeSpeed"><defs><linearGradient id="c" x1="32" x2="32" y1="28.161" y2="47.489" gradientTransform="translate(1.508 -3.506)" gradientUnits="userSpaceOnUse"><stop offset="0" stop-color="#60c0f4"/><stop offset="1" stop-color="#b9e9ff"/></linearGradient><linearGradient id="a" x1="7.937" x2="7.937" y1="15.081" y2="1.852" gradientTransform="translate(0 .032)scale(3.7795)" gradientUnits="userSpaceOnUse"><stop offset="0" stop-color="#1357d7"/><stop offset="1" stop-color="#20b9fa"/></linearGradient><linearGradient id="f" x1="30" x2="30" y1="15" y2="12" gradientUnits="userSpaceOnUse"><stop offset="0" stop-color="#1aa885"/><stop offset=".677" stop-color="#1bc6a0"/><stop offset="1" stop-color="#1bc6a0"/></linearGradient><linearGradient id="e" x1="30" x2="30" y1="12" y2="9" gradientUnits="userSpaceOnUse"><stop offset="0" stop-color="#7c4493"/><stop offset=".684" stop-color="#9656b1"/><stop offset="1" stop-color="#9656b1"/></linearGradient><linearGradient id="d" x1="31" x2="31" y1="9" y2="6" gradientUnits="userSpaceOnUse"><stop offset="0" stop-color="#bc2f3c"/><stop offset=".667" stop-color="#d94451" stop-opacity=".957"/><stop offset="1" stop-color="#d94451" stop-opacity=".937"/></linearGradient><filter id="b" width="1.137" height="1.107" x="-.068" y="-.053" color-interpolation-filters="sRGB"><feGaussianBlur stdDeviation=".43"/></filter></defs><g color="#000" image-rendering="auto"><path d="M4.37.53C2.254.53.53 2.312.53 4.496v8.468c0 2.184 1.725 3.968 3.84 3.968h8.194c2.114 0 3.84-1.783 3.84-3.968V4.497c0-2.184-1.726-3.968-3.84-3.968zm.256.52h7.681c1.844 0 3.33 1.534 3.33 3.44v7.937c0 1.906-1.485 3.44-3.33 3.44h-7.68c-1.845 0-3.33-1.534-3.33-3.44V4.49c0-1.906 1.485-3.44 3.33-3.44z" enable-background="accumulate" opacity=".01" style="font-feature-settings:normal;font-variant-alternates:normal;font-variant-caps:normal;font-variant-east-asian:normal;font-variant-ligatures:normal;font-variant-numeric:normal;font-variant-position:normal;font-variation-settings:normal;inline-size:0;isolation:auto;mix-blend-mode:normal;shape-margin:0;shape-padding:0;text-decoration-color:#000;text-decoration-line:none;text-decoration-style:solid;text-indent:0;text-orientation:mixed;text-transform:none;white-space:normal" transform="scale(3.7796)"/><path d="M4.359.794C2.392.794.795 2.447.795 4.48v8.5c0 2.035 1.597 3.688 3.564 3.688h8.216c1.967 0 3.564-1.653 3.564-3.688v-8.5c0-2.034-1.597-3.687-3.564-3.687zm.272.256h7.672c1.842 0 3.325 1.534 3.325 3.44v7.937c0 1.906-1.483 3.44-3.325 3.44H4.63c-1.842 0-3.325-1.534-3.325-3.44V4.49c0-1.906 1.483-3.44 3.325-3.44z" enable-background="accumulate" opacity=".01" style="font-feature-settings:normal;font-variant-alternates:normal;font-variant-caps:normal;font-variant-east-asian:normal;font-variant-ligatures:normal;font-variant-numeric:normal;font-variant-position:normal;font-variation-settings:normal;inline-size:0;isolation:auto;mix-blend-mode:normal;shape-margin:0;shape-padding:0;text-decoration-color:#000;text-decoration-line:none;text-decoration-style:solid;text-indent:0;text-orientation:mixed;text-transform:none;white-space:normal" transform="scale(3.7796)"/><path d="M4.31 1.058c-1.866 0-3.375 1.539-3.375 3.44v8.467c0 1.9 1.57 3.439 3.435 3.439h8.2c1.866 0 3.427-1.538 3.427-3.44V4.498c0-1.9-1.51-3.439-3.375-3.439h-.097c1.794.087 3.214 1.582 3.214 3.432v7.937c0 1.906-1.506 3.44-3.377 3.44h-7.79c-1.871 0-3.377-1.534-3.377-3.44V4.49c0-1.85 1.42-3.345 3.214-3.432z" enable-background="accumulate" opacity=".03" style="font-feature-settings:normal;font-variant-alternates:normal;font-variant-caps:normal;font-variant-east-asian:normal;font-variant-ligatures:normal;font-variant-numeric:normal;font-variant-position:normal;font-variation-settings:normal;inline-size:0;isolation:auto;mix-blend-mode:normal;shape-margin:0;shape-padding:0;text-decoration-color:#000;text-decoration-line:none;text-decoration-style:solid;text-indent:0;text-orientation:mixed;text-transform:none;white-space:normal" transform="scale(3.7796)"/><path d="M4 46.969V49c0 6.648 5.896 12 12.544 12h30.961C54.153 61 60 55.648 60 49v-1.992a12.97 12.97 0 0 1-13 12.963H17.002A12.973 12.973 0 0 1 4 46.969" enable-background="accumulate" opacity=".03" style="font-feature-settings:normal;font-variant-alternates:normal;font-variant-caps:normal;font-variant-east-asian:normal;font-variant-ligatures:normal;font-variant-numeric:normal;font-variant-position:normal;font-variation-settings:normal;inline-size:0;isolation:auto;mix-blend-mode:normal;shape-margin:0;shape-padding:0;text-decoration-color:#000;text-decoration-line:none;text-decoration-style:solid;text-indent:0;text-orientation:mixed;text-transform:none;white-space:normal"/><path d="M1.058 11.906v.592c0 1.939 1.573 3.5 3.332 3.5h8.16c1.76 0 3.325-1.561 3.325-3.5v-.58c-.006 2.095-1.537 3.78-3.44 3.78H4.498c-1.905 0-3.44-1.692-3.44-3.792" enable-background="accumulate" opacity=".05" style="font-feature-settings:normal;font-variant-alternates:normal;font-variant-caps:normal;font-variant-east-asian:normal;font-variant-ligatures:normal;font-variant-numeric:normal;font-variant-position:normal;font-variation-settings:normal;inline-size:0;isolation:auto;mix-blend-mode:normal;shape-margin:0;shape-padding:0;text-decoration-color:#000;text-decoration-line:none;text-decoration-style:solid;text-indent:0;text-orientation:mixed;text-transform:none;white-space:normal" transform="scale(3.7796)"/></g><rect width="56" height="56" x="4" y="4" fill="url(#a)" rx="13.002" ry="13.002"/><path d="M29 25q-.606-.421-1.332-.33a1.88 1.88 0 0 0-1.212.639 1.87 1.87 0 0 0-.49 1.284v15.451q0 .736.49 1.285a1.88 1.88 0 0 0 1.212.638q.726.089 1.332-.33l11.209-7.725q.535-.37.738-.979.206-.616 0-1.224a1.93 1.93 0 0 0-.734-.983z" filter="url(#b)" opacity=".15"/><path fill="url(#c)" d="M29 25q-.606-.421-1.332-.33a1.88 1.88 0 0 0-1.212.639 1.87 1.87 0 0 0-.49 1.284v15.451q0 .736.49 1.285a1.88 1.88 0 0 0 1.212.638q.726.089 1.332-.33l11.209-7.725q.535-.37.738-.979.206-.616 0-1.224a1.93 1.93 0 0 0-.734-.983z"/><g stroke-linecap="round" stroke-linejoin="round"><path fill="url(#d)" d="M17 6a10.95 10.95 0 0 0-7.549 3H54.55A10.95 10.95 0 0 0 47 6z"/><path fill="url(#e)" d="M9.451 9a11 11 0 0 0-2.248 3h49.594a11 11 0 0 0-2.248-3z"/><path fill="url(#f)" d="M7.203 12a11 11 0 0 0-1.014 3H57.81a11 11 0 0 0-1.013-3z"/></g></svg>