<svg width="64" height="64" version="1.1" xmlns="http://www.w3.org/2000/svg" xmlns:xlink="http://www.w3.org/1999/xlink">
 <defs>
  <linearGradient id="n" x1="116.06" x2="122.28" y1="1028.8" y2="1029.8" gradientTransform="matrix(.41301 0 0 .41326 -92.909 -355.36)" gradientUnits="userSpaceOnUse">
   <stop stop-color="#f6fcfe" offset="0"/>
   <stop stop-color="#bbe4fd" offset="1"/>
  </linearGradient>
  <clipPath id="h">
   <path d="m115.75 1038.9s-0.35908 1.8451-0.14364 1.8838c0.21545 0.039 1.6628-0.3094 2.5356 0.7513l1.37-1.6408s-1.9004-2.0992-3.762-0.9943z" fill="url(#linearGradient4751)" fill-rule="evenodd"/>
  </clipPath>
  <filter id="f" x="-.034175" y="-.10528" width="1.0683" height="1.2106" color-interpolation-filters="sRGB">
   <feGaussianBlur stdDeviation="0.062288295"/>
  </filter>
  <linearGradient id="m" x1="115.58" x2="118.57" y1="1040" y2="1041.1" gradientTransform="matrix(.41301 0 0 .41326 -92.909 -355.36)" gradientUnits="userSpaceOnUse">
   <stop stop-color="#ebf8fe" offset="0"/>
   <stop stop-color="#d0ecfd" offset=".29501"/>
   <stop stop-color="#c6e0f0" offset=".6013"/>
   <stop stop-color="#959295" offset=".78217"/>
   <stop stop-color="#a29a9a" offset="1"/>
  </linearGradient>
  <radialGradient id="k" cx="117.11" cy="1040.7" r="1.2493" gradientTransform="matrix(-.4293 -.097746 .11661 -.51275 -115.68 619.89)" gradientUnits="userSpaceOnUse">
   <stop stop-color="#666665" offset="0"/>
   <stop stop-color="#3c3c3b" offset=".64065"/>
   <stop stop-color="#1b1b1a" offset="1"/>
  </radialGradient>
  <linearGradient id="r" x1="145.37" x2="163.05" y1="917.37" y2="866.28" gradientTransform="matrix(.41301 0 0 .41326 -92.909 -355.36)" gradientUnits="userSpaceOnUse">
   <stop stop-color="#abd7f8" offset="0"/>
   <stop stop-color="#d7ecff" offset="1"/>
  </linearGradient>
  <linearGradient id="p" x1="146.25" x2="165.3" y1="918.91" y2="867.79" gradientTransform="matrix(.41301 0 0 .41326 -92.909 -355.36)" gradientUnits="userSpaceOnUse">
   <stop stop-color="#bba598" offset="0"/>
   <stop stop-color="#8a8684" offset="1"/>
  </linearGradient>
  <filter id="d" x="-.033307" y="-.013487" width="1.0666" height="1.027" color-interpolation-filters="sRGB">
   <feGaussianBlur stdDeviation="0.29732467"/>
  </filter>
  <linearGradient id="o" x1="120.96" x2="137.13" y1="1000.2" y2="1005.5" gradientTransform="matrix(.41301 0 0 .41326 -92.909 -355.36)" gradientUnits="userSpaceOnUse">
   <stop stop-color="#414140" offset="0"/>
   <stop stop-color="#575756" offset=".10376"/>
   <stop stop-color="#777776" offset=".20171"/>
   <stop stop-color="#666665" offset=".36506"/>
   <stop stop-color="#3c3c3b" offset=".64065"/>
   <stop stop-color="#1b1b1a" offset="1"/>
  </linearGradient>
  <linearGradient id="t" x1="133.66" x2="150.29" y1="957.17" y2="962.3" gradientTransform="matrix(.41301 0 0 .41326 -92.909 -355.36)" gradientUnits="userSpaceOnUse" xlink:href="#a"/>
  <linearGradient id="a">
   <stop stop-color="#d1831c" offset="0"/>
   <stop stop-color="#eda223" offset=".10491"/>
   <stop stop-color="#fdc752" offset=".15981"/>
   <stop stop-color="#feec90" offset=".2573"/>
   <stop stop-color="#ffb942" offset=".48922"/>
   <stop stop-color="#f7921d" offset=".7077"/>
   <stop stop-color="#df761a" offset=".80256"/>
   <stop stop-color="#dc7e29" offset=".81975"/>
   <stop stop-color="#bc641b" offset=".92469"/>
   <stop stop-color="#a1714e" offset="1"/>
  </linearGradient>
  <clipPath id="g">
   <path d="m141.32 79.757c-1.6842-1.8753-0.92538-2.7831-0.24207-4.6873 0.30465-0.84892 21.799-64.477 22.057-65.379 0.2577-0.90193 2.1681-1.6753 3.7366-1.8683 1.7452-0.21475 3.7688-0.16106 6.9255 0.99856 3.2212 1.4817 5.7981 4.0909 5.476 5.5404-0.77371 3.4817-18.033 66.637-19.772 69.664-1.7394 3.0279-18.181-4.2689-18.181-4.2689z" fill="url(#linearGradient5611)" fill-rule="evenodd"/>
  </clipPath>
  <filter id="e" x="-.020646" y="-.011055" width="1.0413" height="1.0221" color-interpolation-filters="sRGB">
   <feGaussianBlur stdDeviation="0.3589041"/>
  </filter>
  <linearGradient id="s" x1="116.8" x2="178.61" y1="987.22" y2="938.4" gradientTransform="matrix(.41301 0 0 .41326 -85.426 -380.2)" gradientUnits="userSpaceOnUse" xlink:href="#a"/>
  <linearGradient id="l" x1="76.69" x2="77.545" y1="948.9" y2="952.62" gradientUnits="userSpaceOnUse">
   <stop stop-color="#c68c06" offset="0"/>
   <stop stop-color="#c68c06" stop-opacity="0" offset="1"/>
  </linearGradient>
  <clipPath id="ac">
   <path d="m75.437 949.78c-2.2031 0.26562-1.9062-0.0625-1.9688-0.26563-0.0625-0.20312 0.09375-0.92187 0.75-1.2344s2.4062-0.78125 3.2969-0.875c0.89062-0.0937 1.0312-0.0937 2.0625 0.59375 1.0312 0.6875 0.67188 0.96875 0.09375 0.98437-0.57812 0.0156-1.6406 0.42188-1.7656 0.875-0.125 0.45313-0.28125 1.0312-0.0625 2.1875s1.5156 5.8594 1.5156 5.8594l-1.6094 0.34375s-0.45312-4.8125-1.0781-6.3906c-0.625-1.5781-1.2344-2.0781-1.2344-2.0781z" fill="url(#linearGradient5819)" fill-rule="evenodd"/>
  </clipPath>
  <filter id="w" x="-.050391" y="-.090748" width="1.1008" height="1.1815" color-interpolation-filters="sRGB">
   <feGaussianBlur stdDeviation="0.21226"/>
  </filter>
  <linearGradient id="q" x1="77.128" x2="78.123" y1="953.29" y2="953.18" gradientTransform="matrix(.40795 .064479 -.064518 .40819 52.113 -357.32)" gradientUnits="userSpaceOnUse">
   <stop stop-color="#3e640d" offset="0"/>
   <stop stop-color="#23560f" offset="1"/>
  </linearGradient>
  <clipPath id="af">
   <path d="m76.544 948.33s-1.1932-2.0771-2.2097-3.4472-4.9497-7.1594-5.8778-9.3692c-0.92808-2.2097-2.2539-6.364-1.9004-7.1153 0.35355-0.7513 0.92808-1.1048 0.92808-1.1048s-0.70711-0.92808-0.35355-1.1048c0.35355-0.17678 1.0165-0.30936 1.0165-0.57453 0-0.26516-0.39775-0.7513 0-1.0165 0.39775-0.26517 2.4307-1.5468 2.4307-1.5468s-2.5191-2.3423-3.5355-2.74-1.5026-0.53033-2.6516 0.0442-1.6352-0.13258-2.5633 0.17678c-0.92808 0.30936-1.9887 0.97227-2.1655 1.2816-3.0494 1.4584-2.8284 1.8562-2.8284 2.1655 0 0-2.6516 0.61872 0.17678 3.182s5.3475 6.2314 6.2314 7.7782c0.88388 1.5468 3.7565 5.8336 4.4194 6.7617 0.66291 0.92808 2.1213 3.6239 6.5407 6.364s2.3423 0.26517 2.3423 0.26517z" fill="#fe7612" fill-rule="evenodd"/>
  </clipPath>
  <filter id="z" x="-.038" y="-.028239" width="1.076" height="1.0565" color-interpolation-filters="sRGB">
   <feGaussianBlur stdDeviation="0.39155504"/>
  </filter>
  <linearGradient id="u" x1="57.541" x2="62.633" y1="937.89" y2="936.89" gradientTransform="matrix(.40795 .064479 -.064518 .40819 52.113 -357.32)" gradientUnits="userSpaceOnUse">
   <stop stop-color="#fcca46" offset="0"/>
   <stop stop-color="#fda324" offset=".62984"/>
   <stop stop-color="#ef8418" offset="1"/>
  </linearGradient>
  <clipPath id="ad">
   <path d="m79.55 96.011c-0.04419-1.1048-0.39775-0.7513 0.35355-1.2374 0.7513-0.48613 2.0329-1.6352 2.6075-2.5633 0.57452-0.92808 0.7955-1.6794 0.7955-1.6794l0.04419-4.6404s0.08839-2.6958 1.1932-3.1378c0 0 0.92808-2.6958 2.6958-4.331 0 0 1.0607-2.6958 1.9003-3.8007 0.83969-1.1048 1.9004-2.1213 1.9445-3.3146 0.04419-1.1932 0-1.5468-1.0165-1.812-1.0165-0.26517-2.2539-0.44194-2.6958-1.3258-2.6958 0.0884-2.7842-0.7071-5.5243 0.92808-0.7955 0.53033-0.61872-0.44194-1.591-0.39775-0.97227 0.0442-2.1655-0.17677-2.6075 0.13259-0.44194 0.30935-0.70711 0.30935-0.97227-0.0884s-2.4749-0.13259-3.4471 0.44194c-0.97227 0.57452-1.4584 0.66291-1.4584 1.0607-3.0494 1.1049-7.4246 3.1378-7.4246 3.1378l11.004 22.804z" fill="#ff8616" fill-rule="evenodd"/>
  </clipPath>
  <filter id="y" x="-.055845" y="-.02282" width="1.1117" height="1.0456" color-interpolation-filters="sRGB">
   <feGaussianBlur stdDeviation="0.26431787"/>
  </filter>
  <clipPath id="ae">
   <path d="m79.55 948.37c-0.04419-1.1048-0.39775-0.7513 0.35355-1.2374 0.7513-0.48613 2.0329-1.6352 2.6075-2.5633 0.57452-0.92808 0.7955-1.6794 0.7955-1.6794l0.04419-4.6404s0.08839-2.6958 1.1932-3.1378c0 0 0.92808-2.6958 2.6958-4.331 0 0 1.0607-2.6958 1.9003-3.8007 0.83969-1.1048 1.9004-2.1213 1.9445-3.3146 0.04419-1.1932 0-1.5468-1.0165-1.812-1.0165-0.26517-2.2539-0.44194-2.6958-1.3258-2.6958 0.0884-2.7842-0.7071-5.5243 0.92808-0.7955 0.53033-0.61872-0.44194-1.591-0.39775-0.97227 0.0442-2.1655-0.17677-2.6075 0.13259-0.44194 0.30935-0.70711 0.30935-0.97227-0.0884s-2.4749-0.13259-3.4471 0.44194c-0.97227 0.57452-1.4584 0.66291-1.4584 1.0607-3.0494 1.1049-7.4246 3.1378-7.4246 3.1378l11.004 22.804z" fill="#ff8616" fill-rule="evenodd"/>
  </clipPath>
  <filter id="x" x="-.092536" y="-.094688" width="1.1851" height="1.1894" color-interpolation-filters="sRGB">
   <feGaussianBlur stdDeviation="1.3495574"/>
  </filter>
  <clipPath id="ag">
   <path d="m60.187 83.594 2.6875-0.15625 2.125 0.96875 9.4375 10.719-0.96875 0.375-0.8125-0.1875-2.0938-1.0312-1.875-1.7812-2-2.9688-1.25-1.4688-3.2188-2.6875z" fill="#ffe239" fill-rule="evenodd"/>
  </clipPath>
  <filter id="aa" x="-.048819" y="-.14623" width="1.0976" height="1.2925" color-interpolation-filters="sRGB">
   <feGaussianBlur stdDeviation="0.20463321"/>
  </filter>
  <radialGradient id="i" cx="81.462" cy="922.53" r="2.9211" gradientTransform="matrix(.43351 .052044 -.046297 .38549 33.43 -335.68)" gradientUnits="userSpaceOnUse">
   <stop stop-color="#e46810" offset="0"/>
   <stop stop-color="#fdbb1c" offset="1"/>
  </radialGradient>
  <radialGradient id="j" cx="77.813" cy="951.01" r="33.438" gradientTransform="matrix(.35967 -.0040157 .0048504 .44233 -9.8937 -385.77)" gradientUnits="userSpaceOnUse">
   <stop stop-color="#1ac9fd" offset="0"/>
   <stop stop-color="#1c7cf4" offset="1"/>
  </radialGradient>
  <filter id="ab" x="-.075488" y="-.049785" width="1.151" height="1.0996" color-interpolation-filters="sRGB">
   <feGaussianBlur stdDeviation="1.3947309"/>
  </filter>
  <linearGradient id="linearGradient862-3" x1="7.9373" x2="7.9373" y1="15.081" y2="1.852" gradientTransform="matrix(3.7795 0 0 3.7795 .00014309 .031541)" gradientUnits="userSpaceOnUse">
   <stop stop-color="#f1efeb" offset="0"/>
   <stop stop-color="#fdfcfc" offset="1"/>
  </linearGradient>
  <linearGradient id="linearGradient1570" x1="30" x2="30" y1="18" y2="5" gradientUnits="userSpaceOnUse">
   <stop stop-color="#ffa120" offset="0"/>
   <stop stop-color="#ffbe66" offset="1"/>
  </linearGradient>
 </defs>
 <g transform="scale(3.7796)" shape-rendering="auto">
  <path d="m4.3693 0.52916c-2.1142 0-3.8402 1.7835-3.8402 3.9682v8.4675c0 2.1846 1.726 3.9682 3.8402 3.9682h8.1944c2.1142 0 3.8402-1.7835 3.8402-3.9682v-8.4675c0-2.1846-1.726-3.9682-3.8402-3.9682zm0.25704 0.52089h7.6808c1.8443 0 3.3291 1.5342 3.3291 3.44v7.9368c0 1.9058-1.4847 3.44-3.3291 3.44h-7.6808c-1.8443 0-3.3291-1.5342-3.3291-3.44v-7.9368c0-1.9058 1.4847-3.44 3.3291-3.44z" color="#000000" color-rendering="auto" dominant-baseline="auto" image-rendering="auto" opacity=".01" solid-color="#000000" stop-color="#000000" style="font-feature-settings:normal;font-variant-alternates:normal;font-variant-caps:normal;font-variant-east-asian:normal;font-variant-ligatures:normal;font-variant-numeric:normal;font-variant-position:normal;font-variation-settings:normal;inline-size:0;isolation:auto;mix-blend-mode:normal;shape-margin:0;shape-padding:0;text-decoration-color:#000000;text-decoration-line:none;text-decoration-style:solid;text-indent:0;text-orientation:mixed;text-transform:none;white-space:normal"/>
  <path d="m4.3587 0.79373c-1.9668 0-3.5639 1.6528-3.5639 3.6876v8.4996c0 2.0348 1.5971 3.6876 3.5639 3.6876h8.2162c1.9668 0 3.5644-1.6528 3.5644-3.6876v-8.4996c0-2.0348-1.5976-3.6876-3.5644-3.6876zm0.27222 0.25631h7.6718c1.8422 0 3.3251 1.5342 3.3251 3.44v7.9368c0 1.9058-1.483 3.44-3.3251 3.44h-7.6718c-1.8422 0-3.3251-1.5342-3.3251-3.44v-7.9368c0-1.9058 1.483-3.44 3.3251-3.44z" color="#000000" color-rendering="auto" dominant-baseline="auto" image-rendering="auto" opacity=".01" solid-color="#000000" stop-color="#000000" style="font-feature-settings:normal;font-variant-alternates:normal;font-variant-caps:normal;font-variant-east-asian:normal;font-variant-ligatures:normal;font-variant-numeric:normal;font-variant-position:normal;font-variation-settings:normal;inline-size:0;isolation:auto;mix-blend-mode:normal;shape-margin:0;shape-padding:0;text-decoration-color:#000000;text-decoration-line:none;text-decoration-style:solid;text-indent:0;text-orientation:mixed;text-transform:none;white-space:normal"/>
  <g>
   <path d="m4.3097 1.0583c-1.8657 0-3.3751 1.5383-3.3751 3.439v8.4675c0 1.9007 1.57 3.439 3.4357 3.439h8.1996c1.8657 0 3.4274-1.5383 3.4274-3.439v-8.4675c0-1.9007-1.51-3.439-3.3756-3.439h-0.09688c1.794 0.086515 3.2138 1.5819 3.2138 3.4318v7.9368c0 1.9058-1.5059 3.44-3.3766 3.44h-7.7905c-1.8707 0-3.3766-1.5342-3.3766-3.44v-7.9368c0-1.8498 1.4199-3.3451 3.2138-3.4318z" color="#000000" color-rendering="auto" dominant-baseline="auto" image-rendering="auto" opacity=".03" solid-color="#000000" stop-color="#000000" style="font-feature-settings:normal;font-variant-alternates:normal;font-variant-caps:normal;font-variant-east-asian:normal;font-variant-ligatures:normal;font-variant-numeric:normal;font-variant-position:normal;font-variation-settings:normal;inline-size:0;isolation:auto;mix-blend-mode:normal;shape-margin:0;shape-padding:0;text-decoration-color:#000000;text-decoration-line:none;text-decoration-style:solid;text-indent:0;text-orientation:mixed;text-transform:none;white-space:normal"/>
   <path transform="scale(.26458)" d="m4 46.969v2.0312c0 6.6479 5.8957 12 12.544 12h30.961c6.6479 0 12.495-5.3521 12.495-12v-1.9922c-0.021173 7.1849-5.81 12.963-13 12.963h-29.998c-7.2032 0-13.002-5.7987-13.002-13.002z" color="#000000" color-rendering="auto" dominant-baseline="auto" image-rendering="auto" opacity=".03" solid-color="#000000" stop-color="#000000" style="font-feature-settings:normal;font-variant-alternates:normal;font-variant-caps:normal;font-variant-east-asian:normal;font-variant-ligatures:normal;font-variant-numeric:normal;font-variant-position:normal;font-variation-settings:normal;inline-size:0;isolation:auto;mix-blend-mode:normal;shape-margin:0;shape-padding:0;text-decoration-color:#000000;text-decoration-line:none;text-decoration-style:solid;text-indent:0;text-orientation:mixed;text-transform:none;white-space:normal"/>
   <path d="m1.0583 11.906v0.59234c0 1.9386 1.5729 3.4993 3.3318 3.4993h8.1603c1.7589 0 3.3243-1.5608 3.3243-3.4993v-0.58095c-0.0056 2.0952-1.5372 3.7801-3.4395 3.7801h-7.9368c-1.9058 0-3.44-1.691-3.44-3.7915z" color="#000000" color-rendering="auto" dominant-baseline="auto" image-rendering="auto" opacity=".05" solid-color="#000000" stop-color="#000000" style="font-feature-settings:normal;font-variant-alternates:normal;font-variant-caps:normal;font-variant-east-asian:normal;font-variant-ligatures:normal;font-variant-numeric:normal;font-variant-position:normal;font-variation-settings:normal;inline-size:0;isolation:auto;mix-blend-mode:normal;shape-margin:0;shape-padding:0;text-decoration-color:#000000;text-decoration-line:none;text-decoration-style:solid;text-indent:0;text-orientation:mixed;text-transform:none;white-space:normal"/>
  </g>
 </g>
 <rect x="4" y="4" width="56" height="56" rx="13.002" ry="13.002" fill="url(#linearGradient862-3)" stroke-width="3.7795"/>
 <g transform="translate(-1,1)" fill-rule="evenodd">
  <path d="m9 21h25v17h-25z" fill="url(#j)"/>
  <path d="m23.953 34.046c1.2361-0.87676 1.0272-0.72763 1.3546-1.1688l0.32334-0.43569s2.261-4.2187 2.2685-4.5968c0.0074-0.37798-2.2115-0.55879-2.2115-0.55879s-2.346 6.245-1.7349 6.7599z" fill="#d3510a"/>
  <path d="m24.479 24.1c1.1596-1.3337 2.6137-1.6152 2.8223-0.12843 0.15451 1.1019-2.2825 0.80542-2.8223 0.12843z" fill="url(#i)" opacity=".99"/>
  <path d="m23.378 34.928c0.05317-0.45384-0.11378-0.33233 0.224-0.48233 0.33785-0.14997 0.93482-0.53636 1.2291-0.87818 0.29425-0.3418 0.43286-0.63421 0.43286-0.63421l0.31751-1.8913s0.21001-1.0947 0.68922-1.2039c0 0 0.55253-1.0406 1.3792-1.594 0 0 0.60663-1.032 1.0205-1.4289 0.41383-0.39684 0.91212-0.74334 1.0071-1.2276 0.0951-0.48422 0.0998-0.63139-0.29776-0.80518-0.39755-0.17381-0.89098-0.32562-1.0142-0.715-1.1054-0.13781-1.0902-0.46818-2.3135 0.02261-0.35874 0.16524-0.2239-0.22019-0.62336-0.26499-0.39953-0.04434-0.87199-0.21188-1.0723-0.11399-0.20026 0.0979-0.30843 0.0808-0.39093-0.0987-0.08258-0.17951-1.001-0.21371-1.4347-0.04198-0.4337 0.17181-0.63772 0.17656-0.66338 0.33892-1.3152 0.25438-3.2312 0.80207-3.2312 0.80207l3.0179 10.018z" fill="#ff8616"/>
  <path d="m16.28 28.611 1.1065 0.10953 0.80438 0.53245 3.1585 4.9838-0.41938 0.09054-0.31936-0.129-0.7876-0.55596-0.64997-0.84798-0.62435-1.3408-0.41516-0.68016-1.1397-1.3045z" fill="#ffe239"/>
  <path transform="matrix(.40795 .064479 -.064518 .40819 -2.8801 -9.3927)" d="m63.206 81.847-4.9401 0.17639c0.11695 0.07666 2.2666 1.727 2.6106 1.813 1.7457 0.0221 3.0717 0.30979 1.6133 0.61914-1.4584 0.30936-0.30859 0.75-0.30859 0.75l3.0273-0.33008 3.1174-0.95343-1.0504-1.3715z" clip-path="url(#ag)" fill="#feffbf" filter="url(#aa)"/>
  <path transform="matrix(.40795 .064479 -.064518 .40819 52.113 -357.32)" d="m67.131 922.87 4.5078 8.6621 3.403 2.8284-2.4749-3.2704-0.88388-9.0598 1.149 1.9004 0.30936-3.8007 3.6239 2.2981 3.2262-0.92807 1.0165 2.8726 2.3865-3.3588 1.5026-3.9333 3.403 5.3917 2.4307-4.0659 9.8995 7.3804-13.126 19.048-12.816-0.61872 0.7513 3.6239 16.838 2.74 9.8553-25.633-13.081-8.5737-13.965 0.53033z" clip-path="url(#ae)" fill="#fdc91c" filter="url(#x)"/>
  <path transform="matrix(.40795 .064479 -.064518 .40819 -2.8801 -9.3927)" d="m71.594 68.654 0.39844 3.8906 0.57422-0.66406zm11.359 0.75195-1.1934 6.3203 0.83984-0.17773zm-4.7734 21.17v1.0605l-0.66406 0.2207-0.70703-0.75195 0.61914 3.0059-2.2969-1.0176-0.17773 3.3594 4.9941-0.17773 0.92773-1.9434 1.1484-2.4746-1.4141 1.457-0.79492 0.13281-0.2207-1.3262-0.53125 2.4316-1.2812-0.61914-0.13281-1.9883 0.53125-0.17773 0.08789 0.97266 0.35352-0.17578v-1.6797z" clip-path="url(#ad)" fill="#d1520b" filter="url(#y)"/>
  <path d="m21.728 34.26c0.41317-1.5618 1.2005-4.3219 0.92544-4.9202-0.27504-0.59816-0.96675-0.78146-1.3869-1.5136-0.42019-0.73206-1.9758-3.0489-1.9758-3.0489l-1.1856 1.4212s3.1352 7.5219 3.6228 8.0612z" fill="#f3620e"/>
  <path d="m21.536 34.541-0.80711-0.34975s-0.61452-0.41093-0.68965-0.51434c-0.07518-0.10334-0.63261-0.54451-0.63593-0.68888-0.0032-0.1444-0.47-1.4079-0.73629-1.7899-0.26629-0.38196-1.4945-1.8706-1.7239-2.1553-0.2294-0.28466-0.92637-0.91782-1.2451-0.9682-0.24404-0.02682-0.24833 0.24841-0.42681 0.2202l-0.19122-0.03022s-0.26952-0.03085-0.16432 0.13085c0.10532 0.16053 0.15155 0.36387 0.38707 0.36189 0.23553-2e-3 0.37711-0.07112 0.75749 0.25045 0.38036 0.32161 1.127 0.80571 1.4771 1.3187 0.35012 0.51296 0.70102 0.60764 1.3159 2.0908 0.61492 1.4831 2.9027 2.7992 2.6827 2.1238z" fill="url(#u)"/>
  <path d="m22.154 34.715s-0.35276-0.92481-0.67903-1.5496c-0.32627-0.62477-1.5573-3.2416-1.7933-4.2034-0.23603-0.96183-0.50887-2.7431-0.31616-3.027 0.19263-0.2839 0.44988-0.39116 0.44988-0.39116s-0.22857-0.42441-0.07288-0.47377c0.15558-0.04947 0.43464-0.06085 0.45173-0.16898 0.01711-0.10827-0.11379-0.3323 0.06558-0.4149 0.17939-0.08262 1.0914-0.47468 1.0914-0.47468s-0.87652-1.1185-1.2655-1.3464c-0.38899-0.22794-0.57874-0.31342-1.0847-0.15263-0.50582 0.16043-0.6585-0.15957-1.0571-0.09303-0.39854 0.06631-0.87402 0.26864-0.96608 0.38352-1.3381 0.39869-1.2736 0.57528-1.2936 0.70158 0 0-1.1217 0.08156-0.13316 1.3103 0.9885 1.2287 1.7795 2.8884 2.0402 3.5768 0.26078 0.68838 1.1561 2.6235 1.3667 3.045 0.21054 0.42159 0.63156 1.616 2.2577 3.0195 1.6261 1.4034 0.9384 0.25929 0.9384 0.25929z" fill="#fe7612"/>
  <path transform="matrix(.40795 .064479 -.064518 .40819 52.113 -357.32)" d="m56.127 921.28 3.7565 5.3917-2.6958-5.3033 3.6681 1.4584-0.7513-3.4913 3.5355 3.6681-2.2981-5.922 5.1707 8.5737 0.08839-8.2201 6.6291 2.2539s2.9168 20.594 1.149 22.097-1.37 2.8726-0.7955 3.5797c0.57452 0.7071 0.57452 0.7071 0.57452 0.7071l-0.08839 0.75131 3.0936 1.9445 2.2097-29.654-12.153-3.6239s-6.364 0.22097-10.562 1.5468c-4.1984 1.3258-0.53033 4.2426-0.53033 4.2426z" clip-path="url(#af)" fill="#fdbb1c" filter="url(#z)"/>
  <path d="m22.838 34.421c-0.06322-9e-3 -0.13569-0.01436-0.2284-0.01729-0.36937-0.01912-1.1135 0.05934-1.4014 0.14459-0.28786 0.08522-0.39798 0.36857-0.38558 0.45552 0.01235 0.08682-0.12985 0.20166 0.78598 0.23544 0 0 0.21634 0.24344 0.36949 0.92786 0.1103 0.49296 0.04314 1.2186 0.0153 1.8359l0.59251-0.0027c-0.06565-0.60175-0.13116-1.3258-0.14186-1.681-0.01468-0.48608 0.08646-0.71197 0.16657-0.88888 0.08025-0.17682 0.53987-0.27422 0.77672-0.24332 0.23694 0.03036 0.40163-0.06089 0.02529-0.40787-0.28224-0.26044-0.38523-0.33035-0.57482-0.35726z" fill="url(#q)"/>
  <path transform="matrix(.40795 .064479 -.064518 .40819 52.113 -357.32)" d="m71.969 950.08 1.9219-2.5469 6.0469-0.49999 2.1406 2.4219s-2.5267-0.53149-7.1406 3.0937c-0.875 0.6875-2.9688-2.4688-2.9688-2.4688z" clip-path="url(#ac)" fill="url(#l)" filter="url(#w)" opacity=".556"/>
  <path d="m22.838 34.421c-0.06322-9e-3 -0.13569-0.01436-0.2284-0.01729-0.36937-0.01912-1.1135 0.05934-1.4014 0.14459-0.28786 0.08522-0.39798 0.36857-0.38558 0.45552 0.0019 0.0074 4.25e-4 0.01653-9.52e-4 0.02524 0.44719-0.24183 0.57513-0.26658 0.88916-0.23129 0.42998 0.04915 0.64687-0.16578 0.84517-0.18021 0.19825-0.01427 0.40186 0.22692 0.59781 0.18595 0.04853-0.01114 0.1324-0.03174 0.22569-0.05343-0.25323-0.23118-0.36121-0.30272-0.54182-0.32836z" fill="#8a3d2d"/>
 </g>
 <g transform="rotate(8.9818 15.469 25.098)" fill="#858585" stroke-width="2.4205px">
  <g transform="matrix(.40733 -.068311 .068269 .40758 -8.0281 -356.17)">
   <path d="m-45.706 912.74h0.4792v1.4518h1.7412v-1.4518h0.47919v3.5418h-0.47919v-1.6867h-1.7412v1.6867h-0.4792z"/>
   <path d="m-39.799 914.85v0.2135h-2.0069q0.02847 0.45073 0.27044 0.68795 0.24434 0.23485 0.67846 0.23485 0.25146 0 0.48631-0.0617 0.23722-0.0617 0.4697-0.18503v0.41277q-0.23485 0.0996-0.48157 0.15182-0.24671 0.0522-0.50054 0.0522-0.63576 0-1.0082-0.37007-0.37007-0.37007-0.37007-1.0011 0-0.65237 0.35109-1.0343 0.35346-0.3843 0.95127-0.3843 0.53613 0 0.84689 0.34635 0.31314 0.34397 0.31314 0.93704zm-0.43649-0.12811q-0.0047-0.35821-0.20164-0.57171-0.19452-0.2135-0.51715-0.2135-0.36533 0-0.58595 0.20638-0.21825 0.20639-0.25146 0.58121l1.5562-2e-3z"/>
   <path d="m-37.875 914.95q-0.52901 0-0.73302 0.12099-0.20401 0.12098-0.20401 0.41277 0 0.23248 0.15182 0.37007 0.1542 0.13522 0.41752 0.13522 0.36296 0 0.5812-0.25621 0.22062-0.25857 0.22062-0.68558v-0.0973h-0.43412zm0.87062-0.18029v1.5159h-0.43649v-0.40328q-0.14945 0.24197-0.37244 0.35821-0.22299 0.11386-0.54562 0.11386-0.40803 0-0.65-0.22773-0.2396-0.23011-0.2396-0.61441 0-0.44836 0.2989-0.6761 0.30128-0.22773 0.89671-0.22773h0.61204v-0.0427q0-0.30128-0.19927-0.46496-0.1969-0.16606-0.55511-0.16606-0.22774 0-0.44361 0.0546-0.21588 0.0546-0.41514 0.16369v-0.40329q0.2396-0.0925 0.46496-0.13759 0.22536-0.0474 0.43887-0.0474 0.57646 0 0.86113 0.2989t0.28467 0.9062z"/>
   <path d="m-34.355 914.03v-1.4376h0.43649v3.6912h-0.43649v-0.39854q-0.13759 0.23723-0.34872 0.35347-0.20876 0.11386-0.50292 0.11386-0.48157 0-0.78522-0.3843-0.30128-0.3843-0.30128-1.0106 0-0.62627 0.30128-1.0106 0.30365-0.3843 0.78522-0.3843 0.29416 0 0.50292 0.11624 0.21113 0.11387 0.34872 0.35109zm-1.4874 0.92755q0 0.48157 0.1969 0.75675 0.19927 0.27281 0.54562 0.27281t0.54562-0.27281q0.19927-0.27518 0.19927-0.75675t-0.19927-0.75437q-0.19927-0.27519-0.54562-0.27519t-0.54562 0.27519q-0.1969 0.2728-0.1969 0.75437z"/>
   <path d="m-29.264 914.68v1.6036h-0.43649v-1.5894q0-0.37719-0.14708-0.56459-0.14708-0.18741-0.44124-0.18741-0.35347 0-0.55748 0.22536-0.20401 0.22537-0.20401 0.61441v1.5016h-0.43887v-2.6569h0.43887v0.41277q0.15657-0.2396 0.3677-0.35821 0.2135-0.11861 0.49106-0.11861 0.45784 0 0.6927 0.28467 0.23485 0.2823 0.23485 0.83266z"/>
   <path d="m-27.359 913.93q-0.35109 0-0.55511 0.27518-0.20401 0.27281-0.20401 0.74963t0.20164 0.752q0.20401 0.27281 0.55748 0.27281 0.34872 0 0.55273-0.27518t0.20401-0.74963q0-0.47208-0.20401-0.74726-0.20401-0.27755-0.55273-0.27755zm0-0.37007q0.56934 0 0.89434 0.37007t0.325 1.0248q0 0.65237-0.325 1.0248-0.325 0.37007-0.89434 0.37007-0.57171 0-0.89671-0.37007-0.32263-0.37244-0.32263-1.0248 0-0.65474 0.32263-1.0248 0.325-0.37007 0.89671-0.37007z"/>
   <path d="m-23.879 914.03q-0.07354-0.0427-0.16131-0.0617-0.0854-0.0213-0.18978-0.0213-0.37007 0-0.56934 0.24197-0.1969 0.23959-0.1969 0.69032v1.3996h-0.43887v-2.6569h0.43887v0.41277q0.13759-0.24197 0.35821-0.35821 0.22062-0.11861 0.53613-0.11861 0.04507 0 0.09963 7e-3 0.05456 5e-3 0.12098 0.0166l0.0024 0.44836z"/>
   <path d="m-22.985 912.87v0.75438h0.89908v0.33923h-0.89908v1.4423q0 0.325 0.08777 0.41751 0.09015 0.0925 0.36296 0.0925h0.44836v0.36533h-0.44836q-0.50529 0-0.69744-0.18741-0.19215-0.18978-0.19215-0.68795v-1.4423h-0.32025v-0.33923h0.32025v-0.75438h0.43887z"/>
   <path d="m-19.301 914.68v1.6036h-0.43649v-1.5894q0-0.37719-0.14708-0.56459-0.14708-0.18741-0.44124-0.18741-0.35346 0-0.55748 0.22536-0.20401 0.22537-0.20401 0.61441v1.5016h-0.43887v-3.6912h0.43887v1.4471q0.15657-0.2396 0.3677-0.35821 0.2135-0.11861 0.49106-0.11861 0.45784 0 0.6927 0.28467 0.23485 0.2823 0.23485 0.83266z"/>
   <path d="m-15.849 913.93q-0.35109 0-0.55511 0.27518-0.20401 0.27281-0.20401 0.74963t0.20164 0.752q0.20401 0.27281 0.55748 0.27281 0.34872 0 0.55274-0.27518 0.20401-0.27518 0.20401-0.74963 0-0.47208-0.20401-0.74726-0.20401-0.27755-0.55274-0.27755zm0-0.37007q0.56934 0 0.89434 0.37007t0.325 1.0248q0 0.65237-0.325 1.0248-0.325 0.37007-0.89434 0.37007-0.57171 0-0.89671-0.37007-0.32263-0.37244-0.32263-1.0248 0-0.65474 0.32263-1.0248 0.325-0.37007 0.89671-0.37007z"/>
   <path d="m-11.7 914.68v1.6036h-0.43649v-1.5894q0-0.37719-0.14708-0.56459-0.14708-0.18741-0.44124-0.18741-0.35346 0-0.55748 0.22536-0.20401 0.22537-0.20401 0.61441v1.5016h-0.43887v-2.6569h0.43887v0.41277q0.15657-0.2396 0.3677-0.35821 0.2135-0.11861 0.49106-0.11861 0.45784 0 0.6927 0.28467 0.23485 0.2823 0.23485 0.83266z"/>
  </g>
  <g transform="matrix(.40733 -.068311 .068269 .40758 -8.0281 -356.17)">
   <path d="m-45.197 919.86v0.75438h0.89908v0.33923h-0.89908v1.4423q0 0.325 0.08777 0.41752 0.09015 0.0925 0.36295 0.0925h0.44836v0.36533h-0.44836q-0.50529 0-0.69744-0.18741-0.19215-0.18978-0.19215-0.68795v-1.4423h-0.32025v-0.33923h0.32025v-0.75438h0.43887z"/>
   <path d="m-41.513 921.67v1.6036h-0.43649v-1.5894q0-0.37719-0.14708-0.56459-0.14708-0.18741-0.44124-0.18741-0.35347 0-0.55748 0.22536-0.20401 0.22537-0.20401 0.61442v1.5016h-0.43887v-3.6912h0.43887v1.4471q0.15657-0.2396 0.3677-0.35821 0.2135-0.11861 0.49106-0.11861 0.45784 0 0.6927 0.28467 0.23485 0.2823 0.23485 0.83266z"/>
   <path d="m-38.365 921.83v0.2135h-2.0069q0.02847 0.45073 0.27044 0.68795 0.24434 0.23485 0.67846 0.23485 0.25146 0 0.48631-0.0617 0.23722-0.0617 0.4697-0.18504v0.41277q-0.23485 0.0996-0.48157 0.15183-0.24671 0.0522-0.50054 0.0522-0.63576 0-1.0082-0.37007-0.37007-0.37007-0.37007-1.0011 0-0.65236 0.35109-1.0343 0.35346-0.3843 0.95127-0.3843 0.53613 0 0.84689 0.34635 0.31314 0.34397 0.31314 0.93704zm-0.43649-0.12811q-0.0047-0.35821-0.20164-0.57171-0.19452-0.2135-0.51715-0.2135-0.36533 0-0.58595 0.20639-0.21825 0.20638-0.25146 0.5812l1.5562-2e-3z"/>
   <path d="m-34.408 920.69v0.41277q-0.18504-0.0949-0.3843-0.14233-0.19927-0.0475-0.41277-0.0475-0.325 0-0.48868 0.0996-0.16131 0.0996-0.16131 0.2989 0 0.15183 0.11624 0.2396 0.11624 0.0854 0.46733 0.16369l0.14945 0.0332q0.46496 0.0996 0.65949 0.28229 0.1969 0.1803 0.1969 0.50529 0 0.37008-0.29416 0.58595-0.29179 0.21587-0.80419 0.21587-0.2135 0-0.44598-0.0427-0.23011-0.0403-0.48631-0.12335v-0.45073q0.24197 0.12573 0.47682 0.18978 0.23485 0.0617 0.46496 0.0617 0.30839 0 0.47445-0.10438 0.16606-0.10675 0.16606-0.2989 0-0.17792-0.12098-0.27281-0.11861-0.0949-0.52427-0.18267l-0.15182-0.0356q-0.40566-0.0854-0.58595-0.26095-0.18029-0.17792-0.18029-0.48631 0-0.37481 0.26569-0.57883 0.26569-0.20401 0.75438-0.20401 0.24197 0 0.45547 0.0356t0.39379 0.10675z"/>
   <path d="m-31.656 920.72v0.40802q-0.18504-0.102-0.37244-0.15182-0.18504-0.0522-0.37482-0.0522-0.42463 0-0.65948 0.27044-0.23485 0.26806-0.23485 0.75437t0.23485 0.75675q0.23485 0.26806 0.65948 0.26806 0.18978 0 0.37482-0.0498 0.18741-0.0522 0.37244-0.1542v0.40328q-0.18266 0.0854-0.37956 0.1281-0.19452 0.0427-0.41514 0.0427-0.60018 0-0.95364-0.37718-0.35347-0.37719-0.35347-1.0177 0-0.65 0.35584-1.0224 0.35821-0.37244 0.97974-0.37244 0.20164 0 0.39379 0.0427 0.19215 0.0403 0.37244 0.12336z"/>
   <path d="m-28.62 921.83v0.2135h-2.0069q0.02847 0.45073 0.27044 0.68795 0.24434 0.23485 0.67846 0.23485 0.25146 0 0.48631-0.0617 0.23722-0.0617 0.46971-0.18504v0.41277q-0.23485 0.0996-0.48157 0.15183-0.24671 0.0522-0.50054 0.0522-0.63576 0-1.0082-0.37007-0.37007-0.37007-0.37007-1.0011 0-0.65236 0.35109-1.0343 0.35346-0.3843 0.95127-0.3843 0.53613 0 0.84689 0.34635 0.31314 0.34397 0.31314 0.93704zm-0.43649-0.12811q-0.0047-0.35821-0.20164-0.57171-0.19452-0.2135-0.51715-0.2135-0.36533 0-0.58595 0.20639-0.21825 0.20638-0.25146 0.5812l1.5562-2e-3z"/>
   <path d="m-25.695 921.67v1.6036h-0.43649v-1.5894q0-0.37719-0.14708-0.56459-0.14708-0.18741-0.44124-0.18741-0.35346 0-0.55748 0.22536-0.20401 0.22537-0.20401 0.61442v1.5016h-0.43887v-2.6569h0.43887v0.41277q0.15657-0.2396 0.3677-0.35821 0.2135-0.11861 0.49106-0.11861 0.45784 0 0.6927 0.28467 0.23485 0.2823 0.23485 0.83266z"/>
   <path d="m-24.819 920.61h0.43649v2.6569h-0.43649zm0-1.0343h0.43649v0.55273h-0.43649z"/>
   <path d="m-21.56 920.72v0.40802q-0.18504-0.102-0.37244-0.15182-0.18504-0.0522-0.37482-0.0522-0.42463 0-0.65949 0.27044-0.23485 0.26806-0.23485 0.75437t0.23485 0.75675q0.23485 0.26806 0.65949 0.26806 0.18978 0 0.37482-0.0498 0.18741-0.0522 0.37244-0.1542v0.40328q-0.18266 0.0854-0.37956 0.1281-0.19452 0.0427-0.41514 0.0427-0.60018 0-0.95364-0.37718-0.35346-0.37719-0.35346-1.0177 0-0.65 0.35584-1.0224 0.35821-0.37244 0.97974-0.37244 0.20164 0 0.39379 0.0427 0.19215 0.0403 0.37244 0.12336z"/>
   <path d="m-16.578 920v0.50529q-0.24197-0.22537-0.51715-0.33686-0.27281-0.1115-0.5812-0.1115-0.6073 0-0.92992 0.37245-0.32263 0.37007-0.32263 1.0722 0 0.69982 0.32263 1.0723 0.32263 0.37007 0.92992 0.37007 0.30839 0 0.5812-0.11149 0.27518-0.1115 0.51715-0.33686v0.50054q-0.25146 0.1708-0.53376 0.2562-0.27993 0.0854-0.59306 0.0854-0.80419 0-1.2668-0.49105-0.46259-0.49343-0.46259-1.3451 0-0.85401 0.46259-1.3451 0.46259-0.49343 1.2668-0.49343 0.31788 0 0.59781 0.0854 0.2823 0.083 0.52901 0.25146z"/>
   <path d="m-14.649 920.2-0.65 1.7626h1.3024zm-0.27044-0.47208h0.54324l1.3498 3.5418h-0.49817l-0.32263-0.90857h-1.5965l-0.32263 0.90857h-0.50529z"/>
  </g>
  <g transform="matrix(.40733 -.068311 .068269 .40758 -8.0281 -356.17)">
   <path d="m-45.606 926.89h0.4792v1.4518h1.7412v-1.4518h0.4792v3.5418h-0.4792v-1.6867h-1.7412v1.6867h-0.4792z"/>
   <path d="m-41.972 927.77h0.43649v2.6569h-0.43649zm0-1.0343h0.43649v0.55273h-0.43649z"/>
   <path d="m-38.876 929.07q0-0.47445-0.1969-0.7354-0.19452-0.26094-0.54799-0.26094-0.35109 0-0.54799 0.26094-0.19452 0.26095-0.19452 0.7354 0 0.47208 0.19452 0.73303 0.1969 0.26094 0.54799 0.26094 0.35346 0 0.54799-0.26094 0.1969-0.26095 0.1969-0.73303zm0.4365 1.0296q0 0.67846-0.30128 1.0082-0.30128 0.33212-0.92281 0.33212-0.23011 0-0.43412-0.0356-0.20401-0.0332-0.39616-0.10438v-0.42464q0.19215 0.10438 0.37956 0.1542 0.18741 0.0498 0.38193 0.0498 0.42938 0 0.64288-0.22537 0.2135-0.22299 0.2135-0.67609v-0.21587q-0.13522 0.23485-0.34635 0.35109t-0.50529 0.11624q-0.48868 0-0.78759-0.37244-0.2989-0.37245-0.2989-0.98686 0-0.61678 0.2989-0.98923 0.2989-0.37244 0.78759-0.37244 0.29416 0 0.50529 0.11624t0.34635 0.35109v-0.40328h0.4365v2.3272z"/>
   <path d="m-35.332 928.83v1.6036h-0.43649v-1.5894q0-0.37718-0.14708-0.56459t-0.44124-0.18741q-0.35346 0-0.55748 0.22536-0.20401 0.22537-0.20401 0.61442v1.5016h-0.43887v-3.6912h0.43887v1.4471q0.15657-0.2396 0.3677-0.35821 0.2135-0.11861 0.49106-0.11861 0.45784 0 0.6927 0.28467 0.23485 0.2823 0.23485 0.83266z"/>
   <path d="m-34.71 927.77h0.43649l0.54562 2.0734 0.54325-2.0734h0.51478l0.54562 2.0734 0.54325-2.0734h0.43649l-0.69507 2.6569h-0.51478l-0.57171-2.1777-0.57408 2.1777h-0.51478z"/>
   <path d="m-29.273 929.1q-0.52901 0-0.73302 0.12099-0.20401 0.12098-0.20401 0.41277 0 0.23248 0.15182 0.37007 0.1542 0.13522 0.41752 0.13522 0.36295 0 0.5812-0.2562 0.22062-0.25858 0.22062-0.68558v-0.0973h-0.43412zm0.87062-0.18029v1.5159h-0.43649v-0.40328q-0.14945 0.24197-0.37244 0.35821-0.22299 0.11387-0.54562 0.11387-0.40803 0-0.65-0.22774-0.2396-0.23011-0.2396-0.61441 0-0.44836 0.2989-0.67609 0.30128-0.22774 0.89671-0.22774h0.61204v-0.0427q0-0.30128-0.19927-0.46496-0.1969-0.16606-0.55511-0.16606-0.22774 0-0.44361 0.0546t-0.41514 0.16369v-0.40329q0.2396-0.0925 0.46496-0.13759 0.22536-0.0474 0.43887-0.0474 0.57646 0 0.86113 0.2989 0.28467 0.29891 0.28467 0.9062z"/>
   <path d="m-26.395 930.68q-0.18504 0.47445-0.36058 0.61916-0.17555 0.14471-0.46971 0.14471h-0.34872v-0.36533h0.2562q0.18029 0 0.27993-0.0854 0.09963-0.0854 0.22062-0.40328l0.07828-0.19927-1.0746-2.6142h0.46259l0.83029 2.0781 0.83029-2.0781h0.46259l-1.1671 2.9036z"/>
   <path d="m-22.934 930.03h0.78284v-2.702l-0.85164 0.17081v-0.4365l0.84689-0.1708h0.4792v3.1385h0.78284v0.40328h-2.0401z"/>
   <path d="m-18.007 927.02v0.75438h0.89908v0.33923h-0.89908v1.4423q0 0.325 0.08777 0.41752 0.09015 0.0925 0.36296 0.0925h0.44836v0.36533h-0.44836q-0.50529 0-0.69744-0.18741-0.19215-0.18978-0.19215-0.68795v-1.4423h-0.32025v-0.33923h0.32025v-0.75438h0.43887z"/>
   <path d="m-15.502 928.08q-0.35109 0-0.55511 0.27518-0.20401 0.27281-0.20401 0.74963t0.20164 0.75201q0.20401 0.2728 0.55748 0.2728 0.34872 0 0.55273-0.27518t0.20401-0.74963q0-0.47208-0.20401-0.74726-0.20401-0.27755-0.55273-0.27755zm0-0.37007q0.56934 0 0.89434 0.37007t0.325 1.0248q0 0.65237-0.325 1.0248-0.325 0.37008-0.89434 0.37008-0.57171 0-0.89671-0.37008-0.32263-0.37244-0.32263-1.0248 0-0.65474 0.32263-1.0248 0.325-0.37007 0.89671-0.37007z"/>
  </g>
  <g transform="matrix(.40733 -.068311 .068269 .40758 -8.0281 -356.17)">
   <path d="m-45.22 933.61v0.75437h0.89908v0.33923h-0.89908v1.4423q0 0.325 0.08777 0.41752 0.09014 0.0925 0.36295 0.0925h0.44836v0.36532h-0.44836q-0.50529 0-0.69744-0.1874-0.19215-0.18978-0.19215-0.68796v-1.4423h-0.32025v-0.33923h0.32025v-0.75437h0.43887z"/>
   <path d="m-41.536 935.41v1.6036h-0.43649v-1.5894q0-0.37719-0.14708-0.5646t-0.44124-0.18741q-0.35346 0-0.55748 0.22537-0.20401 0.22536-0.20401 0.61441v1.5016h-0.43887v-3.6912h0.43887v1.4471q0.15657-0.23959 0.3677-0.35821 0.2135-0.11861 0.49106-0.11861 0.45784 0 0.6927 0.28467 0.23485 0.2823 0.23485 0.83266z"/>
   <path d="m-38.388 935.58v0.2135h-2.0069q0.02847 0.45073 0.27044 0.68795 0.24434 0.23486 0.67846 0.23486 0.25146 0 0.48631-0.0617 0.23722-0.0617 0.46971-0.18504v0.41278q-0.23485 0.0996-0.48157 0.15182-0.24671 0.0522-0.50054 0.0522-0.63576 0-1.0082-0.37007-0.37007-0.37007-0.37007-1.0011 0-0.65237 0.35109-1.0343 0.35346-0.38431 0.95127-0.38431 0.53613 0 0.84689 0.34635 0.31314 0.34398 0.31314 0.93704zm-0.43649-0.1281q-0.0047-0.35821-0.20164-0.57171-0.19452-0.21351-0.51715-0.21351-0.36533 0-0.58594 0.20639-0.21825 0.20638-0.25146 0.5812l1.5562-2e-3z"/>
   <path d="m-36.597 933.48h2.9962v0.40329h-1.2573v3.1385h-0.48157v-3.1385h-1.2573z"/>
   <path d="m-32.95 934.67q-0.35109 0-0.55511 0.27518-0.20401 0.27281-0.20401 0.74964 0 0.47682 0.20164 0.752 0.20401 0.27281 0.55748 0.27281 0.34872 0 0.55273-0.27518t0.20401-0.74963q0-0.47208-0.20401-0.74726-0.20401-0.27756-0.55273-0.27756zm0-0.37007q0.56934 0 0.89434 0.37007t0.325 1.0248q0 0.65236-0.325 1.0248-0.325 0.37007-0.89434 0.37007-0.57171 0-0.89671-0.37007-0.32263-0.37245-0.32263-1.0248 0-0.65475 0.32263-1.0248 0.325-0.37007 0.89671-0.37007z"/>
   <path d="m-28.941 934.87q0.16369-0.29416 0.39142-0.43413 0.22774-0.13996 0.53613-0.13996 0.41514 0 0.64051 0.29179 0.22536 0.28941 0.22536 0.82554v1.6036h-0.43887v-1.5894q0-0.38194-0.13522-0.56697-0.13522-0.18504-0.41277-0.18504-0.33923 0-0.53613 0.22537-0.1969 0.22536-0.1969 0.61441v1.5016h-0.43887v-1.5894q0-0.38431-0.13522-0.56697-0.13522-0.18504-0.41752-0.18504-0.33449 0-0.53138 0.22774-0.1969 0.22536-0.1969 0.61204v1.5016h-0.43887v-2.6569h0.43887v0.41277q0.14945-0.24434 0.35821-0.36058t0.4958-0.11624q0.28941 0 0.49106 0.14708 0.20401 0.14708 0.30128 0.42701z"/>
   <path d="m-25.067 935.68q-0.52901 0-0.73302 0.12098-0.20401 0.12099-0.20401 0.41277 0 0.23248 0.15182 0.37007 0.1542 0.13522 0.41752 0.13522 0.36295 0 0.5812-0.2562 0.22062-0.25858 0.22062-0.68558v-0.0973h-0.43412zm0.87062-0.18029v1.5159h-0.43649v-0.40328q-0.14945 0.24197-0.37244 0.35821-0.22299 0.11387-0.54562 0.11387-0.40803 0-0.65-0.22774-0.2396-0.23011-0.2396-0.61441 0-0.44836 0.2989-0.67609 0.30128-0.22774 0.89671-0.22774h0.61204v-0.0427q0-0.30127-0.19927-0.46496-0.1969-0.16606-0.55511-0.16606-0.22774 0-0.44361 0.0546t-0.41514 0.16369v-0.40328q0.2396-0.0925 0.46496-0.13759 0.22536-0.0475 0.43887-0.0475 0.57646 0 0.86113 0.29891 0.28467 0.2989 0.28467 0.9062z"/>
   <path d="m-23.295 933.33h0.43649v3.6912h-0.43649z"/>
   <path d="m-19.675 935.58v0.2135h-2.0069q0.02847 0.45073 0.27044 0.68795 0.24434 0.23486 0.67846 0.23486 0.25146 0 0.48631-0.0617 0.23722-0.0617 0.4697-0.18504v0.41278q-0.23485 0.0996-0.48157 0.15182-0.24671 0.0522-0.50054 0.0522-0.63576 0-1.0082-0.37007-0.37007-0.37007-0.37007-1.0011 0-0.65237 0.35109-1.0343 0.35347-0.38431 0.95127-0.38431 0.53613 0 0.84689 0.34635 0.31314 0.34398 0.31314 0.93704zm-0.43649-0.1281q-0.0047-0.35821-0.20164-0.57171-0.19452-0.21351-0.51715-0.21351-0.36533 0-0.58595 0.20639-0.21825 0.20638-0.25146 0.5812l1.5562-2e-3z"/>
   <path d="m-17.265 934.44v0.41277q-0.18504-0.0949-0.3843-0.14234-0.19927-0.0474-0.41277-0.0474-0.325 0-0.48868 0.0996-0.16131 0.0996-0.16131 0.29891 0 0.15182 0.11624 0.23959 0.11624 0.0854 0.46733 0.16369l0.14945 0.0332q0.46496 0.0996 0.65949 0.2823 0.1969 0.18029 0.1969 0.50529 0 0.37007-0.29416 0.58594-0.29179 0.21588-0.80419 0.21588-0.2135 0-0.44598-0.0427-0.23011-0.0403-0.48631-0.12336v-0.45073q0.24197 0.12573 0.47682 0.18978 0.23485 0.0617 0.46496 0.0617 0.30839 0 0.47445-0.10438 0.16606-0.10675 0.16606-0.2989 0-0.17792-0.12098-0.27281-0.11861-0.0949-0.52427-0.18266l-0.15182-0.0356q-0.40566-0.0854-0.58595-0.26094-0.18029-0.17792-0.18029-0.48632 0-0.37481 0.26569-0.57882 0.26569-0.20402 0.75438-0.20402 0.24197 0 0.45547 0.0356t0.39379 0.10675z"/>
  </g>
  <g transform="matrix(.40733 -.068311 .068269 .40758 -8.0281 -356.17)">
   <path d="m-45.304 941.2v1.3308h0.60255q0.33449 0 0.51715-0.17318 0.18266-0.17317 0.18266-0.49343 0-0.31788-0.18266-0.49105-0.18266-0.17318-0.51715-0.17318zm-0.47919-0.39379h1.0817q0.59544 0 0.89908 0.27044 0.30602 0.26806 0.30602 0.78758 0 0.52427-0.30602 0.79234-0.30365 0.26806-0.89908 0.26806h-0.60255v1.4234h-0.47919z"/>
   <path d="m-42.011 941.99q-0.35109 0-0.55511 0.27518-0.20401 0.27281-0.20401 0.74963t0.20164 0.75201q0.20401 0.2728 0.55748 0.2728 0.34872 0 0.55273-0.27518t0.20401-0.74963q0-0.47208-0.20401-0.74726-0.20401-0.27755-0.55273-0.27755zm0-0.37007q0.56934 0 0.89434 0.37007t0.325 1.0248q0 0.65237-0.325 1.0248-0.325 0.37008-0.89434 0.37008-0.57171 0-0.89671-0.37008-0.32263-0.37244-0.32263-1.0248 0-0.65474 0.32263-1.0248 0.325-0.37007 0.89671-0.37007z"/>
   <path d="m-40.071 941.69h0.43649v2.6569h-0.43649zm0-1.0343h0.43649v0.55273h-0.43649z"/>
   <path d="m-36.515 942.74v1.6036h-0.43649v-1.5894q0-0.37719-0.14708-0.56459-0.14708-0.18741-0.44124-0.18741-0.35346 0-0.55748 0.22536-0.20401 0.22537-0.20401 0.61442v1.5016h-0.43887v-2.6569h0.43887v0.41277q0.15657-0.2396 0.3677-0.35821 0.2135-0.11861 0.49106-0.11861 0.45784 0 0.6927 0.28467 0.23485 0.2823 0.23485 0.83266z"/>
   <path d="m-35.207 940.93v0.75438h0.89908v0.33923h-0.89908v1.4423q0 0.325 0.08777 0.41752 0.09015 0.0925 0.36295 0.0925h0.44836v0.36533h-0.44836q-0.50529 0-0.69744-0.18741-0.19215-0.18978-0.19215-0.68795v-1.4423h-0.32025v-0.33923h0.32025v-0.75438h0.43887z"/>
   <path d="m-32.657 940.8h2.9962v0.40328h-1.2573v3.1385h-0.48157v-3.1385h-1.2573z"/>
   <path d="m-30 943.3v-1.6084h0.43649v1.5918q0 0.37719 0.14708 0.56697 0.14708 0.18741 0.44124 0.18741 0.35346 0 0.55748-0.22537 0.20639-0.22536 0.20639-0.61441v-1.5064h0.43649v2.6569h-0.43649v-0.40803q-0.15894 0.24197-0.37007 0.36058-0.20876 0.11625-0.48631 0.11625-0.45784 0-0.69507-0.28467t-0.23722-0.83266z"/>
   <path d="m-26.871 940.65h0.43649v3.6912h-0.43649z"/>
   <path d="m-23.251 942.91v0.2135h-2.0069q0.02847 0.45073 0.27044 0.68795 0.24434 0.23485 0.67846 0.23485 0.25146 0 0.48631-0.0617 0.23722-0.0617 0.46971-0.18504v0.41277q-0.23485 0.0996-0.48157 0.15183-0.24671 0.0522-0.50054 0.0522-0.63576 0-1.0082-0.37008-0.37007-0.37007-0.37007-1.0011 0-0.65236 0.35109-1.0343 0.35346-0.3843 0.95127-0.3843 0.53613 0 0.84689 0.34635 0.31314 0.34397 0.31314 0.93704zm-0.43649-0.12811q-0.0047-0.35821-0.20164-0.57171-0.19452-0.2135-0.51715-0.2135-0.36533 0-0.58595 0.20639-0.21825 0.20638-0.25146 0.5812l1.5562-2e-3z"/>
   <path d="m-20.969 940.8h2.2394v0.40328h-1.7602v1.0485h1.6867v0.40328h-1.6867v1.2834h1.8029v0.40328h-2.2821z"/>
   <path d="m-17.914 940.65h0.43649v3.6912h-0.43649z"/>
   <path d="m-16.583 940.65h0.43887v2.1801l1.3024-1.1458h0.55748l-1.4091 1.2431 1.4684 1.4139h-0.56934l-1.3498-1.2976v1.2976h-0.43887z"/>
  </g>
  <g transform="matrix(.40733 -.068311 .068269 .40758 -8.0281 -356.17)">
   <path d="m-45.495 948.01v1.3308h0.60255q0.33449 0 0.51715-0.17317 0.18266-0.17318 0.18266-0.49343 0-0.31788-0.18266-0.49106-0.18266-0.17317-0.51715-0.17317zm-0.47919-0.3938h1.0817q0.59544 0 0.89908 0.27044 0.30602 0.26806 0.30602 0.78759 0 0.52426-0.30602 0.79233-0.30365 0.26806-0.89908 0.26806h-0.60255v1.4234h-0.47919z"/>
   <path d="m-41.607 948.91q-0.07354-0.0427-0.16131-0.0617-0.0854-0.0213-0.18978-0.0213-0.37007 0-0.56934 0.24197-0.1969 0.2396-0.1969 0.69033v1.3996h-0.43887v-2.6569h0.43887v0.41277q0.13759-0.24196 0.35821-0.3582 0.22062-0.11862 0.53613-0.11862 0.04507 0 0.09963 7e-3 0.05456 5e-3 0.12098 0.0166l0.0024 0.44835z"/>
   <path d="m-38.976 949.72v0.2135h-2.0069q0.02847 0.45073 0.27044 0.68796 0.24434 0.23485 0.67846 0.23485 0.25146 0 0.48631-0.0617 0.23722-0.0617 0.4697-0.18504v0.41278q-0.23485 0.0996-0.48157 0.15182-0.24671 0.0522-0.50054 0.0522-0.63576 0-1.0082-0.37007-0.37007-0.37007-0.37007-1.0011 0-0.65237 0.35109-1.0343 0.35347-0.38431 0.95127-0.38431 0.53613 0 0.84689 0.34635 0.31314 0.34398 0.31314 0.93704zm-0.43649-0.1281q-0.0047-0.35821-0.20164-0.57171-0.19452-0.21351-0.51715-0.21351-0.36533 0-0.58595 0.20639-0.21825 0.20639-0.25146 0.5812l1.5562-2e-3z"/>
   <path d="m-36.566 948.58v0.41277q-0.18504-0.0949-0.3843-0.14234-0.19927-0.0474-0.41277-0.0474-0.325 0-0.48868 0.0996-0.16131 0.0996-0.16131 0.29891 0 0.15182 0.11624 0.23959 0.11624 0.0854 0.46733 0.16369l0.14945 0.0332q0.46496 0.0996 0.65949 0.2823 0.1969 0.18029 0.1969 0.50529 0 0.37007-0.29416 0.58594-0.29179 0.21588-0.80419 0.21588-0.2135 0-0.44598-0.0427-0.23011-0.0403-0.48631-0.12336v-0.45073q0.24197 0.12573 0.47682 0.18978 0.23485 0.0617 0.46496 0.0617 0.30839 0 0.47445-0.10438 0.16606-0.10675 0.16606-0.2989 0-0.17792-0.12098-0.27281-0.11861-0.0949-0.52427-0.18266l-0.15182-0.0356q-0.40566-0.0854-0.58595-0.26094-0.18029-0.17792-0.18029-0.48631 0-0.37482 0.26569-0.57883 0.26569-0.20402 0.75438-0.20402 0.24197 0 0.45547 0.0356t0.39379 0.10675z"/>
   <path d="m-33.453 949.72v0.2135h-2.0069q0.02847 0.45073 0.27044 0.68796 0.24434 0.23485 0.67846 0.23485 0.25146 0 0.48631-0.0617 0.23723-0.0617 0.46971-0.18504v0.41278q-0.23485 0.0996-0.48157 0.15182-0.24671 0.0522-0.50054 0.0522-0.63576 0-1.0082-0.37007-0.37007-0.37007-0.37007-1.0011 0-0.65237 0.35109-1.0343 0.35346-0.38431 0.95127-0.38431 0.53613 0 0.84689 0.34635 0.31314 0.34398 0.31314 0.93704zm-0.43649-0.1281q-0.0047-0.35821-0.20164-0.57171-0.19452-0.21351-0.51715-0.21351-0.36533 0-0.58595 0.20639-0.21825 0.20639-0.25146 0.5812l1.5562-2e-3z"/>
   <path d="m-31.197 948.91q-0.07354-0.0427-0.16131-0.0617-0.0854-0.0213-0.18978-0.0213-0.37007 0-0.56934 0.24197-0.1969 0.2396-0.1969 0.69033v1.3996h-0.43887v-2.6569h0.43887v0.41277q0.13759-0.24196 0.35821-0.3582 0.22062-0.11862 0.53613-0.11862 0.04507 0 0.09963 7e-3 0.05456 5e-3 0.12098 0.0166l0.0024 0.44835z"/>
   <path d="m-31.048 948.5h0.46259l0.83029 2.2299 0.83029-2.2299h0.46259l-0.99635 2.6569h-0.59306z"/>
   <path d="m-25.587 949.72v0.2135h-2.0069q0.02847 0.45073 0.27044 0.68796 0.24434 0.23485 0.67846 0.23485 0.25146 0 0.48631-0.0617 0.23722-0.0617 0.46971-0.18504v0.41278q-0.23485 0.0996-0.48157 0.15182-0.24671 0.0522-0.50054 0.0522-0.63576 0-1.0082-0.37007-0.37007-0.37007-0.37007-1.0011 0-0.65237 0.35109-1.0343 0.35346-0.38431 0.95127-0.38431 0.53613 0 0.84689 0.34635 0.31314 0.34398 0.31314 0.93704zm-0.43649-0.1281q-0.0047-0.35821-0.20164-0.57171-0.19452-0.21351-0.51715-0.21351-0.36533 0-0.58594 0.20639-0.21825 0.20639-0.25146 0.5812l1.5562-2e-3z"/>
   <path d="m-22.892 947.74v0.75437h0.89908v0.33924h-0.89908v1.4423q0 0.325 0.08777 0.41752 0.09015 0.0925 0.36295 0.0925h0.44836v0.36532h-0.44836q-0.50529 0-0.69744-0.1874-0.19215-0.18978-0.19215-0.68796v-1.4423h-0.32025v-0.33924h0.32025v-0.75437h0.43887z"/>
   <path d="m-19.877 948.91q-0.07354-0.0427-0.16131-0.0617-0.0854-0.0213-0.18978-0.0213-0.37007 0-0.56934 0.24197-0.1969 0.2396-0.1969 0.69033v1.3996h-0.43887v-2.6569h0.43887v0.41277q0.13759-0.24196 0.35821-0.3582 0.22062-0.11862 0.53613-0.11862 0.04507 0 0.09963 7e-3 0.05456 5e-3 0.12098 0.0166l0.0024 0.44835z"/>
   <path d="m-18.207 949.82q-0.52901 0-0.73302 0.12098-0.20401 0.12099-0.20401 0.41277 0 0.23248 0.15182 0.37007 0.1542 0.13522 0.41752 0.13522 0.36295 0 0.5812-0.2562 0.22062-0.25858 0.22062-0.68558v-0.0973h-0.43412zm0.87062-0.18029v1.5159h-0.43649v-0.40328q-0.14945 0.24197-0.37244 0.35821-0.22299 0.11387-0.54562 0.11387-0.40803 0-0.65-0.22774-0.2396-0.23011-0.2396-0.61441 0-0.44836 0.2989-0.67609 0.30128-0.22774 0.89671-0.22774h0.61204v-0.0427q0-0.30127-0.19927-0.46496-0.1969-0.16606-0.55511-0.16606-0.22774 0-0.44361 0.0546t-0.41514 0.16368v-0.40328q0.2396-0.0925 0.46496-0.13759 0.22536-0.0475 0.43887-0.0475 0.57646 0 0.86113 0.29891 0.28467 0.2989 0.28467 0.9062z"/>
  </g>
  <g transform="matrix(.40733 -.068311 .068269 .40758 -8.0281 -356.17)">
   <path d="m-43.668 956.8v1.6036h-0.43649v-1.5894q0-0.37718-0.14708-0.56459t-0.44124-0.18741q-0.35346 0-0.55748 0.22536-0.20401 0.22537-0.20401 0.61442v1.5016h-0.43887v-3.6912h0.43887v1.4471q0.15657-0.23959 0.3677-0.35821 0.2135-0.11861 0.49106-0.11861 0.45784 0 0.6927 0.28467 0.23485 0.2823 0.23485 0.83266z"/>
   <path d="m-40.52 956.96v0.2135h-2.0069q0.02847 0.45073 0.27044 0.68795 0.24434 0.23486 0.67846 0.23486 0.25146 0 0.48631-0.0617 0.23722-0.0617 0.46971-0.18504v0.41277q-0.23485 0.0996-0.48157 0.15183-0.24671 0.0522-0.50054 0.0522-0.63576 0-1.0082-0.37007-0.37007-0.37008-0.37007-1.0011 0-0.65237 0.35109-1.0343 0.35347-0.3843 0.95127-0.3843 0.53613 0 0.84689 0.34635 0.31314 0.34397 0.31314 0.93704zm-0.43649-0.1281q-0.0047-0.35821-0.20164-0.57172-0.19452-0.2135-0.51715-0.2135-0.36533 0-0.58594 0.20639-0.21825 0.20638-0.25146 0.5812l1.5562-2e-3z"/>
   <path d="m-38.596 957.06q-0.52901 0-0.73302 0.12099-0.20401 0.12098-0.20401 0.41277 0 0.23248 0.15182 0.37007 0.1542 0.13522 0.41752 0.13522 0.36296 0 0.5812-0.2562 0.22062-0.25858 0.22062-0.68558v-0.0973h-0.43412zm0.87062-0.18029v1.5159h-0.43649v-0.40328q-0.14945 0.24197-0.37244 0.35821-0.22299 0.11387-0.54562 0.11387-0.40803 0-0.65-0.22774-0.2396-0.23011-0.2396-0.61441 0-0.44836 0.2989-0.67609 0.30128-0.22774 0.89671-0.22774h0.61204v-0.0427q0-0.30128-0.19927-0.46496-0.1969-0.16606-0.55511-0.16606-0.22774 0-0.44361 0.0546-0.21588 0.0546-0.41514 0.16369v-0.40328q0.2396-0.0925 0.46496-0.13759 0.22536-0.0475 0.43887-0.0475 0.57646 0 0.86113 0.2989 0.28467 0.29891 0.28467 0.9062z"/>
   <path d="m-35.076 956.15v-1.4376h0.43649v3.6912h-0.43649v-0.39854q-0.13759 0.23723-0.34872 0.35347-0.20876 0.11387-0.50292 0.11387-0.48157 0-0.78522-0.38431-0.30128-0.3843-0.30128-1.0106 0-0.62627 0.30128-1.0106 0.30365-0.3843 0.78522-0.3843 0.29416 0 0.50292 0.11624 0.21113 0.11387 0.34872 0.35109zm-1.4874 0.92755q0 0.48157 0.1969 0.75675 0.19927 0.27281 0.54562 0.27281t0.54562-0.27281q0.19927-0.27518 0.19927-0.75675 0-0.48156-0.19927-0.75437-0.19927-0.27518-0.54562-0.27518t-0.54562 0.27518q-0.1969 0.27281-0.1969 0.75437z"/>
   <path d="m-33.678 957.8h0.50054v0.60255h-0.50054z"/>
   <path d="m-29.444 955.33-0.65 1.7626h1.3024zm-0.27044-0.47208h0.54325l1.3498 3.5418h-0.49817l-0.32263-0.90857h-1.5965l-0.32263 0.90857h-0.50529z"/>
   <path d="m-25.632 955.82v0.41277q-0.18504-0.0949-0.3843-0.14234-0.19927-0.0474-0.41277-0.0474-0.325 0-0.48868 0.0996-0.16131 0.0996-0.16131 0.2989 0 0.15183 0.11624 0.2396 0.11624 0.0854 0.46733 0.16369l0.14945 0.0332q0.46496 0.0996 0.65949 0.2823 0.1969 0.18029 0.1969 0.50529 0 0.37007-0.29416 0.58594-0.29179 0.21588-0.80419 0.21588-0.2135 0-0.44598-0.0427-0.23011-0.0403-0.48631-0.12336v-0.45073q0.24197 0.12573 0.47682 0.18978 0.23485 0.0617 0.46496 0.0617 0.30839 0 0.47445-0.10438 0.16606-0.10675 0.16606-0.2989 0-0.17792-0.12098-0.27281-0.11861-0.0949-0.52427-0.18266l-0.15182-0.0356q-0.40566-0.0854-0.58595-0.26095-0.18029-0.17791-0.18029-0.48631 0-0.37481 0.26569-0.57883 0.26569-0.20401 0.75438-0.20401 0.24197 0 0.45547 0.0356t0.39379 0.10676z"/>
   <path d="m-22.14 958.65q-0.18504 0.47445-0.36058 0.61915-0.17555 0.14471-0.46971 0.14471h-0.34872v-0.36533h0.2562q0.18029 0 0.27992-0.0854t0.22062-0.40328l0.07828-0.19927-1.0746-2.6142h0.46259l0.83029 2.0781 0.83029-2.0781h0.46259l-1.1671 2.9036z"/>
  </g>
  <g transform="matrix(.40121 -.062875 .060323 .41596 -8.0281 -356.17)">
   <path d="m-90.67 948.27q-0.50597 0-0.7011 0.11572t-0.19513 0.3948q0 0.22235 0.14521 0.35395 0.14748 0.12933 0.39933 0.12933 0.34715 0 0.55589-0.24504 0.21101-0.24732 0.21101-0.65573v-0.093h-0.41522zm0.8327-0.17243v1.4498h-0.41748v-0.38572q-0.14294 0.23143-0.35622 0.34261-0.21328 0.10891-0.52186 0.10891-0.39026 0-0.62169-0.21782-0.22916-0.22009-0.22916-0.58766 0-0.42883 0.28589-0.64664 0.28816-0.21782 0.85766-0.21782h0.58539v-0.0408q0-0.28816-0.19059-0.44472-0.18832-0.15882-0.53093-0.15882-0.21782 0-0.42429 0.0522t-0.39706 0.15656v-0.38572q0.22916-0.0885 0.44471-0.1316 0.21555-0.0454 0.41975-0.0454 0.55135 0 0.82362 0.28589t0.27227 0.86674z"/>
   <path d="m-88.975 946.02h0.41748v3.5305h-0.41748z"/>
   <path d="m-86.702 947.3q-0.3358 0-0.53093 0.2632-0.19513 0.26092-0.19513 0.71698t0.19286 0.71925q0.19513 0.26093 0.5332 0.26093 0.33353 0 0.52866-0.26319 0.19513-0.2632 0.19513-0.71699 0-0.45152-0.19513-0.71472-0.19513-0.26546-0.52866-0.26546zm0-0.35396q0.54454 0 0.85539 0.35396 0.31084 0.35395 0.31084 0.98018 0 0.62396-0.31084 0.98018-0.31084 0.35396-0.85539 0.35396-0.54682 0-0.85766-0.35396-0.30858-0.35622-0.30858-0.98018 0-0.62623 0.30858-0.98018 0.31084-0.35396 0.85766-0.35396z"/>
   <path d="m-82.733 948.02v1.5338h-0.41748v-1.5202q0-0.36076-0.14067-0.54001-0.14068-0.17925-0.42202-0.17925-0.33807 0-0.5332 0.21555t-0.19513 0.58766v1.4362h-0.41975v-2.5412h0.41975v0.39479q0.14975-0.22916 0.35169-0.34261 0.2042-0.11345 0.46967-0.11345 0.43791 0 0.66253 0.27228 0.22462 0.27 0.22462 0.79639z"/>
   <path d="m-80.224 948.25q0-0.45379-0.18832-0.70338-0.18605-0.24958-0.52412-0.24958-0.3358 0-0.52412 0.24958-0.18605 0.24959-0.18605 0.70338 0 0.45151 0.18605 0.7011 0.18832 0.24958 0.52412 0.24958 0.33807 0 0.52412-0.24958 0.18832-0.24959 0.18832-0.7011zm0.41748 0.98472q0 0.64891-0.28816 0.9643-0.28816 0.31765-0.88262 0.31765-0.22009 0-0.41522-0.034-0.19513-0.0318-0.37891-0.0998v-0.40614q0.18378 0.0998 0.36303 0.14748 0.17925 0.0477 0.3653 0.0477 0.41068 0 0.61488-0.21555 0.2042-0.21328 0.2042-0.64665v-0.20647q-0.12933 0.22462-0.33126 0.3358t-0.48328 0.11118q-0.4674 0-0.75329-0.35623-0.28589-0.35622-0.28589-0.94387 0-0.58993 0.28589-0.94615 0.28589-0.35623 0.75329-0.35623 0.28135 0 0.48328 0.11118t0.33126 0.3358v-0.38571h0.41748v2.2258z"/>
   <path d="m-77.054 946.29v0.72153h0.85993v0.32445h-0.85993v1.3795q0 0.31084 0.08395 0.39933 0.08622 0.0885 0.34715 0.0885h0.42883v0.34942h-0.42883q-0.48328 0-0.66707-0.17925-0.18378-0.18151-0.18378-0.65799v-1.3795h-0.30631v-0.32445h0.30631v-0.72153h0.41975z"/>
   <path d="m-73.531 948.02v1.5338h-0.41748v-1.5202q0-0.36076-0.14067-0.54001t-0.42202-0.17925q-0.33807 0-0.5332 0.21555t-0.19513 0.58766v1.4362h-0.41975v-3.5305h0.41975v1.384q0.14975-0.22916 0.35169-0.34261 0.2042-0.11345 0.46967-0.11345 0.4379 0 0.66253 0.27228 0.22462 0.27 0.22462 0.79639z"/>
   <path d="m-70.52 948.18v0.20421h-1.9195q0.02723 0.43109 0.25866 0.65799 0.2337 0.22462 0.64892 0.22462 0.24051 0 0.46513-0.059 0.22689-0.059 0.44925-0.17698v0.3948q-0.22462 0.0953-0.4606 0.14521-0.23597 0.0499-0.47875 0.0499-0.60808 0-0.9643-0.35396-0.35395-0.35395-0.35395-0.95749 0-0.62396 0.3358-0.98926 0.33807-0.36757 0.90984-0.36757 0.51278 0 0.81001 0.33127 0.2995 0.329 0.2995 0.89623zm-0.41748-0.12252q-0.0045-0.34261-0.19286-0.54682-0.18605-0.2042-0.49463-0.2042-0.34942 0-0.56043 0.1974-0.20874 0.19739-0.24051 0.55589l1.4884-2e-3z"/>
   <path d="m-68.598 947.01h0.41748l0.52186 1.983 0.51959-1.983h0.49236l0.52186 1.983 0.51959-1.983h0.41748l-0.6648 2.5412h-0.49236l-0.54682-2.0829-0.54908 2.0829h-0.49236z"/>
   <path d="m-64.552 947.01h0.41748v2.5412h-0.41748zm0-0.98926h0.41748v0.52866h-0.41748z"/>
   <path d="m-61.151 948.02v1.5338h-0.41748v-1.5202q0-0.36076-0.14067-0.54001t-0.42202-0.17925q-0.33807 0-0.5332 0.21555t-0.19513 0.58766v1.4362h-0.41975v-2.5412h0.41975v0.39479q0.14975-0.22916 0.35169-0.34261 0.2042-0.11345 0.46967-0.11345 0.4379 0 0.66253 0.27228 0.22462 0.27 0.22462 0.79639z"/>
   <path d="m-58.642 947.4v-1.375h0.41748v3.5305h-0.41748v-0.38118q-0.1316 0.22689-0.33353 0.33807-0.19967 0.10891-0.48102 0.10891-0.4606 0-0.75102-0.36757-0.28816-0.36757-0.28816-0.96657t0.28816-0.96657q0.29042-0.36757 0.75102-0.36757 0.28135 0 0.48102 0.11118 0.20194 0.10891 0.33353 0.3358zm-1.4226 0.88716q0 0.4606 0.18832 0.72379 0.19059 0.26093 0.52186 0.26093t0.52186-0.26093q0.19059-0.26319 0.19059-0.72379 0-0.46059-0.19059-0.72152-0.19059-0.2632-0.52186-0.2632t-0.52186 0.2632q-0.18832 0.26093-0.18832 0.72152z"/>
   <path d="m-56.307 949.79q-0.17698 0.45379-0.34488 0.59219-0.1679 0.13841-0.44925 0.13841h-0.33354v-0.34942h0.24505q0.17244 0 0.26774-0.0817t0.21101-0.38572l0.07488-0.19059-1.0278-2.5004h0.44244l0.79413 1.9876 0.79413-1.9876h0.44244l-1.1163 2.7772z"/>
   <path d="m-52.722 946.29v0.72153h0.85993v0.32445h-0.85993v1.3795q0 0.31084 0.08395 0.39933 0.08622 0.0885 0.34715 0.0885h0.42883v0.34942h-0.42883q-0.48328 0-0.66707-0.17925-0.18378-0.18151-0.18378-0.65799v-1.3795h-0.30631v-0.32445h0.30631v-0.72153h0.41975z"/>
   <path d="m-49.838 947.4q-0.07034-0.0408-0.15429-0.059-0.08168-0.0204-0.18152-0.0204-0.35396 0-0.54455 0.23143-0.18832 0.22916-0.18832 0.66026v1.3387h-0.41975v-2.5412h0.41975v0.39479q0.1316-0.23143 0.34261-0.34261 0.21101-0.11345 0.51278-0.11345 0.04311 0 0.0953 7e-3 0.05219 5e-3 0.11572 0.0159l0.0023 0.42883z"/>
   <path d="m-48.241 948.27q-0.50597 0-0.7011 0.11572t-0.19513 0.3948q0 0.22235 0.14521 0.35395 0.14748 0.12933 0.39933 0.12933 0.34715 0 0.55589-0.24504 0.21101-0.24732 0.21101-0.65573v-0.093h-0.41522zm0.8327-0.17243v1.4498h-0.41748v-0.38572q-0.14294 0.23143-0.35622 0.34261-0.21328 0.10891-0.52186 0.10891-0.39026 0-0.62169-0.21782-0.22916-0.22009-0.22916-0.58766 0-0.42883 0.28589-0.64664 0.28816-0.21782 0.85766-0.21782h0.58539v-0.0408q0-0.28816-0.19059-0.44472-0.18832-0.15882-0.53093-0.15882-0.21782 0-0.42429 0.0522t-0.39706 0.15656v-0.38572q0.22916-0.0885 0.44471-0.1316 0.21555-0.0454 0.41975-0.0454 0.55135 0 0.82363 0.28589 0.27227 0.28589 0.27227 0.86674z"/>
   <path d="m-46.546 947.01h0.41748v2.5412h-0.41748zm0-0.98926h0.41748v0.52866h-0.41748z"/>
   <path d="m-45.257 946.02h0.41748v3.5305h-0.41748z"/>
   <path d="m-43.862 948.98h0.47875v0.39026l-0.37211 0.72606h-0.29269l0.18605-0.72606z"/>
  </g>
  <g transform="matrix(.40064 -.062964 .060237 .41655 -8.0281 -356.17)">
   <path d="m-40 948.38q-0.18062 0.46313-0.35198 0.60438-0.17136 0.14126-0.4585 0.14126h-0.3404v-0.35661h0.25009q0.17599 0 0.27324-0.0834 0.09726-0.0834 0.21536-0.39365l0.07642-0.19452-1.049-2.5518h0.45155l0.81047 2.0285 0.81047-2.0285h0.45155l-1.1393 2.8343z"/>
   <path d="m-37.267 945.85q-0.34272 0-0.54186 0.26861-0.19914 0.2663-0.19914 0.73174 0 0.46545 0.19683 0.73406 0.19914 0.2663 0.54418 0.2663 0.3404 0 0.53954-0.26862 0.19914-0.26861 0.19914-0.73174 0-0.46081-0.19914-0.72942-0.19914-0.27093-0.53954-0.27093zm0-0.36124q0.55575 0 0.873 0.36124 0.31724 0.36124 0.31724 1.0004 0 0.6368-0.31724 1.0004-0.31724 0.36124-0.873 0.36124-0.55807 0-0.87531-0.36124-0.31493-0.36356-0.31493-1.0004 0-0.63911 0.31493-1.0004 0.31724-0.36124 0.87531-0.36124z"/>
   <path d="m-35.417 947.12v-1.57h0.42608v1.5538q0 0.36819 0.14357 0.55344 0.14357 0.18294 0.43071 0.18294 0.34503 0 0.54418-0.21999 0.20146-0.21999 0.20146-0.59975v-1.4704h0.42608v2.5935h-0.42608v-0.39829q-0.15515 0.2362-0.36124 0.35198-0.20378 0.11347-0.47471 0.11347-0.44692 0-0.67848-0.27788t-0.23156-0.81279z"/>
   <path d="m-31.96 944.68v1.2852h-0.39366v-1.2852z"/>
   <path d="m-31.057 944.54h0.42608v3.6031h-0.42608z"/>
   <path d="m-29.741 944.54h0.42608v3.6031h-0.42608z"/>
   <path d="m-25.21 946.81q0-0.46313-0.1922-0.71785-0.18988-0.25472-0.53491-0.25472-0.34272 0-0.53491 0.25472-0.18988 0.25472-0.18988 0.71785 0 0.46081 0.18988 0.71554 0.1922 0.25472 0.53491 0.25472 0.34503 0 0.53491-0.25472 0.1922-0.25473 0.1922-0.71554zm0.42608 1.005q0 0.66227-0.29409 0.98415-0.29409 0.32419-0.90078 0.32419-0.22462 0-0.42376-0.0347-0.19914-0.0324-0.38671-0.10189v-0.4145q0.18757 0.10189 0.3705 0.15052 0.18294 0.0486 0.37282 0.0486 0.41913 0 0.62754-0.21999 0.20841-0.21767 0.20841-0.65995v-0.21073q-0.13199 0.22925-0.33808 0.34272-0.20609 0.11346-0.49323 0.11346-0.47702 0-0.76879-0.36355-0.29177-0.36356-0.29177-0.96331 0-0.60206 0.29177-0.96562 0.29177-0.36355 0.76879-0.36355 0.28714 0 0.49323 0.11346 0.20609 0.11347 0.33808 0.34272v-0.39366h0.42608v2.2716z"/>
   <path d="m-21.687 946.74v0.2084h-1.959q0.02779 0.43998 0.26398 0.67154 0.23851 0.22925 0.66227 0.22925 0.24546 0 0.47471-0.0602 0.23156-0.0602 0.4585-0.18062v0.40292q-0.22925 0.0973-0.47007 0.1482-0.24083 0.0509-0.4886 0.0509-0.62059 0-0.98415-0.36124-0.36124-0.36124-0.36124-0.9772 0-0.6368 0.34272-1.0096 0.34503-0.37513 0.92857-0.37513 0.52334 0 0.82668 0.33808 0.30566 0.33577 0.30566 0.91468zm-0.42608-0.12505q-0.0046-0.34966-0.19683-0.55807-0.18988-0.2084-0.50481-0.2084-0.35661 0-0.57196 0.20146-0.21304 0.20146-0.24546 0.56733l1.5191-2e-3z"/>
   <path d="m-20.567 944.81v0.73638h0.87763v0.33113h-0.87763v1.4079q0 0.31725 0.08568 0.40756 0.08799 0.0903 0.35429 0.0903h0.43766v0.3566h-0.43766q-0.49323 0-0.6808-0.18293-0.18757-0.18525-0.18757-0.67154v-1.4079h-0.31261v-0.33113h0.31261v-0.73638h0.42839z"/>
   <path d="m-15.75 945.65v0.39829q-0.18062-0.0996-0.36356-0.1482-0.18062-0.0509-0.36587-0.0509-0.4145 0-0.64375 0.26398-0.22925 0.26167-0.22925 0.73637 0 0.47471 0.22925 0.73869 0.22925 0.26167 0.64375 0.26167 0.18525 0 0.36587-0.0486 0.18294-0.0509 0.36356-0.15052v0.39366q-0.1783 0.0834-0.3705 0.12505-0.18988 0.0417-0.40524 0.0417-0.58586 0-0.93089-0.36819t-0.34503-0.99341q0-0.63448 0.34735-0.99804 0.34966-0.36355 0.95636-0.36355 0.19683 0 0.3844 0.0417 0.18757 0.0394 0.36356 0.12041z"/>
   <path d="m-15.005 944.54h0.42608v3.6031h-0.42608z"/>
   <path d="m-12.684 945.85q-0.34271 0-0.54186 0.26861-0.19914 0.2663-0.19914 0.73174 0 0.46545 0.19683 0.73406 0.19914 0.2663 0.54418 0.2663 0.3404 0 0.53954-0.26862 0.19914-0.26861 0.19914-0.73174 0-0.46081-0.19914-0.72942-0.19914-0.27093-0.53954-0.27093zm0-0.36124q0.55575 0 0.873 0.36124 0.31724 0.36124 0.31724 1.0004 0 0.6368-0.31724 1.0004-0.31724 0.36124-0.873 0.36124-0.55807 0-0.87531-0.36124-0.31493-0.36356-0.31493-1.0004 0-0.63911 0.31493-1.0004 0.31724-0.36124 0.87531-0.36124z"/>
   <path d="m-9.1367 945.62v0.40293q-0.18062-0.0926-0.37513-0.13894-0.19451-0.0463-0.40292-0.0463-0.31724 0-0.47702 0.0973-0.15746 0.0973-0.15746 0.29177 0 0.1482 0.11347 0.23388 0.11347 0.0834 0.45618 0.15978l0.14589 0.0324q0.45387 0.0973 0.64375 0.27556 0.1922 0.17599 0.1922 0.49323 0 0.36124-0.28714 0.57196-0.28482 0.21073-0.785 0.21073-0.20841 0-0.43534-0.0417-0.22462-0.0394-0.47471-0.12042v-0.43997q0.2362 0.12273 0.46544 0.18525 0.22925 0.0602 0.45387 0.0602 0.30103 0 0.46313-0.10189 0.16209-0.1042 0.16209-0.29177 0-0.17367-0.1181-0.2663-0.11578-0.0926-0.51176-0.1783l-0.1482-0.0347q-0.39597-0.0834-0.57196-0.25472-0.17599-0.17367-0.17599-0.4747 0-0.36587 0.25935-0.56502 0.25935-0.19914 0.73637-0.19914 0.2362 0 0.4446 0.0347 0.20841 0.0347 0.3844 0.1042z"/>
   <path d="m-6.0986 946.74v0.2084h-1.959q0.027788 0.43998 0.26398 0.67154 0.23851 0.22925 0.66227 0.22925 0.24546 0 0.47471-0.0602 0.23156-0.0602 0.4585-0.18062v0.40292q-0.22925 0.0973-0.47007 0.1482-0.24083 0.0509-0.4886 0.0509-0.62059 0-0.98415-0.36124-0.36124-0.36124-0.36124-0.9772 0-0.6368 0.34271-1.0096 0.34503-0.37513 0.92857-0.37513 0.52333 0 0.82668 0.33808 0.30566 0.33577 0.30566 0.91468zm-0.42608-0.12505q-0.00463-0.34966-0.19683-0.55807-0.18988-0.2084-0.50481-0.2084-0.35661 0-0.57196 0.20146-0.21304 0.20146-0.24546 0.56733l1.5191-2e-3z"/>
   <path d="m-5.6146 946.65h1.2481v0.37976h-1.2481z"/>
  </g>
  <g transform="matrix(.4013 -.06286 .060337 .41586 -8.0281 -356.17)">
   <path d="m-90.241 954.56q-0.33645 0-0.53195 0.2637-0.1955 0.26143-0.1955 0.71836t0.19323 0.72063q0.1955 0.26143 0.53422 0.26143 0.33417 0 0.52968-0.2637 0.1955-0.2637 0.1955-0.71836 0-0.45239-0.1955-0.71609-0.1955-0.26597-0.52968-0.26597zm0-0.35464q0.54559 0 0.85703 0.35464 0.31144 0.35463 0.31144 0.98206 0 0.62515-0.31144 0.98206-0.31144 0.35463-0.85703 0.35463-0.54786 0-0.8593-0.35463-0.30917-0.35691-0.30917-0.98206 0-0.62743 0.30917-0.98206 0.31144-0.35464 0.8593-0.35464z"/>
   <path d="m-87.092 953.28v0.34781h-0.4001q-0.22506 0-0.31371 0.0909-0.08639 0.0909-0.08639 0.32736v0.22505h0.68881v0.32508h-0.68881v2.221h-0.42056v-2.221h-0.4001v-0.32508h0.4001v-0.17732q0-0.4251 0.19778-0.61833 0.19778-0.1955 0.62743-0.1955h0.39555z"/>
   <path d="m-84.849 953.54v0.72291h0.86158v0.32508h-0.86158v1.3822q0 0.31145 0.08411 0.4001 0.08639 0.0887 0.34781 0.0887h0.42965v0.35009h-0.42965q-0.48421 0-0.66835-0.17959-0.18414-0.18186-0.18414-0.65926v-1.3822h-0.3069v-0.32508h0.3069v-0.72291h0.42056z"/>
   <path d="m-81.318 955.28v1.5368h-0.41828v-1.5231q0-0.36145-0.14094-0.54104t-0.42283-0.17959q-0.33872 0-0.53422 0.21596-0.1955 0.21597-0.1955 0.58879v1.439h-0.42056v-3.5372h0.42056v1.3867q0.15004-0.2296 0.35236-0.34326 0.2046-0.11367 0.47057-0.11367 0.43874 0 0.6638 0.2728 0.22506 0.27052 0.22506 0.79792z"/>
   <path d="m-78.301 955.44v0.2046h-1.9232q0.02728 0.43193 0.25916 0.65926 0.23415 0.22505 0.65016 0.22505 0.24097 0 0.46602-0.0591 0.22733-0.0591 0.45011-0.17732v0.39555q-0.22506 0.0955-0.46148 0.14549-0.23642 0.05-0.47966 0.05-0.60924 0-0.96615-0.35463-0.35463-0.35463-0.35463-0.95933 0-0.62515 0.33645-0.99115 0.33872-0.36828 0.91159-0.36828 0.51376 0 0.81156 0.3319 0.30008 0.32963 0.30008 0.89795zm-0.41829-0.12275q-0.0045-0.34327-0.19323-0.54787-0.18641-0.20459-0.49558-0.20459-0.35009 0-0.5615 0.19777-0.20914 0.19778-0.24097 0.55696l1.4913-2e-3z"/>
   <path d="m-73.955 955.44v0.2046h-1.9232q0.02728 0.43193 0.25916 0.65926 0.23415 0.22505 0.65016 0.22505 0.24097 0 0.46602-0.0591 0.22733-0.0591 0.45011-0.17732v0.39555q-0.22506 0.0955-0.46148 0.14549-0.23642 0.05-0.47966 0.05-0.60924 0-0.96615-0.35463-0.35463-0.35463-0.35463-0.95933 0-0.62515 0.33645-0.99115 0.33872-0.36828 0.91159-0.36828 0.51376 0 0.81157 0.3319 0.30007 0.32963 0.30007 0.89795zm-0.41829-0.12275q-0.0045-0.34327-0.19323-0.54787-0.18641-0.20459-0.49558-0.20459-0.35009 0-0.5615 0.19777-0.20914 0.19778-0.24097 0.55696l1.4913-2e-3z"/>
   <path d="m-73.268 953.28h0.41829v3.5372h-0.41829z"/>
   <path d="m-71.993 953.28h0.42056v2.0892l1.248-1.098h0.53422l-1.3503 1.1912 1.4072 1.3549h-0.54559l-1.2935-1.2435v1.2435h-0.42056z"/>
   <path d="m-65.678 955.28v1.5368h-0.41828v-1.5231q0-0.36145-0.14094-0.54104t-0.42283-0.17959q-0.33872 0-0.53422 0.21596-0.1955 0.21597-0.1955 0.58879v1.439h-0.42056v-3.5372h0.42056v1.3867q0.15004-0.2296 0.35236-0.34326 0.2046-0.11367 0.47057-0.11367 0.43875 0 0.6638 0.2728 0.22506 0.27052 0.22506 0.79792z"/>
   <path d="m-62.661 955.44v0.2046h-1.9232q0.02728 0.43193 0.25916 0.65926 0.23415 0.22505 0.65016 0.22505 0.24097 0 0.46602-0.0591 0.22733-0.0591 0.45011-0.17732v0.39555q-0.22506 0.0955-0.46148 0.14549-0.23642 0.05-0.47966 0.05-0.60924 0-0.96615-0.35463-0.35463-0.35463-0.35463-0.95933 0-0.62515 0.33645-0.99115 0.33872-0.36828 0.91159-0.36828 0.51376 0 0.81156 0.3319 0.30008 0.32963 0.30008 0.89795zm-0.41829-0.12275q-0.0045-0.34327-0.19323-0.54787-0.18641-0.20459-0.49558-0.20459-0.35009 0-0.5615 0.19777-0.20914 0.19778-0.24097 0.55696l1.4913-2e-3z"/>
   <path d="m-60.499 954.66q-0.07047-0.0409-0.15458-0.0591-0.08184-0.0205-0.18186-0.0205-0.35463 0-0.54559 0.23188-0.18868 0.2296-0.18868 0.66153v1.3412h-0.42056v-2.5461h0.42056v0.39555q0.13185-0.23187 0.34327-0.34326 0.21142-0.11367 0.51376-0.11367 0.04319 0 0.09548 7e-3 0.05228 5e-3 0.11594 0.0159l0.0023 0.42965z"/>
   <path d="m-58.462 954.65v-1.3776h0.41829v3.5372h-0.41829v-0.38191q-0.13185 0.22733-0.33417 0.33872-0.20005 0.10911-0.48194 0.10911-0.46148 0-0.75246-0.36827-0.28871-0.36827-0.28871-0.96842t0.28871-0.96842q0.29098-0.36828 0.75246-0.36828 0.28189 0 0.48194 0.11139 0.20232 0.10912 0.33417 0.33645zm-1.4254 0.88886q0 0.46148 0.18868 0.72518 0.19096 0.26143 0.52286 0.26143t0.52286-0.26143q0.19096-0.2637 0.19096-0.72518t-0.19096-0.72291q-0.19096-0.2637-0.52286-0.2637t-0.52286 0.2637q-0.18868 0.26143-0.18868 0.72291z"/>
   <path d="m-55.559 954.34v0.39555q-0.17732-0.0909-0.36827-0.13639-0.19096-0.0455-0.39555-0.0455-0.31144 0-0.4683 0.0955-0.15458 0.0955-0.15458 0.28643 0 0.14549 0.11139 0.22961 0.11139 0.0818 0.44784 0.15685l0.14322 0.0318q0.44556 0.0955 0.63198 0.27052 0.18868 0.17277 0.18868 0.48421 0 0.35464-0.28189 0.56151-0.27962 0.20686-0.77065 0.20686-0.2046 0-0.42738-0.0409-0.22051-0.0387-0.46602-0.11822v-0.43192q0.23188 0.12048 0.45693 0.18186 0.22506 0.0591 0.44556 0.0591 0.29553 0 0.45466-0.10003 0.15913-0.1023 0.15913-0.28643 0-0.1705-0.11594-0.26143-0.11366-0.0909-0.5024-0.17504l-0.14549-0.0341q-0.38873-0.0818-0.5615-0.25007-0.17277-0.17049-0.17277-0.46602 0-0.35918 0.25461-0.55468 0.25461-0.19551 0.72291-0.19551 0.23188 0 0.43647 0.0341t0.37737 0.1023z"/>
   <path d="m-54.696 956.24h0.47966v0.57742h-0.47966z"/>
  </g>
  <g transform="matrix(.39621 -.063668 .059571 .42121 -8.0281 -356.17)">
   <path d="m-48.083 943.2v1.2836h0.76032q0.38251 0 0.56555-0.15723 0.18539-0.15957 0.18539-0.48576 0-0.32853-0.18539-0.48341-0.18304-0.15723-0.56555-0.15723zm0-1.4408v1.056h0.70165q0.34731 0 0.51626-0.12907 0.17131-0.13141 0.17131-0.39893 0-0.26517-0.17131-0.39658-0.16896-0.13142-0.51626-0.13142zm-0.47403-0.38954h1.2109q0.54208 0 0.83541 0.22528t0.29333 0.64063q0 0.3215-0.15019 0.51158t-0.44117 0.23701q0.34965 0.0751 0.54208 0.31445 0.19477 0.23701 0.19477 0.59371 0 0.46933-0.31915 0.72512-0.31915 0.25578-0.90816 0.25578h-1.2578z"/>
   <path d="m-43.033 943.45v0.21119h-1.9853q0.02816 0.44587 0.26752 0.68054 0.24171 0.23232 0.67115 0.23232 0.24875 0 0.48106-0.061 0.23467-0.061 0.46464-0.18304v0.40832q-0.23232 0.0986-0.47637 0.15019-0.24405 0.0516-0.49515 0.0516-0.6289 0-0.99733-0.36608-0.36608-0.36608-0.36608-0.9903 0-0.64533 0.34731-1.0231 0.34965-0.38016 0.94101-0.38016 0.53035 0 0.83776 0.34261 0.30976 0.34027 0.30976 0.92694zm-0.43179-0.12672q-0.0047-0.35435-0.19947-0.56555-0.19243-0.2112-0.51157-0.2112-0.36139 0-0.57963 0.20416-0.21589 0.20416-0.24875 0.57493l1.5394-2e-3z"/>
   <path d="m-39.776 942.55q-0.3473 0-0.54912 0.27221-0.20181 0.26987-0.20181 0.74155t0.19947 0.74389q0.20181 0.26987 0.55146 0.26987 0.34496 0 0.54677-0.27222 0.20181-0.27221 0.20181-0.74154 0-0.46699-0.20181-0.7392-0.20181-0.27456-0.54677-0.27456zm0-0.36608q0.5632 0 0.88469 0.36608t0.32149 1.0138q0 0.64533-0.32149 1.0138-0.32149 0.36608-0.88469 0.36608-0.56554 0-0.88704-0.36608-0.31915-0.36843-0.31915-1.0138 0-0.64768 0.31915-1.0138 0.32149-0.36608 0.88704-0.36608z"/>
   <path d="m-35.672 943.29v1.5863h-0.43179v-1.5723q0-0.37312-0.14549-0.55851-0.14549-0.18538-0.43648-0.18538-0.34965 0-0.55146 0.22293t-0.20181 0.60779v1.4854h-0.43413v-2.6283h0.43413v0.40832q0.15488-0.23701 0.36373-0.35435 0.2112-0.11733 0.48576-0.11733 0.45291 0 0.68522 0.2816 0.23232 0.27925 0.23232 0.82368z"/>
   <path d="m-32.849 941.5v0.74624h0.88938v0.33557h-0.88938v1.4268q0 0.3215 0.08683 0.41302 0.08917 0.0915 0.35904 0.0915h0.44352v0.36138h-0.44352q-0.49984 0-0.68992-0.18538-0.19008-0.18774-0.19008-0.68054v-1.4268h-0.3168v-0.33557h0.3168v-0.74624h0.43413z"/>
   <path d="m-29.204 943.29v1.5863h-0.43179v-1.5723q0-0.37312-0.14549-0.55851-0.14549-0.18538-0.43648-0.18538-0.34965 0-0.55147 0.22293t-0.20181 0.60779v1.4854h-0.43413v-3.6514h0.43413v1.4315q0.15488-0.23701 0.36373-0.35435 0.2112-0.11733 0.48576-0.11733 0.45291 0 0.68522 0.2816 0.23232 0.27925 0.23232 0.82368z"/>
   <path d="m-26.09 943.45v0.21119h-1.9853q0.02816 0.44587 0.26752 0.68054 0.24171 0.23232 0.67115 0.23232 0.24875 0 0.48106-0.061 0.23467-0.061 0.46464-0.18304v0.40832q-0.23232 0.0986-0.47637 0.15019-0.24405 0.0516-0.49515 0.0516-0.6289 0-0.99733-0.36608-0.36608-0.36608-0.36608-0.9903 0-0.64533 0.34731-1.0231 0.34965-0.38016 0.94101-0.38016 0.53035 0 0.83776 0.34261 0.30976 0.34027 0.30976 0.92694zm-0.43179-0.12672q-0.0047-0.35435-0.19947-0.56555-0.19243-0.2112-0.51157-0.2112-0.36138 0-0.57962 0.20416-0.21589 0.20416-0.24875 0.57493l1.5394-2e-3z"/>
   <path d="m-23.851 941.23h0.43179v3.6514h-0.43179z"/>
   <path d="m-21.5 942.55q-0.34731 0-0.54912 0.27221-0.20181 0.26987-0.20181 0.74155t0.19947 0.74389q0.20181 0.26987 0.55146 0.26987 0.34496 0 0.54677-0.27222 0.20181-0.27221 0.20181-0.74154 0-0.46699-0.20181-0.7392-0.20181-0.27456-0.54677-0.27456zm0-0.36608q0.5632 0 0.88469 0.36608t0.32149 1.0138q0 0.64533-0.32149 1.0138-0.32149 0.36608-0.88469 0.36608-0.56554 0-0.88704-0.36608-0.31915-0.36843-0.31915-1.0138 0-0.64768 0.31915-1.0138 0.32149-0.36608 0.88704-0.36608z"/>
   <path d="m-18.562 942.55q-0.34731 0-0.54912 0.27221-0.20181 0.26987-0.20181 0.74155t0.19947 0.74389q0.20181 0.26987 0.55147 0.26987 0.34496 0 0.54677-0.27222 0.20181-0.27221 0.20181-0.74154 0-0.46699-0.20181-0.7392-0.20181-0.27456-0.54677-0.27456zm0-0.36608q0.5632 0 0.88469 0.36608t0.32149 1.0138q0 0.64533-0.32149 1.0138-0.32149 0.36608-0.88469 0.36608-0.56555 0-0.88704-0.36608-0.31915-0.36843-0.31915-1.0138 0-0.64768 0.31915-1.0138 0.32149-0.36608 0.88704-0.36608z"/>
   <path d="m-16.659 941.23h0.43413v2.1566l1.2883-1.1334h0.55147l-1.3939 1.2296 1.4526 1.3986h-0.5632l-1.3353-1.2836v1.2836h-0.43413z"/>
   <path d="m-11.306 942.55q-0.34731 0-0.54912 0.27221-0.20181 0.26987-0.20181 0.74155t0.19947 0.74389q0.20181 0.26987 0.55146 0.26987 0.34496 0 0.54677-0.27222 0.20181-0.27221 0.20181-0.74154 0-0.46699-0.20181-0.7392-0.20181-0.27456-0.54677-0.27456zm0-0.36608q0.5632 0 0.88469 0.36608t0.32149 1.0138q0 0.64533-0.32149 1.0138-0.32149 0.36608-0.88469 0.36608-0.56554 0-0.88704-0.36608-0.31915-0.36843-0.31915-1.0138 0-0.64768 0.31915-1.0138 0.32149-0.36608 0.88704-0.36608z"/>
   <path d="m-9.4312 943.84v-1.591h0.43179v1.5746q0 0.37312 0.14549 0.56085 0.14549 0.18539 0.43648 0.18539 0.34965 0 0.55147-0.22293 0.20416-0.22294 0.20416-0.60779v-1.4901h0.43179v2.6283h-0.43179v-0.40362q-0.15723 0.23936-0.36608 0.35669-0.20651 0.11499-0.48107 0.11499-0.45291 0-0.68757-0.2816-0.23467-0.2816-0.23467-0.82368z"/>
   <path d="m-5.9089 941.5v0.74624h0.88938v0.33557h-0.88938v1.4268q0 0.3215 0.086826 0.41302 0.089173 0.0915 0.35904 0.0915h0.44352v0.36138h-0.44352q-0.49984 0-0.68992-0.18538-0.19008-0.18774-0.19008-0.68054v-1.4268h-0.3168v-0.33557h0.3168v-0.74624h0.43413z"/>
  </g>
  <g transform="matrix(.40225 -.062712 .060479 .41488 -8.0281 -356.17)">
   <path d="m-91.58 963.24h0.43224l0.54029 2.0531 0.53795-2.0531h0.50976l0.5403 2.0531 0.53794-2.0531h0.43224l-0.68829 2.631h-0.50976l-0.56614-2.1565-0.56848 2.1565h-0.50976z"/>
   <path d="m-87.392 963.24h0.43224v2.631h-0.43224zm0-1.0242h0.43224v0.54734h-0.43224z"/>
   <path d="m-86.058 962.21h0.43224v3.6552h-0.43224z"/>
   <path d="m-82.992 963.64v-1.4236h0.43224v3.6552h-0.43224v-0.39465q-0.13625 0.23491-0.34532 0.35002-0.20672 0.11276-0.49801 0.11276-0.47687 0-0.77755-0.38056-0.29834-0.38055-0.29834-1.0007 0-0.62016 0.29834-1.0007 0.30069-0.38055 0.77755-0.38055 0.29129 0 0.49801 0.1151 0.20907 0.11276 0.34532 0.34767zm-1.4729 0.9185q0 0.47687 0.19498 0.74937 0.19732 0.27014 0.54029 0.27014t0.54029-0.27014q0.19732-0.2725 0.19732-0.74937t-0.19732-0.74701q-0.19732-0.2725-0.54029-0.2725t-0.54029 0.2725q-0.19498 0.27014-0.19498 0.74701z"/>
   <path d="m-81.669 962.21h0.43224v3.6552h-0.43224z"/>
   <path d="m-80.335 963.24h0.43224v2.631h-0.43224zm0-1.0242h0.43224v0.54734h-0.43224z"/>
   <path d="m-77.669 962.21v0.35942h-0.41344q-0.23256 0-0.32418 0.094-0.08927 0.094-0.08927 0.33827v0.23256h0.71178v0.33593h-0.71178v2.2951h-0.43458v-2.2951h-0.41344v-0.33593h0.41344v-0.18323q0-0.43928 0.20437-0.63895 0.20437-0.20203 0.64835-0.20203h0.40874z"/>
   <path d="m-75.059 964.44v0.21142h-1.9873q0.02819 0.44633 0.2678 0.68124 0.24196 0.23256 0.67184 0.23256 0.249 0 0.48157-0.0611 0.23491-0.0611 0.46512-0.18323v0.40874q-0.23256 0.0987-0.47687 0.15035-0.24431 0.0517-0.49566 0.0517-0.62956 0-0.99837-0.36647-0.36646-0.36646-0.36646-0.99132 0-0.646 0.34767-1.0242 0.35002-0.38055 0.94199-0.38055 0.5309 0 0.83863 0.34297 0.31008 0.34062 0.31008 0.92789zm-0.43224-0.12685q-0.0047-0.35471-0.19967-0.56613-0.19263-0.21142-0.5121-0.21142-0.36176 0-0.58023 0.20437-0.21612 0.20437-0.249 0.57553l1.541-2e-3z"/>
   <path d="m-74.289 965.27h0.49566v0.59667h-0.49566z"/>
   <path d="m-70.363 965.87-1.339-3.5072h0.49566l1.1111 2.9528 1.1135-2.9528h0.49331l-1.3366 3.5072z"/>
   <path d="m-67.354 963.54q-0.34767 0-0.54969 0.27249-0.20202 0.27015-0.20202 0.74232t0.19967 0.74467q0.20202 0.27014 0.55204 0.27014 0.34532 0 0.54734-0.27249 0.20202-0.2725 0.20202-0.74232 0-0.46747-0.20202-0.73997-0.20202-0.27484-0.54734-0.27484zm0-0.36646q0.56379 0 0.88561 0.36646 0.32183 0.36646 0.32183 1.0148 0 0.64601-0.32183 1.0148-0.32183 0.36647-0.88561 0.36647-0.56613 0-0.88796-0.36647-0.31948-0.3688-0.31948-1.0148 0-0.64835 0.31948-1.0148 0.32183-0.36646 0.88796-0.36646z"/>
   <path d="m-65.432 962.21h0.43224v3.6552h-0.43224z"/>
   <path d="m-64.143 964.83v-1.5927h0.43224v1.5762q0 0.37351 0.14564 0.56144 0.14564 0.18558 0.43693 0.18558 0.35002 0 0.55204-0.22317 0.20437-0.22316 0.20437-0.60841v-1.4917h0.43224v2.631h-0.43224v-0.40404q-0.15739 0.2396-0.36646 0.35706-0.20672 0.11511-0.48157 0.11511-0.45338 0-0.68829-0.2819-0.23491-0.28189-0.23491-0.82453z"/>
   <path d="m-58.857 964.28v1.588h-0.43224v-1.5739q0-0.37351-0.14564-0.55909t-0.43693-0.18558q-0.35002 0-0.55204 0.22317-0.20202 0.22316-0.20202 0.60842v1.487h-0.43458v-2.631h0.43458v0.40875q0.15504-0.23726 0.36411-0.35472 0.21142-0.11745 0.48626-0.11745 0.45338 0 0.68594 0.28189 0.23256 0.27954 0.23256 0.82454z"/>
   <path d="m-57.563 962.49v0.74701h0.89031v0.33593h-0.89031v1.4282q0 0.32183 0.08692 0.41344 0.08927 0.0916 0.35941 0.0916h0.44398v0.36176h-0.44398q-0.50036 0-0.69064-0.18558-0.19028-0.18793-0.19028-0.68124v-1.4282h-0.31713v-0.33593h0.31713v-0.74701h0.43458z"/>
   <path d="m-53.851 964.44v0.21142h-1.9873q0.02819 0.44633 0.2678 0.68124 0.24196 0.23256 0.67184 0.23256 0.249 0 0.48157-0.0611 0.23491-0.0611 0.46512-0.18323v0.40874q-0.23256 0.0987-0.47687 0.15035-0.24431 0.0517-0.49566 0.0517-0.62956 0-0.99837-0.36647-0.36646-0.36646-0.36646-0.99132 0-0.646 0.34767-1.0242 0.35002-0.38055 0.94199-0.38055 0.5309 0 0.83863 0.34297 0.31008 0.34062 0.31008 0.92789zm-0.43224-0.12685q-0.0047-0.35471-0.19967-0.56613-0.19263-0.21142-0.5121-0.21142-0.36176 0-0.58023 0.20437-0.21612 0.20437-0.24901 0.57553l1.541-2e-3z"/>
   <path d="m-50.891 964.44v0.21142h-1.9873q0.02819 0.44633 0.2678 0.68124 0.24196 0.23256 0.67184 0.23256 0.24901 0 0.48157-0.0611 0.23491-0.0611 0.46512-0.18323v0.40874q-0.23256 0.0987-0.47687 0.15035-0.24431 0.0517-0.49566 0.0517-0.62956 0-0.99837-0.36647-0.36646-0.36646-0.36646-0.99132 0-0.646 0.34767-1.0242 0.35002-0.38055 0.94199-0.38055 0.5309 0 0.83863 0.34297 0.31008 0.34062 0.31008 0.92789zm-0.43224-0.12685q-0.0047-0.35471-0.19967-0.56613-0.19263-0.21142-0.5121-0.21142-0.36176 0-0.58023 0.20437-0.21612 0.20437-0.249 0.57553l1.541-2e-3z"/>
   <path d="m-48.657 963.64q-0.07282-0.0423-0.15974-0.0611-0.08457-0.0211-0.18793-0.0211-0.36646 0-0.56378 0.23961-0.19498 0.23726-0.19498 0.68359v1.386h-0.43458v-2.631h0.43458v0.40875q0.13625-0.23961 0.35472-0.35472 0.21847-0.11745 0.5309-0.11745 0.04463 0 0.09866 7e-3 0.05403 5e-3 0.1198 0.0164l0.0023 0.44398z"/>
   <path d="m-46.522 963.31v0.40875q-0.18323-0.094-0.38056-0.14095-0.19732-0.047-0.40874-0.047-0.32183 0-0.48392 0.0987-0.15974 0.0987-0.15974 0.29599 0 0.15034 0.11511 0.23726 0.11511 0.0846 0.46277 0.16209l0.14799 0.0329q0.46042 0.0987 0.65305 0.27955 0.19498 0.17853 0.19498 0.50036 0 0.36646-0.29129 0.58023-0.28894 0.21377-0.79635 0.21377-0.21142 0-0.44163-0.0423-0.22786-0.0399-0.48157-0.12215v-0.44633q0.23961 0.1245 0.47217 0.18793 0.23256 0.0611 0.46042 0.0611 0.30538 0 0.46982-0.10336 0.16444-0.10571 0.16444-0.29598 0-0.17619-0.1198-0.27015-0.11746-0.094-0.51915-0.18088l-0.15034-0.0352q-0.4017-0.0846-0.58023-0.2584-0.17853-0.17618-0.17853-0.48157 0-0.37116 0.2631-0.57318t0.74702-0.20202q0.23961 0 0.45103 0.0352t0.38995 0.10571z"/>
   <path d="m-42.963 964.54q-0.52385 0-0.72587 0.11981-0.20202 0.1198-0.20202 0.40874 0 0.23022 0.15034 0.36646 0.15269 0.1339 0.41344 0.1339 0.35941 0 0.57553-0.2537 0.21847-0.25605 0.21847-0.67889v-0.0963h-0.42989zm0.86212-0.17853v1.5011h-0.43224v-0.39935q-0.14799 0.23961-0.36881 0.35472-0.22082 0.11276-0.5403 0.11276-0.40405 0-0.64366-0.22552-0.23726-0.22786-0.23726-0.60842 0-0.44398 0.29599-0.66949 0.29834-0.22552 0.88796-0.22552h0.60607v-0.0423q0-0.29834-0.19732-0.46043-0.19498-0.16443-0.54969-0.16443-0.22552 0-0.43928 0.054-0.21377 0.054-0.41109 0.16209v-0.39935q0.23726-0.0916 0.46042-0.13625 0.22316-0.047 0.43458-0.047 0.57083 0 0.85272 0.29598 0.28189 0.29599 0.28189 0.89736z"/>
   <path d="m-41.208 962.21h0.43224v3.6552h-0.43224z"/>
   <path d="m-38.855 963.54q-0.34767 0-0.54969 0.27249-0.20202 0.27015-0.20202 0.74232t0.19967 0.74467q0.20202 0.27014 0.55204 0.27014 0.34532 0 0.54734-0.27249 0.20202-0.2725 0.20202-0.74232 0-0.46747-0.20202-0.73997-0.20202-0.27484-0.54734-0.27484zm0-0.36646q0.56378 0 0.88561 0.36646t0.32183 1.0148q0 0.64601-0.32183 1.0148-0.32183 0.36647-0.88561 0.36647-0.56614 0-0.88796-0.36647-0.31948-0.3688-0.31948-1.0148 0-0.64835 0.31948-1.0148 0.32183-0.36646 0.88796-0.36646z"/>
   <path d="m-34.746 964.28v1.588h-0.43224v-1.5739q0-0.37351-0.14564-0.55909t-0.43693-0.18558q-0.35002 0-0.55204 0.22317-0.20202 0.22316-0.20202 0.60842v1.487h-0.43458v-2.631h0.43458v0.40875q0.15504-0.23726 0.36411-0.35472 0.21142-0.11745 0.48626-0.11745 0.45338 0 0.68594 0.28189 0.23256 0.27954 0.23256 0.82454z"/>
   <path d="m-32.148 964.52q0-0.46982-0.19498-0.72822-0.19263-0.2584-0.54264-0.2584-0.34767 0-0.54264 0.2584-0.19263 0.2584-0.19263 0.72822 0 0.46748 0.19263 0.72588 0.19498 0.2584 0.54264 0.2584 0.35002 0 0.54264-0.2584 0.19498-0.2584 0.19498-0.72588zm0.43224 1.0195q0 0.67184-0.29834 0.99837-0.29834 0.32887-0.9138 0.32887-0.22786 0-0.42989-0.0352-0.20202-0.0329-0.3923-0.10336v-0.42049q0.19028 0.10336 0.37586 0.1527 0.18558 0.0493 0.37821 0.0493 0.42519 0 0.63661-0.22317 0.21142-0.22081 0.21142-0.66949v-0.21377q-0.1339 0.23256-0.34297 0.34767-0.20907 0.1151-0.50036 0.1151-0.48392 0-0.7799-0.36881-0.29599-0.36881-0.29599-0.97723 0-0.61076 0.29599-0.97957t0.7799-0.36881q0.29129 0 0.50036 0.1151 0.20907 0.11511 0.34297 0.34767v-0.39935h0.43224v2.3045z"/>
  </g>
  <g transform="matrix(.40225 -.062712 .060479 .41488 -8.0281 -356.17)">
   <path d="m-28.91 962.44v0.74701h0.89031v0.33592h-0.89031v1.4283q0 0.32183 0.08692 0.41344 0.08927 0.0916 0.35941 0.0916h0.44398v0.36176h-0.44398q-0.50036 0-0.69064-0.18558-0.19028-0.18793-0.19028-0.68124v-1.4283h-0.31713v-0.33592h0.31713v-0.74701h0.43458z"/>
   <path d="m-25.262 964.23v1.588h-0.43224v-1.5739q0-0.37351-0.14564-0.55909t-0.43693-0.18558q-0.35002 0-0.55204 0.22317-0.20202 0.22316-0.20202 0.60842v1.487h-0.43458v-3.6552h0.43458v1.433q0.15504-0.23726 0.36411-0.35472 0.21142-0.11745 0.48626-0.11745 0.45338 0 0.68594 0.28189 0.23256 0.27954 0.23256 0.82453z"/>
   <path d="m-22.145 964.39v0.21142h-1.9873q0.02819 0.44633 0.2678 0.68124 0.24196 0.23256 0.67184 0.23256 0.249 0 0.48157-0.0611 0.23491-0.0611 0.46512-0.18323v0.40874q-0.23256 0.0987-0.47687 0.15034-0.24431 0.0517-0.49566 0.0517-0.62956 0-0.99837-0.36646-0.36646-0.36646-0.36646-0.99132 0-0.646 0.34767-1.0242 0.35002-0.38055 0.94199-0.38055 0.5309 0 0.83863 0.34297 0.31008 0.34062 0.31008 0.92789zm-0.43224-0.12685q-0.0047-0.35471-0.19967-0.56613-0.19263-0.21142-0.5121-0.21142-0.36176 0-0.58023 0.20437-0.21612 0.20437-0.249 0.57553l1.541-2e-3z"/>
   <path d="m-20.155 963.19h0.43224l0.54029 2.0531 0.53794-2.0531h0.50976l0.54029 2.0531 0.53794-2.0531h0.43224l-0.68829 2.631h-0.50976l-0.56613-2.1565-0.56848 2.1565h-0.50976z"/>
   <path d="m-14.771 964.49q-0.52385 0-0.72587 0.11981-0.20202 0.1198-0.20202 0.40874 0 0.23022 0.15034 0.36646 0.15269 0.1339 0.41344 0.1339 0.35941 0 0.57553-0.2537 0.21847-0.25605 0.21847-0.67889v-0.0963h-0.42989zm0.86212-0.17853v1.5011h-0.43224v-0.39935q-0.14799 0.23961-0.36881 0.35472-0.22082 0.11275-0.54029 0.11275-0.40405 0-0.64366-0.22551-0.23726-0.22786-0.23726-0.60842 0-0.44398 0.29599-0.66949 0.29834-0.22552 0.88796-0.22552h0.60607v-0.0423q0-0.29834-0.19732-0.46043-0.19498-0.16443-0.54969-0.16443-0.22551 0-0.43928 0.054t-0.41109 0.16208v-0.39934q0.23726-0.0916 0.46042-0.13625 0.22316-0.047 0.43458-0.047 0.57083 0 0.85273 0.29598 0.28189 0.29599 0.28189 0.89736z"/>
   <path d="m-11.921 966.06q-0.18323 0.46982-0.35706 0.61311-0.17383 0.1433-0.46512 0.1433h-0.34532v-0.36176h0.2537q0.17853 0 0.27719-0.0846t0.21847-0.39935l0.07752-0.19732-1.0641-2.5887h0.45808l0.82219 2.0578 0.82219-2.0578h0.45808l-1.1558 2.8753z"/>
  </g>
 </g>
 <g transform="matrix(2.2511 -.019543 -.027022 2.3955 103.74 -609.58)" fill="#fff" stroke="#fff" stroke-width=".081384" aria-label="WRITER">
  <path d="m-34.977 257.52h0.30282l0.46611 1.8734 0.46463-1.8734h0.33696l0.46611 1.8734 0.46462-1.8734h0.30431l-0.55666 2.2162h-0.37704l-0.46759-1.9238-0.47205 1.9238h-0.37704z"/>
  <path d="m-30.724 258.69q0.09649 0.0327 0.18704 0.13954 0.09203 0.10688 0.18407 0.29392l0.30431 0.60564h-0.32212l-0.28352-0.56853q-0.10985-0.22267-0.21376-0.2954-0.10242-0.0727-0.28056-0.0727h-0.32657v0.93667h-0.29985v-2.2162h0.6769q0.38001 0 0.56705 0.15884 0.18704 0.15883 0.18704 0.47947 0 0.2093-0.09797 0.34735-0.09649 0.13805-0.28204 0.19149zm-0.75112-0.93073v0.78674h0.37704q0.21673 0 0.32657-0.0994 0.11133-0.10094 0.11133-0.2954t-0.11133-0.29244q-0.10985-0.0994-0.32657-0.0994z"/>
  <path d="m-29.661 257.52h0.29985v2.2162h-0.29985z"/>
  <path d="m-29.071 257.52h1.8748v0.25236h-0.78675v1.9639h-0.30134v-1.9639h-0.78675z"/>
  <path d="m-26.906 257.52h1.4013v0.25236h-1.1014v0.65611h1.0554v0.25235h-1.0554v0.80308h1.1282v0.25235h-1.428z"/>
  <path d="m-23.931 258.69q0.09649 0.0327 0.18704 0.13954 0.09203 0.10688 0.18407 0.29392l0.30431 0.60564h-0.32212l-0.28353-0.56853q-0.10985-0.22267-0.21376-0.2954-0.10242-0.0727-0.28056-0.0727h-0.32657v0.93667h-0.29985v-2.2162h0.6769q0.38001 0 0.56705 0.15884 0.18704 0.15883 0.18704 0.47947 0 0.2093-0.09797 0.34735-0.09649 0.13805-0.28204 0.19149zm-0.75112-0.93073v0.78674h0.37704q0.21673 0 0.32657-0.0994 0.11133-0.10094 0.11133-0.2954t-0.11133-0.29244q-0.10985-0.0994-0.32657-0.0994z"/>
 </g>
 <g transform="matrix(.5486 .14823 -.14823 .5486 68.963 24.103)" fill-rule="evenodd" filter="url(#ab)" opacity=".25" stroke-width="1.7597">
  <path d="m-34.319 29.446c-0.67481-0.75186-0.37078-1.1158-0.09693-1.8792 0.12206-0.34035 8.7344-25.85 8.8376-26.212 0.10334-0.3616 0.86873-0.67167 1.4972-0.74905 0.69929-0.08616 1.5101-0.06456 2.7749 0.40036 1.2906 0.59406 2.3232 1.6401 2.1941 2.2213-0.31001 1.3959-7.2253 26.716-7.9222 27.93-0.69694 1.2139-7.2846-1.7115-7.2846-1.7115z"/>
  <path transform="matrix(.40068 0 0 .40092 -90.945 -2.5306)" d="m141.77 79.75c-1.6339-1.8193-0.81085-3.6738-0.14794-5.5211 0.29555-0.82358 21.148-62.551 21.398-63.426l0.25977-2.8516c-0.27011 0.94536-22.798 67.638-23.117 68.527-0.71623 1.9958-2.7508 1.7974-0.98549 3.7631zm17.702 6.1156c1.8232-3.1737 19.914-69.37 20.725-73.02l-1.5195 2.4883c-0.75061 3.3778-17.494 64.646-19.182 67.584z" clip-path="url(#g)" fill-opacity=".99608" filter="url(#e)" opacity=".732"/>
  <path d="m-34.173 29.665c-0.49283-0.49313-0.56584-0.8036-0.49283-0.96799 0.07304-0.16442 1.0222-0.34699 2.5736-0.25568 1.6152 0.09521 3.9973 1.1324 4.9465 2.2282 0.94914 1.0958-1.953 0.98624-1.953 0.98624z"/>
  <path d="m-40.999 53.791c-0.30974-1.7564-0.2065-1.6272-0.2065-1.9888s6.8147-22.264 6.9179-22.626c0.10318-0.3616 0.33558-0.56826 0.7744-0.59406 0.43882-0.02577 2.2716-0.07756 4.5431 1.059 0.95508 0.54241 1.7295 0.72322 1.3165 2.0922-0.413 1.3689-6.6598 22.135-7.3567 23.349-0.69694 1.214-5.9886-1.2914-5.9886-1.2914z"/>
  <path d="m-41.162 51.849c-1.2648 2.712-4.4325 14.444-4.1228 14.78 0.30976 0.33578 5.1626 2.5054 5.5756 2.2213 0.41301-0.28413 0.56789-0.61988 0.74857-1.0848 0.1807-0.46494 4.2857-12.629 4.4664-13.791-0.72276-1.5239-3.9833-2.5899-6.6679-2.125z" opacity="1"/>
  <path transform="matrix(.41301 0 0 .41326 -92.909 -355.36)" d="m144.94 918.83 1.4375 0.96875h2.0312s0.96875 0.15625 1.5938-1.5312 14.361-43.792 16.173-49.25c0.59662-1.7236-0.37565-2.0771-0.81759-2.1213-0.44195-0.0442-4.2647 3.0936-4.2647 3.0936z" filter="url(#d)" opacity=".615"/>
  <path d="m-33.178 24.179 0.5937 0.40034h0.83892s0.40011 0.06456 0.65823-0.6328c0.25814-0.69738 5.9313-18.098 6.6797-20.353 0.24642-0.71229-0.15517-0.8584-0.33767-0.87666-0.18252-0.01858-1.7614 1.2785-1.7614 1.2785z"/>
  <path d="m-33.281 23.462c-0.14205 0.51659-0.18071 0.71029 0.16777 0.75548 0.34847 0.04505 1.0196 0.06456 1.1874 0.06456s0.413-0.05806 0.55498-0.54884l0.14188-0.49074s6.3425-19.416 6.4885-19.873c0.14595-0.4566 0.26011-0.84925-0.30116-0.84925h-0.94001c-0.2738 0-0.54836-0.07245-0.74379 0.65748-0.19545 0.72987-6.5557 20.284-6.5557 20.284z"/>
  <path d="m-26.186 2.5205c-0.2019 0.01394-0.39307 0.10961-0.53966 0.65702-0.19545 0.72984-6.5557 20.284-6.5557 20.284-0.02561 0.09312-0.04247 0.16418-0.05963 0.23729 0.02113 0.09475 0.05542 0.13074 0.11131 0.13074 0.11614 0 1.0712 0.03878 1.1616 0.03878 0.09039 0 0.2065 0 0.32267-0.3616 0.11614-0.36162 6.4164-19.421 6.5533-19.749 0.13689-0.32876 0.32804-1.0414 0.01788-1.1236-0.08226-0.0209-0.25199-0.06618-0.43317-0.11379h-0.37429c-0.06852 0-0.13673-0.0047-0.20409 0z"/>
  <path d="m-45.06 74.746c-0.14142 0.33562 0.06385 0.64835 0.28976 0.70544 0.22586 0.05714 0.51792-0.10056 0.67762-0.39723 0.15969-0.29681-0.7917-0.39952-0.96739-0.30821z"/>
  <path d="m-45.104 73.995s-0.14829 0.76249-0.05932 0.77849c0.08897 0.01622 0.68677-0.12796 1.0472 0.31048l0.56584-0.67808s-0.78486-0.86751-1.5538-0.4109z"/>
  <path transform="matrix(.41301 0 0 .41326 -92.909 -355.36)" d="m115.35 1039.2s0.50781-0.098 0.73828-0.1094c0.23047-0.012 0.82422 0.021 1.1502 0.1089 0.32594 0.088 1.2209 0.4696 1.5137 0.6353 0.29278 0.1657 0.97227 0.3757 0.97227 0.3757l-0.21545-1.3479-4.0603-0.072z" clip-path="url(#h)" filter="url(#f)"/>
  <path d="m-45.27 74.064s0.20973-0.04043 0.3049-0.04504c0.09522-0.0049 0.34042 0.0093 0.47504 0.04504 0.13455 0.03644 0.50423 0.19414 0.62514 0.26253 0.12096 0.06851 0.40156 0.15536 0.40156 0.15536l-0.08897-0.55704-1.677-0.02974z"/>
  <path d="m-39.817 67.469-0.52432 0.78699-3.4743 6.0237c0.11207 0.05923 0.22696 0.12168 0.35252 0.20413 0 0 4.1064-5.8255 4.2342-6.0447 0.10474-0.17974-0.23197-0.6755-0.58807-0.9702z"/>
  <path d="m-40.1 68.073c-0.36561-0.06058-1.0672 1.2543-1.0672 1.2543s-2.5614 3.8948-2.6942 4.9252c0.07056 0.03601 0.14908 0.0857 0.22505 0.13074 0.15547-0.21992 2.3915-3.3859 2.7531-4.0099 0.37429-0.64571 1.2003-1.6014 0.91637-2.1825-0.03543-0.07269-0.08087-0.10914-0.13316-0.11797z"/>
  <path d="m-40.231 67.217c-0.05417 0.09243-3.436 5.8704-3.6332 7.0335 0.05338 0.02716 0.11379 0.06688 0.17021 0.0994l3.9607-6.8107c-0.10457-0.09661-0.21354-0.17882-0.31621-0.23246-0.04418-0.02323-0.12315-0.0604-0.1815-0.08964z"/>
  <path d="m-40.66 67.014-3.4283 7.1384c0.11567 0.04786 0.24026 0.10961 0.37348 0.18485l3.6429-7.0424c-0.13534-0.07037-0.34562-0.17046-0.58805-0.2809z"/>
  <path d="m-40.927 66.896c-0.15867 0.27496-3.5527 6.1715-3.3372 7.182 0.08196 0.02783 0.17478 0.07036 0.267 0.11216l3.5735-7.069c-0.14518-0.06944-0.31714-0.14538-0.50335-0.22526z"/>
  <path d="m-41.046 66.843-3.2831 5.3256 0.28396 2.0017c0.01555 0.0069 0.02918 0.01161 0.04432 0.01856l3.2105-7.2329c-0.0857-0.03785-0.16197-0.07385-0.2557-0.11309z"/>
  <path d="m-44.162 66.142c-0.18405-0.0025-0.34971 0.0025-0.51222 0.01161l-0.55741 7.8939c0.07135-0.03834 0.40074-0.17673 1.047 0.06456l0.13392 0.06058 3.0863-7.2926c-0.49022-0.20877-1.0805-0.42762-1.6778-0.55934-0.53846-0.11867-1.0589-0.16929-1.5198-0.17835z"/>
  <path d="m-44.596 66.151c-0.21159 0.0069-0.40119 0.02089-0.56949 0.04203-0.05433 0.05757-0.1091 0.11472-0.15893 0.17441l0.054 7.659c0.0079 0.01628 0.0079 0.01628 0.01416 0.03158 0.0079-0.0049 0.03262-0.02089 0.0896-0.03951z"/>
  <path d="m-44.921 66.167c-0.14393 0.01161-0.28695 0.02507-0.40332 0.0427l0.0548 7.8536s0.03417-0.01395 0.04839-0.02089z"/>
 </g>
 <g transform="matrix(.5486 .14823 -.14823 .5486 68.963 24.103)" fill-rule="evenodd" stroke-width="1.7597">
  <path d="m-34.319 29.446c-0.67481-0.75186-0.37078-1.1158-0.09693-1.8792 0.12206-0.34035 8.7344-25.85 8.8376-26.212 0.10334-0.3616 0.86873-0.67167 1.4972-0.74905 0.69929-0.08616 1.5101-0.06456 2.7749 0.40036 1.2906 0.59406 2.3232 1.6401 2.1941 2.2213-0.31001 1.3959-7.2253 26.716-7.9222 27.93-0.69694 1.2139-7.2846-1.7115-7.2846-1.7115z" fill="url(#s)"/>
  <path transform="matrix(.40068 0 0 .40092 -90.945 -2.5306)" d="m141.77 79.75c-1.6339-1.8193-0.81085-3.6738-0.14794-5.5211 0.29555-0.82358 21.148-62.551 21.398-63.426l0.25977-2.8516c-0.27011 0.94536-22.798 67.638-23.117 68.527-0.71623 1.9958-2.7508 1.7974-0.98549 3.7631zm17.702 6.1156c1.8232-3.1737 19.914-69.37 20.725-73.02l-1.5195 2.4883c-0.75061 3.3778-17.494 64.646-19.182 67.584z" clip-path="url(#g)" fill="#501a00" fill-opacity=".99608" filter="url(#e)" opacity=".732"/>
  <path d="m-34.173 29.665c-0.49283-0.49313-0.56584-0.8036-0.49283-0.96799 0.07304-0.16442 1.0222-0.34699 2.5736-0.25568 1.6152 0.09521 3.9973 1.1324 4.9465 2.2282 0.94914 1.0958-1.953 0.98624-1.953 0.98624z" fill="#713e07"/>
  <path d="m-40.999 53.791c-0.30974-1.7564-0.2065-1.6272-0.2065-1.9888s6.8147-22.264 6.9179-22.626c0.10318-0.3616 0.33558-0.56826 0.7744-0.59406 0.43882-0.02577 2.2716-0.07756 4.5431 1.059 0.95508 0.54241 1.7295 0.72322 1.3165 2.0922-0.413 1.3689-6.6598 22.135-7.3567 23.349-0.69694 1.214-5.9886-1.2914-5.9886-1.2914z" fill="url(#t)"/>
  <path d="m-41.162 51.849c-1.2648 2.712-4.4325 14.444-4.1228 14.78 0.30976 0.33578 5.1626 2.5054 5.5756 2.2213 0.41301-0.28413 0.56789-0.61988 0.74857-1.0848 0.1807-0.46494 4.2857-12.629 4.4664-13.791-0.72276-1.5239-3.9833-2.5899-6.6679-2.125z" fill="url(#o)"/>
  <path transform="matrix(.41301 0 0 .41326 -92.909 -355.36)" d="m144.94 918.83 1.4375 0.96875h2.0312s0.96875 0.15625 1.5938-1.5312 14.361-43.792 16.173-49.25c0.59662-1.7236-0.37565-2.0771-0.81759-2.1213-0.44195-0.0442-4.2647 3.0936-4.2647 3.0936z" fill="#5b472c" filter="url(#d)" opacity=".615"/>
  <path d="m-33.178 24.179 0.5937 0.40034h0.83892s0.40011 0.06456 0.65823-0.6328c0.25814-0.69738 5.9313-18.098 6.6797-20.353 0.24642-0.71229-0.15517-0.8584-0.33767-0.87666-0.18252-0.01858-1.7614 1.2785-1.7614 1.2785z" fill="url(#p)"/>
  <path d="m-33.281 23.462c-0.14205 0.51659-0.18071 0.71029 0.16777 0.75548 0.34847 0.04505 1.0196 0.06456 1.1874 0.06456s0.413-0.05806 0.55498-0.54884l0.14188-0.49074s6.3425-19.416 6.4885-19.873c0.14595-0.4566 0.26011-0.84925-0.30116-0.84925h-0.94001c-0.2738 0-0.54836-0.07245-0.74379 0.65748-0.19545 0.72987-6.5557 20.284-6.5557 20.284z" fill="#f7fafc"/>
  <path d="m-26.186 2.5205c-0.2019 0.01394-0.39307 0.10961-0.53966 0.65702-0.19545 0.72984-6.5557 20.284-6.5557 20.284-0.02561 0.09312-0.04247 0.16418-0.05963 0.23729 0.02113 0.09475 0.05542 0.13074 0.11131 0.13074 0.11614 0 1.0712 0.03878 1.1616 0.03878 0.09039 0 0.2065 0 0.32267-0.3616 0.11614-0.36162 6.4164-19.421 6.5533-19.749 0.13689-0.32876 0.32804-1.0414 0.01788-1.1236-0.08226-0.0209-0.25199-0.06618-0.43317-0.11379h-0.37429c-0.06852 0-0.13673-0.0047-0.20409 0z" fill="url(#r)"/>
  <path d="m-45.06 74.746c-0.14142 0.33562 0.06385 0.64835 0.28976 0.70544 0.22586 0.05714 0.51792-0.10056 0.67762-0.39723 0.15969-0.29681-0.7917-0.39952-0.96739-0.30821z" fill="url(#k)"/>
  <path d="m-45.104 73.995s-0.14829 0.76249-0.05932 0.77849c0.08897 0.01622 0.68677-0.12796 1.0472 0.31048l0.56584-0.67808s-0.78486-0.86751-1.5538-0.4109z" fill="url(#m)"/>
  <path transform="matrix(.41301 0 0 .41326 -92.909 -355.36)" d="m115.35 1039.2s0.50781-0.098 0.73828-0.1094c0.23047-0.012 0.82422 0.021 1.1502 0.1089 0.32594 0.088 1.2209 0.4696 1.5137 0.6353 0.29278 0.1657 0.97227 0.3757 0.97227 0.3757l-0.21545-1.3479-4.0603-0.072z" clip-path="url(#h)" fill="#301503" filter="url(#f)"/>
  <path d="m-45.27 74.064s0.20973-0.04043 0.3049-0.04504c0.09522-0.0049 0.34042 0.0093 0.47504 0.04504 0.13455 0.03644 0.50423 0.19414 0.62514 0.26253 0.12096 0.06851 0.40156 0.15536 0.40156 0.15536l-0.08897-0.55704-1.677-0.02974z" fill="#301503"/>
  <path d="m-39.817 67.469-0.52432 0.78699-3.4743 6.0237c0.11207 0.05923 0.22696 0.12168 0.35252 0.20413 0 0 4.1064-5.8255 4.2342-6.0447 0.10474-0.17974-0.23197-0.6755-0.58807-0.9702z" fill="#b3b2b0"/>
  <path d="m-40.1 68.073c-0.36561-0.06058-1.0672 1.2543-1.0672 1.2543s-2.5614 3.8948-2.6942 4.9252c0.07056 0.03601 0.14908 0.0857 0.22505 0.13074 0.15547-0.21992 2.3915-3.3859 2.7531-4.0099 0.37429-0.64571 1.2003-1.6014 0.91637-2.1825-0.03543-0.07269-0.08087-0.10914-0.13316-0.11797z" fill="#eee"/>
  <path d="m-40.231 67.217c-0.05417 0.09243-3.436 5.8704-3.6332 7.0335 0.05338 0.02716 0.11379 0.06688 0.17021 0.0994l3.9607-6.8107c-0.10457-0.09661-0.21354-0.17882-0.31621-0.23246-0.04418-0.02323-0.12315-0.0604-0.1815-0.08964z" fill="#4d5051"/>
  <path d="m-40.66 67.014-3.4283 7.1384c0.11567 0.04786 0.24026 0.10961 0.37348 0.18485l3.6429-7.0424c-0.13534-0.07037-0.34562-0.17046-0.58805-0.2809z" fill="#834d4f"/>
  <path d="m-40.927 66.896c-0.15867 0.27496-3.5527 6.1715-3.3372 7.182 0.08196 0.02783 0.17478 0.07036 0.267 0.11216l3.5735-7.069c-0.14518-0.06944-0.31714-0.14538-0.50335-0.22526z" fill="#676d6e"/>
  <path d="m-41.046 66.843-3.2831 5.3256 0.28396 2.0017c0.01555 0.0069 0.02918 0.01161 0.04432 0.01856l3.2105-7.2329c-0.0857-0.03785-0.16197-0.07385-0.2557-0.11309z" fill="#a19c9f"/>
  <path d="m-44.162 66.142c-0.18405-0.0025-0.34971 0.0025-0.51222 0.01161l-0.55741 7.8939c0.07135-0.03834 0.40074-0.17673 1.047 0.06456l0.13392 0.06058 3.0863-7.2926c-0.49022-0.20877-1.0805-0.42762-1.6778-0.55934-0.53846-0.11867-1.0589-0.16929-1.5198-0.17835z" fill="url(#n)"/>
  <path d="m-44.596 66.151c-0.21159 0.0069-0.40119 0.02089-0.56949 0.04203-0.05433 0.05757-0.1091 0.11472-0.15893 0.17441l0.054 7.659c0.0079 0.01628 0.0079 0.01628 0.01416 0.03158 0.0079-0.0049 0.03262-0.02089 0.0896-0.03951z" fill="#c6e0f0"/>
  <path d="m-44.921 66.167c-0.14393 0.01161-0.28695 0.02507-0.40332 0.0427l0.0548 7.8536s0.03417-0.01395 0.04839-0.02089z" fill="#a5a7a8"/>
 </g>
 <path d="m17.002 4c-7.2029 0-13.002 5.7991-13.002 13.002v1.998h56v-1.998c0-7.2029-5.7991-13.002-13.002-13.002h-29.996z" fill="url(#linearGradient1570)" stroke-linecap="round" stroke-linejoin="round" stroke-width="5"/>
</svg>
