<svg width="64" height="64" xmlns="http://www.w3.org/2000/svg"><defs><linearGradient id="i" x1="-50.258" x2="-52.706" y1="-167.99" y2="-309.35" gradientTransform="matrix(.1805 0 0 .1838 56.166 79.329)" gradientUnits="userSpaceOnUse"><stop stop-color="#017bf5" offset="0"/><stop stop-color="#52cdfb" offset="1"/></linearGradient><linearGradient id="h" x1="-98.577" x2="-101.03" y1="-166.03" y2="-348.97" gradientTransform="matrix(.1805 0 0 .1838 56.166 79.329)" gradientUnits="userSpaceOnUse"><stop stop-color="#01bb22" offset="0"/><stop stop-color="#51e784" offset="1"/></linearGradient><linearGradient id="g" x1="-145.4" x2="-145.58" y1="-167.26" y2="-280.65" gradientTransform="matrix(.1805 0 0 .1838 56.166 79.329)" gradientUnits="userSpaceOnUse"><stop stop-color="#f06712" offset="0"/><stop stop-color="#ffb436" offset="1"/></linearGradient><linearGradient id="f" x1="-194.48" x2="-194.66" y1="-239.97" y2="-166.64" gradientTransform="matrix(.1805 0 0 .1838 56.166 79.329)" gradientUnits="userSpaceOnUse"><stop stop-color="#f35966" offset="0"/><stop stop-color="#e0283f" offset="1"/></linearGradient><linearGradient id="a" x1="7.937" x2="7.937" y1="15.081" y2="1.852" gradientTransform="translate(0 .032) scale(3.7795)" gradientUnits="userSpaceOnUse"><stop stop-color="#f1efeb" offset="0"/><stop stop-color="#fdfcfc" offset="1"/></linearGradient><filter id="b" x="-.169" y="-.083" width="1.338" height="1.166" color-interpolation-filters="sRGB"><feGaussianBlur stdDeviation=".527"/></filter><filter id="c" x="-.169" y="-.054" width="1.338" height="1.108" color-interpolation-filters="sRGB"><feGaussianBlur stdDeviation=".527"/></filter><filter id="d" x="-.169" y="-.034" width="1.338" height="1.068" color-interpolation-filters="sRGB"><feGaussianBlur stdDeviation=".527"/></filter><filter id="e" x="-.169" y="-.043" width="1.338" height="1.087" color-interpolation-filters="sRGB"><feGaussianBlur stdDeviation=".527"/></filter></defs><g color="#000"><path d="M4.37.53C2.254.53.53 2.312.53 4.496v8.468c0 2.184 1.725 3.968 3.84 3.968h8.194c2.114 0 3.84-1.783 3.84-3.968V4.497c0-2.184-1.726-3.968-3.84-3.968zm.256.52h7.681c1.844 0 3.33 1.534 3.33 3.44v7.937c0 1.906-1.485 3.44-3.33 3.44h-7.68c-1.845 0-3.33-1.534-3.33-3.44V4.49c0-1.906 1.485-3.44 3.33-3.44z" opacity=".01" style="font-feature-settings:normal;font-variant-alternates:normal;font-variant-caps:normal;font-variant-east-asian:normal;font-variant-ligatures:normal;font-variant-numeric:normal;font-variant-position:normal;font-variation-settings:normal;inline-size:0;isolation:auto;mix-blend-mode:normal;shape-margin:0;shape-padding:0;text-decoration-color:#000;text-decoration-line:none;text-decoration-style:solid;text-indent:0;text-orientation:mixed;text-transform:none;white-space:normal" transform="scale(3.7796)"/><path d="M4.359.794C2.392.794.795 2.447.795 4.48v8.5c0 2.035 1.597 3.688 3.564 3.688h8.216c1.967 0 3.564-1.653 3.564-3.688v-8.5c0-2.034-1.597-3.687-3.564-3.687zm.272.256h7.672c1.842 0 3.325 1.534 3.325 3.44v7.937c0 1.906-1.483 3.44-3.325 3.44H4.63c-1.842 0-3.325-1.534-3.325-3.44V4.49c0-1.906 1.483-3.44 3.325-3.44z" opacity=".01" style="font-feature-settings:normal;font-variant-alternates:normal;font-variant-caps:normal;font-variant-east-asian:normal;font-variant-ligatures:normal;font-variant-numeric:normal;font-variant-position:normal;font-variation-settings:normal;inline-size:0;isolation:auto;mix-blend-mode:normal;shape-margin:0;shape-padding:0;text-decoration-color:#000;text-decoration-line:none;text-decoration-style:solid;text-indent:0;text-orientation:mixed;text-transform:none;white-space:normal" transform="scale(3.7796)"/><path d="M4.31 1.058c-1.866 0-3.375 1.539-3.375 3.44v8.467c0 1.9 1.57 3.439 3.435 3.439h8.2c1.866 0 3.427-1.538 3.427-3.44V4.498c0-1.9-1.51-3.439-3.375-3.439h-.097c1.794.087 3.214 1.582 3.214 3.432v7.937c0 1.906-1.506 3.44-3.377 3.44h-7.79c-1.871 0-3.377-1.534-3.377-3.44V4.49c0-1.85 1.42-3.345 3.214-3.432z" opacity=".03" style="font-feature-settings:normal;font-variant-alternates:normal;font-variant-caps:normal;font-variant-east-asian:normal;font-variant-ligatures:normal;font-variant-numeric:normal;font-variant-position:normal;font-variation-settings:normal;inline-size:0;isolation:auto;mix-blend-mode:normal;shape-margin:0;shape-padding:0;text-decoration-color:#000;text-decoration-line:none;text-decoration-style:solid;text-indent:0;text-orientation:mixed;text-transform:none;white-space:normal" transform="scale(3.7796)"/><path d="M4 46.969V49c0 6.648 5.896 12 12.544 12h30.961C54.153 61 60 55.648 60 49v-1.992a12.972 12.972 0 0 1-13 12.963H17.002A12.973 12.973 0 0 1 4 46.969z" opacity=".03" style="font-feature-settings:normal;font-variant-alternates:normal;font-variant-caps:normal;font-variant-east-asian:normal;font-variant-ligatures:normal;font-variant-numeric:normal;font-variant-position:normal;font-variation-settings:normal;inline-size:0;isolation:auto;mix-blend-mode:normal;shape-margin:0;shape-padding:0;text-decoration-color:#000;text-decoration-line:none;text-decoration-style:solid;text-indent:0;text-orientation:mixed;text-transform:none;white-space:normal"/><path d="M1.058 11.906v.592c0 1.939 1.573 3.5 3.332 3.5h8.16c1.76 0 3.325-1.561 3.325-3.5v-.58c-.006 2.095-1.537 3.78-3.44 3.78H4.498c-1.905 0-3.44-1.692-3.44-3.792z" opacity=".05" style="font-feature-settings:normal;font-variant-alternates:normal;font-variant-caps:normal;font-variant-east-asian:normal;font-variant-ligatures:normal;font-variant-numeric:normal;font-variant-position:normal;font-variation-settings:normal;inline-size:0;isolation:auto;mix-blend-mode:normal;shape-margin:0;shape-padding:0;text-decoration-color:#000;text-decoration-line:none;text-decoration-style:solid;text-indent:0;text-orientation:mixed;text-transform:none;white-space:normal" transform="scale(3.7796)"/></g><rect x="4" y="4" width="56" height="56" rx="13.002" ry="13.002" fill="url(#a)"/><g opacity=".15"><rect x="17.377" y="33.782" width="7.472" height="15.231" ry=".94" filter="url(#b)" opacity="1"/><rect x="25.964" y="25.539" width="7.472" height="23.474" ry=".943" filter="url(#c)" opacity="1"/><rect transform="matrix(1 0 0 .97143 0 1.4)" x="34.551" y="12" width="7.472" height="37" ry="1.121" filter="url(#d)" opacity="1"/><rect x="43.137" y="19.841" width="7.472" height="29.159" ry=".883" filter="url(#e)" opacity="1"/></g><rect x="17.377" y="34.217" width="7.472" height="14.796" ry=".913" fill="url(#f)"/><path d="M17.993 32.723h6.241c.34 0 .499.279.517.624l.096 1.753c.019.346-.273.624-.613.624h-6.241c-.34 0-.632-.278-.613-.624l.096-1.753c.018-.345.177-.624.517-.624z" fill="#fe8f8a"/><rect x="25.964" y="26.21" width="7.472" height="22.803" ry=".916" fill="url(#g)"/><path d="M26.58 24.716h6.241c.34 0 .499.23.517.514l.096 1.445c.019.285-.273.514-.613.514H26.58c-.34 0-.632-.23-.613-.514l.096-1.445c.018-.284.177-.514.517-.514z" fill="#ffc966"/><rect x="34.551" y="13.057" width="7.472" height="35.943" ry="1.089" fill="url(#h)"/><path d="M35.167 12.337h6.241c.34 0 .499.197.517.44l.096 1.237c.019.244-.273.44-.613.44h-6.241c-.34 0-.632-.196-.613-.44l.096-1.237c.018-.243.177-.44.517-.44z" fill="#87ffa3"/><rect x="43.137" y="20.674" width="7.472" height="28.326" ry=".858" fill="url(#i)"/><path d="M43.752 19.423h6.241c.34 0 .499.229.517.512l.096 1.44c.019.284-.273.513-.613.513h-6.241c-.34 0-.632-.23-.613-.513l.096-1.44c.018-.283.177-.512.517-.512z" fill="#79d7ff"/><path d="m14.307 37.364.006-.193.955.033-.047 1.35-.518-.019.04-1.156zm1.441 3.962-.007.194-2.05-.072.79-.406q.563-.283.66-.356.104-.074.106-.123.005-.013.006-.026.003-.09-.13-.163-.129-.073-.345-.08-.216-.008-.344.065-.123.074-.127.185l-.543-.019q.007-.2.278-.32.276-.121.738-.105.417.014.699.149t.275.32q-.006.176-.625.469l-.526.248zm-2.004 2.072q.047-.178.297-.274.25-.096.646-.082.402.014.64.124.237.111.231.287-.006.195-.3.272.388.089.38.342-.007.196-.298.304-.285.106-.732.09-.417-.015-.71-.147-.292-.133-.285-.313l.517.018q-.003.098.14.17.144.072.365.08.226.007.359-.062.138-.068.142-.173.003-.087-.14-.165-.138-.08-.32-.087l-.04.002h-.11l.005-.153.065.002q.191.007.329-.046.143-.056.146-.142.007-.207-.415-.222-.417-.014-.424.193zm1.878 3.57-.006.176-.362-.013-.009.256-.477-.017.009-.255-1.387-.048.004-.1 1.397-.971.502.017-.033.943zm-.817-.651-.806.595.784.027zm-.451 2.829-.129.238.236.004q.438.015.704.162.272.145.265.341-.008.218-.319.34-.311.123-.808.106-.553-.02-.899-.21l.158-.19q.285.19.707.205.261.01.445-.065.189-.075.194-.213.004-.14-.184-.225t-.48-.094q-.29-.01-.48.072l-.095-.003.34-.674 1.327.046-.007.194z" fill="gray" aria-label="1 2 3 4 5"/></svg>