<svg id="App-Store" width="64" height="64" enable-background="new 0 0 1024 1024" image-rendering="optimizeSpeed" version="1.1" viewBox="0 0 64 64" xmlns="http://www.w3.org/2000/svg" xmlns:xlink="http://www.w3.org/1999/xlink">
 <defs>
  <linearGradient id="e" x1="32" x2="32" y1="28.161" y2="47.489" gradientTransform="translate(1.508 -3.5061)" gradientUnits="userSpaceOnUse">
   <stop stop-color="#60c0f4" offset="0"/>
   <stop stop-color="#b9e9ff" offset="1"/>
  </linearGradient>
  <filter id="f" x="-.068441" y="-.053412" width="1.1369" height="1.1068" color-interpolation-filters="sRGB">
   <feGaussianBlur stdDeviation="0.43016144"/>
  </filter>
  <linearGradient id="linearGradient862-3" x1="7.9373" x2="7.9373" y1="15.081" y2="1.852" gradientTransform="matrix(3.7795 0 0 3.7795 .00014309 .031541)" gradientUnits="userSpaceOnUse">
   <stop stop-color="#1357d7" offset="0"/>
   <stop stop-color="#20b9fa" offset="1"/>
  </linearGradient>
  <linearGradient id="linearGradient962" x1="30" x2="30" y1="15" y2="12" gradientUnits="userSpaceOnUse">
   <stop stop-color="#1aa885" offset="0"/>
   <stop stop-color="#1bc6a0" offset=".67731"/>
   <stop stop-color="#1bc6a0" offset="1"/>
  </linearGradient>
  <linearGradient id="linearGradient972" x1="30" x2="30" y1="12" y2="9" gradientUnits="userSpaceOnUse">
   <stop stop-color="#7c4493" offset="0"/>
   <stop stop-color="#9656b1" offset=".68367"/>
   <stop stop-color="#9656b1" offset="1"/>
  </linearGradient>
  <linearGradient id="linearGradient982" x1="31" x2="31" y1="9" y2="6" gradientUnits="userSpaceOnUse">
   <stop stop-color="#bc2f3c" offset="0"/>
   <stop stop-color="#d94451" stop-opacity=".95686" offset=".66686"/>
   <stop stop-color="#d94451" stop-opacity=".93739" offset="1"/>
  </linearGradient>
 </defs>
 <g transform="scale(3.7796)" shape-rendering="auto">
  <path d="m4.3693 0.52916c-2.1142 0-3.8402 1.7835-3.8402 3.9682v8.4675c0 2.1846 1.726 3.9682 3.8402 3.9682h8.1944c2.1142 0 3.8402-1.7835 3.8402-3.9682v-8.4675c0-2.1846-1.726-3.9682-3.8402-3.9682zm0.25704 0.52089h7.6808c1.8443 0 3.3291 1.5342 3.3291 3.44v7.9368c0 1.9058-1.4847 3.44-3.3291 3.44h-7.6808c-1.8443 0-3.3291-1.5342-3.3291-3.44v-7.9368c0-1.9058 1.4847-3.44 3.3291-3.44z" color="#000000" color-rendering="auto" dominant-baseline="auto" enable-background="accumulate" image-rendering="auto" opacity=".01" solid-color="#000000" stop-color="#000000" style="font-feature-settings:normal;font-variant-alternates:normal;font-variant-caps:normal;font-variant-east-asian:normal;font-variant-ligatures:normal;font-variant-numeric:normal;font-variant-position:normal;font-variation-settings:normal;inline-size:0;isolation:auto;mix-blend-mode:normal;shape-margin:0;shape-padding:0;text-decoration-color:#000000;text-decoration-line:none;text-decoration-style:solid;text-indent:0;text-orientation:mixed;text-transform:none;white-space:normal"/>
  <path d="m4.3587 0.79373c-1.9668 0-3.5639 1.6528-3.5639 3.6876v8.4996c0 2.0348 1.5971 3.6876 3.5639 3.6876h8.2162c1.9668 0 3.5644-1.6528 3.5644-3.6876v-8.4996c0-2.0348-1.5976-3.6876-3.5644-3.6876zm0.27222 0.25631h7.6718c1.8422 0 3.3251 1.5342 3.3251 3.44v7.9368c0 1.9058-1.483 3.44-3.3251 3.44h-7.6718c-1.8422 0-3.3251-1.5342-3.3251-3.44v-7.9368c0-1.9058 1.483-3.44 3.3251-3.44z" color="#000000" color-rendering="auto" dominant-baseline="auto" enable-background="accumulate" image-rendering="auto" opacity=".01" solid-color="#000000" stop-color="#000000" style="font-feature-settings:normal;font-variant-alternates:normal;font-variant-caps:normal;font-variant-east-asian:normal;font-variant-ligatures:normal;font-variant-numeric:normal;font-variant-position:normal;font-variation-settings:normal;inline-size:0;isolation:auto;mix-blend-mode:normal;shape-margin:0;shape-padding:0;text-decoration-color:#000000;text-decoration-line:none;text-decoration-style:solid;text-indent:0;text-orientation:mixed;text-transform:none;white-space:normal"/>
  <g>
   <path d="m4.3097 1.0583c-1.8657 0-3.3751 1.5383-3.3751 3.439v8.4675c0 1.9007 1.57 3.439 3.4357 3.439h8.1996c1.8657 0 3.4274-1.5383 3.4274-3.439v-8.4675c0-1.9007-1.51-3.439-3.3756-3.439h-0.09688c1.794 0.086515 3.2138 1.5819 3.2138 3.4318v7.9368c0 1.9058-1.5059 3.44-3.3766 3.44h-7.7905c-1.8707 0-3.3766-1.5342-3.3766-3.44v-7.9368c0-1.8498 1.4199-3.3451 3.2138-3.4318z" color="#000000" color-rendering="auto" dominant-baseline="auto" enable-background="accumulate" image-rendering="auto" opacity=".03" solid-color="#000000" stop-color="#000000" style="font-feature-settings:normal;font-variant-alternates:normal;font-variant-caps:normal;font-variant-east-asian:normal;font-variant-ligatures:normal;font-variant-numeric:normal;font-variant-position:normal;font-variation-settings:normal;inline-size:0;isolation:auto;mix-blend-mode:normal;shape-margin:0;shape-padding:0;text-decoration-color:#000000;text-decoration-line:none;text-decoration-style:solid;text-indent:0;text-orientation:mixed;text-transform:none;white-space:normal"/>
   <path transform="scale(.26458)" d="m4 46.969v2.0312c0 6.6479 5.8957 12 12.544 12h30.961c6.6479 0 12.495-5.3521 12.495-12v-1.9922c-0.021173 7.1849-5.81 12.963-13 12.963h-29.998c-7.2032 0-13.002-5.7987-13.002-13.002z" color="#000000" color-rendering="auto" dominant-baseline="auto" enable-background="accumulate" image-rendering="auto" opacity=".03" solid-color="#000000" stop-color="#000000" style="font-feature-settings:normal;font-variant-alternates:normal;font-variant-caps:normal;font-variant-east-asian:normal;font-variant-ligatures:normal;font-variant-numeric:normal;font-variant-position:normal;font-variation-settings:normal;inline-size:0;isolation:auto;mix-blend-mode:normal;shape-margin:0;shape-padding:0;text-decoration-color:#000000;text-decoration-line:none;text-decoration-style:solid;text-indent:0;text-orientation:mixed;text-transform:none;white-space:normal"/>
   <path d="m1.0583 11.906v0.59234c0 1.9386 1.5729 3.4993 3.3318 3.4993h8.1603c1.7589 0 3.3243-1.5608 3.3243-3.4993v-0.58095c-0.0056 2.0952-1.5372 3.7801-3.4395 3.7801h-7.9368c-1.9058 0-3.44-1.691-3.44-3.7915z" color="#000000" color-rendering="auto" dominant-baseline="auto" enable-background="accumulate" image-rendering="auto" opacity=".05" solid-color="#000000" stop-color="#000000" style="font-feature-settings:normal;font-variant-alternates:normal;font-variant-caps:normal;font-variant-east-asian:normal;font-variant-ligatures:normal;font-variant-numeric:normal;font-variant-position:normal;font-variation-settings:normal;inline-size:0;isolation:auto;mix-blend-mode:normal;shape-margin:0;shape-padding:0;text-decoration-color:#000000;text-decoration-line:none;text-decoration-style:solid;text-indent:0;text-orientation:mixed;text-transform:none;white-space:normal"/>
  </g>
 </g>
 <rect x="4" y="4" width="56" height="56" rx="13.002" ry="13.002" fill="url(#linearGradient862-3)" stroke-width="3.7795"/>
 <path d="m29 25q-0.60602-0.4214-1.3324-0.3291c-0.48562 0.0602-0.88693 0.27291-1.2121 0.63813-0.32508 0.36522-0.48963 0.79466-0.48963 1.2843v15.451c0 0.48963 0.16454 0.91906 0.48963 1.2843 0.32508 0.36522 0.72644 0.57793 1.2121 0.63813 0.48562 0.0602 0.9271-0.05217 1.3324-0.3291l11.209-7.7254c0.35719-0.24481 0.602-0.57391 0.73843-0.97926 0.13645-0.40936 0.13645-0.8187 0-1.2241-0.13646-0.40535-0.38127-0.73447-0.73447-0.98327z" filter="url(#f)" opacity=".15" stroke-width="1.2589"/>
 <path d="m29 25q-0.60602-0.4214-1.3324-0.3291c-0.48562 0.0602-0.88693 0.27291-1.2121 0.63813-0.32508 0.36522-0.48963 0.79466-0.48963 1.2843v15.451c0 0.48963 0.16454 0.91906 0.48963 1.2843 0.32508 0.36522 0.72644 0.57793 1.2121 0.63813 0.48562 0.0602 0.9271-0.05217 1.3324-0.3291l11.209-7.7254c0.35719-0.24481 0.602-0.57391 0.73843-0.97926 0.13645-0.40936 0.13645-0.8187 0-1.2241-0.13646-0.40535-0.38127-0.73447-0.73447-0.98327z" fill="url(#e)" stroke-width="1.2589"/>
 <g stroke-linecap="round" stroke-linejoin="round">
  <path d="m17 6c-2.9317 0-5.581 1.1431-7.5488 3h45.098c-1.9678-1.8569-4.6171-3-7.5488-3h-30z" fill="url(#linearGradient982)" stroke-width="5"/>
  <path d="m9.4512 9c-0.91125 0.85988-1.6734 1.8718-2.248 3h49.594c-0.57469-1.1282-1.3368-2.1401-2.248-3h-45.098z" fill="url(#linearGradient972)" stroke-width="3.5355"/>
  <path d="m7.2031 12c-0.47426 0.93103-0.81971 1.9373-1.0137 3h51.621c-0.19396-1.0627-0.53941-2.069-1.0137-3h-49.594z" fill="url(#linearGradient962)" stroke-width="3.5355"/>
 </g>
</svg>
