<svg xmlns="http://www.w3.org/2000/svg" width="64" height="64"><defs><linearGradient id="c" x1="-25.308" x2="-20.646" y1="814.05" y2="821.29" gradientTransform="translate(120.62 -3195)scale(3.9491)" gradientUnits="userSpaceOnUse"><stop offset="0" stop-color="#64b7ff"/><stop offset=".36" stop-color="#5c4cda"/><stop offset=".528" stop-color="#604df2"/><stop offset=".697" stop-color="#686efe"/><stop offset="1" stop-color="#2ec1fc"/></linearGradient><linearGradient id="a" x1="29.73" x2="29.73" y1="57.082" y2="8.589" gradientUnits="userSpaceOnUse"><stop offset="0" stop-color="#e5e5e5"/><stop offset="1" stop-color="#fff"/></linearGradient><filter id="b" width="1.246" height="1.193" x="-.123" y="-.096" color-interpolation-filters="sRGB"><feGaussianBlur stdDeviation=".409"/></filter></defs><g color="#000"><path d="M4.37.53C2.254.53.53 2.312.53 4.496v8.468c0 2.184 1.725 3.968 3.84 3.968h8.194c2.114 0 3.84-1.783 3.84-3.968V4.497c0-2.184-1.726-3.968-3.84-3.968zm.256.52h7.681c1.844 0 3.33 1.534 3.33 3.44v7.937c0 1.906-1.485 3.44-3.33 3.44h-7.68c-1.845 0-3.33-1.534-3.33-3.44V4.49c0-1.906 1.485-3.44 3.33-3.44z" opacity=".01" style="font-feature-settings:normal;font-variant-alternates:normal;font-variant-caps:normal;font-variant-east-asian:normal;font-variant-ligatures:normal;font-variant-numeric:normal;font-variant-position:normal;font-variation-settings:normal;inline-size:0;isolation:auto;mix-blend-mode:normal;shape-margin:0;shape-padding:0;text-decoration-color:#000;text-decoration-line:none;text-decoration-style:solid;text-indent:0;text-orientation:mixed;text-transform:none;white-space:normal" transform="scale(3.7796)"/><path d="M4.359.794C2.392.794.795 2.447.795 4.48v8.5c0 2.035 1.597 3.688 3.564 3.688h8.216c1.967 0 3.564-1.653 3.564-3.688v-8.5c0-2.034-1.597-3.687-3.564-3.687zm.272.256h7.672c1.842 0 3.325 1.534 3.325 3.44v7.937c0 1.906-1.483 3.44-3.325 3.44H4.63c-1.842 0-3.325-1.534-3.325-3.44V4.49c0-1.906 1.483-3.44 3.325-3.44z" opacity=".01" style="font-feature-settings:normal;font-variant-alternates:normal;font-variant-caps:normal;font-variant-east-asian:normal;font-variant-ligatures:normal;font-variant-numeric:normal;font-variant-position:normal;font-variation-settings:normal;inline-size:0;isolation:auto;mix-blend-mode:normal;shape-margin:0;shape-padding:0;text-decoration-color:#000;text-decoration-line:none;text-decoration-style:solid;text-indent:0;text-orientation:mixed;text-transform:none;white-space:normal" transform="scale(3.7796)"/><path d="M4.31 1.058c-1.866 0-3.375 1.539-3.375 3.44v8.467c0 1.9 1.57 3.439 3.435 3.439h8.2c1.866 0 3.427-1.538 3.427-3.44V4.498c0-1.9-1.51-3.439-3.375-3.439h-.097c1.794.087 3.214 1.582 3.214 3.432v7.937c0 1.906-1.506 3.44-3.377 3.44h-7.79c-1.871 0-3.377-1.534-3.377-3.44V4.49c0-1.85 1.42-3.345 3.214-3.432z" opacity=".03" style="font-feature-settings:normal;font-variant-alternates:normal;font-variant-caps:normal;font-variant-east-asian:normal;font-variant-ligatures:normal;font-variant-numeric:normal;font-variant-position:normal;font-variation-settings:normal;inline-size:0;isolation:auto;mix-blend-mode:normal;shape-margin:0;shape-padding:0;text-decoration-color:#000;text-decoration-line:none;text-decoration-style:solid;text-indent:0;text-orientation:mixed;text-transform:none;white-space:normal" transform="scale(3.7796)"/><path d="M4 46.969V49c0 6.648 5.896 12 12.544 12h30.961C54.153 61 60 55.648 60 49v-1.992a12.97 12.97 0 0 1-13 12.963H17.002A12.973 12.973 0 0 1 4 46.969" opacity=".03" style="font-feature-settings:normal;font-variant-alternates:normal;font-variant-caps:normal;font-variant-east-asian:normal;font-variant-ligatures:normal;font-variant-numeric:normal;font-variant-position:normal;font-variation-settings:normal;inline-size:0;isolation:auto;mix-blend-mode:normal;shape-margin:0;shape-padding:0;text-decoration-color:#000;text-decoration-line:none;text-decoration-style:solid;text-indent:0;text-orientation:mixed;text-transform:none;white-space:normal"/><path d="M1.058 11.906v.592c0 1.939 1.573 3.5 3.332 3.5h8.16c1.76 0 3.325-1.561 3.325-3.5v-.58c-.006 2.095-1.537 3.78-3.44 3.78H4.498c-1.905 0-3.44-1.692-3.44-3.792" opacity=".05" style="font-feature-settings:normal;font-variant-alternates:normal;font-variant-caps:normal;font-variant-east-asian:normal;font-variant-ligatures:normal;font-variant-numeric:normal;font-variant-position:normal;font-variation-settings:normal;inline-size:0;isolation:auto;mix-blend-mode:normal;shape-margin:0;shape-padding:0;text-decoration-color:#000;text-decoration-line:none;text-decoration-style:solid;text-indent:0;text-orientation:mixed;text-transform:none;white-space:normal" transform="scale(3.7796)"/></g><path fill="url(#a)" d="M17.001 4A12.973 12.973 0 0 0 3.999 17v30a12.973 12.973 0 0 0 13.002 13.002h29.998A12.973 12.973 0 0 0 60.001 47V17.001A12.973 12.973 0 0 0 46.999 4z"/><path d="M32.567 3.325a1.5 1.5 0 0 0-.34.046l-2.346.476-.051.01-2.13.42c-.39.085-.466.303-.457.648l.006 5.387c-.018.38-.059.587-.494.657-1.542.23-1.841.706-1.832 1.385.01.676.557 1.218 1.313 1.142.662-.074 1.155-.267 1.459-.88.117-.23.157-.71.128-1.196l-.007-4.285c.002-.3-.049-.467.349-.55l2.393-.482 1.42-.287c.232-.046.34.033.344.293l.006 3.202c-.018.379-.055.552-.49.622-1.542.23-1.846.741-1.836 1.42.01.676.566 1.183 1.321 1.107.663-.073 1.139-.244 1.442-.857.117-.23.127-.69.137-1.184l-.004-6.555c0-.37-.064-.533-.331-.538z" filter="url(#b)" opacity=".2" transform="translate(-79.345 .148)scale(3.7796)"/><path fill="url(#c)" d="M43.527 12.188c-.337-.007-.758.054-1.287.174l-8.865 1.799-.194.039-8.047 1.588c-1.478.316-1.765 1.14-1.73 2.445l.023 20.363c-.067 1.431-.222 2.217-1.869 2.48-5.826.868-6.957 2.671-6.922 5.237.036 2.555 2.107 4.604 4.961 4.316 2.504-.278 4.368-1.009 5.514-3.324.444-.872.594-2.685.484-4.522l-.023-16.197c.005-1.133-.186-1.764 1.316-2.076l9.045-1.824v-.002l5.37-1.082c.873-.176 1.283.122 1.296 1.107l.024 12.102c-.068 1.432-.207 2.087-1.854 2.35-5.826.867-6.973 2.804-6.937 5.37.035 2.554 2.14 4.47 4.994 4.183 2.503-.279 4.303-.925 5.449-3.24.444-.873.48-2.606.518-4.475l-.016-24.777c0-1.394-.24-2.013-1.25-2.033z"/><path d="M41.871 21.211a1.9 1.9 0 0 0-.568.04l-5.37 1.081v.002l-9.044 1.824c-1.29.268-1.33.794-1.318 1.649.022-.657.204-1.066 1.318-1.297l9.045-1.824v-.002l5.37-1.082c.872-.176 1.283.122 1.296 1.107v-.351c-.01-.74-.244-1.091-.729-1.147m2.922 17.447c-.037 1.866-.074 3.595-.517 4.465-1.147 2.315-2.946 2.962-5.45 3.24-2.812.284-4.885-1.576-4.98-4.074-.001.082-.015.159-.014.242.035 2.555 2.14 4.472 4.994 4.184 2.504-.279 4.303-.925 5.45-3.24.443-.872.48-2.606.517-4.475zM25.623 43.9c-.025 1.28-.188 2.418-.512 3.053-1.146 2.316-3.01 3.046-5.513 3.324-2.812.284-4.855-1.703-4.95-4.205 0 .082-.012.157-.011.24.035 2.556 2.106 4.605 4.96 4.317 2.504-.278 4.368-1.009 5.514-3.324.353-.693.513-1.984.512-3.405" opacity=".15"/><rect width="56.002" height="56.002" x="170.25" y="5.119" fill="#fff" rx="13.002" ry="13.002"/><path fill="#fff" d="M43.527 12.188c-.336-.007-.758.054-1.287.174l-8.865 1.799-.193.039-8.047 1.588c-1.479.316-1.766 1.14-1.73 2.445v.498c-.033-1.297.256-2.118 1.73-2.434l8.047-1.587.193-.04 8.865-1.798c.529-.12.95-.181 1.287-.174v.002c1.011.02 1.25.64 1.25 2.033v-.51c0-1.393-.239-2.013-1.25-2.033zM25.57 26.308c-.008.23.004.49.002.788v-.51c0-.104 0-.183-.002-.279zm17.053 8.515c-.067 1.423-.211 2.077-1.853 2.34-5.827.867-6.973 2.803-6.938 5.369.001.054.015.104.018.158.08-2.388 1.367-4.193 6.92-5.02 1.646-.263 1.786-.918 1.853-2.35zm-19.195 3.78c-.067 1.426-.225 2.21-1.869 2.474-5.826.867-6.957 2.67-6.922 5.236.001.056.015.107.018.162.078-2.377 1.35-4.062 6.904-4.889 1.647-.263 1.802-1.049 1.87-2.48v-.504zm2.168 4.18v.51c.02.34.023.675.026 1.008.01-.492.005-1-.026-1.517z" opacity=".1"/></svg>