<svg width="64" height="64" version="1.1" xmlns="http://www.w3.org/2000/svg">
 <defs>
  <linearGradient id="linearGradient933" x1="-25.308" x2="-20.646" y1="814.05" y2="821.29" gradientTransform="matrix(3.9491 0 0 3.9491 120.62 -3195)" gradientUnits="userSpaceOnUse">
   <stop stop-color="#64b7ff" offset="0"/>
   <stop stop-color="#5c4cda" offset=".35989"/>
   <stop stop-color="#604df2" offset=".52773"/>
   <stop stop-color="#686efe" offset=".69743"/>
   <stop stop-color="#2ec1fc" offset="1"/>
  </linearGradient>
  <linearGradient id="linearGradient862" x1="29.73" x2="29.73" y1="57.082" y2="8.5886" gradientUnits="userSpaceOnUse">
   <stop stop-color="#e5e5e5" offset="0"/>
   <stop stop-color="#fff" offset="1"/>
  </linearGradient>
  <filter id="filter939" x="-.12288" y="-.096333" width="1.2458" height="1.1927" color-interpolation-filters="sRGB">
   <feGaussianBlur stdDeviation="0.40852949"/>
  </filter>
 </defs>
 <g transform="scale(3.7796)" shape-rendering="auto">
  <path d="m4.3693 0.52916c-2.1142 0-3.8402 1.7835-3.8402 3.9682v8.4675c0 2.1846 1.726 3.9682 3.8402 3.9682h8.1944c2.1142 0 3.8402-1.7835 3.8402-3.9682v-8.4675c0-2.1846-1.726-3.9682-3.8402-3.9682zm0.25704 0.52089h7.6808c1.8443 0 3.3291 1.5342 3.3291 3.44v7.9368c0 1.9058-1.4847 3.44-3.3291 3.44h-7.6808c-1.8443 0-3.3291-1.5342-3.3291-3.44v-7.9368c0-1.9058 1.4847-3.44 3.3291-3.44z" color="#000000" color-rendering="auto" dominant-baseline="auto" image-rendering="auto" opacity=".01" solid-color="#000000" stop-color="#000000" style="font-feature-settings:normal;font-variant-alternates:normal;font-variant-caps:normal;font-variant-east-asian:normal;font-variant-ligatures:normal;font-variant-numeric:normal;font-variant-position:normal;font-variation-settings:normal;inline-size:0;isolation:auto;mix-blend-mode:normal;shape-margin:0;shape-padding:0;text-decoration-color:#000000;text-decoration-line:none;text-decoration-style:solid;text-indent:0;text-orientation:mixed;text-transform:none;white-space:normal"/>
  <path d="m4.3587 0.79373c-1.9668 0-3.5639 1.6528-3.5639 3.6876v8.4996c0 2.0348 1.5971 3.6876 3.5639 3.6876h8.2162c1.9668 0 3.5644-1.6528 3.5644-3.6876v-8.4996c0-2.0348-1.5976-3.6876-3.5644-3.6876zm0.27222 0.25631h7.6718c1.8422 0 3.3251 1.5342 3.3251 3.44v7.9368c0 1.9058-1.483 3.44-3.3251 3.44h-7.6718c-1.8422 0-3.3251-1.5342-3.3251-3.44v-7.9368c0-1.9058 1.483-3.44 3.3251-3.44z" color="#000000" color-rendering="auto" dominant-baseline="auto" image-rendering="auto" opacity=".01" solid-color="#000000" stop-color="#000000" style="font-feature-settings:normal;font-variant-alternates:normal;font-variant-caps:normal;font-variant-east-asian:normal;font-variant-ligatures:normal;font-variant-numeric:normal;font-variant-position:normal;font-variation-settings:normal;inline-size:0;isolation:auto;mix-blend-mode:normal;shape-margin:0;shape-padding:0;text-decoration-color:#000000;text-decoration-line:none;text-decoration-style:solid;text-indent:0;text-orientation:mixed;text-transform:none;white-space:normal"/>
  <path d="m4.3097 1.0583c-1.8657 0-3.3751 1.5383-3.3751 3.439v8.4675c0 1.9007 1.57 3.439 3.4357 3.439h8.1996c1.8657 0 3.4274-1.5383 3.4274-3.439v-8.4675c0-1.9007-1.51-3.439-3.3756-3.439h-0.09688c1.794 0.086515 3.2138 1.5819 3.2138 3.4318v7.9368c0 1.9058-1.5059 3.44-3.3766 3.44h-7.7905c-1.8707 0-3.3766-1.5342-3.3766-3.44v-7.9368c0-1.8498 1.4199-3.3451 3.2138-3.4318z" color="#000000" color-rendering="auto" dominant-baseline="auto" image-rendering="auto" opacity=".03" solid-color="#000000" stop-color="#000000" style="font-feature-settings:normal;font-variant-alternates:normal;font-variant-caps:normal;font-variant-east-asian:normal;font-variant-ligatures:normal;font-variant-numeric:normal;font-variant-position:normal;font-variation-settings:normal;inline-size:0;isolation:auto;mix-blend-mode:normal;shape-margin:0;shape-padding:0;text-decoration-color:#000000;text-decoration-line:none;text-decoration-style:solid;text-indent:0;text-orientation:mixed;text-transform:none;white-space:normal"/>
  <path transform="scale(.26458)" d="m4 46.969v2.0312c0 6.6479 5.8957 12 12.544 12h30.961c6.6479 0 12.495-5.3521 12.495-12v-1.9922c-0.02117 7.1849-5.81 12.963-13 12.963h-29.998c-7.2032 0-13.002-5.7987-13.002-13.002z" color="#000000" color-rendering="auto" dominant-baseline="auto" image-rendering="auto" opacity=".03" solid-color="#000000" stop-color="#000000" style="font-feature-settings:normal;font-variant-alternates:normal;font-variant-caps:normal;font-variant-east-asian:normal;font-variant-ligatures:normal;font-variant-numeric:normal;font-variant-position:normal;font-variation-settings:normal;inline-size:0;isolation:auto;mix-blend-mode:normal;shape-margin:0;shape-padding:0;text-decoration-color:#000000;text-decoration-line:none;text-decoration-style:solid;text-indent:0;text-orientation:mixed;text-transform:none;white-space:normal"/>
  <path d="m1.0583 11.906v0.59234c0 1.9386 1.5729 3.4993 3.3318 3.4993h8.1603c1.7589 0 3.3243-1.5608 3.3243-3.4993v-0.58095c-0.0056 2.0952-1.5372 3.7801-3.4395 3.7801h-7.9368c-1.9058 0-3.44-1.691-3.44-3.7915z" color="#000000" color-rendering="auto" dominant-baseline="auto" image-rendering="auto" opacity=".05" solid-color="#000000" stop-color="#000000" style="font-feature-settings:normal;font-variant-alternates:normal;font-variant-caps:normal;font-variant-east-asian:normal;font-variant-ligatures:normal;font-variant-numeric:normal;font-variant-position:normal;font-variation-settings:normal;inline-size:0;isolation:auto;mix-blend-mode:normal;shape-margin:0;shape-padding:0;text-decoration-color:#000000;text-decoration-line:none;text-decoration-style:solid;text-indent:0;text-orientation:mixed;text-transform:none;white-space:normal"/>
 </g>
 <path d="m17.001 3.9992c-7.2032 0-13.002 5.7987-13.002 13.002v29.998c0 7.2032 5.7987 13.002 13.002 13.002h29.998c7.2032 0 13.002-5.7987 13.002-13.002v-29.998c0-7.2032-5.7987-13.002-13.002-13.002z" fill="url(#linearGradient862)" stroke-width="3.7796"/>
 <g transform="matrix(3.7796 0 0 3.7796 -79.345 .14751)">
  <path d="m32.567 3.3255c-0.08914-0.00179-0.20068 0.014379-0.34054 0.045992l-2.3456 0.47593-0.05116 0.010335-2.129 0.42013c-0.39124 0.083631-0.46709 0.30183-0.45786 0.64698l0.0062 5.3876c-0.01778 0.37864-0.05893 0.5866-0.49453 0.65629-1.5416 0.22946-1.8408 0.70659-1.8314 1.3854 0.0093 0.67603 0.55734 1.2181 1.3126 1.142 0.66235-0.07367 1.1556-0.26694 1.4588-0.87952 0.11739-0.23073 0.15719-0.71045 0.12816-1.1963l-0.0062-4.2854c0.0013-0.29998-0.04926-0.46688 0.34829-0.54932l2.3931-0.48265v-5.167e-4l1.4206-0.28628c0.23106-0.046603 0.33961 0.032348 0.34313 0.293l0.0062 3.2019c-0.01778 0.37864-0.0548 0.55197-0.4904 0.62166-1.5416 0.22946-1.8449 0.74175-1.8355 1.4206 0.0093 0.67603 0.56604 1.1831 1.3213 1.1069 0.66235-0.07367 1.1385-0.2447 1.4417-0.85729 0.11739-0.23073 0.12712-0.68936 0.13694-1.1839l-0.0041-6.5555c-1.65e-4 -0.36872-0.06331-0.5326-0.33072-0.53794z" filter="url(#filter939)" opacity=".2"/>
  <path transform="matrix(.26458 0 0 .26458 20.993 -.039029)" d="m43.527 12.188c-0.33691-0.006751-0.75849 0.054345-1.2871 0.17383l-8.8652 1.7988-0.19336 0.039063-8.0469 1.5879c-1.4787 0.31609-1.7654 1.1408-1.7305 2.4453l0.023437 20.363c-0.067201 1.4311-0.22275 2.2171-1.8691 2.4805-5.8266 0.86727-6.9574 2.6706-6.9219 5.2363 0.03515 2.5551 2.1065 4.604 4.9609 4.3164 2.5034-0.27844 4.3677-1.0089 5.5137-3.3242 0.44369-0.87207 0.5941-2.6852 0.48438-4.5215l-0.023437-16.197c0.004913-1.1338-0.18618-1.7646 1.3164-2.0762l9.0449-1.8242v-0.001953l5.3691-1.082c0.87332-0.17614 1.2836 0.12226 1.2969 1.1074l0.023438 12.102c-0.067201 1.4311-0.20712 2.0862-1.8535 2.3496-5.8266 0.86727-6.973 2.8035-6.9375 5.3691 0.035151 2.5551 2.1394 4.4716 4.9941 4.1836 2.5034-0.27844 4.3029-0.92485 5.4492-3.2402 0.44369-0.87207 0.48046-2.6055 0.51758-4.4746l-0.015625-24.777c-6.24e-4 -1.3936-0.23927-2.013-1.25-2.0332z" fill="url(#linearGradient933)" stroke-width="3.7796"/>
  <path transform="matrix(.26458 0 0 .26458 20.993 -.039028)" d="m41.871 21.211c-0.16148-0.018599-0.35003-0.004973-0.56836 0.039062l-5.3691 1.082v0.001953l-9.0449 1.8242c-1.2906 0.26763-1.3293 0.7934-1.3184 1.6484 0.022154-0.65692 0.20426-1.0658 1.3184-1.2969l9.0449-1.8242v-0.001953l5.3691-1.082c0.87333-0.17614 1.2836 0.12228 1.2969 1.1074v-0.35156c-0.009975-0.73886-0.24406-1.0907-0.72852-1.1465zm2.9219 17.447c-0.037057 1.8653-0.074678 3.5943-0.51758 4.4648-1.1463 2.3154-2.9458 2.9618-5.4492 3.2402-2.8124 0.28374-4.8857-1.5759-4.9805-4.0742-0.001463 0.082042-0.014826 0.1588-0.013672 0.24219 0.035151 2.5551 2.1394 4.4716 4.9941 4.1836 2.5034-0.27844 4.3029-0.92487 5.4492-3.2402 0.44369-0.87208 0.48046-2.6055 0.51758-4.4746v-0.3418zm-19.17 5.2422c-0.0248 1.279-0.18855 2.4175-0.51172 3.0527-1.146 2.3153-3.0103 3.0458-5.5137 3.3242-2.8118 0.28331-4.855-1.7034-4.9492-4.2051-0.001423 0.081596-0.012871 0.15703-0.011719 0.24023 0.03515 2.5551 2.1065 4.604 4.9609 4.3164 2.5034-0.27844 4.3677-1.0089 5.5137-3.3242 0.35253-0.6929 0.51285-1.9836 0.51172-3.4043z" opacity=".15"/>
 </g>
 <rect x="170.25" y="5.1191" width="56.002" height="56.002" rx="13.002" ry="13.002" fill="#fff" stroke-width="3.7796"/>
 <g transform="matrix(3.7796 0 0 3.7796 -79.345 .14751)">
  <path transform="matrix(.26458 0 0 .26458 20.993 -.039028)" d="m43.527 12.188c-0.33691-0.006751-0.7585 0.054342-1.2871 0.17383l-8.8652 1.7988-0.19336 0.039063-8.0469 1.5879c-1.4787 0.31609-1.7654 1.1408-1.7305 2.4453v0.49805c-0.032664-1.2971 0.25663-2.1185 1.7305-2.4336l8.0469-1.5879 0.19336-0.039062 8.8652-1.7988c0.52861-0.11949 0.9502-0.18063 1.2871-0.17383v0.001953c1.0107 0.0202 1.2494 0.63959 1.25 2.0332v-0.50977c-6.24e-4 -1.3936-0.23926-2.013-1.25-2.0332v-0.001953zm-17.957 14.119c-0.008439 0.23157 0.003239 0.49155 0.001954 0.78906v-0.50976c4.52e-4 -0.10447-5.56e-4 -0.18322-0.001954-0.2793zm17.053 8.5156c-0.067413 1.4234-0.21139 2.0771-1.8535 2.3398-5.8266 0.86728-6.973 2.8035-6.9375 5.3691 7.52e-4 0.054662 0.014945 0.10414 0.017578 0.1582 0.079169-2.3881 1.3666-4.1929 6.9199-5.0195 1.6464-0.2634 1.7863-0.9185 1.8535-2.3496v-0.49805zm-19.195 3.7793c-0.06737 1.427-0.22528 2.2116-1.8691 2.4746-5.8266 0.86728-6.9574 2.6706-6.9219 5.2363 7.64e-4 0.055545 0.014902 0.10706 0.017578 0.16211 0.07792-2.3767 1.3511-4.0621 6.9043-4.8887 1.6464-0.2634 1.8019-1.0494 1.8691-2.4805v-0.50391zm2.168 4.1816v0.50977c0.020337 0.34036 0.023138 0.67489 0.025391 1.0078 0.01104-0.49244 0.005473-1.001-0.025391-1.5176z" fill="#fff" opacity=".1"/>
 </g>
</svg>
