<svg width="64" height="64" version="1.1" xmlns="http://www.w3.org/2000/svg">
 <defs>
  <linearGradient id="linearGradient862-3" x1="7.9373" x2="7.9373" y1="15.081" y2="1.852" gradientTransform="matrix(3.7795 0 0 3.7795 .00014309 .031541)" gradientUnits="userSpaceOnUse">
   <stop stop-color="#090909" offset="0"/>
   <stop stop-color="#292929" offset="1"/>
  </linearGradient>
  <linearGradient id="linearGradient1033" x1="11.993" x2="11.993" y1="15.289" y2="8.3841" gradientTransform="matrix(3.7796 0 0 3.7796 0 .99986)" gradientUnits="userSpaceOnUse">
   <stop stop-color="#2e2e2e" offset="0"/>
   <stop stop-color="#5c5c5c" offset="1"/>
  </linearGradient>
  <radialGradient id="radialGradient1042" cx="12.171" cy="12.171" r="4.7624" gradientTransform="matrix(3.7796,0,0,3.7796,0,2e-6)" gradientUnits="userSpaceOnUse">
   <stop offset="0"/>
   <stop stop-opacity="0" offset="1"/>
  </radialGradient>
  <linearGradient id="linearGradient1700" x1="46" x2="46" y1="54" y2="38" gradientUnits="userSpaceOnUse">
   <stop stop-color="#d1d1d1" offset="0"/>
   <stop stop-color="#fff" stop-opacity=".99032" offset="1"/>
  </linearGradient>
 </defs>
 <g transform="scale(3.7796)" shape-rendering="auto">
  <path d="m4.3693 0.52916c-2.1142 0-3.8402 1.7835-3.8402 3.9682v8.4675c0 2.1846 1.726 3.9682 3.8402 3.9682h8.1944c2.1142 0 3.8402-1.7835 3.8402-3.9682v-8.4675c0-2.1846-1.726-3.9682-3.8402-3.9682zm0.25704 0.52089h7.6808c1.8443 0 3.3291 1.5342 3.3291 3.44v7.9368c0 1.9058-1.4847 3.44-3.3291 3.44h-7.6808c-1.8443 0-3.3291-1.5342-3.3291-3.44v-7.9368c0-1.9058 1.4847-3.44 3.3291-3.44z" color="#000000" color-rendering="auto" dominant-baseline="auto" image-rendering="auto" opacity=".01" solid-color="#000000" stop-color="#000000" style="font-feature-settings:normal;font-variant-alternates:normal;font-variant-caps:normal;font-variant-east-asian:normal;font-variant-ligatures:normal;font-variant-numeric:normal;font-variant-position:normal;font-variation-settings:normal;inline-size:0;isolation:auto;mix-blend-mode:normal;shape-margin:0;shape-padding:0;text-decoration-color:#000000;text-decoration-line:none;text-decoration-style:solid;text-indent:0;text-orientation:mixed;text-transform:none;white-space:normal"/>
  <path d="m4.3587 0.79373c-1.9668 0-3.5639 1.6528-3.5639 3.6876v8.4996c0 2.0348 1.5971 3.6876 3.5639 3.6876h8.2162c1.9668 0 3.5644-1.6528 3.5644-3.6876v-8.4996c0-2.0348-1.5976-3.6876-3.5644-3.6876zm0.27222 0.25631h7.6718c1.8422 0 3.3251 1.5342 3.3251 3.44v7.9368c0 1.9058-1.483 3.44-3.3251 3.44h-7.6718c-1.8422 0-3.3251-1.5342-3.3251-3.44v-7.9368c0-1.9058 1.483-3.44 3.3251-3.44z" color="#000000" color-rendering="auto" dominant-baseline="auto" image-rendering="auto" opacity=".01" solid-color="#000000" stop-color="#000000" style="font-feature-settings:normal;font-variant-alternates:normal;font-variant-caps:normal;font-variant-east-asian:normal;font-variant-ligatures:normal;font-variant-numeric:normal;font-variant-position:normal;font-variation-settings:normal;inline-size:0;isolation:auto;mix-blend-mode:normal;shape-margin:0;shape-padding:0;text-decoration-color:#000000;text-decoration-line:none;text-decoration-style:solid;text-indent:0;text-orientation:mixed;text-transform:none;white-space:normal"/>
  <path d="m4.3097 1.0583c-1.8657 0-3.3751 1.5383-3.3751 3.439v8.4675c0 1.9007 1.57 3.439 3.4357 3.439h8.1996c1.8657 0 3.4274-1.5383 3.4274-3.439v-8.4675c0-1.9007-1.51-3.439-3.3756-3.439h-0.09688c1.794 0.086515 3.2138 1.5819 3.2138 3.4318v7.9368c0 1.9058-1.5059 3.44-3.3766 3.44h-7.7905c-1.8707 0-3.3766-1.5342-3.3766-3.44v-7.9368c0-1.8498 1.4199-3.3451 3.2138-3.4318z" color="#000000" color-rendering="auto" dominant-baseline="auto" image-rendering="auto" opacity=".03" solid-color="#000000" stop-color="#000000" style="font-feature-settings:normal;font-variant-alternates:normal;font-variant-caps:normal;font-variant-east-asian:normal;font-variant-ligatures:normal;font-variant-numeric:normal;font-variant-position:normal;font-variation-settings:normal;inline-size:0;isolation:auto;mix-blend-mode:normal;shape-margin:0;shape-padding:0;text-decoration-color:#000000;text-decoration-line:none;text-decoration-style:solid;text-indent:0;text-orientation:mixed;text-transform:none;white-space:normal"/>
  <path transform="scale(.26458)" d="m4 46.969v2.0312c0 6.6479 5.8957 12 12.544 12h30.961c6.6479 0 12.495-5.3521 12.495-12v-1.9922c-0.021173 7.1849-5.81 12.963-13 12.963h-29.998c-7.2032 0-13.002-5.7987-13.002-13.002z" color="#000000" color-rendering="auto" dominant-baseline="auto" image-rendering="auto" opacity=".03" solid-color="#000000" stop-color="#000000" style="font-feature-settings:normal;font-variant-alternates:normal;font-variant-caps:normal;font-variant-east-asian:normal;font-variant-ligatures:normal;font-variant-numeric:normal;font-variant-position:normal;font-variation-settings:normal;inline-size:0;isolation:auto;mix-blend-mode:normal;shape-margin:0;shape-padding:0;text-decoration-color:#000000;text-decoration-line:none;text-decoration-style:solid;text-indent:0;text-orientation:mixed;text-transform:none;white-space:normal"/>
  <path d="m1.0583 11.906v0.59234c0 1.9386 1.5729 3.4993 3.3318 3.4993h8.1603c1.7589 0 3.3243-1.5608 3.3243-3.4993v-0.58095c-0.0056 2.0952-1.5372 3.7801-3.4395 3.7801h-7.9368c-1.9058 0-3.44-1.691-3.44-3.7915z" color="#000000" color-rendering="auto" dominant-baseline="auto" image-rendering="auto" opacity=".05" solid-color="#000000" stop-color="#000000" style="font-feature-settings:normal;font-variant-alternates:normal;font-variant-caps:normal;font-variant-east-asian:normal;font-variant-ligatures:normal;font-variant-numeric:normal;font-variant-position:normal;font-variation-settings:normal;inline-size:0;isolation:auto;mix-blend-mode:normal;shape-margin:0;shape-padding:0;text-decoration-color:#000000;text-decoration-line:none;text-decoration-style:solid;text-indent:0;text-orientation:mixed;text-transform:none;white-space:normal"/>
 </g>
 <rect x="4" y="4" width="56" height="56" rx="13.002" ry="13.002" fill="url(#linearGradient862-3)" stroke-width="3.7795"/>
 <g transform="matrix(1.1257 0 0 1.1257 -73.301 -57.439)" stroke-width="1.1134">
  <path transform="matrix(.88834 0 0 .88834 65.116 51.025)" d="m17 10c-3.878 0-7 3.122-7 7v30c0 3.878 3.122 7 7 7h30c3.878 0 7-3.122 7-7v-30c0-3.878-3.122-7-7-7h-30z"/>
  <path transform="matrix(.88834 0 0 .88834 65.116 51.025)" d="m21.244 10.012v5.5586h5.4102v5.4668h-5.4102v5.5586h5.4102v5.4668h-5.4102v5.5078h-5.5098v-5.457h5.4102v-5.5566h-5.4102v-5.4688h5.4102v-5.5566h-5.4102v-5.4121c-2.8034 0.50882-5.0152 2.6712-5.5879 5.4512h5.2637v5.4668h-5.4102v5.5586h5.4102v5.4668h-5.4102v5.5586h5.5098v5.4668h-5.5098v3.9121c0 0.56852 0.074431 1.1179 0.20117 1.6465h5.209v5.166c0.51127 0.11807 1.0417 0.1875 1.5898 0.1875h4.1445v-5.3535h-5.4102v-5.5176h5.5098v5.5176h5.4102v-5.5078h5.5078v5.5078h-5.5078v5.3535h5.4102v-5.3027h5.5078v5.3027h5.4102v-5.2734h5.5098v5.1113c2.6225-0.56568 4.6832-2.5913 5.3066-5.1914h-5.3066v-5.5586h-5.4102v-5.4395h5.5078v5.4805h5.4102v-5.5586h-5.5078v-5.457h5.4082v-5.5566h-5.4082v-5.4688h5.4082v-5.2227c-0.018085-0.11152-0.033387-0.22433-0.056641-0.33398h-5.3516v-5.3691c-0.40542-0.087448-0.8252-0.13604-1.2539-0.15039h-25.994zm5.4102 0.052734h5.5078v5.4668h-5.5078v-5.4668zm10.918 0.027344h5.5098v5.4395h-5.5098v-5.4395zm-5.5078 5.4902h5.5078v5.4551h-5.5078v-5.4551zm10.918 0.027344h5.5098v5.4277h-5.5098v-5.4277zm-16.328 5.4805h5.5078v5.4668h-5.5078v-5.4668zm10.918 0.027344h5.5098v5.4395h-5.5098v-5.4395zm-5.5078 5.4902h5.5078v5.4551h-5.5078v-5.4551zm10.918 0.027344h5.5098v5.4277h-5.5098v-5.4277zm-16.328 5.4805h5.5078v5.4551h-5.4102v5.5176h-5.5078v-5.4668h5.4102v-5.5059zm10.918 0.027344h5.5098v5.4277h-5.5098v-5.4277zm-5.4102 5.4785h5.5098v5.4668h-5.5098v-5.4668zm5.4102 5.5469h5.5098v5.4785h-5.5098v-5.4785z" fill="#f2f2f2"/>
 </g>
 <circle cx="46.002" cy="46.002" r="18" fill="url(#radialGradient1042)" stroke-width="4.252"/>
 <circle cx="46.002" cy="46.002" r="16" fill="url(#linearGradient1033)" stroke-width="3.7796"/>
 <path d="m44.752 36-0.0025 2.1533-6.2475 4.4214 1.0913 2.2119 2.6709-0.85449c0.42534 0.54244 1.0735 0.8593 1.7578 0.85937 1.176-0.0013 1.9233-0.98374 2.0068-2.1704v2.1655c-0.0016 1.0784-0.11994 2.099-1.1572 2.3462-0.92552 0.22062-1.2219-0.06807-2.334 0.39062-1.69 0.69724-2.7927 1.9717-2.793 3.8184l1.1914 2.1582h-0.44434c-0.93047 0-1.9897 1.4415-1.9897 2.5h15c0-0.91992-0.80295-2.1259-1.6235-2.4268l1.6235-2.1826v-6.9751c0-3.6954-2.9618-6.5161-6.6138-6.5161-0.0391 0.0016-0.07809 0.0025-0.11719 0.0048 0.0057-0.18316-0.01125-0.05321-0.05127-0.23193-0.22126-0.97675-0.97739-1.6705-1.9678-1.6724z" opacity=".15" stroke-width="1.25"/>
 <path d="m44.752 35-0.0025 2.1533-6.2475 4.4214 1.0913 2.2119 2.6709-0.85449c0.42534 0.54244 1.0735 0.8593 1.7578 0.85937 1.176-0.0013 1.9233-0.98374 2.0068-2.1704v2.1655c-0.0016 1.0784-0.11994 2.099-1.1572 2.3462-0.92552 0.22062-1.2219-0.06807-2.334 0.39062-1.69 0.69724-2.7927 1.9717-2.793 3.8184l1.1914 2.1582h-0.44434c-0.93047 0-1.9897 1.4415-1.9897 2.5h15c0-0.91992-0.80295-2.1259-1.6235-2.4268l1.6235-2.1826v-6.9751c0-3.6954-2.9618-6.5161-6.6138-6.5161-0.0391 0.0016-0.07809 0.0025-0.11719 0.0048 0.0057-0.18316-0.01125-0.05321-0.05127-0.23193-0.22126-0.97675-0.97739-1.6705-1.9678-1.6724z" fill="url(#linearGradient1700)" stroke-width="1.25"/>
</svg>
