<svg width="64" height="64" xmlns="http://www.w3.org/2000/svg"><defs><linearGradient id="a" x1="7.937" x2="7.937" y1="15.081" y2="1.852" gradientTransform="translate(0 .032) scale(3.7795)" gradientUnits="userSpaceOnUse"><stop stop-color="#090909" offset="0"/><stop stop-color="#292929" offset="1"/></linearGradient><linearGradient id="c" x1="11.993" x2="11.993" y1="15.289" y2="8.384" gradientTransform="translate(0 1) scale(3.7796)" gradientUnits="userSpaceOnUse"><stop stop-color="#2e2e2e" offset="0"/><stop stop-color="#5c5c5c" offset="1"/></linearGradient><linearGradient id="d" x1="46" x2="46" y1="54" y2="38" gradientUnits="userSpaceOnUse"><stop stop-color="#d1d1d1" offset="0"/><stop stop-color="#fff" stop-opacity=".99" offset="1"/></linearGradient><radialGradient id="b" cx="12.171" cy="12.171" r="4.762" gradientTransform="scale(3.7796)" gradientUnits="userSpaceOnUse"><stop offset="0"/><stop stop-opacity="0" offset="1"/></radialGradient></defs><g color="#000"><path d="M4.37.53C2.254.53.53 2.312.53 4.496v8.468c0 2.184 1.725 3.968 3.84 3.968h8.194c2.114 0 3.84-1.783 3.84-3.968V4.497c0-2.184-1.726-3.968-3.84-3.968zm.256.52h7.681c1.844 0 3.33 1.534 3.33 3.44v7.937c0 1.906-1.485 3.44-3.33 3.44h-7.68c-1.845 0-3.33-1.534-3.33-3.44V4.49c0-1.906 1.485-3.44 3.33-3.44z" opacity=".01" style="font-feature-settings:normal;font-variant-alternates:normal;font-variant-caps:normal;font-variant-east-asian:normal;font-variant-ligatures:normal;font-variant-numeric:normal;font-variant-position:normal;font-variation-settings:normal;inline-size:0;isolation:auto;mix-blend-mode:normal;shape-margin:0;shape-padding:0;text-decoration-color:#000;text-decoration-line:none;text-decoration-style:solid;text-indent:0;text-orientation:mixed;text-transform:none;white-space:normal" transform="scale(3.7796)"/><path d="M4.359.794C2.392.794.795 2.447.795 4.48v8.5c0 2.035 1.597 3.688 3.564 3.688h8.216c1.967 0 3.564-1.653 3.564-3.688v-8.5c0-2.034-1.597-3.687-3.564-3.687zm.272.256h7.672c1.842 0 3.325 1.534 3.325 3.44v7.937c0 1.906-1.483 3.44-3.325 3.44H4.63c-1.842 0-3.325-1.534-3.325-3.44V4.49c0-1.906 1.483-3.44 3.325-3.44z" opacity=".01" style="font-feature-settings:normal;font-variant-alternates:normal;font-variant-caps:normal;font-variant-east-asian:normal;font-variant-ligatures:normal;font-variant-numeric:normal;font-variant-position:normal;font-variation-settings:normal;inline-size:0;isolation:auto;mix-blend-mode:normal;shape-margin:0;shape-padding:0;text-decoration-color:#000;text-decoration-line:none;text-decoration-style:solid;text-indent:0;text-orientation:mixed;text-transform:none;white-space:normal" transform="scale(3.7796)"/><path d="M4.31 1.058c-1.866 0-3.375 1.539-3.375 3.44v8.467c0 1.9 1.57 3.439 3.435 3.439h8.2c1.866 0 3.427-1.538 3.427-3.44V4.498c0-1.9-1.51-3.439-3.375-3.439h-.097c1.794.087 3.214 1.582 3.214 3.432v7.937c0 1.906-1.506 3.44-3.377 3.44h-7.79c-1.871 0-3.377-1.534-3.377-3.44V4.49c0-1.85 1.42-3.345 3.214-3.432z" opacity=".03" style="font-feature-settings:normal;font-variant-alternates:normal;font-variant-caps:normal;font-variant-east-asian:normal;font-variant-ligatures:normal;font-variant-numeric:normal;font-variant-position:normal;font-variation-settings:normal;inline-size:0;isolation:auto;mix-blend-mode:normal;shape-margin:0;shape-padding:0;text-decoration-color:#000;text-decoration-line:none;text-decoration-style:solid;text-indent:0;text-orientation:mixed;text-transform:none;white-space:normal" transform="scale(3.7796)"/><path d="M4 46.969V49c0 6.648 5.896 12 12.544 12h30.961C54.153 61 60 55.648 60 49v-1.992a12.972 12.972 0 0 1-13 12.963H17.002A12.973 12.973 0 0 1 4 46.969z" opacity=".03" style="font-feature-settings:normal;font-variant-alternates:normal;font-variant-caps:normal;font-variant-east-asian:normal;font-variant-ligatures:normal;font-variant-numeric:normal;font-variant-position:normal;font-variation-settings:normal;inline-size:0;isolation:auto;mix-blend-mode:normal;shape-margin:0;shape-padding:0;text-decoration-color:#000;text-decoration-line:none;text-decoration-style:solid;text-indent:0;text-orientation:mixed;text-transform:none;white-space:normal"/><path d="M1.058 11.906v.592c0 1.939 1.573 3.5 3.332 3.5h8.16c1.76 0 3.325-1.561 3.325-3.5v-.58c-.006 2.095-1.537 3.78-3.44 3.78H4.498c-1.905 0-3.44-1.692-3.44-3.792z" opacity=".05" style="font-feature-settings:normal;font-variant-alternates:normal;font-variant-caps:normal;font-variant-east-asian:normal;font-variant-ligatures:normal;font-variant-numeric:normal;font-variant-position:normal;font-variation-settings:normal;inline-size:0;isolation:auto;mix-blend-mode:normal;shape-margin:0;shape-padding:0;text-decoration-color:#000;text-decoration-line:none;text-decoration-style:solid;text-indent:0;text-orientation:mixed;text-transform:none;white-space:normal" transform="scale(3.7796)"/></g><rect x="4" y="4" width="56" height="56" rx="13.002" ry="13.002" fill="url(#a)"/><g stroke-width="1.113"><path d="M17 10c-3.878 0-7 3.122-7 7v30c0 3.878 3.122 7 7 7h30c3.878 0 7-3.122 7-7V17c0-3.878-3.122-7-7-7H17z"/><path d="M21.244 10.012v5.559h5.41v5.466h-5.41v5.559h5.41v5.467h-5.41v5.508h-5.51v-5.457h5.41v-5.557h-5.41v-5.469h5.41v-5.556h-5.41v-5.413a6.978 6.978 0 0 0-5.588 5.452h5.264v5.466H10v5.56h5.41v5.466H10v5.559h5.51v5.466H10V47c0 .569.074 1.118.201 1.647h5.21v5.166A7.048 7.048 0 0 0 17 54h4.144v-5.353h-5.41v-5.518h5.51v5.518h5.41v-5.508h5.508v5.508h-5.508V54h5.41v-5.302h5.508V54h5.41v-5.273h5.51v5.111a6.975 6.975 0 0 0 5.307-5.191h-5.307v-5.559h-5.41v-5.44h5.508v5.481H54v-5.558h-5.508v-5.457h5.409v-5.557h-5.409v-5.469h5.409v-5.222c-.019-.112-.034-.225-.057-.334h-5.352v-5.37a7.07 7.07 0 0 0-1.254-.15H21.244zm5.41.053h5.508v5.466h-5.508v-5.466zm10.918.027h5.51v5.44h-5.51v-5.44zm-5.507 5.49h5.507v5.455h-5.507v-5.455zm10.918.028h5.51v5.427h-5.51V15.61zm-16.328 5.48h5.507v5.467h-5.507V21.09zm10.918.027h5.51v5.44h-5.51v-5.44zm-5.508 5.49h5.508v5.456h-5.508v-5.455zm10.918.028h5.51v5.428h-5.51v-5.428zm-16.328 5.48h5.508v5.456h-5.41v5.517h-5.508v-5.467h5.41v-5.506zm10.918.028h5.51v5.428h-5.51v-5.428zm-5.41 5.478h5.51v5.467h-5.51v-5.467zm5.41 5.547h5.51v5.479h-5.51v-5.479z" fill="#f2f2f2"/></g><circle cx="46.002" cy="46.002" r="18" fill="url(#b)"/><circle cx="46.002" cy="46.002" r="16" fill="url(#c)"/><path d="m44.752 36-.003 2.153-6.247 4.422 1.091 2.212 2.671-.855c.426.543 1.074.86 1.758.86 1.176-.002 1.923-.984 2.007-2.17v2.165c-.002 1.078-.12 2.099-1.157 2.346-.926.22-1.222-.068-2.334.39-1.69.698-2.793 1.972-2.793 3.819l1.191 2.158h-.444c-.93 0-1.99 1.442-1.99 2.5h15c0-.92-.803-2.126-1.624-2.427l1.624-2.182v-6.975c0-3.696-2.962-6.517-6.614-6.517l-.117.005c.006-.183-.011-.053-.051-.232-.222-.976-.978-1.67-1.968-1.672z" opacity=".15"/><path d="m44.752 35-.003 2.153-6.247 4.422 1.091 2.212 2.671-.855c.426.543 1.074.86 1.758.86 1.176-.002 1.923-.984 2.007-2.17v2.165c-.002 1.078-.12 2.099-1.157 2.346-.926.22-1.222-.068-2.334.39-1.69.698-2.793 1.972-2.793 3.819l1.191 2.158h-.444c-.93 0-1.99 1.442-1.99 2.5h15c0-.92-.803-2.126-1.624-2.427l1.624-2.182v-6.975c0-3.696-2.962-6.517-6.614-6.517l-.117.005c.006-.183-.011-.053-.051-.232-.222-.976-.978-1.67-1.968-1.672z" fill="url(#d)"/></svg>