<svg width="64" height="64" viewBox="0 0 16.933 16.933" xmlns="http://www.w3.org/2000/svg"><defs><linearGradient id="a" x1="7.937" x2="7.937" y1="15.081" y2="1.852" gradientUnits="userSpaceOnUse"><stop stop-color="#2858e4" offset="0"/><stop stop-color="#5ab9f4" offset="1"/></linearGradient><filter style="color-interpolation-filters:sRGB" id="b" x="-.158" y="-.158" width="1.315" height="1.315"><feGaussianBlur stdDeviation=".696"/></filter></defs><g color="#000"><path d="M4.37.53C2.254.53.53 2.312.53 4.496v8.468c0 2.184 1.725 3.968 3.84 3.968h8.194c2.114 0 3.84-1.783 3.84-3.968V4.497c0-2.184-1.726-3.968-3.84-3.968zm.256.52h7.681c1.844 0 3.33 1.534 3.33 3.44v7.937c0 1.906-1.485 3.44-3.33 3.44h-7.68c-1.845 0-3.33-1.534-3.33-3.44V4.49c0-1.906 1.485-3.44 3.33-3.44z" opacity=".01" style="font-feature-settings:normal;font-variant-alternates:normal;font-variant-caps:normal;font-variant-east-asian:normal;font-variant-ligatures:normal;font-variant-numeric:normal;font-variant-position:normal;font-variation-settings:normal;inline-size:0;isolation:auto;mix-blend-mode:normal;shape-margin:0;shape-padding:0;text-decoration-color:#000;text-decoration-line:none;text-decoration-style:solid;text-indent:0;text-orientation:mixed;text-transform:none;white-space:normal"/><path d="M4.359.794C2.392.794.795 2.447.795 4.48v8.5c0 2.035 1.597 3.688 3.564 3.688h8.216c1.967 0 3.564-1.653 3.564-3.688v-8.5c0-2.034-1.597-3.687-3.564-3.687zm.272.256h7.672c1.842 0 3.325 1.534 3.325 3.44v7.937c0 1.906-1.483 3.44-3.325 3.44H4.63c-1.842 0-3.325-1.534-3.325-3.44V4.49c0-1.906 1.483-3.44 3.325-3.44z" opacity=".01" style="font-feature-settings:normal;font-variant-alternates:normal;font-variant-caps:normal;font-variant-east-asian:normal;font-variant-ligatures:normal;font-variant-numeric:normal;font-variant-position:normal;font-variation-settings:normal;inline-size:0;isolation:auto;mix-blend-mode:normal;shape-margin:0;shape-padding:0;text-decoration-color:#000;text-decoration-line:none;text-decoration-style:solid;text-indent:0;text-orientation:mixed;text-transform:none;white-space:normal"/><path d="M4.31 1.058c-1.866 0-3.375 1.539-3.375 3.44v8.467c0 1.9 1.57 3.439 3.435 3.439h8.2c1.866 0 3.427-1.538 3.427-3.44V4.498c0-1.9-1.51-3.439-3.375-3.439h-.097c1.794.087 3.214 1.582 3.214 3.432v7.937c0 1.906-1.506 3.44-3.377 3.44h-7.79c-1.871 0-3.377-1.534-3.377-3.44V4.49c0-1.85 1.42-3.345 3.214-3.432z" opacity=".03" style="font-feature-settings:normal;font-variant-alternates:normal;font-variant-caps:normal;font-variant-east-asian:normal;font-variant-ligatures:normal;font-variant-numeric:normal;font-variant-position:normal;font-variation-settings:normal;inline-size:0;isolation:auto;mix-blend-mode:normal;shape-margin:0;shape-padding:0;text-decoration-color:#000;text-decoration-line:none;text-decoration-style:solid;text-indent:0;text-orientation:mixed;text-transform:none;white-space:normal"/><path transform="scale(.26458)" d="M4 46.969V49c0 6.648 5.896 12 12.544 12h30.961C54.153 61 60 55.648 60 49v-1.992a12.972 12.972 0 0 1-13 12.963H17.002A12.973 12.973 0 0 1 4 46.969z" opacity=".03" style="font-feature-settings:normal;font-variant-alternates:normal;font-variant-caps:normal;font-variant-east-asian:normal;font-variant-ligatures:normal;font-variant-numeric:normal;font-variant-position:normal;font-variation-settings:normal;inline-size:0;isolation:auto;mix-blend-mode:normal;shape-margin:0;shape-padding:0;text-decoration-color:#000;text-decoration-line:none;text-decoration-style:solid;text-indent:0;text-orientation:mixed;text-transform:none;white-space:normal"/><path d="M1.058 11.906v.592c0 1.939 1.573 3.5 3.332 3.5h8.16c1.76 0 3.325-1.561 3.325-3.5v-.58c-.006 2.095-1.537 3.78-3.44 3.78H4.498c-1.905 0-3.44-1.692-3.44-3.792z" opacity=".05" style="font-feature-settings:normal;font-variant-alternates:normal;font-variant-caps:normal;font-variant-east-asian:normal;font-variant-ligatures:normal;font-variant-numeric:normal;font-variant-position:normal;font-variation-settings:normal;inline-size:0;isolation:auto;mix-blend-mode:normal;shape-margin:0;shape-padding:0;text-decoration-color:#000;text-decoration-line:none;text-decoration-style:solid;text-indent:0;text-orientation:mixed;text-transform:none;white-space:normal"/></g><rect x="1.058" y="1.05" width="14.817" height="14.817" rx="3.44" ry="3.44" fill="url(#a)"/><g transform="translate(0 .53)" fill="#2a5be5" opacity=".15"><rect x="3.44" y="10.583" width="2.646" height="2.646" rx=".529" ry=".529"/><rect x="7.144" y="10.583" width="2.646" height="2.646" rx=".529" ry=".529"/><rect x="10.848" y="10.583" width="2.646" height="2.646" rx=".529" ry=".529"/></g><path style="opacity:.3497388;stroke-width:.264578;filter:url(#b)" d="M8.402 3.142a.53.53 0 0 0-.05.003A5.298 5.298 0 0 0 3.11 8.434a5.3 5.3 0 0 0 5.292 5.291 5.298 5.298 0 0 0 5.288-5.239.53.53 0 0 0 .004-.052.53.53 0 0 0-.53-.53.53.53 0 0 0-.529.53 4.225 4.225 0 0 1-4.233 4.233 4.225 4.225 0 0 1-4.233-4.233A4.225 4.225 0 0 1 8.402 4.2a.53.53 0 0 0 .53-.529.53.53 0 0 0-.53-.529Zm0 2.117a.53.53 0 0 0-.05.002 3.182 3.182 0 0 0-3.125 3.173 3.183 3.183 0 0 0 3.175 3.174 3.181 3.181 0 0 0 3.172-3.122.53.53 0 0 0 .003-.052.53.53 0 0 0-.53-.53.53.53 0 0 0-.528.53 2.109 2.109 0 0 1-2.117 2.116 2.109 2.109 0 0 1-2.117-2.116c0-1.176.942-2.117 2.117-2.117a.53.53 0 0 0 .53-.53.53.53 0 0 0-.53-.528Zm0 2.116a1.058 1.058 0 0 0-1.058 1.059 1.058 1.058 0 0 0 1.058 1.058A1.058 1.058 0 0 0 9.46 8.434a1.058 1.058 0 0 0-1.058-1.059z"/><path style="fill:#fff;stroke-width:.264578" d="M8.402 3.142a.53.53 0 0 0-.05.003A5.298 5.298 0 0 0 3.11 8.434a5.3 5.3 0 0 0 5.292 5.291 5.298 5.298 0 0 0 5.288-5.239.53.53 0 0 0 .004-.052.53.53 0 0 0-.53-.53.53.53 0 0 0-.529.53 4.225 4.225 0 0 1-4.233 4.233 4.225 4.225 0 0 1-4.233-4.233A4.225 4.225 0 0 1 8.402 4.2a.53.53 0 0 0 .53-.529.53.53 0 0 0-.53-.529Zm0 2.117a.53.53 0 0 0-.05.002 3.182 3.182 0 0 0-3.125 3.173 3.183 3.183 0 0 0 3.175 3.174 3.181 3.181 0 0 0 3.172-3.122.53.53 0 0 0 .003-.052.53.53 0 0 0-.53-.53.53.53 0 0 0-.528.53 2.109 2.109 0 0 1-2.117 2.116 2.109 2.109 0 0 1-2.117-2.116c0-1.176.942-2.117 2.117-2.117a.53.53 0 0 0 .53-.53.53.53 0 0 0-.53-.528Zm0 2.116a1.058 1.058 0 0 0-1.058 1.059 1.058 1.058 0 0 0 1.058 1.058A1.058 1.058 0 0 0 9.46 8.434a1.058 1.058 0 0 0-1.058-1.059z"/></svg>