<svg width="64" height="64" version="1.1" viewBox="0 0 16.933 16.933" xmlns="http://www.w3.org/2000/svg" xmlns:xlink="http://www.w3.org/1999/xlink">
 <defs>
  <linearGradient id="linearGradient862" x1="7.9373" x2="7.9373" y1="15.081" y2="1.852" gradientUnits="userSpaceOnUse">
   <stop stop-color="#eae8e9" offset="0"/>
   <stop stop-color="#f9f8f9" offset="1"/>
  </linearGradient>
  <linearGradient id="linearGradient1021" x1="25.135" x2="25.135" y1="11.222" y2="9.3897" gradientTransform="translate(2.1817 .14366)" gradientUnits="userSpaceOnUse">
   <stop stop-color="#2f6a4d" offset="0"/>
   <stop stop-color="#5fb68b" offset=".28446"/>
   <stop stop-color="#7bcfa5" offset=".63483"/>
   <stop stop-color="#fff" offset=".67901"/>
   <stop stop-color="#fff" offset=".76713"/>
   <stop stop-color="#4ba97b" offset=".79259"/>
   <stop stop-color="#337052" offset="1"/>
  </linearGradient>
  <linearGradient id="linearGradient1129" x1="25.135" x2="25.135" y1="11.222" y2="9.3897" gradientTransform="translate(-10.229 .14366)" gradientUnits="userSpaceOnUse">
   <stop stop-color="#27573f" offset="0"/>
   <stop stop-color="#5bb086" offset=".40921"/>
   <stop stop-color="#75c99f" offset=".63483"/>
   <stop stop-color="#295b43" offset="1"/>
  </linearGradient>
  <linearGradient id="linearGradient1181" x1="17.367" x2="17.367" y1="10.635" y2="10.254" gradientTransform="matrix(1 0 0 .66667 -.43399 3.49)" gradientUnits="userSpaceOnUse">
   <stop stop-color="#323433" offset="0"/>
   <stop stop-color="#6b6b6b" offset=".63329"/>
   <stop stop-color="#383a39" offset="1"/>
  </linearGradient>
  <linearGradient id="linearGradient1158" x1="34.285" x2="34.256" y1="10.964" y2="9.9266" gradientUnits="userSpaceOnUse" xlink:href="#linearGradient1021"/>
  <linearGradient id="linearGradient1166" x1="17.409" x2="17.4" y1="10.65" y2="10.228" gradientUnits="userSpaceOnUse" xlink:href="#linearGradient1129"/>
 </defs>
 <g shape-rendering="auto">
  <path d="m4.3693 0.52916c-2.1142 0-3.8402 1.7835-3.8402 3.9682v8.4675c0 2.1846 1.726 3.9682 3.8402 3.9682h8.1944c2.1142 0 3.8402-1.7835 3.8402-3.9682v-8.4675c0-2.1846-1.726-3.9682-3.8402-3.9682zm0.25704 0.52089h7.6808c1.8443 0 3.3291 1.5342 3.3291 3.44v7.9368c0 1.9058-1.4847 3.44-3.3291 3.44h-7.6808c-1.8443 0-3.3291-1.5342-3.3291-3.44v-7.9368c0-1.9058 1.4847-3.44 3.3291-3.44z" color="#000000" color-rendering="auto" dominant-baseline="auto" image-rendering="auto" opacity=".01" solid-color="#000000" stop-color="#000000" style="font-feature-settings:normal;font-variant-alternates:normal;font-variant-caps:normal;font-variant-east-asian:normal;font-variant-ligatures:normal;font-variant-numeric:normal;font-variant-position:normal;font-variation-settings:normal;inline-size:0;isolation:auto;mix-blend-mode:normal;shape-margin:0;shape-padding:0;text-decoration-color:#000000;text-decoration-line:none;text-decoration-style:solid;text-indent:0;text-orientation:mixed;text-transform:none;white-space:normal"/>
  <path d="m4.3587 0.79373c-1.9668 0-3.5639 1.6528-3.5639 3.6876v8.4996c0 2.0348 1.5971 3.6876 3.5639 3.6876h8.2162c1.9668 0 3.5644-1.6528 3.5644-3.6876v-8.4996c0-2.0348-1.5976-3.6876-3.5644-3.6876zm0.27222 0.25631h7.6718c1.8422 0 3.3251 1.5342 3.3251 3.44v7.9368c0 1.9058-1.483 3.44-3.3251 3.44h-7.6718c-1.8422 0-3.3251-1.5342-3.3251-3.44v-7.9368c0-1.9058 1.483-3.44 3.3251-3.44z" color="#000000" color-rendering="auto" dominant-baseline="auto" image-rendering="auto" opacity=".01" solid-color="#000000" stop-color="#000000" style="font-feature-settings:normal;font-variant-alternates:normal;font-variant-caps:normal;font-variant-east-asian:normal;font-variant-ligatures:normal;font-variant-numeric:normal;font-variant-position:normal;font-variation-settings:normal;inline-size:0;isolation:auto;mix-blend-mode:normal;shape-margin:0;shape-padding:0;text-decoration-color:#000000;text-decoration-line:none;text-decoration-style:solid;text-indent:0;text-orientation:mixed;text-transform:none;white-space:normal"/>
  <path d="m4.3097 1.0583c-1.8657 0-3.3751 1.5383-3.3751 3.439v8.4675c0 1.9007 1.57 3.439 3.4357 3.439h8.1996c1.8657 0 3.4274-1.5383 3.4274-3.439v-8.4675c0-1.9007-1.51-3.439-3.3756-3.439h-0.09688c1.794 0.086515 3.2138 1.5819 3.2138 3.4318v7.9368c0 1.9058-1.5059 3.44-3.3766 3.44h-7.7905c-1.8707 0-3.3766-1.5342-3.3766-3.44v-7.9368c0-1.8498 1.4199-3.3451 3.2138-3.4318z" color="#000000" color-rendering="auto" dominant-baseline="auto" image-rendering="auto" opacity=".03" solid-color="#000000" stop-color="#000000" style="font-feature-settings:normal;font-variant-alternates:normal;font-variant-caps:normal;font-variant-east-asian:normal;font-variant-ligatures:normal;font-variant-numeric:normal;font-variant-position:normal;font-variation-settings:normal;inline-size:0;isolation:auto;mix-blend-mode:normal;shape-margin:0;shape-padding:0;text-decoration-color:#000000;text-decoration-line:none;text-decoration-style:solid;text-indent:0;text-orientation:mixed;text-transform:none;white-space:normal"/>
  <path transform="scale(.26458)" d="m4 46.969v2.0312c0 6.6479 5.8957 12 12.544 12h30.961c6.6479 0 12.495-5.3521 12.495-12v-1.9922c-0.02117 7.1849-5.81 12.963-13 12.963h-29.998c-7.2032 0-13.002-5.7987-13.002-13.002z" color="#000000" color-rendering="auto" dominant-baseline="auto" image-rendering="auto" opacity=".03" solid-color="#000000" stop-color="#000000" style="font-feature-settings:normal;font-variant-alternates:normal;font-variant-caps:normal;font-variant-east-asian:normal;font-variant-ligatures:normal;font-variant-numeric:normal;font-variant-position:normal;font-variation-settings:normal;inline-size:0;isolation:auto;mix-blend-mode:normal;shape-margin:0;shape-padding:0;text-decoration-color:#000000;text-decoration-line:none;text-decoration-style:solid;text-indent:0;text-orientation:mixed;text-transform:none;white-space:normal"/>
  <path d="m1.0583 11.906v0.59234c0 1.9386 1.5729 3.4993 3.3318 3.4993h8.1603c1.7589 0 3.3243-1.5608 3.3243-3.4993v-0.58095c-0.0056 2.0952-1.5372 3.7801-3.4395 3.7801h-7.9368c-1.9058 0-3.44-1.691-3.44-3.7915z" color="#000000" color-rendering="auto" dominant-baseline="auto" image-rendering="auto" opacity=".05" solid-color="#000000" stop-color="#000000" style="font-feature-settings:normal;font-variant-alternates:normal;font-variant-caps:normal;font-variant-east-asian:normal;font-variant-ligatures:normal;font-variant-numeric:normal;font-variant-position:normal;font-variation-settings:normal;inline-size:0;isolation:auto;mix-blend-mode:normal;shape-margin:0;shape-padding:0;text-decoration-color:#000000;text-decoration-line:none;text-decoration-style:solid;text-indent:0;text-orientation:mixed;text-transform:none;white-space:normal"/>
 </g>
 <rect x="1.0583" y="1.05" width="14.817" height="14.817" rx="3.4401" ry="3.4401" fill="url(#linearGradient862)"/>
 <g fill="#52a17a">
  <path d="m3.1647 3.469h-0.10919l-0.02041 0.13777h0.10307v0.057147h-0.11123l-0.032656 0.22145h-0.060209l0.032656-0.22145h-0.13675l-0.034697 0.22145h-0.060209l0.034697-0.22145h-0.11123v-0.057147h0.1194l0.023471-0.13777h-0.11327v-0.056127l0.12042 0.00102 0.031635-0.20716h0.059188l-0.030615 0.20716h0.13572l0.030615-0.20716h0.059188l-0.030615 0.20716h0.10103zm-0.16838 0h-0.13572l-0.022451 0.13777h0.13777z"/>
  <path d="m3.6739 3.469h-0.10919l-0.02041 0.13777h0.10307v0.057147h-0.11123l-0.032656 0.22145h-0.060209l0.032656-0.22145h-0.13675l-0.034697 0.22145h-0.060209l0.034696-0.22145h-0.11123v-0.057147h0.1194l0.023471-0.13777h-0.11327v-0.056127l0.12042 0.00102 0.031635-0.20716h0.059188l-0.030615 0.20716h0.13572l0.030615-0.20716h0.059188l-0.030615 0.20716h0.10103zm-0.16838 0h-0.13572l-0.022451 0.13777h0.13777z"/>
  <path d="m5.0434 3.871q0 0.014287-0.012246 0.026533t-0.026533 0.012246q-0.025512 0-0.036738-0.026533-0.045921-0.10613-0.075515-0.24288-0.013266-0.066332-0.023471-0.15103-0.0081639-0.076537-0.0081639-0.14797-0.056127 0.072455-0.11021 0.16532l-0.078578 0.13266q-0.029594 0.051024-0.036738 0.053065-0.033676 0-0.074496-0.10307-0.033676-0.0847-0.06225-0.22757l-0.056127 0.094905q-0.048983 0.08368-0.088782 0.1745-0.056127 0.12654-0.08368 0.24186-0.00408 0.017348-0.014287 0.022451-0.00918 0.00612-0.026533 0.00612-0.011225 0-0.025512-0.00918-0.00918-0.00816-0.011225-0.025512 0-0.069393 0.085721-0.25614 0.068373-0.15001 0.12858-0.25002 0.087762-0.14491 0.12858-0.14491 0.019389 0 0.045922 0.1592 0.018369 0.10613 0.050004 0.17552 0.073475-0.13981 0.17246-0.25308 0.084701-0.096946 0.11327-0.096946 0.022451 0 0.022451 0.14899 0 0.11634 0.026533 0.24492 0.019389 0.092864 0.050004 0.18981z"/>
  <path d="m5.4863 3.5588q-0.057147 0.1745-0.057147 0.31227 0 0.030615-0.034696 0.034697-0.017348 0-0.028574-0.013266-0.010205-0.012246-0.010205-0.029594-0.033676 0.04082-0.1194 0.04082-0.058168 0-0.10613-0.04082-0.056127-0.047963-0.056127-0.12348 0-0.093885 0.073475-0.15511 0.069393-0.058168 0.16532-0.058168 0.046942 0 0.061229 0.011225 0.010205 0.00714 0.010205 0.025512 0 0.014287-0.00816 0.025512-0.00918 0.00918-0.033676 0.00918-0.074496 0-0.12858 0.031635-0.065311 0.038779-0.065311 0.10817 0 0.051024 0.033676 0.074495 0.023471 0.016328 0.056127 0.016328 0.064291 0 0.1194-0.043881 0.029594-0.1643 0.052045-0.21838 0.016328-0.039799 0.04184-0.039799 0.032656 0 0.034696 0.032656z"/>
  <path d="m5.8781 3.871q0 0.013266-0.013266 0.025512-0.012246 0.013266-0.025512 0.013266-0.0051 0-0.10511-0.1194-0.11021-0.1296-0.11634-0.13674l-0.036738 0.22145q0 0.025512-0.037758 0.030615-0.015307 0-0.024492-0.010205-0.010205-0.00918-0.010205-0.026533l0.10103-0.60311q0.00204-0.014287 0.011225-0.02041 0.00714-0.00612 0.025512-0.00612 0.012246 0 0.023471 0.010205 0.012246 0.010205 0.013266 0.022451l-0.051023 0.29288q0.056127-0.025512 0.15103-0.075516 0.025512-0.013266 0.043881-0.016328 0.012246 0 0.022451 0.013266 0.010205 0.012246 0.010205 0.025512 0.00102 0.043881-0.1745 0.10817 0.038779 0.038778 0.060209 0.06327t0.06327 0.077557q0.069393 0.088782 0.069393 0.11021z"/>
  <path d="m6.2904 3.8129q0 0.037758-0.093885 0.068373-0.077557 0.024492-0.12756 0.024492-0.16022 0-0.16022-0.13981 0-0.089803 0.061229-0.16328 0.069393-0.0847 0.17144-0.0847 0.065311 0 0.10511 0.026533 0.039799 0.026533 0.039799 0.060209 0 0.061229-0.12042 0.12348-0.10103 0.052045-0.13777 0.052045-0.028574 0-0.028574-0.034696 0-0.011225 0.10715-0.055106 0.10817-0.044901 0.10817-0.074496 0-0.012246-0.016328-0.022451-0.018369-0.00714-0.057147-0.00714-0.076536 0-0.12144 0.054086-0.04082 0.050004-0.04082 0.12348 0 0.035717 0.02041 0.055106t0.065311 0.019389q0.051024 0 0.094905-0.02041l0.097967-0.045922q0.032656 0 0.032656 0.04082z"/>
  <path d="m6.7129 3.5567q0 0.028574-0.018369 0.036738-0.012246 0.00612-0.038779 0.00612-0.093885 0-0.17552 0.066332-0.061229 0.048983-0.074496 0.089803l-0.018369 0.12144q-0.00408 0.026533-0.037758 0.026533-0.031635 0-0.036738-0.034697l0.052045-0.31227q0.0051-0.032656 0.035717-0.032656 0.035717 0 0.035717 0.038779l-0.00918 0.057147q0.056127-0.052045 0.10511-0.069393 0.06225-0.022451 0.14185-0.022451 0.038779 0 0.038779 0.028574z"/>
 </g>
 <g fill="#d35f5f">
  <path d="m3.0749 5.4729q-0.00714 0.012246-0.023471 0.013266l-0.011225-0.00204-0.010205-0.00408-0.016328-0.013266-0.12042-0.092864 0.02143 0.15001 0.00102 0.02143q0.00204 0.031635-0.026533 0.034697-0.015307 0-0.02143-0.011225-0.00714-0.010205-0.00714-0.023471l0.00204-0.02143 0.019389-0.14797-0.1347 0.10409q-0.011225 0.0051-0.023471 0.00714-0.012246 0-0.02143-0.013266l-0.00408-0.014287q0-0.016328 0.019389-0.027553l0.02041-0.00816 0.13981-0.058168-0.16022-0.066332q-0.019389-0.00816-0.019389-0.027553 0-0.024492 0.025512-0.027553l0.012246 0.00204q0.0051 0 0.011225 0.0051l0.016328 0.011225 0.11838 0.093885-0.02143-0.17042q0-0.033676 0.028574-0.034697 0.012246 0 0.019389 0.00816 0.00816 0.00714 0.00714 0.026533l-0.00102 0.022451-0.02041 0.14797 0.13572-0.10511q0.012246-0.00612 0.02143-0.00612 0.014287 0 0.023471 0.013266l0.00408 0.014287q0 0.015307-0.02041 0.026533l-0.019389 0.010205-0.14083 0.056127 0.14083 0.056127 0.019389 0.010205 0.014287 0.012246q0.00612 0.00612 0.00612 0.015307 0 0.00612-0.00408 0.013266z"/>
  <path d="m3.0749 7.4728q-0.00714 0.012246-0.023471 0.013266l-0.011225-0.00204-0.010205-0.00408-0.016328-0.013266-0.12042-0.092864 0.02143 0.15001 0.00102 0.02143q0.00204 0.031635-0.026533 0.034697-0.015307 0-0.02143-0.011225-0.00714-0.010205-0.00714-0.023471l0.00204-0.02143 0.019389-0.14797-0.1347 0.10409q-0.011225 0.0051-0.023471 0.00714-0.012246 0-0.02143-0.013266l-0.00408-0.014287q0-0.016328 0.019389-0.027553l0.02041-0.00816 0.13981-0.058168-0.16022-0.066332q-0.019389-0.00816-0.019389-0.027553 0-0.024492 0.025512-0.027553l0.012246 0.00204q0.0051 0 0.011225 0.0051l0.016328 0.011225 0.11838 0.093885-0.02143-0.17042q0-0.033676 0.028574-0.034697 0.012246 0 0.019389 0.00816 0.00816 0.00714 0.00714 0.026533l-0.00102 0.022451-0.02041 0.14797 0.13572-0.10511q0.012246-0.00612 0.02143-0.00612 0.014287 0 0.023471 0.013266l0.00408 0.014287q0 0.015307-0.02041 0.026533l-0.019389 0.010205-0.14083 0.056127 0.14083 0.056127 0.019389 0.010205 0.014287 0.012246q0.00612 0.00612 0.00612 0.015307 0 0.00612-0.00408 0.013266z"/>
  <path d="m4.0953 9.4727q-0.00714 0.012246-0.023471 0.013266l-0.011225-0.00204-0.010205-0.00408-0.016328-0.013266-0.12042-0.092864 0.02143 0.15001 0.00102 0.02143q0.00204 0.031635-0.026533 0.034697-0.015307 0-0.02143-0.011225-0.00714-0.010205-0.00714-0.023471l0.00204-0.02143 0.019389-0.14797-0.1347 0.10409q-0.011225 0.0051-0.023471 0.00714-0.012246 0-0.02143-0.013266l-0.00408-0.014287q0-0.016328 0.019389-0.027553l0.02041-0.00816 0.13981-0.058168-0.16022-0.066332q-0.019389-0.00816-0.019389-0.027553 0-0.024492 0.025512-0.027553l0.012246 0.00204q0.0051 0 0.011225 0.0051l0.016328 0.011225 0.11838 0.093885-0.02143-0.17042q0-0.033676 0.028574-0.034697 0.012246 0 0.019389 0.00816 0.00816 0.00714 0.00714 0.026533l-0.00102 0.022451-0.02041 0.14797 0.13572-0.10511q0.012246-0.00612 0.02143-0.00612 0.014287 0 0.023471 0.013266l0.00408 0.014287q0 0.015307-0.02041 0.026533l-0.019389 0.010205-0.14083 0.056127 0.14083 0.056127 0.019389 0.010205 0.014287 0.012246q0.00612 0.00612 0.00612 0.015307 0 0.00612-0.00408 0.013266z"/>
  <path d="m4.0953 11.473q-0.00714 0.01225-0.023471 0.01327l-0.011225-2e-3 -0.010205-0.0041-0.016328-0.01327-0.12042-0.09286 0.02143 0.15001 0.00102 0.02143q0.00204 0.03164-0.026533 0.0347-0.015307 0-0.02143-0.01122-0.00714-0.01021-0.00714-0.02347l0.00204-0.02143 0.019389-0.14797-0.1347 0.10409q-0.011225 0.0051-0.023471 0.0071-0.012246 0-0.02143-0.01327l-0.00408-0.01429q0-0.01633 0.019389-0.02755l0.02041-0.0082 0.13981-0.05817-0.16022-0.06633q-0.019389-0.0082-0.019389-0.02755 0-0.02449 0.025512-0.02755l0.012246 2e-3q0.0051 0 0.011225 0.0051l0.016328 0.01123 0.11838 0.09388-0.02143-0.17042q0-0.03368 0.028574-0.0347 0.012246 0 0.019389 0.0082 0.00816 0.0071 0.00714 0.02653l-0.00102 0.02245-0.02041 0.14797 0.13572-0.10511q0.012246-0.0061 0.02143-0.0061 0.014287 0 0.023471 0.01327l0.00408 0.01429q0 0.01531-0.02041 0.02653l-0.019389 0.0102-0.14083 0.05613 0.14083 0.05613 0.019389 0.0102 0.014287 0.01225q0.00612 0.0061 0.00612 0.01531 0 0.0061-0.00408 0.01327z"/>
  <path d="m4.0953 13.473q-0.00714 0.01225-0.023471 0.01327l-0.011225-2e-3 -0.010205-0.0041-0.016328-0.01327-0.12042-0.09286 0.02143 0.15001 0.00102 0.02143q0.00204 0.03163-0.026533 0.0347-0.015307 0-0.02143-0.01122-0.00714-0.01021-0.00714-0.02347l0.00204-0.02143 0.019389-0.14797-0.1347 0.10409q-0.011225 0.0051-0.023471 0.0071-0.012246 0-0.02143-0.01327l-0.00408-0.01429q0-0.01633 0.019389-0.02755l0.02041-0.0082 0.13981-0.05817-0.16022-0.06633q-0.019389-0.0082-0.019389-0.02755 0-0.02449 0.025512-0.02755l0.012246 2e-3q0.0051 0 0.011225 0.0051l0.016328 0.01123 0.11838 0.09389-0.02143-0.17042q0-0.03368 0.028574-0.0347 0.012246 0 0.019389 0.0082 0.00816 0.0071 0.00714 0.02653l-0.00102 0.02245-0.02041 0.14797 0.13572-0.10511q0.012246-0.0061 0.02143-0.0061 0.014287 0 0.023471 0.01327l0.00408 0.01429q0 0.01531-0.02041 0.02653l-0.019389 0.0102-0.14083 0.05613 0.14083 0.05613 0.019389 0.01021 0.014287 0.01225q0.00612 0.0061 0.00612 0.01531 0 0.0061-0.00408 0.01327z"/>
 </g>
 <g opacity=".5">
  <path d="m4.2351 5.6148q0 0.058168-0.011225 0.12756-0.00816 0.055106-0.025512 0.13062-0.00612 0.029594-0.038779 0.032656-0.034696 0-0.034696-0.04286 0-0.038779 0.016328-0.11838 0.016328-0.079598 0.016328-0.1194 0-0.012246-0.00204-0.016328l-0.00408-0.00918q-0.036738 0-0.10919 0.069393-0.054086 0.052045-0.075516 0.098987-0.010205 0.024492-0.016328 0.069393-0.00408 0.036738-0.018369 0.055106-0.00918 0.011225-0.026533 0.011225-0.037758 0-0.037758-0.040819l0.019389-0.11736q0.00918-0.054086 0.00918-0.085721 0-0.028574-0.00204-0.04184-0.0051-0.011225-0.011225-0.011225-0.033676 0-0.10715 0.064291-0.066332 0.058168-0.069393 0.078577l-0.02041 0.12348q-0.00204 0.030615-0.037758 0.034697-0.016328 0-0.027553-0.013266t-0.011225-0.029594l0.054086-0.31635q0-0.023471 0.035717-0.028574 0.038778 0 0.038778 0.034696l-0.010205 0.060209q0.037758-0.036738 0.0847-0.06327 0.056127-0.031635 0.092864-0.031635 0.046942 0 0.060209 0.057147l0.00714 0.056127q0.043881-0.050004 0.087762-0.079598 0.051024-0.033676 0.10715-0.033676 0.038779 0 0.054086 0.022451 0.013266 0.023471 0.013266 0.072455z"/>
  <path d="m4.678 5.5587q-0.057147 0.1745-0.057147 0.31227 0 0.030615-0.034697 0.034696-0.017348 0-0.028574-0.013266-0.010205-0.012246-0.010205-0.029594-0.033676 0.040819-0.1194 0.040819-0.058168 0-0.10613-0.040819-0.056127-0.047963-0.056127-0.12348 0-0.093885 0.073475-0.15511 0.069393-0.058168 0.16532-0.058168 0.046942 0 0.061229 0.011225 0.010205 0.00714 0.010205 0.025512 0 0.014287-0.00816 0.025512-0.00918 0.00918-0.033676 0.00918-0.074496 0-0.12858 0.031635-0.065311 0.038779-0.065311 0.10817 0 0.051024 0.033676 0.074496 0.023471 0.016328 0.056127 0.016328 0.064291 0 0.1194-0.043881 0.029594-0.1643 0.052045-0.21838 0.016328-0.039799 0.04184-0.039799 0.032656 0 0.034697 0.032656z"/>
  <path d="m5.1005 5.5566q0 0.028574-0.018369 0.036738-0.012246 0.00612-0.038779 0.00612-0.093885 0-0.17552 0.066332-0.061229 0.048983-0.074496 0.089803l-0.018369 0.12144q-0.00408 0.026533-0.037758 0.026533-0.031635 0-0.036738-0.034697l0.052045-0.31227q0.0051-0.032656 0.035717-0.032656 0.035717 0 0.035717 0.038778l-0.00918 0.057147q0.056127-0.052045 0.10511-0.069393 0.06225-0.022451 0.14185-0.022451 0.038779 0 0.038779 0.028574z"/>
  <path d="m5.4924 5.8709q0 0.013266-0.013266 0.025512-0.012246 0.013266-0.025512 0.013266-0.0051 0-0.10511-0.1194-0.11021-0.1296-0.11634-0.13674l-0.036738 0.22145q0 0.025512-0.037758 0.030615-0.015307 0-0.024492-0.010205-0.010205-0.00918-0.010205-0.026533l0.10103-0.60311q0.00204-0.014287 0.011225-0.02041 0.00714-0.00612 0.025512-0.00612 0.012246 0 0.023471 0.010205 0.012246 0.010205 0.013266 0.022451l-0.051024 0.29288q0.056127-0.025512 0.15103-0.075516 0.025512-0.013266 0.043881-0.016328 0.012246 0 0.022451 0.013266 0.010205 0.012246 0.010205 0.025512 0.00102 0.043881-0.1745 0.10817 0.038779 0.038779 0.060209 0.06327 0.02143 0.024492 0.06327 0.077557 0.069393 0.088782 0.069393 0.11021z"/>
  <path d="m5.9771 5.2719-0.10103 0.60923q-0.00408 0.024492-0.038779 0.024492-0.032656 0-0.032656-0.038778l0.00408-0.026533-0.051024 0.029594q-0.052045 0.029594-0.11123 0.029594-0.036738 0-0.073475-0.026533-0.052045-0.037758-0.052045-0.10715 0-0.086741 0.067352-0.1592 0.078578-0.086741 0.20716-0.086741h0.023471q0.00714 0 0.019389 0.00204l0.023471 0.00408 0.04286-0.25818q0-0.024492 0.038779-0.028574 0.016328 0 0.027553 0.013266 0.00612 0.00918 0.00612 0.019389zm-0.12756 0.32758q-0.00612-0.00612-0.067352-0.00612-0.089803 0-0.14287 0.06225-0.043881 0.050004-0.043881 0.11634 0 0.029594 0.02143 0.04286 0.015307 0.011225 0.033676 0.011225 0.04184 0 0.10205-0.030615 0.039799-0.02041 0.070414-0.045922z"/>
  <path d="m6.3873 5.676q0 0.094905-0.061229 0.15818-0.061229 0.06327-0.16634 0.06327-0.078577 0-0.12144-0.054086-0.036738-0.046942-0.036738-0.12246 0-0.077557 0.057147-0.13572 0.065311-0.067352 0.16838-0.067352 0.077557 0 0.12246 0.052045 0.037758 0.044901 0.037758 0.10613zm-0.069393 0.012246q0-0.037758-0.022451-0.066332-0.027553-0.033676-0.08266-0.033676-0.058168 0-0.10001 0.04286-0.036738 0.037758-0.036738 0.085721 0 0.10715 0.097967 0.10715 0.059188 0 0.10103-0.040819 0.04286-0.04082 0.04286-0.094905z"/>
  <path d="m7.1139 5.5617q-0.096946 0.16226-0.1745 0.2592-0.066332 0.08266-0.093885 0.08266-0.037758 0-0.078578-0.22961-0.038779 0.051024-0.11021 0.12756-0.092864 0.10001-0.1194 0.10001-0.022451 0-0.064291-0.14389-0.04082-0.14491-0.04082-0.21124 0-0.036738 0.036738-0.036738 0.033676 0 0.043881 0.078578 0.015307 0.12654 0.051024 0.20206 0.08266-0.073475 0.13572-0.14797 0.06225-0.087762 0.085721-0.087762 0.030615 0 0.054086 0.10001 0.012246 0.066332 0.026533 0.13164l0.027553-0.031635q0.028574-0.031635 0.070414-0.090823 0.058168-0.081639 0.092864-0.14389z"/>
  <path d="m7.5385 5.6617q0 0.050004-0.012246 0.10409-0.00408 0.017348-0.014287 0.053065-0.00918 0.035717-0.018369 0.057147-0.012246 0.027553-0.030615 0.027553-0.04082 0-0.04082-0.036738 0.017348-0.059188 0.027553-0.10715 0.013266-0.06225 0.013266-0.10817 0-0.052045-0.025512-0.052045-0.029594 0-0.11532 0.057147-0.086741 0.057147-0.090823 0.08266l-0.02245 0.13573q-0.0051 0.028574-0.037758 0.028574-0.034697 0-0.034697-0.034697l0.054086-0.32656q0.00408-0.028574 0.039799-0.028574 0.012246 0 0.023471 0.013266 0.00816 0.00714 0.00816 0.019389v0.00408l-0.010205 0.067352q0.12858-0.097967 0.21736-0.097967 0.025512 0 0.046942 0.038778 0.022451 0.037758 0.022451 0.10307z"/>
  <path d="m8.5334 5.2719-0.10103 0.60923q-0.00408 0.024492-0.038778 0.024492-0.032656 0-0.032656-0.038778l0.00408-0.026533-0.051024 0.029594q-0.052045 0.029594-0.11123 0.029594-0.036737 0-0.073475-0.026533-0.052045-0.037758-0.052045-0.10715 0-0.086741 0.067352-0.1592 0.078577-0.086741 0.20716-0.086741h0.023471q0.00714 0 0.019389 0.00204l0.023471 0.00408 0.04286-0.25818q0-0.024492 0.038778-0.028574 0.016328 0 0.027553 0.013266 0.00612 0.00918 0.00612 0.019389zm-0.12756 0.32758q-0.00612-0.00612-0.067352-0.00612-0.089803 0-0.14287 0.06225-0.043881 0.050004-0.043881 0.11634 0 0.029594 0.02143 0.04286 0.015307 0.011225 0.033676 0.011225 0.04184 0 0.10205-0.030615 0.039799-0.02041 0.070414-0.045922z"/>
  <path d="m8.9437 5.676q0 0.094905-0.061229 0.15818-0.061229 0.06327-0.16634 0.06327-0.078578 0-0.12144-0.054086-0.036738-0.046942-0.036738-0.12246 0-0.077557 0.057147-0.13572 0.065311-0.067352 0.16838-0.067352 0.077557 0 0.12246 0.052045 0.037758 0.044901 0.037759 0.10613zm-0.069393 0.012246q0-0.037758-0.022451-0.066332-0.027553-0.033676-0.08266-0.033676-0.058168 0-0.10001 0.04286-0.036737 0.037758-0.036737 0.085721 0 0.10715 0.097967 0.10715 0.059188 0 0.10103-0.040819 0.04286-0.04082 0.04286-0.094905z"/>
  <path d="m9.358 5.5668q0 0.016328-0.010205 0.025512-0.010205 0.012246-0.026533 0.012246l-0.032656-0.010205q-0.031635-0.00816-0.059188-0.00816-0.078578 0-0.13777 0.061229-0.053065 0.055106-0.053065 0.11429 0 0.028574 0.019389 0.047963 0.019389 0.018369 0.052045 0.018369 0.050004 0 0.086741-0.019389l0.081639-0.040819q0.034697 0 0.034697 0.035717 0 0.036738-0.08266 0.070414-0.071434 0.027553-0.11634 0.027553-0.06225 0-0.10511-0.037758-0.042861-0.037758-0.042861-0.10001 0-0.092864 0.067352-0.16634 0.077557-0.08368 0.20002-0.08368 0.047963 0 0.085721 0.017348 0.038778 0.016328 0.038778 0.035717z"/>
  <path d="m9.7825 5.5444-0.035717 0.14083q-0.015307 0.058168-0.015307 0.098987v0.02041q0 0.0051 0.00204 0.025512l0.00408 0.038778q0 0.036738-0.036737 0.036738-0.027553 0-0.036738-0.025512-0.00102-0.0051-0.00714-0.050004-0.019389 0.019389-0.068373 0.04286-0.047963 0.022451-0.088782 0.022451-0.059188 0-0.089803-0.046943-0.027553-0.04184-0.027553-0.10307 0-0.067352 0.030615-0.15307 0.030615-0.08266 0.060209-0.08266 0.015307 0 0.025512 0.011225 0.011225 0.00918 0.011225 0.029594-0.018369 0.048983-0.036738 0.11021-0.018369 0.061229-0.018369 0.090823 0 0.030615 0.013266 0.052045 0.016328 0.018369 0.035717 0.018369 0.036737 0 0.089803-0.033676 0.045922-0.028574 0.070414-0.055106l0.046942-0.19695q0-0.022451 0.032656-0.022451 0.017348 0 0.028574 0.00612 0.010205 0.00714 0.010205 0.024492z"/>
  <path d="m10.428 5.6148q0 0.058168-0.01122 0.12756-0.0082 0.055106-0.02551 0.13062-0.0061 0.029594-0.03878 0.032656-0.0347 0-0.0347-0.04286 0-0.038779 0.01633-0.11838 0.01633-0.079598 0.01633-0.1194 0-0.012246-2e-3 -0.016328l-0.0041-0.00918q-0.03674 0-0.10919 0.069393-0.05409 0.052045-0.07552 0.098987-0.01021 0.024492-0.01633 0.069393-0.0041 0.036738-0.01837 0.055106-0.0092 0.011225-0.02653 0.011225-0.03776 0-0.03776-0.040819l0.01939-0.11736q0.0092-0.054086 0.0092-0.085721 0-0.028574-2e-3 -0.04184-0.0051-0.011225-0.01123-0.011225-0.03368 0-0.10715 0.064291-0.066332 0.058168-0.069393 0.078577l-0.02041 0.12348q-0.00204 0.030615-0.037758 0.034697-0.016328 0-0.027553-0.013266t-0.011225-0.029594l0.054009-0.31636q0-0.023471 0.035717-0.028574 0.038778 0 0.038778 0.034696l-0.010205 0.060209q0.037758-0.036738 0.0847-0.06327 0.05613-0.031635 0.09286-0.031635 0.04694 0 0.06021 0.057147l0.0071 0.056127q0.04388-0.050004 0.08776-0.079598 0.05102-0.033676 0.10715-0.033676 0.03878 0 0.05409 0.022451 0.01327 0.023471 0.01327 0.072455z"/>
  <path d="m10.841 5.8128q0 0.037758-0.09389 0.068373-0.07756 0.024492-0.12756 0.024492-0.16022 0-0.16022-0.13981 0-0.089803 0.06123-0.16328 0.06939-0.0847 0.17144-0.0847 0.06531 0 0.10511 0.026533t0.0398 0.060209q0 0.061229-0.12042 0.12348-0.10103 0.052045-0.13777 0.052045-0.02857 0-0.02857-0.034697 0-0.011225 0.10715-0.055106 0.10817-0.044901 0.10817-0.074496 0-0.012246-0.01633-0.022451-0.01837-0.00714-0.05715-0.00714-0.07654 0-0.12144 0.054086-0.04082 0.050004-0.04082 0.12348 0 0.035717 0.02041 0.055106t0.06531 0.019389q0.05102 0 0.09491-0.02041l0.09797-0.045922q0.03266 0 0.03266 0.04082z"/>
  <path d="m11.265 5.6617q0 0.050004-0.01225 0.10409-0.0041 0.017348-0.01429 0.053065-0.0092 0.035717-0.01837 0.057147-0.01225 0.027553-0.03062 0.027553-0.04082 0-0.04082-0.036738 0.01735-0.059188 0.02755-0.10715 0.01327-0.06225 0.01327-0.10817 0-0.052045-0.02551-0.052045-0.02959 0-0.11532 0.057147-0.08674 0.057147-0.09082 0.08266l-0.02245 0.13572q-0.0051 0.028574-0.03776 0.028574-0.0347 0-0.0347-0.034697l0.05409-0.32656q0.0041-0.028574 0.0398-0.028574 0.01225 0 0.02347 0.013266 0.0082 0.00714 0.0082 0.019389v0.00408l-0.0102 0.067352q0.12858-0.097967 0.21736-0.097967 0.02551 0 0.04694 0.038778 0.02245 0.037758 0.02245 0.10307z"/>
  <path d="m11.651 5.5464q0 0.015307-0.0092 0.024492-0.0102 0.011225-0.02551 0.013266l-0.10817 0.00918-0.04592 0.27961q-0.0051 0.026533-0.04082 0.030615-0.03266 0-0.03266-0.032656l0.0449-0.27145-0.09593 0.00918q-0.01225 0-0.02347-0.011225-0.01021-0.00816-0.01225-0.022451 0-0.018369 0.0082-0.027553 0.0092-0.010205 0.02449-0.011225l0.11123-0.00816 0.02245-0.15205q0.0051-0.028574 0.03674-0.028574 0.01225 0 0.02449 0.00918 0.0102 0.011225 0.0102 0.027553l-0.02041 0.13572 0.09695-0.00816q0.01123 0 0.02245 0.00816 0.0102 0.00918 0.01225 0.026533z"/>
  <path d="m11.974 5.5648q0 0.017348-0.0092 0.029594-0.01122 0.014287-0.02653 0.014287-0.0071 0-0.04694-0.015307-0.03878-0.016328-0.06633-0.016328-0.04592 0-0.04898 0.029594 0 0.023471 0.05 0.045922 0.08368 0.037758 0.09286 0.043881 0.05 0.031635 0.05 0.078577 0 0.072455-0.04898 0.10511-0.0347 0.023471-0.08674 0.023471-0.08266 0-0.11736-0.013266-0.0347-0.013266-0.0347-0.035717 0-0.035717 0.03062-0.04184l0.05409 0.015307q0.02143 0.00612 0.05307 0.00612 0.07552 0 0.07552-0.050004 0-0.023471-0.04898-0.048983-0.08674-0.042861-0.09184-0.046942-0.05-0.033676-0.05-0.077557 0-0.050004 0.0449-0.076536 0.03674-0.02041 0.09082-0.02041 0.03674 0 0.07756 0.011225 0.05715 0.014287 0.05715 0.039799z"/>
  <path d="m4.2107 7.2432q0 0.047963-0.013266 0.15409l-0.031635 0.26124q-0.015307 0.1245-0.030615 0.21022-0.00612 0.033676-0.046942 0.038779-0.013266 0-0.022451-0.010205-0.011225-0.00918-0.011225-0.028574l0.025512-0.17144 0.02041-0.14491-0.33676 0.04286-0.061229 0.2592q-0.011225 0.046942-0.047963 0.046942-0.032656 0-0.032656-0.038779 0-0.019389 0.023471-0.1194l0.051024-0.21532q0.026533-0.11327 0.042861-0.26635 0-0.04082 0.044901-0.04082 0.013266 0 0.022451 0.011225 0.010205 0.011225 0.010205 0.031635 0 0.058168-0.018369 0.15409l-0.018369 0.097967 0.32758-0.04286 0.013266-0.067352q0.012246-0.066332 0.012246-0.16022 0-0.017348 0.011225-0.030615 0.012246-0.014287 0.029594-0.014287 0.014287-0.00102 0.026533 0.010205 0.010205 0.010205 0.010205 0.032656z"/>
  <path d="m4.8321 7.2412q0 0.037758-0.045922 0.048983-0.015307 0.00306-0.075516 0.00714-0.055106 0.00306-0.13062 0.00306l-0.0051 0.072455q-0.00612 0.077557-0.025512 0.19593-0.018369 0.11021-0.033676 0.17859-0.00816 0.036738-0.026533 0.11532-0.00408 0.019389-0.015307 0.026533-0.014287 0.00816-0.031635 0.00816-0.012246 0-0.02143-0.013266-0.00714-0.014287-0.00714-0.029594 0.016328-0.072455 0.039799-0.20614 0.026533-0.15307 0.047963-0.34186-0.096946 0-0.12858 0.00408l-0.080618 0.010205q-0.02041 0-0.030615-0.012246t-0.010205-0.022451v-0.00204q0-0.012246 0.00918-0.026533 0.011225-0.013266 0.029594-0.014287l0.50514-0.036738q0.014287-0.00102 0.025512 0.00816 0.00918 0.010205 0.011225 0.026533z"/>
  <path d="m5.6914 7.8708q0 0.014287-0.012246 0.026533t-0.026533 0.012246q-0.025512 0-0.036738-0.026533-0.045922-0.10613-0.075516-0.24288-0.013266-0.066332-0.023471-0.15103-0.00816-0.076537-0.00816-0.14797-0.056127 0.072455-0.11021 0.16532l-0.078577 0.13266q-0.029594 0.051024-0.036738 0.053065-0.033676 0-0.074496-0.10307-0.033676-0.0847-0.06225-0.22757l-0.056127 0.094905q-0.048983 0.08368-0.088782 0.1745-0.056127 0.12654-0.08368 0.24186-0.00408 0.017348-0.014287 0.022451-0.00918 0.00612-0.026533 0.00612-0.011225 0-0.025512-0.00918-0.00918-0.00816-0.011225-0.025512 0-0.069393 0.085721-0.25614 0.068373-0.15001 0.12858-0.25002 0.087762-0.14491 0.12858-0.14491 0.019389 0 0.045922 0.1592 0.018369 0.10613 0.050004 0.17552 0.073475-0.13981 0.17246-0.25308 0.084701-0.096946 0.11327-0.096946 0.022451 0 0.022451 0.14899 0 0.11634 0.026533 0.24492 0.019389 0.092864 0.050004 0.18981z"/>
  <path d="m6.3006 7.8035q0 0.030615-0.030615 0.038779-0.23063 0.059188-0.33574 0.059188-0.095926 0-0.13675-0.017348-0.040819-0.017348-0.040819-0.060209 0-0.11532 0.04184-0.2888 0.04286-0.18063 0.093885-0.28778 0.00306-0.012246 0.013266-0.018369 0.011225-0.00612 0.025512-0.00816 0.015307 0.00102 0.027553 0.00918 0.00918 0.00918 0.00918 0.027553l-0.033676 0.10103q-0.044901 0.13675-0.06225 0.2041-0.034697 0.13572-0.034697 0.22145 0 0.025512 0.012246 0.032656 0.012246 0.00714 0.061229 0.00714 0.06327 0 0.15613-0.019389l0.19492-0.038775q0.038778 0 0.038778 0.037758z"/>
  <path d="m7.2537 7.5586q-0.057147 0.1745-0.057147 0.31227 0 0.030615-0.034697 0.034697-0.017348 0-0.028574-0.013266-0.010205-0.012246-0.010205-0.029594-0.033676 0.04082-0.1194 0.04082-0.058168 0-0.10613-0.04082-0.056127-0.047963-0.056127-0.12348 0-0.093885 0.073475-0.15511 0.069393-0.058168 0.16532-0.058168 0.046942 0 0.061229 0.011225 0.010205 0.00714 0.010205 0.025512 0 0.014287-0.00816 0.025512-0.00918 0.00918-0.033676 0.00918-0.074496 0-0.12858 0.031635-0.065311 0.038779-0.065311 0.10817 0 0.051024 0.033676 0.074496 0.023471 0.016328 0.056127 0.016328 0.064291 0 0.1194-0.043881 0.029594-0.1643 0.052045-0.21838 0.016328-0.039799 0.04184-0.039799 0.032656 0 0.034697 0.032656z"/>
  <path d="m7.6783 7.6616q0 0.050004-0.012246 0.10409-0.00408 0.017348-0.014287 0.053065-0.00918 0.035717-0.018369 0.057147-0.012246 0.027553-0.030615 0.027553-0.04082 0-0.04082-0.036738 0.017348-0.059188 0.027553-0.10715 0.013266-0.06225 0.013266-0.10817 0-0.052045-0.025512-0.052045-0.029594 0-0.11532 0.057147-0.086741 0.057147-0.090823 0.08266l-0.022449 0.13573q-0.0051 0.028574-0.037758 0.028574-0.034697 0-0.034697-0.034697l0.054086-0.32656q0.00408-0.028574 0.039799-0.028574 0.012246 0 0.023471 0.013266 0.00816 0.00714 0.00816 0.019389v0.00408l-0.010205 0.067352q0.12858-0.097967 0.21736-0.097967 0.025512 0 0.046942 0.038779 0.022451 0.037758 0.022451 0.10307z"/>
  <path d="m8.163 7.2718-0.10103 0.60923q-0.00408 0.024492-0.038778 0.024492-0.032656 0-0.032656-0.038779l0.00408-0.026533-0.051024 0.029594q-0.052045 0.029594-0.11123 0.029594-0.036738 0-0.073475-0.026533-0.052045-0.037758-0.052045-0.10715 0-0.086741 0.067352-0.1592 0.078578-0.086741 0.20716-0.086741h0.023471q0.00714 0 0.019389 0.00204l0.023471 0.00408 0.04286-0.25818q0-0.024492 0.038778-0.028574 0.016328 0 0.027553 0.013266 0.00612 0.00918 0.00612 0.019389zm-0.12756 0.32758q-0.00612-0.00612-0.067352-0.00612-0.089803 0-0.14287 0.06225-0.043881 0.050004-0.043881 0.11634 0 0.029594 0.02143 0.04286 0.015307 0.011225 0.033676 0.011225 0.04184 0 0.10205-0.030615 0.039799-0.02041 0.070414-0.045922z"/>
  <path d="m9.2825 7.8035q0 0.030615-0.030615 0.038779-0.23063 0.059188-0.33574 0.059188-0.095926 0-0.13675-0.017348-0.040819-0.017348-0.040819-0.060209 0-0.11532 0.04184-0.2888 0.04286-0.18063 0.093885-0.28778 0.00306-0.012246 0.013266-0.018369 0.011225-0.00612 0.025512-0.00816 0.015307 0.00102 0.027553 0.00918 0.00918 0.00918 0.00918 0.027553l-0.033676 0.10103q-0.044901 0.13675-0.06225 0.2041-0.034697 0.13572-0.034697 0.22145 0 0.025512 0.012246 0.032656 0.012246 0.00714 0.061229 0.00714 0.06327 0 0.15613-0.019389l0.19491-0.038779q0.038779 0 0.038779 0.037758z"/>
  <path d="m9.7254 7.5586q-0.057147 0.1745-0.057147 0.31227 0 0.030615-0.034697 0.034697-0.017348 0-0.028574-0.013266-0.010205-0.012246-0.010205-0.029594-0.033676 0.04082-0.1194 0.04082-0.058168 0-0.10613-0.04082-0.056127-0.047963-0.056127-0.12348 0-0.093885 0.073475-0.15511 0.069393-0.058168 0.16532-0.058168 0.046942 0 0.061229 0.011225 0.010205 0.00714 0.010205 0.025512 0 0.014287-0.00816 0.025512-0.00918 0.00918-0.033676 0.00918-0.074496 0-0.12858 0.031635-0.065311 0.038779-0.065311 0.10817 0 0.051024 0.033676 0.074496 0.023471 0.016328 0.056127 0.016328 0.064291 0 0.1194-0.043881 0.029594-0.1643 0.052045-0.21838 0.016328-0.039799 0.04184-0.039799 0.032656 0 0.034697 0.032656z"/>
  <path d="m10.347 7.2412q0 0.037758-0.04592 0.048983-0.01531 0.00306-0.07552 0.00714-0.05511 0.00306-0.13062 0.00306l-0.0051 0.072455q-0.0061 0.077557-0.02551 0.19593-0.01837 0.11021-0.03368 0.17859-0.0082 0.036738-0.02653 0.11532-0.00408 0.019389-0.015307 0.026533-0.014287 0.00816-0.031635 0.00816-0.012246 0-0.02143-0.013266-0.00714-0.014287-0.00714-0.029594 0.016328-0.072455 0.039799-0.20614 0.026533-0.15307 0.047963-0.34186-0.096947 0-0.12858 0.00408l-0.080618 0.010205q-0.02041 0-0.030615-0.012246t-0.010205-0.022451v-0.00204q0-0.012246 0.00918-0.026533 0.011225-0.013266 0.029594-0.014287l0.50514-0.036738q0.01429-0.00102 0.02551 0.00816 0.0092 0.010205 0.01123 0.026533z"/>
  <path d="m10.759 7.8127q0 0.037758-0.09389 0.068373-0.07756 0.024492-0.12756 0.024492-0.16022 0-0.16022-0.13981 0-0.089803 0.06123-0.16328 0.06939-0.084701 0.17144-0.084701 0.06531 0 0.10511 0.026533t0.0398 0.060209q0 0.061229-0.12042 0.12348-0.10103 0.052045-0.13777 0.052045-0.02857 0-0.02857-0.034697 0-0.011225 0.10715-0.055106 0.10817-0.044901 0.10817-0.074496 0-0.012246-0.01633-0.022451-0.01837-0.00714-0.05715-0.00714-0.07654 0-0.12144 0.054086-0.04082 0.050004-0.04082 0.12348 0 0.035717 0.02041 0.055106t0.06531 0.019389q0.05103 0 0.09491-0.02041l0.09797-0.045922q0.03266 0 0.03266 0.040819z"/>
  <path d="m11.354 7.2596q0 0.015307-0.08878 0.094905-0.08164 0.073475-0.17246 0.16328l0.04286 0.081639 0.07654 0.15205q0.03776 0.076536 0.04082 0.096946 0 0.039799-0.03776 0.04286-0.02551 0-0.05204-0.055106-0.10307-0.21328-0.12756-0.25716-0.0847 0.096946-0.12756 0.17144l-0.06225 0.10511q-0.02143 0.035717-0.0398 0.035717-0.02041 0-0.03368-0.011225t-0.01327-0.027553q0-0.026533 0.07756-0.14389 0.0796-0.12042 0.15818-0.199-0.05-0.097967-0.10715-0.19593-0.02245-0.038779-0.02245-0.058168 0-0.013266 0.01225-0.025512 0.01225-0.00918 0.02959-0.011225 0.02347 0 0.05817 0.069393 0.05102 0.10205 0.08776 0.1643l0.19287-0.18879q0.04694-0.044901 0.06327-0.047963 0.02041 0 0.03266 0.011225 0.01225 0.010205 0.01225 0.032656z"/>
  <path d="m5.1352 9.2901q0 0.032656-0.039799 0.036738l-0.079598-0.026533q-0.042861-0.014287-0.08368-0.014287-0.054086 0-0.092864 0.02041-0.048983 0.024492-0.048983 0.073475 0 0.04286 0.076537 0.076537 0.12042 0.054086 0.14287 0.069393 0.078577 0.058168 0.078577 0.15205 0 0.11736-0.084701 0.17246-0.069393 0.044901-0.17654 0.044901-0.064291 0-0.1296-0.027553-0.073475-0.031635-0.073475-0.075516 0-0.014287 0.010205-0.025512 0.011225-0.011225 0.025512-0.011225 0.00102 0 0.059188 0.029594 0.059188 0.029594 0.11225 0.029594 0.075516 0 0.12246-0.029594 0.056127-0.034697 0.056127-0.10511 0-0.077557-0.076537-0.11123l-0.14287-0.06123q-0.077557-0.044901-0.077557-0.13164 0-0.076537 0.067352-0.1245 0.060209-0.04286 0.15001-0.04286 0.064291 0 0.13572 0.023471 0.069393 0.022451 0.069393 0.058168z"/>
  <path d="m5.5597 9.5442-0.035717 0.14083q-0.015307 0.058168-0.015307 0.098987v0.02041q0 0.0051 0.00204 0.025512l0.00408 0.038779q0 0.036737-0.036738 0.036737-0.027553 0-0.036738-0.025512-0.00102-0.0051-0.00714-0.050004-0.019389 0.019389-0.068373 0.04286-0.047963 0.022451-0.088782 0.022451-0.059188 0-0.089803-0.046942-0.027553-0.04184-0.027553-0.10307 0-0.067352 0.030615-0.15307 0.030615-0.082659 0.060209-0.082659 0.015307 0 0.025512 0.011225 0.011225 0.00918 0.011225 0.029594-0.018369 0.048983-0.036738 0.11021-0.018369 0.061229-0.018369 0.090823 0 0.030615 0.013266 0.052045 0.016328 0.018369 0.035717 0.018369 0.036738 0 0.089803-0.033676 0.045922-0.028574 0.070414-0.055106l0.046942-0.19695q0-0.022451 0.032656-0.022451 0.017348 0 0.028574 0.00612 0.010205 0.00714 0.010205 0.024492z"/>
  <path d="m6.0006 9.6493q0 0.088783-0.090823 0.1643-0.086741 0.071434-0.17756 0.071434-0.011225 0-0.02041-0.011225-0.010205-0.010205-0.010205-0.023471 0-0.036738 0.030615-0.036738 0.075516 0 0.13879-0.06225 0.056127-0.055106 0.056127-0.11021 0-0.057147-0.043881-0.057147-0.032656 0-0.10409 0.026533-0.077557 0.030615-0.081639 0.055106l-0.085721 0.50922q-0.0051 0.02653-0.043881 0.02653-0.013266 0-0.022451-0.01429-0.00816-0.01225-0.00816-0.02755l0.10613-0.61535q0.0051-0.025512 0.013266-0.033676 0.00918-0.00918 0.030615-0.00918 0.032656 0 0.030615 0.026533l-0.00204 0.033676q0.080619-0.047963 0.15205-0.047963 0.048983 0 0.081639 0.02143 0.051024 0.033676 0.051024 0.11429z"/>
  <path d="m6.4414 9.6493q0 0.088783-0.090823 0.1643-0.086741 0.071434-0.17756 0.071434-0.011225 0-0.02041-0.011225-0.010205-0.010205-0.010205-0.023471 0-0.036738 0.030615-0.036738 0.075516 0 0.13879-0.06225 0.056127-0.055106 0.056127-0.11021 0-0.057147-0.043881-0.057147-0.032656 0-0.10409 0.026533-0.077557 0.030615-0.081639 0.055106l-0.085721 0.50922q-0.0051 0.02653-0.043881 0.02653-0.013266 0-0.022451-0.01429-0.00816-0.01225-0.00816-0.02755l0.10613-0.61535q0.0051-0.025512 0.013266-0.033676 0.00918-0.00918 0.030615-0.00918 0.032656 0 0.030615 0.026533l-0.00204 0.033676q0.080618-0.047963 0.15205-0.047963 0.048983 0 0.081639 0.02143 0.051024 0.033676 0.051024 0.11429z"/>
  <path d="m6.8517 9.6758q0 0.094905-0.061229 0.15818-0.061229 0.06327-0.16634 0.06327-0.078578 0-0.12144-0.054086-0.036738-0.046943-0.036738-0.12246 0-0.077557 0.057147-0.13572 0.065311-0.067352 0.16838-0.067352 0.077557 0 0.12246 0.052045 0.037758 0.044901 0.037759 0.10613zm-0.069393 0.012246q0-0.037758-0.022451-0.066332-0.027553-0.033676-0.082659-0.033676-0.058168 0-0.10001 0.04286-0.036738 0.037758-0.036738 0.085721 0 0.10715 0.097967 0.10715 0.059188 0 0.10103-0.040819 0.04286-0.04082 0.04286-0.094905z"/>
  <path d="m7.2741 9.5564q0 0.028574-0.018369 0.036737-0.012246 0.00612-0.038779 0.00612-0.093885 0-0.17552 0.066332-0.061229 0.048983-0.074496 0.089803l-0.018369 0.12144q-0.00408 0.026533-0.037758 0.026533-0.031635 0-0.036738-0.034697l0.052045-0.31227q0.0051-0.032656 0.035717-0.032656 0.035717 0 0.035717 0.038778l-0.00918 0.057147q0.056127-0.052045 0.10511-0.069393 0.06225-0.022451 0.14185-0.022451 0.038779 0 0.038779 0.028574z"/>
  <path d="m7.6599 9.5462q0 0.015307-0.00918 0.024492-0.010205 0.011225-0.025512 0.013266l-0.10817 0.00918-0.045922 0.27961q-0.0051 0.026533-0.040819 0.030615-0.032656 0-0.032656-0.032656l0.044901-0.27145-0.095926 0.00918q-0.012246 0-0.023471-0.011225-0.010205-0.00816-0.012246-0.022451 0-0.018369 0.00816-0.027553 0.00918-0.010205 0.024492-0.011225l0.11123-0.00816 0.022451-0.15205q0.0051-0.028574 0.036738-0.028574 0.012246 0 0.024492 0.00918 0.010205 0.011225 0.010205 0.027553l-0.02041 0.13572 0.096946-0.00816q0.011225 0 0.022451 0.00816 0.010205 0.00918 0.012246 0.026533z"/>
  <path d="m8.5987 9.284q0 0.016328-0.00918 0.027553-0.010205 0.011225-0.029594 0.011225-0.074496 0-0.11838 0.072455-0.026533 0.043881-0.04184 0.1245l0.093885-0.00816q0.04184 0 0.04184 0.032656 0 0.026533-0.030615 0.039799-0.034697 0.00918-0.11736 0.00918l-0.046942 0.27961q-0.00306 0.030615-0.042861 0.030615-0.029594 0-0.029594-0.04286l0.044901-0.26124-0.068373 0.00714q-0.037758 0-0.037758-0.033676t0.04184-0.040819l0.077557-0.00612q0.013266-0.098987 0.055106-0.16838 0.064291-0.10613 0.17859-0.10613 0.034697 0 0.038778 0.032656z"/>
  <path d="m8.9069 9.6758q0 0.094905-0.061229 0.15818-0.061229 0.06327-0.16634 0.06327-0.078578 0-0.12144-0.054086-0.036738-0.046943-0.036738-0.12246 0-0.077557 0.057147-0.13572 0.065311-0.067352 0.16838-0.067352 0.077557 0 0.12246 0.052045 0.037758 0.044901 0.037758 0.10613zm-0.069393 0.012246q0-0.037758-0.022451-0.066332-0.027553-0.033676-0.08266-0.033676-0.058168 0-0.10001 0.04286-0.036738 0.037758-0.036738 0.085721 0 0.10715 0.097967 0.10715 0.059188 0 0.10103-0.040819 0.04286-0.04082 0.04286-0.094905z"/>
  <path d="m9.3294 9.5564q0 0.028574-0.018369 0.036737-0.012246 0.00612-0.038779 0.00612-0.093885 0-0.17552 0.066332-0.061229 0.048983-0.074496 0.089803l-0.018369 0.12144q-0.00408 0.026533-0.037758 0.026533-0.031635 0-0.036738-0.034697l0.052045-0.31227q0.0051-0.032656 0.035717-0.032656 0.035717 0 0.035717 0.038778l-0.00918 0.057147q0.056127-0.052045 0.10511-0.069393 0.06225-0.022451 0.14185-0.022451 0.038778 0 0.038778 0.028574z"/>
  <path d="m10.449 9.2615q0 0.052045-0.26431 0.32247l-0.0071 0.066332q-0.0041 0.034697-0.04082 0.22043-0.0061 0.032656-0.04286 0.032656-0.01429 0-0.02449-0.010205-0.01021-0.010205-0.01021-0.030615 0.01021-0.039799 0.01735-0.076536l0.01531-0.076537q0.01531-0.076537 0.01531-0.14083-0.09082-0.075516-0.17246-0.18267-0.072455-0.094905-0.072455-0.11838 0-0.044901 0.038778-0.044901 0.012246 0 0.080618 0.10001 0.059188 0.086742 0.16838 0.18063 0.10715-0.10409 0.17348-0.18777 0.07552-0.095926 0.0847-0.096946 0.04082 0 0.04082 0.04286z"/>
  <path d="m11.07 9.6615q0 0.11429-0.01225 0.22961-2e-3 0.018369-0.01429 0.027553-0.0092 0.00918-0.02653 0.00918-0.03674 0-0.03674-0.040819l0.0071-0.080618 2e-3 -0.08368v-0.052041l-1e-3 -0.051024-0.36942 0.037758q-0.04184 0.081639-0.07347 0.19695-0.01633 0.059188-0.05205 0.059188-0.01531 0-0.02755-0.00918-0.01122-0.00816-0.01122-0.027553 0-0.045922 0.05919-0.18063 0.07348-0.16838 0.16838-0.2888 0.12654-0.16022 0.26533-0.20512 0.0449 0 0.08368 0.13572 0.03878 0.13368 0.03878 0.32349zm-0.08572-0.12144q0-0.080618-0.02653-0.1694-0.02347-0.075516-0.03266-0.076537-0.13266 0.079598-0.26124 0.28063z"/>
  <path d="m11.93 9.8707q0 0.014287-0.01225 0.026533t-0.02653 0.012246q-0.02551 0-0.03674-0.026533-0.04592-0.10613-0.07552-0.24288-0.01327-0.066332-0.02347-0.15103-0.0082-0.076537-0.0082-0.14797-0.05613 0.072455-0.11021 0.16532l-0.07858 0.13266q-0.02959 0.051024-0.03674 0.053065-0.03368 0-0.0745-0.10307-0.03368-0.084701-0.06225-0.22757l-0.05613 0.094905q-0.04898 0.08368-0.08878 0.1745-0.05613 0.12654-0.08368 0.24186-0.0041 0.017348-0.01429 0.022451-0.0092 0.00612-0.02653 0.00612-0.01122 0-0.02551-0.00918-0.0092-0.00816-0.01123-0.025512 0-0.069393 0.08572-0.25614 0.06837-0.15001 0.12858-0.25002 0.08776-0.14491 0.12858-0.14491 0.01939 0 0.04592 0.1592 0.01837 0.10613 0.05 0.17552 0.07348-0.13981 0.17246-0.25308 0.0847-0.096946 0.11327-0.096946 0.02245 0 0.02245 0.14899 0 0.11634 0.02653 0.24492 0.01939 0.092864 0.05 0.18981z"/>
  <path d="m12.539 9.8034q0 0.030615-0.03062 0.038778-0.23063 0.059188-0.33574 0.059188-0.09593 0-0.13674-0.017348-0.04082-0.017348-0.04082-0.060209 0-0.11532 0.04184-0.2888 0.04286-0.18063 0.09389-0.28778 0.0031-0.012246 0.01327-0.018369 0.01123-0.00612 0.02551-0.00816 0.01531 0.00102 0.02755 0.00918 0.0092 0.00918 0.0092 0.027553l-0.03368 0.10103q-0.0449 0.13675-0.06225 0.2041-0.0347 0.13572-0.0347 0.22145 0 0.025512 0.01225 0.032656 0.01225 0.00714 0.06123 0.00714 0.06327 0 0.15613-0.019389l0.19491-0.038778q0.03878 0 0.03878 0.037758z"/>
  <path d="m5.2944 11.467q0 0.14899-0.10511 0.25308-0.090823 0.08674-0.24696 0.13266-0.13675 0.03878-0.28778 0.03878-0.044901 0-0.044901-0.03878 0-0.03266 0.035717-0.04184 0.015307-0.0041 0.061229-0.0041 0.075516-0.25512 0.075516-0.4286 0-0.01735 0.012246-0.0296 0.012246-0.01327 0.030615-0.01327 0.034697 0 0.034697 0.04082 0 0.11021-0.018369 0.2092-0.017348 0.09899-0.053065 0.21634 0.035717 0 0.11123-0.02143 0.12858-0.0347 0.20512-0.09184 0.11225-0.08266 0.11225-0.20716 0-0.18675-0.21736-0.18675-0.11123 0-0.17756 0.01939l-0.15103 0.04388q-0.016328 0-0.024492-0.0092-0.00612-0.0092-0.00612-0.02755 0-0.02653 0.026533-0.04082 0.18879-0.06633 0.34084-0.06633 0.12552 0 0.20308 0.06327 0.08368 0.06735 0.08368 0.18981z"/>
  <path d="m5.7046 11.676q0 0.09491-0.061229 0.15818-0.061229 0.06327-0.16634 0.06327-0.078577 0-0.12144-0.05409-0.036738-0.04694-0.036738-0.12246 0-0.07756 0.057147-0.13572 0.065311-0.06735 0.16838-0.06735 0.077557 0 0.12246 0.05205 0.037758 0.0449 0.037758 0.10613zm-0.069393 0.01225q0-0.03776-0.022451-0.06633-0.027553-0.03368-0.08266-0.03368-0.058168 0-0.10001 0.04286-0.036738 0.03776-0.036738 0.08572 0 0.10715 0.097967 0.10715 0.059188 0 0.10103-0.04082 0.04286-0.04082 0.04286-0.09491z"/>
  <path d="m6.119 11.567q0 0.01633-0.010205 0.02551-0.010205 0.01225-0.026533 0.01225l-0.032656-0.01021q-0.031635-0.0082-0.059188-0.0082-0.078578 0-0.13777 0.06123-0.053065 0.05511-0.053065 0.1143 0 0.02857 0.019389 0.04796 0.019389 0.01837 0.052045 0.01837 0.050004 0 0.086741-0.01939l0.081639-0.04082q0.034697 0 0.034697 0.03572 0 0.03674-0.08266 0.07041-0.071434 0.02755-0.11634 0.02755-0.06225 0-0.10511-0.03776-0.04286-0.03776-0.04286-0.10001 0-0.09286 0.067352-0.16634 0.077557-0.08368 0.20002-0.08368 0.047963 0 0.085721 0.01735 0.038779 0.01633 0.038779 0.03572z"/>
  <path d="m6.5435 11.544-0.035717 0.14083q-0.015307 0.05817-0.015307 0.09899v0.02041q0 0.0051 0.00204 0.02551l0.00408 0.03878q0 0.03674-0.036738 0.03674-0.027553 0-0.036738-0.02551-0.00102-0.0051-0.00714-0.05-0.019389 0.01939-0.068373 0.04286-0.047963 0.02245-0.088782 0.02245-0.059188 0-0.089803-0.04694-0.027553-0.04184-0.027553-0.10307 0-0.06735 0.030615-0.15307 0.030615-0.08266 0.060209-0.08266 0.015307 0 0.025512 0.01123 0.011225 0.0092 0.011225 0.02959-0.018369 0.04898-0.036738 0.11021-0.018369 0.06123-0.018369 0.09082 0 0.03061 0.013266 0.05204 0.016328 0.01837 0.035717 0.01837 0.036738 0 0.089803-0.03368 0.045922-0.02857 0.070414-0.05511l0.046942-0.19695q0-0.02245 0.032656-0.02245 0.017348 0 0.028574 0.0061 0.010205 0.0071 0.010205 0.02449z"/>
  <path d="m7.1894 11.614q0 0.05817-0.011225 0.12756-0.00816 0.05511-0.025512 0.13062-0.00612 0.02959-0.038779 0.03266-0.034697 0-0.034697-0.04286 0-0.03878 0.016328-0.11838 0.016328-0.0796 0.016328-0.1194 0-0.01224-0.00204-0.01633l-0.00408-0.0092q-0.036738 0-0.10919 0.06939-0.054086 0.05204-0.075516 0.09899-0.010205 0.02449-0.016328 0.06939-0.00408 0.03674-0.018369 0.05511-0.00918 0.01123-0.026533 0.01123-0.037758 0-0.037758-0.04082l0.019389-0.11736q0.00918-0.05409 0.00918-0.08572 0-0.02857-0.00204-0.04184-0.0051-0.01122-0.011225-0.01122-0.033676 0-0.10715 0.06429-0.066332 0.05817-0.069393 0.07858l-0.02041 0.12348q-0.00204 0.03061-0.037758 0.0347-0.016328 0-0.027553-0.01327t-0.011225-0.02959l0.054086-0.31635q0-0.02347 0.035717-0.02857 0.038779 0 0.038779 0.0347l-0.010205 0.06021q0.037758-0.03674 0.0847-0.06327 0.056127-0.03164 0.092864-0.03164 0.046942 0 0.060209 0.05715l0.00714 0.05613q0.043881-0.05 0.087762-0.0796 0.051024-0.03368 0.10715-0.03368 0.038778 0 0.054086 0.02245 0.013266 0.02347 0.013266 0.07245z"/>
  <path d="m7.6017 11.812q0 0.03776-0.093885 0.06837-0.077557 0.02449-0.12756 0.02449-0.16022 0-0.16022-0.13981 0-0.0898 0.061229-0.16328 0.069393-0.0847 0.17144-0.0847 0.065311 0 0.10511 0.02653 0.039799 0.02653 0.039799 0.06021 0 0.06123-0.12042 0.12348-0.10103 0.05204-0.13777 0.05204-0.028574 0-0.028574-0.0347 0-0.01122 0.10715-0.05511 0.10817-0.0449 0.10817-0.0745 0-0.01225-0.016328-0.02245-0.018369-0.0071-0.057147-0.0071-0.076537 0-0.12144 0.05409-0.040819 0.05-0.040819 0.12348 0 0.03572 0.02041 0.05511t0.065311 0.01939q0.051024 0 0.094905-0.02041l0.097967-0.04592q0.032656 0 0.032656 0.04082z"/>
  <path d="m8.0262 11.661q0 0.05-0.012246 0.10409-0.00408 0.01735-0.014287 0.05307-0.00918 0.03572-0.018369 0.05715-0.012246 0.02755-0.030615 0.02755-0.04082 0-0.04082-0.03674 0.017348-0.05919 0.027553-0.10715 0.013266-0.06225 0.013266-0.10817 0-0.05204-0.025512-0.05204-0.029594 0-0.11532 0.05715-0.086741 0.05715-0.090823 0.08266l-0.022451 0.13572q-0.0051 0.02857-0.037758 0.02857-0.034697 0-0.034697-0.0347l0.054086-0.32656q0.00408-0.02857 0.039799-0.02857 0.012246 0 0.023471 0.01327 0.00816 0.0071 0.00816 0.01939v0.0041l-0.010205 0.06735q0.12858-0.09797 0.21736-0.09797 0.025512 0 0.046942 0.03878 0.022451 0.03776 0.022451 0.10307z"/>
  <path d="m8.412 11.546q0 0.01531-0.00918 0.02449-0.010205 0.01122-0.025512 0.01327l-0.10817 0.0092-0.045922 0.27961q-0.0051 0.02653-0.040819 0.03061-0.032656 0-0.032656-0.03266l0.044901-0.27145-0.095926 0.0092q-0.012246 0-0.023471-0.01123-0.010205-0.0082-0.012246-0.02245 0-0.01837 0.00816-0.02755 0.00918-0.0102 0.024492-0.01122l0.11123-0.0082 0.022451-0.15205q0.0051-0.02857 0.036738-0.02857 0.012246 0 0.024492 0.0092 0.010205 0.01123 0.010205 0.02755l-0.02041 0.13572 0.096946-0.0082q0.011225 0 0.022451 0.0082 0.010205 0.0092 0.012246 0.02653z"/>
  <path d="m9.3365 11.567q0 0.01633-0.010205 0.02551-0.010205 0.01225-0.026533 0.01225l-0.032656-0.01021q-0.031635-0.0082-0.059188-0.0082-0.078578 0-0.13777 0.06123-0.053065 0.05511-0.053065 0.1143 0 0.02857 0.019389 0.04796 0.019389 0.01837 0.052045 0.01837 0.050004 0 0.086742-0.01939l0.081639-0.04082q0.034697 0 0.034697 0.03572 0 0.03674-0.082659 0.07041-0.071434 0.02755-0.11634 0.02755-0.06225 0-0.10511-0.03776-0.04286-0.03776-0.04286-0.10001 0-0.09286 0.067352-0.16634 0.077557-0.08368 0.20002-0.08368 0.047963 0 0.085721 0.01735 0.038779 0.01633 0.038779 0.03572z"/>
  <path d="m9.5478 11.27-0.10307 0.60311q-0.0051 0.03061-0.04286 0.03061-0.011225 0-0.02143-0.0102-0.0051-0.0082-0.00714-0.02449l0.10103-0.60311q0.00408-0.02653 0.036737-0.02653 0.015307 0 0.024492 0.0071 0.010205 0.0071 0.012246 0.02347z"/>
  <path d="m9.9907 11.558q-0.057147 0.1745-0.057147 0.31227 0 0.03062-0.034696 0.0347-0.017348 0-0.028574-0.01327-0.010205-0.01225-0.010205-0.02959-0.033676 0.04082-0.1194 0.04082-0.058168 0-0.10613-0.04082-0.056127-0.04796-0.056127-0.12348 0-0.09389 0.073475-0.15511 0.069393-0.05817 0.16532-0.05817 0.046942 0 0.061229 0.01123 0.010205 0.0071 0.010205 0.02551 0 0.01429-0.00816 0.02551-0.00918 0.0092-0.033676 0.0092-0.074496 0-0.12858 0.03163-0.065311 0.03878-0.065311 0.10817 0 0.05102 0.033676 0.0745 0.023471 0.01633 0.056127 0.01633 0.064291 0 0.1194-0.04388 0.029594-0.1643 0.052045-0.21838 0.016328-0.0398 0.04184-0.0398 0.032656 0 0.034696 0.03266z"/>
  <path d="m10.314 11.564q0 0.01735-0.0092 0.02959-0.01123 0.01429-0.02653 0.01429-0.0071 0-0.04694-0.01531-0.03878-0.01633-0.06633-0.01633-0.04592 0-0.04898 0.02959 0 0.02347 0.05 0.04592 0.08368 0.03776 0.09286 0.04388 0.05 0.03163 0.05 0.07858 0 0.07246-0.04898 0.10511-0.0347 0.02347-0.08674 0.02347-0.08266 0-0.11736-0.01327-0.0347-0.01327-0.0347-0.03572 0-0.03572 0.03061-0.04184l0.05409 0.01531q0.02143 0.0061 0.05307 0.0061 0.07552 0 0.07552-0.05 0-0.02347-0.04898-0.04898-0.08674-0.04286-0.09184-0.04694-0.05-0.03368-0.05-0.07756 0-0.05 0.0449-0.07654 0.03674-0.02041 0.09082-0.02041 0.03674 0 0.07756 0.01123 0.05715 0.01429 0.05715 0.0398z"/>
  <path d="m10.638 11.564q0 0.01735-0.0092 0.02959-0.01122 0.01429-0.02653 0.01429-0.0071 0-0.04694-0.01531-0.03878-0.01633-0.06633-0.01633-0.04592 0-0.04898 0.02959 0 0.02347 0.05 0.04592 0.08368 0.03776 0.09286 0.04388 0.05 0.03163 0.05 0.07858 0 0.07246-0.04898 0.10511-0.0347 0.02347-0.08674 0.02347-0.08266 0-0.11736-0.01327-0.0347-0.01327-0.0347-0.03572 0-0.03572 0.03061-0.04184l0.05409 0.01531q0.02143 0.0061 0.05307 0.0061 0.07552 0 0.07552-0.05 0-0.02347-0.04898-0.04898-0.08674-0.04286-0.09184-0.04694-0.05-0.03368-0.05-0.07756 0-0.05 0.0449-0.07654 0.03674-0.02041 0.09082-0.02041 0.03674 0 0.07756 0.01123 0.05715 0.01429 0.05715 0.0398z"/>
  <path d="m11.05 11.812q0 0.03776-0.09389 0.06837-0.07756 0.02449-0.12756 0.02449-0.16022 0-0.16022-0.13981 0-0.0898 0.06123-0.16328 0.06939-0.0847 0.17144-0.0847 0.06531 0 0.10511 0.02653t0.0398 0.06021q0 0.06123-0.12042 0.12348-0.10103 0.05204-0.13776 0.05204-0.02857 0-0.02857-0.0347 0-0.01122 0.10715-0.05511 0.10817-0.0449 0.10817-0.0745 0-0.01225-0.01633-0.02245-0.01837-0.0071-0.05715-0.0071-0.07654 0-0.12144 0.05409-0.04082 0.05-0.04082 0.12348 0 0.03572 0.02041 0.05511t0.06531 0.01939q0.05102 0 0.0949-0.02041l0.09797-0.04592q0.03266 0 0.03266 0.04082z"/>
  <path d="m11.373 11.564q0 0.01735-0.0092 0.02959-0.01122 0.01429-0.02653 0.01429-0.0071 0-0.04694-0.01531-0.03878-0.01633-0.06633-0.01633-0.04592 0-0.04898 0.02959 0 0.02347 0.05 0.04592 0.08368 0.03776 0.09286 0.04388 0.05 0.03163 0.05 0.07858 0 0.07246-0.04898 0.10511-0.0347 0.02347-0.08674 0.02347-0.08266 0-0.11736-0.01327-0.0347-0.01327-0.0347-0.03572 0-0.03572 0.03061-0.04184l0.05409 0.01531q0.02143 0.0061 0.05307 0.0061 0.07552 0 0.07552-0.05 0-0.02347-0.04898-0.04898-0.08674-0.04286-0.09184-0.04694-0.05-0.03368-0.05-0.07756 0-0.05 0.0449-0.07654 0.03674-0.02041 0.09082-0.02041 0.03674 0 0.07756 0.01123 0.05715 0.01429 0.05715 0.0398z"/>
  <path d="m5.2924 13.639q0 0.18879-0.43983 0.23879-0.10307 0.01122-0.20002 0.01122-0.019389 0-0.030615-0.01225-0.00816-0.01021-0.010205-0.02857 0-0.03164 0.037758-0.03776 0.014287-2e-3 0.038779-2e-3 0.077557-0.26635 0.077557-0.44493 0-0.01122 0.012246-0.02245 0.011225-0.0082 0.028574-0.0102 0.036738 0 0.036738 0.03776 0 0.06531-0.02041 0.18777-0.00714 0.04694-0.024492 0.13368-0.012246 0.05613-0.032656 0.1143 0.038779 0 0.12552-0.01327 0.32043-0.04898 0.32043-0.15205 0-0.06633-0.082659-0.09695-0.055106-0.02041-0.13981-0.02041-0.023471 0-0.026533-0.03266 0-0.02755 0.081639-0.05817 0.081639-0.03163 0.081639-0.07348 0-0.03878-0.067352-0.05613-0.043881-0.01122-0.097967-0.01122-0.081639 0-0.14593 0.01429-0.022451 0.0051-0.065311 0.01429-0.018369 0.0041-0.072455 0.01837-0.014287 0-0.026533-0.01122-0.00816-0.0102-0.010205-0.02755 0-0.0398 0.14083-0.06633 0.10409-0.01939 0.17552-0.01939 0.10511 0 0.16838 0.02857 0.077557 0.0347 0.077557 0.10817 0 0.05307-0.043881 0.09389-0.015307 0.01327-0.043881 0.02755 0.06327 0.0092 0.10919 0.04082 0.068373 0.04694 0.068373 0.12756z"/>
  <path d="m5.7046 13.812q0 0.03776-0.093885 0.06837-0.077557 0.02449-0.12756 0.02449-0.16022 0-0.16022-0.13981 0-0.0898 0.061229-0.16328 0.069393-0.0847 0.17144-0.0847 0.065311 0 0.10511 0.02653 0.039799 0.02653 0.039799 0.06021 0 0.06123-0.12042 0.12348-0.10103 0.05204-0.13777 0.05204-0.028574 0-0.028574-0.0347 0-0.01122 0.10715-0.05511 0.10817-0.0449 0.10817-0.0745 0-0.01225-0.016328-0.02245-0.018369-0.0071-0.057147-0.0071-0.076537 0-0.12144 0.05409-0.040819 0.05-0.040819 0.12348 0 0.03572 0.02041 0.05511t0.065311 0.01939q0.051024 0 0.094905-0.02041l0.097967-0.04592q0.032656 0 0.032656 0.04082z"/>
  <path d="m6.1475 13.558q-0.057147 0.1745-0.057147 0.31227 0 0.03061-0.034696 0.0347-0.017348 0-0.028574-0.01327-0.010205-0.01225-0.010205-0.02959-0.033676 0.04082-0.1194 0.04082-0.058168 0-0.10613-0.04082-0.056127-0.04796-0.056127-0.12348 0-0.09389 0.073475-0.15512 0.069393-0.05817 0.16532-0.05817 0.046942 0 0.061229 0.01123 0.010205 0.0071 0.010205 0.02551 0 0.01429-0.00816 0.02551-0.00918 0.0092-0.033676 0.0092-0.074496 0-0.12858 0.03164-0.065311 0.03878-0.065311 0.10817 0 0.05102 0.033676 0.07449 0.023471 0.01633 0.056127 0.01633 0.064291 0 0.1194-0.04388 0.029594-0.1643 0.052045-0.21838 0.016328-0.0398 0.04184-0.0398 0.032656 0 0.034696 0.03266z"/>
  <path d="m6.7935 13.614q0 0.05817-0.011225 0.12756-0.00816 0.05511-0.025512 0.13062-0.00612 0.0296-0.038779 0.03266-0.034697 0-0.034697-0.04286 0-0.03878 0.016328-0.11838 0.016328-0.0796 0.016328-0.1194 0-0.01225-0.00204-0.01633l-0.00408-0.0092q-0.036738 0-0.10919 0.06939-0.054086 0.05205-0.075516 0.09899-0.010205 0.02449-0.016328 0.06939-0.00408 0.03674-0.018369 0.05511-0.00918 0.01122-0.026533 0.01122-0.037758 0-0.037758-0.04082l0.019389-0.11736q0.00918-0.05409 0.00918-0.08572 0-0.02857-0.00204-0.04184-0.0051-0.01123-0.011225-0.01123-0.033676 0-0.10715 0.06429-0.066332 0.05817-0.069393 0.07858l-0.02041 0.12348q-0.00204 0.03061-0.037758 0.0347-0.016328 0-0.027553-0.01327t-0.011225-0.0296l0.054086-0.31635q0-0.02347 0.035717-0.02857 0.038779 0 0.038779 0.0347l-0.010205 0.06021q0.037758-0.03674 0.0847-0.06327 0.056127-0.03163 0.092864-0.03163 0.046942 0 0.060209 0.05715l0.00714 0.05613q0.043881-0.05 0.087762-0.0796 0.051024-0.03368 0.10715-0.03368 0.038779 0 0.054086 0.02245 0.013266 0.02347 0.013266 0.07245z"/>
  <path d="m7.2058 13.812q0 0.03776-0.093885 0.06837-0.077557 0.02449-0.12756 0.02449-0.16022 0-0.16022-0.13981 0-0.0898 0.061229-0.16328 0.069393-0.0847 0.17144-0.0847 0.065311 0 0.10511 0.02653 0.039799 0.02653 0.039799 0.06021 0 0.06123-0.12042 0.12348-0.10103 0.05204-0.13777 0.05204-0.028574 0-0.028574-0.0347 0-0.01122 0.10715-0.05511 0.10817-0.0449 0.10817-0.0745 0-0.01225-0.016328-0.02245-0.018369-0.0071-0.057147-0.0071-0.076536 0-0.12144 0.05409-0.04082 0.05-0.04082 0.12348 0 0.03572 0.02041 0.05511t0.065311 0.01939q0.051024 0 0.094905-0.02041l0.097967-0.04592q0.032656 0 0.032656 0.04082z"/>
  <path d="m7.6283 13.556q0 0.02857-0.018369 0.03674-0.012246 0.0061-0.038779 0.0061-0.093885 0-0.17552 0.06633-0.061229 0.04898-0.074496 0.0898l-0.018369 0.12144q-0.00408 0.02653-0.037758 0.02653-0.031635 0-0.036738-0.0347l0.052045-0.31227q0.0051-0.03266 0.035717-0.03266 0.035717 0 0.035717 0.03878l-0.00918 0.05715q0.056127-0.05204 0.10511-0.06939 0.06225-0.02245 0.14185-0.02245 0.038779 0 0.038779 0.02857z"/>
 </g>
 <g stroke-linecap="round" stroke-linejoin="round">
  <g transform="translate(0 .26458)" opacity=".25" stroke-opacity=".35" stroke-width=".074834">
   <rect x="2.3812" y="3.9687" width="12.171" height=".13229" rx="0" ry=".066145" opacity=".75"/>
   <rect x="2.3812" y="6.0853" width="12.171" height=".13229" rx="0" ry=".066145" opacity=".75"/>
   <rect x="2.3812" y="8.2019" width="12.171" height=".13229" rx="0" ry=".066145" opacity=".75"/>
   <rect x="2.3812" y="10.054" width="12.171" height=".13229" rx="0" ry=".066145" opacity=".75"/>
   <rect x="2.3812" y="12.171" width="12.171" height=".13229" rx="0" ry=".066145" opacity=".75"/>
  </g>
  <g stroke="#07080a">
   <path d="m15.667 0.71212c-0.10229-0.003837-0.18401 0.025412-0.22065 0.088882l-0.43356 0.75084c-0.0706-0.018315-0.13604-0.028458-0.1974-0.033072l-0.27543-0.087331c-0.03144-0.00996-0.06464-0.00634-0.08113 0.02222l-3.2478 5.6249c-0.0165 0.028571-0.0097 0.071687 0.0217 0.081647l0.04341 0.013953-2.9445 5.0998c0.00113-2e-3 0.00388-0.0028 0.00517-0.0047-0.00476 8e-3 -0.012227 0.0132-0.015503 0.02274l-1.1715 3.408s1.754e-4 0.01966 0.034622 0.03256c-3.505e-4 5.72e-4 -0.00121 4.5e-4 -0.00155 1e-3l-0.25579 0.44286c-0.02006 0.03475-0.00839 0.07916 0.026354 0.09922l0.00258 0.0016-0.19275 0.33382c-0.013373 0.02316-0.00508 0.05277 0.018086 0.06614l0.14521 0.08423c0.023166 0.01337 0.052772 0.0051 0.066145-0.01809l0.19585-0.33951c0.031166 0.0088 0.065194 4.55e-4 0.082164-0.02894l0.25579-0.44286c0.00179-0.0031-2.559e-4 -0.0066 0.00103-0.0098 0.00108 0.0018 0.00366 0.0034 0.00465 0.0052 0.03116 0.01453 0.042891 0.0067 0.042891 0.0067l2.3559-2.7269c0.0027-0.0032 0.0023-0.0071 0.0047-0.01033-4.75e-4 9.02e-4 -6e-6 0.0022-5.17e-4 0.0031l6.1457-10.645c0.07058-0.12225-0.01458-0.31328-0.2005-0.50228l0.43356-0.75136c0.04118-0.071322 0.01194-0.16971-0.05994-0.26716-0.01689-0.022794-0.03596-0.044905-0.05788-0.067178-0.0159-0.016272-0.03127-0.03188-0.04961-0.047541-0.03559-0.030265-0.07453-0.059227-0.11834-0.085781-6e-3 -0.00361-0.0099-0.00837-0.01602-0.011885-0.0059-0.003395-0.01168-0.004512-0.01757-0.007751-0.04508-0.024754-0.09018-0.043708-0.13436-0.059427-0.02291-0.008096-0.04393-0.013996-0.06614-0.019637-0.03109-0.008033-0.06051-0.013388-0.0894-0.016536-0.01212-0.001291-0.0261-0.006282-0.03772-0.006718z" opacity=".03" stroke-width=".79373"/>
   <path d="m15.667 0.71212c-0.10229-0.003837-0.18401 0.025412-0.22065 0.088882l-0.43356 0.75084c-0.0706-0.018315-0.13604-0.028458-0.1974-0.033072l-0.27543-0.087331c-0.03144-0.00996-0.06464-0.00634-0.08113 0.02222l-3.2478 5.6249c-0.0165 0.028571-0.0097 0.071687 0.0217 0.081647l0.04341 0.013953-2.9445 5.0998c0.00113-2e-3 0.00388-0.0028 0.00517-0.0047-0.00476 8e-3 -0.012227 0.0132-0.015503 0.02274l-1.1715 3.408s1.754e-4 0.01966 0.034622 0.03256c-3.505e-4 5.72e-4 -0.00121 4.5e-4 -0.00155 1e-3l-0.25579 0.44286c-0.02006 0.03475-0.00839 0.07916 0.026354 0.09922l0.00258 0.0016-0.19275 0.33382c-0.013373 0.02316-0.00508 0.05277 0.018086 0.06614l0.14521 0.08423c0.023166 0.01337 0.052772 0.0051 0.066145-0.01809l0.19585-0.33951c0.031166 0.0088 0.065194 4.55e-4 0.082164-0.02894l0.25579-0.44286c0.00179-0.0031-2.559e-4 -0.0066 0.00103-0.0098 0.00108 0.0018 0.00366 0.0034 0.00465 0.0052 0.03116 0.01453 0.042891 0.0067 0.042891 0.0067l2.3559-2.7269c0.0027-0.0032 0.0023-0.0071 0.0047-0.01033-4.75e-4 9.02e-4 -6e-6 0.0022-5.17e-4 0.0031l6.1457-10.645c0.07058-0.12225-0.01458-0.31328-0.2005-0.50228l0.43356-0.75136c0.04118-0.071322 0.01194-0.16971-0.05994-0.26716-0.01689-0.022794-0.03596-0.044905-0.05788-0.067178-0.0159-0.016272-0.03127-0.03188-0.04961-0.047541-0.03559-0.030265-0.07453-0.059227-0.11834-0.085781-6e-3 -0.00361-0.0099-0.00837-0.01602-0.011885-0.0059-0.003395-0.01168-0.004512-0.01757-0.007751-0.04508-0.024754-0.09018-0.043708-0.13436-0.059427-0.02291-0.008096-0.04393-0.013996-0.06614-0.019637-0.03109-0.008033-0.06051-0.013388-0.0894-0.016536-0.01212-0.001291-0.0261-0.006282-0.03772-0.006718z" opacity=".05" stroke-width=".52916"/>
   <path d="m15.667 0.71212c-0.10229-0.003837-0.18401 0.025412-0.22065 0.088882l-0.43356 0.75084c-0.0706-0.018315-0.13604-0.028458-0.1974-0.033072l-0.27543-0.087331c-0.03144-0.00996-0.06464-0.00634-0.08113 0.02222l-3.2478 5.6249c-0.0165 0.028571-0.0097 0.071687 0.0217 0.081647l0.04341 0.013953-2.9445 5.0998c0.00113-2e-3 0.00388-0.0028 0.00517-0.0047-0.00476 8e-3 -0.012227 0.0132-0.015503 0.02274l-1.1715 3.408s1.754e-4 0.01966 0.034622 0.03256c-3.505e-4 5.72e-4 -0.00121 4.5e-4 -0.00155 1e-3l-0.25579 0.44286c-0.02006 0.03475-0.00839 0.07916 0.026354 0.09922l0.00258 0.0016-0.19275 0.33382c-0.013373 0.02316-0.00508 0.05277 0.018086 0.06614l0.14521 0.08423c0.023166 0.01337 0.052772 0.0051 0.066145-0.01809l0.19585-0.33951c0.031166 0.0088 0.065194 4.55e-4 0.082164-0.02894l0.25579-0.44286c0.00179-0.0031-2.559e-4 -0.0066 0.00103-0.0098 0.00108 0.0018 0.00366 0.0034 0.00465 0.0052 0.03116 0.01453 0.042891 0.0067 0.042891 0.0067l2.3559-2.7269c0.0027-0.0032 0.0023-0.0071 0.0047-0.01033-4.75e-4 9.02e-4 -6e-6 0.0022-5.17e-4 0.0031l6.1457-10.645c0.07058-0.12225-0.01458-0.31328-0.2005-0.50228l0.43356-0.75136c0.04118-0.071322 0.01194-0.16971-0.05994-0.26716-0.01689-0.022794-0.03596-0.044905-0.05788-0.067178-0.0159-0.016272-0.03127-0.03188-0.04961-0.047541-0.03559-0.030265-0.07453-0.059227-0.11834-0.085781-6e-3 -0.00361-0.0099-0.00837-0.01602-0.011885-0.0059-0.003395-0.01168-0.004512-0.01757-0.007751-0.04508-0.024754-0.09018-0.043708-0.13436-0.059427-0.02291-0.008096-0.04393-0.013996-0.06614-0.019637-0.03109-0.008033-0.06051-0.013388-0.0894-0.016536-0.01212-0.001291-0.0261-0.006282-0.03772-0.006718z" opacity=".1" stroke-width=".26458"/>
  </g>
  <path d="m15.667 0.71212c-0.10229-0.003837-0.18401 0.025412-0.22065 0.088882l-0.43356 0.75084c-0.0706-0.018315-0.13604-0.028458-0.1974-0.033072l-0.27543-0.087331c-0.03144-0.00996-0.06464-0.00634-0.08113 0.02222l-3.2478 5.6249c-0.0165 0.028571-0.0097 0.071687 0.0217 0.081647l0.04341 0.013953-2.9445 5.0998c0.00113-2e-3 0.00388-0.0028 0.00517-0.0047-0.00476 8e-3 -0.012227 0.0132-0.015503 0.02274l-1.1715 3.408s1.754e-4 0.01966 0.034622 0.03256c-3.505e-4 5.72e-4 -0.00121 4.5e-4 -0.00155 1e-3l-0.25579 0.44286c-0.02006 0.03475-0.00839 0.07916 0.026354 0.09922l0.00258 0.0016-0.19275 0.33382c-0.013373 0.02316-0.00508 0.05277 0.018086 0.06614l0.14521 0.08423c0.023166 0.01337 0.052772 0.0051 0.066145-0.01809l0.19585-0.33951c0.031166 0.0088 0.065194 4.55e-4 0.082164-0.02894l0.25579-0.44286c0.00179-0.0031-2.559e-4 -0.0066 0.00103-0.0098 0.00108 0.0018 0.00366 0.0034 0.00465 0.0052 0.03116 0.01453 0.042891 0.0067 0.042891 0.0067l2.3559-2.7269c0.0027-0.0032 0.0023-0.0071 0.0047-0.01033-4.75e-4 9.02e-4 -6e-6 0.0022-5.17e-4 0.0031l6.1457-10.645c0.07058-0.12225-0.01458-0.31328-0.2005-0.50228l0.43356-0.75136c0.04118-0.071322 0.01194-0.16971-0.05994-0.26716-0.01689-0.022794-0.03596-0.044905-0.05788-0.067178-0.0159-0.016272-0.03127-0.03188-0.04961-0.047541-0.03559-0.030265-0.07453-0.059227-0.11834-0.085781-6e-3 -0.00361-0.0099-0.00837-0.01602-0.011885-0.0059-0.003395-0.01168-0.004512-0.01757-0.007751-0.04508-0.024754-0.09018-0.043708-0.13436-0.059427-0.02291-0.008096-0.04393-0.013996-0.06614-0.019637-0.03109-0.008033-0.06051-0.013388-0.0894-0.016536-0.01212-0.001291-0.0261-0.006282-0.03772-0.006718z" opacity=".15" stroke-opacity=".35" stroke-width=".088062"/>
  <path d="m15.535 0.71212c-0.10229-0.003837-0.18401 0.025412-0.22065 0.088882l-0.43356 0.75084c-0.0706-0.018315-0.13604-0.028458-0.1974-0.033072l-0.27543-0.087331c-0.03144-0.00996-0.06464-0.00634-0.08113 0.02222l-3.2478 5.6249c-0.0165 0.028571-0.0097 0.071687 0.0217 0.081647l0.04341 0.013953-2.9445 5.0998c0.00113-2e-3 0.00388-0.0028 0.00517-0.0047-0.00476 8e-3 -0.012227 0.0132-0.015503 0.02274l-1.1715 3.408s1.754e-4 0.01966 0.034622 0.03256c-3.505e-4 5.72e-4 -0.00121 4.5e-4 -0.00155 1e-3l-0.25579 0.44286c-0.02006 0.03475-0.00839 0.07916 0.026354 0.09922l0.00258 0.0016-0.19275 0.33382c-0.013373 0.02316-0.00508 0.05277 0.018086 0.06614l0.14521 0.08423c0.023166 0.01337 0.052772 0.0051 0.066145-0.01809l0.19585-0.33951c0.031166 0.0088 0.065194 4.55e-4 0.082164-0.02894l0.25579-0.44286c0.00179-0.0031-2.559e-4 -0.0066 0.00103-0.0098 0.00108 0.0018 0.00366 0.0034 0.00465 0.0052 0.03116 0.01453 0.042891 0.0067 0.042891 0.0067l2.3559-2.7269c0.0027-0.0032 0.0023-0.0071 0.0047-0.01033-4.75e-4 9.02e-4 -6e-6 0.0022-5.17e-4 0.0031l6.1457-10.645c0.07058-0.12225-0.01458-0.31328-0.2005-0.50228l0.43356-0.75136c0.04118-0.071322 0.01194-0.16971-0.05994-0.26716-0.01689-0.022794-0.03596-0.044905-0.05788-0.067178-0.0159-0.016272-0.03127-0.03188-0.04961-0.047541-0.03559-0.030265-0.07453-0.059227-0.11834-0.085781-6e-3 -0.00361-0.0099-0.00837-0.01602-0.011885-0.0059-0.003395-0.01168-0.004512-0.01757-0.007751-0.04508-0.024754-0.09018-0.043708-0.13436-0.059427-0.02291-0.008096-0.04393-0.013996-0.06614-0.019637-0.03109-0.008033-0.06051-0.013388-0.0894-0.016536-0.01212-0.001291-0.0261-0.006282-0.03772-0.006718z" opacity=".25" stroke-opacity=".35" stroke-width=".088062"/>
  <g transform="rotate(-60 17.022 22.198)" stroke-opacity=".35">
   <rect x="16.643" y="10.319" width=".65636" height=".26458" rx="0" ry=".048279" fill="url(#linearGradient1181)" stroke-width=".088062"/>
   <rect x="17.077" y="10.243" width=".65636" height=".39687" rx="0" ry=".072418" fill="url(#linearGradient1166)" stroke-width=".10785"/>
   <path d="m33.137 9.933c0.14658 0 0.26458 0.2233 0.26458 0.50073s-0.118 0.50074-0.26458 0.50074h1.5875c0.14658 0 0.26458-0.2233 0.26458-0.50074 0-0.27743-0.118-0.50073-0.26458-0.50073z" fill="url(#linearGradient1158)" stroke-width=".076702"/>
   <path d="m33.72 9.933c0.14658 0 0.18526 0.2233 0.18526 0.50073s-0.03868 0.50074-0.18526 0.50074h0.13177c0.14658 0 0.18526-0.2233 0.18526-0.50074 0-0.27743-0.03868-0.50073-0.18526-0.50073z" fill="#212020" opacity=".5" stroke-width=".076702"/>
   <path d="m21.231 9.5078c0.14658 0 0.26458 0.41301 0.26458 0.92602 0 0.51302-0.118 0.92602-0.26458 0.92602h12.292c0.22096 0 0.39842-0.41301 0.39842-0.92602 0-0.51302-0.17745-0.92602-0.39842-0.92602z" fill="url(#linearGradient1021)" stroke-width=".1043"/>
   <path d="m21.572 9.5078 0.05684 0.21239-0.10955 0.40927-0.15503-0.57876-0.04599 0.011885c0.06154 0.075053 0.10935 0.23191 0.14056 0.42839 0.0052 0.032851 0.01247 0.059904 0.01654 0.095083 0.01624 0.09307 0.02853 0.19131 0.03101 0.29713l0.01292-0.04909 0.10955 0.40875-0.10955 0.40824-0.06563-0.24598c-0.0072 0.04153-0.01434 0.08301-0.02325 0.11989l0.06149 0.22892-0.02842 0.10593h0.05478l1e-3 -0.0036 1e-3 0.0036h0.05478l-0.02842-0.10645 0.10955-0.40875 0.10955 0.40875-0.02842 0.10645h0.05478l1e-3 -0.0041 1e-3 0.0041h0.05478l-0.02842-0.10645 0.10955-0.40875 0.10955 0.40875-0.02842 0.10645h0.05478l1e-3 -0.0041 1e-3 0.0041h0.05478l-0.02842-0.10645 0.10955-0.40875 0.11007 0.40979-0.02842 0.10542h0.05478l1e-3 -0.0031 1e-3 0.0031h0.05478l-0.02842-0.10542 0.10955-0.40927 0.10904 0.40772-0.02842 0.10697h0.05478l1e-3 -0.0047 1e-3 0.0047h0.05478l-0.02842-0.10645 0.10955-0.40824 0.11007 0.40927-0.02842 0.10542h0.05478l1e-3 -0.0031 1e-3 0.0031h0.05478l-0.02842-0.10542 0.10955-0.40927 0.10955 0.40875-0.02842 0.10593h0.05478l1e-3 -0.0041 1e-3 0.0041h0.05478l-0.02842-0.10645 0.10955-0.40875 0.10955 0.40927-0.02842 0.10593h0.05477l1e-3 -0.0036 1e-3 0.0036h0.05477l-0.02842-0.10593 0.10955-0.40927 0.10955 0.40927-0.02842 0.10593h0.05478l1e-3 -0.0036 1e-3 0.0036h0.05478l-0.02842-0.10593 0.10955-0.40875 0.10955 0.40875-0.02842 0.10593h0.05478l1e-3 -0.0036 1e-3 0.0036h0.05478l-0.02842-0.10645 0.10955-0.40875 0.10955 0.40927-0.02842 0.10593h0.05478l1e-3 -0.0036 1e-3 0.0036h0.05478l-0.02842-0.10593 0.10955-0.40875 0.10955 0.40875-0.02842 0.10593h0.05478l1e-3 -0.0036 1e-3 0.0036h0.05478l-0.02842-0.10645 0.10955-0.40875 0.10955 0.40927-0.02842 0.10593h0.05478l1e-3 -0.0041 1e-3 0.0041h0.05478l-0.02842-0.10593 0.10955-0.40927 0.10955 0.40875-0.02842 0.10645h0.05478l1e-3 -0.0041 1e-3 0.0041h0.05478l-0.02842-0.10593 0.10955-0.40927 0.10955 0.40875-0.02842 0.10645h0.05529l1e-3 -0.0031 1e-3 0.0031h0.05426l-0.0279-0.1049 0.10955-0.40927 0.10904 0.40772-0.02842 0.10645h0.05478l1e-3 -0.0047 1e-3 0.0047h0.05478l-0.02842-0.10697 0.10955-0.40875 0.10955 0.40927-0.02842 0.10645h0.05478l1e-3 -0.0041 1e-3 0.0041h0.05478l-0.02842-0.10593 0.10955-0.40927 0.10955 0.40875-0.02842 0.10645h0.05478l1e-3 -0.0041 1e-3 0.0041h0.03721c0.0057 0 0.01094-0.0031 0.01654-0.0036l-0.02739-0.10283 0.10955-0.40875 0.10283 0.38498c0.10247-0.13979 0.17451-0.38102 0.19172-0.66661l-0.02067 0.077-0.10955-0.40927 0.07545-0.28215c-0.0088-0.033221-0.01894-0.063813-0.02945-0.094049l-0.07338 0.2744-0.10904-0.40824 0.03566-0.13229c-0.01467-0.015127-0.03045-0.025171-0.04599-0.036173l-0.01757 0.065628-0.0248-0.093016c-0.01895-0.0082-0.03858-0.011653-0.05839-0.013435l0.05581 0.20877-0.10955 0.40875-0.10955-0.40927 0.05684-0.21187h-0.05478l-0.02945 0.11007-0.02945-0.11007h-0.05478l0.05684 0.21239-0.10955 0.40875-0.10904-0.40824 0.05684-0.2129h-0.05529l-0.02945 0.11007-0.02945-0.11007h-0.05478l0.05684 0.21239-0.10955 0.40927-0.10955-0.40875 0.05684-0.2129h-0.05478l-0.02945 0.11059-0.02946-0.11059h-0.05478l0.05684 0.21187-0.10955 0.40875-0.10955-0.40875 0.05684-0.21187h-0.05478l-0.02946 0.11007-0.02945-0.11007h-0.05478l0.05684 0.21239-0.10955 0.40927-0.10955-0.40927 0.05684-0.21239h-0.05478l-0.02945 0.11059-0.02945-0.11059h-0.05478l0.05684 0.21239-0.10955 0.40875-0.10955-0.40875 0.05684-0.21239h-0.05478l-0.02946 0.11007-0.02945-0.11007h-0.05478l0.05684 0.21239-0.10955 0.40927-0.10955-0.40875 0.05684-0.2129h-0.05478l-0.02945 0.11059-0.02946-0.11059h-0.05478l0.05684 0.2129-0.10955 0.40875-0.10955-0.40927 0.05684-0.21239h-0.05478l-0.02946 0.11007-0.02945-0.11007h-0.05478l0.05684 0.21239-0.10955 0.40927-0.10955-0.40875 0.05684-0.2129h-0.05477l-0.02946 0.11059-0.02945-0.11059h-0.05478l0.05684 0.2129-0.10955 0.40875-0.10955-0.40927 0.05684-0.21239h-0.05478l-0.02945 0.11007-0.02945-0.11007h-0.05478l0.05684 0.21239-0.10955 0.40927-0.10955-0.40875 0.05684-0.2129h-0.05478l-0.02945 0.11059-0.02946-0.11059h-0.05478l0.05684 0.2129-0.10955 0.40927-0.10955-0.40927 0.05684-0.2129h-0.05478l-0.02945 0.11059-0.02997-0.11059h-0.05426l0.05684 0.21239-0.10955 0.40927-0.10955-0.40927 0.05684-0.21239h-0.05478l-0.02946 0.11059-0.02945-0.11059h-0.05478l0.05796 0.21288-0.10955 0.40927-0.11007-0.40875 0.05736-0.21342h-0.05529l-0.02946 0.11059-0.02945-0.11059h-0.05478l0.05684 0.2129-0.10955 0.40824-0.10955-0.40875 0.05684-0.21239h-0.05478l-0.02945 0.11007-0.02946-0.11007h-0.05478l0.056842 0.21239-0.10955 0.40875-0.10955-0.40824 0.05684-0.2129h-0.05478l-0.02946 0.11059-0.02945-0.11059h-0.05478l0.05684 0.2129-0.10955 0.40824-0.10955-0.40875 0.05684-0.21239h-0.05478l-0.02945 0.11007-0.02946-0.11007zm3.6452 0.31419 0.10955 0.40875-0.10955 0.40927-0.10955-0.40875zm0.27388 0 0.10955 0.40927-0.10955 0.40875-0.10955-0.40927zm0.54776 0 0.10955 0.40927-0.10955 0.40875-0.10955-0.40927zm-4.3826 5.167e-4 0.10955 0.40875-0.10955 0.40927-0.10955-0.40875zm0.54776 0 0.10955 0.40875-0.10955 0.40875-0.10955-0.40875zm0.54828 0 0.10955 0.40875-0.11007 0.40979-0.10904-0.40875zm0.27388 0 0.10955 0.40927-0.10955 0.40875-0.10955-0.40875zm0.54776 0 0.10955 0.40927-0.10955 0.40875-0.10955-0.40875zm0.27388 0 0.10955 0.40927-0.10955 0.40875-0.10955-0.40927zm0.27388 0 0.10955 0.40927-0.10955 0.40875-0.10955-0.40875zm0.27388 0 0.10955 0.40927-0.10955 0.40875-0.10955-0.40927zm0.27388 0 0.10955 0.40875-0.10955 0.40927-0.10955-0.40875zm0.27388 0 0.10955 0.40927-0.10955 0.40875-0.10955-0.40927zm-3.0132 5.167e-4 0.10955 0.40824-0.10955 0.40875-0.10955-0.40875zm1.3699 0 0.10955 0.40875-0.10955 0.40927-0.10955-0.40875zm2.4654 0 0.10904 0.40824-0.10955 0.40927-0.10955-0.40772zm0.54776 0 0.10904 0.40824-0.10955 0.40875-0.10904-0.40824zm-3.8354 5.17e-4 0.11007 0.40875-0.10955 0.40875-0.11007-0.40979zm2.8763 0.50952 0.10955 0.40927-0.10955 0.40927-0.10955-0.40927zm0.54776 0 0.10955 0.40927-0.10955 0.40927-0.10955-0.40927zm0.54776 0 0.10955 0.40927-0.10955 0.40875-0.10955-0.40875zm-4.6565 5.17e-4 0.10955 0.40875-0.10955 0.40875-0.10955-0.40824zm0.27388 0 0.10955 0.40875-0.10955 0.40875-0.10955-0.40875zm0.27388 0 0.11007 0.40927-0.10955 0.40927-0.11007-0.40979zm0.54828 0 0.10955 0.40927-0.10955 0.40927-0.11007-0.40927zm0.54776 0 0.10955 0.40927-0.10955 0.40927-0.10955-0.40927zm0.27388 0 0.10955 0.40927-0.10955 0.40875-0.10955-0.40875zm0.54776 0 0.10955 0.40927-0.10955 0.40875-0.10955-0.40875zm0.27388 0 0.10955 0.40875-0.10955 0.40875-0.10955-0.40875zm0.27388 0 0.10955 0.40875-0.10955 0.40927-0.10955-0.40875zm0.27388 0 0.10955 0.40875-0.10955 0.40927-0.10955-0.40927zm-1.9172 5.17e-4 0.10955 0.40875-0.10955 0.40875-0.10955-0.40875zm0.82164 0 0.10955 0.40875-0.10955 0.40875-0.10955-0.40875zm1.6438 0 0.10904 0.40824-0.10955 0.40875-0.10904-0.40824zm0.54724 0 0.10955 0.40824-0.10955 0.40875-0.10955-0.40875zm-3.5604 5.16e-4 0.10904 0.40824-0.10955 0.40824-0.10904-0.40772zm-1.3694 1.0201c-0.0051 1e-3 -0.0098 0.0052-0.01499 0.0052h0.01344z" opacity=".15" stroke-width=".081337"/>
   <path d="m31.562 9.5078c0.22096 0 0.39893 0.41301 0.39893 0.92602 0 0.51302-0.17797 0.92602-0.39893 0.92602h0.11782c0.22096 0 0.39893-0.41301 0.39893-0.92602 0-0.51302-0.17797-0.92602-0.39893-0.92602z" opacity=".25" stroke-width=".1043"/>
   <path d="m34.85 9.9951c0.03917 0.083506 0.09899 0.24162 0.09899 0.43496s-0.05982 0.35898-0.09899 0.44248c0.07961-0.08143 0.13305-0.237 0.13694-0.41909 3.1e-5 -0.0069 5.29e-4 -0.01267 5.29e-4 -0.01964 0-7e-3 -5.29e-4 -0.01273-5.29e-4 -0.01964-0.0039-0.18208-0.05733-0.33766-0.13694-0.41909z" opacity=".36" stroke-width=".061463"/>
   <path d="m27.116 9.4537 6.4313 0.21473c0.03296 0.0011 0.27279 0.18649 0.25909 0.21649l-0.11126 0.24363c-0.0137 0.03-0.02655 0.05954-0.05954 0.05954h-6.4954c-0.03298 0-0.05244-0.02733-0.05954-0.05954l-0.08829-0.40058c-0.0071-0.03221 0.09066-0.27426 0.12365-0.27426z" fill="#28573f" stroke-width=".10583"/>
   <path d="m27.171 9.4039h6.4954c0.03298 0 0.05244 0.027326 0.05954 0.059537l0.08829 0.40058c0.0071 0.03221-0.02655 0.059537-0.05954 0.059537h-6.4954c-0.03298 0-0.05244-0.027326-0.05954-0.059537l-0.08829-0.40058c-0.0071-0.03221 0.02655-0.059537 0.05954-0.059537z" fill="#83cea9" stroke-width=".10583"/>
   <path d="m27.147 9.4132c-0.0225 0.00943-0.04141 0.026356-0.03617 0.050125l0.08836 0.40048c0.0071 0.032211 0.02645 0.059944 0.05943 0.059944h6.4956c0.03299 0 0.06653-0.027734 0.05943-0.059944l-0.0047-0.020153c-0.0079 0.00329-0.01469 0.0093-0.02325 0.0093h-6.4956c-0.03298 0-0.05233-0.027216-0.05943-0.059427z" fill="#4c9872" stroke-width=".10583"/>
   <g stroke-width=".1043">
    <path d="m17.674 10.198s-0.01787 0.0095-0.01129 0.04666c0.03723 0.04536 0.05265 0.14856 0.05361 0.18949s-0.01292 0.14934-0.04836 0.20844c3e-3 0.03425 0.01566 0.04079 0.01566 0.04079l3.5398 0.6768c0.21703 0.0415 0.28773-0.41301 0.28773-0.92602 0-0.51302-0.08337-0.96833-0.30024-0.92602z" fill="url(#linearGradient1129)"/>
    <path d="m17.792 10.301s-0.02941-4.36e-4 -0.02749 0.08142c0.0019 0.08186 0.02749 0.08623 0.02749 0.08623l3.3701 0.02939c0.22096 0.0019 0.2305-0.35557 0.2305-0.5007 0-0.21274-0.14975-0.38834-0.2293-0.37239z" opacity=".25"/>
    <path d="m17.792 10.301s-0.02941-4.36e-4 -0.02749 0.08142c0.0019 0.08186 0.02749 0.08623 0.02749 0.08623l3.3217-0.12256c0.22082-0.0081 0.20164-0.20543 0.20164-0.35056 0-0.21274-0.09313-0.29602-0.17304-0.28201z" opacity=".15"/>
    <path d="m17.792 10.319s-0.02941-0.01819-0.02749 0.06367c0.0019 0.08186 0.02749 0.06811 0.02749 0.06811l3.3559-0.24296c0.08366-0.0061 0.12098-0.06814 0.12098-0.21327 0-0.21274-0.07815-0.20471-0.14459-0.19437z" fill="#fff"/>
   </g>
   <path d="m17.41 10.353c0 0.01341-0.12228 0.02429-0.19999 0.02429-0.0777 0-0.08142-0.01088-0.08142-0.02429s0.0037-0.02429 0.08142-0.02429c0.0777 0 0.19999 0.01088 0.19999 0.02429z" fill="#fff" opacity=".75" stroke-width=".087931"/>
   <path d="m16.983 10.412c0 0.01341-0.12228 0.02429-0.19999 0.02429-0.0777 0-0.08142-0.01088-0.08142-0.02429s0.0037-0.02429 0.08142-0.02429c0.0777 0 0.19999 0.01088 0.19999 0.02429z" fill="#fff" opacity=".25" stroke-width=".087931"/>
   <g stroke-width=".1043">
    <path d="m26.174 9.5078c0.22096 0 0.39893 0.41301 0.39893 0.92602 0 0.51302-0.17797 0.92602-0.39893 0.92602h0.11782c0.22096 0 0.39893-0.41301 0.39893-0.92602 0-0.51302-0.17797-0.92602-0.39893-0.92602z" opacity=".25"/>
    <path d="m22.848 9.5078c0.22096 0 0.39893 0.41301 0.39893 0.92602 0 0.51302-0.17797 0.92602-0.39893 0.92602h0.11782c0.22096 0 0.39893-0.41301 0.39893-0.92602 0-0.51302-0.17797-0.92602-0.39893-0.92602z" opacity=".25"/>
    <path d="m22.234 9.5078c0.22096 0 0.39893 0.41301 0.39893 0.92602 0 0.51302-0.17797 0.92602-0.39893 0.92602h0.11782c0.22096 0 0.39893-0.41301 0.39893-0.92602 0-0.51302-0.17797-0.92602-0.39893-0.92602z" opacity=".25"/>
   </g>
  </g>
 </g>
</svg>
