<svg width="64" height="64" version="1.1" viewBox="0 0 16.933 16.933" xmlns="http://www.w3.org/2000/svg" xmlns:xlink="http://www.w3.org/1999/xlink">
 <defs>
  <linearGradient id="linearGradient862" x1="7.9373" x2="7.9373" y1="15.081" y2="1.852" gradientUnits="userSpaceOnUse">
   <stop stop-color="#eae8e9" offset="0"/>
   <stop stop-color="#f9f8f9" offset="1"/>
  </linearGradient>
  <linearGradient id="linearGradient4308">
   <stop stop-color="#64baff" offset="0"/>
   <stop stop-color="#0d52bf" offset="1"/>
  </linearGradient>
  <clipPath id="clipPath7904">
   <path d="m66 33c-2.216 0-4 1.784-4 4l-3e-6 40h-16c-2.216 0-4 1.784-4 3.9999l3e-6 8c-4e-6 2.216 1.784 4.0001 4 4l28 1e-4c2.216 0 4-1.784 4-4.0001l1.8e-5 -52c-3e-6 -2.216-1.784-4-4-4z" fill="url(#linearGradient7908)"/>
  </clipPath>
  <linearGradient id="linearGradient7908" x1="129.43" x2="193.44" y1="903.24" y2="914.53" gradientTransform="matrix(.76604 .64279 -.64279 .76604 525.01 -731.7)" gradientUnits="userSpaceOnUse" xlink:href="#linearGradient4308"/>
  <linearGradient id="linearGradient8451" x1="282.24" x2="261.03" y1="1013.7" y2="988.43" gradientTransform="matrix(.11472 .096265 -.096265 .11472 91.739 -130.23)" gradientUnits="userSpaceOnUse">
   <stop stop-color="#fff" offset="0"/>
   <stop stop-color="#fff" stop-opacity="0" offset="1"/>
  </linearGradient>
  <linearGradient id="linearGradient8453" x1="129.43" x2="193.44" y1="903.24" y2="914.53" gradientTransform="matrix(.026006 .14749 -.14749 .026006 156.38 -39.073)" gradientUnits="userSpaceOnUse" xlink:href="#linearGradient4308"/>
  <linearGradient id="linearGradient8460" x1="151" x2="151" y1="60" y2="76" gradientTransform="matrix(.13749 0 0 .13749 -17.297 -4.0255)" gradientUnits="userSpaceOnUse" xlink:href="#linearGradient4308"/>
  <linearGradient id="linearGradient957" x1="151" x2="151" y1="60" y2="76" gradientTransform="matrix(.13749 0 0 .13749 -17.297 .0066533)" gradientUnits="userSpaceOnUse" xlink:href="#linearGradient4308"/>
  <linearGradient id="linearGradient963" x1="151" x2="151" y1="60" y2="76" gradientTransform="matrix(.13749 0 0 .13749 -17.297 2.0607)" gradientUnits="userSpaceOnUse" xlink:href="#linearGradient4308"/>
 </defs>
 <g shape-rendering="auto">
  <path d="m4.3693 0.52916c-2.1142 0-3.8402 1.7835-3.8402 3.9682v8.4675c0 2.1846 1.726 3.9682 3.8402 3.9682h8.1944c2.1142 0 3.8402-1.7835 3.8402-3.9682v-8.4675c0-2.1846-1.726-3.9682-3.8402-3.9682zm0.25704 0.52089h7.6808c1.8443 0 3.3291 1.5342 3.3291 3.44v7.9368c0 1.9058-1.4847 3.44-3.3291 3.44h-7.6808c-1.8443 0-3.3291-1.5342-3.3291-3.44v-7.9368c0-1.9058 1.4847-3.44 3.3291-3.44z" color="#000000" color-rendering="auto" dominant-baseline="auto" image-rendering="auto" opacity=".01" solid-color="#000000" stop-color="#000000" style="font-feature-settings:normal;font-variant-alternates:normal;font-variant-caps:normal;font-variant-east-asian:normal;font-variant-ligatures:normal;font-variant-numeric:normal;font-variant-position:normal;font-variation-settings:normal;inline-size:0;isolation:auto;mix-blend-mode:normal;shape-margin:0;shape-padding:0;text-decoration-color:#000000;text-decoration-line:none;text-decoration-style:solid;text-indent:0;text-orientation:mixed;text-transform:none;white-space:normal"/>
  <path d="m4.3587 0.79373c-1.9668 0-3.5639 1.6528-3.5639 3.6876v8.4996c0 2.0348 1.5971 3.6876 3.5639 3.6876h8.2162c1.9668 0 3.5644-1.6528 3.5644-3.6876v-8.4996c0-2.0348-1.5976-3.6876-3.5644-3.6876zm0.27222 0.25631h7.6718c1.8422 0 3.3251 1.5342 3.3251 3.44v7.9368c0 1.9058-1.483 3.44-3.3251 3.44h-7.6718c-1.8422 0-3.3251-1.5342-3.3251-3.44v-7.9368c0-1.9058 1.483-3.44 3.3251-3.44z" color="#000000" color-rendering="auto" dominant-baseline="auto" image-rendering="auto" opacity=".01" solid-color="#000000" stop-color="#000000" style="font-feature-settings:normal;font-variant-alternates:normal;font-variant-caps:normal;font-variant-east-asian:normal;font-variant-ligatures:normal;font-variant-numeric:normal;font-variant-position:normal;font-variation-settings:normal;inline-size:0;isolation:auto;mix-blend-mode:normal;shape-margin:0;shape-padding:0;text-decoration-color:#000000;text-decoration-line:none;text-decoration-style:solid;text-indent:0;text-orientation:mixed;text-transform:none;white-space:normal"/>
  <path d="m4.3097 1.0583c-1.8657 0-3.3751 1.5383-3.3751 3.439v8.4675c0 1.9007 1.57 3.439 3.4357 3.439h8.1996c1.8657 0 3.4274-1.5383 3.4274-3.439v-8.4675c0-1.9007-1.51-3.439-3.3756-3.439h-0.09688c1.794 0.086515 3.2138 1.5819 3.2138 3.4318v7.9368c0 1.9058-1.5059 3.44-3.3766 3.44h-7.7905c-1.8707 0-3.3766-1.5342-3.3766-3.44v-7.9368c0-1.8498 1.4199-3.3451 3.2138-3.4318z" color="#000000" color-rendering="auto" dominant-baseline="auto" image-rendering="auto" opacity=".03" solid-color="#000000" stop-color="#000000" style="font-feature-settings:normal;font-variant-alternates:normal;font-variant-caps:normal;font-variant-east-asian:normal;font-variant-ligatures:normal;font-variant-numeric:normal;font-variant-position:normal;font-variation-settings:normal;inline-size:0;isolation:auto;mix-blend-mode:normal;shape-margin:0;shape-padding:0;text-decoration-color:#000000;text-decoration-line:none;text-decoration-style:solid;text-indent:0;text-orientation:mixed;text-transform:none;white-space:normal"/>
  <path transform="scale(.26458)" d="m4 46.969v2.0312c0 6.6479 5.8957 12 12.544 12h30.961c6.6479 0 12.495-5.3521 12.495-12v-1.9922c-0.02117 7.1849-5.81 12.963-13 12.963h-29.998c-7.2032 0-13.002-5.7987-13.002-13.002z" color="#000000" color-rendering="auto" dominant-baseline="auto" image-rendering="auto" opacity=".03" solid-color="#000000" stop-color="#000000" style="font-feature-settings:normal;font-variant-alternates:normal;font-variant-caps:normal;font-variant-east-asian:normal;font-variant-ligatures:normal;font-variant-numeric:normal;font-variant-position:normal;font-variation-settings:normal;inline-size:0;isolation:auto;mix-blend-mode:normal;shape-margin:0;shape-padding:0;text-decoration-color:#000000;text-decoration-line:none;text-decoration-style:solid;text-indent:0;text-orientation:mixed;text-transform:none;white-space:normal"/>
  <path d="m1.0583 11.906v0.59234c0 1.9386 1.5729 3.4993 3.3318 3.4993h8.1603c1.7589 0 3.3243-1.5608 3.3243-3.4993v-0.58095c-0.0056 2.0952-1.5372 3.7801-3.4395 3.7801h-7.9368c-1.9058 0-3.44-1.691-3.44-3.7915z" color="#000000" color-rendering="auto" dominant-baseline="auto" image-rendering="auto" opacity=".05" solid-color="#000000" stop-color="#000000" style="font-feature-settings:normal;font-variant-alternates:normal;font-variant-caps:normal;font-variant-east-asian:normal;font-variant-ligatures:normal;font-variant-numeric:normal;font-variant-position:normal;font-variation-settings:normal;inline-size:0;isolation:auto;mix-blend-mode:normal;shape-margin:0;shape-padding:0;text-decoration-color:#000000;text-decoration-line:none;text-decoration-style:solid;text-indent:0;text-orientation:mixed;text-transform:none;white-space:normal"/>
 </g>
 <rect x="1.0583" y="1.05" width="14.817" height="14.817" rx="3.4401" ry="3.4401" fill="url(#linearGradient862)"/>
 <g transform="translate(0 .26458)" opacity=".25" stroke-linecap="round" stroke-linejoin="round" stroke-opacity=".35" stroke-width=".074834">
  <rect x="2.3812" y="3.9687" width="12.171" height=".13229" rx="0" ry=".066145" opacity=".75"/>
  <rect x="2.3812" y="6.0853" width="12.171" height=".13229" rx="0" ry=".066145" opacity=".75"/>
  <rect x="2.3812" y="8.2019" width="12.171" height=".13229" rx="0" ry=".066145" opacity=".75"/>
  <rect x="2.3812" y="10.054" width="12.171" height=".13229" rx="0" ry=".066145" opacity=".75"/>
  <rect x="2.3812" y="12.171" width="12.171" height=".13229" rx="0" ry=".066145" opacity=".75"/>
 </g>
 <rect x="4.7189" y="1.0583" width=".13229" height="14.816" fill="#da4d45" opacity=".15"/>
 <g fill="#fff">
  <path d="m5.5433 5.8778q-0.01797 0-0.0337-0.00225-0.01348-0.00225-0.0292-0.00674-0.04044-0.011232-0.05616-0.047175-0.02022-0.044928 0-0.10783 0.02246-0.065146 0.07189-0.16623 9e-3 -0.017971 0.01797-0.040436 9e-3 -0.022464 0.02022-0.042682-0.0292 0.011232-0.0629 0.038189-0.03145 0.024711-0.06515 0.051668-0.02246 0.017971-0.04942 0.013479-0.0292-0.00449-0.04717-0.024711-0.01797-0.022464-0.01348-0.049421 0.0045-0.026957 0.02471-0.047175 0.03145-0.022464 0.06515-0.049421t0.07189-0.044928q0.0921-0.047175 0.16848-0.024711 0.03594 0.00674 0.05391 0.044928 0.01797 0.038189-0.0022 0.089857-0.01797 0.051668-0.0629 0.14602-0.01123 0.026957-0.02471 0.053914-0.01123 0.026957-0.02246 0.051668-0.0045 0.00899-0.0067 0.015725-0.0022 0.00674-0.0045 0.013478 0.02246-0.00225 0.05616-0.013478 0.03594-0.011232 0.08087-0.033696 0.04717-0.024711 0.10783-0.065146 0.06065-0.040436 0.13928-0.10109 0.06065-0.049421 0.11457-0.096596 0.05391-0.047175 0.09435-0.085364t0.06515-0.0629 0.02471-0.024711q0.02696-0.03145 0.06515-0.020218 0.01797 0.00449 0.0292 0.015725 0.01123 0.011232 0.01797 0.022464 0.01572 0.03145 0.0022 0.074132-0.01348 0.042682-0.04942 0.13254-0.01348 0.029203-0.02696 0.058407-0.01123 0.029204-0.02246 0.053914-0.0022 0.011232-0.0067 0.024711 0.03145-0.00449 0.06739-0.024711 0.03594-0.020218 0.07189-0.044928 0.03594-0.024711 0.06739-0.051668 0.03145-0.029203 0.05616-0.049421 0.02246-0.020218 0.04942-0.017971 0.02696 0.00225 0.04717 0.022464 0.01797 0.022464 0.01572 0.049421 0 0.026957-0.02246 0.047175-0.05167 0.047175-0.10558 0.089857-0.05391 0.040436-0.11008 0.071885-0.05391 0.029203-0.11007 0.042682-0.05616 0.011232-0.11008-0.00225-0.03594-0.013478-0.05167-0.044928-0.01348-0.03145-9e-3 -0.067393 0.0067-0.038189 0.02696-0.096596-0.02471 0.022464-0.05167 0.042682-0.02471 0.020218-0.05391 0.044928-0.31 0.24486-0.48298 0.24486z" opacity=".25"/>
  <path d="m7.0692 5.7497q-0.02696 0-0.04493-0.015725-0.03594-0.029203-0.02022-0.074132 0-0.00225 0.01572-0.053914 0.01797-0.051668 0.04044-0.11681 0.01123-0.038189 0.02022-0.065146 9e-3 -0.029204 0.01572-0.051668-0.04718 0.017971-0.10783 0.040436-0.06065 0.022464-0.13029 0.049421-0.06739 0.024711-0.13928 0.051668-0.07189 0.026957-0.13928 0.051668-0.02471 0.00899-0.04942-0.00225-0.02696-0.013478-0.03819-0.040436-9e-3 -0.024711 0.0045-0.049421 0.01123-0.026957 0.03819-0.038189 0.10109-0.035943 0.20892-0.076378 0.11008-0.040436 0.19993-0.074132 0.08986-0.033696 0.14826-0.056161 0.06065-0.022464 0.06065-0.022464 0.01123-0.00225 0.02022-0.00225 0.01123-0.00225 0.02246 0.00225 0.03145 0.00449 0.04493 0.035943 0.01123 0.017971 9e-3 0.047175 0 0.026957-0.01123 0.078625-0.0067 0.029203-0.01797 0.065146-9e-3 0.033696-0.02471 0.078625-0.0022 0.00899-0.0045 0.015725-0.0022 0.00674-0.0045 0.015725 0.08986-0.049421 0.22015-0.10334 0.02471-0.011232 0.04942 0 0.02471 0.00899 0.03594 0.033696 0.01348 0.024711 0.0022 0.051668-0.01123 0.026957-0.03594 0.038189-0.07638 0.033696-0.14152 0.065146-0.06515 0.03145-0.11232 0.056161-0.05616 0.029203-0.10109 0.053914-0.01348 0.011232-0.0337 0.011232z" opacity=".25"/>
  <path d="m7.6099 5.8778q-0.01797 0-0.0337-0.00225-0.01348-0.00225-0.0292-0.00674-0.04044-0.011232-0.05616-0.047175-0.02022-0.044928 0-0.10783 0.02247-0.065146 0.07189-0.16623 9e-3 -0.017971 0.01797-0.040436 9e-3 -0.022464 0.02022-0.042682-0.0292 0.011232-0.0629 0.038189-0.03145 0.024711-0.06515 0.051668-0.02246 0.017971-0.04942 0.013479-0.0292-0.00449-0.04717-0.024711-0.01797-0.022464-0.01348-0.049421 0.0045-0.026957 0.02471-0.047175 0.03145-0.022464 0.06515-0.049421t0.07189-0.044928q0.0921-0.047175 0.16848-0.024711 0.03594 0.00674 0.05391 0.044928 0.01797 0.038189-0.0022 0.089857-0.01797 0.051668-0.0629 0.14602-0.01123 0.026957-0.02471 0.053914-0.01123 0.026957-0.02246 0.051668-0.0045 0.00899-0.0067 0.015725-0.0022 0.00674-0.0045 0.013478 0.02246-0.00225 0.05616-0.013478 0.03594-0.011232 0.08087-0.033696 0.04717-0.024711 0.10783-0.065146 0.06065-0.040436 0.13928-0.10109 0.06065-0.049421 0.11457-0.096596 0.05391-0.047175 0.09435-0.085364t0.06515-0.0629 0.02471-0.024711q0.02696-0.03145 0.06515-0.020218 0.01797 0.00449 0.0292 0.015725 0.01123 0.011232 0.01797 0.022464 0.01572 0.03145 0.0022 0.074132-0.01348 0.042682-0.04942 0.13254-0.01348 0.029203-0.02696 0.058407-0.01123 0.029204-0.02246 0.053914-0.0022 0.011232-0.0067 0.024711 0.03145-0.00449 0.06739-0.024711 0.03594-0.020218 0.07189-0.044928 0.03594-0.024711 0.06739-0.051668 0.03145-0.029203 0.05616-0.049421 0.02246-0.020218 0.04942-0.017971 0.02696 0.00225 0.04718 0.022464 0.01797 0.022464 0.01572 0.049421 0 0.026957-0.02247 0.047175-0.05167 0.047175-0.10558 0.089857-0.05391 0.040436-0.11008 0.071885-0.05391 0.029203-0.11007 0.042682-0.05616 0.011232-0.11008-0.00225-0.03594-0.013478-0.05167-0.044928-0.01348-0.03145-9e-3 -0.067393 0.0067-0.038189 0.02696-0.096596-0.02471 0.022464-0.05167 0.042682-0.02471 0.020218-0.05391 0.044928-0.31 0.24486-0.48298 0.24486z" opacity=".25"/>
  <path d="m8.8033 5.8778q-0.01797 0-0.0337-0.00225-0.01348-0.00225-0.0292-0.00674-0.04044-0.011232-0.05616-0.047175-0.02022-0.044928 0-0.10783 0.02246-0.065146 0.07189-0.16623 9e-3 -0.017971 0.01797-0.040436 9e-3 -0.022464 0.02022-0.042682-0.0292 0.011232-0.0629 0.038189-0.03145 0.024711-0.06515 0.051668-0.02247 0.017971-0.04942 0.013479-0.0292-0.00449-0.04717-0.024711-0.01797-0.022464-0.01348-0.049421 0.0045-0.026957 0.02471-0.047175 0.03145-0.022464 0.06515-0.049421t0.07188-0.044928q0.0921-0.047175 0.16848-0.024711 0.03594 0.00674 0.05391 0.044928 0.01797 0.038189-0.0022 0.089857-0.01797 0.051668-0.0629 0.14602-0.01123 0.026957-0.02471 0.053914-0.01123 0.026957-0.02246 0.051668-0.0045 0.00899-0.0067 0.015725-0.0022 0.00674-0.0045 0.013478 0.02246-0.00225 0.05616-0.013478 0.03594-0.011232 0.08087-0.033696 0.04717-0.024711 0.10783-0.065146 0.06065-0.040436 0.13928-0.10109 0.06065-0.049421 0.11457-0.096596 0.05391-0.047175 0.09435-0.085364t0.06515-0.0629 0.02471-0.024711q0.02696-0.03145 0.06515-0.020218 0.01797 0.00449 0.0292 0.015725 0.01123 0.011232 0.01797 0.022464 0.01572 0.03145 0.0022 0.074132-0.01348 0.042682-0.04942 0.13254-0.01348 0.029203-0.02696 0.058407-0.01123 0.029204-0.02246 0.053914-0.0022 0.011232-0.0067 0.024711 0.03145-0.00449 0.06739-0.024711 0.03594-0.020218 0.07189-0.044928 0.03594-0.024711 0.06739-0.051668 0.03145-0.029203 0.05616-0.049421 0.02246-0.020218 0.04942-0.017971 0.02696 0.00225 0.04717 0.022464 0.01797 0.022464 0.01572 0.049421 0 0.026957-0.02246 0.047175-0.05167 0.047175-0.10558 0.089857-0.05391 0.040436-0.11007 0.071885-0.05391 0.029203-0.11008 0.042682-0.05616 0.011232-0.11007-0.00225-0.03594-0.013478-0.05167-0.044928-0.01348-0.03145-9e-3 -0.067393 0.0067-0.038189 0.02696-0.096596-0.02471 0.022464-0.05167 0.042682-0.02471 0.020218-0.05391 0.044928-0.31001 0.24486-0.48298 0.24486z" opacity=".25"/>
  <path d="m9.9967 5.8778q-0.01797 0-0.0337-0.00225-0.01348-0.00225-0.0292-0.00674-0.04044-0.011232-0.05616-0.047175-0.02022-0.044928 0-0.10783 0.02246-0.065146 0.07189-0.16623 9e-3 -0.017971 0.01797-0.040436 9e-3 -0.022464 0.02022-0.042682-0.0292 0.011232-0.0629 0.038189-0.03145 0.024711-0.06515 0.051668-0.02246 0.017971-0.04942 0.013479-0.0292-0.00449-0.04717-0.024711-0.01797-0.022464-0.01348-0.049421 0.0045-0.026957 0.02471-0.047175 0.03145-0.022464 0.06515-0.049421t0.07189-0.044928q0.0921-0.047175 0.16848-0.024711 0.03594 0.00674 0.05391 0.044928 0.01797 0.038189-0.0022 0.089857-0.01797 0.051668-0.0629 0.14602-0.01123 0.026957-0.02471 0.053914-0.01123 0.026957-0.02246 0.051668-0.0045 0.00899-0.0067 0.015725-0.0022 0.00674-0.0045 0.013478 0.02246-0.00225 0.05616-0.013478 0.03594-0.011232 0.08087-0.033696 0.04717-0.024711 0.10783-0.065146 0.06065-0.040436 0.13928-0.10109 0.06065-0.049421 0.11457-0.096596 0.05391-0.047175 0.09435-0.085364t0.06515-0.0629 0.02471-0.024711q0.02696-0.03145 0.06515-0.020218 0.01797 0.00449 0.0292 0.015725 0.01123 0.011232 0.01797 0.022464 0.01572 0.03145 0.0022 0.074132-0.01348 0.042682-0.04942 0.13254-0.01348 0.029203-0.02696 0.058407-0.01123 0.029204-0.02246 0.053914-0.0022 0.011232-0.0067 0.024711 0.03145-0.00449 0.06739-0.024711 0.03594-0.020218 0.07189-0.044928 0.03594-0.024711 0.06739-0.051668 0.03145-0.029203 0.05616-0.049421 0.02246-0.020218 0.04942-0.017971 0.02696 0.00225 0.04717 0.022464 0.01797 0.022464 0.01572 0.049421 0 0.026957-0.02247 0.047175-0.05167 0.047175-0.10558 0.089857-0.05391 0.040436-0.11008 0.071885-0.05391 0.029203-0.11007 0.042682-0.05616 0.011232-0.11008-0.00225-0.03594-0.013478-0.05167-0.044928-0.01348-0.03145-9e-3 -0.067393 0.0067-0.038189 0.02696-0.096596-0.02471 0.022464-0.05167 0.042682-0.02471 0.020218-0.05391 0.044928-0.31 0.24486-0.48298 0.24486z" opacity=".25"/>
  <path d="m12.283 5.8778q-0.01797 0-0.0337-0.00225-0.01348-0.00225-0.0292-0.00674-0.04044-0.011232-0.05616-0.047175-0.02022-0.044928 0-0.10783 0.02246-0.065146 0.07189-0.16623 9e-3 -0.017971 0.01797-0.040436 9e-3 -0.022464 0.02022-0.042682-0.0292 0.011232-0.0629 0.038189-0.03145 0.024711-0.06515 0.051668-0.02246 0.017971-0.04942 0.013479-0.0292-0.00449-0.04717-0.024711-0.01797-0.022464-0.01348-0.049421 0.0045-0.026957 0.02471-0.047175 0.03145-0.022464 0.06515-0.049421t0.07189-0.044928q0.0921-0.047175 0.16848-0.024711 0.03594 0.00674 0.05391 0.044928 0.01797 0.038189-0.0022 0.089857-0.01797 0.051668-0.0629 0.14602-0.01123 0.026957-0.02471 0.053914-0.01123 0.026957-0.02246 0.051668-0.0045 0.00899-0.0067 0.015725-0.0022 0.00674-0.0045 0.013478 0.02246-0.00225 0.05616-0.013478 0.03594-0.011232 0.08087-0.033696 0.04717-0.024711 0.10783-0.065146 0.06065-0.040436 0.13928-0.10109 0.06065-0.049421 0.11457-0.096596 0.05391-0.047175 0.09435-0.085364t0.06515-0.0629 0.02471-0.024711q0.02696-0.03145 0.06515-0.020218 0.01797 0.00449 0.0292 0.015725 0.01123 0.011232 0.01797 0.022464 0.01572 0.03145 0.0022 0.074132-0.01348 0.042682-0.04942 0.13254-0.01348 0.029203-0.02696 0.058407-0.01123 0.029204-0.02246 0.053914-0.0022 0.011232-0.0067 0.024711 0.03145-0.00449 0.06739-0.024711 0.03594-0.020218 0.07189-0.044928 0.03594-0.024711 0.06739-0.051668 0.03145-0.029203 0.05616-0.049421 0.02246-0.020218 0.04942-0.017971 0.02696 0.00225 0.04718 0.022464 0.01797 0.022464 0.01572 0.049421 0 0.026957-0.02246 0.047175-0.05167 0.047175-0.10558 0.089857-0.05391 0.040436-0.11008 0.071885-0.05391 0.029203-0.11007 0.042682-0.05616 0.011232-0.11008-0.00225-0.03594-0.013478-0.05167-0.044928-0.01348-0.03145-9e-3 -0.067393 0.0067-0.038189 0.02696-0.096596-0.02471 0.022464-0.05167 0.042682-0.02471 0.020218-0.05391 0.044928-0.31 0.24486-0.48298 0.24486z" opacity=".25"/>
  <path d="m13.579 5.8823q-0.01123 0-0.02246-0.00225-0.01123 0-0.02471-0.00225-0.02696-0.00899-0.04493-0.038189-0.0067-0.013478-9e-3 -0.03145-0.0022-0.020218 0.0045-0.058407 9e-3 -0.038189 0.02696-0.10334 0.02022-0.067393 0.05391-0.17297-0.05167 0.017971-0.11457 0.042682-0.0629 0.024711-0.13029 0.049421-0.02471 0.00899-0.04942-0.00225-0.02696-0.013478-0.03819-0.040436-9e-3 -0.024711 0.0045-0.049421 0.01123-0.026957 0.03819-0.038189 0.07189-0.026957 0.13928-0.051668 0.06739-0.024711 0.11906-0.042682 0.05167-0.020218 0.08312-0.03145 0.03145-0.013478 0.03145-0.013478 0.02246-0.00899 0.04268-0.00225 0.0292 0.00674 0.04268 0.033696 0.01123 0.020218 0.0067 0.035943-0.0022 0.015725-0.0067 0.033696-0.0045 0.00899-0.0067 0.020218-0.0022 0.00899-0.0067 0.022464-0.01572 0.038189-0.0337 0.09435-0.01572 0.053914-0.0337 0.11007-0.01123 0.03145-0.01797 0.053914-0.0067 0.022464-0.01123 0.040436 0.04268-0.00899 0.12355-0.051668 0.06964-0.038189 0.14826-0.08761 0.07862-0.049421 0.16399-0.10783 0.01797-0.011232 0.03594-0.022464t0.03594-0.024711q0.02471-0.015725 0.05167-0.00899 0.02696 0.00449 0.04493 0.029203 0.01572 0.024711 9e-3 0.051668-0.0045 0.024711-0.0292 0.040436-0.01797 0.013478-0.03819 0.026957-0.01797 0.011232-0.03819 0.024711-0.08536 0.05616-0.16624 0.10783-0.08087 0.051668-0.15276 0.089857-0.14602 0.076378-0.23138 0.076378z" opacity=".25"/>
 </g>
 <g fill="#333">
  <path d="m5.5433 5.728q-0.01797 0-0.0337-0.00225-0.01348-0.00225-0.0292-0.00674-0.04044-0.011232-0.05616-0.047175-0.02022-0.044928 0-0.10783 0.02246-0.065146 0.07189-0.16623 9e-3 -0.017971 0.01797-0.040436 9e-3 -0.022464 0.02022-0.042682-0.0292 0.011232-0.0629 0.038189-0.03145 0.024711-0.06515 0.051668-0.02246 0.017971-0.04942 0.013478-0.0292-0.00449-0.04717-0.024711-0.01797-0.022464-0.01348-0.049421 0.0045-0.026957 0.02471-0.047175 0.03145-0.022464 0.06515-0.049421t0.07189-0.044928q0.0921-0.047175 0.16848-0.024711 0.03594 0.00674 0.05391 0.044928 0.01797 0.038189-0.0022 0.089857-0.01797 0.051668-0.0629 0.14602-0.01123 0.026957-0.02471 0.053914-0.01123 0.026957-0.02246 0.051668-0.0045 0.00899-0.0067 0.015725-0.0022 0.00674-0.0045 0.013479 0.02246-0.00225 0.05616-0.013479 0.03594-0.011232 0.08087-0.033696 0.04717-0.024711 0.10783-0.065146 0.06065-0.040436 0.13928-0.10109 0.06065-0.049421 0.11457-0.096596 0.05391-0.047175 0.09435-0.085364t0.06515-0.0629 0.02471-0.024711q0.02696-0.03145 0.06515-0.020218 0.01797 0.00449 0.0292 0.015725 0.01123 0.011232 0.01797 0.022464 0.01572 0.03145 0.0022 0.074132-0.01348 0.042682-0.04942 0.13254-0.01348 0.029203-0.02696 0.058407-0.01123 0.029203-0.02246 0.053914-0.0022 0.011232-0.0067 0.024711 0.03145-0.00449 0.06739-0.024711 0.03594-0.020218 0.07189-0.044928 0.03594-0.024711 0.06739-0.051668 0.03145-0.029203 0.05616-0.049421 0.02246-0.020218 0.04942-0.017971 0.02696 0.00225 0.04717 0.022464 0.01797 0.022464 0.01572 0.049421 0 0.026957-0.02246 0.047175-0.05167 0.047175-0.10558 0.089857-0.05391 0.040436-0.11008 0.071885-0.05391 0.029203-0.11007 0.042682-0.05616 0.011232-0.11008-0.00225-0.03594-0.013478-0.05167-0.044928-0.01348-0.03145-9e-3 -0.067393 0.0067-0.038189 0.02696-0.096596-0.02471 0.022464-0.05167 0.042682-0.02471 0.020218-0.05391 0.044928-0.31 0.24486-0.48298 0.24486z" opacity=".25"/>
  <path d="m7.0692 5.6q-0.02696 0-0.04493-0.015725-0.03594-0.029204-0.02022-0.074132 0-0.00225 0.01572-0.053914 0.01797-0.051668 0.04044-0.11681 0.01123-0.038189 0.02022-0.065146 9e-3 -0.029203 0.01572-0.051668-0.04718 0.017971-0.10783 0.040436-0.06065 0.022464-0.13029 0.049421-0.06739 0.024711-0.13928 0.051668-0.07189 0.026957-0.13928 0.051668-0.02471 0.00899-0.04942-0.00225-0.02696-0.013479-0.03819-0.040436-9e-3 -0.024711 0.0045-0.049421 0.01123-0.026957 0.03819-0.038189 0.10109-0.035943 0.20892-0.076378 0.11008-0.040436 0.19993-0.074132 0.08986-0.033696 0.14826-0.05616 0.06065-0.022464 0.06065-0.022464 0.01123-0.00225 0.02022-0.00225 0.01123-0.00225 0.02246 0.00225 0.03145 0.00449 0.04493 0.035943 0.01123 0.017971 9e-3 0.047175 0 0.026957-0.01123 0.078625-0.0067 0.029204-0.01797 0.065146-9e-3 0.033696-0.02471 0.078625-0.0022 0.00899-0.0045 0.015725-0.0022 0.00674-0.0045 0.015725 0.08986-0.049421 0.22015-0.10334 0.02471-0.011232 0.04942 0 0.02471 0.00899 0.03594 0.033696 0.01348 0.024711 0.0022 0.051668-0.01123 0.026957-0.03594 0.038189-0.07638 0.033696-0.14152 0.065146-0.06515 0.03145-0.11232 0.05616-0.05616 0.029203-0.10109 0.053914-0.01348 0.011232-0.0337 0.011232z" opacity=".25"/>
  <path d="m7.6099 5.728q-0.01797 0-0.0337-0.00225-0.01348-0.00225-0.0292-0.00674-0.04044-0.011232-0.05616-0.047175-0.02022-0.044928 0-0.10783 0.02247-0.065146 0.07189-0.16623 9e-3 -0.017971 0.01797-0.040436 9e-3 -0.022464 0.02022-0.042682-0.0292 0.011232-0.0629 0.038189-0.03145 0.024711-0.06515 0.051668-0.02246 0.017971-0.04942 0.013478-0.0292-0.00449-0.04717-0.024711-0.01797-0.022464-0.01348-0.049421 0.0045-0.026957 0.02471-0.047175 0.03145-0.022464 0.06515-0.049421t0.07189-0.044928q0.0921-0.047175 0.16848-0.024711 0.03594 0.00674 0.05391 0.044928 0.01797 0.038189-0.0022 0.089857-0.01797 0.051668-0.0629 0.14602-0.01123 0.026957-0.02471 0.053914-0.01123 0.026957-0.02246 0.051668-0.0045 0.00899-0.0067 0.015725-0.0022 0.00674-0.0045 0.013479 0.02246-0.00225 0.05616-0.013479 0.03594-0.011232 0.08087-0.033696 0.04717-0.024711 0.10783-0.065146 0.06065-0.040436 0.13928-0.10109 0.06065-0.049421 0.11457-0.096596 0.05391-0.047175 0.09435-0.085364t0.06515-0.0629 0.02471-0.024711q0.02696-0.03145 0.06515-0.020218 0.01797 0.00449 0.0292 0.015725 0.01123 0.011232 0.01797 0.022464 0.01572 0.03145 0.0022 0.074132-0.01348 0.042682-0.04942 0.13254-0.01348 0.029203-0.02696 0.058407-0.01123 0.029203-0.02246 0.053914-0.0022 0.011232-0.0067 0.024711 0.03145-0.00449 0.06739-0.024711 0.03594-0.020218 0.07189-0.044928 0.03594-0.024711 0.06739-0.051668 0.03145-0.029203 0.05616-0.049421 0.02246-0.020218 0.04942-0.017971 0.02696 0.00225 0.04718 0.022464 0.01797 0.022464 0.01572 0.049421 0 0.026957-0.02247 0.047175-0.05167 0.047175-0.10558 0.089857-0.05391 0.040436-0.11008 0.071885-0.05391 0.029203-0.11007 0.042682-0.05616 0.011232-0.11008-0.00225-0.03594-0.013478-0.05167-0.044928-0.01348-0.03145-9e-3 -0.067393 0.0067-0.038189 0.02696-0.096596-0.02471 0.022464-0.05167 0.042682-0.02471 0.020218-0.05391 0.044928-0.31 0.24486-0.48298 0.24486z" opacity=".25"/>
  <path d="m8.8033 5.728q-0.01797 0-0.0337-0.00225-0.01348-0.00225-0.0292-0.00674-0.04044-0.011232-0.05616-0.047175-0.02022-0.044928 0-0.10783 0.02246-0.065146 0.07189-0.16623 9e-3 -0.017971 0.01797-0.040436 9e-3 -0.022464 0.02022-0.042682-0.0292 0.011232-0.0629 0.038189-0.03145 0.024711-0.06515 0.051668-0.02247 0.017971-0.04942 0.013478-0.0292-0.00449-0.04717-0.024711-0.01797-0.022464-0.01348-0.049421 0.0045-0.026957 0.02471-0.047175 0.03145-0.022464 0.06515-0.049421t0.07188-0.044928q0.0921-0.047175 0.16848-0.024711 0.03594 0.00674 0.05391 0.044928 0.01797 0.038189-0.0022 0.089857-0.01797 0.051668-0.0629 0.14602-0.01123 0.026957-0.02471 0.053914-0.01123 0.026957-0.02246 0.051668-0.0045 0.00899-0.0067 0.015725-0.0022 0.00674-0.0045 0.013479 0.02246-0.00225 0.05616-0.013479 0.03594-0.011232 0.08087-0.033696 0.04717-0.024711 0.10783-0.065146 0.06065-0.040436 0.13928-0.10109 0.06065-0.049421 0.11457-0.096596 0.05391-0.047175 0.09435-0.085364t0.06515-0.0629 0.02471-0.024711q0.02696-0.03145 0.06515-0.020218 0.01797 0.00449 0.0292 0.015725 0.01123 0.011232 0.01797 0.022464 0.01572 0.03145 0.0022 0.074132-0.01348 0.042682-0.04942 0.13254-0.01348 0.029203-0.02696 0.058407-0.01123 0.029203-0.02246 0.053914-0.0022 0.011232-0.0067 0.024711 0.03145-0.00449 0.06739-0.024711 0.03594-0.020218 0.07189-0.044928 0.03594-0.024711 0.06739-0.051668 0.03145-0.029203 0.05616-0.049421 0.02246-0.020218 0.04942-0.017971 0.02696 0.00225 0.04717 0.022464 0.01797 0.022464 0.01572 0.049421 0 0.026957-0.02246 0.047175-0.05167 0.047175-0.10558 0.089857-0.05391 0.040436-0.11007 0.071885-0.05391 0.029203-0.11008 0.042682-0.05616 0.011232-0.11007-0.00225-0.03594-0.013478-0.05167-0.044928-0.01348-0.03145-9e-3 -0.067393 0.0067-0.038189 0.02696-0.096596-0.02471 0.022464-0.05167 0.042682-0.02471 0.020218-0.05391 0.044928-0.31001 0.24486-0.48298 0.24486z" opacity=".25"/>
  <path d="m9.9967 5.728q-0.01797 0-0.0337-0.00225-0.01348-0.00225-0.0292-0.00674-0.04044-0.011232-0.05616-0.047175-0.02022-0.044928 0-0.10783 0.02246-0.065146 0.07189-0.16623 9e-3 -0.017971 0.01797-0.040436 9e-3 -0.022464 0.02022-0.042682-0.0292 0.011232-0.0629 0.038189-0.03145 0.024711-0.06515 0.051668-0.02246 0.017971-0.04942 0.013478-0.0292-0.00449-0.04717-0.024711-0.01797-0.022464-0.01348-0.049421 0.0045-0.026957 0.02471-0.047175 0.03145-0.022464 0.06515-0.049421t0.07189-0.044928q0.0921-0.047175 0.16848-0.024711 0.03594 0.00674 0.05391 0.044928 0.01797 0.038189-0.0022 0.089857-0.01797 0.051668-0.0629 0.14602-0.01123 0.026957-0.02471 0.053914-0.01123 0.026957-0.02246 0.051668-0.0045 0.00899-0.0067 0.015725-0.0022 0.00674-0.0045 0.013479 0.02246-0.00225 0.05616-0.013479 0.03594-0.011232 0.08087-0.033696 0.04717-0.024711 0.10783-0.065146 0.06065-0.040436 0.13928-0.10109 0.06065-0.049421 0.11457-0.096596 0.05391-0.047175 0.09435-0.085364t0.06515-0.0629 0.02471-0.024711q0.02696-0.03145 0.06515-0.020218 0.01797 0.00449 0.0292 0.015725 0.01123 0.011232 0.01797 0.022464 0.01572 0.03145 0.0022 0.074132-0.01348 0.042682-0.04942 0.13254-0.01348 0.029203-0.02696 0.058407-0.01123 0.029203-0.02246 0.053914-0.0022 0.011232-0.0067 0.024711 0.03145-0.00449 0.06739-0.024711 0.03594-0.020218 0.07189-0.044928 0.03594-0.024711 0.06739-0.051668 0.03145-0.029203 0.05616-0.049421 0.02246-0.020218 0.04942-0.017971 0.02696 0.00225 0.04717 0.022464 0.01797 0.022464 0.01572 0.049421 0 0.026957-0.02247 0.047175-0.05167 0.047175-0.10558 0.089857-0.05391 0.040436-0.11008 0.071885-0.05391 0.029203-0.11007 0.042682-0.05616 0.011232-0.11008-0.00225-0.03594-0.013478-0.05167-0.044928-0.01348-0.03145-9e-3 -0.067393 0.0067-0.038189 0.02696-0.096596-0.02471 0.022464-0.05167 0.042682-0.02471 0.020218-0.05391 0.044928-0.31 0.24486-0.48298 0.24486z" opacity=".25"/>
  <path d="m12.283 5.728q-0.01797 0-0.0337-0.00225-0.01348-0.00225-0.0292-0.00674-0.04044-0.011232-0.05616-0.047175-0.02022-0.044928 0-0.10783 0.02246-0.065146 0.07189-0.16623 9e-3 -0.017971 0.01797-0.040436 9e-3 -0.022464 0.02022-0.042682-0.0292 0.011232-0.0629 0.038189-0.03145 0.024711-0.06515 0.051668-0.02246 0.017971-0.04942 0.013478-0.0292-0.00449-0.04717-0.024711-0.01797-0.022464-0.01348-0.049421 0.0045-0.026957 0.02471-0.047175 0.03145-0.022464 0.06515-0.049421t0.07189-0.044928q0.0921-0.047175 0.16848-0.024711 0.03594 0.00674 0.05391 0.044928 0.01797 0.038189-0.0022 0.089857-0.01797 0.051668-0.0629 0.14602-0.01123 0.026957-0.02471 0.053914-0.01123 0.026957-0.02246 0.051668-0.0045 0.00899-0.0067 0.015725-0.0022 0.00674-0.0045 0.013479 0.02246-0.00225 0.05616-0.013479 0.03594-0.011232 0.08087-0.033696 0.04717-0.024711 0.10783-0.065146 0.06065-0.040436 0.13928-0.10109 0.06065-0.049421 0.11457-0.096596 0.05391-0.047175 0.09435-0.085364t0.06515-0.0629 0.02471-0.024711q0.02696-0.03145 0.06515-0.020218 0.01797 0.00449 0.0292 0.015725 0.01123 0.011232 0.01797 0.022464 0.01572 0.03145 0.0022 0.074132-0.01348 0.042682-0.04942 0.13254-0.01348 0.029203-0.02696 0.058407-0.01123 0.029203-0.02246 0.053914-0.0022 0.011232-0.0067 0.024711 0.03145-0.00449 0.06739-0.024711 0.03594-0.020218 0.07189-0.044928 0.03594-0.024711 0.06739-0.051668 0.03145-0.029203 0.05616-0.049421 0.02246-0.020218 0.04942-0.017971 0.02696 0.00225 0.04718 0.022464 0.01797 0.022464 0.01572 0.049421 0 0.026957-0.02246 0.047175-0.05167 0.047175-0.10558 0.089857-0.05391 0.040436-0.11008 0.071885-0.05391 0.029203-0.11007 0.042682-0.05616 0.011232-0.11008-0.00225-0.03594-0.013478-0.05167-0.044928-0.01348-0.03145-9e-3 -0.067393 0.0067-0.038189 0.02696-0.096596-0.02471 0.022464-0.05167 0.042682-0.02471 0.020218-0.05391 0.044928-0.31 0.24486-0.48298 0.24486z" opacity=".25"/>
  <path d="m13.579 5.7325q-0.01123 0-0.02246-0.00225-0.01123 0-0.02471-0.00225-0.02696-0.00899-0.04493-0.038189-0.0067-0.013478-9e-3 -0.03145-0.0022-0.020218 0.0045-0.058407 9e-3 -0.038189 0.02696-0.10334 0.02022-0.067393 0.05391-0.17297-0.05167 0.017971-0.11457 0.042682-0.0629 0.024711-0.13029 0.049421-0.02471 0.00899-0.04942-0.00225-0.02696-0.013479-0.03819-0.040436-9e-3 -0.024711 0.0045-0.049421 0.01123-0.026957 0.03819-0.038189 0.07189-0.026957 0.13928-0.051668 0.06739-0.024711 0.11906-0.042682 0.05167-0.020218 0.08312-0.03145 0.03145-0.013478 0.03145-0.013478 0.02246-0.00899 0.04268-0.00225 0.0292 0.00674 0.04268 0.033696 0.01123 0.020218 0.0067 0.035943-0.0022 0.015725-0.0067 0.033696-0.0045 0.00899-0.0067 0.020218-0.0022 0.00899-0.0067 0.022464-0.01572 0.038189-0.0337 0.09435-0.01572 0.053914-0.0337 0.11007-0.01123 0.03145-0.01797 0.053914-0.0067 0.022464-0.01123 0.040436 0.04268-0.00899 0.12355-0.051668 0.06964-0.038189 0.14826-0.08761 0.07862-0.049421 0.16399-0.10783 0.01797-0.011232 0.03594-0.022464t0.03594-0.024711q0.02471-0.015725 0.05167-0.00899 0.02696 0.00449 0.04493 0.029203 0.01572 0.024711 9e-3 0.051668-0.0045 0.024711-0.0292 0.040436-0.01797 0.013478-0.03819 0.026957-0.01797 0.011232-0.03819 0.024711-0.08536 0.05616-0.16624 0.10783-0.08087 0.051668-0.15276 0.089857-0.14602 0.076378-0.23138 0.076378z" opacity=".25"/>
 </g>
 <g fill="#fff">
  <path d="m5.4398 7.9929q-0.01797 0-0.0337-0.00225-0.01348-0.00225-0.0292-0.00674-0.04044-0.011232-0.05616-0.047175-0.02022-0.044928 0-0.10783 0.02246-0.065146 0.07189-0.16623 9e-3 -0.017971 0.01797-0.040436 9e-3 -0.022464 0.02022-0.042682-0.0292 0.011232-0.0629 0.038189-0.03145 0.024711-0.06515 0.051668-0.02246 0.017971-0.04942 0.013478-0.0292-0.00449-0.04717-0.024711-0.01797-0.022464-0.01348-0.049421 0.0045-0.026957 0.02471-0.047175 0.03145-0.022464 0.06515-0.049421t0.07189-0.044928q0.0921-0.047175 0.16848-0.024711 0.03594 0.00674 0.05391 0.044928 0.01797 0.038189-0.0022 0.089857-0.01797 0.051668-0.0629 0.14602-0.01123 0.026957-0.02471 0.053914-0.01123 0.026957-0.02246 0.051668-0.0045 0.00899-0.0067 0.015725-0.0022 0.00674-0.0045 0.013478 0.02246-0.00225 0.05616-0.013478 0.03594-0.011232 0.08087-0.033696 0.04717-0.024711 0.10783-0.065146 0.06065-0.040436 0.13928-0.10109 0.06065-0.049421 0.11457-0.096596 0.05391-0.047175 0.09435-0.085364t0.06515-0.0629 0.02471-0.024711q0.02696-0.03145 0.06515-0.020218 0.01797 0.00449 0.0292 0.015725 0.01123 0.011232 0.01797 0.022464 0.01572 0.03145 0.0022 0.074132-0.01348 0.042682-0.04942 0.13254-0.01348 0.029203-0.02696 0.058407-0.01123 0.029203-0.02246 0.053914-0.0022 0.011232-0.0067 0.024711 0.03145-0.00449 0.06739-0.024711 0.03594-0.020218 0.07189-0.044928 0.03594-0.024711 0.06739-0.051668 0.03145-0.029203 0.05616-0.049421 0.02246-0.020218 0.04942-0.017971 0.02696 0.00225 0.04717 0.022464 0.01797 0.022464 0.01572 0.049421 0 0.026957-0.02246 0.047175-0.05167 0.047175-0.10558 0.089857-0.05391 0.040436-0.11008 0.071885-0.05391 0.029203-0.11007 0.042682-0.05616 0.011232-0.11008-0.00225-0.03594-0.013478-0.05167-0.044928-0.01348-0.03145-9e-3 -0.067393 0.0067-0.038189 0.02696-0.096596-0.02471 0.022464-0.05167 0.042682-0.02471 0.020218-0.05391 0.044928-0.31 0.24486-0.48298 0.24486z" opacity=".25"/>
  <path d="m6.6333 7.9929q-0.01797 0-0.0337-0.00225-0.01348-0.00225-0.0292-0.00674-0.04043-0.011232-0.05616-0.047175-0.02022-0.044928 0-0.10783 0.02246-0.065146 0.07189-0.16623 9e-3 -0.017971 0.01797-0.040436 9e-3 -0.022464 0.02022-0.042682-0.0292 0.011232-0.0629 0.038189-0.03145 0.024711-0.06515 0.051668-0.02247 0.017971-0.04942 0.013478-0.0292-0.00449-0.04717-0.024711-0.01797-0.022464-0.01348-0.049421 0.0045-0.026957 0.02471-0.047175 0.03145-0.022464 0.06515-0.049421t0.07188-0.044928q0.0921-0.047175 0.16848-0.024711 0.03594 0.00674 0.05391 0.044928 0.01797 0.038189-0.0022 0.089857-0.01797 0.051668-0.0629 0.14602-0.01123 0.026957-0.02471 0.053914-0.01123 0.026957-0.02246 0.051668-0.0045 0.00899-0.0067 0.015725-0.0022 0.00674-0.0045 0.013478 0.02246-0.00225 0.05616-0.013478 0.03594-0.011232 0.08087-0.033696 0.04717-0.024711 0.10783-0.065146 0.06065-0.040436 0.13928-0.10109 0.06065-0.049421 0.11457-0.096596 0.05391-0.047175 0.09435-0.085364 0.04043-0.038189 0.06515-0.0629 0.02471-0.024711 0.02471-0.024711 0.02696-0.03145 0.06515-0.020218 0.01797 0.00449 0.0292 0.015725 0.01123 0.011232 0.01797 0.022464 0.01572 0.03145 0.0022 0.074132-0.01348 0.042682-0.04942 0.13254-0.01348 0.029203-0.02696 0.058407-0.01123 0.029203-0.02246 0.053914-0.0022 0.011232-0.0067 0.024711 0.03145-0.00449 0.06739-0.024711 0.03594-0.020218 0.07188-0.044928 0.03594-0.024711 0.06739-0.051668 0.03145-0.029203 0.05616-0.049421 0.02246-0.020218 0.04942-0.017971 0.02696 0.00225 0.04718 0.022464 0.01797 0.022464 0.01572 0.049421 0 0.026957-0.02246 0.047175-0.05167 0.047175-0.10558 0.089857-0.05391 0.040436-0.11007 0.071885-0.05391 0.029203-0.11008 0.042682-0.05616 0.011232-0.11007-0.00225-0.03594-0.013478-0.05167-0.044928-0.01348-0.03145-9e-3 -0.067393 0.0067-0.038189 0.02696-0.096596-0.02471 0.022464-0.05167 0.042682-0.02471 0.020218-0.05391 0.044928-0.31001 0.24486-0.48298 0.24486z" opacity=".25"/>
  <path d="m7.9457 7.7975q-0.01123 0-0.01797-0.00225-0.03594-0.00899-0.05167-0.026957-0.01348-0.020218-0.01797-0.03145-0.01797-0.049421 9e-3 -0.10109 0.0292-0.053914 0.07189-0.11232 0.01348-0.017971 0.02471-0.038189t0.02246-0.038189q0.0022-0.00225 0.0067-0.00899-0.01348 0.00449-0.0337 0.013478-0.01797 0.00899-0.04268 0.026957-0.04043 0.024711-0.08536 0.065146-0.04493 0.038189-0.0921 0.080871-0.01123 0.011232-0.02471 0.022464-0.01123 0.00899-0.02247 0.020218-0.02022 0.017971-0.04717 0.017971-0.0292-0.00225-0.04717-0.02471-0.02022-0.020218-0.01797-0.047175 0.0022-0.029203 0.02246-0.047175 0.01123-0.011232 0.02471-0.020218 0.01123-0.011232 0.02247-0.022464 0.05391-0.049421 0.10558-0.092103 0.05391-0.044928 0.10334-0.076378 0.05167-0.03145 0.10109-0.044928 0.05167-0.015725 0.09884-0.00225 0.03819 0.011232 0.05391 0.03145t0.02022 0.035943q0.02022 0.051668-9e-3 0.10558-0.0292 0.053914-0.07413 0.11906-0.0045 0.00449-0.01123 0.015725-0.0045 0.00899-0.01123 0.017971 0.0337-0.013478 0.08536-0.03145 0.05391-0.020218 0.13254-0.051668 0.0292-0.00899 0.05391 0.00449 0.02471 0.011232 0.0337 0.038189 0.01123 0.024711-0.0022 0.051668-0.01123 0.024711-0.03594 0.035943-0.07189 0.024711-0.13029 0.044928-0.05841 0.020218-0.09884 0.035943-0.02246 0.00899-0.04044 0.015725-0.01572 0.00449-0.0292 0.00899-0.01797 0.00449-0.0292 0.00899-9e-3 0.00225-0.02022 0.00225z" opacity=".25"/>
  <path d="m8.4453 7.9929q-0.01797 0-0.0337-0.00225-0.01348-0.00225-0.0292-0.00674-0.04043-0.011232-0.05616-0.047175-0.02022-0.044928 0-0.10783 0.02246-0.065146 0.07188-0.16623 9e-3 -0.017971 0.01797-0.040436 9e-3 -0.022464 0.02022-0.042682-0.0292 0.011232-0.0629 0.038189-0.03145 0.024711-0.06515 0.051668-0.02246 0.017971-0.04942 0.013478-0.0292-0.00449-0.04717-0.024711-0.01797-0.022464-0.01348-0.049421 0.0045-0.026957 0.02471-0.047175 0.03145-0.022464 0.06515-0.049421t0.07189-0.044928q0.0921-0.047175 0.16848-0.024711 0.03594 0.00674 0.05391 0.044928 0.01797 0.038189-0.0022 0.089857-0.01797 0.051668-0.0629 0.14602-0.01123 0.026957-0.02471 0.053914-0.01123 0.026957-0.02246 0.051668-0.0045 0.00899-0.0067 0.015725-0.0022 0.00674-0.0045 0.013478 0.02246-0.00225 0.05616-0.013478 0.03594-0.011232 0.08087-0.033696 0.04717-0.024711 0.10783-0.065146 0.06065-0.040436 0.13928-0.10109 0.06065-0.049421 0.11457-0.096596 0.05391-0.047175 0.09435-0.085364 0.04043-0.038189 0.06515-0.0629 0.02471-0.024711 0.02471-0.024711 0.02696-0.03145 0.06515-0.020218 0.01797 0.00449 0.0292 0.015725 0.01123 0.011232 0.01797 0.022464 0.01572 0.03145 0.0022 0.074132-0.01348 0.042682-0.04942 0.13254-0.01348 0.029203-0.02696 0.058407-0.01123 0.029203-0.02247 0.053914-0.0022 0.011232-0.0067 0.024711 0.03145-0.00449 0.06739-0.024711 0.03594-0.020218 0.07188-0.044928 0.03594-0.024711 0.06739-0.051668 0.03145-0.029203 0.05616-0.049421 0.02246-0.020218 0.04942-0.017971 0.02696 0.00225 0.04717 0.022464 0.01797 0.022464 0.01572 0.049421 0 0.026957-0.02246 0.047175-0.05167 0.047175-0.10558 0.089857-0.05391 0.040436-0.11007 0.071885-0.05391 0.029203-0.11008 0.042682-0.05616 0.011232-0.11007-0.00225-0.03594-0.013478-0.05167-0.044928-0.01348-0.03145-9e-3 -0.067393 0.0067-0.038189 0.02696-0.096596-0.02471 0.022464-0.05167 0.042682-0.02471 0.020218-0.05391 0.044928-0.31001 0.24486-0.48298 0.24486z" opacity=".25"/>
  <path d="m9.9712 7.8648q-0.02696 0-0.04493-0.015725-0.03594-0.029203-0.02022-0.074132 0-0.00225 0.01572-0.053914 0.01797-0.051668 0.04044-0.11681 0.01123-0.038189 0.02022-0.065146 9e-3 -0.029203 0.01573-0.051668-0.04717 0.017971-0.10783 0.040436-0.06065 0.022464-0.13029 0.049421-0.06739 0.024711-0.13928 0.051668-0.07188 0.026957-0.13928 0.051668-0.02471 0.00899-0.04942-0.00225-0.02696-0.013478-0.03819-0.040435-9e-3 -0.024711 0.0045-0.049421 0.01123-0.026957 0.03819-0.038189 0.10109-0.035943 0.20892-0.076378 0.11007-0.040436 0.19993-0.074132 0.08986-0.033696 0.14826-0.056161 0.06065-0.022464 0.06065-0.022464 0.01123-0.00225 0.02022-0.00225 0.01123-0.00225 0.02246 0.00225 0.03145 0.00449 0.04493 0.035943 0.01123 0.017971 9e-3 0.047175 0 0.026957-0.01123 0.078625-0.0067 0.029204-0.01797 0.065146-9e-3 0.033696-0.02471 0.078625-0.0022 0.00899-0.0045 0.015725-0.0022 0.00674-0.0045 0.015725 0.08986-0.049421 0.22015-0.10334 0.02471-0.011232 0.04942 0 0.02471 0.00899 0.03594 0.033696 0.01348 0.024711 0.0022 0.051668-0.01123 0.026957-0.03594 0.038189-0.07638 0.033696-0.14152 0.065146-0.06515 0.03145-0.11232 0.056161-0.05616 0.029203-0.10109 0.053914-0.01348 0.011232-0.0337 0.011232z" opacity=".25"/>
  <path d="m11.121 7.8424q-0.01572 0-0.0292-0.00449-0.04268-0.00899-0.06065-0.051668-0.01348-0.038189 0.0067-0.085364 0.02022-0.047175 0.05841-0.10558 0.01348-0.020218 0.02471-0.040435 0.01348-0.022464 0.02247-0.040436 0.0067-0.00899 0.01123-0.022464-0.06739-0.011232-0.15725-0.00449-0.08761 0.00449-0.19768 0.033696-0.09884 0.024711-0.20892 0.065146-0.11008 0.038189-0.23363 0.092103-0.02471 0.011232-0.04942 0.00225-0.02471-0.011232-0.03594-0.035943-0.01348-0.024711-0.0022-0.051668 0.01123-0.026957 0.03594-0.038189 0.12805-0.05616 0.24037-0.096596 0.11457-0.042682 0.22015-0.067393 0.27631-0.069639 0.45153-0.022464 0.05167 0.013478 0.07189 0.0629 0.02022 0.051668-9e-3 0.11232-0.0292 0.058407-0.06964 0.12355-0.0045 0.00449-9e-3 0.011232-0.0022 0.00674-0.0067 0.015725 0.05167-0.011232 0.15051-0.044928 0.10109-0.033696 0.2808-0.098842 0.02471-0.00899 0.04942 0.00449 0.02696 0.011232 0.03594 0.038189 0.01123 0.024711 0 0.051668-0.01123 0.024711-0.04043 0.035943-0.10334 0.035943-0.1887 0.065146-0.08536 0.029203-0.15276 0.049421-0.0921 0.026957-0.13928 0.038189-0.04493 0.00899-0.06964 0.00899z" opacity=".25"/>
  <path d="m12.169 7.8648q-0.02696 0-0.04493-0.015725-0.03594-0.029203-0.02022-0.074132 0-0.00225 0.01572-0.053914 0.01797-0.051668 0.04044-0.11681 0.01123-0.038189 0.02022-0.065146 9e-3 -0.029203 0.01572-0.051668-0.04717 0.017971-0.10783 0.040436-0.06065 0.022464-0.13029 0.049421-0.06739 0.024711-0.13928 0.051668-0.07188 0.026957-0.13928 0.051668-0.02471 0.00899-0.04942-0.00225-0.02696-0.013478-0.03819-0.040435-9e-3 -0.024711 0.0045-0.049421 0.01123-0.026957 0.03819-0.038189 0.10109-0.035943 0.20892-0.076378 0.11007-0.040436 0.19993-0.074132 0.08986-0.033696 0.14826-0.056161 0.06065-0.022464 0.06065-0.022464 0.01123-0.00225 0.02022-0.00225 0.01123-0.00225 0.02246 0.00225 0.03145 0.00449 0.04493 0.035943 0.01123 0.017971 9e-3 0.047175 0 0.026957-0.01123 0.078625-0.0067 0.029204-0.01797 0.065146-9e-3 0.033696-0.02471 0.078625-0.0022 0.00899-0.0045 0.015725-0.0022 0.00674-0.0045 0.015725 0.08986-0.049421 0.22015-0.10334 0.02471-0.011232 0.04942 0 0.02471 0.00899 0.03594 0.033696 0.01348 0.024711 0.0022 0.051668-0.01123 0.026957-0.03594 0.038189-0.07638 0.033696-0.14152 0.065146-0.06515 0.03145-0.11232 0.056161-0.05616 0.029203-0.10109 0.053914-0.01348 0.011232-0.0337 0.011232z" opacity=".25"/>
  <path d="m13.042 7.8648q-0.02696 0-0.04493-0.015725-0.03594-0.029203-0.02022-0.074132 0-0.00225 0.01572-0.053914 0.01797-0.051668 0.04043-0.11681 0.01123-0.038189 0.02022-0.065146 9e-3 -0.029203 0.01573-0.051668-0.04718 0.017971-0.10783 0.040436-0.06065 0.022464-0.13029 0.049421-0.06739 0.024711-0.13928 0.051668-0.07189 0.026957-0.13928 0.051668-0.02471 0.00899-0.04942-0.00225-0.02696-0.013478-0.03819-0.040435-9e-3 -0.024711 0.0045-0.049421 0.01123-0.026957 0.03819-0.038189 0.10109-0.035943 0.20892-0.076378 0.11008-0.040436 0.19993-0.074132 0.08986-0.033696 0.14826-0.056161 0.06065-0.022464 0.06065-0.022464 0.01123-0.00225 0.02022-0.00225 0.01123-0.00225 0.02246 0.00225 0.03145 0.00449 0.04493 0.035943 0.01123 0.017971 9e-3 0.047175 0 0.026957-0.01123 0.078625-0.0067 0.029204-0.01797 0.065146-9e-3 0.033696-0.02471 0.078625-0.0022 0.00899-0.0045 0.015725-0.0022 0.00674-0.0045 0.015725 0.08986-0.049421 0.22015-0.10334 0.02471-0.011232 0.04942 0 0.02471 0.00899 0.03594 0.033696 0.01348 0.024711 0.0022 0.051668-0.01123 0.026957-0.03594 0.038189-0.07638 0.033696-0.14152 0.065146-0.06515 0.03145-0.11232 0.056161-0.05616 0.029203-0.10109 0.053914-0.01348 0.011232-0.0337 0.011232z" opacity=".25"/>
 </g>
 <g fill="#333">
  <path d="m5.4398 7.8431q-0.01797 0-0.0337-0.00225-0.01348-0.00225-0.0292-0.00674-0.04044-0.011232-0.05616-0.047175-0.02022-0.044928 0-0.10783 0.02246-0.065146 0.07189-0.16623 9e-3 -0.017971 0.01797-0.040436 9e-3 -0.022464 0.02022-0.042682-0.0292 0.011232-0.0629 0.038189-0.03145 0.024711-0.06515 0.051668-0.02246 0.017971-0.04942 0.013478-0.0292-0.00449-0.04717-0.024711-0.01797-0.022464-0.01348-0.049421 0.0045-0.026957 0.02471-0.047175 0.03145-0.022464 0.06515-0.049421t0.07189-0.044928q0.0921-0.047175 0.16848-0.024711 0.03594 0.00674 0.05391 0.044928 0.01797 0.038189-0.0022 0.089857-0.01797 0.051668-0.0629 0.14602-0.01123 0.026957-0.02471 0.053914-0.01123 0.026957-0.02246 0.051668-0.0045 0.00899-0.0067 0.015725-0.0022 0.00674-0.0045 0.013478 0.02246-0.00225 0.05616-0.013478 0.03594-0.011232 0.08087-0.033696 0.04717-0.024711 0.10783-0.065146 0.06065-0.040435 0.13928-0.10109 0.06065-0.049421 0.11457-0.096596 0.05391-0.047175 0.09435-0.085364t0.06515-0.0629 0.02471-0.024711q0.02696-0.03145 0.06515-0.020218 0.01797 0.00449 0.0292 0.015725 0.01123 0.011232 0.01797 0.022464 0.01572 0.03145 0.0022 0.074132-0.01348 0.042682-0.04942 0.13254-0.01348 0.029203-0.02696 0.058407-0.01123 0.029203-0.02246 0.053914-0.0022 0.011232-0.0067 0.024711 0.03145-0.00449 0.06739-0.024711 0.03594-0.020218 0.07189-0.044928 0.03594-0.024711 0.06739-0.051668 0.03145-0.029203 0.05616-0.049421 0.02246-0.020218 0.04942-0.017971 0.02696 0.00225 0.04717 0.022464 0.01797 0.022464 0.01572 0.049421 0 0.026957-0.02246 0.047175-0.05167 0.047175-0.10558 0.089857-0.05391 0.040435-0.11008 0.071885-0.05391 0.029203-0.11007 0.042682-0.05616 0.011232-0.11008-0.00225-0.03594-0.013479-0.05167-0.044928-0.01348-0.03145-9e-3 -0.067393 0.0067-0.038189 0.02696-0.096596-0.02471 0.022464-0.05167 0.042682-0.02471 0.020218-0.05391 0.044928-0.31 0.24486-0.48298 0.24486z" opacity=".25"/>
  <path d="m6.6333 7.8431q-0.01797 0-0.0337-0.00225-0.01348-0.00225-0.0292-0.00674-0.04043-0.011232-0.05616-0.047175-0.02022-0.044928 0-0.10783 0.02246-0.065146 0.07189-0.16623 9e-3 -0.017971 0.01797-0.040436 9e-3 -0.022464 0.02022-0.042682-0.0292 0.011232-0.0629 0.038189-0.03145 0.024711-0.06515 0.051668-0.02247 0.017971-0.04942 0.013478-0.0292-0.00449-0.04717-0.024711-0.01797-0.022464-0.01348-0.049421 0.0045-0.026957 0.02471-0.047175 0.03145-0.022464 0.06515-0.049421t0.07188-0.044928q0.0921-0.047175 0.16848-0.024711 0.03594 0.00674 0.05391 0.044928 0.01797 0.038189-0.0022 0.089857-0.01797 0.051668-0.0629 0.14602-0.01123 0.026957-0.02471 0.053914-0.01123 0.026957-0.02246 0.051668-0.0045 0.00899-0.0067 0.015725-0.0022 0.00674-0.0045 0.013478 0.02246-0.00225 0.05616-0.013478 0.03594-0.011232 0.08087-0.033696 0.04717-0.024711 0.10783-0.065146 0.06065-0.040435 0.13928-0.10109 0.06065-0.049421 0.11457-0.096596 0.05391-0.047175 0.09435-0.085364 0.04043-0.038189 0.06515-0.0629 0.02471-0.024711 0.02471-0.024711 0.02696-0.03145 0.06515-0.020218 0.01797 0.00449 0.0292 0.015725 0.01123 0.011232 0.01797 0.022464 0.01572 0.03145 0.0022 0.074132-0.01348 0.042682-0.04942 0.13254-0.01348 0.029203-0.02696 0.058407-0.01123 0.029203-0.02246 0.053914-0.0022 0.011232-0.0067 0.024711 0.03145-0.00449 0.06739-0.024711 0.03594-0.020218 0.07188-0.044928 0.03594-0.024711 0.06739-0.051668 0.03145-0.029203 0.05616-0.049421 0.02246-0.020218 0.04942-0.017971 0.02696 0.00225 0.04718 0.022464 0.01797 0.022464 0.01572 0.049421 0 0.026957-0.02246 0.047175-0.05167 0.047175-0.10558 0.089857-0.05391 0.040435-0.11007 0.071885-0.05391 0.029203-0.11008 0.042682-0.05616 0.011232-0.11007-0.00225-0.03594-0.013479-0.05167-0.044928-0.01348-0.03145-9e-3 -0.067393 0.0067-0.038189 0.02696-0.096596-0.02471 0.022464-0.05167 0.042682-0.02471 0.020218-0.05391 0.044928-0.31001 0.24486-0.48298 0.24486z" opacity=".25"/>
  <path d="m7.9457 7.6477q-0.01123 0-0.01797-0.00225-0.03594-0.00899-0.05167-0.026957-0.01348-0.020218-0.01797-0.03145-0.01797-0.049421 9e-3 -0.10109 0.0292-0.053914 0.07189-0.11232 0.01348-0.017971 0.02471-0.038189t0.02246-0.038189q0.0022-0.00225 0.0067-0.00899-0.01348 0.00449-0.0337 0.013478-0.01797 0.00899-0.04268 0.026957-0.04043 0.024711-0.08536 0.065146-0.04493 0.038189-0.0921 0.080871-0.01123 0.011232-0.02471 0.022464-0.01123 0.00899-0.02247 0.020218-0.02022 0.017971-0.04717 0.017971-0.0292-0.00225-0.04717-0.02471-0.02022-0.020218-0.01797-0.047175 0.0022-0.029203 0.02246-0.047175 0.01123-0.011232 0.02471-0.020218 0.01123-0.011232 0.02247-0.022464 0.05391-0.049421 0.10558-0.092103 0.05391-0.044928 0.10334-0.076378 0.05167-0.03145 0.10109-0.044928 0.05167-0.015725 0.09884-0.00225 0.03819 0.011232 0.05391 0.03145t0.02022 0.035943q0.02022 0.051668-9e-3 0.10558-0.0292 0.053914-0.07413 0.11906-0.0045 0.00449-0.01123 0.015725-0.0045 0.00899-0.01123 0.017971 0.0337-0.013478 0.08536-0.03145 0.05391-0.020218 0.13254-0.051668 0.0292-0.00899 0.05391 0.00449 0.02471 0.011232 0.0337 0.038189 0.01123 0.024711-0.0022 0.051668-0.01123 0.024711-0.03594 0.035943-0.07189 0.024711-0.13029 0.044928-0.05841 0.020218-0.09884 0.035943-0.02246 0.00899-0.04044 0.015725-0.01572 0.00449-0.0292 0.00899-0.01797 0.00449-0.0292 0.00899-9e-3 0.00225-0.02022 0.00225z" opacity=".25"/>
  <path d="m8.4453 7.8431q-0.01797 0-0.0337-0.00225-0.01348-0.00225-0.0292-0.00674-0.04043-0.011232-0.05616-0.047175-0.02022-0.044928 0-0.10783 0.02246-0.065146 0.07188-0.16623 9e-3 -0.017971 0.01797-0.040436 9e-3 -0.022464 0.02022-0.042682-0.0292 0.011232-0.0629 0.038189-0.03145 0.024711-0.06515 0.051668-0.02246 0.017971-0.04942 0.013478-0.0292-0.00449-0.04717-0.024711-0.01797-0.022464-0.01348-0.049421 0.0045-0.026957 0.02471-0.047175 0.03145-0.022464 0.06515-0.049421t0.07189-0.044928q0.0921-0.047175 0.16848-0.024711 0.03594 0.00674 0.05391 0.044928 0.01797 0.038189-0.0022 0.089857-0.01797 0.051668-0.0629 0.14602-0.01123 0.026957-0.02471 0.053914-0.01123 0.026957-0.02246 0.051668-0.0045 0.00899-0.0067 0.015725-0.0022 0.00674-0.0045 0.013478 0.02246-0.00225 0.05616-0.013478 0.03594-0.011232 0.08087-0.033696 0.04717-0.024711 0.10783-0.065146 0.06065-0.040435 0.13928-0.10109 0.06065-0.049421 0.11457-0.096596 0.05391-0.047175 0.09435-0.085364 0.04043-0.038189 0.06515-0.0629 0.02471-0.024711 0.02471-0.024711 0.02696-0.03145 0.06515-0.020218 0.01797 0.00449 0.0292 0.015725 0.01123 0.011232 0.01797 0.022464 0.01572 0.03145 0.0022 0.074132-0.01348 0.042682-0.04942 0.13254-0.01348 0.029203-0.02696 0.058407-0.01123 0.029203-0.02247 0.053914-0.0022 0.011232-0.0067 0.024711 0.03145-0.00449 0.06739-0.024711 0.03594-0.020218 0.07188-0.044928 0.03594-0.024711 0.06739-0.051668 0.03145-0.029203 0.05616-0.049421 0.02246-0.020218 0.04942-0.017971 0.02696 0.00225 0.04717 0.022464 0.01797 0.022464 0.01572 0.049421 0 0.026957-0.02246 0.047175-0.05167 0.047175-0.10558 0.089857-0.05391 0.040435-0.11007 0.071885-0.05391 0.029203-0.11008 0.042682-0.05616 0.011232-0.11007-0.00225-0.03594-0.013479-0.05167-0.044928-0.01348-0.03145-9e-3 -0.067393 0.0067-0.038189 0.02696-0.096596-0.02471 0.022464-0.05167 0.042682-0.02471 0.020218-0.05391 0.044928-0.31001 0.24486-0.48298 0.24486z" opacity=".25"/>
  <path d="m9.9712 7.7151q-0.02696 0-0.04493-0.015725-0.03594-0.029203-0.02022-0.074132 0-0.00225 0.01572-0.053914 0.01797-0.051668 0.04044-0.11681 0.01123-0.038189 0.02022-0.065146 9e-3 -0.029203 0.01573-0.051668-0.04717 0.017971-0.10783 0.040436-0.06065 0.022464-0.13029 0.049421-0.06739 0.024711-0.13928 0.051668-0.07188 0.026957-0.13928 0.051668-0.02471 0.00899-0.04942-0.00225-0.02696-0.013478-0.03819-0.040435-9e-3 -0.024711 0.0045-0.049421 0.01123-0.026957 0.03819-0.038189 0.10109-0.035943 0.20892-0.076378 0.11007-0.040436 0.19993-0.074132 0.08986-0.033696 0.14826-0.05616 0.06065-0.022464 0.06065-0.022464 0.01123-0.00225 0.02022-0.00225 0.01123-0.00225 0.02246 0.00225 0.03145 0.00449 0.04493 0.035943 0.01123 0.017971 9e-3 0.047175 0 0.026957-0.01123 0.078625-0.0067 0.029203-0.01797 0.065146-9e-3 0.033696-0.02471 0.078625-0.0022 0.00899-0.0045 0.015725-0.0022 0.00674-0.0045 0.015725 0.08986-0.049421 0.22015-0.10334 0.02471-0.011232 0.04942 0 0.02471 0.00899 0.03594 0.033696 0.01348 0.024711 0.0022 0.051668-0.01123 0.026957-0.03594 0.038189-0.07638 0.033696-0.14152 0.065146-0.06515 0.03145-0.11232 0.05616-0.05616 0.029203-0.10109 0.053914-0.01348 0.011232-0.0337 0.011232z" opacity=".25"/>
  <path d="m11.121 7.6926q-0.01572 0-0.0292-0.00449-0.04268-0.00899-0.06065-0.051668-0.01348-0.038189 0.0067-0.085364 0.02022-0.047175 0.05841-0.10558 0.01348-0.020218 0.02471-0.040435 0.01348-0.022464 0.02247-0.040435 0.0067-0.00899 0.01123-0.022464-0.06739-0.011232-0.15725-0.00449-0.08761 0.00449-0.19768 0.033696-0.09884 0.024711-0.20892 0.065146-0.11008 0.038189-0.23363 0.092103-0.02471 0.011232-0.04942 0.00225-0.02471-0.011232-0.03594-0.035943-0.01348-0.024711-0.0022-0.051668 0.01123-0.026957 0.03594-0.038189 0.12805-0.05616 0.24037-0.096596 0.11457-0.042682 0.22015-0.067393 0.27631-0.069639 0.45153-0.022464 0.05167 0.013478 0.07189 0.0629 0.02022 0.051668-9e-3 0.11232-0.0292 0.058407-0.06964 0.12355-0.0045 0.00449-9e-3 0.011232-0.0022 0.00674-0.0067 0.015725 0.05167-0.011232 0.15051-0.044928 0.10109-0.033696 0.2808-0.098842 0.02471-0.00899 0.04942 0.00449 0.02696 0.011232 0.03594 0.038189 0.01123 0.024711 0 0.051668-0.01123 0.024711-0.04043 0.035943-0.10334 0.035943-0.1887 0.065146-0.08536 0.029203-0.15276 0.049421-0.0921 0.026957-0.13928 0.038189-0.04493 0.00899-0.06964 0.00899z" opacity=".25"/>
  <path d="m12.169 7.7151q-0.02696 0-0.04493-0.015725-0.03594-0.029203-0.02022-0.074132 0-0.00225 0.01572-0.053914 0.01797-0.051668 0.04044-0.11681 0.01123-0.038189 0.02022-0.065146 9e-3 -0.029203 0.01572-0.051668-0.04717 0.017971-0.10783 0.040436-0.06065 0.022464-0.13029 0.049421-0.06739 0.024711-0.13928 0.051668-0.07188 0.026957-0.13928 0.051668-0.02471 0.00899-0.04942-0.00225-0.02696-0.013478-0.03819-0.040435-9e-3 -0.024711 0.0045-0.049421 0.01123-0.026957 0.03819-0.038189 0.10109-0.035943 0.20892-0.076378 0.11007-0.040436 0.19993-0.074132 0.08986-0.033696 0.14826-0.05616 0.06065-0.022464 0.06065-0.022464 0.01123-0.00225 0.02022-0.00225 0.01123-0.00225 0.02246 0.00225 0.03145 0.00449 0.04493 0.035943 0.01123 0.017971 9e-3 0.047175 0 0.026957-0.01123 0.078625-0.0067 0.029203-0.01797 0.065146-9e-3 0.033696-0.02471 0.078625-0.0022 0.00899-0.0045 0.015725-0.0022 0.00674-0.0045 0.015725 0.08986-0.049421 0.22015-0.10334 0.02471-0.011232 0.04942 0 0.02471 0.00899 0.03594 0.033696 0.01348 0.024711 0.0022 0.051668-0.01123 0.026957-0.03594 0.038189-0.07638 0.033696-0.14152 0.065146-0.06515 0.03145-0.11232 0.05616-0.05616 0.029203-0.10109 0.053914-0.01348 0.011232-0.0337 0.011232z" opacity=".25"/>
  <path d="m13.042 7.7151q-0.02696 0-0.04493-0.015725-0.03594-0.029203-0.02022-0.074132 0-0.00225 0.01572-0.053914 0.01797-0.051668 0.04043-0.11681 0.01123-0.038189 0.02022-0.065146 9e-3 -0.029203 0.01573-0.051668-0.04718 0.017971-0.10783 0.040436-0.06065 0.022464-0.13029 0.049421-0.06739 0.024711-0.13928 0.051668-0.07189 0.026957-0.13928 0.051668-0.02471 0.00899-0.04942-0.00225-0.02696-0.013478-0.03819-0.040435-9e-3 -0.024711 0.0045-0.049421 0.01123-0.026957 0.03819-0.038189 0.10109-0.035943 0.20892-0.076378 0.11008-0.040436 0.19993-0.074132 0.08986-0.033696 0.14826-0.05616 0.06065-0.022464 0.06065-0.022464 0.01123-0.00225 0.02022-0.00225 0.01123-0.00225 0.02246 0.00225 0.03145 0.00449 0.04493 0.035943 0.01123 0.017971 9e-3 0.047175 0 0.026957-0.01123 0.078625-0.0067 0.029203-0.01797 0.065146-9e-3 0.033696-0.02471 0.078625-0.0022 0.00899-0.0045 0.015725-0.0022 0.00674-0.0045 0.015725 0.08986-0.049421 0.22015-0.10334 0.02471-0.011232 0.04942 0 0.02471 0.00899 0.03594 0.033696 0.01348 0.024711 0.0022 0.051668-0.01123 0.026957-0.03594 0.038189-0.07638 0.033696-0.14152 0.065146-0.06515 0.03145-0.11232 0.05616-0.05616 0.029203-0.10109 0.053914-0.01348 0.011232-0.0337 0.011232z" opacity=".25"/>
 </g>
 <g fill="#fff">
  <path d="m5.4278 10q-0.01797 0-0.0337-0.0022-0.01348-0.0022-0.0292-0.0067-0.04044-0.01123-0.05616-0.04717-0.02022-0.04493 0-0.10783 0.02246-0.06515 0.07189-0.16624 9e-3 -0.01797 0.01797-0.04044 9e-3 -0.02247 0.02022-0.04268-0.0292 0.01123-0.0629 0.03819-0.03145 0.02471-0.06515 0.05167-0.02246 0.01797-0.04942 0.01348-0.0292-0.0045-0.04717-0.02471-0.01797-0.02246-0.01348-0.04942 0.0045-0.02696 0.02471-0.04717 0.03145-0.02246 0.06515-0.04942t0.07189-0.04493q0.0921-0.04717 0.16848-0.02471 0.03594 0.0067 0.05391 0.04493 0.01797 0.03819-0.0022 0.08986-0.01797 0.05167-0.0629 0.14602-0.01123 0.02696-0.02471 0.05391-0.01123 0.02696-0.02246 0.05167-0.0045 9e-3 -0.0067 0.01573-0.0022 0.0067-0.0045 0.01348 0.02246-0.0022 0.05616-0.01348 0.03594-0.01123 0.08087-0.0337 0.04717-0.02471 0.10783-0.06515 0.06065-0.04044 0.13928-0.10109 0.06065-0.04942 0.11457-0.0966 0.05391-0.04717 0.09435-0.08536t0.06515-0.0629 0.02471-0.02471q0.02696-0.03145 0.06515-0.02022 0.01797 0.0045 0.0292 0.01572 0.01123 0.01123 0.01797 0.02246 0.01572 0.03145 0.0022 0.07413-0.01348 0.04268-0.04942 0.13254-0.01348 0.0292-0.02696 0.05841-0.01123 0.0292-0.02246 0.05391-0.0022 0.01123-0.0067 0.02471 0.03145-0.0045 0.06739-0.02471 0.03594-0.02022 0.07189-0.04493 0.03594-0.02471 0.06739-0.05167 0.03145-0.0292 0.05616-0.04942 0.02246-0.02022 0.04942-0.01797 0.02696 0.0022 0.04717 0.02246 0.01797 0.02246 0.01572 0.04942 0 0.02696-0.02246 0.04718-0.05167 0.04717-0.10558 0.08986-0.05391 0.04044-0.11008 0.07188-0.05391 0.0292-0.11007 0.04268-0.05616 0.01123-0.11008-0.0022-0.03594-0.01348-0.05167-0.04493-0.01348-0.03145-9e-3 -0.06739 0.0067-0.03819 0.02696-0.0966-0.02471 0.02246-0.05167 0.04268-0.02471 0.02022-0.05391 0.04493-0.31 0.24486-0.48298 0.24486z" opacity=".25"/>
  <path d="m6.6212 10q-0.01797 0-0.0337-0.0022-0.01348-0.0022-0.0292-0.0067-0.04043-0.01123-0.05616-0.04717-0.02022-0.04493 0-0.10783 0.02246-0.06515 0.07189-0.16624 9e-3 -0.01797 0.01797-0.04044 9e-3 -0.02247 0.02022-0.04268-0.0292 0.01123-0.0629 0.03819-0.03145 0.02471-0.06515 0.05167-0.02247 0.01797-0.04942 0.01348-0.0292-0.0045-0.04717-0.02471-0.01797-0.02246-0.01348-0.04942 0.0045-0.02696 0.02471-0.04717 0.03145-0.02246 0.06515-0.04942t0.07188-0.04493q0.0921-0.04717 0.16848-0.02471 0.03594 0.0067 0.05391 0.04493 0.01797 0.03819-0.0022 0.08986-0.01797 0.05167-0.0629 0.14602-0.01123 0.02696-0.02471 0.05391-0.01123 0.02696-0.02246 0.05167-0.0045 9e-3 -0.0067 0.01573-0.0022 0.0067-0.0045 0.01348 0.02246-0.0022 0.05616-0.01348 0.03594-0.01123 0.08087-0.0337 0.04717-0.02471 0.10783-0.06515 0.06065-0.04044 0.13928-0.10109 0.06065-0.04942 0.11457-0.0966 0.05391-0.04717 0.09435-0.08536 0.04043-0.03819 0.06515-0.0629 0.02471-0.02471 0.02471-0.02471 0.02696-0.03145 0.06515-0.02022 0.01797 0.0045 0.0292 0.01572 0.01123 0.01123 0.01797 0.02246 0.01572 0.03145 0.0022 0.07413-0.01348 0.04268-0.04942 0.13254-0.01348 0.0292-0.02696 0.05841-0.01123 0.0292-0.02246 0.05391-0.0022 0.01123-0.0067 0.02471 0.03145-0.0045 0.06739-0.02471 0.03594-0.02022 0.07188-0.04493t0.06739-0.05167q0.03145-0.0292 0.05616-0.04942 0.02246-0.02022 0.04942-0.01797 0.02696 0.0022 0.04718 0.02246 0.01797 0.02246 0.01572 0.04942 0 0.02696-0.02246 0.04718-0.05167 0.04717-0.10558 0.08986-0.05391 0.04044-0.11007 0.07188-0.05391 0.0292-0.11008 0.04268-0.05616 0.01123-0.11007-0.0022-0.03594-0.01348-0.05167-0.04493-0.01348-0.03145-9e-3 -0.06739 0.0067-0.03819 0.02696-0.0966-0.02471 0.02246-0.05167 0.04268-0.02471 0.02022-0.05391 0.04493-0.31001 0.24486-0.48298 0.24486z" opacity=".25"/>
  <path d="m8.4234 9.8497q-0.01572 0-0.0292-0.0045-0.04268-9e-3 -0.06065-0.05167-0.01348-0.03819 0.0067-0.08536 0.02022-0.04717 0.05841-0.10558 0.01348-0.02022 0.02471-0.04044 0.01348-0.02246 0.02246-0.04043 0.0067-9e-3 0.01123-0.02247-0.06739-0.01123-0.15725-0.0045-0.08761 0.0045-0.19768 0.0337-0.09884 0.02471-0.20892 0.06515-0.11007 0.03819-0.23363 0.0921-0.02471 0.01123-0.04942 0.0022-0.02471-0.01123-0.03594-0.03594-0.01348-0.02471-0.0022-0.05167 0.01123-0.02696 0.03594-0.03819 0.12805-0.05616 0.24037-0.0966 0.11457-0.04268 0.22015-0.06739 0.27631-0.06964 0.45153-0.02247 0.05167 0.01348 0.07188 0.0629 0.02022 0.05167-9e-3 0.11232-0.0292 0.05841-0.06964 0.12355-0.0045 0.0045-9e-3 0.01123-0.0022 0.0067-0.0067 0.01572 0.05167-0.01123 0.15051-0.04493 0.10109-0.0337 0.2808-0.09884 0.02471-9e-3 0.04942 0.0045 0.02696 0.01123 0.03594 0.03819 0.01123 0.02471 0 0.05167-0.01123 0.02471-0.04044 0.03594-0.10334 0.03594-0.1887 0.06515-0.08536 0.0292-0.15276 0.04942-0.0921 0.02696-0.13928 0.03819-0.04493 9e-3 -0.06964 9e-3z" opacity=".25"/>
  <path d="m9.2587 9.8048q-0.01123 0-0.01797-0.0022-0.03594-9e-3 -0.05167-0.02696-0.01348-0.02022-0.01797-0.03145-0.01797-0.04942 9e-3 -0.10109 0.0292-0.05391 0.07188-0.11232 0.01348-0.01797 0.02471-0.03819t0.02246-0.03819q0.0022-0.0022 0.0067-9e-3 -0.01348 0.0045-0.0337 0.01348-0.01797 9e-3 -0.04268 0.02696-0.04044 0.02471-0.08536 0.06515-0.04493 0.03819-0.0921 0.08087-0.01123 0.01123-0.02471 0.02246-0.01123 9e-3 -0.02246 0.02022-0.02022 0.01797-0.04717 0.01797-0.0292-0.0022-0.04717-0.02471-0.02022-0.02022-0.01797-0.04717 0.0022-0.0292 0.02246-0.04717 0.01123-0.01123 0.02471-0.02022 0.01123-0.01123 0.02246-0.02246 0.05391-0.04942 0.10558-0.0921 0.05391-0.04493 0.10334-0.07638 0.05167-0.03145 0.10109-0.04493 0.05167-0.01572 0.09884-0.0022 0.03819 0.01123 0.05391 0.03145t0.02022 0.03594q0.02022 0.05167-9e-3 0.10558-0.0292 0.05391-0.07413 0.11906-0.0045 0.0045-0.01123 0.01572-0.0045 9e-3 -0.01123 0.01797 0.0337-0.01348 0.08536-0.03145 0.05391-0.02022 0.13254-0.05167 0.0292-9e-3 0.05391 0.0045 0.02471 0.01123 0.0337 0.03819 0.01123 0.02471-0.0022 0.05167-0.01123 0.02471-0.03594 0.03594-0.07188 0.02471-0.13029 0.04493-0.05841 0.02022-0.09884 0.03594-0.02246 9e-3 -0.04043 0.01572-0.01572 0.0045-0.0292 9e-3 -0.01797 0.0045-0.0292 9e-3 -9e-3 0.0022-0.02022 0.0022z" opacity=".25"/>
  <path d="m9.8773 9.8048q-0.01123 0-0.01797-0.0022-0.03594-9e-3 -0.05167-0.02696-0.01348-0.02022-0.01797-0.03145-0.01797-0.04942 9e-3 -0.10109 0.0292-0.05391 0.07189-0.11232 0.01348-0.01797 0.02471-0.03819t0.02246-0.03819q0.0022-0.0022 0.0067-9e-3 -0.01348 0.0045-0.0337 0.01348-0.01797 9e-3 -0.04268 0.02696-0.04044 0.02471-0.08536 0.06515-0.04493 0.03819-0.0921 0.08087-0.01123 0.01123-0.02471 0.02246-0.01123 9e-3 -0.02246 0.02022-0.02022 0.01797-0.04717 0.01797-0.0292-0.0022-0.04717-0.02471-0.02022-0.02022-0.01797-0.04717 0.0022-0.0292 0.02246-0.04717 0.01123-0.01123 0.02471-0.02022 0.01123-0.01123 0.02247-0.02246 0.05391-0.04942 0.10558-0.0921 0.05391-0.04493 0.10334-0.07638 0.05167-0.03145 0.10109-0.04493 0.05167-0.01572 0.09884-0.0022 0.03819 0.01123 0.05391 0.03145t0.02022 0.03594q0.02022 0.05167-9e-3 0.10558-0.0292 0.05391-0.07413 0.11906-0.0045 0.0045-0.01123 0.01572-0.0045 9e-3 -0.01123 0.01797 0.0337-0.01348 0.08536-0.03145 0.05391-0.02022 0.13254-0.05167 0.0292-9e-3 0.05391 0.0045 0.02471 0.01123 0.0337 0.03819 0.01123 0.02471-0.0022 0.05167-0.01123 0.02471-0.03594 0.03594-0.07189 0.02471-0.13029 0.04493-0.05841 0.02022-0.09884 0.03594-0.02246 9e-3 -0.04044 0.01572-0.01572 0.0045-0.0292 9e-3 -0.01797 0.0045-0.0292 9e-3 -9e-3 0.0022-0.02022 0.0022z" opacity=".25"/>
  <path d="m10.709 9.8722q-0.02696 0-0.04493-0.01573-0.03594-0.0292-0.02022-0.07413 0-0.0022 0.01572-0.05391 0.01797-0.05167 0.04044-0.11681 0.01123-0.03819 0.02022-0.06515 9e-3 -0.0292 0.01572-0.05167-0.04717 0.01797-0.10783 0.04044-0.06065 0.02246-0.13029 0.04942-0.06739 0.02471-0.13928 0.05167-0.07189 0.02696-0.13928 0.05167-0.02471 9e-3 -0.04942-0.0022-0.02696-0.01348-0.03819-0.04044-9e-3 -0.02471 0.0045-0.04942 0.01123-0.02696 0.03819-0.03819 0.10109-0.03594 0.20892-0.07638 0.11008-0.04043 0.19993-0.07413 0.08986-0.0337 0.14826-0.05616 0.06065-0.02246 0.06065-0.02246 0.01123-0.0022 0.02022-0.0022 0.01123-0.0022 0.02246 0.0022 0.03145 0.0045 0.04493 0.03594 0.01123 0.01797 9e-3 0.04718 0 0.02696-0.01123 0.07862-0.0067 0.0292-0.01797 0.06515-9e-3 0.0337-0.02471 0.07862-0.0022 9e-3 -0.0045 0.01572-0.0022 0.0067-0.0045 0.01573 0.08986-0.04942 0.22015-0.10334 0.02471-0.01123 0.04942 0 0.02471 9e-3 0.03594 0.0337 0.01348 0.02471 0.0022 0.05167-0.01123 0.02696-0.03594 0.03819-0.07638 0.0337-0.14152 0.06515-0.06515 0.03145-0.11232 0.05616-0.05616 0.0292-0.10109 0.05391-0.01348 0.01123-0.0337 0.01123z" opacity=".25"/>
  <path d="m12.343 10q-0.01797 0-0.0337-0.0022-0.01348-0.0022-0.0292-0.0067-0.04043-0.01123-0.05616-0.04717-0.02022-0.04493 0-0.10783 0.02246-0.06515 0.07188-0.16624 9e-3 -0.01797 0.01797-0.04044 9e-3 -0.02247 0.02022-0.04268-0.0292 0.01123-0.0629 0.03819-0.03145 0.02471-0.06515 0.05167-0.02246 0.01797-0.04942 0.01348-0.0292-0.0045-0.04718-0.02471-0.01797-0.02246-0.01348-0.04942 0.0045-0.02696 0.02471-0.04717 0.03145-0.02246 0.06515-0.04942t0.07188-0.04493q0.0921-0.04717 0.16848-0.02471 0.03594 0.0067 0.05391 0.04493 0.01797 0.03819-0.0022 0.08986-0.01797 0.05167-0.0629 0.14602-0.01123 0.02696-0.02471 0.05391-0.01123 0.02696-0.02247 0.05167-0.0045 9e-3 -0.0067 0.01573-0.0022 0.0067-0.0045 0.01348 0.02247-0.0022 0.05616-0.01348 0.03594-0.01123 0.08087-0.0337 0.04718-0.02471 0.10783-0.06515 0.06065-0.04044 0.13928-0.10109 0.06065-0.04942 0.11457-0.0966 0.05391-0.04717 0.09435-0.08536 0.04043-0.03819 0.06515-0.0629 0.02471-0.02471 0.02471-0.02471 0.02696-0.03145 0.06515-0.02022 0.01797 0.0045 0.0292 0.01572 0.01123 0.01123 0.01797 0.02246 0.01572 0.03145 0.0022 0.07413-0.01348 0.04268-0.04942 0.13254-0.01348 0.0292-0.02696 0.05841-0.01123 0.0292-0.02247 0.05391-0.0022 0.01123-0.0067 0.02471 0.03145-0.0045 0.06739-0.02471 0.03594-0.02022 0.07188-0.04493t0.06739-0.05167q0.03145-0.0292 0.05616-0.04942 0.02246-0.02022 0.04942-0.01797 0.02696 0.0022 0.04717 0.02246 0.01797 0.02246 0.01573 0.04942 0 0.02696-0.02246 0.04718-0.05167 0.04717-0.10558 0.08986-0.05391 0.04044-0.11007 0.07188-0.05391 0.0292-0.11008 0.04268-0.05616 0.01123-0.11007-0.0022-0.03594-0.01348-0.05167-0.04493-0.01348-0.03145-9e-3 -0.06739 0.0067-0.03819 0.02696-0.0966-0.02471 0.02246-0.05167 0.04268-0.02471 0.02022-0.05391 0.04493-0.31001 0.24486-0.48298 0.24486z" opacity=".25"/>
  <path d="m13.639 10.005q-0.01123 0-0.02247-0.0022-0.01123 0-0.02471-0.0022-0.02696-9e-3 -0.04493-0.03819-0.0067-0.01348-9e-3 -0.03145-0.0022-0.02022 0.0045-0.05841 9e-3 -0.03819 0.02696-0.10334 0.02022-0.06739 0.05391-0.17298-0.05167 0.01797-0.11457 0.04268-0.0629 0.02471-0.13029 0.04942-0.02471 9e-3 -0.04942-0.0022-0.02696-0.01348-0.03819-0.04044-9e-3 -0.02471 0.0045-0.04942 0.01123-0.02696 0.03819-0.03819 0.07188-0.02696 0.13928-0.05167 0.06739-0.02471 0.11906-0.04268 0.05167-0.02022 0.08312-0.03145 0.03145-0.01348 0.03145-0.01348 0.02246-9e-3 0.04268-0.0022 0.0292 0.0067 0.04268 0.0337 0.01123 0.02022 0.0067 0.03594-0.0022 0.01573-0.0067 0.0337-0.0045 9e-3 -0.0067 0.02022-0.0022 9e-3 -0.0067 0.02246-0.01572 0.03819-0.0337 0.09435-0.01572 0.05391-0.0337 0.11007-0.01123 0.03145-0.01797 0.05391-0.0067 0.02246-0.01123 0.04044 0.04268-9e-3 0.12355-0.05167 0.06964-0.03819 0.14826-0.08761 0.07862-0.04942 0.16399-0.10783 0.01797-0.01123 0.03594-0.02246t0.03594-0.02471q0.02471-0.01572 0.05167-9e-3 0.02696 0.0045 0.04493 0.0292 0.01572 0.02471 9e-3 0.05167-0.0045 0.02471-0.0292 0.04044-0.01797 0.01348-0.03819 0.02696-0.01797 0.01123-0.03819 0.02471-0.08536 0.05616-0.16624 0.10783-0.08087 0.05167-0.15276 0.08986-0.14602 0.07638-0.23138 0.07638z" opacity=".25"/>
 </g>
 <g fill="#333">
  <path d="m5.4278 9.8505q-0.01797 0-0.0337-0.0022-0.01348-0.0022-0.0292-0.0067-0.04044-0.01123-0.05616-0.04717-0.02022-0.04493 0-0.10783 0.02246-0.06515 0.07189-0.16624 9e-3 -0.01797 0.01797-0.04044 9e-3 -0.02246 0.02022-0.04268-0.0292 0.01123-0.0629 0.03819-0.03145 0.02471-0.06515 0.05167-0.02246 0.01797-0.04942 0.01348-0.0292-0.0045-0.04717-0.02471-0.01797-0.02246-0.01348-0.04942 0.0045-0.02696 0.02471-0.04718 0.03145-0.02246 0.06515-0.04942t0.07189-0.04493q0.0921-0.04717 0.16848-0.02471 0.03594 0.0067 0.05391 0.04493 0.01797 0.03819-0.0022 0.08986-0.01797 0.05167-0.0629 0.14602-0.01123 0.02696-0.02471 0.05391-0.01123 0.02696-0.02246 0.05167-0.0045 9e-3 -0.0067 0.01572-0.0022 0.0067-0.0045 0.01348 0.02246-0.0022 0.05616-0.01348 0.03594-0.01123 0.08087-0.0337 0.04717-0.02471 0.10783-0.06515 0.06065-0.04044 0.13928-0.10109 0.06065-0.04942 0.11457-0.0966 0.05391-0.04717 0.09435-0.08536t0.06515-0.0629 0.02471-0.02471q0.02696-0.03145 0.06515-0.02022 0.01797 0.0045 0.0292 0.01572 0.01123 0.01123 0.01797 0.02246 0.01572 0.03145 0.0022 0.07413-0.01348 0.04268-0.04942 0.13254-0.01348 0.0292-0.02696 0.05841-0.01123 0.0292-0.02246 0.05391-0.0022 0.01123-0.0067 0.02471 0.03145-0.0045 0.06739-0.02471 0.03594-0.02022 0.07189-0.04493 0.03594-0.02471 0.06739-0.05167 0.03145-0.0292 0.05616-0.04942 0.02246-0.02022 0.04942-0.01797 0.02696 0.0022 0.04717 0.02246 0.01797 0.02246 0.01572 0.04942 0 0.02696-0.02246 0.04717-0.05167 0.04718-0.10558 0.08986-0.05391 0.04044-0.11008 0.07188-0.05391 0.0292-0.11007 0.04268-0.05616 0.01123-0.11008-0.0022-0.03594-0.01348-0.05167-0.04493-0.01348-0.03145-9e-3 -0.06739 0.0067-0.03819 0.02696-0.0966-0.02471 0.02246-0.05167 0.04268-0.02471 0.02022-0.05391 0.04493-0.31 0.24486-0.48298 0.24486z" opacity=".25"/>
  <path d="m6.6212 9.8505q-0.01797 0-0.0337-0.0022-0.01348-0.0022-0.0292-0.0067-0.04043-0.01123-0.05616-0.04717-0.02022-0.04493 0-0.10783 0.02246-0.06515 0.07189-0.16624 9e-3 -0.01797 0.01797-0.04044 9e-3 -0.02246 0.02022-0.04268-0.0292 0.01123-0.0629 0.03819-0.03145 0.02471-0.06515 0.05167-0.02247 0.01797-0.04942 0.01348-0.0292-0.0045-0.04717-0.02471-0.01797-0.02246-0.01348-0.04942 0.0045-0.02696 0.02471-0.04718 0.03145-0.02246 0.06515-0.04942t0.07188-0.04493q0.0921-0.04717 0.16848-0.02471 0.03594 0.0067 0.05391 0.04493 0.01797 0.03819-0.0022 0.08986-0.01797 0.05167-0.0629 0.14602-0.01123 0.02696-0.02471 0.05391-0.01123 0.02696-0.02246 0.05167-0.0045 9e-3 -0.0067 0.01572-0.0022 0.0067-0.0045 0.01348 0.02246-0.0022 0.05616-0.01348 0.03594-0.01123 0.08087-0.0337 0.04717-0.02471 0.10783-0.06515 0.06065-0.04044 0.13928-0.10109 0.06065-0.04942 0.11457-0.0966 0.05391-0.04717 0.09435-0.08536 0.04043-0.03819 0.06515-0.0629 0.02471-0.02471 0.02471-0.02471 0.02696-0.03145 0.06515-0.02022 0.01797 0.0045 0.0292 0.01572 0.01123 0.01123 0.01797 0.02246 0.01572 0.03145 0.0022 0.07413-0.01348 0.04268-0.04942 0.13254-0.01348 0.0292-0.02696 0.05841-0.01123 0.0292-0.02246 0.05391-0.0022 0.01123-0.0067 0.02471 0.03145-0.0045 0.06739-0.02471 0.03594-0.02022 0.07188-0.04493t0.06739-0.05167q0.03145-0.0292 0.05616-0.04942 0.02246-0.02022 0.04942-0.01797 0.02696 0.0022 0.04718 0.02246 0.01797 0.02246 0.01572 0.04942 0 0.02696-0.02246 0.04717-0.05167 0.04718-0.10558 0.08986-0.05391 0.04044-0.11007 0.07188-0.05391 0.0292-0.11008 0.04268-0.05616 0.01123-0.11007-0.0022-0.03594-0.01348-0.05167-0.04493-0.01348-0.03145-9e-3 -0.06739 0.0067-0.03819 0.02696-0.0966-0.02471 0.02246-0.05167 0.04268-0.02471 0.02022-0.05391 0.04493-0.31001 0.24486-0.48298 0.24486z" opacity=".25"/>
  <path d="m8.4234 9.7q-0.01572 0-0.0292-0.0045-0.04268-9e-3 -0.06065-0.05167-0.01348-0.03819 0.0067-0.08536 0.02022-0.04717 0.05841-0.10558 0.01348-0.02022 0.02471-0.04044 0.01348-0.02246 0.02246-0.04044 0.0067-9e-3 0.01123-0.02246-0.06739-0.01123-0.15725-0.0045-0.08761 0.0045-0.19768 0.0337-0.09884 0.02471-0.20892 0.06515-0.11007 0.03819-0.23363 0.0921-0.02471 0.01123-0.04942 0.0022-0.02471-0.01123-0.03594-0.03594-0.01348-0.02471-0.0022-0.05167 0.01123-0.02696 0.03594-0.03819 0.12805-0.05616 0.24037-0.0966 0.11457-0.04268 0.22015-0.06739 0.27631-0.06964 0.45153-0.02246 0.05167 0.01348 0.07188 0.0629 0.02022 0.05167-9e-3 0.11232-0.0292 0.05841-0.06964 0.12355-0.0045 0.0045-9e-3 0.01123-0.0022 0.0067-0.0067 0.01572 0.05167-0.01123 0.15051-0.04493 0.10109-0.0337 0.2808-0.09884 0.02471-9e-3 0.04942 0.0045 0.02696 0.01123 0.03594 0.03819 0.01123 0.02471 0 0.05167-0.01123 0.02471-0.04044 0.03594-0.10334 0.03594-0.1887 0.06515-0.08536 0.0292-0.15276 0.04942-0.0921 0.02696-0.13928 0.03819-0.04493 9e-3 -0.06964 9e-3z" opacity=".25"/>
  <path d="m9.2587 9.655q-0.01123 0-0.01797-0.0022-0.03594-9e-3 -0.05167-0.02696-0.01348-0.02022-0.01797-0.03145-0.01797-0.04942 9e-3 -0.10109 0.0292-0.05391 0.07188-0.11232 0.01348-0.01797 0.02471-0.03819t0.02246-0.03819q0.0022-0.0022 0.0067-9e-3 -0.01348 0.0045-0.0337 0.01348-0.01797 9e-3 -0.04268 0.02696-0.04044 0.02471-0.08536 0.06515-0.04493 0.03819-0.0921 0.08087-0.01123 0.01123-0.02471 0.02246-0.01123 9e-3 -0.02246 0.02022-0.02022 0.01797-0.04717 0.01797-0.0292-0.0022-0.04717-0.02471-0.02022-0.02022-0.01797-0.04717 0.0022-0.0292 0.02246-0.04718 0.01123-0.01123 0.02471-0.02022 0.01123-0.01123 0.02246-0.02246 0.05391-0.04942 0.10558-0.0921 0.05391-0.04493 0.10334-0.07638 0.05167-0.03145 0.10109-0.04493 0.05167-0.01572 0.09884-0.0022 0.03819 0.01123 0.05391 0.03145t0.02022 0.03594q0.02022 0.05167-9e-3 0.10558-0.0292 0.05391-0.07413 0.11906-0.0045 0.0045-0.01123 0.01572-0.0045 9e-3 -0.01123 0.01797 0.0337-0.01348 0.08536-0.03145 0.05391-0.02022 0.13254-0.05167 0.0292-9e-3 0.05391 0.0045 0.02471 0.01123 0.0337 0.03819 0.01123 0.02471-0.0022 0.05167-0.01123 0.02471-0.03594 0.03594-0.07188 0.02471-0.13029 0.04493-0.05841 0.02022-0.09884 0.03594-0.02246 9e-3 -0.04043 0.01572-0.01572 0.0045-0.0292 9e-3 -0.01797 0.0045-0.0292 9e-3 -9e-3 0.0022-0.02022 0.0022z" opacity=".25"/>
  <path d="m9.8773 9.655q-0.01123 0-0.01797-0.0022-0.03594-9e-3 -0.05167-0.02696-0.01348-0.02022-0.01797-0.03145-0.01797-0.04942 9e-3 -0.10109 0.0292-0.05391 0.07189-0.11232 0.01348-0.01797 0.02471-0.03819t0.02246-0.03819q0.0022-0.0022 0.0067-9e-3 -0.01348 0.0045-0.0337 0.01348-0.01797 9e-3 -0.04268 0.02696-0.04044 0.02471-0.08536 0.06515-0.04493 0.03819-0.0921 0.08087-0.01123 0.01123-0.02471 0.02246-0.01123 9e-3 -0.02246 0.02022-0.02022 0.01797-0.04717 0.01797-0.0292-0.0022-0.04717-0.02471-0.02022-0.02022-0.01797-0.04717 0.0022-0.0292 0.02246-0.04718 0.01123-0.01123 0.02471-0.02022 0.01123-0.01123 0.02247-0.02246 0.05391-0.04942 0.10558-0.0921 0.05391-0.04493 0.10334-0.07638 0.05167-0.03145 0.10109-0.04493 0.05167-0.01572 0.09884-0.0022 0.03819 0.01123 0.05391 0.03145t0.02022 0.03594q0.02022 0.05167-9e-3 0.10558-0.0292 0.05391-0.07413 0.11906-0.0045 0.0045-0.01123 0.01572-0.0045 9e-3 -0.01123 0.01797 0.0337-0.01348 0.08536-0.03145 0.05391-0.02022 0.13254-0.05167 0.0292-9e-3 0.05391 0.0045 0.02471 0.01123 0.0337 0.03819 0.01123 0.02471-0.0022 0.05167-0.01123 0.02471-0.03594 0.03594-0.07189 0.02471-0.13029 0.04493-0.05841 0.02022-0.09884 0.03594-0.02246 9e-3 -0.04044 0.01572-0.01572 0.0045-0.0292 9e-3 -0.01797 0.0045-0.0292 9e-3 -9e-3 0.0022-0.02022 0.0022z" opacity=".25"/>
  <path d="m10.709 9.7224q-0.02696 0-0.04493-0.01572-0.03594-0.0292-0.02022-0.07413 0-0.0022 0.01572-0.05391 0.01797-0.05167 0.04044-0.11681 0.01123-0.03819 0.02022-0.06515 9e-3 -0.0292 0.01572-0.05167-0.04717 0.01797-0.10783 0.04044-0.06065 0.02246-0.13029 0.04942-0.06739 0.02471-0.13928 0.05167-0.07189 0.02696-0.13928 0.05167-0.02471 9e-3 -0.04942-0.0022-0.02696-0.01348-0.03819-0.04044-9e-3 -0.02471 0.0045-0.04942 0.01123-0.02696 0.03819-0.03819 0.10109-0.03594 0.20892-0.07638 0.11008-0.04044 0.19993-0.07413 0.08986-0.0337 0.14826-0.05616 0.06065-0.02247 0.06065-0.02247 0.01123-0.0022 0.02022-0.0022 0.01123-0.0022 0.02246 0.0022 0.03145 0.0045 0.04493 0.03594 0.01123 0.01797 9e-3 0.04718 0 0.02696-0.01123 0.07862-0.0067 0.0292-0.01797 0.06515-9e-3 0.0337-0.02471 0.07862-0.0022 9e-3 -0.0045 0.01572-0.0022 0.0067-0.0045 0.01573 0.08986-0.04942 0.22015-0.10334 0.02471-0.01123 0.04942 0 0.02471 9e-3 0.03594 0.0337 0.01348 0.02471 0.0022 0.05167-0.01123 0.02696-0.03594 0.03819-0.07638 0.0337-0.14152 0.06515-0.06515 0.03145-0.11232 0.05616-0.05616 0.0292-0.10109 0.05391-0.01348 0.01123-0.0337 0.01123z" opacity=".25"/>
  <path d="m12.343 9.8505q-0.01797 0-0.0337-0.0022-0.01348-0.0022-0.0292-0.0067-0.04043-0.01123-0.05616-0.04717-0.02022-0.04493 0-0.10783 0.02246-0.06515 0.07188-0.16624 9e-3 -0.01797 0.01797-0.04044 9e-3 -0.02246 0.02022-0.04268-0.0292 0.01123-0.0629 0.03819-0.03145 0.02471-0.06515 0.05167-0.02246 0.01797-0.04942 0.01348-0.0292-0.0045-0.04718-0.02471-0.01797-0.02246-0.01348-0.04942 0.0045-0.02696 0.02471-0.04718 0.03145-0.02246 0.06515-0.04942t0.07188-0.04493q0.0921-0.04717 0.16848-0.02471 0.03594 0.0067 0.05391 0.04493 0.01797 0.03819-0.0022 0.08986-0.01797 0.05167-0.0629 0.14602-0.01123 0.02696-0.02471 0.05391-0.01123 0.02696-0.02247 0.05167-0.0045 9e-3 -0.0067 0.01572-0.0022 0.0067-0.0045 0.01348 0.02247-0.0022 0.05616-0.01348 0.03594-0.01123 0.08087-0.0337 0.04718-0.02471 0.10783-0.06515 0.06065-0.04044 0.13928-0.10109 0.06065-0.04942 0.11457-0.0966 0.05391-0.04717 0.09435-0.08536 0.04043-0.03819 0.06515-0.0629 0.02471-0.02471 0.02471-0.02471 0.02696-0.03145 0.06515-0.02022 0.01797 0.0045 0.0292 0.01572 0.01123 0.01123 0.01797 0.02246 0.01572 0.03145 0.0022 0.07413-0.01348 0.04268-0.04942 0.13254-0.01348 0.0292-0.02696 0.05841-0.01123 0.0292-0.02247 0.05391-0.0022 0.01123-0.0067 0.02471 0.03145-0.0045 0.06739-0.02471 0.03594-0.02022 0.07188-0.04493t0.06739-0.05167q0.03145-0.0292 0.05616-0.04942 0.02246-0.02022 0.04942-0.01797 0.02696 0.0022 0.04717 0.02246 0.01797 0.02246 0.01573 0.04942 0 0.02696-0.02246 0.04717-0.05167 0.04718-0.10558 0.08986-0.05391 0.04044-0.11007 0.07188-0.05391 0.0292-0.11008 0.04268-0.05616 0.01123-0.11007-0.0022-0.03594-0.01348-0.05167-0.04493-0.01348-0.03145-9e-3 -0.06739 0.0067-0.03819 0.02696-0.0966-0.02471 0.02246-0.05167 0.04268-0.02471 0.02022-0.05391 0.04493-0.31001 0.24486-0.48298 0.24486z" opacity=".25"/>
  <path d="m13.639 9.855q-0.01123 0-0.02247-0.0022-0.01123 0-0.02471-0.0022-0.02696-9e-3 -0.04493-0.03819-0.0067-0.01348-9e-3 -0.03145-0.0022-0.02022 0.0045-0.05841 9e-3 -0.03819 0.02696-0.10334 0.02022-0.06739 0.05391-0.17297-0.05167 0.01797-0.11457 0.04268-0.0629 0.02471-0.13029 0.04942-0.02471 9e-3 -0.04942-0.0022-0.02696-0.01348-0.03819-0.04044-9e-3 -0.02471 0.0045-0.04942 0.01123-0.02696 0.03819-0.03819 0.07188-0.02696 0.13928-0.05167 0.06739-0.02471 0.11906-0.04268 0.05167-0.02022 0.08312-0.03145 0.03145-0.01348 0.03145-0.01348 0.02246-9e-3 0.04268-0.0022 0.0292 0.0067 0.04268 0.0337 0.01123 0.02022 0.0067 0.03594-0.0022 0.01572-0.0067 0.0337-0.0045 9e-3 -0.0067 0.02022-0.0022 9e-3 -0.0067 0.02246-0.01572 0.03819-0.0337 0.09435-0.01572 0.05391-0.0337 0.11008-0.01123 0.03145-0.01797 0.05391-0.0067 0.02246-0.01123 0.04044 0.04268-9e-3 0.12355-0.05167 0.06964-0.03819 0.14826-0.08761 0.07862-0.04942 0.16399-0.10783 0.01797-0.01123 0.03594-0.02247 0.01797-0.01123 0.03594-0.02471 0.02471-0.01572 0.05167-9e-3 0.02696 0.0045 0.04493 0.0292 0.01572 0.02471 9e-3 0.05167-0.0045 0.02471-0.0292 0.04044-0.01797 0.01348-0.03819 0.02696-0.01797 0.01123-0.03819 0.02471-0.08536 0.05616-0.16624 0.10783-0.08087 0.05167-0.15276 0.08986-0.14602 0.07638-0.23138 0.07638z" opacity=".25"/>
 </g>
 <g fill="#fff">
  <path d="m5.6169 11.77q-0.01123 0-0.01797-0.0022-0.03594-9e-3 -0.05167-0.02696-0.01348-0.02022-0.01797-0.03145-0.01797-0.04942 9e-3 -0.10109 0.0292-0.05391 0.07188-0.11232 0.01348-0.01797 0.02471-0.03819t0.02246-0.03819q0.0022-0.0022 0.0067-9e-3 -0.01348 0.0045-0.0337 0.01348-0.01797 9e-3 -0.04268 0.02696-0.04043 0.02471-0.08536 0.06515-0.04493 0.03819-0.0921 0.08087-0.01123 0.01123-0.02471 0.02246-0.01123 9e-3 -0.02247 0.02022-0.02022 0.01797-0.04717 0.01797-0.0292-0.0022-0.04717-0.02471-0.02022-0.02022-0.01797-0.04717 0.0022-0.0292 0.02247-0.04718 0.01123-0.01123 0.02471-0.02022 0.01123-0.01123 0.02246-0.02246 0.05391-0.04942 0.10558-0.0921 0.05391-0.04493 0.10334-0.07638 0.05167-0.03145 0.10109-0.04493 0.05167-0.01573 0.09884-0.0022 0.03819 0.01123 0.05391 0.03145t0.02022 0.03594q0.02022 0.05167-9e-3 0.10558-0.0292 0.05391-0.07413 0.11906-0.0045 0.0045-0.01123 0.01572-0.0045 9e-3 -0.01123 0.01797 0.0337-0.01348 0.08536-0.03145 0.05391-0.02022 0.13254-0.05167 0.0292-9e-3 0.05391 0.0045 0.02471 0.01123 0.0337 0.03819 0.01123 0.02471-0.0022 0.05167-0.01123 0.02471-0.03594 0.03594-0.07188 0.02471-0.13029 0.04493-0.05841 0.02022-0.09884 0.03594-0.02246 9e-3 -0.04044 0.01572-0.01572 0.0045-0.0292 9e-3 -0.01797 0.0045-0.0292 9e-3 -9e-3 0.0022-0.02022 0.0022z" opacity=".25"/>
  <path d="m6.1165 11.966q-0.01797 0-0.0337-0.0022-0.01348-0.0022-0.0292-0.0067-0.04044-0.01123-0.05616-0.04718-0.02022-0.04493 0-0.10783 0.02246-0.06515 0.07189-0.16624 9e-3 -0.01797 0.01797-0.04044 9e-3 -0.02246 0.02022-0.04268-0.0292 0.01123-0.0629 0.03819-0.03145 0.02471-0.06515 0.05167-0.02246 0.01797-0.04942 0.01348-0.0292-0.0045-0.04717-0.02471-0.01797-0.02246-0.01348-0.04942 0.0045-0.02696 0.02471-0.04718 0.03145-0.02246 0.06515-0.04942t0.07189-0.04493q0.0921-0.04717 0.16848-0.02471 0.03594 0.0067 0.05391 0.04493 0.01797 0.03819-0.0022 0.08986-0.01797 0.05167-0.0629 0.14602-0.01123 0.02696-0.02471 0.05391-0.01123 0.02696-0.02247 0.05167-0.0045 9e-3 -0.0067 0.01572-0.0022 0.0067-0.0045 0.01348 0.02247-0.0022 0.05616-0.01348 0.03594-0.01123 0.08087-0.0337 0.04717-0.02471 0.10783-0.06515 0.06065-0.04043 0.13928-0.10109 0.06065-0.04942 0.11457-0.0966 0.05391-0.04718 0.09435-0.08536 0.04044-0.03819 0.06515-0.0629t0.02471-0.02471q0.02696-0.03145 0.06515-0.02022 0.01797 0.0045 0.0292 0.01572 0.01123 0.01123 0.01797 0.02246 0.01572 0.03145 0.0022 0.07413-0.01348 0.04268-0.04942 0.13254-0.01348 0.0292-0.02696 0.05841-0.01123 0.0292-0.02247 0.05391-0.0022 0.01123-0.0067 0.02471 0.03145-0.0045 0.06739-0.02471 0.03594-0.02022 0.07189-0.04493 0.03594-0.02471 0.06739-0.05167 0.03145-0.0292 0.05616-0.04942 0.02246-0.02022 0.04942-0.01797 0.02696 0.0022 0.04717 0.02246 0.01797 0.02246 0.01572 0.04942 0 0.02696-0.02246 0.04717-0.05167 0.04718-0.10558 0.08986-0.05391 0.04044-0.11007 0.07188-0.05391 0.0292-0.11008 0.04268-0.05616 0.01123-0.11007-0.0022-0.03594-0.01348-0.05167-0.04493-0.01348-0.03145-9e-3 -0.06739 0.0067-0.03819 0.02696-0.0966-0.02471 0.02246-0.05167 0.04268-0.02471 0.02022-0.05391 0.04493-0.31001 0.24486-0.48298 0.24486z" opacity=".25"/>
  <path d="m7.9187 11.815q-0.01573 0-0.0292-0.0045-0.04268-9e-3 -0.06065-0.05167-0.01348-0.03819 0.0067-0.08536 0.02022-0.04718 0.05841-0.10558 0.01348-0.02022 0.02471-0.04044 0.01348-0.02246 0.02246-0.04044 0.0067-9e-3 0.01123-0.02246-0.06739-0.01123-0.15725-0.0045-0.08761 0.0045-0.19768 0.0337-0.09884 0.02471-0.20892 0.06515-0.11007 0.03819-0.23363 0.0921-0.02471 0.01123-0.04942 0.0022-0.02471-0.01123-0.03594-0.03594-0.01348-0.02471-0.0022-0.05167 0.01123-0.02696 0.03594-0.03819 0.12805-0.05616 0.24037-0.0966 0.11457-0.04268 0.22015-0.06739 0.27631-0.06964 0.45153-0.02246 0.05167 0.01348 0.07189 0.0629 0.02022 0.05167-9e-3 0.11232-0.0292 0.05841-0.06964 0.12355-0.0045 0.0045-9e-3 0.01123-0.0022 0.0067-0.0067 0.01573 0.05167-0.01123 0.15051-0.04493 0.10109-0.0337 0.2808-0.09884 0.02471-9e-3 0.04942 0.0045 0.02696 0.01123 0.03594 0.03819 0.01123 0.02471 0 0.05167-0.01123 0.02471-0.04044 0.03594-0.10334 0.03594-0.1887 0.06515-0.08536 0.0292-0.15276 0.04942-0.0921 0.02696-0.13928 0.03819-0.04493 9e-3 -0.06964 9e-3z" opacity=".25"/>
  <path d="m8.7382 11.97q-0.01123 0-0.02246-0.0022-0.01123 0-0.02471-0.0022-0.02696-9e-3 -0.04493-0.03819-0.0067-0.01348-9e-3 -0.03145-0.0022-0.02022 0.0045-0.05841 9e-3 -0.03819 0.02696-0.10334 0.02022-0.06739 0.05391-0.17297-0.05167 0.01797-0.11457 0.04268-0.0629 0.02471-0.13029 0.04942-0.02471 9e-3 -0.04942-0.0022-0.02696-0.01348-0.03819-0.04044-9e-3 -0.02471 0.0045-0.04942 0.01123-0.02696 0.03819-0.03819 0.07188-0.02696 0.13928-0.05167 0.06739-0.02471 0.11906-0.04268 0.05167-0.02022 0.08312-0.03145 0.03145-0.01348 0.03145-0.01348 0.02246-9e-3 0.04268-0.0022 0.0292 0.0067 0.04268 0.0337 0.01123 0.02022 0.0067 0.03594-0.0022 0.01572-0.0067 0.0337-0.0045 9e-3 -0.0067 0.02022-0.0022 9e-3 -0.0067 0.02246-0.01573 0.03819-0.0337 0.09435-0.01572 0.05391-0.0337 0.11008-0.01123 0.03145-0.01797 0.05391-0.0067 0.02246-0.01123 0.04044 0.04268-9e-3 0.12355-0.05167 0.06964-0.03819 0.14826-0.08761 0.07863-0.04942 0.16399-0.10783 0.01797-0.01123 0.03594-0.02246t0.03594-0.02471q0.02471-0.01572 0.05167-9e-3 0.02696 0.0045 0.04493 0.0292 0.01572 0.02471 9e-3 0.05167-0.0045 0.02471-0.0292 0.04044-0.01797 0.01348-0.03819 0.02696-0.01797 0.01123-0.03819 0.02471-0.08536 0.05616-0.16624 0.10783-0.08087 0.05167-0.15276 0.08986-0.14602 0.07638-0.23138 0.07638z" opacity=".25"/>
  <path d="m9.5124 11.966q-0.01797 0-0.0337-0.0022-0.01348-0.0022-0.0292-0.0067-0.04043-0.01123-0.05616-0.04718-0.02022-0.04493 0-0.10783 0.02246-0.06515 0.07189-0.16624 9e-3 -0.01797 0.01797-0.04044 9e-3 -0.02246 0.02022-0.04268-0.0292 0.01123-0.0629 0.03819-0.03145 0.02471-0.06515 0.05167-0.02247 0.01797-0.04942 0.01348-0.0292-0.0045-0.04717-0.02471-0.01797-0.02246-0.01348-0.04942 0.0045-0.02696 0.02471-0.04718 0.03145-0.02246 0.06515-0.04942t0.07188-0.04493q0.0921-0.04717 0.16848-0.02471 0.03594 0.0067 0.05391 0.04493 0.01797 0.03819-0.0022 0.08986-0.01797 0.05167-0.0629 0.14602-0.01123 0.02696-0.02471 0.05391-0.01123 0.02696-0.02246 0.05167-0.0045 9e-3 -0.0067 0.01572-0.0022 0.0067-0.0045 0.01348 0.02246-0.0022 0.05616-0.01348 0.03594-0.01123 0.08087-0.0337 0.04717-0.02471 0.10783-0.06515 0.06065-0.04043 0.13928-0.10109 0.06065-0.04942 0.11457-0.0966 0.05391-0.04718 0.09435-0.08536 0.04044-0.03819 0.06515-0.0629t0.02471-0.02471q0.02696-0.03145 0.06515-0.02022 0.01797 0.0045 0.0292 0.01572 0.01123 0.01123 0.01797 0.02246 0.01572 0.03145 0.0022 0.07413-0.01348 0.04268-0.04942 0.13254-0.01348 0.0292-0.02696 0.05841-0.01123 0.0292-0.02246 0.05391-0.0022 0.01123-0.0067 0.02471 0.03145-0.0045 0.06739-0.02471 0.03594-0.02022 0.07188-0.04493t0.06739-0.05167q0.03145-0.0292 0.05616-0.04942 0.02247-0.02022 0.04942-0.01797 0.02696 0.0022 0.04717 0.02246 0.01797 0.02246 0.01572 0.04942 0 0.02696-0.02246 0.04717-0.05167 0.04718-0.10558 0.08986-0.05391 0.04044-0.11007 0.07188-0.05391 0.0292-0.11008 0.04268-0.05616 0.01123-0.11007-0.0022-0.03594-0.01348-0.05167-0.04493-0.01348-0.03145-9e-3 -0.06739 0.0067-0.03819 0.02696-0.0966-0.02471 0.02246-0.05167 0.04268-0.02471 0.02022-0.05391 0.04493-0.31001 0.24486-0.48298 0.24486z" opacity=".25"/>
  <path d="m10.809 11.97q-0.01123 0-0.02246-0.0022-0.01123 0-0.02471-0.0022-0.02696-9e-3 -0.04493-0.03819-0.0067-0.01348-9e-3 -0.03145-0.0022-0.02022 0.0045-0.05841 9e-3 -0.03819 0.02696-0.10334 0.02022-0.06739 0.05391-0.17297-0.05167 0.01797-0.11457 0.04268-0.0629 0.02471-0.13029 0.04942-0.02471 9e-3 -0.04942-0.0022-0.02696-0.01348-0.03819-0.04044-9e-3 -0.02471 0.0045-0.04942 0.01123-0.02696 0.03819-0.03819 0.07188-0.02696 0.13928-0.05167 0.06739-0.02471 0.11906-0.04268 0.05167-0.02022 0.08312-0.03145 0.03145-0.01348 0.03145-0.01348 0.02247-9e-3 0.04268-0.0022 0.0292 0.0067 0.04268 0.0337 0.01123 0.02022 0.0067 0.03594-0.0022 0.01572-0.0067 0.0337-0.0045 9e-3 -0.0067 0.02022-0.0022 9e-3 -0.0067 0.02246-0.01572 0.03819-0.0337 0.09435-0.01572 0.05391-0.0337 0.11008-0.01123 0.03145-0.01797 0.05391-0.0067 0.02246-0.01123 0.04044 0.04268-9e-3 0.12355-0.05167 0.06964-0.03819 0.14826-0.08761 0.07863-0.04942 0.16399-0.10783 0.01797-0.01123 0.03594-0.02246t0.03594-0.02471q0.02471-0.01572 0.05167-9e-3 0.02696 0.0045 0.04493 0.0292 0.01572 0.02471 9e-3 0.05167-0.0045 0.02471-0.0292 0.04044-0.01797 0.01348-0.03819 0.02696-0.01797 0.01123-0.03819 0.02471-0.08536 0.05616-0.16624 0.10783-0.08087 0.05167-0.15276 0.08986-0.14602 0.07638-0.23138 0.07638z" opacity=".25"/>
 </g>
 <g fill="#333">
  <path d="m5.6169 11.621q-0.01123 0-0.01797-0.0022-0.03594-9e-3 -0.05167-0.02696-0.01348-0.02022-0.01797-0.03145-0.01797-0.04942 9e-3 -0.10109 0.0292-0.05391 0.07188-0.11232 0.01348-0.01797 0.02471-0.03819t0.02246-0.03819q0.0022-0.0022 0.0067-9e-3 -0.01348 0.0045-0.0337 0.01348-0.01797 9e-3 -0.04268 0.02696-0.04043 0.02471-0.08536 0.06515-0.04493 0.03819-0.0921 0.08087-0.01123 0.01123-0.02471 0.02246-0.01123 9e-3 -0.02247 0.02022-0.02022 0.01797-0.04717 0.01797-0.0292-0.0022-0.04717-0.02471-0.02022-0.02022-0.01797-0.04717 0.0022-0.0292 0.02247-0.04718 0.01123-0.01123 0.02471-0.02022 0.01123-0.01123 0.02246-0.02246 0.05391-0.04942 0.10558-0.0921 0.05391-0.04493 0.10334-0.07638 0.05167-0.03145 0.10109-0.04493 0.05167-0.01572 0.09884-0.0022 0.03819 0.01123 0.05391 0.03145t0.02022 0.03594q0.02022 0.05167-9e-3 0.10558-0.0292 0.05391-0.07413 0.11906-0.0045 0.0045-0.01123 0.01572-0.0045 9e-3 -0.01123 0.01797 0.0337-0.01348 0.08536-0.03145 0.05391-0.02022 0.13254-0.05167 0.0292-9e-3 0.05391 0.0045 0.02471 0.01123 0.0337 0.03819 0.01123 0.02471-0.0022 0.05167-0.01123 0.02471-0.03594 0.03594-0.07188 0.02471-0.13029 0.04493-0.05841 0.02022-0.09884 0.03594-0.02246 9e-3 -0.04044 0.01572-0.01572 0.0045-0.0292 9e-3 -0.01797 0.0045-0.0292 9e-3 -9e-3 0.0022-0.02022 0.0022z" opacity=".25"/>
  <path d="m6.1165 11.816q-0.01797 0-0.0337-0.0022-0.01348-0.0022-0.0292-0.0067-0.04044-0.01123-0.05616-0.04718-0.02022-0.04493 0-0.10783 0.02246-0.06515 0.07189-0.16624 9e-3 -0.01797 0.01797-0.04044 9e-3 -0.02246 0.02022-0.04268-0.0292 0.01123-0.0629 0.03819-0.03145 0.02471-0.06515 0.05167-0.02246 0.01797-0.04942 0.01348-0.0292-0.0045-0.04717-0.02471-0.01797-0.02246-0.01348-0.04942 0.0045-0.02696 0.02471-0.04718 0.03145-0.02246 0.06515-0.04942t0.07189-0.04493q0.0921-0.04717 0.16848-0.02471 0.03594 0.0067 0.05391 0.04493 0.01797 0.03819-0.0022 0.08986-0.01797 0.05167-0.0629 0.14602-0.01123 0.02696-0.02471 0.05391-0.01123 0.02696-0.02247 0.05167-0.0045 9e-3 -0.0067 0.01572-0.0022 0.0067-0.0045 0.01348 0.02247-0.0022 0.05616-0.01348 0.03594-0.01123 0.08087-0.0337 0.04717-0.02471 0.10783-0.06515 0.06065-0.04043 0.13928-0.10109 0.06065-0.04942 0.11457-0.0966 0.05391-0.04717 0.09435-0.08536t0.06515-0.0629 0.02471-0.02471q0.02696-0.03145 0.06515-0.02022 0.01797 0.0045 0.0292 0.01572 0.01123 0.01123 0.01797 0.02247 0.01572 0.03145 0.0022 0.07413-0.01348 0.04268-0.04942 0.13254-0.01348 0.0292-0.02696 0.05841-0.01123 0.0292-0.02247 0.05391-0.0022 0.01123-0.0067 0.02471 0.03145-0.0045 0.06739-0.02471 0.03594-0.02022 0.07189-0.04493 0.03594-0.02471 0.06739-0.05167 0.03145-0.0292 0.05616-0.04942 0.02246-0.02022 0.04942-0.01797 0.02696 0.0022 0.04717 0.02247 0.01797 0.02246 0.01572 0.04942 0 0.02696-0.02246 0.04717-0.05167 0.04717-0.10558 0.08986-0.05391 0.04044-0.11007 0.07189-0.05391 0.0292-0.11008 0.04268-0.05616 0.01123-0.11007-0.0022-0.03594-0.01348-0.05167-0.04493-0.01348-0.03145-9e-3 -0.06739 0.0067-0.03819 0.02696-0.0966-0.02471 0.02247-0.05167 0.04268-0.02471 0.02022-0.05391 0.04493-0.31001 0.24486-0.48298 0.24486z" opacity=".25"/>
  <path d="m7.9187 11.666q-0.01573 0-0.0292-0.0045-0.04268-9e-3 -0.06065-0.05167-0.01348-0.03819 0.0067-0.08536 0.02022-0.04718 0.05841-0.10558 0.01348-0.02022 0.02471-0.04044 0.01348-0.02246 0.02246-0.04044 0.0067-9e-3 0.01123-0.02246-0.06739-0.01123-0.15725-0.0045-0.08761 0.0045-0.19768 0.0337-0.09884 0.02471-0.20892 0.06515-0.11007 0.03819-0.23363 0.0921-0.02471 0.01123-0.04942 0.0022-0.02471-0.01123-0.03594-0.03594-0.01348-0.02471-0.0022-0.05167 0.01123-0.02696 0.03594-0.03819 0.12805-0.05616 0.24037-0.0966 0.11457-0.04268 0.22015-0.06739 0.27631-0.06964 0.45153-0.02246 0.05167 0.01348 0.07189 0.0629 0.02022 0.05167-9e-3 0.11232-0.0292 0.05841-0.06964 0.12355-0.0045 0.0045-9e-3 0.01123-0.0022 0.0067-0.0067 0.01572 0.05167-0.01123 0.15051-0.04493 0.10109-0.0337 0.2808-0.09884 0.02471-9e-3 0.04942 0.0045 0.02696 0.01123 0.03594 0.03819 0.01123 0.02471 0 0.05167-0.01123 0.02471-0.04044 0.03594-0.10334 0.03594-0.1887 0.06515-0.08536 0.0292-0.15276 0.04942-0.0921 0.02696-0.13928 0.03819-0.04493 9e-3 -0.06964 9e-3z" opacity=".25"/>
  <path d="m8.7382 11.821q-0.01123 0-0.02246-0.0022-0.01123 0-0.02471-0.0022-0.02696-9e-3 -0.04493-0.03819-0.0067-0.01348-9e-3 -0.03145-0.0022-0.02022 0.0045-0.05841 9e-3 -0.03819 0.02696-0.10334 0.02022-0.06739 0.05391-0.17297-0.05167 0.01797-0.11457 0.04268-0.0629 0.02471-0.13029 0.04942-0.02471 9e-3 -0.04942-0.0022-0.02696-0.01348-0.03819-0.04044-9e-3 -0.02471 0.0045-0.04942 0.01123-0.02696 0.03819-0.03819 0.07188-0.02696 0.13928-0.05167 0.06739-0.02471 0.11906-0.04268 0.05167-0.02022 0.08312-0.03145 0.03145-0.01348 0.03145-0.01348 0.02246-9e-3 0.04268-0.0022 0.0292 0.0067 0.04268 0.0337 0.01123 0.02022 0.0067 0.03594-0.0022 0.01572-0.0067 0.0337-0.0045 9e-3 -0.0067 0.02022-0.0022 9e-3 -0.0067 0.02246-0.01573 0.03819-0.0337 0.09435-0.01572 0.05391-0.0337 0.11008-0.01123 0.03145-0.01797 0.05391-0.0067 0.02246-0.01123 0.04044 0.04268-9e-3 0.12355-0.05167 0.06964-0.03819 0.14826-0.08761 0.07863-0.04942 0.16399-0.10783 0.01797-0.01123 0.03594-0.02246t0.03594-0.02471q0.02471-0.01572 0.05167-9e-3 0.02696 0.0045 0.04493 0.0292 0.01572 0.02471 9e-3 0.05167-0.0045 0.02471-0.0292 0.04044-0.01797 0.01348-0.03819 0.02696-0.01797 0.01123-0.03819 0.02471-0.08536 0.05616-0.16624 0.10783-0.08087 0.05167-0.15276 0.08986-0.14602 0.07638-0.23138 0.07638z" opacity=".25"/>
  <path d="m9.5124 11.816q-0.01797 0-0.0337-0.0022-0.01348-0.0022-0.0292-0.0067-0.04043-0.01123-0.05616-0.04718-0.02022-0.04493 0-0.10783 0.02246-0.06515 0.07189-0.16624 9e-3 -0.01797 0.01797-0.04044 9e-3 -0.02246 0.02022-0.04268-0.0292 0.01123-0.0629 0.03819-0.03145 0.02471-0.06515 0.05167-0.02247 0.01797-0.04942 0.01348-0.0292-0.0045-0.04717-0.02471-0.01797-0.02246-0.01348-0.04942 0.0045-0.02696 0.02471-0.04718 0.03145-0.02246 0.06515-0.04942t0.07188-0.04493q0.0921-0.04717 0.16848-0.02471 0.03594 0.0067 0.05391 0.04493 0.01797 0.03819-0.0022 0.08986-0.01797 0.05167-0.0629 0.14602-0.01123 0.02696-0.02471 0.05391-0.01123 0.02696-0.02246 0.05167-0.0045 9e-3 -0.0067 0.01572-0.0022 0.0067-0.0045 0.01348 0.02246-0.0022 0.05616-0.01348 0.03594-0.01123 0.08087-0.0337 0.04717-0.02471 0.10783-0.06515 0.06065-0.04043 0.13928-0.10109 0.06065-0.04942 0.11457-0.0966 0.05391-0.04717 0.09435-0.08536t0.06515-0.0629 0.02471-0.02471q0.02696-0.03145 0.06515-0.02022 0.01797 0.0045 0.0292 0.01572 0.01123 0.01123 0.01797 0.02247 0.01572 0.03145 0.0022 0.07413-0.01348 0.04268-0.04942 0.13254-0.01348 0.0292-0.02696 0.05841-0.01123 0.0292-0.02246 0.05391-0.0022 0.01123-0.0067 0.02471 0.03145-0.0045 0.06739-0.02471 0.03594-0.02022 0.07188-0.04493t0.06739-0.05167q0.03145-0.0292 0.05616-0.04942 0.02247-0.02022 0.04942-0.01797 0.02696 0.0022 0.04717 0.02247 0.01797 0.02246 0.01572 0.04942 0 0.02696-0.02246 0.04717-0.05167 0.04717-0.10558 0.08986-0.05391 0.04044-0.11007 0.07189-0.05391 0.0292-0.11008 0.04268-0.05616 0.01123-0.11007-0.0022-0.03594-0.01348-0.05167-0.04493-0.01348-0.03145-9e-3 -0.06739 0.0067-0.03819 0.02696-0.0966-0.02471 0.02247-0.05167 0.04268-0.02471 0.02022-0.05391 0.04493-0.31001 0.24486-0.48298 0.24486z" opacity=".25"/>
  <path d="m10.809 11.821q-0.01123 0-0.02246-0.0022-0.01123 0-0.02471-0.0022-0.02696-9e-3 -0.04493-0.03819-0.0067-0.01348-9e-3 -0.03145-0.0022-0.02022 0.0045-0.05841 9e-3 -0.03819 0.02696-0.10334 0.02022-0.06739 0.05391-0.17297-0.05167 0.01797-0.11457 0.04268-0.0629 0.02471-0.13029 0.04942-0.02471 9e-3 -0.04942-0.0022-0.02696-0.01348-0.03819-0.04044-9e-3 -0.02471 0.0045-0.04942 0.01123-0.02696 0.03819-0.03819 0.07188-0.02696 0.13928-0.05167 0.06739-0.02471 0.11906-0.04268 0.05167-0.02022 0.08312-0.03145 0.03145-0.01348 0.03145-0.01348 0.02247-9e-3 0.04268-0.0022 0.0292 0.0067 0.04268 0.0337 0.01123 0.02022 0.0067 0.03594-0.0022 0.01572-0.0067 0.0337-0.0045 9e-3 -0.0067 0.02022-0.0022 9e-3 -0.0067 0.02246-0.01572 0.03819-0.0337 0.09435-0.01572 0.05391-0.0337 0.11008-0.01123 0.03145-0.01797 0.05391-0.0067 0.02246-0.01123 0.04044 0.04268-9e-3 0.12355-0.05167 0.06964-0.03819 0.14826-0.08761 0.07863-0.04942 0.16399-0.10783 0.01797-0.01123 0.03594-0.02246t0.03594-0.02471q0.02471-0.01572 0.05167-9e-3 0.02696 0.0045 0.04493 0.0292 0.01572 0.02471 9e-3 0.05167-0.0045 0.02471-0.0292 0.04044-0.01797 0.01348-0.03819 0.02696-0.01797 0.01123-0.03819 0.02471-0.08536 0.05616-0.16624 0.10783-0.08087 0.05167-0.15276 0.08986-0.14602 0.07638-0.23138 0.07638z" opacity=".25"/>
 </g>
 <g>
  <path d="m3.9994 4.7359-0.72905 0.86895-0.395-0.33136-0.26503 0.31579 0.71079 0.59667 0.99435-1.185z" fill="#fff" opacity=".2"/>
  <path d="m3.9994 4.5985-0.72905 0.86895-0.395-0.33136-0.26503 0.31579 0.71079 0.59667 0.99435-1.185z" fill="url(#linearGradient8460)" opacity=".2"/>
  <path d="m3.9994 8.7681-0.72905 0.86895-0.395-0.33136-0.26503 0.31579 0.71079 0.59667 0.99435-1.185z" fill="#fff" opacity=".2"/>
  <path d="m3.9994 8.6307-0.72905 0.86895-0.395-0.33136-0.26503 0.31579 0.71079 0.59667 0.99435-1.185z" fill="url(#linearGradient957)" opacity=".2"/>
  <path d="m3.9994 10.822-0.72905 0.86895-0.395-0.33136-0.26503 0.31579 0.71079 0.59667 0.99435-1.185z" fill="#fff" opacity=".2"/>
  <path d="m3.9994 10.685-0.72905 0.86895-0.395-0.33136-0.26503 0.31579 0.71079 0.59667 0.99435-1.185z" fill="url(#linearGradient963)" opacity=".2"/>
 </g>
 <g transform="matrix(.87155 0 0 .87155 -14.659 1.2347)">
  <path d="m30.11 4.4709c-0.25423-0.21332-0.63063-0.18039-0.84395 0.073834l-3.8506 4.589-1.8356-1.5402c-0.25423-0.21332-0.63063-0.18039-0.84394 0.073825l-0.77012 0.91779c-0.21332 0.25423-0.1804 0.63064 0.07384 0.84395l3.2123 2.6954c0.25422 0.21332 0.63063 0.18039 0.84396-0.07385l5.0058-5.9656c0.21332-0.25423 0.18039-0.63063-0.07383-0.84395z" fill="none" opacity=".5" stroke="url(#linearGradient8451)" stroke-linecap="square" stroke-linejoin="round" stroke-width=".29952"/>
  <g>
   <path d="m30.11 4.4709c-0.25423-0.21332-0.63063-0.18039-0.84395 0.073835l-3.8506 4.5889-1.8356-1.5402c-0.25423-0.21332-0.63063-0.18039-0.84394 0.073825l-0.77012 0.91779c-0.21332 0.25423-0.1804 0.63064 0.07384 0.84395l3.2123 2.6954c0.25422 0.21332 0.63063 0.18039 0.84396-0.07385l5.0057-5.9656c0.21332-0.25423 0.18039-0.63063-0.073834-0.84395z" fill="url(#linearGradient8453)"/>
   <path d="m30.112 4.4709c-0.25423-0.21332-0.63063-0.18039-0.84395 0.073836l-3.8506 4.5889-1.8356-1.5402c-0.25423-0.21332-0.63063-0.1804-0.84394 0.073822l-0.77012 0.91779c-0.10315 0.12293-0.14726 0.27435-0.13811 0.42215 0.0161-0.033724 0.0351-0.066402 0.06029-0.096425l0.96265-1.1472c0.15999-0.19067 0.44229-0.21537 0.63296-0.055377l1.9503 1.6365 3.9468-4.7037c0.15999-0.19067 0.44229-0.21537 0.63296-0.055375l1.1472 0.96265c0.03001 0.025186 0.0544 0.05407 0.07611 0.084485-0.01664-0.14714-0.08639-0.2886-0.2093-0.39174z" opacity=".24"/>
   <path transform="matrix(.11472 .096265 -.096265 .11472 25.715 -5.6685)" d="m66 34c-1.662 0-3 1.338-3 3v41h-17c-1.662 0-3 1.338-3 3v10c0 0.90028 0.40136 1.6952 1.0254 2.2441-0.009879-0.080903-0.025391-0.16048-0.025391-0.24414v-12c0-1.108 0.892-2 2-2h18v-42c0-1.108 0.892-2 2-2h12c0.08366 0 0.16324 0.01551 0.24414 0.02539-0.54898-0.62403-1.3439-1.0254-2.2441-1.0254z" clip-path="url(#clipPath7904)" opacity=".12"/>
  </g>
 </g>
</svg>
