<?xml version="1.0" encoding="UTF-8" standalone="no"?>
<svg
   width="64"
   height="64"
   version="1.1"
   id="svg5926"
   sodipodi:docname="bitwig-studio.svg.svg"
   inkscape:version="1.2.1 (9c6d41e410, 2022-07-14)"
   xml:space="preserve"
   xmlns:inkscape="http://www.inkscape.org/namespaces/inkscape"
   xmlns:sodipodi="http://sodipodi.sourceforge.net/DTD/sodipodi-0.dtd"
   xmlns:xlink="http://www.w3.org/1999/xlink"
   xmlns="http://www.w3.org/2000/svg"
   xmlns:svg="http://www.w3.org/2000/svg"><sodipodi:namedview
     id="namedview5928"
     pagecolor="#ffffff"
     bordercolor="#000000"
     borderopacity="0.25"
     inkscape:showpageshadow="2"
     inkscape:pageopacity="0.0"
     inkscape:pagecheckerboard="0"
     inkscape:deskcolor="#d1d1d1"
     showgrid="false"
     inkscape:zoom="24.398171"
     inkscape:cx="27.829955"
     inkscape:cy="36.560117"
     inkscape:window-width="1920"
     inkscape:window-height="1011"
     inkscape:window-x="0"
     inkscape:window-y="0"
     inkscape:window-maximized="1"
     inkscape:current-layer="svg5926" /><defs
     id="defs5914"><linearGradient
       inkscape:collect="always"
       id="linearGradient13403"><stop
         style="stop-color:#fc6f01;stop-opacity:1;"
         offset="0"
         id="stop13399" /><stop
         style="stop-color:#fc6f01;stop-opacity:0;"
         offset="1"
         id="stop13401" /></linearGradient><linearGradient
       id="b"
       x1="429.07"
       x2="429.07"
       y1="14.723"
       y2="1034.7"
       gradientTransform="translate(.202 -1.054) scale(.06376)"
       gradientUnits="userSpaceOnUse"><stop
         stop-color="#fff"
         offset="0"
         id="stop5899" /><stop
         stop-color="#d7d7d7"
         offset="1"
         id="stop5901" /></linearGradient><linearGradient
       id="c"
       x1="540"
       x2="540"
       y1="452.36"
       y2="632.36"
       gradientTransform="translate(-1.906 -2.295) scale(.06401)"
       gradientUnits="userSpaceOnUse"><stop
         stop-color="#d7d7d7"
         offset="0"
         id="stop5904" /><stop
         stop-color="#fff"
         offset="1"
         id="stop5906" /></linearGradient><linearGradient
       id="a"
       x1="7.937"
       x2="7.937"
       y1="15.081"
       y2="1.852"
       gradientTransform="scale(3.7796)"
       gradientUnits="userSpaceOnUse"><stop
         stop-color="#112b40"
         offset="0"
         id="stop5909" /><stop
         stop-color="#0074a4"
         offset="1"
         id="stop5911" /></linearGradient><linearGradient
       id="a-7"
       x1="7.9369998"
       x2="7.9369998"
       y1="15.081"
       y2="1.852"
       gradientTransform="matrix(3.7796,0,0,3.7796,5.2537313,-22.594719)"
       gradientUnits="userSpaceOnUse"><stop
         stop-color="#363636"
         offset="0"
         id="stop321"
         style="stop-color:#ec5601;stop-opacity:1" /><stop
         stop-color="#6c6c6c"
         offset="1"
         id="stop323"
         style="stop-color:#fa6c01;stop-opacity:1" /></linearGradient><linearGradient
       id="a-0"
       x1="7.9369998"
       x2="7.9369998"
       y1="15.081"
       y2="1.852"
       gradientTransform="matrix(3.7796,0,0,3.7796,-0.00652408,0.00858383)"
       gradientUnits="userSpaceOnUse"><stop
         stop-color="#363636"
         offset="0"
         id="stop321-9"
         style="stop-color:#ec5601;stop-opacity:1" /><stop
         stop-color="#6c6c6c"
         offset="1"
         id="stop323-3"
         style="stop-color:#fa6c01;stop-opacity:1" /></linearGradient><linearGradient
       inkscape:collect="always"
       xlink:href="#linearGradient13403"
       id="linearGradient13405"
       x1="54.963802"
       y1="7.9216137"
       x2="8.1653538"
       y2="57.157478"
       gradientUnits="userSpaceOnUse" /></defs><path
     style="display:inline;fill:#ec5601;fill-opacity:1;stroke-width:0.0709816"
     d="M 15.970852,59.903278 C 13.445983,59.731297 10.812807,58.684971 8.837205,57.068636 8.0964151,56.462559 6.9128695,55.20106 6.3714211,54.440443 5.2120777,52.81182 4.334746,50.510448 4.1206917,48.536443 4.0274962,47.676998 4.0212193,18.025745 4.1138353,16.148306 4.1529586,15.35523 4.2311055,14.623918 4.3198763,14.22014 4.9914789,11.165326 6.9179971,8.2421398 9.4448254,6.4438419 10.743538,5.5195713 12.750918,4.62191 14.25542,4.292637 15.286759,4.0669197 18.524395,4.0299593 33.929189,4.0680435 c 13.348155,0.033 15.067689,0.04957 15.509472,0.1494597 4.541295,1.026809 7.929647,3.8516734 9.595083,7.9994078 0.349002,0.869184 0.680281,2.064555 0.814124,2.937653 0.118235,0.771271 0.176389,31.66114 0.062,32.93413 -0.148072,1.647895 -0.546116,3.104576 -1.241704,4.544137 -2.03718,4.216072 -6.071003,6.933378 -10.798557,7.274235 -1.172104,0.08451 -30.653869,0.08101 -31.898758,-0.0038 z"
     id="path8601"
     sodipodi:nodetypes="csssssssssssssscc" /><circle
     style="display:inline;fill:#ffffff;fill-opacity:1;fill-rule:nonzero;stroke-width:0.829188"
     id="path19005-28"
     cx="48.624306"
     cy="38.603073"
     r="2.6221631" /><circle
     style="display:inline;fill:#ffffff;fill-opacity:1;fill-rule:nonzero;stroke-width:0.829188"
     id="path19005-92"
     cx="42.018833"
     cy="38.653309"
     r="2.6221631" /><circle
     style="display:inline;fill:#ffffff;fill-opacity:1;fill-rule:nonzero;stroke-width:0.829188"
     id="path19005-75"
     cx="22.026608"
     cy="38.603073"
     r="2.6221631" /><circle
     style="display:inline;fill:#ffffff;fill-opacity:1;fill-rule:nonzero;stroke-width:0.829188"
     id="path19005-3"
     cx="15.315671"
     cy="38.605629"
     r="2.6221631" /><circle
     style="display:inline;fill:#ffffff;fill-opacity:1;fill-rule:nonzero;stroke-width:0.829188"
     id="path19005-02"
     cx="48.68248"
     cy="31.979969"
     r="2.6221631" /><circle
     style="display:inline;fill:#ffffff;fill-opacity:1;fill-rule:nonzero;stroke-width:0.829188"
     id="path19005-2"
     cx="41.997284"
     cy="32.000927"
     r="2.6221631" /><circle
     style="display:inline;fill:#ffffff;fill-opacity:1;fill-rule:nonzero;stroke-width:0.829188"
     id="path19005-9"
     cx="35.312088"
     cy="32.000923"
     r="2.6221631" /><circle
     style="display:inline;fill:#ffffff;fill-opacity:1;fill-rule:nonzero;stroke-width:0.829188"
     id="path19005-7"
     cx="28.668806"
     cy="31.979969"
     r="2.6221631" /><circle
     style="display:inline;fill:#ffffff;fill-opacity:1;fill-rule:nonzero;stroke-width:0.829188"
     id="path19005-8"
     cx="21.941696"
     cy="31.979969"
     r="2.6221631" /><circle
     style="display:inline;fill:#ffffff;fill-opacity:1;fill-rule:nonzero;stroke-width:0.829188"
     id="path19005-61"
     cx="15.298412"
     cy="31.959013"
     r="2.6221631" /><path
     style="display:inline;fill:url(#linearGradient13405);fill-opacity:1;stroke-width:0.0709816"
     d="M 15.935362,59.905558 C 13.814198,59.755547 11.623716,58.988467 9.7447097,57.737668 8.888192,57.167509 7.5837166,55.972113 6.8859663,55.11797 5.6641371,53.622283 4.7414088,51.676267 4.2435342,49.545133 L 4.0859988,48.870808 4.074267,32.864465 C 4.0678146,24.060976 4.0881322,16.410938 4.1194173,15.86438 4.2144972,14.203311 4.556258,12.946033 5.3542744,11.32156 6.3340401,9.3271097 7.7269934,7.6657436 9.4443033,6.4434094 10.749905,5.5141178 12.815682,4.5894498 14.248456,4.2930095 14.559278,4.2287004 15.46519,4.1510143 16.32576,4.1148709 c 1.848066,-0.077617 26.979726,-0.077628 30.522074,-1.29e-5 2.506401,0.054917 2.524023,0.05636 3.302924,0.2705184 3.841408,1.0561927 6.789754,3.4643708 8.482023,6.9280286 0.476572,0.975425 0.858357,2.067319 1.061984,3.037233 0.279272,1.330234 0.295174,2.434473 0.267635,18.584809 l -0.02645,15.509472 -0.153068,0.780797 c -1.014585,5.175384 -4.618943,9.056317 -9.589594,10.325437 -1.584683,0.404606 -0.510009,0.380559 -17.683734,0.3957 -8.686369,0.0077 -16.144757,-0.01092 -16.574195,-0.04129 z m 0.408198,-18.86086 c 0.440312,-0.197662 1.084573,-0.811954 1.320828,-1.259385 0.171526,-0.324846 0.187359,-0.424501 0.186101,-1.171341 -0.0013,-0.744781 -0.01784,-0.847378 -0.189348,-1.171196 -0.242771,-0.458372 -0.771038,-0.967615 -1.264399,-1.218864 -0.34626,-0.176337 -0.466637,-0.198843 -1.064724,-0.199059 -0.582345,-2.13e-4 -0.729687,0.0256 -1.080202,0.189258 -0.51084,0.238509 -1.034725,0.724606 -1.303215,1.209211 -0.1955,0.352865 -0.20741,0.421236 -0.20741,1.19065 0,0.747216 0.01596,0.846319 0.188609,1.171196 0.326318,0.614035 0.993248,1.186892 1.621421,1.392713 0.339525,0.111246 1.428024,0.03036 1.792339,-0.133183 z m 6.747392,-0.04311 c 0.4353,-0.212973 1.016898,-0.790661 1.265632,-1.257123 0.148464,-0.278421 0.16739,-0.407184 0.166172,-1.130497 -0.0012,-0.741755 -0.01837,-0.848707 -0.187476,-1.171341 -0.236943,-0.452049 -0.877918,-1.060351 -1.314498,-1.247492 -0.397278,-0.170293 -1.482456,-0.204265 -1.921442,-0.06015 -0.597205,0.196055 -1.180188,0.70547 -1.496657,1.30779 -0.169593,0.322779 -0.186598,0.428803 -0.18785,1.171196 -0.0012,0.72489 0.01756,0.852053 0.167779,1.135705 0.36934,0.697431 0.852644,1.141253 1.499296,1.376813 0.498874,0.181729 1.510917,0.118813 2.009044,-0.124898 z m 20.016802,0 c 0.437169,-0.213888 1.019573,-0.793496 1.263185,-1.257123 0.143157,-0.272447 0.165426,-0.417986 0.167548,-1.095006 0.0022,-0.711625 -0.01492,-0.816167 -0.193618,-1.180036 -0.242703,-0.494211 -0.779317,-1.00595 -1.314561,-1.253626 -0.34963,-0.161785 -0.499328,-0.187675 -1.080203,-0.18682 -0.831976,0.0012 -1.173685,0.136641 -1.762839,0.698598 -0.617006,0.588524 -0.751831,0.905616 -0.781137,1.83713 -0.02265,0.719948 -0.01202,0.791777 0.173168,1.17029 0.317449,0.648844 0.968138,1.2143 1.660993,1.443422 0.0976,0.03228 0.471307,0.04796 0.83046,0.03486 0.530816,-0.01936 0.72486,-0.05897 1.037004,-0.211692 z m 6.681988,-0.0048 c 0.428054,-0.209428 1.011032,-0.791584 1.254136,-1.252367 0.146009,-0.276747 0.16571,-0.411532 0.165239,-1.130497 -4.97e-4,-0.768443 -0.01272,-0.838539 -0.208506,-1.195922 -0.250988,-0.458159 -0.795112,-0.965563 -1.278024,-1.191776 -0.482086,-0.225826 -1.678315,-0.240408 -2.150267,-0.02621 -0.419989,0.190614 -1.109966,0.867687 -1.325991,1.301191 -0.157854,0.316773 -0.179293,0.449822 -0.179293,1.112718 0,0.658844 0.02193,0.796794 0.175471,1.104023 0.340435,0.681177 0.927346,1.219164 1.556217,1.426492 0.474836,0.156547 1.529053,0.07837 1.991018,-0.147651 z m -33.38326,-6.656329 c 0.46176,-0.211401 1.055342,-0.790755 1.282392,-1.251653 0.14137,-0.286973 0.16299,-0.439139 0.16299,-1.147149 0,-0.726196 -0.01918,-0.853835 -0.173808,-1.156489 -0.216654,-0.424065 -0.787676,-0.971248 -1.267077,-1.214179 -0.325857,-0.165125 -0.445836,-0.184669 -1.133646,-0.184669 -0.680848,0 -0.810662,0.02065 -1.129947,0.179758 -0.463658,0.231051 -1.044541,0.846535 -1.27591,1.351912 -0.164937,0.360269 -0.178951,0.462033 -0.153976,1.118147 0.02217,0.582479 0.06078,0.790314 0.200001,1.076716 0.292149,0.600985 0.959853,1.17041 1.63372,1.393253 0.0976,0.03228 0.467713,0.04815 0.822473,0.03528 0.502865,-0.01824 0.73048,-0.06253 1.032788,-0.200927 z m 6.672267,0 c 0.461761,-0.211401 1.055343,-0.790755 1.282392,-1.251653 0.14137,-0.286973 0.16299,-0.439139 0.16299,-1.147149 0,-0.771634 -0.01148,-0.837021 -0.209932,-1.195284 -0.252528,-0.455894 -0.823153,-0.994316 -1.292594,-1.219645 -0.478738,-0.229793 -1.595998,-0.237173 -2.099842,-0.01387 -0.411067,0.182184 -1.064564,0.786759 -1.31993,1.221117 -0.17558,0.298648 -0.188375,0.378269 -0.188375,1.172191 0,0.761 0.01859,0.889603 0.174418,1.206687 0.296311,0.602936 0.962976,1.170817 1.635612,1.393253 0.0976,0.03228 0.467713,0.04815 0.822474,0.03528 0.502864,-0.01824 0.730479,-0.06253 1.032787,-0.200927 z m 6.612217,0.02844 c 0.43503,-0.192434 1.109753,-0.836515 1.332001,-1.271507 0.154189,-0.301783 0.173431,-0.430016 0.173431,-1.155734 0,-0.771634 -0.01148,-0.837021 -0.209932,-1.195284 -0.245143,-0.442561 -0.825146,-0.997569 -1.265032,-1.210514 -0.451441,-0.218538 -1.68407,-0.21683 -2.151702,0.003 -0.422577,0.198635 -1.048055,0.773971 -1.291352,1.187831 -0.181799,0.30925 -0.192655,0.377713 -0.192655,1.214986 0,0.794328 0.01741,0.9199 0.166175,1.198786 0.309139,0.579526 0.998546,1.152264 1.643855,1.365663 0.330285,0.109223 1.427733,0.02534 1.795211,-0.137208 z m 6.744521,-0.03962 c 0.43579,-0.213212 1.017608,-0.791411 1.264989,-1.257122 0.14718,-0.277075 0.166981,-0.410682 0.167547,-1.130497 6.39e-4,-0.770013 -0.01112,-0.837511 -0.206768,-1.19065 -0.267495,-0.48281 -0.793816,-0.972315 -1.289392,-1.199197 -0.336124,-0.153883 -0.491836,-0.179252 -1.091501,-0.177833 -0.616515,0.0015 -0.746542,0.02472 -1.096632,0.196137 -0.488226,0.239061 -1.125721,0.891057 -1.325146,1.355288 -0.125365,0.29183 -0.143495,0.457295 -0.123739,1.129288 0.02243,0.762857 0.03116,0.800407 0.28077,1.206686 0.30569,0.497569 0.963333,1.058334 1.410444,1.20267 0.517541,0.167073 1.531477,0.09907 2.009428,-0.13477 z m 6.672267,0 c 0.43691,-0.21376 1.019207,-0.793107 1.263523,-1.257122 0.145459,-0.276262 0.165439,-0.412794 0.165439,-1.130497 0,-0.965463 -0.09461,-1.208296 -0.710825,-1.824514 -0.5797,-0.579702 -0.964772,-0.729282 -1.879594,-0.730129 -0.655615,-6.39e-4 -0.793125,0.02124 -1.101717,0.175016 -0.4618,0.230124 -1.052915,0.824533 -1.278512,1.285637 -0.158003,0.322947 -0.179695,0.45735 -0.17742,1.099288 0.0022,0.632553 0.02646,0.779887 0.179269,1.09059 0.232221,0.472175 0.54396,0.840956 0.942896,1.115431 0.489817,0.337003 0.814866,0.418139 1.559937,0.389379 0.528837,-0.02041 0.726024,-0.06093 1.037004,-0.213079 z m 6.681988,-0.0048 c 0.427061,-0.208942 1.009632,-0.79009 1.255435,-1.252367 0.146811,-0.276109 0.166801,-0.408887 0.16485,-1.095007 -0.0027,-0.95421 -0.12292,-1.271056 -0.701862,-1.849998 -0.581989,-0.581989 -1.015065,-0.756259 -1.879366,-0.756259 -0.87791,0 -1.287104,0.172899 -1.879804,0.794283 -0.57848,0.606475 -0.711263,0.940087 -0.709955,1.783723 9.15e-4,0.592713 0.02562,0.731515 0.189438,1.064724 0.348099,0.708014 0.928245,1.246894 1.570246,1.458552 0.474836,0.156547 1.529053,0.07837 1.991018,-0.147651 z M 23.069176,27.674057 c 0.473267,-0.218407 1.003468,-0.732458 1.263088,-1.224615 0.176294,-0.334195 0.191867,-0.429972 0.191867,-1.180005 0,-0.771633 -0.01148,-0.837021 -0.209932,-1.195284 -0.243561,-0.439704 -0.871377,-1.041586 -1.280681,-1.227777 -0.21887,-0.09956 -0.463703,-0.129514 -1.068532,-0.130716 -0.699107,-0.0014 -0.823914,0.01803 -1.145333,0.178199 -0.419696,0.209144 -1.000387,0.794842 -1.234436,1.245081 -0.216326,0.416145 -0.279279,1.526122 -0.114056,2.011023 0.231055,0.678107 0.911517,1.383143 1.580846,1.637936 0.45258,0.172284 1.528772,0.111547 2.017169,-0.113842 z m 6.68621,-0.01317 c 0.581032,-0.284273 1.22477,-0.993997 1.377214,-1.518388 0.182352,-0.62727 0.111273,-1.588687 -0.153408,-2.074994 -0.241622,-0.443939 -0.817158,-0.989528 -1.2668,-1.200885 -0.439723,-0.206694 -1.699927,-0.218639 -2.136054,-0.02025 -0.465808,0.211894 -1.070381,0.818937 -1.319422,1.324812 -0.215874,0.438501 -0.221752,0.475501 -0.193643,1.218874 0.03161,0.835993 0.09636,1.026212 0.532651,1.564866 0.276025,0.340784 0.747855,0.687045 1.141017,0.837356 0.17885,0.06838 0.48577,0.09536 0.941977,0.08281 0.571393,-0.01572 0.738899,-0.04905 1.076468,-0.214205 z m 6.662406,0.0099 c 0.468829,-0.214636 0.951258,-0.682407 1.237929,-1.200316 0.200384,-0.362018 0.212944,-0.430769 0.212944,-1.165509 0,-0.708932 -0.01805,-0.817543 -0.196063,-1.180036 -0.242703,-0.49421 -0.779317,-1.00595 -1.314561,-1.253626 -0.347607,-0.160848 -0.5027,-0.188049 -1.08028,-0.189462 -0.593239,-0.0014 -0.722312,0.02179 -1.072495,0.193118 -0.496165,0.242751 -1.076997,0.846638 -1.315604,1.367824 -0.244184,0.53337 -0.259036,1.543823 -0.03029,2.060936 0.285838,0.646184 0.905242,1.241344 1.549839,1.489176 0.430172,0.16539 1.526141,0.09877 2.008584,-0.122105 z m 6.616805,0.02854 c 0.43802,-0.196617 1.111771,-0.840963 1.332264,-1.274121 0.153334,-0.301222 0.17281,-0.431368 0.172952,-1.155735 1.42e-4,-0.771468 -0.01136,-0.837132 -0.20964,-1.195922 -0.25375,-0.459162 -0.798217,-0.96616 -1.279853,-1.191775 -0.302095,-0.141513 -0.465816,-0.166123 -1.100215,-0.165387 -0.908242,0.0011 -1.170133,0.101346 -1.777534,0.680709 -0.624493,0.595666 -0.778195,0.969053 -0.776243,1.885725 0.0012,0.579807 0.0313,0.797506 0.144611,1.047295 0.295349,0.651053 0.956299,1.263433 1.585518,1.469005 0.442334,0.144516 1.4854,0.08996 1.90814,-0.09979 z"
     id="path8661" /><circle
     style="display:inline;fill:#ffffff;fill-opacity:1;fill-rule:nonzero;stroke-width:0.829188"
     id="path19005"
     cx="21.959528"
     cy="25.306389"
     r="2.6221631" /><circle
     style="display:inline;fill:#ffffff;fill-opacity:1;fill-rule:nonzero;stroke-width:0.829188"
     id="path19005-6"
     cx="28.61231"
     cy="25.273815"
     r="2.6221631" /><circle
     style="display:inline;fill:#ffffff;fill-opacity:1;fill-rule:nonzero;stroke-width:0.829188"
     id="path19005-0"
     cx="35.291134"
     cy="25.294771"
     r="2.6221631" /><circle
     style="display:inline;fill:#ffffff;fill-opacity:1;fill-rule:nonzero;stroke-width:0.829188"
     id="path19005-62"
     cx="41.976326"
     cy="25.315729"
     r="2.6221631" /><path
     style="fill:#ec5601;fill-opacity:1;fill-rule:nonzero;stroke-width:0.103001"
     d=""
     id="path19315" /></svg>
