<svg width="64" height="64" viewBox="0 0 16.933 16.933" xmlns="http://www.w3.org/2000/svg" xmlns:xlink="http://www.w3.org/1999/xlink"><defs><linearGradient id="c" x1="7.937" x2="7.937" y1="15.081" y2="1.852" gradientUnits="userSpaceOnUse"><stop stop-color="#eae8e9" offset="0"/><stop stop-color="#f9f8f9" offset="1"/></linearGradient><linearGradient id="a"><stop stop-color="#64baff" offset="0"/><stop stop-color="#0d52bf" offset="1"/></linearGradient><linearGradient id="b" x1="129.43" x2="193.44" y1="903.24" y2="914.53" gradientTransform="rotate(40 1267.664 355.368)" gradientUnits="userSpaceOnUse" xlink:href="#a"/><linearGradient id="g" x1="282.24" x2="261.03" y1="1013.7" y2="988.43" gradientTransform="rotate(40.002 224.768 60.904) scale(.14976)" gradientUnits="userSpaceOnUse"><stop stop-color="#fff" offset="0"/><stop stop-color="#fff" stop-opacity="0" offset="1"/></linearGradient><linearGradient id="h" x1="129.43" x2="193.44" y1="903.24" y2="914.53" gradientTransform="rotate(80 101.476 73.649) scale(.14977)" gradientUnits="userSpaceOnUse" xlink:href="#a"/><linearGradient id="d" x1="151" x2="151" y1="60" y2="76" gradientTransform="translate(-17.297 -4.026) scale(.13749)" gradientUnits="userSpaceOnUse" xlink:href="#a"/><linearGradient id="e" x1="151" x2="151" y1="60" y2="76" gradientTransform="translate(-17.297 .007) scale(.13749)" gradientUnits="userSpaceOnUse" xlink:href="#a"/><linearGradient id="f" x1="151" x2="151" y1="60" y2="76" gradientTransform="translate(-17.297 2.06) scale(.13749)" gradientUnits="userSpaceOnUse" xlink:href="#a"/><clipPath id="i"><path d="M66 33c-2.216 0-4 1.784-4 4v40H46c-2.216 0-4 1.784-4 4v8c0 2.216 1.784 4 4 4h28c2.216 0 4-1.784 4-4V37c0-2.216-1.784-4-4-4z" fill="url(#b)"/></clipPath></defs><g color="#000"><path d="M4.37.53C2.254.53.53 2.312.53 4.496v8.468c0 2.184 1.725 3.968 3.84 3.968h8.194c2.114 0 3.84-1.783 3.84-3.968V4.497c0-2.184-1.726-3.968-3.84-3.968zm.256.52h7.681c1.844 0 3.33 1.534 3.33 3.44v7.937c0 1.906-1.485 3.44-3.33 3.44h-7.68c-1.845 0-3.33-1.534-3.33-3.44V4.49c0-1.906 1.485-3.44 3.33-3.44z" opacity=".01" style="font-feature-settings:normal;font-variant-alternates:normal;font-variant-caps:normal;font-variant-east-asian:normal;font-variant-ligatures:normal;font-variant-numeric:normal;font-variant-position:normal;font-variation-settings:normal;inline-size:0;isolation:auto;mix-blend-mode:normal;shape-margin:0;shape-padding:0;text-decoration-color:#000;text-decoration-line:none;text-decoration-style:solid;text-indent:0;text-orientation:mixed;text-transform:none;white-space:normal"/><path d="M4.359.794C2.392.794.795 2.447.795 4.48v8.5c0 2.035 1.597 3.688 3.564 3.688h8.216c1.967 0 3.564-1.653 3.564-3.688v-8.5c0-2.034-1.597-3.687-3.564-3.687zm.272.256h7.672c1.842 0 3.325 1.534 3.325 3.44v7.937c0 1.906-1.483 3.44-3.325 3.44H4.63c-1.842 0-3.325-1.534-3.325-3.44V4.49c0-1.906 1.483-3.44 3.325-3.44z" opacity=".01" style="font-feature-settings:normal;font-variant-alternates:normal;font-variant-caps:normal;font-variant-east-asian:normal;font-variant-ligatures:normal;font-variant-numeric:normal;font-variant-position:normal;font-variation-settings:normal;inline-size:0;isolation:auto;mix-blend-mode:normal;shape-margin:0;shape-padding:0;text-decoration-color:#000;text-decoration-line:none;text-decoration-style:solid;text-indent:0;text-orientation:mixed;text-transform:none;white-space:normal"/><path d="M4.31 1.058c-1.866 0-3.375 1.539-3.375 3.44v8.467c0 1.9 1.57 3.439 3.435 3.439h8.2c1.866 0 3.427-1.538 3.427-3.44V4.498c0-1.9-1.51-3.439-3.375-3.439h-.097c1.794.087 3.214 1.582 3.214 3.432v7.937c0 1.906-1.506 3.44-3.377 3.44h-7.79c-1.871 0-3.377-1.534-3.377-3.44V4.49c0-1.85 1.42-3.345 3.214-3.432z" opacity=".03" style="font-feature-settings:normal;font-variant-alternates:normal;font-variant-caps:normal;font-variant-east-asian:normal;font-variant-ligatures:normal;font-variant-numeric:normal;font-variant-position:normal;font-variation-settings:normal;inline-size:0;isolation:auto;mix-blend-mode:normal;shape-margin:0;shape-padding:0;text-decoration-color:#000;text-decoration-line:none;text-decoration-style:solid;text-indent:0;text-orientation:mixed;text-transform:none;white-space:normal"/><path transform="scale(.26458)" d="M4 46.969V49c0 6.648 5.896 12 12.544 12h30.961C54.153 61 60 55.648 60 49v-1.992a12.972 12.972 0 0 1-13 12.963H17.002A12.973 12.973 0 0 1 4 46.969z" opacity=".03" style="font-feature-settings:normal;font-variant-alternates:normal;font-variant-caps:normal;font-variant-east-asian:normal;font-variant-ligatures:normal;font-variant-numeric:normal;font-variant-position:normal;font-variation-settings:normal;inline-size:0;isolation:auto;mix-blend-mode:normal;shape-margin:0;shape-padding:0;text-decoration-color:#000;text-decoration-line:none;text-decoration-style:solid;text-indent:0;text-orientation:mixed;text-transform:none;white-space:normal"/><path d="M1.058 11.906v.592c0 1.939 1.573 3.5 3.332 3.5h8.16c1.76 0 3.325-1.561 3.325-3.5v-.58c-.006 2.095-1.537 3.78-3.44 3.78H4.498c-1.905 0-3.44-1.692-3.44-3.792z" opacity=".05" style="font-feature-settings:normal;font-variant-alternates:normal;font-variant-caps:normal;font-variant-east-asian:normal;font-variant-ligatures:normal;font-variant-numeric:normal;font-variant-position:normal;font-variation-settings:normal;inline-size:0;isolation:auto;mix-blend-mode:normal;shape-margin:0;shape-padding:0;text-decoration-color:#000;text-decoration-line:none;text-decoration-style:solid;text-indent:0;text-orientation:mixed;text-transform:none;white-space:normal"/></g><rect x="1.058" y="1.05" width="14.817" height="14.817" rx="3.44" ry="3.44" fill="url(#c)"/><g transform="translate(0 .265)" opacity=".25" stroke-linecap="round" stroke-linejoin="round" stroke-opacity=".35" stroke-width=".075"><rect x="2.381" y="3.969" width="12.171" height=".132" rx="0" ry=".066" opacity=".75"/><rect x="2.381" y="6.085" width="12.171" height=".132" rx="0" ry=".066" opacity=".75"/><rect x="2.381" y="8.202" width="12.171" height=".132" rx="0" ry=".066" opacity=".75"/><rect x="2.381" y="10.054" width="12.171" height=".132" rx="0" ry=".066" opacity=".75"/><rect x="2.381" y="12.171" width="12.171" height=".132" rx="0" ry=".066" opacity=".75"/></g><path fill="#da4d45" opacity=".15" d="M4.719 1.058h.132v14.816h-.132z"/><g fill="#fff"><path d="M5.543 5.878q-.018 0-.033-.002l-.03-.007q-.04-.011-.056-.047-.02-.045 0-.108.023-.065.072-.166.01-.018.018-.04l.02-.044q-.029.012-.063.039l-.065.051q-.022.018-.05.014-.028-.005-.046-.025-.018-.022-.014-.05.005-.026.025-.047.031-.022.065-.049t.072-.045q.092-.047.168-.025.036.007.054.045.018.039-.002.09-.018.052-.063.146l-.024.054-.023.052-.007.016-.004.013q.022-.002.056-.013.036-.012.08-.034.048-.025.109-.065.06-.04.139-.101l.115-.097.094-.085.065-.063.025-.025q.027-.031.065-.02.018.004.03.016.01.01.017.022.016.031.002.074-.013.043-.05.133l-.026.058q-.011.03-.023.054l-.006.025q.031-.005.067-.025.036-.02.072-.045.036-.025.067-.052.032-.029.057-.049.022-.02.049-.018.027.002.047.022.018.023.016.05 0 .027-.023.047-.051.047-.105.09-.054.04-.11.072-.054.029-.11.042-.056.012-.11-.002-.036-.013-.052-.045-.014-.031-.009-.067.007-.038.027-.097-.025.023-.052.043l-.054.045q-.31.245-.483.245z" opacity=".25"/><path d="M7.07 5.75q-.028 0-.046-.016-.036-.03-.02-.074l.016-.054.04-.117.02-.065.016-.052-.108.04-.13.05-.14.052-.139.051q-.024.01-.049-.002-.027-.013-.038-.04-.01-.025.004-.05.012-.027.039-.038l.208-.076.2-.074.149-.056.06-.023.02-.002q.012-.002.023.002.031.005.045.036.011.018.009.047 0 .027-.011.079l-.018.065-.025.079-.004.015-.005.016q.09-.05.22-.103.025-.012.05 0 .024.009.036.033.013.025.002.052-.012.027-.036.038-.077.034-.142.065l-.112.057-.101.053q-.014.012-.034.012z" opacity=".25"/><path d="M7.61 5.878q-.018 0-.034-.002l-.029-.007q-.04-.011-.056-.047-.02-.045 0-.108.022-.065.072-.166l.018-.04q.009-.023.02-.044-.03.012-.063.039l-.065.051q-.023.018-.05.014-.029-.005-.047-.025-.018-.022-.013-.05.004-.026.025-.047.031-.022.065-.049t.072-.045q.092-.047.168-.025.036.007.054.045.018.039-.002.09-.018.052-.063.146-.011.027-.025.054l-.022.052-.007.016-.005.013q.023-.002.057-.013.036-.012.08-.034.048-.025.108-.065.061-.04.14-.101l.114-.097.095-.085.065-.063.024-.025q.027-.031.066-.02.018.004.029.016.011.01.018.022.015.031.002.074-.014.043-.05.133l-.026.058-.023.054q-.002.011-.007.025.032-.005.068-.025.036-.02.072-.045.036-.025.067-.052.031-.029.056-.049.023-.02.05-.018.027.002.047.022.018.023.016.05 0 .027-.023.047-.052.047-.106.09-.053.04-.11.072-.054.029-.11.042-.056.012-.11-.002-.036-.013-.051-.045-.014-.031-.01-.067.007-.038.028-.097-.025.023-.052.043l-.054.045q-.31.245-.483.245z" opacity=".25"/><path d="M8.803 5.878q-.018 0-.033-.002l-.03-.007q-.04-.011-.056-.047-.02-.045 0-.108.023-.065.072-.166.01-.018.018-.04l.02-.044q-.029.012-.063.039l-.065.051q-.022.018-.05.014-.028-.005-.046-.025-.018-.022-.014-.05.005-.026.025-.047.031-.022.065-.049t.072-.045q.092-.047.168-.025.036.007.054.045.018.039-.002.09-.018.052-.063.146l-.024.054-.023.052-.007.016-.004.013q.022-.002.056-.013.036-.012.08-.034.048-.025.109-.065.06-.04.139-.101l.115-.097.094-.085.065-.063.025-.025q.027-.031.065-.02.018.004.03.016.01.01.017.022.016.031.002.074-.013.043-.05.133l-.026.058q-.011.03-.023.054l-.006.025q.031-.005.067-.025.036-.02.072-.045.036-.025.067-.052.032-.029.057-.049.022-.02.049-.018.027.002.047.022.018.023.016.05 0 .027-.023.047-.051.047-.105.09-.054.04-.11.072-.054.029-.11.042-.056.012-.11-.002-.036-.013-.052-.045-.014-.031-.009-.067.007-.038.027-.097-.025.023-.052.043l-.054.045q-.31.245-.483.245z" opacity=".25"/><path d="M9.997 5.878q-.018 0-.034-.002l-.03-.007q-.04-.011-.055-.047-.02-.045 0-.108.022-.065.072-.166l.018-.04q.009-.023.02-.044-.03.012-.063.039l-.065.051q-.023.018-.05.014-.029-.005-.047-.025-.018-.022-.013-.05.004-.026.024-.047.032-.022.065-.049t.072-.045q.092-.047.169-.025.036.007.054.045.018.039-.002.09-.018.052-.063.146l-.025.054-.023.052-.006.016-.005.013q.023-.002.056-.013.036-.012.081-.034.047-.025.108-.065.06-.04.14-.101l.114-.097q.054-.047.094-.085t.065-.063.025-.025q.027-.031.065-.02.018.004.03.016.01.01.018.022.015.031.002.074-.014.043-.05.133l-.027.058q-.01.03-.022.054-.002.011-.007.025.032-.005.068-.025.035-.02.071-.045.036-.025.068-.052.031-.029.056-.049.022-.02.05-.018.026.002.047.022.018.023.015.05 0 .027-.022.047-.052.047-.106.09-.054.04-.11.072-.054.029-.11.042-.056.012-.11-.002-.036-.013-.052-.045-.013-.031-.009-.067.007-.038.027-.097-.024.023-.051.043l-.054.045q-.31.245-.483.245zm2.286 0q-.018 0-.034-.002l-.029-.007q-.04-.011-.056-.047-.02-.045 0-.108.022-.065.072-.166l.018-.04q.009-.023.02-.044-.03.012-.063.039l-.065.051q-.022.018-.05.014-.029-.005-.047-.025-.018-.022-.013-.05.004-.026.025-.047.031-.022.065-.049t.072-.045q.092-.047.168-.025.036.007.054.045.018.039-.002.09-.018.052-.063.146-.011.027-.025.054l-.022.052-.007.016-.004.013q.022-.002.056-.013.036-.012.08-.034.048-.025.108-.065.061-.04.14-.101l.114-.097.095-.085.065-.063.024-.025q.027-.031.066-.02.018.004.029.016.011.01.018.022.016.031.002.074-.013.043-.05.133l-.026.058-.023.054q-.002.011-.007.025.032-.005.068-.025.036-.02.072-.045.036-.025.067-.052l.056-.049q.023-.02.05-.018.027.002.047.022.018.023.016.05 0 .027-.023.047-.052.047-.105.09-.054.04-.11.072-.054.029-.11.042-.057.012-.11-.002-.037-.013-.052-.045-.014-.031-.01-.067.007-.038.028-.097-.025.023-.052.043l-.054.045q-.31.245-.483.245z" opacity=".25"/><path d="m13.579 5.882-.022-.002-.025-.002q-.027-.01-.045-.038-.007-.014-.01-.032-.001-.02.005-.058l.027-.104.054-.173q-.051.018-.114.043l-.13.05q-.025.009-.05-.003-.027-.013-.038-.04-.01-.025.004-.05.012-.027.038-.038l.14-.051.119-.043.083-.032.031-.013q.023-.009.043-.002.03.006.043.033.011.02.006.036l-.006.034q-.005.009-.007.02l-.007.023q-.015.038-.033.094l-.034.11-.018.054-.011.04q.042-.008.123-.051.07-.038.149-.088.078-.05.164-.108.018-.01.035-.022t.036-.025q.025-.015.052-.009.027.005.045.03.016.024.009.051-.004.025-.03.04l-.037.028-.039.024-.166.108q-.08.052-.153.09-.146.076-.23.076z" opacity=".25"/></g><g fill="#333"><path d="M5.543 5.728q-.018 0-.033-.002l-.03-.007q-.04-.011-.056-.047-.02-.045 0-.108.023-.065.072-.166.01-.018.018-.04l.02-.043q-.029.01-.063.038l-.065.052q-.022.017-.05.013-.028-.004-.046-.025-.018-.022-.014-.05.005-.026.025-.046l.065-.05q.034-.027.072-.045.092-.047.168-.024.036.006.054.045.018.038-.002.09-.018.051-.063.145l-.024.054-.023.052-.007.016-.004.013q.022-.002.056-.013.036-.011.08-.034.048-.025.109-.065.06-.04.139-.101l.115-.097.094-.085.065-.063.025-.025q.027-.031.065-.02.018.005.03.016.01.011.017.022.016.032.002.074-.013.043-.05.133l-.026.058q-.011.03-.023.054l-.006.025q.031-.005.067-.025.036-.02.072-.045.036-.024.067-.051.032-.03.057-.05.022-.02.049-.018.027.002.047.023.018.022.016.05 0 .026-.023.046-.051.047-.105.09-.054.04-.11.072-.054.03-.11.043-.056.01-.11-.003-.036-.013-.052-.044-.014-.032-.009-.068.007-.038.027-.096-.025.022-.052.042l-.054.045q-.31.245-.483.245z" opacity=".25"/><path d="M7.07 5.6q-.028 0-.046-.016-.036-.029-.02-.074l.016-.054.04-.117.02-.065.016-.051-.108.04-.13.05-.14.051-.139.052q-.024.009-.049-.002-.027-.014-.038-.04-.01-.026.004-.05.012-.027.039-.038l.208-.077.2-.074.149-.056.06-.023.02-.002q.012-.002.023.002.031.005.045.036.011.018.009.047 0 .027-.011.08l-.018.064-.025.079-.004.016-.005.015q.09-.05.22-.103.025-.011.05 0 .024.009.036.034.013.024.002.051-.012.027-.036.039-.077.033-.142.065-.065.031-.112.056l-.101.054q-.014.011-.034.011z" opacity=".25"/><path d="M7.61 5.728q-.018 0-.034-.002l-.029-.007q-.04-.011-.056-.047-.02-.045 0-.108.022-.065.072-.166l.018-.04q.009-.023.02-.043-.03.01-.063.038l-.065.052q-.023.017-.05.013-.029-.004-.047-.025-.018-.022-.013-.05.004-.026.025-.046l.065-.05q.034-.027.072-.045.092-.047.168-.024.036.006.054.045.018.038-.002.09-.018.051-.063.145-.011.027-.025.054l-.022.052-.007.016-.005.013q.023-.002.057-.013.036-.011.08-.034.048-.025.108-.065.061-.04.14-.101l.114-.097.095-.085.065-.063.024-.025q.027-.031.066-.02.018.005.029.016.011.011.018.022.015.032.002.074-.014.043-.05.133l-.026.058-.023.054q-.002.011-.007.025.032-.005.068-.025.036-.02.072-.045.036-.024.067-.051.031-.03.056-.05.023-.02.05-.018.027.002.047.023.018.022.016.05 0 .026-.023.046-.052.047-.106.09-.053.04-.11.072-.054.03-.11.043-.056.01-.11-.003-.036-.013-.051-.044-.014-.032-.01-.068.007-.038.028-.096-.025.022-.052.042l-.054.045q-.31.245-.483.245z" opacity=".25"/><path d="M8.803 5.728q-.018 0-.033-.002l-.03-.007q-.04-.011-.056-.047-.02-.045 0-.108.023-.065.072-.166.01-.018.018-.04l.02-.043q-.029.01-.063.038l-.065.052q-.022.017-.05.013-.028-.004-.046-.025-.018-.022-.014-.05.005-.026.025-.046l.065-.05q.034-.027.072-.045.092-.047.168-.024.036.006.054.045.018.038-.002.09-.018.051-.063.145l-.024.054-.023.052-.007.016-.004.013q.022-.002.056-.013.036-.011.08-.034.048-.025.109-.065.06-.04.139-.101l.115-.097.094-.085.065-.063.025-.025q.027-.031.065-.02.018.005.03.016.01.011.017.022.016.032.002.074-.013.043-.05.133l-.026.058q-.011.03-.023.054l-.006.025q.031-.005.067-.025.036-.02.072-.045.036-.024.067-.051.032-.03.057-.05.022-.02.049-.018.027.002.047.023.018.022.016.05 0 .026-.023.046-.051.047-.105.09-.054.04-.11.072-.054.03-.11.043-.056.01-.11-.003-.036-.013-.052-.044-.014-.032-.009-.068.007-.038.027-.096-.025.022-.052.042l-.054.045q-.31.245-.483.245z" opacity=".25"/><path d="M9.997 5.728q-.018 0-.034-.002l-.03-.007q-.04-.011-.055-.047-.02-.045 0-.108.022-.065.072-.166l.018-.04q.009-.023.02-.043-.03.01-.063.038l-.065.052q-.023.017-.05.013-.029-.004-.047-.025-.018-.022-.013-.05.004-.026.024-.046.032-.023.065-.05t.072-.045q.092-.047.169-.024.036.006.054.045.018.038-.002.09-.018.051-.063.145l-.025.054-.023.052-.006.016-.005.013q.023-.002.056-.013.036-.011.081-.034.047-.025.108-.065.06-.04.14-.101l.114-.097q.054-.047.094-.085t.065-.063.025-.025q.027-.031.065-.02.018.005.03.016l.018.022q.015.032.002.074-.014.043-.05.133l-.027.058q-.01.03-.022.054-.002.011-.007.025.032-.005.068-.025.035-.02.071-.045.036-.024.068-.051.031-.03.056-.05.022-.02.05-.018.026.002.047.023.018.022.015.05 0 .026-.022.046-.052.047-.106.09-.054.04-.11.072-.054.03-.11.043-.056.01-.11-.003-.036-.013-.052-.044-.013-.032-.009-.068.007-.038.027-.096-.024.022-.051.042l-.054.045q-.31.245-.483.245zm2.286 0q-.018 0-.034-.002l-.029-.007q-.04-.011-.056-.047-.02-.045 0-.108.022-.065.072-.166l.018-.04q.009-.023.02-.043-.03.01-.063.038l-.065.052q-.022.017-.05.013-.029-.004-.047-.025-.018-.022-.013-.05.004-.026.025-.046l.065-.05q.034-.027.072-.045.092-.047.168-.024.036.006.054.045.018.038-.002.09-.018.051-.063.145-.011.027-.025.054l-.022.052-.007.016-.004.013q.022-.002.056-.013.036-.011.08-.034.048-.025.108-.065.061-.04.14-.101l.114-.097.095-.085.065-.063.024-.025q.027-.031.066-.02.018.005.029.016.011.011.018.022.016.032.002.074-.013.043-.05.133l-.026.058-.023.054q-.002.011-.007.025.032-.005.068-.025.036-.02.072-.045.036-.024.067-.051.032-.03.056-.05.023-.02.05-.018.027.002.047.023.018.022.016.05 0 .026-.023.046-.052.047-.105.09-.054.04-.11.072-.054.03-.11.043-.057.01-.11-.003-.037-.013-.052-.044-.014-.032-.01-.068.007-.038.028-.096-.025.022-.052.042l-.054.045q-.31.245-.483.245z" opacity=".25"/><path d="m13.579 5.732-.022-.002-.025-.002q-.027-.009-.045-.038-.007-.014-.01-.032-.001-.02.005-.058l.027-.103q.02-.068.054-.173l-.114.042-.13.05q-.025.009-.05-.003-.027-.013-.038-.04-.01-.025.004-.05.012-.026.038-.038l.14-.051.119-.043.083-.031.031-.014q.023-.009.043-.002.03.007.043.034.011.02.006.036l-.006.033q-.005.01-.007.02l-.007.023q-.015.038-.033.094l-.034.11-.018.054-.011.04q.042-.008.123-.051.07-.038.149-.088.078-.049.164-.107l.035-.023q.017-.01.036-.025.025-.015.052-.009.027.005.045.03.016.024.009.051-.004.025-.03.04l-.037.028-.039.024q-.085.057-.166.108-.08.052-.153.09-.146.076-.23.076z" opacity=".25"/></g><g fill="#fff"><path d="M5.44 7.993q-.018 0-.034-.002l-.03-.007q-.04-.011-.055-.047-.02-.045 0-.108.022-.065.072-.166l.018-.04q.009-.023.02-.043-.03.01-.063.038l-.065.051q-.023.018-.05.014-.029-.005-.047-.025-.018-.022-.013-.05.004-.026.024-.046l.066-.05q.034-.027.071-.045.093-.047.169-.024.036.006.054.044.018.039-.002.09-.018.052-.063.146-.011.027-.025.054l-.022.052-.007.016-.005.013q.023-.002.057-.013.035-.012.08-.034.048-.025.108-.065t.14-.101l.114-.097q.054-.047.094-.085t.066-.063.024-.025q.027-.031.065-.02.018.004.03.016.01.01.018.022.015.032.002.074-.014.043-.05.133l-.027.058q-.01.03-.022.054-.002.011-.007.025.032-.005.068-.025.036-.02.072-.045.035-.025.067-.051.031-.03.056-.05.023-.02.05-.018.026.002.047.023.018.022.015.049 0 .027-.022.047-.052.047-.106.09-.054.04-.11.072-.054.03-.11.043-.056.01-.11-.003-.036-.013-.052-.045-.013-.031-.009-.067.007-.038.027-.097-.024.023-.051.043l-.054.045q-.31.245-.483.245z" opacity=".25"/><path d="M6.633 7.993q-.018 0-.033-.002l-.03-.007q-.04-.011-.056-.047-.02-.045 0-.108.023-.065.072-.166.01-.018.018-.04l.02-.043q-.029.01-.063.038l-.065.051q-.022.018-.05.014-.028-.005-.046-.025-.018-.022-.014-.05.005-.026.025-.046l.065-.05q.034-.027.072-.045.092-.047.168-.024.036.006.054.044.018.039-.002.09-.018.052-.063.146l-.024.054-.023.052-.007.016-.004.013q.022-.002.056-.013.036-.012.08-.034.048-.025.109-.065.06-.04.139-.101l.115-.097.094-.085.065-.063.025-.025q.027-.031.065-.02.018.004.03.016.01.01.017.022.016.032.002.074-.013.043-.05.133l-.026.058q-.011.03-.023.054l-.006.025q.031-.005.067-.025.036-.02.072-.045.036-.025.067-.051.032-.03.057-.05.022-.02.049-.018.027.002.047.023.018.022.016.049 0 .027-.023.047-.051.047-.105.09-.054.04-.11.072-.054.03-.11.043-.056.01-.11-.003-.036-.013-.052-.045-.014-.031-.009-.067.007-.038.027-.097-.025.023-.052.043l-.054.045q-.31.245-.483.245z" opacity=".25"/><path d="M7.946 7.798q-.012 0-.018-.003-.036-.009-.052-.027-.013-.02-.018-.031-.018-.05.01-.101.028-.054.071-.113l.025-.038.022-.038.007-.009-.034.014q-.018.009-.043.026-.04.025-.085.066l-.092.08q-.011.012-.025.023l-.022.02q-.02.018-.047.018-.03-.002-.048-.025-.02-.02-.017-.047.002-.029.022-.047.011-.011.025-.02l.022-.023q.054-.049.106-.092.054-.045.103-.076.052-.032.101-.045.052-.016.099-.002.038.011.054.031t.02.036q.02.052-.009.106-.03.054-.074.119-.004.004-.011.016l-.011.017.085-.031q.054-.02.132-.052.03-.009.054.005.025.011.034.038.011.025-.002.052-.011.024-.036.036l-.13.045q-.059.02-.1.036l-.04.015-.029.01-.03.008q-.008.002-.02.002z" opacity=".25"/><path d="M8.445 7.993q-.018 0-.033-.002l-.03-.007q-.04-.011-.056-.047-.02-.045 0-.108.023-.065.072-.166.01-.018.018-.04l.02-.043q-.029.01-.063.038l-.065.051q-.022.018-.05.014-.028-.005-.046-.025-.018-.022-.014-.05.005-.026.025-.046l.065-.05q.034-.027.072-.045.092-.047.168-.024.036.006.054.044.018.039-.002.09-.018.052-.063.146l-.024.054-.023.052-.007.016-.004.013q.022-.002.056-.013.036-.012.08-.034.048-.025.109-.065.06-.04.139-.101l.115-.097.094-.085.065-.063.025-.025q.027-.031.065-.02.018.004.03.016.01.01.017.022.016.032.002.074-.013.043-.05.133l-.026.058q-.011.03-.023.054l-.006.025q.031-.005.067-.025.036-.02.072-.045.036-.025.067-.051.032-.03.057-.05.022-.02.049-.018.027.002.047.023.018.022.016.049 0 .027-.023.047-.051.047-.105.09-.054.04-.11.072-.054.03-.11.043-.056.01-.11-.003-.036-.013-.052-.045-.014-.031-.01-.067.008-.038.028-.097-.025.023-.052.043l-.054.045q-.31.245-.483.245z" opacity=".25"/><path d="M9.971 7.865q-.027 0-.045-.016-.036-.03-.02-.074l.016-.054.04-.117.02-.065.016-.052-.108.04-.13.05-.14.052-.139.052q-.024.009-.049-.003-.027-.013-.038-.04-.01-.025.004-.05.012-.026.039-.038l.208-.076.2-.074.149-.056.06-.023.02-.002q.012-.002.023.002.031.005.045.036.011.018.009.047 0 .027-.011.079-.007.03-.018.065l-.025.079-.004.015-.005.016q.09-.05.22-.103.025-.011.05 0 .024.009.036.033.013.025.002.052-.011.027-.036.038-.077.034-.142.065l-.112.057-.101.054q-.014.01-.034.01z" opacity=".25"/><path d="M11.121 7.842q-.016 0-.03-.004-.042-.01-.06-.052-.013-.038.007-.085.02-.047.058-.106.014-.02.025-.04l.022-.04q.007-.01.012-.023-.068-.011-.158-.005-.087.005-.197.034-.1.025-.21.065-.11.039-.233.092-.025.012-.05.003-.024-.012-.035-.036-.014-.025-.002-.052.01-.027.036-.038.128-.056.24-.097.115-.042.22-.067.276-.07.452-.023.051.014.072.063.02.052-.01.113-.029.058-.07.123l-.008.011-.007.016q.052-.011.15-.045.102-.033.281-.099.025-.009.05.005.027.011.036.038.011.025 0 .052-.011.024-.04.036l-.19.065-.152.05q-.092.026-.14.037-.044.01-.069.01z" opacity=".25"/><path d="M12.169 7.865q-.027 0-.045-.016-.036-.03-.02-.074l.016-.054.04-.117.02-.065.016-.052-.108.04-.13.05-.14.052-.139.052q-.024.009-.05-.003-.026-.013-.037-.04-.01-.025.004-.05.011-.026.038-.038l.21-.076.2-.074.147-.056.061-.023.02-.002q.012-.002.023.002.031.005.045.036.011.018.009.047 0 .027-.012.079-.006.03-.017.065l-.025.079-.005.015-.004.016q.09-.05.22-.103.025-.011.05 0 .024.009.035.033.014.025.003.052-.012.027-.036.038-.077.034-.142.065l-.112.057-.101.054q-.014.01-.034.01z" opacity=".25"/><path d="M13.042 7.865q-.027 0-.045-.016-.036-.03-.02-.074l.016-.054.04-.117.02-.065.016-.052-.108.04-.13.05-.14.052-.139.052q-.024.009-.05-.003-.026-.013-.037-.04-.01-.025.004-.05.011-.026.038-.038l.21-.076.2-.074.147-.056.061-.023.02-.002q.012-.002.023.002.031.005.045.036.011.018.009.047 0 .027-.012.079-.006.03-.017.065l-.025.079-.005.015-.004.016q.09-.05.22-.103.025-.011.05 0 .024.009.035.033.014.025.003.052-.012.027-.036.038-.077.034-.142.065l-.112.057-.101.054q-.014.01-.034.01z" opacity=".25"/></g><g fill="#333"><path d="M5.44 7.843q-.018 0-.034-.002-.013-.002-.03-.007-.04-.011-.055-.047-.02-.045 0-.108.022-.065.072-.166l.018-.04q.009-.023.02-.043-.03.011-.063.038l-.065.052q-.023.018-.05.013-.029-.004-.047-.025-.018-.022-.013-.049.004-.027.024-.047l.066-.05q.034-.027.071-.045.093-.047.169-.024.036.006.054.045.018.038-.002.09-.018.051-.063.146-.011.026-.025.053l-.022.052-.007.016-.005.013q.023-.002.057-.013.035-.011.08-.034.048-.025.108-.065t.14-.101l.114-.097q.054-.047.094-.085t.066-.063.024-.025q.027-.031.065-.02.018.005.03.016l.018.022q.015.032.002.074-.014.043-.05.133l-.027.058q-.01.03-.022.054-.002.012-.007.025.032-.004.068-.025.036-.02.072-.045.035-.024.067-.051.031-.03.056-.05.023-.02.05-.018.026.003.047.023.018.022.015.05 0 .026-.022.046-.052.048-.106.09-.054.04-.11.072-.054.03-.11.043-.056.011-.11-.002-.036-.014-.052-.045-.013-.032-.009-.068.007-.038.027-.096-.024.022-.051.042l-.054.045q-.31.245-.483.245z" opacity=".25"/><path d="M6.633 7.843q-.018 0-.033-.002-.014-.002-.03-.007-.04-.011-.056-.047-.02-.045 0-.108.023-.065.072-.166.01-.018.018-.04l.02-.043q-.029.011-.063.038l-.065.052q-.022.018-.05.013-.028-.004-.046-.025-.018-.022-.014-.049.005-.027.025-.047l.065-.05q.034-.027.072-.045.092-.047.168-.024.036.006.054.045.018.038-.002.09-.018.051-.063.146l-.024.053-.023.052-.007.016-.004.013q.022-.002.056-.013.036-.011.08-.034.048-.025.109-.065.06-.04.139-.101l.115-.097.094-.085.065-.063.025-.025q.027-.031.065-.02.018.005.03.016.01.011.017.022.016.032.002.074-.013.043-.05.133l-.026.058q-.011.03-.023.054l-.006.025q.031-.004.067-.025.036-.02.072-.045.036-.024.067-.051.032-.03.057-.05.022-.02.049-.018.027.003.047.023.018.022.016.05 0 .026-.023.046-.051.048-.105.09-.054.04-.11.072-.054.03-.11.043-.056.011-.11-.002-.036-.014-.052-.045-.014-.032-.009-.068.007-.038.027-.096-.025.022-.052.042l-.054.045q-.31.245-.483.245z" opacity=".25"/><path d="M7.946 7.648q-.012 0-.018-.003-.036-.009-.052-.027-.013-.02-.018-.031-.018-.05.01-.101.028-.054.071-.112.013-.018.025-.039t.022-.038l.007-.009-.034.014q-.018.009-.043.027-.04.024-.085.065l-.092.08q-.011.012-.025.023l-.022.02q-.02.018-.047.018-.03-.002-.048-.024-.02-.02-.017-.048.002-.029.022-.047l.025-.02.022-.022q.054-.05.106-.092.054-.045.103-.077.052-.031.101-.045.052-.016.099-.002.038.011.054.031t.02.036q.02.052-.009.106-.03.054-.074.119-.004.004-.011.016l-.011.018q.033-.014.085-.032l.132-.051q.03-.01.054.004.025.011.034.038.011.025-.002.052-.011.025-.036.036l-.13.045q-.059.02-.1.036l-.04.015-.029.01-.03.008q-.008.003-.02.003z" opacity=".25"/><path d="M8.445 7.843q-.018 0-.033-.002-.014-.002-.03-.007-.04-.011-.056-.047-.02-.045 0-.108.023-.065.072-.166.01-.018.018-.04l.02-.043q-.029.011-.063.038l-.065.052q-.022.018-.05.013-.028-.004-.046-.025-.018-.022-.014-.049.005-.027.025-.047l.065-.05q.034-.027.072-.045.092-.047.168-.024.036.006.054.045.018.038-.002.09-.018.051-.063.146l-.024.053-.023.052-.007.016-.004.013q.022-.002.056-.013.036-.011.08-.034.048-.025.109-.065.06-.04.139-.101l.115-.097.094-.085.065-.063.025-.025q.027-.031.065-.02.018.005.03.016.01.011.017.022.016.032.002.074-.013.043-.05.133l-.026.058q-.011.03-.023.054l-.006.025q.031-.004.067-.025.036-.02.072-.045.036-.024.067-.051.032-.03.057-.05.022-.02.049-.018.027.003.047.023.018.022.016.05 0 .026-.023.046-.051.048-.105.09-.054.04-.11.072-.054.03-.11.043-.056.011-.11-.002-.036-.014-.052-.045-.014-.032-.01-.068.008-.038.028-.096-.025.022-.052.042l-.054.045q-.31.245-.483.245z" opacity=".25"/><path d="M9.971 7.715q-.027 0-.045-.016-.036-.029-.02-.074l.016-.054.04-.116.02-.066.016-.051-.108.04-.13.05-.14.051-.139.052q-.024.009-.049-.002-.027-.014-.038-.04-.01-.025.004-.05.012-.027.039-.038l.208-.077.2-.074.149-.056.06-.023.02-.002q.012-.002.023.002.031.005.045.036.011.018.009.048 0 .027-.011.078-.007.03-.018.065l-.025.079-.004.016-.005.015q.09-.049.22-.103.025-.011.05 0 .024.01.036.034.013.024.002.051-.011.027-.036.039-.077.033-.142.065-.065.031-.112.056l-.101.054q-.014.011-.034.011z" opacity=".25"/><path d="M11.121 7.693q-.016 0-.03-.005-.042-.009-.06-.052-.013-.038.007-.085.02-.047.058-.106.014-.02.025-.04l.022-.04q.007-.01.012-.023-.068-.011-.158-.004-.087.004-.197.033-.1.025-.21.066-.11.038-.233.092-.025.01-.05.002-.024-.011-.035-.036-.014-.025-.002-.052.01-.027.036-.038.128-.056.24-.097.115-.042.22-.067.276-.07.452-.022.051.013.072.063.02.051-.01.112-.029.058-.07.123l-.008.012-.007.015q.052-.01.15-.045.102-.033.281-.098.025-.01.05.004.027.011.036.038.011.025 0 .052-.011.025-.04.036l-.19.065q-.085.03-.152.05l-.14.038q-.044.009-.069.009z" opacity=".25"/><path d="M12.169 7.715q-.027 0-.045-.016-.036-.029-.02-.074l.016-.054.04-.116.02-.066.016-.051-.108.04-.13.05-.14.051-.139.052q-.024.009-.05-.002-.026-.014-.037-.04-.01-.025.004-.05.011-.027.038-.038l.21-.077.2-.074.147-.056.061-.023.02-.002q.012-.002.023.002.031.005.045.036.011.018.009.048 0 .027-.012.078-.006.03-.017.065l-.025.079-.005.016-.004.015q.09-.049.22-.103.025-.011.05 0 .024.01.035.034.014.024.003.051-.012.027-.036.039-.077.033-.142.065-.065.031-.112.056l-.101.054q-.014.011-.034.011z" opacity=".25"/><path d="M13.042 7.715q-.027 0-.045-.016-.036-.029-.02-.074l.016-.054.04-.116.02-.066.016-.051-.108.04-.13.05-.14.051-.139.052q-.024.009-.05-.002-.026-.014-.037-.04-.01-.025.004-.05.011-.027.038-.038l.21-.077.2-.074.147-.056.061-.023.02-.002q.012-.002.023.002.031.005.045.036.011.018.009.048 0 .027-.012.078-.006.03-.017.065l-.025.079-.005.016-.004.015q.09-.049.22-.103.025-.011.05 0 .024.01.035.034.014.024.003.051-.012.027-.036.039-.077.033-.142.065-.065.031-.112.056l-.101.054q-.014.011-.034.011z" opacity=".25"/></g><g fill="#fff"><path d="M5.428 10q-.018 0-.034-.002-.013-.002-.03-.007-.04-.011-.055-.047-.02-.045 0-.108.022-.065.072-.166l.018-.04q.009-.023.02-.043-.03.011-.063.038l-.065.052q-.023.018-.05.013-.029-.004-.047-.025-.018-.022-.013-.05.004-.026.024-.046l.066-.05q.034-.027.071-.045.093-.047.169-.024.036.006.054.045.018.038-.002.09-.018.051-.063.146-.011.026-.025.053l-.022.052-.007.016-.005.013q.023-.002.057-.013.035-.011.08-.034.048-.025.108-.065t.14-.101l.114-.097q.054-.047.094-.085t.066-.063.024-.025q.027-.031.065-.02.018.005.03.016l.018.022q.015.032.002.074-.014.043-.05.133l-.027.058q-.01.03-.022.054-.002.012-.007.025.032-.005.068-.025.036-.02.072-.045.035-.024.067-.051.031-.03.056-.05.023-.02.05-.018.026.002.047.023.018.022.015.05 0 .026-.022.046-.052.048-.106.09-.054.04-.11.072-.054.03-.11.043-.056.011-.11-.002-.036-.014-.052-.045-.013-.032-.009-.068.007-.038.027-.096-.024.022-.051.042l-.054.045Q5.6 10 5.428 10z" opacity=".25"/><path d="M6.621 10q-.018 0-.034-.002-.013-.002-.029-.007-.04-.011-.056-.047-.02-.045 0-.108.023-.065.072-.166l.018-.04q.009-.023.02-.043-.029.011-.063.038l-.065.052q-.022.018-.05.013-.028-.004-.046-.025-.018-.022-.014-.05.005-.026.025-.046l.065-.05q.034-.027.072-.045.092-.047.168-.024.036.006.054.045.018.038-.002.09-.018.051-.063.146-.011.026-.025.053-.01.027-.022.052l-.007.016-.004.013q.022-.002.056-.013.036-.011.08-.034.048-.025.109-.065.06-.04.139-.101l.114-.097.095-.085.065-.063.025-.025q.027-.031.065-.02.018.005.029.016.011.011.018.022.016.032.002.074-.013.043-.05.133l-.026.058q-.011.03-.023.054l-.006.025q.031-.005.067-.025.036-.02.072-.045t.067-.051q.032-.03.056-.05.023-.02.05-.018.027.002.047.023.018.022.016.05 0 .026-.023.046-.051.048-.105.09-.054.04-.11.072-.054.03-.11.043-.057.011-.11-.002-.036-.014-.052-.045-.014-.032-.01-.068.008-.038.028-.096-.025.022-.052.042l-.054.045q-.31.245-.483.245z" opacity=".25"/><path d="M8.423 9.85q-.015 0-.029-.005-.042-.009-.06-.051-.014-.039.006-.086.02-.047.059-.105l.024-.04.023-.041q.007-.01.011-.023-.067-.011-.157-.004-.088.004-.198.033-.099.025-.209.066-.11.038-.233.092-.025.01-.05.002-.025-.011-.036-.036-.013-.025-.002-.052.011-.027.036-.038.128-.056.24-.097.115-.042.22-.067.277-.07.452-.022.052.013.072.063.02.051-.01.112-.028.058-.069.123l-.009.012-.006.015q.051-.01.15-.045.101-.033.28-.098.026-.01.05.004.027.011.036.038.011.025 0 .052-.011.025-.04.036l-.189.065q-.085.03-.153.05l-.139.038q-.045.009-.07.009z" opacity=".25"/><path d="M9.259 9.805q-.012 0-.018-.002-.036-.01-.052-.027-.013-.02-.018-.032-.018-.05.01-.1.028-.055.071-.113l.025-.038.022-.039.007-.009-.034.014q-.018.009-.043.027-.04.025-.085.065l-.092.08q-.011.012-.025.023l-.022.02q-.02.019-.047.019-.03-.003-.048-.025-.02-.02-.017-.047.002-.03.022-.048l.025-.02.022-.022q.054-.05.106-.092.054-.045.103-.077.052-.031.101-.045.052-.015.099-.002.038.011.054.032t.02.036q.02.051-.009.105-.03.054-.074.12l-.011.015-.011.018q.033-.014.085-.032l.132-.051q.03-.01.054.004.025.011.034.038.011.025-.002.052-.011.025-.036.036l-.13.045q-.059.02-.1.036l-.04.016-.029.009q-.018.004-.029.009-.009.002-.02.002z" opacity=".25"/><path d="M9.877 9.805q-.01 0-.018-.002-.036-.01-.051-.027-.014-.02-.018-.032-.018-.05.009-.1.029-.055.072-.113.013-.018.024-.038t.023-.039l.006-.009-.033.014q-.018.009-.043.027-.04.025-.085.065l-.092.08-.025.023-.023.02q-.02.019-.047.019-.029-.003-.047-.025-.02-.02-.018-.047.002-.03.023-.048.01-.01.024-.02l.023-.022q.054-.05.105-.092.054-.045.104-.077.051-.031.1-.045.052-.015.1-.002.038.011.054.032t.02.036q.02.051-.01.105-.028.054-.073.12-.005.004-.012.015l-.01.018q.033-.014.085-.032l.132-.051q.03-.01.054.004.025.011.034.038.01.025-.003.052-.01.025-.035.036l-.13.045q-.06.02-.1.036l-.04.016-.03.009q-.017.004-.028.009l-.02.002z" opacity=".25"/><path d="M10.709 9.872q-.027 0-.045-.016-.036-.029-.02-.074l.016-.054.04-.116.02-.066.016-.051-.108.04-.13.05-.14.051-.139.052q-.024.009-.05-.002-.026-.014-.037-.04-.01-.025.004-.05.011-.027.038-.038l.21-.077.2-.074q.09-.033.147-.056l.061-.022q.011-.003.02-.003.012-.002.023.003.031.004.045.036.011.018.009.047 0 .027-.012.078-.006.03-.017.066l-.025.078q-.002.01-.005.016l-.004.016q.09-.05.22-.104.025-.011.05 0 .024.01.035.034.014.025.003.052-.012.027-.036.038-.077.033-.142.065-.065.031-.112.056l-.101.054q-.014.011-.034.011zm1.634.128q-.018 0-.034-.002-.013-.002-.029-.007-.04-.011-.056-.047-.02-.045 0-.108.022-.065.072-.166l.018-.04q.009-.023.02-.043-.03.011-.063.038l-.065.052q-.022.018-.05.013-.029-.004-.047-.025-.018-.022-.013-.05.004-.026.025-.046l.065-.05q.034-.027.072-.045.092-.047.168-.024.036.006.054.045.018.038-.002.09-.018.051-.063.146-.011.026-.025.053l-.022.052-.007.016-.004.013q.022-.002.056-.013.036-.011.08-.034.048-.025.108-.065.061-.04.14-.101l.114-.097.095-.085.065-.063.024-.025q.027-.031.066-.02.018.005.029.016.011.011.018.022.015.032.002.074-.014.043-.05.133l-.026.058-.023.054q-.002.012-.007.025.032-.005.068-.025.036-.02.072-.045t.067-.051q.032-.03.056-.05.023-.02.05-.018.027.002.047.023.018.022.016.05 0 .026-.023.046-.052.048-.105.09-.054.04-.11.072-.054.03-.11.043-.057.011-.11-.002-.037-.014-.052-.045-.014-.032-.01-.068.007-.038.028-.096-.025.022-.052.042l-.054.045q-.31.245-.483.245z" opacity=".25"/><path d="m13.639 10.005-.022-.002-.025-.002q-.027-.01-.045-.039-.007-.013-.01-.031-.001-.02.005-.058l.027-.104.054-.173q-.051.018-.114.043l-.13.05q-.025.008-.05-.003-.027-.013-.038-.04-.01-.025.004-.05.012-.027.038-.038l.14-.052.119-.042.083-.032.031-.013q.023-.01.043-.002.03.006.043.033.011.02.006.036l-.006.034q-.005.009-.007.02l-.007.023q-.015.038-.033.094l-.034.11-.018.054-.011.04q.042-.009.123-.051.07-.038.149-.088.078-.05.164-.108.018-.01.035-.022t.036-.025q.025-.016.052-.009.027.005.045.03.016.024.009.051-.004.025-.03.04-.017.014-.037.027l-.039.025-.166.108q-.08.052-.153.09-.146.076-.23.076z" opacity=".25"/></g><g fill="#333"><path d="M5.428 9.85q-.018 0-.034-.002l-.03-.006q-.04-.012-.055-.048-.02-.045 0-.107.022-.066.072-.167l.018-.04q.009-.023.02-.043-.03.011-.063.038l-.065.052q-.023.018-.05.014-.029-.005-.047-.025-.018-.023-.013-.05.004-.027.024-.047.032-.022.066-.05t.071-.044q.093-.047.169-.025.036.007.054.045.018.038-.002.09-.018.052-.063.146-.011.027-.025.054l-.022.052-.007.015-.005.014q.023-.002.057-.014.035-.01.08-.033.048-.025.108-.066.06-.04.14-.1l.114-.097q.054-.047.094-.086t.066-.062.024-.025q.027-.032.065-.02.018.004.03.015l.018.023q.015.031.002.074-.014.043-.05.132l-.027.059q-.01.029-.022.054-.002.011-.007.024.032-.004.068-.024.036-.02.072-.045.035-.025.067-.052l.056-.05q.023-.02.05-.017.026.002.047.022.018.023.015.05 0 .027-.022.047-.052.047-.106.09-.054.04-.11.072-.054.029-.11.042-.056.011-.11-.002-.036-.013-.052-.045-.013-.031-.009-.067.007-.038.027-.097-.024.023-.051.043l-.054.045q-.31.245-.483.245z" opacity=".25"/><path d="M6.621 9.85q-.018 0-.034-.002l-.029-.006q-.04-.012-.056-.048-.02-.045 0-.107.023-.066.072-.167l.018-.04q.009-.023.02-.043-.029.011-.063.038l-.065.052q-.022.018-.05.014-.028-.005-.046-.025-.018-.023-.014-.05.005-.027.025-.047.031-.022.065-.05t.072-.044q.092-.047.168-.025.036.007.054.045.018.038-.002.09-.018.052-.063.146-.011.027-.025.054-.01.027-.022.052l-.007.015-.004.014q.022-.002.056-.014.036-.01.08-.033.048-.025.109-.066.06-.04.139-.1l.114-.097q.054-.047.095-.086l.065-.062.025-.025q.027-.032.065-.02.018.004.029.015.011.012.018.023.016.031.002.074-.013.043-.05.132l-.026.059q-.011.029-.023.054l-.006.024q.031-.004.067-.024.036-.02.072-.045t.067-.052l.056-.05q.023-.02.05-.017.027.002.047.022.018.023.016.05 0 .027-.023.047-.051.047-.105.09-.054.04-.11.072-.054.029-.11.042-.057.011-.11-.002-.036-.013-.052-.045-.014-.031-.01-.067.008-.038.028-.097-.025.023-.052.043l-.054.045q-.31.245-.483.245z" opacity=".25"/><path d="M8.423 9.7q-.015 0-.029-.004-.042-.01-.06-.052-.014-.038.006-.086.02-.047.059-.105l.024-.04.023-.041q.007-.009.011-.022-.067-.012-.157-.005-.088.005-.198.034-.099.024-.209.065-.11.038-.233.092-.025.011-.05.002-.025-.011-.036-.036-.013-.024-.002-.051.011-.027.036-.039.128-.056.24-.096.115-.043.22-.068.277-.07.452-.022.052.013.072.063.02.052-.01.112-.028.059-.069.124l-.009.01-.006.017q.051-.012.15-.045.101-.034.28-.1.026-.008.05.005.027.012.036.039.011.024 0 .051-.011.025-.04.036l-.189.065q-.085.03-.153.05-.092.027-.139.038-.045.009-.07.009z" opacity=".25"/><path d="M9.259 9.655q-.012 0-.018-.002-.036-.01-.052-.027-.013-.02-.018-.032-.018-.049.01-.1.028-.055.071-.113l.025-.038.022-.038.007-.01-.034.014q-.018.01-.043.027-.04.025-.085.065-.045.038-.092.081l-.025.023-.022.02q-.02.018-.047.018-.03-.002-.048-.025-.02-.02-.017-.047.002-.03.022-.047.011-.012.025-.02.01-.012.022-.023.054-.05.106-.092.054-.045.103-.077.052-.031.101-.044.052-.016.099-.003.038.012.054.032t.02.036q.02.051-.009.105-.03.054-.074.12l-.011.015-.011.018.085-.031q.054-.02.132-.052.03-.009.054.004.025.012.034.039.011.024-.002.051-.011.025-.036.036l-.13.045q-.059.02-.1.036-.022.01-.04.016l-.029.009q-.018.004-.029.009-.009.002-.02.002z" opacity=".25"/><path d="M9.877 9.655q-.01 0-.018-.002-.036-.01-.051-.027-.014-.02-.018-.032-.018-.049.009-.1.029-.055.072-.113.013-.018.024-.038t.023-.038l.006-.01-.033.014q-.018.01-.043.027-.04.025-.085.065-.045.038-.092.081l-.025.023-.023.02q-.02.018-.047.018-.029-.002-.047-.025-.02-.02-.018-.047.002-.03.023-.047.01-.012.024-.02l.023-.023q.054-.05.105-.092.054-.045.104-.077.051-.031.1-.044.052-.016.1-.003.038.012.054.032t.02.036q.02.051-.01.105-.028.054-.073.12-.005.004-.012.015-.004.01-.01.018l.085-.031.132-.052q.03-.009.054.004.025.012.034.039.01.024-.003.051-.01.025-.035.036l-.13.045q-.06.02-.1.036-.022.01-.04.016l-.03.009q-.017.004-.028.009l-.02.002z" opacity=".25"/><path d="M10.709 9.722q-.027 0-.045-.015-.036-.03-.02-.074l.016-.054.04-.117.02-.065.016-.052-.108.04-.13.05-.14.052-.139.051q-.024.01-.05-.002-.026-.013-.037-.04-.01-.025.004-.05.011-.027.038-.038l.21-.076q.11-.04.2-.075.09-.033.147-.056l.061-.022.02-.002q.012-.003.023.002.031.004.045.036.011.018.009.047 0 .027-.012.079-.006.029-.017.065l-.025.078q-.002.01-.005.016l-.004.016q.09-.05.22-.104.025-.01.05 0 .024.01.035.034.014.025.003.052-.012.027-.036.038-.077.034-.142.065l-.112.056-.101.054q-.014.011-.034.011zm1.634.128q-.018 0-.034-.002l-.029-.006q-.04-.012-.056-.048-.02-.045 0-.107.022-.066.072-.167l.018-.04q.009-.023.02-.043-.03.011-.063.038l-.065.052q-.022.018-.05.014-.029-.005-.047-.025-.018-.023-.013-.05.004-.027.025-.047.031-.022.065-.05t.072-.044q.092-.047.168-.025.036.007.054.045.018.038-.002.09-.018.052-.063.146-.011.027-.025.054l-.022.052-.007.015-.004.014q.022-.002.056-.014.036-.01.08-.033.048-.025.108-.066.061-.04.14-.1l.114-.097q.054-.047.095-.086l.065-.062.024-.025q.027-.032.066-.02.018.004.029.015.011.012.018.023.015.031.002.074-.014.043-.05.132l-.026.059-.023.054q-.002.011-.007.024.032-.004.068-.024.036-.02.072-.045t.067-.052l.056-.05q.023-.02.05-.017.027.002.047.022.018.023.016.05 0 .027-.023.047-.052.047-.105.09-.054.04-.11.072-.054.029-.11.042-.057.011-.11-.002-.037-.013-.052-.045-.014-.031-.01-.067.007-.038.028-.097-.025.023-.052.043l-.054.045q-.31.245-.483.245z" opacity=".25"/><path d="m13.639 9.855-.022-.002-.025-.002q-.027-.01-.045-.039-.007-.013-.01-.031-.001-.02.005-.058l.027-.104.054-.173q-.051.018-.114.043l-.13.05q-.025.008-.05-.003-.027-.013-.038-.04-.01-.025.004-.05.012-.027.038-.038l.14-.052.119-.042.083-.032.031-.013q.023-.01.043-.002.03.006.043.033.011.02.006.036l-.006.034q-.005.009-.007.02l-.007.023q-.015.038-.033.094l-.034.11-.018.054-.011.04q.042-.009.123-.051.07-.038.149-.088.078-.05.164-.108.018-.01.035-.022.018-.011.036-.025.025-.016.052-.009.027.005.045.03.016.024.009.051-.004.025-.03.04-.017.014-.037.027l-.039.025-.166.108q-.08.052-.153.09-.146.076-.23.076z" opacity=".25"/></g><g fill="#fff"><path d="M5.617 11.77q-.011 0-.018-.002-.036-.01-.052-.027-.013-.02-.018-.032-.018-.049.01-.1.028-.055.071-.113.014-.018.025-.038t.022-.038l.007-.01-.034.014q-.018.01-.042.027-.04.025-.086.065-.045.038-.092.081l-.025.023-.022.02q-.02.018-.047.018-.03-.002-.047-.025-.02-.02-.018-.047.002-.03.022-.047.011-.012.025-.02l.022-.023q.054-.05.106-.092.054-.045.103-.077.052-.031.101-.044.052-.016.1-.003.037.012.053.032t.02.036q.02.051-.009.105-.029.054-.074.12l-.011.015-.011.018.085-.031q.054-.02.133-.052.029-.009.054.004.024.012.033.039.011.024-.002.051-.011.025-.036.036l-.13.045q-.059.02-.099.036-.022.01-.04.016l-.03.009q-.018.004-.029.009-.009.002-.02.002z" opacity=".25"/><path d="M6.117 11.966q-.018 0-.034-.002-.014-.002-.03-.007-.04-.011-.056-.047-.02-.045 0-.108.023-.065.072-.166.01-.018.018-.04l.02-.043q-.029.011-.062.038l-.066.052q-.022.018-.049.013-.03-.004-.047-.025-.018-.022-.014-.05.005-.026.025-.046.032-.023.065-.05t.072-.045q.092-.047.169-.024.036.006.054.045.018.038-.003.09-.018.051-.063.146-.01.026-.024.053l-.023.052-.006.016-.005.013q.023-.002.056-.013.036-.011.081-.034.047-.025.108-.065.06-.04.14-.101l.114-.097q.054-.047.094-.085l.065-.063.025-.025q.027-.031.065-.02.018.005.03.016.01.011.017.022.016.032.002.074-.013.043-.049.133l-.027.058q-.011.03-.022.054l-.007.025q.031-.005.067-.025.036-.02.072-.045.036-.024.068-.051.031-.03.056-.05.022-.02.05-.018.026.002.046.023.018.022.016.05 0 .026-.022.046-.052.047-.106.09-.054.04-.11.072-.054.03-.11.043-.056.011-.11-.002-.036-.014-.052-.045-.013-.032-.009-.068.007-.038.027-.096-.025.022-.052.042l-.053.045q-.31.245-.483.245z" opacity=".25"/><path d="M7.919 11.815q-.016 0-.03-.004-.042-.01-.06-.052-.014-.038.007-.086.02-.047.058-.105l.025-.04.022-.041q.007-.009.011-.022-.067-.012-.157-.005-.087.005-.198.034-.098.024-.208.065-.11.038-.234.092-.025.011-.05.002-.024-.011-.035-.036-.014-.024-.003-.051.012-.027.036-.039.128-.056.24-.096.115-.043.22-.068.277-.07.452-.022.052.013.072.063.02.052-.009.112-.029.059-.07.124L8 11.65l-.007.017q.052-.012.15-.045.101-.034.281-.1.025-.008.05.005.027.012.036.039.01.024 0 .051-.012.025-.04.036l-.19.065q-.085.03-.152.05-.092.027-.14.038-.045.009-.07.009z" opacity=".25"/><path d="m8.738 11.97-.022-.002-.025-.002q-.027-.01-.045-.039-.007-.013-.009-.031-.002-.02.005-.058.009-.039.027-.104l.053-.173q-.051.018-.114.043l-.13.05q-.025.008-.05-.003-.027-.013-.038-.04-.009-.025.004-.05.012-.027.039-.038l.139-.052.119-.042.083-.032.032-.013q.022-.01.042-.002.03.006.043.033.011.02.007.036l-.007.034q-.005.009-.007.02l-.006.023q-.016.038-.034.094l-.034.11-.018.054-.011.04q.043-.009.124-.051.07-.038.148-.088.078-.05.164-.108l.036-.022.036-.025q.024-.016.051-.009.027.005.045.03.016.024.01.051-.005.025-.03.04l-.038.027-.038.025-.167.108q-.08.052-.152.09-.146.076-.232.076z" opacity=".25"/><path d="M9.512 11.966q-.018 0-.033-.002-.014-.002-.03-.007-.04-.011-.056-.047-.02-.045 0-.108.023-.065.072-.166.01-.018.018-.04l.02-.043q-.029.011-.062.038l-.066.052q-.022.018-.049.013-.03-.004-.047-.025-.018-.022-.014-.05.005-.026.025-.046l.065-.05q.034-.027.072-.045.092-.047.169-.024.035.006.053.045.018.038-.002.09-.018.051-.063.146-.01.026-.024.053l-.023.052-.007.016-.004.013q.022-.002.056-.013.036-.011.081-.034.047-.025.108-.065.06-.04.14-.101l.114-.097q.054-.047.094-.085l.065-.063.025-.025q.027-.031.065-.02.018.005.03.016.01.011.017.022.016.032.002.074-.013.043-.049.133l-.027.058q-.011.03-.022.054l-.007.025q.031-.005.067-.025.036-.02.072-.045t.068-.051q.031-.03.056-.05.022-.02.05-.018.026.002.046.023.018.022.016.05 0 .026-.022.046-.052.047-.106.09-.054.04-.11.072-.054.03-.11.043-.056.011-.11-.002-.036-.014-.052-.045-.013-.032-.009-.068.007-.038.027-.096-.025.022-.052.042l-.054.045q-.31.245-.483.245z" opacity=".25"/><path d="m10.809 11.97-.022-.002-.025-.002q-.027-.01-.045-.039-.007-.013-.01-.031-.001-.02.005-.058l.027-.104.054-.173q-.051.018-.114.043l-.13.05q-.025.008-.05-.003-.027-.013-.038-.04-.01-.025.004-.05.012-.027.038-.038l.14-.052.119-.042.083-.032.031-.013q.023-.01.043-.002.03.006.043.033.011.02.006.036l-.006.034q-.005.009-.007.02l-.007.023q-.015.038-.033.094l-.034.11-.018.054-.011.04q.042-.009.123-.051.07-.038.149-.088.078-.05.164-.108.018-.01.035-.022t.036-.025q.025-.016.052-.009.027.005.045.03.016.024.009.051-.004.025-.03.04-.017.014-.037.027l-.039.025-.166.108q-.08.052-.153.09-.146.076-.23.076z" opacity=".25"/></g><g fill="#333"><path d="M5.617 11.621q-.011 0-.018-.002-.036-.01-.052-.027-.013-.02-.018-.032-.018-.049.01-.1.028-.055.071-.113.014-.018.025-.038t.022-.038l.007-.01-.034.014q-.018.01-.042.027-.04.025-.086.065-.045.038-.092.081l-.025.023-.022.02q-.02.018-.047.018-.03-.002-.047-.025-.02-.02-.018-.047.002-.03.022-.047.011-.012.025-.02l.022-.023q.054-.05.106-.092.054-.045.103-.077.052-.031.101-.044.052-.016.1-.003.037.012.053.032t.02.036q.02.051-.009.105-.029.054-.074.12l-.011.015-.011.018.085-.031q.054-.02.133-.052.029-.009.054.004.024.012.033.039.011.024-.002.051-.011.025-.036.036l-.13.045q-.059.02-.099.036-.022.01-.04.016l-.03.009q-.018.004-.029.009-.009.002-.02.002z" opacity=".25"/><path d="M6.117 11.816q-.018 0-.034-.002-.014-.002-.03-.007-.04-.011-.056-.047-.02-.045 0-.108.023-.065.072-.166.01-.018.018-.04l.02-.043q-.029.011-.062.038l-.066.052q-.022.018-.049.013-.03-.004-.047-.025-.018-.022-.014-.05.005-.026.025-.046.032-.023.065-.05t.072-.045q.092-.047.169-.024.036.006.054.045.018.038-.003.09-.018.051-.063.146-.01.026-.024.053l-.023.052-.006.016-.005.013q.023-.002.056-.013.036-.011.081-.034.047-.025.108-.065.06-.04.14-.101l.114-.097q.054-.047.094-.085t.065-.063.025-.025q.027-.031.065-.02.018.005.03.016.01.011.017.022.016.032.002.074-.013.043-.049.133l-.027.058q-.011.03-.022.054l-.007.025q.031-.005.067-.025.036-.02.072-.045.036-.024.068-.051.031-.03.056-.05.022-.02.05-.018.026.002.046.023.018.022.016.05 0 .026-.022.046-.052.047-.106.09-.054.04-.11.072-.054.03-.11.043-.056.011-.11-.002-.036-.014-.052-.045-.013-.032-.009-.068.007-.038.027-.096-.025.022-.052.042l-.053.045q-.31.245-.483.245z" opacity=".25"/><path d="M7.919 11.666q-.016 0-.03-.004-.042-.01-.06-.052-.014-.038.007-.086.02-.047.058-.105l.025-.04.022-.041q.007-.009.011-.022-.067-.012-.157-.005-.087.005-.198.034-.098.024-.208.065-.11.038-.234.092-.025.011-.05.002-.024-.011-.035-.036-.014-.024-.003-.051.012-.027.036-.039.128-.056.24-.096.115-.043.22-.068.277-.07.452-.022.052.013.072.063.02.052-.009.112-.029.059-.07.124L8 11.5l-.007.017q.052-.012.15-.045.101-.034.281-.1.025-.008.05.005.027.012.036.039.01.024 0 .051-.012.025-.04.036l-.19.065q-.085.03-.152.05-.092.027-.14.038-.045.009-.07.009z" opacity=".25"/><path d="m8.738 11.821-.022-.002-.025-.002q-.027-.01-.045-.039-.007-.013-.009-.031-.002-.02.005-.058.009-.039.027-.104l.053-.173q-.051.018-.114.043l-.13.05q-.025.008-.05-.003-.027-.013-.038-.04-.009-.025.004-.05.012-.027.039-.038l.139-.052.119-.042.083-.032.032-.013q.022-.01.042-.002.03.006.043.033.011.02.007.036l-.007.034q-.005.009-.007.02l-.006.023q-.016.038-.034.094l-.034.11-.018.054-.011.04q.043-.009.124-.051.07-.038.148-.088.078-.05.164-.108l.036-.022.036-.025q.024-.016.051-.009.027.005.045.03.016.024.01.051-.005.025-.03.04l-.038.027-.038.025-.167.108q-.08.052-.152.09-.146.076-.232.076z" opacity=".25"/><path d="M9.512 11.816q-.018 0-.033-.002-.014-.002-.03-.007-.04-.011-.056-.047-.02-.045 0-.108.023-.065.072-.166.01-.018.018-.04l.02-.043q-.029.011-.062.038l-.066.052q-.022.018-.049.013-.03-.004-.047-.025-.018-.022-.014-.05.005-.026.025-.046l.065-.05q.034-.027.072-.045.092-.047.169-.024.035.006.053.045.018.038-.002.09-.018.051-.063.146-.01.026-.024.053l-.023.052-.007.016-.004.013q.022-.002.056-.013.036-.011.081-.034.047-.025.108-.065.06-.04.14-.101l.114-.097q.054-.047.094-.085t.065-.063.025-.025q.027-.031.065-.02.018.005.03.016.01.011.017.022.016.032.002.074-.013.043-.049.133l-.027.058q-.011.03-.022.054l-.007.025q.031-.005.067-.025.036-.02.072-.045t.068-.051q.031-.03.056-.05.022-.02.05-.018.026.002.046.023.018.022.016.05 0 .026-.022.046-.052.047-.106.09-.054.04-.11.072-.054.03-.11.043-.056.011-.11-.002-.036-.014-.052-.045-.013-.032-.009-.068.007-.038.027-.096-.025.022-.052.042l-.054.045q-.31.245-.483.245z" opacity=".25"/><path d="m10.809 11.821-.022-.002-.025-.002q-.027-.01-.045-.039-.007-.013-.01-.031-.001-.02.005-.058l.027-.104.054-.173q-.051.018-.114.043l-.13.05q-.025.008-.05-.003-.027-.013-.038-.04-.01-.025.004-.05.012-.027.038-.038l.14-.052.119-.042.083-.032.031-.013q.023-.01.043-.002.03.006.043.033.011.02.006.036l-.006.034q-.005.009-.007.02l-.007.023q-.015.038-.033.094l-.034.11-.018.054-.011.04q.042-.009.123-.051.07-.038.149-.088.078-.05.164-.108.018-.01.035-.022t.036-.025q.025-.016.052-.009.027.005.045.03.016.024.009.051-.004.025-.03.04-.017.014-.037.027l-.039.025-.166.108q-.08.052-.153.09-.146.076-.23.076z" opacity=".25"/></g><path d="m4 4.736-.73.869-.395-.332-.265.316.711.597L4.315 5z" fill="#fff" opacity=".2"/><path d="m4 4.598-.73.87-.395-.332-.265.316.711.597.994-1.185z" fill="url(#d)" opacity=".2"/><path d="m4 8.768-.73.869-.395-.331-.265.315.711.597.994-1.185z" fill="#fff" opacity=".2"/><path d="m4 8.63-.73.87-.395-.332-.265.316.711.597.994-1.185z" fill="url(#e)" opacity=".2"/><path d="m4 10.822-.73.869-.395-.331-.265.315.711.597.994-1.185z" fill="#fff" opacity=".2"/><path d="m4 10.685-.73.869-.395-.331-.265.315.711.597.994-1.185z" fill="url(#f)" opacity=".2"/><path d="M30.11 4.47a.598.598 0 0 0-.844.075l-3.85 4.589-1.836-1.54a.598.598 0 0 0-.844.073l-.77.918a.598.598 0 0 0 .074.844l3.212 2.695c.254.214.63.18.844-.073l5.006-5.966a.598.598 0 0 0-.074-.844z" fill="none" opacity=".5" stroke="url(#g)" stroke-linecap="square" stroke-linejoin="round" stroke-width=".3" transform="translate(-14.659 1.235) scale(.87155)"/><path d="M30.11 4.47a.598.598 0 0 0-.844.075l-3.85 4.589-1.836-1.54a.598.598 0 0 0-.844.073l-.77.918a.598.598 0 0 0 .074.844l3.212 2.695c.254.214.63.18.844-.073l5.006-5.966a.598.598 0 0 0-.074-.844z" fill="url(#h)" transform="translate(-14.659 1.235) scale(.87155)"/><path d="M11.585 5.131a.521.521 0 0 0-.735.065l-3.356 4-1.6-1.343a.52.52 0 0 0-.736.064l-.671.8a.52.52 0 0 0-.12.368A.39.39 0 0 1 4.419 9l.84-1a.39.39 0 0 1 .55-.048l1.7 1.426 3.44-4.1a.39.39 0 0 1 .552-.048l1 .84a.39.39 0 0 1 .066.073.52.52 0 0 0-.182-.341z" opacity=".24"/><path transform="rotate(40 8.967 8.797) scale(.13052)" d="M66 34c-1.662 0-3 1.338-3 3v41H46c-1.662 0-3 1.338-3 3v10c0 .9.401 1.695 1.025 2.244-.01-.08-.025-.16-.025-.244V81c0-1.108.892-2 2-2h18V37c0-1.108.892-2 2-2h12c.084 0 .163.015.244.025A2.977 2.977 0 0 0 76 34z" clip-path="url(#i)" opacity=".12"/></svg>