<svg width="64" height="64" fill="none" xmlns="http://www.w3.org/2000/svg"><path opacity=".01" d="M16.517 2.003c-7.998 0-14.514 6.735-14.514 14.99V49c0 8.254 6.52 14.997 14.514 14.997h30.97C55.477 63.996 62 57.257 62 49V16.997c0-8.255-6.524-14.998-14.514-14.998l-30.97.004Zm.967 1.966h29.032c6.97 0 12.586 5.797 12.586 13.001v30c0 7.203-5.613 13-12.586 13H17.488c-6.973 0-12.586-5.797-12.586-13v-30c0-7.204 5.613-13.001 12.586-13.001h-.004Z" fill="#000"/><path opacity=".01" d="M16.475 3.001c-7.434 0-13.47 6.248-13.47 13.932v32.126C3.005 56.751 9.04 63 16.475 63h31.053c7.435 0 13.47-6.248 13.47-13.94V16.933c0-7.688-6.035-13.936-13.47-13.936l-31.053.004Zm1.028.968H46.5c6.962 0 12.568 5.797 12.568 13.001v30c0 7.203-5.606 13-12.568 13h-29c-6.963 0-12.568-5.797-12.568-13v-30c0-7.204 5.605-13 12.568-13h.003Z" fill="#000"/><path opacity=".03" d="M16.29 3.999C9.237 3.999 3.534 9.816 3.534 17v32.001C3.534 56.183 9.468 62 16.517 62H47.51c7.052 0 12.952-5.813 12.952-13.002V17c0-7.182-5.707-12.998-12.756-12.998h-.367c6.781.328 12.148 5.979 12.148 12.971v29.999c0 7.204-5.692 13.002-12.764 13.002H17.28c-7.071 0-12.763-5.798-12.763-13.002V16.97C4.517 9.978 9.884 4.328 16.664 4h-.374Z" fill="#000"/><path opacity=".03" d="M4 46.969V49c0 6.648 5.896 12 12.544 12h30.961C54.153 61 60 55.648 60 49v-1.992a12.972 12.972 0 0 1-13 12.963H17.002A12.975 12.975 0 0 1 4 46.969Z" fill="#000"/><path opacity=".05" d="M3.999 45v2.237c0 7.33 5.945 13.229 12.593 13.229h30.842c6.652 0 12.567-5.9 12.567-13.229v-2.192c-.023 7.919-5.81 14.287-13.002 14.287H17.001C9.8 59.332 3.999 52.937 3.999 45Z" fill="#000"/><path d="M46.998 4H17.002C9.822 4 4 9.821 4 17.002v29.996C4 54.178 9.821 60 17.002 60h29.996C54.178 60 60 54.179 60 46.998V17.002C60 9.822 54.179 4 46.998 4Z" fill="url(#a)"/><path d="M36.517 47c-2.757 0-5.221-.367-7.392-1.1-2.17-.763-4.004-1.819-5.5-3.168a13.93 13.93 0 0 1-3.432-4.884c-.792-1.877-1.188-3.96-1.188-6.248 0-2.288.396-4.37 1.188-6.248a13.505 13.505 0 0 1 3.432-4.84c1.526-1.379 3.359-2.435 5.5-3.168 2.171-.763 4.635-1.144 7.392-1.144h4.664v7.436h-4.356c-1.349 0-2.537.205-3.564.616-1.026.41-1.877.983-2.552 1.716a7.066 7.066 0 0 0-1.54 2.508 9.82 9.82 0 0 0-.484 3.124 9.82 9.82 0 0 0 .484 3.124 7.525 7.525 0 0 0 1.54 2.552c.675.704 1.526 1.261 2.552 1.672 1.027.41 2.215.616 3.564.616h4.356V47h-4.664Z" fill="#fff"/><defs><linearGradient id="a" x1="4" y1="4" x2="60" y2="60" gradientUnits="userSpaceOnUse"><stop stop-color="#3FD8FD"/><stop offset="1" stop-color="#0472F9"/></linearGradient></defs></svg>