<svg id="Calculator" width="64" height="64" enable-background="new 0 0 1024 1024" image-rendering="optimizeSpeed" version="1.1" viewBox="0 0 64 64" xmlns="http://www.w3.org/2000/svg">
 <defs>
  <linearGradient id="m" x1="273.56" x2="273.56" y1="329.65" y2="170.3" gradientTransform="matrix(.093746 0 0 .093741 .94485 5.2946)" gradientUnits="userSpaceOnUse">
   <stop stop-color="#b0b0b0" offset="0"/>
   <stop stop-color="#fff" offset="1"/>
  </linearGradient>
  <linearGradient id="g" x1="14.562" x2="14.562" y1="35.137" y2="12.823" gradientTransform="translate(.8557 5.2881)" gradientUnits="userSpaceOnUse">
   <stop stop-color="#68377d" offset="0"/>
   <stop stop-color="#cb7cec" offset="1"/>
  </linearGradient>
  <linearGradient id="h" x1="21.3" x2="21.3" y1="36.168" y2="6.2638" gradientTransform="translate(.94915 5.2881)" gradientUnits="userSpaceOnUse">
   <stop stop-color="#bf4231" offset="0"/>
   <stop stop-color="#f58273" offset="1"/>
  </linearGradient>
  <linearGradient id="a" x1="30.728" x2="30.728" y1="35.756" y2="8.1237" gradientTransform="translate(.94915 5.2881)" gradientUnits="userSpaceOnUse">
   <stop stop-color="#cd7223" offset="0"/>
   <stop stop-color="#ffc169" offset="1"/>
  </linearGradient>
  <linearGradient id="b" x1="38.091" x2="38.091" y1="38.07" y2="11.247" gradientTransform="translate(.94915 5.2881)" gradientUnits="userSpaceOnUse">
   <stop stop-color="#ffa92d" offset="0"/>
   <stop stop-color="#edf573" offset="1"/>
  </linearGradient>
  <linearGradient id="c" x1="31.632" x2="31.632" y1="47.869" y2="24.027" gradientTransform="translate(.94915 5.2881)" gradientUnits="userSpaceOnUse">
   <stop stop-color="#2b4d37" offset="0"/>
   <stop stop-color="#3bb566" offset="1"/>
  </linearGradient>
  <linearGradient id="f" x1="19.26" x2="19.26" y1="47.295" y2="27.686" gradientTransform="translate(.94915 5.2881)" gradientUnits="userSpaceOnUse">
   <stop stop-color="#375a7d" offset="0"/>
   <stop stop-color="#54a3d8" offset="1"/>
  </linearGradient>
  <linearGradient id="linearGradient862-3" x1="7.9373" x2="7.9373" y1="15.081" y2="1.852" gradientTransform="matrix(3.7795 0 0 3.7795 .00014309 .031541)" gradientUnits="userSpaceOnUse">
   <stop stop-color="#f1efeb" offset="0"/>
   <stop stop-color="#fdfcfc" offset="1"/>
  </linearGradient>
  <filter id="filter920" x="-.108" y="-.108" width="1.216" height="1.216" color-interpolation-filters="sRGB">
   <feGaussianBlur stdDeviation="1.800018"/>
  </filter>
 </defs>
 <g transform="scale(3.7796)" shape-rendering="auto">
  <path d="m4.3693 0.52916c-2.1142 0-3.8402 1.7835-3.8402 3.9682v8.4675c0 2.1846 1.726 3.9682 3.8402 3.9682h8.1944c2.1142 0 3.8402-1.7835 3.8402-3.9682v-8.4675c0-2.1846-1.726-3.9682-3.8402-3.9682zm0.25704 0.52089h7.6808c1.8443 0 3.3291 1.5342 3.3291 3.44v7.9368c0 1.9058-1.4847 3.44-3.3291 3.44h-7.6808c-1.8443 0-3.3291-1.5342-3.3291-3.44v-7.9368c0-1.9058 1.4847-3.44 3.3291-3.44z" color="#000000" color-rendering="auto" dominant-baseline="auto" enable-background="accumulate" image-rendering="auto" opacity=".01" solid-color="#000000" stop-color="#000000" style="font-feature-settings:normal;font-variant-alternates:normal;font-variant-caps:normal;font-variant-east-asian:normal;font-variant-ligatures:normal;font-variant-numeric:normal;font-variant-position:normal;font-variation-settings:normal;inline-size:0;isolation:auto;mix-blend-mode:normal;shape-margin:0;shape-padding:0;text-decoration-color:#000000;text-decoration-line:none;text-decoration-style:solid;text-indent:0;text-orientation:mixed;text-transform:none;white-space:normal"/>
  <path d="m4.3587 0.79373c-1.9668 0-3.5639 1.6528-3.5639 3.6876v8.4996c0 2.0348 1.5971 3.6876 3.5639 3.6876h8.2162c1.9668 0 3.5644-1.6528 3.5644-3.6876v-8.4996c0-2.0348-1.5976-3.6876-3.5644-3.6876zm0.27222 0.25631h7.6718c1.8422 0 3.3251 1.5342 3.3251 3.44v7.9368c0 1.9058-1.483 3.44-3.3251 3.44h-7.6718c-1.8422 0-3.3251-1.5342-3.3251-3.44v-7.9368c0-1.9058 1.483-3.44 3.3251-3.44z" color="#000000" color-rendering="auto" dominant-baseline="auto" enable-background="accumulate" image-rendering="auto" opacity=".01" solid-color="#000000" stop-color="#000000" style="font-feature-settings:normal;font-variant-alternates:normal;font-variant-caps:normal;font-variant-east-asian:normal;font-variant-ligatures:normal;font-variant-numeric:normal;font-variant-position:normal;font-variation-settings:normal;inline-size:0;isolation:auto;mix-blend-mode:normal;shape-margin:0;shape-padding:0;text-decoration-color:#000000;text-decoration-line:none;text-decoration-style:solid;text-indent:0;text-orientation:mixed;text-transform:none;white-space:normal"/>
  <path d="m4.3097 1.0583c-1.8657 0-3.3751 1.5383-3.3751 3.439v8.4675c0 1.9007 1.57 3.439 3.4357 3.439h8.1996c1.8657 0 3.4274-1.5383 3.4274-3.439v-8.4675c0-1.9007-1.51-3.439-3.3756-3.439h-0.09688c1.794 0.086515 3.2138 1.5819 3.2138 3.4318v7.9368c0 1.9058-1.5059 3.44-3.3766 3.44h-7.7905c-1.8707 0-3.3766-1.5342-3.3766-3.44v-7.9368c0-1.8498 1.4199-3.3451 3.2138-3.4318z" color="#000000" color-rendering="auto" dominant-baseline="auto" enable-background="accumulate" image-rendering="auto" opacity=".03" solid-color="#000000" stop-color="#000000" style="font-feature-settings:normal;font-variant-alternates:normal;font-variant-caps:normal;font-variant-east-asian:normal;font-variant-ligatures:normal;font-variant-numeric:normal;font-variant-position:normal;font-variation-settings:normal;inline-size:0;isolation:auto;mix-blend-mode:normal;shape-margin:0;shape-padding:0;text-decoration-color:#000000;text-decoration-line:none;text-decoration-style:solid;text-indent:0;text-orientation:mixed;text-transform:none;white-space:normal"/>
  <path transform="scale(.26458)" d="m4 46.969v2.0312c0 6.6479 5.8957 12 12.544 12h30.961c6.6479 0 12.495-5.3521 12.495-12v-1.9922c-0.021173 7.1849-5.81 12.963-13 12.963h-29.998c-7.2032 0-13.002-5.7987-13.002-13.002z" color="#000000" color-rendering="auto" dominant-baseline="auto" enable-background="accumulate" image-rendering="auto" opacity=".03" solid-color="#000000" stop-color="#000000" style="font-feature-settings:normal;font-variant-alternates:normal;font-variant-caps:normal;font-variant-east-asian:normal;font-variant-ligatures:normal;font-variant-numeric:normal;font-variant-position:normal;font-variation-settings:normal;inline-size:0;isolation:auto;mix-blend-mode:normal;shape-margin:0;shape-padding:0;text-decoration-color:#000000;text-decoration-line:none;text-decoration-style:solid;text-indent:0;text-orientation:mixed;text-transform:none;white-space:normal"/>
  <path d="m1.0583 11.906v0.59234c0 1.9386 1.5729 3.4993 3.3318 3.4993h8.1603c1.7589 0 3.3243-1.5608 3.3243-3.4993v-0.58095c-0.0056 2.0952-1.5372 3.7801-3.4395 3.7801h-7.9368c-1.9058 0-3.44-1.691-3.44-3.7915z" color="#000000" color-rendering="auto" dominant-baseline="auto" enable-background="accumulate" image-rendering="auto" opacity=".05" solid-color="#000000" stop-color="#000000" style="font-feature-settings:normal;font-variant-alternates:normal;font-variant-caps:normal;font-variant-east-asian:normal;font-variant-ligatures:normal;font-variant-numeric:normal;font-variant-position:normal;font-variation-settings:normal;inline-size:0;isolation:auto;mix-blend-mode:normal;shape-margin:0;shape-padding:0;text-decoration-color:#000000;text-decoration-line:none;text-decoration-style:solid;text-indent:0;text-orientation:mixed;text-transform:none;white-space:normal"/>
 </g>
 <rect x="4" y="4" width="56" height="56" rx="13.002" ry="13.002" fill="url(#linearGradient862-3)" stroke-width="3.7795"/>
 <g transform="matrix(1.2 0 0 1.2 2.3681 -2.2458)" filter="url(#filter920)" opacity=".15" stroke-width=".83333">
  <path d="m28.589 9.6673-4.7684 13.484 18.773-3.1379c-2.7815-5.306-7.9062-9.2044-14.009-10.346"/>
  <path d="m43.829 22.952-14.139 2.6401 12.125 14.584c3.2355-5.0452 4.0725-11.403 2.0145-17.225"/>
  <path d="m39.989 42.39-9.3709-10.844-6.6526 17.723c6.016 0.25977 11.978-2.1986 16.025-6.8794"/>
  <path d="m21.186 48.919 4.7684-13.484-18.773 3.1379c2.7815 5.306 7.9062 9.2044 14.009 10.346"/>
  <path d="m6.0698 35.614 14.139-2.6401-12.125-14.584c-3.2355 5.0452-4.0725 11.403-2.0145 17.225"/>
  <circle cx="24.949" cy="29.288" r="3"/>
  <path d="m9.8646 16.186 9.3709 10.844 6.6526-17.723c-6.016-0.25977-11.978 2.1986-16.025 6.8794"/>
 </g>
 <g transform="matrix(1.2 0 0 1.2 2.061 -3.1458)" stroke-width=".83333">
  <path d="m28.589 9.6673-4.7684 13.484 18.773-3.1379c-2.7815-5.306-7.9062-9.2044-14.009-10.346" fill="url(#a)"/>
  <path d="m43.829 22.952-14.139 2.6401 12.125 14.584c3.2355-5.0452 4.0725-11.403 2.0145-17.225" fill="url(#b)"/>
  <path d="m39.989 42.39-9.3709-10.844-6.6526 17.723c6.016 0.25977 11.978-2.1986 16.025-6.8794" fill="url(#c)"/>
  <path d="m21.186 48.919 4.7684-13.484-18.773 3.1379c2.7815 5.306 7.9062 9.2044 14.009 10.346" fill="url(#f)"/>
  <path d="m6.0698 35.614 14.139-2.6401-12.125-14.584c-3.2355 5.0452-4.0725 11.403-2.0145 17.225" fill="url(#g)"/>
  <circle cx="24.949" cy="29.288" r="3" fill="url(#m)"/>
  <path d="m9.8646 16.186 9.3709 10.844 6.6526-17.723c-6.016-0.25977-11.978 2.1986-16.025 6.8794" fill="url(#h)"/>
 </g>
</svg>
