<svg xmlns="http://www.w3.org/2000/svg" width="64" height="64" enable-background="new 0 0 1024 1024" image-rendering="optimizeSpeed"><defs><linearGradient id="h" x1="273.56" x2="273.56" y1="329.65" y2="170.3" gradientTransform="matrix(.09375 0 0 .09374 .945 5.295)" gradientUnits="userSpaceOnUse"><stop offset="0" stop-color="#b0b0b0"/><stop offset="1" stop-color="#fff"/></linearGradient><linearGradient id="g" x1="14.562" x2="14.562" y1="35.137" y2="12.823" gradientTransform="translate(.856 5.288)" gradientUnits="userSpaceOnUse"><stop offset="0" stop-color="#68377d"/><stop offset="1" stop-color="#cb7cec"/></linearGradient><linearGradient id="i" x1="21.3" x2="21.3" y1="36.168" y2="6.264" gradientTransform="translate(.95 5.288)" gradientUnits="userSpaceOnUse"><stop offset="0" stop-color="#bf4231"/><stop offset="1" stop-color="#f58273"/></linearGradient><linearGradient id="c" x1="30.728" x2="30.728" y1="35.756" y2="8.124" gradientTransform="translate(.95 5.288)" gradientUnits="userSpaceOnUse"><stop offset="0" stop-color="#cd7223"/><stop offset="1" stop-color="#ffc169"/></linearGradient><linearGradient id="d" x1="38.091" x2="38.091" y1="38.07" y2="11.247" gradientTransform="translate(.95 5.288)" gradientUnits="userSpaceOnUse"><stop offset="0" stop-color="#ffa92d"/><stop offset="1" stop-color="#edf573"/></linearGradient><linearGradient id="e" x1="31.632" x2="31.632" y1="47.869" y2="24.027" gradientTransform="translate(.95 5.288)" gradientUnits="userSpaceOnUse"><stop offset="0" stop-color="#2b4d37"/><stop offset="1" stop-color="#3bb566"/></linearGradient><linearGradient id="f" x1="19.26" x2="19.26" y1="47.295" y2="27.686" gradientTransform="translate(.95 5.288)" gradientUnits="userSpaceOnUse"><stop offset="0" stop-color="#375a7d"/><stop offset="1" stop-color="#54a3d8"/></linearGradient><linearGradient id="a" x1="7.937" x2="7.937" y1="15.081" y2="1.852" gradientTransform="translate(0 .032)scale(3.7795)" gradientUnits="userSpaceOnUse"><stop offset="0" stop-color="#f1efeb"/><stop offset="1" stop-color="#fdfcfc"/></linearGradient><filter id="b" width="1.216" height="1.216" x="-.108" y="-.108" color-interpolation-filters="sRGB"><feGaussianBlur stdDeviation="1.8"/></filter></defs><g color="#000" image-rendering="auto"><path d="M4.37.53C2.254.53.53 2.312.53 4.496v8.468c0 2.184 1.725 3.968 3.84 3.968h8.194c2.114 0 3.84-1.783 3.84-3.968V4.497c0-2.184-1.726-3.968-3.84-3.968zm.256.52h7.681c1.844 0 3.33 1.534 3.33 3.44v7.937c0 1.906-1.485 3.44-3.33 3.44h-7.68c-1.845 0-3.33-1.534-3.33-3.44V4.49c0-1.906 1.485-3.44 3.33-3.44z" enable-background="accumulate" opacity=".01" style="font-feature-settings:normal;font-variant-alternates:normal;font-variant-caps:normal;font-variant-east-asian:normal;font-variant-ligatures:normal;font-variant-numeric:normal;font-variant-position:normal;font-variation-settings:normal;inline-size:0;isolation:auto;mix-blend-mode:normal;shape-margin:0;shape-padding:0;text-decoration-color:#000;text-decoration-line:none;text-decoration-style:solid;text-indent:0;text-orientation:mixed;text-transform:none;white-space:normal" transform="scale(3.7796)"/><path d="M4.359.794C2.392.794.795 2.447.795 4.48v8.5c0 2.035 1.597 3.688 3.564 3.688h8.216c1.967 0 3.564-1.653 3.564-3.688v-8.5c0-2.034-1.597-3.687-3.564-3.687zm.272.256h7.672c1.842 0 3.325 1.534 3.325 3.44v7.937c0 1.906-1.483 3.44-3.325 3.44H4.63c-1.842 0-3.325-1.534-3.325-3.44V4.49c0-1.906 1.483-3.44 3.325-3.44z" enable-background="accumulate" opacity=".01" style="font-feature-settings:normal;font-variant-alternates:normal;font-variant-caps:normal;font-variant-east-asian:normal;font-variant-ligatures:normal;font-variant-numeric:normal;font-variant-position:normal;font-variation-settings:normal;inline-size:0;isolation:auto;mix-blend-mode:normal;shape-margin:0;shape-padding:0;text-decoration-color:#000;text-decoration-line:none;text-decoration-style:solid;text-indent:0;text-orientation:mixed;text-transform:none;white-space:normal" transform="scale(3.7796)"/><path d="M4.31 1.058c-1.866 0-3.375 1.539-3.375 3.44v8.467c0 1.9 1.57 3.439 3.435 3.439h8.2c1.866 0 3.427-1.538 3.427-3.44V4.498c0-1.9-1.51-3.439-3.375-3.439h-.097c1.794.087 3.214 1.582 3.214 3.432v7.937c0 1.906-1.506 3.44-3.377 3.44h-7.79c-1.871 0-3.377-1.534-3.377-3.44V4.49c0-1.85 1.42-3.345 3.214-3.432z" enable-background="accumulate" opacity=".03" style="font-feature-settings:normal;font-variant-alternates:normal;font-variant-caps:normal;font-variant-east-asian:normal;font-variant-ligatures:normal;font-variant-numeric:normal;font-variant-position:normal;font-variation-settings:normal;inline-size:0;isolation:auto;mix-blend-mode:normal;shape-margin:0;shape-padding:0;text-decoration-color:#000;text-decoration-line:none;text-decoration-style:solid;text-indent:0;text-orientation:mixed;text-transform:none;white-space:normal" transform="scale(3.7796)"/><path d="M4 46.969V49c0 6.648 5.896 12 12.544 12h30.961C54.153 61 60 55.648 60 49v-1.992a12.97 12.97 0 0 1-13 12.963H17.002A12.973 12.973 0 0 1 4 46.969" enable-background="accumulate" opacity=".03" style="font-feature-settings:normal;font-variant-alternates:normal;font-variant-caps:normal;font-variant-east-asian:normal;font-variant-ligatures:normal;font-variant-numeric:normal;font-variant-position:normal;font-variation-settings:normal;inline-size:0;isolation:auto;mix-blend-mode:normal;shape-margin:0;shape-padding:0;text-decoration-color:#000;text-decoration-line:none;text-decoration-style:solid;text-indent:0;text-orientation:mixed;text-transform:none;white-space:normal"/><path d="M1.058 11.906v.592c0 1.939 1.573 3.5 3.332 3.5h8.16c1.76 0 3.325-1.561 3.325-3.5v-.58c-.006 2.095-1.537 3.78-3.44 3.78H4.498c-1.905 0-3.44-1.692-3.44-3.792" enable-background="accumulate" opacity=".05" style="font-feature-settings:normal;font-variant-alternates:normal;font-variant-caps:normal;font-variant-east-asian:normal;font-variant-ligatures:normal;font-variant-numeric:normal;font-variant-position:normal;font-variation-settings:normal;inline-size:0;isolation:auto;mix-blend-mode:normal;shape-margin:0;shape-padding:0;text-decoration-color:#000;text-decoration-line:none;text-decoration-style:solid;text-indent:0;text-orientation:mixed;text-transform:none;white-space:normal" transform="scale(3.7796)"/></g><rect width="56" height="56" x="4" y="4" fill="url(#a)" rx="13.002" ry="13.002"/><g stroke-width=".833" filter="url(#b)" opacity=".15" transform="matrix(1.2 0 0 1.2 2.368 -2.246)"><path d="m28.589 9.667-4.768 13.484 18.773-3.138a19.99 19.99 0 0 0-14.01-10.346m15.245 13.285-14.139 2.64 12.125 14.584c3.236-5.045 4.072-11.403 2.014-17.225m-3.84 19.439-9.37-10.844-6.654 17.723c6.016.26 11.978-2.199 16.025-6.88m-18.804 6.53 4.768-13.484-18.773 3.138a19.99 19.99 0 0 0 14.01 10.346M6.07 35.614l14.139-2.64L8.084 18.39C4.848 23.435 4.01 29.793 6.069 35.615"/><circle cx="24.949" cy="29.288" r="3"/><path d="m9.865 16.186 9.37 10.844 6.653-17.723c-6.016-.26-11.978 2.199-16.025 6.88"/></g><g stroke-width=".833" transform="matrix(1.2 0 0 1.2 2.061 -3.146)"><path fill="url(#c)" d="m28.589 9.667-4.768 13.484 18.773-3.138a19.99 19.99 0 0 0-14.01-10.346"/><path fill="url(#d)" d="m43.829 22.952-14.139 2.64 12.125 14.584c3.236-5.045 4.072-11.403 2.014-17.225"/><path fill="url(#e)" d="m39.989 42.39-9.37-10.844-6.654 17.723c6.016.26 11.978-2.199 16.025-6.88"/><path fill="url(#f)" d="m21.186 48.919 4.768-13.484-18.773 3.138a19.99 19.99 0 0 0 14.01 10.346"/><path fill="url(#g)" d="m6.07 35.614 14.139-2.64L8.084 18.39C4.848 23.435 4.01 29.793 6.069 35.615"/><circle cx="24.949" cy="29.288" r="3" fill="url(#h)"/><path fill="url(#i)" d="m9.865 16.186 9.37 10.844 6.653-17.723c-6.016-.26-11.978 2.199-16.025 6.88"/></g></svg>