<svg width="64" height="64" version="1.1" xmlns="http://www.w3.org/2000/svg">
 <defs>
  <linearGradient id="linearGradient862-3" x1="7.9373" x2="7.9373" y1="15.081" y2="1.852" gradientTransform="matrix(3.7795 0 0 3.7795 .00014309 .031541)" gradientUnits="userSpaceOnUse">
   <stop stop-color="#f1efeb" offset="0"/>
   <stop stop-color="#fdfcfc" offset="1"/>
  </linearGradient>
  <linearGradient id="linearGradient918" x1="35.117" x2="35.117" y1="45.229" y2="19.409" gradientUnits="userSpaceOnUse">
   <stop stop-color="#292929" offset="0"/>
   <stop stop-color="#757575" offset="1"/>
  </linearGradient>
  <radialGradient id="radialGradient928" cx="32" cy="32" r="21" gradientUnits="userSpaceOnUse">
   <stop stop-opacity=".05" offset="0"/>
   <stop stop-opacity=".05" offset=".82737"/>
   <stop stop-opacity=".15" offset="1"/>
  </radialGradient>
  <filter id="filter1010" x="-.046614" y="-.049471" width="1.0932" height="1.0989" color-interpolation-filters="sRGB">
   <feGaussianBlur stdDeviation="0.62402344"/>
  </filter>
 </defs>
 <g transform="scale(3.7796)" shape-rendering="auto">
  <path d="m4.3693 0.52916c-2.1142 0-3.8402 1.7835-3.8402 3.9682v8.4675c0 2.1846 1.726 3.9682 3.8402 3.9682h8.1944c2.1142 0 3.8402-1.7835 3.8402-3.9682v-8.4675c0-2.1846-1.726-3.9682-3.8402-3.9682zm0.25704 0.52089h7.6808c1.8443 0 3.3291 1.5342 3.3291 3.44v7.9368c0 1.9058-1.4847 3.44-3.3291 3.44h-7.6808c-1.8443 0-3.3291-1.5342-3.3291-3.44v-7.9368c0-1.9058 1.4847-3.44 3.3291-3.44z" color="#000000" color-rendering="auto" dominant-baseline="auto" image-rendering="auto" opacity=".01" solid-color="#000000" stop-color="#000000" style="font-feature-settings:normal;font-variant-alternates:normal;font-variant-caps:normal;font-variant-east-asian:normal;font-variant-ligatures:normal;font-variant-numeric:normal;font-variant-position:normal;font-variation-settings:normal;inline-size:0;isolation:auto;mix-blend-mode:normal;shape-margin:0;shape-padding:0;text-decoration-color:#000000;text-decoration-line:none;text-decoration-style:solid;text-indent:0;text-orientation:mixed;text-transform:none;white-space:normal"/>
  <path d="m4.3587 0.79373c-1.9668 0-3.5639 1.6528-3.5639 3.6876v8.4996c0 2.0348 1.5971 3.6876 3.5639 3.6876h8.2162c1.9668 0 3.5644-1.6528 3.5644-3.6876v-8.4996c0-2.0348-1.5976-3.6876-3.5644-3.6876zm0.27222 0.25631h7.6718c1.8422 0 3.3251 1.5342 3.3251 3.44v7.9368c0 1.9058-1.483 3.44-3.3251 3.44h-7.6718c-1.8422 0-3.3251-1.5342-3.3251-3.44v-7.9368c0-1.9058 1.483-3.44 3.3251-3.44z" color="#000000" color-rendering="auto" dominant-baseline="auto" image-rendering="auto" opacity=".01" solid-color="#000000" stop-color="#000000" style="font-feature-settings:normal;font-variant-alternates:normal;font-variant-caps:normal;font-variant-east-asian:normal;font-variant-ligatures:normal;font-variant-numeric:normal;font-variant-position:normal;font-variation-settings:normal;inline-size:0;isolation:auto;mix-blend-mode:normal;shape-margin:0;shape-padding:0;text-decoration-color:#000000;text-decoration-line:none;text-decoration-style:solid;text-indent:0;text-orientation:mixed;text-transform:none;white-space:normal"/>
  <path d="m4.3097 1.0583c-1.8657 0-3.3751 1.5383-3.3751 3.439v8.4675c0 1.9007 1.57 3.439 3.4357 3.439h8.1996c1.8657 0 3.4274-1.5383 3.4274-3.439v-8.4675c0-1.9007-1.51-3.439-3.3756-3.439h-0.09688c1.794 0.086515 3.2138 1.5819 3.2138 3.4318v7.9368c0 1.9058-1.5059 3.44-3.3766 3.44h-7.7905c-1.8707 0-3.3766-1.5342-3.3766-3.44v-7.9368c0-1.8498 1.4199-3.3451 3.2138-3.4318z" color="#000000" color-rendering="auto" dominant-baseline="auto" image-rendering="auto" opacity=".03" solid-color="#000000" stop-color="#000000" style="font-feature-settings:normal;font-variant-alternates:normal;font-variant-caps:normal;font-variant-east-asian:normal;font-variant-ligatures:normal;font-variant-numeric:normal;font-variant-position:normal;font-variation-settings:normal;inline-size:0;isolation:auto;mix-blend-mode:normal;shape-margin:0;shape-padding:0;text-decoration-color:#000000;text-decoration-line:none;text-decoration-style:solid;text-indent:0;text-orientation:mixed;text-transform:none;white-space:normal"/>
  <path transform="scale(.26458)" d="m4 46.969v2.0312c0 6.6479 5.8957 12 12.544 12h30.961c6.6479 0 12.495-5.3521 12.495-12v-1.9922c-0.021173 7.1849-5.81 12.963-13 12.963h-29.998c-7.2032 0-13.002-5.7987-13.002-13.002z" color="#000000" color-rendering="auto" dominant-baseline="auto" image-rendering="auto" opacity=".03" solid-color="#000000" stop-color="#000000" style="font-feature-settings:normal;font-variant-alternates:normal;font-variant-caps:normal;font-variant-east-asian:normal;font-variant-ligatures:normal;font-variant-numeric:normal;font-variant-position:normal;font-variation-settings:normal;inline-size:0;isolation:auto;mix-blend-mode:normal;shape-margin:0;shape-padding:0;text-decoration-color:#000000;text-decoration-line:none;text-decoration-style:solid;text-indent:0;text-orientation:mixed;text-transform:none;white-space:normal"/>
  <path d="m1.0583 11.906v0.59234c0 1.9386 1.5729 3.4993 3.3318 3.4993h8.1603c1.7589 0 3.3243-1.5608 3.3243-3.4993v-0.58095c-0.0056 2.0952-1.5372 3.7801-3.4395 3.7801h-7.9368c-1.9058 0-3.44-1.691-3.44-3.7915z" color="#000000" color-rendering="auto" dominant-baseline="auto" image-rendering="auto" opacity=".05" solid-color="#000000" stop-color="#000000" style="font-feature-settings:normal;font-variant-alternates:normal;font-variant-caps:normal;font-variant-east-asian:normal;font-variant-ligatures:normal;font-variant-numeric:normal;font-variant-position:normal;font-variation-settings:normal;inline-size:0;isolation:auto;mix-blend-mode:normal;shape-margin:0;shape-padding:0;text-decoration-color:#000000;text-decoration-line:none;text-decoration-style:solid;text-indent:0;text-orientation:mixed;text-transform:none;white-space:normal"/>
 </g>
 <rect x="4" y="4" width="56" height="56" rx="13.002" ry="13.002" fill="url(#linearGradient862-3)" stroke-width="3.7795"/>
 <circle cx="32" cy="32" r="21" fill="url(#radialGradient928)" stroke-linecap="round" stroke-linejoin="round" stroke-width="4.9324"/>
 <path d="m31.883 18.051c-7.8427 0-14.302 6.0877-14.961 13.818h-2.1562l3.7383 6.377 3.6816-6.377h-2.3887c0.64128-6.1633 5.7908-10.928 12.086-10.928 6.7313 0 12.156 5.4481 12.156 12.229s-5.425 12.264-12.156 12.264c-3.3888 0-6.4327-1.4027-8.6367-3.6465 0 0-0.39019-0.39909-0.62695-0.625-0.43377-0.4139-0.78142-0.26632-1.0781-0.02734-0.34716 0.27773-0.65107 0.51461-0.98828 0.83203-0.27775 0.22814-0.43656 0.60759-0.17773 0.91602 2.7609 3.3163 6.8924 5.4414 11.508 5.4414 8.2783 0 15.012-6.8157 15.012-15.154 0-8.3386-6.7334-15.119-15.012-15.119zm-0.16797 5.2012c-0.30426 0-0.52331 7.1805-0.78516 10.771 2.2445 1.8142 6.5371 5.6387 6.7324 5.4434 0.20316-0.20322-3.4414-3.7789-5.1621-5.668-0.26185-3.5157-0.45235-10.547-0.78516-10.547z" filter="url(#filter1010)" opacity=".15" stroke-width="9.1574"/>
 <path d="m31.883 17.006c-7.8427 0-14.302 6.0877-14.961 13.818h-2.1562l3.7383 6.377 3.6816-6.377h-2.3887c0.64128-6.1633 5.7908-10.928 12.086-10.928 6.7313 0 12.156 5.4481 12.156 12.229s-5.425 12.264-12.156 12.264c-3.3888 0-6.4327-1.4027-8.6367-3.6465 0 0-0.39019-0.39909-0.62695-0.625-0.43377-0.4139-0.78142-0.26632-1.0781-0.027344-0.34716 0.27773-0.65107 0.51461-0.98828 0.83203-0.27775 0.22814-0.43656 0.60759-0.17773 0.91602 2.7609 3.3163 6.8924 5.4414 11.508 5.4414 8.2783 0 15.012-6.8157 15.012-15.154 0-8.3386-6.7334-15.119-15.012-15.119zm-0.16797 5.2012c-0.30426 0-0.52331 7.1805-0.78516 10.771 2.2445 1.8142 6.5371 5.6387 6.7324 5.4434 0.20316-0.20322-3.4414-3.7789-5.1621-5.668-0.26185-3.5157-0.45235-10.547-0.78516-10.547z" fill="url(#linearGradient918)" stroke-width="9.1574"/>
</svg>
