<svg width="64" height="64" xmlns="http://www.w3.org/2000/svg"><defs><linearGradient id="a" x1="7.937" x2="7.937" y1="15.081" y2="1.852" gradientTransform="translate(0 .032) scale(3.7795)" gradientUnits="userSpaceOnUse"><stop stop-color="#f1efeb" offset="0"/><stop stop-color="#fdfcfc" offset="1"/></linearGradient><linearGradient id="d" x1="35.117" x2="35.117" y1="45.229" y2="19.409" gradientUnits="userSpaceOnUse"><stop stop-color="#292929" offset="0"/><stop stop-color="#757575" offset="1"/></linearGradient><radialGradient id="b" cx="32" cy="32" r="21" gradientUnits="userSpaceOnUse"><stop stop-opacity=".05" offset="0"/><stop stop-opacity=".05" offset=".827"/><stop stop-opacity=".15" offset="1"/></radialGradient><filter id="c" x="-.047" y="-.049" width="1.093" height="1.099" color-interpolation-filters="sRGB"><feGaussianBlur stdDeviation=".624"/></filter></defs><g color="#000"><path d="M4.37.53C2.254.53.53 2.312.53 4.496v8.468c0 2.184 1.725 3.968 3.84 3.968h8.194c2.114 0 3.84-1.783 3.84-3.968V4.497c0-2.184-1.726-3.968-3.84-3.968zm.256.52h7.681c1.844 0 3.33 1.534 3.33 3.44v7.937c0 1.906-1.485 3.44-3.33 3.44h-7.68c-1.845 0-3.33-1.534-3.33-3.44V4.49c0-1.906 1.485-3.44 3.33-3.44z" opacity=".01" style="font-feature-settings:normal;font-variant-alternates:normal;font-variant-caps:normal;font-variant-east-asian:normal;font-variant-ligatures:normal;font-variant-numeric:normal;font-variant-position:normal;font-variation-settings:normal;inline-size:0;isolation:auto;mix-blend-mode:normal;shape-margin:0;shape-padding:0;text-decoration-color:#000;text-decoration-line:none;text-decoration-style:solid;text-indent:0;text-orientation:mixed;text-transform:none;white-space:normal" transform="scale(3.7796)"/><path d="M4.359.794C2.392.794.795 2.447.795 4.48v8.5c0 2.035 1.597 3.688 3.564 3.688h8.216c1.967 0 3.564-1.653 3.564-3.688v-8.5c0-2.034-1.597-3.687-3.564-3.687zm.272.256h7.672c1.842 0 3.325 1.534 3.325 3.44v7.937c0 1.906-1.483 3.44-3.325 3.44H4.63c-1.842 0-3.325-1.534-3.325-3.44V4.49c0-1.906 1.483-3.44 3.325-3.44z" opacity=".01" style="font-feature-settings:normal;font-variant-alternates:normal;font-variant-caps:normal;font-variant-east-asian:normal;font-variant-ligatures:normal;font-variant-numeric:normal;font-variant-position:normal;font-variation-settings:normal;inline-size:0;isolation:auto;mix-blend-mode:normal;shape-margin:0;shape-padding:0;text-decoration-color:#000;text-decoration-line:none;text-decoration-style:solid;text-indent:0;text-orientation:mixed;text-transform:none;white-space:normal" transform="scale(3.7796)"/><path d="M4.31 1.058c-1.866 0-3.375 1.539-3.375 3.44v8.467c0 1.9 1.57 3.439 3.435 3.439h8.2c1.866 0 3.427-1.538 3.427-3.44V4.498c0-1.9-1.51-3.439-3.375-3.439h-.097c1.794.087 3.214 1.582 3.214 3.432v7.937c0 1.906-1.506 3.44-3.377 3.44h-7.79c-1.871 0-3.377-1.534-3.377-3.44V4.49c0-1.85 1.42-3.345 3.214-3.432z" opacity=".03" style="font-feature-settings:normal;font-variant-alternates:normal;font-variant-caps:normal;font-variant-east-asian:normal;font-variant-ligatures:normal;font-variant-numeric:normal;font-variant-position:normal;font-variation-settings:normal;inline-size:0;isolation:auto;mix-blend-mode:normal;shape-margin:0;shape-padding:0;text-decoration-color:#000;text-decoration-line:none;text-decoration-style:solid;text-indent:0;text-orientation:mixed;text-transform:none;white-space:normal" transform="scale(3.7796)"/><path d="M4 46.969V49c0 6.648 5.896 12 12.544 12h30.961C54.153 61 60 55.648 60 49v-1.992a12.972 12.972 0 0 1-13 12.963H17.002A12.973 12.973 0 0 1 4 46.969z" opacity=".03" style="font-feature-settings:normal;font-variant-alternates:normal;font-variant-caps:normal;font-variant-east-asian:normal;font-variant-ligatures:normal;font-variant-numeric:normal;font-variant-position:normal;font-variation-settings:normal;inline-size:0;isolation:auto;mix-blend-mode:normal;shape-margin:0;shape-padding:0;text-decoration-color:#000;text-decoration-line:none;text-decoration-style:solid;text-indent:0;text-orientation:mixed;text-transform:none;white-space:normal"/><path d="M1.058 11.906v.592c0 1.939 1.573 3.5 3.332 3.5h8.16c1.76 0 3.325-1.561 3.325-3.5v-.58c-.006 2.095-1.537 3.78-3.44 3.78H4.498c-1.905 0-3.44-1.692-3.44-3.792z" opacity=".05" style="font-feature-settings:normal;font-variant-alternates:normal;font-variant-caps:normal;font-variant-east-asian:normal;font-variant-ligatures:normal;font-variant-numeric:normal;font-variant-position:normal;font-variation-settings:normal;inline-size:0;isolation:auto;mix-blend-mode:normal;shape-margin:0;shape-padding:0;text-decoration-color:#000;text-decoration-line:none;text-decoration-style:solid;text-indent:0;text-orientation:mixed;text-transform:none;white-space:normal" transform="scale(3.7796)"/></g><rect x="4" y="4" width="56" height="56" rx="13.002" ry="13.002" fill="url(#a)"/><circle cx="32" cy="32" r="21" fill="url(#b)"/><path d="M31.883 18.051c-7.843 0-14.302 6.088-14.961 13.818h-2.156l3.738 6.377 3.682-6.377h-2.389c.641-6.163 5.79-10.928 12.086-10.928 6.731 0 12.156 5.448 12.156 12.229s-5.425 12.264-12.156 12.264c-3.389 0-6.433-1.403-8.637-3.647 0 0-.39-.399-.627-.625-.433-.413-.781-.266-1.078-.027-.347.278-.65.515-.988.832-.278.228-.437.608-.178.916 2.761 3.317 6.893 5.442 11.508 5.442 8.279 0 15.012-6.816 15.012-15.154 0-8.339-6.733-15.12-15.012-15.12zm-.168 5.201c-.304 0-.523 7.18-.785 10.771 2.244 1.814 6.537 5.639 6.732 5.444.203-.204-3.441-3.78-5.162-5.668-.262-3.516-.452-10.547-.785-10.547z" filter="url(#c)" opacity=".15"/><path d="M31.883 17.006c-7.843 0-14.302 6.088-14.961 13.818h-2.156l3.738 6.377 3.682-6.377h-2.389c.641-6.163 5.79-10.928 12.086-10.928 6.731 0 12.156 5.448 12.156 12.229s-5.425 12.264-12.156 12.264c-3.389 0-6.433-1.403-8.637-3.647 0 0-.39-.399-.627-.625-.433-.413-.781-.266-1.078-.027-.347.278-.65.515-.988.832-.278.228-.437.608-.178.916 2.761 3.317 6.893 5.442 11.508 5.442 8.279 0 15.012-6.816 15.012-15.154 0-8.339-6.733-15.12-15.012-15.12zm-.168 5.201c-.304 0-.523 7.18-.785 10.771 2.244 1.814 6.537 5.639 6.732 5.444.203-.204-3.441-3.78-5.162-5.668-.262-3.516-.452-10.547-.785-10.547z" fill="url(#d)"/></svg>