<svg width="64" height="64" enable-background="new 0 0 1024 1024" image-rendering="optimizeSpeed" xmlns="http://www.w3.org/2000/svg"><defs><linearGradient id="a" x1="7.937" x2="7.937" y1="15.081" y2="1.852" gradientTransform="translate(0 .032) scale(3.7795)" gradientUnits="userSpaceOnUse"><stop stop-color="#292929" offset="0"/><stop stop-color="#4d4d4d" offset="1"/></linearGradient><linearGradient id="c" x1="21.016" x2="44.623" y1="26.164" y2="37.223" gradientUnits="userSpaceOnUse"><stop stop-color="#d1d1d1" offset="0"/><stop stop-color="#fff" offset=".442"/><stop stop-color="#d1d1d1" offset="1"/></linearGradient><filter id="b" x="-.104" y="-.113" width="1.208" height="1.225" color-interpolation-filters="sRGB"><feGaussianBlur stdDeviation="1.5"/></filter></defs><g color="#000" image-rendering="auto"><path d="M4.37.53C2.254.53.53 2.312.53 4.496v8.468c0 2.184 1.725 3.968 3.84 3.968h8.194c2.114 0 3.84-1.783 3.84-3.968V4.497c0-2.184-1.726-3.968-3.84-3.968zm.256.52h7.681c1.844 0 3.33 1.534 3.33 3.44v7.937c0 1.906-1.485 3.44-3.33 3.44h-7.68c-1.845 0-3.33-1.534-3.33-3.44V4.49c0-1.906 1.485-3.44 3.33-3.44z" enable-background="accumulate" opacity=".01" style="font-feature-settings:normal;font-variant-alternates:normal;font-variant-caps:normal;font-variant-east-asian:normal;font-variant-ligatures:normal;font-variant-numeric:normal;font-variant-position:normal;font-variation-settings:normal;inline-size:0;isolation:auto;mix-blend-mode:normal;shape-margin:0;shape-padding:0;text-decoration-color:#000;text-decoration-line:none;text-decoration-style:solid;text-indent:0;text-orientation:mixed;text-transform:none;white-space:normal" transform="scale(3.7796)"/><path d="M4.359.794C2.392.794.795 2.447.795 4.48v8.5c0 2.035 1.597 3.688 3.564 3.688h8.216c1.967 0 3.564-1.653 3.564-3.688v-8.5c0-2.034-1.597-3.687-3.564-3.687zm.272.256h7.672c1.842 0 3.325 1.534 3.325 3.44v7.937c0 1.906-1.483 3.44-3.325 3.44H4.63c-1.842 0-3.325-1.534-3.325-3.44V4.49c0-1.906 1.483-3.44 3.325-3.44z" enable-background="accumulate" opacity=".01" style="font-feature-settings:normal;font-variant-alternates:normal;font-variant-caps:normal;font-variant-east-asian:normal;font-variant-ligatures:normal;font-variant-numeric:normal;font-variant-position:normal;font-variation-settings:normal;inline-size:0;isolation:auto;mix-blend-mode:normal;shape-margin:0;shape-padding:0;text-decoration-color:#000;text-decoration-line:none;text-decoration-style:solid;text-indent:0;text-orientation:mixed;text-transform:none;white-space:normal" transform="scale(3.7796)"/><path d="M4.31 1.058c-1.866 0-3.375 1.539-3.375 3.44v8.467c0 1.9 1.57 3.439 3.435 3.439h8.2c1.866 0 3.427-1.538 3.427-3.44V4.498c0-1.9-1.51-3.439-3.375-3.439h-.097c1.794.087 3.214 1.582 3.214 3.432v7.937c0 1.906-1.506 3.44-3.377 3.44h-7.79c-1.871 0-3.377-1.534-3.377-3.44V4.49c0-1.85 1.42-3.345 3.214-3.432z" enable-background="accumulate" opacity=".03" style="font-feature-settings:normal;font-variant-alternates:normal;font-variant-caps:normal;font-variant-east-asian:normal;font-variant-ligatures:normal;font-variant-numeric:normal;font-variant-position:normal;font-variation-settings:normal;inline-size:0;isolation:auto;mix-blend-mode:normal;shape-margin:0;shape-padding:0;text-decoration-color:#000;text-decoration-line:none;text-decoration-style:solid;text-indent:0;text-orientation:mixed;text-transform:none;white-space:normal" transform="scale(3.7796)"/><path d="M4 46.969V49c0 6.648 5.896 12 12.544 12h30.961C54.153 61 60 55.648 60 49v-1.992a12.972 12.972 0 0 1-13 12.963H17.002A12.973 12.973 0 0 1 4 46.969z" enable-background="accumulate" opacity=".03" style="font-feature-settings:normal;font-variant-alternates:normal;font-variant-caps:normal;font-variant-east-asian:normal;font-variant-ligatures:normal;font-variant-numeric:normal;font-variant-position:normal;font-variation-settings:normal;inline-size:0;isolation:auto;mix-blend-mode:normal;shape-margin:0;shape-padding:0;text-decoration-color:#000;text-decoration-line:none;text-decoration-style:solid;text-indent:0;text-orientation:mixed;text-transform:none;white-space:normal"/><path d="M1.058 11.906v.592c0 1.939 1.573 3.5 3.332 3.5h8.16c1.76 0 3.325-1.561 3.325-3.5v-.58c-.006 2.095-1.537 3.78-3.44 3.78H4.498c-1.905 0-3.44-1.692-3.44-3.792z" enable-background="accumulate" opacity=".05" style="font-feature-settings:normal;font-variant-alternates:normal;font-variant-caps:normal;font-variant-east-asian:normal;font-variant-ligatures:normal;font-variant-numeric:normal;font-variant-position:normal;font-variation-settings:normal;inline-size:0;isolation:auto;mix-blend-mode:normal;shape-margin:0;shape-padding:0;text-decoration-color:#000;text-decoration-line:none;text-decoration-style:solid;text-indent:0;text-orientation:mixed;text-transform:none;white-space:normal" transform="scale(3.7796)"/></g><rect x="4" y="4" width="56" height="56" rx="13.002" ry="13.002" fill="url(#a)"/><path d="M36.097 17.243c-3.307.427-6.861 2.036-9.752 6.798-6.61 10.882-6.141 14.67-7.195 15.893-1.057 1.22-3.907 1.88-3.495 3.266.412 1.38.828 1.203.828 1.203s4.162 6.028 16.232 4.465c12.07-1.563 13.742-4.11 13.633-5.374-.11-1.266-2.656-2.189-2.656-2.189s-1.886-6.646-1.402-9.375c.484-2.73 2.323-6.707 4.14-7.563 1.813-.865 2.72 2.89 3.657 1.964.933-.927-1.573-8.081-4.344-8.137-1.552-.031-5.413-1.495-9.647-.943m.01 9.132.922 2.724 2.798.792-2.365 1.683.104 2.86-2.364-1.682-2.787.973.896-2.693-1.797-2.26 2.937-.028m-7.788 5.637.1 1.974 1.765 1.057-1.907.689-.479 1.953-1.298-1.521-2.03.13 1.088-1.645-.776-1.85 1.97.51m9.443-.885 1.891 2.531 3.194-.125-1.855 2.563 1.088 2.918-3.063-.948-2.516 1.943-.022-3.146-2.65-1.73 3.036-.994" filter="url(#b)" opacity=".35"/><path d="M35.147 16.116c-3.307.427-6.861 2.036-9.752 6.798-6.61 10.882-6.141 14.67-7.195 15.893-1.057 1.22-3.907 1.88-3.495 3.266.412 1.38.828 1.203.828 1.203s4.162 6.028 16.232 4.465c12.07-1.563 13.742-4.11 13.633-5.374-.11-1.266-2.656-2.189-2.656-2.189s-1.886-6.646-1.402-9.374c.484-2.73 2.323-6.708 4.14-7.564 1.813-.865 2.72 2.89 3.657 1.964.933-.927-1.573-8.081-4.344-8.137-1.552-.031-5.413-1.495-9.647-.943m.01 9.132.922 2.724 2.798.792-2.365 1.683.104 2.86-2.364-1.682-2.787.973.896-2.693-1.797-2.26 2.937-.028m-7.788 5.637.1 1.974 1.765 1.057-1.907.689-.479 1.953-1.298-1.521-2.03.13L22.95 35.9l-.776-1.85 1.97.51m9.443-.885 1.891 2.531 3.194-.125-1.855 2.563 1.088 2.918-3.063-.948-2.516 1.943-.022-3.146-2.65-1.73 3.036-.994" fill="url(#c)"/></svg>