<?xml version="1.0" encoding="UTF-8"?>
<svg width="64" height="64" version="1.1" viewBox="0 0 16.933 16.933" xmlns="http://www.w3.org/2000/svg" xmlns:cc="http://creativecommons.org/ns#" xmlns:dc="http://purl.org/dc/elements/1.1/" xmlns:rdf="http://www.w3.org/1999/02/22-rdf-syntax-ns#">
 <defs>
  <linearGradient id="linearGradient1115" x1="-29.448" x2="-29.448" y1="4.6371" y2="59.494" gradientTransform="matrix(.26458 0 0 .26458 .77867 -2.1828)" gradientUnits="userSpaceOnUse">
   <stop stop-color="#fff" offset="0"/>
   <stop stop-color="#ccd4da" offset="1"/>
  </linearGradient>
 </defs>
 <metadata>
  <rdf:RDF>
   <cc:Work rdf:about="">
    <dc:format>image/svg+xml</dc:format>
    <dc:type rdf:resource="http://purl.org/dc/dcmitype/StillImage"/>
    <dc:title/>
   </cc:Work>
  </rdf:RDF>
 </metadata>
 <g transform="translate(16.073 2.1828)">
  <rect x="-14.883" y="-.99219" width="14.552" height="14.552" ry="3.4396" fill="url(#linearGradient1115)" image-rendering="optimizeSpeed" stroke-width=".12512"/>
  <path d="m-6.8586 1.6507-1.5925 0.019746-0.32415 0.24157 0.026925 0.027172-1.0523 0.022222 0.080484-0.10821-2.3997-0.065489-0.02779 0.16294-0.02816 0.24293 0.16015 0.29827-0.08284 0.62136-0.1385 0.54112 0.07918 0.51352 0.02519 0.40624 0.15904 0.54094-0.05573 0.27139 0.02569 0.29766 0.18758 0.21687 0.05287 0.35188-0.35071 0.13441 0.04798 1.081 0.21525 0.16405-0.13881 0.94569-0.10883 0.053985-0.08829 1.8111 0.09511-0.01154 0.22931 0.04781s0.27584 0.09787 0.33294 0.11784c0.0571 0.01842 0.14221-0.08706 0.14221-0.08706l0.22952 1e-3 0.19183-0.03699 0.10411 0.04878 0.09665-0.01 0.2385-0.01707 0.11344-0.04778 0.04777 0.11498 0.038-0.02842 0.10571-0.04782 0.21879-0.01716 0.046451 0.06668s0.26688 0.02982 0.36232 0.03026c0.096601 4.23e-4 0.077247-0.07654 0.077247-0.07654s0.028629-0.0076 0.075169 0.03976c0.048079 0.04852 0.11485-0.01918 0.11485-0.01918l0.095277-0.04786 0.067696 0.06832 0.06624 0.04861 0.18141-0.03858 0.29599 0.0013 0.066552-0.0194 0.27603 0.39386 0.019076-0.1993 0.44823 0.0021c0.037868 1.74e-4 0.019098 0.13301 0.019098 0.13301l0.29488-0.0937 0.15193 0.15333 0.31623-0.19949 0.17208-0.0278 0.33355-0.01663 0.47682 0.0022 0.54311 0.04036 0.14362-0.05653 0.10477-0.09612 0.28597 0.16438 0.21021-0.08521s0.22913 0.08722 0.26656 0.09783c0.03783 0.0091 0.39122-0.03762 0.39122-0.03762l0.21897-0.05618-0.14133-0.10498 0.095236-0.03898 0.39985 0.02 0.53377 0.13962 0.00713-3.4931 0.00101-0.22025-0.13456 0.01909-0.17208 0.027806 4.763e-4 -0.10433 0.097004-0.087271 0.075876-0.11442 0.021585-0.41066-0.027222-0.29882-0.12199-0.36302-0.11406-0.15432-0.01905-0.14345 0.029027-0.094925 0.010565-0.028544 0.12387-0.047734 0.018381-0.048217-0.094315-0.16195 0.086397-0.049451 0.13639-0.080908 0.055166-0.48586 0.028532-0.32446 0.00521-1.1364-0.078498-0.32495 0.054551-0.35139 0.027667-0.13435-0.24255-0.10969-0.91542-0.16726-0.13689 0.18949-0.05194-0.21779-1.7538-0.033544-0.055849 0.29728-0.43187 0.052504-0.052073-0.18881-0.37842-0.057765m-3.2985 1.3509 6.2564 4.2947-0.50469 1.7771-1.1837 0.032439-5.4462-5.8753m5.8547-0.1269 0.68652 0.36676-0.1978 1.338-0.13465 0.038797-1.8244-1.4045m-3.6958 3.484 1.8601 1.8834-1.1278 0.39477-0.58987-0.040573-0.72325-0.61617" fill="#d63d20"/>
 </g>
</svg>
