<svg xmlns="http://www.w3.org/2000/svg" width="64" height="64"><defs><linearGradient id="b" x1="7.937" x2="7.937" y1="15.081" y2="1.852" gradientTransform="scale(3.7796)" gradientUnits="userSpaceOnUse"><stop offset="0" stop-color="#eceaea"/><stop offset=".998" stop-color="#fefbec"/></linearGradient><linearGradient id="e" x1="16.902" x2="16.902" y1="44.899" y2="16.833" gradientTransform="translate(.085 1.56)" gradientUnits="userSpaceOnUse"><stop offset="0" stop-color="#f55b00"/><stop offset="1" stop-color="#f8d644"/></linearGradient><filter id="a" width="1.096" height="1.096" x="-.048" y="-.048" color-interpolation-filters="sRGB"><feGaussianBlur stdDeviation="1.12"/></filter><filter id="c" width="1.226" height="1.207" x="-.113" y="-.104" color-interpolation-filters="sRGB"><feGaussianBlur stdDeviation="1.411"/></filter></defs><rect width="64" height="64" fill="none" rx="0" ry="0" style="paint-order:stroke fill markers"/><rect width="56.002" height="56.002" x="3.999" y="3.999" filter="url(#a)" opacity=".3" rx="13.002" ry="13.002"/><rect width="56.002" height="56.002" x="4" y="3.969" fill="url(#b)" rx="13.002" ry="13.002"/><circle cx="32.02" cy="32.044" r="30.001" fill="none"/><path d="M35.045 17.182c-.06.069-.042.59.008 1.107.012-.368.012-.736.029-1.104q-.02-.021-.037-.003m.008 1.107c-.112 3.559.028 7.119.203 10.674.153 6.434-.08 11.573.082 18.006 1.037.05 2.394-.1 3.057.203.307-.101.447 2.395.885 1.023-.071-.67-.248-1.047-.563-.902 1.572-1.329.358 3.105.863 2.527.167-1.711-.196-3.456.166-5.146.557 1.227.598 2.637.588 3.994.097-.471.2-.971.196-1.133.2-.765 1.865-.672 1.85.182.149-1.087-.123-.32.898-.666.604-.259 1.793-.325 1.869.226.196-.477.198 1.04.408-.086.849-.178 1.747-.654 1.348-1.853-.18-1.403.249-2.783-1.565-2.301-1.626.036-3.274-.146-4.885.055-.896.923-.658-.064-.986-.403-1.43.654-.552-1.812-.246-2.398-.13-6.647-.017-12.002-.053-18.654.17-.782-.542-.861-.736-1.471-.236 1.162-2.65.82-2.131-.576-.583.027-.647-2.124-.805-.375-.205.624-.368-.154-.443-.926m3.379 1.877a1.2 1.2 0 0 0-.035-.559c-.037.235-.013.409.035.559m1.902 28.502c-.145.707-.278 1.34-.004.605q.004-.3.004-.605M18.768 19.875c-2.027.061-1.382 2.38-1.361 3.74.034 2.692.055 5.39-.065 8.076-.165 2.155.18 4.335-.035 6.5.045 1.589-.071 2.754.055 4.227.02.987.123 2.285-.063 3.103.059-.673-.416-3.041-.242-1.404-.187 1.003.08 2.44.844 2.822.097.686.24 1.298.482.678.853.517.764-1.727 1.266-.279.35-.438 1.574-.867 1.523.199.946-1.299 3.057-.695 4.543-.783.522.178 2.796-1.276 3.653-2.248 2.098-2.602 1.582-5.963 1.562-8.992-.016-3.762.315-7.562-.355-11.291-.868-3.133-4.768-4.626-8.02-4.235-1.12.028-2.23-.036-3.346-.095a3 3 0 0 0-.441-.018m6.947 26.879c-.023.247.102.02 0 0M22.879 23.4q.159.007.342.043c2.305-.103 4.23 2.12 3.543 4.159-.108.704.127 2.081-.268 1.363-.155-.492.436-1.647-.197-1.893-.137 1.885-.08 3.796.289 5.66.086 1.285-.44 2.227-.433 3.586-.244 1.514.45 2.825.023 4.157-.281 1.111-.136-1.404-.232-1.844-.335-1.592-.587 1.029-.053 1.56.187.681-.456.044-.328.918.032.561-.166 1.999-.27.752-.298.265-.597.656-.625.795-1.096.43-2.498.752-3.03-.357-.41-1.544-.035-3.078-.171-4.623.5-.062.114-1.842.006-.856-.124-1.225.462-2.078.545-2.879-.244-.306-.492-2.086-.213-2.677-.016-.875.408-2.282-.088-2.467.288-.943-.305-2.17.027-2.848.104.963.21 1.017.264-.043-.533-.485-.715-2.572.869-2.506" filter="url(#c)" opacity=".1"/><path fill="url(#e)" d="M35.045 15.659c-.06.069-.042.59.008 1.107.012-.368.012-.736.029-1.104q-.02-.021-.037-.003m.008 1.107c-.112 3.559.028 7.119.203 10.674.153 6.434-.08 11.573.082 18.006 1.037.05 2.394-.1 3.057.203.307-.101.447 2.395.885 1.023-.071-.67-.248-1.047-.563-.902 1.572-1.329.358 3.105.863 2.527.167-1.711-.196-3.456.166-5.146.557 1.227.598 2.637.588 3.994.097-.471.2-.971.196-1.133.2-.765 1.865-.672 1.85.182.149-1.087-.123-.32.898-.666.604-.259 1.793-.325 1.869.226.196-.477.198 1.04.408-.086.849-.178 1.747-.654 1.348-1.853-.18-1.403.249-2.783-1.565-2.301-1.626.036-3.274-.146-4.885.055-.896.923-.658-.064-.986-.403-1.43.654-.552-1.812-.246-2.398-.13-6.647-.017-12.002-.053-18.654.17-.782-.542-.861-.736-1.471-.236 1.162-2.65.82-2.131-.576-.583.027-.647-2.124-.805-.375-.205.624-.368-.154-.443-.926m3.379 1.877a1.2 1.2 0 0 0-.035-.559c-.037.235-.013.409.035.559m1.902 28.502c-.145.707-.278 1.34-.004.605q.004-.3.004-.605M18.768 18.352c-2.027.061-1.382 2.38-1.361 3.74.034 2.692.055 5.39-.065 8.076-.165 2.155.18 4.335-.035 6.5.045 1.589-.071 2.754.055 4.227.02.987.123 2.285-.063 3.103.059-.673-.416-3.041-.242-1.404-.187 1.003.08 2.44.844 2.822.097.686.24 1.298.482.678.853.517.764-1.727 1.266-.279.35-.438 1.574-.867 1.523.199.946-1.299 3.057-.695 4.543-.783.522.178 2.796-1.276 3.653-2.248 2.098-2.602 1.582-5.963 1.562-8.992-.016-3.762.315-7.562-.355-11.291-.868-3.133-4.768-4.626-8.02-4.235-1.12.028-2.23-.036-3.346-.095a3 3 0 0 0-.441-.018m6.947 26.879c-.023.247.102.02 0 0m-2.836-23.354q.159.007.342.043c2.305-.103 4.23 2.12 3.543 4.159-.108.704.127 2.081-.268 1.363-.155-.492.436-1.647-.197-1.893-.137 1.885-.08 3.796.289 5.66.086 1.285-.44 2.227-.433 3.586-.244 1.514.45 2.825.023 4.157-.281 1.111-.136-1.404-.232-1.844-.335-1.592-.587 1.029-.053 1.56.187.681-.456.044-.328.918.032.561-.166 1.999-.27.752-.298.265-.597.656-.625.795-1.096.43-2.498.752-3.03-.357-.41-1.544-.035-3.078-.171-4.623.5-.062.114-1.842.006-.856-.124-1.225.462-2.078.545-2.879-.244-.306-.492-2.086-.213-2.677-.016-.875.408-2.282-.088-2.467.288-.943-.305-2.17.027-2.848.104.963.21 1.017.264-.043-.533-.485-.715-2.572.869-2.506"/></svg>