<svg width="64" height="64" version="1.1" viewBox="0 0 16.933 16.933" xmlns="http://www.w3.org/2000/svg" xmlns:xlink="http://www.w3.org/1999/xlink">
 <defs>
  <linearGradient id="linearGradient900" x1="37.737" x2="37.737" y1="62.067" y2="39.79" gradientTransform="translate(-28 -40.225)" gradientUnits="userSpaceOnUse">
   <stop stop-color="#089" offset="0"/>
   <stop stop-color="#6f6" offset="1"/>
  </linearGradient>
  <filter id="filter881" x="-.11186" y="-.1044" width="1.2237" height="1.2088" color-interpolation-filters="sRGB">
   <feGaussianBlur stdDeviation="0.41433022"/>
  </filter>
  <linearGradient id="linearGradient893" x1="8.2019" x2="8.2019" y1="4.2333" y2="12.7" gradientUnits="userSpaceOnUse">
   <stop stop-color="#fff" offset="0"/>
   <stop stop-color="#c0f6cc" offset="1"/>
  </linearGradient>
 </defs>
 <g shape-rendering="auto">
  <path d="m4.3693 0.52916c-2.1142 0-3.8402 1.7835-3.8402 3.9682v8.4675c0 2.1846 1.726 3.9682 3.8402 3.9682h8.1944c2.1142 0 3.8402-1.7835 3.8402-3.9682v-8.4675c0-2.1846-1.726-3.9682-3.8402-3.9682zm0.25704 0.52089h7.6808c1.8443 0 3.3291 1.5342 3.3291 3.44v7.9368c0 1.9058-1.4847 3.44-3.3291 3.44h-7.6808c-1.8443 0-3.3291-1.5342-3.3291-3.44v-7.9368c0-1.9058 1.4847-3.44 3.3291-3.44z" color="#000000" color-rendering="auto" dominant-baseline="auto" image-rendering="auto" opacity=".01" solid-color="#000000" stop-color="#000000" style="font-feature-settings:normal;font-variant-alternates:normal;font-variant-caps:normal;font-variant-east-asian:normal;font-variant-ligatures:normal;font-variant-numeric:normal;font-variant-position:normal;font-variation-settings:normal;inline-size:0;isolation:auto;mix-blend-mode:normal;shape-margin:0;shape-padding:0;text-decoration-color:#000000;text-decoration-line:none;text-decoration-style:solid;text-indent:0;text-orientation:mixed;text-transform:none;white-space:normal"/>
  <path d="m4.3587 0.79373c-1.9668 0-3.5639 1.6528-3.5639 3.6876v8.4996c0 2.0348 1.5971 3.6876 3.5639 3.6876h8.2162c1.9668 0 3.5644-1.6528 3.5644-3.6876v-8.4996c0-2.0348-1.5976-3.6876-3.5644-3.6876zm0.27222 0.25631h7.6718c1.8422 0 3.3251 1.5342 3.3251 3.44v7.9368c0 1.9058-1.483 3.44-3.3251 3.44h-7.6718c-1.8422 0-3.3251-1.5342-3.3251-3.44v-7.9368c0-1.9058 1.483-3.44 3.3251-3.44z" color="#000000" color-rendering="auto" dominant-baseline="auto" image-rendering="auto" opacity=".01" solid-color="#000000" stop-color="#000000" style="font-feature-settings:normal;font-variant-alternates:normal;font-variant-caps:normal;font-variant-east-asian:normal;font-variant-ligatures:normal;font-variant-numeric:normal;font-variant-position:normal;font-variation-settings:normal;inline-size:0;isolation:auto;mix-blend-mode:normal;shape-margin:0;shape-padding:0;text-decoration-color:#000000;text-decoration-line:none;text-decoration-style:solid;text-indent:0;text-orientation:mixed;text-transform:none;white-space:normal"/>
  <path d="m4.3097 1.0583c-1.8657 0-3.3751 1.5383-3.3751 3.439v8.4675c0 1.9007 1.57 3.439 3.4357 3.439h8.1996c1.8657 0 3.4274-1.5383 3.4274-3.439v-8.4675c0-1.9007-1.51-3.439-3.3756-3.439h-0.09688c1.794 0.086515 3.2138 1.5819 3.2138 3.4318v7.9368c0 1.9058-1.5059 3.44-3.3766 3.44h-7.7905c-1.8707 0-3.3766-1.5342-3.3766-3.44v-7.9368c0-1.8498 1.4199-3.3451 3.2138-3.4318z" color="#000000" color-rendering="auto" dominant-baseline="auto" image-rendering="auto" opacity=".03" solid-color="#000000" stop-color="#000000" style="font-feature-settings:normal;font-variant-alternates:normal;font-variant-caps:normal;font-variant-east-asian:normal;font-variant-ligatures:normal;font-variant-numeric:normal;font-variant-position:normal;font-variation-settings:normal;inline-size:0;isolation:auto;mix-blend-mode:normal;shape-margin:0;shape-padding:0;text-decoration-color:#000000;text-decoration-line:none;text-decoration-style:solid;text-indent:0;text-orientation:mixed;text-transform:none;white-space:normal"/>
  <path transform="scale(.26458)" d="m4 46.969v2.0312c0 6.6479 5.8957 12 12.544 12h30.961c6.6479 0 12.495-5.3521 12.495-12v-1.9922c-0.02117 7.1849-5.81 12.963-13 12.963h-29.998c-7.2032 0-13.002-5.7987-13.002-13.002z" color="#000000" color-rendering="auto" dominant-baseline="auto" image-rendering="auto" opacity=".03" solid-color="#000000" stop-color="#000000" style="font-feature-settings:normal;font-variant-alternates:normal;font-variant-caps:normal;font-variant-east-asian:normal;font-variant-ligatures:normal;font-variant-numeric:normal;font-variant-position:normal;font-variation-settings:normal;inline-size:0;isolation:auto;mix-blend-mode:normal;shape-margin:0;shape-padding:0;text-decoration-color:#000000;text-decoration-line:none;text-decoration-style:solid;text-indent:0;text-orientation:mixed;text-transform:none;white-space:normal"/>
  <path d="m1.0583 11.906v0.59234c0 1.9386 1.5729 3.4993 3.3318 3.4993h8.1603c1.7589 0 3.3243-1.5608 3.3243-3.4993v-0.58095c-0.0056 2.0952-1.5372 3.7801-3.4395 3.7801h-7.9368c-1.9058 0-3.44-1.691-3.44-3.7915z" color="#000000" color-rendering="auto" dominant-baseline="auto" image-rendering="auto" opacity=".05" solid-color="#000000" stop-color="#000000" style="font-feature-settings:normal;font-variant-alternates:normal;font-variant-caps:normal;font-variant-east-asian:normal;font-variant-ligatures:normal;font-variant-numeric:normal;font-variant-position:normal;font-variation-settings:normal;inline-size:0;isolation:auto;mix-blend-mode:normal;shape-margin:0;shape-padding:0;text-decoration-color:#000000;text-decoration-line:none;text-decoration-style:solid;text-indent:0;text-orientation:mixed;text-transform:none;white-space:normal"/>
 </g>
 <rect x="1.0583" y="1.0583" width="14.816" height="14.816" rx="3.44" ry="3.44" fill="url(#linearGradient900)" stroke-width=".99997"/>
 <path d="m8.149 4.0759a0.63504 0.63504 0 1 0 0 1.27s0.11753-0.0061 0.39439 0.086193c0.27686 0.092285 0.66022 0.27885 1.0616 0.68025 0.4014 0.4014 0.58796 0.78474 0.68025 1.0616 0.09229 0.27686 0.0862 0.39439 0.0862 0.39439a0.63504 0.63504 0 1 0 1.27 0s-0.0061-0.3587-0.15192-0.7962c-0.14584-0.4375-0.43551-1.0066-0.98658-1.5577-0.55107-0.55107-1.1202-0.84075-1.5577-0.98657-0.4375-0.14583-0.7962-0.15193-0.7962-0.15193zm-0.63498 1.5875s-0.3587 0.0061-0.7962 0.15193c-0.4375 0.14583-1.0066 0.4355-1.5577 0.98657-0.55107 0.55107-0.84075 1.1202-0.98657 1.5577-0.14583 0.4375-0.15192 0.7962-0.15192 0.7962a0.63504 0.63504 0 1 0 1.27 0s-0.00612-0.11753 0.086195-0.39439c0.092291-0.27686 0.27884-0.66022 0.68025-1.0616 0.4014-0.4014 0.78474-0.58796 1.0616-0.68025 0.27686-0.092285 0.39439-0.086193 0.39439-0.086193a0.63504 0.63504 0 1 0 0-1.27zm4.7531 2.2138a0.63504 0.63504 0 0 0-0.62568 0.64365s0.0061 0.11753-0.0862 0.39439c-0.09229 0.27686-0.27885 0.66022-0.68026 1.0616-0.4014 0.4014-0.78474 0.58796-1.0616 0.68025-0.27686 0.09229-0.39439 0.0862-0.39439 0.0862a0.63504 0.63504 0 1 0 0 1.27s0.3587-0.0061 0.7962-0.15193c0.4375-0.14583 1.0066-0.4355 1.5577-0.98657 0.55107-0.55107 0.84075-1.1202 0.98657-1.5577 0.14583-0.4375 0.15193-0.7962 0.15193-0.7962a0.63504 0.63504 0 0 0-0.64428-0.64366zm-6.3498 1.5875a0.63504 0.63504 0 0 0-0.62568 0.64365s0.00612 0.3587 0.15193 0.7962c0.14583 0.4375 0.4355 1.0066 0.98657 1.5577 0.55107 0.55107 1.1202 0.84075 1.5577 0.98657 0.4375 0.14583 0.7962 0.15192 0.7962 0.15192a0.63504 0.63504 0 1 0 0-1.27s-0.11753 0.0061-0.39439-0.0862c-0.27686-0.092274-0.66022-0.27884-1.0616-0.68025-0.4014-0.4014-0.58796-0.78474-0.68025-1.0616-0.092285-0.27686-0.086193-0.39439-0.086193-0.39439a0.63504 0.63504 0 0 0-0.64428-0.64365z" filter="url(#filter881)" opacity=".15" stroke-width=".31749"/>
 <path d="m8.149 3.7042a0.63504 0.63504 0 1 0 0 1.27s0.11753-0.0061 0.39439 0.086193c0.27686 0.092285 0.66022 0.27885 1.0616 0.68025 0.4014 0.4014 0.58796 0.78474 0.68025 1.0616 0.09229 0.27686 0.0862 0.39439 0.0862 0.39439a0.63504 0.63504 0 1 0 1.27 0s-0.0061-0.3587-0.15192-0.7962c-0.14584-0.4375-0.43551-1.0066-0.98658-1.5577-0.55107-0.55107-1.1202-0.84075-1.5577-0.98657-0.4375-0.14583-0.7962-0.15193-0.7962-0.15193zm-0.63498 1.5875s-0.3587 0.0061-0.7962 0.15193c-0.4375 0.14583-1.0066 0.4355-1.5577 0.98657-0.55107 0.55107-0.84075 1.1202-0.98657 1.5577-0.14583 0.4375-0.15192 0.7962-0.15192 0.7962a0.63504 0.63504 0 1 0 1.27 0s-0.00612-0.11753 0.086195-0.39439c0.092291-0.27686 0.27884-0.66022 0.68025-1.0616 0.4014-0.4014 0.78474-0.58796 1.0616-0.68025 0.27686-0.092285 0.39439-0.086193 0.39439-0.086193a0.63504 0.63504 0 1 0 0-1.27zm4.7531 2.2138a0.63504 0.63504 0 0 0-0.62568 0.64365s0.0061 0.11753-0.0862 0.39439c-0.09229 0.27686-0.27885 0.66022-0.68026 1.0616-0.4014 0.4014-0.78474 0.58796-1.0616 0.68025-0.27686 0.09229-0.39439 0.0862-0.39439 0.0862a0.63504 0.63504 0 1 0 0 1.27s0.3587-0.0061 0.7962-0.15193c0.4375-0.14583 1.0066-0.4355 1.5577-0.98657 0.55107-0.55107 0.84075-1.1202 0.98657-1.5577 0.14583-0.4375 0.15193-0.7962 0.15193-0.7962a0.63504 0.63504 0 0 0-0.64428-0.64366zm-6.3498 1.5875a0.63504 0.63504 0 0 0-0.62568 0.64365s0.00612 0.3587 0.15193 0.7962c0.14583 0.4375 0.4355 1.0066 0.98657 1.5577 0.55107 0.55107 1.1202 0.84075 1.5577 0.98657 0.4375 0.14583 0.7962 0.15192 0.7962 0.15192a0.63504 0.63504 0 1 0 0-1.27s-0.11753 0.0061-0.39439-0.0862c-0.27686-0.092274-0.66022-0.27884-1.0616-0.68025-0.4014-0.4014-0.58796-0.78474-0.68025-1.0616-0.092285-0.27686-0.086193-0.39439-0.086193-0.39439a0.63504 0.63504 0 0 0-0.64428-0.64365z" fill="url(#linearGradient893)" stroke-width=".31749"/>
</svg>
