<svg width="64" height="64" viewBox="0 0 16.933 16.933" xmlns="http://www.w3.org/2000/svg"><defs><filter id="i" x="-.11" y="-.13" width="1.22" height="1.26" color-interpolation-filters="sRGB"><feGaussianBlur stdDeviation=".152"/></filter><filter id="j" x="-.19" y="-.243" width="1.38" height="1.486" color-interpolation-filters="sRGB"><feGaussianBlur stdDeviation=".152"/></filter><filter id="k" x="-.058" y="-.062" width="1.116" height="1.124" color-interpolation-filters="sRGB"><feGaussianBlur stdDeviation=".128"/></filter><filter id="l" x="-.062" y="-.067" width="1.125" height="1.133" color-interpolation-filters="sRGB"><feGaussianBlur stdDeviation=".086"/></filter><filter id="m" x="-.055" y="-.066" width="1.111" height="1.131" color-interpolation-filters="sRGB"><feGaussianBlur stdDeviation=".762"/></filter><filter id="n" x="-.012" y="-.012" width="1.023" height="1.025" color-interpolation-filters="sRGB"><feGaussianBlur stdDeviation=".03"/></filter><filter id="o" x="-.233" y="-.248" width="1.465" height="1.496" color-interpolation-filters="sRGB"><feGaussianBlur stdDeviation="1.061"/></filter><filter id="p" x="-.196" y="-.309" width="1.393" height="1.617" color-interpolation-filters="sRGB"><feGaussianBlur stdDeviation="2.988"/></filter><filter id="q" x="-.233" y="-.248" width="1.465" height="1.496" color-interpolation-filters="sRGB"><feGaussianBlur stdDeviation=".512"/></filter><linearGradient id="a" x1="7.982" x2="7.982" y1="1.319" y2="15.526" gradientUnits="userSpaceOnUse"><stop stop-color="#f0f0f0" offset="0"/><stop stop-color="#f0f0f0" offset="1"/></linearGradient><linearGradient id="b" x1="8.466" x2="8.466" y1="10.583" y2="5.292" gradientTransform="translate(-44.798 -39.998) scale(9.0707)" gradientUnits="userSpaceOnUse"><stop stop-color="#b6c9e7" offset="0"/><stop stop-color="#92b7ef" offset="1"/></linearGradient><linearGradient id="d" x1="8.467" x2="8.467" y1="-2.92" y2="19.84" gradientTransform="translate(9.021 8.759) scale(.37199)" gradientUnits="userSpaceOnUse"><stop stop-color="#ccc" offset="0"/><stop stop-color="#ebebeb" offset="1"/></linearGradient><linearGradient id="e" x1="8.467" x2="8.467" y1="280.6" y2="296.47" gradientTransform="translate(8.983 -96.719) scale(.37645)" gradientUnits="userSpaceOnUse"><stop stop-color="#666" offset="0"/><stop stop-color="#9f9f9f" offset="1"/></linearGradient><linearGradient id="f" x1="8.467" x2="8.467" y1="282.18" y2="294.88" gradientTransform="translate(9.021 -95.424) scale(.37199)" gradientUnits="userSpaceOnUse"><stop stop-color="#333" offset="0"/><stop stop-color="#666" offset="1"/></linearGradient><linearGradient id="g" x1="8.467" x2="8.467" y1="283.24" y2="293.82" gradientTransform="translate(9.021 -95.424) scale(.37199)" gradientUnits="userSpaceOnUse"><stop offset="0"/><stop stop-color="#121212" offset="1"/></linearGradient><radialGradient id="c" cx="12.171" cy="12.171" r="4.762" gradientUnits="userSpaceOnUse"><stop offset="0"/><stop stop-opacity="0" offset="1"/></radialGradient><radialGradient id="h" cx="-136.99" cy="198.65" r="38.5" gradientTransform="matrix(.03653 0 0 .03068 17.174 5.813)" gradientUnits="userSpaceOnUse"><stop stop-color="#2561db" stop-opacity=".941" offset="0"/><stop stop-color="#0d0d0d" offset="1"/></radialGradient></defs><g color="#000"><path d="M4.37.53C2.254.53.53 2.312.53 4.496v8.468c0 2.184 1.725 3.968 3.84 3.968h8.194c2.114 0 3.84-1.783 3.84-3.968V4.497c0-2.184-1.726-3.968-3.84-3.968zm.256.52h7.681c1.844 0 3.33 1.534 3.33 3.44v7.937c0 1.906-1.485 3.44-3.33 3.44h-7.68c-1.845 0-3.33-1.534-3.33-3.44V4.49c0-1.906 1.485-3.44 3.33-3.44z" opacity=".01" style="font-feature-settings:normal;font-variant-alternates:normal;font-variant-caps:normal;font-variant-east-asian:normal;font-variant-ligatures:normal;font-variant-numeric:normal;font-variant-position:normal;font-variation-settings:normal;inline-size:0;isolation:auto;mix-blend-mode:normal;shape-margin:0;shape-padding:0;text-decoration-color:#000;text-decoration-line:none;text-decoration-style:solid;text-indent:0;text-orientation:mixed;text-transform:none;white-space:normal"/><path d="M4.359.794C2.392.794.795 2.447.795 4.48v8.5c0 2.035 1.597 3.688 3.564 3.688h8.216c1.967 0 3.564-1.653 3.564-3.688v-8.5c0-2.034-1.597-3.687-3.564-3.687zm.272.256h7.672c1.842 0 3.325 1.534 3.325 3.44v7.937c0 1.906-1.483 3.44-3.325 3.44H4.63c-1.842 0-3.325-1.534-3.325-3.44V4.49c0-1.906 1.483-3.44 3.325-3.44z" opacity=".01" style="font-feature-settings:normal;font-variant-alternates:normal;font-variant-caps:normal;font-variant-east-asian:normal;font-variant-ligatures:normal;font-variant-numeric:normal;font-variant-position:normal;font-variation-settings:normal;inline-size:0;isolation:auto;mix-blend-mode:normal;shape-margin:0;shape-padding:0;text-decoration-color:#000;text-decoration-line:none;text-decoration-style:solid;text-indent:0;text-orientation:mixed;text-transform:none;white-space:normal"/><path d="M4.31 1.058c-1.866 0-3.375 1.539-3.375 3.44v8.467c0 1.9 1.57 3.439 3.435 3.439h8.2c1.866 0 3.427-1.538 3.427-3.44V4.498c0-1.9-1.51-3.439-3.375-3.439h-.097c1.794.087 3.214 1.582 3.214 3.432v7.937c0 1.906-1.506 3.44-3.377 3.44h-7.79c-1.871 0-3.377-1.534-3.377-3.44V4.49c0-1.85 1.42-3.345 3.214-3.432z" opacity=".03" style="font-feature-settings:normal;font-variant-alternates:normal;font-variant-caps:normal;font-variant-east-asian:normal;font-variant-ligatures:normal;font-variant-numeric:normal;font-variant-position:normal;font-variation-settings:normal;inline-size:0;isolation:auto;mix-blend-mode:normal;shape-margin:0;shape-padding:0;text-decoration-color:#000;text-decoration-line:none;text-decoration-style:solid;text-indent:0;text-orientation:mixed;text-transform:none;white-space:normal"/><path transform="scale(.26458)" d="M4 46.969V49c0 6.648 5.896 12 12.544 12h30.961C54.153 61 60 55.648 60 49v-1.992a12.972 12.972 0 0 1-13 12.963H17.002A12.973 12.973 0 0 1 4 46.969z" opacity=".03" style="font-feature-settings:normal;font-variant-alternates:normal;font-variant-caps:normal;font-variant-east-asian:normal;font-variant-ligatures:normal;font-variant-numeric:normal;font-variant-position:normal;font-variation-settings:normal;inline-size:0;isolation:auto;mix-blend-mode:normal;shape-margin:0;shape-padding:0;text-decoration-color:#000;text-decoration-line:none;text-decoration-style:solid;text-indent:0;text-orientation:mixed;text-transform:none;white-space:normal"/><path d="M1.058 11.906v.592c0 1.939 1.573 3.5 3.332 3.5h8.16c1.76 0 3.325-1.561 3.325-3.5v-.58c-.006 2.095-1.537 3.78-3.44 3.78H4.498c-1.905 0-3.44-1.692-3.44-3.792z" opacity=".05" style="font-feature-settings:normal;font-variant-alternates:normal;font-variant-caps:normal;font-variant-east-asian:normal;font-variant-ligatures:normal;font-variant-numeric:normal;font-variant-position:normal;font-variation-settings:normal;inline-size:0;isolation:auto;mix-blend-mode:normal;shape-margin:0;shape-padding:0;text-decoration-color:#000;text-decoration-line:none;text-decoration-style:solid;text-indent:0;text-orientation:mixed;text-transform:none;white-space:normal"/></g><rect x="1.058" y="1.05" width="14.817" height="14.817" rx="3.44" ry="3.44" fill="url(#a)"/><path transform="scale(.26459)" d="M16.426 8a8.972 8.972 0 0 0-8.424 8.97v30c0 4.986 4.014 9 9 9H47a8.979 8.979 0 0 0 8.998-8.961V16.932A8.97 8.97 0 0 0 47.576 8h-31.15z" fill="url(#b)"/><path d="M2.118 8.616v3.81a2.376 2.376 0 0 0 2.38 2.382h7.938a2.376 2.376 0 0 0 2.381-2.381v-3.81h-12.7z" fill="#927b63"/><path d="M2.117 7.634v3.16l.612.182.336.08.309-1.007.94-.096.684.348h.786l.79.555.784-.162.674.483.561.121-.327-.946 1.534.14.785.122 1.375-.524 2.667-.121.19-.006v-2.33z" fill="#353b71"/><path d="m7.065 10.03-1.847.17-.202.12.617.072.365.62-.224.545-1.263.072-.87-.546s-.281.62-.45.4c-.168-.217-.673.183-.673.183l-.4.215v.546a2.376 2.376 0 0 0 2.38 2.381h1.678a2.11 2.11 0 0 1-.15-.23c-.169-.292 0-.656.168-1.057.168-.4.982.364.982.364s.298.53.497.923H9.83c.307-.255.982-.482 1.107-.45.068.018.156.226.242.45h1.257c.057 0 .113-.005.168-.009l.297-.368s.422-.764.562-.873c.14-.11.505.073.673.255.035.038.049.122.053.225a2.37 2.37 0 0 0 .628-1.611V10.7c-1.586.015-3.347.056-3.347.056l-1.234-.181-.534-.239-.084.239-.813.145s-.394-.29-.422-.472c-.028-.182-1.318-.219-1.318-.219z" fill="#d5e8f9"/><path d="m5.308 10.285-.14.182s.237.379.265.463c.028.084-.069.211-.167.295s-.267.14-.393.169c-.127.028-.435-.07-.645-.295-.21-.225-.59-.169-.59-.169l-.294.393-.14.365s-.59-.042-.674-.14c-.043-.05-.234-.09-.413-.116v.668c0 .1.202.756.217.85.517.105 2.162.727 2.422.814.298.099 1.23-.1 1.23-.1s.179.16.16.239c-.02.079.158.317.158.317s.476-.417.536-.238c.06.179.277.258.377.377.099.12 1.29.198 1.508.258.218.06 1.924.04 1.924.04s1.548-.219 1.945-.278c.397-.06.913-.377 1.071-.417.16-.04.14.1.258.238.12.14.536-.516.536-.516s0-1.627.159-2.083c.159-.456-.02-.675-.1-.952-.079-.278-.317-.298-.317-.298l-1.091.178h-1.23l-3.219.051s-.687.182-.842.21c-.154.028-1.628-.21-1.628-.21z" opacity=".15"/><path d="m7.064 10.029-1.678.116-.37.174.617.073.364.619-.224.545-1.262.073-.871-.546s-.28.619-.45.4c-.167-.218-.672.183-.672.183l-.4.214v.546a2.376 2.376 0 0 0 2.38 2.382h1.678a2.325 2.325 0 0 1-.151-.232c-.169-.29 0-.655.169-1.055.168-.4.982.363.982.363s.297.53.497.924h2.156c.307-.256.982-.482 1.107-.45.068.018.157.225.242.45h1.258c.056 0 .111-.005.167-.008l.297-.37s.422-.764.562-.873c.14-.11.505.074.674.255.035.038.048.122.052.226a2.37 2.37 0 0 0 .628-1.601v-1.738c-1.586.015-3.347.056-3.347.056l-1.234-.18-.309-.043-.308.042-.814.146s-.394-.291-.422-.473c-.028-.182-1.318-.218-1.318-.218z" fill="#d5e8f9"/><path d="m7.435 10.053.412.19.632.173a.402.402 0 0 1-.096-.169c-.02-.13-.57-.173-.948-.194zm2.59.157-.363.247.207-.044 1.234.617 1.516-.113 1.402.056s.382.249.797.553V10.7c-1.587.014-3.348.056-3.348.056l-1.234-.181-.211-.365zm-6.385.873s-.072.158-.165.287l.836.333 1.011.168 1.011-.45-.44-.157-.12.293-1.262.072-.87-.546zm10.129 1.995-.87.815-.269.874.27-.336s.423-.764.563-.873c.14-.11.505.073.673.255.035.038.048.122.052.225a2.4 2.4 0 0 0 .362-.513l-.079-.25-.702-.197zm-7.105.243a.207.207 0 0 0-.08.01c-.05.024-.127.047-.233.085.292-.026.825.469.825.469s.297.53.497.923h.407l-.234-.186.114-.534-.281-.617s-.553-.11-.876-.142a1.544 1.544 0 0 0-.14-.008zm-.405.129c-.085.03-.208.077-.208.077l-.309.533-.645.168-.28.478-.264.102h1.623a2.325 2.325 0 0 1-.151-.231c-.169-.291 0-.655.168-1.055.016-.037.042-.054.066-.072zm4.732.525-.983.366-.382.467h.204c.307-.255.982-.482 1.106-.45.035.01.076.07.118.155l.132-.229-.195-.309z" fill="#b9e3e9"/><path d="m11.562 12.95-.119-1.27-.675-.04s-.119.16-.238.397c-.119.239-.873.358-.873.358s-.476.04-.357.357c.12.317.992.873.992.873l.754-.159 1.945-.159 1.19.04s.318-.873.238-1.111c-.079-.238.16-1.508-.238-1.19s-.476.515-.595.714c-.119.198-.754.119-.754.119l-.516-.238-.119.833-.317.476z" fill="#927b63"/><path d="m11.562 12.95-.119-1.27-.675-.04s-.119.16-.238.397c-.119.239-.873.358-.873.358s-.476.04-.357.357c.12.317.992.873.992.873l.754-.159 1.945-.159 1.19.04s.318-.873.238-1.111c-.079-.238.16-1.508-.238-1.19s-.476.515-.595.714c-.119.198-.754.119-.754.119l-.516-.238-.119.833-.317.476z" fill="#927b63"/><path d="M14.302 10.996c-.032-.005-.071.01-.12.05-.398.317-.477.515-.596.714-.119.198-.754.119-.754.119l-.516-.238-.119.833-.317.476h-.318l-.027-.296-.032.247s.109.277.148.267l.516-.119.159-.436.179-.337s.109-.229.188-.219c.08.01.824.06.824.06l.525-.199.239.12s.099.188.099.238c0 .05-.02.297-.04.377-.02.079-.188.307-.188.307l-.248.208-.02.09-.229-.08-.178.13-.159-.01-.208.013 1.071.036s.318-.873.238-1.111c-.069-.209.104-1.207-.117-1.24zm-3.534.645s-.119.158-.238.396-.873.358-.873.358-.476.04-.357.357c.116.31.936.836.972.86.02-.074.038-.156.02-.186-.03-.05-.268-.258-.268-.258s-.218-.198-.178-.267c.04-.07.228-.15.297-.229.07-.079.546-.397.605-.456s.239-.397.239-.397l.337.09.187.495-.068-.724zm.893 1.696-.188.094.92-.075-.365-.009z" opacity=".15"/><path d="m9.167 8.672-7.05.08v.55l.736.043s1.01-.084 1.122-.056c.112.028 1.178.196 1.178.196l2.891-.253 2.582.029 2.75-.253.982.224-.534-.307s-.73 0-.897.055c-.169.057-4.968.28-5.754.28S2.32 9.15 2.32 9.15l.28-.198 4.659-.084z" fill="#fff" opacity=".15"/><path d="M14.81 9.736s-.088.004-1.263 0c-2 0-3.66-.258-3.8-.59.108.444 1.777.792 3.8.793 1.093.005 1.211.017 1.269.024z" fill="#fff" opacity=".08"/><circle cx="12.171" cy="12.171" r="4.762" fill="url(#c)"/><g transform="translate(0 .265)"><g stroke-width=".533"><circle cx="12.171" cy="11.906" r="4.233" fill="url(#d)"/><circle cx="12.171" cy="11.906" r="2.963" fill="url(#e)"/><circle cx="12.171" cy="11.906" r="2.362" fill="url(#f)"/><circle cx="12.171" cy="11.906" r="1.968" fill="url(#g)"/></g><circle cx="12.171" cy="11.906" r="1.531" fill="url(#h)" stroke="#0d224d" stroke-linecap="round" stroke-linejoin="round" stroke-width=".125"/><g stroke-width="1.434"><path d="m4.945 6.47 1.464.81s.458-.477.772-.686c.348-.23 1.105-.416 1.093-.36l-.241-1.762S6.412 4.31 4.945 6.47z" fill="#4678cc" filter="url(#i)" opacity=".8" transform="translate(9.021 8.759) scale(.37199)"/><path d="m4.788 6.73 1.565.695s-.089.202-.123.421c-.032.2.004.387.004.387l-1.806-.019s.072-1.036.36-1.484z" fill="#4678cc" filter="url(#j)" opacity=".8" transform="translate(9.021 8.759) scale(.37199)"/><g transform="translate(9.021 -95.424) scale(.37199)" fill="#fff"><ellipse transform="matrix(.15683 -.13591 .13591 .15683 36.278 248.68)" cx="-228.33" cy="44.944" rx="3.083" ry="1.903" fill-opacity=".3" filter="url(#k)"/><ellipse transform="matrix(.10291 -.08918 .08918 .10291 26.112 262.03)" cx="-228.1" cy="51.166" rx="1.918" ry="1.184" fill-opacity=".3" filter="url(#l)"/><ellipse transform="matrix(.11873 -.07942 .07942 .11873 27.406 259.75)" cx="-222.03" cy="111.72" rx="18.419" ry="11.368" filter="url(#m)" opacity=".2"/><ellipse transform="matrix(.10291 -.08918 .08918 .10291 26.764 261.46)" cx="-235.29" cy="75.046" rx="3.667" ry="2.263" fill-opacity=".3" filter="url(#n)"/><ellipse transform="matrix(.12523 -.10853 .10853 .12523 29.918 254.7)" cx="-234.21" cy="88.759" rx="6.386" ry="3.941" filter="url(#o)"/></g><g transform="translate(9.021 -95.424) scale(.37199)"><ellipse transform="matrix(.14046 -.08281 .08281 .14046 31.651 256.02)" cx="-222.03" cy="111.72" rx="18.419" ry="11.368" fill="#4397ee" filter="url(#p)" opacity=".45"/><ellipse transform="rotate(-40.914 369.07 103.988) scale(.10761)" cx="-228.33" cy="44.944" rx="3.083" ry="1.903" fill="#fff" fill-opacity=".854" filter="url(#q)"/><ellipse transform="rotate(-40.912 374.319 107.861) scale(.09151)" cx="-228.1" cy="51.166" rx="1.918" ry="1.184" fill="#fff" fill-opacity=".3" filter="url(#l)"/></g></g></g></svg>