<svg width="64" height="64" version="1.1" viewBox="0 0 16.933 16.933" xmlns="http://www.w3.org/2000/svg" xmlns:xlink="http://www.w3.org/1999/xlink">
 <defs>
  <filter id="a" x="-.075" y="-.05" width="1.15" height="1.1" color-interpolation-filters="sRGB">
   <feGaussianBlur stdDeviation="0.9375"/>
  </filter>
  <linearGradient id="linearGradient862-3" x1="7.9373" x2="7.9373" y1="15.081" y2="1.852" gradientTransform="matrix(.99997 0 0 .99997 3.7616e-5 .0083364)" gradientUnits="userSpaceOnUse">
   <stop stop-color="#18222a" offset="0"/>
   <stop stop-color="#566069" offset="1"/>
  </linearGradient>
  <linearGradient id="linearGradient953" x1="-8.3757" x2="-8.3757" y1="10.099" y2="2.8762" gradientUnits="userSpaceOnUse">
   <stop stop-color="#f5400a" offset="0"/>
   <stop stop-color="#f68565" offset="1"/>
  </linearGradient>
  <linearGradient id="linearGradient961" x1="-6.2533" x2="-6.2533" y1="8.9884" y2="3.601" gradientUnits="userSpaceOnUse">
   <stop stop-color="#ff4833" offset="0"/>
   <stop stop-color="#ff998d" offset="1"/>
  </linearGradient>
  <linearGradient id="linearGradient969" x1="-9.2649" x2="-9.2649" y1="13.114" y2="7.1152" gradientUnits="userSpaceOnUse">
   <stop stop-color="#751fe0" offset="0"/>
   <stop stop-color="#a776e5" offset="1"/>
  </linearGradient>
  <linearGradient id="linearGradient977" x1="-5.6761" x2="-5.6761" y1="12.688" y2="7.5282" gradientUnits="userSpaceOnUse">
   <stop stop-color="#0183b7" offset="0"/>
   <stop stop-color="#53cdfe" offset="1"/>
  </linearGradient>
  <linearGradient id="linearGradient985" x1="-9.6923" x2="-9.6923" y1="16.337" y2="11.521" gradientUnits="userSpaceOnUse">
   <stop stop-color="#06935c" offset="0"/>
   <stop stop-color="#13f59d" offset="1"/>
  </linearGradient>
 </defs>
 <g shape-rendering="auto">
  <path d="m4.3693 0.52916c-2.1142 0-3.8402 1.7835-3.8402 3.9682v8.4675c0 2.1846 1.726 3.9682 3.8402 3.9682h8.1944c2.1142 0 3.8402-1.7835 3.8402-3.9682v-8.4675c0-2.1846-1.726-3.9682-3.8402-3.9682zm0.25704 0.52089h7.6808c1.8443 0 3.3291 1.5342 3.3291 3.44v7.9368c0 1.9058-1.4847 3.44-3.3291 3.44h-7.6808c-1.8443 0-3.3291-1.5342-3.3291-3.44v-7.9368c0-1.9058 1.4847-3.44 3.3291-3.44z" color="#000000" color-rendering="auto" dominant-baseline="auto" image-rendering="auto" opacity=".01" solid-color="#000000" stop-color="#000000" style="font-feature-settings:normal;font-variant-alternates:normal;font-variant-caps:normal;font-variant-east-asian:normal;font-variant-ligatures:normal;font-variant-numeric:normal;font-variant-position:normal;font-variation-settings:normal;inline-size:0;isolation:auto;mix-blend-mode:normal;shape-margin:0;shape-padding:0;text-decoration-color:#000000;text-decoration-line:none;text-decoration-style:solid;text-indent:0;text-orientation:mixed;text-transform:none;white-space:normal"/>
  <path d="m4.3587 0.79373c-1.9668 0-3.5639 1.6528-3.5639 3.6876v8.4996c0 2.0348 1.5971 3.6876 3.5639 3.6876h8.2162c1.9668 0 3.5644-1.6528 3.5644-3.6876v-8.4996c0-2.0348-1.5976-3.6876-3.5644-3.6876zm0.27222 0.25631h7.6718c1.8422 0 3.3251 1.5342 3.3251 3.44v7.9368c0 1.9058-1.483 3.44-3.3251 3.44h-7.6718c-1.8422 0-3.3251-1.5342-3.3251-3.44v-7.9368c0-1.9058 1.483-3.44 3.3251-3.44z" color="#000000" color-rendering="auto" dominant-baseline="auto" image-rendering="auto" opacity=".01" solid-color="#000000" stop-color="#000000" style="font-feature-settings:normal;font-variant-alternates:normal;font-variant-caps:normal;font-variant-east-asian:normal;font-variant-ligatures:normal;font-variant-numeric:normal;font-variant-position:normal;font-variation-settings:normal;inline-size:0;isolation:auto;mix-blend-mode:normal;shape-margin:0;shape-padding:0;text-decoration-color:#000000;text-decoration-line:none;text-decoration-style:solid;text-indent:0;text-orientation:mixed;text-transform:none;white-space:normal"/>
  <path d="m4.3097 1.0583c-1.8657 0-3.3751 1.5383-3.3751 3.439v8.4675c0 1.9007 1.57 3.439 3.4357 3.439h8.1996c1.8657 0 3.4274-1.5383 3.4274-3.439v-8.4675c0-1.9007-1.51-3.439-3.3756-3.439h-0.09688c1.794 0.086515 3.2138 1.5819 3.2138 3.4318v7.9368c0 1.9058-1.5059 3.44-3.3766 3.44h-7.7905c-1.8707 0-3.3766-1.5342-3.3766-3.44v-7.9368c0-1.8498 1.4199-3.3451 3.2138-3.4318z" color="#000000" color-rendering="auto" dominant-baseline="auto" image-rendering="auto" opacity=".03" solid-color="#000000" stop-color="#000000" style="font-feature-settings:normal;font-variant-alternates:normal;font-variant-caps:normal;font-variant-east-asian:normal;font-variant-ligatures:normal;font-variant-numeric:normal;font-variant-position:normal;font-variation-settings:normal;inline-size:0;isolation:auto;mix-blend-mode:normal;shape-margin:0;shape-padding:0;text-decoration-color:#000000;text-decoration-line:none;text-decoration-style:solid;text-indent:0;text-orientation:mixed;text-transform:none;white-space:normal"/>
  <path transform="scale(.26458)" d="m4 46.969v2.0312c0 6.6479 5.8957 12 12.544 12h30.961c6.6479 0 12.495-5.3521 12.495-12v-1.9922c-0.02117 7.1849-5.81 12.963-13 12.963h-29.998c-7.2032 0-13.002-5.7987-13.002-13.002z" color="#000000" color-rendering="auto" dominant-baseline="auto" image-rendering="auto" opacity=".03" solid-color="#000000" stop-color="#000000" style="font-feature-settings:normal;font-variant-alternates:normal;font-variant-caps:normal;font-variant-east-asian:normal;font-variant-ligatures:normal;font-variant-numeric:normal;font-variant-position:normal;font-variation-settings:normal;inline-size:0;isolation:auto;mix-blend-mode:normal;shape-margin:0;shape-padding:0;text-decoration-color:#000000;text-decoration-line:none;text-decoration-style:solid;text-indent:0;text-orientation:mixed;text-transform:none;white-space:normal"/>
  <path d="m1.0583 11.906v0.59234c0 1.9386 1.5729 3.4993 3.3318 3.4993h8.1603c1.7589 0 3.3243-1.5608 3.3243-3.4993v-0.58095c-0.0056 2.0952-1.5372 3.7801-3.4395 3.7801h-7.9368c-1.9058 0-3.44-1.691-3.44-3.7915z" color="#000000" color-rendering="auto" dominant-baseline="auto" image-rendering="auto" opacity=".05" solid-color="#000000" stop-color="#000000" style="font-feature-settings:normal;font-variant-alternates:normal;font-variant-caps:normal;font-variant-east-asian:normal;font-variant-ligatures:normal;font-variant-numeric:normal;font-variant-position:normal;font-variation-settings:normal;inline-size:0;isolation:auto;mix-blend-mode:normal;shape-margin:0;shape-padding:0;text-decoration-color:#000000;text-decoration-line:none;text-decoration-style:solid;text-indent:0;text-orientation:mixed;text-transform:none;white-space:normal"/>
 </g>
 <rect x="1.0583" y="1.0583" width="14.816" height="14.816" rx="3.44" ry="3.44" fill="url(#linearGradient862-3)" stroke-width=".99997"/>
 <g transform="translate(16.159 -1.5739)">
  <path transform="matrix(.26458 0 0 .26458 -16.159 1.5739)" d="m24.5 9.5c-4.155 0-7.5 3.345-7.5 7.5s3.345 7.5 7.5 7.5c-4.155 0-7.5 3.345-7.5 7.5s3.345 7.5 7.5 7.5a7.5 7.5 0 0 0-7.5 7.5 7.5 7.5 0 0 0 7.5 7.5 7.5 7.5 0 0 0 7.5-7.5v-22.5h7.5c4.155 0 7.5-3.345 7.5-7.5s-3.345-7.5-7.5-7.5h-15zm15 15a7.5 7.5 0 0 0-7.5 7.5 7.5 7.5 0 0 0 7.5 7.5 7.5 7.5 0 0 0 7.5-7.5 7.5 7.5 0 0 0-7.5-7.5z" filter="url(#a)" opacity=".15"/>
  <g stroke-width=".26458">
   <path d="m-9.6765 12.025a1.9843 1.9843 0 0 0-1.9843 1.9843 1.9843 1.9843 0 0 0 1.9843 1.9843 1.9843 1.9843 0 0 0 1.9843-1.9843v-1.9843z" fill="url(#linearGradient985)"/>
   <path d="m-9.6765 8.0561h1.9843v3.9687h-1.9843c-1.0993 0-1.9843-0.88502-1.9843-1.9843 0-1.0993 0.88501-1.9843 1.9843-1.9843z" fill="url(#linearGradient969)"/>
   <circle cx="-5.7079" cy="10.04" r="1.9843" fill="url(#linearGradient977)"/>
   <path d="m-9.6765 4.0874c-1.0993 0-1.9843 0.88501-1.9843 1.9843 0 1.0993 0.88501 1.9843 1.9843 1.9843h1.9843v-3.9687z" fill="url(#linearGradient953)"/>
   <path d="m-7.6922 4.0874h1.9843c1.0993 0 1.9843 0.88501 1.9843 1.9843 0 1.0993-0.88501 1.9843-1.9843 1.9843h-1.9843z" fill="url(#linearGradient961)"/>
  </g>
 </g>
</svg>
