<svg width="64" height="64" viewBox="0 0 16.933 16.933" xmlns="http://www.w3.org/2000/svg" xmlns:xlink="http://www.w3.org/1999/xlink"><defs><linearGradient id="e" x1="7.408" x2="7.408" y1="2.381" y2="15.048" gradientUnits="userSpaceOnUse"><stop stop-color="#cee3ea" offset="0"/><stop stop-color="#797a79" offset="1"/></linearGradient><linearGradient id="a" x1="14.552" x2="14.552" y1="7.408" y2="6.085" gradientUnits="userSpaceOnUse"><stop stop-color="#dcdcdc" offset="0"/><stop stop-color="#747474" offset="1"/></linearGradient><linearGradient id="d" x1="16.139" x2="16.139" y1="10.054" y2="8.731" gradientUnits="userSpaceOnUse" xlink:href="#a"/><linearGradient id="c" x1="16.139" x2="16.139" y1="12.7" y2="11.377" gradientUnits="userSpaceOnUse" xlink:href="#a"/><linearGradient id="b"><stop stop-opacity=".75" offset="0"/><stop stop-opacity=".8" offset=".7"/><stop stop-opacity=".5" offset="1"/></linearGradient><radialGradient id="f" cx="2.117" cy="6.085" r=".529" gradientUnits="userSpaceOnUse" xlink:href="#b"/><radialGradient id="g" cx="2.117" cy="6.085" r=".529" gradientTransform="translate(0 3.44)" gradientUnits="userSpaceOnUse" xlink:href="#b"/><radialGradient id="h" cx="2.117" cy="6.085" r=".529" gradientTransform="translate(0 6.879)" gradientUnits="userSpaceOnUse" xlink:href="#b"/></defs><g color="#000"><path d="M4.37.53C2.254.53.53 2.312.53 4.496v8.468c0 2.184 1.725 3.968 3.84 3.968h8.194c2.114 0 3.84-1.783 3.84-3.968V4.497c0-2.184-1.726-3.968-3.84-3.968zm.256.52h7.681c1.844 0 3.33 1.534 3.33 3.44v7.937c0 1.906-1.485 3.44-3.33 3.44h-7.68c-1.845 0-3.33-1.534-3.33-3.44V4.49c0-1.906 1.485-3.44 3.33-3.44z" opacity=".01" style="font-feature-settings:normal;font-variant-alternates:normal;font-variant-caps:normal;font-variant-east-asian:normal;font-variant-ligatures:normal;font-variant-numeric:normal;font-variant-position:normal;font-variation-settings:normal;inline-size:0;isolation:auto;mix-blend-mode:normal;shape-margin:0;shape-padding:0;text-decoration-color:#000;text-decoration-line:none;text-decoration-style:solid;text-indent:0;text-orientation:mixed;text-transform:none;white-space:normal"/><path d="M4.359.794C2.392.794.795 2.447.795 4.48v8.5c0 2.035 1.597 3.688 3.564 3.688h8.216c1.967 0 3.564-1.653 3.564-3.688v-8.5c0-2.034-1.597-3.687-3.564-3.687zm.272.256h7.672c1.842 0 3.325 1.534 3.325 3.44v7.937c0 1.906-1.483 3.44-3.325 3.44H4.63c-1.842 0-3.325-1.534-3.325-3.44V4.49c0-1.906 1.483-3.44 3.325-3.44z" opacity=".01" style="font-feature-settings:normal;font-variant-alternates:normal;font-variant-caps:normal;font-variant-east-asian:normal;font-variant-ligatures:normal;font-variant-numeric:normal;font-variant-position:normal;font-variation-settings:normal;inline-size:0;isolation:auto;mix-blend-mode:normal;shape-margin:0;shape-padding:0;text-decoration-color:#000;text-decoration-line:none;text-decoration-style:solid;text-indent:0;text-orientation:mixed;text-transform:none;white-space:normal"/><path d="M4.31 1.058c-1.866 0-3.375 1.539-3.375 3.44v8.467c0 1.9 1.57 3.439 3.435 3.439h8.2c1.866 0 3.427-1.538 3.427-3.44V4.498c0-1.9-1.51-3.439-3.375-3.439h-.097c1.794.087 3.214 1.582 3.214 3.432v7.937c0 1.906-1.506 3.44-3.377 3.44h-7.79c-1.871 0-3.377-1.534-3.377-3.44V4.49c0-1.85 1.42-3.345 3.214-3.432z" opacity=".03" style="font-feature-settings:normal;font-variant-alternates:normal;font-variant-caps:normal;font-variant-east-asian:normal;font-variant-ligatures:normal;font-variant-numeric:normal;font-variant-position:normal;font-variation-settings:normal;inline-size:0;isolation:auto;mix-blend-mode:normal;shape-margin:0;shape-padding:0;text-decoration-color:#000;text-decoration-line:none;text-decoration-style:solid;text-indent:0;text-orientation:mixed;text-transform:none;white-space:normal"/><path transform="scale(.26458)" d="M4 46.969V49c0 6.648 5.896 12 12.544 12h30.961C54.153 61 60 55.648 60 49v-1.992a12.972 12.972 0 0 1-13 12.963H17.002A12.973 12.973 0 0 1 4 46.969z" opacity=".03" style="font-feature-settings:normal;font-variant-alternates:normal;font-variant-caps:normal;font-variant-east-asian:normal;font-variant-ligatures:normal;font-variant-numeric:normal;font-variant-position:normal;font-variation-settings:normal;inline-size:0;isolation:auto;mix-blend-mode:normal;shape-margin:0;shape-padding:0;text-decoration-color:#000;text-decoration-line:none;text-decoration-style:solid;text-indent:0;text-orientation:mixed;text-transform:none;white-space:normal"/><path d="M1.058 11.906v.592c0 1.939 1.573 3.5 3.332 3.5h8.16c1.76 0 3.325-1.561 3.325-3.5v-.58c-.006 2.095-1.537 3.78-3.44 3.78H4.498c-1.905 0-3.44-1.692-3.44-3.792z" opacity=".05" style="font-feature-settings:normal;font-variant-alternates:normal;font-variant-caps:normal;font-variant-east-asian:normal;font-variant-ligatures:normal;font-variant-numeric:normal;font-variant-position:normal;font-variation-settings:normal;inline-size:0;isolation:auto;mix-blend-mode:normal;shape-margin:0;shape-padding:0;text-decoration-color:#000;text-decoration-line:none;text-decoration-style:solid;text-indent:0;text-orientation:mixed;text-transform:none;white-space:normal"/></g><path d="M7.408 14.552A1.848 1.848 0 0 1 5.556 12.7v-1.852c0-.293.236-.53.53-.53h9.789c.293 0 .529.237.529.53V12.7a1.848 1.848 0 0 1-1.852 1.852z" fill="url(#c)"/><rect x="5.556" y="7.673" width="10.848" height="4.233" rx=".529" ry=".529" fill="url(#d)"/><rect x="5.556" y="5.027" width="10.848" height="4.233" rx=".529" ry=".529" fill="url(#a)"/><path d="M7.408 2.381a1.848 1.848 0 0 0-1.852 1.852v1.852c0 .293.236.53.53.53h9.789a.529.529 0 0 0 .529-.53V4.233a1.848 1.848 0 0 0-1.852-1.852z" fill="#dcdcdc"/><rect x="1.058" y="1.05" width="14.817" height="14.817" rx="3.44" ry="3.44" fill="url(#e)"/><path d="M4.498 1.05a3.432 3.432 0 0 0-3.44 3.44v.273a3.432 3.432 0 0 1 3.44-3.44h7.937a3.432 3.432 0 0 1 3.44 3.44V4.49a3.432 3.432 0 0 0-3.44-3.44H4.498z" fill="#fff" opacity=".35"/><path d="M4.498 15.875a3.432 3.432 0 0 1-3.44-3.44v-.273a3.432 3.432 0 0 0 3.44 3.44h7.937a3.432 3.432 0 0 0 3.44-3.44v.273a3.432 3.432 0 0 1-3.44 3.44z" opacity=".25"/><path d="M10.09 12.685a.967.967 0 0 1-.565-.313c-.32-.346-.43-.877-.307-1.485.044-.216.103-.38.211-.589.113-.217.224-.363.412-.541.228-.216.49-.361.797-.444.17-.046.645-.047.808-.003.454.125.778.397.7.587-.03.072-.082.105-.16.105-.053 0-.089-.019-.193-.102a1.078 1.078 0 0 0-.406-.228c-.515-.157-1.1.054-1.456.526-.38.502-.488 1.215-.258 1.7.063.133.21.295.323.356.388.212.902-.025 1.167-.536a1.63 1.63 0 0 0 .19-.565c.07-.35.184-.805.22-.876.037-.075.083-.104.165-.104a.16.16 0 0 1 .162.113c.022.067.017.092-.111.63-.248 1.036-.16 1.41.325 1.383a.535.535 0 0 0 .255-.063c.128-.064.207-.07.26-.02.07.065.072.162.006.246-.047.06-.213.145-.35.18-.154.04-.423.029-.56-.024a.65.65 0 0 1-.398-.43l-.03-.098-.056.076c-.213.29-.469.454-.796.51a.818.818 0 0 1-.355.008zm-5.84-.292v-.242l.108-.012a1.85 1.85 0 0 1 .182-.011c.074 0 .075-.001.109-.092l.473-1.224.52-1.347.081-.213.728.01.284.731.553 1.43c.165.428.278.698.293.7.014.002.1.009.194.015l.17.012v.485H6.272v-.483l.134-.012a2.71 2.71 0 0 1 .2-.012c.037 0 .067-.003.067-.007 0-.007-.161-.466-.183-.52-.011-.028-.055-.03-.566-.03-.51 0-.555.003-.566.03l-.088.248-.088.249c-.01.027.002.03.1.03.06 0 .163.005.228.012l.117.012v.483H4.251zm2.075-1.249c0-.018-.388-1.08-.399-1.092-.006-.007-.096.228-.201.523l-.198.556c-.006.017.08.022.395.022.221 0 .403-.003.403-.01zM4.67 7.567l1.084-2.945.143-.388.413.01.452 1.228c.539 1.465.782 2.128.782 2.137 0 .003-.098.007-.216.007h-.216l-.09-.257c-.05-.141-.127-.36-.17-.488l-.08-.231-1.343.01-.167.483-.167.484h-.443l.018-.048zm1.96-1.318a58.437 58.437 0 0 0-.522-1.486c-.006-.007-.014-.01-.017-.003-.003.003-.121.34-.263.748l-.267.762c-.006.017.108.022.536.022h.544zm2.5 1.265v-.102l.103-.029c.14-.038.22-.112.29-.264.03-.067.28-.744.557-1.503l.5-1.381h.632l.494 1.372c.272.755.525 1.436.562 1.514.079.167.139.223.279.262l.102.029v.203h-1.603V7.41l.088-.019c.19-.04.254-.107.238-.244a3.214 3.214 0 0 0-.104-.37l-.093-.285-1.115-.01-.092.292c-.051.16-.097.333-.102.383-.009.083-.005.095.042.142.047.048.105.071.236.098.046.01.048.015.048.114v.104H9.13zm1.947-1.28-.231-.688a18.62 18.62 0 0 0-.23-.661 75.26 75.26 0 0 0-.459 1.36c0 .007.21.011.464.011.364 0 .462-.005.456-.021z" fill="#343434"/><circle cx="2.117" cy="6.085" r=".529" fill="url(#f)" opacity=".75"/><path d="M1.086 4.069a1.323 1.323 0 0 0-.824 1.225 1.323 1.323 0 0 0 1.323 1.323 1.323 1.323 0 0 0 .265-.027.132.132 0 0 0 .002 0 .132.132 0 0 0 .132-.132.132.132 0 0 0-.132-.132V6.32a1.06 1.06 0 0 1-.267.035 1.06 1.06 0 0 1-1.061-1.06 1.06 1.06 0 0 1 .54-.925c.004-.102.01-.202.022-.301z" fill="#fff" stroke="#000" stroke-linecap="round" stroke-linejoin="round" stroke-opacity=".35" stroke-width=".106"/><path d="M1.205 3.495a1.323 1.323 0 0 0-.943 1.267 1.323 1.323 0 0 0 1.323 1.323 1.323 1.323 0 0 0 .267-.027v-.002a.132.132 0 0 0 .132-.132.132.132 0 0 0-.132-.133V5.79a1.06 1.06 0 0 1-.014.003.132.132 0 0 0-.032.008 1.06 1.06 0 0 1-.221.023 1.06 1.06 0 0 1-1.061-1.06 1.06 1.06 0 0 1 .603-.957 3.42 3.42 0 0 1 .078-.31z" fill="#fff" stroke="#000" stroke-linecap="round" stroke-linejoin="round" stroke-opacity=".35" stroke-width=".106"/><circle cx="2.117" cy="9.525" r=".529" fill="url(#g)" opacity=".75"/><path d="M1.058 7.52a1.323 1.323 0 0 0-.796 1.214 1.323 1.323 0 0 0 1.323 1.323 1.323 1.323 0 0 0 .267-.028v0a.132.132 0 0 0 .132-.133.132.132 0 0 0-.132-.132V9.76a1.06 1.06 0 0 1-.267.035A1.06 1.06 0 0 1 .524 8.734a1.06 1.06 0 0 1 .534-.922V7.52z" fill="#fff" stroke="#000" stroke-linecap="round" stroke-linejoin="round" stroke-opacity=".35" stroke-width=".106"/><path d="M1.058 6.989a1.323 1.323 0 0 0-.796 1.213 1.323 1.323 0 0 0 1.323 1.323 1.323 1.323 0 0 0 .267-.028v-.001a.132.132 0 0 0 .132-.132.132.132 0 0 0-.132-.133v-.003a1.06 1.06 0 0 1-.02.005 1.06 1.06 0 0 1-.002 0 .132.132 0 0 0-.017.004 1.06 1.06 0 0 1-.004.002 1.06 1.06 0 0 1-.224.024A1.06 1.06 0 0 1 .524 8.202a1.06 1.06 0 0 1 .534-.921v-.292z" fill="#fff" stroke="#000" stroke-linecap="round" stroke-linejoin="round" stroke-opacity=".35" stroke-width=".106"/><circle cx="2.117" cy="12.964" r=".529" fill="url(#h)" opacity=".75"/><path d="M1.058 10.96a1.323 1.323 0 0 0-.796 1.213 1.323 1.323 0 0 0 1.323 1.323 1.323 1.323 0 0 0 .267-.027v-.002a.132.132 0 0 0 .132-.132.132.132 0 0 0-.132-.132V13.2a1.06 1.06 0 0 1-.016.004.132.132 0 0 0-.023.005 1.06 1.06 0 0 1-.004 0 1.06 1.06 0 0 1-.224.025 1.06 1.06 0 0 1-1.061-1.06 1.06 1.06 0 0 1 .534-.922v-.292z" fill="#fff" stroke="#000" stroke-linecap="round" stroke-linejoin="round" stroke-opacity=".35" stroke-width=".106"/><path d="M1.058 10.428a1.323 1.323 0 0 0-.796 1.213 1.323 1.323 0 0 0 1.323 1.323 1.323 1.323 0 0 0 .267-.027v-.002a.132.132 0 0 0 .132-.132.132.132 0 0 0-.132-.132v-.003a1.06 1.06 0 0 1-.016.004.132.132 0 0 0-.026.006.132.132 0 0 0-.001 0 1.06 1.06 0 0 1-.224.024 1.06 1.06 0 0 1-1.061-1.06 1.06 1.06 0 0 1 .534-.922v-.292z" fill="#fff" stroke="#000" stroke-linecap="round" stroke-linejoin="round" stroke-opacity=".35" stroke-width=".106"/><path d="m4.186 1.077-.063.002c-.5.054-.966.217-1.378.46-.076.066-.16.116-.245.16a3.44 3.44 0 0 0-.629.576.806.806 0 0 0 .393.007c.44-.08.573.018.551.41-.016.283-.207.628-.425.765-.547.346-.793.32-.697-.072.044-.182.03-.24-.031-.13s-.19.151-.287.091c-.097-.06-.206.676-.243 1.636-.045 1.173.041 1.813.264 1.955.481.305.518.274.339-.29-.472-1.486-.349-1.977.326-1.302.232.232.405.224.714-.032.444-.369.574-1.201.146-.937-.145.09-.472.04-.728-.11-.374-.219-.296-.254.395-.181.535.056.86-.027.86-.221 0-.462.722-1.366.927-1.16.098.097-.087.535-.41.972-.34.458-.519.978-.424 1.225.113.293.06.371-.162.247-.18-.101-.131.026.11.282.623.663 1.105.254.935-.793-.085-.525.005-1.072.23-1.394.32-.456.318-.573-.017-.851-.214-.178-.569-.254-.79-.17-.459.177-.507-.052-.129-.623.223-.337.336-.301.754.237.523.675 1.093.57 1.093-.203 0-.366-.677-.564-1.379-.556zm8.675.01c-.264.039-.317.177-.23.512.127.486-.21.674-1.02.57-.093-.012-.23.212-.305.498-.075.286-.008.52.148.52s.207.076.114.17c-.094.093-.357.014-.586-.176-.331-.275-.346-.389-.073-.562.19-.12.224-.218.079-.218-.354 0-.977.405-.948.617.065.492-.004.698-.234.698-.14 0-.183-.209-.094-.463.134-.38.099-.403-.194-.131-.297.275-.202.466.556 1.114.503.43.802.786.665.792-.296.013.677.784 1.005.796.125.005.153-.183.063-.418-.111-.29-.048-.382.195-.289.258.1.325-.04.237-.5-.075-.392.002-.637.201-.637.179 0 .257.175.175.389-.082.214-.016.47.145.57.172.106.22.062.117-.105a.33.33 0 0 1 .095-.457c.15-.093.216-.262.145-.376-.07-.115.154-.154.5-.088.42.08.615.002.587-.237-.047-.41.119-.493.951-.48.59.01.589.014-.066.408l-.662.399.662-.145c.654-.143.654-.141.066.162-.327.168-.595.466-.595.662s-.179.357-.397.357-.397.127-.397.282c0 .156-.222.212-.496.125-.352-.112-.537-.004-.635.37-.077.296-.014.503.143.47.154-.03.364.241.467.605.182.645.196.637.626-.342.43-.98 1.064-1.488 1.416-1.136.097.097-.087.245-.408.328-.703.184-.745.491-.12.89.409.262.395.282-.124.173-.414-.087-.633.027-.749.39-.114.361-.313.465-.67.352-.572-.182-.67.136-.19.615.193.194.412.222.56.073.135-.134.428-.173.653-.087.258.099.34.049.226-.137-.163-.263.761-1.384 1.141-1.384.084 0 .151-.827.149-1.838-.002-.666-.057-1.208-.145-1.615a3.42 3.42 0 0 0-.459-.784c-.104.002-.217.087-.333.271-.2.317-.25.322-.254.027-.002-.163.134-.41.32-.607-.051-.052-.106-.1-.16-.148-.388.173-.455.127-.406-.237a.187.187 0 0 0-.01-.082 3.418 3.418 0 0 0-1.447-.525zM9 1.13c-3.12.022-3.17.031-3.17.627 0 .332-.138.69-.306.793-.21.13-.155.298.183.545.453.331.438.356-.224.356-.392 0-.712.12-.712.265 0 .145.297.264.661.264.364 0 .662-.119.662-.264 0-.146.208-.278.463-.295.44-.03.44-.037 0-.152-.31-.081-.463-.381-.463-.911 0-.482.107-.723.276-.62.152.095.468.012.704-.182.363-.3.407-.293.289.043-.219.622.278 1.325.923 1.307l.586-.018-.596-.239c-.343-.138-.595-.466-.595-.776 0-.587.386-.719.686-.233.106.17.074.235-.072.144-.144-.089-.261-.004-.261.188 0 .207.195.297.482.222.265-.069.43-.209.368-.31-.158-.255 1.232-.202 1.64.062.222.143.333.055.336-.265.003-.405.043-.418.26-.082.228.353.26.353.28 0 .017-.307.063-.294.202.057.121.304.3.38.544.228.876-.541-.103-.775-3.146-.754zm-4.277.205c.154 0 .36.127.455.282.285.46-.04.558-.402.121-.209-.251-.229-.403-.053-.403zm8.835.02a.119.119 0 0 1 .083.03c.081.082-.066.23-.327.33-.377.143-.407.113-.147-.148.134-.136.288-.216.39-.213zM3.05 1.598c.072 0 .132.06.132.132 0 .073-.06.133-.132.133s-.133-.06-.133-.133c0-.072.06-.132.133-.132zm10.583.265c.072 0 .132.06.132.132a.133.133 0 0 1-.265 0c0-.072.06-.132.133-.132zm-3.567.063a3.373 3.373 0 0 0-.315.048c-.339.063-.653.123-.698.134-.045.01-.007.138.083.284.22.357.364.334.832-.134.266-.266.32-.35.098-.332zm4.136.266c.038-.018.063.061.072.234.011.237-.158.578-.377.76-.218.18-.396.25-.396.155 0-.096-.239-.047-.53.11-.4.214-.534.2-.55-.058-.01-.187-.14-.012-.286.388-.146.4-.405.724-.574.72-.506-.015-1.293-.719-1.003-.898.145-.09.382.046.526.302.319.57.63.313.63-.519 0-.606 1.17-1.452 1.503-1.087.083.091.002.219-.18.284-.501.179-.395.49.169.49.327 0 .448-.132.352-.384-.09-.233-.034-.314.14-.207.158.098.347.028.42-.155.033-.08.06-.125.084-.135zm-7.592.201c-.155-.001-.252.082-.252.263 0 .146.178.265.396.265s.397.12.397.265.186.264.413.264c.226 0 .333.127.237.283-.096.155-.34.219-.544.14-.204-.078-.37-.026-.37.115 0 .354.622.322.996-.053.235-.235.35-.203.479.133.093.242.32.44.505.44s.484.18.665.397c.208.25.225.397.048.397-.155 0-.36-.128-.458-.285-.097-.158-.451-.218-.787-.133-.365.091-.672.02-.763-.178-.083-.181-.08-.047.007.299.106.422.062.569-.135.447a.692.692 0 0 1-.293-.529c0-.549-1.616-.764-2.1-.28-.366.366-.32.39.45.236.534-.107.856-.066.856.108 0 .154.239.355.53.448.692.22.676.538-.03.59-.308.024-.494-.023-.413-.104.08-.08.008-.294-.16-.475-.335-.357-1.25-.235-1.25.167 0 .138.102.187.226.11.124-.076.451.032.727.24.277.21.696.385.933.39.647.012.582 1.33-.066 1.33-.273 0-.497.186-.497.413 0 .227-.119.339-.264.249-.15-.093-.265.135-.265.53 0 .394.114.621.265.528.145-.09.264-.328.264-.529 0-.509.489-.759.872-.446.216.177.429.142.66-.11.197-.213.225-.37.066-.37a.273.273 0 0 1-.275-.27c0-.158.3-.2.728-.1.712.165.716.159.198-.281-.442-.376-.453-.426-.066-.305.255.08.463.03.463-.11 0-.141-.278-.257-.617-.257-.705 0-.841-.696-.252-1.285.311-.312.343-.253.215.393-.142.716-.133.725.16.165.17-.328.411-.596.535-.596.36 0 .257.792-.107.815-.264.016-.264.048 0 .154.182.074.34.332.352.575.015.32.06.341.164.08.121-.304.179-.304.372 0 .177.28.23.253.232-.118.003-.263.123-.405.269-.315.307.19.36 1.622.066 1.786-.25.14.333-.014.86-.227.218-.088.397-.029.397.132s-.115.293-.256.293-.377.229-.526.508c-.26.485-.237.49.519.113.435-.217.788-.535.783-.706-.011-.432-.653-1.238-.984-1.238-.15 0-.346-.188-.434-.418-.256-.667-.172-.81.195-.327.417.548 1.808.749 1.912.276.04-.186.013-.216-.06-.066-.24.484-.592.286-.485-.272.085-.44.004-.511-.425-.375-.29.093-.702.025-.913-.15-.271-.226-.385-.233-.385-.023 0 .163-.238.297-.529.297-.291 0-.529-.119-.529-.264 0-.146.09-.235.198-.199a.208.208 0 0 0 .23-.072c-.01.002-.02.006-.031.006a.133.133 0 0 1-.132-.132c0-.073.06-.133.132-.133a.13.13 0 0 1 .103.054c.125-.54-.11-.932-.721-1.191-.461-.195-.709-.47-.642-.715.082-.296.05-.312-.126-.063-.179.253-.387.173-.86-.33-.396-.421-.815-.66-1.073-.663zm3.422 2.963c-.01.048-.02.095-.037.145a.204.204 0 0 1-.035.06.13.13 0 0 0 .101-.127.129.129 0 0 0-.029-.078zm-8.57-1.641c.074 0 .133.06.133.132 0 .073-.06.132-.132.132s-.132-.06-.132-.132c0-.073.059-.132.132-.132zm14.023.529c.073 0 .132.06.132.132 0 .073-.06.132-.132.132s-.132-.059-.132-.132c0-.073.059-.132.132-.132zm-1.489.069a1.498 1.498 0 0 0-.21.002c-.3.023-.495.22-.476.481.028.359.125.387.51.147.542-.34.598-.602.176-.63zm-9.895.065c.029.013.056.089.085.225.057.27-.011.606-.152.747-.166.166-.203-.008-.104-.49.07-.347.122-.502.17-.482zm10.855.13a.133.133 0 0 1 0 .265.133.133 0 0 1-.133-.132c0-.073.06-.133.133-.133zM1.86 4.525c.064 0 .127.024.176.073.097.097.018.176-.176.176-.194 0-.274-.08-.177-.176a.248.248 0 0 1 .177-.073zm.397.514c.072 0 .132.06.132.132 0 .073-.06.132-.132.132a.133.133 0 0 1-.133-.132c0-.073.06-.132.133-.132zm11.052.836c.029 0 .08.02.15.064.168.104.306.242.306.306 0 .22-.234.116-.422-.189-.073-.118-.083-.18-.034-.18zm1.8.088c.143-.016.243.037.243.142 0 .141-.178.257-.397.257s-.396-.047-.396-.104c0-.058.178-.173.396-.257a.622.622 0 0 1 .154-.038zm-10.39.134c-.24 0-.474.12-.522.265-.06.176-.394.178-.997.005-1.172-.336-1.315-.162-.542.66.458.488.545.743.329.96-.395.394-1.74.056-1.496-.376.126-.225.07-.22-.186.018-.313.291-.308.379.028.591.26.165.282.251.066.254-.202.003-.298.29-.248.744.108.981.38 1.381.923 1.356.275-.013.32-.072.116-.154-.439-.178-.405-.895.072-1.526.437-.577.665-.468.726.348.023.307.15.56.28.56.13 0 .163-.21.074-.464-.153-.44-.144-.44.2 0 .198.255.526.472.728.484.248.014.265.062.052.15-.174.07-.254.29-.178.487.076.198-.105.603-.402.9-.549.548-.527.612.31.91.35.125.454.05.398-.284-.043-.253.098-.463.32-.475.744-.044.79.172.163.753-.623.577-.692.705-.692 1.274 0 .194-.156.17-.448-.066-.304-.247-.384-.257-.249-.032.318.528-.078.94-.538.559-.315-.262-.439-.252-.623.046-.144.233-.112.448.086.574.219.14.224.203.019.206-.164.002-.462-.198-.662-.444-.31-.382-.308-.414.013-.221.286.173.332.115.194-.245-.152-.395-.068-.45.507-.34.572.109.665.047.557-.366-.14-.538.333-.673.782-.223.188.188.274.147.274-.132 0-.224-.122-.406-.27-.406-.266 0-2.552-1.047-2.552-1.168 0-.035.357-.01.793.053.602.089.794.013.794-.31 0-.235.132-.427.293-.427.163 0 .219.192.126.434-.14.367-.103.381.245.092.433-.36.428-.826-.01-.837-.141-.003-.463-.116-.714-.25-.355-.19-.423-.156-.304.156.204.531-.588.822-1.095.402-.328-.272-.393-.23-.393.252 0 .648.46 1.639.892 1.92.156.1.196.27.09.377-.107.106-.351-.022-.544-.285-.336-.46-.35-.46-.372.019-.005.102 0 .209.011.317.156.7.525 1.317 1.036 1.783.595.176 1.072-.086.835-.471-.102-.165-.056-.211.11-.11a.336.336 0 0 0 .46-.103c.096-.155.42-.247.721-.203.405.058.706-.208 1.165-1.029.68-1.216.586-2.057-.207-1.85-.27.072-.56.022-.64-.11-.082-.132-.023-.24.131-.24s.28-.126.28-.28c0-.154-.102-.217-.227-.14-.346.214-.122-1.191.244-1.531.246-.229.285-.15.166.34-.187.77.214 1.611.768 1.611.238 0 .326.126.215.306-.113.182-.073.234.098.128.158-.098.355-.068.438.066.083.134.396.18.695.102.4-.104.584.007.69.415l.147.557.477-.588c.262-.324.573-.493.69-.376.118.117.04.324-.175.459-.34.215-.34.247.008.254.328.007.334.048.032.239-.2.127-.283.363-.183.525.112.18-.034.295-.378.295-.33 0-.49.116-.386.282.096.156.332.222.525.148.409-.157 1.034.492.816.845-.082.133-.448.183-.814.114s-.6-.233-.52-.362c.362-.585-.237-.738-.937-.239-.413.294-.88.534-1.04.534-.436 0-.348-.45.123-.631.228-.087.333-.29.233-.452-.12-.195-.367-.108-.734.26-.433.433-.483.622-.232.873.176.176.32.48.32.675 0 .29-.068.292-.37.013-.202-.187-.314-.43-.248-.54.066-.108-.07-.198-.3-.198-.232 0-.502.209-.6.463-.15.392-.206.362-.362-.198-.175-.628-.185-.631-.21-.066-.015.327-.153.595-.307.595s-.201-.128-.105-.284c.097-.156-.07-.13-.37.057-.215.134-.328.244-.348.34.307.164.644.281.999.346 1.342.073 3.65-.113 3.743-.393.06-.182-.09-.33-.332-.33s-.393-.142-.336-.315c.155-.463.733-.583.733-.152 0 .265.294.356 1.015.317.7-.038 1.014.055 1.014.3 0 .196-.13.275-.287.176-.424-.264-1.477-.28-1.477-.021 0 .123.268.237.595.253.327.017 1 .076 1.495.133.494.056 1.06-.031 1.256-.195.265-.22.358-.22.358 0 0 .235.655.314 1.315.242a3.414 3.414 0 0 0 1.213-.43c-.07.007-.18.027-.345.058-.327.062-.657.013-.732-.109s-.413-.17-.75-.11c-.408.074-.613-.016-.613-.268 0-.287.12-.316.485-.12.528.282.567.233.324-.4-.088-.23-.399-.418-.691-.418-.399 0-.498.13-.396.52.074.285-.03.657-.234.825-.307.255-.342.17-.208-.502.146-.726.105-.794-.396-.663-.323.084-.56.021-.56-.15 0-.271.43-.396 1.257-.366.182.007.33-.262.33-.598 0-.898.28-1.467.624-1.274.216.12.214.073-.007-.166-.17-.185-.254-.483-.185-.662.069-.179-.179-.524-.55-.767-.587-.385-.675-.39-.675-.04 0 .222.108.404.24.404s.19.268.13.595c-.061.327-.04.446.047.263.086-.183.262-.268.39-.19.384.238-.326 1.448-.85 1.448-.508 0-.658-.392-.246-.646.132-.082.178-.383.103-.67-.104-.398-.244-.466-.585-.284-.254.137-.608.142-.818.012-.432-.267-.87-.075-.648.283.083.136.026.247-.128.247-.263 0-.426-.864-.275-1.455.146-.576.23-1.558.095-1.11-.12.397-.217.422-.585.144-.372-.28-.39-.274-.11.04.364.408.444 1.058.13 1.058-.11 0-.363-.37-.563-.82-.249-.563-.427-.717-.567-.49-.2.323-.072.559.867 1.594.255.28.374.508.265.506-.716-.013-1.367-.397-1.623-.96-.164-.36-.4-.59-.523-.514-.124.076-.17-.156-.1-.515.072-.38 0-.653-.171-.653-.162 0-.373-.03-.468-.066-.095-.037-.206.153-.245.42-.11.755-.287.794-.883.197-.693-.692-.7-.916-.022-.74.29.077.595.031.676-.1.082-.132.38-.24.662-.24.283 0 .514-.126.514-.28 0-.154-.149-.195-.33-.09-.193.11-.24.089-.111-.05.121-.133.3-.252.397-.265.097-.013.443-.134.768-.27.583-.241.584-.25.066-.573-.313-.196-.525-.22-.525-.062a.272.272 0 0 1-.276.267c-.152 0-.535.242-.852.537-.681.635-1.341.583-1.476-.116-.072-.375.014-.456.349-.328.245.094.7-.007 1.012-.225.448-.314.475-.397.133-.397zm.713 0a.133.133 0 0 0-.133.132.133.133 0 0 0 .265 0 .133.133 0 0 0-.132-.132zm2.116 0a.133.133 0 0 1 0 .265.133.133 0 0 1-.132-.133c0-.072.06-.132.132-.132zm4.233.265c.073 0 .132.06.132.132 0 .073-.06.132-.132.132s-.132-.06-.132-.132c0-.073.06-.132.132-.132zm3.97.72c-.018-.005-.038.019-.058.073-.216.58-1.053 1.323-1.491 1.323-.5 0-.737.652-.37 1.02.21.21.208.467-.005.935-.235.514-.217.676.084.791.212.082.35.004.314-.176-.034-.177.086-.291.268-.255s.33-.053.33-.198-.125-.265-.28-.265-.207-.117-.12-.26c.234-.377 1.172.276 1.008.703-.074.191-.226.29-.34.22-.114-.07-.354.05-.534.266-.18.217-.216.394-.08.394.135 0 .477.188.759.417.282.229.376.347.208.264-.2-.1-.258.032-.168.377.083.317.008.53-.185.53-.178 0-.263-.16-.188-.355s.017-.523-.128-.728c-.207-.29-.231-.265-.108.113.104.32.045.445-.174.369-.182-.064-.296-.312-.253-.551.045-.253-.097-.436-.34-.436-.33 0-.361.106-.144.512.368.686.356.728-.255.888-.646.169-.977-.274-.52-.695.255-.236.29-.23.146.023-.103.182-.051.33.113.33.379 0 .231-.848-.17-.981-.165-.055-.377.208-.472.584-.094.376-.287.612-.428.525-.563-.348-.21.6.522 1.401.7.767 1.592 1.213 1.22.61-.083-.133 0-.312.182-.398.183-.085.011-.113-.381-.062-.776.103-1.148-.373-.668-.853.438-.437.935-.363 1.575.233.403.375.458.53.188.533-.325.004-.324.04.009.25a.55.55 0 0 0 .256.092 3.43 3.43 0 0 0 .37-.541.726.726 0 0 0-.142-.265c-.217-.261-.195-.31.09-.2.31.118.378-.279.382-2.19.004-2.247-.019-2.337-.605-2.385-.335-.028-.609.064-.609.203 0 .14-.178.185-.395.101-.575-.22-.213-.625.559-.625.459 0 .6-.102.462-.33-.135-.226-.055-.215.25.032.406.33.445.268.426-.662-.008-.422-.053-.687-.11-.701zM2.39 7.155c-.146 0-.265.179-.265.397 0 .218.12.397.265.397s.264-.179.264-.397c0-.218-.119-.397-.264-.397zm1.455 0a.133.133 0 0 0-.132.133c0 .072.06.132.132.132s.132-.06.132-.132a.133.133 0 0 0-.132-.133zm5.644.265c-.264 0-.29.37-.044.617.245.246.265.23.265-.22 0-.219-.1-.397-.221-.397zm.681.047c-.063-.01-.108.072-.108.217 0 .194.08.274.177.177a.25.25 0 0 0 0-.353.13.13 0 0 0-.069-.04zm2.511.614-.257.634c-.141.348-.224.646-.185.661.04.016.31.17.601.343.291.174.619.323.728.331.352.028.21-.526-.172-.673-.204-.078-.448-.401-.543-.718zm-10.673.397c.064 0 .117.12.117.265 0 .145-.126.264-.28.264s-.207-.119-.117-.264c.09-.146.216-.265.28-.265zm2.895 0a.133.133 0 0 1 0 .265.133.133 0 0 1-.133-.133c0-.072.06-.132.133-.132zm4.071 0c-.129 0-.235.35-.235.778 0 .428-.136.862-.301.964-.186.115-.008.31.463.51.633.267.843.254 1.226-.079.35-.304.39-.487.166-.758-.163-.196-.192-.36-.065-.365.298-.012-.942-1.05-1.254-1.05zm1.484.265a.133.133 0 0 0-.132.132.133.133 0 0 0 .265 0 .133.133 0 0 0-.133-.132zm-.933.323c.199-.01.303.243.514 1.125.034.142-.065.301-.222.353-.165.055-.216-.085-.12-.335.108-.281.04-.403-.198-.353-.433.092-.495-.628-.066-.771a.347.347 0 0 1 .092-.02zm5.548.206c.137 0 .323.119.413.265.09.145-.023.264-.25.264s-.412-.119-.412-.264c0-.146.112-.265.25-.265zm-3.154.407c-.16.003-.29.038-.365.112-.19.19-.136.285.175.308.247.018.568.063.714.099s.391.081.545.1c.154.017.205.153.114.301-.092.148-.265.208-.385.134-.12-.074-.287.043-.37.26-.101.264.013.396.34.396.524 0 .923-.669.657-1.099-.213-.345-.946-.62-1.425-.611zm-5.4.213c-.094-.016-.16.043-.16.158 0 .154.118.28.264.28.145 0 .264-.052.264-.117s-.119-.19-.264-.28a.29.29 0 0 0-.103-.041zm-.847.221a.13.13 0 0 1 .069.041.25.25 0 0 1 0 .352c-.097.097-.177.018-.177-.176 0-.145.045-.226.108-.217zm-2.092.217a.133.133 0 1 1-.132.132c0-.072.06-.132.132-.132zm10.847.53a.133.133 0 0 0-.132.132c0 .072.06.132.132.132s.132-.06.132-.132-.06-.133-.132-.133zm-5.556.264c.073 0 .133.06.133.132s-.06.133-.133.133a.133.133 0 0 1 0-.265zm6.35.265c.073 0 .132.06.132.132a.133.133 0 0 1-.265 0c0-.072.06-.132.133-.132zm-5.233.125a.177.177 0 0 1 .106.027c.132.081.173.26.089.395-.249.402-.647.28-.482-.149.062-.163.178-.267.287-.273zm-5.35.14c-.073 0-.132.059-.132.131s.06.133.132.133a.133.133 0 0 0 0-.265zm.939.397c.126-.007.151.085.078.277-.081.21-.254.383-.384.383-.38 0-.271-.459.147-.62a.558.558 0 0 1 .159-.04zm2.095.023a.432.432 0 0 0-.168.03c-.295.112-.315.203-.077.35.177.11.23.345.118.526-.153.248-.262.222-.444-.103-.132-.237-.372-.43-.533-.43-.16 0-.08.234.179.52.363.402.585.46.967.256.553-.297.557-.307.341-.87a.425.425 0 0 0-.383-.279zm2.228.462c.095-.018.161.035.161.144 0 .145-.119.338-.264.428s-.264.045-.264-.101.118-.338.264-.428a.313.313 0 0 1 .103-.043zm-1.293.175a.133.133 0 0 0-.133.133.133.133 0 0 0 .265 0 .133.133 0 0 0-.132-.133zm2 .265c.154 0 .206.12.116.265s-.216.264-.28.264-.117-.119-.117-.264.127-.265.28-.265zm1.984 0c.064 0 .116.12.116.265s-.126.264-.28.264-.207-.119-.117-.264.217-.265.281-.265zm-6.895.265a.133.133 0 0 0-.132.132.133.133 0 0 0 .265 0 .133.133 0 0 0-.133-.132zm-.818.047a.128.128 0 0 1 .069.04.25.25 0 0 1 0 .353c-.098.097-.177.018-.177-.176 0-.145.045-.226.108-.217zm-3.415.217a.133.133 0 0 1 0 .265.133.133 0 0 1 0-.265zm12.054 0c-.137 0-.323.12-.413.265-.09.145.022.264.25.264s.412-.119.412-.264c0-.146-.112-.265-.249-.265zm-4.35.265c-.073 0-.206.119-.295.264-.09.146-.105.265-.032.265s.206-.12.296-.265c.09-.145.104-.264.031-.264zm.878.838c.02.003.042.008.066.016a.75.75 0 0 1 .42.42c.158.475-.389.375-.573-.106-.087-.225-.052-.346.087-.33zm4.514.236a.248.248 0 0 0-.176.072c-.097.097-.018.177.176.177.03 0 .05-.005.073-.009.046-.038.089-.08.133-.12-.007-.015-.012-.031-.029-.048a.249.249 0 0 0-.177-.072zm-9.656.249c.073 0 .132.06.132.132a.133.133 0 0 1-.265 0c0-.072.06-.132.133-.132z" opacity=".03"/></svg>