<svg width="64" height="64" version="1.1" viewBox="0 0 64 64" xmlns="http://www.w3.org/2000/svg">
 <defs>
  <linearGradient id="linearGradient862" x1="31.386" x2="31.622" y1="16.646" y2="51.602" gradientUnits="userSpaceOnUse">
   <stop stop-color="#33e3f6" offset="0"/>
   <stop stop-color="#36efba" offset="1"/>
  </linearGradient>
  <filter id="filter886" x="-.056252" y="-.064283" width="1.1125" height="1.1286" color-interpolation-filters="sRGB">
   <feGaussianBlur stdDeviation="0.91713894"/>
  </filter>
  <linearGradient id="linearGradient908" x1="-56.186" x2="-56.186" y1="71.524" y2="23.903" gradientTransform="translate(89.554 -15.761)" gradientUnits="userSpaceOnUse">
   <stop stop-color="#194c62" offset="0"/>
   <stop stop-color="#423f76" offset="1"/>
  </linearGradient>
  <linearGradient id="linearGradient914" x1="31.242" x2="31.242" y1="58.444" y2="5.4282" gradientTransform="matrix(.85714 0 0 .85714 4.5714 4.5714)" gradientUnits="userSpaceOnUse">
   <stop stop-color="#1086b9" offset="0"/>
   <stop stop-color="#5d59a6" offset="1"/>
  </linearGradient>
  <filter id="filter1018" x="-.08112" y="-.08112" width="1.1622" height="1.1622" color-interpolation-filters="sRGB">
   <feGaussianBlur stdDeviation="1.6224"/>
  </filter>
 </defs>
 <g transform="scale(3.7796)" shape-rendering="auto">
  <path d="m4.3693 0.52916c-2.1142 0-3.8402 1.7835-3.8402 3.9682v8.4675c0 2.1846 1.726 3.9682 3.8402 3.9682h8.1944c2.1142 0 3.8402-1.7835 3.8402-3.9682v-8.4675c0-2.1846-1.726-3.9682-3.8402-3.9682zm0.25704 0.52089h7.6808c1.8443 0 3.3291 1.5342 3.3291 3.44v7.9368c0 1.9058-1.4847 3.44-3.3291 3.44h-7.6808c-1.8443 0-3.3291-1.5342-3.3291-3.44v-7.9368c0-1.9058 1.4847-3.44 3.3291-3.44z" color="#000000" color-rendering="auto" dominant-baseline="auto" image-rendering="auto" opacity=".01" solid-color="#000000" stop-color="#000000" style="font-feature-settings:normal;font-variant-alternates:normal;font-variant-caps:normal;font-variant-east-asian:normal;font-variant-ligatures:normal;font-variant-numeric:normal;font-variant-position:normal;font-variation-settings:normal;inline-size:0;isolation:auto;mix-blend-mode:normal;shape-margin:0;shape-padding:0;text-decoration-color:#000000;text-decoration-line:none;text-decoration-style:solid;text-indent:0;text-orientation:mixed;text-transform:none;white-space:normal"/>
  <path d="m4.3587 0.79373c-1.9668 0-3.5639 1.6528-3.5639 3.6876v8.4996c0 2.0348 1.5971 3.6876 3.5639 3.6876h8.2162c1.9668 0 3.5644-1.6528 3.5644-3.6876v-8.4996c0-2.0348-1.5976-3.6876-3.5644-3.6876zm0.27222 0.25631h7.6718c1.8422 0 3.3251 1.5342 3.3251 3.44v7.9368c0 1.9058-1.483 3.44-3.3251 3.44h-7.6718c-1.8422 0-3.3251-1.5342-3.3251-3.44v-7.9368c0-1.9058 1.483-3.44 3.3251-3.44z" color="#000000" color-rendering="auto" dominant-baseline="auto" image-rendering="auto" opacity=".01" solid-color="#000000" stop-color="#000000" style="font-feature-settings:normal;font-variant-alternates:normal;font-variant-caps:normal;font-variant-east-asian:normal;font-variant-ligatures:normal;font-variant-numeric:normal;font-variant-position:normal;font-variation-settings:normal;inline-size:0;isolation:auto;mix-blend-mode:normal;shape-margin:0;shape-padding:0;text-decoration-color:#000000;text-decoration-line:none;text-decoration-style:solid;text-indent:0;text-orientation:mixed;text-transform:none;white-space:normal"/>
  <path d="m4.3097 1.0583c-1.8657 0-3.3751 1.5383-3.3751 3.439v8.4675c0 1.9007 1.57 3.439 3.4357 3.439h8.1996c1.8657 0 3.4274-1.5383 3.4274-3.439v-8.4675c0-1.9007-1.51-3.439-3.3756-3.439h-0.09688c1.794 0.086515 3.2138 1.5819 3.2138 3.4318v7.9368c0 1.9058-1.5059 3.44-3.3766 3.44h-7.7905c-1.8707 0-3.3766-1.5342-3.3766-3.44v-7.9368c0-1.8498 1.4199-3.3451 3.2138-3.4318z" color="#000000" color-rendering="auto" dominant-baseline="auto" image-rendering="auto" opacity=".03" solid-color="#000000" stop-color="#000000" style="font-feature-settings:normal;font-variant-alternates:normal;font-variant-caps:normal;font-variant-east-asian:normal;font-variant-ligatures:normal;font-variant-numeric:normal;font-variant-position:normal;font-variation-settings:normal;inline-size:0;isolation:auto;mix-blend-mode:normal;shape-margin:0;shape-padding:0;text-decoration-color:#000000;text-decoration-line:none;text-decoration-style:solid;text-indent:0;text-orientation:mixed;text-transform:none;white-space:normal"/>
  <path transform="scale(.26458)" d="m4 46.969v2.0312c0 6.6479 5.8957 12 12.544 12h30.961c6.6479 0 12.495-5.3521 12.495-12v-1.9922c-0.021173 7.1849-5.81 12.963-13 12.963h-29.998c-7.2032 0-13.002-5.7987-13.002-13.002z" color="#000000" color-rendering="auto" dominant-baseline="auto" image-rendering="auto" opacity=".03" solid-color="#000000" stop-color="#000000" style="font-feature-settings:normal;font-variant-alternates:normal;font-variant-caps:normal;font-variant-east-asian:normal;font-variant-ligatures:normal;font-variant-numeric:normal;font-variant-position:normal;font-variation-settings:normal;inline-size:0;isolation:auto;mix-blend-mode:normal;shape-margin:0;shape-padding:0;text-decoration-color:#000000;text-decoration-line:none;text-decoration-style:solid;text-indent:0;text-orientation:mixed;text-transform:none;white-space:normal"/>
  <path d="m1.0583 11.906v0.59234c0 1.9386 1.5729 3.4993 3.3318 3.4993h8.1603c1.7589 0 3.3243-1.5608 3.3243-3.4993v-0.58095c-0.0056 2.0952-1.5372 3.7801-3.4395 3.7801h-7.9368c-1.9058 0-3.44-1.691-3.44-3.7915z" color="#000000" color-rendering="auto" dominant-baseline="auto" image-rendering="auto" opacity=".05" solid-color="#000000" stop-color="#000000" style="font-feature-settings:normal;font-variant-alternates:normal;font-variant-caps:normal;font-variant-east-asian:normal;font-variant-ligatures:normal;font-variant-numeric:normal;font-variant-position:normal;font-variation-settings:normal;inline-size:0;isolation:auto;mix-blend-mode:normal;shape-margin:0;shape-padding:0;text-decoration-color:#000000;text-decoration-line:none;text-decoration-style:solid;text-indent:0;text-orientation:mixed;text-transform:none;white-space:normal"/>
 </g>
 <rect x="4" y="4" width="56" height="56" rx="13.002" ry="13.002" fill="url(#linearGradient908)" stroke-width="3.7795"/>
 <rect x="8" y="8.7546" width="48" height="48" rx="11.144" ry="11.144" filter="url(#filter1018)" opacity=".25" stroke-width="3.2395"/>
 <rect x="8" y="8" width="48" height="48" rx="11.144" ry="11.144" fill="url(#linearGradient914)" stroke-width="3.2395"/>
 <path d="m23.813 17.224a0.65224 0.65224 0 0 0-0.29043 0.09171c-6.6436 3.8357-9.8854 11.663-7.8999 19.073 1.5329 5.7207 5.942 10.227 11.627 11.887a0.65224 0.65224 0 0 0 0.83559-0.62416v-6.0046a10.435 10.435 0 0 0 1.3043 0.44327v7.8974c-2.9947-0.43626-5.8611-1.5279-8.2949-3.3398-6.4736-4.8196-9.0145-13.308-6.2542-20.893a0.65224 0.65224 0 0 0-0.65217-0.88401 0.65224 0.65224 0 0 0-0.5732 0.43818c-2.9554 8.1203-0.22872 17.225 6.7027 22.385 2.822 2.1009 6.1586 3.401 9.6578 3.7653a0.65224 0.65224 0 0 0 0.71841-0.64707v-8.4706a10.435 10.435 0 0 0 1.307 0.09171 10.435 10.435 0 0 0 1.307-0.09427v8.4732a0.65224 0.65224 0 0 0 0.72096 0.64707c3.4985-0.36456 6.8339-1.6647 9.6552-3.7653 6.9313-5.1603 9.6556-14.266 6.7-22.385a0.65224 0.65224 0 0 0-0.65727-0.43818 0.65224 0.65224 0 0 0-0.56811 0.88401c2.7603 7.5841 0.2193 16.073-6.2542 20.893-2.4339 1.812-5.2973 2.9062-8.2923 3.3424v-7.9076a10.435 10.435 0 0 0 1.307-0.42798v5.997a0.65224 0.65224 0 0 0 0.83305 0.62416c5.6849-1.6598 10.094-6.1664 11.627-11.887 1.9855-7.41-1.2564-15.237-7.8999-19.073a0.65224 0.65224 0 0 0-0.37449-0.09171 0.65224 0.65224 0 0 0-0.27768 1.2203c6.1377 3.5437 9.128 10.76 7.2937 17.606-1.3353 4.9833-5.0757 8.8863-9.8973 10.608v-5.597a3.2609 3.2609 0 0 0 2.6036-3.1921 3.2609 3.2609 0 0 0-2.0177-3.0112c1.0923-5.1785 3.322-3.3844 3.322-5.355v-0.71586c0-1.8518-5.6019-11.135-9.1304-11.135s-9.1304 9.2836-9.1304 11.135v0.71586c0 1.9703 2.2295 0.1765 3.322 5.3524a3.2609 3.2609 0 0 0-2.0177 3.0137 3.2609 3.2609 0 0 0 2.6061 3.1895v5.602c-4.8232-1.7211-8.5642-5.626-9.8997-10.611-1.8343-6.8459 1.1559-14.062 7.2937-17.606a0.65224 0.65224 0 0 0-0.36175-1.2203zm3.6226 18.689a1.9565 1.9565 0 0 1 1.9565 1.9565 1.9565 1.9565 0 0 1-1.9565 1.9565 1.9565 1.9565 0 0 1-1.9565-1.9565 1.9565 1.9565 0 0 1 1.9565-1.9565zm9.1304 0a1.9565 1.9565 0 0 1 1.9565 1.9565 1.9565 1.9565 0 0 1-1.9565 1.9565 1.9565 1.9565 0 0 1-1.9565-1.9565 1.9565 1.9565 0 0 1 1.9565-1.9565z" filter="url(#filter886)" opacity=".25" stroke-width="1.1111"/>
 <path d="m23.813 17.224a0.65224 0.65224 0 0 0-0.29043 0.09171c-6.6436 3.8357-9.8854 11.663-7.8999 19.073 1.5329 5.7207 5.942 10.227 11.627 11.887a0.65224 0.65224 0 0 0 0.83559-0.62416v-6.0046a10.435 10.435 0 0 0 1.3043 0.44327v7.8974c-2.9947-0.43626-5.8611-1.5279-8.2949-3.3398-6.4736-4.8196-9.0145-13.308-6.2542-20.893a0.65224 0.65224 0 0 0-0.65217-0.88401 0.65224 0.65224 0 0 0-0.5732 0.43818c-2.9554 8.1203-0.22872 17.225 6.7027 22.385 2.822 2.1009 6.1586 3.401 9.6578 3.7653a0.65224 0.65224 0 0 0 0.71841-0.64707v-8.4706a10.435 10.435 0 0 0 1.307 0.09171 10.435 10.435 0 0 0 1.307-0.09427v8.4732a0.65224 0.65224 0 0 0 0.72096 0.64707c3.4985-0.36456 6.8339-1.6647 9.6552-3.7653 6.9313-5.1603 9.6556-14.266 6.7-22.385a0.65224 0.65224 0 0 0-0.65727-0.43818 0.65224 0.65224 0 0 0-0.56811 0.88401c2.7603 7.5841 0.2193 16.073-6.2542 20.893-2.4339 1.812-5.2973 2.9062-8.2923 3.3424v-7.9076a10.435 10.435 0 0 0 1.307-0.42798v5.997a0.65224 0.65224 0 0 0 0.83305 0.62416c5.6849-1.6598 10.094-6.1664 11.627-11.887 1.9855-7.41-1.2564-15.237-7.8999-19.073a0.65224 0.65224 0 0 0-0.37449-0.09171 0.65224 0.65224 0 0 0-0.27768 1.2203c6.1377 3.5437 9.128 10.76 7.2937 17.606-1.3353 4.9833-5.0757 8.8863-9.8973 10.608v-5.597a3.2609 3.2609 0 0 0 2.6036-3.1921 3.2609 3.2609 0 0 0-2.0177-3.0112c1.0923-5.1785 3.322-3.3844 3.322-5.355v-0.71586c0-1.8518-5.6019-11.135-9.1304-11.135s-9.1304 9.2836-9.1304 11.135v0.71586c0 1.9703 2.2295 0.1765 3.322 5.3524a3.2609 3.2609 0 0 0-2.0177 3.0137 3.2609 3.2609 0 0 0 2.6061 3.1895v5.602c-4.8232-1.7211-8.5642-5.626-9.8997-10.611-1.8343-6.8459 1.1559-14.062 7.2937-17.606a0.65224 0.65224 0 0 0-0.36175-1.2203zm3.6226 18.689a1.9565 1.9565 0 0 1 1.9565 1.9565 1.9565 1.9565 0 0 1-1.9565 1.9565 1.9565 1.9565 0 0 1-1.9565-1.9565 1.9565 1.9565 0 0 1 1.9565-1.9565zm9.1304 0a1.9565 1.9565 0 0 1 1.9565 1.9565 1.9565 1.9565 0 0 1-1.9565 1.9565 1.9565 1.9565 0 0 1-1.9565-1.9565 1.9565 1.9565 0 0 1 1.9565-1.9565z" fill="url(#linearGradient862)" stroke-width="1.1111"/>
</svg>
