<svg width="64" height="64" enable-background="new 0 0 1024 1024" image-rendering="optimizeSpeed" xmlns="http://www.w3.org/2000/svg"><defs><radialGradient id="d" cx="18.685" cy="25.668" r="5.05" gradientUnits="userSpaceOnUse"><stop stop-color="#a40000" offset="0"/><stop stop-color="#a40000" stop-opacity="0" offset="1"/></radialGradient><radialGradient id="e" cx="18.685" cy="25.668" r="5.05" gradientUnits="userSpaceOnUse"><stop stop-color="#c00" offset="0"/><stop stop-color="#c00" stop-opacity="0" offset="1"/></radialGradient><radialGradient id="f" cx="18.685" cy="25.668" r="5.05" gradientUnits="userSpaceOnUse"><stop stop-color="#ef2929" offset="0"/><stop stop-color="#ef2929" stop-opacity="0" offset="1"/></radialGradient><radialGradient id="g" cx="13.199" cy="12.464" r="21.009" gradientTransform="matrix(1.0649 .61482 -.62301 1.0791 14.403 -1.554)" gradientUnits="userSpaceOnUse"><stop stop-color="#d3d7cf" offset="0"/><stop stop-color="#888a85" offset="1"/></radialGradient><linearGradient id="c" x1="5.693" x2="40.503" y1="5.458" y2="40.081" gradientTransform="translate(7.495 7.546)" gradientUnits="userSpaceOnUse"><stop stop-color="#eeeeec" offset="0"/><stop stop-color="#eeeeec" stop-opacity="0" offset="1"/></linearGradient><linearGradient id="a" x1="7.937" x2="7.937" y1="15.081" y2="1.852" gradientTransform="translate(0 .032) scale(3.7795)" gradientUnits="userSpaceOnUse"><stop stop-color="#292929" offset="0"/><stop stop-color="#4d4d4d" offset="1"/></linearGradient><filter id="b" x="-.136" y="-.131" width="1.271" height="1.262" color-interpolation-filters="sRGB"><feGaussianBlur stdDeviation="2.036"/></filter></defs><g color="#000" image-rendering="auto"><path d="M4.37.53C2.254.53.53 2.312.53 4.496v8.468c0 2.184 1.725 3.968 3.84 3.968h8.194c2.114 0 3.84-1.783 3.84-3.968V4.497c0-2.184-1.726-3.968-3.84-3.968zm.256.52h7.681c1.844 0 3.33 1.534 3.33 3.44v7.937c0 1.906-1.485 3.44-3.33 3.44h-7.68c-1.845 0-3.33-1.534-3.33-3.44V4.49c0-1.906 1.485-3.44 3.33-3.44z" enable-background="accumulate" opacity=".01" style="font-feature-settings:normal;font-variant-alternates:normal;font-variant-caps:normal;font-variant-east-asian:normal;font-variant-ligatures:normal;font-variant-numeric:normal;font-variant-position:normal;font-variation-settings:normal;inline-size:0;isolation:auto;mix-blend-mode:normal;shape-margin:0;shape-padding:0;text-decoration-color:#000;text-decoration-line:none;text-decoration-style:solid;text-indent:0;text-orientation:mixed;text-transform:none;white-space:normal" transform="scale(3.7796)"/><path d="M4.359.794C2.392.794.795 2.447.795 4.48v8.5c0 2.035 1.597 3.688 3.564 3.688h8.216c1.967 0 3.564-1.653 3.564-3.688v-8.5c0-2.034-1.597-3.687-3.564-3.687zm.272.256h7.672c1.842 0 3.325 1.534 3.325 3.44v7.937c0 1.906-1.483 3.44-3.325 3.44H4.63c-1.842 0-3.325-1.534-3.325-3.44V4.49c0-1.906 1.483-3.44 3.325-3.44z" enable-background="accumulate" opacity=".01" style="font-feature-settings:normal;font-variant-alternates:normal;font-variant-caps:normal;font-variant-east-asian:normal;font-variant-ligatures:normal;font-variant-numeric:normal;font-variant-position:normal;font-variation-settings:normal;inline-size:0;isolation:auto;mix-blend-mode:normal;shape-margin:0;shape-padding:0;text-decoration-color:#000;text-decoration-line:none;text-decoration-style:solid;text-indent:0;text-orientation:mixed;text-transform:none;white-space:normal" transform="scale(3.7796)"/><path d="M4.31 1.058c-1.866 0-3.375 1.539-3.375 3.44v8.467c0 1.9 1.57 3.439 3.435 3.439h8.2c1.866 0 3.427-1.538 3.427-3.44V4.498c0-1.9-1.51-3.439-3.375-3.439h-.097c1.794.087 3.214 1.582 3.214 3.432v7.937c0 1.906-1.506 3.44-3.377 3.44h-7.79c-1.871 0-3.377-1.534-3.377-3.44V4.49c0-1.85 1.42-3.345 3.214-3.432z" enable-background="accumulate" opacity=".03" style="font-feature-settings:normal;font-variant-alternates:normal;font-variant-caps:normal;font-variant-east-asian:normal;font-variant-ligatures:normal;font-variant-numeric:normal;font-variant-position:normal;font-variation-settings:normal;inline-size:0;isolation:auto;mix-blend-mode:normal;shape-margin:0;shape-padding:0;text-decoration-color:#000;text-decoration-line:none;text-decoration-style:solid;text-indent:0;text-orientation:mixed;text-transform:none;white-space:normal" transform="scale(3.7796)"/><path d="M4 46.969V49c0 6.648 5.896 12 12.544 12h30.961C54.153 61 60 55.648 60 49v-1.992a12.972 12.972 0 0 1-13 12.963H17.002A12.973 12.973 0 0 1 4 46.969z" enable-background="accumulate" opacity=".03" style="font-feature-settings:normal;font-variant-alternates:normal;font-variant-caps:normal;font-variant-east-asian:normal;font-variant-ligatures:normal;font-variant-numeric:normal;font-variant-position:normal;font-variation-settings:normal;inline-size:0;isolation:auto;mix-blend-mode:normal;shape-margin:0;shape-padding:0;text-decoration-color:#000;text-decoration-line:none;text-decoration-style:solid;text-indent:0;text-orientation:mixed;text-transform:none;white-space:normal"/><path d="M1.058 11.906v.592c0 1.939 1.573 3.5 3.332 3.5h8.16c1.76 0 3.325-1.561 3.325-3.5v-.58c-.006 2.095-1.537 3.78-3.44 3.78H4.498c-1.905 0-3.44-1.692-3.44-3.792z" enable-background="accumulate" opacity=".05" style="font-feature-settings:normal;font-variant-alternates:normal;font-variant-caps:normal;font-variant-east-asian:normal;font-variant-ligatures:normal;font-variant-numeric:normal;font-variant-position:normal;font-variation-settings:normal;inline-size:0;isolation:auto;mix-blend-mode:normal;shape-margin:0;shape-padding:0;text-decoration-color:#000;text-decoration-line:none;text-decoration-style:solid;text-indent:0;text-orientation:mixed;text-transform:none;white-space:normal" transform="scale(3.7796)"/></g><rect x="4" y="4" width="56" height="56" rx="13.002" ry="13.002" fill="url(#a)"/><g transform="translate(.552 .407)" filter="url(#b)" opacity=".5"><path d="M15.008 26h32.998v11.778H15.008V26z" stroke="#2e3436"/><g opacity=".75"><path d="M39.497 31.547a8 8 0 1 1-16 0 8 8 0 0 1 16 0z"/><path d="M37.212 31.615a5.715 5.715 0 1 1-11.429 0 5.715 5.715 0 0 1 11.43 0z"/><path d="M34.926 31.615a3.429 3.429 0 1 1-6.857 0 3.429 3.429 0 0 1 6.857 0z"/></g><path d="M29.497 31.547a8 8 0 1 1-16 0 8 8 0 0 1 16 0z"/><path d="M27.212 31.615a5.715 5.715 0 1 1-11.429 0 5.715 5.715 0 0 1 11.43 0z"/><path d="M24.926 31.615a3.429 3.429 0 1 1-6.857 0 3.429 3.429 0 0 1 6.857 0z"/><g opacity=".5"><path d="M49.497 31.547a8 8 0 1 1-16 0 8 8 0 0 1 16 0z"/><path d="M47.212 31.615a5.715 5.715 0 1 1-11.429 0 5.715 5.715 0 0 1 11.43 0z"/><path d="M44.926 31.615a3.429 3.429 0 1 1-6.857 0 3.429 3.429 0 0 1 6.857 0z"/></g><path d="M31.464 11.077c-10.117 0-18.544 7.329-20.219 16.969h40.406c-1.676-9.639-10.071-16.969-20.187-16.969zM11.276 35.14c1.69 9.622 10.083 16.968 20.188 16.968s18.498-7.344 20.187-16.968z" fill-rule="evenodd" stroke="#2e3436"/><path d="M31.464 12.077c-9.226 0-16.95 6.45-18.969 15.063h37.938c-2.02-8.613-9.744-15.063-18.969-15.063zM12.495 36.046c2.02 8.613 9.743 15.031 18.969 15.031 9.225 0 16.949-6.418 18.969-15.031z" stroke="url(#c)"/></g><path d="M15.56 26.407h32.998v11.778H15.56V26.407z" fill="#2e3436" stroke="#2e3436"/><g opacity=".75"><path transform="translate(2.448 -8.708) scale(1.5842)" d="M23.735 25.668a5.05 5.05 0 1 1-10.1 0 5.05 5.05 0 0 1 10.1 0z" fill="url(#d)"/><path transform="translate(10.906 2.976) scale(1.1316)" d="M23.735 25.668a5.05 5.05 0 1 1-10.1 0 5.05 5.05 0 0 1 10.1 0z" fill="url(#e)"/><path transform="translate(19.363 14.595) scale(.67895)" d="M23.735 25.668a5.05 5.05 0 1 1-10.1 0 5.05 5.05 0 0 1 10.1 0z" fill="url(#f)"/></g><path transform="translate(-7.552 -8.708) scale(1.5842)" d="M23.735 25.668a5.05 5.05 0 1 1-10.1 0 5.05 5.05 0 0 1 10.1 0z" fill="url(#d)"/><path transform="translate(.906 2.976) scale(1.1316)" d="M23.735 25.668a5.05 5.05 0 1 1-10.1 0 5.05 5.05 0 0 1 10.1 0z" fill="url(#e)"/><path transform="translate(9.363 14.595) scale(.67895)" d="M23.735 25.668a5.05 5.05 0 1 1-10.1 0 5.05 5.05 0 0 1 10.1 0z" fill="url(#f)"/><g opacity=".5"><path transform="translate(12.448 -8.708) scale(1.5842)" d="M23.735 25.668a5.05 5.05 0 1 1-10.1 0 5.05 5.05 0 0 1 10.1 0z" fill="url(#d)"/><path transform="translate(20.906 2.976) scale(1.1316)" d="M23.735 25.668a5.05 5.05 0 1 1-10.1 0 5.05 5.05 0 0 1 10.1 0z" fill="url(#e)"/><path transform="translate(29.363 14.595) scale(.67895)" d="M23.735 25.668a5.05 5.05 0 1 1-10.1 0 5.05 5.05 0 0 1 10.1 0z" fill="url(#f)"/></g><path d="M31.464 11.077c-10.117 0-18.544 7.329-20.219 16.969h40.406c-1.676-9.639-10.071-16.969-20.187-16.969zM11.276 35.14c1.69 9.622 10.083 16.968 20.188 16.968s18.498-7.344 20.187-16.968z" fill="url(#g)" transform="translate(.552 .407)"/></svg>