<svg xmlns="http://www.w3.org/2000/svg" xmlns:xlink="http://www.w3.org/1999/xlink" width="64" height="64" viewBox="0 0 16.933 16.933"><defs><linearGradient id="c"><stop offset="0" stop-color="#ec4520"/><stop offset="1" stop-color="#f58517"/></linearGradient><linearGradient id="b"><stop offset="0" stop-color="#548fed"/><stop offset="1" stop-color="#5ebae3"/></linearGradient><linearGradient id="a"><stop offset="0" stop-color="#8ae234"/><stop offset="1" stop-color="#47e767"/></linearGradient><linearGradient xlink:href="#a" id="m" x1="4.933" x2="7.049" y1="4.305" y2="4.305" gradientUnits="userSpaceOnUse"/><linearGradient xlink:href="#a" id="k" x1="7.049" x2="9.166" y1="6.422" y2="6.422" gradientUnits="userSpaceOnUse"/><linearGradient xlink:href="#a" id="h" x1="11.283" x2="13.399" y1="10.655" y2="10.655" gradientUnits="userSpaceOnUse"/><linearGradient xlink:href="#b" id="o" x1="11.283" x2="13.399" y1="4.305" y2="4.305" gradientUnits="userSpaceOnUse"/><linearGradient xlink:href="#b" id="f" x1="4.933" x2="7.049" y1="10.655" y2="10.655" gradientUnits="userSpaceOnUse"/><linearGradient xlink:href="#b" id="i" x1="7.049" x2="9.166" y1="8.538" y2="8.538" gradientUnits="userSpaceOnUse"/><linearGradient xlink:href="#b" id="g" x1="9.166" x2="11.283" y1="10.655" y2="10.655" gradientUnits="userSpaceOnUse"/><linearGradient xlink:href="#b" id="l" x1="9.166" x2="11.283" y1="6.422" y2="6.422" gradientUnits="userSpaceOnUse"/><linearGradient xlink:href="#c" id="j" x1="11.283" x2="13.399" y1="8.538" y2="8.538" gradientUnits="userSpaceOnUse"/><linearGradient xlink:href="#c" id="n" x1="7.049" x2="9.166" y1="4.305" y2="4.305" gradientUnits="userSpaceOnUse"/><linearGradient id="d" x1="7.937" x2="7.937" y1="15.081" y2="1.852" gradientTransform="translate(0 .008)scale(.99997)" gradientUnits="userSpaceOnUse"><stop offset="0" stop-color="#292929"/><stop offset="1" stop-color="#4d4d4d"/></linearGradient><filter id="e" width="1.12" height="1.12" x="-.06" y="-.06" color-interpolation-filters="sRGB"><feGaussianBlur stdDeviation=".212"/></filter></defs><g color="#000"><path d="M4.37.53C2.254.53.53 2.312.53 4.496v8.468c0 2.184 1.725 3.968 3.84 3.968h8.194c2.114 0 3.84-1.783 3.84-3.968V4.497c0-2.184-1.726-3.968-3.84-3.968zm.256.52h7.681c1.844 0 3.33 1.534 3.33 3.44v7.937c0 1.906-1.485 3.44-3.33 3.44h-7.68c-1.845 0-3.33-1.534-3.33-3.44V4.49c0-1.906 1.485-3.44 3.33-3.44z" opacity=".01" style="font-feature-settings:normal;font-variant-alternates:normal;font-variant-caps:normal;font-variant-east-asian:normal;font-variant-ligatures:normal;font-variant-numeric:normal;font-variant-position:normal;font-variation-settings:normal;inline-size:0;isolation:auto;mix-blend-mode:normal;shape-margin:0;shape-padding:0;text-decoration-color:#000;text-decoration-line:none;text-decoration-style:solid;text-indent:0;text-orientation:mixed;text-transform:none;white-space:normal"/><path d="M4.359.794C2.392.794.795 2.447.795 4.48v8.5c0 2.035 1.597 3.688 3.564 3.688h8.216c1.967 0 3.564-1.653 3.564-3.688v-8.5c0-2.034-1.597-3.687-3.564-3.687zm.272.256h7.672c1.842 0 3.325 1.534 3.325 3.44v7.937c0 1.906-1.483 3.44-3.325 3.44H4.63c-1.842 0-3.325-1.534-3.325-3.44V4.49c0-1.906 1.483-3.44 3.325-3.44z" opacity=".01" style="font-feature-settings:normal;font-variant-alternates:normal;font-variant-caps:normal;font-variant-east-asian:normal;font-variant-ligatures:normal;font-variant-numeric:normal;font-variant-position:normal;font-variation-settings:normal;inline-size:0;isolation:auto;mix-blend-mode:normal;shape-margin:0;shape-padding:0;text-decoration-color:#000;text-decoration-line:none;text-decoration-style:solid;text-indent:0;text-orientation:mixed;text-transform:none;white-space:normal"/><path d="M4.31 1.058c-1.866 0-3.375 1.539-3.375 3.44v8.467c0 1.9 1.57 3.439 3.435 3.439h8.2c1.866 0 3.427-1.538 3.427-3.44V4.498c0-1.9-1.51-3.439-3.375-3.439h-.097c1.794.087 3.214 1.582 3.214 3.432v7.937c0 1.906-1.506 3.44-3.377 3.44h-7.79c-1.871 0-3.377-1.534-3.377-3.44V4.49c0-1.85 1.42-3.345 3.214-3.432z" opacity=".03" style="font-feature-settings:normal;font-variant-alternates:normal;font-variant-caps:normal;font-variant-east-asian:normal;font-variant-ligatures:normal;font-variant-numeric:normal;font-variant-position:normal;font-variation-settings:normal;inline-size:0;isolation:auto;mix-blend-mode:normal;shape-margin:0;shape-padding:0;text-decoration-color:#000;text-decoration-line:none;text-decoration-style:solid;text-indent:0;text-orientation:mixed;text-transform:none;white-space:normal"/><path d="M4 46.969V49c0 6.648 5.896 12 12.544 12h30.961C54.153 61 60 55.648 60 49v-1.992a12.97 12.97 0 0 1-13 12.963H17.002A12.973 12.973 0 0 1 4 46.969" opacity=".03" style="font-feature-settings:normal;font-variant-alternates:normal;font-variant-caps:normal;font-variant-east-asian:normal;font-variant-ligatures:normal;font-variant-numeric:normal;font-variant-position:normal;font-variation-settings:normal;inline-size:0;isolation:auto;mix-blend-mode:normal;shape-margin:0;shape-padding:0;text-decoration-color:#000;text-decoration-line:none;text-decoration-style:solid;text-indent:0;text-orientation:mixed;text-transform:none;white-space:normal" transform="scale(.26458)"/><path d="M1.058 11.906v.592c0 1.939 1.573 3.5 3.332 3.5h8.16c1.76 0 3.325-1.561 3.325-3.5v-.58c-.006 2.095-1.537 3.78-3.44 3.78H4.498c-1.905 0-3.44-1.692-3.44-3.792" opacity=".05" style="font-feature-settings:normal;font-variant-alternates:normal;font-variant-caps:normal;font-variant-east-asian:normal;font-variant-ligatures:normal;font-variant-numeric:normal;font-variant-position:normal;font-variation-settings:normal;inline-size:0;isolation:auto;mix-blend-mode:normal;shape-margin:0;shape-padding:0;text-decoration-color:#000;text-decoration-line:none;text-decoration-style:solid;text-indent:0;text-orientation:mixed;text-transform:none;white-space:normal"/></g><rect width="14.816" height="14.816" x="1.058" y="1.058" fill="url(#d)" rx="3.44" ry="3.44"/><g filter="url(#e)" opacity=".35" transform="translate(-.7 .987)"><path d="M5.991 9.597a1.059 1.059 0 1 0 0 2.117 1.059 1.059 0 0 0 0-2.117m4.233 0a1.059 1.059 0 1 0 0 2.117 1.059 1.059 0 0 0 0-2.117"/><path d="M12.341 9.597a1.059 1.059 0 1 0 0 2.117 1.059 1.059 0 0 0 0-2.117M8.108 7.48a1.059 1.059 0 1 0 0 2.117 1.059 1.059 0 0 0 0-2.117"/><path d="M12.341 7.48a1.059 1.059 0 1 0 0 2.117 1.059 1.059 0 0 0 0-2.117M8.108 5.363a1.059 1.059 0 1 0 0 2.118 1.059 1.059 0 0 0 0-2.118"/><path d="M10.224 5.363a1.059 1.059 0 1 0 0 2.118 1.059 1.059 0 0 0 0-2.118M5.991 3.247a1.059 1.059 0 1 0 0 2.117 1.059 1.059 0 0 0 0-2.117"/><path d="M8.108 3.247a1.059 1.059 0 1 0 0 2.117 1.059 1.059 0 0 0 0-2.117m4.233 0a1.059 1.059 0 1 0 0 2.117 1.059 1.059 0 0 0 0-2.117"/></g><path fill="url(#f)" d="M5.991 9.597a1.059 1.059 0 1 0 0 2.117 1.059 1.059 0 0 0 0-2.117" transform="translate(-.7 .987)"/><path fill="url(#g)" d="M10.224 9.597a1.059 1.059 0 1 0 0 2.117 1.059 1.059 0 0 0 0-2.117" transform="translate(-.7 .987)"/><path fill="url(#h)" d="M12.341 9.597a1.059 1.059 0 1 0 0 2.117 1.059 1.059 0 0 0 0-2.117" transform="translate(-.7 .987)"/><path fill="url(#i)" d="M8.108 7.48a1.059 1.059 0 1 0 0 2.117 1.059 1.059 0 0 0 0-2.117" transform="translate(-.7 .987)"/><path fill="url(#j)" d="M12.341 7.48a1.059 1.059 0 1 0 0 2.117 1.059 1.059 0 0 0 0-2.117" transform="translate(-.7 .987)"/><path fill="url(#k)" d="M8.108 5.363a1.059 1.059 0 1 0 0 2.118 1.059 1.059 0 0 0 0-2.118" transform="translate(-.7 .987)"/><path fill="url(#l)" d="M10.224 5.363a1.059 1.059 0 1 0 0 2.118 1.059 1.059 0 0 0 0-2.118" transform="translate(-.7 .987)"/><path fill="url(#m)" d="M5.991 3.247a1.059 1.059 0 1 0 0 2.117 1.059 1.059 0 0 0 0-2.117" transform="translate(-.7 .987)"/><path fill="url(#n)" d="M8.108 3.247a1.059 1.059 0 1 0 0 2.117 1.059 1.059 0 0 0 0-2.117" transform="translate(-.7 .987)"/><path fill="url(#o)" d="M12.341 3.247a1.059 1.059 0 1 0 0 2.117 1.059 1.059 0 0 0 0-2.117" transform="translate(-.7 .987)"/></svg>