<svg width="64" height="64" version="1.1" xmlns="http://www.w3.org/2000/svg" xmlns:xlink="http://www.w3.org/1999/xlink">
 <defs>
  <linearGradient id="linearGradient867" x1="32.243" x2="32.42" y1="47.827" y2="14.844" gradientTransform="translate(-1.0711 -.33699)" gradientUnits="userSpaceOnUse">
   <stop stop-color="#ff4c1c" offset="0"/>
   <stop stop-color="#ffbf25" offset="1"/>
  </linearGradient>
  <linearGradient id="linearGradient871" x1="12.684" x2="48.336" y1="29.802" y2="29.802" gradientTransform="translate(-1.0711 -.33699)" gradientUnits="userSpaceOnUse">
   <stop stop-color="#f60" offset="0"/>
   <stop stop-color="#f60" stop-opacity="0" offset="1"/>
  </linearGradient>
  <filter id="filter908" x="-.061568" y="-.05851" width="1.1231" height="1.117" color-interpolation-filters="sRGB">
   <feGaussianBlur stdDeviation="0.74084545"/>
  </filter>
  <linearGradient id="linearGradient862-3" x1="7.9373" x2="7.9373" y1="15.081" y2="1.852" gradientTransform="matrix(3.7795 0 0 3.7795 .00014309 .031541)" gradientUnits="userSpaceOnUse">
   <stop stop-color="#f1efeb" offset="0"/>
   <stop stop-color="#fdfcfc" offset="1"/>
  </linearGradient>
 </defs>
 <g transform="scale(3.7796)" shape-rendering="auto">
  <path d="m4.3693 0.52916c-2.1142 0-3.8402 1.7835-3.8402 3.9682v8.4675c0 2.1846 1.726 3.9682 3.8402 3.9682h8.1944c2.1142 0 3.8402-1.7835 3.8402-3.9682v-8.4675c0-2.1846-1.726-3.9682-3.8402-3.9682zm0.25704 0.52089h7.6808c1.8443 0 3.3291 1.5342 3.3291 3.44v7.9368c0 1.9058-1.4847 3.44-3.3291 3.44h-7.6808c-1.8443 0-3.3291-1.5342-3.3291-3.44v-7.9368c0-1.9058 1.4847-3.44 3.3291-3.44z" color="#000000" color-rendering="auto" dominant-baseline="auto" image-rendering="auto" opacity=".01" solid-color="#000000" stop-color="#000000" style="font-feature-settings:normal;font-variant-alternates:normal;font-variant-caps:normal;font-variant-east-asian:normal;font-variant-ligatures:normal;font-variant-numeric:normal;font-variant-position:normal;font-variation-settings:normal;inline-size:0;isolation:auto;mix-blend-mode:normal;shape-margin:0;shape-padding:0;text-decoration-color:#000000;text-decoration-line:none;text-decoration-style:solid;text-indent:0;text-orientation:mixed;text-transform:none;white-space:normal"/>
  <path d="m4.3587 0.79373c-1.9668 0-3.5639 1.6528-3.5639 3.6876v8.4996c0 2.0348 1.5971 3.6876 3.5639 3.6876h8.2162c1.9668 0 3.5644-1.6528 3.5644-3.6876v-8.4996c0-2.0348-1.5976-3.6876-3.5644-3.6876zm0.27222 0.25631h7.6718c1.8422 0 3.3251 1.5342 3.3251 3.44v7.9368c0 1.9058-1.483 3.44-3.3251 3.44h-7.6718c-1.8422 0-3.3251-1.5342-3.3251-3.44v-7.9368c0-1.9058 1.483-3.44 3.3251-3.44z" color="#000000" color-rendering="auto" dominant-baseline="auto" image-rendering="auto" opacity=".01" solid-color="#000000" stop-color="#000000" style="font-feature-settings:normal;font-variant-alternates:normal;font-variant-caps:normal;font-variant-east-asian:normal;font-variant-ligatures:normal;font-variant-numeric:normal;font-variant-position:normal;font-variation-settings:normal;inline-size:0;isolation:auto;mix-blend-mode:normal;shape-margin:0;shape-padding:0;text-decoration-color:#000000;text-decoration-line:none;text-decoration-style:solid;text-indent:0;text-orientation:mixed;text-transform:none;white-space:normal"/>
  <g>
   <path d="m4.3097 1.0583c-1.8657 0-3.3751 1.5383-3.3751 3.439v8.4675c0 1.9007 1.57 3.439 3.4357 3.439h8.1996c1.8657 0 3.4274-1.5383 3.4274-3.439v-8.4675c0-1.9007-1.51-3.439-3.3756-3.439h-0.09688c1.794 0.086515 3.2138 1.5819 3.2138 3.4318v7.9368c0 1.9058-1.5059 3.44-3.3766 3.44h-7.7905c-1.8707 0-3.3766-1.5342-3.3766-3.44v-7.9368c0-1.8498 1.4199-3.3451 3.2138-3.4318z" color="#000000" color-rendering="auto" dominant-baseline="auto" image-rendering="auto" opacity=".03" solid-color="#000000" stop-color="#000000" style="font-feature-settings:normal;font-variant-alternates:normal;font-variant-caps:normal;font-variant-east-asian:normal;font-variant-ligatures:normal;font-variant-numeric:normal;font-variant-position:normal;font-variation-settings:normal;inline-size:0;isolation:auto;mix-blend-mode:normal;shape-margin:0;shape-padding:0;text-decoration-color:#000000;text-decoration-line:none;text-decoration-style:solid;text-indent:0;text-orientation:mixed;text-transform:none;white-space:normal"/>
   <path transform="scale(.26458)" d="m4 46.969v2.0312c0 6.6479 5.8957 12 12.544 12h30.961c6.6479 0 12.495-5.3521 12.495-12v-1.9922c-0.021173 7.1849-5.81 12.963-13 12.963h-29.998c-7.2032 0-13.002-5.7987-13.002-13.002z" color="#000000" color-rendering="auto" dominant-baseline="auto" image-rendering="auto" opacity=".03" solid-color="#000000" stop-color="#000000" style="font-feature-settings:normal;font-variant-alternates:normal;font-variant-caps:normal;font-variant-east-asian:normal;font-variant-ligatures:normal;font-variant-numeric:normal;font-variant-position:normal;font-variation-settings:normal;inline-size:0;isolation:auto;mix-blend-mode:normal;shape-margin:0;shape-padding:0;text-decoration-color:#000000;text-decoration-line:none;text-decoration-style:solid;text-indent:0;text-orientation:mixed;text-transform:none;white-space:normal"/>
   <path d="m1.0583 11.906v0.59234c0 1.9386 1.5729 3.4993 3.3318 3.4993h8.1603c1.7589 0 3.3243-1.5608 3.3243-3.4993v-0.58095c-0.0056 2.0952-1.5372 3.7801-3.4395 3.7801h-7.9368c-1.9058 0-3.44-1.691-3.44-3.7915z" color="#000000" color-rendering="auto" dominant-baseline="auto" image-rendering="auto" opacity=".05" solid-color="#000000" stop-color="#000000" style="font-feature-settings:normal;font-variant-alternates:normal;font-variant-caps:normal;font-variant-east-asian:normal;font-variant-ligatures:normal;font-variant-numeric:normal;font-variant-position:normal;font-variation-settings:normal;inline-size:0;isolation:auto;mix-blend-mode:normal;shape-margin:0;shape-padding:0;text-decoration-color:#000000;text-decoration-line:none;text-decoration-style:solid;text-indent:0;text-orientation:mixed;text-transform:none;white-space:normal"/>
  </g>
 </g>
 <rect x="4" y="4" width="56" height="56" rx="13.002" ry="13.002" fill="url(#linearGradient862-3)" stroke-width="3.7795"/>
 <g transform="matrix(1.1081 0 0 1.1081 -4.3729 -2.7843)" filter="url(#filter908)" opacity=".15" stroke-width="3.7796">
  <path d="m26.684 16.199a7.2494 7.2494 0 0 0-1.9844 0.23828c-1.7462 0.45355-3.4168 1.511-4.6074 2.9473-1.1868 1.4287-1.8964 3.2465-1.6621 5.1816 0.24567 3.3034 1.7952 8.7379 3.7266 13.387 0.96759 2.3282 2.0296 4.4526 3.0879 6.0098 0.52914 0.78239 1.0548 1.4214 1.584 1.875 0.51781 0.44599 1.0496 0.72254 1.5977 0.71876a3.2353 3.2353 0 0 0 2.5176-0.73048c0.72946-0.57072 1.3536-1.3896 1.9395-2.293 1.1339-1.7537 2.1541-3.9797 3.3145-5.2988 0.11339 0.13229 0.26792 0.55034 0.45312 0.88673 0.36284 0.67656 0.83277 1.6605 1.4375 2.6621 0.60474 1.0054 1.3478 1.9641 2.2852 2.7578 0.93357 0.78616 2.0724 1.2853 3.418 1.2891 0.80885 0.06047 1.6254 0.0046 2.2793-0.32422 0.66143-0.3326 1.1631-0.86538 1.1934-1.6855v-0.0078a1.6101 1.6101 0 0 0-0.8086-1.4023c-0.45733-0.28725-1.0158-0.47901-1.6055-0.78516-1.1755-0.6123-2.5093-1.6067-3.3105-4.498-0.63497-2.2942-1.4749-4.0114-2.3594-5.168-0.88444-1.1528-1.5984-2.1793-2.7285-2.0508-1.9692 0.223-2.8947 3.0462-3.832 4.543-0.5745 0.92223-1.1153 1.8389-1.584 2.5684-0.37796 0.5934-0.66178 0.92363-0.88478 1.1504-0.72569-0.7786-1.1576-1.6172-1.082-2.6074 0.09071-1.1112 0.72666-2.3812 1.3125-3.7305 1.1717-2.6949 2.6636-5.7274 2.3574-8.7247-0.22299-2.1922-1.3704-4.6478-2.9805-5.9102a5.3028 5.3028 0 0 0-2.4199-0.94532 5.7601 5.7601 0 0 0-0.6543-0.05273zm-0.1582 3.7148c1.1377 0.44599 2.0266 1.4217 2.4121 2.1738a8.8179 8.8179 0 0 0-2.4199-1.0215 5.7828 5.7828 0 0 0-2.0059 1.1602 3.7796 3.7796 0 0 1 2.0137-2.3125zm-4.4062 1.7344c0.92182 0.01382 1.8115 0.26681 2.3926 0.56445-1.0092 0.03024-1.9502 0.18729-2.6191 0.41406-0.41954 0.51025-0.77587 1.1355-0.96485 1.9141-0.34772-1.0129-0.26535-1.9737 0.26758-2.8203 0.30426-0.05575 0.61656-0.07687 0.92384-0.07227zm4.2285 0.54102c0.98648-0.09449 1.84 1.1685 1.9043 2.8164 0.03024 0.7068-0.09354 1.2464-0.32031 1.7793a9.8082 9.8082 0 0 0-2.668 0.42773c-0.05291-0.08315-0.1148-0.15929-0.16016-0.25-0.0076 0.10583-0.02602 0.21241-0.04492 0.31445-0.8731 0.29103-1.6316 0.80452-2.2363 1.2656-0.42332-0.46111-0.7533-1.203-0.85157-2.0723-0.17386-1.5043 0.3863-3.042 1.248-3.1289 0.56316-0.05669 1.1099 0.66584 1.4766 1.418 0.10961-1.3833 0.7906-2.4872 1.6523-2.5703zm2.5898 5.2383c-0.02646 2.3736-2.382 5.2164-3.8145 5.2051-2.0145-0.0189-2.7022-1.3871-3.1406-2.332 2.2753-0.54048 5.1673-1.8223 6.9551-2.873z" fill-rule="evenodd"/>
  <path d="m24.323 26.059a0.63308 0.87192 0 0 1-1.2662 0 0.63308 0.87192 0 1 1 1.2662 0zm2.7175-0.65009a0.63308 0.87192 0 0 1-1.2662 0 0.63308 0.87192 0 1 1 1.2662 0z"/>
  <path d="m28.719 28.705c-0.41576 0.54804-1.2964 0.9638-2.7591 1.6063 1.6668-0.3515 1.6366-0.01134 1.6895 0.49891a7.0679 7.0679 0 0 0 1.0696-2.1052zm-3.515 1.8974c-1.5496 0.45355-2.23 0.55938-2.8801 0.36662a3.0842 3.0842 0 0 0 1.4665 1.3985c-0.25323-0.51025-0.25323-0.97514 1.4098-1.7651z" opacity=".5"/>
 </g>
 <g transform="matrix(1.1081 0 0 1.1081 -4.3729 -2.7843)" stroke-width="3.7796">
  <path d="m26.684 16.199a7.2494 7.2494 0 0 0-1.9844 0.23828c-1.7462 0.45355-3.4168 1.511-4.6074 2.9473-1.1868 1.4287-1.8964 3.2465-1.6621 5.1816 0.24567 3.3034 1.7952 8.7379 3.7266 13.387 0.96759 2.3282 2.0296 4.4526 3.0879 6.0098 0.52914 0.78239 1.0548 1.4214 1.584 1.875 0.51781 0.44599 1.0496 0.72254 1.5977 0.71876a3.2353 3.2353 0 0 0 2.5176-0.73048c0.72946-0.57072 1.3536-1.3896 1.9395-2.293 1.1339-1.7537 2.1541-3.9797 3.3145-5.2988 0.11339 0.13229 0.26792 0.55034 0.45312 0.88673 0.36284 0.67656 0.83277 1.6605 1.4375 2.6621 0.60474 1.0054 1.3478 1.9641 2.2852 2.7578 0.93357 0.78616 2.0724 1.2853 3.418 1.2891 0.80885 0.06047 1.6254 0.0046 2.2793-0.32422 0.66143-0.3326 1.1631-0.86538 1.1934-1.6855v-0.0078a1.6101 1.6101 0 0 0-0.8086-1.4023c-0.45733-0.28725-1.0158-0.47901-1.6055-0.78516-1.1755-0.6123-2.5093-1.6067-3.3105-4.498-0.63497-2.2942-1.4749-4.0114-2.3594-5.168-0.88444-1.1528-1.5984-2.1793-2.7285-2.0508-1.9692 0.223-2.8947 3.0462-3.832 4.543-0.5745 0.92223-1.1153 1.8389-1.584 2.5684-0.37796 0.5934-0.66178 0.92363-0.88478 1.1504-0.72569-0.7786-1.1576-1.6172-1.082-2.6074 0.09071-1.1112 0.72666-2.3812 1.3125-3.7305 1.1717-2.6949 2.6636-5.7274 2.3574-8.7247-0.22299-2.1922-1.3704-4.6478-2.9805-5.9102a5.3028 5.3028 0 0 0-2.4199-0.94532 5.7601 5.7601 0 0 0-0.6543-0.05273zm-0.1582 3.7148c1.1377 0.44599 2.0266 1.4217 2.4121 2.1738a8.8179 8.8179 0 0 0-2.4199-1.0215 5.7828 5.7828 0 0 0-2.0059 1.1602 3.7796 3.7796 0 0 1 2.0137-2.3125zm-4.4062 1.7344c0.92182 0.01382 1.8115 0.26681 2.3926 0.56445-1.0092 0.03024-1.9502 0.18729-2.6191 0.41406-0.41954 0.51025-0.77587 1.1355-0.96485 1.9141-0.34772-1.0129-0.26535-1.9737 0.26758-2.8203 0.30426-0.05575 0.61656-0.07687 0.92384-0.07227zm4.2285 0.54102c0.98648-0.09449 1.84 1.1685 1.9043 2.8164 0.03024 0.7068-0.09354 1.2464-0.32031 1.7793a9.8082 9.8082 0 0 0-2.668 0.42773c-0.05291-0.08315-0.1148-0.15929-0.16016-0.25-0.0076 0.10583-0.02602 0.21241-0.04492 0.31445-0.8731 0.29103-1.6316 0.80452-2.2363 1.2656-0.42332-0.46111-0.7533-1.203-0.85157-2.0723-0.17386-1.5043 0.3863-3.042 1.248-3.1289 0.56316-0.05669 1.1099 0.66584 1.4766 1.418 0.10961-1.3833 0.7906-2.4872 1.6523-2.5703zm2.5898 5.2383c-0.02646 2.3736-2.382 5.2164-3.8145 5.2051-2.0145-0.0189-2.7022-1.3871-3.1406-2.332 2.2753-0.54048 5.1673-1.8223 6.9551-2.873z" fill="url(#linearGradient867)" fill-rule="evenodd"/>
  <path d="m24.323 26.059a0.63308 0.87192 0 0 1-1.2662 0 0.63308 0.87192 0 1 1 1.2662 0zm2.7175-0.65009a0.63308 0.87192 0 0 1-1.2662 0 0.63308 0.87192 0 1 1 1.2662 0z" fill="url(#linearGradient871)"/>
  <path d="m28.719 28.705c-0.41576 0.54804-1.2964 0.9638-2.7591 1.6063 1.6668-0.3515 1.6366-0.01134 1.6895 0.49891a7.0679 7.0679 0 0 0 1.0696-2.1052zm-3.515 1.8974c-1.5496 0.45355-2.23 0.55938-2.8801 0.36662a3.0842 3.0842 0 0 0 1.4665 1.3985c-0.25323-0.51025-0.25323-0.97514 1.4098-1.7651z" fill="url(#linearGradient871)" opacity=".5"/>
 </g>
</svg>
