<svg width="64" height="64" viewBox="0 0 16.933 16.933" xmlns="http://www.w3.org/2000/svg" xmlns:xlink="http://www.w3.org/1999/xlink"><defs><linearGradient id="b"><stop stop-color="#136de2" offset="0"/><stop stop-color="#26bbcf" offset="1"/></linearGradient><linearGradient id="a"><stop stop-color="#ffb636" offset="0"/><stop stop-color="#eeed51" offset="1"/></linearGradient><linearGradient id="h" x1="38.838" x2="38.875" y1="31.829" y2="15.598" gradientUnits="userSpaceOnUse" xlink:href="#a"/><linearGradient id="g" x1="16" x2="31.359" y1="39.04" y2="39.04" gradientUnits="userSpaceOnUse" xlink:href="#a"/><linearGradient id="f" x1="29.919" x2="29.975" y1="34.767" y2="25.339" gradientUnits="userSpaceOnUse" xlink:href="#b"/><linearGradient id="e" x1="17.443" x2="17.71" y1="22.502" y2="13.498" gradientUnits="userSpaceOnUse" xlink:href="#b"/><linearGradient id="c" x1="7.031" x2="7.031" y1="14.699" y2="2.845" gradientTransform="translate(19.907 .792)" gradientUnits="userSpaceOnUse"><stop stop-color="#2e323e" offset="0"/><stop stop-color="#505664" offset="1"/></linearGradient><filter id="d" x="-.06" y="-.06" width="1.12" height="1.12" color-interpolation-filters="sRGB"><feGaussianBlur stdDeviation=".6"/></filter></defs><g color="#000"><path d="M4.37.53C2.254.53.53 2.312.53 4.496v8.468c0 2.184 1.725 3.968 3.84 3.968h8.194c2.114 0 3.84-1.783 3.84-3.968V4.497c0-2.184-1.726-3.968-3.84-3.968zm.256.52h7.681c1.844 0 3.33 1.534 3.33 3.44v7.937c0 1.906-1.485 3.44-3.33 3.44h-7.68c-1.845 0-3.33-1.534-3.33-3.44V4.49c0-1.906 1.485-3.44 3.33-3.44z" opacity=".01" style="font-feature-settings:normal;font-variant-alternates:normal;font-variant-caps:normal;font-variant-east-asian:normal;font-variant-ligatures:normal;font-variant-numeric:normal;font-variant-position:normal;font-variation-settings:normal;inline-size:0;isolation:auto;mix-blend-mode:normal;shape-margin:0;shape-padding:0;text-decoration-color:#000;text-decoration-line:none;text-decoration-style:solid;text-indent:0;text-orientation:mixed;text-transform:none;white-space:normal"/><path d="M4.359.794C2.392.794.795 2.447.795 4.48v8.5c0 2.035 1.597 3.688 3.564 3.688h8.216c1.967 0 3.564-1.653 3.564-3.688v-8.5c0-2.034-1.597-3.687-3.564-3.687zm.272.256h7.672c1.842 0 3.325 1.534 3.325 3.44v7.937c0 1.906-1.483 3.44-3.325 3.44H4.63c-1.842 0-3.325-1.534-3.325-3.44V4.49c0-1.906 1.483-3.44 3.325-3.44z" opacity=".01" style="font-feature-settings:normal;font-variant-alternates:normal;font-variant-caps:normal;font-variant-east-asian:normal;font-variant-ligatures:normal;font-variant-numeric:normal;font-variant-position:normal;font-variation-settings:normal;inline-size:0;isolation:auto;mix-blend-mode:normal;shape-margin:0;shape-padding:0;text-decoration-color:#000;text-decoration-line:none;text-decoration-style:solid;text-indent:0;text-orientation:mixed;text-transform:none;white-space:normal"/><path d="M4.31 1.058c-1.866 0-3.375 1.539-3.375 3.44v8.467c0 1.9 1.57 3.439 3.435 3.439h8.2c1.866 0 3.427-1.538 3.427-3.44V4.498c0-1.9-1.51-3.439-3.375-3.439h-.097c1.794.087 3.214 1.582 3.214 3.432v7.937c0 1.906-1.506 3.44-3.377 3.44h-7.79c-1.871 0-3.377-1.534-3.377-3.44V4.49c0-1.85 1.42-3.345 3.214-3.432z" opacity=".03" style="font-feature-settings:normal;font-variant-alternates:normal;font-variant-caps:normal;font-variant-east-asian:normal;font-variant-ligatures:normal;font-variant-numeric:normal;font-variant-position:normal;font-variation-settings:normal;inline-size:0;isolation:auto;mix-blend-mode:normal;shape-margin:0;shape-padding:0;text-decoration-color:#000;text-decoration-line:none;text-decoration-style:solid;text-indent:0;text-orientation:mixed;text-transform:none;white-space:normal"/><path transform="scale(.26458)" d="M4 46.969V49c0 6.648 5.896 12 12.544 12h30.961C54.153 61 60 55.648 60 49v-1.992a12.972 12.972 0 0 1-13 12.963H17.002A12.973 12.973 0 0 1 4 46.969z" opacity=".03" style="font-feature-settings:normal;font-variant-alternates:normal;font-variant-caps:normal;font-variant-east-asian:normal;font-variant-ligatures:normal;font-variant-numeric:normal;font-variant-position:normal;font-variation-settings:normal;inline-size:0;isolation:auto;mix-blend-mode:normal;shape-margin:0;shape-padding:0;text-decoration-color:#000;text-decoration-line:none;text-decoration-style:solid;text-indent:0;text-orientation:mixed;text-transform:none;white-space:normal"/><path d="M1.058 11.906v.592c0 1.939 1.573 3.5 3.332 3.5h8.16c1.76 0 3.325-1.561 3.325-3.5v-.58c-.006 2.095-1.537 3.78-3.44 3.78H4.498c-1.905 0-3.44-1.692-3.44-3.792z" opacity=".05" style="font-feature-settings:normal;font-variant-alternates:normal;font-variant-caps:normal;font-variant-east-asian:normal;font-variant-ligatures:normal;font-variant-numeric:normal;font-variant-position:normal;font-variation-settings:normal;inline-size:0;isolation:auto;mix-blend-mode:normal;shape-margin:0;shape-padding:0;text-decoration-color:#000;text-decoration-line:none;text-decoration-style:solid;text-indent:0;text-orientation:mixed;text-transform:none;white-space:normal"/></g><rect x="1.058" y="1.058" width="14.816" height="14.816" rx="3.44" ry="3.44" fill="url(#c)"/><g transform="translate(.508 .508) scale(.33866)" filter="url(#d)" opacity=".25"><path d="M15.332 14h5.336c.734 0 1.332.598 1.332 1.332v5.336c0 .734-.598 1.332-1.332 1.332h-5.336A1.334 1.334 0 0 1 14 20.668v-5.336c0-.734.598-1.332 1.332-1.332m12 12h5.336c.738 0 1.332.598 1.332 1.332v5.336c0 .738-.594 1.332-1.332 1.332h-5.336A1.332 1.332 0 0 1 26 32.668v-5.336c0-.734.598-1.332 1.332-1.332M14 24c-1.109 0-2 .891-2 2v8c0 1.109.891 2 2 2h8c1.109 0 2-.891 2-2v-8c0-1.109-.891-2-2-2m-8 1h8c.555 0 1 .445 1 1v8c0 .555-.445 1-1 1h-8c-.555 0-1-.445-1-1v-8c0-.555.445-1 1-1"/><path d="M15 26h6c.551 0 1 .449 1 1v6c0 .551-.449 1-1 1h-6c-.551 0-1-.449-1-1v-6c0-.551.449-1 1-1m11-14c-1.109 0-2 .891-2 2v8c0 1.109.891 2 2 2h8c1.109 0 2-.891 2-2v-8c0-1.109-.891-2-2-2m-8 1h8c.555 0 1 .445 1 1v8c0 .555-.445 1-1 1h-8c-.555 0-1-.445-1-1v-8c0-.555.445-1 1-1"/><path d="M27 14h6c.551 0 1 .449 1 1v6c0 .551-.449 1-1 1h-6c-.551 0-1-.449-1-1v-6c0-.551.449-1 1-1"/></g><path d="M15.332 14h5.336c.734 0 1.332.598 1.332 1.332v5.336c0 .734-.598 1.332-1.332 1.332h-5.336A1.334 1.334 0 0 1 14 20.668v-5.336c0-.734.598-1.332 1.332-1.332" fill="url(#e)" transform="translate(.17 .17) scale(.33866)"/><path d="M27.332 26h5.336c.738 0 1.332.598 1.332 1.332v5.336c0 .738-.594 1.332-1.332 1.332h-5.336A1.332 1.332 0 0 1 26 32.668v-5.336c0-.734.598-1.332 1.332-1.332" fill="url(#f)" transform="translate(.17 .17) scale(.33866)"/><path transform="rotate(.216) scale(.26458)" d="M18.561 31.359a2.554 2.554 0 0 0-2.56 2.56v10.24c0 1.42 1.14 2.561 2.56 2.561h10.24a2.552 2.552 0 0 0 2.559-2.56V33.92c0-1.42-1.14-2.561-2.559-2.561h-10.24zm0 1.281h10.24c.71 0 1.28.57 1.28 1.28v10.24c0 .71-.57 1.279-1.28 1.279h-10.24c-.71 0-1.281-.57-1.281-1.28V33.92c0-.71.57-1.279 1.281-1.279zm1.28 1.28a1.28 1.28 0 0 0-1.28 1.279v7.681c0 .706.574 1.28 1.28 1.28h7.679c.705 0 1.281-.574 1.281-1.28V35.2c0-.705-.576-1.28-1.281-1.28h-7.68z" fill="url(#g)"/><path transform="rotate(.216) scale(.26458)" d="M33.92 16a2.554 2.554 0 0 0-2.56 2.56V28.8a2.552 2.552 0 0 0 2.56 2.56h10.24c1.42 0 2.56-1.14 2.56-2.56V18.56c0-1.419-1.14-2.56-2.56-2.56H33.92zm0 1.28h10.24c.71 0 1.28.57 1.28 1.28V28.8c0 .71-.57 1.28-1.28 1.28H33.92c-.71 0-1.28-.57-1.28-1.28V18.56c0-.71.57-1.28 1.28-1.28zm1.28 1.28a1.28 1.28 0 0 0-1.28 1.28v7.68c0 .705.574 1.28 1.28 1.28h7.68c.706 0 1.28-.575 1.28-1.28v-7.68a1.28 1.28 0 0 0-1.28-1.28H35.2z" fill="url(#h)"/></svg>