<svg width="64" height="64" version="1.1" xmlns="http://www.w3.org/2000/svg">
 <defs>
  <linearGradient id="a" x1="28.285" x2="28.774" y1="13.142" y2="52.167" gradientUnits="userSpaceOnUse">
   <stop stop-color="#ff6c1c" offset="0"/>
   <stop stop-color="#ff2579" offset="1"/>
  </linearGradient>
  <filter id="d" x="-.058883" y="-.061161" width="1.1178" height="1.1223" color-interpolation-filters="sRGB">
   <feGaussianBlur stdDeviation="10.562379"/>
  </filter>
  <linearGradient id="linearGradient862-3" x1="7.9373" x2="7.9373" y1="15.081" y2="1.852" gradientTransform="matrix(3.7795 0 0 3.7795 .00014309 .031541)" gradientUnits="userSpaceOnUse">
   <stop stop-color="#f1efeb" offset="0"/>
   <stop stop-color="#fdfcfc" offset="1"/>
  </linearGradient>
 </defs>
 <g transform="scale(3.7796)" shape-rendering="auto">
  <path d="m4.3693 0.52916c-2.1142 0-3.8402 1.7835-3.8402 3.9682v8.4675c0 2.1846 1.726 3.9682 3.8402 3.9682h8.1944c2.1142 0 3.8402-1.7835 3.8402-3.9682v-8.4675c0-2.1846-1.726-3.9682-3.8402-3.9682zm0.25704 0.52089h7.6808c1.8443 0 3.3291 1.5342 3.3291 3.44v7.9368c0 1.9058-1.4847 3.44-3.3291 3.44h-7.6808c-1.8443 0-3.3291-1.5342-3.3291-3.44v-7.9368c0-1.9058 1.4847-3.44 3.3291-3.44z" color="#000000" color-rendering="auto" dominant-baseline="auto" image-rendering="auto" opacity=".01" solid-color="#000000" stop-color="#000000" style="font-feature-settings:normal;font-variant-alternates:normal;font-variant-caps:normal;font-variant-east-asian:normal;font-variant-ligatures:normal;font-variant-numeric:normal;font-variant-position:normal;font-variation-settings:normal;inline-size:0;isolation:auto;mix-blend-mode:normal;shape-margin:0;shape-padding:0;text-decoration-color:#000000;text-decoration-line:none;text-decoration-style:solid;text-indent:0;text-orientation:mixed;text-transform:none;white-space:normal"/>
  <path d="m4.3587 0.79373c-1.9668 0-3.5639 1.6528-3.5639 3.6876v8.4996c0 2.0348 1.5971 3.6876 3.5639 3.6876h8.2162c1.9668 0 3.5644-1.6528 3.5644-3.6876v-8.4996c0-2.0348-1.5976-3.6876-3.5644-3.6876zm0.27222 0.25631h7.6718c1.8422 0 3.3251 1.5342 3.3251 3.44v7.9368c0 1.9058-1.483 3.44-3.3251 3.44h-7.6718c-1.8422 0-3.3251-1.5342-3.3251-3.44v-7.9368c0-1.9058 1.483-3.44 3.3251-3.44z" color="#000000" color-rendering="auto" dominant-baseline="auto" image-rendering="auto" opacity=".01" solid-color="#000000" stop-color="#000000" style="font-feature-settings:normal;font-variant-alternates:normal;font-variant-caps:normal;font-variant-east-asian:normal;font-variant-ligatures:normal;font-variant-numeric:normal;font-variant-position:normal;font-variation-settings:normal;inline-size:0;isolation:auto;mix-blend-mode:normal;shape-margin:0;shape-padding:0;text-decoration-color:#000000;text-decoration-line:none;text-decoration-style:solid;text-indent:0;text-orientation:mixed;text-transform:none;white-space:normal"/>
  <g>
   <path d="m4.3097 1.0583c-1.8657 0-3.3751 1.5383-3.3751 3.439v8.4675c0 1.9007 1.57 3.439 3.4357 3.439h8.1996c1.8657 0 3.4274-1.5383 3.4274-3.439v-8.4675c0-1.9007-1.51-3.439-3.3756-3.439h-0.09688c1.794 0.086515 3.2138 1.5819 3.2138 3.4318v7.9368c0 1.9058-1.5059 3.44-3.3766 3.44h-7.7905c-1.8707 0-3.3766-1.5342-3.3766-3.44v-7.9368c0-1.8498 1.4199-3.3451 3.2138-3.4318z" color="#000000" color-rendering="auto" dominant-baseline="auto" image-rendering="auto" opacity=".03" solid-color="#000000" stop-color="#000000" style="font-feature-settings:normal;font-variant-alternates:normal;font-variant-caps:normal;font-variant-east-asian:normal;font-variant-ligatures:normal;font-variant-numeric:normal;font-variant-position:normal;font-variation-settings:normal;inline-size:0;isolation:auto;mix-blend-mode:normal;shape-margin:0;shape-padding:0;text-decoration-color:#000000;text-decoration-line:none;text-decoration-style:solid;text-indent:0;text-orientation:mixed;text-transform:none;white-space:normal"/>
   <path transform="scale(.26458)" d="m4 46.969v2.0312c0 6.6479 5.8957 12 12.544 12h30.961c6.6479 0 12.495-5.3521 12.495-12v-1.9922c-0.021173 7.1849-5.81 12.963-13 12.963h-29.998c-7.2032 0-13.002-5.7987-13.002-13.002z" color="#000000" color-rendering="auto" dominant-baseline="auto" image-rendering="auto" opacity=".03" solid-color="#000000" stop-color="#000000" style="font-feature-settings:normal;font-variant-alternates:normal;font-variant-caps:normal;font-variant-east-asian:normal;font-variant-ligatures:normal;font-variant-numeric:normal;font-variant-position:normal;font-variation-settings:normal;inline-size:0;isolation:auto;mix-blend-mode:normal;shape-margin:0;shape-padding:0;text-decoration-color:#000000;text-decoration-line:none;text-decoration-style:solid;text-indent:0;text-orientation:mixed;text-transform:none;white-space:normal"/>
   <path d="m1.0583 11.906v0.59234c0 1.9386 1.5729 3.4993 3.3318 3.4993h8.1603c1.7589 0 3.3243-1.5608 3.3243-3.4993v-0.58095c-0.0056 2.0952-1.5372 3.7801-3.4395 3.7801h-7.9368c-1.9058 0-3.44-1.691-3.44-3.7915z" color="#000000" color-rendering="auto" dominant-baseline="auto" image-rendering="auto" opacity=".05" solid-color="#000000" stop-color="#000000" style="font-feature-settings:normal;font-variant-alternates:normal;font-variant-caps:normal;font-variant-east-asian:normal;font-variant-ligatures:normal;font-variant-numeric:normal;font-variant-position:normal;font-variation-settings:normal;inline-size:0;isolation:auto;mix-blend-mode:normal;shape-margin:0;shape-padding:0;text-decoration-color:#000000;text-decoration-line:none;text-decoration-style:solid;text-indent:0;text-orientation:mixed;text-transform:none;white-space:normal"/>
  </g>
 </g>
 <rect x="4" y="4" width="56" height="56" rx="13.002" ry="13.002" fill="url(#linearGradient862-3)" stroke-width="3.7795"/>
 <g transform="matrix(.08965 0 0 .08965 12.684 12.68)" fill-opacity=".84722" filter="url(#d)" opacity=".15" stroke-width=".79208">
  <path transform="matrix(11.154,0,0,11.154,-141.67,-141.67)" d="m49.133 13.422c-0.63837 0.02654-1.2536 0.34712-1.6367 0.91211-0.38542 0.56823-9.4501 13.939-10.617 15.951-0.58356 1.0063-1.242 2.6394-1.7891 4.1328l4.7109 2.7617c1.0259-1.2171 2.1211-2.6065 2.7129-3.627 1.1807-2.0359 8.2711-16.521 8.5723-17.137 0.48028-0.98127 0.12083-2.167-0.82422-2.7148-0.35429-0.20546-0.74588-0.29522-1.1289-0.2793zm-34.021 15.924c-0.04359-0.0054-0.09076 0.0055-0.12891 0.0332-1.4148 1.025-2.3511 2.8878-2.2773 4.5293 0.03936 0.87539 0.37579 2.0911 1.7578 2.9141 0.74395 0.44289 1.9478 0.53481 3.1113 0.625 1.1447 0.08867 2.3286 0.18191 2.6934 0.62695 0.09557 0.11664 0.13276 0.25776 0.11133 0.43555-0.07961 0.81388-0.4754 1.6157-0.85742 2.3906-0.72145 1.4638-1.4671 2.9766-0.17773 4.6562 1.1324 1.4749 2.6353 1.4756 4.1797 1.4648 0.12641-8.96e-4 0.25427-2e-3 0.38086-2e-3 0.67375 0 1.4505 0.01979 2.1562 0.26562 0.50224 0.19464 0.75488 0.59775 0.87305 1.3965 0.09046 0.48969 0.30888 0.87571 0.59766 1.166 0.04223-0.22512 0.14134-0.43972 0.29492-0.62109 0.7583-0.89529 0.60935-1.7326 0.23047-3.3906-0.1759-0.77058-0.37097-1.6258-0.41992-2.5566-0.40327-0.13466-0.79671-0.21381-1.1953-0.23828-0.06697-0.0041-0.13812-0.0059-0.21289-0.0059-0.59979 0-1.3531 0.13264-2.082 0.25977-0.64955 0.11341-1.2633 0.21875-1.6914 0.21875-0.30115 0-0.40583-0.05334-0.43945-0.08203-0.36391-0.45679 0.16355-1.6972 0.38867-2.2285 0.05756-0.13556 0.10273-0.24384 0.12891-0.32031 0.36507-1.0742 0.63242-2.2174 0.12695-3.3027-0.42021-0.90237-1.4021-1.6206-2.4941-1.8281-0.31809-0.07513-0.68259-0.10938-1.1484-0.10938-0.38345 0-0.79451 0.0233-1.1914 0.04687-0.40703 0.02421-0.82738 0.05078-1.2305 0.05078-1.3864 0-2.1854-0.3178-2.668-1.0566-0.89583-1.4224 0.18034-3.9703 1.2852-5.0312 0.06796-0.06527 0.0741-0.17179 0.01367-0.24414-0.03026-0.03618-0.07164-0.05706-0.11523-0.0625zm19.418 6.1016c-0.25686 0.03093-0.51543 0.083-0.77148 0.15625-1.2298 0.35297-3.0072 1.3648-4.498 4.1836-1.1836 2.2379-0.74675 4.1532-0.36133 5.8438 0.3683 1.6158 0.65848 2.8932-0.42383 4.1699-0.10642 0.12543-0.13588 0.29777-0.07617 0.45117 0.03757 0.09647 0.10711 0.17636 0.19336 0.22656 0.05119 0.02959 0.1094 0.04893 0.16992 0.05664 2.7376 0.34392 6.8343-1.2716 9.3613-5.6289 1.1478-1.979 1.6408-3.8809 1.4258-5.502-0.05594-0.4229-0.16066-0.8228-0.30859-1.1953l-4.7109-2.7617z" fill-opacity="1" stroke-width=".071013"/>
 </g>
 <g transform="matrix(.08965 0 0 .08965 12.684 12.68)" fill="#fff" fill-opacity=".84722" stroke-width=".79208">
  <path transform="matrix(11.154,0,0,11.154,-141.67,-141.67)" d="m49.133 13.422c-0.63837 0.02654-1.2536 0.34712-1.6367 0.91211-0.38542 0.56823-9.4501 13.939-10.617 15.951-0.58356 1.0063-1.242 2.6394-1.7891 4.1328l4.7109 2.7617c1.0259-1.2171 2.1211-2.6065 2.7129-3.627 1.1807-2.0359 8.2711-16.521 8.5723-17.137 0.48028-0.98127 0.12083-2.167-0.82422-2.7148-0.35429-0.20546-0.74588-0.29522-1.1289-0.2793zm-34.021 15.924c-0.04359-0.0054-0.09076 0.0055-0.12891 0.0332-1.4148 1.025-2.3511 2.8878-2.2773 4.5293 0.03936 0.87539 0.37579 2.0911 1.7578 2.9141 0.74395 0.44289 1.9478 0.53481 3.1113 0.625 1.1447 0.08867 2.3286 0.18191 2.6934 0.62695 0.09557 0.11664 0.13276 0.25776 0.11133 0.43555-0.07961 0.81388-0.4754 1.6157-0.85742 2.3906-0.72145 1.4638-1.4671 2.9766-0.17773 4.6562 1.1324 1.4749 2.6353 1.4756 4.1797 1.4648 0.12641-8.96e-4 0.25427-2e-3 0.38086-2e-3 0.67375 0 1.4505 0.01979 2.1562 0.26562 0.50224 0.19464 0.75488 0.59775 0.87305 1.3965 0.09046 0.48969 0.30888 0.87571 0.59766 1.166 0.04223-0.22512 0.14134-0.43972 0.29492-0.62109 0.7583-0.89529 0.60935-1.7326 0.23047-3.3906-0.1759-0.77058-0.37097-1.6258-0.41992-2.5566-0.40327-0.13466-0.79671-0.21381-1.1953-0.23828-0.06697-0.0041-0.13812-0.0059-0.21289-0.0059-0.59979 0-1.3531 0.13264-2.082 0.25977-0.64955 0.11341-1.2633 0.21875-1.6914 0.21875-0.30115 0-0.40583-0.05334-0.43945-0.08203-0.36391-0.45679 0.16355-1.6972 0.38867-2.2285 0.05756-0.13556 0.10273-0.24384 0.12891-0.32031 0.36507-1.0742 0.63242-2.2174 0.12695-3.3027-0.42021-0.90237-1.4021-1.6206-2.4941-1.8281-0.31809-0.07513-0.68259-0.10938-1.1484-0.10938-0.38345 0-0.79451 0.0233-1.1914 0.04687-0.40703 0.02421-0.82738 0.05078-1.2305 0.05078-1.3864 0-2.1854-0.3178-2.668-1.0566-0.89583-1.4224 0.18034-3.9703 1.2852-5.0312 0.06796-0.06527 0.0741-0.17179 0.01367-0.24414-0.03026-0.03618-0.07164-0.05706-0.11523-0.0625zm19.418 6.1016c-0.25686 0.03093-0.51543 0.083-0.77148 0.15625-1.2298 0.35297-3.0072 1.3648-4.498 4.1836-1.1836 2.2379-0.74675 4.1532-0.36133 5.8438 0.3683 1.6158 0.65848 2.8932-0.42383 4.1699-0.10642 0.12543-0.13588 0.29777-0.07617 0.45117 0.03757 0.09647 0.10711 0.17636 0.19336 0.22656 0.05119 0.02959 0.1094 0.04893 0.16992 0.05664 2.7376 0.34392 6.8343-1.2716 9.3613-5.6289 1.1478-1.979 1.6408-3.8809 1.4258-5.502-0.05594-0.4229-0.16066-0.8228-0.30859-1.1953l-4.7109-2.7617z" fill="url(#a)" fill-opacity="1" stroke-width=".071013"/>
 </g>
</svg>
