<svg width="64" height="64" xmlns="http://www.w3.org/2000/svg"><defs><linearGradient id="c" x1="32.243" x2="32.42" y1="47.827" y2="14.844" gradientTransform="translate(-1.071 -.337)" gradientUnits="userSpaceOnUse"><stop stop-color="#ff4c1c" offset="0"/><stop stop-color="#ffbf25" offset="1"/></linearGradient><linearGradient id="d" x1="12.684" x2="48.336" y1="29.802" y2="29.802" gradientTransform="translate(-1.071 -.337)" gradientUnits="userSpaceOnUse"><stop stop-color="#f60" offset="0"/><stop stop-color="#f60" stop-opacity="0" offset="1"/></linearGradient><linearGradient id="a" x1="7.937" x2="7.937" y1="15.081" y2="1.852" gradientTransform="translate(0 .032) scale(3.7795)" gradientUnits="userSpaceOnUse"><stop stop-color="#f1efeb" offset="0"/><stop stop-color="#fdfcfc" offset="1"/></linearGradient><filter id="b" x="-.062" y="-.059" width="1.123" height="1.117" color-interpolation-filters="sRGB"><feGaussianBlur stdDeviation=".741"/></filter></defs><g color="#000"><path d="M4.37.53C2.254.53.53 2.312.53 4.496v8.468c0 2.184 1.725 3.968 3.84 3.968h8.194c2.114 0 3.84-1.783 3.84-3.968V4.497c0-2.184-1.726-3.968-3.84-3.968zm.256.52h7.681c1.844 0 3.33 1.534 3.33 3.44v7.937c0 1.906-1.485 3.44-3.33 3.44h-7.68c-1.845 0-3.33-1.534-3.33-3.44V4.49c0-1.906 1.485-3.44 3.33-3.44z" opacity=".01" style="font-feature-settings:normal;font-variant-alternates:normal;font-variant-caps:normal;font-variant-east-asian:normal;font-variant-ligatures:normal;font-variant-numeric:normal;font-variant-position:normal;font-variation-settings:normal;inline-size:0;isolation:auto;mix-blend-mode:normal;shape-margin:0;shape-padding:0;text-decoration-color:#000;text-decoration-line:none;text-decoration-style:solid;text-indent:0;text-orientation:mixed;text-transform:none;white-space:normal" transform="scale(3.7796)"/><path d="M4.359.794C2.392.794.795 2.447.795 4.48v8.5c0 2.035 1.597 3.688 3.564 3.688h8.216c1.967 0 3.564-1.653 3.564-3.688v-8.5c0-2.034-1.597-3.687-3.564-3.687zm.272.256h7.672c1.842 0 3.325 1.534 3.325 3.44v7.937c0 1.906-1.483 3.44-3.325 3.44H4.63c-1.842 0-3.325-1.534-3.325-3.44V4.49c0-1.906 1.483-3.44 3.325-3.44z" opacity=".01" style="font-feature-settings:normal;font-variant-alternates:normal;font-variant-caps:normal;font-variant-east-asian:normal;font-variant-ligatures:normal;font-variant-numeric:normal;font-variant-position:normal;font-variation-settings:normal;inline-size:0;isolation:auto;mix-blend-mode:normal;shape-margin:0;shape-padding:0;text-decoration-color:#000;text-decoration-line:none;text-decoration-style:solid;text-indent:0;text-orientation:mixed;text-transform:none;white-space:normal" transform="scale(3.7796)"/><path d="M4.31 1.058c-1.866 0-3.375 1.539-3.375 3.44v8.467c0 1.9 1.57 3.439 3.435 3.439h8.2c1.866 0 3.427-1.538 3.427-3.44V4.498c0-1.9-1.51-3.439-3.375-3.439h-.097c1.794.087 3.214 1.582 3.214 3.432v7.937c0 1.906-1.506 3.44-3.377 3.44h-7.79c-1.871 0-3.377-1.534-3.377-3.44V4.49c0-1.85 1.42-3.345 3.214-3.432z" opacity=".03" style="font-feature-settings:normal;font-variant-alternates:normal;font-variant-caps:normal;font-variant-east-asian:normal;font-variant-ligatures:normal;font-variant-numeric:normal;font-variant-position:normal;font-variation-settings:normal;inline-size:0;isolation:auto;mix-blend-mode:normal;shape-margin:0;shape-padding:0;text-decoration-color:#000;text-decoration-line:none;text-decoration-style:solid;text-indent:0;text-orientation:mixed;text-transform:none;white-space:normal" transform="scale(3.7796)"/><path d="M4 46.969V49c0 6.648 5.896 12 12.544 12h30.961C54.153 61 60 55.648 60 49v-1.992a12.972 12.972 0 0 1-13 12.963H17.002A12.973 12.973 0 0 1 4 46.969z" opacity=".03" style="font-feature-settings:normal;font-variant-alternates:normal;font-variant-caps:normal;font-variant-east-asian:normal;font-variant-ligatures:normal;font-variant-numeric:normal;font-variant-position:normal;font-variation-settings:normal;inline-size:0;isolation:auto;mix-blend-mode:normal;shape-margin:0;shape-padding:0;text-decoration-color:#000;text-decoration-line:none;text-decoration-style:solid;text-indent:0;text-orientation:mixed;text-transform:none;white-space:normal"/><path d="M1.058 11.906v.592c0 1.939 1.573 3.5 3.332 3.5h8.16c1.76 0 3.325-1.561 3.325-3.5v-.58c-.006 2.095-1.537 3.78-3.44 3.78H4.498c-1.905 0-3.44-1.692-3.44-3.792z" opacity=".05" style="font-feature-settings:normal;font-variant-alternates:normal;font-variant-caps:normal;font-variant-east-asian:normal;font-variant-ligatures:normal;font-variant-numeric:normal;font-variant-position:normal;font-variation-settings:normal;inline-size:0;isolation:auto;mix-blend-mode:normal;shape-margin:0;shape-padding:0;text-decoration-color:#000;text-decoration-line:none;text-decoration-style:solid;text-indent:0;text-orientation:mixed;text-transform:none;white-space:normal" transform="scale(3.7796)"/></g><rect x="4" y="4" width="56" height="56" rx="13.002" ry="13.002" fill="url(#a)"/><g transform="translate(-4.373 -2.784) scale(1.1081)" filter="url(#b)" opacity=".15" stroke-width="3.78"><path d="M26.684 16.199a7.25 7.25 0 0 0-1.984.238c-1.747.454-3.417 1.511-4.608 2.948-1.187 1.428-1.896 3.246-1.662 5.181.246 3.304 1.795 8.738 3.727 13.387.967 2.328 2.03 4.453 3.088 6.01.529.782 1.054 1.421 1.584 1.875.517.446 1.05.723 1.597.719a3.235 3.235 0 0 0 2.518-.73c.73-.571 1.354-1.39 1.94-2.294 1.133-1.753 2.154-3.98 3.314-5.299.113.133.268.55.453.887.363.677.833 1.66 1.438 2.662.604 1.006 1.347 1.964 2.285 2.758.933.786 2.072 1.285 3.418 1.29.809.06 1.625.004 2.279-.325.661-.333 1.163-.865 1.193-1.686v-.007a1.61 1.61 0 0 0-.808-1.403c-.458-.287-1.016-.479-1.606-.785-1.175-.612-2.509-1.606-3.31-4.498-.635-2.294-1.475-4.011-2.36-5.168-.884-1.153-1.598-2.18-2.728-2.05-1.97.222-2.895 3.046-3.832 4.542-.575.923-1.115 1.84-1.584 2.569-.378.593-.662.923-.885 1.15-.726-.778-1.157-1.617-1.082-2.607.09-1.111.727-2.381 1.313-3.73 1.171-2.696 2.663-5.728 2.357-8.725-.223-2.193-1.37-4.648-2.98-5.91a5.303 5.303 0 0 0-2.42-.946 5.76 5.76 0 0 0-.655-.053zm-.158 3.715c1.138.446 2.026 1.422 2.412 2.174a8.818 8.818 0 0 0-2.42-1.022 5.783 5.783 0 0 0-2.006 1.16 3.78 3.78 0 0 1 2.014-2.312zm-4.406 1.734c.921.014 1.811.267 2.392.565-1.009.03-1.95.187-2.619.414a4.74 4.74 0 0 0-.965 1.914c-.347-1.013-.265-1.974.268-2.82a4.75 4.75 0 0 1 .924-.073zm4.228.541c.987-.094 1.84 1.169 1.904 2.817a3.883 3.883 0 0 1-.32 1.779 9.808 9.808 0 0 0-2.668.428c-.053-.084-.115-.16-.16-.25a2.871 2.871 0 0 1-.045.314c-.873.291-1.632.805-2.236 1.266-.424-.461-.754-1.203-.852-2.073-.174-1.504.386-3.042 1.248-3.128.563-.057 1.11.665 1.477 1.418.11-1.384.79-2.488 1.652-2.57zm2.59 5.239c-.027 2.373-2.382 5.216-3.815 5.205-2.014-.02-2.702-1.387-3.14-2.332 2.275-.54 5.167-1.823 6.955-2.873z" fill-rule="evenodd"/><path d="M24.323 26.059a.633.872 0 0 1-1.266 0 .633.872 0 1 1 1.266 0zm2.717-.65a.633.872 0 0 1-1.266 0 .633.872 0 1 1 1.266 0z"/><path d="M28.719 28.705c-.416.548-1.296.964-2.76 1.606 1.668-.351 1.638-.011 1.69.5a7.068 7.068 0 0 0 1.07-2.106zm-3.515 1.897c-1.55.454-2.23.56-2.88.367a3.084 3.084 0 0 0 1.466 1.399c-.253-.51-.253-.976 1.41-1.766z" opacity=".5"/></g><g stroke-width="3.78"><path d="M26.684 16.199a7.25 7.25 0 0 0-1.984.238c-1.747.454-3.417 1.511-4.608 2.948-1.187 1.428-1.896 3.246-1.662 5.181.246 3.304 1.795 8.738 3.727 13.387.967 2.328 2.03 4.453 3.088 6.01.529.782 1.054 1.421 1.584 1.875.517.446 1.05.723 1.597.719a3.235 3.235 0 0 0 2.518-.73c.73-.571 1.354-1.39 1.94-2.294 1.133-1.753 2.154-3.98 3.314-5.299.113.133.268.55.453.887.363.677.833 1.66 1.438 2.662.604 1.006 1.347 1.964 2.285 2.758.933.786 2.072 1.285 3.418 1.29.809.06 1.625.004 2.279-.325.661-.333 1.163-.865 1.193-1.686v-.007a1.61 1.61 0 0 0-.808-1.403c-.458-.287-1.016-.479-1.606-.785-1.175-.612-2.509-1.606-3.31-4.498-.635-2.294-1.475-4.011-2.36-5.168-.884-1.153-1.598-2.18-2.728-2.05-1.97.222-2.895 3.046-3.832 4.542-.575.923-1.115 1.84-1.584 2.569-.378.593-.662.923-.885 1.15-.726-.778-1.157-1.617-1.082-2.607.09-1.111.727-2.381 1.313-3.73 1.171-2.696 2.663-5.728 2.357-8.725-.223-2.193-1.37-4.648-2.98-5.91a5.303 5.303 0 0 0-2.42-.946 5.76 5.76 0 0 0-.655-.053zm-.158 3.715c1.138.446 2.026 1.422 2.412 2.174a8.818 8.818 0 0 0-2.42-1.022 5.783 5.783 0 0 0-2.006 1.16 3.78 3.78 0 0 1 2.014-2.312zm-4.406 1.734c.921.014 1.811.267 2.392.565-1.009.03-1.95.187-2.619.414a4.74 4.74 0 0 0-.965 1.914c-.347-1.013-.265-1.974.268-2.82a4.75 4.75 0 0 1 .924-.073zm4.228.541c.987-.094 1.84 1.169 1.904 2.817a3.883 3.883 0 0 1-.32 1.779 9.808 9.808 0 0 0-2.668.428c-.053-.084-.115-.16-.16-.25a2.871 2.871 0 0 1-.045.314c-.873.291-1.632.805-2.236 1.266-.424-.461-.754-1.203-.852-2.073-.174-1.504.386-3.042 1.248-3.128.563-.057 1.11.665 1.477 1.418.11-1.384.79-2.488 1.652-2.57zm2.59 5.239c-.027 2.373-2.382 5.216-3.815 5.205-2.014-.02-2.702-1.387-3.14-2.332 2.275-.54 5.167-1.823 6.955-2.873z" fill="url(#c)" fill-rule="evenodd" transform="translate(-4.373 -2.784) scale(1.1081)"/><path d="M24.323 26.059a.633.872 0 0 1-1.266 0 .633.872 0 1 1 1.266 0zm2.717-.65a.633.872 0 0 1-1.266 0 .633.872 0 1 1 1.266 0z" fill="url(#d)" transform="translate(-4.373 -2.784) scale(1.1081)"/><path d="M28.719 28.705c-.416.548-1.296.964-2.76 1.606 1.668-.351 1.638-.011 1.69.5a7.068 7.068 0 0 0 1.07-2.106zm-3.515 1.897c-1.55.454-2.23.56-2.88.367a3.084 3.084 0 0 0 1.466 1.399c-.253-.51-.253-.976 1.41-1.766z" fill="url(#d)" opacity=".5" transform="translate(-4.373 -2.784) scale(1.1081)"/></g></svg>