<svg width="64" height="64" enable-background="new 0 0 1024 1024" image-rendering="optimizeSpeed" xmlns="http://www.w3.org/2000/svg"><defs><linearGradient id="c" x1="32" x2="32" y1="13" y2="51" gradientTransform="translate(2 2) scale(.99609)" gradientUnits="userSpaceOnUse"><stop stop-color="#fff" offset="0"/><stop stop-color="#ccc" offset="1"/></linearGradient><linearGradient id="a" x1="7.937" x2="7.937" y1="15.081" y2="1.852" gradientTransform="translate(0 .032) scale(3.7795)" gradientUnits="userSpaceOnUse"><stop stop-color="#292929" offset="0"/><stop stop-color="#4d4d4d" offset="1"/></linearGradient><filter id="b" x="-.064" y="-.057" width="1.128" height="1.113" color-interpolation-filters="sRGB"><feGaussianBlur stdDeviation=".896"/></filter></defs><g color="#000" image-rendering="auto"><path d="M4.37.53C2.254.53.53 2.312.53 4.496v8.468c0 2.184 1.725 3.968 3.84 3.968h8.194c2.114 0 3.84-1.783 3.84-3.968V4.497c0-2.184-1.726-3.968-3.84-3.968zm.256.52h7.681c1.844 0 3.33 1.534 3.33 3.44v7.937c0 1.906-1.485 3.44-3.33 3.44h-7.68c-1.845 0-3.33-1.534-3.33-3.44V4.49c0-1.906 1.485-3.44 3.33-3.44z" enable-background="accumulate" opacity=".01" style="font-feature-settings:normal;font-variant-alternates:normal;font-variant-caps:normal;font-variant-east-asian:normal;font-variant-ligatures:normal;font-variant-numeric:normal;font-variant-position:normal;font-variation-settings:normal;inline-size:0;isolation:auto;mix-blend-mode:normal;shape-margin:0;shape-padding:0;text-decoration-color:#000;text-decoration-line:none;text-decoration-style:solid;text-indent:0;text-orientation:mixed;text-transform:none;white-space:normal" transform="scale(3.7796)"/><path d="M4.359.794C2.392.794.795 2.447.795 4.48v8.5c0 2.035 1.597 3.688 3.564 3.688h8.216c1.967 0 3.564-1.653 3.564-3.688v-8.5c0-2.034-1.597-3.687-3.564-3.687zm.272.256h7.672c1.842 0 3.325 1.534 3.325 3.44v7.937c0 1.906-1.483 3.44-3.325 3.44H4.63c-1.842 0-3.325-1.534-3.325-3.44V4.49c0-1.906 1.483-3.44 3.325-3.44z" enable-background="accumulate" opacity=".01" style="font-feature-settings:normal;font-variant-alternates:normal;font-variant-caps:normal;font-variant-east-asian:normal;font-variant-ligatures:normal;font-variant-numeric:normal;font-variant-position:normal;font-variation-settings:normal;inline-size:0;isolation:auto;mix-blend-mode:normal;shape-margin:0;shape-padding:0;text-decoration-color:#000;text-decoration-line:none;text-decoration-style:solid;text-indent:0;text-orientation:mixed;text-transform:none;white-space:normal" transform="scale(3.7796)"/><path d="M4.31 1.058c-1.866 0-3.375 1.539-3.375 3.44v8.467c0 1.9 1.57 3.439 3.435 3.439h8.2c1.866 0 3.427-1.538 3.427-3.44V4.498c0-1.9-1.51-3.439-3.375-3.439h-.097c1.794.087 3.214 1.582 3.214 3.432v7.937c0 1.906-1.506 3.44-3.377 3.44h-7.79c-1.871 0-3.377-1.534-3.377-3.44V4.49c0-1.85 1.42-3.345 3.214-3.432z" enable-background="accumulate" opacity=".03" style="font-feature-settings:normal;font-variant-alternates:normal;font-variant-caps:normal;font-variant-east-asian:normal;font-variant-ligatures:normal;font-variant-numeric:normal;font-variant-position:normal;font-variation-settings:normal;inline-size:0;isolation:auto;mix-blend-mode:normal;shape-margin:0;shape-padding:0;text-decoration-color:#000;text-decoration-line:none;text-decoration-style:solid;text-indent:0;text-orientation:mixed;text-transform:none;white-space:normal" transform="scale(3.7796)"/><path d="M4 46.969V49c0 6.648 5.896 12 12.544 12h30.961C54.153 61 60 55.648 60 49v-1.992a12.972 12.972 0 0 1-13 12.963H17.002A12.973 12.973 0 0 1 4 46.969z" enable-background="accumulate" opacity=".03" style="font-feature-settings:normal;font-variant-alternates:normal;font-variant-caps:normal;font-variant-east-asian:normal;font-variant-ligatures:normal;font-variant-numeric:normal;font-variant-position:normal;font-variation-settings:normal;inline-size:0;isolation:auto;mix-blend-mode:normal;shape-margin:0;shape-padding:0;text-decoration-color:#000;text-decoration-line:none;text-decoration-style:solid;text-indent:0;text-orientation:mixed;text-transform:none;white-space:normal"/><path d="M1.058 11.906v.592c0 1.939 1.573 3.5 3.332 3.5h8.16c1.76 0 3.325-1.561 3.325-3.5v-.58c-.006 2.095-1.537 3.78-3.44 3.78H4.498c-1.905 0-3.44-1.692-3.44-3.792z" enable-background="accumulate" opacity=".05" style="font-feature-settings:normal;font-variant-alternates:normal;font-variant-caps:normal;font-variant-east-asian:normal;font-variant-ligatures:normal;font-variant-numeric:normal;font-variant-position:normal;font-variation-settings:normal;inline-size:0;isolation:auto;mix-blend-mode:normal;shape-margin:0;shape-padding:0;text-decoration-color:#000;text-decoration-line:none;text-decoration-style:solid;text-indent:0;text-orientation:mixed;text-transform:none;white-space:normal" transform="scale(3.7796)"/></g><rect x="4" y="4" width="56" height="56" rx="13.002" ry="13.002" fill="url(#a)"/><path d="M31.924 13c-1.35 0-2.212.992-2.298 2.302v2.67c.122 1.198 1.145 2.154 2.374 2.154a2.423 2.423 0 0 0 .889-.153 2.428 2.428 0 0 0 1.48-2.001v-2.598A2.414 2.414 0 0 0 31.925 13zm-4.6 5.564a14.844 14.844 0 0 0-4.308 2.45 4.398 4.398 0 0 1 1.338 1.481c.013.018-.01.059 0 .077a4.259 4.259 0 0 1 .372.893c.01.022 0 .049 0 .071a4.546 4.546 0 0 1 .077 1.93c-.059.287-.189.556-.297.817a4.259 4.259 0 0 1-3.935 2.67 3.926 3.926 0 0 1-2.226-.669c-.094.27-.238.53-.296.817v.076c-.09.44-.18.88-.224 1.333v.076c-.045.458-.072.943-.072 1.41v.147c0 .445.031.907.072 1.338v.148c.049.426.134.843.224 1.26.08.414.18.795.296 1.19a5.923 5.923 0 0 1 2.522-.745 3.571 3.571 0 0 1 2.302.673 3.944 3.944 0 0 1 1.41 1.849 4.631 4.631 0 0 1 .295 1.705c0 1.207-.987 2.791-1.705 3.568.292.224.574.457.889.664.376.251.718.53 1.112.745.566.305 1.176.583 1.782.816.117.045.247.054.372.072a2.513 2.513 0 0 1-.076-.52c0-1.885 2.127-3.41 4.752-3.41 2.621 0 4.748 1.525 4.748 3.41 0 .17-.045.359-.076.52a14.255 14.255 0 0 0 2.077-.888c.508-.27.943-.57 1.414-.893.144-.1.305-.189.444-.297.112-.08.189-.206.296-.296a4.59 4.59 0 0 1-.816-.816 3.895 3.895 0 0 1-.817-1.782 5.093 5.093 0 0 1-.072-.888c0-.58.13-1.145.296-1.634.005-.022-.009-.054 0-.076a3.68 3.68 0 0 1 .296-.664 3.89 3.89 0 0 1 .45-.597c.174-.206.376-.355.592-.516a3.635 3.635 0 0 1 1.332-.673 4.357 4.357 0 0 1 .817-.144c.669-.04 1.795.229 2.67.74.108-.372.224-.726.3-1.112.086-.418.171-.835.225-1.261 0-.05-.009-.099 0-.148a14.943 14.943 0 0 0 0-2.971 14.75 14.75 0 0 0-.224-1.333c-.01-.022 0-.054 0-.076-.068-.314-.193-.597-.3-.889a3.922 3.922 0 0 1-2.227.669 4.232 4.232 0 0 1-3.042-1.261 4.51 4.51 0 0 1-.516-.673 4.25 4.25 0 0 1-.225-4.452 4.25 4.25 0 0 1 .52-.812 4.532 4.532 0 0 1 .741-.673 14.18 14.18 0 0 0-4.227-2.446c.032.166.072.35.072.52 0 1.886-2.127 3.411-4.748 3.411-1.642 0-3.078-.574-3.935-1.48a3.41 3.41 0 0 1-.445-.593 2.625 2.625 0 0 1-.368-1.337c0-.17.04-.36.072-.52zm-10.317 1.634a2.473 2.473 0 0 0-1.48 1.113 2.423 2.423 0 0 0 .74 3.338l1.93 1.19.74.444a2.917 2.917 0 0 0 .965.224 2.84 2.84 0 0 0 1.858-.745 2.333 2.333 0 0 0 .74-1.705 2.477 2.477 0 0 0-.817-1.858l-.888-.516-2.006-1.19a2.307 2.307 0 0 0-1.782-.295zm29.092 0a2.316 2.316 0 0 0-.893.296l-2.001 1.19-.893.52c-.027.018-.045.045-.072.072a2.11 2.11 0 0 0-.745 1.705 2.333 2.333 0 0 0 .745 1.705 2.836 2.836 0 0 0 2.818.592l.74-.44 1.93-1.189a2.423 2.423 0 0 0 .745-3.338 2.356 2.356 0 0 0-2.378-1.113zM32 27.248a4.75 4.75 0 1 1 0 9.5c-1.314 0-2.481-.553-3.338-1.414-.216-.211-.427-.413-.597-.664a4.784 4.784 0 0 1-.817-2.675c0-.327.014-.655.077-.965.444-2.162 2.378-3.782 4.675-3.782zm0 2.378c-.987 0-1.795.628-2.154 1.48a2.23 2.23 0 0 0-.224.89A2.374 2.374 0 1 0 32 29.62zm-12.098 7.938c-.552.058-.7.198-.964.296l-.516.296-1.93 1.185a2.423 2.423 0 0 0-.745 3.343 2.446 2.446 0 0 0 3.339.812l1.93-1.184.672-.449a2.755 2.755 0 0 0 .736-1.185 1.485 1.485 0 0 0 .077-.448 2.863 2.863 0 0 0-.74-1.854 2.603 2.603 0 0 0-.818-.664 2.064 2.064 0 0 0-1.04-.148zm24.268.148a2.53 2.53 0 0 0-2.526 2.522c0 .65.184 1.122.597 1.557l.74.52 1.93 1.185a2.446 2.446 0 0 0 3.338-.812 2.423 2.423 0 0 0-.74-3.343l-1.93-1.185c-.17-.098-.332-.21-.52-.296a2.755 2.755 0 0 0-.889-.148zM32 43.87a2.446 2.446 0 0 0-.893.148 3.092 3.092 0 0 0-.816.52 2.199 2.199 0 0 0-.813 1.481v2.608c0 1.31 1.095 2.373 2.446 2.373a2.414 2.414 0 0 0 2.45-2.378v-2.594a2.41 2.41 0 0 0-2.378-2.154z" filter="url(#b)" opacity=".75"/><path d="M31.924 13c-1.35 0-2.212.992-2.298 2.302v2.67c.122 1.198 1.145 2.154 2.374 2.154a2.423 2.423 0 0 0 .889-.153 2.428 2.428 0 0 0 1.48-2.001v-2.598A2.414 2.414 0 0 0 31.925 13zm-4.6 5.564a14.844 14.844 0 0 0-4.308 2.45 4.398 4.398 0 0 1 1.338 1.481c.013.018-.01.059 0 .077a4.259 4.259 0 0 1 .372.893c.01.022 0 .049 0 .071a4.546 4.546 0 0 1 .077 1.93c-.059.287-.189.556-.297.817a4.259 4.259 0 0 1-3.935 2.67 3.926 3.926 0 0 1-2.226-.669c-.094.27-.238.53-.296.817v.076c-.09.44-.18.88-.224 1.333v.076c-.045.458-.072.943-.072 1.41v.147c0 .445.031.907.072 1.338v.148c.049.426.134.843.224 1.26.08.414.18.795.296 1.19a5.923 5.923 0 0 1 2.522-.745 3.571 3.571 0 0 1 2.302.673 3.944 3.944 0 0 1 1.41 1.849 4.631 4.631 0 0 1 .295 1.705c0 1.207-.987 2.791-1.705 3.568.292.224.574.457.889.664.376.251.718.53 1.112.745.566.305 1.176.583 1.782.816.117.045.247.054.372.072a2.513 2.513 0 0 1-.076-.52c0-1.885 2.127-3.41 4.752-3.41 2.621 0 4.748 1.525 4.748 3.41 0 .17-.045.359-.076.52a14.255 14.255 0 0 0 2.077-.888c.508-.27.943-.57 1.414-.893.144-.1.305-.189.444-.297.112-.08.189-.206.296-.296a4.59 4.59 0 0 1-.816-.816 3.895 3.895 0 0 1-.817-1.782 5.093 5.093 0 0 1-.072-.888c0-.58.13-1.145.296-1.634.005-.022-.009-.054 0-.076a3.68 3.68 0 0 1 .296-.664 3.89 3.89 0 0 1 .45-.597c.174-.206.376-.355.592-.516a3.635 3.635 0 0 1 1.332-.673 4.357 4.357 0 0 1 .817-.144c.669-.04 1.795.229 2.67.74.108-.372.224-.726.3-1.112.086-.418.171-.835.225-1.261 0-.05-.009-.099 0-.148a14.943 14.943 0 0 0 0-2.971 14.75 14.75 0 0 0-.224-1.333c-.01-.022 0-.054 0-.076-.068-.314-.193-.597-.3-.889a3.922 3.922 0 0 1-2.227.669 4.232 4.232 0 0 1-3.042-1.261 4.51 4.51 0 0 1-.516-.673 4.25 4.25 0 0 1-.225-4.452 4.25 4.25 0 0 1 .52-.812 4.532 4.532 0 0 1 .741-.673 14.18 14.18 0 0 0-4.227-2.446c.032.166.072.35.072.52 0 1.886-2.127 3.411-4.748 3.411-1.642 0-3.078-.574-3.935-1.48a3.41 3.41 0 0 1-.445-.593 2.625 2.625 0 0 1-.368-1.337c0-.17.04-.36.072-.52zm-10.317 1.634a2.473 2.473 0 0 0-1.48 1.113 2.423 2.423 0 0 0 .74 3.338l1.93 1.19.74.444a2.917 2.917 0 0 0 .965.224 2.84 2.84 0 0 0 1.858-.745 2.333 2.333 0 0 0 .74-1.705 2.477 2.477 0 0 0-.817-1.858l-.888-.516-2.006-1.19a2.307 2.307 0 0 0-1.782-.295zm29.092 0a2.316 2.316 0 0 0-.893.296l-2.001 1.19-.893.52c-.027.018-.045.045-.072.072a2.11 2.11 0 0 0-.745 1.705 2.333 2.333 0 0 0 .745 1.705 2.836 2.836 0 0 0 2.818.592l.74-.44 1.93-1.189a2.423 2.423 0 0 0 .745-3.338 2.356 2.356 0 0 0-2.378-1.113zM32 27.248a4.75 4.75 0 1 1 0 9.5c-1.314 0-2.481-.553-3.338-1.414-.216-.211-.427-.413-.597-.664a4.784 4.784 0 0 1-.817-2.675c0-.327.014-.655.077-.965.444-2.162 2.378-3.782 4.675-3.782zm0 2.378c-.987 0-1.795.628-2.154 1.48a2.23 2.23 0 0 0-.224.89A2.374 2.374 0 1 0 32 29.62zm-12.098 7.938c-.552.058-.7.198-.964.296l-.516.296-1.93 1.185a2.423 2.423 0 0 0-.745 3.343 2.446 2.446 0 0 0 3.339.812l1.93-1.184.672-.449a2.755 2.755 0 0 0 .736-1.185 1.485 1.485 0 0 0 .077-.448 2.863 2.863 0 0 0-.74-1.854 2.603 2.603 0 0 0-.818-.664 2.064 2.064 0 0 0-1.04-.148zm24.268.148a2.53 2.53 0 0 0-2.526 2.522c0 .65.184 1.122.597 1.557l.74.52 1.93 1.185a2.446 2.446 0 0 0 3.338-.812 2.423 2.423 0 0 0-.74-3.343l-1.93-1.185c-.17-.098-.332-.21-.52-.296a2.755 2.755 0 0 0-.889-.148zM32 43.87a2.446 2.446 0 0 0-.893.148 3.092 3.092 0 0 0-.816.52 2.199 2.199 0 0 0-.813 1.481v2.608c0 1.31 1.095 2.373 2.446 2.373a2.414 2.414 0 0 0 2.45-2.378v-2.594a2.41 2.41 0 0 0-2.378-2.154z" fill="url(#c)"/></svg>