<svg width="64" height="64" version="1.1" viewBox="0 0 16.933 16.933" xmlns="http://www.w3.org/2000/svg">
 <defs>
  <linearGradient id="linearGradient1104" x1="7.9373" x2="7.9373" y1="14.552" y2="7.9373" gradientTransform="scale(3.7796)" gradientUnits="userSpaceOnUse">
   <stop stop-color="#3a7af0" offset="0"/>
   <stop stop-color="#43adf1" offset="1"/>
  </linearGradient>
  <linearGradient id="linearGradient1135" x1="7.9373" x2="7.9373" y1="8.2019" y2="1.5875" gradientTransform="scale(3.7796)" gradientUnits="userSpaceOnUse">
   <stop stop-color="#28b162" offset="0"/>
   <stop stop-color="#35e981" offset="1"/>
  </linearGradient>
  <linearGradient id="linearGradient1144" x1="30" x2="30" y1="40" y2="7.931" gradientTransform="translate(-84.56 11.573)" gradientUnits="userSpaceOnUse">
   <stop stop-color="#e1e7f2" offset="0"/>
   <stop stop-color="#fff" offset="1"/>
  </linearGradient>
  <radialGradient id="radialGradient1042" cx="12.171" cy="12.171" r="4.7624" gradientUnits="userSpaceOnUse">
   <stop offset="0"/>
   <stop stop-opacity="0" offset="1"/>
  </radialGradient>
  <linearGradient id="linearGradient1179" x1="99.553" x2="99.553" y1="-54.888" y2="-60.754" gradientTransform="matrix(1.2449 0 0 1.2449 -111.16 84.206)" gradientUnits="userSpaceOnUse">
   <stop stop-color="#17191d" offset="0"/>
   <stop stop-color="#535961" offset="1"/>
  </linearGradient>
  <linearGradient id="linearGradient1194" x1="191.25" x2="191.25" y1="-59.846" y2="-413.45" gradientUnits="userSpaceOnUse">
   <stop stop-color="#cbcfd7" offset="0"/>
   <stop stop-color="#fff" stop-opacity=".99667" offset="1"/>
  </linearGradient>
  <filter id="filter1021" x="-.13094" y="-.091899" width="1.2619" height="1.1838" color-interpolation-filters="sRGB">
   <feGaussianBlur stdDeviation="0.1732153"/>
  </filter>
 </defs>
 <g shape-rendering="auto">
  <path d="m4.3693 0.52916c-2.1142 0-3.8402 1.7835-3.8402 3.9682v8.4675c0 2.1846 1.726 3.9682 3.8402 3.9682h8.1944c2.1142 0 3.8402-1.7835 3.8402-3.9682v-8.4675c0-2.1846-1.726-3.9682-3.8402-3.9682zm0.25704 0.52089h7.6808c1.8443 0 3.3291 1.5342 3.3291 3.44v7.9368c0 1.9058-1.4847 3.44-3.3291 3.44h-7.6808c-1.8443 0-3.3291-1.5342-3.3291-3.44v-7.9368c0-1.9058 1.4847-3.44 3.3291-3.44z" color="#000000" color-rendering="auto" dominant-baseline="auto" image-rendering="auto" opacity=".01" solid-color="#000000" stop-color="#000000" style="font-feature-settings:normal;font-variant-alternates:normal;font-variant-caps:normal;font-variant-east-asian:normal;font-variant-ligatures:normal;font-variant-numeric:normal;font-variant-position:normal;font-variation-settings:normal;inline-size:0;isolation:auto;mix-blend-mode:normal;shape-margin:0;shape-padding:0;text-decoration-color:#000000;text-decoration-line:none;text-decoration-style:solid;text-indent:0;text-orientation:mixed;text-transform:none;white-space:normal"/>
  <path d="m4.3587 0.79373c-1.9668 0-3.5639 1.6528-3.5639 3.6876v8.4996c0 2.0348 1.5971 3.6876 3.5639 3.6876h8.2162c1.9668 0 3.5644-1.6528 3.5644-3.6876v-8.4996c0-2.0348-1.5976-3.6876-3.5644-3.6876zm0.27222 0.25631h7.6718c1.8422 0 3.3251 1.5342 3.3251 3.44v7.9368c0 1.9058-1.483 3.44-3.3251 3.44h-7.6718c-1.8422 0-3.3251-1.5342-3.3251-3.44v-7.9368c0-1.9058 1.483-3.44 3.3251-3.44z" color="#000000" color-rendering="auto" dominant-baseline="auto" image-rendering="auto" opacity=".01" solid-color="#000000" stop-color="#000000" style="font-feature-settings:normal;font-variant-alternates:normal;font-variant-caps:normal;font-variant-east-asian:normal;font-variant-ligatures:normal;font-variant-numeric:normal;font-variant-position:normal;font-variation-settings:normal;inline-size:0;isolation:auto;mix-blend-mode:normal;shape-margin:0;shape-padding:0;text-decoration-color:#000000;text-decoration-line:none;text-decoration-style:solid;text-indent:0;text-orientation:mixed;text-transform:none;white-space:normal"/>
  <path d="m4.3097 1.0583c-1.8657 0-3.3751 1.5383-3.3751 3.439v8.4675c0 1.9007 1.57 3.439 3.4357 3.439h8.1996c1.8657 0 3.4274-1.5383 3.4274-3.439v-8.4675c0-1.9007-1.51-3.439-3.3756-3.439h-0.09688c1.794 0.086515 3.2138 1.5819 3.2138 3.4318v7.9368c0 1.9058-1.5059 3.44-3.3766 3.44h-7.7905c-1.8707 0-3.3766-1.5342-3.3766-3.44v-7.9368c0-1.8498 1.4199-3.3451 3.2138-3.4318z" color="#000000" color-rendering="auto" dominant-baseline="auto" image-rendering="auto" opacity=".03" solid-color="#000000" stop-color="#000000" style="font-feature-settings:normal;font-variant-alternates:normal;font-variant-caps:normal;font-variant-east-asian:normal;font-variant-ligatures:normal;font-variant-numeric:normal;font-variant-position:normal;font-variation-settings:normal;inline-size:0;isolation:auto;mix-blend-mode:normal;shape-margin:0;shape-padding:0;text-decoration-color:#000000;text-decoration-line:none;text-decoration-style:solid;text-indent:0;text-orientation:mixed;text-transform:none;white-space:normal"/>
  <path transform="scale(.26458)" d="m4 46.969v2.0312c0 6.6479 5.8957 12 12.544 12h30.961c6.6479 0 12.495-5.3521 12.495-12v-1.9922c-0.02117 7.1849-5.81 12.963-13 12.963h-29.998c-7.2032 0-13.002-5.7987-13.002-13.002z" color="#000000" color-rendering="auto" dominant-baseline="auto" image-rendering="auto" opacity=".03" solid-color="#000000" stop-color="#000000" style="font-feature-settings:normal;font-variant-alternates:normal;font-variant-caps:normal;font-variant-east-asian:normal;font-variant-ligatures:normal;font-variant-numeric:normal;font-variant-position:normal;font-variation-settings:normal;inline-size:0;isolation:auto;mix-blend-mode:normal;shape-margin:0;shape-padding:0;text-decoration-color:#000000;text-decoration-line:none;text-decoration-style:solid;text-indent:0;text-orientation:mixed;text-transform:none;white-space:normal"/>
  <path d="m1.0583 11.906v0.59234c0 1.9386 1.5729 3.4993 3.3318 3.4993h8.1603c1.7589 0 3.3243-1.5608 3.3243-3.4993v-0.58095c-0.0056 2.0952-1.5372 3.7801-3.4395 3.7801h-7.9368c-1.9058 0-3.44-1.691-3.44-3.7915z" color="#000000" color-rendering="auto" dominant-baseline="auto" image-rendering="auto" opacity=".05" solid-color="#000000" stop-color="#000000" style="font-feature-settings:normal;font-variant-alternates:normal;font-variant-caps:normal;font-variant-east-asian:normal;font-variant-ligatures:normal;font-variant-numeric:normal;font-variant-position:normal;font-variation-settings:normal;inline-size:0;isolation:auto;mix-blend-mode:normal;shape-margin:0;shape-padding:0;text-decoration-color:#000000;text-decoration-line:none;text-decoration-style:solid;text-indent:0;text-orientation:mixed;text-transform:none;white-space:normal"/>
 </g>
 <path transform="scale(.26458)" d="m19 4 21.775 21.775 19.225-5.1523v-3.6211c0-7.2029-5.799-13.002-13.002-13.002h-27.998zm-3.1797 0.058594c-0.12792 0.011432-0.25405 0.027889-0.38086 0.042969 0.12675-0.01515 0.25298-0.03148 0.38086-0.042969zm-1.2129 0.16992c-0.12015 0.022221-0.24043 0.04288-0.35938 0.068359 0.1188-0.025562 0.23937-0.046058 0.35938-0.068359zm-1.4219 0.33789c-0.10608 0.032314-0.20761 0.074451-0.3125 0.10938 0.10476-0.035005 0.20656-0.076975 0.3125-0.10938zm-1.0645 0.38477c-0.14822 0.05979-0.29403 0.12248-0.43945 0.1875 0.14506-0.065017 0.2916-0.12768 0.43945-0.1875zm-0.98242 0.44922c-0.16307 0.08226-0.32732 0.16117-0.48633 0.25 0.15878-0.088798 0.32351-0.16773 0.48633-0.25zm-1.3047 0.74609c-3.5184 2.322-5.834 6.3067-5.834 10.855v18.627l27.854-7.4629-22.02-22.02zm50.166 22.76-56 15.006v3.0859c0 7.2029 5.799 13.002 13.002 13.002h29.996c7.2029 0 13.002-5.799 13.002-13.002v-18.092z" fill="url(#linearGradient1104)" stroke-width="3.7794"/>
 <path transform="scale(.26458)" d="m19 4 21.775 21.775 19.225-5.1523v-3.6211c0-7.2029-5.799-13.002-13.002-13.002h-27.998zm-3.1797 0.058594c-0.12792 0.011432-0.25405 0.027888-0.38086 0.042969 0.12675-0.01515 0.25298-0.03148 0.38086-0.042969zm-1.2129 0.16992c-0.12015 0.022222-0.24043 0.042879-0.35938 0.068359 0.1188-0.025562 0.23937-0.046058 0.35938-0.068359zm-1.4219 0.33789c-0.10608 0.032316-0.20761 0.07445-0.3125 0.10938 0.10476-0.035005 0.20656-0.076975 0.3125-0.10938zm-1.0645 0.38477c-0.14822 0.059792-0.29403 0.12247-0.43945 0.1875 0.14506-0.065017 0.2916-0.12768 0.43945-0.1875zm-0.98242 0.44922c-0.16308 0.082263-0.32732 0.16116-0.48633 0.25 0.15878-0.088798 0.32351-0.16773 0.48633-0.25zm-1.3047 0.74609c-3.5185 2.322-5.834 6.3067-5.834 10.855v18.627l27.854-7.4629-22.02-22.02z" fill="url(#linearGradient1135)" stroke-width="3.7794"/>
 <path transform="scale(.26458)" d="m17.002 4c-2.6542 0-5.115 0.79161-7.168 2.1465l22.02 22.02-27.854 7.4629v8.2832l56-15.006v-8.2832l-19.225 5.1523-21.775-21.775h-1.998z" fill="url(#linearGradient1144)"/>
 <circle cx="12.171" cy="12.171" r="4.7624" fill="url(#radialGradient1042)" stroke-width="1.125"/>
 <circle cx="12.171" cy="12.169" r="4.2333" fill="url(#linearGradient1179)"/>
 <path transform="matrix(0 0 0 1.1838 12.204 -2.2615)" d="m12.204 10.042c-0.8767 0-1.5874 0.71075-1.5874 1.5874 0 0.06711 0.0054 0.13252 0.01359 0.19736 0.13565 1.24 1.4708 2.6692 1.4708 2.6692 0.02379 0.02662 0.04672 0.04304 0.06881 0.05493l0.0011 5.68e-4 0.04446 0.01416 0.04446-0.01416 0.0011-5.68e-4c0.02209-0.0119 0.04503-0.02916 0.06881-0.05493 0 0 1.3159-1.4317 1.4484-2.6719 0.0079-0.06399 0.01331-0.12884 0.01331-0.19482-2.89e-4 -0.8764-0.71075-1.5871-1.5874-1.5871zm0 2.6086c-0.56294 0-1.0211-0.45816-1.0211-1.0211 0-0.56295 0.45816-1.0211 1.0211-1.0211s1.0208 0.45816 1.0208 1.0211c0 0.56295-0.45788 1.0211-1.0208 1.0211z" filter="url(#filter1021)" opacity=".5" stroke-width=".007107"/>
 <g transform="matrix(.0074823 0 0 .0074823 10.74 14.47)" fill="#fff" stroke-width=".94984">
  <path d="m191.3-627.17c-117.17 0-212.16 94.991-212.16 212.16 0 8.9696 0.71956 17.711 1.8163 26.377 18.129 165.72 196.57 356.73 196.57 356.73 3.1795 3.558 6.2445 5.7528 9.1962 7.3413l0.15188 0.07594 5.942 1.8923 5.942-1.8923 0.15188-0.07594c2.9517-1.5898 6.018-3.8978 9.1962-7.3413 0 0 175.87-191.34 193.58-357.1 1.0594-8.5526 1.779-17.22 1.779-26.038-0.0386-117.13-94.991-212.12-212.16-212.12zm0 348.63c-75.236 0-136.47-61.233-136.47-136.47s61.233-136.47 136.47-136.47 136.43 61.233 136.43 136.47-61.195 136.47-136.43 136.47z" fill="url(#linearGradient1194)" stroke-width=".94984"/>
 </g>
</svg>
