<svg xmlns="http://www.w3.org/2000/svg" width="64" height="64"><defs><linearGradient id="c" x1="100.01" x2="100.01" y1="15.314" y2="30.966" gradientUnits="userSpaceOnUse"><stop offset="0" stop-color="#268bcf"/><stop offset="1" stop-color="#18bfe8"/></linearGradient><linearGradient id="f" x1="107.85" x2="107.85" y1="16.618" y2="45.309" gradientUnits="userSpaceOnUse"><stop offset="0" stop-color="#40a800"/><stop offset="1" stop-color="#7cd000"/></linearGradient><linearGradient id="e" x1="92.191" x2="92.191" y1="16.618" y2="45.309" gradientUnits="userSpaceOnUse"><stop offset="0" stop-color="#ec1f4b"/><stop offset="1" stop-color="#e94545"/></linearGradient><linearGradient id="d" x1="100.01" x2="100.01" y1="30.971" y2="46.618" gradientUnits="userSpaceOnUse"><stop offset="0" stop-color="#6534d2"/><stop offset="1" stop-color="#a553e5"/></linearGradient><linearGradient id="a" x1="7.937" x2="7.937" y1="15.081" y2="1.852" gradientTransform="translate(0 .032)scale(3.7795)" gradientUnits="userSpaceOnUse"><stop offset="0" stop-color="#292929"/><stop offset="1" stop-color="#4d4d4d"/></linearGradient><filter id="b" width="1.12" height="1.12" x="-.06" y="-.06" color-interpolation-filters="sRGB"><feGaussianBlur stdDeviation=".783"/></filter></defs><g color="#000"><path d="M4.37.53C2.254.53.53 2.312.53 4.496v8.468c0 2.184 1.725 3.968 3.84 3.968h8.194c2.114 0 3.84-1.783 3.84-3.968V4.497c0-2.184-1.726-3.968-3.84-3.968zm.256.52h7.681c1.844 0 3.33 1.534 3.33 3.44v7.937c0 1.906-1.485 3.44-3.33 3.44h-7.68c-1.845 0-3.33-1.534-3.33-3.44V4.49c0-1.906 1.485-3.44 3.33-3.44z" opacity=".01" style="font-feature-settings:normal;font-variant-alternates:normal;font-variant-caps:normal;font-variant-east-asian:normal;font-variant-ligatures:normal;font-variant-numeric:normal;font-variant-position:normal;font-variation-settings:normal;inline-size:0;isolation:auto;mix-blend-mode:normal;shape-margin:0;shape-padding:0;text-decoration-color:#000;text-decoration-line:none;text-decoration-style:solid;text-indent:0;text-orientation:mixed;text-transform:none;white-space:normal" transform="scale(3.7796)"/><path d="M4.359.794C2.392.794.795 2.447.795 4.48v8.5c0 2.035 1.597 3.688 3.564 3.688h8.216c1.967 0 3.564-1.653 3.564-3.688v-8.5c0-2.034-1.597-3.687-3.564-3.687zm.272.256h7.672c1.842 0 3.325 1.534 3.325 3.44v7.937c0 1.906-1.483 3.44-3.325 3.44H4.63c-1.842 0-3.325-1.534-3.325-3.44V4.49c0-1.906 1.483-3.44 3.325-3.44z" opacity=".01" style="font-feature-settings:normal;font-variant-alternates:normal;font-variant-caps:normal;font-variant-east-asian:normal;font-variant-ligatures:normal;font-variant-numeric:normal;font-variant-position:normal;font-variation-settings:normal;inline-size:0;isolation:auto;mix-blend-mode:normal;shape-margin:0;shape-padding:0;text-decoration-color:#000;text-decoration-line:none;text-decoration-style:solid;text-indent:0;text-orientation:mixed;text-transform:none;white-space:normal" transform="scale(3.7796)"/><path d="M4.31 1.058c-1.866 0-3.375 1.539-3.375 3.44v8.467c0 1.9 1.57 3.439 3.435 3.439h8.2c1.866 0 3.427-1.538 3.427-3.44V4.498c0-1.9-1.51-3.439-3.375-3.439h-.097c1.794.087 3.214 1.582 3.214 3.432v7.937c0 1.906-1.506 3.44-3.377 3.44h-7.79c-1.871 0-3.377-1.534-3.377-3.44V4.49c0-1.85 1.42-3.345 3.214-3.432z" opacity=".03" style="font-feature-settings:normal;font-variant-alternates:normal;font-variant-caps:normal;font-variant-east-asian:normal;font-variant-ligatures:normal;font-variant-numeric:normal;font-variant-position:normal;font-variation-settings:normal;inline-size:0;isolation:auto;mix-blend-mode:normal;shape-margin:0;shape-padding:0;text-decoration-color:#000;text-decoration-line:none;text-decoration-style:solid;text-indent:0;text-orientation:mixed;text-transform:none;white-space:normal" transform="scale(3.7796)"/><path d="M4 46.969V49c0 6.648 5.896 12 12.544 12h30.961C54.153 61 60 55.648 60 49v-1.992a12.97 12.97 0 0 1-13 12.963H17.002A12.973 12.973 0 0 1 4 46.969" opacity=".03" style="font-feature-settings:normal;font-variant-alternates:normal;font-variant-caps:normal;font-variant-east-asian:normal;font-variant-ligatures:normal;font-variant-numeric:normal;font-variant-position:normal;font-variation-settings:normal;inline-size:0;isolation:auto;mix-blend-mode:normal;shape-margin:0;shape-padding:0;text-decoration-color:#000;text-decoration-line:none;text-decoration-style:solid;text-indent:0;text-orientation:mixed;text-transform:none;white-space:normal"/><path d="M1.058 11.906v.592c0 1.939 1.573 3.5 3.332 3.5h8.16c1.76 0 3.325-1.561 3.325-3.5v-.58c-.006 2.095-1.537 3.78-3.44 3.78H4.498c-1.905 0-3.44-1.692-3.44-3.792" opacity=".05" style="font-feature-settings:normal;font-variant-alternates:normal;font-variant-caps:normal;font-variant-east-asian:normal;font-variant-ligatures:normal;font-variant-numeric:normal;font-variant-position:normal;font-variation-settings:normal;inline-size:0;isolation:auto;mix-blend-mode:normal;shape-margin:0;shape-padding:0;text-decoration-color:#000;text-decoration-line:none;text-decoration-style:solid;text-indent:0;text-orientation:mixed;text-transform:none;white-space:normal" transform="scale(3.7796)"/></g><rect width="56" height="56" x="4" y="4" fill="url(#a)" rx="13.002" ry="13.002"/><g filter="url(#b)" opacity=".5" transform="translate(-68.017 1.034)"><path d="m86.973 15.314-1.304 1.304 14.348 14.348 14.343-14.348-1.305-1.304m.005 31.304 1.304-1.304-14.343-14.343-14.348 14.343 1.305 1.304"/><path d="m84.365 44.004 1.304 1.304 14.348-14.343L85.67 16.617l-1.304 1.305m31.304.001-1.304-1.304-14.343 14.348 14.343 14.343 1.304-1.305"/></g><path fill="url(#c)" d="m86.973 15.314-1.304 1.304 14.348 14.348 14.343-14.348-1.305-1.304" transform="translate(-68.017 1.034)"/><path fill="url(#d)" d="m113.06 46.618 1.304-1.304-14.343-14.343-14.348 14.343 1.305 1.304" transform="translate(-68.017 1.034)"/><path fill="url(#e)" d="m84.365 44.004 1.304 1.304 14.348-14.343L85.67 16.617l-1.304 1.305" transform="translate(-68.017 1.034)"/><path fill="url(#f)" d="m115.67 17.923-1.304-1.304-14.343 14.348 14.343 14.343 1.304-1.305" transform="translate(-68.017 1.034)"/></svg>