<svg width="32" height="32" xmlns="http://www.w3.org/2000/svg"><defs><linearGradient id="b" x1="10.434" x2="10.434" y1="26.717" y2="4.859" gradientUnits="userSpaceOnUse"><stop stop-color="#b90000" offset="0"/><stop stop-color="#f33" offset="1"/></linearGradient><filter id="a" x="-.048" y="-.048" width="1.096" height="1.096" color-interpolation-filters="sRGB"><feGaussianBlur stdDeviation=".56"/></filter></defs><rect x="2" y="3" width="28" height="28" rx="5" ry="5" color="#000" filter="url(#a)" opacity=".15"/><rect x="2" y="2" width="28" height="28" rx="5" ry="5" color="#000" fill="url(#b)"/><path d="m18.422 19.798-.262-.607-2.256-5.365a5.041 5.041 0 0 0-4.694-3.183c-2.833 0-5.13 2.398-5.13 5.359 0 2.957 2.297 5.357 5.13 5.357 1.976 0 3.692-1.167 4.549-2.876l.912 2.196c-1.294 1.647-3.262 2.697-5.461 2.697-3.901 0-7.062-3.3-7.062-7.374s3.16-7.378 7.062-7.378c2.943 0 5.32 1.64 6.528 4.55.09.227 1.277 3.121 2.312 5.584.64 1.524 1.185 2.537 2.958 2.599 1.738.062 2.934-1.042 2.934-2.442 0-1.366-.913-1.694-2.45-2.228-2.762-.95-4.19-1.905-4.19-4.194 0-2.231 1.454-3.72 3.818-3.72 1.537 0 2.651.714 3.422 2.14l-1.513.807c-.569-.83-1.195-1.16-1.995-1.16-1.109 0-1.898.806-1.898 1.878 0 1.522 1.303 1.75 3.124 2.373 2.453.834 3.592 1.788 3.592 4.166 0 2.499-2.052 4.319-4.732 4.315-2.47-.012-3.787-1.272-4.698-3.494" fill="#fff"/></svg>