<svg width="32" height="32" enable-background="new" version="1.0" xmlns="http://www.w3.org/2000/svg"><defs><linearGradient id="b" x1="14.361" x2="14.361" y1="27.368" y2="4.761" gradientUnits="userSpaceOnUse"><stop stop-color="#e41162" offset="0"/><stop stop-color="#ff4f93" offset="1"/></linearGradient><filter id="a" x="-.048" y="-.048" width="1.096" height="1.096" color-interpolation-filters="sRGB"><feGaussianBlur stdDeviation=".56"/></filter></defs><rect x="2" y="3" width="28" height="28" rx="5" ry="5" color="#000" enable-background="accumulate" filter="url(#a)" opacity=".15"/><rect x="2" y="2" width="28" height="28" rx="5" ry="5" color="#000" enable-background="accumulate" fill="url(#b)"/><path d="m21.277 9.148-.471 2.275a.593.593 0 0 1-.566.458h-4.092a.839.839 0 0 0-.834.834v.499c0 .457.376.834.834.834h3.46c.323 0 .592.31.525.646-.068.35-.431 2.127-.471 2.316a.574.574 0 0 1-.566.457H16.27c-.592.014-.713.027-1.063.458-.35.43-3.446 4.308-3.446 4.308-.027.04-.054.027-.054-.014V9.04c0-.31.256-.565.565-.565h8.494c.297 0 .593.296.512.673m.62-2.84H11.408c-1.44 0-1.871 1.09-1.871 1.777V24.75c0 .82.417 1.063.646 1.157.229.094.835.162 1.266-.269l5.061-5.896c.08-.094.121-.094.175-.094h3.15c1.346 0 1.602-.93 1.75-1.495.121-.47 1.508-7.202 1.939-9.329.323-1.642-.095-2.517-1.63-2.517" fill="#fff"/></svg>