<svg width="32" height="32" xmlns="http://www.w3.org/2000/svg" xmlns:xlink="http://www.w3.org/1999/xlink"><defs><radialGradient id="b" cx="10.255" cy="9.909" r="12.672" fx="9.725" gradientTransform="matrix(0 2.5253 -4.9716 0 66.264 -25.898)" gradientUnits="userSpaceOnUse"><stop stop-color="#6e95e3" offset="0"/><stop stop-color="#223459" offset="1"/></radialGradient><filter id="a" x="-.048" y="-.048" width="1.096" height="1.096" color-interpolation-filters="sRGB"><feGaussianBlur stdDeviation=".56"/></filter></defs><rect x="2" y="3" width="28" height="28" rx="5" ry="5" color="#000" filter="url(#a)" opacity=".15"/><rect x="2" y="2" width="28" height="28" rx="5" ry="5" color="#000" fill="url(#b)"/><g transform="translate(-.467 -.02)"><path d="M10.961 15.052c-3.589 0-6.531 2.942-6.531 6.531 0 3.59 2.942 6.531 6.531 6.531 3.59 0 6.531-2.942 6.531-6.53v-6.532zm0 3h3.531v3.531c0 1.966-1.565 3.531-3.531 3.531S7.43 23.55 7.43 21.584a3.512 3.512 0 0 1 3.531-3.532z" color="#000" opacity=".35" style="font-feature-settings:normal;font-variant-alternates:normal;font-variant-caps:normal;font-variant-east-asian:normal;font-variant-ligatures:normal;font-variant-numeric:normal;font-variant-position:normal;font-variation-settings:normal;inline-size:0;isolation:auto;mix-blend-mode:normal;shape-margin:0;shape-padding:0;text-decoration-color:#000;text-decoration-line:none;text-decoration-style:solid;text-indent:0;text-orientation:mixed;text-transform:none;white-space:normal"/><path d="M21 5c-3.59 0-6.533 2.942-6.533 6.531v6.531H21c3.589 0 6.531-2.942 6.531-6.53C27.531 7.941 24.59 5 21 5zm0 3a3.511 3.511 0 0 1 3.531 3.531A3.512 3.512 0 0 1 21 15.062h-3.533v-3.53A3.513 3.513 0 0 1 21 8z" color="#000" opacity=".35" style="font-feature-settings:normal;font-variant-alternates:normal;font-variant-caps:normal;font-variant-east-asian:normal;font-variant-ligatures:normal;font-variant-numeric:normal;font-variant-position:normal;font-variation-settings:normal;inline-size:0;isolation:auto;mix-blend-mode:normal;shape-margin:0;shape-padding:0;text-decoration-color:#000;text-decoration-line:none;text-decoration-style:solid;text-indent:0;text-orientation:mixed;text-transform:none;white-space:normal"/><path id="c" d="M17.531 15.02v6.556a6.57 6.57 0 0 1-6.57 6.571c-.551 0-.943-.062-1.452-.195-.743-.195-1.35-.804-1.35-1.513 0-.856.621-1.48 1.55-1.48.443 0 .603.085 1.251.085a3.469 3.469 0 0 0 3.469-3.462v-3.014a.49.49 0 0 0-.49-.489H11.66a1.526 1.526 0 0 1-1.535-1.528c0-.857.693-1.531 1.552-1.531" fill="#fff" shape-rendering="auto" stroke-width=".105"/><use transform="rotate(180 15.98 16.557)" width="1" height="1" fill="#fff" xlink:href="#c"/></g></svg>