<svg width="32" height="32" enable-background="new" version="1.0" xmlns="http://www.w3.org/2000/svg"><defs><linearGradient id="b" x1="15.078" x2="15.078" y1="27.844" y2="4.309" gradientUnits="userSpaceOnUse"><stop stop-color="#e9e3e2" offset="0"/><stop stop-color="#fff" offset="1"/></linearGradient><filter id="a" x="-.048" y="-.048" width="1.096" height="1.096" color-interpolation-filters="sRGB"><feGaussianBlur stdDeviation=".56"/></filter></defs><rect x="2" y="3" width="28" height="28" rx="5" ry="5" color="#000" enable-background="accumulate" filter="url(#a)" opacity=".15"/><rect x="2" y="2" width="28" height="28" rx="5" ry="5" color="#000" enable-background="accumulate" fill="url(#b)"/><path d="M25.496 15.731c0-.627-.058-1.24-.164-1.834h-9.135v3.668h5.528a5.833 5.833 0 0 1-2.122 3.104c-.056 1.764 1.209 2.207 2.853 2.27 1.88-1.774 3.04-4.346 3.04-7.208" fill="#3284ff"/><path d="M16.316 9.968c1.39 0 2.642.503 3.612 1.34l2.64-2.677a9.053 9.053 0 0 0-6.371-2.593c-3.721 0-7.039 2.186-8.654 5.367.215 2.38 1.803 2.29 3.241 2.471.829-2.278 3.03-3.908 5.532-3.908" fill="#ff3424"/><path d="M7.603 20.173c2.878.251 3.471-.841 3.126-2.486a5.8 5.8 0 0 1 .055-3.812l-3.241-2.47a9.528 9.528 0 0 0 .06 8.768" fill="#fb0"/><path d="m10.729 17.687-3.125 2.486c1.636 3.118 4.918 5.25 8.593 5.25 2.44 0 4.622-.94 6.26-2.484l-2.854-2.27a5.473 5.473 0 0 1-3.287 1.087c-2.56 0-4.805-1.707-5.587-4.069" fill="#26b14c"/></svg>