<svg xmlns="http://www.w3.org/2000/svg" width="32" height="32" enable-background="new" version="1.0"><defs><linearGradient id="b" x1="12.552" x2="12.552" y1="26.746" y2="5.066" gradientUnits="userSpaceOnUse"><stop offset="0" stop-color="#0076b6"/><stop offset="1" stop-color="#1dc5ff"/></linearGradient><filter id="a" width="1.096" height="1.096" x="-.048" y="-.048" color-interpolation-filters="sRGB"><feGaussianBlur stdDeviation=".56"/></filter></defs><rect width="28" height="28" x="2" y="3" color="#000" enable-background="accumulate" filter="url(#a)" opacity=".15" rx="5" ry="5"/><rect width="28" height="28" x="2" y="2" fill="url(#b)" color="#000" enable-background="accumulate" rx="5" ry="5"/><path fill="#fff" d="M16.016 11.154c-2.218 0-4.08 1.519-4.65 3.562-.496-1.093-1.59-1.867-2.86-1.867A3.166 3.166 0 0 0 5.356 16a3.165 3.165 0 0 0 3.15 3.152c1.27 0 2.363-.775 2.86-1.868.569 2.043 2.432 3.562 4.65 3.562 2.206 0 4.06-1.502 4.64-3.528.505 1.073 1.581 1.834 2.837 1.834A3.166 3.166 0 0 0 26.645 16a3.165 3.165 0 0 0-3.152-3.151c-1.255 0-2.333.76-2.837 1.833-.581-2.026-2.434-3.528-4.64-3.528m0 1.85A2.98 2.98 0 0 1 19.012 16a2.98 2.98 0 0 1-2.996 2.996A2.98 2.98 0 0 1 13.02 16a2.98 2.98 0 0 1 2.996-2.996m-7.51 1.694c.73 0 1.302.572 1.302 1.302s-.571 1.302-1.301 1.302S7.205 16.73 7.205 16s.572-1.302 1.302-1.302zm14.987 0c.73 0 1.302.572 1.302 1.302s-.572 1.302-1.302 1.302-1.301-.572-1.301-1.302.572-1.302 1.301-1.302" color="#000" style="isolation:auto;mix-blend-mode:normal;text-decoration-color:#000;text-decoration-line:none;text-decoration-style:solid;text-indent:0;text-transform:none;white-space:normal"/></svg>