<svg xmlns="http://www.w3.org/2000/svg" width="32" height="32" enable-background="new" version="1.0"><defs><filter id="a" width="1.096" height="1.096" x="-.048" y="-.048" color-interpolation-filters="sRGB"><feGaussianBlur stdDeviation=".56"/></filter><filter id="c" width="1.14" height="1.073" x="-.07" y="-.037" color-interpolation-filters="sRGB"><feGaussianBlur stdDeviation="1.28"/></filter><radialGradient id="b" cx="10.255" cy="9.909" r="12.672" fx="9.725" gradientTransform="matrix(0 2.5253 -4.9716 0 66.264 -25.898)" gradientUnits="userSpaceOnUse"><stop offset="0" stop-color="#5c96ff"/><stop offset="1" stop-color="#1e4ea4"/></radialGradient></defs><rect width="28" height="28" x="2" y="3" color="#000" enable-background="accumulate" filter="url(#a)" opacity=".15" rx="5" ry="5"/><rect width="28" height="28" x="2" y="2" fill="url(#b)" color="#000" enable-background="accumulate" rx="5" ry="5"/><g filter="url(#c)" opacity=".15" transform="translate(-1.925 -46.892)scale(.26923)"><path d="M88 364s-16 0-16 16v16H60v16h12v36h16v-36h14l2-16H88v-12c0-4 4-4 4-4h12v-16z" color="#000" style="text-decoration-line:none;text-indent:0;text-transform:none" transform="translate(0 -160)"/></g><path fill="#fff" d="M88 364s-16 0-16 16v16H60v16h12v36h16v-36h14l2-16H88v-12c0-4 4-4 4-4h12v-16z" color="#000" style="text-decoration-line:none;text-indent:0;text-transform:none" transform="translate(-1.23 -90.615)scale(.26923)"/></svg>