<svg xmlns="http://www.w3.org/2000/svg" width="64" height="64"><defs><linearGradient id="e" x1="45" x2="60.076" y1="19" y2="3.924" gradientTransform="matrix(.89283 0 0 -.89283 3.429 60.491)" gradientUnits="userSpaceOnUse"><stop offset="0" stop-color="#fff"/><stop offset="1" stop-color="#ffefcc"/></linearGradient><linearGradient id="b" x1="30" x2="30" y1="54" y2="9" gradientTransform="matrix(1 0 0 -1 0 63.947)" gradientUnits="userSpaceOnUse"><stop offset="0" stop-color="#fff"/><stop offset="1" stop-color="#f5f5f5"/></linearGradient><linearGradient id="a" x1="7.937" x2="7.937" y1="15.081" y2="1.852" gradientTransform="scale(3.7796)" gradientUnits="userSpaceOnUse"><stop offset="0" stop-color="#424242"/><stop offset="1" stop-color="#272727"/></linearGradient><radialGradient id="c" cx="-10.016" cy="4.929" r="1.7" gradientTransform="matrix(6.8413 .0888 -.13161 10.14 134.71 -42.862)" gradientUnits="userSpaceOnUse"><stop offset="0"/><stop offset=".476" stop-opacity=".33"/><stop offset=".862" stop-opacity=".01"/><stop offset="1" stop-opacity="0"/></radialGradient><filter id="d" width="1.203" height="1.231" x="-.101" y="-.115" color-interpolation-filters="sRGB"><feGaussianBlur stdDeviation="1.158"/></filter></defs><g color="#000"><path d="M4.37.53C2.254.53.53 2.312.53 4.496v8.468c0 2.184 1.725 3.968 3.84 3.968h8.194c2.114 0 3.84-1.783 3.84-3.968V4.497c0-2.184-1.726-3.968-3.84-3.968zm.256.52h7.681c1.844 0 3.33 1.534 3.33 3.44v7.937c0 1.906-1.485 3.44-3.33 3.44h-7.68c-1.845 0-3.33-1.534-3.33-3.44V4.49c0-1.906 1.485-3.44 3.33-3.44z" opacity=".01" style="font-feature-settings:normal;font-variant-alternates:normal;font-variant-caps:normal;font-variant-east-asian:normal;font-variant-ligatures:normal;font-variant-numeric:normal;font-variant-position:normal;font-variation-settings:normal;inline-size:0;isolation:auto;mix-blend-mode:normal;shape-margin:0;shape-padding:0;text-decoration-color:#000;text-decoration-line:none;text-decoration-style:solid;text-indent:0;text-orientation:mixed;text-transform:none;white-space:normal" transform="scale(3.7796)"/><path d="M4.359.794C2.392.794.795 2.447.795 4.48v8.5c0 2.035 1.597 3.688 3.564 3.688h8.216c1.967 0 3.564-1.653 3.564-3.688v-8.5c0-2.034-1.597-3.687-3.564-3.687zm.272.256h7.672c1.842 0 3.325 1.534 3.325 3.44v7.937c0 1.906-1.483 3.44-3.325 3.44H4.63c-1.842 0-3.325-1.534-3.325-3.44V4.49c0-1.906 1.483-3.44 3.325-3.44z" opacity=".01" style="font-feature-settings:normal;font-variant-alternates:normal;font-variant-caps:normal;font-variant-east-asian:normal;font-variant-ligatures:normal;font-variant-numeric:normal;font-variant-position:normal;font-variation-settings:normal;inline-size:0;isolation:auto;mix-blend-mode:normal;shape-margin:0;shape-padding:0;text-decoration-color:#000;text-decoration-line:none;text-decoration-style:solid;text-indent:0;text-orientation:mixed;text-transform:none;white-space:normal" transform="scale(3.7796)"/><path d="M4.31 1.058c-1.866 0-3.375 1.539-3.375 3.44v8.467c0 1.9 1.509 3.439 3.375 3.439h8.312c1.865 0 3.375-1.538 3.375-3.44V4.498c0-1.9-1.51-3.439-3.375-3.439h-.097c1.794.087 3.214 1.582 3.214 3.432v7.937c0 1.906-1.506 3.44-3.377 3.44h-7.79c-1.871 0-3.377-1.534-3.377-3.44V4.49c0-1.85 1.42-3.345 3.214-3.432z" opacity=".03" style="font-feature-settings:normal;font-variant-alternates:normal;font-variant-caps:normal;font-variant-east-asian:normal;font-variant-ligatures:normal;font-variant-numeric:normal;font-variant-position:normal;font-variation-settings:normal;inline-size:0;isolation:auto;mix-blend-mode:normal;shape-margin:0;shape-padding:0;text-decoration-color:#000;text-decoration-line:none;text-decoration-style:solid;text-indent:0;text-orientation:mixed;text-transform:none;white-space:normal" transform="scale(3.7796)"/><path d="M4 46.969V49c0 6.648 5.352 12 12 12h32c6.648 0 12-5.352 12-12v-1.992a12.97 12.97 0 0 1-13 12.963H17.002A12.973 12.973 0 0 1 4 46.969" opacity=".03" style="font-feature-settings:normal;font-variant-alternates:normal;font-variant-caps:normal;font-variant-east-asian:normal;font-variant-ligatures:normal;font-variant-numeric:normal;font-variant-position:normal;font-variation-settings:normal;inline-size:0;isolation:auto;mix-blend-mode:normal;shape-margin:0;shape-padding:0;text-decoration-color:#000;text-decoration-line:none;text-decoration-style:solid;text-indent:0;text-orientation:mixed;text-transform:none;white-space:normal"/><path d="M1.058 11.906v.592c0 1.939 1.416 3.5 3.175 3.5H12.7c1.759 0 3.175-1.561 3.175-3.5v-.58c-.006 2.095-1.538 3.78-3.44 3.78H4.498c-1.905 0-3.44-1.692-3.44-3.792" opacity=".05" style="font-feature-settings:normal;font-variant-alternates:normal;font-variant-caps:normal;font-variant-east-asian:normal;font-variant-ligatures:normal;font-variant-numeric:normal;font-variant-position:normal;font-variation-settings:normal;inline-size:0;isolation:auto;mix-blend-mode:normal;shape-margin:0;shape-padding:0;text-decoration-color:#000;text-decoration-line:none;text-decoration-style:solid;text-indent:0;text-orientation:mixed;text-transform:none;white-space:normal" transform="scale(3.7796)"/></g><rect width="56.002" height="56.002" x="4" y="3.969" fill="url(#a)" rx="13.002" ry="13.002"/><circle cx="32.02" cy="32.044" r="30.001" fill="none"/><path d="M17.002 57.947A10.947 10.947 0 0 1 6.031 46.976V16.978A10.947 10.947 0 0 1 17.002 6.007H47a10.947 10.947 0 0 1 10.971 10.971v18.047c0 6.922-16.528 22.922-23.186 22.922H18.074z" opacity=".15"/><path fill="url(#b)" d="M17 56.947c-5.54 0-10-4.46-10-10v-30A9.976 9.976 0 0 1 15.969 7c.58.02 1.133.037 1.449.006h.002q.586-.06 1.19-.059H47c5.54 0 10 4.46 10 10v17.652c0 5.357-16.965 22.348-22.322 22.348H18.61z"/><ellipse cx="65.54" cy="6.227" fill="url(#c)" opacity=".35" rx="10.258" ry="19.576" transform="rotate(40.76)"/><g filter="url(#d)" opacity=".15" transform="translate(-3.944 -3.169)scale(1.1003)"><path d="M26.202 41.655h-4.388l-.692 1.884h-2.82l4.03-10.34h3.345l4.03 10.34h-2.82zm-3.688-1.918h2.981l-1.487-4.114z" aria-label="A"/><path d="M42.37 29.348h2.306v-.914h.946v2.259H40.56v-1.41q1.077-.235 1.63-1.346.552-1.11.552-3.055 0-2.157-.69-3.282-.691-1.133-2.017-1.133T38.018 21.6q-.684 1.125-.684 3.296 0 1.908.56 3.034.56 1.118 1.623 1.352v1.411h-5.07v-2.259h.94v.914H37.7q-1.637-.673-2.48-1.842-.842-1.177-.842-2.785 0-2.31 1.547-3.72 1.553-1.419 4.109-1.419T44.144 21q1.553 1.41 1.553 3.72 0 1.609-.843 2.786-.842 1.17-2.486 1.842z" aria-label="𝛀"/><path d="m28.494 23.989.575 1.758 4.01-4.418-5.828-1.85.34 1.627c-5.75 2.897-6.35 5.434-7.14 7.984l3.104.55c.733-3.098 2.666-4.68 4.939-5.651m6.975 14.642-.575-1.758-4.01 4.418 5.828 1.85-.34-1.627c5.75-2.897 6.35-5.434 7.14-7.984l-3.104-.55c-.733 3.098-2.666 4.68-4.939 5.651" enable-background="new"/></g><path fill="#5e5c64" d="M24.886 42.11h-4.828l-.762 2.073h-3.103l4.435-11.378h3.68l4.436 11.378H25.64zM20.828 40h3.28l-1.636-4.528z" aria-label="A"/><path fill="#5e5c64" d="M42.675 28.568h2.538v-1.005h1.041v2.485h-5.57v-1.552q1.185-.257 1.793-1.48t.608-3.362q0-2.373-.76-3.611-.76-1.247-2.219-1.247t-2.219 1.247q-.752 1.238-.752 3.627 0 2.1.616 3.338.615 1.23 1.785 1.488v1.552H33.96v-2.485h1.033v1.005h2.546q-1.801-.74-2.728-2.027-.927-1.294-.927-3.064 0-2.542 1.702-4.094 1.71-1.56 4.521-1.56t4.522 1.56q1.71 1.552 1.71 4.094 0 1.77-.928 3.064-.927 1.287-2.735 2.027z" aria-label="𝛀"/><path fill="#33d17a" d="m27.408 22.672.633 1.934 4.412-4.86-6.413-2.036.375 1.79c-6.327 3.187-6.987 5.978-7.858 8.784l3.417.605c.806-3.408 2.933-5.148 5.434-6.217m7.675 16.11-.633-1.934-4.412 4.861 6.412 2.035-.374-1.79c6.326-3.187 6.986-5.978 7.857-8.784l-3.416-.605c-.806 3.408-2.934 5.148-5.434 6.218z" enable-background="new"/><path fill="url(#e)" d="M34.678 56.92c3.571-.893 4.464-6.25 5.357-9.821.866-3.465 2.838-5.843 8.036-7.143 3.57-.893 7.142-.572 8.928-5.357 0 .021-.004.043-.004.065-.097 6.246-14.825 21.194-21.614 22.225a10 10 0 0 1-.702.031z"/></svg>