<svg width="64" height="64" version="1.1" viewBox="0 0 64 64" xmlns="http://www.w3.org/2000/svg">
 <defs>
  <filter id="filter909" x="-.058849" y="-.061197" width="1.1177" height="1.1224" color-interpolation-filters="sRGB">
   <feGaussianBlur stdDeviation="0.90087503"/>
  </filter>
  <filter id="filter935" x="-.056768" y="-.063623" width="1.1135" height="1.1272" color-interpolation-filters="sRGB">
   <feGaussianBlur stdDeviation="1.060375"/>
  </filter>
  <linearGradient id="linearGradient949" x1="30.242" x2="31.073" y1="56.798" y2="10.968" gradientUnits="userSpaceOnUse">
   <stop stop-color="#ff8a34" offset="0"/>
   <stop stop-color="#ffdc34" offset="1"/>
  </linearGradient>
  <linearGradient id="linearGradient879" x1="525.29" x2="525.29" y1="540.16" y2="508.15" gradientTransform="matrix(1.5 0 0 1.5 -756.23 -752.85)" gradientUnits="userSpaceOnUse">
   <stop stop-color="#18222a" offset="0"/>
   <stop stop-color="#566069" offset="1"/>
  </linearGradient>
 </defs>
 <g transform="scale(3.7796)" shape-rendering="auto">
  <path d="m4.3693 0.52916c-2.1142 0-3.8402 1.7835-3.8402 3.9682v8.4675c0 2.1846 1.726 3.9682 3.8402 3.9682h8.1944c2.1142 0 3.8402-1.7835 3.8402-3.9682v-8.4675c0-2.1846-1.726-3.9682-3.8402-3.9682zm0.25704 0.52089h7.6808c1.8443 0 3.3291 1.5342 3.3291 3.44v7.9368c0 1.9058-1.4847 3.44-3.3291 3.44h-7.6808c-1.8443 0-3.3291-1.5342-3.3291-3.44v-7.9368c0-1.9058 1.4847-3.44 3.3291-3.44z" color="#000000" color-rendering="auto" dominant-baseline="auto" image-rendering="auto" opacity=".01" solid-color="#000000" stop-color="#000000" style="font-feature-settings:normal;font-variant-alternates:normal;font-variant-caps:normal;font-variant-east-asian:normal;font-variant-ligatures:normal;font-variant-numeric:normal;font-variant-position:normal;font-variation-settings:normal;inline-size:0;isolation:auto;mix-blend-mode:normal;shape-margin:0;shape-padding:0;text-decoration-color:#000000;text-decoration-line:none;text-decoration-style:solid;text-indent:0;text-orientation:mixed;text-transform:none;white-space:normal"/>
  <path d="m4.3587 0.79373c-1.9668 0-3.5639 1.6528-3.5639 3.6876v8.4996c0 2.0348 1.5971 3.6876 3.5639 3.6876h8.2162c1.9668 0 3.5644-1.6528 3.5644-3.6876v-8.4996c0-2.0348-1.5976-3.6876-3.5644-3.6876zm0.27222 0.25631h7.6718c1.8422 0 3.3251 1.5342 3.3251 3.44v7.9368c0 1.9058-1.483 3.44-3.3251 3.44h-7.6718c-1.8422 0-3.3251-1.5342-3.3251-3.44v-7.9368c0-1.9058 1.483-3.44 3.3251-3.44z" color="#000000" color-rendering="auto" dominant-baseline="auto" image-rendering="auto" opacity=".01" solid-color="#000000" stop-color="#000000" style="font-feature-settings:normal;font-variant-alternates:normal;font-variant-caps:normal;font-variant-east-asian:normal;font-variant-ligatures:normal;font-variant-numeric:normal;font-variant-position:normal;font-variation-settings:normal;inline-size:0;isolation:auto;mix-blend-mode:normal;shape-margin:0;shape-padding:0;text-decoration-color:#000000;text-decoration-line:none;text-decoration-style:solid;text-indent:0;text-orientation:mixed;text-transform:none;white-space:normal"/>
  <path d="m4.3097 1.0583c-1.8657 0-3.3751 1.5383-3.3751 3.439v8.4675c0 1.9007 1.57 3.439 3.4357 3.439h8.1996c1.8657 0 3.4274-1.5383 3.4274-3.439v-8.4675c0-1.9007-1.51-3.439-3.3756-3.439h-0.09688c1.794 0.086515 3.2138 1.5819 3.2138 3.4318v7.9368c0 1.9058-1.5059 3.44-3.3766 3.44h-7.7905c-1.8707 0-3.3766-1.5342-3.3766-3.44v-7.9368c0-1.8498 1.4199-3.3451 3.2138-3.4318z" color="#000000" color-rendering="auto" dominant-baseline="auto" image-rendering="auto" opacity=".03" solid-color="#000000" stop-color="#000000" style="font-feature-settings:normal;font-variant-alternates:normal;font-variant-caps:normal;font-variant-east-asian:normal;font-variant-ligatures:normal;font-variant-numeric:normal;font-variant-position:normal;font-variation-settings:normal;inline-size:0;isolation:auto;mix-blend-mode:normal;shape-margin:0;shape-padding:0;text-decoration-color:#000000;text-decoration-line:none;text-decoration-style:solid;text-indent:0;text-orientation:mixed;text-transform:none;white-space:normal"/>
  <path transform="scale(.26458)" d="m4 46.969v2.0312c0 6.6479 5.8957 12 12.544 12h30.961c6.6479 0 12.495-5.3521 12.495-12v-1.9922c-0.021173 7.1849-5.81 12.963-13 12.963h-29.998c-7.2032 0-13.002-5.7987-13.002-13.002z" color="#000000" color-rendering="auto" dominant-baseline="auto" image-rendering="auto" opacity=".03" solid-color="#000000" stop-color="#000000" style="font-feature-settings:normal;font-variant-alternates:normal;font-variant-caps:normal;font-variant-east-asian:normal;font-variant-ligatures:normal;font-variant-numeric:normal;font-variant-position:normal;font-variation-settings:normal;inline-size:0;isolation:auto;mix-blend-mode:normal;shape-margin:0;shape-padding:0;text-decoration-color:#000000;text-decoration-line:none;text-decoration-style:solid;text-indent:0;text-orientation:mixed;text-transform:none;white-space:normal"/>
  <path d="m1.0583 11.906v0.59234c0 1.9386 1.5729 3.4993 3.3318 3.4993h8.1603c1.7589 0 3.3243-1.5608 3.3243-3.4993v-0.58095c-0.0056 2.0952-1.5372 3.7801-3.4395 3.7801h-7.9368c-1.9058 0-3.44-1.691-3.44-3.7915z" color="#000000" color-rendering="auto" dominant-baseline="auto" image-rendering="auto" opacity=".05" solid-color="#000000" stop-color="#000000" style="font-feature-settings:normal;font-variant-alternates:normal;font-variant-caps:normal;font-variant-east-asian:normal;font-variant-ligatures:normal;font-variant-numeric:normal;font-variant-position:normal;font-variation-settings:normal;inline-size:0;isolation:auto;mix-blend-mode:normal;shape-margin:0;shape-padding:0;text-decoration-color:#000000;text-decoration-line:none;text-decoration-style:solid;text-indent:0;text-orientation:mixed;text-transform:none;white-space:normal"/>
 </g>
 <rect x="4" y="4" width="56" height="56" rx="13.002" ry="13.002" fill="url(#linearGradient879)" stroke-width="3.7795"/>
 <path transform="matrix(1.15 0 0 1.15 -4.4881 -4.4881)" d="m54.144 31.729c0 1.569-9.848 18.627-11.207 19.412-1.36 0.784-21.057 0.784-22.415 0s-11.208-17.843-11.208-19.412 9.85-18.627 11.208-19.412c1.359-0.784 21.057-0.784 22.415 0s11.207 17.843 11.207 19.412z" color="#000000" display="block" fill-opacity=".099" filter="url(#filter935)" overflow="visible" stroke-width=".892" style="isolation:auto;mix-blend-mode:normal;paint-order:fill markers stroke"/>
 <path d="m57.777 32c0 1.8044-11.325 21.421-12.888 22.324-1.564 0.9016-24.216 0.9016-25.777 0s-12.889-20.519-12.889-22.324 11.328-21.421 12.889-22.324c1.5628-0.9016 24.216-0.9016 25.777 0s12.888 20.519 12.888 22.324z" color="#000000" display="block" fill="#fff" opacity=".15" overflow="visible" stroke-width="1.0258" style="isolation:auto;mix-blend-mode:normal;paint-order:fill markers stroke"/>
 <path transform="matrix(1.15 0 0 1.15 -4.4881 -4.4881)" d="m31.729 15.619c-1.959 0-3.914 0.034-5.475 0.105-0.78 0.037-1.457 0.081-2.018 0.14-0.279 0.03-0.527 0.064-0.772 0.11-0.244 0.046-0.428 0.034-0.918 0.31-0.49 0.274-0.574 0.436-0.738 0.619a8.956 8.956 0 0 0-0.483 0.595 33.005 33.005 0 0 0-1.133 1.625 117.02 117.02 0 0 0-2.833 4.55 116.47 116.47 0 0 0-2.64 4.657 32.763 32.763 0 0 0-0.886 1.767c-0.113 0.25-0.209 0.474-0.289 0.703-0.081 0.229-0.185 0.38-0.185 0.929s0.104 0.7 0.185 0.929c0.08 0.229 0.176 0.453 0.289 0.703 0.227 0.5 0.527 1.093 0.885 1.767 0.716 1.348 1.662 3.01 2.641 4.656a134.03 134.03 0 0 0 1.847 3.008l-2.552 8.156 6.402-3.547c0.156 0.046 0.275 0.057 0.41 0.083 0.243 0.047 0.492 0.08 0.771 0.11 0.56 0.059 1.237 0.103 2.018 0.139 1.56 0.072 3.515 0.107 5.474 0.107s3.913-0.035 5.473-0.106a35.044 35.044 0 0 0 2.019-0.14c0.279-0.03 0.528-0.064 0.772-0.11 0.245-0.046 0.43-0.034 0.92-0.31 0.49-0.274 0.573-0.436 0.737-0.619a9.26 9.26 0 0 0 0.483-0.595c0.332-0.44 0.711-0.987 1.133-1.625a117.02 117.02 0 0 0 2.833-4.55 116.48 116.48 0 0 0 2.64-4.657 32.04 32.04 0 0 0 0.884-1.767 8.807 8.807 0 0 0 0.291-0.703c0.081-0.229 0.185-0.38 0.185-0.929s-0.104-0.7-0.185-0.929a8.805 8.805 0 0 0-0.29-0.703 32.651 32.651 0 0 0-0.884-1.767 116.48 116.48 0 0 0-2.641-4.656 117.04 117.04 0 0 0-2.833-4.55 33.012 33.012 0 0 0-1.133-1.626 8.957 8.957 0 0 0-0.483-0.595c-0.164-0.183-0.247-0.345-0.738-0.62-0.49-0.275-0.674-0.263-0.918-0.31a9.436 9.436 0 0 0-0.773-0.108 35.04 35.04 0 0 0-2.018-0.14c-1.56-0.072-3.515-0.107-5.474-0.107zm0 3.664c1.912 0 3.828 0.036 5.295 0.103 0.212 0.01 0.326 0.026 0.517 0.037l-5.845 8.701-5.917-8.693c0.235-0.015 0.386-0.032 0.655-0.045 1.467-0.067 3.383-0.102 5.295-0.102zm9.242 3.2a127.72 127.72 0 0 1 1.858 3.024 113.92 113.92 0 0 1 2.557 4.502c0.336 0.635 0.61 1.182 0.783 1.564 0.032 0.071 0.04 0.097 0.065 0.156-0.024 0.059-0.033 0.084-0.065 0.156-0.173 0.382-0.447 0.93-0.783 1.564a113.92 113.92 0 0 1-2.557 4.502 123 123 0 0 1-2.113 3.422l-6.258-9.195zm-18.551 0.105 6.54 9.609-6.191 9.217a122.51 122.51 0 0 1-2.14-3.463 113.92 113.92 0 0 1-2.557-4.502 30.098 30.098 0 0 1-0.783-1.564c-0.032-0.071-0.04-0.097-0.065-0.156 0.024-0.059 0.033-0.084 0.065-0.156 0.173-0.382 0.447-0.93 0.783-1.564 0.674-1.267 1.6-2.895 2.557-4.502a129.19 129.19 0 0 1 1.791-2.919zm9.302 13.662 5.323 7.82-0.02 2e-3c-1.468 0.067-3.384 0.102-5.296 0.102-1.899 0-3.799-0.035-5.263-0.1z" color="#000000" display="block" filter="url(#filter909)" font-weight="400" opacity=".25" overflow="visible" stroke-width=".892" style="font-feature-settings:normal;font-variant-alternates:normal;font-variant-caps:normal;font-variant-ligatures:normal;font-variant-numeric:normal;font-variant-position:normal;isolation:auto;mix-blend-mode:normal;paint-order:fill markers stroke;shape-padding:0;text-decoration-color:#000000;text-decoration-line:none;text-decoration-style:solid;text-indent:0;text-orientation:mixed;text-transform:none;white-space:normal"/>
 <path d="m32 13.474c-2.2528 0-4.5011 0.0391-6.2962 0.12075-0.897 0.04255-1.6756 0.09315-2.3207 0.161-0.32085 0.0345-0.60605 0.0736-0.8878 0.1265-0.2806 0.0529-0.4922 0.0391-1.0557 0.3565-0.5635 0.3151-0.6601 0.5014-0.8487 0.71185a10.299 10.299 0 0 0-0.55545 0.68425 37.956 37.956 0 0 0-1.303 1.8688 134.57 134.57 0 0 0-3.258 5.2325 133.94 133.94 0 0 0-3.036 5.3556 37.677 37.677 0 0 0-1.0189 2.032c-0.12995 0.2875-0.24035 0.5451-0.33235 0.80845-0.09315 0.26335-0.21275 0.437-0.21275 1.0684s0.1196 0.805 0.21275 1.0684c0.092 0.26335 0.2024 0.52095 0.33235 0.80845 0.26105 0.575 0.60605 1.257 1.0178 2.032 0.8234 1.5502 1.9113 3.4615 3.0372 5.3544a154.13 154.13 0 0 0 2.124 3.4592l-2.9348 9.3794 7.3623-4.079c0.1794 0.0529 0.31625 0.06555 0.4715 0.09545 0.27945 0.05405 0.5658 0.092 0.88665 0.1265 0.644 0.06785 1.4226 0.11845 2.3207 0.15985 1.794 0.0828 4.0422 0.12305 6.2951 0.12305s4.5-0.04025 6.294-0.1219a40.301 40.301 0 0 0 2.3218-0.161c0.32085-0.0345 0.6072-0.0736 0.8878-0.1265 0.28175-0.0529 0.4945-0.0391 1.058-0.3565 0.5635-0.3151 0.65895-0.5014 0.84755-0.71185a10.649 10.649 0 0 0 0.55545-0.68425c0.3818-0.506 0.81765-1.135 1.303-1.8688a134.58 134.58 0 0 0 3.258-5.2325 133.95 133.95 0 0 0 3.036-5.3556 36.846 36.846 0 0 0 1.0166-2.032 10.128 10.128 0 0 0 0.33465-0.80845c0.09315-0.26335 0.21275-0.437 0.21275-1.0684s-0.1196-0.805-0.21275-1.0684a10.126 10.126 0 0 0-0.3335-0.80845 37.549 37.549 0 0 0-1.0166-2.032 133.95 133.95 0 0 0-3.0372-5.3544 134.59 134.59 0 0 0-3.258-5.2325 37.964 37.964 0 0 0-1.303-1.8699 10.301 10.301 0 0 0-0.55545-0.68425c-0.1886-0.21045-0.28405-0.39675-0.8487-0.713-0.5635-0.31625-0.7751-0.30245-1.0557-0.3565a10.851 10.851 0 0 0-0.88895-0.1242 40.296 40.296 0 0 0-2.3207-0.161c-1.794-0.0828-4.0423-0.12305-6.2951-0.12305zm0 4.2136c2.1988 0 4.4022 0.0414 6.0893 0.11845 0.2438 0.0115 0.3749 0.0299 0.59455 0.04255l-6.7218 10.006-6.8046-9.997c0.27025-0.01725 0.4439-0.0368 0.75325-0.05175 1.687-0.07705 3.8904-0.1173 6.0892-0.1173zm10.628 3.68a146.88 146.88 0 0 1 2.1367 3.4776 131 131 0 0 1 2.9406 5.1773c0.3864 0.73025 0.7015 1.3593 0.90045 1.7986 0.0368 0.08165 0.046 0.11155 0.07475 0.1794-0.0276 0.06785-0.03795 0.0966-0.07475 0.1794-0.19895 0.4393-0.51405 1.0695-0.90045 1.7986a131.01 131.01 0 0 1-2.9406 5.1773 141.45 141.45 0 0 1-2.43 3.9353l-7.1967-10.574zm-21.334 0.12075 7.521 11.05-7.1196 10.6a140.89 140.89 0 0 1-2.461-3.9824 131.01 131.01 0 0 1-2.9406-5.1773 34.613 34.613 0 0 1-0.90045-1.7986c-0.0368-0.08165-0.046-0.11155-0.07475-0.1794 0.0276-0.06785 0.03795-0.0966 0.07475-0.1794 0.19895-0.4393 0.51405-1.0695 0.90045-1.7986 0.7751-1.457 1.84-3.3292 2.9406-5.1773a148.57 148.57 0 0 1 2.0596-3.3568zm10.697 15.711 6.1215 8.993-0.023 0.0023c-1.6882 0.07705-3.8916 0.1173-6.0904 0.1173-2.1838 0-4.3688-0.04025-6.0524-0.115z" color="#000000" display="block" fill="url(#linearGradient949)" font-weight="400" overflow="visible" stroke-width="1.0258" style="font-feature-settings:normal;font-variant-alternates:normal;font-variant-caps:normal;font-variant-ligatures:normal;font-variant-numeric:normal;font-variant-position:normal;isolation:auto;mix-blend-mode:normal;paint-order:fill markers stroke;shape-padding:0;text-decoration-color:#000000;text-decoration-line:none;text-decoration-style:solid;text-indent:0;text-orientation:mixed;text-transform:none;white-space:normal"/>
</svg>
