<svg xmlns="http://www.w3.org/2000/svg" width="64" height="64"><defs><linearGradient id="a" x1="7.937" x2="7.937" y1="15.081" y2="1.852" gradientTransform="translate(0 .032)scale(3.7795)" gradientUnits="userSpaceOnUse"><stop offset="0" stop-color="#292929"/><stop offset="1" stop-color="#4d4d4d"/></linearGradient><filter id="b" width="1.12" height="1.12" x="-.06" y="-.06" color-interpolation-filters="sRGB"><feGaussianBlur stdDeviation=".9"/></filter></defs><g color="#000"><path d="M4.37.53C2.254.53.53 2.312.53 4.496v8.468c0 2.184 1.725 3.968 3.84 3.968h8.194c2.114 0 3.84-1.783 3.84-3.968V4.497c0-2.184-1.726-3.968-3.84-3.968zm.256.52h7.681c1.844 0 3.33 1.534 3.33 3.44v7.937c0 1.906-1.485 3.44-3.33 3.44h-7.68c-1.845 0-3.33-1.534-3.33-3.44V4.49c0-1.906 1.485-3.44 3.33-3.44z" opacity=".01" style="font-feature-settings:normal;font-variant-alternates:normal;font-variant-caps:normal;font-variant-east-asian:normal;font-variant-ligatures:normal;font-variant-numeric:normal;font-variant-position:normal;font-variation-settings:normal;inline-size:0;isolation:auto;mix-blend-mode:normal;shape-margin:0;shape-padding:0;text-decoration-color:#000;text-decoration-line:none;text-decoration-style:solid;text-indent:0;text-orientation:mixed;text-transform:none;white-space:normal" transform="scale(3.7796)"/><path d="M4.359.794C2.392.794.795 2.447.795 4.48v8.5c0 2.035 1.597 3.688 3.564 3.688h8.216c1.967 0 3.564-1.653 3.564-3.688v-8.5c0-2.034-1.597-3.687-3.564-3.687zm.272.256h7.672c1.842 0 3.325 1.534 3.325 3.44v7.937c0 1.906-1.483 3.44-3.325 3.44H4.63c-1.842 0-3.325-1.534-3.325-3.44V4.49c0-1.906 1.483-3.44 3.325-3.44z" opacity=".01" style="font-feature-settings:normal;font-variant-alternates:normal;font-variant-caps:normal;font-variant-east-asian:normal;font-variant-ligatures:normal;font-variant-numeric:normal;font-variant-position:normal;font-variation-settings:normal;inline-size:0;isolation:auto;mix-blend-mode:normal;shape-margin:0;shape-padding:0;text-decoration-color:#000;text-decoration-line:none;text-decoration-style:solid;text-indent:0;text-orientation:mixed;text-transform:none;white-space:normal" transform="scale(3.7796)"/><path d="M4.31 1.058c-1.866 0-3.375 1.539-3.375 3.44v8.467c0 1.9 1.57 3.439 3.435 3.439h8.2c1.866 0 3.427-1.538 3.427-3.44V4.498c0-1.9-1.51-3.439-3.375-3.439h-.097c1.794.087 3.214 1.582 3.214 3.432v7.937c0 1.906-1.506 3.44-3.377 3.44h-7.79c-1.871 0-3.377-1.534-3.377-3.44V4.49c0-1.85 1.42-3.345 3.214-3.432z" opacity=".03" style="font-feature-settings:normal;font-variant-alternates:normal;font-variant-caps:normal;font-variant-east-asian:normal;font-variant-ligatures:normal;font-variant-numeric:normal;font-variant-position:normal;font-variation-settings:normal;inline-size:0;isolation:auto;mix-blend-mode:normal;shape-margin:0;shape-padding:0;text-decoration-color:#000;text-decoration-line:none;text-decoration-style:solid;text-indent:0;text-orientation:mixed;text-transform:none;white-space:normal" transform="scale(3.7796)"/><path d="M4 46.969V49c0 6.648 5.896 12 12.544 12h30.961C54.153 61 60 55.648 60 49v-1.992a12.97 12.97 0 0 1-13 12.963H17.002A12.973 12.973 0 0 1 4 46.969" opacity=".03" style="font-feature-settings:normal;font-variant-alternates:normal;font-variant-caps:normal;font-variant-east-asian:normal;font-variant-ligatures:normal;font-variant-numeric:normal;font-variant-position:normal;font-variation-settings:normal;inline-size:0;isolation:auto;mix-blend-mode:normal;shape-margin:0;shape-padding:0;text-decoration-color:#000;text-decoration-line:none;text-decoration-style:solid;text-indent:0;text-orientation:mixed;text-transform:none;white-space:normal"/><path d="M1.058 11.906v.592c0 1.939 1.573 3.5 3.332 3.5h8.16c1.76 0 3.325-1.561 3.325-3.5v-.58c-.006 2.095-1.537 3.78-3.44 3.78H4.498c-1.905 0-3.44-1.692-3.44-3.792" opacity=".05" style="font-feature-settings:normal;font-variant-alternates:normal;font-variant-caps:normal;font-variant-east-asian:normal;font-variant-ligatures:normal;font-variant-numeric:normal;font-variant-position:normal;font-variation-settings:normal;inline-size:0;isolation:auto;mix-blend-mode:normal;shape-margin:0;shape-padding:0;text-decoration-color:#000;text-decoration-line:none;text-decoration-style:solid;text-indent:0;text-orientation:mixed;text-transform:none;white-space:normal" transform="scale(3.7796)"/></g><rect width="56" height="56" x="4" y="4" fill="url(#a)" rx="13.002" ry="13.002"/><g stroke-width="1.5"><path d="M15.755 14a1.75 1.75 0 0 0-1.754 1.752V23H21.5v-8.997H23V23h7.498v-8.998h1.498V23h7.505v-8.998h1.498V23h8.999v-7.248c0-.97-.781-1.752-1.752-1.752zm-1.754 10.5v7.497H21.5V24.5zm8.999 0v7.497h7.498V24.5zm8.996 0v7.497h7.505V24.5zm9.003 0v7.497h8.999V24.5zm-26.998 8.997v7.506H21.5v-7.506zm8.999 0v7.506h7.498v-7.506zm8.996 0v7.506h7.505v-7.506zm9.003 0v7.506h8.999v-7.506zm-26.998 9.004v5.747c0 .97.783 1.752 1.754 1.752H21.5v-7.499zm8.999 0v7.5h7.498v-7.5zm8.996 0v7.5h7.505v-7.5zm9.003 0v7.5h7.247c.971 0 1.752-.782 1.752-1.753v-5.747z" filter="url(#b)" opacity=".35"/><path fill="#eee" d="M15.755 14a1.75 1.75 0 0 0-1.754 1.752V23H21.5v-8.997H23V23h7.498v-8.998h1.498V23h7.505v-8.998h1.498V23h8.999v-7.248c0-.97-.781-1.752-1.752-1.752zm-1.754 10.5v7.497H21.5V24.5zm8.999 0v7.497h7.498V24.5zm8.996 0v7.497h7.505V24.5zm9.003 0v7.497h8.999V24.5zm-26.998 8.997v7.506H21.5v-7.506zm8.999 0v7.506h7.498v-7.506zm8.996 0v7.506h7.505v-7.506zm9.003 0v7.506h8.999v-7.506zm-26.998 9.004v5.747c0 .97.783 1.752 1.754 1.752H21.5v-7.499zm8.999 0v7.5h7.498v-7.5zm8.996 0v7.5h7.505v-7.5zm9.003 0v7.5h7.247c.971 0 1.752-.782 1.752-1.753v-5.747z"/><path fill="#d7d7d7" d="M15.733 14.002A1.75 1.75 0 0 0 14 15.752v7.25h7.494v-9z"/><path fill="#d71e1e" d="M31.996 24.502h7.499v7.5h-7.499z"/><path fill="#fa884c" d="M31.996 14.001h7.499v9.001h-7.499z"/><path fill="#7fde59" d="M41 33.503h9v7.5h-9z"/><path fill="#b9b9b9" d="M22.996 33.503h7.499v7.5h-7.499z"/></g></svg>