<svg xmlns="http://www.w3.org/2000/svg" xmlns:xlink="http://www.w3.org/1999/xlink" width="128" height="128" viewBox="0 0 33.867 33.867"><defs><linearGradient id="b"><stop offset="0" style="stop-color:#fff;stop-opacity:1"/><stop offset="1" style="stop-color:#8700de;stop-opacity:1"/></linearGradient><linearGradient xlink:href="#a" id="c" x1="132.211" x2="132.211" y1="42.152" y2="70.68" gradientTransform="translate(-111.765 -37.183)scale(.97573)" gradientUnits="userSpaceOnUse"/><linearGradient id="a"><stop offset="0" style="stop-color:#c500e5;stop-opacity:1"/><stop offset="1" style="stop-color:#7a00dd;stop-opacity:1"/></linearGradient><linearGradient xlink:href="#b" id="e" x1="7.689" x2="7.689" y1="10.895" y2="62.209" gradientUnits="userSpaceOnUse"/></defs><g style="opacity:.295" transform="translate(-65.737 -37.183)scale(.97573)"><rect width="29.811" height="29.811" x="69.84" y="40.71" rx="6.61" ry="6.61" style="fill:none;fill-opacity:1;stroke:#000;stroke-width:.1;stroke-linecap:round;stroke-linejoin:round;stroke-miterlimit:4;stroke-dasharray:none;stroke-opacity:.02"/><rect width="29.811" height="29.811" x="69.84" y="40.71" rx="6.61" ry="6.61" style="fill:none;fill-opacity:1;stroke:#000;stroke-width:.2;stroke-linecap:round;stroke-linejoin:round;stroke-miterlimit:4;stroke-dasharray:none;stroke-opacity:.02"/><rect width="29.811" height="29.811" x="69.84" y="40.71" rx="6.61" ry="6.61" style="fill:none;fill-opacity:1;stroke:#000;stroke-width:.3;stroke-linecap:round;stroke-linejoin:round;stroke-miterlimit:4;stroke-dasharray:none;stroke-opacity:.02"/><rect width="29.811" height="29.811" x="69.84" y="40.71" rx="6.61" ry="6.61" style="fill:none;fill-opacity:1;stroke:#000;stroke-width:.4;stroke-linecap:round;stroke-linejoin:round;stroke-miterlimit:4;stroke-dasharray:none;stroke-opacity:.02"/><rect width="29.811" height="29.811" x="69.84" y="40.71" rx="6.61" ry="6.61" style="fill:none;fill-opacity:1;stroke:#000;stroke-width:.5;stroke-linecap:round;stroke-linejoin:round;stroke-miterlimit:4;stroke-dasharray:none;stroke-opacity:.02"/><rect width="29.811" height="29.811" x="69.84" y="40.71" rx="6.61" ry="6.61" style="fill:none;fill-opacity:1;stroke:#000;stroke-width:.6;stroke-linecap:round;stroke-linejoin:round;stroke-miterlimit:4;stroke-dasharray:none;stroke-opacity:.02"/><rect width="29.811" height="29.811" x="69.84" y="40.71" rx="6.61" ry="6.61" style="fill:none;fill-opacity:1;stroke:#000;stroke-width:.7;stroke-linecap:round;stroke-linejoin:round;stroke-miterlimit:4;stroke-dasharray:none;stroke-opacity:.02"/><rect width="29.811" height="29.811" x="69.84" y="40.71" rx="6.61" ry="6.61" style="fill:none;fill-opacity:1;stroke:#000;stroke-width:.8;stroke-linecap:round;stroke-linejoin:round;stroke-miterlimit:4;stroke-dasharray:none;stroke-opacity:.02"/><rect width="29.811" height="29.811" x="69.84" y="40.71" rx="6.61" ry="6.61" style="fill:none;fill-opacity:1;stroke:#000;stroke-width:1;stroke-linecap:round;stroke-linejoin:round;stroke-miterlimit:4;stroke-dasharray:none;stroke-opacity:.02"/><rect width="29.811" height="29.811" x="69.84" y="40.71" rx="6.61" ry="6.61" style="fill:none;fill-opacity:1;stroke:#000;stroke-width:1.2;stroke-linecap:round;stroke-linejoin:round;stroke-miterlimit:4;stroke-dasharray:none;stroke-opacity:.02"/><rect width="29.811" height="29.811" x="69.84" y="40.71" rx="6.61" ry="6.61" style="fill:none;fill-opacity:1;stroke:#000;stroke-width:1.4;stroke-linecap:round;stroke-linejoin:round;stroke-miterlimit:4;stroke-dasharray:none;stroke-opacity:.02"/><rect width="29.811" height="29.811" x="69.84" y="40.71" rx="6.61" ry="6.61" style="fill:none;fill-opacity:1;stroke:#000;stroke-width:1.6;stroke-linecap:round;stroke-linejoin:round;stroke-miterlimit:4;stroke-dasharray:none;stroke-opacity:.02"/><rect width="29.811" height="29.811" x="69.84" y="40.71" rx="6.61" ry="6.61" style="fill:none;fill-opacity:1;stroke:#000;stroke-width:1.8;stroke-linecap:round;stroke-linejoin:round;stroke-miterlimit:4;stroke-dasharray:none;stroke-opacity:.02"/><rect width="29.811" height="29.811" x="69.84" y="40.71" rx="6.61" ry="6.61" style="fill:none;fill-opacity:1;stroke:#000;stroke-width:2;stroke-linecap:round;stroke-linejoin:round;stroke-miterlimit:4;stroke-dasharray:none;stroke-opacity:.02"/><rect width="29.811" height="29.811" x="69.84" y="40.71" rx="6.61" ry="6.61" style="fill:none;fill-opacity:1;stroke:#000;stroke-width:2.2;stroke-linecap:round;stroke-linejoin:round;stroke-miterlimit:4;stroke-dasharray:none;stroke-opacity:.02"/><rect width="29.811" height="29.811" x="69.84" y="40.71" rx="6.61" ry="6.61" style="fill:none;fill-opacity:1;stroke:#000;stroke-width:2.6;stroke-linecap:round;stroke-linejoin:round;stroke-miterlimit:4;stroke-dasharray:none;stroke-opacity:.02"/><rect width="29.811" height="29.811" x="69.84" y="40.71" rx="6.61" ry="6.61" style="fill:none;fill-opacity:1;stroke:#000;stroke-width:3;stroke-linecap:round;stroke-linejoin:round;stroke-miterlimit:4;stroke-dasharray:none;stroke-opacity:.02"/><rect width="29.811" height="29.811" x="69.84" y="40.71" rx="6.61" ry="6.61" style="fill:none;fill-opacity:1;stroke:#000;stroke-width:3.4;stroke-linecap:round;stroke-linejoin:round;stroke-miterlimit:4;stroke-dasharray:none;stroke-opacity:.02"/><rect width="29.811" height="29.811" x="69.84" y="40.71" rx="6.61" ry="6.61" style="fill:none;fill-opacity:1;stroke:#000;stroke-width:3.8;stroke-linecap:round;stroke-linejoin:round;stroke-miterlimit:4;stroke-dasharray:none;stroke-opacity:.02"/><rect width="29.811" height="29.811" x="69.84" y="40.71" rx="6.61" ry="6.61" style="fill:none;fill-opacity:1;stroke:#000;stroke-width:4.2;stroke-linecap:round;stroke-linejoin:round;stroke-miterlimit:4;stroke-dasharray:none;stroke-opacity:.02"/><rect width="29.811" height="29.811" x="69.84" y="40.71" rx="6.61" ry="6.61" style="fill:none;fill-opacity:1;stroke:#000;stroke-width:4.6;stroke-linecap:round;stroke-linejoin:round;stroke-miterlimit:4;stroke-dasharray:none;stroke-opacity:.02"/><rect width="29.811" height="29.811" x="69.84" y="40.71" rx="6.61" ry="6.61" style="fill:none;fill-opacity:1;stroke:#000;stroke-width:5;stroke-linecap:round;stroke-linejoin:round;stroke-miterlimit:4;stroke-dasharray:none;stroke-opacity:.02"/></g><rect width="29.087" height="29.087" x="2.407" y="2.539" rx="6.449" ry="6.449" style="fill:url(#c);fill-opacity:1;stroke-width:2.68768;stroke-linecap:round;stroke-linejoin:round"/><g style="fill:#0a0010;fill-opacity:.02176704"><path d="m11.19 7.321-.037.001c-.102.007-.23.054-.412.142-1.023.498-2.16 1.943-2.654 3.37-.44 1.273-.483 2.669-.117 3.803.42 1.263 1.167 2.332 2.17 3.223.29.634-.117 1.078.07 2.771.437 4.05 1.412 6.488 6.774 6.488 5.363 0 6.338-2.437 6.775-6.488.187-1.693-.22-2.137.07-2.771 1.003-.89 1.751-1.96 2.17-3.223.367-1.134.324-2.53-.116-3.803-.494-1.427-1.632-2.872-2.654-3.37-.183-.088-.31-.135-.413-.142a.34.34 0 0 0-.262.096s.7.72.779 1.427c-.147.515-1.136.432-1.136.432s1.525 1.405 1.794 2.498c.216.918.099 2.615-.919 3.04 0 0-2.534-.878-6.088-.878-3.553 0-6.086.878-6.086.878-1.018-.425-1.136-2.122-.92-3.04.27-1.093 1.794-2.498 1.794-2.498s-.989.083-1.135-.432c.078-.707.778-1.427.778-1.427a.35.35 0 0 0-.224-.097m9.452 13.462a1.864 2.267 26.323 0 1 .781.171 1.864 2.267 26.323 0 1 .631 2.874 1.864 2.267 26.323 0 1-2.684 1.169 1.864 2.267 26.323 0 1-.631-2.874 1.864 2.267 26.323 0 1 1.903-1.34m-7.315 0a2.267 1.864 63.677 0 1 1.903 1.34 2.267 1.864 63.677 0 1-.631 2.874 2.267 1.864 63.677 0 1-2.684-1.168 2.267 1.864 63.677 0 1 .631-2.874 2.267 1.864 63.677 0 1 .781-.171" style="fill:#0a0010;fill-opacity:.02176704;stroke-width:.487468"/><path d="m11.274 7.384-.037.001c-.103.007-.23.053-.413.142-1.022.498-2.16 1.942-2.654 3.37-.44 1.273-.483 2.668-.117 3.803.42 1.263 1.167 2.332 2.17 3.222.291.635-.117 1.079.07 2.772.438 4.05 1.413 6.488 6.775 6.488s6.337-2.437 6.774-6.488c.188-1.693-.22-2.137.07-2.772 1.004-.89 1.751-1.96 2.171-3.222.366-1.135.323-2.53-.117-3.803-.494-1.428-1.632-2.872-2.654-3.37-.182-.089-.31-.135-.413-.142a.34.34 0 0 0-.262.096s.701.72.78 1.426c-.148.516-1.137.433-1.137.433s1.525 1.404 1.794 2.497c.217.919.1 2.616-.919 3.041 0 0-2.534-.878-6.087-.878s-6.087.878-6.087.878c-1.018-.425-1.136-2.122-.92-3.04.27-1.094 1.795-2.498 1.795-2.498s-.99.083-1.136-.433c.078-.707.779-1.426.779-1.426a.35.35 0 0 0-.225-.097m9.45 13.462a1.864 2.267 26.323 0 1 .783.171 1.864 2.267 26.323 0 1 .63 2.874 1.864 2.267 26.323 0 1-2.683 1.168 1.864 2.267 26.323 0 1-.632-2.873 1.864 2.267 26.323 0 1 1.903-1.34m-7.313 0a2.267 1.864 63.677 0 1 1.902 1.34 2.267 1.864 63.677 0 1-.631 2.874 2.267 1.864 63.677 0 1-2.684-1.168 2.267 1.864 63.677 0 1 .631-2.874 2.267 1.864 63.677 0 1 .782-.171" style="fill:#0a0010;fill-opacity:.02176704;stroke-width:.487468"/><path d="M11.367 7.458h-.037c-.103.008-.23.054-.412.143-1.023.498-2.16 1.942-2.654 3.37-.441 1.273-.483 2.668-.118 3.803.42 1.262 1.167 2.332 2.17 3.222.291.635-.117 1.078.07 2.772.438 4.05 1.413 6.488 6.775 6.488s6.338-2.438 6.775-6.488c.187-1.694-.221-2.137.07-2.772 1.003-.89 1.75-1.96 2.17-3.222.366-1.135.324-2.53-.117-3.803-.494-1.428-1.631-2.872-2.654-3.37-.182-.089-.31-.135-.412-.142a.34.34 0 0 0-.263.095s.701.72.78 1.427c-.147.516-1.136.433-1.136.433s1.525 1.404 1.793 2.497c.217.918.1 2.615-.918 3.04 0 0-2.534-.878-6.088-.878s-6.087.879-6.087.879c-1.018-.426-1.135-2.123-.919-3.04.27-1.094 1.794-2.498 1.794-2.498s-.989.083-1.136-.433c.078-.707.779-1.427.779-1.427a.35.35 0 0 0-.225-.096m9.451 13.462a1.864 2.267 26.323 0 1 .782.171 1.864 2.267 26.323 0 1 .631 2.874 1.864 2.267 26.323 0 1-2.684 1.168 1.864 2.267 26.323 0 1-.631-2.873 1.864 2.267 26.323 0 1 1.902-1.34m-7.314 0a2.267 1.864 63.677 0 1 1.903 1.34 2.267 1.864 63.677 0 1-.632 2.874 2.267 1.864 63.677 0 1-2.684-1.169 2.267 1.864 63.677 0 1 .632-2.874 2.267 1.864 63.677 0 1 .781-.17" style="fill:#0a0010;fill-opacity:.02176704;stroke-width:.487468"/><path d="m11.499 7.48-.038.002c-.102.007-.23.053-.412.142-1.023.498-2.16 1.942-2.654 3.37-.44 1.273-.483 2.668-.117 3.802.42 1.263 1.167 2.333 2.17 3.223.29.635-.117 1.078.07 2.772.437 4.05 1.412 6.488 6.774 6.488 5.363 0 6.338-2.438 6.775-6.488.187-1.694-.22-2.137.07-2.772 1.003-.89 1.751-1.96 2.171-3.223.366-1.134.323-2.53-.117-3.802-.494-1.428-1.632-2.872-2.654-3.37-.183-.089-.31-.135-.413-.142a.34.34 0 0 0-.262.095s.7.72.779 1.427c-.147.516-1.136.433-1.136.433s1.525 1.404 1.794 2.497c.216.918.099 2.615-.919 3.04 0 0-2.534-.878-6.087-.878s-6.087.879-6.087.879c-1.018-.426-1.136-2.123-.92-3.04.27-1.094 1.794-2.498 1.794-2.498s-.989.083-1.135-.433c.078-.707.778-1.427.778-1.427a.35.35 0 0 0-.224-.096m9.45 13.463a1.864 2.267 26.323 0 1 .783.17 1.864 2.267 26.323 0 1 .63 2.875 1.864 2.267 26.323 0 1-2.684 1.168 1.864 2.267 26.323 0 1-.631-2.873 1.864 2.267 26.323 0 1 1.903-1.34m-7.314 0a2.267 1.864 63.677 0 1 1.903 1.34 2.267 1.864 63.677 0 1-.631 2.874 2.267 1.864 63.677 0 1-2.684-1.169 2.267 1.864 63.677 0 1 .631-2.874 2.267 1.864 63.677 0 1 .781-.17" style="fill:#0a0010;fill-opacity:.02176704;stroke-width:.487468"/><path d="m11.592 7.554-.037.001c-.103.008-.23.054-.413.142-1.022.498-2.16 1.943-2.654 3.37-.44 1.273-.483 2.669-.117 3.803.42 1.263 1.167 2.332 2.17 3.223.291.635-.117 1.078.07 2.772.438 4.05 1.413 6.488 6.775 6.488s6.337-2.438 6.775-6.488c.187-1.694-.221-2.137.07-2.772 1.003-.89 1.75-1.96 2.17-3.223.366-1.134.324-2.53-.117-3.803-.494-1.427-1.631-2.872-2.654-3.37-.182-.088-.31-.134-.412-.142a.34.34 0 0 0-.263.096s.701.72.78 1.427c-.147.516-1.136.432-1.136.432s1.524 1.405 1.793 2.498c.217.918.1 2.615-.919 3.04 0 0-2.533-.878-6.087-.878s-6.087.878-6.087.878c-1.018-.425-1.135-2.122-.919-3.04.269-1.093 1.794-2.498 1.794-2.498s-.99.084-1.136-.432c.078-.707.779-1.427.779-1.427a.35.35 0 0 0-.225-.097m9.451 13.463a1.864 2.267 26.323 0 1 .782.17 1.864 2.267 26.323 0 1 .63 2.874 1.864 2.267 26.323 0 1-2.683 1.169 1.864 2.267 26.323 0 1-.632-2.873 1.864 2.267 26.323 0 1 1.903-1.34m-7.314 0a2.267 1.864 63.677 0 1 1.903 1.34A2.267 1.864 63.677 0 1 15 25.23a2.267 1.864 63.677 0 1-2.684-1.168 2.267 1.864 63.677 0 1 .631-2.874 2.267 1.864 63.677 0 1 .782-.17" style="fill:#0a0010;fill-opacity:.02176704;stroke-width:.487468"/><path d="m11.723 7.577-.037.001c-.103.007-.23.054-.412.142-1.023.498-2.16 1.943-2.654 3.37-.441 1.273-.483 2.669-.118 3.803.42 1.263 1.167 2.332 2.17 3.223.292.635-.117 1.078.07 2.772.438 4.05 1.413 6.488 6.775 6.488s6.338-2.438 6.775-6.488c.187-1.694-.221-2.137.07-2.772 1.003-.89 1.751-1.96 2.17-3.223.366-1.134.324-2.53-.117-3.803-.494-1.427-1.631-2.872-2.654-3.37-.182-.088-.31-.134-.412-.142a.34.34 0 0 0-.263.096s.702.72.78 1.427c-.147.516-1.136.432-1.136.432s1.525 1.405 1.794 2.498c.216.918.099 2.615-.92 3.04 0 0-2.533-.878-6.087-.878s-6.087.878-6.087.878c-1.018-.425-1.135-2.122-.918-3.04.268-1.093 1.793-2.498 1.793-2.498s-.989.084-1.136-.432c.079-.707.78-1.427.78-1.427a.35.35 0 0 0-.226-.097m9.451 13.462a1.864 2.267 26.323 0 1 .782.172 1.864 2.267 26.323 0 1 .631 2.873 1.864 2.267 26.323 0 1-2.684 1.169 1.864 2.267 26.323 0 1-.631-2.874 1.864 2.267 26.323 0 1 1.902-1.34m-7.314.001a2.267 1.864 63.677 0 1 1.903 1.34 2.267 1.864 63.677 0 1-.632 2.873 2.267 1.864 63.677 0 1-2.684-1.168 2.267 1.864 63.677 0 1 .632-2.874 2.267 1.864 63.677 0 1 .781-.171" style="fill:#0a0010;fill-opacity:.02176704;stroke-width:.487468"/><path d="m11.868 7.643-.037.001c-.103.007-.23.053-.413.142-1.022.498-2.16 1.943-2.654 3.37-.44 1.273-.483 2.668-.117 3.803.42 1.263 1.167 2.332 2.17 3.222.291.635-.117 1.079.07 2.772.438 4.05 1.413 6.488 6.775 6.488s6.337-2.437 6.775-6.488c.187-1.693-.221-2.137.07-2.772 1.003-.89 1.75-1.96 2.17-3.222.366-1.135.324-2.53-.117-3.803-.494-1.427-1.632-2.872-2.654-3.37-.182-.089-.31-.135-.412-.142a.34.34 0 0 0-.263.096s.701.72.78 1.426c-.147.516-1.137.433-1.137.433s1.525 1.405 1.794 2.498c.217.918.1 2.615-.919 3.04 0 0-2.533-.878-6.087-.878s-6.087.878-6.087.878c-1.018-.425-1.135-2.122-.919-3.04.269-1.093 1.794-2.498 1.794-2.498s-.99.083-1.136-.433c.078-.706.779-1.426.779-1.426a.35.35 0 0 0-.225-.097m9.451 13.462a1.864 2.267 26.323 0 1 .782.171 1.864 2.267 26.323 0 1 .63 2.874 1.864 2.267 26.323 0 1-2.683 1.168 1.864 2.267 26.323 0 1-.632-2.873 1.864 2.267 26.323 0 1 1.903-1.34m-7.314 0a2.267 1.864 63.677 0 1 1.902 1.34 2.267 1.864 63.677 0 1-.631 2.874 2.267 1.864 63.677 0 1-2.684-1.168 2.267 1.864 63.677 0 1 .631-2.874 2.267 1.864 63.677 0 1 .782-.171" style="fill:#0a0010;fill-opacity:.02176704;stroke-width:.487468"/><path d="M12.043 7.705h-.037c-.103.008-.23.054-.413.143-1.022.498-2.16 1.942-2.654 3.37-.44 1.272-.483 2.668-.117 3.802.42 1.263 1.167 2.333 2.17 3.223.291.635-.117 1.078.07 2.772.438 4.05 1.413 6.488 6.775 6.488s6.337-2.438 6.775-6.488c.187-1.694-.221-2.137.07-2.772 1.003-.89 1.75-1.96 2.17-3.223.366-1.134.324-2.53-.117-3.802-.494-1.428-1.631-2.872-2.654-3.37-.182-.089-.31-.135-.412-.142a.34.34 0 0 0-.263.095s.701.72.78 1.427c-.147.516-1.136.432-1.136.432s1.524 1.405 1.793 2.498c.217.918.1 2.615-.919 3.04 0 0-2.533-.878-6.087-.878s-6.087.879-6.087.879c-1.018-.426-1.135-2.123-.919-3.041.27-1.093 1.794-2.497 1.794-2.497s-.99.083-1.136-.433c.078-.707.779-1.427.779-1.427a.35.35 0 0 0-.225-.096m9.451 13.462a1.864 2.267 26.323 0 1 .782.17 1.864 2.267 26.323 0 1 .631 2.875 1.864 2.267 26.323 0 1-2.684 1.168 1.864 2.267 26.323 0 1-.632-2.873 1.864 2.267 26.323 0 1 1.903-1.34m-7.314 0a2.267 1.864 63.677 0 1 1.903 1.34 2.267 1.864 63.677 0 1-.632 2.873 2.267 1.864 63.677 0 1-2.684-1.168 2.267 1.864 63.677 0 1 .632-2.874 2.267 1.864 63.677 0 1 .78-.17" style="fill:#0a0010;fill-opacity:.02176704;stroke-width:.487468"/><path d="m12.257 7.757-.037.002c-.103.007-.23.053-.412.142-1.023.497-2.16 1.942-2.654 3.37-.441 1.272-.483 2.668-.118 3.802.42 1.263 1.167 2.333 2.17 3.223.291.635-.117 1.078.07 2.772.438 4.05 1.413 6.488 6.775 6.488s6.338-2.438 6.775-6.488c.187-1.694-.221-2.137.07-2.772 1.003-.89 1.75-1.96 2.17-3.223.366-1.134.324-2.53-.117-3.803-.494-1.427-1.631-2.872-2.654-3.37-.182-.088-.31-.134-.412-.141a.34.34 0 0 0-.263.095s.702.72.78 1.427c-.147.516-1.136.432-1.136.432s1.525 1.405 1.794 2.498c.216.918.099 2.615-.92 3.04 0 0-2.533-.878-6.087-.878s-6.087.879-6.087.879c-1.018-.426-1.135-2.123-.919-3.041.27-1.093 1.794-2.498 1.794-2.498s-.989.084-1.136-.432c.078-.707.78-1.427.78-1.427a.35.35 0 0 0-.226-.097m9.451 13.463a1.864 2.267 26.323 0 1 .782.17 1.864 2.267 26.323 0 1 .631 2.874 1.864 2.267 26.323 0 1-2.684 1.169 1.864 2.267 26.323 0 1-.631-2.873 1.864 2.267 26.323 0 1 1.902-1.34m-7.314 0a2.267 1.864 63.677 0 1 1.903 1.34 2.267 1.864 63.677 0 1-.632 2.873 2.267 1.864 63.677 0 1-2.684-1.168 2.267 1.864 63.677 0 1 .632-2.874 2.267 1.864 63.677 0 1 .781-.17" style="fill:#0a0010;fill-opacity:.02176704;stroke-width:.487468"/></g><path d="M11.157 7.184h-.037c-.103.008-.23.054-.413.143-1.022.498-2.16 1.942-2.654 3.37-.44 1.273-.483 2.668-.117 3.803.42 1.263 1.167 2.332 2.17 3.222.291.635-.117 1.078.07 2.772.438 4.05 1.413 6.488 6.775 6.488s6.337-2.438 6.775-6.488c.187-1.694-.221-2.137.07-2.772 1.003-.89 1.75-1.96 2.17-3.222.366-1.135.324-2.53-.117-3.803-.494-1.428-1.632-2.872-2.654-3.37-.182-.089-.31-.135-.412-.142a.34.34 0 0 0-.263.095s.701.72.78 1.427c-.147.516-1.137.433-1.137.433s1.525 1.404 1.794 2.497c.217.919.1 2.615-.919 3.04 0 0-2.533-.878-6.087-.878s-6.087.879-6.087.879c-1.018-.426-1.135-2.122-.919-3.04.269-1.094 1.794-2.498 1.794-2.498s-.99.083-1.136-.433c.078-.707.779-1.427.779-1.427a.35.35 0 0 0-.225-.096m9.451 13.462a1.864 2.267 26.323 0 1 .782.171 1.864 2.267 26.323 0 1 .63 2.874 1.864 2.267 26.323 0 1-2.683 1.168 1.864 2.267 26.323 0 1-.632-2.873 1.864 2.267 26.323 0 1 1.903-1.34m-7.314 0a2.267 1.864 63.677 0 1 1.902 1.34 2.267 1.864 63.677 0 1-.631 2.874 2.267 1.864 63.677 0 1-2.684-1.169 2.267 1.864 63.677 0 1 .631-2.873 2.267 1.864 63.677 0 1 .782-.171" style="fill:url(#e);stroke-width:.487468;fill-opacity:1"/></svg>