<?xml version="1.0" encoding="UTF-8" standalone="no"?>
<svg
   width="128"
   height="128"
   viewBox="0 0 33.866666 33.866668"
   version="1.1"
   id="svg1443"
   inkscape:version="1.1.2 (0a00cf5339, 2022-02-04)"
   sodipodi:docname="hollow-knight.svg"
   xmlns:inkscape="http://www.inkscape.org/namespaces/inkscape"
   xmlns:sodipodi="http://sodipodi.sourceforge.net/DTD/sodipodi-0.dtd"
   xmlns:xlink="http://www.w3.org/1999/xlink"
   xmlns="http://www.w3.org/2000/svg"
   xmlns:svg="http://www.w3.org/2000/svg"
   xmlns:rdf="http://www.w3.org/1999/02/22-rdf-syntax-ns#"
   xmlns:cc="http://creativecommons.org/ns#"
   xmlns:dc="http://purl.org/dc/elements/1.1/">
  <defs
     id="defs1437">
    <linearGradient
       inkscape:collect="always"
       id="linearGradient1506">
      <stop
         style="stop-color:#ffffff;stop-opacity:1;"
         offset="0"
         id="stop1502" />
      <stop
         style="stop-color:#8700de;stop-opacity:1"
         offset="1"
         id="stop1504" />
    </linearGradient>
    <linearGradient
       gradientTransform="matrix(0.97573206,0,0,0.97573206,-111.76517,-37.182508)"
       gradientUnits="userSpaceOnUse"
       y2="70.679932"
       x2="132.21078"
       y1="42.151531"
       x1="132.21078"
       id="linearGradient1632"
       xlink:href="#linearGradient1630"
       inkscape:collect="always" />
    <linearGradient
       id="linearGradient1630"
       inkscape:collect="always">
      <stop
         id="stop1626"
         offset="0"
         style="stop-color:#c500e5;stop-opacity:1" />
      <stop
         id="stop1628"
         offset="1"
         style="stop-color:#7a00dd;stop-opacity:1" />
    </linearGradient>
    <filter
       color-interpolation-filters="sRGB"
       height="1.1311001"
       width="1.1106"
       y="-0.065563001"
       x="-0.055319"
       id="c-9">
      <feGaussianBlur
         id="feGaussianBlur1093"
         stdDeviation="1.1062912" />
    </filter>
    <linearGradient
       gradientUnits="userSpaceOnUse"
       gradientTransform="matrix(0.13235,0,0,0.13075,-32.379,1.0873)"
       y2="269.48999"
       y1="235.14999"
       x2="657.65002"
       x1="319.20999"
       id="a-12">
      <stop
         id="stop1076"
         offset="0"
         stop-color="#e54c18" />
      <stop
         id="stop1078"
         offset="1"
         stop-color="#fec350" />
    </linearGradient>
    <linearGradient
       inkscape:collect="always"
       id="linearGradient2050">
      <stop
         style="stop-color:#6a2b0c;stop-opacity:1;"
         offset="0"
         id="stop2046" />
      <stop
         style="stop-color:#6a2b0c;stop-opacity:0.82352941;"
         offset="0.46019328"
         id="stop2054" />
      <stop
         style="stop-color:#6a2b0c;stop-opacity:0.61960784;"
         offset="0.55980784"
         id="stop2074" />
      <stop
         style="stop-color:#6a2b0c;stop-opacity:0.55294118;"
         offset="0.59674543"
         id="stop2092" />
      <stop
         style="stop-color:#6a2b0c;stop-opacity:0.45882353;"
         offset="0.6603334"
         id="stop2102" />
      <stop
         style="stop-color:#6a2b0c;stop-opacity:0.35294118;"
         offset="0.73342222"
         id="stop2100" />
      <stop
         style="stop-color:#6a2b0c;stop-opacity:0.25882353;"
         offset="0.79290068"
         id="stop2098" />
      <stop
         style="stop-color:#6a2b0c;stop-opacity:0.19215686;"
         offset="0.83187062"
         id="stop2086" />
      <stop
         style="stop-color:#6a2b0c;stop-opacity:0.11372549;"
         offset="0.89167756"
         id="stop2088" />
      <stop
         style="stop-color:#6a2b0c;stop-opacity:0.0627451;"
         offset="0.93840277"
         id="stop2090" />
      <stop
         style="stop-color:#6a2b0c;stop-opacity:0.03921569;"
         offset="0.96329844"
         id="stop2056" />
      <stop
         style="stop-color:#6a2b0c;stop-opacity:0;"
         offset="1"
         id="stop2048" />
    </linearGradient>
    <radialGradient
       inkscape:collect="always"
       xlink:href="#linearGradient2050"
       id="radialGradient2270"
       cx="-571.09357"
       cy="434.78534"
       fx="-571.09357"
       fy="434.78534"
       r="229.44476"
       gradientUnits="userSpaceOnUse"
       gradientTransform="matrix(1.0612895,0,0,1.0612895,400.72106,-182.52731)" />
    <linearGradient
       id="b"
       x2="1"
       gradientTransform="matrix(0.33688162,-19.859257,19.859257,0.33688162,15.949012,26.785076)"
       gradientUnits="userSpaceOnUse">
      <stop
         stop-color="#ff9300"
         offset="0"
         id="stop7" />
      <stop
         stop-color="#ffd702"
         offset="1"
         id="stop9" />
    </linearGradient>
    <linearGradient
       inkscape:collect="always"
       xlink:href="#linearGradient1506"
       id="linearGradient1508"
       x1="7.6892467"
       y1="10.894557"
       x2="7.6892467"
       y2="62.209305"
       gradientUnits="userSpaceOnUse" />
  </defs>
  <sodipodi:namedview
     id="base"
     pagecolor="#ffffff"
     bordercolor="#666666"
     borderopacity="1.0"
     inkscape:pageopacity="0.0"
     inkscape:pageshadow="2"
     inkscape:zoom="1.9570313"
     inkscape:cx="-10.730539"
     inkscape:cy="40.622754"
     inkscape:document-units="mm"
     inkscape:current-layer="layer1"
     inkscape:document-rotation="0"
     showgrid="false"
     units="px"
     inkscape:window-width="1920"
     inkscape:window-height="1032"
     inkscape:window-x="0"
     inkscape:window-y="24"
     inkscape:window-maximized="1"
     inkscape:pagecheckerboard="0" />
  <metadata
     id="metadata1440">
    <rdf:RDF>
      <cc:Work
         rdf:about="">
        <dc:format>image/svg+xml</dc:format>
        <dc:type
           rdf:resource="http://purl.org/dc/dcmitype/StillImage" />
      </cc:Work>
    </rdf:RDF>
  </metadata>
  <g
     inkscape:label="Capa 1"
     inkscape:groupmode="layer"
     id="layer1">
    <g
       style="opacity:0.295"
       transform="matrix(0.97573206,0,0,0.97573206,-65.737228,-37.182508)"
       id="g1702">
      <rect
         ry="6.6098609"
         rx="6.6098609"
         y="40.709618"
         x="69.839508"
         height="29.810888"
         width="29.810888"
         id="rect1634"
         style="fill:none;fill-opacity:1;stroke:#000000;stroke-width:0.1;stroke-linecap:round;stroke-linejoin:round;stroke-miterlimit:4;stroke-dasharray:none;stroke-opacity:0.02" />
      <rect
         style="fill:none;fill-opacity:1;stroke:#000000;stroke-width:0.2;stroke-linecap:round;stroke-linejoin:round;stroke-miterlimit:4;stroke-dasharray:none;stroke-opacity:0.02"
         id="rect1638"
         width="29.810888"
         height="29.810888"
         x="69.839508"
         y="40.709618"
         rx="6.6098609"
         ry="6.6098609" />
      <rect
         ry="6.6098609"
         rx="6.6098609"
         y="40.709618"
         x="69.839508"
         height="29.810888"
         width="29.810888"
         id="rect1640"
         style="fill:none;fill-opacity:1;stroke:#000000;stroke-width:0.3;stroke-linecap:round;stroke-linejoin:round;stroke-miterlimit:4;stroke-dasharray:none;stroke-opacity:0.02" />
      <rect
         style="fill:none;fill-opacity:1;stroke:#000000;stroke-width:0.4;stroke-linecap:round;stroke-linejoin:round;stroke-miterlimit:4;stroke-dasharray:none;stroke-opacity:0.02"
         id="rect1642"
         width="29.810888"
         height="29.810888"
         x="69.839508"
         y="40.709618"
         rx="6.6098609"
         ry="6.6098609" />
      <rect
         ry="6.6098609"
         rx="6.6098609"
         y="40.709618"
         x="69.839508"
         height="29.810888"
         width="29.810888"
         id="rect1644"
         style="fill:none;fill-opacity:1;stroke:#000000;stroke-width:0.5;stroke-linecap:round;stroke-linejoin:round;stroke-miterlimit:4;stroke-dasharray:none;stroke-opacity:0.02" />
      <rect
         style="fill:none;fill-opacity:1;stroke:#000000;stroke-width:0.6;stroke-linecap:round;stroke-linejoin:round;stroke-miterlimit:4;stroke-dasharray:none;stroke-opacity:0.02"
         id="rect1646"
         width="29.810888"
         height="29.810888"
         x="69.839508"
         y="40.709618"
         rx="6.6098609"
         ry="6.6098609" />
      <rect
         ry="6.6098609"
         rx="6.6098609"
         y="40.709618"
         x="69.839508"
         height="29.810888"
         width="29.810888"
         id="rect1648"
         style="fill:none;fill-opacity:1;stroke:#000000;stroke-width:0.7;stroke-linecap:round;stroke-linejoin:round;stroke-miterlimit:4;stroke-dasharray:none;stroke-opacity:0.02" />
      <rect
         style="fill:none;fill-opacity:1;stroke:#000000;stroke-width:0.8;stroke-linecap:round;stroke-linejoin:round;stroke-miterlimit:4;stroke-dasharray:none;stroke-opacity:0.02"
         id="rect1650"
         width="29.810888"
         height="29.810888"
         x="69.839508"
         y="40.709618"
         rx="6.6098609"
         ry="6.6098609" />
      <rect
         ry="6.6098609"
         rx="6.6098609"
         y="40.709618"
         x="69.839508"
         height="29.810888"
         width="29.810888"
         id="rect1652"
         style="fill:none;fill-opacity:1;stroke:#000000;stroke-width:1;stroke-linecap:round;stroke-linejoin:round;stroke-miterlimit:4;stroke-dasharray:none;stroke-opacity:0.02" />
      <rect
         style="fill:none;fill-opacity:1;stroke:#000000;stroke-width:1.2;stroke-linecap:round;stroke-linejoin:round;stroke-miterlimit:4;stroke-dasharray:none;stroke-opacity:0.02"
         id="rect1654"
         width="29.810888"
         height="29.810888"
         x="69.839508"
         y="40.709618"
         rx="6.6098609"
         ry="6.6098609" />
      <rect
         ry="6.6098609"
         rx="6.6098609"
         y="40.709618"
         x="69.839508"
         height="29.810888"
         width="29.810888"
         id="rect1656"
         style="fill:none;fill-opacity:1;stroke:#000000;stroke-width:1.4;stroke-linecap:round;stroke-linejoin:round;stroke-miterlimit:4;stroke-dasharray:none;stroke-opacity:0.02" />
      <rect
         style="fill:none;fill-opacity:1;stroke:#000000;stroke-width:1.6;stroke-linecap:round;stroke-linejoin:round;stroke-miterlimit:4;stroke-dasharray:none;stroke-opacity:0.02"
         id="rect1658"
         width="29.810888"
         height="29.810888"
         x="69.839508"
         y="40.709618"
         rx="6.6098609"
         ry="6.6098609" />
      <rect
         ry="6.6098609"
         rx="6.6098609"
         y="40.709618"
         x="69.839508"
         height="29.810888"
         width="29.810888"
         id="rect1660"
         style="fill:none;fill-opacity:1;stroke:#000000;stroke-width:1.8;stroke-linecap:round;stroke-linejoin:round;stroke-miterlimit:4;stroke-dasharray:none;stroke-opacity:0.02" />
      <rect
         style="fill:none;fill-opacity:1;stroke:#000000;stroke-width:2;stroke-linecap:round;stroke-linejoin:round;stroke-miterlimit:4;stroke-dasharray:none;stroke-opacity:0.02"
         id="rect1662"
         width="29.810888"
         height="29.810888"
         x="69.839508"
         y="40.709618"
         rx="6.6098609"
         ry="6.6098609" />
      <rect
         ry="6.6098609"
         rx="6.6098609"
         y="40.709618"
         x="69.839508"
         height="29.810888"
         width="29.810888"
         id="rect1664"
         style="fill:none;fill-opacity:1;stroke:#000000;stroke-width:2.2;stroke-linecap:round;stroke-linejoin:round;stroke-miterlimit:4;stroke-dasharray:none;stroke-opacity:0.02" />
      <rect
         style="fill:none;fill-opacity:1;stroke:#000000;stroke-width:2.6;stroke-linecap:round;stroke-linejoin:round;stroke-miterlimit:4;stroke-dasharray:none;stroke-opacity:0.02"
         id="rect1666"
         width="29.810888"
         height="29.810888"
         x="69.839508"
         y="40.709618"
         rx="6.6098609"
         ry="6.6098609" />
      <rect
         ry="6.6098609"
         rx="6.6098609"
         y="40.709618"
         x="69.839508"
         height="29.810888"
         width="29.810888"
         id="rect1668"
         style="fill:none;fill-opacity:1;stroke:#000000;stroke-width:3;stroke-linecap:round;stroke-linejoin:round;stroke-miterlimit:4;stroke-dasharray:none;stroke-opacity:0.02" />
      <rect
         style="fill:none;fill-opacity:1;stroke:#000000;stroke-width:3.4;stroke-linecap:round;stroke-linejoin:round;stroke-miterlimit:4;stroke-dasharray:none;stroke-opacity:0.02"
         id="rect1670"
         width="29.810888"
         height="29.810888"
         x="69.839508"
         y="40.709618"
         rx="6.6098609"
         ry="6.6098609" />
      <rect
         ry="6.6098609"
         rx="6.6098609"
         y="40.709618"
         x="69.839508"
         height="29.810888"
         width="29.810888"
         id="rect1672"
         style="fill:none;fill-opacity:1;stroke:#000000;stroke-width:3.8;stroke-linecap:round;stroke-linejoin:round;stroke-miterlimit:4;stroke-dasharray:none;stroke-opacity:0.02" />
      <rect
         style="fill:none;fill-opacity:1;stroke:#000000;stroke-width:4.2;stroke-linecap:round;stroke-linejoin:round;stroke-miterlimit:4;stroke-dasharray:none;stroke-opacity:0.02"
         id="rect1674"
         width="29.810888"
         height="29.810888"
         x="69.839508"
         y="40.709618"
         rx="6.6098609"
         ry="6.6098609" />
      <rect
         ry="6.6098609"
         rx="6.6098609"
         y="40.709618"
         x="69.839508"
         height="29.810888"
         width="29.810888"
         id="rect1676"
         style="fill:none;fill-opacity:1;stroke:#000000;stroke-width:4.6;stroke-linecap:round;stroke-linejoin:round;stroke-miterlimit:4;stroke-dasharray:none;stroke-opacity:0.02" />
      <rect
         style="fill:none;fill-opacity:1;stroke:#000000;stroke-width:5;stroke-linecap:round;stroke-linejoin:round;stroke-miterlimit:4;stroke-dasharray:none;stroke-opacity:0.02"
         id="rect1678"
         width="29.810888"
         height="29.810888"
         x="69.839508"
         y="40.709618"
         rx="6.6098609"
         ry="6.6098609" />
    </g>
    <rect
       ry="6.4494534"
       rx="6.4494534"
       y="2.5391712"
       x="2.4074187"
       height="29.087439"
       width="29.087439"
       id="rect849"
       style="fill:url(#linearGradient1632);fill-opacity:1;stroke-width:2.68768;stroke-linecap:round;stroke-linejoin:round" />
    <g
       id="g2995"
       style="fill:#0a0010;fill-opacity:0.02176704">
      <path
         id="path2914"
         style="fill:#0a0010;fill-opacity:0.02176704;stroke-width:0.487468"
         d="m 11.190518,7.3211873 c -0.01209,-3.416e-4 -0.02438,1.286e-4 -0.03721,0.00103 -0.10264,0.00719 -0.230144,0.05338 -0.412378,0.1421103 -1.0225109,0.4978133 -2.1599971,1.9423509 -2.654101,3.3698194 -0.440614,1.272938 -0.4830027,2.668509 -0.1173056,3.802868 0.4197601,1.262975 1.1670633,2.332296 2.1704096,3.222542 0.290798,0.634896 -0.11733,1.078271 0.06976,2.771923 0.437783,4.050386 1.412621,6.487976 6.77478,6.487976 5.362156,0 6.337484,-2.437591 6.77478,-6.487976 0.187094,-1.693652 -0.221027,-2.137027 0.06976,-2.771923 1.003347,-0.890246 1.751169,-1.959567 2.170927,-3.222542 0.365693,-1.134359 0.323306,-2.52993 -0.117305,-3.802868 -0.494093,-1.4274645 -1.631583,-2.8720026 -2.654092,-3.3698159 -0.182232,-0.08873 -0.309745,-0.1348697 -0.412378,-0.1421103 -0.10264,-0.00719 -0.179752,0.025571 -0.262516,0.095601 0,0 0.701116,0.7198625 0.77928,1.4267867 -0.146729,0.515856 -1.135847,0.432531 -1.135847,0.432531 0,0 1.524852,1.4045445 1.793689,2.4975225 0.216519,0.918267 0.09916,2.615214 -0.918808,3.04064 0,0 -2.533764,-0.878498 -6.087483,-0.878498 -3.553719,0 -6.086967,0.878498 -6.086967,0.878498 C 9.8795355,14.389876 9.7621891,12.69293 9.9787065,11.774662 10.247544,10.681684 11.772395,9.2771405 11.772395,9.2771405 c 0,0 -0.989121,0.08333 -1.135848,-0.432532 0.07817,-0.7069239 0.778764,-1.4267864 0.778764,-1.4267864 -0.07241,-0.061276 -0.140188,-0.094244 -0.224793,-0.096635 z m 9.451103,13.4622257 a 1.8640084,2.26679 26.323018 0 1 0.781864,0.171049 1.8640084,2.26679 26.323018 0 1 0.630969,2.873726 1.8640084,2.26679 26.323018 0 1 -2.684073,1.168405 1.8640084,2.26679 26.323018 0 1 -0.631486,-2.87321 1.8640084,2.26679 26.323018 0 1 1.902726,-1.33997 z m -7.314282,5.17e-4 a 2.26679,1.8640084 63.676982 0 1 1.902726,1.33997 2.26679,1.8640084 63.676982 0 1 -0.631486,2.873209 2.26679,1.8640084 63.676982 0 1 -2.684074,-1.168404 2.26679,1.8640084 63.676982 0 1 0.631486,-2.873726 2.26679,1.8640084 63.676982 0 1 0.781348,-0.171049 z" />
      <path
         id="path2970"
         style="fill:#0a0010;fill-opacity:0.02176704;stroke-width:0.487468"
         d="m 11.273747,7.3839934 c -0.01209,-3.416e-4 -0.02438,1.286e-4 -0.03721,0.00103 -0.10264,0.00719 -0.230144,0.05338 -0.412378,0.1421103 -1.0225108,0.4978133 -2.159997,1.9423509 -2.6541009,3.3698193 -0.440614,1.272938 -0.4830027,2.668509 -0.1173056,3.802868 0.4197601,1.262975 1.1670633,2.332296 2.1704095,3.222542 0.290798,0.634896 -0.11733,1.078271 0.06976,2.771923 0.437783,4.050386 1.412621,6.487976 6.77478,6.487976 5.362156,0 6.337484,-2.437591 6.77478,-6.487976 0.187094,-1.693652 -0.221027,-2.137027 0.06976,-2.771923 1.003347,-0.890246 1.751169,-1.959567 2.170927,-3.222542 0.365693,-1.134359 0.323306,-2.52993 -0.117305,-3.802868 C 25.471771,9.4694886 24.334281,8.0249505 23.311772,7.5271372 23.12954,7.4384072 23.002027,7.3922675 22.899394,7.3850269 c -0.10264,-0.00719 -0.179752,0.025571 -0.262516,0.095601 0,0 0.701116,0.7198625 0.77928,1.4267867 -0.146729,0.515856 -1.135847,0.432531 -1.135847,0.432531 0,0 1.524852,1.4045444 1.793689,2.4975224 0.216519,0.918267 0.09916,2.615214 -0.918808,3.04064 0,0 -2.533764,-0.878498 -6.087483,-0.878498 -3.553719,0 -6.086967,0.878498 -6.086967,0.878498 -1.0179774,-0.425426 -1.1353238,-2.122372 -0.918807,-3.04064 0.268838,-1.092978 1.793689,-2.4975214 1.793689,-2.4975214 0,0 -0.989121,0.08333 -1.135848,-0.432532 0.07817,-0.7069239 0.778764,-1.4267864 0.778764,-1.4267864 -0.07241,-0.061276 -0.140188,-0.094244 -0.224793,-0.096635 z M 20.72485,20.846219 a 1.8640084,2.26679 26.323018 0 1 0.781864,0.171049 1.8640084,2.26679 26.323018 0 1 0.630969,2.873726 1.8640084,2.26679 26.323018 0 1 -2.684073,1.168405 1.8640084,2.26679 26.323018 0 1 -0.631486,-2.87321 1.8640084,2.26679 26.323018 0 1 1.902726,-1.33997 z m -7.314282,5.17e-4 a 2.26679,1.8640084 63.676982 0 1 1.902726,1.33997 2.26679,1.8640084 63.676982 0 1 -0.631486,2.873209 2.26679,1.8640084 63.676982 0 1 -2.684074,-1.168404 2.26679,1.8640084 63.676982 0 1 0.631486,-2.873726 2.26679,1.8640084 63.676982 0 1 0.781348,-0.171049 z" />
      <path
         id="path2972"
         style="fill:#0a0010;fill-opacity:0.02176704;stroke-width:0.487468"
         d="m 11.367199,7.4576929 c -0.01209,-3.416e-4 -0.02438,1.286e-4 -0.03721,0.00103 -0.10264,0.00719 -0.230144,0.05338 -0.412378,0.1421103 C 9.8951,8.0986465 8.7576138,9.5431841 8.2635099,10.970653 c -0.440614,1.272938 -0.4830027,2.668509 -0.1173056,3.802868 0.4197601,1.262975 1.1670633,2.332296 2.1704097,3.222542 0.290798,0.634896 -0.11733,1.078271 0.06976,2.771923 0.437783,4.050386 1.412621,6.487976 6.77478,6.487976 5.362156,0 6.337484,-2.437591 6.77478,-6.487976 0.187094,-1.693652 -0.221027,-2.137027 0.06976,-2.771923 1.003347,-0.890246 1.751169,-1.959567 2.170927,-3.222542 0.365693,-1.134359 0.323306,-2.52993 -0.117305,-3.802868 C 25.565223,9.5431881 24.427733,8.09865 23.405224,7.6008367 23.222992,7.5121067 23.095479,7.465967 22.992846,7.4587264 c -0.10264,-0.00719 -0.179752,0.025571 -0.262516,0.095601 0,0 0.701116,0.7198625 0.77928,1.4267867 -0.146729,0.515856 -1.135847,0.432531 -1.135847,0.432531 0,0 1.524852,1.4045449 1.793689,2.4975229 0.216519,0.918267 0.09916,2.615214 -0.918808,3.04064 0,0 -2.533764,-0.878498 -6.087483,-0.878498 -3.553719,0 -6.086967,0.878498 -6.086967,0.878498 -1.017978,-0.425426 -1.135324,-2.122372 -0.918807,-3.04064 0.268838,-1.092978 1.793689,-2.4975219 1.793689,-2.4975219 0,0 -0.989121,0.08333 -1.135848,-0.432532 0.07817,-0.7069239 0.778764,-1.4267864 0.778764,-1.4267864 -0.07241,-0.061276 -0.140188,-0.094244 -0.224793,-0.096635 z m 9.451103,13.4622261 a 1.8640084,2.26679 26.323018 0 1 0.781864,0.171049 1.8640084,2.26679 26.323018 0 1 0.630969,2.873726 1.8640084,2.26679 26.323018 0 1 -2.684073,1.168405 1.8640084,2.26679 26.323018 0 1 -0.631486,-2.87321 1.8640084,2.26679 26.323018 0 1 1.902726,-1.33997 z m -7.314282,5.17e-4 a 2.26679,1.8640084 63.676982 0 1 1.902726,1.33997 2.26679,1.8640084 63.676982 0 1 -0.631486,2.873209 2.26679,1.8640084 63.676982 0 1 -2.684074,-1.168404 2.26679,1.8640084 63.676982 0 1 0.631486,-2.873726 2.26679,1.8640084 63.676982 0 1 0.781348,-0.171049 z" />
      <path
         id="path2974"
         style="fill:#0a0010;fill-opacity:0.02176704;stroke-width:0.487468"
         d="m 11.49854,7.4806282 c -0.01209,-3.416e-4 -0.02438,1.286e-4 -0.03721,0.00103 -0.10264,0.00719 -0.230144,0.05338 -0.412378,0.1421103 -1.022511,0.4978133 -2.1599972,1.9423509 -2.6541011,3.3698195 -0.440614,1.272938 -0.4830027,2.668509 -0.1173056,3.802868 0.4197601,1.262975 1.1670633,2.332296 2.1704097,3.222542 0.290798,0.634896 -0.11733,1.078271 0.06976,2.771923 0.437783,4.050386 1.412621,6.487976 6.77478,6.487976 5.362156,0 6.337484,-2.437591 6.77478,-6.487976 0.187094,-1.693652 -0.221027,-2.137027 0.06976,-2.771923 1.003347,-0.890246 1.751169,-1.959567 2.170927,-3.222542 0.365693,-1.134359 0.323306,-2.52993 -0.117305,-3.802868 C 25.696564,9.5661234 24.559074,8.1215853 23.536565,7.623772 23.354333,7.535042 23.22682,7.4889023 23.124187,7.4816617 c -0.10264,-0.00719 -0.179752,0.025571 -0.262516,0.095601 0,0 0.701116,0.7198625 0.77928,1.4267867 -0.146729,0.515856 -1.135847,0.432531 -1.135847,0.432531 0,0 1.524852,1.4045446 1.793689,2.4975226 0.216519,0.918267 0.09916,2.615214 -0.918808,3.04064 0,0 -2.533764,-0.878498 -6.087483,-0.878498 -3.553719,0 -6.086967,0.878498 -6.086967,0.878498 -1.017978,-0.425426 -1.135324,-2.122372 -0.918807,-3.04064 0.268838,-1.092978 1.793689,-2.4975216 1.793689,-2.4975216 0,0 -0.989121,0.08333 -1.135848,-0.432532 C 11.022739,8.2971255 11.723333,7.577263 11.723333,7.577263 11.650923,7.515987 11.583145,7.483019 11.49854,7.4806282 Z m 9.451103,13.4622258 a 1.8640084,2.26679 26.323018 0 1 0.781864,0.171049 1.8640084,2.26679 26.323018 0 1 0.630969,2.873726 1.8640084,2.26679 26.323018 0 1 -2.684073,1.168405 1.8640084,2.26679 26.323018 0 1 -0.631486,-2.87321 1.8640084,2.26679 26.323018 0 1 1.902726,-1.33997 z m -7.314282,5.17e-4 a 2.26679,1.8640084 63.676982 0 1 1.902726,1.33997 2.26679,1.8640084 63.676982 0 1 -0.631486,2.873209 2.26679,1.8640084 63.676982 0 1 -2.684074,-1.168404 2.26679,1.8640084 63.676982 0 1 0.631486,-2.873726 2.26679,1.8640084 63.676982 0 1 0.781348,-0.171049 z" />
      <path
         id="path2976"
         style="fill:#0a0010;fill-opacity:0.02176704;stroke-width:0.487468"
         d="m 11.591992,7.5543277 c -0.01209,-3.416e-4 -0.02438,1.286e-4 -0.03721,0.00103 -0.10264,0.00719 -0.230144,0.05338 -0.412378,0.1421103 -1.022511,0.4978133 -2.1599972,1.9423509 -2.6541011,3.36982 -0.440614,1.272938 -0.4830027,2.668509 -0.1173056,3.802868 0.4197601,1.262975 1.1670633,2.332296 2.1704097,3.222542 0.290798,0.634896 -0.11733,1.078271 0.06976,2.771923 0.437783,4.050386 1.412621,6.487976 6.77478,6.487976 5.362156,0 6.337484,-2.437591 6.77478,-6.487976 0.187094,-1.693652 -0.221027,-2.137027 0.06976,-2.771923 1.003347,-0.890246 1.751169,-1.959567 2.170927,-3.222542 0.365693,-1.134359 0.323306,-2.52993 -0.117305,-3.802868 -0.494093,-1.4274651 -1.631583,-2.8720032 -2.654092,-3.3698165 -0.182232,-0.08873 -0.309745,-0.1348697 -0.412378,-0.1421103 -0.10264,-0.00719 -0.179752,0.025571 -0.262516,0.095601 0,0 0.701116,0.7198625 0.77928,1.4267867 -0.146729,0.515856 -1.135847,0.432531 -1.135847,0.432531 0,0 1.524852,1.4045451 1.793689,2.4975231 0.216519,0.918267 0.09916,2.615214 -0.918808,3.04064 0,0 -2.533764,-0.878498 -6.087483,-0.878498 -3.553719,0 -6.086967,0.878498 -6.086967,0.878498 -1.017978,-0.425426 -1.135324,-2.122372 -0.918807,-3.04064 0.268838,-1.092978 1.793689,-2.4975221 1.793689,-2.4975221 0,0 -0.989121,0.08333 -1.135848,-0.432532 0.07817,-0.7069239 0.778764,-1.4267864 0.778764,-1.4267864 -0.07241,-0.061276 -0.140188,-0.094244 -0.224793,-0.096635 z m 9.451103,13.4622263 a 1.8640084,2.26679 26.323018 0 1 0.781864,0.171049 1.8640084,2.26679 26.323018 0 1 0.630969,2.873726 1.8640084,2.26679 26.323018 0 1 -2.684073,1.168405 1.8640084,2.26679 26.323018 0 1 -0.631486,-2.87321 1.8640084,2.26679 26.323018 0 1 1.902726,-1.33997 z m -7.314282,5.17e-4 a 2.26679,1.8640084 63.676982 0 1 1.902726,1.33997 2.26679,1.8640084 63.676982 0 1 -0.631486,2.873209 2.26679,1.8640084 63.676982 0 1 -2.684074,-1.168404 2.26679,1.8640084 63.676982 0 1 0.631486,-2.873726 2.26679,1.8640084 63.676982 0 1 0.781348,-0.171049 z" />
      <path
         id="path2978"
         style="fill:#0a0010;fill-opacity:0.02176704;stroke-width:0.487468"
         d="m 11.723333,7.577263 c -0.01209,-3.416e-4 -0.02438,1.286e-4 -0.03721,0.00103 -0.10264,0.00719 -0.230144,0.05338 -0.412378,0.1421103 -1.022511,0.4978133 -2.1599972,1.9423509 -2.6541011,3.3698197 -0.440614,1.272938 -0.4830027,2.668509 -0.1173056,3.802868 0.4197601,1.262975 1.1670633,2.332296 2.1704097,3.222542 0.290798,0.634896 -0.11733,1.078271 0.06976,2.771923 0.437783,4.050386 1.412621,6.487976 6.77478,6.487976 5.362156,0 6.337484,-2.437591 6.77478,-6.487976 0.187094,-1.693652 -0.221027,-2.137027 0.06976,-2.771923 1.003347,-0.890246 1.751169,-1.959567 2.170927,-3.222542 0.365693,-1.134359 0.323306,-2.52993 -0.117305,-3.802868 C 25.921357,9.6627582 24.783867,8.2182201 23.761358,7.7204068 23.579126,7.6316768 23.451613,7.5855371 23.34898,7.5782965 c -0.10264,-0.00719 -0.179752,0.025571 -0.262516,0.095601 0,0 0.701116,0.7198625 0.77928,1.4267867 -0.146729,0.515856 -1.135847,0.432531 -1.135847,0.432531 0,0 1.524852,1.4045448 1.793689,2.4975228 0.216519,0.918267 0.09916,2.615214 -0.918808,3.04064 0,0 -2.533764,-0.878498 -6.087483,-0.878498 -3.553719,0 -6.086967,0.878498 -6.086967,0.878498 -1.017978,-0.425426 -1.135324,-2.122372 -0.918807,-3.04064 0.268838,-1.092978 1.793689,-2.4975218 1.793689,-2.4975218 0,0 -0.989121,0.08333 -1.135848,-0.432532 0.07817,-0.7069239 0.778764,-1.4267864 0.778764,-1.4267864 -0.07241,-0.061276 -0.140188,-0.094244 -0.224793,-0.096635 z m 9.451103,13.462226 a 1.8640084,2.26679 26.323018 0 1 0.781864,0.171049 1.8640084,2.26679 26.323018 0 1 0.630969,2.873726 1.8640084,2.26679 26.323018 0 1 -2.684073,1.168405 1.8640084,2.26679 26.323018 0 1 -0.631486,-2.87321 1.8640084,2.26679 26.323018 0 1 1.902726,-1.33997 z m -7.314282,5.17e-4 a 2.26679,1.8640084 63.676982 0 1 1.902726,1.33997 2.26679,1.8640084 63.676982 0 1 -0.631486,2.873209 2.26679,1.8640084 63.676982 0 1 -2.684074,-1.168404 2.26679,1.8640084 63.676982 0 1 0.631486,-2.873726 2.26679,1.8640084 63.676982 0 1 0.781348,-0.171049 z" />
      <path
         id="path2980"
         style="fill:#0a0010;fill-opacity:0.02176704;stroke-width:0.487468"
         d="m 11.867893,7.6430295 c -0.01209,-3.416e-4 -0.02438,1.286e-4 -0.03721,0.00103 -0.10264,0.00719 -0.230144,0.05338 -0.412378,0.1421103 -1.022511,0.4978133 -2.1599971,1.9423509 -2.654101,3.3698202 -0.440614,1.272938 -0.4830027,2.668509 -0.1173056,3.802868 0.4197601,1.262975 1.1670633,2.332296 2.1704096,3.222542 0.290798,0.634896 -0.11733,1.078271 0.06976,2.771923 0.437783,4.050386 1.412621,6.487976 6.77478,6.487976 5.362156,0 6.337484,-2.437591 6.77478,-6.487976 0.187094,-1.693652 -0.221027,-2.137027 0.06976,-2.771923 1.003347,-0.890246 1.751169,-1.959567 2.170927,-3.222542 0.365693,-1.134359 0.323306,-2.52993 -0.117305,-3.802868 C 26.065917,9.7285247 24.928427,8.2839866 23.905918,7.7861733 23.723686,7.6974433 23.596173,7.6513036 23.49354,7.644063 23.3909,7.636873 23.313788,7.669634 23.231024,7.739664 c 0,0 0.701116,0.7198625 0.77928,1.4267867 -0.146729,0.515856 -1.135847,0.432531 -1.135847,0.432531 0,0 1.524852,1.4045453 1.793689,2.4975233 0.216519,0.918267 0.09916,2.615214 -0.918808,3.04064 0,0 -2.533764,-0.878498 -6.087483,-0.878498 -3.553719,0 -6.086967,0.878498 -6.086967,0.878498 -1.017978,-0.425426 -1.135324,-2.122372 -0.918807,-3.04064 0.268838,-1.092978 1.793689,-2.4975223 1.793689,-2.4975223 0,0 -0.989121,0.08333 -1.135848,-0.432532 0.07817,-0.7069239 0.778764,-1.4267864 0.778764,-1.4267864 -0.07241,-0.061276 -0.140188,-0.094244 -0.224793,-0.096635 z m 9.451103,13.4622265 a 1.8640084,2.26679 26.323018 0 1 0.781864,0.171049 1.8640084,2.26679 26.323018 0 1 0.630969,2.873726 1.8640084,2.26679 26.323018 0 1 -2.684073,1.168405 1.8640084,2.26679 26.323018 0 1 -0.631486,-2.87321 1.8640084,2.26679 26.323018 0 1 1.902726,-1.33997 z m -7.314282,5.17e-4 a 2.26679,1.8640084 63.676982 0 1 1.902726,1.33997 2.26679,1.8640084 63.676982 0 1 -0.631486,2.873209 2.26679,1.8640084 63.676982 0 1 -2.684074,-1.168404 2.26679,1.8640084 63.676982 0 1 0.631486,-2.873726 2.26679,1.8640084 63.676982 0 1 0.781348,-0.171049 z" />
      <path
         id="path2982"
         style="fill:#0a0010;fill-opacity:0.02176704;stroke-width:0.487468"
         d="m 12.043028,7.7045474 c -0.01209,-3.416e-4 -0.02438,1.286e-4 -0.03721,0.00103 -0.10264,0.00719 -0.230144,0.05338 -0.412378,0.1421103 -1.022511,0.4978133 -2.1599967,1.9423509 -2.6541006,3.3698203 -0.440614,1.272938 -0.4830027,2.668509 -0.1173056,3.802868 0.4197601,1.262975 1.1670633,2.332296 2.1704092,3.222542 0.290798,0.634896 -0.11733,1.078271 0.06976,2.771923 0.437783,4.050386 1.412621,6.487976 6.77478,6.487976 5.362156,0 6.337484,-2.437591 6.77478,-6.487976 0.187094,-1.693652 -0.221027,-2.137027 0.06976,-2.771923 1.003347,-0.890246 1.751169,-1.959567 2.170927,-3.222542 0.365693,-1.134359 0.323306,-2.52993 -0.117305,-3.802868 -0.494093,-1.4274654 -1.631583,-2.8720035 -2.654092,-3.3698168 -0.182232,-0.08873 -0.309745,-0.1348697 -0.412378,-0.1421103 -0.10264,-0.00719 -0.179752,0.025571 -0.262516,0.095601 0,0 0.701116,0.7198625 0.77928,1.4267867 -0.146729,0.515856 -1.135847,0.432531 -1.135847,0.432531 0,0 1.524852,1.4045454 1.793689,2.4975234 0.216519,0.918267 0.09916,2.615214 -0.918808,3.04064 0,0 -2.533764,-0.878498 -6.087483,-0.878498 -3.553719,0 -6.086967,0.878498 -6.086967,0.878498 -1.017978,-0.425426 -1.135324,-2.122372 -0.918807,-3.04064 0.268838,-1.092978 1.793689,-2.4975224 1.793689,-2.4975224 0,0 -0.989121,0.08333 -1.135848,-0.432532 0.07817,-0.7069239 0.778764,-1.4267864 0.778764,-1.4267864 -0.07241,-0.061276 -0.140188,-0.094244 -0.224793,-0.096635 z m 9.451103,13.4622266 a 1.8640084,2.26679 26.323018 0 1 0.781864,0.171049 1.8640084,2.26679 26.323018 0 1 0.630969,2.873726 1.8640084,2.26679 26.323018 0 1 -2.684073,1.168405 1.8640084,2.26679 26.323018 0 1 -0.631486,-2.87321 1.8640084,2.26679 26.323018 0 1 1.902726,-1.33997 z m -7.314282,5.17e-4 a 2.26679,1.8640084 63.676982 0 1 1.902726,1.33997 2.26679,1.8640084 63.676982 0 1 -0.631486,2.873209 2.26679,1.8640084 63.676982 0 1 -2.684074,-1.168404 2.26679,1.8640084 63.676982 0 1 0.631486,-2.873726 2.26679,1.8640084 63.676982 0 1 0.781348,-0.171049 z" />
      <path
         id="path2984"
         style="fill:#0a0010;fill-opacity:0.02176704;stroke-width:0.487468"
         d="m 12.257281,7.7574975 c -0.01209,-3.416e-4 -0.02438,1.286e-4 -0.03721,0.00103 -0.10264,0.00719 -0.230144,0.05338 -0.412378,0.1421103 -1.022511,0.4978133 -2.1599965,1.9423509 -2.6541004,3.3698202 -0.440614,1.272938 -0.4830027,2.668509 -0.1173056,3.802868 0.4197601,1.262975 1.167063,2.332296 2.170409,3.222542 0.290798,0.634896 -0.11733,1.078271 0.06976,2.771923 0.437783,4.050386 1.412621,6.487976 6.77478,6.487976 5.362156,0 6.337484,-2.437591 6.77478,-6.487976 0.187094,-1.693652 -0.221027,-2.137027 0.06976,-2.771923 1.003347,-0.890246 1.751169,-1.959567 2.170927,-3.222542 0.365693,-1.134359 0.323306,-2.52993 -0.117305,-3.802868 C 26.455305,9.8429927 25.317815,8.3984546 24.295306,7.9006413 24.113074,7.8119113 23.985561,7.7657716 23.882928,7.758531 c -0.10264,-0.00719 -0.179752,0.025571 -0.262516,0.095601 0,0 0.701116,0.7198625 0.77928,1.4267867 -0.146729,0.515856 -1.135847,0.432531 -1.135847,0.432531 0,0 1.524852,1.4045453 1.793689,2.4975233 0.216519,0.918267 0.09916,2.615214 -0.918808,3.04064 0,0 -2.533764,-0.878498 -6.087483,-0.878498 -3.553719,0 -6.086967,0.878498 -6.086967,0.878498 -1.017978,-0.425426 -1.135324,-2.122372 -0.918807,-3.04064 0.268838,-1.092978 1.793689,-2.4975223 1.793689,-2.4975223 0,0 -0.989121,0.08333 -1.135848,-0.432532 0.07817,-0.7069239 0.778764,-1.4267864 0.778764,-1.4267864 -0.07241,-0.061276 -0.140188,-0.094244 -0.224793,-0.096635 z m 9.451103,13.4622265 a 1.8640084,2.26679 26.323018 0 1 0.781864,0.171049 1.8640084,2.26679 26.323018 0 1 0.630969,2.873726 1.8640084,2.26679 26.323018 0 1 -2.684073,1.168405 1.8640084,2.26679 26.323018 0 1 -0.631486,-2.87321 1.8640084,2.26679 26.323018 0 1 1.902726,-1.33997 z m -7.314282,5.17e-4 a 2.26679,1.8640084 63.676982 0 1 1.902726,1.33997 2.26679,1.8640084 63.676982 0 1 -0.631486,2.873209 2.26679,1.8640084 63.676982 0 1 -2.684074,-1.168404 2.26679,1.8640084 63.676982 0 1 0.631486,-2.873726 2.26679,1.8640084 63.676982 0 1 0.781348,-0.171049 z" />
    </g>
    <path
       id="path8"
       style="fill:url(#linearGradient1508);stroke-width:0.487468;fill-opacity:1"
       d="m 11.156919,7.1838113 c -0.01209,-3.416e-4 -0.02438,1.286e-4 -0.03721,0.00103 -0.10264,0.00719 -0.230144,0.05338 -0.412378,0.1421103 -1.0225107,0.4978133 -2.1599972,1.9423512 -2.6541011,3.3698194 -0.440614,1.272938 -0.4830027,2.668509 -0.1173056,3.802868 0.4197601,1.262976 1.1670633,2.332297 2.1704097,3.222543 0.290798,0.634896 -0.1173304,1.078271 0.06976,2.771923 0.437783,4.050385 1.412621,6.487976 6.77478,6.487976 5.362156,0 6.337484,-2.437591 6.77478,-6.487976 0.187094,-1.693652 -0.221027,-2.137027 0.06976,-2.771923 1.003347,-0.890246 1.751169,-1.959567 2.170927,-3.222543 0.365693,-1.134359 0.323306,-2.52993 -0.117305,-3.802868 C 25.354943,9.2693063 24.217453,7.8247684 23.194944,7.3269551 23.012712,7.238225 22.885199,7.1920854 22.782566,7.1848448 c -0.10264,-0.00719 -0.179752,0.025571 -0.262516,0.095601 0,0 0.701116,0.7198625 0.77928,1.4267865 -0.146729,0.515856 -1.135847,0.4325316 -1.135847,0.4325316 0,0 1.524852,1.4045441 1.793689,2.4975221 0.216519,0.918268 0.09916,2.615214 -0.918808,3.040641 0,0 -2.533764,-0.878499 -6.087483,-0.878499 -3.553719,0 -6.086967,0.878499 -6.086967,0.878499 C 9.8459358,14.2525 9.7285899,12.555554 9.9451069,11.637286 10.213945,10.544308 11.738796,9.1397642 11.738796,9.1397642 c 0,0 -0.989121,0.083327 -1.135848,-0.4325316 0.07817,-0.706924 0.778764,-1.4267865 0.778764,-1.4267865 -0.07241,-0.061276 -0.140188,-0.094244 -0.224793,-0.096635 z m 9.451103,13.4622267 a 1.8640084,2.26679 26.323018 0 1 0.781864,0.171049 1.8640084,2.26679 26.323018 0 1 0.630969,2.873726 1.8640084,2.26679 26.323018 0 1 -2.684073,1.168405 1.8640084,2.26679 26.323018 0 1 -0.631486,-2.87321 1.8640084,2.26679 26.323018 0 1 1.902726,-1.33997 z m -7.314282,5.17e-4 a 2.26679,1.8640084 63.676982 0 1 1.902726,1.33997 2.26679,1.8640084 63.676982 0 1 -0.631486,2.873209 2.26679,1.8640084 63.676982 0 1 -2.684074,-1.168404 2.26679,1.8640084 63.676982 0 1 0.631486,-2.873726 2.26679,1.8640084 63.676982 0 1 0.781348,-0.171049 z" />
  </g>
</svg>
