<svg width="64" height="64" version="1.1" viewBox="0 0 16.933 16.933" xmlns="http://www.w3.org/2000/svg" xmlns:xlink="http://www.w3.org/1999/xlink">
 <defs>
  <linearGradient id="linearGradient1103">
   <stop stop-opacity=".75" offset="0"/>
   <stop stop-opacity=".8" offset=".7"/>
   <stop stop-opacity=".5" offset="1"/>
  </linearGradient>
  <linearGradient id="linearGradient1033" x1="14.552" x2="14.552" y1="7.4082" y2="6.0853" gradientUnits="userSpaceOnUse">
   <stop stop-color="#5ac8fa" offset="0"/>
   <stop stop-color="#3e7790" offset="1"/>
  </linearGradient>
  <linearGradient id="linearGradient1041" x1="14.816" x2="14.816" y1="10.054" y2="8.7311" gradientUnits="userSpaceOnUse">
   <stop stop-color="#ff9500" offset="0"/>
   <stop stop-color="#915400" offset="1"/>
  </linearGradient>
  <linearGradient id="linearGradient1049" x1="14.287" x2="14.287" y1="12.7" y2="11.377" gradientUnits="userSpaceOnUse">
   <stop stop-color="#4cd964" offset="0"/>
   <stop stop-color="#2c7e3a" offset="1"/>
  </linearGradient>
  <radialGradient id="radialGradient1105" cx="2.1166" cy="6.0853" r=".52916" gradientUnits="userSpaceOnUse" xlink:href="#linearGradient1103"/>
  <radialGradient id="radialGradient1111" cx="2.1166" cy="6.0853" r=".52916" gradientTransform="translate(0 3.4395)" gradientUnits="userSpaceOnUse" xlink:href="#linearGradient1103"/>
  <radialGradient id="radialGradient1115" cx="2.1166" cy="6.0853" r=".52916" gradientTransform="translate(0 6.879)" gradientUnits="userSpaceOnUse" xlink:href="#linearGradient1103"/>
  <linearGradient id="linearGradient927" x1="2.6458" x2="14.189" y1="3.2566" y2="14.287" gradientUnits="userSpaceOnUse">
   <stop stop-color="#ca9c6b" offset="0"/>
   <stop stop-color="#b08046" offset="1"/>
  </linearGradient>
 </defs>
 <g shape-rendering="auto">
  <path d="m4.3693 0.52916c-2.1142 0-3.8402 1.7835-3.8402 3.9682v8.4675c0 2.1846 1.726 3.9682 3.8402 3.9682h8.1944c2.1142 0 3.8402-1.7835 3.8402-3.9682v-8.4675c0-2.1846-1.726-3.9682-3.8402-3.9682zm0.25704 0.52089h7.6808c1.8443 0 3.3291 1.5342 3.3291 3.44v7.9368c0 1.9058-1.4847 3.44-3.3291 3.44h-7.6808c-1.8443 0-3.3291-1.5342-3.3291-3.44v-7.9368c0-1.9058 1.4847-3.44 3.3291-3.44z" opacity=".01"/>
  <path d="m4.3587 0.79373c-1.9668 0-3.5639 1.6528-3.5639 3.6876v8.4996c0 2.0348 1.5971 3.6876 3.5639 3.6876h8.2162c1.9668 0 3.5644-1.6528 3.5644-3.6876v-8.4996c0-2.0348-1.5976-3.6876-3.5644-3.6876zm0.27222 0.25631h7.6718c1.8422 0 3.3251 1.5342 3.3251 3.44v7.9368c0 1.9058-1.483 3.44-3.3251 3.44h-7.6718c-1.8422 0-3.3251-1.5342-3.3251-3.44v-7.9368c0-1.9058 1.483-3.44 3.3251-3.44z" image-rendering="auto" opacity=".01"/>
  <path d="m4.3097 1.0583c-1.8657 0-3.3751 1.5383-3.3751 3.439v8.4675c0 1.9007 1.57 3.439 3.4357 3.439h8.1996c1.8657 0 3.4274-1.5383 3.4274-3.439v-8.4675c0-1.9007-1.51-3.439-3.3756-3.439h-0.09688c1.794 0.086515 3.2138 1.5819 3.2138 3.4318v7.9368c0 1.9058-1.5059 3.44-3.3766 3.44h-7.7905c-1.8707 0-3.3766-1.5342-3.3766-3.44v-7.9368c0-1.8498 1.4199-3.3451 3.2138-3.4318z" opacity=".03"/>
  <path transform="scale(.26458)" d="m4 46.969v2.0312c0 6.6479 5.8957 12 12.544 12h30.961c6.6479 0 12.495-5.3521 12.495-12v-1.9922c-0.02117 7.1849-5.81 12.963-13 12.963h-29.998c-7.2032 0-13.002-5.7987-13.002-13.002z" opacity=".03"/>
  <path d="m1.0583 11.906v0.59234c0 1.9386 1.5729 3.4993 3.3318 3.4993h8.1603c1.7589 0 3.3243-1.5608 3.3243-3.4993v-0.58095c-0.0056 2.0952-1.5372 3.7801-3.4395 3.7801h-7.9368c-1.9058 0-3.44-1.691-3.44-3.7915z" opacity=".05"/>
 </g>
 <path d="m7.4082 14.552c-1.026 0-1.852-0.82601-1.852-1.852v-1.852c0-0.29315 0.236-0.52916 0.52916-0.52916h9.7894c0.29315 0 0.52916 0.236 0.52916 0.52916v1.852c0 1.026-0.82601 1.852-1.852 1.852z" fill="url(#linearGradient1049)"/>
 <rect x="5.5561" y="7.6728" width="10.848" height="4.2333" rx=".52916" ry=".52916" fill="url(#linearGradient1041)"/>
 <rect x="5.5561" y="5.027" width="10.848" height="4.2333" rx=".52916" ry=".52916" fill="url(#linearGradient1033)"/>
 <path d="m7.4082 2.3812c-1.026 0-1.852 0.82601-1.852 1.852v1.852c0 0.29315 0.236 0.52916 0.52916 0.52916h9.7894c0.29315 0 0.52916-0.236 0.52916-0.52916v-1.852c0-1.026-0.82601-1.852-1.852-1.852z" fill="#c4c2ba"/>
 <rect x="1.0583" y="1.05" width="14.817" height="14.817" rx="3.4401" ry="3.4401" fill="url(#linearGradient927)"/>
 <path transform="scale(.26458)" d="m17.002 3.9688c-7.2032 0-13.002 5.7987-13.002 13.002v1.0312c0-7.2032 5.7987-13.002 13.002-13.002h29.998c7.2032 0 13.002 5.7987 13.002 13.002v-1.0312c0-7.2032-5.7987-13.002-13.002-13.002h-29.998z" fill="#fff" opacity=".15"/>
 <path d="m4.4983 15.875c-1.9058 0-3.44-1.5342-3.44-3.44v-0.27285c0 1.9058 1.5342 3.44 3.44 3.44h7.9368c1.9058 0 3.44-1.5342 3.44-3.44v0.27285c0 1.9058-1.5342 3.44-3.44 3.44z" opacity=".15"/>
 <circle cx="2.1166" cy="6.0853" r=".52916" fill="url(#radialGradient1105)" opacity=".75"/>
 <path transform="scale(.26458)" d="m4.1055 15.379a5 5 0 0 0-3.1152 4.6309 5 5 0 0 0 5 5 5 5 0 0 0 1.002-0.10156 0.5 0.5 0 0 0 0.0078125 0 0.5 0.5 0 0 0 0.5-0.5 0.5 0.5 0 0 0-0.5-0.5v-0.019531a4.0098 4.0098 0 0 1-1.0098 0.13086 4.0098 4.0098 0 0 1-4.0098-4.0098 4.0098 4.0098 0 0 1 2.043-3.4941c0.013157-0.38304 0.036726-0.76298 0.082031-1.1367z" fill="#fff" stroke="#000" stroke-linecap="round" stroke-linejoin="round" stroke-opacity=".35" stroke-width=".4"/>
 <path transform="scale(.26458)" d="m4.5527 13.211a5 5 0 0 0-3.5625 4.7891 5 5 0 0 0 5 5 5 5 0 0 0 1.0098-0.10352v-0.007812a0.5 0.5 0 0 0 0.5-0.5 0.5 0.5 0 0 0-0.5-0.5v-0.009766a4.0098 4.0098 0 0 1-0.052734 0.011719 0.5 0.5 0 0 0-0.12305 0.029297 4.0098 4.0098 0 0 1-0.83398 0.089844 4.0098 4.0098 0 0 1-4.0098-4.0098 4.0098 4.0098 0 0 1 2.2773-3.6152c0.079859-0.39871 0.1797-0.78942 0.29492-1.1738z" fill="#fff" stroke="#000" stroke-linecap="round" stroke-linejoin="round" stroke-opacity=".35" stroke-width=".4"/>
 <circle cx="2.1166" cy="9.5248" r=".52916" fill="url(#radialGradient1111)" opacity=".75"/>
 <path transform="scale(.26458)" d="m4 28.424a5 5 0 0 0-3.0098 4.5859 5 5 0 0 0 5 5 5 5 0 0 0 1.0098-0.10352v-0.001953a0.5 0.5 0 0 0 0.5-0.5 0.5 0.5 0 0 0-0.5-0.5v-0.015625a4.0098 4.0098 0 0 1-1.0098 0.13086 4.0098 4.0098 0 0 1-4.0098-4.0098 4.0098 4.0098 0 0 1 2.0195-3.4824v-1.1035z" fill="#fff" stroke="#000" stroke-linecap="round" stroke-linejoin="round" stroke-opacity=".35" stroke-width=".4"/>
 <path transform="scale(.26458)" d="m4 26.414a5 5 0 0 0-3.0098 4.5859 5 5 0 0 0 5 5 5 5 0 0 0 1.0098-0.10352v-0.005859a0.5 0.5 0 0 0 0.5-0.5 0.5 0.5 0 0 0-0.5-0.5v-0.011719a4.0098 4.0098 0 0 1-0.072266 0.017578 4.0098 4.0098 0 0 1-0.011719 0.001954 0.5 0.5 0 0 0-0.064453 0.015624 4.0098 4.0098 0 0 1-0.015625 0.003907 4.0098 4.0098 0 0 1-0.8457 0.091797 4.0098 4.0098 0 0 1-4.0098-4.0098 4.0098 4.0098 0 0 1 2.0195-3.4824v-1.1035z" fill="#fff" stroke="#000" stroke-linecap="round" stroke-linejoin="round" stroke-opacity=".35" stroke-width=".4"/>
 <circle cx="2.1166" cy="12.964" r=".52916" fill="url(#radialGradient1115)" opacity=".75"/>
 <path transform="scale(.26458)" d="m4 41.424a5 5 0 0 0-3.0098 4.5859 5 5 0 0 0 5 5 5 5 0 0 0 1.0098-0.10352v-0.005859a0.5 0.5 0 0 0 0.5-0.5 0.5 0.5 0 0 0-0.5-0.5v-0.011719a4.0098 4.0098 0 0 1-0.0625 0.015625 0.5 0.5 0 0 0-0.085938 0.019531 4.0098 4.0098 0 0 1-0.015625 0.003906 4.0098 4.0098 0 0 1-0.8457 0.091797 4.0098 4.0098 0 0 1-4.0098-4.0098 4.0098 4.0098 0 0 1 2.0195-3.4824v-1.1035z" fill="#fff" stroke="#000" stroke-linecap="round" stroke-linejoin="round" stroke-opacity=".35" stroke-width=".4"/>
 <path transform="scale(.26458)" d="m4 39.414a5 5 0 0 0-3.0098 4.5859 5 5 0 0 0 5 5 5 5 0 0 0 1.0098-0.10352v-0.005859a0.5 0.5 0 0 0 0.5-0.5 0.5 0.5 0 0 0-0.5-0.5v-0.011719a4.0098 4.0098 0 0 1-0.0625 0.015625 0.5 0.5 0 0 0-0.097656 0.023438 0.5 0.5 0 0 0-0.0039063 0 4.0098 4.0098 0 0 1-0.8457 0.091797 4.0098 4.0098 0 0 1-4.0098-4.0098 4.0098 4.0098 0 0 1 2.0195-3.4824v-1.1035z" fill="#fff" stroke="#000" stroke-linecap="round" stroke-linejoin="round" stroke-opacity=".35" stroke-width=".4"/>
 <path d="m8.5978 3.9144a0.29037 0.29037 0 0 0-0.2036 0.085781l-4.2524 4.2524a0.29034 0.29035 0 0 0-0.079063 0.24442 0.29034 0.29035 0 0 1 0.079063-0.16484l4.2524-4.2524a0.29037 0.29037 0 0 1 0.2036-0.085781 0.29037 0.29037 0 0 1 0.20618 0.085781l1.8991 1.8991v-0.07958l-1.8991-1.8991a0.29037 0.29037 0 0 0-0.20618-0.085781zm2.7068 0.88675c-0.33307 0-0.6015 0.26882-0.6015 0.60202v0.079063c0-0.33319 0.26843-0.6015 0.6015-0.6015s0.60098 0.26831 0.60098 0.6015v-0.079063c0-0.33319-0.26791-0.60202-0.60098-0.60202zm-2.7057 0.62682-3.3062 3.3083v0.07958l3.3062-3.3083 3.3067 3.3083v-0.07958zm3.3067 1.6748v0.079063l1.1503 1.1503a0.29034 0.29035 0 0 1 0.08165 0.16484 0.29034 0.29035 0 0 0-0.08165-0.24442z" opacity=".2" stroke-width=".86898"/>
 <path d="m8.5979 3.9939a0.29037 0.29037 0 0 0-0.20358 0.08563l-4.2525 4.2525a0.29034 0.29035 0 0 0 0 0.40943 0.29034 0.29035 0 0 0 0.4117 0l4.0444-4.0467 4.0467 4.0467a0.29034 0.29035 0 0 0 0.41113 0 0.29034 0.29035 0 0 0 0-0.40943l-1.15-1.15v-1.6995c0-0.33319-0.26803-0.60167-0.6011-0.60167s-0.60167 0.26848-0.60167 0.60167v0.4962l-1.8992-1.8992a0.29037 0.29037 0 0 0-0.20585-0.085629zm0.00113 1.5135-3.3066 3.3084v2.9817c0 0.49979 0.40205 0.90223 0.90166 0.90223h1.5028v-2.105c0-0.49046 0.3911-0.88995 0.87841-0.90223 0.00779-1.955e-4 0.016092 0 0.023818 0 0.49806 0 0.90166 0.40398 0.90166 0.90223v2.105h1.5028c0.49961 0 0.90222-0.40244 0.90222-0.90223v-2.9817z" fill="#fff" stroke-width=".86898"/>
</svg>
