<svg width="64" height="64" enable-background="new 0 0 1024 1024" image-rendering="optimizeSpeed" xmlns="http://www.w3.org/2000/svg"><defs><linearGradient id="c" x1="18.601" x2="18.601" y1=".854" y2="49.956" gradientTransform="matrix(1.1117 0 0 .96015 24.948 10.068)" gradientUnits="userSpaceOnUse"><stop stop-color="#fafafa" offset="0"/><stop stop-color="#d4d4d4" offset="1"/></linearGradient><linearGradient id="a" x1="7.937" x2="7.937" y1="15.081" y2="1.852" gradientTransform="scale(3.7796)" gradientUnits="userSpaceOnUse"><stop stop-color="#676767" offset="0"/><stop stop-color="#c6c6c6" offset="1"/></linearGradient><filter id="b" x="-.084" y="-.047" width="1.167" height="1.094" color-interpolation-filters="sRGB"><feGaussianBlur stdDeviation=".897"/></filter></defs><g color="#000" image-rendering="auto"><path d="M4.37.53C2.254.53.53 2.312.53 4.496v8.468c0 2.184 1.725 3.968 3.84 3.968h8.194c2.114 0 3.84-1.783 3.84-3.968V4.497c0-2.184-1.726-3.968-3.84-3.968zm.256.52h7.681c1.844 0 3.33 1.534 3.33 3.44v7.937c0 1.906-1.485 3.44-3.33 3.44h-7.68c-1.845 0-3.33-1.534-3.33-3.44V4.49c0-1.906 1.485-3.44 3.33-3.44z" enable-background="accumulate" opacity=".01" style="font-feature-settings:normal;font-variant-alternates:normal;font-variant-caps:normal;font-variant-east-asian:normal;font-variant-ligatures:normal;font-variant-numeric:normal;font-variant-position:normal;font-variation-settings:normal;inline-size:0;isolation:auto;mix-blend-mode:normal;shape-margin:0;shape-padding:0;text-decoration-color:#000;text-decoration-line:none;text-decoration-style:solid;text-indent:0;text-orientation:mixed;text-transform:none;white-space:normal" transform="scale(3.7796)"/><path d="M4.359.794C2.392.794.795 2.447.795 4.48v8.5c0 2.035 1.597 3.688 3.564 3.688h8.216c1.967 0 3.564-1.653 3.564-3.688v-8.5c0-2.034-1.597-3.687-3.564-3.687zm.272.256h7.672c1.842 0 3.325 1.534 3.325 3.44v7.937c0 1.906-1.483 3.44-3.325 3.44H4.63c-1.842 0-3.325-1.534-3.325-3.44V4.49c0-1.906 1.483-3.44 3.325-3.44z" enable-background="accumulate" opacity=".01" style="font-feature-settings:normal;font-variant-alternates:normal;font-variant-caps:normal;font-variant-east-asian:normal;font-variant-ligatures:normal;font-variant-numeric:normal;font-variant-position:normal;font-variation-settings:normal;inline-size:0;isolation:auto;mix-blend-mode:normal;shape-margin:0;shape-padding:0;text-decoration-color:#000;text-decoration-line:none;text-decoration-style:solid;text-indent:0;text-orientation:mixed;text-transform:none;white-space:normal" transform="scale(3.7796)"/><path d="M4.31 1.058c-1.866 0-3.375 1.539-3.375 3.44v8.467c0 1.9 1.57 3.439 3.435 3.439h8.2c1.866 0 3.427-1.538 3.427-3.44V4.498c0-1.9-1.51-3.439-3.375-3.439h-.097c1.794.087 3.214 1.582 3.214 3.432v7.937c0 1.906-1.506 3.44-3.377 3.44h-7.79c-1.871 0-3.377-1.534-3.377-3.44V4.49c0-1.85 1.42-3.345 3.214-3.432z" enable-background="accumulate" opacity=".03" style="font-feature-settings:normal;font-variant-alternates:normal;font-variant-caps:normal;font-variant-east-asian:normal;font-variant-ligatures:normal;font-variant-numeric:normal;font-variant-position:normal;font-variation-settings:normal;inline-size:0;isolation:auto;mix-blend-mode:normal;shape-margin:0;shape-padding:0;text-decoration-color:#000;text-decoration-line:none;text-decoration-style:solid;text-indent:0;text-orientation:mixed;text-transform:none;white-space:normal" transform="scale(3.7796)"/><path d="M4 46.969V49c0 6.648 5.896 12 12.544 12h30.961C54.153 61 60 55.648 60 49v-1.992a12.972 12.972 0 0 1-13 12.963H17.002A12.973 12.973 0 0 1 4 46.969z" enable-background="accumulate" opacity=".03" style="font-feature-settings:normal;font-variant-alternates:normal;font-variant-caps:normal;font-variant-east-asian:normal;font-variant-ligatures:normal;font-variant-numeric:normal;font-variant-position:normal;font-variation-settings:normal;inline-size:0;isolation:auto;mix-blend-mode:normal;shape-margin:0;shape-padding:0;text-decoration-color:#000;text-decoration-line:none;text-decoration-style:solid;text-indent:0;text-orientation:mixed;text-transform:none;white-space:normal"/><path d="M1.058 11.906v.592c0 1.939 1.573 3.5 3.332 3.5h8.16c1.76 0 3.325-1.561 3.325-3.5v-.58c-.006 2.095-1.537 3.78-3.44 3.78H4.498c-1.905 0-3.44-1.692-3.44-3.792z" enable-background="accumulate" opacity=".05" style="font-feature-settings:normal;font-variant-alternates:normal;font-variant-caps:normal;font-variant-east-asian:normal;font-variant-ligatures:normal;font-variant-numeric:normal;font-variant-position:normal;font-variation-settings:normal;inline-size:0;isolation:auto;mix-blend-mode:normal;shape-margin:0;shape-padding:0;text-decoration-color:#000;text-decoration-line:none;text-decoration-style:solid;text-indent:0;text-orientation:mixed;text-transform:none;white-space:normal" transform="scale(3.7796)"/></g><rect x="4" y="3.969" width="56.002" height="56.002" rx="13.002" ry="13.002" fill="url(#a)"/><path d="M31.053 11.95c-2.926.032-6.07.3-8.214 2.308-3.283 3.078-2.869 5.207-3.191 9.42-.658 8.598-.404 20.382 1.345 28.848.513 2.483 2.855 4.231 5.34 4.71 1.907.367 3.88.645 5.854.712 1.975-.067 3.947-.345 5.854-.713 2.485-.478 4.827-2.226 5.34-4.709 1.749-8.466 2.003-20.25 1.345-28.849-.322-4.212.092-6.34-3.19-9.418-2.144-2.01-5.29-2.277-8.215-2.309-.382-.004-.762 0-1.134 0-.372 0-.751-.004-1.134 0z" color="#000" enable-background="accumulate" filter="url(#b)" opacity=".35" transform="translate(0 -2.448)"/><path d="M31.053 11.45c-2.926.032-6.07.3-8.214 2.308-3.283 3.078-2.869 5.207-3.191 9.42-.658 8.598-.404 20.382 1.345 28.848.513 2.483 2.855 4.231 5.34 4.71 1.907.367 3.88.645 5.854.712 1.975-.067 3.947-.345 5.854-.713 2.485-.478 4.827-2.226 5.34-4.709 1.749-8.466 2.003-20.25 1.345-28.849-.322-4.212.092-6.34-3.19-9.418-2.144-2.01-5.29-2.277-8.215-2.309-.382-.004-.762 0-1.134 0-.372 0-.751-.004-1.134 0z" color="#000" enable-background="accumulate" fill="url(#c)" transform="translate(0 -2.448)"/><path d="M32.187 15c.554 0 1 .55 1 1.232v3.536c0 .683-.446 1.232-1 1.232s-1-.55-1-1.232v-3.536c0-.682.446-1.232 1-1.232z" fill="#4d4d4d" fill-opacity=".588"/><path d="M32.187 16c.554 0 1 .55 1 1.232v3.536c0 .683-.446 1.232-1 1.232s-1-.55-1-1.232v-3.536c0-.682.446-1.232 1-1.232z" fill="#4d4d4d" fill-opacity=".588"/><path d="M31.35 48.268c-.021-.005-.032-.009-.024-.01a.816.816 0 0 1-.328-.199 3.28 3.28 0 0 1-.413-.537 3.225 3.225 0 0 1-.406-1.095 2.471 2.471 0 0 1-.007-.77c.116-.654.605-1.112 1.188-1.112.12 0 .206.017.373.076.382.133.381.133.446.133.05 0 .09-.01.193-.046.475-.167.508-.175.703-.174.263 0 .515.082.708.225.074.055.172.152.215.212l.02.03-.083.063a1.05 1.05 0 0 0-.437.972c.01.133.032.232.08.348.086.214.295.44.502.548.036.018.065.039.065.045 0 .031-.08.23-.151.371-.11.219-.255.437-.42.628a.8.8 0 0 1-.408.267c-.034.007-.055.015-.048.018.008.003-.018.005-.058.007-.042 0-.067-.003-.06-.008.009-.005-.006-.01-.041-.014a1.647 1.647 0 0 1-.325-.102.981.981 0 0 0-.426-.076c-.13.006-.211.023-.349.074a2.55 2.55 0 0 1-.31.103c-.02.005-.036.01-.034.014.003.005-.005.01-.017.01a.77.77 0 0 0-.066.004.296.296 0 0 1-.082-.005zm.816-3.824c-.013-.012-.007-.188.008-.261.055-.265.243-.53.483-.68.102-.064.237-.123.332-.146.04-.009.069-.02.065-.023-.003-.005.007-.007.023-.007a.185.185 0 0 0 .043-.005c.03-.012 0 .266-.041.397-.1.314-.36.599-.629.688-.097.032-.267.055-.284.037z" fill="#999"/></svg>