<svg xmlns="http://www.w3.org/2000/svg" width="64" height="64" viewBox="0 0 64 64"><defs><linearGradient id="a" x1="8.466" x2="8.466" y1="1.058" y2="15.875" gradientTransform="scale(3.7796)" gradientUnits="userSpaceOnUse"><stop offset="0" stop-color="#fff"/><stop offset="1" stop-color="#ececec"/></linearGradient><filter id="b" width="1.024" height="1.024" x="-.012" y="-.012" color-interpolation-filters="sRGB"><feGaussianBlur stdDeviation=".074"/></filter></defs><linearGradient id="c" x1="2" x2="112" y1="74" y2="74" gradientTransform="matrix(.5 0 0 .5 .622 2.826)" gradientUnits="userSpaceOnUse"><stop offset="0" stop-color="#ef939a"/><stop offset=".046" stop-color="#c01c28"/><stop offset=".436" stop-color="#c01c28"/><stop offset=".545" stop-color="#eb7981"/><stop offset=".618" stop-color="#c01c28"/><stop offset=".936" stop-color="#c01c28"/><stop offset="1" stop-color="#650e14"/></linearGradient><linearGradient id="d" x1="68" x2="73.75" y1="125.75" y2="64" gradientTransform="matrix(.5 0 0 .5 .622 2.826)" gradientUnits="userSpaceOnUse"><stop offset="0" stop-color="#ff7800"/><stop offset="1" stop-color="#f66151"/></linearGradient><radialGradient id="e" cx="114.89" cy="211.32" r="17.152" gradientTransform="rotate(72.767 185.024 -52.01)scale(1.78848 .41386)" gradientUnits="userSpaceOnUse"><stop offset="0" stop-color="#9a9996"/><stop offset="1" stop-color="#5e5c64" stop-opacity="0"/></radialGradient><path fill="url(#a)" d="M20.26 4c-5.782 0-9.743 1.725-12.321 4.535C5.374 11.331 4 15.34 4 19.876v24.248c0 4.538 1.374 8.545 3.939 11.341C10.517 58.275 14.479 60 20.26 60h23.549c5.782 0 9.743-1.724 12.321-4.535C58.695 52.67 60 49.03 60 44.125V20.786c0-5.935-1.305-9.456-3.87-12.252C53.552 5.725 49.59 4 43.809 4H25.494z"/><path fill="#fff" d="M5.36 1.058c-1.53 0-2.577.457-3.26 1.2-.678.74-1.042 1.8-1.042 3.001v6.415c0 1.2.364 2.26 1.043 3 .682.744 1.73 1.2 3.26 1.2h6.23c1.53 0 2.577-.456 3.26-1.2.678-.739 1.024-1.702 1.024-3V5.5c0-1.57-.346-2.502-1.024-3.242-.683-.743-1.73-1.2-3.26-1.2H6.745zm0 .264h6.232c1.477 0 2.437.432 3.064 1.116.634.69.954 1.53.954 3.062v6.174c0 1.251-.322 2.134-.954 2.822-.627.684-1.587 1.114-3.064 1.114H5.359c-1.477 0-2.437-.43-3.064-1.114-.625-.682-.973-1.675-.973-2.822V5.26c0-1.148.348-2.14.973-2.822.627-.684 1.587-1.116 3.064-1.116" filter="url(#b)" transform="scale(3.7796)"/><g stroke-width=".5"><path fill="#434248" d="M46.404 15.555c-.803.71-1.614 1.71-2.44 2.415-.414.352-.825.624-1.206.762-.382.137-.719.154-1.096.01a.504.504 0 1 0-.36.942c.612.233 1.24.196 1.798-.004.555-.2 1.052-.546 1.518-.943.932-.792 1.76-1.81 2.453-2.426a.505.505 0 1 0-.667-.756"/><path fill="#434248" d="M47.035 16.25c-.662.587-1.825 1.167-2.842 1.894-1.017.725-1.96 1.69-1.912 3.062a.504.504 0 1 0 1.01-.034c-.032-.9.568-1.551 1.488-2.207s2.089-1.22 2.923-1.959a.505.505 0 0 0-.667-.757"/><path fill="url(#c)" d="M52.2 13.105a11 11 0 0 0-7.723-3.223L29.483 9.8a12.12 12.12 0 0 0-8.623 3.545L2.723 31.485a5.05 5.05 0 0 0 0 7.142L26.698 62.6a5.05 5.05 0 0 0 7.143.002l18.137-18.137a12.1 12.1 0 0 0 3.54-8.625l-.09-15.014a11 11 0 0 0-3.228-7.72zm-3.29 3.303a4.138 4.138 0 1 1-5.85 5.853 4.14 4.14 0 0 1 0-5.853 4.135 4.135 0 0 1 5.85 0" transform="translate(10.163 8.547)scale(.67267)"/><path fill="url(#d)" d="M52.2 12.105a11 11 0 0 0-7.723-3.223L29.483 8.8a12.12 12.12 0 0 0-8.623 3.545L2.723 30.485a5.05 5.05 0 0 0 0 7.142L26.698 61.6a5.05 5.05 0 0 0 7.143.002l18.137-18.137a12.1 12.1 0 0 0 3.54-8.625l-.09-15.014a11 11 0 0 0-3.228-7.72zm-3.29 3.303a4.138 4.138 0 1 1-5.85 5.853 4.14 4.14 0 0 1 0-5.853 4.135 4.135 0 0 1 5.85 0" transform="translate(10.163 8.547)scale(.67267)"/><path fill="#5e5c64" d="M45.506 14.193a2.62 2.62 0 0 0-2.112 1.159l-2.373 3.56a.505.505 0 0 0 .84.56l2.372-3.56a1.603 1.603 0 0 1 2.638-.073l.44.585a1.78 1.78 0 0 1-.77 2.74L42.6 20.742a.505.505 0 0 0 .374.938l3.943-1.578c1.7-.68 2.3-2.818 1.201-4.283l-.437-.584a2.6 2.6 0 0 0-2.174-1.04"/><path fill="#9a9996" d="M45.516 14.286c-.707.02-1.405.36-1.842 1.015L41.3 18.86a.168.168 0 0 0 .28.187l2.373-3.56a1.95 1.95 0 0 1 3.187-.089l.439.585a2.124 2.124 0 0 1-.913 3.254l-3.943 1.578a.168.168 0 1 0 .125.313l3.943-1.578a2.47 2.47 0 0 0 1.057-3.77l-.439-.584a2.27 2.27 0 0 0-1.894-.91"/><path fill="#5e5c64" d="M49.566 12.351a2.06 2.06 0 0 0-1.617.913l-1.523 2.285a.505.505 0 0 0 .14.7c.16.105.366.112.531.016a.5.5 0 0 0-.03.461c.125.25.427.35.677.227l1.762-.881c.538-.27.965-.069 1.235.297.269.364.336.831-.08 1.268l-2.3 2.41q-.543.547-1.053 1.125.135.685.139 1.383v.007a27 27 0 0 1 1.632-1.808l.004-.002 2.31-2.42c.738-.773.678-1.862.16-2.562-.518-.702-1.54-1.079-2.498-.6l-1.745.872 1.48-2.217c.2-.303.51-.465.83-.483.318-.016.644.111.876.391l.669.8c.74.89 1.002 2.083.704 3.2l-.887 3.326a19.47 19.47 0 0 0-.076 9.73l.537 2.147a5.328 5.328 0 0 1-4.648 6.607 4.5 4.5 0 0 1-2.363-.391h-.002l-.742.742c.938.516 2.039.77 3.208.653 3.843-.385 6.463-4.108 5.526-7.856l-.536-2.146a18.45 18.45 0 0 1 .07-9.226l.89-3.325a4.57 4.57 0 0 0-.907-4.106l-.667-.8a2.07 2.07 0 0 0-1.706-.737z"/><path fill="url(#e)" d="M58.605 5.793c-.78.042-1.537.43-2.016 1.146l-2.263 3.395a.25.25 0 0 0 .07.345c.113.078.27.047.346-.068l2.263-3.397a2.082 2.082 0 0 1 3.34-.177l.992 1.19a5.8 5.8 0 0 1 1.149 5.206l-1.319 4.944a28.4 28.4 0 0 0-.11 14.215l.798 3.19c1.248 4.997-2.22 9.929-7.346 10.442a7.2 7.2 0 0 1-4.357-.936l-.362.364a7.7 7.7 0 0 0 4.768 1.068c5.418-.541 9.102-5.775 7.781-11.059l-.798-3.191a27.9 27.9 0 0 1 .109-13.965l1.318-4.944a6.29 6.29 0 0 0-1.248-5.654l-.99-1.19a2.57 2.57 0 0 0-2.125-.925zm.56 3.873a2.5 2.5 0 0 0-1.123.273l-2.619 1.31a.25.25 0 0 0-.111.335c.06.123.211.173.334.11l2.62-1.308c1.007-.504 1.937-.119 2.46.59.525.711.62 1.713-.158 2.527l-3.428 3.592a41 41 0 0 0-1.748 1.885q.03.363.035.725a41 41 0 0 1 2.07-2.262h.002l3.43-3.594c.938-.982.848-2.293.201-3.17a2.47 2.47 0 0 0-1.964-1.014z" transform="translate(10.163 8.547)scale(.67267)"/><path fill="#d42539" d="M26.406 34.71q-.771.772-1.712 1.043a3.5 3.5 0 0 1-1.92-.007q-.977-.28-1.833-1.135l-.215-.214q-.863-.864-1.133-1.833a3.5 3.5 0 0 1-.015-1.927q.264-.948 1.034-1.719.779-.778 1.726-1.042a3.5 3.5 0 0 1 1.928.015q.977.264 1.84 1.127l.215.214q.855.856 1.127 1.84.27.97.006 1.919-.27.942-1.048 1.72m-1.627-1.626a1.02 1.02 0 0 0 .314-.856q-.05-.506-.656-1.113l-.215-.214q-.612-.613-1.127-.67a.99.99 0 0 0-.87.3.98.98 0 0 0-.293.862q.063.507.678 1.121l.214.214q.607.606 1.105.664.494.05.85-.308m14.526-.913q-.77.77-1.712 1.042a3.5 3.5 0 0 1-1.92-.008q-.976-.278-1.833-1.134l-.213-.214q-.864-.862-1.135-1.834a3.5 3.5 0 0 1-.015-1.926q.264-.948 1.036-1.72.776-.777 1.726-1.042a3.5 3.5 0 0 1 1.926.015q.978.264 1.84 1.127l.215.214q.857.858 1.127 1.84.271.973.008 1.92-.27.942-1.05 1.72m-1.626-1.626q.363-.364.314-.857-.05-.506-.657-1.113l-.213-.214q-.615-.613-1.129-.67a.99.99 0 0 0-.87.3.99.99 0 0 0-.292.863q.065.505.677 1.12l.215.213q.605.607 1.106.664a1 1 0 0 0 .849-.306m-6.964 9.874L27.39 22.482l1.826-1.826 3.325 17.936z"/><path fill="#ffbe6f" d="M26.658 35.468q-.77.77-1.712 1.041a3.5 3.5 0 0 1-1.92-.006q-.977-.28-1.833-1.135l-.214-.215q-.864-.863-1.134-1.832a3.5 3.5 0 0 1-.015-1.928q.264-.948 1.034-1.718.78-.778 1.727-1.042a3.5 3.5 0 0 1 1.927.015q.978.264 1.84 1.127l.215.214q.855.856 1.127 1.84.27.97.007 1.919-.271.942-1.049 1.72m-1.626-1.627a1.02 1.02 0 0 0 .314-.857q-.051-.506-.657-1.112l-.214-.215q-.613-.612-1.128-.67a.99.99 0 0 0-.87.3.98.98 0 0 0-.292.863q.063.506.678 1.12l.214.215q.605.605 1.105.663.492.049.85-.307m14.525-.913q-.77.77-1.712 1.042a3.5 3.5 0 0 1-1.919-.008q-.978-.278-1.834-1.134l-.213-.214q-.864-.863-1.135-1.834a3.5 3.5 0 0 1-.015-1.926q.265-.948 1.036-1.72.776-.777 1.726-1.042a3.5 3.5 0 0 1 1.926.015q.978.264 1.84 1.127l.215.214q.857.858 1.127 1.84.272.972.008 1.92-.27.942-1.05 1.72M37.931 31.3q.364-.364.314-.856-.05-.506-.657-1.113l-.213-.214q-.615-.613-1.128-.67a.99.99 0 0 0-.87.3.99.99 0 0 0-.293.863q.065.506.678 1.119l.214.214q.606.607 1.106.664a1 1 0 0 0 .849-.307m-6.964 9.875L27.642 23.24l1.826-1.826 3.326 17.936z"/></g></svg>