<svg width="64" xmlns="http://www.w3.org/2000/svg" height="64" fill="none"><g xmlns:xlink="http://www.w3.org/1999/xlink" style="fill: rgb(0, 0, 0);"><defs><pattern patternUnits="userSpaceOnUse" x="1.559" y="1.999" width="63.926" height="65.101" id="a"><rect width="63.926" height="65.101" fill="none"/><image href="https://design.penpot.app/assets/by-file-media-id/1c096c09-a10e-80c0-8003-2a94e3380417" preserveAspectRatio="none" width="60.882" height="62.001"/></pattern></defs><rect width="60.882" height="62.001" x="1.559" transform="matrix(1.000000, 0.000000, 0.000000, 1.000000, 0.000000, 0.000000)" ry="0" fill="url(#a)" rx="0" y="1.999" class="fills"/><defs><linearGradient x1="7.937" y1="15.081" x2="7.937" y2="1.852" id="b" gradientTransform="matrix(1.000000, 0.000000, 0.000000, 1.000000, 0.000000, 0.000000) scale(3.7796)" gradientUnits="userSpaceOnUse"><stop stop-color="#363636" offset="0"/><stop stop-color="#6c6c6c" offset="1"/></linearGradient></defs><rect width="56.002" height="56.002" x="4" transform="matrix(1.000000, 0.000000, 0.000000, 1.000000, 0.000000, 0.000000)" style="fill: rgb(38, 38, 38); fill-opacity: 1;" ry="13.002" fill="url(#b)" rx="13.002" y="3.969" class="fills"/><defs><linearGradient id="c" x1=".19" y1=".382" x2="1.005" y2=".894"><stop offset="0" stop-color="#a65cc3"/><stop offset="1" stop-color="#01a1da"/></linearGradient><pattern patternUnits="userSpaceOnUse" x="14.001" y="13.97" width="36" height="36" patternTransform="matrix(1.000000, 0.000000, 0.000000, 1.000000, 0.000000, 0.000000)" id="d"><rect width="36" height="36" style="fill: url(&quot;#c&quot;);"/></pattern></defs><path d="M14.243,46.468C16.584,51.161,47.451,51.112,49.765,46.468C52.076,41.829,36.769,13.975,32.005,13.970C27.238,13.970,11.901,41.775,14.243,46.468ZZ" fill="url(#d)" class="fills"/></g></svg>