<svg xmlns="http://www.w3.org/2000/svg" xmlns:xlink="http://www.w3.org/1999/xlink" width="64" height="64"><defs><linearGradient id="b" x1="32.25" x2="32.25" y1="42.853" y2="7.164" gradientTransform="matrix(1.5 0 0 1.5 -4 -4)" gradientUnits="userSpaceOnUse"><stop offset="0" stop-color="#a9b2bc"/><stop offset="1" stop-color="#f4f6f6"/></linearGradient><linearGradient id="c" x2="0" y1="45" y2="13" gradientTransform="matrix(1.5 0 0 1.5 -4 -4)" gradientUnits="userSpaceOnUse"><stop offset="0" stop-color="#663579"/><stop offset="1" stop-color="#16a085"/></linearGradient><linearGradient id="d" x1="8.213" x2="40.551" gradientTransform="matrix(1.5 0 0 1.5 -4 -4)" gradientUnits="userSpaceOnUse"><stop offset="0" stop-color="#1d1e1e"/><stop offset="1" stop-color="#2c2f32"/></linearGradient><linearGradient id="a" x1="7" x2="11" gradientTransform="translate(-21 -3)" gradientUnits="userSpaceOnUse"><stop offset="0" stop-color="#1d1e1e"/><stop offset="1" stop-color="#44484c"/></linearGradient><linearGradient xlink:href="#a" id="f" x1="19" x2="25" gradientTransform="matrix(1.5 0 0 1.5 -74 -16)" gradientUnits="userSpaceOnUse"/><linearGradient xlink:href="#a" id="g" x1="23" x2="28" gradientTransform="matrix(1.5 0 0 1.5 -63.5 5)" gradientUnits="userSpaceOnUse"/><linearGradient xlink:href="#a" id="h" x1="34" x2="42" gradientTransform="matrix(1.5 0 0 1.5 -105.5 .5)" gradientUnits="userSpaceOnUse"/><linearGradient xlink:href="#a" id="e" x1="7" x2="11" gradientTransform="matrix(1.5 0 0 1.5 -27.5 -8.5)" gradientUnits="userSpaceOnUse"/></defs><g color="#000"><path d="M16.148 4.043A12.96 12.96 0 0 0 4 17.002v29.996C4 54.201 9.8 60 17.002 60h29.996C54.201 60 60 54.2 60 46.998V17.002A12.96 12.96 0 0 0 47.854 4.043c6.337.686 11.246 6.192 11.246 12.928v29.998c0 7.203-5.613 13.002-12.584 13.002H17.487c-6.97 0-12.584-5.799-12.584-13.002V16.971c0-6.736 4.909-12.242 11.246-12.928z" opacity=".01" style="font-feature-settings:normal;font-variant-alternates:normal;font-variant-caps:normal;font-variant-east-asian:normal;font-variant-ligatures:normal;font-variant-numeric:normal;font-variant-position:normal;font-variation-settings:normal;inline-size:0;isolation:auto;mix-blend-mode:normal;shape-margin:0;shape-padding:0;text-decoration-color:#000;text-decoration-line:none;text-decoration-style:solid;text-indent:0;text-orientation:mixed;text-transform:none;white-space:normal"/><path d="M4.359.794C2.392.794.795 2.447.795 4.48v8.5c0 2.035 1.597 3.688 3.564 3.688h8.216c1.967 0 3.564-1.653 3.564-3.688v-8.5c0-2.034-1.597-3.687-3.564-3.687zm.272.256h7.672c1.842 0 3.325 1.534 3.325 3.44v7.937c0 1.906-1.483 3.44-3.325 3.44H4.63c-1.842 0-3.325-1.534-3.325-3.44V4.49c0-1.906 1.483-3.44 3.325-3.44z" opacity=".01" style="font-feature-settings:normal;font-variant-alternates:normal;font-variant-caps:normal;font-variant-east-asian:normal;font-variant-ligatures:normal;font-variant-numeric:normal;font-variant-position:normal;font-variation-settings:normal;inline-size:0;isolation:auto;mix-blend-mode:normal;shape-margin:0;shape-padding:0;text-decoration-color:#000;text-decoration-line:none;text-decoration-style:solid;text-indent:0;text-orientation:mixed;text-transform:none;white-space:normal" transform="scale(3.7796)"/><path d="M4.31 1.058c-1.866 0-3.375 1.539-3.375 3.44v8.467c0 1.9 1.57 3.439 3.435 3.439h8.2c1.866 0 3.427-1.538 3.427-3.44V4.498c0-1.9-1.51-3.439-3.375-3.439h-.097c1.794.087 3.214 1.582 3.214 3.432v7.937c0 1.906-1.506 3.44-3.377 3.44h-7.79c-1.871 0-3.377-1.534-3.377-3.44V4.49c0-1.85 1.42-3.345 3.214-3.432z" opacity=".03" style="font-feature-settings:normal;font-variant-alternates:normal;font-variant-caps:normal;font-variant-east-asian:normal;font-variant-ligatures:normal;font-variant-numeric:normal;font-variant-position:normal;font-variation-settings:normal;inline-size:0;isolation:auto;mix-blend-mode:normal;shape-margin:0;shape-padding:0;text-decoration-color:#000;text-decoration-line:none;text-decoration-style:solid;text-indent:0;text-orientation:mixed;text-transform:none;white-space:normal" transform="scale(3.7796)"/><path d="M4 46.969V49c0 6.648 5.896 12 12.544 12h30.961C54.153 61 60 55.648 60 49v-1.992a12.97 12.97 0 0 1-13 12.963H17.002A12.973 12.973 0 0 1 4 46.969" opacity=".03" style="font-feature-settings:normal;font-variant-alternates:normal;font-variant-caps:normal;font-variant-east-asian:normal;font-variant-ligatures:normal;font-variant-numeric:normal;font-variant-position:normal;font-variation-settings:normal;inline-size:0;isolation:auto;mix-blend-mode:normal;shape-margin:0;shape-padding:0;text-decoration-color:#000;text-decoration-line:none;text-decoration-style:solid;text-indent:0;text-orientation:mixed;text-transform:none;white-space:normal"/><path d="M1.058 11.906v.592c0 1.939 1.573 3.5 3.332 3.5h8.16c1.76 0 3.325-1.561 3.325-3.5v-.58c-.006 2.095-1.537 3.78-3.44 3.78H4.498c-1.905 0-3.44-1.692-3.44-3.792" opacity=".05" style="font-feature-settings:normal;font-variant-alternates:normal;font-variant-caps:normal;font-variant-east-asian:normal;font-variant-ligatures:normal;font-variant-numeric:normal;font-variant-position:normal;font-variation-settings:normal;inline-size:0;isolation:auto;mix-blend-mode:normal;shape-margin:0;shape-padding:0;text-decoration-color:#000;text-decoration-line:none;text-decoration-style:solid;text-indent:0;text-orientation:mixed;text-transform:none;white-space:normal" transform="scale(3.7796)"/></g><path fill="url(#b)" d="M17.002 4a12.96 12.96 0 0 0-12.547 9.625c7.21.156 28.768 1.48 30.613 10.707 1.534 7.668-9.202 9.201-6.135 16.869 2.922 7.247 22.56 8.511 28.287 8.991l2.32.198c.39-1.188.46-2.332.46-3.392V17.002C60 9.799 54.2 4 46.998 4z"/><path fill="url(#c)" fill-rule="evenodd" d="m8.412 13.596-3.95.002A13 13 0 0 0 4 17.002v29.996C4 54.201 9.8 60 17.002 60h29.996a12.96 12.96 0 0 0 12.543-9.61c-9.103-.772-28.753-3.302-31.062-9.077-3.067-7.668 8.122-9.313 6.588-16.98-1.92-9.6-20.428-10.661-26.654-10.736z"/><path fill="url(#d)" fill-rule="evenodd" d="m8.351 13.598-.032.043c7.198.217 23.452 1.706 25.248 10.69 1.534 7.668-9.268 9.135-6.2 16.803 2.836 7.09 25.257 10.325 28.635 10.365l.826-2.666c-3.376-.04-25.058-.541-27.894-7.632-3.067-7.668 7.668-9.201 6.135-16.869-1.92-9.6-20.49-10.66-26.716-10.734"/><g stroke-linecap="round" stroke-linejoin="bevel" stroke-width="2"><circle cx="-14" cy="9.5" r="3" fill="url(#e)" transform="rotate(-90)"/><circle cx="9.5" cy="14" r="1.5" fill="#fff"/><circle cx="-41" cy="29" r="4.5" fill="url(#f)" transform="rotate(-90)"/><circle cx="-25.25" cy="34.25" r="3.75" fill="url(#g)" transform="rotate(-90)"/><circle cx="-48.5" cy="53" r="6" fill="url(#h)" transform="rotate(-90)"/></g><g fill="#fff" stroke-linecap="round" stroke-linejoin="bevel" stroke-width="2"><circle cx="34.25" cy="25.25" r="2.25"/><circle cx="29" cy="41" r="3"/><circle cx="53" cy="48.5" r="4.5"/></g></svg>