<svg xmlns="http://www.w3.org/2000/svg" width="64" height="64" viewBox="0 0 16.933 16.933"><defs><linearGradient id="a" x1="7.937" x2="7.937" y1="15.081" y2="1.852" gradientTransform="translate(0 .008)scale(.99997)" gradientUnits="userSpaceOnUse"><stop offset="0" stop-color="#292929"/><stop offset="1" stop-color="#4d4d4d"/></linearGradient><linearGradient id="c" x1="8.444" x2="8.444" y1="6.861" y2="2.229" gradientUnits="userSpaceOnUse"><stop offset="0" stop-color="#a95319"/><stop offset="1" stop-color="#c28e00"/></linearGradient><linearGradient id="d" x1="8.294" x2="8.294" y1="7.228" y2="3.962" gradientUnits="userSpaceOnUse"><stop offset="0" stop-color="#662800"/><stop offset="1" stop-color="#d65500"/></linearGradient><linearGradient id="e" x1="8.346" x2="8.346" y1="8.445" y2="5.597" gradientUnits="userSpaceOnUse"><stop offset="0" stop-color="#523e3e"/><stop offset="1" stop-color="#ae7b7b"/></linearGradient><filter id="b" width="1.152" height="1.372" x="-.076" y="-.186" color-interpolation-filters="sRGB"><feGaussianBlur stdDeviation=".52"/></filter><filter id="f" width="1.081" height="1.117" x="-.041" y="-.058" color-interpolation-filters="sRGB"><feGaussianBlur stdDeviation=".107"/></filter></defs><g color="#000"><path d="M4.37.53C2.254.53.53 2.312.53 4.496v8.468c0 2.184 1.725 3.968 3.84 3.968h8.194c2.114 0 3.84-1.783 3.84-3.968V4.497c0-2.184-1.726-3.968-3.84-3.968zm.256.52h7.681c1.844 0 3.33 1.534 3.33 3.44v7.937c0 1.906-1.485 3.44-3.33 3.44h-7.68c-1.845 0-3.33-1.534-3.33-3.44V4.49c0-1.906 1.485-3.44 3.33-3.44z" opacity=".01" style="font-feature-settings:normal;font-variant-alternates:normal;font-variant-caps:normal;font-variant-east-asian:normal;font-variant-ligatures:normal;font-variant-numeric:normal;font-variant-position:normal;font-variation-settings:normal;inline-size:0;isolation:auto;mix-blend-mode:normal;shape-margin:0;shape-padding:0;text-decoration-color:#000;text-decoration-line:none;text-decoration-style:solid;text-indent:0;text-orientation:mixed;text-transform:none;white-space:normal"/><path d="M4.359.794C2.392.794.795 2.447.795 4.48v8.5c0 2.035 1.597 3.688 3.564 3.688h8.216c1.967 0 3.564-1.653 3.564-3.688v-8.5c0-2.034-1.597-3.687-3.564-3.687zm.272.256h7.672c1.842 0 3.325 1.534 3.325 3.44v7.937c0 1.906-1.483 3.44-3.325 3.44H4.63c-1.842 0-3.325-1.534-3.325-3.44V4.49c0-1.906 1.483-3.44 3.325-3.44z" opacity=".01" style="font-feature-settings:normal;font-variant-alternates:normal;font-variant-caps:normal;font-variant-east-asian:normal;font-variant-ligatures:normal;font-variant-numeric:normal;font-variant-position:normal;font-variation-settings:normal;inline-size:0;isolation:auto;mix-blend-mode:normal;shape-margin:0;shape-padding:0;text-decoration-color:#000;text-decoration-line:none;text-decoration-style:solid;text-indent:0;text-orientation:mixed;text-transform:none;white-space:normal"/><path d="M4.31 1.058c-1.866 0-3.375 1.539-3.375 3.44v8.467c0 1.9 1.57 3.439 3.435 3.439h8.2c1.866 0 3.427-1.538 3.427-3.44V4.498c0-1.9-1.51-3.439-3.375-3.439h-.097c1.794.087 3.214 1.582 3.214 3.432v7.937c0 1.906-1.506 3.44-3.377 3.44h-7.79c-1.871 0-3.377-1.534-3.377-3.44V4.49c0-1.85 1.42-3.345 3.214-3.432z" opacity=".03" style="font-feature-settings:normal;font-variant-alternates:normal;font-variant-caps:normal;font-variant-east-asian:normal;font-variant-ligatures:normal;font-variant-numeric:normal;font-variant-position:normal;font-variation-settings:normal;inline-size:0;isolation:auto;mix-blend-mode:normal;shape-margin:0;shape-padding:0;text-decoration-color:#000;text-decoration-line:none;text-decoration-style:solid;text-indent:0;text-orientation:mixed;text-transform:none;white-space:normal"/><path d="M4 46.969V49c0 6.648 5.896 12 12.544 12h30.961C54.153 61 60 55.648 60 49v-1.992a12.97 12.97 0 0 1-13 12.963H17.002A12.973 12.973 0 0 1 4 46.969" opacity=".03" style="font-feature-settings:normal;font-variant-alternates:normal;font-variant-caps:normal;font-variant-east-asian:normal;font-variant-ligatures:normal;font-variant-numeric:normal;font-variant-position:normal;font-variation-settings:normal;inline-size:0;isolation:auto;mix-blend-mode:normal;shape-margin:0;shape-padding:0;text-decoration-color:#000;text-decoration-line:none;text-decoration-style:solid;text-indent:0;text-orientation:mixed;text-transform:none;white-space:normal" transform="scale(.26458)"/><path d="M1.058 11.906v.592c0 1.939 1.573 3.5 3.332 3.5h8.16c1.76 0 3.325-1.561 3.325-3.5v-.58c-.006 2.095-1.537 3.78-3.44 3.78H4.498c-1.905 0-3.44-1.692-3.44-3.792" opacity=".05" style="font-feature-settings:normal;font-variant-alternates:normal;font-variant-caps:normal;font-variant-east-asian:normal;font-variant-ligatures:normal;font-variant-numeric:normal;font-variant-position:normal;font-variation-settings:normal;inline-size:0;isolation:auto;mix-blend-mode:normal;shape-margin:0;shape-padding:0;text-decoration-color:#000;text-decoration-line:none;text-decoration-style:solid;text-indent:0;text-orientation:mixed;text-transform:none;white-space:normal"/></g><rect width="14.816" height="14.816" x="1.058" y="1.058" fill="url(#a)" rx="3.44" ry="3.44"/><path fill-rule="evenodd" d="M3.722 1.761c-.197.002-.349.042-.426.133-.324.36.235 1.858.903 2.688A3 3 0 0 0 4.126 5c-.592-.468-1.334-.754-2.062-.755q-.437-.002-.85.138c1.097.142 2.044.492 2.906 1.073q.014.177.052.35c-.697-.467-1.547-.743-2.368-.728-.55.01-1.085.149-1.547.442 1.196-.187 2.314-.023 3.379.383-.18.01-.348.057-.494.135a4 4 0 0 0-.639-.065c-.73-.012-1.39.194-1.722.684A5.5 5.5 0 0 1 2.75 6.4q-.031.044-.056.093H2.64c-.487 0-.902.361-.902.812 0 .632.65.974 1.245.758.361.523 1.137.559 1.425 0 .433-.018 1.137-.09 1.245-.758a.6.6 0 0 0 .002-.126h2.261c-.09-.18.036-.289.577-.289.542.018.65.108.578.289h2.213a.4.4 0 0 0-.002.126c.108.668.812.74 1.245.758.288.559 1.064.523 1.425 0 .595.216 1.245-.126 1.245-.758 0-.45-.65-.812-.902-.812h-.054q-.027-.049-.056-.093a5.5 5.5 0 0 1 1.968.256c-.332-.49-.991-.696-1.722-.684q-.315.006-.64.065a1.2 1.2 0 0 0-.494-.135c1.065-.407 2.183-.57 3.379-.383a2.97 2.97 0 0 0-1.547-.442c-.797-.014-1.622.244-2.307.686q.035-.17.046-.342c.847-.56 1.778-.9 2.852-1.039a2.6 2.6 0 0 0-.85-.138c-.708.001-1.43.271-2.014.717a3 3 0 0 0-.069-.38c.632-.83 1.173-2.346.848-2.688s-1.804.072-2.706.631a5.4 5.4 0 0 0-2.454-.577c-.92 0-1.768.216-2.471.577-.677-.42-1.688-.768-2.28-.764zm3.056 2.586c.632 0 1.155.523 1.155 1.154 0 .632-.523 1.155-1.155 1.155a1.163 1.163 0 0 1-1.154-1.155c0-.63.523-1.154 1.154-1.154m3.392 0c.632 0 1.155.523 1.155 1.154 0 .632-.505 1.155-1.155 1.155a1.163 1.163 0 0 1-1.154-1.155c0-.63.523-1.154 1.154-1.154" filter="url(#b)" opacity=".15"/><rect width="7.181" height="2.646" x="4.876" y="3.969" fill="#fff" fill-rule="evenodd" ry="0"/><g fill-rule="evenodd" stroke-width="0" clip-rule="evenodd"><path fill="#c0c81f" d="M6.777 6.048c.133 0 .239-.252.239-.577s-.106-.577-.24-.577-.239.252-.239.577.107.577.24.577"/><path fill="url(#c)" d="M13.634 1.72c-.325-.343-1.804.072-2.706.631a5.4 5.4 0 0 0-2.454-.577c-.92 0-1.768.216-2.471.577-.902-.56-2.4-.992-2.706-.631-.325.36.234 1.858.902 2.688a2.7 2.7 0 0 0-.09.667c0 .722.306 1.39.83 1.93h2.976c-.09-.18.036-.288.577-.288.542.018.65.108.578.289h2.976c.524-.542.83-1.227.83-1.93 0-.235-.036-.452-.09-.668.631-.83 1.173-2.346.848-2.688M6.778 6.483a1.163 1.163 0 0 1-1.154-1.155c0-.632.523-1.155 1.155-1.155.63 0 1.154.523 1.154 1.155 0 .631-.523 1.154-1.154 1.154zm3.392 0a1.163 1.163 0 0 1-1.154-1.155c0-.632.523-1.155 1.154-1.155.632 0 1.155.523 1.155 1.155a1.15 1.15 0 0 1-1.155 1.154z"/><path fill="url(#d)" d="M2.064 4.071q-.437-.002-.85.139c1.533.198 2.778.793 3.897 1.876-.499-1.173-1.795-2.012-3.047-2.015m12.805 0c-1.252.003-2.548.842-3.047 2.015 1.119-1.082 2.363-1.678 3.897-1.876a2.6 2.6 0 0 0-.85-.139m-13.065.834c-.55.01-1.084.148-1.547.44 1.732-.27 3.302.181 4.781 1.065-.744-.93-2.025-1.528-3.234-1.505m13.324 0c-1.209-.023-2.49.575-3.235 1.505 1.48-.884 3.05-1.335 4.781-1.064a2.97 2.97 0 0 0-1.546-.441m-12.625.894c-.73-.012-1.39.194-1.722.684 1.534-.487 2.868-.271 4.348.306-.63-.598-1.686-.974-2.626-.99m11.927 0c-.94.016-1.997.392-2.626.99 1.48-.577 2.814-.793 4.348-.306-.332-.49-.991-.696-1.722-.684"/><path fill="url(#e)" d="M3.704 5.725c-.451 0-.83.234-1.01.595h-.055c-.487 0-.902.361-.902.812 0 .631.65.974 1.245.758.36.523 1.137.559 1.425 0 .433-.018 1.137-.09 1.245-.758.072-.451-.397-.812-.902-.812h-.054c-.144-.36-.541-.595-.992-.595m9.525 0c.451 0 .83.234 1.01.595h.055c.252 0 .902.361.902.812 0 .631-.65.974-1.245.758-.36.523-1.137.559-1.425 0-.433-.018-1.137-.09-1.245-.758-.072-.451.65-.812.902-.812h.054c.144-.36.541-.595.992-.595"/><path fill="#c0c81f" d="M10.13 6.048c.133 0 .24-.252.24-.577s-.107-.577-.24-.577-.24.252-.24.577.107.577.24.577"/></g><path d="M8.732 12.277h2.679c.404 0 .404.606 0 .607H8.73c-.403-.001-.403-.606 0-.607zM5.51 9.007c-.266-.286.143-.695.429-.429l1.894 1.894a.303.303 0 0 1 0 .428L5.94 12.795c-.286.266-.695-.143-.429-.429l1.68-1.68z" filter="url(#f)" opacity=".35"/><path fill="#fff" d="M8.732 12.093h2.679c.404 0 .404.606 0 .607H8.73c-.403-.001-.403-.606 0-.607zM5.51 8.823c-.266-.286.143-.695.429-.429l1.894 1.894a.303.303 0 0 1 0 .428L5.94 12.611c-.286.266-.695-.143-.429-.429l1.68-1.68z"/><ellipse cx="8.466" cy="6.976" fill="#fff" rx=".725" ry=".362" style="paint-order:stroke fill markers"/></svg>