<svg xmlns="http://www.w3.org/2000/svg" width="64" height="64" enable-background="new 0 0 1024 1024" image-rendering="optimizeSpeed"><defs><linearGradient id="d" x1="31.222" x2="31.628" y1="61.147" y2="2.853" gradientUnits="userSpaceOnUse"><stop offset="0" stop-color="#9a9a9a"/><stop offset="1" stop-color="silver"/></linearGradient><linearGradient id="b" x1="31.641" x2="32.168" y1="61.339" y2="3.812" gradientUnits="userSpaceOnUse"><stop offset="0" stop-color="#efb528"/><stop offset="1" stop-color="#e69c76"/></linearGradient><linearGradient id="a" x1="7.937" x2="7.937" y1="15.081" y2="1.852" gradientTransform="translate(0 .032)scale(3.7795)" gradientUnits="userSpaceOnUse"><stop offset="0" stop-color="#f1efeb"/><stop offset="1" stop-color="#fdfcfc"/></linearGradient><filter id="c" width="1.306" height="1.196" x="-.153" y="-.098" color-interpolation-filters="sRGB"><feGaussianBlur stdDeviation=".36"/></filter></defs><g color="#000" image-rendering="auto"><path d="M4.37.53C2.254.53.53 2.312.53 4.496v8.468c0 2.184 1.725 3.968 3.84 3.968h8.194c2.114 0 3.84-1.783 3.84-3.968V4.497c0-2.184-1.726-3.968-3.84-3.968zm.256.52h7.681c1.844 0 3.33 1.534 3.33 3.44v7.937c0 1.906-1.485 3.44-3.33 3.44h-7.68c-1.845 0-3.33-1.534-3.33-3.44V4.49c0-1.906 1.485-3.44 3.33-3.44z" enable-background="accumulate" opacity=".01" style="font-feature-settings:normal;font-variant-alternates:normal;font-variant-caps:normal;font-variant-east-asian:normal;font-variant-ligatures:normal;font-variant-numeric:normal;font-variant-position:normal;font-variation-settings:normal;inline-size:0;isolation:auto;mix-blend-mode:normal;shape-margin:0;shape-padding:0;text-decoration-color:#000;text-decoration-line:none;text-decoration-style:solid;text-indent:0;text-orientation:mixed;text-transform:none;white-space:normal" transform="scale(3.7796)"/><path d="M4.359.794C2.392.794.795 2.447.795 4.48v8.5c0 2.035 1.597 3.688 3.564 3.688h8.216c1.967 0 3.564-1.653 3.564-3.688v-8.5c0-2.034-1.597-3.687-3.564-3.687zm.272.256h7.672c1.842 0 3.325 1.534 3.325 3.44v7.937c0 1.906-1.483 3.44-3.325 3.44H4.63c-1.842 0-3.325-1.534-3.325-3.44V4.49c0-1.906 1.483-3.44 3.325-3.44z" enable-background="accumulate" opacity=".01" style="font-feature-settings:normal;font-variant-alternates:normal;font-variant-caps:normal;font-variant-east-asian:normal;font-variant-ligatures:normal;font-variant-numeric:normal;font-variant-position:normal;font-variation-settings:normal;inline-size:0;isolation:auto;mix-blend-mode:normal;shape-margin:0;shape-padding:0;text-decoration-color:#000;text-decoration-line:none;text-decoration-style:solid;text-indent:0;text-orientation:mixed;text-transform:none;white-space:normal" transform="scale(3.7796)"/><path d="M4.31 1.058c-1.866 0-3.375 1.539-3.375 3.44v8.467c0 1.9 1.57 3.439 3.435 3.439h8.2c1.866 0 3.427-1.538 3.427-3.44V4.498c0-1.9-1.51-3.439-3.375-3.439h-.097c1.794.087 3.214 1.582 3.214 3.432v7.937c0 1.906-1.506 3.44-3.377 3.44h-7.79c-1.871 0-3.377-1.534-3.377-3.44V4.49c0-1.85 1.42-3.345 3.214-3.432z" enable-background="accumulate" opacity=".03" style="font-feature-settings:normal;font-variant-alternates:normal;font-variant-caps:normal;font-variant-east-asian:normal;font-variant-ligatures:normal;font-variant-numeric:normal;font-variant-position:normal;font-variation-settings:normal;inline-size:0;isolation:auto;mix-blend-mode:normal;shape-margin:0;shape-padding:0;text-decoration-color:#000;text-decoration-line:none;text-decoration-style:solid;text-indent:0;text-orientation:mixed;text-transform:none;white-space:normal" transform="scale(3.7796)"/><path d="M4 46.969V49c0 6.648 5.896 12 12.544 12h30.961C54.153 61 60 55.648 60 49v-1.992a12.97 12.97 0 0 1-13 12.963H17.002A12.973 12.973 0 0 1 4 46.969" enable-background="accumulate" opacity=".03" style="font-feature-settings:normal;font-variant-alternates:normal;font-variant-caps:normal;font-variant-east-asian:normal;font-variant-ligatures:normal;font-variant-numeric:normal;font-variant-position:normal;font-variation-settings:normal;inline-size:0;isolation:auto;mix-blend-mode:normal;shape-margin:0;shape-padding:0;text-decoration-color:#000;text-decoration-line:none;text-decoration-style:solid;text-indent:0;text-orientation:mixed;text-transform:none;white-space:normal"/><path d="M1.058 11.906v.592c0 1.939 1.573 3.5 3.332 3.5h8.16c1.76 0 3.325-1.561 3.325-3.5v-.58c-.006 2.095-1.537 3.78-3.44 3.78H4.498c-1.905 0-3.44-1.692-3.44-3.792" enable-background="accumulate" opacity=".05" style="font-feature-settings:normal;font-variant-alternates:normal;font-variant-caps:normal;font-variant-east-asian:normal;font-variant-ligatures:normal;font-variant-numeric:normal;font-variant-position:normal;font-variation-settings:normal;inline-size:0;isolation:auto;mix-blend-mode:normal;shape-margin:0;shape-padding:0;text-decoration-color:#000;text-decoration-line:none;text-decoration-style:solid;text-indent:0;text-orientation:mixed;text-transform:none;white-space:normal" transform="scale(3.7796)"/></g><rect width="56" height="56" x="4" y="4" fill="url(#a)" rx="13.002" ry="13.002"/><rect width="21.429" height="21.429" x="21.286" y="21.286" fill="url(#b)" ry="0"/><g fill="#fff"><path fill="#000" d="M26.616 21.266q0 .864-.492 1.38-.48.504-1.284.672v.048q1.02.12 1.524.648.516.528.516 1.38 0 .756-.348 1.332t-1.08.9q-.72.324-1.86.324-.672 0-1.248-.108-.576-.096-1.104-.36v-.984q.54.276 1.164.42t1.2.144q1.152 0 1.656-.444.516-.456.516-1.248 0-.804-.636-1.152-.624-.36-1.764-.36h-.828v-.9h.84q1.056 0 1.596-.444.552-.444.552-1.176 0-.624-.42-.96-.42-.348-1.14-.348-.696 0-1.188.204t-.972.516l-.528-.72q.456-.36 1.128-.624.684-.264 1.548-.264 1.344 0 1.992.6.66.6.66 1.524" filter="url(#c)" opacity=".25" transform="matrix(1.5198 0 0 1.4597 -4.565 -2.37)"/><path d="M35.886 28.672q0 1.26-.748 2.014-.73.736-1.952.98v.071q1.55.175 2.317.946.784.77.784 2.014 0 1.104-.53 1.945t-1.64 1.313q-1.095.473-2.827.473-1.022 0-1.897-.157-.875-.14-1.678-.526V36.31q.82.403 1.77.613t1.823.21q1.75 0 2.517-.648.784-.666.784-1.822 0-1.173-.967-1.681-.948-.526-2.68-.526h-1.259v-1.314h1.277q1.605 0 2.425-.648.84-.648.84-1.716 0-.911-.64-1.402-.637-.508-1.732-.508-1.057 0-1.805.298t-1.477.753l-.803-1.05q.693-.526 1.714-.911 1.04-.386 2.353-.386 2.043 0 3.028.876 1.003.876 1.003 2.225z"/></g><path fill="url(#d)" d="M17.002 4C9.799 4 4 9.8 4 17.002v4.285h17.285V4zm25.713 0v17.287H60v-4.285C60 9.799 54.2 4 46.998 4zM4 42.715v4.283C4 54.201 9.8 60 17.002 60h4.285V42.715zm38.715 0V60h4.283C54.201 60 60 54.2 60 46.998v-4.283z"/></svg>