<svg xmlns="http://www.w3.org/2000/svg" width="64" height="64"><defs><linearGradient id="c" x2="0" y1="510.8" y2="527.14" gradientUnits="userSpaceOnUse"><stop offset="0" stop-color="#7cbaf8"/><stop offset="1" stop-color="#f4fcff"/></linearGradient><linearGradient id="d" x1="408.57" x2="387.57" y1="542.8" y2="521.8" gradientTransform="translate(-384.57 -499.8)" gradientUnits="userSpaceOnUse"><stop offset="0" stop-color="#197cf1"/><stop offset="1" stop-color="#20bcfa"/></linearGradient><linearGradient id="a" x1="7.937" x2="7.937" y1="15.081" y2="1.852" gradientTransform="translate(0 .032)scale(3.7795)" gradientUnits="userSpaceOnUse"><stop offset="0" stop-color="#f1efeb"/><stop offset="1" stop-color="#fdfcfc"/></linearGradient><filter id="b" width="1.119" height="1.121" x="-.059" y="-.061" color-interpolation-filters="sRGB"><feGaussianBlur stdDeviation="1.013"/></filter></defs><g color="#000"><path d="M4.37.53C2.254.53.53 2.312.53 4.496v8.468c0 2.184 1.725 3.968 3.84 3.968h8.194c2.114 0 3.84-1.783 3.84-3.968V4.497c0-2.184-1.726-3.968-3.84-3.968zm.256.52h7.681c1.844 0 3.33 1.534 3.33 3.44v7.937c0 1.906-1.485 3.44-3.33 3.44h-7.68c-1.845 0-3.33-1.534-3.33-3.44V4.49c0-1.906 1.485-3.44 3.33-3.44z" opacity=".01" style="font-feature-settings:normal;font-variant-alternates:normal;font-variant-caps:normal;font-variant-east-asian:normal;font-variant-ligatures:normal;font-variant-numeric:normal;font-variant-position:normal;font-variation-settings:normal;inline-size:0;isolation:auto;mix-blend-mode:normal;shape-margin:0;shape-padding:0;text-decoration-color:#000;text-decoration-line:none;text-decoration-style:solid;text-indent:0;text-orientation:mixed;text-transform:none;white-space:normal" transform="scale(3.7796)"/><path d="M4.359.794C2.392.794.795 2.447.795 4.48v8.5c0 2.035 1.597 3.688 3.564 3.688h8.216c1.967 0 3.564-1.653 3.564-3.688v-8.5c0-2.034-1.597-3.687-3.564-3.687zm.272.256h7.672c1.842 0 3.325 1.534 3.325 3.44v7.937c0 1.906-1.483 3.44-3.325 3.44H4.63c-1.842 0-3.325-1.534-3.325-3.44V4.49c0-1.906 1.483-3.44 3.325-3.44z" opacity=".01" style="font-feature-settings:normal;font-variant-alternates:normal;font-variant-caps:normal;font-variant-east-asian:normal;font-variant-ligatures:normal;font-variant-numeric:normal;font-variant-position:normal;font-variation-settings:normal;inline-size:0;isolation:auto;mix-blend-mode:normal;shape-margin:0;shape-padding:0;text-decoration-color:#000;text-decoration-line:none;text-decoration-style:solid;text-indent:0;text-orientation:mixed;text-transform:none;white-space:normal" transform="scale(3.7796)"/><path d="M4.31 1.058c-1.866 0-3.375 1.539-3.375 3.44v8.467c0 1.9 1.57 3.439 3.435 3.439h8.2c1.866 0 3.427-1.538 3.427-3.44V4.498c0-1.9-1.51-3.439-3.375-3.439h-.097c1.794.087 3.214 1.582 3.214 3.432v7.937c0 1.906-1.506 3.44-3.377 3.44h-7.79c-1.871 0-3.377-1.534-3.377-3.44V4.49c0-1.85 1.42-3.345 3.214-3.432z" opacity=".03" style="font-feature-settings:normal;font-variant-alternates:normal;font-variant-caps:normal;font-variant-east-asian:normal;font-variant-ligatures:normal;font-variant-numeric:normal;font-variant-position:normal;font-variation-settings:normal;inline-size:0;isolation:auto;mix-blend-mode:normal;shape-margin:0;shape-padding:0;text-decoration-color:#000;text-decoration-line:none;text-decoration-style:solid;text-indent:0;text-orientation:mixed;text-transform:none;white-space:normal" transform="scale(3.7796)"/><path d="M4 46.969V49c0 6.648 5.896 12 12.544 12h30.961C54.153 61 60 55.648 60 49v-1.992a12.97 12.97 0 0 1-13 12.963H17.002A12.973 12.973 0 0 1 4 46.969" opacity=".03" style="font-feature-settings:normal;font-variant-alternates:normal;font-variant-caps:normal;font-variant-east-asian:normal;font-variant-ligatures:normal;font-variant-numeric:normal;font-variant-position:normal;font-variation-settings:normal;inline-size:0;isolation:auto;mix-blend-mode:normal;shape-margin:0;shape-padding:0;text-decoration-color:#000;text-decoration-line:none;text-decoration-style:solid;text-indent:0;text-orientation:mixed;text-transform:none;white-space:normal"/><path d="M1.058 11.906v.592c0 1.939 1.573 3.5 3.332 3.5h8.16c1.76 0 3.325-1.561 3.325-3.5v-.58c-.006 2.095-1.537 3.78-3.44 3.78H4.498c-1.905 0-3.44-1.692-3.44-3.792" opacity=".05" style="font-feature-settings:normal;font-variant-alternates:normal;font-variant-caps:normal;font-variant-east-asian:normal;font-variant-ligatures:normal;font-variant-numeric:normal;font-variant-position:normal;font-variation-settings:normal;inline-size:0;isolation:auto;mix-blend-mode:normal;shape-margin:0;shape-padding:0;text-decoration-color:#000;text-decoration-line:none;text-decoration-style:solid;text-indent:0;text-orientation:mixed;text-transform:none;white-space:normal" transform="scale(3.7796)"/></g><rect width="56" height="56" x="4" y="4" fill="url(#a)" rx="13.002" ry="13.002"/><g filter="url(#b)" opacity=".15" transform="translate(-376.07 -491.8)"><path d="M400.581 503.817v26h16v-26z"/><path fill-rule="evenodd" d="M410.07 513.8a1.5 1.5 0 1 0 .001 3.001 1.5 1.5 0 0 0-.001-3.001m17.5 9a1 1 0 1 0 0 2 1 1 0 0 0 0-2m-35.5-6a1.5 1.5 0 1 0 .001 3.001 1.5 1.5 0 0 0-.001-3.001m11.775 1.1a.7.7 0 0 0-.195.055c-.506.222-.677.944-.012 2.461.666 1.517 1.615 2.568 2.121 2.346s.376-1.631-.289-3.148c-.582-1.328-1.153-1.771-1.625-1.713m-5.988.635c-.395-.034-.937.359-.445.918.655.746 1 2.074.416 2.34-.587.266-.544-.99-.596-1.658s-1.677-1.07-2.277-.242.004 1.72.598 1.9c.594.181.686.861 1.039 1.568.354.707 2.076.53 2.496 0s.681-1.515-.137-2.424-.57-1.753-.791-2.217c-.055-.116-.171-.174-.303-.186m19.494.078c-.531-.125-.75.875-.875 1.813s-.594 1.906-.188 2.094c.563.25.85-1.288 1.486-1.863.636-.576.107-1.918-.424-2.043m-16.781.188a1 1 0 1 0 0 2 1 1 0 0 0 0-2m12.152.236c-.65.048-1.297 1.157-1.615 1.926-.364.878.076 2.59-.781 3.232s-1.484.661-1.912.404.367-.224-.111-1.203c-.479-.979-1.624-.673-1.924.09s.322.728.107 1.178c-.214.45-2.036.936-2.443-.414s-1.853-2.819-2.303-2.455.054 1.706 1.232 2.777-.302 1.648-1.326.842c-1.024-.807-2.228.613-3.16 1.563-.933.949-1.766 1.014-2.43.445-.663-.568-.08-2.114-.846-3.668-.765-1.554-2.286-.78-2.5.27s1.92 1.757 1.506 2.34-2.069.451-2.557-.648c-.487-1.099-1.549-.743-1.57.156-.021.9.822.272 1.48.93l17 17 17-17c2-2-.29-1.143-.762-.693-.471.45-1.928.815-2.1.322-.171-.493 1.632-1.32 2.146-1.877s1.017-2.139.186-2.719-2.01.467-2.521 1.238c-.514.771-.068 2.736-.754 3.336s-1.063.235-1.191-.279 1.48-1.237.805-2.516c-.676-1.279-1.924-.699-2.502-.1-.578.6.348 1.524.563 2.467s-1.979.919-2.836.576-1.136-2.498-1.5-2.627-1.292.714-2.471.35c-1.178-.364-.2-1.09.164-1.947s.939-2.922.203-3.246a.6.6 0 0 0-.277-.049m10.348-1.236a1.5 1.5 0 1 0 .001 3.001 1.5 1.5 0 0 0-.001-3.001m-34.5 4a1 1 0 1 0 0 2 1 1 0 0 0 0-2"/></g><path fill="url(#c)" d="M404.57 510.8v12.35h7.6V510.8z" transform="translate(-827.23 -1063.37)scale(2.1053)"/><path fill="url(#d)" fill-rule="evenodd" d="M25.5 14a1.5 1.5 0 1 0 .001 3.001A1.5 1.5 0 0 0 25.5 14M43 23a1 1 0 1 0 0 2 1 1 0 0 0 0-2M7.5 17a1.5 1.5 0 1 0 .001 3.001A1.5 1.5 0 0 0 7.5 17m11.775 1.1a.7.7 0 0 0-.195.055c-.506.222-.677.944-.012 2.461.666 1.517 1.615 2.568 2.121 2.346s.376-1.631-.289-3.148c-.582-1.328-1.153-1.771-1.625-1.713m-5.988.635c-.395-.034-.937.359-.445.918.655.746 1 2.074.416 2.34-.587.266-.544-.99-.596-1.658s-1.677-1.07-2.277-.242.004 1.72.598 1.9c.594.181.686.861 1.039 1.568.354.707 2.076.53 2.496 0s.681-1.515-.137-2.424-.57-1.753-.791-2.217c-.055-.116-.171-.174-.303-.186m19.494.078c-.531-.125-.75.875-.875 1.813s-.594 1.906-.188 2.094c.563.25.85-1.288 1.486-1.863.636-.576.107-1.918-.424-2.043m-16.781.188a1 1 0 1 0 0 2 1 1 0 0 0 0-2m12.152.236c-.65.048-1.297 1.157-1.615 1.926-.364.878.076 2.59-.781 3.232s-1.484.661-1.912.404.367-.224-.111-1.203c-.479-.979-1.624-.673-1.924.09s.322.728.107 1.178c-.214.45-2.036.936-2.443-.414s-1.853-2.819-2.303-2.455.054 1.706 1.232 2.777-.302 1.648-1.326.842c-1.024-.807-2.228.613-3.16 1.563-.933.949-1.766 1.014-2.43.445-.663-.568-.08-2.114-.846-3.668-.765-1.554-2.286-.78-2.5.27s1.92 1.757 1.506 2.34-2.069.451-2.557-.648c-.487-1.099-1.549-.743-1.57.156-.021.9.822.272 1.48.93l17 17 17-17c2-2-.29-1.143-.762-.693-.471.45-1.928.815-2.1.322-.171-.493 1.632-1.32 2.146-1.877s1.017-2.139.186-2.719-2.01.467-2.521 1.238c-.514.771-.068 2.736-.754 3.336s-1.063.235-1.191-.279 1.48-1.237.805-2.516c-.676-1.279-1.924-.699-2.502-.1-.578.6.348 1.524.563 2.467s-1.979.919-2.836.576-1.136-2.498-1.5-2.627-1.292.714-2.471.35c-1.178-.364-.2-1.09.164-1.947s.939-2.922.203-3.246a.6.6 0 0 0-.277-.049m10.348-1.236a1.5 1.5 0 1 0 .001 3.001 1.5 1.5 0 0 0-.001-3.001m-34.5 4a1 1 0 1 0 0 2 1 1 0 0 0 0-2" transform="translate(8.5 8)"/></svg>