<svg xmlns="http://www.w3.org/2000/svg" width="64" height="64"><defs><linearGradient id="d" x1="30.644" x2="30.373" y1="48.678" y2="15.051" gradientUnits="userSpaceOnUse"><stop offset="0" stop-color="#2673cf"/><stop offset="1" stop-color="#26bbcf"/></linearGradient><linearGradient id="c" x1="31.322" x2="31.051" y1="48.136" y2="15.322" gradientUnits="userSpaceOnUse"><stop offset="0" stop-color="#2e2e2e"/><stop offset="1" stop-color="#606060"/></linearGradient><linearGradient id="a" x1="7.937" x2="7.937" y1="15.081" y2="1.852" gradientTransform="translate(0 .032)scale(3.7795)" gradientUnits="userSpaceOnUse"><stop offset="0" stop-color="#f1efeb"/><stop offset="1" stop-color="#fdfcfc"/></linearGradient><filter id="b" width="1.216" height="1.216" x="-.108" y="-.108" color-interpolation-filters="sRGB"><feGaussianBlur stdDeviation="1.44"/></filter></defs><g color="#000"><path d="M4.37.53C2.254.53.53 2.312.53 4.496v8.468c0 2.184 1.725 3.968 3.84 3.968h8.194c2.114 0 3.84-1.783 3.84-3.968V4.497c0-2.184-1.726-3.968-3.84-3.968zm.256.52h7.681c1.844 0 3.33 1.534 3.33 3.44v7.937c0 1.906-1.485 3.44-3.33 3.44h-7.68c-1.845 0-3.33-1.534-3.33-3.44V4.49c0-1.906 1.485-3.44 3.33-3.44z" opacity=".01" style="font-feature-settings:normal;font-variant-alternates:normal;font-variant-caps:normal;font-variant-east-asian:normal;font-variant-ligatures:normal;font-variant-numeric:normal;font-variant-position:normal;font-variation-settings:normal;inline-size:0;isolation:auto;mix-blend-mode:normal;shape-margin:0;shape-padding:0;text-decoration-color:#000;text-decoration-line:none;text-decoration-style:solid;text-indent:0;text-orientation:mixed;text-transform:none;white-space:normal" transform="scale(3.7796)"/><path d="M4.359.794C2.392.794.795 2.447.795 4.48v8.5c0 2.035 1.597 3.688 3.564 3.688h8.216c1.967 0 3.564-1.653 3.564-3.688v-8.5c0-2.034-1.597-3.687-3.564-3.687zm.272.256h7.672c1.842 0 3.325 1.534 3.325 3.44v7.937c0 1.906-1.483 3.44-3.325 3.44H4.63c-1.842 0-3.325-1.534-3.325-3.44V4.49c0-1.906 1.483-3.44 3.325-3.44z" opacity=".01" style="font-feature-settings:normal;font-variant-alternates:normal;font-variant-caps:normal;font-variant-east-asian:normal;font-variant-ligatures:normal;font-variant-numeric:normal;font-variant-position:normal;font-variation-settings:normal;inline-size:0;isolation:auto;mix-blend-mode:normal;shape-margin:0;shape-padding:0;text-decoration-color:#000;text-decoration-line:none;text-decoration-style:solid;text-indent:0;text-orientation:mixed;text-transform:none;white-space:normal" transform="scale(3.7796)"/><path d="M4.31 1.058c-1.866 0-3.375 1.539-3.375 3.44v8.467c0 1.9 1.57 3.439 3.435 3.439h8.2c1.866 0 3.427-1.538 3.427-3.44V4.498c0-1.9-1.51-3.439-3.375-3.439h-.097c1.794.087 3.214 1.582 3.214 3.432v7.937c0 1.906-1.506 3.44-3.377 3.44h-7.79c-1.871 0-3.377-1.534-3.377-3.44V4.49c0-1.85 1.42-3.345 3.214-3.432z" opacity=".03" style="font-feature-settings:normal;font-variant-alternates:normal;font-variant-caps:normal;font-variant-east-asian:normal;font-variant-ligatures:normal;font-variant-numeric:normal;font-variant-position:normal;font-variation-settings:normal;inline-size:0;isolation:auto;mix-blend-mode:normal;shape-margin:0;shape-padding:0;text-decoration-color:#000;text-decoration-line:none;text-decoration-style:solid;text-indent:0;text-orientation:mixed;text-transform:none;white-space:normal" transform="scale(3.7796)"/><path d="M4 46.969V49c0 6.648 5.896 12 12.544 12h30.961C54.153 61 60 55.648 60 49v-1.992a12.97 12.97 0 0 1-13 12.963H17.002A12.973 12.973 0 0 1 4 46.969" opacity=".03" style="font-feature-settings:normal;font-variant-alternates:normal;font-variant-caps:normal;font-variant-east-asian:normal;font-variant-ligatures:normal;font-variant-numeric:normal;font-variant-position:normal;font-variation-settings:normal;inline-size:0;isolation:auto;mix-blend-mode:normal;shape-margin:0;shape-padding:0;text-decoration-color:#000;text-decoration-line:none;text-decoration-style:solid;text-indent:0;text-orientation:mixed;text-transform:none;white-space:normal"/><path d="M1.058 11.906v.592c0 1.939 1.573 3.5 3.332 3.5h8.16c1.76 0 3.325-1.561 3.325-3.5v-.58c-.006 2.095-1.537 3.78-3.44 3.78H4.498c-1.905 0-3.44-1.692-3.44-3.792" opacity=".05" style="font-feature-settings:normal;font-variant-alternates:normal;font-variant-caps:normal;font-variant-east-asian:normal;font-variant-ligatures:normal;font-variant-numeric:normal;font-variant-position:normal;font-variation-settings:normal;inline-size:0;isolation:auto;mix-blend-mode:normal;shape-margin:0;shape-padding:0;text-decoration-color:#000;text-decoration-line:none;text-decoration-style:solid;text-indent:0;text-orientation:mixed;text-transform:none;white-space:normal" transform="scale(3.7796)"/></g><rect width="56" height="56" x="4" y="4" fill="url(#a)" rx="13.002" ry="13.002"/><g stroke-width="1.333"><path d="M18.668 17A2.66 2.66 0 0 0 16 19.666v10.668A2.663 2.663 0 0 0 18.668 33 2.66 2.66 0 0 0 16 35.666v10.668A2.663 2.663 0 0 0 18.668 49h10.666c1.47 0 2.66-1.188 2.666-2.656A2.663 2.663 0 0 0 34.668 49h10.666a2.666 2.666 0 0 0 2.668-2.666V35.666A2.663 2.663 0 0 0 45.334 33 2.665 2.665 0 0 0 48 30.334V19.666A2.66 2.66 0 0 0 45.334 17H34.668A2.66 2.66 0 0 0 32 19.666 2.66 2.66 0 0 0 29.334 17zm0 1.334h10.666c.74 0 1.334.592 1.334 1.332v10.668c0 .74-.594 1.332-1.334 1.332H18.668c-.74 0-1.334-.592-1.334-1.332V19.666c0-.74.594-1.332 1.334-1.332m16 0h10.666c.74 0 1.334.592 1.334 1.332v10.668c0 .74-.594 1.332-1.334 1.332H34.668c-.74 0-1.334-.592-1.334-1.332V19.666c0-.74.594-1.332 1.334-1.332M20 19.666c-.74 0-1.332.594-1.332 1.334v8c0 .735.592 1.334 1.332 1.334h8c.735 0 1.334-.6 1.334-1.334v-8c0-.74-.6-1.334-1.334-1.334zm16 0c-.74 0-1.332.594-1.332 1.334v8c0 .735.592 1.334 1.332 1.334h8c.735 0 1.334-.6 1.334-1.334v-8c0-.74-.6-1.334-1.334-1.334zm-4 10.668A2.663 2.663 0 0 0 34.668 33 2.66 2.66 0 0 0 32 35.656 2.66 2.66 0 0 0 29.334 33 2.665 2.665 0 0 0 32 30.334m-13.332 3.998h10.666c.74 0 1.334.594 1.334 1.334v10.668c0 .74-.594 1.332-1.334 1.332H18.668c-.74 0-1.334-.592-1.334-1.332V35.666c0-.74.594-1.334 1.334-1.334m16 0h10.666c.74 0 1.334.594 1.334 1.334v10.668c0 .74-.594 1.332-1.334 1.332H34.668c-.74 0-1.334-.592-1.334-1.332V35.666c0-.74.594-1.334 1.334-1.334M20 35.666c-.74 0-1.332.594-1.332 1.334v8A1.33 1.33 0 0 0 20 46.332h8c.735 0 1.334-.597 1.334-1.332v-8c0-.74-.6-1.334-1.334-1.334zm16 0c-.74 0-1.332.594-1.332 1.334v8A1.33 1.33 0 0 0 36 46.332h8c.735 0 1.334-.597 1.334-1.332v-8c0-.74-.6-1.334-1.334-1.334z" filter="url(#b)" opacity=".15"/><path fill="url(#c)" d="M18.667 16A2.66 2.66 0 0 0 16 18.667v10.667A2.663 2.663 0 0 0 18.667 32h10.667a2.666 2.666 0 0 0 2.667-2.666V18.667A2.663 2.663 0 0 0 29.334 16zm0 1.333h10.667c.74 0 1.333.594 1.333 1.334v10.667c0 .74-.593 1.333-1.333 1.333H18.667c-.74 0-1.333-.593-1.333-1.333V18.667c0-.74.593-1.334 1.333-1.334M20 18.667c-.74 0-1.333.593-1.333 1.333v8c0 .735.593 1.333 1.333 1.333h8c.735 0 1.334-.598 1.334-1.333v-8c0-.74-.6-1.333-1.334-1.333zM34.667 32a2.66 2.66 0 0 0-2.666 2.666v10.667A2.663 2.663 0 0 0 34.667 48h10.667a2.666 2.666 0 0 0 2.667-2.667V34.666A2.663 2.663 0 0 0 45.334 32zm0 1.333h10.667c.74 0 1.334.593 1.334 1.333v10.667a1.33 1.33 0 0 1-1.334 1.334H34.667c-.74 0-1.333-.594-1.333-1.334V34.666c0-.74.593-1.333 1.333-1.333m1.334 1.333A1.33 1.33 0 0 0 34.667 36v8c0 .734.594 1.333 1.334 1.333h8c.734 0 1.333-.599 1.333-1.333v-8c0-.74-.599-1.334-1.333-1.334z"/><path fill="url(#d)" d="M34.667 16A2.66 2.66 0 0 0 32 18.667v10.667A2.663 2.663 0 0 0 34.667 32h10.667a2.666 2.666 0 0 0 2.667-2.666V18.667A2.663 2.663 0 0 0 45.334 16zm0 1.333h10.667c.74 0 1.333.594 1.333 1.334v10.667c0 .74-.593 1.333-1.333 1.333H34.667c-.74 0-1.333-.593-1.333-1.333V18.667c0-.74.593-1.334 1.333-1.334M36 18.667c-.74 0-1.333.593-1.333 1.333v8c0 .735.593 1.333 1.333 1.333h8c.735 0 1.334-.598 1.334-1.333v-8c0-.74-.6-1.333-1.334-1.333zM18.667 32a2.66 2.66 0 0 0-2.666 2.666v10.667A2.663 2.663 0 0 0 18.667 48h10.667a2.666 2.666 0 0 0 2.667-2.667V34.666A2.663 2.663 0 0 0 29.334 32zm0 1.333h10.667c.74 0 1.334.593 1.334 1.333v10.667a1.33 1.33 0 0 1-1.334 1.334H18.667c-.74 0-1.333-.594-1.333-1.334V34.666c0-.74.593-1.333 1.333-1.333m1.334 1.333A1.33 1.33 0 0 0 18.667 36v8c0 .734.594 1.333 1.334 1.333h8c.734 0 1.333-.599 1.333-1.333v-8c0-.74-.599-1.334-1.333-1.334z"/></g></svg>