<svg width="64" height="64" viewBox="0 0 16.933 16.933" xmlns="http://www.w3.org/2000/svg"><defs><linearGradient id="a" x1="37.737" x2="37.737" y1="62.067" y2="39.79" gradientTransform="translate(-28 -40.225)" gradientUnits="userSpaceOnUse"><stop stop-color="#089" offset="0"/><stop stop-color="#6f6" offset="1"/></linearGradient><linearGradient id="d" x1="7.937" x2="7.937" y1="4.233" y2="12.7" gradientUnits="userSpaceOnUse"><stop stop-color="#fff" offset="0"/><stop stop-color="#b8ffe1" offset="1"/></linearGradient><filter id="c" x="-.102" y="-.115" width="1.203" height="1.23" color-interpolation-filters="sRGB"><feGaussianBlur stdDeviation=".403"/></filter><filter id="b" x="-.174" y="-.174" width="1.349" height="1.349" color-interpolation-filters="sRGB"><feGaussianBlur stdDeviation=".403"/></filter></defs><g color="#000"><path d="M4.37.53C2.254.53.53 2.312.53 4.496v8.468c0 2.184 1.725 3.968 3.84 3.968h8.194c2.114 0 3.84-1.783 3.84-3.968V4.497c0-2.184-1.726-3.968-3.84-3.968zm.256.52h7.681c1.844 0 3.33 1.534 3.33 3.44v7.937c0 1.906-1.485 3.44-3.33 3.44h-7.68c-1.845 0-3.33-1.534-3.33-3.44V4.49c0-1.906 1.485-3.44 3.33-3.44z" opacity=".01" style="font-feature-settings:normal;font-variant-alternates:normal;font-variant-caps:normal;font-variant-east-asian:normal;font-variant-ligatures:normal;font-variant-numeric:normal;font-variant-position:normal;font-variation-settings:normal;inline-size:0;isolation:auto;mix-blend-mode:normal;shape-margin:0;shape-padding:0;text-decoration-color:#000;text-decoration-line:none;text-decoration-style:solid;text-indent:0;text-orientation:mixed;text-transform:none;white-space:normal"/><path d="M4.359.794C2.392.794.795 2.447.795 4.48v8.5c0 2.035 1.597 3.688 3.564 3.688h8.216c1.967 0 3.564-1.653 3.564-3.688v-8.5c0-2.034-1.597-3.687-3.564-3.687zm.272.256h7.672c1.842 0 3.325 1.534 3.325 3.44v7.937c0 1.906-1.483 3.44-3.325 3.44H4.63c-1.842 0-3.325-1.534-3.325-3.44V4.49c0-1.906 1.483-3.44 3.325-3.44z" opacity=".01" style="font-feature-settings:normal;font-variant-alternates:normal;font-variant-caps:normal;font-variant-east-asian:normal;font-variant-ligatures:normal;font-variant-numeric:normal;font-variant-position:normal;font-variation-settings:normal;inline-size:0;isolation:auto;mix-blend-mode:normal;shape-margin:0;shape-padding:0;text-decoration-color:#000;text-decoration-line:none;text-decoration-style:solid;text-indent:0;text-orientation:mixed;text-transform:none;white-space:normal"/><path d="M4.31 1.058c-1.866 0-3.375 1.539-3.375 3.44v8.467c0 1.9 1.57 3.439 3.435 3.439h8.2c1.866 0 3.427-1.538 3.427-3.44V4.498c0-1.9-1.51-3.439-3.375-3.439h-.097c1.794.087 3.214 1.582 3.214 3.432v7.937c0 1.906-1.506 3.44-3.377 3.44h-7.79c-1.871 0-3.377-1.534-3.377-3.44V4.49c0-1.85 1.42-3.345 3.214-3.432z" opacity=".03" style="font-feature-settings:normal;font-variant-alternates:normal;font-variant-caps:normal;font-variant-east-asian:normal;font-variant-ligatures:normal;font-variant-numeric:normal;font-variant-position:normal;font-variation-settings:normal;inline-size:0;isolation:auto;mix-blend-mode:normal;shape-margin:0;shape-padding:0;text-decoration-color:#000;text-decoration-line:none;text-decoration-style:solid;text-indent:0;text-orientation:mixed;text-transform:none;white-space:normal"/><path transform="scale(.26458)" d="M4 46.969V49c0 6.648 5.896 12 12.544 12h30.961C54.153 61 60 55.648 60 49v-1.992a12.972 12.972 0 0 1-13 12.963H17.002A12.973 12.973 0 0 1 4 46.969z" opacity=".03" style="font-feature-settings:normal;font-variant-alternates:normal;font-variant-caps:normal;font-variant-east-asian:normal;font-variant-ligatures:normal;font-variant-numeric:normal;font-variant-position:normal;font-variation-settings:normal;inline-size:0;isolation:auto;mix-blend-mode:normal;shape-margin:0;shape-padding:0;text-decoration-color:#000;text-decoration-line:none;text-decoration-style:solid;text-indent:0;text-orientation:mixed;text-transform:none;white-space:normal"/><path d="M1.058 11.906v.592c0 1.939 1.573 3.5 3.332 3.5h8.16c1.76 0 3.325-1.561 3.325-3.5v-.58c-.006 2.095-1.537 3.78-3.44 3.78H4.498c-1.905 0-3.44-1.692-3.44-3.792z" opacity=".05" style="font-feature-settings:normal;font-variant-alternates:normal;font-variant-caps:normal;font-variant-east-asian:normal;font-variant-ligatures:normal;font-variant-numeric:normal;font-variant-position:normal;font-variation-settings:normal;inline-size:0;isolation:auto;mix-blend-mode:normal;shape-margin:0;shape-padding:0;text-decoration-color:#000;text-decoration-line:none;text-decoration-style:solid;text-indent:0;text-orientation:mixed;text-transform:none;white-space:normal"/></g><rect x="1.058" y="1.058" width="14.816" height="14.816" rx="3.44" ry="3.44" fill="url(#a)"/><g clip-rule="evenodd" fill-rule="evenodd" stroke-width=".132"><path d="M11.012 5.92c.31.31.31.813 0 1.123l-3.969 3.97A.794.794 0 1 1 5.921 9.89l3.968-3.97a.794.794 0 0 1 1.123 0z" fill="#fff" opacity=".4"/><path d="M11.012 6.121c.31.31.31.813 0 1.123l-3.969 3.969a.794.794 0 1 1-1.122-1.123l3.968-3.969a.794.794 0 0 1 1.123 0z" filter="url(#b)" opacity=".05"/><path d="M5.292 6.614v4.105l.629-.629a.794.794 0 1 1 1.122 1.123l-1.306 1.306c-.75.75-2.033.22-2.033-.841V5.656c0-1.06 1.283-1.591 2.033-.841l5.905 5.904V6.615l-.63.629A.794.794 0 1 1 9.89 6.12l1.306-1.306c.75-.75 2.033-.22 2.033.841v6.022c0 1.06-1.282 1.591-2.033.841z" filter="url(#c)" opacity=".15"/><path d="M5.292 6.414v4.105l.629-.63a.794.794 0 1 1 1.122 1.123L5.737 12.32c-.75.75-2.033.219-2.033-.842V5.456c0-1.06 1.283-1.592 2.033-.842l5.905 5.905V6.414l-.63.63A.794.794 0 1 1 9.89 5.92l1.306-1.307c.75-.75 2.033-.219 2.033.842v6.021c0 1.061-1.282 1.592-2.033.842z" fill="url(#d)"/></g></svg>