<?xml version="1.0" encoding="UTF-8" standalone="no"?>
<svg
   xmlns:dc="http://purl.org/dc/elements/1.1/"
   xmlns:cc="http://creativecommons.org/ns#"
   xmlns:rdf="http://www.w3.org/1999/02/22-rdf-syntax-ns#"
   xmlns:svg="http://www.w3.org/2000/svg"
   xmlns="http://www.w3.org/2000/svg"
   xmlns:xlink="http://www.w3.org/1999/xlink"
   viewBox="0 0 64 64"
   version="1.1"
   image-rendering="optimizeSpeed"
   enable-background="new 0 0 1024 1024"
   height="64"
   width="64"
   id="Apps-Opera">
  <metadata
     id="metadata55">
    <rdf:RDF>
      <cc:Work
         rdf:about="">
        <dc:format>image/svg+xml</dc:format>
        <dc:type
           rdf:resource="http://purl.org/dc/dcmitype/StillImage" />
        <dc:title></dc:title>
      </cc:Work>
    </rdf:RDF>
  </metadata>
  <defs
     id="defs26">
    <linearGradient
       gradientUnits="userSpaceOnUse"
       gradientTransform="matrix(0 32.792 -32.792 0 38.638 16.028)"
       x2="1"
       id="b">
      <stop
         id="stop2"
         offset="0"
         stop-color="#9c0000" />
      <stop
         id="stop4"
         offset=".7"
         stop-color="#ff4b4b" />
      <stop
         id="stop6"
         offset="1"
         stop-color="#ff4b4b" />
    </linearGradient>
    <linearGradient
       gradientUnits="userSpaceOnUse"
       gradientTransform="matrix(0 37.076 -37.076 0 29.033 13.843)"
       x2="1"
       id="a">
      <stop
         id="stop9"
         offset="0"
         stop-color="#ff1b2d" />
      <stop
         id="stop11"
         offset=".3"
         stop-color="#ff1b2d" />
      <stop
         id="stop13"
         offset=".61"
         stop-color="#ff1b2d" />
      <stop
         id="stop15"
         offset="1"
         stop-color="#a70014" />
    </linearGradient>
    <filter
       color-interpolation-filters="sRGB"
       height="1.072"
       width="1.072"
       y="-.036"
       x="-.036"
       id="d">
      <feGaussianBlur
         id="feGaussianBlur18"
         stdDeviation="9" />
    </filter>
    <linearGradient
       gradientUnits="userSpaceOnUse"
       gradientTransform="matrix(3.7795 0 0 3.7795 .00014309 .031541)"
       y2="1.852"
       y1="15.081"
       x2="7.9373"
       x1="7.9373"
       id="linearGradient862-3">
      <stop
         id="stop21"
         offset="0"
         stop-color="#f1efeb" />
      <stop
         id="stop23"
         offset="1"
         stop-color="#fdfcfc" />
    </linearGradient>
    <filter
       id="filter957"
       x="-0.2325"
       y="-0.051667001"
       width="1.465"
       height="1.1033"
       color-interpolation-filters="sRGB">
      <feGaussianBlur
         stdDeviation="0.775"
         id="feGaussianBlur17" />
    </filter>
    <linearGradient
       gradientTransform="translate(-2.7850799,0.85318792)"
       id="linearGradient911"
       x1="23"
       x2="23"
       y1="14"
       y2="50"
       gradientUnits="userSpaceOnUse"
       xlink:href="#linearGradient880" />
    <linearGradient
       id="linearGradient880"
       x1="15.938"
       x2="44.062"
       y1="44.845001"
       y2="44.845001"
       gradientTransform="rotate(2.3768,118.86,41.374)"
       gradientUnits="userSpaceOnUse">
      <stop
         stop-color="#f41e00"
         offset="0"
         id="stop10" />
      <stop
         stop-color="#00d500"
         offset="1"
         id="stop12" />
    </linearGradient>
    <filter
       id="filter961"
       x="-0.2325"
       y="-0.051667001"
       width="1.465"
       height="1.1033"
       color-interpolation-filters="sRGB">
      <feGaussianBlur
         stdDeviation="0.775"
         id="feGaussianBlur20" />
    </filter>
    <linearGradient
       gradientTransform="translate(-2.7850799,0.85318792)"
       id="linearGradient919"
       x1="41"
       x2="41"
       y1="14"
       y2="50"
       gradientUnits="userSpaceOnUse"
       xlink:href="#linearGradient880" />
  </defs>
  <g
     id="g40"
     shape-rendering="auto"
     transform="scale(3.7796)">
    <path
       id="path28"
       style="font-feature-settings:normal;font-variant-alternates:normal;font-variant-caps:normal;font-variant-east-asian:normal;font-variant-ligatures:normal;font-variant-numeric:normal;font-variant-position:normal;font-variation-settings:normal;inline-size:0;isolation:auto;mix-blend-mode:normal;shape-margin:0;shape-padding:0;text-decoration-color:#000000;text-decoration-line:none;text-decoration-style:solid;text-indent:0;text-orientation:mixed;text-transform:none;white-space:normal"
       stop-color="#000000"
       solid-color="#000000"
       opacity=".01"
       image-rendering="auto"
       enable-background="accumulate"
       dominant-baseline="auto"
       color-rendering="auto"
       color="#000000"
       d="m4.3693 0.52916c-2.1142 0-3.8402 1.7835-3.8402 3.9682v8.4675c0 2.1846 1.726 3.9682 3.8402 3.9682h8.1944c2.1142 0 3.8402-1.7835 3.8402-3.9682v-8.4675c0-2.1846-1.726-3.9682-3.8402-3.9682zm0.25704 0.52089h7.6808c1.8443 0 3.3291 1.5342 3.3291 3.44v7.9368c0 1.9058-1.4847 3.44-3.3291 3.44h-7.6808c-1.8443 0-3.3291-1.5342-3.3291-3.44v-7.9368c0-1.9058 1.4847-3.44 3.3291-3.44z" />
    <path
       id="path30"
       style="font-feature-settings:normal;font-variant-alternates:normal;font-variant-caps:normal;font-variant-east-asian:normal;font-variant-ligatures:normal;font-variant-numeric:normal;font-variant-position:normal;font-variation-settings:normal;inline-size:0;isolation:auto;mix-blend-mode:normal;shape-margin:0;shape-padding:0;text-decoration-color:#000000;text-decoration-line:none;text-decoration-style:solid;text-indent:0;text-orientation:mixed;text-transform:none;white-space:normal"
       stop-color="#000000"
       solid-color="#000000"
       opacity=".01"
       image-rendering="auto"
       enable-background="accumulate"
       dominant-baseline="auto"
       color-rendering="auto"
       color="#000000"
       d="m4.3587 0.79373c-1.9668 0-3.5639 1.6528-3.5639 3.6876v8.4996c0 2.0348 1.5971 3.6876 3.5639 3.6876h8.2162c1.9668 0 3.5644-1.6528 3.5644-3.6876v-8.4996c0-2.0348-1.5976-3.6876-3.5644-3.6876zm0.27222 0.25631h7.6718c1.8422 0 3.3251 1.5342 3.3251 3.44v7.9368c0 1.9058-1.483 3.44-3.3251 3.44h-7.6718c-1.8422 0-3.3251-1.5342-3.3251-3.44v-7.9368c0-1.9058 1.483-3.44 3.3251-3.44z" />
    <g
       id="g38">
      <path
         id="path32"
         style="font-feature-settings:normal;font-variant-alternates:normal;font-variant-caps:normal;font-variant-east-asian:normal;font-variant-ligatures:normal;font-variant-numeric:normal;font-variant-position:normal;font-variation-settings:normal;inline-size:0;isolation:auto;mix-blend-mode:normal;shape-margin:0;shape-padding:0;text-decoration-color:#000000;text-decoration-line:none;text-decoration-style:solid;text-indent:0;text-orientation:mixed;text-transform:none;white-space:normal"
         stop-color="#000000"
         solid-color="#000000"
         opacity=".03"
         image-rendering="auto"
         enable-background="accumulate"
         dominant-baseline="auto"
         color-rendering="auto"
         color="#000000"
         d="m4.3097 1.0583c-1.8657 0-3.3751 1.5383-3.3751 3.439v8.4675c0 1.9007 1.57 3.439 3.4357 3.439h8.1996c1.8657 0 3.4274-1.5383 3.4274-3.439v-8.4675c0-1.9007-1.51-3.439-3.3756-3.439h-0.09688c1.794 0.086515 3.2138 1.5819 3.2138 3.4318v7.9368c0 1.9058-1.5059 3.44-3.3766 3.44h-7.7905c-1.8707 0-3.3766-1.5342-3.3766-3.44v-7.9368c0-1.8498 1.4199-3.3451 3.2138-3.4318z" />
      <path
         id="path34"
         style="font-feature-settings:normal;font-variant-alternates:normal;font-variant-caps:normal;font-variant-east-asian:normal;font-variant-ligatures:normal;font-variant-numeric:normal;font-variant-position:normal;font-variation-settings:normal;inline-size:0;isolation:auto;mix-blend-mode:normal;shape-margin:0;shape-padding:0;text-decoration-color:#000000;text-decoration-line:none;text-decoration-style:solid;text-indent:0;text-orientation:mixed;text-transform:none;white-space:normal"
         stop-color="#000000"
         solid-color="#000000"
         opacity=".03"
         image-rendering="auto"
         enable-background="accumulate"
         dominant-baseline="auto"
         color-rendering="auto"
         color="#000000"
         d="m4 46.969v2.0312c0 6.6479 5.8957 12 12.544 12h30.961c6.6479 0 12.495-5.3521 12.495-12v-1.9922c-0.021173 7.1849-5.81 12.963-13 12.963h-29.998c-7.2032 0-13.002-5.7987-13.002-13.002z"
         transform="scale(.26458)" />
      <path
         id="path36"
         style="font-feature-settings:normal;font-variant-alternates:normal;font-variant-caps:normal;font-variant-east-asian:normal;font-variant-ligatures:normal;font-variant-numeric:normal;font-variant-position:normal;font-variation-settings:normal;inline-size:0;isolation:auto;mix-blend-mode:normal;shape-margin:0;shape-padding:0;text-decoration-color:#000000;text-decoration-line:none;text-decoration-style:solid;text-indent:0;text-orientation:mixed;text-transform:none;white-space:normal"
         stop-color="#000000"
         solid-color="#000000"
         opacity=".05"
         image-rendering="auto"
         enable-background="accumulate"
         dominant-baseline="auto"
         color-rendering="auto"
         color="#000000"
         d="m1.0583 11.906v0.59234c0 1.9386 1.5729 3.4993 3.3318 3.4993h8.1603c1.7589 0 3.3243-1.5608 3.3243-3.4993v-0.58095c-0.0056 2.0952-1.5372 3.7801-3.4395 3.7801h-7.9368c-1.9058 0-3.44-1.691-3.44-3.7915z" />
    </g>
  </g>
  <rect
     id="rect42"
     stroke-width="3.7795"
     fill="url(#linearGradient862-3)"
     ry="13.002"
     rx="13.002"
     height="56"
     width="56"
     y="4"
     x="4" />
  <g
     transform="translate(2.7850634,0.14752828)"
     id="g944">
    <rect
       id="rect29"
       style="paint-order:stroke fill markers"
       opacity="0.15"
       filter="url(#filter957)"
       fill="#000000"
       ry="2"
       rx="2"
       height="36"
       width="8"
       y="14.853188"
       x="16.21492" />
    <rect
       id="rect31"
       style="fill:url(#linearGradient911);paint-order:stroke fill markers"
       fill="url(#linearGradient911)"
       ry="2"
       rx="2"
       height="36"
       width="8"
       y="14.853188"
       x="16.21492" />
    <rect
       id="rect33"
       style="paint-order:stroke fill markers"
       opacity="0.15"
       filter="url(#filter961)"
       fill="#000000"
       ry="2"
       rx="2"
       height="36"
       width="8"
       y="14.853188"
       x="34.21492" />
    <rect
       id="rect35"
       style="fill:url(#linearGradient919);paint-order:stroke fill markers"
       fill="url(#linearGradient919)"
       ry="2"
       rx="2"
       height="36"
       width="8"
       y="14.853188"
       x="34.21492" />
    <rect
       id="rect37"
       style="paint-order:stroke fill markers"
       opacity="0.35"
       fill="#000000"
       ry="0"
       rx="0"
       height="18"
       width="8"
       y="24.853188"
       x="16.21492" />
    <rect
       id="rect39"
       style="paint-order:stroke fill markers"
       opacity="0.15"
       fill="#000000"
       ry="0"
       rx="0"
       height="18"
       width="8"
       y="24.853188"
       x="34.21492" />
    <rect
       id="rect41"
       style="paint-order:stroke fill markers"
       opacity="0.35"
       fill="#000000"
       ry="0"
       rx="0"
       height="18"
       width="8"
       y="24.853188"
       x="34.21492" />
    <rect
       id="rect43"
       style="paint-order:stroke fill markers"
       opacity="0.15"
       fill="#000000"
       ry="1"
       rx="1"
       height="36"
       width="2"
       y="14.853188"
       x="10.21492" />
    <rect
       id="rect45"
       style="paint-order:stroke fill markers"
       opacity="0.15"
       fill="#000000"
       ry="1"
       rx="1"
       height="36"
       width="2"
       y="14.853188"
       x="28.21492" />
    <rect
       id="rect47"
       style="paint-order:stroke fill markers"
       opacity="0.15"
       fill="#000000"
       ry="1"
       rx="1"
       height="36"
       width="2"
       y="14.853188"
       x="46.21492" />
    <rect
       id="rect49"
       style="paint-order:stroke fill markers"
       fill="#808080"
       ry="0.88889003"
       rx="1"
       height="8"
       width="4"
       y="33.853188"
       x="9.21492" />
    <rect
       id="rect51"
       style="paint-order:stroke fill markers"
       fill="#808080"
       ry="0.88889003"
       rx="1"
       height="8"
       width="4"
       y="22.853188"
       x="27.21492" />
    <rect
       id="rect53"
       style="paint-order:stroke fill markers"
       fill="#808080"
       ry="0.88889003"
       rx="1"
       height="8"
       width="4"
       y="29.853188"
       x="45.21492" />
  </g>
</svg>
