<svg xmlns="http://www.w3.org/2000/svg" xmlns:xlink="http://www.w3.org/1999/xlink" image-rendering="optimizeSpeed" enable-background="new 0 0 1024 1024" height="64" width="64"><defs><linearGradient gradientUnits="userSpaceOnUse" gradientTransform="translate(0 .032) scale(3.7795)" y2="1.852" y1="15.081" x2="7.937" x1="7.937" id="b"><stop offset="0" stop-color="#f1efeb"/><stop offset="1" stop-color="#fdfcfc"/></linearGradient><linearGradient gradientTransform="translate(-2.785 .853)" id="d" x1="23" x2="23" y1="14" y2="50" gradientUnits="userSpaceOnUse" xlink:href="#a"/><linearGradient id="a" x1="15.938" x2="44.062" y1="44.845" y2="44.845" gradientTransform="rotate(2.377 118.86 41.374)" gradientUnits="userSpaceOnUse"><stop stop-color="#f41e00" offset="0"/><stop stop-color="#00d500" offset="1"/></linearGradient><linearGradient gradientTransform="translate(-2.785 .853)" id="f" x1="41" x2="41" y1="14" y2="50" gradientUnits="userSpaceOnUse" xlink:href="#a"/><filter id="c" x="-.233" y="-.052" width="1.465" height="1.103" color-interpolation-filters="sRGB"><feGaussianBlur stdDeviation=".775"/></filter><filter id="e" x="-.233" y="-.052" width="1.465" height="1.103" color-interpolation-filters="sRGB"><feGaussianBlur stdDeviation=".775"/></filter></defs><g image-rendering="auto" color="#000"><path style="font-feature-settings:normal;font-variant-alternates:normal;font-variant-caps:normal;font-variant-east-asian:normal;font-variant-ligatures:normal;font-variant-numeric:normal;font-variant-position:normal;font-variation-settings:normal;inline-size:0;isolation:auto;mix-blend-mode:normal;shape-margin:0;shape-padding:0;text-decoration-color:#000;text-decoration-line:none;text-decoration-style:solid;text-indent:0;text-orientation:mixed;text-transform:none;white-space:normal" opacity=".01" enable-background="accumulate" d="M4.37.53C2.254.53.53 2.312.53 4.496v8.468c0 2.184 1.725 3.968 3.84 3.968h8.194c2.114 0 3.84-1.783 3.84-3.968V4.497c0-2.184-1.726-3.968-3.84-3.968zm.256.52h7.681c1.844 0 3.33 1.534 3.33 3.44v7.937c0 1.906-1.485 3.44-3.33 3.44h-7.68c-1.845 0-3.33-1.534-3.33-3.44V4.49c0-1.906 1.485-3.44 3.33-3.44z" transform="scale(3.7796)"/><path style="font-feature-settings:normal;font-variant-alternates:normal;font-variant-caps:normal;font-variant-east-asian:normal;font-variant-ligatures:normal;font-variant-numeric:normal;font-variant-position:normal;font-variation-settings:normal;inline-size:0;isolation:auto;mix-blend-mode:normal;shape-margin:0;shape-padding:0;text-decoration-color:#000;text-decoration-line:none;text-decoration-style:solid;text-indent:0;text-orientation:mixed;text-transform:none;white-space:normal" opacity=".01" enable-background="accumulate" d="M4.359.794C2.392.794.795 2.447.795 4.48v8.5c0 2.035 1.597 3.688 3.564 3.688h8.216c1.967 0 3.564-1.653 3.564-3.688v-8.5c0-2.034-1.597-3.687-3.564-3.687zm.272.256h7.672c1.842 0 3.325 1.534 3.325 3.44v7.937c0 1.906-1.483 3.44-3.325 3.44H4.63c-1.842 0-3.325-1.534-3.325-3.44V4.49c0-1.906 1.483-3.44 3.325-3.44z" transform="scale(3.7796)"/><path style="font-feature-settings:normal;font-variant-alternates:normal;font-variant-caps:normal;font-variant-east-asian:normal;font-variant-ligatures:normal;font-variant-numeric:normal;font-variant-position:normal;font-variation-settings:normal;inline-size:0;isolation:auto;mix-blend-mode:normal;shape-margin:0;shape-padding:0;text-decoration-color:#000;text-decoration-line:none;text-decoration-style:solid;text-indent:0;text-orientation:mixed;text-transform:none;white-space:normal" opacity=".03" enable-background="accumulate" d="M4.31 1.058c-1.866 0-3.375 1.539-3.375 3.44v8.467c0 1.9 1.57 3.439 3.435 3.439h8.2c1.866 0 3.427-1.538 3.427-3.44V4.498c0-1.9-1.51-3.439-3.375-3.439h-.097c1.794.087 3.214 1.582 3.214 3.432v7.937c0 1.906-1.506 3.44-3.377 3.44h-7.79c-1.871 0-3.377-1.534-3.377-3.44V4.49c0-1.85 1.42-3.345 3.214-3.432z" transform="scale(3.7796)"/><path style="font-feature-settings:normal;font-variant-alternates:normal;font-variant-caps:normal;font-variant-east-asian:normal;font-variant-ligatures:normal;font-variant-numeric:normal;font-variant-position:normal;font-variation-settings:normal;inline-size:0;isolation:auto;mix-blend-mode:normal;shape-margin:0;shape-padding:0;text-decoration-color:#000;text-decoration-line:none;text-decoration-style:solid;text-indent:0;text-orientation:mixed;text-transform:none;white-space:normal" opacity=".03" enable-background="accumulate" d="M4 46.969V49c0 6.648 5.896 12 12.544 12h30.961C54.153 61 60 55.648 60 49v-1.992a12.972 12.972 0 0 1-13 12.963H17.002A12.973 12.973 0 0 1 4 46.969z"/><path style="font-feature-settings:normal;font-variant-alternates:normal;font-variant-caps:normal;font-variant-east-asian:normal;font-variant-ligatures:normal;font-variant-numeric:normal;font-variant-position:normal;font-variation-settings:normal;inline-size:0;isolation:auto;mix-blend-mode:normal;shape-margin:0;shape-padding:0;text-decoration-color:#000;text-decoration-line:none;text-decoration-style:solid;text-indent:0;text-orientation:mixed;text-transform:none;white-space:normal" opacity=".05" enable-background="accumulate" d="M1.058 11.906v.592c0 1.939 1.573 3.5 3.332 3.5h8.16c1.76 0 3.325-1.561 3.325-3.5v-.58c-.006 2.095-1.537 3.78-3.44 3.78H4.498c-1.905 0-3.44-1.692-3.44-3.792z" transform="scale(3.7796)"/></g><rect fill="url(#b)" ry="13.002" rx="13.002" height="56" width="56" y="4" x="4"/><g transform="translate(2.785 .148)"><rect style="paint-order:stroke fill markers" opacity=".15" filter="url(#c)" ry="2" rx="2" height="36" width="8" y="14.853" x="16.215"/><rect style="fill:url(#d);paint-order:stroke fill markers" fill="url(#d)" ry="2" rx="2" height="36" width="8" y="14.853" x="16.215"/><rect style="paint-order:stroke fill markers" opacity=".15" filter="url(#e)" ry="2" rx="2" height="36" width="8" y="14.853" x="34.215"/><rect style="fill:url(#f);paint-order:stroke fill markers" fill="url(#f)" ry="2" rx="2" height="36" width="8" y="14.853" x="34.215"/><rect style="paint-order:stroke fill markers" opacity=".35" ry="0" rx="0" height="18" width="8" y="24.853" x="16.215"/><rect style="paint-order:stroke fill markers" opacity=".15" ry="0" rx="0" height="18" width="8" y="24.853" x="34.215"/><rect style="paint-order:stroke fill markers" opacity=".35" ry="0" rx="0" height="18" width="8" y="24.853" x="34.215"/><rect style="paint-order:stroke fill markers" opacity=".15" ry="1" rx="1" height="36" width="2" y="14.853" x="10.215"/><rect style="paint-order:stroke fill markers" opacity=".15" ry="1" rx="1" height="36" width="2" y="14.853" x="28.215"/><rect style="paint-order:stroke fill markers" opacity=".15" ry="1" rx="1" height="36" width="2" y="14.853" x="46.215"/><rect style="paint-order:stroke fill markers" fill="gray" ry=".889" rx="1" height="8" width="4" y="33.853" x="9.215"/><rect style="paint-order:stroke fill markers" fill="gray" ry=".889" rx="1" height="8" width="4" y="22.853" x="27.215"/><rect style="paint-order:stroke fill markers" fill="gray" ry=".889" rx="1" height="8" width="4" y="29.853" x="45.215"/></g></svg>