<svg width="64" height="64" xmlns="http://www.w3.org/2000/svg"><defs><linearGradient id="d" x1="74.341" x2="74.032" y1="15.186" y2="49.356" gradientUnits="userSpaceOnUse"><stop stop-color="#336df5" offset="0"/><stop stop-color="#42afe6" offset="1"/></linearGradient><linearGradient id="e" x1="76.747" x2="91.891" y1="32" y2="32" gradientUnits="userSpaceOnUse"><stop stop-color="#63c644" offset="0"/><stop stop-color="#96ca6b" stop-opacity=".982" offset="1"/></linearGradient><linearGradient id="c" x1="95.889" x2="95.172" y1="17.085" y2="48.949" gradientUnits="userSpaceOnUse"><stop stop-color="#5da624" offset="0"/><stop stop-color="#6ba63f" stop-opacity=".952" offset="1"/></linearGradient><linearGradient id="a" x1="7.937" x2="7.937" y1="15.081" y2="1.852" gradientTransform="scale(3.7796)" gradientUnits="userSpaceOnUse"><stop stop-color="#ececec" offset="0"/><stop stop-color="#fff" offset="1"/></linearGradient><filter id="b" x="-.118" y="-.1" width="1.236" height="1.199" color-interpolation-filters="sRGB"><feGaussianBlur stdDeviation="1.409"/></filter></defs><g color="#000"><path d="M4.37.53C2.254.53.53 2.312.53 4.496v8.468c0 2.184 1.725 3.968 3.84 3.968h8.194c2.114 0 3.84-1.783 3.84-3.968V4.497c0-2.184-1.726-3.968-3.84-3.968zm.256.52h7.681c1.844 0 3.33 1.534 3.33 3.44v7.937c0 1.906-1.485 3.44-3.33 3.44h-7.68c-1.845 0-3.33-1.534-3.33-3.44V4.49c0-1.906 1.485-3.44 3.33-3.44z" opacity=".01" style="font-feature-settings:normal;font-variant-alternates:normal;font-variant-caps:normal;font-variant-east-asian:normal;font-variant-ligatures:normal;font-variant-numeric:normal;font-variant-position:normal;font-variation-settings:normal;inline-size:0;isolation:auto;mix-blend-mode:normal;shape-margin:0;shape-padding:0;text-decoration-color:#000;text-decoration-line:none;text-decoration-style:solid;text-indent:0;text-orientation:mixed;text-transform:none;white-space:normal" transform="scale(3.7796)"/><path d="M4.359.794C2.392.794.795 2.447.795 4.48v8.5c0 2.035 1.597 3.688 3.564 3.688h8.216c1.967 0 3.564-1.653 3.564-3.688v-8.5c0-2.034-1.597-3.687-3.564-3.687zm.272.256h7.672c1.842 0 3.325 1.534 3.325 3.44v7.937c0 1.906-1.483 3.44-3.325 3.44H4.63c-1.842 0-3.325-1.534-3.325-3.44V4.49c0-1.906 1.483-3.44 3.325-3.44z" opacity=".01" style="font-feature-settings:normal;font-variant-alternates:normal;font-variant-caps:normal;font-variant-east-asian:normal;font-variant-ligatures:normal;font-variant-numeric:normal;font-variant-position:normal;font-variation-settings:normal;inline-size:0;isolation:auto;mix-blend-mode:normal;shape-margin:0;shape-padding:0;text-decoration-color:#000;text-decoration-line:none;text-decoration-style:solid;text-indent:0;text-orientation:mixed;text-transform:none;white-space:normal" transform="scale(3.7796)"/><path d="M4.31 1.058c-1.866 0-3.375 1.539-3.375 3.44v8.467c0 1.9 1.509 3.439 3.375 3.439h8.312c1.865 0 3.375-1.538 3.375-3.44V4.498c0-1.9-1.51-3.439-3.375-3.439h-.097c1.794.087 3.214 1.582 3.214 3.432v7.937c0 1.906-1.506 3.44-3.377 3.44h-7.79c-1.871 0-3.377-1.534-3.377-3.44V4.49c0-1.85 1.42-3.345 3.214-3.432z" opacity=".03" style="font-feature-settings:normal;font-variant-alternates:normal;font-variant-caps:normal;font-variant-east-asian:normal;font-variant-ligatures:normal;font-variant-numeric:normal;font-variant-position:normal;font-variation-settings:normal;inline-size:0;isolation:auto;mix-blend-mode:normal;shape-margin:0;shape-padding:0;text-decoration-color:#000;text-decoration-line:none;text-decoration-style:solid;text-indent:0;text-orientation:mixed;text-transform:none;white-space:normal" transform="scale(3.7796)"/><path d="M4 46.969V49c0 6.648 5.352 12 12 12h32c6.648 0 12-5.352 12-12v-1.992a12.972 12.972 0 0 1-13 12.963H17.002A12.973 12.973 0 0 1 4 46.969z" opacity=".03" style="font-feature-settings:normal;font-variant-alternates:normal;font-variant-caps:normal;font-variant-east-asian:normal;font-variant-ligatures:normal;font-variant-numeric:normal;font-variant-position:normal;font-variation-settings:normal;inline-size:0;isolation:auto;mix-blend-mode:normal;shape-margin:0;shape-padding:0;text-decoration-color:#000;text-decoration-line:none;text-decoration-style:solid;text-indent:0;text-orientation:mixed;text-transform:none;white-space:normal"/><path d="M1.058 11.906v.592c0 1.939 1.416 3.5 3.175 3.5H12.7c1.759 0 3.175-1.561 3.175-3.5v-.58c-.006 2.095-1.538 3.78-3.44 3.78H4.498c-1.905 0-3.44-1.692-3.44-3.792z" opacity=".05" style="font-feature-settings:normal;font-variant-alternates:normal;font-variant-caps:normal;font-variant-east-asian:normal;font-variant-ligatures:normal;font-variant-numeric:normal;font-variant-position:normal;font-variation-settings:normal;inline-size:0;isolation:auto;mix-blend-mode:normal;shape-margin:0;shape-padding:0;text-decoration-color:#000;text-decoration-line:none;text-decoration-style:solid;text-indent:0;text-orientation:mixed;text-transform:none;white-space:normal" transform="scale(3.7796)"/></g><rect x="4" y="3.969" width="56.002" height="56.002" rx="13.002" ry="13.002" fill="url(#a)"/><g transform="translate(-52.35 1.044)" filter="url(#b)" opacity=".15" stroke-width="1.304"><path d="m98.698 21.565-7.826-6.522v33.913l7.826-6.521zm-28.696 0 7.826-6.522v33.913l-7.826-6.521z"/><path d="M77.828 15.043c-1.589 4.544-1.287 9.196 0 13.912l13.043 20.001c.836-4.564 1.799-9.127 0-13.69z"/><path d="M90.872 35.266v13.69l5.87-4.891zM77.828 15.043l-5.88 4.9 5.88 9.012z"/></g><g stroke-width="1.304"><path d="m98.698 21.565-7.826-6.522v33.913l7.826-6.521z" fill="url(#c)" transform="translate(-52.35)"/><path d="m70.002 21.565 7.826-6.522v33.913l-7.826-6.521z" fill="url(#d)" transform="translate(-52.35)"/><path d="M77.828 15.043c-1.589 4.544-1.287 9.196 0 13.912l13.043 20.001c.836-4.564 1.799-9.127 0-13.69z" fill="url(#e)" transform="translate(-52.35)"/><path d="M38.522 35.266v13.69l5.87-4.891z" fill="#569e41"/><path d="m25.478 15.043-5.88 4.9 5.88 9.012z" fill="#5db54e"/></g></svg>