<svg width="64" height="64" fill="none" style="-webkit-print-color-adjust:exact" version="1.1" viewBox="0 0 64 64" xmlns="http://www.w3.org/2000/svg" xmlns:xlink="http://www.w3.org/1999/xlink">
 <defs>
  <pattern id="pattern21" patternTransform="scale(1)" xlink:href="#fill-0-rumext-id-3"/>
 </defs>
 <rect x="1.5593" y="1.999" width="60.882" height="62.001" rx="0" ry="0" fill="url(#pattern21)"/>
 <rect x="4" y="3.9686" width="56.002" height="56.002" rx="13.002" ry="13.002" fill="#262626"/>
 <g width="512" height="512" rx="0" ry="0" fill="#000000">
  <g id="shape-5bb60561-fce6-803d-8003-b05e8342a58f">
   <g id="fills-5bb60561-fce6-803d-8003-b05e8342a58f" class="fills">
    <path rx="0" ry="0" d="m42.187 50.002c-0.256 1.914-2.098 3.408-3.94 2.897-2.599-0.732-5.613-1.874-8.341-2.085l-4.165-0.321c-0.673-0.049-1.304-0.349-1.773-0.842l-7.189-7.516c-0.789-0.826-1-2.059-0.532-3.107 0 0 4.442-9.922 4.609-10.443 0.168-0.512 0.768-5.012 1.123-7.437 0.097-0.642 0.41-1.23 0.886-1.664l8.489-7.767c0.567-0.515 1.317-0.769 2.073-0.703 0.757 0.067 1.454 0.448 1.925 1.054l7.14 9.22c0.399 0.525 0.614 1.171 0.61 1.834 0 1.744 0.148 5.332 1.094 7.647 0.947 2.083 2.123 4.05 3.505 5.863 0.35 0.453 0.393 1.076 0.109 1.574-0.631 1.082-1.862 3.147-3.614 5.803-1.1 1.821-1.786 3.868-2.009 5.993z" fill="#6c31e3"/>
   </g>
  </g>
  <g id="shape-5bb60561-fce6-803d-8003-b05e83435aab">
   <defs>
    <radialGradient id="rumext-id-7-b" cx="0" cy="0" r="1" gradientTransform="matrix(-4.7269 -18.541 12.113 -3.207 24.372 49.54)" gradientUnits="userSpaceOnUse">
     <stop stop-color="#fff" stop-opacity=".4" offset="0"/>
     <stop stop-opacity=".1" offset="1"/>
    </radialGradient>
   </defs>
   <g id="fills-5bb60561-fce6-803d-8003-b05e83435aab" class="fills">
    <path rx="0" ry="0" d="m24.736 50.213c3.339-6.886 3.25-11.827 1.822-15.334-1.3-3.248-3.732-5.292-5.643-6.565-0.039 0.19-0.098 0.371-0.177 0.541l-4.491 10.173c-0.465 1.05-0.25 2.284 0.542 3.107l7.179 7.516c0.227 0.231 0.492 0.421 0.768 0.562z" fill="url(#rumext-id-7-b)"/>
   </g>
  </g>
  <defs>
   <radialGradient id="rumext-id-8-c" cx="0" cy="0" r="1" gradientTransform="matrix(4.0376 -31.068 22.551 3.0066 40.384 41.683)" gradientUnits="userSpaceOnUse">
    <stop stop-color="#fff" stop-opacity=".6" offset="0"/>
    <stop stop-color="#fff" stop-opacity=".1" offset="1"/>
   </radialGradient>
  </defs>
  <g class="fills">
   <path rx="0" ry="0" d="m33.816 36.242c0.896 0.09 1.773 0.29 2.639 0.611 2.738 1.042 5.229 3.387 7.288 7.908 0.147-0.261 0.295-0.512 0.453-0.752 1.257-1.9 2.463-3.835 3.614-5.803 0.287-0.496 0.248-1.119-0.099-1.574-1.386-1.812-2.565-3.779-3.515-5.863-0.946-2.305-1.084-5.903-1.094-7.647 0-0.661-0.206-1.313-0.61-1.834l-7.14-9.22-0.118-0.151c0.522 1.754 0.492 3.157 0.167 4.43-0.295 1.183-0.846 2.255-1.427 3.388-0.197 0.381-0.394 0.772-0.582 1.172-0.926 1.801-1.457 3.784-1.555 5.813-0.099 2.426 0.384 5.463 1.979 9.522z" fill="url(#rumext-id-8-c)"/>
  </g>
  <g id="shape-5bb60561-fce6-803d-8003-b05e8344d35b">
   <defs>
    <radialGradient id="rumext-id-9-d" cx="0" cy="0" r="1" gradientTransform="matrix(5.6132 -26.157 17.529 3.9086 25.504 36.17)" gradientUnits="userSpaceOnUse">
     <stop stop-color="#fff" stop-opacity=".8" offset="0"/>
     <stop stop-color="#fff" stop-opacity=".4" offset="1"/>
    </radialGradient>
   </defs>
   <g id="fills-5bb60561-fce6-803d-8003-b05e8344d35b" class="fills">
    <path rx="0" ry="0" d="m33.806 36.242c-1.585-4.059-2.068-7.096-1.969-9.522 0.098-2.405 0.787-4.209 1.555-5.813l0.591-1.172c0.572-1.133 1.113-2.205 1.418-3.388 0.363-1.462 0.305-3-0.167-4.43-1.02-1.14-2.752-1.229-3.88-0.2l-8.489 7.767c-0.476 0.434-0.789 1.022-0.886 1.664l-1.034 6.975c0 0.071-0.02 0.131-0.03 0.201 1.911 1.263 4.333 3.307 5.643 6.545 0.256 0.641 0.473 1.312 0.63 2.044 2.152-0.607 4.39-0.838 6.618-0.671z" fill="url(#rumext-id-9-d)"/>
   </g>
  </g>
  <defs>
   <radialGradient id="rumext-id-10-e" cx="0" cy="0" r="1" gradientTransform="matrix(-7.7798 -13.329 15.067 -9.0198 38.395 52.997)" gradientUnits="userSpaceOnUse">
    <stop stop-color="#fff" stop-opacity=".3" offset="0"/>
    <stop stop-opacity=".3" offset="1"/>
   </radialGradient>
  </defs>
  <g class="fills">
   <path rx="0" ry="0" d="m38.257 52.899c1.832 0.511 3.674-0.983 3.93-2.907 0.209-1.825 0.74-3.597 1.565-5.231-2.068-4.521-4.559-6.866-7.287-7.908-2.905-1.103-6.066-0.732-9.277 0.06 0.719 3.317 0.296 7.657-2.442 13.3 0.305 0.16 0.65 0.25 0.995 0.28l4.323 0.331c2.344 0.17 5.84 1.403 8.193 2.075z" fill="url(#rumext-id-10-e)"/>
  </g>
  <g id="shape-5bb60561-fce6-803d-8003-b05e83463a0d">
   <defs>
    <radialGradient id="rumext-id-11-f" cx="0" cy="0" r="1" gradientTransform="matrix(-2.8559 13.63 -9.06 -2.0044 36.357 21.498)" gradientUnits="userSpaceOnUse">
     <stop stop-color="#fff" stop-opacity="0" offset="0"/>
     <stop stop-color="#fff" stop-opacity=".2" offset="1"/>
    </radialGradient>
   </defs>
   <g id="fills-5bb60561-fce6-803d-8003-b05e83463a0d" class="fills">
    <path rx="0" ry="0" d="m31.856 26.57c-0.108 2.405 0.187 5.152 1.773 9.201l-0.493-0.051c-1.427-4.219-1.743-6.384-1.634-8.819 0.098-2.436 0.876-4.31 1.644-5.913 0.197-0.401 0.65-1.153 0.847-1.534 0.571-1.132 0.955-1.724 1.28-2.756 0.473-1.443 0.375-2.125 0.316-2.806 0.364 2.455-1.025 4.59-2.068 6.765-0.967 1.827-1.538 3.843-1.665 5.913z" clip-rule="evenodd" fill="url(#rumext-id-11-f)" fill-rule="evenodd"/>
   </g>
  </g>
  <g id="shape-5bb60561-fce6-803d-8003-b05e8346831e">
   <defs>
    <radialGradient id="rumext-id-12-g" cx="0" cy="0" r="1" gradientTransform="matrix(7.0904 7.3161 -15.264 15.334 20.314 29.045)" gradientUnits="userSpaceOnUse">
     <stop stop-color="#fff" stop-opacity=".2" offset="0"/>
     <stop stop-color="#fff" stop-opacity=".4" offset="1"/>
    </radialGradient>
   </defs>
   <g id="fills-5bb60561-fce6-803d-8003-b05e8346831e" class="fills">
    <path rx="0" ry="0" d="m27.031 35.049c0.197 0.441 0.364 0.802 0.482 1.353l-0.423 0.1c-0.168-0.641-0.296-1.102-0.542-1.654-1.438-3.437-3.742-5.211-5.613-6.514 2.265 1.243 4.599 3.197 6.096 6.715z" clip-rule="evenodd" fill="url(#rumext-id-12-g)" fill-rule="evenodd"/>
   </g>
  </g>
  <defs>
   <radialGradient id="rumext-id-13-h" cx="0" cy="0" r="1" gradientTransform="matrix(1.9696 11.826 -24.718 4.3095 27.927 33.906)" gradientUnits="userSpaceOnUse">
    <stop stop-color="#fff" stop-opacity=".1" offset="0"/>
    <stop stop-color="#fff" stop-opacity=".3" offset="1"/>
   </radialGradient>
  </defs>
  <g class="fills">
   <path rx="0" ry="0" d="m27.533 36.843c0.788 3.758-0.098 8.539-2.708 13.189 2.186-4.61 3.25-9.03 2.363-13.129z" clip-rule="evenodd" fill="url(#rumext-id-13-h)" fill-rule="evenodd"/>
  </g>
  <defs>
   <radialGradient id="rumext-id-14-i" cx="0" cy="0" r="1" gradientTransform="matrix(-15.953 -8.5187 26.392 -51.112 43.614 43.727)" gradientUnits="userSpaceOnUse">
    <stop stop-color="#fff" stop-opacity=".2" offset="0"/>
    <stop stop-color="#fff" stop-opacity=".2" offset=".5"/>
    <stop stop-color="#fff" stop-opacity=".3" offset="1"/>
   </radialGradient>
  </defs>
  <g class="fills">
   <path rx="0" ry="0" d="m36.554 36.492c4.283 1.634 5.938 5.212 7.169 8.208-1.527-3.127-3.644-6.584-7.327-7.867-2.797-0.982-5.16-0.862-9.208 0.07l-0.088-0.401c4.293-1.002 6.539-1.122 9.454-0.01z" clip-rule="evenodd" fill="url(#rumext-id-14-i)" fill-rule="evenodd"/>
  </g>
 </g>
</svg>
