<svg xmlns="http://www.w3.org/2000/svg" xmlns:xlink="http://www.w3.org/1999/xlink" width="64" height="64" fill="none" style="-webkit-print-color-adjust:exact"><defs><pattern xlink:href="#fill-0-rumext-id-3" id="a"/></defs><rect width="60.882" height="62.001" x="1.559" y="1.999" fill="url(#a)" rx="0" ry="0"/><rect width="56.002" height="56.002" x="4" y="3.969" fill="#262626" rx="13.002" ry="13.002"/><g fill="#000"><path fill="#6c31e3" d="M42.187 50.002c-.256 1.914-2.098 3.408-3.94 2.897-2.599-.732-5.613-1.874-8.341-2.085l-4.165-.321a2.72 2.72 0 0 1-1.773-.842l-7.189-7.516a2.83 2.83 0 0 1-.532-3.107s4.442-9.922 4.609-10.443c.168-.512.768-5.012 1.123-7.437.097-.642.41-1.23.886-1.664l8.489-7.767a2.73 2.73 0 0 1 2.073-.703 2.75 2.75 0 0 1 1.925 1.054l7.14 9.22c.399.525.614 1.171.61 1.834 0 1.744.148 5.332 1.094 7.647a30.5 30.5 0 0 0 3.505 5.863c.35.453.393 1.076.109 1.574a125 125 0 0 1-3.614 5.803 14.5 14.5 0 0 0-2.009 5.993" class="fills"/><defs><radialGradient id="b" cx="0" cy="0" r="1" gradientTransform="matrix(-4.7269 -18.541 12.113 -3.207 24.372 49.54)" gradientUnits="userSpaceOnUse"><stop offset="0" stop-color="#fff" stop-opacity=".4"/><stop offset="1" stop-opacity=".1"/></radialGradient></defs><path fill="url(#b)" d="M24.736 50.213c3.339-6.886 3.25-11.827 1.822-15.334-1.3-3.248-3.732-5.292-5.643-6.565a2.5 2.5 0 0 1-.177.541l-4.491 10.173a2.835 2.835 0 0 0 .542 3.107l7.179 7.516c.227.231.492.421.768.562" class="fills"/><defs><radialGradient id="c" cx="0" cy="0" r="1" gradientTransform="matrix(4.0376 -31.068 22.551 3.0066 40.384 41.683)" gradientUnits="userSpaceOnUse"><stop offset="0" stop-color="#fff" stop-opacity=".6"/><stop offset="1" stop-color="#fff" stop-opacity=".1"/></radialGradient></defs><path fill="url(#c)" d="M33.816 36.242c.896.09 1.773.29 2.639.611 2.738 1.042 5.229 3.387 7.288 7.908.147-.261.295-.512.453-.752q1.886-2.85 3.614-5.803a1.42 1.42 0 0 0-.099-1.574 30.4 30.4 0 0 1-3.515-5.863c-.946-2.305-1.084-5.903-1.094-7.647 0-.661-.206-1.313-.61-1.834l-7.14-9.22-.118-.151c.522 1.754.492 3.157.167 4.43-.295 1.183-.846 2.255-1.427 3.388a35 35 0 0 0-.582 1.172 14.2 14.2 0 0 0-1.555 5.813c-.099 2.426.384 5.463 1.979 9.522" class="fills"/><defs><radialGradient id="d" cx="0" cy="0" r="1" gradientTransform="matrix(5.6132 -26.157 17.529 3.9086 25.504 36.17)" gradientUnits="userSpaceOnUse"><stop offset="0" stop-color="#fff" stop-opacity=".8"/><stop offset="1" stop-color="#fff" stop-opacity=".4"/></radialGradient></defs><path fill="url(#d)" d="M33.806 36.242c-1.585-4.059-2.068-7.096-1.969-9.522.098-2.405.787-4.209 1.555-5.813l.591-1.172c.572-1.133 1.113-2.205 1.418-3.388.363-1.462.305-3-.167-4.43a2.724 2.724 0 0 0-3.88-.2l-8.489 7.767a2.82 2.82 0 0 0-.886 1.664l-1.034 6.975c0 .071-.02.131-.03.201 1.911 1.263 4.333 3.307 5.643 6.545.256.641.473 1.312.63 2.044a19.1 19.1 0 0 1 6.618-.671" class="fills"/><defs><radialGradient id="e" cx="0" cy="0" r="1" gradientTransform="matrix(-7.7798 -13.329 15.067 -9.0198 38.395 52.997)" gradientUnits="userSpaceOnUse"><stop offset="0" stop-color="#fff" stop-opacity=".3"/><stop offset="1" stop-opacity=".3"/></radialGradient></defs><path fill="url(#e)" d="M38.257 52.899c1.832.511 3.674-.983 3.93-2.907a15.5 15.5 0 0 1 1.565-5.231c-2.068-4.521-4.559-6.866-7.287-7.908-2.905-1.103-6.066-.732-9.277.06.719 3.317.296 7.657-2.442 13.3.305.16.65.25.995.28l4.323.331c2.344.17 5.84 1.403 8.193 2.075" class="fills"/><defs><radialGradient id="f" cx="0" cy="0" r="1" gradientTransform="matrix(-2.8559 13.63 -9.06 -2.0044 36.357 21.498)" gradientUnits="userSpaceOnUse"><stop offset="0" stop-color="#fff" stop-opacity="0"/><stop offset="1" stop-color="#fff" stop-opacity=".2"/></radialGradient></defs><path fill="url(#f)" fill-rule="evenodd" d="M31.856 26.57c-.108 2.405.187 5.152 1.773 9.201l-.493-.051c-1.427-4.219-1.743-6.384-1.634-8.819.098-2.436.876-4.31 1.644-5.913.197-.401.65-1.153.847-1.534.571-1.132.955-1.724 1.28-2.756.473-1.443.375-2.125.316-2.806.364 2.455-1.025 4.59-2.068 6.765a14.55 14.55 0 0 0-1.665 5.913" class="fills" clip-rule="evenodd"/><defs><radialGradient id="g" cx="0" cy="0" r="1" gradientTransform="matrix(7.0904 7.3161 -15.264 15.334 20.314 29.045)" gradientUnits="userSpaceOnUse"><stop offset="0" stop-color="#fff" stop-opacity=".2"/><stop offset="1" stop-color="#fff" stop-opacity=".4"/></radialGradient></defs><path fill="url(#g)" fill-rule="evenodd" d="M27.031 35.049c.197.441.364.802.482 1.353l-.423.1c-.168-.641-.296-1.102-.542-1.654-1.438-3.437-3.742-5.211-5.613-6.514 2.265 1.243 4.599 3.197 6.096 6.715" class="fills" clip-rule="evenodd"/><defs><radialGradient id="h" cx="0" cy="0" r="1" gradientTransform="matrix(1.9696 11.826 -24.718 4.3095 27.927 33.906)" gradientUnits="userSpaceOnUse"><stop offset="0" stop-color="#fff" stop-opacity=".1"/><stop offset="1" stop-color="#fff" stop-opacity=".3"/></radialGradient></defs><path fill="url(#h)" fill-rule="evenodd" d="M27.533 36.843c.788 3.758-.098 8.539-2.708 13.189 2.186-4.61 3.25-9.03 2.363-13.129z" class="fills" clip-rule="evenodd"/><defs><radialGradient id="i" cx="0" cy="0" r="1" gradientTransform="matrix(-15.953 -8.5187 26.392 -51.112 43.614 43.727)" gradientUnits="userSpaceOnUse"><stop offset="0" stop-color="#fff" stop-opacity=".2"/><stop offset=".5" stop-color="#fff" stop-opacity=".2"/><stop offset="1" stop-color="#fff" stop-opacity=".3"/></radialGradient></defs><path fill="url(#i)" fill-rule="evenodd" d="M36.554 36.492c4.283 1.634 5.938 5.212 7.169 8.208-1.527-3.127-3.644-6.584-7.327-7.867-2.797-.982-5.16-.862-9.208.07l-.088-.401c4.293-1.002 6.539-1.122 9.454-.01" class="fills" clip-rule="evenodd"/></g></svg>