<svg xmlns="http://www.w3.org/2000/svg" xmlns:xlink="http://www.w3.org/1999/xlink" width="64" height="64"><defs><linearGradient id="e" x1="30.142" x2="30.142" y1="55.242" y2="8.815" gradientUnits="userSpaceOnUse" spreadMethod="pad"><stop offset="-99" stop-color="#FDFCFC"/><stop offset="1" stop-color="#EEE" style="stop-color:#e1e1e1;stop-opacity:1"/></linearGradient><linearGradient id="d"><stop offset="0" style="stop-color:#ed333b;stop-opacity:1"/><stop offset="1" style="stop-color:#ca121b;stop-opacity:1"/></linearGradient><linearGradient id="a" x1="30.142" x2="30.142" y1="55.242" y2="8.815" gradientUnits="userSpaceOnUse" spreadMethod="pad"><stop offset="0" stop-color="#EEE" style="stop-color:#ed333b;stop-opacity:1"/><stop offset="100%" stop-color="#FDFCFC"/></linearGradient><linearGradient xlink:href="#a" id="c" x1="30.142" x2="30.142" y1="55.242" y2="8.815" gradientUnits="userSpaceOnUse"><stop offset="0%" stop-color="#EEE"/><stop offset="100%" stop-color="#FDFCFC"/></linearGradient><linearGradient xlink:href="#c" id="i" x1="8.95" x2="55.05" y1="33" y2="33" gradientUnits="userSpaceOnUse"/><linearGradient xlink:href="#d" id="h" x1="31.998" x2="32.57" y1="9" y2="53.697" gradientUnits="userSpaceOnUse"/><linearGradient xlink:href="#e" id="k" x1="32" x2="32" y1="10" y2="56" gradientTransform="translate(.002)" gradientUnits="userSpaceOnUse"/><filter id="g" width="1.092" height="1.112" x="-.046" y="-.046" filterUnits="objectBoundingBox"><feOffset dy="1" in="SourceAlpha" result="shadowOffsetOuter1"/><feGaussianBlur in="shadowOffsetOuter1" result="shadowBlurOuter1" stdDeviation="1"/><feColorMatrix in="shadowBlurOuter1" values="0 0 0 0 0 0 0 0 0 0 0 0 0 0 0 0 0 0 0.24 0"/></filter><filter id="j" width="1.294" height="1.294" x="-.147" y="-.147" style="color-interpolation-filters:sRGB"><feGaussianBlur stdDeviation="2.817"/></filter><rect id="f" width="52" height="52" x="6" y="6" rx="11"/></defs><use xlink:href="#f" filter="url(#g)" style="fill-rule:nonzero;stroke:none;stroke-opacity:1"/><use xlink:href="#f" fill="url(#c)" style="display:inline;fill:url(#h);fill-rule:nonzero;stroke:none;stroke-opacity:1;fill-opacity:1"/><g style="display:inline;fill:url(#i);fill-rule:evenodd;fill-opacity:1" transform="translate(-.002 -1)"><rect width="46" height="46" x="9" y="10" rx="8" style="display:inline;fill:#000;fill-opacity:1;stroke:none;filter:url(#j);opacity:.25"/><rect width="46" height="46" x="9.002" y="10" rx="8" style="display:inline;fill:url(#k);fill-opacity:1;fill-rule:evenodd;stroke:none"/></g><g style="display:inline;fill:none;fill-rule:evenodd"><g fill="#3584e4"><path d="M15.488 19.469h10.32v2.064h-10.32Zm0 0"/><path d="M21.68 20.501v12.384h-2.064V20.5Zm0 0"/><path d="M15.488 31.853h14.448v2.064H15.488Zm0 0"/><path d="M29.936 25.66v8.257h-2.064V25.66Zm0 0"/></g><path fill="#3584e4" d="M39.503 25.98h1.504v1.504h-1.504zM42.51 25.98h1.503v1.504H42.51zM45.516 25.98h1.504v1.504h-1.504zM48.523 25.98h1.503v1.504h-1.503zm0 0" style="stroke-width:.375823" transform="matrix(1.37295 0 0 1.37295 -20.172 -16.2)"/><path fill="#c0bfbc" d="M39.503 30.49h10.523v1.503H39.503ZM39.503 35h10.523v1.503H39.503ZM25.974 39.51h24.052v1.503H25.974ZM25.974 44.02h13.53v1.503h-13.53Zm0 0" style="stroke-width:.375823" transform="matrix(1.37295 0 0 1.37295 -20.172 -16.2)"/><path fill="#ed333b" d="M42.51 44.02h1.503v1.503H42.51zM45.516 44.02h1.504v1.503h-1.504zM48.523 44.02h1.503v1.503h-1.503zm0 0" style="stroke-width:.375823" transform="matrix(1.37295 0 0 1.37295 -20.172 -16.2)"/></g></svg>