<svg width="64" height="64" viewBox="0 0 16.933 16.933" xmlns="http://www.w3.org/2000/svg"><defs><linearGradient id="f" x1="1.058" x2="15.875" y1="289.59" y2="289.59" gradientTransform="translate(0 -280.07)" gradientUnits="userSpaceOnUse"><stop stop-color="#46a2d7" stop-opacity=".5" offset="0"/><stop stop-color="#46a2d7" stop-opacity="0" offset=".108"/><stop stop-color="#46a2d7" stop-opacity=".096" offset=".894"/><stop stop-color="#46a2d7" stop-opacity=".5" offset="1"/></linearGradient><linearGradient id="e" x1="8.467" x2="8.467" y1="294.62" y2="293.56" gradientTransform="translate(0 -280.06) scale(.99998)" gradientUnits="userSpaceOnUse"><stop stop-color="#008ea2" stop-opacity=".251" offset="0"/><stop stop-color="#008ea2" stop-opacity=".15" offset=".757"/><stop stop-color="#fff" stop-opacity=".15" offset="1"/></linearGradient><linearGradient id="d" x1="8.467" x2="8.467" y1="293.3" y2="292.77" gradientTransform="translate(0 -280.07)" gradientUnits="userSpaceOnUse"><stop stop-color="#008ea2" stop-opacity=".25" offset="0"/><stop stop-color="#fff" stop-opacity=".15" offset="1"/></linearGradient><linearGradient id="c" x1="445.28" x2="445.28" y1="179.28" y2="200.07" gradientTransform="matrix(.38956 0 0 .38184 -165.52 -63.44)" gradientUnits="userSpaceOnUse"><stop stop-color="#60c0f0" offset="0"/><stop stop-color="#83d4fb" offset="1"/></linearGradient><linearGradient id="b" x1="6.879" x2="6.879" y1="285.36" y2="283.77" gradientTransform="translate(0 -280.06) scale(.99998)" gradientUnits="userSpaceOnUse"><stop offset="0"/><stop stop-opacity="0" offset="1"/></linearGradient><filter id="a" x="-.033" y="-.04" width="1.066" height="1.08" color-interpolation-filters="sRGB"><feGaussianBlur stdDeviation=".202"/></filter></defs><path d="M2.21 2.52c-.638 0-1.151.513-1.151 1.151v9.884c0 .625.513 1.128 1.15 1.128h12.514c.638 0 1.152-.503 1.152-1.128v-8.7c0-.638-.514-1.157-1.152-1.152l-6.413.053c-.915 0-1.082-.017-1.863-.607-.76-.601-.792-.63-1.542-.63z" filter="url(#a)" opacity=".25"/><path d="M2.21 2.38h2.695c.75 0 .783.029 1.542.63.782.59.948.607 1.864.607l6.412-.053a1.146 1.146 0 0 1 1.152 1.152v6.77a1.15 1.15 0 0 1-1.152 1.152H2.21a1.15 1.15 0 0 1-1.151-1.152V3.532A1.15 1.15 0 0 1 2.21 2.38z" fill="#46a2d7"/><path d="M2.21 2.381a1.15 1.15 0 0 0-1.152 1.152V6.35h14.816V4.717c0-.638-.513-1.157-1.151-1.152l-6.413.053c-.916 0-1.082-.017-1.863-.608-.76-.6-.791-.629-1.542-.629H2.21z" fill="url(#b)" opacity=".25"/><rect x="1.058" y="4.49" width="14.817" height="10.054" rx="1.152" ry="1.129" fill="url(#c)"/><path fill="url(#d)" d="M1.058 12.7h14.817v.529H1.058z"/><path d="M1.065 13.494a1.136 1.136 0 0 0 1.145 1.058h12.513c.613 0 1.107-.466 1.145-1.058H1.066z" fill="url(#e)"/><rect x="1.058" y="4.49" width="14.817" height="10.054" rx="1.152" ry="1.129" fill="url(#f)"/><path d="M2.21 4.498c-.638 0-1.152.503-1.152 1.128v.236c0-.61.514-1.1 1.152-1.1h12.513c.638 0 1.152.49 1.152 1.1v-.235c0-.626-.514-1.13-1.152-1.13z" fill="#fff" opacity=".1"/><path d="M5.556 5.027a.528.528 0 0 0-.529.53v.793h6.88v-.794a.528.528 0 0 0-.53-.529zm.265.528a.265.265 0 0 1 .265.265.265.265 0 0 1-.265.265.265.265 0 0 1-.265-.265.265.265 0 0 1 .265-.265zm-.794 1.059v1.323h6.88V6.614zm.794.53a.265.265 0 0 1 .265.264.265.265 0 0 1-.265.265.265.265 0 0 1-.265-.265.265.265 0 0 1 .265-.265zm-.794 1.058v1.323h6.88V8.202zm.794.528a.265.265 0 0 1 .265.265.265.265 0 0 1-.265.265.265.265 0 0 1-.265-.265.265.265 0 0 1 .265-.265zm-.794 1.059v1.323h6.88V9.79zm.794.529a.265.265 0 0 1 .265.265.265.265 0 0 1-.265.265.265.265 0 0 1-.265-.265.265.265 0 0 1 .265-.265zm-.794 1.06v1.058c0 .293.236.53.53.53h5.82a.53.53 0 0 0 .53-.53v-1.059zm.794.527a.265.265 0 0 1 .265.265.265.265 0 0 1-.265.265.265.265 0 0 1-.265-.265.265.265 0 0 1 .265-.265z" opacity=".1" style="paint-order:markers stroke fill"/></svg>