<svg width="64" height="64" enable-background="new 0 0 1024 1024" image-rendering="optimizeSpeed" xmlns="http://www.w3.org/2000/svg"><defs><radialGradient id="c" cx="51.067" cy="38.101" r="5.57" gradientTransform="translate(-39.028 -27.91) scale(1.7319)" gradientUnits="userSpaceOnUse"><stop stop-color="#fff" offset="0"/><stop stop-color="#fff" stop-opacity="0" offset="1"/></radialGradient><linearGradient id="a" x1="7.937" x2="7.937" y1="15.081" y2="1.852" gradientTransform="scale(3.7796)" gradientUnits="userSpaceOnUse"><stop stop-color="#767574" offset="0"/><stop stop-color="#d1e7ee" offset="1"/></linearGradient><filter id="b" x="-.087" y="-.142" width="1.174" height="1.284" color-interpolation-filters="sRGB"><feGaussianBlur stdDeviation="1.516"/></filter></defs><g color="#000" image-rendering="auto"><path d="M4.37.53C2.254.53.53 2.312.53 4.496v8.468c0 2.184 1.725 3.968 3.84 3.968h8.194c2.114 0 3.84-1.783 3.84-3.968V4.497c0-2.184-1.726-3.968-3.84-3.968zm.256.52h7.681c1.844 0 3.33 1.534 3.33 3.44v7.937c0 1.906-1.485 3.44-3.33 3.44h-7.68c-1.845 0-3.33-1.534-3.33-3.44V4.49c0-1.906 1.485-3.44 3.33-3.44z" enable-background="accumulate" opacity=".01" style="font-feature-settings:normal;font-variant-alternates:normal;font-variant-caps:normal;font-variant-east-asian:normal;font-variant-ligatures:normal;font-variant-numeric:normal;font-variant-position:normal;font-variation-settings:normal;inline-size:0;isolation:auto;mix-blend-mode:normal;shape-margin:0;shape-padding:0;text-decoration-color:#000;text-decoration-line:none;text-decoration-style:solid;text-indent:0;text-orientation:mixed;text-transform:none;white-space:normal" transform="scale(3.7796)"/><path d="M4.359.794C2.392.794.795 2.447.795 4.48v8.5c0 2.035 1.597 3.688 3.564 3.688h8.216c1.967 0 3.564-1.653 3.564-3.688v-8.5c0-2.034-1.597-3.687-3.564-3.687zm.272.256h7.672c1.842 0 3.325 1.534 3.325 3.44v7.937c0 1.906-1.483 3.44-3.325 3.44H4.63c-1.842 0-3.325-1.534-3.325-3.44V4.49c0-1.906 1.483-3.44 3.325-3.44z" enable-background="accumulate" opacity=".01" style="font-feature-settings:normal;font-variant-alternates:normal;font-variant-caps:normal;font-variant-east-asian:normal;font-variant-ligatures:normal;font-variant-numeric:normal;font-variant-position:normal;font-variation-settings:normal;inline-size:0;isolation:auto;mix-blend-mode:normal;shape-margin:0;shape-padding:0;text-decoration-color:#000;text-decoration-line:none;text-decoration-style:solid;text-indent:0;text-orientation:mixed;text-transform:none;white-space:normal" transform="scale(3.7796)"/><path d="M4.31 1.058c-1.866 0-3.375 1.539-3.375 3.44v8.467c0 1.9 1.57 3.439 3.435 3.439h8.2c1.866 0 3.427-1.538 3.427-3.44V4.498c0-1.9-1.51-3.439-3.375-3.439h-.097c1.794.087 3.214 1.582 3.214 3.432v7.937c0 1.906-1.506 3.44-3.377 3.44h-7.79c-1.871 0-3.377-1.534-3.377-3.44V4.49c0-1.85 1.42-3.345 3.214-3.432z" enable-background="accumulate" opacity=".03" style="font-feature-settings:normal;font-variant-alternates:normal;font-variant-caps:normal;font-variant-east-asian:normal;font-variant-ligatures:normal;font-variant-numeric:normal;font-variant-position:normal;font-variation-settings:normal;inline-size:0;isolation:auto;mix-blend-mode:normal;shape-margin:0;shape-padding:0;text-decoration-color:#000;text-decoration-line:none;text-decoration-style:solid;text-indent:0;text-orientation:mixed;text-transform:none;white-space:normal" transform="scale(3.7796)"/><path d="M4 46.969V49c0 6.648 5.896 12 12.544 12h30.961C54.153 61 60 55.648 60 49v-1.992a12.972 12.972 0 0 1-13 12.963H17.002A12.973 12.973 0 0 1 4 46.969z" enable-background="accumulate" opacity=".03" style="font-feature-settings:normal;font-variant-alternates:normal;font-variant-caps:normal;font-variant-east-asian:normal;font-variant-ligatures:normal;font-variant-numeric:normal;font-variant-position:normal;font-variation-settings:normal;inline-size:0;isolation:auto;mix-blend-mode:normal;shape-margin:0;shape-padding:0;text-decoration-color:#000;text-decoration-line:none;text-decoration-style:solid;text-indent:0;text-orientation:mixed;text-transform:none;white-space:normal"/><path d="M1.058 11.906v.592c0 1.939 1.573 3.5 3.332 3.5h8.16c1.76 0 3.325-1.561 3.325-3.5v-.58c-.006 2.095-1.537 3.78-3.44 3.78H4.498c-1.905 0-3.44-1.692-3.44-3.792z" enable-background="accumulate" opacity=".05" style="font-feature-settings:normal;font-variant-alternates:normal;font-variant-caps:normal;font-variant-east-asian:normal;font-variant-ligatures:normal;font-variant-numeric:normal;font-variant-position:normal;font-variation-settings:normal;inline-size:0;isolation:auto;mix-blend-mode:normal;shape-margin:0;shape-padding:0;text-decoration-color:#000;text-decoration-line:none;text-decoration-style:solid;text-indent:0;text-orientation:mixed;text-transform:none;white-space:normal" transform="scale(3.7796)"/></g><rect x="4" y="3.969" width="56.002" height="56.002" rx="13.002" ry="13.002" fill="url(#a)"/><rect x="6.002" y="6" width="51.996" height="51.939" rx="11" ry="11" fill="#030000"/><rect x="9" y="9" width="46.002" height="46.002" rx="8" ry="8" fill="#1e1e1e"/><g fill="#fff"><path d="M18.203 9v3.063h-6.521v-1.038c-.102.09-.205.179-.301.274v.764h-.676c-.077.097-.15.197-.223.298h.899v6.524H9v.3h2.38v6.522H9v.3h2.38v6.524H9v.3h2.38v6.523H9v.3h2.38v6.524H9v.299h2.38V52.7c.097.095.2.184.301.274v-6.498h6.522V53h-6.492c.117.103.236.204.36.3h6.132V55h.3v-1.7h6.524V55h.299v-1.7h6.523V55h.301v-1.7h6.524V55h.298v-1.7h6.524V55h.3v-1.7h6.133a7.97 7.97 0 0 0 .36-.3h-6.492v-6.523h6.521v6.498c.101-.09.204-.179.3-.274v-6.224H55v-.3h-2.381v-6.523h2.38v-.3h-2.38V32.83h2.38v-.299h-2.38v-6.523h2.38v-.301h-2.38v-6.521h2.38v-.301h-2.38V12.36h.898a7.978 7.978 0 0 0-.222-.298h-.676v-.764c-.097-.095-.2-.184-.301-.274v1.038h-6.522V9h-.3v3.063h-6.524V9h-.299v3.063H32.15V9h-.3v3.063h-6.524V9h-.3v3.063h-6.522V9h-.301zm-6.521 3.361h6.521v6.524h-6.521zm6.822 0h6.523v6.524h-6.523zm6.822 0h6.523v6.524h-6.523zm6.824 0h6.524v6.524H32.15zm6.823 0h6.523v6.524h-6.523zm6.824 0h6.521v6.524h-6.521zm-34.115 6.825h6.521v6.521h-6.521zm6.822 0h6.523v6.521h-6.523zm6.822 0h6.524v6.521h-6.524zm6.825 0h6.523v6.521h-6.523zm6.822 0h6.523v6.521h-6.523zm6.824 0h6.522v6.521h-6.522zm-34.115 6.822h6.522v6.523h-6.522zm6.822 0h6.524v6.523h-6.524zm6.823 0h6.523v6.523h-6.523zm6.824 0h6.523v6.523h-6.523zm6.822 0h6.524v6.523h-6.524zm6.824 0h6.522v6.523h-6.522zM11.682 32.83h6.522v6.524h-6.522zm6.823 0h6.523v6.524h-6.523zm6.822 0h6.524v6.524h-6.524zm6.824 0h6.524v6.524H32.15zm6.823 0h6.523v6.524h-6.523zm6.824 0h6.521v6.524h-6.521zm-34.115 6.824h6.521v6.524h-6.521zm6.822 0h6.524v6.524h-6.524zm6.823 0h6.523v6.524h-6.523zm6.824 0h6.523v6.524h-6.523zm6.822 0h6.523v6.524h-6.523zm6.824 0h6.522v6.524h-6.522zm-27.293 6.823h6.524V53h-6.524zm6.823 0h6.523V53h-6.523zm6.824 0h6.523V53h-6.523zm6.822 0h6.523V53h-6.523z" opacity=".35"/><path d="M27.086 19.205c-.101.016-.182.164-.29.48-.207.612-.256 1.493-.528 9.71-.144 4.336-.457 8.222-.727 9.017-.35 1.03-.933.708-2.396-1.322-.754-1.045-1.606-2.109-1.895-2.363-.498-.439-.553-.441-1.059-.07-.293.215-.675.777-.85 1.25-.448 1.22-1.064 1.88-1.919 2.06-.408.086-2.51.02-4.672-.147L9 37.533l.002.705 1.965.19c1.178.115 3.275.21 4.66.21 2.936 0 3.438-.231 4.09-1.882.222-.563.496-1.088.61-1.166.432-.3 1.032.198 2.263 1.877.702.957 1.508 1.911 1.79 2.119.69.506 1.341.244 1.684-.678.35-.938.697-4.858.842-9.514.126-4.022.233-4.961.516-4.449.163.296.325 1.955.523 5.385.041.708.226 3.183.41 5.5.62 7.777.842 9.165 1.434 8.945.312-.115.724-2.042.75-3.511.011-.616.156-1.486.322-1.932.344-.922.512-.956 2.543-.537 1.845.38 2.236.141 3.028-1.853 1.063-2.68 1.104-2.745 1.718-2.825.48-.062.765.159 1.663 1.287 3.296 4.144 3.67 4.309 5.459 2.415.607-.644 1.195-1.17 1.306-1.17.11 0 .697.473 1.303 1.052.823.75 1.488 1.057 2.406 1.164a.483.483 0 0 0 0-.966c-.876.341-1.703-.473-2.152-.899-1.483-1.417-1.974-1.4-3.22.115-1.41 1.714-1.478 1.69-4.11-1.6-2.705-3.377-3.33-3.334-4.596.315-.268.773-.707 1.66-.975 1.977-.47.555-.526.565-1.705.293-1.783-.413-2.472-.359-2.96.228-.234.28-.479.701-.546.936-.153.54-.447.55-.591.018-.167-.617-.521-4.13-.641-6.377-.152-2.852-.92-11.934-1.074-12.688-.071-.35-.258-.758-.416-.905-.085-.079-.154-.116-.215-.107z"/><path d="M27.086 19.205c-.101.016-.182.164-.29.48-.207.612-.256 1.493-.528 9.71-.144 4.336-.457 8.222-.727 9.017-.35 1.03-.933.708-2.396-1.322-.754-1.045-1.606-2.109-1.895-2.363-.498-.439-.553-.441-1.059-.07-.293.215-.675.777-.85 1.25-.448 1.22-1.064 1.88-1.919 2.06-.408.086-2.51.02-4.672-.147L9 37.533l.002.705 1.965.19c1.178.115 3.275.21 4.66.21 2.936 0 3.438-.231 4.09-1.882.222-.563.496-1.088.61-1.166.432-.3 1.032.198 2.263 1.877.702.957 1.508 1.911 1.79 2.119.69.506 1.341.244 1.684-.678.35-.938.697-4.858.842-9.514.126-4.022.233-4.961.516-4.449.163.296.325 1.955.523 5.385.041.708.226 3.183.41 5.5.62 7.777.842 9.165 1.434 8.945.312-.115.724-2.042.75-3.511.011-.616.156-1.486.322-1.932.344-.922.512-.956 2.543-.537 1.845.38 2.236.141 3.028-1.853 1.063-2.68 1.104-2.745 1.718-2.825.48-.062.765.159 1.663 1.287 3.296 4.144 3.67 4.309 5.459 2.415.607-.644 1.195-1.17 1.306-1.17.11 0 .697.473 1.303 1.052.823.75 1.488 1.057 2.406 1.164a.483.483 0 0 0 0-.966c-.876.341-1.703-.473-2.152-.899-1.483-1.417-1.974-1.4-3.22.115-1.41 1.714-1.478 1.69-4.11-1.6-2.705-3.377-3.33-3.334-4.596.315-.268.773-.707 1.66-.975 1.977-.47.555-.526.565-1.705.293-1.783-.413-2.472-.359-2.96.228-.234.28-.479.701-.546.936-.153.54-.447.55-.591.018-.167-.617-.521-4.13-.641-6.377-.152-2.852-.92-11.934-1.074-12.688-.071-.35-.258-.758-.416-.905-.085-.079-.154-.116-.215-.107z" filter="url(#b)" opacity=".35"/></g><circle cx="49.413" cy="38.076" r="9.646" fill="url(#c)" opacity=".15"/></svg>