<svg width="64" xmlns="http://www.w3.org/2000/svg" height="64" id="screenshot-e9eb54b8-f0dd-80fb-8006-75a6a56a9716" viewBox="0 0 64 64" xmlns:xlink="http://www.w3.org/1999/xlink" fill="none" version="1.1"><g id="shape-e9eb54b8-f0dd-80fb-8006-75a6a56a9716" width="64" height="64" version="1.1" xmlns:xlink="http://www.w3.org/1999/xlink" rx="0" ry="0" style="fill: rgb(0, 0, 0);"><g id="shape-e9eb54b8-f0dd-80fb-8006-75a6a56a9717" style="display: none;"><g class="fills" id="fills-e9eb54b8-f0dd-80fb-8006-75a6a56a9717"><rect width="64" height="64" x="0" transform="matrix(1.000000, 0.000000, 0.000000, 1.000000, 0.000000, 0.000000)" style="fill: none;" ry="0" fill="none" rx="0" y="0"/></g></g><g id="shape-e9eb54b8-f0dd-80fb-8006-75a6a56a9718"><defs style="fill: rgb(0, 0, 0);"/></g><g id="shape-e9eb54b8-f0dd-80fb-8006-75a6a56a9719"><defs><pattern patternUnits="userSpaceOnUse" x="1.5592999999998938" y="1.9990000000000236" width="60.88200000000006" height="62.001000000000005" id="fill-0-render-4"><g><image id="fill-image-render-4-0" href="http://localhost:6080/assets/by-file-media-id/1c096c09-a10e-80c0-8003-2a94e3380417" preserveAspectRatio="none" width="60.88200000000006" height="62.001000000000005"/></g></pattern></defs><g class="fills" id="fills-e9eb54b8-f0dd-80fb-8006-75a6a56a9719"><rect width="60.88200000000006" height="62.001000000000005" x="1.5592999999998938" transform="matrix(1.000000, 0.000000, 0.000000, 1.000000, 0.000000, 0.000000)" preserveAspectRatio="none" ry="0" fill="url(#fill-0-render-4)" rx="0" y="1.9990000000000236"/></g></g><g id="shape-e9eb54b8-f0dd-80fb-8006-75a6a56a971a"><defs><linearGradient x1="7.9373" y1="15.081" x2="7.9373" y2="1.852" id="render-5-linearGradient1040" gradientTransform="matrix(1.000000, 0.000000, 0.000000, 1.000000, 0.000000, 0.000000) scale(3.7796)" gradientUnits="userSpaceOnUse"><stop stop-color="#363636" offset="0"/><stop stop-color="#6c6c6c" offset="1"/></linearGradient></defs><g class="fills" id="fills-e9eb54b8-f0dd-80fb-8006-75a6a56a971a"><rect width="56.00199999999995" height="56.00200000000001" x="4" transform="matrix(1.000000, 0.000000, 0.000000, 1.000000, 0.000000, 0.000000)" style="fill: rgb(255, 255, 255); fill-opacity: 1;" ry="13.002" fill="url(#render-5-linearGradient1040)" rx="13.002" y="3.9686000000000092"/></g></g><g id="shape-e9eb54b8-f0dd-80fb-8006-75a50af1f326" height="128" width="128" xmlns:xlink="http://www.w3.org/1999/xlink" rx="0" ry="0" style="fill: rgb(0, 0, 0);"><g id="shape-e9eb54b8-f0dd-80fb-8006-75a50af2d1f4" rx="0" ry="0" style="fill: rgb(0, 0, 0);"><g id="shape-e9eb54b8-f0dd-80fb-8006-75a50af3459e"><defs><linearGradient id="render-8-f" x1="28" x2="28" xlink:href="#render-8-a" y1="36" y2="108"/><linearGradient x1="0" y1="0" x2="128" y2="0" id="render-8-a" gradientUnits="userSpaceOnUse" gradientTransform="matrix(0.370536, 0.000000, 0.000000, 0.369565, 8.407771, 5.952286)"><stop offset="0" stop-color="#5e5c64"/><stop offset=".5" stop-color="#9a9996"/><stop offset="1" stop-color="#5e5c64"/></linearGradient></defs><g class="fills" id="fills-e9eb54b8-f0dd-80fb-8006-75a50af3459e"><path d="M17.3006591796875,19.256622314453125L18.041748046875,19.256622314453125L19.5238037109375,20.734878540039062L19.5238037109375,44.38706970214844L18.041748046875,45.865325927734375L17.3006591796875,45.865325927734375ZM17.3006591796875,19.256622314453125" fill-rule="evenodd" fill="url(#render-8-f)" style="fill: url(&quot;#render-8-f&quot;);"/></g></g><g id="shape-e9eb54b8-f0dd-80fb-8006-75a50af3a1d5"><defs><linearGradient id="render-9-g" gradientTransform="matrix(-0.529412 0 0 1.5 93.647072 -23.000311)" x1="56" x2="90" xlink:href="#render-9-b" y1="40" y2="40"/><linearGradient x1="0" y1="0" x2="128" y2="0" id="render-9-b" gradientUnits="userSpaceOnUse" gradientTransform="matrix(0.370536, 0.000000, 0.000000, 0.369565, 8.407771, 5.952286)"><stop offset="0" stop-color="#57e389"/><stop offset="1" stop-color="#33d17a"/></linearGradient></defs><g class="fills" id="fills-e9eb54b8-f0dd-80fb-8006-75a50af3a1d5"><path d="M31.010498046875,18.517501831054688L26.56396484375,18.517501831054688C25.9503173828125,18.517501831054688,25.452392578125,19.014083862304688,25.452392578125,19.626190185546875C25.452392578125,20.23828125,25.9503173828125,20.734878540039062,26.56396484375,20.734878540039062L31.010498046875,20.734878540039062C31.6241455078125,20.734878540039062,32.1220703125,20.23828125,32.1220703125,19.626190185546875C32.1220703125,19.014083862304688,31.6241455078125,18.517501831054688,31.010498046875,18.517501831054688ZM31.010498046875,18.517501831054688" fill-rule="evenodd" fill="url(#render-9-g)" style="fill: url(&quot;#render-9-g&quot;);"/></g></g><g id="shape-e9eb54b8-f0dd-80fb-8006-75a50af3e7ff"><g class="fills" id="fills-e9eb54b8-f0dd-80fb-8006-75a50af3e7ff"><path d="M14.7069091796875,14.82183837890625C15.320556640625,14.82183837890625,15.8184814453125,15.318450927734375,15.8184814453125,15.9305419921875L15.8184814453125,16.669677734375C15.8184814453125,17.281753540039062,15.320556640625,17.778366088867188,14.7069091796875,17.778366088867188C14.0931396484375,17.778366088867188,13.59521484375,17.281753540039062,13.59521484375,16.669677734375L13.59521484375,15.9305419921875C13.59521484375,15.318450927734375,14.0931396484375,14.82183837890625,14.7069091796875,14.82183837890625ZM14.7069091796875,14.82183837890625" fill-rule="evenodd" style="fill: rgb(154, 153, 150);"/></g></g><g id="shape-e9eb54b8-f0dd-80fb-8006-75a50af3e800"><g class="fills" id="fills-e9eb54b8-f0dd-80fb-8006-75a50af3e800"><path d="M49.5372314453125,14.82183837890625C50.15087890625,14.82183837890625,50.6488037109375,15.318450927734375,50.6488037109375,15.9305419921875L50.6488037109375,16.669677734375C50.6488037109375,17.281753540039062,50.15087890625,17.778366088867188,49.5372314453125,17.778366088867188C48.923583984375,17.778366088867188,48.4256591796875,17.281753540039062,48.4256591796875,16.669677734375L48.4256591796875,15.9305419921875C48.4256591796875,15.318450927734375,48.923583984375,14.82183837890625,49.5372314453125,14.82183837890625ZM49.5372314453125,14.82183837890625" fill-rule="evenodd" style="fill: rgb(154, 153, 150);"/></g></g><g id="shape-e9eb54b8-f0dd-80fb-8006-75a50af46de6"><defs><linearGradient x1="88" y1="36" x2="88" y2="108" id="render-12-h" gradientUnits="userSpaceOnUse" gradientTransform="matrix(0.370536, 0.000000, 0.000000, 0.369565, 8.407771, 5.952286)"><stop offset=".265" stop-color="#57e389"/><stop offset=".472" stop-color="#8ff0a4"/><stop offset="1" stop-color="#57e389"/></linearGradient></defs><g class="fills" id="fills-e9eb54b8-f0dd-80fb-8006-75a50af46de6"><path d="M19.5238037109375,20.734878540039062L23.229248046875,20.734878540039062C23.7039794921875,20.734878540039062,24.158447265625,20.922576904296875,24.4942626953125,21.257476806640625L24.928466796875,21.690567016601562C25.2642822265625,22.025482177734375,25.71875,22.213150024414062,26.1934814453125,22.213150024414062L31.3809814453125,22.213150024414062C31.855712890625,22.213150024414062,32.3101806640625,22.025482177734375,32.64599609375,21.690567016601562L33.0802001953125,21.257476806640625C33.416015625,20.922576904296875,33.8704833984375,20.734878540039062,34.34521484375,20.734878540039062L36.5684814453125,20.734878540039062C37.0518798828125,20.734878540039062,37.5238037109375,20.591964721679688,37.9261474609375,20.324920654296875L38.9161376953125,19.6666259765625C39.318603515625,19.399551391601562,39.7904052734375,19.256622314453125,40.2738037109375,19.256622314453125L41.014892578125,19.256622314453125C41.498291015625,19.256622314453125,41.97021484375,19.399551391601562,42.37255859375,19.6666259765625L43.362548828125,20.324920654296875C43.7650146484375,20.591964721679688,44.23681640625,20.734878540039062,44.72021484375,20.734878540039062L44.72021484375,44.38706970214844L42.0628662109375,44.38706970214844C41.3912353515625,44.38706970214844,40.74853515625,44.12144470214844,40.2738037109375,43.64793395996094C39.799072265625,43.1744384765625,39.156494140625,42.9088134765625,38.48486328125,42.9088134765625L36.13427734375,42.9088134765625C35.462646484375,42.9088134765625,34.820068359375,43.1744384765625,34.34521484375,43.64793395996094C33.8704833984375,44.12144470214844,33.2279052734375,44.38706970214844,32.5562744140625,44.38706970214844L30.1854248046875,44.38706970214844C29.5152587890625,44.38706970214844,28.859619140625,44.5848388671875,28.3023681640625,44.955841064453125L27.5511474609375,45.45533752441406C27.1488037109375,45.722412109375,26.6768798828125,45.865325927734375,26.1934814453125,45.865325927734375L25.452392578125,45.865325927734375C24.968994140625,45.865325927734375,24.4970703125,45.722412109375,24.0947265625,45.45533752441406L23.343505859375,44.955841064453125C22.7862548828125,44.5848388671875,22.130615234375,44.38706970214844,21.46044921875,44.38706970214844L19.5238037109375,44.38706970214844ZM19.5238037109375,20.734878540039062" fill-rule="evenodd" fill="url(#render-12-h)" style="fill: url(&quot;#render-12-h&quot;);"/></g></g><g id="shape-e9eb54b8-f0dd-80fb-8006-75a50af485ca"><defs><linearGradient id="render-13-i" x1="18" x2="18" xlink:href="#render-13-c" y1="28" y2="116"/><linearGradient x1="0" y1="0" x2="128" y2="0" id="render-13-c" gradientUnits="userSpaceOnUse" gradientTransform="matrix(0.370536, 0.000000, 0.000000, 0.369565, 8.407771, 5.952286)"><stop offset="0" stop-color="#c0bfbc"/><stop offset=".35" stop-color="#deddda"/><stop offset=".6" stop-color="#deddda"/><stop offset="1" stop-color="#77767b"/></linearGradient></defs><g class="fills" id="fills-e9eb54b8-f0dd-80fb-8006-75a50af485ca"><path d="M14.7069091796875,16.30010986328125C16.5537109375,16.30010986328125,18.041748046875,17.784149169921875,18.041748046875,19.626190185546875L18.041748046875,45.495758056640625C18.041748046875,47.33781433105469,16.5537109375,48.82183837890625,14.7069091796875,48.82183837890625C12.8599853515625,48.82183837890625,11.3720703125,47.33781433105469,11.3720703125,45.495758056640625L11.3720703125,19.626190185546875C11.3720703125,17.784149169921875,12.8599853515625,16.30010986328125,14.7069091796875,16.30010986328125ZM14.7069091796875,16.30010986328125" fill-rule="evenodd" fill="url(#render-13-i)" style="fill: url(&quot;#render-13-i&quot;);"/></g></g><g id="shape-e9eb54b8-f0dd-80fb-8006-75a50af485cb"><defs><linearGradient id="render-14-j" gradientTransform="matrix(-1 0 0 1 0.000298 0)" x1="-50" x2="-26" xlink:href="#render-14-d" y1="51" y2="51"/><linearGradient x1="0" y1="0" x2="128" y2="0" id="render-14-d" gradientUnits="userSpaceOnUse" gradientTransform="matrix(0.370536, 0.000000, 0.000000, 0.369565, 8.407771, 5.952286)"><stop offset="0" stop-color="#33d17a"/><stop offset="1" stop-color="#2ec27e" stop-opacity="0"/></linearGradient></defs><g class="fills" id="fills-e9eb54b8-f0dd-80fb-8006-75a50af485cb"><path d="M25.822998046875,23.69140625L19.1533203125,23.69140625C18.53955078125,23.69140625,18.041748046875,24.188003540039062,18.041748046875,24.80010986328125C18.041748046875,25.412200927734375,18.53955078125,25.9088134765625,19.1533203125,25.9088134765625L25.822998046875,25.9088134765625C26.4366455078125,25.9088134765625,26.9345703125,25.412200927734375,26.9345703125,24.80010986328125C26.9345703125,24.188003540039062,26.4366455078125,23.69140625,25.822998046875,23.69140625ZM25.822998046875,23.69140625" fill-rule="evenodd" fill="url(#render-14-j)" style="fill: url(&quot;#render-14-j&quot;);"/></g></g><g id="shape-e9eb54b8-f0dd-80fb-8006-75a50af4eacb"><defs><linearGradient id="render-15-k" gradientTransform="matrix(-1.176471 0 0 1.5 131.882653 37)" x1="56" x2="90" xlink:href="#render-15-d" y1="40" y2="40"/><linearGradient x1="0" y1="0" x2="128" y2="0" id="render-15-d" gradientUnits="userSpaceOnUse" gradientTransform="matrix(0.370536, 0.000000, 0.000000, 0.369565, 8.407771, 5.952286)"><stop offset="0" stop-color="#33d17a"/><stop offset="1" stop-color="#2ec27e" stop-opacity="0"/></linearGradient></defs><g class="fills" id="fills-e9eb54b8-f0dd-80fb-8006-75a50af4eacb"><path d="M31.75146484375,40.69140625L19.1533203125,40.69140625C18.53955078125,40.69140625,18.041748046875,41.18800354003906,18.041748046875,41.80010986328125C18.041748046875,42.412200927734375,18.53955078125,42.9088134765625,19.1533203125,42.9088134765625L31.75146484375,42.9088134765625C32.365234375,42.9088134765625,32.8631591796875,42.412200927734375,32.8631591796875,41.80010986328125C32.8631591796875,41.18800354003906,32.365234375,40.69140625,31.75146484375,40.69140625ZM31.75146484375,40.69140625" fill-rule="evenodd" fill="url(#render-15-k)" style="fill: url(&quot;#render-15-k&quot;);"/></g></g><g id="shape-e9eb54b8-f0dd-80fb-8006-75a50af51a54"><defs><linearGradient x1="56" y1="40" x2="90" y2="40" id="render-16-l" gradientTransform="matrix(0.370536, 0.000000, 0.000000, 0.369565, 8.407771, 5.952286) matrix(-0.647059 0 0 1.5 138.235283 20.999689)" gradientUnits="userSpaceOnUse"><stop offset="0" stop-color="#2ec27e"/><stop offset="1" stop-color="#33d17a"/></linearGradient></defs><g class="fills" id="fills-e9eb54b8-f0dd-80fb-8006-75a50af51a54"><path d="M45.0908203125,34.77836608886719L39.1622314453125,34.77836608886719C38.548583984375,34.77836608886719,38.0506591796875,35.27496337890625,38.0506591796875,35.88706970214844C38.0506591796875,36.49916076660156,38.548583984375,36.995758056640625,39.1622314453125,36.995758056640625L45.0908203125,36.995758056640625C45.7044677734375,36.995758056640625,46.202392578125,36.49916076660156,46.202392578125,35.88706970214844C46.202392578125,35.27496337890625,45.7044677734375,34.77836608886719,45.0908203125,34.77836608886719ZM45.0908203125,34.77836608886719" fill-rule="evenodd" fill="url(#render-16-l)" style="fill: url(&quot;#render-16-l&quot;);"/></g></g><g id="shape-e9eb54b8-f0dd-80fb-8006-75a50af51a55"><defs><linearGradient id="render-17-m" gradientTransform="matrix(0.705882 0 0 1.609237 -1.529129 8.84898)" x1="56" x2="90" xlink:href="#render-17-e" y1="40" y2="40"/><linearGradient x1="0" y1="0" x2="128" y2="0" id="render-17-e" gradientUnits="userSpaceOnUse" gradientTransform="matrix(0.370536, 0.000000, 0.000000, 0.369565, 8.407771, 5.952286)"><stop offset="0" stop-color="#2ec27e" stop-opacity="0"/><stop offset="1" stop-color="#33d17a"/></linearGradient></defs><g class="fills" id="fills-e9eb54b8-f0dd-80fb-8006-75a50af51a55"><path d="M23.5997314453125,31.82183837890625L30.2694091796875,31.82183837890625C30.883056640625,31.82183837890625,31.3809814453125,32.318450927734375,31.3809814453125,32.9305419921875L31.3809814453125,33.09220886230469C31.3809814453125,33.704315185546875,30.883056640625,34.200927734375,30.2694091796875,34.200927734375L23.5997314453125,34.200927734375C22.986083984375,34.200927734375,22.4881591796875,33.704315185546875,22.4881591796875,33.09220886230469L22.4881591796875,32.9305419921875C22.4881591796875,32.318450927734375,22.986083984375,31.82183837890625,23.5997314453125,31.82183837890625ZM23.5997314453125,31.82183837890625" fill-rule="evenodd" fill="url(#render-17-m)" style="fill: url(&quot;#render-17-m&quot;);"/></g></g><g id="shape-e9eb54b8-f0dd-80fb-8006-75a50af55b57"><defs><linearGradient id="render-18-n" gradientTransform="matrix(-0.882353 0 0 1.5 151.411782 -1.00031)" x1="56" x2="90" xlink:href="#render-18-e" y1="40" y2="40"/><linearGradient x1="0" y1="0" x2="128" y2="0" id="render-18-e" gradientUnits="userSpaceOnUse" gradientTransform="matrix(0.370536, 0.000000, 0.000000, 0.369565, 8.407771, 5.952286)"><stop offset="0" stop-color="#2ec27e" stop-opacity="0"/><stop offset="1" stop-color="#33d17a"/></linearGradient></defs><g class="fills" id="fills-e9eb54b8-f0dd-80fb-8006-75a50af55b57"><path d="M45.0908203125,26.647933959960938L36.197998046875,26.647933959960938C35.584228515625,26.647933959960938,35.0863037109375,27.14453125,35.0863037109375,27.756622314453125C35.0863037109375,28.36871337890625,35.584228515625,28.865325927734375,36.197998046875,28.865325927734375L45.0908203125,28.865325927734375C45.7044677734375,28.865325927734375,46.202392578125,28.36871337890625,46.202392578125,27.756622314453125C46.202392578125,27.14453125,45.7044677734375,26.647933959960938,45.0908203125,26.647933959960938ZM45.0908203125,26.647933959960938" fill-rule="evenodd" fill="url(#render-18-n)" style="fill: url(&quot;#render-18-n&quot;);"/></g></g><g id="shape-e9eb54b8-f0dd-80fb-8006-75a50af55b58"><defs><linearGradient id="render-19-o" gradientTransform="matrix(-1 0 0 1 128.000298 0)" x1="28" x2="28" xlink:href="#render-19-a" y1="36" y2="108"/><linearGradient x1="0" y1="0" x2="128" y2="0" id="render-19-a" gradientUnits="userSpaceOnUse" gradientTransform="matrix(0.370536, 0.000000, 0.000000, 0.369565, 8.407771, 5.952286)"><stop offset="0" stop-color="#5e5c64"/><stop offset=".5" stop-color="#9a9996"/><stop offset="1" stop-color="#5e5c64"/></linearGradient></defs><g class="fills" id="fills-e9eb54b8-f0dd-80fb-8006-75a50af55b58"><path d="M46.9434814453125,19.256622314453125L46.202392578125,19.256622314453125L44.72021484375,20.734878540039062L44.72021484375,44.38706970214844L46.202392578125,45.865325927734375L46.9434814453125,45.865325927734375ZM46.9434814453125,19.256622314453125" fill-rule="evenodd" fill="url(#render-19-o)" style="fill: url(&quot;#render-19-o&quot;);"/></g></g><g id="shape-e9eb54b8-f0dd-80fb-8006-75a50af5b79f"><defs><linearGradient id="render-20-p" gradientTransform="matrix(0.352941 0 0 1.5 52.235291 46.999691)" x1="56" x2="90" xlink:href="#render-20-b" y1="40" y2="40"/><linearGradient x1="0" y1="0" x2="128" y2="0" id="render-20-b" gradientUnits="userSpaceOnUse" gradientTransform="matrix(0.370536, 0.000000, 0.000000, 0.369565, 8.407771, 5.952286)"><stop offset="0" stop-color="#57e389"/><stop offset="1" stop-color="#33d17a"/></linearGradient></defs><g class="fills" id="fills-e9eb54b8-f0dd-80fb-8006-75a50af5b79f"><path d="M36.197998046875,44.38706970214844L38.421142578125,44.38706970214844C39.034912109375,44.38706970214844,39.53271484375,44.8836669921875,39.53271484375,45.495758056640625C39.53271484375,46.10783386230469,39.034912109375,46.604461669921875,38.421142578125,46.604461669921875L36.197998046875,46.604461669921875C35.584228515625,46.604461669921875,35.0863037109375,46.10783386230469,35.0863037109375,45.495758056640625C35.0863037109375,44.8836669921875,35.584228515625,44.38706970214844,36.197998046875,44.38706970214844ZM36.197998046875,44.38706970214844" fill-rule="evenodd" fill="url(#render-20-p)" style="fill: url(&quot;#render-20-p&quot;);"/></g></g><g id="shape-e9eb54b8-f0dd-80fb-8006-75a50af5b7a0" rx="0" ry="0" style="fill: rgb(0, 0, 0);"><g id="shape-e9eb54b8-f0dd-80fb-8006-75a50af5d6c6"><g class="fills" id="fills-e9eb54b8-f0dd-80fb-8006-75a50af5d6c6"><path d="M24.3408203125,27.387069702148438C24.13525390625,27.387069702148438,23.97021484375,27.5516357421875,23.97021484375,27.756622314453125L23.97021484375,28.126190185546875L23.5997314453125,28.126190185546875C23.3941650390625,28.126190185546875,23.229248046875,28.290771484375,23.229248046875,28.495758056640625C23.229248046875,28.70074462890625,23.3941650390625,28.865325927734375,23.5997314453125,28.865325927734375L23.97021484375,28.865325927734375L23.97021484375,30.713150024414062C23.97021484375,30.918136596679688,24.13525390625,31.082733154296875,24.3408203125,31.082733154296875C24.54638671875,31.082733154296875,24.7113037109375,30.918136596679688,24.7113037109375,30.713150024414062L24.7113037109375,27.756622314453125C24.7113037109375,27.5516357421875,24.54638671875,27.387069702148438,24.3408203125,27.387069702148438ZM24.3408203125,27.387069702148438" fill-rule="evenodd" style="fill: rgb(46, 194, 126);"/></g></g><g id="shape-e9eb54b8-f0dd-80fb-8006-75a50af5d6c7"><g class="fills" id="fills-e9eb54b8-f0dd-80fb-8006-75a50af5d6c7"><path d="M35.4569091796875,33.115325927734375C35.2513427734375,33.115325927734375,35.0863037109375,33.2799072265625,35.0863037109375,33.48487854003906L35.0863037109375,33.854461669921875L34.7158203125,33.854461669921875C34.51025390625,33.854461669921875,34.34521484375,34.01902770996094,34.34521484375,34.22401428222656C34.34521484375,34.42901611328125,34.51025390625,34.59358215332031,34.7158203125,34.59358215332031L35.0863037109375,34.59358215332031L35.0863037109375,36.44140625C35.0863037109375,36.64640808105469,35.2513427734375,36.81095886230469,35.4569091796875,36.81095886230469C35.662353515625,36.81095886230469,35.827392578125,36.64640808105469,35.827392578125,36.44140625L35.827392578125,33.48487854003906C35.827392578125,33.2799072265625,35.662353515625,33.115325927734375,35.4569091796875,33.115325927734375ZM35.4569091796875,33.115325927734375" fill-rule="evenodd" style="fill: rgb(46, 194, 126);"/></g></g><g id="shape-e9eb54b8-f0dd-80fb-8006-75a50af628b7"><g class="fills" id="fills-e9eb54b8-f0dd-80fb-8006-75a50af628b7"><path d="M28.046142578125,35.51750183105469C27.4310302734375,35.51750183105469,26.9345703125,36.012664794921875,26.9345703125,36.626190185546875L26.9345703125,38.104461669921875C26.9345703125,38.717987060546875,27.4310302734375,39.21315002441406,28.046142578125,39.21315002441406C28.6627197265625,39.21315002441406,29.15771484375,38.717987060546875,29.15771484375,38.104461669921875L29.15771484375,36.626190185546875C29.15771484375,36.012664794921875,28.6627197265625,35.51750183105469,28.046142578125,35.51750183105469ZM28.046142578125,36.256622314453125C28.251708984375,36.256622314453125,28.416748046875,36.42120361328125,28.416748046875,36.626190185546875L28.416748046875,38.104461669921875C28.416748046875,38.3094482421875,28.251708984375,38.47401428222656,28.046142578125,38.47401428222656C27.840576171875,38.47401428222656,27.6756591796875,38.3094482421875,27.6756591796875,38.104461669921875L27.6756591796875,36.626190185546875C27.6756591796875,36.42120361328125,27.840576171875,36.256622314453125,28.046142578125,36.256622314453125ZM28.046142578125,36.256622314453125" fill-rule="evenodd" style="fill: rgb(46, 194, 126);"/></g></g><g id="shape-e9eb54b8-f0dd-80fb-8006-75a50af628b8"><g class="fills" id="fills-e9eb54b8-f0dd-80fb-8006-75a50af628b8"><path d="M40.6444091796875,21.474014282226562C40.4388427734375,21.474014282226562,40.2738037109375,21.638595581054688,40.2738037109375,21.843582153320312L40.2738037109375,22.213150024414062L39.9033203125,22.213150024414062C39.69775390625,22.213150024414062,39.53271484375,22.377716064453125,39.53271484375,22.582733154296875C39.53271484375,22.7877197265625,39.69775390625,22.952285766601562,39.9033203125,22.952285766601562L40.2738037109375,22.952285766601562L40.2738037109375,24.80010986328125C40.2738037109375,25.005096435546875,40.4388427734375,25.169677734375,40.6444091796875,25.169677734375C40.849853515625,25.169677734375,41.014892578125,25.005096435546875,41.014892578125,24.80010986328125L41.014892578125,21.843582153320312C41.014892578125,21.638595581054688,40.849853515625,21.474014282226562,40.6444091796875,21.474014282226562ZM40.6444091796875,21.474014282226562" fill-rule="evenodd" style="fill: rgb(46, 194, 126);"/></g></g></g><g id="shape-e9eb54b8-f0dd-80fb-8006-75a50af65e91"><defs><linearGradient id="render-26-q" x1="111" x2="111" xlink:href="#render-26-c" y1="28" y2="116"/><linearGradient x1="0" y1="0" x2="128" y2="0" id="render-26-c" gradientUnits="userSpaceOnUse" gradientTransform="matrix(0.370536, 0.000000, 0.000000, 0.369565, 8.407771, 5.952286)"><stop offset="0" stop-color="#c0bfbc"/><stop offset=".35" stop-color="#deddda"/><stop offset=".6" stop-color="#deddda"/><stop offset="1" stop-color="#77767b"/></linearGradient></defs><g class="fills" id="fills-e9eb54b8-f0dd-80fb-8006-75a50af65e91"><path d="M49.5372314453125,16.30010986328125C51.3841552734375,16.30010986328125,52.8720703125,17.784149169921875,52.8720703125,19.626190185546875L52.8720703125,45.495758056640625C52.8720703125,47.33781433105469,51.3841552734375,48.82183837890625,49.5372314453125,48.82183837890625C47.6903076171875,48.82183837890625,46.202392578125,47.33781433105469,46.202392578125,45.495758056640625L46.202392578125,19.626190185546875C46.202392578125,17.784149169921875,47.6903076171875,16.30010986328125,49.5372314453125,16.30010986328125ZM49.5372314453125,16.30010986328125" fill-rule="evenodd" fill="url(#render-26-q)" style="fill: url(&quot;#render-26-q&quot;);"/></g></g><g id="shape-e9eb54b8-f0dd-80fb-8006-75a50af65e92"><g class="fills" id="fills-e9eb54b8-f0dd-80fb-8006-75a50af65e92"><path d="M40.6444091796875,38.47401428222656C40.4388427734375,38.47401428222656,40.2738037109375,38.63859558105469,40.2738037109375,38.84358215332031L40.2738037109375,39.21315002441406L39.9033203125,39.21315002441406C39.69775390625,39.21315002441406,39.53271484375,39.377716064453125,39.53271484375,39.582733154296875C39.53271484375,39.7877197265625,39.69775390625,39.95228576660156,39.9033203125,39.95228576660156L40.2738037109375,39.95228576660156L40.2738037109375,41.80010986328125C40.2738037109375,42.005096435546875,40.4388427734375,42.169677734375,40.6444091796875,42.169677734375C40.849853515625,42.169677734375,41.014892578125,42.005096435546875,41.014892578125,41.80010986328125L41.014892578125,38.84358215332031C41.014892578125,38.63859558105469,40.849853515625,38.47401428222656,40.6444091796875,38.47401428222656ZM40.6444091796875,38.47401428222656" fill-rule="evenodd" style="fill: rgb(46, 194, 126);"/></g></g><g id="shape-e9eb54b8-f0dd-80fb-8006-75a50af69f58"><g class="fills" id="fills-e9eb54b8-f0dd-80fb-8006-75a50af69f58"><path d="M31.010498046875,25.169677734375C30.395263671875,25.169677734375,29.8988037109375,25.664825439453125,29.8988037109375,26.278366088867188L29.8988037109375,27.756622314453125C29.8988037109375,28.370162963867188,30.395263671875,28.865325927734375,31.010498046875,28.865325927734375C31.6270751953125,28.865325927734375,32.1220703125,28.370162963867188,32.1220703125,27.756622314453125L32.1220703125,26.278366088867188C32.1220703125,25.664825439453125,31.6270751953125,25.169677734375,31.010498046875,25.169677734375ZM31.010498046875,25.9088134765625C31.2159423828125,25.9088134765625,31.3809814453125,26.073379516601562,31.3809814453125,26.278366088867188L31.3809814453125,27.756622314453125C31.3809814453125,27.961639404296875,31.2159423828125,28.126190185546875,31.010498046875,28.126190185546875C30.804931640625,28.126190185546875,30.639892578125,27.961639404296875,30.639892578125,27.756622314453125L30.639892578125,26.278366088867188C30.639892578125,26.073379516601562,30.804931640625,25.9088134765625,31.010498046875,25.9088134765625ZM31.010498046875,25.9088134765625" fill-rule="evenodd" style="fill: rgb(46, 194, 126);"/></g></g><g id="shape-e9eb54b8-f0dd-80fb-8006-75a50af69f59"><g class="fills" id="fills-e9eb54b8-f0dd-80fb-8006-75a50af69f59"><path d="M16.5595703125,32.56095886230469C16.5595703125,33.58160400390625,15.730224609375,34.4088134765625,14.7069091796875,34.4088134765625C13.68359375,34.4088134765625,12.854248046875,33.58160400390625,12.854248046875,32.56095886230469C12.854248046875,31.54034423828125,13.68359375,30.713150024414062,14.7069091796875,30.713150024414062C15.730224609375,30.713150024414062,16.5595703125,31.54034423828125,16.5595703125,32.56095886230469ZM16.5595703125,32.56095886230469" fill-rule="evenodd" style="fill: rgb(246, 245, 244);"/></g></g><g id="shape-e9eb54b8-f0dd-80fb-8006-75a50af6daa3"><g class="fills" id="fills-e9eb54b8-f0dd-80fb-8006-75a50af6daa3"><path d="M15.8184814453125,32.56095886230469C15.8184814453125,33.173065185546875,15.320556640625,33.669677734375,14.7069091796875,33.669677734375C14.0931396484375,33.669677734375,13.59521484375,33.173065185546875,13.59521484375,32.56095886230469C13.59521484375,31.948883056640625,14.0931396484375,31.452285766601562,14.7069091796875,31.452285766601562C15.320556640625,31.452285766601562,15.8184814453125,31.948883056640625,15.8184814453125,32.56095886230469ZM15.8184814453125,32.56095886230469" fill-rule="evenodd" style="fill: rgb(51, 209, 122);"/></g></g><g id="shape-e9eb54b8-f0dd-80fb-8006-75a50af6daa4"><g class="fills" id="fills-e9eb54b8-f0dd-80fb-8006-75a50af6daa4"><path d="M51.389892578125,32.56095886230469C51.389892578125,33.58160400390625,50.560546875,34.4088134765625,49.5372314453125,34.4088134765625C48.513916015625,34.4088134765625,47.6845703125,33.58160400390625,47.6845703125,32.56095886230469C47.6845703125,31.54034423828125,48.513916015625,30.713150024414062,49.5372314453125,30.713150024414062C50.560546875,30.713150024414062,51.389892578125,31.54034423828125,51.389892578125,32.56095886230469ZM51.389892578125,32.56095886230469" fill-rule="evenodd" style="fill: rgb(246, 245, 244);"/></g></g><g id="shape-e9eb54b8-f0dd-80fb-8006-75a50af6daa5"><g class="fills" id="fills-e9eb54b8-f0dd-80fb-8006-75a50af6daa5"><path d="M50.6488037109375,32.56095886230469C50.6488037109375,33.173065185546875,50.15087890625,33.669677734375,49.5372314453125,33.669677734375C48.923583984375,33.669677734375,48.4256591796875,33.173065185546875,48.4256591796875,32.56095886230469C48.4256591796875,31.948883056640625,48.923583984375,31.452285766601562,49.5372314453125,31.452285766601562C50.15087890625,31.452285766601562,50.6488037109375,31.948883056640625,50.6488037109375,32.56095886230469ZM50.6488037109375,32.56095886230469" fill-rule="evenodd" style="fill: rgb(152, 152, 152);"/></g></g><g id="shape-e9eb54b8-f0dd-80fb-8006-75a50af7390d"><defs><linearGradient x1="30" y1="72" x2="98" y2="72" id="render-33-r" gradientUnits="userSpaceOnUse" gradientTransform="matrix(0.370536, 0.000000, 0.000000, 0.369565, 8.407771, 5.952286)"><stop offset="0" stop-color="#57e389"/><stop offset=".2" stop-color="#8ff0a4" stop-opacity="0"/><stop offset=".8" stop-color="#8ff0a4" stop-opacity="0"/><stop offset="1" stop-color="#57e389"/></linearGradient></defs><g class="fills" id="fills-e9eb54b8-f0dd-80fb-8006-75a50af7390d"><path d="M19.5238037109375,20.734878540039062L23.229248046875,20.734878540039062C23.7039794921875,20.734878540039062,24.158447265625,20.922576904296875,24.4942626953125,21.257476806640625L24.928466796875,21.690567016601562C25.2642822265625,22.025482177734375,25.71875,22.213150024414062,26.1934814453125,22.213150024414062L31.3809814453125,22.213150024414062C31.855712890625,22.213150024414062,32.3101806640625,22.025482177734375,32.64599609375,21.690567016601562L33.0802001953125,21.257476806640625C33.416015625,20.922576904296875,33.8704833984375,20.734878540039062,34.34521484375,20.734878540039062L36.5684814453125,20.734878540039062C37.0518798828125,20.734878540039062,37.5238037109375,20.591964721679688,37.9261474609375,20.324920654296875L38.9161376953125,19.6666259765625C39.318603515625,19.399551391601562,39.7904052734375,19.256622314453125,40.2738037109375,19.256622314453125L41.014892578125,19.256622314453125C41.498291015625,19.256622314453125,41.97021484375,19.399551391601562,42.37255859375,19.6666259765625L43.362548828125,20.324920654296875C43.7650146484375,20.591964721679688,44.23681640625,20.734878540039062,44.72021484375,20.734878540039062L44.72021484375,44.38706970214844L42.0628662109375,44.38706970214844C41.3927001953125,44.38706970214844,40.74853515625,44.12144470214844,40.2738037109375,43.64793395996094C39.799072265625,43.1744384765625,39.156494140625,42.9088134765625,38.48486328125,42.9088134765625L36.13427734375,42.9088134765625C35.464111328125,42.9088134765625,34.820068359375,43.1744384765625,34.34521484375,43.64793395996094C33.8704833984375,44.12144470214844,33.2279052734375,44.38706970214844,32.5562744140625,44.38706970214844L30.1854248046875,44.38706970214844C29.5152587890625,44.38706970214844,28.861083984375,44.5848388671875,28.3023681640625,44.955841064453125L27.5511474609375,45.45533752441406C27.1488037109375,45.722412109375,26.6768798828125,45.865325927734375,26.1934814453125,45.865325927734375L25.452392578125,45.865325927734375C24.968994140625,45.865325927734375,24.4970703125,45.722412109375,24.0947265625,45.45533752441406L23.343505859375,44.955841064453125C22.7862548828125,44.5848388671875,22.130615234375,44.38706970214844,21.46044921875,44.38706970214844L19.5238037109375,44.38706970214844ZM19.5238037109375,20.734878540039062" fill-rule="evenodd" fill="url(#render-33-r)" style="fill: url(&quot;#render-33-r&quot;);"/></g></g></g></g></g></svg>