<svg width="64" height="64" version="1.1" xmlns="http://www.w3.org/2000/svg" xmlns:xlink="http://www.w3.org/1999/xlink">
 <defs>
  <filter x="-.048" y="-.048" width="1.096" height="1.096" color-interpolation-filters="sRGB">
   <feGaussianBlur stdDeviation="2.5499163"/>
  </filter>
  <linearGradient id="linearGradient862" x1="7.9373" x2="7.9373" y1="15.081" y2="1.852" gradientTransform="scale(3.7796)" gradientUnits="userSpaceOnUse">
   <stop stop-color="#ff5222" offset="0"/>
   <stop stop-color="#ffad25" offset="1"/>
  </linearGradient>
  <linearGradient id="linearGradient875" x1="7.9373" x2="7.9373" y1="15.081" y2="1.852" gradientTransform="matrix(3.2394 0 0 3.2354 4.5737 4.6028)" gradientUnits="userSpaceOnUse">
   <stop stop-color="#fee0d5" offset="0"/>
   <stop stop-color="#fbfabb" offset="1"/>
  </linearGradient>
  <filter id="filter887" x="-.047971" y="-.048029" width="1.0959" height="1.0961" color-interpolation-filters="sRGB">
   <feGaussianBlur stdDeviation="0.959375"/>
  </filter>
 </defs>
 <g transform="scale(3.7796)" shape-rendering="auto">
  <path d="m4.3693 0.52916c-2.1142 0-3.8402 1.7835-3.8402 3.9682v8.4675c0 2.1846 1.726 3.9682 3.8402 3.9682h8.1944c2.1142 0 3.8402-1.7835 3.8402-3.9682v-8.4675c0-2.1846-1.726-3.9682-3.8402-3.9682zm0.25704 0.52089h7.6808c1.8443 0 3.3291 1.5342 3.3291 3.44v7.9368c0 1.9058-1.4847 3.44-3.3291 3.44h-7.6808c-1.8443 0-3.3291-1.5342-3.3291-3.44v-7.9368c0-1.9058 1.4847-3.44 3.3291-3.44z" color="#000000" color-rendering="auto" dominant-baseline="auto" image-rendering="auto" opacity=".01" solid-color="#000000" stop-color="#000000" style="font-feature-settings:normal;font-variant-alternates:normal;font-variant-caps:normal;font-variant-east-asian:normal;font-variant-ligatures:normal;font-variant-numeric:normal;font-variant-position:normal;font-variation-settings:normal;inline-size:0;isolation:auto;mix-blend-mode:normal;shape-margin:0;shape-padding:0;text-decoration-color:#000000;text-decoration-line:none;text-decoration-style:solid;text-indent:0;text-orientation:mixed;text-transform:none;white-space:normal"/>
  <path d="m4.3587 0.79373c-1.9668 0-3.5639 1.6528-3.5639 3.6876v8.4996c0 2.0348 1.5971 3.6876 3.5639 3.6876h8.2162c1.9668 0 3.5644-1.6528 3.5644-3.6876v-8.4996c0-2.0348-1.5976-3.6876-3.5644-3.6876zm0.27222 0.25631h7.6718c1.8422 0 3.3251 1.5342 3.3251 3.44v7.9368c0 1.9058-1.483 3.44-3.3251 3.44h-7.6718c-1.8422 0-3.3251-1.5342-3.3251-3.44v-7.9368c0-1.9058 1.483-3.44 3.3251-3.44z" color="#000000" color-rendering="auto" dominant-baseline="auto" image-rendering="auto" opacity=".01" solid-color="#000000" stop-color="#000000" style="font-feature-settings:normal;font-variant-alternates:normal;font-variant-caps:normal;font-variant-east-asian:normal;font-variant-ligatures:normal;font-variant-numeric:normal;font-variant-position:normal;font-variation-settings:normal;inline-size:0;isolation:auto;mix-blend-mode:normal;shape-margin:0;shape-padding:0;text-decoration-color:#000000;text-decoration-line:none;text-decoration-style:solid;text-indent:0;text-orientation:mixed;text-transform:none;white-space:normal"/>
  <g>
   <path d="m4.3097 1.0583c-1.8657 0-3.3751 1.5383-3.3751 3.439v8.4675c0 1.9007 1.5094 3.439 3.3751 3.439h8.312c1.8657 0 3.3756-1.5383 3.3756-3.439v-8.4675c0-1.9007-1.51-3.439-3.3756-3.439h-0.09688c1.794 0.086515 3.2138 1.5819 3.2138 3.4318v7.9368c0 1.9058-1.5059 3.44-3.3766 3.44h-7.7905c-1.8707 0-3.3766-1.5342-3.3766-3.44v-7.9368c0-1.8498 1.4199-3.3451 3.2138-3.4318z" color="#000000" color-rendering="auto" dominant-baseline="auto" image-rendering="auto" opacity=".03" solid-color="#000000" stop-color="#000000" style="font-feature-settings:normal;font-variant-alternates:normal;font-variant-caps:normal;font-variant-east-asian:normal;font-variant-ligatures:normal;font-variant-numeric:normal;font-variant-position:normal;font-variation-settings:normal;inline-size:0;isolation:auto;mix-blend-mode:normal;shape-margin:0;shape-padding:0;text-decoration-color:#000000;text-decoration-line:none;text-decoration-style:solid;text-indent:0;text-orientation:mixed;text-transform:none;white-space:normal"/>
   <path transform="scale(.26458)" d="m4 46.969v2.0312c0 6.6479 5.3522 12 12 12h32c6.6479 0 12-5.3521 12-12v-1.9922c-0.021173 7.1849-5.81 12.963-13 12.963h-29.998c-7.2032 0-13.002-5.7987-13.002-13.002z" color="#000000" color-rendering="auto" dominant-baseline="auto" image-rendering="auto" opacity=".03" solid-color="#000000" stop-color="#000000" style="font-feature-settings:normal;font-variant-alternates:normal;font-variant-caps:normal;font-variant-east-asian:normal;font-variant-ligatures:normal;font-variant-numeric:normal;font-variant-position:normal;font-variation-settings:normal;inline-size:0;isolation:auto;mix-blend-mode:normal;shape-margin:0;shape-padding:0;text-decoration-color:#000000;text-decoration-line:none;text-decoration-style:solid;text-indent:0;text-orientation:mixed;text-transform:none;white-space:normal"/>
   <path d="m1.0583 11.906v0.59234c0 1.9386 1.4161 3.4993 3.1749 3.4993h8.4665c1.7589 0 3.1749-1.5608 3.1749-3.4993v-0.58095c-0.0056 2.0952-1.5372 3.7801-3.4395 3.7801h-7.9368c-1.9058 0-3.44-1.691-3.44-3.7915z" color="#000000" color-rendering="auto" dominant-baseline="auto" image-rendering="auto" opacity=".05" solid-color="#000000" stop-color="#000000" style="font-feature-settings:normal;font-variant-alternates:normal;font-variant-caps:normal;font-variant-east-asian:normal;font-variant-ligatures:normal;font-variant-numeric:normal;font-variant-position:normal;font-variation-settings:normal;inline-size:0;isolation:auto;mix-blend-mode:normal;shape-margin:0;shape-padding:0;text-decoration-color:#000000;text-decoration-line:none;text-decoration-style:solid;text-indent:0;text-orientation:mixed;text-transform:none;white-space:normal"/>
  </g>
 </g>
 <rect x="4" y="3.9686" width="56.002" height="56.002" rx="13.002" ry="13.002" fill="url(#linearGradient862)" stroke-width="3.7796"/>
 <path d="m17.002 9.0605c-4.986 0-9 4.014-9 9v29.939c0 4.986 4.014 9 9 9h29.998c4.986 0 9-4.014 9-9v-29.939c0-4.986-4.014-9-9-9zm26.246 9.0332c0.85574-0.03603 1.7241 0.23211 2.4375 0.80859l-3.2285 3.2129c-0.08648 0.10089-0.08648 0.24481 0 0.3457l2.5078 2.4941c-1.4124 0.6918-3.1136 0.40346-4.209-0.7207l0.01367 0.0293c-1.398-1.4557-1.3404-3.7621 0.11524-5.1602 0.66297-0.63415 1.5075-0.97371 2.3633-1.0098zm2.7832 1.1387c1.3259 1.4268 1.2828 3.6478-0.11523 5.0312-0.17295 0.15854-0.34705 0.31756-0.54883 0.44727l-2.4062-2.4082zm-0.12109 1.8535c-0.05945-0.01081-0.12399-8.78e-4 -0.18164 0.03516-0.12971 0.05765-0.20218 0.21599-0.14453 0.3457 0 0.01442 0.01367 0.01488 0.01367 0.0293 0.14412 0.28825 0.11658 0.64757-0.09961 0.89258-0.10089 0.10089-0.1165 0.27411-0.01563 0.375l0.01563 0.01563c0.05765 0.01442 0.12985 0.01442 0.1875 0 0.07206 0 0.15793-0.04391 0.20117-0.10156 0.36031-0.41796 0.43129-1.008 0.17188-1.498-0.03603-0.05044-0.08899-0.08294-0.14844-0.09375zm-7.2461 2.5176c0.51592 0.04166 0.921 0.2857 1.3281 0.61719-0.44679 0.01442-0.86461 0.18683-1.1816 0.50391l-8.9082 8.9062-1.9023-1.9023c6.5721-6.5613 9.1164-8.25 10.664-8.125zm1.3574 1.168c0.31708 0 0.63389 0.11766 0.87891 0.35547 0.24501 0.24501 0.37378 0.57672 0.35938 0.9082-0.01441 0.3459-0.15854 0.66393-0.41797 0.89453l-9.3828 8.2734-1.1953-1.2539 8.877-8.8223c0.24501-0.2378 0.56378-0.35547 0.88086-0.35547zm1.3828 2.2305c-0.30266 2.6807-4.0781 6.4859-7.9551 10.189l-1.6719-1.6719 9.3809-8.2578c0.08648-0.07206 0.17403-0.15888 0.24609-0.25977zm-13.75 5.0156 1.7734 1.8164-4.0215 0.86328c-0.08648 0.01442-0.17309-0.04243-0.1875-0.12891-0.01441-0.05765-2.7e-4 -0.10129 0.04297-0.14453l0.04297-0.05664zm2.2773 2.3496 0.99414 0.92188-2.2051 0.5625c-0.04324 0.02884-0.08567 0.02884-0.12891 0-0.02882-0.04324-0.02882-0.1013 0-0.14453zm1.4121 1.3691 1.7441 1.7422c-3.1131 2.5942-6.5425 4.801-10.203 6.5449v0.02734h-0.01563c-0.18736 0.10088-0.28738 0.30409-0.24414 0.50586l0.40234 1.7285c0.02882 0.1153-0.02876 0.23141-0.11524 0.28906-0.08648 0.07206-0.21505 0.07206-0.28711 0l-2.4512-2.5234 7.5234-7.5371zm-11.559 8.6758 2.4512 2.4355-4.209-0.27344c-0.05765-0.01442-0.11645-0.05832-0.13086-0.10156-0.01442-0.05765-0.01442-0.11496 0-0.1582z" filter="url(#filter887)" opacity=".15" stroke-width="3.2374"/>
 <path d="m17.002 8c-4.986 0-9 4.014-9 9v29.939c0 4.986 4.014 9 9 9h29.998c4.986 0 9-4.014 9-9v-29.939c0-4.986-4.014-9-9-9h-29.998zm26.246 9.0332c0.85574-0.03603 1.7241 0.23211 2.4375 0.80859l-3.2285 3.2129c-0.086479 0.10089-0.086479 0.24481 0 0.3457l2.5078 2.4941c-1.4124 0.6918-3.1136 0.40346-4.209-0.7207l0.013672 0.029297c-1.398-1.4557-1.3404-3.7621 0.11524-5.1602 0.66297-0.63415 1.5075-0.97371 2.3633-1.0098zm2.7832 1.1387c1.3259 1.4268 1.2828 3.6478-0.11523 5.0312-0.17295 0.15854-0.34705 0.31756-0.54883 0.44727l-2.4062-2.4082 3.0703-3.0703zm-0.12109 1.8535c-0.059449-0.01081-0.12399-8.78e-4 -0.18164 0.035156-0.12971 0.05765-0.20218 0.21599-0.14453 0.3457 0 0.01442 0.013672 0.014877 0.013672 0.029297 0.14412 0.28825 0.11658 0.64757-0.099609 0.89258-0.10089 0.10089-0.1165 0.27411-0.015625 0.375l0.015625 0.015625c0.05765 0.01442 0.12985 0.01442 0.1875 0 0.07206 0 0.15793-0.043913 0.20117-0.10156 0.36031-0.41796 0.43129-1.008 0.17188-1.498-0.03603-0.05044-0.088988-0.08294-0.14844-0.09375zm-7.2461 2.5176c0.51592 0.04166 0.921 0.2857 1.3281 0.61719-0.44679 0.01442-0.86461 0.18683-1.1816 0.50391l-8.9082 8.9062-1.9023-1.9023c6.5721-6.5613 9.1164-8.25 10.664-8.125zm1.3574 1.168c0.31708 0 0.63389 0.11766 0.87891 0.35547 0.24501 0.24501 0.37378 0.57672 0.35938 0.9082-0.01441 0.3459-0.15854 0.66393-0.41797 0.89453l-9.3828 8.2734-1.1953-1.2539 8.877-8.8223c0.24501-0.2378 0.56378-0.35547 0.88086-0.35547zm1.3828 2.2305c-0.30266 2.6807-4.0781 6.4859-7.9551 10.189l-1.6719-1.6719 9.3809-8.2578c0.08648-0.07206 0.17403-0.15888 0.24609-0.25977zm-13.75 5.0156 1.7734 1.8164-4.0215 0.86328c-0.08648 0.01442-0.17309-0.042427-0.1875-0.12891-0.01441-0.057649-2.7e-4 -0.10129 0.042969-0.14453l0.042969-0.05664 2.3496-2.3496zm2.2773 2.3496 0.99414 0.92188-2.2051 0.5625c-0.04324 0.028839-0.085666 0.028839-0.12891 0-0.02882-0.04324-0.02882-0.1013 0-0.14453l1.3398-1.3398zm1.4121 1.3691 1.7441 1.7422c-3.1131 2.5942-6.5425 4.801-10.203 6.5449v0.027343h-0.015625c-0.18736 0.10088-0.28738 0.30409-0.24414 0.50586l0.40234 1.7285c0.02882 0.1153-0.028755 0.23141-0.11524 0.28906-0.086479 0.07206-0.21505 0.07206-0.28711 0l-2.4512-2.5234 7.5234-7.5371 3.6465-0.77734zm-11.559 8.6758 2.4512 2.4355-4.209-0.27344c-0.05765-0.01442-0.11645-0.058323-0.13086-0.10156-0.01442-0.057649-0.01442-0.11496 0-0.1582l1.8887-1.9023z" fill="url(#linearGradient875)" stroke-width="3.2374"/>
</svg>
