<svg width="64" height="64" viewBox="0 0 16.933 16.933" xmlns="http://www.w3.org/2000/svg"><defs><radialGradient id="a" cx="1.852" cy="0" r="7.409" gradientTransform="matrix(-.81195 .72497 -.89283 -.99996 3.62 .51)" gradientUnits="userSpaceOnUse"><stop stop-color="#ff8100" offset="0"/><stop stop-color="#f69429" stop-opacity="0" offset="1"/></radialGradient><radialGradient id="b" cx="1.852" cy="0" r="7.409" gradientTransform="matrix(.60515 -.53792 .85711 .96425 13.696 16.077)" gradientUnits="userSpaceOnUse"><stop stop-color="#18bdd3" offset="0"/><stop stop-color="#2da8b8" stop-opacity="0" offset="1"/></radialGradient><radialGradient id="c" cx="1.852" cy="0" r="7.409" gradientTransform="matrix(.83599 .80811 -1.0357 1.0714 .304 13.32)" gradientUnits="userSpaceOnUse"><stop stop-color="#dcff00" offset="0"/><stop stop-color="#c4dc2b" stop-opacity="0" offset="1"/></radialGradient><radialGradient id="d" cx="8.466" cy="1.058" r="7.409" gradientTransform="matrix(-1.3928 0 0 -1.2499 20.259 2.381)" gradientUnits="userSpaceOnUse"><stop stop-color="#ff3386" offset="0"/><stop stop-color="#f566a0" stop-opacity="0" offset="1"/></radialGradient><radialGradient id="e" cx="1.852" cy="0" r="7.409" gradientTransform="matrix(-.68685 -.77843 1.2142 -1.0714 16.353 3.558)" gradientUnits="userSpaceOnUse"><stop stop-color="#ff29b0" offset="0"/><stop stop-color="#d462aa" stop-opacity="0" offset="1"/></radialGradient><radialGradient id="f" cx="8.466" cy="1.058" r="7.409" gradientTransform="matrix(0 1 -.99996 0 2.117 0)" gradientUnits="userSpaceOnUse"><stop stop-color="#ffdb29" offset="0"/><stop stop-color="#f9da3e" stop-opacity="0" offset="1"/></radialGradient><radialGradient id="g" cx="8.466" cy="1.058" r="7.409" gradientTransform="matrix(1 0 0 .99996 0 14.816)" gradientUnits="userSpaceOnUse"><stop stop-color="#53eb47" offset="0"/><stop stop-color="#72cb6b" stop-opacity="0" offset="1"/></radialGradient><radialGradient id="h" cx="8.466" cy="1.058" r="7.409" gradientTransform="matrix(0 -1.3214 1.1071 0 14.703 19.654)" gradientUnits="userSpaceOnUse"><stop stop-color="#34d7f4" offset="0"/><stop stop-color="#56c7d9" stop-opacity="0" offset="1"/></radialGradient><radialGradient id="k" cx="8.437" cy="9.203" r="5.432" gradientTransform="translate(3.642 -2.963) scale(3.7796)" gradientUnits="userSpaceOnUse"><stop stop-color="#fff" offset="0"/><stop stop-color="#fff" stop-opacity="0" offset="1"/></radialGradient><linearGradient id="l" x1="11.641" x2="11.641" y1="16.404" y2="10.583" gradientTransform="translate(.945 1.701) scale(.88889)" gradientUnits="userSpaceOnUse"><stop stop-color="#030707" offset="0"/><stop stop-color="#283e48" offset="1"/></linearGradient><linearGradient id="j" x1="11.377" x2="11.377" y1="7.673" y2="15.61" gradientTransform="rotate(45 14.678 5.894) scale(1.07991)" gradientUnits="userSpaceOnUse"><stop stop-color="#fff" offset="0"/><stop stop-color="#c0d8d4" offset="1"/></linearGradient><filter id="i" x="-.119" y="-.099" width="1.237" height="1.198" color-interpolation-filters="sRGB"><feGaussianBlur stdDeviation=".471"/></filter></defs><g color="#000"><path d="M4.37.53C2.254.53.53 2.312.53 4.496v8.468c0 2.184 1.725 3.968 3.84 3.968h8.194c2.114 0 3.84-1.783 3.84-3.968V4.497c0-2.184-1.726-3.968-3.84-3.968zm.256.52h7.681c1.844 0 3.33 1.534 3.33 3.44v7.937c0 1.906-1.485 3.44-3.33 3.44h-7.68c-1.845 0-3.33-1.534-3.33-3.44V4.49c0-1.906 1.485-3.44 3.33-3.44z" opacity=".01" style="font-feature-settings:normal;font-variant-alternates:normal;font-variant-caps:normal;font-variant-east-asian:normal;font-variant-ligatures:normal;font-variant-numeric:normal;font-variant-position:normal;font-variation-settings:normal;inline-size:0;isolation:auto;mix-blend-mode:normal;shape-margin:0;shape-padding:0;text-decoration-color:#000;text-decoration-line:none;text-decoration-style:solid;text-indent:0;text-orientation:mixed;text-transform:none;white-space:normal"/><path d="M4.359.794C2.392.794.795 2.447.795 4.48v8.5c0 2.035 1.597 3.688 3.564 3.688h8.216c1.967 0 3.564-1.653 3.564-3.688v-8.5c0-2.034-1.597-3.687-3.564-3.687zm.272.256h7.672c1.842 0 3.325 1.534 3.325 3.44v7.937c0 1.906-1.483 3.44-3.325 3.44H4.63c-1.842 0-3.325-1.534-3.325-3.44V4.49c0-1.906 1.483-3.44 3.325-3.44z" opacity=".01" style="font-feature-settings:normal;font-variant-alternates:normal;font-variant-caps:normal;font-variant-east-asian:normal;font-variant-ligatures:normal;font-variant-numeric:normal;font-variant-position:normal;font-variation-settings:normal;inline-size:0;isolation:auto;mix-blend-mode:normal;shape-margin:0;shape-padding:0;text-decoration-color:#000;text-decoration-line:none;text-decoration-style:solid;text-indent:0;text-orientation:mixed;text-transform:none;white-space:normal"/><path d="M4.31 1.058c-1.866 0-3.375 1.539-3.375 3.44v8.467c0 1.9 1.57 3.439 3.435 3.439h8.2c1.866 0 3.427-1.538 3.427-3.44V4.498c0-1.9-1.51-3.439-3.375-3.439h-.097c1.794.087 3.214 1.582 3.214 3.432v7.937c0 1.906-1.506 3.44-3.377 3.44h-7.79c-1.871 0-3.377-1.534-3.377-3.44V4.49c0-1.85 1.42-3.345 3.214-3.432z" opacity=".03" style="font-feature-settings:normal;font-variant-alternates:normal;font-variant-caps:normal;font-variant-east-asian:normal;font-variant-ligatures:normal;font-variant-numeric:normal;font-variant-position:normal;font-variation-settings:normal;inline-size:0;isolation:auto;mix-blend-mode:normal;shape-margin:0;shape-padding:0;text-decoration-color:#000;text-decoration-line:none;text-decoration-style:solid;text-indent:0;text-orientation:mixed;text-transform:none;white-space:normal"/><path transform="scale(.26458)" d="M4 46.969V49c0 6.648 5.896 12 12.544 12h30.961C54.153 61 60 55.648 60 49v-1.992a12.972 12.972 0 0 1-13 12.963H17.002A12.973 12.973 0 0 1 4 46.969z" opacity=".03" style="font-feature-settings:normal;font-variant-alternates:normal;font-variant-caps:normal;font-variant-east-asian:normal;font-variant-ligatures:normal;font-variant-numeric:normal;font-variant-position:normal;font-variation-settings:normal;inline-size:0;isolation:auto;mix-blend-mode:normal;shape-margin:0;shape-padding:0;text-decoration-color:#000;text-decoration-line:none;text-decoration-style:solid;text-indent:0;text-orientation:mixed;text-transform:none;white-space:normal"/><path d="M1.058 11.906v.592c0 1.939 1.573 3.5 3.332 3.5h8.16c1.76 0 3.325-1.561 3.325-3.5v-.58c-.006 2.095-1.537 3.78-3.44 3.78H4.498c-1.905 0-3.44-1.692-3.44-3.792z" opacity=".05" style="font-feature-settings:normal;font-variant-alternates:normal;font-variant-caps:normal;font-variant-east-asian:normal;font-variant-ligatures:normal;font-variant-numeric:normal;font-variant-position:normal;font-variation-settings:normal;inline-size:0;isolation:auto;mix-blend-mode:normal;shape-margin:0;shape-padding:0;text-decoration-color:#000;text-decoration-line:none;text-decoration-style:solid;text-indent:0;text-orientation:mixed;text-transform:none;white-space:normal"/></g><path d="M15.875 4.498a3.432 3.432 0 0 0-3.44-3.44H4.498a3.432 3.432 0 0 0-3.44 3.44v7.937a3.432 3.432 0 0 0 3.44 3.44h7.937a3.432 3.432 0 0 0 3.44-3.44z" fill="#fff"/><path d="M1.058 12.435a3.432 3.432 0 0 0 3.44 3.44h7.937a3.432 3.432 0 0 0 3.44-3.44V4.498a3.432 3.432 0 0 0-3.44-3.44H4.498a3.432 3.432 0 0 0-3.44 3.44z" fill="url(#a)"/><path d="M15.875 4.498a3.432 3.432 0 0 0-3.44-3.44H4.498a3.432 3.432 0 0 0-3.44 3.44v7.937a3.432 3.432 0 0 0 3.44 3.44h7.937a3.432 3.432 0 0 0 3.44-3.44z" fill="url(#b)"/><path d="M12.435 15.875a3.432 3.432 0 0 0 3.44-3.44V4.498a3.432 3.432 0 0 0-3.44-3.44H4.498a3.432 3.432 0 0 0-3.44 3.44v7.937a3.432 3.432 0 0 0 3.44 3.44z" fill="url(#c)"/><path d="M4.498 1.058a3.432 3.432 0 0 0-3.44 3.44v7.937a3.432 3.432 0 0 0 3.44 3.44h7.937a3.432 3.432 0 0 0 3.44-3.44V4.498a3.432 3.432 0 0 0-3.44-3.44z" fill="url(#d)"/><path d="M4.498 1.058a3.432 3.432 0 0 0-3.44 3.44v7.937a3.432 3.432 0 0 0 3.44 3.44h7.937a3.432 3.432 0 0 0 3.44-3.44V4.498a3.432 3.432 0 0 0-3.44-3.44z" fill="url(#e)"/><path d="M1.058 12.435a3.432 3.432 0 0 0 3.44 3.44h7.937a3.432 3.432 0 0 0 3.44-3.44V4.498a3.432 3.432 0 0 0-3.44-3.44H4.498a3.432 3.432 0 0 0-3.44 3.44z" fill="url(#f)"/><path d="M12.435 15.875a3.432 3.432 0 0 0 3.44-3.44V4.498a3.432 3.432 0 0 0-3.44-3.44H4.498a3.432 3.432 0 0 0-3.44 3.44v7.937a3.432 3.432 0 0 0 3.44 3.44z" fill="url(#g)"/><path d="M15.875 4.498a3.432 3.432 0 0 0-3.44-3.44H4.498a3.432 3.432 0 0 0-3.44 3.44v7.937a3.432 3.432 0 0 0 3.44 3.44h7.937a3.432 3.432 0 0 0 3.44-3.44z" fill="url(#h)"/><path d="M11.834 6.159a4.762 4.762 0 0 0-.114-.106c-.005-.007-.007-.016-.014-.022L8.604 2.929a.19.19 0 0 0-.268-.001L5.182 6.082a4.762 4.762 0 0 0-.083.075 4.762 4.762 0 0 0 0 6.735 4.762 4.762 0 0 0 6.735 0 4.762 4.762 0 0 0 0-6.735z" color="#000" filter="url(#i)" opacity=".15" overflow="visible" style="isolation:auto;mix-blend-mode:normal;paint-order:fill markers stroke"/><path d="M11.834 5.894a4.762 4.762 0 0 0-.114-.106c-.005-.007-.007-.015-.014-.022L8.604 2.664a.19.19 0 0 0-.268 0L5.182 5.816a4.762 4.762 0 0 0-.083.076 4.762 4.762 0 0 0 0 6.735 4.762 4.762 0 0 0 6.735 0 4.762 4.762 0 0 0 0-6.735z" color="#000" fill="url(#j)" overflow="visible" style="isolation:auto;mix-blend-mode:normal;paint-order:fill markers stroke"/><path transform="scale(.26458)" d="M33.812 11.361a20.532 20.532 0 0 0-4.492.89l-9.735 9.735a18 18 0 0 0-.314.285 18 18 0 0 0-3.957 5.977 20.532 20.532 0 0 0-.315 3.574A20.532 20.532 0 0 0 35.53 52.353a20.532 20.532 0 0 0 1.426-.049 18 18 0 0 0 7.772-4.576 18 18 0 0 0 0-25.457v.006a18 18 0 0 0-.432-.4c-.02-.027-.028-.059-.055-.085L33.811 11.36z" fill="url(#k)"/><circle cx="8.466" cy="9.26" r="2.117" fill="url(#l)"/><g transform="translate(-1.416 -.622) scale(.84894)"><path d="M10.32 10.32a1.87 1.87 0 0 0-.548 1.321h1.869z" fill="#f69429"/><g stroke-width="1.413"><path d="M12.962 12.962a1.87 1.87 0 0 0 .548-1.321h-1.87z" fill="#2da8b8"/><path d="M9.773 11.64a1.87 1.87 0 0 0 .546 1.322l1.322-1.322z" fill="#f9da3e"/><path d="M13.51 11.64a1.87 1.87 0 0 0-.546-1.322l-1.322 1.322z" fill="#56c7d9"/><path d="M10.32 12.962a1.87 1.87 0 0 0 1.321.548v-1.87z" fill="#c4dc2b"/><path d="M12.962 10.319a1.87 1.87 0 0 0-1.321-.548v1.87z" fill="#d462aa"/><path d="M11.641 13.509a1.87 1.87 0 0 0 1.322-.546l-1.322-1.322z" fill="#72cb6b"/><path d="M11.641 9.772a1.87 1.87 0 0 0-1.322.547l1.322 1.322z" fill="#f566a0"/></g><circle cx="11.641" cy="11.641" r=".535" fill="#1b2a31"/></g></svg>