<svg width="64" height="64" version="1.1" viewBox="0 0 16.933 16.933" xmlns="http://www.w3.org/2000/svg">
 <defs>
  <radialGradient id="radialGradient989" cx="1.852" cy="-3.8191e-5" r="7.4085" gradientTransform="matrix(-.81195 .72497 -.89283 -.99996 3.6204 .50928)" gradientUnits="userSpaceOnUse">
   <stop stop-color="#ff8100" offset="0"/>
   <stop stop-color="#f69429" stop-opacity="0" offset="1"/>
  </radialGradient>
  <radialGradient id="radialGradient969" cx="1.852" cy="-3.8191e-5" r="7.4085" gradientTransform="matrix(.60515 -.53792 .85711 .96425 13.696 16.077)" gradientUnits="userSpaceOnUse">
   <stop stop-color="#18bdd3" offset="0"/>
   <stop stop-color="#2da8b8" stop-opacity="0" offset="1"/>
  </radialGradient>
  <radialGradient id="radialGradient979" cx="1.852" cy="-3.8191e-5" r="7.4085" gradientTransform="matrix(.83599 .80811 -1.0357 1.0714 .30362 13.32)" gradientUnits="userSpaceOnUse">
   <stop stop-color="#dcff00" offset="0"/>
   <stop stop-color="#c4dc2b" stop-opacity="0" offset="1"/>
  </radialGradient>
  <radialGradient id="radialGradient901" cx="8.4665" cy="1.0583" r="7.4085" gradientTransform="matrix(-1.3928 8.1711e-8 -8.0976e-8 -1.2499 20.259 2.3812)" gradientUnits="userSpaceOnUse">
   <stop stop-color="#ff3386" offset="0"/>
   <stop stop-color="#f566a0" stop-opacity="0" offset="1"/>
  </radialGradient>
  <radialGradient id="radialGradient907" cx="1.852" cy="-3.8191e-5" r="7.4085" gradientTransform="matrix(-.68685 -.77843 1.2142 -1.0714 16.353 3.5583)" gradientUnits="userSpaceOnUse">
   <stop stop-color="#ff29b0" offset="0"/>
   <stop stop-color="#d462aa" stop-opacity="0" offset="1"/>
  </radialGradient>
  <radialGradient id="radialGradient959" cx="8.4665" cy="1.0583" r="7.4085" gradientTransform="matrix(6.5371e-8 1 -.99996 5.8138e-8 2.1166 -.0002001)" gradientUnits="userSpaceOnUse">
   <stop stop-color="#ffdb29" offset="0"/>
   <stop stop-color="#f9da3e" stop-opacity="0" offset="1"/>
  </radialGradient>
  <radialGradient id="radialGradient949" cx="8.4665" cy="1.0583" r="7.4085" gradientTransform="matrix(1 -6.5371e-8 5.8138e-8 .99996 -.00020022 14.816)" gradientUnits="userSpaceOnUse">
   <stop stop-color="#53eb47" offset="0"/>
   <stop stop-color="#72cb6b" stop-opacity="0" offset="1"/>
  </radialGradient>
  <radialGradient id="radialGradient917" cx="8.4665" cy="1.0583" r="7.4085" gradientTransform="matrix(7.2362e-6 -1.3214 1.1071 6.0712e-6 14.703 19.654)" gradientUnits="userSpaceOnUse">
   <stop stop-color="#34d7f4" offset="0"/>
   <stop stop-color="#56c7d9" stop-opacity="0" offset="1"/>
  </radialGradient>
  <linearGradient id="linearGradient903" x1="11.641" x2="11.641" y1="16.404" y2="10.583" gradientTransform="matrix(.88889 0 0 .88889 .94534 1.7014)" gradientUnits="userSpaceOnUse">
   <stop stop-color="#030707" offset="0"/>
   <stop stop-color="#283e48" offset="1"/>
  </linearGradient>
  <linearGradient id="linearGradient1065" x1="11.377" x2="11.377" y1="7.6728" y2="15.61" gradientTransform="matrix(.76361 .76361 -.76361 .76361 8.4668 -8.6529)" gradientUnits="userSpaceOnUse">
   <stop stop-color="#fff" offset="0"/>
   <stop stop-color="#c0d8d4" offset="1"/>
  </linearGradient>
  <filter id="filter1342" x="-.11871" y="-.099062" width="1.2374" height="1.1981" color-interpolation-filters="sRGB">
   <feGaussianBlur stdDeviation="0.47112685"/>
  </filter>
  <radialGradient id="radialGradient950" cx="8.4373" cy="9.2032" r="5.4323" gradientTransform="matrix(3.7796 0 0 3.7796 3.6422 -2.9626)" gradientUnits="userSpaceOnUse">
   <stop stop-color="#fff" offset="0"/>
   <stop stop-color="#fff" stop-opacity="0" offset="1"/>
  </radialGradient>
 </defs>
 <g shape-rendering="auto">
  <path d="m4.3693 0.52916c-2.1142 0-3.8402 1.7835-3.8402 3.9682v8.4675c0 2.1846 1.726 3.9682 3.8402 3.9682h8.1944c2.1142 0 3.8402-1.7835 3.8402-3.9682v-8.4675c0-2.1846-1.726-3.9682-3.8402-3.9682zm0.25704 0.52089h7.6808c1.8443 0 3.3291 1.5342 3.3291 3.44v7.9368c0 1.9058-1.4847 3.44-3.3291 3.44h-7.6808c-1.8443 0-3.3291-1.5342-3.3291-3.44v-7.9368c0-1.9058 1.4847-3.44 3.3291-3.44z" color="#000000" color-rendering="auto" dominant-baseline="auto" image-rendering="auto" opacity=".01" solid-color="#000000" stop-color="#000000" style="font-feature-settings:normal;font-variant-alternates:normal;font-variant-caps:normal;font-variant-east-asian:normal;font-variant-ligatures:normal;font-variant-numeric:normal;font-variant-position:normal;font-variation-settings:normal;inline-size:0;isolation:auto;mix-blend-mode:normal;shape-margin:0;shape-padding:0;text-decoration-color:#000000;text-decoration-line:none;text-decoration-style:solid;text-indent:0;text-orientation:mixed;text-transform:none;white-space:normal"/>
  <path d="m4.3587 0.79373c-1.9668 0-3.5639 1.6528-3.5639 3.6876v8.4996c0 2.0348 1.5971 3.6876 3.5639 3.6876h8.2162c1.9668 0 3.5644-1.6528 3.5644-3.6876v-8.4996c0-2.0348-1.5976-3.6876-3.5644-3.6876zm0.27222 0.25631h7.6718c1.8422 0 3.3251 1.5342 3.3251 3.44v7.9368c0 1.9058-1.483 3.44-3.3251 3.44h-7.6718c-1.8422 0-3.3251-1.5342-3.3251-3.44v-7.9368c0-1.9058 1.483-3.44 3.3251-3.44z" color="#000000" color-rendering="auto" dominant-baseline="auto" image-rendering="auto" opacity=".01" solid-color="#000000" stop-color="#000000" style="font-feature-settings:normal;font-variant-alternates:normal;font-variant-caps:normal;font-variant-east-asian:normal;font-variant-ligatures:normal;font-variant-numeric:normal;font-variant-position:normal;font-variation-settings:normal;inline-size:0;isolation:auto;mix-blend-mode:normal;shape-margin:0;shape-padding:0;text-decoration-color:#000000;text-decoration-line:none;text-decoration-style:solid;text-indent:0;text-orientation:mixed;text-transform:none;white-space:normal"/>
  <path d="m4.3097 1.0583c-1.8657 0-3.3751 1.5383-3.3751 3.439v8.4675c0 1.9007 1.57 3.439 3.4357 3.439h8.1996c1.8657 0 3.4274-1.5383 3.4274-3.439v-8.4675c0-1.9007-1.51-3.439-3.3756-3.439h-0.09688c1.794 0.086515 3.2138 1.5819 3.2138 3.4318v7.9368c0 1.9058-1.5059 3.44-3.3766 3.44h-7.7905c-1.8707 0-3.3766-1.5342-3.3766-3.44v-7.9368c0-1.8498 1.4199-3.3451 3.2138-3.4318z" color="#000000" color-rendering="auto" dominant-baseline="auto" image-rendering="auto" opacity=".03" solid-color="#000000" stop-color="#000000" style="font-feature-settings:normal;font-variant-alternates:normal;font-variant-caps:normal;font-variant-east-asian:normal;font-variant-ligatures:normal;font-variant-numeric:normal;font-variant-position:normal;font-variation-settings:normal;inline-size:0;isolation:auto;mix-blend-mode:normal;shape-margin:0;shape-padding:0;text-decoration-color:#000000;text-decoration-line:none;text-decoration-style:solid;text-indent:0;text-orientation:mixed;text-transform:none;white-space:normal"/>
  <path transform="scale(.26458)" d="m4 46.969v2.0312c0 6.6479 5.8957 12 12.544 12h30.961c6.6479 0 12.495-5.3521 12.495-12v-1.9922c-0.02117 7.1849-5.81 12.963-13 12.963h-29.998c-7.2032 0-13.002-5.7987-13.002-13.002z" color="#000000" color-rendering="auto" dominant-baseline="auto" image-rendering="auto" opacity=".03" solid-color="#000000" stop-color="#000000" style="font-feature-settings:normal;font-variant-alternates:normal;font-variant-caps:normal;font-variant-east-asian:normal;font-variant-ligatures:normal;font-variant-numeric:normal;font-variant-position:normal;font-variation-settings:normal;inline-size:0;isolation:auto;mix-blend-mode:normal;shape-margin:0;shape-padding:0;text-decoration-color:#000000;text-decoration-line:none;text-decoration-style:solid;text-indent:0;text-orientation:mixed;text-transform:none;white-space:normal"/>
  <path d="m1.0583 11.906v0.59234c0 1.9386 1.5729 3.4993 3.3318 3.4993h8.1603c1.7589 0 3.3243-1.5608 3.3243-3.4993v-0.58095c-0.0056 2.0952-1.5372 3.7801-3.4395 3.7801h-7.9368c-1.9058 0-3.44-1.691-3.44-3.7915z" color="#000000" color-rendering="auto" dominant-baseline="auto" image-rendering="auto" opacity=".05" solid-color="#000000" stop-color="#000000" style="font-feature-settings:normal;font-variant-alternates:normal;font-variant-caps:normal;font-variant-east-asian:normal;font-variant-ligatures:normal;font-variant-numeric:normal;font-variant-position:normal;font-variation-settings:normal;inline-size:0;isolation:auto;mix-blend-mode:normal;shape-margin:0;shape-padding:0;text-decoration-color:#000000;text-decoration-line:none;text-decoration-style:solid;text-indent:0;text-orientation:mixed;text-transform:none;white-space:normal"/>
 </g>
 <path d="m15.875 4.4981c0-1.9058-1.5342-3.44-3.44-3.44h-7.9368c-1.9058 0-3.44 1.5342-3.44 3.44v7.9368c0 1.9058 1.5342 3.44 3.44 3.44h7.9368c1.9058 0 3.44-1.5342 3.44-3.44z" fill="#fff"/>
 <path d="m1.0581 12.435c0 1.9058 1.5342 3.44 3.44 3.44h7.9368c1.9058 0 3.44-1.5342 3.44-3.44v-7.9368c0-1.9058-1.5342-3.44-3.44-3.44h-7.9368c-1.9058 0-3.44 1.5342-3.44 3.44z" fill="url(#radialGradient989)"/>
 <path d="m15.875 4.4981c0-1.9058-1.5342-3.44-3.44-3.44h-7.9368c-1.9058 0-3.44 1.5342-3.44 3.44v7.9368c0 1.9058 1.5342 3.44 3.44 3.44h7.9368c1.9058 0 3.44-1.5342 3.44-3.44z" fill="url(#radialGradient969)"/>
 <path d="m12.435 15.875c1.9058 0 3.44-1.5342 3.44-3.44v-7.9368c0-1.9058-1.5342-3.44-3.44-3.44h-7.9368c-1.9058 0-3.44 1.5342-3.44 3.44v7.9368c0 1.9058 1.5342 3.44 3.44 3.44z" fill="url(#radialGradient979)"/>
 <path d="m4.4981 1.0581c-1.9058 0-3.44 1.5342-3.44 3.44v7.9368c0 1.9058 1.5342 3.44 3.44 3.44h7.9368c1.9058 0 3.44-1.5342 3.44-3.44v-7.9368c0-1.9058-1.5342-3.44-3.44-3.44z" fill="url(#radialGradient901)"/>
 <path d="m4.4981 1.0581c-1.9058 0-3.44 1.5342-3.44 3.44v7.9368c0 1.9058 1.5342 3.44 3.44 3.44h7.9368c1.9058 0 3.44-1.5342 3.44-3.44v-7.9368c0-1.9058-1.5342-3.44-3.44-3.44z" fill="url(#radialGradient907)"/>
 <path d="m1.0581 12.435c0 1.9058 1.5342 3.44 3.44 3.44h7.9368c1.9058 0 3.44-1.5342 3.44-3.44v-7.9368c0-1.9058-1.5342-3.44-3.44-3.44h-7.9368c-1.9058 0-3.44 1.5342-3.44 3.44z" fill="url(#radialGradient959)"/>
 <path d="m12.435 15.875c1.9058 0 3.44-1.5342 3.44-3.44v-7.9368c0-1.9058-1.5342-3.44-3.44-3.44h-7.9368c-1.9058 0-3.44 1.5342-3.44 3.44v7.9368c0 1.9058 1.5342 3.44 3.44 3.44z" fill="url(#radialGradient949)"/>
 <path d="m15.875 4.4981c0-1.9058-1.5342-3.44-3.44-3.44h-7.9368c-1.9058 0-3.44 1.5342-3.44 3.44v7.9368c0 1.9058 1.5342 3.44 3.44 3.44h7.9368c1.9058 0 3.44-1.5342 3.44-3.44z" fill="url(#radialGradient917)"/>
 <path d="m11.834 6.1588a4.7624 4.7624 0 0 0-0.11378-0.10614c-0.0053-0.00687-0.0076-0.015272-0.0145-0.022145l-3.1018-3.1018a0.19006 0.19006 0 0 0-0.26803-7.637e-4l-3.1537 3.1537a4.7624 4.7624 0 0 0-0.083234 0.075598 4.7624 4.7624 0 0 0-1e-7 6.7351 4.7624 4.7624 0 0 0 6.7351 0 4.7624 4.7624 0 0 0-1e-6 -6.7351z" color="#000000" filter="url(#filter1342)" opacity=".15" overflow="visible" stroke-width="1.0799" style="isolation:auto;mix-blend-mode:normal;paint-order:fill markers stroke"/>
 <path d="m11.834 5.8942a4.7624 4.7624 0 0 0-0.11378-0.10614c-0.0053-0.00687-0.0076-0.015272-0.0145-0.022145l-3.1018-3.1018a0.19006 0.19006 0 0 0-0.26803-7.637e-4l-3.1537 3.1537a4.7624 4.7624 0 0 0-0.083234 0.075598 4.7624 4.7624 0 0 0-1e-7 6.7351 4.7624 4.7624 0 0 0 6.7351 0 4.7624 4.7624 0 0 0-1e-6 -6.7351z" color="#000000" fill="url(#linearGradient1065)" overflow="visible" stroke-width="1.0799" style="isolation:auto;mix-blend-mode:normal;paint-order:fill markers stroke"/>
 <path transform="scale(.26458)" d="m33.812 11.361a20.532 20.532 0 0 0-4.4922 0.89062l-9.7344 9.7344a18 18 0 0 0-0.31445 0.28516 18 18 0 0 0-3.957 5.9766 20.532 20.532 0 0 0-0.31445 3.5742 20.532 20.532 0 0 0 20.531 20.531 20.532 20.532 0 0 0 1.4258-0.048828 18 18 0 0 0 7.7715-4.5762 18 18 0 0 0 0-25.457v0.00586a18 18 0 0 0-0.43164-0.40039c-0.020032-0.025966-0.028608-0.058007-0.054687-0.083984l-10.43-10.432z" fill="url(#radialGradient950)" stroke-linecap="round" stroke-linejoin="round" stroke-width="4.2851"/>
 <circle cx="8.4665" cy="9.2602" r="2.1166" fill="url(#linearGradient903)" stroke-width=".88889"/>
 <g transform="matrix(.84894 0 0 .84894 -1.416 -.62188)">
  <path d="m10.32 10.32a1.8695 1.8695 0 0 0-0.54845 1.3211h1.8695z" fill="#f69429" stroke-width=".37391"/>
  <g stroke-width="1.4132">
   <path d="m12.962 12.962a1.8695 1.8695 0 0 0 0.54844-1.3211h-1.8695z" fill="#2da8b8"/>
   <path d="m9.7731 11.64a1.8695 1.8695 0 0 0 0.54634 1.322l1.322-1.322z" fill="#f9da3e"/>
   <path d="m13.51 11.64a1.8695 1.8695 0 0 0-0.54634-1.322l-1.322 1.322z" fill="#56c7d9"/>
   <path d="m10.32 12.962a1.8695 1.8695 0 0 0 1.3211 0.54844v-1.8695z" fill="#c4dc2b"/>
   <path d="m12.962 10.319a1.8695 1.8695 0 0 0-1.3211-0.54844v1.8695z" fill="#d462aa"/>
   <path d="m11.641 13.509a1.8695 1.8695 0 0 0 1.322-0.54634l-1.322-1.322z" fill="#72cb6b"/>
   <path d="m11.641 9.7722a1.8695 1.8695 0 0 0-1.322 0.54634l1.322 1.322z" fill="#f566a0"/>
  </g>
  <circle cx="11.641" cy="11.641" r=".53504" fill="#1b2a31" stroke-width=".67408"/>
 </g>
</svg>
