<svg width="64" height="64" image-rendering="optimizeSpeed" xmlns="http://www.w3.org/2000/svg" xmlns:xlink="http://www.w3.org/1999/xlink"><defs><radialGradient id="n" cx="16.858" cy="22.385" r="12.416" gradientTransform="matrix(2.4606 0 0 2.8421 -9.658 -21.417)" gradientUnits="userSpaceOnUse"><stop stop-opacity="0" offset="0"/><stop stop-opacity="0" offset=".8"/><stop offset="1"/></radialGradient><radialGradient id="l" cx="64.225" cy="64.574" r="46.928" gradientTransform="translate(-.633 .762) scale(.50938)" gradientUnits="userSpaceOnUse"><stop offset="0"/><stop stop-opacity=".875" offset=".175"/><stop stop-opacity=".824" offset=".753"/><stop stop-opacity=".05" offset=".901"/><stop stop-opacity="0" offset="1"/></radialGradient><radialGradient id="k" cx="64.225" cy="64.574" r="46.928" gradientTransform="translate(-.633 -.893) scale(.50938)" gradientUnits="userSpaceOnUse" xlink:href="#a"/><radialGradient id="g" cx="64.847" cy="70.264" r="37.256" gradientTransform="matrix(.71922 0 0 .78778 -14.193 -21.256)" gradientUnits="userSpaceOnUse"><stop offset="0"/><stop offset=".2"/><stop offset=".325"/><stop stop-opacity="0" offset=".594"/><stop stop-opacity="0" offset="1"/></radialGradient><radialGradient id="f" cx="16.987" cy="19.875" r="5.824" gradientTransform="matrix(2.7317 0 0 2.6017 -14.332 -14.291)" gradientUnits="userSpaceOnUse"><stop stop-color="#727270" stop-opacity="0" offset="0"/><stop stop-color="#535351" stop-opacity=".255" offset=".535"/><stop stop-opacity=".952" offset="1"/></radialGradient><radialGradient id="e" cx="16.993" cy="20.424" r="12.416" gradientTransform="matrix(2.5752 0 0 2.4364 -11.677 -11.332)" gradientUnits="userSpaceOnUse"><stop stop-color="#727270" offset="0"/><stop stop-color="#6a6a68" offset=".6"/><stop stop-color="#616160" offset=".68"/><stop stop-color="#595958" offset=".74"/><stop offset="1"/></radialGradient><radialGradient id="c" cx="16.993" cy="17.403" r="12.416" gradientTransform="translate(-.633 -.893) scale(1.9252)" gradientUnits="userSpaceOnUse"><stop stop-color="#fff" offset="0"/><stop stop-color="#fff" stop-opacity=".937" offset=".971"/><stop stop-color="#fff" stop-opacity="0" offset="1"/></radialGradient><radialGradient id="d" cx="16.993" cy="17.403" r="12.416" gradientTransform="translate(-.633 -.893) scale(1.9252)" gradientUnits="userSpaceOnUse" xlink:href="#a"/><linearGradient id="m" x1="60.52" x2="60.52" y1="-1.27" y2="119.94" gradientTransform="matrix(.44747 0 0 .45147 4.855 4.898)" gradientUnits="userSpaceOnUse"><stop stop-color="#cdd5d7" offset="0"/><stop stop-color="#959594" offset="1"/></linearGradient><linearGradient id="a"><stop offset="0"/><stop stop-opacity="0" offset="1"/></linearGradient><linearGradient id="i" x1="59.678" x2="59.678" y1="31.293" y2="85.689" gradientTransform="scale(.99554 1.0045)" gradientUnits="userSpaceOnUse"><stop stop-color="#879192" offset="0"/><stop stop-color="#8e908f" offset="1"/></linearGradient><linearGradient id="h" x1="60.52" x2="60.52" y1="-1.27" y2="119.94" gradientTransform="matrix(.288 0 0 .29058 14.57 14.591)" gradientUnits="userSpaceOnUse"><stop stop-color="#899091" offset="0"/><stop stop-color="#8e8f8f" offset="1"/></linearGradient><linearGradient id="b" x1="7.937" x2="7.937" y1="15.081" y2="1.852" gradientTransform="scale(3.7796)" gradientUnits="userSpaceOnUse"><stop stop-color="#93918e" offset="0"/><stop stop-color="#d4e4ea" offset="1"/></linearGradient><mask id="j" fill="#fff"><rect width="31.749" height="31.749" rx="7.408" stroke-width=".265"/></mask></defs><g color="#000" image-rendering="auto"><path d="M4.37.53C2.254.53.53 2.312.53 4.496v8.468c0 2.184 1.725 3.968 3.84 3.968h8.194c2.114 0 3.84-1.783 3.84-3.968V4.497c0-2.184-1.726-3.968-3.84-3.968zm.256.52h7.681c1.844 0 3.33 1.534 3.33 3.44v7.937c0 1.906-1.485 3.44-3.33 3.44h-7.68c-1.845 0-3.33-1.534-3.33-3.44V4.49c0-1.906 1.485-3.44 3.33-3.44z" opacity=".01" style="font-feature-settings:normal;font-variant-alternates:normal;font-variant-caps:normal;font-variant-east-asian:normal;font-variant-ligatures:normal;font-variant-numeric:normal;font-variant-position:normal;font-variation-settings:normal;inline-size:0;isolation:auto;mix-blend-mode:normal;shape-margin:0;shape-padding:0;text-decoration-color:#000;text-decoration-line:none;text-decoration-style:solid;text-indent:0;text-orientation:mixed;text-transform:none;white-space:normal" transform="scale(3.7796)"/><path d="M4.359.794C2.392.794.795 2.447.795 4.48v8.5c0 2.035 1.597 3.688 3.564 3.688h8.216c1.967 0 3.564-1.653 3.564-3.688v-8.5c0-2.034-1.597-3.687-3.564-3.687zm.272.256h7.672c1.842 0 3.325 1.534 3.325 3.44v7.937c0 1.906-1.483 3.44-3.325 3.44H4.63c-1.842 0-3.325-1.534-3.325-3.44V4.49c0-1.906 1.483-3.44 3.325-3.44z" opacity=".01" style="font-feature-settings:normal;font-variant-alternates:normal;font-variant-caps:normal;font-variant-east-asian:normal;font-variant-ligatures:normal;font-variant-numeric:normal;font-variant-position:normal;font-variation-settings:normal;inline-size:0;isolation:auto;mix-blend-mode:normal;shape-margin:0;shape-padding:0;text-decoration-color:#000;text-decoration-line:none;text-decoration-style:solid;text-indent:0;text-orientation:mixed;text-transform:none;white-space:normal" transform="scale(3.7796)"/><path d="M4.31 1.058c-1.866 0-3.375 1.539-3.375 3.44v8.467c0 1.9 1.57 3.439 3.435 3.439h8.2c1.866 0 3.427-1.538 3.427-3.44V4.498c0-1.9-1.51-3.439-3.375-3.439h-.097c1.794.087 3.214 1.582 3.214 3.432v7.937c0 1.906-1.506 3.44-3.377 3.44h-7.79c-1.871 0-3.377-1.534-3.377-3.44V4.49c0-1.85 1.42-3.345 3.214-3.432z" opacity=".03" style="font-feature-settings:normal;font-variant-alternates:normal;font-variant-caps:normal;font-variant-east-asian:normal;font-variant-ligatures:normal;font-variant-numeric:normal;font-variant-position:normal;font-variation-settings:normal;inline-size:0;isolation:auto;mix-blend-mode:normal;shape-margin:0;shape-padding:0;text-decoration-color:#000;text-decoration-line:none;text-decoration-style:solid;text-indent:0;text-orientation:mixed;text-transform:none;white-space:normal" transform="scale(3.7796)"/><path d="M4 46.969V49c0 6.648 5.896 12 12.544 12h30.961C54.153 61 60 55.648 60 49v-1.992a12.972 12.972 0 0 1-13 12.963H17.002A12.973 12.973 0 0 1 4 46.969z" opacity=".03" style="font-feature-settings:normal;font-variant-alternates:normal;font-variant-caps:normal;font-variant-east-asian:normal;font-variant-ligatures:normal;font-variant-numeric:normal;font-variant-position:normal;font-variation-settings:normal;inline-size:0;isolation:auto;mix-blend-mode:normal;shape-margin:0;shape-padding:0;text-decoration-color:#000;text-decoration-line:none;text-decoration-style:solid;text-indent:0;text-orientation:mixed;text-transform:none;white-space:normal"/><path d="M1.058 11.906v.592c0 1.939 1.573 3.5 3.332 3.5h8.16c1.76 0 3.325-1.561 3.325-3.5v-.58c-.006 2.095-1.537 3.78-3.44 3.78H4.498c-1.905 0-3.44-1.692-3.44-3.792z" opacity=".05" style="font-feature-settings:normal;font-variant-alternates:normal;font-variant-caps:normal;font-variant-east-asian:normal;font-variant-ligatures:normal;font-variant-numeric:normal;font-variant-position:normal;font-variation-settings:normal;inline-size:0;isolation:auto;mix-blend-mode:normal;shape-margin:0;shape-padding:0;text-decoration-color:#000;text-decoration-line:none;text-decoration-style:solid;text-indent:0;text-orientation:mixed;text-transform:none;white-space:normal" transform="scale(3.7796)"/></g><rect x="4" y="3.969" width="56.002" height="56.002" rx="13.002" ry="13.002" fill="url(#b)"/><circle cx="32.081" cy="32.772" r="23.904" fill="#fff" fill-opacity=".01"/><circle cx="32.081" cy="32.613" r="23.904" fill="url(#c)" stroke="url(#d)" stroke-linecap="round" stroke-linejoin="round" stroke-opacity=".159" stroke-width=".166"/><g stroke-width="3.78"><circle cx="32.081" cy="32" r="23.904" fill="url(#e)"/><ellipse cx="31.907" cy="31.762" rx="11.212" ry="11.306" fill="url(#f)"/><path d="M32 13.023A18.977 18.977 0 0 0 13.023 32 18.977 18.977 0 0 0 32 50.977 18.977 18.977 0 0 0 50.977 32 18.977 18.977 0 0 0 32 13.023zm0 6.672A12.306 12.306 0 0 1 44.306 32 12.306 12.306 0 0 1 32 44.307 12.306 12.306 0 0 1 19.694 32 12.306 12.306 0 0 1 32 19.695z" fill="url(#g)"/><path d="m31.385 17.917-.347.012-.191 1.616c-.245.019-.376.046-.616.079l-.44-1.531-.343.054.007 1.607c-.242.05-.482.105-.719.168l-.615-1.448-.333.095.2 1.576c-.237.08-.47.165-.7.258l-.779-1.348-.319.137.387 1.523a12.394 12.394 0 0 0-.477.24l-.906-1.248-.304.169.54 1.462a12.35 12.35 0 0 0-.633.416l-1.043-1.117-.28.204.707 1.373a12.506 12.506 0 0 0-.581.494l-1.16-.973-.254.237.861 1.265a12.515 12.515 0 0 0-.52.564l-1.259-.816-.223.266 1 1.14c-.112.147-.22.296-.326.447l-1.328-.675-.193.288 1.106 1.022a12.422 12.422 0 0 0-.384.676l-1.388-.505-.158.31 1.214.873c-.107.237-.207.478-.3.722l-1.43-.33-.119.327 1.304.715a12.344 12.344 0 0 0-.208.756l-1.453-.152-.078.338 1.377.55c-.033.185-.062.372-.087.56h-1.459l-.042.345 1.426.402a12.61 12.61 0 0 0-.03.785l-1.447.179v.347l1.462.225c.014.263.036.525.065.784l-1.412.353.042.344 1.478.045a12.376 12.376 0 0 0 .112.557l-1.369.498.079.339 1.475-.11a12.341 12.341 0 0 0 .243.749l-1.3.662.119.326 1.456-.29c.104.243.216.481.335.716l-1.22.807.156.31 1.425-.456a12.442 12.442 0 0 0 .296.478l-1.132.934.187.293 1.375-.605a12.495 12.495 0 0 0 .482.612l-1.014 1.069.22.268 1.298-.772a12.518 12.518 0 0 0 .367.371l-.97 1.387.257.232 1.313-1.073a12.499 12.499 0 0 0 .557.447l-.8 1.504.285.2 1.18-1.234a12.446 12.446 0 0 0 .502.314l-.674 1.515.297.179 1.085-1.305a12.381 12.381 0 0 0 .652.309l-.486 1.592.317.14.922-1.433a12.343 12.343 0 0 0 .473.16l-.318 1.642.33.107.77-1.53a12.366 12.366 0 0 0 .7.15l-.118 1.678.341.066.583-1.622a12.493 12.493 0 0 0 .49.047l.06 1.692.345.03.412-1.685a12.679 12.679 0 0 0 .451-.003l.416 1.7.346-.03.06-1.715c.161-.015.32-.032.48-.052l.592 1.65.34-.066-.119-1.717c.23-.044.456-.096.68-.153l.792 1.572.33-.108-.329-1.695a12.344 12.344 0 0 0 .45-.158l.956 1.486.317-.142-.506-1.658c.21-.095.418-.196.622-.302l1.134 1.365.299-.179-.71-1.593c.16-.097.319-.197.474-.301l1.243 1.299.285-.2-.846-1.591c.178-.138.352-.28.522-.426l1.394 1.14.258-.233-1.034-1.478c.112-.111.222-.224.33-.34l1.398.832.22-.268-1.096-1.156a12.493 12.493 0 0 0 .449-.576l1.49.656.187-.293-1.23-1.015a12.439 12.439 0 0 0 .267-.438l1.552.497.155-.31-1.331-.883a12.378 12.378 0 0 0 .309-.667l1.595.317.118-.326-1.425-.727a12.341 12.341 0 0 0 .223-.695l1.62.12.079-.338-1.504-.548a12.377 12.377 0 0 0 .1-.502l1.625-.05.043-.344-1.555-.389a12.518 12.518 0 0 0 .06-.726l1.61-.248v-.347l-1.592-.196a12.294 12.294 0 0 0-.027-.727l1.566-.443-.042-.344h-1.602c-.023-.17-.048-.339-.077-.507l1.511-.603-.078-.338-1.591.167a12.49 12.49 0 0 0-.191-.704l1.425-.782-.12-.326-1.559.359a12.414 12.414 0 0 0-.275-.676l1.319-.95-.158-.309-1.504.547a12.285 12.285 0 0 0-.357-.636l1.195-1.105-.194-.287-1.428.727c-.097-.14-.197-.28-.299-.416l1.074-1.224-.223-.265-1.345.872a12.514 12.514 0 0 0-.49-.54l.917-1.346-.254-.237-1.228 1.03a12.509 12.509 0 0 0-.551-.476l.745-1.448-.28-.204-1.094 1.172c-.198-.141-.4-.277-.606-.406l.564-1.527-.304-.168-.941 1.295c-.15-.082-.302-.16-.455-.235l.4-1.576-.32-.136-.8 1.386c-.225-.093-.452-.18-.683-.26l.206-1.612-.334-.096-.626 1.473a12.6 12.6 0 0 0-.709-.174l.008-1.626-.343-.054-.442 1.54c-.24-.036-.48-.064-.724-.086l-.191-1.617-.347-.012-.252 1.584a13.494 13.494 0 0 0-.325-.004h-.289zm.542 3.472c4.607 0 8.542 2.87 10.115 6.92.278.776.417 1.3.417 1.57 0 .723-.434 1.591-2.748 1.591h-5.769c-.887 0-1.223-.088-1.456-.234-.174-.108-.474-.473-.649-.784l-.167-.325-.017-.039-2.98-4.96c-1.192-1.983-.672-2.802-.052-3.175.104-.062.267-.127.488-.195a10.863 10.863 0 0 1 2.818-.37zm-6.593 2.74c.567-.01 1.28.38 2.1 1.745l2.864 4.767c.315.579.472 1.062.472 1.452 0 .482-.193 1.109-.579 1.88l.03-.034-2.788 4.64c-1.192 1.983-2.159 1.909-2.779 1.536-.248-.15-.825-.672-1.405-1.391l.266.364a10.804 10.804 0 0 1-2.436-6.85 10.801 10.801 0 0 1 2.18-6.523c.577-.712 1.149-1.23 1.395-1.377a1.36 1.36 0 0 1 .68-.209zm6.577 7.447a.68.68 0 0 1 .68.68.68.68 0 0 1-.68.681.68.68 0 0 1-.681-.68.68.68 0 0 1 .68-.68zm2.038 1.34h5.762c2.314 0 2.748.868 2.748 1.591 0 .162-.047.474-.144.87-1.346 4.46-5.488 7.709-10.387 7.709a10.921 10.921 0 0 1-1.827-.153c-.762-.155-1.255-.3-1.48-.434-.612-.369-1.125-1.176.017-3.113l3-4.979c.465-.805.608-.994.868-1.157.26-.163.593-.334 1.444-.334z" fill="url(#h)" fill-rule="evenodd"/></g><g stroke-linecap="round" stroke-linejoin="round" color="#000"><path d="m31.428 17.952-.347.012-.192 1.616c-.244.019-.375.046-.616.079l-.44-1.532-.342.055.007 1.607c-.242.05-.482.105-.719.168l-.615-1.448-.334.095.2 1.576c-.236.08-.47.165-.7.258l-.778-1.348-.319.136.387 1.524a12.395 12.395 0 0 0-.477.24l-.906-1.248-.304.169.54 1.462c-.216.132-.427.271-.633.416l-1.043-1.117-.28.204.707 1.373a12.506 12.506 0 0 0-.582.494l-1.16-.973-.253.236.86 1.266a12.515 12.515 0 0 0-.52.564l-1.258-.816-.223.266 1 1.14c-.112.147-.22.296-.327.447l-1.327-.675-.194.288 1.107 1.022a12.422 12.422 0 0 0-.385.676l-1.388-.505-.158.31 1.214.873a12.54 12.54 0 0 0-.3.723l-1.43-.33-.118.326 1.304.715a12.344 12.344 0 0 0-.208.756l-1.454-.152-.078.338 1.378.55c-.033.185-.062.372-.087.56h-1.46l-.041.345 1.426.402a12.61 12.61 0 0 0-.031.785l-1.447.179v.347l1.463.225c.014.263.035.525.065.784l-1.413.353.042.344 1.479.045a12.376 12.376 0 0 0 .111.558l-1.368.497.078.339 1.476-.11a12.341 12.341 0 0 0 .243.749l-1.3.662.119.327 1.456-.29c.104.242.216.48.334.715l-1.219.807.156.31 1.425-.456a12.443 12.443 0 0 0 .295.479l-1.13.933.186.293 1.374-.605a12.495 12.495 0 0 0 .483.612l-1.014 1.07.22.267 1.298-.772a12.518 12.518 0 0 0 .367.372L22.34 42.3l.258.232 1.313-1.073a12.5 12.5 0 0 0 .557.447l-.8 1.505.285.2 1.18-1.234a12.446 12.446 0 0 0 .502.313l-.675 1.515.298.18 1.085-1.305a12.382 12.382 0 0 0 .652.308l-.486 1.592.317.14.922-1.432a12.343 12.343 0 0 0 .473.16l-.318 1.641.33.107.77-1.53a12.366 12.366 0 0 0 .7.15l-.118 1.679.34.066.584-1.623a12.493 12.493 0 0 0 .49.048l.06 1.691.345.03.412-1.685a12.68 12.68 0 0 0 .451-.003l.416 1.7.346-.03.06-1.715c.161-.015.32-.032.48-.052l.592 1.65.34-.066-.119-1.716c.23-.045.456-.097.68-.154l.792 1.572.33-.108-.329-1.695a12.344 12.344 0 0 0 .45-.158l.956 1.486.317-.142-.506-1.658c.21-.095.418-.196.622-.302l1.134 1.365.299-.179-.71-1.593c.16-.097.319-.197.474-.301l1.243 1.299.285-.2-.846-1.592c.178-.137.352-.279.522-.425l1.394 1.14.258-.233-1.034-1.478c.112-.111.222-.224.33-.34l1.398.832.22-.268-1.096-1.156a12.494 12.494 0 0 0 .45-.576l1.49.656.186-.293-1.23-1.015a12.44 12.44 0 0 0 .267-.438l1.553.497.154-.31-1.33-.883a12.378 12.378 0 0 0 .308-.667l1.595.317.118-.326-1.425-.727a12.341 12.341 0 0 0 .223-.695l1.621.12.078-.338-1.504-.548a12.377 12.377 0 0 0 .1-.502l1.626-.05.042-.345-1.555-.388a12.518 12.518 0 0 0 .061-.726l1.61-.248v-.347l-1.593-.196a12.566 12.566 0 0 0-.027-.728l1.567-.442-.042-.344h-1.602c-.022-.17-.048-.34-.077-.507l1.511-.603-.078-.338-1.592.166c-.057-.237-.12-.472-.19-.704l1.424-.782-.118-.326-1.56.36a12.424 12.424 0 0 0-.275-.676l1.319-.95-.158-.31-1.504.548a12.304 12.304 0 0 0-.357-.636l1.195-1.105-.194-.288-1.428.728c-.097-.141-.197-.28-.3-.416l1.074-1.224-.223-.266-1.344.873a12.514 12.514 0 0 0-.49-.54l.917-1.346-.255-.237-1.228 1.03a12.51 12.51 0 0 0-.55-.476l.744-1.448-.28-.204-1.094 1.172c-.197-.141-.4-.277-.605-.406l.564-1.527-.304-.168-.942 1.295c-.15-.082-.302-.16-.455-.235l.4-1.576-.32-.136-.8 1.386c-.225-.094-.452-.18-.683-.26l.206-1.612-.334-.096-.625 1.473c-.234-.064-.47-.123-.71-.174l.008-1.626-.343-.054-.442 1.54c-.24-.036-.48-.065-.724-.086l-.191-1.617-.347-.012-.252 1.584a13.483 13.483 0 0 0-.325-.005h-.289zm.542 3.472c4.606 0 8.542 2.87 10.116 6.92.278.776.417 1.3.417 1.57 0 .723-.434 1.591-2.748 1.591h-5.77c-.887 0-1.222-.088-1.456-.234-.174-.108-.473-.473-.649-.784l-.166-.325-.018-.039-2.98-4.96c-1.192-1.983-.671-2.802-.052-3.175.105-.062.267-.128.488-.195a10.863 10.863 0 0 1 2.818-.37zm-6.594 2.74c.568-.01 1.28.38 2.1 1.744l2.865 4.768c.315.578.472 1.062.472 1.452 0 .482-.193 1.109-.578 1.88l.028-.034-2.787 4.64c-1.192 1.983-2.159 1.908-2.779 1.536-.248-.15-.825-.672-1.405-1.392l.266.365a10.804 10.804 0 0 1-2.436-6.85 10.8 10.8 0 0 1 2.18-6.523c.577-.713 1.149-1.23 1.395-1.378a1.36 1.36 0 0 1 .68-.208zm6.578 7.447a.68.68 0 0 1 .68.68.68.68 0 0 1-.68.681.68.68 0 0 1-.68-.68.68.68 0 0 1 .68-.68zm2.039 1.34h5.761c2.315 0 2.748.869 2.748 1.592 0 .162-.047.473-.144.869-1.346 4.46-5.488 7.709-10.388 7.709a10.92 10.92 0 0 1-1.826-.153c-.762-.155-1.255-.3-1.48-.434-.613-.369-1.125-1.176.017-3.113l3-4.979c.465-.805.608-.994.868-1.157.26-.163.593-.333 1.443-.333z" fill="none"/><path d="m31.343 17.882-.308.011a.11.11 0 0 0-.043.04l-.187 1.577c-.244.02-.376.046-.616.08l-.44-1.532-.303.048a.11.11 0 0 0-.04.046l.008 1.568c-.243.049-.482.105-.72.168l-.615-1.449-.296.085a.11.11 0 0 0-.032.05l.195 1.537c-.236.079-.47.165-.7.257l-.778-1.347-.288.122a.11.11 0 0 0-.023.048l.379 1.49a12.394 12.394 0 0 0-.477.24l-.906-1.248-.278.153a.11.11 0 0 0-.016.045l.53 1.432c-.216.133-.427.272-.634.416l-1.042-1.117-.263.192a.11.11 0 0 0-.008.03l.697 1.356a12.507 12.507 0 0 0-.581.493l-1.16-.973-.245.229a.11.11 0 0 0-.002.017l.854 1.256a12.515 12.515 0 0 0-.52.564l-1.258-.816-.223.265a.11.11 0 0 0 0 .002l1 1.14c-.112.146-.221.295-.327.447l-1.318-.671a.11.11 0 0 0-.015.003l-.188.28 1.106 1.022a12.422 12.422 0 0 0-.384.677l-1.368-.498a.11.11 0 0 0-.03.012l-.148.29 1.214.874c-.107.237-.207.477-.3.722l-1.402-.324a.11.11 0 0 0-.037.02l-.11.3 1.305.716a12.344 12.344 0 0 0-.209.756l-1.419-.149a.11.11 0 0 0-.042.031l-.07.304 1.378.55a12.67 12.67 0 0 0-.087.56H18.13a.11.11 0 0 0-.042.038l-.038.306 1.426.402a12.61 12.61 0 0 0-.03.786l-1.408.173a.11.11 0 0 0-.04.044v.308l1.464.225c.013.264.035.525.065.784l-1.374.344a.11.11 0 0 0-.034.05l.037.303 1.479.046a12.376 12.376 0 0 0 .11.557l-1.333.485a.11.11 0 0 0-.026.05l.07.301 1.476-.11a12.341 12.341 0 0 0 .242.749l-1.271.648a.11.11 0 0 0-.018.044l.108.297 1.456-.29c.105.242.216.481.335.715l-1.197.793a.11.11 0 0 0-.01.037l.143.288 1.425-.457a12.442 12.442 0 0 0 .296.479l-1.118.922a.11.11 0 0 0-.004.026l.177.278 1.375-.605a12.496 12.496 0 0 0 .482.612l-.06.065-.949 1a.11.11 0 0 0 0 .01l.216.262 1.298-.772a12.518 12.518 0 0 0 .367.372l-.972 1.386.259.232 1.313-1.073a12.5 12.5 0 0 0 .556.447l-.8 1.505.286.2.931-.974-.86.899-.131-.09.753-1.418a.11.11 0 0 0-.03-.139 12.384 12.384 0 0 1-.55-.444.11.11 0 0 0-.141 0l-1.24 1.012-.116-.104.916-1.307a.11.11 0 0 0-.015-.141c-.124-.12-.244-.243-.363-.368a.11.11 0 0 0-.135-.019l-1.217.724-.1-.122.948-.997a.11.11 0 0 0 .004-.147c-.165-.197-.325-.4-.478-.607a.11.11 0 0 0-.132-.034l-1.288.566-.085-.132 1.056-.871a.11.11 0 0 0 .022-.144 12.289 12.289 0 0 1-.293-.474.11.11 0 0 0-.128-.05l-1.335.428-.07-.138 1.138-.755a.11.11 0 0 0 .037-.14 12.446 12.446 0 0 1-.331-.71.11.11 0 0 0-.122-.063l-1.365.27-.053-.147 1.212-.619a.11.11 0 0 0 .054-.134 12.199 12.199 0 0 1-.239-.742.11.11 0 0 0-.113-.079l-1.382.103-.036-.151 1.277-.466a.11.11 0 0 0 .07-.126 12.315 12.315 0 0 1-.11-.553.11.11 0 0 0-.105-.09l-1.384-.043-.02-.155 1.318-.33a.11.11 0 0 0 .083-.117c-.03-.256-.05-.516-.063-.777a.11.11 0 0 0-.095-.103l-1.368-.211v-.156l1.349-.166a.11.11 0 0 0 .096-.11c.002-.26.012-.518.03-.777a.11.11 0 0 0-.08-.113l-1.334-.378.02-.153 1.362-.003a.11.11 0 0 0 .107-.094c.025-.186.055-.371.088-.555a.11.11 0 0 0-.069-.122l-1.29-.515.037-.151 1.356.141a.11.11 0 0 0 .117-.081c.061-.252.13-.503.207-.75a.11.11 0 0 0-.051-.128l-1.224-.67.056-.148 1.335.307a.11.11 0 0 0 .126-.068c.091-.242.19-.48.296-.715a.11.11 0 0 0-.034-.135l-1.138-.817.07-.14 1.299.472a.11.11 0 0 0 .134-.053c.12-.227.247-.449.38-.668a.11.11 0 0 0-.018-.139l-1.038-.959.087-.13 1.24.632a.11.11 0 0 0 .14-.034c.104-.15.213-.299.324-.444a.11.11 0 0 0-.004-.14l-.938-1.07.1-.119 1.177.765a.11.11 0 0 0 .142-.022c.166-.191.338-.376.516-.557a.11.11 0 0 0 .013-.139l-.81-1.187.116-.107 1.085.91a.11.11 0 0 0 .145-.002c.187-.169.377-.332.574-.49a.11.11 0 0 0 .03-.134l-.664-1.292.126-.092.976 1.047a.11.11 0 0 0 .143.014c.205-.143.414-.28.628-.411a.11.11 0 0 0 .047-.13l-.508-1.376.137-.075.85 1.169a.11.11 0 0 0 .138.031c.156-.082.315-.16.474-.236a.11.11 0 0 0 .058-.126l-.363-1.433.143-.06.73 1.262a.11.11 0 0 0 .135.047c.228-.092.46-.176.694-.254a.11.11 0 0 0 .075-.118l-.189-1.484.15-.043.577 1.36a.11.11 0 0 0 .13.063c.235-.063.473-.118.713-.167a.11.11 0 0 0 .088-.107l-.009-1.514.156-.026.413 1.44a.11.11 0 0 0 .119.079c.243-.034.371-.06.61-.08a.11.11 0 0 0 .101-.095l.18-1.523.155-.004.24 1.495a.11.11 0 0 0 .108.091h.288c.108 0 .215.002.323.005a.11.11 0 0 0 .111-.092l.235-1.488.158.006.18 1.523a.11.11 0 0 0 .098.096c.24.021.48.05.717.085a.11.11 0 0 0 .122-.08l.417-1.445.153.024-.006 1.533a.11.11 0 0 0 .085.107c.237.05.47.109.703.173a.11.11 0 0 0 .13-.062l.587-1.386.152.045-.195 1.518a.11.11 0 0 0 .073.118c.229.079.455.164.677.256a.11.11 0 0 0 .137-.045l.751-1.302.146.061-.378 1.484a.11.11 0 0 0 .057.126c.152.075.303.152.451.233a.11.11 0 0 0 .14-.032l.887-1.217.137.077-.532 1.437a.11.11 0 0 0 .045.13c.204.129.404.264.6.404a.11.11 0 0 0 .143-.015l1.027-1.1.126.092-.7 1.363a.11.11 0 0 0 .028.136c.186.152.367.31.545.472a.11.11 0 0 0 .145.003l1.155-.968.113.106-.863 1.269a.11.11 0 0 0 .011.139c.167.173.328.35.485.534a.11.11 0 0 0 .143.021l1.264-.82.1.12.06-.069-.222-.265-1.345.872a12.514 12.514 0 0 0-.49-.54l.917-1.346-.254-.237-1.229 1.031a12.509 12.509 0 0 0-.55-.477l.745-1.447-.281-.204-1.093 1.171c-.198-.14-.4-.276-.606-.406l.564-1.526-.3-.167a.11.11 0 0 0-.007.002l-.938 1.291c-.15-.081-.302-.16-.456-.235l.4-1.576-.303-.129a.11.11 0 0 0-.024.008l-.793 1.371c-.224-.093-.451-.18-.682-.26l.205-1.612-.31-.09a.11.11 0 0 0-.033.017l-.616 1.45a12.61 12.61 0 0 0-.71-.173l.008-1.626-.309-.05a.11.11 0 0 0-.043.028l-.433 1.507a12.66 12.66 0 0 0-.724-.086l-.19-1.616-.31-.011a.11.11 0 0 0-.043.035l-.246 1.547a13.476 13.476 0 0 0-.325-.004h-.29zm11.51 5.414-1.013 1.153a.11.11 0 0 0 0 .002zm-10.884-1.982c-.96 0-1.918.125-2.846.374a.11.11 0 0 0-.002 0 2.368 2.368 0 0 0-.513.207.11.11 0 0 0-.002 0 1.59 1.59 0 0 0-.35.282c.097-.104.209-.19.324-.258.104-.063.267-.128.488-.195a10.863 10.863 0 0 1 2.818-.37c4.606 0 8.542 2.871 10.116 6.921.278.776.417 1.299.417 1.57a1.357 1.357 0 0 1-.26.821c-.03.04-.065.08-.103.118l-.002.002c-.368.372-1.075.65-2.384.65h-5.769c-.887 0-1.223-.088-1.456-.234-.174-.109-.474-.474-.649-.785l-.167-.324-.017-.04-2.98-4.959c-.892-1.485-.825-2.317-.475-2.798a1.365 1.365 0 0 0-.256.662c-.062.535.117 1.258.72 2.262l2.981 4.958.013.03a.11.11 0 0 0 0 .005l.167.324a.11.11 0 0 0 .002.005c.092.162.215.334.338.482.122.149.238.271.348.34.256.16.621.25 1.516.25h5.768c1.17 0 1.882-.217 2.309-.547.426-.33.548-.77.548-1.153 0-.308-.143-.827-.422-1.606a.11.11 0 0 0-.003-.002c-1.59-4.091-5.565-6.992-10.216-6.992zm-6.596 2.74c-.282.005-.527.1-.733.224-.278.168-.842.684-1.424 1.403a.11.11 0 0 0-.002.003 10.907 10.907 0 0 0-2.202 6.588c0 2.437.858 4.648 2.204 6.468a.11.11 0 0 0-.013.083l.002.004c.002.003.003.002.005.004l.258.355.005.006a.11.11 0 0 0 .123.022c.405.44.84.907 1.045 1.03.328.197.768.319 1.27.123s1.054-.694 1.657-1.698l2.779-4.625.01-.015a.11.11 0 0 0 .003-.064c.354-.73.561-1.35.561-1.837 0-.419-.165-.917-.484-1.505a.11.11 0 0 0-.003-.005l-2.866-4.766c-.829-1.38-1.576-1.81-2.195-1.798zm-.081.04c.567-.01 1.28.381 2.1 1.745l2.864 4.767c.315.579.473 1.063.473 1.452 0 .483-.193 1.11-.579 1.88l.029-.034-2.787 4.64a7.31 7.31 0 0 1-.439.653c-.07.091-.138.176-.205.253-.898 1.038-1.631.933-2.135.63-.248-.149-.826-.671-1.406-1.391l.266.364a10.804 10.804 0 0 1-2.436-6.85 10.8 10.8 0 0 1 2.181-6.523c.576-.712 1.148-1.23 1.395-1.377a1.36 1.36 0 0 1 .679-.209zm18.274.046-1.428.727a12.82 12.82 0 0 0-.298-.415.11.11 0 0 0-.004.134c.101.135.2.272.297.412a.11.11 0 0 0 .138.036l1.341-.683.088.13-1.125 1.04a.11.11 0 0 0 0 .003l1.185-1.096zm-.995 1.403a.11.11 0 0 0-.015.115c.124.206.24.415.352.63a.11.11 0 0 0 .134.053l1.414-.514.073.138-1.246.895a.11.11 0 0 0-.002.008l1.303-.938-.158-.309-1.504.547c-.111-.212-.228-.42-.35-.625zm.702 1.358a.11.11 0 0 0-.023.093c.097.22.188.442.273.669a.11.11 0 0 0 .126.068l1.465-.337.053.147-1.343.737a.11.11 0 0 0-.005.013l1.4-.768-.119-.326-1.56.359a12.43 12.43 0 0 0-.267-.655zm.529 1.433a.11.11 0 0 0-.03.072c.07.23.134.463.19.698a.11.11 0 0 0 .118.084l1.495-.158.036.153-1.424.569a.11.11 0 0 0-.01.018l1.477-.59-.078-.338-1.591.167a12.412 12.412 0 0 0-.183-.675zm.346 1.484a.11.11 0 0 0-.03.053c.03.166.055.333.077.502a.11.11 0 0 0 .11.096h1.505l.02.156-1.479.416a.11.11 0 0 0-.018.026l1.531-.433-.042-.344H44.22c-.02-.158-.045-.315-.072-.472zm.151 1.297a.11.11 0 0 0-.027.037c.016.24.026.48.028.722a.11.11 0 0 0 .094.109l1.497.184v.156l-1.516.235a.11.11 0 0 0-.03.032l1.571-.243v-.346l-1.591-.197a12.715 12.715 0 0 0-.026-.69zm-12.347.388a.788.788 0 0 0-.671.378.68.68 0 0 1 .588-.34.68.68 0 0 1 .68.681.68.68 0 0 1-.112.37.567.567 0 0 1-.028.04.68.68 0 0 1-.038.047l-.03.03a.68.68 0 0 1-.472.194.68.68 0 0 1-.68-.68.68.68 0 0 1 .09-.34.777.777 0 0 0-.117.407.791.791 0 0 0 1.58 0 .79.79 0 0 0-.79-.787zm12.352 1.132a.11.11 0 0 0-.023.025c-.014.24-.033.48-.06.72a.11.11 0 0 0 .083.117l1.46.365-.018.156-1.534.047a.11.11 0 0 0-.043.038l1.59-.049.042-.344-1.555-.388a12.518 12.518 0 0 0 .058-.687zm-10.312.207c-.865 0-1.235.183-1.501.35a1.277 1.277 0 0 0-.204.158c.056-.052.113-.095.177-.135.26-.162.593-.333 1.444-.333h5.761c2.315 0 2.748.868 2.748 1.591 0 .162-.047.474-.144.87-1.346 4.46-5.487 7.708-10.387 7.708a10.92 10.92 0 0 1-1.827-.152c-.762-.155-1.255-.3-1.48-.435-.612-.368-1.125-1.176.017-3.113l3-4.979a9.96 9.96 0 0 1-.011.016l-2.998 4.977a.11.11 0 0 0-.002 0c-.578.98-.746 1.69-.68 2.215.067.525.376.85.701 1.046a.11.11 0 0 0 .002 0c.255.153.746.293 1.512.449a.11.11 0 0 0 .004 0c.61.103 1.227.156 1.845.156 4.949 0 9.132-3.282 10.492-7.789a.11.11 0 0 0 .003-.004c.098-.4.147-.711.147-.895 0-.383-.122-.826-.549-1.155-.426-.33-1.137-.546-2.308-.546zm10.133 1.299a.11.11 0 0 0-.015.014c-.03.167-.064.333-.1.498a.11.11 0 0 0 .07.126l1.411.514-.034.154-1.526-.116a.11.11 0 0 0-.062.043l1.59.119.078-.339-1.504-.548a12.377 12.377 0 0 0 .092-.465zm-.297 1.262a.11.11 0 0 0-.011.007c-.067.232-.142.463-.222.69a.11.11 0 0 0 .054.135l1.338.681-.053.148-1.501-.3a.11.11 0 0 0-.08.044l1.569.312.118-.326-1.425-.727a12.341 12.341 0 0 0 .213-.664zm-.513 1.425a.11.11 0 0 0-.004.003c-.096.223-.199.442-.308.66a.11.11 0 0 0 .039.14l1.25.83-.07.14-1.464-.47a.11.11 0 0 0-.102.04l1.538.492.155-.31-1.33-.882a12.378 12.378 0 0 0 .296-.643zm-.682 1.352c-.086.147-.175.291-.266.434a.11.11 0 0 0 .022.143l1.155.954-.084.133-1.405-.62a.11.11 0 0 0-.122.034l1.486.654.186-.293-1.23-1.015a12.44 12.44 0 0 0 .258-.424zm-.708 1.08a.11.11 0 0 0-.002.001c-.143.195-.29.384-.444.57a.11.11 0 0 0 0 .001 12.494 12.494 0 0 0 .446-.571zm-.446.572a.11.11 0 0 0 .004.144l1.031 1.087.062-.075zm-.383.57a.11.11 0 0 0-.134.019l-.005.004 1.398.831.116-.141-.057.068zm-.151.036a12.44 12.44 0 0 1-.312.318.11.11 0 0 0 0 .002c.106-.105.21-.211.312-.32zm-.313.333a.11.11 0 0 0-.012.126l.98 1.399-.117.104-1.322-1.08a.11.11 0 0 0-.14.002c-.17.145-.341.286-.517.422a.11.11 0 0 0-.001.004c.172-.133.341-.27.506-.413l1.394 1.14.258-.233zm-1.136 1.007a.11.11 0 0 0-.022.103l.8 1.506-.128.091-1.179-1.231a.11.11 0 0 0-.14-.016c-.154.104-.31.203-.468.3a.11.11 0 0 0-.003.008c.152-.093.302-.187.449-.286l1.243 1.299.285-.2zm-14.305.507a.11.11 0 0 0-.138.017l-.005.005a12.446 12.446 0 0 0 .5.314l-.673 1.515.297.179.06-.072-.135-.08.634-1.428a.11.11 0 0 0-.042-.138 12.46 12.46 0 0 1-.498-.312zm13.152.296a.11.11 0 0 0-.027.088l.668 1.504-.134.08-1.074-1.291a.11.11 0 0 0-.135-.028 12.34 12.34 0 0 1-.617.3.11.11 0 0 0-.006.014c.2-.09.396-.186.59-.287l1.135 1.365.298-.179zm-11.952.4a.11.11 0 0 0-.134.028l-.944 1.137.944-1.136a12.381 12.381 0 0 0 .652.309l-.486 1.591.318.14.915-1.422a.11.11 0 0 0-.002 0l-.872 1.354-.143-.064.458-1.497a.11.11 0 0 0-.06-.132 12.28 12.28 0 0 1-.646-.308zm10.605.315a.11.11 0 0 0-.031.07l.478 1.565-.143.064-.904-1.408a.11.11 0 0 0-.13-.042 12.23 12.23 0 0 1-.446.156.11.11 0 0 0-.013.021 12.344 12.344 0 0 0 .413-.145l.955 1.486.317-.141zm-9.212.29a.11.11 0 0 0-.11.036 12.343 12.343 0 0 0 .461.156l-.318 1.641.33.108.762-1.512a.11.11 0 0 0-.004.002l-.73 1.446-.148-.048.3-1.546a.11.11 0 0 0-.076-.126 12.1 12.1 0 0 1-.467-.158zm7.993.186a.11.11 0 0 0-.032.053l.312 1.601-.15.05-.75-1.489a.11.11 0 0 0-.123-.058c-.222.057-.448.11-.675.154a.11.11 0 0 0-.02.027c.214-.043.427-.09.637-.144l.792 1.572.33-.107zm-6.748.19a.11.11 0 0 0-.09.04 12.367 12.367 0 0 0 .677.145l-.117 1.678.341.066.574-1.596a.11.11 0 0 0-.01.006l-.55 1.535-.155-.03.11-1.582a.11.11 0 0 0-.088-.116 12.25 12.25 0 0 1-.692-.146zm5.27.198a.11.11 0 0 0-.027.036l.113 1.621-.154.03-.562-1.563a.11.11 0 0 0-.117-.07c-.157.02-.315.036-.474.05a.11.11 0 0 0-.034.035c.147-.013.293-.028.438-.047l.593 1.65.34-.066zm-3.78.068a.11.11 0 0 0-.067.043 12.493 12.493 0 0 0 .46.045l.06 1.691.347.031.404-1.653a.11.11 0 0 0-.016.012l-.389 1.593-.155-.013-.058-1.595a.11.11 0 0 0-.1-.105c-.163-.012-.324-.03-.485-.049zm1.743.082c-.15.003-.297.005-.446.004a.11.11 0 0 0-.05.039 12.68 12.68 0 0 0 .416-.003l.416 1.7.345-.03.06-1.677a.11.11 0 0 0-.026.026l-.055 1.619-.156.015-.395-1.61a.11.11 0 0 0-.109-.083z" fill="#fff" fill-opacity=".418" fill-rule="evenodd"/></g><path transform="translate(4.855 4.898) scale(.44947)" d="m65.392 27.824.798.126-.017 3.786c.556.12 1.107.255 1.65.405l1.457-3.43.777.223-.477 3.754c.537.186 1.066.388 1.588.604l1.864-3.226.744.316-.932 3.669c.358.176.711.359 1.06.549l2.192-3.016.707.392-1.311 3.554c.48.302.95.618 1.41.946l2.545-2.728.654.475-1.736 3.37c.439.358.867.728 1.283 1.11l2.861-2.399.591.551-2.134 3.135c.392.408.772.827 1.14 1.257l3.13-2.033.52.62-2.499 2.85c.238.317.47.64.696.967l3.325-1.693.452.67-2.782 2.571c.29.485.567.98.83 1.482l3.503-1.274.367.72-3.072 2.212c.23.516.443 1.041.642 1.573l3.631-.837.276.76-3.318 1.82c.164.54.312 1.087.444 1.64l3.707-.388.182.787-3.518 1.403c.067.39.127.784.179 1.18h3.73l.099.803-3.65 1.029c.038.56.06 1.126.064 1.695l3.706.457v.808l-3.747.576a29.374 29.374 0 0 1-.141 1.692l3.62.903-.099.803-3.785.115c-.07.393-.148.783-.233 1.17l3.502 1.276-.182.788-3.774-.281a28.735 28.735 0 0 1-.52 1.618l3.32 1.693-.277.76-3.712-.74a28.82 28.82 0 0 1-.72 1.555l3.1 2.054-.36.723-3.616-1.158c-.2.345-.408.685-.622 1.02l2.866 2.363-.435.682-3.47-1.528a29.09 29.09 0 0 1-1.045 1.343l2.552 2.691-.514.624-3.253-1.936c-.252.269-.509.532-.77.79l2.408 3.442-.6.54-3.248-2.652c-.395.34-.8.672-1.214.992l1.97 3.706-.663.463-2.895-3.025a28.99 28.99 0 0 1-1.101.703l1.65 3.709-.693.416-2.642-3.177c-.476.247-.96.48-1.45.702l1.18 3.861-.739.329-2.224-3.459c-.347.13-.696.252-1.05.367l.767 3.948-.769.25-1.844-3.659a28.78 28.78 0 0 1-1.583.358l.278 3.997-.793.154-1.38-3.844c-.37.047-.741.088-1.115.12l-.14 3.995-.806.07-.968-3.957a29.522 29.522 0 0 1-1.05.006l-.96 3.924-.805-.07-.139-3.939c-.382-.03-.762-.067-1.14-.11l-1.357 3.778-.793-.154.272-3.907a28.794 28.794 0 0 1-1.627-.35l-1.794 3.561-.77-.25.742-3.82c-.37-.117-.738-.241-1.102-.373l-2.146 3.337-.739-.329 1.132-3.706a28.828 28.828 0 0 1-1.518-.717l-2.526 3.037-.692-.416 1.569-3.528a28.978 28.978 0 0 1-1.168-.73l-2.748 2.871-.663-.463 1.862-3.504a29.102 29.102 0 0 1-1.295-1.04l-3.058 2.499-.6-.541 2.26-3.23c-.291-.282-.576-.57-.855-.863l-3.02 1.797-.515-.624 2.361-2.489a29.095 29.095 0 0 1-1.123-1.426l-3.201 1.409-.435-.682 2.635-2.173a28.97 28.97 0 0 1-.688-1.114l-3.319 1.062-.36-.723 2.837-1.88c-.276-.545-.536-1.1-.778-1.665l-3.391.675-.277-.76 3.026-1.542a28.735 28.735 0 0 1-.564-1.743l-3.436.256-.182-.788 3.185-1.16c-.096-.429-.183-.86-.26-1.296l-3.441-.105-.099-.803 3.29-.82c-.07-.604-.12-1.213-.152-1.827l-3.406-.524v-.808l3.369-.415a29.15 29.15 0 0 1 .072-1.83l-3.32-.936.098-.802 3.397-.001c.058-.438.125-.872.202-1.303l-3.208-1.28.182-.787 3.384.354c.144-.594.306-1.181.485-1.76l-3.036-1.666.276-.76 3.33.768c.215-.57.448-1.13.697-1.681L30.852 46.1l.367-.72 3.232 1.175c.283-.535.581-1.06.895-1.574l-2.576-2.38.452-.67 3.09 1.572c.246-.353.5-.7.761-1.041l-2.33-2.656.52-.62 2.93 1.902c.391-.45.796-.889 1.213-1.314L37.4 36.828l.59-.55 2.702 2.264c.44-.396.891-.78 1.354-1.148L40.4 34.196l.654-.475 2.427 2.601c.48-.337.972-.66 1.473-.967l-1.256-3.406.707-.392 2.111 2.905a32 32 0 0 1 1.11-.56l-.901-3.547.744-.316 1.812 3.137a28.75 28.75 0 0 1 1.63-.599l-.467-3.67.777-.223 1.432 3.372c.552-.146 1.11-.276 1.675-.39l-.017-3.743.798-.126 1.024 3.565c.559-.076.866-.14 1.435-.183l.445-3.764.808-.028.588 3.708c.139-.002.534 0 .674 0 .253 0 .505.003.757.01l.585-3.688.807.028.446 3.764c.567.05 1.129.117 1.686.2l1.029-3.585zM60 83c12.703 0 23-10.297 23-23S72.703 37 60 37 37 47.297 37 60s10.297 23 23 23z" fill="url(#i)" fill-rule="evenodd" mask="url(#j)"/><g transform="translate(4.856 5.05) scale(.44947)" mask="url(#j)" stroke-linecap="round" stroke-linejoin="round" stroke-width=".567" color="#000"><path d="m58.81 27.104-.807.027-.437 3.71c-.098.008-.163.023-.248.032l-.006.053c-.342.034-.646.077-.973.125l-.015-.053c-.068.01-.118.015-.194.025l-.994-3.459a.283.283 0 0 0-.072-.046l-.756.119.018 3.691c-.096.02-.188.046-.284.067v.046c-.41.087-.818.18-1.222.284l-.018-.041c-.05.013-.102.021-.152.035l-1.377-3.246a.283.283 0 0 0-.131-.06l-.695.198.46 3.627a28.75 28.75 0 0 0-.312.116l.004.037c-.4.137-.797.283-1.191.437l-.018-.031a28.75 28.75 0 0 0-.111.041l-1.733-2.998a.283.283 0 0 0-.19-.063l-.628.268.895 3.52c-.113.054-.223.112-.334.168l.005.019a32.35 32.35 0 0 0-.691.348l-.012-.016c-.025.014-.052.025-.078.04l-2.008-2.763a.283.283 0 0 0-.238-.052l-.568.314 1.252 3.395c-.117.07-.227.151-.342.224-.366.232-.73.466-1.084.713-.015.01-.032.019-.047.03l-2.3-2.465a.283.283 0 0 0-.28-.026l-.5.364 1.644 3.199c-.463.368-.913.75-1.353 1.146l-2.555-2.14a.283.283 0 0 0-.285.006l-.451.421 2.006 2.946c-.417.425-.822.864-1.213 1.314l-2.777-1.803a.283.283 0 0 0-.274.043l-.4.479 2.33 2.654c-.261.341-.514.688-.76 1.041l-.074-.037-.01.014-2.877-1.463a.283.283 0 0 0-.228.06l-.354.526 2.576 2.379c-.314.514-.611 1.039-.894 1.574l-.108-.04-.017.03-3.008-1.094a.283.283 0 0 0-.172.069l-.295.58 2.826 2.035a28.563 28.563 0 0 0-.697 1.682l-.15-.036-.018.041-3.096-.712a.283.283 0 0 0-.11.06l-.231.639.355.195.104-.285 3.085.71a.283.283 0 0 0 .329-.175c.212-.564.442-1.118.689-1.664a.283.283 0 0 0-.092-.348l-2.629-1.892.143-.28 2.996 1.09a.283.283 0 0 0 .348-.135c.28-.53.576-1.05.886-1.558a.283.283 0 0 0-.048-.356L33.14 42.56l.176-.262 2.867 1.459a.283.283 0 0 0 .361-.09c.244-.35.496-.693.754-1.031a.283.283 0 0 0-.013-.36l-2.168-2.472.2-.242 2.722 1.765a.283.283 0 0 0 .367-.053c.387-.445.788-.88 1.201-1.3a.283.283 0 0 0 .033-.358l-1.869-2.746.229-.213 2.51 2.104a.283.283 0 0 0 .37-.008c.437-.393.884-.773 1.342-1.137a.283.283 0 0 0 .076-.351l-1.535-2.98.254-.186 2.256 2.418a.283.283 0 0 0 .371.039c.475-.334.961-.653 1.457-.957a.283.283 0 0 0 .12-.34l-1.173-3.18.274-.152 1.965 2.703a.283.283 0 0 0 .361.084c.362-.192.728-.376 1.1-.555a.283.283 0 0 0 .152-.326l-.84-3.31.29-.124 1.685 2.92a.283.283 0 0 0 .351.121c.532-.213 1.07-.412 1.613-.593a.283.283 0 0 0 .192-.305l-.436-3.428.303-.088 1.334 3.141a.283.283 0 0 0 .332.164 28.67 28.67 0 0 1 1.66-.387.283.283 0 0 0 .227-.279l-.016-3.498.31-.05.956 3.323a.283.283 0 0 0 .31.204c.567-.077.863-.14 1.418-.182a.283.283 0 0 0 .26-.248l.416-3.524.315-.01.548 3.46a.283.283 0 0 0 .284.24c.128-.002.527 0 .67 0 .25 0 .5.003.75.01a.283.283 0 0 0 .287-.24l.547-3.44.312.012.418 3.521a.283.283 0 0 0 .256.25c.561.05 1.118.115 1.67.197a.283.283 0 0 0 .314-.203l.961-3.343.309.048-.018 3.543a.283.283 0 0 0 .225.28 29.6 29.6 0 0 1 1.635.4.283.283 0 0 0 .336-.162l1.359-3.2.303.087-.448 3.513a.283.283 0 0 0 .188.303c.531.184 1.057.386 1.574.6a.283.283 0 0 0 .354-.121l1.738-3.008.289.123-.873 3.431a.283.283 0 0 0 .15.325c.355.174.704.356 1.05.545a.283.283 0 0 0 .364-.082l2.045-2.815.276.152-1.227 3.327a.283.283 0 0 0 .115.338c.475.298.941.612 1.397.937a.283.283 0 0 0 .37-.037l2.374-2.545.256.184-1.625 3.154a.283.283 0 0 0 .072.35c.435.354.86.721 1.272 1.1a.283.283 0 0 0 .373.007l2.67-2.238.228.214-1.996 2.934a.283.283 0 0 0 .03.356c.387.404.764.82 1.128 1.246a.283.283 0 0 0 .37.052l2.92-1.896.202.242-2.34 2.668a.283.283 0 0 0-.011.356c.235.313.465.634.69.959a.283.283 0 0 0 .36.091l3.102-1.58.176.26-2.604 2.406a.283.283 0 0 0-.05.354c.287.48.561.971.822 1.468a.283.283 0 0 0 .348.135l3.267-1.187.143.28-2.875 2.07a.283.283 0 0 0-.094.345c.227.51.44 1.03.637 1.557a.283.283 0 0 0 .328.175l3.387-.779.101.281.354-.193-.235-.64a.283.283 0 0 0-.103-.057l-3.395.783-.017-.045-.159.037a27.718 27.718 0 0 0-.64-1.574l3.072-2.21-.297-.585a.283.283 0 0 0-.166-.064l-3.275 1.191-.018-.031-.115.043c-.263-.502-.54-.998-.83-1.483l2.783-2.572-.355-.527a.283.283 0 0 0-.225-.057l-3.107 1.584-.012-.016-.078.04c-.226-.328-.46-.65-.697-.967l2.5-2.85-.4-.48a.283.283 0 0 0-.272-.04l-2.928 1.901-.002-.002-.049.033c-.368-.43-.749-.848-1.14-1.256l2.134-3.135-.455-.423a.283.283 0 0 0-.28-.008l-2.716 2.28a28.91 28.91 0 0 0-1.283-1.11l1.734-3.371-.5-.364a.283.283 0 0 0-.28.026L76.9 36.139c-.46-.328-.93-.646-1.41-.948l1.306-3.543-.562-.312a.283.283 0 0 0-.246.054l-2.086 2.872-.076-.04-.01.014a28.892 28.892 0 0 0-.642-.332l.003-.017c-.112-.058-.222-.118-.335-.174l.925-3.643-.625-.265a.283.283 0 0 0-.195.064l-1.781 3.084-.106-.041-.017.03c-.38-.155-.766-.302-1.155-.44l.004-.033c-.105-.038-.208-.083-.314-.12l.47-3.712-.69-.198a.283.283 0 0 0-.136.065l-1.402 3.299c-.048-.014-.098-.023-.146-.036l-.018.041a30.149 30.149 0 0 0-1.2-.294v-.045c-.096-.022-.19-.05-.286-.07l.017-3.737-.752-.117v.01a.283.283 0 0 0-.043-.014.283.283 0 0 0-.023.021L64.36 31.07c-.062-.009-.125-.012-.187-.021l-.016.05a28.52 28.52 0 0 0-1.225-.146l-.005-.053c-.085-.008-.168-.022-.252-.029l-.44-3.709-.8-.03a.283.283 0 0 0-.026.022l-.572 3.613-.23-.003-.009.054a28.784 28.784 0 0 0-.517-.006h-.43l-.008-.054h-.238l-.576-3.639a.283.283 0 0 0-.02-.016zM72.871 40.6c6.11 4.134 10.127 11.129 10.127 19.062 0 7.976-4.062 15-10.229 19.127A22.614 22.614 0 0 1 60 82.716c-4.72 0-9.1-1.439-12.732-3.9-6.19-4.122-10.27-11.16-10.27-19.154 0-7.91 3.994-14.886 10.074-19.025C40.83 44.814 36.716 51.927 36.716 60c0 12.856 10.427 23.283 23.283 23.283S83.282 72.856 83.282 60c0-8.097-4.137-15.23-10.412-19.4zM32.406 51.147c-.178.576-.34 1.159-.482 1.75l-.194-.02c-.004.017-.01.032-.013.049l-3.145-.328a.283.283 0 0 0-.055.039l-.16.691.342.137.063-.277 3.134.328a.283.283 0 0 0 .305-.215c.143-.588.303-1.169.48-1.742a.283.283 0 0 0-.134-.334zm55.402.183-.139.076a.283.283 0 0 0-.134.332c.162.535.308 1.076.44 1.623a.283.283 0 0 0 .306.215l3.457-.361.062.275.336-.134-.16-.696a.283.283 0 0 0-.049-.035l-3.465.363-.013-.052-.201.021a28.073 28.073 0 0 0-.44-1.627zM31.562 54.64c-.075.421-.142.845-.2 1.273h-.232l-.007.055h-3.155a.283.283 0 0 0-.01.008l-.09.74.32.09.032-.27 3.145-.002a.283.283 0 0 0 .281-.246c.058-.434.125-.864.201-1.29a.283.283 0 0 0-.174-.313zm57.061.152-.105.043a.283.283 0 0 0-.176.31c.066.387.126.778.178 1.17a.283.283 0 0 0 .28.247h3.481l.032.27.314-.089-.09-.744a.283.283 0 0 0-.006-.004h-3.486l-.008-.054H88.8c-.05-.386-.111-.769-.176-1.149zm-57.436 2.902a29.15 29.15 0 0 0-.07 1.788l-.27.033-.002.052-3.097.383v.754l.285.045v-.264l3.12-.384a.283.283 0 0 0 .249-.278c.005-.609.03-1.213.072-1.812a.283.283 0 0 0-.207-.293zm57.793.122-.078.021a.283.283 0 0 0-.205.293c.038.554.058 1.115.062 1.678a.283.283 0 0 0 .25.279l3.457.426v.261l.282-.043v-.753l-3.43-.424-.002-.053-.275-.033a27.925 27.925 0 0 0-.061-1.652zm-57.822 3.464c.032.597.079 1.189.147 1.776l-.303.076.004.045-2.985.744.094.758.246.008-.031-.258 3.047-.76a.283.283 0 0 0 .213-.307 28.719 28.719 0 0 1-.15-1.81.283.283 0 0 0-.24-.266zm57.838.08-.037.006a.283.283 0 0 0-.238.264c-.031.564-.079 1.122-.14 1.676a.283.283 0 0 0 .212.306l3.377.844-.031.258.242-.008.094-.76-3.31-.824.003-.047-.309-.076c.062-.541.106-1.088.137-1.639zm-57.43 3.479c.075.417.158.83.25 1.24l-.332.121.008.035-2.854 1.04.174.753.213-.015-.06-.254 2.949-1.074a.283.283 0 0 0 .18-.328c-.096-.426-.18-.852-.256-1.284a.283.283 0 0 0-.272-.234zm57.018.043a.283.283 0 0 0-.266.226c-.069.39-.146.777-.23 1.16a.283.283 0 0 0 .18.327l3.267 1.191-.06.254.207.016.176-.756-3.166-1.154.005-.034-.334-.12c.081-.368.154-.738.221-1.11zm-56.309 2.976a28.735 28.735 0 0 0 .537 1.657l-.347.177.005.018-2.677 1.363.271.744.168-.033-.092-.25 2.803-1.427a.283.283 0 0 0 .139-.35c-.205-.57-.391-1.144-.559-1.725a.283.283 0 0 0-.248-.174zm55.604.008a.283.283 0 0 0-.24.168 28.467 28.467 0 0 1-.516 1.602.283.283 0 0 0 .139.348l3.098 1.578-.092.25.164.033.271-.744-2.968-1.514.005-.016-.351-.18a28.735 28.735 0 0 0 .49-1.525zm-1.217 3.36a.283.283 0 0 0-.2.105 28.55 28.55 0 0 1-.714 1.541.283.283 0 0 0 .098.361l2.89 1.916-.12.247.124.04.36-.722-3.1-2.055a28.82 28.82 0 0 0 .662-1.433zm-53.152.033c.228.524.466 1.042.723 1.549l-.357.236-2.479 1.643.36.722.128-.04-.12-.247 2.626-1.74a.283.283 0 0 0 .098-.365c-.273-.54-.532-1.09-.772-1.649a.283.283 0 0 0-.207-.11zm51.531 3.154a.283.283 0 0 0-.16.063c-.198.34-.403.678-.615 1.01a.283.283 0 0 0 .058.37l2.672 2.204-.156.244.092.04.435-.683-2.865-2.361c.186-.29.364-.588.54-.887zm-49.887.065a28.97 28.97 0 0 0 .608.984l-2.635 2.174.435.681.096-.043-.154-.242 2.441-2.013a.283.283 0 0 0 .057-.373c-.235-.363-.461-.731-.68-1.104a.283.283 0 0 0-.168-.064zm48.2 2.478a.283.283 0 0 0-.118.031c-.332.454-.677.897-1.035 1.33a.283.283 0 0 0 .014.375l2.378 2.51-.195.239.057.033.513-.623-2.55-2.692a29.09 29.09 0 0 0 .935-1.203zm-46.48.09a29.095 29.095 0 0 0 1.013 1.287l-2.361 2.49.515.623.06-.037-.194-.234 2.187-2.309a.283.283 0 0 0 .012-.377 28.79 28.79 0 0 1-1.112-1.412.283.283 0 0 0-.12-.031zm44.198 2.627a.283.283 0 0 0-.074.01c-.25.266-.503.525-.762.781a.283.283 0 0 0-.033.365l2.264 3.237-.233.209-3.06-2.498a.283.283 0 0 0-.035 0l3.101 2.533.6-.54-2.408-3.443c.216-.214.43-.433.64-.654zm-41.88.11c.237.246.478.491.724.73l-2.26 3.23.6.541 2.912-2.38a.283.283 0 0 0-.031 0l-2.87 2.345-.234-.21 2.117-3.026a.283.283 0 0 0-.035-.365 30 30 0 0 1-.848-.856.283.283 0 0 0-.076-.01zm39.618 1.997c-.391.337-.793.668-1.203.985a.283.283 0 0 0-.076.355l1.852 3.485-.258.181-2.727-2.85a.283.283 0 0 0-.078-.007l2.766 2.89.662-.462-1.969-3.707c.363-.28.714-.574 1.063-.87a.283.283 0 0 0-.032 0zm-37.344.127a29.102 29.102 0 0 0 1.143.918l-1.863 3.504.664.463 2.619-2.736a.283.283 0 0 0-.074.008l-2.58 2.695-.258-.18 1.744-3.283a.283.283 0 0 0-.08-.36 28.75 28.75 0 0 1-1.282-1.029.283.283 0 0 0-.033 0zm33.625 2.592c-.05.03-.097.064-.146.094a.283.283 0 0 0-.113.357l1.544 3.473.364-.217zm-29.766.154-1.57 3.526.365.219 1.467-3.293a.283.283 0 0 0-.115-.36c-.05-.03-.097-.062-.147-.092zm28.191.928 2.53 3.041.058-.035-2.48-2.984a.283.283 0 0 0-.108-.022zm-26.656.111a.283.283 0 0 0-.101.022l-2.367 2.848.056.033zm25.1.477-.12.059a.283.283 0 0 0-.155.34l1.1 3.595.35-.154zm-23.475.125-1.125 3.688.354.156 1.05-3.442a.283.283 0 0 0-.156-.343c-.041-.019-.081-.04-.123-.059zm21.771.719 2.139 3.324.096-.043-2.08-3.23a.283.283 0 0 0-.155-.051zm-20.098.094a.283.283 0 0 0-.15.05l-2 3.112.09.04zm18.97.175-.092.032a.283.283 0 0 0-.192.324l.711 3.662.332-.108zm-17.788.1-.736 3.783.336.11.687-3.538a.283.283 0 0 0-.193-.324l-.094-.031zm15.994.523 1.784 3.537.128-.04-1.716-3.407a.283.283 0 0 0-.196-.09zm-14.229.073a.283.283 0 0 0-.19.088l-1.665 3.308.123.041zm12.59.21-.056.014a.283.283 0 0 0-.229.297l.256 3.7.303-.06zm-10.904.065-.267 3.86.306.058.25-3.607a.283.283 0 0 0-.232-.3l-.057-.01zm9.04.295 1.345 3.744.17-.033-1.281-3.569a.283.283 0 0 0-.235-.142zm-7.196.041a.283.283 0 0 0-.226.14l-1.26 3.504.168.034zm6.043.033-.02.002a.283.283 0 0 0-.257.274l-.131 3.69.271-.024zm-4.863.03.137 3.884.275.024-.129-3.633a.283.283 0 0 0-.26-.274 2.27 2.27 0 0 1-.023-.002zm2.97.097.95 3.885.207-.018-.897-3.668a.283.283 0 0 0-.26-.199zm-1.085.006a.283.283 0 0 0-.256.2l-.889 3.634.201.018z" fill="#fff" fill-opacity=".293" fill-rule="evenodd"/><path d="m65.392 27.824.798.126-.017 3.786c.556.12 1.107.255 1.65.405l1.457-3.43.777.223-.477 3.754c.537.186 1.066.388 1.588.604l1.864-3.226.744.316-.932 3.669c.358.176.711.359 1.06.549l2.192-3.016.707.392-1.311 3.554c.48.302.95.618 1.41.946l2.545-2.728.654.475-1.736 3.37c.439.358.867.728 1.283 1.11l2.861-2.399.591.551-2.134 3.135c.392.408.772.827 1.14 1.257l3.13-2.033.52.62-2.499 2.85c.238.317.47.64.696.967l3.325-1.693.452.67-2.782 2.571c.29.485.567.98.83 1.482l3.503-1.274.367.72-3.072 2.212c.23.516.443 1.041.642 1.573l3.631-.837.276.76-3.318 1.82c.164.54.312 1.087.444 1.64l3.707-.388.182.787-3.518 1.403c.067.39.127.784.179 1.18h3.73l.099.803-3.65 1.029c.038.56.06 1.126.064 1.695l3.706.457v.808l-3.747.576a29.374 29.374 0 0 1-.141 1.692l3.62.903-.099.803-3.785.115c-.07.393-.148.783-.233 1.17l3.502 1.276-.182.788-3.774-.281a28.735 28.735 0 0 1-.52 1.618l3.32 1.693-.277.76-3.712-.74a28.82 28.82 0 0 1-.72 1.555l3.1 2.054-.36.723-3.616-1.158c-.2.345-.408.685-.622 1.02l2.866 2.363-.435.682-3.47-1.528a29.09 29.09 0 0 1-1.045 1.343l2.552 2.691-.514.624-3.253-1.936c-.252.269-.509.532-.77.79l2.408 3.442-.6.54-3.248-2.652c-.395.34-.8.672-1.214.992l1.97 3.706-.663.463-2.895-3.025a28.99 28.99 0 0 1-1.101.703l1.65 3.709-.693.416-2.642-3.177c-.476.247-.96.48-1.45.702l1.18 3.861-.739.329-2.224-3.459c-.347.13-.696.252-1.05.367l.767 3.948-.769.25-1.844-3.659a28.78 28.78 0 0 1-1.583.358l.278 3.997-.793.154-1.38-3.844c-.37.047-.741.088-1.115.12l-.14 3.995-.806.07-.968-3.957a29.522 29.522 0 0 1-1.05.006l-.96 3.924-.805-.07-.139-3.939c-.382-.03-.762-.067-1.14-.11l-1.357 3.778-.793-.154.272-3.907a28.794 28.794 0 0 1-1.627-.35l-1.794 3.561-.77-.25.742-3.82c-.37-.117-.738-.241-1.102-.373l-2.146 3.337-.739-.329 1.132-3.706a28.828 28.828 0 0 1-1.518-.717l-2.526 3.037-.692-.416 1.569-3.528a28.978 28.978 0 0 1-1.168-.73l-2.748 2.871-.663-.463 1.862-3.504a29.102 29.102 0 0 1-1.295-1.04l-3.058 2.499-.6-.541 2.26-3.23c-.291-.282-.576-.57-.855-.863l-3.02 1.797-.515-.624 2.361-2.489a29.095 29.095 0 0 1-1.123-1.426l-3.201 1.409-.435-.682 2.635-2.173a28.97 28.97 0 0 1-.688-1.114l-3.319 1.062-.36-.723 2.837-1.88c-.276-.545-.536-1.1-.778-1.665l-3.391.675-.277-.76 3.026-1.542a28.735 28.735 0 0 1-.564-1.743l-3.436.256-.182-.788 3.185-1.16c-.096-.429-.183-.86-.26-1.296l-3.441-.105-.099-.803 3.29-.82c-.07-.604-.12-1.213-.152-1.827l-3.406-.524v-.808l3.369-.415a29.15 29.15 0 0 1 .072-1.83l-3.32-.936.098-.802 3.397-.001c.058-.438.125-.872.202-1.303l-3.208-1.28.182-.787 3.384.354c.144-.594.306-1.181.485-1.76l-3.036-1.666.276-.76 3.33.768c.215-.57.448-1.13.697-1.681L30.852 46.1l.367-.72 3.232 1.175c.283-.535.581-1.06.895-1.574l-2.576-2.38.452-.67 3.09 1.572c.246-.353.5-.7.761-1.041l-2.33-2.656.52-.62 2.93 1.902c.391-.45.796-.889 1.213-1.314L37.4 36.828l.59-.55 2.702 2.264c.44-.396.891-.78 1.354-1.148L40.4 34.196l.654-.475 2.427 2.601c.48-.337.972-.66 1.473-.967l-1.256-3.406.707-.392 2.111 2.905a32 32 0 0 1 1.11-.56l-.901-3.547.744-.316 1.812 3.137a28.75 28.75 0 0 1 1.63-.599l-.467-3.67.777-.223 1.432 3.372c.552-.146 1.11-.276 1.675-.39l-.017-3.743.798-.126 1.024 3.565c.559-.076.866-.14 1.435-.183l.445-3.764.808-.028.588 3.708c.139-.002.534 0 .674 0 .253 0 .505.003.757.01l.585-3.688.807.028.446 3.764c.567.05 1.129.117 1.686.2l1.029-3.585zM60 83c12.703 0 23-10.297 23-23S72.703 37 60 37 37 47.297 37 60s10.297 23 23 23z" fill="none"/></g><g fill-opacity=".08"><path d="M30.894 30.863c-2.41-3.876-12.707-22.83-16.29 5.803l-1.667-.114-.263-5.96 1.516-5.586 2.197-4.273 3.025-2.512 3.752-2.516s2.071 2.768 2.071 2.348c0-.42 2.208 4.98 2.208 4.98l2.533 3.61 1.845 3.557z"/><path d="M30.894 31.362c-2.41-3.876-12.707-22.83-16.29 5.802l-1.667-.113-.263-5.96 1.516-5.586 2.197-4.273 3.025-2.512 3.752-2.517s2.071 2.769 2.071 2.349c0-.42 2.208 4.98 2.208 4.98l2.533 3.61 1.845 3.556z"/><path d="M30.944 31.697c-2.41-3.876-12.707-22.83-16.29 5.802l-1.273-.155-.657-5.918 1.517-5.586 2.196-4.273 3.025-2.512 3.752-2.516s2.071 2.768 2.071 2.348c0-.42 2.208 4.98 2.208 4.98l2.533 3.61 1.845 3.556z"/><path d="M30.979 31.91c-2.41-3.876-12.707-22.83-16.29 5.803l-1.307-.368-.623-5.706 1.516-5.586 2.196-4.272 3.026-2.513 3.752-2.516s2.071 2.769 2.071 2.348c0-.42 2.207 4.98 2.207 4.98l2.534 3.611 1.845 3.556z"/><path d="M30.929 32.105c-2.41-3.876-12.707-22.83-16.29 5.802l-.77-.348-1.16-5.725 1.516-5.586 2.196-4.273 3.026-2.512 3.752-2.516s2.071 2.768 2.071 2.348c0-.42 2.207 4.98 2.207 4.98l2.534 3.61 1.845 3.556z"/><path d="M30.894 32.413c-2.41-3.876-12.707-22.83-16.29 5.802l-.735-.657-1.195-5.416 1.516-5.586 2.197-4.273 3.025-2.512 3.752-2.516s2.071 2.768 2.071 2.348c0-.42 2.208 4.98 2.208 4.98l2.533 3.61 1.845 3.556z"/><path d="M30.877 32.694c-2.41-3.876-12.707-22.83-16.29 5.802l-.959-.097-.971-5.976 1.516-5.586 2.196-4.273 3.026-2.512 3.752-2.516s2.071 2.768 2.071 2.348c0-.42 2.207 4.98 2.207 4.98l2.534 3.61 1.845 3.556z"/><path d="M30.867 32.997c-2.41-3.877-12.707-22.831-16.29 5.802l-.82-.291-1.11-5.783 1.517-5.586 2.196-4.272 3.025-2.513 3.752-2.516s2.071 2.769 2.071 2.348c0-.42 2.208 4.98 2.208 4.98l2.533 3.611 1.845 3.556z"/><path d="M30.802 33.22c-2.41-3.877-12.707-22.831-16.29 5.802l.075-.524-2.006-5.55 1.517-5.585 2.196-4.273 3.026-2.512 3.752-2.517s2.07 2.769 2.07 2.349c0-.42 2.208 4.98 2.208 4.98L29.884 29l1.845 3.556z"/><path d="M30.732 33.449c-2.41-3.876-12.706-22.831-16.289 5.802l-.684-.744-1.247-5.33 1.517-5.585 2.196-4.273 3.025-2.512 3.752-2.516s2.072 2.768 2.072 2.348c0-.42 2.207 4.98 2.207 4.98l2.533 3.61 1.845 3.556z"/><path d="M30.784 33.626c-2.41-3.876-12.706-22.83-16.289 5.802l.093-.93-2.024-5.143 1.517-5.586 2.196-4.273 3.025-2.512 3.752-2.516s2.072 2.768 2.072 2.348c0-.42 2.207 4.98 2.207 4.98l2.533 3.61 1.845 3.556z"/><path d="M30.792 33.732c-2.41-3.876-12.707-22.831-16.29 5.802l.076-.736-2.006-5.338 1.517-5.585 2.196-4.273 3.025-2.512 3.752-2.517s2.071 2.769 2.071 2.349c0-.42 2.208 4.98 2.208 4.98l2.533 3.61 1.845 3.556z"/><path d="M30.778 33.87c-2.41-3.876-12.706-22.83-16.289 5.803l.09-.875-2.02-5.199 1.516-5.586 2.196-4.272 3.025-2.513 3.753-2.516s2.07 2.768 2.07 2.348c0-.42 2.208 4.98 2.208 4.98l2.533 3.611 1.846 3.556z"/><path d="M30.75 33.969c-2.41-3.877-12.707-22.831-16.29 5.802l.128-1.274-2.059-4.8 1.517-5.586 2.196-4.272 3.026-2.513 3.752-2.516s2.07 2.769 2.07 2.348c0-.42 2.208 4.98 2.208 4.98l2.534 3.611 1.845 3.556z"/></g><g fill-opacity=".07"><path d="M49.491 31.828c-6.44-16.845-15.624-17.17-24.933-14.35l-.92-2.959c21.195-5.6 22.315 6.316 27.346 14.822z"/><path d="M49.459 31.95C43.017 15.104 33.834 14.78 24.525 17.6l-.92-2.96c21.195-5.6 22.316 6.316 27.346 14.822z"/><path d="M49.434 32.003C42.992 15.16 33.809 14.834 24.5 17.653l-.92-2.958c21.195-5.602 22.316 6.315 27.346 14.821z"/><path d="M49.42 32.084c-6.441-16.845-15.624-17.17-24.933-14.35l-.92-2.958c21.195-5.602 22.315 6.315 27.346 14.82z"/><path d="M49.37 32.188c-6.441-16.845-15.624-17.17-24.933-14.35l-.92-2.959c21.195-5.6 22.315 6.316 27.346 14.822z"/><path d="M49.382 32.327c-6.442-16.845-15.625-17.17-24.934-14.35l-.92-2.959c21.195-5.601 22.316 6.316 27.346 14.821z"/><path d="M49.31 32.41c-6.44-16.845-15.624-17.17-24.933-14.35l-.92-2.96c21.195-5.6 22.315 6.316 27.346 14.822z"/><path d="M49.258 32.494c-6.44-16.844-15.624-17.169-24.933-14.35l-.92-2.958C44.6 9.584 45.72 21.5 50.751 30.006z"/><path d="M49.278 32.61c-6.441-16.845-15.625-17.17-24.934-14.35l-.92-2.959C44.62 9.7 45.74 21.617 50.77 30.122z"/><path d="M49.233 32.69C42.793 15.846 33.61 15.521 24.3 18.34l-.92-2.958c21.195-5.601 22.315 6.315 27.346 14.821z"/><path d="M49.291 32.8C42.85 15.956 33.667 15.631 24.358 18.45l-.92-2.958c21.195-5.602 22.315 6.315 27.346 14.821z"/><path d="M49.24 32.877c-6.442-16.844-15.625-17.169-24.934-14.35l-.92-2.958c21.195-5.602 22.315 6.315 27.346 14.821z"/><path d="M49.241 33.025C42.8 16.181 33.617 15.856 24.308 18.675l-.92-2.958c21.195-5.601 22.315 6.315 27.346 14.821z"/><path d="M49.218 33.13c-6.441-16.845-15.624-17.17-24.933-14.35l-.92-2.96c21.195-5.6 22.315 6.316 27.346 14.822z"/><path d="M49.17 33.203c-6.441-16.845-15.624-17.17-24.933-14.35l-.92-2.959c21.194-5.601 22.315 6.315 27.345 14.821z"/><path d="M49.145 33.33C42.704 16.485 33.52 16.16 24.212 18.98l-.92-2.959c21.194-5.601 22.315 6.316 27.345 14.821z"/><path d="M49.141 33.434c-6.441-16.845-15.624-17.17-24.933-14.35l-.92-2.959c21.195-5.601 22.315 6.315 27.346 14.821z"/><path d="M49.081 33.493c-6.44-16.844-15.624-17.169-24.933-14.35l-.92-2.958c21.195-5.602 22.315 6.315 27.346 14.821z"/><path d="M49.039 33.566c-6.441-16.844-15.624-17.169-24.933-14.35l-.92-2.958c21.194-5.601 22.315 6.315 27.346 14.821z"/><path d="M48.989 33.651c-6.441-16.844-15.624-17.169-24.933-14.35l-.92-2.958C44.33 10.74 45.45 22.658 50.48 31.164z"/><path d="M48.916 33.772c-6.441-16.844-15.624-17.169-24.934-14.35l-.92-2.958c21.195-5.601 22.316 6.315 27.346 14.821z"/><path d="M48.831 33.917c-6.441-16.845-15.624-17.17-24.933-14.35l-.92-2.959c21.195-5.601 22.315 6.316 27.346 14.822z"/><path d="M48.76 34.019c-6.441-16.845-15.624-17.17-24.933-14.35l-.92-2.959C44.1 11.11 45.222 23.026 50.252 31.532z"/></g><g fill="none"><g stroke="#000" stroke-linecap="round" stroke-linejoin="round" stroke-opacity=".03"><path d="m25.11 46.999 7.335-12.903c6.316.022 15.993-.23 17.535 1.543" stroke-width=".510178"/><path d="m25.11 46.999 7.335-12.903c6.316.022 15.993-.23 17.535 1.543" stroke-width=".7700800000000001"/><path d="m25.11 46.999 7.335-12.903c6.316.022 15.993-.23 17.535 1.543" stroke-width=".9626"/><path d="m25.11 46.999 7.335-12.903c6.316.022 15.993-.23 17.535 1.543" stroke-width="1.15512"/><path d="m25.11 46.999 7.335-12.903c6.316.022 15.993-.23 17.535 1.543" stroke-width="1.5401600000000002"/><path d="m25.11 46.999 7.335-12.903c6.316.022 15.993-.23 17.535 1.543" stroke-width="1.9252"/><path d="m25.11 46.999 7.335-12.903c6.316.022 15.993-.23 17.535 1.543" stroke-width="2.1177200000000003"/><path d="m25.11 46.999 7.335-12.903c6.316.022 15.993-.23 17.535 1.543" stroke-width="2.31024"/><path d="m25.11 46.999 7.335-12.903c6.316.022 15.993-.23 17.535 1.543" stroke-width="2.5027600000000003"/><path d="m25.11 46.999 7.335-12.903c6.316.022 15.993-.23 17.535 1.543" stroke-width="2.69528"/><path d="m25.11 46.999 7.335-12.903c6.316.022 15.993-.23 17.535 1.543" stroke-width="2.8878"/><path d="m25.11 46.999 7.335-12.903c6.316.022 15.993-.23 17.535 1.543" stroke-width="2.98406"/><path d="m25.11 46.999 7.335-12.903c6.316.022 15.993-.23 17.535 1.543" stroke-width="3.0803200000000004"/><path d="m25.11 46.999 7.335-12.903c6.316.022 15.993-.23 17.535 1.543" stroke-width="3.1919816"/><path d="m25.11 46.999 7.335-12.903c6.316.022 15.993-.23 17.535 1.543" stroke-width="3.27284"/><path d="m25.11 46.999 7.335-12.903c6.316.022 15.993-.23 17.535 1.543" stroke-width="3.46536"/><path d="m25.11 46.999 7.335-12.903c6.316.022 15.993-.23 17.535 1.543" stroke-width="3.56162"/><path d="m25.11 46.999 7.335-12.903c6.316.022 15.993-.23 17.535 1.543" stroke-width="3.65788"/><path d="m25.11 46.999 7.335-12.903c6.316.022 15.993-.23 17.535 1.543" stroke-width="3.75414"/><path d="m25.11 46.999 7.335-12.903c6.316.022 15.993-.23 17.535 1.543" stroke-width="3.8504"/><path d="m25.11 46.999 7.335-12.903c6.316.022 15.993-.23 17.535 1.543" stroke-width="4.0429200000000005"/><path d="m25.11 46.999 7.335-12.903c6.316.022 15.993-.23 17.535 1.543" stroke-width="4.2354400000000005"/><path d="m25.11 46.999 7.335-12.903c6.316.022 15.993-.23 17.535 1.543" stroke-width="4.42796"/><path d="m25.11 46.999 7.335-12.903c6.316.022 15.993-.23 17.535 1.543" stroke-width="4.62048"/><path d="m25.11 46.999 7.335-12.903c6.316.022 15.993-.23 17.535 1.543" stroke-width="4.813"/><path d="m25.11 46.999 7.335-12.903c6.316.022 15.993-.23 17.535 1.543" stroke-width="5.005520000000001"/></g><path d="m25.11 46.999 7.335-12.903c6.316.022 15.993-.23 17.535 1.543"/><g stroke="#000" stroke-linecap="round" stroke-linejoin="round" stroke-opacity=".03"><path d="m25.11 46.999 7.335-12.903c6.316.022 15.993-.23 17.535 1.543" stroke-width="5.39056"/><path d="m25.11 46.999 7.335-12.903c6.316.022 15.993-.23 17.535 1.543" stroke-width="5.7756"/><path d="m25.11 46.999 7.335-12.903c6.316.022 15.993-.23 17.535 1.543" stroke-width="6.160640000000001"/><path d="m25.11 46.999 7.335-12.903c6.316.022 15.993-.23 17.535 1.543" stroke-width="6.54568"/><path d="m25.11 46.999 7.335-12.903c6.316.022 15.993-.23 17.535 1.543" stroke-width="6.93072"/><path d="m25.11 46.999 7.335-12.903c6.316.022 15.993-.23 17.535 1.543" stroke-width="7.31576"/><path d="m25.11 46.999 7.335-12.903c6.316.022 15.993-.23 17.535 1.543" stroke-width="7.7008"/></g></g><g stroke-width="3.78"><path d="M32.082 8.096A23.904 23.904 0 0 0 8.178 32a23.904 23.904 0 0 0 23.904 23.904A23.904 23.904 0 0 0 55.986 32 23.904 23.904 0 0 0 32.082 8.096zm0 5.15A18.754 18.754 0 0 1 50.836 32a18.754 18.754 0 0 1-18.754 18.755A18.754 18.754 0 0 1 13.327 32a18.754 18.754 0 0 1 18.755-18.755z" fill="url(#k)"/><path d="M32.082 9.75C18.88 9.75 8.178 20.452 8.178 33.654S18.88 57.558 32.082 57.558s23.904-10.702 23.904-23.904S45.284 9.75 32.082 9.75zm0 5.15c10.358 0 18.754 8.397 18.754 18.755 0 10.358-8.68 16.378-19.037 16.378-10.358 0-18.471-6.02-18.471-16.378S21.725 14.9 32.083 14.9z" fill="url(#l)"/><path d="m30.98 10.065-.539.018-.298 2.511c-.379.03-.583.072-.956.123l-.683-2.38-.533.085.011 2.498c-.377.076-.749.163-1.117.26l-.956-2.25-.518.149.31 2.448c-.367.123-.73.257-1.087.4l-1.209-2.093-.496.211.601 2.367a19.257 19.257 0 0 0-.74.373l-1.409-1.938-.472.261.84 2.272c-.336.206-.664.422-.985.646l-1.62-1.735-.435.317 1.098 2.134a19.431 19.431 0 0 0-.903.766l-1.802-1.512-.394.368 1.338 1.967a19.443 19.443 0 0 0-.809.876l-1.955-1.269-.347.414 1.554 1.771a20.4 20.4 0 0 0-.507.695l-2.062-1.05-.301.448 1.718 1.588a19.3 19.3 0 0 0-.597 1.051l-2.156-.785-.245.481 1.885 1.357c-.166.369-.321.742-.465 1.122l-2.222-.512-.184.507 2.026 1.111a19.178 19.178 0 0 0-.324 1.175l-2.258-.236-.121.525 2.14.854c-.051.288-.096.578-.135.87h-2.267l-.065.535 2.215.626a19.592 19.592 0 0 0-.048 1.22l-2.247.277v.54l2.273.349c.02.409.054.816.1 1.218l-2.194.549.065.534 2.297.07a19.227 19.227 0 0 0 .173.866l-2.126.773.122.526 2.293-.17a19.174 19.174 0 0 0 .376 1.163L11.61 39.43l.185.507 2.262-.45c.162.377.335.747.52 1.111l-1.894 1.254.242.483 2.213-.71a19.331 19.331 0 0 0 .46.744l-1.758 1.45.29.455 2.136-.94a19.414 19.414 0 0 0 .75.951l-1.576 1.661.343.416 2.015-1.199a19.448 19.448 0 0 0 .571.577l-1.509 2.154.401.361 2.04-1.667a19.419 19.419 0 0 0 .865.694l-1.242 2.338.442.31 1.834-1.916a19.336 19.336 0 0 0 .779.487l-1.048 2.353.463.279 1.685-2.027a19.236 19.236 0 0 0 1.013.479l-.755 2.473.493.218 1.432-2.226a19.177 19.177 0 0 0 .735.25l-.494 2.549.513.167 1.197-2.377a19.213 19.213 0 0 0 1.085.233l-.182 2.607.53.103.906-2.521a19.41 19.41 0 0 0 .76.073l.093 2.629.537.047.64-2.618a19.7 19.7 0 0 0 .702-.005l.646 2.64.537-.046.094-2.665c.25-.022.497-.05.743-.08l.921 2.564.53-.103-.186-2.667c.356-.07.708-.15 1.056-.239l1.231 2.442.513-.166-.511-2.635a19.178 19.178 0 0 0 .7-.245l1.484 2.308.492-.22-.786-2.576c.327-.147.65-.304.967-.469l1.762 2.12.464-.277-1.102-2.475c.249-.15.494-.307.735-.468l1.932 2.018.442-.31-1.314-2.473c.277-.214.547-.434.81-.661l2.167 1.77.4-.361-1.606-2.297c.174-.172.346-.347.513-.526l2.171 1.291.343-.416-1.703-1.796a19.411 19.411 0 0 0 .697-.896l2.316 1.02.29-.455-1.912-1.578a19.327 19.327 0 0 0 .415-.68l2.413.773.24-.483-2.068-1.37a19.231 19.231 0 0 0 .48-1.037l2.477.492.184-.506-2.214-1.13a19.174 19.174 0 0 0 .347-1.08l2.518.188.121-.526-2.337-.851a19.229 19.229 0 0 0 .156-.78l2.525-.078.066-.535-2.416-.604a19.448 19.448 0 0 0 .095-1.128l2.5-.385V32l-2.472-.304a19.57 19.57 0 0 0-.043-1.131l2.435-.687-.066-.535-2.489-.001a20.041 20.041 0 0 0-.12-.787l2.348-.936-.12-.526-2.474.259a19.339 19.339 0 0 0-.297-1.094l2.214-1.215-.184-.506-2.423.558a19.304 19.304 0 0 0-.428-1.05l2.05-1.476-.245-.48-2.338.85a19.09 19.09 0 0 0-.554-.989l1.857-1.716-.302-.447-2.219 1.13a19.94 19.94 0 0 0-.464-.646l1.668-1.901-.347-.413-2.09 1.355a19.442 19.442 0 0 0-.76-.838l1.425-2.092-.395-.368-1.909 1.602a19.434 19.434 0 0 0-.856-.741l1.158-2.25-.436-.316-1.699 1.82c-.307-.22-.62-.43-.94-.63l.875-2.373-.472-.261-1.462 2.012a18.446 18.446 0 0 0-.708-.366l.621-2.448-.496-.21-1.243 2.152a19.16 19.16 0 0 0-1.06-.404l.319-2.504-.52-.15-.97 2.29c-.364-.1-.732-.191-1.103-.27l.012-2.527-.533-.084-.687 2.392c-.371-.055-.746-.1-1.125-.134l-.297-2.511-.539-.019-.39 2.461a21.173 21.173 0 0 0-.505-.007h-.45zm.843 5.394c7.156 0 13.27 4.46 15.716 10.753.432 1.205.648 2.018.648 2.438 0 1.124-.675 2.472-4.27 2.472h-8.963c-1.379 0-1.9-.136-2.263-.363-.27-.169-.736-.736-1.008-1.219l-.259-.505-.027-.06-4.63-7.705c-1.852-3.082-1.043-4.354-.08-4.933.162-.097.415-.199.758-.303a16.877 16.877 0 0 1 4.378-.574zm-10.245 4.257c.881-.016 1.989.592 3.262 2.71l4.45 7.407c.49.9.735 1.65.735 2.256 0 .75-.3 1.723-.9 2.922l.045-.054-4.33 7.208c-1.852 3.082-3.354 2.966-4.317 2.388-.385-.232-1.283-1.044-2.184-2.162l.413.566a16.785 16.785 0 0 1-3.784-10.643 16.78 16.78 0 0 1 3.388-10.134c.896-1.107 1.784-1.91 2.167-2.14.301-.181.655-.317 1.055-.324zm10.219 11.57a1.057 1.057 0 0 1 1.057 1.058 1.057 1.057 0 0 1-1.057 1.057 1.057 1.057 0 0 1-1.058-1.057 1.057 1.057 0 0 1 1.058-1.057zm3.167 2.083h8.951c3.596 0 4.27 1.349 4.27 2.472 0 .252-.073.736-.225 1.35-2.091 6.93-8.525 11.977-16.138 11.977a16.967 16.967 0 0 1-2.838-.237c-1.184-.24-1.95-.466-2.298-.675-.952-.572-1.749-1.827.025-4.836l4.662-7.736c.722-1.25.944-1.545 1.348-1.797.404-.253.922-.518 2.243-.518z" fill="url(#m)" fill-rule="evenodd"/></g><g stroke-linecap="round" stroke-linejoin="round" color="#000"><path d="m31.11 10.173-.54.018-.297 2.511c-.38.03-.584.072-.957.123l-.683-2.379-.532.084.011 2.498c-.377.076-.749.163-1.117.26l-.956-2.25-.518.149.31 2.448c-.367.123-.73.257-1.087.4l-1.209-2.093-.496.211.601 2.367a19.256 19.256 0 0 0-.74.373l-1.409-1.938-.472.261.84 2.272c-.335.206-.664.422-.985.646l-1.62-1.735-.435.317 1.099 2.134a19.43 19.43 0 0 0-.904.766l-1.802-1.511-.394.368 1.338 1.966a19.443 19.443 0 0 0-.809.876l-1.955-1.268-.346.413 1.553 1.771c-.174.228-.342.46-.507.696l-2.062-1.05-.301.447 1.719 1.588a19.299 19.299 0 0 0-.597 1.051l-2.157-.785-.245.482 1.886 1.357c-.167.368-.322.742-.466 1.121l-2.221-.512-.185.507 2.026 1.112a19.178 19.178 0 0 0-.324 1.174l-2.257-.236-.122.525 2.14.854c-.05.288-.096.578-.135.87h-2.266l-.066.535 2.216.625a19.591 19.591 0 0 0-.049 1.22l-2.247.278v.539l2.273.35c.021.409.054.816.1 1.218l-2.194.548.065.535 2.298.07a19.228 19.228 0 0 0 .172.866l-2.126.773.122.526 2.293-.17a19.173 19.173 0 0 0 .377 1.163l-2.02 1.029.185.507 2.262-.45c.162.376.336.747.52 1.111l-1.894 1.254.242.482 2.214-.709a19.331 19.331 0 0 0 .459.744l-1.758 1.45.29.454 2.136-.939a19.413 19.413 0 0 0 .75.95l-1.576 1.662.343.416 2.016-1.2a19.448 19.448 0 0 0 .57.577l-1.509 2.155.401.36 2.04-1.667a19.42 19.42 0 0 0 .865.695l-1.242 2.337.442.31 1.834-1.916a19.336 19.336 0 0 0 .779.487L21.06 50.96l.462.279 1.686-2.027a19.236 19.236 0 0 0 1.012.48l-.755 2.472.493.218 1.432-2.226a19.177 19.177 0 0 0 .735.25l-.494 2.549.513.167 1.197-2.377a19.212 19.212 0 0 0 1.085.233l-.181 2.607.529.103.906-2.521a19.41 19.41 0 0 0 .76.074l.093 2.628.537.047.64-2.618a19.7 19.7 0 0 0 .702-.005l.646 2.64.537-.046.094-2.665c.25-.022.497-.05.743-.08l.921 2.564.53-.103-.186-2.667c.356-.07.708-.15 1.056-.239l1.231 2.442.513-.167-.511-2.634a19.178 19.178 0 0 0 .7-.245l1.484 2.308.492-.22-.786-2.576c.327-.147.65-.304.967-.469l1.762 2.12.463-.277-1.101-2.475c.249-.15.493-.307.734-.468l1.932 2.018.443-.31-1.314-2.473c.276-.214.546-.434.81-.661l2.167 1.77.4-.361-1.607-2.297c.175-.172.346-.347.514-.526l2.17 1.291.344-.416-1.704-1.796a19.411 19.411 0 0 0 .698-.896l2.316 1.02.29-.455-1.912-1.578a19.326 19.326 0 0 0 .415-.68l2.412.773.24-.483-2.067-1.37a19.231 19.231 0 0 0 .48-1.037l2.477.492.183-.506-2.214-1.13a19.173 19.173 0 0 0 .347-1.08l2.519.188.12-.526-2.336-.851a19.23 19.23 0 0 0 .155-.78l2.526-.078.066-.535-2.416-.603a19.448 19.448 0 0 0 .095-1.128l2.5-.386v-.539l-2.473-.304c-.003-.38-.017-.757-.042-1.13l2.434-.688-.066-.535h-2.488a19.719 19.719 0 0 0-.12-.787l2.348-.937-.122-.526-2.472.26a19.302 19.302 0 0 0-.297-1.095l2.214-1.214-.185-.507-2.422.558a19.302 19.302 0 0 0-.429-1.05l2.05-1.475-.245-.48-2.338.85c-.175-.336-.36-.665-.554-.99l1.857-1.715-.302-.447-2.218 1.13c-.15-.219-.305-.434-.465-.646l1.668-1.902-.346-.412-2.09 1.355a19.442 19.442 0 0 0-.76-.838l1.424-2.092-.395-.368-1.908 1.601a19.435 19.435 0 0 0-.856-.74l1.158-2.25-.437-.317-1.698 1.821c-.307-.22-.621-.43-.941-.631l.876-2.372-.472-.262-1.463 2.012a18.428 18.428 0 0 0-.707-.365l.621-2.448-.496-.21-1.244 2.152c-.349-.145-.702-.28-1.06-.404l.32-2.505-.52-.149-.971 2.29c-.363-.1-.731-.191-1.102-.27l.011-2.527-.532-.084-.687 2.392c-.372-.055-.747-.1-1.125-.134l-.297-2.511-.539-.019-.39 2.46a20.948 20.948 0 0 0-.505-.006h-.45zm.843 5.394c7.156 0 13.27 4.46 15.715 10.753.432 1.204.648 2.017.648 2.437 0 1.124-.674 2.472-4.27 2.472h-8.962c-1.379 0-1.9-.136-2.263-.363-.27-.169-.736-.736-1.008-1.218l-.259-.505c-.01-.02-.02-.04-.027-.06l-4.63-7.705c-1.852-3.082-1.043-4.355-.08-4.934.162-.097.414-.198.758-.303a16.877 16.877 0 0 1 4.378-.574zm-10.245 4.257c.882-.016 1.99.592 3.262 2.71l4.45 7.407c.49.9.735 1.65.735 2.256 0 .75-.3 1.722-.9 2.921l.046-.053-4.33 7.208c-1.852 3.081-3.355 2.966-4.318 2.387-.385-.232-1.283-1.044-2.184-2.162l.414.566a16.785 16.785 0 0 1-3.785-10.642 16.78 16.78 0 0 1 3.389-10.134c.895-1.107 1.784-1.91 2.166-2.14.301-.181.655-.317 1.055-.324zm10.22 11.57a1.057 1.057 0 0 1 1.056 1.057 1.057 1.057 0 0 1-1.057 1.058 1.057 1.057 0 0 1-1.058-1.058 1.057 1.057 0 0 1 1.058-1.056zm3.166 2.083h8.952c3.595 0 4.27 1.348 4.27 2.472 0 .251-.074.735-.225 1.35-2.092 6.93-8.526 11.977-16.138 11.977a16.967 16.967 0 0 1-2.838-.237c-1.184-.241-1.95-.466-2.299-.675-.952-.573-1.748-1.827.026-4.836l4.661-7.736c.722-1.25.944-1.545 1.348-1.797.404-.253.922-.518 2.243-.518z" fill="none"/><path d="m30.979 10.065-.479.017a.17.17 0 0 0-.067.061l-.29 2.451c-.38.03-.585.072-.958.123l-.683-2.379-.471.075a.17.17 0 0 0-.061.07l.011 2.437a19.59 19.59 0 0 0-1.117.26l-.956-2.25-.46.132a.17.17 0 0 0-.05.078l.302 2.387c-.367.123-.73.257-1.087.4l-1.209-2.093-.448.19a.17.17 0 0 0-.035.074l.588 2.314a19.256 19.256 0 0 0-.74.373l-1.409-1.938-.43.239a.17.17 0 0 0-.025.068l.822 2.226c-.334.206-.663.422-.984.646l-1.62-1.735-.408.297a.17.17 0 0 0-.012.049l1.084 2.105a19.43 19.43 0 0 0-.904.766l-1.802-1.512-.38.356a.17.17 0 0 0-.004.027l1.328 1.952a19.443 19.443 0 0 0-.809.876l-1.955-1.269-.345.413a.17.17 0 0 0 0 .001l1.552 1.771c-.173.228-.342.46-.507.695l-2.048-1.043a.17.17 0 0 0-.023.007l-.292.434 1.719 1.588a19.299 19.299 0 0 0-.597 1.05l-2.126-.772a.17.17 0 0 0-.046.018l-.23.451 1.886 1.357c-.167.368-.322.742-.466 1.122l-2.178-.503a.17.17 0 0 0-.058.032l-.17.466 2.026 1.111a19.178 19.178 0 0 0-.324 1.175l-2.204-.231a.17.17 0 0 0-.066.048l-.108.471 2.14.855c-.052.287-.097.577-.136.87h-2.208a.17.17 0 0 0-.065.06l-.059.475 2.216.625a19.591 19.591 0 0 0-.049 1.22l-2.185.27a.17.17 0 0 0-.062.068v.479l2.273.349c.02.41.054.816.1 1.218l-2.134.534a.17.17 0 0 0-.052.077l.057.473 2.297.07a19.227 19.227 0 0 0 .173.865l-2.072.754a.17.17 0 0 0-.04.077l.108.468 2.293-.17a19.174 19.174 0 0 0 .377 1.163l-1.975 1.007a.17.17 0 0 0-.028.069l.168.46 2.262-.45c.162.377.336.747.52 1.111l-1.86 1.232a.17.17 0 0 0-.016.058l.224.447 2.214-.71a19.33 19.33 0 0 0 .459.744L13.859 43.8a.17.17 0 0 0-.007.04l.276.432 2.136-.94a19.413 19.413 0 0 0 .75.951l-.095.1-1.473 1.553a.17.17 0 0 0-.001.017l.336.407 2.016-1.199a19.447 19.447 0 0 0 .57.577l-1.509 2.154.401.36 2.04-1.666a19.419 19.419 0 0 0 .865.694l-1.242 2.338.442.31 1.448-1.513-1.338 1.397-.203-.14 1.171-2.203a.17.17 0 0 0-.046-.215 19.24 19.24 0 0 1-.856-.69.17.17 0 0 0-.219 0l-1.927 1.572-.18-.162 1.423-2.03a.17.17 0 0 0-.022-.22 19.24 19.24 0 0 1-.565-.57.17.17 0 0 0-.209-.03l-1.89 1.124-.157-.189 1.473-1.55a.17.17 0 0 0 .007-.228c-.257-.307-.505-.62-.743-.942a.17.17 0 0 0-.206-.054l-2 .88-.133-.206 1.642-1.353a.17.17 0 0 0 .033-.223 19.092 19.092 0 0 1-.455-.737.17.17 0 0 0-.198-.076l-2.074.664-.11-.216 1.769-1.171a.17.17 0 0 0 .057-.219 19.337 19.337 0 0 1-.515-1.102.17.17 0 0 0-.19-.099l-2.12.422-.082-.23 1.884-.962a.17.17 0 0 0 .084-.209c-.137-.38-.26-.763-.372-1.151a.17.17 0 0 0-.176-.123l-2.146.16-.057-.236 1.984-.723a.17.17 0 0 0 .11-.196 19.132 19.132 0 0 1-.173-.86.17.17 0 0 0-.162-.139l-2.15-.066-.03-.242 2.047-.512a.17.17 0 0 0 .13-.181 19.244 19.244 0 0 1-.1-1.208.17.17 0 0 0-.147-.16l-2.126-.328v-.243l2.097-.258a.17.17 0 0 0 .149-.169c.003-.404.018-.805.046-1.208a.17.17 0 0 0-.123-.175l-2.073-.588.03-.238 2.117-.004a.17.17 0 0 0 .166-.147c.038-.29.085-.576.136-.862a.17.17 0 0 0-.106-.19l-2.004-.799.056-.235 2.107.22a.17.17 0 0 0 .182-.127c.095-.391.203-.78.322-1.165a.17.17 0 0 0-.08-.198l-1.9-1.042.085-.23 2.075.478a.17.17 0 0 0 .195-.106c.143-.377.296-.747.461-1.111a.17.17 0 0 0-.053-.21l-1.768-1.27.11-.216 2.017.733a.17.17 0 0 0 .209-.082c.186-.353.382-.698.59-1.039a.17.17 0 0 0-.03-.215l-1.612-1.49.136-.203 1.928.982a.17.17 0 0 0 .215-.052c.163-.234.332-.464.504-.69a.17.17 0 0 0-.007-.216l-1.456-1.663.156-.185 1.828 1.188a.17.17 0 0 0 .22-.034c.258-.297.526-.584.802-.865a.17.17 0 0 0 .02-.216l-1.258-1.845.18-.166 1.685 1.414a.17.17 0 0 0 .226-.004c.29-.262.586-.516.892-.76a.17.17 0 0 0 .046-.209l-1.03-2.006.195-.143 1.516 1.625a.17.17 0 0 0 .222.023c.318-.223.643-.436.975-.64a.17.17 0 0 0 .074-.203l-.79-2.136.212-.116 1.32 1.815a.17.17 0 0 0 .216.05c.243-.13.49-.25.737-.368a.17.17 0 0 0 .09-.196l-.565-2.226.223-.093 1.134 1.96a.17.17 0 0 0 .209.074c.355-.143.715-.274 1.079-.395a.17.17 0 0 0 .116-.183l-.293-2.306.233-.066.895 2.113a.17.17 0 0 0 .203.097c.365-.097.735-.184 1.108-.26a.17.17 0 0 0 .136-.165l-.013-2.353.242-.04.641 2.236a.17.17 0 0 0 .185.123c.377-.051.577-.094.95-.123a.17.17 0 0 0 .155-.149l.279-2.365.242-.007.371 2.323a.17.17 0 0 0 .17.142h.447c.167 0 .334.003.502.007a.17.17 0 0 0 .172-.143l.365-2.312.246.01.279 2.365a.17.17 0 0 0 .152.15c.375.033.746.078 1.114.132a.17.17 0 0 0 .19-.123l.647-2.245.239.036-.01 2.382a.17.17 0 0 0 .133.166c.367.079.73.17 1.09.269a.17.17 0 0 0 .204-.096l.912-2.153.235.07-.302 2.358a.17.17 0 0 0 .113.182c.356.124.706.256 1.052.399a.17.17 0 0 0 .212-.07l1.168-2.024.225.096-.587 2.306a.17.17 0 0 0 .09.196c.236.116.47.236.7.361a.17.17 0 0 0 .219-.05l1.377-1.89.212.119-.826 2.233a.17.17 0 0 0 .07.202c.317.2.628.41.932.628a.17.17 0 0 0 .222-.024l1.596-1.708.196.142-1.088 2.117a.17.17 0 0 0 .043.212c.29.236.57.48.846.734a.17.17 0 0 0 .226.003l1.794-1.503.177.165-1.34 1.971a.17.17 0 0 0 .016.216c.26.27.51.545.753.83a.17.17 0 0 0 .222.033l1.964-1.275.156.187.094-.107-.347-.412-2.089 1.355a19.441 19.441 0 0 0-.761-.838l1.425-2.092-.395-.368-1.909 1.601a19.434 19.434 0 0 0-.856-.74l1.158-2.25-.436-.316-1.699 1.82a19.29 19.29 0 0 0-.94-.631l.875-2.372-.465-.258a.17.17 0 0 0-.011.003l-1.458 2.006a18.43 18.43 0 0 0-.708-.366l.622-2.448-.472-.2a.17.17 0 0 0-.037.012l-1.231 2.13c-.349-.145-.702-.28-1.06-.404l.319-2.504-.482-.14a.17.17 0 0 0-.052.026l-.957 2.254c-.363-.1-.73-.191-1.101-.27l.011-2.527-.48-.076a.17.17 0 0 0-.068.043l-.671 2.34c-.372-.054-.747-.099-1.126-.133l-.296-2.511-.481-.017a.17.17 0 0 0-.067.055l-.382 2.404a20.937 20.937 0 0 0-.505-.007h-.449zm17.88 8.41-1.573 1.792a.17.17 0 0 0 0 .003zM31.95 15.398a17.052 17.052 0 0 0-4.422.58.17.17 0 0 0-.004 0c-.35.107-.612.212-.796.322a.17.17 0 0 0-.003 0 2.47 2.47 0 0 0-.545.438c.152-.162.326-.293.504-.4.163-.098.415-.2.759-.304a16.877 16.877 0 0 1 4.377-.574c7.156 0 13.271 4.46 15.716 10.753.432 1.204.648 2.017.648 2.438 0 .355-.069.733-.275 1.084a1.691 1.691 0 0 1-.289.375l-.002.003c-.571.578-1.67 1.01-3.704 1.01h-8.962c-1.379 0-1.9-.137-2.263-.364-.27-.168-.736-.736-1.008-1.218l-.259-.505-.027-.06-4.63-7.705c-1.386-2.308-1.281-3.6-.737-4.347-.2.272-.349.61-.398 1.028-.097.832.182 1.954 1.119 3.513l4.631 7.704.02.047a.17.17 0 0 0 0 .007l.26.504a.17.17 0 0 0 .003.007 5.4 5.4 0 0 0 .524.75c.19.23.37.42.54.527.4.25.966.388 2.356.388h8.961c1.819 0 2.925-.337 3.587-.849.662-.512.852-1.196.852-1.791 0-.479-.222-1.285-.656-2.495a.17.17 0 0 0-.004-.004c-2.47-6.356-8.646-10.862-15.872-10.862zm-10.248 4.257a2.277 2.277 0 0 0-1.138.348c-.433.26-1.309 1.062-2.213 2.18a.17.17 0 0 0-.003.003 16.945 16.945 0 0 0-3.42 10.235c0 3.787 1.332 7.222 3.423 10.05a.17.17 0 0 0-.02.128l.003.007c.003.004.005.003.007.007l.402.55.007.01a.17.17 0 0 0 .192.034c.628.682 1.305 1.409 1.622 1.6.51.306 1.195.496 1.974.192.78-.305 1.638-1.08 2.575-2.638l4.316-7.186.017-.024a.17.17 0 0 0 .003-.099c.55-1.134.873-2.097.873-2.854 0-.65-.256-1.425-.753-2.338a.17.17 0 0 0-.004-.007l-4.452-7.406c-1.288-2.143-2.449-2.81-3.41-2.793zm-.126.062c.881-.016 1.989.592 3.262 2.71l4.45 7.407c.49.9.734 1.65.734 2.256 0 .75-.3 1.723-.898 2.921l.044-.053-4.33 7.207c-.233.387-.46.724-.681 1.015a7.758 7.758 0 0 1-.319.394c-1.394 1.613-2.534 1.45-3.317.98-.385-.233-1.283-1.045-2.184-2.163l.413.566a16.785 16.785 0 0 1-3.784-10.643 16.78 16.78 0 0 1 3.389-10.133c.895-1.107 1.783-1.91 2.166-2.14.3-.181.655-.317 1.055-.324zm28.39.071-2.218 1.13c-.15-.218-.304-.434-.463-.645a.17.17 0 0 0-.006.208c.157.21.311.423.46.64a.17.17 0 0 0 .216.057l2.084-1.063.136.203-1.748 1.615a.17.17 0 0 0-.001.005l1.842-1.703zm-1.544 2.18a.17.17 0 0 0-.025.178c.192.32.373.646.547.979a.17.17 0 0 0 .209.083l2.196-.8.113.215-1.934 1.39a.17.17 0 0 0-.004.014l2.024-1.457-.245-.48-2.337.85c-.173-.33-.354-.653-.545-.972zm1.09 2.109a.17.17 0 0 0-.037.146c.151.341.293.686.425 1.038a.17.17 0 0 0 .196.106l2.275-.524.083.23-2.086 1.144a.17.17 0 0 0-.008.02l2.174-1.194-.184-.506-2.423.558a19.31 19.31 0 0 0-.415-1.018zm.82 2.227a.17.17 0 0 0-.044.112c.108.357.207.719.295 1.085a.17.17 0 0 0 .182.13l2.323-.246.056.238-2.213.883a.17.17 0 0 0-.016.03l2.296-.917-.121-.526-2.473.26c-.085-.354-.18-.703-.284-1.049zm.54 2.306a.17.17 0 0 0-.047.082c.045.258.085.518.12.78a.17.17 0 0 0 .169.148h2.34l.029.243-2.296.647a.17.17 0 0 0-.028.04l2.378-.672-.065-.535h-2.489c-.032-.246-.07-.49-.111-.733zm.234 2.014a.17.17 0 0 0-.042.059c.024.37.04.744.043 1.12a.17.17 0 0 0 .146.17l2.326.285v.243l-2.355.365a.17.17 0 0 0-.046.05l2.44-.377V32l-2.473-.304c-.003-.36-.017-.717-.04-1.072zm-19.182.603c-.442 0-.828.237-1.044.588a1.057 1.057 0 0 1 .915-.528 1.057 1.057 0 0 1 1.057 1.057 1.057 1.057 0 0 1-.175.576.881.881 0 0 1-.043.063 1.057 1.057 0 0 1-.06.072.887.887 0 0 1-.046.046 1.057 1.057 0 0 1-.733.301 1.057 1.057 0 0 1-1.058-1.058 1.057 1.057 0 0 1 .141-.526c-.113.185-.181.4-.181.633a1.23 1.23 0 0 0 1.227 1.228 1.23 1.23 0 0 0 1.228-1.228c0-.676-.553-1.224-1.228-1.224zm19.189 1.758a.17.17 0 0 0-.036.04c-.02.373-.05.746-.093 1.118a.17.17 0 0 0 .13.183l2.269.567-.03.242-2.383.073a.17.17 0 0 0-.066.059l2.469-.076.066-.535-2.416-.603a19.447 19.447 0 0 0 .09-1.068zm-16.02.322c-1.345 0-1.92.285-2.333.544-.112.07-.215.15-.317.245a1.8 1.8 0 0 1 .276-.208c.404-.253.921-.518 2.242-.518h8.952c3.595 0 4.27 1.348 4.27 2.472 0 .251-.074.735-.225 1.35-2.092 6.93-8.525 11.976-16.138 11.976a16.966 16.966 0 0 1-2.838-.237c-1.184-.24-1.95-.466-2.298-.675-.952-.572-1.75-1.826.025-4.836l4.661-7.735c.318-.55.53-.895.712-1.153-.19.268-.408.62-.73 1.177l-4.657 7.733a.17.17 0 0 0-.003 0c-.898 1.523-1.159 2.624-1.055 3.44.103.817.583 1.322 1.088 1.626a.17.17 0 0 0 .003 0c.396.238 1.159.455 2.349.697a.17.17 0 0 0 .007 0c.947.16 1.905.243 2.866.242 7.688 0 14.187-5.099 16.3-12.1a.17.17 0 0 0 .004-.007c.153-.622.229-1.104.229-1.39 0-.595-.19-1.282-.852-1.794-.663-.512-1.768-.85-3.587-.85zm15.743 2.018a.17.17 0 0 0-.025.022c-.046.26-.1.517-.156.774a.17.17 0 0 0 .11.195l2.192.8-.052.239-2.372-.18a.17.17 0 0 0-.096.067l2.47.184.122-.526-2.337-.851a19.228 19.228 0 0 0 .144-.724zm-.462 1.96a.17.17 0 0 0-.017.013c-.104.36-.22.718-.345 1.072a.17.17 0 0 0 .083.209l2.08 1.058-.083.23-2.332-.465a.17.17 0 0 0-.125.068l2.438.484.183-.506-2.214-1.13a19.173 19.173 0 0 0 .332-1.032zm-.797 2.215a.17.17 0 0 0-.007.005c-.148.347-.309.687-.478 1.025a.17.17 0 0 0 .06.219l1.941 1.287-.106.219-2.275-.73a.17.17 0 0 0-.158.06l2.389.766.24-.482-2.068-1.37a19.23 19.23 0 0 0 .462-.999zm-1.06 2.1a.17.17 0 0 0-.001 0c-.133.228-.27.453-.412.675a.17.17 0 0 0 .033.222l1.795 1.483-.13.206-2.183-.962a.17.17 0 0 0-.19.052l2.309 1.015.29-.454-1.913-1.578a19.326 19.326 0 0 0 .403-.659zm-1.1 1.68a.17.17 0 0 0-.003 0c-.222.303-.45.597-.69.886a.17.17 0 0 0 0 .002 19.41 19.41 0 0 0 .693-.889zm-.693.888a.17.17 0 0 0 .006.223l1.602 1.689.096-.116zm-.594.884a.17.17 0 0 0-.21.03l-.006.006 2.17 1.292.182-.22-.09.106zm-.235.057c-.158.167-.321.331-.485.493a.17.17 0 0 0 0 .004c.164-.163.326-.329.485-.497zm-.487.517a.17.17 0 0 0-.018.195l1.523 2.174-.183.162-2.053-1.679a.17.17 0 0 0-.22.004c-.26.225-.528.444-.802.656a.17.17 0 0 0 0 .006c.267-.207.53-.42.785-.641l2.166 1.77.4-.361zm-1.764 1.564a.17.17 0 0 0-.035.16l1.244 2.34-.2.142-1.83-1.913a.17.17 0 0 0-.22-.024c-.239.16-.48.315-.726.464a.17.17 0 0 0-.005.013 18.8 18.8 0 0 0 .697-.444l1.933 2.018.442-.31zm-22.225.788a.17.17 0 0 0-.215.027l-.008.007a19.336 19.336 0 0 0 .78.488l-1.048 2.353.462.278.093-.11-.21-.127.986-2.216a.17.17 0 0 0-.066-.215c-.261-.155-.52-.318-.774-.485zm20.433.46a.17.17 0 0 0-.042.137l1.039 2.336-.21.126-1.668-2.007a.17.17 0 0 0-.209-.043 19.17 19.17 0 0 1-.958.464.17.17 0 0 0-.011.023c.31-.14.617-.288.918-.445l1.762 2.12.463-.277zm-18.568.622a.17.17 0 0 0-.209.043l-1.467 1.767 1.468-1.766a19.236 19.236 0 0 0 1.012.48l-.755 2.473.494.218 1.422-2.211a.17.17 0 0 0-.004 0l-1.353 2.104-.222-.1.71-2.325a.17.17 0 0 0-.093-.206c-.34-.148-.673-.31-1.003-.477zm16.476.489a.17.17 0 0 0-.05.108l.743 2.432-.222.1L38.83 50a.17.17 0 0 0-.202-.066 19 19 0 0 1-.694.242.17.17 0 0 0-.02.033 19.178 19.178 0 0 0 .642-.225l1.484 2.308.493-.22zm-14.312.45a.17.17 0 0 0-.172.056 19.176 19.176 0 0 0 .718.243l-.494 2.55.512.166 1.184-2.348a.17.17 0 0 0-.007.003l-1.135 2.246-.229-.074.466-2.401a.17.17 0 0 0-.117-.196 18.799 18.799 0 0 1-.726-.246zm12.417.29a.17.17 0 0 0-.049.081l.484 2.488-.232.076-1.165-2.312a.17.17 0 0 0-.192-.09c-.345.089-.696.17-1.048.24a.17.17 0 0 0-.032.042c.333-.067.664-.14.99-.224l1.231 2.442.513-.167zm-10.483.294a.17.17 0 0 0-.14.062 19.213 19.213 0 0 0 1.053.226l-.182 2.607.53.103.89-2.48a.17.17 0 0 0-.015.01l-.856 2.384-.238-.046.17-2.458a.17.17 0 0 0-.137-.18c-.36-.067-.72-.141-1.075-.228zm8.188.309a.17.17 0 0 0-.043.055l.176 2.518-.24.047-.872-2.429a.17.17 0 0 0-.182-.109c-.244.031-.49.057-.737.08a.17.17 0 0 0-.052.054c.228-.022.455-.045.68-.074l.922 2.565.529-.104zm-5.872.105a.17.17 0 0 0-.106.067 19.41 19.41 0 0 0 .717.07l.093 2.627.537.048.628-2.568a.17.17 0 0 0-.024.019l-.604 2.474-.242-.02-.09-2.478a.17.17 0 0 0-.156-.163c-.252-.019-.503-.047-.753-.076zm2.707.126c-.232.006-.462.01-.694.007a.17.17 0 0 0-.078.06 19.699 19.699 0 0 0 .647-.004l.646 2.64.538-.046.092-2.605a.17.17 0 0 0-.04.041l-.086 2.515-.242.023-.614-2.502a.17.17 0 0 0-.17-.129z" fill="#fff" fill-opacity=".418" fill-rule="evenodd"/></g><path d="M55.972 32.221a23.904 23.904 0 0 1-.001.002 23.904 23.904 0 0 1-.22 2.984 23.904 23.904 0 0 1-.11.6 23.904 23.904 0 0 1-.002.01 23.904 23.904 0 0 1-.001.004 23.904 23.904 0 0 1-.001.004 23.904 23.904 0 0 1-.483 2.33 23.904 23.904 0 0 1-.249.797 23.904 23.904 0 0 1-.712 2.053 23.904 23.904 0 0 1-.001.003 23.904 23.904 0 0 1-.39.867 23.904 23.904 0 0 1-.004.008 23.904 23.904 0 0 1-.916 1.828 23.904 23.904 0 0 1-.536.887 23.904 23.904 0 0 1-.003.004 23.904 23.904 0 0 1-.003.005 23.904 23.904 0 0 1-.004.005 23.904 23.904 0 0 1-1.093 1.616 23.904 23.904 0 0 1-.002.003 23.904 23.904 0 0 1-.003.004 23.904 23.904 0 0 1-.468.598 23.904 23.904 0 0 1-.134.17 23.904 23.904 0 0 1-.042.055 23.904 23.904 0 0 1-.021.026 23.904 23.904 0 0 1-1.283 1.448 23.904 23.904 0 0 1-.783.783 23.904 23.904 0 0 1-1.44 1.253 23.904 23.904 0 0 1-.886.694 23.904 23.904 0 0 1-1.558 1.036 23.904 23.904 0 0 1-.005.003 23.904 23.904 0 0 1-.01.007 23.904 23.904 0 0 1-.005.002 23.904 23.904 0 0 1-.533.322 23.904 23.904 0 0 1-.188.114 23.904 23.904 0 0 1-.043.026 23.904 23.904 0 0 1-.206.124 23.904 23.904 0 0 1-1.721.844 23.904 23.904 0 0 1-1 .45 23.904 23.904 0 0 1-1.852.626 23.904 23.904 0 0 1-.016.006 23.904 23.904 0 0 1-1.003.312 23.904 23.904 0 0 1-.003.001 23.904 23.904 0 0 1-.004.001 23.904 23.904 0 0 1-.002 0 23.904 23.904 0 0 1-2.078.411 23.904 23.904 0 0 1-.87.16 23.904 23.904 0 0 1-3.005.197 23.904 23.904 0 0 1-3.006-.198 23.904 23.904 0 0 1-.723-.132 23.904 23.904 0 0 1-.004 0 23.904 23.904 0 0 1-.01-.003 23.904 23.904 0 0 1-2.225-.44 23.904 23.904 0 0 1-.836-.26 23.904 23.904 0 0 1-.003 0 23.904 23.904 0 0 1-.002-.001 23.904 23.904 0 0 1-.006-.002 23.904 23.904 0 0 1-2.02-.679 23.904 23.904 0 0 1-.002-.001 23.904 23.904 0 0 1-.84-.378 23.904 23.904 0 0 1-.006-.003 23.904 23.904 0 0 1-.002-.001 23.904 23.904 0 0 1-1.885-.92 23.904 23.904 0 0 1-.001 0 23.904 23.904 0 0 1-.124-.075 23.904 23.904 0 0 1-.064-.039 23.904 23.904 0 0 1-.24-.145 23.904 23.904 0 0 1-.361-.219 23.904 23.904 0 0 1-1.756-1.157 23.904 23.904 0 0 1-.003-.002 23.904 23.904 0 0 1-.001-.001 23.904 23.904 0 0 1-.106-.083 23.904 23.904 0 0 1-.017-.013 23.904 23.904 0 0 1-.092-.073 23.904 23.904 0 0 1-.505-.395 23.904 23.904 0 0 1-1.61-1.391 23.904 23.904 0 0 1-.623-.623 23.904 23.904 0 0 1-1.453-1.627 23.904 23.904 0 0 1-.504-.644 23.904 23.904 0 0 1-1.272-1.86 23.904 23.904 0 0 1-.392-.648 23.904 23.904 0 0 1 0-.001 23.904 23.904 0 0 1 0-.001 23.904 23.904 0 0 1-1.06-2.086 23.904 23.904 0 0 1-.001-.004 23.904 23.904 0 0 1-.27-.6 23.904 23.904 0 0 1-.826-2.327 23.904 23.904 0 0 1-.002-.004 23.904 23.904 0 0 1-.159-.512 23.904 23.904 0 0 1-.557-2.598 23.904 23.904 0 0 1 0-.002 23.904 23.904 0 0 1-.065-.347 23.904 23.904 0 0 1 0-.001 23.904 23.904 0 0 1 0-.001A23.904 23.904 0 0 1 8.2 32.41a23.904 23.904 0 0 0-.025.41 23.904 23.904 0 0 0 23.904 23.905 23.904 23.904 0 0 0 23.904-23.904 23.904 23.904 0 0 0-.013-.601z" fill="#fff" fill-opacity=".01"/><circle cx="32.081" cy="32" r="23.904" fill="url(#n)"/></svg>