<svg xmlns="http://www.w3.org/2000/svg" width="64" height="64" fill="none" viewBox="0 0 64 64"><g xmlns:xlink="http://www.w3.org/1999/xlink" style="fill:#000"><defs><pattern id="a" width="60.882" height="62.001" x="1.559" y="1.999" patternUnits="userSpaceOnUse"><image width="60.882" height="62.001" href="http://localhost:6080/assets/by-file-media-id/1c096c09-a10e-80c0-8003-2a94e3380417" preserveAspectRatio="none"/></pattern></defs><rect width="60.882" height="62.001" x="1.559" y="1.999" fill="url(#a)" class="fills" rx="0" ry="0"/><defs><linearGradient id="b" x1="7.937" x2="7.937" y1="15.081" y2="1.852" gradientTransform="scale(3.7796)" gradientUnits="userSpaceOnUse"><stop offset="0" stop-color="#363636"/><stop offset="1" stop-color="#6c6c6c"/></linearGradient></defs><rect width="56.002" height="56.002" x="4" y="3.969" fill="url(#b)" class="fills" rx="13.002" ry="13.002" style="fill:#fff;fill-opacity:1"/><defs><linearGradient id="d" x1=".134" x2=".983" y1="-.007" y2=".98"><stop offset="0" stop-color="#140940"/><stop offset=".87" stop-color="#b81989"/></linearGradient><pattern id="e" width="30" height="33" x="17.001" y="15.47" patternUnits="userSpaceOnUse"><path d="M0 0h30v33H0z" style="fill:url(#d)"/></pattern></defs><path fill="url(#e)" fill-rule="evenodd" d="M23.59 15.516c-.1.495-.195.992-.276 1.49-.052.315.343.361.528.513.214.13.441.244.61.435.434.45.813.975 1.005 1.573.208.855.096 1.747-.094 2.594-.22 1.08-.425 2.162-.651 3.24-.227 1.145-.471 2.287-.668 3.437-.134.197-.032.454-.159.652-.087.4-.142.81-.241 1.209-1.028.035-2.056.044-3.083.064-.123.439-.187.892-.297 1.334-.11.286.196.415.374.56.759.604 1.148 1.569 1.192 2.519.035.574-.04 1.15-.161 1.711.226.081.485.044.725.062 1.203.025 2.408-.005 3.61.062.008.117-.341.262-.477.377-.581.366-1.162.74-1.773 1.056-.154.121-.358.218-.541.346-.391.193-.742.457-1.133.653-.268.18-.27.538-.346.821-.17.869-.358 1.734-.52 2.604-.117.21-.125.468-.27.675-.165.334-.32.679-.552.973-.067.272-.32.444-.51.634a9.9 9.9 0 0 1-2.277 1.499c-.294.066-.285.336-.373.559-.077.354-.133.713-.2 1.07.012.076-.1.26.039.228h13.966c.086-.546.206-1.086.287-1.632.045-.295-.391-.281-.551-.47-.392-.237-.762-.522-1.025-.903-.28-.392-.55-.825-.59-1.316-.116-.212-.057-.47-.071-.704.007-.514.033-1.031.158-1.532.158-.845.339-1.685.49-2.53.127-.219.046-.49.174-.707-.028-.257.122-.47.14-.72q.078-.501.196-.993c1.707-.025 3.416-.019 5.122-.088.467-.027.924-.14 1.385-.213.298-.058.583-.162.872-.25.23-.074.46-.134.68-.24a12.2 12.2 0 0 0 3.551-2.366c.897-.853 1.711-1.805 2.318-2.886a17 17 0 0 0 1.281-2.67c.093-.242.17-.47.23-.717.134-.197.112-.46.194-.682.397-1.546.504-3.167.328-4.753-.058-.581-.217-1.146-.366-1.708-.125-.183-.138-.424-.256-.619-.22-.488-.48-.96-.782-1.4-.339-.439-.68-.88-1.111-1.235-1.196-1.025-2.776-1.508-4.33-1.597-2.791-.06-5.583-.052-8.374-.064-2.408.003-4.816-.016-7.223.031-.058.004-.117.002-.174.014m13.126 6.413c.821.282 1.413 1.024 1.645 1.84.3.995.178 2.06-.108 3.043-.08.236-.178.452-.268.688-.339.714-.736 1.419-1.33 1.956-.67.63-1.522 1.127-2.46 1.185-.672.06-1.353.11-2.027.043-.246-.053-.508-.223-.552-.489-.087-.423.07-.838.105-1.257.033-.32.19-.607.227-.926.147-.733.28-1.47.424-2.203.127-.351.148-.73.237-1.092.175-.868.352-1.738.502-2.61.026-.31.316-.31.57-.311.918-.032 1.84-.018 2.754.078.094.013.19.025.281.055m3.887 15.763c-.043.257-.114.495-.159.745-.001.244-.148.454-.147.703-.116.616-.226 1.233-.357 1.846-.05.085-.033.292-.177.254-1.064.005-2.13-.012-3.193.013-.257-.03-.514.095-.474.387-.165.903-.366 1.8-.516 2.705-.064.173-.112.337.142.292 1.147.032 2.296.013 3.444.018-.051.617-.226 1.215-.316 1.826-.13.202-.048.456-.158.66-.087.31-.11.636-.179.95-.04.254.419.116.584.18.894.043 1.791.082 2.686.034.248-.061.168-.436.25-.639q.19-.93.369-1.862c.143-.347.115-.737.244-1.087.259-.075.54-.042.808-.057.925-.019 1.852.02 2.776-.037.244-.065.16-.434.234-.637.024-.084.037-.427.084-.37.066-.04.072-.414.12-.566.105-.58.216-1.16.323-1.74.052-.122-.123-.051-.193-.07-1.033-.004-2.066.011-3.098-.012-.282.052-.423-.131-.285-.38.147-.852.324-1.697.498-2.543-.014-.228.252-.575.008-.717-.474-.075-.958-.031-1.436-.047l-1.822-.014z" class="fills" style="stroke-opacity:1;stroke:none;filter:url(#filter29);stroke-width:1;stroke-dasharray:none;display:inline"/></g></svg>