<svg width="64" xmlns="http://www.w3.org/2000/svg" height="64" id="screenshot-d8d13fc1-2ed6-80f3-8007-46d569ab7d36" viewBox="0 0 64 64" xmlns:xlink="http://www.w3.org/1999/xlink" fill="none" version="1.1"><g id="shape-d8d13fc1-2ed6-80f3-8007-46d569ab7d36" width="64" height="64" version="1.1" xmlns:xlink="http://www.w3.org/1999/xlink" rx="0" ry="0" style="fill: rgb(0, 0, 0);"><g id="shape-d8d13fc1-2ed6-80f3-8007-46d569ab7d37" style="display: none;"><g class="fills" id="fills-d8d13fc1-2ed6-80f3-8007-46d569ab7d37"><rect width="64" height="64" x="0" transform="matrix(1.000000, 0.000000, 0.000000, 1.000000, 0.000000, 0.000000)" style="fill: none;" ry="0" fill="none" rx="0" y="0"/></g></g><g id="shape-d8d13fc1-2ed6-80f3-8007-46d569ab7d38"><defs style="fill: rgb(0, 0, 0);"/></g><g id="shape-d8d13fc1-2ed6-80f3-8007-46d569ab7d39"><defs><pattern patternUnits="userSpaceOnUse" x="1.5592999999998938" y="1.9990000000000236" width="60.88200000000006" height="62.000999999999976" id="fill-0-render-4"><g><image id="fill-image-render-4-0" href="http://localhost:6080/assets/by-file-media-id/1c096c09-a10e-80c0-8003-2a94e3380417" preserveAspectRatio="none" width="60.88200000000006" height="62.000999999999976"/></g></pattern></defs><g class="fills" id="fills-d8d13fc1-2ed6-80f3-8007-46d569ab7d39"><rect width="60.88200000000006" height="62.000999999999976" x="1.5592999999998938" transform="matrix(1.000000, 0.000000, 0.000000, 1.000000, 0.000000, 0.000000)" preserveAspectRatio="none" ry="0" fill="url(#fill-0-render-4)" rx="0" y="1.9990000000000236"/></g></g><g id="shape-d8d13fc1-2ed6-80f3-8007-46d569ab7d3a"><defs><linearGradient x1="7.9373" y1="15.081" x2="7.9373" y2="1.852" id="render-5-linearGradient1040" gradientTransform="matrix(1.000000, 0.000000, 0.000000, 1.000000, 0.000000, 0.000000) scale(3.7796)" gradientUnits="userSpaceOnUse"><stop stop-color="#363636" offset="0"/><stop stop-color="#6c6c6c" offset="1"/></linearGradient></defs><g class="fills" id="fills-d8d13fc1-2ed6-80f3-8007-46d569ab7d3a"><rect width="56.00199999999995" height="56.00199999999995" x="4" transform="matrix(1.000000, 0.000000, 0.000000, 1.000000, 0.000000, 0.000000)" style="fill: rgb(255, 255, 255); fill-opacity: 1;" ry="13.002" fill="url(#render-5-linearGradient1040)" rx="13.002" y="3.9686000000000377"/></g></g><g id="shape-d8d13fc1-2ed6-80f3-8007-46d59652cd36"><defs><linearGradient x1="130.474" y1="55.771" x2="232.185" y2="320.485" xlink:href="#render-6-d" id="render-6-h" gradientUnits="userSpaceOnUse" gradientTransform="matrix(0.124132, 0.000000, 0.000000, 0.123730, 6.978300, 8.526079)"/><linearGradient id="render-6-d"><stop offset="0" style="stop-color: rgb(19, 12, 74); stop-opacity: 1;"/><stop offset="1" style="stop-color: rgb(193, 28, 144); stop-opacity: 1;"/></linearGradient><linearGradient id="fill-color-gradient-render-6-0" x1="0.133948356742739" y1="-0.007289638564394352" x2="0.9825528100708935" y2="0.9804787128540031" gradientTransform=""><stop offset="0" stop-color="#140940" stop-opacity="1"/><stop offset="0.87" stop-color="#b81989" stop-opacity="1"/></linearGradient><pattern patternUnits="userSpaceOnUse" x="17.000999999999976" y="15.469600000000014" width="29.999999999999886" height="33" patternTransform="matrix(1.000000, 0.000000, 0.000000, 1.000000, 0.000000, 0.000000)" id="fill-0-render-6"><g><rect width="29.999999999999886" height="33" style="fill: url(&quot;#fill-color-gradient-render-6-0&quot;);"/></g></pattern></defs><g class="fills" id="fills-d8d13fc1-2ed6-80f3-8007-46d59652cd36"><path d="M23.5902099609375,15.51568603515625C23.4906005859375,16.01080322265625,23.3946533203125,16.507720947265625,23.31414794921875,17.0062255859375C23.26177978515625,17.32086181640625,23.65728759765625,17.367034912109375,23.84173583984375,17.5191650390625C24.05560302734375,17.6485595703125,24.283203125,17.7633056640625,24.45281982421875,17.95361328125C24.88555908203125,18.403289794921875,25.2650146484375,18.92877197265625,25.457275390625,19.526947021484375C25.66473388671875,20.381805419921875,25.55291748046875,21.2738037109375,25.36328125,22.1209716796875C25.14276123046875,23.20025634765625,24.93780517578125,24.28265380859375,24.7117919921875,25.36083984375C24.48529052734375,26.505828857421875,24.24090576171875,27.64813232421875,24.0435791015625,28.79815673828125C23.90966796875,28.99481201171875,24.01239013671875,29.2518310546875,23.8853759765625,29.449554443359375C23.797607421875,29.85040283203125,23.7431640625,30.25970458984375,23.6435546875,30.6588134765625C22.61627197265625,30.6937255859375,21.58819580078125,30.702545166015625,20.560546875,30.72320556640625C20.438232421875,31.162017822265625,20.37445068359375,31.61468505859375,20.26446533203125,32.056640625C20.1549072265625,32.342987060546875,20.4600830078125,32.472412109375,20.63800048828125,32.61767578125C21.3966064453125,33.220947265625,21.7862548828125,34.1856689453125,21.83001708984375,35.13568115234375C21.86541748046875,35.71038818359375,21.79022216796875,36.286773681640625,21.66864013671875,36.84698486328125C21.8953857421875,36.928497314453125,22.1541748046875,36.890625,22.39447021484375,36.9088134765625C23.59735107421875,36.93365478515625,24.80206298828125,36.90423583984375,26.003662109375,36.97113037109375C26.0115966796875,37.0882568359375,25.6629638671875,37.2330322265625,25.5274658203125,37.34796142578125C24.945556640625,37.71441650390625,24.36541748046875,38.087310791015625,23.7542724609375,38.403839111328125C23.59979248046875,38.5250244140625,23.39593505859375,38.62188720703125,23.21258544921875,38.74951171875C22.82159423828125,38.9425048828125,22.47052001953125,39.207366943359375,22.0799560546875,39.402618408203125C21.81158447265625,39.582275390625,21.81085205078125,39.941162109375,21.73358154296875,40.22412109375C21.564453125,41.092681884765625,21.376220703125,41.95831298828125,21.213134765625,42.8275146484375C21.0970458984375,43.03814697265625,21.0894775390625,43.29559326171875,20.944580078125,43.50323486328125C20.77899169921875,43.83740234375,20.62420654296875,44.18182373046875,20.3924560546875,44.47589111328125C20.32476806640625,44.74761962890625,20.07110595703125,44.92022705078125,19.8822021484375,45.109893798828125C19.19586181640625,45.70947265625,18.430419921875,46.21966552734375,17.60491943359375,46.608642578125C17.311279296875,46.6754150390625,17.319580078125,46.9454345703125,17.23193359375,47.1676025390625C17.1552734375,47.521575927734375,17.0992431640625,47.88116455078125,17.0318603515625,48.23760986328125C17.04376220703125,48.314208984375,16.932861328125,48.497467041015625,17.07098388671875,48.46600341796875C21.7264404296875,48.46600341796875,26.38201904296875,48.46600341796875,31.0374755859375,48.46600341796875C31.123291015625,47.920440673828125,31.2430419921875,47.3804931640625,31.32354736328125,46.83428955078125C31.3690185546875,46.53887939453125,30.9327392578125,46.552947998046875,30.77288818359375,46.364898681640625C30.3807373046875,46.1268310546875,30.0106201171875,45.841766357421875,29.7479248046875,45.46099853515625C29.4678955078125,45.069091796875,29.19720458984375,44.635528564453125,29.157958984375,44.14508056640625C29.04241943359375,43.93310546875,29.10089111328125,43.67425537109375,29.086669921875,43.440887451171875C29.09356689453125,42.92657470703125,29.12017822265625,42.409759521484375,29.2454833984375,41.9088134765625C29.40277099609375,41.064483642578125,29.58367919921875,40.22418212890625,29.73443603515625,39.37908935546875C29.86224365234375,39.160125732421875,29.78057861328125,38.88934326171875,29.9093017578125,38.6722412109375C29.8812255859375,38.4151611328125,30.03125,38.20166015625,30.04815673828125,37.951416015625C30.10089111328125,37.618316650390625,30.16558837890625,37.287109375,30.2445068359375,36.95916748046875C31.95208740234375,36.934295654296875,33.6605224609375,36.94012451171875,35.3670654296875,36.87139892578125C35.83404541015625,36.8441162109375,36.29107666015625,36.73052978515625,36.75225830078125,36.65771484375C37.04962158203125,36.60003662109375,37.33538818359375,36.49591064453125,37.6243896484375,36.40728759765625C37.85333251953125,36.33367919921875,38.0845947265625,36.273895263671875,38.30419921875,36.1671142578125C39.0748291015625,35.82684326171875,39.8172607421875,35.41497802734375,40.5009765625,34.9228515625C40.97515869140625,34.57733154296875,41.436767578125,34.2137451171875,41.85516357421875,33.801513671875C42.75238037109375,32.949127197265625,43.5660400390625,31.9969482421875,44.17303466796875,30.91571044921875C44.670166015625,30.06146240234375,45.11395263671875,29.17449951171875,45.4539794921875,28.24591064453125C45.54718017578125,28.004425048828125,45.62420654296875,27.775390625,45.68475341796875,27.5294189453125C45.8179931640625,27.331756591796875,45.79620361328125,27.06829833984375,45.8778076171875,26.8466796875C46.27490234375,25.300567626953125,46.38238525390625,23.679962158203125,46.20635986328125,22.09417724609375C46.1475830078125,21.51251220703125,45.9888916015625,20.9483642578125,45.83966064453125,20.3856201171875C45.71484375,20.2032470703125,45.7015380859375,19.962066650390625,45.583740234375,19.76715087890625C45.36444091796875,19.279327392578125,45.10467529296875,18.80731201171875,44.80157470703125,18.3665771484375C44.46331787109375,17.92822265625,44.12139892578125,17.4862060546875,43.69073486328125,17.1318359375C42.4952392578125,16.106964111328125,40.91461181640625,15.624481201171875,39.3602294921875,15.535400390625C36.56964111328125,15.4747314453125,33.7779541015625,15.482513427734375,30.98681640625,15.4708251953125C28.57928466796875,15.473663330078125,26.17120361328125,15.45538330078125,23.76397705078125,15.502197265625C23.70599365234375,15.505615234375,23.6473388671875,15.503662109375,23.5902099609375,15.51568603515625ZM36.7161865234375,21.92938232421875C37.53704833984375,22.2113037109375,38.12908935546875,22.9525146484375,38.3614501953125,23.76971435546875C38.66058349609375,24.763702392578125,38.53851318359375,25.82989501953125,38.2532958984375,26.811981201171875C38.1737060546875,27.04754638671875,38.07537841796875,27.263671875,37.985107421875,27.50018310546875C37.64642333984375,28.2144775390625,37.24896240234375,28.91888427734375,36.65576171875,29.4561767578125C35.98468017578125,30.08599853515625,35.1326904296875,30.582733154296875,34.19537353515625,30.641082763671875C33.5225830078125,30.7010498046875,32.8419189453125,30.7513427734375,32.1678466796875,30.68389892578125C31.9224853515625,30.631011962890625,31.65997314453125,30.4613037109375,31.6156005859375,30.19525146484375C31.52886962890625,29.7724609375,31.685302734375,29.357208251953125,31.72137451171875,28.937957763671875C31.75372314453125,28.618133544921875,31.9105224609375,28.330780029296875,31.9483642578125,28.0123291015625C32.09521484375,27.2791748046875,32.22802734375,26.54278564453125,32.3717041015625,25.8094482421875C32.49945068359375,25.4578857421875,32.5196533203125,25.079254150390625,32.60858154296875,24.71722412109375C32.78411865234375,23.8486328125,32.96087646484375,22.979400634765625,33.11083984375,22.1064453125C33.13702392578125,21.796905517578125,33.42730712890625,21.79730224609375,33.68133544921875,21.795867919921875C34.59912109375,21.76422119140625,35.52105712890625,21.77783203125,36.43475341796875,21.87384033203125C36.5294189453125,21.8870849609375,36.62506103515625,21.89923095703125,36.7161865234375,21.92938232421875ZM40.6033935546875,37.6920166015625C40.5596923828125,37.948516845703125,40.489013671875,38.18695068359375,40.4442138671875,38.436981201171875C40.44281005859375,38.680633544921875,40.2958984375,38.8914794921875,40.2967529296875,39.13970947265625C40.18096923828125,39.75555419921875,40.07061767578125,40.373046875,39.9400634765625,40.985748291015625C39.88934326171875,41.07098388671875,39.907470703125,41.27838134765625,39.76300048828125,41.24017333984375C38.69854736328125,41.24517822265625,37.6339111328125,41.22796630859375,36.56982421875,41.252777099609375C36.31341552734375,41.223602294921875,36.05572509765625,41.34814453125,36.09588623046875,41.64007568359375C35.93115234375,42.54302978515625,35.7298583984375,43.43927001953125,35.58001708984375,44.3450927734375C35.51605224609375,44.518310546875,35.46832275390625,44.682037353515625,35.72161865234375,44.63671875C36.869140625,44.66925048828125,38.01751708984375,44.64990234375,39.16552734375,44.6551513671875C39.114501953125,45.2724609375,38.94036865234375,45.869964599609375,38.849609375,46.48114013671875C38.7193603515625,46.68267822265625,38.80194091796875,46.9366455078125,38.69207763671875,47.141326904296875C38.60528564453125,47.45147705078125,38.5828857421875,47.77716064453125,38.51300048828125,48.0919189453125C38.47344970703125,48.345367431640625,38.93157958984375,48.20721435546875,39.0965576171875,48.270965576171875C39.9908447265625,48.314453125,40.88836669921875,48.352569580078125,41.7830810546875,48.3046875C42.03106689453125,48.243743896484375,41.95062255859375,47.869049072265625,42.03216552734375,47.666259765625C42.1593017578125,47.04638671875,42.28424072265625,46.42559814453125,42.401611328125,45.80413818359375C42.5445556640625,45.45697021484375,42.51678466796875,45.06707763671875,42.64617919921875,44.71673583984375C42.9049072265625,44.642364501953125,43.18560791015625,44.67498779296875,43.453857421875,44.659881591796875C44.379150390625,44.64141845703125,45.30615234375,44.680419921875,46.230224609375,44.6231689453125C46.4737548828125,44.558013916015625,46.39044189453125,44.188507080078125,46.4635009765625,43.98590087890625C46.48822021484375,43.90179443359375,46.50146484375,43.5594482421875,46.5477294921875,43.6163330078125C46.6136474609375,43.57574462890625,46.620361328125,43.202484130859375,46.66815185546875,43.04962158203125C46.7725830078125,42.46923828125,46.88385009765625,41.89013671875,46.991455078125,41.3104248046875C47.04339599609375,41.1881103515625,46.86810302734375,41.2586669921875,46.7977294921875,41.24017333984375C45.7652587890625,41.23577880859375,44.732421875,41.251495361328125,43.7001953125,41.22784423828125C43.4183349609375,41.27996826171875,43.276611328125,41.096649169921875,43.4154052734375,40.84722900390625C43.562255859375,39.9962158203125,43.738525390625,39.15093994140625,43.9129638671875,38.3052978515625C43.8994140625,38.0770263671875,44.16510009765625,37.73046875,43.920654296875,37.5877685546875C43.4471435546875,37.51275634765625,42.96319580078125,37.5567626953125,42.4852294921875,37.54095458984375C41.8779296875,37.536529541015625,41.2705078125,37.53167724609375,40.66314697265625,37.52703857421875C40.64324951171875,37.58203125,40.623291015625,37.63702392578125,40.6033935546875,37.6920166015625Z" fill="url(#fill-0-render-6)" fill-rule="evenodd" style="stroke-opacity: 1; stroke: none; filter: url(&quot;#filter29&quot;); stroke-width: 1; stroke-dasharray: none; display: inline;"/></g></g></g></svg>