<svg xmlns="http://www.w3.org/2000/svg" width="64" height="64"><defs><linearGradient id="g" x1="511.5" x2="511.5" y1="47.659" y2="493.14" gradientUnits="userSpaceOnUse"><stop offset="0" stop-color="#FFFB6C"/><stop offset=".223" stop-color="#FEF669"/><stop offset=".492" stop-color="#FAE761"/><stop offset=".786" stop-color="#F3CF53"/><stop offset="1" stop-color="#EDB847"/></linearGradient><linearGradient id="i" x1="511.5" x2="511.5" y1="489.54" y2="452.53" gradientUnits="userSpaceOnUse"><stop offset="0" stop-color="#FCE46E" stop-opacity=".6"/><stop offset="1" stop-color="#FBE56E" stop-opacity="0"/></linearGradient><linearGradient id="j" x1="398.74" x2="617.05" y1="897.5" y2="897.5" gradientUnits="userSpaceOnUse"><stop offset="0" stop-color="#999795"/><stop offset=".149" stop-color="#9B9A98"/><stop offset=".257" stop-color="#A3A2A1"/><stop offset=".351" stop-color="#B1B1B1"/><stop offset=".424" stop-color="#C0C2C3"/><stop offset=".51" stop-color="#C0C2C3"/><stop offset=".594" stop-color="#C0C2C3"/><stop offset=".727" stop-color="#AEAFAE"/><stop offset=".887" stop-color="#9F9D9C"/><stop offset="1" stop-color="#999795"/></linearGradient><linearGradient id="k" x1="589.66" x2="550.74" y1="930.65" y2="940.95" gradientUnits="userSpaceOnUse"><stop offset=".283" stop-color="#A4A197"/><stop offset=".87" stop-color="#A9A7A3" stop-opacity=".426"/><stop offset=".984" stop-color="#AAA8A6" stop-opacity=".314"/><stop offset="1" stop-color="#AAA8A6" stop-opacity=".3"/></linearGradient><linearGradient id="l" x1="429.24" x2="481.42" y1="934.46" y2="937.38" gradientUnits="userSpaceOnUse"><stop offset=".056" stop-color="#A4A197"/><stop offset="1" stop-color="#AAA8A6" stop-opacity=".3"/></linearGradient><linearGradient id="m" x1="562.24" x2="599.68" y1="964.24" y2="927.03" gradientUnits="userSpaceOnUse"><stop offset=".056" stop-color="#FEFEFE" stop-opacity="0"/><stop offset=".432" stop-color="#CCD5E0" stop-opacity=".399"/><stop offset=".809" stop-color="#A1B1C5" stop-opacity=".798"/><stop offset="1" stop-color="#90A3BB"/></linearGradient><linearGradient id="n" x1="622.96" x2="544.4" y1="839.91" y2="869.03" gradientUnits="userSpaceOnUse"><stop offset="0" stop-color="#95AAC3"/><stop offset=".369" stop-color="#BFDAE6"/><stop offset=".454" stop-color="#D0DEE4" stop-opacity=".912"/><stop offset=".55" stop-color="#DAE0E3" stop-opacity=".811"/><stop offset=".657" stop-color="#DEE1E3" stop-opacity=".7"/><stop offset="1" stop-color="#E0E2E3" stop-opacity="0"/></linearGradient><linearGradient id="o" x1="398.32" x2="592.72" y1="914.36" y2="914.36" gradientUnits="userSpaceOnUse"><stop offset="0" stop-color="#90A3BB"/><stop offset=".069" stop-color="#92A6BD"/><stop offset=".12" stop-color="#9AAFC4"/><stop offset=".164" stop-color="#A7BFCF"/><stop offset=".204" stop-color="#B9D5DF"/><stop offset=".242" stop-color="#D1F2F4"/><stop offset=".244" stop-color="#D2F3F5"/><stop offset=".305" stop-color="#D8F4F6"/><stop offset=".385" stop-color="#E8F9FA"/><stop offset=".46" stop-color="#FEFEFE"/><stop offset=".944" stop-color="#FEFEFE" stop-opacity="0"/></linearGradient><linearGradient id="p" x1="433.25" x2="592.42" y1="951.5" y2="951.5" gradientUnits="userSpaceOnUse"><stop offset=".036" stop-color="#FEFEFE" stop-opacity="0"/><stop offset=".46" stop-color="#FEFEFE"/><stop offset=".944" stop-color="#FEFEFE" stop-opacity="0"/></linearGradient><linearGradient id="q" x1="400.28" x2="456.82" y1="850.45" y2="863.8" gradientUnits="userSpaceOnUse"><stop offset="0" stop-color="#93A6BB"/><stop offset=".369" stop-color="#A2B7C8"/><stop offset=".69" stop-color="#ABC0CF"/><stop offset=".705" stop-color="#AEC2CF" stop-opacity=".977"/><stop offset=".815" stop-color="#C0CBCE" stop-opacity=".815"/><stop offset=".894" stop-color="#C7CFCE" stop-opacity=".7"/><stop offset=".902" stop-color="#C8CFCE" stop-opacity=".661"/><stop offset=".999" stop-color="#CDD2CE" stop-opacity=".2"/></linearGradient><linearGradient id="r" x1="436.23" x2="547.22" y1="879.82" y2="879.82" gradientUnits="userSpaceOnUse"><stop offset="0" stop-color="#484A4C"/><stop offset="1" stop-color="#484A4C" stop-opacity="0"/></linearGradient><linearGradient id="s" x1="585.22" x2="434.68" y1="863.53" y2="876.3" gradientUnits="userSpaceOnUse"><stop offset="0" stop-color="#484A4C"/><stop offset="1" stop-color="#484A4C" stop-opacity="0"/></linearGradient><linearGradient id="t" x1="453.76" x2="583.72" y1="901.12" y2="901.12" gradientUnits="userSpaceOnUse"><stop offset="0" stop-color="#484A4C" stop-opacity="0"/><stop offset="1" stop-color="#484A4C"/></linearGradient><linearGradient id="u" x1="618.62" x2="540.56" y1="900.35" y2="921.85" gradientUnits="userSpaceOnUse"><stop offset="0" stop-color="#90A3BB"/><stop offset=".078" stop-color="#99AEC3"/><stop offset=".215" stop-color="#B0CAD7"/><stop offset=".374" stop-color="#D2F3F5"/><stop offset="1" stop-color="#D2F3F5" stop-opacity="0"/></linearGradient><linearGradient id="v" x1="398.06" x2="625.53" y1="879.07" y2="879.07" gradientUnits="userSpaceOnUse"><stop offset="0" stop-color="#9CB1C7"/><stop offset=".022" stop-color="#A0B6CB"/><stop offset=".049" stop-color="#ADC5D7"/><stop offset=".078" stop-color="#C2DDEA"/><stop offset=".087" stop-color="#C9E5F1"/><stop offset=".235" stop-color="#C9E5F1"/><stop offset=".286" stop-color="#D9EBF3"/><stop offset=".357" stop-color="#E9F1F5"/><stop offset=".439" stop-color="#F2F5F6"/><stop offset=".554" stop-color="#F5F6F6"/><stop offset=".604" stop-color="#E9F1F5"/><stop offset=".72" stop-color="#D2E8F2"/><stop offset=".792" stop-color="#C9E5F1"/><stop offset="1" stop-color="#9CB1C7"/></linearGradient><linearGradient id="w" x1="405.23" x2="621.77" y1="846.51" y2="846.51" gradientUnits="userSpaceOnUse"><stop offset="0" stop-color="#fff" stop-opacity="0"/><stop offset=".005" stop-color="#E3E4E4" stop-opacity=".032"/><stop offset=".013" stop-color="#BFC0C0" stop-opacity=".083"/><stop offset=".022" stop-color="#9FA0A1" stop-opacity=".14"/><stop offset=".032" stop-color="#838586" stop-opacity=".202"/><stop offset=".043" stop-color="#6D6F71" stop-opacity=".273"/><stop offset=".056" stop-color="#5C5E60" stop-opacity=".356"/><stop offset=".072" stop-color="#515354" stop-opacity=".458"/><stop offset=".094" stop-color="#4A4C4E" stop-opacity=".602"/><stop offset=".156" stop-color="#484A4C"/><stop offset=".205" stop-color="#484A4C"/><stop offset=".501" stop-color="#484A4C"/><stop offset=".805" stop-color="#484A4C"/><stop offset=".883" stop-color="#4A4C4E" stop-opacity=".602"/><stop offset=".911" stop-color="#515354" stop-opacity=".458"/><stop offset=".931" stop-color="#5C5E60" stop-opacity=".356"/><stop offset=".947" stop-color="#6D6F71" stop-opacity=".273"/><stop offset=".961" stop-color="#838586" stop-opacity=".202"/><stop offset=".973" stop-color="#9FA0A1" stop-opacity=".14"/><stop offset=".984" stop-color="#BFC0C0" stop-opacity=".083"/><stop offset=".994" stop-color="#E3E4E4" stop-opacity=".032"/><stop offset="1" stop-color="#fff" stop-opacity="0"/></linearGradient><linearGradient id="x" x1="511.5" x2="511.5" y1="513.84" y2="840.48" gradientUnits="userSpaceOnUse"><stop offset="0" stop-color="#DFE0E4"/><stop offset=".111" stop-color="#DFE0E4"/><stop offset=".227" stop-color="#E7E8EC"/><stop offset=".442" stop-color="#F0F0F4"/><stop offset=".815" stop-color="#F2F2F6"/></linearGradient><linearGradient id="z" x1="720.02" x2="641.86" y1="651.21" y2="644.02" gradientUnits="userSpaceOnUse"><stop offset=".162" stop-color="#D0D4DB"/><stop offset=".978" stop-color="#D0D4DB" stop-opacity=".026"/><stop offset="1" stop-color="#D0D4DB" stop-opacity="0"/></linearGradient><linearGradient id="A" x1="667.84" x2="629.79" y1="532.05" y2="811.87" gradientUnits="userSpaceOnUse"><stop offset="0" stop-color="#DFE1E6" stop-opacity=".7"/><stop offset="1" stop-color="#DFE1E6" stop-opacity="0"/></linearGradient><linearGradient id="C" x1="348.4" x2="357.68" y1="636.25" y2="635.09" gradientUnits="userSpaceOnUse"><stop offset="0" stop-color="#DDE9F3" stop-opacity=".6"/><stop offset=".019" stop-color="#DDE9F3" stop-opacity=".586"/><stop offset=".135" stop-color="#DDE9F3" stop-opacity=".5"/></linearGradient><linearGradient id="a" x1="125.24" x2="125.24" y1="171.64" y2="204.45" gradientTransform="translate(-163.67 -235.91)scale(1.4286)" gradientUnits="userSpaceOnUse"><stop offset="0" stop-color="#ffe352"/><stop offset="1" stop-color="#ff361f"/></linearGradient><radialGradient id="c" cx="488.23" cy="963.87" r="81.495" gradientTransform="matrix(.9979 -.06552 .03252 .4954 -30.301 518.39)" gradientUnits="userSpaceOnUse"><stop offset=".317" stop-color="#727375"/><stop offset=".521" stop-color="#727375"/><stop offset=".724" stop-color="#747576"/><stop offset=".797" stop-color="#7B7C7B"/><stop offset=".85" stop-color="#868784"/><stop offset=".892" stop-color="#979890"/><stop offset=".927" stop-color="#ADAEA0"/><stop offset=".934" stop-color="#B2B3A4"/><stop offset=".974" stop-color="#B0B1A3"/><stop offset="1" stop-color="#9DA5B0"/></radialGradient><radialGradient id="d" cx="530.28" cy="942.51" r="82.471" gradientTransform="matrix(-.9826 .186 -.1329 -.702 1176.5 1505.5)" gradientUnits="userSpaceOnUse"><stop offset=".521" stop-color="#727375" stop-opacity="0"/><stop offset=".724" stop-color="#747576" stop-opacity=".197"/><stop offset=".797" stop-color="#7B7C7B" stop-opacity=".268"/><stop offset=".85" stop-color="#868784" stop-opacity=".318"/><stop offset=".892" stop-color="#979890" stop-opacity=".359"/><stop offset=".927" stop-color="#ADAEA0" stop-opacity=".394"/><stop offset=".934" stop-color="#B2B3A4" stop-opacity=".4"/><stop offset=".974" stop-color="#B0B1A3" stop-opacity=".6"/><stop offset="1" stop-color="#B2B3A4"/></radialGradient><radialGradient id="e" cx="552.17" cy="970.28" r="30.148" gradientTransform="matrix(-.8848 .466 -.2036 -.3865 1238.3 1088)" gradientUnits="userSpaceOnUse"><stop offset="0" stop-color="#8B8986"/><stop offset=".717" stop-color="#8B8986" stop-opacity="0"/></radialGradient><radialGradient id="f" cx="512.87" cy="954.24" r="28.923" gradientTransform="matrix(.01973 .9998 -2.2362 .04414 2636.6 399.35)" gradientUnits="userSpaceOnUse"><stop offset="0" stop-opacity=".4"/><stop offset=".209" stop-color="#131313" stop-opacity=".316"/><stop offset=".631" stop-color="#434445" stop-opacity=".147"/><stop offset="1" stop-color="#727375" stop-opacity="0"/></radialGradient><radialGradient id="h" cx="511.5" cy="297.18" r="244.56" gradientUnits="userSpaceOnUse"><stop offset="0" stop-color="#FFFEF8"/><stop offset=".168" stop-color="#FFFDE5"/><stop offset=".506" stop-color="#FEF9B5"/><stop offset=".542" stop-color="#FEF9B0"/><stop offset=".722" stop-color="#FEF8AE"/><stop offset=".814" stop-color="#FEF6A6"/><stop offset=".885" stop-color="#FDF299"/><stop offset=".946" stop-color="#FCEC86"/><stop offset="1" stop-color="#FBE56E"/></radialGradient><radialGradient id="y" cx="507.95" cy="842.89" r="421.87" gradientTransform="matrix(-.00165 -1 .5695 -.00094 28.772 1351.6)" gradientUnits="userSpaceOnUse"><stop offset="0" stop-color="#F3F3F7" stop-opacity=".03"/><stop offset="1" stop-color="#D7D8DC"/></radialGradient><radialGradient id="B" cx="492.52" cy="497.59" r="115.96" gradientTransform="matrix(.00471 1 -8.741 .0412 4839.7 -15.425)" gradientUnits="userSpaceOnUse"><stop offset="0" stop-color="#FDFEFF"/><stop offset=".059" stop-color="#FDFEFF"/><stop offset=".069" stop-color="#FDFEFF"/><stop offset=".136" stop-color="#FBFCFD" stop-opacity=".891"/><stop offset=".162" stop-color="#F4F5F7" stop-opacity=".849"/><stop offset=".18" stop-color="#E8E9EB" stop-opacity=".819"/><stop offset=".192" stop-color="#DCDDE0" stop-opacity=".8"/><stop offset=".295" stop-color="#DDDEE1" stop-opacity="0"/><stop offset="1" stop-color="#DFE0E4" stop-opacity="0"/></radialGradient><filter id="b" width="1.166" height="1.094" x="-.083" y="-.047" color-interpolation-filters="sRGB"><feGaussianBlur stdDeviation=".94"/></filter></defs><g color="#000"><path d="M4.37.53C2.254.53.53 2.312.53 4.496v8.468c0 2.184 1.725 3.968 3.84 3.968h8.194c2.114 0 3.84-1.783 3.84-3.968V4.497c0-2.184-1.726-3.968-3.84-3.968zm.256.52h7.681c1.844 0 3.33 1.534 3.33 3.44v7.937c0 1.906-1.485 3.44-3.33 3.44h-7.68c-1.845 0-3.33-1.534-3.33-3.44V4.49c0-1.906 1.485-3.44 3.33-3.44z" opacity=".01" style="font-feature-settings:normal;font-variant-alternates:normal;font-variant-caps:normal;font-variant-east-asian:normal;font-variant-ligatures:normal;font-variant-numeric:normal;font-variant-position:normal;font-variation-settings:normal;inline-size:0;isolation:auto;mix-blend-mode:normal;shape-margin:0;shape-padding:0;text-decoration-color:#000;text-decoration-line:none;text-decoration-style:solid;text-indent:0;text-orientation:mixed;text-transform:none;white-space:normal" transform="scale(3.7796)"/><path d="M4.359.794C2.392.794.795 2.447.795 4.48v8.5c0 2.035 1.597 3.688 3.564 3.688h8.216c1.967 0 3.564-1.653 3.564-3.688v-8.5c0-2.034-1.597-3.687-3.564-3.687zm.272.256h7.672c1.842 0 3.325 1.534 3.325 3.44v7.937c0 1.906-1.483 3.44-3.325 3.44H4.63c-1.842 0-3.325-1.534-3.325-3.44V4.49c0-1.906 1.483-3.44 3.325-3.44z" opacity=".01" style="font-feature-settings:normal;font-variant-alternates:normal;font-variant-caps:normal;font-variant-east-asian:normal;font-variant-ligatures:normal;font-variant-numeric:normal;font-variant-position:normal;font-variation-settings:normal;inline-size:0;isolation:auto;mix-blend-mode:normal;shape-margin:0;shape-padding:0;text-decoration-color:#000;text-decoration-line:none;text-decoration-style:solid;text-indent:0;text-orientation:mixed;text-transform:none;white-space:normal" transform="scale(3.7796)"/><path d="M4.31 1.058c-1.866 0-3.375 1.539-3.375 3.44v8.467c0 1.9 1.57 3.439 3.435 3.439h8.2c1.866 0 3.427-1.538 3.427-3.44V4.498c0-1.9-1.51-3.439-3.375-3.439h-.097c1.794.087 3.214 1.582 3.214 3.432v7.937c0 1.906-1.506 3.44-3.377 3.44h-7.79c-1.871 0-3.377-1.534-3.377-3.44V4.49c0-1.85 1.42-3.345 3.214-3.432z" opacity=".03" style="font-feature-settings:normal;font-variant-alternates:normal;font-variant-caps:normal;font-variant-east-asian:normal;font-variant-ligatures:normal;font-variant-numeric:normal;font-variant-position:normal;font-variation-settings:normal;inline-size:0;isolation:auto;mix-blend-mode:normal;shape-margin:0;shape-padding:0;text-decoration-color:#000;text-decoration-line:none;text-decoration-style:solid;text-indent:0;text-orientation:mixed;text-transform:none;white-space:normal" transform="scale(3.7796)"/><path d="M4 46.969V49c0 6.648 5.896 12 12.544 12h30.961C54.153 61 60 55.648 60 49v-1.992a12.97 12.97 0 0 1-13 12.963H17.002A12.973 12.973 0 0 1 4 46.969" opacity=".03" style="font-feature-settings:normal;font-variant-alternates:normal;font-variant-caps:normal;font-variant-east-asian:normal;font-variant-ligatures:normal;font-variant-numeric:normal;font-variant-position:normal;font-variation-settings:normal;inline-size:0;isolation:auto;mix-blend-mode:normal;shape-margin:0;shape-padding:0;text-decoration-color:#000;text-decoration-line:none;text-decoration-style:solid;text-indent:0;text-orientation:mixed;text-transform:none;white-space:normal"/><path d="M1.058 11.906v.592c0 1.939 1.573 3.5 3.332 3.5h8.16c1.76 0 3.325-1.561 3.325-3.5v-.58c-.006 2.095-1.537 3.78-3.44 3.78H4.498c-1.905 0-3.44-1.692-3.44-3.792" opacity=".05" style="font-feature-settings:normal;font-variant-alternates:normal;font-variant-caps:normal;font-variant-east-asian:normal;font-variant-ligatures:normal;font-variant-numeric:normal;font-variant-position:normal;font-variation-settings:normal;inline-size:0;isolation:auto;mix-blend-mode:normal;shape-margin:0;shape-padding:0;text-decoration-color:#000;text-decoration-line:none;text-decoration-style:solid;text-indent:0;text-orientation:mixed;text-transform:none;white-space:normal" transform="scale(3.7796)"/></g><rect width="56" height="56" x="4" y="4" fill="url(#a)" rx="13.002" ry="13.002"/><path d="M32.001 8c-7.506 0-13.586 6.085-13.586 13.586a13.52 13.52 0 0 0 3.156 8.703v.002c-.175.124-.455.424.106.836.748.548 3.54 12.118 2.693 14.512.748.399 1.496 1.595 1.496 1.595s.149.1-.15.2c-.132.044.229.264 1.025.494h-.023s-.967.669.115 1.512c-1.097.758 0 1.585 0 1.585s-1.287 1.023.353 1.776c1.098 1.262 1.778 1.146 1.778 1.146l.03.01-.061.006s.164 2.12 2.613 2.035 3.002-.883 3.002-.883.41-.5.33-1.113c.075-.02.143-.028.219-.049 1.915-.558 1.816-1.765 1.816-1.765s1.335-.645.438-1.916c.768-.943 0-1.635 0-1.635s.444-.445.34-.834c-.001-.002-.01-.002-.01-.004.498-.177.71-.33.603-.365-.3-.1-.15-.2-.15-.2s.748-1.196 1.496-1.595c-.848-2.394 1.945-13.963 2.693-14.512.561-.412.281-.712.106-.836v-.002a13.53 13.53 0 0 0 3.156-8.703C45.585 14.085 39.507 8 32 8z" filter="url(#b)" opacity=".25"/><g stroke-width="2.581"><path fill="url(#c)" d="M450 956.4s3.3 42.5 52.4 40.8 60.2-17.7 60.2-17.7 8.8-10.5 6.6-23.2-119.2.1-119.2.1" class="st0" transform="translate(6.49 6.264)scale(.04987)"/><path fill="url(#d)" d="M450 956.4s3.3 42.5 52.4 40.8 60.2-17.7 60.2-17.7 8.8-10.5 6.6-23.2-119.2.1-119.2.1" class="st1" transform="translate(6.49 6.264)scale(.04987)"/><path fill="url(#e)" d="M450 956.4s3.3 42.5 52.4 40.8 60.2-17.7 60.2-17.7 8.8-10.5 6.6-23.2-119.2.1-119.2.1" class="st2" transform="translate(6.49 6.264)scale(.04987)"/><path fill="url(#f)" d="M450 956.4s3.3 42.5 52.4 40.8 60.2-17.7 60.2-17.7 8.8-10.5 6.6-23.2-119.2.1-119.2.1" class="st3" transform="translate(6.49 6.264)scale(.04987)"/><path fill="url(#g)" d="M511.5 509.5c219 2 207.9-28.6 209.1-27.8 39.5-47.3 63.3-108.1 63.3-174.5 0-150.4-121.9-272.4-272.4-272.4s-272.4 122-272.4 272.4c0 66.4 23.8 127.3 63.3 174.5 1.2-.8-9.9 29.8 209.1 27.8" class="st6" transform="translate(6.49 6.264)scale(.04987)"/><path fill="url(#h)" d="M511.5 499.4c209.7 1.9 199-27.4 200.1-26.6 37.8-45.2 60.6-103.5 60.6-167.1 0-144-116.7-260.7-260.7-260.7S250.8 161.7 250.8 305.7c0 63.6 22.8 121.8 60.6 167.1 1.1-.8-9.6 28.5 200.1 26.6" class="st7" transform="translate(6.49 6.264)scale(.04987)"/><path fill="url(#i)" d="M511.5 499.4c209.7 1.9 199-27.4 200.1-26.6 37.8-45.2 60.6-103.5 60.6-167.1 0-144-116.7-260.7-260.7-260.7S250.8 161.7 250.8 305.7c0 63.6 22.8 121.8 60.6 167.1 1.1-.8-9.6 28.5 200.1 26.6" class="st8" transform="translate(6.49 6.264)scale(.04987)"/><path fill="url(#j)" d="M405.6 835.4s-19.4 13.4 2.3 30.3c-22 15.2 0 31.8 0 31.8s-25.8 20.5 7.1 35.6c22 25.3 35.6 23 35.6 23s50 20.3 123 .1C612 945 610 920.8 610 920.8s26.8-12.9 8.8-38.4c15.4-18.9 0-32.8 0-32.8s8.9-8.9 6.8-16.7c-2.1-7.9-220 2.5-220 2.5" class="st9" transform="translate(6.49 6.264)scale(.04987)"/><path fill="url(#k)" d="M600.2 923.8s-27.4 13.1-47.4 13.9c-20.1.7 8.4 2.6 8.4 2.6s39-5.5 39-10.9z" class="st10" transform="translate(6.49 6.264)scale(.04987)"/><path fill="url(#l)" d="M416.1 928.6s24.1 10.4 59.5 10-15 7.3-54.7-1.8c-14.7-10.5-4.8-8.2-4.8-8.2" class="st11" transform="translate(6.49 6.264)scale(.04987)"/><path fill="url(#m)" d="M595.6 915.8s-2.1 27.6-26.2 37.1 10.8 4.1 22.1-4.4c8.7-5.6 17.9-13.7 18.4-26.7s-14.3-6-14.3-6" class="st12" transform="translate(6.49 6.264)scale(.04987)"/><path fill="url(#n)" d="M544.9 865.7c28 1.3 47.8-8.6 49.4-9.6-10.2 10.3-39.7 17.9-39.7 17.9s46.1-3.6 63.4-22.5c8.2-9.5 9.4-17.8 6.4-20.2-12-9.6-93.1 30.6-79.5 34.4" class="st13" transform="translate(6.49 6.264)scale(.04987)"/><path fill="url(#o)" d="M425.1 890.2s8.8.5 8.3 5.4-15.6 2.5-15.6 2.5 11.3 12.1 13.8 16.4 60 15 84.3 11.6c24.2-3.3 62.3-6.5 67-11.5 4.6-5 20.1 5-.6 6.1-20.7 1.2-90.6 18.9-131.4 10.6s-29.7 8.8-29.7 8.8-2.9-4-6.2-7.2c-22.9-10.2-19-25.2-7.1-35.6 9.3-14.1 17.2-7.1 17.2-7.1" class="st14" transform="translate(6.49 6.264)scale(.04987)"/><path fill="url(#p)" d="M435.1 945.5s22.6 17.7 75.6 15.2c53-2.6 66.3-9.6 76.6-19.6s4.4 7.7-13.1 13.5-39 11-65.1 10.3-73.8-10-75.4-15.4 1.4-4 1.4-4" class="st15" transform="translate(6.49 6.264)scale(.04987)"/><path fill="url(#q)" d="M415.3 838.4s-11.1 8.1 4.6 12.4 38.7 5.5 38.7 5.5 4.4 5-2.7 4.2c-7.1-.9-36.2-3.5-36.2-3.5s-10.3 0-1.5 5.6 14.2 9.3 14.2 9.3 4.9 6-2.5 3-14.1-4.8-26.1-12.8c-6.4-8-11-14.6 1.7-26.8 9.3-1.1 9.8 3.1 9.8 3.1" class="st16" transform="translate(6.49 6.264)scale(.04987)"/><path fill="url(#r)" d="M436.2 876.9s26.2 11.4 111 2.6c-52.8 3.3-111-2.6-111-2.6" class="st17" opacity=".5" transform="translate(6.49 6.264)scale(.04987)"/><path fill="url(#s)" d="M473.9 870s92.2 2.3 120.4-14c-34.5 30.8-120.4 14-120.4 14" class="st18" opacity=".5" transform="translate(6.49 6.264)scale(.04987)"/><path fill="url(#t)" d="M583.7 893.6s-70.6 14.7-130 6.8c.1.1 55.1 22.4 130-6.8" class="st19" opacity=".5" transform="translate(6.49 6.264)scale(.04987)"/><path fill="url(#u)" d="M596.3 891.2s2.9 7.5-9.1 10.4-18.7 9.1-22.8 9.1c-4.2 0-28.7 6.2-28.7 6.2s-9.1 5.4 6.2 6.2c15.4.8 54.7-6.2 54.7-6.2s7.6 1.8 2.2 6.3 17.3-2.4 22-12.5c7.4-7.9 3.8-20.2-2.1-28.4-5.8-2.1-22.4 8.9-22.4 8.9" class="st20" transform="translate(6.49 6.264)scale(.04987)"/><path fill="url(#v)" d="M407.8 865.8s16 8.8 18.1 11.3 4.1 5.7 3.3 8 44.8 9.2 65.8 8.5 83.6-12.9 84.6-14.6-6.3-3.5-1.4-5.9 36.3-13.2 40.6-23.6c5.5 5.2 12 18.7 0 32.8-1.4.9-22.9 14.9-45.4 17.9l27.4-13.3s-85.3 9.8-130.7 8.1-56.8-11.3-55.4.5c11.7 6.2 19.1 13.1 19.1 13.1s-18.7-3-24.8-9.8c-7.8-7.5-19.5-20.4-1.2-33" class="st21" transform="translate(6.49 6.264)scale(.04987)"/><path fill="url(#w)" d="M621.8 833.2s-15.6 26.9-121.7 26.5-94.5-22.6-94.5-22.6z" class="st22" transform="translate(6.49 6.264)scale(.04987)"/><path fill="url(#x)" d="M718.5 480.5s12 31-207 29c-219 2-207-29-207-29s-15 7 0 18 71 243 54 291c15 8 30 32 30 32s3 2-3 4 36 22 126 22 132-20 126-22-3-4-3-4 15-24 30-32c-17-48 39-280 54-291s0-18 0-18" class="st23" transform="translate(6.49 6.264)scale(.04987)"/><path fill="url(#y)" d="M718.5 480.5s12 31-207 29c-219 2-207-29-207-29s-15 7 0 18 71 243 54 291c15 8 30 32 30 32s3 2-3 4 36 22 126 22 132-20 126-22-3-4-3-4 15-24 30-32c-17-48 39-280 54-291s0-18 0-18" class="st24" transform="translate(6.49 6.264)scale(.04987)"/><path fill="url(#z)" d="M684.3 499s-71.9 267.1-44.9 315.3c7.3-7.2 15-20.7 25.1-24.9-11.5-61.6 29-245.5 54-291 .8-3.2 6.7-3.5 6.7-9.6 1-4.1-6.7-8.4-6.7-8.4s2.1 6.4-12 11.8c-11.6 5.4-22.2 6.8-22.2 6.8" class="st25" transform="translate(6.49 6.264)scale(.04987)"/><path fill="url(#A)" d="M676.1 501.6s-79.3 244.1-38.5 319.8l5.2-6.6c-27-66.4 44.6-315.7 44.6-315.7z" class="st26" transform="translate(6.49 6.264)scale(.04987)"/><path fill="url(#B)" d="M718.5 480.5s12 31-207 29c-219 2-207-29-207-29s-15 7 0 18c2.4 1.8 14.4 39.3 18.6 51.1 49.1 20.8 150.8 11.3 350.5-29 17.9-3.6 25.5-17.7 45-22.1 14.9-11-.1-18-.1-18" class="st27" transform="translate(6.49 6.264)scale(.04987)"/><path fill="url(#C)" d="M304.5 480.5s-15 7 0 18 71 243 54 291c2.7 1.5 5.5 3.4 8.1 5.7 0 0 0-.1.1-.1 20.6-55.8-42.3-289.5-49.9-294.2-5.4-3.3-7.2-9.5-7.9-12.9-5.6-4.3-4.4-7.5-4.4-7.5" class="st28" transform="translate(6.49 6.264)scale(.04987)"/></g></svg>