<svg width="64" height="64" xmlns="http://www.w3.org/2000/svg"><defs><linearGradient id="g" x1="511.5" x2="511.5" y1="47.659" y2="493.14" gradientUnits="userSpaceOnUse"><stop stop-color="#FFFB6C" offset="0"/><stop stop-color="#FEF669" offset=".223"/><stop stop-color="#FAE761" offset=".492"/><stop stop-color="#F3CF53" offset=".786"/><stop stop-color="#EDB847" offset="1"/></linearGradient><linearGradient id="i" x1="511.5" x2="511.5" y1="489.54" y2="452.53" gradientUnits="userSpaceOnUse"><stop stop-color="#FCE46E" stop-opacity=".6" offset="0"/><stop stop-color="#FBE56E" stop-opacity="0" offset="1"/></linearGradient><linearGradient id="j" x1="398.74" x2="617.05" y1="897.5" y2="897.5" gradientUnits="userSpaceOnUse"><stop stop-color="#999795" offset="0"/><stop stop-color="#9B9A98" offset=".149"/><stop stop-color="#A3A2A1" offset=".257"/><stop stop-color="#B1B1B1" offset=".351"/><stop stop-color="#C0C2C3" offset=".424"/><stop stop-color="#C0C2C3" offset=".51"/><stop stop-color="#C0C2C3" offset=".594"/><stop stop-color="#AEAFAE" offset=".727"/><stop stop-color="#9F9D9C" offset=".887"/><stop stop-color="#999795" offset="1"/></linearGradient><linearGradient id="k" x1="589.66" x2="550.74" y1="930.65" y2="940.95" gradientUnits="userSpaceOnUse"><stop stop-color="#A4A197" offset=".283"/><stop stop-color="#A9A7A3" stop-opacity=".426" offset=".87"/><stop stop-color="#AAA8A6" stop-opacity=".314" offset=".984"/><stop stop-color="#AAA8A6" stop-opacity=".3" offset="1"/></linearGradient><linearGradient id="l" x1="429.24" x2="481.42" y1="934.46" y2="937.38" gradientUnits="userSpaceOnUse"><stop stop-color="#A4A197" offset=".056"/><stop stop-color="#AAA8A6" stop-opacity=".3" offset="1"/></linearGradient><linearGradient id="m" x1="562.24" x2="599.68" y1="964.24" y2="927.03" gradientUnits="userSpaceOnUse"><stop stop-color="#FEFEFE" stop-opacity="0" offset=".056"/><stop stop-color="#CCD5E0" stop-opacity=".399" offset=".432"/><stop stop-color="#A1B1C5" stop-opacity=".798" offset=".809"/><stop stop-color="#90A3BB" offset="1"/></linearGradient><linearGradient id="n" x1="622.96" x2="544.4" y1="839.91" y2="869.03" gradientUnits="userSpaceOnUse"><stop stop-color="#95AAC3" offset="0"/><stop stop-color="#BFDAE6" offset=".369"/><stop stop-color="#D0DEE4" stop-opacity=".912" offset=".454"/><stop stop-color="#DAE0E3" stop-opacity=".811" offset=".55"/><stop stop-color="#DEE1E3" stop-opacity=".7" offset=".657"/><stop stop-color="#E0E2E3" stop-opacity="0" offset="1"/></linearGradient><linearGradient id="o" x1="398.32" x2="592.72" y1="914.36" y2="914.36" gradientUnits="userSpaceOnUse"><stop stop-color="#90A3BB" offset="0"/><stop stop-color="#92A6BD" offset=".069"/><stop stop-color="#9AAFC4" offset=".12"/><stop stop-color="#A7BFCF" offset=".164"/><stop stop-color="#B9D5DF" offset=".204"/><stop stop-color="#D1F2F4" offset=".242"/><stop stop-color="#D2F3F5" offset=".244"/><stop stop-color="#D8F4F6" offset=".305"/><stop stop-color="#E8F9FA" offset=".385"/><stop stop-color="#FEFEFE" offset=".46"/><stop stop-color="#FEFEFE" stop-opacity="0" offset=".944"/></linearGradient><linearGradient id="p" x1="433.25" x2="592.42" y1="951.5" y2="951.5" gradientUnits="userSpaceOnUse"><stop stop-color="#FEFEFE" stop-opacity="0" offset=".036"/><stop stop-color="#FEFEFE" offset=".46"/><stop stop-color="#FEFEFE" stop-opacity="0" offset=".944"/></linearGradient><linearGradient id="q" x1="400.28" x2="456.82" y1="850.45" y2="863.8" gradientUnits="userSpaceOnUse"><stop stop-color="#93A6BB" offset="0"/><stop stop-color="#A2B7C8" offset=".369"/><stop stop-color="#ABC0CF" offset=".69"/><stop stop-color="#AEC2CF" stop-opacity=".977" offset=".705"/><stop stop-color="#C0CBCE" stop-opacity=".815" offset=".815"/><stop stop-color="#C7CFCE" stop-opacity=".7" offset=".894"/><stop stop-color="#C8CFCE" stop-opacity=".661" offset=".902"/><stop stop-color="#CDD2CE" stop-opacity=".2" offset=".999"/></linearGradient><linearGradient id="r" x1="436.23" x2="547.22" y1="879.82" y2="879.82" gradientUnits="userSpaceOnUse"><stop stop-color="#484A4C" offset="0"/><stop stop-color="#484A4C" stop-opacity="0" offset="1"/></linearGradient><linearGradient id="s" x1="585.22" x2="434.68" y1="863.53" y2="876.3" gradientUnits="userSpaceOnUse"><stop stop-color="#484A4C" offset="0"/><stop stop-color="#484A4C" stop-opacity="0" offset="1"/></linearGradient><linearGradient id="t" x1="453.76" x2="583.72" y1="901.12" y2="901.12" gradientUnits="userSpaceOnUse"><stop stop-color="#484A4C" stop-opacity="0" offset="0"/><stop stop-color="#484A4C" offset="1"/></linearGradient><linearGradient id="u" x1="618.62" x2="540.56" y1="900.35" y2="921.85" gradientUnits="userSpaceOnUse"><stop stop-color="#90A3BB" offset="0"/><stop stop-color="#99AEC3" offset=".078"/><stop stop-color="#B0CAD7" offset=".215"/><stop stop-color="#D2F3F5" offset=".374"/><stop stop-color="#D2F3F5" stop-opacity="0" offset="1"/></linearGradient><linearGradient id="v" x1="398.06" x2="625.53" y1="879.07" y2="879.07" gradientUnits="userSpaceOnUse"><stop stop-color="#9CB1C7" offset="0"/><stop stop-color="#A0B6CB" offset=".022"/><stop stop-color="#ADC5D7" offset=".049"/><stop stop-color="#C2DDEA" offset=".078"/><stop stop-color="#C9E5F1" offset=".087"/><stop stop-color="#C9E5F1" offset=".235"/><stop stop-color="#D9EBF3" offset=".286"/><stop stop-color="#E9F1F5" offset=".357"/><stop stop-color="#F2F5F6" offset=".439"/><stop stop-color="#F5F6F6" offset=".554"/><stop stop-color="#E9F1F5" offset=".604"/><stop stop-color="#D2E8F2" offset=".72"/><stop stop-color="#C9E5F1" offset=".792"/><stop stop-color="#9CB1C7" offset="1"/></linearGradient><linearGradient id="w" x1="405.23" x2="621.77" y1="846.51" y2="846.51" gradientUnits="userSpaceOnUse"><stop stop-color="#fff" stop-opacity="0" offset="0"/><stop stop-color="#E3E4E4" stop-opacity=".032" offset=".005"/><stop stop-color="#BFC0C0" stop-opacity=".083" offset=".013"/><stop stop-color="#9FA0A1" stop-opacity=".14" offset=".022"/><stop stop-color="#838586" stop-opacity=".202" offset=".032"/><stop stop-color="#6D6F71" stop-opacity=".273" offset=".043"/><stop stop-color="#5C5E60" stop-opacity=".356" offset=".056"/><stop stop-color="#515354" stop-opacity=".458" offset=".072"/><stop stop-color="#4A4C4E" stop-opacity=".602" offset=".094"/><stop stop-color="#484A4C" offset=".156"/><stop stop-color="#484A4C" offset=".205"/><stop stop-color="#484A4C" offset=".501"/><stop stop-color="#484A4C" offset=".805"/><stop stop-color="#4A4C4E" stop-opacity=".602" offset=".883"/><stop stop-color="#515354" stop-opacity=".458" offset=".911"/><stop stop-color="#5C5E60" stop-opacity=".356" offset=".931"/><stop stop-color="#6D6F71" stop-opacity=".273" offset=".947"/><stop stop-color="#838586" stop-opacity=".202" offset=".961"/><stop stop-color="#9FA0A1" stop-opacity=".14" offset=".973"/><stop stop-color="#BFC0C0" stop-opacity=".083" offset=".984"/><stop stop-color="#E3E4E4" stop-opacity=".032" offset=".994"/><stop stop-color="#fff" stop-opacity="0" offset="1"/></linearGradient><linearGradient id="x" x1="511.5" x2="511.5" y1="513.84" y2="840.48" gradientUnits="userSpaceOnUse"><stop stop-color="#DFE0E4" offset="0"/><stop stop-color="#DFE0E4" offset=".111"/><stop stop-color="#E7E8EC" offset=".227"/><stop stop-color="#F0F0F4" offset=".442"/><stop stop-color="#F2F2F6" offset=".815"/></linearGradient><linearGradient id="z" x1="720.02" x2="641.86" y1="651.21" y2="644.02" gradientUnits="userSpaceOnUse"><stop stop-color="#D0D4DB" offset=".162"/><stop stop-color="#D0D4DB" stop-opacity=".026" offset=".978"/><stop stop-color="#D0D4DB" stop-opacity="0" offset="1"/></linearGradient><linearGradient id="A" x1="667.84" x2="629.79" y1="532.05" y2="811.87" gradientUnits="userSpaceOnUse"><stop stop-color="#DFE1E6" stop-opacity=".7" offset="0"/><stop stop-color="#DFE1E6" stop-opacity="0" offset="1"/></linearGradient><linearGradient id="C" x1="348.4" x2="357.68" y1="636.25" y2="635.09" gradientUnits="userSpaceOnUse"><stop stop-color="#DDE9F3" stop-opacity=".6" offset="0"/><stop stop-color="#DDE9F3" stop-opacity=".586" offset=".019"/><stop stop-color="#DDE9F3" stop-opacity=".5" offset=".135"/></linearGradient><linearGradient id="a" x1="125.24" x2="125.24" y1="171.64" y2="204.45" gradientTransform="translate(-163.67 -235.91) scale(1.4286)" gradientUnits="userSpaceOnUse"><stop stop-color="#ffe352" offset="0"/><stop stop-color="#ff361f" offset="1"/></linearGradient><radialGradient id="c" cx="488.23" cy="963.87" r="81.495" gradientTransform="matrix(.9979 -.06552 .03252 .4954 -30.301 518.39)" gradientUnits="userSpaceOnUse"><stop stop-color="#727375" offset=".317"/><stop stop-color="#727375" offset=".521"/><stop stop-color="#747576" offset=".724"/><stop stop-color="#7B7C7B" offset=".797"/><stop stop-color="#868784" offset=".85"/><stop stop-color="#979890" offset=".892"/><stop stop-color="#ADAEA0" offset=".927"/><stop stop-color="#B2B3A4" offset=".934"/><stop stop-color="#B0B1A3" offset=".974"/><stop stop-color="#9DA5B0" offset="1"/></radialGradient><radialGradient id="d" cx="530.28" cy="942.51" r="82.471" gradientTransform="matrix(-.9826 .186 -.1329 -.702 1176.5 1505.5)" gradientUnits="userSpaceOnUse"><stop stop-color="#727375" stop-opacity="0" offset=".521"/><stop stop-color="#747576" stop-opacity=".197" offset=".724"/><stop stop-color="#7B7C7B" stop-opacity=".268" offset=".797"/><stop stop-color="#868784" stop-opacity=".318" offset=".85"/><stop stop-color="#979890" stop-opacity=".359" offset=".892"/><stop stop-color="#ADAEA0" stop-opacity=".394" offset=".927"/><stop stop-color="#B2B3A4" stop-opacity=".4" offset=".934"/><stop stop-color="#B0B1A3" stop-opacity=".6" offset=".974"/><stop stop-color="#B2B3A4" offset="1"/></radialGradient><radialGradient id="e" cx="552.17" cy="970.28" r="30.148" gradientTransform="matrix(-.8848 .466 -.2036 -.3865 1238.3 1088)" gradientUnits="userSpaceOnUse"><stop stop-color="#8B8986" offset="0"/><stop stop-color="#8B8986" stop-opacity="0" offset=".717"/></radialGradient><radialGradient id="f" cx="512.87" cy="954.24" r="28.923" gradientTransform="matrix(.01973 .9998 -2.2362 .04414 2636.6 399.35)" gradientUnits="userSpaceOnUse"><stop stop-opacity=".4" offset="0"/><stop stop-color="#131313" stop-opacity=".316" offset=".209"/><stop stop-color="#434445" stop-opacity=".147" offset=".631"/><stop stop-color="#727375" stop-opacity="0" offset="1"/></radialGradient><radialGradient id="h" cx="511.5" cy="297.18" r="244.56" gradientUnits="userSpaceOnUse"><stop stop-color="#FFFEF8" offset="0"/><stop stop-color="#FFFDE5" offset=".168"/><stop stop-color="#FEF9B5" offset=".506"/><stop stop-color="#FEF9B0" offset=".542"/><stop stop-color="#FEF8AE" offset=".722"/><stop stop-color="#FEF6A6" offset=".814"/><stop stop-color="#FDF299" offset=".885"/><stop stop-color="#FCEC86" offset=".946"/><stop stop-color="#FBE56E" offset="1"/></radialGradient><radialGradient id="y" cx="507.95" cy="842.89" r="421.87" gradientTransform="matrix(-.00165 -1 .5695 -.00094 28.772 1351.6)" gradientUnits="userSpaceOnUse"><stop stop-color="#F3F3F7" stop-opacity=".03" offset="0"/><stop stop-color="#D7D8DC" offset="1"/></radialGradient><radialGradient id="B" cx="492.52" cy="497.59" r="115.96" gradientTransform="matrix(.00471 1 -8.741 .0412 4839.7 -15.425)" gradientUnits="userSpaceOnUse"><stop stop-color="#FDFEFF" offset="0"/><stop stop-color="#FDFEFF" offset=".059"/><stop stop-color="#FDFEFF" offset=".069"/><stop stop-color="#FBFCFD" stop-opacity=".891" offset=".136"/><stop stop-color="#F4F5F7" stop-opacity=".849" offset=".162"/><stop stop-color="#E8E9EB" stop-opacity=".819" offset=".18"/><stop stop-color="#DCDDE0" stop-opacity=".8" offset=".192"/><stop stop-color="#DDDEE1" stop-opacity="0" offset=".295"/><stop stop-color="#DFE0E4" stop-opacity="0" offset="1"/></radialGradient><filter id="b" x="-.083" y="-.047" width="1.166" height="1.094" color-interpolation-filters="sRGB"><feGaussianBlur stdDeviation=".94"/></filter></defs><g color="#000"><path d="M4.37.53C2.254.53.53 2.312.53 4.496v8.468c0 2.184 1.725 3.968 3.84 3.968h8.194c2.114 0 3.84-1.783 3.84-3.968V4.497c0-2.184-1.726-3.968-3.84-3.968zm.256.52h7.681c1.844 0 3.33 1.534 3.33 3.44v7.937c0 1.906-1.485 3.44-3.33 3.44h-7.68c-1.845 0-3.33-1.534-3.33-3.44V4.49c0-1.906 1.485-3.44 3.33-3.44z" opacity=".01" style="font-feature-settings:normal;font-variant-alternates:normal;font-variant-caps:normal;font-variant-east-asian:normal;font-variant-ligatures:normal;font-variant-numeric:normal;font-variant-position:normal;font-variation-settings:normal;inline-size:0;isolation:auto;mix-blend-mode:normal;shape-margin:0;shape-padding:0;text-decoration-color:#000;text-decoration-line:none;text-decoration-style:solid;text-indent:0;text-orientation:mixed;text-transform:none;white-space:normal" transform="scale(3.7796)"/><path d="M4.359.794C2.392.794.795 2.447.795 4.48v8.5c0 2.035 1.597 3.688 3.564 3.688h8.216c1.967 0 3.564-1.653 3.564-3.688v-8.5c0-2.034-1.597-3.687-3.564-3.687zm.272.256h7.672c1.842 0 3.325 1.534 3.325 3.44v7.937c0 1.906-1.483 3.44-3.325 3.44H4.63c-1.842 0-3.325-1.534-3.325-3.44V4.49c0-1.906 1.483-3.44 3.325-3.44z" opacity=".01" style="font-feature-settings:normal;font-variant-alternates:normal;font-variant-caps:normal;font-variant-east-asian:normal;font-variant-ligatures:normal;font-variant-numeric:normal;font-variant-position:normal;font-variation-settings:normal;inline-size:0;isolation:auto;mix-blend-mode:normal;shape-margin:0;shape-padding:0;text-decoration-color:#000;text-decoration-line:none;text-decoration-style:solid;text-indent:0;text-orientation:mixed;text-transform:none;white-space:normal" transform="scale(3.7796)"/><path d="M4.31 1.058c-1.866 0-3.375 1.539-3.375 3.44v8.467c0 1.9 1.57 3.439 3.435 3.439h8.2c1.866 0 3.427-1.538 3.427-3.44V4.498c0-1.9-1.51-3.439-3.375-3.439h-.097c1.794.087 3.214 1.582 3.214 3.432v7.937c0 1.906-1.506 3.44-3.377 3.44h-7.79c-1.871 0-3.377-1.534-3.377-3.44V4.49c0-1.85 1.42-3.345 3.214-3.432z" opacity=".03" style="font-feature-settings:normal;font-variant-alternates:normal;font-variant-caps:normal;font-variant-east-asian:normal;font-variant-ligatures:normal;font-variant-numeric:normal;font-variant-position:normal;font-variation-settings:normal;inline-size:0;isolation:auto;mix-blend-mode:normal;shape-margin:0;shape-padding:0;text-decoration-color:#000;text-decoration-line:none;text-decoration-style:solid;text-indent:0;text-orientation:mixed;text-transform:none;white-space:normal" transform="scale(3.7796)"/><path d="M4 46.969V49c0 6.648 5.896 12 12.544 12h30.961C54.153 61 60 55.648 60 49v-1.992a12.972 12.972 0 0 1-13 12.963H17.002A12.973 12.973 0 0 1 4 46.969z" opacity=".03" style="font-feature-settings:normal;font-variant-alternates:normal;font-variant-caps:normal;font-variant-east-asian:normal;font-variant-ligatures:normal;font-variant-numeric:normal;font-variant-position:normal;font-variation-settings:normal;inline-size:0;isolation:auto;mix-blend-mode:normal;shape-margin:0;shape-padding:0;text-decoration-color:#000;text-decoration-line:none;text-decoration-style:solid;text-indent:0;text-orientation:mixed;text-transform:none;white-space:normal"/><path d="M1.058 11.906v.592c0 1.939 1.573 3.5 3.332 3.5h8.16c1.76 0 3.325-1.561 3.325-3.5v-.58c-.006 2.095-1.537 3.78-3.44 3.78H4.498c-1.905 0-3.44-1.692-3.44-3.792z" opacity=".05" style="font-feature-settings:normal;font-variant-alternates:normal;font-variant-caps:normal;font-variant-east-asian:normal;font-variant-ligatures:normal;font-variant-numeric:normal;font-variant-position:normal;font-variation-settings:normal;inline-size:0;isolation:auto;mix-blend-mode:normal;shape-margin:0;shape-padding:0;text-decoration-color:#000;text-decoration-line:none;text-decoration-style:solid;text-indent:0;text-orientation:mixed;text-transform:none;white-space:normal" transform="scale(3.7796)"/></g><rect x="4" y="4" width="56" height="56" rx="13.002" ry="13.002" fill="url(#a)"/><path d="M32.001 8c-7.506 0-13.586 6.085-13.586 13.586a13.52 13.52 0 0 0 3.156 8.703v.002c-.175.124-.455.424.106.836.748.548 3.54 12.118 2.693 14.512.748.399 1.496 1.595 1.496 1.595s.149.1-.15.2c-.132.044.229.264 1.025.494h-.023s-.967.669.115 1.512c-1.097.758 0 1.585 0 1.585s-1.287 1.023.353 1.776c1.098 1.262 1.778 1.146 1.778 1.146l.03.01-.061.006s.164 2.12 2.613 2.035c2.449-.085 3.002-.883 3.002-.883s.41-.5.33-1.113c.075-.02.143-.028.219-.049 1.915-.558 1.816-1.765 1.816-1.765s1.335-.645.438-1.916c.768-.943 0-1.635 0-1.635s.444-.445.34-.834c-.001-.002-.01-.002-.01-.004.498-.177.71-.33.603-.365-.3-.1-.15-.2-.15-.2s.748-1.196 1.496-1.595c-.848-2.394 1.945-13.963 2.693-14.512.561-.412.281-.712.106-.836v-.002a13.529 13.529 0 0 0 3.156-8.703C45.585 14.085 39.507 8 32 8z" filter="url(#b)" opacity=".25"/><g stroke-width="2.581"><path class="st0" d="M450 956.4s3.3 42.5 52.4 40.8 60.2-17.7 60.2-17.7 8.8-10.5 6.6-23.2-119.2.1-119.2.1z" fill="url(#c)" transform="translate(6.49 6.264) scale(.04987)"/><path class="st1" d="M450 956.4s3.3 42.5 52.4 40.8 60.2-17.7 60.2-17.7 8.8-10.5 6.6-23.2-119.2.1-119.2.1z" fill="url(#d)" transform="translate(6.49 6.264) scale(.04987)"/><path class="st2" d="M450 956.4s3.3 42.5 52.4 40.8 60.2-17.7 60.2-17.7 8.8-10.5 6.6-23.2-119.2.1-119.2.1z" fill="url(#e)" transform="translate(6.49 6.264) scale(.04987)"/><path class="st3" d="M450 956.4s3.3 42.5 52.4 40.8 60.2-17.7 60.2-17.7 8.8-10.5 6.6-23.2-119.2.1-119.2.1z" fill="url(#f)" transform="translate(6.49 6.264) scale(.04987)"/><path class="st6" d="M511.5 509.5c219 2 207.9-28.6 209.1-27.8 39.5-47.3 63.3-108.1 63.3-174.5 0-150.4-121.9-272.4-272.4-272.4s-272.4 122-272.4 272.4c0 66.4 23.8 127.3 63.3 174.5 1.2-.8-9.9 29.8 209.1 27.8z" fill="url(#g)" transform="translate(6.49 6.264) scale(.04987)"/><path class="st7" d="M511.5 499.4c209.7 1.9 199-27.4 200.1-26.6 37.8-45.2 60.6-103.5 60.6-167.1 0-144-116.7-260.7-260.7-260.7S250.8 161.7 250.8 305.7c0 63.6 22.8 121.8 60.6 167.1 1.1-.8-9.6 28.5 200.1 26.6z" fill="url(#h)" transform="translate(6.49 6.264) scale(.04987)"/><path class="st8" d="M511.5 499.4c209.7 1.9 199-27.4 200.1-26.6 37.8-45.2 60.6-103.5 60.6-167.1 0-144-116.7-260.7-260.7-260.7S250.8 161.7 250.8 305.7c0 63.6 22.8 121.8 60.6 167.1 1.1-.8-9.6 28.5 200.1 26.6z" fill="url(#i)" transform="translate(6.49 6.264) scale(.04987)"/><path class="st9" d="M405.6 835.4s-19.4 13.4 2.3 30.3c-22 15.2 0 31.8 0 31.8s-25.8 20.5 7.1 35.6c22 25.3 35.6 23 35.6 23s50 20.3 123 .1C612 945 610 920.8 610 920.8s26.8-12.9 8.8-38.4c15.4-18.9 0-32.8 0-32.8s8.9-8.9 6.8-16.7c-2.1-7.9-220 2.5-220 2.5z" fill="url(#j)" transform="translate(6.49 6.264) scale(.04987)"/><path class="st10" d="M600.2 923.8s-27.4 13.1-47.4 13.9c-20.1.7 8.4 2.6 8.4 2.6s39-5.5 39-10.9v-5.6z" fill="url(#k)" transform="translate(6.49 6.264) scale(.04987)"/><path class="st11" d="M416.1 928.6s24.1 10.4 59.5 10-15 7.3-54.7-1.8c-14.7-10.5-4.8-8.2-4.8-8.2z" fill="url(#l)" transform="translate(6.49 6.264) scale(.04987)"/><path class="st12" d="M595.6 915.8s-2.1 27.6-26.2 37.1 10.8 4.1 22.1-4.4c8.7-5.6 17.9-13.7 18.4-26.7s-14.3-6-14.3-6z" fill="url(#m)" transform="translate(6.49 6.264) scale(.04987)"/><path class="st13" d="M544.9 865.7c28 1.3 47.8-8.6 49.4-9.6-10.2 10.3-39.7 17.9-39.7 17.9s46.1-3.6 63.4-22.5c8.2-9.5 9.4-17.8 6.4-20.2-12-9.6-93.1 30.6-79.5 34.4z" fill="url(#n)" transform="translate(6.49 6.264) scale(.04987)"/><path class="st14" d="M425.1 890.2s8.8.5 8.3 5.4-15.6 2.5-15.6 2.5 11.3 12.1 13.8 16.4 60 15 84.3 11.6c24.2-3.3 62.3-6.5 67-11.5 4.6-5 20.1 5-.6 6.1-20.7 1.2-90.6 18.9-131.4 10.6s-29.7 8.8-29.7 8.8-2.9-4-6.2-7.2c-22.9-10.2-19-25.2-7.1-35.6 9.3-14.1 17.2-7.1 17.2-7.1z" fill="url(#o)" transform="translate(6.49 6.264) scale(.04987)"/><path class="st15" d="M435.1 945.5s22.6 17.7 75.6 15.2c53-2.6 66.3-9.6 76.6-19.6s4.4 7.7-13.1 13.5-39 11-65.1 10.3-73.8-10-75.4-15.4 1.4-4 1.4-4z" fill="url(#p)" transform="translate(6.49 6.264) scale(.04987)"/><path class="st16" d="M415.3 838.4s-11.1 8.1 4.6 12.4 38.7 5.5 38.7 5.5 4.4 5-2.7 4.2c-7.1-.9-36.2-3.5-36.2-3.5s-10.3 0-1.5 5.6 14.2 9.3 14.2 9.3 4.9 6-2.5 3-14.1-4.8-26.1-12.8c-6.4-8-11-14.6 1.7-26.8 9.3-1.1 9.8 3.1 9.8 3.1z" fill="url(#q)" transform="translate(6.49 6.264) scale(.04987)"/><path class="st17" d="M436.2 876.9s26.2 11.4 111 2.6c-52.8 3.3-111-2.6-111-2.6z" fill="url(#r)" opacity=".5" transform="translate(6.49 6.264) scale(.04987)"/><path class="st18" d="M473.9 870s92.2 2.3 120.4-14c-34.5 30.8-120.4 14-120.4 14z" fill="url(#s)" opacity=".5" transform="translate(6.49 6.264) scale(.04987)"/><path class="st19" d="M583.7 893.6s-70.6 14.7-130 6.8c.1.1 55.1 22.4 130-6.8z" fill="url(#t)" opacity=".5" transform="translate(6.49 6.264) scale(.04987)"/><path class="st20" d="M596.3 891.2s2.9 7.5-9.1 10.4-18.7 9.1-22.8 9.1c-4.2 0-28.7 6.2-28.7 6.2s-9.1 5.4 6.2 6.2c15.4.8 54.7-6.2 54.7-6.2s7.6 1.8 2.2 6.3 17.3-2.4 22-12.5c7.4-7.9 3.8-20.2-2.1-28.4-5.8-2.1-22.4 8.9-22.4 8.9z" fill="url(#u)" transform="translate(6.49 6.264) scale(.04987)"/><path class="st21" d="M407.8 865.8s16 8.8 18.1 11.3 4.1 5.7 3.3 8 44.8 9.2 65.8 8.5 83.6-12.9 84.6-14.6-6.3-3.5-1.4-5.9 36.3-13.2 40.6-23.6c5.5 5.2 12 18.7 0 32.8-1.4.9-22.9 14.9-45.4 17.9l27.4-13.3s-85.3 9.8-130.7 8.1-56.8-11.3-55.4.5c11.7 6.2 19.1 13.1 19.1 13.1s-18.7-3-24.8-9.8c-7.8-7.5-19.5-20.4-1.2-33z" fill="url(#v)" transform="translate(6.49 6.264) scale(.04987)"/><path class="st22" d="M621.8 833.2s-15.6 26.9-121.7 26.5-94.5-22.6-94.5-22.6z" fill="url(#w)" transform="translate(6.49 6.264) scale(.04987)"/><path class="st23" d="M718.5 480.5s12 31-207 29c-219 2-207-29-207-29s-15 7 0 18 71 243 54 291c15 8 30 32 30 32s3 2-3 4 36 22 126 22 132-20 126-22-3-4-3-4 15-24 30-32c-17-48 39-280 54-291s0-18 0-18z" fill="url(#x)" transform="translate(6.49 6.264) scale(.04987)"/><path class="st24" d="M718.5 480.5s12 31-207 29c-219 2-207-29-207-29s-15 7 0 18 71 243 54 291c15 8 30 32 30 32s3 2-3 4 36 22 126 22 132-20 126-22-3-4-3-4 15-24 30-32c-17-48 39-280 54-291s0-18 0-18z" fill="url(#y)" transform="translate(6.49 6.264) scale(.04987)"/><path class="st25" d="M684.3 499s-71.9 267.1-44.9 315.3c7.3-7.2 15-20.7 25.1-24.9-11.5-61.6 29-245.5 54-291 .8-3.2 6.7-3.5 6.7-9.6 1-4.1-6.7-8.4-6.7-8.4s2.1 6.4-12 11.8c-11.6 5.4-22.2 6.8-22.2 6.8z" fill="url(#z)" transform="translate(6.49 6.264) scale(.04987)"/><path class="st26" d="M676.1 501.6s-79.3 244.1-38.5 319.8l5.2-6.6c-27-66.4 44.6-315.7 44.6-315.7z" fill="url(#A)" transform="translate(6.49 6.264) scale(.04987)"/><path class="st27" d="M718.5 480.5s12 31-207 29c-219 2-207-29-207-29s-15 7 0 18c2.4 1.8 14.4 39.3 18.6 51.1 49.1 20.8 150.8 11.3 350.5-29 17.9-3.6 25.5-17.7 45-22.1 14.9-11-.1-18-.1-18z" fill="url(#B)" transform="translate(6.49 6.264) scale(.04987)"/><path class="st28" d="M304.5 480.5s-15 7 0 18 71 243 54 291c2.7 1.5 5.5 3.4 8.1 5.7 0 0 0-.1.1-.1 20.6-55.8-42.3-289.5-49.9-294.2-5.4-3.3-7.2-9.5-7.9-12.9-5.6-4.3-4.4-7.5-4.4-7.5z" fill="url(#C)" transform="translate(6.49 6.264) scale(.04987)"/></g></svg>