<svg xmlns="http://www.w3.org/2000/svg" width="64" height="64" viewBox="0 0 16.933 16.933"><defs><linearGradient id="a" x1="7.937" x2="7.937" y1="15.081" y2="1.852" gradientTransform="translate(0 .008)scale(.99996)" gradientUnits="userSpaceOnUse"><stop offset="0" stop-color="#33db7f"/><stop offset="1" stop-color="#addf4f"/></linearGradient><filter id="b" width="1.177" height="1.277" x="-.089" y="-.138" color-interpolation-filters="sRGB"><feGaussianBlur stdDeviation=".32"/></filter></defs><g color="#000"><path d="M4.37.53C2.254.53.53 2.312.53 4.496v8.468c0 2.184 1.725 3.968 3.84 3.968h8.194c2.114 0 3.84-1.783 3.84-3.968V4.497c0-2.184-1.726-3.968-3.84-3.968zm.256.52h7.681c1.844 0 3.33 1.534 3.33 3.44v7.937c0 1.906-1.485 3.44-3.33 3.44h-7.68c-1.845 0-3.33-1.534-3.33-3.44V4.49c0-1.906 1.485-3.44 3.33-3.44z" opacity=".01" style="font-feature-settings:normal;font-variant-alternates:normal;font-variant-caps:normal;font-variant-east-asian:normal;font-variant-ligatures:normal;font-variant-numeric:normal;font-variant-position:normal;font-variation-settings:normal;inline-size:0;isolation:auto;mix-blend-mode:normal;shape-margin:0;shape-padding:0;text-decoration-color:#000;text-decoration-line:none;text-decoration-style:solid;text-indent:0;text-orientation:mixed;text-transform:none;white-space:normal"/><path d="M4.359.794C2.392.794.795 2.447.795 4.48v8.5c0 2.035 1.597 3.688 3.564 3.688h8.216c1.967 0 3.564-1.653 3.564-3.688v-8.5c0-2.034-1.597-3.687-3.564-3.687zm.272.256h7.672c1.842 0 3.325 1.534 3.325 3.44v7.937c0 1.906-1.483 3.44-3.325 3.44H4.63c-1.842 0-3.325-1.534-3.325-3.44V4.49c0-1.906 1.483-3.44 3.325-3.44z" opacity=".01" style="font-feature-settings:normal;font-variant-alternates:normal;font-variant-caps:normal;font-variant-east-asian:normal;font-variant-ligatures:normal;font-variant-numeric:normal;font-variant-position:normal;font-variation-settings:normal;inline-size:0;isolation:auto;mix-blend-mode:normal;shape-margin:0;shape-padding:0;text-decoration-color:#000;text-decoration-line:none;text-decoration-style:solid;text-indent:0;text-orientation:mixed;text-transform:none;white-space:normal"/><path d="M4.31 1.058c-1.866 0-3.375 1.539-3.375 3.44v8.467c0 1.9 1.57 3.439 3.435 3.439h8.2c1.866 0 3.427-1.538 3.427-3.44V4.498c0-1.9-1.51-3.439-3.375-3.439h-.097c1.794.087 3.214 1.582 3.214 3.432v7.937c0 1.906-1.506 3.44-3.377 3.44h-7.79c-1.871 0-3.377-1.534-3.377-3.44V4.49c0-1.85 1.42-3.345 3.214-3.432z" opacity=".03" style="font-feature-settings:normal;font-variant-alternates:normal;font-variant-caps:normal;font-variant-east-asian:normal;font-variant-ligatures:normal;font-variant-numeric:normal;font-variant-position:normal;font-variation-settings:normal;inline-size:0;isolation:auto;mix-blend-mode:normal;shape-margin:0;shape-padding:0;text-decoration-color:#000;text-decoration-line:none;text-decoration-style:solid;text-indent:0;text-orientation:mixed;text-transform:none;white-space:normal"/><path d="M4 46.969V49c0 6.648 5.896 12 12.544 12h30.961C54.153 61 60 55.648 60 49v-1.992a12.97 12.97 0 0 1-13 12.963H17.002A12.973 12.973 0 0 1 4 46.969" opacity=".03" style="font-feature-settings:normal;font-variant-alternates:normal;font-variant-caps:normal;font-variant-east-asian:normal;font-variant-ligatures:normal;font-variant-numeric:normal;font-variant-position:normal;font-variation-settings:normal;inline-size:0;isolation:auto;mix-blend-mode:normal;shape-margin:0;shape-padding:0;text-decoration-color:#000;text-decoration-line:none;text-decoration-style:solid;text-indent:0;text-orientation:mixed;text-transform:none;white-space:normal" transform="scale(.26458)"/><path d="M1.058 11.906v.592c0 1.939 1.573 3.5 3.332 3.5h8.16c1.76 0 3.325-1.561 3.325-3.5v-.58c-.006 2.095-1.537 3.78-3.44 3.78H4.498c-1.905 0-3.44-1.692-3.44-3.792" opacity=".05" style="font-feature-settings:normal;font-variant-alternates:normal;font-variant-caps:normal;font-variant-east-asian:normal;font-variant-ligatures:normal;font-variant-numeric:normal;font-variant-position:normal;font-variation-settings:normal;inline-size:0;isolation:auto;mix-blend-mode:normal;shape-margin:0;shape-padding:0;text-decoration-color:#000;text-decoration-line:none;text-decoration-style:solid;text-indent:0;text-orientation:mixed;text-transform:none;white-space:normal"/></g><rect width="14.816" height="14.816" x="1.058" y="1.058" fill="url(#a)" rx="3.44" ry="3.44"/><g stroke-width=".347"><path d="m5.568 6.21-1.042 3.822h.694L6.263 6.21zm.695 0 1.042 3.822H8L6.957 6.21zM8 10.032h.695v-.695H8zm2.084-3.822-1.042 3.822h.695l1.042-3.822zm1.914 1.043a1.7 1.7 0 0 0-.658.125q-.293.12-.498.34a1.45 1.45 0 0 0-.304.515q-.106.294-.106.653 0 .408.112.704.111.294.304.496.193.195.448.289c.442.153.834.08 1.22-.114v.139c0 .301 0 .548-.107.66q-.225.207-.74.206-.274 0-.528-.056a2.5 2.5 0 0 1-.423-.12l-.106.51a3.3 3.3 0 0 0 1.044.17q.785 0 1.17-.34.385-.339.385-1.093V7.422c-.397-.087-.786-.173-1.213-.17zm.028.524c.156.002.319.03.49.06v1.91c-.346.252-.587.265-.94.157-.264-.08-.377-.315-.473-.528-.058-.13-.068-.296-.068-.484 0-.34.062-.63.248-.816a.95.95 0 0 1 .743-.3z" filter="url(#b)" opacity=".15"/><path fill="#2a2a2a" d="M5.22 5.863 4.178 9.685h.695l1.042-3.822zm4.517 0L8.694 9.685h.695l1.043-3.822zm1.914 1.042a1.7 1.7 0 0 0-.659.126 1.4 1.4 0 0 0-.497.34 1.45 1.45 0 0 0-.305.514q-.105.295-.106.654 0 .408.112.703t.305.496q.193.195.448.29c.442.153.833.08 1.22-.114v.138c0 .302 0 .549-.107.66q-.225.207-.74.207-.274 0-.529-.056a2.5 2.5 0 0 1-.422-.12l-.106.51a3.3 3.3 0 0 0 1.044.169q.783 0 1.17-.34.385-.339.385-1.093V7.075c-.397-.087-.787-.173-1.213-.17m.518.585v1.909c-.346.252-.587.265-.94.157-.264-.08-.377-.315-.473-.528-.058-.129-.069-.295-.069-.483 0-.34.062-.63.249-.817.382-.383.775-.318 1.233-.239z"/><path fill="#f9f9f9" d="m5.915 5.863 1.042 3.822h.695L6.61 5.863zm1.737 3.822h.695V8.99h-.695z"/></g></svg>