<svg width="64" height="64" version="1.1" viewBox="0 0 16.933 16.933" xmlns="http://www.w3.org/2000/svg">
 <defs>
  <linearGradient id="linearGradient862-3" x1="7.9373" x2="7.9373" y1="15.081" y2="1.852" gradientTransform="matrix(.99996 0 0 .99996 3.7873e-5 .0083453)" gradientUnits="userSpaceOnUse">
   <stop stop-color="#33db7f" offset="0"/>
   <stop stop-color="#addf4f" offset="1"/>
  </linearGradient>
  <filter id="filter890" x="-.08856" y="-.13838" width="1.1771" height="1.2768" color-interpolation-filters="sRGB">
   <feGaussianBlur stdDeviation="0.32049257"/>
  </filter>
 </defs>
 <g shape-rendering="auto">
  <path d="m4.3693 0.52916c-2.1142 0-3.8402 1.7835-3.8402 3.9682v8.4675c0 2.1846 1.726 3.9682 3.8402 3.9682h8.1944c2.1142 0 3.8402-1.7835 3.8402-3.9682v-8.4675c0-2.1846-1.726-3.9682-3.8402-3.9682zm0.25704 0.52089h7.6808c1.8443 0 3.3291 1.5342 3.3291 3.44v7.9368c0 1.9058-1.4847 3.44-3.3291 3.44h-7.6808c-1.8443 0-3.3291-1.5342-3.3291-3.44v-7.9368c0-1.9058 1.4847-3.44 3.3291-3.44z" color="#000000" color-rendering="auto" dominant-baseline="auto" image-rendering="auto" opacity=".01" solid-color="#000000" stop-color="#000000" style="font-feature-settings:normal;font-variant-alternates:normal;font-variant-caps:normal;font-variant-east-asian:normal;font-variant-ligatures:normal;font-variant-numeric:normal;font-variant-position:normal;font-variation-settings:normal;inline-size:0;isolation:auto;mix-blend-mode:normal;shape-margin:0;shape-padding:0;text-decoration-color:#000000;text-decoration-line:none;text-decoration-style:solid;text-indent:0;text-orientation:mixed;text-transform:none;white-space:normal"/>
  <path d="m4.3587 0.79373c-1.9668 0-3.5639 1.6528-3.5639 3.6876v8.4996c0 2.0348 1.5971 3.6876 3.5639 3.6876h8.2162c1.9668 0 3.5644-1.6528 3.5644-3.6876v-8.4996c0-2.0348-1.5976-3.6876-3.5644-3.6876zm0.27222 0.25631h7.6718c1.8422 0 3.3251 1.5342 3.3251 3.44v7.9368c0 1.9058-1.483 3.44-3.3251 3.44h-7.6718c-1.8422 0-3.3251-1.5342-3.3251-3.44v-7.9368c0-1.9058 1.483-3.44 3.3251-3.44z" color="#000000" color-rendering="auto" dominant-baseline="auto" image-rendering="auto" opacity=".01" solid-color="#000000" stop-color="#000000" style="font-feature-settings:normal;font-variant-alternates:normal;font-variant-caps:normal;font-variant-east-asian:normal;font-variant-ligatures:normal;font-variant-numeric:normal;font-variant-position:normal;font-variation-settings:normal;inline-size:0;isolation:auto;mix-blend-mode:normal;shape-margin:0;shape-padding:0;text-decoration-color:#000000;text-decoration-line:none;text-decoration-style:solid;text-indent:0;text-orientation:mixed;text-transform:none;white-space:normal"/>
  <path d="m4.3097 1.0583c-1.8657 0-3.3751 1.5383-3.3751 3.439v8.4675c0 1.9007 1.57 3.439 3.4357 3.439h8.1996c1.8657 0 3.4274-1.5383 3.4274-3.439v-8.4675c0-1.9007-1.51-3.439-3.3756-3.439h-0.09688c1.794 0.086515 3.2138 1.5819 3.2138 3.4318v7.9368c0 1.9058-1.5059 3.44-3.3766 3.44h-7.7905c-1.8707 0-3.3766-1.5342-3.3766-3.44v-7.9368c0-1.8498 1.4199-3.3451 3.2138-3.4318z" color="#000000" color-rendering="auto" dominant-baseline="auto" image-rendering="auto" opacity=".03" solid-color="#000000" stop-color="#000000" style="font-feature-settings:normal;font-variant-alternates:normal;font-variant-caps:normal;font-variant-east-asian:normal;font-variant-ligatures:normal;font-variant-numeric:normal;font-variant-position:normal;font-variation-settings:normal;inline-size:0;isolation:auto;mix-blend-mode:normal;shape-margin:0;shape-padding:0;text-decoration-color:#000000;text-decoration-line:none;text-decoration-style:solid;text-indent:0;text-orientation:mixed;text-transform:none;white-space:normal"/>
  <path transform="scale(.26458)" d="m4 46.969v2.0312c0 6.6479 5.8957 12 12.544 12h30.961c6.6479 0 12.495-5.3521 12.495-12v-1.9922c-0.021173 7.1849-5.81 12.963-13 12.963h-29.998c-7.2032 0-13.002-5.7987-13.002-13.002z" color="#000000" color-rendering="auto" dominant-baseline="auto" image-rendering="auto" opacity=".03" solid-color="#000000" stop-color="#000000" style="font-feature-settings:normal;font-variant-alternates:normal;font-variant-caps:normal;font-variant-east-asian:normal;font-variant-ligatures:normal;font-variant-numeric:normal;font-variant-position:normal;font-variation-settings:normal;inline-size:0;isolation:auto;mix-blend-mode:normal;shape-margin:0;shape-padding:0;text-decoration-color:#000000;text-decoration-line:none;text-decoration-style:solid;text-indent:0;text-orientation:mixed;text-transform:none;white-space:normal"/>
  <path d="m1.0583 11.906v0.59234c0 1.9386 1.5729 3.4993 3.3318 3.4993h8.1603c1.7589 0 3.3243-1.5608 3.3243-3.4993v-0.58095c-0.0056 2.0952-1.5372 3.7801-3.4395 3.7801h-7.9368c-1.9058 0-3.44-1.691-3.44-3.7915z" color="#000000" color-rendering="auto" dominant-baseline="auto" image-rendering="auto" opacity=".05" solid-color="#000000" stop-color="#000000" style="font-feature-settings:normal;font-variant-alternates:normal;font-variant-caps:normal;font-variant-east-asian:normal;font-variant-ligatures:normal;font-variant-numeric:normal;font-variant-position:normal;font-variation-settings:normal;inline-size:0;isolation:auto;mix-blend-mode:normal;shape-margin:0;shape-padding:0;text-decoration-color:#000000;text-decoration-line:none;text-decoration-style:solid;text-indent:0;text-orientation:mixed;text-transform:none;white-space:normal"/>
 </g>
 <rect x="1.0583" y="1.0583" width="14.816" height="14.816" rx="3.4399" ry="3.4399" fill="url(#linearGradient862-3)" stroke-width=".99996"/>
 <g stroke-width=".34742">
  <path d="m5.5678 6.2104-1.0423 3.8216h0.69483l1.0423-3.8216zm0.69483 0 1.0423 3.8216h0.69483l-1.0423-3.8216zm1.7371 3.8216h0.69483v-0.69483h-0.69483zm2.0845-3.8216-1.0423 3.8216h0.69484l1.0423-3.8216zm1.9142 1.0423c-0.24456 0.00211-0.46404 0.041776-0.65888 0.12553-0.19482 0.079566-0.36058 0.19271-0.49736 0.33927-0.13264 0.14238-0.2342 0.31401-0.30467 0.51501-0.07046 0.19682-0.10585 0.41475-0.10585 0.65346 0 0.2722 0.03734 0.50685 0.11197 0.70366 0.07461 0.19682 0.17617 0.36201 0.30467 0.49601 0.1285 0.12983 0.27789 0.22624 0.44786 0.28906 0.44202 0.15352 0.8337 0.08043 1.22-0.11332v0.13842c0 0.30151 0 0.54822-0.10722 0.65954-0.14923 0.1382-0.39626 0.20696-0.74031 0.20696-0.18239 0-0.35794-0.01863-0.5279-0.05632-0.16581-0.0335-0.30667-0.07336-0.42274-0.11943l-0.10585 0.5089c0.13264 0.04606 0.28792 0.08593 0.46616 0.11943 0.18239 0.0335 0.375 0.05021 0.57814 0.05021 0.52231 0 0.91214-0.11314 1.1691-0.33927 0.257-0.22614 0.38542-0.59061 0.38542-1.0932v-2.9144c-0.39652-0.08684-0.78632-0.17332-1.2126-0.16964zm0.02714 0.52384c0.15623 0.00278 0.31903 0.030541 0.49059 0.060392v1.9094c-0.34579 0.25235-0.58682 0.26522-0.94046 0.15742-0.26347-0.080322-0.3765-0.31498-0.47228-0.5279-0.05806-0.12909-0.06853-0.29536-0.06853-0.48381 0-0.3392 0.06185-0.62969 0.24835-0.81629 0.23918-0.23929 0.48194-0.30389 0.74233-0.29924z" filter="url(#filter890)" opacity=".15"/>
  <path d="m5.2204 5.863-1.0423 3.8216h0.69483l1.0423-3.8216zm4.5164 0-1.0423 3.8216h0.69483l1.0423-3.8216zm1.9142 1.0423c-0.24456 0.00211-0.46404 0.041776-0.65888 0.12553-0.19482 0.079566-0.36058 0.19271-0.49736 0.33927-0.13264 0.14238-0.2342 0.31401-0.30467 0.51501-0.07047 0.19682-0.10585 0.41475-0.10585 0.65346 0 0.2722 0.03734 0.50685 0.11197 0.70366 0.07461 0.19682 0.17617 0.36201 0.30467 0.49601 0.1285 0.12982 0.27789 0.22625 0.44786 0.28906 0.44202 0.15352 0.8337 0.08043 1.22-0.11332v0.13843c0 0.30151 0 0.54822-0.10722 0.65954-0.14923 0.1382-0.39626 0.20696-0.74031 0.20696-0.18239 0-0.35794-0.01863-0.5279-0.05632-0.16581-0.0335-0.30667-0.07336-0.42274-0.11943l-0.10585 0.5089c0.13264 0.04606 0.28792 0.08592 0.46616 0.11943 0.18239 0.0335 0.375 0.05021 0.57814 0.05021 0.52231 0 0.91214-0.11314 1.1691-0.33927 0.257-0.22613 0.38542-0.59061 0.38542-1.0931v-2.9144c-0.39652-0.08684-0.78632-0.17332-1.2126-0.16964zm0.51772 0.58422v1.9094c-0.34579 0.25235-0.58682 0.26522-0.94046 0.15742-0.26347-0.080316-0.3765-0.31498-0.47228-0.5279-0.05806-0.12909-0.06853-0.29536-0.06853-0.48381 0-0.3392 0.06185-0.62969 0.24835-0.81629 0.38268-0.38285 0.7754-0.31845 1.2329-0.23885z" fill="#2a2a2a"/>
  <path d="m5.9152 5.863 1.0423 3.8216h0.69483l-1.0423-3.8216zm1.7371 3.8216h0.69483v-0.69483h-0.69483z" fill="#f9f9f9"/>
 </g>
</svg>
