<svg id="Flamingo" width="64" height="64" enable-background="new 0 0 1024 1024" image-rendering="optimizeSpeed" version="1.1" viewBox="0 0 64 64" xmlns="http://www.w3.org/2000/svg" xmlns:xlink="http://www.w3.org/1999/xlink">
 <defs>
  <filter id="filter959" x="-.086141" y="-.14473" width="1.1723" height="1.2895" color-interpolation-filters="sRGB">
   <feGaussianBlur stdDeviation="1.3860344"/>
  </filter>
  <linearGradient id="linearGradient973" x1="30.975" x2="30.975" y1="11.692" y2="56.458" gradientTransform="matrix(1.0946 0 0 .91358 82.138 1.135)" gradientUnits="userSpaceOnUse">
   <stop stop-color="#FF7C44" offset="0"/>
   <stop stop-color="#FF4E5A" offset="1"/>
  </linearGradient>
 </defs>
 <g transform="scale(3.7796)" shape-rendering="auto">
  <path d="m4.3693 0.52916c-2.1142 0-3.8402 1.7835-3.8402 3.9682v8.4675c0 2.1846 1.726 3.9682 3.8402 3.9682h8.1944c2.1142 0 3.8402-1.7835 3.8402-3.9682v-8.4675c0-2.1846-1.726-3.9682-3.8402-3.9682zm0.25704 0.52089h7.6808c1.8443 0 3.3291 1.5342 3.3291 3.44v7.9368c0 1.9058-1.4847 3.44-3.3291 3.44h-7.6808c-1.8443 0-3.3291-1.5342-3.3291-3.44v-7.9368c0-1.9058 1.4847-3.44 3.3291-3.44z" color="#000000" color-rendering="auto" dominant-baseline="auto" image-rendering="auto" opacity=".01" solid-color="#000000" stop-color="#000000" style="font-feature-settings:normal;font-variant-alternates:normal;font-variant-caps:normal;font-variant-east-asian:normal;font-variant-ligatures:normal;font-variant-numeric:normal;font-variant-position:normal;font-variation-settings:normal;inline-size:0;isolation:auto;mix-blend-mode:normal;shape-margin:0;shape-padding:0;text-decoration-color:#000000;text-decoration-line:none;text-decoration-style:solid;text-indent:0;text-orientation:mixed;text-transform:none;white-space:normal"/>
  <path d="m4.3587 0.79373c-1.9668 0-3.5639 1.6528-3.5639 3.6876v8.4996c0 2.0348 1.5971 3.6876 3.5639 3.6876h8.2162c1.9668 0 3.5644-1.6528 3.5644-3.6876v-8.4996c0-2.0348-1.5976-3.6876-3.5644-3.6876zm0.27222 0.25631h7.6718c1.8422 0 3.3251 1.5342 3.3251 3.44v7.9368c0 1.9058-1.483 3.44-3.3251 3.44h-7.6718c-1.8422 0-3.3251-1.5342-3.3251-3.44v-7.9368c0-1.9058 1.483-3.44 3.3251-3.44z" color="#000000" color-rendering="auto" dominant-baseline="auto" image-rendering="auto" opacity=".01" solid-color="#000000" stop-color="#000000" style="font-feature-settings:normal;font-variant-alternates:normal;font-variant-caps:normal;font-variant-east-asian:normal;font-variant-ligatures:normal;font-variant-numeric:normal;font-variant-position:normal;font-variation-settings:normal;inline-size:0;isolation:auto;mix-blend-mode:normal;shape-margin:0;shape-padding:0;text-decoration-color:#000000;text-decoration-line:none;text-decoration-style:solid;text-indent:0;text-orientation:mixed;text-transform:none;white-space:normal"/>
  <path d="m4.3097 1.0583c-1.8657 0-3.3751 1.5383-3.3751 3.439v8.4675c0 1.9007 1.57 3.439 3.4357 3.439h8.1996c1.8657 0 3.4274-1.5383 3.4274-3.439v-8.4675c0-1.9007-1.51-3.439-3.3756-3.439h-0.09688c1.794 0.086515 3.2138 1.5819 3.2138 3.4318v7.9368c0 1.9058-1.5059 3.44-3.3766 3.44h-7.7905c-1.8707 0-3.3766-1.5342-3.3766-3.44v-7.9368c0-1.8498 1.4199-3.3451 3.2138-3.4318z" color="#000000" color-rendering="auto" dominant-baseline="auto" image-rendering="auto" opacity=".03" solid-color="#000000" stop-color="#000000" style="font-feature-settings:normal;font-variant-alternates:normal;font-variant-caps:normal;font-variant-east-asian:normal;font-variant-ligatures:normal;font-variant-numeric:normal;font-variant-position:normal;font-variation-settings:normal;inline-size:0;isolation:auto;mix-blend-mode:normal;shape-margin:0;shape-padding:0;text-decoration-color:#000000;text-decoration-line:none;text-decoration-style:solid;text-indent:0;text-orientation:mixed;text-transform:none;white-space:normal"/>
  <path transform="scale(.26458)" d="m4 46.969v2.0312c0 6.6479 5.8957 12 12.544 12h30.961c6.6479 0 12.495-5.3521 12.495-12v-1.9922c-0.02117 7.1849-5.81 12.963-13 12.963h-29.998c-7.2032 0-13.002-5.7987-13.002-13.002z" color="#000000" color-rendering="auto" dominant-baseline="auto" image-rendering="auto" opacity=".03" solid-color="#000000" stop-color="#000000" style="font-feature-settings:normal;font-variant-alternates:normal;font-variant-caps:normal;font-variant-east-asian:normal;font-variant-ligatures:normal;font-variant-numeric:normal;font-variant-position:normal;font-variation-settings:normal;inline-size:0;isolation:auto;mix-blend-mode:normal;shape-margin:0;shape-padding:0;text-decoration-color:#000000;text-decoration-line:none;text-decoration-style:solid;text-indent:0;text-orientation:mixed;text-transform:none;white-space:normal"/>
  <path d="m1.0583 11.906v0.59234c0 1.9386 1.5729 3.4993 3.3318 3.4993h8.1603c1.7589 0 3.3243-1.5608 3.3243-3.4993v-0.58095c-0.0056 2.0952-1.5372 3.7801-3.4395 3.7801h-7.9368c-1.9058 0-3.44-1.691-3.44-3.7915z" color="#000000" color-rendering="auto" dominant-baseline="auto" image-rendering="auto" opacity=".05" solid-color="#000000" stop-color="#000000" style="font-feature-settings:normal;font-variant-alternates:normal;font-variant-caps:normal;font-variant-east-asian:normal;font-variant-ligatures:normal;font-variant-numeric:normal;font-variant-position:normal;font-variation-settings:normal;inline-size:0;isolation:auto;mix-blend-mode:normal;shape-margin:0;shape-padding:0;text-decoration-color:#000000;text-decoration-line:none;text-decoration-style:solid;text-indent:0;text-orientation:mixed;text-transform:none;white-space:normal"/>
 </g>
 <rect x="4" y="4" width="55.999" height="55.999" rx="13.001" ry="13.001" fill="url(#linearGradient973)" stroke-width="3.7794"/>
 <g fill-rule="evenodd">
  <path id="Combined-Shape" d="m37.162 27.774 8.8576-5.5525c0.72542-0.45474 1.3881-0.13419 1.4799 0.71446l1.834 16.946c0.09192 0.84933-0.4871 1.3077-1.3003 1.0212l-9.8562-3.4715 0.214 2.0361c0.17911 1.7041-1.0561 3.2306-2.7572 3.4094l-20.028 2.105c-1.7018 0.17887-3.2262-1.0528-3.4058-2.7617l-1.4565-13.857c-0.17911-1.7041 1.0561-3.2306 2.7572-3.4094l20.028-2.105c1.7018-0.17887 3.2262 1.0528 3.4058 2.7617zm0 0-8.1855 5.1312c-0.7248 0.45435-0.65683 1.0547 0.1532 1.34l9.0474 3.1867z" fill="#ff382d" filter="url(#filter959)"/>
  <path d="m37.162 26.612 8.8576-5.5525c0.72542-0.45474 1.3881-0.13418 1.4799 0.71446l1.834 16.946c0.09192 0.84933-0.4871 1.3077-1.2917 1.0242l-9.8647-3.4745 0.214 2.0361c0.17911 1.7041-1.0561 3.2306-2.7572 3.4094l-20.028 2.105c-1.7018 0.17887-3.2262-1.0528-3.4058-2.7617l-1.4565-13.857c-0.1791-1.7041 1.0561-3.2306 2.7572-3.4094l20.028-2.105c1.7018-0.17887 3.2262 1.0528 3.4058 2.7617zm0 0-8.1855 5.1312c-0.7248 0.45436-0.66064 1.0533 0.14469 1.337l9.0559 3.1897z" fill="#fff"/>
  <path d="m59.281 12.758-14.805 9.3359 1.7793 16.947 13.742 5.373v-27.412c0-1.4896-0.25966-2.9135-0.7168-4.2441z" fill="#fff" opacity=".2"/>
  <path d="m46.02 21.641c0.72542-0.45474 1.3881-0.13418 1.4799 0.71446l1.834 16.365c0.09192 0.84933-0.4871 1.3077-1.2917 1.0242l-9.8609-3.469 0.21018 1.4496c0.17911 1.7041-1.0561 3.2306-2.7572 3.4094l-20.028 2.105c-1.7018 0.17887-3.2262-1.0528-3.4058-2.7617l-1.4565-12.695c-0.1791-1.7041 1.0561-3.2306 2.7572-3.4094l20.028-2.105c1.7018-0.17887 3.3106 1.0528 3.4902 2.7617 0 0 0.18165 2.1302 0.201 2.1181 2.9332-1.8358 8.7995-5.5073 8.7995-5.5073zm-17.043 10.103c-0.7248 0.45436-0.66064 1.6343 0.14469 1.9179l9.1469 3.1897-1.106-10.239z" fill="#fff3f3"/>
 </g>
</svg>
