<svg xmlns="http://www.w3.org/2000/svg" width="64" height="64" enable-background="new 0 0 1024 1024" image-rendering="optimizeSpeed"><defs><linearGradient id="a" x1="30.975" x2="30.975" y1="11.692" y2="56.458" gradientTransform="matrix(1.0946 0 0 .91358 82.138 1.135)" gradientUnits="userSpaceOnUse"><stop offset="0" stop-color="#FF7C44"/><stop offset="1" stop-color="#FF4E5A"/></linearGradient><filter id="b" width="1.172" height="1.29" x="-.086" y="-.145" color-interpolation-filters="sRGB"><feGaussianBlur stdDeviation="1.386"/></filter></defs><g color="#000" image-rendering="auto"><path d="M4.37.53C2.254.53.53 2.312.53 4.496v8.468c0 2.184 1.725 3.968 3.84 3.968h8.194c2.114 0 3.84-1.783 3.84-3.968V4.497c0-2.184-1.726-3.968-3.84-3.968zm.256.52h7.681c1.844 0 3.33 1.534 3.33 3.44v7.937c0 1.906-1.485 3.44-3.33 3.44h-7.68c-1.845 0-3.33-1.534-3.33-3.44V4.49c0-1.906 1.485-3.44 3.33-3.44z" opacity=".01" style="font-feature-settings:normal;font-variant-alternates:normal;font-variant-caps:normal;font-variant-east-asian:normal;font-variant-ligatures:normal;font-variant-numeric:normal;font-variant-position:normal;font-variation-settings:normal;inline-size:0;isolation:auto;mix-blend-mode:normal;shape-margin:0;shape-padding:0;text-decoration-color:#000;text-decoration-line:none;text-decoration-style:solid;text-indent:0;text-orientation:mixed;text-transform:none;white-space:normal" transform="scale(3.7796)"/><path d="M4.359.794C2.392.794.795 2.447.795 4.48v8.5c0 2.035 1.597 3.688 3.564 3.688h8.216c1.967 0 3.564-1.653 3.564-3.688v-8.5c0-2.034-1.597-3.687-3.564-3.687zm.272.256h7.672c1.842 0 3.325 1.534 3.325 3.44v7.937c0 1.906-1.483 3.44-3.325 3.44H4.63c-1.842 0-3.325-1.534-3.325-3.44V4.49c0-1.906 1.483-3.44 3.325-3.44z" opacity=".01" style="font-feature-settings:normal;font-variant-alternates:normal;font-variant-caps:normal;font-variant-east-asian:normal;font-variant-ligatures:normal;font-variant-numeric:normal;font-variant-position:normal;font-variation-settings:normal;inline-size:0;isolation:auto;mix-blend-mode:normal;shape-margin:0;shape-padding:0;text-decoration-color:#000;text-decoration-line:none;text-decoration-style:solid;text-indent:0;text-orientation:mixed;text-transform:none;white-space:normal" transform="scale(3.7796)"/><path d="M4.31 1.058c-1.866 0-3.375 1.539-3.375 3.44v8.467c0 1.9 1.57 3.439 3.435 3.439h8.2c1.866 0 3.427-1.538 3.427-3.44V4.498c0-1.9-1.51-3.439-3.375-3.439h-.097c1.794.087 3.214 1.582 3.214 3.432v7.937c0 1.906-1.506 3.44-3.377 3.44h-7.79c-1.871 0-3.377-1.534-3.377-3.44V4.49c0-1.85 1.42-3.345 3.214-3.432z" opacity=".03" style="font-feature-settings:normal;font-variant-alternates:normal;font-variant-caps:normal;font-variant-east-asian:normal;font-variant-ligatures:normal;font-variant-numeric:normal;font-variant-position:normal;font-variation-settings:normal;inline-size:0;isolation:auto;mix-blend-mode:normal;shape-margin:0;shape-padding:0;text-decoration-color:#000;text-decoration-line:none;text-decoration-style:solid;text-indent:0;text-orientation:mixed;text-transform:none;white-space:normal" transform="scale(3.7796)"/><path d="M4 46.969V49c0 6.648 5.896 12 12.544 12h30.961C54.153 61 60 55.648 60 49v-1.992a12.97 12.97 0 0 1-13 12.963H17.002A12.973 12.973 0 0 1 4 46.969" opacity=".03" style="font-feature-settings:normal;font-variant-alternates:normal;font-variant-caps:normal;font-variant-east-asian:normal;font-variant-ligatures:normal;font-variant-numeric:normal;font-variant-position:normal;font-variation-settings:normal;inline-size:0;isolation:auto;mix-blend-mode:normal;shape-margin:0;shape-padding:0;text-decoration-color:#000;text-decoration-line:none;text-decoration-style:solid;text-indent:0;text-orientation:mixed;text-transform:none;white-space:normal"/><path d="M1.058 11.906v.592c0 1.939 1.573 3.5 3.332 3.5h8.16c1.76 0 3.325-1.561 3.325-3.5v-.58c-.006 2.095-1.537 3.78-3.44 3.78H4.498c-1.905 0-3.44-1.692-3.44-3.792" opacity=".05" style="font-feature-settings:normal;font-variant-alternates:normal;font-variant-caps:normal;font-variant-east-asian:normal;font-variant-ligatures:normal;font-variant-numeric:normal;font-variant-position:normal;font-variation-settings:normal;inline-size:0;isolation:auto;mix-blend-mode:normal;shape-margin:0;shape-padding:0;text-decoration-color:#000;text-decoration-line:none;text-decoration-style:solid;text-indent:0;text-orientation:mixed;text-transform:none;white-space:normal" transform="scale(3.7796)"/></g><rect width="55.999" height="55.999" x="4" y="4" fill="url(#a)" rx="13.001" ry="13.001"/><g fill-rule="evenodd"><path fill="#ff382d" d="m37.162 27.774 8.858-5.553c.725-.454 1.388-.134 1.48.715l1.833 16.946c.092.85-.487 1.308-1.3 1.021l-9.856-3.471.214 2.036a3.1 3.1 0 0 1-2.757 3.41l-20.028 2.104A3.097 3.097 0 0 1 12.2 42.22l-1.456-13.857a3.1 3.1 0 0 1 2.757-3.409l20.028-2.105a3.097 3.097 0 0 1 3.405 2.762zm0 0-8.185 5.131c-.725.455-.657 1.055.153 1.34l9.047 3.187z" filter="url(#b)"/><path fill="#fff" d="m37.162 26.612 8.858-5.553c.725-.454 1.388-.134 1.48.715l1.833 16.946c.092.85-.487 1.308-1.291 1.024l-9.865-3.474.214 2.036a3.1 3.1 0 0 1-2.757 3.41L15.606 43.82a3.097 3.097 0 0 1-3.406-2.762l-1.456-13.857a3.1 3.1 0 0 1 2.757-3.409l20.028-2.105a3.097 3.097 0 0 1 3.406 2.762zm0 0-8.185 5.131c-.725.455-.661 1.053.144 1.337l9.056 3.19z"/><path fill="#fff" d="m59.281 12.758-14.805 9.336 1.78 16.947 13.741 5.373V17.002c0-1.49-.26-2.914-.717-4.244z" opacity=".2"/><path fill="#fff3f3" d="M46.02 21.641c.725-.455 1.388-.134 1.48.714l1.834 16.365c.092.85-.487 1.308-1.292 1.025l-9.86-3.47.21 1.45a3.1 3.1 0 0 1-2.758 3.41L15.606 43.24a3.097 3.097 0 0 1-3.406-2.762l-1.456-12.695a3.1 3.1 0 0 1 2.757-3.41L33.53 22.27c1.702-.18 3.31 1.052 3.49 2.761 0 0 .182 2.13.201 2.118zM28.977 31.744c-.725.454-.66 1.634.145 1.918l9.147 3.19-1.106-10.24z"/></g></svg>