<svg xmlns="http://www.w3.org/2000/svg" xmlns:xlink="http://www.w3.org/1999/xlink" width="64" height="64" fill="none" style="-webkit-print-color-adjust:exact"><defs><linearGradient id="c" x1="27.188" x2="27.188" y1="59.971" y2="4.502" gradientTransform="translate(-.001)" gradientUnits="userSpaceOnUse"><stop offset="0" stop-color="#222"/><stop offset="1" stop-color="#3c3c3c"/></linearGradient><pattern xlink:href="#a" id="b"/></defs><rect width="60.882" height="62.001" x="1.559" y="1.999" fill="url(#b)" class="fills" rx="0" ry="0"/><rect width="56.002" height="56.002" x="3.999" y="3.969" fill="url(#c)" rx="13.002" ry="13.002"/><path fill="#00f782" d="m43.562 32.698-7.048-3.929h4.777c4.154 0 7.534-3.398 7.534-7.577 0-4.178-3.38-7.578-7.534-7.578H24.613c-5.204 0-9.438 4.259-9.438 9.494 0 3.732 2.016 7.176 5.263 8.985l7.048 3.928h-4.778c-4.153 0-7.533 3.399-7.533 7.577 0 4.179 3.38 7.579 7.533 7.579h16.679c5.204 0 9.438-4.259 9.438-9.494a10.29 10.29 0 0 0-5.263-8.985m-21.994-2.66a7.94 7.94 0 0 1-4.057-6.745c-.094-4.031 3.271-7.331 7.28-7.331H41.14c2.796 0 5.205 2.157 5.343 4.966.148 3.002-2.238 5.493-5.192 5.493l-9.416.001c-.576 0-1.04.47-1.042 1.048l-.002 7.732zm17.64 18.79h-16.35c-2.795 0-5.205-2.157-5.342-4.966-.148-3.002 2.238-5.493 5.191-5.493h9.417c.576 0 1.042-.47 1.042-1.049v-7.732l9.264 5.163a7.93 7.93 0 0 1 4.057 6.745c.095 4.031-3.271 7.332-7.279 7.332"/></svg>