<svg width="64" height="64" fill="none" style="-webkit-print-color-adjust:exact" version="1.1" xmlns="http://www.w3.org/2000/svg" xmlns:xlink="http://www.w3.org/1999/xlink">
 <defs>
  <pattern id="pattern7" patternTransform="scale(1)" xlink:href="#a"/>
  <linearGradient id="linearGradient7" x1="27.188" x2="27.188" y1="59.971" y2="4.5023" gradientTransform="translate(-.0010014)" gradientUnits="userSpaceOnUse">
   <stop stop-color="#222222" offset="0"/>
   <stop stop-color="#3c3c3c" offset="1"/>
  </linearGradient>
 </defs>
 <rect class="fills" x="1.559" y="1.999" width="60.882" height="62.001" rx="0" ry="0" fill="url(#pattern7)"/>
 <rect x="3.999" y="3.969" width="56.002" height="56.002" rx="13.002" ry="13.002" fill="url(#linearGradient7)"/>
 <path d="m43.562 32.698-7.048-3.929h4.777c4.154 0 7.534-3.398 7.534-7.577 0-4.178-3.38-7.578-7.534-7.578h-16.678c-5.204 0-9.438 4.259-9.438 9.494 0 3.732 2.016 7.176 5.263 8.985l7.048 3.928h-4.778c-4.153 0-7.533 3.399-7.533 7.577 0 4.179 3.38 7.579 7.533 7.579h16.679c5.204 0 9.438-4.259 9.438-9.494a10.29 10.29 0 0 0-5.263-8.985m-21.994-2.66a7.94 7.94 0 0 1-4.057-6.745c-0.094-4.031 3.271-7.331 7.28-7.331h16.349c2.796 0 5.205 2.157 5.343 4.966 0.148 3.002-2.238 5.493-5.192 5.493l-9.416 1e-3c-0.576 0-1.04 0.47-1.042 1.048l-2e-3 7.732zm17.64 18.79h-16.35c-2.795 0-5.205-2.157-5.342-4.966-0.148-3.002 2.238-5.493 5.191-5.493h9.417c0.576 0 1.042-0.47 1.042-1.049v-7.732l9.264 5.163a7.93 7.93 0 0 1 4.057 6.745c0.095 4.031-3.271 7.332-7.279 7.332" fill="#00f782"/>
</svg>
