<svg xmlns="http://www.w3.org/2000/svg" width="64" height="64" viewBox="0 0 16.933 16.933"><defs><linearGradient id="a" x1="7.937" x2="7.937" y1="15.081" y2="1.852" gradientTransform="translate(0 .008) scale(.99997)" gradientUnits="userSpaceOnUse"><stop offset="0" stop-color="#f1efeb"/><stop offset="1" stop-color="#fdfcfc"/></linearGradient><linearGradient id="h" x1="4.716" x2="4.716" y1="12.46" y2="10.806" gradientTransform="translate(.032 -.025)" gradientUnits="userSpaceOnUse"><stop offset="0" stop-color="#8290ae"/><stop offset="1" stop-color="#fff"/></linearGradient><linearGradient id="j" x1="4.716" x2="4.716" y1="12.56" y2="10.806" gradientTransform="translate(1.883 4.54) scale(.60872)" gradientUnits="userSpaceOnUse"><stop offset="0" stop-color="#c0c6d4"/><stop offset="1" stop-color="#515769"/></linearGradient><linearGradient id="k" x1="4.716" x2="4.716" y1="12.56" y2="10.806" gradientTransform="translate(2.956 7.188) scale(.38175)" gradientUnits="userSpaceOnUse"><stop offset="0" stop-color="#2f323b"/><stop offset="1" stop-color="#111419"/></linearGradient><linearGradient id="f" x1="4.762" x2="4.762" y1="12.725" y2="3.969" gradientUnits="userSpaceOnUse"><stop offset="0" stop-color="#4dae33"/><stop offset="1" stop-color="#6fc84a"/></linearGradient><linearGradient id="e" x1="4.762" x2="4.762" y1="12.171" y2="3.704" gradientUnits="userSpaceOnUse"><stop offset="0" stop-color="#fcaa00"/><stop offset="1" stop-color="#fdc500"/></linearGradient><linearGradient id="d" x1="4.762" x2="4.762" y1="12.435" y2="3.704" gradientUnits="userSpaceOnUse"><stop offset="0" stop-color="#f36d01"/><stop offset="1" stop-color="#f69901"/></linearGradient><linearGradient id="c" x1="4.762" x2="4.762" y1="12.435" y2="3.704" gradientTransform="rotate(90 5.19 12.069)" gradientUnits="userSpaceOnUse"><stop offset="0" stop-color="#db2f2f"/><stop offset="1" stop-color="#e54243"/></linearGradient><radialGradient id="l" cx="18" cy="44" r="4" gradientUnits="userSpaceOnUse"><stop offset="0" stop-color="#8290ae"/><stop offset=".75" stop-color="#020403"/><stop offset=".845" stop-color="#2b402c"/><stop offset=".889" stop-color="#3a5635"/><stop offset=".944" stop-color="#4a8242"/><stop offset="1" stop-color="#010201"/></radialGradient><radialGradient id="i" cx="4.762" cy="11.377" r="1.058" gradientUnits="userSpaceOnUse"><stop offset="0" stop-opacity="0"/><stop offset=".704" stop-opacity="0"/><stop offset="1"/></radialGradient><radialGradient id="n" cx="4.762" cy="11.641" r=".644" gradientTransform="scale(3.7796)" gradientUnits="userSpaceOnUse"><stop offset="0" stop-opacity="0"/><stop offset=".821" stop-opacity="0"/><stop offset="1"/></radialGradient><radialGradient id="g" cx="4.762" cy="11.641" r="1.058" gradientTransform="matrix(1.25 0 0 1.25 -1.19 -2.646)" gradientUnits="userSpaceOnUse"><stop offset="0"/><stop offset="1" stop-color="#111419" stop-opacity="0"/></radialGradient><filter id="m" width="1.024" height="1.024" x="-.012" y="-.012" color-interpolation-filters="sRGB"><feGaussianBlur stdDeviation=".04"/></filter><filter id="b" width="1.216" height="1.216" x="-.108" y="-.108" color-interpolation-filters="sRGB"><feGaussianBlur stdDeviation=".478"/></filter></defs><rect width="14.816" height="14.816" x="1.058" y="1.058" fill="url(#a)" rx="3.44" ry="3.44"/><g color="#000"><path d="M4.37.53C2.254.53.53 2.312.53 4.496v8.468c0 2.184 1.725 3.968 3.84 3.968h8.194c2.114 0 3.84-1.783 3.84-3.968V4.497c0-2.184-1.726-3.968-3.84-3.968zm.256.52h7.681c1.844 0 3.33 1.534 3.33 3.44v7.937c0 1.906-1.485 3.44-3.33 3.44h-7.68c-1.845 0-3.33-1.534-3.33-3.44V4.49c0-1.906 1.485-3.44 3.33-3.44z" opacity=".01" style="font-feature-settings:normal;font-variant-alternates:normal;font-variant-caps:normal;font-variant-east-asian:normal;font-variant-ligatures:normal;font-variant-numeric:normal;font-variant-position:normal;font-variation-settings:normal;inline-size:0;isolation:auto;mix-blend-mode:normal;shape-margin:0;shape-padding:0;text-decoration-color:#000;text-decoration-line:none;text-decoration-style:solid;text-indent:0;text-orientation:mixed;text-transform:none;white-space:normal"/><path d="M4.359.794C2.392.794.795 2.447.795 4.48v8.5c0 2.035 1.597 3.688 3.564 3.688h8.216c1.967 0 3.564-1.653 3.564-3.688v-8.5c0-2.034-1.597-3.687-3.564-3.687zm.272.256h7.672c1.842 0 3.325 1.534 3.325 3.44v7.937c0 1.906-1.483 3.44-3.325 3.44H4.63c-1.842 0-3.325-1.534-3.325-3.44V4.49c0-1.906 1.483-3.44 3.325-3.44z" opacity=".01" style="font-feature-settings:normal;font-variant-alternates:normal;font-variant-caps:normal;font-variant-east-asian:normal;font-variant-ligatures:normal;font-variant-numeric:normal;font-variant-position:normal;font-variation-settings:normal;inline-size:0;isolation:auto;mix-blend-mode:normal;shape-margin:0;shape-padding:0;text-decoration-color:#000;text-decoration-line:none;text-decoration-style:solid;text-indent:0;text-orientation:mixed;text-transform:none;white-space:normal"/><path d="M4.31 1.058c-1.866 0-3.375 1.539-3.375 3.44v8.467c0 1.9 1.57 3.439 3.435 3.439h8.2c1.866 0 3.427-1.538 3.427-3.44V4.498c0-1.9-1.51-3.439-3.375-3.439h-.097c1.794.087 3.214 1.582 3.214 3.432v7.937c0 1.906-1.506 3.44-3.377 3.44h-7.79c-1.871 0-3.377-1.534-3.377-3.44V4.49c0-1.85 1.42-3.345 3.214-3.432z" opacity=".03" style="font-feature-settings:normal;font-variant-alternates:normal;font-variant-caps:normal;font-variant-east-asian:normal;font-variant-ligatures:normal;font-variant-numeric:normal;font-variant-position:normal;font-variation-settings:normal;inline-size:0;isolation:auto;mix-blend-mode:normal;shape-margin:0;shape-padding:0;text-decoration-color:#000;text-decoration-line:none;text-decoration-style:solid;text-indent:0;text-orientation:mixed;text-transform:none;white-space:normal"/><path d="M4 46.969V49c0 6.648 5.896 12 12.544 12h30.961C54.153 61 60 55.648 60 49v-1.992a12.972 12.972 0 0 1-13 12.963H17.002A12.973 12.973 0 0 1 4 46.969z" opacity=".03" style="font-feature-settings:normal;font-variant-alternates:normal;font-variant-caps:normal;font-variant-east-asian:normal;font-variant-ligatures:normal;font-variant-numeric:normal;font-variant-position:normal;font-variation-settings:normal;inline-size:0;isolation:auto;mix-blend-mode:normal;shape-margin:0;shape-padding:0;text-decoration-color:#000;text-decoration-line:none;text-decoration-style:solid;text-indent:0;text-orientation:mixed;text-transform:none;white-space:normal" transform="scale(.26458)"/><path d="M1.058 11.906v.592c0 1.939 1.573 3.5 3.332 3.5h8.16c1.76 0 3.325-1.561 3.325-3.5v-.58c-.006 2.095-1.537 3.78-3.44 3.78H4.498c-1.905 0-3.44-1.692-3.44-3.792z" opacity=".05" style="font-feature-settings:normal;font-variant-alternates:normal;font-variant-caps:normal;font-variant-east-asian:normal;font-variant-ligatures:normal;font-variant-numeric:normal;font-variant-position:normal;font-variation-settings:normal;inline-size:0;isolation:auto;mix-blend-mode:normal;shape-margin:0;shape-padding:0;text-decoration-color:#000;text-decoration-line:none;text-decoration-style:solid;text-indent:0;text-orientation:mixed;text-transform:none;white-space:normal"/></g><path d="M-3.51 11.696c0 1.173.945 2.117 2.117 2.117h6.35c.56 0 1.065-.216 1.442-.568l.02-.018c.033-.032.064-.064.095-.098l.067-.073.028-.036a2.107 2.107 0 0 0 .465-1.623V5.285a2.112 2.112 0 0 0-2.117-2.117 2.11 2.11 0 0 0-1.904 1.196 2.11 2.11 0 0 0-2.357-.16A2.11 2.11 0 0 0-.33 6.393a2.11 2.11 0 0 0-2.025 1.05 2.111 2.111 0 0 0 .124 2.308 2.111 2.111 0 0 0-1.277 1.944z" filter="url(#b)" opacity=".15" transform="rotate(90 4.963 12.296)"/><g stroke-linecap="round" stroke-linejoin="round"><path fill="url(#c)" stroke="#7f7f7f" stroke-opacity=".2" stroke-width=".053" d="M14.084 11.641a2.112 2.112 0 0 1-2.117 2.117h-6.35c-1.172 0-2.116-.944-2.116-2.117s.944-2.117 2.116-2.117h6.35c1.173 0 2.117.944 2.117 2.117z"/><g stroke-opacity=".15" stroke-width=".053"><g transform="rotate(90 5.19 12.069)"><rect width="3.175" height="1.323" x="3.175" y="8.793" fill="none" stroke="#fdfdfd" rx=".265" ry=".265"/><rect width="3.175" height="1.323" x="3.175" y="7.205" fill="none" stroke="#fdfdfd" rx=".265" ry=".265"/><rect width="3.175" height="1.323" x="3.175" y="8.731" fill="#bb1112" stroke="#000" rx=".265" ry=".265"/><rect width="3.175" height="1.323" x="3.175" y="5.618" fill="none" stroke="#fdfdfd" rx=".265" ry=".265"/><rect width="3.175" height="1.323" x="3.175" y="7.144" fill="#c72020" stroke="#000" rx=".265" ry=".265"/><path fill="none" stroke="#fdfdfd" d="M4.762 3.766c-.812 0-1.477.604-1.574 1.39a.26.26 0 0 0 .252.197h2.645a.26.26 0 0 0 .251-.197 1.583 1.583 0 0 0-1.574-1.39z"/><rect width="3.175" height="1.323" x="3.175" y="5.556" fill="#d22b2b" stroke="#000" rx=".265" ry=".265"/></g><path fill="#db3636" stroke="#000" d="M13.555 11.641c0-.812-.605-1.477-1.39-1.574a.26.26 0 0 0-.198.252v2.645a.26.26 0 0 0 .198.251 1.583 1.583 0 0 0 1.39-1.574z"/></g><path fill="url(#d)" stroke="#7f7f7f" stroke-opacity=".2" stroke-width=".053" d="M4.762 3.175c1.173 0 2.117.944 2.117 2.117v6.35c0 1.172-.944 2.116-2.117 2.116s-2.116-.944-2.116-2.117v-6.35c0-1.172.944-2.116 2.116-2.116z" transform="rotate(60 5.264 12.454)"/><g stroke-opacity=".15" stroke-width=".053"><g transform="rotate(60 5.264 12.454)"><rect width="3.175" height="1.323" x="3.175" y="8.793" fill="none" stroke="#fdfdfd" rx=".265" ry=".265"/><rect width="3.175" height="1.323" x="3.175" y="7.205" fill="none" stroke="#fdfdfd" rx=".265" ry=".265"/><rect width="3.175" height="1.323" x="3.175" y="8.731" fill="#ce5801" stroke="#000" rx=".265" ry=".265"/><rect width="3.175" height="1.323" x="3.175" y="5.618" fill="none" stroke="#fdfdfd" rx=".265" ry=".265"/><rect width="3.175" height="1.323" x="3.175" y="7.144" fill="#dd6d01" stroke="#000" rx=".265" ry=".265"/><path fill="none" stroke="#fdfdfd" d="M4.762 3.766c-.812 0-1.477.604-1.574 1.39a.26.26 0 0 0 .252.197h2.645a.26.26 0 0 0 .251-.197 1.583 1.583 0 0 0-1.574-1.39z"/><rect width="3.175" height="1.323" x="3.175" y="5.556" fill="#e57d00" stroke="#000" rx=".265" ry=".265"/></g><path fill="#ed8b01" stroke="#000" d="M12.59 7.645a1.583 1.583 0 0 0-1.99-.668.26.26 0 0 0-.045.316l1.322 2.291a.26.26 0 0 0 .297.119 1.583 1.583 0 0 0 .417-2.058z"/></g><path fill="url(#e)" stroke="#7f7f7f" stroke-opacity=".2" stroke-width=".053" d="M4.762 3.175c1.173 0 2.117.944 2.117 2.117v6.35c0 1.172-.944 2.116-2.117 2.116s-2.116-.944-2.116-2.117v-6.35c0-1.172.944-2.116 2.116-2.116z" transform="rotate(30 5.133 13.168)"/><g stroke-opacity=".15" stroke-width=".053"><g transform="rotate(30 5.133 13.168)"><rect width="3.175" height="1.323" x="3.175" y="8.793" fill="none" stroke="#fdfdfd" rx=".265" ry=".265"/><rect width="3.175" height="1.323" x="3.175" y="7.205" fill="none" stroke="#fdfdfd" rx=".265" ry=".265"/><rect width="3.175" height="1.323" x="3.175" y="8.731" fill="#d68f01" stroke="#000" rx=".265" ry=".265"/><rect width="3.175" height="1.323" x="3.175" y="5.618" fill="none" stroke="#fdfdfd" rx=".265" ry=".265"/><rect width="3.175" height="1.323" x="3.175" y="7.144" fill="#e3a101" stroke="#000" rx=".265" ry=".265"/><path fill="none" stroke="#fdfdfd" d="M4.762 3.766c-.812 0-1.477.604-1.574 1.39a.26.26 0 0 0 .252.197h2.645a.26.26 0 0 0 .251-.197 1.583 1.583 0 0 0-1.574-1.39z"/><rect width="3.175" height="1.323" x="3.175" y="5.556" fill="#eaad01" stroke="#000" rx=".265" ry=".265"/></g><path fill="#f2b800" stroke="#000" d="M9.544 4.787a1.583 1.583 0 0 0-2.058.416.26.26 0 0 0 .119.297l2.291 1.323a.26.26 0 0 0 .316-.046 1.583 1.583 0 0 0-.668-1.99z"/></g><path fill="url(#f)" stroke="#7f7f7f" stroke-opacity=".2" stroke-width=".053" d="M4.762 3.175c1.173 0 2.117.944 2.117 2.117v6.35c0 1.172-.944 2.116-2.117 2.116s-2.116-.944-2.116-2.117v-6.35c0-1.172.944-2.116 2.116-2.116z" transform="translate(.794)"/><g stroke-opacity=".15" stroke-width=".053"><g transform="translate(.794)"><rect width="3.175" height="1.323" x="3.175" y="8.793" fill="none" stroke="#fdfdfd" rx=".265" ry=".265"/><rect width="3.175" height="1.323" x="3.175" y="7.205" fill="none" stroke="#fdfdfd" rx=".265" ry=".265"/><rect width="3.175" height="1.323" x="3.175" y="8.731" fill="#29860a" stroke="#000" rx=".265" ry=".265"/><rect width="3.175" height="1.323" x="3.175" y="5.618" fill="none" stroke="#fdfdfd" rx=".265" ry=".265"/><rect width="3.175" height="1.323" x="3.175" y="7.144" fill="#3b9a1a" stroke="#000" rx=".265" ry=".265"/><path fill="none" stroke="#fdfdfd" d="M4.762 3.766c-.812 0-1.477.604-1.574 1.39a.26.26 0 0 0 .252.197h2.645a.26.26 0 0 0 .251-.197 1.583 1.583 0 0 0-1.574-1.39z"/><rect width="3.175" height="1.323" x="3.175" y="5.556" fill="#4eaa2a" stroke="#000" rx=".265" ry=".265"/></g><path fill="#5db837" stroke="#000" d="M5.556 3.704c-.812 0-1.477.605-1.574 1.39a.26.26 0 0 0 .251.198H6.88a.26.26 0 0 0 .251-.198 1.583 1.583 0 0 0-1.574-1.39z"/></g><g transform="translate(.794)"><circle cx="4.762" cy="11.906" r="1.323" fill="url(#g)"/><circle cx="4.762" cy="11.641" r="1.058" fill="url(#h)"/><circle cx="4.762" cy="11.641" r="1.058" fill="url(#i)" opacity=".35"/><circle cx="4.762" cy="11.641" r=".644" fill="url(#j)"/><circle cx="4.762" cy="11.641" r=".404" fill="url(#k)"/><path fill="url(#l)" d="M17.939 40a4 4 0 0 0-.045.002A3.77 3.5 0 0 1 18 40a4 4 0 0 0-.061 0zm-.045.002a4 4 0 0 0-.166.008 3.77 3.5 0 0 1 .166-.008zm-2.293.797a4 4 0 0 0-.125.1 3.77 3.5 0 0 1 .125-.1zm-.125.1A4 4 0 0 0 14 44a4 4 0 0 0 4 4 4 4 0 0 0 4-4 4 4 0 0 0-1.554-3.164A3.77 3.5 0 0 1 21.77 43.5a3.77 3.5 0 0 1-3.772 3.5 3.77 3.5 0 0 1-3.771-3.5 3.77 3.5 0 0 1 1.248-2.602z" filter="url(#m)" transform="scale(.26458)"/><path fill="url(#n)" d="M17.98 41.564A2.435 2.435 0 0 0 15.564 44 2.435 2.435 0 0 0 18 46.434a2.435 2.435 0 0 0 2.435-2.436A2.435 2.435 0 0 0 18 41.564a2.435 2.435 0 0 0-.02 0zm-.03.436a2 2 0 0 1 .05 0 2 2 0 0 1 2 2 2 2 0 0 1-2 2 2 2 0 0 1-2-2 2 2 0 0 1 1.95-2z" opacity=".35" transform="scale(.26458)"/></g></g></svg>