<svg width="64" height="64" viewBox="0 0 16.933 16.933" xmlns:xlink="http://www.w3.org/1999/xlink" xmlns="http://www.w3.org/2000/svg"><defs><linearGradient id="b"><stop style="stop-color:#fff;stop-opacity:1" offset="0"/><stop style="stop-color:#e4daff;stop-opacity:1" offset="1"/></linearGradient><linearGradient id="a"><stop style="stop-color:#fff;stop-opacity:1" offset="0"/><stop style="stop-color:#6742cc;stop-opacity:1" offset="1"/></linearGradient><linearGradient id="d" x1="8.501" x2="8.489" y1="16.007" y2=".794" gradientUnits="userSpaceOnUse"><stop stop-color="#a97fa1" offset="0" style="stop-color:#6742cc;stop-opacity:1"/><stop stop-color="#be9db7" offset="1" style="stop-color:#5348cb;stop-opacity:1"/></linearGradient><filter id="c" x="-.048" y="-.048" width="1.096" height="1.096" color-interpolation-filters="sRGB"><feGaussianBlur stdDeviation=".307"/></filter><filter style="color-interpolation-filters:sRGB" id="e" x="-.075" y="-.075" width="1.15" height="1.15"><feGaussianBlur stdDeviation=".364"/></filter><radialGradient xlink:href="#b" id="f" cx="8.467" cy="8.467" fx="8.467" fy="8.467" r="5.821" gradientUnits="userSpaceOnUse"/></defs><g stroke-linecap="round" stroke-linejoin="round"><rect transform="matrix(.99138 0 0 1 .073 .112)" x=".794" y=".794" width="15.346" height="15.346" rx="3.053" ry="3.053" fill="#2e3440" filter="url(#c)" opacity=".2"/><rect x=".926" y=".926" width="15.081" height="15.081" rx="3" ry="3" fill="url(#d)"/><path fill="none" opacity=".15" d="M.012.006h16.924v16.927H.012z"/></g><path style="fill:#2e3440;fill-opacity:1;stroke-width:.0291456;filter:url(#e);opacity:.25" d="m7.849 14.281-.292-.044a6.539 6.539 0 0 1-1.177-.308C4.58 13.22 3.278 11.76 2.805 9.915c-.145-.563-.16-.71-.16-1.488.001-.68.007-.753.08-1.097a6.026 6.026 0 0 1 1.34-2.704A5.934 5.934 0 0 1 7.803 2.67c.426-.05 1.318-.02 1.722.06 2.44.476 4.25 2.324 4.696 4.794.064.354.088 1.244.044 1.608-.31 2.536-2.156 4.54-4.667 5.065-.316.066-.45.078-1.02.087-.361.006-.69.004-.73-.002zm2.34-3.073 1.683-.418v-.826l-1.705.426-1.706.426-1.705-.426-1.706-.426v.83l1.698.423c.934.233 1.712.42 1.728.416l1.712-.425zm0-1.899 1.682-.416v-.417c.001-.384-.003-.416-.05-.402-.028.009-.795.202-1.705.429l-1.655.412-1.654-.412c-.91-.227-1.678-.42-1.706-.429-.047-.014-.051.018-.051.402v.418l1.654.412c.91.226 1.688.413 1.728.415.04.002.83-.183 1.756-.412zm-.09-1.887L11.808 7c.064-.015.065-.024.065-.43v-.416l-1.704-.425-1.703-.424-1.708.422-1.707.421v.837l.08.02c.352.089 3.292.82 3.308.823.011.001.759-.18 1.662-.405z"/><path style="fill:url(#f);stroke-width:.0291456;fill-opacity:1" d="m7.849 14.281-.292-.044a6.54 6.54 0 0 1-1.177-.308C4.58 13.22 3.278 11.76 2.805 9.915c-.145-.563-.16-.71-.16-1.488.001-.68.007-.753.08-1.097a6.026 6.026 0 0 1 1.34-2.704A5.934 5.934 0 0 1 7.803 2.67c.426-.05 1.318-.02 1.722.06 2.44.476 4.25 2.324 4.696 4.794.064.354.088 1.244.044 1.608-.31 2.536-2.156 4.54-4.667 5.065-.316.066-.45.078-1.02.087-.361.006-.69.004-.73-.002zm2.34-3.073 1.683-.418v-.826l-1.705.426-1.706.426-1.705-.426-1.706-.426v.83l1.698.423c.934.233 1.712.42 1.728.416l1.712-.425zm0-1.899 1.682-.416v-.417c.001-.384-.003-.416-.05-.402-.028.009-.795.202-1.705.429l-1.655.412-1.654-.412c-.91-.227-1.678-.42-1.706-.429-.047-.014-.051.018-.051.402v.418l1.654.412c.91.226 1.688.413 1.728.415.04.002.83-.183 1.756-.412zm-.09-1.887L11.808 7c.064-.015.065-.024.065-.43v-.416l-1.704-.425-1.703-.424-1.708.422-1.707.421v.837l.08.02c.352.089 3.292.82 3.308.823.011.001.759-.18 1.662-.405z"/></svg>