<svg xmlns="http://www.w3.org/2000/svg" xmlns:xlink="http://www.w3.org/1999/xlink" width="64" height="64" enable-background="new 0 0 1024 1024" image-rendering="optimizeSpeed"><defs><linearGradient id="c"><stop offset="0" stop-color="#fff"/><stop offset="1" stop-color="#00e6e7" stop-opacity="0"/></linearGradient><linearGradient id="b"><stop offset="0" stop-opacity="0"/><stop offset="1" stop-color="#0087be"/></linearGradient><linearGradient id="a"><stop offset="0"/><stop offset="1" stop-opacity="0"/></linearGradient><linearGradient id="d" x1="7.937" x2="7.937" y1="15.081" y2="1.852" gradientTransform="translate(0 .032) scale(3.7795)" gradientUnits="userSpaceOnUse"><stop offset="0" stop-color="#292929"/><stop offset="1" stop-color="#4d4d4d"/></linearGradient><linearGradient id="e" x1="94.143" x2="98.838" y1="25.985" y2="29.167" gradientTransform="translate(-65.429 1.71)" gradientUnits="userSpaceOnUse" xlink:href="#a"/><linearGradient id="h" x1="25.952" x2="32.666" y1="25.495" y2="30.692" gradientTransform="translate(.121 .063)" gradientUnits="userSpaceOnUse" xlink:href="#b"/><linearGradient id="i" x1="28.076" x2="41.086" y1="21.353" y2="45.804" gradientTransform="translate(.121 .063)" gradientUnits="userSpaceOnUse" xlink:href="#c"/><filter id="g" width="1.038" height="1.064" x="-.019" y="-.032" color-interpolation-filters="sRGB"><feGaussianBlur stdDeviation=".248"/></filter><filter id="f" width="1.038" height="1.064" x="-.019" y="-.032" color-interpolation-filters="sRGB"><feGaussianBlur stdDeviation=".248"/></filter></defs><g color="#000" image-rendering="auto"><path d="M16.514 2C8.524 2 2 8.74 2 16.998v32.004C2 57.259 8.523 64 16.514 64h30.972C55.476 64 62 57.26 62 49.002V16.998C62 8.741 55.477 2 47.486 2zm.972 1.969h29.03c6.97 0 12.583 5.798 12.583 13.002v29.998c0 7.203-5.612 13.001-12.583 13.001h-29.03c-6.971 0-12.583-5.798-12.583-13.001V16.97c0-7.204 5.612-13.002 12.583-13.002z" enable-background="accumulate" opacity=".01"/><path d="M16.474 3C9.04 3 3.004 9.247 3.004 16.938v32.125C3.004 56.753 9.04 63 16.474 63h31.054C54.962 63 61 56.753 61 49.063V16.938C61 9.247 54.962 3 47.528 3zm1.029.969h28.996c6.963 0 12.568 5.798 12.568 13.002v29.997c0 7.204-5.605 13.002-12.568 13.002H17.503c-6.963 0-12.568-5.798-12.568-13.002V16.971c0-7.204 5.606-13.002 12.568-13.002z" enable-background="accumulate" opacity=".01"/><path d="M16.289 4C9.237 4 3.532 9.814 3.532 16.998v32.004C3.532 56.186 9.466 62 16.518 62h30.991c7.052 0 12.954-5.814 12.954-12.998V16.998C60.463 9.814 54.756 4 47.705 4h-.366c6.78.327 12.147 5.979 12.147 12.97v30c0 7.203-5.692 13.002-12.763 13.002H17.28c-7.071 0-12.763-5.8-12.763-13.002v-30C4.516 9.979 9.883 4.328 16.663 4z" enable-background="accumulate" opacity=".03"/><path d="M4 46.97V49c0 6.648 5.896 12 12.544 12h30.961C54.153 61 60 55.649 60 49v-1.992a12.972 12.972 0 0 1-13 12.963H17.002A12.973 12.973 0 0 1 4 46.97z" enable-background="accumulate" opacity=".03"/><path d="M4 45v2.239c0 7.327 5.945 13.226 12.593 13.226h30.842c6.648 0 12.565-5.9 12.565-13.226v-2.196c-.021 7.919-5.81 14.287-13 14.287H17.002C9.8 59.33 4 52.94 4 45z" enable-background="accumulate" opacity=".05"/></g><rect width="56" height="56" x="4" y="4" fill="url(#d)" rx="13.002" ry="13.002"/><path fill="url(#e)" fill-rule="evenodd" d="m32.59 37.122.002.004h10.351a.681.681 0 0 0 .478-.195c.015-.014.155-.148.362-.371v.006l3.459-3.459a.685.685 0 0 0 0-.968l-3.27-3.27c-.3-.326-.521-.525-.54-.544a.682.682 0 0 0-.489-.206h-7.777l-13.392-9.376a.684.684 0 0 0-.953.167l-4.38 6.257a.685.685 0 0 0 .167.953L32.147 37c.134.094.29.133.443.122z" clip-rule="evenodd" filter="url(#f)" opacity=".2"/><path fill-rule="evenodd" d="m32.59 28.025.002-.004h10.351a.68.68 0 0 1 .478.195c.015.014.155.147.362.37v-.005l3.459 3.458c.266.267.266.7 0 .968l-3.27 3.27c-.3.327-.521.525-.54.544a.682.682 0 0 1-.489.206h-7.777l-13.392 9.377a.684.684 0 0 1-.953-.167l-4.38-6.257a.685.685 0 0 1 .167-.953l15.539-10.88a.677.677 0 0 1 .442-.122z" clip-rule="evenodd" filter="url(#g)" opacity=".2"/><path fill="#88d9d9" fill-rule="evenodd" d="M32.708 36.498a.683.683 0 0 1-.44-.122l-15.54-10.88a.685.685 0 0 1-.167-.953l4.381-6.257a.683.683 0 0 1 .953-.168l13.397 9.38h7.772a.69.69 0 0 1 .49.206c.018.02.226.207.513.517l3.295 3.296c.267.267.267.7 0 .968l-3.465 3.464v-.004c-.203.22-.34.351-.355.365a.682.682 0 0 1-.478.195h-10.35z" clip-rule="evenodd"/><path fill="url(#h)" fill-rule="evenodd" d="M32.708 36.498a.683.683 0 0 1-.44-.122l-15.54-10.88a.685.685 0 0 1-.167-.953l4.381-6.257a.683.683 0 0 1 .953-.168l13.397 9.38h7.772a.69.69 0 0 1 .49.206c.018.02.226.207.513.517l3.295 3.296c.267.267.267.7 0 .968l-3.465 3.464v-.004c-.203.22-.34.351-.355.365a.682.682 0 0 1-.478.195h-10.35z" clip-rule="evenodd" opacity=".15"/><path fill="#00e6e7" fill-rule="evenodd" d="m32.71 27.503.003-.004h10.351c.186 0 .355.074.478.194.015.014.155.148.362.371v-.006l3.459 3.459c.266.267.266.7 0 .968l-3.27 3.27c-.3.326-.521.524-.54.543a.682.682 0 0 1-.489.207h-7.777l-13.392 9.377a.684.684 0 0 1-.953-.168l-4.38-6.257a.685.685 0 0 1 .167-.953l15.539-10.88a.677.677 0 0 1 .442-.121z" clip-rule="evenodd"/><path fill="url(#i)" fill-rule="evenodd" d="m32.71 27.503.003-.004h10.351c.186 0 .355.074.478.194.015.014.155.148.362.371v-.006l3.459 3.459c.266.267.266.7 0 .968l-3.27 3.27c-.3.326-.521.524-.54.543a.682.682 0 0 1-.489.207h-7.777l-13.392 9.377a.684.684 0 0 1-.953-.168l-4.38-6.257a.685.685 0 0 1 .167-.953l15.539-10.88a.677.677 0 0 1 .442-.121z" clip-rule="evenodd"/></svg>