<svg width="64" height="64" enable-background="new 0 0 1024 1024" image-rendering="optimizeSpeed" xmlns="http://www.w3.org/2000/svg" xmlns:xlink="http://www.w3.org/1999/xlink"><defs><linearGradient id="a"><stop offset="0"/><stop stop-opacity="0" offset="1"/></linearGradient><linearGradient id="d" x1="116.53" x2="211.49" y1="400.49" y2="324.75" gradientTransform="matrix(.11943 0 0 .07962 10.946 9.537)" gradientUnits="userSpaceOnUse"><stop stop-color="#FF9700" offset="0"/><stop stop-color="#F48E00" offset=".574"/><stop stop-color="#CE6E00" offset="1"/></linearGradient><linearGradient id="b" x1="7.937" x2="7.937" y1="15.081" y2="1.852" gradientTransform="translate(0 .032) scale(3.7795)" gradientUnits="userSpaceOnUse"><stop stop-color="#292929" offset="0"/><stop stop-color="#4d4d4d" offset="1"/></linearGradient><linearGradient id="f" x1="20.308" x2="45.273" y1="31.404" y2="31.404" gradientUnits="userSpaceOnUse" xlink:href="#a"/><linearGradient id="e" x1="287.63" x2="79.111" y1="340.31" y2="340.31" gradientTransform="matrix(.11943 0 0 .07962 10.946 9.468)" gradientUnits="userSpaceOnUse" xlink:href="#a"/><linearGradient id="g" x1="20.308" x2="45.272" y1="23.514" y2="23.514" gradientUnits="userSpaceOnUse"><stop stop-color="#ff9800" offset="0"/><stop stop-color="#ffc522" offset="1"/></linearGradient><filter id="c" x="-.041" y="-.062" width="1.083" height="1.124" color-interpolation-filters="sRGB"><feGaussianBlur stdDeviation="6.771"/></filter></defs><g color="#000" image-rendering="auto"><path d="M4.37.53C2.254.53.53 2.312.53 4.496v8.468c0 2.184 1.725 3.968 3.84 3.968h8.194c2.114 0 3.84-1.783 3.84-3.968V4.497c0-2.184-1.726-3.968-3.84-3.968zm.256.52h7.681c1.844 0 3.33 1.534 3.33 3.44v7.937c0 1.906-1.485 3.44-3.33 3.44h-7.68c-1.845 0-3.33-1.534-3.33-3.44V4.49c0-1.906 1.485-3.44 3.33-3.44z" enable-background="accumulate" opacity=".01" style="font-feature-settings:normal;font-variant-alternates:normal;font-variant-caps:normal;font-variant-east-asian:normal;font-variant-ligatures:normal;font-variant-numeric:normal;font-variant-position:normal;font-variation-settings:normal;inline-size:0;isolation:auto;mix-blend-mode:normal;shape-margin:0;shape-padding:0;text-decoration-color:#000;text-decoration-line:none;text-decoration-style:solid;text-indent:0;text-orientation:mixed;text-transform:none;white-space:normal" transform="scale(3.7796)"/><path d="M4.359.794C2.392.794.795 2.447.795 4.48v8.5c0 2.035 1.597 3.688 3.564 3.688h8.216c1.967 0 3.564-1.653 3.564-3.688v-8.5c0-2.034-1.597-3.687-3.564-3.687zm.272.256h7.672c1.842 0 3.325 1.534 3.325 3.44v7.937c0 1.906-1.483 3.44-3.325 3.44H4.63c-1.842 0-3.325-1.534-3.325-3.44V4.49c0-1.906 1.483-3.44 3.325-3.44z" enable-background="accumulate" opacity=".01" style="font-feature-settings:normal;font-variant-alternates:normal;font-variant-caps:normal;font-variant-east-asian:normal;font-variant-ligatures:normal;font-variant-numeric:normal;font-variant-position:normal;font-variation-settings:normal;inline-size:0;isolation:auto;mix-blend-mode:normal;shape-margin:0;shape-padding:0;text-decoration-color:#000;text-decoration-line:none;text-decoration-style:solid;text-indent:0;text-orientation:mixed;text-transform:none;white-space:normal" transform="scale(3.7796)"/><path d="M4.31 1.058c-1.866 0-3.375 1.539-3.375 3.44v8.467c0 1.9 1.57 3.439 3.435 3.439h8.2c1.866 0 3.427-1.538 3.427-3.44V4.498c0-1.9-1.51-3.439-3.375-3.439h-.097c1.794.087 3.214 1.582 3.214 3.432v7.937c0 1.906-1.506 3.44-3.377 3.44h-7.79c-1.871 0-3.377-1.534-3.377-3.44V4.49c0-1.85 1.42-3.345 3.214-3.432z" enable-background="accumulate" opacity=".03" style="font-feature-settings:normal;font-variant-alternates:normal;font-variant-caps:normal;font-variant-east-asian:normal;font-variant-ligatures:normal;font-variant-numeric:normal;font-variant-position:normal;font-variation-settings:normal;inline-size:0;isolation:auto;mix-blend-mode:normal;shape-margin:0;shape-padding:0;text-decoration-color:#000;text-decoration-line:none;text-decoration-style:solid;text-indent:0;text-orientation:mixed;text-transform:none;white-space:normal" transform="scale(3.7796)"/><path d="M4 46.969V49c0 6.648 5.896 12 12.544 12h30.961C54.153 61 60 55.648 60 49v-1.992a12.972 12.972 0 0 1-13 12.963H17.002A12.973 12.973 0 0 1 4 46.969z" enable-background="accumulate" opacity=".03" style="font-feature-settings:normal;font-variant-alternates:normal;font-variant-caps:normal;font-variant-east-asian:normal;font-variant-ligatures:normal;font-variant-numeric:normal;font-variant-position:normal;font-variation-settings:normal;inline-size:0;isolation:auto;mix-blend-mode:normal;shape-margin:0;shape-padding:0;text-decoration-color:#000;text-decoration-line:none;text-decoration-style:solid;text-indent:0;text-orientation:mixed;text-transform:none;white-space:normal"/><path d="M1.058 11.906v.592c0 1.939 1.573 3.5 3.332 3.5h8.16c1.76 0 3.325-1.561 3.325-3.5v-.58c-.006 2.095-1.537 3.78-3.44 3.78H4.498c-1.905 0-3.44-1.692-3.44-3.792z" enable-background="accumulate" opacity=".05" style="font-feature-settings:normal;font-variant-alternates:normal;font-variant-caps:normal;font-variant-east-asian:normal;font-variant-ligatures:normal;font-variant-numeric:normal;font-variant-position:normal;font-variation-settings:normal;inline-size:0;isolation:auto;mix-blend-mode:normal;shape-margin:0;shape-padding:0;text-decoration-color:#000;text-decoration-line:none;text-decoration-style:solid;text-indent:0;text-orientation:mixed;text-transform:none;white-space:normal" transform="scale(3.7796)"/></g><rect x="4" y="4" width="56" height="56" rx="13.002" ry="13.002" fill="url(#b)"/><path transform="translate(.254 -.422) scale(.06356)" d="M708.28 512.08c0-5.982-4.42-9.43-9.842-7.717l-373.08 118.34c-5.434 1.725-9.843 7.979-9.843 13.95v120.95c0 5.982 4.409 9.442 9.843 7.717l373.08-118.33c5.423-1.725 9.842-7.979 9.842-13.961z" filter="url(#c)" opacity=".2"/><path d="M45.272 31.49c0-.38-.28-.6-.626-.49l-23.713 7.52c-.345.11-.625.507-.625.887v7.688c0 .38.28.6.625.49l23.713-7.521c.345-.11.626-.507.626-.887z" fill="url(#d)"/><path transform="translate(.254 -.422) scale(.06356)" d="M315.52 508.9c0 5.981 4.408 12.235 9.841 13.96l373.09 118.35c5.433 1.724 9.841-1.735 9.841-7.706v-120.96c0-5.97-4.408-12.224-9.841-13.949l-373.09-118.35c-5.433-1.724-9.841 1.725-9.841 7.706z" filter="url(#c)" opacity=".2"/><path d="M45.272 31.421c0-.38-.28-.6-.626-.49l-23.713 7.521c-.345.11-.625.507-.625.887v7.688c0 .38.28.6.625.49l23.713-7.521c.345-.11.626-.507.626-.887z" fill="url(#e)" opacity=".15"/><path d="M20.308 31.287c0 .38.28.778.625.887l23.713 7.522c.346.11.626-.11.626-.49V31.52c0-.38-.28-.777-.626-.887L20.933 23.11c-.345-.11-.625.11-.625.49z" fill="#ff9800"/><path transform="translate(.254 -.422) scale(.06356)" d="M708.28 263.84c0-5.982-4.42-9.442-9.842-7.717l-373.08 118.33c-5.434 1.724-9.843 7.979-9.843 13.96v120.95c0 5.982 4.409 9.432 9.843 7.718l373.08-118.34c5.423-1.725 9.842-7.979 9.842-13.95z" filter="url(#c)" opacity=".2"/><path d="M20.308 31.287c0 .38.28.778.625.887l23.713 7.522c.346.11.626-.11.626-.49V31.52c0-.38-.28-.777-.626-.887L20.933 23.11c-.345-.11-.625.11-.625.49z" fill="url(#f)" opacity=".15"/><path d="M45.272 15.712c0-.38-.28-.6-.626-.49l-23.713 7.52c-.345.11-.625.508-.625.888v7.688c0 .38.28.6.625.49l23.713-7.522c.345-.11.626-.507.626-.886z" fill="url(#g)"/></svg>