<svg xmlns="http://www.w3.org/2000/svg" xmlns:xlink="http://www.w3.org/1999/xlink" width="64" height="64"><defs><linearGradient id="a"><stop offset="0" stop-color="#68b0e3"/><stop offset="1" stop-color="#6884e3"/></linearGradient><linearGradient xlink:href="#a" id="e" x1="18.002" x2="18.002" y1="12" y2="24.003" gradientUnits="userSpaceOnUse"/><linearGradient xlink:href="#a" id="d" x1="30.004" x2="30.004" y1="12" y2="24.003" gradientUnits="userSpaceOnUse"/><linearGradient xlink:href="#a" id="f" x1="30.004" x2="30.004" y1="24" y2="35.999" gradientUnits="userSpaceOnUse"/><linearGradient id="g" x1="18.002" x2="18.002" y1="24" y2="35.999" gradientUnits="userSpaceOnUse"><stop offset="0" stop-color="#eeee4c"/><stop offset="1" stop-color="#ebf06f"/></linearGradient><linearGradient id="b" x1="7.937" x2="7.937" y1="15.081" y2="1.852" gradientTransform="translate(0 .032)scale(3.7795)" gradientUnits="userSpaceOnUse"><stop offset="0" stop-color="#292929"/><stop offset="1" stop-color="#4d4d4d"/></linearGradient><filter id="c" width="1.12" height="1.12" x="-.06" y="-.06" color-interpolation-filters="sRGB"><feGaussianBlur stdDeviation=".783"/></filter></defs><g color="#000"><path d="M4.37.53C2.254.53.53 2.312.53 4.496v8.468c0 2.184 1.725 3.968 3.84 3.968h8.194c2.114 0 3.84-1.783 3.84-3.968V4.497c0-2.184-1.726-3.968-3.84-3.968zm.256.52h7.681c1.844 0 3.33 1.534 3.33 3.44v7.937c0 1.906-1.485 3.44-3.33 3.44h-7.68c-1.845 0-3.33-1.534-3.33-3.44V4.49c0-1.906 1.485-3.44 3.33-3.44z" opacity=".01" style="font-feature-settings:normal;font-variant-alternates:normal;font-variant-caps:normal;font-variant-east-asian:normal;font-variant-ligatures:normal;font-variant-numeric:normal;font-variant-position:normal;font-variation-settings:normal;inline-size:0;isolation:auto;mix-blend-mode:normal;shape-margin:0;shape-padding:0;text-decoration-color:#000;text-decoration-line:none;text-decoration-style:solid;text-indent:0;text-orientation:mixed;text-transform:none;white-space:normal" transform="scale(3.7796)"/><path d="M4.359.794C2.392.794.795 2.447.795 4.48v8.5c0 2.035 1.597 3.688 3.564 3.688h8.216c1.967 0 3.564-1.653 3.564-3.688v-8.5c0-2.034-1.597-3.687-3.564-3.687zm.272.256h7.672c1.842 0 3.325 1.534 3.325 3.44v7.937c0 1.906-1.483 3.44-3.325 3.44H4.63c-1.842 0-3.325-1.534-3.325-3.44V4.49c0-1.906 1.483-3.44 3.325-3.44z" opacity=".01" style="font-feature-settings:normal;font-variant-alternates:normal;font-variant-caps:normal;font-variant-east-asian:normal;font-variant-ligatures:normal;font-variant-numeric:normal;font-variant-position:normal;font-variation-settings:normal;inline-size:0;isolation:auto;mix-blend-mode:normal;shape-margin:0;shape-padding:0;text-decoration-color:#000;text-decoration-line:none;text-decoration-style:solid;text-indent:0;text-orientation:mixed;text-transform:none;white-space:normal" transform="scale(3.7796)"/><path d="M4.31 1.058c-1.866 0-3.375 1.539-3.375 3.44v8.467c0 1.9 1.57 3.439 3.435 3.439h8.2c1.866 0 3.427-1.538 3.427-3.44V4.498c0-1.9-1.51-3.439-3.375-3.439h-.097c1.794.087 3.214 1.582 3.214 3.432v7.937c0 1.906-1.506 3.44-3.377 3.44h-7.79c-1.871 0-3.377-1.534-3.377-3.44V4.49c0-1.85 1.42-3.345 3.214-3.432z" opacity=".03" style="font-feature-settings:normal;font-variant-alternates:normal;font-variant-caps:normal;font-variant-east-asian:normal;font-variant-ligatures:normal;font-variant-numeric:normal;font-variant-position:normal;font-variation-settings:normal;inline-size:0;isolation:auto;mix-blend-mode:normal;shape-margin:0;shape-padding:0;text-decoration-color:#000;text-decoration-line:none;text-decoration-style:solid;text-indent:0;text-orientation:mixed;text-transform:none;white-space:normal" transform="scale(3.7796)"/><path d="M4 46.969V49c0 6.648 5.896 12 12.544 12h30.961C54.153 61 60 55.648 60 49v-1.992a12.97 12.97 0 0 1-13 12.963H17.002A12.973 12.973 0 0 1 4 46.969" opacity=".03" style="font-feature-settings:normal;font-variant-alternates:normal;font-variant-caps:normal;font-variant-east-asian:normal;font-variant-ligatures:normal;font-variant-numeric:normal;font-variant-position:normal;font-variation-settings:normal;inline-size:0;isolation:auto;mix-blend-mode:normal;shape-margin:0;shape-padding:0;text-decoration-color:#000;text-decoration-line:none;text-decoration-style:solid;text-indent:0;text-orientation:mixed;text-transform:none;white-space:normal"/><path d="M1.058 11.906v.592c0 1.939 1.573 3.5 3.332 3.5h8.16c1.76 0 3.325-1.561 3.325-3.5v-.58c-.006 2.095-1.537 3.78-3.44 3.78H4.498c-1.905 0-3.44-1.692-3.44-3.792" opacity=".05" style="font-feature-settings:normal;font-variant-alternates:normal;font-variant-caps:normal;font-variant-east-asian:normal;font-variant-ligatures:normal;font-variant-numeric:normal;font-variant-position:normal;font-variation-settings:normal;inline-size:0;isolation:auto;mix-blend-mode:normal;shape-margin:0;shape-padding:0;text-decoration-color:#000;text-decoration-line:none;text-decoration-style:solid;text-indent:0;text-orientation:mixed;text-transform:none;white-space:normal" transform="scale(3.7796)"/></g><rect width="56" height="56" x="4" y="4" fill="url(#b)" rx="13.002" ry="13.002"/><g filter="url(#c)" opacity=".5" transform="translate(-7.814 11.068)"><path d="M42.945 5.28h9.395c1.727 0 3.128 1.4 3.128 3.127v9.4c0 1.727-1.4 3.128-3.128 3.128h-9.395a3.13 3.13 0 0 1-3.127-3.128v-9.4c0-1.727 1.4-3.127 3.127-3.127m-15.656 0h9.4c1.726 0 3.127 1.4 3.127 3.127v9.4c0 1.727-1.4 3.128-3.127 3.128h-9.4a3.13 3.13 0 0 1-3.128-3.128v-9.4c0-1.727 1.4-3.127 3.128-3.127"/><path d="M42.945 20.931h9.395a3.13 3.13 0 0 1 3.128 3.128v9.395c0 1.727-1.4 3.127-3.128 3.127h-9.395a3.13 3.13 0 0 1-3.127-3.127v-9.395c0-1.727 1.4-3.128 3.127-3.128m-15.656 0h9.4a3.13 3.13 0 0 1 3.127 3.128v9.395c0 1.727-1.4 3.127-3.127 3.127h-9.4a3.13 3.13 0 0 1-3.128-3.127v-9.395c0-1.727 1.4-3.128 3.128-3.128"/></g><path fill="url(#d)" d="M26.402 12h7.203a2.4 2.4 0 0 1 2.398 2.398v7.207a2.4 2.4 0 0 1-2.398 2.398h-7.203a2.4 2.4 0 0 1-2.398-2.398v-7.207A2.4 2.4 0 0 1 26.402 12" transform="translate(.696 .696)scale(1.3043)"/><path fill="url(#e)" d="M14.398 12h7.207a2.4 2.4 0 0 1 2.398 2.398v7.207a2.4 2.4 0 0 1-2.398 2.398h-7.207A2.4 2.4 0 0 1 12 21.605v-7.207A2.4 2.4 0 0 1 14.398 12" transform="translate(.696 .696)scale(1.3043)"/><path fill="url(#f)" d="M26.402 24h7.203a2.4 2.4 0 0 1 2.398 2.398v7.203a2.4 2.4 0 0 1-2.398 2.398h-7.203a2.4 2.4 0 0 1-2.398-2.398v-7.203A2.4 2.4 0 0 1 26.402 24" transform="translate(.696 .696)scale(1.3043)"/><path fill="url(#g)" d="M14.398 24h7.207a2.4 2.4 0 0 1 2.398 2.398v7.203a2.4 2.4 0 0 1-2.398 2.398h-7.207A2.4 2.4 0 0 1 12 33.601v-7.203A2.4 2.4 0 0 1 14.398 24" transform="translate(.696 .696)scale(1.3043)"/></svg>