<svg xmlns="http://www.w3.org/2000/svg" width="64" height="64" image-rendering="optimizeSpeed"><defs><linearGradient id="a" x1="7.937" x2="7.937" y1="15.081" y2="1.852" gradientTransform="translate(0 .032)scale(3.7795)" gradientUnits="userSpaceOnUse"><stop offset="0" stop-color="#292929"/><stop offset="1" stop-color="#4d4d4d"/></linearGradient><linearGradient id="b" x1="148.93" x2="155.51" y1="873.19" y2="886.31" gradientTransform="translate(238.52 -125.13)scale(.73261)" gradientUnits="userSpaceOnUse"><stop offset="0" stop-color="#e6b793"/><stop offset="1" stop-color="#ea9f68"/></linearGradient><linearGradient id="c" x1="58.184" x2="64.173" y1="992.95" y2="979.05" gradientTransform="translate(325.39 -203.62)scale(.73261)" gradientUnits="userSpaceOnUse"><stop offset="0" stop-color="#da9e61"/><stop offset="1" stop-color="#ffc08d"/></linearGradient><linearGradient id="d" x1="54.138" x2="57.452" y1="1022.3" y2="1020.6" gradientTransform="translate(325.39 -203.62)scale(.73261)" gradientUnits="userSpaceOnUse"><stop offset="0" stop-color="#894e24"/><stop offset="1" stop-color="#75411b"/></linearGradient><linearGradient id="e" x1="69.802" x2="65.326" y1="1014" y2="1001.7" gradientTransform="translate(325.39 -203.62)scale(.73261)" gradientUnits="userSpaceOnUse"><stop offset="0" stop-color="#cd7b3c"/><stop offset="1" stop-color="#d99663"/></linearGradient><linearGradient id="f" x1="38.672" x2="44.922" y1="1020.1" y2="1022.7" gradientTransform="translate(325.39 -203.62)scale(.73261)" gradientUnits="userSpaceOnUse"><stop offset="0" stop-color="#552c0f"/><stop offset="1" stop-color="#783e16"/></linearGradient><linearGradient id="g" x1="26.575" x2="35.322" y1="1014.5" y2="1002.5" gradientTransform="translate(325.39 -203.62)scale(.73261)" gradientUnits="userSpaceOnUse"><stop offset="0" stop-color="#d38755"/><stop offset="1" stop-color="#dda375"/></linearGradient></defs><g color="#000" image-rendering="auto"><path d="M4.37.53C2.254.53.53 2.312.53 4.496v8.468c0 2.184 1.725 3.968 3.84 3.968h8.194c2.114 0 3.84-1.783 3.84-3.968V4.497c0-2.184-1.726-3.968-3.84-3.968zm.256.52h7.681c1.844 0 3.33 1.534 3.33 3.44v7.937c0 1.906-1.485 3.44-3.33 3.44h-7.68c-1.845 0-3.33-1.534-3.33-3.44V4.49c0-1.906 1.485-3.44 3.33-3.44z" opacity=".01" style="font-feature-settings:normal;font-variant-alternates:normal;font-variant-caps:normal;font-variant-east-asian:normal;font-variant-ligatures:normal;font-variant-numeric:normal;font-variant-position:normal;font-variation-settings:normal;inline-size:0;isolation:auto;mix-blend-mode:normal;shape-margin:0;shape-padding:0;text-decoration-color:#000;text-decoration-line:none;text-decoration-style:solid;text-indent:0;text-orientation:mixed;text-transform:none;white-space:normal" transform="scale(3.7796)"/><path d="M4.359.794C2.392.794.795 2.447.795 4.48v8.5c0 2.035 1.597 3.688 3.564 3.688h8.216c1.967 0 3.564-1.653 3.564-3.688v-8.5c0-2.034-1.597-3.687-3.564-3.687zm.272.256h7.672c1.842 0 3.325 1.534 3.325 3.44v7.937c0 1.906-1.483 3.44-3.325 3.44H4.63c-1.842 0-3.325-1.534-3.325-3.44V4.49c0-1.906 1.483-3.44 3.325-3.44z" opacity=".01" style="font-feature-settings:normal;font-variant-alternates:normal;font-variant-caps:normal;font-variant-east-asian:normal;font-variant-ligatures:normal;font-variant-numeric:normal;font-variant-position:normal;font-variation-settings:normal;inline-size:0;isolation:auto;mix-blend-mode:normal;shape-margin:0;shape-padding:0;text-decoration-color:#000;text-decoration-line:none;text-decoration-style:solid;text-indent:0;text-orientation:mixed;text-transform:none;white-space:normal" transform="scale(3.7796)"/><path d="M4.31 1.058c-1.866 0-3.375 1.539-3.375 3.44v8.467c0 1.9 1.57 3.439 3.435 3.439h8.2c1.866 0 3.427-1.538 3.427-3.44V4.498c0-1.9-1.51-3.439-3.375-3.439h-.097c1.794.087 3.214 1.582 3.214 3.432v7.937c0 1.906-1.506 3.44-3.377 3.44h-7.79c-1.871 0-3.377-1.534-3.377-3.44V4.49c0-1.85 1.42-3.345 3.214-3.432z" opacity=".03" style="font-feature-settings:normal;font-variant-alternates:normal;font-variant-caps:normal;font-variant-east-asian:normal;font-variant-ligatures:normal;font-variant-numeric:normal;font-variant-position:normal;font-variation-settings:normal;inline-size:0;isolation:auto;mix-blend-mode:normal;shape-margin:0;shape-padding:0;text-decoration-color:#000;text-decoration-line:none;text-decoration-style:solid;text-indent:0;text-orientation:mixed;text-transform:none;white-space:normal" transform="scale(3.7796)"/><path d="M4 46.969V49c0 6.648 5.896 12 12.544 12h30.961C54.153 61 60 55.648 60 49v-1.992a12.97 12.97 0 0 1-13 12.963H17.002A12.973 12.973 0 0 1 4 46.969" opacity=".03" style="font-feature-settings:normal;font-variant-alternates:normal;font-variant-caps:normal;font-variant-east-asian:normal;font-variant-ligatures:normal;font-variant-numeric:normal;font-variant-position:normal;font-variation-settings:normal;inline-size:0;isolation:auto;mix-blend-mode:normal;shape-margin:0;shape-padding:0;text-decoration-color:#000;text-decoration-line:none;text-decoration-style:solid;text-indent:0;text-orientation:mixed;text-transform:none;white-space:normal"/><path d="M1.058 11.906v.592c0 1.939 1.573 3.5 3.332 3.5h8.16c1.76 0 3.325-1.561 3.325-3.5v-.58c-.006 2.095-1.537 3.78-3.44 3.78H4.498c-1.905 0-3.44-1.692-3.44-3.792" opacity=".05" style="font-feature-settings:normal;font-variant-alternates:normal;font-variant-caps:normal;font-variant-east-asian:normal;font-variant-ligatures:normal;font-variant-numeric:normal;font-variant-position:normal;font-variation-settings:normal;inline-size:0;isolation:auto;mix-blend-mode:normal;shape-margin:0;shape-padding:0;text-decoration-color:#000;text-decoration-line:none;text-decoration-style:solid;text-indent:0;text-orientation:mixed;text-transform:none;white-space:normal" transform="scale(3.7796)"/></g><rect width="56" height="56" x="4" y="4" fill="url(#a)" rx="13.002" ry="13.002"/><g stroke-width="1.143"><g opacity=".03"><path d="m44.613 27.384-.001 15.787-12.623 8.16-.061-15.84z"/><path d="M19.243 27.384V43.17l12.743 8.172-.058-15.852z"/></g><g opacity=".03"><path d="m44.55 27.36-.002 15.73-12.577 8.132-.061-15.784z"/><path d="M19.271 27.36v15.73l12.697 8.143-.058-15.795z"/></g><g opacity=".03"><path d="M44.504 27.359v15.676l-12.535 8.103-.06-15.729z"/><path d="M19.313 27.359v15.676l12.653 8.114-.057-15.74z"/></g><g opacity=".03"><path d="M44.475 27.378v15.62l-12.49 8.075-.061-15.673z"/><path d="m19.373 27.378.001 15.62 12.607 8.086-.057-15.684z"/></g><g opacity=".03"><path d="M44.415 27.355v15.568L31.966 50.97l-.06-15.62z"/><path d="M19.398 27.355v15.568l12.566 8.058-.057-15.632z"/></g><g opacity=".03"><path d="M44.374 27.353v15.519l-12.409 8.021-.06-15.57z"/><path d="M19.437 27.353v15.519l12.525 8.032-.057-15.582z"/></g><g opacity=".03"><path d="M44.352 27.375v15.472L31.98 50.844l-.06-15.524z"/><path d="M19.49 27.375v15.472l12.488 8.008-.057-15.535z"/></g><g opacity=".03"><path d="M44.315 27.373V42.8L31.98 50.774l-.06-15.478z"/><path d="M19.525 27.373V42.8l12.451 7.985-.056-15.49z"/></g><g opacity=".03"><path d="M44.263 27.35v15.383l-12.3 7.952-.06-15.435z"/><path d="M19.543 27.35v15.383l12.416 7.963-.056-15.447z"/></g><g opacity=".03"><path d="m44.23 27.349-.001 15.342-12.268 7.931-.06-15.394z"/><path d="M19.575 27.349V42.69l12.383 7.942-.056-15.406z"/></g><g opacity=".03"><path d="M44.21 27.37v15.3l-12.233 7.909-.06-15.352z"/><path d="M19.624 27.37v15.3l12.35 7.92-.057-15.364z"/></g><g opacity=".03"><path d="M44.177 27.368v15.26l-12.202 7.888-.059-15.311z"/><path d="m19.655 27.368.001 15.26 12.316 7.899-.056-15.323z"/></g><g opacity=".03"><path d="M44.129 27.346v15.22l-12.17 7.868-.06-15.272z"/><path d="M19.67 27.346v15.22l12.285 7.879-.056-15.283z"/></g><g opacity=".03"><path d="m44.096 27.344-.001 15.18-12.138 7.847-.059-15.231z"/><path d="M19.702 27.344v15.18l12.252 7.858-.055-15.243z"/></g><g opacity=".03"><path d="M44.062 27.343v15.14l-12.106 7.825-.058-15.19z"/><path d="m19.733 27.343.001 15.14 12.22 7.836-.056-15.202z"/></g><g opacity=".03"><path d="M44.032 27.342v15.103l-12.076 7.807-.06-15.154z"/><path d="M19.762 27.342v15.103l12.19 7.818-.055-15.166z"/></g><g opacity=".03"><path d="m44.003 27.34-.001 15.068-12.047 7.788-.059-15.118z"/><path d="M19.79 27.34v15.068l12.161 7.799-.055-15.13z"/></g><path fill="#925c36" d="m31.92 19.649 12.47 7.718-12.385 7.769-12.53-7.77z"/><path fill="url(#b)" d="m337.71 520.17 13.566-8.397 9.213 7.585-13.563 8.418z" transform="translate(-299.378 -457.713)scale(.9191)"/><path fill="url(#c)" d="m360.47 519.37 13.595 8.415 9.283-7.551-13.633-8.453z" transform="translate(-299.378 -457.713)scale(.9191)"/><path fill="#894e24" d="M31.92 19.649v13.244l-12.384 7.77-.06-13.297z"/><path fill="#783e16" d="m31.92 19.649.001 13.244 12.384 7.77.06-13.297z"/><path fill="url(#d)" d="M374 527.77v16.353l-13.475 8.453-.065-16.408z" transform="translate(-299.378 -457.713)scale(.9191)"/><path fill="url(#e)" d="m360.56 536.18 13.566-8.397 9.283 7.55-13.633 8.453z" transform="translate(-299.378 -457.713)scale(.9191)"/><path fill="url(#f)" d="M346.92 527.77v16.353l13.602 8.464-.062-16.42z" transform="translate(-299.378 -457.713)scale(.9191)"/><path fill="url(#g)" d="m337.71 535.38 13.566 8.397 9.283-7.55-13.633-8.453z" transform="translate(-299.378 -457.713)scale(.9191)"/><g fill="#fbdf45"><path d="m19.467 27.356 12.502 7.749 12.477-7.726-12.53-7.745z" opacity=".7"/><path d="m19.467 23.856 12.502 7.749 12.477-7.726-12.53-7.745z" opacity=".7"/><path d="m19.47 23.859.027 3.532L32.02 35.13l12.428-7.739.005-3.517-12.486 7.731z" opacity=".35"/></g></g></svg>