<svg xmlns="http://www.w3.org/2000/svg" width="64" height="64"><defs><linearGradient id="e" x1="32.734" x2="32.734" y1="14.169" y2="49.545" gradientUnits="userSpaceOnUse"><stop offset="0" stop-color="#7b83eb"/><stop offset="1" stop-color="#6356f5"/></linearGradient><linearGradient id="d" x1="46.015" x2="46.015" y1="18.924" y2="43.952" gradientUnits="userSpaceOnUse"><stop offset="0" stop-color="#636bcf"/><stop offset="1" stop-color="#593edb"/></linearGradient><linearGradient id="g" x1="15.354" x2="15.354" y1="20.19" y2="45.552" gradientTransform="translate(8.828 8.466)scale(.72414)" gradientUnits="userSpaceOnUse"><stop offset="0" stop-color="#545dde"/><stop offset="1" stop-color="#3d38c7" stop-opacity=".965"/></linearGradient><linearGradient id="a" x1="7.937" x2="7.937" y1="15.081" y2="1.852" gradientTransform="translate(0 .032)scale(3.7795)" gradientUnits="userSpaceOnUse"><stop offset="0" stop-color="#f1efeb"/><stop offset="1" stop-color="#fdfcfc"/></linearGradient><filter id="h" width="1.179" height="1.149" x="-.089" y="-.074" color-interpolation-filters="sRGB"><feGaussianBlur stdDeviation=".558"/></filter><filter id="f" width="1.311" height="1.311" x="-.156" y="-.156" color-interpolation-filters="sRGB"><feGaussianBlur stdDeviation="1.879"/></filter><filter id="c" width="1.189" height="1.098" x="-.094" y="-.049" color-interpolation-filters="sRGB"><feGaussianBlur stdDeviation="1.14"/></filter><filter id="b" width="1.288" height="1.133" x="-.144" y="-.067" color-interpolation-filters="sRGB"><feGaussianBlur stdDeviation="1.14"/></filter></defs><g color="#000"><path d="M4.37.53C2.254.53.53 2.312.53 4.496v8.468c0 2.184 1.725 3.968 3.84 3.968h8.194c2.114 0 3.84-1.783 3.84-3.968V4.497c0-2.184-1.726-3.968-3.84-3.968zm.256.52h7.681c1.844 0 3.33 1.534 3.33 3.44v7.937c0 1.906-1.485 3.44-3.33 3.44h-7.68c-1.845 0-3.33-1.534-3.33-3.44V4.49c0-1.906 1.485-3.44 3.33-3.44z" opacity=".01" style="font-feature-settings:normal;font-variant-alternates:normal;font-variant-caps:normal;font-variant-east-asian:normal;font-variant-ligatures:normal;font-variant-numeric:normal;font-variant-position:normal;font-variation-settings:normal;inline-size:0;isolation:auto;mix-blend-mode:normal;shape-margin:0;shape-padding:0;text-decoration-color:#000;text-decoration-line:none;text-decoration-style:solid;text-indent:0;text-orientation:mixed;text-transform:none;white-space:normal" transform="scale(3.7796)"/><path d="M4.359.794C2.392.794.795 2.447.795 4.48v8.5c0 2.035 1.597 3.688 3.564 3.688h8.216c1.967 0 3.564-1.653 3.564-3.688v-8.5c0-2.034-1.597-3.687-3.564-3.687zm.272.256h7.672c1.842 0 3.325 1.534 3.325 3.44v7.937c0 1.906-1.483 3.44-3.325 3.44H4.63c-1.842 0-3.325-1.534-3.325-3.44V4.49c0-1.906 1.483-3.44 3.325-3.44z" opacity=".01" style="font-feature-settings:normal;font-variant-alternates:normal;font-variant-caps:normal;font-variant-east-asian:normal;font-variant-ligatures:normal;font-variant-numeric:normal;font-variant-position:normal;font-variation-settings:normal;inline-size:0;isolation:auto;mix-blend-mode:normal;shape-margin:0;shape-padding:0;text-decoration-color:#000;text-decoration-line:none;text-decoration-style:solid;text-indent:0;text-orientation:mixed;text-transform:none;white-space:normal" transform="scale(3.7796)"/><path d="M4.31 1.058c-1.866 0-3.375 1.539-3.375 3.44v8.467c0 1.9 1.57 3.439 3.435 3.439h8.2c1.866 0 3.427-1.538 3.427-3.44V4.498c0-1.9-1.51-3.439-3.375-3.439h-.097c1.794.087 3.214 1.582 3.214 3.432v7.937c0 1.906-1.506 3.44-3.377 3.44h-7.79c-1.871 0-3.377-1.534-3.377-3.44V4.49c0-1.85 1.42-3.345 3.214-3.432z" opacity=".03" style="font-feature-settings:normal;font-variant-alternates:normal;font-variant-caps:normal;font-variant-east-asian:normal;font-variant-ligatures:normal;font-variant-numeric:normal;font-variant-position:normal;font-variation-settings:normal;inline-size:0;isolation:auto;mix-blend-mode:normal;shape-margin:0;shape-padding:0;text-decoration-color:#000;text-decoration-line:none;text-decoration-style:solid;text-indent:0;text-orientation:mixed;text-transform:none;white-space:normal" transform="scale(3.7796)"/><path d="M4 46.969V49c0 6.648 5.896 12 12.544 12h30.961C54.153 61 60 55.648 60 49v-1.992a12.97 12.97 0 0 1-13 12.963H17.002A12.973 12.973 0 0 1 4 46.969" opacity=".03" style="font-feature-settings:normal;font-variant-alternates:normal;font-variant-caps:normal;font-variant-east-asian:normal;font-variant-ligatures:normal;font-variant-numeric:normal;font-variant-position:normal;font-variation-settings:normal;inline-size:0;isolation:auto;mix-blend-mode:normal;shape-margin:0;shape-padding:0;text-decoration-color:#000;text-decoration-line:none;text-decoration-style:solid;text-indent:0;text-orientation:mixed;text-transform:none;white-space:normal"/><path d="M1.058 11.906v.592c0 1.939 1.573 3.5 3.332 3.5h8.16c1.76 0 3.325-1.561 3.325-3.5v-.58c-.006 2.095-1.537 3.78-3.44 3.78H4.498c-1.905 0-3.44-1.692-3.44-3.792" opacity=".05" style="font-feature-settings:normal;font-variant-alternates:normal;font-variant-caps:normal;font-variant-east-asian:normal;font-variant-ligatures:normal;font-variant-numeric:normal;font-variant-position:normal;font-variation-settings:normal;inline-size:0;isolation:auto;mix-blend-mode:normal;shape-margin:0;shape-padding:0;text-decoration-color:#000;text-decoration-line:none;text-decoration-style:solid;text-indent:0;text-orientation:mixed;text-transform:none;white-space:normal" transform="scale(3.7796)"/></g><rect width="56" height="56" x="4" y="4" fill="url(#a)" rx="13.002" ry="13.002"/><path d="M51.5 11a6.5 6.5 0 0 0-6.5 6.5 6.5 6.5 0 0 0 6.5 6.5 6.5 6.5 0 0 0 6.5-6.5 6.5 6.5 0 0 0-6.5-6.5m-7.465 16A2.03 2.03 0 0 0 42 29.035v13.951h.018A9.5 9.5 0 0 0 51.5 52a9.5 9.5 0 0 0 9.477-9.014H61v-13.95A2.03 2.03 0 0 0 58.965 27z" filter="url(#b)" opacity=".2" transform="translate(8.828 8.466)scale(.72414)"/><path d="M33.5 5a9.5 9.5 0 0 0-9.5 9.5 9.5 9.5 0 0 0 9.5 9.5 9.5 9.5 0 0 0 9.5-9.5A9.5 9.5 0 0 0 33.5 5M22.295 27A3.287 3.287 0 0 0 19 30.295v16.479h.01A14.5 14.5 0 0 0 33.5 61a14.5 14.5 0 0 0 14.486-14.227H48v-16.48A3.287 3.287 0 0 0 44.705 27z" filter="url(#c)" opacity=".2" transform="translate(8.828 8.466)scale(.72414)"/><path fill="url(#d)" d="M46.027 15.708a4.707 4.707 0 1 0 .191 9.412 4.707 4.707 0 0 0-.191-9.412m-5.31 11.586a1.47 1.47 0 0 0-1.473 1.475v.492c5.629 1.012 0 5.841 0 8.762v.848h.01a6.88 6.88 0 0 0 13.738 0h.01V28.769c0-.817-.658-1.475-1.475-1.475z"/><path fill="url(#e)" d="M33.088 11.362a6.88 6.88 0 0 0-6.88 6.881 6.88 6.88 0 0 0 6.88 6.88 6.88 6.88 0 0 0 6.88-6.88 6.88 6.88 0 0 0-6.88-6.881m-8.114 15.933a2.38 2.38 0 0 0-2.386 2.387v11.932h.004a10.5 10.5 0 0 0 10.496 10.303 10.5 10.5 0 0 0 10.498-10.303h.002V29.682a2.38 2.38 0 0 0-2.387-2.387H24.973z"/><rect width="29" height="29" x="3" y="19" filter="url(#f)" opacity=".25" rx="1.977" ry="1.977" transform="translate(8.828 8.866)scale(.72414)"/><rect width="21" height="21" x="11" y="21.5" fill="url(#g)" rx="1.432" ry="1.432"/><path d="M10 25v5h5v13h5V30h5v-5z" filter="url(#h)" opacity=".2" transform="translate(8.828 8.466)scale(.72414)"/><path fill="#fff" d="M16.069 25.847v3.62h3.621v9.414h3.621v-9.415h3.622v-3.619H16.07z"/></svg>