<svg xmlns="http://www.w3.org/2000/svg" xmlns:xlink="http://www.w3.org/1999/xlink" width="64" height="64"><defs><linearGradient id="e" x1="494.68" x2="494.68" y1="474.1" y2="624.51" gradientTransform="translate(-2.616 -4.905)scale(.0685)" gradientUnits="userSpaceOnUse"><stop offset="0" stop-color="#fff"/><stop offset="1" stop-color="#c7d7e7"/></linearGradient><linearGradient id="b" x1="7.937" x2="7.937" y1="15.081" y2="1.852" gradientTransform="translate(0 .032)scale(3.7795)" gradientUnits="userSpaceOnUse"><stop offset="0" stop-color="#003dc0"/><stop offset=".323" stop-color="#2867df"/><stop offset=".726" stop-color="#246ced"/><stop offset="1" stop-color="#5191ff"/></linearGradient><linearGradient xlink:href="#a" id="f" x1="8.466" x2="8.466" y1="1.852" y2="2.646" gradientTransform="matrix(3.5433 0 0 7.5592 2 -7)" gradientUnits="userSpaceOnUse"/><linearGradient id="a"><stop offset="0"/><stop offset="1" stop-opacity="0"/></linearGradient><linearGradient id="c" x1="7.937" x2="7.937" y1="15.081" y2="1.852" gradientTransform="translate(3.429 3.457)scale(3.3746)" gradientUnits="userSpaceOnUse"><stop offset="0" stop-color="#1a1a1a"/><stop offset="1" stop-color="#4d4d4d"/></linearGradient><linearGradient xlink:href="#a" id="h" x1="8.466" x2="8.466" y1="1.852" y2="2.646" gradientTransform="matrix(3.5433 0 0 7.5592 2 -71)" gradientUnits="userSpaceOnUse"/><linearGradient xlink:href="#a" id="i" x1="8.466" x2="8.466" y1="1.852" y2="2.646" gradientTransform="matrix(3.5433 0 0 7.5592 -62 -7)" gradientUnits="userSpaceOnUse"/><linearGradient xlink:href="#a" id="j" x1="8.466" x2="8.466" y1="1.852" y2="2.646" gradientTransform="matrix(3.5433 0 0 7.5592 -62 -70.989)" gradientUnits="userSpaceOnUse"/><radialGradient id="g" cx="16" cy="16" r="4.5" gradientTransform="rotate(-90 17 35.555)scale(2.2222)" gradientUnits="userSpaceOnUse"><stop offset="0" stop-opacity="0"/><stop offset=".4" stop-opacity="0"/><stop offset="1"/></radialGradient><filter id="d" width="1.148" height="1.429" x="-.074" y="-.214" color-interpolation-filters="sRGB"><feGaussianBlur stdDeviation="16.99"/></filter></defs><g color="#000"><path d="M4.37.53C2.254.53.53 2.312.53 4.496v8.468c0 2.184 1.725 3.968 3.84 3.968h8.194c2.114 0 3.84-1.783 3.84-3.968V4.497c0-2.184-1.726-3.968-3.84-3.968zm.256.52h7.681c1.844 0 3.33 1.534 3.33 3.44v7.937c0 1.906-1.485 3.44-3.33 3.44h-7.68c-1.845 0-3.33-1.534-3.33-3.44V4.49c0-1.906 1.485-3.44 3.33-3.44z" opacity=".01" style="font-feature-settings:normal;font-variant-alternates:normal;font-variant-caps:normal;font-variant-east-asian:normal;font-variant-ligatures:normal;font-variant-numeric:normal;font-variant-position:normal;font-variation-settings:normal;inline-size:0;isolation:auto;mix-blend-mode:normal;shape-margin:0;shape-padding:0;text-decoration-color:#000;text-decoration-line:none;text-decoration-style:solid;text-indent:0;text-orientation:mixed;text-transform:none;white-space:normal" transform="scale(3.7796)"/><path d="M4.359.794C2.392.794.795 2.447.795 4.48v8.5c0 2.035 1.597 3.688 3.564 3.688h8.216c1.967 0 3.564-1.653 3.564-3.688v-8.5c0-2.034-1.597-3.687-3.564-3.687zm.272.256h7.672c1.842 0 3.325 1.534 3.325 3.44v7.937c0 1.906-1.483 3.44-3.325 3.44H4.63c-1.842 0-3.325-1.534-3.325-3.44V4.49c0-1.906 1.483-3.44 3.325-3.44z" opacity=".01" style="font-feature-settings:normal;font-variant-alternates:normal;font-variant-caps:normal;font-variant-east-asian:normal;font-variant-ligatures:normal;font-variant-numeric:normal;font-variant-position:normal;font-variation-settings:normal;inline-size:0;isolation:auto;mix-blend-mode:normal;shape-margin:0;shape-padding:0;text-decoration-color:#000;text-decoration-line:none;text-decoration-style:solid;text-indent:0;text-orientation:mixed;text-transform:none;white-space:normal" transform="scale(3.7796)"/><path d="M4.31 1.058c-1.866 0-3.375 1.539-3.375 3.44v8.467c0 1.9 1.57 3.439 3.435 3.439h8.2c1.866 0 3.427-1.538 3.427-3.44V4.498c0-1.9-1.51-3.439-3.375-3.439h-.097c1.794.087 3.214 1.582 3.214 3.432v7.937c0 1.906-1.506 3.44-3.377 3.44h-7.79c-1.871 0-3.377-1.534-3.377-3.44V4.49c0-1.85 1.42-3.345 3.214-3.432z" opacity=".03" style="font-feature-settings:normal;font-variant-alternates:normal;font-variant-caps:normal;font-variant-east-asian:normal;font-variant-ligatures:normal;font-variant-numeric:normal;font-variant-position:normal;font-variation-settings:normal;inline-size:0;isolation:auto;mix-blend-mode:normal;shape-margin:0;shape-padding:0;text-decoration-color:#000;text-decoration-line:none;text-decoration-style:solid;text-indent:0;text-orientation:mixed;text-transform:none;white-space:normal" transform="scale(3.7796)"/><path d="M4 46.969V49c0 6.648 5.896 12 12.544 12h30.961C54.153 61 60 55.648 60 49v-1.992a12.97 12.97 0 0 1-13 12.963H17.002A12.973 12.973 0 0 1 4 46.969" opacity=".03" style="font-feature-settings:normal;font-variant-alternates:normal;font-variant-caps:normal;font-variant-east-asian:normal;font-variant-ligatures:normal;font-variant-numeric:normal;font-variant-position:normal;font-variation-settings:normal;inline-size:0;isolation:auto;mix-blend-mode:normal;shape-margin:0;shape-padding:0;text-decoration-color:#000;text-decoration-line:none;text-decoration-style:solid;text-indent:0;text-orientation:mixed;text-transform:none;white-space:normal"/><path d="M1.058 11.906v.592c0 1.939 1.573 3.5 3.332 3.5h8.16c1.76 0 3.325-1.561 3.325-3.5v-.58c-.006 2.095-1.537 3.78-3.44 3.78H4.498c-1.905 0-3.44-1.692-3.44-3.792" opacity=".05" style="font-feature-settings:normal;font-variant-alternates:normal;font-variant-caps:normal;font-variant-east-asian:normal;font-variant-ligatures:normal;font-variant-numeric:normal;font-variant-position:normal;font-variation-settings:normal;inline-size:0;isolation:auto;mix-blend-mode:normal;shape-margin:0;shape-padding:0;text-decoration-color:#000;text-decoration-line:none;text-decoration-style:solid;text-indent:0;text-orientation:mixed;text-transform:none;white-space:normal" transform="scale(3.7796)"/></g><rect width="56" height="56" x="4" y="4" fill="url(#b)" rx="13.002" ry="13.002"/><rect width="50" height="50" x="7" y="7" fill="url(#c)" rx="10" ry="10"/><path d="m780.75 556.52-205.63-95.072 16.52 60.917H419.85l16.52-60.917-205.63 95.142 205.77 95.072-16.52-60.917h171.79l-16.52 60.917 205.49-95.072" class="cls-1" filter="url(#d)" opacity=".35" transform="translate(-.614 -.58)scale(.06376)"/><path fill="url(#e)" d="m49.168 32.367-13.111-6.062 1.053 3.884H26.156l1.054-3.884-13.111 6.066 13.12 6.062-1.054-3.884H37.12l-1.053 3.884 13.102-6.062" class="cls-1"/><rect width="30" height="6" x="17" y="7" fill="url(#f)" opacity=".35" rx="0" ry="0"/><path id="k" fill="url(#g)" stroke-width="2.857" d="M16.989 7a10 10 0 0 0-9.99 10h10V7z" opacity=".35"/><g stroke-width="2.121"><rect width="30" height="6" x="17" y="-57" fill="url(#h)" opacity=".35" rx="0" ry="0" transform="scale(1 -1)"/><rect width="30" height="6" x="-47" y="7" fill="url(#i)" opacity=".35" rx="0" ry="0" transform="rotate(-90)"/><rect width="30" height="6" x="-47" y="-56.989" fill="url(#j)" opacity=".35" rx="0" ry="0" transform="scale(1 -1)rotate(90)"/></g><use xlink:href="#k" width="100%" height="100%" transform="matrix(-1 0 0 1 64 0)"/><use xlink:href="#k" width="100%" height="100%" transform="matrix(0 -1 -1 0 64 64)"/><use xlink:href="#k" width="100%" height="100%" transform="matrix(1 0 0 -1 0 64)"/></svg>