<?xml version="1.0" encoding="UTF-8" standalone="no"?>
<svg
   version="1.1"
   viewBox="0 0 64 64"
   id="svg29"
   sodipodi:docname="tokodon.svg"
   width="64"
   height="64"
   xml:space="preserve"
   inkscape:version="1.3.2 (091e20ef0f, 2023-11-25)"
   xmlns:inkscape="http://www.inkscape.org/namespaces/inkscape"
   xmlns:sodipodi="http://sodipodi.sourceforge.net/DTD/sodipodi-0.dtd"
   xmlns="http://www.w3.org/2000/svg"
   xmlns:svg="http://www.w3.org/2000/svg"><sodipodi:namedview
     id="namedview31"
     pagecolor="#ffffff"
     bordercolor="#999999"
     borderopacity="1"
     inkscape:showpageshadow="0"
     inkscape:pageopacity="0"
     inkscape:pagecheckerboard="0"
     inkscape:deskcolor="#d1d1d1"
     showgrid="false"
     inkscape:zoom="2.8284271"
     inkscape:cx="-7.7781746"
     inkscape:cy="25.279067"
     inkscape:window-width="1920"
     inkscape:window-height="1011"
     inkscape:window-x="0"
     inkscape:window-y="0"
     inkscape:window-maximized="1"
     inkscape:current-layer="svg29" /><defs
     id="defs7"><linearGradient
       id="bg"
       x2="0"
       y1="1"
       y2="47"
       gradientUnits="userSpaceOnUse"
       gradientTransform="translate(80.137858)"><stop
         style="stop-color:#b7ebeb"
         offset="0"
         id="stop2" /><stop
         style="stop-color:#a8e6e6"
         offset="1"
         id="stop4" /></linearGradient><filter
       id="filter1057"
       x="-0.026999999"
       y="-0.026999999"
       width="1.054"
       height="1.054"
       color-interpolation-filters="sRGB"><feGaussianBlur
         stdDeviation="0.61875"
         id="feGaussianBlur851" /></filter><linearGradient
       id="linearGradient1053"
       x1="-127"
       x2="-127"
       y1="60"
       y2="5"
       gradientTransform="matrix(1.0181818,0,0,1.0181818,133.30909,-1.1010916)"
       gradientUnits="userSpaceOnUse"><stop
         stop-color="#32d7ff"
         offset="0"
         id="stop854" /><stop
         stop-color="#329bff"
         offset="1"
         id="stop856" /></linearGradient></defs><rect
     x="4.4999995"
     y="4.4999995"
     width="55"
     height="55"
     ry="15"
     fill="#141414"
     filter="url(#filter1057)"
     opacity="0.3"
     stroke-linecap="round"
     stroke-width="2.7444"
     id="rect887" /><rect
     x="4"
     y="4"
     width="56"
     height="56"
     ry="12.997097"
     fill="url(#linearGradient1053)"
     stroke-linecap="round"
     stroke-width="2.7943"
     id="rect889"
     style="fill:url(#linearGradient1053)"
     rx="12.997097" /><g
     id="g2329"
     transform="matrix(1.3168116,0,0,1.3168116,62.321547,4.6033159)"><path
       style="fill:#f6ffd5;fill-opacity:1;stroke:none;stroke-width:1px;stroke-linecap:butt;stroke-linejoin:miter;stroke-opacity:1"
       d="m -29.37305,18.936969 c 0,0 -1.553938,7.157034 -6.104175,8.428155 0,0 4.215516,2.380461 8.426924,-5.964407 4.211408,-8.344868 -2.322749,-2.463748 -2.322749,-2.463748 z"
       id="path1905" /><path
       style="fill:#f6ffd5;fill-opacity:1;stroke:none;stroke-width:1px;stroke-linecap:butt;stroke-linejoin:miter;stroke-opacity:1"
       d="m -16.22999,18.936969 c 0,0 1.553938,7.157034 6.104175,8.428155 0,0 -4.215516,2.380461 -8.426924,-5.964407 -4.211408,-8.344868 2.322749,-2.463748 2.322749,-2.463748 z"
       id="path1907" /><path
       style="opacity:1;fill:#4d4d4d;fill-opacity:1;stroke:none;stroke-width:1px;stroke-linecap:butt;stroke-linejoin:miter;stroke-opacity:1"
       d="m -27.707678,18.936969 c 0,0 -0.186171,7.618446 1.069529,11.455431 1.255701,3.836985 4.853922,6.885646 7.306747,7.200683 2.452826,0.315037 4.305041,-0.369624 5.420431,-0.911421 1.11539,-0.541797 2.949561,-1.233487 3.708089,-0.671748 0.7585293,0.561739 1.3666283,-0.207136 1.1514583,-0.767723 -0.252925,-0.65895 -0.696514,-0.753252 -1.2298883,-0.758982 -0.533374,-0.0057 -0.37044,-0.613687 -0.193918,-0.654233 0.294531,-0.06765 0.8063883,-0.629095 0.382456,-1.309443 -0.423933,-0.680349 -1.440092,-0.715838 -1.563876,-0.07251 -0.123783,0.643328 0.308133,1.342499 -0.07803,1.560242 -0.386163,0.217744 -2.131547,1.042524 -3.29707,0.214304 -1.165522,-0.828221 -3.131644,-2.694309 -3.224923,-5.967317 -0.09328,-3.273008 -0.39858,-7.608813 0,-9.317283 0.39858,-1.70847 -8.956564,-1.032942 -8.956564,-1.032942 z"
       id="path1854"
       sodipodi:nodetypes="cssssscssssssscc" /><path
       id="path1248"
       style="opacity:1;fill:#4d4d4d;fill-opacity:1;fill-rule:evenodd;stroke-width:2.22017;stroke-linecap:round;stroke-linejoin:round;paint-order:stroke fill markers"
       d="m -34.178177,7.2963504 c -1.589019,0 -2.867187,1.28012 -2.867187,2.8691406 v 2.285156 c 0,-0.17848 0.0079,-0.353638 0.02539,-0.527344 0.01753,-0.173705 0.0439,-0.345592 0.07813,-0.513672 0.03422,-0.16808 0.0769,-0.332537 0.126953,-0.49414 0.05005,-0.161605 0.106837,-0.320332 0.171875,-0.47461 0.06504,-0.154277 0.137627,-0.305072 0.216797,-0.4511716 0.07917,-0.146099 0.16536,-0.286756 0.257812,-0.423828 0.09245,-0.137071 0.191992,-0.269291 0.296875,-0.396484 0.104883,-0.127193 0.215568,-0.250724 0.332031,-0.367188 0.116464,-0.116463 0.238042,-0.227148 0.365235,-0.332031 0.127193,-0.104883 0.259412,-0.20247 0.396484,-0.294922 0.137072,-0.092451 0.279682,-0.178642 0.425781,-0.257812 0.1461,-0.07917 0.296895,-0.15176 0.451172,-0.216797 0.154278,-0.065037 0.311053,-0.123774 0.472656,-0.173828 0.161605,-0.050054 0.328014,-0.09078 0.496094,-0.125 0.16808,-0.03422 0.338013,-0.06059 0.511719,-0.078125 0.173706,-0.017536 0.350817,-0.027344 0.529297,-0.027344 z m 2.28711,0 c -0.17848,0 -0.355591,0.00981 -0.529297,0.027344 -0.173706,0.017535 -0.343639,0.043905 -0.511719,0.078125 -0.16808,0.03422 -0.334489,0.074946 -0.496094,0.125 -0.161603,0.050054 -0.318378,0.108791 -0.472656,0.173828 -0.154277,0.065037 -0.305072,0.137627 -0.451172,0.216797 -0.146099,0.07917 -0.288709,0.165361 -0.425781,0.257812 -0.137072,0.092452 -0.269291,0.190039 -0.396484,0.294922 -0.127193,0.104883 -0.248771,0.215568 -0.365235,0.332031 -0.116463,0.116464 -0.227148,0.239995 -0.332031,0.367188 -0.104883,0.127193 -0.204423,0.259413 -0.296875,0.396484 -0.09245,0.137072 -0.178643,0.277729 -0.257812,0.423828 -0.07917,0.1460996 -0.15176,0.2968946 -0.216797,0.4511716 -0.06504,0.154278 -0.121821,0.313005 -0.171875,0.47461 -0.05005,0.161603 -0.09273,0.32606 -0.126953,0.49414 -0.03422,0.16808 -0.06059,0.339967 -0.07813,0.513672 -0.01754,0.173706 -0.02539,0.348864 -0.02539,0.527344 v 1.332031 c 0,0.17848 0.0079,0.353638 0.02539,0.527344 0.01753,0.173705 0.0439,0.345592 0.07813,0.513672 0.03422,0.16808 0.0769,0.332536 0.126953,0.49414 0.05005,0.161604 0.106837,0.320332 0.171875,0.474609 0.06504,0.154278 0.137627,0.305073 0.216797,0.451172 0.07917,0.1461 0.16536,0.286757 0.257812,0.423828 0.09245,0.137072 0.191992,0.269292 0.296875,0.396485 0.104883,0.127192 0.215568,0.250724 0.332031,0.367187 0.116464,0.116463 0.238042,0.227149 0.365235,0.332032 0.127193,0.104882 0.259412,0.20247 0.396484,0.294921 0.137072,0.09245 0.279682,0.178643 0.425781,0.257813 0.1461,0.07917 0.296895,0.15176 0.451172,0.216797 0.154278,0.06504 0.311053,0.123774 0.472656,0.173828 0.161605,0.05005 0.328014,0.09273 0.496094,0.126953 0.16808,0.03422 0.338013,0.05864 0.511719,0.07617 0.173706,0.01754 0.350817,0.02734 0.529297,0.02734 h 17.4375 c 0.17848,0 0.355591,-0.0098 0.529297,-0.02734 0.173705,-0.01754 0.343638,-0.04195 0.511719,-0.07617 0.168079,-0.03422 0.334489,-0.0769 0.496093,-0.126953 0.161604,-0.05005 0.318379,-0.108791 0.472657,-0.173828 0.154276,-0.06504 0.305072,-0.137627 0.451171,-0.216797 0.1461,-0.07917 0.28871,-0.165361 0.425782,-0.257813 0.13707,-0.09245 0.269291,-0.190039 0.396484,-0.294921 0.127193,-0.104883 0.248771,-0.215569 0.365234,-0.332032 0.116464,-0.116463 0.227149,-0.239995 0.332032,-0.367187 0.104882,-0.127193 0.204423,-0.259413 0.296875,-0.396485 0.09245,-0.137071 0.1786423,-0.277728 0.2578123,-0.423828 0.07917,-0.146099 0.149807,-0.296894 0.214844,-0.451172 0.06504,-0.154277 0.123774,-0.313005 0.173828,-0.474609 0.05005,-0.161604 0.09273,-0.32606 0.126953,-0.49414 0.03422,-0.16808 0.06059,-0.339967 0.07813,-0.513672 0.01754,-0.173706 0.02539,-0.348864 0.02539,-0.527344 v -1.332031 c 0,-0.17848 -0.0079,-0.353638 -0.02539,-0.527344 -0.01754,-0.173705 -0.04391,-0.345592 -0.07813,-0.513672 -0.03422,-0.16808 -0.0769,-0.332537 -0.126953,-0.49414 -0.05005,-0.161605 -0.108791,-0.320332 -0.173828,-0.47461 -0.06504,-0.154277 -0.135674,-0.305072 -0.214844,-0.4511716 -0.07917,-0.146099 -0.1653613,-0.286756 -0.2578123,-0.423828 -0.09245,-0.137071 -0.191993,-0.269291 -0.296875,-0.396484 -0.104883,-0.127193 -0.215568,-0.250724 -0.332032,-0.367188 -0.116463,-0.116463 -0.238041,-0.227148 -0.365234,-0.332031 -0.127193,-0.104883 -0.259414,-0.20247 -0.396484,-0.294922 -0.137072,-0.092451 -0.279682,-0.178642 -0.425782,-0.257812 -0.146099,-0.07917 -0.296895,-0.15176 -0.451171,-0.216797 -0.154278,-0.065037 -0.311053,-0.123774 -0.472657,-0.173828 -0.161604,-0.050054 -0.328014,-0.09078 -0.496093,-0.125 -0.168081,-0.03422 -0.338014,-0.06059 -0.511719,-0.078125 -0.173706,-0.017536 -0.350817,-0.027344 -0.529297,-0.027344 z m 22.5917973,6.4863276 c 0,0.17848 -0.0079,0.353638 -0.02539,0.527344 -0.01754,0.173705 -0.04391,0.345592 -0.07813,0.513672 -0.03422,0.16808 -0.0769,0.332536 -0.126953,0.49414 -0.05005,0.161604 -0.108791,0.320332 -0.173828,0.474609 -0.06504,0.154278 -0.135674,0.305073 -0.214844,0.451172 -0.07917,0.1461 -0.1653613,0.286757 -0.2578123,0.423828 -0.09245,0.137072 -0.191993,0.269292 -0.296875,0.396485 -0.104883,0.127192 -0.215568,0.250724 -0.332032,0.367187 -0.116463,0.116463 -0.238041,0.227149 -0.365234,0.332032 -0.127193,0.104882 -0.259414,0.20247 -0.396484,0.294921 -0.137072,0.09245 -0.279682,0.178643 -0.425782,0.257813 -0.146099,0.07917 -0.296895,0.15176 -0.451171,0.216797 -0.154278,0.06504 -0.311053,0.123774 -0.472657,0.173828 -0.161604,0.05005 -0.328014,0.09273 -0.496093,0.126953 -0.168081,0.03422 -0.338014,0.05864 -0.511719,0.07617 -0.173706,0.01754 -0.350817,0.02734 -0.529297,0.02734 h 2.287109 c 1.589021,0 2.8671883,-1.280121 2.8671883,-2.869141 z" /><ellipse
       style="opacity:1;fill:#f6ffd5;fill-opacity:1;fill-rule:evenodd;stroke-width:1.03999;stroke-linecap:round;stroke-linejoin:round;paint-order:stroke fill markers"
       id="path1304"
       cx="-29.801229"
       cy="-1.530357"
       rx="1.6468021"
       ry="2.0525358"
       transform="rotate(-30)" /><ellipse
       style="opacity:1;fill:#f6ffd5;fill-opacity:1;fill-rule:evenodd;stroke-width:1.03999;stroke-linecap:round;stroke-linejoin:round;paint-order:stroke fill markers"
       id="ellipse1306"
       cx="9.8604755"
       cy="21.368336"
       rx="1.6468021"
       ry="2.0525358"
       transform="matrix(-0.8660254,-0.5,-0.5,0.8660254,0,0)" /></g></svg>
