<svg id="Apps-Opera" width="64" height="64" enable-background="new 0 0 1024 1024" image-rendering="optimizeSpeed" version="1.1" viewBox="0 0 64 64" xmlns="http://www.w3.org/2000/svg" xmlns:xlink="http://www.w3.org/1999/xlink">
 <defs>
  <linearGradient id="linearGradient4152" x1="26.173" x2="14.482" y1="32.403" y2="5.7699" gradientTransform="matrix(1.2463 0 0 1.2463 2.0883 6.8275)" gradientUnits="userSpaceOnUse">
   <stop stop-color="#fff" offset="0"/>
   <stop stop-color="#cbb0ea" offset="1"/>
  </linearGradient>
  <filter id="filter907" x="-.06" y="-.06" width="1.12" height="1.12" color-interpolation-filters="sRGB">
   <feGaussianBlur stdDeviation="0.21166213"/>
  </filter>
  <linearGradient id="linearGradient7696" x1="32.241" x2="32.241" y1="59.651" y2="3.7589" gradientTransform="matrix(4.7495 0 0 4.7065 -9.3627 -9.0024)" gradientUnits="userSpaceOnUse">
   <stop stop-color="#7d519e" offset="0"/>
   <stop stop-color="#a987c2" offset="1"/>
  </linearGradient>
 </defs>
 <g transform="scale(3.7796)" shape-rendering="auto">
  <path d="m4.3693 0.52916c-2.1142 0-3.8402 1.7835-3.8402 3.9682v8.4675c0 2.1846 1.726 3.9682 3.8402 3.9682h8.1944c2.1142 0 3.8402-1.7835 3.8402-3.9682v-8.4675c0-2.1846-1.726-3.9682-3.8402-3.9682zm0.25704 0.52089h7.6808c1.8443 0 3.3291 1.5342 3.3291 3.44v7.9368c0 1.9058-1.4847 3.44-3.3291 3.44h-7.6808c-1.8443 0-3.3291-1.5342-3.3291-3.44v-7.9368c0-1.9058 1.4847-3.44 3.3291-3.44z" color="#000000" color-rendering="auto" dominant-baseline="auto" image-rendering="auto" opacity=".01" solid-color="#000000" stop-color="#000000" style="font-feature-settings:normal;font-variant-alternates:normal;font-variant-caps:normal;font-variant-east-asian:normal;font-variant-ligatures:normal;font-variant-numeric:normal;font-variant-position:normal;font-variation-settings:normal;inline-size:0;isolation:auto;mix-blend-mode:normal;shape-margin:0;shape-padding:0;text-decoration-color:#000000;text-decoration-line:none;text-decoration-style:solid;text-indent:0;text-orientation:mixed;text-transform:none;white-space:normal"/>
  <path d="m4.3587 0.79373c-1.9668 0-3.5639 1.6528-3.5639 3.6876v8.4996c0 2.0348 1.5971 3.6876 3.5639 3.6876h8.2162c1.9668 0 3.5644-1.6528 3.5644-3.6876v-8.4996c0-2.0348-1.5976-3.6876-3.5644-3.6876zm0.27222 0.25631h7.6718c1.8422 0 3.3251 1.5342 3.3251 3.44v7.9368c0 1.9058-1.483 3.44-3.3251 3.44h-7.6718c-1.8422 0-3.3251-1.5342-3.3251-3.44v-7.9368c0-1.9058 1.483-3.44 3.3251-3.44z" color="#000000" color-rendering="auto" dominant-baseline="auto" image-rendering="auto" opacity=".01" solid-color="#000000" stop-color="#000000" style="font-feature-settings:normal;font-variant-alternates:normal;font-variant-caps:normal;font-variant-east-asian:normal;font-variant-ligatures:normal;font-variant-numeric:normal;font-variant-position:normal;font-variation-settings:normal;inline-size:0;isolation:auto;mix-blend-mode:normal;shape-margin:0;shape-padding:0;text-decoration-color:#000000;text-decoration-line:none;text-decoration-style:solid;text-indent:0;text-orientation:mixed;text-transform:none;white-space:normal"/>
  <path d="m4.3097 1.0583c-1.8657 0-3.3751 1.5383-3.3751 3.439v8.4675c0 1.9007 1.57 3.439 3.4357 3.439h8.1996c1.8657 0 3.4274-1.5383 3.4274-3.439v-8.4675c0-1.9007-1.51-3.439-3.3756-3.439h-0.09688c1.794 0.086515 3.2138 1.5819 3.2138 3.4318v7.9368c0 1.9058-1.5059 3.44-3.3766 3.44h-7.7905c-1.8707 0-3.3766-1.5342-3.3766-3.44v-7.9368c0-1.8498 1.4199-3.3451 3.2138-3.4318z" color="#000000" color-rendering="auto" dominant-baseline="auto" image-rendering="auto" opacity=".03" solid-color="#000000" stop-color="#000000" style="font-feature-settings:normal;font-variant-alternates:normal;font-variant-caps:normal;font-variant-east-asian:normal;font-variant-ligatures:normal;font-variant-numeric:normal;font-variant-position:normal;font-variation-settings:normal;inline-size:0;isolation:auto;mix-blend-mode:normal;shape-margin:0;shape-padding:0;text-decoration-color:#000000;text-decoration-line:none;text-decoration-style:solid;text-indent:0;text-orientation:mixed;text-transform:none;white-space:normal"/>
  <path transform="scale(.26458)" d="m4 46.969v2.0312c0 6.6479 5.8957 12 12.544 12h30.961c6.6479 0 12.495-5.3521 12.495-12v-1.9922c-0.02117 7.1849-5.81 12.963-13 12.963h-29.998c-7.2032 0-13.002-5.7987-13.002-13.002z" color="#000000" color-rendering="auto" dominant-baseline="auto" image-rendering="auto" opacity=".03" solid-color="#000000" stop-color="#000000" style="font-feature-settings:normal;font-variant-alternates:normal;font-variant-caps:normal;font-variant-east-asian:normal;font-variant-ligatures:normal;font-variant-numeric:normal;font-variant-position:normal;font-variation-settings:normal;inline-size:0;isolation:auto;mix-blend-mode:normal;shape-margin:0;shape-padding:0;text-decoration-color:#000000;text-decoration-line:none;text-decoration-style:solid;text-indent:0;text-orientation:mixed;text-transform:none;white-space:normal"/>
  <path d="m1.0583 11.906v0.59234c0 1.9386 1.5729 3.4993 3.3318 3.4993h8.1603c1.7589 0 3.3243-1.5608 3.3243-3.4993v-0.58095c-0.0056 2.0952-1.5372 3.7801-3.4395 3.7801h-7.9368c-1.9058 0-3.44-1.691-3.44-3.7915z" color="#000000" color-rendering="auto" dominant-baseline="auto" image-rendering="auto" opacity=".05" solid-color="#000000" stop-color="#000000" style="font-feature-settings:normal;font-variant-alternates:normal;font-variant-caps:normal;font-variant-east-asian:normal;font-variant-ligatures:normal;font-variant-numeric:normal;font-variant-position:normal;font-variation-settings:normal;inline-size:0;isolation:auto;mix-blend-mode:normal;shape-margin:0;shape-padding:0;text-decoration-color:#000000;text-decoration-line:none;text-decoration-style:solid;text-indent:0;text-orientation:mixed;text-transform:none;white-space:normal"/>
 </g>
 <rect x="4" y="4" width="56" height="56" rx="13.002" ry="13.002" fill="url(#linearGradient7696)" stroke-width="3.78"/>
 <path transform="matrix(3.2385 0 0 3.2385 4.581 5.5811)" d="m9.1933 4.2333c-0.18593 0-0.34023 0.14851-0.342 0.32847-0.00108 0.18078 0.15324 0.3328 0.3405 0.33373 0.80813 0.00607 1.4726 0.26148 2.0084 0.76518 0.5295 0.49902 0.80551 1.1904 0.81251 2.0926v7.697e-4c0.0019 0.17947 0.15633 0.3277 0.34275 0.3277 1.8e-5 0 0.0035-6.926e-4 0.0038-7.696e-4 0.18684-0.00173 0.34201-0.15236 0.3405-0.33298v-7.697e-4c-0.0044-0.52585-0.08987-1.0093-0.25711-1.4348-0.16925-0.42991-0.42652-0.81032-0.76218-1.1267-0.66289-0.6234-1.5097-0.94544-2.4842-0.95233h-0.00309zm-3.4711 0.77796c-0.13039-0.022163-0.27162 0.00208-0.41267 0.069903h-0.0112l-0.015782 0.00902c-0.26136 0.14856-0.50638 0.34774-0.73586 0.59754l-0.018037 0.019542v0.018038c-0.15878 0.19796-0.26373 0.39719-0.28788 0.59681-0.00771 0.033827-0.00757 0.064322-0.00757 0.096965 0 0.090807 0.013382 0.18309 0.041338 0.2736l0.00757 0.025558 0.015782 0.00902c0.090647 0.31099 0.29633 0.79496 0.7464 1.6145 0.29976 0.5432 0.60605 0.99697 0.91023 1.3793 0.16024 0.20093 0.34177 0.41012 0.55244 0.62086 0.00247 0.0025 0.011349 0.01158 0.021047 0.0203 0.00335 0.0033 8e-3 0.01029 0.019535 0.02179l0.021047 0.02105h0.00145c0.00742 0.0074 0.012363 0.0128 0.013527 0.01429l0.00378 0.0045 0.00378 0.0038c0.21069 0.20839 0.41849 0.391 0.62161 0.55021 0.38172 0.30422 0.83537 0.61294 1.3785 0.91323 0.82048 0.45265 1.309 0.65723 1.6183 0.7464l0.01132 0.01353 0.01879 0.0067c0.08762 0.02921 0.17881 0.04271 0.26909 0.04134 0.03662 0.0021 0.06903-5.77e-4 0.09996-0.0075 0.21185-0.02478 0.42159-0.12508 0.62914-0.29915l0.0023-0.0031 0.0023-0.0015c0.0032-0.0032 0.0013-0.0016 0.0031-0.0038 0.0019-0.0016 0.0026-0.0037 0.0045-0.0053 0.24564-0.22417 0.44389-0.468 0.59305-0.72908l0.0097-0.01654v-0.01567c0.13716-0.28529 0.08291-0.57654-0.13964-0.76218-0.0054-0.0047-0.11238-0.09406-0.24504-0.20219-0.13601-0.1104-0.2969-0.24035-0.40554-0.32006-0.20554-0.15205-0.52323-0.34872-0.7043-0.44949h-7.69e-4c-0.3478-0.19485-0.71122-0.081654-0.87116 0.12545l-0.28036 0.35102c-0.11306 0.14247-0.33901 0.12888-0.345 0.12853-1.9017-0.48925-2.4129-2.4014-2.4165-2.415-3.388e-4 -0.00598-0.013964-0.23232 0.12852-0.34726l0.34951-0.27961c0.20761-0.15901 0.32433-0.52238 0.12853-0.87116-0.10214-0.18031-0.29966-0.50037-0.44949-0.7043h-7.694e-4c-0.08032-0.10824-0.20986-0.27009-0.3202-0.40589-0.055171-0.067897-0.1054-0.13004-0.14207-0.17438-0.018342-0.02217-0.033077-0.040077-0.043593-0.052615-0.00523-0.00627-0.00975-0.010674-0.0128-0.014283-0.0016-0.00181-0.00247-0.00299-0.00378-0.00451-0.096874-0.11502-0.22033-0.18509-0.35629-0.20821zm3.4914 0.76218c-0.18339-0.012931-0.34817 0.12448-0.36154 0.30141-0.013382 0.17712 0.1295 0.3351 0.31268 0.34801 0.453 0.032015 0.75868 0.16519 0.98843 0.40812v7.696e-4c0.23448 0.24745 0.34116 0.53004 0.33223 0.91627v0.0015c-0.0039 0.17771 0.14509 0.32832 0.32922 0.33221h0.0083c0.18144 0 0.3327-0.14323 0.33673-0.31869 0.01235-0.53081-0.16049-1.0045-0.50888-1.3718-0.34998-0.36912-0.8458-0.57584-1.4371-0.61786z" filter="url(#filter907)" opacity=".15" stroke-width=".38484"/>
 <path d="m34.354 19.291c-0.60214 0-1.1018 0.48095-1.1076 1.0638-0.0035 0.58546 0.49627 1.0778 1.1027 1.0808 2.6171 0.01966 4.7691 0.84681 6.5043 2.4781 1.7148 1.6161 2.6087 3.8551 2.6313 6.7769v0.0025c0.0062 0.58122 0.50628 1.0613 1.11 1.0613 5.9e-5 0 0.01134-0.0022 0.0123-0.0025 0.60509-0.0056 1.1076-0.49342 1.1027-1.0784v-0.0025c-0.01425-1.703-0.29104-3.2687-0.83266-4.6466-0.54812-1.3923-1.3813-2.6242-2.4683-3.6488-2.1468-2.0189-4.8892-3.0618-8.0451-3.0841h-0.01001zm-11.241 2.5194c-0.42227-0.07178-0.87965 0.0068-1.3364 0.22638h-0.03627l-0.05111 0.02921c-0.84642 0.48112-1.6399 1.1262-2.3831 1.9351l-0.05841 0.06329v0.05842c-0.51421 0.6411-0.8541 1.2863-0.93231 1.9328-0.02497 0.10955-0.02451 0.20831-0.02451 0.31402 0 0.29408 0.04334 0.59294 0.13388 0.88606l0.02451 0.08277 0.05111 0.02921c0.29356 1.0071 0.95967 2.5745 2.4172 5.2286 0.97078 1.7592 1.9627 3.2287 2.9478 4.4669 0.51894 0.65072 1.1068 1.3282 1.7891 2.0107 8e-3 0.0081 0.03676 0.0375 0.06816 0.06574 0.01085 0.01069 0.02591 0.03332 0.06326 0.07057l0.06816 0.06817h0.0047c0.02402 0.02397 0.04004 0.04145 0.04381 0.04628l0.01224 0.01457 0.01225 0.0123c0.68232 0.67488 1.3553 1.2663 2.0131 1.7819 1.2362 0.98522 2.7054 1.985 4.4643 2.9575 2.6571 1.4659 4.2392 2.1285 5.2409 2.4172l0.03666 0.04382 0.06085 0.02169c0.28376 0.0946 0.57908 0.13832 0.87145 0.13388 0.1186 0.0068 0.22356-0.0019 0.32372-0.02429 0.68608-0.08025 1.3653-0.40508 2.0375-0.9688l0.0075-0.01004 0.0075-0.0049c0.01036-0.01036 0.0042-0.0051 0.01004-0.0123 0.0062-0.0051 0.0084-0.01198 0.01458-0.01716 0.79551-0.72598 1.4375-1.5156 1.9206-2.3611l0.03141-0.05356v-0.05075c0.4442-0.92392 0.26851-1.8671-0.45223-2.4683-0.01749-0.01522-0.36394-0.30462-0.79357-0.6548-0.44047-0.35753-0.96152-0.77838-1.3134-1.0365-0.66565-0.49242-1.6945-1.1293-2.2809-1.4557h-0.0025c-1.1264-0.63103-2.3033-0.26444-2.8213 0.40627l-0.90795 1.1368c-0.36615 0.46139-1.0979 0.41738-1.1173 0.41625-6.1587-1.5844-7.8142-7.777-7.8259-7.821-0.0011-0.01936-0.04522-0.75237 0.41622-1.1246l1.1319-0.90552c0.67235-0.51496 1.0504-1.6917 0.41625-2.8213-0.33078-0.58394-0.97046-1.6205-1.4557-2.2809h-0.0025c-0.26012-0.35054-0.67964-0.87469-1.037-1.3145-0.17867-0.21989-0.34134-0.42114-0.4601-0.56473-0.0594-0.0718-0.10712-0.12979-0.14118-0.1704-0.01694-0.02031-0.03158-0.03457-0.04145-0.04625-0.0051-0.0058-8e-3 -0.0097-0.01225-0.01461-0.31373-0.3725-0.71354-0.59942-1.1539-0.67429zm11.307 2.4683c-0.59391-0.04187-1.1276 0.40313-1.1709 0.97612-0.04334 0.57361 0.41939 1.0852 1.0126 1.127 1.4671 0.10368 2.457 0.53497 3.2011 1.3217v0.0025c0.75937 0.80137 1.1049 1.7165 1.0759 2.9674v0.0049c-0.01263 0.57552 0.46988 1.0633 1.0662 1.0759h0.02688c0.5876 0 1.0775-0.46385 1.0905-1.0321 0.04-1.719-0.51975-3.2531-1.648-4.4426-1.1334-1.1954-2.7391-1.8649-4.6541-2.001z" fill="url(#linearGradient4152)" stroke-width="1.2463"/>
</svg>
