<svg width="64" height="64" enable-background="new 0 0 1024 1024" image-rendering="optimizeSpeed" xmlns="http://www.w3.org/2000/svg"><defs><linearGradient id="c" x1="26.173" x2="14.482" y1="32.403" y2="5.77" gradientTransform="translate(2.088 6.827) scale(1.2463)" gradientUnits="userSpaceOnUse"><stop stop-color="#fff" offset="0"/><stop stop-color="#cbb0ea" offset="1"/></linearGradient><linearGradient id="a" x1="32.241" x2="32.241" y1="59.651" y2="3.759" gradientTransform="matrix(4.7495 0 0 4.7065 -9.363 -9.002)" gradientUnits="userSpaceOnUse"><stop stop-color="#7d519e" offset="0"/><stop stop-color="#a987c2" offset="1"/></linearGradient><filter id="b" x="-.06" y="-.06" width="1.12" height="1.12" color-interpolation-filters="sRGB"><feGaussianBlur stdDeviation=".212"/></filter></defs><g color="#000" image-rendering="auto"><path d="M4.37.53C2.254.53.53 2.312.53 4.496v8.468c0 2.184 1.725 3.968 3.84 3.968h8.194c2.114 0 3.84-1.783 3.84-3.968V4.497c0-2.184-1.726-3.968-3.84-3.968zm.256.52h7.681c1.844 0 3.33 1.534 3.33 3.44v7.937c0 1.906-1.485 3.44-3.33 3.44h-7.68c-1.845 0-3.33-1.534-3.33-3.44V4.49c0-1.906 1.485-3.44 3.33-3.44z" opacity=".01" style="font-feature-settings:normal;font-variant-alternates:normal;font-variant-caps:normal;font-variant-east-asian:normal;font-variant-ligatures:normal;font-variant-numeric:normal;font-variant-position:normal;font-variation-settings:normal;inline-size:0;isolation:auto;mix-blend-mode:normal;shape-margin:0;shape-padding:0;text-decoration-color:#000;text-decoration-line:none;text-decoration-style:solid;text-indent:0;text-orientation:mixed;text-transform:none;white-space:normal" transform="scale(3.7796)"/><path d="M4.359.794C2.392.794.795 2.447.795 4.48v8.5c0 2.035 1.597 3.688 3.564 3.688h8.216c1.967 0 3.564-1.653 3.564-3.688v-8.5c0-2.034-1.597-3.687-3.564-3.687zm.272.256h7.672c1.842 0 3.325 1.534 3.325 3.44v7.937c0 1.906-1.483 3.44-3.325 3.44H4.63c-1.842 0-3.325-1.534-3.325-3.44V4.49c0-1.906 1.483-3.44 3.325-3.44z" opacity=".01" style="font-feature-settings:normal;font-variant-alternates:normal;font-variant-caps:normal;font-variant-east-asian:normal;font-variant-ligatures:normal;font-variant-numeric:normal;font-variant-position:normal;font-variation-settings:normal;inline-size:0;isolation:auto;mix-blend-mode:normal;shape-margin:0;shape-padding:0;text-decoration-color:#000;text-decoration-line:none;text-decoration-style:solid;text-indent:0;text-orientation:mixed;text-transform:none;white-space:normal" transform="scale(3.7796)"/><path d="M4.31 1.058c-1.866 0-3.375 1.539-3.375 3.44v8.467c0 1.9 1.57 3.439 3.435 3.439h8.2c1.866 0 3.427-1.538 3.427-3.44V4.498c0-1.9-1.51-3.439-3.375-3.439h-.097c1.794.087 3.214 1.582 3.214 3.432v7.937c0 1.906-1.506 3.44-3.377 3.44h-7.79c-1.871 0-3.377-1.534-3.377-3.44V4.49c0-1.85 1.42-3.345 3.214-3.432z" opacity=".03" style="font-feature-settings:normal;font-variant-alternates:normal;font-variant-caps:normal;font-variant-east-asian:normal;font-variant-ligatures:normal;font-variant-numeric:normal;font-variant-position:normal;font-variation-settings:normal;inline-size:0;isolation:auto;mix-blend-mode:normal;shape-margin:0;shape-padding:0;text-decoration-color:#000;text-decoration-line:none;text-decoration-style:solid;text-indent:0;text-orientation:mixed;text-transform:none;white-space:normal" transform="scale(3.7796)"/><path d="M4 46.969V49c0 6.648 5.896 12 12.544 12h30.961C54.153 61 60 55.648 60 49v-1.992a12.972 12.972 0 0 1-13 12.963H17.002A12.973 12.973 0 0 1 4 46.969z" opacity=".03" style="font-feature-settings:normal;font-variant-alternates:normal;font-variant-caps:normal;font-variant-east-asian:normal;font-variant-ligatures:normal;font-variant-numeric:normal;font-variant-position:normal;font-variation-settings:normal;inline-size:0;isolation:auto;mix-blend-mode:normal;shape-margin:0;shape-padding:0;text-decoration-color:#000;text-decoration-line:none;text-decoration-style:solid;text-indent:0;text-orientation:mixed;text-transform:none;white-space:normal"/><path d="M1.058 11.906v.592c0 1.939 1.573 3.5 3.332 3.5h8.16c1.76 0 3.325-1.561 3.325-3.5v-.58c-.006 2.095-1.537 3.78-3.44 3.78H4.498c-1.905 0-3.44-1.692-3.44-3.792z" opacity=".05" style="font-feature-settings:normal;font-variant-alternates:normal;font-variant-caps:normal;font-variant-east-asian:normal;font-variant-ligatures:normal;font-variant-numeric:normal;font-variant-position:normal;font-variation-settings:normal;inline-size:0;isolation:auto;mix-blend-mode:normal;shape-margin:0;shape-padding:0;text-decoration-color:#000;text-decoration-line:none;text-decoration-style:solid;text-indent:0;text-orientation:mixed;text-transform:none;white-space:normal" transform="scale(3.7796)"/></g><rect x="4" y="4" width="56" height="56" rx="13.002" ry="13.002" fill="url(#a)"/><path transform="translate(4.581 5.581) scale(3.2385)" d="M9.193 4.233a.34.34 0 0 0-.342.329.34.34 0 0 0 .34.333c.809.007 1.473.262 2.01.766.529.499.805 1.19.812 2.092v.001a.34.34 0 0 0 .346.327.34.34 0 0 0 .34-.333 4.008 4.008 0 0 0-.256-1.436 3.1 3.1 0 0 0-.763-1.126c-.662-.624-1.51-.946-2.484-.953h-.003zm-3.47.778a.687.687 0 0 0-.413.07h-.012l-.015.01a3.05 3.05 0 0 0-.736.597l-.018.02v.017c-.16.198-.264.397-.288.597-.008.034-.008.064-.008.097 0 .09.014.183.042.274l.007.025.016.01c.09.31.296.794.746 1.614.3.543.606.997.91 1.38.16.2.342.41.553.62l.021.02.02.022.02.021h.002a.24.24 0 0 1 .014.014l.003.005.004.004c.21.208.419.39.622.55.381.304.835.613 1.378.913.82.453 1.31.657 1.619.746l.01.014.02.007a.812.812 0 0 0 .369.034c.212-.025.421-.126.629-.3l.002-.003.002-.001.004-.004.004-.005c.246-.224.444-.468.593-.73l.01-.016v-.016c.137-.285.083-.576-.14-.762a23.526 23.526 0 0 0-.65-.522 7.732 7.732 0 0 0-.705-.45c-.348-.194-.712-.081-.872.126l-.28.351c-.113.142-.339.129-.345.128-1.902-.489-2.413-2.4-2.417-2.415 0-.005-.013-.232.129-.347l.35-.28c.207-.158.324-.522.128-.87-.102-.18-.3-.5-.45-.705-.08-.108-.21-.27-.32-.406l-.142-.174-.044-.053-.013-.014-.004-.005a.591.591 0 0 0-.356-.208zm3.49.762a.338.338 0 0 0-.36.302.333.333 0 0 0 .312.348c.453.032.758.165.988.408.235.248.341.53.332.917v.002a.333.333 0 0 0 .33.332h.008a.334.334 0 0 0 .337-.319c.012-.53-.16-1.004-.51-1.372-.35-.369-.845-.576-1.436-.618z" filter="url(#b)" opacity=".15"/><path d="M34.354 19.291c-.602 0-1.102.481-1.108 1.064-.003.585.497 1.078 1.103 1.08 2.617.02 4.77.847 6.504 2.479 1.715 1.616 2.61 3.855 2.632 6.777v.002c.006.581.506 1.061 1.11 1.061l.012-.002c.605-.006 1.108-.494 1.103-1.078v-.003c-.015-1.703-.291-3.269-.833-4.647a10.038 10.038 0 0 0-2.468-3.648c-2.147-2.02-4.89-3.062-8.045-3.084h-.01zm-11.241 2.52c-.422-.072-.88.006-1.336.226h-.037l-.05.029c-.847.481-1.64 1.126-2.384 1.935l-.058.063v.059c-.514.64-.854 1.286-.933 1.933-.025.11-.024.208-.024.314 0 .294.043.593.134.886l.024.082.051.03c.294 1.007.96 2.574 2.418 5.228.97 1.76 1.962 3.229 2.947 4.467.52.65 1.107 1.328 1.79 2.01.007.009.036.038.068.067.01.01.026.033.063.07l.068.068h.005c.024.024.04.042.044.047l.012.014.012.012a23.378 23.378 0 0 0 2.013 1.782 31.881 31.881 0 0 0 4.464 2.958c2.658 1.466 4.24 2.128 5.241 2.417l.037.044.06.022c.285.094.58.138.872.133.119.007.224-.001.324-.024.686-.08 1.365-.405 2.038-.969l.007-.01.008-.005c.01-.01.004-.005.01-.012.006-.005.008-.012.014-.017a9.77 9.77 0 0 0 1.92-2.361l.032-.054v-.05c.444-.924.269-1.868-.452-2.469a76.105 76.105 0 0 0-.794-.655c-.44-.357-.961-.778-1.313-1.036a25.05 25.05 0 0 0-2.28-1.456h-.003c-1.127-.63-2.304-.264-2.822.407l-.908 1.136c-.366.462-1.098.418-1.117.417-6.159-1.585-7.814-7.777-7.826-7.821-.001-.02-.045-.753.416-1.125L27 29.697c.673-.514 1.05-1.691.417-2.82-.331-.585-.971-1.621-1.456-2.282h-.003c-.26-.35-.68-.874-1.037-1.314-.178-.22-.341-.421-.46-.565l-.141-.17c-.017-.02-.032-.035-.041-.047l-.013-.014a1.915 1.915 0 0 0-1.154-.674zm11.307 2.468c-.594-.042-1.128.403-1.17.976-.044.573.418 1.085 1.012 1.127 1.467.103 2.457.535 3.2 1.322v.002c.76.801 1.106 1.717 1.077 2.967v.005c-.013.576.47 1.064 1.066 1.076h.027c.587 0 1.077-.464 1.09-1.032.04-1.719-.52-3.253-1.648-4.442-1.133-1.196-2.739-1.865-4.654-2.001z" fill="url(#c)"/></svg>