<svg width="64" height="64" viewBox="0 0 16.933 16.933" xmlns="http://www.w3.org/2000/svg"><defs><linearGradient id="c" x1="-112.45" x2="-112.42" y1="271.04" y2="265.14" gradientUnits="userSpaceOnUse"><stop stop-color="#0094eb" offset="0"/><stop stop-color="#06cfeb" offset="1"/></linearGradient><linearGradient id="h" x1="7.04" x2="5.767" y1="286.24" y2="293.71" gradientUnits="userSpaceOnUse"><stop stop-color="#29f2ff" offset="0"/><stop stop-color="#16d5fb" offset="1"/></linearGradient><linearGradient id="i" x1="32.799" x2="27.072" y1="42.111" y2="39.572" gradientUnits="userSpaceOnUse"><stop stop-color="#19dafc" offset="0"/><stop stop-color="#17c2f9" offset="1"/></linearGradient><linearGradient id="g" x1="8.998" x2="10.294" y1="289.45" y2="291.56" gradientUnits="userSpaceOnUse"><stop stop-color="#059af2" offset="0"/><stop stop-color="#0598f3" stop-opacity="0" offset="1"/></linearGradient><linearGradient id="e" x1="11.571" x2="11.096" y1="293.43" y2="289.55" gradientUnits="userSpaceOnUse"><stop stop-color="#0bc3fc" offset="0"/><stop stop-color="#0dd4fe" offset="1"/></linearGradient><linearGradient id="f" x1="11.607" x2="11.217" y1="294.76" y2="291.42" gradientUnits="userSpaceOnUse"><stop stop-color="#09a7f8" offset="0"/><stop stop-color="#0fbffb" offset="1"/></linearGradient><linearGradient id="d" x1="11.713" x2="14.149" y1="291.6" y2="286.73" gradientUnits="userSpaceOnUse"><stop stop-color="#3a7aec" offset="0"/><stop stop-color="#7892f2" offset="1"/></linearGradient><linearGradient id="j" x1="5.25" x2="5.564" y1="287.3" y2="285.59" gradientUnits="userSpaceOnUse"><stop stop-color="#08e3ff" offset="0"/><stop stop-color="#5cfbfc" offset="1"/></linearGradient><linearGradient id="l" x1="10.855" x2="11.759" y1="283.68" y2="282.57" gradientUnits="userSpaceOnUse"><stop stop-color="#6ee8fe" offset="0"/><stop stop-color="#a3f0fe" offset="1"/></linearGradient><linearGradient id="m" x1="30.379" x2="45.719" y1="24.664" y2="24.664" gradientUnits="userSpaceOnUse"><stop stop-color="#b6fdfe" offset="0"/><stop stop-color="#cafefe" offset="1"/></linearGradient><linearGradient id="n" x1="38.878" x2="41.802" y1="24.172" y2="27.079" gradientUnits="userSpaceOnUse"><stop stop-color="#abe7f8" offset="0"/><stop stop-color="#bef6fd" offset="1"/></linearGradient><linearGradient id="a" x1="7.937" x2="7.937" y1="15.081" y2="1.852" gradientTransform="translate(0 .008) scale(.99996)" gradientUnits="userSpaceOnUse"><stop stop-color="#f1efeb" offset="0"/><stop stop-color="#fdfcfc" offset="1"/></linearGradient><radialGradient id="k" cx="8.661" cy="283.81" r="1.504" gradientTransform="matrix(1.9106 .07806 -.04715 1.154 5.453 -44.482)" gradientUnits="userSpaceOnUse"><stop stop-color="#8df5fe" offset="0"/><stop stop-color="#46eaff" offset="1"/></radialGradient><filter id="b" x="-.056" y="-.065" width="1.112" height="1.129" color-interpolation-filters="sRGB"><feGaussianBlur stdDeviation=".326"/></filter></defs><g color="#000"><path d="M4.37.53C2.254.53.53 2.312.53 4.496v8.468c0 2.184 1.725 3.968 3.84 3.968h8.194c2.114 0 3.84-1.783 3.84-3.968V4.497c0-2.184-1.726-3.968-3.84-3.968zm.256.52h7.681c1.844 0 3.33 1.534 3.33 3.44v7.937c0 1.906-1.485 3.44-3.33 3.44h-7.68c-1.845 0-3.33-1.534-3.33-3.44V4.49c0-1.906 1.485-3.44 3.33-3.44z" opacity=".01" style="font-feature-settings:normal;font-variant-alternates:normal;font-variant-caps:normal;font-variant-east-asian:normal;font-variant-ligatures:normal;font-variant-numeric:normal;font-variant-position:normal;font-variation-settings:normal;inline-size:0;isolation:auto;mix-blend-mode:normal;shape-margin:0;shape-padding:0;text-decoration-color:#000;text-decoration-line:none;text-decoration-style:solid;text-indent:0;text-orientation:mixed;text-transform:none;white-space:normal"/><path d="M4.359.794C2.392.794.795 2.447.795 4.48v8.5c0 2.035 1.597 3.688 3.564 3.688h8.216c1.967 0 3.564-1.653 3.564-3.688v-8.5c0-2.034-1.597-3.687-3.564-3.687zm.272.256h7.672c1.842 0 3.325 1.534 3.325 3.44v7.937c0 1.906-1.483 3.44-3.325 3.44H4.63c-1.842 0-3.325-1.534-3.325-3.44V4.49c0-1.906 1.483-3.44 3.325-3.44z" opacity=".01" style="font-feature-settings:normal;font-variant-alternates:normal;font-variant-caps:normal;font-variant-east-asian:normal;font-variant-ligatures:normal;font-variant-numeric:normal;font-variant-position:normal;font-variation-settings:normal;inline-size:0;isolation:auto;mix-blend-mode:normal;shape-margin:0;shape-padding:0;text-decoration-color:#000;text-decoration-line:none;text-decoration-style:solid;text-indent:0;text-orientation:mixed;text-transform:none;white-space:normal"/><path d="M4.31 1.058c-1.866 0-3.375 1.539-3.375 3.44v8.467c0 1.9 1.57 3.439 3.435 3.439h8.2c1.866 0 3.427-1.538 3.427-3.44V4.498c0-1.9-1.51-3.439-3.375-3.439h-.097c1.794.087 3.214 1.582 3.214 3.432v7.937c0 1.906-1.506 3.44-3.377 3.44h-7.79c-1.871 0-3.377-1.534-3.377-3.44V4.49c0-1.85 1.42-3.345 3.214-3.432z" opacity=".03" style="font-feature-settings:normal;font-variant-alternates:normal;font-variant-caps:normal;font-variant-east-asian:normal;font-variant-ligatures:normal;font-variant-numeric:normal;font-variant-position:normal;font-variation-settings:normal;inline-size:0;isolation:auto;mix-blend-mode:normal;shape-margin:0;shape-padding:0;text-decoration-color:#000;text-decoration-line:none;text-decoration-style:solid;text-indent:0;text-orientation:mixed;text-transform:none;white-space:normal"/><path transform="scale(.26458)" d="M4 46.969V49c0 6.648 5.896 12 12.544 12h30.961C54.153 61 60 55.648 60 49v-1.992a12.972 12.972 0 0 1-13 12.963H17.002A12.973 12.973 0 0 1 4 46.969z" opacity=".03" style="font-feature-settings:normal;font-variant-alternates:normal;font-variant-caps:normal;font-variant-east-asian:normal;font-variant-ligatures:normal;font-variant-numeric:normal;font-variant-position:normal;font-variation-settings:normal;inline-size:0;isolation:auto;mix-blend-mode:normal;shape-margin:0;shape-padding:0;text-decoration-color:#000;text-decoration-line:none;text-decoration-style:solid;text-indent:0;text-orientation:mixed;text-transform:none;white-space:normal"/><path d="M1.058 11.906v.592c0 1.939 1.573 3.5 3.332 3.5h8.16c1.76 0 3.325-1.561 3.325-3.5v-.58c-.006 2.095-1.537 3.78-3.44 3.78H4.498c-1.905 0-3.44-1.692-3.44-3.792z" opacity=".05" style="font-feature-settings:normal;font-variant-alternates:normal;font-variant-caps:normal;font-variant-east-asian:normal;font-variant-ligatures:normal;font-variant-numeric:normal;font-variant-position:normal;font-variation-settings:normal;inline-size:0;isolation:auto;mix-blend-mode:normal;shape-margin:0;shape-padding:0;text-decoration-color:#000;text-decoration-line:none;text-decoration-style:solid;text-indent:0;text-orientation:mixed;text-transform:none;white-space:normal"/></g><rect x="1.058" y="1.058" width="14.816" height="14.816" rx="3.44" ry="3.44" fill="url(#a)"/><g transform="translate(1.095 -242.86) scale(.86977)" filter="url(#b)" opacity=".15"><path transform="matrix(.92176 -.38775 .4003 .91639 0 0)" d="M-112.36 264.53c.737 0 1.505.666 1.503 1.403l-.022 6.612c-.002.736-.717 1.173-1.454 1.173s-1.457-.621-1.458-1.358l-.008-6.366c-.001-.737.702-1.464 1.439-1.464z" style="paint-order:normal"/><path d="M14.627 285.98c-.679-.286-1.654.027-1.947.703l-2.627 6.067c-.293.676.18 1.449.86 1.734.678.286 1.603-.099 1.899-.774l2.556-5.83c.295-.675-.062-1.614-.741-1.9z" style="paint-order:normal"/><path d="M9.479 286.92c.748.973 1.31 2.108 1.726 2.824.417.715.488.866.805 1.451.317.586 1.03 1.065 1.758.334-.065.167-.639 1.58-.928 2.164-.192.39-.318.524-.658.717-.641.362-1.618.138-1.992-.496l-3.23-5.474c1.153-.695 1.324-.837 2.519-1.52z" style="paint-order:normal"/><path d="M7.521 287.46c.833.981 2.83 4.553 3.175 5.016.346.462.981.958 1.623.596.34-.192.506-.374.788-.704a20.147 20.147 0 0 0 .683-.837c-.066.166-.657 1.576-.946 2.161-.192.39-.318.524-.658.716-.642.363-1.619.14-1.993-.495l-3.23-5.474c.231-.382.313-.513.558-.979z" style="paint-order:normal"/><path d="M9.479 286.92c.748.973 1.31 2.108 1.726 2.824.417.715.488.866.805 1.451.317.586 1.03 1.065 1.758.334-.065.167-.639 1.58-.928 2.164-.192.39-.318.524-.658.717-.641.362-1.618.138-1.992-.496l-3.23-5.474c1.153-.695 1.324-.837 2.519-1.52z" style="paint-order:normal"/><path d="M9.711 285.37c-.802.16-1.789.93-2.238 1.514-.749.972-1.31 2.108-1.726 2.823-.417.716-.488.866-.805 1.452-.318.585-1.048 1.068-1.776.337.065.166.656 1.576.945 2.161.193.39.319.524.659.716.641.362 1.618.139 1.992-.496l3.23-5.473a7.168 7.168 0 0 1 1.05-1.347c.544-.548 1.199-.852.977-1.206-.477-.76-1.475-.652-2.277-.491z" style="paint-order:normal"/><path transform="translate(0 280.07) scale(.26458)" d="M44.643 21.932a3.877 3.877 0 0 0-.57.002c-2.72.204-6.19 3.027-7.533 4.61-3.148 3.708-11.577 18.472-12.883 20.22-1.307 1.748-3.709 3.621-6.133 2.252-1.285-.726-1.912-1.414-2.98-2.66a75.37 75.37 0 0 1-2.56-3.149l-.018-.016c.248.63 2.482 5.958 3.574 8.17.727 1.473 1.203 1.98 2.488 2.705 2.424 1.37 6.117.525 7.532-1.873l12.205-20.688c.707-1.199 1.983-3.181 3.903-5.117 1.862-1.877 4.119-2.96 3.912-4.157-.321-.126-.546-.272-.936-.3z" style="paint-order:normal"/><path d="M5.801 287.44c-.456-.165-.829-.494-.88-1.114-.051-.619.317-1.063.743-1.042s.57.378.472.71c-.1.331-.2.457-.262.686s-.064.47-.073.76zM7 286.19c-.386-.658-.283-1.404-.06-1.954.225-.55.764-1.16 1.362-1.32s1.142-.074 1.387.535c.244.608-.286 1.36-.92 1.536s-1.218.516-1.77 1.203z"/><circle cx="11.342" cy="283.14" r=".677" style="paint-order:normal"/><path transform="translate(0 280.07) scale(.26458)" d="M40.379 19.467c-1.243-.001-2.518.19-3.654.418-1.427.286-3.009 1.124-4.465 2.152-1.004 1.25-1.745 2.742-1.856 4.46-.296 3.455 2.104 4.213 4.188 2.437.319-.272.498-.501.687-.713.898-.833 6.312-2.926 9.768-4.7.585-.598.873-1.146.516-1.716-1.126-1.797-3.112-2.336-5.184-2.338z" style="paint-order:normal"/><path transform="translate(0 280.07) scale(.26458)" d="M44.643 21.932a3.87 3.87 0 0 0-.57.002c-2.72.204-6.19 3.027-7.534 4.61a25.47 25.47 0 0 0-1.248 1.648c.964 1.455 2.68 1.677 4.395.562a27.47 27.47 0 0 1 2.05-2.338c1.862-1.876 4.174-3.042 3.968-4.24a3.59 3.59 0 0 0-1.06-.244z" style="paint-order:normal"/></g><g transform="translate(1.095 -242.86) scale(.86977)"><path transform="matrix(.92176 -.38775 .4003 .91639 0 0)" d="M-112.36 264.53c.737 0 1.505.666 1.503 1.403l-.022 6.612c-.002.736-.717 1.173-1.454 1.173s-1.457-.621-1.458-1.358l-.008-6.366c-.001-.737.702-1.464 1.439-1.464z" fill="url(#c)" style="paint-order:normal"/><path d="M14.627 285.98c-.679-.286-1.654.027-1.947.703l-2.627 6.067c-.293.676.18 1.449.86 1.734.678.286 1.603-.099 1.899-.774l2.556-5.83c.295-.675-.062-1.614-.741-1.9z" fill="url(#d)" style="paint-order:normal"/><path d="M9.479 286.92c.748.973 1.31 2.108 1.726 2.824.417.715.488.866.805 1.451.317.586 1.03 1.065 1.758.334-.065.167-.639 1.58-.928 2.164-.192.39-.318.524-.658.717-.641.362-1.618.138-1.992-.496l-3.23-5.474c1.153-.695 1.324-.837 2.519-1.52z" fill="url(#e)" style="paint-order:normal"/><path d="M7.521 287.46c.833.981 2.83 4.553 3.175 5.016.346.462.981.958 1.623.596.34-.192.506-.374.788-.704a20.147 20.147 0 0 0 .683-.837c-.066.166-.657 1.576-.946 2.161-.192.39-.318.524-.658.716-.642.363-1.619.14-1.993-.495l-3.23-5.474c.231-.382.313-.513.558-.979z" fill="url(#f)" style="paint-order:normal"/><path d="M9.479 286.92c.748.973 1.31 2.108 1.726 2.824.417.715.488.866.805 1.451.317.586 1.03 1.065 1.758.334-.065.167-.639 1.58-.928 2.164-.192.39-.318.524-.658.717-.641.362-1.618.138-1.992-.496l-3.23-5.474c1.153-.695 1.324-.837 2.519-1.52z" fill="url(#g)" style="paint-order:normal"/><path d="M9.711 285.37c-.802.16-1.789.93-2.238 1.514-.749.972-1.31 2.108-1.726 2.823-.417.716-.488.866-.805 1.452-.318.585-1.048 1.068-1.776.337.065.166.656 1.576.945 2.161.193.39.319.524.659.716.641.362 1.618.139 1.992-.496l3.23-5.473a7.168 7.168 0 0 1 1.05-1.347c.544-.548 1.199-.852.977-1.206-.477-.76-1.475-.652-2.277-.491z" fill="url(#h)" style="paint-order:normal"/><path transform="translate(0 280.07) scale(.26458)" d="M44.643 21.932a3.877 3.877 0 0 0-.57.002c-2.72.204-6.19 3.027-7.533 4.61-3.148 3.708-11.577 18.472-12.883 20.22-1.307 1.748-3.709 3.621-6.133 2.252-1.285-.726-1.912-1.414-2.98-2.66a75.37 75.37 0 0 1-2.56-3.149l-.018-.016c.248.63 2.482 5.958 3.574 8.17.727 1.473 1.203 1.98 2.488 2.705 2.424 1.37 6.117.525 7.532-1.873l12.205-20.688c.707-1.199 1.983-3.181 3.903-5.117 1.862-1.877 4.119-2.96 3.912-4.157-.321-.126-.546-.272-.936-.3z" fill="url(#i)" style="paint-order:normal"/><path d="M5.801 287.44c-.456-.165-.829-.494-.88-1.114-.051-.619.317-1.063.743-1.042s.57.378.472.71c-.1.331-.2.457-.262.686s-.064.47-.073.76z" fill="url(#j)"/><path d="M7 286.19c-.386-.658-.283-1.404-.06-1.954.225-.55.764-1.16 1.362-1.32s1.142-.074 1.387.535c.244.608-.286 1.36-.92 1.536s-1.218.516-1.77 1.203z" fill="url(#k)"/><circle cx="11.342" cy="283.14" r=".677" fill="url(#l)" style="paint-order:normal"/><path transform="translate(0 280.07) scale(.26458)" d="M40.379 19.467c-1.243-.001-2.518.19-3.654.418-1.427.286-3.009 1.124-4.465 2.152-1.004 1.25-1.745 2.742-1.856 4.46-.296 3.455 2.104 4.213 4.188 2.437.319-.272.498-.501.687-.713.898-.833 6.312-2.926 9.768-4.7.585-.598.873-1.146.516-1.716-1.126-1.797-3.112-2.336-5.184-2.338z" fill="url(#m)" style="paint-order:normal"/><path transform="translate(0 280.07) scale(.26458)" d="M44.643 21.932a3.87 3.87 0 0 0-.57.002c-2.72.204-6.19 3.027-7.534 4.61a25.47 25.47 0 0 0-1.248 1.648c.964 1.455 2.68 1.677 4.395.562a27.47 27.47 0 0 1 2.05-2.338c1.862-1.876 4.174-3.042 3.968-4.24a3.59 3.59 0 0 0-1.06-.244z" fill="url(#n)" style="paint-order:normal"/></g></svg>