<svg xmlns="http://www.w3.org/2000/svg" width="64" height="64" viewBox="0 0 16.933 16.933"><defs><linearGradient id="a" x1="7.937" x2="7.937" y1="15.081" y2="1.852" gradientUnits="userSpaceOnUse"><stop offset="0" stop-color="#1262c4"/><stop offset="1" stop-color="#52c5ff"/></linearGradient><linearGradient id="b" x1="30" x2="30" y1="17" y2="71" gradientUnits="userSpaceOnUse"><stop offset="0"/><stop offset="1" stop-opacity="0"/></linearGradient><filter id="c" width="1.121" height="1.119" x="-.061" y="-.059" color-interpolation-filters="sRGB"><feGaussianBlur stdDeviation="16.044"/></filter></defs><g color="#000"><path d="M4.37.53C2.254.53.53 2.312.53 4.496v8.468c0 2.184 1.725 3.968 3.84 3.968h8.194c2.114 0 3.84-1.783 3.84-3.968V4.497c0-2.184-1.726-3.968-3.84-3.968zm.256.52h7.681c1.844 0 3.33 1.534 3.33 3.44v7.937c0 1.906-1.485 3.44-3.33 3.44h-7.68c-1.845 0-3.33-1.534-3.33-3.44V4.49c0-1.906 1.485-3.44 3.33-3.44z" opacity=".01" style="font-feature-settings:normal;font-variant-alternates:normal;font-variant-caps:normal;font-variant-east-asian:normal;font-variant-ligatures:normal;font-variant-numeric:normal;font-variant-position:normal;font-variation-settings:normal;inline-size:0;isolation:auto;mix-blend-mode:normal;shape-margin:0;shape-padding:0;text-decoration-color:#000;text-decoration-line:none;text-decoration-style:solid;text-indent:0;text-orientation:mixed;text-transform:none;white-space:normal"/><path d="M4.359.794C2.392.794.795 2.447.795 4.48v8.5c0 2.035 1.597 3.688 3.564 3.688h8.216c1.967 0 3.564-1.653 3.564-3.688v-8.5c0-2.034-1.597-3.687-3.564-3.687zm.272.256h7.672c1.842 0 3.325 1.534 3.325 3.44v7.937c0 1.906-1.483 3.44-3.325 3.44H4.63c-1.842 0-3.325-1.534-3.325-3.44V4.49c0-1.906 1.483-3.44 3.325-3.44z" opacity=".01" style="font-feature-settings:normal;font-variant-alternates:normal;font-variant-caps:normal;font-variant-east-asian:normal;font-variant-ligatures:normal;font-variant-numeric:normal;font-variant-position:normal;font-variation-settings:normal;inline-size:0;isolation:auto;mix-blend-mode:normal;shape-margin:0;shape-padding:0;text-decoration-color:#000;text-decoration-line:none;text-decoration-style:solid;text-indent:0;text-orientation:mixed;text-transform:none;white-space:normal"/><path d="M4.31 1.058c-1.866 0-3.375 1.539-3.375 3.44v8.467c0 1.9 1.57 3.439 3.435 3.439h8.2c1.866 0 3.427-1.538 3.427-3.44V4.498c0-1.9-1.51-3.439-3.375-3.439h-.097c1.794.087 3.214 1.582 3.214 3.432v7.937c0 1.906-1.506 3.44-3.377 3.44h-7.79c-1.871 0-3.377-1.534-3.377-3.44V4.49c0-1.85 1.42-3.345 3.214-3.432z" opacity=".03" style="font-feature-settings:normal;font-variant-alternates:normal;font-variant-caps:normal;font-variant-east-asian:normal;font-variant-ligatures:normal;font-variant-numeric:normal;font-variant-position:normal;font-variation-settings:normal;inline-size:0;isolation:auto;mix-blend-mode:normal;shape-margin:0;shape-padding:0;text-decoration-color:#000;text-decoration-line:none;text-decoration-style:solid;text-indent:0;text-orientation:mixed;text-transform:none;white-space:normal"/><path d="M4 46.969V49c0 6.648 5.896 12 12.544 12h30.961C54.153 61 60 55.648 60 49v-1.992a12.97 12.97 0 0 1-13 12.963H17.002A12.973 12.973 0 0 1 4 46.969" opacity=".03" style="font-feature-settings:normal;font-variant-alternates:normal;font-variant-caps:normal;font-variant-east-asian:normal;font-variant-ligatures:normal;font-variant-numeric:normal;font-variant-position:normal;font-variation-settings:normal;inline-size:0;isolation:auto;mix-blend-mode:normal;shape-margin:0;shape-padding:0;text-decoration-color:#000;text-decoration-line:none;text-decoration-style:solid;text-indent:0;text-orientation:mixed;text-transform:none;white-space:normal" transform="scale(.26458)"/><path d="M1.058 11.906v.592c0 1.939 1.573 3.5 3.332 3.5h8.16c1.76 0 3.325-1.561 3.325-3.5v-.58c-.006 2.095-1.537 3.78-3.44 3.78H4.498c-1.905 0-3.44-1.692-3.44-3.792" opacity=".05" style="font-feature-settings:normal;font-variant-alternates:normal;font-variant-caps:normal;font-variant-east-asian:normal;font-variant-ligatures:normal;font-variant-numeric:normal;font-variant-position:normal;font-variation-settings:normal;inline-size:0;isolation:auto;mix-blend-mode:normal;shape-margin:0;shape-padding:0;text-decoration-color:#000;text-decoration-line:none;text-decoration-style:solid;text-indent:0;text-orientation:mixed;text-transform:none;white-space:normal"/></g><rect width="14.817" height="14.817" x="1.058" y="1.05" fill="url(#a)" rx="3.44" ry="3.44"/><path fill="url(#b)" d="m32 13-3.959 15.041L13 32l15.041 3.959L32 51l3.959-15.041L51 32l-15.041-3.959z" opacity=".1" transform="scale(.26458)"/><path d="m479.01 455.95 110.34 110.34 284.51-363.27zM239.63 852.3l349.74-286.01-110.34-110.34z" class="shp40" filter="url(#c)" opacity=".35" transform="translate(-.163 -.18)scale(.01687)"/><g stroke-width="2.262"><path fill="#fe504d" d="M7.599 7.54 9.46 9.402l4.546-6.408zm-4.546 6.408 6.408-4.546L7.599 7.54z" class="shp40"/><path fill="#eee" d="m7.6 7.54-4.546 6.408L9.46 9.402z"/><path fill-opacity=".251" d="M14.006 2.996 3.053 13.948l6.408-4.546z"/></g><g fill="#fff" stroke-linecap="round" stroke-linejoin="round"><g stroke-width="1.159"><rect width=".265" height="1.587" x="8.334" y="1.587" rx=".132" ry=".132"/><rect width=".265" height="1.587" x="8.334" y="13.758" rx=".132" ry=".132"/><rect width=".265" height="1.587" x="8.334" y="-15.346" rx=".132" ry=".132" transform="rotate(90)"/><rect width=".265" height="1.587" x="8.334" y="-3.175" rx=".132" ry=".132" transform="rotate(90)"/><rect width=".265" height="1.587" x="-.132" y="-18.852" rx=".132" ry=".132" transform="rotate(135)"/><rect width=".265" height="1.587" x="-.132" y="-6.682" rx=".132" ry=".132" transform="rotate(135)"/></g><g stroke-width=".947"><rect width=".265" height="1.058" x="11.433" y="-3.78" rx=".132" ry=".132" transform="rotate(30)"/><rect width=".265" height="1.058" x="11.433" y="8.92" rx=".132" ry=".132" transform="rotate(30)"/><rect width=".265" height="1.058" x="11.433" y="-9.978" rx=".132" ry=".132" transform="rotate(60)"/><rect width=".265" height="1.058" x="11.433" y="2.722" rx=".132" ry=".132" transform="rotate(60)"/><rect width=".265" height="1.058" x="5.854" y="-17.248" rx=".132" ry=".132" transform="rotate(105)"/><rect width=".265" height="1.058" x="5.854" y="-4.549" rx=".132" ry=".132" transform="rotate(105)"/><rect width=".265" height="1.058" x="2.967" y="-18.444" rx=".132" ry=".132" transform="rotate(120)"/><rect width=".265" height="1.058" x="2.967" y="-5.745" rx=".132" ry=".132" transform="rotate(120)"/><rect width=".265" height="1.058" x="-3.231" y="-18.444" rx=".132" ry=".132" transform="rotate(150)"/><rect width=".265" height="1.058" x="-3.231" y="-5.745" rx=".132" ry=".132" transform="rotate(150)"/><rect width=".265" height="1.058" x="-6.119" y="-17.248" rx=".132" ry=".132" transform="rotate(165)"/><rect width=".265" height="1.058" x="-6.119" y="-4.549" rx=".132" ry=".132" transform="rotate(165)"/><rect width=".265" height="1.058" x="-10.502" y="-12.866" rx=".132" ry=".132" transform="rotate(195)"/><rect width=".265" height="1.058" x="-10.502" y="-.166" rx=".132" ry=".132" transform="rotate(195)"/><rect width=".265" height="1.058" x="-10.502" y="-.892" rx=".132" ry=".132" transform="rotate(255)"/><rect width=".265" height="1.058" x="-10.502" y="11.807" rx=".132" ry=".132" transform="rotate(255)"/></g></g></svg>