<svg xmlns="http://www.w3.org/2000/svg" xmlns:xlink="http://www.w3.org/1999/xlink" width="128" height="128" viewBox="0 0 33.867 33.867"><defs><radialGradient xlink:href="#a" id="b" cx="17.081" cy="3.831" r="14.544" fx="17.081" fy="3.831" gradientTransform="matrix(7.4203 0 0 2.9718 -109.586 -7.606)" gradientUnits="userSpaceOnUse"/><linearGradient id="a"><stop offset="0" style="stop-color:#ffc64c;stop-opacity:1"/><stop offset="1" style="stop-color:#e52600;stop-opacity:1"/></linearGradient></defs><g style="opacity:.295" transform="translate(-65.671 -37.256)scale(.97573)"><rect width="29.811" height="29.811" x="69.84" y="40.71" rx="6.61" ry="6.61" style="fill:none;fill-opacity:1;stroke:#000;stroke-width:.1;stroke-linecap:round;stroke-linejoin:round;stroke-miterlimit:4;stroke-dasharray:none;stroke-opacity:.02"/><rect width="29.811" height="29.811" x="69.84" y="40.71" rx="6.61" ry="6.61" style="fill:none;fill-opacity:1;stroke:#000;stroke-width:.2;stroke-linecap:round;stroke-linejoin:round;stroke-miterlimit:4;stroke-dasharray:none;stroke-opacity:.02"/><rect width="29.811" height="29.811" x="69.84" y="40.71" rx="6.61" ry="6.61" style="fill:none;fill-opacity:1;stroke:#000;stroke-width:.3;stroke-linecap:round;stroke-linejoin:round;stroke-miterlimit:4;stroke-dasharray:none;stroke-opacity:.02"/><rect width="29.811" height="29.811" x="69.84" y="40.71" rx="6.61" ry="6.61" style="fill:none;fill-opacity:1;stroke:#000;stroke-width:.4;stroke-linecap:round;stroke-linejoin:round;stroke-miterlimit:4;stroke-dasharray:none;stroke-opacity:.02"/><rect width="29.811" height="29.811" x="69.84" y="40.71" rx="6.61" ry="6.61" style="fill:none;fill-opacity:1;stroke:#000;stroke-width:.5;stroke-linecap:round;stroke-linejoin:round;stroke-miterlimit:4;stroke-dasharray:none;stroke-opacity:.02"/><rect width="29.811" height="29.811" x="69.84" y="40.71" rx="6.61" ry="6.61" style="fill:none;fill-opacity:1;stroke:#000;stroke-width:.6;stroke-linecap:round;stroke-linejoin:round;stroke-miterlimit:4;stroke-dasharray:none;stroke-opacity:.02"/><rect width="29.811" height="29.811" x="69.84" y="40.71" rx="6.61" ry="6.61" style="fill:none;fill-opacity:1;stroke:#000;stroke-width:.7;stroke-linecap:round;stroke-linejoin:round;stroke-miterlimit:4;stroke-dasharray:none;stroke-opacity:.02"/><rect width="29.811" height="29.811" x="69.84" y="40.71" rx="6.61" ry="6.61" style="fill:none;fill-opacity:1;stroke:#000;stroke-width:.8;stroke-linecap:round;stroke-linejoin:round;stroke-miterlimit:4;stroke-dasharray:none;stroke-opacity:.02"/><rect width="29.811" height="29.811" x="69.84" y="40.71" rx="6.61" ry="6.61" style="fill:none;fill-opacity:1;stroke:#000;stroke-width:1;stroke-linecap:round;stroke-linejoin:round;stroke-miterlimit:4;stroke-dasharray:none;stroke-opacity:.02"/><rect width="29.811" height="29.811" x="69.84" y="40.71" rx="6.61" ry="6.61" style="fill:none;fill-opacity:1;stroke:#000;stroke-width:1.2;stroke-linecap:round;stroke-linejoin:round;stroke-miterlimit:4;stroke-dasharray:none;stroke-opacity:.02"/><rect width="29.811" height="29.811" x="69.84" y="40.71" rx="6.61" ry="6.61" style="fill:none;fill-opacity:1;stroke:#000;stroke-width:1.4;stroke-linecap:round;stroke-linejoin:round;stroke-miterlimit:4;stroke-dasharray:none;stroke-opacity:.02"/><rect width="29.811" height="29.811" x="69.84" y="40.71" rx="6.61" ry="6.61" style="fill:none;fill-opacity:1;stroke:#000;stroke-width:1.6;stroke-linecap:round;stroke-linejoin:round;stroke-miterlimit:4;stroke-dasharray:none;stroke-opacity:.02"/><rect width="29.811" height="29.811" x="69.84" y="40.71" rx="6.61" ry="6.61" style="fill:none;fill-opacity:1;stroke:#000;stroke-width:1.8;stroke-linecap:round;stroke-linejoin:round;stroke-miterlimit:4;stroke-dasharray:none;stroke-opacity:.02"/><rect width="29.811" height="29.811" x="69.84" y="40.71" rx="6.61" ry="6.61" style="fill:none;fill-opacity:1;stroke:#000;stroke-width:2;stroke-linecap:round;stroke-linejoin:round;stroke-miterlimit:4;stroke-dasharray:none;stroke-opacity:.02"/><rect width="29.811" height="29.811" x="69.84" y="40.71" rx="6.61" ry="6.61" style="fill:none;fill-opacity:1;stroke:#000;stroke-width:2.2;stroke-linecap:round;stroke-linejoin:round;stroke-miterlimit:4;stroke-dasharray:none;stroke-opacity:.02"/><rect width="29.811" height="29.811" x="69.84" y="40.71" rx="6.61" ry="6.61" style="fill:none;fill-opacity:1;stroke:#000;stroke-width:2.6;stroke-linecap:round;stroke-linejoin:round;stroke-miterlimit:4;stroke-dasharray:none;stroke-opacity:.02"/><rect width="29.811" height="29.811" x="69.84" y="40.71" rx="6.61" ry="6.61" style="fill:none;fill-opacity:1;stroke:#000;stroke-width:3;stroke-linecap:round;stroke-linejoin:round;stroke-miterlimit:4;stroke-dasharray:none;stroke-opacity:.02"/><rect width="29.811" height="29.811" x="69.84" y="40.71" rx="6.61" ry="6.61" style="fill:none;fill-opacity:1;stroke:#000;stroke-width:3.4;stroke-linecap:round;stroke-linejoin:round;stroke-miterlimit:4;stroke-dasharray:none;stroke-opacity:.02"/><rect width="29.811" height="29.811" x="69.84" y="40.71" rx="6.61" ry="6.61" style="fill:none;fill-opacity:1;stroke:#000;stroke-width:3.8;stroke-linecap:round;stroke-linejoin:round;stroke-miterlimit:4;stroke-dasharray:none;stroke-opacity:.02"/><rect width="29.811" height="29.811" x="69.84" y="40.71" rx="6.61" ry="6.61" style="fill:none;fill-opacity:1;stroke:#000;stroke-width:4.2;stroke-linecap:round;stroke-linejoin:round;stroke-miterlimit:4;stroke-dasharray:none;stroke-opacity:.02"/><rect width="29.811" height="29.811" x="69.84" y="40.71" rx="6.61" ry="6.61" style="fill:none;fill-opacity:1;stroke:#000;stroke-width:4.6;stroke-linecap:round;stroke-linejoin:round;stroke-miterlimit:4;stroke-dasharray:none;stroke-opacity:.02"/><rect width="29.811" height="29.811" x="69.84" y="40.71" rx="6.61" ry="6.61" style="fill:none;fill-opacity:1;stroke:#000;stroke-width:5;stroke-linecap:round;stroke-linejoin:round;stroke-miterlimit:4;stroke-dasharray:none;stroke-opacity:.02"/></g><rect width="29.087" height="29.087" x="2.474" y="2.466" rx="6.449" ry="6.449" style="fill:url(#b);fill-opacity:1;stroke-width:2.68801;stroke-linecap:round;stroke-linejoin:round;stroke-miterlimit:4;stroke-dasharray:none"/><g fill-opacity=".8"><path d="M16.933 7.53a9.3 9.3 0 0 0-4.623 1.234H8.784v3.488a9.36 9.36 0 0 0-1.254 4.682c0 1.705.46 3.302 1.254 4.681v3.448h3.448a9.3 9.3 0 0 0 4.701 1.274c1.72 0 3.335-.468 4.722-1.274h3.428v-3.428a9.34 9.34 0 0 0 1.254-4.702 9.34 9.34 0 0 0-1.254-4.701V8.764h-3.507a9.37 9.37 0 0 0-4.643-1.234m.04 1.587a7.793 7.793 0 0 1 7.796 7.797c0 4.31-3.487 7.816-7.796 7.816s-7.797-3.507-7.797-7.816a7.793 7.793 0 0 1 7.797-7.797"/><path d="m18.76 13.296.348.481-.78 5.16c-.574-2.323-1.325-5.402-1.327-5.408L15.74 18.92l-.98-4.696.2-.912-2.837-.033c.227.173.4.465.58.696l1.792 7.284c-.147.273-.368.531-.547.763l2.754.017-.2-.863.548-2.505.465 2.72-.083.648 2.704-.017-.016-.017-.365-.697 1.095-6.835.83-1.211z"/></g></svg>