<svg xmlns="http://www.w3.org/2000/svg" xmlns:xlink="http://www.w3.org/1999/xlink" width="64" height="64"><defs><linearGradient id="b" x1="7.937" x2="7.937" y1="15.081" y2="1.852" gradientTransform="translate(12.287 12.318)scale(2.3283)" gradientUnits="userSpaceOnUse"><stop offset="0" stop-color="#0e71de"/><stop offset="1" stop-color="#25c9ff"/></linearGradient><linearGradient id="c" x1="7.937" x2="7.937" y1="15.875" y2="11.906" gradientTransform="translate(8.002 8.013)scale(2.8345)" gradientUnits="userSpaceOnUse"><stop offset="0" stop-color="#e6e6e8"/><stop offset="1" stop-color="#cbccce"/></linearGradient><linearGradient id="e" x1="15" x2="15" y1="27" y2="1.999" gradientTransform="translate(0 32)" gradientUnits="userSpaceOnUse"><stop offset="0" stop-color="#1d1e1e"/><stop offset="1" stop-color="#44484c"/></linearGradient><linearGradient id="f" x1="17.382" x2="17.032" y1="26.933" y2="13.634" gradientTransform="translate(0 32)" gradientUnits="userSpaceOnUse"><stop offset="0" stop-color="#fcfcfc"/><stop offset="1" stop-color="#eff0f1"/></linearGradient><linearGradient xlink:href="#a" id="g" x1="10" x2="10" y1="30" y2="20.999" gradientTransform="translate(0 32)" gradientUnits="userSpaceOnUse"/><linearGradient id="a"><stop offset="0" stop-color="#f39c1f"/><stop offset="1" stop-color="#fdbc4b"/></linearGradient><linearGradient xlink:href="#a" id="h" x1="22.778" x2="22.645" y1="29.541" y2="22.641" gradientTransform="translate(0 32)" gradientUnits="userSpaceOnUse"/><linearGradient id="i" x1="13.167" x2="16.667" y1="10.613" y2="14.113" gradientTransform="translate(0 32)" gradientUnits="userSpaceOnUse"><stop offset="0"/><stop offset="1" stop-opacity="0"/></linearGradient><linearGradient xlink:href="#a" id="j" x1="16" x2="15.731" y1="12" y2="8.152" gradientTransform="translate(0 32)" gradientUnits="userSpaceOnUse"/><filter id="d" width="1.134" height="1.108" x="-.067" y="-.054" color-interpolation-filters="sRGB"><feGaussianBlur stdDeviation=".632"/></filter></defs><g transform="translate(-10.667 -10.668)scale(1.3333)"><rect width="42" height="42" x="11" y="11.001" fill="#4d4d4d" rx="9.749" ry="9.76"/><rect width="38.994" height="38.952" x="12.503" y="12.511" fill="#030000" rx="8.249" ry="8.249"/><rect width="34.498" height="34.498" x="14.752" y="14.763" fill="url(#b)" rx="6" ry="6"/><path fill="url(#c)" d="M11 42.511v.727a9.73 9.73 0 0 0 9.75 9.75H43.25a9.73 9.73 0 0 0 9.75-9.751v-.726z"/><g filter="url(#d)" opacity=".15" transform="translate(22.135 -17.368)scale(.9638)"><path d="M12.627 42.452c.36-1.426.013-2.942.063-4.412.11-3.21 1.892-3.938 3.719-4.033 2.096-.11 4.577 1.132 4.727 4.16.071 1.449-.185 2.946.189 4.348.871 3.27 4.61 5.631 4.664 9.013.05 3.214-1.43 7.002-4.16 8.698-1.41.876-3.323-.175-4.98-.063-1.843.126-3.893 1.763-5.483.82C8.48 59.27 7.684 54.878 7.9 51.528c.22-3.404 3.892-5.768 4.727-9.076"/><ellipse cx="17.76" cy="39.782" fill-opacity=".941" rx="1.482" ry="1.916"/><ellipse cx="14.25" cy="39.849" fill-opacity=".941" rx="1.047" ry="1.56"/><ellipse cx="17.576" cy="40.094" rx=".607" ry="1.003"/><ellipse cx="14.255" cy="40.094" rx=".462" ry=".747"/><path d="M17.564 41.757a5 5 0 0 0-.545.004c-1.23.072-2.548.555-3.214 1.14-1.066.937-.434 1.848-.893 3.164s-1.614 3.038-1.96 4.68c-.14.663-.318 1.326-.44 1.992l3.293 4.024c.647.79-1.041.497-2.611-.52 1.114 1.567 3.324 3.12 5.506 2.973 2.324-.156 5.068-2.586 5.946-4.573-.852-.144-1.68-1.426-.998-2.381.237-.331.746-.36 1.183-.29-.263-1.018-.787-1.93-1.05-2.696-.456-1.336-.986-1.71-1.47-2.896-.485-1.186.027-3.38-1.338-4.234-.384-.24-.875-.36-1.409-.387"/><path d="M7.333 54.365c.487-.39.715-1.183 1.323-1.324.476-.11 1.01.163 1.387.473.861.708.992 2.014 1.67 2.9.452.589 1.218.924 1.576 1.575.373.68.854 1.578.504 2.269-.472.931-1.824 1.22-2.868 1.26-.634.025-1.185-.46-1.796-.63-.89-.248-1.917-.095-2.71-.567-.628-.373-1.372-.941-1.418-1.67-.019-.288.402-.445.472-.725.186-.736-.527-1.59-.189-2.27.36-.722 1.418-.787 2.049-1.291m14.097-1.096c-.201.18-.371.407-.495.632-.538.977-.175 2.24-.477 3.313-.202.715-.789 1.31-.88 2.046-.095.77-.21 1.782.371 2.295.784.69 2.147.457 3.131.108.599-.212.93-.866 1.435-1.25.734-.56 1.745-.8 2.307-1.531.445-.58.927-1.382.7-2.076-.09-.274-.538-.265-.707-.499-.445-.615-.1-1.67-.665-2.176-.42-.375-1.037-.332-1.633-.348-.288.617-1.226 1.037-1.871.858-.546-.152-1.09-.773-1.216-1.372"/><path d="m19 41.401 3.333 3.333-4.666 2.38-4.5-4.5" opacity=".2"/><path d="M15.731 40.152c.659-.035 1.265.392 1.86.677.575.277 1.557.36 1.638.993.093.719-.92 1.143-1.512 1.56-.529.373-1.119.81-1.765.804-.653-.007-1.231-.475-1.765-.851-.44-.31-1.133-.596-1.15-1.135-.019-.576.69-.943 1.15-1.292.456-.346.972-.726 1.544-.756"/><path fill-opacity=".125" d="M9.021 53.025a1 1 0 0 0-.365.016c-.608.141-.837.934-1.324 1.324-.631.504-1.689.57-2.049 1.291-.15.302-.082.64.012.985.368-.706 1.411-.776 2.037-1.276.487-.39.716-1.183 1.324-1.324.476-.11 1.01.163 1.387.473.861.708.992 2.014 1.67 2.9.452.59 1.218.923 1.576 1.574.195.356.413.772.533 1.186.275-.679-.175-1.532-.533-2.186-.358-.65-1.124-.985-1.576-1.574-.678-.886-.809-2.192-1.67-2.9-.283-.233-.653-.444-1.022-.489m-3.623 5.036c-.139.201-.412.352-.396.59.014.22.104.42.223.61.105-.102.215-.205.248-.335.07-.277.006-.571-.075-.865M21.43 53.27c-.201.18-.37.405-.494.63-.538.977-.177 2.242-.479 3.315-.202.715-.788 1.309-.879 2.045-.053.43-.098.927-.039 1.379.013-.128.024-.26.04-.38.09-.735.676-1.33.878-2.044.302-1.073-.06-2.338.479-3.315.124-.225.293-.45.494-.63.126.599.67 1.219 1.216 1.37.645.18 1.584-.24 1.872-.857.596.016 1.212-.027 1.632.348.565.506.22 1.56.664 2.176.15.207.507.235.65.427.106-.312.155-.629.057-.927-.09-.274-.538-.266-.707-.5-.445-.615-.099-1.67-.664-2.176-.42-.375-1.036-.332-1.632-.348-.288.617-1.227 1.037-1.872.858-.546-.152-1.09-.772-1.216-1.371"/></g><g transform="translate(22.135 -17.368)scale(.9638)"><path fill="url(#e)" d="M12.627 42.452c.36-1.426.013-2.942.063-4.412.11-3.21 1.892-3.938 3.719-4.033 2.096-.11 4.577 1.132 4.727 4.16.071 1.449-.185 2.946.189 4.348.871 3.27 4.61 5.631 4.664 9.013.05 3.214-1.43 7.002-4.16 8.698-1.41.876-3.323-.175-4.98-.063-1.843.126-3.893 1.763-5.483.82C8.48 59.27 7.684 54.878 7.9 51.528c.22-3.404 3.892-5.768 4.727-9.076"/><ellipse cx="17.76" cy="39.782" fill="#fcfcfc" fill-opacity=".941" rx="1.482" ry="1.916"/><ellipse cx="14.25" cy="39.849" fill="#fcfcfc" fill-opacity=".941" rx="1.047" ry="1.56"/><ellipse cx="17.576" cy="40.094" fill="#232629" rx=".607" ry="1.003"/><ellipse cx="14.255" cy="40.094" fill="#232629" rx=".462" ry=".747"/><path fill="url(#f)" d="M17.564 41.757a5 5 0 0 0-.545.004c-1.23.072-2.548.555-3.214 1.14-1.066.937-.434 1.848-.893 3.164s-1.614 3.038-1.96 4.68c-.14.663-.318 1.326-.44 1.992l3.293 4.024c.647.79-1.041.497-2.611-.52 1.114 1.567 3.324 3.12 5.506 2.973 2.324-.156 5.068-2.586 5.946-4.573-.852-.144-1.68-1.426-.998-2.381.237-.331.746-.36 1.183-.29-.263-1.018-.787-1.93-1.05-2.696-.456-1.336-.986-1.71-1.47-2.896-.485-1.186.027-3.38-1.338-4.234-.384-.24-.875-.36-1.409-.387"/><path fill="url(#g)" d="M7.333 54.365c.487-.39.715-1.183 1.323-1.324.476-.11 1.01.163 1.387.473.861.708.992 2.014 1.67 2.9.452.589 1.218.924 1.576 1.575.373.68.854 1.578.504 2.269-.472.931-1.824 1.22-2.868 1.26-.634.025-1.185-.46-1.796-.63-.89-.248-1.917-.095-2.71-.567-.628-.373-1.372-.941-1.418-1.67-.019-.288.402-.445.472-.725.186-.736-.527-1.59-.189-2.27.36-.722 1.418-.787 2.049-1.291"/><path fill="url(#h)" d="M21.43 53.269c-.201.18-.371.407-.495.632-.538.977-.175 2.24-.477 3.313-.202.715-.789 1.31-.88 2.046-.095.77-.21 1.782.371 2.295.784.69 2.147.457 3.131.108.599-.212.93-.866 1.435-1.25.734-.56 1.745-.8 2.307-1.531.445-.58.927-1.382.7-2.076-.09-.274-.538-.265-.707-.499-.445-.615-.1-1.67-.665-2.176-.42-.375-1.037-.332-1.633-.348-.288.617-1.226 1.037-1.871.858-.546-.152-1.09-.773-1.216-1.372"/><path fill="url(#i)" d="m19 41.401 3.333 3.333-4.666 2.38-4.5-4.5" opacity=".2"/><path fill="url(#j)" d="M15.731 40.152c.659-.035 1.265.392 1.86.677.575.277 1.557.36 1.638.993.093.719-.92 1.143-1.512 1.56-.529.373-1.119.81-1.765.804-.653-.007-1.231-.475-1.765-.851-.44-.31-1.133-.596-1.15-1.135-.019-.576.69-.943 1.15-1.292.456-.346.972-.726 1.544-.756"/><path fill="#eff0f1" fill-opacity=".125" d="M9.021 53.025a1 1 0 0 0-.365.016c-.608.141-.837.934-1.324 1.324-.631.504-1.689.57-2.049 1.291-.15.302-.082.64.012.985.368-.706 1.411-.776 2.037-1.276.487-.39.716-1.183 1.324-1.324.476-.11 1.01.163 1.387.473.861.708.992 2.014 1.67 2.9.452.59 1.218.923 1.576 1.574.195.356.413.772.533 1.186.275-.679-.175-1.532-.533-2.186-.358-.65-1.124-.985-1.576-1.574-.678-.886-.809-2.192-1.67-2.9-.283-.233-.653-.444-1.022-.489m-3.623 5.036c-.139.201-.412.352-.396.59.014.22.104.42.223.61.105-.102.215-.205.248-.335.07-.277.006-.571-.075-.865M21.43 53.27c-.201.18-.37.405-.494.63-.538.977-.177 2.242-.479 3.315-.202.715-.788 1.309-.879 2.045-.053.43-.098.927-.039 1.379.013-.128.024-.26.04-.38.09-.735.676-1.33.878-2.044.302-1.073-.06-2.338.479-3.315.124-.225.293-.45.494-.63.126.599.67 1.219 1.216 1.37.645.18 1.584-.24 1.872-.857.596.016 1.212-.027 1.632.348.565.506.22 1.56.664 2.176.15.207.507.235.65.427.106-.312.155-.629.057-.927-.09-.274-.538-.266-.707-.5-.445-.615-.099-1.67-.664-2.176-.42-.375-1.036-.332-1.632-.348-.288.617-1.227 1.037-1.872.858-.546-.152-1.09-.772-1.216-1.371"/></g><path fill="#0e5ea5" d="M21.036 50.901h1.541l-2.525-3.64 2.257-3.26h-1.482l-1.442 2.257L17.954 44h-1.522l2.257 3.311-2.436 3.59h1.482l1.62-2.595zm5.24 0h.915v-2.903c0-1.313-.746-2.029-2.178-2.029-.686 0-1.432.17-1.998.468l.298.884q.76-.297 1.432-.298c.775 0 1.193.298 1.193.875v.13c-2.088.03-3.013.507-3.013 1.53 0 .876.646 1.442 1.67 1.442.617 0 1.134-.198 1.502-.576zm-.338-1.243a1.35 1.35 0 0 1-.925.348c-.487 0-.815-.248-.815-.616 0-.438.497-.637 1.74-.657zm3.59 1.243h1.213l1.083-3.41 1.174 3.41h1.263l1.61-4.832h-1.243l-.974 3.44-1.104-3.42h-1.262l-1.084 3.52-.955-3.54h-1.392zm8.69 0h1.263v-5.777h2.227V44H36v1.124h2.217zm6.085 0h1.332l2.486-6.9H46.81l-1.78 5.379-1.71-5.38h-1.492z" aria-label="XawTV"/></g></svg>