<svg width="64" height="64" version="1.1" xmlns="http://www.w3.org/2000/svg" xmlns:xlink="http://www.w3.org/1999/xlink">
 <defs>
  <linearGradient id="b" x1="7.937" x2="7.937" y1="15.081" y2="1.852" gradientTransform="matrix(2.3283,0,0,2.3283,12.287,12.318)" gradientUnits="userSpaceOnUse">
   <stop stop-color="#0e71de" offset="0"/>
   <stop stop-color="#25c9ff" offset="1"/>
  </linearGradient>
  <linearGradient id="c" x1="7.937" x2="7.937" y1="15.875" y2="11.906" gradientTransform="matrix(2.8345,0,0,2.8345,8.002,8.013)" gradientUnits="userSpaceOnUse">
   <stop stop-color="#e6e6e8" offset="0"/>
   <stop stop-color="#cbccce" offset="1"/>
  </linearGradient>
  <filter id="d" x="-.067176" y="-.054172" width="1.1344" height="1.1083" color-interpolation-filters="sRGB">
   <feGaussianBlur stdDeviation=".632"/>
  </filter>
  <linearGradient id="e" x1="15" x2="15" y1="27" y2="1.999" gradientTransform="translate(0,32)" gradientUnits="userSpaceOnUse">
   <stop stop-color="#1d1e1e" offset="0"/>
   <stop stop-color="#44484c" offset="1"/>
  </linearGradient>
  <linearGradient id="f" x1="17.382" x2="17.032" y1="26.933" y2="13.634" gradientTransform="translate(0,32)" gradientUnits="userSpaceOnUse">
   <stop stop-color="#fcfcfc" offset="0"/>
   <stop stop-color="#eff0f1" offset="1"/>
  </linearGradient>
  <linearGradient id="g" x1="10" x2="10" y1="30" y2="20.999" gradientTransform="translate(0,32)" gradientUnits="userSpaceOnUse" xlink:href="#a-8"/>
  <linearGradient id="a-8">
   <stop stop-color="#f39c1f" offset="0"/>
   <stop stop-color="#fdbc4b" offset="1"/>
  </linearGradient>
  <linearGradient id="h" x1="22.778" x2="22.645" y1="29.541" y2="22.641" gradientTransform="translate(0,32)" gradientUnits="userSpaceOnUse" xlink:href="#a-8"/>
  <linearGradient id="i" x1="13.167" x2="16.667" y1="10.613" y2="14.113" gradientTransform="translate(0,32)" gradientUnits="userSpaceOnUse">
   <stop offset="0"/>
   <stop stop-opacity="0" offset="1"/>
  </linearGradient>
  <linearGradient id="j" x1="16" x2="15.731" y1="12" y2="8.152" gradientTransform="translate(0,32)" gradientUnits="userSpaceOnUse" xlink:href="#a-8"/>
 </defs>
 <g transform="matrix(1.3333 0 0 1.3333 -10.667 -10.668)">
  <rect x="11" y="11.001" width="42" height="42" rx="9.7492" ry="9.7599" fill="#4d4d4d" stroke-width=".8082"/>
  <rect x="12.503" y="12.511" width="38.994" height="38.952" rx="8.2487" ry="8.2487" fill="#030000" stroke-width=".74995"/>
  <rect x="14.752" y="14.763" width="34.498" height="34.498" rx="5.9996" ry="5.9996" fill="url(#b)" stroke-width=".74995"/>
  <path d="m11 42.511v0.7267a9.7299 9.7299 0 0 0 9.7508 9.7501h22.498a9.7299 9.7299 0 0 0 9.7508-9.7508v-0.72595z" fill="url(#c)" stroke-width=".74995"/>
  <g transform="matrix(.64253 0 0 .64253 20.488 8.3339)">
   <g transform="matrix(1.5,0,0,1.5,2.564,-40.001)" filter="url(#d)" opacity=".15">
    <path d="m12.627 42.452c0.36-1.426 0.013-2.942 0.063-4.412 0.11-3.21 1.892-3.938 3.719-4.033 2.096-0.11 4.577 1.132 4.727 4.16 0.071 1.449-0.185 2.946 0.189 4.348 0.871 3.27 4.61 5.631 4.664 9.013 0.05 3.214-1.43 7.002-4.16 8.698-1.41 0.876-3.323-0.175-4.98-0.063-1.843 0.126-3.893 1.763-5.483 0.82-2.886-1.713-3.682-6.105-3.466-9.455 0.22-3.404 3.892-5.768 4.727-9.076"/>
    <ellipse cx="17.76" cy="39.782" rx="1.482" ry="1.916" fill-opacity=".941"/>
    <ellipse cx="14.25" cy="39.849" rx="1.047" ry="1.56" fill-opacity=".941"/>
    <ellipse cx="17.576" cy="40.094" rx=".607" ry="1.003"/>
    <ellipse cx="14.255" cy="40.094" rx=".462" ry=".747"/>
    <path d="m17.564 41.757a5 5 0 0 0-0.545 4e-3c-1.23 0.072-2.548 0.555-3.214 1.14-1.066 0.937-0.434 1.848-0.893 3.164s-1.614 3.038-1.96 4.68c-0.14 0.663-0.318 1.326-0.44 1.992l3.293 4.024c0.647 0.79-1.041 0.497-2.611-0.52 1.114 1.567 3.324 3.12 5.506 2.973 2.324-0.156 5.068-2.586 5.946-4.573-0.852-0.144-1.68-1.426-0.998-2.381 0.237-0.331 0.746-0.36 1.183-0.29-0.263-1.018-0.787-1.93-1.05-2.696-0.456-1.336-0.986-1.71-1.47-2.896-0.485-1.186 0.027-3.38-1.338-4.234-0.384-0.24-0.875-0.36-1.409-0.387"/>
    <path d="m7.333 54.365c0.487-0.39 0.715-1.183 1.323-1.324 0.476-0.11 1.01 0.163 1.387 0.473 0.861 0.708 0.992 2.014 1.67 2.9 0.452 0.589 1.218 0.924 1.576 1.575 0.373 0.68 0.854 1.578 0.504 2.269-0.472 0.931-1.824 1.22-2.868 1.26-0.634 0.025-1.185-0.46-1.796-0.63-0.89-0.248-1.917-0.095-2.71-0.567-0.628-0.373-1.372-0.941-1.418-1.67-0.019-0.288 0.402-0.445 0.472-0.725 0.186-0.736-0.527-1.59-0.189-2.27 0.36-0.722 1.418-0.787 2.049-1.291m14.097-1.096c-0.201 0.18-0.371 0.407-0.495 0.632-0.538 0.977-0.175 2.24-0.477 3.313-0.202 0.715-0.789 1.31-0.88 2.046-0.095 0.77-0.21 1.782 0.371 2.295 0.784 0.69 2.147 0.457 3.131 0.108 0.599-0.212 0.93-0.866 1.435-1.25 0.734-0.56 1.745-0.8 2.307-1.531 0.445-0.58 0.927-1.382 0.7-2.076-0.09-0.274-0.538-0.265-0.707-0.499-0.445-0.615-0.1-1.67-0.665-2.176-0.42-0.375-1.037-0.332-1.633-0.348-0.288 0.617-1.226 1.037-1.871 0.858-0.546-0.152-1.09-0.773-1.216-1.372"/>
    <path d="m19 41.401 3.333 3.333-4.666 2.38-4.5-4.5" opacity=".2"/>
    <path d="m15.731 40.152c0.659-0.035 1.265 0.392 1.86 0.677 0.575 0.277 1.557 0.36 1.638 0.993 0.093 0.719-0.92 1.143-1.512 1.56-0.529 0.373-1.119 0.81-1.765 0.804-0.653-7e-3 -1.231-0.475-1.765-0.851-0.44-0.31-1.133-0.596-1.15-1.135-0.019-0.576 0.69-0.943 1.15-1.292 0.456-0.346 0.972-0.726 1.544-0.756"/>
    <path d="m9.021 53.025a1 1 0 0 0-0.365 0.016c-0.608 0.141-0.837 0.934-1.324 1.324-0.631 0.504-1.689 0.57-2.049 1.291-0.15 0.302-0.082 0.64 0.012 0.985 0.368-0.706 1.411-0.776 2.037-1.276 0.487-0.39 0.716-1.183 1.324-1.324 0.476-0.11 1.01 0.163 1.387 0.473 0.861 0.708 0.992 2.014 1.67 2.9 0.452 0.59 1.218 0.923 1.576 1.574 0.195 0.356 0.413 0.772 0.533 1.186 0.275-0.679-0.175-1.532-0.533-2.186-0.358-0.65-1.124-0.985-1.576-1.574-0.678-0.886-0.809-2.192-1.67-2.9-0.283-0.233-0.653-0.444-1.022-0.489m-3.623 5.036c-0.139 0.201-0.412 0.352-0.396 0.59 0.014 0.22 0.104 0.42 0.223 0.61 0.105-0.102 0.215-0.205 0.248-0.335 0.07-0.277 6e-3 -0.571-0.075-0.865m16.032-4.791c-0.201 0.18-0.37 0.405-0.494 0.63-0.538 0.977-0.177 2.242-0.479 3.315-0.202 0.715-0.788 1.309-0.879 2.045-0.053 0.43-0.098 0.927-0.039 1.379 0.013-0.128 0.024-0.26 0.04-0.38 0.09-0.735 0.676-1.33 0.878-2.044 0.302-1.073-0.06-2.338 0.479-3.315 0.124-0.225 0.293-0.45 0.494-0.63 0.126 0.599 0.67 1.219 1.216 1.37 0.645 0.18 1.584-0.24 1.872-0.857 0.596 0.016 1.212-0.027 1.632 0.348 0.565 0.506 0.22 1.56 0.664 2.176 0.15 0.207 0.507 0.235 0.65 0.427 0.106-0.312 0.155-0.629 0.057-0.927-0.09-0.274-0.538-0.266-0.707-0.5-0.445-0.615-0.099-1.67-0.664-2.176-0.42-0.375-1.036-0.332-1.632-0.348-0.288 0.617-1.227 1.037-1.872 0.858-0.546-0.152-1.09-0.772-1.216-1.371" fill-opacity=".125"/>
   </g>
   <g transform="matrix(1.5,0,0,1.5,2.564,-40.001)">
    <path d="m12.627 42.452c0.36-1.426 0.013-2.942 0.063-4.412 0.11-3.21 1.892-3.938 3.719-4.033 2.096-0.11 4.577 1.132 4.727 4.16 0.071 1.449-0.185 2.946 0.189 4.348 0.871 3.27 4.61 5.631 4.664 9.013 0.05 3.214-1.43 7.002-4.16 8.698-1.41 0.876-3.323-0.175-4.98-0.063-1.843 0.126-3.893 1.763-5.483 0.82-2.886-1.713-3.682-6.105-3.466-9.455 0.22-3.404 3.892-5.768 4.727-9.076" fill="url(#e)"/>
    <ellipse cx="17.76" cy="39.782" rx="1.482" ry="1.916" fill="#fcfcfc" fill-opacity=".941"/>
    <ellipse cx="14.25" cy="39.849" rx="1.047" ry="1.56" fill="#fcfcfc" fill-opacity=".941"/>
    <ellipse cx="17.576" cy="40.094" rx=".607" ry="1.003" fill="#232629"/>
    <ellipse cx="14.255" cy="40.094" rx=".462" ry=".747" fill="#232629"/>
    <path d="m17.564 41.757a5 5 0 0 0-0.545 4e-3c-1.23 0.072-2.548 0.555-3.214 1.14-1.066 0.937-0.434 1.848-0.893 3.164s-1.614 3.038-1.96 4.68c-0.14 0.663-0.318 1.326-0.44 1.992l3.293 4.024c0.647 0.79-1.041 0.497-2.611-0.52 1.114 1.567 3.324 3.12 5.506 2.973 2.324-0.156 5.068-2.586 5.946-4.573-0.852-0.144-1.68-1.426-0.998-2.381 0.237-0.331 0.746-0.36 1.183-0.29-0.263-1.018-0.787-1.93-1.05-2.696-0.456-1.336-0.986-1.71-1.47-2.896-0.485-1.186 0.027-3.38-1.338-4.234-0.384-0.24-0.875-0.36-1.409-0.387" fill="url(#f)"/>
    <path d="m7.333 54.365c0.487-0.39 0.715-1.183 1.323-1.324 0.476-0.11 1.01 0.163 1.387 0.473 0.861 0.708 0.992 2.014 1.67 2.9 0.452 0.589 1.218 0.924 1.576 1.575 0.373 0.68 0.854 1.578 0.504 2.269-0.472 0.931-1.824 1.22-2.868 1.26-0.634 0.025-1.185-0.46-1.796-0.63-0.89-0.248-1.917-0.095-2.71-0.567-0.628-0.373-1.372-0.941-1.418-1.67-0.019-0.288 0.402-0.445 0.472-0.725 0.186-0.736-0.527-1.59-0.189-2.27 0.36-0.722 1.418-0.787 2.049-1.291" fill="url(#g)"/>
    <path d="m21.43 53.269c-0.201 0.18-0.371 0.407-0.495 0.632-0.538 0.977-0.175 2.24-0.477 3.313-0.202 0.715-0.789 1.31-0.88 2.046-0.095 0.77-0.21 1.782 0.371 2.295 0.784 0.69 2.147 0.457 3.131 0.108 0.599-0.212 0.93-0.866 1.435-1.25 0.734-0.56 1.745-0.8 2.307-1.531 0.445-0.58 0.927-1.382 0.7-2.076-0.09-0.274-0.538-0.265-0.707-0.499-0.445-0.615-0.1-1.67-0.665-2.176-0.42-0.375-1.037-0.332-1.633-0.348-0.288 0.617-1.226 1.037-1.871 0.858-0.546-0.152-1.09-0.773-1.216-1.372" fill="url(#h)"/>
    <path d="m19 41.401 3.333 3.333-4.666 2.38-4.5-4.5" fill="url(#i)" opacity=".2"/>
    <path d="m15.731 40.152c0.659-0.035 1.265 0.392 1.86 0.677 0.575 0.277 1.557 0.36 1.638 0.993 0.093 0.719-0.92 1.143-1.512 1.56-0.529 0.373-1.119 0.81-1.765 0.804-0.653-7e-3 -1.231-0.475-1.765-0.851-0.44-0.31-1.133-0.596-1.15-1.135-0.019-0.576 0.69-0.943 1.15-1.292 0.456-0.346 0.972-0.726 1.544-0.756" fill="url(#j)"/>
    <path d="m9.021 53.025a1 1 0 0 0-0.365 0.016c-0.608 0.141-0.837 0.934-1.324 1.324-0.631 0.504-1.689 0.57-2.049 1.291-0.15 0.302-0.082 0.64 0.012 0.985 0.368-0.706 1.411-0.776 2.037-1.276 0.487-0.39 0.716-1.183 1.324-1.324 0.476-0.11 1.01 0.163 1.387 0.473 0.861 0.708 0.992 2.014 1.67 2.9 0.452 0.59 1.218 0.923 1.576 1.574 0.195 0.356 0.413 0.772 0.533 1.186 0.275-0.679-0.175-1.532-0.533-2.186-0.358-0.65-1.124-0.985-1.576-1.574-0.678-0.886-0.809-2.192-1.67-2.9-0.283-0.233-0.653-0.444-1.022-0.489m-3.623 5.036c-0.139 0.201-0.412 0.352-0.396 0.59 0.014 0.22 0.104 0.42 0.223 0.61 0.105-0.102 0.215-0.205 0.248-0.335 0.07-0.277 6e-3 -0.571-0.075-0.865m16.032-4.791c-0.201 0.18-0.37 0.405-0.494 0.63-0.538 0.977-0.177 2.242-0.479 3.315-0.202 0.715-0.788 1.309-0.879 2.045-0.053 0.43-0.098 0.927-0.039 1.379 0.013-0.128 0.024-0.26 0.04-0.38 0.09-0.735 0.676-1.33 0.878-2.044 0.302-1.073-0.06-2.338 0.479-3.315 0.124-0.225 0.293-0.45 0.494-0.63 0.126 0.599 0.67 1.219 1.216 1.37 0.645 0.18 1.584-0.24 1.872-0.857 0.596 0.016 1.212-0.027 1.632 0.348 0.565 0.506 0.22 1.56 0.664 2.176 0.15 0.207 0.507 0.235 0.65 0.427 0.106-0.312 0.155-0.629 0.057-0.927-0.09-0.274-0.538-0.266-0.707-0.5-0.445-0.615-0.099-1.67-0.664-2.176-0.42-0.375-1.036-0.332-1.632-0.348-0.288 0.617-1.227 1.037-1.872 0.858-0.546-0.152-1.09-0.772-1.216-1.371" fill="#eff0f1" fill-opacity=".125"/>
   </g>
  </g>
  <path d="m21.036 50.901h1.5412l-2.5256-3.6392 2.2571-3.2614h-1.4815l-1.4418 2.2571-1.4318-2.2571h-1.5213l2.2571 3.3111-2.4361 3.5895h1.4815l1.6207-2.5952zm5.2401 0h0.91477v-2.9034c0-1.3125-0.74574-2.0284-2.1776-2.0284-0.68608 0-1.4318 0.16903-1.9986 0.46733l0.2983 0.88494c0.5071-0.19886 0.98438-0.2983 1.4318-0.2983 0.77557 0 1.1932 0.2983 1.1932 0.875v0.12926c-2.0881 0.02983-3.0128 0.5071-3.0128 1.5312 0 0.875 0.64631 1.4418 1.6705 1.4418 0.61648 0 1.1335-0.19886 1.5014-0.5767zm-0.33807-1.2429c-0.23864 0.21875-0.55682 0.34801-0.92472 0.34801-0.48722 0-0.81534-0.24858-0.81534-0.61648 0-0.4375 0.49716-0.63636 1.7401-0.65625zm3.5895 1.2429h1.2131l1.0838-3.4105 1.1733 3.4105h1.2628l1.6108-4.8324h-1.2429l-0.97443 3.4403-1.1037-3.4205h-1.2628l-1.0838 3.5199-0.95454-3.5398h-1.392zm8.6903 0h1.2628v-5.777h2.2273v-1.1236h-5.7074v1.1236h2.2173zm6.0852 0h1.3324l2.4858-6.9006h-1.3125l-1.7798 5.3793-1.7102-5.3793h-1.4915z" fill="#0e5ea5" stroke-linecap="square" stroke-width=".051787" aria-label="XawTV"/>
 </g>
</svg>
