<svg width="64" height="64" xmlns="http://www.w3.org/2000/svg"><defs><linearGradient id="b" x1="10.973" x2="36.937" y1="24" y2="24" gradientTransform="matrix(1.502 0 0 1.5037 -3.983 -3.342)" gradientUnits="userSpaceOnUse"><stop stop-color="#2a2c2f" offset="0"/><stop stop-color="#424649" offset="1"/></linearGradient><linearGradient id="c" x1="319.21" x2="657.65" y1="235.15" y2="269.49" gradientTransform="matrix(.13235 0 0 .13075 -32.379 1.087)" gradientUnits="userSpaceOnUse"><stop stop-color="#e54c18" offset="0"/><stop stop-color="#fec350" offset="1"/></linearGradient><linearGradient id="a" x1="7.937" x2="7.937" y1="15.081" y2="1.852" gradientTransform="translate(0 .032) scale(3.7795)" gradientUnits="userSpaceOnUse"><stop stop-color="#f1efeb" offset="0"/><stop stop-color="#fdfcfc" offset="1"/></linearGradient><filter id="d" x="-.1" y="-.118" width="1.199" height="1.236" color-interpolation-filters="sRGB"><feGaussianBlur stdDeviation="1.991"/></filter></defs><g color="#000"><path d="M4.37.53C2.254.53.53 2.312.53 4.496v8.468c0 2.184 1.725 3.968 3.84 3.968h8.194c2.114 0 3.84-1.783 3.84-3.968V4.497c0-2.184-1.726-3.968-3.84-3.968zm.256.52h7.681c1.844 0 3.33 1.534 3.33 3.44v7.937c0 1.906-1.485 3.44-3.33 3.44h-7.68c-1.845 0-3.33-1.534-3.33-3.44V4.49c0-1.906 1.485-3.44 3.33-3.44z" opacity=".01" style="font-feature-settings:normal;font-variant-alternates:normal;font-variant-caps:normal;font-variant-east-asian:normal;font-variant-ligatures:normal;font-variant-numeric:normal;font-variant-position:normal;font-variation-settings:normal;inline-size:0;isolation:auto;mix-blend-mode:normal;shape-margin:0;shape-padding:0;text-decoration-color:#000;text-decoration-line:none;text-decoration-style:solid;text-indent:0;text-orientation:mixed;text-transform:none;white-space:normal" transform="scale(3.7796)"/><path d="M4.359.794C2.392.794.795 2.447.795 4.48v8.5c0 2.035 1.597 3.688 3.564 3.688h8.216c1.967 0 3.564-1.653 3.564-3.688v-8.5c0-2.034-1.597-3.687-3.564-3.687zm.272.256h7.672c1.842 0 3.325 1.534 3.325 3.44v7.937c0 1.906-1.483 3.44-3.325 3.44H4.63c-1.842 0-3.325-1.534-3.325-3.44V4.49c0-1.906 1.483-3.44 3.325-3.44z" opacity=".01" style="font-feature-settings:normal;font-variant-alternates:normal;font-variant-caps:normal;font-variant-east-asian:normal;font-variant-ligatures:normal;font-variant-numeric:normal;font-variant-position:normal;font-variation-settings:normal;inline-size:0;isolation:auto;mix-blend-mode:normal;shape-margin:0;shape-padding:0;text-decoration-color:#000;text-decoration-line:none;text-decoration-style:solid;text-indent:0;text-orientation:mixed;text-transform:none;white-space:normal" transform="scale(3.7796)"/><path d="M4.31 1.058c-1.866 0-3.375 1.539-3.375 3.44v8.467c0 1.9 1.57 3.439 3.435 3.439h8.2c1.866 0 3.427-1.538 3.427-3.44V4.498c0-1.9-1.51-3.439-3.375-3.439h-.097c1.794.087 3.214 1.582 3.214 3.432v7.937c0 1.906-1.506 3.44-3.377 3.44h-7.79c-1.871 0-3.377-1.534-3.377-3.44V4.49c0-1.85 1.42-3.345 3.214-3.432z" opacity=".03" style="font-feature-settings:normal;font-variant-alternates:normal;font-variant-caps:normal;font-variant-east-asian:normal;font-variant-ligatures:normal;font-variant-numeric:normal;font-variant-position:normal;font-variation-settings:normal;inline-size:0;isolation:auto;mix-blend-mode:normal;shape-margin:0;shape-padding:0;text-decoration-color:#000;text-decoration-line:none;text-decoration-style:solid;text-indent:0;text-orientation:mixed;text-transform:none;white-space:normal" transform="scale(3.7796)"/><path d="M4 46.969V49c0 6.648 5.896 12 12.544 12h30.961C54.153 61 60 55.648 60 49v-1.992a12.972 12.972 0 0 1-13 12.963H17.002A12.973 12.973 0 0 1 4 46.969z" opacity=".03" style="font-feature-settings:normal;font-variant-alternates:normal;font-variant-caps:normal;font-variant-east-asian:normal;font-variant-ligatures:normal;font-variant-numeric:normal;font-variant-position:normal;font-variation-settings:normal;inline-size:0;isolation:auto;mix-blend-mode:normal;shape-margin:0;shape-padding:0;text-decoration-color:#000;text-decoration-line:none;text-decoration-style:solid;text-indent:0;text-orientation:mixed;text-transform:none;white-space:normal"/><path d="M1.058 11.906v.592c0 1.939 1.573 3.5 3.332 3.5h8.16c1.76 0 3.325-1.561 3.325-3.5v-.58c-.006 2.095-1.537 3.78-3.44 3.78H4.498c-1.905 0-3.44-1.692-3.44-3.792z" opacity=".05" style="font-feature-settings:normal;font-variant-alternates:normal;font-variant-caps:normal;font-variant-east-asian:normal;font-variant-ligatures:normal;font-variant-numeric:normal;font-variant-position:normal;font-variation-settings:normal;inline-size:0;isolation:auto;mix-blend-mode:normal;shape-margin:0;shape-padding:0;text-decoration-color:#000;text-decoration-line:none;text-decoration-style:solid;text-indent:0;text-orientation:mixed;text-transform:none;white-space:normal" transform="scale(3.7796)"/></g><rect x="4" y="4" width="56" height="56" rx="13.002" ry="13.002" fill="url(#a)"/><g stroke-width="1.256"><path d="m12.934 52.982 14.724-19.274-15.159-21.192 9.743.008 12.08 16.663-18.06 23.794h-3.328zm28.819.014L29.758 36.304l18.211-23.805h3.245L36.43 31.863l15.068 21.132z" fill="url(#b)" transform="matrix(.79702 0 0 .79492 5.9 5.66)"/><path d="M31.996 19.892c-1.171 0-2.423.09-3.55.196 2.008 2.587 3.673 4.777 5.59 7.264-1.076-2.287-3.287-4.48-2.523-5.609.757-1.116 2.151-.928 2.257-.928 2.235 0 4.387.25 6.398.71l.472-.64c-2.683-.683-5.597-.993-8.644-.993zm12.106 2.087-.434.613c6.197 2.398 10.389 6.977 10.389 12.225 0 7.728-9.088 13.998-20.286 13.998-11.2 0-20.29-6.27-20.29-13.998 0-4.208 2.696-7.986 6.96-10.554l-1.31-1.973C12.44 25.092 8 30.01 8 35.61c0 8.712 10.75 15.78 23.995 15.78 13.247 0 24-7.068 24-15.78 0-5.81-4.78-10.89-11.895-13.631z" fill="url(#c)" transform="matrix(.79702 0 0 .79492 5.9 5.66)"/></g><g transform="matrix(.79702 0 0 .79492 5.9 6.767)" filter="url(#d)" opacity=".25" stroke-width="1.256"><path d="m12.934 52.982 14.724-19.274-15.159-21.192 9.743.008 12.08 16.663-18.06 23.794h-3.328zm28.819.014L29.758 36.304l18.211-23.805h3.245L36.43 31.863l15.068 21.132z"/><path d="M31.996 19.892c-1.171 0-2.423.09-3.55.196 2.008 2.587 3.673 4.777 5.59 7.264-1.076-2.287-3.287-4.48-2.523-5.609.757-1.116 2.151-.928 2.257-.928 2.235 0 4.387.25 6.398.71l.472-.64c-2.683-.683-5.597-.993-8.644-.993zm12.106 2.087-.434.613c6.197 2.398 10.389 6.977 10.389 12.225 0 7.728-9.088 13.998-20.286 13.998-11.2 0-20.29-6.27-20.29-13.998 0-4.208 2.696-7.986 6.96-10.554l-1.31-1.973C12.44 25.092 8 30.01 8 35.61c0 8.712 10.75 15.78 23.995 15.78 13.247 0 24-7.068 24-15.78 0-5.81-4.78-10.89-11.895-13.631z"/></g></svg>