<?xml version="1.0" encoding="UTF-8" standalone="no"?>
<svg
   width="64"
   height="64"
   version="1.1"
   viewBox="0 0 64 64"
   id="svg5"
   sodipodi:docname="zaz.svg"
   inkscape:version="1.3.2 (091e20ef0f, 2023-11-25)"
   xmlns:inkscape="http://www.inkscape.org/namespaces/inkscape"
   xmlns:sodipodi="http://sodipodi.sourceforge.net/DTD/sodipodi-0.dtd"
   xmlns="http://www.w3.org/2000/svg"
   xmlns:svg="http://www.w3.org/2000/svg"
   xmlns:rdf="http://www.w3.org/1999/02/22-rdf-syntax-ns#"
   xmlns:cc="http://creativecommons.org/ns#"
   xmlns:dc="http://purl.org/dc/elements/1.1/">
  <sodipodi:namedview
     id="namedview5"
     pagecolor="#ffffff"
     bordercolor="#111111"
     borderopacity="1"
     inkscape:showpageshadow="0"
     inkscape:pageopacity="0"
     inkscape:pagecheckerboard="1"
     inkscape:deskcolor="#d1d1d1"
     inkscape:zoom="12.546875"
     inkscape:cx="31.960149"
     inkscape:cy="32"
     inkscape:window-width="1920"
     inkscape:window-height="1011"
     inkscape:window-x="0"
     inkscape:window-y="0"
     inkscape:window-maximized="1"
     inkscape:current-layer="svg5" />
  <metadata
     id="metadata1">
    <rdf:RDF>
      <cc:Work
         rdf:about="">
        <dc:format>image/svg+xml</dc:format>
        <dc:type
           rdf:resource="http://purl.org/dc/dcmitype/StillImage" />
        <dc:title />
      </cc:Work>
    </rdf:RDF>
  </metadata>
  <defs
     id="defs2">
    <filter
       id="filter1057"
       x="-0.026517856"
       y="-0.026517856"
       width="1.0530357"
       height="1.0530357"
       color-interpolation-filters="sRGB">
      <feGaussianBlur
         stdDeviation="0.61875"
         id="feGaussianBlur1" />
    </filter>
    <linearGradient
       id="linearGradient1053"
       x1="-127"
       x2="-127"
       y1="5"
       y2="60"
       gradientTransform="matrix(1 0 0 1 131.5 -.51047)"
       gradientUnits="userSpaceOnUse">
      <stop
         stop-color="#32d7ff"
         offset="0"
         id="stop1" />
      <stop
         stop-color="#329bff"
         offset="1"
         id="stop2" />
    </linearGradient>
  </defs>
  <linearGradient
     id="a"
     x1="399.57"
     x2="399.57"
     y1="545.8"
     y2="517.8"
     gradientUnits="userSpaceOnUse">
    <stop
       stop-color="#3889e9"
       offset="0"
       id="stop3" />
    <stop
       stop-color="#5ea5fb"
       offset="1"
       id="stop4" />
  </linearGradient>
  <g
     stroke-linecap="round"
     id="g5">
    <rect
       transform="matrix(1 0 0 1 -.00022759 -.00022773)"
       x="4"
       y="4"
       width="56"
       height="56"
       ry="13"
       fill="#141414"
       filter="url(#filter1057)"
       opacity=".3"
       stroke-width="2.7444"
       id="rect4" />
    <rect
       x="4"
       y="4"
       width="56"
       height="56"
       ry="13.011208"
       fill="url(#linearGradient1053)"
       stroke-width="2.7444"
       id="rect5"
       rx="13.011208" />
    <path
       d="m26.832 33.348c-0.52915-2.4739 1.5495-4.6526 3.9054-4.9684 3.3249-0.44583 6.141 2.3392 6.4315 5.5395 0.3787 4.1712-3.1294 7.6373-7.1737 7.8946-5.016 0.31905-9.1379-3.9197-9.3576-8.8079-0.26345-5.8603 4.7101-10.641 10.442-10.821 6.7042-0.21027 12.146 5.5005 12.284 12.076 0.15866 7.548-6.2909 13.651-13.71 13.747-8.3917 0.1081-15.158-7.0814-15.21-15.345-0.05831-9.2354 7.8719-16.665 16.979-16.673 10.079-0.0091 18.172 8.6624 18.136 18.613-0.01576 4.3339-1.5344 8.5955-4.223 11.99"
       fill="none"
       stroke="#fff"
       stroke-linejoin="round"
       stroke-opacity=".85081"
       stroke-width="2.9812"
       id="path5" />
  </g>
</svg>
