<svg width="22" height="22" fill="none" version="1.1" viewBox="0 0 22 22" xmlns="http://www.w3.org/2000/svg">
 <style id="current-color-scheme" type="text/css">.ColorScheme-Text {
  color:#363636;
}</style>
 <path class="ColorScheme-Text" d="m9.9727 2c-1.8778-0.029398-3.4771 0.55399-4.6836 1.2695-1.8384 1.0904-2.8652 2.5059-2.8652 2.5059l-0.97266 1.3379 1.6465-0.15039c1.9455-0.17759 2.9818 0.12678 3.5 0.40039 0.1214 0.064101 0.14402 0.10567 0.2168 0.16211-0.23572 0.28116-0.42345 0.46534-0.83398 1.1016-0.5236 0.81141-1.0811 1.8028-1.1875 2.8711v0.001953c-0.057856 0.29362-0.14236 0.97495 0.11133 1.7246 0.33826 0.99956 1.3196 2.1031 3.3125 2.6367 0.86616 0.23193 2.0556 1.223 3.1211 2.3281 0.60172 0.62408 1.1509 1.2607 1.6738 1.8105h2.2812c-0.20274-0.9653-0.59507-2.217-0.96875-3.3789-0.12649-0.39324-0.23249-0.71626-0.3457-1.0645 0.19953 0.09448 0.1674 0.13008 0.39844 0.2168 1.2212 0.45832 2.9264 0.7774 4.8945 0.30664l1.4395-0.34375-1.1309-0.95703c-1.4556-1.2326-4.0633-3.096-5.6562-4.2168 1.1081-0.49332 2.0507-1.3291 2.8203-2.1875 1.1267-1.2567 1.894-2.5937 2.2285-3.2871l0.67383-1.3984-1.5137 0.33984c-1.4864 0.33448-5.6576 1.467-6.8203 1.7812 0.01098-0.1092-0.025287-0.10222 0.007812-0.22461 0.14806-0.54702 0.47656-1.1555 1.7695-1.5449l2.125-0.64062-2.0781-0.78125c-0.8154-0.30601-1.5989-0.48663-2.3438-0.56836-0.27934-0.030648-0.55206-0.046582-0.82031-0.050781zm-0.041016 1.4844c0.22304 0.0043 0.45139 0.019929 0.68555 0.046875 0.099739 0.011479 0.21659 0.062225 0.31836 0.078125-0.54477 0.49969-0.92067 1.0529-1.0645 1.584-0.25918 0.95762-0.033203 1.7812-0.033203 1.7812l0.19336 0.72852 0.72656-0.19727s3.4259-0.90338 5.8086-1.5176c-0.33128 0.50367-0.47041 0.86156-0.93945 1.3848-0.99518 1.11-2.2405 2.0241-3.4785 2.1289-1.3204 0.11176-2.4999 0.016249-3.6953 0.18164-0.493 0.068207-0.98512 0.23892-1.4727 0.44531 0.1272-0.24937 0.11366-0.46001 0.26172-0.68945 0.54716-0.84792 1.1094-1.4727 1.1094-1.4727l0.31836-0.35156-0.18164-0.4375s-0.10922-0.23713-0.29492-0.45117-0.47417-0.46749-0.89453-0.68945c-0.52382-0.2766-1.3438-0.44774-2.332-0.5332 0.40316-0.3872 0.38438-0.52805 1.0879-0.94531 1.0258-0.60843 2.3157-1.1043 3.877-1.0742zm1.9395 7.5391c0.63019 0.44952 3.0823 2.2024 5.1367 3.7363-0.79858-0.04009-1.5243-0.17326-2.1035-0.39062-1.0105-0.37926-1.581-0.83244-1.7148-0.93555l-1.5605-1.2012 0.36524 1.9355c0.05619 0.29772 0.17328 0.65319 0.33398 1.1562 0.16071 0.50312 0.36219 1.1149 0.56836 1.7559 0.09214 0.28646 0.12821 0.49101 0.21875 0.7832-0.27565-0.29556-0.40116-0.40773-0.69726-0.71484-0.65645-0.68086-1.3532-1.3711-2.1133-1.9043 0.3468-0.32029 0.59484-0.70578 0.74219-1.1035 0.24578-0.66345 0.25102-1.3439 0.17969-1.9531-0.047899-0.40911-0.1329-0.79293-0.22656-1.125 0.28061-0.0076 0.56658-0.020103 0.87109-0.039062zm-2.4434 0.078124c0.00371-1.74e-4 0.0080107 1.72e-4 0.011719 0 0.1134 0.33014 0.24318 0.7844 0.29883 1.2598 0.05376 0.45914 0.029624 0.91424-0.097656 1.2578-0.12728 0.34357-0.31795 0.59286-0.76758 0.79102l-0.11133 0.048828c-0.051887-0.01607-0.10379-0.032835-0.15625-0.046875-1.645-0.44049-2.0951-1.1257-2.2793-1.6699-0.043583-0.12879-0.067371-0.25016-0.082031-0.36133 0.79668-0.82207 1.5068-1.0874 2.4141-1.2129 0.24173-0.03344 0.49886-0.053647 0.76953-0.066407z" fill="currentColor"/>
</svg>
